<?xml version="1.0" encoding="utf-8"?>
<svg version="1.1" id="Layer_1"
xmlns="http://www.w3.org/2000/svg"
xmlns:xlink="http://www.w3.org/1999/xlink"
xmlns:author="http://www.sothink.com"
width="21px" height="32px"
xml:space="preserve">
<g id="255" transform="matrix(1, 0, 0, 1, 0.4, 2.85)">
<path style="fill:#FFFFF6;fill-opacity:1" d="M0.7,7.45L1.1 6.95Q2.65 4.95 6.05 2.45Q9.4 0 12.95 -1.55L13.4 -1.25L14.7 -0.1L13.55 -0.3L13.45 -0.35Q13 -0.5 10.1 0.95Q7.2 2.35 6.4 2.95L5 3.85L3.6 4.9L0.65 7.95L0.7 7.45" />
<path style="fill:#76838C;fill-opacity:1" d="M13.6,0.4L13.6 0.5L13.5 1.6L13.3 1.55L10.7 3.25L7.5 5.6L4.75 8.1L3.65 9.2Q3.3 10.2 4.2 13.4Q5.25 17.3 7.4 20.3L9.5 22.6L11.45 24.1Q9.5 23.75 8.3 23Q6.8 22 5.4 19.85Q3.95 17.7 3.15 15.6Q2.35 13.5 2 11.6Q1.65 9.65 1.15 8.95L0.65 8.5L0.65 8.4L0.65 7.95L3.6 4.9L5 3.85L6.4 2.95Q7.2 2.35 10.1 0.95Q13 -0.5 13.45 -0.35L13.55 -0.3L13.6 0.4M14.3,2.1L14.45 1.6Q14.7 1 15.05 1L15.1 1L16.6 2.6L18.4 4.25L18.9 4.55L18.9 6.85L17.6 5.25L14.85 2.6L14.3 2.1M12.65,24.05L14.6 22.55L17.6 19.7L17.35 20.65L16.55 22.15L16.5 22.05L15.3 23.05Q14.1 24.1 12.65 24.05" />
<path style="fill:#1F2C31;fill-opacity:1" d="M17.35,20.65L17.6 19.7L14.6 22.55L12.65 24.05L12.45 24.2L12.4 24.2L12.05 24.4L11.45 24.1L9.5 22.6L7.4 20.3Q5.25 17.3 4.2 13.4Q3.3 10.2 3.65 9.2L4.75 8.1L7.5 5.6L10.7 3.25L13.3 1.55L13.5 1.6L14.3 2.1L14.85 2.6L17.6 5.25L18.9 6.85L18.9 4.55L18.9 4.1L16.15 1.35L14.7 -0.1L13.4 -1.25L12.95 -1.55Q9.4 0 6.05 2.45Q2.65 4.95 1.1 6.95L0.7 7.45L0.65 7.95L0.65 8.4L0.65 8.5L0.7 10.15Q0.85 12.85 1.1 14Q1.8 17 3 19.2Q4.1 21.35 5.85 23.15Q7.45 24.8 9.05 25.7L11.8 27.2Q13.95 25.55 15.35 23.75L16.55 22.15L17.35 20.65M12.75,-2.85L12.8 -2.85Q13 -2.9 14.3 -1.8L16.6 0.35L17.1 0.85L19.75 3.6Q20.05 3.9 20 5.2L20 5.75L19.85 7.55L19.65 10.8L19.4 13.9Q19.05 17.9 18.5 20.2Q17.95 22.5 15.8 25.15Q13.6 27.75 11.7 28.6Q3.9 25.1 1.2 18.1L0.55 16.45L-0.15 13.65Q-0.5 11.85 -0.4 8.05L-0.4 7.7L-0.4 7.35Q0.75 5.45 2.95 3.6L7.25 0.3L10.5 -1.75Q11.55 -2.45 12.75 -2.85M15.65,20.6L17.8 18.35L18.6 13.1L18.9 9.55L18.9 8.05L17.15 5.95Q15.9 4.5 13.45 2.75L13.4 2.7Q11.5 3.65 9.3 5.35L6 8.05Q4.85 9.1 4.65 9.65Q4.8 13.4 6.65 16.85Q8.45 20.25 10 21.7L12.2 23.25L12.85 22.85L15.65 20.6" />
<path style="fill:#A8ACAB;fill-opacity:1" d="M13.5,1.6L13.6 0.5L13.6 0.4L13.55 -0.3L14.7 -0.1L16.15 1.35L18.9 4.1L18.9 4.55L18.4 4.25L16.6 2.6L15.1 1L15.05 1Q14.7 1 14.45 1.6L14.3 2.1L13.5 1.6" />
<path style="fill:#5B2222;fill-opacity:1" d="M14.15,7L14.4 11.75L14.2 16.05L13.5 20.3L12.85 22.85L12.2 23.25L10 21.7Q8.45 20.25 6.65 16.85Q4.8 13.4 4.65 9.65Q4.85 9.1 6 8.05L9.3 5.35Q11.5 3.65 13.4 2.7L13.45 2.75L14.15 7" />
<path style="fill:#B85151;fill-opacity:1" d="M14.2,16.05L14.4 11.75L14.15 7L13.45 2.75Q15.9 4.5 17.15 5.95L18.9 8.05L18.9 9.55Q17.15 7.15 15.1 6.6Q15.2 12.65 14.2 16.05" />
<path style="fill:#8E3A3A;fill-opacity:1" d="M15.1,6.6Q17.15 7.15 18.9 9.55L18.6 13.1L17.8 18.35L15.65 20.6L12.85 22.85L13.5 20.3L14.2 16.05Q15.2 12.65 15.1 6.6" />
<path style="fill:#4A5662;fill-opacity:1" d="M15.3,23.05L16.5 22.05L16.55 22.15L15.35 23.75Q13.95 25.55 11.8 27.2L9.05 25.7Q7.45 24.8 5.85 23.15Q4.1 21.35 3 19.2Q1.8 17 1.1 14Q0.85 12.85 0.7 10.15L0.65 8.5L1.15 8.95Q1.65 9.65 2 11.6Q2.35 13.5 3.15 15.6Q3.95 17.7 5.4 19.85Q6.8 22 8.3 23Q9.5 23.75 11.45 24.1L12.05 24.4L12.4 24.2L12.45 24.2L12.65 24.05Q14.1 24.1 15.3 23.05" />
</g>
</svg>
