<?xml version="1.0" encoding="utf-8"?>
<svg version="1.1" id="Layer_1"
xmlns="http://www.w3.org/2000/svg"
xmlns:xlink="http://www.w3.org/1999/xlink"
xmlns:author="http://www.sothink.com"
width="18px" height="16px"
xml:space="preserve">
<g id="1352" transform="matrix(1, 0, 0, 1, 0, 0)">
<path style="fill:#694A1F;fill-opacity:1" d="M3.5,5.9Q1.15 8.8 1.05 10.95Q1 11.85 1.4 12.5Q1.85 13.3 3 13.6L3.55 13.75Q6.3 14.25 9.65 12.8Q11.45 12.05 13.1 10.7Q14.7 9.45 15.5 8.25L16.35 6.5L16.45 5.45Q16.5 4.5 16 3.05Q15.4 1.55 13.3 1.2Q11.15 0.85 8.5 1.9Q6.35 2.75 4.45 4.8L3.5 5.9M17.55,4L17.45 6.05Q17.25 7.4 16 9.35Q14.7 11.3 11.45 13Q8.2 14.65 5.3 15Q2.4 15.3 1.15 13.9L1.1 13.85Q-0.15 12.5 0.05 11.25Q1.05 5.8 4.25 3Q7.65 0.05 13.5 0Q15.15 0.2 16.25 1.3Q17.3 2.35 17.55 4" />
<path style="fill:#EEECEA;fill-opacity:1" d="M1.4,12.5Q1 11.85 1.05 10.95Q1.15 8.8 3.5 5.9L4.45 4.8Q4.6 5.6 5.05 6.35L3.5 7.75Q2.1 9.25 1.45 12.1L1.4 12.5" />
<path style="fill:#C4944D;fill-opacity:1" d="M7.05,12.3L8.9 10.6L7.65 10.6L7.65 10.5L9.25 9.5Q7.25 9 5.8 7.4L5.05 6.35Q4.6 5.6 4.45 4.8Q6.35 2.75 8.5 1.9Q11.15 0.85 13.3 1.2Q15.4 1.55 16 3.05Q16.5 4.5 16.45 5.45L16.35 6.5L15.5 8.25Q14.7 9.45 13.1 10.7Q11.45 12.05 9.65 12.8Q6.3 14.25 3.55 13.75Q5.8 13.45 7.05 12.3" />
<path style="fill:#E9CB9E;fill-opacity:1" d="M1.45,12.1Q2.1 9.25 3.5 7.75L5.05 6.35L5.8 7.4Q7.25 9 9.25 9.5L7.65 10.5L7.65 10.6L8.9 10.6L7.05 12.3Q5.8 13.45 3.55 13.75L3 13.6Q1.85 13.3 1.4 12.5L1.45 12.1" />
</g>
</svg>
