<?xml version="1.0" encoding="utf-8"?>
<svg version="1.1" id="Layer_1"
xmlns="http://www.w3.org/2000/svg"
xmlns:xlink="http://www.w3.org/1999/xlink"
xmlns:author="http://www.sothink.com"
width="17px" height="14px"
xml:space="preserve">
<g id="1935" transform="matrix(1, 0, 0, 1, 0, 0)">
<path style="fill:#E9CB9E;fill-opacity:1" d="M13.65,7.4L13.55 7.3L13.7 7.3L13.65 7.4" />
<path style="fill:#B88D4D;fill-opacity:1" d="M9.45,10.6L9.45 9.8L9.55 9.5L9.85 8.55L10.65 7.2L10.65 7.4L11.4 6.85L12.2 6.8L12.8 6.85Q15.1 7.95 15.8 8.9L15.65 9.95L15.55 10.35Q15.05 11.75 13.5 12.2Q11.8 12.6 10.7 11.9Q9.6 11.2 9.5 10.75L9.45 10.6M13.7,7.3L13.55 7.3L13.65 7.4L13.7 7.3" />
<path style="fill:#705328;fill-opacity:1" d="M9.5,10.75Q9.6 11.2 10.7 11.9Q11.8 12.6 13.5 12.2Q15.05 11.75 15.55 10.35L15.65 9.95L15.8 8.9Q15.8 7.9 15.25 7.35L14 6.1L12.75 5.9L12.75 5.85L12.5 4.6L13.3 4.6Q14.05 4.6 14.5 5.1L15.8 6.45Q16.65 7.3 16.8 8.5L16.8 9L16.65 10.3L16.5 10.7Q16.1 11.75 15.25 12.4Q14.4 13.05 13.2 13.3L11.05 13.1L9.1 11.8L8.25 10.85L8.2 10.85L9.45 10.6L9.5 10.75" />
<path style="fill:#E2B674;fill-opacity:1" d="M14,6.1L15.25 7.35Q15.8 7.9 15.8 8.9Q15.1 7.95 12.8 6.85L12.2 6.8L11.4 6.85L10.65 7.4L10.65 7.2L10.8 7.05Q11.35 6.45 12.1 6.15Q12.3 6 12.6 5.95L12.75 5.9L14 6.1" />
<path style="fill:#3F3F3F;fill-opacity:1" d="M11.25,5.2L11.1 5.4L10.4 5.95L9.8 6.5Q9.1 7.15 8.8 8.05L8.75 8.25L8.65 8.55L8.4 9.65Q8.35 10.05 5.95 9.2Q3.55 8.35 2.45 6.85Q1.5 5.6 1.2 4.3L1.05 3.7L1 2.75L1.15 2.6Q1.8 2.1 2.2 2.1L3 2.1L4.05 2.5L4.15 1.9L5.05 1.9L6.9 2.5Q8.25 3 8.25 3.15L8.05 3.8L8.05 4.4L8.45 4.1L8.85 3.9L10.35 4.55L11.25 5.2" />
<path style="fill:#6D6D6D;fill-opacity:1" d="M10.35,4.55L8.85 3.9L8.45 4.1L8.05 4.4L8.05 3.8L8.25 3.15Q8.25 3 6.9 2.5L5.05 1.9L4.15 1.9L4.05 2.5L3 2.1L2.2 2.1Q1.8 2.1 1.15 2.6L1 2.75Q0.95 1.9 1.3 1.55L6.9 1.7L10.55 4Q11.35 4.8 11.25 5.2L10.35 4.55" />
<path style="fill:#272727;fill-opacity:1" d="M1.05,3.7L1.2 4.3Q1.5 5.6 2.45 6.85Q3.55 8.35 5.95 9.2Q8.35 10.05 8.4 9.65L8.65 8.55L8.75 8.25L8.8 8.05Q9.1 7.15 9.8 6.5L10.4 5.95L11.1 5.4L11.25 5.2Q11.35 4.8 10.55 4L6.9 1.7L1.3 1.55Q0.95 1.9 1 2.75L1.05 3.7M9.85,8.55L9.55 9.5L9.45 9.8L9.45 10.6L8.2 10.85L7.2 10.7L5.2 10.05Q3.15 9.15 2.15 8.05Q1.15 6.9 0.55 5.5L0.5 5.3L0.2 4.35Q-0.05 3.45 0.05 2.5L0.05 2.3Q0.15 0.85 0.6 0.6Q1.1 0.3 1.85 0.15L4.2 0.05Q5.85 0.1 8.3 1.25Q10.75 2.35 11.65 3.55L12.05 4.15L12.4 4.65L12.5 4.6L12.75 5.85L12.75 5.9L12.6 5.95Q12.3 6 12.1 6.15Q11.35 6.45 10.8 7.05L10.65 7.2L9.85 8.55" />
</g>
</svg>
