<?xml version="1.0" encoding="utf-8"?>
<svg version="1.1" id="Layer_1"
xmlns="http://www.w3.org/2000/svg"
xmlns:xlink="http://www.w3.org/1999/xlink"
xmlns:author="http://www.sothink.com"
width="29px" height="17px"
xml:space="preserve">
<g id="446" transform="matrix(1, 0, 0, 1, -422.5, -174.75)">
<path style="fill:#E51919;fill-opacity:1" d="M443.95,174.75L447.05 174.9Q448.4 175.15 449.25 175.7Q450.2 176.25 450.7 177.3Q451.1 178.3 451.1 180.05Q451.1 181.8 450.55 183L449.1 184.75Q448.2 185.45 447.2 185.7L445.3 185.95L442.35 185.95L442.35 191.45L439.25 191.45L439.25 174.75L443.95 174.75M444.9,183.1Q446.55 183.1 447.25 182.45Q448.05 181.75 448 180.05Q448.05 179.1 447.75 178.5Q447.5 177.85 446.8 177.6L444.8 177.3L442.35 177.3L442.35 183.1L444.9 183.1M430.1,180.65L433.6 174.75L437.2 174.75L431.6 182.75L437.5 191.45L433.9 191.45L429.85 185.3L426 191.45L422.5 191.45L428.35 183.1L422.7 174.75L426.2 174.75L430.1 180.65" />
</g>
</svg>
