<?xml version="1.0" encoding="utf-8"?>
<svg version="1.1" id="Layer_1"
xmlns="http://www.w3.org/2000/svg"
xmlns:xlink="http://www.w3.org/1999/xlink"
xmlns:author="http://www.sothink.com"
width="11px" height="11px"
xml:space="preserve">
<g id="151" transform="matrix(1, 0, 0, 1, -0.4, -0.4)">
<path style="fill:#333333;fill-opacity:1" d="M11.15,5.4L11.15 5.5L5.9 10.95L4.25 10.95L0.65 7.35L0.4 5.7L5.65 0.4L7.45 0.7L10.6 3.8L10.9 4.05L11.15 5.4M2.05,6.1L1.75 6.4L5.15 9.7L9.7 5.05L9.4 4.75L8.15 3.55L6.3 1.75L2.55 5.6L2.05 6.1" />
<path style="fill:#E0E0E0;fill-opacity:1" d="M6.6,5.75L6.25 5.9L5.75 5.8L5.5 4.05L5.05 4.1Q4.65 4.15 4.45 4.35L3.65 5.3L2.95 5.7L2.55 5.6L6.3 1.75L8.15 3.55L6.6 3.25L6.5 3.25L6.7 5.65L6.6 5.75" />
<path style="fill:#989898;fill-opacity:1" d="M9.4,4.75L7.65 5.15L7.35 5.4L7.05 5.6L6.7 5.65L6.5 3.25L6.6 3.25L8.15 3.55L9.4 4.75M2.55,5.6L2.95 5.7L3.65 5.3L4.45 4.35Q4.65 4.15 5.05 4.1L5.5 4.05L5.75 5.8L5.65 5.8L5.2 6.6Q5 7.3 4.4 7.3Q3.5 7.35 2.3 6.35L2.05 6.1L2.55 5.6" />
<path style="fill:#707070;fill-opacity:1" d="M2.05,6.1L2.3 6.35Q3.5 7.35 4.4 7.3Q5 7.3 5.2 6.6L5.65 5.8L5.75 5.8L6.25 5.9L6.6 5.75L6.7 5.65L7.05 5.6L7.35 5.4L7.65 5.15L9.4 4.75L9.7 5.05L5.15 9.7L1.75 6.4L2.05 6.1" />
</g>
</svg>
