<?xml version="1.0" encoding="utf-8"?>
<svg version="1.1" id="Layer_1"
xmlns="http://www.w3.org/2000/svg"
xmlns:xlink="http://www.w3.org/1999/xlink"
xmlns:author="http://www.sothink.com"
width="53px" height="36px"
xml:space="preserve">
<g id="464" transform="matrix(1, 0, 0, 1, 0, 1.45)">
<path style="fill:#1A272C;fill-opacity:1" d="M47.7,10.35L47.9 9.9L48.05 9.65L48.25 9.3L48.5 9.45L48.9 9.75L49.05 9.8L49.5 10.25Q49.75 10.65 49.55 11.4L48.75 13.55L48.75 13.6L49.1 13.7L49.25 13.75L50.05 13.75L50.8 12.8L51.05 12.25L51.65 10.8L51.7 10.55L51.75 10.3L51.85 9.65L51.6 9.4L50.65 8.9L49.55 8.55L49.5 8.55L48.75 8.3L48.7 8.3L48.95 7.7L49.05 7.5L50 7.75Q51.15 8.1 52.05 8.6Q52.9 9.15 52.75 9.85L52.1 11.9L51.95 12.1L51.8 12.55L51.25 13.8L51.2 13.9L50.3 15L49.2 14.8L49.15 14.8L48.85 14.7L48.15 14.25Q47.65 13.95 47.75 13.55L48.35 12.2Q48.85 11.35 48.7 11L48.65 10.95L47.7 10.35M34.7,32.4L34.7 32.35Q34.75 31.95 34.95 31.65L35.15 31.25L35.3 30.95L35.35 30.75L35.4 30.7L35.4 30.6L35.55 30.35L35.85 29.85Q36.35 29.25 37.55 29.4L39.7 29.25L40.65 28Q41 27.05 41.2 27.05L41.45 27.05L41.55 26.85L41.6 27.05L41.75 27.1L41.85 27L41.9 27L42.8 27.15L43.15 27.1L43.5 27.2L43.75 27.2L43.85 27.2L44 27.25L44.2 27.3L44.75 27.45L44.9 27.75L44.75 28.6L43.25 31.65Q42 33.75 41.2 34.2L38.5 34.05L35.75 33.35Q34.9 33.1 34.8 32.8L34.7 32.6L34.7 32.4M6.55,26.3L6.4 26.4L6.05 26.6L4.8 26.85L1.8 26.4Q-0.35 25.85 0.1 24.6Q0.55 23.35 1.45 22.2L2.1 21.4L2.3 21.8L3.15 21.9L1.95 23.15L1.75 23.6Q1 24.7 1.9 24.9L4.55 25.45Q6.35 25.75 6.55 24.75L6.25 24.6Q5.3 24.35 4.85 24Q4.35 23.6 4.5 23.1Q4.6 22.7 5.25 22.25L6.35 22.4Q5.85 22.8 5.9 23.1L6.25 23.45L7.1 23.7Q7.95 23.85 8.05 24.55L8 25L7.75 25.2L7.7 25.3L7.6 25.45L7.4 25.6L7.1 25.85L6.7 26.25L6.55 26.3M42.25,31.05L43.6 28.55L43.3 28.3L42.15 28.1L41.7 28.05Q40.85 31.15 37.3 30.7L36.95 30.65L36.55 31.1Q35.7 31.95 36.95 32.35L39.65 33.05Q40.75 33.05 41.85 31.55L42.25 31.05" />
<path style="fill:#A8ACAB;fill-opacity:1" d="M51.45,11.1L50.9 11.55L50.9 11.6L50.8 11.6Q51.25 10.35 50.7 9.55L50 8.85L49.55 8.55L50.65 8.9L51.6 9.4L51.85 9.65L51.75 10.3L51.7 10.55L51.65 10.8L51.45 11.1M42.5,28.3L42.5 28.35Q43.05 28.2 42.95 29L42.15 30.25L42.5 29.2L42.4 28.7L42.35 28.5L42.35 28.45L42.4 28.4L42.5 28.3M4.2,22.05L3.8 22.25L3.75 22.25L2.85 22.8L3.55 21.95L3.95 22L4.2 22.05" />
<path style="fill:#828584;fill-opacity:1" d="M49.55,8.55L50 8.85L50.7 9.55Q51.25 10.35 50.8 11.6L50.9 11.6L50.9 11.55L51.45 11.1L51.65 10.8L51.05 12.25L50.8 12.8L50.3 12.7L49.8 12.55L49.65 12.45L49.7 12.25L49.95 11.5L50.15 10.6L50.05 9.55Q49.9 9.2 49.35 9L48.85 8.85L48.5 8.8L48.7 8.3L48.75 8.3L49.5 8.55L49.55 8.55M42.4,28.4L42.35 28.45L42.35 28.5L42.4 28.7L42.5 29.2L42.15 30.25L42.95 29Q43.05 28.2 42.5 28.35L42.5 28.3L42.4 28.4M41.85,31.55L41.6 31.7Q40.2 32.45 38.65 32.05L37.45 31.7L37.6 31.3L39.1 31.35L40.6 31.1L41.6 29.65Q41.8 28.7 42.15 28.1L43.3 28.3L43.6 28.55L42.25 31.05L41.85 31.55M1.95,23.15L3.15 21.9L3.55 21.95L2.85 22.8L3.75 22.25L3.8 22.25L4.2 22.05L4.8 22.15L3.95 22.7L3.7 23L3.25 23.75Q3.3 24.05 4.1 24.35Q5.4 24.6 5.35 24.8L5.05 25.05L3.75 24.85Q2.1 24.5 1.8 23.7L1.75 23.6L1.95 23.15" />
<path style="fill:#DBB48B;fill-opacity:1" d="M45.2,5.9L45.5 6.05L45.4 6.05L45.2 5.9" />
<path style="fill:#4D4231;fill-opacity:1" d="M41.5,8.3L39.5 7.4L32.55 7.1Q30.85 6.65 34.1 5.9L38.85 6.05Q39.9 6.35 40.65 6.8L40.9 7.05L41.5 7.7Q42.05 8.5 41.5 8.3M30.55,12.05L29.3 12.2Q28.55 11.8 29.4 11.5L31 11.15L36.45 11.35Q39.05 11.85 40.35 14.05Q35.85 11.95 33.3 11.95L30.55 12.05M35.35,2.6L35.3 2.65L35.2 2.65L35.35 2.6M16.35,3.8L15.55 3.75Q15.5 3.5 16.35 3.35L17.75 3.15Q20.05 2.9 22.4 3.75Q23.5 4.15 24.55 5.2L24.85 5.55L24.15 5.25Q21.1 3.95 16.35 3.8M21.1,10.25L20.55 10Q18.35 9.2 16.35 8.75L12.35 8.2Q14.2 7.25 16.35 7.55L17.55 7.75Q19.7 8.4 21.2 9.7L21.5 9.95L21.95 10.5L21.5 10.4L21.1 10.25M16.35,14.8L15.25 14.3L13.7 13.75L8.85 13.15L8.7 13.15Q8.5 13 8.9 12.8L9.15 12.7L11.25 12.25Q13.15 11.95 15.45 12.8L15.65 12.85L16.35 13.2Q17.6 13.9 17.95 15.15L18.05 16.15Q18.05 15.75 17.2 15.25L16.35 14.8M5.7,16.95L5.8 16.85L6.35 16.9L5.7 16.95M26.65,16.85L29.15 16.3L34.9 16.6Q38.65 17.35 38.1 19.25Q34.35 17.45 30.6 17.4L26.95 17.3Q26.15 17 26.65 16.85" />
<path style="fill:#625037;fill-opacity:1" d="M48.95,7.7L48.7 8.3L48.5 8.8L48.3 9.2L48.25 9.3L48.05 9.65L47.9 9.9L47.7 10.35Q45.3 15.1 40.6 27.3L40.2 27.3Q39.15 26.2 38.15 25.75L38.05 25.7Q34.1 23.85 30.6 23.25Q25 22.3 20.65 24.55L20.55 24.6Q19.9 24.9 19.2 25.3L17.2 26.7L17.15 26.7L16.95 25.75L16.6 24.65L16.4 24.2L16.35 24.15Q14.25 20.25 7.55 19.3L6.05 19.1L4.7 18.9L3.7 18.75L3.65 18.75L2.6 18.8Q0.75 18.65 0.9 17.55L14.15 0.6Q15.55 -1.25 17.7 -1.3L19.95 -1.45Q22.45 -1.5 24.8 -0.6Q27.45 0.3 29.75 2.8Q29.75 2.3 34.35 0.95Q38.85 -0.45 44.15 2Q49.2 4.3 49.9 5.75L49.05 7.5L48.95 7.7M39.25,23.95L39.6 24.15L47.35 6.8L45 5.05Q41.9 3.1 38.7 2.9L34.95 3.15Q32.95 3.55 30.9 4.65L19.55 23.35L20.15 23Q24.15 20.75 28.5 21.1L30.6 21.15Q34.15 21.35 37.3 22.85L39.25 23.95M35.2,2.65L35.3 2.65L35.35 2.6L35.2 2.65M24.8,1.55L24.6 1.45Q22.9 0.6 20 0.75L16.35 1.05L12.1 6.3Q7.6 11.6 4.3 16.8L5.8 16.85L5.7 16.95L6.35 16.9L6.85 16.95L7.95 17.1L8.1 17.1L9.65 17.4Q13.75 18.4 16.35 21.1L17.75 22.85Q22.05 15.25 26.9 7.35L28.55 4.6L25.7 2.3L24.8 1.55" />
<path style="fill:#061C2C;fill-opacity:1" d="M48.5,9.45L48.25 9.3L48.3 9.2L48.5 9.45" />
<path style="fill:#646967;fill-opacity:1" d="M48.3,9.2L48.5 8.8L48.85 8.85L49.35 9Q49.9 9.2 50.05 9.55L50.15 10.6L49.95 11.5L49.7 12.25L49.65 12.45L49.8 12.55L50.3 12.7L50.8 12.8L50.05 13.75L49.25 13.75L49.1 13.7L48.75 13.6L48.75 13.55L49.55 11.4Q49.75 10.65 49.5 10.25L49.05 9.8L48.9 9.75L48.5 9.45L48.3 9.2M41.6,29.65L40.6 31.1L39.1 31.35L37.6 31.3L37.45 31.7L38.65 32.05Q40.2 32.45 41.6 31.7L41.85 31.55Q40.75 33.05 39.65 33.05L36.95 32.35Q35.7 31.95 36.55 31.1L36.95 30.65L37.3 30.7Q40.85 31.15 41.7 28.05L42.15 28.1Q41.8 28.7 41.6 29.65M5.25,22.25Q4.6 22.7 4.5 23.1Q4.35 23.6 4.85 24Q5.3 24.35 6.25 24.6L6.55 24.75Q6.35 25.75 4.55 25.45L1.9 24.9Q1 24.7 1.75 23.6L1.8 23.7Q2.1 24.5 3.75 24.85L5.05 25.05L5.35 24.8Q5.4 24.6 4.1 24.35Q3.3 24.05 3.25 23.75L3.7 23L3.95 22.7L4.8 22.15L5.25 22.25" />
<path style="fill:#806F58;fill-opacity:1" d="M5.9,19.1L6.05 19.1L7.55 19.3Q14.25 20.25 16.35 24.15L16.4 24.2L16.6 24.65L16.35 24.5Q14.25 23.1 12 22.25L13.15 22Q9.85 20 6.7 19.75L5.95 19.7L5.3 19.75L5.9 19.1M20.55,24.6L20.65 24.55Q25 22.3 30.6 23.25Q34.1 23.85 38.05 25.7L38.15 25.75L37.9 26.35L35.8 25.3Q32.3 23.9 28.9 23.9L30.05 24.7L30.2 24.85Q25.3 23.85 20.55 24.6" />
<path style="fill:#3A2E1D;fill-opacity:1" d="M17,26.7L16.5 26.3L16.35 26.2Q13.65 24.25 9.6 23.1L6.35 22.4L5.25 22.25L4.8 22.15L4.2 22.05L3.95 22L3.55 21.95L3.15 21.9L2.3 21.8L2.1 21.4Q1.9 21.1 2.05 21.05L2.1 21.05Q2.65 20.1 3.6 19.2Q3.85 19 3.7 18.75L4.7 18.9L6.05 19.1L5.9 19.1L5.3 19.75L4.55 20.55L5.2 20.6Q8.8 20.9 12 22.25Q14.25 23.1 16.35 24.5L16.6 24.65L16.95 25.75L17.15 26.7L17 26.7M30.2,24.85L30.6 24.9Q33.95 25.65 37.4 27.2L37.9 26.35L38.15 25.75Q39.15 26.2 40.2 27.3L39.6 26.85L39.4 27.35L38.05 29.15Q34.15 27.4 30.6 26.65Q25.45 25.45 21 26.05L18.65 26.5L17.2 26.7L19.2 25.3Q19.9 24.9 20.55 24.6Q25.3 23.85 30.2 24.85" />
<path style="fill:#917F67;fill-opacity:1" d="M30.2,24.85L30.05 24.7L28.9 23.9Q32.3 23.9 35.8 25.3L37.9 26.35L37.4 27.2Q33.95 25.65 30.6 24.9L30.2 24.85M5.2,20.6L4.55 20.55L5.3 19.75L5.95 19.7L6.7 19.75Q9.85 20 13.15 22L12 22.25Q8.8 20.9 5.2 20.6" />
<path style="fill:#ECC7A0;fill-opacity:1" d="M37.3,22.85Q34.7 21.15 31.2 20.5L25.05 20.15Q25.2 19.9 26.55 19.3L28.15 18.55Q27.95 18.25 26.8 17.9L25.6 17.5Q25.7 17.3 26.75 16.75Q27.7 16.15 27.6 15.75Q27.2 15.75 26.75 15.25Q26.7 15.05 27.2 14.6L27.75 14.15Q27.7 14.05 27.4 13.9L27 13.6Q27.15 13.25 28.55 12.65Q30 11.95 30.65 12.2L30.55 12.05L33.3 11.95Q35.85 11.95 40.35 14.05Q39.05 11.85 36.45 11.35L31 11.15L29.4 11.5L28.5 11.25Q28.7 11.05 30.2 10.5Q31.55 10 31.6 9.55L31.6 9.5L30.65 8.85Q30.75 8.65 31.9 8.1L33.1 7.4L33.1 7.25L31.85 7.05Q32.05 5.95 33.95 5.55L36.45 5.25L33.35 4.55L34.7 3.95L35.95 3.65L34.95 3.15L38.7 2.9L40.85 3.65Q43.5 4.75 44.9 5.7L45.2 5.9L44.85 5.8L44.45 5.75L43.7 5.9L43.6 5.95L43.8 6.1L44.65 6.75L45.4 7.35L45.4 7.45L45.4 7.5L45.4 7.6L44.45 7.6L44.45 7.7Q43.7 10.95 42.15 15.65L39.25 23.95L37.3 22.85M41.5,7.7L40.9 7.05L40.65 6.8Q39.9 6.35 38.85 6.05L34.1 5.9Q30.85 6.65 32.55 7.1L39.5 7.4L41.5 8.3Q42.05 8.5 41.5 7.7M25.7,2.3Q26.05 2.9 25.75 3.7Q25.15 5.1 24.55 5.2Q23.5 4.15 22.4 3.75Q20.05 2.9 17.75 3.15L16.35 3.35Q15.5 3.5 15.55 3.75L16.35 3.8Q21.1 3.95 24.15 5.25L23 5.35L23.5 5.95L23.95 6.65Q22.05 6.45 20.1 6.65Q22.45 7.9 22.45 8.75L22.4 9.15L22.2 9.35L21.85 9.4L21.4 9.4L21.45 9.6L21.5 9.95L21.2 9.7Q19.7 8.4 17.55 7.75L16.35 7.55Q14.2 7.25 12.35 8.2L16.35 8.75Q18.35 9.2 20.55 10L21.1 10.25L21.5 10.4L21.5 10.55L20.5 10.65L20.6 11.55L19.55 11.55L18.25 11.3L18.15 11.25L15.55 11.25L16.35 11.9L16.65 12.1L17.5 12.7Q18.55 13.55 18.55 14.55L18.45 15.1L17.95 15.15Q17.6 13.9 16.35 13.2L15.65 12.85L15.45 12.8Q13.15 11.95 11.25 12.25L9.15 12.7L12.1 8.15Q13.6 6 15.45 3.8Q15.95 3.1 16.35 2.75L17.05 2.2L20.4 1.85L20.1 1.35L22.65 1.25L24.8 1.55L25.7 2.3M17.2,15.25L17.15 15.25L17.5 16.5L16.35 16.6L16.1 16.6Q15.2 16.8 15.1 16.9L15.15 17Q15.9 17.4 16.1 18L12.7 17.35L9.9 16.95L7.6 16.85L7 16.85L6.35 16.9L5.8 16.85L8.85 13.15L13.7 13.75L15.25 14.3L16.35 14.8L17.2 15.25M26.95,17.3L30.6 17.4Q34.35 17.45 38.1 19.25Q38.65 17.35 34.9 16.6L29.15 16.3L26.65 16.85Q26.15 17 26.95 17.3" />
<path style="fill:#FFF2E5;fill-opacity:1" d="M44.9,5.7Q43.5 4.75 40.85 3.65L38.7 2.9Q41.9 3.1 45 5.05L47.35 6.8L39.6 24.15L39.25 23.95L42.15 15.65Q43.7 10.95 44.45 7.7L44.45 7.6L45.4 7.6L45.4 7.5L45.4 7.45L45.4 7.35L44.65 6.75L43.8 6.1L43.6 5.95L43.7 5.9L44.45 5.75L44.85 5.8L45.2 5.9L44.9 5.7M45.4,6.05L45.5 6.05L45.2 5.9L45.4 6.05M8.9,12.8Q8.5 13 8.7 13.15L8.85 13.15L5.8 16.85L4.3 16.8Q7.6 11.6 12.1 6.3L16.35 1.05L20 0.75Q22.9 0.6 24.6 1.45L24.8 1.55L22.65 1.25L20.1 1.35L20.4 1.85L17.05 2.2L16.35 2.75Q15.95 3.1 15.45 3.8Q13.6 6 12.1 8.15L9.15 12.7L8.9 12.8" />
<path style="fill:#B48C63;fill-opacity:1" d="M29.3,12.2L30.55 12.05L30.65 12.2Q30 11.95 28.55 12.65Q27.15 13.25 27 13.6L27.4 13.9Q27.7 14.05 27.75 14.15L27.2 14.6Q26.7 15.05 26.75 15.25Q27.2 15.75 27.6 15.75Q27.7 16.15 26.75 16.75Q25.7 17.3 25.6 17.5L26.8 17.9Q27.95 18.25 28.15 18.55L26.55 19.3Q25.2 19.9 25.05 20.15L31.2 20.5Q34.7 21.15 37.3 22.85Q34.15 21.35 30.6 21.15L28.5 21.1Q24.15 20.75 20.15 23L19.55 23.35L30.9 4.65Q32.95 3.55 34.95 3.15L35.95 3.65L34.7 3.95L33.35 4.55L36.45 5.25L33.95 5.55Q32.05 5.95 31.85 7.05L33.1 7.25L33.1 7.4L31.9 8.1Q30.75 8.65 30.65 8.85L31.6 9.5L31.6 9.55Q31.55 10 30.2 10.5Q28.7 11.05 28.5 11.25L29.4 11.5Q28.55 11.8 29.3 12.2M7,16.85L7.6 16.85L9.9 16.95L12.7 17.35L16.1 18Q15.9 17.4 15.15 17L15.1 16.9Q15.2 16.8 16.1 16.6L16.35 16.6L17.5 16.5L17.15 15.25L17.2 15.25Q18.05 15.75 18.05 16.15L17.95 15.15L18.45 15.1L18.55 14.55Q18.55 13.55 17.5 12.7L16.65 12.1L16.35 11.9L15.55 11.25L18.15 11.25L18.25 11.3L19.55 11.55L20.6 11.55L20.5 10.65L21.5 10.55L21.5 10.4L21.95 10.5L21.5 9.95L21.45 9.6L21.4 9.4L21.85 9.4L22.2 9.35L22.4 9.15L22.45 8.75Q22.45 7.9 20.1 6.65Q22.05 6.45 23.95 6.65L23.5 5.95L23 5.35L24.15 5.25L24.85 5.55L24.55 5.2Q25.15 5.1 25.75 3.7Q26.05 2.9 25.7 2.3L28.55 4.6L26.9 7.35Q22.05 15.25 17.75 22.85L16.35 21.1Q13.75 18.4 9.65 17.4L8.1 17.1L7.95 17.1L6.85 16.95L6.35 16.9L7 16.85" />
<path style="fill:#5F1000;fill-opacity:1" d="M26.1,28.15Q30.55 28.6 35.35 30.6L35.4 30.6L35.4 30.7L35.35 30.75L35.3 30.95L35.15 31.25L34.95 31.65Q34.75 31.95 34.7 32.35L34.7 32.4L34.7 32.6L33.15 32.05Q30.65 31.1 22.15 30Q15.7 30.55 14.3 29.4Q13.45 28.7 11.7 28Q10.55 27.45 9.05 27.05L6.55 26.3L6.7 26.25L7.1 25.85L7.4 25.6L7.6 25.45L7.7 25.3L7.75 25.2L8 25L8.05 24.55Q11.25 25.25 14.1 26.6L15.9 27.5Q16.05 26.95 16.5 26.3L17 26.7L17.15 26.7L17.2 26.7L18.65 26.5L17.65 28.25L22.1 27.95L22.95 27.95L26.1 28.15M43.15,27.1L43.4 26.6L47.75 17.3L48.85 14.7L49.15 14.8L49.2 14.8L50.3 15L51.2 13.9Q49.6 17.95 46.4 24.6L44.9 27.75L44.75 27.45L44.2 27.3L44 27.25L43.85 27.2L43.75 27.2L43.5 27.2L43.15 27.1" />
<path style="fill:#8C331D;fill-opacity:1" d="M35.25,29.65Q31.1 28.55 25.75 27.9L22.95 27.95L22.1 27.95L17.65 28.25L18.65 26.5L21 26.05Q25.45 25.45 30.6 26.65Q34.15 27.4 38.05 29.15L39.4 27.35L39.6 26.85L40.2 27.3L40.6 27.3Q45.3 15.1 47.7 10.35L48.65 10.95Q44.3 22.25 41.9 27L41.85 27L41.75 27.1L41.6 27.05L41.55 26.85L41.45 27.05L41.2 27.05Q41 27.05 40.65 28L39.7 29.25L37.55 29.4Q36.35 29.25 35.85 29.85L35.25 29.65M6.25,23.45L5.9 23.1Q5.85 22.8 6.35 22.4L9.6 23.1Q13.65 24.25 16.35 26.2L16.5 26.3Q16.05 26.95 15.9 27.5L14.1 26.6L14.95 26.15L14.95 26.05Q10.1 24.2 6.25 23.45" />
<path style="fill:#BB482E;fill-opacity:1" d="M47.75,17.3L43.4 26.6L43.15 27.1L42.8 27.15L41.9 27Q44.3 22.25 48.65 10.95L48.7 11Q48.85 11.35 48.35 12.2L47.75 13.55Q47.65 13.95 48.15 14.25L48.85 14.7L47.75 17.3M14.95,26.05L14.95 26.15L14.1 26.6Q11.25 25.25 8.05 24.55Q7.95 23.85 7.1 23.7L6.25 23.45Q10.1 24.2 14.95 26.05M22.95,27.95L25.75 27.9Q31.1 28.55 35.25 29.65L35.85 29.85L35.55 30.35L35.4 30.6L35.35 30.6Q30.55 28.6 26.1 28.15L22.95 27.95" />
<path style="fill:#B15106;fill-opacity:1" d="M15.75,24.25L15.1 25.25L14.75 25.65L14.1 26.25L13.65 26.55L13.5 26.7L12.3 27.15L9.75 27.5Q7 27.35 6.25 25.7L5.8 26.8Q5.5 27.55 4.65 28.15L4.8 28.25L6.25 29.15L8.35 29.85L11.5 29.8Q13.75 29.05 15 27.8L15.7 27.05L16.45 25.85L16.65 25.3L16.75 25.1L17.25 26.2L16.65 27.15L14.85 29.15Q10.55 32.85 5.25 30.05L3.35 28.45L3.1 28.05Q4.8 26.65 5.1 25.55L5.65 22.5Q5.75 23.4 6.85 24.55Q7.85 25.65 9.2 26Q10.5 26.45 12.05 26L12.45 25.9L13.6 25.25L13.85 25.1L13.9 24.95L13.95 24.9L14.45 24.3L14.6 24.15L15.35 22.7L16.05 23.5L15.75 24.25" />
<path style="fill:#E58919;fill-opacity:1" d="M13.5,26.7L13.65 26.55L14.1 26.25L14.75 25.65L15.1 25.25L15.75 24.25L16.05 23.5L16.75 25.1L16.65 25.3L16.45 25.85L15.7 27.05L15 27.8Q13.75 29.05 11.5 29.8L8.35 29.85L6.25 29.15L8.75 29.35Q11.7 29.35 12.95 27.55L13.5 26.7" />
<path style="fill:#FFBC35;fill-opacity:1" d="M12.3,27.15L13.5 26.7L12.95 27.55Q11.7 29.35 8.75 29.35L6.25 29.15L4.8 28.25L5.2 27.95L6.2 27.1L6.8 27.4L9.3 27.65L12.3 27.15" />
<path style="fill:#FFEA4F;fill-opacity:1" d="M9.3,27.65L6.8 27.4L6.2 27.1L5.2 27.95L4.8 28.25L4.65 28.15Q5.5 27.55 5.8 26.8L6.25 25.7Q7 27.35 9.75 27.5L12.3 27.15L9.3 27.65" />
</g>
</svg>
