<?xml version="1.0" encoding="utf-8"?>
<svg version="1.1" id="Layer_1"
xmlns="http://www.w3.org/2000/svg"
xmlns:xlink="http://www.w3.org/1999/xlink"
xmlns:author="http://www.sothink.com"
width="48px" height="20px"
xml:space="preserve">
<g id="29" transform="matrix(1, 0, 0, 1, 0, 0)">
<linearGradient
id="LinearGradID_5" gradientUnits="userSpaceOnUse" gradientTransform="matrix(0.0176849, 0.00163269, -0.00111389, 0.0121002, 24.9, 11.2)" spreadMethod ="pad" x1="-819.2" y1="0" x2="819.2" y2="0" >
<stop  offset="0" style="stop-color:#F8F8F8;stop-opacity:0.2" />
<stop  offset="1" style="stop-color:#FFFFFF;stop-opacity:0.701961" />
</linearGradient>
<path style="fill:url(#LinearGradID_5) " d="M48,10.8L37.5 16.7L19.45 15.7L17.35 15.85Q16.1 16.8 13.8 17.7L12.85 18.05Q8.7 19.5 4.15 19.3L5.65 17.7L6.8 16.55L8.25 15.1L1.3 13.05L7.4 12L0 10.15L6.6 7.35L1.5 6L9 4.1L2.75 2.75Q6.05 0.9 10.35 0.15L10.75 0.05Q13.05 -0.2 15.45 1.15L17.4 2.5L37.05 4.45L43.1 7.85L48 10.8" />
</g>
</svg>
