<?xml version="1.0" encoding="utf-8"?>
<svg version="1.1" id="Layer_1"
xmlns="http://www.w3.org/2000/svg"
xmlns:xlink="http://www.w3.org/1999/xlink"
xmlns:author="http://www.sothink.com"
width="51px" height="30px"
xml:space="preserve">
<g id="812" transform="matrix(1, 0, 0, 1, 0, 0)">
<path style="fill:#E58919;fill-opacity:1" d="M9.45,22.8Q10.7 23.65 12.4 23.65L38.2 23.65Q40.15 23.65 41.55 22.6L41.65 22.55L45.9 26.5Q44.2 27.7 41.95 27.7L8.6 27.7Q6.7 27.7 5.25 26.8L9.45 22.8" />
<path style="fill:#FFBC35;fill-opacity:1" d="M9.45,22.8L5.25 26.8L4.4 26.2Q2.8 24.9 2.6 23.2L2.55 20.55L2.55 7.3Q2.55 5.4 4 4.1L8.75 7.55Q8.15 8.05 7.9 8.7L7.7 9.7L7.7 18.75L7.75 20.55Q7.9 21.7 9.15 22.6L9.45 22.8" />
<path style="fill:#FFEA4F;fill-opacity:1" d="M9.15,22.6Q7.9 21.7 7.75 20.55L7.7 18.75L7.7 9.7L7.9 8.7Q8.15 8.05 8.75 7.55L9.15 7.25Q10.5 6.15 12.4 6.15L38.2 6.15Q40.15 6.15 41.55 7.25L41.75 7.4Q42.9 8.3 42.9 9.7L42.9 18.75L42.85 20.55Q42.7 21.65 41.65 22.55L41.55 22.6Q40.15 23.65 38.2 23.65L12.4 23.65Q10.7 23.65 9.45 22.8L9.15 22.6" />
<linearGradient
id="LinearGradID_1051" gradientUnits="userSpaceOnUse" gradientTransform="matrix(-0.00437927, -0.00376892, 0.0110474, -0.0128784, 37.3, 14.4)" spreadMethod ="pad" x1="-819.2" y1="0" x2="819.2" y2="0" >
<stop  offset="0" style="stop-color:#FFF191;stop-opacity:1" />
<stop  offset="0.509804" style="stop-color:#F4FFDF;stop-opacity:1" />
<stop  offset="1" style="stop-color:#FFF191;stop-opacity:1" />
</linearGradient>
<path style="fill:url(#LinearGradID_1051) " d="M41.65,22.55Q42.7 21.65 42.85 20.55L42.9 18.75L42.9 9.7Q42.9 8.3 41.75 7.4L41.55 7.25Q40.15 6.15 38.2 6.15L12.4 6.15Q10.5 6.15 9.15 7.25L8.75 7.55L4 4.1L4.4 3.7Q6.15 2.15 8.6 2.15L41.95 2.15Q44.3 2.15 46.05 3.55L46.25 3.7Q48 5.15 48 7.3L48 20.55L47.95 23.2Q47.75 24.9 46.25 26.2L45.9 26.5L41.65 22.55" />
<path style="fill:#802F08;fill-opacity:1" d="M2.55,7.3L2.55 20.55L2.6 23.2Q2.8 24.9 4.4 26.2L5.25 26.8Q6.7 27.7 8.6 27.7L41.95 27.7Q44.2 27.7 45.9 26.5L46.25 26.2Q47.75 24.9 47.95 23.2L48 20.55L48 7.3Q48 5.15 46.25 3.7L46.05 3.55Q44.3 2.15 41.95 2.15L8.6 2.15Q6.15 2.15 4.4 3.7L4 4.1Q2.55 5.4 2.55 7.3M48.6,1.9Q50.55 3.75 50.55 6.4L50.55 22.85L50.55 23.55Q50.5 26.1 48.6 28L48.1 28.5Q46.25 29.9 43.8 29.9L6.7 29.9Q4.7 29.9 3.1 28.85L2 28Q0.05 26.1 0 23.55L0 22.85L0 6.4Q0 4.05 1.6 2.35L2 1.9Q4 0 6.7 0L43.8 0Q46.4 0 48.25 1.55L48.6 1.9" />
</g>
</svg>
