<?xml version="1.0" encoding="utf-8"?>
<svg version="1.1" id="Layer_1"
xmlns="http://www.w3.org/2000/svg"
xmlns:xlink="http://www.w3.org/1999/xlink"
xmlns:author="http://www.sothink.com"
width="118px" height="40px"
xml:space="preserve">
<g id="436" transform="matrix(1, 0, 0, 1, -10.55, 17.25)">
<linearGradient
id="LinearGradID_584" gradientUnits="userSpaceOnUse" gradientTransform="matrix(0, 0.00823975, -0.00872803, 0, 18.5, -7.05)" spreadMethod ="pad" x1="-819.2" y1="0" x2="819.2" y2="0" >
<stop  offset="0" style="stop-color:#FFF980;stop-opacity:1" />
<stop  offset="1" style="stop-color:#E7950A;stop-opacity:1" />
</linearGradient>
<path style="fill:url(#LinearGradID_584) " d="M52.8,-15.75Q53 -16.3 53.55 -16.75L53.65 -16.8Q54.15 -17.25 55.2 -17.25L56.45 -16.95L56.5 -16.9L57.5 -15.95L57.5 -15.9L57.8 -14.7L57.75 -13.95L57.55 -13.2L57.45 -13L57.3 -12.65L53.15 -1.4L53.15 -1.45L52.7 -0.1L52.7 -0.15L52.1 1.05L51 2.05L49.3 2.5Q48.2 2.5 47.55 2.05Q46.85 1.65 46.5 1.05L45.85 -0.2L45.4 -1.45L45.4 -1.4L41.3 -12.55L41.15 -13.1L40.9 -13.9Q40.6 -14.7 40.9 -15.45L41.55 -16.5L41.6 -16.55Q42.35 -17.25 43.45 -17.25Q45 -17.25 45.55 -16.2L46.4 -14.25L46.4 -14.3L49.35 -5.6L52.3 -14.35L52.8 -15.75M54.45,-13.85L57.1 -14.05L57.15 -14.25Q57.05 -16.2 54.8 -15.9Q54.05 -15.8 54.1 -14.9L54.25 -14L54.45 -13.85M41.8,-15.85Q41.4 -15 41.95 -14.3L44.55 -14.15L44.6 -14.35Q44.9 -16.45 42.55 -16.4Q42.05 -16.4 41.8 -15.85" />
<path style="fill:#FFFFFF;fill-opacity:1" d="M54.25,-14L54.1 -14.9Q54.05 -15.8 54.8 -15.9Q57.05 -16.2 57.15 -14.25L57.1 -14.05L54.45 -13.85L54.25 -14M42.55,-16.4Q44.9 -16.45 44.6 -14.35L44.55 -14.15L41.95 -14.3Q41.4 -15 41.8 -15.85Q42.05 -16.4 42.55 -16.4" />
<linearGradient
id="LinearGradID_585" gradientUnits="userSpaceOnUse" gradientTransform="matrix(0, 0.00823975, -0.00872803, 0, 18.5, 1.4)" spreadMethod ="pad" x1="-819.2" y1="0" x2="819.2" y2="0" >
<stop  offset="0" style="stop-color:#FFF980;stop-opacity:1" />
<stop  offset="1" style="stop-color:#E7950A;stop-opacity:1" />
</linearGradient>
<path style="fill:url(#LinearGradID_585) " d="M60.2,-5.45Q61.55 -4.15 62.7 -5.55L62.7 -5.7Q62.85 -7.3 61.05 -6.95Q60.5 -6.85 60.3 -6.2L60.2 -5.45M59.9,-8.15L60 -8.2L61.55 -8.55L70.75 -8.55Q72.05 -8.55 72.65 -7.9L72.7 -7.85Q73.4 -7.25 73.4 -6.2Q73.4 -5.2 72.7 -4.5L72.65 -4.45Q72.05 -3.85 70.75 -3.85L63.9 -3.85L63.9 -1.65L70.1 -1.65Q71.35 -1.65 71.95 -1L72 -0.95Q72.7 -0.3 72.7 0.65Q72.7 1.65 72 2.35Q71.45 3 70.1 3L63.9 3L63.9 5.9L71 5.9Q72.3 5.9 72.9 6.5L72.95 6.55Q73.65 7.2 73.65 8.3Q73.65 9.3 72.95 10L72.9 10.05Q72.3 10.65 71 10.65L61.55 10.65Q59.85 10.65 59.2 9.85L59.25 9.85Q58.45 9.15 58.45 7.5L58.45 -5.4Q58.45 -6.4 58.75 -7L58.75 -6.95Q59.05 -7.8 59.9 -8.15M72.9,-6.1Q72.65 -7.25 71.3 -7.45Q69.3 -4.95 72.95 -5.9L72.9 -6.1" />
<path style="fill:#FFFFFF;fill-opacity:1" d="M60.3,-6.2Q60.5 -6.85 61.05 -6.95Q62.85 -7.3 62.7 -5.7L62.7 -5.55Q61.55 -4.15 60.2 -5.45L60.3 -6.2M72.95,-5.9Q69.3 -4.95 71.3 -7.45Q72.65 -7.25 72.9 -6.1L72.95 -5.9" />
<linearGradient
id="LinearGradID_586" gradientUnits="userSpaceOnUse" gradientTransform="matrix(0, 0.00823975, -0.00872803, 0, 18.5, 7.2)" spreadMethod ="pad" x1="-819.2" y1="0" x2="819.2" y2="0" >
<stop  offset="0" style="stop-color:#FFF980;stop-opacity:1" />
<stop  offset="1" style="stop-color:#E7950A;stop-opacity:1" />
</linearGradient>
<path style="fill:url(#LinearGradID_586) " d="M78.85,-0.5Q78.15 -1.65 76.55 -1.15Q76 -1.15 76.2 -0.65Q77.1 1.55 78.95 -0.3L78.85 -0.5M79.05,-2.2Q79.85 -1.5 79.85 0.1L79.85 11.6L85.9 11.6Q87.2 11.6 87.9 12.25Q88.65 12.95 88.65 14.05Q88.65 15.1 87.9 15.8Q87.2 16.45 85.9 16.45L77.5 16.45Q75.85 16.45 75.15 15.65Q74.35 14.95 74.35 13.3L74.35 0.1Q74.35 -1.4 75.1 -2.15Q75.8 -3 77.1 -3Q78.25 -3 79.05 -2.2" />
<path style="fill:#FFFFFF;fill-opacity:1" d="M78.95,-0.3Q77.1 1.55 76.2 -0.65Q76 -1.15 76.55 -1.15Q78.15 -1.65 78.85 -0.5L78.95 -0.3" />
<linearGradient
id="LinearGradID_587" gradientUnits="userSpaceOnUse" gradientTransform="matrix(0, 0.00823975, -0.00872803, 0, 18.5, 12.25)" spreadMethod ="pad" x1="-819.2" y1="0" x2="819.2" y2="0" >
<stop  offset="0" style="stop-color:#FFF980;stop-opacity:1" />
<stop  offset="1" style="stop-color:#E7950A;stop-opacity:1" />
</linearGradient>
<path style="fill:url(#LinearGradID_587) " d="M110.65,2.9Q111.4 3.6 111.4 5.15L111.4 13.4Q111.4 15.55 110.95 17.05Q110.5 18.65 109.2 19.9Q108.1 20.9 106.65 21.35L103.45 21.8L99.75 21.3L99.8 21.35Q98.05 20.85 97 19.75Q95.95 18.7 95.4 17.05Q94.95 15.5 94.95 13.4L94.95 5.15Q94.95 3.65 95.7 2.9Q96.45 2.05 97.65 2.05Q99 2.05 99.7 2.9Q100.45 3.65 100.45 5.15L100.45 13.6Q100.45 14.85 100.7 15.7Q100.9 16.3 101.45 16.65L101.5 16.7L103.2 17.05Q104.65 17.05 105.25 16.35Q105.9 15.45 105.9 13.65L105.9 5.15Q105.9 3.6 106.65 2.9L106.7 2.85Q107.4 2.05 108.65 2.05Q109.9 2.05 110.6 2.85L110.65 2.9M107.7,4.65Q108.55 6.8 110.85 5.5L110.9 5.3Q110.85 3.5 108.8 3.65L108.05 3.95Q107.6 4.15 107.7 4.65M98.05,3.4Q96.15 3.4 96.2 5.15L98.5 5.2L98.6 5Q98.95 3.9 98.05 3.4" />
<path style="fill:#FFFFFF;fill-opacity:1" d="M108.05,3.95L108.8 3.65Q110.85 3.5 110.9 5.3L110.85 5.5Q108.55 6.8 107.7 4.65Q107.6 4.15 108.05 3.95M98.6,5L98.5 5.2L96.2 5.15Q96.15 3.4 98.05 3.4Q98.95 3.9 98.6 5" />
<linearGradient
id="LinearGradID_588" gradientUnits="userSpaceOnUse" gradientTransform="matrix(0, 0.00823975, -0.00872803, 0, 18.5, 12.25)" spreadMethod ="pad" x1="-819.2" y1="0" x2="819.2" y2="0" >
<stop  offset="0" style="stop-color:#FFF980;stop-opacity:1" />
<stop  offset="1" style="stop-color:#E7950A;stop-opacity:1" />
</linearGradient>
<path style="fill:url(#LinearGradID_588) " d="M127.85,5.9Q128.3 7.05 128.3 8.5Q128.3 11.6 126.3 13.25Q124.5 14.8 120.85 14.8L118.65 14.8L118.65 18.65Q118.65 20.15 117.9 20.95Q117.1 21.8 115.9 21.8Q114.7 21.8 113.9 20.95Q113.2 20.2 113.2 18.7L113.2 5.45Q113.2 3.8 114 3.1L114.05 3.05Q114.8 2.3 116.4 2.3L120.85 2.3L124.15 2.7Q125.4 3 126.35 3.85L126.4 3.9Q127.35 4.7 127.85 5.85L127.85 5.9M124,4.4Q123.65 7.1 126.55 6.3L126.6 6.1Q126.7 3.85 124.3 4.15Q124.05 4.15 124 4.4M122.5,9.5L122.75 8.55Q122.75 7.85 122.4 7.4Q121.75 6.95 120 6.95L118.65 6.95L118.65 10.2L120 10.2L121.75 10L122.5 9.5M116.55,4.15Q114.65 4.1 114.95 5.9L117.25 5.95L117.35 5.75Q117.8 4.4 116.55 4.15" />
<path style="fill:#FFFFFF;fill-opacity:1" d="M124.3,4.15Q126.7 3.85 126.6 6.1L126.55 6.3Q123.65 7.1 124 4.4Q124.05 4.15 124.3 4.15M117.35,5.75L117.25 5.95L114.95 5.9Q114.65 4.1 116.55 4.15Q117.8 4.4 117.35 5.75" />
<linearGradient
id="LinearGradID_589" gradientUnits="userSpaceOnUse" gradientTransform="matrix(0, 0.00823975, -0.00872803, 0, 17.7, 1.3)" spreadMethod ="pad" x1="-819.2" y1="0" x2="819.2" y2="0" >
<stop  offset="0" style="stop-color:#FFF980;stop-opacity:1" />
<stop  offset="1" style="stop-color:#E7950A;stop-opacity:1" />
</linearGradient>
<path style="fill:url(#LinearGradID_589) " d="M27.75,-7.25L26.9 -6.7L26.9 -6.35Q27 -5.4 27.75 -5.05L28 -5.15Q30.25 -6.6 28 -7.3L27.75 -7.25M28.25,-8.65L37.45 -8.65Q38.75 -8.65 39.35 -8L39.4 -7.95Q39.7 -7.7 39.85 -6.6Q39.75 -4.95 39.4 -4.6L39.35 -4.55Q38.75 -3.95 37.45 -3.95L30.6 -3.95L30.6 -1.75L36.8 -1.75Q38.05 -1.75 38.65 -1.1L38.7 -1.05Q39.4 -0.4 39.4 0.55Q39.4 1.55 38.7 2.25Q38.15 2.9 36.8 2.9L30.6 2.9L30.6 5.8L37.7 5.8Q39 5.8 39.6 6.4L39.65 6.45L40.1 7.05L40.35 8.2L40.1 9.3L39.65 9.9L39.6 9.95Q39 10.55 37.7 10.55L28.25 10.55Q26.55 10.55 25.9 9.75L25.95 9.75Q25.15 9.05 25.15 7.4L25.15 -5.5Q25.15 -6.5 25.45 -7.1L25.45 -7.05Q25.75 -7.9 26.6 -8.25L26.7 -8.3L28.25 -8.65M36.5,-7.1Q35.85 -4.75 38.7 -5.25L38.8 -5.45L39.1 -6.2L39.15 -6.55L39 -6.75Q38 -7.5 36.75 -7.3L36.5 -7.1" />
<path style="fill:#FFFFFF;fill-opacity:1" d="M28,-7.3Q30.25 -6.6 28 -5.15L27.75 -5.05Q27 -5.4 26.9 -6.35L26.9 -6.7L27.75 -7.25L28 -7.3M36.75,-7.3Q38 -7.5 39 -6.75L39.15 -6.55L39.1 -6.2L38.8 -5.45L38.7 -5.25Q35.85 -4.75 36.5 -7.1L36.75 -7.3" />
<linearGradient
id="LinearGradID_590" gradientUnits="userSpaceOnUse" gradientTransform="matrix(0, 0.00823975, -0.00872803, 0, 17.7, 6.7)" spreadMethod ="pad" x1="-819.2" y1="0" x2="819.2" y2="0" >
<stop  offset="0" style="stop-color:#FFF980;stop-opacity:1" />
<stop  offset="1" style="stop-color:#E7950A;stop-opacity:1" />
</linearGradient>
<path style="fill:url(#LinearGradID_590) " d="M14.5,-1.35L14.3 -1.5L12.75 -1.65Q12.1 -1.6 12.1 -0.9L12.2 0L13.1 0.55Q13.75 0.8 14.25 0.35Q14.75 -0.1 14.7 -0.8L14.5 -1.35M15.25,-2.7Q16.05 -2 16.05 -0.4L16.05 11.1L22.1 11.1Q23.4 11.1 24.1 11.75Q24.85 12.45 24.85 13.55Q24.85 14.6 24.1 15.3Q23.4 15.95 22.1 15.95L13.7 15.95Q12.05 15.95 11.35 15.15Q10.55 14.45 10.55 12.8L10.55 -0.4Q10.55 -1.9 11.3 -2.65Q12 -3.5 13.3 -3.5Q14.45 -3.5 15.25 -2.7" />
<path style="fill:#FFFFFF;fill-opacity:1" d="M14.7,-0.8Q14.75 -0.1 14.25 0.35Q13.75 0.8 13.1 0.55L12.2 0L12.1 -0.9Q12.1 -1.6 12.75 -1.65L14.3 -1.5L14.5 -1.35L14.7 -0.8" />
</g>
</svg>
