<?xml version="1.0" encoding="utf-8"?>
<svg version="1.1" id="Layer_1"
xmlns="http://www.w3.org/2000/svg"
xmlns:xlink="http://www.w3.org/1999/xlink"
xmlns:author="http://www.sothink.com"
width="6px" height="9px"
xml:space="preserve">
<g id="1637" transform="matrix(1, 0, 0, 1, 0, 0)">
<path style="fill:#9CEAF6;fill-opacity:0.501961" d="M4.9,0.55L5.05 0.55L5.4 0.45L5.25 0.9L5.15 1.3L4.9 0.55M2.7,0.75L2.85 0.75L3.75 0.7L3.45 1.7L2.7 0.75" />
<path style="fill:#3F94BB;fill-opacity:0.701961" d="M5.45,8.2L3.3 7.75L3 7.65L3 7.7L2.95 7.7L2.85 6.3L2.7 5.75L3.8 6.15L3.8 5.15L3.05 4.2L3.05 4.15L2.85 3.6L2.05 4.15L1.5 2.9L1 1.85L0.5 0.95L0.65 0.65L0.45 0.3L2.7 0.75L3.45 1.7L3.75 0.7L4.9 0.55L5.15 1.3L5.15 1.35Q4.75 1.45 4.45 1.65L5 2.4L5 4.55L5.05 4.7L4.45 4.45Q4.3 4.45 4.3 4.55L4.3 5.2L4.5 6L4.6 6.3L4.7 6.6L5.45 7.55L5.45 8.2" />
<path style="fill:#62B3C4;fill-opacity:0.701961" d="M5.15,1.35Q5 1.85 5 2.4L4.45 1.65Q4.75 1.45 5.15 1.35" />
<path style="fill:#D0FCFC;fill-opacity:0.901961" d="M0.65,0.65L0.5 0.95L0 0L0.45 0.3L0.65 0.65" />
<path style="fill:#8CCFEC;fill-opacity:0.501961" d="M2.7,5.75L2.5 5.25L2.5 5.2L2.1 4.25L2.05 4.15L2.85 3.6L3.05 4.15L3.05 4.2L3.8 5.15L3.8 6.15L2.7 5.75" />
<path style="fill:#CBFFFF;fill-opacity:0.74902" d="M5.45,7.55L4.7 6.6L4.6 6.3L4.5 6L4.3 5.2L4.3 4.55Q4.3 4.45 4.45 4.45L5.05 4.7Q5.2 6.3 5.75 7.75L5.45 7.55" />
<path style="fill:#96EEFA;fill-opacity:0.501961" d="M5.75,7.75L5.95 8.3L5.45 8.2L5.45 7.55L5.75 7.75" />
</g>
</svg>
