<?xml version="1.0" encoding="utf-8"?>
<svg version="1.1" id="Layer_1"
xmlns="http://www.w3.org/2000/svg"
xmlns:xlink="http://www.w3.org/1999/xlink"
xmlns:author="http://www.sothink.com"
width="37px" height="43px"
xml:space="preserve">
<g id="1355" transform="matrix(1, 0, 0, 1, 0.1, 7.25)">
<path style="fill:#3C2A22;fill-opacity:1" d="M8.35,28.7Q7.6 29.05 7.6 28.6L8.15 27.9L9.15 27.05L10.45 25.65L12.2 22.55Q13.75 19.15 13.15 14.25Q12.95 12.6 13.35 11.15L13.75 9.95Q14.6 7.9 16.85 6.35L16.85 6.4L18.3 9.25L18.55 9.15Q19.3 9 20.35 9.5Q21.55 10.1 22.1 11.9L22.1 12.05Q22.6 13.75 22.55 15.25L22.6 15.25Q22.2 15.65 22.95 15.25Q25.65 15.3 28.45 17.1Q31.45 19 32.6 25.6L32.65 25.5L33 24.95Q35.05 21.25 34.85 15.4Q34.6 8.95 31.65 4.9Q28.7 0.85 24.85 -0.6Q21 -2.1 17.95 -2.05L15.4 -1.95L13.85 -1.75L14.75 -2.7Q15.25 -3.05 15.5 -3.05Q14.7 -4.55 15.35 -5.95Q12.5 -4.65 11.35 -1.95L10.75 0.1Q10.25 4.2 10.6 9.35Q10.9 14.45 10.55 17.85Q10.15 21.25 9.15 23.35L7.9 25.5L7 26.6L6.65 27L5.6 27.7Q5.1 27.8 5.9 26.7L6 26.55L6.05 26.5L6.65 25.7Q8.35 23.45 9.15 19.8Q9.9 16.1 9.65 13.6Q9.4 11.05 9.3 4.9Q9.15 -1.3 11.45 -4.15L12.45 -5.25Q14.4 -7.1 17 -7.25Q15.6 -5.4 16.65 -3.05L18.65 -3.1Q28.45 -2.65 33.45 5.6Q36.15 10.1 36.35 16.45Q36.5 23.1 33.35 26.8L31.6 28.55Q31.45 24.25 30.25 21.45Q28.9 18.2 25.85 17.35L23.25 16.75Q21.65 16.5 21.4 16.75L21.45 14.95Q21.35 12.95 20.45 11.35Q19.5 9.75 17.95 10.6L16.5 8.05Q14.9 9.65 14.45 10.85Q14 12.05 14.2 15.1Q14.4 18.1 13.85 20.85Q13.3 23.55 11.8 25.7L11.6 26Q10.2 27.9 8.7 28.6L8.35 28.7" />
<linearGradient
id="LinearGradID_1573" gradientUnits="userSpaceOnUse" gradientTransform="matrix(-0.00746155, -0.00254822, 0.00439453, -0.0128937, 23.45, 10.65)" spreadMethod ="pad" x1="-819.2" y1="0" x2="819.2" y2="0" >
<stop  offset="0" style="stop-color:#E9DBD0;stop-opacity:1" />
<stop  offset="1" style="stop-color:#CDBCAF;stop-opacity:1" />
</linearGradient>
<path style="fill:url(#LinearGradID_1573) " d="M33,24.95L32.65 25.5Q33.3 22.25 33.05 19.4L33.05 18.9Q33.55 7.15 24.2 1.75Q20.4 -0.4 16.4 -0.5L14.6 -0.5Q14.3 -1.5 15.4 -1.95L17.95 -2.05Q21 -2.1 24.85 -0.6Q32.55 3.55 33.55 14.3Q34.1 19.85 33 24.95" />
<linearGradient
id="LinearGradID_1574" gradientUnits="userSpaceOnUse" gradientTransform="matrix(0.00456238, 0.0040741, -0.00273132, 0.00305176, 28.05, 17)" spreadMethod ="pad" x1="-819.2" y1="0" x2="819.2" y2="0" >
<stop  offset="0.00392157" style="stop-color:#917162;stop-opacity:1" />
<stop  offset="1" style="stop-color:#C2AEA0;stop-opacity:1" />
</linearGradient>
<path style="fill:url(#LinearGradID_1574) " d="M33.05,19.4Q33.3 22.25 32.65 25.5L32.6 25.6Q31.45 19 28.45 17.1Q25.65 15.3 22.95 15.25Q22.2 15.65 22.6 15.25L24.95 13.25Q31.25 12.5 33.05 19.4" />
<linearGradient
id="LinearGradID_1575" gradientUnits="userSpaceOnUse" gradientTransform="matrix(0.00231934, 0.00447083, -0.00241089, 0.00125122, 21.15, 9.3)" spreadMethod ="pad" x1="-819.2" y1="0" x2="819.2" y2="0" >
<stop  offset="0.00392157" style="stop-color:#917162;stop-opacity:1" />
<stop  offset="1" style="stop-color:#C2AEA0;stop-opacity:1" />
</linearGradient>
<path style="fill:url(#LinearGradID_1575) " d="M20,7.45Q24 7.7 24.65 12.3L24.75 13.3L24.95 13.25L22.6 15.25L22.55 15.25Q22.6 13.75 22.1 12.05L22.1 11.9Q21.55 10.1 20.35 9.5Q19.3 9 18.55 9.15L20 7.45" />
<linearGradient
id="LinearGradID_1576" gradientUnits="userSpaceOnUse" gradientTransform="matrix(0.00163269, 0.00289917, -0.0012207, 0.000686646, 17.5, 5.35)" spreadMethod ="pad" x1="-819.2" y1="0" x2="819.2" y2="0" >
<stop  offset="0.00392157" style="stop-color:#917162;stop-opacity:1" />
<stop  offset="1" style="stop-color:#C2AEA0;stop-opacity:1" />
</linearGradient>
<path style="fill:url(#LinearGradID_1576) " d="M17.4,3.9L19.8 7.45L20 7.45L18.55 9.15L18.3 9.25L16.85 6.4L17.4 3.9" />
<path style="fill:#FFFFFF;fill-opacity:1" d="M33.55,14.3Q32.55 3.55 24.85 -0.6Q28.7 0.85 31.65 4.9Q34.6 8.95 34.85 15.4Q35.05 21.25 33 24.95Q34.1 19.85 33.55 14.3" />
<path style="fill:#917E77;fill-opacity:1" d="M9.15,27.05L8.15 27.9L8 27.75L7.05 27.2L6.65 27L7 26.6L7.9 25.5L9.15 23.35Q10.15 21.25 10.55 17.85Q10.9 14.45 10.6 9.35Q10.25 4.2 10.75 0.1L11.35 -1.95L11.3 -1.2Q11.3 3.3 11.65 7.15L12 12.95L12 16.5Q11.95 18 11.5 19.55L10.95 21.45L10.05 23.6L9.5 24.7Q9.2 25.25 9.45 25.35L10.45 25.65L9.15 27.05M16.85,6.4L16.85 6.35Q14.6 7.9 13.75 9.95Q13.65 4.4 17.4 3.85L17.4 3.9L16.85 6.4" />
<linearGradient
id="LinearGradID_1577" gradientUnits="userSpaceOnUse" gradientTransform="matrix(0.00875854, -0.0128174, 0.0125122, 0.00854492, 14.15, 15.75)" spreadMethod ="pad" x1="-819.2" y1="0" x2="819.2" y2="0" >
<stop  offset="0.00392157" style="stop-color:#917162;stop-opacity:1" />
<stop  offset="1" style="stop-color:#C2AEA0;stop-opacity:1" />
</linearGradient>
<path style="fill:url(#LinearGradID_1577) " d="M15.35,-5.95Q14.7 -4.55 15.5 -3.05Q15.25 -3.05 14.75 -2.7L13.85 -1.75L15.4 -1.95Q14.3 -1.5 14.6 -0.5L16.4 -0.5Q28.9 3.35 30.95 13.1Q27.8 11.65 24.65 12.3Q24 7.7 20 7.45L19.8 7.45L17.4 3.9L17.4 3.85Q13.65 4.4 13.75 9.95L13.35 11.15Q12.95 12.6 13.15 14.25Q13.75 19.15 12.2 22.55L10.45 25.65L9.45 25.35Q9.2 25.25 9.5 24.7L10.05 23.6L10.95 21.45L11.5 19.55Q11.95 18 12 16.5L12 12.95L11.65 7.15Q11.3 3.3 11.3 -1.2L11.35 -1.95Q12.5 -4.65 15.35 -5.95" />
<path style="fill:#ECDFD8;fill-opacity:1" d="M24.95,13.25L24.75 13.3L24.65 12.3Q27.8 11.65 30.95 13.1Q28.9 3.35 16.4 -0.5Q20.4 -0.4 24.2 1.75Q33.55 7.15 33.05 18.9L33.05 19.4Q31.25 12.5 24.95 13.25" />
<path style="fill:none;stroke-width:0.1;stroke-linecap:round;stroke-linejoin:round;stroke-miterlimit:3;stroke:#2B462D;stroke-opacity:1" d="M5.9,26.7Q6.25 26.7 6.6 26.95L6.65 27L7.05 27.2L8 27.75L8.15 27.9M6.05,26.5L6 26.55M5.9,26.7L5.8 26.7L6 26.55M8.7,28.6L8.15 27.9" />
<path style="fill:#4D3212;fill-opacity:1" d="M1.45,31.55L1.55 31.65L1.65 31.7L1.75 31.8L1.8 31.9L1.85 31.95L1.95 31.95L3.6 33.4L3.65 33.45L3.8 33.5L3.9 33.65L4.05 33.7L10.25 26.8L10 26.6L9.7 26.35L9.45 26.2L9.45 26.1L8.3 25.15L7.85 24.8L7.6 24.65L7.35 24.4L2.2 30.7L1.45 31.55M9.5,24.45L9.7 24.6L10.3 25.15L10.55 25.4L11.5 26.6L11.55 26.65Q11.6 27.1 10.45 28.45L6.6 32.95L4.65 35.05Q4.05 35.55 2.35 34.45L1.5 33.7L1 33.35Q-0.4 31.85 -0.05 31.25L1.05 29.7L1.7 28.9L5.4 24.25Q6.6 22.85 7.05 22.9L7.95 23.4L9.35 24.25L9.5 24.45" />
<path style="fill:#9A7226;fill-opacity:1" d="M4.5,31.7Q3.6 31.7 2.2 30.7L7.35 24.4L7.6 24.65L7.85 24.8L8.3 25.15L9.45 26.1L9.45 26.2L4.5 31.7" />
<path style="fill:#745416;fill-opacity:1" d="M9.45,26.2L9.7 26.35L10 26.6L10.25 26.8L4.05 33.7L3.9 33.65L3.8 33.5L3.65 33.45L3.6 33.4L1.95 31.95L1.85 31.95L1.8 31.9L1.75 31.8L1.65 31.7L1.55 31.65L1.45 31.55L2.2 30.7Q3.6 31.7 4.5 31.7L9.45 26.2" />
</g>
</svg>
