<?xml version="1.0" encoding="utf-8"?>
<svg version="1.1" id="Layer_1"
xmlns="http://www.w3.org/2000/svg"
xmlns:xlink="http://www.w3.org/1999/xlink"
xmlns:author="http://www.sothink.com"
width="12px" height="22px"
xml:space="preserve">
<g id="615" transform="matrix(1, 0, 0, 1, 0, 0)">
<path style="fill:#0E0A0B;fill-opacity:1" d="M7.5,20.3L8.9 15Q9.9 11.2 9.4 6.05Q9.05 3.95 7.7 2.7L7.5 2.55Q5.95 1.25 3.8 1.85Q1.6 2.4 1.9 4.6L2.25 11.2L2.3 16.2L2.35 18.35L2.2 19.85Q1.9 20.25 1.15 19.1Q-0.15 17.1 0.3 13.25Q0.75 9.35 0.35 6.65Q-0.1 3.9 0.05 3.2L0.25 2.3Q0.65 -0.1 4.75 0Q6.75 0.05 8.35 0.9Q9.95 1.8 10.5 3.15Q11.2 4.95 11.15 6.5L10.8 12.9Q10.3 18.35 8.7 20.1Q7.2 21.65 7.45 20.5L7.5 20.3" />
<path style="fill:#3C3134;fill-opacity:1" d="M6.85,3.85L6.65 4.35L6.35 6.5L6.4 7.1L6.6 8L7.05 9.85Q7.45 11.25 7.25 12.75L7.05 13.35L6.85 14.35Q6.75 15.3 6.1 16L5.5 16.45L4.35 16.6L3.85 16.55L2.3 16.2L2.25 11.2L1.9 4.6Q1.6 2.4 3.8 1.85Q5.95 1.25 7.5 2.55L7.7 2.7L6.85 3.85" />
<path style="fill:#1C1417;fill-opacity:1" d="M7.7,2.7Q9.05 3.95 9.4 6.05Q9.9 11.2 8.9 15L7.5 20.3L7.45 20.5L7.15 20.65Q6.7 21.1 6.1 21.05L4.75 21.05L3.75 20.85L3.35 20.6L2.2 19.85L2.35 18.35L2.3 16.2L3.85 16.55L4.35 16.6L5.5 16.45L6.1 16Q6.75 15.3 6.85 14.35L7.05 13.35L7.25 12.75Q7.45 11.25 7.05 9.85L6.6 8L6.4 7.1L6.35 6.5L6.65 4.35L6.85 3.85L7.7 2.7" />
</g>
</svg>
