<?xml version="1.0" encoding="utf-8"?>
<svg version="1.1" id="Layer_1"
xmlns="http://www.w3.org/2000/svg"
xmlns:xlink="http://www.w3.org/1999/xlink"
xmlns:author="http://www.sothink.com"
width="43px" height="46px"
xml:space="preserve">
<g id="456" transform="matrix(1, 0, 0, 1, 0.65, 0.45)">
<path style="fill:#8DCB64;fill-opacity:1" d="M33.9,12.3Q28.3 12.45 23.8 8.1Q19.3 3.75 21.75 2.6Q28.05 3.9 31.6 8.2Q33.35 10.4 33.9 12.3M24.25,22.65Q30.05 21.9 35.5 18.75L38.4 16.75Q39.6 16.9 39.35 18.8L39.25 19.35L39.15 19.65L38.7 18.55Q34.55 20.8 32.35 21.45Q29.1 22.5 24.25 22.65" />
<path style="fill:#518A3B;fill-opacity:1" d="M31.6,8.2Q28.05 3.9 21.75 2.6Q19.3 3.75 23.8 8.1Q28.3 12.45 33.9 12.3Q33.35 10.4 31.6 8.2M27.75,3.75Q30.75 5.1 33 8.05Q35.25 11.05 36.6 15.5Q34.15 17.75 29.25 19.65Q25.4 21.1 20.1 21.4L16.55 20.95L16.15 20.85L12.15 19.65Q7.25 17.75 4.8 15.5Q7.6 6.45 13.25 3.7Q17.65 1.55 19.7 1.65L23.3 2.1Q24.8 2.45 27.75 3.75M32.35,21.45Q34.55 20.8 38.7 18.55L39.15 19.65L38.35 20.9Q37.2 22.2 34.65 23.65L34.35 23.8L33.25 24.4Q28.5 26.7 20.7 27.3Q12.9 26.7 8.15 24.4L7.5 24.1L7.15 23.9Q4.75 22.55 3.5 21.35Q2.55 20.45 2.25 19.65L2.15 19.35Q1.6 16.95 3 16.75L5.9 18.75Q13.2 22.95 20.3 22.85L24.25 22.65Q29.1 22.5 32.35 21.45M37.25,20.65Q33.35 22.4 29.35 23.6Q21.3 26.05 20.65 24Q20.55 23.75 18.5 23.5L14.1 22.65L9.15 21.05Q6.75 20.05 4.6 18.4Q3.55 17.85 3.2 18.05Q3 18.25 3.05 18.7Q3.25 19.6 4.75 21.15Q6.5 23.05 10.95 24.55Q15.45 26.05 20.65 26.45Q26.7 26.6 32.6 23.65Q35.5 22.15 37.25 20.65M34.15,15.15Q19.75 16.6 17.55 10.2Q16.4 6.9 18.6 3.3Q12.95 3.85 10.15 7.65Q7.4 11.45 7.15 13.5Q6.95 15.55 8.4 16.6Q9.85 17.6 13.45 18.75Q17.05 19.85 19.35 19.75Q24.85 20.2 30.2 17.6L34.15 15.15" />
<path style="fill:#133A09;fill-opacity:1" d="M23.3,2.1L19.7 1.65Q17.65 1.55 13.25 3.7Q7.6 6.45 4.8 15.5Q7.25 17.75 12.15 19.65L16.15 20.85L16.55 20.95L20.1 21.4Q25.4 21.1 29.25 19.65Q34.15 17.75 36.6 15.5Q35.25 11.05 33 8.05Q30.75 5.1 27.75 3.75Q24.8 2.45 23.3 2.1M39.25,19.35L39.35 18.8Q39.6 16.9 38.4 16.75L35.5 18.75Q30.05 21.9 24.25 22.65L20.3 22.85Q13.2 22.95 5.9 18.75L3 16.75Q1.6 16.95 2.15 19.35L2.25 19.65Q2.55 20.45 3.5 21.35Q4.75 22.55 7.15 23.9L7.5 24.1L8.15 24.4Q12.9 26.7 20.7 27.3Q28.5 26.7 33.25 24.4L34.35 23.8L34.65 23.65Q37.2 22.2 38.35 20.9L39.15 19.65L39.25 19.35M34.85,25.4L34.1 25.75L32.25 26.6Q28 28.45 22.3 28.8L22.3 28.85L20.75 28.85L19.1 28.85L19.05 28.8Q13.4 28.45 9.15 26.6L7.75 26L6.95 25.65L3.4 23.65L2.9 23.2L1.8 22.15Q-1.3 19.1 -0.5 16.2Q0.25 13.25 3 13.85Q3.8 9.25 7.6 5.3Q11.35 1.3 16.05 0.15Q20.75 -1.05 25.25 0.25Q29.75 1.55 33.55 5.1Q37.3 8.65 38.4 13.9Q41.2 13.75 41.75 17.2Q42.25 20.65 40 21.7L38.5 23.2L38.45 23.3L34.85 25.4" />
<path style="fill:#794823;fill-opacity:1" d="M33.55,35.9L33.7 34.6Q33.8 32.65 33.15 31.55L33.6 29.2L34.1 25.75L34.85 25.4L35.05 28.45L35.1 29.8Q37.4 28.7 38.15 26.35Q38.5 25.05 38.45 23.45L38.45 23.3L38.5 23.2L40 21.7L40.15 24.15L40.15 24.55Q39.9 31.1 34.9 32.65L34.6 35.65Q34.3 37.4 33.5 38.85L32.7 39.8L33.55 35.9M29.25,39.95L29.9 41.8L29.15 42.25Q25.9 44.2 21.25 44.8Q15.95 44.2 12.7 42.25L12.6 42.2L13.3 40.3Q16.15 41.7 21.1 42.35Q26.5 41.6 29.25 39.95M9,33.2L9 34.6L9 34.75L9 34.95Q9.25 37.95 10.3 40.7Q8.7 39.55 8.35 38.85Q7.55 37.4 7.25 35.65Q6.95 33.85 6.95 32.65Q1.8 31.05 1.7 24.15L1.7 23.95L1.8 22.15L2.9 23.2L3.4 23.65Q3.35 24.85 3.55 25.8Q4.2 28.55 6.75 29.8L6.8 28.1L6.95 25.65L7.75 26L8.15 28.85L9 33.2M11.8,39.35L11.85 39.4L11.85 39.5L11.8 39.35M30.85,39.5L30.7 38.95L30.65 38.85L31.25 38.15L30.85 39.5" />
<path style="fill:#B88B47;fill-opacity:1" d="M38.45,23.3L38.45 23.45Q38.5 25.05 38.15 26.35L35.05 28.45L34.85 25.4L38.45 23.3M31.1,30.15L29.65 30L24.95 30.8L21.35 31.35L18.55 31L17.75 30.8L13.05 30L11.3 30.2L8.15 28.85L7.75 26L9.15 26.6Q13.4 28.45 19.05 28.8L19.1 28.85L20.75 28.85L22.3 28.85L22.3 28.8Q28 28.45 32.25 26.6L34.1 25.75L33.6 29.2L32.6 29.6L31.1 30.15M6.8,28.1L5.3 27.15L3.55 25.8Q3.35 24.85 3.4 23.65L6.95 25.65L6.8 28.1M27.9,38.15Q27 37.45 21.65 38.9L17.05 38.35L13.9 38.25Q14.4 36.65 15 36.5L19.2 36.75L20.8 37.05L21.3 37.1L21.85 37.05L23.5 36.75L27.7 36.5Q28.45 36.7 29 38.9L29 38.95L27.9 38.15M21.1,42.35Q16.15 41.7 13.3 40.3L13.7 38.9L13.75 38.65L16.3 39.65Q19.8 40.95 20.9 40.95L24.8 40.5L29.15 39.5L29.25 39.95Q26.5 41.6 21.1 42.35" />
<path style="fill:#1F6914;fill-opacity:1" d="M32.6,23.65Q26.7 26.6 20.65 26.45Q15.45 26.05 10.95 24.55Q6.5 23.05 4.75 21.15Q3.25 19.6 3.05 18.7Q3 18.25 3.2 18.05Q3.55 17.85 4.6 18.4Q6.75 20.05 9.15 21.05L14.1 22.65L18.5 23.5Q20.55 23.75 20.65 24Q21.3 26.05 29.35 23.6Q33.35 22.4 37.25 20.65Q35.5 22.15 32.6 23.65M30.2,17.6Q24.85 20.2 19.35 19.75Q17.05 19.85 13.45 18.75Q9.85 17.6 8.4 16.6Q6.95 15.55 7.15 13.5Q7.4 11.45 10.15 7.65Q12.95 3.85 18.6 3.3Q16.4 6.9 17.55 10.2Q19.75 16.6 34.15 15.15L30.2 17.6" />
<path style="fill:#301D16;fill-opacity:1" d="M33.15,31.55Q33.8 32.65 33.7 34.6L33.55 35.9L32.7 39.8L31.75 42.25Q30.8 43.7 30.15 42.4L29.9 41.8L29.25 39.95L29.15 39.5L29 38.95L29 38.9Q28.45 36.7 27.7 36.5L23.5 36.75L21.85 37.05L21.3 37.1L20.8 37.05L19.2 36.75L15 36.5Q14.4 36.65 13.9 38.25L13.75 38.65L13.7 38.9L13.3 40.3L12.6 42.2L12.55 42.4Q11.9 43.7 10.95 42.25L10.7 41.7L10.3 40.7Q9.25 37.95 9 34.95L9 34.75L9 34.6L9 33.2Q9.3 30.95 11 30.3L11.3 30.2L13.05 30L17.75 30.8L18.55 31L21.35 31.35L24.95 30.8L29.65 30L31.1 30.15Q32.55 30.45 33.15 31.55M31.25,38.15Q31.7 36.5 31.75 34.95L31.75 33.75L31.75 33.65Q31.55 30.8 27.05 32.05L24.05 32.8L21.45 33.1L20.55 33.1L18.8 32.8L15.65 32.05Q12 31.05 11.15 32.75L11.05 33L10.95 33.65Q10.75 36.4 11.8 39.35L11.85 39.5L11.85 39.4L12.15 38.3L12.25 37.8L12.25 37.65Q12.6 36.5 13.1 35.85Q13.75 34.95 14.55 34.7L17.9 35L21.3 35.55L24.8 35L28.15 34.7Q28.95 34.95 29.6 35.85Q30.25 36.7 30.55 38.3L30.65 38.85L30.7 38.95L30.85 39.5L31.25 38.15" />
<path style="fill:#E9CB9E;fill-opacity:1" d="M38.15,26.35Q37.4 28.7 35.1 29.8L35.05 28.45L38.15 26.35M31.1,30.15L32.6 29.6L33.6 29.2L33.15 31.55Q32.55 30.45 31.1 30.15M11.3,30.2L11 30.3Q9.3 30.95 9 33.2L8.15 28.85L11.3 30.2M24.8,40.5L20.9 40.95Q19.8 40.95 16.3 39.65L13.75 38.65L13.9 38.25L17.05 38.35L21.65 38.9Q27 37.45 27.9 38.15L29 38.95L29.15 39.5L24.8 40.5M5.3,27.15L6.8 28.1L6.75 29.8Q4.2 28.55 3.55 25.8L5.3 27.15" />
<path style="fill:#855F48;fill-opacity:1" d="M13.15,32.75L15.55 33.15L18.65 33.5L20.2 33.2L20.55 33.1L21.45 33.1L24.05 32.8L24.9 32.75Q27.2 32.6 29.1 33.2Q30.65 33.7 30.7 34.2L30.7 33.3Q31.2 33.35 31.75 33.75L31.75 34.95L31.05 36.65Q31.6 35.25 30.2 34.55Q28.8 33.8 27.55 33.6L25.25 33.8L21.7 34.5L17.25 34.15Q15.25 33.5 14.35 33.5L13.6 33.55L12.6 34.6L12.6 33.65L11.45 34.95L11.2 32.95L13.15 32.75" />
<path style="fill:#57351A;fill-opacity:1" d="M31.25,38.15L30.65 38.85L30.55 38.3Q30.25 36.7 29.6 35.85Q28.95 34.95 28.15 34.7L24.8 35L21.3 35.55L17.9 35L14.55 34.7Q13.75 34.95 13.1 35.85Q12.6 36.5 12.25 37.65L12.25 37.8L12.15 38.3L11.85 39.4L11.8 39.35Q10.75 36.4 10.95 33.65L11.05 33L11.15 32.75L11.2 32.95L11.45 34.95L12.6 33.65L12.6 34.6L13.6 33.55L14.35 33.5Q15.25 33.5 17.25 34.15L21.7 34.5L25.25 33.8L27.55 33.6Q28.8 33.8 30.2 34.55Q31.6 35.25 31.05 36.65L31.75 34.95Q31.7 36.5 31.25 38.15" />
<path style="fill:#B47F60;fill-opacity:1" d="M27.05,32.05Q31.55 30.8 31.75 33.65L31.75 33.75Q31.2 33.35 30.7 33.3L30.7 34.2Q30.65 33.7 29.1 33.2Q27.2 32.6 24.9 32.75L24.05 32.8L27.05 32.05M20.55,33.1L20.2 33.2L18.65 33.5L15.55 33.15L13.15 32.75L11.2 32.95L11.15 32.75Q12 31.05 15.65 32.05L18.8 32.8L20.55 33.1" />
</g>
</svg>
