<?xml version="1.0" encoding="utf-8"?>
<svg version="1.1" id="Layer_1"
xmlns="http://www.w3.org/2000/svg"
xmlns:xlink="http://www.w3.org/1999/xlink"
xmlns:author="http://www.sothink.com"
width="42px" height="45px"
xml:space="preserve">
<g id="1708" transform="matrix(1, 0, 0, 1, 0, 0)">
<path style="fill:#F8F8F8;fill-opacity:1" d="M33.75,40.95Q31.5 43.25 28.7 44.8L0 29.7L0.75 28.3L1.5 28.55Q7 29.5 9.05 28.15Q9.15 29.35 7.3 30.25L10.95 30Q12.55 29.85 14.7 28.9L17.9 27.3L17.1 28Q14.55 30.45 13.4 31.05L14.75 30.95Q17.8 30.4 20.15 28.65Q20.05 30.15 20.95 30.45L23.65 30.4Q25.6 30.15 27.75 26.1Q27.7 27.45 26.55 30.65L27.5 30.95Q27.7 30.6 28.45 30.55L28.55 30.6L28.6 30.8L28.55 30.8L28.45 30.9Q30.55 30.45 32.35 26.55Q32.1 33 27.55 35.55Q28.3 32.9 26.1 31.85Q23.6 33.9 20.55 33.55Q22 32.5 21 31.85Q18.75 31.4 14.85 32.85L16.6 33.55L18.45 34.4L20.4 34.35L20.45 34.4L20.5 34.4L20.6 34.5L19.95 34.85L20.45 35.05L22.95 35.2L25.15 36.55L25.65 36.65L27.55 36.4Q27.8 36.5 27.6 36.7Q27.45 36.75 27.35 36.9Q30.4 37.05 32.6 35.4L36.55 31.65Q36.95 33.75 34.8 38.85L33.75 40.95M34.4,22.9L34.45 22.85L34.65 22.95Q34.9 24.4 34.3 25.8L34.2 25.9Q33.6 24.5 34.3 23.2Q34 23.1 34.4 22.9M30.85,24.45Q31.35 25.55 30.25 26.25L30.2 26.1Q30.2 25.25 30.55 24.5L30.6 24.45L30.8 24.4L30.85 24.45M10.6,26.85Q10.55 27.6 9.55 27.6L9.55 27.55Q9.7 26.95 10.55 26.8L10.6 26.85M37.5,31L37.5 30.95Q37.35 30 38.05 29.5L38.1 29.55Q38.6 30.75 37.5 31M24.5,27.35Q23.35 28.55 21.85 28.75L21.8 28.55Q21.75 28.35 22.1 28.35L23.35 27.3L24.85 25.3Q25.4 26.25 24.5 27.35" />
<path style="fill:#B0E3F0;fill-opacity:1" d="M34.8,38.85Q36.95 33.75 36.55 31.65L32.6 35.4Q30.4 37.05 27.35 36.9Q27.45 36.75 27.6 36.7Q27.8 36.5 27.55 36.4L25.65 36.65L25.15 36.55L22.95 35.2L20.45 35.05L19.95 34.85L20.6 34.5L20.5 34.4L20.45 34.4L20.4 34.35L18.45 34.4L16.6 33.55L14.85 32.85Q18.75 31.4 21 31.85Q22 32.5 20.55 33.55Q23.6 33.9 26.1 31.85Q28.3 32.9 27.55 35.55Q32.1 33 32.35 26.55Q30.55 30.45 28.45 30.9L28.55 30.8L28.6 30.8L28.55 30.6L28.45 30.55Q27.7 30.6 27.5 30.95L26.55 30.65Q27.7 27.45 27.75 26.1Q25.6 30.15 23.65 30.4L20.95 30.45Q20.05 30.15 20.15 28.65Q17.8 30.4 14.75 30.95L13.4 31.05Q14.55 30.45 17.1 28L17.9 27.3L14.7 28.9Q12.55 29.85 10.95 30L7.3 30.25Q9.15 29.35 9.05 28.15Q7 29.5 1.5 28.55L0.75 28.3Q1.95 26.1 2.6 25.25Q6.5 26.8 9.5 26.4Q12.45 25.75 13.45 25.1Q12.05 27.1 11.45 27.4Q15.85 27 19.75 23.75L22.3 21.2Q22.25 23.35 21.85 24.35L20.35 26.3Q22.75 25.65 24.05 24.35L26.15 21.85Q26.95 23.85 26.75 25.45Q28.15 24.45 29.25 22.75L31.05 19.4Q31.75 22.05 31.55 23.45Q32.9 22.75 34.1 20.05L34.9 17.55Q36.7 20.2 36.7 24Q36.65 27.6 35.65 29.1L38.9 27.1L40.65 25.5L39.95 28.6Q37.9 36.4 33.75 40.95L34.8 38.85M34.3,23.2Q33.6 24.5 34.2 25.9L34.3 25.8Q34.9 24.4 34.65 22.95L34.45 22.85L34.4 22.9Q34 23.1 34.3 23.2M30.8,24.4L30.6 24.45L30.55 24.5Q30.2 25.25 30.2 26.1L30.25 26.25Q31.35 25.55 30.85 24.45L30.8 24.4M10.55,26.8Q9.7 26.95 9.55 27.55L9.55 27.6Q10.55 27.6 10.6 26.85L10.55 26.8M38.1,29.55L38.05 29.5Q37.35 30 37.5 30.95L37.5 31Q38.6 30.75 38.1 29.55M24.85,25.3L23.35 27.3L22.1 28.35Q21.75 28.35 21.8 28.55L21.85 28.75Q23.35 28.55 24.5 27.35Q25.4 26.25 24.85 25.3" />
<path style="fill:#1179C2;fill-opacity:1" d="M38.9,27.1L35.65 29.1Q36.65 27.6 36.7 24Q36.7 20.2 34.9 17.55L34.1 20.05Q32.9 22.75 31.55 23.45Q31.75 22.05 31.05 19.4L29.25 22.75Q28.15 24.45 26.75 25.45Q26.95 23.85 26.15 21.85L24.05 24.35Q22.75 25.65 20.35 26.3L21.85 24.35Q22.25 23.35 22.3 21.2L19.75 23.75Q15.85 27 11.45 27.4Q12.05 27.1 13.45 25.1Q12.45 25.75 9.5 26.4Q6.5 26.8 2.6 25.25L3 24.4L6.75 24.95Q12.65 24.95 15.2 21.65Q15.7 22.9 15.3 24.25Q18.2 22.55 20.15 20.7Q22 18.9 23.15 16.65Q24.2 14.35 24.6 12.2Q26.55 14.35 26.2 16.1Q27.4 14.8 27.9 11.75Q28.35 8.5 26.8 5.45Q27.9 5.6 28.8 6.7Q29.6 7.75 29.85 8.6Q30.4 4.75 27.3 0Q29.9 1.5 32.35 4.4Q36.55 10 36.2 13.2L36.7 11.1L36.65 8.9Q38.1 10.8 39.25 16.05Q39.75 18.3 39.85 20.45Q40.95 17.95 41 16.4Q41.3 18.55 41.25 20.9L41.25 21.7L40.7 25.4L40.65 25.5L38.9 27.1" />
</g>
</svg>
