<?xml version="1.0" encoding="utf-8"?>
<svg version="1.1" id="Layer_1"
xmlns="http://www.w3.org/2000/svg"
xmlns:xlink="http://www.w3.org/1999/xlink"
xmlns:author="http://www.sothink.com"
width="15px" height="19px"
xml:space="preserve">
<g id="1669" transform="matrix(1, 0, 0, 1, -33.35, 3.85)">
<path style="fill:#FFFFFF;fill-opacity:1" d="M42.85,-3.45L42.85 -3.55L42.95 -3.65L36.15 0.25Q36.7 3.8 35.35 6.95L35.3 6.95Q35.2 3.3 36 0.35L35.9 0.35L36.05 0.2L36.1 0.05L36.1 0.15Q39.25 -2.85 43.2 -3.85L43.3 -3.85L43.1 -3.75L43.7 -3.6L43.95 -3.35Q46.55 -1.4 47.25 1.5L47.05 1.5L45 -1.4Q45.5 0.5 45.4 2.3L45.3 2.25Q44.1 -0.15 44.65 -1.8L42.85 -3.45M48.05,2.9Q48.45 3.1 48.15 3.1L43.7 3.1L41.15 3.6L38.35 10.45Q37.2 11.6 36.6 13.1Q35.95 14.55 35.2 14.35Q33.65 15.15 33.35 12.75L33.65 12.7L33.9 11.75L34.05 11.35Q34.4 9.5 34.9 8.35L35 8.55Q35.55 10.9 34.45 13.05L34.7 13.6L34.75 13.55L35.25 12.8Q37.25 8.3 39.3 4.65L39.95 3Q40.35 2.15 41.7 2.1L44.75 2.3L48.05 2.9" />
</g>
</svg>
