<?xml version="1.0" encoding="utf-8"?>
<svg version="1.1" id="Layer_1"
xmlns="http://www.w3.org/2000/svg"
xmlns:xlink="http://www.w3.org/1999/xlink"
xmlns:author="http://www.sothink.com"
width="19px" height="16px"
xml:space="preserve">
<g id="620" transform="matrix(1, 0, 0, 1, 0, 0)">
<path style="fill:#0E0A0B;fill-opacity:1" d="M0.5,1.15L0.7 0.85Q1.35 0.2 3.05 0Q6.9 0.2 7.8 1.8Q8.35 2.95 8.95 3.35Q9.1 2.6 10.25 2.2Q11.4 1.85 12.75 2.2Q14.1 2.5 14.9 3.85Q15.7 5.2 15.65 7L16.8 8.7Q19.15 12.8 17.3 15.8L16.9 15.85Q13.95 16.35 11.9 14.4L10.35 15.15Q9.35 15.45 8 15.15Q6.6 14.85 6 13.75Q5.35 12.6 5.85 11.4L5.1 10.95Q2.8 9.35 2.55 7.8Q2.45 7.2 2.6 6.65Q4.4 9.2 7.25 10.6L8.8 10.05Q10.05 9.5 9.3 10.55Q8.55 11.55 7.3 11.75Q6.95 13.1 8.2 13.5Q9.45 13.9 10.7 13.1L12.5 11.55L12.7 11.3L13.7 9.55L14.05 7.95L13.85 5.95L13.25 4.45L12.95 4.1L12.9 4.1L10.6 4Q11.3 3.9 11.8 5.3Q12.3 6.65 10.3 8.5Q11.4 6.25 10.15 5.4Q8.4 5.1 7.2 3.55L6.8 2.95Q6 2.05 4.25 1.5L1.4 1.2L0.4 1.4L0.5 1.15M10.8,9.55L10.85 9.6L10.8 9.6L10.8 9.55M16.4,10.5L15.5 8.95L15.15 10.45Q14.8 11.6 13.05 13.45Q14.8 14.75 16.55 14.7L16.6 14.55Q17.2 12.4 16.4 10.5" />
<path style="fill:#3C3134;fill-opacity:1" d="M10.2,11.1Q11 8.95 10.35 9.4Q9.55 9.95 7.9 8.65L6.45 7.25Q3.85 5.75 1.6 6.35L1.2 6.6L0.75 5.95Q-0.15 4.45 0.05 2.15L0.05 2.1L0.1 1.95L0.25 1.7L0.25 1.6L0.4 1.4L1.4 1.2L4.25 1.5Q6 2.05 6.8 2.95L7.2 3.55Q8.4 5.1 10.15 5.4Q11.4 6.25 10.3 8.5Q12.3 6.65 11.8 5.3Q11.3 3.9 10.6 4L12.9 4.1L12.95 4.1L13.25 4.45L13.85 5.95L14.05 7.95L13.7 9.55L12.7 11.3L12.5 11.55Q10.15 12.45 10.2 11.1M12.8,7.15Q13.95 6.3 12.8 5.05Q12.35 5.8 12.7 6.95L12.8 7.15M10.8,9.6L10.85 9.6L10.8 9.55L10.8 9.6M5.65,3.95Q5.65 2 3.1 2.15Q2.9 2.15 2.95 2.3Q3.15 3.9 5.45 4.05L5.65 3.95" />
<path style="fill:#625158;fill-opacity:1" d="M12.7,6.95Q12.35 5.8 12.8 5.05Q13.95 6.3 12.8 7.15L12.7 6.95M5.45,4.05Q3.15 3.9 2.95 2.3Q2.9 2.15 3.1 2.15Q5.65 2 5.65 3.95L5.45 4.05" />
<path style="fill:#1C1417;fill-opacity:1" d="M1.2,6.6L1.6 6.35Q3.85 5.75 6.45 7.25L7.9 8.65Q9.55 9.95 10.35 9.4Q11 8.95 10.2 11.1Q10.15 12.45 12.5 11.55L10.7 13.1Q9.45 13.9 8.2 13.5Q6.95 13.1 7.3 11.75Q8.55 11.55 9.3 10.55Q10.05 9.5 8.8 10.05L7.25 10.6Q4.4 9.2 2.6 6.65Q2.45 7.2 2.55 7.8L2.5 7.7L2.35 7.6L2 7.45L1.2 6.6" />
<path style="fill:#232323;fill-opacity:1" d="M16.55,14.7Q14.8 14.75 13.05 13.45Q14.8 11.6 15.15 10.45L15.5 8.95L16.4 10.5L16.25 10.85L15.9 11.65L15.55 12.25L15.3 12.65L16.25 13.95L16.55 14.5L16.6 14.55L16.55 14.7" />
<path style="fill:#414141;fill-opacity:1" d="M16.6,14.55L16.55 14.5L16.25 13.95L15.3 12.65L15.55 12.25L15.9 11.65L16.25 10.85L16.4 10.5Q17.2 12.4 16.6 14.55" />
</g>
</svg>
