<?xml version="1.0" encoding="utf-8"?>
<svg version="1.1" id="Layer_1"
xmlns="http://www.w3.org/2000/svg"
xmlns:xlink="http://www.w3.org/1999/xlink"
xmlns:author="http://www.sothink.com"
width="15px" height="18px"
xml:space="preserve">
<g id="1672" transform="matrix(1, 0, 0, 1, -37.35, 7.4)">
<path style="fill:#FFFFFF;fill-opacity:1" d="M44.75,-0.8L45.7 0L46.35 0.4Q48.25 -0.65 50.1 -0.75L50.9 -1.2L51.25 -1.65L49.6 -4.2Q47.05 -6.1 45.2 -6.7L41.5 -4.35L41.45 -4.45Q40.1 -2.55 38.45 -1.65Q38.1 -0.6 38 0.8L40.45 2.55L40.9 3.6Q41.1 5.15 39.85 6L39.8 5.9Q40 4.55 40.45 3.6Q39.95 3.1 38.3 2.15Q37.55 1.7 37.4 0.8Q37.15 -1.15 37.85 -2.05L41.2 -4.85Q43.45 -6.9 45.4 -7.4L45.6 -7.3Q48.2 -6.1 50.1 -4.55L50.1 -4.45L50.35 -4.35L50.25 -4.25L51.4 -1.75L51.55 -1.8L51.55 -1.7L51.65 -1.8L51.7 -1.65L51.65 -1.5Q51.85 -0.7 51.2 -0.6Q50.45 0.7 48.75 0.2L46.8 0.95L46.75 1.1L46.65 1.2Q46.45 1.3 46.5 1.75Q46.05 1.7 46.45 9.05Q46.65 9.55 46.15 10.3L45.8 10.15Q43.75 10.45 41.75 10.15Q38.5 8.05 42.25 8.85L44.85 8.5L44.95 6.8L44.95 6.65L44.8 3.55Q44.6 2.2 44.85 0.3L42.8 -1.1L42.8 -0.75Q42 -1.55 42.7 -2.7L42.7 -2.65L43.55 -1.3Q44.25 -1.25 44.75 -0.8M45.7,1.4L45.65 1.35L45.65 1.5L45.7 1.4M45.85,1.4L45.8 1.65L45.9 1.35L45.85 1.4" />
</g>
</svg>
