<?xml version="1.0" encoding="utf-8"?>
<svg version="1.1" id="Layer_1"
xmlns="http://www.w3.org/2000/svg"
xmlns:xlink="http://www.w3.org/1999/xlink"
xmlns:author="http://www.sothink.com"
width="9px" height="10px"
xml:space="preserve">
<g id="1648" transform="matrix(1, 0, 0, 1, 0, 0)">
<path style="fill:#8CCFEC;fill-opacity:0.501961" d="M6.25,4.6L5.7 2.75L6.2 2.9L6.25 4.6" />
<path style="fill:#96EEFA;fill-opacity:0.501961" d="M7.8,3.6Q6.85 4.4 6.7 5.35L6.25 5.3L6.25 4.6L6.2 2.9L6.85 3.1L8.2 3.6L8.15 4.2L7.8 3.6M2.35,0.25L2.25 0.25L1.95 0L2.15 0.05L2.35 0.25" />
<path style="fill:#D0FCFC;fill-opacity:0.901961" d="M6.25,5.3L6.3 6.7L4.6 2.4L5.7 2.75L6.25 4.6L6.25 5.3" />
<path style="fill:#3F94BB;fill-opacity:0.701961" d="M7,8.65L6.8 8.4L6.7 8.25L6.7 8.2L6 7.2L5.6 6.3L5 5.3L4.4 4.9L3.5 3.9L3.6 3.8L3.35 3.65L3.35 3.75L0.5 0.5L0 0.35L0.7 0.4L0.75 0.6L3.75 2.05L4.2 3.15L4.5 2.35L4.6 2.4L6.3 6.7L6.25 5.3L6.7 5.35Q6.5 6.55 7.5 7.95L7.6 7.9L8.2 7.15L8.3 9.5L7.5 9.4L7 8.65" />
<path style="fill:#62B3C4;fill-opacity:0.701961" d="M6.7,5.35Q6.85 4.4 7.8 3.6L8.15 4.2L8.2 7.15L7.6 7.9L7.5 7.95Q6.5 6.55 6.7 5.35M3.5,3.9L3.35 3.75L3.35 3.65L3.6 3.8L3.5 3.9M3.75,2.05L4.5 2.35L4.2 3.15L3.75 2.05" />
<path style="fill:#7BCBD6;fill-opacity:0.701961" d="M7.5,9.4L6.65 9.25L6 7.2L6.7 8.2L6.7 8.25L6.8 8.4L7 8.65L7.5 9.4" />
</g>
</svg>
