<?xml version="1.0" encoding="utf-8"?>
<svg version="1.1" id="Layer_1"
xmlns="http://www.w3.org/2000/svg"
xmlns:xlink="http://www.w3.org/1999/xlink"
xmlns:author="http://www.sothink.com"
width="118px" height="15px"
xml:space="preserve">
<g id="1552" transform="matrix(1, 0, 0, 1, 0, 0)">
<linearGradient
id="LinearGradID_1816" gradientUnits="userSpaceOnUse" gradientTransform="matrix(0, 0.00784302, -0.00762939, 0, 6.25, 8)" spreadMethod ="pad" x1="-819.2" y1="0" x2="819.2" y2="0" >
<stop  offset="0" style="stop-color:#FFF980;stop-opacity:1" />
<stop  offset="1" style="stop-color:#E7950A;stop-opacity:1" />
</linearGradient>
<path style="fill:url(#LinearGradID_1816) " d="M117.65,1.7Q117.65 2.35 117.2 2.8L117.2 2.85Q116.7 3.25 115.9 3.25L110.5 3.25L110.5 5.4L115.45 5.4Q116.25 5.4 116.7 5.8L116.75 5.85Q117.1 6.25 117.1 6.85L116.75 7.95L116.7 8L115.45 8.35L110.5 8.35L110.5 11.05L116.1 11.05Q116.9 11.05 117.35 11.4L117.4 11.45L117.85 12.55Q117.85 13.3 117.4 13.7Q116.9 14.1 116.1 14.1L109 14.1Q107.95 14.1 107.5 13.6L107.45 13.55Q106.9 13.05 106.9 12L106.9 2.3L107.1 1.2L107.15 1.15L107.85 0.5L107.9 0.45L109 0.2L115.9 0.2Q116.7 0.2 117.2 0.65Q117.65 1 117.65 1.7M104.05,2.65Q104.45 3.3 104.45 3.9Q104.45 4.55 103.9 5.05L103.9 5.1Q103.4 5.55 102.7 5.55L102 5.45L101.9 5.4L101.3 4.85L101.3 4.8L100.55 3.75L99.75 3.2L99.8 3.2L98.55 3L97.15 3.25Q96.5 3.55 96.1 4.1Q95.65 4.55 95.45 5.35L95.45 5.4Q95.15 6.15 95.15 7.1Q95.15 8.45 95.55 9.35L95.6 9.4L96.1 10.3Q97 11.3 98.6 11.3L100.2 11.1L101.45 10.6L101.45 9.3L99.9 9.3L98.55 9Q97.95 8.65 97.95 7.85Q97.95 7.2 98.4 6.75L98.45 6.75Q98.85 6.35 99.6 6.35L102.55 6.35L103.65 6.5L104.5 7.05L104.55 7.1L104.8 8.35L104.8 10.85L104.75 11.7L104.75 11.75L104.25 12.5L104.25 12.55L103.45 13.05L101.1 14.05L98.6 14.3L95.75 13.85Q94.35 13.35 93.45 12.4Q92.5 11.4 92.05 10.15L92.05 10.1L91.95 9.7Q91.55 8.55 91.55 7.15Q91.55 5.55 92.05 4.25Q92.5 2.85 93.45 1.95Q94.35 0.95 95.75 0.5Q97.05 0 98.75 0L101.25 0.4Q102.3 0.75 103 1.35Q103.7 1.9 104.05 2.6L104.05 2.65M89.15,0.55Q89.6 1.05 89.6 2L89.6 12.1Q89.6 14.35 87.65 14.3L86.9 14.2L86.2 13.8L85.65 13.2L85.25 12.6L81.25 6.5L81.25 12.35Q81.25 13.25 80.8 13.8L80.75 13.8Q80.25 14.3 79.5 14.3Q78.7 14.3 78.3 13.8Q77.8 13.25 77.8 12.35L77.8 2.4L78 1.2L78 1.25Q78.2 0.65 78.75 0.35L78.7 0.35Q79.2 0 79.8 0L80.6 0.15L80.7 0.15L81.2 0.55L81.7 1.15L82.1 1.8L86.2 8L86.2 2Q86.2 1.05 86.6 0.55L86.65 0.55Q87.05 0 87.85 0Q88.7 0 89.15 0.55M75.45,2.8L75.45 2.85Q74.95 3.25 74.15 3.25L68.75 3.25L68.75 5.4L73.7 5.4Q74.5 5.4 74.95 5.8L75 5.85L75.35 6.85Q75.35 7.5 75 7.95L74.95 8L73.7 8.35L68.75 8.35L68.75 11.05L74.35 11.05Q75.15 11.05 75.6 11.4L75.65 11.45Q76.1 11.9 76.1 12.55Q76.1 13.3 75.65 13.7Q75.15 14.1 74.35 14.1L67.25 14.1Q66.2 14.1 65.75 13.6L65.7 13.55Q65.15 13.05 65.15 12L65.15 2.3L65.35 1.2L65.4 1.15L66.1 0.5L66.15 0.45L66.85 0.25L67.25 0.2L74.15 0.2Q74.95 0.2 75.45 0.65Q75.9 1 75.9 1.7L75.45 2.8M63.4,11.4Q63.85 11.85 63.85 12.55Q63.85 13.2 63.4 13.65L63.4 13.7Q62.9 14.1 62.05 14.1L55.75 14.1Q54.7 14.1 54.25 13.6L54.2 13.55Q53.65 13.05 53.65 12L53.65 2.1Q53.65 1.1 54.15 0.6Q54.6 0 55.45 0Q56.3 0 56.8 0.6Q57.25 1.1 57.25 2.1L57.25 10.95L62.05 10.95Q62.9 10.95 63.4 11.4M42.2,2.1Q42.2 1.1 42.7 0.6Q43.15 0 44 0Q44.85 0 45.35 0.6Q45.8 1.1 45.8 2.1L45.8 10.95L50.6 10.95Q51.45 10.95 51.95 11.4Q52.4 11.85 52.4 12.55Q52.4 13.2 51.95 13.65L51.95 13.7Q51.45 14.1 50.6 14.1L44.3 14.1Q43.25 14.1 42.8 13.6L42.75 13.55Q42.2 13.05 42.2 12L42.2 2.1M36.6,1.8L36.55 1.75L36.95 2.8L36.95 2.75L40.35 11.05L40.3 11.05L40.75 12.6Q40.75 13.25 40.2 13.8Q39.7 14.3 38.95 14.3L38.3 14.2L38.25 14.15L37.65 13.7L37.3 13.05L37.3 13.1L37 12.3L37 12.35L36.5 11L31.95 11L31.5 12.4L31.45 12.4L30.75 13.8L30.75 13.85Q30.35 14.3 29.55 14.3Q28.85 14.3 28.35 13.85L28.3 13.8Q27.8 13.3 27.8 12.65L27.85 12.05L27.9 11.95L28.2 11.15L31.5 2.8L31.5 2.75L31.85 1.95L32.3 1L32.3 0.95L33.05 0.3L34.2 0Q34.9 0 35.35 0.3L35.35 0.25L36.1 0.95L36.6 1.8M35.45,8.05L34.2 4.75L33.05 8.05L35.45 8.05M25.8,0.6Q26.3 1.1 26.3 2.1L26.3 12.25Q26.3 13.25 25.8 13.75L25.75 13.8Q25.25 14.3 24.45 14.3Q23.6 14.3 23.15 13.75Q22.65 13.2 22.65 12.25L22.65 8.4L18.05 8.4L18.05 12.25Q18.05 13.25 17.55 13.75L17.5 13.8Q17 14.3 16.2 14.3Q15.45 14.3 14.95 13.75Q14.4 13.2 14.4 12.25L14.4 2.1Q14.4 1.1 14.9 0.6Q15.35 0 16.2 0Q17 0 17.5 0.55L17.55 0.6Q18.05 1.1 18.05 2.1L18.05 5.25L22.65 5.25L22.65 2.1Q22.65 1.1 23.2 0.6L23.2 0.55Q23.7 0 24.45 0Q25.25 0 25.75 0.55L25.8 0.6M10.85,6.05Q10.1 6.05 9.75 5.65L9.1 4.75L8.1 3.5L8.05 3.45Q7.45 3.05 6.65 3.05Q5.3 3.05 4.5 4.1Q3.65 5.2 3.65 7.25Q3.65 8.65 4.05 9.6L4 9.55Q4.4 10.4 5.05 10.85Q5.7 11.25 6.55 11.25L8.25 10.8L8.2 10.8L9.2 9.4Q9.35 8.8 9.65 8.4L9.7 8.4Q10.05 7.9 10.85 7.9Q11.5 7.9 12 8.35Q12.5 8.85 12.5 9.55L12.15 11.05L12.2 11.05L11.1 12.6L11.15 12.6L9.25 13.85L9.25 13.9L6.7 14.3L4.8 14.15L4.75 14.15L3.1 13.5L1.75 12.3L0.75 10.85L0.75 10.8L0.2 9.1L0.25 9.15L0 7.2Q0 5.5 0.5 4.25Q0.95 2.85 1.9 1.95Q2.8 0.95 4 0.5L4.05 0.5Q5.25 0 6.65 0Q8.3 0 9.7 0.65Q11 1.35 11.7 2.35L11.75 2.4Q12.45 3.45 12.45 4.4Q12.45 5.05 12.05 5.55L12 5.55Q11.5 6.05 10.85 6.05" />
<path style="fill:#FFFFFF;fill-opacity:1" d="M115.5,0.85L115.5 0.8Q116.7 1.05 116.8 2.2L116.7 2.25Q115.25 3.05 114.7 1.65Q114.8 1.05 115.5 0.85M108.45,0.85L108.45 0.8Q109.65 1.05 109.75 2.2L109.65 2.25Q108.2 3.05 107.65 1.65Q107.75 1.05 108.45 0.85M95.75,2.15Q96.35 1.05 98.1 0.9L99.95 0.95L100.6 1.2L101.55 1.8Q101.95 2.5 100.95 2.3L98.1 2.15L96.15 2.55Q95.45 3.1 95.75 2.15M88.95,2.2L88.85 2.25Q87.4 3.05 86.85 1.65Q86.95 1.05 87.65 0.85L87.65 0.8Q88.85 1.05 88.95 2.2M80.5,2.25Q79.05 3.05 78.5 1.65Q78.6 1.05 79.3 0.85L79.3 0.8Q80.5 1.05 80.6 2.2L80.5 2.25M73.9,0.8Q75.1 1.05 75.2 2.2L75.1 2.25Q73.65 3.05 73.1 1.65Q73.2 1.05 73.9 0.85L73.9 0.8M66.5,0.8Q67.7 1.05 67.8 2.2L67.7 2.25Q66.25 3.05 65.7 1.65Q65.8 1.05 66.5 0.85L66.5 0.8M55.3,0.8Q56.5 1.05 56.6 2.2L56.5 2.25Q55.05 3.05 54.5 1.65Q54.6 1.05 55.3 0.85L55.3 0.8M43.75,0.8Q44.95 1.05 45.05 2.2L44.95 2.25Q43.5 3.05 42.95 1.65Q43.05 1.05 43.75 0.85L43.75 0.8M34,0.8Q35.2 1.05 35.3 2.2L35.2 2.25Q33.75 3.05 33.2 1.65Q33.3 1.05 34 0.85L34 0.8M24.05,0.8Q25.25 1.05 25.35 2.2L25.25 2.25Q23.8 3.05 23.25 1.65Q23.35 1.05 24.05 0.85L24.05 0.8M15.75,0.85L15.75 0.8Q16.95 1.05 17.05 2.2L16.95 2.25Q15.5 3.05 14.95 1.65Q15.05 1.05 15.75 0.85M9.4,1.8Q9.8 2.5 8.8 2.3L4 2.55Q3.3 3.1 3.6 2.15Q4.5 0.55 7.8 0.95L8.45 1.2L9.4 1.8" />
</g>
</svg>
