<?xml version="1.0" encoding="utf-8"?>
<svg version="1.1" id="Layer_1"
xmlns="http://www.w3.org/2000/svg"
xmlns:xlink="http://www.w3.org/1999/xlink"
xmlns:author="http://www.sothink.com"
width="57px" height="18px"
xml:space="preserve">
<g id="3100" transform="matrix(1, 0, 0, 1, -5.15, 2.15)">
<linearGradient
id="LinearGradID_2904" gradientUnits="userSpaceOnUse" gradientTransform="matrix(0, 0.00280762, -0.00680542, 0, -75.3, 2.9)" spreadMethod ="pad" x1="-819.2" y1="0" x2="819.2" y2="0" >
<stop  offset="0" style="stop-color:#FAED2D;stop-opacity:1" />
<stop  offset="1" style="stop-color:#FFFEF3;stop-opacity:1" />
</linearGradient>
<path style="fill:url(#LinearGradID_2904) " d="M5.15,6.75Q5.1 2.55 5.3 -1.7L7.85 -1.8L10.6 -1.9L13.1 -1.95L14.95 -1.95L15.65 -1.85L15.7 -0.1L15.65 1.7L13.5 1.95L11.3 1.95L9.1 2L9 2L9 2.05L8.95 3.5L9 4.95L9.05 5L10.55 5.05L12.1 5.05L12.1 5.1L12.2 6.75L5.15 6.75M18.05,6.75Q17.4 2.65 17 -1.55L17.65 -1.8L18.75 -1.9L19.85 -1.9L20.6 -1.8L20.7 -0.2L20.85 2.5L21.15 6L21.25 6.75L18.05 6.75M22.55,6.75L22.85 5.1L23.5 1.3L24.1 -1.75L24.1 -1.8L24.15 -1.8L25.95 -1.7L27.75 -1.6L26.55 4.15L25.95 6.75L22.55 6.75M32.65,6.75L32.35 4.55L31.95 3.15Q31.8 3 31.65 3.65L31.35 5.55L31.2 6.75L28.1 6.75L29 2.8L30.25 -2L30.8 -2L31.7 -2L33.35 -2.15L33.65 -0.85L34.1 1.05L34.6 3.25L35.05 5.3L35.4 6.7L35.4 6.75L32.65 6.75M45.85,6.75L45.75 6.05L45.5 4.95L45 4L44.15 3.35L43.2 3.3L42.25 3.4L42.2 3.4L42.2 3.5L42.2 6.55L42.2 6.75L38.65 6.75L38.65 4.2L38.65 -1.65L38.65 -1.7L38.7 -1.75L40.7 -2L42.75 -2L44.75 -2Q45.55 -1.8 46.25 -1.2L47.45 0.1L47.45 0.05L48.35 1.85L48.95 3.75L49.1 4.55L49.15 5.3L49.15 6.75L45.85 6.75M50.6,6.75Q50.55 2.55 50.75 -1.7L53.3 -1.8L56.05 -1.9L58.55 -1.95L60.4 -1.95L61.1 -1.85L61.15 -0.1L61.1 1.7L58.95 1.95L56.75 1.95L54.55 2L54.45 2L54.45 2.05L54.4 3.5L54.45 4.95L54.5 5L56 5.05L57.55 5.05L57.55 5.1L57.65 6.75L50.6 6.75" />
<path style="fill:#EEBE23;fill-opacity:1" d="M5.15,6.75L12.2 6.75L12.2 6.8L12.15 8.55L11 8.7L9.85 8.7L9.15 8.85L9.05 10.45L9.15 11.95L9.15 12L12.4 12.05L15.7 12.1L15.7 12.15L15.75 13.8L15.55 15.45L10.35 15.5L5.3 15.4L5.15 6.8L5.15 6.75M25.95,6.75L25.15 9.8L23.6 15.5L22.95 15.5L22.05 15.55L20.9 15.55L19.95 15.4Q18.85 11.3 18.1 7.05L18.05 6.75L21.25 6.75L21.9 9.9L22.55 6.75L25.95 6.75M31,8.35L31.9 8.35L32.85 8.35L32.65 6.75L35.4 6.75L37.3 15.5L35.65 15.6L33.9 15.4L33.5 14.1L33.15 12.55L32.75 11.35L32.1 11.25L31.75 11.3L31.2 11.3L30.8 12.6L30.5 14.15L30.1 15.5L30 15.5L29 15.5L26.5 15.5L26.45 15.45L26.7 14.15L27.2 11.35L27.95 7.4L28.1 6.75L31.2 6.75L31 8.35M42.25,9.95L43 10.2L43.9 10.1L44.15 10.05L44.4 9.95L44.8 9.6L45.15 9.15L45.75 7.7L45.85 6.75L49.15 6.75L49.1 7.7L48.85 10.05L48.8 10.05L48.8 10.1L47.45 12.9L45.6 15.4L42.3 15.45L39.05 15.45L39.05 15.5Q38.7 12.85 38.65 10L38.65 6.75L42.2 6.75Q42.15 8.35 42.25 9.95M50.6,6.75L57.65 6.75L57.65 6.8L57.6 8.55L56.45 8.7L55.3 8.7L54.6 8.85L54.5 10.45L54.6 11.95L54.6 12L57.85 12.05L61.15 12.1L61.15 12.15L61.2 13.8L61 15.45L55.8 15.5L50.75 15.4L50.6 6.8L50.6 6.75" />
</g>
</svg>
