<?xml version="1.0" encoding="utf-8"?>
<svg version="1.1" id="Layer_1"
xmlns="http://www.w3.org/2000/svg"
xmlns:xlink="http://www.w3.org/1999/xlink"
xmlns:author="http://www.sothink.com"
width="24px" height="24px"
xml:space="preserve">
<g id="1775" transform="matrix(1, 0, 0, 1, 0, 0)">
<path style="fill:#172227;fill-opacity:1" d="M14.15,9.8L14.2 9.55L14.25 9.45L14.3 9.25Q14.65 7.4 16.35 6.5L16.6 6.35L17.2 6.1Q18.1 5.75 18.75 5.75Q19.25 3.35 18.55 2.05L17.95 0.4L19.2 1.05Q20.9 3 19.8 5.8Q22.3 6.15 22.4 8.65Q24.2 10.35 23.35 13.05L22.7 14.35Q21.7 15.75 19.75 15.8Q16.95 15.85 15.75 14L15.15 13.3Q15.6 11.25 14.15 9.8M18.7,9.75Q17.2 10.7 16.9 11.95Q16.55 13.5 18.1 14.35L19.1 14.8Q19.65 15 20.95 14.4Q22 13.95 22.4 12.9L22.55 12.3Q22.85 10.8 21.45 9.5L20.6 9.25L19.7 9.2L19.45 9.35L18.7 9.75M18.75,8.25L19.8 8L21.1 8.2Q20.1 6.3 17.95 7.2Q17.45 7.35 17.05 7.6Q15.65 8.4 15.4 9.6Q14.85 11.3 15.9 12.1Q15.55 11.4 16.15 10.45Q16.7 9.5 17.8 8.75L18.75 8.25" />
<path style="fill:#5F6D77;fill-opacity:1" d="M18.55,2.05Q19.25 3.35 18.75 5.75Q18.1 5.75 17.2 6.1L16.6 6.35L16.8 6.15L17.1 4.6Q17.1 2.95 16.4 1.75L18.55 2.05M19.45,9.35L19.7 9.2L20.6 9.25L21.45 9.5Q22.85 10.8 22.55 12.3L22.4 12.9L21.6 11.6L20.45 10.6L19.85 10.75Q19.7 9.95 19.4 9.8L18.7 9.75L19.45 9.35M4.15,10.2L3.85 9.85L3.35 8.85L3.7 8.35Q2.6 6.1 2.6 4.35L2.65 3.35L3.15 3.05L3.45 2.9L3.8 2.75L4.35 2.75Q5.75 2.9 6.4 3.8L7.1 5.35Q6.75 5.45 6.35 5.8Q5.85 6.25 5.85 6.8Q5.85 7.85 6.6 8.5Q5.9 8.75 5.35 9.2L4.85 9.55L4.15 10.2M8.05,14L7.55 14.3Q6.2 13.4 6.2 12.9Q6.2 12.5 6.85 12.35L5.55 10.8L6.9 9.8Q8.1 9.15 9.75 9.3L10.9 9.5L11.2 11.4Q11.2 12.35 10.9 12.65L10.25 13.2Q9 13.4 8.05 14M17.95,7.2Q20.1 6.3 21.1 8.2L19.8 8L18.75 8.25Q18.4 7.85 18.05 7.85L17.45 7.95L17.05 7.6Q17.45 7.35 17.95 7.2" />
<path style="fill:#37414A;fill-opacity:1" d="M13.25,9.15Q12.7 8.6 11.35 8.2L8.1 8.1L6.6 8.5Q5.85 7.85 5.85 6.8Q5.85 6.25 6.35 5.8Q6.75 5.45 7.1 5.35L6.4 3.8Q5.75 2.9 4.35 2.75L3.8 2.75Q5.95 1.85 9.45 1.55L16.4 1.75Q17.1 2.95 17.1 4.6L16.8 6.15L16.6 6.35L16.35 6.5Q14.65 7.4 14.3 9.25L14.25 9.45L14.2 9.55L14.15 9.8L13.25 9.15M20.95,14.4Q19.65 15 19.1 14.8L18.1 14.35Q16.55 13.5 16.9 11.95Q17.2 10.7 18.7 9.75L19.4 9.8Q19.7 9.95 19.85 10.75L20.45 10.6L21.6 11.6L22.4 12.9Q22 13.95 20.95 14.4M12.85,10.15Q14.25 10.85 14.2 13.35L11.35 13.1L10.25 13.2L10.9 12.65Q11.2 12.35 11.2 11.4L10.9 9.5L12.85 10.15M17.8,8.75Q16.7 9.5 16.15 10.45Q15.55 11.4 15.9 12.1Q14.85 11.3 15.4 9.6Q15.65 8.4 17.05 7.6L17.45 7.95L18.05 7.85Q18.4 7.85 18.75 8.25L17.8 8.75" />
<path style="fill:#1F2C31;fill-opacity:1" d="M4.85,9.55L5.35 9.2Q5.9 8.75 6.6 8.5L8.1 8.1L11.35 8.2Q12.7 8.6 13.25 9.15L14.15 9.8Q15.6 11.25 15.15 13.3L15 13.9Q16.4 14.6 16.9 16.2Q17.55 18.2 16.6 20.4L15.7 22.05L14.35 23L11.8 23.55L8.2 23.05Q5.95 22.3 5.25 20.35Q4.7 18.85 4.95 16.75Q3 14.75 3 12.7Q1.25 10.95 0.45 8.55Q-0.35 6.15 0.25 4.6Q0.9 3.05 1.85 2.35Q2.75 1.65 4.85 1Q6.95 0.25 10.1 0.05L14.6 0.1L17.65 0.35L17.95 0.4L18.55 2.05L16.4 1.75L9.45 1.55Q5.95 1.85 3.8 2.75L3.45 2.9L3.15 3.05L2.65 3.35Q1.25 4.35 1.25 6.15Q1.2 8.4 3.25 11.35Q3.4 10.9 4.15 10.2L4.85 9.55M7.55,14.3L8.05 14Q9 13.4 10.25 13.2L11.35 13.1L14.2 13.35Q14.25 10.85 12.85 10.15L10.9 9.5L9.75 9.3Q8.1 9.15 6.9 9.8L5.55 10.8L4.9 11.55Q4.05 12.65 4.4 13.55Q4.75 14.4 5.4 15.05Q6 15.7 6.35 15.3L7.55 14.3M11.45,14.45Q5.7 14.85 6.35 19.35Q6.5 20.05 6.95 20.6Q7.45 21.2 8.45 21.55L10.95 22.15L12.4 22L14.05 21.55Q14.9 21.15 15.45 19.85Q16 18.55 16 17.1Q15.95 15.7 14.75 15.2L14.45 15.1Q12.85 14.45 11.45 14.45" />
<path style="fill:#929896;fill-opacity:1" d="M6.35,15.3Q6 15.7 5.4 15.05Q4.75 14.4 4.4 13.55Q4.05 12.65 4.9 11.55L5.55 10.8L6.85 12.35Q6.2 12.5 6.2 12.9Q6.2 13.4 7.55 14.3L6.35 15.3M2.6,4.35Q2.6 6.1 3.7 8.35L3.35 8.85L3.85 9.85L4.15 10.2Q3.4 10.9 3.25 11.35Q1.2 8.4 1.25 6.15Q1.25 4.35 2.65 3.35L2.6 4.35" />
<path style="fill:#55636D;fill-opacity:1" d="M14.45,15.1L14.45 15.35Q13.8 17.55 11.75 18.5Q10.2 19.25 8.7 19L8.15 19.95Q7.65 20.5 6.95 20.6Q6.5 20.05 6.35 19.35Q5.7 14.85 11.45 14.45Q12.85 14.45 14.45 15.1" />
<path style="fill:#303941;fill-opacity:1" d="M8.15,19.95L8.7 19Q10.2 19.25 11.75 18.5Q13.8 17.55 14.45 15.35L14.45 15.1L14.75 15.2Q15.95 15.7 16 17.1Q16 18.55 15.45 19.85Q14.9 21.15 14.05 21.55L12.4 22L10.95 22.15L8.45 21.55Q7.45 21.2 6.95 20.6Q7.65 20.5 8.15 19.95" />
</g>
</svg>
