<?xml version="1.0" encoding="utf-8"?>
<svg version="1.1" id="Layer_1"
xmlns="http://www.w3.org/2000/svg"
xmlns:xlink="http://www.w3.org/1999/xlink"
xmlns:author="http://www.sothink.com"
width="20px" height="17px"
xml:space="preserve">
<g id="32" transform="matrix(1, 0, 0, 1, 0, 0)">
<path style="fill:#7E1616;fill-opacity:1" d="M16.95,6.3L17.5 7Q18.2 7.6 19.05 7.6L19.15 7.6L18.85 7.85L18 8.2Q16.85 8.2 16.9 6.7L16.95 6.3M11.95,2Q12.3 2 12.7 1.55L13.05 1.2L13 1.65Q12.8 2.55 12.3 2.35L11.3 2L11 1.65L11.95 2M6.95,7.7L8.35 7.4L10.3 7.1Q11.5 7.1 13.2 8.3L13.7 8.7Q14.3 10 14.15 10.75L13.95 11.3L13.45 11.3L12.4 10.55Q11.45 9.75 10.8 9.65L9 9.7L7.6 9.95L6.6 9.8Q6.1 9.7 5.65 9.4L5.5 9.35Q3.65 8.2 4 6.15L4.3 5.1Q4.3 7.7 6.95 7.7M0.2,1.95L0.4 2.15Q1.3 3.1 2.3 3.1L3.7 2.65L3.6 3.2Q3.35 4.15 2.3 4.15Q0 3.65 0 2.9L0.2 1.95M9.3,14.55Q9.3 16.25 11.7 16Q11.35 16.65 10.5 16.7L9.2 16.5Q8.7 16.2 8.7 15.2Q8.7 14.7 8.85 14.3Q9 13.9 9.5 13.65L9.3 14.55" />
<path style="fill:#A62929;fill-opacity:1" d="M18.85,5.95L18.8 5.9L18.7 5.85L18.6 5.75L18.4 5.7L18.2 5.75L18.1 5.85L18 5.9L17.9 6.2L18 6.5L18.2 6.65L18.4 6.65L18.7 6.55L18.8 6.5L18.85 6.35L18.9 6.15L18.85 5.95M19.05,7.6Q18.2 7.6 17.5 7L16.95 6.3Q17 5.15 17.75 5.1Q18.55 5 19.1 5.4Q19.6 5.8 19.6 6.35L19.45 7.2L19.15 7.6L19.05 7.6M13.05,1.2L12.7 1.55Q12.3 2 11.95 2L11 1.65L10.8 0.9Q10.65 0 11.45 0Q12.15 -0.05 12.7 0.4Q13.05 0.65 13.05 1.2M13.7,8.7L13.2 8.3Q11.5 7.1 10.3 7.1L8.35 7.4L6.95 7.7Q4.3 7.7 4.3 5.1Q4.7 4.05 5.5 3.65L8.4 3.45Q10.9 3.9 12.8 7.05L13.7 8.7M6.9,4.4L6.7 4.5Q6.15 4.8 6.45 5.35Q6.9 6.4 8 5.8L8.05 5.65Q8.25 5.05 7.85 4.7L6.9 4.4M2.3,3.1Q1.3 3.1 0.4 2.15L0.2 1.95Q0.55 1.2 1.55 0.55L1.8 0.45L2.6 0.5L3.4 1.45L3.7 2.65L2.3 3.1M2.55,1.2L2.3 1.05L2.1 1.05L1.95 1.1L1.8 1.2L1.75 1.3L1.75 1.35L1.75 1.5Q2 1.9 2.45 1.7L2.7 1.4L2.55 1.2M10,14.4L10.1 14.7L10.3 14.85L10.5 14.85L10.8 14.75L10.9 14.7L10.95 14.55L11 14.35L10.95 14.15L10.9 14.1L10.8 14.05L10.7 13.95L10.5 13.9L10.3 13.95L10.2 14.05L10.1 14.1L10 14.4M11.7,16Q9.3 16.25 9.3 14.55L9.5 13.65L9.6 13.6L11.35 13.65L11.9 14.45L11.75 15.75L11.7 16" />
<path style="fill:#E55A5A;fill-opacity:1" d="M18.9,6.15L18.85 6.35L18.8 6.5L18.7 6.55L18.4 6.65L18.2 6.65L18 6.5L17.9 6.2L18 5.9L18.1 5.85L18.2 5.75L18.4 5.7L18.6 5.75L18.7 5.85L18.8 5.9L18.85 5.95L18.9 6.15M7.85,4.7Q8.25 5.05 8.05 5.65L8 5.8Q6.9 6.4 6.45 5.35Q6.15 4.8 6.7 4.5L6.9 4.4L7.85 4.7M2.7,1.4L2.45 1.7Q2 1.9 1.75 1.5L1.75 1.35L1.75 1.3L1.8 1.2L1.95 1.1L2.1 1.05L2.3 1.05L2.55 1.2L2.7 1.4M10.1,14.1L10.2 14.05L10.3 13.95L10.5 13.9L10.7 13.95L10.8 14.05L10.9 14.1L10.95 14.15L11 14.35L10.95 14.55L10.9 14.7L10.8 14.75L10.5 14.85L10.3 14.85L10.1 14.7L10 14.4L10.1 14.1" />
</g>
</svg>
