<?xml version="1.0" encoding="utf-8"?>
<svg version="1.1" id="Layer_1"
xmlns="http://www.w3.org/2000/svg"
xmlns:xlink="http://www.w3.org/1999/xlink"
xmlns:author="http://www.sothink.com"
width="44px" height="33px"
xml:space="preserve">
<g id="525" transform="matrix(1, 0, 0, 1, 0, 0)">
<path style="fill:#D4DBDE;fill-opacity:1" d="M35.8,22.05L36 22.45Q37.4 21.8 38.85 21.65L38.65 21.15L38.1 20.5L38.15 20.5L38.45 20.5L39.75 20.5L41.55 22.05L42.05 22.55L40.55 22.5L38.75 22.6L36.25 23.05L35.65 23.2L34.5 23.6L33.7 24L34.5 23.35L34.35 22.85L34 21.6L34.25 21.45L35.35 21.1L35.8 22.05M39.1,30.05L37.5 29.85L35.55 29.85L32.8 30.15L32.15 30.3L30.9 30.7L30 31.05L30.85 30.45L30.8 29.85L30.5 28.45L30.8 28.35L32 28.05L32.45 29.1L32.6 29.5Q34.1 28.85 35.7 28.85L35.55 28.3L35.05 27.6L35.4 27.6L36.8 27.7L38.65 29.5L39.1 30.05" />
<path style="fill:#333638;fill-opacity:1" d="M43.6,23.25L39.75 23.4L36.9 23.8L35.6 24.15L34.7 24.45Q34.35 24.55 34.05 24.75L33.5 24.55L32.95 24.4L33.7 24L34.5 23.6L35.65 23.2L36.25 23.05L38.75 22.6L40.55 22.5L42.05 22.55L41.55 22.05L43.25 22.8L43.6 23.25M27.9,23.1L27.8 23.05L28.25 22.8Q28.4 22.65 28.55 22.6L28.65 22.55L30.1 23.5L30.7 23.95L30.6 23.95L30.35 23.9L30 23.85L29.4 23.75L29.55 24.1L27.9 23.1M28,32.1L28.1 31.95L30 31.05L30.9 30.7L32.15 30.3L32.8 30.15L35.55 29.85L37.5 29.85L39.1 30.05L38.65 29.5L40.45 30.4L40.75 30.9L36.6 30.8L33.5 31.1L32.05 31.35L31.05 31.6Q29.85 31.95 28.8 32.65L27.9 32.8L27.7 32.75L27.55 32.75Q26.85 32.45 26.1 31.55Q25.35 30.65 23.8 29.7L22.85 29.15L22.1 28.8L22.45 28.4L22.5 28L23.65 28.5L23.75 28.55L24.7 29.1Q25.55 29.65 26.2 30.3L27.85 31.95L28 32.1" />
<path style="fill:#4A4D4F;fill-opacity:1" d="M39.75,20.5L39.3 20.15Q37.35 18.65 34 18.35L33.95 18.35L33.8 19.05L33.35 19.7Q32.65 20.5 31.6 20.55Q30.85 20.6 30.25 20.25L30.55 19.2Q30.95 19.55 31.55 19.5Q32.15 19.5 32.55 19Q32.95 18.55 32.95 17.95L32.75 17.3L33.3 17.35L33.6 17.4L33.85 17.35L36.55 17.8Q37.95 18.15 39.5 19.2L41.95 21.15L43.25 22.8L41.55 22.05L39.75 20.5M32.95,24.4L33.5 24.55L34.05 24.75L36.6 26.25L39.1 28.5L40.45 30.4L38.65 29.5L36.8 27.7L36.3 27.25Q34.9 26.1 32.8 25.45L30.7 25L30.65 24.95L30.65 25.2L30.45 25.7L29.9 26.4Q29.1 27.2 27.95 27.2Q26.9 27.2 26.05 26.4L25.6 25.8L25.3 25.15L23 25.75L22.75 25.9L22.4 26.1L22.25 25.85L22 25.35L21.95 25.3L24 24.5L24.95 24.2L25.3 24.1L25.45 24.05L26.45 23.9L26.4 24.2L26.4 24.3L26.4 24.45Q26.4 25.1 26.9 25.6Q27.3 26.05 27.95 26.05Q28.6 26.05 29.1 25.6Q29.55 25.1 29.55 24.45L29.55 24.1L29.4 23.75L30 23.85L30.35 23.9L30.6 23.95L30.7 23.95L31.9 24.15L32.95 24.4" />
<path style="fill:#A695C9;fill-opacity:1" d="M28.45,13.2L28.4 13.15L29.05 12.7Q29.8 11.95 32.6 9.95L32.1 10.65L30 12.2L28.55 13.25L28.45 13.2M21.6,12.35L21.6 11.65L21.6 11.4L22 11.4L22.05 11.4L23.05 11.55L23.15 11.55L24.2 11.85L24.35 11.9L24.4 11.9L25.2 12.25Q25.9 12.55 26.5 13L27.15 13.5Q27.45 14.8 28.4 15.45L29.05 15.85L29.3 16.5L29.55 17.7L29.55 18.7L29.4 19.55L29.2 20.15L29.1 20.3L29 20.6L28.4 21.35L28.4 21.3L28.4 20.6L28.4 20.05L28.5 19.95L28.65 19.6L28.7 18.9L28.65 18.7L28.65 18.65L28.45 18L28.05 17.3L27.8 17.1L27.75 17.15L27 15.75Q25.8 13.9 23.65 13.2L23.35 13.1L23.2 13L22.2 12.5L21.6 12.35M19.7,11.1L19.9 10.55L20.1 10.2L20.6 9.05L21.1 7.95L21.15 8.65L21.1 8.65L20.9 9L20.25 10.2L19.9 11.15L19.8 11.35L19.6 12L19.7 11.1M27.15,15.2Q27.15 15.45 27.45 15.55Q27.95 15.65 27.95 15.25L27.75 14.95L27.4 14.95L27.15 15.15L27.15 15.2M18.65,11.95L17.9 11.4Q17.5 10.9 16.9 10.8L16.7 10.85L16.65 10.9Q15.55 10.1 14.3 9.75L15.05 9.35L15.2 9.45L16.15 9.8L17.1 10.2L18.4 10.7L19.1 10.95L18.95 11.2L18.65 11.95M18.2,13.45Q18.4 13.3 18.1 13.25L17.9 13.3L18 13.2L18.3 13.2L18.55 13.4L18.6 13.55L18.55 13.65L18.55 13.7L18.2 13.45M18.95,15.85L18.95 15.9Q19.2 16.1 18.95 16.25L18.65 16.45L18.8 16.15L18.95 15.85M11.4,7.45L11.45 7.75L11.5 8.15L11.5 8.35L11.45 8.2L11.2 7.4L11.15 7.1L11.1 4.8L11.1 4.45L11.1 4.4L11.15 4.5L11.35 5L11.4 5Q11.2 6 11.4 7.45M6.25,12.9L6.15 12.85L5.7 12.4L5.3 11.95L5.05 11.5L4.5 10.5L4 9.7L4.45 10L4.5 10.05L4.65 10.4L5.2 11.4L5.85 12.3L5.95 12.45L6.15 12.75L6.25 12.9" />
<path style="fill:#373254;fill-opacity:1" d="M30.15,20.55L30.1 20.6L29.65 21.5L29.6 21.6L29.05 21.6L28.4 21.4L28.4 21.35L29 20.6L29.1 20.3L29.2 20.15L29.4 19.55L29.55 18.7L29.55 17.7L29.3 16.5L29.05 15.85L28.4 15.45Q27.45 14.8 27.15 13.5L26.5 13Q25.9 12.55 25.2 12.25L24.4 11.9L24.35 11.9L24.2 11.85L23.15 11.55L23.05 11.55L22.05 11.4L22 11.4L21.6 11.4L21.6 11.1L21.6 11.05L21.65 10.4L22.2 10.45L22.65 10.5L22.7 10.5L23.35 10.6L23.45 10.6L23.6 10.65L24.1 10.75L24.45 10.85L25.5 11.2Q26.6 11.6 27.1 12Q27.55 12.35 28.15 11.85L31.3 9.7L34.85 7.5L33.55 9.95L31 14.35L30.05 15.55Q30.65 16.95 30.6 18.65L30.55 19.2L30.25 20.25L30.15 20.55M32.6,9.95Q29.8 11.95 29.05 12.7L28.4 13.15L28.45 13.2Q28.5 13.9 28.85 14.3Q29.15 14.6 29.65 14.7L29.8 14.4L31.5 11.55L31.65 11.3L32.1 10.65L32.6 9.95M8.85,9.05Q9.55 8.7 10.15 8.5L10.65 8.35L10.7 8.65L11.25 9.2L11.35 9.25L10.8 9.4L10.4 9.55Q9.9 9.7 9.4 10L9.2 10.1L8.55 10.5L7.2 11.3L6.7 10.9L6.3 10.65L7.25 9.95L7.9 9.55L8.85 9.05M16.2,8.6L16.3 8.65L17.15 9.05L18.9 9.85L19.5 10.05L19.1 10.95L18.4 10.7L17.1 10.2L16.15 9.8L15.2 9.45L15.05 9.35L14.8 9.3L14.15 9.1L13 8.95L13.5 8.4L13.45 8.15L13.4 8.05L14.15 8.05L15.15 8.25L16.2 8.6M4.15,12.25L4.3 12.15L4.6 11.9L5.2 12.85L5.15 12.85L4.65 13.35L4.15 12.25" />
<path style="fill:#866CB6;fill-opacity:1" d="M28.85,14.3Q28.5 13.9 28.45 13.2L28.55 13.25L30 12.2L32.1 10.65L31.65 11.3L31.5 11.55L30 13.3Q29.75 13.3 28.85 14.3M28.2,21.6L27.65 22L26.6 22.45L26.4 22.5L25.85 22.15L24.85 21.5L24.4 21.25L23.85 20.9L23 20.3L22 19.65L21.5 19.4Q20.8 19.05 19.95 18.8L19.65 18.7L19.25 18.6L17.8 18.3L16.95 18.25L17.25 17.95L18.65 16.45L18.95 16.25Q19.2 16.1 18.95 15.9L18.95 15.85L19 15.6L19 15.55L19.05 14.9L18.9 14.35L18.55 13.7L18.55 13.65L18.6 13.55L18.55 13.4L18.3 13.2L18 13.2L17.9 13.3Q16.8 13.55 15.75 14.15L15.75 14.1L15.6 14Q15.25 14 15.35 14.3L15.4 14.4L14.6 14.9L12.35 16.65L11.35 17.85L11.15 17.85L10.95 17.75L10.15 17.1L10.15 16.95L9.45 16.65L8.75 16.25L8.4 16.45L7.8 16.4L7.55 16.35L7.55 16.15L7.5 15.95L7.8 15.55L7.85 15.55Q7 14.75 6.5 13.75L6.9 13.7Q7.55 13.5 7.75 13Q8.15 12.2 8 11.95L7.85 11.8L7.2 11.3L8.55 10.5L9.2 10.1L9.4 10Q9.9 9.7 10.4 9.55L11.45 9.45Q11.25 9.85 11.2 10.45Q11.15 11.35 11.55 12.3L12.1 13.35L12.6 12.1Q13.05 10.7 13.8 10.1L14.3 9.75Q15.55 10.1 16.65 10.9L16.7 10.85L16.9 10.8Q17.5 10.9 17.9 11.4L18.65 11.95Q18.65 12.25 18.95 12.6L19.15 12.85L19.25 13.05L19.55 13.25L20.4 13.3L21.5 12.85L21.55 12.6L21.6 12.35L22.2 12.5L23.2 13L23.35 13.1L23.65 13.2Q25.8 13.9 27 15.75L27.75 17.15L27.8 17.1L28.05 17.3L28.45 18L28.65 18.65L28.65 18.7L28.7 18.9L28.65 19.6L28.5 19.95L28.4 20.05L28.4 20.6L28.4 21.3L28.4 21.35L28.4 21.4L28.2 21.6M21.05,9.15Q20.65 9.3 21 9.4L20.75 10.9L20.7 11.3L20.6 11.75L20.45 12.1L20.05 12.25L19.85 12.25L19.65 12.25L19.65 12.15L19.6 12L19.8 11.35L19.9 11.15L20.25 10.2L20.9 9L21.1 8.65L21.05 9.15M27.15,15.15L27.4 14.95L27.75 14.95L27.95 15.25Q27.95 15.65 27.45 15.55Q27.15 15.45 27.15 15.2L27.15 15.15M23.65,14.75L23.3 14.7L23.2 15.95Q23.2 16.85 23.8 18.2Q24.05 18.75 24.65 19.1L26.15 19.4L26.75 19.35L26.8 19.05L26.85 18.7L26.85 18.65Q26.95 18.05 26.65 17.25Q25.75 15.05 23.85 14.75L23.65 14.75M27.65,18.75Q27.25 18.95 27.6 19.05Q28 19.2 27.75 18.85L27.65 18.75M27.35,20.6L27.2 20.4L26.95 20.4L26.75 20.6L26.75 20.7L26.95 20.95L27.15 20.95L27.35 20.6M11.65,8.55L11.5 8.35L11.5 8.15L11.45 7.75L11.4 7.45Q11.2 6 11.4 5L12 7L12.2 7.45L12.35 8.05L12.3 8.15L11.65 8.55M16.55,12Q16.65 12.25 16.95 12.1L17 12L17 11.9L16.85 11.75L16.7 11.65Q16.4 11.75 16.55 12M6.15,12.75L5.95 12.45L5.85 12.3L5.2 11.4L4.65 10.4L4.5 10.05L5.95 11.5L6.35 11.85L6.8 12.35L6.5 13L6.25 12.9L6.15 12.75M8.25,11.75L8.25 11.9L8.55 12Q8.95 11.9 8.95 11.55L8.85 11.4L8.5 11.45L8.25 11.75M9.9,15.4L10.2 15.65L10.4 15.8L10.5 15.8Q10.8 15.75 10.7 15.5L11.45 15.2L11.6 15.55L11.8 15.65Q12.1 15.45 12 15.05L13.15 14.6L13 14.6L11.8 14.7L11.45 13.9L11.35 13.85Q10.95 14.15 11.2 14.7L11.25 14.8L10.55 15L10.55 14.85L10.5 14.75L10.45 14.7L10.4 14.65L10.3 14.6Q10 14.8 10.05 15.15Q9.9 15.2 9.9 15.4" />
<path style="fill:#662616;fill-opacity:1" d="M10.6,7.2L10.6 8L10.65 8.35L10.15 8.5L9.25 6.85L8.85 6Q7.65 3.55 7.05 2.85L7.05 3.05Q7.35 5.4 8.2 7.6L8.55 8.35L8.85 8.95L8.85 9.05L7.9 9.55L7.55 8.8L7.25 8.25L7 7.6Q6.45 5.95 6.45 5.05L6.35 5.2L6.25 5.3L4.65 7.55L3.35 8.7L3 8.55L3.05 8.95L1.7 9.95L2.05 10.1L2.7 10.35L3.65 10.75L4 10.9L4.6 11.9L4.3 12.15L4.1 12Q3.35 11.5 2.5 11.25L0.8 10.6L0.6 10.55L0 10.1L1.1 9.2L3.7 7.1Q5.2 5.65 5.6 4.4Q6.05 3.1 5.95 2.15Q5.9 1.2 6.6 1.45L8.3 1.9L11.15 2.05Q13 1.9 14 1.1Q15.05 0.3 15.45 0.05Q15.9 -0.2 17 1Q18.1 2.2 19.5 3L21.9 4L24.25 4.25L27 3.8Q28.45 3.4 27.65 4.75L27 5.9Q26.15 7.5 25.75 9.65L25.5 11.2L24.45 10.85L24.8 8.95L25.35 7.05L25.45 6.75L26.05 5.6Q24.05 7.2 23.5 10.1L23.5 10.25L23.5 10.55L23.45 10.6L23.35 10.6L22.7 10.5L22.65 10.5L22.2 10.45L22.2 10.3Q22.55 8.9 23.3 7.55L24.7 5.85Q25.15 5.45 25.65 5.2L24.6 5.3Q22.25 5.35 20.7 4.7Q18.75 3.95 17.9 3.35L16.95 2.4L17 3.35L17.15 7.65L17.15 7.85L17.15 9.05L16.3 8.65L16.2 8.6L16.2 7.5L16.25 6L16.25 5.9L16.1 2.85L16.05 2.7L15.9 2L15.85 1.8L15.8 1.9Q15.35 3.7 15.2 6.55L15.15 7.5L15.15 8.25L14.15 8.05L14.15 7.85L14.15 7.55Q14.25 4.75 14.6 2.9L14.7 2.45L15 1.5Q13.45 3.05 10.95 3.15L10.8 2.9L10.65 3.15L8 2.8L8.05 2.85L8.85 4.15L9.6 5.55L9.95 6.1L10 6.2L10.6 7.2" />
<path style="fill:#BB482E;fill-opacity:1" d="M24.45,10.85L24.1 10.75L23.6 10.65L23.45 10.6L23.5 10.55L23.5 10.25L23.65 10.25L24.35 9.7Q24.45 8.3 24.8 7.8L25.45 6.75L25.35 7.05L24.8 8.95L24.45 10.85M25.65,5.2Q25.15 5.45 24.7 5.85Q23.6 6.55 22.55 7.75L21.75 8.55L21.75 8.1L21.55 6.35Q21.3 6.35 20.45 7.9L20.05 8.85L19.6 8.75L19.6 8.55L19.5 8.3L19.4 8.3L19.15 8.35Q18.95 8.4 18.9 8.6L18.45 8.45L17.15 7.85L17.15 7.65L17 3.35L18.7 4.4L20.25 5.25L20.25 5.35L20.35 5.55L21.05 5.5L21.1 5.35L22.5 5.35L24.6 5.3L25.65 5.2M21.95,6.35L21.85 6.3Q21.45 6.45 21.8 6.55Q22.2 6.7 21.95 6.35M20.45,7.15L20.35 7.05Q19.9 7.15 20.25 7.3Q20.7 7.55 20.45 7.15M19.4,6L19.3 6L19.05 6.05L18.85 6.15L18.8 6.2L18.75 6.25L18.75 6.45L18.75 6.7L18.8 6.8L19.3 6.9L19.65 6.7L19.7 6.65L19.7 6.6L19.7 6.5L19.7 6.35L19.7 6.25L19.6 6.2L19.6 6.1L19.55 6.05L19.5 6.05L19.4 6M14.15,3.9L13.4 6.05L13.35 6.3L13.35 6.2L13.15 6L13 6L12.85 6.05L12.75 6.35L12.75 6.45L12.2 5.4L12.25 5.3L12.1 5.05L12 5L11.9 4.8L11.7 4.35L11.35 3.75L11.45 3.75L11.45 3.85L12.25 4.05L12.5 3.75L12.5 3.65L12.45 3.6Q14.05 3.35 14.7 2.45L14.6 2.9L14.15 3.9M9.2,3.4L10.55 3.75L10.5 4.45L10.45 4.65L10.45 4.7L10.5 4.85L10.6 6.9L10 6.2L9.95 6.1L9.6 5.55L8.85 4.15L8.05 2.85L9.2 3.4M8.85,9.05L8.85 8.95L8.55 8.35L9.2 8.25Q8.45 6.75 8.15 5.65L7.5 4.05L7.05 3.05L7.05 2.85Q7.65 3.55 8.85 6L9.25 6.85L10.15 8.5Q9.55 8.7 8.85 9.05M4.9,9.6L4.55 9.4L4.65 8.95L4.5 8.8L4.15 8.85L4.95 8.05Q5.8 7.05 6.25 5.3L6.35 5.2L6.3 5.7Q6.3 6.3 6.6 7.3L6.9 8.35L6.65 8.95L6.5 8.8Q6.1 8.75 5.95 9.05L5.75 9.6L5.75 9.75L5.65 9.8L5.7 9.85L5.75 9.95L5.85 9.95L5.85 10.1L5.85 10.25L5.85 10.3L4.9 9.6M3.65,10.75L2.7 10.35L2.05 10.1L3.25 9.5L3.55 10.2L3.85 10.7L3.65 10.75M4.95,8.65L5.2 8.9L5.6 8.55L5.45 8.35L5.2 8.35L4.95 8.55L4.95 8.65" />
<path style="fill:#EE7557;fill-opacity:1" d="M16.95,2.4L17.9 3.35Q18.75 3.95 20.7 4.7Q22.25 5.35 24.6 5.3L22.5 5.35L21.1 5.35L21.05 5.5L20.35 5.55L20.25 5.35L20.25 5.25L18.7 4.4L17 3.35L16.95 2.4M25.45,6.75L24.8 7.8Q24.45 8.3 24.35 9.7L23.65 10.25L23.5 10.25L23.5 10.1Q24.05 7.2 26.05 5.6L25.45 6.75M15.85,7.7L15.45 7.6L15.15 7.5L15.2 6.55Q15.35 3.7 15.8 1.9L15.85 1.8L15.9 2L16.05 2.7L15.85 7.7M19.5,6.05L19.55 6.05L19.6 6.1L19.6 6.2L19.7 6.25L19.7 6.35L19.7 6.5L19.7 6.6L19.7 6.65L19.65 6.7L19.3 6.9L18.8 6.8L18.75 6.7L18.75 6.45L18.75 6.25L18.8 6.2L18.85 6.15L19.05 6.05L19.3 6L19.4 6L19.5 6.05M10.95,3.15Q13.45 3.05 15 1.5L14.7 2.45Q14.05 3.35 12.45 3.6L12.5 3.65L12.5 3.75L12.25 4.05L11.45 3.85L11.45 3.75L11.35 3.75L10.95 3.15M8.05,2.85L8 2.8L10.65 3.15L10.55 3.75L9.2 3.4L8.05 2.85M8.2,7.6Q7.35 5.4 7.05 3.05L7.5 4.05L8.15 5.65Q8.45 6.75 9.2 8.25L8.55 8.35L8.2 7.6M4.45,9.3L3.35 8.7L4.65 7.55L6.25 5.3Q5.8 7.05 4.95 8.05L4.15 8.85L4.5 8.8L4.65 8.95L4.55 9.4L4.45 9.3M2.05,10.1L1.7 9.95L3.05 8.95L3.25 9.5L2.05 10.1M4.95,8.55L5.2 8.35L5.45 8.35L5.6 8.55L5.2 8.9L4.95 8.65L4.95 8.55" />
<path style="fill:#8C3C19;fill-opacity:1" d="M21.8,6.55Q21.45 6.45 21.85 6.3L21.95 6.35Q22.2 6.7 21.8 6.55M13.4,8.05L12.9 6.8L12.75 6.45L12.75 6.35L12.85 6.05L13 6L13.15 6L13.35 6.2L13.35 6.3L13.4 6.05L14.15 3.9L14.6 2.9Q14.25 4.75 14.15 7.55L14.15 7.85L14.15 8.05L13.4 8.05M10.5,4.45L10.5 4.65L10.5 4.85L10.45 4.7L10.45 4.65L10.5 4.45M10,6.2L10.6 6.9L10.6 7.2L10 6.2" />
<path style="fill:#B1552E;fill-opacity:1" d="M20.25,7.3Q19.9 7.15 20.35 7.05L20.45 7.15Q20.7 7.55 20.25 7.3M12,5L12.1 5.05L12.25 5.3L12.2 5.4L12 5" />
<path style="fill:#5F539C;fill-opacity:1" d="M30,13.3L31.5 11.55L29.8 14.4L29.65 14.7Q29.15 14.6 28.85 14.3Q29.75 13.3 30 13.3M19.65,12.25L19.85 12.25L20.05 12.25L20.45 12.1L20.6 11.75L20.7 11.3L20.75 10.9L21 9.4Q20.65 9.3 21.05 9.15L21.1 8.65L21.1 8.8L21.1 9.2L21.1 9.45L21 10.15L21 10.35L20.95 11.3L20.95 11.5L20.9 12.1L20.9 12.2L20.9 12.4L20.35 12.6L19.7 12.35L19.65 12.25M8.95,18.2L8.9 18.05Q8.6 18.2 8.45 18.35L8.35 18.7Q5.8 16.9 5 16.6Q4 16.2 3.55 15.75Q3.1 15.2 3.45 14.75L4.5 13.5L4.65 13.35L5.15 12.85L5.2 12.85L5.3 13L5.7 13.55L6.45 13.75L6.5 13.75Q7 14.75 7.85 15.55L7.8 15.55L7.5 15.95L7.55 16.15L7.55 16.35L7.8 16.4L8.4 16.45L8.75 16.25L9.45 16.65L10.15 16.95L10.15 17.1L10.95 17.75L11.15 17.85Q9.7 17.6 8.95 18.2M15.4,14.4L15.35 14.3Q15.25 14 15.6 14L15.75 14.1L15.75 14.15L15.4 14.4M27.15,20.95L26.95 20.95L26.75 20.7L26.75 20.6L26.95 20.4L27.2 20.4L27.35 20.6L27.15 20.95M12.3,8.15L12.35 8.05L12.2 7.45L12 7L11.4 5L11.95 6.35L12.35 7.4L12.7 8.05L12.75 8.2Q12.4 8.8 11.8 8.6L11.65 8.55L12.3 8.15M16.7,11.65L16.85 11.75L17 11.9L17 12L16.95 12.1Q16.65 12.25 16.55 12Q16.4 11.75 16.7 11.65M6.8,12.35L6.35 11.85L5.95 11.5L4.5 10.05L4.85 10.3L5 10.4L5.3 10.6L5.65 10.9L5.75 11L6.6 11.7L7.25 12.2Q7.25 12.85 6.6 12.95L6.5 13L6.8 12.35M8.5,11.45L8.85 11.4L8.95 11.55Q8.95 11.9 8.55 12L8.25 11.9L8.25 11.75L8.5 11.45M10.05,15.15Q10 14.8 10.3 14.6L10.4 14.65L10.45 14.7L10.5 14.75L10.55 14.85L10.55 15L11.25 14.8L11.2 14.7Q10.95 14.15 11.35 13.85L11.45 13.9L11.8 14.7L13 14.6L13.15 14.6L12 15.05Q12.1 15.45 11.8 15.65L11.6 15.55L11.45 15.2L10.7 15.5Q10.8 15.75 10.5 15.8L10.4 15.8L10.2 15.65L9.9 15.4Q9.9 15.2 10.05 15.15M5.65,14.45L5.65 14.35L5.6 14.2L5.4 14.1L5.3 14L5.05 14L4.7 14.15L4.5 14.7L4.6 14.9L5.05 14.95L5.6 14.55L5.65 14.5L5.65 14.45" />
<path style="fill:#302B4A;fill-opacity:1" d="M20.05,8.85L20.45 7.9Q21.3 6.35 21.55 6.35L21.75 8.1L21.75 8.55L21.75 8.65L21.65 10.4L21.6 11.05L21.6 11.1L21.6 11.4L21.6 11.65L21.6 12.35L21.55 12.6L21.5 12.85L20.4 13.3L19.55 13.25L19.25 13.05L19.15 12.85L18.95 12.6Q18.65 12.25 18.65 11.95L18.95 11.2L19.1 10.95L19.5 10.05L20.05 8.85M19.7,12.35L20.35 12.6L20.9 12.4L20.9 12.2L20.9 12.1L20.95 11.5L20.95 11.3L21 10.35L21 10.15L21.1 9.45L21.1 9.2L21.1 8.8L21.1 8.65L21.15 8.65L21.1 7.95L20.6 9.05L20.1 10.2L19.9 10.55L19.7 11.1L19.6 12L19.65 12.15L19.65 12.25L19.7 12.35M6.7,10.9L7.2 11.3L7.85 11.8L8 11.95Q8.15 12.2 7.75 13Q7.55 13.5 6.9 13.7L6.5 13.75L6.45 13.75L5.7 13.55L5.3 13L5.2 12.85L4.6 11.9L4 10.9L3.85 10.7L3.55 10.2L3.25 9.5L3.05 8.95L3 8.55L3.35 8.7L4.45 9.3L4.55 9.4L4.9 9.6L5.85 10.3L6.3 10.65L6.7 10.9M13.25,31.25L13.9 31.3L13.95 31.3L14.25 31.3L14.3 31.3L14.35 31.3L15.7 31.15L17.55 30.55L16.55 29.45Q15.55 29.35 15 28.85L14.55 28.25L14.45 28.2Q12.95 27.45 11.75 27.05L10.5 26.8L10.4 26.8L9.45 26.6L9.35 26.55L9.25 26.45L9.45 26.2L11.85 24.7L13.05 23.9L12.75 23.6L11.15 21.4L10.6 20.55L10.4 20.15L10.4 19.3L10.45 19.15L10.5 19.1Q10.65 18.6 11.2 18L11.35 17.85L12.35 16.65L14.6 14.9L15.4 14.4L15.75 14.15Q16.8 13.55 17.9 13.3L18.1 13.25Q18.4 13.3 18.2 13.45L17.95 13.7L17.9 13.7Q17.45 13.95 16.8 14.35L16.25 14.65L13.6 16.6L12.3 17.95L12.15 18.1L11.95 18.35L11.55 19.05L11.35 19.45Q11.4 20.45 12.2 21.6L13.45 23.15L13.65 23.45L14 23.85L14.2 24.1L15 25.1L15.15 25.3L15.55 25.75L15 26.15Q14.85 26.5 15 27L15.35 28Q15.7 28.65 16.2 28.7L16.8 28.75L17.1 28.75L17.65 28.7L17.75 28.65L17.85 28.65L18.15 28.45L18.9 27.75L19.05 27.55L19.15 27.05L19.15 26.8L18.9 26.2L18.65 25.75Q18.2 25.25 17.4 25.2L17.3 25.05L17.15 24.65L17 24.3L16.85 23.9L16.75 23.65L16.4 22.75L15.75 21.65L15.25 20.85L15.2 20.7L14.7 19.95L14.1 19.25L14.05 19.25L14.35 19.1L14.65 18.95L15.55 18.4L17 17.2L17.95 16.4L18.45 15.85L18.85 15.15L18.9 14.85L19 14.9L19.05 14.9L19 15.55L19 15.6L18.95 15.85L18.8 16.15L18.65 16.45L17.25 17.95L16.95 18.25L15.75 19.2L15.3 19.4L16.05 20.45L16.85 21.8L17.35 22.9L17.45 23.3L17.55 23.75L17.55 23.8L17.7 24.25L18 24.55L18.95 24.85L19.4 25.15L19.75 25.8L19.8 26.05L19.95 26.75L19.9 27.5L19.9 27.55L19.55 28.45L19.4 28.55L19.15 28.8L18.45 29.3L18.4 29.3L17.65 29.5L18.6 30.5L18.65 30.55L18.7 30.9L18.5 31.3L17.8 31.65L17.45 31.8L16.15 32.05L14.35 32.25L12.1 32.1Q10.7 31.65 9.5 30.65L6.4 28.25L4.6 27.25L3.5 26.5Q3.15 26.05 3.15 25.35Q3.15 24.6 5.25 24.45L5.3 24.45L5.35 24.4L5.95 24.3L6.25 24.2L7.65 23.6Q9.1 22.8 9.45 21.65L9.35 20.9L9.25 20.45L8.65 19.35L8.35 18.7L8.45 18.35Q8.6 18.2 8.9 18.05L8.95 18.2L9.55 19.5L9.95 20.35L10.05 20.6L10.2 21.1Q10.45 22.55 8.95 23.55L7.25 24.55L6.9 24.7L6.75 24.75L5.55 25.1L5.5 25.15L5.45 25.15L4.85 25.25Q3.25 25.35 5.8 26.95L10.95 30.35Q11.95 31.1 13.25 31.25M23.75,16.45Q24.25 19.1 26.15 18.85L26.2 18.7Q26.3 17.4 25.45 16.4Q24.5 15.15 23.7 15.4L23.65 15.45Q23.55 15.8 23.75 16.45M23.85,14.75Q25.75 15.05 26.65 17.25Q26.95 18.05 26.85 18.65L26.85 18.7L26.8 19.05L26.75 19.35L26.15 19.4L24.65 19.1Q24.05 18.75 23.8 18.2Q23.2 16.85 23.2 15.95L23.3 14.7L23.65 14.75L23.85 14.75M12.2,5.4L12.75 6.45L12.9 6.8L13.4 8.05L13.45 8.15L13.5 8.4L13 8.95L12.75 9.15L11.7 9.3L11.55 9.3L11.35 9.25L11.25 9.2L10.7 8.65L10.65 8.35L10.6 8L10.6 7.2L10.6 6.9L10.5 4.85L10.5 4.65L10.5 4.45L10.55 3.75L10.65 3.15L10.8 2.9L10.95 3.15L11.35 3.75L11.7 4.35L11.9 4.8L12 5L12.2 5.4M11.65,8.55L11.8 8.6Q12.4 8.8 12.75 8.2L12.7 8.05L12.35 7.4L11.95 6.35L11.4 5L11.35 5L11.15 4.5L11.1 4.4L11.1 4.45L11.1 4.8L11.15 7.1L11.2 7.4L11.45 8.2L11.5 8.35L11.65 8.55M4.45,10L4 9.7L4.5 10.5L5.05 11.5L5.3 11.95L5.7 12.4L6.15 12.85L6.25 12.9L6.5 13L6.6 12.95Q7.25 12.85 7.25 12.2L6.6 11.7L5.75 11L5.65 10.9L5.3 10.6L5 10.4L4.85 10.3L4.5 10.05L4.45 10M13.6,24.5L12.95 24.9Q11.6 25.75 10.45 26.2L10.65 26.2L10.75 26.2L11.2 26.3L12.8 26.65L14.1 27.1L14.05 26.75L14.1 26.6L14.45 25.55L14.25 25.3L13.6 24.5" />
<path style="fill:#8C331D;fill-opacity:1" d="M22.2,10.45L21.65 10.4L21.75 8.65L21.75 8.55L22.55 7.75Q23.6 6.55 24.7 5.85L23.3 7.55Q22.55 8.9 22.2 10.3L22.2 10.45M19.5,10.05L18.9 9.85L17.15 9.05L17.15 7.85L18.45 8.45L18.9 8.6Q18.95 8.4 19.15 8.35L19.4 8.3L19.5 8.3L19.6 8.55L19.6 8.75L20.05 8.85L19.5 10.05M15.15,8.25L15.15 7.5L15.45 7.6L15.85 7.7L16.05 2.7L16.1 2.85L16.25 5.9L16.25 6L16.2 7.5L16.2 8.6L15.15 8.25M6.45,5.05Q6.45 5.95 7 7.6L7.25 8.25L7.55 8.8L7.9 9.55L7.25 9.95L6.3 10.65L5.85 10.3L5.85 10.25L5.85 10.1L5.85 9.95L5.75 9.95L5.7 9.85L5.65 9.8L5.75 9.75L5.75 9.6L5.95 9.05Q6.1 8.75 6.5 8.8L6.65 8.95L6.9 8.35L6.6 7.3Q6.3 6.3 6.3 5.7L6.35 5.2L6.45 5.05M3.65,10.75L3.85 10.7L4 10.9L3.65 10.75" />
<path style="fill:#A83D28;fill-opacity:1" d="M24.4,17.1Q23.8 16.25 23.65 15.45L23.7 15.4Q24.5 15.15 25.45 16.4Q26.3 17.4 26.2 18.7Q25.15 18.2 24.4 17.1" />
<path style="fill:#8C2C19;fill-opacity:1" d="M26.2,18.7L26.15 18.85Q24.25 19.1 23.75 16.45Q23.55 15.8 23.65 15.45Q23.8 16.25 24.4 17.1Q25.15 18.2 26.2 18.7" />
<path style="fill:#221E38;fill-opacity:1" d="M16.95,18.25L17.8 18.3L19.25 18.6L19.65 18.7L19.95 18.8Q20.8 19.05 21.5 19.4L22 19.65L23 20.3L23.85 20.9L24.4 21.25L24.85 21.5L25.85 22.15L26.4 22.5L26.6 22.45L27.65 22L28.2 21.6L28.4 21.4L29.05 21.6L29.6 21.6L29.2 22.1L28.65 22.55L28.55 22.6Q28.4 22.65 28.25 22.8L27.8 23.05L26.8 23.4L26.55 23.5Q25.85 23.25 25.2 22.85L25.25 22.85L25.15 22.75L24.85 22.6L24.7 22.5L24.25 22.2L24.2 22.2L23.85 21.95L22.5 21.15L21.9 20.8L21.85 20.8L21.5 20.6L21.35 20.55L21.15 20.45L20.75 20.3L20.5 20.15L20.2 20.05L20.2 20L19.6 19.8L19.4 19.75L19 19.65L18.75 19.55L17.9 19.35L17.25 19.3L15.75 19.2L16.95 18.25M20.55,25.05L20.45 25.15L19.9 25.15L19.45 25.15L19.75 24.9L20.95 24.05L21.75 24.05L20.55 25.05M17.6,23.75L18.15 23.85L17.7 24.25L17.55 23.8L17.6 23.75M9.25,20.45L9 20.3Q7.9 19.4 7.2 19L6.7 18.7L5.9 18.15L4.7 17.55L3.35 16.85L2.5 16.2Q2 15.35 2.7 14.1Q3.3 13.1 4.15 12.25L4.65 13.35L4.5 13.5L3.45 14.75Q3.1 15.2 3.55 15.75Q4 16.2 5 16.6Q5.8 16.9 8.35 18.7L8.65 19.35L9.25 20.45M23.8,29.7L22.5 29.9L21.7 30L20.1 30.1Q19.2 29.8 18.45 29.3L19.15 28.8L19.3 28.9Q20 29.4 20.9 29.45L21.6 29.4L22.85 29.15L23.8 29.7M14.05,26.55Q13.8 26.35 13.75 25.8Q13.75 25.5 14.25 25.3L14.45 25.55L14.1 26.6L14.05 26.55" />
<path style="fill:#97A2AC;fill-opacity:1" d="M21.8,20.8L21.2 21.3L20.95 21.65L20.85 21.85L20.45 21.4L20.8 21.15Q20.9 20.7 21.15 20.45L21.35 20.55L21.5 20.6L21.85 20.8L21.8 20.8M30.7,23.95L30.1 23.5L28.65 22.55L29.2 22.1L29.7 22.4L31.35 23.65L32.15 22.2L32.3 22.45L32.45 22.35Q32.1 23.15 31.9 24.15L30.7 23.95M28.6,29.25L28.75 29.15Q28.2 30.35 27.85 31.95L26.2 30.3Q25.55 29.65 24.7 29.1L23.75 28.55L23.65 28.5L22.5 28L22.55 27.65L22.55 27.55L22.85 27.6L23.85 28L23.9 28L25.8 29.05L27.45 30.5L28.45 29L28.6 29.25" />
<path style="fill:#3C3427;fill-opacity:1" d="M19.25,20.35Q19.35 20 19.6 19.8L20.2 20L20.2 20.05L20.25 20.5L20.25 20.75L20.35 21.25L20.4 21.35L20.45 21.4L20.85 21.85L20.95 21.65L21.2 21.3L21.8 20.8L21.85 20.8L21.9 20.8L22.5 21.15L22.35 21.35L21.9 21.75Q21.6 22 21.5 22.7L21.45 22.85L21.35 23L21.2 23L21.15 23L20.5 22.65L19.7 21.75L19.45 21.3L19.25 20.65L19.25 20.35M17.6,23.75L17.55 23.75L17.45 23.3L17.35 22.9L18 23L18.55 23.1L18.75 23.1L20.2 23.25L20.3 23.25L22 23.25L22.75 23.25L24 23.15L24.4 23.05L25.2 22.85Q25.85 23.25 26.55 23.5L24.15 23.95L22.9 24L21.75 24.05L20.95 24.05L20.3 24L18.35 23.85L18.15 23.85L17.6 23.75" />
<path style="fill:#E8EBEC;fill-opacity:1" d="M20.25,20.75L20.25 20.5L20.2 20.05L20.5 20.15L20.75 20.3L20.7 20.4L20.55 20.8L20.5 20.95L20.4 21.15L20.35 21.25L20.25 20.75" />
<path style="fill:#CCC6C4;fill-opacity:1" d="M21.15,20.45Q20.9 20.7 20.8 21.15L20.45 21.4L20.4 21.35L20.35 21.25L20.4 21.15L20.5 20.95L20.55 20.8L20.7 20.4L20.75 20.3L21.15 20.45" />
<path style="fill:#877861;fill-opacity:1" d="M16.85,21.8L17.9 22.25L18.5 22.4L18.7 22.45L19.8 22.6Q19.3 21.95 19.25 21.15L19.25 21L19.25 20.65L19.45 21.3L19.7 21.75L20.5 22.65L21.15 23L21.2 23L21.35 23L21.45 22.85L21.5 22.7Q21.6 22 21.9 21.75L22.35 21.35L22.5 21.15L23.85 21.95L24.2 22.2L24.25 22.2L24.7 22.5L24.85 22.6L25.15 22.75L25.25 22.85L25.2 22.85L24.4 23.05L24.2 22.95L23.8 22.75L23.7 22.7L22.4 21.95Q22 22.5 22 22.95L22 23.2L22 23.25L20.3 23.25L20.2 23.25L18.75 23.1L18.55 23.1L18 23L17.35 22.9L16.85 21.8M18.6,20.65Q18.75 20.65 18.8 20.8L18.85 20.95L18.85 21Q18.6 21.4 18.2 21.25L18.05 21.15L18.05 21.05L18.05 20.9L18.05 20.75L18.1 20.7L18.3 20.65L18.5 20.6L18.55 20.6L18.6 20.65" />
<path style="fill:#B3A38A;fill-opacity:1" d="M24,23.15L22.75 23.25L22 23.25L22 23.2L22 22.95Q22 22.5 22.4 21.95L23.7 22.7L23.8 22.75L24.2 22.95L24.4 23.05L24 23.15M16.05,20.45L15.3 19.4L15.75 19.2L17.25 19.3L17.9 19.35L18.75 19.55L19 19.65L19.4 19.75L19.6 19.8Q19.35 20 19.25 20.35L19.25 20.65L19.25 21L19.25 21.15Q19.3 21.95 19.8 22.6L18.7 22.45L18.5 22.4L17.9 22.25L16.85 21.8L16.05 20.45M18.55,20.6L18.5 20.6L18.3 20.65L18.1 20.7L18.05 20.75L18.05 20.9L18.05 21.05L18.05 21.15L18.2 21.25Q18.6 21.4 18.85 21L18.85 20.95L18.8 20.8Q18.75 20.65 18.6 20.65L18.55 20.6" />
<path style="fill:#524591;fill-opacity:1" d="M19.75,24.9L19.45 25.15L19.4 25.15L18.95 24.85L18 24.55L17.7 24.25L18.15 23.85L18.35 23.85L20.3 24L20.95 24.05L19.75 24.9M20.9,28.5L22.05 28.8L22.1 28.8L22.85 29.15L21.6 29.4L20.9 29.45Q20 29.4 19.3 28.9L19.15 28.8L19.4 28.55L19.55 28.45L20.9 28.5M10.95,30.35L5.8 26.95Q3.25 25.35 4.85 25.25L5.45 25.15L5.5 25.15L5.5 25.2L5.7 25.95L6.55 26.5L6.6 26.5L6.9 26.55L8.15 27.25L10 28.5L11.55 29.75L11.85 30.15L13.25 31.25Q11.95 31.1 10.95 30.35M13.05,23.9L11.85 24.7L9.45 26.2L9.25 26.45L8.55 26.45L8.45 26.45L8 26.35L7.05 26L7.1 26Q7.25 25.9 8.5 25.55L10 24.9Q11.4 24.05 11.55 24.05L11.6 24.05L12.7 23.6L12.75 23.6L13.05 23.9M13.75,19.6L13.5 19.2L13.5 19.15L13.75 18.8L13.9 18.65L14.2 18.35L16 17.1L18.15 15.65L18.85 15.15L18.45 15.85L17.95 16.4L17 17.2L15.55 18.4L14.65 18.95L14.35 19.1L14.05 19.25L14 19.25L13.65 19.35L13.75 19.6M18.15,28.45L17.85 28.65L17.75 28.65L17.65 28.7L17.1 28.75L16.8 28.75L16.2 28.7Q15.7 28.65 15.35 28L15 27Q14.85 26.5 15 26.15L15.55 25.75L15.15 25.3L15 25.1L14.2 24.1L14 23.85L13.65 23.45L13.45 23.15L12.2 21.6Q11.4 20.45 11.35 19.45L11.55 19.05L11.95 18.35L12.1 19.1L12.4 19.95L12.5 20.3L13.95 22.7L14.15 23L14.5 23.5L14.65 23.7L15.7 24.9L15.9 25.05L16.6 25.55L16.35 25.7L16.2 25.85L15.95 26.3L16 26.7Q16.15 27.3 16.7 27.8L16.8 27.9Q17.3 28.35 18.15 28.45" />
<path style="fill:#717575;fill-opacity:1" d="M37.8,20.35L38.1 20.5L36.15 20.9L35.35 21.1L34.25 21.45L34 21.6Q32.85 22.05 32.45 22.35L32.3 22.45L32.15 22.2Q31.65 21.4 30.75 20.9L30.15 20.55L30.25 20.25Q30.85 20.6 31.6 20.55Q32.65 20.5 33.35 19.7L33.8 19.05Q35.8 19.25 37.8 20.35M28.75,29.15L28.6 29.25L28.45 29L27.05 27.5Q25.95 26.65 24.25 26.2L25.6 25.8L26.05 26.4Q26.9 27.2 27.95 27.2Q29.1 27.2 29.9 26.4L30.45 25.7Q32.55 26.1 34.7 27.35L35.05 27.6L32.8 27.85L32 28.05L30.8 28.35L30.5 28.45Q29.2 28.85 28.75 29.15" />
<path style="fill:#787E7E;fill-opacity:1" d="M30.75,20.9Q31.65 21.4 32.15 22.2L31.35 23.65L29.7 22.4L29.2 22.1L29.6 21.6L29.65 21.5L30.1 20.6L30.15 20.55L30.75 20.9M22.4,26.1L22.75 25.9L23.85 26.1L24.25 26.2Q25.95 26.65 27.05 27.5L28.45 29L27.45 30.5L25.8 29.05L23.9 28L23.85 28L22.85 27.6L22.55 27.55L22.5 27.05L22.5 27L22.45 26.55L22.4 26.1" />
<path style="fill:#9C89C2;fill-opacity:1" d="M11.45,9.45L10.4 9.55L10.8 9.4L11.35 9.25L11.55 9.3L11.45 9.45M11.2,18Q10.65 18.6 10.5 19.1L10.45 19.1L10.45 19.15L10.4 19.3L10.4 20.15L10.6 20.55L10.6 20.95L10.6 21.35Q10.4 22.6 9.15 23.6L7.25 24.55L8.95 23.55Q10.45 22.55 10.2 21.1L10.05 20.6L9.95 20.35L9.55 19.5L8.95 18.2Q9.7 17.6 11.15 17.85L11.35 17.85L11.2 18M18.05,14.4L16.55 15L14.85 16.1L12.7 17.7L12.45 17.95L12.2 18.15L11.95 18.35L12.15 18.1L12.3 17.95L13.6 16.6L16.25 14.65L16.8 14.35Q17.45 13.95 17.9 13.7L17.95 13.7L18.2 13.45L18.55 13.7L18.9 14.35L18.05 14.4M27.75,18.85Q28 19.2 27.6 19.05Q27.25 18.95 27.65 18.75L27.75 18.85M14.45,28.2L14.55 28.25L15 28.85Q15.55 29.35 16.55 29.45L17.55 30.55L15.7 31.15L14.35 31.3L14.3 31.3L15.1 31.05L15.25 30.9Q15.7 30.65 15.6 30.15Q15.5 29.55 13.8 28.3Q12.6 27.45 11.75 27.05Q12.95 27.45 14.45 28.2M18.95,26.8L18.15 26.05L17.7 25.75L16.75 25.35L16.7 25L16.7 24.95L16.6 24.55L16.3 23.55L15.85 22.65L15.4 22L15.35 21.95L14.1 20.15L13.75 19.6L13.65 19.35L14 19.25L14.05 19.25L14.1 19.25L14.7 19.95L15.2 20.7L15.25 20.85L15.75 21.65L16.4 22.75L16.75 23.65L16.85 23.9L17 24.3L17.15 24.65L17.3 25.05L17.4 25.2Q18.2 25.25 18.65 25.75L18.9 26.2L19.15 26.8L19.15 27.05L18.95 26.8" />
<path style="fill:#AEAEAE;fill-opacity:1" d="M31.9,24.15Q32.1 23.15 32.45 22.35Q32.85 22.05 34 21.6L34.35 22.85L34.5 23.35L33.7 24L32.95 24.4L31.9 24.15M33.8,19.05L33.95 18.35L34 18.35Q37.35 18.65 39.3 20.15L39.75 20.5L38.45 20.5L38.15 20.5L38.1 20.5L38.65 21.15L38.85 21.65Q37.4 21.8 36 22.45L35.8 22.05L35.35 21.1L36.15 20.9L38.1 20.5L37.8 20.35Q35.8 19.25 33.8 19.05M24.25,26.2L23.85 26.1L22.75 25.9L23 25.75L25.3 25.15L25.6 25.8L24.25 26.2M32.8,27.85L35.05 27.6L34.7 27.35Q32.55 26.1 30.45 25.7L30.65 25.2L30.65 24.95L30.7 25L32.8 25.45Q34.9 26.1 36.3 27.25L36.8 27.7L35.4 27.6L35.05 27.6L35.55 28.3L35.7 28.85Q34.1 28.85 32.6 29.5L32.45 29.1L32 28.05L32.8 27.85M30.5,28.45L30.8 29.85L30.85 30.45L30 31.05L28.1 31.95L28 32.1L27.85 31.95Q28.2 30.35 28.75 29.15Q29.2 28.85 30.5 28.45" />
<path style="fill:#982E0F;fill-opacity:1" d="M11.55,9.3L11.7 9.3L12.75 9.15L13 8.95L14.15 9.1L14.8 9.3L15.05 9.35L14.3 9.75L13.8 10.1Q13.05 10.7 12.6 12.1L12.1 13.35L11.55 12.3Q11.15 11.35 11.2 10.45Q11.25 9.85 11.45 9.45L11.55 9.3" />
<path style="fill:#7A61AA;fill-opacity:1" d="M19.15,27.05L19.05 27.55L18.9 27.75L18.15 28.45Q17.3 28.35 16.8 27.9L16.7 27.8Q16.15 27.3 16 26.7L15.95 26.3L16.2 25.85L16.35 25.7L16.6 25.55L15.9 25.05L15.7 24.9L14.65 23.7L14.5 23.5L14.15 23L13.95 22.7L12.5 20.3L12.4 19.95L12.1 19.1L11.95 18.35L12.2 18.15L12.45 17.95L12.7 17.7L14.85 16.1L16.55 15L18.05 14.4L18.9 14.35L19.05 14.9L19 14.9L18.9 14.85L18.85 15.15L18.15 15.65L16 17.1L14.2 18.35L13.9 18.65L13.75 18.8L13.5 19.15L13.5 19.2L13.75 19.6L14.1 20.15L15.35 21.95L15.4 22L15.85 22.65L16.3 23.55L16.6 24.55L16.7 24.95L16.7 25L16.75 25.35L17.7 25.75L18.15 26.05L18.95 26.8L19.15 27.05M5.65,14.5L5.6 14.55L5.05 14.95L4.6 14.9L4.5 14.7L4.7 14.15L5.05 14L5.3 14L5.4 14.1L5.6 14.2L5.65 14.35L5.65 14.45L5.65 14.5M11.15,21.4L12.75 23.6L12.7 23.6L11.6 24.05L11.55 24.05Q11.4 24.05 10 24.9L8.5 25.55Q7.25 25.9 7.1 26L7.05 26L8 26.35L8.45 26.45L8.55 26.45L9.25 26.45L9.35 26.55L9.45 26.6L10.4 26.8L10.5 26.8L11.75 27.05Q12.6 27.45 13.8 28.3Q15.5 29.55 15.6 30.15Q15.7 30.65 15.25 30.9L15.1 31.05L14.3 31.3L14.25 31.3L13.95 31.3L13.9 31.3L13.25 31.25L11.85 30.15L11.55 29.75L10 28.5L8.15 27.25L6.9 26.55L6.6 26.5L6.55 26.5L5.7 25.95L5.5 25.2L5.5 25.15L5.55 25.1L6.75 24.75L6.9 24.7L7.25 24.55L9.15 23.6Q10.4 22.6 10.6 21.35L10.6 20.95L10.6 20.55L11.15 21.4M10.45,19.15L10.45 19.1L10.5 19.1L10.45 19.15" />
<path style="fill:#3A3534;fill-opacity:1" d="M22.45,28.4L22.1 28.8L22.05 28.8L20.9 28.5L19.55 28.45L19.9 27.55L20.25 27.55L20.65 27.6L21.7 27.85L21.75 27.6L21.8 27.4L21.8 27.3L21.75 26.65L21.7 26.55L21.25 25.75L19.75 25.8L19.4 25.15L19.45 25.15L19.9 25.15L20.45 25.15L21.05 25.1L21.95 25.3L22 25.35L22.25 25.85L22.4 26.1L22.45 26.55L22.5 27L22.5 27.05L22.55 27.55L22.55 27.65L22.5 28L22.45 28.4" />
<path style="fill:#7E7470;fill-opacity:1" d="M21.25,25.75L21.7 26.55L21.75 26.65L21.15 26.7L20.35 26.75L19.95 26.75L19.8 26.05L19.75 25.8L21.25 25.75" />
<path style="fill:#524A47;fill-opacity:1" d="M19.9,27.55L19.9 27.5L19.95 26.75L20.35 26.75L21.15 26.7L21.75 26.65L21.8 27.3L21.8 27.4L21.75 27.6L21.7 27.85L20.65 27.6L20.25 27.55L19.9 27.55" />
<path style="fill:#FFFFFF;fill-opacity:1" d="M24.75,16.8L24.45 16.6L24.25 16.3L24.3 16L24.65 16L24.8 16.25L25.05 16.5L24.95 16.8L24.75 16.8" />
</g>
</svg>
