<?xml version="1.0" encoding="utf-8"?>
<svg version="1.1" id="Layer_1"
xmlns="http://www.w3.org/2000/svg"
xmlns:xlink="http://www.w3.org/1999/xlink"
xmlns:author="http://www.sothink.com"
width="16px" height="28px"
xml:space="preserve">
<g id="1190" transform="matrix(1, 0, 0, 1, -1.05, -0.65)">
<path style="fill:#E1CF2F;fill-opacity:1" d="M6.55,25.2L6.2 25.2L5.95 24.95Q5.95 24.6 6.6 24.05Q7.45 23.3 9.85 21.75L10.7 21.15L12.05 20.25L13.05 19.7L14.2 19.2L14.15 20.05L13.7 20.25L12.05 21.05L10.25 22.05L10.2 22.05L7.85 23.6L6.9 24.6Q6.65 24.85 6.55 25.2" />
<path style="fill:#443911;fill-opacity:1" d="M8.9,21.4L10.2 20.5L10.8 20.1L11.3 19.75L11.25 19.75L11.55 19.55L12 19.25Q12.5 18.9 13.4 18.5Q14.75 17.85 15 19.2L15.05 19.65L15.05 19.7Q15 20.85 14.3 21.65L13.2 22.7L15.4 25.3Q16.45 26.35 16.25 26.95Q16.05 27.55 14.85 28.2Q13.6 28.85 12.3 28L10.4 26.6L9.6 25.8L9.3 25.35Q7.65 26.05 6.4 26.05L6 26Q4.75 25.85 4.8 25.25Q4.8 24.85 5.2 24.35L6.05 23.55L6.7 23L7.7 22.3L7.5 22.4L8.9 21.4M10.65,23.8L11.9 22.9L13.6 21.1L13.65 21.05L13.7 21L14.15 20.05L14.2 19.2L13.05 19.7L12.05 20.25L10.7 21.15L9.85 21.75Q7.45 23.3 6.6 24.05Q5.95 24.6 5.95 24.95L6.2 25.2L6.55 25.2Q8.6 25.05 10.65 23.8M12.35,26.95Q13.85 28 15.1 26.95L15.4 26.65L13.4 24.75Q12.6 23.85 12.35 23.25Q11.6 24.1 10.75 24.5L10.75 24.55L10.05 24.95L10.6 25.5L12.35 26.95" />
<path style="fill:#C6A831;fill-opacity:1" d="M13.7,21L13.65 21.05L11.9 22.25L11.25 22.6L6.9 24.6L7.85 23.6L10.2 22.05L10.25 22.05L12.05 21.05L13.7 20.25L14.15 20.05L13.7 21" />
<path style="fill:#AA912B;fill-opacity:1" d="M6.55,25.2Q6.65 24.85 6.9 24.6L11.25 22.6L11.9 22.25L13.65 21.05L13.6 21.1L11.9 22.9L10.65 23.8Q8.6 25.05 6.55 25.2" />
<path style="fill:#55442B;fill-opacity:1" d="M14.6,26.6L11.85 24.7L10.6 25.5L10.05 24.95L10.75 24.55L10.75 24.5Q11.6 24.1 12.35 23.25Q12.6 23.85 13.4 24.75L15.4 26.65L15.1 26.95L14.6 26.6" />
<path style="fill:#675232;fill-opacity:1" d="M10.6,25.5L11.85 24.7L14.6 26.6L15.1 26.95Q13.85 28 12.35 26.95L10.6 25.5" />
<path style="fill:#4E5254;fill-opacity:1" d="M11.3,19.75L10.8 20.1L10.8 20.05Q9.6 18.9 8.55 17Q7.5 15 7.3 12.45L7.3 11.2L7.45 9.25Q7.9 5.4 9.45 3.05L10.05 2.15L9.75 2.25L8.55 2.75Q5.55 4 4.05 6.25L3.1 8Q1.9 10.45 2.1 13L2.25 14.1Q2.7 16.85 4.5 19.05L7.15 22.1L7.5 22.4L7.7 22.3L6.7 23Q4.1 21.15 2.15 16.9L2.1 16.85Q-0.05 12.45 2.25 7.4Q4.5 2.25 11.8 0.65Q12 0.65 11.9 0.95L11.5 1.6L11.3 1.85Q10.25 3 9.3 5Q8.35 7.1 8.2 10.85L8.25 11.65L8.35 12.95Q8.55 15.4 9.75 17.4L11.25 19.75L11.3 19.75" />
<path style="fill:#717575;fill-opacity:1" d="M4.8,9.45Q5.75 5.2 9.75 2.25L10.05 2.15L9.45 3.05L8.5 4.05Q6.7 6.5 6.3 9.8L6.3 10.6L4.8 9.5L4.8 9.45M8.9,21.4L8.85 21.35Q7.55 19.9 6.45 17.9Q4.2 13.7 4.5 10.85L4.55 10.8L4.55 10.75L5.85 11.55L6.25 11.8Q6.25 14.55 7.45 17Q8.45 19.05 10.15 20.5L10.2 20.5L8.9 21.4" />
<path style="fill:#939697;fill-opacity:1" d="M10.2,20.5L10.15 20.5Q8.45 19.05 7.45 17Q6.25 14.55 6.25 11.8L5.85 11.55L4.55 10.75L4.8 9.5L6.3 10.6L6.3 9.8Q6.7 6.5 8.5 4.05L9.45 3.05Q7.9 5.4 7.45 9.25L7.3 11.2L7.3 12.45Q7.5 15 8.55 17Q9.6 18.9 10.8 20.05L10.8 20.1L10.2 20.5" />
<path style="fill:#AEAEAE;fill-opacity:1" d="M7.5,22.4L7.15 22.1L4.5 19.05Q2.7 16.85 2.25 14.1Q2.6 11.8 3.3 10L3.85 10.3L4.55 10.8L4.5 10.85Q4.2 13.7 6.45 17.9Q7.55 19.9 8.85 21.35L8.9 21.4L7.5 22.4M4.8,9.45L4.6 9.3L3.8 8.6L5.3 5.95Q6.15 4.6 8.55 2.75L9.75 2.25Q5.75 5.2 4.8 9.45" />
<path style="fill:#CED1D2;fill-opacity:1" d="M2.25,14.1L2.1 13Q1.9 10.45 3.1 8L4.05 6.25Q5.55 4 8.55 2.75Q6.15 4.6 5.3 5.95L3.8 8.6L4.6 9.3L4.8 9.45L4.8 9.5L4.55 10.75L4.55 10.8L3.85 10.3L3.3 10Q2.6 11.8 2.25 14.1" />
</g>
</svg>
