<?xml version="1.0" encoding="utf-8"?>
<svg version="1.1" id="Layer_1"
xmlns="http://www.w3.org/2000/svg"
xmlns:xlink="http://www.w3.org/1999/xlink"
xmlns:author="http://www.sothink.com"
width="14px" height="11px"
xml:space="preserve">
<g id="1151" transform="matrix(1, 0, 0, 1, -42.55, -72.3)">
<path style="fill:#221E38;fill-opacity:1" d="M54.8,74L54.85 73.95L55 74.35L55.05 74.6L54.55 75.05L53.45 75.9L53.15 76.4Q52.9 77.4 53.6 78.6L54.45 79.6L54.65 79.85L55.05 80.2Q56.55 81.2 56.25 81.75L55.6 82.45L54.45 82.55L52.75 82.55L49.6 83.15L47.1 83.15Q46.25 82.9 45.45 82.25L44.55 81.7L43.05 80.55L42.55 79.9L42.65 79.55L42.95 79.3L44.05 78.95L46.2 78.6L48.7 78.75L50 79.1L50.5 79.45L49.25 77.4Q48.55 76.2 48.4 75.5Q48.2 74.75 48.9 73.8Q49.55 72.8 50.3 72.55L51.35 72.35L51.4 72.35L51.7 72.4L51.95 72.5L51.95 72.55L51.65 72.75Q51.2 72.75 50.7 73.05L50.45 73.25L49.55 74.05L49.2 74.5L49 75.15L50.15 77.65L51.3 79.85L51.4 80.05L50.35 79.85L50.3 79.85L49.25 79.5L46.85 79.2Q44.6 79.1 43.7 79.75L45.8 81.6L46.6 82L48.65 82.25L53.7 81.85Q56.15 81.7 55.05 80.95L54.65 80.65L53.85 79.85L53.75 79.75L53.65 79.5L52.7 78.05Q51.9 76.35 53.25 75.25L54.65 74.15L54.8 74" />
<path style="fill:#524591;fill-opacity:1" d="M54.15,73.5L54.65 74.15L53.25 75.25Q51.9 76.35 52.7 78.05L53.65 79.5L53.75 79.75L53.85 79.85L54.65 80.65L55.05 80.95Q56.15 81.7 53.7 81.85L48.65 82.25L46.6 82L45.8 81.6L43.7 79.75Q44.6 79.1 46.85 79.2L49.25 79.5L50.3 79.85L50.35 79.85L51.4 80.05L51.3 79.85L50.15 77.65L49 75.15L49.2 74.5L49.55 74.05L50.45 73.25L50.7 73.05Q51.2 72.75 51.65 72.75L51.95 72.55L51.95 72.5Q53.25 72.65 54.15 73.5" />
</g>
</svg>
