<?xml version="1.0" encoding="utf-8"?>
<svg version="1.1" id="Layer_1"
xmlns="http://www.w3.org/2000/svg"
xmlns:xlink="http://www.w3.org/1999/xlink"
xmlns:author="http://www.sothink.com"
width="26px" height="22px"
xml:space="preserve">
<g id="470" transform="matrix(1, 0, 0, 1, 3.8, -0.9)">
<path style="fill:#781F00;fill-opacity:1" d="M15.3,16.6Q16.95 16.9 18.15 16.1Q19.35 15.4 19.75 14.55L20.15 13.6L20.15 13.35Q20.25 12.75 20 12.75Q19.85 12.75 19.45 13.15L17.8 14L17.15 14.2L16.15 14.45L15.25 14.55L14.35 14.4Q13.15 14.25 12.55 13.7L11.55 12.55L11.35 11.5L11.85 12.2Q12.2 13.05 14.3 13.6Q15.3 13.85 16.3 13.6L17.75 13.15L18.1 12.95Q20 11.8 20.55 10.55Q21.15 9.45 21.15 8.8L21.15 8.65L21.15 8.4Q21.15 8 21 8.1L20.35 8.6L18.4 9.9L17.7 10.4L17.15 10.6L16.6 10.95L15.1 11.35Q13.1 11.95 13.05 10.5L14.55 10.35L14.6 10.35L14.15 10.15L15.7 9.9L16.6 9.65Q17.7 9.35 18.6 8.6L19.45 7.8L19.6 7.6Q21.15 5.6 21.3 4.4L21.3 3.6L21.1 2.55L20.7 2L20.6 2.05L20.35 2.7L19.05 4.6L18.9 4.85L18.65 5.3L17.3 6.55L16.55 7.2L16.4 7.35Q14.8 8.4 14.2 7.25L15.5 6.45L16.15 6.15Q17.85 5.2 18.9 3.5L20.1 1.25L20.4 1.05Q20.6 0.8 20.9 0.95Q22.35 1.85 22.1 4.3L21.55 6.2L21.2 7.05L21.5 7L21.55 7L21.6 7.05Q22.6 8.55 21.5 10.65L20.55 12L20.55 12.1Q21.2 13.15 20.35 14.7L18.8 16.45Q17.8 17.3 16.15 17.3L14.8 17.2L13.8 16.75L13.2 15.8L13.05 15.05L13.4 15.6Q13.65 16.15 15.25 16.55L15.3 16.6M-0.05,9.9L-1.95 8.6L-2.65 8.1L-2.7 8.3L-2.8 8.65L-2.15 10.55Q-1.6 11.8 0.25 12.95L1.5 13.55L3.2 13.7L4.2 13.6Q6.15 13.05 6.5 12.2L7 11.5L6.9 12.55L5.8 13.7Q5.25 14.25 4.15 14.4L3.4 14.55L3.35 14.55L3.2 14.55L1.7 14.4L0.7 14L-1 13.15L-1.6 12.75L-1.85 13.35L-1.85 13.4L-1.4 14.55Q-0.95 15.4 0.25 16.1Q1.15 16.8 2.3 16.75L3.05 16.6L3.75 16.4Q4.65 16.05 5 15.6L5.3 15.05L5.25 15.8L4.55 16.75L3.9 17.05L2.65 17.3L2.3 17.3Q0.7 17.3 -0.45 16.45L-1.95 14.7Q-2.8 13.15 -2.15 12.1L-2.15 12L-3.1 10.65Q-4.15 8.55 -3.35 7.05L-3.05 7L-2.9 7.05Q-3.65 5.45 -3.8 4.3Q-3.9 1.85 -2.55 0.95L-2.4 0.95Q-2.05 0.9 -1.75 1.25L-0.5 3.5Q0.45 5.05 2.15 6.15L2.8 6.45L2.9 6.55L4.2 7.25Q3.7 8.1 2.75 7.7L2.15 7.4L1.9 7.25L1.85 7.2Q0.2 5.95 -0.6 4.6L-1.9 2.7L-2.2 2.05L-2.25 2.05Q-2.4 2 -2.5 2.25L-2.65 2.55L-2.9 4.4Q-2.8 5.6 -1.25 7.6Q-0.15 8.9 1.35 9.55L2.65 9.9L2.7 9.9L4.25 10.15L3.75 10.35L5.35 10.5Q5.25 11.95 3.35 11.35L2.85 11.25L2.8 11.2L1.3 10.7L-0.05 9.9" />
<path style="fill:#B63100;fill-opacity:1" d="M16.55,8.6L17.35 8.25L18.65 7.35L19 7.05L19.25 6.8L19.5 6.5L19.9 5.95L20.15 5.75L20.25 5.7L20.3 5.65L20.3 5.6L21.1 4L21.3 3.6L21.3 4.4Q21.15 5.6 19.6 7.6L19.45 7.8L18.6 8.6Q17.7 9.35 16.6 9.65L16.55 8.6M16.5,12.9Q17.8 12.65 19.05 11.45L19.9 10.5L20.85 9.05L21.15 8.4L21.15 8.65L21.15 8.8Q21.15 9.45 20.55 10.55Q20 11.8 18.1 12.95L17.75 13.15L16.3 13.6L16.5 12.9M16.2,15.95Q17.5 15.95 18.55 15.35L19.5 14.5L20.15 13.6L19.75 14.55Q19.35 15.4 18.15 16.1Q16.95 16.9 15.3 16.6L15.25 16.55L15.5 15.85L16.2 15.95M2.65,9.9L1.35 9.55Q-0.15 8.9 -1.25 7.6Q-2.8 5.6 -2.9 4.4L-2.65 2.55L-2.5 2.25L-2.55 2.85L-2.45 3.5Q-2.2 4.95 -0.65 6.7L-0.4 7.05L0.4 7.75L0.4 7.45L1.1 8.3L1.5 8.6L1.8 7.6L1.85 7.35L1.9 7.25L2.15 7.4L2.75 7.7L2.7 7.85L2.7 8.75L2.7 9.9L2.65 9.9M2.8,11.2L2.8 11.25L2.85 11.95L2.95 12.7L3.2 13.7L1.5 13.55L0.25 12.95Q-1.6 11.8 -2.15 10.55L-2.8 8.65L-2.7 8.3L-2.35 9.25L-1.9 9.9Q-0.95 11.25 -0.5 11.25L-0.5 11.1L-0.5 11.05L0.5 12.05L1.35 12.6L1.3 11.25L1.3 11.05L1.3 10.7L2.8 11.2M-1.85,13.4L-1.45 13.7L-1.45 13.75L-0.5 14.6L-0.5 14.45L0.3 15.4L2.15 16.05L2 15.6L1.8 14.65L1.7 14.4L3.2 14.55L3.35 14.55L3.35 14.6L3.75 16.4L3.05 16.6L2.3 16.75Q1.15 16.8 0.25 16.1Q-0.95 15.4 -1.4 14.55L-1.85 13.4" />
<path style="fill:#D75500;fill-opacity:1" d="M16.4,7.35L16.55 7.2L17.3 6.55L18.1 6.05L18.65 5.55L18.7 6.35L18.65 7.35L17.35 8.25L16.55 8.6L16.4 7.35M16.6,10.95L17.15 10.6Q18.15 10.55 19.9 9.55L19.95 9.55L19.05 11.45Q17.8 12.65 16.5 12.9L16.6 10.95M15.5,15.85L16.15 14.45L17.15 14.2L17.6 14.25L18.65 14.05L19.2 13.7L19.05 14.6L18.55 15.35Q17.5 15.95 16.2 15.95L15.5 15.85M19.45,5.2L20.05 4.15L20.35 3.6L20.7 3.5L20.7 3.6L20.35 5.4L20.3 5.6L20.3 5.65L20.25 5.7L20.15 5.75L19.9 5.95L19.5 6.5L19.45 5.2M18.65,10.65Q18.65 10.55 18.5 10.6L18.05 10.75L17.8 11.2L18.1 11.25L18.65 10.95L18.65 10.8L18.65 10.65M1.8,7.6L1.5 8.6L1.1 8.3L0.4 7.45L0.4 7.75L-0.4 7.05L-0.15 6.5L-0.05 6.4L1.8 7.6M-0.65,5.75L-0.5 5.9L-0.65 6.7Q-2.2 4.95 -2.45 3.5L-2.35 3.45L-2.05 3.65L-1.75 4L-1.7 4L-0.95 5.35L-0.95 5.5L-0.65 5.75M-2.35,9.1L-2.1 9.1L-1.25 9.8L-1.2 9.75L-1.1 9.7L-0.5 10.2L-0.5 10.25L-0.45 10.55L0 10.6L0.05 10.55L0.15 10.55L0.85 11.05L1.3 11.25L1.35 12.6L0.5 12.05L-0.5 11.05L-0.5 11.1L-0.5 11.25Q-0.95 11.25 -1.9 9.9L-2.35 9.25L-2.35 9.1M1.2,15.3L1.2 15.35L1.15 15.4L1.45 15.6L1.65 15.5L1.65 15.45L1.45 15.3L1.25 15.2L1.2 15.3M2,15.6L2.15 16.05L0.3 15.4L-0.5 14.45L-0.5 14.6L-1.45 13.75L-1.45 13.7L-1.45 13.55L-1.25 13.55Q-0.4 14 0.2 14.4L0.4 14.8Q0.65 15 0.75 14.8L0.8 14.5L1.8 14.65L2 15.6M17.8,14.9L17.7 14.8L17.5 14.7L17.45 14.7L17.2 14.85L17.15 15L17.2 15.1L17.8 15L17.8 14.9" />
<path style="fill:#E6923A;fill-opacity:1" d="M20.7,2L21.1 2.55L21.3 3.6L21.1 4L20.3 5.6L20.35 5.4L20.7 3.6L20.7 3.5L20.35 3.6L20.7 2M19.5,14.5L18.55 15.35L19.05 14.6L19.2 13.7L18.65 14.05L17.6 14.25L17.15 14.2L17.8 14L19.45 13.15Q19.85 12.75 20 12.75Q20.25 12.75 20.15 13.35L20.15 13.6L19.5 14.5M19.95,9.55L20.85 9.05L19.9 10.5L19.05 11.45L19.95 9.55M18.65,10.8L18.65 10.95L18.1 11.25L17.8 11.2L18.05 10.75L18.5 10.6Q18.65 10.55 18.65 10.65L18.65 10.8M-1.75,4L-2.05 3.65L-2.35 3.45L-2.45 3.5L-2.55 2.85L-2.5 2.25Q-2.4 2 -2.25 2.05L-1.7 4L-1.75 4M-0.95,5.5L-0.95 5.35L-0.65 5.75L-0.95 5.5M1.3,10.7L1.3 11.05L1.3 11.25L0.85 11.05L0.15 10.55L0.05 10.55L0 10.6L-0.45 10.55L-0.5 10.25L-0.5 10.2L-1.1 9.7L-1.2 9.75L-1.25 9.8L-2.1 9.1L-2.35 9.1L-2.35 9.25L-2.7 8.3L-2.65 8.1L-1.95 8.6L-0.05 9.9L1.3 10.7M1.25,15.2L1.45 15.3L1.65 15.45L1.65 15.5L1.45 15.6L1.15 15.4L1.2 15.35L1.2 15.3L1.25 15.2M-1.85,13.4L-1.85 13.35L-1.6 12.75L-1 13.15L0.7 14L1.7 14.4L1.8 14.65L0.8 14.5L0.75 14.8Q0.65 15 0.4 14.8L0.2 14.4Q-0.4 14 -1.25 13.55L-1.45 13.55L-1.45 13.7L-1.85 13.4M17.8,15L17.2 15.1L17.15 15L17.2 14.85L17.45 14.7L17.5 14.7L17.7 14.8L17.8 14.9L17.8 15" />
<path style="fill:#F7AB5B;fill-opacity:1" d="M18.7,6.35L18.65 5.55L18.1 6.05L17.3 6.55L18.65 5.3L18.9 4.85L19.05 4.6L20.35 2.7L20.6 2.05L20.7 2L20.35 3.6L20.05 4.15L19.45 5.2L19.5 6.5L19.25 6.8L19 7.05L18.65 7.35L18.7 6.35M19.95,9.55L19.9 9.55Q18.15 10.55 17.15 10.6L17.7 10.4L18.4 9.9L20.35 8.6L21 8.1Q21.15 8 21.15 8.4L20.85 9.05L19.95 9.55M-0.05,6.4L-0.15 6.5L-0.4 7.05L-0.65 6.7L-0.5 5.9L-0.65 5.75L-0.95 5.35L-1.7 4L-2.25 2.05L-2.2 2.05L-1.9 2.7L-0.6 4.6Q0.2 5.95 1.85 7.2L1.9 7.25L1.85 7.35L1.8 7.6L-0.05 6.4" />
<path style="fill:#B15106;fill-opacity:1" d="M18.55,5.35L18.6 5.65L18.55 7.05L18.55 7.1L18.4 8.75L17.75 14.35Q17.3 17.1 16.7 18.45L14.9 19.95L12.2 21.65L11.2 22.25L9.85 22.7Q9.05 22.85 7.6 21.95Q6.15 21.4 4.6 20.2L2.55 18.45Q2.15 17.9 1.55 14.4Q0.9 10.8 0.9 9.25L0.9 6.7L1 5.25L2.2 4.1Q3.05 3.5 4.15 2.95L4.1 2.95Q5.3 2.4 6.85 2L9.45 1.55L10.25 1.55L11.55 1.8L13.05 2.05L15.6 3.1Q17.7 3.9 18.55 5.35M2.65,5.25L2.45 5.55L2.2 5.85L2.15 7.2Q2.05 8.55 2.2 9.9L2.65 14.4L3.1 16.45L3.55 17.8Q4.6 19 5.95 19.65L7.85 20.85Q8.55 21.3 8.9 21.35L9.5 21.55L9.6 21.65L10.25 21.45L10.35 21.35L12.85 20.05L15.35 18.1L16.1 16.8L16.45 14.45L16.95 10.6Q17 8.45 17.2 6.9L17.25 6.3L17.2 5.7Q16.15 4.7 14.65 4.1L14.55 4L13.55 3.7L12.25 3.4L10.65 2.9L9.9 2.8L8.95 2.8L8.85 2.85L8.2 2.9L7.45 3.1L6.4 3.5Q5.8 3.65 5.3 3.9Q4.6 4.1 3.95 4.45L3.35 4.85L2.65 5.25M8.85,4.5L9.05 4.5L9.5 4.45L9.55 4.45L9.9 4.5L10.05 4.5L11.5 4.75L12.7 5.1L12.8 5.1L12.9 5.15L13.55 5.5L13.8 5.65L13.85 5.65L14.6 6L14.9 6.1L15.45 6.5L15.75 6.9L15.9 7.4L15.85 8.5L15.65 8.95L15.65 9.1L15.65 9.2L15.35 12.15L15.25 13.6Q15.05 14.9 14.65 15.7L14.3 16.8L14.25 16.9L14.25 17L14.15 17.2L14.1 17.25L13.85 17.55L11.85 19.1L10.4 19.85L10.35 19.95L10.3 20L10.15 20.05L10.05 20.1L9.75 20.15L9.55 20.2L9.5 20.2L9.45 20.15L9.05 20.05L8.95 20Q8.6 19.65 8.2 19.6L7.3 19.1L7.2 19.1L6.4 18.5L6.35 18.5L5.5 17.8L5.5 17.75L5.35 17.6L5.3 17.55Q4.6 16.8 4.15 14.5L4.05 14.05L4.05 13.7L4 13.35L3.9 12.6L3.85 12.15L3.55 10.25L3.55 8.85L3.55 7.5L3.55 7.45L3.55 7.25L3.55 7.2Q3.65 6.8 4 6.5L4.15 6.3L4.75 6L4.85 5.9Q4.95 5.75 5.15 5.7L5.45 5.55L5.8 5.35L6.6 5.05L6.75 4.9L6.8 4.9L7.15 4.85L7.25 4.8L8.1 4.65L8.2 4.6L8.35 4.6L8.75 4.5L8.85 4.5M8.35,5.65L8.05 5.7L7.95 5.7L6.65 6.05L6 6.4L4.9 7.1L4.5 7.55L4.4 8.85L4.6 10.9L4.8 12.15L4.85 12.55L4.9 13.3L5.5 16L5.95 16.85L6.8 17.7L7.3 18L7.6 18.3L8.6 18.8Q8.85 18.9 9.1 19.1L9.5 19.2L9.55 19.2L10.05 19.1L10.7 18.65L11.85 18Q13.2 17.1 13.7 16.1L14.45 11.3L14.45 11.25Q14.85 7.8 14.65 7.2L14.25 6.9L13.75 6.75L13.5 6.45L13.05 6.2L12.25 6L11.2 5.65L10.15 5.5L9.8 5.4L8.35 5.65" />
<path style="fill:#E58919;fill-opacity:1" d="M15.85,8.5L15.9 7.4L15.75 6.9L15.45 6.5L14.9 6.1L14.6 6L14.65 5.9L15.6 6.3Q16.25 6.7 16.35 7.25L15.85 8.5M10.05,4.5L9.9 4.5L9.55 4.45L9.5 4.45L9.05 4.5L8.85 4.5L8.9 4.3L9.45 4.25L9.85 4.25L10.45 4.25L11.65 4.5L11.5 4.75L10.05 4.5M3.85,12.7L4.05 14.15L4.1 14.85L4.15 14.95L4.6 16.85L5.3 17.65L5.7 18.2L6.25 18.65L6.35 18.65Q6.6 19 7.15 19.2L7.85 19.6L8.7 20.15L9.75 20.35L10.25 20.3L10.25 20.45Q10.15 20.45 10.15 20.95L10.25 21.05L9.55 21.35L9.1 21.3L7.75 20.45Q6.25 19.85 5.05 18.8Q3.85 17.8 3.75 17.35Q3 15.65 2.55 11.7L2.3 7.05L2.4 6L2.45 5.95L2.5 6.4L2.65 6.7L3 6.3L3.25 6.4Q4.7 5.65 4.95 5.3L5.9 4.9L6.85 4.8L7 4.8L7 4.85L6.8 4.9L6.75 4.9L6.6 5.05L5.8 5.35L5.45 5.55L5.15 5.7Q4.95 5.75 4.85 5.9L4.75 6L4.15 6.3L4 6.5Q3.65 6.8 3.55 7.2L3.55 7.25L3.55 7.45L3.55 7.5L3.55 8.85L3.55 10.25L3.85 12.7" />
<path style="fill:#274F72;fill-opacity:1" d="M9.75,8.55L9.55 16.6L8.6 18.8L7.6 18.3L7.3 18L6.8 17.7L5.95 16.85L9.75 8.55M4.9,13.3L4.85 12.55L4.8 12.15L4.6 10.9L4.4 8.85L4.5 7.55L4.9 7.1L6 6.4L6.65 6.05L7.95 5.7L8.05 5.7L8.35 5.65L4.9 13.3" />
<path style="fill:#FFEA4F;fill-opacity:1" d="M16.35,7.25L16.9 6.05L17.25 6.3L17.2 6.9Q17 8.45 16.95 10.6L16.45 14.45L16.1 16.8L15.35 18.1L12.85 20.05L10.35 21.35L10.25 21.45L9.6 21.65L9.5 21.55L8.9 21.35Q8.55 21.3 7.85 20.85L5.95 19.65Q4.6 19 3.55 17.8L3.1 16.45L2.65 14.4L2.2 9.9Q2.05 8.55 2.15 7.2L2.2 5.85L2.45 5.55L2.65 5.25L3.35 4.85L3.45 4.85L3.95 4.85L3.25 5.25L2.45 5.95L2.4 6L2.3 7.05L2.55 11.7Q3 15.65 3.75 17.35Q3.85 17.8 5.05 18.8Q6.25 19.85 7.75 20.45L9.1 21.3L9.55 21.35L10.25 21.05L12.95 19.8Q14.55 18.8 15.2 18Q15.85 17.1 15.9 16.45L15.35 16.15L14.65 15.7Q15.05 14.9 15.25 13.6L15.35 12.15L15.65 9.2L15.65 9.1L15.65 8.95L15.85 8.5L16.35 7.25M7.15,4.85L6.8 4.9L7 4.85L7 4.8L7.15 3.9L7.2 3.5L7.95 3.4L7.25 4.8L7.15 4.85M8.75,4.5L8.35 4.6L9 3.2L9.45 3.1L8.9 4.3L8.85 4.5L8.75 4.5M12.7,5.1L11.5 4.75L11.65 4.5L12.05 3.65L13.35 4L12.95 4.85L12.8 5.1L12.7 5.1M14.6,6L13.85 5.65L13.8 5.65L14.25 4.45Q14.65 4.75 15.2 4.9L14.65 5.9L14.6 6M3.55,10.25L3.85 12.15L3.9 12.6L3.85 12.7L3.55 10.25M4.6,16.85L4.15 14.95L4.1 14.85L4.05 14.15L4.05 14.05L4.15 14.5Q4.6 16.8 5.3 17.55L5.35 17.6L5.5 17.75L5.5 17.8L6.35 18.5L5.5 17.9L5.3 17.65L4.6 16.85M7.2,19.1L7.3 19.1L8.2 19.6Q8.6 19.65 8.95 20L9.05 20.05L9.45 20.15L9.5 20.2L9.55 20.2L9.75 20.15L10.05 20.1L9.5 20.3L9.1 20.15L8.2 19.6L7.2 19.1M10.3,20L10.35 19.95L10.4 19.85L11.85 19.1L13.85 17.55L14.1 17.25L14.1 17.3L12.75 18.65L10.3 20" />
<path style="fill:#FFBC35;fill-opacity:1" d="M16.35,7.25Q16.25 6.7 15.6 6.3L14.65 5.9L15.2 4.9L15.2 4.85L16.3 5.3L16.9 5.9L16.9 6.05L16.35 7.25M2.45,5.95L3.25 5.25L3.95 4.85L7.15 3.5L7.2 3.5L7.15 3.9L7 4.8L6.85 4.8L5.9 4.9L4.95 5.3Q4.7 5.65 3.25 6.4L3 6.3L2.65 6.7L2.5 6.4L2.45 5.95M9.45,3.1L10.3 3.1Q11.05 3.2 12.05 3.65L11.65 4.5L10.45 4.25L9.85 4.25L9.45 4.25L8.9 4.3L9.45 3.1M12.75,18.65L14.1 17.3L14.1 17.25L14.15 17.2L14.25 17L14.25 16.9L14.3 16.8L14.65 15.7L15.35 16.15L15.9 16.45Q15.85 17.1 15.2 18Q14.55 18.8 12.95 19.8L10.25 21.05L10.15 20.95Q10.15 20.45 10.25 20.45L10.25 20.3L9.75 20.35L8.7 20.15L7.85 19.6L7.15 19.2Q6.6 19 6.35 18.65L6.25 18.65L5.7 18.2L5.3 17.65L5.5 17.9L6.35 18.5L7.15 19.1L7.2 19.1L8.2 19.6L9.1 20.15L9.5 20.3L10.05 20.1L10.15 20.05L10.3 20L12.75 18.65" />
<path style="fill:#F4FFDF;fill-opacity:1" d="M14.25,4.45L13.8 5.65L13.55 5.5L12.9 5.15L12.8 5.1L12.95 4.85L13.35 4L12.05 3.65Q11.05 3.2 10.3 3.1L9.45 3.1L9 3.2L8.35 4.6L8.2 4.6L8.1 4.65L7.25 4.8L7.95 3.4L7.2 3.5L7.15 3.5L3.95 4.85L3.45 4.85L3.35 4.85L3.95 4.45Q4.6 4.1 5.3 3.9Q5.8 3.65 6.4 3.5L7.45 3.1L8.2 2.9L8.85 2.85L8.95 2.8L9.9 2.8L10.65 2.9L12.25 3.4L13.55 3.7L14.55 4L14.65 4.1Q16.15 4.7 17.2 5.7L17.25 6.3L16.9 6.05L16.9 5.9L16.3 5.3L15.2 4.85L15.2 4.9Q14.65 4.75 14.25 4.45M4.05,14.15L3.85 12.7L3.9 12.6L4 13.35L4.05 13.7L4.05 14.05L4.05 14.15M6.35,18.5L6.4 18.5L7.2 19.1L7.15 19.1L6.35 18.5" />
<path style="fill:#1C3C58;fill-opacity:1" d="M9.5,19.2L9.1 19.1Q8.85 18.9 8.6 18.8L9.55 16.6L9.5 19.2M8.35,5.65L9.8 5.4L9.75 8.55L5.95 16.85L5.5 16L4.9 13.3L8.35 5.65" />
<path style="fill:#316491;fill-opacity:1" d="M9.75,8.55L9.8 5.4L10.15 5.5L11.2 5.65L9.75 8.55M14.25,6.9L14.65 7.2Q14.85 7.8 14.45 11.25L13.15 13.65L10.7 18.65L10.05 19.1L9.55 19.2L9.5 19.2L9.55 16.6L14.25 6.9" />
<path style="fill:#5C8AB4;fill-opacity:1" d="M9.55,16.6L9.75 8.55L11.2 5.65L12.25 6L13.05 6.2L13.5 6.45L13.75 6.75L14.25 6.9L9.55 16.6M13.15,13.65L14.45 11.25L14.45 11.3L13.7 16.1Q13.2 17.1 11.85 18L10.7 18.65L13.15 13.65" />
<path style="fill:#FFA300;fill-opacity:1" d="M9.6,11.3L9.5 11.35L9.5 7.8L10.5 9.75L10.6 9.95L10.65 10L9.6 11.3" />
<path style="fill:#F06C00;fill-opacity:1" d="M13.15,10L11.4 12L11.35 12.05L9.5 11.35L9.6 11.3L13.15 10" />
<path style="fill:#FCFE5F;fill-opacity:1" d="M9.6,11.3L10.65 10L10.75 10L13.15 10L9.6 11.3" />
<path style="fill:#F69604;fill-opacity:1" d="M9.5,11.35L11.35 12.05L11.35 12.25L11.85 13.6L12.05 13.65L12.2 14.45L9.75 13.25L9.5 13.2L9.5 11.35" />
<path style="fill:#FFFF90;fill-opacity:1" d="M9.5,11.35L6.1 10L8.25 10L8.5 9.95L8.65 9.75L9.5 7.8L9.5 11.35" />
<path style="fill:#ED6E05;fill-opacity:1" d="M9.5,11.35L9.5 13.2L9.5 13.25L7.05 14.45L7.1 14.4L9.5 11.35" />
<path style="fill:#F69E00;fill-opacity:1" d="M9.5,11.35L7.95 12.05L6 10L6.1 10L9.5 11.35" />
<path style="fill:#FCFF53;fill-opacity:1" d="M7.1,14.4L7.85 12.4L7.95 12.1L7.95 12.05L9.5 11.35L7.1 14.4" />
<path style="fill:#914100;fill-opacity:1" d="M11.4,12L13.15 10L10.75 10L10.65 10L10.6 9.95L10.5 9.75L9.5 7.8L8.65 9.75L8.5 9.95L8.25 10L6.1 10L6 10L7.95 12.05L7.95 12.1L7.85 12.4L7.1 14.4L7.05 14.45L9.5 13.25L9.5 13.2L9.75 13.25L12.2 14.45L12.05 13.65L11.85 13.6L11.35 12.25L11.35 12.05L11.4 12M14.25,9.55L14.25 9.7L14.25 9.95L12.05 12.25L12.45 13.35L12.6 13.55L13.05 15.2L13.1 15.35L13.05 15.45L12.95 15.5L12.7 15.5L9.5 13.8L6.45 15.5L6.3 15.5L6.15 15.45L6 15.3L6.1 15.25L6.1 15L7.15 12.15L4.95 9.9L4.9 9.7Q4.9 9.55 5.05 9.55L5.3 9.45L8.2 9.45L9.45 6.9L9.5 6.75L9.75 6.75L9.9 6.9L11.05 9.45L13.95 9.45L14.25 9.55" />
</g>
</svg>
