<?xml version="1.0" encoding="utf-8"?>
<svg version="1.1" id="Layer_1"
xmlns="http://www.w3.org/2000/svg"
xmlns:xlink="http://www.w3.org/1999/xlink"
xmlns:author="http://www.sothink.com"
width="76px" height="96px"
xml:space="preserve">
<g id="1028" transform="matrix(1, 0, 0, 1, -5, 1.4)">
<path style="fill:#000000;fill-opacity:0.25098" d="M39.8,87.05Q40.35 90 45.55 91.3Q49.6 92.2 52.7 90.95L54.3 90.1Q57.25 88.1 56.6 84.65L63.4 85.4Q73.4 86.9 73.4 89.1Q73.4 91.2 63.4 92.75L39.25 94.25Q25 94.25 15 92.75Q5 91.2 5 89.1Q5 86.9 15 85.4L16.05 85.25L16.1 85.75Q16.85 88.45 20.45 90.65L21.65 91.2L21.75 91.3Q24.8 92.45 29.4 92L30.25 91.9Q36.4 91 38 87.85Q38.9 86.1 38.3 83.95L39.25 83.95L40.05 83.95Q39.45 85.3 39.8 87.05" />
<path style="fill:#876430;fill-opacity:1" d="M14.4,54.7L12.4 54.9L12.15 55L12.5 53.45Q13.1 51.1 13.85 50.2L14 49.9L14.55 50.5L15.5 51.25L15.2 52.05Q14.65 53.4 14.4 54.7M26.8,58.2Q29.15 55.35 30.6 52.7L30.65 52.6L33.3 50.9L33.25 51L31.1 55.8L28.55 59.35L26.8 58.2" />
<path style="fill:#D0A15B;fill-opacity:1" d="M49.25,33.1L49.2 32.7L48.5 32.85Q46.65 33.4 45.4 35.35Q43.55 37.85 43.4 41.95Q40.05 41.85 36.75 39.55Q35.8 38.45 34.45 37.65L31.8 34.8L31.8 34Q31.8 32.65 32.1 31.35L32.15 31Q32.7 28.65 33.9 27L34.15 28.1L35.25 30.5L36.45 32.45L38.25 34.5Q39.95 36.25 42.2 36.5Q42.65 33.7 43.3 32.1L43.45 31.8Q43.9 30.8 44.85 29.9L45.85 29.1Q47.65 27.75 49.8 27.55L52.9 31.9L53.8 33.5L51.55 36.8Q49.55 34.3 49.25 33.1M24.05,56.85Q21.95 55.85 20.15 55.35L19.45 54.95L15.9 52.65L15.2 52.05L15.5 51.25Q17.4 52.55 21.3 53.4Q26.2 54.55 28.95 53.4L30.65 52.6L30.6 52.7Q29.15 55.35 26.8 58.2L24.05 56.85" />
<path style="fill:#E9CB9E;fill-opacity:1" d="M43.4,41.95Q43.55 37.85 45.4 35.35Q46.65 33.4 48.5 32.85L49.2 32.7L49.25 33.1Q49.55 34.3 51.55 36.8L49.1 40.4Q46.2 41.95 43.4 41.95M15.2,52.05L15.9 52.65L19.45 54.95L20.15 55.35L16.65 54.75L14.4 54.7Q14.65 53.4 15.2 52.05" />
<path style="fill:#2E201B;fill-opacity:1" d="M38.2,75.5L38.2 75.55L37.3 78.6L36.35 80.25Q37.8 82.25 38.3 83.95Q38.9 86.1 38 87.85Q36.4 91 30.25 91.9L29.4 92Q24.8 92.45 21.75 91.3L21.65 91.2L20.45 90.65Q16.85 88.45 16.1 85.75L16.05 85.25Q15.45 81.45 17.4 79.35L17.65 79.15Q17.4 77.65 17.85 74.85L18.25 72.7Q14.8 71.1 13.05 69.2Q11.25 67.2 10.15 64.65L10 64.3Q9.65 63.5 9.45 62.55Q9 60.95 9.2 59.2L9.2 58.85Q9.3 56.25 10.15 55.8L12.15 55L12.4 54.9L14.4 54.7L16.65 54.75L20.15 55.35Q21.95 55.85 24.05 56.85L26.8 58.2L28.55 59.35L30.2 60.95L31.55 62.95L33.15 62.8L33.8 62.85Q34.7 63.05 35.35 63.75L37.75 66.15Q39.3 67.65 39.55 69.85L39.55 70.4L39.55 70.75L39.55 71.25L39.35 73.1L39.05 73.8L38.85 74.3L38.2 75.5M25.6,35.65L25.75 35.4L25.85 35.65L25.6 35.65M25.05,69.15L25.75 67.7L26.9 66.3L27.95 65.3L29.2 64.3L29.45 63.95Q29.6 63.5 29.05 62.75L28.2 61.8L27.2 60.95L25.4 59.75L21.55 57.7L20.35 57.2Q17.45 56.15 14.15 56.75L12.05 57.3L11.4 57.5Q10.8 58.15 10.9 59.7Q10.8 60.4 11 61.4L11.25 62.5Q11.85 64.85 13.6 67.05Q15.3 69.4 18.9 70.85L19.95 71.25L20.85 71.55L21.85 71.9L24.4 72.05Q24.4 71.5 24.75 70.25L24.8 70.05L25 69.55L25 69.45L25.05 69.15M37.35,73.25L37.5 72.5L37.55 72.4L37.75 70.6L37.7 69.7Q37.5 68.55 36.75 67.8L35.65 66.7L34.5 65.55L34.45 65.5Q33.7 64.75 32.15 65.25L31.95 65.3L31.05 65.7Q29.7 66.2 28.7 67.3L28.4 67.6L28.3 67.75Q27.55 68.65 27.15 69.55L27.1 69.6L26.95 70L26.5 71.75L26.3 72.3Q26.1 73.2 26.4 74Q26.55 74.8 28.55 76.1Q30.55 77.35 33.65 76.6L34.65 76.25Q36 75.6 36.75 74.45L37.35 73.25M33.7,78.45L33.15 78.55L29.25 78.25Q27.55 77.55 25.65 75.9L24.15 74.25L21.75 73.9L20.05 73.4L19.75 74.85Q19.45 76.6 19.7 77.8L19.9 78.6Q20 79.2 20.8 79.7L21.3 79.95L24.1 80.8L30.65 81.35L32.1 81L33.6 80.4L34.65 79.55L35.2 78.9L36.05 77.5L33.7 78.45M33.6,88.55Q37.05 86.75 36.05 84L35.95 83.7L34.85 81.8Q33.8 82.45 32.4 82.8L29.8 83.15L27.05 83.15L22.4 82.45L20.85 81.9L20.05 81.6L19.9 81.55L19.1 81.1L18.75 81.8Q17.85 83.5 18.25 85L18.65 85.95Q19.3 87.05 20 87.65L20.75 88.3Q22.1 89.2 26 89.85L30.8 89.55L33.6 88.55" />
<path style="fill:#513727;fill-opacity:1" d="M38.25,51.85L36.95 51.4L36.6 53.3Q36.25 55.05 36.25 57.55L35.95 57.45Q34.6 57.05 33.4 57.9L33.05 58.2Q32.1 58.8 32.65 60.55L32.8 61L33.8 62.85L33.15 62.8L31.55 62.95L30.2 60.95L28.55 59.35L31.1 55.8L33.25 51L33.3 50.9L34 50.3Q36.25 48.2 37.6 45.2Q38.15 43.8 38.05 42.65Q40.75 43.85 43.5 43.85L44.55 43.75L47.15 43.3L44.4 47.35L41.1 52.25L38.25 51.85M25,69.45L25 69.55L24.8 70.05L24.75 70.25Q24.4 71.5 24.4 72.05L21.85 71.9L20.85 71.55L19.95 71.25L18.9 70.85Q15.3 69.4 13.6 67.05Q11.85 64.85 11.25 62.5L12.25 63.75Q13.85 65.35 17.4 67.15L20.5 68.75L20.65 68.85L20.8 68.9L21 68.9L20.85 68.7L20.1 67.1L20 66.9L19.25 64.95L19.2 64.75L19.2 64.55L19.55 64.95L20 65.45L22.5 67.6L23.05 68L24.9 69.1L25.05 69.15L25 69.45M36.75,74.45Q36 75.6 34.65 76.25L33.65 76.6Q30.55 77.35 28.55 76.1Q26.55 74.8 26.4 74Q26.1 73.2 26.3 72.3L26.5 71.75L27.55 72.55L28.6 73.3Q30.3 74.45 31 74.45L31.2 74.45L30.1 73.2L30.1 73Q30.35 73.35 31.55 73.75L34.35 74.05L35.55 73.95L36.75 73.55L37.35 73.25L36.75 74.45M36.05,77.5L35.2 78.9L34.65 79.55L33.6 80.4L32.1 81L32.85 79.85L32.9 79.85L33.7 78.45L36.05 77.5M30.8,89.55Q31.95 88.95 32.3 86.75Q32.7 84.6 29.35 84.4L27.6 84.25L23.7 83.4Q21.85 82.75 20.05 81.6L20.85 81.9L22.4 82.45L27.05 83.15L29.8 83.15L32.4 82.8Q33.8 82.45 34.85 81.8L35.95 83.7L36.05 84Q37.05 86.75 33.6 88.55L30.8 89.55M51.45,82.8L51.45 81.15L51.1 79.7L50.95 79.6L49.45 79.45L49.1 79.25L49.2 79.25L50.9 78.45Q51.65 78.1 51.8 78.1L51.8 77L51.5 74.8L51.45 74.65L51.55 74.7Q52.5 74.95 53.1 75.35L53.85 76.15Q54.35 77.35 53.55 80.05L53.5 80.25L52.8 81.6L51.45 82.8M51.4,86.3L50.25 86Q53.1 86.25 53.9 84.6L54 84.45Q54.5 82.9 53.2 83.8L52.45 84.05L54.1 82.8L54.2 82.95L54.9 84.5Q55.35 86.25 54.45 87.6L53 88.95Q52.95 86.8 51.4 86.3" />
<path style="fill:#644638;fill-opacity:1" d="M41.1,52.25L37.2 57.95L36.25 57.55Q36.25 55.05 36.6 53.3L36.95 51.4L38.25 51.85L41.1 52.25M29.2,64.3L27.95 65.3L26.9 66.3L25.75 67.7L25.05 69.15L24.9 69.1L23.05 68L22.5 67.6L20 65.45L19.55 64.95L19.2 64.55L19.2 64.75L19.25 64.95L20 66.9L20.1 67.1L20.85 68.7L21 68.9L20.8 68.9L20.65 68.85L20.5 68.75L17.4 67.15Q13.85 65.35 12.25 63.75L11.25 62.5L11 61.4Q10.8 60.4 10.9 59.7L11.2 59.4Q11.75 58.95 12.25 58.75L13.1 58.45L14.3 58.45L14.55 58.45L16.45 59.15L16.6 58.1L18.25 58.1L19.5 58.4L21.6 59.1Q24.05 60.05 24.05 60.3L23.75 61.3L23.65 61.5L23.65 62.55L24.4 62Q24.65 61.65 25.1 61.65L26.15 61.95L26.6 62.15L27.6 62.65L27.85 62.8Q28.75 63.35 29.45 63.95L29.2 64.3M28.4,67.95L28.6 67.8L29.8 66.95L30.7 66.85L31.25 66.85L32.6 66.9L33.05 67.1L33.65 67.7L33.85 67.9L34.05 67.15L35.75 68.25L37.35 70.1L37.75 70.6L37.55 72.4L37.5 72.5L37.35 73.25L36.75 73.55L35.55 73.95L34.35 74.05L31.55 73.75Q30.35 73.35 30.1 73L30.1 73.2L31.2 74.45L31 74.45Q30.3 74.45 28.6 73.3L27.55 72.55L26.5 71.75L26.95 70L27.1 69.6L27.15 69.55Q27.55 68.65 28.3 67.75L28.4 67.6L28.4 67.95M24.15,74.25L25.65 75.9Q27.55 77.55 29.25 78.25L33.15 78.55L33.7 78.45L32.9 79.85L32.85 79.85L32.1 81L30.65 81.35L24.1 80.8L21.3 79.95L21.2 79.5L20.95 78.2L20.9 77.3L21 76.65Q21.45 76.25 23 76.35L23.1 76.35L21.25 74L21.75 73.9L24.15 74.25M20.05,81.6Q21.85 82.75 23.7 83.4L27.6 84.25L29.35 84.4Q32.7 84.6 32.3 86.75Q31.95 88.95 30.8 89.55L26 89.85Q22.1 89.2 20.75 88.3L20 87.65L19.75 87.05L19.2 85.2L21.55 85.75L21.75 85.75L19.9 84.8L19.65 84.65Q19.1 84.2 19.4 83.25L19.75 81.85L19.9 81.55L20.05 81.6" />
<path style="fill:#745416;fill-opacity:1" d="M48.7,70.15L48.9 70.2L50.6 72.6L50.85 72.9L50.7 72.9L47.9 72.8Q46.5 72.9 44.9 73.45Q43.3 73.95 42.65 74.65Q41.9 75.15 41.45 75.8L41.2 76.25L40.3 75.15L39.85 74.7L39.85 74.6L39.5 73.95L39.3 73.55L39.65 72.55Q39.85 71.75 39.55 71.25L39.55 70.75L39.55 70.4L40.45 69.3Q44.75 71.4 46.5 70.05L47.1 68.75Q47.2 68.2 46.95 67.75L46.35 66.6L46.95 66.15L47.1 66.6L48.75 69.95L48.7 70.15M48,57.8L47.9 57.75Q44.9 55.65 48.1 54.05L49.5 53.45L48.35 54.95L48.2 55.7L49.15 56.7L69.3 39.3L73.1 29.45L74.25 26.3L74.8 26.25L74.7 26.45L74.35 29.1L72.25 38.8L71.7 40.95L71.65 41.1L68.65 43.65L62.45 49.1L61.7 49.8L58.95 52.35L57.5 53.7L45.3 64.75L45.05 64.85L44.2 63.65L43.3 62.9L42.65 62.35L48 57.8M53.45,46.85Q54.25 45.15 56.7 42.5L61.45 38L62.6 36.95Q63.25 37 63 37.25L62.6 37.9L59.85 41.6Q57.35 44.85 55.3 46.9Q51.8 50.1 53.45 46.85M54.1,60L54.3 60.55L55.3 63L55.6 63L55.85 63.1L56.15 63.2L56.2 63.4L56.2 63.45L56.2 64L56.15 64.55L56.35 64.95Q57.7 67.5 59.75 69.6Q61.2 71.15 63.1 72.35L63.25 72.15Q63.65 71.9 63.9 71.9L64.25 71.9L64.55 71.95L64.8 72.05L64.9 72.5L64.8 73.35Q66.7 74.3 69.05 74.85L69.9 75.05Q66.9 76.85 63.35 76.85Q57.95 76.85 53.9 72.75L52.4 71.05Q50.2 68.25 49.1 64.9L48.95 64.4L54.1 60M15.7,47.2L17.45 48.05Q20.05 49.2 22.35 49.1L24.6 48.8L24.6 48.65Q23.55 48.4 22.65 47.65L26 47.65Q28.35 47.55 30.4 46.85L32.3 45.95L35.35 43.55L36.1 42.7L36.05 43.7Q35.8 46.05 33.4 48.35L32.35 49.25L31.5 49.95Q28.5 52.1 25.55 51.9L20.3 51.2Q18.25 50.55 17.05 49.7L16.55 49.35Q15.55 48.6 15.25 47.95L15.25 47.9L15.25 47.85L15.1 46.85L15.7 47.2M34.7,60.55L36.4 62.25L37.7 63.35L39.45 64.65Q41.65 66.15 42.9 66.4L43.35 66.4L43.95 66.3L44.9 68Q45.1 68.65 44.1 68.65Q43.05 68.65 41.3 67.45L40.15 66.65L37.65 64.6L37.05 64.1L36.5 63.65Q34.55 61.85 34.35 60.55L34.35 60.45L34.35 60.1L34.7 60.55M75.2,60.95L75.5 60.85L76.1 60.95L76.65 61.5L76.65 61.85Q76.55 62.3 76.05 62.3Q75.05 62.3 74.85 61.5L74.85 61.3L74.95 61.1L75.2 60.95M68.8,60.3L68.6 60.55Q67.6 61.95 66.25 61.95Q64.8 61.95 63.9 60.55L63.6 60.1L63.45 59.8L63.2 59.3L63.65 59.55L63.95 59.7Q65.45 60.4 67.9 60.4L68.8 60.3M68.6,67.7Q68.5 67.2 68.9 66.8L69.35 66.65Q69.85 66.55 70.15 66.95L70.25 67.1Q70.5 67.55 70.35 68L70.15 68.35L69.9 68.45L69.05 68.35L68.9 68.25L68.6 67.85L68.6 67.7M54.6,69.55L54.5 69.6Q54.5 70.35 55.2 70.6Q55.85 70.8 56.2 70.25L56.2 70L55.85 69.25L55.2 69L54.85 69.15L54.6 69.35L54.6 69.55" />
<path style="fill:#4D3212;fill-opacity:1" d="M50.85,72.9L50.6 72.6L48.9 70.2L48.75 69.95L47.1 66.6L46.95 66.15L46.35 66.6L46.95 67.75Q47.2 68.2 47.1 68.75L46.5 70.05Q44.75 71.4 40.45 69.3L39.55 70.4L39.55 69.85Q39.3 67.65 37.75 66.15L35.35 63.75Q34.7 63.05 33.8 62.85L32.8 61L32.65 60.55Q32.1 58.8 33.05 58.2L33.4 57.9Q34.6 57.05 35.95 57.45L36.25 57.55L37.2 57.95L41.1 52.25L44.4 47.35L47.15 43.3L49.1 40.4L51.55 36.8L53.8 33.5L54.85 31.95L58.1 27.35L58.2 27.35L61.95 26.25L64.1 25.65L79.45 21.25L74.7 41.1L75.4 41.95Q80.55 48.35 80.55 57.3Q80.55 62 79.1 66Q77.85 69.6 75.4 72.6L72.7 75.5Q68.45 79.05 63 79.05Q58.95 79.05 55.6 77.05Q53.05 75.55 50.85 72.9M14,49.9Q12.7 48.35 12.85 46.85L13 45.95L13.05 45.5Q14.1 39.15 20.15 36.8Q21.05 36.4 22.1 36.15L22.9 35.95L23.15 35.95L23.95 35.85L25.6 35.65L25.85 35.65L27.9 35.65L30.6 36.05L31.7 36.4L31.95 36.5Q33.3 36.95 34.45 37.65Q35.8 38.45 36.75 39.55L36.9 39.75L37.5 40.55L37.9 41.7L38.05 42.65Q38.15 43.8 37.6 45.2Q36.25 48.2 34 50.3L33.3 50.9L30.65 52.6L28.95 53.4Q26.2 54.55 21.3 53.4Q17.4 52.55 15.5 51.25L14.55 50.5L14 49.9M40.9,60.8L42.65 62.35L43.3 62.9L44.2 63.65L45.05 64.85L45.3 64.75L57.5 53.7L58.95 52.35L61.7 49.8L62.45 49.1L68.65 43.65L71.65 41.1L71.7 40.95L72.25 38.8L74.35 29.1L74.7 26.45L74.8 26.25L74.25 26.3Q69 26.85 63.4 28.7L62.6 28.95L61.25 29.4L59.85 29.85L57.8 32.6L56.2 34.5L55 36L51.65 40.8L51.55 40.9L47.85 46.25L46.4 48.35L43.6 52.3L38.7 59.1L40.3 60.45L40.8 60.75L40.9 60.8M48.95,64.4L49.1 64.9Q50.2 68.25 52.4 71.05L53.9 72.75Q57.95 76.85 63.35 76.85Q66.9 76.85 69.9 75.05Q72.25 73.6 74.2 71.05Q78.4 65.9 78.85 58.85L78.85 57.3Q78.85 49.25 74.2 43.55L73.85 43.15L71.3 45.3L64.95 50.75L66.25 50.55Q68.45 50.55 69.95 52.5Q71.5 54.6 71.5 57.5L71.5 58.3L71.4 59.35L70.65 61.35L70.6 61.5L69.95 62.4Q68.45 64.45 66.25 64.45Q64.1 64.45 62.55 62.4L62.35 62.15L61.35 60.1Q61 58.9 61 57.5Q61 56.65 61.15 55.95L61.2 55.7L61.45 54.85L62.05 53.35L62.2 53.1L54.1 60L48.95 64.4M35.8,41.35L35.2 40.2L33.35 38.65Q32.85 38.3 32.3 38.1L30.95 37.6L29.55 37.35L27.05 37.25L25.6 37.35L24.05 37.5L23.75 37.55L23.15 37.65L21.75 38.2Q16.05 40.55 15.2 44.5Q14.95 45.6 15.1 46.85L15.25 47.85L15.25 47.9L15.25 47.95Q15.55 48.6 16.55 49.35L17.05 49.7Q18.25 50.55 20.3 51.2L25.55 51.9Q28.5 52.1 31.5 49.95L32.35 49.25L33.4 48.35Q35.8 46.05 36.05 43.7L36.1 42.7L35.8 41.35M43.9,66.3L43.85 66.2L43.7 65.95L42.95 65.1L42.35 64.45L39.95 62.2Q37.55 60 36.3 59.4L35.45 59.15Q34.35 58.9 34.35 60.1L34.35 60.45L34.35 60.55Q34.55 61.85 36.5 63.65L37.05 64.1L37.65 64.6L40.15 66.65L41.3 67.45Q43.05 68.65 44.1 68.65Q45.1 68.65 44.9 68L43.95 66.3L43.9 66.3M38.85,74.3L39.05 73.8L39.35 73.1L39.55 71.25Q39.85 71.75 39.65 72.55L39.3 73.55L38.85 74.3M62.9,57.5L62.95 58.1L63.2 59.3L63.45 59.8L63.6 60.1L63.9 60.55Q64.8 61.95 66.25 61.95Q67.6 61.95 68.6 60.55L68.8 60.3L69 60L69.35 59.25L69.6 57.6L69.6 57.5L69.5 56.15Q69.25 55.05 68.6 54.25Q67.6 52.95 66.25 52.95Q64.8 52.95 63.9 54.25L63.75 54.5Q63.25 55.15 63.05 56L62.95 56.65L62.9 57.05L62.9 57.5" />
<path style="fill:#3F270B;fill-opacity:1" d="M40.6,77.45L40.4 78.6Q39.5 77.9 38.6 76.25L38.2 75.55L38.2 75.5L38.85 74.3L39.3 73.55L39.5 73.95L39.85 74.6L39.85 74.7L40.3 75.15L41.2 76.25L40.6 77.45" />
<path style="fill:#9A7226;fill-opacity:1" d="M48.75,69.95L48.9 70.2L48.7 70.15L48.75 69.95M42.65,62.35L40.9 60.8L40.8 60.75L60.8 33.05L73.1 29.45L69.3 39.3L49.15 56.7L48.2 55.7L48.35 54.95L49.5 53.45L48.1 54.05Q44.9 55.65 47.9 57.75L48 57.8L42.65 62.35M55.3,46.9Q57.35 44.85 59.85 41.6L62.6 37.9L63 37.25Q63.25 37 62.6 36.95L61.45 38L56.7 42.5Q54.25 45.15 53.45 46.85Q51.8 50.1 55.3 46.9M74.2,71.05Q72.25 73.6 69.9 75.05L69.05 74.85Q66.7 74.3 64.8 73.35L64.9 72.5L64.8 72.05L64.55 71.95L64.25 71.9L63.9 71.9Q63.65 71.9 63.25 72.15L63.1 72.35Q61.2 71.15 59.75 69.6Q57.7 67.5 56.35 64.95L56.15 64.55L56.2 64L56.2 63.45L56.2 63.4L56.15 63.2L55.85 63.1L55.6 63L55.3 63L54.3 60.55L54.1 60L62.2 53.1L62.05 53.35L61.45 54.85L61.2 55.7L61.15 55.95Q61 56.65 61 57.5Q61 58.9 61.35 60.1L62.35 62.15L62.55 62.4Q64.1 64.45 66.25 64.45Q68.45 64.45 69.95 62.4L70.6 61.5L70.65 61.35L71.4 59.35L71.5 58.3L71.5 57.5Q71.5 54.6 69.95 52.5Q68.45 50.55 66.25 50.55L64.95 50.75L71.3 45.3L73.3 47.45L73.7 47.8L73.75 48Q73.6 48 73.4 48.25Q73.05 48.9 73.4 49.55Q73.85 50.6 74.95 50Q77.85 54.5 78.85 58.85Q78.4 65.9 74.2 71.05M35.2,40.2L35.8 41.35L36.1 42.7L35.35 43.55L32.3 45.95L30.4 46.85Q28.35 47.55 26 47.65L22.65 47.65Q23.55 48.4 24.6 48.65L24.6 48.8L22.35 49.1Q20.05 49.2 17.45 48.05L15.7 47.2L15.1 46.85Q14.95 45.6 15.2 44.5L15.55 44.25Q18.6 42 19.8 41.6L20.8 41.55L21.4 42.75L21.65 43.05Q22.25 43.5 23.4 43.45L24.9 42.5L25.75 41.6Q26.95 40.25 30.1 39.9L31.75 39.75L32.8 39.75L33.9 39.9L35.2 40.2M42.95,65.1L43.7 65.95L43.85 66.2L43.9 66.3L43.95 66.3L43.35 66.4L42.9 66.4Q41.65 66.15 39.45 64.65L37.7 63.35L36.4 62.25L34.7 60.55L35.75 60.95L36.35 61.3L38.65 62.45L42.1 64.5L42.95 65.1M74.95,61.1L74.85 61.3L74.85 61.5Q75.05 62.3 76.05 62.3Q76.55 62.3 76.65 61.85L76.65 61.5L76.1 60.95L75.5 60.85L75.2 60.95L74.95 61.1M67.9,60.4Q65.45 60.4 63.95 59.7L63.65 59.55L63.2 59.3L62.95 58.1L62.9 57.5L62.9 57.05L63 56.95L63.2 56.8L63.6 56.55Q64.25 56.15 65.1 55.95L67.05 55.7L69.5 56.15L69.6 57.5L69.6 57.6L69.35 59.25L69 60L68.8 60.3L67.9 60.4M68.6,67.85L68.9 68.25L69.05 68.35L69.9 68.45L70.15 68.35L70.35 68Q70.5 67.55 70.25 67.1L70.15 66.95Q69.85 66.55 69.35 66.65L68.9 66.8Q68.5 67.2 68.6 67.7L68.6 67.85M54.6,69.35L54.85 69.15L55.2 69L55.85 69.25L56.2 70L56.2 70.25Q55.85 70.8 55.2 70.6Q54.5 70.35 54.5 69.6L54.6 69.55L54.6 69.35" />
<path style="fill:#412B1E;fill-opacity:1" d="M51.5,74.8L51.8 77L51.8 78.1Q51.65 78.1 50.9 78.45L49.2 79.25L49.1 79.25L49.45 79.45L50.95 79.6L51.1 79.7L51.45 81.15L51.45 82.8L50.65 83.1L50.55 83.1L45.6 83.25L43.45 82.75Q42.55 82.45 42.25 82.05L42.05 81.75Q41.55 80.85 41.6 79.6L41.6 79.4Q41.65 78.1 41.95 77.45L42.1 77.2Q42.5 76.5 43.25 75.95Q44.05 75.15 46.1 74.55L50.65 74.45L51.45 74.65L51.5 74.8M53,88.95Q51.95 89.65 50.4 90L45.35 89.7Q43.1 88.85 42.15 87.75Q41.2 86.65 41.2 85.45Q41.25 84.7 41.85 84L41.95 83.85Q42.9 84.35 45.15 84.75L50.7 84.55L51.3 84.45L52.45 84.05L53.2 83.8Q54.5 82.9 54 84.45L53.9 84.6Q53.1 86.25 50.25 86L51.4 86.3Q52.95 86.8 53 88.95" />
<path style="fill:#231713;fill-opacity:1" d="M40.4,78.6L40.6 77.45L41.2 76.25L41.45 75.8Q41.9 75.15 42.65 74.65Q43.3 73.95 44.9 73.45Q46.5 72.9 47.9 72.8L50.7 72.9L50.85 72.9Q53.05 75.55 55.6 77.05Q55.6 79.45 55 81.3Q55.8 82.05 56.2 83.2L56.6 84.65Q57.25 88.1 54.3 90.1L52.7 90.95Q49.6 92.2 45.55 91.3Q40.35 90 39.8 87.05Q39.45 85.3 40.05 83.95Q40.35 83.25 40.95 82.65Q40.65 81.9 40.5 80.8L40.4 78.6M52.8,81.6L53.5 80.25L53.55 80.05Q54.35 77.35 53.85 76.15L53.1 75.35Q52.5 74.95 51.55 74.7L51.45 74.65L50.65 74.45L46.1 74.55Q44.05 75.15 43.25 75.95Q42.5 76.5 42.1 77.2L41.95 77.45Q41.65 78.1 41.6 79.4L41.6 79.6Q41.55 80.85 42.05 81.75L42.25 82.05Q42.55 82.45 43.45 82.75L45.6 83.25L50.55 83.1L50.65 83.1L51.45 82.8L52.8 81.6M51.3,84.45L50.7 84.55L45.15 84.75Q42.9 84.35 41.95 83.85L41.85 84Q41.25 84.7 41.2 85.45Q41.2 86.65 42.15 87.75Q43.1 88.85 45.35 89.7L50.4 90Q51.95 89.65 53 88.95L54.45 87.6Q55.35 86.25 54.9 84.5L54.2 82.95L54.1 82.8L52.45 84.05L51.3 84.45" />
<path style="fill:#B49148;fill-opacity:1" d="M73.1,29.45L60.8 33.05L40.8 60.75L40.3 60.45L38.7 59.1L43.6 52.3L46.4 48.35L47.85 46.25L51.55 40.9L51.65 40.8L55 36L56.2 34.5L57.8 32.6L59.85 29.85L61.25 29.4L62.6 28.95L63.4 28.7Q69 26.85 74.25 26.3L73.1 29.45M73.85,43.15L74.2 43.55Q78.85 49.25 78.85 57.3L78.85 58.85Q77.85 54.5 74.95 50Q73.85 50.6 73.4 49.55Q73.05 48.9 73.4 48.25Q73.6 48 73.75 48L73.7 47.8L73.3 47.45L71.3 45.3L73.85 43.15M33.9,39.9L32.8 39.75L31.75 39.75L30.1 39.9Q26.95 40.25 25.75 41.6L24.9 42.5L23.4 43.45Q22.25 43.5 21.65 43.05L21.4 42.75L20.8 41.55L19.8 41.6Q18.6 42 15.55 44.25L15.2 44.5Q16.05 40.55 21.75 38.2L23.15 37.65L23.75 37.55L24.05 37.5L25.6 37.35L27.05 37.25L29.55 37.35L30.95 37.6L32.3 38.1Q32.85 38.3 33.35 38.65L35.2 40.2L33.9 39.9M42.1,64.5L38.65 62.45L36.35 61.3L35.75 60.95L34.7 60.55L34.35 60.1Q34.35 58.9 35.45 59.15L36.3 59.4Q37.55 60 39.95 62.2L42.35 64.45L42.95 65.1L42.1 64.5M67.05,55.7L65.1 55.95Q64.25 56.15 63.6 56.55L63.2 56.8L63 56.95L62.9 57.05L62.95 56.65L63.05 56Q63.25 55.15 63.75 54.5L63.9 54.25Q64.8 52.95 66.25 52.95Q67.6 52.95 68.6 54.25Q69.25 55.05 69.5 56.15L67.05 55.7" />
<path style="fill:#8E6755;fill-opacity:1" d="M11.4,57.5L12.05 57.3L14.15 56.75Q17.45 56.15 20.35 57.2L21.55 57.7L25.4 59.75L27.2 60.95L28.2 61.8L29.05 62.75Q29.6 63.5 29.45 63.95Q28.75 63.35 27.85 62.8L27.6 62.65L26.6 62.15L26.15 61.95L25.1 61.65Q24.65 61.65 24.4 62L23.65 62.55L23.65 61.5L23.75 61.3L24.05 60.3Q24.05 60.05 21.6 59.1L19.5 58.4L18.25 58.1L16.6 58.1L16.45 59.15L14.55 58.45L14.3 58.45L13.1 58.45L12.25 58.75Q11.75 58.95 11.2 59.4L10.9 59.7Q10.8 58.15 11.4 57.5M37.75,70.6L37.35 70.1L35.75 68.25L34.05 67.15L33.85 67.9L33.65 67.7L33.05 67.1L32.6 66.9L31.25 66.85L30.7 66.85L29.8 66.95L28.6 67.8L28.4 67.95L28.4 67.6L28.7 67.3Q29.7 66.2 31.05 65.7L31.95 65.3L32.15 65.25Q33.7 64.75 34.45 65.5L34.5 65.55L35.65 66.7L36.75 67.8Q37.5 68.55 37.7 69.7L37.75 70.6M20.8,79.7Q20 79.2 19.9 78.6L19.7 77.8Q19.45 76.6 19.75 74.85L20.05 73.4L21.75 73.9L21.25 74L23.1 76.35L23 76.35Q21.45 76.25 21 76.65L20.9 77.3L20.95 78.2L21.2 79.5L21.3 79.95L20.8 79.7M18.65,85.95L18.25 85Q17.85 83.5 18.75 81.8L19.1 81.1L19.9 81.55L19.75 81.85L19.4 83.25Q19.1 84.2 19.65 84.65L19.9 84.8L21.75 85.75L21.55 85.75L19.2 85.2L19.75 87.05L20 87.65Q19.3 87.05 18.65 85.95" />
<path style="fill:#694817;fill-opacity:1" d="M61.95,26.25L61.95 26.2Q62.4 23.1 61.75 20.15L61.15 17.6Q59.25 11.2 55.5 7.75L51.65 4.65Q49 2.95 46.45 1.95Q41.95 0.25 36.05 1.2Q32.15 1.75 29 3.1Q27.2 3.85 25.55 4.85Q21.15 7.45 19.25 11.45Q18.85 12.15 18.6 12.8L17.7 15.15Q16.95 17.05 16.7 18.95Q16 22.5 17.05 27.35Q18.05 32.25 21.4 35.5L22.1 36.15Q21.05 36.4 20.15 36.8Q18.15 34.85 16.7 32.45Q13.45 27 14.7 18.15Q15.35 13.6 17.8 9.9L18.8 8.55Q20.6 6.1 23.2 4.1L23.4 4.05Q26.85 1.5 30.35 0.25Q33.25 -0.7 38.4 -1.3Q43.5 -1.85 48.75 0.3Q54.25 2.75 58.95 7.9Q61.4 10.65 62.75 14.8Q64.55 19.7 64.3 24L64.3 24.65L64.1 25.65L61.95 26.25M31.7,36.4L30.6 36.05L30.55 35.7L30.45 34.6L30.45 33.6L30.55 31.95Q30.6 31.05 30.8 30.1Q31.2 28.2 32.55 26.3Q33.9 24.4 34.55 24.3Q36.05 28.45 36.95 30.2L38.15 32.05Q39.3 33.5 41.05 34.35L41.3 33.25L41.85 31.85L42.75 30.1L43 29.7Q44.15 28 45.75 27.2Q47.55 26.3 48.8 25.9Q50.1 25.55 50.65 25.9L53.25 29.35L54.85 31.95L53.8 33.5L52.9 31.9L49.8 27.55Q47.65 27.75 45.85 29.1L44.85 29.9Q43.9 30.8 43.45 31.8L43.3 32.1Q42.65 33.7 42.2 36.5Q39.95 36.25 38.25 34.5L36.45 32.45L35.25 30.5L34.15 28.1L33.9 27Q32.7 28.65 32.15 31L32.1 31.35Q31.8 32.65 31.8 34L31.8 34.8L31.95 36.5L31.7 36.4M23.95,35.85Q24 34.25 25.3 31.9L26.2 33.25L26.9 34.25L27.9 35.65L25.85 35.65L25.75 35.4L25.6 35.65L23.95 35.85" />
<path style="fill:#FBF734;fill-opacity:1" d="M61.65,25.55Q58.15 17.95 54.05 16.6L54.25 16.6Q56.15 15.35 57.35 15.45L56.4 13.7Q55.7 12.15 53.25 9.35Q50.8 6.45 48.8 5.75L47.45 5.5L47.3 5.4Q42.75 6.3 41.2 9.55L41.2 8.75Q41.2 6.3 43.3 4.4L42.85 4.3L42.5 4.3Q39.3 4.3 36.9 5.4L35.05 6.45Q35.05 5.5 37.5 3.65L38.85 2.65L36.15 2.65L29 3.1Q32.15 1.75 36.05 1.2Q41.95 0.25 46.45 1.95Q49 2.95 51.65 4.65L55.5 7.75Q59.25 11.2 61.15 17.6L61.75 20.15Q62.4 23.1 61.95 26.2L61.65 25.55" />
<path style="fill:#FED009;fill-opacity:1" d="M58.2,27.35L57.5 25.55Q56.35 23.05 54.25 20.5Q52.1 17.85 49.75 17.4L49.75 17.5Q49.1 18.6 42.5 22.75Q41.4 18.7 44.4 14.6Q40.25 14.7 36.8 19.5L36.5 18.85Q36.35 18.4 36.8 15.6Q37.25 12.8 38.15 11.9Q38.85 10.9 35.35 12.45Q31.8 14 29.9 15.9Q27.9 17.7 27.55 18.25Q27 17.7 26.95 15.95Q26.75 14.15 27.3 13.1L28 11.8Q24.85 12.55 21.75 15.25Q19.6 17.05 19.6 18.4Q18.8 16.25 18.7 15.5Q18.4 14.6 18.6 12.8Q18.85 12.15 19.25 11.45Q21.15 7.45 25.55 4.85Q27.2 3.85 29 3.1L36.15 2.65L38.85 2.65L37.5 3.65Q35.05 5.5 35.05 6.45L36.9 5.4Q39.3 4.3 42.5 4.3L42.85 4.3L43.3 4.4Q41.2 6.3 41.2 8.75L41.2 9.55Q42.75 6.3 47.3 5.4L47.45 5.5L48.8 5.75Q50.8 6.45 53.25 9.35Q55.7 12.15 56.4 13.7L57.35 15.45Q56.15 15.35 54.25 16.6L54.05 16.6Q58.15 17.95 61.65 25.55L61.95 26.2L61.95 26.25L58.2 27.35" />
<path style="fill:#D48D01;fill-opacity:1" d="M27.9,35.65L26.9 34.25L26.2 33.25L25.3 31.9Q24 34.25 23.95 35.85L23.15 35.95L22.9 35.95L22.1 36.15L21.4 35.5Q18.05 32.25 17.05 27.35Q16 22.5 16.7 18.95Q16.95 17.05 17.7 15.15L18.6 12.8Q18.4 14.6 18.7 15.5Q18.8 16.25 19.6 18.4Q19.6 17.05 21.75 15.25Q24.85 12.55 28 11.8L27.3 13.1Q26.75 14.15 26.95 15.95Q27 17.7 27.55 18.25Q27.9 17.7 29.9 15.9Q31.8 14 35.35 12.45Q38.85 10.9 38.15 11.9Q37.25 12.8 36.8 15.6Q36.35 18.4 36.5 18.85L36.8 19.5Q40.25 14.7 44.4 14.6Q41.4 18.7 42.5 22.75Q49.1 18.6 49.75 17.5L49.75 17.4Q52.1 17.85 54.25 20.5Q56.35 23.05 57.5 25.55L58.2 27.35L58.1 27.35L54.85 31.95L53.25 29.35L50.65 25.9Q50.1 25.55 48.8 25.9Q47.55 26.3 45.75 27.2Q44.15 28 43 29.7L42.75 30.1L41.85 31.85L41.3 33.25L41.05 34.35Q39.3 33.5 38.15 32.05L36.95 30.2Q36.05 28.45 34.55 24.3Q33.9 24.4 32.55 26.3Q31.2 28.2 30.8 30.1Q30.6 31.05 30.55 31.95L30.45 33.6L30.45 34.6L30.55 35.7L30.6 36.05L27.9 35.65M30,26L30.2 26L30.2 25.85L30 26" />
<path style="fill:#9C753C;fill-opacity:1" d="M37.9,41.7L37.5 40.55L36.9 39.75L36.75 39.55Q40.05 41.85 43.4 41.95Q46.2 41.95 49.1 40.4L47.15 43.3L44.55 43.75L43.5 43.85Q40.75 43.85 38.05 42.65L37.9 41.7M31.95,36.5L31.8 34.8L34.45 37.65Q33.3 36.95 31.95 36.5" />
<path style="fill:#C6A831;fill-opacity:1" d="M30.2,25.85L30.2 26L30 26L30.2 25.85" />
</g>
</svg>
