<?xml version="1.0" encoding="utf-8"?>
<svg version="1.1" id="Layer_1"
xmlns="http://www.w3.org/2000/svg"
xmlns:xlink="http://www.w3.org/1999/xlink"
xmlns:author="http://www.sothink.com"
width="118px" height="39px"
xml:space="preserve">
<g id="438" transform="matrix(1, 0, 0, 1, -10.55, 16.8)">
<linearGradient
id="LinearGradID_598" gradientUnits="userSpaceOnUse" gradientTransform="matrix(0, 0.00823975, -0.00872803, 0, 18.5, 1.4)" spreadMethod ="pad" x1="-819.2" y1="0" x2="819.2" y2="0" >
<stop  offset="0" style="stop-color:#FFF980;stop-opacity:1" />
<stop  offset="1" style="stop-color:#E7950A;stop-opacity:1" />
</linearGradient>
<path style="fill:url(#LinearGradID_598) " d="M60.2,-5.45Q61.55 -4.15 62.7 -5.55L62.7 -5.7Q62.85 -7.3 61.05 -6.95Q60.5 -6.85 60.3 -6.2L60.2 -5.45M59.9,-8.15L60 -8.2L61.55 -8.55L70.75 -8.55Q72.05 -8.55 72.65 -7.9L72.7 -7.85Q73.4 -7.25 73.4 -6.2Q73.4 -5.2 72.7 -4.5L72.65 -4.45Q72.05 -3.85 70.75 -3.85L63.9 -3.85L63.9 -1.65L70.1 -1.65Q71.35 -1.65 71.95 -1L72 -0.95Q72.7 -0.3 72.7 0.65Q72.7 1.65 72 2.35Q71.45 3 70.1 3L63.9 3L63.9 5.9L71 5.9Q72.3 5.9 72.9 6.5L72.95 6.55Q73.65 7.2 73.65 8.3Q73.65 9.3 72.95 10L72.9 10.05Q72.3 10.65 71 10.65L61.55 10.65Q59.85 10.65 59.2 9.85L59.25 9.85Q58.45 9.15 58.45 7.5L58.45 -5.4Q58.45 -6.4 58.75 -7L58.75 -6.95Q59.05 -7.8 59.9 -8.15M72.9,-6.1Q72.65 -7.25 71.3 -7.45Q69.3 -4.95 72.95 -5.9L72.9 -6.1" />
<path style="fill:#FFFFFF;fill-opacity:1" d="M60.3,-6.2Q60.5 -6.85 61.05 -6.95Q62.85 -7.3 62.7 -5.7L62.7 -5.55Q61.55 -4.15 60.2 -5.45L60.3 -6.2M72.95,-5.9Q69.3 -4.95 71.3 -7.45Q72.65 -7.25 72.9 -6.1L72.95 -5.9" />
<linearGradient
id="LinearGradID_599" gradientUnits="userSpaceOnUse" gradientTransform="matrix(0, 0.00823975, -0.00872803, 0, 18.5, -6.6)" spreadMethod ="pad" x1="-819.2" y1="0" x2="819.2" y2="0" >
<stop  offset="0" style="stop-color:#FFF980;stop-opacity:1" />
<stop  offset="1" style="stop-color:#E7950A;stop-opacity:1" />
</linearGradient>
<path style="fill:url(#LinearGradID_599) " d="M76.55,-14.95Q76 -14.95 76.2 -14.45Q77.1 -12.25 78.95 -14.1L78.85 -14.3Q78.15 -15.45 76.55 -14.95M77.1,-16.8Q78.25 -16.8 79.05 -16Q79.85 -15.3 79.85 -13.7L79.85 -2.2L85.9 -2.2Q87.2 -2.2 87.9 -1.55Q88.65 -0.85 88.65 0.25Q88.65 1.3 87.9 2Q87.2 2.65 85.9 2.65L77.5 2.65Q75.85 2.65 75.15 1.85Q74.35 1.15 74.35 -0.5L74.35 -13.7Q74.35 -15.2 75.1 -15.95Q75.8 -16.8 77.1 -16.8" />
<path style="fill:#FFFFFF;fill-opacity:1" d="M78.85,-14.3L78.95 -14.1Q77.1 -12.25 76.2 -14.45Q76 -14.95 76.55 -14.95Q78.15 -15.45 78.85 -14.3" />
<linearGradient
id="LinearGradID_600" gradientUnits="userSpaceOnUse" gradientTransform="matrix(0, 0.00823975, -0.00872803, 0, 18.5, 1.15)" spreadMethod ="pad" x1="-819.2" y1="0" x2="819.2" y2="0" >
<stop  offset="0" style="stop-color:#FFF980;stop-opacity:1" />
<stop  offset="1" style="stop-color:#E7950A;stop-opacity:1" />
</linearGradient>
<path style="fill:url(#LinearGradID_600) " d="M98.6,-6.1Q98.95 -7.2 98.05 -7.7Q96.15 -7.7 96.2 -5.95L98.5 -5.9L98.6 -6.1M95.7,-8.2Q96.45 -9.05 97.65 -9.05Q99 -9.05 99.7 -8.2Q100.45 -7.45 100.45 -5.95L100.45 2.5Q100.45 3.75 100.7 4.6Q100.9 5.2 101.45 5.55L101.5 5.6L103.2 5.95Q104.65 5.95 105.25 5.25Q105.9 4.35 105.9 2.55L105.9 -5.95Q105.9 -7.5 106.65 -8.2L106.7 -8.25Q107.4 -9.05 108.65 -9.05Q109.9 -9.05 110.6 -8.25L110.65 -8.2Q111.4 -7.5 111.4 -5.95L111.4 2.3Q111.4 4.45 110.95 5.95Q110.5 7.55 109.2 8.8Q108.1 9.8 106.65 10.25L103.45 10.7L99.75 10.2L99.8 10.25Q98.05 9.75 97 8.65Q95.95 7.6 95.4 5.95Q94.95 4.4 94.95 2.3L94.95 -5.95Q94.95 -7.45 95.7 -8.2M108.05,-7.15Q107.6 -6.95 107.7 -6.45Q108.55 -4.3 110.85 -5.6L110.9 -5.8Q110.85 -7.6 108.8 -7.45L108.05 -7.15" />
<path style="fill:#FFFFFF;fill-opacity:1" d="M98.5,-5.9L96.2 -5.95Q96.15 -7.7 98.05 -7.7Q98.95 -7.2 98.6 -6.1L98.5 -5.9M108.8,-7.45Q110.85 -7.6 110.9 -5.8L110.85 -5.6Q108.55 -4.3 107.7 -6.45Q107.6 -6.95 108.05 -7.15L108.8 -7.45" />
<linearGradient
id="LinearGradID_601" gradientUnits="userSpaceOnUse" gradientTransform="matrix(0, 0.00823975, -0.00872803, 0, 18.5, 7.05)" spreadMethod ="pad" x1="-819.2" y1="0" x2="819.2" y2="0" >
<stop  offset="0" style="stop-color:#FFF980;stop-opacity:1" />
<stop  offset="1" style="stop-color:#E7950A;stop-opacity:1" />
</linearGradient>
<path style="fill:url(#LinearGradID_601) " d="M114.05,-2.15Q114.8 -2.9 116.4 -2.9L120.85 -2.9L124.15 -2.5Q125.4 -2.2 126.35 -1.35L126.4 -1.3L127.85 0.65L127.85 0.7Q128.3 1.85 128.3 3.3Q128.3 6.4 126.3 8.05Q124.5 9.6 120.85 9.6L118.65 9.6L118.65 13.45Q118.65 14.95 117.9 15.75Q117.1 16.6 115.9 16.6Q114.7 16.6 113.9 15.75Q113.2 15 113.2 13.5L113.2 0.25Q113.2 -1.4 114 -2.1L114.05 -2.15M124,-0.8Q123.65 1.9 126.55 1.1L126.6 0.9Q126.7 -1.35 124.3 -1.05Q124.05 -1.05 124 -0.8M122.5,4.3L122.75 3.35Q122.75 2.65 122.4 2.2Q121.75 1.75 120 1.75L118.65 1.75L118.65 5L120 5L121.75 4.8L122.5 4.3M117.25,0.75L117.35 0.55Q117.8 -0.8 116.55 -1.05Q114.65 -1.1 114.95 0.7L117.25 0.75" />
<path style="fill:#FFFFFF;fill-opacity:1" d="M124.3,-1.05Q126.7 -1.35 126.6 0.9L126.55 1.1Q123.65 1.9 124 -0.8Q124.05 -1.05 124.3 -1.05M114.95,0.7Q114.65 -1.1 116.55 -1.05Q117.8 -0.8 117.35 0.55L117.25 0.75L114.95 0.7" />
<linearGradient
id="LinearGradID_602" gradientUnits="userSpaceOnUse" gradientTransform="matrix(0, 0.00823975, -0.00872803, 0, 18.5, 6.4)" spreadMethod ="pad" x1="-819.2" y1="0" x2="819.2" y2="0" >
<stop  offset="0" style="stop-color:#FFF980;stop-opacity:1" />
<stop  offset="1" style="stop-color:#E7950A;stop-opacity:1" />
</linearGradient>
<path style="fill:url(#LinearGradID_602) " d="M41.55,-3.05L41.6 -3.1Q42.35 -3.8 43.45 -3.8Q45 -3.8 45.55 -2.75L46.4 -0.8L46.4 -0.85L49.35 7.85L52.3 -0.9L52.8 -2.3Q53 -2.85 53.55 -3.3L53.65 -3.35Q54.15 -3.8 55.2 -3.8L56.45 -3.5L56.5 -3.45L57.5 -2.5L57.5 -2.45L57.8 -1.25L57.75 -0.5L57.55 0.25L57.45 0.45L57.3 0.8L53.15 12.05L53.15 12L52.7 13.35L52.7 13.3L52.1 14.5L51 15.5L49.3 15.95Q48.2 15.95 47.55 15.5Q46.85 15.1 46.5 14.5L45.85 13.25L45.4 12L45.4 12.05L41.3 0.9L41.15 0.35L40.9 -0.45Q40.6 -1.25 40.9 -2L41.55 -3.05M41.95,-0.85L44.55 -0.7L44.6 -0.9Q44.9 -3 42.55 -2.95Q42.05 -2.95 41.8 -2.4Q41.4 -1.55 41.95 -0.85M54.25,-0.55L54.45 -0.4L57.1 -0.6L57.15 -0.8Q57.05 -2.75 54.8 -2.45Q54.05 -2.35 54.1 -1.45L54.25 -0.55" />
<path style="fill:#FFFFFF;fill-opacity:1" d="M41.8,-2.4Q42.05 -2.95 42.55 -2.95Q44.9 -3 44.6 -0.9L44.55 -0.7L41.95 -0.85Q41.4 -1.55 41.8 -2.4M54.1,-1.45Q54.05 -2.35 54.8 -2.45Q57.05 -2.75 57.15 -0.8L57.1 -0.6L54.45 -0.4L54.25 -0.55L54.1 -1.45" />
<linearGradient
id="LinearGradID_603" gradientUnits="userSpaceOnUse" gradientTransform="matrix(0, 0.00823975, -0.00872803, 0, 17.7, 12.25)" spreadMethod ="pad" x1="-819.2" y1="0" x2="819.2" y2="0" >
<stop  offset="0" style="stop-color:#FFF980;stop-opacity:1" />
<stop  offset="1" style="stop-color:#E7950A;stop-opacity:1" />
</linearGradient>
<path style="fill:url(#LinearGradID_603) " d="M24.1,20.85Q23.4 21.5 22.1 21.5L13.7 21.5Q12.05 21.5 11.35 20.7Q10.55 20 10.55 18.35L10.55 5.15Q10.55 3.65 11.3 2.9Q12 2.05 13.3 2.05Q14.45 2.05 15.25 2.85Q16.05 3.55 16.05 5.15L16.05 16.65L22.1 16.65Q23.4 16.65 24.1 17.3Q24.85 18 24.85 19.1Q24.85 20.15 24.1 20.85M12.2,5.55L13.1 6.1Q13.75 6.35 14.25 5.9Q14.75 5.45 14.7 4.75L14.5 4.2L14.3 4.05L12.75 3.9Q12.1 3.95 12.1 4.65L12.2 5.55" />
<path style="fill:#FFFFFF;fill-opacity:1" d="M12.1,4.65Q12.1 3.95 12.75 3.9L14.3 4.05L14.5 4.2L14.7 4.75Q14.75 5.45 14.25 5.9Q13.75 6.35 13.1 6.1L12.2 5.55L12.1 4.65" />
<linearGradient
id="LinearGradID_604" gradientUnits="userSpaceOnUse" gradientTransform="matrix(0, 0.00691223, -0.00872803, 0, 17.7, 13.7)" spreadMethod ="pad" x1="-819.2" y1="0" x2="819.2" y2="0" >
<stop  offset="0" style="stop-color:#FFF980;stop-opacity:1" />
<stop  offset="1" style="stop-color:#E7950A;stop-opacity:1" />
</linearGradient>
<path style="fill:url(#LinearGradID_604) " d="M39.4,5.95Q39.7 6.2 39.85 7.1Q39.75 8.5 39.4 8.75L39.35 8.8Q38.75 9.3 37.45 9.3L30.6 9.3L30.6 11.15L36.8 11.15Q38.05 11.15 38.65 11.7L38.7 11.75Q39.4 12.3 39.4 13.1Q39.4 13.95 38.7 14.5Q38.15 15.05 36.8 15.05L30.6 15.05L30.6 17.5L37.7 17.5Q39 17.5 39.6 18L39.65 18.05L40.1 18.55L40.35 19.5L40.1 20.45L39.65 20.95L39.6 21Q39 21.5 37.7 21.5L28.25 21.5Q26.55 21.5 25.9 20.8L25.95 20.8Q25.15 20.2 25.15 18.85L25.15 8Q25.15 7.2 25.45 6.7Q25.75 6 26.6 5.7L26.7 5.65L28.25 5.4L37.45 5.4Q38.75 5.4 39.35 5.9L39.4 5.95M39,6.95Q38 6.35 36.75 6.5L36.5 6.7Q35.85 8.65 38.7 8.25L38.8 8.05L39.1 7.45L39.15 7.15L39 6.95M26.9,7.3Q27 8.1 27.75 8.4L28 8.3Q30.25 7.1 28 6.5L27.75 6.55Q27.25 6.7 26.9 7L26.9 7.3" />
<path style="fill:#FFFFFF;fill-opacity:1" d="M39.15,7.15L39.1 7.45L38.8 8.05L38.7 8.25Q35.85 8.65 36.5 6.7L36.75 6.5Q38 6.35 39 6.95L39.15 7.15M26.9,7Q27.25 6.7 27.75 6.55L28 6.5Q30.25 7.1 28 8.3L27.75 8.4Q27 8.1 26.9 7.3L26.9 7" />
</g>
</svg>
