<?xml version="1.0" encoding="utf-8"?>
<svg version="1.1" id="Layer_1"
xmlns="http://www.w3.org/2000/svg"
xmlns:xlink="http://www.w3.org/1999/xlink"
xmlns:author="http://www.sothink.com"
width="22px" height="25px"
xml:space="preserve">
<g id="1454" transform="matrix(1, 0, 0, 1, 7.6, 10.45)">
<path style="fill:#101010;fill-opacity:1" d="M12.35,4.85L12.5 5.05L12.2 6.6L12.2 7Q12.2 8 12.7 8.85L13.5 9.8L14.05 10.2L13.85 10.65Q13.4 11.1 12.45 11.15Q11.55 11.2 10.4 10.75L10.3 11.25Q9.7 13.1 8.45 13.7Q7.25 14.25 7.3 13.1Q7.3 11.95 6.95 11.1Q6.55 10.25 5.15 9.85Q4.8 10.9 4.95 11.9L5.25 13.25Q3.85 13.8 2.6 12.9Q1.35 12 1.1 10.65Q-0.7 11.65 -0.8 13.35Q-1.55 13.4 -2 12.35L-2.55 10.45L-5.7 10.4Q-7.1 9.65 -7.45 8.4Q-7.75 7.2 -7.35 7L-7.3 7Q-4.8 7.7 -3.65 6.6L-3.45 6.4Q-1.25 0.6 5.65 1.45Q8.2 1.6 10.15 3.35Q11.2 4.3 11.65 5.55L12.15 4.75L12.35 4.85M11.55,5.95Q8 1.5 2 2.35Q0.7 2.5 -0.25 3.35L-2.6 5.7Q-2.25 6.3 -2.95 7.05L-3.4 7.45L-3.55 7.6L-3.75 7.7L-6.7 7.95L-6.6 8.4Q-6.15 9.6 -5.1 9.9L-3.65 10.1L-3.1 9.9Q-2.4 9.5 -2.1 8.9Q-1.95 8.3 -0.95 7.5L-0.75 7.55L-0.7 7.6L-0.85 7.8Q-2 9.55 -1.3 12.1L-1.2 12.1Q-1.15 11.45 -0.75 10.95L-0.15 10.25Q0.35 9.9 1.1 9.7Q1.2 8.8 2.05 8L2.2 7.9L2.15 7.95L2.05 8.35Q1.75 9.95 2.25 11.1Q2.7 12.05 3.9 12.5L4.25 12.6Q3.75 11.5 4 10.45Q4.15 9.7 4.75 8.9L5.3 8.3L5.65 7.95L5.7 8L5.65 8.55L5.55 8.85Q8.05 9.85 8.2 12L8.15 12.85L8.15 12.9Q9.25 12.05 9.6 10.75L9.95 8.7L9.95 8.55Q10.4 9.05 10.5 9.7Q11.5 10.25 12.4 10.25L12.8 10.2Q11.9 9.55 11.65 8.1L11.55 7.75Q11.4 6.55 11.55 5.95" />
<path style="fill:#1E1415;fill-opacity:1" d="M-5.35,9.15L-5.05 9.2L-3.35 8.85L-2.4 8.15Q-2.4 7.5 -2.95 7.05Q-2.25 6.3 -2.6 5.7L-0.25 3.35Q0.7 2.5 2 2.35Q8 1.5 11.55 5.95Q11.4 6.55 11.55 7.75L11.55 7.8L10.45 8.4L11.15 9.55Q11.7 10.1 12.4 10.25Q11.5 10.25 10.5 9.7Q10.4 9.05 9.95 8.55L9.95 8.7L9.55 9.2L8.65 9.6L7.9 9.7L8.15 10.2L8.35 11.9L8.35 11.95L8.15 12.85L8.2 12Q8.05 9.85 5.55 8.85L5.65 8.55L5.7 8L5.65 7.95L5.3 8.3L4.75 8.9Q4.35 8.5 3.8 8.2L3.35 8L3.3 8.1L3.15 8.35Q2.8 9.1 2.8 10Q2.85 10.9 3.25 11.7L3.9 12.5Q2.7 12.05 2.25 11.1Q1.75 9.95 2.05 8.35L2.15 7.95L2.2 7.9L2.05 8Q1.2 8.8 1.1 9.7Q0.35 9.9 -0.15 10.25L-0.75 10.95L-0.65 10.3L-0.2 9.25Q0.45 8.15 1.3 7.9Q0.8 7.4 0 7.45L-0.7 7.6L-0.75 7.55L-0.95 7.5Q-1.95 8.3 -2.1 8.9Q-2.4 9.5 -3.1 9.9L-3.65 10.1L-5.1 9.9Q-6.15 9.6 -6.6 8.4Q-6.1 8.95 -5.35 9.15" />
<path style="fill:#3F3437;fill-opacity:1" d="M11.15,9.55L10.45 8.4L11.55 7.8L11.55 7.75L11.65 8.1Q11.9 9.55 12.8 10.2L12.4 10.25Q11.7 10.1 11.15 9.55M4.75,8.9Q4.15 9.7 4 10.45Q3.85 10.7 3.85 11.1L3.85 11.2Q2.95 10.05 3.25 8.3L3.3 8.1L3.35 8L3.8 8.2Q4.35 8.5 4.75 8.9M-0.85,7.8L-0.7 7.6L0 7.45Q0.8 7.4 1.3 7.9Q0.45 8.15 -0.2 9.25L-0.65 10.3L-1.05 10.65L-1.1 10.65Q-1.25 9.25 -0.85 7.8M-2.4,8.15L-3.35 8.85L-5.05 9.2L-5.35 9.15L-5.8 8.45L-4.9 8.45Q-4.05 8.35 -3.75 7.7L-3.55 7.6L-3.4 7.45L-2.95 7.05Q-2.4 7.5 -2.4 8.15M8.35,11.9L8.15 10.2L7.9 9.7L8.65 9.6L9.55 9.2L9.4 10.2L8.55 11.7L8.35 11.95L8.35 11.9" />
<path style="fill:#695F62;fill-opacity:1" d="M8.35,11.95L8.55 11.7L9.4 10.2L9.55 9.2L9.95 8.7L9.6 10.75Q9.25 12.05 8.15 12.9L8.15 12.85L8.35 11.95M3.25,11.7Q2.85 10.9 2.8 10Q2.8 9.1 3.15 8.35L3.3 8.1L3.25 8.3Q2.95 10.05 3.85 11.2L3.85 11.1Q3.85 10.7 4 10.45Q3.75 11.5 4.25 12.6L3.9 12.5L3.25 11.7M-1.1,10.65L-1.05 10.65L-0.65 10.3L-0.75 10.95Q-1.15 11.45 -1.2 12.1L-1.3 12.1Q-2 9.55 -0.85 7.8Q-1.25 9.25 -1.1 10.65M-6.6,8.4L-6.7 7.95L-3.75 7.7Q-4.05 8.35 -4.9 8.45L-5.8 8.45L-5.35 9.15Q-6.1 8.95 -6.6 8.4" />
<path style="fill:#1C202A;fill-opacity:1" d="M-2.8,2.65Q-2.4 0.55 -1.15 -0.8Q-0.25 -1.85 1.1 -2.45L2.15 -2.75L2.2 -2.8L4.85 -3.2Q8.5 -3.1 10.45 -1.5L10.55 -1.45L11 -1L11.25 -0.65L11.9 0.15L12.75 1.9L12 2.3L10.6 0.25L10.1 -0.25Q6.95 -3.05 2.7 -1.75Q-0.1 -1.05 -1.2 1.2L-1.4 1.65L-1.65 2.25L-2.55 2.5L-2.8 2.65" />
<path style="fill:#61666C;fill-opacity:1" d="M1.45,-0.4Q4.25 -0.2 6.55 -1L6.5 -1.15L5.45 -1.55Q2.9 -1.9 1.25 -0.5Q1.15 -0.4 1.45 -0.4M-1.4,1.65L-1.2 1.2Q-0.1 -1.05 2.7 -1.75Q6.95 -3.05 10.1 -0.25L9.75 0.2L8.45 1.35Q7.75 1.85 6.9 1.8L5.2 1.45L3.65 1L2.85 0.85L1.1 0.85L-0.5 1.2L-1.4 1.65" />
<path style="fill:#872C09;fill-opacity:1" d="M11.25,-0.65L11 -1L11.05 -3.55Q10.8 -4.05 8.35 -4.7Q5.9 -5.3 2.9 -4.6Q2 -4.2 2 -3.5L2.1 -2.95L2.15 -2.75L1.1 -2.45Q0.9 -3.95 1.25 -4.65L2.45 -5.35L3.9 -5.7Q6.2 -6.05 8.05 -5.7L10.6 -5L11.1 -4.8Q12.25 -4.25 12.35 -3.45L11.9 0.15L11.25 -0.65M-2.55,2.5L-1.65 2.25L-1.25 2.05L1.55 2Q3.7 2.05 6.1 3.4L7.9 4.5L9.7 3.55L12 2.3L12.75 1.9L12.8 1.85Q13.35 1.85 13.75 2.4L13.8 2.55L14.2 3.45L14.05 4.6L12.6 5.95L11.5 6.75Q9.25 8.35 8.55 8.5L7.45 8.45L6.4 7.95L4.7 6.75Q3.5 5.9 1.25 5.65Q-0.25 5.5 -1.45 6.1L-1.6 6.15L-2.5 6.85L-2.6 7Q-3.3 7.9 -4.25 7.65Q-6.15 6.65 -5.45 5.6Q-4.5 3.55 -2.9 2.7L-2.8 2.65L-2.55 2.5M13.25,2.95Q13.1 2.7 13 2.75L12.8 2.9Q12.45 3 11.65 3.55L11.5 3.65L9.45 4.85Q8.4 5.45 7.8 5.35Q7.15 5.2 5.8 4.3L4.95 3.8L3.7 3.3L2.75 3Q1.05 2.6 -0.65 2.95L-1.2 3.1L-1.3 3.1L-1.45 3.15Q-2.45 3.4 -2.9 3.8L-3.15 3.95Q-4.6 5.1 -4.65 6.15Q-3.9 7.15 -3.1 6.3Q-2.55 5.65 -1.55 5.25L-1.4 5.2L-0.7 5L3.1 5.15L4.65 5.8L6.15 6.75Q7.3 7.65 8.55 7.45Q9.7 7.25 12.65 4.85L12.95 4.65L13.1 4.5L13.4 4L13.45 3.55L13.3 3L13.25 2.95" />
<path style="fill:#E29E36;fill-opacity:1" d="M10.45,-1.5L10.4 -3.45Q9.15 -4.15 8.5 -4.05Q7.9 -4 8 -3.6Q8.15 -3.15 6.45 -3.45L3.6 -3.4L2.1 -2.95L2 -3.5Q2 -4.2 2.9 -4.6Q5.9 -5.3 8.35 -4.7Q10.8 -4.05 11.05 -3.55L11 -1L10.55 -1.45L10.45 -1.5M6.55,-4.5L6.55 -4.55Q4.6 -4.75 3.15 -4L7.3 -4.3Q7.1 -4.65 6.55 -4.5M13.3,3L13.45 3.55L13.4 4L13.1 4.5L12.95 4.65L12.65 4.85Q9.7 7.25 8.55 7.45Q7.3 7.65 6.15 6.75L4.65 5.8L3.1 5.15L-0.7 5L-1.4 5.2L-1.55 5.25Q-2.55 5.65 -3.1 6.3Q-3.9 7.15 -4.65 6.15Q-4.6 5.1 -3.15 3.95L-2.9 3.8Q-2.45 3.4 -1.45 3.15L-1.3 3.1L-1.2 3.1L-0.65 2.95Q1.05 2.6 2.75 3L3.7 3.3L4.95 3.8L5.8 4.3Q7.15 5.2 7.8 5.35Q8.4 5.45 9.45 4.85L11.5 3.65L11.65 3.55Q12.45 3 12.8 2.9L13 2.75Q13.1 2.7 13.25 2.95L13.3 3M12.95,3.25L12.3 3.7L9.95 5.15L8.6 5.8Q7.45 6.1 5.1 4.4L4.95 5.45Q7.85 7.4 8.8 7Q10.35 6.5 12.65 4.55L13 4.25L12.95 3.25M2.45,3.7L4.15 3.9L2.75 3.35L1.1 3.2L-0.5 3.35L-1.45 3.6L-2 3.8L-3.2 4.55L-4 5.4Q-4.25 5.8 -3.95 5.9Q-3.75 6 -3.45 5.65L-2.4 4.75L-1.5 4.25L-0.9 4.1L0.7 3.75L2.45 3.7" />
<path style="fill:#D74B25;fill-opacity:1" d="M3.6,-3.4L6.45 -3.45Q8.15 -3.15 8 -3.6Q7.9 -4 8.5 -4.05Q9.15 -4.15 10.4 -3.45L10.45 -1.5Q8.5 -3.1 4.85 -3.2L2.2 -2.8L2.15 -2.75L2.1 -2.95L3.6 -3.4M13,4.25L12.65 4.55Q10.35 6.5 8.8 7Q7.85 7.4 4.95 5.45L5.1 4.4Q7.45 6.1 8.6 5.8L9.95 5.15L12.3 3.7L12.95 3.25L13 4.25" />
<path style="fill:#F7DA7D;fill-opacity:1" d="M7.3,-4.3L3.15 -4Q4.6 -4.75 6.55 -4.55L6.55 -4.5Q7.1 -4.65 7.3 -4.3M0.7,3.75L-0.9 4.1L-1.5 4.25L-2.4 4.75L-3.45 5.65Q-3.75 6 -3.95 5.9Q-4.25 5.8 -4 5.4L-3.2 4.55L-2 3.8L-1.45 3.6L-0.5 3.35L1.1 3.2L2.75 3.35L4.15 3.9L2.45 3.7L0.7 3.75" />
<path style="fill:#2D343C;fill-opacity:1" d="M9.7,3.55L7.9 4.5L6.1 3.4Q3.7 2.05 1.55 2L-1.25 2.05L-1.65 2.25L-1.4 1.65L-0.5 1.2L1.1 0.85L2.85 0.85L3.65 1L5.2 1.45L6.9 1.8Q7.75 1.85 8.45 1.35L9.75 0.2L10.1 -0.25L10.6 0.25L12 2.3L9.7 3.55" />
<path style="fill:#969BA1;fill-opacity:1" d="M1.25,-0.5Q2.9 -1.9 5.45 -1.55L6.5 -1.15L6.55 -1Q4.25 -0.2 1.45 -0.4Q1.15 -0.4 1.25 -0.5" />
<path style="fill:#000000;fill-opacity:1" d="M0.4,-3.45Q-1.1 -4.4 -1.8 -5.95Q-2.55 -7.55 -2.85 -9.05Q-3.05 -9.2 -3.9 -7.95Q-4.75 -6.7 -4.95 -5.2Q-5.25 -3.65 -4.8 -2.45Q-4.5 -1.2 -3.65 -0.6Q-2.1 0.7 -0.55 0.6Q1.05 0.45 1.45 -0.9Q1.85 -2.45 0.4 -3.45M2.45,-0.8Q2.15 0.65 0.35 1.35Q-1.45 2.1 -3.5 0.8Q-5.7 -0.6 -5.95 -2.95Q-6.2 -5.4 -5.7 -6.6L-4.4 -8.9Q-3.65 -10 -3 -10.35Q-2.35 -10.7 -2.1 -9.8L-1.35 -7.35Q-0.85 -5.75 0.25 -4.85L2 -3.15Q2.65 -2.35 2.45 -0.8" />
<path style="fill:#414141;fill-opacity:1" d="M1.45,-0.9Q1.05 0.45 -0.55 0.6Q-2.1 0.7 -3.65 -0.6Q-4.5 -1.2 -4.8 -2.45Q-5.25 -3.65 -4.95 -5.2Q-4.75 -6.7 -3.9 -7.95Q-3.05 -9.2 -2.85 -9.05Q-2.55 -7.55 -1.8 -5.95Q-1.1 -4.4 0.4 -3.45Q1.85 -2.45 1.45 -0.9M1.1,-2.15Q0.85 -1.45 -0.1 -1.5Q-1 -1.6 -1.75 -2.05L-3 -3.25L-3.8 -4.7L-3.95 -5.65L-4.25 -4.35L-4.3 -2.75Q-4.2 -1.85 -3.65 -1.2L-2.25 -0.25Q-1.5 0.15 -0.65 0.15Q0.1 0.15 0.65 -0.6Q1.15 -1.25 1.1 -2.15M-3.1,-7.85Q-3.45 -8 -3.25 -6.45Q-2.8 -4.95 -2.2 -4.45Q-1.65 -3.95 -1.6 -4.1L-2.45 -6.2Q-2.85 -7.7 -3.1 -7.85" />
<path style="fill:#232323;fill-opacity:1" d="M0.65,-0.6Q0.1 0.15 -0.65 0.15Q-1.5 0.15 -2.25 -0.25L-3.65 -1.2Q-4.2 -1.85 -4.3 -2.75L-4.25 -4.35L-3.95 -5.65L-3.8 -4.7L-3 -3.25L-1.75 -2.05Q-1 -1.6 -0.1 -1.5Q0.85 -1.45 1.1 -2.15Q1.15 -1.25 0.65 -0.6" />
<path style="fill:#6D6969;fill-opacity:1" d="M-2.45,-6.2L-1.6 -4.1Q-1.65 -3.95 -2.2 -4.45Q-2.8 -4.95 -3.25 -6.45Q-3.45 -8 -3.1 -7.85Q-2.85 -7.7 -2.45 -6.2" />
</g>
</svg>
