<?xml version="1.0" encoding="utf-8"?>
<svg version="1.1" id="Layer_1"
xmlns="http://www.w3.org/2000/svg"
xmlns:xlink="http://www.w3.org/1999/xlink"
xmlns:author="http://www.sothink.com"
width="165px" height="138px"
xml:space="preserve">
<g id="932" transform="matrix(1, 0, 0, 1, 0, 0)">
<path style="fill:#FFED65;fill-opacity:1" d="M163,76.5L162.75 77.9L161.75 78.15Q160.95 78.15 160.25 77.65Q159.25 76.95 159.25 75.65L159.25 74.4Q159.4 73.65 160.25 73.65Q161.75 73.65 162.6 74.4Q163 75.2 163 76.5M164.75,84.4L163.5 84.4L162.75 83.3Q162.5 82.9 162.5 82.15L162.5 81.15L162.7 80.7L163.1 80.95L164.75 82.15L164.75 84.4" />
<path style="fill:#7D5C91;fill-opacity:0.501961" d="M149.25,35.3L149.1 37.75L148.8 40Q144.2 30.55 135.95 22.6Q131.9 18.7 127.5 15.65L126.25 11.3Q126.25 10.25 127.2 9.8Q133.6 13.75 139.35 19.3Q144.9 24.65 148.9 30.65L149.25 35.3" />
<path style="fill:#4A566E;fill-opacity:0.301961" d="M91,4.6Q64.7 4.6 46.2 22.6Q27.7 40.55 27.75 66.05Q27.8 91.55 46.4 109.5Q65 127.5 91.3 127.5Q117.65 127.5 136.15 109.5Q154.65 91.55 154.6 66.05Q154.55 51.85 148.8 40L149.1 37.75L149.25 35.3L148.9 30.65Q159.35 46.2 159.4 66Q159.45 93.4 139.55 112.7Q119.65 132 91.35 132Q63.1 132 43.1 112.7Q23.1 93.4 23.05 66Q23 38.6 42.9 19.3Q62.8 0 91.05 0Q111.2 0 127.2 9.8Q126.25 10.25 126.25 11.3L127.5 15.65Q111.6 4.6 91 4.6" />
<path style="fill:#FFE58D;fill-opacity:1" d="M125.5,29.65Q124.95 30.65 123 30.65Q121.3 30.65 120.5 30.15Q119.5 29.55 119.5 28.05Q119.5 26.75 120.1 25.5Q120.45 24.75 120.95 24.3L123.2 25Q125.75 25.75 125.75 27.9L125.5 29.65" />
<path style="fill:#FBE947;fill-opacity:1" d="M105.1,72.3Q106 73.4 106 74.65Q106 77.15 103.75 77.15Q102.45 77.15 102 76.65Q101.5 76.15 101.5 74.75Q101.5 73.8 102.2 73.15L103.75 71.9L104.75 71.9L104.9 72.05L105.1 72.3M91,85.4Q92.7 85.4 94.25 86.65Q95.7 87.8 95.95 89.4L92.75 89.4L92.75 92.65L91.1 92.9Q90.45 92.9 87.75 91.15Q85 89.4 85 88.9Q85 87.45 87 86.4Q88.85 85.4 91 85.4M83.1,90.6L84.05 91.65Q84.75 92.75 84.75 93.5L84.75 94.4Q84.55 94.9 83.6 94.9Q82 94.9 82 92.25Q82 91 82.5 90.6L83 90.45L83.1 90.6" />
<path style="fill:#DEAD20;fill-opacity:1" d="M113.5,69.4L113.9 69.55L114.25 70.15L114.25 71.9L112.25 71.9L112.25 69.4L113.5 69.4M100,55.4Q98.85 55.3 97.45 54.15Q96 53 96 52.05Q96 51.15 96.5 50.5L97.05 49.9L97.9 50.55Q99.6 51.95 100 52.9L100 55.4M91.35,56.15Q89.75 56.15 89.75 54.65Q89.75 53.9 90.25 53.4L90.75 53.4Q92.2 53.8 92.75 55.05L92.5 55.9L91.35 56.15M94.25,57.4L94.85 57.2L95 57.25L96.3 58.3L96.75 59.4L96.75 61.15Q95.65 61.15 94.8 60.6Q93.75 59.95 93.75 58.9Q93.75 57.75 94.25 57.4M83.5,58.5L83.55 57.65L84.5 56.9L87 56.9L87.3 57.2Q88 57.85 88 58.25L87.75 59.4Q87.35 59.9 86.1 59.9L84.5 59.65Q83.5 59.25 83.5 58.5M87.95,64.2Q88.5 64.8 88.5 65.75L88.25 66.9L87 66.9Q85.85 66.65 85.6 66.05L85.5 64.75Q85.5 63.9 86 63.4L86.45 63.4L86.65 63.65Q87.45 63.7 87.95 64.2M95.85,68.9L94 68.65Q92.25 68 92.25 66Q92.25 64.65 92.75 64.15Q93.15 63.7 94 63.65Q94.95 63.9 95.85 64.55Q97.5 65.75 97.5 67.15L97.25 68.4Q96.9 68.9 95.85 68.9M113.45,75.4L113.65 75.6Q114.25 76.3 114.25 77.15L114.15 77.7Q114 77.9 114 78.15L112.5 78.15Q112 77.65 112 77L112.25 75.15L113.15 75.15L113.25 75.25Q113.3 75.4 113.45 75.4" />
<path style="fill:#EDEE2E;fill-opacity:1" d="M8.65,65.4Q22.75 65.4 22.75 72.5Q22.75 73.7 21 74.9Q19.15 76.15 16.9 76.15L11.5 75.4Q6.5 74.3 6.5 72.5L6.9 71.95Q7.25 71.45 7.25 70.4Q6.4 68.1 6.3 66.7L6.6 66.35Q7.55 65.4 8.65 65.4" />
<path style="fill:#ECD899;fill-opacity:1" d="M3.25,98.65L3.25 99.65Q3.05 100.15 1.9 100.15Q0 100.15 0 98.4Q0 96.65 1.9 96.65L3.05 97.05L3.15 97.3Q3.4 97.95 3.25 98.65" />
<path style="fill:#FFFF5E;fill-opacity:1" d="M66.5,71.7L66.75 71.95Q67.75 73.05 67.75 74.5Q67.75 76.4 66.75 76.4Q66.2 76.4 65.5 75.9Q64.5 75.1 64.5 73.65Q64.5 71.65 66 71.65L66.5 71.7M59.7,70.6Q60.75 72.2 60.75 73.9L60.75 75.4Q60.55 76.4 59.4 76.4Q58.6 76.4 57.5 75.4Q56 74 56 71.65Q56 68.85 58 68.65Q58.95 69.45 59.7 70.6" />
<path style="fill:#C6804C;fill-opacity:1" d="M77.7,70.35L77.95 70.6Q78.5 71.4 78.5 72L78.25 73.4Q77.2 73.45 76.55 72.8Q76 72.25 76 71.5Q76 71 76.55 70.6Q77.05 70.3 77.7 70.35M75.5,78.25Q75 77.8 75 77.4Q75 77.05 75.15 76.65L75.25 76.15L76.1 76.15L76.4 76.5Q77 77.2 77 78L76.75 78.9L75.5 78.25" />
<path style="fill:#F9ED81;fill-opacity:1" d="M52.95,84.45Q54.5 85.75 54.5 87L54.25 88.65Q53.75 89.65 52.15 89.65Q50.5 89.65 49.75 89.15Q48.75 88.45 48.75 86.65Q48.75 85.1 49.75 84.65L51.75 84.4L52.95 84.45M62.6,109.1L62.75 109.2L64.8 110.65Q67.25 112.65 67.25 114L67 115.4L65.75 115.4Q63.25 114.45 61.35 112.9Q59.25 111.2 59.25 109.75Q59.25 109.15 59.5 108.65L61.25 108.65Q61.8 108.7 62.55 109.1L62.6 109.1" />
<path style="fill:#D9E529;fill-opacity:1" d="M17,104.15L19.3 104.65Q20 106.2 20 108.25Q20 110.1 19.25 111.65Q18.05 114.15 15.25 114.15L13.5 113.9L13.5 110.15Q13.9 107.8 14.35 106.5Q15.1 104.15 17 104.15" />
<path style="fill:#FDFD4D;fill-opacity:1" d="M131.15,129.8Q129.55 127.8 127.35 127.2L128.4 124.35L128.85 123.35L129.35 122.6Q129.75 121.7 130.1 121.5L131.6 121.4Q134.75 121.4 134.75 125.9L132.75 131.55L132.5 132.2L131.15 129.8" />
<path style="fill:#F8EF88;fill-opacity:1" d="M127.35,127.2Q129.55 127.8 131.15 129.8L132.5 132.2Q130.25 137.15 128.35 137.15L124.5 136.65Q122 135.95 122 134.5Q122 134.2 122.5 133L123.25 131.4Q123.5 130.9 125 129.85L127 128.15L127.35 127.2" />
<path style="fill:#FFFE2C;fill-opacity:1" d="M111.1,107.1Q113.75 108.95 113.75 112.15Q113.75 116.4 110.75 116.4Q108.45 116.4 106.75 114.9Q104.75 113.15 104.75 110.15Q104.75 108.1 105.4 107.1Q105.85 106.4 107.25 105.65L107.65 105.65Q109.6 106.05 111.1 107.1" />
</g>
</svg>
