<?xml version="1.0" encoding="utf-8"?>
<svg version="1.1" id="Layer_1"
xmlns="http://www.w3.org/2000/svg"
xmlns:xlink="http://www.w3.org/1999/xlink"
xmlns:author="http://www.sothink.com"
width="71px" height="38px"
xml:space="preserve">
<g id="719" transform="matrix(1, 0, 0, 1, 0, 0)">
<path style="fill:#B65E19;fill-opacity:1" d="M62.95,32.3L63.3 27.25L63.9 18.4L64.75 6Q41.05 4.25 32.2 5.15Q23.35 6.05 12.7 8.1L6.3 9.75L6.45 10.9L9.5 36.4L3.4 37.1L0 6.2L5.6 4.75Q12.9 2.95 23.5 1.4Q34.1 -0.2 45.35 0.05Q56.55 0.25 70.25 2.5L69.2 16.85Q68.3 26.35 68.05 32.55L64.5 32.35L62.95 32.3" />
<path style="fill:#DE9A2D;fill-opacity:1" d="M15.1,35.75L11.5 16.5Q13.6 14.95 19.9 13.65Q26.25 12.3 31.45 12.3Q36.6 12.3 34.75 12.4Q27.5 14.8 26.2 20.75L33.55 20.75L31.4 22.2Q29.8 23.3 29.9 25.25L35.9 25.5L35.9 28.5L59.25 29.75L61.65 32.4L28.95 34.15L15.1 35.75" />
<path style="fill:#E6BE45;fill-opacity:1" d="M62.95,32.3L61.65 32.4L59.25 29.75L35.9 28.5L35.9 25.5L29.9 25.25Q29.8 23.3 31.4 22.2L33.55 20.75L26.2 20.75Q27.5 14.8 34.75 12.4Q36.6 12.3 31.45 12.3Q26.25 12.3 19.9 13.65Q13.6 14.95 11.5 16.5L15.1 35.75L9.5 36.4L6.45 10.9Q13.2 9.1 21.8 8.4L42.45 7.3Q51.55 7.1 58.25 9.65Q59.3 11.9 58 15L57.95 15.25L60.55 15.25Q61 15.55 60.8 16.5L60.8 16.75L63.3 27.25L62.95 32.3" />
<path style="fill:#FAE49E;fill-opacity:1" d="M6.3,9.75L12.7 8.1Q23.35 6.05 32.2 5.15Q41.05 4.25 64.75 6L63.9 18.4L63.3 27.25L60.8 16.75L60.8 16.5Q61 15.55 60.55 15.25L57.95 15.25L58 15Q59.3 11.9 58.25 9.65Q51.55 7.1 42.45 7.3L21.8 8.4Q13.2 9.1 6.45 10.9L6.3 9.75" />
<path style="fill:#69421E;fill-opacity:1" d="M47.65,15.65L49.4 15.65L50.65 15.65L51.15 15.7L51.2 16.95L51.15 18.15L51.15 18.2L49.65 18.35L48.1 18.35L46.6 18.4L46.5 18.4L46.45 19.45L46.55 20.45L47.6 20.5L48.7 20.5L48.7 20.55L48.75 21.7L48.75 22.95L47.9 23.05L47.1 23.05L46.6 23.15L46.55 24.3L46.6 25.35L46.65 25.35L48.9 25.4L51.2 25.45L51.25 26.6L51.05 27.75L47.45 27.8L43.9 27.7L43.85 21.75L43.95 15.8L45.7 15.7L47.65 15.65M42.35,17.55Q42.8 18.4 42.65 19.7L42.6 19.7L41.3 19.85L40 19.75Q40.05 19.3 39.75 19Q39.5 18.7 39.05 18.65L38.25 18.7Q37.85 18.95 37.8 19.45L37.75 19.65L37.85 19.9L38.3 20.45L38.95 20.6Q39.9 20.65 40.75 21.15Q41.5 21.6 42.05 22.35L42.7 23.45L42.8 24.75L42.5 26.05L41.7 27.25L40.55 27.95L39.2 28.2L37.65 27.95Q36.9 27.75 36.25 27.3L35.3 26.25Q34.95 25.6 34.95 24.75L34.95 24.65L36.25 24.55L37.6 24.55L38.1 25.4L38.95 25.6Q39.45 25.6 39.75 25.3Q40.1 24.95 39.95 24.35Q39.85 23.8 39.4 23.55L38.45 23.15L37.4 23L36.75 22.8L36.2 22.45Q35.35 21.7 35.1 20.8Q34.85 19.9 35 19Q35.15 18.1 35.75 17.35Q36.25 16.65 37.1 16.25Q37.7 16 38.35 15.9L39.75 15.95L41 16.3Q41.85 16.7 42.35 17.55M58.7,16.1Q59.55 16.55 59.95 17.45Q60.3 18.35 60.05 19.65L60 19.65L58.7 19.65L57.4 19.45Q57.5 19 57.25 18.7Q57 18.35 56.55 18.3Q56.1 18.15 55.75 18.3Q55.35 18.5 55.25 18.95L55.2 19.2L55.25 19.4L55.7 20L56.3 20.2Q57.25 20.35 58.05 20.9L59.25 22.2L59.8 23.4L59.8 24.7L59.4 25.95L58.55 27.1L57.3 27.7L55.95 27.8L54.4 27.45L53.1 26.7Q52.5 26.2 52.25 25.55Q51.9 24.9 52 24.05L52 23.95L53.3 23.95L54.65 24.05Q54.7 24.6 55.05 24.95L55.9 25.2Q56.4 25.25 56.7 24.95Q57.1 24.65 57 24.05Q56.95 23.5 56.55 23.2L55.6 22.75L54.55 22.5L53.95 22.2L53.4 21.85Q52.65 21 52.45 20.1Q52.25 19.2 52.5 18.3Q52.75 17.4 53.35 16.75L54.8 15.75L56.05 15.55L57.45 15.65L58.7 16.1M28.95,16.8L30.2 16.45L31.6 16.5L32.85 16.9Q33.7 17.25 34.2 18.1Q34.6 18.95 34.45 20.3L34.4 20.3L33.1 20.4L31.8 20.3Q31.9 19.85 31.6 19.55Q31.3 19.25 30.85 19.2L30.05 19.25Q29.65 19.45 29.65 20L29.6 20.2L29.65 20.45L30.1 20.95L30.75 21.15Q31.75 21.2 32.55 21.7Q33.3 22.15 33.85 22.9L34.45 24.05L34.55 25.35L34.25 26.65L33.5 27.8L32.3 28.5L30.95 28.75L29.4 28.5L28 27.85L27.1 26.75Q26.7 26.1 26.75 25.25L26.75 25.15L28.05 25.1L29.4 25.1Q29.45 25.65 29.85 25.95L30.7 26.15Q31.2 26.15 31.5 25.8Q31.85 25.5 31.75 24.9L31.2 24.1L30.25 23.7L29.2 23.55L28.55 23.3L28 23Q27.15 22.2 26.9 21.3Q26.65 20.4 26.8 19.5Q27 18.6 27.55 17.9Q28.1 17.15 28.95 16.8M22.45,17.5Q23.35 17.55 24.05 18L24.6 18.45L24.95 18.95L25.15 19.45L25.35 20L25.5 20.85L25.6 21.7L25.8 23.5L25.95 25.25L26 25.8L25.95 27.1L25.6 28.25L24.9 29L23.95 29.55L23.05 29.85L22.05 30L20.65 29.85Q20 29.7 19.6 29L19.15 28.15L18.95 27.15L18.5 24.5L18.15 21.75L18.15 20.15Q18.25 19.35 18.65 18.65L18.85 18.5L19.1 18.3Q19.8 17.8 20.65 17.6L22.45 17.5M22.85,20.4L22.15 19.9L21.4 19.95Q21.1 20.05 20.85 20.3L20.4 20.9Q20.2 21.2 20.15 21.65L20.2 23L20.35 24.45L20.7 25.7L21.05 26.85Q21.3 27.25 21.8 27.4L22.8 27.4L23.65 26.75L23.85 26.3L23.85 25.9L23.8 25.15L23.75 24.55L23.75 24.25L23.45 22.25L23.4 22.05L23.3 21.7L23.25 21.25L22.85 20.4M14.1,21.5L13.35 21.55L12.7 21.75L12.8 22.75L13.05 23.85L13.8 23.8L14.55 23.6L15 23.1L15.15 22.55L15 22L14.55 21.6L14.1 21.5M13.5,18.65L15.2 18.9L16.55 19.9Q17.05 20.6 17.3 21.75L17.2 23.15L16.8 24.5L16.8 24.7L16.95 24.9L17.75 25.7L18.35 26.65L18.6 27.9Q18.5 29.15 17.9 29.8Q17.25 30.5 16.25 30.8L14.15 31.15L12.1 31.35L11.9 31.4L11.7 31.4L10.8 25.45L9.95 19.5L11.7 18.9L13.5 18.65M15.25,26.35L14.75 26.2L14.05 26.2L13.4 26.25L13.35 27.1L13.5 28L13.8 28.65L13.85 28.7L14.55 28.6L15.2 28.4L15.75 28L15.85 27.35L15.6 26.7L15.25 26.35" />
</g>
</svg>
