<?xml version="1.0" encoding="utf-8"?>
<svg version="1.1" id="Layer_1"
xmlns="http://www.w3.org/2000/svg"
xmlns:xlink="http://www.w3.org/1999/xlink"
xmlns:author="http://www.sothink.com"
width="12px" height="28px"
xml:space="preserve">
<g id="2696" transform="matrix(1, 0, 0, 1, -38, -0.4)">
<path style="fill:#FFFFFF;fill-opacity:1" d="M41.25,2.55L40.35 1.8L39.2 2.45L38.7 3L38.4 3.45Q39.4 4.65 39.85 6.05L39.9 6.25L40 6.8L40 6.85L40.55 9.05L42.7 11.15L42.95 10.65L43.4 9.65L43.75 8.6L43.7 7.3L43.2 5.45Q42.15 4.1 41.25 2.55M41.6,0.7L42.55 2.8Q43.7 4.3 44.55 6.25L44.55 6.35L44.7 6.65L44.8 6.8L44.75 7.25L44.65 7.45Q44.65 9.7 43.6 12L44.65 12.45L44.75 12.55Q43.8 12.4 42.15 15.5L41.85 16.1L41.75 16.4L41.65 16.5L41.65 16.45L41.4 16.9L41 17.8Q41.05 18.65 41.45 19.4L41.5 19.45L41.5 19.4L41.55 19.4L41.75 19.7Q42.95 20.7 44.35 21.5Q43.9 20.7 44.8 19.7L44.9 19.65Q45.3 20.55 44.65 21.65L44.7 21.7Q47 20.55 47.2 17.5Q45.95 18.1 45.75 18.65Q45.6 19.2 45.65 18.3Q45.7 17.35 46.55 16.9L47.35 16.55Q47.3 16.75 47.4 16.75L47.7 16.6Q49.7 16.85 49.55 17.2L49.6 17.3L49.65 17.4L48.95 18.1Q48.75 18.15 48.65 18.3Q47.2 20.9 47.65 22.05Q48 23.05 45.75 23.1Q46.15 23.8 46 24.55Q46.25 24.05 46.25 24.4L46.3 24.9L46.3 25.6L45.45 27.05Q44.6 28.1 43.65 27.65L42.7 27.1Q45.2 27.6 45.65 25.35Q45.2 24.2 45.2 23.15L45.1 23.15Q42.7 22.75 41.9 21L41.7 20.8L40.55 19.9L39.65 20.7L39.05 22.1Q38.95 20.1 39.55 19.3L40.05 18.7Q39.6 15.6 41.95 13.05L42.55 11.45Q40.35 10.45 39.8 8.65Q39.3 7.9 39.65 6.5Q38.2 5.05 38 3.05L38.05 3.05L38.15 3.1Q38.1 0.95 41.2 0.4L41.2 0.65L41.4 0.65L41.6 0.7M46.4,21.65L46.25 21.8L46.4 21.7L46.4 21.65" />
</g>
</svg>
