<?xml version="1.0" encoding="utf-8"?>
<svg version="1.1" id="Layer_1"
xmlns="http://www.w3.org/2000/svg"
xmlns:xlink="http://www.w3.org/1999/xlink"
xmlns:author="http://www.sothink.com"
width="99px" height="18px"
xml:space="preserve">
<g id="866" transform="matrix(1, 0, 0, 1, 22.35, 1.65)">
<path style="fill:#EDC9FF;fill-opacity:1" d="M4.2,-1.05L5 -1.05L6.55 -1.15L6.8 0L7.2 1.8L7.7 3.8L8.1 5.7L8.4 7L10.15 15.1L8.65 15.2L7.05 15L6.7 13.8L6.35 12.4L5.95 11.25L5.4 11.2L5.05 11.2L4.55 11.25Q4.3 11.7 4.2 12.45L3.9 13.85L3.5 15.1L3.45 15.1L2.5 15.1L0.2 15.1L0.15 15.05L0.4 13.85L0.85 11.25L1.55 7.65L2.5 3.4L3.7 -1.05L4.2 -1.05M14.95,-0.85L14.9 3.05L14.9 3.1L14.95 7.3L15 10.75L14.95 11.45L15.75 11.4L17.1 11.45L18.35 11.55L18.7 11.55L20.1 11.6L20.2 11.6L20.95 11.6L20.95 11.85L20.9 12.1L20.9 12.55L20.9 13L20.95 14.3L20.95 14.55L20.75 15.05L20.3 15.1L19.65 15.1L18.3 15.1L15.65 15.15L11.2 15.1L11.2 14.7L11.25 14.2L11.3 11.05L11.35 8L11.35 5.25L11.3 2.35L11.25 -0.65L11.25 -1.1L12.3 -1.3L13.75 -1.3L14.95 -1.05L14.95 -0.85M23,-1.3L24.45 -1.3L25.65 -1.05L25.6 3.1L25.65 4.25L25.65 7.3L25.7 8.5L25.65 11.45L26 11.4L26.45 11.4L27.8 11.45L29 11.55L29.4 11.55L30.55 11.6L30.8 11.6L31.65 11.6L31.65 11.85L31.6 12.1L31.6 12.55L31.6 13L31.65 14.35L31.65 14.55L31.45 15.05L31 15.1L30.35 15.1L29 15.1L26.35 15.15L21.9 15.1L21.9 14.7L21.9 14.35L22 11.05L22.05 8L22.05 5.25L22 2.35L22 -0.5L21.95 -1.1L23 -1.3M37.75,-0.95L40.05 -0.95L41.7 -0.95L42.35 -0.9L42.45 0L42.4 0.75L42.35 2.35L42.35 2.4L40.75 2.6L40.35 2.6L38.35 2.6L36.7 2.65L36.3 2.65L36.25 2.65L36.25 2.7L36.15 4.05L36.25 5.4L37.35 5.45L37.7 5.45L39.1 5.5L39.2 7.05L39.15 8.7L38.1 8.8L37.05 8.85L36.35 8.95Q36.25 9.65 36.3 10.45L36.35 11.85L36.4 11.85L38.8 11.95L39.4 11.95L40.8 12L42.45 11.95L42.45 12L42.45 13.55L42.4 14.35L42.25 15.05L37.45 15.1L32.8 15L32.8 14.4L32.7 7.1L32.7 1.75L32.8 -0.75L35.2 -0.85L37.75 -0.95M44,-1.05L44.5 -1.1L45.05 -1.15L45.7 -1.1L46.55 -1L46.95 -0.9L47.3 -0.1L47.35 0L47.7 0.7L48.15 1.7L48.55 2.45L49.2 3.8L49.6 4.6L49.8 5L50.1 5.55L50.2 5.05L50.25 4.25L50.25 2.55L50.2 0.95L50.2 -0.05L50.25 -1.15L51.9 -1.25L53.45 -1.15L53.45 6.3L53.45 8L53.45 8.25L53.45 9.95L53.45 10.25L53.45 11.55L53.45 12.8L53.45 13.7L53.45 14L53.45 14.65L53.45 15.1L53.25 15.15L52.7 15.2L51.65 15.15L50.55 15.1L49.15 12L49.05 11.8L47.8 8.7L47.55 8L47.4 7.55L47.25 7.35L47.2 7.9L47.15 9.3L47.1 11.2L47.1 13.2L47.1 14.2L47.1 15.1L46.6 15.2L46.1 15.2L45 15.15L43.9 15.1L43.9 13.45L43.9 11.45L43.85 9.3L43.8 5.15L43.85 3L43.85 2L43.95 -0.4L44 -1.05M56.8,-0.4L57.45 -0.75L58.65 -1L61.8 -0.75Q63.2 -0.25 64 0.95Q64.75 2.15 64.55 4L64.5 4.15L64.3 4.25L63.8 4.25L63.05 4.25L62.4 4.25L61.6 4.15L61.35 3.4L60.8 2.6L60.3 2.3L60.05 2.25L59.3 2.25L58.65 2.5L58.5 2.75L58.4 3.15Q58.2 3.7 58.15 4.45L58.05 5L58 6L57.95 7.35L58.05 9.8L58.25 10.9L58.8 11.8L59.05 11.95L59.35 12.05L59.8 12.05L60.05 12L60.75 11.8L61.2 11.5L61.5 11L61.55 10.55L61.6 9.95L61.5 9.6L60.95 9.6L60.3 9.6L59.8 9.55L59.75 8.75L59.75 8L59.75 7.9L59.7 7.15L59.7 7.1L59.75 7.1Q60.1 6.9 60.75 6.85L62.2 6.85L63.6 6.95L64.5 7L64.55 7L64.75 9.6L64.55 12.2Q64.45 13.4 63.85 14Q63.25 14.65 62.4 14.95L59.9 15.45L57.5 15.1Q56.85 14.85 56.45 14.45L56.1 14.05Q55.6 13.4 55.35 12.4L55.2 11.7L55.15 11.25L55.05 10.8L54.9 9.05L54.85 8.25L54.8 7.45L54.8 5.5L54.85 4.95L54.9 4L55 2.95L55.05 2.5L55.45 1Q55.75 0.3 56.4 -0.15L56.8 -0.4M71.35,-0.95L73.65 -0.95L75.3 -0.95L75.95 -0.9L76 0.75L75.95 2.35L75.95 2.4L73.95 2.6L71.95 2.6L69.9 2.65L69.85 2.65L69.85 2.7L69.75 4.05L69.85 5.4L71.3 5.45L72.7 5.5L72.8 7.05L72.75 8.7L71.7 8.8L70.65 8.85L69.95 8.95Q69.85 9.65 69.9 10.45L69.95 11.85L70 11.85L73 11.95L76.05 11.95L76.05 12L76.05 13.55L75.85 15.05L71.05 15.1L66.4 15L66.3 7.1Q66.2 3.15 66.4 -0.75L68.8 -0.85L71.35 -0.95M5.25,3.7Q5.1 3.55 5 4.15L4.7 5.95L4.35 8.5L5.2 8.5L6.05 8.5L5.6 5L5.25 3.7M-13.95,-0.1Q-12.85 0.9 -12.4 2.35Q-12 3.8 -12.5 5.4L-14.15 5.5L-15.85 5.3L-15.95 3.95Q-16 3.25 -16.3 2.75Q-16.6 2.2 -17.5 2.25L-18.1 2.35L-18.65 2.6L-18.75 2.75L-18.75 2.9L-18.85 3.7L-18.95 5.45L-18.95 7.6L-18.9 9.45L-18.5 10.8L-17.55 11.6L-16.6 11.45L-15.9 10.8L-15.7 10.05L-15.7 9.3L-15.6 8.5L-14.6 8.55L-13.55 8.55L-12.55 8.65Q-12.15 9.85 -12.35 11.05Q-12.5 12.2 -13.1 13.15Q-13.75 14.15 -14.75 14.75Q-15.75 15.3 -17.05 15.35L-18.75 15.35L-20.35 14.9L-21.65 13.9Q-22.15 13.25 -22.25 12.3L-22.35 9.95L-22.35 6.9L-22.35 2.7L-22.3 1.9L-22.05 1.2L-21.55 0.05L-20.8 -0.85L-20.25 -1.15L-19.65 -1.35L-16.55 -1.5Q-15.05 -1.1 -13.95 -0.1M-10.65,-1L-9.7 -0.95L-8.65 -1.05L-7.7 -0.95L-7.55 1.15L-7.45 3.15L-7.25 5.1L-7.2 5.1L-5.95 5.2L-4.7 5.1L-4.6 3.1L-4.55 1.15L-4.6 -0.9L-3.65 -1.1L-2.5 -1.2L-1.45 -1.15L-0.85 14.95L-1.95 15.05L-3.1 15.1L-4.05 15.1L-4.1 15.1L-4.25 13L-4.3 10.8L-4.45 8.75L-4.45 8.7L-5.8 8.6L-7.1 8.75L-7.2 10.9L-7.15 12.95L-7.25 14.95L-8.3 15.1L-9.5 15L-10.4 15.1L-10.5 12.85L-10.6 9.65L-10.7 5.95L-10.75 2.25L-10.7 -1L-10.65 -1" />
</g>
</svg>
