<?xml version="1.0" encoding="utf-8"?>
<svg version="1.1" id="Layer_1"
xmlns="http://www.w3.org/2000/svg"
xmlns:xlink="http://www.w3.org/1999/xlink"
xmlns:author="http://www.sothink.com"
width="91px" height="12px"
xml:space="preserve">
<g id="961" transform="matrix(1, 0, 0, 1, 0, 0)">
<path style="fill:#FFE4B1;fill-opacity:1" d="M90.1,0.35L90.1 5.5L90.15 6.85L90.15 8.25L90.15 9.1L90.1 10L90.15 10.65L90.15 11.3L90.15 11.6L90 11.65L89.6 11.7L88.85 11.65L88.15 11.6L87.1 9.3L86.2 7.15L86.05 6.7L85.9 6.35L85.85 6.2L85.8 6.6L85.75 7.55L85.7 8.9L85.7 10.25L85.7 11L85.75 11.6L85.4 11.65L85.05 11.7L84.25 11.65L83.5 11.6L83.5 10.45L83.45 7.55L83.45 4.7L83.45 2.5L83.6 0.4L83.95 0.35L84.3 0.35L84.75 0.35L85.35 0.4L85.65 0.5L85.9 1.1L86.15 1.6L86.45 2.3L86.7 2.85L87.2 3.75L87.6 4.6L87.8 4.95L87.9 4.65L87.95 4.1L87.9 2.9L87.9 1.75L87.9 1.1L87.9 0.35L89.05 0.25L90.1 0.35M81.95,1.6L82.2 2.15L82.35 2.6L82.45 3.1L82.5 3.9L82.5 4.7L82.45 6.35L82.4 8L82.35 8.5L82.2 9.65L81.75 10.65L81.05 11.3L80.1 11.65L79.2 11.8L78.3 11.8L77.05 11.55Q76.5 11.3 76.2 10.7L75.9 9.85L75.8 8.9L75.7 6.4L75.7 3.9L75.9 2.45L76.55 1.15L76.75 1L76.95 0.85Q77.65 0.5 78.5 0.4L80.1 0.5Q80.95 0.7 81.55 1.15L81.95 1.6M78.9,2.6Q78.6 2.7 78.35 2.9L77.85 3.4L77.55 4L77.4 5.3L77.45 6.6L77.55 7.75L77.75 8.9L78.4 9.5L79.3 9.55L80.15 9.1L80.4 8.7L80.45 8.3L80.45 7.65L80.5 7.05L80.5 6.8L80.45 4.8L80.45 4.45L80.4 4.05L80.15 3.2Q79.95 2.85 79.55 2.65L78.9 2.6M74.75,0.35L74.75 0.4L74.7 4.1L74.65 7.85L74.75 11.5L74.2 11.65L73.35 11.7L72.45 11.65L71.85 11.65L71.95 7.8L71.85 4L71.95 0.3L71.95 0.25L72.3 0.3L72.65 0.3L73.3 0.35L74.4 0.35L74.75 0.35M70.7,0.35L70.7 5.5L70.75 6.85L70.75 8.25L70.75 9.1L70.7 10L70.75 10.65L70.75 11.3L70.75 11.6L70.6 11.65L70.2 11.7L69.45 11.65L68.75 11.6L67.7 9.3L66.8 7.15L66.65 6.7L66.5 6.35L66.45 6.2L66.4 6.6L66.35 7.55L66.3 8.9L66.3 10.25L66.3 11L66.35 11.6L66 11.65L65.65 11.7L64.85 11.65L64.1 11.6L64.1 10.45L64.05 7.55L64.05 4.7L64.05 2.5L64.2 0.4L64.55 0.35L64.9 0.35L65.35 0.35L65.95 0.4L66.25 0.5L66.5 1.1L66.75 1.6L67.05 2.3L67.3 2.85L67.8 3.75L68.2 4.6L68.4 4.95L68.5 4.65L68.55 4.1L68.5 2.9L68.5 1.75L68.5 1.1L68.5 0.35L69.65 0.25L70.7 0.35M61.3,2.35L61.6 3.75L61.9 5.05L62.15 6L63.35 11.6L62.3 11.65L61.2 11.55L61.15 11.55L60.95 10.7L60.7 9.75L60.4 8.95L60.05 8.9L59.8 8.9L59.45 8.9L59.2 9.75L59 10.75L58.75 11.6L58.7 11.6L58.05 11.6L56.45 11.6L56.4 11.6L56.4 11.55L56.55 10.75L56.9 8.95L57.35 6.4L58.05 3.5L58.85 0.4L59.2 0.4L59.75 0.4L60.8 0.3L61 1.1L61.3 2.35M57.35,4L57.3 4.2Q57.15 5.2 56.5 6Q55.85 6.75 54.95 7.15L52.95 7.4L52.95 7.85L52.95 8.45L52.95 9.55L53 11.4L53 11.45L52.95 11.45L52.15 11.55L51.2 11.55L50.3 11.5L50.25 8.05L50.25 4.25L50.2 0.5L51.9 0.2L53.8 0.3Q54.7 0.4 55.5 0.85L56.75 1.95Q57.25 2.65 57.35 3.75L57.35 4M59.95,3.7L59.75 4L59.55 5.25L59.3 7L59.9 7.05L60.5 7L60.15 4.6L59.95 3.7M53.6,2.65L52.55 2.7L52.5 2.7L52.55 3.95L52.65 5.1L52.7 5.1L53.45 5.1L54.2 5L54.8 4.65L55.05 4.1L54.95 3.5L54.55 3.05Q54.1 2.75 53.6 2.65M49.15,0.45L49.15 3.5L49.15 6.5L49.1 11.6L48.35 11.6L47.6 11.6L46.95 11.6L46.95 9.6L46.9 7.4L46.75 5.4L46.5 5.95L46.2 6.7L45.95 7.4L45.75 7.7L45.45 7.35L45.15 6.6L44.85 5.8L44.75 5.5L44.65 8.55L44.8 11.55L43.7 11.6L42.55 11.6L42.5 11.55L42.45 11.15L42.45 10.1L42.45 8.15L42.45 5.05L42.5 0.65L43.55 0.55L44.7 0.55L45.05 1.25L45.4 2.2L45.75 2.95L45.85 3L46 2.7L46.2 1.95L46.5 1.1L46.8 0.5L47.4 0.5L48.3 0.5L49.15 0.45M40.95,1.6L41.2 2.15L41.35 2.6L41.45 3.1L41.5 3.9L41.5 4.7L41.45 6.35L41.4 8L41.35 8.5L41.2 9.65L40.75 10.65L40.05 11.3L39.1 11.65L38.2 11.8L37.3 11.8L36.05 11.55Q35.5 11.3 35.2 10.7L34.9 9.85L34.8 8.9L34.7 6.4L34.7 3.9L34.9 2.45L35.55 1.15L35.75 1L35.95 0.85Q36.65 0.5 37.5 0.4L39.1 0.5L40.55 1.15L40.95 1.6M37.35,2.9L36.85 3.4L36.55 4L36.4 5.3L36.45 6.6L36.55 7.75L36.75 8.9L37.4 9.5L38.3 9.55L39.15 9.1L39.4 8.7L39.45 8.3L39.45 7.65L39.5 7.05L39.5 6.8L39.45 4.8L39.45 4.45L39.4 4.05L39.15 3.2L38.55 2.65L37.9 2.6L37.35 2.9M31,3Q30.8 2.65 30.2 2.65L29.75 2.75L29.4 2.95L29.35 3.05L29.3 3.15L29.25 3.7L29.2 4.9L29.2 6.4L29.25 7.7L29.5 8.6L30.15 9.15L30.8 9.05L31.3 8.6L31.4 8.1L31.45 7.55L31.5 7L32.2 7.05L32.95 7.05L33.65 7.1Q33.9 7.95 33.8 8.75L33.2 10.25L32.1 11.35L30.5 11.8L29.35 11.8L28.2 11.45Q27.65 11.2 27.3 10.75Q26.95 10.3 26.9 9.65L26.8 8L26.8 5.9L26.85 3L26.85 2.45L27 1.95L27.35 1.15L27.9 0.55Q28.05 0.4 28.3 0.35L28.7 0.2L30.85 0.1Q31.9 0.35 32.65 1.05Q33.4 1.75 33.7 2.75Q34 3.75 33.65 4.85L32.5 4.95L31.3 4.8L31.25 3.85L31 3M21.7,6L21.15 11.5L20.9 11.55L20.6 11.55L19.85 11.55L19.6 11L19.4 10.25L19.15 9.45L18.9 8.85L18.65 9.35L18.45 10.1L18.25 10.9L18.05 11.5L17.65 11.55L17.25 11.55L16.95 11.55L16.65 11.5L16.6 11.5L15.85 6Q15.5 3.25 15.45 0.5L15.45 0.45L15.95 0.4L16.5 0.4L17.15 0.4L17.75 0.45L17.8 2L17.8 3.8L17.85 5.55L18.05 7.1L18.45 5.7L18.8 4.25L18.8 4.2L19 4.65L19.25 5.55L19.5 6.6L19.7 7.3L19.8 5.75L19.85 3.9L19.9 2.1L20 0.5L20.55 0.4L21.15 0.4L21.7 0.4L22.2 0.45L21.7 6M14.5,2.75L13.1 2.95L11.7 2.95L10.3 2.95L10.25 2.95L10.25 3L10.2 3.95L10.25 4.85L11.25 4.9L12.25 4.9L12.25 4.95L12.3 6L12.25 7.15L11.55 7.25L10.8 7.25L10.35 7.35Q10.25 7.8 10.3 8.35L10.35 9.35L12.45 9.4L14.55 9.45L14.55 10.5L14.4 11.55L11.1 11.6L7.85 11.5L7.8 6.05Q7.75 3.3 7.85 0.6L9.5 0.5L11.3 0.45L12.9 0.45L14.05 0.45L14.5 0.5L14.55 1.6L14.5 2.75M6.65,0.35L6.65 5.5L6.7 6.85L6.7 8.25L6.7 9.1L6.65 10L6.7 10.65L6.7 11.3L6.7 11.6L6.55 11.65L6.15 11.7L5.4 11.65L4.7 11.6L3.65 9.3L2.75 7.15L2.6 6.7L2.45 6.35L2.4 6.2L2.35 6.6L2.3 7.55L2.25 8.9L2.25 10.25L2.25 11L2.3 11.6L1.95 11.65L1.6 11.7L0.8 11.65L0.05 11.6L0.05 10.45L0 7.55L0 4.7L0 2.5L0.15 0.4L0.5 0.35L0.85 0.35L1.3 0.35L1.9 0.4L2.2 0.5L2.45 1.1L2.7 1.6L3 2.3L3.25 2.85L3.75 3.75L4.15 4.6L4.35 4.95L4.45 4.65L4.5 4.1L4.45 2.9L4.45 1.75L4.45 1.1L4.45 0.35L5.6 0.25L6.65 0.35" />
</g>
</svg>
