<?xml version="1.0" encoding="utf-8"?>
<svg version="1.1" id="Layer_1"
xmlns="http://www.w3.org/2000/svg"
xmlns:xlink="http://www.w3.org/1999/xlink"
xmlns:author="http://www.sothink.com"
width="388px" height="313px"
xml:space="preserve">
<g id="94" transform="matrix(1, 0, 0, 1, 19.2, 35.5)">
<radialGradient
id="RadialGradID_66" gradientUnits="userSpaceOnUse" gradientTransform="matrix(0.362579, 0, 0, -0.155396, 154.7, 118.4)" spreadMethod ="pad" cx="0" cy="0" r="819.2" fx="0" fy="0" >
<stop  offset="0"  style="stop-color:#FFFFFF;stop-opacity:0.8" />
<stop  offset="0.278431"  style="stop-color:#FFFFFF;stop-opacity:0.960784" />
<stop  offset="1"  style="stop-color:#FFFFFF;stop-opacity:0" />
</radialGradient>
<path style="fill:url(#RadialGradID_66) " d="M221,-34.25L194.25 121.5L192.8 121.45L219.2 275.35L113 276.6L133.45 123.75L129.95 124.05L66.35 275.35L-19.2 233.9L97.1 122.3L99.8 119.7L-17.35 7.15L68.15 -34.25L131.9 117.45L132.75 117.5L132.3 118.45L133.7 121.75L134.25 117.6L135.3 117.7L114.8 -35.5L221 -34.25M200.35,119.1L289.65 -23.85L368.65 16.25L223.85 121.25L366.85 224.8L287.85 264.95L196.85 119.35L200.35 119.1" />
</g>
</svg>
