<?xml version="1.0" encoding="utf-8"?>
<svg version="1.1" id="Layer_1"
xmlns="http://www.w3.org/2000/svg"
xmlns:xlink="http://www.w3.org/1999/xlink"
xmlns:author="http://www.sothink.com"
width="50px" height="55px"
xml:space="preserve">
<g id="735" transform="matrix(1, 0, 0, 1, 8.55, 2.45)">
<path style="fill:#FFF1D7;fill-opacity:1" d="M36.9,-2.45Q40.65 -2.45 40.65 1.3L40.65 31.5Q40.65 35.2 36.9 35.2L-4.75 35.2Q-8.55 35.2 -8.55 31.5L-8.55 1.3Q-8.55 -2.45 -4.75 -2.45L36.9 -2.45M22,43.5L27.85 51.75L3.25 51.75L9.1 43.5L22 43.5M33.3,0.8L-1.15 0.8Q-4.3 0.8 -4.3 3.9L-4.3 28.9Q-4.3 31.95 -1.15 31.95L33.3 31.95Q36.4 31.95 36.4 28.9L36.4 3.9Q36.4 0.8 33.3 0.8" />
</g>
</svg>
