<?xml version="1.0" encoding="utf-8"?>
<svg version="1.1" id="Layer_1"
xmlns="http://www.w3.org/2000/svg"
xmlns:xlink="http://www.w3.org/1999/xlink"
xmlns:author="http://www.sothink.com"
width="42px" height="53px"
xml:space="preserve">
<g id="483" transform="matrix(1, 0, 0, 1, 2.55, 3.6)">
<path style="fill:#B6B6B6;fill-opacity:1" d="M37.75,47.15L36.85 47.2L35.75 46.9Q35.3 46.7 34.75 46.05Q34.15 45.4 34 44.75L33.8 43.75L33.9 43.4L34.05 43.15L34.25 42.7L34.8 40.8Q35.45 38.9 35.3 36.3Q35.2 34.05 34.6 31.95Q33.95 29.75 32.8 27.75L27.65 19.65L28.55 17.35L28.75 16.6Q29.15 15.2 28.95 12.8L28.9 12.4Q29.75 15.6 29.65 17.15L29.6 17.25L29.6 17.4L29.2 19.45Q29.2 19.85 31 23Q33.1 26.55 33.8 28.6Q34.1 28.45 34.25 27.7Q34.25 29.35 34.7 31.1L35.15 31.1L35.15 30.5L35.25 30.5L35.65 31.95L36.2 34.25Q36.85 37.25 36.85 39.75L36.7 42.5L36.6 43.1L36.35 43.1L36.25 44Q36.25 44.4 36.4 44.65L36.5 45Q35.95 44.45 35.95 44.2L35.85 44.2L35.85 45.05Q36.05 45.8 37.3 46.8L37.75 47.15M2.2,43.65L2.2 43.55L1.6 42L1.15 40.75Q0.35 38.2 0.35 35.7Q0.35 33.45 0.8 31.95L1.5 30.4L1.4 30.4L0.35 31.5Q1.15 28.95 3.55 24.25L4.95 21L5.4 18.6L5.3 16.95Q5 17.25 4.85 17.15L4.85 16.1L4.75 12.9Q4.8 6.8 7.35 4.1Q9.9 1.3 16.3 0.95L18.15 0.9L18.5 0.9Q20.95 0.95 22.65 1.65Q24.7 2.55 25.95 4.6Q24.65 3.3 23.45 2.75Q22.25 2.15 18.5 2.1L16.3 2.05L16.1 2.05Q10.2 2.05 7.5 5.65Q5.65 8.1 6 12.9Q6.1 14.6 6.5 16.65L6.7 17.8Q6.9 18.7 6.6 20.75L6.6 21L5.9 23.85L4.65 26.2L3.1 28.85Q2.55 30.05 2.05 31.95L1.95 32.35Q1.3 34.5 1.6 37.8Q1.85 40.4 2.6 42.25L3.05 43.2L2.6 42.25L3.05 43.9Q2.85 45.25 1.7 46Q1.35 46.2 1.25 46Q2.2 45.1 2.2 43.65M22.05,12.8L25.45 11.75Q24.45 12.15 22.7 13.05Q20.15 14.25 19.55 13.75L22.05 12.8M26.5,26.75L28.4 30.65L29.05 31.95L30.35 35.35L29.45 35.25Q30.7 39.1 31.1 41.85L30.65 41.05L30.35 41.75L30.45 42.2L30.45 44.05L30.5 44.1L30.5 44.2L30.65 45.15L30.6 46L29.95 46.7L29.15 47.4Q29.6 45.6 29.3 42.85L29.3 42.2L29.3 41.15L29.15 38.15L28.6 34.5L27.9 31.95Q27.25 29.85 26.1 27.65Q24.85 25.75 25.15 23.75L25.2 23.5L26.5 26.75M26.65,21.15L27.15 20.85L31.05 26.7Q32.45 28.95 33.4 31.95L34.15 34.8Q34.6 37 34.35 39.25L34.3 39.7L33.75 41.9L33.7 41.95L33.1 43L33.1 42.75L33.7 41.05L33.7 39.05Q33.7 34.6 32.6 31.95L32.25 31.2L32.15 31.95L32 32.3L31.9 32.2L31.9 31.95Q31.75 29.3 29.75 26.15L26.65 21.15M11.95,13.05L11.7 12.9L9.2 11.75L12.6 12.8L12.9 12.9L15.1 13.75Q14.5 14.25 11.95 13.05M3.6,15.6L3.75 18.75L3.85 18.6L4.05 18.15L4.05 18.8L3.85 20.3L3.75 21L3.7 21.35L3.5 21L3.3 20.55L3.05 19.3L3.3 17.65L3.6 15.6M8.4,21L7.1 25.4L4.5 30.95L4.4 30.95L4.4 29.75L3.75 31.95L3.15 33.6Q2.7 35.3 2.55 37.85Q2.45 36.35 2.5 34.85Q2.55 33.35 2.85 31.95Q3.5 29.3 5.15 27.1Q7.1 24.4 7.7 21L7.85 19.25L8.5 20.35L8.4 21M9.85,24.1L10 25.45L9.5 26.2L8.45 28.1Q7.5 29.95 6.95 31.95Q6.3 34.35 6.2 36.95Q6.05 40.25 6.55 42.25L6.55 42.2L6.7 42.85L7.1 44.45Q6.25 46.35 4.6 46.25L4.45 44.85L4.4 42.45Q4.4 41.4 4.65 40.75L4.65 40.15L3.9 40.3L3.85 40.4L3.85 40.3L3.9 40.3L5.1 36.15L5.1 35.1L4.4 35.7L4.4 33.75Q4.45 33 4.85 31.95Q5.35 30.5 6.55 28.5Q8.3 25.6 9.85 24.1M13.4,24.6L13.6 24.5Q14.5 24 15.55 23.8L17.1 25.15Q17.95 25.9 18.95 24.85L20.05 23.75Q21 23.85 22.15 24.75L21.9 25L21.35 25.4L20.7 25.7Q20.1 25.85 19.8 26.2Q20.25 26.3 20.7 26.55L23.6 28.05L22.75 28.05L24.5 29.95L26.3 31.95L26.3 32.1L24.95 31.75L25 31.95L26.2 38.45L27.1 42.3L27.15 42.35L27.35 43.1L27.3 43.2L27.45 44.15L27.45 44.2L27.3 44.45L25.75 46.05L25.1 46.2L25.3 45.25L25.55 43.9L25.65 43.25L25.75 42.5L25.85 40.3Q25.85 35.95 24.15 31.95L23.8 31.15Q22.6 28.55 20.4 27.6Q18.85 26.9 16.8 27.05Q14.35 27.45 11.7 30.5L11.5 30.8L10.75 31.75L10.65 31.95Q9.1 34.45 9.1 37.8Q9.15 41.85 9.35 43.5L9.85 47.1L9.1 46.4Q8.45 45.15 8.4 43.5L8.5 43.5L8.45 42.65L8.4 42.15L8.2 39.4Q8.2 35.45 9.05 33.05L9.55 31.95Q10.65 29.6 12.8 27.7L12.8 27.6L12.25 27.6L11.15 28.25Q13.25 26.7 14.15 26.3L15.65 25.9L14.6 25.35L13.4 24.6M14.8,46.15L15.6 47.2Q14.8 47.3 13.15 46.15L11.7 44.95L11 44.15L10.65 43.6L10.5 43.4L10.45 43.3Q9.9 42.1 10.25 39.55Q10.5 40.15 10.85 40.15L11.15 39.95L11.9 43.05L12 43.4L11.9 43.4L12.65 44.5Q13.45 45.45 14.65 46.05L14.8 46.15M19.05,46.75Q18.6 47.9 17.9 48.25L16.35 46.85L16.25 46.7L15.85 46.2L15.25 45.1L14.8 43.75L14.7 43.35L14.3 40.8Q14.25 39.65 14.5 38.6Q15.25 40.6 16.65 40.6L16.95 43.05L17 43.25L17 43.35L16.9 43.35L17.55 45.55L17.65 44.7L17.7 44.6Q17.6 44.85 18.15 45.65Q18.6 46.25 19.15 46.5L19.05 46.75M21.65,46.2L23 45.3L23.65 44.4L23.8 44.05L23.1 44.25L23.3 43.3L23.15 40.5L23.5 40.85L23.5 39.95L23.35 39.4L24.2 39.1Q24.45 38.85 24.5 38.1L24.95 42.45L24.95 42.65L24.9 43.25L24.6 44.55L23.45 45.7Q22.6 46.3 21.5 46.55L20.65 46.75L21.65 46.2M30.4,30.75L31.05 31.95L31.3 32.35Q32.25 34.35 32.15 35.55L32.15 37.8L30.2 31.95L30 31.5L29.4 29.3L27.6 26.85Q28.8 27.25 29.4 29.2L29.4 29.3L30.55 30.85L30.4 30.75" />
<path style="fill:#D0A15B;fill-opacity:1" d="M26.1,17.95L25.75 18.05L27.6 15.5L28.1 14.2L28.05 14.6L27.4 17.6L26.1 17.95" />
<path style="fill:#D4D4D4;fill-opacity:1" d="M2.35,16.7L2.35 16.65L2.45 15.1L2.85 15.3L3.3 12.9L3.5 11.2Q3.8 7.2 5 4.9Q6.3 2.25 9.9 0.2L12.35 -1.05L14.15 -1.6L14.4 -1.65L16.3 -1.9L18.5 -1.9L20.3 -1.65Q21.65 -1.05 23.25 0.05Q25.55 1.65 27.4 3.6Q28.7 5 30 9.4L31.75 16.15L31.9 16.1L32 16.7L32.35 18.6L33.35 23.2L33.6 22.75L34.1 24.3L34.6 26.25L34.7 26.35L34.8 26.05Q35.65 26.85 36.75 30.05L37.35 31.95L37.85 34.2L38 37.15Q38.2 41.2 37.55 43.1L37.5 43.25L37.2 44.05L37.15 44.1L37.05 44.55L36.9 45.2L37 45.95L37.2 46.35L37.55 46.85L37.8 47.1L37.75 47.15L37.3 46.8Q36.05 45.8 35.85 45.05L35.85 44.2L35.95 44.2Q35.95 44.45 36.5 45L36.4 44.65Q36.25 44.4 36.25 44L36.35 43.1L36.6 43.1L36.7 42.5L36.85 39.75Q36.85 37.25 36.2 34.25L35.65 31.95L35.25 30.5L35.15 30.5L35.15 31.1L34.7 31.1Q34.25 29.35 34.25 27.7Q34.1 28.45 33.8 28.6Q33.1 26.55 31 23Q29.2 19.85 29.2 19.45L29.6 17.4L29.6 17.25L29.65 17.15Q29.75 15.6 28.9 12.4L28.8 11.55L28.7 10.9Q28.1 7.45 26.85 5.7L26.5 5.25L26.3 5.05L25.95 4.6Q24.7 2.55 22.65 1.65Q20.95 0.95 18.5 0.9L18.15 0.9L16.3 0.95Q9.9 1.3 7.35 4.1Q4.8 6.8 4.75 12.9L4.85 16.1L4.85 17.15Q5 17.25 5.3 16.95L5.4 18.6L4.95 21L3.55 24.25Q1.15 28.95 0.35 31.5L1.4 30.4L1.5 30.4L0.8 31.95Q0.35 33.45 0.35 35.7Q0.35 38.2 1.15 40.75L1.6 42L2.2 43.55L2.2 43.65Q2.2 45.1 1.25 46L1.2 45.95L1.05 43.45L0 40.25Q-0.8 37.65 -0.8 36.85L-0.65 34.7L-0.85 31.7Q-0.85 30 -0.15 28.25L2.05 23.35L1.3 24.35L0.7 25.45L2.25 19.5L2.4 17.85L2.35 16.7M19.55,13.75L19.5 13.75L19.4 13.6L20.6 12.95L21.95 12.45Q22.75 11.95 24.95 11.55L25.5 11.45L25.6 11.45L25.8 11.45L26.25 11.4Q25.95 11.5 25.45 11.75L22.05 12.8L19.55 13.75M29.75,26.15Q31.75 29.3 31.9 31.95L31.9 32.2L32 32.3L32.15 31.95L32.25 31.2L32.6 31.95Q33.7 34.6 33.7 39.05L33.7 41.05L33.1 42.75L33.1 43L33.05 43.1L32.25 44.2L30.6 46L30.65 45.15L30.5 44.2L30.5 44.1L30.45 44.05L30.45 42.2L30.35 41.75L30.65 41.05L31.1 41.85Q30.7 39.1 29.45 35.25L30.35 35.35L29.05 31.95L28.4 30.65L26.5 26.75L25.2 23.5Q25.55 21.95 26.65 21.15L29.75 26.15M9.7,11.55Q11.9 11.95 12.7 12.45L13.95 12.9L14.05 12.95L15.25 13.6L15.15 13.75L15.1 13.75L12.9 12.9L12.6 12.8L9.2 11.75L8.4 11.4L8.85 11.45L9.7 11.55M3.3,17.65L3.05 19.3L3.3 20.55L3.5 21L3.7 21.35L3.75 21L3.85 20.3L4.05 18.8L4.05 18.15L3.85 18.6L3.75 18.75L3.6 15.6L3.3 17.65M6.55,28.5Q5.35 30.5 4.85 31.95Q4.45 33 4.4 33.75L4.4 35.7L5.1 35.1L5.1 36.15L3.9 40.3L3.85 40.3L3.85 40.4L3.9 40.3L4.65 40.15L4.65 40.75Q4.4 41.4 4.4 42.45L4.45 44.85L4 43.55L3.3 42.1Q2.65 39.9 2.55 37.85Q2.7 35.3 3.15 33.6L3.75 31.95L4.4 29.75L4.4 30.95L4.5 30.95L7.1 25.4L8.4 21L8.5 20.35L8.85 21L9.85 24.1Q8.3 25.6 6.55 28.5M8.55,45.75Q8.1 45.2 7.7 43.5Q7.05 41.05 7.15 39.9Q7.05 36 8.3 31.95L8.8 30.5L10.25 28.15L10.45 28.15L10.45 29.05L10.6 29.05Q10.85 27.5 12.55 26.3Q13.55 25.65 14.6 25.35L15.65 25.9L14.15 26.3Q13.25 26.7 11.15 28.25L12.25 27.6L12.8 27.6L12.8 27.7Q10.65 29.6 9.55 31.95L9.05 33.05Q8.2 35.45 8.2 39.4L8.4 42.15L8.45 42.65L8.5 43.5L8.4 43.5Q8.45 45.15 9.1 46.4L8.55 45.75M27.45,44.2L27.45 44.15L27.3 43.2L27.35 43.1L27.15 42.35L27.1 42.3L26.2 38.45L25 31.95L24.95 31.75L26.3 32.1L26.3 31.95L24.5 29.95L22.75 28.05L23.6 28.05L20.7 26.55Q20.25 26.3 19.8 26.2Q20.1 25.85 20.7 25.7L21.35 25.4L23.05 27.35Q23.25 27.35 23.25 27.05Q24.9 28 26.05 30.25L26.7 31.95L27.65 36.3Q28.2 40.4 28.05 42.2L28.05 42.35L28.05 42.45L27.45 44.2M14.65,46.05Q13.45 45.45 12.65 44.5L11.9 43.4L12 43.4L11.9 43.05L11.15 39.95L10.85 40.15Q10.5 40.15 10.25 39.55L10.25 37.9L10.35 36.55L11.1 36.9L12.4 37.35Q12.6 37.45 12.6 38.3L12.7 39.05Q12.7 40.45 13.3 43L13.35 43.05L13.4 43.35L13.45 43.35L13.75 44.1L14.45 45L14.5 45.3L14.8 46.15L14.65 46.05M19.25,46.15L19.15 46.5Q18.6 46.25 18.15 45.65Q17.6 44.85 17.7 44.6L17.65 44.7L17.55 45.55L16.9 43.35L17 43.35L17 43.25L16.95 43.05L16.65 40.6Q15.25 40.6 14.5 38.6L14.5 38.5L14.75 37.35L16.1 37.55L17.65 38.05L18.05 38.65L18.75 38.8L18.95 42.1L18.95 43.05L18.95 43.15L19.15 44.2L19.1 44.2L18.8 43.9L18.8 43.95L19.15 45.05L19.35 45.9L19.25 46.15M20.65,46.75L20.6 46.75L20.4 46.75L20.7 46.4L20.9 46.1L22 44.7Q21.8 44.75 21.35 45.1Q20.9 45.45 20.9 45.5L20.9 45.45L21.45 43.8L21.55 43.3L21.8 43.3L21.8 43L21.8 42.9L21.6 40.55L21.15 38.7L21 38.8L20.9 38.95L20.45 38.25L20 37.35Q23.05 36.75 24 35.7L24.05 35.95L24.5 38.1Q24.45 38.85 24.2 39.1L23.35 39.4L23.5 39.95L23.5 40.85L23.15 40.5L23.3 43.3L23.1 44.25L23.8 44.05L23.65 44.4L23 45.3L21.65 46.2L20.65 46.75M30.55,30.85L29.4 29.3L29.4 29.2Q28.8 27.25 27.6 26.85L29.4 29.3L30 31.5L30.2 31.95L32.15 37.8L32.15 35.55Q32.25 34.35 31.3 32.35L31.05 31.95L30.4 30.75L30.55 30.85" />
<path style="fill:#F5F5F5;fill-opacity:1" d="M37.35,31.95L36.75 30.05Q35.65 26.85 34.8 26.05L34.7 26.35L34.6 26.25L34.1 24.3L33.6 22.75L33.35 23.2L32.35 18.6L32 16.7L31.9 16.1L31.75 16.15L30 9.4Q28.7 5 27.4 3.6Q25.55 1.65 23.25 0.05Q21.65 -1.05 20.3 -1.65L20.45 -1.65L23.6 -0.65Q28.55 1.4 30.15 5.45Q31.7 9.35 31.85 11.85L31.85 12L32.55 15.8Q33.35 19.35 34.25 21.75L36.65 28.2Q37.2 29.7 37.55 31.95L37.85 34.2L37.35 31.95M2.4,17.85L2.25 19.5L0.7 25.45L1.3 24.35L2.05 23.35L-0.15 28.25Q-0.85 30 -0.85 31.7L-0.65 34.7L-0.8 36.85L-0.9 36.55Q-1.55 34.45 -1.45 31.95Q-1.3 28.85 0.05 25.15Q1.7 20.45 2.25 17.4L2.3 17.25L2.35 16.7L2.4 17.85M2.45,15.1L2.45 14.85Q2.45 13.25 2.6 11.7L2.75 10.75Q2.95 9.5 3.3 8.35Q4.05 5.4 5.25 3.8Q6.45 2.2 8.1 0.9Q9.4 -0.15 12.35 -1.05L9.9 0.2Q6.3 2.25 5 4.9Q3.8 7.2 3.5 11.2L3.3 12.9L2.85 15.3L2.45 15.1M19.4,13.6Q19.1 13.1 20.55 12.35Q22.05 11.55 25.5 11.45L24.95 11.55Q22.75 11.95 21.95 12.45L20.6 12.95L19.4 13.6M15.25,13.6L14.05 12.95L13.95 12.9L12.7 12.45Q11.9 11.95 9.7 11.55L8.85 11.45Q12.55 11.55 14.1 12.35Q14.65 12.65 15 12.9Q15.45 13.3 15.25 13.6M14.6,25.35Q13.55 25.65 12.55 26.3Q10.85 27.5 10.6 29.05L10.45 29.05L10.45 28.15L10.25 28.15L8.8 30.5L8.95 29.95Q10.35 26.2 13.4 24.6L14.6 25.35M22.4,25L24.35 27.1Q25.35 28.4 26.05 30.25Q24.9 28 23.25 27.05Q23.25 27.35 23.05 27.35L21.35 25.4L21.9 25L22.15 24.75L22.4 25M13.75,44.1L13.45 43.35L13.4 43.35L13.35 43.05L13.3 43Q12.7 40.45 12.7 39.05L12.6 38.3Q12.6 37.45 12.4 37.35L11.1 36.9L10.35 36.55L10.5 35.55Q11.15 36.4 13.2 37L13.95 37.2L14.1 37.25Q13.35 39.1 13.6 41.4L14 43.35L14.15 43.95L14.45 45L13.75 44.1M19.5,37.4Q20.4 39.25 20.3 41.55L20.15 43L20.15 43.05L20.1 43.3L20.05 43.7L19.35 45.9L19.15 45.05L18.8 43.95L18.8 43.9L19.1 44.2L19.15 44.2L18.95 43.15L18.95 43.05L18.95 42.1L18.75 38.8L18.05 38.65L17.65 38.05L16.1 37.55L19.5 37.4M20.9,38.95L21 38.8L21.15 38.7L21.6 40.55L21.8 42.9L21.8 43L21.8 43.3L21.55 43.3L21.45 43.8L20.9 45.45L20.9 45.5Q20.9 45.45 21.35 45.1Q21.8 44.75 22 44.7L20.9 46.1L20.7 46.4L20.4 46.75L19.75 46.8L19.8 46.65Q20.6 44.95 20.75 43.7L20.85 43.3L20.9 43.05L20.95 40.9Q20.9 39.45 20.45 38.25L20.9 38.95" />
<path style="fill:#5D584B;fill-opacity:1" d="M8.4,-1.4L8.8 -1.65Q9.7 -2.2 10.75 -2.6L13.8 -3.4L16.3 -3.55L18.5 -3.55L19.05 -3.55L19.8 -3.55L20 -3.55Q23.05 -3.45 25.9 -1.65L28.3 0.25Q32.2 3.9 33.2 11.15Q33.45 13.35 33.85 15.2Q34.7 19.5 35.9 22.15Q37.55 25.85 38.6 29.9L39 31.95Q39.45 35.3 39.1 38.3L38.45 42.25L37.85 44.05L37.8 44.15Q37.5 44.85 37.65 45.55Q37.8 46.3 38.35 46.85L38.9 47.35L38.6 47.7L37.55 48Q36.15 48.25 35 47.45Q33.85 46.6 33 44.7L32.1 45.85L30 47.9L29.95 47.95L28.35 48.9L28.35 48.85Q28.1 48.9 28.1 48.1L28.2 47.4Q28.65 45.55 28.6 43.7Q28 45.15 27.15 46L25.5 47.05L24.65 47.3Q24 47.35 24.15 46.95L24.35 46.15L23.45 46.7L21.65 47.4L19.7 47.8L19.6 47.8L18.5 48.85L17.4 48.95L16.25 48.1Q12.9 47.65 10.9 45.4L10.5 44.85L10.5 45.65L10.6 46.25Q10.75 47.3 10.55 47.9Q10.35 48.5 9.35 47.7Q8.35 46.9 7.5 45.25L7.45 45.15L7.15 45.6Q6.35 46.8 5.3 47.1Q3.6 47.55 3.9 46.8L3.6 45.05L3.35 45.5Q2.65 46.7 1.6 47L0.25 47.05L0.5 45.5Q0.75 44.4 0 42.7L-1.1 40Q-2.6 35.9 -2.55 32.7L-2.5 31.95Q-2.35 27.6 -0.75 23.9Q1 19.9 1.2 17.05L1.45 14.6L1.55 13.55L1.7 11.35L1.9 9.45L2.25 7L2.75 5.05Q3.25 3.6 3.95 2.7Q5.55 0.55 6.45 -0.05L8.4 -1.4M8.1,0.9Q6.45 2.2 5.25 3.8Q4.05 5.4 3.3 8.35Q2.95 9.5 2.75 10.75L2.6 11.7Q2.45 13.25 2.45 14.85L2.45 15.1L2.35 16.65L2.35 16.7L2.3 17.25L2.25 17.4Q1.7 20.45 0.05 25.15Q-1.3 28.85 -1.45 31.95Q-1.55 34.45 -0.9 36.55L-0.8 36.85Q-0.8 37.65 0 40.25L1.05 43.45L1.2 45.95L1.25 46Q1.35 46.2 1.7 46Q2.85 45.25 3.05 43.9L2.6 42.25L3.05 43.2L2.6 42.25Q1.85 40.4 1.6 37.8Q1.3 34.5 1.95 32.35L2.05 31.95Q2.55 30.05 3.1 28.85L4.65 26.2L5.9 23.85L6.6 21L6.6 20.75Q6.9 18.7 6.7 17.8L6.5 16.65Q6.1 14.6 6 12.9Q5.65 8.1 7.5 5.65Q10.2 2.05 16.1 2.05L16.3 2.05L18.5 2.1Q22.25 2.15 23.45 2.75Q24.65 3.3 25.95 4.6L26.3 5.05L26.5 5.25L26.85 5.7Q28.1 7.45 28.7 10.9L28.8 11.55L28.75 11.8L28.85 12.2L28.9 12.4L28.95 12.8Q29.15 15.2 28.75 16.6L28.55 17.35L27.65 19.65L32.8 27.75Q33.95 29.75 34.6 31.95Q35.2 34.05 35.3 36.3Q35.45 38.9 34.8 40.8L34.25 42.7L34.05 43.15L33.9 43.4L33.8 43.75L34 44.75Q34.15 45.4 34.75 46.05Q35.3 46.7 35.75 46.9L36.85 47.2L37.75 47.15L37.8 47.1L37.55 46.85L37.2 46.35L37 45.95L36.9 45.2L37.05 44.55L37.15 44.1L37.2 44.05L37.5 43.25L37.55 43.1Q38.2 41.2 38 37.15L37.85 34.2L37.55 31.95Q37.2 29.7 36.65 28.2L34.25 21.75Q33.35 19.35 32.55 15.8L31.85 12L31.85 11.85Q31.7 9.35 30.15 5.45Q28.55 1.4 23.6 -0.65L20.45 -1.65L20.3 -1.65L18.5 -1.9L16.3 -1.9L14.4 -1.65L14.15 -1.6L12.35 -1.05Q9.4 -0.15 8.1 0.9M22.85,14.1Q20.2 15.25 19.3 14.8L18.55 14.25L18.35 13.9L18.4 13.45L18.5 12.9L18.6 12.55Q18.9 11.7 21.15 11.15Q23.45 10.6 25.1 10.6Q26.75 10.95 26.9 11.2L26.95 11.3L26.75 11.65L26.3 12.1L25.8 12.55L22.85 14.1M28.05,42.45L28.05 42.35L28.05 42.2Q28.2 40.4 27.65 36.3L26.7 31.95L26.05 30.25Q25.35 28.4 24.35 27.1L22.4 25L22.15 24.75Q21 23.85 20.05 23.75L20.9 22.7L21.75 23.15L22.25 23.5L22.35 23.55L22.75 23.9L24.35 25.4L24.65 22.65Q24.9 21.3 26.3 19.55Q26.95 18.75 27.4 17.6L28.05 14.6L28.1 14.2Q28.15 12.35 27.7 10.45L27.65 10.25L27 8.2L26.7 7.45Q25 3.65 21.75 3.35L18.5 3.2L16.3 3.1L15.1 3.1Q11.8 3 9.7 5.05Q8.65 6 8 7.2Q7.3 8.4 7 9.85L6.8 10.8L7.05 12.55L7.1 12.9L7.4 14.45L8.2 17.15L8.85 18.5L10 20.7L10.15 21Q11.1 22.85 10.95 24.45Q12.4 23.5 13.4 23.35L14.8 23.05L15.55 23.8Q14.5 24 13.6 24.5L13.4 24.6Q10.35 26.2 8.95 29.95L8.8 30.5L8.3 31.95Q7.05 36 7.15 39.9Q7.05 41.05 7.7 43.5Q8.1 45.2 8.55 45.75L9.1 46.4L9.85 47.1L9.35 43.5Q9.15 41.85 9.1 37.8Q9.1 34.45 10.65 31.95L10.75 31.75L11.5 30.8L11.7 30.5Q14.35 27.45 16.8 27.05Q18.85 26.9 20.4 27.6Q22.6 28.55 23.8 31.15L24.15 31.95Q25.85 35.95 25.85 40.3L25.75 42.5L25.65 43.25L25.55 43.9L25.3 45.25L25.1 46.2L25.75 46.05L27.3 44.45L27.45 44.2L28.05 42.45M16.05,12.55L16.15 12.9L16.3 13.9L16.2 14.1L15.35 14.8Q14.45 15.25 11.8 14.1L9.4 12.9L9 12.65L8.35 12.1L7.9 11.65L7.7 11.3L7.75 11.2Q7.9 10.95 9.55 10.6L13.5 11.15Q15.45 11.6 15.95 12.35L16.05 12.55M20.55,12.35Q19.1 13.1 19.4 13.6L19.5 13.75L19.55 13.75Q20.15 14.25 22.7 13.05Q24.45 12.15 25.45 11.75Q25.95 11.5 26.25 11.4L25.8 11.45L25.6 11.45L25.5 11.45Q22.05 11.55 20.55 12.35M32.25,44.2L33.05 43.1L33.1 43L33.7 41.95L33.75 41.9L34.3 39.7L34.35 39.25Q34.6 37 34.15 34.8L33.4 31.95Q32.45 28.95 31.05 26.7L27.15 20.85L26.65 21.15Q25.55 21.95 25.2 23.5L25.15 23.75Q24.85 25.75 26.1 27.65Q27.25 29.85 27.9 31.95L28.6 34.5L29.15 38.15L29.3 41.15L29.3 42.2L29.3 42.85Q29.6 45.6 29.15 47.4L29.95 46.7L30.6 46L32.25 44.2M15.1,13.75L15.15 13.75L15.25 13.6Q15.45 13.3 15 12.9Q14.65 12.65 14.1 12.35Q12.55 11.55 8.85 11.45L8.4 11.4L9.2 11.75L11.7 12.9L11.95 13.05Q14.5 14.25 15.1 13.75M3.3,42.1L4 43.55L4.45 44.85L4.6 46.25Q6.25 46.35 7.1 44.45L6.7 42.85L6.55 42.2L6.55 42.25Q6.05 40.25 6.2 36.95Q6.3 34.35 6.95 31.95Q7.5 29.95 8.45 28.1L9.5 26.2L10 25.45L9.85 24.1L8.85 21L8.5 20.35L7.85 19.25L7.7 21Q7.1 24.4 5.15 27.1Q3.5 29.3 2.85 31.95Q2.55 33.35 2.5 34.85Q2.45 36.35 2.55 37.85Q2.65 39.9 3.3 42.1M12.55,30.9L11.9 31.95Q11.25 33.1 10.8 34.6L12.4 35.35Q16.35 36.8 21.05 35.55L21.6 35.4Q23 34.95 23.45 34.55L23.45 34.4L23.45 34.2L22.5 31.95L21.75 30.5L21.65 30.25L21.25 29.6Q20.55 28.8 19.45 28.4Q17.75 27.75 15.8 28.4Q15.1 28.6 14.55 28.95L14.25 29.15Q13.25 29.85 12.55 30.9M10.25,37.9L10.25 39.55Q9.9 42.1 10.45 43.3L10.5 43.4L10.65 43.6L11 44.15L11.7 44.95L13.15 46.15Q14.8 47.3 15.6 47.2L14.8 46.15L14.5 45.3L14.45 45L14.15 43.95L14 43.35L13.6 41.4Q13.35 39.1 14.1 37.25L13.95 37.2L13.2 37Q11.15 36.4 10.5 35.55L10.35 36.55L10.25 37.9M19.15,46.5L19.25 46.15L19.35 45.9L20.05 43.7L20.1 43.3L20.15 43.05L20.15 43L20.3 41.55Q20.4 39.25 19.5 37.4L16.1 37.55L14.75 37.35L14.5 38.5L14.5 38.6Q14.25 39.65 14.3 40.8L14.7 43.35L14.8 43.75L15.25 45.1L15.85 46.2L16.25 46.7L16.35 46.85L17.9 48.25Q18.6 47.9 19.05 46.75L19.15 46.5M20.6,46.75L20.65 46.75L21.5 46.55Q22.6 46.3 23.45 45.7L24.6 44.55L24.9 43.25L24.95 42.65L24.95 42.45L24.5 38.1L24.05 35.95L24 35.7Q23.05 36.75 20 37.35L20.45 38.25Q20.9 39.45 20.95 40.9L20.9 43.05L20.85 43.3L20.75 43.7Q20.6 44.95 19.8 46.65L19.75 46.8L20.4 46.75L20.6 46.75" />
<path style="fill:#332F26;fill-opacity:1" d="M28.9,12.4L28.85 12.2L28.75 11.8L28.8 11.55L28.9 12.4" />
<path style="fill:#D08E76;fill-opacity:1" d="M16.25,15.85L16 15.75L15.5 16.05L15.5 16.15L15.5 16.45L15.65 17.8L15.65 18.5Q15.4 19.45 14.4 20.2L14.25 20.35L14.5 19L14.55 18.5L14.55 18.4L14.35 18.4L14.1 16.85L13.45 16.85Q11.75 16.85 10.4 15.55Q9.2 14.4 9 12.9L9 12.65L9.4 12.9L11.8 14.1Q14.45 15.25 15.35 14.8L16.2 14.1L16.3 13.9L16.15 12.9L16.05 12.55L15.95 12.35L16.3 12.45L17.75 12.6L18.5 12.55L18.6 12.55L18.5 12.9L18.4 13.45L18.35 13.9L18.55 14.25L19.3 14.8Q20.2 15.25 22.85 14.1L25.8 12.55L25.8 13Q25.8 14.1 24.4 15.3Q22.8 16.65 20.6 16.65L20.4 16.65L20.8 18.6L20.75 18.6L20.7 18.85L20.95 20.35L20.75 20.2L20.4 19.95L19.55 19.2L19.45 18.7L19.5 17.1L19.5 16.15L19.4 16L19 16.05L18.95 16.1Q18.2 15.25 17.25 15.25Q16.6 15.25 16.35 15.65L16.3 15.75L16.25 15.85M27.4,17.6Q26.95 18.75 26.3 19.55Q24.9 21.3 24.65 22.65L24.35 25.4L22.75 23.9Q23.2 21.8 24.6 19.75L25.25 19.05L26.1 17.95L27.4 17.6M14.8,23.05L13.4 23.35Q12.4 23.5 10.95 24.45Q11.1 22.85 10.15 21L10 20.7L8.85 18.5L8.2 17.15L7.4 14.45Q8.5 17.35 9.45 17.9L9.95 18.5L11.3 20.25L11.8 21Q12.1 21.7 11.95 22.65Q12.05 22.6 12.75 22.3L13.6 22.1L14.1 22.15L14.25 22.4L14.8 23.05M16.7,23.35L15.9 22.75L14.8 21.75Q14.8 21.3 15.1 21L15.3 20.8L15.3 20.9L15.35 21L16.3 22.65L16.7 23.35M20.8,29.45L17.6 28.95L14.5 29.15L14.25 29.15L14.55 28.95Q15.1 28.6 15.8 28.4Q17.75 27.75 19.45 28.4Q20.55 28.8 21.25 29.6L20.8 29.45M21.75,30.5L22.5 31.95L23.45 34.2L23.45 34.4L23.45 34.55Q23 34.95 21.6 35.4L21.05 35.55L21.3 34.95Q21.75 33.6 21.8 31.95L21.8 31.45L21.75 30.5M12.4,35.35L10.8 34.6Q11.25 33.1 11.9 31.95L12.55 30.9L12.25 31.95L12.15 33Q12.15 34.4 12.4 35.35M19.2,33.3L19.15 34.6Q19 35.1 18.05 35.1Q17.35 35.1 16.6 34.45Q15.95 34 15.85 33.5Q17.25 34.45 19.2 33.3" />
<path style="fill:#FCE1D7;fill-opacity:1" d="M16.3,22.65L15.35 21L15.3 20.9L15.3 20.8L15.65 20.65Q16.05 20.45 16.3 19.75L16.55 18.55L16.55 18L16.5 16.7L16.3 15.95L16.3 15.9L16.25 15.85L16.3 15.75L16.35 15.65Q16.6 15.25 17.25 15.25Q18.2 15.25 18.95 16.1L18.9 16.4L18.85 16.55Q18.65 17.55 18.7 18.7L18.45 18.7Q18.5 19.95 18.9 20.65L19.35 21.6L18.9 22.85L18.6 23.65Q17.85 24.6 17.45 24.15L16.7 23.35L16.3 22.65M17.45,16.15L17.4 16.05L17.35 16.05L17.25 19.95Q17.25 22.95 17.65 22.95Q18.05 22.95 18.05 19.9L17.9 17.25L17.55 16.3L17.45 16.15" />
<path style="fill:#FFD0BF;fill-opacity:1" d="M20.35,6.6L18.5 6.6L16.3 6.55L15.3 6.45Q14.05 6.25 14.95 6.8Q15.65 7.2 16.3 7.25L16.7 7.25L18.5 7.3L18.65 7.35Q19.75 7.45 20.35 6.65L20.35 6.6M22.35,8.7L20.2 9.1L18.5 9.25L17.05 9.2L16.3 9.15L12.7 8.55Q13.9 9.75 15.85 10L16.3 10.05L18.5 10.1L18.6 10.05L22.85 8.95Q22.65 8.65 22.35 8.7M18.5,12.55L17.75 12.6L16.3 12.45L15.95 12.35Q15.45 11.6 13.5 11.15L9.55 10.6Q7.9 10.95 7.75 11.2L7.7 11.3L7.9 11.65L8.35 12.1L9 12.65L9 12.9Q9.2 14.4 10.4 15.55Q11.75 16.85 13.45 16.85L14.1 16.85L14.35 18.4L14.55 18.4L14.55 18.5L14.5 19L14.25 20.35Q13.9 20.65 13.85 21L13.85 21.05Q13.7 21.55 14.1 22.15L13.6 22.1L12.75 22.3Q12.05 22.6 11.95 22.65Q12.1 21.7 11.8 21L11.3 20.25L9.95 18.5L9.45 17.9Q8.5 17.35 7.4 14.45L7.1 12.9L7.05 12.55L6.8 10.8L7 9.85Q7.3 8.4 8 7.2Q9 5.95 10.25 5.25Q12.25 4.2 16.15 4.2L16.3 4.2L18.5 4.55L19.45 4.75L22.6 5.5Q24.15 6.1 26.55 8.95L27.7 10.45Q28.15 12.35 28.1 14.2L27.6 15.5L25.75 18.05L26.1 17.95L25.25 19.05L24.6 19.75Q23.2 21.8 22.75 23.9L22.35 23.55L22.25 23.5L21.75 23.15L20.9 22.7L21.9 22L21.85 21.35L21.4 20.7L20.95 20.35L20.7 18.85L20.75 18.6L20.8 18.6L20.4 16.65L20.6 16.65Q22.8 16.65 24.4 15.3Q25.8 14.1 25.8 13L25.8 12.55L26.3 12.1L26.75 11.65L26.95 11.3L26.9 11.2Q26.75 10.95 25.1 10.6Q23.45 10.6 21.15 11.15Q18.9 11.7 18.6 12.55L18.5 12.55M21.8,31.45L21.8 31.95Q21.75 33.6 21.3 34.95L21.05 35.55Q16.35 36.8 12.4 35.35Q12.15 34.4 12.15 33L12.25 31.95L12.55 30.9Q13.25 29.85 14.25 29.15L14.5 29.15L17.6 28.95L20.8 29.45L21.25 29.6L21.65 30.25L21.75 30.5L21.8 31.45M15.3,31.75L16.1 31.95L18.55 32.3Q19.45 32.3 19.7 31.95L19.8 31.65L19.65 31.4L21.35 31.2Q22.2 30.8 19.9 30.35L16.75 30.35Q14.45 30.25 13.85 30.7Q13.1 31.1 15.2 31.4L15.35 31.4L15.3 31.75M16.6,34.45Q17.35 35.1 18.05 35.1Q19 35.1 19.15 34.6L19.2 33.3L19.65 33.05L16.85 33.1L15.8 33.05L15.75 33.05L15.5 33.2L15.5 33.25L15.85 33.5Q15.95 34 16.6 34.45" />
<path style="fill:#FFEAE2;fill-opacity:1" d="M9.7,5.05Q11.8 3 15.1 3.1L16.3 3.1L18.5 3.2L21.75 3.35Q25 3.65 26.7 7.45L27 8.2L27.65 10.25L27.7 10.45L26.55 8.95Q24.15 6.1 22.6 5.5L19.45 4.75L18.5 4.55L16.3 4.2L16.15 4.2Q12.25 4.2 10.25 5.25Q9 5.95 8 7.2Q8.65 6 9.7 5.05M18.9,22.85L19.35 21.6L18.9 20.65Q18.5 19.95 18.45 18.7L18.7 18.7L18.7 18.95Q18.75 20.25 19.3 20.3L20.35 20.8Q20.95 21.2 20.7 21.7L19.9 22.3Q19.45 22.45 18.65 23.55L18.6 23.65L18.9 22.85M17.55,16.3L17.9 17.25L18.05 19.9Q18.05 22.95 17.65 22.95Q17.25 22.95 17.25 19.95L17.35 16.05L17.4 16.05L17.45 16.15L17.55 16.3M19.65,31.4L19.8 31.65L19.7 31.95Q19.45 32.3 18.55 32.3L16.1 31.95L15.3 31.75L15.35 31.4L15.55 31.35L18.55 31.3L19.65 31.4" />
<path style="fill:#934B30;fill-opacity:1" d="M20.35,6.65Q19.75 7.45 18.65 7.35L18.5 7.3L16.7 7.25L16.3 7.25Q15.65 7.2 14.95 6.8Q14.05 6.25 15.3 6.45L16.3 6.55L18.5 6.6L20.35 6.6L20.35 6.65M22.85,8.95L18.6 10.05L18.5 10.1L16.3 10.05L15.85 10Q13.9 9.75 12.7 8.55L16.3 9.15L17.05 9.2L18.5 9.25L20.2 9.1L22.35 8.7Q22.65 8.65 22.85 8.95M20.05,23.75L18.95 24.85Q17.95 25.9 17.1 25.15L15.55 23.8L14.8 23.05L14.25 22.4L14.1 22.15Q13.7 21.55 13.85 21.05L13.85 21Q13.9 20.65 14.25 20.35L14.4 20.2Q15.4 19.45 15.65 18.5L15.65 17.8L15.5 16.45L15.5 16.15L15.5 16.05L16 15.75L16.25 15.85L16.3 15.9L16.3 15.95L16.5 16.7L16.55 18L16.55 18.55L16.3 19.75Q16.05 20.45 15.65 20.65L15.3 20.8L15.1 21Q14.8 21.3 14.8 21.75L15.9 22.75L16.7 23.35L17.45 24.15Q17.85 24.6 18.6 23.65L18.65 23.55Q19.45 22.45 19.9 22.3L20.7 21.7Q20.95 21.2 20.35 20.8L19.3 20.3Q18.75 20.25 18.7 18.95L18.7 18.7Q18.65 17.55 18.85 16.55L18.9 16.4L18.95 16.1L19 16.05L19.4 16L19.5 16.15L19.5 17.1L19.45 18.7L19.55 19.2L20.4 19.95L20.75 20.2L20.95 20.35L21.4 20.7L21.85 21.35L21.9 22L20.9 22.7L20.05 23.75M18.55,31.3L15.55 31.35L15.35 31.4L15.2 31.4Q13.1 31.1 13.85 30.7Q14.45 30.25 16.75 30.35L19.9 30.35Q22.2 30.8 21.35 31.2L19.65 31.4L18.55 31.3M15.85,33.5L15.5 33.25L15.5 33.2L15.75 33.05L15.8 33.05L16.85 33.1L19.65 33.05L19.2 33.3Q17.25 34.45 15.85 33.5" />
</g>
</svg>
