<?xml version="1.0" encoding="utf-8"?>
<svg version="1.1" id="Layer_1"
xmlns="http://www.w3.org/2000/svg"
xmlns:xlink="http://www.w3.org/1999/xlink"
xmlns:author="http://www.sothink.com"
width="69px" height="60px"
xml:space="preserve">
<g id="3065" transform="matrix(1, 0, 0, 1, 38.2, 27.55)">
<path style="fill:#FFCC00;fill-opacity:1" d="M29.2,-25.15L29.2 -25.4L29.45 -25.45L29.85 -25.3L29.6 -25L29.2 -25.15M16.95,-27.2L16.75 -27.25Q17 -27.6 17.35 -27.55L16.95 -27.2M12.2,-23.3L12.05 -22.95L11.8 -22.9L11.5 -22.95Q11.35 -23 11.35 -23.3L11.55 -23.65L11.8 -23.7L12.2 -23.3M2.6,-18.5L2.95 -18.15L2.65 -17.9L2.3 -17.75Q2.15 -17.5 2.15 -17.95L2.3 -18.4L2.6 -18.5M25.15,-21.65L24.7 -21.2Q24.35 -21.3 24.35 -21.85L25.05 -22L25.15 -21.65M24.1,-0.6L23.75 -0.35L23.55 -0.35L23.5 -0.65L23.55 -0.95L23.75 -1L24.1 -0.6M28.2,7.25L28 6.9Q28.1 6.65 28.45 6.9L28.2 7.25M-4.9,-25.15L-5.2 -25.05Q-5.4 -25.1 -5.55 -25.3L-5.1 -25.75L-4.75 -25.7L-4.65 -25.4L-4.9 -25.15M-25.3,-5.5L-25.75 -5.7L-25.45 -6.05L-25.05 -5.75L-25.3 -5.5M-29.65,-5.9L-29.15 -5.85L-29.4 -5.65L-29.65 -5.9M-7.8,-15.4L-7.85 -15L-8 -14.85L-8.15 -14.8L-8.55 -15.35L-8.45 -15.7L-8.15 -15.75L-7.95 -15.7Q-7.8 -15.65 -7.8 -15.4M-15.9,-16.75L-16.1 -16.5Q-16.4 -16.6 -16.4 -17.05L-16.05 -17.15L-15.9 -16.75M-18.65,-11.75L-18.3 -11.6L-18.65 -11.25L-18.8 -11.35L-18.65 -11.75M-18.1,1.1L-18.45 0.85Q-18.45 0.5 -18.1 0.4L-17.7 0.75L-18.1 1.1M-19.2,6.2L-19.15 6.15L-19.05 6.4L-19.1 6.65L-19.45 6.6L-19.55 6.25L-19.2 6.2M-22.4,4.15L-22.5 4.35L-22.8 4.3L-22.95 3.9L-22.6 3.9L-22.5 3.85L-22.4 4.15M-25.65,5.3Q-25.6 5.15 -25.1 5.3L-25.4 5.45L-25.65 5.3M-31.05,14.55L-30.75 14.65L-30.7 14.9L-30.8 15.15L-31.4 15.2L-31.45 14.9L-31.4 14.6L-31.05 14.55M-30.15,25.1L-30.1 25.35L-30.15 25.55L-30.35 25.6L-30.45 25.2L-30.15 25.15L-30.15 25.1M-28.35,31.45L-28.3 31.75L-28.3 32L-28.65 32L-28.7 31.5L-28.4 31.45L-28.35 31.45M-37.1,25.8L-37.15 25.7L-37.15 25.8L-37.7 26L-38.2 25.35Q-38.2 24.8 -37.7 24.8Q-37.25 24.8 -37.15 25.2L-37.05 25.5L-37.1 25.8" />
</g>
</svg>
