<?xml version="1.0" encoding="utf-8"?>
<svg version="1.1" id="Layer_1"
xmlns="http://www.w3.org/2000/svg"
xmlns:xlink="http://www.w3.org/1999/xlink"
xmlns:author="http://www.sothink.com"
width="11px" height="9px"
xml:space="preserve">
<g id="1449" transform="matrix(1, 0, 0, 1, 0, 0)">
<path style="fill:#252525;fill-opacity:1" d="M9.75,3.05L10.1 3.45L9.7 5.25Q9.1 6.7 8.1 7.35L7.95 7.4L9.1 4.8Q9.2 3.55 9.75 3.05" />
<path style="fill:#434242;fill-opacity:1" d="M3.1,0.4Q4.2 0.35 6.05 1.05Q7.6 1.55 9 2.5L9.75 3.05Q9.2 3.55 9.1 4.8L7.95 7.4L5.2 7.75Q3.45 7.45 2.05 6.25Q1.45 5.75 1.25 5.05Q1.15 4.65 1.3 4.5L1.8 3.1L2.2 3.45Q1.95 1.75 3.1 0.4" />
<path style="fill:#000000;fill-opacity:1" d="M1.9,1.05Q1.3 1.85 1.05 2.75Q0.75 3.6 1.05 4.55L1.25 5.05Q1.45 5.75 2.05 6.25Q3.45 7.45 5.2 7.75L7.95 7.4L8.1 7.35Q9.1 6.7 9.7 5.25L10.1 3.45L10.2 3.35Q10.75 3.45 10.8 4.2L10.35 5.9Q9.25 8.3 7.35 8.6L6.8 8.65L6.4 8.65L5.4 8.6L3.95 8.35L2 7.45Q-0.15 6 0 3.55Q0.15 1.35 1.6 0L2.1 0.5L2.15 0.55L2.25 0.5L1.9 1.05" />
<path style="fill:#858585;fill-opacity:1" d="M2.2,3.45L1.8 3.1L1.3 4.5Q1.15 4.65 1.25 5.05L1.05 4.55Q0.75 3.6 1.05 2.75Q1.3 1.85 1.9 1.05L2.25 0.5Q2.45 0.35 2.8 0.35L3.1 0.4Q1.95 1.75 2.2 3.45" />
</g>
</svg>
