<?xml version="1.0" encoding="utf-8"?>
<svg version="1.1" id="Layer_1"
xmlns="http://www.w3.org/2000/svg"
xmlns:xlink="http://www.w3.org/1999/xlink"
xmlns:author="http://www.sothink.com"
width="27px" height="23px"
xml:space="preserve">
<g id="1143" transform="matrix(1, 0, 0, 1, 0, 0)">
<path style="fill:#6B3D3F;fill-opacity:1" d="M19.55,5.1L19.9 5.35L19.4 5.75Q18.15 7.05 17.85 8.6L17.65 10.4L17.7 11.3L16.8 11.35L16.65 11.4L16.6 10.45Q16.65 9.75 17.4 7.5Q18.15 5.05 20.3 4.35L20.55 4.7L20 5.15L19.55 5.1M25.3,8.15L25.75 7.4L25.95 7.7L26 8.8L25.3 8.15M21.7,15.15Q23.35 13.85 24.3 11.6L25.25 8.4L25.9 9L26 8.85L25.25 11.4Q24.1 14.25 23 15.35Q21.85 16.3 21.6 16.25L21.7 15.15" />
<path style="fill:#B68E90;fill-opacity:1" d="M21.45,14.3L20.4 12.6Q19.55 11.65 18.45 11.45Q18.4 11.05 18.5 10.8Q18.65 9.7 19.05 9Q19.65 7.65 21 6.25L21.4 5.75L21.45 5.8L23.2 6.65Q24.05 7.2 25.25 8.4L24.3 11.6Q23.35 13.85 21.7 15.15L21.45 14.3" />
<path style="fill:#36271F;fill-opacity:1" d="M26,8.8L26 8.85L25.9 9L25.25 8.4Q24.05 7.2 23.2 6.65L21.45 5.8L21.4 5.75L20.4 5.55L19.9 5.35L19.55 5.1L20 5.15L21.65 5.5Q23.4 6.2 25.3 8.15L26 8.8M11.35,21L11.55 20.95L12.5 20.8Q13.4 20.55 14.05 20Q15.05 19.25 15.1 17.35Q15.15 16.1 14.55 14.8L14.05 13.9L13.9 13.8Q13.55 13.45 13 13.25L13.7 12.1L16.65 11.4L16.8 11.35L17.7 11.3L18.45 11.45Q19.55 11.65 20.4 12.6L21.45 14.3L21.7 15.15L21.6 16.25L21.55 16.25L20.65 17.75Q20.05 18.6 16.9 19.9L15.2 20.45L13.05 21.4L13 21.45L12.45 21.65Q9.55 22.6 7.9 21.2Q7.25 20.65 6.65 19.1L6.55 18.9Q6.25 18.25 6.25 17.65L6.75 17.45L7.1 17.25L7.45 18.6L7.55 18.9Q8.7 21.35 11.35 21M15.85,16.1Q16.25 17.85 15.75 19.35Q18.25 18.65 19.75 17.35Q21.35 16 20.4 14.05Q19.9 12.9 19.15 12.55L18.7 12.25L17.8 12.1Q15.85 12.2 15 12.65L14.4 13L14.9 13.7L14.95 13.7Q15.5 14.45 15.85 16.1" />
<path style="fill:#D9B5B7;fill-opacity:1" d="M17.7,11.3L17.65 10.4L17.85 8.6Q18.15 7.05 19.4 5.75L19.9 5.35L20.4 5.55L21.4 5.75L21 6.25Q19.65 7.65 19.05 9Q18.65 9.7 18.5 10.8Q18.4 11.05 18.45 11.45L17.7 11.3" />
<path style="fill:#56656D;fill-opacity:1" d="M4.05,12.75L4.95 13.8Q4.4 14.05 4.05 14.4L3.35 13.55L1.3 10.9L0.05 9L0 8L0.05 6.95Q0.15 5.25 0.85 2.6L1.3 0.3L1.35 0.05L1.8 0.15L4.7 1.5Q6.5 2.35 8.65 3.55L9.65 6.1L10.15 7.75L10.65 9.1L10.7 9.5L10.95 10.55L10.05 10.9L9.65 9.6L9.5 9.05L9.35 8.65L9.05 7.7L8.4 5.7L8.25 5.3L7.8 4.2L6.85 3.7Q5.95 3.15 5.1 2.8L3.15 2L2.95 1.95L2.3 1.7L2.2 1.9Q1.85 2.75 1.45 5.3L1.35 5.65Q0.85 8.05 1.1 8.55L1.55 9.45L4.05 12.75M10.75,11.8L10.85 11.75L10.75 11.85L10.75 11.8" />
<path style="fill:#E1CF2F;fill-opacity:1" d="M7.9,13.85Q4.8 15.85 4.4 16.9Q3.6 16.9 3.45 16.35Q5.3 14.65 8.05 13.2Q9.3 12.45 10.75 11.8L10.75 11.85L10.85 11.75L12.6 10.95L12.8 11.4L12.55 12.05L12.2 12Q10.6 12.15 7.9 13.85" />
<path style="fill:#443911;fill-opacity:1" d="M4.95,13.8Q6.1 12.95 7.55 12.2L10.05 10.9L10.95 10.55L12.55 9.85Q13.15 9.7 13.55 10.6L13.7 11L13.85 11.45L13.7 12.1L13 13.25L12.75 13.65L12.5 13.9Q11.3 15.15 9.4 16.2L7.1 17.25L6.75 17.45L6.25 17.65L3.25 17.8L2.8 17.65L2.15 17.05Q1.8 16.25 3.5 14.7L4.05 14.4Q4.4 14.05 4.95 13.8M12.8,11.4L12.6 10.95L10.85 11.75L10.75 11.8Q9.3 12.45 8.05 13.2Q5.3 14.65 3.45 16.35Q3.6 16.9 4.4 16.9L4.45 16.9L6.15 16.5L6.4 16.4L7.2 16.05L9 15.2Q10.65 14.3 11.7 13.1L12.45 12.15L12.55 12.05L12.8 11.4" />
<path style="fill:#AA912B;fill-opacity:1" d="M12.2,12L12.55 12.05L12.45 12.15L11.7 13.1Q10.65 14.3 9 15.2L7.2 16.05L6.4 16.4L6.15 16.5L4.45 16.9Q9.2 14.7 12.2 12" />
<path style="fill:#574031;fill-opacity:1" d="M18.4,12.85L16.45 13.4L14.95 13.7L14.9 13.7L14.4 13L15 12.65Q15.85 12.2 17.8 12.1L18.7 12.25L19.15 12.55Q18.95 12.45 18.4 12.85M7.55,18.9Q10.1 18.2 10.85 17.35Q11 18.65 12.15 20.4L12.5 20.8L11.55 20.95L11.35 21Q8.7 21.35 7.55 18.9" />
<path style="fill:#AAB3BB;fill-opacity:1" d="M9.05,9.05L5.95 8.85L5.4 7.8L3.2 3.7L6.25 4.5L8.25 5.3L8.4 5.7L9.05 7.7L9.35 8.65L9.5 9.05L9.05 9.05M2.8,2.95L1.55 9.45L1.1 8.55Q0.85 8.05 1.35 5.65L1.45 5.3Q1.85 2.75 2.2 1.9L2.8 2.95" />
<path style="fill:#E8EBEC;fill-opacity:1" d="M2.8,2.95L2.2 1.9L2.3 1.7L2.95 1.95L3.15 2L5.1 2.8Q5.95 3.15 6.85 3.7L7.8 4.2L8.25 5.3L6.25 4.5L3.2 3.7L2.8 2.95" />
<path style="fill:#97A2AC;fill-opacity:1" d="M1.55,9.45L2.8 2.95L3.2 3.7L5.4 7.8L5.95 8.85L5.65 8.85L5 10.9L4.05 12.75L1.55 9.45" />
<path style="fill:#838E98;fill-opacity:1" d="M7.55,12.2Q6.1 12.95 4.95 13.8L4.05 12.75L5 10.9L5.65 8.85L5.95 8.85L9.05 9.05L9.5 9.05L9.65 9.6L10.05 10.9L7.55 12.2" />
<path style="fill:#3C2C22;fill-opacity:1" d="M14.95,13.7L16.45 13.4L18.4 12.85Q18.95 12.45 19.15 12.55Q19.9 12.9 20.4 14.05Q21.35 16 19.75 17.35Q18.25 18.65 15.75 19.35Q16.25 17.85 15.85 16.1Q15.5 14.45 14.95 13.7M13.9,13.8L14.05 13.9L14.55 14.8Q15.15 16.1 15.1 17.35Q15.05 19.25 14.05 20Q13.4 20.55 12.5 20.8L12.15 20.4Q11 18.65 10.85 17.35Q10.1 18.2 7.55 18.9L7.45 18.6L7.1 17.25L9.4 16.2Q11.3 15.15 12.5 13.9L12.75 13.65L13 13.25Q13.55 13.45 13.9 13.8" />
<path style="fill:#C6A831;fill-opacity:1" d="M12.2,12Q9.2 14.7 4.45 16.9L4.4 16.9Q4.8 15.85 7.9 13.85Q10.6 12.15 12.2 12" />
</g>
</svg>
