<?xml version="1.0" encoding="utf-8"?>
<svg version="1.1" id="Layer_1"
xmlns="http://www.w3.org/2000/svg"
xmlns:xlink="http://www.w3.org/1999/xlink"
xmlns:author="http://www.sothink.com"
width="80px" height="80px"
xml:space="preserve">
<g id="1527" transform="matrix(1, 0, 0, 1, 0, 0)">
<path style="fill:#5B5B5B;fill-opacity:1" d="M66.75,18.3Q73.4 26.2 74.35 36.65L74.5 40Q74.5 54.25 64.3 64.4Q54.35 74.55 40 74.55Q25.75 74.55 15.6 64.4Q5.45 54.25 5.45 40L5.65 36.7Q6.65 24.65 15.35 15.9L15.55 15.7L15.6 15.6Q25.75 5.5 40 5.5Q54.35 5.5 64.3 15.6L66.75 18.3M74.6,19.8Q80 28.8 80 40Q80 56.55 68.3 68.25L67.45 69.15Q55.95 80 40 80Q24.15 80 12.8 69.2L11.75 68.25Q0 56.55 0 40Q0 30.7 3.65 23.05Q6.55 16.9 11.75 11.7Q23.45 0 40 0Q56.55 0 68.3 11.7Q72.1 15.45 74.6 19.8M64.25,11.05Q53.9 2.25 40 2.25Q24.3 2.25 13.4 13.35Q6.3 20.45 3.85 29.3Q2.35 33.9 2.3 39.05L2.3 40L2.3 40.25L2.3 40.6L2.3 41.2Q2.35 43.9 2.8 46.4Q3.9 53.45 7.5 59.4Q9.85 63.2 13.4 66.75Q24.3 77.75 40 77.75Q55.6 77.75 66.7 66.75Q70.1 63.2 72.6 59.4Q77.45 51.2 77.8 41.2L77.8 40.6L77.8 40.25L77.8 39.05Q77.35 24.05 66.7 13.35L66.35 13.1L64.25 11.05M63.05,17Q53.55 7.45 40 7.45Q26.5 7.45 17.05 17Q7.45 26.45 7.45 40Q7.45 53.5 17.05 62.95Q26.5 72.6 40 72.6Q53.55 72.6 63.05 62.95Q72.6 53.5 72.6 40Q72.6 26.45 63.05 17" />
</g>
</svg>
