<?xml version="1.0" encoding="utf-8"?>
<svg version="1.1" id="Layer_1"
xmlns="http://www.w3.org/2000/svg"
xmlns:xlink="http://www.w3.org/1999/xlink"
xmlns:author="http://www.sothink.com"
width="15px" height="22px"
xml:space="preserve">
<g id="604" transform="matrix(1, 0, 0, 1, 1.35, 7.9)">
<path style="fill:#000000;fill-opacity:1" d="M6.75,-7.4L6.35 -5.7Q6.05 -4.6 6.1 -2.75Q6.1 -0.95 6.6 0L7.5 1.5Q7.95 2 8.95 2.6L10.6 3.55Q13.85 5.8 12.7 10.15Q12.2 12 10.9 12.9L10.45 13.15Q8.8 14 6.4 13.55L4.05 12.9Q-0.95 10.95 -1.3 4.75Q-1.8 -4 6.3 -7.85Q6.85 -8 6.75 -7.4M1.3,-1.55Q-0.1 1.3 0.25 5.1Q0.6 8.75 2 10Q3.5 11.3 4.8 11.8L7.5 12.35L8.3 12.3L10.05 11.7Q11.4 11 11.6 8.6Q11.75 6.2 10.35 5.05L8.8 3.95L7.7 3.35Q6.45 2.75 5.6 1.2Q4.7 -0.45 4.7 -2.35Q4.6 -4.1 4.95 -5.4L5.05 -5.65L3.65 -4.7Q2.25 -3.5 1.3 -1.55" />
<path style="fill:#232323;fill-opacity:1" d="M4.25,4.45Q5.95 6.9 7.8 7.75Q9.6 8.55 8.8 3.95L10.35 5.05Q11.75 6.2 11.6 8.6Q11.4 11 10.05 11.7L8.3 12.3Q5.25 11.45 3.1 9.15Q-1.55 4.15 3.65 -4.7L5.05 -5.65L4.95 -5.4Q1.05 -0.3 4.25 4.45" />
<path style="fill:#414141;fill-opacity:1" d="M4.95,-5.4Q4.6 -4.1 4.7 -2.35Q4.7 -0.45 5.6 1.2Q6.45 2.75 7.7 3.35L8.8 3.95Q9.6 8.55 7.8 7.75Q5.95 6.9 4.25 4.45Q1.05 -0.3 4.95 -5.4M8.3,12.3L7.5 12.35L4.8 11.8Q3.5 11.3 2 10Q0.6 8.75 0.25 5.1Q-0.1 1.3 1.3 -1.55Q2.25 -3.5 3.65 -4.7Q-1.55 4.15 3.1 9.15Q5.25 11.45 8.3 12.3M6.8,4.75L4.35 0.25Q2.8 3.25 6.55 5Q7.1 5.25 6.8 4.75" />
<path style="fill:#6D6969;fill-opacity:1" d="M6.55,5Q2.8 3.25 4.35 0.25L6.8 4.75Q7.1 5.25 6.55 5" />
</g>
</svg>
