<?xml version="1.0" encoding="utf-8"?>
<svg version="1.1" id="Layer_1"
xmlns="http://www.w3.org/2000/svg"
xmlns:xlink="http://www.w3.org/1999/xlink"
xmlns:author="http://www.sothink.com"
width="29px" height="36px"
xml:space="preserve">
<g id="635" transform="matrix(1, 0, 0, 1, 0.3, -4.5)">
<path style="fill:#98E8FC;fill-opacity:1" d="M25.05,8.35Q25.9 8.95 26.75 10.1Q26.7 10.55 26.9 10.8L26.8 9.8L25.75 8L25.1 7.9L25.05 8.35M24.45,6.3Q27.35 6.9 27.95 9.65Q28.3 12.25 27.4 14.3Q27.35 14.85 26.7 15L26.5 14.2Q25.85 12.15 24.25 10.5Q22.95 8.6 24.45 6.3M27.05,27.45Q25.3 32.2 23.95 33.55Q22.5 35.65 20.85 36.65Q21.2 36.2 21.35 35.2Q21.5 34 20.8 31.95Q20.45 29.9 20.55 29.15L20.65 27.95L21.1 26.75Q21.5 23.6 20.3 23.45Q19.4 23.35 18.95 24.5Q18.4 26 17.8 26.35L16.15 27.45Q14.85 28 14.55 27.95Q12.45 27.7 12.1 25.7Q10.45 21.75 9.1 20.35L8.75 20.1Q7.9 20.2 7.65 22.4Q7.35 24.65 6.9 25.6Q6.8 26.6 5.65 26.45Q4.45 26.3 4.25 27.7Q3.8 28.95 4.1 31.45Q4.4 34.2 5.25 34.8L4.15 33.65L0.65 30L0.15 29.25Q-0.5 26.95 -0.2 24.5Q0.35 19.6 2.1 15.25Q2.45 14.65 3.15 14.2Q3.7 14.05 4.3 14.55L4.75 15.6L6.75 14.4L7.55 12.5Q7.65 11.5 8.9 11.65Q10.1 12.05 11.95 14Q13.85 15.7 14.55 17.8L15.75 20.2Q20.05 17.7 20.9 15.3Q21.25 12.35 23.45 14.6Q25.95 16.9 27.2 21.55Q27.9 23.15 28 25.15L27.05 27.45M21.75,23.85Q22.7 23.75 23.05 23.05L23.1 22.3L23 21.25L22.1 20.95L21.65 22.1Q21.6 22.6 21.85 23.1L21.75 23.85M18.3,6.55Q17.95 7.05 17.85 8L19.1 7.65Q18.55 7.15 18.65 6.6L18.3 6.55M19.75,4.55L20.05 7.3Q20.8 8.8 20.55 11.05Q19.75 9.95 19 10.9Q17.65 11.75 17.3 12.65Q16.6 13.05 16.55 13.6L16.2 13.75Q14.05 11.75 15.65 8.75Q16.8 6.6 18.25 4.8Q18.55 4.4 19.5 4.5L19.75 4.55M9.1,17.4L9 18.15L9.35 18.4L10.55 18.55L10.6 18.05Q10.65 17.6 9.5 16.9L9.1 17.4" />
<path style="fill:#F5FDFF;fill-opacity:1" d="M25.1,7.9L25.75 8L26.8 9.8L26.9 10.8Q26.7 10.55 26.75 10.1Q25.9 8.95 25.05 8.35L25.1 7.9M18.2,38.3Q15.4 39.2 10.1 37.35Q7.45 36.8 5.25 34.8Q4.4 34.2 4.1 31.45Q3.8 28.95 4.25 27.7Q4.45 26.3 5.65 26.45Q6.8 26.6 6.9 25.6Q7.35 24.65 7.65 22.4Q7.9 20.2 8.75 20.1L9.1 20.35Q10.45 21.75 12.1 25.7Q12.45 27.7 14.55 27.95Q14.85 28 16.15 27.45L17.8 26.35Q18.4 26 18.95 24.5Q19.4 23.35 20.3 23.45Q21.5 23.6 21.1 26.75L20.65 27.95L20.55 29.15Q20.45 29.9 20.8 31.95Q21.5 34 21.35 35.2Q21.2 36.2 20.85 36.65Q19.5 38 18.2 38.3M21.85,23.1Q21.6 22.6 21.65 22.1L22.1 20.95L23 21.25L23.1 22.3L23.05 23.05Q22.7 23.75 21.75 23.85L21.85 23.1M18.65,6.6Q18.55 7.15 19.1 7.65L17.85 8Q17.95 7.05 18.3 6.55L18.65 6.6M9.5,16.9Q10.65 17.6 10.6 18.05L10.55 18.55L9.35 18.4L9 18.15L9.1 17.4L9.5 16.9" />
<path style="fill:#0D78C4;fill-opacity:1" d="M20.85,36.65Q22.5 35.65 23.95 33.55Q25.3 32.2 27.05 27.45L28 25.15Q28.25 27.85 26.95 30.95Q26.25 34.55 23.85 36.75Q21.1 39.2 17.5 39.45L11.05 39.2Q7.3 38.25 5.05 36.75Q2.4 35.25 1 32.1Q0.25 30.7 0.15 29.25L0.65 30L4.15 33.65L5.25 34.8Q7.45 36.8 10.1 37.35Q15.4 39.2 18.2 38.3Q19.5 38 20.85 36.65" />
</g>
</svg>
