<?xml version="1.0" encoding="utf-8"?>
<svg version="1.1" id="Layer_1"
xmlns="http://www.w3.org/2000/svg"
xmlns:xlink="http://www.w3.org/1999/xlink"
xmlns:author="http://www.sothink.com"
width="32px" height="28px"
xml:space="preserve">
<g id="253" transform="matrix(1, 0, 0, 1, 0.4, 1.55)">
<path style="fill:#FBF734;fill-opacity:1" d="M12,1.45Q15.25 0.9 17.75 1.85Q19.15 2.4 20.6 3.35L22.75 5.05Q24.8 6.95 25.85 10.5L26.2 11.9Q26.55 13.55 26.3 15.25L26.15 14.9Q24.2 10.7 21.95 9.95L22.05 9.95Q23.1 9.25 23.75 9.3L23.25 8.35L21.5 5.95Q20.15 4.35 19.05 3.95L18.3 3.8L18.2 3.75Q15.7 4.25 14.85 6.05L14.85 5.6Q14.85 4.25 16 3.2L15.75 3.15L15.55 3.15Q13.8 3.15 12.45 3.75L11.45 4.35Q11.45 3.8 12.8 2.8L13.55 2.25L12.05 2.25L8.1 2.5Q9.85 1.75 12 1.45" />
<path style="fill:#FED009;fill-opacity:1" d="M26.1,16.35L24.15 17.6L24.45 16.9Q24.45 16.25 23.85 14.9Q23.2 13.5 22.05 12.1Q20.85 10.65 19.55 10.4L19.55 10.45Q19.2 11.05 15.55 13.35Q14.95 11.1 16.6 8.85Q14.3 8.9 12.4 11.55L12.25 11.2Q12.15 10.95 12.4 9.4Q12.65 7.85 13.15 7.35Q13.55 6.8 11.6 7.65Q9.65 8.5 8.6 9.55L7.3 10.85Q7 10.55 6.95 9.6Q6.85 8.6 7.15 8L7.55 7.3Q5.8 7.7 4.1 9.2Q2.9 10.2 2.9 10.95L2.4 9.35Q2.25 8.85 2.35 7.85L2.7 7.1Q3.75 4.9 6.2 3.45Q7.1 2.9 8.1 2.5L12.05 2.25L13.55 2.25L12.8 2.8Q11.45 3.8 11.45 4.35L12.45 3.75Q13.8 3.15 15.55 3.15L15.75 3.15L16 3.2Q14.85 4.25 14.85 5.6L14.85 6.05Q15.7 4.25 18.2 3.75L18.3 3.8L19.05 3.95Q20.15 4.35 21.5 5.95L23.25 8.35L23.75 9.3Q23.1 9.25 22.05 9.95L21.95 9.95Q24.2 10.7 26.15 14.9L26.3 15.25L26.1 16.35" />
<path style="fill:#694817;fill-opacity:1" d="M1.85,9.15L1.3 11.25Q0.9 13.2 1.5 15.9Q2.05 18.6 3.9 20.4L5.35 21.65L5.3 20.75Q5.25 19.85 6.05 18.4L6.55 19.15L7.75 20.75Q8.55 21.7 9.25 21.95L8.95 20.5L8.9 19.35L9.1 17.4Q9.3 16.35 10.05 15.3Q10.8 14.25 11.15 14.2L12.5 17.45Q13.25 19.05 14.75 19.75L14.9 19.15Q15.05 18.45 15.7 17.4Q16.35 16.3 17.35 15.8L19.05 15.1Q19.75 14.9 20.05 15.1L21.5 17L22.9 19.4L23.7 21.05Q25.5 18.7 26.1 16.35L26.3 15.25Q26.55 13.55 26.2 11.9L25.85 10.5Q24.8 6.95 22.75 5.05L20.6 3.35Q19.15 2.4 17.75 1.85Q15.25 0.9 12 1.45Q9.85 1.75 8.1 2.5Q7.1 2.9 6.2 3.45Q3.75 4.9 2.7 7.1L2.35 7.85L1.85 9.15M22.25,20.2L21.3 18.4L19.6 16Q18.4 16.1 17.4 16.85Q16.35 17.6 16 18.5Q15.65 19.4 15.4 20.95Q14.15 20.8 13.2 19.85Q11.65 18.3 10.95 16.3L10.8 15.7Q10.15 16.6 9.85 17.9Q9.6 18.95 9.65 20Q9.65 20.95 9.95 21.9L10.05 22.25L10.4 23.5Q9.15 23.1 8.55 22.7L7.2 21.55L6.3 20.35Q6 20.45 6.45 23.4Q3.1 21.65 1.3 18.7Q-0.5 15.7 0.2 10.8Q0.55 8.3 1.9 6.25L2.45 5.5Q3.45 4.15 4.9 3.05L5 3Q6.9 1.6 8.85 0.9Q10.45 0.4 13.3 0.05Q16.1 -0.25 19 0.95Q22.05 2.3 24.65 5.15Q26 6.65 26.75 8.95Q27.75 11.65 27.6 14.05L27.6 14.4L27.5 14.95L27 16.95L26.2 18.95Q25.05 21.4 23.4 22.4L23.1 21.95L22.75 21.2L22.25 20.2" />
<path style="fill:#D48D01;fill-opacity:1" d="M2.35,7.85Q2.25 8.85 2.4 9.35L2.9 10.95Q2.9 10.2 4.1 9.2Q5.8 7.7 7.55 7.3L7.15 8Q6.85 8.6 6.95 9.6Q7 10.55 7.3 10.85L8.6 9.55Q9.65 8.5 11.6 7.65Q13.55 6.8 13.15 7.35Q12.65 7.85 12.4 9.4Q12.15 10.95 12.25 11.2L12.4 11.55Q14.3 8.9 16.6 8.85Q14.95 11.1 15.55 13.35Q19.2 11.05 19.55 10.45L19.55 10.4Q20.85 10.65 22.05 12.1Q23.2 13.5 23.85 14.9Q24.45 16.25 24.45 16.9L24.15 17.6L26.1 16.35Q25.5 18.7 23.7 21.05L22.9 19.4L21.5 17L20.05 15.1Q19.75 14.9 19.05 15.1L17.35 15.8Q16.35 16.3 15.7 17.4Q15.05 18.45 14.9 19.15L14.75 19.75Q13.25 19.05 12.5 17.45L11.15 14.2Q10.8 14.25 10.05 15.3Q9.3 16.35 9.1 17.4L8.9 19.35L8.95 20.5L9.25 21.95Q8.55 21.7 7.75 20.75L6.55 19.15L6.05 18.4Q5.25 19.85 5.3 20.75L5.35 21.65L3.9 20.4Q2.05 18.6 1.5 15.9Q0.9 13.2 1.3 11.25L1.85 9.15L2.35 7.85M8.75,15.15L8.75 15.05L8.65 15.15L8.75 15.15" />
<path style="fill:#9C753C;fill-opacity:1" d="M12,22.35Q14 23.9 16.05 23.95Q18.3 23.95 20.7 22.1L21.1 21.75L21.8 20.95L22.25 20.2L22.75 21.2L21.75 22.45L19.8 23.95Q18.55 24.75 16.7 24.95L16.1 25Q14.5 25 12.95 24.25Q11.1 23.35 9.95 21.9Q9.65 20.95 9.65 20L12 22.35" />
<path style="fill:#D0A15B;fill-opacity:1" d="M16.05,23.95Q14 23.9 12 22.35L9.65 20Q9.6 18.95 9.85 17.9Q10.15 16.6 10.8 15.7L10.95 16.3Q11.65 18.3 13.2 19.85Q14.15 20.8 15.4 20.95Q15.65 19.4 16 18.5Q16.35 17.6 17.4 16.85Q18.4 16.1 19.6 16L21.3 18.4L22.25 20.2L21.8 20.95L21.1 21.75L20.75 21.35Q19.25 19.5 19.25 18.85Q18 19.05 17.15 20.3Q16.15 21.7 16.05 23.95" />
<path style="fill:#E9CB9E;fill-opacity:1" d="M17.15,20.3Q18 19.05 19.25 18.85Q19.25 19.5 20.75 21.35L21.1 21.75L20.7 22.1Q18.3 23.95 16.05 23.95Q16.15 21.7 17.15 20.3" />
<path style="fill:#C6A831;fill-opacity:1" d="M8.65,15.15L8.75 15.05L8.75 15.15L8.65 15.15" />
<path style="fill:#A8ACAB;fill-opacity:1" d="M28.05,6.05L29.1 8.6L29.45 9.75L29.5 10L29.65 11.6L29.45 11.1L28.7 9.6L28.2 8.8L28.4 10.65L28.35 11.2L27.85 12.65L27.95 10.95L27.85 10.15L27.1 7.3L26.65 6.15L25.95 4.6L25.65 4.05L25.65 4.35L25.35 5.75L25.35 5.85L24.3 5.35L23.7 5.8L22.05 6.7L21.45 6.85Q22.1 7.6 22.25 9.05L22.25 9.9Q22.25 11.05 21.65 11.9Q22.05 10.95 21.95 10.2L21.7 9L20.65 7.05L20.05 6.25L20 6.2Q19.9 6.1 19.8 6.3L19.7 6.5L19.35 7.3L16.05 7.7L15.2 7.7L15.4 8.1L15.8 9.1L15.9 10.15Q15.9 11 15.35 11.65L15.4 11.55Q15.7 10.35 15.6 9.7L15.5 9.15Q15.3 8.25 14.75 7.65L14.25 7.25L14 7.6L12.45 7.35L11.55 7.2L11.6 7L12 6.05L17.35 5.6L19.85 5.3L23.1 3.75Q24.3 3 24.4 2.6Q25.35 2.8 27.4 5.1L27.8 5.5L28.05 6.05M1.95,6.75L2.55 5.6Q3.4 4.35 4.55 3.35Q5.55 2.35 6.9 1.65Q8.5 0.8 10.3 0.35L10.25 0.5Q10.25 1.9 13.1 1.9Q14.4 1.9 14.8 1.4L15.2 0.45L18.4 1.15L19.95 1.85L21.45 2.85Q20.65 3.55 19.35 3.95L18.35 3.35Q16.55 2.45 12.5 2.9Q12.5 3.95 11.95 4.45L10.8 4.9Q9.65 4.9 8.75 4.4Q7.95 3.9 7.85 3.25Q5.75 3.85 3.05 5.85L1.95 6.75M4.5,12.95Q4.45 12.15 4.75 11.5Q5.2 11.15 5.75 11.05L5.55 11.35Q5.55 12.25 6.45 12.25L7.2 11.75L7.55 10.95L7.35 10.55L6.95 10.4Q7.35 10.05 8.2 9.7Q8.95 9.35 9.6 9.25L9.3 10L9.2 10.45L9 10.55Q8.45 10.9 8.25 11.35L8.25 11.45L8.25 11.5L8.4 12Q8.4 12.9 7.5 12.9L6.85 12.7L6.55 12.45L5.9 13.35L5.75 13.75L4.6 13.05L4.5 12.95" />
<path style="fill:#FFFFF6;fill-opacity:1" d="M19.45,5.05L20.4 4.7Q21.5 4.25 22.3 3.55L23.25 2.3L23.85 0.65Q26.5 3.15 27.8 5.5L27.4 5.1Q25.35 2.8 24.4 2.6Q24.3 3 23.1 3.75L19.85 5.3L17.35 5.6L19.45 5.05M19.95,1.85L18.4 1.15L15.2 0.45L14.8 1.4Q14.4 1.9 13.1 1.9Q10.25 1.9 10.25 0.5L10.3 0.35L11.15 0.15L12.9 -0.15L19.75 0.3Q22.2 1.2 22.4 1.6L22.25 1.9L21.45 2.85L19.95 1.85M8.2,9.7Q7.35 10.05 6.95 10.4L7.35 10.55L7.55 10.95L7.2 11.75L6.45 12.25Q5.55 12.25 5.55 11.35L5.75 11.05Q5.2 11.15 4.75 11.5L5.05 11.05L6.15 10.05Q7.85 9.05 9.7 8.95L9.6 9.25Q8.95 9.35 8.2 9.7" />
<path style="fill:#76838C;fill-opacity:1" d="M11.75,9.95Q11.35 10.05 11.2 10.2L11.15 9.35L11.3 7.7L11.55 7.2L12.45 7.35L14 7.6L13.85 7.9L13.4 9.05L13.25 9.55L11.75 9.95M15.8,9.1L15.4 8.1L15.2 7.7L16.05 7.7L19.35 7.3L19 8L18.55 8.9L15.8 9.1M24.75,8.6L24.5 9.55L22.25 9.05Q22.1 7.6 21.45 6.85L22.05 6.7L23.7 5.8L24.3 5.35L25.35 5.85L24.75 8.6M29.45,11.85L28.35 11.2L28.4 10.65L28.2 8.8L28.7 9.6L29.45 11.1L29.65 11.6L29.65 11.95L29.45 11.85M3.6,9.75L2.95 8.95Q2.15 7.95 1.85 6.95L1.95 6.75L3.05 5.85Q5.75 3.85 7.85 3.25Q7.95 3.9 8.75 4.4Q9.65 4.9 10.8 4.9L11.95 4.45Q12.5 3.95 12.5 2.9Q16.55 2.45 18.35 3.35L19.35 3.95L19.15 4Q15.25 5.05 13.4 5.1L11.45 5.25L11 6.05L10.1 7.95L7.95 8.1Q6.85 8.4 5.75 9.05Q4.8 9.65 4.3 10.45L3.6 9.75M14.15,22.55L14.8 24.6L13.6 24.5L10.2 24L8.65 23.65Q7.1 23.15 5.75 22.3Q4.35 21.45 3.35 20.1L2.3 18.55Q1 16.35 0.9 12.8Q1.65 16.3 4.25 19Q7.85 22.75 12.9 22.75L14.15 22.55M10.1,13.6L9.7 13.8L7.6 14.15Q6.6 14.15 5.75 13.75L5.9 13.35L6.55 12.45L6.85 12.7L7.5 12.9Q8.4 12.9 8.4 12L8.25 11.5L8.25 11.45L8.25 11.35Q8.45 10.9 9 10.55L9.2 10.45Q9 11.1 8.95 11.85L10.1 13.6M6.55,15.5L8.85 15.7Q10.25 15.5 10.8 14.8L11.5 13.95Q11.75 14.55 11.5 15Q11.1 15.6 9.4 16.15Q7.7 16.65 6.2 15.8Q5.25 15.25 4.85 14.3L6.55 15.5" />
<path style="fill:#4A5662;fill-opacity:1" d="M18.55,8.9L17.9 10.1L19.2 12L20.35 13.7Q20.75 13.65 21.4 12.45L21.4 12.4L21.65 11.9Q22.25 11.05 22.25 9.9L22.25 9.05L24.5 9.55L24.15 10.35L26.4 16.15L26.8 15.45Q27.6 14.1 27.85 12.65L28.35 11.2L29.45 11.85L29.65 11.95L29.55 12.5L29.45 12.95L28.25 15.95L27.1 17.9L27.05 17.95L26.15 18.85Q24.2 16 20.7 14.6Q17.15 13.15 14.05 13.3L12.65 13.45L12.05 12.7L12 12.65Q11.3 11.65 10.05 11.2L10.4 10.05L10.5 9.8L10.7 9.2L11.05 8.35L11.1 8.2L11.3 7.7L11.15 9.35L11.2 10.2Q11.35 10.05 11.75 9.95L13.25 9.55L13.15 9.9Q13.1 10.25 13.75 11.55Q14.4 12.85 14.75 12.8L15.35 11.65Q15.9 11 15.9 10.15L15.8 9.1L18.55 8.9M12.9,22.75Q7.85 22.75 4.25 19Q1.65 16.3 0.9 12.8L0.9 10.95Q0.95 8.85 1.85 6.95Q2.15 7.95 2.95 8.95L3.6 9.75L4.3 10.45Q3.85 11.15 3.7 12.05Q3.6 12.6 3.65 13.25L3.7 13.4L3.75 13.8L3.8 14.15Q4.05 15.35 5 16.15Q5.9 16.95 6.7 17.15L8.6 17.35Q9.7 17.35 11 16.75Q12.3 16.15 12.5 14.8Q13.05 14.45 14.6 14.25Q13.45 16.5 13.55 19.05Q13.65 20.65 14.15 22.55L12.9 22.75M4.6,13.05L5.75 13.75Q6.6 14.15 7.6 14.15L9.7 13.8L10.1 13.6L8.95 11.85L9.9 12.3Q10.6 12.65 11.2 13.5L11.5 13.95L10.8 14.8Q10.25 15.5 8.85 15.7L6.55 15.5L4.85 14.3L4.55 13.15L4.5 13L4.5 12.95L4.6 13.05" />
<path style="fill:#1F2C31;fill-opacity:1" d="M13.75,-1.45Q17.1 -1.75 19.7 -0.9Q21.5 -0.35 22.8 0.6L23.2 -0.65Q24.15 -0.55 26.55 1.9L26.8 2.15Q28.15 3.65 29.4 6.25L29.45 6.4Q30.6 8.9 30.8 10.5L30.8 11.65L30.6 12.7L30.25 13.9L29.8 15.1L29.45 15.9Q28.5 17.85 26.7 19.6L25.8 20.15Q24.85 18.55 22.85 17.1Q20.85 15.6 18.55 14.95L15.5 14.25Q14.3 16.5 14.7 19.75L15.15 22.25Q15.6 24.15 16.4 25.55L10.85 25.3L8.65 24.75L5.5 23.6Q3.35 22.6 1.85 20.15L1.85 20.1Q0.35 17.65 -0.15 14.7Q-0.6 11.95 -0.15 9.5Q0.3 7.05 1.65 5Q2.5 3.65 3.75 2.45L4.5 1.75Q5.8 0.65 8.4 -0.3Q11 -1.25 13.75 -1.45M11.3,7.7L11.1 8.2L11.05 8.35L10.7 9.2L10.5 9.8L10.4 10.05L10.05 11.2Q11.3 11.65 12 12.65L12.05 12.7L12.65 13.45L14.05 13.3Q17.15 13.15 20.7 14.6Q24.2 16 26.15 18.85L27.05 17.95L27.1 17.9L28.25 15.95L29.45 12.95L29.55 12.5L29.65 11.95L29.65 11.6L29.5 10L29.45 9.75L29.1 8.6L28.05 6.05L27.8 5.5Q26.5 3.15 23.85 0.65L23.25 2.3L22.3 3.55Q21.5 4.25 20.4 4.7L19.45 5.05L17.35 5.6L12 6.05L11.6 7L11.55 7.2L11.3 7.7M14.75,12.8Q14.4 12.85 13.75 11.55Q13.1 10.25 13.15 9.9L13.25 9.55L13.4 9.05L13.85 7.9L14 7.6L14.25 7.25L14.75 7.65Q15.3 8.25 15.5 9.15L15.6 9.7Q15.7 10.35 15.4 11.55L15.35 11.65L14.75 12.8M19,8L19.35 7.3L19.7 6.5L19.8 6.3Q19.9 6.1 20 6.2L20.05 6.25L20.65 7.05L21.7 9L21.95 10.2Q22.05 10.95 21.65 11.9L21.4 12.4L21.4 12.45Q20.75 13.65 20.35 13.7L19.2 12L17.9 10.1L18.55 8.9L19 8M25.35,5.85L25.35 5.75L25.65 4.35L25.65 4.05L25.95 4.6L26.65 6.15L27.1 7.3L27.85 10.15L27.95 10.95L27.85 12.65Q27.6 14.1 26.8 15.45L26.4 16.15L24.15 10.35L24.5 9.55L24.75 8.6L25.35 5.85M6.9,1.65Q5.55 2.35 4.55 3.35Q3.4 4.35 2.55 5.6L1.95 6.75L1.85 6.95Q0.95 8.85 0.9 10.95L0.9 12.8Q1 16.35 2.3 18.55L3.35 20.1Q4.35 21.45 5.75 22.3Q7.1 23.15 8.65 23.65L10.2 24L13.6 24.5L14.8 24.6L14.15 22.55Q13.65 20.65 13.55 19.05Q13.45 16.5 14.6 14.25Q13.05 14.45 12.5 14.8Q12.3 16.15 11 16.75Q9.7 17.35 8.6 17.35L6.7 17.15Q5.9 16.95 5 16.15Q4.05 15.35 3.8 14.15L3.75 13.8L3.7 13.4L3.65 13.25Q3.6 12.6 3.7 12.05Q3.85 11.15 4.3 10.45Q4.8 9.65 5.75 9.05Q6.85 8.4 7.95 8.1L10.1 7.95L11 6.05L11.45 5.25L13.4 5.1Q15.25 5.05 19.15 4L19.35 3.95Q20.65 3.55 21.45 2.85L22.25 1.9L22.4 1.6Q22.2 1.2 19.75 0.3L12.9 -0.15L11.15 0.15L10.3 0.35Q8.5 0.8 6.9 1.65M20.75,11.5L21 10L20.65 8.9L20.1 7.9L20 8.15L19.65 8.85L19.05 9.95L20.3 11.55L20.4 12L20.75 11.5M26,8L25.55 9.4L25.35 9.85L25.15 10.25L25.95 12.6L26.45 14.1L26.7 13.5Q27.15 12.05 26.95 10.6L26.9 10.45Q26.65 8.85 26 7.05L26 8M14.35,9.05L14.3 9.35L14.05 9.95L14.35 10.9L14.65 11.45L14.65 10.1L14.55 9.3L14.45 9Q14.35 8.7 14.35 9.05M4.5,12.95L4.5 13L4.55 13.15L4.85 14.3Q5.25 15.25 6.2 15.8Q7.7 16.65 9.4 16.15Q11.1 15.6 11.5 15Q11.75 14.55 11.5 13.95L11.2 13.5Q10.6 12.65 9.9 12.3L8.95 11.85Q9 11.1 9.2 10.45L9.3 10L9.6 9.25L9.7 8.95Q7.85 9.05 6.15 10.05L5.05 11.05L4.75 11.5Q4.45 12.15 4.5 12.95" />
</g>
</svg>
