<?xml version="1.0" encoding="utf-8"?>
<svg version="1.1" id="Layer_1"
xmlns="http://www.w3.org/2000/svg"
xmlns:xlink="http://www.w3.org/1999/xlink"
xmlns:author="http://www.sothink.com"
width="12px" height="23px"
xml:space="preserve">
<g id="2697" transform="matrix(1, 0, 0, 1, -36.9, -1.1)">
<path style="fill:#FFFFFF;fill-opacity:1" d="M45.3,5.35Q46.95 6.35 47.55 8.1L47.65 8.15L47.7 8.2L47.8 8.2L47.85 9.15L47.9 9.4L47.85 9.45Q47.7 10.95 46.75 12.2L45.7 13.95Q46 15.15 46.9 15.9L46.9 15.95L46.8 15.95L47.05 16.2L47.1 16.3L48.7 17.1L48.7 17.15L48.25 17.25L48.45 17.35L48.45 17.4L47.65 17.2L46.55 16.85Q45.05 16.55 44.9 14.95L44.75 15.1L44.65 15.2L44.65 15.1L43.1 17.1Q42.5 18.35 44.05 19.45L46.2 21.05L47.8 22.5L47.85 22.5Q47.55 20.4 48.9 19.2Q48.5 20.95 48.5 23.3L48.5 23.4L48.05 23.4L45.3 21.5L44.25 20.8Q43.1 19.95 42.05 18.25Q41.55 17.15 43.7 15.15L44.5 14.2L44.45 13.55L44.5 13.5L44.8 12.9L44.85 13L45.9 11.5L45.95 11.45Q43.75 11.7 43.05 9.8L43.1 9.75Q44.55 10.7 46.1 11.1L46.35 10.6L46.95 8.6L46.25 7.85L42.5 5Q41.5 4.75 40.35 4.05L39.8 3.75L40.4 5.3L40.35 5.35Q41.25 7.3 42.5 8.95L42.5 9.05Q39.8 7.6 39.85 4.85Q38.85 3.8 38.3 2.55Q37.6 2.35 36.95 1.35Q36.8 1.15 37.1 1.1L37.5 1.2L37.45 1.1L37.75 1.25L37.8 1.2L38.5 1.55Q41.95 3 45.05 5L45.3 5.35M45.05,14.75L45 14.8L45.05 14.85L45.05 14.75M41.6,17.85L41.65 17.8L41.6 17.9L41.6 17.85M41.8,17.35L41.75 17.55L41.7 17.4L41.8 17.35M43.5,16.45L43.5 16.5L43.55 16.45L43.5 16.45" />
</g>
</svg>
