<?xml version="1.0" encoding="utf-8"?>
<svg version="1.1" id="Layer_1"
xmlns="http://www.w3.org/2000/svg"
xmlns:xlink="http://www.w3.org/1999/xlink"
xmlns:author="http://www.sothink.com"
width="53px" height="12px"
xml:space="preserve">
<g id="1879" transform="matrix(1, 0, 0, 1, 2, 0)">
<linearGradient
id="LinearGradID_1942" gradientUnits="userSpaceOnUse" gradientTransform="matrix(0, 0.00213623, -0.00540161, 0, 4.45, 2.7)" spreadMethod ="pad" x1="-819.2" y1="0" x2="819.2" y2="0" >
<stop  offset="0" style="stop-color:#FAED2D;stop-opacity:1" />
<stop  offset="1" style="stop-color:#FFFEF3;stop-opacity:1" />
</linearGradient>
<path style="fill:url(#LinearGradID_1942) " d="M47.85,5.85L47.65 3.15L47.6 1.7Q47.6 0.95 48.05 0.55L48.05 0.5Q48.5 0 49.2 0Q50.1 0 50.4 0.7L50.65 2.1L50.6 3.05L50.35 5.85L47.85 5.85M37.05,5.75L37.05 2.45Q37.05 1.7 37.4 1.35L37.45 1.35Q37.85 0.85 38.4 0.85Q39.05 0.85 39.4 1.35Q39.8 1.7 39.8 2.45L39.8 4.35L42.45 1.6L42.95 1.1L43.6 0.85Q44.3 0.85 44.65 1.3L44.7 1.3L44.95 2.15L44.5 3.25L42.65 5L43.1 5.7L37.05 5.75M27.65,5.85Q27.65 4.65 28 3.85L28 3.9Q28.3 2.95 28.9 2.25L29 2.2Q29.6 1.6 30.45 1.25L32.3 0.85Q33.5 0.85 34.4 1.35Q35.4 1.85 35.9 2.65L36.35 4.05L36.1 4.9L36 5L35.15 5.25L34.4 5.1L34.35 5L33.85 4.35L33.2 3.55L33.15 3.5L32.3 3.25Q31.5 3.25 31 3.9Q30.45 4.6 30.4 5.85L27.65 5.85M23.85,5.9L23.35 4.7L22.95 5.9L20.25 5.95L21.4 2.9L21.65 2.35Q21.8 1.85 22.05 1.65Q22.2 1.3 22.6 1.1L22.45 1.15Q22.85 0.85 23.35 0.85Q23.9 0.85 24.3 1.15L24.25 1.1L24.85 1.6L24.85 1.65L25.1 2.15L25.15 2.15L25.4 2.9L25.4 2.8L26.65 5.85L23.85 5.9M10.25,6.05L10.25 2.45Q10.25 1.7 10.65 1.35L10.7 1.35Q11.05 0.85 11.6 0.85Q12.25 0.85 12.65 1.35Q13 1.7 13 2.45L13 4.45L15.8 4.45L15.8 2.45Q15.8 1.7 16.2 1.35L16.25 1.35Q16.6 0.85 17.2 0.85Q17.75 0.85 18.2 1.35Q18.55 1.7 18.55 2.45L18.55 5.95L10.25 6.05M4.25,6.15L4.05 5.45L3.85 6.15L-1.05 6.2L-1.8 3.05L-1.75 3.1L-2 2.2L-1.55 1.3Q-1.2 0.85 -0.65 0.85Q0.15 0.85 0.45 1.4L0.5 1.55L0.75 2.45L1.5 5.7L2.25 2.8L2.45 2.05L2.5 1.9Q2.65 1.5 3 1.25Q3.45 0.85 4.05 0.85Q4.7 0.85 5.1 1.3L5.5 1.9L5.55 1.95L5.8 2.8L6.55 5.7L7.25 2.5L7.5 1.8L7.45 1.85Q7.6 1.5 7.9 1.25Q8.15 0.85 8.7 0.85Q9.2 0.85 9.65 1.3Q10 1.65 10 2.2L9.9 3.05L9.2 6.1L4.25 6.15" />
<path style="fill:#EEBE23;fill-opacity:1" d="M47.85,5.85L50.35 5.85L50.3 6.4L50.05 7.5L50.05 7.55Q49.75 8.1 49.1 8.1Q48.45 8.1 48.15 7.55Q47.95 7.15 47.9 6.4L47.85 5.85M37.05,5.75L43.1 5.7L44.85 8.25L45.25 8.9L45.25 9L45.45 9.7L45.1 10.55L45.05 10.65L44.1 10.85L43.3 10.7L43.2 10.7L42.7 10.1L42.75 10.15L42.45 9.65L42.4 9.6L40.7 6.85L39.8 7.7L39.8 9.35Q39.8 10.15 39.4 10.5L38.4 10.85L37.85 10.75L37.75 10.7L37.7 10.7L37.3 10.25L37.2 10.2L37.05 9.6L37.05 8.9L37.05 5.75M50.2,8.75Q50.65 9.2 50.65 9.85Q50.65 10.5 50.2 10.95L50.2 11L49.15 11.35Q48.5 11.35 48.1 11L48.05 10.95Q47.6 10.5 47.6 9.85Q47.6 9.2 48.05 8.75Q48.5 8.3 49.1 8.3Q49.75 8.3 50.2 8.75M27.65,5.85L30.4 5.85L30.4 6Q30.4 6.85 30.7 7.45L31.3 8.3L32.2 8.5L33.3 8.25L33.25 8.25L33.85 7.4Q34 6.9 34.3 6.65L34.25 6.65Q34.55 6.25 35.15 6.25Q35.6 6.25 36 6.6Q36.45 6.9 36.45 7.5L36.1 8.65L36.2 8.6L35.45 9.7Q34.9 10.25 34.15 10.65L34.1 10.65L32.35 10.85L31 10.75L29.85 10.3L28.85 9.45L28.2 8.5L27.75 7.25L27.65 5.95L27.65 5.85M22.75,6.35L24.05 6.35L23.85 5.9L26.65 5.85L27.7 8.5L27.95 9.6L27.6 10.5L26.6 10.85L26.1 10.8L26.05 10.75L25.7 10.5L25.35 9.9L25.2 9.6L25.15 9.45L24.85 8.65L21.95 8.65L21.65 9.45L21.25 10.45L21.2 10.55Q20.85 10.85 20.2 10.85Q19.7 10.85 19.35 10.5Q18.85 10.1 18.85 9.6L19 9.1L19.25 8.55L19.25 8.5L20.25 5.95L22.95 5.9L22.75 6.35M10.25,6.05L18.55 5.95L18.55 9.35Q18.55 10.15 18.2 10.5Q17.75 10.85 17.2 10.85Q16.55 10.85 16.25 10.5Q15.8 10.15 15.8 9.35L15.8 6.9L13 6.9L13 9.35Q13 10.15 12.65 10.5Q12.25 10.85 11.6 10.85Q11.05 10.85 10.7 10.5Q10.25 10.15 10.25 9.35L10.25 6.05M3.05,9L3 9.35L2.95 9.6Q2.8 9.75 2.8 9.95L2.75 10L2.25 10.65L1.35 10.85L0.55 10.7L0.15 10.3L0 10.2L-0.25 9.55L-0.4 9L-1.05 6.2L3.85 6.15L3.05 9M4.25,6.15L9.2 6.1L8.45 9L8.15 9.95L8.2 9.9L7.75 10.5L7.75 10.55L7.6 10.7L6.7 10.85L5.75 10.65L5.75 10.55L5.5 10.3L5.25 10L5.2 9.9L5 9L4.25 6.15" />
</g>
</svg>
