<?xml version="1.0" encoding="utf-8"?>
<svg version="1.1" id="Layer_1"
xmlns="http://www.w3.org/2000/svg"
xmlns:xlink="http://www.w3.org/1999/xlink"
xmlns:author="http://www.sothink.com"
width="34px" height="41px"
xml:space="preserve">
<g id="650" transform="matrix(1, 0, 0, 1, -26.7, -3.45)">
<path style="fill:#3C1515;fill-opacity:1" d="M27.65,32.75Q25.85 32.9 27.5 30.35L27.9 29.7L32.55 24.95Q35.75 21.7 39.3 15.8L39.5 15.45Q42.85 9.7 43.8 4.6Q43.85 3.55 44.4 3.45Q44.85 3.4 45.6 3.9Q52.6 8.55 56.65 15.45Q58.2 18.1 60.05 23.35L59.45 22.8L57.95 22.85L57.85 22.95L57.85 22.85Q57.45 21.5 55.85 18.25L54.3 15.45Q52.3 12.4 49.55 9.6Q45.5 5.55 45.3 5.65L44.4 8.15L43.45 10.8L41.4 15.45L38.95 19.35L35.4 23.9L31.55 28.1Q29.4 30.25 27.8 32.55L27.65 32.75" />
<path style="fill:#542121;fill-opacity:1" d="M53.55,25.85Q51.55 27.95 50.25 30.2Q48.35 34.4 44.4 37.75Q42.5 39.3 40.1 40.7Q36.45 42.85 33.35 43.7Q29.45 40.05 27.9 33.45L27.8 32.55Q29.4 30.25 31.55 28.1L35.4 23.9L38.95 19.35L41.4 15.45L43.45 10.8L44.4 8.15L45.3 5.65Q45.5 5.55 49.55 9.6Q52.3 12.4 54.3 15.45L55.85 18.25Q57.45 21.5 57.85 22.85Q55.9 23.35 53.55 25.85" />
</g>
</svg>
