<?xml version="1.0" encoding="utf-8"?>
<svg version="1.1" id="Layer_1"
xmlns="http://www.w3.org/2000/svg"
xmlns:xlink="http://www.w3.org/1999/xlink"
xmlns:author="http://www.sothink.com"
width="117px" height="113px"
xml:space="preserve">
<g id="968" transform="matrix(1, 0, 0, 1, 0, 0)">
<path style="fill:#FFF5CB;fill-opacity:1" d="M113,10.9L111.85 10.1L105.35 3L104 2.1L106.6 2.35Q107.1 2.5 108.6 4.2L112.1 8.05L114.35 11L114.35 12.3L113 10.9M2.75,11.6Q4.95 8.25 6.9 5.85L9.95 2.05L10.05 2.05Q10.7 2.5 10.7 2.95Q10.85 3.35 10.65 3.65L4.6 11.5Q3.6 12.55 2.75 11.6M12.35,107.65L23.8 107.65L56 107.7L103.8 107.65Q104.9 108.25 103.75 108.75L103.05 108.75L103.05 108.8L17.4 108.9L14.1 108.8Q12.35 108.75 12.35 107.85L12.35 107.65" />
<linearGradient
id="LinearGradID_1250" gradientUnits="userSpaceOnUse" gradientTransform="matrix(-0.000473022, 0.0513, -0.0683289, -0.000656128, 58.15, 48.85)" spreadMethod ="pad" x1="-819.2" y1="0" x2="819.2" y2="0" >
<stop  offset="0" style="stop-color:#FFE98E;stop-opacity:1" />
<stop  offset="1" style="stop-color:#E9CE51;stop-opacity:1" />
</linearGradient>
<path style="fill:url(#LinearGradID_1250) " d="M4.6,11.5L10.65 3.65Q10.85 3.35 10.7 2.95Q10.7 2.5 10.05 2.05L103.05 2.15L103.05 2.1L104 2.1L105.35 3L111.85 10.1L113 10.9L114.35 12.3L114.35 12.6L114.35 14.05L113.9 16L113.7 90.05L113.65 90.05L113.6 93.65L113.55 93.65L113.45 98.35L113.25 98.35L113.15 100.35L105.6 109.05L103.05 109.1L103.05 109.15L56 109.25L56 109.3L10.2 109.35L2.35 99.6L2.35 98.35L2.4 98.35L2.5 11.9L2.75 11.6Q3.6 12.55 4.6 11.5M12.35,107.85Q12.35 108.75 14.1 108.8L17.4 108.9L103.05 108.8L103.05 108.75L103.75 108.75Q104.9 108.25 103.8 107.65L104.05 107.65L105.15 106.65L111.2 99.35L111.25 93.65L111.25 90.05L111.25 88.95L111.25 82.05L111.25 48.65L111.25 16.05L111.25 14.8L111.65 11.3L105.7 3.95L103.05 3.95L103.05 4L56 3.95L56 3.9L11.55 3.85L4.9 12.1L5.6 15.1L5.5 98.35L5.45 98.35L5.4 99.75Q11.15 106.5 11.55 107.35L11.8 107.65L12.35 107.65L12.35 107.85" />
<path style="fill:#7E2605;fill-opacity:1" d="M103.05,2.1L103.05 2.15L10.05 2.05L9.95 2.05L6.9 5.85Q4.95 8.25 2.75 11.6L2.5 11.9L2.4 98.35L2.35 98.35L2.35 99.6L2.35 101.15Q4.6 104.95 6.75 107.65L9.5 110.7L105.6 110.8Q106.4 110.7 107.45 109.95L110.75 106.25L114.3 101.55L114.35 98.35L114.35 93.65L114.35 90.05L114.35 88.95L114.35 48.65L114.35 24.05L114.35 14.05L114.35 12.6L114.35 12.3L114.35 11L112.1 8.05L108.6 4.2Q107.1 2.5 106.6 2.35L104 2.1L103.05 2.1M111.25,16.05L111.25 48.65L111.25 82.05L111.25 88.95L111.25 90.05L111.25 93.65L111.2 99.35L105.15 106.65L104.05 107.65L103.8 107.65L56 107.7L23.8 107.65L12.35 107.65L11.8 107.65L11.55 107.35Q11.15 106.5 5.4 99.75L5.45 98.35L5.5 98.35L5.6 15.1L5.6 13.5Q11.4 5.75 12.45 4.95L23.8 5.05L56 5.1L103.05 5.1L103.05 5.05L104.75 5.05L111.25 13.2L111.25 14.8L111.25 16.05M116.2,9.55Q116.4 11.65 116.6 48.65L116.65 101.5L109.45 110.45Q108.15 112 106.7 112.7L8.65 112.5Q1.95 105.2 0.15 101.45L0.05 98.35L0 98.35L0 82.05L0.05 48.65L0.05 20.1Q0.15 15.55 0.4 11.15L9.1 0L107.7 0.1L116.2 9.55M104,6.7L13.25 6.75L7.55 14.15L7.5 90.05L7.45 90.05L7.4 98.35L12.6 105.45L103.2 105.45L109.05 98.6L109.1 13.4L104 6.7" />
<path style="fill:#E58919;fill-opacity:1" d="M114.35,14.05L114.35 24.05L114.35 48.65L114.35 88.95L114.35 90.05L114.35 93.65L114.35 98.35L114.3 101.55L110.75 106.25L107.45 109.95Q106.4 110.7 105.6 110.8L9.5 110.7L6.75 107.65Q4.6 104.95 2.35 101.15L2.35 99.6L10.2 109.35L56 109.3L56 109.25L103.05 109.15L103.05 109.1L105.6 109.05L113.15 100.35L113.25 98.35L113.45 98.35L113.55 93.65L113.6 93.65L113.65 90.05L113.7 90.05L113.9 16L114.35 14.05M4.9,12.1L11.55 3.85L56 3.9L56 3.95L103.05 4L103.05 3.95L105.7 3.95L111.65 11.3L111.25 14.8L111.25 13.2L104.75 5.05L103.05 5.05L103.05 5.1L56 5.1L23.8 5.05L12.45 4.95Q11.4 5.75 5.6 13.5L5.6 15.1L4.9 12.1" />
</g>
</svg>
