<?xml version="1.0" encoding="utf-8"?>
<svg version="1.1" id="Layer_1"
xmlns="http://www.w3.org/2000/svg"
xmlns:xlink="http://www.w3.org/1999/xlink"
xmlns:author="http://www.sothink.com"
width="14px" height="14px"
xml:space="preserve">
<g id="1429" transform="matrix(1, 0, 0, 1, -24.3, -1.2)">
<path style="fill:#312D23;fill-opacity:1" d="M35.2,4.6Q33.1 7.3 29.85 8.9L27.3 9.65L27.55 10.3Q28.65 12.4 30.4 13.3L31.45 13Q35.4 11.45 36.05 7.3Q36.4 5.1 35.65 3.6L35.2 4.6M35.3,1.2Q37.35 3.3 37.55 5.35Q37.8 9.75 34.5 13Q32.3 15 30.25 14.55Q28.65 14.25 27.35 12.9Q25.7 11.3 25.95 9.5L24.3 8.65L24.75 8.3L26.35 8.2L26.55 8.2L27.8 8.15Q28.95 8 31.1 6.6Q33.2 5.15 34.15 3.65L35.3 1.2" />
<path style="fill:#9D8E79;fill-opacity:1" d="M35.65,3.6Q36.4 5.1 36.05 7.3Q35.4 11.45 31.45 13L30.4 13.3Q28.65 12.4 27.55 10.3L27.3 9.65L29.85 8.9Q33.1 7.3 35.2 4.6L35.65 3.6" />
</g>
</svg>
