<?xml version="1.0" encoding="utf-8"?>
<svg version="1.1" id="Layer_1"
xmlns="http://www.w3.org/2000/svg"
xmlns:xlink="http://www.w3.org/1999/xlink"
xmlns:author="http://www.sothink.com"
width="9px" height="9px"
xml:space="preserve">
<g id="6" transform="matrix(1, 0, 0, 1, 0, 0)">
<path style="fill:#3F270B;fill-opacity:1" d="M0.8,2.65L1.05 3.65L1.15 4.05L1.15 4.1L1.3 4.4L2.1 5.9Q2.75 6.95 4.05 7.1Q5.3 7.2 6.3 6.65Q7.3 6.1 7.7 5.1L7.85 4.85Q8.15 4 7.95 3.25L7.15 1.3L6.7 0.4L6.65 0.35Q7.05 -0.1 7.35 0.05L8 0.95L8.8 3.05Q9.15 4.35 8.85 5.1L7.85 6.65L5.85 7.85L3.2 7.9Q2 7.55 1.05 6.45Q0.6 5.95 0.25 4.75Q-0.15 3.55 0.1 2.6L0.3 2.25L0.4 2.2L0.5 2.2L0.55 2.2L0.7 2.45L0.8 2.65" />
<path style="fill:#9A7226;fill-opacity:1" d="M7.45,3.6Q7.2 3.15 6.5 2.85Q6.6 2.5 6.95 2.45L6.1 0.75L6.7 0.4L7.15 1.3L7.95 3.25Q8.15 4 7.85 4.85L7.45 3.6" />
<path style="fill:#745416;fill-opacity:1" d="M7.85,4.85L7.7 5.1Q7.3 6.1 6.3 6.65Q5.3 7.2 4.05 7.1Q2.75 6.95 2.1 5.9L1.3 4.4L1.15 4.1L1.15 4.05L1.05 3.65L0.8 2.65L0.7 2.45Q0.85 1.9 1.85 1.85Q3.8 1.8 6.1 0.75L6.95 2.45Q6.6 2.5 6.5 2.85Q7.2 3.15 7.45 3.6L7.85 4.85" />
</g>
</svg>
