<?xml version="1.0" encoding="utf-8"?>
<svg version="1.1" id="Layer_1"
xmlns="http://www.w3.org/2000/svg"
xmlns:xlink="http://www.w3.org/1999/xlink"
xmlns:author="http://www.sothink.com"
width="17px" height="17px"
xml:space="preserve">
<g id="377" transform="matrix(1, 0, 0, 1, -1, 0)">
<path style="fill:#61666C;fill-opacity:1" d="M3.95,4.8L3.55 4.95Q3.6 3.4 4.05 2.7Q4.45 2 5.2 1.65L6.2 3.05Q6.55 3.45 6.75 3.25L7.25 2.85L8.65 1.75Q9.75 0.9 12.35 0.85Q11.3 2.8 12.15 3.15L14.05 3.35L14.1 3.35L16.05 2.85L15.05 4.45Q14.5 5.25 15.4 5.4L16.45 5.4L15.9 6.1L15.75 6.15L12.25 5.95L13.2 5.3L13.9 4.25L13.6 4.4L10.5 4.35L10.9 2.55Q9.1 2.6 7.75 3.35Q6.8 3.95 6.45 4.65Q5.55 3.95 5 2.95Q4.25 3.7 4.35 4.75L3.95 4.8M6.45,4.65L6.5 4.65L6.45 4.65" />
<path style="fill:#2D343C;fill-opacity:1" d="M14.1,7.45Q12.4 8.4 11.35 8.55L11.15 8.6L10.2 6.8Q9.4 5.75 8.1 5.2L7.65 5L6.5 4.65L6.45 4.65L4.85 4.6L4.35 4.75Q4.25 3.7 5 2.95Q5.55 3.95 6.45 4.65Q6.8 3.95 7.75 3.35Q9.1 2.6 10.9 2.55L10.5 4.35L13.6 4.4L13.9 4.25L13.2 5.3L12.25 5.95L15.75 6.15L15.9 6.1Q15.25 6.8 14.1 7.45" />
<path style="fill:#1C202A;fill-opacity:1" d="M3.05,5.1L2.9 4.7Q2.35 2.85 3.95 1.5L4.65 1Q5.25 0.65 5.5 0.7Q5.85 0.8 5.85 0.85L6.2 1.3L6.7 2.15L8.05 1.15Q9.35 0.25 10.85 0.1L13 0.05Q13.65 0.2 13.3 1.05L12.7 2.4L14.35 2.55Q15.4 2.5 16.2 1.85Q16.95 1.2 16.95 2.45Q16.85 3.55 16.05 4.6L17.1 4.65L17.5 4.65Q17.85 4.6 17.55 5.4Q17.2 6.25 15.85 7.4Q14.45 8.55 13.05 9.1L11.45 9.55L11.15 8.6L11.35 8.55Q12.4 8.4 14.1 7.45Q15.25 6.8 15.9 6.1L16.45 5.4L15.4 5.4Q14.5 5.25 15.05 4.45L16.05 2.85L14.1 3.35L14.05 3.35L12.15 3.15Q11.3 2.8 12.35 0.85Q9.75 0.9 8.65 1.75L7.25 2.85L6.75 3.25Q6.55 3.45 6.2 3.05L5.2 1.65Q4.45 2 4.05 2.7Q3.6 3.4 3.55 4.95L3.05 5.1" />
<path style="fill:#BB482E;fill-opacity:1" d="M5.2,4.95L6.6 4.95L6.85 5Q7.95 5.15 8.75 5.8Q9.55 6.45 9.95 7.2L10.65 8.8L11 9.9Q11.1 10.3 11.55 10.45L12.55 10.75L11.55 11.4Q10.3 12 9 12.1L8.05 12.05Q7.15 11.35 6.4 10.15Q5.05 7.9 4.7 5.05L5.2 4.95" />
<path style="fill:#430B00;fill-opacity:1" d="M11.65,9.2L11.8 9.85L13.75 10.1Q14.3 10.15 14.45 10.6Q14.6 11 14 12L11.95 14.05L9.15 15.7L6.1 16.65L4.95 16.7Q4.15 16.65 3.75 16.1Q3.35 15.55 3.4 14.95Q3.45 14.3 3.8 14.25Q2.45 13.45 1.65 11.75Q0.8 10.05 1.05 8.5Q1.2 6.85 2.2 5.65Q3.15 4.4 4.3 4.1L6.75 4.15L8.15 4.6L8.5 4.8Q9.75 5.4 10.55 6.5L11.4 8.25L11.65 9.2M12.55,10.75L11.55 10.45Q11.1 10.3 11 9.9L10.65 8.8L9.95 7.2Q9.55 6.45 8.75 5.8Q7.95 5.15 6.85 5L6.6 4.95L5.2 4.95L4.7 5.05L3.9 5.35Q3.3 5.65 2.6 6.7Q1.9 7.7 1.9 8.95Q1.85 10.15 2.95 12.1L3.6 13Q4.5 14.05 5.6 13.85Q6.65 13.65 5.5 14.2Q4.3 14.8 4.55 15.45Q4.8 16.05 6.8 15.7Q8.8 15.2 10.55 14.05L13 11.8Q13.75 10.8 13.5 10.8L12.9 10.75L12.55 10.75" />
<path style="fill:#8C2F1D;fill-opacity:1" d="M12.9,10.75L13.5 10.8Q13.75 10.8 13 11.8L10.55 14.05Q8.8 15.2 6.8 15.7Q4.8 16.05 4.55 15.45Q4.3 14.8 5.5 14.2Q6.65 13.65 5.6 13.85Q4.5 14.05 3.6 13L2.95 12.1Q1.85 10.15 1.9 8.95Q1.9 7.7 2.6 6.7Q3.3 5.65 3.9 5.35L4.7 5.05Q5.05 7.9 6.4 10.15Q7.15 11.35 8.05 12.05L9 12.1Q10.3 12 11.55 11.4L12.55 10.75L12.9 10.75" />
</g>
</svg>
