<?xml version="1.0" encoding="utf-8"?>
<svg version="1.1" id="Layer_1"
xmlns="http://www.w3.org/2000/svg"
xmlns:xlink="http://www.w3.org/1999/xlink"
xmlns:author="http://www.sothink.com"
width="112px" height="110px"
xml:space="preserve">
<g id="552" transform="matrix(1, 0, 0, 1, 9.05, 4.25)">
<path style="fill:#FFFFFF;fill-opacity:1" d="M47.85,-1.9Q47.85 -2.75 48.35 -3.4L48.95 -4.05L49.85 -4.25Q50.05 -4.05 50.05 -3.1Q50.05 -2.1 48.95 -0.4L47.9 -1L47.85 -1.9M83.45,43.7Q83.45 49.1 83.05 51.35L82.7 51.65Q82.25 52.05 81.55 52.05Q79.8 52.05 78.4 50.55L79.25 49.25L79.7 48Q79.7 47.45 78.75 45.45L77.35 43.05L71.55 37.05Q70.1 37.05 69.5 40.25Q68.9 43.5 68.5 43.5Q68.2 43.5 65.25 39.5Q62.35 35.55 62.05 34.7L60.95 32L59.9 29.8L59.05 26.65Q58.35 24.2 57.45 24L55.1 26.05Q52.8 27.85 52 27.85L49.45 26.9Q47.3 25.85 45.25 25.9Q43.2 26 41.5 24.75Q39.85 23.55 38.15 23.55Q35.4 23.55 35.65 25.8Q35.8 28.05 33.65 28.05Q31.1 28.05 29.85 25.9Q28.6 23.8 27.9 23.8Q26.1 23.8 25.75 26.05L25.15 30.85Q24.6 32.95 21.85 33.15Q18.9 33.4 18.2 34.9Q17.8 35.7 17.65 38.95Q17.5 42 16.65 43.25Q16.2 44 15 44.35L12.95 45Q12 45.45 11.55 46.75Q11.2 47.7 11.2 48.65Q11.2 50.65 13.9 52.8Q16.65 54.95 16.65 55.25Q16.65 57.05 14.1 59.3L11 62.35L11 62.7L8.8 63.6L8.6 63.25L8.5 63.25Q7.9 62.45 8.85 60.25Q9.8 57.95 12 57Q14.3 55.95 11.3 53.05Q8.35 50.2 8.35 46.9Q8.35 45.5 11.05 36.25Q14 26.05 14.45 23.35Q14.9 14.7 15.75 10.65Q17.25 3.65 23.2 3.65Q26.05 3.65 27.9 5L31.9 7.5Q33.2 8.1 34.65 10.85L36.7 15.2Q38.25 18 44.2 20.6Q51.05 25.8 53.7 22.75L57.6 18.25Q59.15 16.55 61.05 15.8Q62.4 15.2 64 15.2Q67.9 15.2 68.35 16.35L69.9 21.65Q70.8 23.8 73.6 23.8Q76.35 23.85 77.35 25.9Q80 32 83 35.65Q83.45 36.25 83.45 43.7M81.45,26.35Q80.7 26.35 80.6 25.7L80.6 23.9Q80.6 23.2 80.95 21.2L81.15 19.65Q82.05 20.8 82.25 21.65L82.3 24.1L82.3 25.9Q82.25 26.35 81.45 26.35M74.9,31.9Q75.05 32.9 75.6 33.4Q76.6 34.4 76.9 35.15L77.8 37.9Q78.4 39.5 79.05 39.65L79.4 38.3L79.95 36.4L79.95 35.15Q79.1 35.4 78.1 33.55Q77 31.5 76 31.5Q75.3 31.5 74.9 31.9M26.9,20.35L28.05 19.65L28.15 19.2L28.25 17.15Q28.25 14.9 27.65 14.4L25.35 13.95Q24 13.7 24 12.5Q23.85 11.35 22.1 11.35Q20.55 11.35 20.4 13.25Q20.2 16.95 19.7 18.45Q19.05 20.4 18.05 21.75Q17.5 22.45 17.5 24.95Q17.5 26.6 17.85 27.05L19.25 28.9L19.5 30.8Q19.55 31.9 20.55 31.9Q21.85 31.9 22.85 27.05L23.65 21.65Q23.8 21.1 24.95 20.95L26.9 20.35" />
<path style="fill:#FFFFFF;fill-opacity:1" d="M84.45,44.6Q84.55 45.3 84.25 45.9L83.95 46.45L83 46.55Q82.75 44.95 83.1 44.25L83.65 43.5L84.3 43.95L84.45 44.6M99.75,58.25Q103.95 60.25 102.6 65.7Q101.85 68.85 99.2 75.1Q98.55 77.15 97.15 85.3Q95.9 92.8 95.45 93.75Q94.3 96.1 91.25 97.15Q88.1 98.1 89.4 99.6Q90.6 101.05 90.5 103Q90.4 104.85 89.7 105.25L89.65 105.2L89.4 105.4L88.15 104L88.25 103.75L87.15 100.5Q86.1 98.05 86.75 96.85Q86.8 96.6 89.5 96Q92.15 95.4 92.8 94L93.25 92.6Q93.35 91.45 92.85 90.85L91.6 89.7Q90.9 89 90.8 88.35Q90.6 87.2 91.6 85Q92.6 82.7 92.6 81.95Q92.55 80.7 90.55 79.5Q88.7 78.35 89.05 76.75L90.3 73.15Q90.85 71.4 89.55 70.8Q89.05 70.55 87.45 71.65Q85.85 72.65 84.05 71.85Q82.5 71.1 83.35 69.55Q84.35 68.05 82.4 67.1L79.6 66.75Q78 67.1 76.6 66.35Q75.15 65.6 73.25 65.65L71.2 65.45Q70.6 65.15 69.6 63.1L69.1 62.05L70.95 58.3L71.75 61.25Q72.55 64.25 79.15 63Q84.2 63.15 86.3 61.75L89.2 59.4Q91.2 57.95 92.3 58L95.95 57.6Q97.75 57.3 99.75 58.25M90.9,67.85L91.45 68.75L92.55 69.8Q93.35 70.3 93.25 70.75L91.95 74.85Q91 78.55 91.95 79Q92.65 79.35 93.05 78.6Q93.7 77.5 93.9 77.35L95.5 76.55L96.45 75.1Q97.3 73.4 97.2 72.75Q96.9 71.45 97.1 69.8Q97.3 68.6 98.45 65.9Q99 64.55 97.85 64Q96.65 63.4 96.2 64.15Q95.75 65 94.7 64.7L92.95 64.25Q92.35 64.35 91.65 66L90.95 67.55L90.9 67.85M4.75,59.7Q6.2 59.95 7.45 60.8L8.65 61.7L9.4 65.4L8.5 64.8Q7.9 65.1 7.8 66.9Q7.65 67.85 7.65 69.2L7.2 70.9L6.9 72.95L5.4 76.7L3.75 79.95Q3.5 80 2.5 77.85Q1.65 75.7 0.6 76L-2.45 81L-3.05 82.8L-3.3 84.75L-2.85 85.5L-2.05 86.3Q-2.8 87.6 -4 87.85L-4.85 87.75L-5.15 87.55L-6.6 82.3Q-7.7 77.15 -7.5 76.7Q-6 73.7 -5 69.1Q-4.65 67.5 -2.75 67.1Q-0.8 66.7 -0.55 65.05L-0.25 61.2Q-0.1 60.35 2.55 59.75L4.75 59.7M-8.25,66.4L-7.6 68.2L-7.3 69.45Q-7.25 69.9 -7.8 70.05Q-8.35 70.15 -8.45 69.85L-8.7 68.65L-9.05 66.9L-8.6 65.35L-8.25 66.4M-3.2,72.8Q-3.9 72.9 -4.4 74.45Q-4.8 75.9 -5.45 75.9L-5.25 76.75L-4.6 77.95L-4.1 78.9Q-3.7 78.7 -3.55 77.5L-3.35 75.4L-2.65 74Q-2.35 73.55 -2.45 72.85L-3.2 72.8" />
</g>
</svg>
