<?xml version="1.0" encoding="utf-8"?>
<svg version="1.1" id="Layer_1"
xmlns="http://www.w3.org/2000/svg"
xmlns:xlink="http://www.w3.org/1999/xlink"
xmlns:author="http://www.sothink.com"
width="130px" height="42px"
xml:space="preserve">
<g id="841" transform="matrix(1, 0, 0, 1, -6.15, -2.3)">
<path style="fill:#7E230B;fill-opacity:1" d="M125.05,3.85L16.9 3.85Q7.75 3.85 7.75 12.85L7.75 33.7L7.75 34.1Q8 42.65 16.9 42.65L125.15 42.65Q134 42.55 134.25 34.1L134.25 12.85Q134.25 3.85 125.05 3.85M131.25,3.55Q135.8 6 135.8 12.85L135.8 34.1Q135.6 44.15 125.05 44.15L16.9 44.15Q6.4 44.15 6.15 34.1L6.15 33.7L6.15 12.85Q6.15 6 10.7 3.55Q13.15 2.3 16.9 2.3L125.05 2.3Q128.8 2.3 131.25 3.55" />
<linearGradient
id="LinearGradID_1118" gradientUnits="userSpaceOnUse" gradientTransform="matrix(0.0020752, 0.0184326, -0.0735474, 0.00794983, 23.45, 19.1)" spreadMethod ="pad" x1="-819.2" y1="0" x2="819.2" y2="0" >
<stop  offset="0.00392157" style="stop-color:#FFF3CD;stop-opacity:1" />
<stop  offset="0.423529" style="stop-color:#ECBB59;stop-opacity:1" />
<stop  offset="1" style="stop-color:#B85A12;stop-opacity:1" />
</linearGradient>
<path style="fill:url(#LinearGradID_1118) " d="M134.25,12.85L134.25 34.1Q134 42.55 125.15 42.65L16.9 42.65Q8 42.65 7.75 34.1L7.75 33.7L7.75 12.85Q7.75 3.85 16.9 3.85L125.05 3.85Q134.25 3.85 134.25 12.85M131.3,15.1Q131.1 8.4 125.4 6.9L124.9 6.75L20.25 6.75Q11 6.75 10.75 15.1L10.75 15.5L10.75 31.35Q10.75 32.25 10.9 33.05L11.1 34.1Q12.55 39.75 20.25 39.75L125.05 39.55Q128.3 39.35 129.75 37.55Q131.25 35.7 131.3 34.45L131.3 31.35L131.3 15.5L131.3 15.1" />
<linearGradient
id="LinearGradID_1119" gradientUnits="userSpaceOnUse" gradientTransform="matrix(0, 0.0163269, -0.0205994, 0, 79.35, 22.45)" spreadMethod ="pad" x1="-819.2" y1="0" x2="819.2" y2="0" >
<stop  offset="0" style="stop-color:#F6E255;stop-opacity:1" />
<stop  offset="1" style="stop-color:#D19B27;stop-opacity:1" />
</linearGradient>
<path style="fill:url(#LinearGradID_1119) " d="M131.3,15.5L131.3 31.35L131.3 34.45Q131.25 35.7 129.75 37.55Q128.3 39.35 125.05 39.55L20.25 39.75Q12.55 39.75 11.1 34.1L10.9 33.05Q10.75 32.25 10.75 31.35L10.75 15.5L10.75 15.1Q11 6.75 20.25 6.75L124.9 6.75L125.4 6.9Q131.1 8.4 131.3 15.1L131.3 15.5" />
</g>
</svg>
