<?xml version="1.0" encoding="utf-8"?>
<svg version="1.1" id="Layer_1"
xmlns="http://www.w3.org/2000/svg"
xmlns:xlink="http://www.w3.org/1999/xlink"
xmlns:author="http://www.sothink.com"
width="30px" height="43px"
xml:space="preserve">
<g id="1317" transform="matrix(1, 0, 0, 1, 0.05, 1.55)">
<path style="fill:#3FC4FF;fill-opacity:1" d="M26.9,31.85L26.5 32.55L25.85 32.95L25.2 33.65Q25.4 31.7 24.65 30.35L23.4 27.95Q22 27.05 21.5 26.25Q20.95 25.7 21.35 24.7L21.05 24.7L18.7 26.7Q16.95 28.45 15.75 28.3Q13.35 28.05 12.3 24.4Q10.75 19.25 9.2 17.1L8.05 21.4Q7.55 23.1 7.4 24.6Q6.5 24.5 6.2 24.2L5.9 24.15Q3.8 23.9 3.35 28.05Q3.2 29.3 3.6 30.85L3.8 31.85L5.15 33.25Q3.75 32.3 0.7 29.5Q-0.45 26.65 0.2 23.75Q1.5 20.4 2.5 19.55Q2.95 18.35 3.95 17.5L5.7 15.7Q6.2 14.25 7.55 12.95L9.5 9.4L10.1 9.5L10.35 9.8Q10.5 11.05 11.7 11.45Q12.8 12.3 13.95 12.7Q14.8 13.55 16.8 17.05Q17 17.75 17.3 15.55Q17.6 12.85 19.35 11.1Q21.1 9.05 19.2 7.1Q17.2 6.1 17.4 4.15Q17.4 1.7 18.75 0.4Q21.9 2.2 25.3 4.35Q26.7 5.25 27.5 6.4Q29.5 9.8 27.7 12.35Q27.05 12.75 26.75 12.75L25.2 12.8Q23.35 15.75 26.9 19.2Q27.45 19.5 27.05 20.45Q26.85 22.15 28.8 23.6L29.1 23.65L29.3 24.45L29.3 24.7Q28.75 26.6 28.45 29.05L26.9 31.85M7.65,2Q7.25 2.45 7.5 3.25L7.45 3.5L8.8 2.4L8.85 2.15Q8.95 1.2 8.4 0.6Q7.7 1.3 7.65 2M6.2,3.85Q5.4 0.25 8.95 -1.55L10.2 0.85Q10.8 3.4 7.95 4.5Q6.6 5.4 6.2 3.85M18.3,22.4Q16.7 22.95 17.8 24.1L18.7 24.2Q20.3 23.35 18.3 22.4M24.3,25.8Q24 25.8 23.95 26.05Q23.65 26 23.6 26.5L23.55 27L23.85 27.05Q23.8 27.3 24.15 27.05L24.75 27.15L25.1 26.7L25.1 26.45L24.85 26.15L24.9 25.9L24.3 25.8" />
<path style="fill:#C9F4FF;fill-opacity:1" d="M21.25,38.4Q16.9 39.35 11.25 38.15Q10.05 38.05 9.55 37.25Q7.3 35.5 5.4 33.55L5.15 33.25L3.8 31.85L3.6 30.85Q3.2 29.3 3.35 28.05Q3.8 23.9 5.9 24.15L6.2 24.2Q6.5 24.5 7.4 24.6Q7.55 23.1 8.05 21.4L9.2 17.1Q10.75 19.25 12.3 24.4Q13.35 28.05 15.75 28.3Q16.95 28.45 18.7 26.7L21.05 24.7L21.35 24.7Q20.95 25.7 21.5 26.25Q22 27.05 23.4 27.95L24.65 30.35Q25.4 31.7 25.2 33.65Q22.85 35.35 21.25 38.4M18.7,24.2L17.8 24.1Q16.7 22.95 18.3 22.4Q20.3 23.35 18.7 24.2M24.9,25.9L24.85 26.15L25.1 26.45L25.1 26.7L24.75 27.15L24.15 27.05Q23.8 27.3 23.85 27.05L23.55 27L23.6 26.5Q23.65 26 23.95 26.05Q24 25.8 24.3 25.8L24.9 25.9" />
<path style="fill:#0D78C4;fill-opacity:1" d="M25.2,33.65L25.85 32.95L26.5 32.55L26.9 31.85L28.45 29.05L28.2 31.25Q28.15 34.25 25.2 35.85Q23.95 38.7 18.65 40.05Q13.9 41.75 7.35 37.7Q3.45 34.5 1.2 30.55L0.7 29.5Q3.75 32.3 5.15 33.25L5.4 33.55Q7.3 35.5 9.55 37.25Q10.05 38.05 11.25 38.15Q16.9 39.35 21.25 38.4Q22.85 35.35 25.2 33.65M8.4,0.6Q8.95 1.2 8.85 2.15L8.8 2.4L7.45 3.5L7.5 3.25Q7.25 2.45 7.65 2Q7.7 1.3 8.4 0.6" />
</g>
</svg>
