<?xml version="1.0" encoding="utf-8"?>
<svg version="1.1" id="Layer_1"
xmlns="http://www.w3.org/2000/svg"
xmlns:xlink="http://www.w3.org/1999/xlink"
xmlns:author="http://www.sothink.com"
width="50px" height="53px"
xml:space="preserve">
<g id="3120" transform="matrix(1, 0, 0, 1, 21.55, 16.7)">
<path style="fill:#F8F8F8;fill-opacity:1" d="M14.6,28.65L14.65 28.55L14.75 28.65L14.6 28.65" />
<path style="fill:#F8C030;fill-opacity:1" d="M-6.6,26.05L-5.8 25.6L-4.95 25.05L-5.1 26.3Q-5.1 27.45 -4.75 28.45L-5.15 28.55L-5.55 27.25Q-5.9 26.75 -6.4 26.4L-6.7 26.25L-6.9 26.15L-6.6 26.05" />
<path style="fill:#4F453C;fill-opacity:1" d="M-8.4,30.6L-7.4 30.35L-7.15 30.3L-6.65 30.35L-6.55 30.35L-5.95 30.4L-5.55 30.5Q-4.65 30.7 -4 31.15Q-2.5 32.2 -2.5 34L-2.5 34.2L-2.5 34.45L-2.55 34.65L-3.55 34.55L-4.4 34.4L-6.3 33.8L-7.7 32.65Q-8.3 31.8 -8.4 30.6" />
<path style="fill:#621B8E;fill-opacity:1" d="M5.75,-14.9Q6.85 -14 7.55 -12.8L7.85 -12.1L6.15 -10Q8.6 -11.15 12.4 -11Q16.1 -10.9 19.3 -8.65Q22.4 -6.45 23.75 -4.15L23.9 -2.1Q23.9 1.35 22.15 3.35Q23.2 3.7 24.2 4.3L24.45 4.45Q27.5 6.55 27.5 10.85Q27.5 15 23.05 17.25L22.4 17.6L22.85 18.35Q24.1 20.7 24.1 23.7Q24.1 27.35 21.35 29.95L21.3 30Q19.05 32.05 16.9 32.05L15.95 31.9L15.75 31.85L14.3 33.45Q12.6 34.9 10.3 35.4L9.95 35.45L8.15 35.55Q4.85 35.55 2.95 34.5L2.4 34.15L1.9 34.3L-1.05 34.7L-1.75 34.7L-2.15 34.7L-2.55 34.65L-2.5 34.45L-2.5 34.2L-2.5 34Q-2.5 32.2 -4 31.15Q-4.65 30.7 -5.55 30.5L-5.95 30.4L-6.55 30.35L-6.65 30.35L-7.15 30.3L-7.4 30.35L-8.4 30.6L-8.45 30.1L-8.25 28.95Q-10.35 28.55 -12 26.95Q-14.55 24.55 -14.55 20.8Q-14.55 19.15 -13.7 17.6L-13.55 17.3L-14.15 17.25Q-16.25 17.25 -18.35 16.05L-20.4 14.3Q-16.7 16.1 -14.85 14.3Q-13.05 12.5 -12.8 8.95Q-12.55 5.35 -13.9 3.8Q-15.25 2.2 -17.55 2.35Q-15.5 0.5 -13.65 0.05Q-14.35 -1.25 -14.35 -3.05L-14.3 -3.65Q-12.55 -2.45 -10.1 -2.45Q-6.65 -2.45 -2.3 -5.05Q4.05 -8.9 4.05 -15.8L4.05 -15.9L5.75 -14.9M2.7,-3.75Q-1.8 -3.3 -5.9 0.2Q-7.2 1.35 -8.1 2.6Q-9.95 5.15 -10.25 8.3L-10.35 9.6L-9.95 11.45Q-9.1 12.85 -6.95 13.95Q-5.7 14.65 -4.45 15Q-2.8 13.7 -0.9 13Q1.5 12.1 4.35 12.1L6.85 12.3Q10.05 10.25 11.15 5.75Q12.25 1.15 9.7 -1.5Q7.15 -4.2 2.7 -3.75M23.45,5.5L21.55 4L20.95 4.45Q19.7 5.25 17.75 5.75Q20.4 8.4 20.85 10.25L21.25 12.85Q21.2 13.55 22.15 13.4Q23.1 13.25 24.25 12.2Q25.35 11.1 25.35 9Q25.35 7.3 23.45 5.5M0.25,22.55Q-1.7 24.2 -1.7 26.5Q-1.7 28.55 -0.15 30.05L0 29.6Q0.3 28.9 1.25 28.1Q2.2 27.25 4.1 27.25Q6.15 27.25 7.35 28.45Q8.3 29.4 8.3 30.15L8.35 30.45Q8.7 29.95 9.55 29.5L11.1 28.8Q11.65 27.7 11.65 26.5Q11.65 24.2 9.65 22.55Q7.7 20.95 4.95 20.95Q2.2 20.95 0.25 22.55M14.8,24.65L14.6 25.55L14.65 25.75L15 26.25Q15.3 26.65 15.8 26.85L16.5 27.1L17.1 27.25L17.55 27.3L18 27.35L19.65 26.9Q20.75 26.35 20.75 25.25Q20.75 24.1 20.3 23.6Q19.75 22.9 18.2 22.9L17.8 22.95L16.65 23.15L16.1 23.35L15.75 23.55L15.65 23.6Q15.05 24.05 14.8 24.65M10.9,29.95L9.75 30.65L9.75 30.8L10.45 31.95L11.1 32.05L11.5 32.05L12.4 31.9L12.85 31.7Q13.95 31.25 13.95 30.65L13.9 30.15L13.55 29.75L12.9 29.65L12.5 29.6L10.9 29.95M14.75,28.65L14.65 28.55L14.6 28.65L14.75 28.65M5.95,29.4Q5.25 28.9 4.05 28.9Q1.7 28.9 1.7 30.2L1.75 30.45Q1.9 30.95 2.35 31.25Q3 31.7 4.45 31.7L5.75 31.7Q6.55 31.55 6.55 30.8Q6.55 29.95 5.95 29.4M-11.65,23.9Q-11 24.65 -9.55 24.65L-8.8 24.6L-8.45 24.5L-8 24.3Q-7.15 23.9 -7.15 23.1Q-7.15 22.2 -7.6 21.55L-7.65 21.45L-7.8 21.3Q-8.55 20.45 -10 20.45Q-12.65 20.45 -12.65 21.8L-12.6 21.9L-12.2 22.95L-11.9 23.55L-11.65 23.9M-6.9,26.15L-6.7 26.25L-6.4 26.4Q-5.9 26.75 -5.55 27.25L-5.15 28.55L-4.75 28.45Q-5.1 27.45 -5.1 26.3L-4.95 25.05L-5.8 25.6L-6.6 26.05L-6.9 26.15" />
<path style="fill:#872EBD;fill-opacity:1" d="M-9.9,-12.45Q-5.5 -16.7 -0.3 -16.7Q2.2 -16.7 4.05 -15.9L4.05 -15.8Q4.05 -8.9 -2.3 -5.05Q-6.65 -2.45 -10.1 -2.45Q-12.55 -2.45 -14.3 -3.65Q-14.1 -8.4 -9.9 -12.45M-17.55,2.35Q-15.25 2.2 -13.9 3.8Q-12.55 5.35 -12.8 8.95Q-13.05 12.5 -14.85 14.3Q-16.7 16.1 -20.4 14.3Q-21.55 12.75 -21.55 10.5Q-21.55 6.05 -17.95 2.65L-17.55 2.35M11.65,-13.85Q17.75 -13.85 21.15 -9.65Q23.2 -7.15 23.75 -4.15Q22.4 -6.45 19.3 -8.65Q16.1 -10.9 12.4 -11Q8.6 -11.15 6.15 -10L7.85 -12.1L7.55 -12.8Q9.15 -13.85 11.65 -13.85M9.7,-1.5Q12.25 1.15 11.15 5.75Q10.05 10.25 6.85 12.3L4.35 12.1Q1.5 12.1 -0.9 13Q-2.8 13.7 -4.45 15Q-5.7 14.65 -6.95 13.95Q-9.1 12.85 -9.95 11.45L-10.35 9.6L-10.25 8.3Q-9.95 5.15 -8.1 2.6Q-7.2 1.35 -5.9 0.2Q-1.8 -3.3 2.7 -3.75Q7.15 -4.2 9.7 -1.5M25.35,9Q25.35 11.1 24.25 12.2Q23.1 13.25 22.15 13.4Q21.2 13.55 21.25 12.85L20.85 10.25Q20.4 8.4 17.75 5.75Q19.7 5.25 20.95 4.45L21.55 4L23.45 5.5Q25.35 7.3 25.35 9M4.95,20.95Q7.7 20.95 9.65 22.55Q11.65 24.2 11.65 26.5Q11.65 27.7 11.1 28.8L9.55 29.5Q8.7 29.95 8.35 30.45L8.3 30.15Q8.3 29.4 7.35 28.45Q6.15 27.25 4.1 27.25Q2.2 27.25 1.25 28.1Q0.3 28.9 0 29.6L-0.15 30.05Q-1.7 28.55 -1.7 26.5Q-1.7 24.2 0.25 22.55Q2.2 20.95 4.95 20.95M15.65,23.6L15.75 23.55L16.1 23.35L16.65 23.15L17.8 22.95L18.2 22.9Q19.75 22.9 20.3 23.6Q20.75 24.1 20.75 25.25Q20.75 26.35 19.65 26.9L18 27.35L17.55 27.3L17.1 27.25L16.5 27.1L15.8 26.85Q15.3 26.65 15 26.25L14.65 25.75L14.6 25.55L14.8 24.65Q15.05 24.05 15.65 23.6M12.5,29.6L12.9 29.65L13.55 29.75L13.9 30.15L13.95 30.65Q13.95 31.25 12.85 31.7L12.4 31.9L11.5 32.05L11.1 32.05L10.45 31.95L9.75 30.8L9.75 30.65L10.9 29.95L12.5 29.6M6.55,30.8Q6.55 31.55 5.75 31.7L4.45 31.7Q3 31.7 2.35 31.25Q1.9 30.95 1.75 30.45L1.7 30.2Q1.7 28.9 4.05 28.9Q5.25 28.9 5.95 29.4Q6.55 29.95 6.55 30.8M-11.9,23.55L-12.2 22.95L-12.6 21.9L-12.65 21.8Q-12.65 20.45 -10 20.45Q-8.55 20.45 -7.8 21.3L-7.65 21.45L-7.6 21.55Q-7.15 22.2 -7.15 23.1Q-7.15 23.9 -8 24.3L-8.45 24.5L-8.8 24.6L-9.55 24.65Q-11 24.65 -11.65 23.9L-11.9 23.55" />
<path style="fill:#FFFFEF;fill-opacity:1" d="M0,15L3.2 18.95L4.9 11.85Q5.2 10.45 6.2 18.8L9.25 16.4L7.2 21.4L11 20.3L7.1 25.4L11.2 24.4L4.3 31L-2.75 25.8L-0.7 26.45L0.9 26.7L-3.55 20.4L0.9 22.4L0 15" />
<path style="fill:#D195FF;fill-opacity:1" d="M0.9,22.4L-3.55 20.4L0.9 26.7L-0.7 26.45L-2.75 25.8L4.3 31L11.2 24.4L7.1 25.4L11 20.3L7.2 21.4L9.25 16.4L6.2 18.8Q5.2 10.45 4.9 11.85L3.2 18.95L0 15L0.9 22.4M17.65,14L13 21.4L19.7 20.1L12.15 26.8L18.85 25.5L8.35 32.3L2.3 32.3L-10.35 24.95L-4.15 25.3L-12.45 17.5L-4.5 20.1L-10.8 10.15L-2.15 15.85L-4 5.2L1.75 12.5L5.9 -3.7L8.8 12.15L15.5 6.85L11.5 17L17.65 14" />
</g>
</svg>
