<?xml version="1.0" encoding="utf-8"?>
<svg version="1.1" id="Layer_1"
xmlns="http://www.w3.org/2000/svg"
xmlns:xlink="http://www.w3.org/1999/xlink"
xmlns:author="http://www.sothink.com"
width="109px" height="22px"
xml:space="preserve">
<g id="911" transform="matrix(1, 0, 0, 1, 2.55, 0)">
<linearGradient
id="LinearGradID_1167" gradientUnits="userSpaceOnUse" gradientTransform="matrix(0, 0.00823975, -0.00799561, 0, 6.8, 7.65)" spreadMethod ="pad" x1="-819.2" y1="0" x2="819.2" y2="0" >
<stop  offset="0" style="stop-color:#FFF980;stop-opacity:1" />
<stop  offset="1" style="stop-color:#E7950A;stop-opacity:1" />
</linearGradient>
<path style="fill:url(#LinearGradID_1167) " d="M52.2,2.6L52.2 12.8L57.65 12.8Q58.75 12.8 59.3 13.35Q59.95 13.9 59.95 14.8Q59.95 15.7 59.3 16.3Q58.75 16.8 57.65 16.8L50.3 16.8Q48.95 16.8 48.35 16.15L48.3 16.1Q47.7 15.5 47.7 14.2L47.7 2.6Q47.7 1.4 48.3 0.75L48.3 0.7Q48.9 0 49.95 0Q50.9 0 51.6 0.7Q52.2 1.3 52.2 2.6" />
<linearGradient
id="LinearGradID_1168" gradientUnits="userSpaceOnUse" gradientTransform="matrix(-0.000534058, 0.00822449, -0.00798035, -0.000518799, 7.55, 4.1)" spreadMethod ="pad" x1="-819.2" y1="0" x2="819.2" y2="0" >
<stop  offset="0" style="stop-color:#FFF980;stop-opacity:1" />
<stop  offset="1" style="stop-color:#E7950A;stop-opacity:1" />
</linearGradient>
<path style="fill:url(#LinearGradID_1168) " d="M74.35,4.35L74.25 4.4Q73.7 4.8 72.7 4.75L66.6 4.35L66.45 6.55L72 6.9Q73 6.95 73.5 7.55L73.55 7.6Q74.05 8.15 74 8.95Q73.95 9.75 73.4 10.3L73.35 10.35L71.75 10.7L66.2 10.35L66 13.1L72.35 13.5Q73.4 13.6 73.9 14.1Q74.5 14.7 74.45 15.6Q74.4 16.55 73.65 17Q73.1 17.45 72.1 17.4L63.8 16.85Q62.4 16.8 61.95 16.1L61.9 16.05Q61.3 15.4 61.4 14.1L62.1 2.85Q62.15 2 62.5 1.45Q62.85 0.85 63.5 0.6L64.9 0.35L72.95 0.9Q73.95 0.95 74.5 1.55Q75.05 2.05 75 3Q74.95 3.8 74.35 4.35" />
<linearGradient
id="LinearGradID_1169" gradientUnits="userSpaceOnUse" gradientTransform="matrix(-0.000991821, 0.00817871, -0.00793457, -0.00100708, 8.35, -0.1)" spreadMethod ="pad" x1="-819.2" y1="0" x2="819.2" y2="0" >
<stop  offset="0" style="stop-color:#FFF980;stop-opacity:1" />
<stop  offset="1" style="stop-color:#E7950A;stop-opacity:1" />
</linearGradient>
<path style="fill:url(#LinearGradID_1169) " d="M88.35,3.7L89.3 5.35Q89.6 6.15 89.55 6.9Q89.4 7.75 88.85 8.25L88.8 8.25Q88.1 8.85 87.15 8.75Q86.35 8.65 86 8.25L85.9 8.15L85.35 7.05L84.75 5.85L83.4 5.35L81.95 5.55L81.95 5.6Q81.45 5.75 81.4 6.1L81.5 6.4L81.4 6.45L81.9 6.9L82.65 7.3L82.6 7.3L83.95 7.85L86.15 8.8L88 9.95L88.05 10Q88.75 10.75 89.1 11.7L89.15 11.75Q89.45 12.7 89.3 14.05Q89.15 15.5 88.2 16.7Q87.2 17.9 85.55 18.4L82.05 18.6Q79.55 18.3 78.1 17.15Q77 16.3 76.5 15.05Q75.8 13.75 75.95 12.7Q76.05 11.85 76.7 11.35Q77.4 10.8 78.3 10.9Q79.05 11 79.55 11.55Q80 12.05 80.15 12.9L80.15 12.85L80.55 13.85L80.6 13.95L81.2 14.45L82.4 14.85L84.2 14.6L84.8 13.8L84.7 13.15Q84.35 12.7 83.85 12.5L83.9 12.5L82.1 11.7L79.35 10.45Q78.15 9.65 77.55 8.6Q76.9 7.4 77.1 5.85Q77.25 4.35 78.2 3.35Q79.05 2.3 80.7 1.9L80.65 1.95L84 1.7Q85.55 1.9 86.55 2.45Q87.65 2.95 88.35 3.65L88.35 3.7" />
<linearGradient
id="LinearGradID_1170" gradientUnits="userSpaceOnUse" gradientTransform="matrix(-0.00256348, 0.00782776, -0.00759888, -0.00253296, 13, -16.95)" spreadMethod ="pad" x1="-819.2" y1="0" x2="819.2" y2="0" >
<stop  offset="0" style="stop-color:#FFF980;stop-opacity:1" />
<stop  offset="1" style="stop-color:#E7950A;stop-opacity:1" />
</linearGradient>
<path style="fill:url(#LinearGradID_1170) " d="M104.35,11.55L102.65 11.75L101.6 11L101.55 10.85L101.2 9.75L100.8 8.4Q100.45 7.95 99.6 7.7L98.1 7.55L98.1 7.6Q97.65 7.7 97.45 8.05L97.45 8.35L97.45 8.4L97.8 8.85L98.45 9.4L99.65 10.25L101.65 11.55L103.15 13.1L103.2 13.1Q103.8 13.95 103.9 15L103.95 15.05Q104.15 16 103.75 17.25Q103.3 18.75 102.1 19.7Q100.85 20.7 99.2 20.9L95.65 20.45Q93.3 19.65 92.1 18.2Q91.25 17.2 90.95 15.8Q90.5 14.5 90.85 13.4Q91.1 12.6 91.95 12.2L93.6 12.05Q94.3 12.3 94.65 13Q95 13.5 94.95 14.35L95.25 15.5L95.25 15.6L95.65 16.2L96.75 16.8L98.6 16.95Q99.2 16.7 99.35 16.15Q99.5 15.75 99.3 15.45L98.65 14.75L98.7 14.75L97.05 13.65L94.65 11.9Q93.65 10.85 93.25 9.7Q92.85 8.4 93.35 6.95Q93.75 5.5 94.9 4.65Q96 3.85 97.6 3.8L97.55 3.85Q99.05 3.6 100.9 4.25Q102.4 4.75 103.3 5.45Q104.25 6.15 104.9 7L104.9 7.05L105.5 8.8Q105.6 9.7 105.35 10.4L104.4 11.6L104.35 11.55" />
<linearGradient
id="LinearGradID_1171" gradientUnits="userSpaceOnUse" gradientTransform="matrix(0.000564575, 0.00822449, -0.00798035, 0.000549316, 6.35, 10.15)" spreadMethod ="pad" x1="-819.2" y1="0" x2="819.2" y2="0" >
<stop  offset="0" style="stop-color:#FFF980;stop-opacity:1" />
<stop  offset="1" style="stop-color:#E7950A;stop-opacity:1" />
</linearGradient>
<path style="fill:url(#LinearGradID_1171) " d="M45.2,10.85L44.6 13.2L43.3 15.05L41.85 16.15L41.8 16.15L40.15 16.75L38.15 17.05L34.2 17.35L32.55 17.1L32.6 17.1Q31.75 16.75 31.6 16L31.6 16.05L31.3 14.6L30.55 3.65Q30.45 2.3 31.1 1.65Q31.65 0.95 33 0.85L36.95 0.55L39.85 0.7Q41.1 0.9 42.25 1.8Q45 3.8 45.3 8.25L45.2 10.9L45.2 10.85M38.65,4.7L36.45 4.55L35.2 4.65L35.8 13.3L37.35 13.2L38.5 13.05L39.15 12.9L39.7 12.5L39.75 12.45Q40.9 11.25 40.7 8.55Q40.55 6.6 39.95 5.7Q39.4 4.85 38.65 4.7" />
<linearGradient
id="LinearGradID_1172" gradientUnits="userSpaceOnUse" gradientTransform="matrix(0.00112915, 0.00817871, -0.00793457, 0.000991821, 5.95, 11.3)" spreadMethod ="pad" x1="-819.2" y1="0" x2="819.2" y2="0" >
<stop  offset="0" style="stop-color:#FFF980;stop-opacity:1" />
<stop  offset="1" style="stop-color:#E7950A;stop-opacity:1" />
</linearGradient>
<path style="fill:url(#LinearGradID_1172) " d="M22.7,3.95Q22.55 2.8 23.05 2.1Q23.5 1.3 24.5 1.15Q25.5 1.05 26.2 1.7L26.25 1.75Q26.85 2.25 27 3.4L28.65 15.1Q29.05 17.85 26.65 18.05L25.7 18.05L25.6 18.1L24.75 17.65L24.7 17.6L24.05 17L23.45 16.35L23.45 16.3L18.15 10.3L19 16.5Q19.2 17.7 18.7 18.35Q18.2 19.15 17.2 19.25Q16.2 19.4 15.55 18.8L15.5 18.75Q14.9 18.15 14.75 17.05L13.1 5.55Q13 4.75 13.15 4.2L13.2 4.1Q13.35 3.45 13.95 2.95Q14.5 2.45 15.15 2.35L16.25 2.5L16.3 2.45L17 2.85Q17.05 2.8 17.1 2.9L17.65 3.5L17.7 3.55L18.25 4.2L23.65 10.35L22.7 3.95" />
<linearGradient
id="LinearGradID_1173" gradientUnits="userSpaceOnUse" gradientTransform="matrix(0.0015564, 0.00810242, -0.00787354, 0.00140381, 5.25, 11.9)" spreadMethod ="pad" x1="-819.2" y1="0" x2="819.2" y2="0" >
<stop  offset="0" style="stop-color:#FFF980;stop-opacity:1" />
<stop  offset="1" style="stop-color:#E7950A;stop-opacity:1" />
</linearGradient>
<path style="fill:url(#LinearGradID_1173) " d="M9.2,4.15Q9.85 4.5 10.05 5.4Q10.2 6.2 9.8 6.9L9.7 6.95Q9.2 7.5 8.25 7.65L2.25 8.8L2.7 10.95L8.15 9.95L9.75 10.25L9.8 10.3Q10.5 10.65 10.65 11.45Q10.8 12.25 10.35 12.85L10.3 12.95Q9.9 13.5 8.9 13.65L3.45 14.65L3.95 17.35L10.2 16.25L11.85 16.45Q12.5 16.85 12.7 17.75Q12.9 18.65 12.3 19.3Q11.9 19.85 10.9 20.05L2.75 21.5Q1.35 21.7 0.7 21.2L0.65 21.15Q0 20.7 -0.3 19.4L-2.45 8.4L-2.45 7Q-2.25 6.2 -1.65 5.85Q-1.25 5.45 -0.4 5.25L7.5 3.85Q8.45 3.7 9.2 4.15" />
<path style="fill:#FFFFFF;fill-opacity:1" d="M104.1,8Q104.3 8.85 103.85 9.1L103.25 8.9L102.3 7.65Q101.75 6.85 100.7 6.5Q98.55 5.8 96.35 5.85Q96.1 5.95 96.2 5.65Q96.9 4.65 98.4 4.8L100.9 5.2Q101.9 5.55 102.85 6.3Q103.85 7.05 104.1 8M88.15,5.3Q87.55 5.25 85.25 4.05Q82.9 2.8 79.5 4.45Q79 4.65 79.2 4.15Q79.5 3.45 80.35 3.05Q81.65 2.3 83.1 2.25Q86.85 2.45 87.8 3.9Q88.75 5.35 88.15 5.3M71.3,2.5Q71.55 1.7 72.45 1.5L72.45 1.45Q74 1.85 73.95 3.3L73.9 3.4Q71.95 4.35 71.3 2.5M63.9,0.9Q65.45 1.3 65.4 2.75L65.35 2.85Q63.4 3.8 62.75 1.95Q63 1.15 63.9 0.95L63.9 0.9M49.55,0.7L49.55 0.65Q51.1 0.95 51.15 2.4L51.1 2.5Q49.25 3.55 48.5 1.75Q48.65 0.95 49.55 0.7M41.85,3.35Q40.05 4.5 39.2 2.75Q39.25 1.95 40.15 1.65L40.15 1.6Q41.7 1.8 41.9 3.25L41.85 3.35M34.2,3.15L34.15 3.25Q32.35 4.45 31.5 2.7Q31.6 1.9 32.45 1.55L32.45 1.5Q34.05 1.7 34.2 3.15M26.2,3.65L26.15 3.75Q24.45 5.05 23.45 3.35Q23.5 2.55 24.35 2.15L24.35 2.1Q25.95 2.2 26.2 3.65M16.75,4.9Q15.05 6.2 14.1 4.5Q14.15 3.7 15 3.3L15 3.25Q16.55 3.35 16.8 4.8L16.75 4.9M1.05,7.6Q-0.6 9 -1.6 7.35Q-1.65 6.5 -0.85 6.1L-0.85 6.05Q0.8 6.05 1.1 7.5L1.05 7.6M9.25,6L9.2 6.1Q7.6 7.5 6.6 5.85Q6.6 5.05 7.35 4.65L7.35 4.6Q8.9 4.6 9.25 6" />
</g>
</svg>
