<?xml version="1.0" encoding="utf-8"?>
<svg version="1.1" id="Layer_1"
xmlns="http://www.w3.org/2000/svg"
xmlns:xlink="http://www.w3.org/1999/xlink"
xmlns:author="http://www.sothink.com"
width="77px" height="48px"
xml:space="preserve">
<g id="2681" transform="matrix(1, 0, 0, 1, 28.05, 4.55)">
<path style="fill:#F7FFDB;fill-opacity:1" d="M41.2,42.15Q36 40.85 26.75 37.55Q18.15 34.45 5 31.3Q1.35 30.55 -2.9 35.8Q-3.5 31.15 0.3 28.8Q-11.05 24.85 -18.9 21.25Q-26.8 17.65 -28 14.4Q-29.2 11.15 -10.05 11.05Q9.1 10.95 17.3 8.55Q25.45 6.15 30.85 3.5Q36.25 0.85 41.25 -4.55Q45.25 -1.15 41.05 2.05Q36.85 5.3 30.95 8.1Q25 10.9 19.6 12L5.6 14.2L-15.5 14.85Q-28 14.35 -12.4 20.85Q3.2 27.3 4.7 26.95Q28.3 22.2 34 19.65Q42.55 15.65 41.45 14Q46.6 15.9 43.55 18.8Q40.5 21.65 29.85 24.55Q19.15 27.4 10 28.95L22.1 32.85L38.55 37.25Q49.95 40.1 48.2 41.75Q46.4 43.4 41.2 42.15" />
</g>
</svg>
