<?xml version="1.0" encoding="utf-8"?>
<svg version="1.1" id="Layer_1"
xmlns="http://www.w3.org/2000/svg"
xmlns:xlink="http://www.w3.org/1999/xlink"
xmlns:author="http://www.sothink.com"
width="40px" height="29px"
xml:space="preserve">
<g id="2858" transform="matrix(1, 0, 0, 1, 8.1, -14.55)">
<path style="fill:#E3E4E5;fill-opacity:1" d="M19.25,21.6L19.95 21.5L18.6 24.15L18.3 24.5L18.1 24.15L19.25 21.6M14.2,16.05L14.95 15.85L13.75 18.6L13.55 18.85L13.3 18.5Q13.95 17.25 14.2 16.05" />
<path style="fill:#3D434B;fill-opacity:1" d="M18.6,24.15L19.95 21.5L19.25 21.6L18.05 21.65L17.85 21.75L16.25 22L15.9 21.8L15.1 20.85L17 20.6L19.05 20.4L19.55 20.35L20.35 20.3L20.75 20.4Q21.6 20.55 21.25 21.5L20.05 23.95L18.95 25.7L18.3 24.5L18.6 24.15M13.75,18.6L14.95 15.85L14.2 16.05L13.05 16.05L12.85 16.25L11.3 16.55L10.95 16.45L10.05 15.55L11.9 15.1L13.9 14.75L14.45 14.75L15.15 14.55L15.65 14.65Q16.55 14.75 16.15 15.75L15.25 18.3L14.25 20L13.55 18.85L13.75 18.6" />
<path style="fill:#B4BCC2;fill-opacity:1" d="M18.1,24.15L16.85 22.65L18.05 21.65L19.25 21.6L18.1 24.15M12.85,16.25L13.05 16.05L14.2 16.05Q13.95 17.25 13.3 18.5L11.95 17.2L12.85 16.25" />
<path style="fill:#717D8E;fill-opacity:1" d="M16.85,22.65L16.75 22.55L16.25 22L17.85 21.75L18.05 21.65L16.85 22.65M11.95,17.2L11.85 17.1L11.3 16.55L12.85 16.25L11.95 17.2" />
<path style="fill:#3C3532;fill-opacity:1" d="M4.65,39.05Q5.6 36.3 6.65 34.35L7.6 34.6L6.4 37.3L5.6 40.5Q7.2 37.55 8.35 36.3L8.4 36.25L9.35 37.25L8.35 38.45L6.7 40.7L6.1 41.55L5.45 42.6L3.25 42.3L1.9 41.8L-0.25 40.7L-2.25 39.35L-3.5 38.25L-5 36.7L-5.6 35.95Q-8 32.8 -8.1 29.5Q-8.25 25.55 -5 22.5L-3.7 21.4Q-1.8 23.2 0.4 23.65Q0.05 24.25 -0.15 24.95L-0.1 24.7Q-2.45 24.15 -3.85 22.45L-5 23.75Q-6.8 26.15 -6.85 29.6Q-6.85 31.35 -6.2 32.95L-5 35L-3.95 36.2L-2.7 37.3L-2 37.85Q0.7 39.9 2.85 40.7L4.35 41.15L4.35 40.7Q4.35 39.9 4.65 39.05" />
<path style="fill:#252525;fill-opacity:1" d="M21.15,22Q24.4 21.4 27.5 22.75L29.1 26.35Q26.85 25.15 20.9 25.3L19.9 24.3L18.4 22.85Q19.7 22.25 21.15 22M10.15,20.25Q9.85 20.55 8.9 19.75L8.35 19.15Q8 18.7 7.8 18.1L8.35 18.55L8.55 18.65Q9.65 19.4 10.75 19.45L10.15 20.25M8.35,28.15L13.2 24.9L15.3 26.75Q10.9 29.3 9.35 31.15L8.35 32.35L7.75 33.1L4.9 31.95L3.15 30.85Q5.4 29.9 8.35 28.15M18.75,24.45L19.7 25.4L16.5 26.3L11 21.3L11.4 20.4L16.65 25.15Q16.9 24.7 18.75 24.45M17.65,27.45Q22.9 25.65 28.75 27.3Q17.05 27.55 9.45 35L8.5 33.75L8.65 33.55Q12.55 29.45 16.9 27.75L18.05 28.35L18.3 28.15L17.65 27.45" />
<path style="fill:#3A3838;fill-opacity:1" d="M23.75,18.2Q25.75 19.6 27.5 22.75Q24.4 21.4 21.15 22Q19.7 22.25 18.4 22.85L16.5 21.1Q18.35 19.65 18.7 18.35L21 18L23.75 18.2M7.65,17.55L8.35 17.45Q9.75 17.45 11.6 18.9Q11.1 19.15 10.75 19.45Q9.65 19.4 8.55 18.65L8.35 18.55L7.8 18.1L7.65 17.55M8.35,25.4L11.25 23.15L13.2 24.9L8.35 28.15Q5.4 29.9 3.15 30.85Q2 29.85 1.45 28.5Q4.65 28 8.35 25.4M12.8,20.6Q14.25 22.4 16.05 22.9L16.1 22.9Q15.05 21.5 13.5 20.45L13.3 20.35Q13 20.3 12.8 20.55L12.8 20.6M16.65,25.15L11.4 20.4L11.6 20.15Q12.05 19.65 12.25 19.6L12.8 19.5Q13.2 19.4 14.05 20.1L14.6 20.55L15.8 21.6L16.4 22.2L17.55 23.3L18.75 24.45Q16.9 24.7 16.65 25.15" />
<path style="fill:#434242;fill-opacity:1" d="M21,18L18.7 18.35Q18.35 19.65 16.5 21.1L15.2 19.95L15.9 19.05L17 16.95Q18.4 16.8 20.65 16.9L22 17.3Q22.9 17.55 23.75 18.2L21 18M1.45,28.5L1.25 28.05L0.75 26.3Q3.15 26.25 6.2 24.75L8.35 23.6L10.25 22.3L11.25 23.15L8.35 25.4Q4.65 28 1.45 28.5" />
<path style="fill:#9C9C9C;fill-opacity:1" d="M15.2,19.95L14 19L16.35 16.25L17.15 16.2L20.65 16.9Q18.4 16.8 17 16.95L15.9 19.05L15.2 19.95M8.35,23.6L6.2 24.75Q3.15 26.25 0.75 26.3Q0.55 25.25 0.85 24.9L4.4 24.5Q6.3 24 8.35 22.8L9.8 21.9L10.25 22.3L8.35 23.6M12.8,20.55Q13 20.3 13.3 20.35L13.5 20.45Q15.05 21.5 16.1 22.9L16.05 22.9Q14.25 22.4 12.8 20.6L12.8 20.55" />
<path style="fill:#776C65;fill-opacity:1" d="M2.15,31.2Q4.05 33.35 6.75 34.15L6.65 34.35Q5.6 36.3 4.65 39.05Q4.35 39.9 4.35 40.7Q0.85 38.75 -0.65 36Q-1.45 34.55 -1.6 33L-1.55 31.75Q-0.05 31.95 2.15 31.2M7.6,34.6L7.65 34.6L7.7 34.65L8.75 35.9L8.4 36.25L8.35 36.3Q7.2 37.55 5.6 40.5L6.4 37.3L7.6 34.6" />
<path style="fill:#958C85;fill-opacity:1" d="M0.4,28.6L0.9 29.6Q1.45 30.5 2.15 31.2Q-0.05 31.95 -1.55 31.75L-1.6 33Q-1.45 34.55 -0.65 36Q0.85 38.75 4.35 40.7L4.35 41.15L2.85 40.7Q0.7 39.9 -2 37.85Q-3.3 36 -3.8 34.1Q-4.4 31.85 -3.9 29.7L-3.25 28.05Q-1.55 28.7 0.4 28.6" />
<path style="fill:#CAC3BD;fill-opacity:1" d="M-3.25,28.05L-3.9 29.7Q-4.4 31.85 -3.8 34.1Q-3.3 36 -2 37.85L-2.7 37.3L-3.95 36.2L-5 35L-6.2 32.95Q-6.6 30 -6.05 27.6Q-5.7 26 -5 24.85L-4.8 24.5L-4 23.55Q-2.4 24.9 -0.15 24.95L-0.15 25.05L-0.2 26.3Q-0.15 27.4 0.4 28.6Q-1.55 28.7 -3.25 28.05" />
<path style="fill:#F7F7F7;fill-opacity:1" d="M-6.2,32.95Q-6.85 31.35 -6.85 29.6Q-6.8 26.15 -5 23.75L-3.85 22.45Q-2.45 24.15 -0.1 24.7L-0.15 24.95Q-2.4 24.9 -4 23.55L-4.8 24.5L-5 24.85Q-5.7 26 -6.05 27.6Q-6.6 30 -6.2 32.95" />
<path style="fill:#000000;fill-opacity:1" d="M8.4,36.25L8.75 35.9L7.7 34.65L7.65 34.6L7.6 34.6L6.65 34.35L6.75 34.15Q4.05 33.35 2.15 31.2Q1.45 30.5 0.9 29.6L0.4 28.6Q-0.15 27.4 -0.2 26.3L-0.15 25.05L-0.15 24.95Q0.05 24.25 0.4 23.65Q3.95 24.35 8.35 21.45L8.95 21.05L8.35 20.6Q6.6 19.15 6.55 17.2L6.8 16.95Q7.35 16.55 8.35 16.55L8.95 16.6Q10.75 16.85 12.55 18.35Q14.25 18.25 15.7 15L17.1 15.1Q21.5 15.55 24.35 17.1Q25.55 17.75 26.45 18.65Q27.45 19.6 28.1 20.85L29.6 23.95L30.2 25.25L30.65 26.35L31.15 28.1L30.5 27.85L30.5 28.05L30.2 28.15L21.65 29.45Q15.1 30.45 9.35 37.25L8.4 36.25M17.15,16.2L16.35 16.25L14 19L15.2 19.95L16.5 21.1L18.4 22.85L19.9 24.3L20.9 25.3Q26.85 25.15 29.1 26.35L27.5 22.75Q25.75 19.6 23.75 18.2Q22.9 17.55 22 17.3L20.65 16.9L17.15 16.2M10.75,19.45Q11.1 19.15 11.6 18.9Q9.75 17.45 8.35 17.45L7.65 17.55L7.8 18.1Q8 18.7 8.35 19.15L8.9 19.75Q9.85 20.55 10.15 20.25L10.75 19.45M1.25,28.05L1.45 28.5Q2 29.85 3.15 30.85L4.9 31.95L7.75 33.1L8.35 32.35L9.35 31.15Q10.9 29.3 15.3 26.75L13.2 24.9L11.25 23.15L10.25 22.3L9.8 21.9L8.35 22.8Q6.3 24 4.4 24.5L0.85 24.9Q0.55 25.25 0.75 26.3L1.25 28.05M11,21.3L16.5 26.3L19.7 25.4L18.75 24.45L17.55 23.3L16.4 22.2L15.8 21.6L14.6 20.55L14.05 20.1Q13.2 19.4 12.8 19.5L12.25 19.6Q12.05 19.65 11.6 20.15L11.4 20.4L11 21.3M18.3,28.15L18.05 28.35L16.9 27.75Q12.55 29.45 8.65 33.55L8.5 33.75L9.45 35Q17.05 27.55 28.75 27.3Q22.9 25.65 17.65 27.45L18.3 28.15" />
</g>
</svg>
