<?xml version="1.0" encoding="utf-8"?>
<svg version="1.1" id="Layer_1"
xmlns="http://www.w3.org/2000/svg"
xmlns:xlink="http://www.w3.org/1999/xlink"
xmlns:author="http://www.sothink.com"
width="18px" height="27px"
xml:space="preserve">
<g id="1135" transform="matrix(1, 0, 0, 1, -294.25, -98.75)">
<path style="fill:#6F5E36;fill-opacity:1" d="M312.1,104.7L312.25 106.2L311.9 107.7L311.3 109.05L310.2 110.45L308.85 112.05L307.9 113.65Q307.45 114.25 307.4 114.95Q307.25 115.65 307.4 116.65L302.5 117.5Q302.3 115.95 302.45 115Q302.5 113.85 302.9 112.9Q303.15 112.2 303.85 111.2L305.25 109.65L306.1 108.35L306.6 107.1Q306.95 106.4 306.8 105.6L306.15 103.95L305.4 103.1L304.45 103L302.65 103.05Q298.95 103.55 299.3 107.5L294.25 108.35Q294.2 106.6 294.65 104.9Q295.05 103.3 295.95 102.05Q297 100.85 298.5 100.1Q300.15 99.35 302.05 99.05L305.65 98.75Q307.4 98.95 308.75 99.8Q309.95 100.45 310.8 101.75Q311.85 102.9 312.1 104.7M308.4,119.25L309.05 124.2L303.7 125.05L302.9 120.1L308.4 119.25" />
</g>
</svg>
