<?xml version="1.0" encoding="utf-8"?>
<svg version="1.1" id="Layer_1"
xmlns="http://www.w3.org/2000/svg"
xmlns:xlink="http://www.w3.org/1999/xlink"
xmlns:author="http://www.sothink.com"
width="19px" height="24px"
xml:space="preserve">
<g id="35" transform="matrix(1, 0, 0, 1, 13, -3.85)">
<path style="fill:#7E1616;fill-opacity:1" d="M-0.1,5Q0.35 5.4 0.9 5.4Q1.55 5.4 1.9 4.85L1.9 5L1.75 5.5L1.15 5.7Q0 5.8 -0.1 5M2.5,8.35Q2.65 9.2 2.1 9.3Q1.3 9.45 1.15 8.65L1.15 8.55L2.3 7.95L2.5 8.35M3.85,12.2L4.95 12.5L5.25 12.45Q5.25 13.05 4.65 13.1Q3.9 13.25 3.8 12.65L3.85 12.2M1.85,13.35L1.9 13.65L1.75 14.65Q1.4 15.35 0.7 15.45L-0.2 15.35L-0.65 15.05L1.1 14.7L1.85 13.35M-7.7,6.4L-7.6 6.6Q-7.25 7.3 -6.35 7.3L-6.2 7.3L-6.65 7.65L-7.3 7.55L-7.9 7.05L-7.75 6.45L-7.7 6.4M-12.6,11.75Q-12.05 12.85 -11.1 12.9L-11.55 13.25L-12.45 13.15Q-12.95 12.9 -13 12.35L-12.75 11.65L-12.75 11.6L-12.7 11.55L-12.6 11.75M-8,14.1L-7.9 14.5L-7.6 15.3Q-7.1 15.8 -5.9 15.9L-5.2 16Q-5.3 16.7 -6.3 16.85L-7.6 16.5Q-8.2 16.1 -8.3 15.45Q-8.4 14.7 -8 14.1M-3.65,26Q-3.35 26.5 -2.3 26.5Q-1.7 26.5 -1.35 25.6L-1.2 25.95Q-1.15 26.3 -1.55 26.85L-2.35 27.45L-3.15 27.25L-3.7 26.45L-3.65 26" />
<path style="fill:#A62929;fill-opacity:1" d="M0.9,5.4Q0.35 5.4 -0.1 5L-0.15 4.8Q-0.2 3.9 0.65 3.85L1.3 3.95L1.4 4L1.9 4.85Q1.55 5.4 0.9 5.4M0.45,4.35L0.45 4.4L0.45 4.55L0.45 4.7L0.45 4.8L0.55 4.85L0.8 4.95L1 4.95L1.15 4.7L1.15 4.5L1.15 4.35L1.05 4.25L0.95 4.2L0.8 4.15L0.65 4.2L0.55 4.25L0.45 4.35M1.45,7.65L2.2 7.8L2.3 7.95L1.15 8.55Q1.1 7.9 1.45 7.65M4.95,12.5L3.85 12.2L3.9 11.8L4.3 11.15Q4.65 11.05 4.95 11.4L5.1 11.55L5.2 12.05L5.25 12.45L4.95 12.5M1.1,14.7L-0.65 15.05L-0.8 14.65Q-0.9 14 -0.6 13.45Q-0.25 12.8 0.3 12.75L1.05 12.7L1.4 12.7L1.5 12.8L1.7 13L1.85 13.35L1.1 14.7M0.15,13.4Q-0.1 13.75 0.25 14L1.1 14.05L1.15 13.85L1.15 13.6L1.1 13.45L1.1 13.35L0.8 13.25L0.4 13.25Q0.25 13.25 0.15 13.4M-6.35,7.3Q-7.25 7.3 -7.6 6.6L-7.7 6.4L-7.65 6.3L-7.3 6.1L-7.05 6.1Q-6.2 6.05 -6.1 6.65L-6.2 7.25L-6.2 7.3L-6.35 7.3M-5.7,9.85Q-5.6 8.3 -3.95 8Q-3.15 7.9 -2.5 8.4Q-1.95 8.75 -1.8 9.4L-1.8 9.5Q-1.85 10 -2.75 10.15Q-3.7 10.3 -3.85 10.65L-4.45 10.9L-5.5 10.65L-5.45 10.65L-5.7 10.1L-5.7 9.85M-4.9,8.7L-5 9L-4.95 9.25L-4.9 9.3L-4.85 9.35L-3.6 9.45L-3.45 9.2L-3.45 9.1L-3.4 9.05L-3.45 9L-3.45 8.9L-3.45 8.85L-3.8 8.6L-4.2 8.55L-4.6 8.55Q-4.8 8.55 -4.9 8.7M-11.1,12.9Q-12.05 12.85 -12.6 11.75L-12.7 11.55L-12.6 11.5L-12.4 11.35L-12.05 11.15L-11.2 11.35Q-10.85 11.6 -10.8 11.9Q-10.75 12.25 -11.05 12.75L-11.1 12.9M-6.9,15.15L-5.85 15.1L-5.75 14.85Q-5.65 14.3 -6.2 14.1L-7.1 14.05L-7.25 14.1L-7.35 14.15L-7.45 14.25L-7.45 14.3Q-7.5 14.9 -6.9 15.15M-5.9,15.9Q-7.1 15.8 -7.6 15.3L-7.9 14.5L-8 14.1L-7.8 13.85Q-7.1 13.35 -6.8 13.35Q-6.3 13.25 -5.85 13.95Q-5.3 14.75 -5.2 15.6L-5.2 16L-5.9 15.9M-2.25,25.4L-2.5 25.25L-2.75 25.35L-2.85 25.5L-2.85 25.6L-2.4 25.9Q-2.2 25.9 -2.15 25.75L-2.15 25.65L-2.25 25.4M-2.3,26.5Q-3.35 26.5 -3.65 26L-3.45 25.5Q-3.15 24.9 -2.7 24.85L-2.65 24.85L-2.25 24.9L-1.75 25.15L-1.35 25.6Q-1.7 26.5 -2.3 26.5" />
<path style="fill:#E55A5A;fill-opacity:1" d="M0.55,4.25L0.65 4.2L0.8 4.15L0.95 4.2L1.05 4.25L1.15 4.35L1.15 4.5L1.15 4.7L1 4.95L0.8 4.95L0.55 4.85L0.45 4.8L0.45 4.7L0.45 4.55L0.45 4.4L0.45 4.35L0.55 4.25M0.4,13.25L0.8 13.25L1.1 13.35L1.1 13.45L1.15 13.6L1.15 13.85L1.1 14.05L0.25 14Q-0.1 13.75 0.15 13.4Q0.25 13.25 0.4 13.25M-4.6,8.55L-4.2 8.55L-3.8 8.6L-3.45 8.85L-3.45 8.9L-3.45 9L-3.4 9.05L-3.45 9.1L-3.45 9.2L-3.6 9.45L-4.85 9.35L-4.9 9.3L-4.95 9.25L-5 9L-4.9 8.7Q-4.8 8.55 -4.6 8.55M-7.45,14.3L-7.45 14.25L-7.35 14.15L-7.25 14.1L-7.1 14.05L-6.2 14.1Q-5.65 14.3 -5.75 14.85L-5.85 15.1L-6.9 15.15Q-7.5 14.9 -7.45 14.3M-2.15,25.65L-2.15 25.75Q-2.2 25.9 -2.4 25.9L-2.85 25.6L-2.85 25.5L-2.75 25.35L-2.5 25.25L-2.25 25.4L-2.15 25.65" />
</g>
</svg>
