<?xml version="1.0" encoding="utf-8"?>
<svg version="1.1" id="Layer_1"
xmlns="http://www.w3.org/2000/svg"
xmlns:xlink="http://www.w3.org/1999/xlink"
xmlns:author="http://www.sothink.com"
width="41px" height="41px"
xml:space="preserve">
<g id="846" transform="matrix(1, 0, 0, 1, -2.35, -1.9)">
<path style="fill:#4A361E;fill-opacity:1" d="M42.25,35.15L41.75 35.15L42.2 35L42.25 35.15" />
<path style="fill:#7F7F7F;fill-opacity:1" d="M27.3,27.1L20.3 26.6L15.5 16.9L13.15 14.25L10.05 6.75L11.65 6.4Q17.55 5.15 23.5 4.85L23.7 4.85L23.7 5.4L29.6 4.65L31.5 8.35L29.4 8.6Q28.6 8.75 27.9 7.55L27.4 6.3L25 6.4Q23.95 6.6 23.7 5.6L23.7 5.4L11.8 6.9Q13.25 12 16.5 16.05Q24.1 25.55 36.65 18.9L38.05 21.9Q33.8 26.4 27.3 27.1" />
<path style="fill:#767676;fill-opacity:1" d="M38.05,21.9L40.15 26.5L40.45 27.1L40.5 27.25L39.55 27.35L37.65 27.6L20.3 31.55L18.15 26.3L13.15 14.25L15.5 16.9L20.3 26.6L27.3 27.1Q33.8 26.4 38.05 21.9" />
<path style="fill:#A1A1A1;fill-opacity:1" d="M11.1,29.7L11 29.55L11.2 29.1L11.45 28.6Q11.95 27.7 12.6 27.1Q13.4 26.3 14.6 26L16.4 25.8L16.75 26.35L14.85 26.6L16.95 31.85Q15.95 32.6 15.35 33.65L12.85 27.7Q12.4 28 12.05 28.4L11.6 28.95L11.1 29.7M16.5,16.05Q13.25 12 11.8 6.9L23.7 5.4L23.7 5.6Q23.95 6.6 25 6.4L27.4 6.3L27.9 7.55Q28.6 8.75 29.4 8.6L31.5 8.35L36.65 18.9Q24.1 25.55 16.5 16.05M3.9,11.15L3.75 11.8Q3.35 10.1 4.15 8.65Q5.4 6.25 8.7 6.5L9 7.2L7.05 7.95L8.95 12.95L7.05 14.05L5 9.4Q4.3 10.1 4 10.95L3.9 11.15M9.8,14.9L14.2 25.05L13.75 25.2Q12.95 25.4 12.15 26.1L7.8 15.85L6.6 16.85L6.1 17.55L5.95 17.15L6.4 16.25L7.45 15.05L7.5 15Q9.3 13.5 11.55 13.65L11.8 14.2Q9.7 14.5 9.8 14.9" />
<path style="fill:#383838;fill-opacity:1" d="M40.15,26.5L38.05 21.9L36.65 18.9L31.5 8.35L29.6 4.65L29.05 3.65L27.35 3.65Q26.1 4.7 23.7 4.85L23.5 4.85Q17.55 5.15 11.65 6.4L10.05 6.75L13.15 14.25L18.15 26.3L20.3 31.55L37.65 27.6Q36.5 28.2 35.8 29.45L30.75 30.4L22.65 32.25Q19.2 33.1 18.2 34Q17.2 34.95 17.15 36.55Q17.15 37.05 17.45 37.35L17.3 37.7L17.3 38.9Q16.75 38.7 16.45 38.4L16.1 37.9Q15.75 37.3 15.7 36.65L15.75 35.9L15.9 35Q16.25 33.7 17.35 32.8Q18.05 32.2 19.1 31.85L18.65 30.9L17.05 27.05L16.75 26.35L16.4 25.8L14.6 26Q13.4 26.3 12.6 27.1Q11.95 27.7 11.45 28.6L11.2 29.1L11 29.55L11.1 29.7L12.7 33.35L14.45 37.25Q15.4 40.1 16.1 41.1Q16.8 42.1 24.55 39.95L37.25 36.45L39.6 35.8L41.75 35.15L42.25 35.15L42.35 35.35L40.8 36.15L31.4 39.2L19.45 42.35Q15.4 43.3 14.65 41.35Q13.5 39.3 11.05 33.6Q7.85 26.3 2.8 12.85L2.65 12.25Q1.9 10.3 3 8.2Q4.15 6.1 6.45 5.45L9.4 5.25L26.5 2.85Q27.45 2.3 28.9 2.45Q29.65 2.2 29.9 2.8L29.95 2.85L29.8 3L30.7 4.5L32.8 8.25Q35.4 13.1 37.8 18.3L38.95 20.85L40.75 25.2Q41.6 25.55 41.4 27.1L41.35 27.2L41.05 27.15L40.45 27.1L40.15 26.5M9,7.2L8.7 6.5Q5.4 6.25 4.15 8.65Q3.35 10.1 3.75 11.8Q4 12.85 4.7 14L5.5 16Q5.6 15.6 5.95 15.2L6.8 14.25L7.05 14.05L8.95 12.95L11.25 12.55L9 7.2M10.95,27.35L11.7 26.55L12.15 26.1Q12.95 25.4 13.75 25.2L14.2 25.05L15.3 24.8L16 24.7L14.55 20.85L12 14.7L11.8 14.2L11.55 13.65Q9.3 13.5 7.5 15L7.45 15.05L6.4 16.25L5.95 17.15L6.1 17.55L10.45 28.25L10.95 27.35" />
<path style="fill:#646464;fill-opacity:1" d="M39.6,35.8L37.25 36.45L24.55 39.95Q16.8 42.1 16.1 41.1Q15.4 40.1 14.45 37.25L14.5 36.15L14.55 36Q14.75 34.65 15.35 33.65Q15.95 32.6 16.95 31.85Q17.7 31.25 18.65 30.9L19.1 31.85Q18.05 32.2 17.35 32.8Q16.25 33.7 15.9 35L15.75 35.9L15.7 36.65Q15.75 37.3 16.1 37.9L16 38Q15.75 38.8 16.2 39.25Q17.75 40.75 26.3 38.3L39.4 34.6L39.6 35.8" />
<path style="fill:#4F4F4F;fill-opacity:1" d="M19.6,38.95Q22.05 38.7 26.85 37.3Q31.6 35.85 36.8 34.7L39.3 34.1L39.35 34.4L39.4 34.6L26.3 38.3Q17.75 40.75 16.2 39.25Q15.75 38.8 16 38L16.1 37.9L16.45 38.4Q16.75 38.7 17.3 38.9L19.6 38.95" />
<path style="fill:#262626;fill-opacity:1" d="M39.3,34.1L36.8 34.7Q31.6 35.85 26.85 37.3Q22.05 38.7 19.6 38.95L17.3 38.9L17.3 37.7L17.45 37.35L18.1 37.65L20.25 37.6L29 35.6L36.8 33.7L38.55 32.75L38.7 31.75L38.6 31.15Q31.65 33.85 24.35 34.55L38.2 30.65L38.5 30.65L38.35 29.95L38.2 29.5Q37.85 28.6 37.95 29.2L35.8 29.45Q36.5 28.2 37.65 27.6L39.55 27.35L40.5 27.25L40.45 27.1L41.05 27.15L41.35 27.2Q40.65 28.7 39.4 28.9L39.55 29.7L40.1 32.65L40.1 33.5Q40.8 33.55 40.15 33.85L39.3 34.1" />
<path style="fill:#999999;fill-opacity:1" d="M37.95,29.2Q37.85 28.6 38.2 29.5L38.35 29.95L22.7 33.6Q18.75 34.75 18.15 36.55Q17.95 37.15 18.1 37.65L17.45 37.35Q17.15 37.05 17.15 36.55Q17.2 34.95 18.2 34Q19.2 33.1 22.65 32.25L30.75 30.4L35.8 29.45L37.95 29.2" />
<path style="fill:#A8A8A8;fill-opacity:1" d="M18.15,36.55Q18.75 34.75 22.7 33.6L38.35 29.95L38.5 30.65L38.2 30.65L24.35 34.55Q31.65 33.85 38.6 31.15L38.7 31.75L38.55 32.75L36.8 33.7L29 35.6L20.25 37.6L18.1 37.65Q17.95 37.15 18.15 36.55" />
<path style="fill:#8D8D8D;fill-opacity:1" d="M14.45,37.25L12.7 33.35L11.1 29.7L11.6 28.95L14.55 36L14.5 36.15L14.45 37.25M16.95,31.85L14.85 26.6L16.75 26.35L17.05 27.05L18.65 30.9Q17.7 31.25 16.95 31.85M11.25,12.55L8.95 12.95L7.05 7.95L9 7.2L11.25 12.55M5.5,16L4.7 14Q4 12.85 3.75 11.8L3.9 11.15L4 10.95L5.95 15.2Q5.6 15.6 5.5 16M10.95,27.35L10.45 28.25L6.1 17.55L6.6 16.85L10.95 27.35M14.2,25.05L9.8 14.9Q9.7 14.5 11.8 14.2L12 14.7L14.55 20.85L16 24.7L15.3 24.8L14.2 25.05" />
<path style="fill:#6A6A6A;fill-opacity:1" d="M6.8,14.25L5.95 15.2L4 10.95Q4.3 10.1 5 9.4L7.05 14.05L6.8 14.25M6.6,16.85L7.8 15.85L12.15 26.1L11.7 26.55L10.95 27.35L6.6 16.85M14.55,36L11.6 28.95L12.05 28.4Q12.4 28 12.85 27.7L15.35 33.65Q14.75 34.65 14.55 36" />
<path style="fill:#51423D;fill-opacity:1" d="M42.65,36.7L42.7 36.55L42.7 36.6L42.65 36.7M39.2,30.95L39.3 30.95L39.25 31.05L39.2 30.95M39.8,33.05L39.85 32.9L39.85 33.05L39.8 33.05M39.75,34.05L39.65 34.55L39.7 34.25L39.75 34.05" />
<path style="fill:#8D8270;fill-opacity:1" d="M39.15,25.55L38.9 24.65L38.3 23.15Q38.1 22.8 38.7 22.6L38.95 23.1L39.5 24.7L39.45 25.3L39.15 25.55" />
<path style="fill:#454545;fill-opacity:1" d="M40.2,22.5L38.7 22.6Q38.1 22.8 38.3 23.15L38.9 24.65L39.15 25.55L39.05 25.75Q38.75 25.95 38.05 26.15L35.1 26.95Q34.85 27 34.55 27.2L34.5 27.2L34.3 27.95Q34.25 28.5 34.75 29Q35.2 29.5 38.7 28.6L41.45 27.65Q42.2 27.15 41.95 26.2L40.2 22.5M42.85,27.8Q42.4 28.55 41.6 28.9L38.65 29.8L35.05 30.4Q33.6 30.4 33.3 29.2Q32.95 28 33.05 27.35Q33.15 26.65 34.1 26.3L36.4 25.6Q37.75 25.2 37.7 25Q37 23.75 37.05 22.7Q37.05 21.6 38.95 21.15Q40.85 20.65 41.55 22.35L42.75 25.55Q43.3 27 42.85 27.8M39.9,31.5L39.75 30.8L40.95 30.7Q41.8 30.65 42.5 33.05Q43.15 35.45 42.65 36.15Q42.15 36.85 39.1 37.7L35.2 38.45Q34.3 38.35 34.05 37.25L33.6 35.85L33.4 35.45L33.5 35.35L34.95 34.95L34.95 35.05L35.3 36.05L35.75 36.95L38.45 36.5L40.8 35.65Q41.4 35.4 41.75 35.25L41.7 35.2Q42.1 34.85 40.7 31.75L40 31.8L39.9 31.5M31,5.3Q30.15 2.95 28.65 2.9L25.55 3.05Q24 3.25 23.85 3.55L23.75 4.1L23.8 4.4Q23.85 4.9 24.3 5L26.5 4.75L28.65 4.9L29.3 5.85L29.95 6.9L31.55 6.75L31.3 6.1L31 5.3M32.15,5.55Q32.9 7.3 32.4 7.65Q31.9 8 30.8 8.15L29.35 8L28.6 7.1L27.7 5.6L24.5 6Q23 6.1 22.55 4.5Q22.25 3.3 22.75 2.8Q22.95 2.6 23.25 2.5L27.2 1.95Q30.05 1.7 30.75 2.75L32.15 5.55" />
<path style="fill:#878787;fill-opacity:1" d="M37.5,34.4Q39.5 33.9 39.75 33.5L40 32.55L40 31.8L40.7 31.75Q42.1 34.85 41.7 35.2L41.75 35.25Q41.4 35.4 40.8 35.65L38.45 36.5L35.75 36.95L35.3 36.05L34.95 35.05L37.5 34.4M39.7,34.25L39.65 34.55L39.75 34.05L39.7 34.25" />
<path style="fill:#6D6D6D;fill-opacity:1" d="M35.15,27.55Q35.4 28.35 36.95 28.1L41.3 26.7L41.95 26.2Q42.2 27.15 41.45 27.65L38.7 28.6Q35.2 29.5 34.75 29Q34.25 28.5 34.3 27.95L34.5 27.2L34.55 27.2Q34.85 27 35.1 26.95L35.15 27.55M25,4.4L27.6 3.8L28.4 3.95L28.45 3.95L29 4.15L29.5 4.7Q30 5.35 30.3 6.15L31.3 6.1L31.55 6.75L29.95 6.9L29.3 5.85L28.65 4.9L26.5 4.75L24.3 5Q23.85 4.9 23.8 4.4L23.75 4.1Q24.35 4.55 25 4.4" />
<path style="fill:#9F9F9F;fill-opacity:1" d="M39.45,25.3L39.5 24.7L38.95 23.1L38.7 22.6L40.2 22.5L41.95 26.2L41.3 26.7L36.95 28.1Q35.4 28.35 35.15 27.55L35.1 26.95L38.05 26.15Q38.75 25.95 39.05 25.75L39.15 25.55L39.45 25.3M40.6,24.85L40.35 25.15L40.35 25.4L40.35 25.8Q39.65 25.85 39.4 26.3Q39.3 26.55 39.65 26.6Q41.55 26.75 41 25.6L41.05 25.6Q41.3 25 40.7 24.85L40.6 24.85M30.15,4L30.15 3.95Q29.55 3 28.3 3.15L28.15 3.2L27.95 3.45L27.95 3.55L28.45 3.95L28.4 3.95L27.6 3.8L25 4.4Q24.35 4.55 23.75 4.1L23.85 3.55Q24 3.25 25.55 3.05L28.65 2.9Q30.15 2.95 31 5.3L31.3 6.1L30.3 6.15Q30 5.35 29.5 4.7L29 4.15L30.15 4M40.35,24.1L40.4 24Q40.75 23.35 40.15 23.05Q39.95 23.05 39.8 23.25Q39.55 24.05 40.35 24.1" />
<path style="fill:#F0F0F0;fill-opacity:1" d="M40.7,24.85Q41.3 25 41.05 25.6L41 25.6Q41.55 26.75 39.65 26.6Q39.3 26.55 39.4 26.3Q39.65 25.85 40.35 25.8L40.35 25.4L40.35 25.15L40.6 24.85L40.7 24.85M29,4.15L28.45 3.95L27.95 3.55L27.95 3.45L28.15 3.2L28.3 3.15Q29.55 3 30.15 3.95L30.15 4L29 4.15M39.8,23.25Q39.95 23.05 40.15 23.05Q40.75 23.35 40.4 24L40.35 24.1Q39.55 24.05 39.8 23.25" />
</g>
</svg>
