<?xml version="1.0" encoding="utf-8"?>
<svg version="1.1" id="Layer_1"
xmlns="http://www.w3.org/2000/svg"
xmlns:xlink="http://www.w3.org/1999/xlink"
xmlns:author="http://www.sothink.com"
width="211px" height="101px"
xml:space="preserve">
<g id="1759" transform="matrix(1, 0, 0, 1, 108.9, 86.4)">
<path style="fill:#1179C2;fill-opacity:1" d="M-55.25,-45.35L-55.3 -45.15Q-55.8 -46.75 -55.8 -47.85L-57.45 -45.65Q-59.05 -43.55 -59.65 -43.35L-60.35 -43.35L-61.1 -46.5Q-63 -46.15 -64.95 -43.5Q-66.7 -41 -66.7 -39.15L-68.8 -42.5Q-70.15 -45.15 -69.45 -46.8L-69.45 -47.15L-71.3 -44.7L-73.25 -41.9Q-73.65 -41.9 -73.65 -41.55L-74.55 -43.25Q-75.1 -44.6 -75.05 -45.05Q-78 -43.35 -81.55 -38.7Q-84.2 -43.4 -84.4 -48.8Q-84.8 -54.2 -81.8 -60.75Q-89.7 -55.95 -91.15 -52.05Q-93.9 -60.4 -88.65 -64.8Q-92.15 -64.05 -98.1 -61Q-90.35 -68.45 -77.25 -74.8Q-67.75 -79.4 -57.1 -82.65Q-69.35 -72.7 -73.9 -61.15Q-75.9 -55.8 -76.15 -50.7L-74.8 -49Q-75.4 -50.5 -68.45 -56.85Q-63.2 -61.75 -59.35 -64.05Q-61.4 -62.05 -64.1 -54.65Q-66.75 -47.4 -66.05 -47.9Q-62.05 -55.15 -54.25 -59.8L-47.1 -63Q-52.55 -54.2 -52.65 -46.95L-55.25 -45.35" />
<path style="fill:#B0E3F0;fill-opacity:1" d="M-106.2,-49.95Q-103.5 -55.8 -98.1 -61Q-92.15 -64.05 -88.65 -64.8Q-93.9 -60.4 -91.15 -52.05Q-89.7 -55.95 -81.8 -60.75Q-84.8 -54.2 -84.4 -48.8Q-84.2 -43.4 -81.55 -38.7Q-78 -43.35 -75.05 -45.05Q-75.1 -44.6 -74.55 -43.25L-73.65 -41.55Q-73.65 -41.9 -73.25 -41.9L-71.3 -44.7L-69.45 -47.15L-69.45 -46.8Q-70.15 -45.15 -68.8 -42.5L-66.7 -39.15Q-66.7 -41 -64.95 -43.5Q-63 -46.15 -61.1 -46.5L-60.35 -43.35L-59.65 -43.35Q-59.05 -43.55 -57.45 -45.65L-55.8 -47.85Q-55.8 -46.75 -55.3 -45.15L-55.25 -45.35L-52.65 -46.95Q-52.75 -43.25 -51.5 -39.9L-50.2 -37.25Q-51.7 -37.4 -53.15 -38Q-55.75 -39.1 -56.15 -41L-56.6 -40.6Q-58.25 -39.2 -59.35 -37.05Q-60.95 -33.9 -61.1 -30.4L-66.3 -34.9L-65.95 -34.25Q-65.95 -32.8 -65.6 -32.1L-65.6 -29.6L-70.5 -33.85L-70.5 -31.75Q-70.15 -31.1 -70.15 -29.35L-73.1 -31.7Q-75.35 -33.15 -76.4 -33.15Q-77.15 -31.75 -77.15 -30.4L-76.7 -27.35Q-77.45 -28.1 -80.45 -30.25L-84.2 -33.15Q-84.2 -32.95 -84.35 -32.9L-84.45 -32.8Q-84.85 -31.35 -84.85 -27.25L-85.2 -27.25L-87.5 -33.2Q-89.75 -39.25 -89.75 -40.55L-90.1 -40.15Q-90.25 -38.7 -91.55 -38.05L-92.25 -41.7L-92.9 -45.45Q-93.7 -45.15 -95 -43.5L-96.75 -41.2Q-96.75 -41.5 -97.7 -44.4Q-98.55 -47.35 -98.55 -49.1Q-98.55 -51.5 -97.8 -52.85L-97.25 -54.15Q-101.7 -53.6 -104.1 -36.3Q-105.85 -39.85 -106.2 -49.95M-89.75,-49Q-91.6 -46.85 -89.45 -46L-89.45 -46.05Q-87.5 -47.4 -89.45 -49.15L-89.75 -49M-86.4,-37.55Q-85.75 -35.65 -83.85 -34.8L-83.85 -34.85Q-81.95 -37.95 -86.3 -37.9L-86.4 -37.55M-75.7,-38Q-76.2 -36.25 -74.05 -35.45L-73.8 -35.75Q-72.55 -38.55 -75.5 -38.25L-75.7 -38" />
<path style="fill:#F8F8F8;fill-opacity:1" d="M-104.1,-36.3Q-101.7 -53.6 -97.25 -54.15L-97.8 -52.85Q-98.55 -51.5 -98.55 -49.1Q-98.55 -47.35 -97.7 -44.4Q-96.75 -41.5 -96.75 -41.2L-95 -43.5Q-93.7 -45.15 -92.9 -45.45L-92.25 -41.7L-91.55 -38.05Q-90.25 -38.7 -90.1 -40.15L-89.75 -40.55Q-89.75 -39.25 -87.5 -33.2L-85.2 -27.25L-84.85 -27.25Q-84.85 -31.35 -84.45 -32.8L-84.35 -32.9Q-84.2 -32.95 -84.2 -33.15L-80.45 -30.25Q-77.45 -28.1 -76.7 -27.35L-76.4 -26.85L-76.4 -27.25L-76.7 -27.35L-77.15 -30.4Q-77.15 -31.75 -76.4 -33.15Q-75.35 -33.15 -73.1 -31.7L-70.15 -29.35Q-70.15 -31.1 -70.5 -31.75L-70.5 -33.85L-65.6 -29.6L-65.6 -32.1Q-65.95 -32.8 -65.95 -34.25L-66.3 -34.9L-61.1 -30.4Q-60.95 -33.9 -59.35 -37.05Q-58.25 -39.2 -56.6 -40.6L-56.15 -41Q-55.75 -39.1 -53.15 -38Q-51.7 -37.4 -50.2 -37.25Q-48.5 -34.4 -46 -32.9L-50.65 -28.3L-56.85 -22Q-63.8 -16.05 -65.65 -18.85Q-67.5 -21.7 -69.7 -21.95L-72.15 -22.3Q-72.6 -22.45 -74.8 -20.95Q-80.75 -16.9 -90.1 -18.8Q-99.05 -20.65 -107.2 -28.05Q-108.9 -32.65 -108.9 -37.65L-108.9 -39.15Q-108.6 -44.7 -106.2 -49.95Q-105.85 -39.85 -104.1 -36.3M-89.45,-49.15Q-87.5 -47.4 -89.45 -46.05L-89.45 -46Q-91.6 -46.85 -89.75 -49L-89.45 -49.15M-86.3,-37.9Q-81.95 -37.95 -83.85 -34.85L-83.85 -34.8Q-85.75 -35.65 -86.4 -37.55L-86.3 -37.9M-75.5,-38.25Q-72.55 -38.55 -73.8 -35.75L-74.05 -35.45Q-76.2 -36.25 -75.7 -38L-75.5 -38.25" />
<path style="fill:#B8E0F0;fill-opacity:1" d="M-76.7,-27.35L-76.4 -27.25L-76.4 -26.85L-76.7 -27.35" />
<path style="fill:#1179C2;fill-opacity:0.698039" d="M-40.7,-76.4Q-51.65 -72.05 -60.85 -65.5Q-73.9 -56.25 -81.9 -43.7L-82.85 -42.05L-86.15 -40.3Q-96.45 -34.4 -104.5 -26.1L-104.5 -26.05Q-105.4 -29.55 -105.4 -33.1Q-105.45 -55.2 -75.2 -70.75Q-44.85 -86.4 -2.05 -86.4L23.75 -84.85Q-13.8 -87.15 -40.7 -76.4M70.75,-71L71.15 -70.75Q101.5 -55.2 101.55 -33.1Q101.6 -15.2 81.55 -1.5Q59.95 8.9 36.1 12.25L18.4 13.65Q12.7 13.6 11.7 13.7Q88.35 0.9 90.45 -29.25Q91.1 -38.8 84.15 -48.9L76.75 -57.35Q71.6 -61.6 62.65 -65.75Q48.35 -72.35 33.45 -72.8L36.55 -73.05Q57.4 -74.45 70.75 -71" />
<path style="fill:#BCDFE9;fill-opacity:0.498039" d="M-19.95,-55.8Q-14.05 -52.15 -8.35 -49.25L-9.25 -47.65Q-50.8 -58.7 -82.85 -42.05L-81.9 -43.7Q-73.9 -56.25 -60.85 -65.5Q-51.65 -72.05 -40.7 -76.4Q-36.95 -66.45 -19.95 -55.8" />
<path style="fill:#F8F8F8;fill-opacity:0.2" d="M-40.7,-76.4Q-13.8 -87.15 23.75 -84.85Q50.15 -81.55 70.75 -71Q57.4 -74.45 36.55 -73.05L33.45 -72.8Q48.35 -72.35 62.65 -65.75Q71.6 -61.6 76.75 -57.35Q87 -29.05 60.85 -13.4Q52.4 -8.5 41.35 -5.5Q33.65 -3.35 31.05 -3.35Q47.55 -8.1 55 -16.9Q58.7 -21.3 59.45 -24Q65.55 -39.05 50.35 -49.8Q40.75 -56.6 30.1 -58.65Q10.5 -65.3 -1.25 -57.1Q-5.05 -54.6 -7.45 -50.85L-8.35 -49.25Q-14.05 -52.15 -19.95 -55.8Q-36.95 -66.45 -40.7 -76.4" />
</g>
</svg>
