<?xml version="1.0" encoding="utf-8"?>
<svg version="1.1" id="Layer_1"
xmlns="http://www.w3.org/2000/svg"
xmlns:xlink="http://www.w3.org/1999/xlink"
xmlns:author="http://www.sothink.com"
width="78px" height="29px"
xml:space="preserve">
<g id="1461" transform="matrix(1, 0, 0, 1, 85.4, -7.5)">
<path style="fill:#000000;fill-opacity:1" d="M-72.2,13.75Q-72.5 13.9 -72.15 14.15L-76.55 15.2L-78.95 15.75L-79.2 15.8L-72.1 17.2L-72.55 17.75Q-72.8 18.2 -72.4 17.95Q-69 19.35 -72.6 18.65L-80.05 16.95Q-83.45 16.05 -81.45 15.15L-80.7 14.9Q-77.5 13.8 -73.5 12.9Q-69.55 12 -70.4 12.55L-71.4 13.3L-71.4 13.4L-71.6 13.55L-71.05 13.45L-71.8 13.6L-72.2 13.8L-72.2 13.75M-71.8,17.5L-71.8 17.55L-71.9 17.6L-71.8 17.5" />
<path style="fill:#3D3C3C;fill-opacity:1" d="M-71.85,15.45L-75.65 15.85L-78.95 15.75L-76.55 15.2L-72.15 14.15Q-72.5 13.9 -72.2 13.75L-72.2 13.8L-71.1 15.25L-71.85 15.45M-74.5,14.85Q-75.55 14.85 -76.35 15.45Q-74.55 15.95 -74.5 14.9L-74.5 14.85" />
<path style="fill:#222222;fill-opacity:1" d="M-71.9,17.6L-72.4 17.95Q-72.8 18.2 -72.55 17.75L-72.1 17.2L-79.2 15.8L-78.95 15.75L-75.65 15.85L-71.85 15.45L-71.1 15.25L-71.05 15.4Q-70.55 16.45 -71.45 17.2L-71.8 17.5L-71.9 17.6" />
<path style="fill:#9C9C9C;fill-opacity:1" d="M-74.5,14.9Q-74.55 15.95 -76.35 15.45Q-75.55 14.85 -74.5 14.85L-74.5 14.9" />
<path style="fill:#231813;fill-opacity:1" d="M-9.45,13.1Q-9.75 12.1 -9.95 12.2L-15.75 12.55L-30.55 13.3L-32.5 13.4L-33 13.4L-33 13.35L-45.6 13.65L-53.75 13.8L-56.5 13.95L-59.85 14.1L-63.15 14.25L-63.15 13.1L-56.45 12.9L-56.35 12.9L-53.55 12.8L-32.45 12.05L-32.45 12.1L-15.5 11.05L-9.55 10.75Q-8.05 11.25 -7.7 12.6L-7.6 13.4Q-7.55 14.2 -7.75 14.8L-8.8 16.35L-33.1 17.25L-33.1 17.2L-64.85 17.95Q-70.9 16.85 -67.1 16.8L-50.2 16.6L-33.05 16.05L-33.05 16.1L-32.55 16.1L-18.6 15.4L-9.65 14.85Q-9.25 14.25 -9.3 13.5L-9.45 13.1" />
<path style="fill:#312118;fill-opacity:1" d="M-67.4,15.9L-48.05 15.5L-41.6 15.4L-33.05 15.15L-33.05 15.3L-32.55 15.25L-32.5 15.25L-26.1 14.9L-21.2 14.6L-17.1 14.25L-9.3 13.5Q-9.25 14.25 -9.65 14.85L-18.6 15.4L-32.55 16.1L-33.05 16.1L-33.05 16.05L-50.2 16.6L-67.1 16.8Q-73.7 16.1 -67.4 15.9" />
<path style="fill:#4F3727;fill-opacity:1" d="M-63.15,14.25L-59.85 14.1L-56.5 13.95L-53.75 13.8L-45.6 13.65L-33 13.35L-33 13.4L-32.5 13.4L-30.55 13.3L-15.75 12.55L-9.95 12.2Q-9.75 12.1 -9.45 13.1L-9.3 13.5L-17.1 14.25L-21.2 14.6L-26.1 14.9L-32.5 15.25L-32.55 15.25L-33.05 15.3L-33.05 15.15L-41.6 15.4L-48.05 15.5L-67.4 15.9Q-70.05 14.95 -67.95 14.65L-63.15 14.25" />
<path style="fill:#000000;fill-opacity:1" d="M-73.95,11Q-71 12.45 -70.75 13.6Q-70.7 14 -70.8 14.1Q-71 14.3 -71.8 13.6Q-73.05 12.55 -74.75 11.85Q-76.35 11.4 -75.35 10.65Q-70.15 7.35 -64.8 7.5L-57.75 8.2L-56.5 8.5L-54.95 9.05Q-53 9.8 -51.45 10.85L-51.15 11.05Q-49.55 12.3 -51.95 12.4Q-53.25 12.75 -54.4 13.5Q-55.9 14.45 -56.45 16.15Q-56.55 16.45 -56.55 16.2L-56.3 14.8Q-55.6 11.8 -52.6 11.35L-53.55 10.7L-53.95 10.5L-54.9 10.1Q-57.3 9.2 -59.6 8.8L-63.45 8.4Q-68.95 8.3 -73.95 11" />
<path style="fill:#252525;fill-opacity:1" d="M-65.45,15.7Q-66.25 11.8 -69.05 10.6Q-66.9 9.8 -62.8 9.7L-53.95 10.5L-53.55 10.7L-52.6 11.35Q-55.6 11.8 -56.3 14.8L-57.5 15.3L-61.25 15.85L-65.1 15.7L-65.45 15.7" />
<path style="fill:#3A3838;fill-opacity:1" d="M-62.8,9.7Q-66.9 9.8 -69.05 10.6Q-66.25 11.8 -65.45 15.7L-67.35 15.4L-67.45 15.35L-67.55 15.1Q-68.6 11.95 -71.5 10.6Q-70.75 10.05 -69.25 9.55L-66.5 8.85L-63.45 8.4L-59.6 8.8Q-57.3 9.2 -54.9 10.1L-53.95 10.5L-62.8 9.7" />
<path style="fill:#434242;fill-opacity:1" d="M-68.4,15.1L-68.85 14.95L-69.9 14.55Q-70.1 13.65 -70.65 12.8Q-71.35 11.6 -72.3 10.8Q-71.05 9.95 -69.25 9.55Q-70.75 10.05 -71.5 10.6Q-68.6 11.95 -67.55 15.1L-67.45 15.35L-68.4 15.1" />
<path style="fill:#9C9C9C;fill-opacity:1" d="M-70.8,14.1Q-70.7 14 -70.75 13.6Q-71 12.45 -73.95 11Q-68.95 8.3 -63.45 8.4L-66.5 8.85L-69.25 9.55Q-71.05 9.95 -72.3 10.8Q-71.35 11.6 -70.65 12.8Q-70.1 13.65 -69.9 14.55L-70.8 14.1" />
<path style="fill:#3C3532;fill-opacity:1" d="M-75.45,25.1L-76.25 24.55Q-79.9 26.4 -83.35 26.45Q-79.85 31.5 -72.55 33.15Q-66.65 34.45 -61.3 34.25L-58.9 34.05Q-52.55 33.3 -47.85 30.7Q-44.7 28.85 -43.45 27.8L-42.75 27L-44.5 26.65Q-47.25 26.1 -48.7 25.45L-50.75 24.4Q-50.05 23.95 -49.75 23.3L-48.8 23.75L-43.15 25.6L-40.25 26.15Q-40.1 26.65 -40.3 27.1Q-41 28.3 -45 31.15Q-47.6 32.95 -51.55 34.15L-56.4 35.3Q-63.8 36.65 -70.75 35.25Q-77.75 33.8 -81.8 30.35Q-85.85 26.95 -85.35 25L-79.65 24.6L-77.55 23.55L-76.7 22.85Q-76.9 23.9 -75.45 25.1" />
<path style="fill:#434242;fill-opacity:1" d="M-70.15,25.05L-70.6 25.85L-73.8 24.7Q-71.55 22.4 -71.6 18.35L-71.35 17.7L-67.95 17.55Q-67.3 20.5 -70.15 25.05M-71.4,15.15Q-71.4 14.05 -70.7 14.05L-61.55 13.75L-56.15 13.95L-55.6 14.3Q-55.65 15.25 -57.5 15.25L-61.3 15.25L-65.2 15.25L-69.1 15.25L-71.4 15.25L-71.4 15.15M-61.65,14.3L-61.7 14.15L-62 14.05L-62.6 14.05L-62.75 14.05L-65.95 14.35L-66 14.4Q-64 14.75 -61.75 14.45L-61.65 14.3" />
<path style="fill:#000000;fill-opacity:1" d="M-59.5,27.3L-68.05 27.55L-69.65 27.25L-71.25 26.75Q-73.25 26.2 -74.7 25.45L-75.25 25.2L-75.45 25.1Q-76.9 23.9 -76.7 22.85L-74.75 21.05L-72.6 17.3Q-73.65 15.95 -72.75 13.8Q-72.15 12.5 -68.9 12.35Q-65 12.1 -61.1 12.2L-55.75 12.45Q-54.3 12.65 -54 14.35Q-53.7 16.05 -54.2 16.6L-54.75 17.25L-53.5 19.85Q-52.7 21.2 -51.55 22.15L-49.75 23.3Q-50.05 23.95 -50.75 24.4Q-53.4 26.35 -59.5 27.3M-66,17.55L-67.95 17.55L-71.35 17.7L-71.6 18.35Q-73.1 21.5 -74.8 23.2Q-75.25 23.55 -74.35 24.35L-73.8 24.7L-70.6 25.85L-69.7 26.05L-67.3 26.5Q-64.5 26.8 -61.2 26.5Q-56.5 26.05 -51.9 23.65L-52.45 23.25Q-54.35 21.9 -55.4 19.45L-55.65 18.8L-56.15 17.35L-65.1 17.6L-66 17.55M-71.4,15.25Q-71.45 16.3 -71 16.4L-65.35 16.3Q-60.55 16.2 -55.75 16.25Q-54.7 15.15 -55.6 14.3L-56.15 13.95L-61.55 13.75L-70.7 14.05Q-71.4 14.05 -71.4 15.15L-71.4 15.25" />
<path style="fill:#252525;fill-opacity:1" d="M-66.75,25.5Q-64.55 21.55 -65.1 17.6L-56.15 17.35L-55.65 18.8L-55.4 19.45Q-54.35 21.9 -52.45 23.25L-51.9 23.65Q-56.5 26.05 -61.2 26.5Q-64.5 26.8 -67.3 26.5L-66.75 25.5M-55.75,16.25Q-60.55 16.2 -65.35 16.3L-71 16.4Q-71.45 16.3 -71.4 15.25L-69.1 15.25L-65.2 15.25L-61.3 15.25L-57.5 15.25Q-55.65 15.25 -55.6 14.3Q-54.7 15.15 -55.75 16.25" />
<path style="fill:#3A3838;fill-opacity:1" d="M-67.95,17.55L-66 17.55L-65.1 17.6Q-64.55 21.55 -66.75 25.5L-67.3 26.5L-69.7 26.05L-70.6 25.85L-70.15 25.05Q-67.3 20.5 -67.95 17.55" />
<path style="fill:#9C9C9C;fill-opacity:1" d="M-73.8,24.7L-74.35 24.35Q-75.25 23.55 -74.8 23.2Q-73.1 21.5 -71.6 18.35Q-71.55 22.4 -73.8 24.7M-61.75,14.45Q-64 14.75 -66 14.4L-65.95 14.35L-62.75 14.05L-62.6 14.05L-62 14.05L-61.7 14.15L-61.65 14.3L-61.75 14.45" />
<linearGradient
id="LinearGradID_1623" gradientUnits="userSpaceOnUse" gradientTransform="matrix(-0.0240479, 0.00221252, -0.000564575, -0.00657654, -57.25, 28.5)" spreadMethod ="pad" x1="-819.2" y1="0" x2="819.2" y2="0" >
<stop  offset="0.00392157" style="stop-color:#625B57;stop-opacity:1" />
<stop  offset="1" style="stop-color:#BFB4AA;stop-opacity:1" />
</linearGradient>
<path style="fill:url(#LinearGradID_1623) " d="M-50.2,30.15Q-63.95 34.1 -74.3 29.5Q-72.35 28.35 -71.25 26.75L-69.65 27.25L-68.05 27.55L-69.4 29.2Q-62.95 31.85 -50 28.5L-44.5 26.65L-42.75 27L-43.45 27.8Q-46.8 29.15 -50.2 30.15" />
<linearGradient
id="LinearGradID_1624" gradientUnits="userSpaceOnUse" gradientTransform="matrix(-0.0240479, 0.00221252, -0.000564575, -0.00657654, -57.25, 28.5)" spreadMethod ="pad" x1="-819.2" y1="0" x2="819.2" y2="0" >
<stop  offset="0.00392157" style="stop-color:#5B514C;stop-opacity:1" />
<stop  offset="1" style="stop-color:#B6A89D;stop-opacity:1" />
</linearGradient>
<path style="fill:url(#LinearGradID_1624) " d="M-50.75,24.4L-48.7 25.45Q-47.25 26.1 -44.5 26.65L-50 28.5Q-62.95 31.85 -69.4 29.2L-68.05 27.55L-59.5 27.3Q-53.4 26.35 -50.75 24.4" />
<linearGradient
id="LinearGradID_1625" gradientUnits="userSpaceOnUse" gradientTransform="matrix(-0.0240479, 0.00221252, -0.000564575, -0.00657654, -57.25, 28.5)" spreadMethod ="pad" x1="-819.2" y1="0" x2="819.2" y2="0" >
<stop  offset="0.00392157" style="stop-color:#C4BEBB;stop-opacity:1" />
<stop  offset="1" style="stop-color:#F7F7F7;stop-opacity:1" />
</linearGradient>
<path style="fill:url(#LinearGradID_1625) " d="M-76,26.25Q-78.4 27.4 -80.85 27.3Q-74.55 33.4 -61.3 34.25Q-66.65 34.45 -72.55 33.15Q-79.85 31.5 -83.35 26.45Q-79.9 26.4 -76.25 24.55L-75.45 25.1L-75.25 25.2L-74.7 25.45L-76 26.25" />
<linearGradient
id="LinearGradID_1626" gradientUnits="userSpaceOnUse" gradientTransform="matrix(-0.0240479, 0.00221252, -0.000564575, -0.00657654, -57.25, 28.5)" spreadMethod ="pad" x1="-819.2" y1="0" x2="819.2" y2="0" >
<stop  offset="0.00392157" style="stop-color:#746E6B;stop-opacity:1" />
<stop  offset="1" style="stop-color:#CDC6C0;stop-opacity:1" />
</linearGradient>
<path style="fill:url(#LinearGradID_1626) " d="M-74.7,25.45Q-73.25 26.2 -71.25 26.75Q-72.35 28.35 -74.3 29.5Q-63.95 34.1 -50.2 30.15Q-46.8 29.15 -43.45 27.8Q-44.7 28.85 -47.85 30.7Q-52.55 33.3 -58.9 34.05L-61.3 34.25Q-74.55 33.4 -80.85 27.3Q-78.4 27.4 -76 26.25L-74.7 25.45" />
</g>
</svg>
