<?xml version="1.0" encoding="utf-8"?>
<svg version="1.1" id="Layer_1"
xmlns="http://www.w3.org/2000/svg"
xmlns:xlink="http://www.w3.org/1999/xlink"
xmlns:author="http://www.sothink.com"
width="17px" height="19px"
xml:space="preserve">
<g id="1432" transform="matrix(1, 0, 0, 1, 7.65, 2.35)">
<path style="fill:#9D8E79;fill-opacity:1" d="M-6.15,9.3L-6.6 6.6L-6.5 5.7L-6.25 6.45Q-4.75 10.35 -1.55 11.7L-1.05 11.8L-1.15 11.1L-1.05 10.3Q1.1 12.3 2.8 12.65L3.45 12.8Q5.1 12.95 6.3 12.35L7.35 11.5L6.9 13.15L6.15 13.95L5.9 14.25L2.85 14.45Q0.05 14.55 -2.65 13.15Q-5.35 11.7 -6.15 9.3" />
<path style="fill:#F0EAC6;fill-opacity:1" d="M6.3,12.35Q5.1 12.95 3.45 12.8L2.8 12.65Q1.1 12.3 -1.05 10.3L-1.15 11.1L-1.05 11.8L-1.55 11.7Q-4.75 10.35 -6.25 6.45L-6.5 5.7Q-6.15 3.4 -4.55 0.7L-4.05 -0.25Q-4.65 3.2 -2.2 6.25Q-0.1 8.6 3.75 9.35L6.05 9.65Q7.45 10.15 7.35 11.5L6.3 12.35M-2.65,13.15Q0.05 14.55 2.85 14.45L5.9 14.25L3.7 15.05L3.25 15.15Q1.45 15.45 -1.15 14.45Q-3.85 13.3 -5.2 11.35L-6.15 9.3Q-5.35 11.7 -2.65 13.15M-4.55,2.4L-4.8 3.05Q-5.25 5.85 -2.85 7.6Q-1.5 8.65 0.25 9.15L-2.6 6.4Q-4.5 3.95 -4.35 2.45L-4.55 2.4" />
<path style="fill:#FFFCEE;fill-opacity:1" d="M-4.35,2.45Q-4.5 3.95 -2.6 6.4L0.25 9.15Q-1.5 8.65 -2.85 7.6Q-5.25 5.85 -4.8 3.05L-4.55 2.4L-4.35 2.45" />
<path style="fill:#3E3A2F;fill-opacity:1" d="M2.8,7.9L3.85 8.1L4.5 8.15L6.1 8.55Q7.3 8.75 8.05 9.85Q8.75 10.95 8.55 12.15Q8.35 13.25 7.65 14.05L6.2 15.4Q5.6 15.85 3.6 16.3L3.15 16.35L-1 15.75Q-3.5 14.85 -4.9 13.35Q-6.4 11.75 -6.85 10.45Q-8.3 6.55 -7.05 3.1Q-6.6 1.75 -5.8 0.6Q-4.8 -0.95 -3.15 -2.35L-2.95 0.55Q-2.85 2.55 -1.9 4.25Q-1.15 5.75 0.25 6.65Q1.6 7.65 2.8 7.9M-6.6,6.6L-6.15 9.3L-5.2 11.35Q-3.85 13.3 -1.15 14.45Q1.45 15.45 3.25 15.15L3.7 15.05L5.9 14.25L6.15 13.95L6.9 13.15L7.35 11.5Q7.45 10.15 6.05 9.65L3.75 9.35Q-0.1 8.6 -2.2 6.25Q-4.65 3.2 -4.05 -0.25L-4.55 0.7Q-6.15 3.4 -6.5 5.7L-6.6 6.6" />
</g>
</svg>
