<?xml version="1.0" encoding="utf-8"?>
<svg version="1.1" id="Layer_1"
xmlns="http://www.w3.org/2000/svg"
xmlns:xlink="http://www.w3.org/1999/xlink"
xmlns:author="http://www.sothink.com"
width="35px" height="31px"
xml:space="preserve">
<g id="1312" transform="matrix(1, 0, 0, 1, 0, 0)">
<path style="fill:#792E0A;fill-opacity:1" d="M28.45,4.35Q28.5 4.8 27.95 5.15L27.45 5.4L26.8 5.65L26.45 5.75Q28.85 9.7 29.25 13.75L29.6 20Q31.2 21.2 32.75 23.25L32.8 23.35L33.45 24.25L32.9 23.45L33.65 24.55Q33.9 25.85 32.8 27.35L32.6 27.6L32.5 27.75L32.15 28.15Q31.65 28.6 31 27.75L28.55 24.95L25.5 22.15L25.3 19.85L25.3 18.75Q25.45 16.3 25.1 14Q24.7 11.7 23.95 9.5L23.1 7.25L22.9 6.85L17.45 7.2Q15.95 12.45 15.6 15.4L15.05 18.9L14.95 19.75L14.85 20.55L14.8 20.75L14.85 20.7L14.4 22.5Q11.3 24.2 8.5 27.05Q5.7 29.9 5.6 30.2Q5.45 30.45 3.55 28.95Q1.55 27.4 0.85 25.5Q0.1 23.55 0.05 22.55L0.05 21.6L0.05 20.2L0.1 19.5Q0.35 19.25 0.9 19.05L1.7 18.85L2.1 18.95L5.25 24.55Q6.4 22.95 7.95 21.7Q9 20.8 10.25 20.1L11.1 19.6Q11.25 18.1 11.95 14.15Q12.65 10.2 14.3 6.65L10.5 5.25L10.35 5.2L8.6 3.7Q8.15 3 8.3 2.3L8.35 2.2L8.4 2.05L8.4 2L8.45 1.95L8.45 1.9Q8.7 1.5 9.9 1.15L13.2 0.45L21 0.1L25.75 0.9L26.5 1.15L27.6 1.7Q28.2 2.05 28.55 3.15Q28.9 4.2 28.6 4.45L28.45 4.35M15.9,4.15L13.05 3.3L11.2 2.45L10.55 2.4L10.5 2.4L10.05 3Q9.85 3.4 11.15 4.2L11.45 4.4Q12.65 5.05 14.45 5.55L20.5 6Q23.5 5.85 25.7 4.9L26.4 4.5L26.55 4.45L27.1 4.05L27.15 3.9Q27.4 3 26.3 3.2L24.1 3.8L23.95 3.85L20.85 4.4L16.55 4.25L15.9 4.15M27.85,3.65L27.9 3.7L27.9 3.65L27.85 3.65M32.55,24.95Q31.35 23.2 30.05 22.1L28.5 20.8Q28.3 20.55 28.35 18.15Q28.4 15.7 27.75 12.35Q27.1 8.95 26.5 7.8L25.95 6.8L25.55 6.25L24.55 6.5L24.1 6.6L24.3 7.15Q26.2 12.05 26.4 15.25L26.6 19.75L26.6 21.45Q29.3 23.6 31.75 26.9L32.2 26.35Q32.65 25.7 32.55 24.95M23.9,1.55L19.75 1.15L18.2 1.15L12.35 1.6L14.05 2.5Q17.45 3.9 22.3 3.25Q28.35 2.4 23.9 1.55M15.1,6.85Q12.8 13 12.15 20.2Q12.25 20.45 11.75 20.75L11.4 20.95L10.5 21.5L9.8 22L8.55 22.9Q6.55 24.35 5.8 25.7Q5.4 26.35 4.95 26.05L3.85 24.5L2.2 21.15Q1.75 20.3 1.35 20.35Q1.1 20.35 1 20.75L0.95 21.6Q0.9 22.85 2.05 25.1Q3.15 27.35 5.15 28.7Q7.65 25.35 11 23.1Q11.8 22.5 12.75 22L13.25 21.75L13.65 19.6L14.4 14.8Q14.95 11.45 16.3 7.15L15.9 7.05L15.1 6.85" />
<path style="fill:#BF7A24;fill-opacity:1" d="M25.35,4.65L22.9 5.35L21.35 5.5L19.9 5.65Q17.25 5.65 14.2 4.55L13.15 4.15L12.8 4Q11.15 3.25 10.55 2.4L11.2 2.45L13.05 3.3L15.9 4.15L16.85 4.55L19.5 5.05L23.75 4.55L26.05 4.05L26.4 4.1L26.5 4.2L27.15 3.9L27.1 4.05L26.55 4.45L26.4 4.5L25.7 4.9L25.35 4.65M26.7,10.1L27.4 13.55Q27.95 14.95 27.95 17.05L28 20.7L30.15 22.95L31.9 24.85L31.7 25.65L30.45 24.1L28 21.6L27.4 20.55L27.4 18.2Q27.4 16.15 26.4 11.95Q25.55 8.5 24.85 7L25.45 6.9L25.55 6.85Q26.4 8 26.7 10.1M4.9,26.45L5.1 26.45L8.6 23.55L10.5 22.4L10.95 22.1L11.75 20.75Q12.25 20.45 12.15 20.2Q12.8 13 15.1 6.85L15.9 7.05Q13.5 13.35 12.75 22Q11.8 22.5 11 23.1L8.15 24.8Q6.9 25.75 4.9 27.55Q3.5 26.85 2.2 24.25Q1.3 22.45 1 20.75Q1.1 20.35 1.35 20.35Q1.75 20.3 2.2 21.15L3.85 24.5L4.95 26.05L4.9 26.45" />
<path style="fill:#E5AA38;fill-opacity:1" d="M16.55,4.25L20.85 4.4L23.95 3.85L24.1 3.8L26.3 3.2Q27.4 3 27.15 3.9L26.5 4.2L26.4 4.1L26.05 4.05L23.75 4.55L19.5 5.05L16.85 4.55L15.9 4.15L16.55 4.25M25.55,6.85L25.95 6.8L26.5 7.8Q27.1 8.95 27.75 12.35Q28.4 15.7 28.35 18.15Q28.3 20.55 28.5 20.8L30.05 22.1Q31.35 23.2 32.55 24.95Q32.65 25.7 32.2 26.35L31.7 25.65L31.9 24.85L30.15 22.95L28 20.7L27.95 17.05Q27.95 14.95 27.4 13.55L26.7 10.1Q26.4 8 25.55 6.85M15.9,7.05L16.3 7.15Q14.95 11.45 14.4 14.8L13.65 19.6L13.25 21.75L12.75 22Q13.5 13.35 15.9 7.05M4.95,26.05Q5.4 26.35 5.8 25.7Q6.55 24.35 8.55 22.9L9.8 22L10.5 21.5L11.4 20.95L11.75 20.75L10.95 22.1L10.5 22.4L8.6 23.55L5.1 26.45L4.9 26.45L4.95 26.05" />
<path style="fill:#A66221;fill-opacity:1" d="M10.55,2.4Q11.15 3.25 12.8 4L13.15 4.15L14.2 4.55Q17.25 5.65 19.9 5.65L21.35 5.5L22.9 5.35L25.35 4.65L25.7 4.9Q23.5 5.85 20.5 6L14.45 5.55Q12.65 5.05 11.45 4.4L11.15 4.2Q9.85 3.4 10.05 3L10.5 2.4L10.55 2.4M25.55,6.85L25.45 6.9L24.85 7Q25.55 8.5 26.4 11.95Q27.4 16.15 27.4 18.2L27.4 20.55L28 21.6L30.45 24.1L31.7 25.65L32.2 26.35L31.75 26.9Q29.3 23.6 26.6 21.45L26.6 19.75L26.4 15.25Q26.2 12.05 24.3 7.15L24.1 6.6L24.55 6.5L25.55 6.25L25.95 6.8L25.55 6.85M2.2,24.25Q3.5 26.85 4.9 27.55Q6.9 25.75 8.15 24.8L11 23.1Q7.65 25.35 5.15 28.7Q3.15 27.35 2.05 25.1Q0.9 22.85 0.95 21.6L1 20.75Q1.3 22.45 2.2 24.25" />
<path style="fill:#191919;fill-opacity:1" d="M8.45,1.9L8.45 1.95L8.4 2L8.45 1.9M27.9,3.65L27.9 3.7L27.85 3.65L27.9 3.65" />
<path style="fill:#7E4816;fill-opacity:1" d="M22.3,3.25Q17.45 3.9 14.05 2.5L12.35 1.6L18.2 1.15L19.75 1.15L23.9 1.55Q28.35 2.4 22.3 3.25" />
<path style="fill:#283D69;fill-opacity:1" d="M7.95,21.7Q6.4 22.95 5.25 24.55L2.1 18.95L1.7 18.85Q2.9 12.15 6.65 6.15L7.4 5.2L8.6 3.7L10.35 5.2Q9.8 5.7 9.4 6.45L9.3 6.75L5 17.35L5 20.35L6.2 20.35Q6.65 19.6 7.2 19.75Q6.65 21.1 7.95 21.7M28.4,7.35Q29.5 9.25 30.6 13.75Q31.35 15.9 31.35 18.1Q31.65 19.05 33 20.4L32.75 23.25Q31.2 21.2 29.6 20L29.25 13.75Q28.85 9.7 26.45 5.75L26.8 5.65Q27.95 6.55 28.4 7.35" />
<path style="fill:#496298;fill-opacity:1" d="M7.2,19.75Q6.65 19.6 6.2 20.35L5 20.35L5 17.35L9.3 6.75L10.1 7.15Q11.8 8.1 11.8 8.75L11 12.95Q10.2 17.25 10.2 19.35L10.25 20.1Q9 20.8 7.95 21.7Q6.65 21.1 7.2 19.75M26.8,5.65L27.45 5.4L27.95 5.15L28.5 6Q30.3 8.4 31.95 13.5Q33.05 16.95 33 20.4Q31.65 19.05 31.35 18.1Q31.35 15.9 30.6 13.75Q29.5 9.25 28.4 7.35Q27.95 6.55 26.8 5.65" />
<path style="fill:#6B95E0;fill-opacity:1" d="M10.2,19.35Q10.2 17.25 11 12.95L11.8 8.75Q11.8 8.1 10.1 7.15L9.3 6.75L9.4 6.45Q9.8 5.7 10.35 5.2L10.5 5.25L14.3 6.65Q12.65 10.2 11.95 14.15Q11.25 18.1 11.1 19.6L10.25 20.1L10.2 19.35" />
<path style="fill:#0D1931;fill-opacity:1" d="M7.4,5.2L6.65 6.15Q2.9 12.15 1.7 18.85L0.9 19.05Q0.35 19.25 0.1 19.5Q0.6 15.8 1.95 12.15Q4.1 6.15 8.05 2.4L8.3 2.3Q8.15 3 8.6 3.7L7.4 5.2M33,20.4Q33.05 16.95 31.95 13.5Q30.3 8.4 28.5 6L27.95 5.15Q28.5 4.8 28.45 4.35L28.6 4.45Q31.4 6.8 33.15 13.4Q34.35 18.1 34.2 21.5L33.65 24.55L32.9 23.45L33.45 24.25L32.8 23.35L32.75 23.25L33 20.4" />
<path style="fill:#071020;fill-opacity:1" d="M20.5,18.15Q23.45 17.95 25.3 18.75L25.3 19.85L24.6 19.7Q21.6 19 16.9 20.2L14.85 20.7L14.8 20.75L14.85 20.55L14.95 19.75L15.05 18.9L20.5 18.15" />
<path style="fill:#162543;fill-opacity:1" d="M15.05,18.9L15.6 15.4Q15.95 12.45 17.45 7.2L22.9 6.85L23.1 7.25L23.95 9.5Q24.7 11.7 25.1 14Q25.45 16.3 25.3 18.75Q23.45 17.95 20.5 18.15L15.05 18.9" />
</g>
</svg>
