<?xml version="1.0" encoding="utf-8"?>
<svg version="1.1" id="Layer_1"
xmlns="http://www.w3.org/2000/svg"
xmlns:xlink="http://www.w3.org/1999/xlink"
xmlns:author="http://www.sothink.com"
width="19px" height="21px"
xml:space="preserve">
<g id="310" transform="matrix(1, 0, 0, 1, 0, -0.8)">
<path style="fill:#443911;fill-opacity:1" d="M6.85,18.85L5.95 19.75L4.85 20.7L3.9 21.3L2.5 21.7L2.05 21.75L1.1 21.5L0.55 21.1L0.5 21.05Q0.05 20.6 0 20.1L0 19.9L0.2 19.15Q0.55 17.9 2.8 15.95L2.9 15.85L3.55 15.35L3.75 15.9L4.1 16.35L2.75 17.35Q2 18 1.3 19.15Q0.55 20.15 1.65 20.65L1.7 20.7Q2.7 21.15 4.15 19.95L5.2 19.15L6 18.2L5.9 18.1L6.85 18.85M3.5,15.2L3.45 15.1L3.5 15.2" />
<path style="fill:#C6A831;fill-opacity:1" d="M3.95,13.9L3.9 13.7L4.1 13.95L4.8 14.25L6.45 15.5L7.4 16.3L7.5 16.4L7.55 16.45L8.3 17.15L9.1 18.35L9.3 18.4L9.15 18.45L9.1 18.35L8.45 17.95L7.35 17.15L6.9 16.85L6.55 16.6L6.5 16.55L5.6 15.7L4.85 14.9L4.1 13.95Q4 13.85 3.95 13.9" />
<path style="fill:#55442B;fill-opacity:1" d="M1.65,20.65Q0.55 20.15 1.3 19.15Q2 18 2.75 17.35L4.1 16.35L4.2 16.3L4.3 16.4L5.1 17.3L5.9 18.1L6 18.2L5.2 19.15L4.25 18Q2.95 18.8 1.65 20.65" />
<path style="fill:#675232;fill-opacity:1" d="M4.25,18L5.2 19.15L4.15 19.95Q2.7 21.15 1.7 20.7L1.65 20.65Q2.95 18.8 4.25 18" />
<path style="fill:#4E5254;fill-opacity:1" d="M9.7,16.75L9.25 16L9.15 15.9L10.8 15.3Q12.25 14.7 13.65 13.6Q15.6 12.05 16.45 10.15L16.65 9.7L16.95 8.8L17.3 7.4L17.4 5.8L17.1 3.8L16.5 2.5L16.25 3.5L16.25 3.55Q15.6 5.8 14.2 7.8L13.65 8.5L12.85 9.45Q10.5 12.1 7.5 14L7.35 14.1L6.7 13.45L6.45 13.25Q9.05 11.7 11 9.8L12.05 8.65L12.6 8.05Q14.45 5.7 15.7 2.45L16.25 0.8L16.3 0.8Q17.25 1.8 17.9 3.45Q18.6 5.3 18.45 7.25L18.25 8.65L17.7 10.3L16.2 12.55L15.45 13.4Q12.7 16.2 9.85 16.95L9.7 16.75" />
<path style="fill:#AEAEAE;fill-opacity:1" d="M7.35,14.1L7.5 14Q10.5 12.1 12.85 9.45L14.3 9.2L14.7 9.15Q12.95 12.5 9.45 14.3L8.15 14.9L7.35 14.1M15.35,7.65L14.85 7.7L14.2 7.8Q15.6 5.8 16.25 3.55L16.25 3.5L16.25 3.6Q16 5.8 15.35 7.65" />
<path style="fill:#717575;fill-opacity:1" d="M9.45,14.3Q12.95 12.5 14.7 9.15L16.05 8.95Q14.5 12.7 10.8 15.3L9.15 15.9L9.1 15.85L8.65 15.4L8.15 14.9L9.45 14.3M16.25,3.6L16.85 6.15L16.55 7.5L15.35 7.65Q16 5.8 16.25 3.6" />
<path style="fill:#CED1D2;fill-opacity:1" d="M14.7,9.15L14.3 9.2L12.85 9.45L13.65 8.5L14.2 7.8L14.85 7.7L15.35 7.65L14.7 9.15M16.7,8.85L16.05 8.95L16.55 7.5L16.85 6.15L16.25 3.6L16.25 3.5L16.5 2.5L17.1 3.8L17.4 5.8L17.3 7.4L16.95 8.8L16.65 9.7L16.45 10.15L16.7 8.85" />
<path style="fill:#939697;fill-opacity:1" d="M16.05,8.95L14.7 9.15L15.35 7.65L16.55 7.5L16.05 8.95L16.7 8.85L16.45 10.15Q15.6 12.05 13.65 13.6Q12.25 14.7 10.8 15.3Q14.5 12.7 16.05 8.95" />
<path style="fill:#723C13;fill-opacity:1" d="M3.45,15.1Q2.9 14.25 2.85 13.75Q2.6 12.75 3.15 12.45Q3.95 11.8 4.8 12.15L5.9 12.8L6.45 13.25L6.7 13.45L7.35 14.1L8.15 14.9L8.65 15.4L9.1 15.85L9.15 15.9L9.25 16L9.7 16.75L9.85 16.95L10.5 18.2L10.55 18.75L10.15 19.45Q9.3 20.05 7.45 19.15L6.85 18.85L5.9 18.1L5.1 17.3L4.3 16.4L4.2 16.3L4.1 16.35L3.75 15.9L3.55 15.35L3.55 15.3L3.5 15.2L3.45 15.1M3.95,13.9L4.15 14.4L5.05 15.8L5.65 16.55L6.75 17.65Q8.2 18.75 9.15 18.45L9.3 18.4Q9.3 18.3 9.4 18.35L9.15 17.6L8.9 17.3L8.8 17.1L8.55 16.75L8.2 16.3L8.1 16.2L7.75 15.8L7.25 15.25L6.7 14.7L6.3 14.35L5.55 13.75L4.25 13.1L4 13.35L3.9 13.7L3.95 13.9" />
<path style="fill:#956823;fill-opacity:1" d="M4.1,13.95L4.85 14.9L5.6 15.7L6.5 16.55L6.55 16.6L6.9 16.85L7.35 17.15L8.45 17.95L9.1 18.35L9.15 18.45Q8.2 18.75 6.75 17.65L5.65 16.55L5.05 15.8L4.15 14.4L3.95 13.9Q4 13.85 4.1 13.95" />
<path style="fill:#FFE687;fill-opacity:1" d="M9.1,18.35L8.3 17.15L7.55 16.45L7.5 16.4L7.4 16.3L6.45 15.5L4.8 14.25L4.1 13.95L3.9 13.7L4 13.35L4.25 13.1L5.55 13.75L6.3 14.35L6.7 14.7L7.25 15.25L7.75 15.8L8.1 16.2L8.2 16.3L8.55 16.75L8.8 17.1L8.9 17.3L9.15 17.6L9.4 18.35Q9.3 18.3 9.3 18.4L9.1 18.35" />
</g>
</svg>
