<?xml version="1.0" encoding="utf-8"?>
<svg version="1.1" id="Layer_1"
xmlns="http://www.w3.org/2000/svg"
xmlns:xlink="http://www.w3.org/1999/xlink"
xmlns:author="http://www.sothink.com"
width="25px" height="13px"
xml:space="preserve">
<g id="1955" transform="matrix(1, 0, 0, 1, 9.7, 39.45)">
<path style="fill:#191616;fill-opacity:1" d="M8.6,-28.1L8.9 -28.15L11.1 -29.1Q13.15 -29.9 15.05 -31.1Q12.4 -28.3 7.2 -27Q4.2 -26.2 2 -26.55L0 -27.1Q-4.4 -28.65 -6.95 -32.45Q-8.65 -35.15 -9.7 -39Q-7.7 -34 -5.5 -31.45Q-3.3 -28.85 0.6 -27.65Q4.45 -26.4 8.6 -28.1" />
<path style="fill:#191616;fill-opacity:0.501961" d="M-9.15,-39.3L-2.7 -37.85L9.7 -33.95L14.35 -32.6L14.95 -32.2L14.9 -32.15L13.9 -32.3Q13.75 -32.05 -8.4 -38.85L-9.05 -39.05Q-8.15 -36.95 -4.5 -33.7Q-0.75 -30.4 2.95 -29.85Q6.6 -29.25 11.2 -30.5Q14.25 -31.3 14.85 -31.8L14.05 -31.15Q12.35 -30.05 8.2 -29.45L2.9 -29.25Q1.65 -29.45 0.35 -29.9Q-1 -30.35 -4.1 -32.85Q-7.2 -35.3 -9.45 -39.1L-9.5 -39.2L-9.4 -39.25L-9.6 -39.35L-9.3 -39.35L-9.3 -39.3L-9.25 -39.35L-9.15 -39.3" />
<path style="fill:#4D4D4D;fill-opacity:0.6" d="M14.9,-32.1L14.9 -32.15L14.95 -32.2L14.9 -32.1M-9.15,-39.3L-9.25 -39.35L-9.3 -39.45L-9.15 -39.3" />
</g>
</svg>
