<?xml version="1.0" encoding="utf-8"?>
<svg version="1.1" id="Layer_1"
xmlns="http://www.w3.org/2000/svg"
xmlns:xlink="http://www.w3.org/1999/xlink"
xmlns:author="http://www.sothink.com"
width="30px" height="29px"
xml:space="preserve">
<g id="225" transform="matrix(1, 0, 0, 1, 0, 0)">
<path style="fill:#FFDE6E;fill-opacity:1" d="M26.55,6.15L26.6 6.55L26.35 6.85L26.25 6.85L25.8 6.75L25.7 6.7L25.6 6.4Q25.55 6.05 25.85 5.9L26.1 5.8L26.3 5.85L26.4 5.95L26.5 6L26.55 6.15M22,1.75L22.3 1.85L22.4 1.9Q22.75 2.65 22 2.9Q20.95 3.2 21.1 2.25Q21.15 1.75 21.6 1.7L22 1.75M20.7,8.6L20.6 8.3Q20.55 7.95 20.85 7.8L21.1 7.7L21.3 7.75L21.4 7.85L21.5 7.9L21.55 8.05L21.6 8.45L21.35 8.75L21.25 8.75L20.8 8.65L20.7 8.6M26.3,15.4L26.2 15.1Q26.15 14.75 26.45 14.6L26.7 14.5L26.9 14.55L27 14.65L27.1 14.7L27.15 14.85L27.2 15.25L26.95 15.55L26.85 15.55L26.4 15.45L26.3 15.4M27.8,12.45Q27.8 11.8 28.4 11.7Q29.7 12.3 28.5 12.85Q27.8 13.2 27.8 12.45M16.4,2.85L16.5 2.75L16.7 2.7L16.8 2.7L17 2.75L17.2 2.9L17.25 2.95L17.25 3.05L17.3 3.2L17.25 3.45L17.2 3.5L16.8 3.7L16.3 3.5L16.25 3.4L16.25 3.35L16.2 3.2L16.25 3L16.3 2.9L16.4 2.85M13.65,0.95Q13.4 0.55 13.6 0.2L13.7 0.15L13.8 0.05L14 0Q14.35 0 14.55 0.3L14.65 0.95L14.6 1.1Q14.05 1.5 13.65 0.95M5.35,5.3L5.3 5.5L4.2 5.45Q3.8 5 3.95 4.4L4 4.3L4.1 4.25L4.2 4.15L4.4 4.1Q4.85 4.05 5.1 4.45L5.35 5.3M1.1,8.05L1.05 8.65L0.95 8.75Q0.4 8.9 0.15 8.35Q0 8 0.35 7.8L0.6 7.7Q0.95 7.75 1.1 8.05M3.8,20.95L3.7 21.2L2.65 21.35Q2.05 21.1 2.25 20.45L2.35 20.3L2.4 20.2L2.5 20.15L2.55 20.15L2.7 20.1L3.45 20.2Q3.9 20.45 3.8 20.95M1,19.3L1.05 19.35L1.05 19.45L1.1 19.6L1.05 19.85L1 19.9L0.6 20.1Q0.3 20.15 0.1 19.9L0.05 19.8L0.05 19.75L0 19.6L0.05 19.4L0.1 19.3L0.2 19.25L0.3 19.15L0.5 19.1L0.6 19.1L0.8 19.15L1 19.3M6.45,23.1Q6.65 22.75 7 22.7L7.3 22.75L7.6 22.85L7.7 22.9Q7.9 23.6 7.25 24.2L6.05 25.1L5.5 25.55L5.8 24.7L6.45 23.1M11.1,24.3Q12 24.3 11.8 25.05Q11.6 25.75 10.8 25.4L10.6 25.3L10.5 25L10.65 24.55L11.1 24.3M13.8,27.4L13.85 27.45L13.85 27.55L13.9 27.7L13.85 27.95L13.8 28L13.6 28.1L12.6 28L12.55 27.9L12.55 27.85L12.5 27.7L12.55 27.5L12.6 27.4L12.7 27.35L12.8 27.25L13 27.2L13.4 27.25L13.7 27.35L13.8 27.4M21.55,25.1Q22.05 25.35 22.05 25.9L22 26.1Q21.35 26.5 20.65 26.1Q19.85 25.65 20.25 25L20.3 24.9L20.4 24.85L20.45 24.85L20.6 24.8L21.55 25.1" />
</g>
</svg>
