<?xml version="1.0" encoding="utf-8"?>
<svg version="1.1" id="Layer_1"
xmlns="http://www.w3.org/2000/svg"
xmlns:xlink="http://www.w3.org/1999/xlink"
xmlns:author="http://www.sothink.com"
width="9px" height="17px"
xml:space="preserve">
<g id="1153" transform="matrix(1, 0, 0, 1, -51.05, -61)">
<path style="fill:#221E38;fill-opacity:1" d="M51.35,62.65L51.4 62.55L51.55 62.9Q51.95 63.7 53.45 64.85L55.8 66.6L56.5 66.85L56.35 66.85L55.8 67.6L54.8 69.3Q54.2 70.2 53.75 71.6L53.3 72.85Q52.15 73 51.7 73.9L51.55 74.8L51.75 75.5L51.85 75.55L52.55 76.15L53 76.35L54.5 76.35Q55.3 76.2 55.75 74.65L55.65 73.8L55.1 73.35L56.65 71.5L58.3 69.15Q59.05 67.95 59.1 66.95L58.45 65.95Q57.85 65 56.8 64.25L54.05 62.35L53.55 62.05L52.45 61.45L52.15 61.2Q52 61.05 52.25 61L52.4 61.05L52.45 61.05Q54 61.4 55.95 62.8L58.25 64.55L58.8 65.2Q59.5 66 59.65 67.1L59.6 67.7Q59.5 68.45 58.85 69.4L57.35 71.45L55.95 73.3L56.35 74.05L56.2 75.25L55.5 76.4Q55.15 76.95 54.2 77.1Q53.15 77.2 52.15 76.65L51.75 76.35L51.7 76.35L51.55 76.2L51.45 76.1Q51.1 75.7 51.1 75.3Q50.95 74.65 51.2 73.85Q51.65 72.85 52.1 72.6L52.85 72.4L53.4 71.1Q53.75 69.95 54.45 68.9L55.65 66.95L53.35 65.5Q51.95 64.5 51.5 63.65L51.45 63.45L51.4 63.3L51.3 62.65L51.35 62.65" />
<path style="fill:#524591;fill-opacity:1" d="M52.1,61.25L52.15 61.2L52.45 61.45L53.55 62.05L54.05 62.35L56.8 64.25Q57.85 65 58.45 65.95L59.1 66.95Q59.05 67.95 58.3 69.15L56.65 71.5L55.1 73.35L55.65 73.8L55.75 74.65Q55.3 76.2 54.5 76.35L53 76.35L52.55 76.15L51.85 75.55Q52 74.8 52.4 74.45L53.45 73.8L54.4 72.75Q54.45 72.1 54.85 71.35L55.6 69.55Q55.9 68.6 57.7 66.75L54.65 64.4Q52.75 62.85 52.1 61.25" />
<path style="fill:#7A61AA;fill-opacity:1" d="M54.65,64.4L57.7 66.75Q55.9 68.6 55.6 69.55L54.85 71.35Q54.45 72.1 54.4 72.75L53.45 73.8L52.4 74.45Q52 74.8 51.85 75.55L51.75 75.5L51.55 74.8L51.7 73.9Q52.15 73 53.3 72.85L53.75 71.6Q54.2 70.2 54.8 69.3L55.8 67.6L56.35 66.85L56.5 66.85L55.8 66.6L53.45 64.85Q51.95 63.7 51.55 62.9L51.4 62.55L51.35 62.65L51.3 62.65L51.3 62.6L51.4 62.1Q51.6 61.5 52.1 61.25Q52.75 62.85 54.65 64.4" />
</g>
</svg>
