<?xml version="1.0" encoding="utf-8"?>
<svg version="1.1" id="Layer_1"
xmlns="http://www.w3.org/2000/svg"
xmlns:xlink="http://www.w3.org/1999/xlink"
xmlns:author="http://www.sothink.com"
width="41px" height="37px"
xml:space="preserve">
<g id="3128" transform="matrix(1, 0, 0, 1, 17.85, 11.7)">
<path style="fill:#F079FF;fill-opacity:1" d="M0.65,-1.25L1.5 -1L1.8 -0.45Q1.8 -0.15 1.4 0.05L0.85 0.2Q0.25 0.2 -0.25 -0.35L-0.55 -0.8L0.05 -1.15L0.65 -1.25M18.35,-7.4L19.85 -4.5L19.25 -3.55L18.2 -2.2L18.05 -2.2Q18.05 -5.55 17.3 -7.55L15.95 -9.8L16.75 -9.7L18.35 -7.4M21.35,21.25L22.1 20.75L22.35 21.7Q22.35 23.7 20.9 23.7Q20.1 23.7 19.4 23.15Q18.75 22.65 18.75 22.15L18.75 22.1Q20.15 21.95 21.35 21.25M9.4,8.85Q10.05 9.4 10.05 10.4L9.9 11.65Q9.7 12.35 9 12.35L8.05 12.05Q7.4 11.7 7.4 11.1L7.5 10.75L7.65 10.4L7.45 10.15L7.25 9.8Q7.25 8.85 9.25 8.85L9.4 8.85M-14.35,-3.95Q-14.35 -2.95 -13.65 -1.45L-13.55 -0.75L-14.35 -0.75L-16.4 -2.8Q-17.85 -4.6 -17.85 -5.8Q-17.85 -7.45 -17.15 -8.75Q-16.4 -10.2 -15.2 -10.2L-13.6 -9.95Q-13.05 -9.95 -11.9 -10.6Q-14.35 -7.85 -14.35 -3.95M-11.05,23.9L-11.55 23.15Q-11.55 22.7 -11 22.25L-10.85 22.15L-10.3 22.85L-9.3 23.95L-9.3 24.25L-9.45 24.35L-10.25 24.35L-11.05 23.9M-1,13.25Q-0.75 13 -0.35 13Q0.65 13 0.45 14.2L-0.5 14.2Q-0.8 14.2 -1 14L-1 13.25M-2.1,23.7Q-1.6 24.2 -1.55 24.6L-2 24.75L-2.55 24.5L-2.6 24.5L-2.7 24.4L-2.9 23.7L-2.1 23.7" />
<path style="fill:#DB2AF0;fill-opacity:1" d="M19.85,-4.5L18.35 -7.4L16.75 -9.7Q18.25 -9.7 19.25 -8.75Q20.35 -7.8 20.35 -6.1Q20.35 -5.35 19.85 -4.5M22.1,20.75L21.35 21.25Q20.15 21.95 18.75 22.1Q18.75 21.55 19.1 21.5L20.45 21.15L21.3 19.8L21.35 19.7L21.95 20.5L22.1 20.75M-11.9,-10.6L-11.55 -10.8Q-10.1 -11.7 -8.65 -11.7L-6.35 -11.4Q-10.05 -10.85 -12.1 -7.5Q-13.95 -4.5 -13.65 -1.45Q-14.35 -2.95 -14.35 -3.95Q-14.35 -7.85 -11.9 -10.6" />
</g>
</svg>
