<?xml version="1.0" encoding="utf-8"?>
<svg version="1.1" id="Layer_1"
xmlns="http://www.w3.org/2000/svg"
xmlns:xlink="http://www.w3.org/1999/xlink"
xmlns:author="http://www.sothink.com"
width="37px" height="36px"
xml:space="preserve">
<g id="460" transform="matrix(1, 0, 0, 1, 0, 0)">
<path style="fill:#6AA643;fill-opacity:1" d="M6.95,27.4Q8.75 25.7 10.35 25L19.05 24.6Q21.4 24.05 22.55 23.25Q22.75 22.05 23.3 20.7L23.4 20.65Q24.25 21.25 24.65 22.15Q30.35 18.05 33.4 8.5Q30.45 9.55 28.7 11.7L27.9 12.45L28.05 15.1Q28 15.8 27.55 15.4L25.95 14.5L24.4 15.65Q21.9 17.5 19.25 17.85L16.65 18.25L16.75 21.1Q16.9 21.55 15.75 20.95Q14.55 20.3 13.85 19.15L12.9 19.45Q11 20.15 9.8 21.45L8.95 22.1Q7.45 23.35 5.85 25.25Q4.95 23.3 5.3 20.6Q6.65 16.4 9.85 13.95Q12.15 12.25 15.3 11.55L17.4 13.8Q17.7 12.35 19.25 11.1L20.45 11Q25.4 11 29.65 9Q32.5 7.7 34.45 5.7L34.15 8.25L33.8 10.35Q32.75 14.2 30.25 18.45Q27.7 22.7 24.05 24.8Q20.3 26.9 17.15 27.05L12.35 26.5Q10.7 25.8 9.15 27Q7.6 28.1 6.8 29.25Q5.95 30.45 5.25 32Q4.75 32.95 4.05 33.25Q4.3 30.5 6.95 27.4" />
<path style="fill:#194310;fill-opacity:1" d="M5.85,25.25L6.1 25.7Q2.9 29.35 2.25 30.8Q1.35 32.65 3.05 33.3L4.05 33.25Q4.75 32.95 5.25 32Q5.95 30.45 6.8 29.25Q7.6 28.1 9.15 27Q10.7 25.8 12.35 26.5L17.15 27.05Q20.3 26.9 24.05 24.8Q27.7 22.7 30.25 18.45Q32.75 14.2 33.8 10.35L34.15 8.25L34.45 5.7L34.65 2.05Q31.25 9.35 20.15 9.05Q9 8.8 6.55 15.5Q5.5 18.3 5.3 20.6Q4.95 23.3 5.85 25.25M33.6,0.8Q35.95 -0.95 36.5 1.1Q36.7 1.85 36.55 5.05L35.95 10.65Q35.5 13.05 32.95 18.15Q30.4 23.2 26.35 25.85Q22.25 28.45 18.6 28.85L13.05 28.65Q11.2 28.1 9.75 29Q8.25 29.85 7.45 31.6L6.35 33.7L4.85 34.95Q2.6 35.95 1.15 34.6Q-0.35 33.2 0.15 31.65Q0.6 30.1 1.05 29.35L4.05 25.2Q2.55 20 4.1 15.9Q5.65 11.75 9.15 9.6Q12.6 7.45 18.65 7.35Q24.65 7.25 27.45 6.1Q30.2 4.95 31.75 3.1L33.6 0.8" />
<path style="fill:#A7DE84;fill-opacity:1" d="M29.65,9Q25.4 11 20.45 11L19.25 11.1Q17.7 12.35 17.4 13.8L15.3 11.55Q12.15 12.25 9.85 13.95Q6.65 16.4 5.3 20.6Q5.5 18.3 6.55 15.5Q9 8.8 20.15 9.05Q31.25 9.35 34.65 2.05L34.45 5.7Q32.5 7.7 29.65 9" />
<path style="fill:#388328;fill-opacity:1" d="M4.05,33.25L3.05 33.3Q1.35 32.65 2.25 30.8Q2.9 29.35 6.1 25.7L5.85 25.25Q7.45 23.35 8.95 22.1L9.8 21.45Q11 20.15 12.9 19.45L13.85 19.15Q14.55 20.3 15.75 20.95Q16.9 21.55 16.75 21.1L16.65 18.25L19.25 17.85Q21.9 17.5 24.4 15.65L25.95 14.5L27.55 15.4Q28 15.8 28.05 15.1L27.9 12.45L28.7 11.7Q30.45 9.55 33.4 8.5Q30.35 18.05 24.65 22.15Q24.25 21.25 23.4 20.65L23.3 20.7Q22.75 22.05 22.55 23.25Q21.4 24.05 19.05 24.6L10.35 25Q8.75 25.7 6.95 27.4Q4.3 30.5 4.05 33.25" />
</g>
</svg>
