<?xml version="1.0" encoding="utf-8"?>
<svg version="1.1" id="Layer_1"
xmlns="http://www.w3.org/2000/svg"
xmlns:xlink="http://www.w3.org/1999/xlink"
xmlns:author="http://www.sothink.com"
width="35px" height="36px"
xml:space="preserve">
<g id="209" transform="matrix(1, 0, 0, 1, 0, 0)">
<path style="fill:#3D2018;fill-opacity:1" d="M33.7,2.4L33.9 4.25L33.9 5.05L33.9 5.55L34.05 9.3Q34.25 11.85 33.9 16.2L33.75 20.8L33.9 23.2L33.95 26L33.7 26.95Q33.35 27.9 31.45 28.3L29.2 28.2L28.85 27.95Q27.8 27 27.85 25.55L27.25 17.7L26.75 10.5Q25.8 6.3 24.95 4.65Q24.6 4.05 24.75 3.15L24.85 2.6L25.1 1.95L25.45 1.4Q26.4 0.15 28.85 0L30.6 0.05Q33.1 0.75 33.6 1.85L33.7 2.4M32.25,1.9Q31.75 1.4 31 1.3L28.85 1.05L28.5 1.05Q27.45 1.1 26.45 1.9L26.2 2.2Q25.9 2.55 25.9 3.05Q25.9 3.9 27.35 4.4L28.85 4.7L30.05 4.55Q31.35 4.25 32.1 3.35L32.4 2.85L32.5 2.45L32.25 1.9M33.05,24.8L32.8 22.25Q32.55 20.9 32.7 17.7L32.95 12.65Q32.7 9.25 32.7 4.2Q31.8 5.5 29.8 5.8L28.85 5.85L28.2 5.75L27.3 5.55L27.1 5.45L26.4 5L26.9 6.45L27.45 8.65L27.7 9.8Q28.2 12.35 28.25 16.2Q28.25 20.05 28.6 22.8L28.85 24.3Q29.1 25.75 29.45 26.2Q29.85 26.85 31.2 26.85Q32.5 26.85 32.9 25.6L33.05 24.8M28.45,1.8L28.85 1.75L29.45 1.8L30.55 2.1L28.85 2.4Q28.5 2.55 28.25 2.8Q27.25 3.8 27.65 2.5L27.9 2.1Q28.05 1.9 28.4 1.85L28.45 1.8M30.6,14.45L30.65 7.35Q31.95 11.1 30.65 14.7L30.6 14.45M11.35,11Q11.15 11.6 11.1 15.15L11.1 21.95Q11.25 25.55 11.5 27.15L12.2 29.75Q12.55 30.6 12.3 32.25L12.2 32.65L12.1 33.05Q11.6 34.6 10 35.35Q8.2 36.2 6.35 35.8Q4.55 35.45 4.15 34.05Q3.65 32.55 2.65 26.85L0.65 15.7L0.25 13.05Q-0.2 9.5 0.25 8.7L0.45 8.4L0.85 7.9L2.35 6.75Q3.8 5.85 6.7 5.75Q10 5.85 10.9 7.6Q11.65 9.2 11.35 11M6.45,7.7L6.8 7.6Q7.35 8.55 7.25 9.15L7.05 9.5L6.3 9.95L4.6 10.05Q4.05 10.05 3.85 9.85Q3.55 9.55 4.1 8.9Q4.8 8 4.75 9.15Q6.45 9.7 6.25 7.95L6.3 7.95L6.45 7.7M9.8,8.4Q9.5 7.7 8.1 7.05L6.65 6.85Q5.05 6.9 3.65 7.5L1.75 8.65L1.45 9.1Q1.05 9.95 3.15 10.6L7.95 10.45Q9.4 9.75 9.75 9.05L9.8 8.4M10.8,32.95Q11.45 31.9 11.2 30.75L11.15 30.5Q10.65 28.85 10.1 25.7Q9.5 22.55 9.75 18.45L9.95 12.25L10.25 10.05Q9.1 11.2 6.8 11.7Q5.2 12 3.15 11.65L1.4 11.25L1.9 15.7L2.35 18.55Q3.25 24.1 5.2 33.3Q5.25 34.35 7.05 34.65Q8.8 35 10.2 33.6L10.8 32.95M7.85,29.6L7.5 28.85Q6.8 27.2 6.2 23.75L5.4 18.45Q5.2 16.55 5.35 16.6Q6.75 22.45 7.85 28.85L7.9 29.05Q8.05 29.9 7.85 29.6" />
<path style="fill:#F7D5A1;fill-opacity:1" d="M27,2.1L26.2 2.2L26.45 1.9Q27.45 1.1 28.5 1.05L28.85 1.05L31 1.3Q31.75 1.4 32.25 1.9L32.5 2.45L32.1 2.6Q31.1 2.05 29.95 1.8L29.45 1.8L28.85 1.75L28.45 1.8L28.4 1.8L28.4 1.85Q28.05 1.9 27.9 2.1L27 2.1M9.4,8.85L9.1 8.55Q7.95 7.7 7.3 7.5L6.45 7.5L6.45 7.7L6.3 7.95Q6.05 7.75 5.65 7.65L3.65 7.5Q5.05 6.9 6.65 6.85L8.1 7.05Q9.5 7.7 9.8 8.4L9.4 8.85" />
<path style="fill:#ECB161;fill-opacity:1" d="M32.1,2.6L32.5 2.45L32.4 2.85L32.1 2.6M28.4,1.85L28.4 1.8L28.45 1.8L28.4 1.85M6.3,9.95L7.05 9.5L6.6 9.9L6.3 9.95M9.75,9.05L9.4 8.85L9.8 8.4L9.75 9.05" />
<path style="fill:#ECA561;fill-opacity:1" d="M26.1,3.25Q27.25 4.15 28.5 4.15L29.6 4L29.35 3.35L31.55 2.8L32.1 2.6L32.4 2.85L32.1 3.35Q31.35 4.25 30.05 4.55L28.85 4.7L27.35 4.4Q25.9 3.9 25.9 3.05L26.1 3.25M6.6,9.9L7.05 9.5L7.25 9.15L8.4 9.4Q9.05 9.4 9.3 9L9.4 8.85L9.75 9.05Q9.4 9.75 7.95 10.45L3.15 10.6Q1.05 9.95 1.45 9.1L2.35 9.45L3.85 9.85Q4.05 10.05 4.6 10.05L6.3 9.95L6.6 9.9" />
<path style="fill:#F4BD6A;fill-opacity:1" d="M27.9,2.1L27.65 2.5Q27.25 3.8 28.25 2.8Q28.5 2.55 28.85 2.4L30.55 2.1L29.45 1.8L29.95 1.8Q31.1 2.05 32.1 2.6L31.55 2.8L29.35 3.35L29.6 4L28.5 4.15Q27.25 4.15 26.1 3.25L25.9 3.05Q25.9 2.55 26.2 2.2L27 2.1L27.9 2.1M2.35,9.45L1.45 9.1L1.75 8.65L3.65 7.5L5.65 7.65Q6.05 7.75 6.3 7.95L6.25 7.95Q6.45 9.7 4.75 9.15Q4.8 8 4.1 8.9Q3.55 9.55 3.85 9.85L2.35 9.45M6.45,7.5L7.3 7.5Q7.95 7.7 9.1 8.55L9.4 8.85L9.3 9Q9.05 9.4 8.4 9.4L7.25 9.15Q7.35 8.55 6.8 7.6L6.45 7.7L6.45 7.5" />
<path style="fill:#D49275;fill-opacity:1" d="M28.85,5.85L29.8 5.8Q31.8 5.5 32.7 4.2Q32.7 9.25 32.95 12.65L32.7 17.7L32.2 15.9L31.85 7.15L31.65 7.15L31.65 7.25L31.55 7.65L31.4 7.55L31.15 6.15L31.05 6.65L30.2 6.85L29 6.15L28.85 6.1L28.2 5.75L28.85 5.85M29.45,7.5L29.6 8L29.5 8L29.1 7.65L28.85 7.15L28.8 6.85L28.85 6.9L29.1 7.05L29.3 7.15L29.45 7.5M29.25,17.25L29.25 19.1L28.95 19.1L28.65 18.95L28.65 16.55L28.75 16.2L28.85 16.35L29.05 16.7L29.25 17.25M31,15.85Q31.05 16.45 31.65 17.7L31.65 19.65L31.55 19.65L31.15 17.6L31 15.85M11.2,30.75Q9.85 28.4 9.25 24.6Q8.65 20.8 8.7 13.5L8.65 13.5L8.45 13.8L7.95 14.2Q7.55 13.75 7.55 12.15L5.1 12.2L3.15 11.65Q5.2 12 6.8 11.7Q9.1 11.2 10.25 10.05L9.95 12.25L9.75 18.45Q9.5 22.55 10.1 25.7Q10.65 28.85 11.15 30.5L11.2 30.75M6.6,16.25L7.35 17.8Q8 19.4 8 20.35L7.95 21.3L7.55 21.3Q7.35 20.9 6.9 18.7L6.5 16.45L6.6 16.25M8.85,27.75L8.85 28.6L8.65 28.6Q8.35 28.25 8.35 27.8Q8.35 27.25 8.5 27.2L8.55 27.2L8.75 27.45L8.85 27.75" />
<path style="fill:#9F5C3E;fill-opacity:1" d="M32.8,22.25L33.05 24.8L33 24.7L31.55 21.9L31.55 22.05L31.4 22.6L31.15 21.9L31.1 21.9L30.85 24.65L30.6 24.65Q30.05 23.1 30 18.4L29.75 9.2L29.6 9.3L29.5 10.05L29.35 10.05L28.85 9.35L28.8 9.3L28.8 10.7L28.65 10.7L27.45 8.65L26.9 6.45L26.4 5L27.1 5.45L27.3 5.55L28.2 5.75L28.85 6.1L29 6.15L30.2 6.85L31.05 6.65L31.15 6.15L31.4 7.55L31.55 7.65L31.65 7.25L31.65 7.15L31.85 7.15L32.2 15.9L32.7 17.7Q32.55 20.9 32.8 22.25M29.3,7.15L29.1 7.05L28.85 6.9L28.8 6.85L28.85 7.15L29.1 7.65L29.5 8L29.6 8L29.45 7.5L29.3 7.15M31.15,17.6L31.55 19.65L31.65 19.65L31.65 17.7Q31.05 16.45 31 15.85L31.15 17.6M30.65,14.7Q31.95 11.1 30.65 7.35L30.6 14.45L30.65 14.7M5.1,12.2L7.55 12.15Q7.55 13.75 7.95 14.2L8.45 13.8L8.65 13.5L8.7 13.5Q8.65 20.8 9.25 24.6Q9.85 28.4 11.2 30.75Q11.45 31.9 10.8 32.95Q9.55 32.5 8.85 31.25L7.95 28.85L7.9 29.05L7.85 28.85Q6.75 22.45 5.35 16.6Q5.2 16.55 5.4 18.45L6.2 23.75Q6.8 27.2 7.5 28.85L7.85 29.6L7.85 30.35L7.7 30.35L6.6 27.9L6.3 30.1L6.2 29.95L5 24.35Q3.95 18.85 4.15 15.25L4.05 15.25Q4.05 16.35 3.35 16.9L3.05 15.55L2.55 14.2Q2.55 15.4 1.9 15.7L1.4 11.25L3.15 11.65L5.1 12.2M6.5,16.45L6.9 18.7Q7.35 20.9 7.55 21.3L7.95 21.3L8 20.35Q8 19.4 7.35 17.8L6.6 16.25L6.5 16.45M3.6,22.45L4.1 24.2L4.55 26.45L4.25 27.9L4.25 27.85L3.7 24.15L3.6 22.8L3.55 22.45L3.6 22.45M8.55,27.2L8.5 27.2Q8.35 27.25 8.35 27.8Q8.35 28.25 8.65 28.6L8.85 28.6L8.85 27.75L8.75 27.45L8.7 27.25L8.55 27.2M7.7,33.75L7.55 33.75L7.3 32.8L7 32.2L7 31.95L7.7 32.65L7.7 33.75" />
<path style="fill:#743D24;fill-opacity:1" d="M32.9,25.6Q32.5 26.85 31.2 26.85Q29.85 26.85 29.45 26.2Q29.1 25.75 28.85 24.3L28.6 22.8Q28.25 20.05 28.25 16.2Q28.2 12.35 27.7 9.8L27.45 8.65L28.65 10.7L28.8 10.7L28.8 9.3L28.85 9.35L29.35 10.05L29.5 10.05L29.6 9.3L29.75 9.2L30 18.4Q30.05 23.1 30.6 24.65L30.85 24.65L31.1 21.9L31.15 21.9L31.4 22.6L31.55 22.05L31.55 21.9L33 24.7L33.05 24.8L32.9 25.6M29.05,16.7L28.85 16.35L28.75 16.2L28.65 16.55L28.65 18.95L28.95 19.1L29.25 19.1L29.25 17.25L29.05 16.7M7.9,29.05L7.95 28.85L8.85 31.25Q9.55 32.5 10.8 32.95L10.2 33.6Q8.8 35 7.05 34.65Q5.25 34.35 5.2 33.3Q3.25 24.1 2.35 18.55L1.9 15.7Q2.55 15.4 2.55 14.2L3.05 15.55L3.35 16.9Q4.05 16.35 4.05 15.25L4.15 15.25Q3.95 18.85 5 24.35L6.2 29.95L6.3 30.1L6.6 27.9L7.7 30.35L7.85 30.35L7.85 29.6Q8.05 29.9 7.9 29.05M3.6,22.8L3.7 24.15L4.25 27.85L4.25 27.9L4.55 26.45L4.1 24.2L3.6 22.45L3.55 22.45L3.45 22.45L3.6 22.8M7.7,32.65L7 31.95L7 32.2L7.3 32.8L7.55 33.75L7.7 33.75L7.7 32.65" />
<path style="fill:#BF723E;fill-opacity:1" d="M3.45,22.45L3.55 22.45L3.6 22.8L3.45 22.45M8.7,27.25L8.75 27.45L8.55 27.2L8.7 27.25" />
</g>
</svg>
