<?xml version="1.0" encoding="utf-8"?>
<svg version="1.1" id="Layer_1"
xmlns="http://www.w3.org/2000/svg"
xmlns:xlink="http://www.w3.org/1999/xlink"
xmlns:author="http://www.sothink.com"
width="126px" height="46px"
xml:space="preserve">
<g id="1689" transform="matrix(1, 0, 0, 1, -1.7, -0.45)">
<path style="fill:#CC4333;fill-opacity:1" d="M125.05,18.35L126.85 19.05Q127.4 19.45 126.7 19.75L126 20L124.85 20.3L116.05 23.05L119.4 26.25L115.8 26.65L113.05 26.1L111.05 25.3Q113.05 27.05 114.9 28.2Q112.5 29.15 110.5 29.35L107.95 29.5Q101.85 29.4 97.05 25.7L100.05 25.4L98.75 25.35L98.3 25.3Q95.15 25.15 93.3 27.7L93.15 27.65Q92.8 25.65 93.25 24.4Q93.65 23.15 94.55 22.5Q95.1 22.1 95.75 21.85L85.55 21.85L85.7 22.65Q85.7 23.25 85.15 23.9L84.6 24.3L84.3 24.4L82.65 24.8Q80.95 25.05 80.65 23.35L80.55 23.1L79.9 23L78.15 22.55L77.5 23.05L77.25 23.15L76.7 23.25L74.55 23.45L71.6 23.3L71 23.15L70.9 23.2L67.65 23.9L66.5 24.05L66.45 24.25L66.3 25.1Q67.35 27.1 67.65 28.95L67.85 31.1L67.3 33.7L66 36.3L63.45 39.4L61.05 42L59.8 43.35L59.7 43.45L57.8 45.55L57.4 45.7Q56.45 44.8 56 43.5L55.75 41.75L55.8 40.8L54.45 42.1L52.5 43.55L50.55 44.5L48.65 44.55L48.6 43.6L48.6 42.7L48.35 40.35Q48.15 40.15 47.1 41Q46.15 41.95 46.05 43.15L46 43.65L46 44.4L45.2 44.05L44.55 43.65L43.5 42.5Q42.65 41.4 42.1 40.05L37.4 41.45L35.9 41.7L35 41.7Q34.6 41.65 35.25 37.65L35.4 36.6Q31.45 38.05 29.55 40.05Q28.85 40.85 28.55 39.6Q28.25 38.7 28.45 37.5Q28.7 36.05 29.95 34.15L28.5 34.25L27.25 34.4L27.05 34.2L25.6 34Q24.75 34.05 25.2 32.95L25.65 31.85Q22.65 32.6 18 35.1Q17.2 34.95 16.65 34.05L16.3 33.6L14.75 33.9Q9.45 34.65 5.85 32.25Q10.1 29.95 10.35 29.4L7.5 29.65L6.85 29.55Q6.3 26.5 10.35 26.25Q7.6 25.2 7.7 22.85Q7.5 22.3 9.7 22.55L11.35 22.5Q12.75 22.35 12.85 22Q11.5 20.5 9.05 19.65L7.9 20.45Q6.15 21.2 3.8 19.9Q2.35 18.9 1.8 16.35L1.7 15.55L1.7 15.45Q1.6 13.45 2.8 10.75L3.05 10.35Q4.25 7.9 5.7 7L5.6 6.1Q5.6 5.2 6.2 4L7.15 2.8Q8.75 1.75 9.3 2.8Q10.05 3.95 11.3 4.85L11.3 4.7L11.7 3.6L11.8 3.55L12.3 2.45L12.95 1.6Q14.8 -0.4 17.4 1.1Q18 1.35 18.55 2L21.4 2.15Q22.7 2.45 23.1 3.35L23.95 3.3L25 3.45L25 3.4Q25.9 2.3 26.7 2.05Q27.55 1.8 27.9 2.55L27.9 2.6Q28.8 3.5 30.45 4.1L33.8 5.15Q34.05 4.5 34.5 4.1Q35.9 2.8 37.1 3.95L38.3 4.85L38.4 4.8L39.2 4.75L41.25 5.1L42.3 5.5L43.75 5.3L45.9 5.55Q46.6 5.8 45.9 6.35Q44.95 7.1 45.35 8.35L46 9.1L47.5 11.2L48.65 11.3L50.05 11.55L50.15 11.45Q52.3 10.1 54.6 9.9Q57.5 9.75 59.35 11.4L60 12L61.95 11.4Q63.8 11.15 65.2 11.8Q65.1 11.45 65.6 11.05Q66.05 10.7 66.75 10.7Q67.4 10.75 67.9 11.35L68.5 12.35L69.3 14.95Q70.35 14.5 72.35 14.4L76.25 14.55L77.4 15.5Q78.55 14.75 81 14.9Q83.4 15 84.6 16.1L85.4 16.95L95.75 16.95Q94.8 15.9 94.8 14.2Q94.75 11.85 96 11.1L97.1 13Q97.45 13.55 98.5 13.8L101.7 13.55Q103 13.25 104.2 14.15L105.95 13.9Q110.4 17.7 111.7 17.8Q110.75 15.85 110.45 13.8L112.45 14.5L117.9 16.25L124.4 18.2L125.05 18.35" />
</g>
</svg>
