<?xml version="1.0" encoding="utf-8"?>
<svg version="1.1" id="Layer_1"
xmlns="http://www.w3.org/2000/svg"
xmlns:xlink="http://www.w3.org/1999/xlink"
xmlns:author="http://www.sothink.com"
width="123px" height="14px"
xml:space="preserve">
<g id="818" transform="matrix(1, 0, 0, 1, 11.45, 6.8)">
<path style="fill:#83693F;fill-opacity:1" d="M108.4,-4.8Q111.55 -2.85 111.55 0Q111.55 1.2 111 2.2Q110.2 3.6 108.4 4.75Q105.25 6.8 100.75 6.8L-0.65 6.8Q-5.15 6.8 -8.3 4.75Q-10.1 3.6 -10.9 2.2Q-11.45 1.2 -11.45 0Q-11.45 -2.85 -8.3 -4.8Q-5.15 -6.8 -0.65 -6.8L100.75 -6.8Q105.25 -6.8 108.4 -4.8" />
<path style="fill:#FFBC35;fill-opacity:1" d="M105.2,-2.2Q105.65 -1.3 105.65 -0.15Q105.65 0.95 105.2 1.85Q104.75 2.65 104.2 2.65L-4.65 2.65Q-5.25 2.65 -5.7 1.85Q-6.15 0.95 -6.15 -0.15Q-6.15 -1.3 -5.7 -2.2Q-5.25 -3 -4.65 -3L104.2 -3Q104.75 -3 105.2 -2.2" />
</g>
</svg>
