<?xml version="1.0" encoding="utf-8"?>
<svg version="1.1" id="Layer_1"
xmlns="http://www.w3.org/2000/svg"
xmlns:xlink="http://www.w3.org/1999/xlink"
xmlns:author="http://www.sothink.com"
width="59px" height="61px"
xml:space="preserve">
<g id="766" transform="matrix(1, 0, 0, 1, -0.2, -1.35)">
<path style="fill:#E9E6E3;fill-opacity:1" d="M49.2,11.1L53.2 6.8L53.65 6.65L48.6 22.4L46.55 24.1L49 11.25L49.2 11.1M48.7,11.55L48.9 11.35L48.85 11.55L48.8 11.55L48.7 11.55" />
<path style="fill:#E2E2E2;fill-opacity:1" d="M30.3,37.55L46.55 24.1L45.8 26.4L37.05 33.7L31.2 38.6L30.35 39.35L30.3 39.25L30.3 37.55M30.1,31.3L23.85 31.7L15.4 42.2L14.9 41.45L22.25 31.85L23.85 31.7L38.75 13.3L48.9 11.15L48.95 11.2L49.1 11.1L49.15 11.1L49.2 11.1L49 11.25L48.9 11.35L48.7 11.55L48.8 11.55L43.85 16.5L44.4 16.05L44.45 16.05L31.05 30.3L30.1 31.3" />
<path style="fill:#F5F1EE;fill-opacity:1" d="M48.95,11.15L49 11.1L49.25 11L49.1 11.1L48.95 11.15" />
<path style="fill:#C9C2BE;fill-opacity:1" d="M30.3,37.55L30.3 39.25L20.15 47.65L20.05 47.55L19.2 46.8L30.3 37.55M49.15,11.1L49.1 11.1L49.25 11L49.15 11.1M48.95,11.15L49.1 11.1L48.95 11.2L48.9 11.15L48.95 11.15M49,11.25L46.55 24.1L30.3 37.55L30.05 31.45L30.05 31.4L31.05 30.3L44.45 16.05L44.4 16.05L43.85 16.5L48.8 11.55L48.85 11.55L48.9 11.35L49 11.25M23.85,31.7L30.1 31.3L30 31.4L17.25 44.55L16.35 43.4L15.4 42.2L23.85 31.7" />
<path style="fill:#FFFFFF;fill-opacity:1" d="M46.55,24.1L48.6 22.4L53.65 6.65L53.2 6.8L39.65 12.25L38.75 13.3L23.85 31.7L22.25 31.85Q24.25 29.15 26.9 25.95Q33.8 17.05 36.45 13.85L37.8 12.25Q41.25 10.4 46.7 8.25Q51.75 6 54.85 5.1L55 5.1L55.1 5L52.65 13.65L50.3 21L49.7 23.05L46.5 25.95L45.8 26.4L46.55 24.1" />
<path style="fill:#8A827D;fill-opacity:1" d="M19.2,46.8L18.6 46.1L17.25 44.55L30 31.4L30.05 31.45L30.3 37.55L19.2 46.8M26.95,34.7L26.95 34.75L27.05 34.65L26.95 34.7" />
<path style="fill:#ACA49F;fill-opacity:1" d="M31.05,30.3L30.05 31.4L30.05 31.45L30 31.4L30.1 31.3L31.05 30.3M27.05,34.65L26.95 34.75L26.95 34.7L27.05 34.65" />
<path style="fill:#D9AB31;fill-opacity:1" d="M10,44.3L10.05 44.3L10.05 44.55L10.85 44.5L11.15 44.65L11.7 44.55L11.75 44.1L11.9 44L12.05 44.05L12.2 43.55L12.35 43.4L12.7 43.4L12.75 43.45L12.75 43.9L12.65 44.25L12.4 44.3L13 44.75Q12.85 44.95 13 45.15L13.45 45.2L14.15 46L14.3 45.8L14.45 45.7Q14.95 45.65 14.95 46.1L14.95 46.15L14.4 46.3L14.9 46.95L15.75 48.05L16.55 49L17.95 50.6L18.65 51.35Q18.45 52.05 19.2 51.85L19.35 51.95L18.7 52.6L17.3 53.95L16.4 54.55L15.5 53.75L14.65 52.85L14.35 52.6L12 49.95L11.65 49.5L10.95 48.65L8.6 45.9L8.35 45.55Q9 44.45 10 44.3M11.45,42.9L11.5 42.95L11.6 42.95L11.55 43.1L11.5 43.5L10.85 43.55L10.75 43.55L10.75 43.25L11.05 42.9L11.45 42.9M11,46.1Q11.25 45.7 10.9 45.55Q10.45 45.9 10.95 46.1L11 46.1M11.3,46.3Q11.3 47.25 12.4 46.85L12.4 46.8Q12.5 45.8 11.45 46.15L11.3 46.3M12.4,49.5L15.2 52.55L16.35 53.65L18.3 52.05L17.45 50.95L15.9 49L14.5 47.35L13.55 46.55L14 48.5Q13.95 48.45 13.9 48.55L13.85 48.6L13.85 49L13.45 48.85L13.15 48.75L12.8 48.6Q12.7 48.8 11.6 48.25Q10.5 47.55 12.3 49.3L12.4 49.5" />
<path style="fill:#FFF16A;fill-opacity:1" d="M8.35,45.55L8.05 45.15L9.2 43.95Q9.65 43.25 10.25 42.65L10.45 42.45Q11.35 41.4 11.6 41.4L12.25 41.95L13.8 43.9L13.9 44.05L15.6 46.2L15.7 46.35L15.85 46.35L15.9 46.45L17.35 48.3L18.05 49.1L18.9 50.2L19.85 51.4L19.35 51.95L19.2 51.85Q18.45 52.05 18.65 51.35L17.95 50.6L16.55 49L15.75 48.05L14.9 46.95L14.4 46.3L14.95 46.15L14.95 46.1Q14.95 45.65 14.45 45.7L14.3 45.8L14.15 46L13.45 45.2L13 45.15Q12.85 44.95 13 44.75L12.4 44.3L12.65 44.25L12.75 43.9L12.75 43.45L12.7 43.4L12.35 43.4L12.2 43.55L12.05 44.05L11.9 44L11.75 44.1L11.7 44.55L11.15 44.65L10.85 44.5L10.05 44.55L10.05 44.3L10 44.3Q9 44.45 8.35 45.55M11.05,42.9L10.75 43.25L10.75 43.55L10.85 43.55L11.5 43.5L11.55 43.1L11.6 42.95L11.5 42.95L11.45 42.9L11.05 42.9M10.95,46.1Q10.45 45.9 10.9 45.55Q11.25 45.7 11 46.1L10.95 46.1" />
<path style="fill:#513422;fill-opacity:1" d="M4.8,57.4L6.15 56.1L7.15 55.1L7.4 54.8L7.55 54.5L8.05 53.45L7.3 52.25L7.05 51.85L6.5 51.15L8.3 49.3L8.35 49.3L10.4 51.6L10.9 52.25L12.05 53.65L12.2 53.85L12.1 53.9L11 55L10.05 56.05L8.8 57.25Q6.5 59.4 5.5 59.55L3.6 58.35L4.8 57.4" />
<path style="fill:#805A43;fill-opacity:1" d="M2.7,57L4.55 55L6.15 53.35L7.3 52.25L8.05 53.45L7.55 54.5L7.4 54.8L7.15 55.1L6.15 56.1L4.8 57.4L3.6 58.35L3.3 58.05L3.15 57.9L2.7 57" />
<path style="fill:#C4855D;fill-opacity:1" d="M7.05,51.85L7.3 52.25L6.15 53.35L4.55 55L2.7 57Q2.5 56.2 2.95 55.45Q3.5 54.15 5.25 52.5L5.65 52L6.5 51.15L7.05 51.85" />
<path style="fill:#C26F1E;fill-opacity:1" d="M11.45,46.15Q12.5 45.8 12.4 46.8L12.4 46.85Q11.3 47.25 11.3 46.3L11.45 46.15M12.3,49.3Q10.5 47.55 11.6 48.25Q12.7 48.8 12.8 48.6L13.15 48.75L13.45 48.85L13.85 49L13.85 48.6L13.9 48.55Q13.95 48.45 14 48.5L13.55 46.55L14.5 47.35L15.9 49L17.45 50.95L18.3 52.05L16.35 53.65L15.2 52.55L12.4 49.5L12.3 49.3" />
<path style="fill:#F0EEEE;fill-opacity:1" d="M48.9,11.15L38.75 13.3L39.65 12.25L53.2 6.8L49.2 11.1L49.15 11.1L49.25 11L49 11.1L48.95 11.15L48.9 11.15" />
<path style="fill:#58524E;fill-opacity:1" d="M14.9,41.45L13.6 39.9L36.55 10.05L46.65 5.55L58.3 1.35Q56.25 9.7 53.55 18.3L51.5 24.35L21.65 49.15L21.65 49.3L20.65 48.4L20.05 47.55L20.15 47.65L30.3 39.25L30.35 39.35L31.2 38.6L37.05 33.7L45.8 26.4L46.5 25.95L49.7 23.05L50.3 21L52.65 13.65L55.1 5L55 5.1L54.85 5.1Q51.75 6 46.7 8.25Q41.25 10.4 37.8 12.25L36.45 13.85Q33.8 17.05 26.9 25.95Q24.25 29.15 22.25 31.85L14.9 41.45" />
<path style="fill:#744517;fill-opacity:1" d="M18.6,46.1L19.2 46.8L20.05 47.55L20.65 48.4L21.65 49.3Q21.95 50.5 21.85 51.1L21.2 52.4L19.45 54.45Q18.05 55.7 17.05 56.2L15.4 56.55L13.7 55.35L13.65 55.35L12.1 53.9L12.2 53.85L12.05 53.65L10.9 52.25L10.4 51.6L8.35 49.3L8.3 49.3L6.6 47.35L6.15 46.7Q5.7 46 6.2 44.8Q6.6 43.5 8.85 41.2Q11.1 38.75 12.1 38.95Q12.9 39 13.55 39.75L13.6 39.9L14.9 41.45L15.4 42.2L16.35 43.4L17.25 44.55L18.6 46.1M19.85,51.4L18.9 50.2L18.05 49.1L17.35 48.3L15.9 46.45L15.85 46.35L15.7 46.35L15.6 46.2L13.9 44.05L13.8 43.9L12.25 41.95L11.6 41.4Q11.35 41.4 10.45 42.45L10.25 42.65Q9.65 43.25 9.2 43.95L8.05 45.15L8.35 45.55L8.6 45.9L10.95 48.65L11.65 49.5L12 49.95L14.35 52.6L14.65 52.85L15.5 53.75L16.4 54.55L17.3 53.95L18.7 52.6L19.35 51.95L19.85 51.4" />
<path style="fill:#3C2515;fill-opacity:1" d="M3.15,57.9L3.3 58.05L3.6 58.35L5.5 59.55Q6.5 59.4 8.8 57.25L10.05 56.05L11 55L12.1 53.9L13.65 55.35L13 56.05L9.3 59.45Q6.65 61.75 5.25 61.9L4.8 61.95Q3.3 61.65 2.25 60.65L0.85 59.05L0.3 57.65L0.2 57.05L0.25 56.55L0.6 55.35Q1.15 53.85 3.95 50.85L6.8 47.7L6.6 47.35L8.3 49.3L6.5 51.15L5.65 52L5.25 52.5Q3.5 54.15 2.95 55.45Q2.5 56.2 2.7 57L3.15 57.9" />
</g>
</svg>
