<?xml version="1.0" encoding="utf-8"?>
<svg version="1.1" id="Layer_1"
xmlns="http://www.w3.org/2000/svg"
xmlns:xlink="http://www.w3.org/1999/xlink"
xmlns:author="http://www.sothink.com"
width="143px" height="92px"
xml:space="preserve">
<g id="2790" transform="matrix(1, 0, 0, 1, 98.7, 72.35)">
<path style="fill:#F8F8F8;fill-opacity:1" d="M-8,16.2L-10.35 14.25Q-9.45 14.35 -6.2 12.35Q-2.95 10.45 -1.8 8.05Q-0.75 5.65 -1 4.6Q-1.3 3.4 -2.4 2.4L-3.8 1.5Q-3.55 -1.65 -3.65 -2.65L-3.8 -3.55Q-8.6 -0.75 -10.45 -0.15L-10.45 0.05L-9.8 0.95Q-9.3 1.8 -12.5 3.7Q-12.15 3.5 -10.1 3.7Q-8.05 4.1 -12.5 6.75Q-17 9.4 -20.55 9.15L-15.3 10.6Q-16.5 10.45 -17.5 10.95L-19 11.75L-17.95 12.25Q-17.2 12.6 -17.2 13.1Q-17.2 15.3 -23.9 16L-30.9 16.45L-35.55 14.8L-35.8 14.45L-31.3 14.8L-28.1 14.6Q-28.3 14.35 -29.3 13.9Q-30.4 13.35 -30.5 13.35L-28.7 12.8Q-27.05 12.3 -26.5 12.3L-26.5 11.75L-34.2 9.5Q-39.35 7.9 -40.3 7.3L-38.85 7.65L-32.1 7.95Q-27.65 7.95 -23.7 6.85Q-19.75 5.75 -14.45 2.45Q-20.3 3.75 -26.1 1.95Q-20.9 0.95 -13.55 -1.65L-13.55 -2Q-17.85 -1.7 -22.15 -2.7L-22.15 -2.9Q-11.6 -3.75 -8.05 -8.2Q-11.5 -7.35 -16.2 -8.35L-12.85 -10.75L-10.4 -13.2Q-8.4 -15.25 -8.7 -16.1L-9.35 -16.95Q2.4 -20.4 11.15 -18.7Q20.35 -16.75 15.15 -12.75Q9.95 -8.8 13.95 -6.65Q17.9 -4.65 18.45 -2.4Q13.3 7.95 4.95 13.7Q1.1 16.35 -4 17.7Q-6.35 17.25 -8 16.2M-16.75,-7.55Q-15.8 -7.8 -15.2 -7.05L-15.15 -7Q-16.2 -5.7 -17.05 -7.15Q-17.15 -7.55 -16.75 -7.55M-7.3,8.4Q-8.05 7.85 -7.3 7.45Q-6.1 7 -5.25 7.75L-5.15 7.85Q-5.95 9.55 -7.3 8.4M-27.5,4.4Q-29.5 5.55 -31.45 4.2Q-31.8 3.95 -31.3 3.9Q-29.05 3 -27.5 4.3L-27.5 4.4M-40.5,10.75Q-43.15 11.1 -45.7 9.95L-45.65 9.55L-45.4 9.3L-45.15 9.1Q-42.5 9.25 -40.5 10.6L-40.5 10.75" />
<path style="fill:#E6B0F0;fill-opacity:1" d="M-65.05,5.5L-56.5 6.05L-43.35 5.35Q-44.8 5.35 -47.9 4.2Q-51.05 3 -52.45 1.85L-43.45 1.55Q-34.1 1.25 -30.7 -0.65L-35.25 -0.85Q-38.65 -1.45 -40.5 -2L-32.35 -3.4Q-23.55 -5.3 -20.25 -8Q-27.2 -7 -32 -8.3Q-24.25 -10.3 -21.15 -13.6L-16.1 -14.7Q-12.6 -16.1 -9.35 -16.95L-8.7 -16.1Q-8.4 -15.25 -10.4 -13.2L-12.85 -10.75L-16.2 -8.35Q-11.5 -7.35 -8.05 -8.2Q-11.6 -3.75 -22.15 -2.9L-22.15 -2.7Q-17.85 -1.7 -13.55 -2L-13.55 -1.65Q-20.9 0.95 -26.1 1.95Q-20.3 3.75 -14.45 2.45Q-19.75 5.75 -23.7 6.85Q-27.65 7.95 -32.1 7.95L-38.85 7.65L-40.3 7.3Q-39.35 7.9 -34.2 9.5L-26.5 11.75L-26.5 12.3Q-27.05 12.3 -28.7 12.8L-30.5 13.35Q-30.4 13.35 -29.3 13.9Q-28.3 14.35 -28.1 14.6L-31.3 14.8L-35.8 14.45L-35.55 14.8L-30.9 16.45L-23.9 16Q-17.2 15.3 -17.2 13.1Q-17.2 12.6 -17.95 12.25L-19 11.75L-17.5 10.95Q-16.5 10.45 -15.3 10.6L-20.55 9.15Q-17 9.4 -12.5 6.75Q-8.05 4.1 -10.1 3.7Q-12.15 3.5 -12.5 3.7Q-9.3 1.8 -9.8 0.95L-10.45 0.05L-10.45 -0.15Q-8.6 -0.75 -3.8 -3.55L-3.65 -2.65Q-3.55 -1.65 -3.8 1.5L-2.4 2.4Q-1.3 3.4 -1 4.6Q-0.75 5.65 -1.8 8.05Q-2.95 10.45 -6.2 12.35Q-9.45 14.35 -10.35 14.25L-8 16.2Q-6.35 17.25 -4 17.7Q-10 19.25 -17.85 19L-23.9 18.65L-41.05 16.45Q-58.25 9.55 -65.05 5.5M-17.05,-7.15Q-16.2 -5.7 -15.15 -7L-15.2 -7.05Q-15.8 -7.8 -16.75 -7.55Q-17.15 -7.55 -17.05 -7.15M-5.15,7.85L-5.25 7.75Q-6.1 7 -7.3 7.45Q-8.05 7.85 -7.3 8.4Q-5.95 9.55 -5.15 7.85M-27.5,4.3Q-29.05 3 -31.3 3.9Q-31.8 3.95 -31.45 4.2Q-29.5 5.55 -27.5 4.4L-27.5 4.3M-40.5,10.6Q-42.5 9.25 -45.15 9.1L-45.4 9.3L-45.65 9.55L-45.7 9.95Q-43.15 11.1 -40.5 10.75L-40.5 10.6" />
<path style="fill:#AF21F3;fill-opacity:1" d="M-41.05,16.45L-47.35 15.25Q-62.6 11.8 -77.45 4.65Q-88.4 -0.65 -95.5 -6.55Q-85.5 -1.9 -67.6 -2.4Q-72.35 -3.9 -74.9 -5.7L-69.7 -4.8Q-63.95 -4.1 -60.85 -4.8Q-63.85 -5.8 -66.05 -8.2Q-64.9 -7.6 -61.2 -7.65Q-57.55 -7.8 -56.05 -8.7Q-63.1 -12.45 -67.65 -16.35L-62.7 -15.05Q-57 -13.2 -44.75 -11.95Q-34.5 -10.85 -21.15 -13.6Q-24.25 -10.3 -32 -8.3Q-27.2 -7 -20.25 -8Q-23.55 -5.3 -32.35 -3.4L-40.5 -2Q-38.65 -1.45 -35.25 -0.85L-30.7 -0.65Q-34.1 1.25 -43.45 1.55L-52.45 1.85Q-51.05 3 -47.9 4.2Q-44.8 5.35 -43.35 5.35L-56.5 6.05L-65.05 5.5Q-58.25 9.55 -41.05 16.45" />
<path style="fill:#F8F8F8;fill-opacity:0.2" d="M29.2,7.6Q36.35 11.75 43.65 14.75Q25.45 18.35 4.35 18.35Q-14.9 18.35 -31.75 15.35L-32.7 15.15Q-68.5 3.65 -78.15 -12.35L-77.05 -11.55L-72.05 -8.25Q-64.25 -3.5 -55.7 0.2Q-45.5 4.6 -35.75 6.65L-17.45 8.8L-11.3 8.55L-5.25 7.65Q-24.2 6 -43.45 -0.35Q-58 -5.15 -67.3 -11.35L-66.4 -11.25L-61.85 -10.95L-54.65 -10.8L-52.2 -10.95Q-25.45 -12.4 3.95 -27.9L3.95 -27.5Q2.75 -7.6 29.2 7.6M-82.65,-34.4Q-78.15 -50.5 -55.7 -57.8Q-44.2 -61.5 -33.2 -62.6Q-53.4 -40.15 -26.15 -33.8Q-18.25 -31.95 -8.8 -31.65Q-24.15 -23 -51.05 -20.7L-71.7 -20L-76.4 -20.2Q-81.7 -26.65 -82.65 -34.4" />
<path style="fill:#AF21F3;fill-opacity:0.701961" d="M-76.4,-20.2Q-72.55 -15.45 -66.6 -11.35L-66.4 -11.25L-67.3 -11.35Q-58 -5.15 -43.45 -0.35Q-24.2 6 -5.25 7.65L-11.3 8.55L-17.45 8.8L-35.75 6.65Q-45.1 4.5 -55 0.2Q-63.55 -3.5 -71.45 -8.25L-77.55 -12.35L-77.05 -11.55L-78.15 -12.35Q-68.5 3.65 -32.7 15.15Q-52.2 11.4 -68.25 3.65Q-98.65 -10.95 -98.7 -31.65Q-98.85 -52.35 -68.55 -67.1Q-62.35 -70.1 -55.75 -72.35Q-71.8 -63.85 -78.45 -53.2Q-81.9 -47.8 -82.6 -42.1L-82.85 -36.3L-82.85 -33.65L-82.65 -34.4Q-81.7 -26.65 -76.4 -20.2" />
<path style="fill:#E6B0F0;fill-opacity:0.501961" d="M-66.6,-11.35Q-72.55 -15.45 -76.4 -20.2L-71.7 -20L-51.05 -20.7Q-24.15 -23 -8.8 -31.65Q-2.25 -31.45 5.1 -32L4.55 -27.9L3.95 -27.5L3.95 -27.9Q-25.45 -12.4 -52.2 -10.95L-54.65 -10.8L-61.85 -10.95L-66.6 -11.35" />
</g>
</svg>
