<?xml version="1.0" encoding="utf-8"?>
<svg version="1.1" id="Layer_1"
xmlns="http://www.w3.org/2000/svg"
xmlns:xlink="http://www.w3.org/1999/xlink"
xmlns:author="http://www.sothink.com"
width="30px" height="51px"
xml:space="preserve">
<g id="485" transform="matrix(1, 0, 0, 1, -1.75, 1.25)">
<path style="fill:#D0A15B;fill-opacity:1" d="M11.95,12.25Q9.45 11.1 8.25 8.55L8 7.85L8 7.8Q8.85 9 11.3 10L14.4 10.95L15.15 11L15.8 11.15L15.8 11.25L15.25 11.95L14.95 12.25L13.75 13.15L11.95 12.25M27.8,32.5L27.1 33.5L27.3 33.7L28.3 33.5L29 35.1L29.2 35.65L29.3 38Q29.2 40.8 27.6 42.15Q27.75 40.8 27.1 39.05Q28.85 35.8 25.45 33Q26.8 29.75 21.6 27Q22 24.5 20.8 23.05Q19.6 21.5 16.75 21.05L16.35 21L15.6 20.75Q15.25 20.5 15.15 19.8L15.15 19.75L15 18.8L17.55 19.05Q18.1 19 16.85 18.35Q15.55 17.7 13.9 16.15Q12.1 14.55 11.35 13.2L11.6 13.25L12.85 13.35L12.95 13.4L13.1 13.4L20.1 18.7L20.2 18.75L22.75 21.3Q24.3 23.35 25.05 25.6Q25.85 28.15 27.8 32.45L27.8 32.5M21.65,45.4Q22.35 44.75 22.6 43.2L22.8 43.1L22.75 43.1L24.95 41.55L25 41.55L25.8 40.8Q26.1 41.75 25.55 43.55Q24.9 45.55 22.55 46.45L19.2 47.25L17.7 47.35L15.2 47.25L15.2 47.2L15.15 47.05L15.1 47L16.1 46.95Q18.9 46.75 20.45 46.15L21.65 45.4M18,29.2L18 28.7Q17.9 26.3 16.65 25.2Q15.3 24.05 15.3 23.5L14.85 22.6L15.15 22.6L16.6 22.8Q18.15 23.15 18.7 23.55Q20.2 24.8 20.05 26.55Q19.9 28.3 18.3 29.05L18.25 29.15L18 29.2M19.3,30.65L19.95 30.3L19.9 30.3L21.1 29.05L21.3 28.5Q22.2 28.75 23.05 29.5Q23.95 30.3 23.9 32Q23.85 33.5 21.85 34.95Q21.05 32.7 19.3 30.65M22.85,40.1Q22.85 38.25 22.4 36.45L22.45 36.45L22.6 36.4L24.95 33.9Q27.4 37.9 22.85 40.9L22.85 40.1" />
<path style="fill:#E9CB9E;fill-opacity:1" d="M14.4,10.95L11.3 10Q8.85 9 8 7.8L8 7.65L7.9 6.1Q7.9 4.7 9.05 3.9Q10.25 3.1 11.85 3.1L11.95 3.1Q14.15 4.85 14.85 7.6Q15.3 9.4 15.15 11L14.4 10.95M27.8,32.45Q25.85 28.15 25.05 25.6Q24.3 23.35 22.75 21.3L20.2 18.75L20.1 18.7L13.1 13.4L13.55 13.4L14 13.35L13.75 13.15L14.95 12.25L15.25 11.95L15.8 11.25Q16.5 13.1 18.05 14.9Q19.6 16.75 23.95 20.45Q26.85 22.9 28.4 24.7L28.6 26.75Q28.6 29.95 28.15 31.6L27.8 32.45M14.8,25.2Q16.85 27.15 16.85 29.5L16.85 29.7Q14.15 30.65 10.05 30.2Q9.7 30.15 9.6 30.45L9.45 30.5L9.35 30.6L9.35 30.8L9.45 30.95Q13.25 32.4 17 31.5L17.05 31.5L17.45 31.4Q18.2 31.7 19 32.75Q20.25 34.4 20.25 35.8L20.25 36Q18.25 37.05 15.4 37.6L12.4 38.1L11.75 37.8L11.55 37.75L11.4 37.9Q11.3 37.95 11.35 38.1L11.5 38.25Q14.1 39.55 17.5 38.7L17.55 38.7L20.3 37.75L20.75 39.05L21.25 41.5L21.25 41.75Q17.7 43.5 13.45 42.8L13.45 42.75L13.25 42.6L13.1 42.65L12.95 42.8L12.9 43.15L12.9 43.5L13 43.85L13.25 44.15L13.3 44.15Q16.05 45.1 19.7 44.25L20.9 43.9L20.65 45.4L20.45 46.15Q18.9 46.75 16.1 46.95L15.1 47L15 46.95L14.15 46.8L12.05 45.95L10.15 44.7L12 44.7L12.15 44.65L12.25 44.5Q12.4 44.05 10.65 43.4L10.65 43.35L9.05 42.35L8.85 42.15Q8.85 40.7 8 38.15L8.4 38.1L8.55 38.05L8.65 37.95L8.65 37.8L8.55 37.65L7.8 37.25L7.85 37.25L7.55 37.05L5.7 33.25L5.7 32.05L7.9 31.85L7.9 31.4L7 29.75Q6.05 28.35 6.05 27.45Q6.05 26.7 9.25 22.55L10.3 21.25L10.7 21.1Q12.1 20.6 13.05 20.65L13.2 20.6L13.3 20.5L13.35 20.5L13.9 21.2L13.45 21.15L13.1 21.15Q11.45 21.25 9.9 22Q9.15 22.35 9.45 23.2L9.55 23.4L9.75 23.45L10.1 23.6L11.3 23.2L11.5 23.1Q13.35 23.8 14.8 25.2M28.35,33.4Q28.95 34.3 29.2 35.65L29 35.1L28.3 33.5L28.35 33.4" />
<path style="fill:#F5E0BF;fill-opacity:1" d="M7.9,7.6L7.5 6.45Q7.15 5.1 7.25 3.95L7.45 3Q8.2 0.65 11.15 2.5L11.95 3.1L11.85 3.1Q10.25 3.1 9.05 3.9Q7.9 4.7 7.9 6.1L8 7.65L8 7.8L8 7.85L7.95 7.7L7.9 7.6M15.8,11.15L16 10.8L16.05 10.8L16.35 10Q16.65 11.7 17.8 13.15Q19.5 15.2 22.4 16.9L25.9 19.85Q27.85 21.75 28.4 24.7Q26.85 22.9 23.95 20.45Q19.6 16.75 18.05 14.9Q16.5 13.1 15.8 11.25L15.8 11.15M5.55,35.5Q4 34.2 3.85 32.75Q3.75 31.4 4.8 30.65L7 30.85L7.15 30.75L7.2 30.55L7.1 30.4L5.9 29.4Q3.3 27.2 5 25.05Q6.8 22.8 9.4 21.65L10.3 21.25L9.25 22.55Q6.05 26.7 6.05 27.45Q6.05 28.35 7 29.75L7.9 31.4L7.9 31.85L5.7 32.05L5.7 33.25L7.55 37.05L5.55 35.5M7.95,41.05L6.35 38.15L7.9 38.15L8 38.15Q8.85 40.7 8.85 42.15L7.95 41.05M20.45,46.15L20.65 45.4L20.9 43.9L21 43.85L21.9 43.55L22 43.55L22.6 43.2Q22.35 44.75 21.65 45.4L20.45 46.15M22.85,40.9L22.55 41.05L22.45 41.15L21.25 41.75L21.25 41.5L20.75 39.05L20.3 37.75L22.1 36.7L22.2 36.55L22.15 36.35L22.25 36.35L22.4 36.45Q22.85 38.25 22.85 40.1L22.85 40.9M21.85,34.95L21.55 35.25L21.5 35.3L20.25 36L20.25 35.8Q20.25 34.4 19 32.75Q18.2 31.7 17.45 31.4L19.05 30.75L19.15 30.75L19.3 30.65Q21.05 32.7 21.85 34.95M16.85,29.7L16.85 29.5Q16.85 27.15 14.8 25.2Q13.35 23.8 11.5 23.1L14.35 22.65L14.85 22.6L15.3 23.5Q15.3 24.05 16.65 25.2Q17.9 26.3 18 28.7L18 29.2L16.85 29.7" />
<path style="fill:#87532A;fill-opacity:1" d="M29.05,31.95L28.15 31.6Q28.6 29.95 28.6 26.75L28.4 24.7Q27.85 21.75 25.9 19.85L22.4 16.9Q19.5 15.2 17.8 13.15Q16.65 11.7 16.35 10L16.05 10.8L16 10.8L15.8 11.15L15.15 11Q15.3 9.4 14.85 7.6Q14.15 4.85 11.95 3.1L11.15 2.5Q8.2 0.65 7.45 3L7.25 3.95Q7.15 5.1 7.5 6.45L7.9 7.6L6.2 7L6.2 7.05L6 7.15L5.85 7.15L5.7 6.95L5.7 6.9L5.75 6.9L5.7 6.8Q5.55 6.75 5.5 5.25Q5.4 3.7 5.75 2.25Q6.1 0.75 7.1 -0.35Q8.05 -1.5 9.9 -1.15Q11.7 -0.75 12.95 0.2Q14.15 1.15 15.3 2.95Q16.45 4.7 17.1 8Q20.85 13.55 21.65 14.15L22.8 14.95L26 17.45Q28.8 19.65 29.75 22.75Q30.65 25.8 30.45 27.95Q30.25 30.1 29.5 32L29.65 32.3Q29.45 32.05 29.05 31.95M15.15,47.05L15.2 47.2L15.2 47.25L15.15 47.35L15.05 47.45L12.05 48.2L11.25 48.3L11.35 48.35L11.3 48.35L11.2 48.35L11.15 48.35L11.1 48.3L11.05 48.25L10.95 48.2L10.85 48.15L9.95 47.4L9.8 47.35L9.2 46.75L8.5 45.95L7.7 44.75L7.65 44.65L7.2 43.85L5.65 41.3Q4.4 39.25 3.95 37.15L4 37.2L3.9 36.95Q2.7 35.8 2.1 33.75Q1.3 30.95 2.25 30.05L2.7 29.65Q1.8 28.9 1.85 27Q1.85 24.9 4.45 22.55Q6.9 20.2 9.5 19.45L9.5 19.5Q11.3 18.85 12.25 18.85L12.3 18.85L12.4 18.9L12.5 19L12.55 19.1L12.7 19.35L13.25 20.25L13.3 20.45L13.3 20.5L13.2 20.6L13.05 20.65Q12.1 20.6 10.7 21.1L10.3 21.25L9.4 21.65Q6.8 22.8 5 25.05Q3.3 27.2 5.9 29.4L7.1 30.4L7.2 30.55L7.15 30.75L7 30.85L4.8 30.65Q3.75 31.4 3.85 32.75Q4 34.2 5.55 35.5L7.55 37.05L7.85 37.25L7.8 37.25L8.55 37.65L8.65 37.8L8.65 37.95L8.55 38.05L8.4 38.1L8 38.15L7.9 38.15L6.35 38.15L7.95 41.05L8.85 42.15L9.05 42.35L10.65 43.35L10.65 43.4Q12.4 44.05 12.25 44.5L12.15 44.65L12 44.7L10.15 44.7L12.05 45.95L14.15 46.8L15 46.95L15.1 47L15.15 47.05M14.35,22.65L11.5 23.1L11.3 23.2L10.1 23.6L9.75 23.45L9.55 23.4L9.45 23.2Q9.15 22.35 9.9 22Q11.45 21.25 13.1 21.15L13.45 21.15L14.35 22.65M20.9,43.9L19.7 44.25Q16.05 45.1 13.3 44.15L13.25 44.15L13 43.85L12.9 43.5L12.9 43.15L12.95 42.8L13.1 42.65L13.25 42.6L13.45 42.75L13.45 42.8Q17.7 43.5 21.25 41.75L22.45 41.15L22.2 42.1L22 42.95L21.75 43.1L21.7 43.1L21.75 43.1L21.95 43.1L22.1 43.2L22.1 43.4L21.95 43.55L21.9 43.55L21 43.85L20.9 43.9M21.5,35.3L21.9 36.25L22 36.25L22.15 36.35L22.2 36.55L22.1 36.7L20.3 37.75L17.55 38.7L17.5 38.7Q14.1 39.55 11.5 38.25L11.35 38.1Q11.3 37.95 11.4 37.9L11.55 37.75L11.75 37.8L12.4 38.1L15.4 37.6Q18.25 37.05 20.25 36L21.5 35.3M17.45,31.4L17.05 31.5L17 31.5Q13.25 32.4 9.45 30.95L9.35 30.8L9.35 30.6L9.45 30.5L9.6 30.45Q9.7 30.15 10.05 30.2Q14.15 30.65 16.85 29.7L18 29.2L18.25 29.15L18.9 30.3L19.1 30.3L19.25 30.4L19.25 30.6L19.1 30.75L19.05 30.75L17.45 31.4M18.85,30.3L18.9 30.3L18.85 30.3" />
<path style="fill:#663B1A;fill-opacity:1" d="M28.3,33.5L27.3 33.7L27.1 33.5L27.8 32.5L27.8 32.45L28.15 31.6L29.05 31.95Q29.45 32.05 29.65 32.3L29.85 32.75Q31.45 35.5 31.35 37.55Q31.2 39.55 30.45 41.3Q29.65 43.05 28.65 43.95L26.9 45.85Q26.15 46.8 23.8 48.15Q21.4 49.5 17.45 49.7Q13.5 49.85 11.35 48.35L11.25 48.3L12.05 48.2L15.05 47.45L15.15 47.35L15.2 47.25L17.7 47.35L19.2 47.25L22.55 46.45Q24.9 45.55 25.55 43.55Q26.1 41.75 25.8 40.8L25 41.55L24.95 41.55L22.75 43.1L22.8 43.1L22.6 43.2L22 43.55L21.9 43.55L21.95 43.55L22.1 43.4L22.1 43.2L21.95 43.1L21.75 43.1L21.7 43.1L21.75 43.1L22 42.95L22.2 42.1L22.45 41.15L22.55 41.05L22.85 40.9Q27.4 37.9 24.95 33.9L22.6 36.4L22.45 36.45L22.4 36.45L22.25 36.35L22.15 36.35L22 36.25L21.9 36.25L21.5 35.3L21.55 35.25L21.85 34.95Q23.85 33.5 23.9 32Q23.95 30.3 23.05 29.5Q22.2 28.75 21.3 28.5L21.1 29.05L19.9 30.3L19.95 30.3L19.3 30.65L19.15 30.75L19.05 30.75L19.1 30.75L19.25 30.6L19.25 30.4L19.1 30.3L18.9 30.3L18.25 29.15L18.3 29.05Q19.9 28.3 20.05 26.55Q20.2 24.8 18.7 23.55Q18.15 23.15 16.6 22.8L15.15 22.6L14.85 22.6L14.35 22.65L13.45 21.15L13.9 21.2L13.35 20.5L13.3 20.5L13.3 20.45L13.25 20.25L12.7 19.35L12.55 19.1L12.5 19L12.4 18.9L12.3 18.85L12.5 18.85L12.55 18.55L12.8 17.75L11.65 16.65L11.6 16.65Q10.4 15.2 9.6 13.4L9.4 12.65Q6.75 11.1 5.7 7.15L5.7 7.05L5.7 6.95L5.85 7.15L6 7.15L6.2 7.05L6.2 7L7.9 7.6L7.95 7.7L8 7.85L8.25 8.55Q9.45 11.1 11.95 12.25L13.75 13.15L14 13.35L13.55 13.4L13.1 13.4L12.95 13.4L12.85 13.35L11.6 13.25L11.35 13.2Q12.1 14.55 13.9 16.15Q15.55 17.7 16.85 18.35Q18.1 19 17.55 19.05L15 18.8L15.15 19.75L15.15 19.8Q15.25 20.5 15.6 20.75L16.35 21L16.75 21.05Q19.6 21.5 20.8 23.05Q22 24.5 21.6 27Q26.8 29.75 25.45 33Q28.85 35.8 27.1 39.05Q27.75 40.8 27.6 42.15Q29.2 40.8 29.3 38L29.2 35.65Q28.95 34.3 28.35 33.4L28.3 33.5M11.15,48.35L11.05 48.25L11.1 48.3L11.15 48.35M18.9,30.3L18.85 30.3L18.9 30.3" />
</g>
</svg>
