<?xml version="1.0" encoding="utf-8"?>
<svg version="1.1" id="Layer_1"
xmlns="http://www.w3.org/2000/svg"
xmlns:xlink="http://www.w3.org/1999/xlink"
xmlns:author="http://www.sothink.com"
width="156px" height="134px"
xml:space="preserve">
<g id="931" transform="matrix(1, 0, 0, 1, 0, 0)">
<path style="fill:#CDBBF5;fill-opacity:0.6" d="M131.85,19.05Q136.9 24.1 140.6 29.75L140.5 30Q140.05 30.75 138.25 30.75L136.6 30.7Q133.35 26.05 129.15 21.85Q125.55 18.25 121.65 15.35L121.5 13.75Q121.5 12.25 121.75 12L123.1 11.6Q127.65 14.85 131.85 19.05" />
<path style="fill:#6A5F9B;fill-opacity:0.501961" d="M85.4,3.75Q64.95 3.75 49.3 15.25Q50.55 12 51.85 9.3Q66.85 0 85.75 0Q106.85 0 123.1 11.6L121.75 12Q121.5 12.25 121.5 13.75L121.65 15.35Q105.95 3.75 85.4 3.75" />
<path style="fill:#774B8A;fill-opacity:0.501961" d="M136.6,30.7L138.25 30.75Q140.05 30.75 140.5 30L140.6 29.75Q150.95 45.35 150.95 65.25Q150.95 69.15 150.55 72.9L149.9 77.7L148.95 81.95Q148.8 72.95 148.35 68.1Q148 64.45 147.15 60.6Q145.9 43.95 136.6 30.7" />
<path style="fill:#F0F344;fill-opacity:1" d="M96,32.95Q95.8 34.1 95 35.55Q93.7 37.75 91.75 37.75Q90.7 37.75 89.75 37.25Q88.75 36.7 88.75 36Q88.75 35.55 89.25 34.55Q89.75 33.6 89.75 32.5L89.5 31.4L89.25 30.25Q89.25 29.6 90 28.75Q90.85 27.75 92.1 27.75Q93.75 27.75 94.55 29.35L96 32.95" />
<path style="fill:#AC6015;fill-opacity:0.501961" d="M69.2,47.05L67.6 42.7Q64.25 34.3 64.25 30.65Q64.25 30 65.5 29.25Q66.75 28.5 67.65 28.5Q70.7 28.5 77.05 35.4L83.35 42.25L84.5 42.05L85 44.5L86.5 44.5Q86.45 46 86 48.05L85.5 50.65L85.5 53Q85.75 53.75 87.6 53.75Q88.55 53.75 88.9 52.15Q89.35 50.4 91.25 50L94.4 49.85Q96 49.7 96 48.5Q96 48 92.35 45.8Q89.5 44.1 87.85 43.65L88.05 42.9L88.25 41.75L88.25 41.25L88.5 41.25Q95.35 41.25 97.8 46.3Q100 50.9 99 61Q98.85 62.65 102 65.5Q102.75 66.2 102.85 67.95L103 71L103.85 76.45L104.5 82Q104.5 85.4 101.25 88Q98.4 90.25 95.85 90.25L90.65 89.75L90.25 88.5L91.15 87.9Q91.75 87.5 91.75 87Q91.75 86.15 88.9 84.55L86.5 83.35L85.95 84.45Q85.45 85.45 85.5 85.75Q83.45 85.35 81 85.75L81.4 86.85L73.75 83.5Q71.4 82.55 70.35 79.1Q69.45 74.8 68.75 72.75Q68.45 71.85 65.8 68.3Q64 65.95 63.6 64.05L64 64.25L65.75 64.25Q66.65 63 68.8 61.2Q71 59.4 72 58L75.15 54.8Q77.75 52.05 77.75 50.75Q77.75 48.8 73.5 47.8L69.2 47.05M92.85,51Q91.5 51 91 52.5Q90.75 53.25 90.75 54.15Q90.75 55.9 91.5 57Q92.3 58.25 93.85 58.25Q94.95 58.25 95.25 57.75L95.5 55.75L95.25 53.7Q94.9 52.8 92.9 51L92.85 51M87.75,55.5Q86 55.5 86 56.75L86.75 57.75L88.75 57.75L88.75 56.25L88.05 55.55L87.75 55.5M82.75,60Q83.6 60 84 59L84.25 57.6Q84.25 56.8 83.6 56.4L82.25 56.5Q81.25 57.5 81.25 58.75Q81.25 60 82.75 60M89,59.3L88 61Q88 61.5 89.35 61.95L91 62.25L91.25 61.25Q91.25 60.25 90.25 59.7L89 59.3M90.6,67Q92.5 67 92.5 65.75Q92.5 64.65 91.8 63.95L91.2 63.55L89.7 64.95Q88.8 65.85 88.75 66.75L90.6 67M86.7,62.9L86.5 62.7L86 63.25Q85.5 64 85.5 64.25Q85.5 65.35 87 65.25L87.25 64.25Q87.25 63.5 86.7 62.9M96.5,73.75Q96.5 75.9 96.75 76.25Q97.1 76.75 99.1 76.75L100.75 76.5L101 75Q101 72.85 99.45 71.8L98.4 71.25L98.25 71.25Q96.75 71.25 96.5 72Q96.35 72.45 96.5 73.75M75.45,41Q75.15 41.25 75.05 41.65L75 42.65Q75 43.5 75.25 44Q76.5 43.7 76.5 42.75Q76.5 41.75 75.55 41.05L75.45 41M80,47L80 45.75L79.5 45.25L78.9 44.9Q78 45.2 78 46L78.15 46.55L78.5 47L80 47M71.6,65.3L71.5 65.75Q71.5 66.1 72.75 66.75L74.75 66.75Q74.95 65.2 73.6 65L72.5 64.95L72.1 64.95L71.6 65.3M72.7,72.9L74 74L75.25 74L75.5 72.75Q75.5 71.7 73.9 70.9L72.6 70.4L72.5 70.75L72.5 71.85L72.7 72.9M73.5,74.25L72.9 74.25L72 74.25L71.75 76Q71.75 77.3 72.25 77.75L73.25 78Q74.6 78 74.75 76.35Q74.75 75.65 73.75 74.8L73.5 74.25" />
<path style="fill:#FFD235;fill-opacity:1" d="M86.5,44.5L87.5 44.5L87.85 43.65Q89.5 44.1 92.35 45.8Q96 48 96 48.5Q96 49.7 94.4 49.85L91.25 50Q89.35 50.4 88.9 52.15Q88.55 53.75 87.6 53.75Q85.75 53.75 85.5 53L85.5 50.65L86 48.05Q86.45 46 86.5 44.5M104.5,69.85L104.65 69.15L104.75 68.75L105 68.75L106.1 69L106.4 69.15Q106.75 69.45 106.75 70L106.5 70.75L105.75 71.25Q104.5 71.25 104.5 69.85M92.9,51Q94.9 52.8 95.25 53.7L95.5 55.75L95.25 57.75Q94.95 58.25 93.85 58.25Q92.3 58.25 91.5 57Q90.75 55.9 90.75 54.15Q90.75 53.25 91 52.5Q91.5 51 92.85 51L92.9 51M90.25,59.7Q91.25 60.25 91.25 61.25L91 62.25L89.35 61.95Q88 61.5 88 61L89 59.3L90.25 59.7M88.75,66.75Q88.8 65.85 89.7 64.95L91.2 63.55L91.8 63.95Q92.5 64.65 92.5 65.75Q92.5 67 90.6 67L88.75 66.75M87.25,64.25L87 65.25Q85.5 65.35 85.5 64.25Q85.5 64 86 63.25L86.5 62.7L86.7 62.9Q87.25 63.5 87.25 64.25" />
<path style="fill:#FDFF49;fill-opacity:1" d="M116,24.75Q117.7 24.75 120.45 26.35Q123.6 28.2 123.25 30L120.5 30.5L120.5 31.75L121.1 33.25L121.25 34.4Q121.6 36.5 120.1 36.5Q119.5 36.5 118 35.4Q116.5 34.25 116 34.25L111.7 33.85Q111 33.5 111 32L112 28.35Q113.15 24.75 114.1 24.75L114.7 24.9L114.75 24.85L116 24.75" />
<path style="fill:#FFD567;fill-opacity:1" d="M88.05,55.55L88.75 56.25L88.75 57.75L86.75 57.75L86 56.75Q86 55.5 87.75 55.5L88.05 55.55M81.25,58.75Q81.25 57.5 82.25 56.5L83.6 56.4Q84.25 56.8 84.25 57.6L84 59Q83.6 60 82.75 60Q81.25 60 81.25 58.75" />
<path style="fill:#FFEC69;fill-opacity:1" d="M96.5,72Q96.75 71.25 98.25 71.25L98.4 71.25L99.45 71.8Q101 72.85 101 75L100.75 76.5L99.1 76.75Q97.1 76.75 96.75 76.25Q96.5 75.9 96.5 73.75Q96.35 72.45 96.5 72" />
<path style="fill:#FEF981;fill-opacity:1" d="M81,85.75Q83.45 85.35 85.5 85.75Q85.45 85.45 85.95 84.45L86.5 83.35L88.9 84.55Q91.75 86.15 91.75 87Q91.75 87.5 91.15 87.9L90.25 88.5L90.65 89.75L90.75 90L91.25 91.25Q90.55 93.5 89.25 93.5Q88.25 93.5 84.95 90.7Q82.3 88.45 81.4 86.85L81 85.75" />
<path style="fill:#C8A25B;fill-opacity:1" d="M108.25,77.25L106.25 77.25L105.5 76.25Q105.5 75.7 106 75L106.85 74.3L108.25 75.25L108.25 77.25M110.25,83.5Q109.3 83.5 109 83Q108.75 82.6 108.75 81.6L109 79.85Q109.65 80.05 110.5 80.75L111.5 81.75L111.25 82.75Q110.9 83.5 110.25 83.5" />
<path style="fill:#F0E444;fill-opacity:1" d="M109.4,86.4Q110 87.1 110 88.75Q110 90.45 109.5 91.25Q109 92 107.85 92L106 91.75Q104.5 91.35 104.5 90.5Q104.5 90.1 106.25 88Q107.75 86.2 108.6 85.85L109.4 86.4" />
<path style="fill:#364B8E;fill-opacity:0.501961" d="M125.45,112.8L125.5 112.75L129.15 109.35Q147.3 91.3 147.3 65.65L147.15 60.6Q148 64.45 148.35 68.1Q148.8 72.95 148.95 81.95Q144.75 98.45 131.85 111.35L127.75 115.15Q125.6 117 123.35 118.65Q125.2 115.65 125.45 112.8" />
<path style="fill:#FEE557;fill-opacity:1" d="M150.55,72.9Q151.75 73 152.95 73.7Q155.75 75.4 155.75 80Q155.75 84.5 153.75 84.5Q152.55 84.5 151.25 81.4L149.9 77.7L150.55 72.9" />
<path style="fill:#B6D1EF;fill-opacity:0.501961" d="M20.65,60.95Q22.05 36.65 39.6 19.05Q45.35 13.3 51.85 9.3Q50.55 12 49.3 15.25Q45.3 18.15 41.6 21.85Q26 37.45 23.85 58.75L20.65 60.95M52.9,121.8Q45.85 117.6 39.6 111.35Q25.25 97 21.7 78.15L24.05 74.3Q26.6 94.4 41.6 109.35Q46.2 113.95 51.3 117.4L52.9 121.8" />
<path style="fill:#AEA26E;fill-opacity:1" d="M57.8,35.5Q59 36.5 59 38L58.75 39Q57.8 39.3 57.05 38.3Q56.5 37.55 56.5 36.9Q56.5 35.6 57.8 35.5" />
<path style="fill:#C9B554;fill-opacity:1" d="M44.15,34L45.95 34.05L46.7 34.35L46.8 34.6L47 35.9Q47 37.2 45.75 40Q44.3 43.25 42.9 43.25Q39.5 43.25 39.5 38.15Q39.5 35.95 40.5 35Q41.45 34.1 43.8 34L44.15 34" />
<path style="fill:#F0FF7D;fill-opacity:1" d="M73.5,47.8Q77.75 48.8 77.75 50.75Q77.75 52.05 75.15 54.8L72 58Q71 59.4 68.8 61.2Q66.65 63 65.75 64.25L64 64.25L63.6 64.05L61.8 62.75L60 61.25Q62 59.25 61.95 57.5L62.25 56.85L63.5 54.25Q65.35 51.25 69 53L69 50Q68.5 49 68.5 48.15Q68.5 47.25 68.75 47L69.2 47.05L73.5 47.8" />
<path style="fill:#FFF533;fill-opacity:1" d="M25.55,12.15L27.25 13.05L27.35 13.35Q28 14.85 28 15.9Q28 17.55 26.5 20.75Q24.65 24.75 22.4 24.75Q21.35 24.75 21 23.75Q20.75 23.1 20.75 21.65Q20.75 18.75 21.25 16Q22.1 11.5 23.9 11.5L25.55 12.15" />
<path style="fill:#F4FF4D;fill-opacity:1" d="M37,45.25L39.2 45.65L41 48.4Q43.25 51.5 43.25 52.75L43.1 54L41 54.25Q39.95 54.2 38.65 54.85Q37.3 55.5 36.75 55.5L36.6 54.1L36.55 53.75L36.25 52.5L34.7 51.25L32.75 49.75L32.75 46.25Q35.95 45.25 37 45.25" />
<path style="fill:#5E8393;fill-opacity:0.501961" d="M21.7,78.15L21.3 75.85L21.5 75.75Q22.75 75.2 22.75 73.35Q22.75 72.4 21.45 70.65L20.65 69.5L20.6 68.3L20.5 65.25Q20.5 63.05 20.65 60.95L23.85 58.75Q23.5 62.15 23.5 65.65Q23.5 70.05 24.05 74.3L21.7 78.15" />
<path style="fill:#F9FF67;fill-opacity:1" d="M13.3,64.3Q15 64.7 16.7 65.6L17.1 65.8L18.85 66.9L20.65 69.5L21.45 70.65Q22.75 72.4 22.75 73.35Q22.75 75.2 21.5 75.75L21.3 75.85L16.75 76.25L13.1 76.2Q11.4 75.95 10.75 74.75L9.75 73L9.9 73Q12.15 73 14 71.5Q15.75 70.1 15.75 68.6Q15.75 67.75 13.6 64.75L13.3 64.3" />
<path style="fill:#FFDEDC;fill-opacity:1" d="M13.6,64.75Q15.75 67.75 15.75 68.6Q15.75 70.1 14 71.5Q12.15 73 9.9 73L9.75 73L7.5 70.2Q6 68.55 6 67.25Q6 65.9 7.25 65Q8.6 64 10.65 64L13.3 64.3L13.6 64.75" />
<path style="fill:#FFF14C;fill-opacity:1" d="M2.4,96.5Q0 96.3 0 95Q0 94.25 0.5 93.5Q1.15 92.5 2.15 92.5L3.15 92.7Q3.75 93.75 3.75 95Q3.75 96.5 2.4 96.5" />
<path style="fill:#D1C55F;fill-opacity:1" d="M14,94.5Q13.2 93 12.1 92.3Q11.45 91.9 10 91.25L11.75 89.9L12.95 88.9Q13.75 89 14.2 89.35Q15.25 90.15 15.25 92.35L15.15 93.45Q14.95 94.2 14 94.5" />
<path style="fill:#FFE36A;fill-opacity:1" d="M63.65,70.3Q65.75 71.1 65.75 74L65.65 75.7Q65.4 76.3 64.25 76Q64.25 75.1 63.65 73.6L63 72.1Q63 71.1 63.15 70.8L63.65 70.3M58.1,66.35Q57 66 57 65.75L57.25 64.55Q58.2 64.65 59.6 65.3Q61.65 66.2 62 67.25L60.5 67.25Q59.7 66.85 58.1 66.35M60.5,69.8L60.85 70.25L60.1 74.3Q59.65 75.5 57.5 75.5Q55.85 75.5 55.75 69.6Q55.75 68.9 56.75 68.75L57.9 68.75Q59.5 68.75 60.5 69.8M52.9,80.8Q54.1 83.2 55.25 88L55 89.5Q54.35 89 50.35 87.6Q48.25 86.85 48.25 84Q48.25 82.2 48.5 81.75Q49 80.75 51 80.75L52.9 80.8" />
<path style="fill:#FFBF7A;fill-opacity:1" d="M72.1,64.95L72.5 64.95L73.6 65Q74.95 65.2 74.75 66.75L72.75 66.75Q71.5 66.1 71.5 65.75L71.6 65.3L72.1 64.95M72.5,71.85L72.5 70.75L72.6 70.4L73.9 70.9Q75.5 71.7 75.5 72.75L75.25 74L74 74L72.7 72.9L72.5 71.85M73.75,74.8Q74.75 75.65 74.75 76.35Q74.6 78 73.25 78L72.25 77.75Q71.75 77.3 71.75 76L72 74.25L72.9 74.25L73.75 74.8" />
<path style="fill:#E3CE59;fill-opacity:1" d="M79.6,88.8Q80.25 89.25 80.25 90.85L80.25 91.75Q80.1 92.25 79.25 92.25Q78.7 92.25 78.25 91.75Q77.75 91.15 77.75 90.25Q77.75 89.1 78.45 88.35L79.6 88.8" />
<path style="fill:#F7FB9A;fill-opacity:1" d="M61.5,106.85Q61.2 107.05 61 107.5L61.9 107.95L62.75 108.5L62.75 111.25L61.5 111.25Q61 109.7 58.25 108.75Q55.75 107.9 55.75 106.5Q55.75 105.35 56.85 104.95L58.65 104.65L60.25 104.8Q62.35 104.95 62 106.5L61.5 106.85" />
<path style="fill:#FFFD42;fill-opacity:1" d="M76.2,117.55Q74.25 115.85 74.25 114.6Q74.25 113.85 75.75 112.25Q77.4 110.5 78.75 110.5Q79.8 110.5 83 114L84.3 115.5L85.15 116.6L85.95 117.75Q87.25 119.7 87.25 120.1Q87.25 124.25 83.85 124.25Q81.65 124.25 80.95 123.15Q80.25 121.45 79.25 120.25L76.2 117.55M109.7,99.95Q111.25 101.75 111.25 103.5Q108 112.5 105 112.5Q103.5 112.5 101.75 111.25Q99.75 109.8 99.75 108.1Q99.75 106.2 102 102.75Q104.55 98.75 107.1 98.75Q107.7 98.75 108.2 99.05L109.55 99.75L109.7 99.95" />
<path style="fill:#929EC4;fill-opacity:0.2" d="M51.3,117.4Q66.25 127.5 85.4 127.5Q108.5 127.5 125.45 112.8Q125.2 115.65 123.35 118.65Q107 130.45 85.75 130.45Q67.5 130.45 52.9 121.8L51.3 117.4" />
<path style="fill:#FFFF4B;fill-opacity:1" d="M22.6,115.05L23.25 115.3Q25 115.95 25.5 116.5L27.5 119.15L29 121.5L33.25 127L37.75 132.75Q37.5 132.75 37.5 133L34.5 133Q26.15 127.65 24.95 126.35Q22.5 123.75 22.5 118L22.55 115.45L22.6 115.05" />
<path style="fill:#FFFF81;fill-opacity:1" d="M23.25,108.25Q22.6 109.5 21.65 109.5Q19.45 109.5 16 107.25Q12.5 104.95 12.5 103.35Q12.5 101.5 16 101.5L17.5 101.6Q23.75 104.55 23.75 106.5Q23.75 107.25 23.25 108.25" />
<path style="fill:#FEFF3F;fill-opacity:1" d="M124.85,118.9L128.85 118.15L129 119.5Q129 123.95 126.75 128Q123.65 133.5 117.85 133.5L115.5 133.25Q115.25 133.05 115.25 131.5Q115.25 129.6 115.95 129.2Q117.5 128.4 119.25 125.5Q120.55 123.3 122.65 120.95L123.5 120.1Q124.25 119.35 124.85 118.9" />
</g>
</svg>
