<?xml version="1.0" encoding="utf-8"?>
<svg version="1.1" id="Layer_1"
xmlns="http://www.w3.org/2000/svg"
xmlns:xlink="http://www.w3.org/1999/xlink"
xmlns:author="http://www.sothink.com"
width="16px" height="19px"
xml:space="preserve">
<g id="1640" transform="matrix(1, 0, 0, 1, 0, 0)">
<path style="fill:#9CEAF6;fill-opacity:0.501961" d="M10.2,3.6L9.35 3.55Q8.9 3.75 8.8 4.35Q8.65 4.85 8.95 5Q12.05 6.9 10.4 3.6L10.2 3.6M7.45,14L7.35 13.9L7.2 14L7.5 12.45L6.25 13.2L8.1 9.25L6.15 10.6L6.15 10.3L6.1 10.3L5.8 10.5L5.7 10.35L5.5 10.35L5.3 10.8L4.8 11.5L1.55 13.7L2.1 11.5L2.35 11.35L2.5 9.7L3.3 6.5L7.95 2.25L10.45 1.8L13.85 6.5L10.85 10L10.95 9.4L10.85 9.3L10.1 9.2L9.75 9.4Q8.3 10.9 8.45 12.6L8.6 12.65L7.45 14M12.05,7.2Q14.75 6.55 11.95 5Q10.8 5.7 11.55 6.85Q11.75 7.3 12.05 7.2M4.05,10.4Q6.1 8.8 4.9 7.15Q3 8.6 3.9 10.45L4.05 10.4M6.1,6.95Q8.15 6.1 6.65 4.85Q5.45 5.35 5.7 6.7Q5.8 7.05 6.1 6.95M7.7,14.3L8.9 13.25L7.85 14.55L7.7 14.3" />
<path style="fill:#CBFFFF;fill-opacity:0.74902" d="M10.4,3.6Q12.05 6.9 8.95 5Q8.65 4.85 8.8 4.35Q8.9 3.75 9.35 3.55L10.2 3.6L10.4 3.6M8.7,12.6L8.6 12.65L8.45 12.6Q8.3 10.9 9.75 9.4L10.1 9.2L10.85 9.3L10.95 9.4L10.85 10Q10.45 11.75 8.7 12.6M11.55,6.85Q10.8 5.7 11.95 5Q14.75 6.55 12.05 7.2Q11.75 7.3 11.55 6.85M1.65,17.9Q1.85 16.05 3.65 15.15Q5.1 17.25 2.75 18.2L1.65 17.9M3.9,10.45Q3 8.6 4.9 7.15Q6.1 8.8 4.05 10.4L3.9 10.45" />
<path style="fill:#D0FCFC;fill-opacity:0.901961" d="M7.45,14L8.6 12.65L8.7 12.6Q10.45 11.75 10.85 10L13.85 6.5L10.45 1.8L7.95 2.25L10.45 0L15.6 6.05L14.6 7Q12.05 9 9.95 11.85L8.9 13.25L7.7 14.3L7.45 14" />
<path style="fill:#3F94BB;fill-opacity:0.701961" d="M1.8,8.5L2.05 7.55L3 4.95L3 6.75L3.3 6.5L2.5 9.7Q2.35 9 1.8 8.5M4.65,12.1L4.5 12.6L4.95 12.65Q4.85 13 5.1 13Q5.45 13.05 5.6 12.75L6.15 10.6L8.1 9.25L6.25 13.2L7.5 12.45L7.2 14Q6.25 14.7 6.1 15.6L6.1 15.65L6.1 15.85L6.15 16.45L4.25 18.3L3.1 18.3L2.75 18.2Q5.1 17.25 3.65 15.15Q1.85 16.05 1.65 17.9L0.6 17.55L0.05 16.9Q-0.05 16.1 0.1 15.35L1.2 10.65L1.95 11.4L2.1 11.5L1.55 13.7L4.8 11.5L4.65 12.1" />
<path style="fill:#7CBFD0;fill-opacity:1" d="M1.8,8.5Q2.35 9 2.5 9.7L2.35 11.35L2.1 11.5L1.95 11.4L1.2 10.65L1.8 8.5" />
<path style="fill:#81C3D3;fill-opacity:1" d="M4.8,11.5L5.3 10.8L5.5 10.35L5.7 10.35L5.8 10.5L6.1 10.3L6.15 10.3L6.15 10.6L5.6 12.75Q5.45 13.05 5.1 13Q4.85 13 4.95 12.65L4.5 12.6L4.65 12.1L4.8 11.5M5.35,12.1Q5.3 12.75 5.4 12.1L5.35 12.1" />
<path style="fill:#62B3C4;fill-opacity:0.701961" d="M7.7,14.3L7.85 14.55L6.15 16.45L6.1 15.85L6.1 15.65L6.1 15.6Q6.25 14.7 7.2 14L7.35 13.9L7.45 14L7.7 14.3M5.7,6.7Q5.45 5.35 6.65 4.85Q8.15 6.1 6.1 6.95Q5.8 7.05 5.7 6.7" />
</g>
</svg>
