<?xml version="1.0" encoding="utf-8"?>
<svg version="1.1" id="Layer_1"
xmlns="http://www.w3.org/2000/svg"
xmlns:xlink="http://www.w3.org/1999/xlink"
xmlns:author="http://www.sothink.com"
width="16px" height="17px"
xml:space="preserve">
<g id="1426" transform="matrix(1, 0, 0, 1, 2.5, 1)">
<path style="fill:#312D23;fill-opacity:1" d="M11.75,5.5L11.85 4.2L11.3 2.5L11.2 2.3L10.45 1.15L9.7 0.6L9.3 0.4Q8.5 2.3 7.55 3.3L6.35 2.95Q7.5 1.95 8.5 -0.85L8.75 -0.95L8.75 -1Q10.15 -0.9 11.1 0.2Q14.15 3.55 11.9 6.75L11.8 6.85L11.7 6.8L11.3 6.2L11.75 5.5" />
<path style="fill:#9D8E79;fill-opacity:1" d="M9.7,0.6L10.45 1.15L11.2 2.3L11.3 2.5L11.85 4.2L11.8 4.3L10.9 5.75L10.5 5.35L9.85 4.65L9.15 4.1Q8.95 3.95 7.45 5L9.55 2.2L9.7 0.6" />
<path style="fill:#F0EAC6;fill-opacity:1" d="M9.55,2.2L7.45 5Q8.05 3.45 7.55 3.3Q8.5 2.3 9.3 0.4L9.7 0.6L9.55 2.2M11.8,4.3L11.85 4.2L11.75 5.5L11.3 6.2L10.9 5.75L11.8 4.3" />
<path style="fill:#BF6F21;fill-opacity:1" d="M1.55,5Q2.7 6.15 4 6.7Q2.55 7.8 1.8 8.9Q-1.95 5.75 -1.05 3.65Q-0.8 2.65 0.05 2.35Q0.35 3.95 1.55 5" />
<path style="fill:#D49E36;fill-opacity:1" d="M0.05,2.35L2 2.2Q3.85 2.65 5.15 3.75Q6.1 4.65 6.05 5.25L4 6.7Q2.7 6.15 1.55 5Q0.35 3.95 0.05 2.35" />
<path style="fill:#852C0B;fill-opacity:1" d="M5.15,3.75Q3.85 2.65 2 2.2L0.05 2.35Q-0.8 2.65 -1.05 3.65Q-1.95 5.75 1.8 8.9L1.15 9.7L0.55 9.25L-1.1 7.95Q-2.25 6.9 -2.45 5.1Q-2.7 3.25 -1.9 2.25Q-1.15 1.2 -0.6 1.1Q2.95 0.15 7.2 4.75L6.05 5.25Q6.1 4.65 5.15 3.75" />
<path style="fill:#BF6F21;fill-opacity:1" d="M2.6,6.9Q1.5 4.4 2.6 3.4Q3.1 2.85 3.65 2.7Q3.4 3.6 3.8 4.3Q4.2 5.2 5 5.7Q3.5 6.3 2.6 6.9" />
<path style="fill:#D49E36;fill-opacity:1" d="M5,5.7Q4.2 5.2 3.8 4.3Q3.4 3.6 3.65 2.7Q4.25 2.5 4.9 2.7Q6.15 3.05 6.8 3.85Q7.4 4.55 7.15 4.9L5 5.7" />
<path style="fill:#852C0B;fill-opacity:1" d="M2.6,3.4Q1.5 4.4 2.6 6.9Q2.3 7 1.7 7.45Q1.45 7.2 0.95 5.65Q0.7 4.75 0.95 4Q1.15 3.35 1.75 2.85Q2.95 1.65 3.95 1.6L4.65 1.6L6.15 2Q7.2 2.4 7.8 3.25L8.6 4.7L7.15 4.9Q7.4 4.55 6.8 3.85Q6.15 3.05 4.9 2.7Q4.25 2.5 3.65 2.7Q3.1 2.85 2.6 3.4" />
<path style="fill:#200C27;fill-opacity:1" d="M12.9,6.95Q13.4 8.65 12.85 10.4Q12.25 12.15 10.5 13.7Q8.75 15.25 6.1 15.3Q3.4 15.3 2.05 14.05Q0.7 12.8 0.65 11.5Q0.55 10.2 1 8.95Q1.4 7.7 1.7 7.45L2.4 6.75L4.45 5.25L6.35 4.2L7.75 3.95L9.4 4.05Q10.1 4.1 11.25 4.7Q12.4 5.25 12.9 6.95M1.95,10.35Q1.4 12.4 3.7 13.6L8.35 13.5L8.55 13.35Q11.15 11.9 11.8 9.3L11.95 8.3Q11.1 9.45 8.35 10.9L8.3 10.95L7.8 11.2Q5.15 12.25 1.95 10.35M2.15,9.3Q4.55 10.85 6.6 10.45Q7.6 10.3 8.75 9.65Q10.25 8.75 11.7 7.35Q11.45 5.75 9.65 5.3L6.3 5.55Q4.7 6.25 3.8 7.15Q2.9 8 2.25 9.1L2.15 9.3" />
<path style="fill:#512A70;fill-opacity:1" d="M8.35,13.5L3.7 13.6Q1.4 12.4 1.95 10.35Q5.15 12.25 7.8 11.2L7.8 11.45L8 12.7L8.35 13.5M8.75,9.65Q7.6 10.3 6.6 10.45Q4.55 10.85 2.15 9.3L2.25 9.1Q4.5 7.4 6.55 7.4L8.2 7.65Q8.8 7.95 8.8 8.8L8.75 9.65" />
<path style="fill:#7E52A1;fill-opacity:1" d="M8,12.7L7.8 11.45L7.8 11.2L8.3 10.95L8.35 10.9Q11.1 9.45 11.95 8.3L11.8 9.3Q11.15 11.9 8.55 13.35L8.35 13.5L8 12.7M8.8,8.8Q8.8 7.95 8.2 7.65L6.55 7.4Q4.5 7.4 2.25 9.1Q2.9 8 3.8 7.15Q4.7 6.25 6.3 5.55L9.65 5.3Q11.45 5.75 11.7 7.35Q10.25 8.75 8.75 9.65L8.8 8.8" />
</g>
</svg>
