<?xml version="1.0" encoding="utf-8"?>
<svg version="1.1" id="Layer_1"
xmlns="http://www.w3.org/2000/svg"
xmlns:xlink="http://www.w3.org/1999/xlink"
xmlns:author="http://www.sothink.com"
width="30px" height="41px"
xml:space="preserve">
<g id="869" transform="matrix(1, 0, 0, 1, 0.45, 0.35)">
<path style="fill:#D25BFF;fill-opacity:1" d="M10.65,-0.35Q11.35 1.5 11.2 2.7Q11.05 3.95 10.05 4.75L9.3 5.7Q7.55 7.7 6.35 10.3Q6.3 10.55 6.05 10.3Q4.2 7.85 5.45 5Q6.35 2.35 8.75 0.4Q9.1 -0.05 10.35 -0.35L10.65 -0.35M3.75,32.3Q2 31.65 0.85 31L0.1 29.4L-0.45 26.65Q-0.25 22.4 2.5 19.55L3.1 19.6L3.05 20.3Q3.65 20.4 3.6 20.65Q6.65 18.05 7.05 14.6Q7.4 14.4 7.45 13.65L9.9 13.75Q13.65 15.4 15.35 19.1L16.45 19.95Q17.4 17.1 18.95 14.3Q20.85 11.25 20.65 7.8Q19.85 3.95 21.15 3.6Q27.15 6.55 27.05 12.75Q27.3 15.8 26.4 18.15Q25.6 22.3 29.3 24.45L29.15 25.9L28.8 28.85L27.65 30.95L26.85 32.35L26.5 32.55L24.75 34.6L25.2 33.4Q25.5 30.95 24.55 28.6L22.55 24.85Q21.3 22.75 20.85 21.45L21.1 19.25Q20.7 20.15 20.65 20.65Q19.4 23.5 18.1 24.15Q17.1 24.95 16.35 26.15Q15.6 27.3 15.8 28.05L14.9 27.95Q13.5 26.8 12.2 24.9L10.9 23.3Q10 23.15 9.5 24.6Q8.7 26.2 8.55 27.45L7.2 26.3L6.4 25.25Q6.1 25.4 5.55 27.1L4.9 29.95Q4.6 32.65 6.1 35.35Q4.45 33.9 3.75 32.3M9.7,2.5L9.8 1.8Q8.15 2.55 7.05 4.15Q6 5.3 5.9 6.5Q6.65 5.15 8 4.05Q8.7 3.4 9.6 3.25L9.7 2.5M14.25,23.15Q16.2 22.15 13.85 21.6Q11.95 21.9 13.05 23Q13.55 23.8 14.25 23.15M25.25,25.45L23.75 25.25L23.6 26.25L24.2 26.55L25.1 26.45L25.25 25.45" />
<path style="fill:#A02FF5;fill-opacity:1" d="M0.85,31Q2 31.65 3.75 32.3Q4.45 33.9 6.1 35.35Q8.05 36.85 10.1 37.8Q17.9 41 23.05 36.35L24.45 34.75L24.75 34.6L26.5 32.55L26.85 32.35L27.65 30.95L28.8 28.85Q28.6 30.55 28.85 31.05Q29.3 32.15 28.2 33.75Q27.75 34.95 22.75 38.55Q18.1 42.2 10.6 38.6L9.15 38.2Q8.55 37.85 8.25 37.8Q3.4 35.25 0.85 31M9.6,3.25Q8.7 3.4 8 4.05Q6.65 5.15 5.9 6.5Q6 5.3 7.05 4.15Q8.15 2.55 9.8 1.8L9.7 2.5L9.6 3.25" />
<path style="fill:#FBDBFF;fill-opacity:1" d="M24.45,34.75L23.05 36.35Q17.9 41 10.1 37.8Q8.05 36.85 6.1 35.35Q4.6 32.65 4.9 29.95L5.55 27.1Q6.1 25.4 6.4 25.25L7.2 26.3L8.55 27.45Q8.7 26.2 9.5 24.6Q10 23.15 10.9 23.3L12.2 24.9Q13.5 26.8 14.9 27.95L15.8 28.05Q15.6 27.3 16.35 26.15Q17.1 24.95 18.1 24.15Q19.4 23.5 20.65 20.65Q20.7 20.15 21.1 19.25L20.85 21.45Q21.3 22.75 22.55 24.85L24.55 28.6Q25.5 30.95 25.2 33.4L24.75 34.6L24.45 34.75M13.05,23Q11.95 21.9 13.85 21.6Q16.2 22.15 14.25 23.15Q13.55 23.8 13.05 23M25.1,26.45L24.2 26.55L23.6 26.25L23.75 25.25L25.25 25.45L25.1 26.45" />
</g>
</svg>
