<?xml version="1.0" encoding="utf-8"?>
<svg version="1.1" id="Layer_1"
xmlns="http://www.w3.org/2000/svg"
xmlns:xlink="http://www.w3.org/1999/xlink"
xmlns:author="http://www.sothink.com"
width="25px" height="24px"
xml:space="preserve">
<g id="1341" transform="matrix(1, 0, 0, 1, 3.1, 2.45)">
<path style="fill:#3A3634;fill-opacity:1" d="M11.65,-1.85L11.9 -0.55L12.25 -0.45Q13.8 -2.1 14.7 -2.45L14.8 -2.35L14.95 -1.3L14.95 1.4L15.05 1.5Q17.8 4.2 17.8 8.1L17.8 8.7L19.5 9.6L20.65 10.25L21.3 10.7Q21.5 10.95 21.2 11.25L21.1 11.35L19 12.25L16.55 12.85L15.15 14.6L15.05 14.7L12.6 16.6L12.7 20.35L12.6 20.65Q12.35 21 11.8 20.5L8.85 17.4L8.45 17.4Q6.6 17.4 5.05 16.8L2.2 19.15Q0.85 20.1 0.2 20.15L0.15 19.8L0.1 19.25L0.1 18.95L0.3 17.35Q0.65 15.25 1.35 14.1Q-0.85 11.55 -0.85 8.1L-0.9 6.45L-2.85 4.15L-3.05 3.7L-2.45 3.7L-0.05 3.85L0 3.85L-0.1 3.6L-0.45 2.75L-0.5 1.85L-0.25 1.65L-0.15 1.6L-0.1 1.6L0.1 1.65L0.4 1.75L1.25 2.15L1.85 1.5Q4.6 -1.2 8.45 -1.2L10.95 -0.9L11.3 -1.5L11.3 -1.55L11.45 -1.75L11.55 -1.85L11.65 -1.85M12.85,-0.1L14.35 0.85Q14.3 -0.55 14.4 -1.5L12.85 -0.1M0.05,8.1Q0.05 11.15 1.95 13.4L3.65 13.45L3.8 13.5L4.25 13.7L4.35 13.75L4.7 14.05Q5.55 14.75 5.6 16.1L8.45 16.55L9.95 16.45L10.35 16.35L10.55 16.3L11.35 16.05L13.2 15.15L14.45 14.05L15.65 12.7L15.35 12.55Q14.5 11.8 14.45 10.7L14.45 10.25L14.5 9.85L14.55 9.6L14.8 9.05Q15 8.65 15.35 8.35L15.9 7.95L16.9 8.15L16.9 8.1Q16.9 4.6 14.45 2.15Q13.4 1.1 12.15 0.5L12.95 4.3L13 4.6L12.85 5Q12.55 5.35 11.6 5.7Q10.7 5.95 9.9 5.7L9.65 5.6L9.35 5.45Q8.4 4.85 8.25 3.8L8.3 3.25L10.45 -0.1L8.45 -0.35Q4.95 -0.35 2.5 2.15L2.15 2.55L5.1 3.9L5.45 4.6L5.55 5.55L5.05 6.95L4.85 7.25Q3.85 8.5 1.95 7.9L1.85 7.85L1.55 7.15L0.6 5.1L0.45 5.45L0.3 6.15Q0.05 7.05 0.05 8.1M8.65,15.3L7.75 14.3Q6.45 12.9 6.25 11.8Q6.05 10.95 6.55 10.25L6.9 9.8L7.55 9.3L8.75 9.15L8.95 9.15Q10.05 9.45 10.6 10.1Q11.15 10.7 10.9 11.95L10.15 14.75L9.95 15.4L9.9 15.7L9.85 15.75L9.65 16.35L9.35 16.05L8.65 15.3M9.9,2.15L9.1 3.4L9.15 3.95L9.65 4.55L10.15 4.9Q11.05 5.35 12.15 4.6L12.1 4.4L11.95 3.4L11.8 2.8L11.3 0.2Q11.25 -0.05 11.1 0.2L10.9 0.5L10.45 1.2L9.9 2.15M15.3,9.8Q15.05 10.4 15.35 11.1L15.9 11.95L17.3 11.75L19.5 11.2L20 11L20.05 10.9L19.95 10.75L19.9 10.7L18.55 9.95L16.2 8.8L15.7 9.25L15.3 9.8M2.55,7.35L3.65 7Q4.7 6.5 4.75 5.4L4.75 5.1L4.6 4.45L0.75 2.7L0.25 2.45L0.25 2.55L1.2 4.6L2.55 7.35M9.45,14.95L9.55 14.65L9.7 13.8L10.2 11.5Q10.35 10.95 9.95 10.45L8.85 9.85L8.15 9.85Q7.75 9.95 7.45 10.2L7.4 10.25L7.25 10.45Q6.9 10.95 6.95 11.35L7.05 12.05L7.45 12.9L9 14.5L9.45 14.95M4.55,16.15L4.35 15.1L3.55 14.45L2.6 14.1Q2.3 14.05 2.2 14.35L1.8 15.2Q1.55 15.8 1.25 17.15L1.1 17.8L0.95 18.45L0.9 19.1L1.25 18.85L4.55 16.15M9.9,17.4L12 19.85L12 19.6L11.95 16.95L11.2 17.1L9.9 17.4M-0.25,4.55L-1.15 4.45L-1.9 4.35L-0.6 5.7L-0.35 4.95L-0.25 4.55" />
<path style="fill:#ACA49F;fill-opacity:1" d="M9.35,16.05L9.65 16.35L9.85 15.75L9.9 15.7L9.95 15.4L11.65 15.35L13.2 15.15L11.35 16.05L10.55 16.3L10.35 16.35L9.95 16.45L8.45 16.55L5.6 16.1Q5.55 14.75 4.7 14.05L4.35 13.75L4.25 13.7L3.8 13.5L3.65 13.45L1.95 13.4Q0.05 11.15 0.05 8.1Q0.05 7.05 0.3 6.15Q1.2 10.6 4.9 13.95Q6.55 15 8.65 15.3L9.35 16.05M10.45,4.05L11.2 1.75L11.8 2.8L11.95 3.4L12.1 4.4L10.45 4.05M9.65,4.55L9.15 3.95L9.1 3.4L9.9 2.15L10.45 1.2Q9.8 3.25 9.65 4.55M20,11L19.5 11.2L17.3 11.75L15.9 11.95L15.35 11.1L20 11M15.3,9.8L15.7 9.25L18.35 10.2L19.7 10.75L17.85 10.9Q15.75 10.75 15.3 9.8M4.75,5.1L4.75 5.4Q3.75 6.3 3.25 5.8L1.4 3.5L3.7 4.55L4.75 5.1M3.65,7L2.55 7.35L1.2 4.6Q2.55 6.45 3.65 7M8.45,13.6L9 14.5L7.45 12.9L7.05 12.05L6.95 11.35Q6.9 10.95 7.25 10.45L7.4 10.25Q7.4 11.65 8.45 13.6M8.1,10.3L8.7 10.5L9.5 11.3L9.7 13.8L9.55 14.65L8.8 13.2Q8 11.35 8.1 10.3M1.25,18.85Q3.15 17.15 4.2 15.5L4.35 15.1L4.55 16.15L1.25 18.85M2.2,14.35L3 14.6Q3.35 14.95 1.3 17.5L1.1 17.8L1.25 17.15Q1.55 15.8 1.8 15.2L2.2 14.35M11.2,17.1L11.95 16.95L12 19.6Q11.2 18.15 11.2 17.1M-1.15,4.45L-0.25 4.55L-0.35 4.95L-1.15 4.45" />
<path style="fill:#D5D5D7;fill-opacity:1" d="M11.1,0.2Q11.25 -0.05 11.3 0.2L11.8 2.8L11.2 1.75L10.45 4.05L10.4 4L11.1 0.2M19.7,10.75L18.35 10.2L15.7 9.25L16.2 8.8L18.55 9.95L19.9 10.7L19.95 10.75L19.7 10.75M0.75,2.7L4.6 4.45L4.75 5.1L3.7 4.55L1.4 3.5L0.75 2.7M8.15,9.85L8.85 9.85L9.95 10.45Q10.35 10.95 10.2 11.5L9.7 13.8L9.5 11.3L8.7 10.5L8.1 10.3L8.15 9.85M1.1,17.8L1.3 17.5Q3.35 14.95 3 14.6L2.2 14.35Q2.3 14.05 2.6 14.1L3.55 14.45L3.5 14.9Q2.85 16.55 0.95 18.45L1.1 17.8" />
<path style="fill:#766D67;fill-opacity:1" d="M14.4,-1.5Q14.3 -0.55 14.35 0.85L12.85 -0.1L14.4 -1.5M10.4,4L10.45 4.05L12.1 4.4L12.15 4.6Q11.05 5.35 10.15 4.9L9.65 4.55Q9.8 3.25 10.45 1.2L10.9 0.5L11.1 0.2L10.4 4M15.35,11.1Q15.05 10.4 15.3 9.8Q15.75 10.75 17.85 10.9L19.7 10.75L19.95 10.75L20.05 10.9L20 11L15.35 11.1M1.4,3.5L3.25 5.8Q3.75 6.3 4.75 5.4Q4.7 6.5 3.65 7Q2.55 6.45 1.2 4.6L0.25 2.55L0.25 2.45L0.75 2.7L1.4 3.5M8.8,13.2L9.55 14.65L9.45 14.95L9 14.5L8.45 13.6Q7.4 11.65 7.4 10.25L7.45 10.2Q7.75 9.95 8.15 9.85L8.1 10.3Q8 11.35 8.8 13.2M4.35,15.1L4.2 15.5Q3.15 17.15 1.25 18.85L0.9 19.1L0.95 18.45Q2.85 16.55 3.5 14.9L3.55 14.45L4.35 15.1M11.2,17.1Q11.2 18.15 12 19.6L12 19.85L9.9 17.4L11.2 17.1M-0.35,4.95L-0.6 5.7L-1.9 4.35L-1.15 4.45L-0.35 4.95" />
<radialGradient
id="RadialGradID_1572" gradientUnits="userSpaceOnUse" gradientTransform="matrix(0.0104523, 0, 0, 0.0104523, 8.4, 8.05)" spreadMethod ="pad" cx="0" cy="0" r="819.2" fx="0" fy="0" >
<stop  offset="0"  style="stop-color:#C9C9C9;stop-opacity:1" />
<stop  offset="1"  style="stop-color:#766D67;stop-opacity:1" />
</radialGradient>
<path style="fill:url(#RadialGradID_1572) " d="M11.65,15.35L9.95 15.4L10.15 14.75L10.9 11.95Q11.15 10.7 10.6 10.1Q10.05 9.45 8.95 9.15L8.75 9.15L7.55 9.3L6.9 9.8L6.55 10.25Q6.05 10.95 6.25 11.8Q6.45 12.9 7.75 14.3L8.65 15.3Q6.55 15 4.9 13.95Q1.2 10.6 0.3 6.15L0.45 5.45L0.6 5.1L1.55 7.15L1.85 7.85L1.95 7.9Q3.85 8.5 4.85 7.25L5.05 6.95L5.55 5.55L5.45 4.6L5.1 3.9L2.15 2.55L2.5 2.15Q4.95 -0.35 8.45 -0.35L10.45 -0.1L8.3 3.25L8.25 3.8Q8.4 4.85 9.35 5.45L9.65 5.6L9.9 5.7Q10.7 5.95 11.6 5.7Q12.55 5.35 12.85 5L13 4.6L12.95 4.3L12.15 0.5Q13.4 1.1 14.45 2.15Q16.9 4.6 16.9 8.1L16.9 8.15L15.9 7.95L15.35 8.35Q15 8.65 14.8 9.05L14.55 9.6L14.5 9.85L14.45 10.25L14.45 10.7Q14.5 11.8 15.35 12.55L15.65 12.7L14.45 14.05L13.2 15.15L11.65 15.35" />
</g>
</svg>
