<?xml version="1.0" encoding="utf-8"?>
<svg version="1.1" id="Layer_1"
xmlns="http://www.w3.org/2000/svg"
xmlns:xlink="http://www.w3.org/1999/xlink"
xmlns:author="http://www.sothink.com"
width="379px" height="283px"
xml:space="preserve">
<g id="958" transform="matrix(1, 0, 0, 1, 31.6, 53.35)">
<linearGradient
id="LinearGradID_1216" gradientUnits="userSpaceOnUse" gradientTransform="matrix(0, -0.182968, 6.27776, 0, -2881.35, 63.85)" spreadMethod ="pad" x1="-819.2" y1="0" x2="819.2" y2="0" >
<stop  offset="0" style="stop-color:#B68F44;stop-opacity:1" />
<stop  offset="1" style="stop-color:#D7B064;stop-opacity:1" />
</linearGradient>
<path style="fill:url(#LinearGradID_1216) " d="M266.75,-49.95L294.6 -49.95L340.5 -49.95L340.5 223.6L266.75 223.6L266.75 -49.95" />
<linearGradient
id="LinearGradID_1217" gradientUnits="userSpaceOnUse" gradientTransform="matrix(0, -0.182968, 6.27776, 0, -2853.5, 63.85)" spreadMethod ="pad" x1="-819.2" y1="0" x2="819.2" y2="0" >
<stop  offset="0" style="stop-color:#B68F44;stop-opacity:1" />
<stop  offset="1" style="stop-color:#D7B064;stop-opacity:1" />
</linearGradient>
<path style="fill:url(#LinearGradID_1217) " d="M266.75,223.6L-25.85 223.6L-25.85 -49.95L266.75 -49.95L266.75 223.6" />
<path style="fill:none;stroke-width:0.1;stroke-linecap:round;stroke-linejoin:round;stroke-miterlimit:3;stroke:#662616;stroke-opacity:1" d="M294.6,-49.95L340.5 -49.95L340.5 223.6L266.75 223.6L-25.85 223.6L-25.85 -49.95L266.75 -49.95" />
<path style="fill:#E0C287;fill-opacity:1" d="M32.5,-36.8L-8.6 -36.75L-20.8 -36.7L-20.8 -42.7L340.35 -42.7L340.35 -34.3L332.1 -34.45L323.4 -34.45L306 -35.2L285.3 -36.05L266.75 -36.8L266.75 -37.7Q256.5 -37.9 260.6 -37.35L215.4 -36.75L120.25 -36.55L97.4 -36.65L88.5 -36.7L68.15 -36.75L68.4 -37.1L62.7 -36.75L58.65 -36.75Q67.2 -36.25 55.95 -36.55L40.1 -37L32.5 -36.8M64.65,-40.55L67.65 -40.15Q66.25 -40.85 64.65 -40.55M161.05,-39.25Q160.7 -39.7 161.35 -39.95L156.95 -39.85L155.95 -39.95L157.35 -39.6L161.05 -39.25M193.15,-37.25L196.5 -37L196.5 -37.05L196.4 -37.4L193.15 -37.25" />
<linearGradient
id="LinearGradID_1218" gradientUnits="userSpaceOnUse" gradientTransform="matrix(0.00012207, -0.128189, 1.1613, 0.00120544, 67.85, 124.15)" spreadMethod ="pad" x1="-819.2" y1="0" x2="819.2" y2="0" >
<stop  offset="0" style="stop-color:#B1842D;stop-opacity:1" />
<stop  offset="1" style="stop-color:#C69D4E;stop-opacity:1" />
</linearGradient>
<path style="fill:url(#LinearGradID_1218) " d="M12.35,-25.25L71.15 -24.2L97.4 -23.65L99.8 -23.6L99.7 -23.1L97.4 -22.75L74.55 -21.25L71.15 -21.05Q48.45 -19.85 29.3 -21.85Q8.75 -23.95 12.35 -25.25M24.35,-0.2L24.55 0.15L-22.8 2.25L-22.8 0.7L15.25 -2Q20.25 -3.1 24.35 -0.2M118.85,-26.45L115.95 -26.5L118.85 -26.6L118.85 -26.45M110.7,-13.75L110.6 -13.75L106.4 -14Q105.65 -14.6 104.95 -15.65Q104.4 -16.45 105.15 -16.6L110.6 -15.65L112.05 -15.15L111.95 -14.85L110.7 -13.75M127.45,-9.05L129.6 -8.85L129.75 -8.3L127.45 -8.3L127.45 -9.05M153,-1.45Q138.1 -3.2 141.2 -4.35L153 -4.2L200 -3.3L228.65 -2.75L228.6 -2.2L203.45 -0.35L200 -0.2Q177.3 1 158.2 -0.95L153 -1.45M266.75,-17.75L266.75 -17.3L266.8 -17.3Q263.8 -15.2 260.2 -18.35L259.9 -18.6L260.1 -19.4L260.75 -20.45L261.45 -21.05Q264.95 -21.05 268 -19.1L268.3 -18.75L267.8 -18.2L267.3 -17.7L266.75 -17.75M244.55,-5.6L244.9 -5.6L244.9 -5.5L244.55 -5.6M242.7,-6.45L243.85 -6.55Q247.8 -9.25 266.75 -10.1L266.75 -6.5L242.7 -6.45M291.3,-6.5L294.6 -6.65L294.6 -6.5L291.3 -6.5M294.6,-9.9L285.3 -10.15L274.6 -10.35L294.6 -10.45L294.6 -9.9M294.6,-17.75L294.6 -17.3L294.05 -17.5Q292.8 -17.75 294.25 -17.85L294.6 -17.75M266.75,75.95L266.75 77.5L261.75 77.35L247.3 76.8L244.25 76.7L237.25 76.45L238.4 76.35L244.25 76.3L247.3 76.25L261.75 76L266.75 75.95M266.75,120.75L263.6 120.65L263.6 119.4L266.75 119.4L266.75 120.75M280.5,184.95L285.3 184.95L294.6 184.95L294.6 185L279.9 185L280.5 184.95M287.2,13L286.65 13.5Q283.35 17 279.05 13.35L278.75 13.1L278.95 12.7L286.95 12.7L287.2 13M292.8,31.1L294.6 31.05L294.6 31.4L290.35 31.25L292.8 31.1M266.75,28.9Q259.6 27.75 261.85 26.95L294.6 27.45L294.6 28.05L292.8 28L285.3 27.85L266.75 27.45L266.75 28.9M285.8,36.45Q289.25 36.45 292.3 38.4L292.4 38.45L284.35 38.45L284.45 38.1L285.1 37.05L285.8 36.45M266.75,68.5L266.75 69.2L281.2 68.2L280.95 67.95L280.45 67.6L294.6 66.55L294.6 69.2L261.75 70.35L247.3 70.45L244.25 70.45L234.4 70.3L234.4 70.25L244.25 69.75L247.3 69.55L261.75 68.8L266.75 68.5M257.85,91.85L257.5 91.8L257.85 91.8L257.85 91.85M235.25,6.9L233.8 5.3Q233.3 4.45 234 4.3Q237.6 4.5 240.9 5.75L240.8 5.95L239.55 7.15L235.25 6.9M213.35,35.7Q182.25 39.95 154.15 32.75Q152.95 32.45 154.4 32.35L213.15 35.25L213.35 35.7M217.65,41.65L221.5 41.75L231.9 42.15L231.9 42.3L225.4 42.1L221.5 42.25L215.05 42.6Q189.45 43.8 167.55 43.7L153 43.7L102.9 43.8L104.05 43.65Q110.2 39.4 153 39.7Q174.65 39.85 205.7 41.15L217.65 41.65M241.6,94.65L241.5 95.15L216.35 97L212.95 97.2Q190.2 98.35 171.1 96.45Q150.55 94.35 154.1 93L212.95 94.05L241.6 94.65M219.3,136.75L215 136.5L213.55 134.9Q212.95 134.05 213.7 133.9Q217.3 134.15 220.65 135.35L220.5 135.6L219.3 136.75M208.25,127.4L183.1 129.25L179.75 129.4Q157.05 130.6 137.9 128.65Q117.35 126.6 120.95 125.25L179.75 126.3L208.4 126.85L208.25 127.4M224.65,124.1L224.2 124L224.65 124L224.65 124.1M208.05,174.3L146.25 176.5L132.55 176.35L146.25 175.65L198.75 172.2Q203.75 171.1 207.85 174L208.05 174.3M294.6,110.05L294.6 112.7L281.2 113.3Q283.45 112.45 285.05 110.75L294.6 110.05M284.6,142.9L284.15 143.45L283 144.4Q280.75 145.9 278.2 144.4L276.55 143.25L276.25 143Q276.3 142.6 276.5 142.25Q276.7 141.65 277.15 141.2L277.85 140.55Q281.3 140.55 284.35 142.55L284.6 142.9M253.8,103.1L253.75 103.35L252.5 104.5L248.15 104.3L246.7 102.65Q246.2 101.85 246.95 101.65Q250.55 101.9 253.8 103.1M262.65,185Q204.35 184.9 146.25 182.9L136.25 182.55L137.4 182.45L146.25 182.3Q211.9 181.3 240.55 181.85Q271.1 182.55 263.6 184.6Q263.15 185 262.65 185M128.4,31.45L127.95 32Q124.6 35.45 120.35 31.8L120.05 31.6Q120.1 31.1 120.3 30.75Q120.55 30.25 120.95 29.7Q121.3 29.25 121.65 29.15Q125.1 29.15 128.15 31.05L128.4 31.45M86.55,78.9Q63.85 80.05 44.7 78.1Q24.15 76 27.75 74.65L86.55 75.7L97.4 75.95L115.2 76.35L115.05 76.8L97.4 78.25L89.95 78.75L86.55 78.9M120.55,83.3Q124.15 83.6 127.45 84.85L127.3 85.05L126.1 86.2L121.8 85.95L120.35 84.3Q119.75 83.55 120.55 83.3M130.95,73.45L131.45 73.45L131.45 73.5L130.95 73.45M140.35,88.3L142.55 88.6L142.65 89.05L140.35 89.05L140.35 88.3M54.7,10.7Q15.9 10.35 -22.8 9.25L-22.8 7.95Q29.2 7.2 54.7 7.65L57.05 7.7Q87.6 8.35 80.1 10.4Q79.65 10.8 79.2 10.8L54.7 10.7M16.25,70.7L13.9 70.7Q-3.45 70.55 -22.8 70.8L-22.8 68L13.9 70L16.15 70.25L16.25 70.7M12.2,76.8Q-3.55 76.95 -22.8 77.8L-22.8 75.25L12.35 76.35L12.2 76.8M23.4,107.75L82.15 110.6L82.4 111.15Q51.25 115.3 23.15 108.1Q21.95 107.8 23.4 107.75M14.15,147.3L19.95 147.25L23 147.2L37.45 146.95Q73.95 146.45 97.4 146.55L117.3 146.75Q147.8 147.4 140.35 149.4L139.35 149.85L97.4 149.55Q67.4 149.1 37.45 148.25L23 147.75L19.95 147.65L13 147.4L14.15 147.3M19.95,140.7L23 140.5L37.45 139.75L75.4 137.05Q80.45 136 84.6 138.9L84.75 139.2L37.45 141.35L23 141.4L19.95 141.4L10.1 141.25L10.1 141.2L19.95 140.7M14.15,179.7Q3.5 179.75 -8.6 180.15L-20.8 180.65L-20.8 178.1L-8.6 178.5L14.25 179.2L14.15 179.7M18.2,173.6Q5.3 173.5 -8.6 173.55L-20.8 173.65L-20.8 170.9Q-14.7 170.95 -8.6 171.15L18.05 173.1L18.2 173.6M90.5,117.1L97.4 117.45L99.95 117.6L99.95 117.75L97.4 117.65L94.35 117.5L90.5 117.7L84 118Q58.45 119.15 36.55 119.1L-28.1 119.15L-26.95 119.05Q-17.65 112.7 74.7 116.55L86.7 117L90.5 117.1M128.1,189.05L123.7 188.8L122.25 187.2Q121.75 186.4 122.45 186.2Q126.05 186.45 129.35 187.65L129.25 187.9L128.1 189.05M-9.25,29.7Q-8.9 29.25 -8.55 29.15Q-5.05 29.15 -2.05 31.05L-1.75 31.45L-2.2 32L-3.4 33Q-5.65 34.45 -8.2 33L-9.85 31.8L-10.1 31.6L-9.9 30.75L-9.25 29.7M-7.1,82.4L-7.15 82.6Q-12.6 86.5 -12 81.75Q-11.9 81.15 -11.55 80.9Q-9.15 81.05 -7.1 82.4M-9.35,104.5Q-5.95 104.5 -2.85 106.5L-2.55 106.85L-3.05 107.4Q-6.4 110.85 -10.7 107.25L-11 106.95L-10.7 106.2L-10.05 105.15L-9.35 104.5M-5.2,185.2L-5.25 185.45Q-7.45 187.1 -8.6 187.25Q-10.4 187.5 -10.05 184.65Q-10 184 -9.6 183.75L-8.6 183.9Q-6.8 184.1 -5.2 185.2" />
<linearGradient
id="LinearGradID_1219" gradientUnits="userSpaceOnUse" gradientTransform="matrix(0.00012207, -0.128189, 1.1613, 0.00120544, 40, 124.15)" spreadMethod ="pad" x1="-819.2" y1="0" x2="819.2" y2="0" >
<stop  offset="0" style="stop-color:#B1842D;stop-opacity:1" />
<stop  offset="1" style="stop-color:#C69D4E;stop-opacity:1" />
</linearGradient>
<path style="fill:url(#LinearGradID_1219) " d="M277.15,-33.9L277.6 -34.4L277.55 -33.9L277.15 -33.9M267.3,-17.7L285.3 -16.5L325.1 -14.95L325.35 -14.45Q304.65 -11.7 285.3 -13.95Q275.85 -15.05 266.8 -17.3L266.75 -17.3L266.75 -17.75L267.3 -17.7M266.75,-10.45L274.6 -10.35L285.3 -10.15L294.6 -9.9L317.65 -9.05L329.7 -8.55L333.45 -8.45L342.9 -8L343.9 -8L346.35 -7.9L346.35 -7.75L343.9 -7.85L342.9 -7.85L337.35 -8.1L333.45 -7.9L327 -7.6Q310 -6.85 294.6 -6.65L291.3 -6.5L287 -6.5L285.3 -6.5L284.6 -6.5L266.75 -6.5L266.75 -10.1L266.75 -10.45M340.5,25.8L337.6 25.7L340.5 25.6L340.5 25.8M332.25,36.6L333.7 37.05L333.55 37.25L332.4 38.45L332.25 38.45L328.05 38.2L326.6 36.6Q326.1 35.75 326.8 35.6Q329.6 35.75 332.25 36.6M266.75,75.95L266.75 75.65L285.3 75.6Q302.4 75.55 313.7 75.75Q344.25 76.45 336.75 78.45Q336.25 78.9 335.8 78.9L285.3 78.5L266.75 78.15L266.75 77.5L266.75 75.95M266.75,119.4L266.75 119.05L285.3 118.95Q303.65 118.9 315.55 119.15Q346.1 119.85 338.6 121.8L337.7 122.3L285.3 121.75L266.75 121.4L266.75 120.75L266.75 119.4M285.3,184.95L280.5 184.95L266.75 185L266.75 181.95L285.3 181.05Q303.65 180.7 332.1 181.55L340.35 181.8L340.35 184.7L332.1 184.9L316.75 184.95L294.6 184.95L285.3 184.95M340.35,178.55L332.1 178.3Q317.3 177.55 303.4 173.95Q302.15 173.65 303.6 173.6L332.1 175.45L340.35 175.9L340.35 178.55M266.75,27.45L285.3 27.85L292.8 28L294.6 28.05L321.5 28.55L321.4 29.1L296.25 30.95L294.6 31.05L292.8 31.1L290.35 31.25L285.3 31.4Q275.7 31.7 266.75 31.4L266.75 28.9L266.75 27.45M280.95,67.95L281.2 68.2L266.75 69.2L266.75 68.5L266.75 66.55L271.85 66.15Q276.55 65.1 280.45 67.6L280.95 67.95M282.9,111.3L283.05 111.6L266.75 112.7L266.75 110.05L273.75 109.45Q278.75 108.35 282.9 111.3M277.35,172.35L277.65 172.7L277.15 173.2Q273.8 176.7 269.5 173.05L269.25 172.8L269.45 172Q269.7 171.45 270.1 171L270.85 170.35Q274.3 170.35 277.35 172.35" />
<linearGradient
id="LinearGradID_1220" gradientUnits="userSpaceOnUse" gradientTransform="matrix(0, -0.16452, 6.37683, 0, -3032.15, 88.2)" spreadMethod ="pad" x1="-819.2" y1="0" x2="819.2" y2="0" >
<stop  offset="0" style="stop-color:#B1842D;stop-opacity:1" />
<stop  offset="1" style="stop-color:#C69D4E;stop-opacity:1" />
</linearGradient>
<path style="fill:url(#LinearGradID_1220) " d="M285.3,198L266.75 198.15L266.75 191.9L266.75 190.45L280.6 189.65L285.3 189.35Q310.7 187.9 317.2 189.25L332.1 188.55L340.35 188.15L340.35 197.8L332.1 197.75Q316.15 197.7 294.6 197.95L285.3 198M294.6,205.9L266.75 206L266.75 202L289.85 201.85L340.35 201.35L340.35 217.8L266.75 217.8L266.75 209.55L275 209.6L285.3 209.65L291.7 209.75L291.1 209.55L290.15 209.2Q302.75 208.7 313.2 208.75Q312.15 207.6 303.6 206.4L296.35 205.9L294.6 205.9M302.6,194.9L302.55 194.5Q300.75 190.85 296.6 192.2Q295.15 192.5 296.05 193.75Q299.2 198 302.6 194.9" />
<linearGradient
id="LinearGradID_1221" gradientUnits="userSpaceOnUse" gradientTransform="matrix(0, -0.16452, 6.37683, 0, -3004.3, 88.2)" spreadMethod ="pad" x1="-819.2" y1="0" x2="819.2" y2="0" >
<stop  offset="0" style="stop-color:#B1842D;stop-opacity:1" />
<stop  offset="1" style="stop-color:#C69D4E;stop-opacity:1" />
</linearGradient>
<path style="fill:url(#LinearGradID_1221) " d="M266.75,202L266.75 206L294.6 205.9L294.6 206L268.6 206.05L250.9 206.65L236.55 207.65L218.75 208.9L218.7 209.75Q224.6 209.55 235.55 209.5Q260 209.3 291.1 209.55L291.7 209.75L285.3 209.65L275 209.6L266.75 209.55L266.75 217.8L-20.8 217.8L-20.8 191.05L-19.65 191.05L-19.55 191.75Q-17.85 196.65 -13.45 195.2L-13.3 194.75Q-12.85 193.4 -12.9 192L-12.95 191.55L-13.3 191.15L-13.6 190.9L-8.6 190.95L30.4 191.85Q64.9 192.75 83.7 192.4L88.5 192.9L97.4 193.7L140.5 195.05L146.25 194.7L166.65 193.4L167.5 193.4L167.4 193.35L172.4 193.05L166.05 192.75L166.1 191.85Q166.1 191.6 166.25 191.55L166.85 191.25L166.7 190.7Q166.05 189.1 167.15 188.65Q170.35 188.9 172.85 190.95L186.8 193.7Q200.15 193.7 229.3 193.1L249.2 192.6Q252.55 198.6 257.7 194.75L257.6 194.35L256.4 192.35L266.75 191.9L266.75 198.15L285.3 198L294.6 197.95L294.6 198.15L284 198.3L258.4 200.5L289.85 201.85L266.75 202M29.65,177.55L88.5 178.6L97.4 178.8L117.1 179.2L117.05 179.7L97.4 181.3L91.9 181.55L88.5 181.75Q65.75 182.9 46.65 181Q26.05 178.9 29.65 177.55M132.2,204.4Q113.15 203.7 97.4 203.4L88.5 203.3Q60.95 202.95 45.2 204.35L83.55 208.2L88.5 208.4L97.4 208.55Q117.35 208.85 146.25 208.5Q167.1 208.3 192.75 207.7L166.5 205.9L146.25 205L132.2 204.4M21.6,207.35Q16.3 206.4 31.65 206.5L31.75 206L30.3 205.9L7.35 204.35Q3.25 205 2 205.9L1.8 206.05Q0.8 207.05 13.85 207.65Q26.85 208.2 21.6 207.35M194.75,196.85Q223.2 202.75 229.8 200.6Q236.9 198.4 237.35 197.95L239.6 198Q216.2 196.8 194.75 196.85M-8.6,203.05Q-7.8 202.9 -6.4 201.7L-6.5 201.35Q-7.3 199.85 -8.6 199.55L-9.1 199.5L-9.4 199.95Q-10.25 203.45 -8.6 203.05" />
<linearGradient
id="LinearGradID_1222" gradientUnits="userSpaceOnUse" gradientTransform="matrix(-0.00534058, 0, 0, 0.20845, 332.45, 122.75)" spreadMethod ="pad" x1="-819.2" y1="0" x2="819.2" y2="0" >
<stop  offset="0" style="stop-color:#703112;stop-opacity:0.501961" />
<stop  offset="1" style="stop-color:#803C18;stop-opacity:0" />
</linearGradient>
<path style="fill:url(#LinearGradID_1222) " d="M325.95,205.9L325.75 -31Q330.65 -28.25 332.8 -42.7L325.95 -42.7L325.95 -48.05L336.7 -48.05L336.7 -42.7L338.9 -42.7Q338.45 -38.35 336.7 -30.7L336.7 205.9Q337.95 229.55 325.95 205.9M336.7,217.8L336.7 218.85L325.95 218.85L325.95 217.8L336.7 217.8" />
<linearGradient
id="LinearGradID_1223" gradientUnits="userSpaceOnUse" gradientTransform="matrix(0, 0.0104065, 0.277817, 0.000350952, 159.05, -39.6)" spreadMethod ="pad" x1="-819.2" y1="0" x2="819.2" y2="0" >
<stop  offset="0" style="stop-color:#4D200A;stop-opacity:0.498039" />
<stop  offset="1" style="stop-color:#4D230C;stop-opacity:0" />
</linearGradient>
<path style="fill:url(#LinearGradID_1223) " d="M338.9,-42.7L341.3 -42.7L341.3 -30.7L336.7 -30.7Q338.45 -38.35 338.9 -42.7" />
<linearGradient
id="LinearGradID_1224" gradientUnits="userSpaceOnUse" gradientTransform="matrix(0, -0.0104065, 0.277817, 0, 162.1, 213.8)" spreadMethod ="pad" x1="-819.2" y1="0" x2="819.2" y2="0" >
<stop  offset="0" style="stop-color:#703112;stop-opacity:0.501961" />
<stop  offset="1" style="stop-color:#803C18;stop-opacity:0" />
</linearGradient>
<path style="fill:url(#LinearGradID_1224) " d="M266.75,205.9L325.95 205.9Q337.95 229.55 336.7 205.9L341.45 205.9L341.45 217.8L336.7 217.8L325.95 217.8L266.75 217.8L266.75 205.9" />
<linearGradient
id="LinearGradID_1225" gradientUnits="userSpaceOnUse" gradientTransform="matrix(0, -0.0104065, 0.277817, 0, 189.95, 213.8)" spreadMethod ="pad" x1="-819.2" y1="0" x2="819.2" y2="0" >
<stop  offset="0" style="stop-color:#703112;stop-opacity:0.501961" />
<stop  offset="1" style="stop-color:#803C18;stop-opacity:0" />
</linearGradient>
<path style="fill:url(#LinearGradID_1225) " d="M-20.8,217.8L-25.6 217.8L-25.6 205.9L-20.8 205.9Q-15.4 224.3 -10.05 205.9L266.75 205.9L266.75 217.8L-10.05 217.8L-20.8 217.8" />
<linearGradient
id="LinearGradID_1226" gradientUnits="userSpaceOnUse" gradientTransform="matrix(0.00534058, 0, 0, 0.20845, -16.6, 122.75)" spreadMethod ="pad" x1="-819.2" y1="0" x2="819.2" y2="0" >
<stop  offset="0" style="stop-color:#703112;stop-opacity:0.501961" />
<stop  offset="1" style="stop-color:#803C18;stop-opacity:0" />
</linearGradient>
<path style="fill:url(#LinearGradID_1226) " d="M-10.05,217.8L-10.05 218.85L-20.8 218.85L-20.8 217.8L-10.05 217.8M-20.8,205.9L-20.8 -30.7L-20.1 -40.6L-19.05 -42.9Q-19.55 -40.35 -12.25 -31L-10.05 205.9Q-15.4 224.3 -20.8 205.9M-10.05,-42.7L-13 -42.7L-13.3 -42.75Q-18.6 -45 -19.05 -43.05L-19.9 -42.55L-19.9 -42.7L-20.8 -42.7L-20.8 -48.05L-18.85 -48.05Q-17.3 -53.2 -14.95 -48.05L-10.05 -48.05L-10.05 -42.7" />
<path style="fill:#34240D;fill-opacity:1" d="M-28.3,224.7L-28 225.1Q-27.2 226.3 -25.6 227.5L309.15 227.45L309.15 229.65L-24.6 229.65Q-23.3 229.55 -25.15 229.6Q-27 229.6 -28.75 227.85Q-30.55 226.1 -31.1 224.3Q-31.65 222.45 -31.55 219.65L-31.55 -41.85L-31.45 -44.5Q-31.25 -46.8 -30.85 -47.7Q-28.35 -53.35 -20.05 -53.35L174.4 -53.35L174.4 -51.15L97.4 -51.2L-18.2 -51.3L-19.9 -51.3L-20.05 -51.3Q-27 -51 -28.8 -46.15L-29.35 -44.1L-29.4 -42.9L-29.3 -41.85L-29.3 -41.45L-29.3 2.25L-29.3 91.75L-29.3 221.55L-28.7 224L-28.3 224.7M-22.25,-41.85L-22 -42.85Q-21.5 -43.9 -20.05 -43.9L174.4 -43.95L174.4 -41.75L-19.95 -41.75L-19.95 218.05L309.15 218.05L309.15 220.3L-20.7 220.1L-21.25 220L-21.4 220.05L-22.25 219.3L-22.25 -41.85" />
<path style="fill:#674529;fill-opacity:1" d="M309.15,227.45L-25.6 227.5Q-27.2 226.3 -28 225.1L-28.3 224.7L-28.7 224L-25 224.8L261.5 224.5L261.5 224.4L266.75 224.4L266.75 224.5L309.15 224.4L309.15 227.45M-22.25,219.3L-21.4 220.05L-25.3 222.4L-25.55 91.75L-25.6 91.75L-25.9 -41.85L-25.8 -41.85Q-26.2 -43.9 -25.05 -45Q-23.95 -46.1 -22.6 -46.4L-18.6 -46.65L-20.05 -46.55L174.4 -46.8L174.4 -43.95L-20.05 -43.9Q-21.5 -43.9 -22 -42.85L-22.25 -41.85L-22.25 219.3" />
<path style="fill:#D2A977;fill-opacity:1" d="M174.4,-46.8L-20.05 -46.55L-18.6 -46.65L-22.6 -46.4Q-23.95 -46.1 -25.05 -45Q-26.2 -43.9 -25.8 -41.85L-25.9 -41.85L-25.6 91.75L-25.55 91.75L-25.3 222.4L-21.4 220.05L-21.25 220L-20.7 220.1L309.15 220.3L309.15 224.4L266.75 224.5L266.75 224.4L261.5 224.4L261.5 224.5L-25 224.8L-28.7 224L-29.3 221.55L-29.3 91.75L-29.3 2.25L-29.3 -41.45L-29.3 -41.85L-29.4 -42.9L-29.35 -44.1L-28.8 -46.15Q-27 -51 -20.05 -51.3L-19.9 -51.3L-18.2 -51.3L97.4 -51.2L174.4 -51.15L174.4 -46.8" />
<path style="fill:none;stroke-width:0.1;stroke-linecap:round;stroke-linejoin:round;stroke-miterlimit:3;stroke:#662616;stroke-opacity:1" d="M-22.25,-41.85L-22 -42.85Q-21.5 -43.9 -20.05 -43.9" />
<path style="fill:#34240D;fill-opacity:1" d="M341.2,227.5Q342.75 226.3 343.55 225.1L343.85 224.7L344.25 224L344.85 221.55L344.85 44.65L344.85 39.4L344.85 5.15L344.85 -41.45L344.85 -41.85L344.95 -42.9L344.9 -44.1L344.35 -46.15Q342.55 -51 335.6 -51.3L335.45 -51.3L333.75 -51.3L90.75 -51.15L90.75 -53.35L335.6 -53.35Q343.9 -53.35 346.4 -47.7Q346.8 -46.8 347 -44.5L347.1 -41.85L347.1 219.65Q347.2 222.45 346.65 224.3Q346.1 226.1 344.3 227.85Q342.55 229.6 340.7 229.6Q338.85 229.55 340.15 229.65L90.75 229.65L90.75 227.45L341.2 227.5M337.8,219.3Q337.4 220.05 336.95 220.05L336.8 220L336.25 220.1L90.75 220.25L90.75 218.05L335.5 218.05L335.5 -41.75L90.75 -41.75L90.75 -43.95L335.6 -43.9Q337.05 -43.9 337.6 -42.85L337.8 -41.85L337.8 219.3" />
<path style="fill:#674529;fill-opacity:1" d="M340.55,224.8L344.25 224L343.85 224.7L343.55 225.1Q342.75 226.3 341.2 227.5L90.75 227.45L90.75 224.55L340.55 224.8M337.8,-41.85L337.6 -42.85Q337.05 -43.9 335.6 -43.9L90.75 -43.95L90.75 -46.85L335.6 -46.55L334.15 -46.65L338.15 -46.4Q339.5 -46.1 340.6 -45Q341.75 -43.9 341.35 -41.85L341.45 -41.85L340.85 222.4L336.95 220.05Q337.4 220.05 337.8 219.3L337.8 -41.85" />
<path style="fill:#D2A977;fill-opacity:1" d="M90.75,224.55L90.75 220.25L336.25 220.1L336.8 220L336.95 220.05L340.85 222.4L341.45 -41.85L341.35 -41.85Q341.75 -43.9 340.6 -45Q339.5 -46.1 338.15 -46.4L334.15 -46.65L335.6 -46.55L90.75 -46.85L90.75 -51.15L333.75 -51.3L335.45 -51.3L335.6 -51.3Q342.55 -51 344.35 -46.15L344.9 -44.1L344.95 -42.9L344.85 -41.85L344.85 -41.45L344.85 5.15L344.85 39.4L344.85 44.65L344.85 221.55L344.25 224L340.55 224.8L90.75 224.55" />
<path style="fill:none;stroke-width:0.1;stroke-linecap:round;stroke-linejoin:round;stroke-miterlimit:3;stroke:#662616;stroke-opacity:1" d="M337.8,-41.85L337.6 -42.85Q337.05 -43.9 335.6 -43.9" />
</g>
</svg>
