<?xml version="1.0" encoding="utf-8"?>
<svg version="1.1" id="Layer_1"
xmlns="http://www.w3.org/2000/svg"
xmlns:xlink="http://www.w3.org/1999/xlink"
xmlns:author="http://www.sothink.com"
width="17px" height="18px"
xml:space="preserve">
<g id="1636" transform="matrix(1, 0, 0, 1, 0, 0)">
<path style="fill:#D0FCFC;fill-opacity:0.901961" d="M11.15,14.85L11.1 14.9L11.05 14.5L10.6 12.1L8.95 3.05L4.55 6.8L1.35 11.3L3.15 5.4L9.45 0L16.6 3.25L16.6 11.05L16.45 10L15.55 4.15L11.45 2.45L11.3 8.45L11.2 8.7L11 9.25Q10.85 9.85 10.85 10.4Q10.85 11.1 11.2 11.7L11.25 11.7L11.15 14.85M0.2,15.15L1.3 17.3L0.8 16.95L0 15.7L0.2 15.15" />
<path style="fill:#9CEAF6;fill-opacity:0.501961" d="M11.15,14.85L11.25 11.7L11.75 12.35L11.8 12.3Q12.95 10 11.55 8L11.45 8.1L11.3 8.45L11.45 2.45L15.55 4.15L16.45 10L15.55 11.8Q13.2 13.25 11.15 14.85M3.55,17.75L0.55 13.9L1.35 11.3L4.55 6.8L8.95 3.05L10.6 12.1L11.05 14.5L11.1 14.9L10.85 15.1L10.25 13.8L10.1 13.45L9.85 15.4L9.75 15.25L8.9 14.35Q8.05 15.4 8.75 16.5Q7.3 17.25 5.75 17.55L5.15 15.85L5 16.4Q4.25 15.35 2.7 15Q2.55 15 2.55 15.15Q2.65 17.55 4.7 17.4L4.6 17.7L3.7 17.75L3.55 17.75M3.4,10.65Q3.05 10.8 2.95 11.15L2.75 11.15Q1.6 12.45 1.45 14.3Q1.4 15.05 1.95 14.6Q2.75 14.1 3.25 13.2Q4.2 11.65 3.5 10.6L3.4 10.65M7.45,9.1L7.85 9.45Q11 9 7.9 7.35Q6.7 7.9 7.45 9.1M9.1,12.3L9.55 12.35Q10.9 10.6 8.75 9.9Q7.8 11 9.1 12.3" />
<path style="fill:#62B3C4;fill-opacity:0.701961" d="M11.25,11.7L11.3 8.45L11.45 8.1L11.55 8Q12.95 10 11.8 12.3L11.75 12.35L11.25 11.7" />
<path style="fill:#3F94BB;fill-opacity:0.701961" d="M15.55,11.8L16.45 10L16.6 11.05L16.6 11.1L15.7 11.7L15.55 11.8M10.75,15.15L10 15.75L9.85 15.4L10.1 13.45L10.25 13.8L10.85 15.1L10.75 15.15M5.15,15.85L5.75 17.55L4.6 17.7L4.7 17.4L5.4 17.25L5.4 17.15L5 16.4L5.15 15.85M3.55,17.75L1.3 17.3L0.2 15.15L0.55 13.9L3.55 17.75" />
<path style="fill:#95B3BD;fill-opacity:1" d="M3.5,10.6Q4.2 11.65 3.25 13.2Q2.75 14.1 1.95 14.6Q1.4 15.05 1.45 14.3Q1.6 12.45 2.75 11.15L2.95 11.15Q3.05 10.8 3.4 10.65L3.5 10.6" />
<path style="fill:#BCEDF4;fill-opacity:1" d="M7.9,7.35Q11 9 7.85 9.45L7.45 9.1Q6.7 7.9 7.9 7.35" />
<path style="fill:#76ACB6;fill-opacity:1" d="M8.75,9.9Q10.9 10.6 9.55 12.35L9.1 12.3Q7.8 11 8.75 9.9" />
<path style="fill:#81C3D1;fill-opacity:1" d="M10,15.75L8.75 16.5Q8.05 15.4 8.9 14.35L9.75 15.25L9.85 15.4L10 15.75" />
<path style="fill:#CBFFFF;fill-opacity:0.74902" d="M2.55,15.15Q2.55 15 2.7 15Q4.25 15.35 5 16.4L5.4 17.15L5.4 17.25L4.7 17.4Q2.65 17.55 2.55 15.15" />
</g>
</svg>
