<?xml version="1.0" encoding="utf-8"?>
<svg version="1.1" id="Layer_1"
xmlns="http://www.w3.org/2000/svg"
xmlns:xlink="http://www.w3.org/1999/xlink"
xmlns:author="http://www.sothink.com"
width="25px" height="11px"
xml:space="preserve">
<g id="415" transform="matrix(1, 0, 0, 1, -3.55, 0.5)">
<path style="fill:#E7950A;fill-opacity:1" d="M18.6,6.45L20.65 7.05L7.3 7Q6.05 6.95 6.05 5.95L6.05 3.15Q6.05 2.2 7.3 2.15L16.25 2.15L15.7 3.05Q15.2 3.7 15.45 4.5Q15.7 5.35 18.6 6.45" />
<path style="fill:#F7D758;fill-opacity:1" d="M26.25,2.85L26.25 6.55L26.25 6.7L26.2 6.95Q26.05 7.85 25.15 7.9L24.9 7.9L6.6 7.9Q5.4 7.9 5.25 6.95L5.2 6.55L5.2 2.85Q5.2 2.5 5.35 2.2Q5.65 1.5 6.6 1.5L24.9 1.5Q25.85 1.5 26.15 2.2L26.25 2.85M25.5,3.15Q25.5 2.35 24.55 2.2L24.15 2.15L17.35 2.15L19.5 2.8L22.55 3.05Q24.4 3.1 24.8 4.9L25.25 6.65L25.35 6.55L25.5 5.95L25.5 3.15M15.45,4.5Q15.2 3.7 15.7 3.05L16.25 2.15L7.3 2.15Q6.05 2.2 6.05 3.15L6.05 5.95Q6.05 6.95 7.3 7L20.65 7.05L18.6 6.45Q15.7 5.35 15.45 4.5" />
<path style="fill:#FFFFFF;fill-opacity:1" d="M25.5,5.95L25.35 6.55L25.25 6.65L24.8 4.9Q24.4 3.1 22.55 3.05L19.5 2.8L17.35 2.15L24.15 2.15L24.55 2.2Q25.5 2.35 25.5 3.15L25.5 5.95" />
<path style="fill:#9C320E;fill-opacity:1" d="M26.3,-0.5Q27.9 -0.5 27.9 1.7L27.9 7.8Q27.9 10 26.3 10L5.05 10Q3.55 10 3.55 7.8L3.55 1.7Q3.55 -0.5 5.05 -0.5L26.3 -0.5M26.15,2.2Q25.85 1.5 24.9 1.5L6.6 1.5Q5.65 1.5 5.35 2.2Q5.2 2.5 5.2 2.85L5.2 6.55L5.25 6.95Q5.4 7.9 6.6 7.9L24.9 7.9L25.15 7.9Q26.05 7.85 26.2 6.95L26.25 6.7L26.25 6.55L26.25 2.85L26.15 2.2" />
</g>
</svg>
