<?xml version="1.0" encoding="utf-8"?>
<svg version="1.1" id="Layer_1"
xmlns="http://www.w3.org/2000/svg"
xmlns:xlink="http://www.w3.org/1999/xlink"
xmlns:author="http://www.sothink.com"
width="17px" height="22px"
xml:space="preserve">
<g id="1476" transform="matrix(1, 0, 0, 1, 0, 0)">
<path style="fill:#0E0A0B;fill-opacity:1" d="M14.6,15.15Q13.8 11.9 12 8.5Q10.15 5.1 9.1 3.85Q8 2.55 6.1 1.7L5.65 1.55Q4 1.1 2.4 2.8Q0.6 4.7 3.1 8.15Q5.55 11.55 6.4 15.75L6.95 17.75Q7.8 20.15 9.5 20.7Q11.1 21.2 10.35 21.55L9.3 21.8Q6.75 22.15 5.7 19.55Q4.6 16.9 3.9 13.8Q3.2 10.65 1.4 8.45Q-0.4 6.2 0.1 3.8Q0.6 1.35 2.5 0.45Q3.95 -0.25 5.85 0.1L7.1 0.4Q9.8 1.3 12.05 5.2L15.25 11.25Q16.2 13.4 16.3 16.05Q16.5 18.6 15.1 19.15L15.2 18.45L14.6 15.15" />
<path style="fill:#1C1417;fill-opacity:1" d="M10.35,16.5Q11.55 15.5 11.3 14L11.15 13.35L10.8 12.65L9.85 11.1L9.3 9.85L8.95 9.1Q8.25 7.5 7.1 6.1Q6.4 5.35 6.15 4.35L5.95 3.75Q5.6 2.7 5.65 1.55L6.1 1.7Q8 2.55 9.1 3.85Q10.15 5.1 12 8.5Q13.8 11.9 14.6 15.15L15.2 18.45L15.1 18.6L14.85 19.25L14.65 19.55L13.6 20.5L11.6 21.35L10.35 21.55Q11.1 21.2 9.5 20.7Q7.8 20.15 6.95 17.75Q8.9 17.75 10.35 16.5" />
<path style="fill:#3C3134;fill-opacity:1" d="M6.95,17.75L6.4 15.75Q5.55 11.55 3.1 8.15Q0.6 4.7 2.4 2.8Q4 1.1 5.65 1.55Q5.6 2.7 5.95 3.75L6.15 4.35Q6.4 5.35 7.1 6.1Q8.25 7.5 8.95 9.1L9.3 9.85L9.85 11.1L10.8 12.65L11.15 13.35L11.3 14Q11.55 15.5 10.35 16.5Q8.9 17.75 6.95 17.75" />
</g>
</svg>
