<?xml version="1.0" encoding="utf-8"?>
<svg version="1.1" id="Layer_1"
xmlns="http://www.w3.org/2000/svg"
xmlns:xlink="http://www.w3.org/1999/xlink"
xmlns:author="http://www.sothink.com"
width="12px" height="16px"
xml:space="preserve">
<g id="1550" transform="matrix(1, 0, 0, 1, 0, 0)">
<linearGradient
id="LinearGradID_1814" gradientUnits="userSpaceOnUse" gradientTransform="matrix(0, 0.00598145, -0.00491333, 0, -108.55, 8.85)" spreadMethod ="pad" x1="-819.2" y1="0" x2="819.2" y2="0" >
<stop  offset="0" style="stop-color:#FFF980;stop-opacity:1" />
<stop  offset="1" style="stop-color:#E7950A;stop-opacity:1" />
</linearGradient>
<path style="fill:url(#LinearGradID_1814) " d="M11.2,7.5Q11.2 9.4 10.85 10.95Q10.4 12.5 9.65 13.5Q8.8 14.6 7.7 15.1L5.15 15.6L2.75 15.1L2.7 15.1L1.15 13.75Q0.55 12.85 0.55 12.05Q0.55 11.45 1 11.05L1 11Q1.45 10.5 2.15 10.5Q2.7 10.5 3.2 10.85L3.9 11.8L4.45 12.5L5.25 12.75L6.1 12.55L6.05 12.6L6.75 11.95L7.4 9.75L6.8 10.1L6.75 10.1L4.8 10.5L2.9 10.1L1.35 9Q0.65 8.35 0.35 7.4L0.35 7.35Q0 6.4 0 5.4Q0 4.25 0.4 3.3Q0.75 2.25 1.5 1.55L3.2 0.4L3.25 0.4L5.4 0Q6.75 0 7.85 0.5Q8.95 1 9.7 2Q10.45 2.9 10.85 4.4Q11.2 5.75 11.2 7.5M6.05,3.1L5.3 2.9Q4.65 2.9 4.15 3.55Q3.6 4.2 3.6 5.3Q3.6 6.4 4.15 7.1Q4.6 7.65 5.35 7.65L6.35 7.4L6.3 7.4L7 6.7L7.25 5.5L7.15 4.45L6.75 3.65L6.7 3.6L6.05 3.1" />
<path style="fill:#FFFFFF;fill-opacity:1" d="M2.5,1.95Q3.4 0.35 6.7 0.75L7.35 1L8.3 1.6Q8.7 2.3 7.7 2.1L2.9 2.35Q2.2 2.9 2.5 1.95" />
</g>
</svg>
