<?xml version="1.0" encoding="utf-8"?>
<svg version="1.1" id="Layer_1"
xmlns="http://www.w3.org/2000/svg"
xmlns:xlink="http://www.w3.org/1999/xlink"
xmlns:author="http://www.sothink.com"
width="23px" height="24px"
xml:space="preserve">
<g id="661" transform="matrix(1, 0, 0, 1, 0, 0.75)">
<path style="fill:#3C3532;fill-opacity:1" d="M9.1,16.15L16.4 9.35L19.95 5.75L20.35 5.1L21.65 0.7L16.95 3.05L12.1 8.25L9.8 10.65L6.35 14.3L5.95 14.6Q6.3 13.95 3.05 17Q-0.25 20 4.5 14.95L6 13.35L16.05 2.1Q19.1 0.65 20.7 0.05L22.6 -0.7Q22.9 -0.85 22.9 -0.55L22.7 0.7L22.2 3.1L21.4 5.45Q20.9 6.45 19.8 7.45L13.9 13.2L9.5 17.3L9.25 17.15Q8.65 16.95 7.15 18.15Q5.35 19.6 8.75 16.5L9.1 16.15" />
<linearGradient
id="LinearGradID_803" gradientUnits="userSpaceOnUse" gradientTransform="matrix(-0.00550842, 0.00614929, -0.00137329, -0.0012207, 16.7, 7.2)" spreadMethod ="pad" x1="-819.2" y1="0" x2="819.2" y2="0" >
<stop  offset="0.00392157" style="stop-color:#746E6B;stop-opacity:1" />
<stop  offset="1" style="stop-color:#CDC6C0;stop-opacity:1" />
</linearGradient>
<path style="fill:url(#LinearGradID_803) " d="M19.95,5.75L16.4 9.35L9.1 16.15L8.75 16.5L7.8 15.75L7.35 15.35Q14.05 9 20.2 2.3L20.4 2.2L19.95 5.75" />
<linearGradient
id="LinearGradID_804" gradientUnits="userSpaceOnUse" gradientTransform="matrix(0.00634766, -0.00634766, 0.000869751, 0.000869751, 13.45, 7.95)" spreadMethod ="pad" x1="-819.2" y1="0" x2="819.2" y2="0" >
<stop  offset="0.00392157" style="stop-color:#746E6B;stop-opacity:1" />
<stop  offset="1" style="stop-color:#CDC6C0;stop-opacity:1" />
</linearGradient>
<path style="fill:url(#LinearGradID_804) " d="M7.35,15.35L6.45 14.45L6.35 14.3L9.8 10.65L12.1 8.25L17 3.6L20.2 2.3Q14.05 9 7.35 15.35" />
<path style="fill:#F1EFED;fill-opacity:1" d="M20.4,2.2L20.2 2.3L17 3.6L12.1 8.25L16.95 3.05L21.65 0.7L20.35 5.1L19.95 5.75L20.4 2.2" />
<path style="fill:#443911;fill-opacity:1" d="M6.85,18.85L5.95 19.75L4.85 20.7L3.9 21.3L2.5 21.7L2.05 21.75L1.1 21.5L0.55 21.1L0.5 21.05Q0.05 20.6 0 20.1L0 19.9L0.2 19.15Q0.55 17.9 2.8 15.95L2.9 15.85L3.55 15.35L3.75 15.9L4.1 16.35L2.75 17.35Q2 18 1.3 19.15Q0.55 20.15 1.65 20.65L1.7 20.7Q2.7 21.15 4.15 19.95L5.2 19.15L6 18.2L5.9 18.1L6.85 18.85M3.5,15.2L3.45 15.1L3.5 15.2" />
<path style="fill:#C6A831;fill-opacity:1" d="M9.1,18.35L9.3 18.4L9.15 18.45L9.1 18.35M3.9,13.7L4.1 13.95Q4 13.85 3.95 13.9L3.9 13.7" />
<path style="fill:#55442B;fill-opacity:1" d="M4.25,18Q2.95 18.8 1.65 20.65Q0.55 20.15 1.3 19.15Q2 18 2.75 17.35L4.1 16.35L4.2 16.3L4.3 16.4L5.1 17.3L5.9 18.1L6 18.2L5.2 19.15L4.25 18" />
<path style="fill:#675232;fill-opacity:1" d="M1.65,20.65Q2.95 18.8 4.25 18L5.2 19.15L4.15 19.95Q2.7 21.15 1.7 20.7L1.65 20.65" />
<path style="fill:#872C09;fill-opacity:1" d="M3.95,11.05L5.1 10.75Q5.45 10.7 5.5 11.05L5.75 12.4Q5.9 13.45 6.9 14.1L8.95 15.2Q10 15.7 10.65 17.05Q11.25 18.4 10.75 20.25Q10.25 22.05 8.45 22.65Q6.65 23.25 5.95 21.9Q5.2 20.55 5.7 19.9Q6.15 19.2 7.1 19Q4.85 18.2 3.85 17.4Q2.85 16.55 2.3 15.55Q1.75 14.5 2.15 13.4Q2.5 12.3 3.05 11.75L3.95 11.05M3.25,15.35L3.3 15.45L3.95 16.35Q4.75 17.15 6.3 17.65Q7.85 18.15 8.3 18.75L8.6 19.6L8.55 20.05L8.5 19.95Q8.1 19.4 7.3 19.65Q6.7 19.85 6.65 20.4L6.7 21Q6.9 22.05 8 21.8Q9.05 21.5 9.65 20.4Q10.25 19.3 10.05 18.5L9.65 17.3L9 16.55L7.1 15.4Q5.65 14.6 5.1 13.45L4.7 12.35L4.6 11.75Q4.5 11.75 4.35 11.9L4 12.15L3.45 12.75L3.1 13.4Q2.9 13.8 3 14.7L3.2 15.3L3.25 15.35" />
<path style="fill:#E29E36;fill-opacity:1" d="M8.6,19.6L8.3 18.75Q7.85 18.15 6.3 17.65Q4.75 17.15 3.95 16.35L3.3 15.45L3.25 15.35Q3.15 14.75 3.5 14.1Q4 13.15 4.7 14.2L5.65 15.05L4.85 14.2Q4.5 13.5 4.4 12.45Q3.7 12.65 3.45 13.45Q3.2 14.35 3.2 15.3L3 14.7Q2.9 13.8 3.1 13.4L3.45 12.75L4 12.15L4.35 11.9Q4.5 11.75 4.6 11.75L4.7 12.35L5.1 13.45Q5.65 14.6 7.1 15.4L9 16.55L9.65 17.3L10.05 18.5Q10.25 19.3 9.65 20.4Q9.05 21.5 8 21.8Q6.9 22.05 6.7 21L6.65 20.4Q6.7 19.85 7.3 19.65Q8.1 19.4 8.5 19.95Q8.2 20.9 7.1 20.6L6.95 20.55Q7 21.4 7.95 21.3Q8.8 21.25 9.3 20.6Q9.8 19.9 9.8 18.85Q9.8 17.85 9.2 17.2Q8.75 16.65 8 16.2L7.2 15.85Q6.85 16.9 5.75 16.6Q5 16.45 4.55 15.95L4.85 16.45Q5.5 17.25 6.5 17.4Q7.4 17.55 8.15 18.15Q9.05 18.85 8.6 19.6" />
<path style="fill:#D74B25;fill-opacity:1" d="M8.15,18.15Q7.4 17.55 6.5 17.4Q5.5 17.25 4.85 16.45L4.55 15.95Q5 16.45 5.75 16.6Q6.85 16.9 7.2 15.85L8 16.2Q8.75 16.65 9.2 17.2Q9.8 17.85 9.8 18.85Q9.8 19.9 9.3 20.6Q8.8 21.25 7.95 21.3Q7 21.4 6.95 20.55L7.1 20.6Q8.2 20.9 8.5 19.95L8.55 20.05L8.6 19.6Q9.05 18.85 8.15 18.15" />
<path style="fill:#F7DA7D;fill-opacity:1" d="M3.25,15.35L3.2 15.3Q3.2 14.35 3.45 13.45Q3.7 12.65 4.4 12.45Q4.5 13.5 4.85 14.2L5.65 15.05L4.7 14.2Q4 13.15 3.5 14.1Q3.15 14.75 3.25 15.35" />
</g>
</svg>
