<?xml version="1.0" encoding="utf-8"?>
<svg version="1.1" id="Layer_1"
xmlns="http://www.w3.org/2000/svg"
xmlns:xlink="http://www.w3.org/1999/xlink"
xmlns:author="http://www.sothink.com"
width="30px" height="42px"
xml:space="preserve">
<g id="873" transform="matrix(1, 0, 0, 1, 0.6, 1.6)">
<path style="fill:#D25BFF;fill-opacity:1" d="M23.85,16.6Q24.7 16.95 24.8 16.45Q25.15 15.75 24 15.4L23.65 15.55Q23.35 15.5 23.3 16.25L23.55 16.55L23.85 16.6M26.6,31.85L26.15 33.25L26.1 31L26.15 30.5Q26.55 27.1 23.55 21.8Q21.2 16 21.5 13.3L20.2 16.65L19.1 20.75L18.25 20.4L17.65 20.05Q17.05 20 16.3 21.45Q15.5 23.05 14.3 22.9Q13.7 22.85 12.95 21.5Q12.85 19.75 12.25 19.45Q12.15 20.45 10.4 22.2Q8.75 23.5 7.85 23.35L6.65 23.25Q6 23.65 5.6 24.1Q3.2 26.55 3.15 27.05Q2.75 27.75 2.5 29.7L2.35 31.2Q2.8 32.7 3.85 34.1Q0.9 30.5 -0.6 27.85L-0.4 26.15Q0.45 21.55 3.9 18.2Q4.6 17.3 5.6 16.65Q8.5 15.3 10 13Q11.05 11.85 12.35 11.05L12.6 11.3L15.25 14.55Q15.75 10.65 18.5 7.75Q21 4.85 25.4 3.4Q25 9.3 27 13Q28.95 17.2 28.35 19.6Q27.1 22.45 27.5 24.5L27.45 29.95Q27.4 30.4 27.65 30.95Q26.95 31.35 26.6 31.85M12.25,4.05Q11.2 2.7 9.8 1.8L9.2 1.75Q9.7 2.5 9.6 3.25L9.9 3.55Q11.35 3.95 11.9 4.55L13.05 5.15Q12.45 4.8 12.25 4.05M13.3,8.15Q12.6 8.85 11.4 8.7L10.6 7.85Q10.8 6.15 8.75 5.4Q8.45 5.35 8.55 4.6Q7.7 1.55 8.65 -1.6Q10.45 1.35 13.5 3.95Q14.55 5.05 14.4 6.3Q14.3 7.5 13.3 8.15M8.2,20.45Q9.9 21.4 10.35 20.2L10.45 19.45L10.15 19.2L8.95 19.05Q8.35 19.2 8.25 19.95L8.2 20.45M1.5,12.75Q1.45 10.7 3.05 9.95Q6.2 11.5 3.8 13.95Q2.1 15.3 1.5 12.75" />
<path style="fill:#A02FF5;fill-opacity:1" d="M26.15,33.25L26.6 31.85Q26.95 31.35 27.65 30.95Q27.9 36.2 22.15 38.75Q19.25 40.15 15.6 39.95L9.05 38.95Q5.8 38.05 3.55 36.3Q-0.5 32.3 -0.6 27.85Q0.9 30.5 3.85 34.1Q4.6 35.15 6.3 36.35Q12 39.55 18.85 38.35Q23.8 37.7 25.35 34.65L26.15 33.25M13.05,5.15L11.9 4.55Q11.35 3.95 9.9 3.55L9.6 3.25Q9.7 2.5 9.2 1.75L9.8 1.8Q11.2 2.7 12.25 4.05Q12.45 4.8 13.05 5.15" />
<path style="fill:#FBDBFF;fill-opacity:1" d="M23.55,16.55L23.3 16.25Q23.35 15.5 23.65 15.55L24 15.4Q25.15 15.75 24.8 16.45Q24.7 16.95 23.85 16.6L23.55 16.55M25.35,34.65Q23.8 37.7 18.85 38.35Q12 39.55 6.3 36.35Q4.6 35.15 3.85 34.1Q2.8 32.7 2.35 31.2L2.5 29.7Q2.75 27.75 3.15 27.05Q3.2 26.55 5.6 24.1Q6 23.65 6.65 23.25L7.85 23.35Q8.75 23.5 10.4 22.2Q12.15 20.45 12.25 19.45Q12.85 19.75 12.95 21.5Q13.7 22.85 14.3 22.9Q15.5 23.05 16.3 21.45Q17.05 20 17.65 20.05L18.25 20.4L19.1 20.75L20.2 16.65L21.5 13.3Q21.2 16 23.55 21.8Q26.55 27.1 26.15 30.5L26.1 31L26.15 33.25L25.35 34.65M8.25,19.95Q8.35 19.2 8.95 19.05L10.15 19.2L10.45 19.45L10.35 20.2Q9.9 21.4 8.2 20.45L8.25 19.95" />
</g>
</svg>
