<?xml version="1.0" encoding="utf-8"?>
<svg version="1.1" id="Layer_1"
xmlns="http://www.w3.org/2000/svg"
xmlns:xlink="http://www.w3.org/1999/xlink"
xmlns:author="http://www.sothink.com"
width="425px" height="264px"
xml:space="preserve">
<g id="2967" transform="matrix(1, 0, 0, 1, 29.95, 43.8)">
<path style="fill:#000000;fill-opacity:1" d="M47.25,-8.3L47.55 -8.1Q48.8 -8.1 48.75 -6L48.45 -3.3Q46.75 2.8 47.05 4.7Q46.3 13.7 48.7 22.35Q51.35 32.45 58.35 41.7Q68.65 55.4 88.25 66.95L88.4 67.1Q110.5 78.6 129.3 84.7L135.15 86.5Q131.5 108.2 132.6 131.1Q133.3 146.75 135.15 162L135.65 167.05L133.1 166.95Q119.55 166.6 109.1 169.8Q98.65 172.7 93.15 176.35Q89.8 178.25 83 182.6Q79.45 184.8 76.35 179.2Q65.5 168 55.2 169.05Q45 170 39.05 175.1Q33.15 179.9 31.9 190.85Q31 197.25 29.65 199.25Q28.55 200.65 26.65 200.6L26 200.65L23.3 199.85Q-0.95 189.2 -14.3 167.6Q-26.9 147.3 -29.3 119Q-29.9 113.3 -29.85 107.95L-29.9 106.25L-29.9 105.65L-29.95 105.25L-29.95 103.65L-29.65 98.35Q-27.85 61.2 -5.95 33.3Q0.7 24.65 9.2 17.05Q22.55 4.6 41.2 -5.55Q42.1 -6.2 45.9 -7.75Q46.6 -8.25 47.25 -8.3" />
<path style="fill:#000000;fill-opacity:1" d="M250.75,-25.75Q250.55 -34.05 251.4 -38.45Q252.05 -43.05 255.15 -43.4L257.2 -43.7L259.4 -43.8Q264.15 -43.85 270.4 -42.35Q327.3 -30.45 358.05 8.95Q372.7 27.65 381.5 50.8Q390.15 73.65 393.5 105.5Q394.3 114.15 394.15 122.35L394.1 125.55Q393.3 145.05 386.45 161.25Q376.4 184.95 354.65 207.55L345 216.9L342.35 218.85L339.9 219.5L338.65 219.45Q336.1 219.25 335.65 217.2Q335 215 335.4 214.9Q341.35 189.5 333.3 177.05Q325.5 165.55 317 162.55Q309.7 159.95 303.8 160.95Q297.7 161.75 292.85 163.7Q287.95 165.6 284.65 167.55Q281.15 169.45 276.15 173.45Q270.85 177.4 269.8 168.45Q264 139.3 228.2 147.15Q208.3 151.5 199.25 163.05Q190.25 174.45 186.35 170.3Q177.05 163.6 167.25 162.1L164.4 161.8Q160.3 161.45 156.35 162L155.9 162.1L153.85 162.3L151.15 162.65L150.4 157.65Q148.25 142.4 147 126.4Q146.2 117.05 146.15 107.85L146.15 105.4Q146 101.75 146.1 98Q146.05 97.15 146.15 96.25Q146.25 87.55 147 79L148.3 78.85Q154.55 78.6 162.8 76.9L164.8 76.35L178 72.5Q202.05 64.35 222 44.3Q242.15 23.55 247.65 0.55Q249.1 -6.15 249.8 -12.55Q250.45 -17.75 250.75 -25.75" />
</g>
</svg>
