<?xml version="1.0" encoding="utf-8"?>
<svg version="1.1" id="Layer_1"
xmlns="http://www.w3.org/2000/svg"
xmlns:xlink="http://www.w3.org/1999/xlink"
xmlns:author="http://www.sothink.com"
width="157px" height="25px"
xml:space="preserve">
<g id="428" transform="matrix(1, 0, 0, 1, 0, 0)">
<linearGradient
id="LinearGradID_546" gradientUnits="userSpaceOnUse" gradientTransform="matrix(0, 0.0131226, -0.0123901, 0, 10.15, 12.15)" spreadMethod ="pad" x1="-819.2" y1="0" x2="819.2" y2="0" >
<stop  offset="0" style="stop-color:#FFF980;stop-opacity:1" />
<stop  offset="1" style="stop-color:#E7950A;stop-opacity:1" />
</linearGradient>
<path style="fill:url(#LinearGradID_546) " d="M156.45,6.55L155.8 13.95L155.35 16.3L155.3 16.4Q154.6 17.7 153.25 17.65Q151.75 17.65 151.2 16.4L151.2 16.35Q150.75 15.55 150.6 13.95L150.6 13.9L150.15 6.75L150 3.6Q150 1.95 150.95 1.05L150.95 1Q151.95 0 153.4 0Q155.4 0 156 1.45L156.05 1.5Q156.55 2.55 156.55 4.45L156.45 6.55M150.95,19.2L151 19.2Q151.95 18.25 153.25 18.25Q154.7 18.25 155.6 19.2Q156.55 20.15 156.55 21.5Q156.55 22.95 155.6 23.85Q154.6 24.75 153.3 24.75Q152.05 24.75 151.05 23.9Q150 23.05 150 21.5Q150 20.15 150.95 19.2M137.9,2.35Q139 3.3 139.6 4.8L139.6 4.75Q140.2 6.15 140.2 8Q140.2 11.85 137.8 13.85L137.8 13.9Q135.45 15.8 130.95 15.8L127.85 15.8L127.85 21.05Q127.85 22.8 127 23.7L127 23.75Q126.05 24.75 124.65 24.75Q123.2 24.75 122.35 23.75L122.3 23.7Q121.4 22.75 121.4 21.1L121.4 4.1Q121.4 2.05 122.45 1.25Q123.3 0.35 125.25 0.35L130.95 0.35L135.15 0.8Q136.75 1.25 137.9 2.3L137.9 2.35M133.15,6.45L133.1 6.4Q132.25 5.75 129.9 5.75L127.85 5.75L127.85 10.45L129.9 10.45L132.2 10.15L132.25 10.15L133.3 9.45Q133.65 8.95 133.65 8.1Q133.65 7.05 133.15 6.45M112.95,1L113 1Q113.85 0 115.3 0Q116.8 0 117.7 1Q118.55 1.9 118.55 3.7L118.55 14.3Q118.55 17 118 18.9Q117.45 20.8 115.9 22.35L115.85 22.4Q114.45 23.65 112.7 24.2L108.65 24.75L104.05 24.15Q101.9 23.5 100.6 22.2L100.6 22.25Q99.2 20.9 98.65 18.85Q98.05 16.9 98.05 14.3L98.05 3.7Q98.05 1.9 98.9 1L98.95 1Q99.8 0 101.25 0Q102.75 0 103.65 1Q104.5 1.9 104.5 3.7L104.5 14.5Q104.5 16.15 104.85 17.35Q105.2 18.2 105.95 18.65L105.95 18.7L108.35 19.2Q110.35 19.2 111.2 18.25L111.25 18.25Q112.1 17 112.1 14.6L112.1 3.7Q112.1 1.9 112.95 1M82.35,0.55L82.3 0.55Q82.95 0 84.1 0Q85.45 0 86.35 0.85Q87.25 1.65 87.25 2.95Q87.3 4.3 85.9 5.6L81.15 10.15L86.9 18.4L88 20.2L87.95 20.15Q88.4 21 88.4 21.95Q88.4 23.15 87.55 23.95Q86.7 24.75 85.2 24.75L83.2 24.3L83.1 24.2L81.9 22.85L81.15 21.65L81.2 21.65L76.55 14.55L74.1 16.95L74.1 21.05Q74.1 22.85 73.2 23.8Q72.3 24.75 70.85 24.75Q70.05 24.75 69.3 24.35L69.25 24.3L68.1 23.25L68 23.1Q67.7 22.55 67.7 21.8L67.65 20.05L67.65 3.7Q67.65 1.9 68.5 1L68.55 1Q69.4 0 70.85 0Q72.3 0 73.2 0.95L73.25 1Q74.1 1.9 74.1 3.7L74.1 8.95L81.1 1.6Q81.85 0.85 82.35 0.55M63.9,1L63.85 1Q64.7 1.85 64.7 3.55L64.7 20.85Q64.7 24.85 61.3 24.75L59.95 24.55Q59.15 24.35 58.55 23.7L58.65 23.75L57.75 22.9L57.65 22.75L57 21.75L57 21.7L50.4 11.65L50.4 21.2Q50.4 22.9 49.65 23.75Q48.8 24.75 47.35 24.75Q45.9 24.75 45.1 23.75Q44.3 22.9 44.3 21.2L44.3 4.2Q44.3 2.95 44.55 2.2L44.6 2.1Q45 1.2 45.9 0.6L45.95 0.55Q46.9 0 47.85 0Q48.8 0 49.35 0.3Q49.95 0.55 50.35 1L50.4 1.05L51.2 2L51.25 2.1L51.85 3.05L51.9 3.1L58.6 13.35L58.6 3.55Q58.6 1.85 59.4 1Q60.2 0 61.6 0Q63.05 0 63.9 1M42.05,23.8Q41.1 24.75 39.8 24.75L38.45 24.5L38.4 24.45L37.5 23.7L36.8 22.55L36.8 22.5L36.3 21.3L36.25 21.25L35.45 19.15L27.9 19.15L27.1 21.3L25.85 23.85L25.85 23.8Q25.25 24.75 23.65 24.75Q22.4 24.75 21.5 23.85Q20.5 22.9 20.55 21.75Q20.55 21.2 20.7 20.6L20.75 20.4L21.3 19.15L26.9 4.9L27.5 3.35L27.45 3.4Q27.8 2.35 28.3 1.7L28.3 1.75Q28.8 0.95 29.65 0.5Q30.35 0 31.65 0Q32.85 0 33.7 0.5Q34.55 0.95 35 1.65L35.05 1.75L35.75 3.05L36.5 4.8L42.25 19Q43 20.9 42.95 21.75Q43 22.8 42.1 23.8L42.05 23.8M31.65,8.7L29.85 13.8L33.5 13.8L31.65 8.7M17.95,2.55L18 2.6Q18.95 3.55 19.45 4.8Q19.9 6.05 19.9 7.45Q19.9 10.25 18.3 12.05L18.25 12.05L15.55 13.8L16.35 14.65L16.3 14.65L18.35 17.4L19.7 20.05L19.75 20.1L20.3 21.95L19.85 23.4L18.7 24.4L17.15 24.75L15.4 24.3L15.3 24.25L14.2 23.1L14.15 23.05L13.15 21.45L11.35 18.5L11.35 18.45L9.8 16.15L9.75 16.1Q9.15 15.45 8.6 15.25L8.55 15.25L7 14.95L6.45 14.95L6.45 21.05Q6.45 22.85 5.55 23.8Q4.65 24.75 3.2 24.75Q1.65 24.75 0.8 23.7Q0 22.75 0 21.05L0 4.1Q0 2.15 0.95 1.3Q1.8 0.35 3.7 0.35L10.95 0.35L13.7 0.5Q14.9 0.65 15.85 1.1L17.95 2.55M13.05,8.95L13.35 7.7L13.05 6.65Q12.75 6.2 12.25 6L9.55 5.75L6.45 5.75L6.45 9.8L9.45 9.8L11.85 9.55Q12.6 9.35 13.05 8.95" />
<path style="fill:#FFFFFF;fill-opacity:1" d="M155.55,21.7Q152.7 22 154.25 19.95L154.25 19.9Q155.45 20.35 155.6 21.5L155.55 21.7M155.05,3.95L155 4.15Q151.3 5.05 152.3 2.05L152.5 1.9Q155.3 1.55 155.05 3.95M137.5,5.3Q134.05 5.9 133.85 2.6Q133.8 2.15 134.25 2.15Q137.5 2.1 137.55 5.15L137.5 5.3M122.9,3.65Q122.95 2.4 124.05 1.8L124.5 1.65Q126.65 1.9 126.25 3.75L126.2 3.95Q124.35 5.2 122.9 3.65M117.15,3.15Q113.35 4.9 114.55 1.55Q114.7 1.15 115 1.15Q116.95 1.1 117.1 2.95L117.15 3.15M103.65,2.15Q102.35 5.65 99.95 2.2Q99.45 1.55 100.25 1.4Q102.05 1.05 103.5 2L103.65 2.15M83.25,1.4Q85.8 1.35 85.5 3.5L85.45 3.7L82.7 3.8Q82.1 3.05 82.45 2.1Q82.7 1.5 83.25 1.4M71.8,1.75Q72.2 2.05 72.2 2.5L72 3.8Q68 4.75 69.5 1.65L69.75 1.4L71.5 1.6L71.8 1.75M63.2,2.4L63.4 3.7L63.4 3.9Q62.05 5.1 60.45 4.3L60.25 4.15L60 3.4Q59.85 2.2 60.75 1.9L62.8 2.1L63.05 2.2L63.2 2.4M47.5,1.9Q50.55 1.4 50.3 4.1L50.25 4.3L47.75 4.8L47.4 4.75Q46.9 4.1 46.8 3.25Q46.65 2.15 47.5 1.9M30.95,4.55Q30.45 3.95 30.6 3.05Q30.75 2.25 31.5 2.15Q34.75 1.95 34.55 4.7L34.5 4.9L30.95 4.55M17.6,5.55L17.55 5.75Q13.55 6.35 14.8 2.3L15 2.15Q17.85 2.85 17.6 5.55M4.3,2.05L4.5 2.2L4.55 3.35L4.25 4.05Q3.1 4.95 1.95 4.05Q1.55 2.85 2.35 2Q2.7 1.65 3 1.65Q3.7 1.7 4.3 2.05" />
</g>
</svg>
