<?xml version="1.0" encoding="utf-8"?>
<svg version="1.1" id="Layer_1"
xmlns="http://www.w3.org/2000/svg"
xmlns:xlink="http://www.w3.org/1999/xlink"
xmlns:author="http://www.sothink.com"
width="86px" height="86px"
xml:space="preserve">
<g id="773" transform="matrix(1, 0, 0, 1, -5.25, -5.25)">
<path style="fill:#B5864A;fill-opacity:1" d="M12.4,19.5L12.4 16.5Q12.4 12.45 16.35 12.45L20.7 12.45L20.75 12.7L21 13.1L21.3 13.4Q21.55 14.35 22.75 15.3L25.35 17.55L27.65 20L29.1 21.5L29.6 22.65L29.6 21.85Q28.15 16.75 26.75 15.85L24.25 14.2L23.9 14.05L22.25 12.45L72.6 12.45Q72.65 12.85 73.4 13.65L74.95 16.1Q75.75 17.85 75.75 20.05Q75.75 20.7 74.7 21.7L71.6 24.65L71.55 24.8L71.55 24.9L71.6 24.9L72.2 25.3Q73.2 25.3 74.55 24.25L75.75 23Q75.65 22.7 76.3 21.5Q77 20.3 77 19.75L76.75 18.25L76.1 16.6L75.9 16L75.9 15.8L75.5 14.9L74.45 12.45L80 12.45L80.15 12.45Q83.9 12.55 84.05 16.1L84.05 16.5L84.05 80.1Q84.05 84.1 80 84.1L16.35 84.1Q12.4 84.1 12.4 80.1L12.4 79.35L12.4 19.5" />
<path style="fill:#EFBE73;fill-opacity:1" d="M86.1,5.25L80.15 12.45L80 12.45L74.45 12.45Q73.75 11.2 73.75 9.55Q73.75 8.95 74.95 7.15Q75.5 6.3 75.4 5.25L86.1 5.25M75.9,16L76.1 16.6L76.75 18.25L77 19.75Q77 20.3 76.3 21.5Q75.65 22.7 75.75 23L74.55 24.25Q73.2 25.3 72.2 25.3L71.6 24.9L72.85 24.65Q74.15 24.15 75.4 22.5Q76.6 20.85 76.45 18.8L75.9 16M22.2,12.4Q20.75 11.1 20.75 9.75Q20.75 7.8 21.3 7.1L22.85 5.25L69.8 5.25Q70 7.1 71.15 8.7Q71.8 9.6 72.2 11.05L72.6 12.45L22.25 12.45L22.2 12.4M29.1,21.5L27.65 20L25.35 17.55L22.75 15.3Q21.55 14.35 21.3 13.4L22.2 14.15L25.15 16.5Q27.35 18.25 29.1 21.5M20.05,5.25L19.65 6.6L20.05 9.45Q20.4 11.6 20.7 12.45L16.35 12.45Q12.4 12.45 12.4 16.5L12.4 19.5Q9.9 17.75 5.25 13.8L5.25 10.1Q5.25 5.25 9.95 5.25L20.05 5.25" />
<path style="fill:#633818;fill-opacity:1" d="M76.45,18.8Q76.6 20.85 75.4 22.5Q74.15 24.15 72.85 24.65L71.6 24.9L71.55 24.9L71.55 24.8L71.6 24.65L74.7 21.7Q75.75 20.7 75.75 20.05Q75.75 17.85 74.95 16.1L73.4 13.65Q72.65 12.85 72.6 12.45L72.2 11.05Q71.8 9.6 71.15 8.7Q70 7.1 69.8 5.25L75.4 5.25Q75.5 6.3 74.95 7.15Q73.75 8.95 73.75 9.55Q73.75 11.2 74.45 12.45L75.5 14.9L75.9 15.8L75.9 16L76.45 18.8M22.85,5.25L21.3 7.1Q20.75 7.8 20.75 9.75Q20.75 11.1 22.2 12.4L22.25 12.45L23.9 14.05L24.25 14.2L26.75 15.85Q28.15 16.75 29.6 21.85L29.6 22.65L29.1 21.5Q27.35 18.25 25.15 16.5L22.2 14.15L21.3 13.4L21 13.1L20.75 12.7L20.7 12.45Q20.4 11.6 20.05 9.45L19.65 6.6L20.05 5.25L22.85 5.25" />
<path style="fill:#794431;fill-opacity:1" d="M91.25,10.9L91.25 86.5Q91.25 91.25 86.5 91.25L9.95 91.25Q5.25 91.25 5.25 86.5L5.25 81.35L12.4 79.35L12.4 80.1Q12.4 84.1 16.35 84.1L80 84.1Q84.05 84.1 84.05 80.1L84.05 16.5L84.05 16.1L91.25 10.9" />
<path style="fill:#9C663C;fill-opacity:1" d="M5.25,13.8Q9.9 17.75 12.4 19.5L12.4 79.35L5.25 81.35L5.25 13.8" />
<path style="fill:#874330;fill-opacity:1" d="M86.1,5.25L86.5 5.25Q91.25 5.25 91.25 10.1L91.25 10.9L84.05 16.1Q83.9 12.55 80.15 12.45L86.1 5.25" />
<path style="fill:#633818;fill-opacity:1" d="M21.95,77.7Q21.4 78.35 20.55 78.35Q19.65 78.35 19.05 77.7Q18.55 77.15 18.45 76.45L18.45 76.25Q18.45 75.4 19.05 74.8Q19.65 74.2 20.55 74.2Q21.4 74.2 21.95 74.8Q22.6 75.4 22.6 76.25L22.6 76.45Q22.5 77.15 21.95 77.7" />
<path style="fill:#EFBE73;fill-opacity:1" d="M22.6,76.45L22.6 76.6L22.6 76.7Q22.5 77.7 21.95 78.35Q21.4 79.1 20.55 79.1Q19.65 79.1 19.05 78.35Q18.45 77.7 18.45 76.7L18.45 76.6L18.45 76.45Q18.55 77.15 19.05 77.7Q19.65 78.35 20.55 78.35Q21.4 78.35 21.95 77.7Q22.5 77.15 22.6 76.45" />
<path style="fill:#633818;fill-opacity:1" d="M80.4,31.6Q79.9 32.05 79.2 32.05Q78.6 32.05 78.1 31.6L77.7 30.85L77.7 30.65L77.7 30.5Q77.7 29.85 78.1 29.4Q78.6 28.95 79.2 28.95Q79.9 28.95 80.4 29.4Q80.8 29.85 80.8 30.5L80.8 30.65L80.8 30.7Q80.8 31.2 80.4 31.6" />
<path style="fill:#EFBE73;fill-opacity:1" d="M80.8,30.7L80.8 30.85Q80.8 31.6 80.4 32.1Q79.9 32.65 79.2 32.65Q78.6 32.65 78.1 32.1Q77.7 31.6 77.7 30.85L78.1 31.6Q78.6 32.05 79.2 32.05Q79.9 32.05 80.4 31.6Q80.8 31.2 80.8 30.7" />
<path style="fill:#633818;fill-opacity:1" d="M71.05,45.2L71.05 38.7L71.05 23.15L26.55 23.15L26.55 38.7L26.55 45.4Q26.35 47.85 28.25 47.45L69.1 47.45Q70.5 47.15 71.05 45.2M72.55,22.9L72.55 27.15L76.5 27.15L76.5 22.9L72.55 22.9M37.4,58.55L46.85 58.55L46.85 75.15L37.4 75.15L37.4 58.55M33.2,58.6L33.2 78.85L24.1 78.85L18.6 73.4L18.6 18.25L79 18.25L79 78.85L64.85 78.85L64.85 58.9Q64.85 56.5 62.15 56.35L35.05 56.35Q33.2 56.1 33.2 58.6" />
<path style="fill:#FFF2DE;fill-opacity:1" d="M69.1,47.45L28.25 47.45Q26.35 47.85 26.55 45.4L26.55 38.7L26.55 23.15L71.05 23.15L71.05 38.7L71.05 45.2Q70.5 47.15 69.1 47.45" />
</g>
</svg>
