<?xml version="1.0" encoding="utf-8"?>
<svg version="1.1" id="Layer_1"
xmlns="http://www.w3.org/2000/svg"
xmlns:xlink="http://www.w3.org/1999/xlink"
xmlns:author="http://www.sothink.com"
width="75px" height="25px"
xml:space="preserve">
<g id="123" transform="matrix(1, 0, 0, 1, 0, 12.2)">
<linearGradient
id="LinearGradID_218" gradientUnits="userSpaceOnUse" gradientTransform="matrix(0, 0.00263977, -0.00411987, 0, -52.05, 2.35)" spreadMethod ="pad" x1="-819.2" y1="0" x2="819.2" y2="0" >
<stop  offset="0" style="stop-color:#FAED2D;stop-opacity:1" />
<stop  offset="1" style="stop-color:#FFFEF3;stop-opacity:1" />
</linearGradient>
<path style="fill:url(#LinearGradID_218) " d="M0,6.2L0 5.8Q0 3.1 1.4 1.35Q2.85 -0.4 5.35 -0.4Q9.7 -0.4 10.25 4.25L7.3 4.45Q7.25 1.9 5.3 1.9Q3.1 1.9 3.1 5.8L3.1 6.1L0 6.2" />
<path style="fill:#EEBE23;fill-opacity:1" d="M3.1,6.1Q3.15 8.15 3.7 8.9Q4.3 9.7 5.4 9.7Q7.1 9.7 7.5 7.4L10.25 7.6Q9.95 9.75 8.65 10.85Q7.3 12 5.35 12Q2.95 12 1.5 10.35Q0.1 8.8 0 6.2L3.1 6.1" />
<linearGradient
id="LinearGradID_219" gradientUnits="userSpaceOnUse" gradientTransform="matrix(0, 0.00263977, -0.00411987, 0, -52.05, -3.85)" spreadMethod ="pad" x1="-819.2" y1="0" x2="819.2" y2="0" >
<stop  offset="0" style="stop-color:#FAED2D;stop-opacity:1" />
<stop  offset="1" style="stop-color:#FFFEF3;stop-opacity:1" />
</linearGradient>
<path style="fill:url(#LinearGradID_219) " d="M11.85,-0.3L11.85 -6.4L14.7 -6.4L14.7 -0.35L11.85 -0.3" />
<path style="fill:#EEBE23;fill-opacity:1" d="M11.85,-0.3L14.7 -0.35L14.7 3.25L19.45 3.25L19.45 5.6L11.85 5.6L11.85 -0.3" />
<linearGradient
id="LinearGradID_220" gradientUnits="userSpaceOnUse" gradientTransform="matrix(0, 0.00263977, -0.00411987, 0, -52.05, -6.85)" spreadMethod ="pad" x1="-819.2" y1="0" x2="819.2" y2="0" >
<stop  offset="0" style="stop-color:#FAED2D;stop-opacity:1" />
<stop  offset="1" style="stop-color:#FFFEF3;stop-opacity:1" />
</linearGradient>
<path style="fill:url(#LinearGradID_220) " d="M20.9,-3.5L20.9 -9.4L29.45 -9.4L29.45 -7.1L23.75 -7.1L23.75 -4.65L28.25 -4.65L28.25 -3.65L20.9 -3.5" />
<path style="fill:#EEBE23;fill-opacity:1" d="M28.25,-3.65L28.25 -2.4L23.75 -2.4L23.75 0.25L29.45 0.25L29.45 2.6L20.9 2.6L20.9 -3.5L28.25 -3.65" />
<linearGradient
id="LinearGradID_221" gradientUnits="userSpaceOnUse" gradientTransform="matrix(0, 0.00263977, -0.00411987, 0, -52.05, -9.65)" spreadMethod ="pad" x1="-819.2" y1="0" x2="819.2" y2="0" >
<stop  offset="0" style="stop-color:#FAED2D;stop-opacity:1" />
<stop  offset="1" style="stop-color:#FFFEF3;stop-opacity:1" />
</linearGradient>
<path style="fill:url(#LinearGradID_221) " d="M35.9,-6.6L35.15 -9.1L34.4 -6.6L32 -6.55L33.8 -12.2L37.05 -12.2L38.8 -6.7L35.9 -6.6" />
<path style="fill:#EEBE23;fill-opacity:1" d="M35.9,-6.6L38.8 -6.7L40.8 -0.2L37.8 -0.2L37.05 -2.65L33.15 -2.65L32.4 -0.2L29.95 -0.2L32 -6.55L34.4 -6.6L33.85 -4.9L36.4 -4.9L35.9 -6.6" />
<linearGradient
id="LinearGradID_222" gradientUnits="userSpaceOnUse" gradientTransform="matrix(0, 0.00263977, -0.00411987, 0, -52.05, -6.85)" spreadMethod ="pad" x1="-819.2" y1="0" x2="819.2" y2="0" >
<stop  offset="0" style="stop-color:#FAED2D;stop-opacity:1" />
<stop  offset="1" style="stop-color:#FFFEF3;stop-opacity:1" />
</linearGradient>
<path style="fill:url(#LinearGradID_222) " d="M46.6,-7.25L44.95 -7.25L44.95 -4.2L46.65 -4.2L47.9 -4.3L48.55 -4.85L48.85 -5.8L48.55 -6.7L47.9 -7.15L46.6 -7.25M42.1,-3.95L42.1 -9.4L47.4 -9.4L49.7 -9.05Q50.6 -8.7 51.2 -7.8Q51.75 -6.9 51.75 -5.8Q51.75 -4.9 51.4 -4.15L42.1 -3.95" />
<path style="fill:#EEBE23;fill-opacity:1" d="M51.4,-4.15Q50.85 -3.25 49.7 -2.7L51.9 2.6L48.8 2.6L46.95 -2.15L44.95 -2.15L44.95 2.6L42.1 2.6L42.1 -3.95L51.4 -4.15" />
<linearGradient
id="LinearGradID_223" gradientUnits="userSpaceOnUse" gradientTransform="matrix(0, 0.00263977, -0.00411987, 0, -52.05, -3.45)" spreadMethod ="pad" x1="-819.2" y1="0" x2="819.2" y2="0" >
<stop  offset="0" style="stop-color:#FAED2D;stop-opacity:1" />
<stop  offset="1" style="stop-color:#FFFEF3;stop-opacity:1" />
</linearGradient>
<path style="fill:url(#LinearGradID_223) " d="M53.95,-0.8L53.95 -6L62.5 -6L62.5 -3.7L56.8 -3.7L56.8 -1.25L61.3 -1.25L61.3 -1L53.95 -0.8" />
<path style="fill:#EEBE23;fill-opacity:1" d="M53.95,-0.8L61.3 -1L61.3 1L56.8 1L56.8 3.65L62.5 3.65L62.5 6L53.95 6L53.95 -0.8" />
<linearGradient
id="LinearGradID_224" gradientUnits="userSpaceOnUse" gradientTransform="matrix(0, 0.00263977, -0.00411987, 0, -52.05, -0.65)" spreadMethod ="pad" x1="-819.2" y1="0" x2="819.2" y2="0" >
<stop  offset="0" style="stop-color:#FAED2D;stop-opacity:1" />
<stop  offset="1" style="stop-color:#FFFEF3;stop-opacity:1" />
</linearGradient>
<path style="fill:url(#LinearGradID_224) " d="M71.05,1.6L70.75 0.7Q70.3 -0.25 69.65 -0.6Q69.05 -1 68.15 -1L66.95 -1L66.95 1.7L64.2 1.75L64.2 -3.2L67.85 -3.2Q70.1 -3.2 71.2 -2.55Q72.3 -1.95 73.15 -0.6Q73.75 0.3 73.95 1.5L71.05 1.6" />
<path style="fill:#EEBE23;fill-opacity:1" d="M66.95,6.55L68.1 6.55Q69.65 6.55 70.4 5.4Q71.15 4.25 71.15 2.7L71.05 1.6L73.95 1.5L74.05 2.75Q74.05 5.35 72.5 7.1Q71 8.8 68.35 8.8L64.2 8.8L64.2 1.75L66.95 1.7L66.95 6.55" />
</g>
</svg>
