<?xml version="1.0" encoding="utf-8"?>
<svg version="1.1" id="Layer_1"
xmlns="http://www.w3.org/2000/svg"
xmlns:xlink="http://www.w3.org/1999/xlink"
xmlns:author="http://www.sothink.com"
width="299px" height="227px"
xml:space="preserve">
<g id="2853" transform="matrix(1, 0, 0, 1, 0, 0)">
<path style="fill:#FFFFFF;fill-opacity:1" d="M289.8,150.65Q288.5 150.65 285.95 142.3Q282.6 131.35 279.55 126L276.3 139.75Q274 149.9 271.15 151.2Q271.15 150.7 270 148.25L268.85 145.5L267 145.5L266.15 150.85Q265.35 155.55 264.2 157.4L261.95 151.85Q260 146.75 259.1 146.05Q256.25 160.85 255.35 161.95Q244.75 129 243.7 122.55L242.75 122.55Q242.15 124.15 241.45 138.65Q240.75 153.15 239.5 156.3Q237.65 156.3 236.55 157.3Q235.95 157.85 235.3 159.05Q233.7 156.85 233 156.85Q232.45 156.85 230.5 161.85L228.3 167.7Q226.6 169.65 223.65 169.45L219.7 168.85Q219.3 168.85 217.9 167.75Q216.45 166.55 215.7 166.55Q215.15 166.55 213.95 167.1Q212.8 167.7 212.2 167.7Q210.1 167.7 208.75 166.45Q206.8 164.3 204.55 162.5Q204.65 163.75 203.65 166Q202.65 168.3 202.7 168.85L201.75 168.85Q192.05 140.2 192.05 134.6L191.5 134.6Q189.95 146.05 188.75 168.15Q188.1 179.75 185.65 179.75Q184 179.75 182.3 173.85Q180.45 167.5 177.55 166.55Q175.45 165.9 173.65 162.9Q172.1 160.25 170.3 160.25Q169.75 160.25 168.7 160.85L167.05 161.4Q166.45 161.4 164.55 157.8Q162.6 154.1 161.7 154.1Q161.3 154.1 159.4 154.95Q157.5 155.75 156.8 155.75Q154 155.75 150.2 144.05Q146.3 132.2 146.9 124.2L146.45 124.2Q141.75 157.6 139.35 164.05Q138.15 167.2 135.8 169.85L130.15 176.3Q127.8 173.75 126.35 173.45Q126.35 174.8 125 182Q123.2 181.95 122 180.9L119.9 179.1Q119 180.2 116.8 184.35Q114.95 187.7 114.5 187.7Q111.3 187.7 97.05 163.15Q95.65 163.6 94.8 164.35Q94 165.05 92.85 165.4L91.3 162Q89.6 158.6 88.7 157.95Q88.7 158.6 88.15 159.45L87.3 160.8Q86.4 158.65 84.25 140.45Q82.15 123.1 82.15 120.25L81.25 120.25Q79.55 123.35 78.9 156.3Q76.35 156.3 74.35 159.25L72.35 162.5L70.95 159.6L69.1 156.3L66.8 164.3L64.45 169.95Q62.6 167.7 61.65 167.7Q61.25 167.7 60.25 168.8L58.85 169.95L56.85 166.25Q55.2 163.55 53.3 163.15Q53.2 166.65 52.4 167.45L50.95 167.7Q50.3 167.7 47.9 161.7Q45.5 155.75 44.65 155.75Q43.2 155.75 41.85 159.75Q40.55 163.7 38.85 163.7Q36.3 163.7 31.55 148.8Q27.8 137.05 25.35 125.45Q25.35 130.9 24.45 137.25Q22.85 148.5 19.25 150.65Q17.9 149.7 16.25 141.3Q14.65 133.4 12.95 133.4Q11.5 133.4 9.2 136.8L6.2 140.8Q6.2 136.4 4.9 131.35Q3.25 124.9 0.65 124.9L0.3 124.95L0.45 89.1L1.6 93.6L2 94.5Q2 48 2.5 41.75L3.4 41.75Q3.4 42.1 3.65 42.25L3.9 42.3Q4.9 50 5.65 65.85L6.1 78.45L6.2 82.9L6.2 79.05Q6.25 81.45 10.15 96.3Q12.15 103.85 12.9 108.05L13.2 109.95L13.2 111.65L13.2 112.85Q13.45 112.05 13.2 109.95L13.2 108.05L12.55 55.95L12.25 8.55L18.65 54.85L25.75 103.65L25.7 102.55Q25.75 101.95 26.45 101.95Q27.05 101.95 28.3 103.05L30.45 104.75Q30.45 104.2 30.9 104.2Q30.4 102.8 31.3 100.55Q31.95 98.95 32.75 97.9L35.85 106.9L36.2 108.05L39.5 120.1Q41.2 126.95 43.45 127.7Q43.45 127.15 43.95 127.15L44.35 108.05L44.4 102.55L44.4 90.55Q44.45 60.3 46.25 48.65L46.25 49.25Q45.75 60.45 48.5 81.65Q50 93.25 51.25 99.5Q52.1 103.7 52.8 105.4L53.25 104.6Q53.45 104.2 53.7 104.2L53.95 99.9L54.15 98.25L54.3 98.2Q56 105.1 56.5 105.95Q57.4 99.75 57.9 98.5Q58.2 98.85 58.55 99L58.85 99.05Q59.55 100.9 60.3 104.1L61.1 107.05Q61.1 106.5 61.65 106.5Q61.85 105.5 62.45 104.6Q63.25 103.55 64.45 103.05Q65.35 104.3 66.35 108.05L66.6 109Q67.7 113.25 67.7 115.1L69.1 115.1L69.65 108.05L70.3 92.55L70.6 82.45Q71.4 56.55 71.4 48.05L71.9 48.05Q71.9 52.75 75.25 69.35Q78.7 86.2 80.95 89.5L81.2 89.9L81.25 89.45L82.8 89.1L83.15 91.3Q84 96.7 84.45 97.9L84.95 97.9L84.95 93.35L85.4 93.35Q87.2 94.8 88.2 107.6L88.65 107.6Q88.65 106.5 89.1 106.5Q89.1 104.2 89.6 101.95L90.05 101.95Q89.8 105.4 90.25 108.05Q90.75 111.2 92.15 113.2L92.1 108.05Q92.05 95.7 92.6 72.2Q97.35 114.2 95.4 76.55Q93.4 38.9 100 80.9Q106.55 122.9 104.95 13.15L105.6 13.7L105.9 14.25Q105.9 14.6 106.15 14.8L106.35 14.85Q107.7 44.15 117.15 71.65Q119.25 77.75 121.45 82.95L123.75 88Q126.65 93.9 127.25 93.9Q128.3 93.9 131.05 91.65L134.3 88.7Q134.3 90.3 135.05 93.5Q136.05 97.9 137.55 97.9Q142 97.9 145.55 84L146.1 81.75Q148.25 73 148.3 68.9Q148.35 72.2 149.2 76.75L149.65 76.75Q150.1 74.8 150.7 74.15L152 72.75Q158.7 129.2 160.4 75.85Q162.1 22.5 164.5 57.95L167.05 100.75Q167.3 108.15 168.15 107.4L169.4 106.45L169.6 107.5L169.75 108.05L170.1 108.7L170.15 108.05L170.75 82.45Q171.95 30.65 171.95 10.2L172.9 10.2Q174 19.95 178.8 50.65Q182.1 71.55 184.3 83.6L186.4 94.45L186.4 93.9Q186.4 92.1 186.85 91.55Q187.3 92.1 188.3 96.15Q189.2 100.1 190.6 101.35L190.6 96.8L192.8 101.45L195.25 107.6L195.25 107.05Q195.7 105.95 195.7 104.2L196.65 108.05L197.1 109.65Q197.7 111.1 198.95 111.1Q199.5 111.1 200.25 110.55Q200.95 109.95 201.55 109.95Q203.05 109.95 204.05 113.8Q205.35 118.8 206.45 120.25Q206.45 116 206.75 108.05Q207.05 99.7 207.7 87.3L208.75 67.45Q211.05 26.35 211.05 16.55L212 16.55Q212.35 17.9 212.7 27.05Q213.2 39.15 213.75 46.05Q215.9 73.45 222.7 81.85L222.7 77.3L223.2 77.3L223.8 80.15L224.6 83L225.05 82.45L225.05 79L226 79L226.6 80.75L227.4 82.45Q227.4 81.85 227.85 81.85Q227.85 80.4 228.75 77.2Q229.6 74 230.15 73.3L230.15 73.85Q230 75.95 231.3 79.2Q232.45 82.15 233.45 83L234 73.05L234.15 70.15L234.3 67.3L234.35 70.25L236.4 37.25L237.25 34.25L238.35 45.8Q238.3 20.35 241.3 47.65Q244.3 74.95 245.85 84.4Q247.35 93.8 250.2 97.35Q250.2 95.6 250.65 95.6Q250.65 96 252 100.45L252.35 101.7L253.45 105.3L253.45 102.2L254.75 102.8L255.7 105Q256.7 107.4 257.55 108.05L257.65 108.15L257.65 108.05Q257.7 107.6 258.1 107.6L258.1 105.3L259.35 108.05L260.25 110.45Q261.5 113.95 262.3 113.95Q264.5 113.95 265.45 111L265.95 108.85L266.1 108.05Q266.65 104.65 267.05 98.8Q268.6 64.9 271.15 27.35L271.15 28.05L273.75 59.9Q276.3 92.8 276.3 106.5L276.75 106.5Q277.7 102.85 277.7 100.2L278.15 100.2Q278.15 101.35 278.6 101.35L278.6 100.75L278.85 98.25L279.1 96.15L279.55 96.15L279.8 98.15L280 99.6L280 99.05L280.5 96.65Q280.75 94.6 280.95 93.9L281.4 94.45Q283.1 103.5 283.75 106.1L284.3 108.05Q285.15 111.1 286.1 112.2L286.15 108.05Q286.25 89 287.45 61.05Q289.05 25.15 291.2 8.55L291.2 9.65Q291.8 12.75 292.65 22.25L293.5 32.7Q294.8 49.2 294.9 55.6L294.95 56.7L297.15 143.9Q293.7 150.65 289.8 150.65M240.45,15.75L241.05 22.05L240 24.5L239.4 22.7Q238.4 19.6 239.25 33.05Q236.65 11.5 236.25 6.2Q236.25 2.45 236.4 1.9Q236.7 0.85 238.6 0Q239.15 1.7 240.45 15.75M139.85,26.8Q140.4 28.45 140.4 37.3Q140.4 42.8 139 55.25L137.6 68.55L138.05 50.35Q138.05 44.65 137.4 39.05L137 35.9L137.1 35.4Q138.05 36.55 138.05 38.3L138.5 38.3L138.75 34.25L138.95 27.9Q139.4 27.9 139.4 26.8L139.85 26.8M66,10.75L66.55 10.85L65.2 21.15L63.5 33.15L63.5 32.6L63.05 24.4L62.55 16.45L63.5 13.65Q64.7 10.75 66 10.75M28.55,9.65Q29.2 10.5 30.1 12.7L29.75 17.35L29.45 23.1Q29.45 26.6 30.4 39.65L31.35 52.6L30.85 52.05Q30.85 50.6 29.7 44.3Q28.35 36.7 27.15 36L27.15 36.55Q26.75 37.05 26.7 38.15L26.7 33.7Q27.1 12.3 27.6 9.65L28.55 9.65" />
<path style="fill:#ECA8FF;fill-opacity:1" d="M0.3,124.95L0.65 124.9Q3.25 124.9 4.9 131.35Q6.2 136.4 6.2 140.8L9.2 136.8Q11.5 133.4 12.95 133.4Q14.65 133.4 16.25 141.3Q17.9 149.7 19.25 150.65Q22.85 148.5 24.45 137.25Q25.35 130.9 25.35 125.45Q27.8 137.05 31.55 148.8Q36.3 163.7 38.85 163.7Q40.55 163.7 41.85 159.75Q43.2 155.75 44.65 155.75Q45.5 155.75 47.9 161.7Q50.3 167.7 50.95 167.7L52.4 167.45Q53.2 166.65 53.3 163.15Q55.2 163.55 56.85 166.25L58.85 169.95L60.25 168.8Q61.25 167.7 61.65 167.7Q62.6 167.7 64.45 169.95L66.8 164.3L69.1 156.3L70.95 159.6L72.35 162.5L74.35 159.25Q76.35 156.3 78.9 156.3Q79.55 123.35 81.25 120.25L82.15 120.25Q82.15 123.1 84.25 140.45Q86.4 158.65 87.3 160.8L88.15 159.45Q88.7 158.6 88.7 157.95Q89.6 158.6 91.3 162L92.85 165.4Q94 165.05 94.8 164.35Q95.65 163.6 97.05 163.15Q111.3 187.7 114.5 187.7Q114.95 187.7 116.8 184.35Q119 180.2 119.9 179.1L122 180.9Q123.2 181.95 125 182Q126.35 174.8 126.35 173.45Q127.8 173.75 130.15 176.3L135.8 169.85Q138.15 167.2 139.35 164.05Q141.75 157.6 146.45 124.2L146.9 124.2Q146.3 132.2 150.2 144.05Q154 155.75 156.8 155.75Q157.5 155.75 159.4 154.95Q161.3 154.1 161.7 154.1Q162.6 154.1 164.55 157.8Q166.45 161.4 167.05 161.4L168.7 160.85Q169.75 160.25 170.3 160.25Q172.1 160.25 173.65 162.9Q175.45 165.9 177.55 166.55Q180.45 167.5 182.3 173.85Q184 179.75 185.65 179.75Q188.1 179.75 188.75 168.15Q189.95 146.05 191.5 134.6L192.05 134.6Q192.05 140.2 201.75 168.85L202.7 168.85Q202.65 168.3 203.65 166Q204.65 163.75 204.55 162.5Q206.8 164.3 208.75 166.45Q210.1 167.7 212.2 167.7Q212.8 167.7 213.95 167.1Q215.15 166.55 215.7 166.55Q216.45 166.55 217.9 167.75Q219.3 168.85 219.7 168.85L223.65 169.45Q226.6 169.65 228.3 167.7L230.5 161.85Q232.45 156.85 233 156.85Q233.7 156.85 235.3 159.05Q235.95 157.85 236.55 157.3Q237.65 156.3 239.5 156.3Q240.75 153.15 241.45 138.65Q242.15 124.15 242.75 122.55L243.7 122.55Q244.75 129 255.35 161.95Q256.25 160.85 259.1 146.05Q260 146.75 261.95 151.85L264.2 157.4Q265.35 155.55 266.15 150.85L267 145.5L268.85 145.5L270 148.25Q271.15 150.7 271.15 151.2Q274 149.9 276.3 139.75L279.55 126Q282.6 131.35 285.95 142.3Q288.5 150.65 289.8 150.65Q293.7 150.65 297.15 143.9L297.2 146.5L298.05 149.45L298.6 152.35L298.6 153.95Q298.6 183.85 254.85 205Q211.15 226.15 149.3 226.15Q87.45 226.15 43.7 205Q1.35 184.5 0.05 155.75L0 153.9L0.2 150.15L0.3 124.95" />
</g>
</svg>
