<?xml version="1.0" encoding="utf-8"?>
<svg version="1.1" id="Layer_1"
xmlns="http://www.w3.org/2000/svg"
xmlns:xlink="http://www.w3.org/1999/xlink"
xmlns:author="http://www.sothink.com"
width="8px" height="9px"
xml:space="preserve">
<g id="1819" transform="matrix(1, 0, 0, 1, -3.2, -11.2)">
<path style="fill:#4D3212;fill-opacity:1" d="M4.8,11.25Q6 11.4 7.7 13Q9.45 14.5 10.25 16.2Q11.15 17.85 11.15 18.6Q11.1 19.3 10.65 19.65Q9.8 20.15 8.35 19.4L7.85 19.05Q4.65 16.95 3.8 15Q2.95 12.95 3.3 12.05Q3.55 11 4.8 11.25M9.5,17.25L9.45 17.25L9.35 17L8.95 16.4L7.45 14.45Q5.75 12.4 5.05 12.25Q4.45 12.05 4.3 12.75L4.3 12.95L4.25 13Q4.3 13.85 5.6 15.35L7.85 17.65L9.35 18.65Q9.95 18.75 9.9 18.3L9.5 17.25" />
<path style="fill:#9A7226;fill-opacity:1" d="M9.35,17L9.45 17.25L9.5 17.25L9.1 17.25Q8.1 17.2 6.05 14.95L4.5 13.05Q4.8 13.15 5.1 13.4L6.65 14.5L8.95 16.4L9.35 17" />
<path style="fill:#B49148;fill-opacity:1" d="M4.3,12.75Q4.45 12.05 5.05 12.25Q5.75 12.4 7.45 14.45L8.95 16.4L6.65 14.5L5.1 13.4Q4.8 13.15 4.5 13.05L4.3 12.75" />
<path style="fill:#745416;fill-opacity:1" d="M9.9,18.3Q9.95 18.75 9.35 18.65L7.85 17.65L5.6 15.35Q4.3 13.85 4.25 13L4.3 12.95L4.3 12.75L4.5 13.05L6.05 14.95Q8.1 17.2 9.1 17.25L9.5 17.25L9.9 18.3" />
</g>
</svg>
