<?xml version="1.0" encoding="utf-8"?>
<svg version="1.1" id="Layer_1"
xmlns="http://www.w3.org/2000/svg"
xmlns:xlink="http://www.w3.org/1999/xlink"
xmlns:author="http://www.sothink.com"
width="67px" height="12px"
xml:space="preserve">
<g id="138" transform="matrix(1, 0, 0, 1, 19.3, 3.75)">
<path style="fill:#FFFFFF;fill-opacity:1" d="M4.7,-3.45L5.1 -3.35L5.45 -2.2L5.85 -0.95L6.3 0.1L6.8 -0.95L7.15 -2.2L7.6 -3.3L8.35 -3.4L9.3 -3.4L9.6 -3.4L9.85 -3.4L9.85 -3.35L8.4 0.3L6.75 3.85L5.2 7.5L5 7.5L4.8 7.5L4.1 7.5L3.35 7.55L3.15 7.5L2.95 7.5L2.9 7.5L3.9 4.85L5 2.05L4.35 0.2L3.6 -1.65L3 -3.35L3.65 -3.4L4.35 -3.45L4.7 -3.45M0.55,-0.2L0.9 1.1L1.1 2L2.3 7.5L1.25 7.55L0.1 7.45L-0.1 6.65L-0.35 5.65L-0.6 4.9L-1 4.85L-1.25 4.9L-1.6 4.9L-1.8 5.7L-2 6.65L-2.25 7.5L-2.3 7.5L-3 7.5L-4.5 7.5L-4.55 7.45L-4.45 6.7L-4.1 4.9L-3.6 2.45L-3 -0.45L-2.2 -3.5L-1.8 -3.5L-1.25 -3.5L-0.2 -3.6L-0.05 -2.85L0.2 -1.6L0.55 -0.2M-17,-1.25L-17 0L-16.85 1.15L-16.8 1.15L-16.05 1.15L-15.35 1.05L-14.75 0.65L-14.55 0.15L-14.65 -0.45L-14.95 -0.85L-15.95 -1.3L-16.95 -1.25L-17 -1.25M-17.6,-3.7L-15.75 -3.65L-14.05 -3.1Q-13.3 -2.7 -12.8 -1.95Q-12.3 -1.3 -12.25 -0.2L-12.25 0L-12.25 0.2Q-12.4 1.25 -13.05 2L-14.65 3.15L-16.55 3.4L-16.55 3.8L-16.55 4.4L-16.5 5.55L-16.5 7.3L-16.55 7.35L-17.35 7.45L-18.3 7.45L-19.15 7.4L-19.25 4.05L-19.25 0.25Q-19.2 -1.7 -19.3 -3.4L-17.6 -3.7M-11.6,-3.55L-10.9 -3.7L-9.9 -3.7L-9.05 -3.5L-9.05 -0.7L-9.05 2.2L-9.05 5L-8.55 5L-7.55 5L-6.5 5.05L-5.6 5.1L-4.95 5.1L-4.95 5.3L-4.95 5.5L-5 5.8L-5 6.1L-4.95 7.15Q-4.95 7.4 -5.1 7.45L-5.45 7.5L-5.85 7.5L-6.75 7.5L-8.6 7.55L-11.65 7.5L-11.65 7.25L-11.55 4.75L-11.5 2.7L-11.5 0.8L-11.55 -1.2L-11.6 -3.55M-0.9,0.6L-1.05 -0.25L-1.3 0.05L-1.5 1.25L-1.7 3L-1.1 3L-0.55 3L-0.9 0.6" />
<path style="fill:#FFFFFF;fill-opacity:1" d="M17.25,-3.6L17.8 -3.6L18.9 -3.7L19 -2.95L19.35 -1.7L19.65 -0.35L19.95 0.95L20.2 1.8L21.35 7.3L20.3 7.35L19.25 7.2L19 6.4L18.7 5.45L18.5 4.65L18.1 4.6L17.8 4.6L17.5 4.65L17.25 5.5L17.05 6.45L16.75 7.3L16.05 7.3L14.5 7.3L14.45 7.25L14.6 6.45L14.95 4.65L15.4 2.25L16.05 -0.65L16.9 -3.6L17.25 -3.6M17.8,-0.1L17.6 1.05L17.4 2.8L17.95 2.8L18.55 2.8L18.25 0.45L18 -0.45L17.8 -0.1M24,-3.6L26.2 -3.4Q27.15 -3.05 27.7 -2.35Q28.2 -1.5 28 -0.15L28 -0.1L27.9 -0.1L27.5 -0.05L27.05 -0.05L26.55 -0.05L26.05 -0.1L25.85 -0.65L25.5 -1.2L25 -1.4L24.45 -1.4L24 -1.25L23.9 -1.05L23.8 -0.8L23.6 0.45L23.5 2.1L23.6 3.7L23.7 4.45Q23.8 4.85 24.15 5.05L24.25 5.15L24.5 5.2L25 5.15L25.45 5.05L25.75 4.9L25.95 4.5L26 4.25L26 3.85L26 3.55L25.6 3.5L25.15 3.55L24.8 3.5L24.75 3L24.75 2.5L24.75 1.9L24.75 1.85L24.8 1.85L25.45 1.7L26.45 1.7L27.4 1.75L28 1.75L28.05 1.8L28.2 3.55L28.05 5.35Q28 6.1 27.6 6.55L26.55 7.2L24.9 7.55L23.2 7.3L22.25 6.6L21.75 5.45L21.6 5L21.5 4.35L21.4 3.2L21.35 2.1L21.35 0.85L21.4 -0.2L21.5 -1.25L21.85 -2.25L22.45 -3Q22.75 -3.3 23.15 -3.4L24 -3.6M31.4,-3.6L31.7 -3.6L32.3 -3.6L33.3 -3.7L33.45 -2.95L33.8 -1.7L34.1 -0.35L34.4 0.95L34.65 1.8L35.8 7.3L34.8 7.35L33.7 7.2L33.4 6.4L33.2 5.45L32.95 4.65L32.55 4.6L32.35 4.6L31.9 4.65L31.7 5.5L31.5 6.45L31.2 7.3L30.55 7.3L28.95 7.3L28.9 7.25L29.05 6.45L29.4 4.65L29.85 2.25L30.55 -0.65L31.4 -3.6M32.3,-0.1L32.05 1.05L31.8 2.8L32.4 2.8L33.05 2.8L32.65 0.45L32.45 -0.45L32.3 -0.1M36.75,-3.7L36.75 -3.75L37.1 -3.75L37.45 -3.7L38.1 -3.65L39.25 -3.65L39.55 -3.65L39.55 -3.6L39.5 0L39.45 3.6L39.55 7.2L39 7.35L38.15 7.35L37.25 7.3L36.65 7.35L36.75 3.55L36.65 -0.1L36.75 -3.7M41.35,-3.7L41.8 -3.65L42.35 -3.6L42.65 -3.5L42.95 -2.95L43.15 -2.4L43.5 -1.8L43.75 -1.25L44.2 -0.35L44.55 0.45L44.85 0.85L44.95 0.5L44.95 -0.05L44.95 -1.25L44.9 -2.35L44.9 -2.95L44.95 -3.7L46.05 -3.75L47.1 -3.7L47.1 1.35L47.15 2.65L47.15 4L47.1 4.9L47.1 5.7L47.1 6.35L47.15 6.95L47.15 7.3L46.95 7.3L46.6 7.35L45.9 7.3L45.2 7.3L44.15 5.05L43.2 2.95L43.05 2.5L42.95 2.15L42.85 2.05L42.8 2.45L42.75 3.35L42.7 4.6L42.7 6L42.7 6.75L42.75 7.3L42.4 7.35L42.05 7.35L41.3 7.3L40.5 7.3L40.5 6.15L40.5 3.35L40.5 0.55L40.5 -1.6L40.65 -3.6L40.9 -3.65L41.35 -3.7" />
</g>
</svg>
