<?xml version="1.0" encoding="utf-8"?>
<svg version="1.1" id="Layer_1"
xmlns="http://www.w3.org/2000/svg"
xmlns:xlink="http://www.w3.org/1999/xlink"
xmlns:author="http://www.sothink.com"
width="20px" height="16px"
xml:space="preserve">
<g id="684" transform="matrix(1, 0, 0, 1, 3.9, 4.65)">
<path style="fill:#4F433E;fill-opacity:1" d="M6.8,1.8L7.2 2.1L5.95 1.25L5.9 1.1L6.35 1.4L6.8 1.8" />
<path style="fill:#D74B25;fill-opacity:1" d="M11.45,-1.4L12.4 -0.6Q14.15 1.05 14.15 3.25L13.15 1.55L12.85 1.3L11.6 0.4Q9.45 -0.65 7.3 -0.65L6.45 -0.55L5 -0.35L5 -0.65L5.75 -1.05L6.45 -1.25L7.9 -1.45L10.35 -1.05L11.85 -0.6L11.95 -0.55L11.45 -1.4M-1.4,6L-1 6Q-0.1 6 0.2 4.55Q0.55 3.1 2.1 3.1Q4.25 3.1 6.25 4.05Q6.95 4.4 7.7 4.9L8.45 5.45L9 6.45L9.1 6.6Q9.75 7.95 9.85 9.05Q8.6 7.45 6.1 6.85L4.05 6.55L2.8 6.6Q1.2 6.85 0 7.45L-1.4 6" />
<path style="fill:#E29E36;fill-opacity:1" d="M10.65,-1.95L11.45 -1.4L11.95 -0.55L11.85 -0.6L10.35 -1.05L7.9 -1.45L6.45 -1.25L5.75 -1.05L5 -0.65L4.9 -1.55L4.9 -1.85Q5.45 -2.3 6.5 -2.45L7.75 -2.55L10.35 -2.1L10.65 -1.95M7.7,4.9Q6.95 4.4 6.25 4.05Q4.25 3.1 2.1 3.1Q0.55 3.1 0.2 4.55Q-0.1 6 -1 6L-1.4 6L-2.3 4L-2.5 2.95L-2 2.55L-1.6 3.2L-0.8 3.5Q-0.25 3.5 -0.05 2.75L0 1.8L0.35 1.85L2.25 1.6L5.1 2L6.3 2.9Q7.5 4 8.45 5.45L7.7 4.9" />
<path style="fill:#872C09;fill-opacity:1" d="M13.15,3.8L13.1 3.7L12.85 3.15L12.75 2.95Q12.25 2 11.4 1.45Q9.65 0.3 8 0.35L6.4 0.4L5.15 0.5L5 0.55L5.9 1.1L5.95 1.25L7.2 2.1Q8.55 3.25 9.45 4.65Q10.4 6.15 10.75 7.95L10.8 8.2L10.85 8.2L11.05 8.85Q10.8 8.7 11.15 10.05Q10.85 11.05 10.45 11L8.65 9.65Q7.6 8.75 6.05 8.35L4.8 8.05Q2.35 7.65 0.65 8.45Q-0.25 9.1 -1.6 7.55L-2.85 5.8L-3.3 4.75L-3.35 4.55L-3.65 3L-3.85 1.35Q-4 -0.4 -3.75 -0.8Q-3.55 -1.25 -2.8 -1.3L-0.3 -1.25Q1.5 -1.15 3.85 -0.05L3.75 -0.3Q3.65 -1.7 3.9 -2.65Q4.1 -3.65 4.55 -4.4L6.6 -4.6L7 -4.6Q8.2 -4.5 9.85 -3.8Q11.35 -3.2 13 -1.75Q16.5 1.3 14.85 5.6L14.6 6L14.15 7.25Q13.65 4.95 13.15 3.8M5,-0.35L6.45 -0.55L7.3 -0.65Q9.45 -0.65 11.6 0.4L12.85 1.3L13.15 1.55L14.15 3.25Q14.15 1.05 12.4 -0.6L11.45 -1.4L10.65 -1.95L8.7 -2.9Q7.5 -3.35 6.55 -3.4L5.45 -3.35Q4.9 -2.55 4.9 -1.85L4.9 -1.55L5 -0.65L5 -0.35M-2.5,2.95L-2.3 4L-1.4 6L0 7.45Q1.2 6.85 2.8 6.6L4.05 6.55L6.1 6.85Q8.6 7.45 9.85 9.05Q9.75 7.95 9.1 6.6L9 6.45L8.45 5.45Q7.5 4 6.3 2.9L5.1 2Q4.05 1.3 2.85 0.8L2 0.45Q-0.55 -0.45 -2.35 0.05L-2.55 1.15L-2.5 2.95" />
<path style="fill:#F7DA7D;fill-opacity:1" d="M10.35,-2.1L7.75 -2.55L6.5 -2.45Q5.45 -2.3 4.9 -1.85Q4.9 -2.55 5.45 -3.35L6.55 -3.4Q7.5 -3.35 8.7 -2.9L10.65 -1.95L10.35 -2.1M-2.55,1.15L-2.2 1.35L-1.6 1.55Q-0.95 1.55 -0.9 1.1Q-0.85 0.6 -0.05 0.6L2.85 0.8Q4.05 1.3 5.1 2L2.25 1.6L0.35 1.85L0 1.8L-0.05 2.75Q-0.25 3.5 -0.8 3.5L-1.6 3.2L-2 2.55L-2.5 2.95L-2.55 1.15" />
<path style="fill:#FFF6D9;fill-opacity:1" d="M-0.05,0.6Q-0.85 0.6 -0.9 1.1Q-0.95 1.55 -1.6 1.55L-2.2 1.35L-2.55 1.15L-2.35 0.05Q-0.55 -0.45 2 0.45L2.85 0.8L-0.05 0.6" />
<path style="fill:#11141C;fill-opacity:1" d="M13.15,3.8Q13.65 4.95 14.15 7.25L13.65 8.15Q12.8 9.4 11.25 9.7L11.2 10L11.15 10.05Q10.8 8.7 11.05 8.85L10.85 8.2Q13.7 7.45 13.4 5.05L13.15 3.8" />
<path style="fill:#262D35;fill-opacity:1" d="M12.75,2.95L12.85 3.15L13.1 3.7L13.15 3.8L13.4 5.05Q13.7 7.45 10.85 8.2L10.8 8.2L10.75 7.95Q10.4 6.15 9.45 4.65L10.6 4.9Q11.4 4.9 12.35 3.55L12.6 3.2L12.75 2.95" />
<path style="fill:#484E56;fill-opacity:1" d="M6.8,1.8L7.7 1.75Q11 1.75 12.6 3.2L12.35 3.55Q11.4 4.9 10.6 4.9L9.45 4.65Q8.55 3.25 7.2 2.1L6.8 1.8" />
<path style="fill:#81878E;fill-opacity:1" d="M6.35,1.4L5.9 1.1L5 0.55L5.15 0.5L6.4 0.4L8 0.35Q9.65 0.3 11.4 1.45Q12.25 2 12.75 2.95L12.6 3.2Q11 1.75 7.7 1.75L6.8 1.8L6.35 1.4" />
</g>
</svg>
