<?xml version="1.0" encoding="utf-8"?>
<svg version="1.1" id="Layer_1"
xmlns="http://www.w3.org/2000/svg"
xmlns:xlink="http://www.w3.org/1999/xlink"
xmlns:author="http://www.sothink.com"
width="12px" height="13px"
xml:space="preserve">
<g id="1646" transform="matrix(1, 0, 0, 1, 0, 0)">
<path style="fill:#3F94BB;fill-opacity:0.701961" d="M3.45,4.1L2.75 3.65L1.8 1.35L1.75 1.3L1.05 1.05L0.7 0.7L0.2 0.25L0.15 0.2L0 0.05L0 0L0.35 0.1L1 0.3Q1.6 0.55 2.05 1L2.7 1.05L3.1 1.55L3.3 2.45L3.35 2.6L3.85 2.8L4.15 2.8L4.25 2.8L5.75 1.95L6 2L3.45 4.1M9.2,9.75L8.6 7.8L8.15 6.3L6.45 2.15L7.15 3.3L7.95 4.6L8.85 4.7Q9 5.7 9.45 6.4L9.9 6.9Q10.55 7.55 11.7 7.65L11.3 8.05L11.1 8.25L11 8.35L10.55 9L10 9.3L9.2 9.75" />
<path style="fill:#85E2E7;fill-opacity:0.501961" d="M10,9.3L10.55 9L10.2 9.55L10 9.3M3.45,4.1L6 2L6.25 1.95L6.45 2.15L8.15 6.3L8.6 7.8L7.55 6.65L6.9 6.25Q7.25 5.5 6.4 4.8L5.6 5.45L3.45 4.1" />
<path style="fill:#CBFFFF;fill-opacity:0.74902" d="M5.6,5.45L6.4 4.8Q7.25 5.5 6.9 6.25L6.2 7.05L6.05 7.15Q5.05 6.2 5.6 5.45" />
<path style="fill:#D0FCFC;fill-opacity:0.901961" d="M3.75,6.65L2.15 2.7Q1.8 1.8 1.05 1.05L1.75 1.3L1.8 1.35L2.75 3.65L2.75 3.7L3.15 4.6L3.35 5.1L3.9 6.5L3.75 6.65" />
<path style="fill:#96EEFA;fill-opacity:0.501961" d="M10,9.3L10.2 9.55L9.8 10.25Q9.35 11 9.05 11.9L8.95 12.1L8.95 11.85Q8.75 10.75 8.1 9.85L7.9 10L7.25 11.1L7.05 11.45L6.9 11.35L6.8 11.25Q6.4 11 6.3 10.45L6.25 10.3L5.9 10Q6.1 9.05 5.8 8.1Q5.55 7.3 4.9 6.5L4.7 6.5L4.1 6.35L3.9 6.5L3.35 5.1L3.15 4.6L2.75 3.7L2.75 3.65L3.45 4.1L5.6 5.45Q5.05 6.2 6.05 7.15L6.2 7.05L6.9 6.25L7.55 6.65L8.6 7.8L9.2 9.75L10 9.3" />
<path style="fill:#62B3C4;fill-opacity:0.701961" d="M3.9,6.5L4.1 6.35L4.7 6.5L4.9 6.5Q5.55 7.3 5.8 8.1Q6.1 9.05 5.9 10L4.55 8.7L4.25 8.4L4 7.3L3.75 6.65L3.9 6.5" />
<path style="fill:#7BCBD6;fill-opacity:0.701961" d="M8.95,12.1L8.9 12.2L8.75 12.15L7.2 11.5L7.1 11.45L7.05 11.45L7.25 11.1L7.9 10L8.1 9.85Q8.75 10.75 8.95 11.85L8.95 12.1" />
</g>
</svg>
