<?xml version="1.0" encoding="utf-8"?>
<svg version="1.1" id="Layer_1"
xmlns="http://www.w3.org/2000/svg"
xmlns:xlink="http://www.w3.org/1999/xlink"
xmlns:author="http://www.sothink.com"
width="44px" height="48px"
xml:space="preserve">
<g id="535" transform="matrix(1, 0, 0, 1, -3.3, 0)">
<path style="fill:#544F45;fill-opacity:1" d="M42.6,16.85L42.8 16.75L42.85 16.65L43 16.5L43.3 15.65L43.05 14.15L42.7 12.8L42.5 12.85L42.3 12.95L41.75 13.05L41.3 13L41.25 13L40.6 12.8L40.3 12.65L39.75 12.3L39.65 12.25L38.75 11.4L37.05 11.45L36.85 11.4L36.3 11.25L35.35 10.7Q34.5 10.25 34.25 9.75L34.2 9.65L34.05 9.15L34.1 8.75L34 8.55L33.25 7.85L33.2 7.8L32.45 7.45L32.35 7.5L31.95 7.6L31.45 7.8Q31.05 8 30.85 8.25L30.85 8.3L30.55 8.7L31.1 9.75L31.55 10.55L31.7 10.75L32.05 11.55Q32.15 11.95 31.85 12.55L32.45 12.75L32.95 13L33.1 13.05L34.15 13.65Q34.6 14 34.55 14.5L34.35 15.35L34.05 16.25L34.3 16.45L35.35 17.2L35.6 17.7L36.05 19.45Q38 18.05 38.8 18.2L39.55 18.4L40.1 18.6L40.15 18.6L40.95 18.95L41.5 19.3L42.2 20.15L42.2 20.9L41.6 22L41.4 22.4L40.75 22.15L41.55 20.6Q40.9 19.7 39.65 19.2L39.45 19.1L38.85 18.95L38 19.05L36.85 19.75L36.6 19.9L35.9 20.35L35.7 20.45L35.65 20.45L35.6 20.4L35.5 20.05L35.4 19.55L35.3 19L35.25 18.7L35.2 18.4L35.2 18.25L35.15 18.05L35.15 17.75L34.7 17.45L33.6 16.8L33.4 16.65L32.7 16.05L32.5 15.4L32.55 15.4L32.65 15.35L32.95 15.55L33.15 15.65L33.5 15.85L33.65 15.35L33.8 14.85L33.9 14.35Q33.8 14.2 33.15 13.8L33 13.7L32.25 13.35L31.8 13.2L31.6 13.15L31.5 13.1L31.35 13.1L31.3 13.15L31.25 13L31.1 12.6L30.95 12.15L31.2 12L31.5 11.8L31.55 11.8L31.2 11.2L30.75 10.35L30.1 9.25L30 9.1L29.95 9.05L29.8 7.65L30.35 7.85L30.45 7.8L30.7 7.6L31.15 7.3L31.45 7.15L32.3 6.95L32.75 6.95L32.95 7.05L33.4 7.3L34.55 8.35Q34.7 8.15 35 8.05L35.25 7.8L35.65 7.35L35.35 6.9L35.05 6.45L34.95 6.25Q34.5 5.6 33.35 5.55L32.2 5.65L31.75 5.8L31.65 5.85L31.25 6L30.8 6.3L30.35 6.55L30.05 6.7L29.8 6.85L29.75 6L29.8 5.6L29.85 5L29.9 4.95L30.5 4.45Q30.7 4.25 31.05 4.05L31.15 3.95L31.85 3.5L33.25 2.8Q34.5 2.35 35.1 2.45L36.45 2.9L37.8 3.5L38.7 4.1L39 5.25L39.05 5.95L39.05 6L39.1 6L39.6 6.1L41.55 6.8L43.1 7.75L44.05 8.65L44.8 9.95Q45.1 10.75 44.65 11.25L44.45 11.5L43.3 12.5L43.75 15.1Q43.9 16.2 43.7 16.6L43.3 17.2L42.6 16.85M38.15,6.45L37.2 6.6L37 6.9L37.05 7.35L37.1 7.4L37.6 8.1L38 8.45L38.05 8.5L38.55 8.85L39.1 9.2L40.05 9.7L40.75 9.9L41.35 10.05Q41.85 10.15 42.45 9.7L43.3 8.9Q42.35 7.6 40.2 6.9L39.7 6.75L39.2 6.65L38.65 6.5L38.15 6.45M44.05,11.05L44.4 10.5L44.25 9.8L43.9 9.4L43.5 9.5L43.1 9.8L42.85 10L42.4 10.25L42.1 10.45L42.15 11.25L42.1 12.15L42.05 12.45L42.3 12.35L43.1 11.95L43.85 11.25L44.05 11.05M39.6,10L39.55 10.2L39.3 10.7L39.1 11.05L40.1 12L40.2 12.1L40.9 12.4L41.05 12.45L41.5 12.45L41.65 12.2L41.7 11.85L41.7 11.8L41.7 10.55L40.95 10.45L40.35 10.3L40.1 10.2L39.6 10M32.3,42.3L32 42.85L31.85 43.1L31.5 43.65L31.2 44.15L30.9 44.15L30.4 44.15L30.75 43.65L31 43.25L31.3 42.85L31.65 42.15L31.7 42.15L32.3 40.75L32.45 40.25L32.25 39.85L31.7 38.95L31.35 38.55L31.1 39L30.7 39.8L30.1 40.75L30.05 40.8L28.65 42.7L28.5 42.9L28.1 43.35L28 43.4L27.5 43.55L26.45 43.15L27.65 42.9L27.75 42.75L27.95 42.5L29.6 40.35L29.75 40.15L30.3 39.45L30.6 38.95L31 38.3L31.65 36.75L31.8 34.5L31.15 33.4L30.45 32.4L30.2 32.05L30.05 31.85L29.25 31L28.45 30.75L28.35 30.7L28 30.55L27.8 30.45L27 30L25.65 29.05L24.85 28.45L24.3 28.05L24.2 27.95L22.45 26.45L21.45 25.55L21.35 25.45L20.35 24.55L19.95 24.2L19 23.35Q16.7 22.95 13.9 23.3Q12.75 23.7 11.85 24.4L11.25 24.9L10.35 26.05L10.2 26.25L10.55 26.45L12.3 27.3Q13.8 28 16.1 28.5L16.35 28.55L16.85 28.7L17.95 28.95L18.6 29.2L18.3 29.3L16.6 29.25L16 29.1L15.25 28.9Q12.5 28.15 9.9 26.8L9.85 26.75L9.25 26.45L7 25.25L6.75 25L6.25 24.4L6.4 24.4L6.65 24.5L7.05 24.65L9.7 26L9.75 26L9.9 25.8L10.9 24.55L11 24.4L12 23.5Q12.9 22.85 13.3 22.75L15.55 22.6L18.3 22.55L19.5 22.85L20.3 23.65L20.7 24.05L21.1 24.45L21.15 24.5L21.95 25.25L22.4 25.65L23.2 26.25L24.6 27.3L25.05 27.6L25.6 28L27.75 29.6Q28.7 30.35 29.35 30.4L30.9 29.8L31.95 29.6L32.7 29.95L33.15 30.35L34.9 32.05L35.85 33.15Q36.05 34.15 35.75 35.35L35.65 35.7L35.65 35.75L35.1 36.65L34.3 37.05L33.75 37.2L33.4 37.3L33 37.4L32.55 37.5L32.15 37.6L32.1 37.6L31.85 38.05L32.25 38.6L32.95 39.7L33.1 39.95L33.2 40.3L33.25 40.3L33.2 40.35L33.2 40.5L33.15 40.55L32.9 41.1L32.3 42.3M10.9,9.3L10.7 9.2L10.2 8.8L10.15 8.75L9.65 8.2L9.55 7.95L9.3 6.85Q9.1 5.7 9.3 4.75L9.35 4.5Q9.65 2.9 10.8 2.4L13.6 2.85L13.7 2.9L13.75 2.85Q14.35 1.35 15.65 0.85Q16.4 0.55 17.05 0.35L17.1 0.35L17.85 0.15L19.5 0Q20.15 0 21.95 0.95Q23.6 1.9 24.65 3.25L24.8 3.45L24.9 3.95L25 4.5L25.05 5.05L25.05 5.3L25 6L25.45 6.8L25.6 7.1L26.55 9.1L26.05 9.45L25.5 8.1L24.75 6.7L24.5 6.3L24.25 6.15L24.1 6.05L23.6 5.8L22.95 5.5L22.75 5.4L22.05 5.15L21.6 5L20 4.6L18.15 4.95L17.2 5.25L17.95 6.25L18.3 7.1L18.35 7.1L19 7.35Q19.95 7.7 20.7 8.3Q21.6 9 22.05 10L22.1 10.1L21.9 10.15L21.6 10.3L21.45 10L21.25 9.7L20.3 8.7L19.75 8.3Q18.9 7.75 18.25 7.7L16.55 7.75L16.3 7.75L15.25 7.95L15.15 7.95L13.25 8.5L12.7 8.75Q12.2 9 12 9.15L11.75 9.3L11.75 9.35L11.4 9.55L11.45 9.55L11.1 9.9L11.05 9.9L10.65 10.35L10.1 11.05L9.55 10.75L9.75 10.4L10.7 9.5L10.9 9.3M32.55,3.95L32.2 4.1L31.9 4.25L31.4 4.55L31.05 4.75L30.65 5.05L30.4 5.4L30 5.9L30 5.95L30.05 5.95L30.5 5.7L31.35 5.3L31.65 5.2L32.2 5.05L33.3 4.9L34.1 4.95L34.3 4.95L34.85 5.05L35.05 5.2L35.15 5.35L35.55 5.95L36 6.6L36.15 6.85L36.25 6.65Q36.5 6.05 37.25 5.9L37.45 5.85L38.1 5.85L38.35 5.85L38.4 5.45L38.35 5.25L38.35 5.1L38.25 4.55L36.6 3.65L34.85 3L33.6 3.45L33.25 3.6L33 3.7L32.7 3.85L32.55 3.95M38.85,10.45L39.1 9.7Q38.05 9.1 37.25 8.4L37.15 8.3L37 8.15L36.4 7.3L35.9 7.9L35.35 8.4L34.55 8.85L34.7 9.4L34.8 9.55Q35.55 10.5 36.65 10.8L38.3 10.9L38.55 10.85L38.7 10.65L38.85 10.45M21.2,1.15L19.7 0.55L19.35 0.55L18 0.7L17.1 0.8L19.25 2.35L19.4 2.5L20 2.9L21.8 2.95L22.55 2.95L23.75 2.95L23.55 2.75L21.2 1.15M20.3,4.15L20.35 4.15L21.9 4.6L23.45 5.2L23.9 5.45L24.05 5.55L24.1 5.55L24.55 5.75L24.55 5.4L24.55 5.3L24.25 3.65L24.2 3.5L23.7 3.5L21.4 3.45L20.2 3.45L20.25 3.85L20.25 4L20.3 4.15M18.9,9.55L19.1 9.35L19.2 9.25L19.25 9.25L19.25 9.3L19.2 9.45L19 9.75Q18.3 11 16.5 11.95L15.95 12L15.5 12L15.9 11.75L18.5 9.9L18.9 9.55M16.4,4.45L16.95 4.95Q17.8 4.45 18.85 4.25L19.65 4.15L19.65 4.05L19.7 3.45L19.7 3.35L19.25 2.95L18.35 2.2L17.15 1.4L16.45 1.05Q14.75 1.6 14.4 3.05L14.4 3.15L14.8 3.35L15.3 3.7L15.45 3.8L15.5 3.8L16.4 4.45M15.75,4.7L15.65 4.6L15.1 4.25L14.9 4.1L14.55 3.9L14.35 3.8L13.4 3.4L12.5 3.15L12.4 4.3L12.45 4.95L12.5 5.25L12.55 6L12.5 6.15L12.25 6.4L12.2 6.45L11.7 6.85L10.3 7.65L10 7.75L10.75 8.6L10.85 8.65L11.25 8.85L11.4 8.9L11.8 8.7Q12.6 8.2 13.75 7.8L14.1 7.7L16.25 7.25L17.7 7.1L17.3 6.3L16.95 5.8L16.95 5.65L16.75 5.35L16.45 5.25L15.85 4.75L15.75 4.7M9.7,6L9.75 6.4L9.85 7.25L10.95 6.7L12 5.95L11.9 4.4L11.9 4.3L11.9 4.25L12.1 3.1L10.85 2.95Q9.85 3.5 9.75 4.8L9.7 5.85L9.7 6M14.6,32.35L14.65 32.1L14.75 31.65L14.75 31.4L15 31.75L15 32.05L15.05 32.2L15.05 32.25L15.05 32.7L14.6 32.35M17.75,33.25L17.7 33.25L17.4 33.1L17.15 33L17 32.95L16 32.5L15.95 32.4L16.05 32.4L16.7 32.5L16.9 32.55L17.3 32.7L17.75 32.8L19.2 33.2L19.45 33.3L20.4 33.6L20.1 32.5Q19.9 31.45 20.2 30.75L20.25 30.75L21.95 29.35L21.95 29.3L22.75 28.65L22.95 28.65L23 28.75L22.65 29.4L22.25 29.85L21.85 30.2L21.7 30.35L21.05 30.75L20.65 30.95L20.7 31.75L20.8 33L21 33.8L21.2 33.85L21.9 34.15Q23.8 34.9 25.4 35.95L25.8 36.25L25.05 36.05L24.7 35.95L21.85 34.9L21.5 34.75L21.15 34.6L21 34.55L19.6 34L18.95 33.75L17.75 33.25M30.45,31.4L30.65 31.6L31.1 32.2L31.6 32.9L32.2 34.1L32.25 34.45L32.35 36.35L32.25 37L32.55 36.95L32.65 36.9L33.05 36.8L34.3 36.3L34.6 36.2L34.65 36.15L34.9 35.75L35.1 35.15L35.25 33.4L33.7 31.8L32.5 30.65Q32.05 30.2 31.8 30.25L31.7 30.25L29.9 30.7L30.45 31.4" />
<path style="fill:#D4D0C7;fill-opacity:1" d="M35.25,7.45L35 7L34.75 6.75L34.5 6.55L34.45 6.5L34.3 6.6L34.1 6.65L34.25 6.35L34.2 6.3L33.25 5.95L32.2 5.8L31.75 5.8L32.2 5.65L33.35 5.55Q34.5 5.6 34.95 6.25L35.05 6.45L35.35 6.9L35.65 7.35L35.25 7.8L35.25 7.45M28.9,8.2L29.05 8.2L29.8 8.45L29.95 9.05L30 9.1L30.1 9.25L30.75 10.35L31.2 11.2L31.55 11.8L31.5 11.8L31.1 11.9L30.8 11.8L30.9 11.35L30.2 10.2L29.95 9.8L29.2 8.85L29.2 8.75L28.9 8.2M31.35,13.1L31.5 13.1L31.6 13.15L31.8 13.2L32.25 13.35L33 13.7L33.15 13.8Q33.8 14.2 33.9 14.35L33.8 14.85L33.65 15.35L33.5 15.85L33.15 15.65Q33.6 15 33.3 14.45L33.2 14.4L33.15 14.4Q32.35 14.6 32.8 14.1L31.8 13.6L31.5 13.5L31.35 13.45L31.3 13.45L31.3 13.35L31.35 13.15L31.35 13.1M32.3,15.45L32.15 15.2L32.4 14.9L32.65 15.2L32.65 15.35L32.55 15.4L32.5 15.4L32.3 15.45M34.95,18.2L34.7 18.1L34.7 18.15L34.5 17.8L34.35 17.65L34.25 17.7L33.9 17.75L33.75 17.55L33.9 17.35L33.7 17.25L32.95 16.8L32.3 16.35L32.65 16.1L32.7 16.05L33.4 16.65L33.6 16.8L34.7 17.45L35.15 17.75L35.15 18.05L35.2 18.25L34.95 18.2M40.5,22.5L40.4 22.65L40.4 22.5L40.55 22.1L40.65 21.4L40.7 20.75Q40.05 20.7 40.45 20.35L39.75 19.8L39.4 19.55Q39.25 19.55 39.1 19.7L38.8 19.8L38.65 19.75L38.25 19.6L37.8 19.7L37.6 19.75L36.6 19.9L36.85 19.75L38 19.05L38.85 18.95L39.45 19.1L39.65 19.2Q40.9 19.7 41.55 20.6L40.75 22.15L40.5 22.5M40.7,16.15L41 16.25L41.3 16.3Q41.05 16.45 41.4 16.5L41.45 16.55L41.5 16.55L41.7 16.35L41.7 16.3L41.95 16.25L42.1 16.35L42.25 16.4L42.35 16.3L42.4 16.15L42.4 16.05L42.45 16L42.55 15.8L42.85 15.9L42.95 15.8Q43.05 15.5 42.8 15.4L42.75 15.45L42.75 15.3L42.7 15.2L42.7 15.15L42.8 15.05L42.8 14.95L42.55 14.9L42.8 14.55L42.6 13.4L42.5 12.85L42.7 12.8L43.05 14.15L43.3 15.65L43 16.5L42.85 16.65L42.8 16.75L42 16.9L41.8 16.9L41.35 16.8L41.15 16.7L41.05 16.6L40.75 16.25L40.7 16.15M38.55,6.55L38.65 6.5L39.2 6.65L39.7 6.75L40.2 6.9Q42.35 7.6 43.3 8.9L42.45 9.7L42.5 8.55Q42.75 8.5 42.5 8.3L42.35 8.25L42.3 8.3L41.8 8.05Q41.05 8.65 41.6 7.95L40.4 7.25L39.75 7L39.25 6.9L38.25 6.8L38.55 6.55M43.1,9.8L43.5 9.5L43.9 9.4L44.25 9.8L44.4 10.5L44.05 11.05L43.95 10.6L43.8 10.2L43.8 10.15L43.75 10.15Q42.9 10.4 43.55 9.9L43.1 9.8M41.55,14.35L41.7 14.15L41.95 14.25L42 14.4L42 14.6L41.9 14.6L41.6 14.65L41.55 14.35M33.6,3.45L34.85 3L36.6 3.65L38.25 4.55L38.35 5.1L38.35 5.25L38.4 5.45L38.35 5.85L38.1 5.85L38.05 5.45L38 5.25L37.45 4.6Q36.65 4.45 36.35 4.1L35.8 3.8L33.25 3.6L33.6 3.45M19.35,0.55L19.7 0.55L21.2 1.15L23.55 2.75L22.45 2.75L20.7 1.2Q20.05 0.8 19.35 0.55M20.8,2.3L20.45 2.25L20.85 1.45L20.85 1.5Q21.25 1.5 21.4 1.9L21.4 1.95L20.8 2.3M26.15,9.7L25.3 9.9L25.25 9.75Q24.6 7.1 22.8 6.3L22.75 6.25L22.2 6.05L22.05 6.2L22 6.2Q20.35 6.55 21 5.8L19.3 5.6Q19 5.35 18.7 5.2L18.15 4.95L20 4.6L21.6 5L22.05 5.15L22.75 5.4L22.95 5.5L23.6 5.8L24.1 6.05L24.25 6.15L24.5 6.3L24.75 6.7L25.5 8.1L26.05 9.45L26.15 9.7M21.65,11.45L21.6 11.55L21.1 10.5L21 10.35L20.15 9.7L19.25 9.3L19.25 9.25L19.2 9.25L18.75 9.1L16.55 8.8L16.45 8.8L16.1 8.9L15.2 9L15 8.8L14.8 8.8L13.6 8.95L13.3 9.05L12.7 9.2L12.3 9.3L11.7 9.55L11.1 9.9L11.45 9.55L11.4 9.55L11.75 9.35L11.75 9.3L12 9.15Q12.2 9 12.7 8.75L13.25 8.5L15.15 7.95L15.25 7.95L16.3 7.75L16.55 7.75L18.25 7.7Q18.9 7.75 19.75 8.3L20.3 8.7L21.25 9.7L21.45 10L21.6 10.3L21.8 10.65L21.65 11.45M34.05,18.25L34.1 18.4Q33.35 18.95 33.9 18.2L34.05 18.25M39.7,20.7L39.9 20.8L39.9 21.05Q39 21.25 39.7 20.7M12.25,6.4L12.5 6.15L12.55 6L12.5 5.25L12.45 4.95L12.4 4.3L12.5 3.15L13.4 3.4L14.35 3.8L14.55 3.9L14.9 4.1L15.1 4.25L15 4.5L14.6 4.45L13.9 4.3L13.55 4.15L13.4 4.5L12.95 4.5L12.95 5.45L12.85 6.3L12.25 6.4M11.8,4.1L11.25 3.6Q10.95 3.6 10.6 3.95Q11 3.95 11.15 4.35L11.15 4.4Q9.9 5.25 10.25 4.5L10.1 4.8L9.7 5.85L9.75 4.8Q9.85 3.5 10.85 2.95L12.1 3.1L11.9 4.25L11.8 4.1M13.85,4.35L14.1 4.7L14.1 4.75L13.15 5.2L13.55 4.3L13.85 4.35M14.5,10.05Q12.95 11.3 14.15 9.45L14.35 9.55L14.55 9.7L14.5 10.05M8.25,13.75L8.65 13.45L9.35 14.55L10.25 15.65L10.6 16.05L10.85 16.35Q11.75 17.45 13.45 17.75L14.5 17.9L14.95 17.95L15.5 18L15.95 18.05L16.1 18.05L17 18.05L17.75 18L18.2 18L18.5 17.95Q18.65 17.8 19 18.5L19.1 18.7L18.8 18.65L17.75 18.55L17.3 18.55L16.65 18.55L15.7 18.55L15.25 18.5L15 18.5L14.5 18.5L13.05 18.3L11.5 17.7L10.15 16.75L10.1 16.7L9.75 16.25L9.25 15.7Q8.35 14.75 7.8 14.75L7.7 14.8Q7.75 14.25 8.25 13.75M13.9,23.3Q16.7 22.95 19 23.35L19.95 24.2L20.35 24.55L21.35 25.45L21.45 25.55L22.45 26.45L24.2 27.95L24.3 28.05L24.85 28.45L25.65 29.05L27 30L27.8 30.45L28 30.55L28.35 30.7L28.45 30.75L29.25 31L30.05 31.85L30.2 32.05L30.45 32.4L31.15 33.4L31.8 34.5L31.65 36.75L31 38.3L30.6 36.25Q30.25 35 29.35 34.05L29.05 33.5L29.95 33.5L30 33.45Q30.1 32.85 29.55 32.7L29.5 32.7L29.35 32.65L29.1 32.9L28.9 33.1L28.9 33L28.75 32.35L28.55 32.05L27.45 31.45L27.05 31.25L25.75 31.3L25.65 30.8L25.75 30.55L24.95 30L24.8 29.9L24.45 29.65L23.75 28.95L23.4 28.5L23.35 28.5L22.9 28.1L21.95 27.35L19.65 25.3L19.3 24.95L19.2 24.85Q18.6 24.35 17.5 24.15L17.4 24.45L17 24.65Q16.1 24.7 16.15 24L15.2 23.95L13.75 24.2L11.95 24.4L11.85 24.4Q12.75 23.7 13.9 23.3M18.95,33.75L19.6 34L21 34.55L21.15 34.6L21.5 34.75L21.85 34.9L24.7 35.95L25.05 36.05L24.05 36.05L21.8 35.55L21.75 35.55L21.05 35.25L20.95 35.2L19.85 34.7L19.05 34.4L18.7 34.2L18.5 34L17.75 33.25L18.95 33.75M34.75,34.35Q34.45 33.4 34.05 33.1L31.4 31.25L31.05 31.05L29.9 30.7L31.7 30.25L31.8 30.25Q32.05 30.2 32.5 30.65L33.7 31.8L35.25 33.4L35.1 35.15L34.75 34.35" />
<path style="fill:#AA9F90;fill-opacity:1" d="M30.05,6.7L30.35 6.55L30.8 6.3L31.25 6L31.65 5.85L31.75 5.8L32.2 5.8L33.25 5.95L34.2 6.3L34.25 6.35L34.1 6.65L34.3 6.6L34.45 6.5L34.5 6.55L34.75 6.75L35 7L35.25 7.45L35.25 7.8L35 8.05L34.75 7.75L34.2 7.1L33.85 6.75L33.6 6.5L32.35 6.25L32.15 6.4Q31.8 6.6 32.05 6.2L31.9 6.2L31.6 6.3Q31.4 6.35 31.15 6.5L30.9 6.35L30.85 6.4Q30.45 6.75 30.75 6.8L30.5 6.95L30.4 7L30.05 6.7M35.2,18.25L35.2 18.4L35.25 18.7L35.3 19L35.4 19.55L35.5 20.05L35.6 20.4L35.65 20.45L35.7 20.45L35.9 20.35L36.6 19.9L37.6 19.75L37.8 19.7L38.25 19.6L38.65 19.75L38.8 19.8L39.1 19.7Q39.25 19.55 39.4 19.55L39.75 19.8L40.45 20.35Q40.05 20.7 40.7 20.75L40.65 21.4L40.55 22.1L40.4 22.5L40.4 22.05L40.4 22L40 22L39.1 22.45L38.9 22.2L38.45 22.55L38.45 22.6Q38.7 22.8 38.45 22.9Q37.55 23.15 38 22.65L37.8 22.65L37.45 22.65L37.4 22.45L37.1 22.2L36.75 22.5L36.65 22.45L36.6 22.45Q36.15 22.1 36.35 21.65L36.3 21.65L36.2 21.7Q35.5 21.85 36.05 21.25L36 21.2L35.85 21.05Q35.55 20.75 35.2 20.75L35.2 20.7L35.1 20.5L34.95 20.5L34.7 20.55L34.65 20.6L34.5 20.65L34.4 19.75Q34.1 19.75 33.55 19.35L33.25 19.15L33.25 18.95L32.95 18.65L32.9 18.65L32.55 18.8L32.35 18.6L32.3 18.6Q31.1 18.8 31.95 18.15L31.4 17.7Q30.8 17.15 30.8 16.5L30.85 16.45L31.2 16.4L31.3 16.15L31.45 16.15L31.45 15.7Q30.45 15.85 31.35 15.2L31.4 14.85L31.45 14.8L31.75 14.6L31.85 14.5L31.4 14.25L31.25 13.9L31.3 13.45L31.35 13.45L31.5 13.5L31.8 13.6L32.8 14.1Q32.35 14.6 33.15 14.4L33.2 14.4L33.3 14.45Q33.6 15 33.15 15.65L32.95 15.55L32.65 15.35L32.65 15.2L32.4 14.9L32.15 15.2L32.3 15.45L32.5 15.4L32.7 16.05L32.65 16.1L32.3 16.35L32.95 16.8L33.7 17.25L33.9 17.35L33.75 17.55L33.9 17.75L34.25 17.7L34.35 17.65L34.5 17.8L34.7 18.15L34.7 18.1L34.95 18.2L35.2 18.25M34.6,11.45L34.5 11.65Q34.45 12.25 35.45 12.9L36.2 13.35L36 13.65L35.9 13.75L35.7 14.55Q35.7 15.3 36.25 16.2L36.4 16.45L36.55 16.65L37.6 17.55L37.3 17.65L36.65 17.85L36.3 17.7L36.1 17.25L35.85 16.95L35.75 16.8L35.5 16.55Q35.25 16.3 34.9 16.15L35.3 15.55L35.3 14.85L35 13.65L34.15 12.55L33.75 12.35L33.7 12.35L33.3 12.25L33.3 12.15L33.25 11.65L32.8 10.75L32.7 10.65L32.6 10.45L32.4 9.95L32.45 9.65L32.45 9.55L32.45 9.45L32.55 9.45L32.65 9.25L32.65 9.15L32.65 9.1Q32.8 8.85 33.15 8.7L33.25 8.65L33.65 8.6L34 8.55L34.1 8.75L34.05 9.15L34.2 9.65L34.25 9.75Q34.5 10.25 35.35 10.7L36.3 11.25L36.85 11.4L37.05 11.45L38.75 11.4L39.65 12.25L39.75 12.3L40.3 12.65L40.6 12.8L41.25 13L41.3 13L41.75 13.05L42.3 12.95L42.5 12.85L42.6 13.4L42.8 14.55L42.55 14.9L42.8 14.95L42.8 15.05L42.7 15.15L42.7 15.2L42.75 15.3L42.75 15.45L42.8 15.4Q43.05 15.5 42.95 15.8L42.85 15.9L42.55 15.8L42.45 16L42.4 16.05L42.4 16.15L42.35 16.3L42.25 16.4L42.1 16.35L41.95 16.25L41.7 16.3L41.7 16.35L41.5 16.55L41.45 16.55L41.4 16.5Q41.05 16.45 41.3 16.3L41 16.25L40.7 16.15L40.65 16.05L40.55 15.85L39.7 14.15L38.9 13.3L38.5 13L38.25 12.9L37.5 12.65L37.35 12.6L37.05 12.55L36.9 12.5L36.65 12.45L36.55 12.45L35.7 12.05L34.75 11.1L34.7 11.25L34.6 11.45M40.7,8L40.35 7.65Q39.65 8.55 40.65 8.25L40.7 8M41.35,10.05L40.65 9.7L40.05 9.1Q39.85 8.55 39.55 8.5L39.35 8.45L39.2 8.35L39 8.05L38.7 7.9L38.85 7.85L38.95 7.75L38.95 7.65L38.65 7.4L38.55 7.55L38.4 7.75L38.1 7.45Q37.3 7.65 37.85 7.2L37.95 7.1L38.1 7.15Q38.1 6.95 38.25 6.8L39.25 6.9L39.75 7L40.4 7.25L41.6 7.95Q41.05 8.65 41.8 8.05L42.3 8.3L42.35 8.25L42.5 8.3Q42.75 8.5 42.5 8.55L42.45 9.7Q41.85 10.15 41.35 10.05M43.55,9.9Q42.9 10.4 43.75 10.15L43.8 10.15L43.8 10.2L43.95 10.6L44.05 11.05L43.85 11.25L43.6 11.25L43.15 11.45L42.7 10.95Q42.45 10.8 42.4 10.25L42.85 10L43.1 9.8L43.55 9.9M41.55,11.75L41.2 11.05L41.05 10.95L40.55 10.85L40.15 10.75L40.05 10.5L40.1 10.2L40.35 10.3L40.95 10.45L41.7 10.55L41.7 11.8L41.7 11.85L41.55 11.75M41.6,14.65L41.9 14.6L42 14.6L42 14.4L41.95 14.25L41.7 14.15L41.55 14.35L41.6 14.65M37.45,5.85L37.25 5.9L37.2 5.85L36.9 5.45L36.85 5.3L36.45 4.65L36.25 4.6L35.75 4.75L35.65 4.75L35.2 4.45L35.45 4.4L35.5 4.2L35.25 3.95L34.95 4.3L34.8 4.3L34 4.2L33.65 4.15L33.95 4.05L34 3.9Q33.95 3.65 33.7 3.65Q33.5 3.85 33.45 4L33.45 4.1L33.1 4.1L32.95 4.15L32.45 4.35L32.65 3.95L32.7 3.85L33 3.7L33.25 3.6L35.8 3.8L36.35 4.1Q36.65 4.45 37.45 4.6L38 5.25L38.05 5.45L38.1 5.85L37.45 5.85M32.1,4.55L32 4.7Q31.15 4.9 31.8 4.35L32 4.4L32.05 4.45L32.1 4.55M38.7,10.65L38.6 10.35L38.25 9.9L38.05 9.5L38 9.5Q37.15 9.65 37.8 9.25L37.5 8.95L36.8 8.35L36.7 8.3L37 8.15L37.15 8.3L37.25 8.4Q38.05 9.1 39.1 9.7L38.85 10.45L38.7 10.65M29.95,9.8L30.2 10.2L30.9 11.35L30.8 11.8L30.4 11.4L30.1 11.1Q29.5 11.25 29.85 10.8L29.7 10.65L29.6 10.45L29.75 10.45L29.85 10.15Q29.75 10 29.6 10L29.45 10.1L29.3 9.7L29.1 8.9L29.15 8.85L29.2 8.85L29.95 9.8M33.8,10.8Q33.4 11.2 34.3 11L34.4 10.95L34.35 10.85L34.05 10.55L33.8 10.8M32.95,9.6Q32.3 10.3 33.25 10.05L33.35 9.8L33.3 9.6L33.05 9.5L32.95 9.6M35.75,9.15Q35.95 9.3 35.75 9.35Q34.85 9.6 35.55 9.05L35.75 9.15M20.7,1.2L22.45 2.75L21.05 2.75L21.05 2.3L20.8 2.3L21.4 1.95L21.4 1.9Q21.25 1.5 20.85 1.5L20.85 1.45L20.45 2.25L19.4 1.6L18 0.7L19.35 0.55Q20.05 0.8 20.7 1.2M23.85,5.25L23.8 5.05L23.7 4.6L23.65 4.3L22.05 4.1L20.95 3.95L20.85 3.95L20.25 4L20.25 3.85L20.2 3.45L21.4 3.45L23.7 3.5L24.2 3.5L24.25 3.65L24.55 5.3L24.55 5.4L24.55 5.75L24.1 5.55L24.05 5.55L23.9 5.45L23.85 5.25M25.15,9.95Q24.2 10.15 24.15 10.3L23.55 10.3L23.5 9.9L23.4 9.65Q21.1 9.75 22.8 9L22.55 8.8L21.3 8.05L21.15 7.9L21 7.75L20.8 7.5L20.75 7.4L20.6 7.15L21 6.85L21.1 6.75L20.85 6.4L20.6 6.3L20.5 6.5L20.35 6.75L20 6.3L19.9 6.2L19.3 5.6L21 5.8Q20.35 6.55 22 6.2L22.05 6.2L22.2 6.05L22.75 6.25L22.8 6.3Q24.6 7.1 25.25 9.75L25.3 9.9L25.15 9.95M23.55,7.3L23.2 7.1Q21.1 8.7 23.5 8Q24 7.85 23.55 7.3M19,9.75L19.2 9.45L19.25 9.3L20.15 9.7L21 10.35L21.1 10.5L21.6 11.55L21.15 12.35L19.8 13.1L19.7 13.15L19.2 13.25Q19.5 13.65 19 13.7L17.8 13.75L17.3 14.25L16.3 15L15.3 14.35L15.25 13.45Q15.25 12.9 15.5 12.45L15.7 12.35L15.95 12.2L16.05 12.15L16.5 11.95Q18.3 11 19 9.75M9.85,11.4L10.1 11.05L10.65 10.35L11.05 9.9L11.1 9.9L11.7 9.55L12.3 9.3L12.7 9.2L13.3 9.05L13.6 8.95L14.8 8.8L15 8.8L15.2 9L16.1 8.9L16.45 8.8L16.55 8.8L18.75 9.1L19.2 9.25L19.1 9.35L18.9 9.55L18.5 9.9L16.2 10.8L15.9 10.95Q15.25 11.3 15.05 12.05L15 12.4L14.9 12.4L14.9 12.5L14.8 12.8Q14.65 13.35 14.8 14.15L14.9 14.7L15.1 14.85L15.75 15.25L15.4 15.35L14.85 15.35L14.35 15.25L13.8 15.1L13.7 15.2Q11.05 16.25 12.5 14.2L11.9 13.8L11.65 13.7L11.5 13.8L11.25 13.6L10.7 13.05Q10.05 12.25 9.85 11.4M22.35,13.4L22.55 12.65Q23.65 11.9 25.4 11.2L26.4 10.8L26.5 10.95L26.65 11.55L26.7 11.8L26.9 12.65L27.25 15.1L27.2 15.1L27.05 14.85L26.5 13.35L25.9 13.25Q26.3 13.2 26.15 12.7L25.8 12.2L25.4 12.05L24.6 12.85L22.3 13.55L22.35 13.4M20.95,16.2L21.3 15.8L21.85 14.95Q22.3 15.4 23.2 15.55L23.95 15.65L26.95 15.7L25.05 17.45L24.45 17.95L23.95 18.35L23.25 18.85L23 19L22.55 19.3L22.8 18.6Q23.05 18 23.35 17.85L23.4 17.8Q23.7 17.7 23.95 17.55L24.2 17.25L24.5 16.95L24.3 16.5L24.1 16.35L23.9 16.3L23.15 16.9L22.95 17.1L22.2 16.85Q21.7 16.45 21.3 16.4L20.8 16.35L20.95 16.2M39.9,12.8L39.7 12.7L39.4 13.05Q39.15 13.35 39.9 13.15L40 12.95L39.9 12.8M30.45,16.2Q29.4 16.5 30.3 15.75L30.55 15.95L30.45 16.2M32.85,17.45L32.9 17.3L32.65 17.05Q32 17.7 32.85 17.45M33.9,18.2Q33.35 18.95 34.1 18.4L34.05 18.25L33.9 18.2M38.25,20.6Q37.55 21.25 38.45 21.05L38.5 20.85L38.25 20.6M39.9,21.05L39.9 20.8L39.7 20.7Q39 21.25 39.9 21.05M36.65,20.9Q35.9 21.4 36.75 21.25L36.85 21.2L36.9 20.95L36.8 20.9L36.65 20.85L36.65 20.9M18.25,3.45L17.4 2.85L17.35 2.6L17.15 2.35L16.85 2.15Q15.25 2.9 16.1 3L16.5 3L15.95 3.4L15.55 3.75L15.5 3.8L15.45 3.8L15.3 3.7L14.8 3.35L14.4 3.15L14.4 3.05Q14.75 1.6 16.45 1.05L17.15 1.4L18.35 2.2L19.25 2.95L19.7 3.35L19.7 3.45L18.25 3.45M19.65,4.05L19.65 4.15L18.85 4.25L18.85 4.15L19.65 4.05M17.55,3.15Q17.95 3.15 18.1 3.55L18.1 3.6L18 3.65Q16.7 4.4 17.15 3.65L17.55 3.1L17.55 3.15M12.85,6.3L12.95 5.45L12.95 4.5L13.4 4.5L13.55 4.15L13.9 4.3L14.6 4.45L15 4.5L15.1 4.25L15.65 4.6L15.75 4.7L15.85 4.75L15.7 4.7L16.1 5.45L16.35 5.2L16.45 5.25L16.75 5.35L16.95 5.65L16.95 5.8L16.9 5.85L16.2 6L16.25 6.15L16.25 6.65L15.55 6.5L14.7 6.4L14.7 6.85Q13.9 7.1 13.3 6.85Q13.35 7.55 13 7.65L12 7.7L11.75 8.1L11.2 8.05L10.85 7.9L10.3 7.65L11.7 6.85L12.2 6.45L12.25 6.4L12.85 6.3M11.65,5.05L11.55 5.7L11.4 5.65L11.2 5.6L10.65 5.8L10 6.4L9.7 6L9.7 5.85L10.1 4.8L10.25 4.5Q9.9 5.25 11.15 4.4L11.15 4.35Q11 3.95 10.6 3.95Q10.95 3.6 11.25 3.6L11.8 4.1L11.9 4.25L11.9 4.3L11.9 4.4L11.65 5.05M13.55,4.3L13.15 5.2L14.1 4.75L14.1 4.7L13.85 4.35L13.55 4.3M14.25,5.35Q13.05 7.2 14.6 5.95Q14.95 5.7 14.5 5.45L14.25 5.35M14.55,9.7L14.35 9.55L14.15 9.45Q12.95 11.3 14.5 10.05L14.55 9.7M13.55,11.55L13.3 11.45Q11.7 13.2 13.7 11.9Q13.95 11.75 13.55 11.55M19.9,11.2L19.8 11.2Q16.95 12.25 19.75 12.05L20 12Q20.6 12 20.15 11.4L19.9 11.2M19.2,19L19.2 19.1L18.55 19.9L17.65 20.15L17.55 20.15L17.15 20.15L16.2 20L16.15 20L15.45 19.85L14.85 19.7Q13.05 19.15 10.95 17.95L9.8 17.2L9.4 16.95L7.7 15.4L7.65 15.1L7.7 14.8L7.8 14.75Q8.35 14.75 9.25 15.7L9.75 16.25L10.1 16.7L10.15 16.75L11.5 17.7L13.05 18.3L14.5 18.5L15 18.5L15.25 18.5L15.7 18.55L16.65 18.55L17.3 18.55L17.75 18.55L18.8 18.65L19.1 18.7L19.2 19M18.75,15.25L18.4 15.55L18 15.7L18.5 14.85Q19.1 14.95 18.75 15.25M15.8,16.6Q14.4 17.95 15.55 16.15Q16.15 16.25 15.8 16.6M10.4,13.15L10.75 13.35L10.95 14L10.9 14.05L10.8 14.1Q9.05 14.4 10.25 13.1L10.4 13.15M30.6,38.95L30.3 39.45L29.75 40.15L29.6 40.35L27.95 42.5L27.75 42.75L27.4 42.8L27.25 42.8Q24.8 42.75 24.25 41.75L24.05 41.45L23.9 41.9L23.85 41.95L22.6 41.85L22.6 41.75Q22.55 41.35 22.75 41.05L22.95 40.8L22.45 40.75L22.4 40.75Q21.7 40.75 21.1 40.1L20.8 39.75L20.6 39.5L20.3 38.95L20.05 38.55L20.4 38.55L20.75 38.45L20.95 38.45Q21.3 38.35 21.15 37.8L20.75 37.2L20.5 37.15L20 37.55L19.65 37.9L19.05 37.4L18.55 36.95L17.55 36.15Q15.6 36.95 16.65 36L16.8 35.85L17 35.65L16.9 35.55L16.65 35.3Q15.85 34.55 15.6 33.6L15.45 33.05L15.4 31.9L15.25 32L15.2 32L15.05 32.2L15 32.05L15 31.75L14.75 31.4L14.75 31.65L14.65 32.1L14.4 32.15Q13.35 32.15 12.2 31.4L12.05 31.3L12 31.25L12 31.2L11.95 31.25L10.9 31.35L10.8 31.3L10.7 30.95L10.7 30.8L10.8 30.4L10.9 30.35L10.95 30.35L11 30.3L10.65 30L11.1 29.7Q11.45 29.5 10.95 29.2L10.7 29.1L10.25 29.65L9.2 28.95L8.25 28.35L8.05 28.25L7.65 28.3Q6.55 28.35 7.1 27.65L5.55 26.55L4.2 25.35L4.4 24.85L5.75 24.85L6.2 24.9L6.3 24.9L6.8 25.15L7 25.25L9.25 26.45L9.85 26.75L9.9 26.8Q12.5 28.15 15.25 28.9L16 29.1L16.6 29.25L18.3 29.3L18.6 29.2L17.95 28.95L17.1 28.15L16.6 27.75L15.75 27.25L15.65 27.2L15.5 27.15Q14.7 26.9 14.45 26.65L13.85 26.4L11.95 26.35L12 26.25Q12.05 25.95 12.25 25.8L11.75 25.45L11.25 24.9L11.85 24.4L11.95 24.4L13.75 24.2L15.2 23.95L16.15 24Q16.1 24.7 17 24.65L17.4 24.45L17.5 24.15Q18.6 24.35 19.2 24.85L19.3 24.95L19.65 25.3L21.95 27.35L22.9 28.1L23.35 28.5L23.4 28.5L23.75 28.95L24.45 29.65L24.8 29.9L24.95 30L25.75 30.55L25.65 30.8L25.75 31.3L27.05 31.25L27.45 31.45L28.55 32.05L28.75 32.35L28.9 33L28.9 33.1L29.1 32.9L29.35 32.65L29.5 32.7L29.55 32.7Q30.1 32.85 30 33.45L29.95 33.5L29.05 33.5L29.35 34.05Q30.25 35 30.6 36.25L31 38.3L30.6 38.95M16.85,19.25L16.45 18.9L16.25 18.85Q15.45 19.4 15.4 19.65L15.45 19.85L16.15 19.85L16.75 19.75Q17.1 19.7 16.85 19.25M18.45,26.15L18.05 26.7Q17.7 27.25 18.2 26.9L18.8 26.4L18.95 26.25L18.7 26.05L18.6 26L18.5 26L18.45 26.15M16.05,32.4L15.95 32.4L16 32.5L17 32.95L17.15 33L17.4 33.1L17.7 33.25L17.75 33.25L18.5 34L18.7 34.2L19.05 34.4L19.85 34.7L20.95 35.2L21.05 35.25L21.75 35.55L21.8 35.55L24.05 36.05L25.05 36.05L25.8 36.25L25.4 35.95Q23.8 34.9 21.9 34.15L21.2 33.85L21 33.8L20.8 33L20.7 31.75L20.65 30.95L21.05 30.75L21.7 30.35L21.85 30.2L22.25 29.85L22.65 29.4L23 28.75L22.95 28.65L22.75 28.65L21.95 29.3L21.95 29.35Q21.75 29.45 21.5 29.65L20.8 30L20.1 30.3L20.05 30.35Q19.05 31 18.95 31.85L18.9 32.15L18.8 32.2L17.75 32.3L16.8 32.3L16.35 32.3L16.7 32.5L16.05 32.4M12.2,30Q13.25 30.9 13.5 29.45L13.4 29.3Q12.55 29.35 12.25 29.95L12.2 30M13.35,39.6L13.35 39.55Q13.1 39.25 13.3 39.05L13.2 38.95L13.15 38.7L13.85 39.45L13.35 39.6M19.05,35.3L18.9 35.25L18.4 35.9Q17.95 36.5 18.65 36.1L19.3 35.7Q19.65 35.5 19.05 35.3M20.15,40.6Q20.85 40.9 20.75 41.65L20.7 41.7L19.85 41.8Q18.85 41.75 19.95 40.5L20.15 40.6M13,39.85Q13.65 40.3 12.95 40.55Q12.8 40.6 12.7 40.45L12.65 40.1L12.65 40L12.9 39.8L13 39.85M30.45,31.4L29.9 30.7L31.05 31.05L31.4 31.25L34.05 33.1Q34.45 33.4 34.75 34.35L35.1 35.15L34.9 35.75L34.7 35.8L34.45 35.8L34.3 35.75Q33.95 35.6 33.7 34.8L33.4 33.5L32.05 32.4L31.9 32.3L31.55 32.05L30.9 31.65L30.75 31.55L30.45 31.4M28.1,32.8Q27.9 32.6 27.6 32.55L27.05 32.9Q25.5 34 27.7 33.75L28.15 33.7L28.25 33.2L28.1 32.8M28.55,37.3L27.9 37.85Q27.35 38.4 28.05 38.3L29 38.05L29.2 37.8L29.15 37.7L28.95 37.45Q28.75 37.3 28.55 37.3M25.4,38.55L24.25 37.9L23.7 38.1L23.7 39L25.45 39.35L27.2 39.45L25.4 38.55M30.8,43.15L30.15 42.9L29.65 43.3L29.5 43.3L29.65 42.95L30.1 41.75L30.35 41.1L30.7 39.8L31.1 39L31.35 38.55L31.7 38.95L32.25 39.85L32.45 40.25L32.3 40.75L31.7 42.15L31.65 42.15L31.3 42.85L31 43.25L30.8 43.15" />
<path style="fill:#877E71;fill-opacity:1" d="M29.8,6.85L30.05 6.7L30.4 7L30.5 6.95L30.75 6.8Q30.45 6.75 30.85 6.4L30.9 6.35L31.15 6.5Q31.4 6.35 31.6 6.3L31.9 6.2L32.05 6.2Q31.8 6.6 32.15 6.4L32.35 6.25L33.6 6.5L33.85 6.75L34.2 7.1L34.75 7.75L35 8.05Q34.7 8.15 34.55 8.35L33.4 7.3L32.95 7.05L32.75 6.95L32.3 6.95L31.45 7.15L31.15 7.3L30.7 7.6L30.45 7.8L30.35 7.85L29.8 7.65L29.2 7.35L29.7 6.85L29.8 6.85M29.2,8.75L29.2 8.85L29.15 8.85L29.1 8.9L29.3 9.7L29.45 10.1L29.6 10Q29.75 10 29.85 10.15L29.75 10.45L29.6 10.45L29.7 10.65L29.85 10.8Q29.5 11.25 30.1 11.1L30.4 11.4L30.8 11.8L31.1 11.9L31.5 11.8L31.2 12L30.95 12.15L30.7 12.35L30.5 12.45L30.3 12.7L30.15 12.85L29.8 12.15L29.75 12L29.7 11.95L29.35 11.3L29.1 10.8L28.7 9.95L28.75 8.65L28.75 8.6Q28.75 8.3 28.9 8.2L29.2 8.75M31.35,13.15L31.3 13.35L31.3 13.45L31.25 13.9L31.4 14.25L31.85 14.5L31.75 14.6L31.45 14.8L31.4 14.85L31.35 15.2Q30.45 15.85 31.45 15.7L31.45 16.15L31.3 16.15L31.2 16.4L30.85 16.45L30.8 16.5Q30.8 17.15 31.4 17.7L31.95 18.15Q31.1 18.8 32.3 18.6L32.35 18.6L32.55 18.8L32.9 18.65L32.95 18.65L33.25 18.95L33.25 19.15L33.55 19.35Q34.1 19.75 34.4 19.75L34.5 20.65L34.65 20.6L34.7 20.55L34.95 20.5L35.1 20.5L35.2 20.7L35.2 20.75Q35.55 20.75 35.85 21.05L36 21.2L36.05 21.25Q35.5 21.85 36.2 21.7L36.3 21.65L36.35 21.65Q36.15 22.1 36.6 22.45L36.65 22.45L36.75 22.5L37.1 22.2L37.4 22.45L37.45 22.65L37.8 22.65L38 22.65Q37.55 23.15 38.45 22.9Q38.7 22.8 38.45 22.6L38.45 22.55L38.9 22.2L39.1 22.45L40 22L40.4 22L40.4 22.05L40.4 22.5L40.4 22.65L40.25 22.9L39.9 23.3L39.25 24L37.2 24.05L36.15 23.85L36.05 23.8L35.7 23.45L35.6 23.25L35.6 23.2L34.55 21.55L34.55 21.5Q34.35 21.25 33.95 21.05L33.15 20.8L32.6 20.7L32.15 20.6L29.25 16.75Q29.05 16.35 30.1 14L30.9 13.4L30.95 13.35L31.25 13.2L31.3 13.15L31.35 13.1L31.35 13.15M36.7,13.65Q36.35 14.6 36.7 15.35L36.95 15.85L37.3 16.25Q37.85 16.8 38.55 16.9L39.6 16.9L40.3 17.75L40.75 18L41.3 18.1L40.95 18.95L40.15 18.6L40.1 18.6L39.55 18.4L38.8 18.2Q38 18.05 36.05 19.45L35.6 17.7L35.35 17.2L34.3 16.45L34.05 16.25L34.35 15.35L34.55 14.5Q34.6 14 34.15 13.65L33.1 13.05L32.95 13L32.45 12.75L31.85 12.55Q32.15 11.95 32.05 11.55L31.7 10.75L31.55 10.55L31.1 9.75L30.55 8.7L30.85 8.3L30.85 8.25Q31.05 8 31.45 7.8L31.95 7.6L32.35 7.5L32.45 7.45L33.2 7.8L33.25 7.85L34 8.55L33.65 8.6L33.25 8.65L33.15 8.7Q32.8 8.85 32.65 9.1L32.65 9.15L32.65 9.25L32.55 9.45L32.45 9.45L32.45 9.55L32.45 9.65L32.4 9.95L32.6 10.45L32.7 10.65L32.8 10.75L33.25 11.65L33.3 12.15L33.3 12.25L33.7 12.35L33.75 12.35L34.15 12.55L35 13.65L35.3 14.85L35.3 15.55L34.9 16.15Q35.25 16.3 35.5 16.55L35.75 16.8L35.85 16.95L36.1 17.25L36.3 17.7L36.65 17.85L37.3 17.65L37.6 17.55L36.55 16.65L36.4 16.45L36.25 16.2Q35.7 15.3 35.7 14.55L35.9 13.75L36 13.65L36.2 13.35L36.7 13.65M42.1,17.3L41.35 17.5L41.05 17.45L40.75 17.35L40.05 16.7L40 16.6L40.05 16.2Q40 15.45 39.55 14.65Q39.15 13.95 38.35 13.55L37.9 13.35L37.55 13.25L37.35 13.2L37.2 13.15Q36.3 12.9 35.85 12.55L35.35 12.05L34.75 11.15L34.7 11.25L34.75 11.1L35.7 12.05L36.55 12.45L36.65 12.45L36.9 12.5L37.05 12.55L37.35 12.6L37.5 12.65L38.25 12.9L38.5 13L38.9 13.3L39.7 14.15L40.55 15.85L40.65 16.05L40.7 16.15L40.75 16.25L41.05 16.6L41.15 16.7L41.35 16.8L41.8 16.9L42 16.9L42.8 16.75L42.6 16.85L42.1 17.3M40.65,8.25Q39.65 8.55 40.35 7.65L40.7 8L40.65 8.25M38.65,6.5L38.55 6.55L38.25 6.8Q38.1 6.95 38.1 7.15L37.95 7.1L37.85 7.2Q37.3 7.65 38.1 7.45L38.4 7.75L38.55 7.55L38.65 7.4L38.95 7.65L38.95 7.75L38.85 7.85L38.7 7.9L39 8.05L39.2 8.35L39.35 8.45L39.55 8.5Q39.85 8.55 40.05 9.1L40.65 9.7L41.35 10.05L40.75 9.9L40.05 9.7L39.1 9.2L38.55 8.85L38.05 8.5L38 8.45L37.6 8.1L37.1 7.4L37.05 7.35L37 6.9L37.2 6.6L38.15 6.45L38.65 6.5M42.7,10.95L43.15 11.45L43.6 11.25L43.85 11.25L43.1 11.95L42.3 12.35L42.05 12.45L42.1 12.15L42.15 11.25L42.1 10.45L42.4 10.25Q42.45 10.8 42.7 10.95M40.1,10.2L40.05 10.5L40.15 10.75L40.55 10.85L41.05 10.95L41.2 11.05L41.55 11.75L41.7 11.85L41.65 12.2L41.5 12.45L41.05 12.45L40.9 12.4L40.2 12.1L40.1 12L39.1 11.05L39.3 10.7L39.55 10.2L39.6 10L40.1 10.2M32.7,3.85L32.65 3.95L32.45 4.35L32.95 4.15L33.1 4.1L33.45 4.1L33.45 4Q33.5 3.85 33.7 3.65Q33.95 3.65 34 3.9L33.95 4.05L33.65 4.15L34 4.2L34.8 4.3L34.95 4.3L35.25 3.95L35.5 4.2L35.45 4.4L35.2 4.45L35.65 4.75L35.75 4.75L36.25 4.6L36.45 4.65L36.85 5.3L36.9 5.45L37.2 5.85L37.25 5.9Q36.5 6.05 36.25 6.65L36.15 6.85L36 6.6L35.55 5.95L35.15 5.35L35.05 5.2L34.85 5.05L34.3 4.95L34.1 4.95L33.3 4.9L32.2 5.05L31.65 5.2L31.35 5.3L30.5 5.7L30.05 5.95L30 5.95L30 5.9L30.4 5.4L30.65 5.05L31.05 4.75L31.4 4.55L31.9 4.25L32.2 4.1L32.55 3.95L32.7 3.85M32.05,4.45L32 4.4L31.8 4.35Q31.15 4.9 32 4.7L32.1 4.55L32.05 4.45M32.4,4.35L32.4 4.4L32.45 4.35L32.4 4.35M36.7,8.3L36.8 8.35L37.5 8.95L37.8 9.25Q37.15 9.65 38 9.5L38.05 9.5L38.25 9.9L38.6 10.35L38.7 10.65L38.55 10.85L38.3 10.9L36.65 10.8Q35.55 10.5 34.8 9.55L34.7 9.4L34.55 8.85L35.35 8.4L35.9 7.9L36.4 7.3L37 8.15L36.7 8.3M34.05,10.55L34.35 10.85L34.4 10.95L34.3 11Q33.4 11.2 33.8 10.8L34.05 10.55M33.05,9.5L33.3 9.6L33.35 9.8L33.25 10.05Q32.3 10.3 32.95 9.6L33.05 9.5M35.55,9.05Q34.85 9.6 35.75 9.35Q35.95 9.3 35.75 9.15L35.55 9.05M19.4,1.6L20.45 2.25L20.8 2.3L21.05 2.3L21.05 2.75L22.45 2.75L23.55 2.75L23.75 2.95L22.55 2.95L21.8 2.95L20 2.9L19.4 2.5L19.25 2.35L17.1 0.8L18 0.7L19.4 1.6M23.9,5.45L23.45 5.2L21.9 4.6L20.35 4.15L20.3 4.15L20.25 4L20.85 3.95L20.95 3.95L22.05 4.1L23.65 4.3L23.7 4.6L23.8 5.05L23.85 5.25L23.9 5.45M26.25,10.05L26.25 10.1L22.75 12.05L22.55 12.15L22.55 12.1L22.35 10.85L22.1 10.1L22.05 10Q21.6 9 20.7 8.3Q19.95 7.7 19 7.35L18.35 7.1L18.3 7.1L17.95 6.25L17.2 5.25L18.15 4.95L18.7 5.2Q19 5.35 19.3 5.6L19.9 6.2L20 6.3L20.35 6.75L20.5 6.5L20.6 6.3L20.85 6.4L21.1 6.75L21 6.85L20.6 7.15L20.75 7.4L20.8 7.5L21 7.75L21.15 7.9L21.3 8.05L22.55 8.8L22.8 9Q21.1 9.75 23.4 9.65L23.5 9.9L23.55 10.3L24.15 10.3Q24.2 10.15 25.15 9.95L25.3 9.9L26.15 9.7L26.25 10.05M23.5,8Q21.1 8.7 23.2 7.1L23.55 7.3Q24 7.85 23.5 8M17.3,14.25L17.8 13.75L19 13.7Q19.5 13.65 19.2 13.25L19.7 13.15L19.8 13.1L21.15 12.35L21.6 11.55L21.65 11.45L21.8 10.65L22.1 11.75L22.05 12.35L21.9 12.9L21.75 13.4L21.7 13.7L20.75 15.5L20.65 15.6L20.35 15.95L19.95 16.35L19.25 16.85L18.5 17.15L17.95 16.45L17.8 16.3L17.45 15.95L16.3 15L17.3 14.25M15.5,12L15 12.4L15.05 12.05Q15.25 11.3 15.9 10.95L16.2 10.8L18.5 9.9L15.9 11.75L15.5 12M10.7,13.05L11.25 13.6L11.5 13.8L11.65 13.7L11.9 13.8L12.5 14.2Q11.05 16.25 13.7 15.2L13.8 15.1L14.35 15.25L14.85 15.35L15.4 15.35L15.75 15.25L16.15 15.6L16.85 16.2L17.9 17.15L18.15 17.35L17.75 17.4L17.55 17.45L17.4 17.45L16.25 17.5L15.75 17.5L14.95 17.45L13.7 17.35L12.25 16.85L11.15 15.9L10.95 15.65L10.6 15.3L10.4 15.05L9.6 14.15L9.1 13.4Q8.95 13.1 9.7 11.75L9.85 11.4Q10.05 12.25 10.7 13.05M25.3,15.2L23.9 15.1L22.95 15L22.25 14.55Q22.05 14.35 22.15 14.15L22.3 13.55L24.6 12.85L25.4 12.05L25.8 12.2L26.15 12.7Q26.3 13.2 25.9 13.25L26.5 13.35L27.05 14.85L27.2 15.1L25.3 15.2M26.6,24.05Q26.55 23.9 26.85 23.55L27.15 23.8L27.1 24.05L26.65 24.1L26.6 24.05M21.8,19.75L20.6 20.25L20.45 20.3L20 20.35L19.7 20.1L19.7 20.05L19.75 19.45L19.65 18.85L19.15 17.65L20.8 16.35L21.3 16.4Q21.7 16.45 22.2 16.85L22.95 17.1L23.15 16.9L23.9 16.3L24.1 16.35L24.3 16.5L24.5 16.95L24.2 17.25L23.95 17.55Q23.7 17.7 23.4 17.8L23.35 17.85Q23.05 18 22.8 18.6L22.55 19.3L21.8 19.75M24.4,18.7L25.35 19.8L25.2 20.8L24.95 21.65L24.85 21.65L24.5 21.65L24.45 21.15L24.4 20.7L23.95 19.5L23.9 19.4L23.7 19.2L24.4 18.7M23.2,23.85L23.1 23.9Q22.4 24.5 22.95 23.75L23.1 23.8L23.2 23.85M26.95,22Q27.15 22.35 26.8 22.4Q25.55 22.45 26.75 21.85L26.95 22M40,12.95L39.9 13.15Q39.15 13.35 39.4 13.05L39.7 12.7L39.9 12.8L40 12.95M30.55,15.95L30.3 15.75Q29.4 16.5 30.45 16.2L30.55 15.95M18.85,4.15L18.85 4.25Q17.8 4.45 16.95 4.95L16.4 4.45L15.5 3.8L15.55 3.75L15.95 3.4L16.5 3L16.1 3Q15.25 2.9 16.85 2.15L17.15 2.35L17.35 2.6L17.4 2.85L18.25 3.45L19.7 3.45L19.65 4.05L18.85 4.15M17.55,3.1L17.15 3.65Q16.7 4.4 18 3.65L18.1 3.6L18.1 3.55Q17.95 3.15 17.55 3.15L17.55 3.1M16.35,5.2L16.1 5.45L15.7 4.7L15.85 4.75L16.45 5.25L16.35 5.2M16.95,5.8L17.3 6.3L17.7 7.1L16.25 7.25L14.1 7.7L13.75 7.8Q12.6 8.2 11.8 8.7L11.4 8.9L11.25 8.85L10.85 8.65L10.75 8.6L10 7.75L10.3 7.65L10.85 7.9L11.2 8.05L11.75 8.1L12 7.7L13 7.65Q13.35 7.55 13.3 6.85Q13.9 7.1 14.7 6.85L14.7 6.4L15.55 6.5L16.25 6.65L16.25 6.15L16.2 6L16.9 5.85L16.95 5.8M11.9,4.4L12 5.95L10.95 6.7L9.85 7.25L9.75 6.4L9.7 6L10 6.4L10.65 5.8L11.2 5.6L11.4 5.65L11.55 5.7L11.65 5.05L11.9 4.4M14.5,5.45Q14.95 5.7 14.6 5.95Q13.05 7.2 14.25 5.35L14.5 5.45M13.7,11.9Q11.7 13.2 13.3 11.45L13.55 11.55Q13.95 11.75 13.7 11.9M20.15,11.4Q20.6 12 20 12L19.75 12.05Q16.95 12.25 19.8 11.2L19.9 11.2L20.15 11.4M7.7,15.4L9.4 16.95L9.8 17.2L10.95 17.95Q13.05 19.15 14.85 19.7L15.45 19.85L16.15 20L16.2 20L17.15 20.15L17.55 20.15L17.65 20.15L18.55 19.9L19.2 19.1L19.25 19.6L19.25 19.9L19.2 20L19.15 20.4L19 20.5L17.4 20.85L17.05 20.9L16.7 20.9L16.3 20.9L15.5 20.8Q14.3 20.55 12.95 19.8L11.4 18.95L10.55 18.4L9.65 17.65L9.25 17.3L8.1 16.25L7.7 15.4M18.5,14.85L18 15.7L18.4 15.55L18.75 15.25Q19.1 14.95 18.5 14.85M15.55,16.15Q14.4 17.95 15.8 16.6Q16.15 16.25 15.55 16.15M10.25,13.1Q9.05 14.4 10.8 14.1L10.9 14.05L10.95 14L10.75 13.35L10.4 13.15L10.25 13.1M16.85,28.7L16.35 28.55L16.1 28.5Q13.8 28 12.3 27.3L10.55 26.45L10.2 26.25L10.35 26.05L11.25 24.9L11.75 25.45L12.25 25.8Q12.05 25.95 12 26.25L11.95 26.35L13.85 26.4L14.45 26.65Q14.7 26.9 15.5 27.15L15.65 27.2L15.75 27.25L16.6 27.75L17.1 28.15L17.95 28.95L16.85 28.7M4.2,25.35L5.55 26.55L7.1 27.65Q6.55 28.35 7.65 28.3L8.05 28.25L8.25 28.35L9.2 28.95L10.25 29.65L10.7 29.1L10.95 29.2Q11.45 29.5 11.1 29.7L10.65 30L11 30.3L10.95 30.35L10.9 30.35L10.8 30.4L10.7 30.8L10.7 30.95L10.8 31.3L10.9 31.35L11.95 31.25L12 31.2L12 31.25L12.05 31.3L12.2 31.4Q13.35 32.15 14.4 32.15L14.65 32.1L14.6 32.35L14.55 32.75L14.35 32.95L13.85 33.45L12.75 34.5L12.7 34.45L12.4 33.85L11.05 33.8L11.05 33.7Q11 32.9 11.6 32.8L10.5 31.7L9.95 31.2L8.75 30.2L8.55 30.05Q6.3 28.25 3.9 27Q3.9 26.15 4.2 25.35M27.65,42.9L26.45 43.15L23.65 43.85L21.5 44.25L21.05 43.55L20.35 42.5Q19.95 42.15 19.5 42.05L19.4 42Q18.3 41.65 17.4 40.55L17 40Q16.35 40.3 16 39.75L16 39.65Q16 39.2 16.3 39.05L16.35 39L16.3 38.95L15.95 38.4L15.5 37.7L14.7 36.35L14.7 36.3L14.25 35.85L14.1 35.7L14.6 34.65L15.05 32.7L15.05 32.25L15.05 32.2L15.2 32L15.25 32L15.4 31.9L15.45 33.05L15.6 33.6Q15.85 34.55 16.65 35.3L16.9 35.55L17 35.65L16.8 35.85L16.65 36Q15.6 36.95 17.55 36.15L18.55 36.95L19.05 37.4L19.65 37.9L20 37.55L20.5 37.15L20.75 37.2L21.15 37.8Q21.3 38.35 20.95 38.45L20.75 38.45L20.4 38.55L20.05 38.55L20.3 38.95L20.6 39.5L20.8 39.75L21.1 40.1Q21.7 40.75 22.4 40.75L22.45 40.75L22.95 40.8L22.75 41.05Q22.55 41.35 22.6 41.75L22.6 41.85L23.85 41.95L23.9 41.9L24.05 41.45L24.25 41.75Q24.8 42.75 27.25 42.8L27.4 42.8L27.75 42.75L27.65 42.9M16.75,19.75L16.15 19.85L15.45 19.85L15.4 19.65Q15.45 19.4 16.25 18.85L16.45 18.9L16.85 19.25Q17.1 19.7 16.75 19.75M18.5,26L18.6 26L18.7 26.05L18.95 26.25L18.8 26.4L18.2 26.9Q17.7 27.25 18.05 26.7L18.45 26.15L18.5 26M20.25,30.75L20.2 30.75Q19.9 31.45 20.1 32.5L20.4 33.6L19.45 33.3L19.2 33.2L17.75 32.8L17.3 32.7L16.9 32.55L16.7 32.5L16.35 32.3L16.8 32.3L17.75 32.3L18.8 32.2L18.9 32.15L18.95 31.85Q19.05 31 20.05 30.35L20.1 30.3L20.8 30L21.5 29.65Q21.75 29.45 21.95 29.35L20.25 30.75M12.25,29.95Q12.55 29.35 13.4 29.3L13.5 29.45Q13.25 30.9 12.2 30L12.25 29.95M13.85,39.45L14.35 40.05L15 40.95L15.4 42.25L13.6 41.6Q12.4 41.05 12.2 40.6L11.95 39.9Q11.8 40.1 11.4 40.1L11.35 40.05Q11.05 39.45 11.75 39.15L12 39.2L12.05 39.2L12.1 38.65L11.7 38.1L11.05 37.1L10.65 35.85L10.7 35.9L11.55 37.1L12.85 38.4L13.15 38.7L13.2 38.95L13.3 39.05Q13.1 39.25 13.35 39.55L13.35 39.6L13.85 39.45M19.3,35.7L18.65 36.1Q17.95 36.5 18.4 35.9L18.9 35.25L19.05 35.3Q19.65 35.5 19.3 35.7M19.95,40.5Q18.85 41.75 19.85 41.8L20.7 41.7L20.75 41.65Q20.85 40.9 20.15 40.6L19.95 40.5M12.9,39.8L12.65 40L12.65 40.1L12.7 40.45Q12.8 40.6 12.95 40.55Q13.65 40.3 13 39.85L12.9 39.8M10.4,40.7L10.5 40.7Q10.8 40.85 10.75 41.25L10.65 41.3Q9.85 41.25 10.4 40.7M25.85,44.55L25.95 45.1L25.1 45.8L23.75 46.45L22 46.55Q21.8 46.3 21.85 45.9L22.05 45.85L22.15 45.9L21.9 45.6L21.9 45.5Q22.25 44.8 23.05 44.9Q23.4 44.9 23.4 45.3L23.4 45.45L24.35 45.1L25.85 44.55M30.75,31.55L30.9 31.65L31.55 32.05L31.9 32.3L32.05 32.4L33.4 33.5L33.7 34.8Q33.95 35.6 34.3 35.75L34.45 35.8L34.7 35.8L34.9 35.75L34.65 36.15L34.6 36.2L34.3 36.3L33.05 36.8L32.65 36.9L32.55 36.95L32.25 37L32.35 36.35L32.25 34.45L32.2 34.1L31.6 32.9L31.1 32.2L30.65 31.6L30.45 31.4L30.75 31.55M28.25,33.2L28.15 33.7L27.7 33.75Q25.5 34 27.05 32.9L27.6 32.55Q27.9 32.6 28.1 32.8L28.25 33.2M28.95,37.45L29.15 37.7L29.2 37.8L29 38.05L28.05 38.3Q27.35 38.4 27.9 37.85L28.55 37.3Q28.75 37.3 28.95 37.45M27.2,39.45L25.45 39.35L23.7 39L23.7 38.1L24.25 37.9L25.4 38.55L27.2 39.45M27.5,43.55L28 43.4L28.1 43.35L28.5 42.9L28.65 42.7L30.05 40.8L30.1 40.75L30.7 39.8L30.35 41.1L30.1 41.75L29.65 42.95L29.5 43.3L29.65 43.3L30.15 42.9L30.8 43.15L31 43.25L30.75 43.65L30.4 44.15L30.15 44.4L26.75 44.65L26.5 44.2L26.45 43.85L27.35 43.6L27.5 43.55" />
<path style="fill:#464137;fill-opacity:1" d="M31.25,13.2L30.95 13.35L30.9 13.4L30.1 14Q29.05 16.35 29.25 16.75L32.15 20.6L32.6 20.7L33.15 20.8L33.95 21.05Q34.35 21.25 34.55 21.5L34.55 21.55L35.6 23.2L35.6 23.25L35.7 23.45L36.05 23.8L36.15 23.85L37.2 24.05L39.25 24L39.9 23.3L40.25 22.9L40.4 22.65L40.5 22.5L40.75 22.15L41.4 22.4L39.6 24.55L35.75 24.4L35.65 24.35L35.35 24.05L34.9 23.4L34.1 21.9L33.7 21.7L32.45 21.3L32.25 21.25L32.05 21.2L31.8 21L30.4 19.3L28.85 17.35Q28.45 16.95 28.5 16.55Q28.5 16.2 28.8 15.4L29.65 13.25L28.65 11.45L28.55 11.25L28.3 10.7L28.05 10.05L28.15 8.8L28.45 7.75L28.8 6.7L29.1 6.25L29.6 5.4L29.85 5L29.8 5.6L29.75 6L29.8 6.85L29.7 6.85L29.2 7.35L29.8 7.65L29.95 9.05L29.8 8.45L29.05 8.2L28.9 8.2Q28.75 8.3 28.75 8.6L28.75 8.65L28.7 9.95L29.1 10.8L29.35 11.3L29.7 11.95L29.75 12L29.8 12.15L30.15 12.85L30.3 12.7L30.5 12.45L30.7 12.35L30.95 12.15L31.1 12.6L31.25 13L31.3 13.15L31.25 13.2M36.7,13.6L36.7 13.65L36.2 13.35L35.45 12.9Q34.45 12.25 34.5 11.65L34.6 11.45L34.7 11.25L34.75 11.15L35.35 12.05L35.85 12.55Q36.3 12.9 37.2 13.15L37.35 13.2L37.55 13.25L37.9 13.35L38.35 13.55Q39.15 13.95 39.55 14.65Q40 15.45 40.05 16.2L40 16.6L40.05 16.7L40.75 17.35L41.05 17.45L41.35 17.5L42.1 17.3L42.6 16.85L43.3 17.2L42.65 17.7L41.85 18.05L41.5 19.3L40.95 18.95L41.3 18.1L40.75 18L40.3 17.75L39.6 16.9L39.55 16.65L39.45 16.4L39.4 16.25L39.4 16.2L39.35 15.8L39.3 15.55L39.2 15.25L38.4 14.3L37.8 13.9L37.65 13.85L37.6 13.85L37.4 13.85L36.7 13.6M27.5,43.55L27.35 43.6L26.45 43.85L26.5 44.2L26.75 44.65L30.15 44.4L30.4 44.15L30.9 44.15L31.2 44.15L30.65 44.95Q29.4 45.55 26.7 45.35L25.65 46.25L23.7 47.1L21.75 47.15Q20.65 47.25 19.6 46.65L18.3 45.8L17.95 45.45L17.85 44.85L16.2 43.4L13.6 43.3L9.95 43.2Q6.5 41.3 9.35 39.1L8.6 36.7L9.25 33.75L8.05 32.25L6.6 30.55L5.7 29.7Q5.05 29.15 3.8 28.75Q3.25 27.7 3.3 26.7Q3.25 25.7 3.75 24.85L4 24.45Q4.2 24.25 4.35 24.25L5.6 24.35Q5.15 23 4.95 21.45L4.65 19.4L4.75 18.7L4.8 18.65L5.3 18.25L6.75 18L6.6 18.4L6.6 18.5Q5.5 18.7 5.35 19.4Q5.2 20.35 5.9 23.25L6.2 24.3L6.2 24.4L6.25 24.4L6.75 25L7 25.25L6.8 25.15L6.3 24.9L6.2 24.9L5.75 24.85L4.4 24.85L4.2 25.35Q3.9 26.15 3.9 27L3.95 27.6L4.2 28.25Q5.05 28.4 5.7 28.9L7.35 30.35L9.4 33L9.75 33.5L10.05 33.85L10.4 34.35L11.25 35.6L11.35 35.75L11.75 36.35L12 36.75L13.35 35.7L13.6 35.35L14.3 33.9L14.35 33.55L14.45 33.1L14.55 32.75L14.6 32.35L15.05 32.7L14.6 34.65L14.1 35.7L12.95 36.8L12.4 37.1L13.05 37.6L14.5 39.1L14.9 39.55L15.4 40.2L15.5 40.35Q16.35 41.55 16.65 42.65L16.65 42.75L18.85 44.65L21.5 44.25L23.65 43.85L26.45 43.15L27.5 43.55M7.7,16.55L7.6 16.45L7.4 16Q7.2 15.5 7.25 15L7.25 14.9L7.25 14.8Q7.35 13.25 8.65 12.8L9.2 11.35L9.55 10.75L10.1 11.05L9.85 11.4L9.7 11.75Q8.95 13.1 9.1 13.4L9.6 14.15L10.4 15.05L10.6 15.3L10.95 15.65L11.15 15.9L12.25 16.85L13.7 17.35L14.95 17.45L15.75 17.5L16.25 17.5L17.4 17.45L17.55 17.45L17.75 17.4L18.15 17.35L17.9 17.15L16.85 16.2L16.15 15.6L15.75 15.25L15.1 14.85L14.9 14.7L14.8 14.15Q14.65 13.35 14.8 12.8L14.9 12.5L14.9 12.4L15 12.4L15.5 12L15.95 12L16.5 11.95L16.05 12.15L15.95 12.2L15.7 12.35L15.5 12.45Q15.25 12.9 15.25 13.45L15.3 14.35L16.3 15L17.45 15.95L17.8 16.3L17.95 16.45L18.5 17.15L19.25 16.85L19.95 16.35L20.35 15.95L20.65 15.6L20.75 15.5L21.7 13.7L21.75 13.4L21.9 12.9L22.05 12.35L22.1 11.75L21.8 10.65L21.6 10.3L21.9 10.15L22.1 10.1L22.35 10.85L22.55 12.1L22.55 12.15L22.75 12.05L26.25 10.1L26.25 10.05L26.15 9.7L26.05 9.45L26.55 9.1L26.85 9.9L26.9 10L27 10.35L27.1 10.85L27.25 11.45L27.3 11.65L27.7 15.4L27.6 15.85L27 16.45L25.45 17.85L24.9 18.3L24.4 18.7L23.7 19.2L22.65 19.9L22.35 20.1L22.25 20.2L21.5 20.5L21.55 20.6L21.2 20.7L21.05 20.75L20.6 20.8L20.5 20.85L19.4 21.1L19.05 21.25L17.3 21.5L16 21.45L13.7 20.75L11.45 19.7L10.6 19.2L9.85 18.4L9.55 18.15L9.15 17.8L8.55 17.4L8 17L8 17.05L7.7 16.55M22.3,13.55L22.15 14.15Q22.05 14.35 22.25 14.55L22.95 15L23.9 15.1L25.3 15.2L27.2 15.1L27.25 15.1L26.9 12.65L26.7 11.8L26.65 11.55L26.5 10.95L26.4 10.8L25.4 11.2Q23.65 11.9 22.55 12.65L22.35 13.4L22.3 13.55M22.55,19.3L23 19L23.25 18.85L23.95 18.35L24.45 17.95L25.05 17.45L26.95 15.7L23.95 15.65L23.2 15.55Q22.3 15.4 21.85 14.95L21.3 15.8L20.95 16.2L20.8 16.35L19.15 17.65L19.65 18.85L19.75 19.45L19.7 20.05L19.7 20.1L20 20.35L20.45 20.3L20.6 20.25L21.8 19.75L22.55 19.3M8.1,16.25L9.25 17.3L9.65 17.65L10.55 18.4L11.4 18.95L12.95 19.8Q14.3 20.55 15.5 20.8L16.3 20.9L16.7 20.9L17.05 20.9L17.4 20.85L19 20.5L19.15 20.4L19.2 20L19.25 19.9L19.25 19.6L19.2 19.1L19.2 19L19.1 18.7L19 18.5Q18.65 17.8 18.5 17.95L18.2 18L17.75 18L17 18.05L16.1 18.05L15.95 18.05L15.5 18L14.95 17.95L14.5 17.9L13.45 17.75Q11.75 17.45 10.85 16.35L10.6 16.05L10.25 15.65L9.35 14.55L8.65 13.45L8.25 13.75Q7.75 14.25 7.7 14.8L7.65 15.1L7.7 15.4L8.1 16.25M6.85,20.7L7.75 21.95L6.9 21.45L6.85 20.7M10.2,35.15L9.8 34.55L9.25 35.9L10.25 39.3Q10.4 39.75 9.55 40.2Q8.7 40.75 8.95 41.3L10.2 42.45L10.25 42.4L11.65 42.35L15.45 42.45L15.4 42.25L15 40.95L14.35 40.05L13.85 39.45L13.15 38.7L12.85 38.4L11.55 37.1L10.7 35.9L10.65 35.85L10.2 35.15M23.75,46.45L25.1 45.8L25.95 45.1L25.85 44.55L25.75 44L22 44.75L21.3 44.85L19.15 45.25Q18.75 45.3 18.8 45.4L19.45 45.85L21.05 46.5L22 46.55L23.75 46.45" />
<path style="fill:#695D4B;fill-opacity:1" d="M39.1,6L39.05 6L39.05 5.95L39.1 6M28.25,4.2L27.15 4.05L26.2 4.15L25.2 4.45L25 4.5L24.9 3.95L24.95 3.8L25 3.8L26.75 3.6L28.8 3.75Q29.5 3.85 30 4.25L30.4 4.45L30.45 4.45L30.5 4.45L29.9 4.95L28.25 4.2M43.15,35.3L42.85 35.8L40.65 38.75L40.6 38.85L38.6 39.3L38.95 37.05L39.1 33.7L39.15 33.7L39.1 33.7L39.1 33.5Q39.2 30.7 36.7 28.4L37 27.9L36.8 27.85L36.45 28.15Q33.7 25.8 33.45 26.1L33.1 26.7L32.75 27.45Q31.9 26.9 30.55 26.3L27.85 25.1L27.9 25L28.15 24.95L29.35 24.6L29.8 24.45L29.85 24.4L30.95 24.25L31.7 24.25Q31.65 24.8 32.35 24.8L32.7 24.6L32.75 24.4L33.1 24.5L33.5 24.65L33.75 24.75L34.15 25L34.2 25.05L34.65 25.45L37.3 27.75L38.1 28.65L39.1 29.3L39.05 29.5L39.1 29.9L40.1 29.85L40.4 30L41.3 30.45L41.55 31.2L41.55 31.25L41.9 30.95L42 30.95Q42.45 31.1 42.4 31.55L42.35 31.6L41.65 31.6L41.9 32Q42.6 32.75 42.85 33.7L43.15 35.3M43.2,29.7Q43.95 30.05 45.55 31.3L46.05 32.25L46.35 32.85L46.15 33.3L45.95 33.65L44.15 34.3L44.15 32.35L44.1 32.05L43.6 31.15L42.75 29.95L42.3 29.45L43.2 29.7M44.15,36.5L44.25 36.8L44.2 37.2L43.65 38.3L43.15 39.1L42.7 39.8L42.5 40L39.9 40.2L39.7 39.85L39.65 39.6L40.35 39.4L40.45 39.35L40.9 39.2L41.35 38.7L42.4 37.25L42.9 36.45L43.25 35.85L43.45 35.5L43.7 35.8L44.15 36.5M27.75,10.75L27.35 10.55L27 10.35L26.9 10L26.85 9.9L26.55 9.1L25.6 7.1L25.45 6.8L25.65 6.8L25.95 6.8L26.35 6.8L26.8 6.8L27.35 6.9L28.1 7.3L28.3 7.5L28.45 7.75L28.15 8.8L28.05 10.05L28.3 10.7L27.75 10.75M31.25,20.6L30.35 19.8L29.95 19.45L29.6 19.05L29.25 18.45L29.1 18.1L29 17.9L28.75 17.5L28.5 17.65L28.2 17.75L28.2 17.8L28.2 18L28.1 18.1L27.5 18.15L27.45 18.2L26.9 18.5L27.5 19.4Q27.2 19.55 27.05 19.7Q26.65 20 27.45 20L27.7 20L27.8 20L27.85 20.2L27.85 20.55L27.75 21.15L27.75 21.2L27.95 21.4L27.95 21.55L27.5 21.65L27.5 21.8L27.65 22L27.9 22.15L27.55 22.55L27.45 22.8L28.25 23.95L28.35 24.05L28.7 24.2L27.9 24.45L27.8 24.45Q27.25 24.6 26.65 24.1L27.1 24.05L27.15 23.8L26.85 23.55Q26.55 23.9 26.6 24.05L26.35 23.8L25.5 22.6L25.45 22.55L25.4 22.4L25.35 21.95L25.4 21.65L25.5 21.4L25.9 19.8L25.5 19.1L25.55 18.65L25.55 18.35L25.45 17.85L27 16.45L27.6 15.85L27.7 15.4L27.3 11.65L27.4 11.65L28.65 11.45L28.4 11.25L28.55 11.25L28.65 11.45L29.65 13.25L28.8 15.4Q28.5 16.2 28.5 16.55Q28.45 16.95 28.85 17.35L30.4 19.3L31.8 21L31.25 20.6M32.45,21.35L32.25 21.25L32.45 21.3L32.45 21.35M34.65,23.45L34.55 23.7L34.25 23.4Q34 23.15 33.35 23.15L31.95 23.15L32.65 22.6L32.9 21.85L32.95 21.75L33.7 21.7L34.1 21.9L34.9 23.4L34.65 23.45M24.05,21.5Q23.25 21.15 22.25 20.2L22.35 20.1L22.65 19.9L23.7 19.2L23.9 19.4L23.95 19.5L24.4 20.7L24.45 21.15L24.5 21.65L24.05 21.5M24.7,23.4L24.95 23.7L24.8 23.95L24.35 24L24.2 23.95L23.9 24.45L23.8 24.55L23.45 24.75L23.35 24.9L24.15 24.95L24.25 24.9L24.8 25.05L26 25.2L26.1 25.2L26.05 25.3L25.9 25.6L25.75 25.6L25.15 25.65L24.25 25.7L23.25 25.7L23.2 25.7L23 25.65L22.95 25.6L22.3 25L22.2 24.9L22.05 24.65L21.5 23.8L21.1 23.4L21.05 23.35L21.2 22.95L21.2 22.85L21.4 22.2L21.5 22Q21.95 22.5 22.9 22.65L24.55 22.55L24.65 22.55L24.85 22.5L24.95 22.5L24.95 22.65L25.05 22.9L25.1 23L24.7 23.4M30.9,29.8L29.35 30.4Q28.7 30.35 27.75 29.6L25.6 28L26.75 27.25L26.85 27.2L26.75 26.8L26.4 26.15L26.4 26.05L26.5 26.05L27.05 26.1L27.5 26.2L28.1 26.35L28 26.5L28 26.55L28 26.65L28.15 26.75L28.55 26.8L28.55 26.85L28.55 26.9L28.65 27L28.7 27L28.85 26.95L28.9 26.9L28.95 26.65L30.2 27.35L30.5 27.65L30.85 28L30.95 28.1Q30.95 28.55 31.3 28.8L32.15 29.1L31.95 29.6L30.9 29.8M33.75,37.2L34.3 37.05L34.25 37.15L34.3 37.05L35.1 36.65L35.65 35.75L35.65 35.7L35.75 35.35Q36.05 34.15 35.85 33.15L34.9 32.05L33.15 30.35L32.7 29.95L32.9 29.05L33.05 28.55L33.15 29.1L33.15 29.15L33.2 29.3L33.35 29.15L33.5 28.95L33.8 28.65Q33.75 28.5 33.85 28.4L34.05 28.2L34.25 28.3L34.35 28.35L34.4 28.3L35.2 29.25L35.45 29.55L35.55 29.65L35.7 29.6L35.7 29.65Q36.1 29.95 36 30.2L36.1 30.25L37.5 32.4L37.7 32.85L37.85 33.3L37.95 33.55L38.2 35.55L38.2 36.95L37.85 38.8L37.75 39.5L37.65 40L37.6 40.05L37.55 40.35L37.65 40.7L37.7 40.95L37.8 41.5L37.8 41.65L37.45 42.1L36.7 42.5L34.15 42.85Q33.5 42 33.35 41.1L33.4 41.1L33.55 40.8L33.85 40.4L33.95 40.2Q34.3 39.4 34.05 38.6L34 38.4L33.85 38L33.4 37.3L33.75 37.2M32.3,42.3L32.9 41.1L33.4 42.65L32.3 42.3M23.1,23.8L22.95 23.75Q22.4 24.5 23.1 23.9L23.2 23.85L23.1 23.8M26.75,21.85Q25.55 22.45 26.8 22.4Q27.15 22.35 26.95 22L26.75 21.85M36.3,33.1L36.25 33.1L36.2 33.25L36.15 33.75L36.2 33.8Q36.55 33.9 36.7 33.55L36.6 33.35L36.3 33.1M29.9,29.15L30.1 28.8L29.9 28.45L29.75 28.45Q29.55 28.55 29.6 28.75L29.8 29.15L29.9 29.15M39.2,40.1L39.25 40.55L38.65 41.1L38.55 41.15L38.5 40.4L39.2 40.1M32.25,38.6L31.85 38.05L32.1 37.6L32.15 37.6L32.25 38.6M35.35,42.65L35.4 42.65Q35.9 42.35 35.25 42.15L35.2 42.1Q34.9 42.5 35.35 42.65" />
<path style="fill:#3C362C;fill-opacity:1" d="M39.55,5.9L39.6 6.1L39.1 6L39.05 5.95L39 5.25L39.55 5.9M25,3.8L24.95 3.8L24.9 3.95L24.8 3.45L24.65 3.25L24.95 2.95L25.3 2.65Q26.4 1.85 27.95 1.75L28.2 1.75Q29.5 2 30.45 2.65L31.45 3.65L31.5 3.6L31.85 3.5L31.15 3.95L31.05 4.05L30.95 3.95L30.8 3.8Q30.05 3.05 29.15 2.65L29.1 2.65L27.3 2.5L26.8 2.65L25.85 3.15L25.55 3.35L25 3.8M25,4.5L25.2 4.45L26.2 4.15L27.15 4.05L28.25 4.2L29.9 4.95L29.85 5L29.6 5.4L29.4 5.3L29.35 5.25Q28.85 4.95 28.05 4.8L26.6 4.6L25.05 5.05L25 4.5M35.35,24.05L35.65 24.35L35.75 24.4L35.55 24.6L35.6 24.65L38.2 26.8L40.65 28.6Q41.4 29.15 41.9 29.2L43.1 28.75L43.9 28.6Q44.25 28.65 44.8 29.15L46.15 30.5L46.9 31.35L46.85 33L46.75 33.3L46.35 34.05L45.3 34.45L44 34.75L43.8 35.1L44.75 36.6L44.85 36.85L44.85 36.9L44.8 37L43.8 39L43.35 39.8L42.9 40.45L39.85 40.7L39 41.45L38.6 41.7L38.6 41.8Q37.75 43.25 35.7 43.5L31.85 43.65L31.5 43.65L31.85 43.1L32 42.85L33.5 42.85L33.4 42.65L32.9 41.1L33.15 40.55L33.2 40.5L33.2 40.55L33.6 40.05L33.65 39.9L33.75 38.85L33.6 38.45L33 37.4L33.4 37.3L33.85 38L34 38.4L34.05 38.6Q34.3 39.4 33.95 40.2L33.85 40.4L33.55 40.8L33.4 41.1L33.35 41.1Q33.5 42 34.15 42.85L36.7 42.5L37.45 42.1L37.8 41.65L37.8 41.5L37.7 40.95L37.65 40.7L37.55 40.35L37.6 40.05L37.65 40L37.75 39.5L37.85 38.8L38.2 36.95L38.4 35L38.45 33.55L38.45 33.5L38.4 33.25Q38.25 31.15 37.05 29.8L36.25 28.95L35.9 28.65L33.9 27.05L33.35 27.85L33.15 28.4L33.05 28.55L32.9 29.05L32.7 29.95L31.95 29.6L32.15 29.1L32.55 28L32.45 27.95L28.85 26.1L27.5 25.45L27.15 25.3L26.85 25.15L26.65 25.3Q26.4 25.6 26.4 26.05L26.4 26.15L26.75 26.8L26.85 27.2L26.75 27.25L25.6 28L25.05 27.6L26.05 26.9L25.85 26.2L24.2 26.25L24.05 26.25L23.55 26.25L23.2 26.25L22.4 25.65L22.9 25.65L23 25.65L23.2 25.7L23.25 25.7L24.25 25.7L25.15 25.65L25.75 25.6L25.9 25.6L26.05 25.3L26.1 25.2L26.35 24.95L26.4 24.95L26.55 24.7L26.05 24.25L25.55 23.7L25.1 23L25.05 22.9L24.95 22.65L24.95 22.5L24.85 22.5L24.65 22.55L24.55 22.55L22.9 22.65Q21.95 22.5 21.5 22L21.6 21.45L21.9 21.9L24.5 22.1L24.55 22.05L24.9 21.85L24.9 21.75L24.95 21.65L25.2 20.8L25.35 19.8L24.4 18.7L24.9 18.3L25.5 19.05L25.5 19.1L25.9 19.8L25.5 21.4L25.4 21.65L25.35 21.95L25.4 22.4L25.45 22.55L25.5 22.6L26.35 23.8L26.6 24.05L26.65 24.1Q27.25 24.6 27.8 24.45L27.9 24.45L28.7 24.2L29.3 24L29.75 23.8L30.85 23.2L32.15 22.2L32.3 21.75L32.35 21.6L32.45 21.35L32.45 21.3L33.7 21.7L32.95 21.75L32.9 21.85L32.65 22.6L31.95 23.15L33.35 23.15Q34 23.15 34.25 23.4L34.55 23.7L35.15 24.25L35.35 24.05M10.7,9.5L10.7 9.2L10.9 9.3L10.7 9.5M29.35,24.6L28.15 24.95L27.9 25L27.85 25.1L30.55 26.3Q31.9 26.9 32.75 27.45L33.1 26.7L33.45 26.1Q33.7 25.8 36.45 28.15L36.8 27.85L37 27.9L36.7 28.4Q39.2 30.7 39.1 33.5L39.1 33.7L39.15 33.7L39.1 33.7L38.95 37.05L38.6 39.3L40.6 38.85L40.65 38.75L42.85 35.8L43.15 35.3L43.65 34.1L43.75 32.35L43.3 31.5L42.55 30.5L41.8 29.7L41.2 29.45L40.85 29.35L39 28.15L35.8 25.45L35.75 25.4L35.25 24.95L34.85 24.55L34.35 24.1L33.9 23.75L31.3 23.6L29.8 24.45L29.35 24.6M46.45,31.5L45.25 30.3L44.3 29.4Q43.9 29 43.7 29.1L42.3 29.45L42.75 29.95L43.6 31.15L44.1 32.05L44.15 32.35L44.15 34.3L45.95 33.65L46.15 33.3L46.35 32.85L46.45 31.5M43.7,35.8L43.45 35.5L43.25 35.85L42.9 36.45L42.4 37.25L41.35 38.7L40.9 39.2L40.45 39.35L40.35 39.4L39.65 39.6L39.7 39.85L39.9 40.2L42.5 40L42.7 39.8L43.15 39.1L43.65 38.3L44.2 37.2L44.25 36.8L44.15 36.5L43.7 35.8M27.75,10.75L28.3 10.7L28.55 11.25L28.4 11.25L27.9 11.35L27.7 11.35L27.25 11.45L27.1 10.85L27.75 10.75M21.15,24.35L21.95 25.25L21.15 24.5L21.1 24.45L20.7 24.05L20.7 24L20.75 23.95L21.15 24.35M34.3,37.05L34.25 37.15L34.3 37.05M38.55,41.15L38.65 41.1L39.25 40.55L39.2 40.1L39.1 39.7L38.5 39.85L38.45 40.1L38.5 40.4L38.55 41.15M32.75,38.75L32.9 39.4L32.95 39.7L32.25 38.6L32.15 37.6L32.55 37.5L32.75 38.75" />
<path style="fill:#7B7162;fill-opacity:1" d="M25.55,3.35L26.35 3.1L27.35 3L29.9 3.45L30.8 3.8L30.95 3.95L31.05 4.05Q30.7 4.25 30.5 4.45L30.45 4.45L30.4 4.45L30 4.25Q29.5 3.85 28.8 3.75L26.75 3.6L25 3.8L25.55 3.35M42.85,33.7Q42.6 32.75 41.9 32L41.65 31.6L42.35 31.6L42.4 31.55Q42.45 31.1 42 30.95L41.9 30.95L41.55 31.25L41.55 31.2L41.3 30.45L40.4 30L40.1 29.85L39.1 29.9L39.05 29.5L39.1 29.3L38.1 28.65L37.3 27.75L34.65 25.45L34.2 25.05L34.15 25L33.75 24.75L33.5 24.65L33.1 24.5L32.75 24.4L32.7 24.6L32.35 24.8Q31.65 24.8 31.7 24.25L30.95 24.25L29.85 24.4L29.8 24.45L31.3 23.6L33.9 23.75L34.35 24.1L34.85 24.55L35.25 24.95L35.75 25.4L35.8 25.45L39 28.15L40.85 29.35L41.2 29.45L41.8 29.7L42.55 30.5L43.3 31.5L43.75 32.35L43.65 34.1L43.15 35.3L42.85 33.7M46.35,32.85L46.05 32.25L45.55 31.3Q43.95 30.05 43.2 29.7L42.3 29.45L43.7 29.1Q43.9 29 44.3 29.4L45.25 30.3L46.45 31.5L46.35 32.85M28.8,6.7L28.45 7.75L28.3 7.5L28.1 7.3L27.35 6.9L26.8 6.8L26.35 6.8L25.95 6.8L25.65 6.8L25.45 6.8L25 6L25.05 5.3L26.15 5.25L26.75 5.3L27.55 5.45L28.35 5.75L28.7 5.95L29.1 6.25L28.8 6.7M35.15,24.25L34.55 23.7L34.65 23.45L34.9 23.4L35.35 24.05L35.15 24.25M30.65,20.85L30.8 21.05L30.95 21.2L31.25 21.65L31.35 21.95L30.85 22.5Q30.25 22.7 30.25 22.9L29.95 23.25L29.25 23.6L28.35 24.05L28.25 23.95L27.45 22.8L27.55 22.55L27.9 22.15L27.65 22L27.5 21.8L27.5 21.65L27.95 21.55L27.95 21.4L27.75 21.2L27.75 21.15L27.85 20.55L27.85 20.2L27.8 20L27.7 20L27.45 20Q26.65 20 27.05 19.7Q27.2 19.55 27.5 19.4L26.9 18.5L27.45 18.2L27.5 18.15L28.1 18.1L28.2 18L28.2 17.8L28.2 17.75L28.5 17.65L28.75 17.5L29 17.9L29.1 18.1L29.25 18.45L29.6 19.05L29.95 19.45Q29.95 20.15 30.65 20.85M19.5,22.85L18.3 22.55L15.55 22.6L13.3 22.75Q12.9 22.85 12 23.5L11 24.4L10.9 24.55L9.9 25.8L9.7 26L7.05 24.65L6.65 24.5L6.65 24.25L8.65 22.55L9.1 22.15L9.75 21.7L10.05 21.55L10.25 21.4Q10.95 20.85 10.15 21.1Q9.25 21.35 8.55 21.75L8.4 21.8L7.9 21.2L7.55 20.7L6.95 19.55L6.9 19.45L6.95 19.2L6.95 19.15L7.6 19.8L7.75 19.95L7.85 20.05L8.1 19.65L8.35 19.25Q8.95 19.3 8.65 19.6L8.35 19.85L8 20.1L8.95 20.85L9.15 20.5L9.55 20.15L10.1 20.15L9.8 19.75L9.05 18.85L8.95 18.75L7.85 18.05L7.8 18L7.55 17.8L8 17.05L8 17L8.55 17.4L9.15 17.8L9.55 18.15L9.85 18.4L10.6 19.2L11.45 19.7L13.7 20.75L16 21.45L17.3 21.5L19.05 21.25L19.4 21.1L20.5 20.85L20.6 20.8L21 20.75L20.95 21.4L20.8 22.25L20.65 22.75L20.55 23.05L20.55 23.1L20.35 23.6L20.3 23.65L19.5 22.85M25.1,23L25.55 23.7L26.05 24.25L26.55 24.7L26.4 24.95L26.35 24.95L26.1 25.2L26 25.2L24.8 25.05L24.25 24.9L24.15 24.95L23.35 24.9L23.45 24.75L23.8 24.55L23.9 24.45L24.2 23.95L24.35 24L24.8 23.95L24.95 23.7L24.7 23.4L25.1 23M24.6,27.3L23.2 26.25L23.55 26.25L24.05 26.25L24.2 26.25L25.85 26.2L26.05 26.9L25.05 27.6L24.6 27.3M31.3,28.8Q30.95 28.55 30.95 28.1L30.85 28L30.5 27.65L30.2 27.35L28.95 26.65L28.9 26.9L28.85 26.95L28.7 27L28.65 27L28.55 26.9L28.55 26.85L28.55 26.8L28.15 26.75L28 26.65L28 26.55L28 26.5L28.1 26.35L27.5 26.2L27.05 26.1L26.5 26.05L26.4 26.05Q26.4 25.6 26.65 25.3L26.85 25.15L27.15 25.3L27.5 25.45L28.85 26.1L32.45 27.95L32.55 28L32.15 29.1L31.3 28.8M38.2,35.55L37.95 33.55L37.85 33.3L37.7 32.85L37.5 32.4L36.1 30.25L36 30.2Q36.1 29.95 35.7 29.65L35.7 29.6L35.55 29.65L35.45 29.55L35.2 29.25L34.4 28.3L34.35 28.35L34.25 28.3L34.05 28.2L33.85 28.4Q33.75 28.5 33.8 28.65L33.5 28.95L33.35 29.15L33.2 29.3L33.15 29.15L33.15 29.1L33.05 28.55L33.15 28.4L33.35 27.85L33.9 27.05L35.9 28.65L36.25 28.95L37.05 29.8Q38.25 31.15 38.4 33.25L38.45 33.5L38.45 33.55L38.4 35L38.2 36.95L38.2 35.55" />
<path style="fill:#988D7D;fill-opacity:1" d="M32.45,4.35L32.4 4.4L32.4 4.35L32.45 4.35" />
<path style="fill:#988A77;fill-opacity:1" d="M29.9,3.45L27.35 3L26.35 3.1L25.55 3.35L25.85 3.15L26.8 2.65L27.3 2.5L29.1 2.65L29.15 2.65Q30.05 3.05 30.8 3.8L29.9 3.45M25.05,5.05L26.6 4.6L28.05 4.8Q28.85 4.95 29.35 5.25L29.4 5.3L29.6 5.4L29.1 6.25L28.7 5.95L28.35 5.75L27.55 5.45L26.75 5.3L26.15 5.25L25.05 5.3L25.05 5.05M32.45,21.35L32.35 21.6L32.3 21.75L32.15 22.2L30.85 23.2L29.75 23.8L29.3 24L28.7 24.2L28.35 24.05L29.25 23.6L29.95 23.25L30.25 22.9Q30.25 22.7 30.85 22.5L31.35 21.95L31.25 21.65L30.95 21.2L30.8 21.05L30.65 20.85Q29.95 20.15 29.95 19.45L30.35 19.8L31.25 20.6L31.8 21L32.05 21.2L32.25 21.25L32.45 21.35" />
<path style="fill:#544939;fill-opacity:1" d="M27.1,10.85L27 10.35L27.35 10.55L27.75 10.75L27.1 10.85M28.65,11.45L27.4 11.65L27.3 11.65L27.25 11.45L27.7 11.35L27.9 11.35L28.4 11.25L28.65 11.45M25.45,17.85L25.55 18.35L25.55 18.65L25.5 19.1L25.5 19.05L24.9 18.3L25.45 17.85M24.9,21.75L24.9 21.85L24.55 22.05L24.5 22.1L21.9 21.9L21.6 21.45L21.55 20.6L21.5 20.5L22.25 20.2Q23.25 21.15 24.05 21.5L24.5 21.65L24.85 21.65L24.95 21.65L24.9 21.75M21.95,25.25L21.15 24.35L20.75 23.95L21.05 23.35L21.1 23.4L21.5 23.8L22.05 24.65L22.2 24.9L22.3 25L22.95 25.6L23 25.65L22.9 25.65L22.4 25.65L21.95 25.25M32.55,37.5L33 37.4L33.6 38.45L33.75 38.85L33.65 39.9L33.6 40.05L33.2 40.55L33.2 40.5L33.2 40.35L33.25 40.3L33.2 40.3L33.1 39.95L32.95 39.7L32.9 39.4L32.75 38.75L32.55 37.5M33.4,42.65L33.5 42.85L32 42.85L32.3 42.3L33.4 42.65M36.6,33.35L36.7 33.55Q36.55 33.9 36.2 33.8L36.15 33.75L36.2 33.25L36.25 33.1L36.3 33.1L36.6 33.35M29.8,29.15L29.6 28.75Q29.55 28.55 29.75 28.45L29.9 28.45L30.1 28.8L29.9 29.15L29.8 29.15M38.5,40.4L38.45 40.1L38.5 39.85L39.1 39.7L39.2 40.1L38.5 40.4M35.2,42.1L35.25 42.15Q35.9 42.35 35.4 42.65L35.35 42.65Q34.9 42.5 35.2 42.1" />
<path style="fill:#3A352B;fill-opacity:1" d="M8,17.05L7.55 17.8L7.45 18L7.45 18.05L6.95 19.15L6.95 19.2L6.9 19.45L6.95 19.55L7.55 20.7L7.9 21.2L8.4 21.8L8.55 21.75Q9.25 21.35 10.15 21.1Q10.95 20.85 10.25 21.4L10.05 21.55L9.75 21.7L9.1 22.15L8.65 22.55L6.65 24.25L6.65 24.5L6.4 24.4L6.25 24.4L6.2 24.4L6.2 24.3L6.4 23.9Q7.15 22.9 8 22.2L7.75 21.95L6.85 20.7L6.7 20.35Q6.4 19.45 6.45 19.15L6.6 18.5L6.6 18.4L6.75 18L7.05 17.4L7.65 16.55L7.7 16.55L8 17.05M21.6,21.45L21.5 22L21.4 22.2L21.2 22.85L21.2 22.95L21.05 23.35L20.75 23.95L20.7 24L20.7 24.05L20.3 23.65L20.35 23.6L20.55 23.1L20.55 23.05L20.65 22.75L20.8 22.25L20.95 21.4L21 20.75L20.6 20.8L21.05 20.75L21.2 20.7L21.55 20.6L21.6 21.45" />
<path style="fill:#A14C27;fill-opacity:1" d="M37.85,15L37.45 14.65L37.2 14.3L37.3 13.9L37.4 13.85L37.6 13.85L37.65 13.85L37.8 13.9L38.4 14.3L39.2 15.25L39.3 15.55Q38.5 15.55 37.85 15" />
<path style="fill:#742108;fill-opacity:1" d="M39.4,16.25L39.45 16.4L39.55 16.65L39.6 16.9L38.55 16.9Q37.85 16.8 37.3 16.25L36.95 15.85L36.7 15.35Q36.35 14.6 36.7 13.65L36.7 13.6L37.4 13.85L37.3 13.9L37.2 14.3L37.15 14.55L37.3 15.15L37.75 15.7L38.4 16.1L39.35 16.3L39.4 16.25" />
<path style="fill:#95321F;fill-opacity:1" d="M39.35,16.3L38.4 16.1L37.75 15.7L37.3 15.15L37.15 14.55L37.2 14.3L37.45 14.65L37.85 15Q38.5 15.55 39.3 15.55L39.35 15.8L39.4 16.2L39.4 16.25L39.35 16.3" />
<path style="fill:#776E61;fill-opacity:1" d="M32.65,17.05L32.9 17.3L32.85 17.45Q32 17.7 32.65 17.05M38.5,20.85L38.45 21.05Q37.55 21.25 38.25 20.6L38.5 20.85M36.65,20.85L36.8 20.9L36.9 20.95L36.85 21.2L36.75 21.25Q35.9 21.4 36.65 20.9L36.65 20.85" />
<path style="fill:#958D81;fill-opacity:1" d="M7.45,18.05L7.45 18L7.55 17.8L7.8 18L7.85 18.05L8.95 18.75L9.05 18.85L9.8 19.75L10.1 20.15L9.55 20.15L9.15 20.5L8.95 20.85L8 20.1L8.35 19.85L8.65 19.6Q8.95 19.3 8.35 19.25L8.1 19.65L7.85 20.05L7.75 19.95L7.6 19.8L6.95 19.15L7.45 18.05M9.75,26L9.7 26L9.9 25.8L9.75 26" />
<path style="fill:#776D5E;fill-opacity:1" d="M5.9,23.25Q5.2 20.35 5.35 19.4Q5.5 18.7 6.6 18.5L6.45 19.15Q6.4 19.45 6.7 20.35L6.85 20.7L6.9 21.45L7.75 21.95L8 22.2Q7.15 22.9 6.4 23.9L6.2 24.3L5.9 23.25M18.85,44.65L16.65 42.75L16.65 42.65Q16.35 41.55 15.5 40.35L15.4 40.2L14.9 39.55L14.5 39.1L13.05 37.6L12.4 37.1L12.95 36.8L14.1 35.7L14.25 35.85L14.7 36.3L14.7 36.35L15.5 37.7L15.95 38.4L16.3 38.95L16.35 39L16.3 39.05Q16 39.2 16 39.65L16 39.75Q16.35 40.3 17 40L17.4 40.55Q18.3 41.65 19.4 42L19.5 42.05Q19.95 42.15 20.35 42.5L21.05 43.55L21.5 44.25L18.85 44.65M14.45,33.1L14.35 33.55L14.3 33.9L13.6 35.35L13.35 35.7L12 36.75L11.75 36.35L11.35 35.75L11.25 35.6L10.4 34.35L10.05 33.85L9.75 33.5L9.4 33L7.35 30.35L5.7 28.9Q5.05 28.4 4.2 28.25L3.95 27.6L3.9 27Q6.3 28.25 8.55 30.05L8.75 30.2L9.95 31.2L10.5 31.7L11.6 32.8Q11 32.9 11.05 33.7L11.05 33.8L12.4 33.85L12.7 34.45L12.75 34.5L13.85 33.45L14.35 32.95L14.55 32.75L14.45 33.1M15.4,42.25L15.45 42.45L11.65 42.35L10.25 42.4L10.2 42.45L8.95 41.3Q8.7 40.75 9.55 40.2Q10.4 39.75 10.25 39.3L9.25 35.9L9.8 34.55L10.2 35.15L10.65 35.85L11.05 37.1L11.7 38.1L12.1 38.65L12.05 39.2L12 39.2L11.75 39.15Q11.05 39.45 11.35 40.05L11.4 40.1Q11.8 40.1 11.95 39.9L12.2 40.6Q12.4 41.05 13.6 41.6L15.4 42.25M10.65,41.3L10.75 41.25Q10.8 40.85 10.5 40.7L10.4 40.7Q9.85 41.25 10.65 41.3M24.35,45.1L23.4 45.45L23.4 45.3Q23.4 44.9 23.05 44.9Q22.25 44.8 21.9 45.5L21.9 45.6L22.15 45.9L22.05 45.85L21.85 45.9Q21.8 46.3 22 46.55L21.05 46.5L19.45 45.85L18.8 45.4Q18.75 45.3 19.15 45.25L21.3 44.85L22 44.75L25.75 44L25.85 44.55L24.35 45.1" />
<path style="fill:#FFFFFF;fill-opacity:1" d="M37.65,14.45L37.9 14.4L38.1 14.45L38.2 14.7L38.1 14.9L37.9 15L37.65 14.9L37.6 14.7L37.65 14.45" />
</g>
</svg>
