<?xml version="1.0" encoding="utf-8"?>
<svg version="1.1" id="Layer_1"
xmlns="http://www.w3.org/2000/svg"
xmlns:xlink="http://www.w3.org/1999/xlink"
xmlns:author="http://www.sothink.com"
width="45px" height="10px"
xml:space="preserve">
<g id="1581" transform="matrix(1, 0, 0, 1, -49.75, -8.95)">
<linearGradient
id="LinearGradID_1832" gradientUnits="userSpaceOnUse" gradientTransform="matrix(0, 0.00430298, -0.00549316, 0, 54.25, 14.45)" spreadMethod ="pad" x1="-819.2" y1="0" x2="819.2" y2="0" >
<stop  offset="0" style="stop-color:#FFF980;stop-opacity:1" />
<stop  offset="1" style="stop-color:#E7950A;stop-opacity:1" />
</linearGradient>
<path style="fill:url(#LinearGradID_1832) " d="M91.5,11.65L90.3 11.4L89.65 11.4L89.65 13.05L90.3 13.05L91.2 12.95L91.25 12.95L91.55 12.75L91.65 12.2L91.5 11.65M93.5,9.9L94.25 10.95L94.2 10.9L94.45 12.2Q94.45 13.75 93.5 14.6L93.45 14.6Q92.5 15.35 90.7 15.35L89.65 15.35L89.65 17.3Q89.65 18 89.3 18.45L89.25 18.45Q88.85 18.85 88.25 18.85Q87.6 18.85 87.3 18.45L87.25 18.4Q86.9 18 86.9 17.3L86.9 10.7Q86.9 9.85 87.3 9.5Q87.65 9.1 88.5 9.1L90.7 9.1L92.4 9.3Q93 9.45 93.5 9.9M84.65,8.95Q85.3 8.95 85.7 9.45Q86 9.8 86 10.5L86 14.65L85.9 16.25L85.85 16.45L85.85 16.5Q85.6 17.3 84.95 17.9L83.65 18.65L82.05 18.85L80.25 18.65L80.2 18.65L78.8 17.8Q78.25 17.25 78.05 16.5L78 16.25L77.8 14.65L77.8 10.5Q77.8 9.85 78.15 9.5Q78.45 8.95 79.15 8.95Q79.75 8.95 80.15 9.4L80.2 9.45Q80.55 9.8 80.55 10.5L80.55 14.75Q80.55 15.35 80.7 15.8L81 16.25L81.05 16.3L81 16.3L81.9 16.45L82.8 16.25L82.95 16.1L83 16.1L83.3 14.8L83.3 10.5Q83.3 9.8 83.6 9.45L83.65 9.45Q84 8.95 84.65 8.95M71.75,9.2Q72 8.95 72.45 8.95Q73 8.95 73.4 9.35Q73.75 9.7 73.75 10.2L73.3 11.35L71.4 13.1L73.6 16.15L73.7 16.25L74.05 16.85L74.1 16.95L74.2 17.65L73.9 18.45L73.8 18.55L72.9 18.85L72 18.6L71.5 18.05L71.45 18.05L71.2 17.6L69.45 14.95L68.65 15.7L68.65 17.3Q68.65 18.1 68.25 18.45Q67.85 18.85 67.25 18.85L66.65 18.7L66.55 18.65L66.1 18.2L66.05 18.05L65.95 17.7L65.9 17.55L65.9 16.9L65.9 10.5Q65.9 9.85 66.25 9.5Q66.55 8.95 67.25 8.95Q67.85 8.95 68.25 9.4L68.3 9.45Q68.65 9.8 68.65 10.5L68.65 12.3L71.2 9.6L71.75 9.2M65.05,9.4L65.1 9.45Q65.45 9.75 65.45 10.35Q65.45 10.85 65.1 11.2L65.05 11.25L64.05 11.55L62.65 11.55L62.65 17.3Q62.65 18.05 62.35 18.4L62.3 18.45Q61.9 18.85 61.3 18.85Q60.65 18.85 60.35 18.45L60.3 18.4Q59.95 18 59.95 17.3L59.95 11.55L58.55 11.55L57.55 11.25L57.5 11.2Q57.15 10.85 57.15 10.35Q57.15 9.75 57.6 9.4Q57.9 9.1 58.55 9.1L64.05 9.1Q64.7 9.1 65.05 9.4M55.15,9.2L55.6 9.65L55.95 10.15L56 10.25L56.25 10.95L56.25 10.9L58.5 16.45L58.45 16.45L58.75 17.55Q58.75 18.05 58.35 18.45Q57.95 18.85 57.4 18.85L56.9 18.8L56.8 18.75L56.45 18.45L56.4 18.4L56.15 17.9L55.95 17.4L55.95 17.45L55.6 16.65L52.85 16.65L52.55 17.45L52.55 17.4L52.05 18.4Q51.8 18.85 51.1 18.85L50.2 18.5L50.15 18.45Q49.75 18.05 49.75 17.55L49.9 17L50.05 16.55L52.25 10.95L52.5 10.3L52.85 9.7L52.85 9.65L53.3 9.2L53.35 9.2Q53.7 8.95 54.2 8.95Q54.75 8.95 55.1 9.2L55.15 9.2M53.65,14.35L54.8 14.35L54.2 12.8L53.65 14.35" />
<path style="fill:#FFFFFF;fill-opacity:1" d="M91.45,10.2Q91.5 9.7 92.1 9.55L92.1 9.5Q93.05 9.7 93.1 10.6L93.05 10.65Q91.9 11.3 91.45 10.2M85.5,10.65Q84.35 11.3 83.9 10.2Q84 9.7 84.55 9.55L84.55 9.5Q85.5 9.7 85.55 10.6L85.5 10.65M89.15,10.6L89.1 10.65Q87.95 11.3 87.5 10.2Q87.6 9.7 88.15 9.55L88.15 9.5Q89.1 9.7 89.15 10.6M72.2,9.55L72.2 9.5Q73.15 9.7 73.2 10.6L73.15 10.65Q72 11.3 71.55 10.2Q71.65 9.7 72.2 9.55M78.3,10.2Q78.4 9.7 79 9.55L79 9.5Q79.95 9.7 79.95 10.6L79.95 10.65Q78.8 11.3 78.3 10.2M64.05,9.4Q65 9.6 65.05 10.5L65 10.55Q63.85 11.2 63.4 10.1Q63.5 9.6 64.05 9.45L64.05 9.4M67.15,9.5Q68.1 9.7 68.15 10.6L68.1 10.65Q66.95 11.3 66.5 10.2Q66.6 9.7 67.15 9.55L67.15 9.5M54.15,9.65L54.15 9.6Q55.1 9.8 55.1 10.7L55.1 10.75Q53.9 11.4 53.45 10.3Q53.55 9.8 54.15 9.65M58.45,9.45L58.45 9.4Q59.4 9.6 59.45 10.5L59.4 10.55Q58.25 11.2 57.8 10.1Q57.9 9.6 58.45 9.45" />
</g>
</svg>
