<?xml version="1.0" encoding="utf-8"?>
<svg version="1.1" id="Layer_1"
xmlns="http://www.w3.org/2000/svg"
xmlns:xlink="http://www.w3.org/1999/xlink"
xmlns:author="http://www.sothink.com"
width="37px" height="43px"
xml:space="preserve">
<g id="526" transform="matrix(1, 0, 0, 1, 0.05, 0)">
<path style="fill:#9C89C2;fill-opacity:1" d="M24.55,5.2L27.85 5.4Q26.5 5.55 25.55 6.1L25.95 5.6L25.95 5.55L24.1 5.55L23.4 5.6L24.55 5.2M20.75,2.75L20.85 2.25L21.15 1.6L20.35 1.6Q19.05 1.95 18.05 2.6L16.9 3.45L16.7 3.7L17.5 2.55Q19.15 0.7 22.2 0.75Q21.15 1.7 20.75 2.75M14.3,4.1Q13.7 3.6 13.65 3.15Q12.7 3.3 11.95 4.7L11.8 4.9Q11.1 6.25 11.05 7.05L11.2 5.55L11.45 4.65Q12 3.2 13.95 2.35Q13.9 3.4 14.3 4.1M9.6,7.15L9.2 7.15L7.6 5.9L7.25 6.7L7.05 7.05L6.55 8.75Q6.5 7.55 6.7 6.6Q6.95 5.15 7.8 4.2Q7.7 5.15 8.5 6.2L9.2 6.9L9.6 7.15M6.85,16.15L6.75 16.2L6.5 16.35L6.25 16.45L6 16.65L5.75 16.75L5.25 16.1L5.85 16.05L6.4 15.9L6.5 15.85L6.75 15.75L6.85 15.7L7.15 15.9L6.85 16.15" />
<path style="fill:#785EA8;fill-opacity:1" d="M24.15,7.4Q23.4 8.45 23.3 10.05L22.85 9.7L21.95 9.3Q22.15 8.2 22.55 7.75L22.75 7.6Q21.9 7.8 20.75 8.45Q20.2 8.8 19.8 9.1L19.1 9.05L19 8.8L18.85 7.35Q18.85 5.4 19.6 4.35Q17.8 5.2 16.85 6.9Q16.3 7.85 16.1 8.85Q15.15 8.65 14.25 7.65Q13.1 6.45 13.3 5.3L12.75 6.1Q12.35 6.85 12.4 7.95Q12.4 9.05 12.55 9.5L12.8 10.15Q10.55 9.9 9.3 8.9Q8.45 8.25 8.4 7.8L8.25 8.75Q8.25 10.15 8.95 11.25L10.95 13.4L10.85 13.65L8.65 13.5Q6.9 12 6.65 9.5L6.55 8.75L7.05 7.05L7.25 6.7L7.6 5.9L9.2 7.15L9.6 7.15L10.4 7.45L11.1 7.85Q11 7.7 11.05 7.05Q11.1 6.25 11.8 4.9L11.95 4.7Q12.7 3.3 13.65 3.15Q13.7 3.6 14.3 4.1L14.6 4.65L14.7 4.75L15.35 5.3L15.4 6L15.45 6.3L15.5 6.4L15.6 6.5L15.7 6.2L16.2 4.7L16.7 3.7L16.9 3.45L18.05 2.6Q19.05 1.95 20.35 1.6L21.15 1.6L20.85 2.25L20.75 2.75Q20.4 3.7 20.55 4.75L20.6 4.95L21 6.2L20.7 6.8L20.5 7.2L20.3 7.6L20.3 7.65L20.5 7.45L21.35 6.8L22.35 6.1L23.4 5.6L24.1 5.55L25.95 5.55L25.95 5.6L25.55 6.1Q24.65 6.6 24.15 7.4M8.1,16.2L7.7 16.4L8.25 16.7L8.6 16.85L10.65 17.4L10.5 17.45L8.5 17.95L7.95 18L7.4 18L6.95 17.75L6.2 17.2L5.75 16.75L6 16.65L6.25 16.45L6.5 16.35L6.75 16.2L6.85 16.15L7.15 15.9L7.4 15.95L8.1 16.15L8.25 16.15L8.1 16.2M15.55,32.2L15.5 32.15L14.7 31.15L14.9 31.15Q15.5 31.25 15.6 31.55L15.55 31.9L15.55 32.15L15.55 32.2" />
<path style="fill:#373254;fill-opacity:1" d="M9.2,6.9L8.5 6.2Q7.7 5.15 7.8 4.2Q6.95 5.15 6.7 6.6Q6.5 7.55 6.55 8.75L6.65 9.5Q6.9 12 8.65 13.5L7.75 13.3L7.45 13.4L7.4 13.35L6.3 11.5L6.1 11.05L6 10.8L5.7 9.55Q5.55 8.5 5.75 7.3Q6.1 4.9 7.05 3.85Q8.05 2.8 8.25 2.85L8.45 3L8.5 4Q8.5 4.9 9.05 5.7L9.5 6.15Q9.9 6.5 10.4 6.5Q10.3 5.65 10.5 4.9Q11.05 2.55 14 1.4Q14.4 1.2 14.55 1.5L14.7 2.75Q14.7 3.7 15.3 4.1L15.5 4.2Q15.65 3.55 15.95 3.05Q16.45 2.05 17.5 1.3Q19.05 0.15 20.8 0.05L22.9 0.05L23.3 0.4L22.5 1.65Q21.55 2.9 21.4 3.95Q21.3 5.05 21.6 5.55Q23.85 4.15 25.15 4.1L27.5 4.35Q28.55 4.65 29.2 5.15Q29.85 5.7 29.2 5.85Q27 6.4 25.95 7.05Q25.2 7.45 24.8 8.4L24.45 9.35Q24.15 10.55 24.4 11.15L24.25 11L23.3 10.05Q23.4 8.45 24.15 7.4Q24.65 6.6 25.55 6.1Q26.5 5.55 27.85 5.4L24.55 5.2L23.4 5.6L22.35 6.1L21.35 6.8L20.5 7.45L20.3 7.65L20.3 7.6L20.5 7.2L20.7 6.8L21 6.2L20.6 4.95L20.55 4.75Q20.4 3.7 20.75 2.75Q21.15 1.7 22.2 0.75Q19.15 0.7 17.5 2.55L16.7 3.7L16.2 4.7L15.7 6.2L15.6 6.5L15.5 6.4L15.45 6.3L15.4 6L15.35 5.3L14.7 4.75L14.6 4.65L14.3 4.1Q13.9 3.4 13.95 2.35Q12 3.2 11.45 4.65L11.2 5.55L11.05 7.05Q11 7.7 11.1 7.85L10.4 7.45L9.6 7.15L9.2 6.9" />
<path style="fill:#625643;fill-opacity:1" d="M17.25,10L17.4 9.15L17.6 9.1L18.4 9.05L19.1 9.05L19.8 9.1L21.3 9.2L21.55 9.2L21.95 9.3L22.85 9.7L23.3 10.05L24.25 11L24.4 11.15L26.05 12.95Q26.9 13.9 27.05 15.7Q27.15 17.45 26.85 20.95Q26.8 21.75 25.15 23.05L25.05 25.7L24.2 25.5L24.2 25.45L24.35 22.55L25.95 21L26.15 19.4L26.25 16.75L26.15 14.7L25.3 13.4L24.15 12.15L23.55 11.5L23.3 11.25L22 10.3L21.8 10.2L21.45 10.1L19 9.85L18.75 9.85L17.8 9.9L17.25 10M22.7,26L22.35 25.85L21.9 25.5L21.9 25.45L22.35 23.95L22.45 23.15L22.65 23L22.85 23.3L23 24.05L22.7 26" />
<path style="fill:#443B74;fill-opacity:1" d="M10.85,13.65L10.95 13.4L8.95 11.25Q8.25 10.15 8.25 8.75L8.4 7.8Q8.45 8.25 9.3 8.9Q10.55 9.9 12.8 10.15L12.55 9.5Q12.4 9.05 12.4 7.95Q12.35 6.85 12.75 6.1L13.3 5.3Q13.1 6.45 14.25 7.65Q15.15 8.65 16.1 8.85Q16.3 7.85 16.85 6.9Q17.8 5.2 19.6 4.35Q18.85 5.4 18.85 7.35L19 8.8L19.1 9.05L18.4 9.05L17.6 9.1L17.4 9.15L16.05 9.45L15.65 9.65Q14.8 10.25 14.65 11.4L14.55 13.6L14.15 13.6L11.35 13.7L11 13.65L10.85 13.65M19.8,9.1Q20.2 8.8 20.75 8.45Q21.9 7.8 22.75 7.6L22.55 7.75Q22.15 8.2 21.95 9.3L21.55 9.2L21.3 9.2L19.8 9.1M15,21.65L14.25 21.5Q12.6 21.7 11.35 22.5L11.15 22.45L10.3 22.25L10.15 22.2L9.5 21.9L10 21.55L10.4 21.15L10.6 21L11.3 19.55L11.35 18.45Q9.8 18.65 8.6 18.45L8.1 18.3L8 18.25L7.4 18L7.95 18L8.5 17.95L10.5 17.45L10.65 17.4L8.6 16.85L8.25 16.7L7.7 16.4L8.1 16.2L8.25 16.15L9.9 16.35L12.65 16.5L14.7 16.5L14.8 18.2L15.05 20.1L15.15 20.95L15.2 21.5L15.2 21.55L15.25 21.55L15 21.65" />
<path style="fill:#F7F7F3;fill-opacity:1" d="M24.1,25.45L24 25.45L23.7 25.4L24.05 23.2L23.95 22.35L24.75 21.35Q25.6 20.55 25.75 18.6Q25.9 16.7 24.85 14.45Q23.75 12.2 22.85 11.65L21.7 11.05L19.45 10.25L18.85 10.1L17.8 9.9L18.75 9.85L19 9.85L21.45 10.1L21.8 10.2L22 10.3L23.3 11.25L23.55 11.5L24.15 12.15L25.3 13.4L26.15 14.7L26.25 16.75L26.15 19.4L25.95 21L24.35 22.55L24.2 25.45L24.1 25.45M23.8,18.15L23.4 18.5L22.85 18.7Q22.05 18.7 20.8 17.5Q19.55 16.3 19.55 15.75L19.7 15.25L19.8 15.85L21.8 17.45Q23.1 18.3 23.8 18.15M21.9,25.45L21.85 25.45L21.65 25.5L21.3 25.45L22.35 23.15L22.45 23L22.45 23.15L22.35 23.95L21.9 25.45" />
<path style="fill:#D0C4AA;fill-opacity:1" d="M16.7,17.95L16.65 16.75Q17.1 16.85 17.2 16.25L17.1 16.15L16.95 16.05L16.65 16.15L16.65 15.25Q17 15.15 16.95 14.6L16.9 14.55L16.7 14.45Q16.7 12.4 16.85 11.5L17.25 10L17.8 9.9L18.85 10.1L19.45 10.25L21.7 11.05L22.85 11.65Q23.75 12.2 24.85 14.45Q25.9 16.7 25.75 18.6Q25.6 20.55 24.75 21.35L23.95 22.35L24.05 23.2L23.7 25.4L23.65 25.35L23.5 24.85L23.4 24.8L23.2 24.9L23.15 24.65L23 24.05L22.85 23.3L22.65 23L22.45 23.15L22.45 23L22.35 23.15L21.3 25.45L21.1 25.4L21 25.15L21.15 25.05L21 24.75L20.85 24.75L20.85 24.85L20.8 24.55L20.95 23.4Q20.95 22.5 20.3 22.2L20.2 22.2Q19.6 22.6 19.4 22.1L18.8 21.95L18.7 21.95L18.45 21.85L18.5 21.45L18.35 21.35L18.25 21.3L17.85 21.4L17.4 20.75Q17.1 20.95 16.7 20.75L16.7 20.65Q16.6 20.35 16.75 20.2L17.1 19.95Q16.9 19.45 16.85 18.85L19.8 21.25L20.9 19.8L17.25 17L16.7 17.95M19.55,15.75Q19.55 16.3 20.8 17.5Q22.05 18.7 22.85 18.7L23.4 18.5L23.8 18.15L24.2 17.85Q24.7 15.45 23.8 14.6L22.7 13.75Q21.45 12.95 20.75 12.95Q19.95 12.95 19.8 14.15L19.7 15.25L19.55 15.75M22.35,20L21.85 19.95L21.6 19.55L21.55 19.5L21.4 20.1Q21.15 20.2 21 20.45L21 20.55L21.55 20.7Q21.7 21.15 22.35 21.5L22.4 21.45L22.15 20.55L22.6 20.3L22.6 20.2L22.55 20.1L22.35 20M21.25,23.8Q20.7 24.35 21.5 24.15L21.55 24.1L21.35 23.8L21.25 23.8M19.25,11.75Q19.25 11.25 18.75 11.25Q18.2 11.35 18.4 11.9L18.45 12Q18.95 12.2 19.25 11.75M17.95,13.2L17.7 13.25L17.65 13.3Q17.5 13.4 17.5 13.6L17.6 13.8Q17.85 14.05 18.2 13.8Q18.35 13.5 18.1 13.3L17.95 13.2M18.8,16.75L18.7 16.7Q18.15 17.3 18.95 17.1L19 17.05L18.8 16.75" />
<path style="fill:#3F3629;fill-opacity:1" d="M21.8,17.45L19.8 15.85L19.7 15.25L19.8 14.15Q19.95 12.95 20.75 12.95Q21.45 12.95 22.7 13.75L23.8 14.6Q24.7 15.45 24.2 17.85L23.8 18.15Q23.1 18.3 21.8 17.45" />
<path style="fill:#BFA172;fill-opacity:1" d="M23,24.05L23.15 24.65L23.2 24.9L23.4 24.8L23.5 24.85L23.65 25.35L23.7 25.4L24 25.45L24.1 25.45L24.2 25.45L24.2 25.5L24.2 25.9L23.6 26.2L23.2 26.25L22.65 26.05L22.7 26L23 24.05M22.55,20.1L22.6 20.2L22.6 20.3L22.15 20.55L22.4 21.45L22.35 21.5Q21.7 21.15 21.55 20.7L21 20.55L21 20.45Q21.15 20.2 21.4 20.1L21.55 19.5L21.6 19.55L21.85 19.95L22.35 20L22.55 20.1M21.35,23.8L21.55 24.1L21.5 24.15Q20.7 24.35 21.25 23.8L21.35 23.8M21.65,25.5L21.85 25.45L21.9 25.45L21.9 25.5L21.6 26.2Q20.85 26.35 19.9 25.85L20.15 24.55Q20.2 23.65 19.75 23.35L18.5 22.7L18.15 22.5L17.7 22.3L16.2 21.25L16.05 21.15L15.9 20.45L15.8 19.45L15.6 17.25L15.5 16.45L15.45 15.65L15.35 14.25L15.35 13.5L15.35 12.8Q15.45 11.3 15.9 10.6L16.05 10.45Q16.35 10.15 17.25 10L16.85 11.5Q16.7 12.4 16.7 14.45L16.9 14.55L16.95 14.6Q17 15.15 16.65 15.25L16.65 16.15L16.95 16.05L17.1 16.15L17.2 16.25Q17.1 16.85 16.65 16.75L16.7 17.95L16.4 18.55L16.85 18.85Q16.9 19.45 17.1 19.95L16.75 20.2Q16.6 20.35 16.7 20.65L16.7 20.75Q17.1 20.95 17.4 20.75L17.85 21.4L18.25 21.3L18.35 21.35L18.5 21.45L18.45 21.85L18.7 21.95L18.8 21.95L19.4 22.1Q19.6 22.6 20.2 22.2L20.3 22.2Q20.95 22.5 20.95 23.4L20.8 24.55L20.85 24.85L20.85 24.75L21 24.75L21.15 25.05L21 25.15L21.1 25.4L21.3 25.45L21.65 25.5M18.45,12L18.4 11.9Q18.2 11.35 18.75 11.25Q19.25 11.25 19.25 11.75Q18.95 12.2 18.45 12M18.1,13.3Q18.35 13.5 18.2 13.8Q17.85 14.05 17.6 13.8L17.5 13.6Q17.5 13.4 17.65 13.3L17.7 13.25L17.95 13.2L18.1 13.3M16.2,12.65Q15.65 13.2 16.45 13L16.5 12.95L16.3 12.7L16.2 12.65M19,17.05L18.95 17.1Q18.15 17.3 18.7 16.7L18.8 16.75L19 17.05M20.2,22.85L20.2 22.8L20.05 22.5L19.9 22.5Q19.4 23.05 20.2 22.85" />
<path style="fill:#4A4131;fill-opacity:1" d="M22.7,26L22.65 26.05L23.2 26.25L23.6 26.2L24.2 25.9L24.2 25.5L25.05 25.7L25.05 26.35Q23.8 27.45 22.35 26.85L21.05 27.1Q18.85 26.8 19.1 25.65L19.25 24.25L18.45 23.6L18.3 23.5L17.6 23.15L16.45 22.55L15.6 21.95L15.35 21.7L15.25 21.55L15.2 21.55L15.2 21.5L15.15 20.95L15.05 20.1L14.8 18.2L14.7 16.5L14.65 15.75L14.6 14.85L14.55 14.3L14.55 13.6L14.65 11.4Q14.8 10.25 15.65 9.65L16.05 9.45L17.4 9.15L17.25 10Q16.35 10.15 16.05 10.45L15.9 10.6Q15.45 11.3 15.35 12.8L15.35 13.5L15.35 14.25L15.45 15.65L15.5 16.45L15.6 17.25L15.8 19.45L15.9 20.45L16.05 21.15L16.2 21.25L17.7 22.3L18.15 22.5L18.5 22.7L19.75 23.35Q20.2 23.65 20.15 24.55L19.9 25.85Q20.85 26.35 21.6 26.2L21.9 25.5L22.35 25.85L22.7 26" />
<path style="fill:#745416;fill-opacity:1" d="M6.65,14.95L6.5 15.05L5.85 12.85L5.75 12.25L6.3 12.1L6.95 14.15L6.85 14.3L6.65 14.95M7.75,19.15L7.7 19L7.95 19.05L7.75 19.15M4.45,21.45L2 17.55Q0.8 15.5 1.65 15.8L4.45 20.15L4.95 20.95L4.45 21.45M5.25,20.7L4.25 19Q2.55 16.2 2.7 16Q2.8 15.85 3.4 15.65L3.65 16.05L5.7 19.8L5.95 20.15L5.25 20.7M13.15,36.6L13.4 37L12.75 37.25L12.1 37.5L10.15 38.25L9.75 38.4L8.9 38.75Q7.35 39.3 6.15 39.8Q5.4 39.85 5.35 39.55L13.15 36.6M26.25,31.95L22.7 33.35Q22.1 33.55 21.55 33.8L20.5 34.2L19.95 34.45Q19.75 34.2 19.65 34.55L19.1 34.8L18.9 34.4L26.5 31.45L26.25 31.95" />
<path style="fill:#9A7226;fill-opacity:1" d="M6.15,15.15L5.35 12.35Q5.2 11.85 5.4 11.65Q5.7 11.35 6.15 11.65L6.3 12.1L5.75 12.25L5.85 12.85L6.5 15.05L6.15 15.15M7.45,19.3L7.3 18.8L7.7 19L7.75 19.15L7.45 19.3M2,17.55L4.45 21.45L4.2 21.7L4.05 21.4L2 18.35L0.8 16.55L0.6 16.05L0.8 15.75Q1 15.5 1.4 15.45L1.65 15.8Q0.8 15.5 2 17.55M5.35,39.55Q5.35 39.35 5.7 38.9L9.65 37.5L10.35 37.2L10.9 37L11.55 36.7L12.9 36.15L13 36.15L13.15 36.6L5.35 39.55M26.7,31.2L26.5 31.45L18.9 34.4L18.6 34L18.6 33.9L18.7 33.9L19.2 33.7L19.85 33.45L20.05 33.35L22.35 32.45L23.1 32.15L26.05 31L26.7 31.2" />
<path style="fill:#4D3212;fill-opacity:1" d="M7.45,13.45L6.95 14.05L6.95 14.15L6.3 12.1L6.15 11.65Q5.7 11.35 5.4 11.65Q5.2 11.85 5.35 12.35L6.15 15.15L5.6 15.35L5.5 15.1Q4.7 12.8 4.55 11.5Q4.75 11.1 5.1 10.85L6 10.8L6.1 11.05L6.3 11.5L7.4 13.35L7.45 13.45M6.6,18.4L7.3 18.8L7.45 19.3L7 19.5L6.95 19.55L6.6 18.4M3.9,22.1L3.5 21.55L2.55 20.1L1 17.8L0 16.2Q-0.15 15.7 0.4 15.3Q1 14.85 1.3 14.85L1.75 15.05L2.15 15.55L2.2 15.6L2.3 15.5L2.4 15.35L2.9 15.1Q3.5 14.8 3.9 15.3L4.2 15.7Q4.05 16.05 4.75 16.8L4.85 17.15L6.3 19.95L5.95 20.15L5.7 19.8L3.65 16.05L3.4 15.65Q2.8 15.85 2.7 16Q2.55 16.2 4.25 19L5.25 20.7L5.15 20.8L4.95 20.95L4.45 20.15L1.65 15.8L1.4 15.45Q1 15.5 0.8 15.75L0.6 16.05L0.8 16.55L2 18.35L4.05 21.4L4.2 21.7L3.9 22.1M21.55,32L22.35 31.7L22.9 31.45L25.4 30.5L26.05 31L23.1 32.15L22.35 32.45L20.05 33.35L19.85 33.45L19.2 33.7L18.7 33.9L18.6 33.9L18.5 33.2L18.95 33.05L21.55 32M26.2,32.75L21.75 34.45L20.85 34.8L20.8 34.85L20.25 35.05L19.3 35.4L19.25 35.45L19.2 35.25L19.1 34.8L19.65 34.55Q19.75 34.2 19.95 34.45L20.5 34.2L21.55 33.8Q22.1 33.55 22.7 33.35L26.25 31.95L26.15 32.6L26.2 32.75M13.4,37.75L12.15 38.25L11.85 38.4L11.5 38.5L9.95 39.15L8.75 39.6L8.4 39.75L5.75 40.65Q4.55 40.5 4.35 39.95Q4.15 39.45 4.8 38.6L9.55 36.7L9.7 36.65L10.1 36.5L10.5 36.35L10.75 36.25L11.05 36.15L11.95 35.8L12.35 35.65L12.55 35.55L12.9 35.85L12.95 35.9L12.9 35.95L12.95 36L13 36.15L12.9 36.15L11.55 36.7L10.9 37L10.35 37.2L9.65 37.5L5.7 38.9Q5.35 39.35 5.35 39.55Q5.4 39.85 6.15 39.8Q7.35 39.3 8.9 38.75L9.75 38.4L10.15 38.25L12.1 37.5L12.75 37.25L13.4 37L13.65 37.25L13.95 37.55L13.4 37.75" />
<path style="fill:#2E201B;fill-opacity:1" d="M14.7,16.5L12.65 16.5L9.9 16.35L8.25 16.15L8.1 16.15L7.4 15.95L7.15 15.9L6.85 15.7L6.7 15.55L6.65 15.5L6.65 14.95L6.85 14.3L6.95 14.15L6.95 14.05L7.45 13.45L7.45 13.4L7.75 13.3L8.65 13.5L10.85 13.65L11 13.65L11.35 13.7L14.15 13.6L14.55 13.6L14.55 14.3L14 14.35L12.8 14.45L10.4 14.45L10.1 14.4L10.05 14.4L7.9 14.2L7.85 14.15L7.65 14.35L7.6 14.4L7.5 14.55Q7.3 14.85 7.45 15.2L7.6 15.25L7.7 15.3L7.9 15.35L9.2 15.6L10.1 15.7L14.3 15.75L14.65 15.75L14.7 16.5M7.75,19.15L7.95 19.05L8.8 19.25L9.55 19.35L9.75 19.6L10.15 20.15L9.85 20.55L9.65 20.75L9.65 20.7L9.25 19.95L9 19.65L8.75 19.7L8.5 19.8L8 20.05L7.65 20.2L7.25 20.45L7.2 20.45L6.9 20.65L6.7 20.75L6.35 21L5.75 21.5L5.5 21.75L5.05 22.25L4.6 22.7L4.45 22.9L4.1 23.4Q4.3 24.35 5.75 26.8L6 27.2L7.9 29.75L7.95 29.8Q7.5 29.75 7.3 30.25L5.8 28.4L4.2 25.6L3.4 23.55Q3.35 23.15 3.65 22.5L3.9 22.1L4.2 21.7L4.45 21.45L4.95 20.95L5.15 20.8L5.25 20.7L5.95 20.15L6.3 19.95L6.85 19.6L6.95 19.55L7 19.5L7.45 19.3L7.75 19.15M30.1,30.9L30.05 31.75L29.95 32.45L29.9 33L29.85 33.4Q29.65 34.2 28.85 34.1L28.7 34.1Q28.15 33.95 28.1 33.3L28.1 32.9L28.2 32.8L28.65 30.35L28.7 29.9L26.6 28.7L26.4 28.55Q25.85 28.25 26 27.95L26.1 27.8L26.3 27.35L26.35 27.35L27.1 27.3L27.5 27.4L27.75 27.5L27.85 27.55L28.75 27.95L28.75 27.85L28.85 27.4Q28.9 27 29.1 26.85L29.3 26.7L30 26.7L30.55 27.15L30.55 27.2L30.7 28L30.65 29.05L32.15 30.85L32.2 30.95L32.6 31.6L32.65 31.7L32.65 31.75Q32.85 32.15 32.5 32.4Q31.9 32.9 31.35 32.75L31.25 32.55L30.85 31.85L30.6 31.5L30.1 30.9M26.85,27.65L26.7 27.55L26.6 27.7L26.55 27.75Q26.45 27.95 26.75 28.15L27.35 28.5L27.6 28.7L27.8 28.8L28.65 29.25Q30.2 30.15 31 31.3L31 31.35L31.25 31.6L31.7 32.25L31.8 32.35L32.2 32L32.2 31.9L32.2 31.85L31.95 31.2L31.9 31.15L31.8 31.05L31.8 31L31.5 30.7L30.8 29.9L30.7 29.8L28.5 28.3L26.95 27.65L26.85 27.65M29.25,28.15L29.25 28.25L30.1 28.75L30.2 28.05L30.25 27.65L30.15 27.25L29.9 27.15L29.7 27.1L29.4 27.25L29.35 27.35L29.25 27.95L29.25 28.15M28.85,31.45L28.7 32.95L28.7 33.05L28.7 33.15Q28.7 33.5 29.05 33.45L29.5 32.7L29.6 31.9L29.6 31.8L29.7 30.6L29.6 30.55L29 30.1L28.95 30.55L28.85 31.45" />
<path style="fill:#513727;fill-opacity:1" d="M14.6,14.85L14.65 15.75L14.3 15.75L10.1 15.7L9.2 15.6L7.9 15.35L7.7 15.3L7.6 15.25L7.45 15.2Q7.3 14.85 7.5 14.55L7.75 14.7L8.15 14.85L9.75 15.1L10.95 15.2L13.8 15.15L13.95 14.45L14 14.35L14.55 14.3L14.6 14.85M8.1,29.45L8.25 29.8L8.05 29.8L7.95 29.8L7.9 29.75Q7.9 27.75 8.2 26.7Q8.5 25.3 8.95 24.95L9.15 24.45L8.45 23L7.95 21.95L7.65 21.4L7.55 21.25L8.1 20.85L8.15 20.8L8.2 20.75L8.4 20.6L8.75 20.3L8.95 20.2L9.25 19.95L9.65 20.7L9.65 20.75L9.1 21.2L8.1 22L8.35 22.2L9.2 22.7L9.3 22.75L10.5 23.15Q8.8 24.65 8.15 27.5L8.1 29.25L8.1 29.45M31.8,31.05L31.9 31.15L31.95 31.2L32.2 31.85L32.2 31.9L32.2 32L31.8 32.35L31.7 32.25L31.25 31.6L31 31.35L31 31.3Q30.2 30.15 28.65 29.25L27.8 28.8Q29.1 29.1 29.6 29.6L30.7 30.6L31.35 31.2L31.55 31.25L31.8 31.05M29.25,27.95L29.65 28.1L29.75 28.2L29.75 28.05L29.8 27.65L29.8 27.3L29.8 27.2L29.7 27.1L29.9 27.15L30.15 27.25L30.25 27.65L30.2 28.05L30.1 28.75L29.25 28.25L29.25 28.15L29.25 27.95M28.95,33L29.1 33.05L29.15 32.9L29.35 31.8L29.35 31.6L29.35 31L29.25 30.75L29.1 30.55L28.95 30.55L29 30.1L29.6 30.55L29.7 30.6L29.6 31.8L29.6 31.9L29.5 32.7L29.05 33.45Q28.7 33.5 28.7 33.15L28.7 33.05L28.7 32.95L28.95 33" />
<path style="fill:#8E6755;fill-opacity:1" d="M7.75,14.7L7.5 14.55L7.6 14.4L7.65 14.35L7.85 14.15L7.9 14.2L10.05 14.4L10.1 14.4L10.4 14.45L12.8 14.45L11.65 14.65L10.15 14.7L9.95 14.7L8.25 14.8L8.15 14.85L7.75 14.7M8.95,20.2L8.75 20.3L8.4 20.6L8.2 20.75L8.15 20.8L8.1 20.85L7.55 21.25L7.45 21.3L6.75 21.85L6.25 22.25L6.25 22.3Q5.9 22.55 5.65 22.75Q5.45 22.85 5.5 23.25L5.55 23.45L5.55 23.7L5.65 23.75L6.05 24.4L5.35 24.4L5.45 25.5L5.75 26.8Q4.3 24.35 4.1 23.4L4.45 22.9L4.6 22.7L5.05 22.25L5.5 21.75L5.75 21.5L6.35 21L6.7 20.75L6.9 20.65L7.2 20.45L7.25 20.45L7.65 20.2L8 20.05L8.5 19.8L8.75 19.7L9 19.65L9.25 19.95L8.95 20.2M30.7,29.9L30.3 29.8L29.8 29.4L28.7 28.8L27.9 28.4L27.25 28.1L26.85 27.85L26.95 27.65L28.5 28.3L30.7 29.8L30.8 29.9L30.7 29.9" />
<path style="fill:#644638;fill-opacity:1" d="M13.95,14.45L13.8 15.15L10.95 15.2L9.75 15.1L8.15 14.85L8.25 14.8L9.95 14.7L10.15 14.7L11.65 14.65L12.8 14.45L14 14.35L13.95 14.45M7.9,29.75L6 27.2L5.75 26.8L5.45 25.5L5.35 24.4L6.05 24.4L5.65 23.75L5.55 23.7L5.55 23.45L5.5 23.25Q5.45 22.85 5.65 22.75Q5.9 22.55 6.25 22.3L6.25 22.25L6.75 21.85L7.45 21.3L7.55 21.25L7.65 21.4L7.95 21.95L8.45 23L9.15 24.45L8.95 24.95Q8.5 25.3 8.2 26.7Q7.9 27.75 7.9 29.75M31.55,31.25L31.35 31.2L30.7 30.6L29.6 29.6Q29.1 29.1 27.8 28.8L27.6 28.7L27.35 28.5L26.75 28.15Q26.45 27.95 26.55 27.75L26.6 27.7L26.7 27.55L26.85 27.65L26.95 27.65L26.85 27.85L27.25 28.1L27.9 28.4L28.7 28.8L29.8 29.4L30.3 29.8L30.7 29.9L30.8 29.9L31.5 30.7L31.8 31L31.8 31.05L31.55 31.25M29.8,27.2L29.8 27.3L29.8 27.65L29.75 28.05L29.75 28.2L29.65 28.1L29.25 27.95L29.35 27.35L29.4 27.25L29.7 27.1L29.8 27.2M28.95,30.55L29.1 30.55L29.25 30.75L29.35 31L29.35 31.6L29.35 31.8L29.15 32.9L29.1 33.05L28.95 33L28.7 32.95L28.85 31.45L28.95 30.55" />
<path style="fill:#29253F;fill-opacity:1" d="M4.2,15.7L5.6 15.35L6.15 15.15L6.5 15.05L6.65 14.95L6.65 15.5L6.7 15.55L6.85 15.7L6.75 15.75L6.5 15.85L6.4 15.9L5.85 16.05L5.25 16.1L5.75 16.75L6.2 17.2L6.95 17.75L7.4 18L8 18.25L8.1 18.3L8.6 18.45Q9.8 18.65 11.35 18.45L11.3 19.55L10.6 21L10.4 21.15L10 21.55L9.5 21.9L10.15 22.2L10.3 22.25L11.15 22.45L11.35 22.5L10.5 23.15L9.3 22.75L9.2 22.7L8.35 22.2L8.1 22L9.1 21.2L9.65 20.75L9.85 20.55L10.15 20.15L10.65 19.3L9.55 19.35L8.8 19.25L7.95 19.05L7.7 19L7.3 18.8L6.6 18.4L5.95 17.9L4.95 17.05L4.75 16.8Q4.05 16.05 4.2 15.7M8.8,35.9L8.6 36.25L8.45 36.4L7.9 36.45L7.35 35.25L7.15 34.05L7.05 32.6L7.05 32.4Q7 30.75 7.3 30.25Q7.5 29.75 7.95 29.8L8.05 29.8L8.25 29.8L8.4 30.2L8.45 30.3L8.5 30.45L8.55 30.5L8.35 30.7L8.2 30.65L8.1 31.1L8.05 31.65L7.95 32.45L8 34.2L8.2 35.35L8.5 34.75L8.85 34.3Q9.25 33.85 9.7 33.85L9.95 33.85Q10.15 35 10.6 35.45L11.1 34.9L11.1 34.85L11.2 34.75L11.55 34.55L12.55 35.55L12.35 35.65L12.1 35.45L11.85 35.1L11.7 35.25L11.6 35.4L11.55 35.4L11.15 35.8L11 36L10.75 36.25L10.5 36.35L10.25 36.25L10.2 36.2L9.8 35.75L9.65 35.5L9.45 34.95L9.4 35L9.15 35.4L8.8 35.9M15,21.65L15.25 21.55L15.35 21.7L15.6 21.95L15.55 22.05L15.45 21.95L15 21.65" />
<path style="fill:#CCC6B8;fill-opacity:1" d="M16.3,12.7L16.5 12.95L16.45 13Q15.65 13.2 16.2 12.65L16.3 12.7M19.9,22.5L20.05 22.5L20.2 22.8L20.2 22.85Q19.4 23.05 19.9 22.5" />
<path style="fill:#765BA8;fill-opacity:1" d="M17.25,17L20.9 19.8L19.8 21.25L16.85 18.85L16.4 18.55L16.7 17.95L17.25 17" />
<path style="fill:#876430;fill-opacity:1" d="M8.1,29.25L8.15 27.5Q8.8 24.65 10.5 23.15L11.35 22.5Q12.6 21.7 14.25 21.5L15 21.65L15.45 21.95L15.55 22.05L15.6 22.1L15.95 22.8L15.95 22.85L15.8 22.9L15.65 22.8L15.45 22.65L15.35 22.6Q15.2 22.45 15 22.4L13.9 22.25L13.6 22.3L13.25 22.4L11.7 23.3L11.5 23.45L11.25 23.65L10.85 24.05Q9.8 25 9.35 26.15L9.15 26.75L9.1 26.8Q8.65 28.55 8.75 29.15L8.8 29.4L8.35 29.5L8.1 29.45L8.1 29.25M21.15,41.45L21.75 41.4L23.2 41.15Q22.9 40.3 21.9 39.7L22.9 39.55L23.75 40.7Q24.05 41.45 23.5 41.8L21.15 41.45M16.5,32.1L16.65 32.05Q17.75 32.05 18.2 32.7L18.4 32.95L18.5 33.2L18.6 33.9L18.6 34L18.9 34.4L19.1 34.8L19.2 35.25L19.25 35.45L19.15 36L18.05 36.25L18.2 36.05L18.4 35.8L18.4 35.05L18.3 34.9L18.25 34.8L18.15 34.65L18 34.25L18 34.15L17.9 33.75L17.8 33.5L17.75 33.45Q17.5 32.8 16.8 32.8L16.4 32.8L16.25 32.8L16 32.8L16 32.75L16.05 32.25L16.05 32.15L16.5 32.1" />
<path style="fill:#F0DBBB;fill-opacity:1" d="M10.85,24.05L11.25 23.65L11.5 23.45L11.7 23.3L13.25 22.4L13.6 22.3L13.9 22.25L15 22.4Q15.2 22.45 15.35 22.6L15.35 22.75L14.95 22.7L14.3 22.75Q13.4 22.85 12.6 23.25L11.1 24.15L10.75 24.45Q9.95 25.15 9.35 26.15Q9.8 25 10.85 24.05M18,36.25L18.05 36.15L18.1 35.9L18.1 35.6L18.1 35.15L17.95 34.8L18.25 34.8L18.3 34.9L18.4 35.05L18.4 35.8L18.2 36.05L18.05 36.25L18 36.25M17.5,34.4L17.55 34.35L17.4 33.65L17.35 33.6L17.1 33.3L16.4 32.85L16.25 32.8L16.4 32.8L16.8 32.8Q17.5 32.8 17.75 33.45L17.8 33.5L17.9 33.75L17.6 34.3L17.5 34.4" />
<path style="fill:#E9CB9E;fill-opacity:1" d="M13.9,24.6Q12.55 25.5 11.5 25.6L11.5 26Q11.5 27.25 10.4 28.4L9.25 29.3L8.8 29.4L8.75 29.15Q8.65 28.55 9.1 26.8L9.15 26.75L9.35 26.15Q9.95 25.15 10.75 24.45L11.1 24.15L12.6 23.25Q13.4 22.85 14.3 22.75L14.95 22.7L15.35 22.75Q15.05 23.8 13.9 24.6M13.3,28.6Q13.15 28.45 13.9 28.35L14.1 28.35L14.85 28.1L15.5 27.8L15.6 27.75Q16.55 27.25 16.9 26.3Q17.25 25.3 17.55 25.3L18 25.25L18.1 26.55Q17.95 27.35 16.8 28.15Q16.2 28.6 15.3 28.7L14.8 28.75L14.1 28.75L13.55 28.7L13.8 28.9Q13.4 28.75 13.3 28.6M14.3,30.35L14.2 30.35L14.15 30.35L13.95 30.35L13.75 30.15L14.1 29.95L14.25 29.9L14.75 29.75L14.95 29.7L15 29.65L14.85 30.4L14.3 30.35M21.55,32L20.7 31.8L20.6 31.35Q20.4 30.9 19.75 31.15L19.25 31.4L19.3 30.95L19.7 30.65L19.85 30.6L20.25 30.4L21.2 30.5L21.35 30.7L21.6 31.05L22 31.35L22.1 31.4L22.35 31.7L21.55 32M12.35,35.65L11.95 35.8L11.85 35.7L11.6 35.4L11.7 35.25L12.1 35.45L12.35 35.65M16.25,32.8L16.4 32.85L17.1 33.3L17.35 33.6L17.4 33.65L17.55 34.35L17.5 34.4L17.5 34.45L17.45 34.5L17.15 34.7L17.85 34.8L17.95 34.8L18.1 35.15L18.1 35.6L18.1 35.9L18.05 36.15L18 36.25L17.95 36.25L17.3 36.2Q16.9 36.15 16.8 35.95L16.8 36.65L16.4 36.65L16.35 36.65L16.25 36.65L15.4 36.2L15.2 36.05L15.05 35.85L14.7 35.45L14.55 35.3L15.35 34.45L15.55 34.1L15.55 34.05L15.6 34L16 32.8L16.25 32.8M23.2,41.15L21.75 41.4L21.15 41.45L20.85 41.35Q19.3 40.9 19.3 40.5L19.35 40.2L19.65 40.35L20.2 40.35L20.25 39.95L20.35 39.85L21.9 39.7Q22.9 40.3 23.2 41.15" />
<path style="fill:#C4944D;fill-opacity:1" d="M9.1,30L9 29.95L8.9 29.85L8.8 29.4L9.25 29.3L10.4 28.4Q11.5 27.25 11.5 26L11.5 25.6Q12.55 25.5 13.9 24.6Q15.05 23.8 15.35 22.75L15.35 22.6L15.45 22.65L15.65 22.8L15.8 22.9L15.95 22.85L15.95 22.8L15.6 22.1L15.55 22.05L15.6 21.95L16.45 22.55L17.6 23.15Q17.5 24.05 17.75 24.65L18 25.25L17.55 25.3Q17.25 25.3 16.9 26.3Q16.55 27.25 15.6 27.75L15.5 27.8L14.85 28.1L14.1 28.35L13.9 28.35Q13.15 28.45 13.3 28.6Q13.4 28.75 13.8 28.9L14.05 29.1L14.8 29.45L15.05 29.5L15 29.65L14.95 29.7L14.75 29.75L14.25 29.9L14.1 29.95L13.75 30.15L12.8 29.3L12.5 29.05L11.85 28.95L12 28.55Q12.35 27.6 13.15 27.05L14.7 26Q15.5 25.5 15.75 24.85L15.75 24.55L15.1 24.9L13.35 26Q12.35 26.5 11.7 27.85L10.95 29.15L10.25 29.4L9.95 29.55L9.75 29.6L9.1 30M18.95,33.05L19.15 32L19.15 31.95L19.25 31.4L19.75 31.15Q20.4 30.9 20.6 31.35L20.7 31.8L21.55 32L18.95 33.05M16,32.8L15.6 34L15.55 34.05L15.55 34.1L15.35 34.45L14.55 35.3L14.7 35.45L15.05 35.85L15.2 36.05L15.4 36.2L16.25 36.65L16.35 36.65L16.4 36.65L16.8 36.65L16.8 35.95Q16.9 36.15 17.3 36.2L17.95 36.25L18 36.25L18 36.3L17.85 36.45L17.4 36.9L17.15 37L17.1 37.05L16.55 37.25L15.85 37.35L14.85 37.2L14.4 36.85L14.25 36.7L13.9 36.3L13.6 35.9L13.45 35.5L13.9 35L14.55 34.25L14.7 34L15.1 33.4L15.45 32.85L15.55 32.85L16 32.8M11.05,36.15L11 36.05L11 36L11.15 35.8L11.55 35.4L11.6 35.4L11.85 35.7L11.95 35.8L11.05 36.15M9.15,35.4L9.4 35L9.45 34.95L9.65 35.5L9.8 35.75L10.2 36.2L10.25 36.25L10.2 36.3L9.15 35.4M17.95,34.8L17.85 34.8L17.15 34.7L17.45 34.5L17.5 34.45L17.5 34.4L17.6 34.3L17.9 33.75L18 34.15L18 34.25L18.15 34.65L18.25 34.8L17.95 34.8M11.55,41.55L10 41.5L9 41.25Q8.85 41.05 8.85 40.35Q8.8 39.85 9.2 39.65L9.65 39.65Q9.85 40.65 10.25 40.5L10.8 40.4L10.85 40.55L10.95 40.8L11.5 41.45L11.85 41.55L11.55 41.55M12.05,41.5L12.05 41.45Q12 41.25 12.1 41L12.4 40.4L12.5 40.3Q13.05 40.75 13.25 41.3L12.05 41.5M21.35,39.45L21.9 39.7L20.35 39.85L20.25 39.95L20.2 40.35L19.65 40.35L19.35 40.2L19.3 40.5Q19.3 40.9 20.85 41.35L21.15 41.45L19.35 41.35L18.15 41.05Q17.95 40.85 17.95 40L18 39.75L18.45 39.35Q19.45 40 19.65 39.6L20.05 39L20.25 39.15L21.1 39.35L21.35 39.45" />
<path style="fill:#543914;fill-opacity:1" d="M16.1,29.45L15.75 29.85L15.5 30.45L15.05 30.4L14.85 30.4L15 29.65L15.05 29.5L14.8 29.45L14.05 29.1L13.8 28.9L13.55 28.7L14.1 28.75L14.8 28.75L15.3 28.7Q16.2 28.6 16.8 28.15Q17.95 27.35 18.1 26.55L18 25.25L17.75 24.65Q17.5 24.05 17.6 23.15L18.3 23.5L18.45 23.6L18.5 24.15Q19.6 26.35 18.4 27.85Q17.4 29.1 16.5 29.4L16.1 29.45M22.35,31.7L22.1 31.4L22 31.35L21.6 31.05L21.35 30.7L21.2 30.5L20.25 30.4L19.85 30.6L19.7 30.65L19.3 30.95L19.25 30.8L19.3 30.65L19.25 30.45L19.2 30.4L19.25 30.4L19.5 30.2L19.9 29.9L21.2 29.85L22 30.65Q22.5 30.85 22.8 31.3L22.9 31.45L22.35 31.7M21.75,34.45L21.4 34.65L20.85 34.8L21.75 34.45M21.9,39.7L21.35 39.45L21.1 39.35L21.45 39.3L21.9 39.15L21.9 38.9L21.85 38.85L22.15 39L22.9 39.55L21.9 39.7M23.5,41.8L22.75 42.05L19.7 42.2L17.45 41.8Q16.85 41.5 17.25 40Q17.35 40.25 17.65 40L18 39.75L17.95 40Q17.95 40.85 18.15 41.05L19.35 41.35L21.15 41.45L23.5 41.8M16.8,38.05L15.75 38.15Q14.75 38.1 14 37.55L13.95 37.55L13.65 37.25L13.4 37L13.15 36.6L13 36.15L12.95 36L12.9 35.95L12.95 35.9L12.9 35.85L13 35.85L13.45 35.5L13.6 35.9L13.9 36.3L14.25 36.7L14.4 36.85L14.85 37.2L15.85 37.35L16.55 37.25L17.1 37.05L17.15 37L17.4 36.9L17.85 36.45L18 36.3L18 36.25L18.05 36.25L19.15 36L18.85 36.55L17.8 37.5L17.75 37.55L17.35 37.8L16.8 38.05M13.25,41.3Q13.05 40.75 12.5 40.3L12.9 39.8L13 39.95L13.75 40.9Q14 41.55 13.55 41.85L12.9 42.05L10.3 42.2L8.4 41.85Q7.85 41.55 8.25 40.05L8.4 39.75L8.75 39.6L9.2 39.65Q8.8 39.85 8.85 40.35Q8.85 41.05 9 41.25L10 41.5L11.55 41.55L11.85 41.55L11.9 41.55L12.05 41.5L13.25 41.3M10.2,36.3L10.1 36.5L9.7 36.65L8.8 35.9L9.15 35.4L10.2 36.3M7.05,32.6L7.15 34.05L6.95 33.8Q6.75 33.45 6.9 32.9L7.05 32.4L7.05 32.6M10.95,29.15L11.7 27.85Q12.35 26.5 13.35 26L15.1 24.9L15.75 24.55L15.75 24.85Q15.5 25.5 14.7 26L13.15 27.05Q12.35 27.6 12 28.55L11.85 28.95L10.95 29.15M15.55,32.85L15.45 32.85L15.5 32.7L15.55 32.65L15.55 32.6L15.6 32.5L15.65 32.25L16.05 32.15L16.05 32.25L16 32.75L16 32.8L15.55 32.85M11.85,35.1L12.1 35.45L11.7 35.25L11.85 35.1M8.9,29.85L9 29.95L9.1 30L8.6 30.4L8.55 30.45L8.45 30.3L8.4 30.2L8.25 29.8L8.1 29.45L8.35 29.5L8.8 29.4L8.9 29.85" />
<path style="fill:#302B4A;fill-opacity:1" d="M16.05,32.15L15.65 32.25L15.6 32.25L15.55 32.2L15.55 32.15L15.55 31.9L15.6 31.55Q15.5 31.25 14.9 31.15L14.7 31.15L13.95 30.35L14.15 30.35L14.2 30.35L14.3 30.35L14.85 30.4L15.05 30.4L15.5 30.45Q16.1 30.55 16.3 30.8L16.4 30.95L16.5 32.1L16.05 32.15M8.55,30.5L8.5 30.45L8.45 30.3L8.55 30.45L8.55 30.5" />
<path style="fill:#7B5FAD;fill-opacity:1" d="M16.4,30.95L16.3 30.8Q16.1 30.55 15.5 30.45L15.75 29.85Q16.2 29.7 17 30.1L18.2 30.6L18.65 30.95L18.65 31.5L18.7 31.65L18.65 31.75L18.25 31.5L17.2 31.1L17.35 31.45L17.35 31.5Q17 31.15 16.4 30.95M11.25,30L11.35 30.05L11.65 30.2L12.75 31.1L12.8 31.3L12.85 31.3L12.85 31.05L13 31.1L13.35 31.55L13.4 31.7L13.65 32.15Q13.65 31.95 13.8 31.95L14.3 32.8L14.45 33.1L14.15 33.65L13.65 33.2L13.15 32.75L12.9 32.5L12.5 32.15L12.5 32.95L12 32.35L11.55 31.8L11.55 32.35L10.8 31.65L10.45 31L10.35 30.85L10.25 30.65L10.05 30.3L10.2 30.25L10.95 29.9L11.25 30M17.75,37.55L17.8 37.5L18.85 36.55L19.15 36L19.25 35.45L19.3 35.4L19.45 35.6L19.65 35.8L19.85 35.25L20.05 35.9L20.1 36.15L20.4 37.05L20.95 38.45L20.95 38.5L20.05 38.3L20 38.35L19.75 38.15L19.3 37.65L19.15 38.15L19.1 38.2L18.95 38.2L18.65 37.95L18.35 37.45L18.25 37.45L18.25 38.05L17.75 37.55M11.85,38.4L12.15 38.25L13.4 37.75L13.35 37.9L13.2 38.25L12.45 39.35L12.35 39.5L12.05 40Q11.8 40.35 11.7 40.65L11.25 39.95L11.85 38.4" />
<path style="fill:#2D2946;fill-opacity:1" d="M19.25,30.45L19.3 30.65L19.25 30.8L19.3 30.95L19.25 31.4L19.15 31.95L19.15 32L18.95 33.05L18.5 33.2L18.4 32.95L18.55 32.4L18.65 31.95L18.65 31.75L18.7 31.65L18.65 31.5L18.65 30.95L18.2 30.6L17 30.1Q16.2 29.7 15.75 29.85L16.1 29.45L16.5 29.4Q17.85 29.75 19.1 30.4L19.2 30.4L19.25 30.45M17.35,37.8L17.75 39.1Q18.4 38.3 19.1 38.95L19.2 39.05L19.35 38.9L19.75 38.55L20 38.35L20.3 38.6L21.45 39.3L21.1 39.35L20.25 39.15L20.05 39L19.65 39.6Q19.45 40 18.45 39.35L18 39.75L17.65 40Q17.35 40.25 17.25 40L17.2 39.95L16.95 38.7L16.8 38.05L17.35 37.8M10.2,39.4L10.3 39.9L10.9 39.9L11.2 39.95L11.25 39.95L11.7 40.65Q11.8 40.35 12.05 40L12.35 39.5L12.45 39.35L13.2 38.25L13.35 37.9L13.4 37.75L13.95 37.55L14 37.55L12.9 39.8L12.5 40.3L12.4 40.4L12.1 41Q12 41.25 12.05 41.45L12.05 41.5L11.9 41.55L11.85 41.55L11.5 41.45L10.95 40.8L10.85 40.55L10.8 40.4L10.25 40.5Q9.85 40.65 9.65 39.65L9.2 39.65L8.75 39.6L9.95 39.15L10.2 39.4M9.05,32.15L8.3 31.35L8.2 31.25Q8.05 31.05 8.35 30.7L8.55 30.5L8.55 30.45L8.6 30.4L9.1 30L9.75 29.6L9.95 30.15L10.05 30.3Q9.4 30.6 9.2 30.9L9.1 31.1L9.15 31.25L10.3 32.4L10.6 32.65L11.65 33.6L12.3 34.25L13.05 34.75L13.6 34.35L13.85 34.1L14.15 33.65L14.6 33.95L14.7 34L14.55 34.25L13.9 35L13.45 35.5L13 35.85L12.9 35.85L12.55 35.55L11.55 34.55L11 34L10.8 33.8L9.95 33L9.05 32.15M10.75,36.25L11 36L11 36.05L11.05 36.15L10.75 36.25M10.2,36.3L10.25 36.25L10.5 36.35L10.1 36.5L10.2 36.3" />
<path style="fill:#423C5F;fill-opacity:1" d="M21.9,38.9L21.9 39.15L21.45 39.3L20.3 38.6L20 38.35L20.05 38.3L20.95 38.5L21 38.5L20.6 36.8L20.35 35.4L20.25 35.05L20.8 34.85Q21.35 36.3 21.35 37.7L21.6 38.45L21.85 38.85L21.9 38.9M13.95,30.35L14.7 31.15L15.5 32.15L15.55 32.2L15.6 32.25L15.65 32.25L15.6 32.5L15.55 32.6L15.55 32.65L15.5 32.7L15.45 32.85L15.1 33.4L14.7 34L14.6 33.95L14.15 33.65L14.45 33.1L14.7 32.5L14.35 31.9L14.15 31.65L13.7 31.1L13.3 30.65L12.95 30.3Q12.35 29.7 11.9 29.65L11.55 29.7L10.95 29.9L10.2 30.25L10.05 30.3L9.95 30.15L9.75 29.6L9.95 29.55L10.25 29.4L10.95 29.15L11.85 28.95L12.5 29.05L12.8 29.3L13.75 30.15L13.95 30.35" />
<path style="fill:#9B80CB;fill-opacity:1" d="M14.45,33.1L14.3 32.8L13.8 31.95Q13.65 31.95 13.65 32.15L13.4 31.7L13.35 31.55L13 31.1L12.85 31.05L12.85 31.3L12.8 31.3L12.75 31.1L11.65 30.2L11.35 30.05L11.25 30L10.95 29.9L11.55 29.7L11.9 29.65Q12.35 29.7 12.95 30.3L13.3 30.65L13.7 31.1L14.15 31.65L14.35 31.9L14.7 32.5L14.45 33.1" />
<path style="fill:#4E428C;fill-opacity:1" d="M18.2,32.7Q17.75 32.05 16.65 32.05L16.5 32.1L16.4 30.95Q17 31.15 17.35 31.5L17.35 31.45L17.2 31.1L18.25 31.5L18.65 31.75L18.65 31.95L18.55 32.4L18.4 32.95L18.2 32.7M13.85,34.1L13.6 34.35L13.05 34.75L12.3 34.25L11.65 33.6L10.6 32.65L10.3 32.4L9.15 31.25L9.1 31.1L9.2 30.9Q9.4 30.6 10.05 30.3L10.25 30.65L10.35 30.85L10.45 31L10.8 31.65L11.55 32.35L11.55 31.8L12 32.35L12.5 32.95L12.5 32.15L12.9 32.5L13.15 32.75L13.65 33.2L14.15 33.65L13.85 34.1M11.25,39.95L11.2 39.95L10.9 39.9L10.3 39.9L10.2 39.4L9.95 39.15L11.5 38.5L11.85 38.4L11.25 39.95M19.75,38.55L19.35 38.9L19.2 39.05L19.1 38.95Q18.4 38.3 17.75 39.1L17.35 37.8L17.75 37.55L18.25 38.05L18.25 37.45L18.35 37.45L18.65 37.95L18.95 38.2L19.1 38.2L19.15 38.15L19.3 37.65L19.75 38.15L20 38.35L19.75 38.55" />
<path style="fill:#634B8E;fill-opacity:1" d="M10.8,33.8L11 34L11.55 34.55L11.2 34.75L10.8 33.8M9.95,33L9.75 33.6L9.7 33.85Q9.25 33.85 8.85 34.3L8.55 33.45L8.3 32.3L8.3 32.25L8.25 31.7L8.25 31.6L8.3 31.35L9.05 32.15L9.95 33" />
<path style="fill:#3E3474;fill-opacity:1" d="M9.75,33.6L9.95 33L10.8 33.8L11.2 34.75L11.1 34.85L11.1 34.9L10.6 35.45Q10.15 35 9.95 33.85L9.7 33.85L9.75 33.6M8.2,31.25L8.3 31.35L8.25 31.6L8.25 31.7L8.3 32.25L8.3 32.3L8.55 33.45L8.85 34.3L8.5 34.75L8.2 35.35L8 34.2L7.95 32.45L8.05 31.65L8.1 31.1L8.2 30.65L8.35 30.7Q8.05 31.05 8.2 31.25" />
<path style="fill:#997DC9;fill-opacity:1" d="M20.35,35.4L20.6 36.8L21 38.5L20.95 38.5L20.95 38.45L20.4 37.05L20.1 36.15L20.05 35.9L19.85 35.25L19.65 35.8L19.45 35.6L19.3 35.4L20.25 35.05L20.35 35.4" />
<path style="fill:#4E4138;fill-opacity:1" d="M26.15,32.6L26.25 31.95L26.5 31.45L26.7 31.2L26.05 31L25.4 30.5L25.2 29.9L25.2 28.45Q25.2 28 25.5 27.9L26.1 27.8L26 27.95Q25.85 28.25 26.4 28.55L26.6 28.7Q26.3 28.8 26.3 29.05Q26.25 29.45 26.35 29.85L26.35 30L26.4 30.1L27.45 30.5L27.65 30.55L28.45 30.7L28 31.25L27.2 32.35Q27.05 32.75 27.25 32.95L28.1 33.3Q28.15 33.95 28.7 34.1L28 34.45L26.7 33.75Q26.35 33.45 26.2 32.75L26.15 32.6M27.75,27.5L28.85 27.4L28.75 27.85L28.75 27.95L27.85 27.55L27.75 27.5M32.2,30.95L32.9 30.5L33.05 30.4L34.3 29.3L35.8 27.85Q33.9 27.65 32.05 27.8L30.9 27.95L30.7 28L30.55 27.2L35 27Q36.9 27.1 36.9 27.45L36.15 28.55L33.3 31.05L32.6 31.6L32.2 30.95M31.25,32.55L29.85 33.4L29.9 33L29.95 32.45L30.45 32.1Q30.6 32 30.85 31.85L31.25 32.55" />
<path style="fill:#B6A998;fill-opacity:1" d="M30.65,29.05L30.7 28L30.9 27.95L33.7 28.4L33.6 28.75L34 28.7Q34.35 28.8 34.35 28.85L34.3 29.3L33.05 30.4L32.9 30.5L32.75 30.55L32.15 30.85L30.65 29.05M30.6,31.5L30.05 31.7L30.05 31.75L30.1 30.9L30.6 31.5" />
<path style="fill:#837462;fill-opacity:1" d="M32.2,30.95L32.15 30.85L32.75 30.55L32.9 30.5L32.2 30.95M30.05,31.75L30.05 31.7L30.6 31.5L30.85 31.85Q30.6 32 30.45 32.1L29.95 32.45L30.05 31.75M27.25,32.95Q27.05 32.75 27.2 32.35L28 31.25L28.45 30.7L27.65 30.55L27.45 30.5L26.4 30.1L26.35 30L26.35 29.85Q26.25 29.45 26.3 29.05Q26.3 28.8 26.6 28.7L28.7 29.9L28.65 30.35L28.2 32.8L28.1 32.9L28.1 33.3L27.25 32.95" />
<path style="fill:#F5F3EE;fill-opacity:1" d="M34.3,29.3L34.35 28.85Q34.35 28.8 34 28.7L33.6 28.75L33.7 28.4L30.9 27.95L32.05 27.8Q33.9 27.65 35.8 27.85L34.3 29.3" />
</g>
</svg>
