<?xml version="1.0" encoding="utf-8"?>
<svg version="1.1" id="Layer_1"
xmlns="http://www.w3.org/2000/svg"
xmlns:xlink="http://www.w3.org/1999/xlink"
xmlns:author="http://www.sothink.com"
width="7px" height="9px"
xml:space="preserve">
<g id="398" transform="matrix(1, 0, 0, 1, 0, 0)">
<path style="fill:#645D4C;fill-opacity:1" d="M3.5,7.2Q2.7 5.95 3.1 5L4.7 4.65L6.15 4.55L5.9 6.05L4.95 7L3.75 7.2L3.5 7.2" />
<path style="fill:#38382E;fill-opacity:1" d="M4.7,4.65L3.1 5Q2.7 5.95 3.5 7.2Q1.85 7.2 1.3 5.45L1.05 4.5Q0.7 3.2 0.9 2.3Q1.1 1.1 2.25 0.85L4.3 1L4.35 1.05Q5.2 1.45 5.75 3.25L6.15 4.55L4.7 4.65" />
<path style="fill:#202017;fill-opacity:1" d="M3.75,7.2L4.95 7L5.9 6.05L6.15 4.55L5.75 3.25Q5.2 1.45 4.35 1.05L4.3 1L2.25 0.85Q1.1 1.1 0.9 2.3Q0.7 3.2 1.05 4.5L1.3 5.45Q1.85 7.2 3.5 7.2L3.75 7.2M6.9,5.9Q6.85 6.5 6.2 7.15Q5.55 7.75 4.3 8.05L4.1 8.1Q2.95 8.3 1.9 7.7Q0.75 7 0.35 5.1Q-0.1 3.15 0.05 2.35Q0.2 1.5 0.8 0.95Q1.35 0.35 2.45 0.1Q3.2 -0.1 4 0.1L4.8 0.4Q6 1 6.5 3.15L6.6 3.55L6.9 5.9" />
</g>
</svg>
