<?xml version="1.0" encoding="utf-8"?>
<svg version="1.1" id="Layer_1"
xmlns="http://www.w3.org/2000/svg"
xmlns:xlink="http://www.w3.org/1999/xlink"
xmlns:author="http://www.sothink.com"
width="118px" height="39px"
xml:space="preserve">
<g id="434" transform="matrix(1, 0, 0, 1, -10.55, 16.95)">
<linearGradient
id="LinearGradID_570" gradientUnits="userSpaceOnUse" gradientTransform="matrix(0, 0.00823975, -0.00872803, 0, 17.7, -6.75)" spreadMethod ="pad" x1="-819.2" y1="0" x2="819.2" y2="0" >
<stop  offset="0" style="stop-color:#FFF980;stop-opacity:1" />
<stop  offset="1" style="stop-color:#E7950A;stop-opacity:1" />
</linearGradient>
<path style="fill:url(#LinearGradID_570) " d="M12.2,-13.45Q12.6 -13.1 13.1 -12.9Q13.75 -12.65 14.25 -13.1Q14.75 -13.55 14.7 -14.25L14.5 -14.8L14.3 -14.95L12.75 -15.1Q12.1 -15.05 12.1 -14.35L12.2 -13.45M13.3,-16.95Q14.45 -16.95 15.25 -16.15Q16.05 -15.45 16.05 -13.85L16.05 -2.35L22.1 -2.35Q23.4 -2.35 24.1 -1.7Q24.85 -1 24.85 0.1Q24.85 1.15 24.1 1.85Q23.4 2.5 22.1 2.5L13.7 2.5Q12.05 2.5 11.35 1.7Q10.55 1 10.55 -0.65L10.55 -13.85Q10.55 -15.35 11.3 -16.1Q12 -16.95 13.3 -16.95" />
<path style="fill:#FFFFFF;fill-opacity:1" d="M12.1,-14.35Q12.1 -15.05 12.75 -15.1L14.3 -14.95L14.5 -14.8L14.7 -14.25Q14.75 -13.55 14.25 -13.1Q13.75 -12.65 13.1 -12.9Q12.6 -13.1 12.2 -13.45L12.1 -14.35" />
<linearGradient
id="LinearGradID_571" gradientUnits="userSpaceOnUse" gradientTransform="matrix(0, 0.00823975, -0.00872803, 0, 17.7, 1.3)" spreadMethod ="pad" x1="-819.2" y1="0" x2="819.2" y2="0" >
<stop  offset="0" style="stop-color:#FFF980;stop-opacity:1" />
<stop  offset="1" style="stop-color:#E7950A;stop-opacity:1" />
</linearGradient>
<path style="fill:url(#LinearGradID_571) " d="M27.75,-7.25L26.9 -6.7L26.9 -6.35Q27 -5.4 27.75 -5.05L28 -5.15Q30.25 -6.6 28 -7.3L27.75 -7.25M26.6,-8.25L26.7 -8.3L28.25 -8.65L37.45 -8.65Q38.75 -8.65 39.35 -8L39.4 -7.95Q39.7 -7.7 39.85 -6.6Q39.75 -4.95 39.4 -4.6L39.35 -4.55Q38.75 -3.95 37.45 -3.95L30.6 -3.95L30.6 -1.75L36.8 -1.75Q38.05 -1.75 38.65 -1.1L38.7 -1.05Q39.4 -0.4 39.4 0.55Q39.4 1.55 38.7 2.25Q38.15 2.9 36.8 2.9L30.6 2.9L30.6 5.8L37.7 5.8Q39 5.8 39.6 6.4L39.65 6.45L40.1 7.05L40.35 8.2L40.1 9.3L39.65 9.9L39.6 9.95Q39 10.55 37.7 10.55L28.25 10.55Q26.55 10.55 25.9 9.75L25.95 9.75Q25.15 9.05 25.15 7.4L25.15 -5.5Q25.15 -6.5 25.45 -7.1L25.45 -7.05Q25.75 -7.9 26.6 -8.25M36.5,-7.1Q35.85 -4.75 38.7 -5.25L38.8 -5.45L39.1 -6.2L39.15 -6.55L39 -6.75Q38 -7.5 36.75 -7.3L36.5 -7.1" />
<path style="fill:#FFFFFF;fill-opacity:1" d="M28,-7.3Q30.25 -6.6 28 -5.15L27.75 -5.05Q27 -5.4 26.9 -6.35L26.9 -6.7L27.75 -7.25L28 -7.3M36.75,-7.3Q38 -7.5 39 -6.75L39.15 -6.55L39.1 -6.2L38.8 -5.45L38.7 -5.25Q35.85 -4.75 36.5 -7.1L36.75 -7.3" />
<linearGradient
id="LinearGradID_572" gradientUnits="userSpaceOnUse" gradientTransform="matrix(0, 0.00823975, -0.00872803, 0, 18.5, 7)" spreadMethod ="pad" x1="-819.2" y1="0" x2="819.2" y2="0" >
<stop  offset="0" style="stop-color:#FFF980;stop-opacity:1" />
<stop  offset="1" style="stop-color:#E7950A;stop-opacity:1" />
</linearGradient>
<path style="fill:url(#LinearGradID_572) " d="M45.55,-2.15L46.4 -0.2L46.4 -0.25L49.35 8.45L52.3 -0.3L52.8 -1.7Q53 -2.25 53.55 -2.7L53.65 -2.75Q54.15 -3.2 55.2 -3.2L56.45 -2.9L56.5 -2.85L57.5 -1.9L57.5 -1.85L57.8 -0.65L57.75 0.1L57.55 0.85L57.45 1.05L57.3 1.4L53.15 12.65L53.15 12.6L52.7 13.95L52.7 13.9L52.1 15.1L51 16.1L49.3 16.55Q48.2 16.55 47.55 16.1Q46.85 15.7 46.5 15.1L45.85 13.85L45.4 12.6L45.4 12.65L41.3 1.5L41.15 0.95L40.9 0.15Q40.6 -0.65 40.9 -1.4L41.55 -2.45L41.6 -2.5Q42.35 -3.2 43.45 -3.2Q45 -3.2 45.55 -2.15M44.6,-0.3Q44.9 -2.4 42.55 -2.35Q42.05 -2.35 41.8 -1.8Q41.4 -0.95 41.95 -0.25L44.55 -0.1L44.6 -0.3M54.1,-0.85L54.25 0.05L54.45 0.2L57.1 0L57.15 -0.2Q57.05 -2.15 54.8 -1.85Q54.05 -1.75 54.1 -0.85" />
<path style="fill:#FFFFFF;fill-opacity:1" d="M44.55,-0.1L41.95 -0.25Q41.4 -0.95 41.8 -1.8Q42.05 -2.35 42.55 -2.35Q44.9 -2.4 44.6 -0.3L44.55 -0.1M54.8,-1.85Q57.05 -2.15 57.15 -0.2L57.1 0L54.45 0.2L54.25 0.05L54.1 -0.85Q54.05 -1.75 54.8 -1.85" />
<linearGradient
id="LinearGradID_573" gradientUnits="userSpaceOnUse" gradientTransform="matrix(0, 0.00823975, -0.00872803, 0, 18.5, 12.25)" spreadMethod ="pad" x1="-819.2" y1="0" x2="819.2" y2="0" >
<stop  offset="0" style="stop-color:#FFF980;stop-opacity:1" />
<stop  offset="1" style="stop-color:#E7950A;stop-opacity:1" />
</linearGradient>
<path style="fill:url(#LinearGradID_573) " d="M72,9.9Q72.7 10.55 72.7 11.5Q72.7 12.5 72 13.2Q71.45 13.85 70.1 13.85L63.9 13.85L63.9 16.75L71 16.75Q72.3 16.75 72.9 17.35L72.95 17.4Q73.65 18.05 73.65 19.15Q73.65 20.15 72.95 20.85L72.9 20.9Q72.3 21.5 71 21.5L61.55 21.5Q59.85 21.5 59.2 20.7L59.25 20.7Q58.45 20 58.45 18.35L58.45 5.45Q58.45 4.45 58.75 3.85L58.75 3.9Q59.05 3.05 59.9 2.7L60 2.65Q60.6 2.3 61.55 2.3L70.75 2.3Q72.05 2.3 72.65 2.95L72.7 3Q73.4 3.6 73.4 4.65Q73.4 5.65 72.7 6.35L72.65 6.4Q72.05 7 70.75 7L63.9 7L63.9 9.2L70.1 9.2Q71.35 9.2 71.95 9.85L72 9.9M72.9,4.75Q72.65 3.6 71.3 3.4Q69.3 5.9 72.95 4.95L72.9 4.75M62.7,5.15Q62.85 3.55 61.05 3.9Q60.5 4 60.3 4.65L60.2 5.4Q61.55 6.7 62.7 5.3L62.7 5.15" />
<path style="fill:#FFFFFF;fill-opacity:1" d="M72.95,4.95Q69.3 5.9 71.3 3.4Q72.65 3.6 72.9 4.75L72.95 4.95M62.7,5.3Q61.55 6.7 60.2 5.4L60.3 4.65Q60.5 4 61.05 3.9Q62.85 3.55 62.7 5.15L62.7 5.3" />
<linearGradient
id="LinearGradID_574" gradientUnits="userSpaceOnUse" gradientTransform="matrix(0, 0.00823975, -0.00872803, 0, 18.5, 12.25)" spreadMethod ="pad" x1="-819.2" y1="0" x2="819.2" y2="0" >
<stop  offset="0" style="stop-color:#FFF980;stop-opacity:1" />
<stop  offset="1" style="stop-color:#E7950A;stop-opacity:1" />
</linearGradient>
<path style="fill:url(#LinearGradID_574) " d="M87.9,20.85Q87.2 21.5 85.9 21.5L77.5 21.5Q75.85 21.5 75.15 20.7Q74.35 20 74.35 18.35L74.35 5.15Q74.35 3.65 75.1 2.9Q75.8 2.05 77.1 2.05Q78.25 2.05 79.05 2.85Q79.85 3.55 79.85 5.15L79.85 16.65L85.9 16.65Q87.2 16.65 87.9 17.3Q88.65 18 88.65 19.1Q88.65 20.15 87.9 20.85M76.55,3.9Q76 3.9 76.2 4.4Q77.1 6.6 78.95 4.75L78.85 4.55Q78.15 3.4 76.55 3.9" />
<path style="fill:#FFFFFF;fill-opacity:1" d="M78.85,4.55L78.95 4.75Q77.1 6.6 76.2 4.4Q76 3.9 76.55 3.9Q78.15 3.4 78.85 4.55" />
<linearGradient
id="LinearGradID_575" gradientUnits="userSpaceOnUse" gradientTransform="matrix(0, 0.00823975, -0.00872803, 0, 18.5, 12.25)" spreadMethod ="pad" x1="-819.2" y1="0" x2="819.2" y2="0" >
<stop  offset="0" style="stop-color:#FFF980;stop-opacity:1" />
<stop  offset="1" style="stop-color:#E7950A;stop-opacity:1" />
</linearGradient>
<path style="fill:url(#LinearGradID_575) " d="M110.65,2.9Q111.4 3.6 111.4 5.15L111.4 13.4Q111.4 15.55 110.95 17.05Q110.5 18.65 109.2 19.9Q108.1 20.9 106.65 21.35L103.45 21.8L99.75 21.3L99.8 21.35Q98.05 20.85 97 19.75Q95.95 18.7 95.4 17.05Q94.95 15.5 94.95 13.4L94.95 5.15Q94.95 3.65 95.7 2.9Q96.45 2.05 97.65 2.05Q99 2.05 99.7 2.9Q100.45 3.65 100.45 5.15L100.45 13.6Q100.45 14.85 100.7 15.7Q100.9 16.3 101.45 16.65L101.5 16.7L103.2 17.05Q104.65 17.05 105.25 16.35Q105.9 15.45 105.9 13.65L105.9 5.15Q105.9 3.6 106.65 2.9L106.7 2.85Q107.4 2.05 108.65 2.05Q109.9 2.05 110.6 2.85L110.65 2.9M107.7,4.65Q108.55 6.8 110.85 5.5L110.9 5.3Q110.85 3.5 108.8 3.65L108.05 3.95Q107.6 4.15 107.7 4.65M98.05,3.4Q96.15 3.4 96.2 5.15L98.5 5.2L98.6 5Q98.95 3.9 98.05 3.4" />
<path style="fill:#FFFFFF;fill-opacity:1" d="M108.05,3.95L108.8 3.65Q110.85 3.5 110.9 5.3L110.85 5.5Q108.55 6.8 107.7 4.65Q107.6 4.15 108.05 3.95M98.6,5L98.5 5.2L96.2 5.15Q96.15 3.4 98.05 3.4Q98.95 3.9 98.6 5" />
<linearGradient
id="LinearGradID_576" gradientUnits="userSpaceOnUse" gradientTransform="matrix(0, 0.00823975, -0.00872803, 0, 18.5, 12.25)" spreadMethod ="pad" x1="-819.2" y1="0" x2="819.2" y2="0" >
<stop  offset="0" style="stop-color:#FFF980;stop-opacity:1" />
<stop  offset="1" style="stop-color:#E7950A;stop-opacity:1" />
</linearGradient>
<path style="fill:url(#LinearGradID_576) " d="M127.85,5.9Q128.3 7.05 128.3 8.5Q128.3 11.6 126.3 13.25Q124.5 14.8 120.85 14.8L118.65 14.8L118.65 18.65Q118.65 20.15 117.9 20.95Q117.1 21.8 115.9 21.8Q114.7 21.8 113.9 20.95Q113.2 20.2 113.2 18.7L113.2 5.45Q113.2 3.8 114 3.1L114.05 3.05Q114.8 2.3 116.4 2.3L120.85 2.3L124.15 2.7Q125.4 3 126.35 3.85L126.4 3.9Q127.35 4.7 127.85 5.85L127.85 5.9M124,4.4Q123.65 7.1 126.55 6.3L126.6 6.1Q126.7 3.85 124.3 4.15Q124.05 4.15 124 4.4M122.5,9.5L122.75 8.55Q122.75 7.85 122.4 7.4Q121.75 6.95 120 6.95L118.65 6.95L118.65 10.2L120 10.2L121.75 10L122.5 9.5M116.55,4.15Q114.65 4.1 114.95 5.9L117.25 5.95L117.35 5.75Q117.8 4.4 116.55 4.15" />
<path style="fill:#FFFFFF;fill-opacity:1" d="M124.3,4.15Q126.7 3.85 126.6 6.1L126.55 6.3Q123.65 7.1 124 4.4Q124.05 4.15 124.3 4.15M117.35,5.75L117.25 5.95L114.95 5.9Q114.65 4.1 116.55 4.15Q117.8 4.4 117.35 5.75" />
</g>
</svg>
