<?xml version="1.0" encoding="utf-8"?>
<svg version="1.1" id="Layer_1"
xmlns="http://www.w3.org/2000/svg"
xmlns:xlink="http://www.w3.org/1999/xlink"
xmlns:author="http://www.sothink.com"
width="55px" height="14px"
xml:space="preserve">
<g id="732" transform="matrix(1, 0, 0, 1, 0, 0)">
<path style="fill:#FEE3B0;fill-opacity:1" d="M53.5,0.3L54 0.35L54.05 1.65L54 2.95L52.45 3.15L50.85 3.15L49.25 3.15L49.2 3.15L49.2 3.2L49.15 4.25L49.2 5.3L49.25 5.3L50.35 5.35L51.45 5.4L51.5 6.65L51.5 7.9L50.65 8L49.8 8L49.3 8.1Q49.2 8.65 49.25 9.3L49.3 10.4L51.65 10.45L54.05 10.5L54.05 10.55L54.1 11.75L53.95 12.9L50.15 12.95L46.5 12.85L46.4 6.65L46.5 0.45L48.35 0.4L50.35 0.35L52.2 0.3L53.5 0.3M44.15,1.75L44.8 3.05L45.25 4.45L45.35 5L45.4 5.55L45.35 7.3L45.15 9L44.15 11.05L42.85 12.85L40.4 12.9L38.05 12.9L38.05 12.95L37.75 8.95L37.75 4.75L37.75 0.5L37.8 0.5L37.8 0.45L39.25 0.25L40.75 0.25L42.2 0.25L43.3 0.85L44.15 1.8L44.15 1.75M42.75,5.3L42.4 4.6L41.75 4.15L41.1 4.1L40.4 4.15L40.35 4.15L40.35 4.25L40.35 6.45L40.35 8.9L40.95 9.1L41.6 9.05L41.75 9L41.95 8.9L42.25 8.65L42.5 8.35L42.95 7.3L42.95 6.1L42.75 5.3M36.2,2.25L36.35 2.75L36.5 3.35L36.5 4.25L36.5 5.15L36.5 7L36.45 8.85L36.35 9.45L36.15 10.75L35.7 11.9L34.85 12.6L33.8 13L32.8 13.2L31.75 13.2L30.35 12.9Q29.7 12.6 29.35 11.9L29 10.95L28.9 9.9L28.8 7.05Q28.75 5.65 28.85 4.2L29.05 2.6Q29.25 1.75 29.8 1.1L30 0.95L30.2 0.8Q31 0.4 31.95 0.3L33.8 0.4Q34.75 0.6 35.45 1.1L35.9 1.65L36.2 2.25M30.75,5.8L30.75 7.3L30.9 8.6L31.1 9.85Q31.35 10.35 31.85 10.55L32.9 10.65L33.85 10.1L34.15 9.65L34.2 9.2L34.2 8.45L34.25 7.8L34.25 7.5L34.2 5.25L34.15 4.85L34.15 4.4L33.85 3.45L33.2 2.85L32.45 2.8Q32.1 2.85 31.8 3.1L31.25 3.65L30.95 4.35L30.75 5.8M27.65,0.3L27.65 3.75L27.65 7.2L27.6 12.95L26.75 12.9L25.9 12.95L25.2 12.95L25.15 10.65L25.1 8.15L24.95 5.9L24.65 6.55L24.3 7.4L24 8.2L23.8 8.55L23.45 8.15L23.1 7.25L22.8 6.4L22.7 6.05Q22.55 7.75 22.55 9.45L22.75 12.9L21.45 12.95L20.2 12.95L20.15 12.9L20.1 12.45L20.1 11.25L20.05 9.05L20.1 5.55L20.1 0.55L21.3 0.4L22.6 0.45L23.05 1.25L23.4 2.3L23.8 3.15L23.9 3.25L24.05 2.9L24.35 2.05L24.65 1.1L25 0.4L25.65 0.4L26.7 0.35L27.65 0.3M14.4,2Q14.95 2.85 15.05 4.05L15.05 4.3L15.05 4.55Q14.85 5.7 14.1 6.6Q13.4 7.5 12.3 7.9L10.1 8.2L10.1 8.7L10.1 9.4L10.1 10.65L10.15 12.75L10.1 12.75L9.2 12.9L8.05 12.9L7.05 12.85L7 8.95L7 4.6L6.95 0.35L8.9 0.05L11.05 0.15Q12.05 0.3 12.95 0.75Q13.85 1.2 14.4 2M12.35,3.8L11.85 3.3Q11.4 2.9 10.8 2.85Q10.25 2.7 9.65 2.85L9.6 2.9L9.6 4.3Q9.6 5.05 9.75 5.6L9.8 5.6L10.65 5.6L11.5 5.45L12.2 5.1L12.45 4.45L12.35 3.8M5.85,3.15L5.75 7.25L5.65 11.35L5.65 12L5.65 12.6L5.45 12.85L5.05 12.95L4.55 12.95L3.65 12.9L2.8 12.85L2.8 11.05L2.9 7.55L3 4.1L3 3.9L3 3.75L2.75 4L2.55 4.5L2.2 4.75L1.75 4.7L1 4.5L0.3 4.3L0 4.1L0.35 3.15L1.1 1.8L1.8 0.6L2.2 0.05L3 0L3.85 0L4.8 0.05L5.75 0.1L5.85 1.6L5.85 3.15" />
</g>
</svg>
