<?xml version="1.0" encoding="utf-8"?>
<svg version="1.1" id="Layer_1"
xmlns="http://www.w3.org/2000/svg"
xmlns:xlink="http://www.w3.org/1999/xlink"
xmlns:author="http://www.sothink.com"
width="36px" height="41px"
xml:space="preserve">
<g id="509" transform="matrix(1, 0, 0, 1, -3.45, -2.55)">
<path style="fill:#EEEEEE;fill-opacity:1" d="M35.15,4.05L35.9 4.95Q37.25 7.5 37.6 10.6L37.65 12.8L37.6 13.75L37.55 13.75L36.35 13.5Q36.5 11.15 36.2 8.85L35.7 5.15L35.2 4.15L35.05 4L35.1 4L35.15 4.05M31.25,30.35L30.45 30.2Q32 28.05 33.15 25.7L33.75 25.75L33.8 25.75L34.25 25.75L31.95 30.4L31.25 30.35M12.1,18.55Q13.7 16.15 15 14.6L15 14.55L15.45 15.25L13.65 17.85L12.55 19.45L11.95 18.75L12.1 18.55M24.8,5.85L25.85 5.3Q27.15 4.7 28.4 4.35Q31.65 3.4 34.5 3.7L32.25 3.95L28.75 4.9Q27 5.5 25.3 6.45L24.8 5.85" />
<path style="fill:#FFFDA3;fill-opacity:1" d="M10.95,19.95L11.3 19.65L11 20L10.95 19.95" />
<path style="fill:#7B370D;fill-opacity:1" d="M8.3,27.65L8.45 27.8L8.4 27.8L8.3 27.65" />
<path style="fill:#274F72;fill-opacity:1" d="M32.8,25.6L31 25.3Q34.65 19.7 35.45 13.3L36.35 13.5L36.05 16.05L35.5 19.3Q34.65 22.6 33.15 25.7L32.8 25.6M25.4,37.6L25.35 37.55L24.05 37.1L23.85 37L20.55 35.65L20.6 35.6L25.25 31.85L27.9 29.4L30.45 30.2L30.05 30.85Q28.7 30.7 27.45 32.05L27 32.6L26.45 33.4L26.2 33.95L25.1 36.1L25.1 36.2L25 36.35L25.9 36.9L25.4 37.6" />
<path style="fill:#3C658A;fill-opacity:1" d="M33.8,25.75L33.75 25.75L33.15 25.7Q34.65 22.6 35.5 19.3L36.05 16.05L36.35 13.5L37.55 13.75L37.6 13.75L37.4 15.8Q36.8 20.1 34.55 25.1L34.35 25.65L34.25 25.75L33.8 25.75M30.2,30.8L30.05 30.85L30.45 30.2L31.25 30.35L31.95 30.4L31.3 31.55L30.2 30.8M25.9,36.9L27.25 37.8L27.2 37.9L26.45 37.8L25.4 37.6L25.9 36.9" />
<path style="fill:#6595C2;fill-opacity:1" d="M8.45,27.8L8.3 27.65L8.4 27.8L8.05 27.5L7.7 27.15L7 26.5L6.95 26.35L8.05 24.6L8.1 24.5L8.4 23.9L8.5 23.8L9.05 22.85L10.1 21.25Q10.4 20.75 10.85 20.2L11 20L11.3 19.65L11.9 18.75L11.95 18.7L12.1 18.55L11.95 18.75L12.55 19.45L14 20.75Q10.95 24.9 9.3 28.5L9.15 28.35L8.7 28.05L8.45 27.8M15,14.55Q17.5 11.6 19.9 9.55Q22.05 7.55 24.8 5.85L25.3 6.45L26.9 8.15Q25.25 9.25 23.3 10.75Q20.1 13.1 16.9 16.9L15.45 15.25L15 14.55" />
<path style="fill:#E58919;fill-opacity:1" d="M26.45,37.8L26.1 38.45L23.05 37.95L22.65 37.85L19.15 36.6L16.15 35L15.2 34.5Q11.15 31.9 8.85 29.55L7.65 28.3L7.25 27.8L7.5 27.35L7.7 27.15L8.05 27.5L8.4 27.8L8.45 27.8L8.7 28.05L9.15 28.35L9.3 28.5L11.35 30.1L14.35 32.3L15.3 32.9L20.35 35.55L20.55 35.65L23.85 37L24.05 37.1L25.35 37.55L25.4 37.6L26.45 37.8M9,22.85L8.45 23.75L8.35 23.85Q7.15 22.75 5.15 22Q6.2 20.9 8.55 21.05L10.05 21.25L9 22.85M33.25,35.3L33.6 35.55L33.6 36.15L33.45 37.25L32.7 38.7L31.15 40.7L30.75 40.15L29.3 38.45L27 36.6L26.25 36.15L29 36.6L31.5 36.35Q32.75 35.95 33.15 35.25L33.25 35.3" />
<path style="fill:#FFBC35;fill-opacity:1" d="M34.35,36.6L34.2 37.45L34.1 37.6L34 37.85L33.5 39.3L32.7 40.7L31.55 42.15L31.1 41.65L30.6 41.1L29.35 39.75L28.05 38.6L27.25 37.8L25.9 36.9L25 36.35L25.1 36.2L25.1 36.1L26.2 33.95L26.45 33.4L27 32.6L27.3 32.55Q29.35 32.7 33.15 35.25Q32.75 35.95 31.5 36.35L29 36.6L26.25 36.15L27 36.6L29.3 38.45L30.75 40.15L31.15 40.7L32.7 38.7L33.45 37.25L33.6 36.15L33.6 35.55L34 35.85L34.35 36.6M7.65,28.3L8.85 29.55Q11.15 31.9 15.2 34.5L16.15 35L19.15 36.6L22.65 37.85L23.05 37.95L26.1 38.45L26 38.6L25.45 39.6Q22 38.85 18.7 37.35L17.95 37L13.9 34.75L10.85 32.55L8.45 30.5L6.6 28.5L7.25 27.8L7.65 28.3M8.1,24.5L8.05 24.6L4.65 22.05L4.7 21.95L4.75 21.85Q5.3 21 6.15 20.3Q7.9 19 9.75 19.45L10.95 19.95L10.8 20.2L10.05 21.25L8.55 21.05Q6.2 20.9 5.15 22Q7.15 22.75 8.35 23.85L8.1 24.5" />
<path style="fill:#FFEA4F;fill-opacity:1" d="M27.45,32.05Q28.7 30.7 30.05 30.85L30.2 30.8L31.3 31.55L31.8 32.05L32.6 32.7L34.05 34.25L34.2 34.35Q34.5 34.85 34.4 36.1L34.35 36.6L34 35.85L33.6 35.55L33.25 35.3L33.15 35.25Q29.35 32.7 27.3 32.55L27 32.6L27.45 32.05M10.95,19.95L9.75 19.45Q7.9 19 6.15 20.3Q5.3 21 4.75 21.85L4.7 21.95L4.45 21.8L4.5 21.75Q7.05 17.5 9.65 18.65L10.2 18.95L11.3 19.65L10.95 19.95" />
<path style="fill:#ECECEC;fill-opacity:1" d="M25.3,6.45Q27 5.5 28.75 4.9L32.25 3.95L34.5 3.7L34.9 3.75L35 3.8L35.1 3.8L35.15 3.9L35.15 3.95L35.1 4L35.05 4L34.6 4.15L31.4 5.4Q29.75 6.1 26.9 8.15L25.3 6.45M12.55,19.45L13.65 17.85L15.45 15.25L16.9 16.9L14.15 20.4L14 20.75L12.55 19.45" />
<path style="fill:#828584;fill-opacity:1" d="M35.15,3.9L35.1 3.8L35.2 3.85L35.25 3.9L35.15 3.9M35.45,13.3L35.7 10.25Q35.7 7.3 35.2 4.15L35.7 5.15L36.2 8.85Q36.5 11.15 36.35 13.5L35.45 13.3M27.9,29.4L31 25.3L32.8 25.6L33.15 25.7Q32 28.05 30.45 30.2L27.9 29.4" />
<linearGradient
id="LinearGradID_667" gradientUnits="userSpaceOnUse" gradientTransform="matrix(-0.00386047, -0.00263977, 0.00138855, -0.0020752, 31.75, 9.35)" spreadMethod ="pad" x1="-819.2" y1="0" x2="819.2" y2="0" >
<stop  offset="0.00784314" style="stop-color:#A8ACAB;stop-opacity:1" />
<stop  offset="0.494118" style="stop-color:#EEEEEE;stop-opacity:1" />
<stop  offset="1" style="stop-color:#A8ACAB;stop-opacity:1" />
</linearGradient>
<path style="fill:url(#LinearGradID_667) " d="M35.1,4L35.15 3.95L35.15 4.05L35.1 4M35.7,10.25L35.45 13.3Q30.65 11.85 26.9 8.15Q29.75 6.1 31.4 5.4L34.6 4.15L35.05 4L35.2 4.15Q35.7 7.3 35.7 10.25" />
<linearGradient
id="LinearGradID_668" gradientUnits="userSpaceOnUse" gradientTransform="matrix(0.00752258, 0.00505066, -0.00323486, 0.00473022, 28.25, 13.65)" spreadMethod ="pad" x1="-819.2" y1="0" x2="819.2" y2="0" >
<stop  offset="0" style="stop-color:#3C658A;stop-opacity:1" />
<stop  offset="0.486275" style="stop-color:#6595C2;stop-opacity:1" />
<stop  offset="1" style="stop-color:#3C658A;stop-opacity:1" />
</linearGradient>
<path style="fill:url(#LinearGradID_668) " d="M31,25.3L30.75 25.25L27.6 24.25Q25.95 23.6 23.5 22.2Q21.05 20.75 18.7 18.55L16.9 16.9Q20.1 13.1 23.3 10.75Q25.25 9.25 26.9 8.15Q30.65 11.85 35.45 13.3Q34.65 19.7 31 25.3M25.25,31.85L20.6 35.6L20.55 35.65L20.35 35.55L15.3 32.9L14.35 32.3L11.35 30.1L9.3 28.5Q10.95 24.9 14 20.75Q19.5 25.8 23.9 27.65L27.9 29.4L25.25 31.85" />
<linearGradient
id="LinearGradID_669" gradientUnits="userSpaceOnUse" gradientTransform="matrix(-0.00669861, -0.00410461, 0.0019989, -0.00328064, 21.25, 22.55)" spreadMethod ="pad" x1="-819.2" y1="0" x2="819.2" y2="0" >
<stop  offset="0.00784314" style="stop-color:#A8ACAB;stop-opacity:1" />
<stop  offset="0.494118" style="stop-color:#EEEEEE;stop-opacity:1" />
<stop  offset="1" style="stop-color:#A8ACAB;stop-opacity:1" />
</linearGradient>
<path style="fill:url(#LinearGradID_669) " d="M27.9,29.4L23.9 27.65Q19.5 25.8 14 20.75L14.15 20.4L16.9 16.9L18.7 18.55Q21.05 20.75 23.5 22.2Q25.95 23.6 27.6 24.25L30.75 25.25L31 25.3L27.9 29.4" />
<linearGradient
id="LinearGradID_670" gradientUnits="userSpaceOnUse" gradientTransform="matrix(0.00146484, -0.00177002, 0.00205994, 0.00175476, 32.75, 35.95)" spreadMethod ="pad" x1="-819.2" y1="0" x2="819.2" y2="0" >
<stop  offset="0.00392157" style="stop-color:#E78130;stop-opacity:1" />
<stop  offset="1" style="stop-color:#FAE449;stop-opacity:1" />
</linearGradient>
<path style="fill:url(#LinearGradID_670) " d="M11,20L10.85 20.2Q10.4 20.75 10.1 21.25L9.05 22.85L8.5 23.8L8.4 23.9L8.1 24.5L8.35 23.85L8.45 23.75L9 22.85L10.05 21.25L10.8 20.2L10.95 19.95L11 20" />
<path style="fill:none;stroke-width:0.1;stroke-linecap:round;stroke-linejoin:round;stroke-miterlimit:3;stroke:#797979;stroke-opacity:1" d="M35.1,3.8L35 3.8L35.15 3.9M35.1,3.8L35.2 3.85L35.25 3.9L35.15 3.9M27.25,37.8L27.2 37.9M34.5,3.7L34.9 3.75M34.75,3.55L35 3.8L34.9 3.75" />
<path style="fill:none;stroke-width:0.1;stroke-linecap:round;stroke-linejoin:round;stroke-miterlimit:3;stroke:#003D77;stroke-opacity:1" d="M34.35,25.65L34.25 25.75M27.2,37.9L26.45 37.8L25.4 37.6M11.9,18.75L11.95 18.7M35.45,13.3L36.35 13.5M33.8,25.75L34.25 25.75M24.8,5.85L25.3 6.45M30.45,30.2L31.25 30.35L31.95 30.4M11.95,18.75L12.55 19.45M15.45,15.25L15 14.55" />
<path style="fill:none;stroke-width:2;stroke-linecap:round;stroke-linejoin:round;stroke-miterlimit:3;stroke:#B15106;stroke-opacity:1" d="M26.45,37.8L26.1 38.45L26 38.6L25.45 39.6Q22 38.85 18.7 37.35L17.95 37L13.9 34.75L10.85 32.55L8.45 30.5L6.6 28.5L7.25 27.8L7.5 27.35M8.05,24.6L4.65 22.05L4.7 21.95L4.45 21.8L4.5 21.75Q7.05 17.5 9.65 18.65L10.2 18.95L11.3 19.65" />
<path style="fill:none;stroke-width:1.5;stroke-linecap:round;stroke-linejoin:round;stroke-miterlimit:3;stroke:#274154;stroke-opacity:1" d="M31.95,30.4L31.3 31.55" />
<path style="fill:none;stroke-width:2;stroke-linecap:round;stroke-linejoin:round;stroke-miterlimit:3;stroke:#274154;stroke-opacity:1" d="M37.6,13.75L37.4 15.8Q36.8 20.1 34.55 25.1L34.35 25.65M8.4,27.8L8.45 27.8L8.3 27.65L8.4 27.8L8.05 27.5L7.7 27.15L7 26.5M6.95,26.35L8 24.6L8.05 24.6M15,14.55Q17.5 11.6 19.9 9.55Q22.05 7.55 24.8 5.85M8.1,24.5L8.35 23.85L8.45 23.75L9 22.85L10.05 21.25L10.8 20.2L10.95 19.95L11.3 19.65M8.1,24.5L8.05 24.6M9.3,28.5L11.35 30.1L14.35 32.3L15.3 32.9L20.35 35.55L20.55 35.65M9.3,28.5L9.15 28.35L8.7 28.05L8.45 27.8M25.35,37.55L24.05 37.1L23.85 37L20.55 35.65" />
<path style="fill:none;stroke-width:2;stroke-linecap:round;stroke-linejoin:round;stroke-miterlimit:3;stroke:#253439;stroke-opacity:1" d="M34.9,3.75L35.1 4L35.15 4.05L35.9 4.95Q37.25 7.5 37.6 10.6L37.65 12.8L37.6 13.75M34.25,25.75L31.95 30.4M12.1,18.55Q13.7 16.15 15 14.6L15 14.55M24.8,5.85L25.85 5.3Q27.15 4.7 28.4 4.35Q31.65 3.4 34.5 3.7M34.9,3.75L34.75 3.55M36.35,13.5L37.55 13.75L37.6 13.75M25.3,6.45L26.9 8.15Q30.65 11.85 35.45 13.3M15.45,15.25L16.9 16.9L18.7 18.55Q21.05 20.75 23.5 22.2Q25.95 23.6 27.6 24.25L30.75 25.25L31 25.3L32.8 25.6L33.15 25.7L33.75 25.75M12.55,19.45L14 20.75Q19.5 25.8 23.9 27.65L27.9 29.4L30.45 30.2" />
<path style="fill:none;stroke-width:2;stroke-linecap:round;stroke-linejoin:round;stroke-miterlimit:3;stroke:#B15106;stroke-opacity:1" d="M34.2,34.35Q34.5 34.85 34.4 36.1L34.35 36.6L34.2 37.45L34.1 37.6L34 37.85L33.5 39.3L32.7 40.7L31.55 42.15L31.1 41.65L30.6 41.1L29.35 39.75L28.05 38.6L27.25 37.8L25.9 36.9L25 36.35L25.1 36.2L25.1 36.1L26.2 33.95L26.45 33.4L27 32.6L27.45 32.05Q28.7 30.7 30.05 30.85L30.2 30.8L31.3 31.55L31.8 32.05L32.6 32.7L34.05 34.25L34.2 34.35z" />
</g>
</svg>
