<?xml version="1.0" encoding="utf-8"?>
<svg version="1.1" id="Layer_1"
xmlns="http://www.w3.org/2000/svg"
xmlns:xlink="http://www.w3.org/1999/xlink"
xmlns:author="http://www.sothink.com"
width="29px" height="29px"
xml:space="preserve">
<g id="1676" transform="matrix(1, 0, 0, 1, -28.35, 8.4)">
<path style="fill:#FFFFFF;fill-opacity:1" d="M39.5,-6.7L40.7 -7.95L40.75 -8L43.1 -8.25L43.65 -7.65L41.6 -7.7Q40.9 -7.35 39.8 -5.8Q38.6 -4.35 36.45 -3.4L36.15 -3.2Q37.65 -5.05 39.5 -6.7M36.55,-1.9Q36.75 -0.9 36.3 0.2L36.2 0.05L36.2 -2.35Q36.3 -2.95 36.55 -1.9M53.1,-2.95Q51.7 -3.75 52.65 -4.2L55.15 -2.65L55.4 -2.35Q56.5 -0.9 56.35 0.5L56.5 0.45Q56.45 1.8 55.4 3Q55.95 3.7 55.9 4.55L55.95 5.3Q55.75 6.8 54.5 7.3L54.5 7.25L55.4 5.2L54.7 3L55.1 2L55.85 0Q54.95 -1.25 54.95 -1.85Q54.7 -2.1 53.1 -2.95M51.75,-4.9L51.7 -4.95L51.8 -4.9L51.75 -4.9M28.4,13.8L28.35 13.35Q29.1 10.9 29.55 10.3L29.1 13.05L29.35 13.7L29.7 15.15Q32.25 15.65 34.9 17.05L35.35 17.3L36.85 18.8Q37.45 19.35 37.35 19.95Q37.35 20.4 36.8 19.5Q36.25 18.65 34.45 17.5L33.4 17L33.3 17L31.9 16.5L29.05 15.95L28.4 13.8" />
</g>
</svg>
