<?xml version="1.0" encoding="utf-8"?>
<svg version="1.1" id="Layer_1"
xmlns="http://www.w3.org/2000/svg"
xmlns:xlink="http://www.w3.org/1999/xlink"
xmlns:author="http://www.sothink.com"
width="16px" height="19px"
xml:space="preserve">
<g id="472" transform="matrix(1, 0, 0, 1, 0, 0)">
<path style="fill:#743F2B;fill-opacity:1" d="M15.65,5.55L15.65 5.85L15.65 6.1L15.7 6.65L15.7 7.1L15.45 8.15Q15.1 9.3 14.05 10.45Q12.95 11.55 12.15 11.9Q12.25 14.15 10.2 16.25L9.25 16.95L8.95 17.15Q6.9 18.4 5.3 18.1Q3.55 17.8 2.6 17.15Q1.6 16.45 0.95 15.3Q0.25 14.15 0.35 13.75Q-0.15 12.45 0.1 10.65Q0.35 8.75 1.2 7.1Q2.15 5.4 3.15 4.6Q3.25 3.75 3.75 3.05Q4.3 2 5.35 1.2Q7.05 -0.25 9.4 0.05L10.75 0.3Q11.35 0.5 11.9 1.05L12.1 1.3L12.35 1.65L12.65 1.95Q12.9 1.85 13.6 2.3Q14.3 2.7 15 3.75L15.55 5.1L15.65 5.55M7.45,5.15Q7.7 4.65 8.45 3.85L8.5 3.75L8.65 3.65Q9.75 2.55 11.15 2.2L11.8 2.1L11.7 2.05L11.75 2.05L11.45 1.5L10.8 1L10.65 0.95L10.4 0.9L9.85 0.75L7.7 0.9Q5.85 1.5 4.85 2.85L4 4.5L5.75 4.45L6.4 4.6L6.65 4.75L7.45 5.15M10.85,9.45L11.2 9.8L11.35 10.05L11.35 10.1L11.45 10.3L11.55 10.55L11.65 10.85L11.8 11.2L12.45 10.9L13.1 10.35Q14.85 8.6 14.8 6.5L14.65 5.5L14.45 4.7L14.45 4.55L14.45 4.5L14.05 3.75L13.4 3.1Q12.8 2.75 12.45 2.7L12.2 2.7L12.15 2.7Q10.35 3 9.2 4.3L8.9 4.6L8.55 5.15L8.15 5.65L9 6.45L9.1 6.6L9.15 6.7L9.55 7.95L9.6 8.25L9.75 8.4L9.95 8.55L10.2 8.8L10.75 9.35L10.8 9.4L10.85 9.45M5.2,10.35Q6.6 8.3 8.95 8.45L8.85 7.65L8.75 7.4L8.2 6.65L8.05 6.5L7.75 6.25L7.65 6.15L7.05 5.7L7 5.65L6.35 5.35Q5.45 4.9 4.85 5Q4.15 5.05 3.15 5.6Q2.3 6.15 1.65 7.7Q0.95 9.25 0.9 11.25L1.2 14Q1.45 15.05 2.6 15.95L2.75 16.05L3 16.25L3.05 16.25L3.1 16.3L3.3 16.4L3.45 16.55L3.5 16.55L4.1 16.9Q5.65 17.6 6.95 17.25L8.15 16.75L8.45 16.6L8.5 16.55L9.25 16Q11.45 14.5 11.3 11.65L11.3 11.25L11.15 10.85L11.15 10.8L10.75 10.1L10.6 9.85L10.5 9.75L10.2 9.4L10 9.2L9.95 9.1L9.55 8.9L8.3 8.9Q7.05 9 5.3 11.1L5.3 11.15L5.1 11.45L4.65 12.05L4.55 12.15L4.2 12.6L4.2 12.65L4.25 12.35L4.25 12.3L4.75 11.05L4.9 10.8L5.2 10.35" />
<path style="fill:#E5B29D;fill-opacity:1" d="M6.65,4.75Q7.1 3.65 7.75 2.8Q9.05 1.05 10.6 1L10.8 1.25L9.7 2.3Q8.6 3.15 8.6 3.55L8.65 3.65L8.5 3.75L8.45 3.85Q7.7 4.65 7.45 5.15L6.65 4.75M11.55,10.55L11.45 10.3L11.35 10.1L11.4 9.8L11.45 9.65L11.9 7.15L11.7 6.15L11.75 5.65Q11.75 5.15 12.65 4.65L13.45 4.25Q13.85 4.9 13.85 5.5Q13.85 6.15 13.65 6.4L13.45 6.3L13.2 6.3L13.05 6.8L13.25 7.2Q13.45 7.4 13.25 7.85L13 8.45L12.75 9.05L11.55 10.55M7.65,6.65L8.25 7.45L6.4 8.75Q5.8 9.2 4.9 10.8L4.75 11.05L4.25 12.3L4.25 12.35L4.2 12.65L4.2 12.6L4.15 13.15L4.3 13.9Q3.6 13.6 3.6 11.75L3.65 10.9Q3.65 9.2 5 7.85Q6.15 6.7 7.55 6.55L7.65 6.65M8.35,16.5L8.05 16.05Q7.45 15.1 7.45 14.2Q7.45 12.45 8.4 11.2Q9.25 10.1 10.5 9.9L10.5 10.25Q10.5 11.6 10.15 11.75Q9.75 11.9 9.75 12.3L10.25 12.9L10.05 13.4L9.35 15.3L8.35 16.5" />
<path style="fill:#B1735C;fill-opacity:1" d="M10.65,0.95L10.8 1L10.7 1L10.6 1L10.45 0.9L10.4 0.9L10.65 0.95M4,4.5L4.85 2.85Q5.85 1.5 7.7 0.9L9.85 0.75Q8.6 0.75 7.15 1.95Q5.8 3.05 5.8 3.85L5.75 4.45L4 4.5M12.9,3.35L12.7 3.35Q11.45 3.45 10.6 4.45Q9.95 5.2 9.95 5.6L10.4 6.8L10.85 8.6L10.75 9L10.8 9.4L10.75 9.35L10.2 8.8L9.95 8.55L9.75 8.4L9.6 8.25L9.55 7.95L9.15 6.7L9.1 6.6L9 6.45L8.15 5.65L8.55 5.15L8.9 4.6L9.2 4.3Q10.35 3 12.15 2.7L12.2 2.7L12.45 2.7Q12.8 2.75 13.4 3.1L14.05 3.75L12.9 3.35M4.15,13.15L4.2 12.6L4.55 12.15L4.65 12.05L5.1 11.45L5.3 11.15L5.3 11.1Q7.05 9 8.3 8.9L9.55 8.9L9.95 9.1L10 9.2L10.2 9.4Q8.35 9.15 7.1 10.8Q5.85 12.45 6 14.2Q6.1 15.95 6.7 16.5L6.75 16.55L6.7 16.5Q5.45 15.9 4.75 14.85L4.3 13.9L4.15 13.15M7.85,6.55L7.55 6.55L6.5 5.75L6.35 5.8Q5.3 5.8 4 7.2Q2.6 8.65 2.6 10.15L2.35 12.15L2.6 13.55Q2.6 14.9 4.1 16.9L3.5 16.55L3.45 16.55L3.3 16.4L3.1 16.3L3.05 16.25L3 16.25L2.75 16.05L2.6 15.95Q1.45 15.05 1.2 14L0.9 11.25Q0.95 9.25 1.65 7.7Q2.3 6.15 3.15 5.6Q4.15 5.05 4.85 5Q5.45 4.9 6.35 5.35L7 5.65L7.05 5.7L7.65 6.15L7.75 6.25L8.05 6.5L7.85 6.55M8.45,16.6L8.15 16.75L8.35 16.5L8.45 16.6M10.5,9.9L10.5 9.75L10.6 9.85L10.5 9.9" />
<path style="fill:#FCE1D7;fill-opacity:1" d="M10.7,1L10.8 1L11.45 1.5L11.75 2.05L11.7 2.05L11.8 2.1L11.15 2.2Q9.75 2.55 8.65 3.65L8.6 3.55Q8.6 3.15 9.7 2.3L10.8 1.25L10.6 1L10.7 1M12.75,9.05L13 8.45L13.25 7.85Q13.45 7.4 13.25 7.2L13.05 6.8L13.2 6.3L13.45 6.3L13.65 6.4Q13.85 6.15 13.85 5.5Q13.85 4.9 13.45 4.25L13.7 4.2L14.45 4.5L14.45 4.55L14.45 4.7L14.65 5.5L14.8 6.5Q14.85 8.6 13.1 10.35L12.45 10.9L11.8 11.2L11.65 10.85L11.55 10.55L12.75 9.05M8.35,16.5L9.35 15.3L10.05 13.4L10.25 12.9L9.75 12.3Q9.75 11.9 10.15 11.75Q10.5 11.6 10.5 10.25L10.5 9.9L10.6 9.85L10.75 10.1L11.15 10.8L11.15 10.85L11.3 11.25L11.3 11.65Q11.45 14.5 9.25 16L8.5 16.55L8.45 16.6L8.35 16.5M4.9,10.8Q5.8 9.2 6.4 8.75L8.25 7.45L7.65 6.65L7.55 6.55L7.85 6.55L8.05 6.5L8.2 6.65L8.75 7.4L8.85 7.65L8.95 8.45Q6.6 8.3 5.2 10.35L4.9 10.8" />
<path style="fill:#CB8B73;fill-opacity:1" d="M7.75,2.8Q7.1 3.65 6.65 4.75L6.4 4.6L5.75 4.45L5.8 3.85Q5.8 3.05 7.15 1.95Q8.6 0.75 9.85 0.75L10.4 0.9L10.45 0.9L10.6 1Q9.05 1.05 7.75 2.8M13.7,4.2L13.45 4.25L12.65 4.65Q11.75 5.15 11.75 5.65L11.7 6.15L11.9 7.15L11.45 9.65L11.4 9.8L11.35 10.1L11.35 10.05L11.2 9.8L10.85 9.45L10.8 9.4L10.75 9L10.85 8.6L10.4 6.8L9.95 5.6Q9.95 5.2 10.6 4.45Q11.45 3.45 12.7 3.35L12.9 3.35L14.05 3.75L14.45 4.5L13.7 4.2M10.5,9.9Q9.25 10.1 8.4 11.2Q7.45 12.45 7.45 14.2Q7.45 15.1 8.05 16.05L8.35 16.5L8.15 16.75L6.95 17.25Q5.65 17.6 4.1 16.9Q2.6 14.9 2.6 13.55L2.35 12.15L2.6 10.15Q2.6 8.65 4 7.2Q5.3 5.8 6.35 5.8L6.5 5.75L7.55 6.55Q6.15 6.7 5 7.85Q3.65 9.2 3.65 10.9L3.6 11.75Q3.6 13.6 4.3 13.9L4.75 14.85Q5.45 15.9 6.7 16.5L6.75 16.55L6.7 16.5Q6.1 15.95 6 14.2Q5.85 12.45 7.1 10.8Q8.35 9.15 10.2 9.4L10.5 9.75L10.5 9.9" />
</g>
</svg>
