<?xml version="1.0" encoding="utf-8"?>
<svg version="1.1" id="Layer_1"
xmlns="http://www.w3.org/2000/svg"
xmlns:xlink="http://www.w3.org/1999/xlink"
xmlns:author="http://www.sothink.com"
width="12px" height="16px"
xml:space="preserve">
<g id="463" transform="matrix(1, 0, 0, 1, 0, 0)">
<linearGradient
id="LinearGradID_648" gradientUnits="userSpaceOnUse" gradientTransform="matrix(0, 0.00598145, -0.00491333, 0, -53.15, 8.65)" spreadMethod ="pad" x1="-819.2" y1="0" x2="819.2" y2="0" >
<stop  offset="0" style="stop-color:#FFF980;stop-opacity:1" />
<stop  offset="1" style="stop-color:#E7950A;stop-opacity:1" />
</linearGradient>
<path style="fill:url(#LinearGradID_648) " d="M10.15,2.85L10.15 2.9Q9.7 3.3 8.7 3.3L4.5 3.3L4.2 5.1L6.05 4.7L8.05 5.1Q8.95 5.5 9.65 6.2L9.6 6.2L10.65 7.8Q11.05 8.75 11.05 9.85Q11.05 11.35 10.4 12.65Q9.7 14 8.35 14.7Q7.05 15.45 5.35 15.45Q3.45 15.45 2.25 14.75Q1 14 0.55 13.1L0.5 13.1Q0 12.1 0 11.35Q0 10.85 0.5 10.35L0.5 10.3Q0.95 9.8 1.65 9.8Q2.75 9.75 3.3 11.05L4.2 12.2Q4.7 12.6 5.4 12.6L6.4 12.3L7.15 11.4L7.4 10.05L7.1 8.7L6.4 7.9L5.45 7.65L4.5 7.8L3.5 8.45Q2.65 9.15 2.05 9.1Q1.45 9.1 0.9 8.65L0.85 8.6Q0.35 8.1 0.35 7.45L0.45 6.75L1.25 2.05Q1.45 1 1.95 0.6L2 0.55Q2.45 0 3.5 0L8.65 0Q10.7 0 10.65 1.65Q10.65 2.35 10.15 2.85" />
<path style="fill:#FFFFFF;fill-opacity:1" d="M9.7,2.15L9.6 2.2Q8.15 3 7.6 1.6Q7.7 1 8.4 0.8L8.4 0.75Q9.6 1 9.7 2.15M4.1,2.2Q2.65 3 2.1 1.6Q2.2 1 2.9 0.8L2.9 0.75Q4.1 1 4.2 2.15L4.1 2.2" />
</g>
</svg>
