<?xml version="1.0" encoding="utf-8"?>
<svg version="1.1" id="Layer_1"
xmlns="http://www.w3.org/2000/svg"
xmlns:xlink="http://www.w3.org/1999/xlink"
xmlns:author="http://www.sothink.com"
width="25px" height="13px"
xml:space="preserve">
<g id="1948" transform="matrix(1, 0, 0, 1, 9.6, 42.7)">
<path style="fill:#191616;fill-opacity:0.501961" d="M-9.05,-42.55L-2.6 -41.1L9.8 -37.2L14.45 -35.85L15.05 -35.45L15 -35.4L14 -35.55Q13.85 -35.3 -8.3 -42.1L-8.95 -42.3Q-8.05 -40.2 -4.4 -36.95Q-0.65 -33.65 3.05 -33.1Q6.7 -32.5 11.3 -33.75Q14.35 -34.55 14.95 -35.05Q14.75 -34.75 14.15 -34.4Q12.45 -33.3 8.3 -32.7L3 -32.5L0.45 -33.15Q-0.9 -33.6 -4 -36.1Q-7.1 -38.55 -9.35 -42.35L-9.4 -42.45L-9.3 -42.5L-9.5 -42.6L-9.2 -42.6L-9.2 -42.55L-9.15 -42.6L-9.05 -42.55" />
<path style="fill:#191616;fill-opacity:1" d="M8.7,-31.35L9 -31.4L11.2 -32.35Q13.25 -33.15 15.15 -34.35Q12.5 -31.55 7.3 -30.25L2.1 -29.8L0.1 -30.35Q-4.3 -31.9 -6.85 -35.7Q-8.55 -38.4 -9.6 -42.25Q-7.6 -37.25 -5.4 -34.7Q-3.2 -32.1 0.7 -30.9Q4.55 -29.65 8.7 -31.35" />
<path style="fill:#4D4D4D;fill-opacity:0.6" d="M15,-35.35L15 -35.4L15.05 -35.45L15 -35.35M-9.05,-42.55L-9.15 -42.6L-9.2 -42.7L-9.05 -42.55" />
</g>
</svg>
