<?xml version="1.0" encoding="utf-8"?>
<svg version="1.1" id="Layer_1"
xmlns="http://www.w3.org/2000/svg"
xmlns:xlink="http://www.w3.org/1999/xlink"
xmlns:author="http://www.sothink.com"
width="87px" height="410px"
xml:space="preserve">
<g id="2736" transform="matrix(1, 0, 0, 1, 23.5, 316.85)">
<path style="fill:#FFFFFF;fill-opacity:1" d="M11,-316.85Q12.2 -306 16 -296.15Q19 -288.15 19 -277.45Q19 -274.8 18 -270.25L16 -260.8L15.5 -260.8Q17.1 -280.8 14 -287.2Q13.05 -289.2 10.85 -291.35Q8.5 -293.6 7.5 -295.5L7.2 -314.3L6.9 -316.85Q9.45 -315.25 11 -316.85M33.5,-274.15Q33.6 -272.55 35.5 -262.8Q35.5 -260.65 33.5 -258.1L31.9 -256.1L32.4 -257.7Q34 -262.9 34 -268.8L33.3 -273.85L33.5 -274.15M1,-261.45Q1 -253.7 3.15 -247.2Q5.05 -241.05 8 -238.1Q7.2 -238.35 4.85 -236.35Q2.8 -234.5 1.5 -234.1Q1.75 -241.85 -0.1 -251.05Q-2 -260.5 -2 -263.45Q-2 -266.5 -0.9 -272L-0.75 -272.8L-0.3 -274.8L0.1 -272.8L0.45 -271.35Q1.6 -267.05 3 -266.1Q1.4 -266.5 1.15 -265.6Q1 -265.2 1 -261.45M15,-215.4Q15.05 -218.2 15.95 -219.95L17.25 -221.7Q18 -217.8 18 -213.4Q18 -201.8 15 -203.4L15 -215.4M34.5,-215.4Q42 -194.75 42 -192.05Q42 -189.65 41 -182.2L39.5 -170.05L39 -170.05Q38.45 -175.1 38.65 -192.05Q38.8 -200.75 35.25 -200.75Q34.25 -200.75 34 -200.35Q33.6 -199.55 33 -195.4Q32.8 -198.05 31.95 -200.6Q33.1 -204.05 33.85 -207.95Q34.85 -213 34.5 -215.4M2.25,-172.7Q1.45 -172.7 -0.85 -177.4Q-3.15 -182.05 -5.5 -182.05Q-5.5 -184.6 -6.55 -189.8Q-7.6 -195 -8.5 -196.75Q-8.2 -196.75 -8.05 -197.4L-8 -198.05L-5.7 -200.85L-4.4 -202.6L-4.5 -199.4Q-4.5 -194.75 -3 -190.05Q-1.3 -184.7 1 -184.7Q1.6 -184.7 4 -189.4Q6.35 -194.05 8 -194.05Q6.55 -184.3 5 -178.6Q3.4 -172.7 2.25 -172.7M31.55,-106.65Q30.55 -102.65 30.5 -100.65Q30.5 -104 29.5 -108.55Q28.5 -113.05 28.5 -115.35Q28.5 -115.85 29.85 -119.6L30.3 -120.8L30.45 -120.25L32.5 -112.65Q32.5 -110.65 31.55 -106.65M53.55,-53.7L54.5 -52.1Q56.5 -48.1 56.5 -45.25L56.45 -41.95Q56.15 -39.55 55 -37.95L53.95 -44.75L53 -49.95Q53 -51.55 53.55 -53.7M13.55,-98.4Q16 -90.25 16 -85.3L15.25 -81.3Q14.5 -77.5 14.5 -76.65L14.25 -77.85L14 -77.95Q13.05 -80.5 12.8 -81.55Q12.5 -82.9 12.5 -86.65Q12.5 -89.6 12.9 -93.6Q13.15 -96.25 13.55 -98.4M5.25,-53.3Q5.65 -51.3 5.5 -49.3Q5.5 -47.7 4.75 -45.65Q4.05 -43.75 4 -41.2Q3.95 -45.35 3 -47.15Q2 -49 2 -49.95Q2 -51.95 3.1 -54.1Q3.7 -55.3 4.4 -55.8L5.25 -53.3M22.3,-6.3Q23.8 -4.05 25.5 0.1Q25.5 1.95 24.45 5.55Q23.4 9.15 22.5 10.1Q22.5 6.5 21.5 -0.15L20.5 -6.6L20.55 -8.7L22.3 -6.3M48.5,19.45Q47.7 20.25 46.2 23.7L44.5 27.45Q45.55 18 46.1 14.5Q46.75 10.5 48.05 10.5L48.25 13.55L48.5 19.45M60.15,27.45L60.75 29.2L63 36.25L62.05 40.8L61.7 42.65L60.45 36.95L58.5 30.9L60.15 27.45M29.2,91.65Q28.8 93.65 28.5 92.85Q27.8 88.7 26 84.85L27.85 80.95L30.5 86.15Q29.8 88.15 29.2 91.65M-6.3,-242.25Q-6 -240.65 -6 -234.75Q-6 -227.7 -6.15 -226.35Q-6.6 -223 -8.5 -224.75Q-8.5 -226.65 -10 -234.65L-11.5 -242.75Q-11.5 -243.7 -10.5 -246.1L-9.95 -247.3Q-7.3 -246.65 -6.4 -242.75L-6.3 -242.25M-12,-122L-10.35 -125.45L-9.75 -123.75L-7.5 -116.65L-8.45 -112.15L-8.8 -110.25Q-9.2 -113.05 -10.05 -116L-12 -122M-21.45,40.8L-18 55.5Q-19.35 57.5 -19.8 61.1L-19.95 62.8Q-20.45 59.6 -21.5 54.95L-23.5 45.45Q-23.5 43.05 -21.45 40.8M-1.35,23.7Q-2.15 18.25 -2.5 16.8L-1.15 13.15L-0.55 14.9Q1.5 20.9 1.5 22.1L-0.5 32.8L-0.5 31.45Q-0.5 29.7 -1.35 23.7" />
</g>
</svg>
