<?xml version="1.0" encoding="utf-8"?>
<svg version="1.1" id="Layer_1"
xmlns="http://www.w3.org/2000/svg"
xmlns:xlink="http://www.w3.org/1999/xlink"
xmlns:author="http://www.sothink.com"
width="18px" height="16px"
xml:space="preserve">
<g id="618" transform="matrix(1, 0, 0, 1, 0, 0)">
<path style="fill:#0E0A0B;fill-opacity:1" d="M14.65,2.05Q12.65 0.95 11.05 1.8Q10.45 3.1 7.1 4.75Q5.15 5.65 3.95 6.5L2.55 7.7Q1.35 9 1.55 11.45L2.05 13.15L1.95 13.25Q1.3 13.7 0.3 11.6Q-0.25 10.5 0.2 9Q0.6 7.6 1.65 6.45Q2.6 5.4 3.7 4.8L3.9 4.7Q4.7 4.25 6.25 3.7Q7.9 3.05 9.15 1.7Q10.4 0.3 11.55 0.15L13.65 0.1Q14.65 0.3 15.95 1.1Q17 1.75 17.05 2.9L17.1 3.15L16.95 4.65Q16.7 5.75 16.55 4.75L16.05 3.3L15.85 3L15.85 3.05L14.65 2.05M17,9.35Q16.7 11.25 13.1 13.7Q10.35 15.55 8.85 15.05Q9.05 14.9 8.65 14.95L8.6 14.95L8.55 14.9L8.5 14.9L8.4 14.8L8.55 14.9L8 14.45Q9.3 14.05 11.2 13.1Q13.1 12.1 14.85 10.3L16.65 8L16.85 7.9Q17.2 7.8 17 9.35" />
<path style="fill:#1C1417;fill-opacity:1" d="M17.4,5.6Q17.4 6.55 16.85 7.9L16.65 8L14.85 10.3Q13.1 12.1 11.2 13.1Q9.3 14.05 8 14.45L8.55 14.9L8.4 14.8L8.5 14.9L8.55 14.9L8.6 14.95L8.65 14.95Q9.05 14.9 8.85 15.05L8.55 15.25L6.1 15.45Q6.4 12.3 8.5 11.65Q10.65 11 11.6 10.35L12.95 9.35L13.7 8.7L14.55 7.75L15.1 6.75L15.65 5.45L15.9 3.8L15.85 3.05L15.85 3L16.05 3.3L16.55 4.75Q16.7 5.75 16.95 4.65L17.1 3.15L17.4 5.6" />
<path style="fill:#3C3134;fill-opacity:1" d="M4.05,14.75L4 14.75L2.8 14L1.95 13.25L2.05 13.15L1.55 11.45Q1.35 9 2.55 7.7L3.95 6.5Q5.15 5.65 7.1 4.75Q10.45 3.1 11.05 1.8Q12.65 0.95 14.65 2.05L15.85 3.05L15.9 3.8L15.65 5.45L15.1 6.75L14.55 7.75L13.7 8.7L12.95 9.35L11.6 10.35Q10.65 11 8.5 11.65Q6.4 12.3 6.1 15.45Q5.75 15.5 4.05 14.75M11.5,4.5Q13.8 5.05 12.1 3.45Q11.6 3.5 11.45 4.05Q11.3 4.45 11.5 4.5M4,10L4.65 10.75L5.2 10.7Q5.85 9.4 7.1 8.65Q10.25 6.85 8 5.85L5.5 6.9Q4.4 7.4 3.95 8Q3.2 8.9 4 10" />
<path style="fill:#625158;fill-opacity:1" d="M11.45,4.05Q11.6 3.5 12.1 3.45Q13.8 5.05 11.5 4.5Q11.3 4.45 11.45 4.05M3.95,8Q4.4 7.4 5.5 6.9L8 5.85Q10.25 6.85 7.1 8.65Q5.85 9.4 5.2 10.7L4.65 10.75L4 10Q3.2 8.9 3.95 8" />
</g>
</svg>
