<?xml version="1.0" encoding="utf-8"?>
<svg version="1.1" id="Layer_1"
xmlns="http://www.w3.org/2000/svg"
xmlns:xlink="http://www.w3.org/1999/xlink"
xmlns:author="http://www.sothink.com"
width="408px" height="248px"
xml:space="preserve">
<g id="2971" transform="matrix(1, 0, 0, 1, 31.85, -35.1)">
<path style="fill:#000000;fill-opacity:1" d="M372.3,86.65Q374.4 84.35 375.8 85.65Q376.15 103.5 365.2 143.4Q354.2 183.25 338.7 210.35Q330.55 224.3 320.1 236.75Q307 251.9 291.85 262.25L283.05 267.6Q275.6 271.6 267.7 274.7Q252.05 280.45 228.65 282.4Q205.25 284.25 183.9 271.05Q174.7 264.55 183 254.7Q191.3 244.8 194.25 232.3Q197.9 211.5 188.65 187.55Q178.9 161.85 163.5 139.65Q151.95 122.8 138.5 109.45Q137.8 108.6 139.3 108.8L142.15 109.2L141.8 107.65Q140.8 101.2 144.35 95.9Q150.9 85.95 158.65 78.9Q162.55 75.4 166.7 72.6L169.65 70.7Q176.65 66.4 184.35 64.15L186.65 64.1Q191.75 72.95 196.65 76.6Q201.5 80.2 203.85 80.6L214.65 81.55Q223.05 82.15 232.85 75.15Q240 69.85 241.45 69.45Q242.9 69.05 243.05 76.75Q243.8 101.05 265.75 95.55Q275 90.9 279.35 86.05Q283.3 81.6 284.25 82.95Q285.15 84.2 288.2 92.85Q291.2 101.5 305.55 110Q319.9 118.5 338.4 112.7Q356.85 106.85 367.3 93.3L372.3 86.65M3.05,43.95Q3.45 46.6 6.05 57.3L9 69.9Q9.3 71.8 10.95 76.15Q12.55 80.5 17.5 86.35Q30.2 98.45 60.7 81.85Q67.4 77.6 68.75 80.2Q69.7 83.4 73.2 89.75Q76.65 96.1 85.55 101.7Q94.45 107.25 106.45 101.85L106.6 101.6L107.1 101.55L111.25 99.1Q128.95 101.55 133.85 112.15Q135.95 116.8 136.95 123.4Q139.5 140.5 129.95 157.6Q103.6 173.55 85.7 192.15Q67.75 210.75 61.55 230.2Q55.35 249.6 48.2 251.8Q41 254 23.15 245.75Q1.55 237.15 -12.05 217.95Q-16.3 212 -19.7 205Q-25.25 194 -29.55 177.5Q-33.85 160.95 -30.15 123.9Q-26.45 86.85 -6.1 41.65Q-0.45 31.95 1.1 36.65Q2.65 41.3 3.05 43.95" />
</g>
</svg>
