<?xml version="1.0" encoding="utf-8"?>
<svg version="1.1" id="Layer_1"
xmlns="http://www.w3.org/2000/svg"
xmlns:xlink="http://www.w3.org/1999/xlink"
xmlns:author="http://www.sothink.com"
width="27px" height="7px"
xml:space="preserve">
<g id="1864" transform="matrix(1, 0, 0, 1, 0, 0)">
<path style="fill:#231813;fill-opacity:1" d="M12.3,4.05L23.65 3.05L24.35 2.05L24.35 1.75Q24.2 1.05 24 1.1L16.85 1.55L0.15 2.45L0.25 1.05L17.45 0.3L24.7 0Q26.15 0.4 26.2 1.35L26.1 1.95L26 2.15L25.6 2.9L24.2 4.05L0 6.2L0 5.1L12.3 4.05" />
<path style="fill:#3C2C22;fill-opacity:1" d="M24.35,2.05L23.65 3.05L12.3 4.05L0 5.1L0.15 4.25L8.3 3.6L14.65 2.95L24.35 2.05" />
<path style="fill:#574031;fill-opacity:1" d="M14.65,2.95L8.3 3.6L0.15 4.25L0.15 2.45L16.85 1.55L24 1.1Q24.2 1.05 24.35 1.75L24.35 2.05L14.65 2.95" />
</g>
</svg>
