<?xml version="1.0" encoding="utf-8"?>
<svg version="1.1" id="Layer_1"
xmlns="http://www.w3.org/2000/svg"
xmlns:xlink="http://www.w3.org/1999/xlink"
xmlns:author="http://www.sothink.com"
width="62px" height="66px"
xml:space="preserve">
<g id="1695" transform="matrix(1, 0, 0, 1, 2, 18.25)">
<path style="fill:#23231A;fill-opacity:1" d="M8.65,-6.85Q9.85 -4.9 11.35 -3.9L11.55 -3.75Q14.2 -1.95 18.75 -1.15L19.55 -1.05L19.6 -0.9L20.15 -0.7L20.45 -0.55L21.15 0.25Q22.6 2.1 22.35 4.05L22.15 5.3L21.6 6.2Q20.45 8.25 18.65 8.55L17.05 8.55L15.85 8.2L15.25 7.9Q12.35 7.35 10.05 6.5L8.35 5.65Q5.85 4.25 4.45 2.25L4.15 1.9Q1.1 -2.85 1.1 -6.7Q1.1 -10.45 1.85 -13Q2.65 -15.5 4.9 -18.25Q4.9 -16.7 6.65 -11.3L6.9 -10.75Q7.65 -8.45 8.65 -6.85M52.05,-11.45L52.1 -11.5L52.2 -11.65L52.2 -11.7Q54.25 -16.9 54.35 -18.25L56.25 -15L56.3 -14.9L57 -12.85Q57.6 -10.25 57.35 -6.55Q57.15 -2.75 53.8 1.8L53.35 2.4Q51.95 3.95 49.9 5.1Q47.45 6.25 44.1 6.85L42.35 7.1L41.65 7.3L38.65 7.45L38.2 7.25Q36.85 6.55 36.05 4.95L35.75 4.05L35.45 3L35.55 1.7L35.75 1Q36.1 -0.05 36.85 -0.9L37.95 -1.8L38.55 -1.95L38.55 -2.15Q43.9 -2.45 46.95 -4.3Q48.2 -5.15 49.35 -6.55Q49.45 -6.15 49.45 -6.7L51.6 -10.3L52.05 -11.4L52.05 -11.45M53.8,20.55L55.45 20.85L57.5 21.5L56.1 20.6Q54.45 19.65 53.15 19.35L51.5 17.3Q53.35 15.8 55 13.75L56.75 11.2L57.65 9.2L57.95 8.25Q58.1 7.35 57.3 7.95Q56.2 8.7 52.55 9.9Q48.9 11.15 47.5 14.7L47.45 15L46.25 14.75L46.5 13.9L48.65 10.55Q49.8 8.8 52.2 8.2L54.75 7.25L54.9 7.25L54.9 7.15L56.45 6.2Q58.15 4.8 59.3 4.35Q59.8 4.95 59.9 6.1L59.75 7.6L59.6 7.9Q59.05 10.5 57.3 13.2Q55.45 15.8 52.6 18.2L52.6 18.25L52.75 18.2L54.7 18.4Q55.8 18.6 57.3 19.95L58.15 21.15L58.85 22.85L58.6 22.85L58.45 22.85L58.05 22.7Q56.25 22.05 54.4 21.9Q54.2 21.15 53.8 20.55M54.75,24L57 25.2Q58.75 26.1 59.45 28.45L59.65 29.3L54.4 27.85Q54.9 25.8 54.75 24M3.5,27.95L-1.75 29.35L-1.55 28.55Q-0.9 26.15 0.9 25.3Q2.15 24.45 3.05 24.1Q2.95 25.45 3.25 26.9L3.35 27.5L3.5 27.95M1.8,20.7L0.4 21.6L2.45 20.9L4 20.6L3.4 21.95Q1.55 22.15 -0.15 22.75L-0.6 22.9L-0.75 22.9L-0.95 22.9L-0.3 21.2L0.6 20.05Q2.1 18.7 3.2 18.45L5.1 18.25L5.25 18.35L5.25 18.25Q2.75 16.2 1.05 13.9L0.6 13.3Q-1.2 10.55 -1.7 7.95L-1.85 7.65L-2 6.2Q-1.9 5 -1.4 4.4Q-0.3 4.85 1.4 6.25Q3.25 7.6 5.7 8.25Q8.05 8.85 9.25 10.65L11.35 13.7L11.4 13.75L11.4 13.8L11.55 14.85L10.45 15.05L10.35 14.75L10 13.9Q8.5 11.05 5.35 9.95Q1.7 8.8 0.6 8.05Q-0.2 7.45 -0.05 8.35L0.25 9.3L1.1 11.3L2.9 13.8L2.95 13.9Q4.5 15.9 6.35 17.35L4.65 19.5Q3.35 19.75 1.8 20.7M2.9,-6.75L2.95 -4.55Q3.1 -2.55 3.95 -0.9Q4.95 1.4 7.1 3.15Q8.3 4.1 9.85 4.95L12.6 5.8L16.6 6.85L17.05 6.95L17.4 7Q18.65 7.1 19.85 5.65L20.2 5.25Q21.1 4.05 21.1 3.15L20.6 1.95L19.05 0.4L14.9 -0.6Q11.35 -1.45 8.8 -4L8 -5.05Q7.25 -6.15 6.5 -7.85Q5.85 -9.35 5.35 -11.35Q4.75 -13.05 4.25 -15.2Q4.3 -14.7 3.35 -12.7L3.2 -12.15Q2.75 -10.55 2.9 -6.75M37.55,4.1L37.8 4.5Q39 6.35 40.65 6.1L44.5 5.4L45 5.25L47.8 4.55L47.8 4.5Q49.5 3.75 50.85 2.85Q52.75 1.4 53.9 -0.45Q55 -2.3 55.3 -4.55L55.6 -6.85L55.75 -11.2L55.5 -12.7Q54.7 -14.7 54.75 -15.25L53.15 -10.6L51.9 -7.8L51.3 -6.7L49.75 -4.55L49.5 -4.3Q46.8 -2 43.15 -1.45L39 -0.55Q38.4 -0.4 37.3 0.8Q36.8 1.3 36.8 1.95Q36.7 2.95 37.55 4.1M34,21.2L33.25 22.05Q31.6 23.9 28.55 23.75L27.75 23.65Q24.15 23.3 24.15 22.15L24.15 21.65L24.15 20.85L24.2 20.2L24.3 19.65L24.6 18.75L24.6 18.6L25.25 16.55L25.55 15.6L25.6 15.2L25.6 15.05L26.35 12.55L27.15 9.95L27.3 9.45Q27.9 8.1 28.45 7.9L29.85 10.2L30.4 11.3L31.25 13.15L31.6 14.1L32.2 15.6L32.5 16.4L32.8 17.3L33.3 18.7L33.45 19.2L33.9 20.45L34 20.75L34 21.2M25.85,20.4L25.7 20.7L25.45 21.35L26.35 21.8Q28.65 22.7 30.85 21.75L32.2 20.9L32.05 20.3L31.55 18.7L31.1 17.45L31 17.3L30.65 16.5L30.35 15.75L29.7 14.25L29.7 14.2L29.25 13.2L28.45 11.6L27.9 13.65L27.7 14.2L27 16.35L26.65 17.45L26.65 17.5L26.2 18.9L26.05 19.2L25.85 20.25L25.85 20.4" />
<path style="fill:#726957;fill-opacity:1" d="M18.2,1.8L15.1 1.6L13.2 1.75L11.35 0.95L10.45 0.25L10.3 0.1L9.85 -0.25L8.8 -1.45L8.15 -2.45L6.2 -5.3L4.95 -7.15L4.5 -6.15L4.1 -8.75L3.2 -12.15L3.35 -12.7Q4.3 -14.7 4.25 -15.2Q4.75 -13.05 5.35 -11.35Q5.85 -9.35 6.5 -7.85Q7.25 -6.15 8 -5.05L8.8 -4Q11.35 -1.45 14.9 -0.6L19.05 0.4L20.6 1.95L21.1 3.15Q19.55 2.1 18.2 1.8M54.4,-8.45L53.9 -7.65L51.75 -4.7L50.7 -3.35L49.8 -2.4L49.65 -2.15Q47.35 0.1 45.75 0.4L41.9 0.95Q41.25 1.1 40.85 1.45Q40.55 1.9 40.95 2.35Q38.8 1.6 37 1.95L36.8 1.95Q36.8 1.3 37.3 0.8Q38.4 -0.4 39 -0.55L43.15 -1.45Q46.8 -2 49.5 -4.3L49.75 -4.55L51.3 -6.7L51.9 -7.8L53.15 -10.6L54.75 -15.25Q54.7 -14.7 55.5 -12.7L55.75 -11.2Q55.3 -9.8 54.4 -8.45M47.45,15L47.5 14.7Q48.9 11.15 52.55 9.9Q56.2 8.7 57.3 7.95Q58.1 7.35 57.95 8.25Q56.7 9.3 55.35 9.65Q52.25 10.65 51.15 11.35L51.95 11.5L51.95 11.65Q50.05 12.25 49.15 13.2L47.75 14.85L47.5 15.05L47.45 15M26.2,18.9L26.65 17.5L26.65 17.45L27 16.35L27.7 14.2L27.9 13.65L28.45 11.6L29.25 13.2L28.8 14.5Q28.5 15.35 28.3 16.55L28.15 17L27.6 16.55L27.3 16.4L27.15 16.4L27.1 16.5L27.1 16.55L26.95 17.45L26.85 17.65L26.5 18.55L26.3 18.9L26.05 19.2L26.2 18.9M10.35,15.15L10.15 14.9L9.25 13.9L8.75 13.3Q7.85 12.35 5.95 11.75L5.95 11.6L6.75 11.45Q5.65 10.7 2.5 9.75Q1.2 9.35 -0.05 8.35Q-0.2 7.45 0.6 8.05Q1.7 8.8 5.35 9.95Q8.5 11.05 10 13.9L10.35 14.75L10.45 15.05L10.35 15.15" />
<path style="fill:#2C1335;fill-opacity:1" d="M51.6,-10.3L49.45 -6.7Q49.45 -6.15 49.35 -6.55L49.3 -6.7Q42.85 -3.9 37.45 -2.25Q32 -0.7 29.15 -0.85Q23.15 0.05 8.65 -6.85Q7.65 -8.45 6.9 -10.75Q15.25 -6.15 24.45 -3.6L26.3 -3.2L27.85 -3L31.9 -3.15Q34.5 -3.65 41.15 -6.4L49.6 -9.95L51.15 -10.6L51.5 -10.9L51.6 -10.3M28,37.8L27.9 37.85L25.15 36.75Q21.55 35.1 19.55 34.9Q18.05 34.75 17.4 33.35L17.45 33.15L17.55 33.05L16.75 31.05L15.7 26.85Q15.85 26.3 15.6 26.15L15.45 26L15.25 25.35Q14.35 25.65 13.7 26.1L13.7 26L13.25 26.3L12.3 26.9L11.75 27.3Q10.2 28.1 8.95 31.7Q7.7 35.25 7.65 34.75Q4.5 31.2 3.85 29.35L3.5 27.95L3.35 27.5L3.25 26.9Q2.95 25.45 3.05 24.1Q3.1 23 3.4 21.95L4 20.6L4.25 20.2L4.3 20.05L4.65 19.5L6.35 17.35Q7.5 16.1 8.65 15.65L8.8 15.65L9.4 15.45L10.35 15.15L10.45 15.05L11.55 14.85L11.4 13.8L11.4 13.75L11.35 13.7L11.35 13.65L11.2 13.05Q10.6 11.3 9.1 9.8Q7.05 9.1 5.35 5.1L4.45 2.4L4.45 2.25Q5.85 4.25 8.35 5.65L9.25 6.8Q11.7 9.1 12.65 10.85Q13.5 12.4 13.5 14.35L13.5 14.75L13.35 15.9L13.2 16.5L11.5 17.05Q9.35 17.9 7.95 19.15L7.5 19.65L6.8 20.4Q6.75 21.45 6 21.8Q5.5 22.7 5.35 23.6Q5.05 24.7 5.1 25.85L5.25 26.55L5.25 26.6L5.5 27.5L6 28.9Q6.5 30.15 7.2 30.9Q7.7 29.2 9.1 27.3Q11.05 24.6 14.6 23.8L14.65 22.85L14.65 22.75Q14.65 22.05 15.05 21.6L15.35 21.05L15.4 21.45L15.85 23.45Q16.45 26.15 17.4 29.5Q18.15 32.1 18.9 32.9Q19.55 33.65 21.85 34L25.9 35.05Q27.75 35.7 28.8 36.3L32.25 35Q34.05 34.25 36.2 33.95Q38.25 33.55 38.95 32.85Q39.65 32 40.4 29.45L42.5 21Q43.1 21.65 43.15 22.7L43.25 23.75Q46.8 24.55 48.7 27.2Q50.1 29.15 50.65 30.85L51.8 28.85L52.25 27.8L52.4 27.45Q53 25.35 52.55 23.5L51.9 21.75Q51.15 21.35 51.05 20.45L50.4 19.65L49.9 19.05Q48.65 17.9 46.8 17.15L46.5 17L44.65 16.4L44.4 14.9L44.35 14.7L44.35 14.55Q44.25 12.5 45.15 10.8Q46.1 9 48.55 6.7L49.9 5.1Q51.95 3.95 53.35 2.4L52.5 5Q50.75 9 48.7 9.75Q47.2 11.2 46.65 13L46.5 13.9L46.25 14.75L47.45 15L47.5 15.05L48.55 15.35L49.15 15.6Q50.35 16.05 51.5 17.3L53.15 19.35L53.5 19.95L53.6 20.1L53.8 20.55Q54.2 21.15 54.4 21.9L54.75 24Q54.9 25.8 54.4 27.85L53.95 29.3L53.2 30.85L50.2 34.7Q50.1 35.2 48.85 31.65Q47.6 28 46.05 27.2L45.5 26.85L44.55 26.25L44.1 25.95L44.1 26L42.55 25.3L42.45 26.05L42.4 26L42.4 26.1L42.2 26.15Q41.95 26.3 42.1 26.85L41.1 31.05L40.25 33.05L40.35 33.15L40.5 33.35Q39.75 34.7 38.5 34.9Q36.65 35.1 33.1 36.55Q29.45 37.85 29.15 38.1L28.2 37.95L28 37.8M32.8,17.3L32.5 16.4L35.4 14.2L36.65 13.3L37.1 13Q40.55 11.15 43 12.8L43.25 12.9L43 12.9L42.95 12.9L41.3 13L40.65 13.15Q40.85 14.35 40.4 15.35Q38.1 20.4 33.3 18.7L32.8 17.3M18.15,16.75L17.4 15.45L17.2 14.7Q17.05 13.95 17.2 13.2L14.65 13Q17.05 11.2 20.35 12.9L20.75 13.05L22.45 14.25L25.25 16.55L24.6 18.6L24.6 18.75Q20.45 20.2 18.15 16.75M18.3,13.75L18.35 15.05L18.45 15.5L18.5 15.75L18.95 16.5L19.55 17.05L21.25 18.2Q22.75 18.9 24.7 17.75L24.3 17.35L23.25 16.55L23 16.25L22.6 16.05L22.35 15.9Q20.15 14.4 18.3 13.75M33.1,17.65Q35.1 18.85 36.55 18.1L38.25 17L38.85 16.4L39.3 15.65L39.45 15L39.45 14.75L39.55 13.65Q37 14.55 33.7 17.2L33.1 17.65M31.4,27.5Q31.25 28.1 31 28L30.65 27.6L30.55 27.35Q30.35 26.4 31 25.5Q31.75 24.55 33.25 25.05Q34.55 25.5 33.45 25.65L33.25 25.65L32.95 25.75Q31.85 25.95 31.55 27L31.4 27.5M26.3,27.05Q26 26 24.85 25.8L24.6 25.75L24 25.65Q23.55 25.45 24.6 25.15Q26.05 24.6 26.8 25.6Q27.3 26.25 27.3 27.05L27.15 27.65L26.8 28.1L26.5 27.8L26.3 27.05" />
<path style="fill:#574F3D;fill-opacity:1" d="M17.85,5.5Q14.95 4.7 11.9 2.95L9.2 1.45L9.05 1.95Q7.7 1.8 6.6 0.85Q4.95 -0.55 3.8 -3.8L3.4 -4.85L2.9 -6.75Q2.75 -10.55 3.2 -12.15L4.1 -8.75L4.5 -6.15L4.95 -7.15L6.2 -5.3L8.15 -2.45L8.8 -1.45L9.85 -0.25L10.3 0.1L10.45 0.25L11.35 0.95L13.2 1.75L15.1 1.6L18.2 1.8Q19.55 2.1 21.1 3.15Q21.1 4.05 20.2 5.25L19.85 5.65L17.85 5.5M37.8,4.5L37.55 4.1Q36.7 2.95 36.8 1.95L37 1.95Q38.8 1.6 40.95 2.35Q40.55 1.9 40.85 1.45Q41.25 1.1 41.9 0.95L45.75 0.4Q47.35 0.1 49.65 -2.15L49.8 -2.4L50.7 -3.35L51.75 -4.7L53.9 -7.65L54.4 -8.45Q55.3 -9.8 55.75 -11.2L55.6 -6.85Q55 -4.7 54.05 -3Q52.9 -1.05 51.3 0.35L49.65 1.45L49.15 1.75L47.35 2.5L45.1 3.15L41.75 3.55L40.55 3.4L40.5 3.4L39.15 3.1Q38.7 3.15 38.4 3.75L37.8 4.5M57.65,9.2L56.75 11.2Q53.65 14.35 50.9 15.35L51.75 14.4Q52.9 12.55 52.55 12.05L49.9 14.55L48.55 15.35L47.5 15.05L47.75 14.85L49.15 13.2Q50.05 12.25 51.95 11.65L51.95 11.5L51.15 11.35Q52.25 10.65 55.35 9.65Q56.7 9.3 57.95 8.25L57.65 9.2M53.5,19.95L53.15 19.35Q54.45 19.65 56.1 20.6L53.5 19.95M29.7,14.2L29.7 14.25L29.75 16.35L29.75 16.55L29.75 17.3L29.75 17.5L29.55 18.75Q29.4 19.3 29.1 19.45L27.55 19.5L27.7 20.2L27.7 20.55L26.3 20.3L25.85 20.25L26.05 19.2L26.3 18.9L26.5 18.55L26.85 17.65L26.95 17.45L27.1 16.55L27.1 16.5L27.15 16.4L27.3 16.4L27.6 16.55L28.15 17L28.3 16.55Q28.5 15.35 28.8 14.5L29.25 13.2L29.7 14.2M2.5,9.75Q5.65 10.7 6.75 11.45L5.95 11.6L5.95 11.75Q7.85 12.35 8.75 13.3L9.25 13.9L10.15 14.9L10.35 15.15L9.4 15.45L8 14.65L7.1 13.9L5.35 12.1Q5.05 12.55 5.8 13.9L6.15 14.5L6.95 15.45L4.15 13.9L1.1 11.3L0.25 9.3L-0.05 8.35Q1.2 9.35 2.5 9.75M4.65,19.5L4.3 20.05L1.8 20.7Q3.35 19.75 4.65 19.5" />
<path style="fill:#2B2B23;fill-opacity:1" d="M19.85,5.65Q18.65 7.1 17.4 7L17.05 6.95L16.6 6.85L12.6 5.8L9.85 4.95Q8.3 4.1 7.1 3.15Q4.95 1.4 3.95 -0.9Q3.1 -2.55 2.95 -4.55L2.9 -6.75L3.4 -4.85L3.8 -3.8Q4.95 -0.55 6.6 0.85Q7.7 1.8 9.05 1.95L9.2 1.45L11.9 2.95Q14.95 4.7 17.85 5.5L19.85 5.65M38.4,3.75Q38.7 3.15 39.15 3.1L40.5 3.4L40.55 3.4L41.75 3.55L45.1 3.15L47.35 2.5L49.15 1.75L49.65 1.45L51.3 0.35Q52.9 -1.05 54.05 -3Q55 -4.7 55.6 -6.85L55.3 -4.55Q55 -2.3 53.9 -0.45Q52.75 1.4 50.85 2.85Q49.5 3.75 47.8 4.5L47.8 4.55L45 5.25L44.5 5.4L40.65 6.1Q39 6.35 37.8 4.5L38.4 3.75M51.5,17.3Q50.35 16.05 49.15 15.6L48.55 15.35L49.9 14.55L52.55 12.05Q52.9 12.55 51.75 14.4L50.9 15.35Q53.65 14.35 56.75 11.2L55 13.75Q53.35 15.8 51.5 17.3M56.1,20.6L57.5 21.5L55.45 20.85L53.8 20.55L53.6 20.1L53.5 19.95L56.1 20.6M25.85,20.25L26.3 20.3L27.7 20.55L27.7 20.2L27.55 19.5L29.1 19.45Q29.4 19.3 29.55 18.75L29.75 17.5L29.75 17.3L29.75 16.55L29.75 16.35L29.7 14.25L30.35 15.75L30.65 16.5L31 17.3L31.1 17.45L31.55 18.7L32.05 20.3L32.2 20.9L30.85 21.75Q28.65 22.7 26.35 21.8L25.45 21.35L25.7 20.7L25.85 20.4L25.85 20.25M2.95,13.9L2.9 13.8L1.1 11.3L4.15 13.9L6.95 15.45L6.15 14.5L5.8 13.9Q5.05 12.55 5.35 12.1L7.1 13.9L8 14.65L9.4 15.45L8.8 15.65L8.65 15.65Q7.5 16.1 6.35 17.35Q4.5 15.9 2.95 13.9M4.3,20.05L4.25 20.2L4 20.6L2.45 20.9L0.4 21.6L1.8 20.7L4.3 20.05" />
<path style="fill:#AF87CD;fill-opacity:1" d="M35.25,0.7L34.7 -0.05L34.65 -0.05Q34.7 1 30.65 0.25L30.95 0.85L22.8 0.1Q22.15 0.05 20.45 -0.55L20.15 -0.7L19.6 -0.9L19.55 -1.05L18.75 -1.15L16.65 -2L11.55 -4.15L11.55 -3.75L11.35 -3.9Q9.85 -4.9 8.65 -6.85Q23.15 0.05 29.15 -0.85Q32 -0.7 37.45 -2.25Q42.85 -3.9 49.3 -6.7L49.35 -6.55Q48.2 -5.15 46.95 -4.3Q43.9 -2.45 38.55 -2.15L38.55 -1.95L37.95 -1.8L36.85 -0.9Q36.1 -0.05 35.75 1L35.25 0.7M38.2,7.25L38.65 7.45L38.4 7.5Q37.7 7.8 38.2 7.25M5.1,25.85Q5.05 24.7 5.35 23.6Q5.5 22.7 6 21.8Q6.75 21.45 6.8 20.4L7.5 19.65L7.95 19.15Q9.35 17.9 11.5 17.05L13.2 16.5L13.35 15.9L13.9 16.05Q14.8 16.35 16.3 17.6L16.05 17.65L16.05 17.9L16.05 18.05L15.85 18.2L15.05 18.05L14.95 17.9Q12.45 18.45 11.05 19.15L10.8 19L9.9 18.85Q9.65 18.85 9.7 19.15L10 19.65L9.65 19.9L9.2 20.3L9.5 20.55L9.55 20.6L9.55 20.75L9.55 20.9L9.5 21.2L9.2 21.45L8.65 21.65L8.35 21.75L8.3 21.5L8.2 21.6L7.85 21.2L7.7 21.35Q7.2 22.05 7.95 21.75L8.15 21.65L7.7 22.25L7.85 22.3L7.95 22.4L7.95 22.55L7.95 22.6L7.85 22.85L7.7 23.2L7.4 23.2L6.95 23.2L6.6 23.75L5.1 25.85M47,18.25L47 18.45L46.65 18.85Q45.9 18.9 45.95 18.25Q45.95 17.95 46.2 17.95L46.65 17.95L47 18.25M34,20.75L35.3 21.35L36.35 21.5L36.5 21.65L37.15 22.6L37.15 23.95L35.85 23.15Q35.7 23 35.6 23L35.25 23.05Q34.35 23.05 33.85 22.4L33.75 22.15L33.25 22.05L34 21.2L34 20.75M28.55,23.75Q29.1 23.95 28.85 24.45Q28.65 25 28.3 24.55L28.2 24.4L28.2 24.15Q28.2 23.95 28.35 23.8L28.55 23.75M24.15,20.85L24.15 21.65L24 21.65L23.75 21.75L23.7 21.8L23.6 21.95Q23.55 21.95 23.45 22.05L23.45 22.25L23.45 22.55L23.45 22.6L22.65 22.55Q22.6 22.55 22.45 22.7L22.35 22.85L22.65 23.05L22.75 23.3L22.65 23.35L22.5 23.5L22.2 23.6L22 23.5L21.9 23.5L21.75 23.75L21.6 23.95L21.45 24L21.15 24Q20.8 23.95 20.65 23.75L20.5 23.2L20.5 23.05L20.75 22.9L20.8 22.9Q20.45 22.45 21.9 21.45L24.15 20.85M49.2,20.9L49.45 20.75Q49.8 20.75 49.9 21.05Q50.05 21.45 49.75 21.6L49.6 21.65L49.05 21.5L48.9 21.35L49 21.15L49.2 20.9M38.95,11.65Q36.4 12.2 34.65 13.15L33.6 13.15L33.6 12.85L35 11.3Q35.7 10.65 37.4 10.65L38.65 10.7L38.95 11.65M30.05,3.4Q31.85 4.2 30.15 5.15Q29.15 5.6 29.1 4.55Q29.1 3.55 30.05 3.4M22.95,11.8L23.1 11.9L23.3 12.1L23.25 12.05Q23 12.05 22.95 12.35Q22.8 12.9 23.45 13.05L23.75 13.15L23.7 13.15L20.65 12.4L17.75 11.5L17.9 10.8L20.15 10.8L22.15 11.35L22.75 11.65L22.95 11.8M17.85,20.25Q17.75 20.6 17.45 20.6Q16.75 20.7 16.8 20.05Q16.8 19.75 17.05 19.75L17.45 19.75L17.85 20.05L17.85 20.25M35.1,29.85L35.15 30.1Q34.65 30.75 34 30.1L33.85 29.8L33.85 29.65L34.2 29.35L34.4 29.45L34.65 29.5L35.1 29.85M26.15,29.95L26.15 30.15Q25.9 30.85 25.15 30.3Q24.8 30.1 25 29.7L25.3 29.5L25.75 29.55L26.15 29.95M28.55,30.55Q29.4 30.7 28.7 31Q28 31.35 28.45 30.7L28.55 30.55" />
<path style="fill:#7E52A1;fill-opacity:1" d="M14.65,21.15Q14.2 20.85 13.4 20.7L12.3 20.55L12.9 21.45L12.9 21.5L13.2 22.4Q13.2 23.35 8.6 25.3L7.8 25.6L7.8 25.75L7.8 26L7.8 26.15L7.65 26.25L7.55 26.3L6.5 26.25L6.45 26.1L6.45 26L6.45 25.85L6.35 25.85Q5.7 25.95 5.25 26.55L5.1 25.85L6.6 23.75L6.95 23.2L7.4 23.2L7.7 23.2L7.85 22.85L7.95 22.6L7.95 22.55L7.95 22.4L7.85 22.3L7.7 22.25L8.15 21.65L7.95 21.75Q7.2 22.05 7.7 21.35L7.85 21.2L8.2 21.6L8.3 21.5L8.35 21.75L8.65 21.65L9.2 21.45L9.5 21.2L9.55 20.9L9.55 20.75L9.55 20.6L9.5 20.55L9.2 20.3L9.65 19.9L10 19.65L9.7 19.15Q9.65 18.85 9.9 18.85L10.8 19L11.05 19.15Q12.45 18.45 14.95 17.9L15.05 18.05L15.85 18.2L16.05 18.05L16.05 17.9L16.05 17.65L16.3 17.6Q14.8 16.35 13.9 16.05L13.35 15.9L13.5 14.75L13.5 14.35L14.8 14.75L14.8 14.05L14.65 13L17.2 13.2Q17.05 13.95 17.2 14.7L17.4 15.45L18.15 16.75Q18.35 17.9 19.7 19.35L21.45 21.6L21.9 21.45Q20.45 22.45 20.8 22.9L20.75 22.9L20.5 23.05L20.5 23.2L20.65 23.75Q20.8 23.95 21.15 24L21.45 24L21.6 23.95L21.75 23.75L21.9 23.5L22 23.5L22.2 23.6L22.5 23.5L22.65 23.35L22.75 23.3L22.65 23.05L22.35 22.85L22.45 22.7Q22.6 22.55 22.65 22.55L23.45 22.6L23.45 22.55L23.45 22.25L23.45 22.05Q23.55 21.95 23.6 21.95L23.7 21.8L23.75 21.75L24 21.65L24.15 21.65L24.15 22.15Q24.15 23.3 27.75 23.65L28.55 23.75L28.35 23.8Q28.2 23.95 28.2 24.15L28.2 24.4L28.3 24.55Q28.65 25 28.85 24.45Q29.1 23.95 28.55 23.75Q31.6 23.9 33.25 22.05L33.75 22.15L33.85 22.4Q34.35 23.05 35.25 23.05L35.6 23Q35.7 23 35.85 23.15L37.15 23.95L37.15 22.6L36.5 21.65L36.35 21.5L38.35 20.2L38.35 20.05Q38.25 19.65 38.55 19.45Q38.7 19.3 38.8 19.3L38.95 19.3L39.1 19.35L39.3 19.5L39.4 19.6L39.9 19.2Q42.05 18.05 42.05 16.55L41.8 14.7L41.3 13L42.95 12.9L43 12.9L43.25 12.9L43 12.8Q40.55 11.15 37.1 13L36.65 13.3Q35.25 13.8 33.85 14.65Q32.85 15.15 32.2 15.6L31.6 14.1L31.25 13.15L33.45 11.95L33.6 11.9L34.85 10.95Q35.4 10.1 35.4 9L35.25 7.8L31.75 9.75L29.75 9.9L29.75 9.95L29.85 10.2L28.45 7.9Q27.9 8.1 27.3 9.45L27.15 9.95Q25.3 9.8 23.6 8.65Q21.75 7.3 22.15 8.65Q22.5 9.95 25.75 12.2L26.35 12.55L25.6 15.05L25.6 15.2L25.55 15.6L24.05 14.65Q22.3 13.3 20.35 12.9Q17.05 11.2 14.65 13L14.2 11.8L12.9 9.45L12 7.5L11.9 7.5L11.7 7.5Q11.25 7.6 11.05 7.15L11.05 7.1L10.8 6.95L10.05 6.5Q12.35 7.35 15.25 7.9L15.85 8.2L17.05 8.55L18.65 8.55Q20.45 8.25 21.6 6.2L22.15 5.3L22.35 4.05Q22.6 2.1 21.15 0.25L20.45 -0.55Q22.15 0.05 22.8 0.1L30.95 0.85L30.65 0.25Q34.7 1 34.65 -0.05L34.7 -0.05L35.25 0.7L35.75 1L35.55 1.7L35.45 3L35.75 4.05L36.05 4.95Q36.85 6.55 38.2 7.25Q37.7 7.8 38.4 7.5L38.65 7.45L41.65 7.3L42.35 7.1L44.1 6.85L43.45 7.9Q42.7 8.4 42.05 8.4L42.05 9.6Q42.25 10.85 43.1 12.4L43.5 13.2L44.35 14.55L44.35 14.7L44.4 14.9L44.65 16.4L46.5 17L46.8 17.15Q48.65 17.9 49.9 19.05L50.4 19.65L51.05 20.45Q51.15 21.35 51.9 21.75L52.55 23.5Q53 25.35 52.4 27.45L52.25 27.8L52.05 27.35Q51.3 26 50.25 25L49.15 23.95Q48.5 24.25 48.05 23.65L48.05 23.5L48.1 23.3L48.25 23.2L46.1 21.5L46.1 21.45L46.05 21.2L46.05 21.05L45.9 21L45.35 20.6L44.7 20.45Q44.25 20.55 44.5 20.9L44.55 21.45L44.55 21.5L43.9 21.2L42.65 20.4L41.45 20.4L41.45 20.55L41.65 21.3L41.9 22.15L41.75 22.15L40.65 21.75L39.65 21.3L39.65 23.2Q39.55 25.3 39.1 26.6Q38.8 27.6 37.55 28.1Q36.7 28.4 37 29.85L37.3 29.85Q37.45 29.85 37.6 30L37.6 30.15L37.6 30.45L37.4 30.75L37.15 31L36.8 31Q35.45 32.15 29.7 33.85L27.15 33.65Q25.9 33.4 25 32.75L22.75 31.3L22.05 30.85L21.45 31L20.75 30.7L20.65 30.3L20.65 30L20.75 29.8L20.3 29.45L20.15 29.3Q19.05 28 17.7 25.75L15.55 21.3L15.4 21.45L15.35 21.05L15.05 21.6L14.65 21.15M18.75,-1.15Q14.2 -1.95 11.55 -3.75L11.55 -4.15L16.65 -2L18.75 -1.15M45,8.5Q45.1 8.2 45.3 8.2L45.6 8.35L45.9 8.55L45.95 8.8Q45.75 9.3 45.15 8.95Q44.85 8.8 45 8.5M46.65,17.95L46.2 17.95Q45.95 17.95 45.95 18.25Q45.9 18.9 46.65 18.85L47 18.45L47 18.25L46.65 17.95M44.65,17.35L44.4 17.2L44.25 17.35Q43.75 18.05 44.5 17.75L44.8 17.5L44.65 17.35M49,21.15L48.9 21.35L49.05 21.5L49.6 21.65L49.75 21.6Q50.05 21.45 49.9 21.05Q49.8 20.75 49.45 20.75L49.2 20.9L49 21.15M50.2,26.4L50.35 26.25Q51.05 26.4 50.65 26.6L50.5 26.7Q49.75 27.05 50.2 26.4M38.65,10.7L37.4 10.65Q35.7 10.65 35 11.3L33.6 12.85L33.6 13.15L34.65 13.15Q36.4 12.2 38.95 11.65L38.65 10.7M29.1,4.55Q29.15 5.6 30.15 5.15Q31.85 4.2 30.05 3.4Q29.1 3.55 29.1 4.55M22.75,11.65L22.15 11.35L20.15 10.8L17.9 10.8L17.75 11.5L20.65 12.4L23.7 13.15L23.75 13.15L23.45 13.05Q22.8 12.9 22.95 12.35Q23 12.05 23.25 12.05L23.3 12.1L23.1 11.9L22.95 11.8L22.75 11.65M17.85,20.05L17.45 19.75L17.05 19.75Q16.8 19.75 16.8 20.05Q16.75 20.7 17.45 20.6Q17.75 20.6 17.85 20.25L17.85 20.05M20.15,31.7L20.2 32L20 32.45Q19.4 32.6 19.15 32.1Q18.95 31.65 19.4 31.35L19.55 31.3L19.7 31.3L19.85 31.35L20.05 31.5L20.15 31.7M33.25,25.05Q31.75 24.55 31 25.5Q30.35 26.4 30.55 27.35L30.65 27.6L31 28Q31.25 28.1 31.4 27.5L32.05 27.65Q33.6 27.65 33.6 26.1L33.55 25.65L33.45 25.65Q34.55 25.5 33.25 25.05M34.65,29.5L34.4 29.45L34.2 29.35L33.85 29.65L33.85 29.8L34 30.1Q34.65 30.75 35.15 30.1L35.1 29.85L34.65 29.5M38.55,31.8L38.5 32.4L38.35 32.6Q37.75 32.7 37.75 32.1Q37.75 31.65 38.05 31.5L38.2 31.4L38.55 31.8M24.45,26.9Q24.5 27.35 25.9 27.8L26.5 27.8L26.8 28.1L27.15 27.65L27.3 27.05Q27.3 26.25 26.8 25.6Q26.05 24.6 24.6 25.15Q23.55 25.45 24 25.65L24.45 26.9M25.75,29.55L25.3 29.5L25 29.7Q24.8 30.1 25.15 30.3Q25.9 30.85 26.15 30.15L26.15 29.95L25.75 29.55M28.45,30.7Q28 31.35 28.7 31Q29.4 30.7 28.55 30.55L28.45 30.7" />
<path style="fill:#80260B;fill-opacity:1" d="M52.05,-11.4L51.6 -10.3L51.5 -10.9L52.05 -11.45L52.05 -11.4" />
<path style="fill:#512A70;fill-opacity:1" d="M10.8,6.95L11.05 7.1L11.05 7.15Q11.25 7.6 11.7 7.5L11.9 7.5L12 7.5L12.9 9.45L14.2 11.8L14.65 13L14.8 14.05L14.8 14.75L13.5 14.35Q13.5 12.4 12.65 10.85Q11.7 9.1 9.25 6.8L8.35 5.65L10.05 6.5L10.8 6.95M44.35,14.55L43.5 13.2L43.1 12.4Q42.25 10.85 42.05 9.6L42.05 8.4Q42.7 8.4 43.45 7.9L44.1 6.85Q47.45 6.25 49.9 5.1L48.55 6.7Q46.1 9 45.15 10.8Q44.25 12.5 44.35 14.55M45.15,8.95Q45.75 9.3 45.95 8.8L45.9 8.55L45.6 8.35L45.3 8.2Q45.1 8.2 45 8.5Q44.85 8.8 45.15 8.95M52.25,27.8L51.8 28.85L50.65 30.85Q50.1 29.15 48.7 27.2Q46.8 24.55 43.25 23.75L43.15 22.7Q43.1 21.65 42.5 21L40.4 29.45Q39.65 32 38.95 32.85Q38.25 33.55 36.2 33.95Q34.05 34.25 32.25 35L28.8 36.3Q27.75 35.7 25.9 35.05L21.85 34Q19.55 33.65 18.9 32.9Q18.15 32.1 17.4 29.5Q16.45 26.15 15.85 23.45L15.4 21.45L15.55 21.3L17.7 25.75Q19.05 28 20.15 29.3L20.3 29.45L20.75 29.8L20.65 30L20.65 30.3L20.75 30.7L21.45 31L22.05 30.85L22.75 31.3L25 32.75Q25.9 33.4 27.15 33.65L29.7 33.85Q35.45 32.15 36.8 31L37.15 31L37.4 30.75L37.6 30.45L37.6 30.15L37.6 30Q37.45 29.85 37.3 29.85L37 29.85Q36.7 28.4 37.55 28.1Q38.8 27.6 39.1 26.6Q39.55 25.3 39.65 23.2L39.65 21.3L40.65 21.75L41.75 22.15L41.9 22.15L41.65 21.3L41.45 20.55L41.45 20.4L42.65 20.4L43.9 21.2L44.55 21.5L44.55 21.45L44.5 20.9Q44.25 20.55 44.7 20.45L45.35 20.6L45.9 21L46.05 21.05L46.05 21.2L46.1 21.45L46.1 21.5L48.25 23.2L48.1 23.3L48.05 23.5L48.05 23.65Q48.5 24.25 49.15 23.95L50.25 25Q51.3 26 52.05 27.35L52.25 27.8M15.05,21.6Q14.65 22.05 14.65 22.75L14.65 22.85L14.6 23.8Q11.05 24.6 9.1 27.3Q7.7 29.2 7.2 30.9Q6.5 30.15 6 28.9L5.5 27.5L5.25 26.6L5.25 26.55Q5.7 25.95 6.35 25.85L6.45 25.85L6.45 26L6.45 26.1L6.5 26.25L7.55 26.3L7.65 26.25L7.8 26.15L7.8 26L7.8 25.75L7.8 25.6L8.6 25.3Q13.2 23.35 13.2 22.4L12.9 21.5L12.9 21.45L12.3 20.55L13.4 20.7Q14.2 20.85 14.65 21.15L15.05 21.6M35.3,21.35L34 20.75L33.9 20.45L33.45 19.2L33.3 18.7Q38.1 20.4 40.4 15.35Q40.85 14.35 40.65 13.15L41.3 13L41.8 14.7L42.05 16.55Q42.05 18.05 39.9 19.2L39.4 19.6L39.3 19.5L39.1 19.35L38.95 19.3L38.8 19.3Q38.7 19.3 38.55 19.45Q38.25 19.65 38.35 20.05L38.35 20.2L36.35 21.5L35.3 21.35M24.6,18.75L24.3 19.65L24.2 20.2L24.15 20.85L21.9 21.45L21.45 21.6L19.7 19.35Q18.35 17.9 18.15 16.75Q20.45 20.2 24.6 18.75M44.8,17.5L44.5 17.75Q43.75 18.05 44.25 17.35L44.4 17.2L44.65 17.35L44.8 17.5M50.5,26.7L50.65 26.6Q51.05 26.4 50.35 26.25L50.2 26.4Q49.75 27.05 50.5 26.7M30.4,11.3L29.85 10.2L29.75 9.95L29.75 9.9L31.75 9.75L35.25 7.8L35.4 9Q35.4 10.1 34.85 10.95L33.6 11.9L33.45 11.95L31.25 13.15L30.4 11.3M32.2,15.6Q32.85 15.15 33.85 14.65Q35.25 13.8 36.65 13.3L35.4 14.2L32.5 16.4L32.2 15.6M26.35,12.55L25.75 12.2Q22.5 9.95 22.15 8.65Q21.75 7.3 23.6 8.65Q25.3 9.8 27.15 9.95L26.35 12.55M25.55,15.6L25.25 16.55L22.45 14.25L20.75 13.05L20.35 12.9Q22.3 13.3 24.05 14.65L25.55 15.6M20.05,31.5L19.85 31.35L19.7 31.3L19.55 31.3L19.4 31.35Q18.95 31.65 19.15 32.1Q19.4 32.6 20 32.45L20.2 32L20.15 31.7L20.05 31.5M31.55,27Q31.85 25.95 32.95 25.75L33.25 25.65L33.45 25.65L33.55 25.65L33.6 26.1Q33.6 27.65 32.05 27.65L31.4 27.5L31.55 27M38.2,31.4L38.05 31.5Q37.75 31.65 37.75 32.1Q37.75 32.7 38.35 32.6L38.5 32.4L38.55 31.8L38.2 31.4M26.5,27.8L25.9 27.8Q24.5 27.35 24.45 26.9L24 25.65L24.6 25.75L24.85 25.8Q26 26 26.3 27.05L26.5 27.8" />
<path style="fill:#5F473D;fill-opacity:1" d="M45.5,26.85L45.3 31.55L45 34.45Q42.65 38.45 38.65 41.85L38.55 41.95Q36.2 43.85 34.1 45.05L34.2 44.15L34.1 43.5L36.1 42.25L38.8 39.95L42.1 36.1L42.2 36.1Q44.2 34.25 44.5 31.4Q44.65 29.65 43.65 27.8Q43.8 26.85 44.1 26L44.1 25.95L44.55 26.25L45.5 26.85M15.9,36.55L15.35 37.1L14.9 37.65L12.8 34.55Q12.5 33.2 12.5 31.65L12.3 26.9L13.25 26.3L13.7 26L13.7 26.1L14.2 27.8Q13.2 29.65 13.35 31.4Q13.6 34 15.35 35.8L15.4 35.85L15.4 35.9L15.55 36.1L15.9 36.55" />
<path style="fill:#9C8D74;fill-opacity:1" d="M42.45,26.05L42.55 25.3L44.1 26Q43.8 26.85 43.65 27.8L42.45 26.05M33.75,43.65L34.1 43.35Q35.85 41.8 36.55 39.65L36.85 40.25L36.85 39.35L36.4 38.4L36.35 38.4L36.25 38.55L35.85 38.4L35.4 38L33.9 38.9L33.6 38.55L33.15 38.4Q32.95 38.4 32.85 38.6Q32.7 39.05 33.15 39.2L33.3 39.25Q32.15 39.85 31.3 40.3L29.55 40.9L29.55 41.1L29.45 41.35L28.5 41.5L28 41.2L28 40.8Q26.45 40.55 24.15 39.4L24.15 39.35L23.85 38.7Q23.6 38.4 23.25 38.4L23 38.45L22.95 38.6L22.8 38.7L22.8 38.85L21.25 38.25L21 38.45L20.9 38.55L20.6 38.3L20.15 38Q19.6 37.95 19.85 37.65Q18.05 36.55 17.3 35.5L17.25 35.5L16.95 35.1L16.95 35Q16.95 34.1 17.4 33.35Q18.05 34.75 19.55 34.9Q21.55 35.1 25.15 36.75L27.9 37.85L27.85 37.95Q27.3 38.6 28.05 38.3Q28.5 38.15 28.2 37.95L29.15 38.1Q29.45 37.85 33.1 36.55Q36.65 35.1 38.5 34.9Q39.75 34.7 40.5 33.35Q40.85 34.1 40.85 35L41.1 36.4L41.8 36.3L42.1 36.1L38.8 39.95L36.1 42.25L34.1 43.5L33.75 43.65M13.7,26.1Q14.35 25.65 15.25 25.35L15.45 26L15.4 26L14.2 27.8L13.7 26.1M15.55,36.1L15.4 35.9L15.55 36L15.55 36.1M17.6,36.75Q18.45 36.9 17.75 37.2Q17.05 37.55 17.45 36.9L17.6 36.75M38.95,36.85L38.5 37.25Q38.35 37.5 38.5 37.8L38.8 37.85Q39.3 37.95 39.55 37.4Q39.75 36.85 39.1 36.75L38.95 36.85M26.15,42L25 42.15Q24.5 41.95 24.65 41.35Q24.7 41.05 25 41.05L25.6 41.25L26.05 41.8L26.15 42M30.95,42.95Q31.75 43.1 31.1 43.4Q30.35 43.8 30.8 43.1L30.95 42.95M33.3,41.5Q32.95 41.25 33.15 40.9L33.45 40.75L33.75 40.95L34 41.25L33.9 41.5Q33.6 41.8 33.3 41.5" />
<path style="fill:#4A443F;fill-opacity:1" d="M41.1,31.05L41.15 31.2L41.4 32L41.9 34.6L42.2 34.4L42.4 34.1L43.35 32.15L43.35 31.95Q43.6 31 43.35 30L42.8 28.3L42.7 28.15L42.5 27.85L42.5 27.8L42.2 27L42.1 26.85Q41.95 26.3 42.2 26.15L42.4 26.1L42.4 26L42.45 26.05L43.65 27.8Q44.65 29.65 44.5 31.4Q44.2 34.25 42.2 36.1L42.1 36.1L41.8 36.3L41.1 36.4L40.85 35Q40.85 34.1 40.5 33.35L40.35 33.15L40.25 33.05L41.1 31.05M17.55,33.05L17.45 33.15L17.4 33.35Q16.95 34.1 16.95 35L16.95 35.1L16.75 36.4L16 36.3L15.7 36.1L15.6 36.1L15.55 36L15.4 35.9L15.4 35.85L15.35 35.8Q13.6 34 13.35 31.4Q13.2 29.65 14.2 27.8L15.4 26L15.45 26L15.6 26.15Q15.85 26.3 15.7 26.85L15.7 27L15.35 27.8L15.35 27.85L15.1 28.15L15.05 28.3Q14.6 29.15 14.45 30Q14.2 31 14.45 31.95L14.5 32.1L14.9 33.25L15.05 33.5L15.4 34.1L15.6 34.4L15.9 34.6Q16 33.35 16.45 32L16.75 31.3L16.75 31.05L17.55 33.05" />
<path style="fill:#97A2AC;fill-opacity:1" d="M41.9,30.25L42.2 34.25L42.2 34.4L41.9 34.6L41.4 32L41.15 31.2L41.1 31.05L42.1 26.85L42.2 27L42.5 27.8L41.9 30.25M16.75,31.05L16.75 31.3L16.45 32Q16 33.35 15.9 34.6L15.6 34.4L15.6 34.25L15.7 33.25L15.75 33.05L15.9 30.25L15.35 27.8L15.7 27L15.7 26.85L16.75 31.05" />
<path style="fill:#CCC6C4;fill-opacity:1" d="M42.4,34.1L42.2 34.4L42.2 34.25L41.9 30.25L42.5 27.8L42.5 27.85L42.7 28.15L42.8 28.3L42.55 31.85L42.4 34.1M15.4,34.1L15.4 33.55L15.35 32.75L15.25 31.85L15.05 28.3L15.1 28.15L15.35 27.85L15.35 27.8L15.9 30.25L15.75 33.05L15.7 33.25L15.6 34.25L15.6 34.4L15.4 34.1" />
<path style="fill:#DFDFDF;fill-opacity:1" d="M42.55,31.85L42.8 28.3L43.35 30Q43.6 31 43.35 31.95L43.35 32.15L42.4 34.1L42.55 31.85M15.4,34.1L15.05 33.5L14.9 33.25L14.5 32.1L14.45 31.95Q14.2 31 14.45 30Q14.6 29.15 15.05 28.3L15.25 31.85L15.35 32.75L15.4 33.55L15.4 34.1" />
<path style="fill:#FFFFFF;fill-opacity:1" d="M23.25,16.6L23.3 16.85Q22.75 17.35 22.3 16.75L22.3 16.7L22 16.6L21.85 16.5L21.85 16.25L21.9 16.05Q22.05 15.9 22.2 15.9L22.35 15.9L22.6 16.05L23 16.25L23.25 16.55L23.25 16.6M39,15.05L38.8 15.35L37.6 15.45L37.55 15.3L37.55 15Q37.45 14.7 37.7 14.55L37.9 14.4L38.5 14.5L38.95 14.85L39 15.05" />
<path style="fill:#FFF980;fill-opacity:1" d="M18.45,15.5L18.35 15.05L18.3 13.75Q20.15 14.4 22.35 15.9L22.2 15.9Q22.05 15.9 21.9 16.05L21.85 16.25L21.85 16.5L22 16.6L22.3 16.7L22.3 16.75Q22.75 17.35 23.3 16.85L23.25 16.6L23.25 16.55L24.3 17.35L22.8 17.3Q21.45 17.2 19.15 15.95Q18.8 15.65 18.45 15.5M38.95,14.85L38.5 14.5L37.9 14.4L37.7 14.55Q37.45 14.7 37.55 15L37.55 15.3L37.6 15.45L38.8 15.35L39 15.05L38.95 14.85M36.05,17L33.7 17.2Q37 14.55 39.55 13.65L39.45 14.75Q38.35 16.5 36.05 17" />
<path style="fill:#E7950A;fill-opacity:1" d="M19.15,15.95Q21.45 17.2 22.8 17.3L24.3 17.35L24.7 17.75Q22.75 18.9 21.25 18.2L19.55 17.05L18.95 16.5L18.5 15.75L18.45 15.5Q18.8 15.65 19.15 15.95M39.45,14.75L39.45 15L39.3 15.65L38.85 16.4L38.25 17L36.55 18.1Q35.1 18.85 33.1 17.65L33.7 17.2L36.05 17Q38.35 16.5 39.45 14.75" />
<path style="fill:#CCC6B8;fill-opacity:1" d="M28.2,37.95Q28.5 38.15 28.05 38.3Q27.3 38.6 27.85 37.95L27.9 37.85L28 37.8L28.2 37.95M15.9,36.55L15.55 36.1L15.55 36L15.6 36.1L15.7 36.1L16 36.3L16.75 36.4L16.95 35.1L17.25 35.5L17.3 35.5Q18.05 36.55 19.85 37.65Q19.6 37.95 20.15 38L20.6 38.3L20.9 38.55L21 38.45L21.25 38.25L22.8 38.85L22.8 38.7L22.95 38.6L23 38.45L23.25 38.4Q23.6 38.4 23.85 38.7L24.15 39.35L24.15 39.4Q26.45 40.55 28 40.8L28 41.2L28.5 41.5L29.45 41.35L29.55 41.1L29.55 40.9L31.3 40.3Q32.15 39.85 33.3 39.25L33.15 39.2Q32.7 39.05 32.85 38.6Q32.95 38.4 33.15 38.4L33.6 38.55L33.9 38.9L35.4 38L35.85 38.4L36.25 38.55L36.35 38.4L36.4 38.4L36.85 39.35L36.85 40.25L36.55 39.65Q35.85 41.8 34.1 43.35L33.75 43.65L30.2 45.05L28.95 45.4L28.85 45.4L28.55 45.35L28.95 45.05L28.95 44.9L28.55 44.6L28.15 44.6Q27.75 44.6 27.85 44.9L27.9 45.1L23.3 42.25L18.35 39.05L18.35 39.35L15.9 36.55M17.45,36.9Q17.05 37.55 17.75 37.2Q18.45 36.9 17.6 36.75L17.45 36.9M39.1,36.75Q39.75 36.85 39.55 37.4Q39.3 37.95 38.8 37.85L38.5 37.8Q38.35 37.5 38.5 37.25L38.95 36.85L39.1 36.75M26.05,41.8L25.6 41.25L25 41.05Q24.7 41.05 24.65 41.35Q24.5 41.95 25 42.15L26.15 42L26.05 41.8M28.45,42.8Q27.9 43.5 28.65 43.2Q29.25 43.05 28.55 42.65L28.45 42.8M27.7,42.95Q27.15 43.65 27.9 43.35Q28.5 43.2 27.85 42.8L27.7 42.95M30.8,43.1Q30.35 43.8 31.1 43.4Q31.75 43.1 30.95 42.95L30.8 43.1M33.9,41.5L34 41.25L33.75 40.95L33.45 40.75L33.15 40.9Q32.95 41.25 33.3 41.5Q33.6 41.8 33.9 41.5" />
<path style="fill:#74574C;fill-opacity:1" d="M28.55,45.35L28.85 45.4L28.95 45.4L30.2 45.05L33.75 43.65L34.1 43.5L34.2 44.15L34.1 45.05L31.25 46.5L28.95 47.4L26.45 46.65Q23.15 45.95 19.15 42.3L16.15 39.2L15.1 37.85L14.9 37.65L15.35 37.1L15.9 36.55L18.35 39.35Q20.15 41.25 21.7 42.3Q24.6 44.3 27.6 45.1L27.9 45.2L28.55 45.35" />
<path style="fill:#E9E7DA;fill-opacity:1" d="M27.9,45.2L27.6 45.1Q24.6 44.3 21.7 42.3Q20.15 41.25 18.35 39.35L18.35 39.05L23.3 42.25L27.9 45.1L27.85 44.9Q27.75 44.6 28.15 44.6L28.55 44.6L28.95 44.9L28.95 45.05L28.55 45.35L27.9 45.2M28.55,42.65Q29.25 43.05 28.65 43.2Q27.9 43.5 28.45 42.8L28.55 42.65M27.85,42.8Q28.5 43.2 27.9 43.35Q27.15 43.65 27.7 42.95L27.85 42.8" />
</g>
</svg>
