<?xml version="1.0" encoding="utf-8"?>
<svg version="1.1" id="Layer_1"
xmlns="http://www.w3.org/2000/svg"
xmlns:xlink="http://www.w3.org/1999/xlink"
xmlns:author="http://www.sothink.com"
width="22px" height="24px"
xml:space="preserve">
<g id="2786" transform="matrix(1, 0, 0, 1, 0, 0)">
<path style="fill:#20272E;fill-opacity:1" d="M17.35,14.2Q15.6 13.25 13.1 12.8Q13.9 9.7 10.8 7.35Q10.45 7.05 10.6 7.25L11.6 8.95Q12.45 10.45 12.1 12.55Q12.15 13.1 11.5 13.85L11.15 14.2Q9.25 15.75 6.4 14.5L6.3 14.45Q5.5 13.6 5.6 13.15L6.5 13.05L5.55 12.1Q4.35 11.25 3.2 9.65L1.8 7.9L1.3 6.9Q1.4 5.1 1.8 4.15L2.35 3.2Q3.2 2.4 4.15 2.15L6.95 1.45Q10.7 0.8 14 2.1L13.9 2.3Q13.9 2.55 14.8 3.05Q16.2 3.9 18.3 6.2L18.35 6.25Q19.3 8.1 19.3 9.85L19 11.85L18.5 12.35L18.15 12.15L17.8 11.85Q17.75 13.5 17.35 14.2M2.35,14.75Q2.45 14.2 2.85 13.8Q4.55 15.35 6.95 16.05Q8.75 16.6 10.45 16.1L10.8 16L11.5 15.7Q11.25 16.85 10.3 17.65Q9.15 18.7 7.35 18.7L8.7 17.85Q8.2 17.35 7.9 17.35L8 17.25L8.4 17.15L5.25 16.6L3.8 16Q2.85 15.45 2.35 14.75M14.45,18.3L14.5 18.35Q14.9 18.45 15.2 19.95Q15.55 21.4 13.2 22.4L13.15 22.4Q11.5 22.25 10.5 21.2Q9.5 20.05 9.4 19.45L9.4 19.4Q10.9 18.9 11.85 17.35L12.7 17.4L13.35 17.45L13.9 17.55L14.45 18.3M16.85,14.95L17 15.85Q17 16.75 16.6 16.9L15.9 16.95L15.9 17.25Q14.45 16.45 12.3 16.45L12.45 16Q12.9 14.65 12.5 14.3L12.75 13.75L13.2 13.85Q15.7 14.3 16.85 14.95" />
<path style="fill:#484E56;fill-opacity:1" d="M17.8,11.85L18.15 12.15L18.5 12.35L19 11.85L19.3 9.85Q19.3 8.1 18.35 6.25Q20.35 8.5 20.35 11.25Q20.3 13.5 18.75 15.1L17.35 14.2Q17.75 13.5 17.8 11.85M6.3,14.45L3.6 12.7Q1.05 10.55 1.25 7.3L1.3 6.9L1.8 7.9L3.2 9.65Q4.35 11.25 5.55 12.1L6.5 13.05L5.6 13.15Q5.5 13.6 6.3 14.45M6.6,18.65Q4.8 18.45 3.75 17.75L3.7 17L3.75 16L3.8 16L5.25 16.6L8.4 17.15L8 17.25L7.9 17.35Q8.2 17.35 8.7 17.85L7.35 18.7L6.6 18.65M13.2,22.4Q15.55 21.4 15.2 19.95Q14.9 18.45 14.5 18.35L14.45 18.3L13.9 17.55L14.85 17.8L15.25 17.95Q16.7 18.6 17.1 20Q17.2 21.05 16.1 21.75Q15 22.45 13.25 22.4L13.2 22.4M15.9,16.95L16.6 16.9Q17 16.75 17 15.85L16.85 14.95L17 15.05L18.15 15.8Q18.8 16.9 17.3 18.3L15.9 17.25L15.9 16.95" />
<path style="fill:#81878E;fill-opacity:1" d="M2.35,14.75Q2.85 15.45 3.8 16L3.75 16L3.7 17L3.75 17.75Q2.85 17.15 2.5 16.15Q2.25 15.4 2.35 14.75" />
<path style="fill:#11141C;fill-opacity:1" d="M21.85,12.2Q21.3 13.9 19.85 16L19.35 16.6Q19.4 17.9 18.2 19L18.3 20.3Q18.25 21.4 17.3 22.1Q15.1 23.7 12.4 23.15L11.3 22.85Q9.4 22.1 8.55 20.15L8.4 19.65L5.2 19.45L4.75 19.3Q2.6 18.65 1.65 17.2Q0.65 15.7 1.1 14.45Q1.45 13.5 2.05 12.95Q-0.5 9.85 0.15 4.9Q0.3 3.7 0.9 2.85L1.15 2.5Q1.85 1.65 3.1 1.15L3.2 1.25Q5 0.2 7.2 0.15Q11.85 -0.6 14.7 1.95Q19 3.7 20.65 7.1Q22.35 10.5 21.85 12.2M1.25,7.3Q1.05 10.55 3.6 12.7L6.3 14.45L6.4 14.5Q9.25 15.75 11.15 14.2L11.5 13.85Q12.15 13.1 12.1 12.55Q12.45 10.45 11.6 8.95L10.6 7.25Q10.45 7.05 10.8 7.35Q13.9 9.7 13.1 12.8Q15.6 13.25 17.35 14.2L18.75 15.1Q20.3 13.5 20.35 11.25Q20.35 8.5 18.35 6.25L18.3 6.2Q16.2 3.9 14.8 3.05Q13.9 2.55 13.9 2.3L14 2.1Q10.7 0.8 6.95 1.45L4.15 2.15Q3.2 2.4 2.35 3.2L1.8 4.15Q1.4 5.1 1.3 6.9L1.25 7.3M2.5,16.15Q2.85 17.15 3.75 17.75Q4.8 18.45 6.6 18.65L7.35 18.7Q9.15 18.7 10.3 17.65Q11.25 16.85 11.5 15.7L10.8 16L10.45 16.1Q8.75 16.6 6.95 16.05Q4.55 15.35 2.85 13.8Q2.45 14.2 2.35 14.75Q2.25 15.4 2.5 16.15M13.25,22.4Q15 22.45 16.1 21.75Q17.2 21.05 17.1 20Q16.7 18.6 15.25 17.95L14.85 17.8L13.9 17.55L13.35 17.45L12.7 17.4L11.85 17.35Q10.9 18.9 9.4 19.4L9.4 19.45Q9.5 20.05 10.5 21.2Q11.5 22.25 13.15 22.4L13.2 22.4L13.25 22.4M13.2,13.85L12.75 13.75L12.5 14.3Q12.9 14.65 12.45 16L12.3 16.45Q14.45 16.45 15.9 17.25L17.3 18.3Q18.8 16.9 18.15 15.8L17 15.05L16.85 14.95Q15.7 14.3 13.2 13.85" />
</g>
</svg>
