<?xml version="1.0" encoding="utf-8"?>
<svg version="1.1" id="Layer_1"
xmlns="http://www.w3.org/2000/svg"
xmlns:xlink="http://www.w3.org/1999/xlink"
xmlns:author="http://www.sothink.com"
width="19px" height="47px"
xml:space="preserve">
<g id="1683" transform="matrix(1, 0, 0, 1, -2.8, 21)">
<path style="fill:#FFFFFF;fill-opacity:1" d="M15.35,-13.85L15.7 -9.6Q15.8 -6.85 17.55 -4.2Q19.25 -1.65 20.55 4.55Q21.85 10.65 21.35 14.2Q20.9 17.75 14.9 23.5L13.35 24.45Q7.65 27.5 5.3 24L8.85 18.75Q10.65 14.5 10.65 12.5Q10.65 10.5 9.8 8.7Q9 6.95 7.6 4.7Q6.15 2.5 4.65 -1.7Q3.15 -5.95 3.15 -6.85Q2.8 -7.35 2.8 -10.4Q2.8 -16.25 5.3 -19Q6.55 -20.35 8.4 -20.8L10.1 -21Q14.25 -21 15.35 -13.85" />
</g>
</svg>
