<?xml version="1.0" encoding="utf-8"?>
<svg version="1.1" id="Layer_1"
xmlns="http://www.w3.org/2000/svg"
xmlns:xlink="http://www.w3.org/1999/xlink"
xmlns:author="http://www.sothink.com"
width="66px" height="98px"
xml:space="preserve">
<g id="694" transform="matrix(1, 0, 0, 1, -0.05, 0)">
<path style="fill:#101010;fill-opacity:1" d="M12.5,43.8L12.45 42.45Q12.75 40.7 13.1 40.35Q13.45 39.95 14.3 39.7L16.6 39.75Q18.05 40.05 19.6 41.55Q20.35 40.75 21.75 40.3L25.1 40L26.05 40.1L28 40.5Q28.9 40.85 29.55 41.75Q29.9 42.25 30.05 43.1L30 44.5L29.75 45.7Q29.4 46.6 28.7 47.05L29.35 48.15Q29.9 49.35 29.85 50.3L29.35 52.35Q32.05 54.65 29.95 58.6L31.4 58.25L32.1 58.05Q37.95 56.35 40.7 54.3Q43.2 52.4 43.3 50.75L43.05 48.65L43 48.5Q42.8 46.45 42.95 45.5L43.25 43L43.9 39.4L44.5 33.55Q44.6 30.2 41.25 27.8Q37.85 25.35 32.2 24.2Q26.5 23 21.35 24.05Q16.15 25.1 13.4 28.4Q10.6 31.65 11 33.8L11.55 40.4L11.6 43.95L11.35 48.65Q10.9 53.75 12.8 55.25L13 55.4L12.75 54.2Q12.55 52.05 13.7 50.8Q12.2 48.2 13.6 45.75Q12.7 44.8 12.5 43.8M46.1,35.7L44.65 43.65Q44.1 46.8 44.55 48.65Q44.95 50.45 44.7 51.45L43.55 53.55Q42.6 54.7 39.15 56.8Q35.65 58.85 29.45 60.05L29.35 60.05Q26.35 60.6 22.45 60.1Q18.75 59.6 15.85 58.45Q13.35 57.45 12.3 56.65L11.1 55.3Q10.2 53.9 10.05 52.25Q9.9 50.6 10.1 49L10.35 43.7L10.3 42.65L9.6 35.1Q9 30.9 13.1 26.75Q16 23.75 20.35 22.75L24 22.25L32.9 22.75L35.9 23.5Q40.9 25.1 44 28Q47.05 30.85 46.1 35.7M14.05,40.8Q13.35 41.2 13.35 42.95L13.35 43.2Q13.4 45.1 16.15 45.95L19.15 46.05Q18.2 44.55 19.05 42.2Q18.05 41.1 16.45 40.7L14.35 40.65L14.05 40.8M14.45,50.35Q16.3 52.05 19.1 51.75L18.8 51.3L18.35 49.75Q18.15 48.3 18.75 47.3Q16.15 47.45 14.7 46.4L14.2 47.3Q14 47.85 14.05 48.45L14.25 49.65L14.45 50.35M27.8,41.65L26.05 41.25L24.9 41.15Q21.7 40.9 20.35 42.45Q19 44 19.95 45.8Q20.8 47.5 24.45 47.1L24.7 47.05Q28.6 46.5 28.8 44.75L28.85 43.6L28.55 42.2L27.8 41.65M20.05,51.7Q21.45 52.35 22.75 52.7L24.6 52.95L25.85 52.9L27.9 52.2Q29.15 51.25 28.45 49.2L27.75 47.6L26.75 48L23.7 48.4L23.45 48.35Q21.3 48.15 20.1 47.35Q19.05 47.85 19.2 49.6L19.2 49.75L19.25 49.9Q19.35 50.75 19.6 51.25L20.05 51.7M23.7,53.95Q21.5 53.7 19.8 53.05Q19.3 53.95 19.35 55.75L19.4 56.3Q19.55 57.7 20.45 58.5L28.5 58.8Q29.75 56.6 29.5 55.25L28.95 53.55L28.65 53.4L27.25 53.8L27 53.85L23.7 53.95M17.3,52.85Q15.8 52.65 14.7 51.8Q13.85 52.8 13.85 54.05L13.85 54.15Q13.9 55.3 14.6 56.25Q16.2 57.5 18.95 58.15Q18.3 57 18.25 55.65L18.25 54.9Q18.4 53.1 18.65 52.9L17.3 52.85" />
<path style="fill:#3F3437;fill-opacity:1" d="M13.6,45.75Q12.2 48.2 13.7 50.8Q12.55 52.05 12.75 54.2L13 55.4L12.8 55.25Q10.9 53.75 11.35 48.65L11.6 43.95L12.5 43.8Q12.7 44.8 13.6 45.75M29.75,45.7L30.85 45.75L32.95 45.45L33.15 45.4L33.6 45.95L35.05 47.05L35.25 47.75L35.55 49.1L35.75 52.45Q35.7 54.2 34.75 55.65L33.65 56.9L33.4 57.15L32.1 58.05L31.4 58.25L29.95 58.6Q32.05 54.65 29.35 52.35L29.85 50.3Q29.9 49.35 29.35 48.15L28.7 47.05Q29.4 46.6 29.75 45.7M14.35,40.65L13.8 42.2L13.35 42.95Q13.35 41.2 14.05 40.8L14.35 40.65M16.6,49.1L17.4 49.5L17.45 50.45Q15.7 50.55 14.25 49.65L14.05 48.45Q14 47.85 14.2 47.3Q15.25 48.4 16.6 49.1M19.6,51.25L19.85 51.15Q21 50.85 22.05 50.25L22.55 49.95L23.1 50L23.45 50.05L24.2 50.1L27.65 49.65Q27.6 51.25 26.45 52.45L25.9 52.8L25.75 52.9L25.85 52.9L24.6 52.95L22.75 52.7Q21.45 52.35 20.05 51.7L19.6 51.25M25.35,45.6L25.85 43.95L25.95 43.3L27.85 43.65Q27.7 44.4 27.1 44.95L26.55 45.25L25.35 45.6M27,53.85Q27.7 55.05 27.35 56.45L27.3 56.75L26.95 56.85L26.35 57.05Q24.7 57.35 23.1 57.1L22.1 57L20.2 56.55L19.7 56.4L19.4 56.3L19.35 55.75Q19.3 53.95 19.8 53.05Q21.5 53.7 23.7 53.95L27 53.85M20.65,55.05Q21.4 55.75 22.7 55.9L23.45 55.7Q24.85 54.3 21.35 54.1L21.15 54.15Q20.85 54.25 20.65 54.55L20.65 55.05M13.85,54.05Q13.85 52.8 14.7 51.8Q15.8 52.65 17.3 52.85Q16.85 53.7 16.9 54.7L16.9 55.35L16.9 55.6Q15.6 55.4 14.5 54.65L14.1 54.35L13.85 54.15L13.85 54.05M15.45,52.7Q15.05 52.75 14.75 53.1Q14.55 53.35 14.65 53.65Q14.75 54.05 15.2 54.05Q18.35 53.85 15.45 52.7" />
<path style="fill:#1E1415;fill-opacity:1" d="M33.4,57.15L33.65 56.9L34.75 55.65Q35.7 54.2 35.75 52.45L35.55 49.1L35.25 47.75L35.05 47.05L33.6 45.95L33.15 45.4L32.95 45.45L30.85 45.75L29.75 45.7L30 44.5L30.05 43.1Q29.9 42.25 29.55 41.75Q28.9 40.85 28 40.5L26.05 40.1L25.1 40L21.75 40.3Q20.35 40.75 19.6 41.55Q18.05 40.05 16.6 39.75L14.3 39.7Q13.45 39.95 13.1 40.35Q12.75 40.7 12.45 42.45L12.5 43.8L11.6 43.95L11.55 40.4L11 33.8Q10.6 31.65 13.4 28.4Q16.15 25.1 21.35 24.05Q26.5 23 32.2 24.2Q37.85 25.35 41.25 27.8Q44.6 30.2 44.5 33.55L43.9 39.4L43.25 43L42.95 45.5Q42.8 46.45 43 48.5L43.05 48.65L43.3 50.75Q43.2 52.4 40.7 54.3Q37.95 56.35 32.1 58.05L33.4 57.15M13.8,42.2L14.35 40.65L16.45 40.7Q18.05 41.1 19.05 42.2Q18.2 44.55 19.15 46.05L16.15 45.95Q13.4 45.1 13.35 43.2L13.35 42.95L13.8 42.2M14.25,49.65Q15.7 50.55 17.45 50.45L17.4 49.5L16.6 49.1Q15.25 48.4 14.2 47.3L14.7 46.4Q16.15 47.45 18.75 47.3Q18.15 48.3 18.35 49.75L18.8 51.3L19.1 51.75Q16.3 52.05 14.45 50.35L14.25 49.65M28.55,42.2L28.85 43.6L28.8 44.75Q28.6 46.5 24.7 47.05L24.45 47.1Q20.8 47.5 19.95 45.8Q19 44 20.35 42.45Q21.7 40.9 24.9 41.15L26.05 41.25L27.8 41.65L28.55 42.2M25.75,52.9L25.9 52.8L26.45 52.45Q27.6 51.25 27.65 49.65L24.2 50.1L23.45 50.05L23.1 50L22.55 49.95L22.05 50.25Q21 50.85 19.85 51.15L19.6 51.25Q19.35 50.75 19.25 49.9L19.2 49.75L19.2 49.6Q19.05 47.85 20.1 47.35Q21.3 48.15 23.45 48.35L23.7 48.4L26.75 48L27.75 47.6L28.45 49.2Q29.15 51.25 27.9 52.2L25.85 52.9L25.75 52.9M26.55,45.25L27.1 44.95Q27.7 44.4 27.85 43.65L25.95 43.3L25.85 43.95L25.35 45.6L26.55 45.25M19.7,56.4L20.2 56.55L22.1 57L23.1 57.1Q24.7 57.35 26.35 57.05L26.95 56.85L27.3 56.75L27.35 56.45Q27.7 55.05 27 53.85L27.25 53.8L28.65 53.4L28.95 53.55L29.5 55.25Q29.75 56.6 28.5 58.8L20.45 58.5Q19.55 57.7 19.4 56.3L19.7 56.4M18.65,52.9Q18.4 53.1 18.25 54.9L18.25 55.65Q18.3 57 18.95 58.15Q16.2 57.5 14.6 56.25Q13.9 55.3 13.85 54.15L14.1 54.35L14.5 54.65Q15.6 55.4 16.9 55.6L16.9 55.35L16.9 54.7Q16.85 53.7 17.3 52.85L18.65 52.9" />
<path style="fill:#695F62;fill-opacity:1" d="M20.65,54.55Q20.85 54.25 21.15 54.15L21.35 54.1Q24.85 54.3 23.45 55.7L22.7 55.9Q21.4 55.75 20.65 55.05L20.65 54.55M15.2,54.05Q14.75 54.05 14.65 53.65Q14.55 53.35 14.75 53.1Q15.05 52.75 15.45 52.7Q18.35 53.85 15.2 54.05" />
<path style="fill:#201B17;fill-opacity:1" d="M33.35,56.95Q36.55 56 39.05 54.55L39.55 54.25L42.95 52.15L43.95 51.45Q45.3 50.55 45.9 51.65Q46.45 52.8 46.3 53.5L45.55 55L44.1 56.15L41.45 57.8Q38 59.8 32 61.1Q25.9 62.3 22.3 61.75L17.15 60.8L11.75 58.9Q7.85 57.4 7.8 55.75L7.8 55.2Q7.95 54 9.1 53.55Q10.25 53.1 11.65 54Q15.75 56.75 20.6 57.7Q25.35 58.65 30.5 57.65L33.35 56.95M10.15,57.05L12.25 58.1L16.05 59.6Q18.95 60.65 23.8 61Q28.7 61.25 35.15 59.35Q40.95 57.65 44.2 54.9L44.9 54.25Q45.7 53 45.1 52.6Q44.55 52.1 43.6 52.9L43.5 52.95L40.65 54.8L38.95 55.8Q35.45 57.8 30.7 58.55L30.55 58.55L29.9 58.7Q25.65 59.25 22.15 58.85Q18.35 58.4 16.8 57.7L14.3 56.55L13.15 56L11.3 55.05Q10.25 54.4 9.75 54.6Q9.2 54.75 9 55.5L9.1 56Q9.25 56.5 10.15 57.05" />
<path style="fill:#766D68;fill-opacity:1" d="M40.55,56Q39.9 56.95 36.45 58.25L33.4 59.2Q23.1 61.6 13.6 58.1Q11.2 57.15 9.1 56L9 55.5Q9.2 54.75 9.75 54.6Q10.25 54.4 11.3 55.05L13.15 56L14.3 56.55L16.8 57.7Q18.35 58.4 22.15 58.85Q25.65 59.25 29.9 58.7L30.55 58.55L30.7 58.55Q35.45 57.8 38.95 55.8L40.65 54.8Q41.25 55.05 40.55 56M43.6,52.9Q44.55 52.1 45.1 52.6Q45.7 53 44.9 54.25L44.2 54.9L44.05 54L43.75 53.15L43.6 52.9M25.7,59.5L25.6 59.25L25.5 59.25L19.5 58.8L19.35 58.85L19.2 59L19.2 59.05Q22.15 60.2 25.6 59.75L25.7 59.5M10.85,55.95Q11.35 54.9 9.5 55.05Q8.8 55.95 10.5 56.1L10.85 55.95" />
<path style="fill:#3F3732;fill-opacity:1" d="M43.75,53.15L44.05 54L44.2 54.9Q40.95 57.65 35.15 59.35Q28.7 61.25 23.8 61Q18.95 60.65 16.05 59.6L12.25 58.1L10.15 57.05Q9.25 56.5 9.1 56Q11.2 57.15 13.6 58.1Q23.1 61.6 33.4 59.2L36.45 58.25Q39.9 56.95 40.55 56Q41.25 55.05 40.65 54.8L43.5 52.95L43.6 52.9L43.75 53.15" />
<path style="fill:#A39A94;fill-opacity:1" d="M25.6,59.75Q22.15 60.2 19.2 59.05L19.2 59L19.35 58.85L19.5 58.8L25.5 59.25L25.6 59.25L25.7 59.5L25.6 59.75M10.5,56.1Q8.8 55.95 9.5 55.05Q11.35 54.9 10.85 55.95L10.5 56.1" />
<path style="fill:#6CACE7;fill-opacity:1" d="M6.15,55.45Q5.4 56.35 5.95 54.55Q6.5 52.7 8.05 52.5Q8.7 52.75 8.2 53.25L7.55 53.8L6.15 55.45M7.85,61.4Q6.15 62.2 4.85 63.3Q3.55 64.35 3.55 64.15L3.9 63.05Q5.15 60.8 7.7 60.55Q9.5 60.6 7.85 61.4M3.9,68.8Q3.45 69.1 3.75 68.45Q4.05 67.75 4.8 67.75Q5.55 67.7 5 68.15L3.9 68.8M47.7,53.3L46.8 53.35Q46.15 52.9 45.55 52.75L44.1 52.8L42.7 53.2Q42.1 53.35 42 52.85Q41.9 52.4 42.9 51.7Q43.95 51 44.95 51.15Q45.95 51.25 46.95 52.05Q47.95 52.75 47.7 53.3M49.6,61.1Q51 61.15 51.95 62.65Q52.9 64.05 52.35 64.3Q51.8 64.5 51 63.55Q50.15 62.55 48.5 62.85L46.4 62.7Q45.9 62.3 47.05 61.65Q48.15 61 49.6 61.1M49.45,69.55Q50.45 69.7 50.55 70.45Q50.7 71.2 50.25 70.9L49.35 70.1Q48.85 69.65 49.45 69.55" />
<path style="fill:#19213C;fill-opacity:1" d="M45.65,48.7L45.95 48.8Q49.55 50.15 50.7 53.2Q51.85 56.3 50.6 58.65Q51.5 59.15 52.2 59.75Q54 61.1 54.6 62.8L55.05 64.25L55.1 64.45L55.5 66.75L55.5 67.25Q55.5 69.2 54.3 71.6Q53.1 73.95 51.55 74.9L49.65 74.95Q49.25 74.05 47.75 72.8Q46.25 71.5 44.85 71.5L43.15 71.6L42.5 71.7L41.1 71.85Q40.6 71.75 40.65 71.25L40.6 69.9Q40.45 69.05 39.3 68.65L37.15 68.4Q36.25 68.05 37.25 66.9Q38.2 65.75 37.9 64.55Q37.25 64.7 36.85 64.95L36.2 65Q36 64.9 35.75 63.95Q35.45 63 34.35 61.8L33.45 60.6L35.6 59.6Q37.55 58.5 36.5 54.7Q35.2 53.05 36.85 52.85L37.45 52.75Q38.6 52.4 39.85 51.65Q41.05 50.8 41.65 49.1Q42.25 47.55 45.65 48.7M40.5,63.1L42 61.6L43.3 60.6L44.25 60.05L46.85 59.05L49 58.7Q49.6 58.7 49.9 56.75Q50.15 54.9 49.05 52.9L48.75 52.4Q47.3 50.1 45 49.75Q42.65 49.3 42.5 50.1Q42.35 50.85 40.85 52.4Q39.45 53.7 37.85 54.05L37.4 54.15Q38.55 56.85 37.95 58.85Q37.45 60.2 36.4 60.85L35.55 61.3L36.85 63.45Q37.5 63.05 38.5 63L40.4 63.2L40.45 63.2L40.5 63.1M41.95,68.15L42 68.05L43.55 67.55L44.25 67.45L47.3 67.55Q50.05 67.8 52.8 70.95L53.2 71.45Q54.45 69.8 54.5 67.75L54.5 67.25L54.45 66.45L53.9 63.95Q53 61.3 51.65 60.5L50.5 59.9L49.8 59.7L49.4 59.7L46.5 60.2L45.9 60.35Q44.5 60.85 43.55 61.65L42.15 62.85L42.05 62.9L41.5 63.7L41.15 64.2L41.1 64.25L40.15 64.15L39.9 64.15L38.7 64.3Q39.3 65.9 38.1 67.45Q39.65 67.3 41.05 68.55L41.95 68.1L41.95 68.15M12.15,54.25L13.85 55.15Q14.5 55.4 14 56.25L13.45 57.3L13.3 58.15Q13.2 58.85 13.6 59.55L13.9 60.05L13.75 61.35Q13.5 62.55 14.15 63.8Q14.8 65 14.65 65.15L14 65.6L13.05 66.3Q12.6 66.7 12.2 67.75Q11.75 68.75 11.3 68.9L10.35 68.9L9.1 68.8L7.4 69.15Q6.45 69.45 5.85 69.9L4.65 70.95L3.9 71.85Q3.65 72.15 3.25 72.25Q2.8 72.3 2.25 71.8Q1.65 71.2 1.4 70.1Q0.85 67.7 1.3 65.5Q1.7 63.25 2.95 61.75Q4.15 60.2 5.05 59.9Q4.25 58.7 4.1 58L3.9 56.45Q3.85 55.6 4.05 54.85Q4.2 54.05 5.1 52.75Q5.95 51.45 7 50.85Q8 50.2 8.6 50.05L9.55 49.95Q9.9 49.95 9.95 50.6Q9.95 51.2 10.1 51.6L10.65 52.8Q11.1 53.6 12.15 54.25M9.95,59.85L7.9 59.95L6.1 60.45L5.25 60.85Q3.1 62.45 2.45 64.55Q1.95 66.25 2.1 67.65L2.2 68.25L4.25 66.8Q5.45 65.95 7.65 65.45L9.25 65.25L9.45 65.25Q10.8 65.3 12.35 65.9Q13.05 65 13.8 64.8Q12.35 62.7 12.9 60.7Q11.85 60.2 10.9 60L9.95 59.85M9.85,53.65Q9.2 52.5 8.85 51.05Q6.3 51.9 5.3 54.15Q4.45 55.95 5.4 58.35L5.95 59.55Q6.55 59.25 7.85 59.1L8 59.1L8.95 59Q11.1 58.9 12.55 59.7Q12.1 58.25 12.2 57.85Q12.5 56 12.8 55.7Q11.45 55.15 10.65 54.55L9.85 53.65M8.95,65.95Q5.9 66 2.4 68.95Q2.25 69.7 2.75 70.8L3 71.3Q4.3 69.55 6.05 68.75Q7.8 67.95 8.95 67.9L11.05 68.05Q11.5 66.95 11.9 66.55Q10.45 65.85 8.95 65.95M43.2,70.35L43.5 70.3Q47.85 69.7 50.75 74.2Q52.45 73.4 52.9 72.2L52.45 71.6Q49.3 67.65 44.6 68.35L44 68.5L43 68.75L42.85 68.8L42.75 68.85Q42.15 69 41.5 69.3L41.75 70.7L42.9 70.4L43.2 70.35" />
<path style="fill:#1D3E5D;fill-opacity:1" d="M38.8,54.6Q39.55 55.15 39.95 55.95L40.4 57L40.75 58.7L40.8 59.1L41.55 58.5L42.85 57.8Q43.55 57.5 44.3 57.3L45.8 56.95L47.05 56.75L48.2 56.65L48.45 56.35L48.85 55.15L49.05 53.85L49.05 52.9Q50.15 54.9 49.9 56.75Q49.6 58.7 49 58.7L46.85 59.05L44.25 60.05L43.3 60.6L42 61.6L40.5 63.1L40.1 62.75L39.6 62.5L39.1 62.4L37.8 62.5L37.4 61.8L36.4 60.85Q37.45 60.2 37.95 58.85Q38.55 56.85 37.4 54.15L37.85 54.05L38.8 54.6M49.1,59.8L47.45 60.1L47.2 60.25L46.4 60.6L45.2 61.35L44.05 62.15L42.6 63.5L42.25 64.05L41.9 64.75L42.3 64.7L43.35 64.9L43.95 65.2L44.6 65.75L44.75 65.75L45.65 65.6L46.55 65.55L47.5 65.65L49.1 66.15L50.7 66.9Q51.45 67.25 52.1 67.7L53 68.5L53.05 68.6L53.45 68.3L54.05 67.75L54.5 67.25L54.5 67.75Q54.45 69.8 53.2 71.45L52.8 70.95Q50.05 67.8 47.3 67.55L44.25 67.45L43.55 67.55L42 68.05L41.95 68.15L41.95 68.1L41.7 67.6L40.85 66.85L40.5 66.55L40 66.35Q40.25 65.75 40.1 65L40.05 64.55L39.9 64.15L40.15 64.15L41.1 64.25L41.15 64.2L41.5 63.7L42.05 62.9L42.15 62.85L43.55 61.65Q44.5 60.85 45.9 60.35L46.5 60.2L49.4 59.7L49.8 59.7L49.1 59.8M3.4,66.4Q6 64.4 10.25 64.25Q10 63.65 10 62.75Q10 61.25 10.9 60Q11.85 60.2 12.9 60.7Q12.35 62.7 13.8 64.8Q13.05 65 12.35 65.9Q10.8 65.3 9.45 65.25L9.25 65.25L7.65 65.45Q5.45 65.95 4.25 66.8L2.2 68.25L2.1 67.65L3.4 66.4M6.75,57.95L10.2 57.75Q9.95 57.25 9.95 56.55Q9.95 55.4 10.65 54.55Q11.45 55.15 12.8 55.7Q12.5 56 12.2 57.85Q12.1 58.25 12.55 59.7Q11.1 58.9 8.95 59L8 59.1L7.85 59.1Q6.55 59.25 5.95 59.55L5.4 58.35L6.75 57.95M11.9,66.55Q11.5 66.95 11.05 68.05L8.95 67.9Q7.8 67.95 6.05 68.75Q4.3 69.55 3 71.3L2.75 70.8Q3.15 70.1 4 69.35Q5.95 67.7 9.2 67.3L8.95 66.4L8.95 65.95Q10.45 65.85 11.9 66.55M52.9,72.2Q52.45 73.4 50.75 74.2Q47.85 69.7 43.5 70.3L43.2 70.35L43.15 70.2L43.05 68.8L43 68.75L44 68.5L44.6 68.35L44.65 68.45L44.8 69L44.8 69.3L44.95 69.3L46.65 69.4Q47.6 69.55 48.4 70.05L49.85 71.1L51.1 72.55L51.15 72.65L52.1 72L52.45 71.6L52.9 72.2" />
<path style="fill:#286593;fill-opacity:1" d="M40.45,63.2L40.4 63.2L38.5 63Q37.5 63.05 36.85 63.45L35.55 61.3L36.4 60.85L37.4 61.8L37.8 62.5L39.1 62.4L39.6 62.5L40.1 62.75L40.5 63.1L40.45 63.2M49.05,52.9L49.05 53.85L48.85 55.15L48.45 56.35L48.2 56.65L47.05 56.75L45.8 56.95L44.3 57.3Q43.55 57.5 42.85 57.8L41.55 58.5L40.8 59.1L40.75 58.7L40.4 57L39.95 55.95Q39.55 55.15 38.8 54.6L37.85 54.05Q39.45 53.7 40.85 52.4Q42.35 50.85 42.5 50.1Q42.65 49.3 45 49.75Q47.3 50.1 48.75 52.4L49.05 52.9M40.05,64.55L40.1 65Q40.25 65.75 40 66.35L40.5 66.55L40.85 66.85L41.7 67.6L41.95 68.1L41.05 68.55Q39.65 67.3 38.1 67.45Q39.3 65.9 38.7 64.3L39.9 64.15L40.05 64.55M49.8,59.7L50.5 59.9L51.65 60.5Q53 61.3 53.9 63.95L54.45 66.45L54.5 67.25L54.05 67.75L53.45 68.3L53.05 68.6L53 68.5L52.1 67.7Q51.45 67.25 50.7 66.9L49.1 66.15L47.5 65.65L46.55 65.55L45.65 65.6L44.75 65.75L44.6 65.75L43.95 65.2L43.35 64.9L42.3 64.7L41.9 64.75L42.25 64.05L42.6 63.5L44.05 62.15L45.2 61.35L46.4 60.6L47.2 60.25L47.45 60.1L49.1 59.8L49.8 59.7M2.1,67.65Q1.95 66.25 2.45 64.55Q3.1 62.45 5.25 60.85L6.1 60.45L7.9 59.95L9.95 59.85L10.9 60Q10 61.25 10 62.75Q10 63.65 10.25 64.25Q6 64.4 3.4 66.4L2.1 67.65M10.65,54.55Q9.95 55.4 9.95 56.55Q9.95 57.25 10.2 57.75L6.75 57.95L5.4 58.35Q4.45 55.95 5.3 54.15Q6.3 51.9 8.85 51.05Q9.2 52.5 9.85 53.65L10.65 54.55M7.55,53.8L8.2 53.25Q8.7 52.75 8.05 52.5Q6.5 52.7 5.95 54.55Q5.4 56.35 6.15 55.45L7.55 53.8M7.7,60.55Q5.15 60.8 3.9 63.05L3.55 64.15Q3.55 64.35 4.85 63.3Q6.15 62.2 7.85 61.4Q9.5 60.6 7.7 60.55M2.4,68.95Q5.9 66 8.95 65.95L8.95 66.4L9.2 67.3Q5.95 67.7 4 69.35Q3.15 70.1 2.75 70.8Q2.25 69.7 2.4 68.95M5,68.15Q5.55 67.7 4.8 67.75Q4.05 67.75 3.75 68.45Q3.45 69.1 3.9 68.8L5 68.15M46.95,52.05Q45.95 51.25 44.95 51.15Q43.95 51 42.9 51.7Q41.9 52.4 42 52.85Q42.1 53.35 42.7 53.2L44.1 52.8L45.55 52.75Q46.15 52.9 46.8 53.35L47.7 53.3Q47.95 52.75 46.95 52.05M47.05,61.65Q45.9 62.3 46.4 62.7L48.5 62.85Q50.15 62.55 51 63.55Q51.8 64.5 52.35 64.3Q52.9 64.05 51.95 62.65Q51 61.15 49.6 61.1Q48.15 61 47.05 61.65M52.45,71.6L52.1 72L51.15 72.65L51.1 72.55L49.85 71.1L48.4 70.05Q47.6 69.55 46.65 69.4L44.95 69.3L44.8 69.3L44.8 69L44.65 68.45L44.6 68.35Q49.3 67.65 52.45 71.6M42.9,70.4L41.75 70.7L41.5 69.3Q42.15 69 42.75 68.85L42.85 68.8L43 68.75L43.05 68.8L43.15 70.2L43.2 70.35L42.9 70.4M49.35,70.1L50.25 70.9Q50.7 71.2 50.55 70.45Q50.45 69.7 49.45 69.55Q48.85 69.65 49.35 70.1" />
<path style="fill:#101010;fill-opacity:1" d="M16.3,74.7Q16.15 79.45 16.45 85.8L16.45 86.2L16.45 91.9Q17.7 88.45 18 89.2Q18.25 89.9 19.1 89.75L19.7 88.55Q19.65 87.7 20.55 87.65Q20.4 86.55 20.8 85.6Q20.9 85.3 21.15 85.3L21.35 85.7L22.8 89.2Q23.5 91.2 23.65 91.05L24.3 91.55L25.65 93.85L25.35 79.9Q25.2 73.9 25.7 74.3L26.5 75.15L26.6 75.25L26.8 75.65Q26.9 68.6 25.6 61.7L25.05 60.9Q23 59.6 21.55 59.65Q20.8 59.65 20.2 59.95Q20.95 62.45 20.9 65.6L20.65 80Q19.9 84.8 19.65 76.7Q19.4 68.55 20 60.05Q18.45 60.85 17.65 63.35Q16.75 65.85 16.2 68.35L16.3 74.1L16.3 74.7M27.75,67.45L28 70.9L28.1 73.95L28.2 75.9L28.05 77.4L27.9 78.65Q27.9 78.9 26.85 77.55L26.7 77.35L26.6 77.2L26.75 78.75L26.95 88.65L26.9 95.9Q26.8 99.9 24.6 94.8L23.35 93L22.8 92.65Q22.25 92.2 21.65 90.2L21.4 89.3L20.9 89.8Q20.4 89.8 19.9 91.1Q19.4 92.35 17.85 91.25Q17 94.45 16.1 94.4Q15.2 94.3 15.2 92.3L15.2 88.85L15.15 87.85Q14.9 85 15 82.6L15.05 73.4L15.05 71.9L15.35 64Q15.65 60.85 14.85 60.65Q14.05 60.45 16.25 59.65Q18.45 58.85 21.05 58.45Q26.35 58.55 27.1 63.15L27.75 67.45" />
<path style="fill:#3F3437;fill-opacity:1" d="M16.3,74.1L16.5 74.2L16.95 73.9L17.2 73.5L17.6 73.55Q18.1 73.85 18.4 75.65L18.4 81.2Q18.55 85.05 18.05 85.7L17.1 86.45Q16.65 86.5 16.45 86.2L16.45 85.8Q16.15 79.45 16.3 74.7L16.3 74.1M22.05,73.4Q22.4 72.2 22.95 71.6L23.6 71.05L23.9 70.8L24.25 72.75L24.2 81.5L24.25 83.1L24.25 86.4L24.25 86.6L24.05 87.2L24 87.2L23.85 86.9Q23.45 86.2 23.35 85.4L23.15 84.6L23.1 84.6L23.05 84.7L23 84.9L22.85 85.5L22.75 85.5L21.2 82.5L21.25 79.7Q21.25 79.1 21.6 78.8L21.8 79.1L21.9 79.3L22.05 78.8L22 77.9L22 74L22 73.55L22.05 73.4M17.15,76.9Q16.6 80.8 17.3 84.25L17.35 84.15Q17.7 80.2 17.2 76.85L17.15 76.9M18.45,78.9L18.5 79.1L18.5 79.35L18.45 78.9M22.9,74.3Q22.5 78.95 23 83.35L23.05 83.3Q23.55 78.65 23 74.25L22.9 74.3" />
<path style="fill:#1E1415;fill-opacity:1" d="M17.1,86.45L18.05 85.7Q18.55 85.05 18.4 81.2L18.4 75.65Q18.1 73.85 17.6 73.55L17.2 73.5L16.95 73.9L16.5 74.2L16.3 74.1L16.2 68.35Q16.75 65.85 17.65 63.35Q18.45 60.85 20 60.05Q19.4 68.55 19.65 76.7Q19.9 84.8 20.65 80L20.9 65.6Q20.95 62.45 20.2 59.95Q20.8 59.65 21.55 59.65Q23 59.6 25.05 60.9L25.6 61.7Q26.9 68.6 26.8 75.65L26.6 75.25L26.5 75.15L25.7 74.3Q25.2 73.9 25.35 79.9L25.65 93.85L24.3 91.55L23.65 91.05Q23.5 91.2 22.8 89.2L21.35 85.7L21.15 85.3Q20.9 85.3 20.8 85.6Q20.4 86.55 20.55 87.65Q19.65 87.7 19.7 88.55L19.1 89.75Q18.25 89.9 18 89.2Q17.7 88.45 16.45 91.9L16.45 86.2Q16.65 86.5 17.1 86.45M22,73.55L22 74L22 77.9L22.05 78.8L21.9 79.3L21.8 79.1L21.6 78.8Q21.25 79.1 21.25 79.7L21.2 82.5L22.75 85.5L22.85 85.5L23 84.9L23.05 84.7L23.1 84.6L23.15 84.6L23.35 85.4Q23.45 86.2 23.85 86.9L24 87.2L24.05 87.2L24.25 86.6L24.25 86.4L24.25 83.1L24.2 81.5L24.25 72.75L23.9 70.8L23.6 71.05L22.95 71.6Q22.4 72.2 22.05 73.4L22 73.55M17.2,76.85Q17.7 80.2 17.35 84.15L17.3 84.25Q16.6 80.8 17.15 76.9L17.2 76.85M18.5,79.35L18.5 79.1L18.45 78.9L18.5 79.35M23,74.25Q23.55 78.65 23.05 83.3L23 83.35Q22.5 78.95 22.9 74.3L23 74.25" />
<path style="fill:#201B17;fill-opacity:1" d="M23.5,67.85L23.45 67.85L20.5 72.1Q20.1 72.75 19.55 72.65L18.65 71.95L16.25 68.7L16.05 68.45L16 68.4L15.75 67.8L15.65 67.55L15.7 67.55L15.4 67L14.85 65.85L14.05 63.8L13.65 62.5L14.55 60.35L14.6 60.4L14.75 59.65L14.9 58.35L14.9 58.05L14.9 57.9L14.8 57.85Q14.85 57.2 15.4 56.8Q16.7 58.2 20 58.3L20.55 58.3Q23.6 58.3 25.65 57.25L26.3 57.95L26.4 58.15L26.5 58.45L26.45 58.8L26.55 59.5L26.55 59.7L26.65 60.15Q26.8 61 27.65 61.95Q28.5 62.9 28.35 63.4L27.1 64.5Q26 65.1 24.7 66.35L24.25 66.8L24.4 66.8L24.2 66.95L24.1 67L23.7 67.55L23.65 67.65L23.5 67.85M22.3,59.7L19.7 59.65L19.45 59.65Q17.6 59.4 15.95 58.45L15.75 59.65L15.45 60.9L14.6 62.65L15.6 64.95L16.65 67.1L17.35 68.35Q18.2 69.85 19.1 70.85L19.3 71.05L19.6 71.4Q23 65.65 27.1 63.15L26.5 62.3L25.4 60.2L25.25 59.7Q25.1 59.25 25.1 58.8L23.15 59.55L22.3 59.7" />
<path style="fill:#3F3732;fill-opacity:1" d="M25.55,61.55L26 62.8Q23.9 64 21.6 66.95Q20.15 68.8 19.2 70.4Q19.5 69.1 20.1 67.65Q21.75 63.65 24.15 62.25L23.4 60.5L23.15 59.7L23.15 59.55L25.1 58.8Q25.1 59.25 25.25 59.7L25.4 60.2L25.55 61.55M17.7,68.75L19.2 70.4L19.1 70.85Q18.2 69.85 17.35 68.35L17.7 68.75" />
<path style="fill:#C4BEB9;fill-opacity:1" d="M16.9,59.45L18.05 59.85Q18.4 59.85 18.55 60L18.6 60.3L18.3 62.45Q18.1 64.2 18.2 65.55Q18.2 66.3 17.7 64.95Q17.2 63.6 17.2 62.55L17.15 61.25L16.75 60.6L16.4 59.95L16.5 59.65L16.55 59.55L16.9 59.45" />
<path style="fill:#4F4A47;fill-opacity:1" d="M19.2,70.4Q20.15 68.8 21.6 66.95Q23.9 64 26 62.8L25.55 61.55L25.4 60.2L26.5 62.3L27.1 63.15Q23 65.65 19.6 71.4L19.3 71.05L19.1 70.85L19.2 70.4" />
<linearGradient
id="LinearGradID_814" gradientUnits="userSpaceOnUse" gradientTransform="matrix(-0.00447083, -0.000396729, 0.000701904, -0.00793457, 22.75, 65.15)" spreadMethod ="pad" x1="-819.2" y1="0" x2="819.2" y2="0" >
<stop  offset="0" style="stop-color:#766D68;stop-opacity:1" />
<stop  offset="1" style="stop-color:#3F3834;stop-opacity:1" />
</linearGradient>
<path style="fill:url(#LinearGradID_814) " d="M18.85,67.4Q18.55 62.65 19.45 59.65L19.7 59.65L22.3 59.7L23.15 59.55L23.15 59.7L23.4 60.5L24.15 62.25Q21.75 63.65 20.1 67.65Q19.5 69.1 19.2 70.4L18.85 67.4" />
<linearGradient
id="LinearGradID_815" gradientUnits="userSpaceOnUse" gradientTransform="matrix(-0.00263977, 0.000762939, -0.00221252, -0.00765991, 17.8, 64.7)" spreadMethod ="pad" x1="-819.2" y1="0" x2="819.2" y2="0" >
<stop  offset="0" style="stop-color:#A69D98;stop-opacity:1" />
<stop  offset="1" style="stop-color:#4F4843;stop-opacity:1" />
</linearGradient>
<path style="fill:url(#LinearGradID_815) " d="M19.2,70.4L17.7 68.75L17.35 68.35L16.65 67.1L15.6 64.95L14.6 62.65L15.45 60.9L15.75 59.65L15.95 58.45Q17.6 59.4 19.45 59.65Q18.55 62.65 18.85 67.4L19.2 70.4M16.55,59.55L16.5 59.65L16.4 59.95L16.75 60.6L17.15 61.25L17.2 62.55Q17.2 63.6 17.7 64.95Q18.2 66.3 18.2 65.55Q18.1 64.2 18.3 62.45L18.6 60.3L18.55 60Q18.4 59.85 18.05 59.85L16.9 59.45L16.55 59.55" />
<linearGradient
id="LinearGradID_816" gradientUnits="userSpaceOnUse" gradientTransform="matrix(-0.000808716, -0.001297, 0.00132751, -0.000823975, 13.75, 65.75)" spreadMethod ="pad" x1="-819.2" y1="0" x2="819.2" y2="0" >
<stop  offset="0" style="stop-color:#201E29;stop-opacity:1" />
<stop  offset="1" style="stop-color:#2E3341;stop-opacity:1" />
</linearGradient>
<path style="fill:url(#LinearGradID_816) " d="M12.55,64.15L12.65 64.1L12.7 64.1L12.55 64.2L12.55 64.15" />
<path style="fill:#19213C;fill-opacity:1" d="M26.75,57.9Q26.55 58.1 26.5 58.45L26.4 58.15L26.3 57.95L25.65 57.25L26.8 56.5Q29.05 54.65 29.7 53.25Q30.25 51.85 31.25 53.65Q32.2 55.5 33.25 56.25L34.65 57.2Q35 57.35 34.9 57.8L34.85 57.95L34.5 58.75Q34.2 59.3 33.95 60.65Q33.65 61.95 34 63.35Q34.35 64.65 34.65 65.05L34.75 65.4L34.45 65.65L33.2 66.1L32.8 66.25Q31.65 66.6 31 67.3L29.75 68.9L28.95 70.2L28.5 70.65L28.4 70.65L27.3 69.45Q26.55 68.55 25.05 68L23.65 67.65L23.7 67.55L24.1 67L24.2 66.95L24.4 66.8L25.7 67.2Q27.5 67.9 28.3 69.2L29.5 67.45L31.2 65.85L32.65 65.1L33.4 64.95L33.4 64.9Q32.3 62.55 33.1 59.7L33.2 59.2L33.55 58.4L33.75 58.05L33.85 57.95Q32.45 57.45 31.2 56L30.35 54.6L28.8 56.25L27.4 57.45L26.75 57.9M13.65,68.1Q14.4 67.65 15.65 67.55L15.75 67.8L16 68.4L15 68.7Q14.3 68.9 13.6 69.4L13.05 69.35Q12.75 69 12.7 68Q12.55 66.15 11.25 65.35Q9.9 64.55 10.3 64.15L11.25 63Q12 62.05 12 61.25L11.55 59.8L11.45 59.6L10.6 58.55Q10.1 58.1 10.2 57.7Q10.3 57.3 11.1 56.45L12.4 54.65Q12.85 53.75 13.35 54.25L15.2 56.55L15.4 56.8Q14.85 57.2 14.8 57.85L13.1 55.5L13 55.4L12.2 56.4L11.05 57.7L11.95 58.95L12.3 59.6Q13.65 62.3 11.35 64.3L11.4 64.3Q12.7 65 13.3 66.55L13.65 67.95L13.65 68.1" />
<path style="fill:#6CACE7;fill-opacity:1" d="M32.45,64.55L32.25 63.8Q31.8 61.95 32.15 60Q32.2 59.45 32.4 58.85L33.15 58.35L32.6 58.2L31.25 57.4L30.05 56.15Q29.75 56.55 27.4 57.5L27.4 57.45L28.8 56.25L30.35 54.6L31.2 56Q32.45 57.45 33.85 57.95L33.75 58.05L33.55 58.4L33.2 59.2L33.1 59.7Q32.3 62.55 33.4 64.9L32.45 64.55M13.3,66.55Q12.7 65 11.4 64.3L11.35 64.3Q13.65 62.3 12.3 59.6L11.95 58.95L11.05 57.7L12.2 56.4L13 55.4L13.1 55.5L14.8 57.85L14.9 57.9L14.9 58.05L14.9 58.35Q13.55 57.4 13.25 56.5L11.85 58.1L11.85 58.3L12.6 59.25L12.85 59.6Q13.3 60.35 13.35 61.25L13.1 62.85L12.65 64.1L12.55 64.15L12.55 64.2Q13.2 65.15 13.3 66.55" />
<path style="fill:#1D3E5D;fill-opacity:1" d="M27.35,65.4L26.15 66.6L25.7 67.2L24.4 66.8L24.25 66.8L24.7 66.35Q26 65.1 27.1 64.5L28.35 63.4Q28.5 62.9 27.65 61.95Q26.8 61 26.65 60.15L26.55 59.7L26.55 59.5L26.45 58.8L26.5 58.45Q26.55 58.1 26.75 57.9L27.4 57.45L27.4 57.5L27.45 58.95L27.55 59.7Q27.8 61.1 28.65 62L28.65 62.05L28.8 62.2L28.9 62.25L29.8 63.5L29.75 63.65L28.75 64.45Q28.25 64.7 27.9 65L27.35 65.4" />
<linearGradient
id="LinearGradID_817" gradientUnits="userSpaceOnUse" gradientTransform="matrix(0.00172424, -0.00357056, 0.00257874, 0.00125122, 30.25, 59.95)" spreadMethod ="pad" x1="-819.2" y1="0" x2="819.2" y2="0" >
<stop  offset="0" style="stop-color:#1D3E5D;stop-opacity:1" />
<stop  offset="1" style="stop-color:#347BB1;stop-opacity:1" />
</linearGradient>
<path style="fill:url(#LinearGradID_817) " d="M28.65,62Q27.8 61.1 27.55 59.7L27.45 58.95L27.4 57.5Q29.75 56.55 30.05 56.15L31.25 57.4L32.6 58.2L33.15 58.35L32.4 58.85L31.25 59.75L28.65 62.05L28.65 62" />
<linearGradient
id="LinearGradID_818" gradientUnits="userSpaceOnUse" gradientTransform="matrix(0.000534058, -0.00263977, 0.00314331, 0.000640869, 31.2, 62.45)" spreadMethod ="pad" x1="-819.2" y1="0" x2="819.2" y2="0" >
<stop  offset="0" style="stop-color:#1D3E5D;stop-opacity:1" />
<stop  offset="1" style="stop-color:#347BB1;stop-opacity:1" />
</linearGradient>
<path style="fill:url(#LinearGradID_818) " d="M29.8,63.5L28.9 62.25L28.8 62.2L28.65 62.05L31.25 59.75L32.4 58.85Q32.2 59.45 32.15 60Q31.8 61.95 32.25 63.8L32.45 64.55L29.8 63.5" />
<linearGradient
id="LinearGradID_819" gradientUnits="userSpaceOnUse" gradientTransform="matrix(0.00178528, -0.0025177, 0.00224304, 0.00158691, 29.15, 67.05)" spreadMethod ="pad" x1="-819.2" y1="0" x2="819.2" y2="0" >
<stop  offset="0" style="stop-color:#1D3E5D;stop-opacity:1" />
<stop  offset="1" style="stop-color:#347BB1;stop-opacity:1" />
</linearGradient>
<path style="fill:url(#LinearGradID_819) " d="M27.9,65Q28.25 64.7 28.75 64.45L29.75 63.65L29.8 63.5L32.45 64.55L33.4 64.9L33.4 64.95L32.65 65.1L31.2 65.85L29.5 67.45L28.3 69.2L27.9 65" />
<linearGradient
id="LinearGradID_820" gradientUnits="userSpaceOnUse" gradientTransform="matrix(0.00231934, 0.00131226, -0.00102234, 0.00180054, 25.8, 65.8)" spreadMethod ="pad" x1="-819.2" y1="0" x2="819.2" y2="0" >
<stop  offset="0" style="stop-color:#1D3E5D;stop-opacity:1" />
<stop  offset="1" style="stop-color:#347BB1;stop-opacity:1" />
</linearGradient>
<path style="fill:url(#LinearGradID_820) " d="M27.9,65L28.3 69.2Q27.5 67.9 25.7 67.2L26.15 66.6L27.35 65.4L27.9 65" />
<linearGradient
id="LinearGradID_821" gradientUnits="userSpaceOnUse" gradientTransform="matrix(-0.000976563, -0.00289917, 0.00152588, -0.000518799, 13, 59.35)" spreadMethod ="pad" x1="-819.2" y1="0" x2="819.2" y2="0" >
<stop  offset="0" style="stop-color:#1D3E5D;stop-opacity:1" />
<stop  offset="1" style="stop-color:#347BB1;stop-opacity:1" />
</linearGradient>
<path style="fill:url(#LinearGradID_821) " d="M11.85,58.3L11.85 58.1L13.25 56.5Q13.55 57.4 14.9 58.35L14.75 59.65L14.6 60.4L14.55 60.35L11.85 58.3" />
<linearGradient
id="LinearGradID_822" gradientUnits="userSpaceOnUse" gradientTransform="matrix(-0.000427246, -0.00209045, 0.00236511, -0.000473022, 12.85, 61.95)" spreadMethod ="pad" x1="-819.2" y1="0" x2="819.2" y2="0" >
<stop  offset="0" style="stop-color:#1D3E5D;stop-opacity:1" />
<stop  offset="1" style="stop-color:#347BB1;stop-opacity:1" />
</linearGradient>
<path style="fill:url(#LinearGradID_822) " d="M12.55,64.2L12.7 64.1L12.65 64.1L13.1 62.85L13.35 61.25Q13.3 60.35 12.85 59.6L12.6 59.25L11.85 58.3L14.55 60.35L13.65 62.5L14.05 63.8L12.55 64.2" />
<linearGradient
id="LinearGradID_823" gradientUnits="userSpaceOnUse" gradientTransform="matrix(-0.00158691, 0.000152588, -0.00012207, -0.00128174, 16.15, 66.8)" spreadMethod ="pad" x1="-819.2" y1="0" x2="819.2" y2="0" >
<stop  offset="0" style="stop-color:#1D3E5D;stop-opacity:1" />
<stop  offset="1" style="stop-color:#347BB1;stop-opacity:1" />
</linearGradient>
<path style="fill:url(#LinearGradID_823) " d="M13.65,67.95L14.85 65.85L15.4 67L15.7 67.55L15.65 67.55Q14.4 67.65 13.65 68.1L13.65 67.95" />
<linearGradient
id="LinearGradID_824" gradientUnits="userSpaceOnUse" gradientTransform="matrix(-0.000808716, -0.001297, 0.00132751, -0.000823975, 13.75, 65.75)" spreadMethod ="pad" x1="-819.2" y1="0" x2="819.2" y2="0" >
<stop  offset="0" style="stop-color:#1D3E5D;stop-opacity:1" />
<stop  offset="1" style="stop-color:#347BB1;stop-opacity:1" />
</linearGradient>
<path style="fill:url(#LinearGradID_824) " d="M13.65,67.95L13.3 66.55Q13.2 65.15 12.55 64.2L14.05 63.8L14.85 65.85L13.65 67.95" />
<path style="fill:#201B17;fill-opacity:1" d="M23.55,63.75Q22.8 64.5 21.2 64.75Q19.55 64.95 20.2 63.6Q20.8 62.25 22.6 61.8Q24.4 61.3 24.35 62.15Q24.25 63 23.55 63.75M20.55,67.5L18.9 68.4Q16.75 67.35 15.8 66.15Q14.85 64.95 14.9 64.1L14.95 64.1L17.55 66.6L18.7 67.45L19.45 67.05L22.1 66.1L24.35 65.8Q24.8 66.05 23.55 67Q22.15 66.8 20.55 67.5M16.2,63.7Q14.95 62.3 16.2 61.75Q17.45 62.2 17.45 63.65Q17.4 65.05 16.2 63.7" />
<path style="fill:#183551;fill-opacity:1" d="M10.85,41.25L11.65 40.75L11.4 37.35L11.35 37.05L10.45 37.75Q8.7 39.05 6.5 38.85L6.55 37.9Q9.5 37.85 10.95 36.1L11.9 34.45L12.05 33.95L12.2 33.5Q12.85 31.35 11.6 32.95L10 34.5L7.9 35.65Q5.7 36.45 4.1 35L4 34.9Q6.4 35.1 8.6 33.75L8.7 33.7L7.5 32.4Q7.1 31.95 6.85 31.2L6.35 29.85L5.95 28.6L5.85 28.2L5.65 27.35Q5.35 25.75 5.75 24.2L6.45 21.35Q6.8 20 7.4 18.7L9.85 13.6L10.15 13.1L12 10.35L12.45 9.7L12.95 9.15L14.8 7.1L15.05 6.95Q17.65 5.5 20.5 4.45L25.05 2.95Q36.75 -0.25 47.75 3.35Q51.15 4.5 54.45 6.5Q55.95 7.45 57.45 8.55Q59.75 10.3 61.25 12.5L61.05 12.4L60.25 11.95Q58.8 11.15 57.15 11.35Q54.2 11.7 51.8 13.5L51 14.3Q49.05 16.6 47.95 19.4Q46.95 22 46.6 24.85L46.5 26.5L46.4 30.3L43.35 32.7L42.25 33.25L41.05 33.6L35.3 33.3L34.55 33.05L33.75 32.6L32.65 35.1L32.45 35.45L30.45 34.35Q29.3 33.6 29.25 34.75Q29.25 35.4 29.6 35.9L30.55 36.7L32.15 37.5Q34.1 38.3 35.9 38.55L37.05 38.65Q37.2 39.25 36.7 39.95L34.7 41.85Q32.05 43.65 28.8 43.1L27.05 42.8L24.95 42.15Q24.35 41.75 23.65 41.8L22.8 42L21.55 41.7L21.15 41.65Q18.25 41.35 15.3 41.6Q13.95 41.75 13.05 42.5L13.35 41.5L11.35 42.7Q9.25 43.6 7.8 42.15Q9.4 42 10.85 41.25M50.25,40.1L49.7 41.35L47.95 44L46.9 45L45.6 46.05L43.4 47.4L42.65 47.35Q40.6 47.05 39.25 46.35L41.65 45.7Q42.9 45.15 43.8 44.1Q45.25 42.4 46.25 40.4L44.45 39L43.9 39.35L43 39.95L41.9 40.4L38.25 40.8Q39.2 39.55 39.3 38.5Q42.35 37.95 45.1 35.6L46.1 36.5L46.3 36.7L47.3 37.5L47.55 37.7L50.45 39.55L50.25 40.1M29.9,42.15Q33 42.45 34.9 40L34.95 39.95Q33 39.75 31.2 38.75L30.65 39.35L28.25 41.75L28.65 41.95L29.9 42.15" />
<path style="fill:#10273C;fill-opacity:1" d="M46.4,30.3L46.5 26.5L46.6 24.85Q46.95 22 47.95 19.4Q49.05 16.6 51 14.3L51.8 13.5Q54.2 11.7 57.15 11.35Q58.8 11.15 60.25 11.95L61.05 12.4L61.25 12.5L62.65 15.1Q64.25 18.85 64.3 23.6Q64.35 28.35 63 31.45Q61.65 34.55 58.1 37.35Q54.55 40.15 50.85 37.8L50.8 37.75Q47.05 35.35 46.5 34.45Q47.6 32.55 46.4 31.15L46.4 30.3" />
<path style="fill:#205883;fill-opacity:1" d="M7.8,42.15Q6.6 40.9 6.5 38.85Q8.7 39.05 10.45 37.75L11.35 37.05L11.4 37.35L11.65 40.75L10.85 41.25Q9.4 42 7.8 42.15M4,34.9Q2.5 33.45 2.15 31.1Q1.75 28.65 2 25.85Q2.25 23.35 2.7 21.85L3.9 18.85L5.65 15.45Q6.8 13.55 8.65 11.6Q10.8 9.3 14.8 7.1L12.95 9.15L12.45 9.7L12 10.35L10.15 13.1L9.85 13.6L7.4 18.7Q6.8 20 6.45 21.35L5.75 24.2Q5.35 25.75 5.65 27.35L5.85 28.2L5.95 28.6L6.35 29.85L6.85 31.2Q7.1 31.95 7.5 32.4L8.7 33.7L8.6 33.75Q6.4 35.1 4 34.9M46.4,31.15L46.2 30.95L44.85 33.3L44.8 33.35L43.9 34.45L42.45 35.55Q39.4 36.8 36.5 36.5Q34.7 36.35 32.95 35.65L32.45 35.45L32.65 35.1L33.75 32.6L34.55 33.05L35.3 33.3L41.05 33.6L42.25 33.25L43.35 32.7L46.4 30.3L46.4 31.15M38.85,46.15L36.7 44.55L35.65 43.4L37.95 41.15L38.25 40.8L41.9 40.4L43 39.95L43.9 39.35L44.45 39L46.25 40.4Q45.25 42.4 43.8 44.1Q42.9 45.15 41.65 45.7L39.25 46.35L38.85 46.15M43.4,47.4L45.6 46.05L46.9 45L47.95 44L49.7 41.35L50.25 40.1L50.45 39.55L51.6 40.2Q51 43.9 48.25 45.85Q45.95 47.5 43.4 47.4M28.65,41.95L28.25 41.75L30.65 39.35L31.2 38.75Q33 39.75 34.95 39.95L34.9 40Q33 42.45 29.9 42.15L28.65 41.95" />
<path style="fill:#131A31;fill-opacity:1" d="M23.65,41.8Q24.35 41.75 24.95 42.15L27.05 42.8L28.8 43.1Q32.05 43.65 34.7 41.85L36.7 39.95Q37.2 39.25 37.05 38.65L35.9 38.55Q34.1 38.3 32.15 37.5L30.55 36.7L29.6 35.9Q29.25 35.4 29.25 34.75Q29.3 33.6 30.45 34.35L32.45 35.45L32.95 35.65Q34.7 36.35 36.5 36.5Q39.4 36.8 42.45 35.55L43.9 34.45L44.8 33.35L44.85 33.3L46.2 30.95L46.4 31.15Q47.6 32.55 46.5 34.45Q47.05 35.35 50.8 37.75L50.85 37.8Q54.55 40.15 58.1 37.35Q61.65 34.55 63 31.45Q64.35 28.35 64.3 23.6Q64.25 18.85 62.65 15.1L61.25 12.5Q59.75 10.3 57.45 8.55Q55.95 7.45 54.45 6.5Q51.15 4.5 47.75 3.35Q36.75 -0.25 25.05 2.95L20.5 4.45Q17.65 5.5 15.05 6.95L14.8 7.1Q10.8 9.3 8.65 11.6Q6.8 13.55 5.65 15.45L3.9 18.85L2.7 21.85Q2.25 23.35 2 25.85Q1.75 28.65 2.15 31.1Q2.5 33.45 4 34.9L4.1 35Q5.7 36.45 7.9 35.65L10 34.5L11.6 32.95Q12.85 31.35 12.2 33.5L12.05 33.95L11.9 34.45L10.95 36.1Q9.5 37.85 6.55 37.9L6.5 38.85Q6.6 40.9 7.8 42.15Q9.25 43.6 11.35 42.7L13.35 41.5L13.05 42.5L12.75 43.15Q12.05 44.2 10.8 44.45L7.7 44.2Q6.65 43.55 5.95 42.35L5.8 42.15Q5.2 41 4.95 39.3L4.75 38.25L4.75 38.15Q4.5 37.35 4.2 37.25Q3.65 37.05 2.35 35.65Q1 34.2 0.5 31.75Q0 29.3 0.05 28.2L0.25 24.75Q0.4 22.45 1.5 19.25Q2.6 16.05 6.7 11Q8.6 8.6 12.5 6.25Q16.05 4.1 19.9 2.75L20.5 2.55Q23.25 1.6 25.4 1.15L25.55 1.1L26.5 0.9L33.35 0.1L42.3 0.5Q47.2 1.25 51.4 2.85Q55.35 4.8 57.8 6.5L60.5 8.8Q62.75 11.3 63.9 13.8Q65.05 16.35 65.55 18.8Q66.05 21.2 66.05 23.2L65.4 28.8Q64.7 32.45 62.65 35.25Q60.6 38.05 58.3 39.55Q56 41 53.3 40.75L52.05 44.35L50.55 46.55L48 48.35Q46.3 49.2 43.5 49.2Q41.4 49.2 39.4 48.4L37.9 47.7Q35.15 46.15 33.65 44.35L25.8 44.15L25.05 43.85Q21.65 42.6 22.3 42.25L22.8 42L23.65 41.8M39.25,46.35Q40.6 47.05 42.65 47.35L43.4 47.4Q45.95 47.5 48.25 45.85Q51 43.9 51.6 40.2L50.45 39.55L47.55 37.7L47.3 37.5L46.3 36.7L46.1 36.5L45.1 35.6Q42.35 37.95 39.3 38.5Q39.2 39.55 38.25 40.8L37.95 41.15L35.65 43.4L36.7 44.55L38.85 46.15L39.25 46.35" />
<path style="fill:#766D68;fill-opacity:1" d="M11.1,40.25Q8.65 37.65 9.7 33.2L11.45 33.8L11.35 35.1L11.35 37.55L11.3 39.6L11.1 40.25M13.75,35.1Q14.35 35.2 14.85 35.55L15.15 35.85L15.15 35.9L15.1 37.55L13.6 37.3Q13.35 36 13.75 35.1M13.95,35.95Q13.5 36.55 14.15 36.85Q14.4 36.25 14 35.9L13.95 35.95M21.2,36.8L21.3 37.7L20.95 37.95Q21.15 37.3 20.65 36.9Q19.95 37.7 20.9 38L20.1 38.4L20.1 38.3Q20.15 37.4 19.7 36.85L20.1 36.55L21.05 36.45L21.2 36.8M17.8,38.25L17.75 38.3Q17.2 39.3 18.1 39.75L18.15 39.7Q18.45 38.8 17.8 38.25M18.3,40.5L18.2 40.6L18 40.8L17.85 40.75L16.85 39.85L16.85 39.55Q16.95 38.15 17.6 37.45Q18.6 38.45 19 39.3L18.3 40.5M13.7,38.85L14.95 39.85L15.4 41.3L15.3 41.8L14.7 41.45L14.5 41.4Q13.95 40.35 13.7 38.85M20.4,42.1L20.3 42.2L19.7 42L19.65 42L20 41.1Q20 40.55 20.65 41.25L20.65 41.3L20.75 41.45L20.4 42.1M14.45,40Q14.1 40.55 14.75 40.75Q15 40.2 14.5 39.95L14.45 40M10.55,37.25Q11 35.75 10.3 34.75L9.95 34.95Q9.55 36.65 10.5 37.35L10.55 37.25M22.05,45.35Q21.55 47.75 18.85 48.6L18.6 48.7L17.95 48.7L17.9 48.65L17.15 47.1L16.85 46.3Q16.7 45.85 17 44.95L17.7 44.75L19.2 44.8L20.45 45.05L21.4 44.95L22.05 44.75L22.05 45.35M24.85,37.15L24.7 37.3L24.45 37.55L23.9 38Q24.1 37.5 23.9 36.9L23.75 36.5L23.2 35.3L23 35.05L23.6 34.85L24 34.85L24.35 34.85L24.4 34.95Q24.85 35.6 24.9 36.4L24.85 37.15M24.05,35.5Q24.05 36.4 24.7 36.65L24.75 36.6Q24.9 35.8 24.4 35.3Q24.2 35.3 24.05 35.5M28.1,39.95L26.8 40.4L27.05 39.9L27.05 39.7Q27.05 39.2 27.2 38.8L27.25 38.6L27.3 35.9Q27.3 34.85 26.9 34L26.75 33.85L26.65 33.8Q27.2 33.3 28 33.2L28.2 33.2Q28.8 34.1 29 35.15Q29.35 36.7 29.1 37.9L28.1 39.95M28.5,37.5Q29.35 36.15 28.25 34.7Q27.55 36.1 28.45 37.55L28.5 37.5M24.8,40.9L23.7 41.6L23.7 41.5L23.7 41.25L23.6 39.8Q24.25 39.55 24.65 40.05L24.95 40.75L24.8 40.9M22.05,37.95L22.75 39.55L21.9 40.7L21.5 40.1L21.15 39.85Q21.6 39.4 22.05 37.95M22.2,39.9L22.2 39.85Q22.45 39.3 22.15 38.9Q21.55 39.5 22.2 39.9M24,40.5Q24.8 40.7 24.2 40L24 40.3L24 40.5" />
<path style="fill:#3F3732;fill-opacity:1" d="M18.1,30.7L18.05 30.2L18.05 29.8L18.05 29.75L18.2 29.8L20.4 28.25L22.4 26.15Q24.3 24.25 26 23.7L26.1 23.8L28.2 23.4L33.35 23.65L33.5 23.75Q35.95 22.2 37.7 17L38.75 17.15L38.65 17.35Q37.8 20.6 34.6 24.5L34.3 24.85Q34.1 24.4 32.4 24.3L31.3 24.2L30.55 24.2Q28.55 24.1 27.05 24.65L26.5 24.8Q24.45 25.55 23.25 26.8Q22.15 27.95 21.95 28.45L21.65 28.85L20.6 29.5Q19.5 29.95 18.2 31.1L18.15 31.15L18.1 30.7M20.95,38L20.95 37.95L21.3 37.7Q21.15 38.55 20.3 39.55Q19.2 37.2 18.45 36.5L20.6 35.8L21.05 36.45L20.1 36.55L19.7 36.85Q20.15 37.4 20.1 38.3L20.1 38.4L20.9 38L20.95 38M16.85,39.85L17.85 40.75L18 40.8L18.2 40.6L18.3 40.5L19 39.3Q19.35 40.05 19.15 40.7Q18.8 41.95 18.2 42.25Q16.85 41 16.85 39.85M19.65,42L19.7 42L20.3 42.2L20.4 42.1L20.75 41.45Q21.2 42.05 21.15 42.65Q20.2 43.4 19.2 42.5L19.65 42M22.05,44.75L22.05 43.5L22.75 43L23.65 43.6Q23.25 45.3 23 47.15L19.2 50.55L18.5 49.9L16.8 48.1Q17.4 48.6 17.95 48.7L18.6 48.7L18.85 48.6Q21.55 47.75 22.05 45.35L22.05 44.75M28.6,29.85Q29.45 29.25 30.5 29.25L32 29.15L32.2 29.1Q32.7 28.8 33 28.2L33.35 27.2L33 27.05L31.3 26.8L29.4 26.95L28.5 27.15L27.6 27.45Q27.15 27.55 26.7 27.8L26 28.3L25.3 28.8L25.1 29L23.5 30L23.3 30.15L22.6 30.45L22.4 30.55L21.6 31L21.3 31.15L19.7 31.85L22.4 29.95Q22.35 29.65 25.45 27.15Q28.2 24.85 33.45 26.05L34.3 26.25Q34.8 27.15 34.65 27.95Q34.4 29.1 32.8 30.1L31.1 30L28.05 30.25L28.6 29.85M24,34.85L23.6 34.85L23 35.05L23.2 35.3L23.75 36.5L23.9 36.9Q24.1 37.5 23.9 38L24.45 37.55L24.7 37.3L24.85 37.15L24.8 37.3Q24.55 38.7 23.45 38.85Q23.45 37.3 22.4 36.1L21.35 35.3Q22.6 34.3 23.2 34.2Q23.75 34 24.35 34.85L24 34.85M28,33.2Q27.2 33.3 26.65 33.8L26.75 33.85L26.9 34Q27.3 34.85 27.3 35.9L27.25 38.6L27.2 38.8Q27.05 39.2 27.05 39.7L27.05 39.9L26.8 40.4L28.1 39.95L27.9 40.2Q27 41.3 25.75 41.35Q26.35 39.55 26.4 37.55Q26.5 35.55 25.05 33.6Q25.75 32.35 27.5 32.2L28.2 33.2L28 33.2M23.7,41.25L23.7 41.5L23.7 41.6L24.8 40.9L24.95 40.75L24.95 41.25Q24.8 42 24 42.5Q23.6 42.65 23.3 42.25L23.7 41.25M22.8,40.85Q22.55 41.95 21.9 41.95Q21.6 40.65 21 40L21.15 39.85L21.5 40.1L21.9 40.7L22.75 39.55L22.8 40.85" />
<path style="fill:#A39A94;fill-opacity:1" d="M14,35.9Q14.4 36.25 14.15 36.85Q13.5 36.55 13.95 35.95L14 35.9M20.9,38Q19.95 37.7 20.65 36.9Q21.15 37.3 20.95 37.95L20.95 38L20.9 38M18.15,39.7L18.1 39.75Q17.2 39.3 17.75 38.3L17.8 38.25Q18.45 38.8 18.15 39.7M14.5,39.95Q15 40.2 14.75 40.75Q14.1 40.55 14.45 40L14.5 39.95M24.4,35.3Q24.9 35.8 24.75 36.6L24.7 36.65Q24.05 36.4 24.05 35.5Q24.2 35.3 24.4 35.3M28.45,37.55Q27.55 36.1 28.25 34.7Q29.35 36.15 28.5 37.5L28.45 37.55M22.15,38.9Q22.45 39.3 22.2 39.85L22.2 39.9Q21.55 39.5 22.15 38.9M24,40.3L24.2 40Q24.8 40.7 24 40.5L24 40.3" />
<path style="fill:#201B17;fill-opacity:1" d="M16.05,13.6L13.25 15.25L13.2 15.6Q12.8 17.2 10.75 18.85L12.55 20.3L14.75 19.85L15 21.65L14.85 21.65L14.85 21.7L12.2 22L11.85 21.75L8.05 18.6Q3.85 16.65 3.7 17.9L3.7 18.55Q3.85 19.75 4.95 22.05L8.45 25.1L8.5 25.1L8.65 25.2L8.9 25.25L10.05 25.1L11.5 25.2L12.15 25.35Q14.15 25.9 15 28.95L15.05 29.05L15.45 29.3L18.05 31.2L18.15 31.15L18.2 31.1Q19.5 29.95 20.6 29.5L21.65 28.85L21.95 28.45Q22.15 27.95 23.25 26.8Q24.45 25.55 26.5 24.8L27.05 24.65Q28.55 24.1 30.55 24.2L31.25 24.35L32.4 24.3Q34.1 24.4 34.3 24.85L34.6 24.5Q37.8 20.6 38.65 17.35L38.75 17.15L37.7 17Q35.6 16.85 34.15 18.3L30.4 22L29.65 22.15L29 22.2L26.8 22Q24.75 21.7 24.5 21.3L24.5 21.35L24.3 21.55L24.45 20.35L25.5 20.4Q29.95 21.1 31.2 19.1L28.7 15.1L28.6 15.1Q25.2 13.95 21.05 9.85L20.7 10.15L16.05 13.6M22.05,7.7L24.9 10.75Q27.65 12.75 29.8 13.6L30.4 13.8L32.7 17.45Q32.75 17.05 34.3 15.95L34.3 16Q36 15.05 38.55 15.4Q41 15.75 40.05 17.7L37.95 21.8Q36.8 24 35.7 25.25L35.65 25.25Q36.05 27.35 35.7 28.75Q35.45 29.75 34.85 30.4Q33.3 31.8 32.3 31.4L28.95 31.6Q30.65 34.05 30.2 37.45L30.1 37.95Q29.55 40.9 28.05 41.95Q26.35 43.05 25.45 43.05Q25.25 43.4 25.05 45.1L24.65 47.15L24 48.35L21.25 51.2Q19.75 53 18.05 51.6L14.7 48.4L13.8 44.65L13.5 43Q9.75 41.8 8.55 38.4Q7.65 35.65 8.15 33.2L8.5 31.95L7.9 31.05Q8.9 26.35 4.55 23.55L3.9 22.65L2.95 20.7Q2.4 19.4 2.45 17.95L2.5 17.8Q2.6 16.45 3.05 16.3L4.9 16.15Q6.25 16.15 9.8 17.6Q11.7 16 11.65 13.95Q15.75 12.25 18.6 9.5Q21.05 7.1 21.85 7.55L22.05 7.7M20.45,34.4Q21.8 33.35 23.1 33.1L24.9 31.9Q26.4 30.55 28.05 30.25L31.1 30L32.8 30.1Q34.4 29.1 34.65 27.95Q34.8 27.15 34.3 26.25L33.45 26.05Q28.2 24.85 25.45 27.15Q22.35 29.65 22.4 29.95L19.7 31.85L18.3 32.85L18.25 32.85L18.2 32.85L18.15 32.9Q14.25 30.55 13.9 29.45L13.8 29.15Q13 26.8 10.6 26.45L10.45 26.4Q9.5 26.25 9 26.75Q9.7 28.15 9.2 30.1L12.3 31.35L12.75 31.6L15.1 33.2L17.6 35.1L18.25 35.2Q19.4 35.2 20.45 34.4M11.1,40.25L11.45 40.6L12.85 41.6Q12.6 41.3 12.5 40.55Q12.2 39.3 12.15 37.35Q12.1 36.25 12.5 35.15Q12.75 34.2 13.3 33.3L12.05 32.65L11.95 32.6Q10.5 31.9 9.95 32.25L9.7 33.2Q8.65 37.65 11.1 40.25M13.6,37.3Q14.7 39.1 16.05 38.75Q16.45 36.75 16.9 36.25L14.55 34Q14 34.45 13.75 35.1Q13.35 36 13.6 37.3M21.3,37.7L21.2 36.8L21.05 36.45L20.6 35.8L18.45 36.5Q19.2 37.2 20.3 39.55Q21.15 38.55 21.3 37.7M18.2,42.25Q18.8 41.95 19.15 40.7Q19.35 40.05 19 39.3Q18.6 38.45 17.6 37.45Q16.95 38.15 16.85 39.55L16.85 39.85Q16.85 41 18.2 42.25M14.5,41.4L15.2 42.4L15.2 42.35L16.75 42.8L15.75 40.15L14.95 39.85L13.7 38.85Q13.95 40.35 14.5 41.4M19.2,42.5Q20.2 43.4 21.15 42.65Q21.2 42.05 20.75 41.45L20.65 41.3L20.65 41.25Q20 40.55 20 41.1L19.65 42L19.2 42.5M16.65,47.95L16.8 48.1L18.5 49.9L19.2 50.55L23 47.15Q23.25 45.3 23.65 43.6L22.75 43L22.05 43.5Q20.45 44.4 19.55 43.75L18.75 43.4Q18.15 43.25 17.4 43.7L16.4 44Q16.15 44.15 15.4 43.7Q15.7 45.8 16.5 47.75L16.65 47.95M24.9,36.4Q24.85 35.6 24.4 34.95L24.35 34.85Q23.75 34 23.2 34.2Q22.6 34.3 21.35 35.3L22.4 36.1Q23.45 37.3 23.45 38.85Q24.55 38.7 24.8 37.3L24.85 37.15L24.9 36.4M29.1,37.9Q29.35 36.7 29 35.15Q28.8 34.1 28.2 33.2L27.5 32.2Q25.75 32.35 25.05 33.6Q26.5 35.55 26.4 37.55Q26.35 39.55 25.75 41.35Q27 41.3 27.9 40.2L28.1 39.95L29.1 37.9M23.3,42.25Q23.6 42.65 24 42.5Q24.8 42 24.95 41.25L24.95 40.75L24.65 40.05Q24.25 39.55 23.6 39.8L23.7 41.25L23.3 42.25M21.15,39.85L21 40Q21.6 40.65 21.9 41.95Q22.55 41.95 22.8 40.85L22.75 39.55L22.05 37.95Q21.6 39.4 21.15 39.85" />
<path style="fill:#4A413B;fill-opacity:1" d="M18.15,31.15L18.05 31.2L15.45 29.3L15.05 29.05L15 28.95Q14.15 25.9 12.15 25.35L11.5 25.2L10.05 25.1L8.9 25.25L8.65 25.2L8.5 25.1L8.45 25.1L4.95 22.05Q3.85 19.75 3.7 18.55L3.7 17.9L4.55 19.15Q5.9 21 6.65 21.5L9.7 24.05L10.05 23.55L11.35 23.7Q12.5 23.95 13.15 24.45L13.45 24.7L14.7 25.8Q15.85 26.95 16.25 28.25L16.35 28.6L18.05 29.75L18.05 29.8L18.05 30.2L18.1 30.7L18.15 31.15M11.3,39.6L11.35 37.55L11.35 35.1L11.45 33.8L9.7 33.2L9.95 32.25Q10.5 31.9 11.95 32.6L12.05 32.65L13.3 33.3Q12.75 34.2 12.5 35.15Q12.1 36.25 12.15 37.35Q12.2 39.3 12.5 40.55Q12.6 41.3 12.85 41.6L11.45 40.6L11.1 40.25L11.3 39.6M14.55,34L16.9 36.25Q16.45 36.75 16.05 38.75Q14.7 39.1 13.6 37.3L15.1 37.55L15.15 35.9L15.15 35.85L14.85 35.55Q14.35 35.2 13.75 35.1Q14 34.45 14.55 34M15.75,40.15L16.75 42.8L15.2 42.35L15.2 42.4L14.5 41.4L14.7 41.45L15.3 41.8L15.4 41.3L14.95 39.85L15.75 40.15" />
<path style="fill:#C4BEB9;fill-opacity:1" d="M9.2,30.1Q9.7 28.15 9 26.75Q9.5 26.25 10.45 26.4L10.6 26.45L10.75 27.8Q10.75 29.05 10.3 29.9L10.7 30.1L11.5 30.75L12.3 31.35L9.2 30.1M10.5,37.35Q9.55 36.65 9.95 34.95L10.3 34.75Q11 35.75 10.55 37.25L10.5 37.35M22.05,44.75L21.4 44.95L20.45 45.05L19.2 44.8L17.7 44.75L17 44.95Q16.7 45.85 16.85 46.3L17.15 47.1L17.9 48.65L17.95 48.7Q17.4 48.6 16.8 48.1L16.5 47.75Q15.7 45.8 15.4 43.7Q16.15 44.15 16.4 44L17.4 43.7Q18.15 43.25 18.75 43.4L19.55 43.75Q20.45 44.4 22.05 43.5L22.05 44.75" />
<linearGradient
id="LinearGradID_825" gradientUnits="userSpaceOnUse" gradientTransform="matrix(-0.00270081, -0.00257874, 0.00288391, -0.0030365, 22.6, 14.15)" spreadMethod ="pad" x1="-819.2" y1="0" x2="819.2" y2="0" >
<stop  offset="0" style="stop-color:#766D68;stop-opacity:1" />
<stop  offset="1" style="stop-color:#3F3834;stop-opacity:1" />
</linearGradient>
<path style="fill:url(#LinearGradID_825) " d="M26.4,16.4Q24.7 17.25 22.8 17.45L22.15 17.55L19.7 15.55L19.1 15.5L19.2 14.5L19.3 14.1Q19.7 12.2 20.55 10.4L20.7 10.15L21.05 9.85Q25.2 13.95 28.6 15.1L26.4 16.4" />
<linearGradient
id="LinearGradID_826" gradientUnits="userSpaceOnUse" gradientTransform="matrix(-0.000427246, 0.00274658, -0.00398254, -0.000610352, 16.7, 14.35)" spreadMethod ="pad" x1="-819.2" y1="0" x2="819.2" y2="0" >
<stop  offset="0" style="stop-color:#A69D98;stop-opacity:1" />
<stop  offset="1" style="stop-color:#4F4843;stop-opacity:1" />
</linearGradient>
<path style="fill:url(#LinearGradID_826) " d="M17.55,16.7L17.1 17.2L15.5 16.9L14.75 16.55L13.2 15.6L13.25 15.25L16.05 13.6L20.7 10.15L20.55 10.4Q19.7 12.2 19.3 14.1L19.2 14.5L19.1 15.5Q18.4 15.65 17.55 16.7" />
<linearGradient
id="LinearGradID_827" gradientUnits="userSpaceOnUse" gradientTransform="matrix(-0.000793457, -0.00231934, 0.00468445, -0.00160217, 26.65, 18.4)" spreadMethod ="pad" x1="-819.2" y1="0" x2="819.2" y2="0" >
<stop  offset="0" style="stop-color:#766D68;stop-opacity:1" />
<stop  offset="1" style="stop-color:#3F3834;stop-opacity:1" />
</linearGradient>
<path style="fill:url(#LinearGradID_827) " d="M22.15,17.55L22.8 17.45Q24.7 17.25 26.4 16.4L28.6 15.1L28.7 15.1L31.2 19.1Q29.95 21.1 25.5 20.4L24.45 20.35L22.15 17.55" />
<linearGradient
id="LinearGradID_828" gradientUnits="userSpaceOnUse" gradientTransform="matrix(-0.00445557, -0.000473022, 0.000198364, -0.00184631, 29.55, 23.4)" spreadMethod ="pad" x1="-819.2" y1="0" x2="819.2" y2="0" >
<stop  offset="0" style="stop-color:#766D68;stop-opacity:1" />
<stop  offset="1" style="stop-color:#3F3834;stop-opacity:1" />
</linearGradient>
<path style="fill:url(#LinearGradID_828) " d="M30.7,22.35L31.6 22.65L32.5 23.1L33.35 23.65L28.2 23.4L26.1 23.8L26 23.7L25.35 22.95L24.85 22.25L24.5 21.35L24.5 21.3Q24.75 21.7 26.8 22L29 22.2L29.65 22.15L30.7 22.35" />
<linearGradient
id="LinearGradID_829" gradientUnits="userSpaceOnUse" gradientTransform="matrix(-0.00114441, 0.00411987, -0.00434875, -0.00120544, 23.2, 24.9)" spreadMethod ="pad" x1="-819.2" y1="0" x2="819.2" y2="0" >
<stop  offset="0" style="stop-color:#766D68;stop-opacity:1" />
<stop  offset="1" style="stop-color:#3F3834;stop-opacity:1" />
</linearGradient>
<path style="fill:url(#LinearGradID_829) " d="M24.85,22.25L25.35 22.95L26 23.7Q24.3 24.25 22.4 26.15L20.4 28.25L19.95 27.95L19.25 27.2L18.85 26.75L18.8 26.7L19.2 26.45L24 21.8L24.3 21.55L24.5 21.35L24.85 22.25" />
<linearGradient
id="LinearGradID_830" gradientUnits="userSpaceOnUse" gradientTransform="matrix(-0.00213623, 0.00256348, -0.00248718, -0.0020752, 34.45, 20.5)" spreadMethod ="pad" x1="-819.2" y1="0" x2="819.2" y2="0" >
<stop  offset="0" style="stop-color:#766D68;stop-opacity:1" />
<stop  offset="1" style="stop-color:#3F3834;stop-opacity:1" />
</linearGradient>
<path style="fill:url(#LinearGradID_830) " d="M33.35,23.65L32.5 23.1L31.6 22.65L30.7 22.35L29.65 22.15L30.4 22L34.15 18.3Q35.6 16.85 37.7 17Q35.95 22.2 33.5 23.75L33.35 23.65" />
<linearGradient
id="LinearGradID_831" gradientUnits="userSpaceOnUse" gradientTransform="matrix(0.00138855, 0.00309753, -0.00354004, 0.00160217, 8.05, 20.9)" spreadMethod ="pad" x1="-819.2" y1="0" x2="819.2" y2="0" >
<stop  offset="0" style="stop-color:#A69D98;stop-opacity:1" />
<stop  offset="1" style="stop-color:#4F4843;stop-opacity:1" />
</linearGradient>
<path style="fill:url(#LinearGradID_831) " d="M10.05,23.55L9.7 24.05L6.65 21.5Q5.9 21 4.55 19.15L3.7 17.9Q3.85 16.65 8.05 18.6L11.85 21.75Q11.15 22.15 10.6 22.8L10.05 23.55" />
<linearGradient
id="LinearGradID_832" gradientUnits="userSpaceOnUse" gradientTransform="matrix(-0.00012207, 0.00183105, -0.0038147, -0.000244141, 13.95, 18.65)" spreadMethod ="pad" x1="-819.2" y1="0" x2="819.2" y2="0" >
<stop  offset="0" style="stop-color:#A69D98;stop-opacity:1" />
<stop  offset="1" style="stop-color:#4F4843;stop-opacity:1" />
</linearGradient>
<path style="fill:url(#LinearGradID_832) " d="M14.8,19.8L14.75 19.85L12.55 20.3L10.75 18.85Q12.8 17.2 13.2 15.6L14.75 16.55L15.5 16.9L17.1 17.2L14.8 19.8" />
<linearGradient
id="LinearGradID_833" gradientUnits="userSpaceOnUse" gradientTransform="matrix(0.00170898, 0, 0, 0.0022583, 12.4, 23.5)" spreadMethod ="pad" x1="-819.2" y1="0" x2="819.2" y2="0" >
<stop  offset="0" style="stop-color:#A69D98;stop-opacity:1" />
<stop  offset="1" style="stop-color:#4F4843;stop-opacity:1" />
</linearGradient>
<path style="fill:url(#LinearGradID_833) " d="M14.8,21.85L14.75 22L14.7 22.15Q14.15 23.35 13.2 24.4L13.15 24.45Q12.5 23.95 11.35 23.7L10.05 23.55L10.6 22.8Q11.15 22.15 11.85 21.75L12.2 22L14.85 21.7L14.8 21.85" />
<linearGradient
id="LinearGradID_834" gradientUnits="userSpaceOnUse" gradientTransform="matrix(0.000549316, 0.00364685, -0.00338745, 0.00050354, 14.95, 25.15)" spreadMethod ="pad" x1="-819.2" y1="0" x2="819.2" y2="0" >
<stop  offset="0" style="stop-color:#A69D98;stop-opacity:1" />
<stop  offset="1" style="stop-color:#4F4843;stop-opacity:1" />
</linearGradient>
<path style="fill:url(#LinearGradID_834) " d="M16.25,28.25Q15.85 26.95 14.7 25.8L13.45 24.7L13.15 24.45L13.2 24.4Q14.15 23.35 14.7 22.15L14.75 22L14.8 21.85L14.85 21.7Q16.5 25.05 17.5 26.1L18 26.5L16.25 28.25" />
<linearGradient
id="LinearGradID_835" gradientUnits="userSpaceOnUse" gradientTransform="matrix(-0.0010376, 0.00312805, -0.00222778, -0.000732422, 19.95, 27.8)" spreadMethod ="pad" x1="-819.2" y1="0" x2="819.2" y2="0" >
<stop  offset="0" style="stop-color:#766D68;stop-opacity:1" />
<stop  offset="1" style="stop-color:#3F3834;stop-opacity:1" />
</linearGradient>
<path style="fill:url(#LinearGradID_835) " d="M18.2,29.8L18.25 27.1L18.3 26.65L18.8 26.7L18.85 26.75L19.25 27.2L19.95 27.95L20.4 28.25L18.2 29.8" />
<linearGradient
id="LinearGradID_836" gradientUnits="userSpaceOnUse" gradientTransform="matrix(0.00244141, 0.00292969, -0.00187683, 0.00157166, 16.2, 27.3)" spreadMethod ="pad" x1="-819.2" y1="0" x2="819.2" y2="0" >
<stop  offset="0" style="stop-color:#766D68;stop-opacity:1" />
<stop  offset="1" style="stop-color:#3F3834;stop-opacity:1" />
</linearGradient>
<path style="fill:url(#LinearGradID_836) " d="M18.05,29.75L16.35 28.6L16.25 28.25L18 26.5L18.1 26.55L18.3 26.65L18.25 27.1L18.2 29.8L18.05 29.75" />
<linearGradient
id="LinearGradID_837" gradientUnits="userSpaceOnUse" gradientTransform="matrix(-0.00318909, -0.00471497, 0.00300598, -0.00204468, 13.45, 31.1)" spreadMethod ="pad" x1="-819.2" y1="0" x2="819.2" y2="0" >
<stop  offset="0" style="stop-color:#A69D98;stop-opacity:1" />
<stop  offset="1" style="stop-color:#4F4843;stop-opacity:1" />
</linearGradient>
<path style="fill:url(#LinearGradID_837) " d="M13.8,29.15L13.9 29.45Q14.25 30.55 18.15 32.9L18.2 32.85L18.25 32.85L18.25 33.05L18.25 34L18.25 34.6L18.25 35L18.25 35.2L17.6 35.1L15.1 33.2L12.75 31.6L12.3 31.35L11.5 30.75L10.7 30.1L10.3 29.9Q10.75 29.05 10.75 27.8L10.6 26.45Q13 26.8 13.8 29.15" />
<linearGradient
id="LinearGradID_838" gradientUnits="userSpaceOnUse" gradientTransform="matrix(-0.00521851, 0.00299072, -0.00192261, -0.00334167, 24.05, 31.45)" spreadMethod ="pad" x1="-819.2" y1="0" x2="819.2" y2="0" >
<stop  offset="0" style="stop-color:#766D68;stop-opacity:1" />
<stop  offset="1" style="stop-color:#3F3834;stop-opacity:1" />
</linearGradient>
<path style="fill:url(#LinearGradID_838) " d="M18.25,35.2L18.25 35L18.25 34.6L18.25 34L18.25 33.05L18.25 32.85L18.3 32.85L19.7 31.85L21.3 31.15L21.6 31L22.4 30.55L22.6 30.45L23.3 30.15L23.5 30L25.1 29L25.3 28.8L26 28.3L26.7 27.8Q27.15 27.55 27.6 27.45L28.5 27.15L29.4 26.95L31.3 26.8L33 27.05L33.35 27.2L33 28.2Q32.7 28.8 32.2 29.1L32 29.15L30.5 29.25Q29.45 29.25 28.6 29.85L28.05 30.25Q26.4 30.55 24.9 31.9L23.1 33.1Q21.8 33.35 20.45 34.4Q19.4 35.2 18.25 35.2" />
<path style="fill:#0A405F;fill-opacity:1" d="M18.3,26.65L18.1 26.55L18 26.5L17.5 26.1Q16.5 25.05 14.85 21.7L14.85 21.65L15 21.65L14.75 19.85L14.8 19.8L17.1 17.2L17.55 16.7Q18.4 15.65 19.1 15.5L19.7 15.55L22.15 17.55L24.45 20.35L24.3 21.55L24 21.8L19.2 26.45L18.8 26.7L18.3 26.65M17.9,17.85Q17.05 18.55 15.9 20.75L16.65 22.55Q17.2 24.15 17.95 24.95L18.35 25.45Q22.4 22.05 22.85 20.5Q21.35 18.2 19.45 16.95Q18.7 17.15 17.9 17.85" />
<path style="fill:#295BB4;fill-opacity:1" d="M21.8,20.55L21.2 21.4L20 22.7L19.85 22.85L18.35 24.3L18.3 24.2L17.95 23.75L17.25 22.55Q18.75 22.5 19.7 21.2Q20.45 20.1 20.05 19L21.8 20.5L21.8 20.55" />
<path style="fill:#55A2D9;fill-opacity:1" d="M21.8,20.5L20.05 19Q20.45 20.1 19.7 21.2Q18.75 22.5 17.25 22.55L17.95 23.75L18.3 24.2L18.35 24.3L19.85 22.85L20 22.7L21.2 21.4L21.8 20.55L21.8 20.5M19.45,16.95Q21.35 18.2 22.85 20.5Q22.4 22.05 18.35 25.45L17.95 24.95Q17.2 24.15 16.65 22.55L15.9 20.75Q17.05 18.55 17.9 17.85Q18.7 17.15 19.45 16.95M18.2,20.75Q19.75 19.45 18.3 18.55L18.1 18.65Q17.3 19.85 18.1 20.8L18.2 20.75" />
<path style="fill:#8ED0FF;fill-opacity:1" d="M18.1,20.8Q17.3 19.85 18.1 18.65L18.3 18.55Q19.75 19.45 18.2 20.75L18.1 20.8" />
</g>
</svg>
