<?xml version="1.0" encoding="utf-8"?>
<svg version="1.1" id="Layer_1"
xmlns="http://www.w3.org/2000/svg"
xmlns:xlink="http://www.w3.org/1999/xlink"
xmlns:author="http://www.sothink.com"
width="109px" height="147px"
xml:space="preserve">
<g id="148" transform="matrix(1, 0, 0, 1, -19.05, -3.9)">
<path style="fill:#EE775A;fill-opacity:1" d="M101.9,16.25L85.75 10.7L84.95 14.75L84.85 14.7L84.75 15.45L83.2 18.75L81.35 20.15Q80.8 20.45 81.3 21L81.5 21.2Q79.45 31.9 75.95 38.45L66.35 55.15Q60.3 65.25 61.05 75.75Q61.8 86.2 71.55 94.75L83.6 104.55L81.4 103Q73.55 98 69.2 94.45Q64.8 90.8 62.35 86.7Q59.85 82.6 59.15 75.5Q58.4 68.4 61.4 59.7Q64.4 50.95 71.05 42.45Q77.65 34 79.5 19.3Q82.4 17.2 83.3 14.2Q83.85 12.2 84 10.05L84.05 7.85L85.95 8.65Q104 15.75 122.75 20.3Q124.4 21.4 124.65 23.9L101.9 16.25M30.4,102.2Q28.4 98.5 29 93.15Q29.8 85.75 35.5 83.2L49.8 84.75L54.75 85.15L42.25 85.55L37.95 85.8Q34.1 86 32.3 89.75Q30.5 93.4 30.65 96.35Q30.8 99.3 30.4 102.2" />
<path style="fill:#C23940;fill-opacity:1" d="M48,126.25Q47.65 124 46.8 121.3Q44.7 115 39.95 111Q36.25 108.8 32.2 104.7L30.4 102.2Q30.8 99.3 30.65 96.35Q30.5 93.4 32.3 89.75Q34.1 86 37.95 85.8L42.25 85.55L54.75 85.15L56.2 85.3Q56.55 88.8 59 92.95Q61.8 97.7 65.35 101.05Q66.8 106 66.95 110.9Q67.05 113.35 66.8 114.8L70.95 114.75Q71.55 123.6 75.2 126.9L76.15 127.6Q74.75 127.25 73.25 126.35Q75.05 129.8 80.05 129.7Q85 129.55 88.1 125.5Q91.15 121.4 90.2 114.75Q89.45 109.85 85.2 105.95L84.9 105.65L84.7 105.5L83.6 104.55L71.55 94.75Q61.8 86.2 61.05 75.75Q60.3 65.25 66.35 55.15L75.95 38.45Q79.45 31.9 81.5 21.2Q82.5 22.1 85.8 23.5Q91.75 26 100.9 28.5Q112.65 31.65 122 32.8Q118.75 36.5 114.55 42.65Q109.5 49.95 107.2 63.4Q104.9 76.8 116.25 92.15Q127.55 107.5 120.8 119.9Q114.05 132.35 104.5 130.35Q107.75 128.1 107.6 125.45Q102.65 131 92.6 133.65Q82.5 136.2 77.3 133Q72.1 129.8 70.75 125.85Q70.25 120.75 69.4 117.1L64.55 117.35Q64.95 114.75 62.4 107.9Q56.6 94.55 51.35 90.45Q46.05 86.35 41.65 86.35Q37.2 86.4 35.55 90.85Q33.85 95.25 35.15 101.55Q36 105.3 38.9 107.7Q41.95 110.25 44.55 111.25Q49.95 117.5 48 126.25M84.55,16.55Q84.1 17.75 83.2 18.75L84.75 15.45L84.55 16.55M98.35,20L84.95 14.75L85.75 10.7L101.9 16.25L124.65 23.9L124.5 26.8Q111 24.2 98.35 20M34.4,138.4Q34.55 138.9 35.1 139.1Q36.05 139.55 36.95 139.8Q40.45 140.35 43.1 139Q45.95 137.55 47.45 133.9Q48.55 131.2 48.15 127.45Q50.65 125.9 53.05 125.05Q59.75 122.6 64.2 125.85Q64.35 133.35 62.7 138.85Q60.9 141.2 56.75 142.75Q54.4 143.65 51.35 144.35L41.55 146.6L39.85 146.85Q32.5 144.2 28.3 139.45Q24.05 134.75 22.75 125.4Q21.4 116.1 22 116.75L23 118.1L25.4 120.6Q26.1 124.3 27.1 127.45Q29.95 136.3 34.4 138.4M120.95,112.05Q121.45 106.2 119.15 100.55Q112.35 108.6 102.1 106.9Q91.85 105.2 87.15 103.25L85.6 103.5L87.3 105Q92.35 110 91.8 118.75Q91.5 122.85 89.05 126.45Q84.75 132.75 76.1 130.95Q88 134.1 99.1 128.5Q104.65 125.7 107.85 122.25L109.35 124.1Q110.5 126.45 108.75 129.15Q111.2 128.15 112.85 126.8Q115.1 125 117.6 121.5Q120.45 117.55 120.95 112.05" />
<path style="fill:#931A26;fill-opacity:1" d="M124.5,26.8L123.3 31.3L122 32.8Q112.65 31.65 100.9 28.5Q91.75 26 85.8 23.5Q82.5 22.1 81.5 21.2L81.3 21Q80.8 20.45 81.35 20.15L83.2 18.75Q84.1 17.75 84.55 16.55L84.75 15.45L84.85 14.7L84.95 14.75L98.35 20Q111 24.2 124.5 26.8M44.55,111.25L44.65 111.25L44.4 111.05L42.05 108.75Q39.15 105.4 38.1 100.95Q36.55 94.7 39.25 90.75Q41.9 86.75 50.4 95.2Q58.85 103.55 62.55 120.15L63.85 120.55L64.2 125.85Q59.75 122.6 53.05 125.05Q50.65 125.9 48.15 127.45L48 126.25Q49.95 117.5 44.55 111.25M27.1,127.45Q26.1 124.3 25.4 120.6Q27.3 122.3 29.55 123.3Q33.3 124.95 36.95 124.4L41.5 123.35Q42.85 122.85 43.75 121.45Q45.75 125.7 45.25 129.45Q44.7 133.3 41.35 136.65Q38 138.9 34.35 138L34.4 138.4Q29.95 136.3 27.1 127.45M56.2,85.3L58.5 85.75Q62.85 96.95 77.15 104.65Q91.4 112.25 86.4 121.65Q82.3 129.35 76.15 127.6L75.2 126.9Q71.55 123.6 70.95 114.75L66.8 114.8Q67.05 113.35 66.95 110.9Q66.8 106 65.35 101.05Q61.8 97.7 59 92.95Q56.55 88.8 56.2 85.3M117.6,121.5Q115.1 125 112.85 126.8Q111.2 128.15 108.75 129.15Q110.5 126.45 109.35 124.1L107.85 122.25Q104.65 125.7 99.1 128.5Q88 134.1 76.1 130.95Q84.75 132.75 89.05 126.45Q91.5 122.85 91.8 118.75Q92.35 110 87.3 105L85.6 103.5L87.15 103.25Q91.85 105.2 102.1 106.9Q112.35 108.6 119.15 100.55Q121.45 106.2 120.95 112.05Q120.45 117.55 117.6 121.5" />
<path style="fill:#690A04;fill-opacity:1" d="M126.8,20.55Q127.9 22.6 128.05 26.25L128.05 27.4Q127.85 30.3 126.4 32.65L126.05 33.15Q124.25 35.8 120.85 39.85Q117.05 44.25 114.1 51.1Q111.15 57.85 110.6 63.2Q110 68.55 110.65 73.05Q111.3 77.55 114.6 82.95L118.9 89.75L123.75 98.3Q127.5 105.35 126.75 112.75Q125.95 120.2 121.25 125.75Q116.5 131.3 113.75 132.65Q111 133.95 108.2 133.9Q105.3 133.85 102.8 132.75Q99.85 135.65 92.3 137.4Q84.75 139.2 79.85 137.55Q74.95 135.85 71.95 133Q68.95 130.1 67.2 127.55Q67.85 125.15 67.05 120.3L66.75 120.15L66.1 120.35Q66.55 123.8 66.35 127.9Q66.1 132.7 64.95 138.35Q64.75 140.5 64 142Q63.05 143.8 61.3 144.55L51.65 147.55Q39.75 150.7 38.55 150.05L35.85 148.95Q23 142.85 20.4 131.05Q18.25 121.2 19.55 113.8Q20.2 111.1 21.4 111.55L22.4 112.25L24.55 114.55L25.8 116.05Q29 120.15 34.8 120.85Q40.6 121.5 41.85 119.05Q41.25 114.7 35.4 111.65Q23.7 105.25 26.8 89.15Q27.7 84.6 30.75 81.9L31.3 81.45Q33.45 79.8 35.3 79.75L41.3 80.55L50.9 81.85L56.35 82.1L57.05 82L56.8 80.5Q54.9 68.35 57.9 60.75Q61.3 52.1 64.7 46.65L72.05 35.25Q74.1 32.2 75.15 27.2Q76.15 22.15 75.85 20Q75.5 17.85 77.55 17.15Q81.8 12.7 78.9 7.5Q79.85 4.45 81.45 4L82.2 3.9L85.95 5.5Q103.55 12.9 121.4 17.3L124.4 18Q125.7 18.5 126.8 20.55M84.7,105.5L84.9 105.65L85.2 105.95Q89.45 109.85 90.2 114.75Q91.15 121.4 88.1 125.5Q85 129.55 80.05 129.7Q75.05 129.8 73.25 126.35Q74.75 127.25 76.15 127.6Q82.3 129.35 86.4 121.65Q91.4 112.25 77.15 104.65Q62.85 96.95 58.5 85.75L56.2 85.3L54.75 85.15L49.8 84.75L35.5 83.2Q29.8 85.75 29 93.15Q28.4 98.5 30.4 102.2L32.2 104.7Q36.25 108.8 39.95 111Q44.7 115 46.8 121.3Q47.65 124 48 126.25L48.15 127.45Q48.55 131.2 47.45 133.9Q45.95 137.55 43.1 139Q40.45 140.35 36.95 139.8Q36.05 139.55 35.1 139.1Q34.55 138.9 34.4 138.4L34.35 138Q38 138.9 41.35 136.65Q44.7 133.3 45.25 129.45Q45.75 125.7 43.75 121.45Q42.85 122.85 41.5 123.35L36.95 124.4Q33.3 124.95 29.55 123.3Q27.3 122.3 25.4 120.6L23 118.1L22 116.75Q21.4 116.1 22.75 125.4Q24.05 134.75 28.3 139.45Q32.5 144.2 39.85 146.85L41.55 146.6L51.35 144.35Q54.4 143.65 56.75 142.75Q60.9 141.2 62.7 138.85Q64.35 133.35 64.2 125.85L63.85 120.55L62.55 120.15Q58.85 103.55 50.4 95.2Q41.9 86.75 39.25 90.75Q36.55 94.7 38.1 100.95Q39.15 105.4 42.05 108.75L44.4 111.05L44.65 111.25L44.55 111.25Q41.95 110.25 38.9 107.7Q36 105.3 35.15 101.55Q33.85 95.25 35.55 90.85Q37.2 86.4 41.65 86.35Q46.05 86.35 51.35 90.45Q56.6 94.55 62.4 107.9Q64.95 114.75 64.55 117.35L69.4 117.1Q70.25 120.75 70.75 125.85Q72.1 129.8 77.3 133Q82.5 136.2 92.6 133.65Q102.65 131 107.6 125.45Q107.75 128.1 104.5 130.35Q114.05 132.35 120.8 119.9Q127.55 107.5 116.25 92.15Q104.9 76.8 107.2 63.4Q109.5 49.95 114.55 42.65Q118.75 36.5 122 32.8L123.3 31.3L124.5 26.8L124.65 23.9Q124.4 21.4 122.75 20.3Q104 15.75 85.95 8.65L84.05 7.85L84 10.05Q83.85 12.2 83.3 14.2Q82.4 17.2 79.5 19.3Q77.65 34 71.05 42.45Q64.4 50.95 61.4 59.7Q58.4 68.4 59.15 75.5Q59.85 82.6 62.35 86.7Q64.8 90.8 69.2 94.45Q73.55 98 81.4 103L83.6 104.55L84.7 105.5" />
</g>
</svg>
