<?xml version="1.0" encoding="utf-8"?>
<svg version="1.1" id="Layer_1"
xmlns="http://www.w3.org/2000/svg"
xmlns:xlink="http://www.w3.org/1999/xlink"
xmlns:author="http://www.sothink.com"
width="46px" height="47px"
xml:space="preserve">
<g id="458" transform="matrix(1, 0, 0, 1, 0, 0)">
<path style="fill:#301D16;fill-opacity:1" d="M36.55,23.9L36 22.65L35.75 21.1L35.95 21.45L36.4 22.2L37.35 23.05Q38.4 21.25 39.8 20.55Q41.15 19.9 42.15 19.9L42.2 19.9L43.8 20.15L43.95 20.2L43.8 19.95Q43.3 19.15 42.6 18.65Q40.75 17.3 37.65 17.55L36.7 17.65L37.35 17.05Q38.35 16.2 39.5 16.35Q39.6 15 40.1 14.05Q40.3 13.55 40.65 13.15L41.35 12.45L42.8 11.35Q39.9 10.2 37.7 12.9L37.4 13.35L36.3 14.25L36.15 14.3L35.1 14.5L34.95 14.45Q36 12.8 36.25 11.3L36.4 10.4Q36.6 8.35 36.3 6.3L36.2 5.55L36.15 5.2Q35.65 2.6 34.9 2.65Q32.4 4.15 30.35 5.85Q27.9 7.85 26.1 10.2L24.7 12.1L23.95 13.3L23.9 12.8Q23.75 11.25 24.5 9.7L25 8.75L25.7 7.75Q24.7 7.05 23.65 7.2L21.9 7.6L21 7.85L20.95 7.85L20.85 7.85L20.75 7.85L20.2 7.25L19.65 6.1Q18.95 4.45 17.65 3Q16.35 1.5 15.65 2.1L15.2 2.75Q12.2 6.85 12.05 11.4L12.05 11.5L12.7 11.4L12.9 11.3L13.15 11.2L13.9 11L14.5 10.95L14.8 10.95L15.65 11.05L15.7 11.15L15.45 11.3L15.4 11.35L14.95 11.65L15.35 11.35L15.35 11.3L15.3 11.35L15.25 11.35Q13.25 12.15 11.25 13.5Q8.45 15.6 7.25 17.8Q6.15 21.25 8.25 25.8L8.85 27.05Q9.5 28.4 8.1 30.6L7.35 31.75L3.45 40.1L3.6 40.15L2.95 40.1L1.55 40.2L1.9 40.05L2 39.8Q4.2 34.2 7.45 28.3Q5.1 24.9 5.25 19.35Q6 15.65 10.25 12.65L10.7 8.5Q11.75 4.45 13.3 2.45L13.95 1.6Q14.95 0.4 15.4 0.15L16.5 0.1Q17 0.3 18.5 1.4Q19.95 2.45 21.5 6Q21.7 5.75 22.95 5.65L23.05 5.65Q25 5.5 26.75 6.25Q29.8 3.75 32.9 1.95Q36 0.1 36.65 1.3Q38.05 3.15 38.25 10.3Q39.65 9.4 41.65 9.55Q42.95 9.6 43.8 10.1L44.6 10.7L45 11.25Q45.25 11.65 45 11.85L44.8 11.95L44.5 12.05Q44.15 12.15 43.8 12.4Q43.35 12.65 42.9 13.05Q41.75 13.95 41.45 14.75L41.05 16.25Q42.4 16.65 43.75 17.8L43.8 17.9Q44.6 18.6 45 19.4L45.2 19.95L45.3 20.25Q45.5 21.15 45 21.3L44.45 21.3L43.8 21.2L41.7 21.3Q40.05 21.55 38.7 23.75L39.75 24.35L40 24.4L41.8 24.4Q42.9 24.25 42.4 25.7Q41.85 27.1 40.45 28.15Q39.05 29.2 37.8 29.45L38.45 31.5Q38.9 33.45 38.4 35.05L38.25 35.45Q37.55 37.35 36.85 37.1L34.15 35.75Q32.2 34.65 29.3 34.55Q26.4 34.35 24.2 35.4Q21.65 37.9 19.9 40.35L19.15 41.45Q17.2 44.45 13.95 45.7Q10.7 46.9 7.1 45.85L6.6 45.75L6.5 45.85L7.2 44.55L7.4 44L7.35 44.2Q8.55 44.8 10.8 44.6Q13.05 44.35 14.4 43.55L17.6 40.35L18.2 39.55Q20.6 36.4 26.8 29.5Q27.6 31.3 25.55 33.45L28.55 33L31.2 33.2Q33.05 33.4 36.75 35.35Q37.3 34.85 37.35 33.95L37.2 32.55L36.8 31.25Q36.35 30.15 35.6 29.35L34.75 29L33.85 28.2L33.55 27.7L33.5 27.65L34.4 27.85Q36.9 28.2 38.75 27.05L39 26.9L40.05 25.95L38.8 25.7Q37.3 25.15 36.55 23.9M20.45,20.1Q22.8 18.5 24.75 19.95L24.75 20L24.7 20L23.3 20.55L22.9 20.75L22.55 20.95L22.1 21.3L21.7 21.65L20.7 22.75Q18.15 25.3 17.1 29.7L17.15 29.7L17.1 29.75L16.6 31.2L16.05 31.8L15.4 32.2L12.9 32.3L12.75 32.25Q11.4 31.8 10.6 30.2L10.25 29.4L11.75 30.35Q13.65 31.2 15 30.4Q16.35 23.8 19.4 21Q19.9 20.45 20.45 20.1M33.3,8Q31.8 8.1 30.45 10.1Q29.05 12.1 29.65 12.75Q30.25 13.4 31.55 13.2Q32.85 13 33.4 10.8Q33.9 8.55 33.3 8M31.95,14.45Q30.75 14.65 29.25 13.95Q28.1 13.45 28.05 12.55L28.05 12.15L28.1 11.85Q28.5 10.4 29.7 8.9Q30.9 7.4 32.05 6.85Q33.2 6.25 33.95 6.3Q34.3 6.35 34.6 7.35Q34.85 8.45 34.65 10.45Q34.45 12.3 33.9 13.25L33.8 13.4Q33.15 14.25 31.95 14.45M28.6,21.15L28.75 21.15L28.8 21.15L31.3 21.2Q32.9 22 33.35 23.8L33.1 24.2L32.05 24.35L31.85 24.35L29.5 24.65L29.1 24.75L28.95 24.75L28.85 24.7L28.85 24.6L29.3 24.1Q30 23.45 31.1 23.3L32 23.25L31.55 22.75Q30.6 21.9 29.4 21.45L29.15 21.35L28.6 21.15" />
<path style="fill:#855F48;fill-opacity:1" d="M38.95,14.25Q37.85 15.5 37.35 17.05L36.7 17.65L37.65 17.75Q38.9 17.75 40.4 18.65Q38 18.7 37 19.5L39.7 19.8Q39 19.8 37.65 20.9L36.4 22.2L35.95 21.45L35.75 21.1L36 22.65L36.55 23.9L36.85 24.8Q37.3 25.95 37.85 26.5L36.85 26.95L36.55 26.95L36.8 26.65L36.85 26.2L36.55 26.2L34.8 27.55L34.4 27.85L33.5 27.65L33.55 27.7L33.7 28.3Q34 29.1 35.05 30.1L35.55 30.5L36.15 32.75L35.45 32.2Q33.1 30.55 31.25 30.55L29.9 30.85L30.95 27.25L30.2 27.25Q28.1 28.35 27.35 28.85Q27.2 28.1 26.3 26.8L25.05 25.5L25.1 25.45L25.25 24.8Q25.25 23.05 23.8 21.55L23.6 21.4L24.05 20.75L24.7 20L24.75 20L24.75 19.95Q22.8 18.5 20.45 20.1Q18 20.75 16.35 22.85Q14.3 25.4 14.65 27.7L13.9 27.4L13.15 26.95Q13.4 28.6 12.9 29.55Q12.5 30.25 11.75 30.35L10.25 29.4L10.6 30.2Q11.4 31.8 12.75 32.25L12.9 32.3L13.45 32.85Q13.9 33.3 15.1 33.3Q16.7 33.3 17.5 32.65L18.15 31.9L18.5 31.9Q21.35 31.9 23.3 29.85L24.5 28.15L23.55 30.1L20.3 34.45L20.15 34.3L19.95 34L19.4 33.55L18 36.35Q16.75 38.55 15.85 38.95L15.85 38.8Q16.4 38.3 15.95 36.7Q15.45 35.05 14.5 34.9Q14.3 36.8 11.5 39.35L10.35 40.35L7.25 42.2Q6.7 41.15 5.05 40.55L5.1 40.35Q5.35 38.85 6.25 37.4Q7.8 35 10.1 35.35Q8 33.9 8 33.55Q8 32.15 9.35 30.25Q10.2 29 11.05 28.6Q11.9 28.15 10.9 27.1Q9.85 25.95 8.9 23.9Q8.45 20.7 10.2 18.6Q11.9 16.45 22.25 10.75L19.85 10.75L15.65 11.05L14.8 10.95L14.5 10.95L17.3 9.9L17.7 9.65Q17.9 9.5 18.05 9.45L18.4 9.35L21 9.1L24.2 9.6L24.5 9.7Q23.75 11.25 23.9 12.8L23.95 13.3L24.7 12.1L26.1 10.2L26.45 10.3Q29.2 7.5 30.4 6.65Q31.25 6.05 34.55 4.7L34.55 5.8L35.3 5.05Q35.65 5.05 36.3 6.3Q36.6 8.35 36.4 10.4L36.3 10.55L34.7 13.45L33.5 15.4L33.6 15.4L35.1 14.5L36.15 14.3L36.3 14.25L37.4 13.35L38.8 12.5Q40.75 11.45 40.9 11.9L40.9 11.95L41.25 11.95L40.9 12.65Q39.8 13.25 38.95 14.25M27.55,13.25L26.95 14.4Q26.95 14.6 28.25 15.1L30.3 15.6Q31.75 15.6 33.05 14.3L33.8 13.4L33.9 13.25Q34.45 12.3 34.65 10.45Q34.85 8.45 34.6 7.35Q34.3 6.35 33.95 6.3Q33.2 6.25 32.05 6.85Q30.9 7.4 29.7 8.9Q28.5 10.4 28.1 11.85L28.05 12.15L28.05 12.55L27.55 13.25M29.7,19L32.45 18.95Q33.9 19.05 35.2 19.7Q35.6 19.55 34.95 19L34.2 18.25L34.95 18.2L35.55 18.05L35 17.55Q34.65 17.2 33.3 17L29.7 16.75Q32.1 17.75 31.1 18.2L29.5 18.8Q28.9 18.9 29.7 19M29.95,24.75Q30.45 24.75 33.6 26.05L33.7 26.15L33.1 24.2L33.35 23.8Q32.9 22 31.3 21.2L28.8 21.15L28.75 21.15L28.6 21.15L29.15 21.35L30.15 22.25L30.8 22.9L30.55 22.95Q29 23.35 28.85 24.15L28.85 24.6L28.85 24.7L28.95 24.75L29.1 24.75L29.95 24.75M13.15,11.2L12.9 11.3L12.7 11.4L12.05 11.5L12.05 11.4Q12.2 6.85 15.2 2.75L16.1 4.4Q16.9 6.15 16.9 7L16.9 7.9Q16.45 7.45 15.85 7.45L15.05 9.2L13.9 11L13.15 11.2M9.6,21.75Q9.85 24.4 11.25 25.75L11.75 26.15Q11.9 25.3 12.9 23.1Q13.85 20.9 16.2 19.3Q11.25 21.5 10.45 20.6L9.6 19.5L9.6 21.75" />
<path style="fill:#D7A78C;fill-opacity:1" d="M37.7,12.9Q39.9 10.2 42.8 11.35L41.35 12.45L40.9 12.65L41.25 11.95L40.9 11.95L40.9 11.9Q40.75 11.45 38.8 12.5L37.4 13.35L37.7 12.9M36.3,6.3Q35.65 5.05 35.3 5.05L34.55 5.8L34.55 4.7Q31.25 6.05 30.4 6.65Q29.2 7.5 26.45 10.3L26.1 10.2Q27.9 7.85 30.35 5.85Q32.4 4.15 34.9 2.65Q35.65 2.6 36.15 5.2L36.2 5.55L36.3 6.3M10.4,16.65Q9.2 17.9 8.45 19.75Q7.65 21.6 8.25 25.8Q6.15 21.25 7.25 17.8Q8.45 15.6 11.25 13.5Q13.25 12.15 15.25 11.35L15.3 11.35L15.35 11.35L14.95 11.65L15.4 11.35L15.85 11.35L15.45 11.3L15.7 11.15L15.65 11.05L19.85 10.75Q11.6 15.35 10.4 16.65M42.6,18.65L41.05 18.6L40.4 18.65Q38.9 17.75 37.65 17.75L36.7 17.65L37.65 17.55Q40.75 17.3 42.6 18.65M25,8.75L24.2 8.25Q23.25 7.75 22.5 7.75L21 7.85L21.9 7.6L23.65 7.2Q24.7 7.05 25.7 7.75L25 8.75" />
<path style="fill:#57351A;fill-opacity:1" d="M35.1,14.5L33.6 15.4L33.5 15.4L34.7 13.45L36.3 10.55L36.4 10.4L36.25 11.3Q36 12.8 34.95 14.45L35.1 14.5M13.9,11L15.05 9.2L15.85 7.45Q16.45 7.45 16.9 7.9L16.9 7Q16.9 6.15 16.1 4.4L15.2 2.75L15.65 2.1Q16.35 1.5 17.65 3Q18.95 4.45 19.65 6.1L20.2 7.25L20.75 7.85L20.85 7.85L20.95 7.85L19.3 8.85L18.4 9.35L18.05 9.45Q17.9 9.5 17.7 9.65L17.3 9.9L14.5 10.95L13.9 11M37.35,33.95Q37.3 34.85 36.75 35.35Q33.05 33.4 31.2 33.2L28.55 33L25.55 33.45Q27.6 31.3 26.8 29.5Q20.6 36.4 18.2 39.55L17.6 40.35L14.4 43.55Q13.05 44.35 10.8 44.6Q8.55 44.8 7.35 44.2L7.4 44Q7.65 42.95 7.25 42.2L10.35 40.35L11.5 39.35Q14.3 36.8 14.5 34.9Q15.45 35.05 15.95 36.7Q16.4 38.3 15.85 38.8L15.85 38.95Q16.75 38.55 18 36.35L19.4 33.55L19.95 34L20.15 34.3L20.3 34.45L23.55 30.1L24.5 28.15L23.3 29.85Q21.35 31.9 18.5 31.9L18.15 31.9L17.5 32.65Q16.7 33.3 15.1 33.3Q13.9 33.3 13.45 32.85L12.9 32.3L15.4 32.2L16.05 31.8L16.6 31.2L16.8 30.85L20.2 29.8Q23.45 27.6 23.25 24.55Q23.1 23 22.1 21.3L22.55 20.95L22.9 20.75L23.3 20.55L24.7 20L24.05 20.75L23.6 21.4L23.8 21.55Q25.25 23.05 25.25 24.8L25.1 25.45L25.05 25.5L26.3 26.8Q27.2 28.1 27.35 28.85Q28.1 28.35 30.2 27.25L30.95 27.25L29.9 30.85L31.25 30.55Q33.1 30.55 35.45 32.2L36.15 32.75L37.35 33.95M35.55,30.5L35.05 30.1Q34 29.1 33.7 28.3L33.55 27.7L33.85 28.2L34.75 29L35.6 29.35Q36.35 30.15 36.8 31.25Q36.1 31 35.55 30.5M38.45,26L38.8 25.7L40.05 25.95L39 26.9L38.75 27.05Q36.9 28.2 34.4 27.85L34.8 27.55L36.55 26.2L36.85 26.2L36.8 26.65L36.55 26.95L36.85 26.95L37.85 26.5L38.45 26M41.05,18.6L42.6 18.65Q43.3 19.15 43.8 19.95L43.95 20.2L43.8 20.15L42.2 19.9L42.15 19.9Q41.15 19.9 39.8 20.55Q38.4 21.25 37.35 23.05L36.4 22.2L37.65 20.9Q39 19.8 39.7 19.8L37 19.5Q38 18.7 40.4 18.65L41.05 18.6M37.35,17.05Q37.85 15.5 38.95 14.25Q39.8 13.25 40.9 12.65L41.35 12.45L40.65 13.15Q40.3 13.55 40.1 14.05Q39.6 15 39.5 16.35Q38.35 16.2 37.35 17.05M33.8,13.4L33.05 14.3Q31.75 15.6 30.3 15.6L28.25 15.1Q26.95 14.6 26.95 14.4L27.55 13.25L28.05 12.55Q28.1 13.45 29.25 13.95Q30.75 14.65 31.95 14.45Q33.15 14.25 33.8 13.4M29.5,18.8L31.1 18.2Q32.1 17.75 29.7 16.75L33.3 17Q34.65 17.2 35 17.55L35.55 18.05L34.95 18.2L34.2 18.25L34.95 19Q35.6 19.55 35.2 19.7Q33.9 19.05 32.45 18.95L29.7 19Q28.9 18.9 29.5 18.8M30.8,22.9L31.55 22.75L32 23.25L31.1 23.3Q30 23.45 29.3 24.1L28.85 24.6L28.85 24.15Q29 23.35 30.55 22.95L30.8 22.9M29.1,24.75L29.5 24.65L31.85 24.35L32.05 24.35L33.1 24.2L33.7 26.15L33.6 26.05Q30.45 24.75 29.95 24.75L29.1 24.75M9.6,19.5L10.45 20.6Q11.25 21.5 16.2 19.3Q13.85 20.9 12.9 23.1Q11.9 25.3 11.75 26.15L11.25 25.75Q9.85 24.4 9.6 21.75L9.6 19.5" />
<path style="fill:#433125;fill-opacity:1" d="M33.4,10.8Q32.85 13 31.55 13.2Q30.25 13.4 29.65 12.75Q29.05 12.1 30.45 10.1Q31.8 8.1 33.3 8Q33.9 8.55 33.4 10.8M1.5,43.45L1.9 42.8Q2.6 42.05 4.3 42.05L4.75 42.05L5.45 42.8Q6.05 43.65 5.45 44.25L4.05 44.9Q3.25 45 2.35 44.5Q1.6 44.1 1.5 43.45M3.95,43Q3.4 43.4 2.85 43.4L2.25 43.35L2.6 44.05Q2.9 44.5 3.65 44.5L4.5 44.3Q5.1 44 5.1 43.6Q5.1 43.1 4.3 42.2Q4.6 42.55 3.95 43" />
<path style="fill:#B47F60;fill-opacity:1" d="M24.5,9.7L24.2 9.6L21 9.1L18.4 9.35L19.3 8.85L20.95 7.85L21 7.85L22.5 7.75Q23.25 7.75 24.2 8.25L25 8.75L24.5 9.7M4.9,40.5L4.5 40.35L4.4 40.35L3.6 40.15L3.45 40.1L7.35 31.75L8.1 30.6Q9.5 28.4 8.85 27.05L8.25 25.8Q7.65 21.6 8.45 19.75Q9.2 17.9 10.4 16.65Q11.6 15.35 19.85 10.75L22.25 10.75Q11.9 16.45 10.2 18.6Q8.45 20.7 8.9 23.9Q9.85 25.95 10.9 27.1Q11.9 28.15 11.05 28.6Q10.2 29 9.35 30.25Q8 32.15 8 33.55Q8 33.9 10.1 35.35Q7.8 35 6.25 37.4Q5.35 38.85 5.1 40.35L5.05 40.55L4.9 40.5M19.4,21Q16.35 23.8 15 30.4Q13.65 31.2 11.75 30.35Q12.5 30.25 12.9 29.55Q13.4 28.6 13.15 26.95L13.9 27.4L14.65 27.7Q14.3 25.4 16.35 22.85Q18 20.75 20.45 20.1Q19.9 20.45 19.4 21M36.8,31.25L37.2 32.55L37.35 33.95L36.15 32.75L35.55 30.5Q36.1 31 36.8 31.25M38.8,25.7L38.45 26L37.85 26.5Q37.3 25.95 36.85 24.8L36.55 23.9Q37.3 25.15 38.8 25.7M15.3,11.35L15.35 11.3L15.35 11.35L15.3 11.35M15.4,11.35L15.45 11.3L15.85 11.35L15.4 11.35M30.8,22.9L30.15 22.25L29.15 21.35L29.4 21.45Q30.6 21.9 31.55 22.75L30.8 22.9" />
<path style="fill:#4A1404;fill-opacity:1" d="M17.1,29.75L17.15 29.7L20.35 27.95Q21.15 27.35 21.4 26.4L21.4 26.3Q21.9 26.05 21.65 24.85L21.55 24.75L21.45 24.7L21.3 23.4L21.25 23.35L21 22.4L20.7 22.75L21.7 21.65L22.1 21.3Q23.1 23 23.25 24.55Q23.45 27.6 20.2 29.8L16.8 30.85L16.6 31.2L17.1 29.75" />
<path style="fill:#A14C27;fill-opacity:1" d="M21.3,23.4L21.45 24.7L20.5 24.6Q20.1 24.6 20.1 25Q20.05 25.65 20.3 26.2L21.4 26.3L21.4 26.4L20.8 26.85Q19.3 28 18.85 28L18.65 28L19.75 25.45Q20.5 24 21.3 23.4" />
<path style="fill:#E0E0E0;fill-opacity:1" d="M20.3,26.2Q20.05 25.65 20.1 25Q20.1 24.6 20.5 24.6L21.45 24.7L21.55 24.75L21.65 24.85Q21.9 26.05 21.4 26.3L20.3 26.2" />
<path style="fill:#853716;fill-opacity:1" d="M17.1,29.7Q18.15 25.3 20.7 22.75L21 22.4L21.25 23.35L21.3 23.4Q20.5 24 19.75 25.45L18.65 28L18.85 28Q19.3 28 20.8 26.85L21.4 26.4Q21.15 27.35 20.35 27.95L17.15 29.7L17.1 29.7" />
<path style="fill:#150F0B;fill-opacity:1" d="M5.05,40.55Q6.7 41.15 7.25 42.2Q7.65 42.95 7.4 44L7.2 44.55L6.5 45.85Q4.85 46.9 2.65 46.3L2 46.05Q1.3 45.6 0.8 44.95Q0.2 44.1 0 42.85Q0 41.15 0.8 40.6L0.9 40.55L1.25 40.35L1.55 40.2L2.95 40.1L3.6 40.15L4.4 40.35L4.5 40.35L4.9 40.5L5.05 40.55M2.35,44.5Q3.25 45 4.05 44.9L5.45 44.25Q6.05 43.65 5.45 42.8L4.75 42.05L3.9 41.7L2.25 41.75Q1.55 42 1.5 43L1.5 43.45Q1.6 44.1 2.35 44.5" />
<path style="fill:#807065;fill-opacity:1" d="M4.3,42.05Q2.6 42.05 1.9 42.8L1.5 43.45L1.5 43Q1.55 42 2.25 41.75L3.9 41.7L4.75 42.05L4.3 42.05" />
<path style="fill:#251B15;fill-opacity:1" d="M4.3,42.2Q5.1 43.1 5.1 43.6Q5.1 44 4.5 44.3L3.65 44.5Q2.9 44.5 2.6 44.05L2.25 43.35L2.85 43.4Q3.4 43.4 3.95 43Q4.6 42.55 4.3 42.2" />
</g>
</svg>
