<?xml version="1.0" encoding="utf-8"?>
<svg version="1.1" id="Layer_1"
xmlns="http://www.w3.org/2000/svg"
xmlns:xlink="http://www.w3.org/1999/xlink"
xmlns:author="http://www.sothink.com"
width="15px" height="17px"
xml:space="preserve">
<g id="215" transform="matrix(1, 0, 0, 1, 0, 0)">
<path style="fill:#1E1208;fill-opacity:1" d="M11.5,2.55L11.3 2.3L11.15 2.3L11.5 2.2L11.5 2.15L11.35 1.4L11.2 0.85L8.55 0.95Q6.4 1.4 4.65 2.45Q3.05 3.4 2 4.6L2.6 5.3L2.8 5.6L3.35 5.25L3.15 5.5L3.2 5.75L3.2 5.8L3.4 6.05L2.95 6.35L2.7 6.45L2.45 6.3L1.25 4.8L1.15 4.6L1.25 4.35Q2.4 2.95 4.3 1.85Q6.15 0.7 8.4 0.25Q10.75 -0.25 11.7 0.25L11.8 0.35L11.9 0.5L12.25 2.2L12.25 2.3L12.3 2.4L12.25 2.65L12.05 2.8L11.6 2.9L11.5 2.55M1.5,14.15L1.5 14L1.45 13.95L1.65 13.95L1.85 13.9L1.9 13.9L2.5 13.85L2.85 13.8Q5.8 13.5 7.8 12.55Q10.35 11.4 11.6 10.05L11.7 10L11.7 9.95L11.95 9.7L12.8 8.8L12.85 8.85L12.9 8.95L13 9.05L13.3 9.05L13.35 9.05L13.5 8.9L13.55 8.7L13.55 8.75L13.65 8.8L13.7 8.9L14.2 9.85L14.3 10.1L14.65 10.75L14.85 11.15Q15.2 11.75 12.8 13.25L11.95 13.75L11.7 13.85L11.5 13.75L10.9 13.1L10.45 14.4L10.35 14.55L10.2 14.6L7.35 15.75Q5.3 16.5 1.7 16.7L1.5 16.65L0.65 15.9L0.2 15L0 14.15L0.05 13.95L0.2 13.8L0.4 13.75L0.65 13.8L0.75 14.15L0.8 14.25L1 14.45L1.1 14.5L0.8 14.5L0.85 14.75L0.95 14.9L1.25 15.45L1.45 15.65L1.8 15.95L7.15 15.05L7.1 15.1L9.8 14L10.4 12.3L10.55 12.1L10.8 12.05L11.05 12.2L11.8 13L12.45 12.6L14.15 11.45L14.05 11.15L14 11.05L13.65 10.4L13.65 10.35L13.55 10.25L13.55 10.2L13.45 10L13.05 9.25L12.95 9.15L11.95 10.2L11.85 10.35Q10.55 11.7 7.95 12.9Q5.8 13.9 2.55 14.2L1.9 14.3L1.65 14.3L1.45 14.3L1.5 14.15M3.95,5.55L3.8 5.4L3.7 5.25L5.2 4.45Q7.95 3.1 10.8 2.55L10.8 2.7L10.8 2.8L10.85 2.9Q8.05 3.45 5.4 4.8Q4.55 5.15 3.95 5.55M1.45,14.3L1.4 14.4L1.35 14.45L1.45 14.3" />
<path style="fill:#5D3F29;fill-opacity:1" d="M11.2,1.3Q10.7 0.9 9.85 0.9L7.75 1.4L5.7 2.1Q4.4 2.5 3.1 3.65L2 4.6Q3.05 3.4 4.65 2.45Q6.4 1.4 8.55 0.95L11.2 0.85L11.35 1.4L11.2 1.3M0.95,14.9L0.85 14.75L0.8 14.5L1.1 14.5L1.15 14.5L1.35 14.45L1.4 14.4L1.45 14.3L1.65 14.3L1.9 14.3L2.55 14.2Q5.8 13.9 7.95 12.9Q10.55 11.7 11.85 10.35L11.95 10.2L12.95 9.15L13.05 9.25L13.45 10Q12.9 10.1 11.6 11.15L11.3 11.4L11.15 11.5L11.05 11.5Q10.8 11.5 10.5 12L8.95 13Q7.45 13.75 2.35 14.9L1.95 14.8L1.8 14.8L1.6 14.75L1.2 14.8L0.95 14.9" />
<path style="fill:#3C2717;fill-opacity:1" d="M7.6,3.05Q7.05 3.05 4.5 4.4L2.6 5.3L2 4.6L3.1 3.65Q4.4 2.5 5.7 2.1L7.75 1.4L9.85 0.9Q10.7 0.9 11.2 1.3L11.35 1.4L11.5 2.15L7.6 3.05M11.3,11.4L11.6 11.15Q12.9 10.1 13.45 10L13.55 10.2L13.55 10.25L13.65 10.35L13.65 10.4L14 11.05L14.05 11.15L13.75 11.35Q12.85 11.9 12.2 11.9L11.7 11.7L11.25 11.5L11.15 11.5L11.3 11.4M1.2,14.8L1.6 14.75L1.8 14.8L1.95 14.8L2.35 14.9Q7.45 13.75 8.95 13L10.5 12L10.45 12.15L10.2 12.55L9.95 13L9.2 13.55L7.85 14.3Q6.5 15 4.35 15.35L1.45 15.65L1.25 15.45L0.95 14.9L1.2 14.8" />
<path style="fill:#312114;fill-opacity:1" d="M1.35,14.45L1.15 14.5L1.1 14.5L1 14.45L0.8 14.25L0.75 14.15L0.65 13.8Q0.35 12.25 1.45 10.65Q2.55 9 4.9 9.1L3.85 6.85L3.4 6.05L3.2 5.8L3.2 5.75L3.15 5.5L3.35 5.25L3.6 5.25L3.7 5.25L3.8 5.4L3.95 5.55L4.5 6.5L5.75 9.2L5.75 9.3L5.8 9.55L5.8 9.65L5.7 9.8L5.4 9.85Q3.1 9.55 2.1 11.05Q1.05 12.55 1.45 13.95L1.5 14L1.5 14.15L1.45 14.3L1.35 14.45M13.5,8.9L13.35 9.05L13.3 9.05L13 9.05L12.9 8.95L12.85 8.85L12.8 8.8L11.75 5.55L11.25 4.1L11.25 4L10.85 2.9L10.8 2.8L10.8 2.7L10.8 2.55L10.8 2.5Q10.9 2.35 11.05 2.3L11.15 2.3L11.3 2.3L11.5 2.55L11.6 2.9L11.95 3.85L12.45 5.35L13.5 8.6L13.55 8.65L13.55 8.7L13.5 8.9" />
<path style="fill:#27180C;fill-opacity:1" d="M11.5,2.15L11.5 2.2L11.15 2.3L11.05 2.3Q10.9 2.35 10.8 2.5L10.8 2.55Q7.95 3.1 5.2 4.45L3.7 5.25L3.6 5.25L3.35 5.25L2.8 5.6L2.6 5.3L4.5 4.4Q7.05 3.05 7.6 3.05L11.5 2.15M4.35,15.35Q6.5 15 7.85 14.3L9.2 13.55L9.95 13L10.2 12.55L10.45 12.15L10.5 12Q10.8 11.5 11.05 11.5L11.15 11.5L11.25 11.5L11.7 11.7L12.2 11.9Q12.85 11.9 13.75 11.35L14.05 11.15L14.15 11.45L12.45 12.6L11.8 13L11.05 12.2L10.8 12.05L10.55 12.1L10.4 12.3L9.8 14L7.1 15.1L7.15 15.05L1.8 15.95L1.45 15.65L4.35 15.35" />
<path style="fill:#AF8567;fill-opacity:1" d="M11.95,9.7L12 9.35L12.05 8.9Q12.1 7.95 11.6 6.45L10.8 4.05L11.05 4L11.25 4L11.25 4.1L11.75 5.55L12.8 8.8L11.95 9.7M2.1,11.05Q3.1 9.55 5.4 9.85L5.7 9.8L5.8 9.65L6.95 10.4L6.45 10.35L6.35 10.35Q4.25 10.35 3.1 11.45Q2.1 12.35 1.9 13.9L1.85 13.9L1.65 13.95L1.45 13.95Q1.05 12.55 2.1 11.05" />
<path style="fill:#795940;fill-opacity:1" d="M5.4,4.8Q8.05 3.45 10.85 2.9L11.25 4L11.05 4L10.8 4.05Q9.65 4.05 8.2 4.6L6.45 5.4L6.4 5.55Q6.4 6.3 7.7 8.15Q8.9 9.95 9.55 10.35L9.6 10.35L8.8 10.4L8.2 10.45L6.85 10.45L6.35 10.35L6.45 10.35L6.95 10.4L5.8 9.65L5.8 9.55L5.75 9.3L5.75 9.2L4.5 6.5L3.95 5.55Q4.55 5.15 5.4 4.8M3.1,13.6L4 12.55L4.15 12.9L4.55 12.9L6.15 12.55L7.8 11.95Q8.85 11.55 9.65 10.95L10.35 10.45L11.35 9.9L12 9.35L11.95 9.7L11.7 9.95L11.7 10L11.6 10.05Q10.35 11.4 7.8 12.55Q5.8 13.5 2.85 13.8L3.1 13.6" />
<path style="fill:#916A4D;fill-opacity:1" d="M3.1,11.45Q4.25 10.35 6.35 10.35L6.85 10.45L8.2 10.45L8.8 10.4L9.6 10.35L9.55 10.35Q8.9 9.95 7.7 8.15Q6.4 6.3 6.4 5.55L6.45 5.4L8.2 4.6Q9.65 4.05 10.8 4.05L11.6 6.45Q12.1 7.95 12.05 8.9L12 9.35L11.35 9.9L10.35 10.45L9.65 10.95Q8.85 11.55 7.8 11.95L6.15 12.55L4.55 12.9L4.15 12.9L4 12.55L3.1 13.6L2.85 13.8L2.5 13.85L1.9 13.9Q2.1 12.35 3.1 11.45" />
</g>
</svg>
