<?xml version="1.0" encoding="utf-8"?>
<svg version="1.1" id="Layer_1"
xmlns="http://www.w3.org/2000/svg"
xmlns:xlink="http://www.w3.org/1999/xlink"
xmlns:author="http://www.sothink.com"
width="750px" height="495px"
xml:space="preserve">
<g id="522" transform="matrix(1, 0, 0, 1, 22.2, 12.4)">
<path style="fill:#3674AB;fill-opacity:1" d="M696.05,111L700.1 111L706 111.75L705.35 142.25Q704.2 192.15 702.15 240.1L698.1 335.8Q696.1 383.6 695.1 422.5Q694.1 461.35 692.55 464.5Q691 467.65 687.7 468.75L685.7 468.8L696.05 111M415.35,452.7Q431.6 448.45 476.75 443.55Q521.9 438.6 556.8 442.4Q591.65 446.2 615.4 451.3Q594.6 447.95 569.25 446.5Q518.6 443.5 481.45 447.15Q444.3 450.7 427.85 453.7L408.1 457.45L389.35 460.8L415.35 452.7M346.7,465.6Q339.6 465.35 333.8 463.85Q310.25 460.55 260.1 452.05Q193.75 440.8 142.9 445.15Q92 449.45 56.5 459.65Q36.2 465.5 26.45 467.65Q55.3 455.55 64.05 453.15Q91.1 445.8 123.5 442.45Q226.65 431.75 346.7 465.6M18,468.85L17.7 468.75Q14.4 467.65 12.85 464.5Q11.3 461.35 10.3 422.5Q9.3 383.6 7.3 335.8L3.25 240.1Q1.2 192.15 0.05 142.25L-0.6 111.45Q4.15 109.25 9.55 107.35L18 468.85" />
<path style="fill:#224A6D;fill-opacity:1" d="M9.55,107.35Q4.15 109.25 -0.6 111.45L-1 76.95Q-0.9 61.5 -0.55 59.2Q-0.3 57.15 8.25 51.45L11.05 49.6Q22.35 42.3 40.5 39.1L47.55 37.45Q50.25 36.6 52.25 35.55Q58.05 33.55 65.7 32.1Q82 29.05 111.25 28.05Q127.15 27.5 171.4 27.2Q215.2 26.95 242 26Q294.6 24.15 368.25 18.55Q428 14 463 14Q510.8 14 593.2 26.25Q618 29.95 655 36.4Q658.95 38.05 664.9 39.1Q683.05 42.3 694.35 49.6L697.75 51.85Q705.7 57.25 705.95 59.2Q706.3 61.5 706.4 76.95L706 111.75L700.1 111L696.05 111L685.7 468.8Q678.8 468.1 652.15 459.65L642.5 456.9Q629.2 453.8 615.4 451.3Q591.65 446.2 556.8 442.4Q521.9 438.6 476.75 443.55Q431.6 448.45 415.35 452.7L389.35 460.8L364.6 464.6L347.55 465.65L346.7 465.6Q226.65 431.75 123.5 442.45Q91.1 445.8 64.05 453.15Q55.3 455.55 26.45 467.65Q19.7 469.1 18 468.85L9.55 107.35" />
<path style="fill:#16252A;fill-opacity:1" d="M47.55,37.45L40.5 39.1Q22.35 42.3 11.05 49.6L8.25 51.45Q-0.3 57.15 -0.55 59.2Q-0.9 61.5 -1 76.95L-0.6 111.45L0.05 142.25Q1.2 192.15 3.25 240.1L7.3 335.8Q9.3 383.6 10.3 422.5Q11.3 461.35 12.85 464.5Q14.4 467.65 17.7 468.75L18 468.85Q19.7 469.1 26.45 467.65Q36.2 465.5 56.5 459.65Q92 449.45 142.9 445.15Q193.75 440.8 260.1 452.05Q310.25 460.55 333.8 463.85Q339.6 465.35 346.7 465.6L347.55 465.65L364.6 464.6L389.35 460.8L408.1 457.45L427.85 453.7Q444.3 450.7 481.45 447.15Q518.6 443.5 569.25 446.5Q594.6 447.95 615.4 451.3Q629.2 453.8 642.5 456.9L652.15 459.65Q678.8 468.1 685.7 468.8L687.7 468.75Q691 467.65 692.55 464.5Q694.1 461.35 695.1 422.5Q696.1 383.6 698.1 335.8L702.15 240.1Q704.2 192.15 705.35 142.25L706 111.75L706.4 76.95Q706.3 61.5 705.95 59.2Q705.7 57.25 697.75 51.85L694.35 49.6Q683.05 42.3 664.9 39.1Q658.95 38.05 655 36.4Q647 33.1 647.4 27.5L669.7 32.25Q687.45 35.95 689.3 38.4Q694.2 40.85 698 43.15L700.25 44.5L703.5 46.6Q710.5 51.45 711.85 55.15Q714.3 61.65 713.15 110.85L713.1 113Q711.95 161.55 709.6 229.55L704.05 379.35L700.7 462.1L700.45 465.1Q698.15 476.5 685.5 475.5Q681.65 475.15 676.85 473.7Q656.3 467.4 646.5 465Q636.7 462.55 624.4 460Q612.1 457.4 593.55 454.5Q574.95 451.55 532.75 452Q490.55 452.45 450 458.65Q409.4 464.75 395.2 467.35Q395 466.5 373.25 470.3Q351.5 474.1 329.25 470.45L276.3 461.15Q229.1 452.45 186.65 451Q144.2 449.55 118.75 453.5Q93.3 457.4 81 460Q68.7 462.55 58.9 465Q49.1 467.4 28.55 473.7Q22.6 475.5 18.15 475.55Q13.95 475.6 11.1 474.15Q6.3 471.7 4.95 465.1L4.7 462.1L1.35 379.35L-4.2 229.55Q-6.5 162.95 -7.65 115L-7.75 110.85Q-8.9 61.65 -6.45 55.15Q-4.6 50.05 8.05 42.75L16.1 38.4Q17.95 35.95 35.7 32.25L58 27.5Q58.35 32.4 52.25 35.55Q50.25 36.6 47.55 37.45" />
<path style="fill:#253439;fill-opacity:1" d="M668.2,34.2Q668.7 33 669.5 32.25Q669.25 34.05 669.4 35.1L668.1 34.9L668.2 34.2M36,35.1Q36.15 34.05 35.9 32.25Q36.7 33 37.2 34.2L37.3 34.9L36 35.1" />
<path style="fill:#A4A5A5;fill-opacity:1" d="M6,449.2L5.25 438.9Q7.1 438.5 8.75 436.85L9.15 436.1Q10.3 431.9 8.5 429.4Q9.85 428.8 13.8 427.85L13.8 428.2Q13.85 436.05 15.35 451L15.5 452.5L6.45 455.3L6 449.2M0.5,464.8Q7.55 470.9 14.5 469.4Q24.75 467.05 36.3 465.1Q54.55 462.05 62.5 462.75Q61.85 463.35 60.15 463.75L29.75 471.05Q9.9 475.85 5.95 474Q2 472.1 1.1 470.5L0.5 464.8" />
<path style="fill:#AEAEB0;fill-opacity:1" d="M709.65,82.75Q710.15 82.4 710.6 68.75Q712.1 64.25 706.35 59.75Q696.8 52.25 670.05 51Q669.9 47.4 670.6 43.9Q703.95 49.85 710.5 56.6Q709.95 57.55 709.7 58.75L710.25 59.25L712.7 59.9L714.25 62.25Q717.4 67.35 720.4 73.2L720.4 73.35L719.75 84.5L709.65 82.75M705.15,462.7L705.05 463.5L704.3 470.5Q703.4 472.1 699.45 474Q697.65 474.85 691.15 473.95Q683.2 472.9 663.3 467.9Q645.95 463.5 644.3 460.9L663.9 464.6L696.15 470.4L697.75 470.1Q699.7 469.45 701.4 467.9Q703.6 465.9 705.15 462.7M690.15,453.1L688.75 452.85Q689.8 445.55 691.3 425.35L694.15 427.8L695.35 429.1Q694.15 433.55 697.55 435.7L697.75 437.2Q698.35 444 696.25 453.95L696.15 454.45L690.15 453.1M35.4,49L35.4 49.15Q16.15 52.5 6.45 54.75Q-1.65 56.65 -3.9 60.9Q-5.05 63 -4.55 64.75L-4.45 71.1Q-4.6 77.65 -5.55 78.75Q-7.5 82.3 -13.75 82.55L-11.2 64.45Q-8.3 65.45 -5 62.55Q-4.35 61.1 -4.25 59.55Q-4.15 57.45 -5 55.75L-5.8 55.15L-6.85 54.75Q-5.4 53.8 -3.4 52.9Q8.55 47.7 35.4 49" />
<path style="fill:#424242;fill-opacity:1" d="M670.6,43.9Q669.9 47.4 670.05 51Q670.3 56.1 672.3 61.35L673.1 61.4L673.55 61.4L674.5 61.35L675 61.3L675.3 61.3L675.6 61.75Q672.95 61.85 676.15 62.2L681.1 62.65Q685.4 62.95 675.3 62.4Q697.75 65.25 700.8 67.35Q703.9 69.4 703.6 75.2L702.5 92.2Q702.55 93.75 710.55 94.8Q718.55 95.85 719.1 91.7L719.75 84.5L720.4 73.35L720.4 73.2Q721.15 59.2 720.25 56.3Q719.4 53.35 711.95 50.1Q704.55 46.8 675.6 42.7Q672.05 40.25 677.75 39.2L681 38.35Q677.95 35.65 693.45 38.9Q709 42.1 717.8 46.35Q726.65 50.55 727.25 55.9Q727.85 61.25 727.35 65.25L726.1 85L726.05 85.65L725.55 91.05Q724.65 97.55 721 99.5Q717.4 101.45 710.8 100.7Q704.2 99.9 700.4 98.45Q696.65 96.95 697.5 87.55L698.15 80Q699 73.1 696.1 71.8Q693.25 70.45 685.1 69.5L687.75 70.8Q681.1 68.85 676.05 69.65Q670.55 70.45 673.85 66.05L673.4 66.05Q665.55 58.55 664.8 50.85Q664.4 47 665.8 43.1Q667.05 39.55 669.7 35.95Q670.4 37.05 672.3 36.3L673.4 35.85Q671.4 39.8 670.6 43.9M697.95,415.3L700.95 416.15Q712.5 419.45 713.45 423.1Q715.85 430.6 713.45 454.9L712.9 460.05L712.15 465.9Q710.2 479.25 707.75 479.3Q706.5 481.65 700.95 481.9L690.4 481.1L687.8 480.65L644.5 470.1Q637.8 468.4 636.95 465.2Q636.15 462.15 637.6 445.1Q639.15 428 644.75 441.6L645.25 441.7L645.05 442.2Q649.8 439.5 657.8 442.6Q665.7 444.35 673.95 446.75Q676.35 447.4 678.25 448.5Q672.5 431.8 676.8 416.05Q670.85 414.6 664.75 414.1L665.05 413.4Q667.45 409.5 672 409.45Q677.85 410.9 670 408.1Q663.75 405.85 678.8 410.25L679.9 407.6L679.9 407.85L680.05 410.6L692.1 413.8L697.95 415.3M689.6,420.6L680.45 417.5L681.9 444.6Q679.65 447.75 677.85 451.15L675.85 455.2L675.5 455.05Q668.8 452.05 662.2 450.05Q653.05 447.3 644.05 446.35Q642.7 452.45 644.15 460.15Q644.05 460.5 644.3 460.9Q645.95 463.5 663.3 467.9Q683.2 472.9 691.15 473.95Q697.65 474.85 699.45 474Q703.4 472.1 704.3 470.5L705.05 463.5L705.15 462.7L705.7 457.2Q707.75 433.9 705.95 426.2Q704.9 425.7 700.95 424.35L691.6 421.25L689.6 420.6M27.65,39.2Q33.35 40.25 29.8 42.7Q0.85 46.8 -6.55 50.1Q-14 53.35 -14.85 56.3Q-15.75 59.2 -15 73.35L-14.45 82.55L-14.2 85.9L-13.7 91.7Q-13.15 95.85 -5.15 94.8Q2.85 93.75 2.9 92.2L1.8 75.2Q1.5 69.4 4.6 67.35Q7.65 65.25 30.1 62.4Q20 62.95 24.3 62.65L29.25 62.2Q32.45 61.85 29.8 61.75L30.1 61.3L30.9 61.35L32.1 61.4L32.3 61.4L33.1 61.35Q35.45 55.1 35.4 49.15L35.4 49Q35.25 42.25 32 35.85L33.1 36.3Q35 37.05 35.7 35.95Q40.3 42.15 40.65 48.25L40.7 49.3Q40.6 57.8 32 66.05L31.55 66.05Q34.85 70.45 29.35 69.65Q24.3 68.85 17.65 70.8L20.3 69.5Q12.15 70.45 9.3 71.8Q6.4 73.1 7.25 80L7.9 87.55Q8.75 96.95 5 98.45Q1.2 99.9 -5.4 100.7Q-12 101.45 -15.6 99.5L-16.1 99.25Q-19.3 97.1 -20.15 91.05L-20.9 81.9Q-21.8 71.1 -21.95 65.25Q-22.45 61.25 -21.85 55.9Q-21.25 50.55 -12.4 46.35Q-3.6 42.1 11.95 38.9Q27.45 35.65 24.4 38.35L27.65 39.2M60.35,442.2L60.15 441.7L60.65 441.6Q66.25 428 67.8 445.1Q69.25 462.15 68.45 465.2Q67.6 468.4 60.9 470.1L17.6 480.65Q9.35 482.1 4.45 481.9Q-1.1 481.65 -2.35 479.3Q-5.25 479.2 -7.45 460.25L-8.05 454.9L-8.05 454.55Q-10.45 430.55 -8.05 423.1Q-7.1 419.45 4.45 416.15L7.45 415.3L14.7 413.45L25.35 410.6L25.5 407.85L25.5 407.6L26.6 410.25Q41.65 405.85 35.4 408.1Q27.55 410.9 33.4 409.45Q37.95 409.5 40.35 413.4L40.65 414.1Q34.55 414.6 28.6 416.05Q29.7 420.1 30.15 424.2Q31.45 436.1 27.15 448.5Q29.05 447.4 31.45 446.75Q39.7 444.35 47.6 442.6Q55.6 439.5 60.35 442.2M1.1,470.5Q2 472.1 5.95 474Q9.9 475.85 29.75 471.05L60.15 463.75Q61.85 463.35 62.5 462.75Q63 462.25 62.8 461.55Q63.05 453.9 61.35 446.35Q45.75 447.95 29.9 455.05L29.55 455.2Q28.25 452.25 26.6 449.45L23.5 444.6L24.55 425.4L24.95 417.5L15.8 420.6L13.95 421.2L4.45 424.35Q0.5 425.7 -0.55 426.2Q-2.4 433.95 -0.25 457.55L0.15 461.4L0.5 464.8L1.1 470.5" />
<path style="fill:#8B8B8C;fill-opacity:1" d="M719.75,84.5L719.1 91.7Q718.55 95.85 710.55 94.8Q702.55 93.75 702.5 92.2L703.6 75.2Q703.9 69.4 700.8 67.35Q697.75 65.25 675.3 62.4Q685.4 62.95 681.1 62.65L676.15 62.2Q672.95 61.85 675.6 61.75L675.3 61.3L675 61.3L674 61.35L673.55 61.4L673.1 61.4L672.3 61.35Q670.3 56.1 670.05 51Q696.8 52.25 706.35 59.75Q712.1 64.25 710.6 68.75Q710.15 82.4 709.65 82.75L719.75 84.5M696.15,454.45Q701.2 455.65 705.7 457.2L705.15 462.7Q703.6 465.9 701.4 467.9Q699.7 469.45 697.75 470.1L696.15 470.4L663.9 464.6L644.3 460.9Q644.05 460.5 644.15 460.15Q642.7 452.45 644.05 446.35Q653.05 447.3 662.2 450.05Q668.8 452.05 675.5 455.05L675.85 455.2L677.85 451.15Q679.65 447.75 681.9 444.6L680.45 417.5L689.6 420.6L691.6 421.25L691.45 423.3L691.3 425.35Q689.8 445.55 688.75 452.85L690.15 453.1L696.15 454.45M-13.75,82.55Q-7.5 82.3 -5.55 78.75Q-4.6 77.65 -4.45 71.1L-4.55 64.75Q-5.05 63 -3.9 60.9Q-1.65 56.65 6.45 54.75Q16.15 52.5 35.4 49.15Q35.45 55.1 33.1 61.35L32.3 61.4L32.1 61.4L31.4 61.35L30.1 61.3L29.8 61.75Q32.45 61.85 29.25 62.2L24.3 62.65Q20 62.95 30.1 62.4Q7.65 65.25 4.6 67.35Q1.5 69.4 1.8 75.2L2.9 92.2Q2.85 93.75 -5.15 94.8Q-13.15 95.85 -13.7 91.7L-14.2 85.9L-14.45 82.55L-13.75 82.55M13.95,421.2L15.8 420.6L24.95 417.5L24.55 425.4L23.5 444.6L26.6 449.45Q28.25 452.25 29.55 455.2L29.9 455.05Q45.75 447.95 61.35 446.35Q63.05 453.9 62.8 461.55Q63 462.25 62.5 462.75Q54.55 462.05 36.3 465.1Q24.75 467.05 14.5 469.4Q7.55 470.9 0.5 464.8L0.15 461.4L-0.25 457.55L6.45 455.3L15.5 452.5L15.35 451Q13.85 436.05 13.8 428.2L13.8 427.85Q13.75 424.35 13.95 421.2" />
<path style="fill:#E9E9E9;fill-opacity:1" d="M714.25,62.25L712.7 59.9Q723.05 62.25 716.2 53.5Q712.1 53.85 710.5 56.6Q703.95 49.85 670.6 43.9Q671.4 39.8 673.4 35.85Q677.8 39.45 680.65 38.45L681 38.35L677.75 39.2Q672.05 40.25 675.6 42.7Q704.55 46.8 711.95 50.1Q719.4 53.35 720.25 56.3Q721.15 59.2 720.4 73.2Q717.4 67.35 714.25 62.25M696.15,454.45L696.25 453.95Q698.35 444 697.75 437.2L697.55 435.7Q700.35 437.4 706.2 437.6L706.35 436.85Q707 426.65 696.2 426.6L696.15 426.85Q695.6 428.05 695.35 429.1L694.15 427.8L691.3 425.35L691.45 423.3L691.6 421.25L700.95 424.35Q704.9 425.7 705.95 426.2Q707.75 433.9 705.7 457.2Q701.2 455.65 696.15 454.45M-3.4,52.9Q-5.4 53.8 -6.85 54.75L-10 54.5L-11.35 55.2Q-14.75 57.65 -14.5 61.8Q-12.9 63.8 -11.2 64.45L-13.75 82.55L-14.45 82.55L-15 73.35Q-15.75 59.2 -14.85 56.3Q-14 53.35 -6.55 50.1Q0.85 46.8 29.8 42.7Q33.35 40.25 27.65 39.2L24.4 38.35L24.75 38.45Q27.6 39.45 32 35.85Q35.25 42.25 35.4 49Q8.55 47.7 -3.4 52.9M-0.55,426.2Q0.5 425.7 4.45 424.35L13.95 421.2Q13.75 424.35 13.8 427.85Q9.85 428.8 8.5 429.4Q7.1 427.5 4 426.6L2.8 427.45Q-1.8 431.25 -0.25 437.35Q2.65 439.4 5.25 438.9L6 449.2L6.45 455.3L-0.25 457.55Q-2.4 433.95 -0.55 426.2" />
<path style="fill:#FFFFFF;fill-opacity:1" d="M716.2,53.5Q723.05 62.25 712.7 59.9L710.25 59.25L709.7 58.75Q709.95 57.55 710.5 56.6Q712.1 53.85 716.2 53.5M695.35,429.1Q695.6 428.05 696.15 426.85L696.2 426.6Q707 426.65 706.35 436.85L706.2 437.6Q700.35 437.4 697.55 435.7Q694.15 433.55 695.35 429.1M8.5,429.4Q10.3 431.9 9.15 436.1L8.75 436.85Q7.1 438.5 5.25 438.9Q2.65 439.4 -0.25 437.35Q-1.8 431.25 2.8 427.45L4 426.6Q7.1 427.5 8.5 429.4M-14.5,61.8Q-14.75 57.65 -11.35 55.2L-10 54.5L-6.85 54.75L-5.8 55.15L-5 55.75Q-4.15 57.45 -4.25 59.55Q-4.35 61.1 -5 62.55Q-8.3 65.45 -11.2 64.45Q-12.9 63.8 -14.5 61.8" />
<path style="fill:#EFD684;fill-opacity:1" d="M29.6,308.5L29.3 309.15L29.25 308.2L29.6 308.5M675.25,308.05L675.2 308.95L674.9 308.3L675.25 308.05" />
<path style="fill:#ECC576;fill-opacity:1" d="M419.4,174L419.65 173.85Q419.7 174.75 419.4 174M624.4,386.05L624.4 386.35Q622.45 395.5 624.4 386.05M284.95,174L285.2 174.2Q284.85 174.95 284.95 174M80.1,386.25Q82.05 395.7 80.1 386.55L80.1 386.25M32.6,454.95L32.35 448.5L32.35 448.3L33.8 447.7L32.85 448.1L32.9 448.6L33.1 454.65L32.6 454.95M109.1,436.1L109.05 436.05L94 438.1Q76.5 440.6 55.05 447.15L55.5 447Q76.95 440.4 94.45 437.95L109.8 435.85L109.9 435.95L109.45 436L109.5 436.05L109.1 436.1" />
<path style="fill:#DBB36A;fill-opacity:1" d="M332,22.85L331.7 21.9L332.2 22L332.4 24.5L332 22.85M372.55,22.7L372.1 24.4L372.35 21.8L372.8 21.7L372.55 22.7M302.25,428.25L305.9 427.6L306.7 427.4L305.55 427.75L302.55 428.4L302.25 428.25" />
<path style="fill:#FAE49E;fill-opacity:1" d="M640.7,410.6L640.75 410.65L640.55 410.6L640.7 410.6" />
<path style="fill:#FCF3D6;fill-opacity:1" d="M200.25,417.1L198.4 417L199.75 417.1L200.25 417.1L201.45 417.2L203.6 417.35L199.9 418.45L191.2 420.95L166.8 420.2L166 420.15L165.5 420.15L165 420.15L164.85 420.15L162.75 420.15L161.9 420.15L159.35 420.35Q136.35 417.55 129.25 417.55L118.95 417.8Q114.25 416.9 111.15 415.75Q107.6 414.45 104.7 412.2L99.7 412.75L99.45 411.1L100.8 409.6L100.85 408.6L100 407.55L96.95 407.35L96.95 407.2L96.15 407.2L83.05 407.4Q46.25 415 45.55 408.85Q44.85 405.2 49.9 401.5Q54.85 397.85 52.6 397.3Q50.3 396.65 50.35 396.35Q50.45 395.9 50.75 395.9L45.85 395.2L44.85 395.05L45.05 394.75L45.1 393.4Q45.05 392.55 45.85 391.6L45.85 391.35Q45.55 388.35 44.05 388.3L40.4 389.6L40.35 389.4Q35.75 381.1 38 374.95Q40.35 368.75 39.9 365.7Q39.4 362.55 37.35 360.85Q35.4 359.05 36.15 352.4Q36.85 345.6 43.65 338.7Q50.45 331.65 47 329.8Q39.8 326.65 38.3 323.7Q36.35 319.45 41.2 314.3Q46.05 309.15 45.5 306.7Q44.95 304.05 40.95 297.55Q36.95 291 37.65 284.6Q38.35 278.25 39.6 277.05Q40.75 275.75 42.6 271.75Q44.45 267.75 39.3 266.05Q34.05 264.25 34.65 259.4Q35.25 254.35 45.8 246.9L46.3 245.95Q49.85 240.45 40.4 238.9Q30.85 237.25 30.85 233.9Q30.85 231.95 33.1 227.7Q34.55 224.65 38.85 217.25Q37.85 214.45 35.4 212.55Q33.4 211.05 33.4 208.95Q33.4 208.1 34.6 204.4Q35.85 200.65 35.85 198.3L35.35 194.55Q34.85 192.1 34.85 190.85Q34.85 188.55 36.35 184.85Q37.8 181.15 37.8 179.3L37.3 174.2L36.85 169.15Q36.85 162.55 37.55 153.75Q38.3 144.9 38.3 139.55Q38.3 138.1 38.85 135.55Q43.05 131.95 47.6 130.9L47.55 130.6Q46.75 128.4 45.05 129.6L42.8 130.35Q41.05 130.8 39.65 131.75L39.85 130.8Q41.3 124.4 44.25 116.9Q47.1 109.35 43.05 109.85Q39 110.35 38.65 106.35Q38.25 102.5 39.35 100.7Q40.35 98.9 41.8 94.55Q43.25 90.05 40.4 86.75L38.95 84.8Q37.25 82.15 36.9 79.2Q36.35 75 40.1 72.35Q43.75 69.7 44.3 65.3Q44.75 60.75 41.55 60.45Q38.35 60.1 38.35 55.2Q38.3 50.3 42.65 49.55Q47 48.75 48.8 41.95Q50.6 35.1 52.35 32.2Q53.8 29.7 54.35 29.35L54.5 29.35L66.2 24.85L69.75 24L69.6 22.7Q69.55 21.7 70.2 21.5L73.8 22.2L74.15 22.7L74.25 22.85Q99.15 16.75 119.6 14.95L136 13.55Q136.05 21.9 142 15.45L141.9 14.95L141.1 13.15L177.75 10.75Q177.65 14.95 182.75 12.05L182.75 11.35L182.7 10.5L207.15 9.25Q231.1 8.1 256.8 10.25L287.5 13.3L294.5 14.5L294.8 14.55L293.3 14.55Q282.8 16.95 278.4 24.75Q277.1 31.4 287.05 36.1Q292.8 38.85 294.5 41.25Q295.75 43 294.85 44.55L294.5 45.1Q291.85 48.65 280.65 53.7Q268.6 59.05 275.8 63.05Q283 67.05 287.3 68.15Q291.6 69.25 290.95 70.45L288.75 73.5Q287.2 75.3 287.35 78.15Q287.45 81 289.35 81.2Q291.35 81.3 291.85 82.75Q292.15 83.8 292.05 84.8L291.85 85.65Q291.35 87 291.35 88.15Q291.35 89.3 291.85 90.45L292.3 92.75L291.85 96.15L290.85 100.65L288.65 103.5Q286.6 106.05 286.35 109.85Q286.45 111.35 287.25 112.85Q288.05 114.25 288.65 116.65Q289.2 119.05 288.2 120.05Q287.15 121.1 278.75 127Q270.4 132.9 274.65 136.6Q284.55 138.7 288.4 140.4Q292.15 142.2 291.1 145.55Q289.95 148.75 284.8 153Q279.55 157.15 283.6 159.85Q284.9 160.8 284.35 160.8Q289.6 161.35 290.35 167.05Q290.8 170.95 288.85 172.65Q288.65 181.25 289.8 185.8Q288.85 189.2 285.2 191.5Q281.4 193.75 280.9 197.25Q280.4 200.75 285.1 201.6L289.8 202.45Q286.5 214.65 281.95 215.6Q277.3 216.55 270.5 220.65Q263.75 224.85 268.15 228.9Q272.5 233 281.5 232.15Q290.45 231.3 288.35 235.3L281.3 238.55Q277.75 240.05 279.4 245Q287.85 249.95 286.35 251.4Q284.9 252.8 282.4 256.25Q279.95 259.55 286.1 264.9Q260.25 269.35 275.7 275.1Q291.2 280.7 288.8 294.5Q289.1 299.45 279.3 302.2Q269.45 305 269.7 309.45Q269.95 313.8 281.65 317.25Q293.3 320.75 293.3 325.55Q293.3 328.8 291.2 330.3Q287.15 332.95 286.35 333.9Q284.1 335.35 286.1 337.05Q288.1 338.7 288.6 340.55Q289 342.3 288.45 344.5Q287.85 346.65 287.85 347.75L288.25 350.35L289.3 354.25L289.3 356.55L282.85 357.9Q280.45 360.45 285.4 363.5L285.4 365.35Q284.25 365.35 275.4 367.9Q266.5 370.55 265.45 375.5Q262 378.95 269.5 386.8Q276.9 394.65 278.85 394.95L278.85 396.8L267.85 398.75Q253.8 400.9 236.15 406.05L201.95 417.2L200.25 417.1M377.35,112.9Q376.85 112.5 376.8 110.35Q377.4 109.15 377.7 108.9Q379.6 107.5 381.8 106.55Q382.75 106.65 382.6 108.25Q381.95 117.2 377.35 112.9M652.15,32.05Q653.9 34.95 655.7 41.8Q657.55 48.55 661.85 49.35Q666.2 50.1 666.15 55Q666.15 59.9 662.95 60.25Q659.8 60.55 660.25 65.1Q660.75 69.5 664.45 72.15Q668.15 74.8 667.65 79Q667.1 83.1 664.15 86.55Q661.3 89.9 662.7 94.35Q664.2 98.7 665.15 100.55Q666.25 102.3 665.9 106.15Q665.55 110.15 661.45 109.7Q657.4 109.15 660.3 116.7Q663.2 124.25 664.65 130.6L664.85 131.55Q663.45 130.6 661.7 130.15L659.45 129.45Q657.8 128.2 656.95 130.45L656.9 130.7Q661.45 131.75 665.7 135.35L666.2 139.35Q666.2 144.7 666.95 153.55Q667.7 162.4 667.7 168.95L667.2 174Q666.7 178 666.7 179.15Q666.7 180.95 668.15 184.65Q669.65 188.4 669.65 190.7L669.15 194.4Q668.65 196.95 668.65 198.1Q668.65 200.5 669.9 204.2Q671.2 207.9 671.2 208.75Q671.2 210.85 669.1 212.35Q666.65 214.3 665.7 217.05L671.45 227.5Q673.65 231.8 673.65 233.7Q673.65 237.05 664.15 238.75Q654.7 240.3 658.2 245.75L658.7 246.7Q669.25 254.15 669.85 259.2Q670.45 264.05 665.2 265.85Q660.1 267.6 661.9 271.6Q663.75 275.55 664.9 276.9Q666.15 278.05 666.85 284.45Q667.6 290.8 663.55 297.4Q659.55 303.9 659 306.5Q658.45 308.95 663.3 314.15Q668.15 319.25 666.2 323.5Q664.7 326.5 657.55 329.6Q654.05 331.45 660.9 338.5Q667.7 345.45 668.35 352.2Q669.1 358.85 667.15 360.65Q665.1 362.4 664.65 365.5Q664.2 368.55 666.5 374.75Q668.75 380.9 664.2 389.2L664.15 389.4Q662.25 388.85 660.5 388.1Q658.95 388.2 658.65 391.2L658.65 391.4Q659.45 392.35 659.4 393.2L659.45 394.6L659.65 394.85L658.65 395.05L653.75 395.7Q654.05 395.7 654.25 396.15Q654.3 396.45 651.9 397.1Q649.65 397.65 654.65 401.35Q659.65 405.05 658.95 408.65Q658.6 411.8 648.9 411.4L648.85 412.1Q648.6 414.4 645.65 414Q643.7 413.7 642.45 412.85L633.85 410.8L631.9 410.3Q631.7 411.2 630.7 412.15Q630.35 412.45 629.6 412.15Q628.2 411.65 627.4 411Q621.45 410.6 615.95 412.7Q616.85 419.45 609.75 414.6L608.85 413.95L606.85 414Q605.35 414 604.65 412.95Q595.3 412.95 586.05 413.35L584.85 414.4Q583.65 415.35 582.65 413.9L582.4 413.5L570.1 414.3L552.1 415.85L548.75 416.3L517.1 420.5L516.35 420.55L513.9 420.6L513.2 420.95L512.7 420.95L511.5 421L510.45 420.6L502.15 417.05L502.55 417L501.55 416.7L501.1 416.55L468.35 405.85Q450.7 400.7 436.65 398.55L425.65 396.65L425.65 394.75Q427.6 394.5 435 386.65Q442.5 378.75 439.05 375.35Q438 370.35 429.1 367.75Q420.25 365.15 419.2 365.15L419.2 363.3Q424.05 360.25 421.65 357.75L415.2 356.35L415.2 354.05L416.3 350.2L416.65 347.6Q416.65 346.45 416.1 344.3Q415.5 342.1 415.95 340.35Q416.4 338.5 418.4 336.85Q420.4 335.15 418.15 333.7Q417.35 332.75 413.3 330.1Q411.2 328.6 411.2 325.35Q411.2 320.55 422.9 317.05Q434.55 313.6 434.8 309.25Q435.05 304.8 425.25 302.05Q415.4 299.25 415.7 294.35Q413.3 280.55 428.8 274.9Q444.25 269.2 418.4 264.7Q424.55 259.4 422.1 256.05Q419.65 252.6 418.15 251.2Q416.65 249.75 425.15 244.85Q426.75 239.85 423.2 238.35L416.2 235.1Q414.1 231.15 423 231.95Q432 232.8 436.45 228.75Q440.75 224.65 434 220.45Q427.2 216.35 422.6 215.4Q418 214.45 414.7 202.25L419.5 201.4Q424.1 200.6 423.6 197.05Q423.1 193.55 419.4 191.35Q415.65 189.05 414.7 185.6Q415.9 181.05 415.65 172.45Q413.75 170.8 414.2 166.9Q414.9 161.15 420.15 160.6Q419.65 160.6 420.9 159.7Q425 157 419.75 152.85Q414.55 148.6 413.45 145.35Q412.35 142 416.15 140.25Q419.95 138.5 429.85 136.45Q434.1 132.75 425.75 126.8Q417.35 120.9 416.3 119.85Q415.3 118.9 415.9 116.45Q416.45 114.05 417.25 112.7Q418.05 111.2 418.15 109.7Q417.9 105.85 415.9 103.3L413.7 100.45Q413.15 98.7 412.7 96Q412.2 93.4 412.2 92.6Q412.2 91.5 412.7 90.25Q413.15 89.2 413.15 87.95L412.7 85.45Q412.2 84.05 412.7 82.55Q413.15 81.1 415.15 81Q417.05 80.85 417.15 77.95Q417.3 75.1 415.8 73.3L413.6 70.25Q412.95 69.1 417.2 67.95Q421.5 66.85 428.7 62.85Q436 58.9 423.85 53.5Q411.8 48.05 409.65 44.35Q407.5 40.65 417.45 35.9Q427.4 31.25 426.15 24.55Q421.7 16.75 411.2 14.4L409.7 14.4L422.6 12.4Q433.3 10.75 458.75 9.05Q484.15 7.35 502.75 8.8L521.8 10.3L521.75 11.15L521.75 11.9Q526.9 14.75 526.8 10.6L563.45 12.95Q562.95 13.7 562.6 14.75L562.5 15.3Q568.45 21.7 568.5 13.35L584.9 14.75Q605.35 16.6 630.25 22.7L630.35 22.5L630.75 22.1L634.35 21.35Q634.95 21.5 634.9 22.5L634.75 23.8L638.3 24.65L650 29.15L650.15 29.15Q650.75 29.55 652.15 32.05M598.95,54Q602.75 57.05 601.4 49.8L601.05 49.05Q599 49.9 598.9 53.25L598.95 54M518.3,57.2Q571.75 61.2 626.05 71.1Q638.9 73.4 650.05 75.9Q632.55 61.4 611.3 59.5L534.95 54.65L518.95 55.8Q518.25 55.9 518.3 57.2M493.2,94.45Q459.5 92.4 426.6 102.75Q426.45 102.75 426.35 103.5L505.4 98.4L505.3 98.05Q499.7 94.05 493.2 94.6L493.2 94.45M505,138.2Q514.7 147.1 517.55 134.4Q517.8 133.45 517.05 133.4Q509.15 128.7 505 137.75L505 138.2M605.7,104.05Q604.9 101.2 603.05 100.9Q598 96.9 595.45 102.95L595.35 103.5L595.5 103.85Q599.25 104.45 599.5 109.5L599.6 110.15Q600 111.1 600.6 111Q604.45 110.9 605.8 104.6L605.7 104.05M577,106.15L576.75 105.55Q574.05 105.55 573.05 109.15L573 109.7Q577.65 115.25 577 106.15M630.4,168.6Q625.2 166 622.8 172.85L622.7 173.35Q627.2 178.3 630.65 176.7L632.15 175.5L632.4 174.7Q633.05 170.85 630.9 168.85Q630.65 168.65 630.4 168.6M643.85,179.3Q646.8 180.8 647.9 175.9L647.65 175.15L646.55 174.3Q643.6 174.1 643.8 178.95L643.85 179.3M478.75,47.25Q475.4 46.85 473.15 51.1L473.05 51.7Q477.6 57.4 479.3 48.45Q479.5 47.3 478.75 47.25M444.7,62.5Q447.65 68.35 448.15 60.75Q448.2 59.35 447.45 59.25Q445.2 58.35 444.75 61.85L444.7 62.5M321.95,108.4Q321.8 106.8 322.7 106.75Q324.9 107.65 326.8 109.1L327.7 110.55Q327.65 112.7 327.15 113.1Q322.55 117.4 321.95 108.4M389.25,56.45Q390.25 56.65 389.9 58.15Q388.6 64.35 386.05 59.05L386.1 58.45Q387.1 55.3 389.25 56.45M404.45,97.75L404.35 98.15Q397.3 104.15 399.25 93.6Q403.65 91.85 404.45 97.75M390.55,171.55Q393.95 166.8 398.75 168.6Q399.95 169.05 399.5 170.1Q395.8 179.15 390.45 172L390.55 171.55M419.65,173.85L419.4 174Q419.7 174.75 419.65 173.85M432.4,176Q432.2 178.4 432.45 180.8L432.55 181.55Q435.6 184.95 438.65 181.25L438.85 179.25Q439 175.05 437 174.1L432.95 174.85L432.55 175.25L432.4 176M451.65,209.05Q498.25 207.05 558.05 209.5Q556.7 206.15 550.2 203.9Q543.7 201.6 539.15 201.6L530.45 200.95Q476.95 199.5 464.4 203.9Q451.8 208.35 451.65 209.05M446.75,271.85L446.65 272.4Q451.75 279.25 453.2 268.55Q453.45 266.8 452.4 266.7Q448.7 266.6 446.75 271.85M390.05,311.85Q390.95 307.95 393.75 309.25L395.4 310.8Q396.15 311.65 396 313.25Q392.45 320.4 389.95 312.5L390.05 311.85M453.8,318.05Q457.2 322.95 460.1 317.55Q460 314.3 458.75 312.3Q458 311.25 457.35 311.1Q453.7 311.2 453.7 317.35L453.8 318.05M430.8,349.5Q435 357.1 437.15 348.1Q437.55 346.45 436.5 346.3Q432.75 343.8 430.95 348.85L430.8 349.5M407.05,393.1Q405.7 402.55 400.45 396.05L400.45 395.3Q401.25 387.85 406.2 390.7Q407.35 391 407.05 393.1M451.65,391.6Q455.6 395.9 460.15 389.4Q461.25 387.75 459.4 387Q454 383.5 451.75 391.1L451.65 391.6M645.55,284.45Q647.8 291.85 652.9 285.55Q655.25 282.6 652.75 280.55Q647.8 277.5 645.65 283.9L645.55 284.45M515.85,293.25Q541.6 294.15 569.1 297.65Q590.15 300.4 609.25 303.7Q608.3 299.65 605.3 299.25L603.2 298.8Q582.25 292.95 561.3 290.7Q538.85 290.9 516.45 291.95Q515.8 291.95 515.85 293.25M509.9,354.4Q514.25 363.6 518.4 353.6Q519.2 351.65 517.55 350.95Q512.9 348.5 509.95 353.9L509.9 354.4M536.75,378.45L563.4 384.05Q568.25 384.95 570.55 379.9L570.5 379.5Q564.65 376.35 558.15 376.45L557.1 376.35L554.85 375.9L537.35 377.1Q536.7 377.2 536.75 378.45M642.75,314.25Q647.95 314.8 652.4 314.5Q645 309.65 636.1 309.35Q636.85 313.6 642.75 314.25M578.55,354.85Q584.35 361.25 584.95 351.7Q585.05 350.1 584.15 350Q580.25 348.6 578.55 354.25L578.55 354.85M624.4,386.35L624.4 386.05Q622.45 395.5 624.4 386.35M626.6,395.05Q627.85 401.6 632.05 396.9Q631.45 395.3 630.3 394.5L629.15 393.7Q627.75 393.4 626.75 394.75L626.6 395.05M610.05,374.35Q631.2 376.35 654.55 381.45Q630.25 368.4 602.55 369.4Q588.85 372.2 610.05 374.35M259.75,62.05Q259.3 58.55 257.1 59.45Q256.3 59.5 256.35 60.95Q256.9 68.55 259.8 62.65L259.75 62.05M225.2,48.65Q226.9 57.6 231.5 51.85L231.4 51.3Q229.15 47.05 225.75 47.4Q225 47.5 225.2 48.65M185.55,56L169.55 54.85L93.2 59.7Q71.95 61.6 54.45 76.1Q65.6 73.6 78.45 71.3Q132.75 61.4 186.2 57.4Q186.25 56.1 185.55 56M199.1,98.6L278.2 103.7Q278.05 102.95 277.9 102.95Q245.05 92.6 211.35 94.6L211.35 94.8Q204.85 94.25 199.2 98.25Q199.1 98.25 199.1 98.6M187.45,133.55Q186.7 133.65 186.95 134.6Q189.85 147.25 199.5 138.4L199.5 137.95Q195.4 128.9 187.45 133.55M271.95,175.45L271.6 175.05L267.5 174.3Q265.5 175.25 265.65 179.4L265.85 181.45Q268.9 185.15 271.95 181.7L272.05 180.95L272.1 176.2L271.95 175.45M314.05,172.2Q308.75 179.3 305.05 170.3Q304.55 169.25 305.75 168.75Q310.55 167 313.95 171.7L314.05 172.2M285.2,174.2L284.95 174Q284.85 174.95 285.2 174.2M105.55,54.15L105.65 53.4Q105.5 50.1 103.45 49.25Q103.2 49.55 103.1 50Q101.75 57.2 105.55 54.15M49.45,55.2Q51.3 63.6 53.95 56.2L53.8 55.6Q52.75 51.85 50.3 52.95Q49 53.25 49.45 55.2M45.85,73.8Q45.75 75.4 46.15 76.55L46.5 76.65Q51.4 75.3 46.8 71.75Q45.95 72.05 45.85 73.8M73.65,169.05Q71.45 171.05 72.15 174.85Q72.2 175.35 72.4 175.7L73.9 176.9Q77.3 178.5 81.8 173.55L81.7 173.05Q79.3 166.2 74.1 168.75L73.65 169.05M56.6,176.1Q57.7 180.95 60.65 179.5L60.7 179.15Q60.95 174.3 57.95 174.5L56.9 175.35Q56.6 175.5 56.6 176.1M127.75,105.75L127.55 106.35Q126.85 115.45 131.5 109.85L131.45 109.35Q130.5 105.75 127.75 105.75M105,109.7Q105.25 104.6 109 104.05L109.15 103.7L109.05 103.1Q106.5 97.1 101.45 101.1Q99.6 101.4 98.8 104.25L98.7 104.8Q100.1 111.1 103.95 111.2Q104.5 111.3 104.9 110.35L105 109.7M146.45,209.7Q206.25 207.25 252.85 209.2Q252.7 208.55 240.15 204.1Q227.55 199.7 174.05 201.15L165.35 201.8Q160.85 201.8 154.35 204.1Q147.8 206.35 146.45 209.7M41.55,227.7Q41.05 227.8 40.7 228.25Q40.2 229 39.95 230.3Q42.1 236.35 43.85 230.3L43.8 229.95Q43 227.8 41.55 227.7M43.55,282.8Q42.25 287.65 46.3 287.3L46.35 286.95Q46.65 281.95 43.55 282.7L43.55 282.8M58.85,284.05Q56.75 277.7 51.75 280.7Q49.25 282.8 51.6 285.75Q56.75 292.05 58.95 284.6L58.85 284.05M68.4,309.55Q59.5 309.8 52.1 314.7L61.75 314.4Q67.65 313.8 68.4 309.55M46.05,351.45L46.75 355.35Q48.2 357.2 49.45 355.05L49.5 354.75Q49.45 350.1 46.55 349.9Q45.85 350.1 46.05 351.45M80.1,386.55Q82.05 395.7 80.1 386.25L80.1 386.55M77.8,394.95Q76.75 393.6 75.35 393.85L74.2 394.65Q73.05 395.5 72.5 397.1Q76.65 401.8 77.95 395.2L77.8 394.95M95.25,303.9Q114.35 300.6 135.4 297.85Q162.9 294.35 188.65 293.45Q188.7 292.15 188.05 292.15Q165.65 291.1 143.2 290.9Q122.25 293.15 101.3 299L99.2 299.45Q96.2 299.85 95.25 303.9M119.55,351.9Q120.15 361.45 125.95 355.05L125.95 354.4Q124.3 348.75 120.35 350.2Q119.45 350.25 119.55 351.9M101.95,369.6Q74.25 368.55 50.05 381.6Q73.3 376.55 94.5 374.55Q115.65 372.35 101.95 369.6M134.05,380.05Q136.25 385.15 141.1 384.25L167.85 378.65Q167.9 377.4 167.2 377.3L149.65 376.1L147.45 376.55L146.35 376.65Q139.9 376.55 134.1 379.7L134.05 380.05M305.75,243.7Q309.75 241.6 311.85 247.05L312.05 247.6Q307.15 255.3 305.05 245.6Q304.75 244.15 305.75 243.7M251.35,268.7Q252.75 279.45 257.85 272.6L257.75 272.05Q255.8 266.8 252.1 266.9Q251.05 267 251.35 268.7M194.6,354.05Q191.6 348.65 186.95 351.05Q185.45 351.75 186 353.45L186.1 353.8Q188.1 358.6 190.2 359Q192.4 359.4 194.65 354.6L194.6 354.05M245.8,312.5Q244.5 314.5 244.4 317.75Q247.3 323.15 250.7 318.2L250.8 317.45Q250.8 311.35 247.15 311.25Q246.5 311.45 245.8 312.5M273.75,349.7L273.6 349.05Q271.8 344 268.05 346.45Q266.95 346.65 267.35 348.3Q269.5 357.3 273.75 349.7M252.85,391.8L252.75 391.3Q250.5 383.7 245.1 387.2Q243.25 387.95 244.35 389.6Q248.9 396.05 252.85 391.8M298.35,390.9Q303.25 388 304.05 395.5L304.05 396.25Q298.8 402.75 297.45 393.3Q297.15 391.2 298.35 390.9M322.25,413.1Q324.65 413.4 325.4 416.6L325.5 417.3Q321.6 422.65 321.75 414.05Q321.75 413.2 322.25 413.1M636.85,417.3Q636.9 416.05 638.15 415.85Q641.45 419.7 637.25 418.3Q636.85 418.2 636.85 417.3M640.55,410.6L640.75 410.65L640.7 410.6L640.55 410.6M650.55,56Q653.2 63.4 655.05 55Q655.5 53.05 654.3 52.75Q651.75 51.7 650.7 55.4L650.55 56M657.75,71.6Q653.1 75.1 658 76.45L658.35 76.35Q658.75 75.2 658.65 73.6Q658.55 71.85 657.75 71.6M660.65,230.15Q662.4 236.15 664.6 230.15Q664.35 228.85 663.8 228.1L662.95 227.5Q661.5 227.6 660.7 229.75L660.65 230.15M661,282.5Q657.9 281.75 658.15 286.8L658.2 287.15Q662.25 287.5 661 282.6L661 282.5M655.05,354.85Q656.3 357.05 657.8 355.15L658.45 351.25Q658.65 349.9 657.95 349.7Q655.05 349.9 655 354.6L655.05 354.85M656.15,417.6Q662.65 421.7 655.4 421Q653.9 420.85 654.25 419.5Q654.6 418.05 656.15 417.6" />
<path style="fill:#C4B397;fill-opacity:1" d="M156.7,431.8L154.05 431.95L138.8 433.1L115.45 435.3L109.9 435.95L109.8 435.85L94.45 437.95Q76.95 440.4 55.5 447L55.05 447.15L54.7 447.3L54.6 447.35L54.5 447.35L35.65 453.6Q34 454.2 33.1 454.65L32.9 448.6L32.85 448.1L33.8 447.7L38.6 445.75L42.1 444.45L58.05 438.8Q88.25 429.4 122.7 426.85L178.15 424.4L180.35 424.4L176.85 431.55L156.7 431.8M157.2,426.7L157.7 426.7L158.5 426.65L157.2 426.7M519.85,424.4Q544.25 424.1 581.8 426.85Q631.1 430.5 671.65 448.1L671.4 454.75Q668.3 452.9 649 447Q627.55 440.4 610.05 437.95L588.55 435.1L584.8 434.75L571.1 433.4L569.2 433.2L554.9 431.95L544.7 431.45L541.75 431.4L541.05 431.35L539.4 431.3L530.7 431.2L526.45 431.15L519.85 424.4" />
<path style="fill:#FFF9E7;fill-opacity:1" d="M118.95,417.8Q96 418.9 72.05 424.8L52.4 429.8Q42.55 432.05 36 432.05Q33.45 432.05 33.1 429L33.05 426.95L32.1 427.35L31.85 415.7L32.15 415.1Q34.25 410.05 31.65 406.65L31.25 387L31.35 387.2L31.65 386.75Q31.9 375.5 30.75 364.75L30.6 356.75L29.8 324.7Q31.1 316.6 31.85 309.75Q35.5 305.35 37.9 302.8L36.85 302.95Q32 300.4 29.1 303.25L28.35 281.4L27.4 255Q25 189.95 27.95 189.7L28.9 189.5L28.9 163.2Q32 159.5 29.95 153L28.9 154.4L28.9 134.4L28.4 111.45Q29.35 111.55 30.4 111.1L30.5 110.35Q30.75 103.85 28.15 102.95L27.55 84.8L27.4 78.45Q27.4 75 28.4 70.35L29.4 65.5L28.9 60.75L28.8 59.7Q27.85 59.7 26.8 58.35Q26.8 54.35 27.1 50.85Q27.3 49.45 27.95 49.25L28.9 49.55Q29.2 47.3 29.8 45.6Q30.75 42.4 31.15 37.6L31.3 37.6Q35.45 39.05 39.95 36.4Q42.05 40.4 44.35 36.3Q44.7 34.75 44.65 33.05L54.35 29.35Q53.8 29.7 52.35 32.2Q50.6 35.1 48.8 41.95Q47 48.75 42.65 49.55Q38.3 50.3 38.35 55.2Q38.35 60.1 41.55 60.45Q44.75 60.75 44.3 65.3Q43.75 69.7 40.1 72.35Q36.35 75 36.9 79.2Q37.25 82.15 38.95 84.8L40.4 86.75Q43.25 90.05 41.8 94.55Q40.35 98.9 39.35 100.7Q38.25 102.5 38.65 106.35Q39 110.35 43.05 109.85Q47.1 109.35 44.25 116.9Q41.3 124.4 39.85 130.8L39.65 131.75Q41.05 130.8 42.8 130.35L45.05 129.6Q46.75 128.4 47.55 130.6L47.6 130.9Q43.05 131.95 38.85 135.55Q38.3 138.1 38.3 139.55Q38.3 144.9 37.55 153.75Q36.85 162.55 36.85 169.15L37.3 174.2L37.8 179.3Q37.8 181.15 36.35 184.85Q34.85 188.55 34.85 190.85Q34.85 192.1 35.35 194.55L35.85 198.3Q35.85 200.65 34.6 204.4Q33.4 208.1 33.4 208.95Q33.4 211.05 35.4 212.55Q37.85 214.45 38.85 217.25Q34.55 224.65 33.1 227.7Q30.85 231.95 30.85 233.9Q30.85 237.25 40.4 238.9Q49.85 240.45 46.3 245.95L45.8 246.9Q35.25 254.35 34.65 259.4Q34.05 264.25 39.3 266.05Q44.45 267.75 42.6 271.75Q40.75 275.75 39.6 277.05Q38.35 278.25 37.65 284.6Q36.95 291 40.95 297.55Q44.95 304.05 45.5 306.7Q46.05 309.15 41.2 314.3Q36.35 319.45 38.3 323.7Q39.8 326.65 47 329.8Q50.45 331.65 43.65 338.7Q36.85 345.6 36.15 352.4Q35.4 359.05 37.35 360.85Q39.4 362.55 39.9 365.7Q40.35 368.75 38 374.95Q35.75 381.1 40.35 389.4L40.4 389.6L44.05 388.3Q45.55 388.35 45.85 391.35L45.85 391.6Q45.05 392.55 45.1 393.4L45.05 394.75L44.85 395.05L45.85 395.2L50.75 395.9Q50.45 395.9 50.35 396.35Q50.3 396.65 52.6 397.3Q54.85 397.85 49.9 401.5Q44.85 405.2 45.55 408.85Q46.25 415 83.05 407.4L96.15 407.2L96.95 407.2L96.95 407.35L100 407.55L100.85 408.6L100.8 409.6L99.45 411.1L99.7 412.75L104.7 412.2Q107.6 414.45 111.15 415.75Q114.25 416.9 118.95 417.8M541.75,420.15L539.65 420.15L539.5 420.15L539 420.15L538.5 420.15L537.7 420.2L513.2 420.95L513.9 420.6L516.35 420.55L517.1 420.5L548.75 416.3L552.1 415.85L570.1 414.3L582.4 413.5L582.65 413.9Q583.65 415.35 584.85 414.4L586.05 413.35Q595.3 412.95 604.65 412.95Q605.35 414 606.85 414L608.85 413.95L609.75 414.6Q616.85 419.45 615.95 412.7Q621.45 410.6 627.4 411Q628.2 411.65 629.6 412.15Q630.35 412.45 630.7 412.15Q631.7 411.2 631.9 410.3L633.85 410.8L642.45 412.85Q643.7 413.7 645.65 414Q648.6 414.4 648.85 412.1L648.9 411.4Q658.6 411.8 658.95 408.65Q659.65 405.05 654.65 401.35Q649.65 397.65 651.9 397.1Q654.3 396.45 654.25 396.15Q654.05 395.7 653.75 395.7L658.65 395.05L659.65 394.85L659.45 394.6L659.4 393.2Q659.45 392.35 658.65 391.4L658.65 391.2Q658.95 388.2 660.5 388.1Q662.25 388.85 664.15 389.4L664.2 389.2Q668.75 380.9 666.5 374.75Q664.2 368.55 664.65 365.5Q665.1 362.4 667.15 360.65Q669.1 358.85 668.35 352.2Q667.7 345.45 660.9 338.5Q654.05 331.45 657.55 329.6Q664.7 326.5 666.2 323.5Q668.15 319.25 663.3 314.15Q658.45 308.95 659 306.5Q659.55 303.9 663.55 297.4Q667.6 290.8 666.85 284.45Q666.15 278.05 664.9 276.9Q663.75 275.55 661.9 271.6Q660.1 267.6 665.2 265.85Q670.45 264.05 669.85 259.2Q669.25 254.15 658.7 246.7L658.2 245.75Q654.7 240.3 664.15 238.75Q673.65 237.05 673.65 233.7Q673.65 231.8 671.45 227.5L665.7 217.05Q666.65 214.3 669.1 212.35Q671.2 210.85 671.2 208.75Q671.2 207.9 669.9 204.2Q668.65 200.5 668.65 198.1Q668.65 196.95 669.15 194.4L669.65 190.7Q669.65 188.4 668.15 184.65Q666.7 180.95 666.7 179.15Q666.7 178 667.2 174L667.7 168.95Q667.7 162.4 666.95 153.55Q666.2 144.7 666.2 139.35L665.7 135.35Q661.45 131.75 656.9 130.7L656.95 130.45Q657.8 128.2 659.45 129.45L661.7 130.15Q663.45 130.6 664.85 131.55L664.65 130.6Q663.2 124.25 660.3 116.7Q657.4 109.15 661.45 109.7Q665.55 110.15 665.9 106.15Q666.25 102.3 665.15 100.55Q664.2 98.7 662.7 94.35Q661.3 89.9 664.15 86.55Q667.1 83.1 667.65 79Q668.15 74.8 664.45 72.15Q660.75 69.5 660.25 65.1Q659.8 60.55 662.95 60.25Q666.15 59.9 666.15 55Q666.2 50.1 661.85 49.35Q657.55 48.55 655.7 41.8Q653.9 34.95 652.15 32.05Q650.75 29.55 650.15 29.15L659.9 32.85Q659.85 34.55 660.2 36.1Q662.45 40.2 664.6 36.2Q669.05 38.9 673.2 37.4L673.35 37.4Q673.75 42.25 674.7 45.4L675.6 49.35L676.6 49.05Q677.25 49.25 677.4 50.65Q677.75 54.15 677.75 58.15Q676.7 59.5 675.7 59.5L675.6 60.55Q675.1 64.15 675.1 65.3L676.1 70.15Q677.15 74.8 677.15 78.25L676.35 102.75Q673.75 103.7 674 110.15L674.1 110.9L676.1 111.3Q675.6 126.7 675.6 134.25L675.6 154.2L674.6 152.85Q672.5 159.35 675.6 163.05L675.6 189.3L676.6 189.5Q679.5 189.8 677.15 254.8L676.15 281.2L675.4 303.05Q672.5 300.2 667.7 302.8L666.6 302.6L672.65 309.55Q673.4 316.4 674.7 324.5L673.9 356.55L673.75 364.6Q672.6 375.35 672.85 386.55L673.15 387L673.25 386.8L672.85 406.45Q670.25 409.85 672.35 414.95L672.65 415.5L672.45 424.9L672.4 427.2L671.75 426.9L672.85 434.65Q659.1 428.65 642.45 424.9Q614.05 418.55 577.25 418.75L544.85 420.25L541.75 420.15M636.1,309.35Q645 309.65 652.4 314.5Q647.95 314.8 642.75 314.25Q636.85 313.6 636.1 309.35M626.75,394.75Q627.75 393.4 629.15 393.7L630.3 394.5Q631.45 395.3 632.05 396.9Q627.85 401.6 626.6 395.05L626.75 394.75M46.8,71.75Q51.4 75.3 46.5 76.65L46.15 76.55Q45.75 75.4 45.85 73.8Q45.95 72.05 46.8 71.75M56.9,175.35L57.95 174.5Q60.95 174.3 60.7 179.15L60.65 179.5Q57.7 180.95 56.6 176.1Q56.6 175.5 56.9 175.35M43.8,229.95L43.85 230.3Q42.1 236.35 39.95 230.3Q40.2 229 40.7 228.25Q41.05 227.8 41.55 227.7Q43 227.8 43.8 229.95M43.55,282.7Q46.65 281.95 46.35 286.95L46.3 287.3Q42.25 287.65 43.55 282.8L43.55 282.7M61.75,314.4L52.1 314.7Q59.5 309.8 68.4 309.55Q67.65 313.8 61.75 314.4M46.55,349.9Q49.45 350.1 49.5 354.75L49.45 355.05Q48.2 357.2 46.75 355.35L46.05 351.45Q45.85 350.1 46.55 349.9M77.95,395.2Q76.65 401.8 72.5 397.1Q73.05 395.5 74.2 394.65L75.35 393.85Q76.75 393.6 77.8 394.95L77.95 395.2M637.25,418.3Q641.45 419.7 638.15 415.85Q636.9 416.05 636.85 417.3Q636.85 418.2 637.25 418.3M661,282.6Q662.25 287.5 658.2 287.15L658.15 286.8Q657.9 281.75 661 282.5L661 282.6M655,354.6Q655.05 349.9 657.95 349.7Q658.65 349.9 658.45 351.25L657.8 355.15Q656.3 357.05 655.05 354.85L655 354.6M654.25,419.5Q653.9 420.85 655.4 421Q662.65 421.7 656.15 417.6Q654.6 418.05 654.25 419.5" />
<path style="fill:#FFFCF3;fill-opacity:1" d="M258.35,-3.25L277.95 -0.1L294.85 3Q311.65 6.05 327.4 10.7Q348.1 16.85 349.85 22.1L349.85 25.55L335.9 22.7L336.3 23.55L336.4 24.1Q333.4 28.05 332.55 25.1L332.4 24.5L332.2 22L331.7 21.9L320.45 19.55L320.35 19.9Q316.7 22.95 316.3 18.75L294.8 14.55L294.5 14.5L287.5 13.3L256.8 10.25Q231.1 8.1 207.15 9.25L182.7 10.5L182.75 11.35L182.75 12.05Q177.65 14.95 177.75 10.75L141.1 13.15L141.9 14.95L142 15.45Q136.05 21.9 136 13.55L119.6 14.95Q99.15 16.75 74.25 22.85L74.15 22.7L73.8 22.2L70.2 21.5Q69.55 21.7 69.6 22.7L69.75 24L66.2 24.85L54.5 29.35L54.35 29.35L44.65 33.05Q44.7 34.75 44.35 36.3Q42.05 40.4 39.95 36.4Q35.45 39.05 31.3 37.6L31.15 37.6Q30.75 42.4 29.8 45.6Q29.2 47.3 28.9 49.55L27.95 49.25Q27.3 49.45 27.1 50.85Q26.8 54.35 26.8 58.35Q27.85 59.7 28.8 59.7L28.9 60.75L29.4 65.5L28.4 70.35Q27.4 75 27.4 78.45L27.55 84.8L28.15 102.95Q30.75 103.85 30.5 110.35L30.4 111.1Q29.35 111.55 28.4 111.45L28.9 134.4L28.9 154.4L29.95 153Q32 159.5 28.9 163.2L28.9 189.5L27.95 189.7Q25 189.95 27.4 255L28.35 281.4L29.1 303.25Q32 300.4 36.85 302.95L37.9 302.8Q35.5 305.35 31.85 309.75Q31.1 316.6 29.8 324.7L30.6 356.75L30.75 364.75Q31.9 375.5 31.65 386.75L31.35 387.2L31.25 387L31.65 406.65Q34.25 410.05 32.15 415.1L31.85 415.7L32.1 427.35L33.05 426.95L33.1 429Q33.45 432.05 36 432.05Q42.55 432.05 52.4 429.8L72.05 424.8Q96 418.9 118.95 417.8L129.25 417.55Q136.35 417.55 159.35 420.35L156.85 420.5L144.05 421.3L120.6 422.8Q110 423.45 90.1 426.8Q70.2 430.1 54.55 435.1Q38.9 440.05 28.75 444.85Q28.45 445.95 27.9 443.9Q27.35 441.8 27.8 438.15L27.6 432.65L26.9 416.05L25.85 379.3Q22.2 222.05 21.95 84.8L21.95 29.7Q47.2 17.95 76.35 9.3Q105.5 0.6 155.8 -4.75L157.9 -4.95L207.6 -7.2L252.2 -4.1L258.35 -3.25M544.85,420.25L577.25 418.75Q614.05 418.55 642.45 424.9Q659.1 428.65 672.85 434.65L671.75 426.9L672.4 427.2L672.45 424.9L672.65 415.5L672.35 414.95Q670.25 409.85 672.85 406.45L673.25 386.8L673.15 387L672.85 386.55Q672.6 375.35 673.75 364.6L673.9 356.55L674.7 324.5Q673.4 316.4 672.65 309.55L666.6 302.6L667.7 302.8Q672.5 300.2 675.4 303.05L676.15 281.2L677.15 254.8Q679.5 189.8 676.6 189.5L675.6 189.3L675.6 163.05Q672.5 159.35 674.6 152.85L675.6 154.2L675.6 134.25Q675.6 126.7 676.1 111.3L674.1 110.9L674 110.15Q673.75 103.7 676.35 102.75L677.15 78.25Q677.15 74.8 676.1 70.15L675.1 65.3Q675.1 64.15 675.6 60.55L675.7 59.5Q676.7 59.5 677.75 58.15Q677.75 54.15 677.4 50.65Q677.25 49.25 676.6 49.05L675.6 49.35L674.7 45.4Q673.75 42.25 673.35 37.4L673.2 37.4Q669.05 38.9 664.6 36.2Q662.45 40.2 660.2 36.1Q659.85 34.55 659.9 32.85L650.15 29.15L650 29.15L638.3 24.65L634.75 23.8L634.9 22.5Q634.95 21.5 634.35 21.35L630.75 22.1L630.35 22.5L630.25 22.7Q605.35 16.6 584.9 14.75L568.5 13.35Q568.45 21.7 562.5 15.3L562.6 14.75Q562.95 13.7 563.45 12.95L526.8 10.6Q526.9 14.75 521.75 11.9L521.75 11.15L521.8 10.3L502.75 8.8Q484.15 7.35 458.75 9.05Q433.3 10.75 422.6 12.4L409.7 14.4L388.2 18.55Q387.8 22.8 384.15 19.75L384.05 19.35L372.8 21.7L372.35 21.8L372.1 24.4L372 24.85Q371.15 27.9 368.1 23.9L368.2 23.35L368.6 22.5L354.15 25.5L354.15 21.9Q354.45 21.25 355.45 20.55L355.85 20.3Q360 15.8 377.1 10.7Q392.85 6.05 409.65 3L426.55 -0.1L443.35 -2.85L446.15 -3.25L452.3 -4.1L496.9 -7.2L497.4 -7.2L502.15 -7.2L545.35 -5.05L548.2 -4.75L557.5 -3.7Q601.25 1.4 627.65 9.3Q656.8 17.95 682.05 29.7L682.05 30L682.1 30L682.1 30.95L682.05 79.8Q681.55 191.4 678.65 316.6L677.7 377.1Q677.5 408.1 677.85 425.9L678.35 438.85Q678.65 445.8 677.9 445.85Q677.15 445.85 672.7 443.9Q668.2 441.95 662.35 439.75Q644.8 433.15 626 429.3Q607.2 425.4 590.8 423.6L564.4 421.3L551.6 420.5L546.55 420.3L544.85 420.25M29.25,308.2L29.3 309.15L29.6 308.5L29.25 308.2M674.9,308.3L675.2 308.95L675.25 308.05L674.9 308.3" />
<path style="fill:#B4A080;fill-opacity:1" d="M176.85,431.55L180.35 424.4L188.1 424.5L198.6 424.9L231.55 427.1L250.35 428.9Q262.75 430.15 280.6 433.35L280.75 433.35Q298.75 436.5 327.55 444.25Q347.2 451.15 348.65 454.3Q328.1 448.3 286 441.5L245.25 435.65Q286.05 439.65 333.05 447.15L332.15 446.95Q284.9 439.45 243.95 435.45L243.75 435.45L243.55 435.4L227.45 433.95L223.1 433.65L176.85 431.55M526.45,431.15Q506.05 431.1 480.95 433.45L476.55 433.75L460.55 435.45L418.5 441.5Q376.4 448.3 355.85 454.3Q357.3 451.15 376.95 444.25Q405.75 436.5 423.75 433.35Q441.7 430.15 454.15 428.9L472.95 427.1L505.9 424.9L519.85 424.4L526.45 431.15" />
<path style="fill:#5E4E34;fill-opacity:1" d="M161.9,420.15L162.75 420.15L164.85 420.15L165 420.15L165.5 420.15L166 420.15L166.8 420.2L191.2 420.95L191.3 420.95L191.8 420.95L193 421L193.45 421Q254.25 423.5 286.1 430.55L287.2 430.8L287.45 430.85L290.75 431.6Q325.75 439.4 339.55 444.45L349.6 448.25L349.5 436.25L349.5 435.65L349.75 389.95L350.2 336L350.85 25.5L350.85 21.9Q350.55 21.25 349.55 20.55L349.15 20.3Q345 15.8 327.9 10.7Q312.15 6.05 295.35 3L278.45 -0.1L261.65 -2.85L258.85 -3.25L252.2 -4.1L207.6 -7.2L157.9 -4.95L155.8 -4.75Q105.5 0.6 76.35 9.3Q47.2 17.95 21.95 29.7L21.95 84.8Q22.2 222.05 25.85 379.3L26.9 416.05L27.6 432.65L27.8 438.15Q27.35 441.8 27.9 443.9Q28.45 445.95 28.75 444.85Q38.9 440.05 54.55 435.1Q70.2 430.1 90.1 426.8Q110 423.45 120.6 422.8L144.05 421.3L156.85 420.5L159.35 420.35L161.9 420.15M126.5,-6.45L166.6 -11L170.55 -11.35L196.8 -12.4L222.95 -11.55L224.8 -11.45Q257.75 -9.3 280.2 -4.6Q302.65 0.05 324.65 5.3Q338.3 8.55 345.1 10.65Q348.7 11.7 350.35 12.5L350.8 12.7L352.25 13.05L352.3 13.05L352.6 12.95L353.95 12.55L355.1 12.2Q360.9 9.7 379.35 5.3Q401.35 0.05 423.8 -4.6Q446.25 -9.3 479.2 -11.45Q512.15 -13.6 537.4 -11L577.5 -6.45Q592.35 -4.5 608.35 -1.15Q624.45 2.2 640.55 7.5L652.55 11.5Q660.15 14.1 665.15 16Q673.6 19.2 676.75 20.7Q684.65 24.55 687.15 26.1Q687.85 37.5 687.05 90.4L684.95 236.6Q683.6 329.95 683.45 369.4L683.15 424.9L683.05 439.1Q683.45 449.05 683.2 451.1Q682.95 453.1 681.15 452.4Q679.3 451.7 677.35 450.5L675.35 449.65Q675.75 456.05 674.15 459.2Q673.05 459.95 671.5 458.95Q664.5 456.05 645.6 450.1Q613.75 440.1 574.65 437.15L530.45 435.05Q518.25 434.9 507.75 435.35Q479.95 436.55 463.6 438.6Q447.2 440.65 412.55 446.45Q377.95 452.2 357.65 458.5L353.95 459.45L352.25 459.55Q349.35 459.45 346.85 458.5Q326.55 452.2 291.95 446.45Q257.3 440.65 240.9 438.6Q224.55 436.55 196.75 435.35Q186.6 434.9 174.9 435.05L129.85 437.15Q90.75 440.1 58.9 450.1Q40 456.05 33 458.95Q31.45 459.95 30.35 459.2Q29 456.55 28.75 449.8L28.05 450.1Q27.55 450.2 27.85 450L26.25 450.5Q23.8 450.55 23.45 445.6L22.45 426.8Q22.7 424.7 21.15 381Q19.55 337.25 18.95 240Q18.3 142.75 17.4 113.65Q16.45 84.55 16 56.8Q15.5 29.05 16.35 27.8Q17.2 26.55 23.8 22.9Q30.4 19.2 38.85 16Q47.3 12.75 63.45 7.5Q79.55 2.2 95.65 -1.15Q111.65 -4.5 126.5 -6.45M418.4,430.55Q450.25 423.5 511.05 421L511.5 421L512.7 420.95L513.2 420.95L537.7 420.2L538.5 420.15L539 420.15L539.5 420.15L539.65 420.15L541.75 420.15L544.35 420.25L546.55 420.3L551.6 420.5L564.4 421.3L590.8 423.6Q607.2 425.4 626 429.3Q644.8 433.15 662.35 439.75Q668.2 441.95 672.7 443.9Q677.15 445.85 677.9 445.85Q678.65 445.8 678.35 438.85L677.85 425.9Q677.5 408.1 677.7 377.1L678.65 316.6Q681.55 191.4 682.05 79.8L682.1 30.95L682.1 30L682.05 30L682.05 29.7Q656.8 17.95 627.65 9.3Q601.25 1.4 557.5 -3.7L548.2 -4.75L545.35 -5.05L502.15 -7.2L497.4 -7.2L496.9 -7.2L452.3 -4.1L445.65 -3.25L442.85 -2.85L426.05 -0.1L409.15 3Q392.35 6.05 376.6 10.7Q359.5 15.8 355.35 20.3L354.95 20.55Q353.95 21.25 353.65 21.9L353.65 25.5L354.3 336L354.75 389.95L355 435.65L355 436.25L354.9 448.25L364.95 444.45Q379.4 439.15 417.05 430.85L417.3 430.8L418.4 430.55M33.1,454.65Q34 454.2 35.65 453.6L54.5 447.35L54.6 447.35L54.7 447.3L55.05 447.15Q76.5 440.6 94 438.1L109.05 436.05L109.1 436.1L110.6 437.25L109.5 436.05L109.45 436L109.9 435.95L115.45 435.3L138.8 433.1L154.05 431.95L156.7 431.8L176.85 431.55L223.1 433.65L226.95 433.95L245.25 435.65L286 441.5Q328.1 448.3 348.65 454.3Q347.2 451.15 327.55 444.25Q298.75 436.5 280.75 433.35L280.6 433.35Q262.75 430.15 250.35 428.9L231.55 427.1L198.6 424.9L188.1 424.5L180.35 424.4L178.15 424.4L122.7 426.85Q88.25 429.4 58.05 438.8L56.3 439.35Q49.25 441.6 42.4 444.2L42.1 444.45L38.6 445.75L33.8 447.7L32.35 448.3L32.35 448.5L31.85 448.3L32.1 455.3L32.6 454.95L33.1 454.65M588.05,435.1L609.55 437.95Q627.05 440.4 648.5 447Q670 453.55 671.4 455.1L671.4 454.75L671.65 448.1Q631.1 430.5 581.8 426.85Q544.25 424.1 519.85 424.4L505.9 424.9L472.95 427.1L454.15 428.9Q441.7 430.15 423.75 433.35Q405.75 436.5 376.95 444.25Q357.3 451.15 355.85 454.3Q376.4 448.3 418.5 441.5L460.55 435.45L476.55 433.75L480.95 433.45Q506.05 431.1 526.45 431.15L530.7 431.2L539.4 431.3L541.05 431.35L541.75 431.4L544.7 431.45L554.9 431.95L569.2 433.2L571.1 433.4L584.8 434.75L588.05 435.1" />
<path style="fill:#F0E3C6;fill-opacity:1" d="M300.85,429.15L300.85 429.1L290.75 431.6L287.45 430.85L287.2 430.8L286.1 430.55Q254.25 423.5 193.45 421L193 421L191.8 420.95L191.3 420.95L191.2 420.95L199.9 418.45L203.6 417.35L203.9 417.35L203.65 417.3L201.95 417.2L236.15 406.05Q253.8 400.9 267.85 398.75L278.85 396.8L278.85 394.95Q276.9 394.65 269.5 386.8Q262 378.95 265.45 375.5Q266.5 370.55 275.4 367.9Q284.25 365.35 285.4 365.35L285.4 363.5Q280.45 360.45 282.85 357.9L289.3 356.55L289.3 354.25L288.25 350.35L287.85 347.75Q287.85 346.65 288.45 344.5Q289 342.3 288.6 340.55Q288.1 338.7 286.1 337.05Q284.1 335.35 286.35 333.9Q287.15 332.95 291.2 330.3Q293.3 328.8 293.3 325.55Q293.3 320.75 281.65 317.25Q269.95 313.8 269.7 309.45Q269.45 305 279.3 302.2Q289.1 299.45 288.8 294.5Q291.2 280.7 275.7 275.1Q260.25 269.35 286.1 264.9Q279.95 259.55 282.4 256.25Q284.9 252.8 286.35 251.4Q287.85 249.95 279.4 245Q277.75 240.05 281.3 238.55L288.35 235.3Q290.45 231.3 281.5 232.15Q272.5 233 268.15 228.9Q263.75 224.85 270.5 220.65Q277.3 216.55 281.95 215.6Q286.5 214.65 289.8 202.45L285.1 201.6Q280.4 200.75 280.9 197.25Q281.4 193.75 285.2 191.5Q288.85 189.2 289.8 185.8Q288.65 181.25 288.85 172.65Q290.8 170.95 290.35 167.05Q289.6 161.35 284.35 160.8Q284.9 160.8 283.6 159.85Q279.55 157.15 284.8 153Q289.95 148.75 291.1 145.55Q292.15 142.2 288.4 140.4Q284.55 138.7 274.65 136.6Q270.4 132.9 278.75 127Q287.15 121.1 288.2 120.05Q289.2 119.05 288.65 116.65Q288.05 114.25 287.25 112.85Q286.45 111.35 286.35 109.85Q286.6 106.05 288.65 103.5L290.85 100.65L291.85 96.15L292.3 92.75L291.85 90.45Q291.35 89.3 291.35 88.15Q291.35 87 291.85 85.65L292.05 84.8Q292.15 83.8 291.85 82.75Q291.35 81.3 289.35 81.2Q287.45 81 287.35 78.15Q287.2 75.3 288.75 73.5L290.95 70.45Q291.6 69.25 287.3 68.15Q283 67.05 275.8 63.05Q268.6 59.05 280.65 53.7Q291.85 48.65 294.5 45.1L294.85 44.55Q295.75 43 294.5 41.25Q292.8 38.85 287.05 36.1Q277.1 31.4 278.4 24.75Q282.8 16.95 293.3 14.55L294.8 14.55L316.3 18.75Q316.7 22.95 320.35 19.9L320.45 19.55L331.7 21.9L332 22.85L332.4 24.5L332.55 25.1L333.05 28.45Q332.3 28.65 329.25 31.15Q326.2 33.7 325.65 34.95L325.65 37.7Q327.15 37.05 329.55 39.35Q331.45 41.15 332.55 43.25Q332.55 45.4 330.6 49.35Q328.6 53.4 328.6 54.35Q328.6 56.2 331.6 59.7Q334.55 63.3 334.55 67.3Q334.55 69.6 332.8 72.45Q331.1 75.1 330.9 77.1Q330.65 79.1 334.05 80.85Q337.45 82.55 336.2 86.15Q334.95 89.7 336.75 97.4L337.4 96.85L336.4 97.95L335.75 98.7L335.5 99Q326.9 108.4 326.8 109.1Q324.9 107.65 322.7 106.75Q321.8 106.8 321.95 108.4Q322.55 117.4 327.15 113.1Q328.15 113.75 331 114.9Q334.9 116.45 335.6 116.35L335.6 123.75L332.25 127Q330.1 128.9 330.1 132.1Q330.1 132.9 330.85 136.7L331.6 140.9Q331.6 147.75 326.85 149.45Q319.9 151.8 318.7 153.35L318.7 156.2Q319.95 156.9 327.3 158.4Q334.05 160.3 334.05 164Q334.05 166 331.85 168.65L328.05 173.45Q326.4 175.45 326.4 177.9Q326.4 180.4 333.55 183.05Q334.05 184.85 335.1 185.8L335.1 190.4Q328.55 194 330.35 199.2Q332.15 204.3 331.25 205.4Q330.3 206.45 323.55 209.1Q318.45 211.15 317.65 214.45L318.15 216.8Q332.4 221.05 327.95 219.95Q333.9 221.7 332.6 224.25Q331.1 227.25 330.1 228Q328.75 228.65 328.1 229.3Q328.4 232.7 329.6 233.45Q330.6 234.1 330.6 237.6L330.45 239.95L329.85 241.3Q325 245.95 330.5 249.85Q336 253.7 333.55 258.9Q327.9 262.6 320.45 264.8Q313 267.05 312.95 271.4L325.65 275.1Q325.65 274.65 329.9 277.05Q333.35 275.65 331.4 281.4Q329.35 287.15 326.15 291.4Q322.9 295.65 323.6 297.75Q322.3 299.45 328.35 301Q331.45 304.6 332.8 309.15Q334.2 313.7 332.9 316.4L330.85 320.9Q330.1 322.75 330.1 324.2Q330.1 325.35 330.6 328.1L331.1 332Q331.1 334.7 328.25 334.5Q325.45 334.3 323.6 337.6Q321.9 340.1 327.45 342.55Q328.6 344.5 328.6 348.2Q328.6 352.85 326.8 355.05Q325.45 356.65 317.25 358.55Q309.05 360.55 307.5 365.8Q307.8 369.4 311.45 371.1Q313.5 371.9 318.9 372.65L326.5 373.05Q329.25 372.65 326.8 376Q324.3 379.3 325.65 381.5Q326.9 383.7 326.6 383.85L328.9 386.8Q330.3 389.4 329.05 391.7L328.9 392.55Q321.95 397.65 324.95 400.6Q328.15 403.75 329.6 406.05L325.2 409.85Q324.7 410.35 324.5 412.05Q324.3 413.75 330.1 415.3L330.1 417.2Q329.05 416.6 327.9 417.55L324.55 420.4Q320.5 423.35 314 425.5L317.4 424.6Q326.65 422.2 310.7 426.5L301 429.05L300.95 429.1L300.85 429.15M382.6,108.25Q382.75 106.65 381.8 106.55Q379.6 107.5 377.7 108.9Q377.6 108.25 369.1 98.8L368.8 98.5L368.1 97.75L367.1 96.65L367.75 97.2Q369.55 89.5 368.3 86Q367.05 82.4 370.45 80.65Q373.85 78.9 373.6 76.95Q373.4 74.9 371.7 72.25Q369.95 69.4 369.95 67.1Q369.95 63.15 372.9 59.5Q375.95 56 375.95 54.15Q375.95 53.25 373.9 49.15Q371.95 45.2 371.95 43.05Q373.05 40.95 375 39.15Q377.35 36.85 378.9 37.5L378.9 34.75Q378.3 33.55 375.25 30.95Q372.25 28.45 371.45 28.25Q371.45 27.15 372 24.85L372.1 24.4L372.55 22.7L372.8 21.7L384.05 19.35L384.15 19.75Q387.8 22.8 388.2 18.55L409.7 14.4L411.2 14.4Q421.7 16.75 426.15 24.55Q427.4 31.25 417.45 35.9Q407.5 40.65 409.65 44.35Q411.8 48.05 423.85 53.5Q436 58.9 428.7 62.85Q421.5 66.85 417.2 67.95Q412.95 69.1 413.6 70.25L415.8 73.3Q417.3 75.1 417.15 77.95Q417.05 80.85 415.15 81Q413.15 81.1 412.7 82.55Q412.2 84.05 412.7 85.45L413.15 87.95Q413.15 89.2 412.7 90.25Q412.2 91.5 412.2 92.6Q412.2 93.4 412.7 96Q413.15 98.7 413.7 100.45L415.9 103.3Q417.9 105.85 418.15 109.7Q418.05 111.2 417.25 112.7Q416.45 114.05 415.9 116.45Q415.3 118.9 416.3 119.85Q417.35 120.9 425.75 126.8Q434.1 132.75 429.85 136.45Q419.95 138.5 416.15 140.25Q412.35 142 413.45 145.35Q414.55 148.6 419.75 152.85Q425 157 420.9 159.7Q419.65 160.6 420.15 160.6Q414.9 161.15 414.2 166.9Q413.75 170.8 415.65 172.45Q415.9 181.05 414.7 185.6Q415.65 189.05 419.4 191.35Q423.1 193.55 423.6 197.05Q424.1 200.6 419.5 201.4L414.7 202.25Q418 214.45 422.6 215.4Q427.2 216.35 434 220.45Q440.75 224.65 436.45 228.75Q432 232.8 423 231.95Q414.1 231.15 416.2 235.1L423.2 238.35Q426.75 239.85 425.15 244.85Q416.65 249.75 418.15 251.2Q419.65 252.6 422.1 256.05Q424.55 259.4 418.4 264.7Q444.25 269.2 428.8 274.9Q413.3 280.55 415.7 294.35Q415.4 299.25 425.25 302.05Q435.05 304.8 434.8 309.25Q434.55 313.6 422.9 317.05Q411.2 320.55 411.2 325.35Q411.2 328.6 413.3 330.1Q417.35 332.75 418.15 333.7Q420.4 335.15 418.4 336.85Q416.4 338.5 415.95 340.35Q415.5 342.1 416.1 344.3Q416.65 346.45 416.65 347.6L416.3 350.2L415.2 354.05L415.2 356.35L421.65 357.75Q424.05 360.25 419.2 363.3L419.2 365.15Q420.25 365.15 429.1 367.75Q438 370.35 439.05 375.35Q442.5 378.75 435 386.65Q427.6 394.5 425.65 394.75L425.65 396.65L436.65 398.55Q450.7 400.7 468.35 405.85L501.1 416.55L501.55 416.7L502.55 417L502.15 417.05L510.45 420.6L511.5 421L511.05 421Q450.25 423.5 418.4 430.55L417.3 430.8L413 430Q407.65 428.8 405.15 428.55L405 428.55L404.7 428.5L404 428.35L402.3 428.1Q387.2 425.5 380 420.25L376.6 417.35Q375.5 416.45 374.45 417L374.45 415.1Q380.25 413.55 380.05 411.9Q379.85 410.15 379.35 409.7Q377.65 408.55 374.95 405.85Q376.35 403.6 379.55 400.45Q382.6 397.5 375.65 392.35L375.45 391.5Q374.2 389.2 375.65 386.65L377.9 383.7Q377.6 383.5 378.9 381.35Q380.25 379.15 377.7 375.8Q375.25 372.45 378 372.85L385.7 372.45Q391 371.7 393.05 370.9Q396.75 369.25 397.05 365.6Q395.45 360.35 387.25 358.4Q379.1 356.45 377.7 354.85Q375.95 352.65 375.95 348Q375.95 344.3 377.05 342.4Q382.65 339.9 380.9 337.4Q379.1 334.2 376.25 334.3Q373.4 334.5 373.4 331.85Q373.4 330.75 373.9 327.95L374.45 324Q374.45 322.6 373.65 320.75L371.6 316.2Q370.3 313.55 371.7 308.95Q373.05 304.4 376.15 300.8Q382.25 299.25 380.9 297.55Q381.6 295.45 378.35 291.2Q375.15 286.95 373.1 281.2Q371.15 275.45 374.65 276.9Q378.85 274.45 378.9 274.9L391.6 271.2Q391.55 266.9 384.05 264.65Q376.6 262.45 370.95 258.7Q368.5 253.55 374 249.65Q379.5 245.75 374.7 241.1L374.05 239.75Q373.9 239.5 373.9 237.4Q373.9 233.9 374.95 233.3Q376.1 232.55 376.4 229.1Q375.8 228.45 374.45 227.8Q373.4 227.05 371.9 224.1Q370.6 221.5 376.55 219.75Q372.1 220.85 386.35 216.65L386.85 214.3Q386.1 210.95 380.95 208.95Q374.2 206.25 373.25 205.2Q372.4 204.1 374.15 199.05Q376 193.8 369.45 190.2L369.45 185.6Q370.45 184.65 370.95 182.85Q378.1 180.2 378.1 177.75Q378.1 175.25 376.45 173.25L372.65 168.5Q370.45 165.8 370.45 163.85Q370.45 160.15 377.2 158.2Q384.55 156.7 385.9 156L385.9 153.2Q384.6 151.65 377.65 149.25Q372.9 147.55 372.9 140.7L373.65 136.5L374.45 131.95Q374.45 128.7 372.3 126.8L369 123.55L369 116.15Q369.6 116.25 373.5 114.7Q376.35 113.6 377.35 112.9Q381.95 117.2 382.6 108.25M598.9,53.25Q599 49.9 601.05 49.05L601.4 49.8Q602.75 57.05 598.95 54L598.9 53.25M518.95,55.8L534.95 54.65L611.3 59.5Q632.55 61.4 650.05 75.9Q638.9 73.4 626.05 71.1Q571.75 61.2 518.3 57.2Q518.25 55.9 518.95 55.8M493.2,94.6Q499.7 94.05 505.3 98.05L505.4 98.4L426.35 103.5Q426.45 102.75 426.6 102.75Q459.5 92.4 493.2 94.45L493.2 94.6M505,137.75Q509.15 128.7 517.05 133.4Q517.8 133.45 517.55 134.4Q514.7 147.1 505 138.2L505 137.75M605.8,104.6Q604.45 110.9 600.6 111Q600 111.1 599.6 110.15L599.5 109.5Q599.25 104.45 595.5 103.85L595.35 103.5L595.45 102.95Q598 96.9 603.05 100.9Q604.9 101.2 605.7 104.05L605.8 104.6M573,109.7L573.05 109.15Q574.05 105.55 576.75 105.55L577 106.15Q577.65 115.25 573 109.7M630.9,168.85Q633.05 170.85 632.4 174.7L632.15 175.5L630.65 176.7Q627.2 178.3 622.7 173.35L622.8 172.85Q625.2 166 630.4 168.6Q630.65 168.65 630.9 168.85M643.8,178.95Q643.6 174.1 646.55 174.3L647.65 175.15L647.9 175.9Q646.8 180.8 643.85 179.3L643.8 178.95M479.3,48.45Q477.6 57.4 473.05 51.7L473.15 51.1Q475.4 46.85 478.75 47.25Q479.5 47.3 479.3 48.45M444.75,61.85Q445.2 58.35 447.45 59.25Q448.2 59.35 448.15 60.75Q447.65 68.35 444.7 62.5L444.75 61.85M386.1,58.45L386.05 59.05Q388.6 64.35 389.9 58.15Q390.25 56.65 389.25 56.45Q387.1 55.3 386.1 58.45M399.25,93.6Q397.3 104.15 404.35 98.15L404.45 97.75Q403.65 91.85 399.25 93.6M390.45,172Q395.8 179.15 399.5 170.1Q399.95 169.05 398.75 168.6Q393.95 166.8 390.55 171.55L390.45 172M432.55,175.25L432.95 174.85L437 174.1Q439 175.05 438.85 179.25L438.65 181.25Q435.6 184.95 432.55 181.55L432.45 180.8Q432.2 178.4 432.4 176L432.55 175.25M464.4,203.9Q476.95 199.5 530.45 200.95L539.15 201.6Q543.7 201.6 550.2 203.9Q556.7 206.15 558.05 209.5Q498.25 207.05 451.65 209.05Q451.8 208.35 464.4 203.9M452.4,266.7Q453.45 266.8 453.2 268.55Q451.75 279.25 446.65 272.4L446.75 271.85Q448.7 266.6 452.4 266.7M392.5,247.4Q397.4 255.1 399.5 245.4Q399.75 244 398.75 243.55Q394.75 241.4 392.7 246.9L392.5 247.4M389.95,312.5Q392.45 320.4 396 313.25Q396.15 311.65 395.4 310.8L393.75 309.25Q390.95 307.95 390.05 311.85L389.95 312.5M453.7,317.35Q453.7 311.2 457.35 311.1Q458 311.25 458.75 312.3Q460 314.3 460.1 317.55Q457.2 322.95 453.8 318.05L453.7 317.35M430.95,348.85Q432.75 343.8 436.5 346.3Q437.55 346.45 437.15 348.1Q435 357.1 430.8 349.5L430.95 348.85M406.2,390.7Q401.25 387.85 400.45 395.3L400.45 396.05Q405.7 402.55 407.05 393.1Q407.35 391 406.2 390.7M451.75,391.1Q454 383.5 459.4 387Q461.25 387.75 460.15 389.4Q455.6 395.9 451.65 391.6L451.75 391.1M645.65,283.9Q647.8 277.5 652.75 280.55Q655.25 282.6 652.9 285.55Q647.8 291.85 645.55 284.45L645.65 283.9M516.45,291.95Q538.85 290.9 561.3 290.7Q582.25 292.95 603.2 298.8L605.3 299.25Q608.3 299.65 609.25 303.7Q590.15 300.4 569.1 297.65Q541.6 294.15 515.85 293.25Q515.8 291.95 516.45 291.95M509.95,353.9Q512.9 348.5 517.55 350.95Q519.2 351.65 518.4 353.6Q514.25 363.6 509.9 354.4L509.95 353.9M537.35,377.1L554.85 375.9L557.1 376.35L558.15 376.45Q564.65 376.35 570.5 379.5L570.55 379.9Q568.25 384.95 563.4 384.05L536.75 378.45Q536.7 377.2 537.35 377.1M578.55,354.25Q580.25 348.6 584.15 350Q585.05 350.1 584.95 351.7Q584.35 361.25 578.55 354.85L578.55 354.25M602.55,369.4Q630.25 368.4 654.55 381.45Q631.2 376.35 610.05 374.35Q588.85 372.2 602.55 369.4M259.8,62.65Q256.9 68.55 256.35 60.95Q256.3 59.5 257.1 59.45Q259.3 58.55 259.75 62.05L259.8 62.65M315.3,56.65Q314.25 56.85 314.6 58.35Q315.9 64.55 318.55 59.25L318.45 58.65Q317.4 55.5 315.3 56.65M300.15,98.35Q307.25 104.35 305.3 93.8Q300.85 92.05 300.05 97.95L300.15 98.35M225.75,47.4Q229.15 47.05 231.4 51.3L231.5 51.85Q226.9 57.6 225.2 48.65Q225 47.5 225.75 47.4M186.2,57.4Q132.75 61.4 78.45 71.3Q65.6 73.6 54.45 76.1Q71.95 61.6 93.2 59.7L169.55 54.85L185.55 56Q186.25 56.1 186.2 57.4M199.2,98.25Q204.85 94.25 211.35 94.8L211.35 94.6Q245.05 92.6 277.9 102.95Q278.05 102.95 278.2 103.7L199.1 98.6Q199.1 98.25 199.2 98.25M199.5,137.95L199.5 138.4Q189.85 147.25 186.95 134.6Q186.7 133.65 187.45 133.55Q195.4 128.9 199.5 137.95M272.1,176.2L272.05 180.95L271.95 181.7Q268.9 185.15 265.85 181.45L265.65 179.4Q265.5 175.25 267.5 174.3L271.6 175.05L271.95 175.45L272.1 176.2M313.95,171.7Q310.55 167 305.75 168.75Q304.55 169.25 305.05 170.3Q308.75 179.3 314.05 172.2L313.95 171.7M103.1,50Q103.2 49.55 103.45 49.25Q105.5 50.1 105.65 53.4L105.55 54.15Q101.75 57.2 103.1 50M50.3,52.95Q52.75 51.85 53.8 55.6L53.95 56.2Q51.3 63.6 49.45 55.2Q49 53.25 50.3 52.95M74.1,168.75Q79.3 166.2 81.7 173.05L81.8 173.55Q77.3 178.5 73.9 176.9L72.4 175.7Q72.2 175.35 72.15 174.85Q71.45 171.05 73.65 169.05L74.1 168.75M131.45,109.35L131.5 109.85Q126.85 115.45 127.55 106.35L127.75 105.75Q130.5 105.75 131.45 109.35M104.9,110.35Q104.5 111.3 103.95 111.2Q100.1 111.1 98.7 104.8L98.8 104.25Q99.6 101.4 101.45 101.1Q106.5 97.1 109.05 103.1L109.15 103.7L109 104.05Q105.25 104.6 105 109.7L104.9 110.35M154.35,204.1Q160.85 201.8 165.35 201.8L174.05 201.15Q227.55 199.7 240.15 204.1Q252.7 208.55 252.85 209.2Q206.25 207.25 146.45 209.7Q147.8 206.35 154.35 204.1M58.95,284.6Q56.75 292.05 51.6 285.75Q49.25 282.8 51.75 280.7Q56.75 277.7 58.85 284.05L58.95 284.6M99.2,299.45L101.3 299Q122.25 293.15 143.2 290.9Q165.65 291.1 188.05 292.15Q188.7 292.15 188.65 293.45Q162.9 294.35 135.4 297.85Q114.35 300.6 95.25 303.9Q96.2 299.85 99.2 299.45M120.35,350.2Q124.3 348.75 125.95 354.4L125.95 355.05Q120.15 361.45 119.55 351.9Q119.45 350.25 120.35 350.2M94.5,374.55Q73.3 376.55 50.05 381.6Q74.25 368.55 101.95 369.6Q115.65 372.35 94.5 374.55M134.1,379.7Q139.9 376.55 146.35 376.65L147.45 376.55L149.65 376.1L167.2 377.3Q167.9 377.4 167.85 378.65L141.1 384.25Q136.25 385.15 134.05 380.05L134.1 379.7M305.05,245.6Q307.15 255.3 312.05 247.6L311.85 247.05Q309.75 241.6 305.75 243.7Q304.75 244.15 305.05 245.6M252.1,266.9Q255.8 266.8 257.75 272.05L257.85 272.6Q252.75 279.45 251.35 268.7Q251.05 267 252.1 266.9M194.65,354.6Q192.4 359.4 190.2 359Q188.1 358.6 186.1 353.8L186 353.45Q185.45 351.75 186.95 351.05Q191.6 348.65 194.6 354.05L194.65 354.6M308.55,313.45Q312.1 320.55 314.55 312.7L314.45 312Q313.55 308.15 310.75 309.45L309.1 311Q308.4 311.85 308.55 313.45M247.15,311.25Q250.8 311.35 250.8 317.45L250.7 318.2Q247.3 323.15 244.4 317.75Q244.5 314.5 245.8 312.5Q246.5 311.45 247.15 311.25M267.35,348.3Q266.95 346.65 268.05 346.45Q271.8 344 273.6 349.05L273.75 349.7Q269.5 357.3 267.35 348.3M244.35,389.6Q243.25 387.95 245.1 387.2Q250.5 383.7 252.75 391.3L252.85 391.8Q248.9 396.05 244.35 389.6M297.45,393.3Q298.8 402.75 304.05 396.25L304.05 395.5Q303.25 388 298.35 390.9Q297.15 391.2 297.45 393.3M321.75,414.05Q321.6 422.65 325.5 417.3L325.4 416.6Q324.65 413.4 322.25 413.1Q321.75 413.2 321.75 414.05M302.55,428.4L305.55 427.75L306.7 427.4L305.9 427.6L302.25 428.25L302.55 428.4M382.3,412.9Q379.9 413.2 379.15 416.45L379.05 417.1Q382.9 422.45 382.75 413.85Q382.75 413 382.3 412.9M650.7,55.4Q651.75 51.7 654.3 52.75Q655.5 53.05 655.05 55Q653.2 63.4 650.55 56L650.7 55.4M658.65,73.6Q658.75 75.2 658.35 76.35L658 76.45Q653.1 75.1 657.75 71.6Q658.55 71.85 658.65 73.6M660.7,229.75Q661.5 227.6 662.95 227.5L663.8 228.1Q664.35 228.85 664.6 230.15Q662.4 236.15 660.65 230.15L660.7 229.75" />
<path style="fill:#D7C9B1;fill-opacity:1" d="M300.85,429.1L300.85 429.15L301.1 429.1L301 429.05L310.7 426.5Q326.65 422.2 317.4 424.6L314 425.5Q320.5 423.35 324.55 420.4L327.9 417.55Q329.05 416.6 330.1 417.2L330.1 415.3Q324.3 413.75 324.5 412.05Q324.7 410.35 325.2 409.85L329.6 406.05Q328.15 403.75 324.95 400.6Q321.95 397.65 328.9 392.55L329.05 391.7Q330.3 389.4 328.9 386.8L326.6 383.85Q326.9 383.7 325.65 381.5Q324.3 379.3 326.8 376Q329.25 372.65 326.5 373.05L318.9 372.65Q313.5 371.9 311.45 371.1Q307.8 369.4 307.5 365.8Q309.05 360.55 317.25 358.55Q325.45 356.65 326.8 355.05Q328.6 352.85 328.6 348.2Q328.6 344.5 327.45 342.55Q321.9 340.1 323.6 337.6Q325.45 334.3 328.25 334.5Q331.1 334.7 331.1 332L330.6 328.1Q330.1 325.35 330.1 324.2Q330.1 322.75 330.85 320.9L332.9 316.4Q334.2 313.7 332.8 309.15Q331.45 304.6 328.35 301Q322.3 299.45 323.6 297.75Q322.9 295.65 326.15 291.4Q329.35 287.15 331.4 281.4Q333.35 275.65 329.9 277.05Q325.65 274.65 325.65 275.1L312.95 271.4Q313 267.05 320.45 264.8Q327.9 262.6 333.55 258.9Q336 253.7 330.5 249.85Q325 245.95 329.85 241.3L330.45 239.95L330.6 237.6Q330.6 234.1 329.6 233.45Q328.4 232.7 328.1 229.3Q328.75 228.65 330.1 228Q331.1 227.25 332.6 224.25Q333.9 221.7 327.95 219.95Q332.4 221.05 318.15 216.8L317.65 214.45Q318.45 211.15 323.55 209.1Q330.3 206.45 331.25 205.4Q332.15 204.3 330.35 199.2Q328.55 194 335.1 190.4L335.1 185.8Q334.05 184.85 333.55 183.05Q326.4 180.4 326.4 177.9Q326.4 175.45 328.05 173.45L331.85 168.65Q334.05 166 334.05 164Q334.05 160.3 327.3 158.4Q319.95 156.9 318.7 156.2L318.7 153.35Q319.9 151.8 326.85 149.45Q331.6 147.75 331.6 140.9L330.85 136.7Q330.1 132.9 330.1 132.1Q330.1 128.9 332.25 127L335.6 123.75L335.6 116.35Q334.9 116.45 331 114.9Q328.15 113.75 327.15 113.1Q327.65 112.7 327.7 110.55L326.8 109.1Q326.9 108.4 335.5 99L335.75 98.7L336.4 97.95L337.4 96.85L336.75 97.4Q334.95 89.7 336.2 86.15Q337.45 82.55 334.05 80.85Q330.65 79.1 330.9 77.1Q331.1 75.1 332.8 72.45Q334.55 69.6 334.55 67.3Q334.55 63.3 331.6 59.7Q328.6 56.2 328.6 54.35Q328.6 53.4 330.6 49.35Q332.55 45.4 332.55 43.25Q331.45 41.15 329.55 39.35Q327.15 37.05 325.65 37.7L325.65 34.95Q326.2 33.7 329.25 31.15Q332.3 28.65 333.05 28.45L332.55 25.1Q333.4 28.05 336.4 24.1L336.3 23.55L335.9 22.7L349.85 25.55L349.85 22.1Q348.1 16.85 327.4 10.7Q311.65 6.05 294.85 3L277.95 -0.1L258.35 -3.25L252.2 -4.1L258.85 -3.25L261.65 -2.85L278.45 -0.1L295.35 3Q312.15 6.05 327.9 10.7Q345 15.8 349.15 20.3L349.55 20.55Q350.55 21.25 350.85 21.9L350.85 25.5L350.2 336L349.75 389.95L349.5 435.65L349.5 436.25L349.6 448.25L339.55 444.45Q325.75 439.4 290.75 431.6L300.85 429.1M446.15,-3.25L443.35 -2.85L426.55 -0.1L409.65 3Q392.85 6.05 377.1 10.7Q360 15.8 355.85 20.3L355.45 20.55Q354.45 21.25 354.15 21.9L354.15 25.5L368.6 22.5L368.2 23.35L368.1 23.9Q371.15 27.9 372 24.85Q371.45 27.15 371.45 28.25Q372.25 28.45 375.25 30.95Q378.3 33.55 378.9 34.75L378.9 37.5Q377.35 36.85 375 39.15Q373.05 40.95 371.95 43.05Q371.95 45.2 373.9 49.15Q375.95 53.25 375.95 54.15Q375.95 56 372.9 59.5Q369.95 63.15 369.95 67.1Q369.95 69.4 371.7 72.25Q373.4 74.9 373.6 76.95Q373.85 78.9 370.45 80.65Q367.05 82.4 368.3 86Q369.55 89.5 367.75 97.2L367.1 96.65L368.1 97.75L368.8 98.5L369.1 98.8Q377.6 108.25 377.7 108.9Q377.4 109.15 376.8 110.35Q376.85 112.5 377.35 112.9Q376.35 113.6 373.5 114.7Q369.6 116.25 369 116.15L369 123.55L372.3 126.8Q374.45 128.7 374.45 131.95L373.65 136.5L372.9 140.7Q372.9 147.55 377.65 149.25Q384.6 151.65 385.9 153.2L385.9 156Q384.55 156.7 377.2 158.2Q370.45 160.15 370.45 163.85Q370.45 165.8 372.65 168.5L376.45 173.25Q378.1 175.25 378.1 177.75Q378.1 180.2 370.95 182.85Q370.45 184.65 369.45 185.6L369.45 190.2Q376 193.8 374.15 199.05Q372.4 204.1 373.25 205.2Q374.2 206.25 380.95 208.95Q386.1 210.95 386.85 214.3L386.35 216.65Q372.1 220.85 376.55 219.75Q370.6 221.5 371.9 224.1Q373.4 227.05 374.45 227.8Q375.8 228.45 376.4 229.1Q376.1 232.55 374.95 233.3Q373.9 233.9 373.9 237.4Q373.9 239.5 374.05 239.75L374.7 241.1Q379.5 245.75 374 249.65Q368.5 253.55 370.95 258.7Q376.6 262.45 384.05 264.65Q391.55 266.9 391.6 271.2L378.9 274.9Q378.85 274.45 374.65 276.9Q371.15 275.45 373.1 281.2Q375.15 286.95 378.35 291.2Q381.6 295.45 380.9 297.55Q382.25 299.25 376.15 300.8Q373.05 304.4 371.7 308.95Q370.3 313.55 371.6 316.2L373.65 320.75Q374.45 322.6 374.45 324L373.9 327.95Q373.4 330.75 373.4 331.85Q373.4 334.5 376.25 334.3Q379.1 334.2 380.9 337.4Q382.65 339.9 377.05 342.4Q375.95 344.3 375.95 348Q375.95 352.65 377.7 354.85Q379.1 356.45 387.25 358.4Q395.45 360.35 397.05 365.6Q396.75 369.25 393.05 370.9Q391 371.7 385.7 372.45L378 372.85Q375.25 372.45 377.7 375.8Q380.25 379.15 378.9 381.35Q377.6 383.5 377.9 383.7L375.65 386.65Q374.2 389.2 375.45 391.5L375.65 392.35Q382.6 397.5 379.55 400.45Q376.35 403.6 374.95 405.85Q377.65 408.55 379.35 409.7Q379.85 410.15 380.05 411.9Q380.25 413.55 374.45 415.1L374.45 417Q375.5 416.45 376.6 417.35L380 420.25Q387.2 425.5 402.3 428.1L404 428.35L404.7 428.5L405 428.55L405.15 428.55Q407.65 428.8 413 430L417.3 430.8L417.05 430.85Q379.4 439.15 364.95 444.45L354.9 448.25L355 436.25L355 435.65L354.75 389.95L354.3 336L353.65 25.5L353.65 21.9Q353.95 21.25 354.95 20.55L355.35 20.3Q359.5 15.8 376.6 10.7Q392.35 6.05 409.15 3L426.05 -0.1L442.85 -2.85L445.65 -3.25L452.3 -4.1L446.15 -3.25M392.7,246.9Q394.75 241.4 398.75 243.55Q399.75 244 399.5 245.4Q397.4 255.1 392.5 247.4L392.7 246.9M318.45,58.65L318.55 59.25Q315.9 64.55 314.6 58.35Q314.25 56.85 315.3 56.65Q317.4 55.5 318.45 58.65M300.05,97.95Q300.85 92.05 305.3 93.8Q307.25 104.35 300.15 98.35L300.05 97.95M309.1,311L310.75 309.45Q313.55 308.15 314.45 312L314.55 312.7Q312.1 320.55 308.55 313.45Q308.4 311.85 309.1 311M382.75,413.85Q382.9 422.45 379.05 417.1L379.15 416.45Q379.9 413.2 382.3 412.9Q382.75 413 382.75 413.85" />
<path style="fill:#743517;fill-opacity:1" d="M538.9,441.7Q557.25 452.05 569.4 451.3Q581.55 450.5 590.7 445.85Q570.35 443.75 559.1 439.6Q555.3 438.2 551.45 436.35Q541.5 431.6 531.15 423.9L537 424.4Q548.25 431.3 556.6 434.75Q562.15 437 566.45 437.75L567.8 438L565.3 437.85L568.75 438.2Q571.6 438.65 573 439.3Q576 440.25 586.2 441.65Q596.35 443 600.35 440.75Q604.35 438.45 608 435.05Q611.65 431.65 613.1 429.45L614.95 426.7L616.1 424.55L617.2 422.05Q619.3 416.8 619.5 409.9Q619.6 402.95 615.4 389.45Q611.25 379.35 615.2 379.85Q619.15 380.35 633.35 379.45Q649.75 375.95 656.1 371.6Q662.4 367.2 667.3 362.2Q672.15 357.15 673.55 370.6Q674.95 384.05 671 396.55Q667.7 406.85 663.8 413.3L662.3 415.7L660.35 418.4Q655.4 425 649.25 431.45Q643.1 437.9 623.15 448.75Q605.1 457.05 591.55 457.7L576.35 458.25L566.2 456.4Q560.35 455.05 553.95 453.05L552.8 452.7Q542.65 449.45 533.7 444.7Q518.6 436.65 506.95 424.4L512.1 424.3Q526.55 435.2 538.9 441.7M624.8,404.05L624.45 411.1L624.2 412.6Q623.45 415.9 621.35 422.25Q618.65 430.15 611.9 437L607.7 440.8Q605.5 442.65 599.2 446.3Q592.85 449.95 579.3 454.85Q609.55 454.15 639.35 433.3L643.95 430Q654.3 421.6 661.35 407.55L663.6 402.45Q665.4 398 666.5 393.8Q668.5 386 668.25 378.95Q668 371.85 667.65 369.4L660.15 375.65Q646.6 386.45 620.6 385.7Q623.55 392.15 624.45 399.1L624.8 404.05M571.8,438.45L571.95 438.55L571.45 438.4L571.8 438.45" />
<path style="fill:#FFF16A;fill-opacity:1" d="M662.9,378.45L661.9 378.45Q658.7 382.15 652 384.8Q643.55 387.65 638.8 389.45Q635 390.95 631.7 390.6L627.4 389.95Q625.85 390.8 624.65 397.8L624.45 399.1Q623.55 392.15 620.6 385.7Q646.6 386.45 660.15 375.65L667.65 369.4Q668 371.85 668.25 378.95Q668.5 386 666.5 393.8L662.9 378.45" />
<path style="fill:#E5AE27;fill-opacity:1" d="M551.45,436.35Q555.3 438.2 559.1 439.6Q570.35 443.75 590.7 445.85Q581.55 450.5 569.4 451.3Q557.25 452.05 538.9 441.7Q544.6 438.7 551.45 436.35M624.45,399.1L624.65 397.8Q625.85 390.8 627.4 389.95L631.7 390.6Q635 390.95 638.8 389.45Q643.55 387.65 652 384.8Q658.7 382.15 661.9 378.45L662.9 378.45L666.5 393.8Q665.4 398 663.6 402.45L661.35 407.55Q654.3 421.6 643.95 430L639.35 433.3Q609.55 454.15 579.3 454.85Q592.85 449.95 599.2 446.3Q605.5 442.65 607.7 440.8L611.9 437Q618.65 430.15 621.35 422.25Q623.45 415.9 624.2 412.6L624.45 411.1L624.8 404.05L624.45 399.1M661.55,398.15Q660.5 399.45 653.35 402.3Q646.2 405.1 640.6 406.35Q635.35 407.5 628.15 406.35Q625.35 426.7 612.85 440.4Q609.45 444.1 605.65 446.9L605.95 446.8Q615.5 443.45 624.05 439.35Q640.85 431.2 649.95 422.15L650.8 421.05L653.15 417.85L655.15 414.9L657.15 411.45L658.7 408.2Q660.45 404 661.55 398.15" />
<path style="fill:#D26936;fill-opacity:1" d="M538.9,441.7Q526.55 435.2 512.1 424.3L523.2 424L531.15 423.9Q541.5 431.6 551.45 436.35Q544.6 438.7 538.9 441.7M658.7,408.2L657.15 411.45L655.15 414.9L653.15 417.85L650.8 421.05L649.95 422.15Q640.85 431.2 624.05 439.35Q615.5 443.45 605.95 446.8L605.65 446.9Q609.45 444.1 612.85 440.4Q625.35 426.7 628.15 406.35Q635.35 407.5 640.6 406.35Q646.2 405.1 653.35 402.3Q660.5 399.45 661.55 398.15Q660.45 404 658.7 408.2" />
</g>
</svg>
