<?xml version="1.0" encoding="utf-8"?>
<svg version="1.1" id="Layer_1"
xmlns="http://www.w3.org/2000/svg"
xmlns:xlink="http://www.w3.org/1999/xlink"
xmlns:author="http://www.sothink.com"
width="29px" height="75px"
xml:space="preserve">
<g id="1540" transform="matrix(1, 0, 0, 1, -651.15, -206.35)">
<path style="fill:#55E27E;fill-opacity:1" d="M664.4,233.75L664.4 233.55Q660.15 230.45 655.6 229.3Q655.25 229.6 655.45 229.8L655.55 230L655.3 230Q654.95 230.2 655.15 230.45Q658.3 235 661.6 234.5Q662.95 234.5 664.4 233.75M666.05,223.6L666.05 223.8Q667.45 230.2 670.1 231.75L670.1 231.6Q669 225.55 666.6 222.8L666.2 223.15L666.05 223.6M664.55,227.9L664.55 215.2L676.85 243.05L664.3 272.15L664.3 258.85L664.1 257.3L663.65 256.15Q663.35 255.85 663.1 255.95L653.15 261.85L653.25 225.8L663.4 230.75L663.95 230.6L664.4 229.6L664.55 227.9M654.3,246L654.35 257.85Q664.8 249.1 665.15 254.45Q665.5 255.85 665.3 265.35L669.4 256.6Q672.25 250.1 675.75 243.75L671.1 248.2Q668.6 250.3 665.85 247.3Q663.05 244.1 654.3 246" />
<path style="fill:#C5FAD4;fill-opacity:1" d="M661.6,234.5Q658.3 235 655.15 230.45Q654.95 230.2 655.3 230L655.55 230L655.45 229.8Q655.25 229.6 655.6 229.3Q660.15 230.45 664.4 233.55L664.4 233.75Q662.95 234.5 661.6 234.5M666.2,223.15L666.6 222.8Q669 225.55 670.1 231.6L670.1 231.75Q667.45 230.2 666.05 223.8L666.05 223.6L666.2 223.15" />
<path style="fill:#06541C;fill-opacity:1" d="M663.45,206.4Q663.85 206.25 664.2 206.9L679.1 240.75L679.5 242.35L679.5 244.05L679.1 245.4L663.9 280.4L663.2 281.1Q662.8 280.95 662.6 280.15Q662.3 279.3 662.3 278.1L662.3 262.45L652.4 268.25L651.8 268.1L651.3 267Q651.15 266.3 651.15 265.35L651.25 222.25Q651.25 221.35 651.4 220.65Q651.6 219.95 651.85 219.7Q652.1 219.25 652.4 219.4L662.6 224.5L662.6 209.3Q662.6 208.05 662.85 207.3Q663.05 206.4 663.45 206.4M664.4,229.6L663.95 230.6L663.4 230.75L653.25 225.8L653.15 261.85L663.1 255.95Q663.35 255.85 663.65 256.15L664.1 257.3L664.3 258.85L664.3 272.15L676.85 243.05L664.55 215.2L664.55 227.9L664.4 229.6" />
<path style="fill:#199A3E;fill-opacity:1" d="M665.85,247.3Q668.6 250.3 671.1 248.2L675.75 243.75Q672.25 250.1 669.4 256.6L665.3 265.35Q665.5 255.85 665.15 254.45Q664.8 249.1 654.35 257.85L654.3 246Q663.05 244.1 665.85 247.3" />
</g>
</svg>
