<?xml version="1.0" encoding="utf-8"?>
<svg version="1.1" id="Layer_1"
xmlns="http://www.w3.org/2000/svg"
xmlns:xlink="http://www.w3.org/1999/xlink"
xmlns:author="http://www.sothink.com"
width="47px" height="38px"
xml:space="preserve">
<g id="752" transform="matrix(1, 0, 0, 1, 0, 1.55)">
<path style="fill:#06541C;fill-opacity:1" d="M40.9,36.2L3.95 36.4Q-2.65 36.05 1.8 28.3L19.05 1.35Q23.5 -4.65 27.9 1.75L43.6 26.3Q46.3 30.45 46.7 32.15Q47.05 33.8 46.05 34.85Q45 35.85 43.15 36.1L40.9 36.2M22.25,3.95L4.6 30.35Q3.8 32.2 5.9 32.2L39.5 32.15Q43.45 32.95 40.3 28.2L40.7 28.75L24.55 4.15Q23.55 3.15 22.25 3.95" />
<path style="fill:#55E27E;fill-opacity:1" d="M24.55,4.15L40.7 28.75L40.3 28.2Q43.45 32.95 39.5 32.15L5.9 32.2Q3.8 32.2 4.6 30.35L22.25 3.95Q23.55 3.15 24.55 4.15M23.65,7.55Q23.15 7.65 22.9 8.05Q23.9 10.25 25.7 13.25Q28.85 18.45 31.25 19.3Q29.4 13.7 26.75 10.55Q24.05 7.4 23.65 7.55M34.15,25.6Q28.25 26.2 23 23.95Q17.45 21.65 15.75 16.75L7.1 30.25L40 30.35L34.15 25.6" />
<path style="fill:#C5FAD4;fill-opacity:1" d="M26.75,10.55Q29.4 13.7 31.25 19.3Q28.85 18.45 25.7 13.25Q23.9 10.25 22.9 8.05Q23.15 7.65 23.65 7.55Q24.05 7.4 26.75 10.55" />
<path style="fill:#199A3E;fill-opacity:1" d="M40,30.35L7.1 30.25L15.75 16.75Q17.45 21.65 23 23.95Q28.25 26.2 34.15 25.6L40 30.35" />
</g>
</svg>
