<?xml version="1.0" encoding="utf-8"?>
<svg version="1.1" id="Layer_1"
xmlns="http://www.w3.org/2000/svg"
xmlns:xlink="http://www.w3.org/1999/xlink"
xmlns:author="http://www.sothink.com"
width="8px" height="11px"
xml:space="preserve">
<g id="376" transform="matrix(1, 0, 0, 1, 0, 0)">
<path style="fill:#8C662F;fill-opacity:1" d="M5.25,10.15Q6.35 9.95 6.8 8.85Q7.1 8.1 7.05 7.1L6.8 5.45L6.4 3.3Q6.15 2.3 4.8 1.35Q3.4 0.35 2 1.55Q0.6 2.7 1 4.55L1.7 7.2L2.3 8.65L3.3 9.75L5.05 10.15L5.25 10.15M6.55,1.6Q7.4 2.5 7.7 4.95L7.85 8.25Q7.75 9.1 7.15 9.85L5.85 10.8L4.35 11L2.95 10.65L1.85 9.6Q1.25 8.85 0.65 6.7Q0 4.55 0 3.7Q0 2.85 0.4 2Q0.85 1.15 1.6 0.65Q2.35 0.15 3 0.05L4.2 0.1L5.2 0.45L6.55 1.6" />
<path style="fill:#D0A15B;fill-opacity:1" d="M4.6,8.1Q4.6 9.15 5.05 10.15L3.3 9.75L2.3 8.65L1.7 7.2L1 4.55Q0.6 2.7 2 1.55Q3.4 0.35 4.8 1.35Q6.15 2.3 6.4 3.3L6.8 5.45L7.05 7.1Q5.85 7.85 4.6 8.1" />
<path style="fill:#E9CB9E;fill-opacity:1" d="M5.05,10.15Q4.6 9.15 4.6 8.1Q5.85 7.85 7.05 7.1Q7.1 8.1 6.8 8.85Q6.35 9.95 5.25 10.15L5.05 10.15" />
</g>
</svg>
