<?xml version="1.0" encoding="utf-8"?>
<svg version="1.1" id="Layer_1"
xmlns="http://www.w3.org/2000/svg"
xmlns:xlink="http://www.w3.org/1999/xlink"
xmlns:author="http://www.sothink.com"
width="76px" height="65px"
xml:space="preserve">
<g id="2857" transform="matrix(1, 0, 0, 1, 4.1, 9.1)">
<path style="fill:#414141;fill-opacity:1" d="M32.65,5.7Q33.7 5.15 34.45 4.15Q35.15 3.05 35.45 1.7Q35.8 0.35 35.75 -0.75L35.65 -1.75L35.75 -1.65L36.5 -0.2L37.25 1.2L37.7 2.75L37.85 4.35L37.5 5.85L36.7 7.3L35.6 8.4L34 8.95L32.5 8.75Q31.7 8.45 31.25 7.75L30.9 7Q31.45 6.3 32.65 5.7M32.15,12L32.65 12.05L34.25 12L35.7 11.55L37 10.7L38.1 9.5L38.75 8L39.05 6.4L39.1 5.1L38.95 3.55L38.45 1.55L38.1 0.35L38 0.1Q39.1 1.55 39.6 3.9Q40.1 6.45 39.75 7.9L39.05 9.9L37.65 11.3Q36.7 12.05 35.05 12.45Q33.4 12.85 32.3 12.1L32.15 12M36.65,3.7Q36.85 2.9 36.55 2.45Q36.25 1.95 35.8 3.15L34.9 5.1Q34.4 5.85 35.2 5.65Q36.05 5.4 36.25 4.9L36.65 3.7" />
<path style="fill:#232323;fill-opacity:1" d="M38.1,0.35L38.45 1.55L38.95 3.55L39.1 5.1L39.05 6.4L38.75 8L38.1 9.5L37 10.7L35.7 11.55L34.25 12L32.65 12.05L32.15 12Q29.95 10.65 30.45 7.95Q30.5 7.45 30.9 7L31.25 7.75Q31.7 8.45 32.5 8.75L34 8.95L35.6 8.4L36.7 7.3L37.5 5.85L37.85 4.35L37.7 2.75L37.25 1.2L36.5 -0.2L35.75 -1.65L35.65 -1.75L35.65 -1.95L36.05 -1.85L37.8 -0.15L37.95 0.1L38 0.1L38.1 0.35" />
<path style="fill:#000000;fill-opacity:1" d="M34.6,-3.05L34.6 -3.45Q34.6 -3.9 35.85 -3.05L36.15 -2.85L37.35 -2Q40.25 0.2 40.8 5.25Q41.05 7.7 40.2 9.55Q39.45 11.4 37.75 12.45Q36.05 13.45 34.5 13.6Q32.95 13.65 31.65 12.95Q30.45 12.15 29.85 10.85Q29.3 9.6 29.3 8.6Q29.35 7.55 29.9 6.65Q30.5 5.7 31.45 5.35Q32.4 4.95 33.4 3.8Q34.45 2.65 34.65 0.95L34.7 -1.7L34.6 -2.85L34.6 -3.05M30.9,7Q30.5 7.45 30.45 7.95Q29.95 10.65 32.15 12L32.3 12.1Q33.4 12.85 35.05 12.45Q36.7 12.05 37.65 11.3L39.05 9.9L39.75 7.9Q40.1 6.45 39.6 3.9Q39.1 1.55 38 0.1L37.95 0.1L37.8 -0.15L36.05 -1.85L35.65 -1.95L35.65 -1.75L35.75 -0.75Q35.8 0.35 35.45 1.7Q35.15 3.05 34.45 4.15Q33.7 5.15 32.65 5.7Q31.45 6.3 30.9 7" />
<path style="fill:#6D6969;fill-opacity:1" d="M36.25,4.9Q36.05 5.4 35.2 5.65Q34.4 5.85 34.9 5.1L35.8 3.15Q36.25 1.95 36.55 2.45Q36.85 2.9 36.65 3.7L36.25 4.9" />
<path style="fill:#201511;fill-opacity:1" d="M8.2,21.1Q8.25 22.4 7.55 22.85L6.85 23.05L8.65 23.7Q18.85 27.3 26.05 23.5Q30.05 21.35 33.15 16.9L33.85 15.85L33.6 15.45L33.55 15.25Q32.55 13.95 33.55 12.9L34.05 11.35Q35.05 9.55 37.7 9.1Q36.4 8.05 34.1 8.15Q32 8.25 30.3 8.85Q29.05 9.2 28 9.85L28 9.75L28.45 8.95Q29.4 7.35 31.05 6.7L32.05 6.4L31.85 6.05Q29.5 0.75 24.3 -0.95L24.05 -1L24.3 -0.35L24.45 0.15Q24.85 1.65 24.65 3.05L24.3 4.25L24.1 4.7Q23.5 3.5 23.2 2.35L20.95 2.45Q18.5 2.25 16 0.9Q12.2 -1.15 11.15 -7.05Q7.95 -6.35 5.3 -3.45Q0.3 2.05 3.3 9.15Q4 10.85 5.25 12.7Q4.3 12.9 3.35 12.4L3.3 12.4Q1.5 12.9 -0.05 12.45Q-1.6 12 -2.9 10.65Q-3.05 12.8 -2.7 14.25Q-2.35 15.65 -1.3 17.2L-0.75 17.95Q1.7 21.15 5.1 21.45L8.2 21.1M13.1,-5.65Q13.75 -3.4 15.95 -1.1Q18.1 1.2 22.75 0.85L21.7 -2.25Q22.35 -3 24.3 -2.6L27.35 -1.6Q31.35 0.4 33.5 6.25L33.85 6.25Q37.3 6.45 40.05 9.95L39.95 9.95L39.3 10.05Q35.75 10.65 34.8 13L34.7 13.25Q34.5 13.65 34.45 14.1Q34.7 15.55 34.45 16.9Q33.75 20.55 29.05 23.2L26.35 24.6Q13.45 30.55 1.75 21.7L0.65 20.8L0.3 20.55L-0.4 20Q-2.55 18.4 -3.4 15.9Q-4.3 13.35 -4 11.1Q-3.7 8.8 -3.1 8.85Q-0.65 11.6 2.35 11.3L2 10.35Q1.05 8.2 0.65 4.2Q0.25 0.2 3.05 -3.15Q5.8 -6.5 9.15 -8.1Q12.5 -9.7 12.45 -8.8Q12.4 -7.95 13.1 -5.65" />
<path style="fill:#694939;fill-opacity:1" d="M23.2,2.35Q23.5 3.5 24.1 4.7L24.3 4.25L24.65 3.05Q25.55 2.05 25.5 0.75Q27.35 1.7 28.95 3.6Q30.55 5.45 31.05 6.7Q29.4 7.35 28.45 8.95L28 9.75L28 9.85Q29.05 9.2 30.3 8.85L31.9 8.85L34.9 9.1Q34.4 9.45 34.25 10.2L34.05 11.35L33.55 12.9Q32.55 13.95 33.55 15.25L33.6 15.45L33.85 15.85L33.15 16.9Q30.05 21.35 26.05 23.5Q25.9 22.75 26 21.85L26.15 18.4L26.35 16.9Q26.55 15.8 27.2 14.85Q28.3 13.25 29.55 11.95L30.85 10.9L29.15 11.1L26.6 11.7Q26.9 11.05 26.9 8.7Q26.9 5.7 25.5 4.05L24.3 6Q23.05 7.3 21.2 7.45Q18.15 7.7 14.05 5Q9.95 2.25 9 -1.1L7.65 0.35Q6.35 1.75 5.85 5.65Q5.3 9.5 6.8 11.85L8.5 14.5L7.15 14.9L3.45 15.3Q1.7 15.25 0.3 14.5Q1.05 17.65 3.5 20.1L5.1 21.45Q1.7 21.15 -0.75 17.95L-1.3 17.2L-1.75 14.7L-1.4 12.6L-1.15 12.7L0 13L2.2 12.75L3.35 12.4Q4.3 12.9 5.25 12.7Q4 10.85 3.3 9.15Q2.05 2.6 5.8 -1.45Q7.1 -2.9 8.55 -3.7L10.25 -4.45Q13.55 2.25 18.5 2.6L20.95 2.45L23.2 2.35" />
<path style="fill:#412B1E;fill-opacity:1" d="M5.1,21.45L3.5 20.1Q1.05 17.65 0.3 14.5Q1.7 15.25 3.45 15.3L7.15 14.9L8.5 14.5L6.8 11.85Q5.3 9.5 5.85 5.65Q6.35 1.75 7.65 0.35L9 -1.1Q9.95 2.25 14.05 5Q18.15 7.7 21.2 7.45Q23.05 7.3 24.3 6L25.5 4.05Q26.9 5.7 26.9 8.7Q26.9 11.05 26.6 11.7L29.15 11.1L30.85 10.9L29.55 11.95Q28.3 13.25 27.2 14.85Q26.55 15.8 26.35 16.9L26.15 18.4L26 21.85Q25.9 22.75 26.05 23.5Q18.85 27.3 8.65 23.7L6.85 23.05L7.55 22.85Q8.25 22.4 8.2 21.1L5.1 21.45" />
<path style="fill:#A37A67;fill-opacity:1" d="M5.3,-3.45Q7.95 -6.35 11.15 -7.05Q12.2 -1.15 16 0.9Q18.5 2.25 20.95 2.45L18.5 2.6Q13.55 2.25 10.25 -4.45L8.55 -3.7Q7.1 -2.9 5.8 -1.45Q2.05 2.6 3.3 9.15Q0.3 2.05 5.3 -3.45M3.35,12.4L2.2 12.75L0 13L-1.15 12.7L-1.4 12.6L-1.75 14.7L-1.3 17.2Q-2.35 15.65 -2.7 14.25Q-3.05 12.8 -2.9 10.65Q-1.6 12 -0.05 12.45Q1.5 12.9 3.3 12.4L3.35 12.4M34.05,11.35L34.25 10.2Q34.4 9.45 34.9 9.1L31.9 8.85L30.3 8.85Q32 8.25 34.1 8.15Q36.4 8.05 37.7 9.1Q35.05 9.55 34.05 11.35M31.05,6.7Q30.55 5.45 28.95 3.6Q27.35 1.7 25.5 0.75Q25.55 2.05 24.65 3.05Q24.85 1.65 24.45 0.15L24.3 -0.35L24.05 -1L24.3 -0.95Q29.5 0.75 31.85 6.05L32.05 6.4L31.05 6.7" />
<path style="fill:#231813;fill-opacity:1" d="M37.1,24.35L36.35 24.6L36.25 24.6L35.2 24.85L35.45 24.1L35.55 23.65L36.55 23.3L36.95 23.2L37.95 22.8L39.7 22.55L39.2 22.6L40.4 22.3L42.05 21.9L46.4 20.85L51.05 19.75L52.95 19.35L55.7 18.7L58.55 17.95L59.75 17.65L59.9 17.65L62.05 17Q62.9 16.75 63.9 17Q64.85 17.2 65.1 19.1L65.1 19.45Q65.2 21.4 63.55 22.05L60.6 22.8L49.35 25.75L46.4 26.45L43.2 27.2L43 26.8L42.55 26.15L43.5 25.9L46.4 25.25L57.25 22.7L57.7 22.6L63.35 21L63.7 19.4L63.6 18.7L63.1 18.05L60.75 18.6L59.55 18.85L58.55 19.05L55.8 19.7L53.35 20.25L48.15 21.55L46.4 22L37.55 24.25L37.1 24.35M34.45,24.1L34.4 24.2L34.35 24.15L34.3 24.45L34.25 24.5Q34.1 24.35 34.35 24.15L34.45 24.1M8.55,32L8.8 32.75L8.85 32.9L7.95 33.2L6.25 33.7L4.15 34.3L2.3 34.95Q2 35.5 2.3 36.25L2.35 36.5L3.05 37.1L3.65 37.25L5.65 36.75L7.75 36.1L8.95 35.7L10 35.4L10.6 36.2L7.1 37.3L4.9 38.05L3.2 38.35Q2.05 38.35 1.45 37.25L1.25 36.85Q0.9 36 1.05 35.3Q1.25 34.5 2.15 33.95L5.1 33L5.15 33L6.05 32.7L8.55 32" />
<path style="fill:#3C2C22;fill-opacity:1" d="M42.35,25.9L41.5 25.1L63.7 19.4L63.35 21L57.7 22.6L57.25 22.7L46.4 25.25L43.5 25.9L42.55 26.15L42.35 25.9M35.9,24.8L35.55 25.15Q35.4 24.95 35.25 24.9L35.2 24.85L36.25 24.6L35.9 24.8M23.05,31.25L25.25 32.15L27.25 32.35L27.5 34.65L27.15 34.65Q21.3 35.65 16.95 32.85L15.55 32L15.3 31.8L15.45 31.85L15.65 31.95Q18.6 33 19.6 33.05L18.3 31.8L20.75 31.75L22.85 31.35L23.05 31.25M9.3,34.05L9.8 35.05L9.95 35.35L10 35.4L8.95 35.7L7.75 36.1L5.65 36.75L3.65 37.25L3.05 37.1L2.35 36.5L9.3 34.05M19.8,33.2L19.8 33.05L19.6 33.05L19.8 33.2" />
<path style="fill:#574031;fill-opacity:1" d="M41.5,25.1Q39.9 23.95 37.55 24.25L46.4 22L48.15 21.55L53.35 20.25L55.8 19.7L58.55 19.05L59.55 18.85L60.75 18.6L63.1 18.05L63.6 18.7L63.7 19.4L41.5 25.1M22.85,31.35L20.75 31.75L18.3 31.8L19.6 33.05Q18.6 33 15.65 31.95L15.45 31.85L15.3 31.8Q12.3 29.65 11.3 27.9L10.85 27.05L10.5 25.8L11.25 26.1L11.85 26.3L12 26.3L12.05 24.55Q14.7 26.45 17.75 28.05L18.7 28.55Q20.7 30.15 23.05 31.25L22.85 31.35M2.35,36.5L2.3 36.25Q2 35.5 2.3 34.95L4.15 34.3L6.25 33.7L7.95 33.2L8.85 32.9L9.3 34.05L2.35 36.5M19.6,33.05L19.8 33.05L19.8 33.2L19.6 33.05" />
<path style="fill:#9C753C;fill-opacity:1" d="M34.65,25.7L35 25.25L35.2 25L35.2 24.95L35.25 24.9Q35.4 24.95 35.55 25.15L35.9 24.8L36.25 24.6L36.35 24.6L37.1 24.35L37.55 24.25Q39.9 23.95 41.5 25.1L42.35 25.9L42.55 26.15L43 26.8L43.2 27.2L43.35 28.2Q43.35 31.6 40.15 32.5L40.15 32.45L40.35 31.4L40.35 31.35L40.6 31.25Q41.75 30.65 42.05 28.9L42.05 27.55L41.95 27.35L41.6 26.7L41.35 26.45Q40.65 25.85 39.45 25.65L39.4 25.65L38.4 25.5Q36.8 25.35 36.2 25.95L36.5 26.35L36.85 27.2L36.8 27.2L36.6 27.1L35.95 27.7L35.85 27.45L35.6 26.85L35.45 26.6L34.65 25.7M34.35,24.15L34.4 24.2L34.3 24.45L34.35 24.15" />
<path style="fill:#E9CB9E;fill-opacity:1" d="M39.1,28.25L37.7 27.5L36.95 27.3L36.95 27.25L36.85 27.2L36.5 26.35L36.2 25.95Q36.8 25.35 38.4 25.5L39.4 25.65L39.45 25.65Q40.65 25.85 41.35 26.45L41.6 26.7L41.95 27.35Q41.35 28.55 39.7 28.85L39.1 28.25M35.35,28.65Q34.85 29.5 32.6 30.55L31.8 29.45Q33.25 29.25 34.75 27.8L35.6 26.85L35.85 27.45L35.95 27.7L35.35 28.65" />
<path style="fill:#D0A15B;fill-opacity:1" d="M39.7,28.85Q41.35 28.55 41.95 27.35L42.05 27.55L42.05 28.9Q41.75 30.65 40.6 31.25L40.35 31.35Q40.45 29.85 39.7 28.85" />
<path style="fill:#403311;fill-opacity:1" d="M34.4,23L33.8 22L33 21.2L32.65 20.9L31.8 20.25L31 19.8Q29.15 19 27.55 18.75L26.3 18.65L24.9 18.75L24.75 18.5L24.7 18.45L24.65 18.35L24.5 18.05L25.75 17.85Q28.9 17.7 31.2 18.8L31.3 18.85L31.5 19L32.35 19.5L32.5 19.6L33.1 20.05L33.15 20.05L35.1 22.05L35.25 22.4L35.55 23.65L35.45 24.1L35.2 24.85L35.25 24.9L35.2 24.95L35.2 25L35 25.25L34.65 25.7L34.5 25.85L32.85 27.3L32.45 27.5Q31.3 28.15 29.65 28.45L27.85 28.55L27.25 28.6L26.95 28.6L25.8 28.4L25.65 28.35L25.05 28.2L25.5 27.15L26.2 27.4Q31 28.2 34.15 24.65L34.25 24.5L34.3 24.45L34.4 24.2L34.45 24.1L34.45 23.25L34.4 23M8.4,29L8.35 29.75L6.05 29.95L6 29.95L5.15 29.6L4.65 29.3Q3.65 28.65 3.25 27.8Q2.95 27.25 2.9 26.6Q2.75 25 3.9 24Q4.4 23.55 5.25 23.2Q6.35 22.7 7.5 22.5L7.6 22.5L9.55 22.45L9.15 23.05L9 23.4L8.4 23.4L6.4 23.75Q5.2 24.15 4.7 24.6Q4.15 25 3.95 25.55Q3.75 26.1 3.85 26.5L4 27.1L4.35 27.6L4.8 28.2Q5.55 29 7.25 29L8.3 29L8.4 29M5.9,30.1L5.9 30.05L6 30L5.9 30.1" />
<path style="fill:#94722A;fill-opacity:1" d="M25.2,19.3L24.9 18.75L26.3 18.65L27.55 18.75Q29.15 19 31 19.8L31.8 20.25L32.65 20.9Q30.9 20.1 29.2 19.85L29.2 20L29.2 20.05L28.9 20.3Q28.35 20.5 28.3 20L28.3 19.9L28.3 19.8L28.35 19.75L27.8 19.7L26.45 19.85L26.45 19.9L26.65 19.95L25.55 19.85L25.5 19.65L25.2 19.3L25 19.3L25.2 19.3M22.75,19.6L24.95 19.3L24.85 19.35Q24.55 19.5 24.6 19.8L24.6 19.85L24.65 19.95L24.75 20.15L23.85 20.3L24 20.3L24.15 20.45L24.35 20.4L24.65 20.5L24.8 20.65L24.8 20.8L24.8 20.9L24.5 21.15Q23.95 21.4 23.9 20.9L23.85 20.8L23.9 20.75L21.7 20.9L22.35 19.95L22.75 19.6M26.3,22.85L26.3 22.75L26.3 22.65L26.3 22.55L26.35 22.5L26.45 22.4Q26.55 22.25 26.75 22.2L27.05 22.4L27.2 22.65L27.2 22.75L27 23L26.9 23.05L26.5 23.1L26.45 23.05L26.3 22.85M25.55,19.95L26.65 19.95L26.7 20.1L25.6 20.15L25.4 20.15L25.5 20L25.55 19.95M29.8,22.05L29.8 21.95L29.85 21.9L30.05 21.7L30.25 21.6L30.6 21.7L30.85 21.95L30.9 22.15L30.55 22.45Q29.95 22.65 29.8 22.15L29.8 22.05" />
<path style="fill:#725B18;fill-opacity:1" d="M25.45,19.85L25.2 19.3L25.5 19.65L25.55 19.85L25.45 19.85M26.45,23.05L26.5 23.1L26.9 23.05L27 23L27.2 22.75L27.2 22.65L27.05 22.4L26.75 22.2Q26.55 22.25 26.45 22.4L26.35 22.5L26.15 21.8L26.15 21.65Q28.7 21.4 27.05 21.45L26.1 21.5L25.6 20.15L26.7 20.1L26.65 19.95L26.45 19.9L26.45 19.85L27.8 19.7L28.35 19.75L28.3 19.8L28.3 19.9L28.3 20Q28.35 20.5 28.9 20.3L29.2 20.05L29.2 20L29.2 19.85Q30.9 20.1 32.65 20.9L33 21.2L33.8 22L34.4 23L33.8 23.9Q32.6 25.3 30.3 25.6L30.25 25.45Q30.15 25.1 29.75 25.15L29.6 25.25Q29.3 25.4 29.35 25.7L26.6 25.4L26.1 25.25L25.55 24.95L25.55 25L25.55 25.1L25.25 25.4Q24.7 25.55 24.65 25.05L24.6 24.95L24.65 24.85L24.8 24.7Q24.9 24.6 25.05 24.55L24.95 24.45L26.4 24.1L26.45 24.05L26.45 23.9L26.4 23.9Q25.4 24 22.9 22.55L22.35 22.25L25.25 22.6L26.3 22.85L26.45 23.05M25.55,19.95L25.5 20L25.5 19.95L25.55 19.95M29.8,22.15Q29.95 22.65 30.55 22.45L30.9 22.15L30.85 21.95L30.6 21.7L30.25 21.6L30.05 21.7L29.85 21.9L29.8 21.95L29.8 22.05L29.8 22.15M29.05,24.5L28.9 24.15L28.6 24Q28.4 24 28.3 24.15L28.15 24.3L28.1 24.4L28.15 24.5Q28.2 25 28.75 24.85L29.05 24.55L29.05 24.5M32.3,23.5L32.3 23.6Q32.35 24.05 32.9 23.9L33.2 23.6L33.2 23.5L33.05 23.25L32.75 23.05Q32.55 23.05 32.45 23.2L32.3 23.4L32.3 23.5M8.75,24.35L8.4 24.7L7.75 25.35L7.7 25.3L7.35 25.1L7.15 25.2Q6.9 25.35 6.9 25.65L6.95 25.95L7 26Q6.25 26.45 5.55 26.5L6 26.65L6.2 27L4.95 27.35L4.35 27.6L4 27.1L3.85 26.5Q3.75 26.1 3.95 25.55Q4.15 25 4.7 24.6Q5.2 24.15 6.4 23.75L8.4 23.4L9 23.4L8.75 24.35M5.3,25.25L5.2 25.4L5.15 25.5L5.15 25.6Q5.25 26.1 5.75 25.95L6.05 25.65L6.1 25.55L5.95 25.3L5.6 25.1Q5.45 25.1 5.3 25.25" />
<path style="fill:#5A470F;fill-opacity:1" d="M25.7,26.5L26.1 25.25L26.6 25.4L29.35 25.7Q29.3 25.4 29.6 25.25L29.75 25.15Q30.15 25.1 30.25 25.45L30.3 25.6Q32.6 25.3 33.8 23.9L34.4 23L34.45 23.25L34.45 24.1L34.35 24.15Q34.1 24.35 34.25 24.5L34.15 24.65Q31 28.2 26.2 27.4L25.5 27.15L25.7 26.5M26.4,23.9L26.45 23.9L26.45 24.05L26.4 24.1L26.4 23.9M29.05,24.55L28.75 24.85Q28.2 25 28.15 24.5L28.1 24.4L28.15 24.3L28.3 24.15Q28.4 24 28.6 24L28.9 24.15L29.05 24.5L29.05 24.55M32.3,23.4L32.45 23.2Q32.55 23.05 32.75 23.05L33.05 23.25L33.2 23.5L33.2 23.6L32.9 23.9Q32.35 24.05 32.3 23.6L32.3 23.5L32.3 23.4M8.3,29L7.25 29Q5.55 29 4.8 28.2L4.35 27.6L4.95 27.35L6.2 27L6 26.65L5.55 26.5Q6.25 26.45 7 26L6.95 25.95L6.9 25.65Q6.9 25.35 7.15 25.2L7.35 25.1L7.7 25.3L7.75 25.35L8.4 24.7L8.75 24.35L8.7 24.6L8.9 25.8L9.05 25.85L8.7 27L8.35 28.85L8.4 29L8.3 29M5.6,25.1L5.95 25.3L6.1 25.55L6.05 25.65L5.75 25.95Q5.25 26.1 5.15 25.6L5.15 25.5L5.2 25.4L5.3 25.25Q5.45 25.1 5.6 25.1" />
<path style="fill:#785743;fill-opacity:1" d="M17.75,28.05Q14.7 26.45 12.05 24.55L12 26.3L11.85 26.3L11.25 26.1L10.5 25.8L10.85 27.05L9.9 25Q9.8 24.4 10.75 23.15Q11.65 21.8 12.5 22.2Q12.95 22.2 13.3 22.7L16 25.9L18.7 28.55L17.75 28.05" />
<path style="fill:#000000;fill-opacity:1" d="M28.5,33.9L28.4 33.15L28.45 32.7L28.6 32.35L28.5 32.15L28.75 32.05L30.2 31.6L30.3 31.5L32.35 30.65L32.6 30.55Q34.85 29.5 35.35 28.65L35.95 27.7L36.6 27.1L36.8 27.2L36.85 27.2L36.95 27.25L36.95 27.3L37.7 27.5L39.1 28.25L39.7 28.85Q40.45 29.85 40.35 31.35L40.35 31.4L40.15 32.45L40.15 32.5L40.05 33L39.95 33.2Q39.6 34.25 38.2 35.1L37 35.75Q35.15 36.5 33.15 36.35Q30.45 36.15 28.8 34.3L28.7 34.2L28.5 33.9M24.05,36.7L24.55 36.5Q26.9 36 28.45 34.65L28.45 35.1L28.65 35.2L28.75 35.35L30.05 36.05L32.2 37.35Q33.25 38.05 33.95 38.75Q34.85 39.65 35.2 40.55L35.4 41.35L35.45 41.35L35.65 41.5L36.15 42.35Q36.65 43.1 36.8 45L36.7 47.15L36.5 47.8Q37.5 48.65 37.65 49.9Q37.7 51 37.25 51.95L36.6 52.8L35.8 53.55L35.55 53.75L35.25 54Q34.15 54.8 32.85 55.2L29.25 55.5Q27.15 55.25 26.1 54.6L26.05 54.55Q24.95 53.85 24.6 52.85Q24.25 51.95 24.65 50.9L25.2 49.7L25.3 49.15L24.85 47.35L23.75 44.75L23.55 44.7Q22.3 45.7 20.45 45.95L20.4 46.75Q21.8 47 21.75 49.45Q21.7 52 17.95 52.85L14.8 53.2L13.6 53Q11.85 52.45 11.25 51.25Q10.6 49.95 11.05 48.7Q11.5 47.35 12.4 46.95Q11.85 45.75 12.75 44.1L12.5 43.95L12 43.4L11.65 42.75L11.35 42.3L11.05 40.95L11 40.2Q11 39.4 11.15 38.75L11.35 38L11.7 37.4L11.6 37.35L11.8 37.3Q12.25 36.9 13.3 37.05L13.6 37.15L14.2 37.25L14.2 37.3L15.4 37.5L15.6 37.5L17.05 37.5L18.3 37.55L19 37.6Q21.7 37.6 24.05 36.7M18.4,38.5L14.9 38.4L12.75 37.95L12.5 38L12.15 38.75Q11.9 39.6 12.05 40.55L12.2 41.3L12.7 42.65Q13.1 43.3 14 43.8L14 43.85L15.05 44.35L15.4 44.5L18 45L21.3 44.75L23.1 44.1L23.75 43.75Q24 43.75 24.2 44Q29.45 43.95 34.35 41.65L32.8 39.6L31.95 38.75Q30.15 37.15 27.7 36.25Q26.15 37.4 24 37.85L21.8 38.25L20.55 38.4L18.4 38.5M17.55,47.75Q18.65 47.35 19.25 46.8Q19.8 46.25 19.6 46L18.05 45.9L15 45.35L14.9 45.3Q14.2 45.1 13.75 44.75L13.6 44.85Q13.25 45.4 13.2 46L13.2 46.75L14.4 47.45Q16.1 48.25 17.55 47.75M13.8,51.9L16.8 52.15Q18.65 51.8 20 50.7Q21.35 49.6 20.8 48.1Q20.75 47.7 20.5 47.6L19.85 47.6Q17.6 49 15.95 48.95L15.85 48.9L14.6 48.7Q13.6 48.4 12.75 47.75Q11.85 48.45 12 49.35L12.4 50.75L13.8 51.85L13.8 51.9M39.25,31.85L39.25 30.85L39.2 30.4Q39.1 29.55 37.75 28.9L37.3 28.75L36.8 28.55L36.75 28.55L36.8 28.85L36 29.85L35.15 30.65L33.65 31.6L33.45 31.7L33.25 31.75L29.6 33.15Q30.5 34.8 32.65 35.2L35.85 35.05L36.15 34.95L38.2 33.8L39.15 32.25L39.25 31.85M35.75,46.35L35.85 45.3Q35.85 43.65 35.05 42.3L34.95 42.2L34.65 42.45Q32.5 43.9 29.5 44.65L29.25 44.7L28.2 44.9L24.9 44.95L25.65 46.1L26.5 48.95L32.25 49.2Q34.7 48.3 35.3 47.7L35.45 47.3L35.75 46.35M29,50.5L28.9 50.5L27.55 50.25L26.25 50Q24.9 51.7 25.8 53.05Q26.5 54.15 28.25 54.45L29.35 54.6L33.2 54.1L33.4 54.05L33.55 54Q35.45 53.25 36.25 51.9L36.4 51.6L36.8 50.35Q36.85 49.7 36.55 49.15L35.75 48.3L35.75 48.4Q33.4 50.35 30.65 50.55L29 50.5" />
<path style="fill:#434242;fill-opacity:1" d="M12.2,41.3L12.7 39.7Q13.05 39.5 16.25 39.7L19 39.2L19.5 38.9L20.35 39.1L23.85 39.7Q23.75 40.45 22.15 41.25Q20.4 42.1 18.5 42.25L14.25 41.9L12.2 41.3M14.4,47.45L13.2 46.75L13.2 46Q13.25 45.4 13.6 44.85L13.75 44.75Q14.2 45.1 14.9 45.3Q14.4 46.2 14.4 47.45M14.45,49.1L13.85 49.85L13.65 50.95Q13.65 51.45 13.8 51.85L12.4 50.75L12 49.35Q11.85 48.45 12.75 47.75Q13.6 48.4 14.6 48.7L15.85 48.9L15.95 48.95L14.45 49.1M39.25,31.85L38.35 31.95L36.85 31.85L35.85 31.65L36.05 32.4L34.4 31.9L33.65 31.6L35.15 30.65L35.85 30.35L37.2 29.65Q38.7 30.3 38.85 30.5L39.25 30.85L39.25 31.85M33.6,44.4Q34.9 44.55 35.75 46.35L35.45 47.3L34.25 47.85Q32.95 48.5 32.05 48.55Q30.6 48.65 29.45 47.75Q28.25 46.65 28.2 44.9L29.25 44.7L29.5 44.65L33.6 44.4M29.65,53Q29.1 52.25 29 50.5L30.65 50.55L31.15 50.75L32.1 50.95L33.55 50.5Q34.4 50.05 34.8 50.05Q35.25 50 35.85 50.7L36.4 51.6L36.25 51.9Q35.45 53.25 33.55 54L33.4 54.05Q30.65 54.2 29.65 53" />
<path style="fill:#252525;fill-opacity:1" d="M20.55,38.4L21.8 38.25L24 37.85Q26.15 37.4 27.7 36.25Q30.15 37.15 31.95 38.75L32.8 39.6L34.35 41.65Q29.45 43.95 24.2 44Q24 43.75 23.75 43.75L23.1 44.1L21.3 44.75L18 45L15.4 44.5L15.05 44.35L14 43.85L14 43.8Q13.1 43.3 12.7 42.65L12.2 41.3L14.25 41.9L18.5 42.25Q20.4 42.1 22.15 41.25Q23.75 40.45 23.85 39.7L20.35 39.1L19.5 38.9L18.95 38.75L18.4 38.5L20.55 38.4M14.9,45.3L15 45.35L18.05 45.9L19.6 46Q19.8 46.25 19.25 46.8Q18.65 47.35 17.55 47.75Q16.1 48.25 14.4 47.45Q14.4 46.2 14.9 45.3M13.8,51.85Q13.65 51.45 13.65 50.95L13.85 49.85L14.45 49.1L15.95 48.95Q17.6 49 19.85 47.6L20.5 47.6Q20.75 47.7 20.8 48.1Q21.35 49.6 20 50.7Q18.65 51.8 16.8 52.15L13.8 51.9L13.8 51.85M39.15,32.25L38.2 33.8L36.15 34.95L35.85 35.05L32.65 35.2Q30.5 34.8 29.6 33.15L33.25 31.75L33.45 31.7L33.65 31.6L34.4 31.9L36.05 32.4L35.85 31.65L36.85 31.85L38.35 31.95L39.25 31.85L39.15 32.25M29.45,47.75Q30.6 48.65 32.05 48.55Q32.95 48.5 34.25 47.85L35.45 47.3L35.3 47.7Q34.7 48.3 32.25 49.2L26.5 48.95L25.65 46.1L24.9 44.95L28.2 44.9Q28.25 46.65 29.45 47.75M33.4,54.05L33.2 54.1L29.35 54.6L28.25 54.45Q26.5 54.15 25.8 53.05Q24.9 51.7 26.25 50L27.55 50.25L28.9 50.5L29 50.5Q29.1 52.25 29.65 53Q30.65 54.2 33.4 54.05" />
<path style="fill:#565656;fill-opacity:1" d="M19,39.2L16.25 39.7Q13.05 39.5 12.7 39.7L12.2 41.3L12.05 40.55Q11.9 39.6 12.15 38.75L12.5 38L12.75 37.95L14.9 38.4L18.4 38.5L18.95 38.75L19.5 38.9L19 39.2M29.5,44.65Q32.5 43.9 34.65 42.45L34.95 42.2L35.05 42.3Q35.85 43.65 35.85 45.3L35.75 46.35Q34.9 44.55 33.6 44.4L29.5 44.65M35.85,50.7Q35.25 50 34.8 50.05Q34.4 50.05 33.55 50.5L32.1 50.95L31.15 50.75L30.65 50.55Q33.4 50.35 35.75 48.4L35.75 48.3L36.55 49.15Q36.85 49.7 36.8 50.35L36.4 51.6L35.85 50.7" />
<path style="fill:#231713;fill-opacity:1" d="M9.05,25.85L8.9 25.8L8.7 24.6L8.75 24.35L9 23.4L9.15 23.05L9.55 22.45L9.8 22.2Q10.6 21.3 12.1 20.95L12.9 20.85L13.2 21.1L13.2 21.15L13.7 21.7L14.1 22.1L15.35 23.4L19.05 27.2Q20.6 28.8 22.5 29.7L23.8 30.3L26.9 31.05L27.1 31Q27.9 31.1 28.45 31.55L28.55 31.7L28.4 31.85L28.35 31.9L28.45 32.7L28.4 33.15L28.5 33.9L28.45 34.6L28.45 34.65Q26.9 36 24.55 36.5L24.95 36.35L22.05 36.1Q17.5 35.1 14.15 32.4L11.65 30L11.1 29.4L9.7 27.2L9.05 25.85M11.3,27.9Q12.3 29.65 15.3 31.8L15.55 32L16.95 32.85Q21.3 35.65 27.15 34.65L27.5 34.65L27.25 32.35L25.25 32.15L23.05 31.25Q20.7 30.15 18.7 28.55L16 25.9L13.3 22.7Q12.95 22.2 12.5 22.2Q11.65 21.8 10.75 23.15Q9.8 24.4 9.9 25L10.85 27.05L11.3 27.9" />
<path style="fill:#803F2C;fill-opacity:1" d="M25.55,19.85L26.65 19.95L25.55 19.95L25.5 19.95L25.45 19.85L25.55 19.85M13.7,21.7L13.2 21.15L13.2 21.1L13.75 20.7Q14.15 20.45 14.5 20.3Q16.65 19.2 18.95 18.9L24.75 18.5L24.9 18.75L25.2 19.3L25 19.3L24.95 19.3L22.75 19.6L22.35 19.95L20.25 19.95L18.25 20.35Q15.95 20.95 14.1 22.1L13.7 21.7M25.8,28.4L26.95 28.6L27.3 29.3L28.5 30.5Q29.15 31.1 30.3 31.5L30.2 31.6L28.75 32.05L28.4 31.85L28.55 31.7L28.45 31.55Q27.9 31.1 27.1 31L26.9 31.05L25.8 28.4M11.8,37.3L10.6 36.2L10 35.4L9.95 35.35L9.8 35.05L9.3 34.05L8.85 32.9L8.8 32.75L8.55 32L8.5 31.85L8.4 30.6L8.35 29.8L8.35 29.75L8.4 29L8.35 28.85L8.7 27L9.05 25.85L9.7 27.2L9.5 28.15Q9.4 29.55 9.6 30.8Q9.75 32.05 10.3 33.1L10.6 33.65L11.95 35.95Q12.4 36.6 13.3 37.05Q12.25 36.9 11.8 37.3M6,30L5.9 30.05Q5.65 31.25 5.95 32.45L6.05 32.7L5.15 33L4.95 32.4Q4.6 31.05 5.05 29.75L5.15 29.6L6 29.95L6.05 29.95L6 30" />
<path style="fill:#D0945B;fill-opacity:1" d="M26.9,31.05L23.8 30.3L22.5 29.7Q20.6 28.8 19.05 27.2L15.35 23.4L16.5 23L18.2 22.55L19.05 22.4L17.95 22.5L23.3 21.95L24.05 22.1L22.35 22.2L22.35 22.25L22.9 22.55Q25.4 24 26.4 23.9L26.4 24.1L24.95 24.45L25.05 24.55Q24.9 24.6 24.8 24.7L24.65 24.85L24.6 24.95L24.65 25.05Q24.7 25.55 25.25 25.4L25.55 25.1L25.55 25L25.55 24.95L26.1 25.25L25.7 26.5L25.5 27.15L25.05 28.2L25.65 28.35L25.8 28.4L26.9 31.05M28.5,30.5L27.3 29.3L26.95 28.6L27.25 28.6L27.85 28.55L29.65 28.45Q31.3 28.15 32.45 27.5L32.85 27.3L34.5 25.85L34.65 25.7L35.45 26.6L35.6 26.85L34.75 27.8Q33.25 29.25 31.8 29.45L32.6 30.55L32.35 30.65L30.3 31.5Q29.15 31.1 28.5 30.5M19,37.6Q17.85 37.35 17.45 37.1L15.4 36L13.95 35.1Q13.2 34.8 11.75 33.25L11.05 32.55L9.6 30.8Q9.4 29.55 9.5 28.15L9.7 27.2L11.1 29.4L11.65 30L14.15 32.4Q17.5 35.1 22.05 36.1L24.95 36.35L24.55 36.5L24.05 36.7Q21.7 37.6 19 37.6M6.05,32.7L5.95 32.45Q5.65 31.25 5.9 30.05L5.9 30.1L6 30L6.05 29.95L8.35 29.75L8.35 29.8L8.4 30.6L8.5 31.85L8.55 32L6.05 32.7" />
<path style="fill:#ECD2AB;fill-opacity:1" d="M24.65,18.35Q23.65 18.2 24 18.15L24.5 18.05L24.65 18.35M25.45,19.85L25.5 19.95L25.5 20L25.4 20.15L25.6 20.15L26.1 21.5L27.05 21.45Q28.7 21.4 26.15 21.65L26.15 21.8L26.35 22.5L26.3 22.55L26.3 22.65L26.3 22.75L26.3 22.85L25.25 22.6L22.35 22.25L22.35 22.2L24.05 22.1L23.3 21.95L17.95 22.5L19.05 22.4L18.2 22.55L16.5 23L15.35 23.4L14.1 22.1Q15.95 20.95 18.25 20.35L20.25 19.95L22.35 19.95L21.7 20.9L23.9 20.75L23.85 20.8L23.9 20.9Q23.95 21.4 24.5 21.15L24.8 20.9L24.8 20.8L24.8 20.65L24.65 20.5L24.35 20.4L24.15 20.45L24 20.3L23.85 20.3L24.75 20.15L24.65 19.95L24.6 19.85L24.6 19.8Q24.55 19.5 24.85 19.35L24.95 19.3L25 19.3L25.2 19.3L25.45 19.85M11.05,32.55L11.75 33.25Q13.2 34.8 13.95 35.1L15.4 36L17.45 37.1Q17.85 37.35 19 37.6L18.3 37.55L17.05 37.5L15.6 37.5L15.4 37.5L14.2 37.3L14.2 37.25L13.6 37.15L13.3 37.05Q12.4 36.6 11.95 35.95L10.6 33.65L10.3 33.1Q9.75 32.05 9.6 30.8L11.05 32.55" />
<path style="fill:#535353;fill-opacity:1" d="M36,29.85L36.8 28.85L36.75 28.55L36.8 28.55L37.3 28.75L37.75 28.9Q39.1 29.55 39.2 30.4L39.25 30.85L38.85 30.5Q38.7 30.3 37.2 29.65L35.85 30.35L35.15 30.65L36 29.85" />
<path style="fill:#3C3532;fill-opacity:1" d="M62.65,12.5L63.3 12.6Q65.8 10.55 68.6 9.75Q64.5 7.7 58.8 8.45Q54.15 8.95 49.9 10.3L47.95 11Q42.75 12.8 38.15 15.8Q34.85 17.95 33.45 19.2Q32.65 19.65 32.5 20.05L34.2 19.85L38.1 19.55L40.05 19.8Q39.05 20.4 38.8 21L37.9 20.9L32.5 21.1Q30.7 21.1 29.65 21.55L29.65 21.5L29.55 21.4L29.65 21.25Q29.65 21 30 20.75Q29.85 20.6 30.05 20.7Q31.1 19.35 35.65 16.2Q38.25 14.25 41.9 12.6Q43.85 11.5 46 10.85Q51.7 8.4 57.2 7.75L58.25 7.65L61.55 7.45L64 7.6L66.3 7.9Q70.25 8.8 70.6 10.1Q67.1 11 66.15 11.75Q65.05 12.45 64.65 13.05Q64.15 13.4 64.15 13.65Q64.05 12.95 62.65 12.5" />
<path style="fill:#000000;fill-opacity:1" d="M48.55,15.05Q52.7 13.25 55.9 12.7L57.3 12.5L58.7 12.5L61.8 12.45L62.35 12.45L62.55 12.45L62.65 12.5Q64.05 12.95 64.15 13.65L63.9 13.95L63.75 13.8Q63.3 13.45 62.8 13.4L62.25 13.45L61.75 13.3L61.2 13.2L58.3 13.25L57.5 13.3L55.4 13.6Q52.8 14.1 49.95 15.2Q45.65 16.75 41 20.05L40.65 20.05Q40.15 19.95 39.6 20.45Q39.05 20.55 38.9 21.05L38.8 21Q39.05 20.4 40.05 19.8Q42.75 17.35 48.55 15.05M57.6,20.8L58.5 20.25L58.9 19.8L59.05 19.8Q59.9 19.35 60.55 19.25L60.65 18.6L60.65 18.5Q60.55 18.25 60.7 18.2L61.1 17.45L62.5 16.35L62.05 17.9L68.9 17.15Q71.1 17 71.3 17.5L70.85 18.3Q70.55 18.35 70.3 18.7L63.85 23.05Q63.5 23.05 63.35 23.3L65.45 23.55Q67.25 23.4 66.55 24.7L63.9 27.65L63.6 27.4L62.8 26.75L64.9 24.85Q62.85 24.55 61.9 24.1L61.6 24L61.05 24.35Q60.85 24.25 60.65 24.5Q60.3 24.15 59.85 24.1Q59.3 23.65 58.75 23.5L59.9 23.05L60.6 22.85L60.65 22.85Q60.8 22.7 60.95 22.65L61.15 21.9L61.05 21.6L61.05 21.45L61 21.35Q60.75 20.35 60.45 20.55L60.3 20.5L57.85 21.4L57.65 20.95L57.6 20.8M44.8,33.85L48.55 33.55L53.35 32.3Q57.3 30.95 60.7 28.65L61.85 29.4Q58.6 31.75 55.2 32.95Q49.7 34.8 46.2 35.35L44.5 35.4L43.8 35.35L44.8 33.85M42.15,33.85L41.15 35.15L38.25 34.45Q38 34.2 37.9 34.25Q36.1 33.2 39.25 31.95L42.2 29.65L42.05 28.7Q41.9 26.75 42.6 26.05L43.35 25.25L42.75 23.75L43.05 23.95L44.75 24.4L44.8 24.45L44.85 24.6Q44.95 24.4 45.3 24.45L45.35 24.5L47.2 24.4L47.3 24.4Q47.15 24.4 47.3 24.6L47.25 25Q46.2 25.2 45.2 25.7Q45.15 25.35 45.15 25.7L44.3 25.95Q42.95 27.35 43.95 28L43.95 28.15L44.45 28.3L44.55 28.35Q44.85 28.15 45.55 28.1L44.5 29.25L43.65 30.4L43.3 30.4Q41.85 32 39.8 33.1L41 33.7L41.4 33.75L42.15 33.85M62.9,21.7L64.65 20.5L64.7 20.45L64.8 20.45L65.2 20.25Q65.7 19.9 66.2 19.7L68.35 18.45L68.35 18.35L61.95 19.3L62.7 20.4L62.9 21.7" />
<path style="fill:#3A3634;fill-opacity:1" d="M61.1,17.45L60.7 18.2Q60.45 18.2 60.5 18.35L60.5 18.45L59.05 19.8L58.9 19.8L58.5 20.25L57.6 20.8L56.8 19.95L56.95 19.8Q56.9 19.65 57 19.7Q57.05 19.25 56.9 19.25L56.4 19.15L55.95 19.35L55.2 19.2L54.95 19.2L53.95 19.25Q53.85 16.8 55.1 14.45L55.4 13.6L57.5 13.3L58.3 13.25L61.2 13.2Q60.75 13.8 60.55 14.6L61.95 13.65Q62 13.5 62.25 13.45L62.8 13.4Q63.3 13.45 63.75 13.8L63.9 13.95L64.15 14.65L63.75 15.4L62.5 16.35L61.1 17.45M62.15,26.5L62.35 26.6L62.8 26.75L63.6 27.4L63.9 27.65L64.05 28L63.85 29L63.15 29.75L62.4 29.65L61.85 29.4L60.7 28.65L60.2 28.4L60 28.45L59.85 28.55L59.85 28.6L59.8 28.6L58.55 28.35L58.15 28.25L56.9 27.65Q56.95 27.45 57.15 27.4L57.35 27.05Q58.1 25.6 58.3 24L58.4 23.35L58.75 23.5Q59.3 23.65 59.85 24.1Q60.3 24.15 60.65 24.5L61.05 24.9L61.45 25.65L61.5 26.1L61.5 26.15L62.15 26.5M43.8,35.35L42.65 37L41.9 37.55L41.5 37.55L40.9 37.35Q40.4 37.05 40.5 36.45Q40.55 35.85 40.9 35.5L41.15 35.15L42.15 33.85L42.35 33.6L43.05 32.55L43 32.05Q42.95 31.65 43.4 31.1L43.65 30.4L44.5 29.25L45.55 28.1L46.45 27.15Q46.5 26.95 46.7 26.95Q46.8 27.7 47.4 27.8L47.15 27.9Q46.85 28.2 46.85 28.7L46.75 28.75Q46.6 28.8 46.7 29.05L46.9 29.3L47.3 29.35Q47.25 29.25 47.4 29.3L47.75 29.15L47.75 29.25L48.9 29.35L49.15 29.25L48.55 30.15L48.1 30.8L46.6 32.6Q46.3 32.6 46.4 32.8L45.15 33.8L44.8 33.85L43.8 35.35M49.55,21.9Q49.4 22.05 49.4 22.35L48.05 22L47.95 22L47.25 22L46.85 22.35L46.85 22.45L46.75 23.05L46.85 23.15L47.05 23.25L47.3 23.3L47.5 23.3Q47.2 23.45 47.3 23.85L47.3 24.4L47.2 24.4L45.35 24.5L45.3 24.45Q44.9 24.25 44.8 24.45L44.75 24.4L43.05 23.95L42.75 23.75L42.25 23.45L38.75 23.15Q38.15 23.05 38.25 22.7Q38.15 22.15 38.6 21.6L38.9 21.05Q39.05 20.55 39.6 20.45Q40.15 19.95 40.65 20.05L41 20.05L43.75 20.25Q44 19.95 44.6 19.9L46.25 19.85Q47.15 19.85 48.35 20.35Q48.9 20.5 48.95 21.25L49.8 21.55L49.55 21.9M59.45,16.35Q59.1 16.4 59.1 16.75Q59 16.65 59.05 16.85L58.95 17.1L59.05 17.3L59.3 17.4L59.55 17.45L60.15 17.15L60.8 16.7L62.75 15.2L63.15 14.75L63.1 14.35L62.65 14.2L62.15 14.3L62.05 14.45L60.3 15.65L60.25 15.7L59.45 16.35M40.65,21L40 21.1Q39.75 21.1 39.7 21.25L39.5 21.65Q39.3 21.8 39.4 22Q39.45 22.25 39.9 22.3L42.35 22.55L43 22.55L43.85 22.35L44 22.15L44.2 21.95L44.35 21.7L44.2 21.5L44.2 21.35Q43.95 21.05 43.75 21.2L43.7 21.15L42.75 21.1L40.65 21M46.65,21.55L46.95 21.25Q47.35 20.9 47.9 21.05L47.7 20.9L46.9 20.7L46.85 20.7L45.55 20.5L45.15 20.5L45.3 20.7L45.4 20.9L45.45 20.95L45.45 21.2L46.4 21.4L46.5 21.5Q46.55 21.35 46.65 21.55M45.05,22.55L45.8 22.65Q45.85 22.4 46.05 22.3L46.35 21.9L45.7 21.7L45.35 21.65L45.15 22.05L44.9 22.45L45.05 22.55M57.15,18.05L57.3 17.9L58 17.3Q57.95 17.1 58.05 17.05L58.05 16.95L58.05 16.75L58.25 16.45Q58.05 16.45 57.95 16.65Q57.1 17.05 56.85 17.4L56.8 17.5L56.75 17.5L56 18.25Q55.9 18.25 55.95 18.4Q56.15 18.15 56.6 18.2L57.05 18.25L57.15 18.05M57.9,17.75L57.35 18.2Q57.25 18.25 57.3 18.35Q57.35 18.3 57.6 18.55L57.85 18.85L58.5 18.3L58.6 18.15L58.35 17.9L58.15 17.6L57.9 17.75M58,19.1L58.05 19.5L57.95 19.95Q57.95 19.85 58.25 19.75Q58.4 19.5 58.55 19.55L59.75 18.4L59.3 18.3L58.9 18.3L58.75 18.5L58.15 19.05Q57.95 19 58 19.1M60.25,25.7L60.35 25.55L60.35 25.6L60.4 25.6L60.7 25.65L60 24.9L59.9 24.85L58.9 24.3L58.95 24.6Q58.85 24.8 58.9 25.25Q58.9 25.1 59 25.3L59.6 25.6L59.65 26.1L60.1 25.75L60.1 25.7L60.25 25.7M58.8,25.55L58.75 25.9L58.45 26.4L59.05 26.55L59.35 26.05L58.8 25.55M58.55,27.75L58.8 27.75L59.35 27.8L59.2 27.3L59.3 26.7Q59.15 26.65 59.1 26.8L58.1 26.75Q57.85 26.75 57.75 26.95L57.35 27.05L58.55 27.75M60.85,27.8L60.9 27.8L62.4 28.75L62.6 28.8L62.9 28.9Q63.05 28.7 63.25 28.65Q63.15 28.35 63.3 28.15L63.3 28.1L62.85 27.75L61.5 26.9L60.95 26.5L60.7 26.45L60.55 26.45L60.45 26.45Q60.05 26.5 60 26.7L59.9 26.7L60 27.1L60.15 27.3L60.35 27.45L60.75 27.75L60.85 27.8M45.95,30.3L45.75 30.1Q45.15 30.75 45.35 30.9Q45.5 31.2 45.85 31.15L46.45 30.65L45.95 30.3M47.1,30.75L46.75 30.7L45.65 31.55L45.6 31.55L45.8 32.1L45.65 32.6L46.4 32.05L47.55 30.65L47.1 30.75M44.7,31.15L45.05 31.2L45.1 30.7Q45.1 30.3 45.5 30Q45.45 29.75 45.65 29.8L45.6 29.15L45.6 28.95Q45.2 29.25 44.55 30.1Q44.4 30 44.45 30.15Q44 30.8 43.9 31.4L44.15 31.35Q44.2 31.1 44.55 31.1L44.7 31.15M43.3,33.5L41.95 35.2L41.8 35.35L41.45 36.05Q41.35 36.3 41.6 36.45L42 36.4L42.55 35.9L44 33.75L44.15 33.75L44.55 33.05L44.7 32.85L44.9 32.35L44.9 31.9L44.8 31.85Q44.55 31.8 44.4 32L44.2 32.2Q43.95 32.2 44 32.4Q43.9 32.3 43.95 32.55L43.3 33.4L43.3 33.5" />
<path style="fill:#9C9C9C;fill-opacity:1" d="M64.25,20.7Q64 19.6 65.9 19.6L65.2 20.25L64.8 20.45L64.7 20.45L64.65 20.5L64.25 20.7M61.75,13.3L62.25 13.45Q62 13.5 61.95 13.65L60.55 14.6Q60.75 13.8 61.2 13.2L61.75 13.3M60.5,18.35Q60.45 18.2 60.7 18.2Q60.55 18.25 60.65 18.5L60.5 18.35M62.35,26.6L63.25 25.7Q62 25.25 61.3 24.5L61.05 24.35L61.6 24L61.9 24.1Q62.85 24.55 64.9 24.85L62.8 26.75L62.35 26.6M53.35,32.3L57.05 30.3L59.8 28.6L59.85 28.6L59.85 28.55L60 28.45L60.2 28.4L60.7 28.65Q57.3 30.95 53.35 32.3" />
<path style="fill:#E0D8D4;fill-opacity:1" d="M61.85,14.85L62.15 14.6L62.45 14.45L62.6 14.45L62.8 14.45L62.85 14.6L62.9 14.8L62.85 14.8L62.7 14.95L62.45 15.1L62.4 14.9L62.45 14.8Q62.15 14.75 61.9 14.95L61.75 15L61.45 15.25L61.4 15.2Q61.4 15.1 61.85 14.9L61.85 14.85M45.4,20.9L45.3 20.7L45.4 20.7L45.6 20.75L45.55 20.95L45.45 20.95L45.4 20.9M40.9,21.55L40.5 21.6L40.35 21.6Q40.2 21.65 40.3 21.85L40.3 21.95L40.05 21.95L39.85 21.95L39.75 21.8L39.75 21.6L40.05 21.3Q40.1 21.15 40.25 21.3Q40.25 21.1 40.45 21.3L41 21.25L41.35 21.45L41.35 21.5L40.9 21.55M47.95,22.35L48.2 22.4L48.65 22.55L48.65 22.6L48.15 22.6L47.8 22.6L47.55 22.6L47.5 22.8L47.6 23.05L47.35 22.95L47.25 22.95L47.05 22.8L47.05 22.7Q46.95 22.5 47.1 22.5L47.4 22.25Q47.4 22.15 47.5 22.2L47.45 22.2L47.8 22.35L47.95 22.35M47.5,29L47.5 29.05L47.25 29L47.15 29L47.1 29L47.05 28.9L47.1 28.7L47.2 28.5Q47.15 28.35 47.45 28.1Q47.45 27.85 47.7 27.85Q47.45 28.45 47.55 28.9L47.5 29M58.05,16.95L58.05 17.05L57.95 17.1L57.9 16.9L58 16.8L58.05 16.75L58.05 16.95M56.4,19.65L56.2 19.5L56.25 19.5L56.2 19.45L56.4 19.5Q56.6 19.35 56.65 19.5L56.75 19.65L56.75 19.75L56.65 19.8L56.4 19.65M60.1,25.7Q59.9 25.5 59.75 25.55L59.75 25.5L59.4 25.15Q59.35 24.9 59.5 25L59.6 25L59.7 25.05L60.35 25.55L60.25 25.7L60.1 25.7M44.55,31.1Q44.2 31.1 44.15 31.35Q44.05 31.2 44.25 31.1L44.75 30.15L44.8 30.1Q44.85 29.85 44.95 30.05Q44.95 29.8 45.2 30L44.9 30.6Q44.65 30.85 44.7 31.15L44.55 31.1M42.65,34.6L42.7 34.7L42.45 35.1Q42.35 35.1 42.4 35.25L42.2 35.6L42.45 35.6L42.35 35.8L42.15 36.05L41.95 36.15L41.75 36.15Q41.6 35.95 41.75 35.9L41.7 35.75L41.9 35.5L42.2 35.25Q42.1 35.05 42.35 35.05L42.65 34.6M62.95,28.6L62.8 28.65L62.75 28.65L62.55 28.6L62.4 28.45Q62.4 28.35 62.55 28.4Q62.6 28.2 62.7 28.3L62.4 27.95L62.05 27.7Q62.1 27.6 62.45 27.85L62.75 27.95L63.05 28.15L63 28.3L63.05 28.35L63.1 28.5L62.95 28.6" />
<path style="fill:#ACA49F;fill-opacity:1" d="M55.95,19.35L56.4 19.15L56.9 19.25Q57.05 19.25 57 19.7Q56.9 19.65 56.95 19.8L56.8 19.95L56.65 19.8L56.75 19.75L56.75 19.65L56.65 19.5Q56.6 19.35 56.4 19.5L56.2 19.45L56.25 19.5L56.2 19.5L55.95 19.35M61.85,14.9Q61.4 15.1 61.4 15.2L61.45 15.25L61.75 15L61.9 14.95Q62.15 14.75 62.45 14.8L62.4 14.9L62.45 15.1L62.7 14.95L62.85 14.8L62.9 14.8L62.85 14.6L62.8 14.45L62.6 14.45L62.45 14.45L62.15 14.6L61.85 14.85L61.85 14.9M60.35,16.1L60.4 15.85L60.3 15.9L60.25 15.7L60.3 15.65L62.05 14.45L62.15 14.3L62.65 14.2L63.1 14.35L63.15 14.75L62.75 15.2L60.8 16.7L60.35 16.1M42.75,21.1L42.7 21.3L42.6 21.3L42.7 21.65L42.35 22.4L42.35 22.55L39.9 22.3Q39.45 22.25 39.4 22Q39.3 21.8 39.5 21.65L39.7 21.25Q39.75 21.1 40 21.1L40.65 21L42.75 21.1M45.15,20.5L45.55 20.5L46.85 20.7L46.9 20.7L46.8 20.8Q46.45 20.75 46.6 20.95Q46.45 20.95 46.55 21.2Q46.45 21.15 46.5 21.5L46.4 21.4L45.45 21.2L45.45 20.95L45.55 20.95L45.6 20.75L45.4 20.7L45.3 20.7L45.15 20.5M41.35,21.5L41.35 21.45L41 21.25L40.45 21.3Q40.25 21.1 40.25 21.3Q40.1 21.15 40.05 21.3L39.75 21.6L39.75 21.8L39.85 21.95L40.05 21.95L40.3 21.95L40.3 21.85Q40.2 21.65 40.35 21.6L40.5 21.6L40.9 21.55L41.35 21.5M47.5,23.3L47.3 23.3L47.05 23.25L46.85 23.15L46.75 23.05L46.85 22.45L46.85 22.35L47.25 22L47.95 22L48.05 22L49.4 22.35L49.2 22.8Q48.4 22.85 47.85 23.15Q47.5 23.15 47.5 23.3M47.8,22.35L47.45 22.2L47.5 22.2Q47.4 22.15 47.4 22.25L47.1 22.5Q46.95 22.5 47.05 22.7L47.05 22.8L47.25 22.95L47.35 22.95L47.6 23.05L47.5 22.8L47.55 22.6L47.8 22.6L48.15 22.6L48.65 22.6L48.65 22.55L48.2 22.4L47.95 22.35L47.8 22.35M47.4,27.8L47.7 27.65L47.7 27.85Q47.45 27.85 47.45 28.1Q47.15 28.35 47.2 28.5L47.1 28.7L47.05 28.9L47.1 29L47.15 29L47.25 29L47.5 29.05L47.5 29L47.55 28.9L47.75 29.15L47.4 29.3Q47.25 29.25 47.3 29.35L46.9 29.3L46.7 29.05Q46.6 28.8 46.75 28.75L46.85 28.7Q46.85 28.2 47.15 27.9L47.4 27.8M58,17.3L57.3 17.9L57.15 18.05L57.05 17.8L57.05 17.65L56.9 17.6L56.8 17.6L56.75 17.5L56.8 17.5L56.85 17.4Q57.1 17.05 57.95 16.65Q58.05 16.45 58.25 16.45L58.05 16.75L58 16.8L57.9 16.9L57.95 17.1L58.05 17.05Q57.95 17.1 58 17.3M58.15,19.05L58.75 18.5L58.9 18.3L59.3 18.3L59.75 18.4L58.55 19.55L58.15 19.05M59.7,25.05L59.6 25L59.5 25Q59.35 24.9 59.4 25.15L59.75 25.5L59.75 25.55Q59.9 25.5 60.1 25.7L60.1 25.75L59.65 26.1L59.6 25.6L59 25.3Q58.9 25.1 58.9 25.25Q58.85 24.8 58.95 24.6L58.9 24.3L59.9 24.85L60 24.9L60.7 25.65L60.4 25.6L60.35 25.6L60.35 25.55L59.7 25.05M57.35,27.05L57.75 26.95Q57.85 26.75 58.1 26.75L59.1 26.8Q59.15 26.65 59.3 26.7L59.2 27.3L59.35 27.8L58.8 27.75L58.55 27.75L57.35 27.05M60.75,27.75Q60.85 27.3 61.15 27.2L61.25 27.15L61.45 27.05L61.35 26.95L61.5 26.9L62.85 27.75L63.3 28.1L63.3 28.15Q63.15 28.35 63.25 28.65Q63.05 28.7 62.9 28.9L62.6 28.8L62.4 28.75L60.9 27.8L60.85 27.8L60.75 27.75M47.55,30.65L46.4 32.05L45.65 32.6L45.8 32.1L45.6 31.55L45.65 31.55L46.75 30.7L47.1 30.75L47.55 30.65M43.9,31.4Q44 30.8 44.45 30.15Q44.4 30 44.55 30.1Q45.2 29.25 45.6 28.95L45.6 29.15L45.65 29.8Q45.45 29.75 45.5 30Q45.1 30.3 45.1 30.7L45.05 31.2L44.7 31.15Q44.65 30.85 44.9 30.6L45.2 30Q44.95 29.8 44.95 30.05Q44.85 29.85 44.8 30.1L44.75 30.15L44.25 31.1Q44.05 31.2 44.15 31.35L43.9 31.4M44.15,33.75L44 33.75L42.55 35.9L42 36.4L41.6 36.45Q41.35 36.3 41.45 36.05L41.8 35.35L41.95 35.2L43.3 33.5L43.3 33.4L43.35 33.4L43.4 33.45L43.35 33.55L43.5 33.5L43.6 33.5L44.15 33.65L44.15 33.75M42.35,35.05Q42.1 35.05 42.2 35.25L41.9 35.5L41.7 35.75L41.75 35.9Q41.6 35.95 41.75 36.15L41.95 36.15L42.15 36.05L42.35 35.8L42.45 35.6L42.2 35.6L42.4 35.25Q42.35 35.1 42.45 35.1L42.7 34.7L42.65 34.6L42.35 35.05M63.1,28.5L63.05 28.35L63 28.3L63.05 28.15L62.75 27.95L62.45 27.85Q62.1 27.6 62.05 27.7L62.4 27.95L62.7 28.3Q62.6 28.2 62.55 28.4Q62.4 28.35 62.4 28.45L62.55 28.6L62.75 28.65L62.8 28.65L62.95 28.6L63.1 28.5" />
<path style="fill:#766D67;fill-opacity:1" d="M60.25,15.7L60.3 15.9L60.4 15.85L60.35 16.1L60.8 16.7L60.15 17.15L59.55 17.45L59.3 17.4L59.05 17.3L58.95 17.1L59.05 16.85Q59 16.65 59.1 16.75Q59.1 16.4 59.45 16.35L60.25 15.7M42.35,22.4L42.7 21.65L42.6 21.3L42.7 21.3L42.75 21.1L43.7 21.15L43.75 21.2Q43.95 21.05 44.2 21.35L44.2 21.5L44.35 21.7L44.2 21.95L44 22.15L43.85 22.35L43 22.55L42.35 22.55L42.35 22.4M46.5,21.5Q46.45 21.15 46.55 21.2Q46.45 20.95 46.6 20.95Q46.45 20.75 46.8 20.8L46.9 20.7L47.7 20.9L47.9 21.05Q47.35 20.9 46.95 21.25L46.65 21.55Q46.55 21.35 46.5 21.5M57.05,18.25L56.6 18.2Q56.15 18.15 55.95 18.4Q55.9 18.25 56 18.25L56.75 17.5L56.8 17.6L56.9 17.6L57.05 17.65L57.05 17.8L57.15 18.05L57.05 18.25M58.55,19.55Q58.4 19.5 58.25 19.75Q57.95 19.85 57.95 19.95L58.05 19.5L58 19.1Q57.95 19 58.15 19.05L58.55 19.55M61.35,26.95L61.45 27.05L61.25 27.15L61.15 27.2Q60.85 27.3 60.75 27.75L60.35 27.45L60.15 27.3L60 27.1L59.9 26.7L60 26.7Q60.05 26.5 60.45 26.45L60.55 26.45L60.7 26.45L60.95 26.5L61.5 26.9L61.35 26.95M44.15,33.65L43.6 33.5L43.5 33.5L43.35 33.55L43.4 33.45L43.35 33.4L43.3 33.4L43.95 32.55Q43.9 32.3 44 32.4Q43.95 32.2 44.2 32.2L44.4 32Q44.55 31.8 44.8 31.85L44.9 31.9L44.9 32.35L44.7 32.85L44.55 33.05L44.15 33.75L44.15 33.65" />
<path style="fill:#434242;fill-opacity:1" d="M59.05,19.8L60.5 18.45L60.5 18.35L60.65 18.5L60.65 18.6L60.55 19.25Q59.9 19.35 59.05 19.8M58.4,23.35L58.25 22.35L58.65 22.2L60.75 21.55Q60.85 21.35 61.05 21.45L61.05 21.6L61.15 21.9L60.95 22.65Q60.8 22.7 60.65 22.85L60.6 22.85L59.9 23.05L58.75 23.5L58.4 23.35M62.15,26.5L62.35 26.2L61.5 26.1L61.45 25.65L61.05 24.9L60.65 24.5Q60.85 24.25 61.05 24.35L61.3 24.5Q62 25.25 63.25 25.7L62.35 26.6L62.15 26.5M44.55,28.35L44.45 28.3L43.95 28.15L43.95 28Q43.9 27.85 44 27.8L44.2 27.45Q44.35 27.1 44.85 26.9Q45.25 26.55 46.05 26.45L46.3 26.4Q46.4 26.2 46.75 26.15L46.65 26.8L46.7 26.95Q46.5 26.95 46.45 27.15L45.55 28.1Q44.85 28.15 44.55 28.35M58.15,17.6L58.35 17.9L58.6 18.15L58.5 18.3L57.85 18.85L57.6 18.55Q57.35 18.3 57.3 18.35Q57.25 18.25 57.35 18.2L57.9 17.75L58.15 17.6" />
<path style="fill:#3D3C3C;fill-opacity:1" d="M64.65,20.5L62.9 21.7L62.7 20.4Q63.75 19.75 65.1 19.5Q66.65 18.8 68.35 18.45L66.2 19.7Q65.7 19.9 65.2 20.25L65.9 19.6Q64 19.6 64.25 20.7L64.65 20.5" />
<path style="fill:#222222;fill-opacity:1" d="M65.1,19.5Q63.75 19.75 62.7 20.4L61.95 19.3L68.35 18.35L68.35 18.45Q66.65 18.8 65.1 19.5" />
<path style="fill:#252525;fill-opacity:1" d="M49.95,15.2Q52.8 14.1 55.4 13.6L55.1 14.45Q53.85 16.8 53.95 19.25Q52.85 19.3 51.95 19.9Q50.6 20.4 50.3 20.9L49.8 21.55L48.95 21.25Q48.9 20.5 48.35 20.35Q47.15 19.85 46.25 19.85L44.6 19.9Q44 19.95 43.75 20.25L41 20.05Q45.65 16.75 49.95 15.2M60.75,21.55L58.65 22.2L58.25 22.35L57.85 21.4L60.3 20.5L60.45 20.55Q60.75 20.35 61 21.35L61.05 21.45Q60.85 21.35 60.75 21.55M44.9,22.45L45.15 22.05L45.35 21.65L45.7 21.7L46.35 21.9L46.05 22.3Q45.85 22.4 45.8 22.65L45.05 22.55L44.9 22.45M45.3,24.45Q44.95 24.4 44.85 24.6L44.8 24.45Q44.9 24.25 45.3 24.45M44.3,25.95L45.15 25.7Q45.15 25.35 45.2 25.7Q46.2 25.2 47.25 25L46.85 25.3Q46.65 25.35 46.75 26.15Q46.4 26.2 46.3 26.4L46.05 26.45Q45.25 26.55 44.85 26.9Q44.35 27.1 44.2 27.45L44 27.8Q43.9 27.85 43.95 28Q42.95 27.35 44.3 25.95M49.15,29.25L50.35 29.1L50.65 29.55Q52.1 30.65 54 29.85Q55.75 29 56.9 27.65L58.15 28.25L52.55 30.9L46.4 32.8Q46.3 32.6 46.6 32.6L48.1 30.8L48.55 30.15L49.15 29.25M41.4,33.75L41 33.7L39.8 33.1Q41.85 32 43.3 30.4L43.65 30.4L43.4 31.1Q42.95 31.65 43 32.05L43.05 32.55L42.35 33.6Q41.8 33.5 41.4 33.75M46.45,30.65L45.85 31.15Q45.5 31.2 45.35 30.9Q45.15 30.75 45.75 30.1L45.95 30.3L46.45 30.65" />
<path style="fill:#3A3838;fill-opacity:1" d="M59.35,26.05L59.05 26.55L58.45 26.4L58.75 25.9L58.8 25.55L59.35 26.05M57.05,30.3L53.35 32.3L48.55 33.55L44.8 33.85L45.15 33.8L46.4 32.8L52.55 30.9L58.15 28.25L58.55 28.35L59.8 28.6L57.05 30.3M42.35,33.6L42.15 33.85L41.4 33.75Q41.8 33.5 42.35 33.6M61.5,26.15L61.5 26.1L62.35 26.2L62.15 26.5L61.5 26.15" />
<path style="fill:#332C27;fill-opacity:1" d="M57.65,20.95L57.85 21.4L58.25 22.35L58.4 23.35L58.3 24Q58.1 25.6 57.35 27.05L57.15 27.4Q56.95 27.45 56.9 27.65Q55.75 29 54 29.85Q52.1 30.65 50.65 29.55L50.35 29.1L49.15 29.25L48.9 29.35L47.75 29.25L47.75 29.15L47.55 28.9Q47.45 28.45 47.7 27.85L47.7 27.65L47.4 27.8Q46.8 27.7 46.7 26.95L46.65 26.8L46.75 26.15Q46.65 25.35 46.85 25.3L47.25 25L47.3 24.6Q47.15 24.4 47.3 24.4L47.3 23.85Q47.2 23.45 47.5 23.3Q47.5 23.15 47.85 23.15Q48.4 22.85 49.2 22.8L49.4 22.35Q49.4 22.05 49.55 21.9L49.8 21.55L50.3 20.9Q50.6 20.4 51.95 19.9Q52.85 19.3 53.95 19.25L54.95 19.2L55.2 19.2L55.95 19.35L56.2 19.5L56.4 19.65L56.65 19.8L56.8 19.95L57.6 20.8L57.65 20.95M49.9,24.45L49.9 24.55L47.65 25.65Q47.5 25.6 47.6 25.85L47.65 26.3L47.7 26.4Q47.4 26.5 47.6 26.6L47.65 26.6L47.7 26.85L47.8 26.85Q47.85 26.75 48.25 26.7L48.9 26.6L49.95 26.45Q49.75 26.5 49.55 26.7L48.4 27.45L48.5 28.5L48.5 28.75Q49.05 28.4 49.7 28.3L50.05 28.25L49.95 28.05Q49.8 27.8 50.2 27.6Q50.1 27.45 50.25 27.45L50.3 27.55Q50.15 27.55 50.25 27.65L50.6 28.3L51.05 28.9Q52.95 30.05 55.7 27.7L56.15 27.15L57.1 25.9L57.2 25.55L57.4 24.9L57.5 24.55L57.55 23.2L57.35 22.6L57.2 21.8L57.15 21.6L57.05 21.3L57 21.1L56.5 20.45Q56.15 20.05 55.9 20.05L55.65 19.95Q55.55 19.75 55.5 19.85L54.4 19.8Q54.25 19.7 54.3 19.85L53.95 19.85Q51.45 20 50.4 21.65Q50.05 21.9 49.9 22.5L49.8 22.8L49.6 23.65Q49.2 23.75 49.2 23.35L48.4 23.55Q48.1 23.55 48.05 23.7L47.95 24.4L48 24.6L48.05 24.65Q48 24.55 48.15 24.6L48.9 24.45L49.5 24.4L49.65 24.35L49.9 24.45M54.4,21.95L53.6 23.05L53.15 23.3L51.4 23.25L51.5 23.2L51.35 22.95Q51.2 22.8 51.35 22.85L51.2 22.15L51.35 21.85Q51.6 21.1 52.2 20.75Q53.3 19.6 54.05 20.1L54.55 20.8L54.65 21.1L54.65 21.2Q54.45 21.55 54.4 21.95M53.45,20.7Q52.1 20.65 51.85 21.75L51.9 22L51.95 23.05L52.15 23Q52.5 22.9 52.7 23.15Q52.7 23.05 52.85 23.05Q53.75 22.35 54.1 21.35L54.05 21.2L54.1 21.1Q54.05 20.6 53.65 20.7L53.45 20.7M55.15,26.85L55.15 26.7Q55.05 26.4 55.2 26.4Q54.7 25.3 53.65 25.25Q52.9 25.1 52.75 25.45Q52.55 25.55 52.7 25.9L52.7 26.25Q52.8 27.05 53.25 27.45Q53.95 27.9 55.15 26.85M55.2,25.25L55.75 26.65Q55.65 26.65 55.7 26.8L55.35 27.4Q53.45 29.05 52.45 27.7L52 26.8Q51.75 26.4 51.85 26.15L52.05 25.75Q52 25.35 52.3 25.25Q52.4 25.05 52.75 25Q53.2 24.65 53.65 24.65L54.35 24.75Q54.8 24.75 55.2 25.25" />
<path style="fill:#918883;fill-opacity:1" d="M57.05,21.65L56.5 21.4L55.8 21.25L55.6 21.2Q55.1 21.05 54.65 21.2L54.65 21.1L54.55 20.8L54.05 20.1Q53.3 19.6 52.2 20.75Q51.6 21.1 51.35 21.85L51.2 22.15Q50.8 22.3 50.75 22.6L50.5 22.9L49.6 23.8L49.4 23.85L49.2 23.9Q48.45 23.9 47.95 24.4L48.05 23.7Q48.1 23.55 48.4 23.55L49.2 23.35Q49.2 23.75 49.6 23.65L49.8 22.8L49.9 22.5Q50.05 21.9 50.4 21.65Q51.45 20 53.95 19.85L54.3 19.85Q54.25 19.7 54.4 19.8L55.5 19.85Q55.55 19.75 55.65 19.95L55.9 20.05Q56.15 20.05 56.5 20.45L57 21.1L57.05 21.3L57.15 21.6L57.2 21.8L57.05 21.65M49.8,26.75Q50.15 26.9 50.35 27.6L50.3 27.55L50.25 27.45Q50.1 27.45 50.2 27.6L50.05 27.5Q49.2 27.45 48.8 28L48.5 28.5L48.4 27.45L49.55 26.7L49.8 26.75M47.7,26.4L47.65 26.3L47.6 25.85Q47.5 25.6 47.65 25.65L49.9 24.55L49.9 24.45L49.65 24.35L50.55 24.5L50.8 24.85L50.5 25.25Q50.1 25.25 49.5 25.55Q49.25 25.5 49.35 25.65Q47.95 26.05 47.7 26.4M53.65,20.7Q54.05 20.6 54.1 21.1L54.05 21.2L54.1 21.35Q53.75 22.35 52.85 23.05Q52.7 23.05 52.7 23.15Q52.5 22.9 52.15 23L51.95 23.05L51.9 22L51.85 21.75Q52.1 20.65 53.45 20.7L53.65 20.7M53.25,27.45Q52.8 27.05 52.7 26.25L52.7 25.9Q52.55 25.55 52.75 25.45Q52.9 25.1 53.65 25.25Q54.7 25.3 55.2 26.4Q55.05 26.4 55.15 26.7L55.15 26.85Q53.95 27.9 53.25 27.45" />
<path style="fill:#BBB4B0;fill-opacity:1" d="M49.55,26.7Q49.75 26.5 49.95 26.45L48.9 26.6L48.25 26.7Q47.85 26.75 47.8 26.85L47.7 26.85L47.65 26.6L47.6 26.6Q47.4 26.5 47.7 26.4Q47.95 26.05 49.35 25.65Q49.25 25.5 49.5 25.55Q50.1 25.25 50.5 25.25L50.8 24.85L50.55 24.5L49.65 24.35L49.5 24.4L48.9 24.45L48.15 24.6Q48 24.55 48.05 24.65L48 24.6L47.95 24.4Q48.45 23.9 49.2 23.9L49.4 23.85L49.6 23.8L50.5 22.9L50.75 22.6Q50.8 22.3 51.2 22.15L51.35 22.85Q51.2 22.8 51.35 22.95L51.5 23.2L51.4 23.25L53.15 23.3L53.6 23.05L54.4 21.95Q54.45 21.55 54.65 21.2Q55.1 21.05 55.6 21.2L55.8 21.25L56.5 21.4L57.05 21.65L57.2 21.8L57.35 22.6L57.55 23.2L57.5 24.55L57.4 24.9L57.2 25.55L57.1 25.9L56.15 27.15L55.7 27.7Q52.95 30.05 51.05 28.9L50.6 28.3L50.25 27.65Q50.15 27.55 50.3 27.55L50.35 27.6Q50.15 26.9 49.8 26.75L49.55 26.7M50.2,27.6Q49.8 27.8 49.95 28.05L50.05 28.25L49.7 28.3Q49.05 28.4 48.5 28.75L48.5 28.5L48.8 28Q49.2 27.45 50.05 27.5L50.2 27.6M54.8,23.45L54.85 23.4Q54.3 23.2 53.6 23.9L53.75 24.05L54.4 24.1L54.8 23.45M56.5,23.05L56.55 22.85Q56.8 22.4 56.2 22.6L56 22.85Q55.85 22.85 55.95 23Q56 23.25 56.4 23.2Q56.3 23 56.5 23.05M56.3,24.65Q55.95 25.15 56.1 25.6Q56.05 26.05 56.5 26.45L56.85 25.9Q57 25.6 57.1 25.65L57.2 24.75L56.9 24.3L56.75 24.1Q56.65 23.85 56.55 24.1L56.45 24.25Q56.25 24.25 56.3 24.55L56.3 24.65M54.35,24.75L53.65 24.65Q53.2 24.65 52.75 25Q52.4 25.05 52.3 25.25Q52 25.35 52.05 25.75L51.85 26.15Q51.75 26.4 52 26.8L52.45 27.7Q53.45 29.05 55.35 27.4L55.7 26.8Q55.65 26.65 55.75 26.65L55.2 25.25Q54.8 24.75 54.35 24.75M51.45,28.4L51.85 28.1L51.8 28.05L51.75 27.95Q51.2 26.95 50.7 27.65Q50.45 27.7 50.75 27.9L51 28.2L51.45 28.4" />
<path style="fill:#E5DEDA;fill-opacity:1" d="M54.4,24.1L53.75 24.05L53.6 23.9Q54.3 23.2 54.85 23.4L54.8 23.45L54.4 24.1M56.4,23.2Q56 23.25 55.95 23Q55.85 22.85 56 22.85L56.2 22.6Q56.8 22.4 56.55 22.85L56.5 23.05Q56.3 23 56.4 23.2M56.3,24.55Q56.25 24.25 56.45 24.25L56.55 24.1Q56.65 23.85 56.75 24.1L56.9 24.3L57.2 24.75L57.1 25.65Q57 25.6 56.85 25.9L56.5 26.45Q56.05 26.05 56.1 25.6Q55.95 25.15 56.3 24.65L56.3 24.55M51,28.2L50.75 27.9Q50.45 27.7 50.7 27.65Q51.2 26.95 51.75 27.95L51.8 28.05L51.85 28.1L51.45 28.4L51 28.2" />
<linearGradient
id="LinearGradID_2721" gradientUnits="userSpaceOnUse" gradientTransform="matrix(0.0218506, -0.00904846, 0.00267029, 0.0070343, 43.75, 12.5)" spreadMethod ="pad" x1="-819.2" y1="0" x2="819.2" y2="0" >
<stop  offset="0.00392157" style="stop-color:#C4BEBB;stop-opacity:1" />
<stop  offset="1" style="stop-color:#F7F7F7;stop-opacity:1" />
</linearGradient>
<path style="fill:url(#LinearGradID_2721) " d="M58.8,8.45Q64.5 7.7 68.6 9.75Q65.8 10.55 63.3 12.6L62.65 12.5L62.55 12.45L62.35 12.45L61.8 12.45L62.75 11.6Q64.35 10.3 66.4 9.85Q60.2 7.85 49.9 10.3Q54.15 8.95 58.8 8.45" />
<linearGradient
id="LinearGradID_2722" gradientUnits="userSpaceOnUse" gradientTransform="matrix(0.0218506, -0.00904846, 0.00267029, 0.0070343, 43.75, 12.5)" spreadMethod ="pad" x1="-819.2" y1="0" x2="819.2" y2="0" >
<stop  offset="0.00392157" style="stop-color:#746E6B;stop-opacity:1" />
<stop  offset="1" style="stop-color:#CDC6C0;stop-opacity:1" />
</linearGradient>
<path style="fill:url(#LinearGradID_2722) " d="M58.7,12.5Q59.25 11.15 60.75 10.15Q52.05 9.75 40.2 15.6Q36.85 17.1 33.45 19.2Q34.85 17.95 38.15 15.8Q42.75 12.8 47.95 11L49.9 10.3Q60.2 7.85 66.4 9.85Q64.35 10.3 62.75 11.6L61.8 12.45L58.7 12.5" />
<linearGradient
id="LinearGradID_2723" gradientUnits="userSpaceOnUse" gradientTransform="matrix(0.0218506, -0.00904846, 0.00267029, 0.0070343, 43.75, 12.5)" spreadMethod ="pad" x1="-819.2" y1="0" x2="819.2" y2="0" >
<stop  offset="0.00392157" style="stop-color:#625B57;stop-opacity:1" />
<stop  offset="1" style="stop-color:#BFB4AA;stop-opacity:1" />
</linearGradient>
<path style="fill:url(#LinearGradID_2723) " d="M56.9,11.4Q51.3 11.2 39.85 16.75L34.2 19.85L32.5 20.05Q32.65 19.65 33.45 19.2Q36.85 17.1 40.2 15.6Q52.05 9.75 60.75 10.15Q59.25 11.15 58.7 12.5L57.3 12.5L55.9 12.7L56.9 11.4" />
<linearGradient
id="LinearGradID_2724" gradientUnits="userSpaceOnUse" gradientTransform="matrix(0.0218506, -0.00904846, 0.00267029, 0.0070343, 43.75, 12.5)" spreadMethod ="pad" x1="-819.2" y1="0" x2="819.2" y2="0" >
<stop  offset="0.00392157" style="stop-color:#5B514C;stop-opacity:1" />
<stop  offset="1" style="stop-color:#B6A89D;stop-opacity:1" />
</linearGradient>
<path style="fill:url(#LinearGradID_2724) " d="M40.05,19.8L38.1 19.55L34.2 19.85L39.85 16.75Q51.3 11.2 56.9 11.4L55.9 12.7Q52.7 13.25 48.55 15.05Q42.75 17.35 40.05 19.8" />
</g>
</svg>
