<?xml version="1.0" encoding="utf-8"?>
<svg version="1.1" id="Layer_1"
xmlns="http://www.w3.org/2000/svg"
xmlns:xlink="http://www.w3.org/1999/xlink"
xmlns:author="http://www.sothink.com"
width="21px" height="25px"
xml:space="preserve">
<g id="366" transform="matrix(1, 0, 0, 1, 0, 0)">
<path style="fill:#D0A15B;fill-opacity:1" d="M16.5,16.6Q15.35 17.55 12.45 18.95L11.8 19.25L9.2 19.25L7.7 19.1Q2.9 18.5 2 16.95Q1.25 15.1 1.3 12.05Q1.35 8.95 2.25 6.95Q3.15 4.9 4.55 3.6Q5.9 2.25 9.95 1.3L13.55 1.2L15.95 1.8Q17.55 2.3 18.1 3.5Q18.65 4.65 18.5 5.35L17.95 7.45Q17.55 8.85 17.55 11.45Q17.55 11.8 17.45 11.4L17.3 15.7L17.3 15.85L16.5 16.6" />
<path style="fill:#E9CB9E;fill-opacity:1" d="M11.8,19.25L12.45 18.95Q15.35 17.55 16.5 16.6L17.3 15.85Q16.9 17.4 14.75 18.55Q13.6 19.15 11.8 19.25" />
<path style="fill:#876430;fill-opacity:1" d="M14.75,18.55Q16.9 17.4 17.3 15.85L17.3 15.7L17.45 11.4Q17.55 11.8 17.55 11.45Q17.55 8.85 17.95 7.45L18.5 5.35Q18.65 4.65 18.1 3.5Q17.55 2.3 15.95 1.8L13.55 1.2L9.95 1.3Q5.9 2.25 4.55 3.6Q3.15 4.9 2.25 6.95Q1.35 8.95 1.3 12.05Q1.25 15.1 2 16.95Q2.9 18.5 7.7 19.1L9.2 19.25L11.8 19.25Q13.6 19.15 14.75 18.55M17.2,18.4Q16 19.35 13.45 20.1L9.4 20.35L9 20.35L6.45 19.95Q2 19.05 1.7 18.25L1.75 18.1L1.55 18.2L1.45 18.15L1.35 18Q1.35 17.6 0.9 17.8Q-0.1 14.5 0.45 10.4Q0.95 6.3 1.95 4.65Q2.9 3 4.75 1.85Q6.6 0.65 9.2 0.3L12.3 0L12.65 0L14.4 0.2Q16.2 0.4 17.3 1.1Q18.4 1.75 19.3 3.4Q20.2 5 19.4 7.55Q18.65 9.9 18.7 11.65L18.7 12.05L18.7 14.25L18.6 15.55Q18.35 17.15 17.9 17.75L17.2 18.4" />
<path style="fill:#231713;fill-opacity:1" d="M17.2,18.4L17.9 17.75Q18.85 22 15.15 23.6Q11.45 25.2 8.1 25Q4.7 24.75 3.4 24.2Q2.1 23.65 1.2 22.95Q0.25 22.2 0.05 20.5Q-0.2 18.8 0.9 17.8Q1.35 17.6 1.35 18L1.45 18.15L1.55 18.2L1.75 18.1L1.7 18.25Q0.3 19.5 1.4 21.75Q2.25 22.8 4.35 23.5Q6.45 24.15 8.85 24.25Q11.25 24.3 13.95 23.3Q16.65 22.25 17.1 20.45Q17.5 18.6 17.2 18.4" />
<path style="fill:#412B1E;fill-opacity:1" d="M17.1,20.45Q16.65 22.25 13.95 23.3Q11.25 24.3 8.85 24.25Q6.45 24.15 4.35 23.5Q2.25 22.8 1.4 21.75Q0.3 19.5 1.7 18.25Q2 19.05 6.45 19.95L9 20.35L9.4 20.35L13.45 20.1Q16 19.35 17.2 18.4Q17.5 18.6 17.1 20.45" />
<path style="fill:#231713;fill-opacity:1" d="M18.7,10.9L18.7 10.7L19.05 8.65L19.1 6.05Q17.15 9.25 11.2 12.9L9.2 14.05L8.55 14.4Q7.65 14.85 6.7 15.25Q4.45 16.1 1.65 16.55Q1.6 17.4 2.75 18.15Q3.85 18.9 5 18.95L9 18.2Q13.05 17.15 15.5 14.95L18.3 12L18.65 10.95L18.7 10.9M19.55,11.15L18.7 12.95L18.15 13.65L15.8 15.9Q14.4 17 12.2 18.1Q10 19.15 7.1 19.65Q4.2 20.15 2.5 19.2Q0.75 18.3 0.5 17.1Q0.2 15.9 0.7 15.9L2.8 15.45L5.45 14.65L6.05 14.45L6.6 14.25Q12.05 12.05 16.3 7.95L19.4 3.75Q20.2 5.8 20.1 7.8L19.95 9.3L19.55 11.15" />
<path style="fill:#412B1E;fill-opacity:1" d="M18.65,10.95L18.3 12L15.5 14.95Q13.05 17.15 9 18.2L5 18.95Q3.85 18.9 2.75 18.15Q1.6 17.4 1.65 16.55Q4.45 16.1 6.7 15.25L6.95 15.95L9.8 16.2Q11.5 15.95 12.7 15.3L11.7 16.05Q15.15 15.05 16.7 13.25L18.65 10.95L18.7 10.9L18.65 10.95" />
<path style="fill:#644638;fill-opacity:1" d="M16.7,13.25Q15.15 15.05 11.7 16.05L12.7 15.3Q11.5 15.95 9.8 16.2L6.95 15.95L6.7 15.25Q7.65 14.85 8.55 14.4L9.2 14.05Q11.1 13.55 13.2 12.1L17.6 9.1L17.6 9.6Q17.15 10.05 17.1 10.6L18.2 9.4L18.3 9.4Q18.55 9.65 18.65 10.95L16.7 13.25" />
<path style="fill:#8E6755;fill-opacity:1" d="M11.2,12.9Q17.15 9.25 19.1 6.05L19.05 8.65L18.7 10.7L18.7 10.9L18.65 10.95Q18.55 9.65 18.3 9.4L18.2 9.4L17.1 10.6Q17.15 10.05 17.6 9.6L17.6 9.1L13.2 12.1Q11.1 13.55 9.2 14.05L11.2 12.9" />
<path style="fill:#662D11;fill-opacity:1" d="M11.75,9.75Q12.1 8.2 13.85 8.05Q18.65 8.15 18.5 11.8L18.2 13.5L18.15 13.6Q17.25 16.65 14.35 15.35Q10.75 13.75 11.7 9.8L11.75 9.75M12.85,9.9L12.55 10.55Q12.3 11.4 12.85 12.65Q13.3 13.7 14.4 14.3Q16.55 15.5 17.3 13.4L17.45 12.65Q17.65 11.65 17.45 10.9Q17 8.95 14 9.05Q13.2 9.35 12.85 9.9" />
<path style="fill:#C68331;fill-opacity:1" d="M12.85,9.9L13.7 10.15L13.55 9.9Q15.4 9.9 17 10.65L17.45 10.9Q17.65 11.65 17.45 12.65L17.3 13.4L16 13.05Q14.15 12.45 13.95 11.7L13.8 11.85L13.7 12.15L12.85 11.1L12.55 10.55L12.85 9.9" />
<path style="fill:#AA692B;fill-opacity:1" d="M14.4,14.3Q13.3 13.7 12.85 12.65Q12.3 11.4 12.55 10.55L12.85 11.1L13.7 12.15L13.8 11.85L13.95 11.7Q14.15 12.45 16 13.05L17.3 13.4Q16.55 15.5 14.4 14.3" />
<path style="fill:#F3B94B;fill-opacity:1" d="M14,9.05Q17 8.95 17.45 10.9L17 10.65Q15.4 9.9 13.55 9.9L13.7 10.15L12.85 9.9Q13.2 9.35 14 9.05" />
</g>
</svg>
