<?xml version="1.0" encoding="utf-8"?>
<svg version="1.1" id="Layer_1"
xmlns="http://www.w3.org/2000/svg"
xmlns:xlink="http://www.w3.org/1999/xlink"
xmlns:author="http://www.sothink.com"
width="63px" height="30px"
xml:space="preserve">
<g id="1405" transform="matrix(1, 0, 0, 1, 10.1, -43.95)">
<path style="fill:#4D3212;fill-opacity:1" d="M1.25,60.65L1.85 60.65Q3.65 60.55 2.35 61.85L1.45 61.7Q-4.1 61.05 -9.1 58.4Q-10.1 57.5 -10.1 55.85L-9.9 54.5L-9.5 53.7L-8.8 53.3L-8.25 53.3L-1.85 54.8L-1.7 54.85L1.55 55.05L1.8 55.05Q2.45 55 2.35 55.7L1.3 55.8L-2.3 55.6L-2.35 55.6L-6.55 54.7L-8.8 54.55L-9.15 55.15L-9.2 55.55Q-9.35 56.75 -8.6 57.6Q-7.2 58.55 -3.55 59.65L1.25 60.65" />
<path style="fill:#9A7226;fill-opacity:1" d="M-2.5,56.2Q-2.85 57.4 -2.7 58.05Q-3.6 58 -6.9 56.5L-9.15 55.15L-8.8 54.55L-6.55 54.7L-2.35 55.6L-2.3 55.6L-2.5 56.2" />
<path style="fill:#745416;fill-opacity:1" d="M-3.55,59.65Q-7.2 58.55 -8.6 57.6Q-9.35 56.75 -9.2 55.55L-9.15 55.15L-6.9 56.5Q-3.6 58 -2.7 58.05Q-2.85 57.4 -2.5 56.2L-2.3 55.6L1.3 55.8L1.2 56.2Q0.95 56.8 1 58.2L1 59.6L1.25 60.65L-3.55 59.65" />
<path style="fill:none;stroke-width:0.1;stroke-linecap:round;stroke-linejoin:round;stroke-miterlimit:3;stroke:#694A1F;stroke-opacity:1" d="M1.55,55.05L1.3 55.8L1.2 56.2Q0.95 56.8 1 58.2L1 59.6L1.25 60.65L1.45 61.7L1.6 62.7" />
<path style="fill:#3A3634;fill-opacity:1" d="M8.05,66.95Q8.55 66.5 8.4 65.85L8.6 65.85L19.7 66.05L32 66.4L38.7 66.6Q40.85 66.6 41.4 68.25Q41.95 69.95 42 71.7L42.1 71.65Q45.8 69.75 47.95 66.95L49.3 64.65Q51.3 60.2 51.2 56.95Q51.1 53.7 50.65 51.75L49.65 48.7Q49.1 47.5 48.2 46.55L48.2 46.9L47.75 48.35L47.7 48.5L46.65 50.5Q45.85 51.9 44.2 52.95Q42.55 53.95 35.65 53.6L20.15 52.95L9.95 52.65L10.2 51.75L10.35 51.2L12.1 51.35L18.25 51.7L28.95 52.15L41.5 52.35Q43.55 51.95 44.7 50.65L46.15 48.7L46.5 48L46.85 46.95L47.4 44.3L47.4 43.95L48.15 44.35Q49.6 45.4 50.85 48.45L51.35 49.85Q52.3 52.85 52.35 56.1L51.9 60.65Q50.7 66.35 46.45 70.3L45.65 71L43.25 72.4L41.45 73.1L40.9 73.25L40.6 69.95Q40.4 68.55 39.75 68.1L26.5 67.45L13.75 67.1L8.25 67.05L7.75 67.1L8.05 66.95" />
<path style="fill:#EEEAE8;fill-opacity:1" d="M47.95,66.8Q51.9 58.2 48.85 49.55L48.45 49.05L48.2 46.9L48.2 46.55Q49.1 47.5 49.65 48.7L50.65 51.75Q51.1 53.7 51.2 56.95Q51.3 60.2 49.3 64.65L47.95 66.95L47.95 66.8" />
<path style="fill:#792E0A;fill-opacity:1" d="M4.05,65.85L2.9 65.5L1.85 65.45Q1.1 65.4 0.7 65.05L-0.2 63.9Q-0.7 63.05 -1.05 60.1Q-1.45 57.4 -0.4 54.9L-0.2 54.45Q0.9 51.9 2.05 50.8L2.2 50.65Q3.35 49.6 4.95 50Q7.05 46.7 9.45 46.5L9.5 46.5Q11.1 46.75 11.15 47.8Q11.2 48.8 10.35 51.2L10.2 51.75L9.95 52.65Q9.2 55.45 8.95 57.25Q8.65 59.05 8.7 59.25Q8.2 62.1 8.35 65L8.4 65.85Q8.55 66.5 8.05 66.95L7.75 67.1L7.6 67.15L7.15 67.4L6.55 67.6L5.9 67.45L5.35 67.1L4.05 65.85M6.6,49.35Q5.25 50.85 4.35 53L4.1 53.6Q3.5 55.2 3.5 56.55L3.45 58.3L3.4 58.35Q3.2 58.6 2.95 56.9L2.9 56.05L2.9 55.85L2.9 55.8Q2.85 54.5 3.4 53.2Q4.1 51.3 4.3 51.15Q3.15 51 2.55 51.7L1.25 53.4L1.25 53.5Q-1.65 58.25 0.8 63.95Q0.95 64.25 1.45 64.25L2.45 64.25Q3.05 64.2 4 64.7L5.05 65.3L5.9 66.2L6.95 66.3Q7.6 65.85 7.55 65.45Q7.45 65.1 7.5 63.55L7.5 62.45L7.8 58.05L8.5 54.5Q8.85 52.9 9.65 50.45Q10.4 48 10 47.7L8.55 47.6Q7.7 48 6.6 49.35" />
<path style="fill:#3E3A2F;fill-opacity:1" d="M6.55,67.6L6.25 68.7Q6.15 69.8 6.45 71.55L6.9 73.4L7 73.85L6 73.95L5.6 73.95L5.4 73.9Q4.35 73.6 3.4 72.5L3 72.05Q1.2 69.8 1.7 66.4L1.85 65.45L2.9 65.5L2.6 66.7Q2.15 68.85 2.9 70.35L3.2 70.95L4.55 72.45L5.4 72.9L5.85 73Q5.05 70.5 5.3 68.05L5.3 67.5L5.35 67.1L5.9 67.45L6.55 67.6" />
<path style="fill:#BF7A24;fill-opacity:1" d="M6.65,63.3L5.6 63.5Q4.9 62.25 3.95 62.1L2.55 62.25Q1.15 62.3 1.2 56.7L1.25 53.5L1.25 53.4L2.15 52.95L2.8 53Q2.55 53.35 2.9 55.8L2.9 55.85L2.9 56.05L2.95 56.9Q3.2 58.6 3.4 58.35L3.7 58.7Q4.25 57.8 4.4 56.95Q4.6 55.35 5.3 53.35Q5.65 52.2 6.7 50.5Q7.05 50.15 7.45 49.95L8.9 49.45L8.9 49.7Q8.55 50.2 7.75 53.4Q6.65 57.35 6.7 60Q6.65 62.7 7.3 63.45L6.65 63.3" />
<path style="fill:#F0EAC6;fill-opacity:1" d="M5.4,72.9L4.55 72.45Q4 71 4 69.3Q4 67.65 4.45 67.7L5.05 67.9L5 68.4L4.85 69.95Q4.85 70.8 5.4 72.9M3.1,67.05Q2.75 67.2 2.75 68.95L2.9 70.35Q2.15 68.85 2.6 66.7L3.1 67.05" />
<path style="fill:#9D8E79;fill-opacity:1" d="M5.35,67.1L5.3 67.5L5.3 68.05L5.05 67.9L4.45 67.7Q4 67.65 4 69.3Q4 71 4.55 72.45L3.2 70.95L2.9 70.35L2.75 68.95Q2.75 67.2 3.1 67.05L2.6 66.7L2.9 65.5L4.05 65.85L5.35 67.1" />
<path style="fill:#A66221;fill-opacity:1" d="M5.3,53.35Q4.6 55.35 4.4 56.95Q4.25 57.8 3.7 58.7L3.4 58.35L3.45 58.3L3.5 56.55Q3.5 55.2 4.1 53.6L4.35 53Q5.25 50.85 6.6 49.35Q7.7 48 8.55 47.6L7.75 48.8L6.7 50.5Q5.65 52.2 5.3 53.35M7.3,63.45L7.5 63.55Q7.45 65.1 7.55 65.45Q7.6 65.85 6.95 66.3L5.9 66.2L5.05 65.3L4 64.7Q3.05 64.2 2.45 64.25L1.45 64.25Q0.95 64.25 0.8 63.95Q-1.65 58.25 1.25 53.5L1.2 56.7Q1.15 62.3 2.55 62.25L3.95 62.1Q4.9 62.25 5.6 63.5L6.65 63.3L7.3 63.45M1.25,53.4L2.55 51.7Q3.15 51 4.3 51.15Q4.1 51.3 3.4 53.2Q2.85 54.5 2.9 55.8Q2.55 53.35 2.8 53L2.15 52.95L1.25 53.4" />
<path style="fill:#FAC154;fill-opacity:1" d="M7.3,63.45Q6.65 62.7 6.7 60Q6.65 57.35 7.75 53.4Q8.55 50.2 8.9 49.7L8.9 49.45L7.45 49.95Q7.05 50.15 6.7 50.5L7.75 48.8L8.55 47.6L10 47.7Q10.4 48 9.65 50.45Q8.85 52.9 8.5 54.5L7.8 58.05L7.5 62.45L7.5 63.55L7.3 63.45" />
<path style="fill:#D4CBBA;fill-opacity:1" d="M4.85,69.95L5 68.4L5.05 67.9L5.3 68.05Q5.05 70.5 5.85 73L5.4 72.9Q4.85 70.8 4.85 69.95" />
<linearGradient
id="LinearGradID_1596" gradientUnits="userSpaceOnUse" gradientTransform="matrix(0.0159607, 0.000137329, -6.10352e-005, 0.00683594, 38.35, 63.9)" spreadMethod ="pad" x1="-819.2" y1="0" x2="819.2" y2="0" >
<stop  offset="0" style="stop-color:#DBD4CF;stop-opacity:1" />
<stop  offset="1" style="stop-color:#746C67;stop-opacity:1" />
</linearGradient>
<path style="fill:url(#LinearGradID_1596) " d="M42.1,71.65L42 71.7Q41.95 69.95 41.4 68.25Q40.85 66.6 38.7 66.6L32 66.4L19.7 66.05L8.6 65.85L8.4 65.85L8.35 65Q8.2 62.1 8.7 59.25L36 60.25Q39.8 60.6 41 61.45Q42.15 62.25 43.05 64.4L43.15 64.6L43.2 64.6Q43.6 66.9 42.85 69.65L42.1 71.65" />
<linearGradient
id="LinearGradID_1597" gradientUnits="userSpaceOnUse" gradientTransform="matrix(0.00201416, -0.00852966, 0.0045166, 0.00106812, 58.25, 56.7)" spreadMethod ="pad" x1="-819.2" y1="0" x2="819.2" y2="0" >
<stop  offset="0" style="stop-color:#C4BDB9;stop-opacity:1" />
<stop  offset="1" style="stop-color:#E2D9D4;stop-opacity:1" />
</linearGradient>
<path style="fill:url(#LinearGradID_1597) " d="M42.85,69.65Q43.6 66.9 43.2 64.6Q44.85 64.55 46.85 60.75Q48.85 56.8 48.6 52.25L48.45 49.05L48.85 49.55Q51.9 58.2 47.95 66.8L47.95 66.95Q45.8 69.75 42.1 71.65L42.85 69.65" />
<linearGradient
id="LinearGradID_1598" gradientUnits="userSpaceOnUse" gradientTransform="matrix(0, -0.0147095, 0.0295715, 0, 35.5, 56.3)" spreadMethod ="pad" x1="-819.2" y1="0" x2="819.2" y2="0" >
<stop  offset="0" style="stop-color:#8E8178;stop-opacity:1" />
<stop  offset="1" style="stop-color:#746860;stop-opacity:1" />
</linearGradient>
<path style="fill:url(#LinearGradID_1598) " d="M43.2,64.6L43.15 64.6L43.05 64.4Q42.15 62.25 41 61.45Q39.8 60.6 36 60.25L8.7 59.25Q8.65 59.05 8.95 57.25Q9.2 55.45 9.95 52.65L20.15 52.95L35.65 53.6Q42.55 53.95 44.2 52.95Q45.85 51.9 46.65 50.5L47.7 48.5L47.75 48.35L48.2 46.9L48.45 49.05L48.6 52.25Q48.85 56.8 46.85 60.75Q44.85 64.55 43.2 64.6" />
<path style="fill:#3C3835;fill-opacity:1" d="M11.9,56.35L40.95 57.15Q42.7 57.4 43.25 58.05L43.9 59Q45.05 58.15 45.4 56.5L45.4 55.1Q45.15 56.45 29.45 55.85Q13.65 55.15 12.7 55.55Q11.7 55.9 11.9 56.35M10.75,57.55Q10.05 56.85 10.5 55.4L11.05 54.05L40.75 54.9Q44.6 54.9 45.75 54.15Q46.3 53.8 46.25 53.35Q47 56.85 45.5 59.35L43.8 61.1Q43.4 59.9 42.25 58.85L39.85 58.1L10.75 57.55" />
<path style="fill:#D41B1B;fill-opacity:1" d="M12.7,55.55Q13.65 55.15 29.45 55.85Q45.15 56.45 45.4 55.1L45.4 56.5Q45.05 58.15 43.9 59L43.25 58.05Q42.7 57.4 40.95 57.15L11.9 56.35Q11.7 55.9 12.7 55.55" />
</g>
</svg>
