<?xml version="1.0" encoding="utf-8"?>
<svg version="1.1" id="Layer_1"
xmlns="http://www.w3.org/2000/svg"
xmlns:xlink="http://www.w3.org/1999/xlink"
xmlns:author="http://www.sothink.com"
width="14px" height="11px"
xml:space="preserve">
<g id="1398" transform="matrix(1, 0, 0, 1, 0, 0)">
<path style="fill:#4A4131;fill-opacity:1" d="M13.45,7.5L13.75 8.45Q13.75 9 13.15 9.8L13.05 9.9Q12.5 10.55 11.4 10.65Q10.15 10.75 7.65 8.75Q5.15 6.75 3.9 6.1L1.3 4.7Q-0.1 3.95 0 2.7Q0.1 1.45 1.25 0.7Q2.35 -0.05 3.05 0Q3.75 0 6.25 1.45L7.45 2.15Q9.25 3.3 10.85 4.75L13.05 6.8L13.45 7.5M3.4,1.2Q2.45 1 1.8 2.05Q1.15 3.05 1.95 3.5L4 4.7L6.25 6.15L8.6 7.9L10.25 9.2L11.35 9.35L12.3 8.95L12.5 8.6Q12.8 7.9 11.2 6.45Q9.55 4.95 6.95 3.2L6.4 2.85L3.4 1.2" />
<path style="fill:#CCC6B8;fill-opacity:1" d="M9.5,6.65L5.35 3.95Q5.65 3.35 6.4 2.85L6.95 3.2Q9.55 4.95 11.2 6.45Q12.8 7.9 12.5 8.6L12.3 8.95L9.5 6.65" />
<path style="fill:#B3A38A;fill-opacity:1" d="M12.3,8.95L11.35 9.35L10.25 9.2L8.6 7.9L6.25 6.15L4 4.7L1.95 3.5Q1.15 3.05 1.8 2.05Q2.45 1 3.4 1.2L6.4 2.85Q5.65 3.35 5.35 3.95L9.5 6.65L12.3 8.95" />
</g>
</svg>
