<?xml version="1.0" encoding="utf-8"?>
<svg version="1.1" id="Layer_1"
xmlns="http://www.w3.org/2000/svg"
xmlns:xlink="http://www.w3.org/1999/xlink"
xmlns:author="http://www.sothink.com"
width="52px" height="43px"
xml:space="preserve">
<g id="3107" transform="matrix(1, 0, 0, 1, 27.45, 23.75)">
<linearGradient
id="LinearGradID_2919" gradientUnits="userSpaceOnUse" gradientTransform="matrix(-0.00704956, 0.00404358, -0.000991821, -0.00169373, 16.4, -13.95)" spreadMethod ="pad" x1="-819.2" y1="0" x2="819.2" y2="0" >
<stop  offset="0" style="stop-color:#918680;stop-opacity:0.498039" />
<stop  offset="0.517647" style="stop-color:#F5FDD8;stop-opacity:0.498039" />
<stop  offset="0.992157" style="stop-color:#918680;stop-opacity:0.498039" />
</linearGradient>
<path style="fill:url(#LinearGradID_2919) " d="M10.35,-9.8L11.8 -12.1L21.55 -19.2L19.35 -15.25L12.7 -10.45L10.35 -9.8" />
<linearGradient
id="LinearGradID_2920" gradientUnits="userSpaceOnUse" gradientTransform="matrix(-0.0063324, -0.0043335, 0.00102234, -0.00154114, 17.15, 7.8)" spreadMethod ="pad" x1="-819.2" y1="0" x2="819.2" y2="0" >
<stop  offset="0" style="stop-color:#918680;stop-opacity:0.498039" />
<stop  offset="0.517647" style="stop-color:#F5FDD8;stop-opacity:0.498039" />
<stop  offset="0.992157" style="stop-color:#918680;stop-opacity:0.498039" />
</linearGradient>
<path style="fill:url(#LinearGradID_2920) " d="M13.75,4.65L23.75 10L19.5 9.75L12.7 6.1L11.15 4.4L13.75 4.65" />
<linearGradient
id="LinearGradID_2921" gradientUnits="userSpaceOnUse" gradientTransform="matrix(0.00871277, 0.00500488, -0.00123596, 0.00215149, -18.6, -9.25)" spreadMethod ="pad" x1="-819.2" y1="0" x2="819.2" y2="0" >
<stop  offset="0" style="stop-color:#918680;stop-opacity:0.498039" />
<stop  offset="0.517647" style="stop-color:#F5FDD8;stop-opacity:0.498039" />
<stop  offset="0.992157" style="stop-color:#918680;stop-opacity:0.498039" />
</linearGradient>
<path style="fill:url(#LinearGradID_2921) " d="M-13.8,-5.5L-27.45 -11.4L-21.85 -11.6L-12.55 -7.5L-10.45 -5.4L-13.8 -5.5" />
<linearGradient
id="LinearGradID_2922" gradientUnits="userSpaceOnUse" gradientTransform="matrix(0.00140381, 0.00584412, -0.00143433, 0.000335693, -4.8, -19)" spreadMethod ="pad" x1="-819.2" y1="0" x2="819.2" y2="0" >
<stop  offset="0" style="stop-color:#918680;stop-opacity:0.498039" />
<stop  offset="0.517647" style="stop-color:#F5FDD8;stop-opacity:0.498039" />
<stop  offset="0.992157" style="stop-color:#918680;stop-opacity:0.498039" />
</linearGradient>
<path style="fill:url(#LinearGradID_2922) " d="M-5.1,-21.4L-3.05 -15.7L-3.1 -13.9L-4.5 -15.35L-7.5 -23.75L-5.1 -21.4" />
<linearGradient
id="LinearGradID_2923" gradientUnits="userSpaceOnUse" gradientTransform="matrix(-0.000946045, -0.00524902, 0.00125122, -0.000228882, 3.9, 13.95)" spreadMethod ="pad" x1="-819.2" y1="0" x2="819.2" y2="0" >
<stop  offset="0" style="stop-color:#918680;stop-opacity:0.498039" />
<stop  offset="0.517647" style="stop-color:#F5FDD8;stop-opacity:0.498039" />
<stop  offset="0.992157" style="stop-color:#918680;stop-opacity:0.498039" />
</linearGradient>
<path style="fill:url(#LinearGradID_2923) " d="M2.55,10.9L2.7 9.3L3.8 10.75L6 18.3L4.1 16.1L2.55 10.9" />
<linearGradient
id="LinearGradID_2924" gradientUnits="userSpaceOnUse" gradientTransform="matrix(0.0067749, -0.00491333, 0.00119019, 0.00163269, -14.5, 12.9)" spreadMethod ="pad" x1="-819.2" y1="0" x2="819.2" y2="0" >
<stop  offset="0" style="stop-color:#918680;stop-opacity:0.498039" />
<stop  offset="0.517647" style="stop-color:#F5FDD8;stop-opacity:0.498039" />
<stop  offset="0.992157" style="stop-color:#918680;stop-opacity:0.498039" />
</linearGradient>
<path style="fill:url(#LinearGradID_2924) " d="M-8.8,7.95L-10 10.55L-19.15 18.8L-17.4 14.5L-11.1 8.9L-8.8 7.95" />
</g>
</svg>
