<?xml version="1.0" encoding="utf-8"?>
<svg version="1.1" id="Layer_1"
xmlns="http://www.w3.org/2000/svg"
xmlns:xlink="http://www.w3.org/1999/xlink"
xmlns:author="http://www.sothink.com"
width="7px" height="7px"
xml:space="preserve">
<g id="2347" transform="matrix(1, 0, 0, 1, -33.95, -28.65)">
<path style="fill:#FFFFFF;fill-opacity:1" d="M37.25,33.7Q35.1 32.5 35.1 30.25L35.1 29.8L35.15 29.75Q35.9 28.9 37.15 28.9Q38.4 28.9 39.3 29.75Q40.1 30.65 40.1 31.9L39.8 33.15L39.75 33.3L39.3 33.9L38.75 34.3L37.25 33.7" />
<path style="fill:#DEDCDC;fill-opacity:1" d="M35.1,29.8L35.1 30.25Q35.1 32.5 37.25 33.7L38.75 34.3Q38.1 34.75 37.15 34.75Q35.9 34.75 35.15 33.9Q34.2 33.15 34.2 31.9Q34.2 30.85 34.85 30.05L35.1 29.8" />
<path style="fill:none;stroke-width:0.5;stroke-linecap:round;stroke-linejoin:round;stroke-miterlimit:3;stroke:#694A1F;stroke-opacity:1" d="M38.75,34.3L39.3 33.9L39.75 33.3L39.8 33.15L40.1 31.9Q40.1 30.65 39.3 29.75Q38.4 28.9 37.15 28.9Q35.9 28.9 35.15 29.75M38.75,34.3Q38.1 34.75 37.15 34.75Q35.9 34.75 35.15 33.9Q34.2 33.15 34.2 31.9Q34.2 30.85 34.85 30.05L35.1 29.8" />
</g>
</svg>
