<?xml version="1.0" encoding="utf-8"?>
<svg version="1.1" id="Layer_1"
xmlns="http://www.w3.org/2000/svg"
xmlns:xlink="http://www.w3.org/1999/xlink"
xmlns:author="http://www.sothink.com"
width="27px" height="16px"
xml:space="preserve">
<g id="406" transform="matrix(1, 0, 0, 1, 0, 0)">
<path style="fill:#B48C63;fill-opacity:1" d="M18.2,6L23.4 2.2L23.7 2.5L19.05 6.1L18.2 6.2L18.2 6M11.15,1.65L17.2 5.8L17.3 6.1Q16.45 5.95 13.25 3.6L10.95 1.95L11.15 1.65" />
<path style="fill:#ECC7A0;fill-opacity:1" d="M23.4,2.2L18.2 6L18.4 5.35L23.5 1.5L24.25 2.1L23.7 2.5L23.4 2.2M10.7,0.9L14.6 3.6L17.3 5.3L17.2 5.8L11.15 1.65L10.95 1.95L10.25 1.45L10.7 0.9" />
<path style="fill:#625037;fill-opacity:1" d="M18.2,6.2L18 6.2L17.8 6.2L17.4 6.15L17.3 6.1L17.2 5.8L17.3 5.3L14.6 3.6L10.7 0.9L10.25 1.45L9.2 0.8L9.25 0.7Q10.3 -0.4 11.15 0.2L12.2 0.9L14.6 2.65L17.5 4.6Q18.15 4.9 18.8 4.25L21.05 2.5L23.4 0.8Q23.8 0.45 24.9 1.55L24.25 2.1L23.5 1.5L18.4 5.35L18.2 6L18.2 6.2" />
<path style="fill:#1C202A;fill-opacity:1" d="M25.4,2L25.35 2L25.2 2.05L24.05 2.9L23.35 3.45L20.5 5.7L19.4 6.65L19.35 6.7L19.35 6.95L19.35 7.3L23.7 4L24.5 3.35L25.2 2.75L25.4 2.55L25.7 2.25L25.65 2.15Q25.6 1.95 25.4 2M10.25,1.45L10.95 1.95L13.25 3.6Q16.45 5.95 17.3 6.1L17.4 6.15L17.8 6.2L18 6.2L18.2 6.2L19.05 6.1L23.7 2.5L24.25 2.1L24.9 1.55L25.2 1.4L25.3 1.35L25.4 1.35L25.95 1.5L26.2 1.75L26.3 2.55L25.4 3.35L25.2 3.5L24.85 3.8L24.75 3.85L19.45 8.15L19.2 8.45L12.65 15L10.8 15.2L9.45 14.65L8.1 13.45L4.4 11.1L0.65 8.35L0 7.7Q-0.05 7.45 0.55 6.65L2.6 4.05L4.8 1.25Q5.6 0.25 6 0.25L7.25 0.2L8.6 0.4L9.2 0.8L10.25 1.45M7.5,0.9L10.25 3L15.35 6.65L15.55 6.45L15.6 5.95L13.35 4.55L11.25 3L10.6 2.55L9.5 1.75L8.15 0.8L7.9 0.85L7.5 0.9M13.7,9.6L12.05 11.3L10.15 13.25L9.85 13.65L9.9 13.9Q10 14.1 10.45 14.3L12.2 14.5L16.85 10L18 8.8L18.65 8.1L17.7 8.2L15.55 7.7L15.5 7.75L15.1 8.2L13.75 9.6L13.7 9.6M2.35,5.6L0.8 7.45L2.45 8.8L9.1 13.25L14.5 7.75L15 7.25L9.9 3.5L8.7 2.6L6.15 1.05Q4.8 2.35 4 3.5L2.75 5.05L2.35 5.6M18.7,6.65L18.05 6.7L17.5 6.7L17.35 6.65L16.35 6.4L16.2 6.75L16.1 6.9L16.05 7L16.45 7.25L17.8 7.55L18.75 7.35L18.7 6.85L18.7 6.65" />
<path style="fill:#61666C;fill-opacity:1" d="M25.65,2.15L19.35 6.95L19.35 6.7L19.4 6.65L20.5 5.7L23.35 3.45L24.05 2.9L25.2 2.05L25.35 2L25.4 2Q25.6 1.95 25.65 2.15M7.9,0.85L8.15 0.8L9.5 1.75L10.6 2.55L11.25 3L13.35 4.55L15.6 5.95L15.55 6.45L7.9 0.85M13.75,9.6L15.7 8.4L16.9 8.8L18 8.8L16.85 10L12.2 14.5L10.45 14.3Q10 14.1 9.9 13.9L9.85 13.65L10.15 13.25L12.05 11.3L13.7 9.6L13.75 9.6M14.2,9.6L10.3 13.5Q11 14.3 12.2 14.15L16.35 10.1L15.05 10L14.2 9.6M2.75,5.05L6.3 2.35L6.6 2.4L6.7 2.3L6.85 2.3L6.9 2.35L14.5 7.75L9.1 13.25L2.45 8.8L0.8 7.45L2.35 5.6L2.75 5.05M18.7,6.85L16.9 7L16.2 6.75L16.35 6.4L17.35 6.65L17.5 6.7L18.05 6.7L18.7 6.65L18.7 6.85M4.85,4.25L1.8 7.65L9.1 12.4L13.9 7.7Q9.35 8.8 6.7 6.9Q5.4 5.9 4.85 4.25" />
<path style="fill:#2D343C;fill-opacity:1" d="M25.65,2.15L25.7 2.25L25.4 2.55L25.2 2.75L24.5 3.35L23.7 4L19.35 7.3L19.35 6.95L25.65 2.15M7.9,0.85L15.55 6.45L15.35 6.65L10.25 3L7.5 0.9L7.9 0.85M15.05,10L16.35 10.1L12.2 14.15Q11 14.3 10.3 13.5L14.2 9.6L15.05 10M16.9,7L18.7 6.85L18.75 7.35L17.8 7.55L16.45 7.25L16.05 7L16.1 6.9L16.2 6.75L16.9 7M6.7,6.9Q9.35 8.8 13.9 7.7L9.1 12.4L1.8 7.65L4.85 4.25Q5.4 5.9 6.7 6.9" />
<path style="fill:#969BA1;fill-opacity:1" d="M16.9,8.8L15.7 8.4L13.75 9.6L15.1 8.2L15.5 7.75L15.55 7.7L17.7 8.2L18.65 8.1L18 8.8L16.9 8.8M6.9,2.35L6.85 2.3L6.7 2.3L6.6 2.4L6.3 2.35L2.75 5.05L4 3.5Q4.8 2.35 6.15 1.05L8.7 2.6L9.9 3.5L15 7.25L14.5 7.75L6.9 2.35" />
<path style="fill:#D0A15B;fill-opacity:1" d="M11.75,13.95L11.65 14.1L11.45 13.85L11.75 13.95" />
<path style="fill:#FCE1D7;fill-opacity:1" d="M14.5,13.45Q12.75 13.65 11.1 13.05L11.1 13.25Q11.1 13.65 11.45 13.85L11.65 14.1Q9.7 15.9 7.75 14.8L7.65 14.75Q7.6 13.85 8.05 13Q8.45 12.15 9.2 11.85L10.2 11.55L11.1 11.95Q12.45 12.6 14.3 12.35L16.45 11.95Q16.2 13.25 14.5 13.45" />
<path style="fill:#D08E76;fill-opacity:1" d="M6.05,11.65L6.05 11.4Q6.4 10.25 6.8 10.1L7.3 9.45L7.55 8.4Q7.75 7.85 8.65 7.8Q9.25 7.75 9.6 8.5L9.85 9.35L10.7 9.9Q12.75 11.1 16.05 10.4Q16.65 10.65 16.5 11.65L16.45 11.95L14.3 12.35Q12.45 12.6 11.1 11.95L10.2 11.55L9.2 11.85Q8.45 12.15 8.05 13Q7.6 13.85 7.65 14.75Q5.85 13.65 6.05 11.65" />
<path style="fill:#743F2B;fill-opacity:1" d="M11.45,13.85Q11.1 13.65 11.1 13.25L11.1 13.05Q12.75 13.65 14.5 13.45Q16.2 13.25 16.45 11.95L16.5 11.65Q16.65 10.65 16.05 10.4Q12.75 11.1 10.7 9.9L9.85 9.35L9.6 8.5Q9.25 7.75 8.65 7.8Q7.75 7.85 7.55 8.4L7.3 9.45L6.8 10.1Q6.4 10.25 6.05 11.4L6.05 11.65Q5.85 13.65 7.65 14.75L7.75 14.8Q9.7 15.9 11.65 14.1L11.75 13.95L11.45 13.85M12.45,9.6L15.95 9.7Q17.1 9.35 17.3 11L17.3 11.25L17.3 11.55Q17.25 12.45 16.75 13.05L16.45 13.35Q16 13.7 15.35 13.9L12.25 14.35L12.1 14.5Q11 15.75 9.5 15.95L7.75 15.7L6.6 14.9Q5.2 13.6 5.35 11.8Q5.4 10.75 5.8 10.15Q6.1 9.6 6.65 9.35Q6.55 8.8 6.9 8.1Q7.2 7.35 7.95 7.15L9.4 7.2Q10.1 7.4 10.65 8.95L12.45 9.6" />
</g>
</svg>
