<?xml version="1.0" encoding="utf-8"?>
<svg version="1.1" id="Layer_1"
xmlns="http://www.w3.org/2000/svg"
xmlns:xlink="http://www.w3.org/1999/xlink"
xmlns:author="http://www.sothink.com"
width="30px" height="19px"
xml:space="preserve">
<g id="2715" transform="matrix(1, 0, 0, 1, -25.5, -2.5)">
<path style="fill:#FFFFFF;fill-opacity:1" d="M53.6,5.95L55 6.45Q55.4 6.55 55.4 6.95L55.4 7.05L55.2 7.1Q52.2 6.5 49.4 5.35Q46.6 8.5 44.1 12.6L41.15 17.05L41.3 17Q41.55 17.1 41.4 17.25Q39.85 18.75 38.35 18.2Q37.9 18.3 38.45 19.7L38.55 19.9L39.25 20.45L40.1 19.35Q40.55 18.6 40.35 19L40.15 20.1L39.4 21.5L38.95 21.35Q37.4 19.7 36.5 17.85L36.5 17.8L36.7 17.65L36.05 17.15L35.15 16.5L34.2 15.85L32.1 14.3Q30.5 13.3 28.85 12.6Q28.3 13.15 26.85 13.3Q26.15 13.35 25.9 12.95L25.55 12.4L25.5 12.35L25.55 12.35L25.6 12.4Q25.45 11.5 27.3 11.55L31.7 9.45Q32.7 9.3 32.95 10.15Q33.65 12.2 35.4 15.35L36.15 16.1Q37.45 16.8 38.75 17.3L40.1 16.75Q40.9 16 41.95 11.9Q43.9 6.95 46.6 2.9L47.15 2.5Q49.2 3.35 50.35 4.05L54.5 6.15L54.5 6.2L53.6 5.95M49.3,4.6L49.4 4.55L49.5 4.6L49.25 4.45L49.3 4.6M47.05,3.35Q45.55 5.7 44.6 7.55L43.15 10.6L42.1 14.25Q44.25 9.85 46.25 7.2L48.4 4.5Q48.7 4.3 48.35 4L47.05 3.35M37.65,18L37.55 18L37.6 18.1L37.65 18.3L37.65 18M35.05,15L34.45 14.5L34.9 14.85L35.05 15M33.65,13.85Q34.2 14.45 33.25 12.4Q32.2 10.45 32.2 9.95L28.2 11.55Q30.1 11.45 31.95 12.8Q32.8 13.25 33.65 13.85" />
</g>
</svg>
