<?xml version="1.0" encoding="utf-8"?>
<svg version="1.1" id="Layer_1"
xmlns="http://www.w3.org/2000/svg"
xmlns:xlink="http://www.w3.org/1999/xlink"
xmlns:author="http://www.sothink.com"
width="14px" height="10px"
xml:space="preserve">
<g id="329" transform="matrix(1, 0, 0, 1, -0.2, -0.15)">
<path style="fill:#272727;fill-opacity:1" d="M13.1,3L13.3 3.6Q13.5 4.4 13.05 5.4Q12.3 6.95 11.1 7.95Q9.8 8.95 8.4 9.45L4.4 9.3Q1.85 8.65 1 7.65Q0.05 6.65 0.2 5.7L0.25 5.25L0.3 5Q1.15 1.05 5.65 0.25L5.8 0.25Q8.4 -0.1 10.2 0.65Q11.95 1.35 12.85 2.55L13.1 3M1.35,5.75L1.4 6.3L2.3 7.25Q2.9 7.75 3.95 8.1L6.65 8.65Q8.4 8.8 10.25 7.4Q12.1 6.05 12.3 4.6L12.35 4.05L11.95 2.75L11 1.9Q9.35 0.65 5.75 1.15Q2.05 2.25 1.45 4.55L1.35 5.75" />
<path style="fill:#6D6D6D;fill-opacity:1" d="M1.35,5.75L1.45 4.55L1.65 4.4Q3.3 3.3 3.9 3.1L4.4 3.1L4.85 3.9L5.75 4.15L7 3.25Q7.8 2.4 10.15 2.4L11.95 2.75L12.35 4.05L11.95 4.5Q9.95 6.4 7 6.4L5.25 6.3Q5.7 6.75 6.25 6.9L6.25 7L5.05 7.05Q3.4 7.05 1.35 5.75" />
<path style="fill:#9A9A9A;fill-opacity:1" d="M10.15,2.4Q7.8 2.4 7 3.25L5.75 4.15L4.85 3.9L4.4 3.1L3.9 3.1Q3.3 3.3 1.65 4.4L1.45 4.55Q2.05 2.25 5.75 1.15Q9.35 0.65 11 1.9L11.95 2.75L10.15 2.4" />
<path style="fill:#3F3F3F;fill-opacity:1" d="M5.05,7.05L6.25 7L6.25 6.9Q5.7 6.75 5.25 6.3L7 6.4Q9.95 6.4 11.95 4.5L12.35 4.05L12.3 4.6Q12.1 6.05 10.25 7.4Q8.4 8.8 6.65 8.65L3.95 8.1Q2.9 7.75 2.3 7.25L1.4 6.3L1.35 5.75Q3.4 7.05 5.05 7.05" />
</g>
</svg>
