<?xml version="1.0" encoding="utf-8"?>
<svg version="1.1" id="Layer_1"
xmlns="http://www.w3.org/2000/svg"
xmlns:xlink="http://www.w3.org/1999/xlink"
xmlns:author="http://www.sothink.com"
width="123px" height="23px"
xml:space="preserve">
<g id="153" transform="matrix(1, 0, 0, 1, -59, -5.15)">
<linearGradient
id="LinearGradID_313" gradientUnits="userSpaceOnUse" gradientTransform="matrix(0, 0.00804138, -0.00544739, 0, 63.45, 9.9)" spreadMethod ="pad" x1="-819.2" y1="0" x2="819.2" y2="0" >
<stop  offset="0" style="stop-color:#FAED2D;stop-opacity:1" />
<stop  offset="1" style="stop-color:#FFFEF3;stop-opacity:1" />
</linearGradient>
<path style="fill:url(#LinearGradID_313) " d="M169.45,17.65L162.85 5.5L168.7 5.5L172.8 13.65L176.85 5.5L181.4 5.5L174.85 17.6L169.45 17.65M153.25,9.3L150.2 9.3L150.2 14.8L153.35 14.8L155.55 14.55L156.7 13.65Q157.25 12.9 157.25 12Q157.25 11.05 156.7 10.4Q156.25 9.6 155.6 9.5L153.25 9.3M145.15,17.75L145.15 5.5L154.65 5.5Q157.25 5.5 158.8 6.1Q160.35 6.7 161.45 8.35Q162.45 9.95 162.45 11.95Q162.45 15.8 158.75 17.45L158.85 17.7L145.15 17.75M136.55,17.8L136.65 16.25Q136.65 9.25 132.8 9.25Q128.85 9.25 128.85 16.25L128.9 17.85L123.7 17.85L123.55 16.2Q123.55 11.45 126 8.35Q128.4 5.15 132.85 5.15Q137.3 5.15 139.65 8.55Q141.9 11.9 141.9 16.25L141.85 17.8L136.55 17.8M112,17.95L112 9.75L106.65 9.75L106.65 5.5L122.45 5.5L122.45 9.75L117.1 9.75L117.1 17.9L112 17.95M87.7,18.05L87.55 16.25Q87.55 11.35 90.15 8.3Q92.75 5.15 97.2 5.15Q105 5.15 105.95 13.5L100.7 13.8Q100.55 9.25 97.15 9.25Q93.15 9.25 93.15 16.3L93.2 18.05L87.7 18.05M79.25,18.1L79.25 5.5L84.3 5.5L84.3 18.1L79.25 18.1M69.45,18.15L73.1 5.5L77.35 5.5L73.55 18.15L69.45 18.15M62.8,18.2L59 5.5L64.35 5.5L67.9 18.15L62.8 18.2" />
<path style="fill:#EEBE23;fill-opacity:1" d="M174.85,17.6L174.6 17.95L174.6 27L169.6 27L169.6 17.95L169.45 17.65L174.85 17.6M158.85,17.7L162.75 27L157.15 27L153.85 18.5L150.2 18.5L150.2 27L145.15 27L145.15 17.75L158.85 17.7M136.55,17.8L141.85 17.8Q141.5 21.45 139.55 24.1Q137.2 27.3 132.65 27.3Q128.35 27.3 125.95 24.1Q124 21.4 123.7 17.85L128.9 17.85Q129.3 23.2 132.8 23.2Q136.2 23.2 136.55 17.8M117.1,17.9L117.1 27L112 27L112 17.95L117.1 17.9M93.2,18.05Q93.4 20.65 94.25 21.75Q95.3 23.2 97.25 23.2Q100.35 23.2 101.05 19.15L105.95 19.45Q105.45 23.25 103.05 25.3Q100.7 27.3 97.2 27.3Q92.9 27.3 90.25 24.35Q88.05 22 87.7 18.05L93.2 18.05M84.3,18.1L84.3 27L79.25 27L79.25 18.1L84.3 18.1M67.9,18.15L68.65 20.85L69.45 18.15L73.55 18.15L70.85 27L65.45 27L62.8 18.2L67.9 18.15" />
</g>
</svg>
