<?xml version="1.0" encoding="utf-8"?>
<svg version="1.1" id="Layer_1"
xmlns="http://www.w3.org/2000/svg"
xmlns:xlink="http://www.w3.org/1999/xlink"
xmlns:author="http://www.sothink.com"
width="22px" height="21px"
xml:space="preserve">
<g id="412" transform="matrix(1, 0, 0, 1, 0, 0)">
<path style="fill:#FFFFFF;fill-opacity:1" d="M10.9,3.45Q10.7 2.65 11.4 2.6Q12.35 3.15 12.95 4.2Q13.25 4.75 12.95 5.1Q12.65 5.4 12 4.95Q11.15 4.3 10.9 3.45M16.9,8.3Q16.25 7.9 16.65 7.25Q18.25 7.2 18.6 7.95Q18.9 8.7 18.25 8.7Q17.6 8.7 16.9 8.3M3.45,8.2Q6.05 6.75 5.4 8.85L4.85 9.3Q2.8 9.95 3.45 8.2" />
<path style="fill:#FC9027;fill-opacity:1" d="M8.2,12.25L9.2 12.5L15.3 12.85L16.15 14.35L16.75 16.05L16.85 17.8Q16.7 18.7 15.15 18.1Q13.85 17.7 12.7 16.85L10.75 15.5L8.95 16.85L6.55 18.15L5.55 18.25Q5.2 18.1 5.1 17.3Q5 16.85 5.05 15.8L5.25 14L4.65 12.85L4 10.8L5.25 11.3L8.2 12.25" />
<linearGradient
id="LinearGradID_520" gradientUnits="userSpaceOnUse" gradientTransform="matrix(-0.00508118, -0.00787354, 0.0112305, -0.00738525, 10.25, 10.45)" spreadMethod ="pad" x1="-819.2" y1="0" x2="819.2" y2="0" >
<stop  offset="0.00392157" style="stop-color:#7C1B00;stop-opacity:1" />
<stop  offset="1" style="stop-color:#CD632F;stop-opacity:1" />
</linearGradient>
<path style="fill:url(#LinearGradID_520) " d="M20.5,10.55Q19.55 12.1 17.8 13.05Q18.95 15.95 18.85 17.8Q18.75 19.65 17.9 20.15L15.6 20.3Q14.2 19.95 12.75 18.9Q11.3 17.8 10.15 18.4L7 20.35Q5.5 20.95 4.4 20.35Q3.35 19.8 2.9 17.95Q2.45 16.05 3.25 13.5L2.4 12.9L1.8 12.35L0.65 11.1Q-0.05 10.15 0 9.1Q0.05 8.05 1.55 7.15Q3.05 6.25 5.6 5.8Q6.65 2.6 8.7 0.85Q10.55 -1 12.6 1.2Q14.55 3.25 14.9 5.05Q17.05 5.2 18.75 6.05Q20.5 6.85 21 8Q21.5 9.05 20.5 10.55M13.95,5.6Q13.45 3.95 12.75 2.9L11.05 1.2Q10.15 0.55 8.8 2.1Q7.45 3.65 7.05 5.15Q6.6 6.6 6.05 6.9L4.6 7.25Q3.7 7.3 2.5 7.95Q1.2 8.55 1.2 9.45Q1.1 10.3 1.9 11.25L3.75 12.65Q4.7 13.2 4.1 14.8Q3.45 16.35 3.95 17.9Q4.4 19.4 5.3 19.55Q6.15 19.75 7.15 19.2L9.8 17.5L10.4 17.15L11.1 17.05Q11.8 17.05 12.8 17.9Q13.75 18.7 15.2 19.15L17.3 19.25Q17.95 18.8 17.95 17.5Q17.95 16.15 17.2 14.4Q16.45 12.6 17.1 12.35L18.4 11.6Q19.75 10.65 20.1 9.5Q20.3 8.8 20.1 8.35L19.15 7.4Q17.7 6.55 15.95 6.15L14.55 5.9Q14 5.8 13.95 5.6" />
<linearGradient
id="LinearGradID_521" gradientUnits="userSpaceOnUse" gradientTransform="matrix(-0.00469971, -0.00776672, 0.00985718, -0.00605774, 12.05, 13.4)" spreadMethod ="pad" x1="-819.2" y1="0" x2="819.2" y2="0" >
<stop  offset="0" style="stop-color:#FFC50B;stop-opacity:1" />
<stop  offset="1" style="stop-color:#FFF351;stop-opacity:1" />
</linearGradient>
<path style="fill:url(#LinearGradID_521) " d="M12,4.95Q12.65 5.4 12.95 5.1Q13.25 4.75 12.95 4.2Q12.35 3.15 11.4 2.6Q10.7 2.65 10.9 3.45Q11.15 4.3 12 4.95M14.55,5.9L15.95 6.15Q17.7 6.55 19.15 7.4L20.1 8.35Q20.3 8.8 20.1 9.5Q19.75 10.65 18.4 11.6L17.1 12.35Q16.45 12.6 17.2 14.4Q17.95 16.15 17.95 17.5Q17.95 18.8 17.3 19.25L15.2 19.15Q13.75 18.7 12.8 17.9Q11.8 17.05 11.1 17.05L10.4 17.15L9.8 17.5L7.15 19.2Q6.15 19.75 5.3 19.55Q4.4 19.4 3.95 17.9Q3.45 16.35 4.1 14.8Q4.7 13.2 3.75 12.65L1.9 11.25Q1.1 10.3 1.2 9.45Q1.2 8.55 2.5 7.95Q3.7 7.3 4.6 7.25L6.05 6.9Q6.6 6.6 7.05 5.15Q7.45 3.65 8.8 2.1Q10.15 0.55 11.05 1.2L12.75 2.9Q13.45 3.95 13.95 5.6Q14 5.8 14.55 5.9M18.25,8.7Q18.9 8.7 18.6 7.95Q18.25 7.2 16.65 7.25Q16.25 7.9 16.9 8.3Q17.6 8.7 18.25 8.7M4.85,9.3L5.4 8.85Q6.05 6.75 3.45 8.2Q2.8 9.95 4.85 9.3M5.25,11.3L4 10.8L4.65 12.85L5.25 14L5.05 15.8Q5 16.85 5.1 17.3Q5.2 18.1 5.55 18.25L6.55 18.15L8.95 16.85L10.75 15.5L12.7 16.85Q13.85 17.7 15.15 18.1Q16.7 18.7 16.85 17.8L16.75 16.05L16.15 14.35L15.3 12.85L9.2 12.5L8.2 12.25L5.25 11.3" />
</g>
</svg>
