<?xml version="1.0" encoding="utf-8"?>
<svg version="1.1" id="Layer_1"
xmlns="http://www.w3.org/2000/svg"
xmlns:xlink="http://www.w3.org/1999/xlink"
xmlns:author="http://www.sothink.com"
width="34px" height="37px"
xml:space="preserve">
<g id="1090" transform="matrix(1, 0, 0, 1, 0, -8)">
<path style="fill:#CBB4AC;fill-opacity:1" d="M5.95,24L5.75 24.55L5.95 23.9L5.95 24" />
<path style="fill:#FFFFFF;fill-opacity:1" d="M24.45,40.8L27.5 36.85Q30.3 31.85 30.8 24.85L32.05 23.8Q32.2 27.25 31.35 30.35Q30.25 34.3 28.95 36.8L27.05 39.7Q25.55 40.75 24.45 40.8M16.45,38.35L15.8 38.45L14.35 38.85L13.1 39.2Q10.35 38.8 8.3 37.55L10.3 37.7Q13.25 37.7 15.8 36.55L16.6 36.15Q17.65 35.6 19.35 33.65Q19.4 35.45 18.4 36.6L17 38.1L16.45 38.35" />
<path style="fill:#E9DBD2;fill-opacity:1" d="M27.5,36.85L24.45 40.8L24.4 40.8Q23.3 40.85 22.55 39.35L22.3 38.85Q21.95 38.15 20.7 37.3Q19.4 36.4 18.4 36.6Q19.4 35.45 19.35 33.65Q17.65 35.6 16.6 36.15L15.8 36.55Q13.25 37.7 10.3 37.7L8.3 37.55Q6.65 36.45 5.45 34.8L4.15 32.6Q2.8 29.65 2.6 25.55L3.9 25L4.6 24.7L5.55 24.5Q5.3 24.85 5.2 25.3Q4.95 25.9 4.95 26.65Q4.95 29.05 7.65 30.4Q9.45 31.3 10.65 31.3L13.4 31L14.85 29.95L14.75 30Q13.2 30.85 10.7 30.05Q8.35 29.25 7.1 27.5Q5.8 25.7 5.95 24L5.95 23.9L6.75 22.75Q9.8 21.9 10.95 22.2L11.25 22.3L15.15 23.65L16.45 24.15L16.8 24.3L20.9 26.3L22.85 27.6Q24.5 28.7 25.3 28.4L26.55 27.75L30.8 24.85Q30.3 31.85 27.5 36.85" />
<path style="fill:#A8938C;fill-opacity:1" d="M30.8,24.85L26.55 27.75L25.3 28.4Q24.5 28.7 22.85 27.6L20.9 26.3L16.8 24.3L16.45 24.15L15.15 23.65L11.25 22.3L10.95 22.2Q9.8 21.9 6.75 22.75L5.95 23.9L5.75 24.55L5.95 24Q5.8 25.7 7.1 27.5Q8.35 29.25 10.7 30.05Q13.2 30.85 14.75 30L14.85 29.95L13.4 31L10.65 31.3Q9.45 31.3 7.65 30.4Q4.95 29.05 4.95 26.65Q4.95 25.9 5.2 25.3Q5.3 24.85 5.55 24.5L4.6 24.7L3.9 25L2.6 25.55Q2.8 29.65 4.15 32.6L5.45 34.8Q6.65 36.45 8.3 37.55Q10.35 38.8 13.1 39.2L9.9 39.3Q7.65 39 6.2 37.85Q3.35 35.55 2.25 32.6Q1.1 29.55 1.8 25.75L2.25 23.75L2.55 23.75L2.75 23.75Q4.15 23.65 5.15 22.6L5.85 21.7L6.25 21.05L8.15 17.1Q10.1 12.35 14.25 10.7Q18.55 8.9 22.9 9.8Q25 10.25 26.65 11.5Q27.9 12.45 28.95 13.9Q31.2 17.05 31.85 21.35L31.9 21.8L32.05 23.8L30.8 24.85M27.05,39.7L25.65 41.25Q23.6 43.25 22.65 42.4Q21.65 41.55 21.1 40.1Q20.55 38.7 18.75 38.4L18.6 38.35L18.4 38.35Q17.45 38.2 16.45 38.35L17 38.1L18.4 36.6Q19.4 36.4 20.7 37.3Q21.95 38.15 22.3 38.85L22.55 39.35Q23.3 40.85 24.4 40.8L24.45 40.8Q25.55 40.75 27.05 39.7" />
<path style="fill:#564C48;fill-opacity:1" d="M14.35,38.85L15.8 38.45L16.45 38.35Q17.45 38.2 18.4 38.35L18.6 38.35L18.75 38.4Q20.55 38.7 21.1 40.1Q21.65 41.55 22.65 42.4Q23.6 43.25 25.65 41.25L27.05 39.7L28.95 36.8Q30.25 34.3 31.35 30.35Q32.2 27.25 32.05 23.8L31.9 21.8L31.85 21.35Q31.2 17.05 28.95 13.9Q27.9 12.45 26.65 11.5Q25 10.25 22.9 9.8Q18.55 8.9 14.25 10.7Q10.1 12.35 8.15 17.1L6.25 21.05L5.85 21.7L5.15 22.6Q4.15 23.65 2.75 23.75L2.55 23.75L2.25 23.75L1.8 25.75Q1.1 29.55 2.25 32.6Q3.35 35.55 6.2 37.85Q7.65 39 9.9 39.3L13.1 39.2L14.35 38.85M28.1,10.7Q30.35 12.6 31.7 15.6L31.95 16.3Q33 19.55 33.35 22.65Q33.6 25.45 33.3 28.1Q32.7 33.15 30.05 37.8L29.7 38.45Q26.7 43.4 24.3 44.25Q21.85 45.05 20.95 42.85Q20 40.6 18.55 40.2L15.6 40.3L15.2 40.4L11.4 41.25Q9.5 41.45 6.75 40.15L5.45 39.4Q3.2 37.85 1.5 34.55L0.7 32.6Q0.15 31.05 0.05 29.45Q-0.1 27.3 0.2 25.55L0.45 24.5Q1 22.35 1.35 22.15L2.65 22.05L2.85 22.05L3.25 22L4.4 21.1L4.65 20.7L5.65 18.7Q7.55 13.1 11.3 10.6Q14.85 8.2 21.2 8Q25.55 8.5 28.1 10.7" />
</g>
</svg>
