<?xml version="1.0" encoding="utf-8"?>
<svg version="1.1" id="Layer_1"
xmlns="http://www.w3.org/2000/svg"
xmlns:xlink="http://www.w3.org/1999/xlink"
xmlns:author="http://www.sothink.com"
width="71px" height="65px"
xml:space="preserve">
<g id="921" transform="matrix(1, 0, 0, 1, 0, 0)">
<path style="fill:#FBFFFC;fill-opacity:1" d="M54.5,16L47.5 23.75L51.5 23L50 26L60.5 22.5L54.25 29L49 30.25L56 31L60.25 34L49 34L50.75 34.75L60 37.5L71 44.25L63.25 44.25L69.5 50.25L48.25 44.75L60 58L62.75 62.25L50.75 56.25L55.5 65L42.5 53.75L38.25 64.75L34.25 59L34.75 55.5L31 51.25L27 62L25 52L20.25 60.25L17.25 52.75L19.5 49L10 52.5L14.5 46L8.5 49.25L13.5 43.25L13.25 40.25L4.75 37.25L9.5 34L13 33.25L6.25 31.75L0 25L12 25.75L3.25 13.75L7.75 13.75L6.5 10L10.4 13.4L14.5 16.75L9.75 5.75L18.5 15L18.25 0L24.75 8.5L27.75 15.75L28.5 7.5L32.25 0L32.5 15L34.5 14.75L35 18.25L42.5 6.75L41.75 16L50.25 9.75L56.75 11.25L44.75 21.25L54.5 16" />
</g>
</svg>
