<?xml version="1.0" encoding="utf-8"?>
<svg version="1.1" id="Layer_1"
xmlns="http://www.w3.org/2000/svg"
xmlns:xlink="http://www.w3.org/1999/xlink"
xmlns:author="http://www.sothink.com"
width="74px" height="93px"
xml:space="preserve">
<g id="234" transform="matrix(1, 0, 0, 1, 0.95, 1.2)">
<path style="fill:#FFFFFF;fill-opacity:1" d="M35.75,-1.2L36.05 -1.2L36.35 -1.2L36.35 -1.15Q39.15 -0.95 44.15 0.25Q49.7 1.55 60.15 6.25Q70.65 10.9 71.9 13.6Q73.2 16.3 73.05 22.95Q72.95 29.6 71.7 43.95Q70.5 58.3 68.7 65.6Q67.65 70.05 65.4 73.4Q64.05 75.3 62.25 76.8Q57.6 80.8 48.3 86L46.3 87.15Q38.8 91.25 36.7 91.3L36 91.3L35.4 91.3Q33.3 91.25 25.8 87.15L23.8 86Q14.5 80.8 9.85 76.8Q8.05 75.3 6.7 73.4Q4.45 70.05 3.4 65.6Q1.6 58.3 0.4 43.95Q-0.85 29.6 -0.95 22.95Q-1.1 16.3 0.2 13.6Q1.45 10.9 11.95 6.25Q22.4 1.55 27.95 0.25L35.75 -1.15L35.75 -1.2M65.5,15.7Q63.85 14.45 57.6 11.35Q51.4 8.2 43.5 5.8Q43.9 7.1 45.05 8.65L45.1 8.85L43.1 10.65L56.4 18.6Q58.4 25.9 58.5 33.8L58.35 40.9L53.15 20L44.6 15.9L44.5 15.9L36.35 23.6L36.35 24.15L36.05 23.9L35.75 24.15L35.75 23.6L27.6 15.9L27.5 15.9L18.95 20L13.75 40.9Q13.55 37.35 13.6 33.8Q13.7 25.9 15.7 18.6L29 10.65L27 8.85L27.05 8.65Q28.2 7.1 28.6 5.8Q20.7 8.2 14.5 11.35Q8.25 14.45 6.6 15.7Q4.9 16.9 4.65 19.85Q4.4 22.8 5.55 38.9Q9.45 40.35 13.3 45Q17.15 49.6 17.15 59.1Q20.75 58.25 23.85 55.8Q22.4 58.7 20.95 60.15Q18.45 62.6 14.9 62.6Q14.8 54.2 11.55 48.25L10.95 47.2Q8.7 43.55 5.85 42.55Q6.65 51.5 8.2 59.2L10.35 69.3Q13.7 73.25 15.35 74.35Q15.3 72.7 15.8 71.1Q17.65 64.95 27.25 66.5Q25.85 66.65 23.95 67.45Q22.05 68.15 21.1 71.8Q20.15 75.45 23.3 79.55Q26.95 81.85 27.55 82.15Q31.75 84.55 35.5 80.9L35.75 80.65L35.75 80L36.05 80.3L36.35 80L36.35 80.65L36.6 80.9Q40.35 84.55 44.55 82.15L48.8 79.55Q51.95 75.45 51 71.8Q50.05 68.15 48.15 67.45Q46.25 66.65 44.85 66.5Q54.45 64.95 56.3 71.1Q56.8 72.7 56.75 74.35Q58.4 73.25 61.75 69.3L63.9 59.2Q65.45 51.5 66.25 42.55Q63.4 43.55 61.15 47.2L60.55 48.25Q57.3 54.2 57.2 62.6Q53.65 62.6 51.15 60.15Q49.7 58.7 48.25 55.8Q51.35 58.25 54.95 59.1Q54.95 49.6 58.8 45Q62.65 40.35 66.55 38.9Q67.7 22.8 67.45 19.85Q67.2 16.9 65.5 15.7M49.4,45.4Q45.2 53.8 36.35 53.9L35.75 53.9Q26.95 53.8 22.7 45.4L29.1 37.25L23.7 35.1L22.2 34.05L21.45 25.25L36.1 32.65L50.65 25.25L49.9 34.05L48.4 35.1L43 37.25L49.4 45.4M40.5,38.25L36.35 39.9L36.35 40.15L36.05 40.05L35.75 40.15L35.75 39.9L31.6 38.25L27 44.4Q31.45 48.75 35.75 48.85L36.1 48.85L36.35 48.85Q40.65 48.75 45.1 44.4L40.5 38.25M35.75,62.3L36.05 62.35L36.35 62.3L36.35 62.4Q38 62.65 39.25 64.1Q40.8 65.95 40.8 68.5Q40.8 71.05 39.25 72.85Q38 74.35 36.35 74.65L36.35 74.7L36.05 74.7L35.75 74.7L35.75 74.65Q34.1 74.35 32.85 72.85Q31.3 71.05 31.3 68.5Q31.3 65.95 32.85 64.1Q34.1 62.65 35.75 62.4L35.75 62.3" />
</g>
</svg>
