<?xml version="1.0" encoding="utf-8"?>
<svg version="1.1" id="Layer_1"
xmlns="http://www.w3.org/2000/svg"
xmlns:xlink="http://www.w3.org/1999/xlink"
xmlns:author="http://www.sothink.com"
width="23px" height="64px"
xml:space="preserve">
<g id="1954" transform="matrix(1, 0, 0, 1, 0, 0)">
<linearGradient
id="LinearGradID_1976" gradientUnits="userSpaceOnUse" gradientTransform="matrix(-0.0931091, 0, 0, -0.00378418, 84.3, 3.5)" spreadMethod ="pad" x1="-819.2" y1="0" x2="819.2" y2="0" >
<stop  offset="0" style="stop-color:#CEF759;stop-opacity:0.34902" />
<stop  offset="1" style="stop-color:#CEF759;stop-opacity:0.101961" />
</linearGradient>
<path style="fill:url(#LinearGradID_1976) " d="M19.6,9.35Q23 18.7 23 31.9Q23 45.1 19.6 54.45Q16.25 63.8 11.5 63.8Q6.75 63.8 3.35 54.45Q0 45.1 0 31.9Q0 18.7 3.35 9.35Q6.75 0 11.5 0Q16.25 0 19.6 9.35M11.9,12.35Q9.65 12.35 8.05 18.1Q6.45 23.8 6.45 31.9Q6.45 40 8.05 45.7Q9.65 51.45 11.9 51.45Q14.25 51.45 15.9 45.7Q17.5 40 17.5 31.9Q17.5 23.8 15.9 18.1Q14.25 12.35 11.9 12.35" />
</g>
</svg>
