<?xml version="1.0" encoding="utf-8"?>
<svg version="1.1" id="Layer_1"
xmlns="http://www.w3.org/2000/svg"
xmlns:xlink="http://www.w3.org/1999/xlink"
xmlns:author="http://www.sothink.com"
width="26px" height="28px"
xml:space="preserve">
<g id="1441" transform="matrix(1, 0, 0, 1, 0, 0)">
<path style="fill:#20171A;fill-opacity:1" d="M9.9,20.55L10.3 18.5L10.45 17.9Q11.05 15.6 11.75 14.65Q12.5 13.55 12.7 14.1Q13.55 16.35 13.35 18.3L13.3 18.6Q13.05 20.1 11.7 21.1L10.95 21.5L10.45 21.75Q10.1 23.2 10.35 24.95Q12.1 26.2 14.4 26.25L16.6 25.8L16.9 24.7L17.2 23.65L18.65 23.95L17.65 26.6Q15.4 28.2 12.15 27Q8.85 25.75 6.4 24.45Q3.95 23.15 1.45 22.1Q-2.1 17.5 3.05 16.25L3.6 12.45Q6.3 8.5 7.65 6.85L7.35 7.6L6.75 10L4.9 11.8L4.25 17Q4.1 17.65 2.7 17.85Q1.25 18.05 1.25 18.95Q1.25 19.8 2.3 21.2L2.35 21.25L4.3 22Q6.1 22.7 9.4 24.4L9.45 24.1Q9.55 22.3 9.9 20.6L9.9 20.55M11.25,17.8Q10.85 19.2 10.6 20.85Q11.15 20.75 11.7 20.25L12.75 18.7L12.75 18.05Q12.65 15.75 12.3 14.9Q11.65 16.15 11.25 17.8" />
<path style="fill:#5D4E54;fill-opacity:1" d="M17.15,23.65L17.1 23.65L15.55 23.45Q15.85 24.6 14.5 24.15L14.5 24.05Q14.45 23.6 14.75 23.4L13.9 23.35L13.6 22.9L13.45 22.8Q13.05 22.95 12.9 23.2Q12.15 22.9 11.9 22.1L11.7 21.1Q13.05 20.1 13.3 18.6L13.35 18.3Q13.55 16.35 12.7 14.1Q12.5 13.55 11.75 14.65Q11.05 15.6 10.45 17.9L10.3 18.5L9.9 20.55L9.1 19.3Q8.8 19.55 8.3 19.3L8.25 19.2Q8.1 18.65 8.55 18.45L8.45 18.3L9.05 16.3L9.65 14.35L9.65 14.65L9.7 14.75Q11.35 14.65 10.3 13.5L10.3 13.45L9.75 13.9L10 12.8L9.45 12.7L9.3 12.2Q9.3 11.8 9.45 11.45L9.55 11.4L10.05 11.3L10.05 11.35L10.3 11.45L10.55 10.15L10.6 10.05Q11.7 10.25 11.85 9L11.65 8.7L11.3 8.55L10.95 8.6Q11.35 7.55 11.9 6.75L12.35 6.8L13.85 7L13.9 7.05Q14.9 7.8 14.9 8.1L14.7 9.2L15.1 9.45Q15.65 10.05 15.2 10.7L14.65 10.95L14.75 11.35Q14.3 11.45 14.4 12.05L14.4 12.15Q14.65 12.45 15.05 12.35L15.4 15.1L15.4 15.15L15.3 15.4L14.65 16.6L16.4 14.65L17.85 13.3Q18.95 12.1 18.95 9.4Q18.95 8.55 18.6 7.6Q18.25 6.6 18.25 6.3Q18.4 5.3 18.7 4.25Q19.35 3.85 20.1 3.75Q20.25 3.4 20.8 3.3L21.05 3.55L21.1 3.7L21.25 3.7L21.95 6.5L22.2 6.45L22.25 6.6Q22.6 7.3 22.25 7.55L22.3 7.75Q22.9 10.2 22.9 12Q22.9 14.35 21.55 17.1Q20.9 18.35 20.6 19.2L18.75 21.7L17.45 23.35L17.2 23.65L17.15 23.65M20.3,8.45Q19.15 9.65 20.25 10.8L20.45 10.85Q21.25 10.15 21.25 8.9L20.3 8.45M20.45,12.05Q19.95 12.4 19.9 12.95L19.95 13.05Q20.4 13.4 20.85 13.05Q20.95 12.5 20.6 12.2L20.45 12.05M20.3,13.8L19.45 14.5L19.45 14.45L19.4 14.55L18.25 15.55L18.25 15.6L19.35 15.5L19.6 15.9L19.7 15.95Q20.3 15.45 20 15L20.4 13.9L20.3 13.8M12.4,11.9Q13.7 12.45 13.6 11L13.45 10.8Q12.4 10.85 12.4 11.8L12.4 11.9M8.35,13.2Q8.25 14.1 7.45 14L7.4 13.9Q7.15 13.05 7.95 12.8L8.05 12.85L8.35 13.2M7.55,19.3L7.65 19.35Q8.25 20.4 7.1 20.3L6.9 20.05L6.95 19.5L7.05 19.4L7.55 19.3M14.15,19.9L14.15 20L15.35 20.05Q15.65 19.65 15.35 19.2L15.05 19Q14.15 19.05 14.15 19.9M12.55,24.65Q13.3 25.45 12.3 25.55L12.25 25.55Q11.7 24.95 12.45 24.55L12.55 24.65M17.2,18.75Q16.15 18.75 16.3 19.7L16.3 19.8Q17.65 20.15 17.35 18.85L17.2 18.75" />
<path style="fill:#3A2E32;fill-opacity:1" d="M9.9,20.6Q9.55 22.3 9.45 24.1L7.35 22.1Q6.05 20.7 6.05 19.9Q6.05 19.25 6.2 18.85L5.3 18.8L5.3 18.7Q5.15 17.7 6.3 17.7L6.65 17.9L6.75 18L7.15 17.25L6.9 16.2L6.65 14.5Q6.65 12.55 7.6 9.35L7.85 8.7L9.35 6.55L11.9 6.75Q11.35 7.55 10.95 8.6L11.3 8.55L11.65 8.7L11.85 9Q11.7 10.25 10.6 10.05L10.55 10.15L10.3 11.45L10.05 11.35L10.05 11.3L9.55 11.4L9.45 11.45Q9.3 11.8 9.3 12.2L9.45 12.7L10 12.8L9.75 13.9L10.3 13.45L10.3 13.5Q11.35 14.65 9.7 14.75L9.65 14.65L9.65 14.35L9.05 16.3L8.45 18.3L8.55 18.45Q8.1 18.65 8.25 19.2L8.3 19.3Q8.8 19.55 9.1 19.3L9.9 20.55L9.9 20.6M18.75,4.05L18.7 4.25Q18.4 5.3 18.25 6.3Q18.25 6.6 18.6 7.6Q18.95 8.55 18.95 9.4Q18.95 12.1 17.85 13.3L16.4 14.65Q18.25 11.55 16.2 6.6Q17.85 4.25 19.1 3L18.75 4.05M21.25,8.9Q21.25 10.15 20.45 10.85L20.25 10.8Q19.15 9.65 20.3 8.45L21.25 8.9M20.4,13.9L20 15Q20.3 15.45 19.7 15.95L19.6 15.9L19.35 15.5L18.25 15.6L18.25 15.55L19.4 14.55L19.45 14.45L19.45 14.5L20.3 13.8L20.4 13.9M11.7,21.1L11.9 22.1Q12.15 22.9 12.9 23.2Q13.05 22.95 13.45 22.8L13.6 22.9L13.9 23.35L14.75 23.4Q14.45 23.6 14.5 24.05L14.5 24.15Q15.85 24.6 15.55 23.45L17.1 23.65L17.15 23.65L17.2 23.65L16.9 24.7L16.6 25.8L14.4 26.25Q12.1 26.2 10.35 24.95Q10.1 23.2 10.45 21.75L10.95 21.5L11.7 21.1M12.4,11.8Q12.4 10.85 13.45 10.8L13.6 11Q13.7 12.45 12.4 11.9L12.4 11.8M8.05,12.85L7.95 12.8Q7.15 13.05 7.4 13.9L7.45 14Q8.25 14.1 8.35 13.2L8.05 12.85M3.55,19L3.7 19.05Q4.05 19.45 3.75 19.9L3.6 19.9Q2.55 19.45 3.55 19M7.05,19.4L6.95 19.5L6.9 20.05L7.1 20.3Q8.25 20.4 7.65 19.35L7.55 19.3L7.05 19.4M12.75,18.7L11.7 20.25Q11.15 20.75 10.6 20.85Q10.85 19.2 11.25 17.8L11.9 17.9L12.75 18.05L12.75 18.7M15.05,19L15.35 19.2Q15.65 19.65 15.35 20.05L14.15 20L14.15 19.9Q14.15 19.05 15.05 19M12.45,24.55Q11.7 24.95 12.25 25.55L12.3 25.55Q13.3 25.45 12.55 24.65L12.45 24.55M17.35,18.85Q17.65 20.15 16.3 19.8L16.3 19.7Q16.15 18.75 17.2 18.75L17.35 18.85" />
<path style="fill:#2C1E23;fill-opacity:1" d="M17.2,23.65L17.45 23.35L18.75 21.7L20.6 19.2L23.15 14.35Q24.8 10.9 23.6 7.85Q22.4 4.75 21.35 1.5Q20.45 1.6 19.1 3Q17.85 4.25 16.2 6.6Q18.25 11.55 16.4 14.65L14.65 16.6L15.3 15.4L15.4 15.15L15.8 14.2Q16.7 12.15 15.35 7.4L13.85 7L12.35 6.8L11.9 6.75L9.35 6.55L7.85 8.7L7.6 9.35Q6.65 12.55 6.65 14.5L6.9 16.2L7.15 17.25L6.75 18L6.65 17.9L6.3 17.7Q5.15 17.7 5.3 18.7L5.3 18.8L6.2 18.85Q6.05 19.25 6.05 19.9Q6.05 20.7 7.35 22.1L9.45 24.1L9.4 24.4Q6.1 22.7 4.3 22L2.35 21.25L2.3 21.2Q1.25 19.8 1.25 18.95Q1.25 18.05 2.7 17.85Q4.1 17.65 4.25 17L4.9 11.8L6.75 10L7.35 7.6L7.65 6.85Q8.4 5.9 8.7 5.7L11.15 5.55L12.9 5.75L14.95 5.75L16.05 4.5Q18.4 1.9 20.45 0.35Q21 -0.1 21.5 0.05Q21.95 0.15 24.15 5.2Q26.35 10.2 24.25 14.55L21.55 19.75L19.25 23.1L19.15 23.2L18.65 23.95L17.2 23.65M3.6,19.9L3.75 19.9Q4.05 19.45 3.7 19.05L3.55 19Q2.55 19.45 3.6 19.9M12.3,14.9Q12.65 15.75 12.75 18.05L11.9 17.9L11.25 17.8Q11.65 16.15 12.3 14.9" />
<path style="fill:#8E7E85;fill-opacity:1" d="M13.85,7L15.35 7.4Q16.7 12.15 15.8 14.2L15.4 15.15L15.4 15.1L15.05 12.35Q14.65 12.45 14.4 12.15L14.4 12.05Q14.3 11.45 14.75 11.35L14.65 10.95L15.2 10.7Q15.65 10.05 15.1 9.45L14.7 9.2L14.9 8.1Q14.9 7.8 13.9 7.05L13.85 7M19.1,3Q20.45 1.6 21.35 1.5Q22.4 4.75 23.6 7.85Q24.8 10.9 23.15 14.35L20.6 19.2Q20.9 18.35 21.55 17.1Q22.9 14.35 22.9 12Q22.9 10.2 22.3 7.75L22.25 7.55Q22.6 7.3 22.25 6.6L22.2 6.45L21.95 6.5L21.25 3.7L21.1 3.7L21.05 3.55L20.8 3.3Q20.25 3.4 20.1 3.75Q19.35 3.85 18.7 4.25L18.75 4.05L19.1 3M20.6,12.2Q20.95 12.5 20.85 13.05Q20.4 13.4 19.95 13.05L19.9 12.95Q19.95 12.4 20.45 12.05L20.6 12.2" />
</g>
</svg>
