<?xml version="1.0" encoding="utf-8"?>
<svg version="1.1" id="Layer_1"
xmlns="http://www.w3.org/2000/svg"
xmlns:xlink="http://www.w3.org/1999/xlink"
xmlns:author="http://www.sothink.com"
width="11px" height="13px"
xml:space="preserve">
<g id="279" transform="matrix(1, 0, 0, 1, -0.55, -0.05)">
<path style="fill:#D0A15B;fill-opacity:1" d="M8.9,1.65Q9 1.9 9 1.7L9.75 2.6L9.85 2.8Q10.3 3.8 9.85 5.5L9.75 5.8L9.7 6Q9.2 7.55 8.2 8.95Q7 10.5 5.9 11.05L4.2 11.55L4.15 11.55L3.8 11.5L3.15 11.3L2.5 10.9L2.4 10.8L3.35 10Q4.2 9.2 4.4 7.25Q6.65 6.85 7.8 5.25Q8.9 3.65 8.8 2.65L8.8 1.6L8.9 1.65" />
<path style="fill:#E9CB9E;fill-opacity:1" d="M2.1,10.5L1.9 10.2L1.9 10.15Q1.6 9.65 1.55 8.5Q1.5 7.35 1.95 5.9Q2.35 4.45 2.85 3.5Q3.4 2.55 4.15 1.95Q4.9 1.35 6.1 1.15L8.2 1.25L8.8 1.55L8.8 1.6L8.8 2.65Q8.9 3.65 7.8 5.25Q6.65 6.85 4.4 7.25Q4.2 9.2 3.35 10L2.4 10.8L2.1 10.5" />
<path style="fill:#66491E;fill-opacity:1" d="M10.65,2.3L10.9 2.95Q11.15 4.05 10.65 5.95L9.55 8.8L8.2 10.55L6.45 11.85L4.35 12.5L2.75 12.2L2.15 11.85L1.7 11.45Q0.95 10.75 0.7 9.6Q0.4 8.15 0.75 6.55L1.3 4.4L2.2 2.65Q2.95 1.5 3.8 1Q4.65 0.5 5.85 0.2Q7.05 -0.1 8.15 0.2Q9.25 0.45 9.95 1.15L10.65 2.2L10.65 2.3M2.4,10.8L2.5 10.9L3.15 11.3L3.8 11.5L4.15 11.55L4.2 11.55L5.9 11.05Q7 10.5 8.2 8.95Q9.2 7.55 9.7 6L9.75 5.8L9.85 5.5Q10.3 3.8 9.85 2.8L9.75 2.6L9 1.7Q9 1.9 8.9 1.65L8.8 1.6L8.8 1.55L8.2 1.25L6.1 1.15Q4.9 1.35 4.15 1.95Q3.4 2.55 2.85 3.5Q2.35 4.45 1.95 5.9Q1.5 7.35 1.55 8.5Q1.6 9.65 1.9 10.15L1.9 10.2L2.1 10.5L2.4 10.8" />
</g>
</svg>
