<?xml version="1.0" encoding="utf-8"?>
<svg version="1.1" id="Layer_1"
xmlns="http://www.w3.org/2000/svg"
xmlns:xlink="http://www.w3.org/1999/xlink"
xmlns:author="http://www.sothink.com"
width="68px" height="72px"
xml:space="preserve">
<g id="27" transform="matrix(1, 0, 0, 1, 7.7, 11.25)">
<path style="fill:#F8F8F8;fill-opacity:1" d="M10.4,43.55Q11.6 39.5 10.75 35.8Q11.75 35.35 15.15 38.3L17.25 40.2L17.55 40.1Q18.6 40.1 19.7 40.9L19.9 37.2Q21.2 37.05 23.35 37.9Q23 36.8 23.7 35.85L24.2 36.15Q23.45 33.15 22.25 31.4Q24.1 30.95 26.55 32.75Q26.1 31.85 26.25 31.45Q25.95 31.35 26.4 31.25Q26.35 30.9 26.9 30.95Q26.85 30.65 27.1 30.95L27.85 31.45L27.7 28.75Q29.3 28.7 31.9 30.25L32.75 25.85Q33 25.65 34 25.55L34.15 25.45Q33.8 24.15 33.25 23.4L32.65 23.35L32.05 20.5L38.2 23.5Q38.75 20.4 37.05 17.7Q42.9 17.95 47.4 20.8L47.8 16.6Q47.45 13.65 46.6 11.25L43.45 6.7L44.75 6.35Q44.05 5.05 42.55 4.6Q42.1 4.5 42.3 4.7L42.05 4.8L40.8 3.55Q36.35 -1.75 30.75 -3.5Q37.65 -2.8 45.45 0.9L48.4 3.2Q52.8 7.3 55.75 12.05L56.4 13.5L58.35 18.25L59.1 20.6L59.9 24.05L60.1 27.05Q59 31.4 56.4 36.6Q49.8 49.2 38.1 55.3L31.5 57.4L26.45 58.9L21.95 59.75L15.2 60.45Q12.1 60.4 11.55 59.35L10.1 56.95Q9.65 56 9.75 55.2L9.75 55.1L7.3 42.4Q8.35 41.75 10.4 43.55M48.55,13.45Q51.45 15.4 50.15 12.65Q49.8 12.35 50.1 12.45L49.4 12.4Q48.4 12.65 48.5 13.35L48.55 13.45M43.1,22.75Q43.35 21.25 42.2 20.8L41.7 20.85Q39.55 23.05 43 22.95L43.1 22.75M22,6.5Q20.95 4.35 19 2Q20.5 2.45 24.1 4.4Q22.05 3.65 22.15 5.25L22 6.5M26.6,7.7Q30.25 10.55 31.45 13.4L32.5 17.5Q31.5 17.65 28.6 14.6Q25.05 11.35 24.1 8.15Q22.65 4.65 26.6 7.7M40,15.55Q34.85 8.3 24.7 -1.25Q28.9 -0.4 32.75 2.35L30.75 -0.15Q35 0.9 39.15 4.85Q43.05 9.45 42.25 13.6L40.1 11.85Q40.5 13.2 40 15.55M12.75,21.55Q12.65 21.3 13.05 21.35Q14.45 21.85 13.6 23.2Q13.4 23.05 13.45 23.2Q11.5 22.75 12.75 21.55M16.95,35.6Q14.5 33.8 15.9 31.8Q18.6 32.8 17.15 35.7Q16.85 35.4 16.95 35.6M8.15,34.3Q9.35 34.7 8.3 35.8L8.15 35.8Q6.75 35.1 8.05 34.25L8.15 34.3M13.6,42.45Q11.85 43.7 13.3 45.15L13.45 45.25Q14.1 45.45 15.05 44.7Q15.1 42.9 13.8 42.45Q13.5 42.1 13.6 42.45M23.15,40.3L22.9 39.75Q22.55 38.95 22 39.4Q20.4 42.15 23.15 40.3M18.4,17.3Q22.95 17.95 25.9 20.95Q28.25 24 29 26.3Q26.2 25.7 21.85 21.55L18.4 17.3M20.35,29.45Q19.2 28.4 15.95 26.9Q17.35 26.3 15.35 23.4Q17.1 24.7 20.35 29.45" />
<path style="fill:#F0D6B8;fill-opacity:1" d="M7.3,42.4Q6.2 40.55 6.2 38.95Q5.4 36.6 5.25 33.35Q4.65 29.45 3.45 26.05Q4.55 26.5 7.55 30.2Q9.75 32.95 10.15 32.85Q12.6 27.5 10.65 22.05Q7.5 16.7 6.35 15.2Q8.4 15.7 11.4 17.5Q13.85 19 14.95 20.55Q15.2 19.4 13.4 14.4Q11.15 9.3 11.65 9.65Q15.3 11.5 20.9 15.2Q21.25 15.55 21.3 13.25L20.35 9.7Q18.55 6.15 16.25 3.1L12.95 -0.85Q18.3 -1.5 25 2.6L23.95 0.55Q22.4 -1.8 20.6 -3Q18.4 -4.5 16.75 -5.05L18.45 -5.15L22.05 -4.45Q24.15 -4 26.05 -3.05Q22.75 -7.15 16.95 -10.2L14.75 -10.75Q30.6 -8.9 42.65 -1.2L45.45 0.9Q37.65 -2.8 30.75 -3.5Q36.35 -1.75 40.8 3.55L42.05 4.8L42.3 4.7Q42.1 4.5 42.55 4.6Q44.05 5.05 44.75 6.35L43.45 6.7L46.6 11.25Q47.45 13.65 47.8 16.6L47.4 20.8Q42.9 17.95 37.05 17.7Q38.75 20.4 38.2 23.5L32.05 20.5L32.65 23.35L33.25 23.4Q33.8 24.15 34.15 25.45L34 25.55Q33 25.65 32.75 25.85L31.9 30.25Q29.3 28.7 27.7 28.75L27.85 31.45L27.1 30.95Q26.85 30.65 26.9 30.95Q26.35 30.9 26.4 31.25Q25.95 31.35 26.25 31.45Q26.1 31.85 26.55 32.75Q24.1 30.95 22.25 31.4Q23.45 33.15 24.2 36.15L23.7 35.85Q23 36.8 23.35 37.9Q21.2 37.05 19.9 37.2L19.7 40.9Q18.6 40.1 17.55 40.1L17.25 40.2L15.15 38.3Q11.75 35.35 10.75 35.8Q11.6 39.5 10.4 43.55Q8.35 41.75 7.3 42.4M48.5,13.35Q48.4 12.65 49.4 12.4L50.1 12.45Q49.8 12.35 50.15 12.65Q51.45 15.4 48.55 13.45L48.5 13.35M43,22.95Q39.55 23.05 41.7 20.85L42.2 20.8Q43.35 21.25 43.1 22.75L43 22.95M22.15,5.25Q22.05 3.65 24.1 4.4Q20.5 2.45 19 2Q20.95 4.35 22 6.5L22.15 5.25M24.1,8.15Q25.05 11.35 28.6 14.6Q31.5 17.65 32.5 17.5L31.45 13.4Q30.25 10.55 26.6 7.7Q22.65 4.65 24.1 8.15M40.1,11.85L42.25 13.6Q43.05 9.45 39.15 4.85Q35 0.9 30.75 -0.15L32.75 2.35Q28.9 -0.4 24.7 -1.25Q34.85 8.3 40 15.55Q40.5 13.2 40.1 11.85M13.45,23.2Q13.4 23.05 13.6 23.2Q14.45 21.85 13.05 21.35Q12.65 21.3 12.75 21.55Q11.5 22.75 13.45 23.2M17.15,35.7Q18.6 32.8 15.9 31.8Q14.5 33.8 16.95 35.6Q16.85 35.4 17.15 35.7M8.05,34.25Q6.75 35.1 8.15 35.8L8.3 35.8Q9.35 34.7 8.15 34.3L8.05 34.25M13.8,42.45Q15.1 42.9 15.05 44.7Q14.1 45.45 13.45 45.25L13.3 45.15Q11.85 43.7 13.6 42.45Q13.5 42.1 13.8 42.45M22,39.4Q22.55 38.95 22.9 39.75L23.15 40.3Q20.4 42.15 22 39.4M21.85,21.55Q26.2 25.7 29 26.3Q28.25 24 25.9 20.95Q22.95 17.95 18.4 17.3L21.85 21.55M15.35,23.4Q17.35 26.3 15.95 26.9Q19.2 28.4 20.35 29.45Q17.1 24.7 15.35 23.4" />
<path style="fill:#A89470;fill-opacity:1" d="M-4.55,17.95Q-0.7 19.2 2.4 21.55Q6.3 24.3 9.05 28.05Q8.8 27.55 9 26.95Q8.3 25.65 7.35 23.35L4.55 16.7Q3.1 13.75 0.25 11.2L5 11.9Q7.2 12.25 9 13.1L10 13.65Q9.7 10.75 7.6 8.2L5.65 4.15L7.45 4.2L8.45 4.1L9.6 4.75L12.4 6.35Q12.05 3.65 9.2 0.95Q8.4 -0.25 8.2 -1.05Q7 -2.5 5.2 -3.45L3.8 -4.25L6.05 -4.65L7.75 -4.9L8.5 -5L12.1 -3.95Q12.95 -4.05 10.8 -5.35Q8 -6.75 3.85 -7.9Q5.65 -8.75 8.5 -8.45L12.2 -8.05Q10.6 -9.55 7 -10.2Q3.95 -11.15 2.8 -11.05L4.45 -11.2L7.35 -11.25L14.75 -10.75L16.95 -10.2Q22.75 -7.15 26.05 -3.05Q24.15 -4 22.05 -4.45L18.45 -5.15L16.75 -5.05Q18.4 -4.5 20.6 -3Q22.4 -1.8 23.95 0.55L25 2.6Q18.3 -1.5 12.95 -0.85L16.25 3.1Q18.55 6.15 20.35 9.7L21.3 13.25Q21.25 15.55 20.9 15.2Q15.3 11.5 11.65 9.65Q11.15 9.3 13.4 14.4Q15.2 19.4 14.95 20.55Q13.85 19 11.4 17.5Q8.4 15.7 6.35 15.2Q7.5 16.7 10.65 22.05Q12.6 27.5 10.15 32.85Q9.75 32.95 7.55 30.2Q4.55 26.5 3.45 26.05Q4.65 29.45 5.25 33.35Q5.4 36.6 6.2 38.95L3 31.6L2.65 30.45Q1.1 26.15 -2.2 20.9L-4.55 17.95" />
<path style="fill:#604530;fill-opacity:1" d="M-2.2,20.9Q1.1 26.15 2.65 30.45L3 31.6L1.7 29.2Q-4.45 18.65 -7.7 17.1Q-6.2 17.35 -4.55 17.95L-2.2 20.9M4.55,16.7L7.35 23.35L4.85 19.5Q0.55 12.95 -1.95 11.35L0.25 11.2Q3.1 13.75 4.55 16.7M7.45,4.2L5.65 4.15L7.6 8.2L6.95 7.2Q3.7 3.8 1.85 3.05Q4.8 3 8.45 4.1L7.45 4.2M9.2,0.95Q8.25 0.05 7.55 -0.35Q2.35 -4.05 0.2 -4.75Q4.35 -5.4 7.75 -4.9L6.05 -4.65L3.8 -4.25L5.2 -3.45Q7 -2.5 8.2 -1.05Q8.4 -0.25 9.2 0.95" />
</g>
</svg>
