<?xml version="1.0" encoding="utf-8"?>
<svg version="1.1" id="Layer_1"
xmlns="http://www.w3.org/2000/svg"
xmlns:xlink="http://www.w3.org/1999/xlink"
xmlns:author="http://www.sothink.com"
width="42px" height="28px"
xml:space="preserve">
<g id="1154" transform="matrix(1, 0, 0, 1, 6, 0)">
<path style="fill:#A14C27;fill-opacity:1" d="M10.95,10.85Q10.5 11.05 10.75 10.65L10.9 10.55Q11.35 10.75 10.95 10.85" />
<path style="fill:#B1552E;fill-opacity:1" d="M21.2,5.85Q21.25 5.75 21.4 5.75Q21.8 5.75 21.65 6.05L21.3 6.3L21.1 6.25L21.05 6.1Q21.05 5.95 21.2 5.85M11.6,8.25L11.7 8.15Q12.25 8.25 11.8 8.45Q11.3 8.7 11.6 8.25" />
<path style="fill:#982E0F;fill-opacity:1" d="M22.25,12.05Q22.3 13.1 21.85 14.2L21.25 15.4Q21.1 15.55 20.65 13.95Q20.15 12.35 19.25 11.65L18.7 11.25L17.85 10.8L18.1 10.7L18.85 10.5L21.7 10.55L21.75 10.55L22 10.9L22.25 12.05" />
<path style="fill:#8C3C19;fill-opacity:1" d="M18.85,9.3L18.85 9.05L18.85 8.7L18.35 3.35L18.85 4.5L19.7 7L19.8 7.25L19.8 7.15L20 6.95L20.2 6.95L20.35 7L20.5 7.3L20.6 7.8L20.5 8.15L20.4 8.2L20.35 8.25Q20.75 8.6 21.5 8.6L21.85 8.6L22.1 8.55L22.35 8.4L23.7 7.05L22.85 8.55L22.3 9.5L20.9 9.3L18.85 9.3M22.5,5.05L22.9 5.05L23.15 5.35L23.15 5.45L23.1 5.6L22.8 5.75L22.6 5.65Q22.25 5.55 22.3 5.25L22.5 5.05M9.85,7.35L10 7.25Q10.45 7.45 10.05 7.55Q9.6 7.75 9.85 7.35" />
<path style="fill:#877861;fill-opacity:1" d="M9.8,26.75Q9.95 26.2 9.35 25.3L7.75 26.25L7.05 26.6L6.1 26.35L6.05 26.35L6.2 26.25L6.5 26.05L7.65 25.35L9.25 24.4L9.4 24.65L9.9 25.1Q10.3 25.45 10.45 26.35L10.55 26.55L10.75 26.55L11.55 26.15L12.75 24.6L12.95 23.85L12.95 24.2Q12.95 25.25 12.35 26.05L13.6 25.9Q14.8 25.65 15.95 25L16.25 25.1L16.8 25.1L16.95 25L16.95 24.9L16.95 24.8L16.95 24.7L16.95 24.65L16.9 24.55L16.8 24.5L17.05 24.25L17.4 24L17.8 24.05Q18.25 24.1 18.45 23.75L18.45 23.7L18.3 23.4L18.1 23.3L18.7 22.35L19.3 22.5L22.6 23.5L22.25 23.75Q19.5 25.7 16.85 26.15L13.55 26.65L11.9 26.8L11.75 26.8L9.8 26.8L9.8 26.75M20.95,23.75L20.85 23.65L20.4 23.55Q20.25 23.55 20.25 23.7L20.25 23.75L20.45 24.2L21 24.15L21.05 24.05L20.95 23.75M13.8,23.75L13.85 23.75L14.1 23.8L14.3 23.9L14.35 23.95L14.35 24.1L14.35 24.3L14.35 24.4L14.2 24.5Q13.7 24.7 13.45 24.25L13.45 24.15L13.5 24L13.7 23.8L13.8 23.75" />
<path style="fill:#B3A38A;fill-opacity:1" d="M12.6,22.85L13.25 22.65L13.55 22.55L14.55 22.35L15.3 22.25L17.8 22.2L18.7 22.35L18.1 23.3L18.3 23.4L18.45 23.7L18.45 23.75Q18.25 24.1 17.8 24.05L17.4 24L17.05 24.25L16.8 24.5L16.9 24.55L16.95 24.65L16.95 24.7L16.95 24.8L16.95 24.9L16.95 25L16.8 25.1L16.25 25.1L15.95 25Q14.8 25.65 13.6 25.9L12.35 26.05Q12.95 25.25 12.95 24.2L12.95 23.85L12.95 23.45L12.6 22.85M21.05,24.05L21 24.15L20.45 24.2L20.25 23.75L20.25 23.7Q20.25 23.55 20.4 23.55L20.85 23.65L20.95 23.75L21.05 24.05M13.7,23.8L13.5 24L13.45 24.15L13.45 24.25Q13.7 24.7 14.2 24.5L14.35 24.4L14.35 24.3L14.35 24.1L14.35 23.95L14.3 23.9L14.1 23.8L13.85 23.75L13.8 23.75L13.7 23.8M9.8,26.8L8.95 26.8L7.05 26.6L7.75 26.25L9.35 25.3Q9.95 26.2 9.8 26.75L9.8 26.8" />
<path style="fill:#7A61AA;fill-opacity:1" d="M30,16.95L29.9 17.2L29.35 17.25L28.7 16.8L28.65 16.7L28.65 16.65L28.65 16.55L28.75 16.4L28.95 16.25Q29.05 16.15 29.1 16.15L29.35 16.15Q29.55 16.15 29.75 16.3L30 16.95" />
<path style="fill:#9C89C2;fill-opacity:1" d="M22.75,10.85L23.2 11L22 10.9L21.75 10.55L22.75 10.85M3.15,21.75Q3.25 21.65 3.3 21.65Q3.75 21.85 3.35 21.95Q2.9 22.15 3.15 21.75" />
<path style="fill:#3C3427;fill-opacity:1" d="M7.05,26.6L8.95 26.8L9.8 26.8L11.75 26.8L11.9 26.8L13.55 26.65L16.85 26.15Q19.5 25.7 22.25 23.75L22.6 23.5L23.2 23.65L23.65 23.75L24.2 23.85L21.05 25.65Q18.2 27.05 14 27.5L11.75 27.7L8.75 27.7L7.3 27.6L4.55 27.1L6.1 26.35L7.05 26.6M12.95,23.45L12.95 23.85L12.75 24.6L11.55 26.15L10.75 26.55L10.55 26.55L10.45 26.35Q10.3 25.45 9.9 25.1L9.4 24.65L9.25 24.4L9.95 24L10 24L10.05 24L10.75 24.55L11.15 25.2L11.6 24.7L11.7 24.5L11.8 23.95L11.9 23.15L11.9 23.1L12.6 22.85L12.95 23.45" />
<path style="fill:#221E38;fill-opacity:1" d="M32.05,16.25Q32.9 17.7 32.3 18.7L31.35 19.45L29.75 20.25L28.4 20.95L27.45 21.55L26.9 21.9L24.8 23.4L24.45 23.65L24.3 23.75L24.2 23.85L23.65 23.75L23.2 23.65L22.6 23.5L19.3 22.5L18.7 22.35L17.8 22.2L15.3 22.25L14.55 22.35L13.55 22.55L13.25 22.65L12.6 22.85L11.9 23.1L11.9 23.15Q11.5 23.25 11.25 23.4L10.8 23.6L10.4 23.75L10 24L9.95 24L9.25 24.4L7.65 25.35L6.5 26.05L6.2 26.25L6.05 26.35L6.1 26.35L4.55 27.1L4.25 27L2.6 26.3L2.25 26.05L1.05 24.9L1.65 24.9L2.45 24.7Q3.3 25.55 4.75 25.95L5.35 25.55L7.65 24.1L8.65 23.4Q9.4 22.9 10.4 22.4L12.5 21.55L14.65 21.1L16.3 21.05L17.9 21.3L19.35 21.55L19.45 21.55L19.8 21.65L23.5 22.85L24.05 22.55L25.5 21.55Q28.5 19.5 29.4 19.15Q30.55 18.7 31.1 18.15Q31.6 17.55 31.2 17L30 15.55L29.85 15.4L30.4 14.15L32.05 16.25" />
<path style="fill:#CCC6C4;fill-opacity:1" d="M11.5,24L11.7 24.5L11.6 24.7L11.2 24.4L10.8 23.6L11.25 23.4L11.5 24" />
<path style="fill:#E8EBEC;fill-opacity:1" d="M11.7,24.5L11.5 24L11.25 23.4Q11.5 23.25 11.9 23.15L11.8 23.95L11.7 24.5" />
<path style="fill:#97A2AC;fill-opacity:1" d="M11.6,24.7L11.15 25.2L10.75 24.55L10.05 24L10 24L10.4 23.75L10.8 23.6L11.2 24.4L11.6 24.7" />
<path style="fill:#8C331D;fill-opacity:1" d="M26.05,11L26.5 10.15L26.8 9.5L27.1 8.75L27.75 5.8L27.85 6L27.9 6.55L27.55 8.4L27.2 9.65Q27.2 10 27.5 10.35L27.7 10.15Q28.15 10.1 28.35 10.45L28.55 11.1L28.55 11.25L28.65 11.3L28.6 11.35L28.55 11.45L28.45 11.5L28.45 11.65L28.45 11.8L28.45 11.85L28.5 11.95L28.6 12Q28.85 12.25 29.2 12.2L29.4 12.15L29.4 12L29.35 11.75L30.6 12.3L31 12.4L30.6 12.6L30.25 12.75L29.5 13.2L29.4 13.3L28.3 12.5L26.85 11.5L26.05 11M9.55,12.05L9.55 11.9Q9.15 10.25 8.3 8.7Q7.6 7.5 6.7 6.75L9.15 8.95Q9.95 9.95 10.85 10.15Q11 10.4 11.4 10.45L11.7 10.4L11.75 10.2L12.6 10.1L12.55 9.85Q12.5 9.65 12.7 9.6L12.8 9.55L13.1 9.65L13.4 9.9L13.9 9.75L15.4 9.05L15.4 10.45L13.4 11.35L9.55 12.05M16.5,9.9L16.5 8.65L16.45 6.9L16.45 6.8Q16.45 4.15 16.6 3.3L16.65 3.1L16.9 8.9L17.35 8.75L17.7 8.65L17.7 9.5L16.5 9.9M10.9,10.55L10.75 10.65Q10.5 11.05 10.95 10.85Q11.35 10.75 10.9 10.55" />
<path style="fill:#BB482E;fill-opacity:1" d="M30.6,12.3L29.35 11.75L29.4 12L29.4 12.15L29.2 12.2Q28.85 12.25 28.6 12L28.5 11.95L28.45 11.85L28.45 11.8L28.45 11.65L28.45 11.5L28.55 11.45L28.6 11.35L28.65 11.3L28.55 11.25L28.55 11.1L28.35 10.45Q28.15 10.1 27.7 10.15L27.5 10.35Q27.2 10 27.2 9.65L27.55 8.4L27.9 6.55L27.85 6L27.95 6.1Q28.5 8.15 29.45 9.3L30.4 10.2L30 10.15L29.8 10.35Q29.7 10.8 30.15 11L30.95 10.9L30.95 10.8L30.95 10.65L32.8 11.65L32.05 11.95L31 12.4L30.6 12.3M7,12.5L6.6 10.35L5.95 8.15L5.8 7.8L6.6 9Q7 9.6 7.1 11.2Q7.3 11.75 8.05 11.8L8.1 11.8L8.15 12.2L7 12.5M6.7,6.75L5.6 6L6.8 6.1L9.25 6.2L10.85 6.2L10.9 6.35L11.7 6.4L11.85 6.2L11.8 6.05Q12.35 5.8 13.6 5.1L15.6 3.85L15.4 8.8L15.4 9.05L13.9 9.75L13.4 9.9L13.1 9.65L12.8 9.55L12.7 9.6Q12.5 9.65 12.55 9.85L12.6 10.1L11.75 10.2L11.7 10.4L11.4 10.45Q11 10.4 10.85 10.15Q9.95 9.95 9.15 8.95L6.7 6.75M18.35,3.35L18.25 2.85Q19 3.85 20.8 4.15L20.75 4.2L20.75 4.3Q20.75 4.55 21.05 4.65Q21.6 4.85 21.95 4.45L21.95 4.3L22.65 4.3L24.55 3.9L25.9 3.3L25 4.8L24.1 6.4L23.7 7.05L22.35 8.4L22.1 8.55L21.85 8.6L21.5 8.6Q20.75 8.6 20.35 8.25L20.4 8.2L20.5 8.15L20.6 7.8L20.5 7.3L20.35 7L20.2 6.95L20 6.95L19.8 7.15L19.8 7.25L19.7 7L18.85 4.5L18.35 3.35M23.45,9.8L24.5 7.9L25 6.9Q26.35 4.1 27.05 3.3L27.05 3.5L26.55 4.7Q25.9 6.05 25.8 6.5L24.6 9.5L25.3 9.65L25 10.35L24.95 10.45L23.45 9.8M21.05,6.1L21.1 6.25L21.3 6.3L21.65 6.05Q21.8 5.75 21.4 5.75Q21.25 5.75 21.2 5.85Q21.05 5.95 21.05 6.1M22.3,5.25Q22.25 5.55 22.6 5.65L22.8 5.75L23.1 5.6L23.15 5.45L23.15 5.35L22.9 5.05L22.5 5.05L22.3 5.25M29.45,9.85L29.2 9.65L28.9 9.65L28.75 9.85Q28.7 10.3 29.2 10.25L29.45 10L29.45 9.85M13.45,7.1L13.2 7L12.9 6.95L12.8 6.95L12.7 7L12.65 7L12.6 7.05L12.55 7.15L12.45 7.2L12.45 7.35L12.45 7.5L12.45 7.6L12.45 7.65L12.5 7.75L12.9 7.95L13.5 7.85L13.55 7.75L13.55 7.45L13.55 7.2L13.5 7.15L13.45 7.1M11.8,8.45Q12.25 8.25 11.7 8.15L11.6 8.25Q11.3 8.7 11.8 8.45M10.05,7.55Q10.45 7.45 10 7.25L9.85 7.35Q9.6 7.75 10.05 7.55" />
<path style="fill:#EE7557;fill-opacity:1" d="M32.8,11.65L30.95 10.65L30.95 10.8L30.95 10.9L30.15 11Q29.7 10.8 29.8 10.35L30 10.15L30.4 10.2L29.45 9.3Q28.5 8.15 27.95 6.1Q29.25 8.15 29.85 8.7L31.35 10.05L33.25 11.5L32.8 11.65M8.05,11.8Q7.3 11.75 7.1 11.2Q7 9.6 6.6 9L5.8 7.8L5.15 6.45Q7.45 8.3 8.05 11.65L8.1 11.8L8.05 11.8M6.8,6.1L11.3 5.45Q13.55 4.55 14.55 3.85L15.65 2.75L15.6 3.85L13.6 5.1Q12.35 5.8 11.8 6.05L11.85 6.2L11.7 6.4L10.9 6.35L10.85 6.2L9.25 6.2L6.8 6.1M16.65,3.1L16.85 2.3L16.9 2.1L16.95 2.2Q17.5 4.25 17.65 7.55L17.7 8.65L17.35 8.75L16.9 8.9L16.65 3.1M18.25,2.85L17.9 1.75Q20.6 4.45 25.95 3.25L25.9 3.3L24.55 3.9L22.65 4.3L21.95 4.3L21.95 4.45Q21.6 4.85 21.05 4.65Q20.75 4.55 20.75 4.3L20.75 4.2L20.8 4.15Q19 3.85 18.25 2.85M24.6,9.5L25.8 6.5Q25.9 6.05 26.55 4.7L27.05 3.5Q26.7 6.25 25.7 8.75L25.3 9.65L24.6 9.5M29.45,10L29.2 10.25Q28.7 10.3 28.75 9.85L28.9 9.65L29.2 9.65L29.45 9.85L29.45 10M13.5,7.15L13.55 7.2L13.55 7.45L13.55 7.75L13.5 7.85L12.9 7.95L12.5 7.75L12.45 7.65L12.45 7.6L12.45 7.5L12.45 7.35L12.45 7.2L12.55 7.15L12.6 7.05L12.65 7L12.7 7L12.8 6.95L12.9 6.95L13.2 7L13.45 7.1L13.5 7.15" />
<path style="fill:#662616;fill-opacity:1" d="M33.25,11.5L31.35 10.05L29.85 8.7Q29.25 8.15 27.95 6.1L27.85 6L27.75 5.8L27.1 8.75L26.8 9.5L26.5 10.15L26.05 11L24.95 10.45L25 10.35L25.3 9.65L25.7 8.75Q26.7 6.25 27.05 3.5L27.05 3.3Q26.35 4.1 25 6.9L24.5 7.9L23.45 9.8L22.3 9.5L22.85 8.55L23.7 7.05L24.1 6.4L25 4.8L25.9 3.3L25.95 3.25Q20.6 4.45 17.9 1.75L18.25 2.85L18.35 3.35L18.85 8.7L18.85 9.05L18.85 9.3L17.7 9.5L17.7 8.65L17.65 7.55Q17.5 4.25 16.95 2.2L16.9 2.1L16.85 2.3L16.65 3.1L16.6 3.3Q16.45 4.15 16.45 6.8L16.45 6.9L16.5 8.65L16.5 9.9L16.4 9.95L15.4 10.45L15.4 9.05L15.4 8.8L15.6 3.85L15.65 2.75L14.55 3.85Q13.55 4.55 11.3 5.45L6.8 6.1L5.6 6L6.7 6.75Q7.6 7.5 8.3 8.7Q9.15 10.25 9.55 11.9L9.55 12.05L9 12.1L8.15 12.2L8.1 11.8L8.05 11.65Q7.45 8.3 5.15 6.45L5.8 7.8L5.95 8.15L6.6 10.35L7 12.5L5.75 12.9L5.5 11.15Q5 8.65 4.05 6.8L3.3 5.5Q2.35 3.9 4.05 4.4L7.2 4.9L9.9 4.6Q11.1 4.3 12.7 3.45Q14.3 2.55 15.6 1.15Q16.85 -0.25 17.35 0.05L19.05 1.25Q20.2 2.2 22.35 2.35L25.6 2.2L27.55 1.7Q28.4 1.4 28.3 2.5Q28.2 3.55 28.7 5.05Q29.2 6.5 30.9 8.2L33.9 10.6L35.2 11.65L34.5 12.15L34.25 12.25L32.3 12.95Q31.35 13.25 30.45 13.85L30.25 14L29.75 13.6L29.4 13.3L29.5 13.2L30.25 12.75L30.6 12.6L31 12.4L32.05 11.95L32.8 11.65L33.25 11.5" />
<path style="fill:#866CB6;fill-opacity:1" d="M2.4,24.65L2.4 24.6L2.45 23.75L2.45 23.15L2.4 23.15Q1.9 22.45 2.15 21.55L2.15 21.5Q2.3 20.65 2.8 19.95L3.1 19.75L3.2 19.8Q3.55 18.9 4.05 18.15Q5.55 15.9 8.25 15.1Q9.5 14.25 11.2 14.05L11.35 14.35L11.45 14.4L11.75 14.35L11.85 14.2L11.85 14.15L12.25 14.1L12.3 14L12.6 14Q13.75 14 14.55 13.15Q15 12.6 15.7 12.45L15.9 12.5L16 12.55Q17.25 11.65 18.7 11.25L19.25 11.65Q20.15 12.35 20.65 13.95Q21.1 15.55 21.25 15.4L21.85 14.2Q22.3 13.1 22.25 12.05L22 10.9L23.2 11Q23.75 11.2 24.35 11.55L24.6 11.65L25.35 12.1L28.25 13.95Q27.85 16.3 26.15 17.95L26.2 17.95L26.55 18.4L26.5 18.65L26.45 18.85L26.2 18.9L25.5 18.95L25.1 18.75L24.3 19.2L23.45 19.55L23.45 19.7L22.55 20.45L20.9 20.65L19.35 21.55L17.9 21.3L16.3 21.05L14.65 21.1L12.5 21.55L10.4 22.4Q9.4 22.9 8.65 23.4L7.65 24.1L5.35 25.55L4.75 25.95Q3.3 25.55 2.45 24.7L2.4 24.65M25.65,13.55L25.4 13.2L25 13.15Q24.85 13.15 24.85 13.3L25.3 13.85L25.65 13.7L25.65 13.55M21.95,16.05L21.55 16.95L20.2 16.85L20 16.85L21.35 17.35Q21.25 17.8 21.6 18.05L21.8 17.95L22 17.55L22.85 17.9Q22.75 18.15 23.1 18.25L23.2 18.2L23.4 18.05L23.75 17.75L23.6 17.5Q23.65 17.05 23.3 16.85L23.2 16.9L23.15 16.95L23.05 17L23 17.15L23 17.3L22.2 17.1L22.25 16.95Q22.55 16.3 22.1 15.95Q22 15.95 21.95 16.05M-1.35,13.05L-1.85 12.3L0.55 14.05L2.25 15.3L2.35 15.25Q2.3 16.05 1.9 16.5L0.6 15.35L-1.15 13.3L-1.35 13.05M3.6,17.25L3.85 17.45L3.85 17.55L3.5 17.95Q2.95 18.05 2.95 17.6Q2.9 17.3 3.2 17.25L3.6 17.25M4.1,24.15L4.35 23.9L4.35 23.75L4.1 23.55L3.8 23.55L3.65 23.75Q3.6 24.05 3.85 24.15L4.1 24.15M3.35,21.95Q3.75 21.85 3.3 21.65Q3.25 21.65 3.15 21.75Q2.9 22.15 3.35 21.95M15.65,13.95L16.1 13.85Q16.25 13.55 15.9 13.45L15.75 13.55L15.6 13.7L15.55 13.85L15.65 13.95M17.05,16.65L17.5 16.5Q17.6 16.15 17.2 16.15Q17.05 16.15 17 16.25L16.95 16.4L16.95 16.55L17.05 16.65M14.4,15.25L14.1 15.25L13.8 15.45L13.75 15.65L13.8 15.75L13.95 15.85L14.55 15.7L14.65 15.6L14.65 15.45L14.4 15.25M13.3,18.35Q13.05 18.55 13.3 18.75L14.5 18.9L14.65 18.7L14.6 18.55L14.05 18.3L13.4 18.25L13.3 18.35M18.75,19.55L18.65 19.45L18.6 19.4L18.4 19.3L18.2 19.25Q18.05 19.25 18 19.4L17.95 19.95L18.3 20.35L18.45 20.2L18.65 19.9L18.75 19.55" />
<path style="fill:#5F539C;fill-opacity:1" d="M19.35,21.55L20.9 20.65L22.55 20.45L23.45 19.7L23.45 19.55L24.3 19.2L25.1 18.75L25.5 18.95L26.2 18.9L26.45 18.85L26.5 18.65L26.55 18.4L26.2 17.95L26.15 17.95Q27.85 16.3 28.25 13.95L28.35 14.05L29.25 14.8L29.85 15.4L30 15.55L31.2 17Q31.6 17.55 31.1 18.15Q30.55 18.7 29.4 19.15Q28.5 19.5 25.5 21.55L24.05 22.55L23.5 22.85L19.8 21.65L19.45 21.55L19.35 21.55M25.65,13.7L25.3 13.85L24.85 13.3Q24.85 13.15 25 13.15L25.4 13.2L25.65 13.55L25.65 13.7M29.75,16.3Q29.55 16.15 29.35 16.15L29.1 16.15Q29.05 16.15 28.95 16.25L28.75 16.4L28.65 16.55L28.65 16.65L28.65 16.7L28.7 16.8L29.35 17.25L29.9 17.2L30 16.95L29.75 16.3M22.1,15.95Q22.55 16.3 22.25 16.95L22.2 17.1L23 17.3L23 17.15L23.05 17L23.15 16.95L23.2 16.9L23.3 16.85Q23.65 17.05 23.6 17.5L23.75 17.75L23.4 18.05L23.2 18.2L23.1 18.25Q22.75 18.15 22.85 17.9L22 17.55L21.8 17.95L21.6 18.05Q21.25 17.8 21.35 17.35L20 16.85L20.2 16.85L21.55 16.95L21.95 16.05Q22 15.95 22.1 15.95M-1.15,13.3L0.6 15.35L1.9 16.5L1 16.95L0.8 16.6L-1.35 13.05L-1.15 13.3M3.85,24.15Q3.6 24.05 3.65 23.75L3.8 23.55L4.1 23.55L4.35 23.75L4.35 23.9L4.1 24.15L3.85 24.15M15.55,13.85L15.6 13.7L15.75 13.55L15.9 13.45Q16.25 13.55 16.1 13.85L15.65 13.95L15.55 13.85M16.95,16.55L16.95 16.4L17 16.25Q17.05 16.15 17.2 16.15Q17.6 16.15 17.5 16.5L17.05 16.65L16.95 16.55M18.65,19.9L18.45 20.2L18.3 20.35L17.95 19.95L18 19.4Q18.05 19.25 18.2 19.25L18.4 19.3L18.6 19.4L18.65 19.45L18.75 19.55L18.65 19.9" />
<path style="fill:#A695C9;fill-opacity:1" d="M16,12.55L15.9 12.5L15.7 12.45Q15 12.6 14.55 13.15Q13.75 14 12.6 14L12.3 14L12.25 14.1L11.85 14.15L11.85 14.2L11.75 14.35L11.45 14.4L11.35 14.35L11.2 14.05Q9.5 14.25 8.25 15.1Q5.55 15.9 4.05 18.15Q3.55 18.9 3.2 19.8L3.1 19.75L2.8 19.95Q2.3 20.65 2.15 21.5L2.15 21.55Q1.9 22.45 2.4 23.15L2.45 23.15L2.45 23.75L2.4 24.6L2.4 24.65L1.75 23.75L1.6 23.4Q1.15 22.55 1.1 21.55Q1 20.35 1.4 19.05L1.7 18.3L2.4 17.85Q3.5 17.1 3.85 15.55L4.6 15Q5.3 14.5 6.1 14.15L7.05 13.75L8.5 13.35L9.75 13.15Q12.5 12.95 13.95 12.35L15.45 11.75L16.55 11.3L17.65 10.9L17.85 10.8L18.7 11.25Q17.25 11.65 16 12.55M2.25,15.3L0.55 14.05L-1.85 12.3L-2.4 11.45L1.7 14.65L2.4 15.15L2.35 15.25L2.25 15.3M3.2,17.25Q2.9 17.3 2.95 17.6Q2.95 18.05 3.5 17.95L3.85 17.55L3.85 17.45L3.6 17.25L3.2 17.25M14.65,15.45L14.65 15.6L14.55 15.7L13.95 15.85L13.8 15.75L13.75 15.65L13.8 15.45L14.1 15.25L14.4 15.25L14.65 15.45M13.4,18.25L14.05 18.3L14.6 18.55L14.65 18.7L14.5 18.9L13.3 18.75Q13.05 18.55 13.3 18.35L13.4 18.25" />
<path style="fill:#373254;fill-opacity:1" d="M8.15,12.2L9 12.1L9.55 12.05L13.4 11.35L15.4 10.45L16.4 9.95L16.5 9.9L17.7 9.5L18.85 9.3L20.9 9.3L22.3 9.5L23.45 9.8L24.95 10.45L26.05 11L26.85 11.5L28.3 12.5L29.4 13.3L29.75 13.6L30.25 14L30.4 14.15L29.85 15.4L29.25 14.8L28.35 14.05L28.25 13.95L25.35 12.1L24.6 11.65L24.35 11.55Q23.75 11.2 23.2 11L22.75 10.85L21.75 10.55L21.7 10.55L18.85 10.5L18.1 10.7L17.85 10.8L17.65 10.9L16.55 11.3L15.45 11.75L13.95 12.35Q12.5 12.95 9.75 13.15L8.5 13.35L7.05 13.75L6.1 14.15Q5.3 14.5 4.6 15L3.85 15.55Q3.5 17.1 2.4 17.85L1.7 18.3L1.4 19.05Q1 20.35 1.1 21.55Q1.15 22.55 1.6 23.4L1.75 23.75L2.4 24.65L2.45 24.7L1.65 24.9L1.05 24.9L1 24.8L0.45 23.75Q-0.05 22.5 -0.1 21.5Q-0.15 19.55 0.5 17.95L-0.55 16.55L-3.5 11.5L-5 8.65L-0.9 11.2Q2 13.05 2.7 13.65Q3.4 14.25 3.95 13.85Q4.5 13.4 5.75 12.9L7 12.5L8.15 12.2M-1.35,13.05L0.8 16.6L1 16.95L1.9 16.5Q2.3 16.05 2.35 15.25L2.4 15.15L1.7 14.65L-2.4 11.45L-1.85 12.3L-1.35 13.05" />
<path style="fill:#302B4A;fill-opacity:1" d="M31.1,11.75L29.1 15L28.6 15.65L27.75 15.85L27.25 15.8Q26.5 15.6 26.25 15Q25.8 14.1 25.95 13.8L26.15 13.6L27.45 12.6L29.55 11.1L30.05 10.75L31.75 9.85Q31.9 10.1 31.1 11.75M22.75,3.35Q23.05 3.55 23.1 5.35L22.95 9.2L22.85 10L22.2 10.6L21.7 10.75L20.45 10.55Q19.65 10 19.6 9.7L19.65 9.4L20.3 7.85L21.45 5.55L21.7 5L22.75 3.35M21.4,7.3L20.45 9.45Q20.9 10.15 21.6 9.9L21.75 9.85L21.9 9.65L22.3 8.2L22.4 5.1L22.1 5.75L22.05 5.75Q21.65 6.55 21.4 7.3M28.65,12.6L26.8 14.05Q26.85 14.8 27.55 14.95L27.7 15L27.95 14.9L29.05 13.8L30.6 11.2L30.05 11.55L30 11.6L28.65 12.6M10.95,11.7L11.1 14.3L12.45 14.25L12.5 14.15L12.6 13.85Q12.7 13.3 12.25 12.15L10.85 9.15L10.8 9.95L10.85 10L10.95 11.7M11.6,9.1L13.35 12.9L13.65 13.8L13.3 14.55L13 15.05Q12.4 15.5 11.65 15.35Q10.65 15.15 10.4 14.85L10.3 14.55L10.25 12.8L10.1 10L10.1 9.35L10.3 7.35Q10.6 7.35 11.6 9.1" />
<path style="fill:#A695C9;fill-opacity:1" d="M21.95,8.95Q22.3 7.05 22.05 5.75L22.1 5.75L22.4 5.1L22.3 8.2L21.9 9.65L21.95 8.95M28.35,14.35Q29.55 12.8 30 11.6L30.05 11.55L30.6 11.2L29.05 13.8L27.95 14.9L28.35 14.35M12.35,13.1Q11.65 11.15 10.85 10L10.8 9.95L10.85 9.15L12.25 12.15Q12.7 13.3 12.6 13.85L12.35 13.1" />
<path style="fill:#866CB6;fill-opacity:1" d="M21,9.4Q20.9 9.15 21.35 8.05L22.05 5.75Q22.3 7.05 21.95 8.95L21.9 9.65L21.75 9.85L21 9.4M27.35,14.25Q27.35 14 28.3 13.25L30 11.6Q29.55 12.8 28.35 14.35L27.95 14.9L27.7 15Q27.25 14.5 27.35 14.25M10.85,10Q11.65 11.15 12.35 13.1L12.6 13.85L12.5 14.15L11.6 13.95Q11.45 13.8 11.25 12.55L10.85 10" />
<path style="fill:#5F539C;fill-opacity:1" d="M21.75,9.85L21.6 9.9Q20.9 10.15 20.45 9.45L21.4 7.3Q21.65 6.55 22.05 5.75L21.35 8.05Q20.9 9.15 21 9.4L21.75 9.85M27.7,15L27.55 14.95Q26.85 14.8 26.8 14.05L28.65 12.6L30 11.6L28.3 13.25Q27.35 14 27.35 14.25Q27.25 14.5 27.7 15M11.25,12.55Q11.45 13.8 11.6 13.95L12.5 14.15L12.45 14.25L11.1 14.3L10.95 11.7L10.85 10L11.25 12.55" />
<path style="fill:#302B4A;fill-opacity:1" d="M-5.85,8.2L-6 8.1Q-5.95 8.1 -5.85 8.2" />
<path style="fill:#302B4A;fill-opacity:1" d="M8.3,16.95L8.45 18.4Q8.4 19.45 7.75 21Q7.05 22.55 4.35 22.35L4.25 22L4.2 21.6Q4.1 20.85 4.45 19.9Q5.5 17.35 7.7 17L7.9 17L8.3 16.95M5,21.75Q7.2 22.05 7.8 19L7.9 17.8L7.85 17.75Q6.95 17.45 5.8 18.9Q4.85 20.1 4.95 21.55L5 21.75" />
<path style="fill:#A83D28;fill-opacity:1" d="M7.05,19.75Q6.2 21 4.95 21.55Q4.85 20.1 5.8 18.9Q6.95 17.45 7.85 17.75L7.9 17.8Q7.75 18.75 7.05 19.75" />
<path style="fill:#8C2C19;fill-opacity:1" d="M4.95,21.55Q6.2 21 7.05 19.75Q7.75 18.75 7.9 17.8L7.8 19Q7.2 22.05 5 21.75L4.95 21.55" />
<path style="fill:#FFFFFF;fill-opacity:1" d="M7,19.15L6.65 19.4L6.4 19.4L6.3 19.05L6.55 18.75L6.75 18.45L7.15 18.45L7.2 18.8L7 19.15" />
</g>
</svg>
