<?xml version="1.0" encoding="utf-8"?>
<svg version="1.1" id="Layer_1"
xmlns="http://www.w3.org/2000/svg"
xmlns:xlink="http://www.w3.org/1999/xlink"
xmlns:author="http://www.sothink.com"
width="42px" height="104px"
xml:space="preserve">
<g id="1380" transform="matrix(1, 0, 0, 1, -43.5, -21.45)">
<path style="fill:#202017;fill-opacity:1" d="M80.3,39.85L79.9 40L77.45 40.35Q75.65 40.4 74.45 39.3L73.15 37.9L72.85 37.35Q72 36 72.3 34.7L72.3 34.65L72.3 34.45Q72.45 33.35 73 32.6L73.55 32.05L73.65 32L74 31.75L75.5 31L76.1 30.65L77.25 29.2Q77.95 28.3 78.05 26.45L78.05 26.25L78.15 23.3Q78.05 22.15 78.7 21.65Q79.1 21.15 80.75 21.9L80.95 21.85Q82.4 22.65 83.85 25.85L84.1 26.4Q85.7 30.05 85.15 33.1Q84.55 35.5 83.85 36.7L82.55 38.45L82.35 38.7L81.5 39.3L80.3 39.85M69.2,97.65Q69.15 99.5 69.9 100.9L70.8 102.15L71.25 102.7L71.35 102.8Q72.55 104.3 73.05 105.75L73.7 108.5L73.7 108.55L73.9 109.9Q74.1 112.25 73.5 116.05Q73.1 118.85 72.5 120.55L72 121.65Q71.15 123.4 73.7 123.6Q76.3 123.7 76.4 122.55L76.2 120.05L76.2 119.85L75.9 118.15Q75.8 116.25 76.15 113.2L76.6 108.1L76.65 107.9Q76.75 105.7 76.25 104.2L76.2 104.1L75.65 102.8L74.8 101.5L74.2 100.65L73.3 99.2L73.1 98.65Q72.9 97.45 73.7 95.45Q74.55 92.95 74.6 91.6L74.6 91.4L74.5 88.7L73.95 85.95Q73.55 84.5 73.15 80.7L73.15 80.6L73.1 80.2Q72.8 76.55 73.35 74Q73.75 72.2 73.5 70.7L74.75 69.85Q75.35 72.15 74.65 75.3Q74.15 77.45 74.45 80.65L74.55 81.85L75.15 85.3Q75.9 89.05 75.9 91.4Q75.9 93.05 75.45 94.1Q74.4 96.5 74.3 97.75Q74.25 98.35 74.6 98.95L75.65 100.3L75.7 100.35Q76.7 101.3 77.3 102.8L77.7 103.95Q78.25 105.8 78 108.75L77.85 110.4Q77.25 114.45 77.25 116.3L77.35 119.35L77.8 121.65Q78 122.85 77.6 123.7Q77.15 124.55 76.2 124.85L74.4 125.2L72.2 124.9Q70.75 124.55 70.45 123.55Q70.1 122.5 70.7 121L71.75 118.1L72.5 114.9Q72.8 112.95 72.65 109.85L72.55 108.9Q72.2 106.3 70.4 104.1L69.45 102.8Q68.25 101.1 68.05 100L68 99.7Q67.75 98.25 68.1 96.25Q68.4 94.25 69.4 92.35L69.7 91.8L69.9 91.4Q70.9 89.05 69.85 82.9L69.6 81.25L69.5 80.7L69.75 78.75Q69.7 76.6 68.7 73.7L69.15 72.75Q70.35 76.75 71.05 81L71.25 82.5Q72.1 88.65 71.45 91.4L70.9 92.8L70.7 93Q69.35 95.1 69.2 97.65M80.75,23.3Q79.55 22.45 79.5 22.75L79.4 23.6L79.4 25.25L79.25 26.7L79.75 26.95L80.75 27.2L80.9 27.25L81.9 27.45L83.25 27.15L81.6 24.15L80.75 23.3M80.95,28.2L80 28L79.75 28L79.3 27.8L79 27.55L78.8 28.45Q78.35 29.85 77.15 31.15Q77.05 31.5 77.4 32.5L77.55 32.85L78.2 34.05L78.55 34.45L79.45 34.9L79.8 35.05L81.45 35.55L82.55 35.5L83.2 35.4L83.65 34.85Q84.25 33.4 84.25 32L83.95 29.4L83.95 29.25L83.55 27.95L83.5 27.8L81.95 28.3L81.8 28.3L80.95 28.2M73.2,35.1Q73.1 36.2 74.3 37.4L74.55 37.65L75.6 38.55L76.1 38.85L77.05 39.1L77.55 39.1L79.55 38.85L80.85 38.5L80.95 38.45L81.05 38.45L81.2 38.35L82.05 37.5L82.15 37.4L82.9 36.35L81.95 36.45L81.8 36.5L80.25 36.2L78.5 35.2L77.85 34.85L77.8 34.8Q76.75 33.75 76.3 31.7L76.1 31.8L75.1 32.35L74.6 32.6L74.45 32.7L74.05 33.05L73.8 33.3Q73.35 33.8 73.25 34.8L73.2 35.1M73.1,69.4L71.85 66.5L73.15 65.6L74.5 69.15L74.55 69.2L73.3 70L73.1 69.4M66.9,70.5L66.75 70.05Q66.15 68.3 65.95 68.35L66 68.35L66.55 68.2L67.55 68L68.35 70.25L68.65 71.15L67 70.8L66.9 70.5M67.3,71.6L68.7 71.85L67.95 73.2L67.9 73.3L67.3 71.6M68.5,75.5L68.9 76.75L69.1 78.5L68.5 75.5" />
<path style="fill:#38382E;fill-opacity:1" d="M81.6,24.15L83.25 27.15L81.9 27.45L81.6 24.15M83.9,29.75Q83.75 32.1 83.1 34.25L82.55 35.5L81.45 35.55L79.8 35.05L79.45 34.9L78.55 34.45L78.95 34.2L80.1 32.85L80.35 32.55Q81.4 31.2 81.6 29.9L81.8 28.3L81.95 28.3L83.5 27.8L83.55 27.95L83.95 29.25L83.95 29.4L83.9 29.75M74.55,37.65L74.3 37.4Q73.1 36.2 73.2 35.1L73.55 35.25L76.45 35.4L76.85 35.3L77.3 35.15L77.8 34.8L77.85 34.85L78.5 35.2L80.25 36.2L81.8 36.5L81.95 36.45L81.85 36.6L81 37.5L80.9 37.6L80.35 37.9L79.9 38.05L79.35 38.25L79 38.35L77.9 38.7L77.05 38.75L76.2 38.7L76.1 38.7L75.6 38.55L74.55 37.65M50.75,34.2L48.6 36.65L47.45 38.45Q46.6 38.15 46.1 37.4Q44.95 35.95 45.5 35.1Q46.05 33.8 47.05 33.15L48 32.8L48.75 33.9L50.15 33.4L50.75 34.2M45.2,31.45L46.75 29.75L47.55 31.8Q46 32.35 44.9 34.15Q44.85 33.05 45.1 32L45.2 31.45M71.3,69.2Q71.2 69.4 70.1 69.8L70.2 68.45L70.05 67.25L71.3 66.75L71.85 66.5L73.1 69.4L73.3 70L71.85 70.65L71.3 69.2M70.4,71L70.05 71.05L70.1 70.85L70.2 70.85L70.4 71M68.35,70.25L67.55 68L68.15 67.85L69.2 67.55L69.25 67.7Q69.45 68.75 69.3 70L68.35 70.25M72.05,95.35Q73.55 95.5 72.3 94.55Q73.2 93.2 72.45 93.15L71.55 93.1L70.7 93L70.9 92.8L71.45 91.4Q72.1 88.65 71.25 82.5L71.05 81L72.1 80.8L73.15 80.7Q73.55 84.5 73.95 85.95L74.5 88.7L74.6 91.4L74.6 91.6Q74.55 92.95 73.7 95.45Q72.9 97.45 73.1 98.65Q71.65 97.3 72.05 95.35M73.5,70.7Q73.75 72.2 73.35 74Q72.8 76.55 73.1 80.2L72.6 79.55Q71 77.15 71.9 74.45L72 73.95Q72.3 73.05 72.1 71.85Q73.5 71.75 72.7 71.05L73.5 70.7M70.95,71.6Q71.15 72.1 71 72.75L70.95 72.85Q70 72.55 69.95 71.8L70.9 71.6L70.95 71.6M75.4,121.4Q74.75 117.8 74.95 114.5L75 113.6L75.65 113.55L75.65 113.5Q75.8 112.65 75.1 112.4L75.55 109.5L75.75 108.4L74.6 108.25L73.7 108.55L73.7 108.5L73.05 105.75Q72.55 104.3 71.35 102.8L71.25 102.7L70.8 102.15L69.9 100.9Q72.65 102.15 73.55 101.25L74.2 100.65L74.8 101.5L75.65 102.8L76.2 104.1L76.25 104.2Q76.75 105.7 76.65 107.9L76.6 108.1L76.15 113.2Q75.8 116.25 75.9 118.15L76.2 119.85L76.2 120.05L76.4 122.55Q76.3 123.7 73.7 123.6Q71.15 123.4 72 121.65L72.5 120.55Q72.6 122.35 75.4 121.4M74,119.05Q74.6 119.35 74.35 120.05L74.35 120.15L73.8 120.25Q73.3 119.45 74 119.05M75,122.05L74.7 122Q74.2 122.15 74.05 122.6Q74.5 123.25 75.15 122.8L75.2 122.55L75.1 122.1L75 122.05" />
<path style="fill:#645D4C;fill-opacity:1" d="M79.75,26.95L79.25 26.7L79.4 25.25L79.4 23.6L79.5 22.75Q79.55 22.45 80.75 23.3L81.6 24.15L81.9 27.45L80.9 27.25L80.75 27.2L80.85 26.4L80.65 24.55L80.2 24.05Q79.85 24.15 79.8 24.45L79.8 24.7L79.75 26.95M81.8,28.3L81.6 29.9Q81.4 31.2 80.35 32.55L80.1 32.85L78.95 34.2L78.55 34.45L78.2 34.05L77.55 32.85L77.4 32.5Q77.05 31.5 77.15 31.15Q78.35 29.85 78.8 28.45L79 27.55L79.3 27.8L79.75 28L79.8 28.05L78.95 29.95Q77.9 31.3 78.9 31.05L79.55 30.55Q80.4 29.65 80.95 28.2L81.8 28.3M82.55,35.5L83.1 34.25Q83.75 32.1 83.9 29.75L83.95 29.4L84.25 32Q84.25 33.4 83.65 34.85L83.2 35.4L82.55 35.5M82.9,36.35L82.15 37.4L82.05 37.5L81.2 38.35L81.05 38.45L80.95 38.45L80.85 38.5L79.55 38.85L77.55 39.1L77.05 39.1L76.1 38.85L75.6 38.55L76.1 38.7L76.2 38.7L77.05 38.75L77.9 38.7L79 38.35L79.35 38.25L79.9 38.05L80.35 37.9L80.9 37.6L81 37.5L81.85 36.6L81.95 36.45L82.9 36.35M73.25,34.8Q73.35 33.8 73.8 33.3L74.05 33.05L74.45 32.7L74.6 32.6L75.1 32.35L76.1 31.8L76.3 31.7Q76.75 33.75 77.8 34.8L77.3 35.15L76.85 35.3L76.45 35.4L73.55 35.25L73.2 35.1L73.25 34.8M46.75,29.75L45.2 31.45L45.2 31.35Q45.5 30.05 46.5 28.65Q47.4 27.1 47.65 27.5L48.1 28.95L48.95 31.7L47.55 31.8L46.75 29.75M50.15,33.4L48.75 33.9L48 32.8Q48.45 32.6 48.85 32.8Q49.6 32.9 50.05 33.4L50.15 33.4M71.85,70.65L70.85 70.9L70.4 71L70.2 70.85L70.1 70.85L70.05 71.05L69.75 71.1L70.1 69.8Q71.2 69.4 71.3 69.2L71.85 70.65M68.35,70.25L69.3 70L69.2 70.45L69 71.15L68.65 71.15L68.35 70.25M70.95,72.85L71 72.75Q71.15 72.1 70.95 71.6L72.7 71.05Q73.5 71.75 72.1 71.85Q72.3 73.05 72 73.95L71.9 74.45Q71 77.15 72.6 79.55L73.1 80.2L73.15 80.6L73.15 80.7L72.1 80.8L71.05 81Q70.35 76.75 69.15 72.75L69.5 71.8L69.95 71.8Q70 72.55 70.95 72.85M70.15,73.05Q69.6 74.6 70.8 75.3L70.85 75.2Q71.15 73.9 70.2 73.05L70.15 73.05M73.55,101.25Q72.65 102.15 69.9 100.9Q69.15 99.5 69.2 97.65Q69.35 95.1 70.7 93L71.55 93.1L72.45 93.15Q73.2 93.2 72.3 94.55Q73.55 95.5 72.05 95.35Q71.65 97.3 73.1 98.65L73.3 99.2L74.2 100.65L73.55 101.25M72.5,120.55Q73.1 118.85 73.5 116.05Q74.1 112.25 73.9 109.9L73.7 108.55L74.6 108.25L75.75 108.4L75.55 109.5L75.1 112.4Q75.8 112.65 75.65 113.5L75.65 113.55L75 113.6L74.95 114.5Q74.75 117.8 75.4 121.4Q72.6 122.35 72.5 120.55M70,96.7Q69.55 98.8 70.6 99.25Q71.6 99.65 71 97.15Q70.35 94.65 70 96.7M73.8,120.25L74.35 120.15L74.35 120.05Q74.6 119.35 74 119.05Q73.3 119.45 73.8 120.25M75.1,122.1L75.2 122.55L75.15 122.8Q74.5 123.25 74.05 122.6Q74.2 122.15 74.7 122L75 122.05L75.1 122.1" />
<path style="fill:#3A3A3A;fill-opacity:1" d="M79.8,50.05L80.2 48.8Q79.2 49.55 78 50L78 49.95Q79.75 48.05 80.55 46.3L84.75 46.1L84.15 47.9Q82.65 49.85 79.8 50.05M79,53.1L79.65 53.2L80.7 53.35Q82.9 53.85 84.5 56.35Q82.9 57.15 80.35 55.95L81.4 55.55L76.65 53.7L79 53.1" />
<path style="fill:#4A4131;fill-opacity:1" d="M56.7,61.6L56.25 61.55Q52.6 61 52.85 59.6L52.7 58.5L54.15 58.35L54.25 59.3L54.25 59.35L55.2 59.75L57.15 60.15L57.2 60.15L57.2 59.9L57.2 59.7L57.25 59.75L58.6 59.9L59.15 59.4L59.15 59.45L59.2 60.25L59.8 60.25L62.65 60.1L63.45 59.8L63.45 59.7L63.35 59.25L65.1 59.15L65.5 59.4L68.2 58.55L68.8 58.25L68.8 58L68.8 57.25L68.75 56.35L68.6 55.55Q68.2 53.45 68.1 50.8L68.15 50.75L68.95 50.7L69.25 51.05L70.05 52.1Q70.85 53.05 73.9 51.2L74.65 50.75L75.05 50.45Q77.15 48.95 78.15 47.35L78.2 47.2Q79.5 45.15 79.85 43.55Q80.2 41.9 79.9 40.15L79.9 40L80.3 39.85L81.5 39.3L81.65 39.9Q81.85 40.95 81.7 42.65Q81.5 44.3 80.65 46.05L80.55 46.3Q79.75 48.05 78 49.95L78 50Q76.2 52.1 73.75 53.05L73.7 53.05L70.7 54.1L70.45 54.15L70.5 54.25L70.8 55.9L70.8 56.55L70.85 56.7Q71.5 59.65 67.95 60.75L67.05 61.05Q64 61.9 62.05 61.95L58.55 61.85L57.25 61.7L56.7 61.6" />
<path style="fill:#1C1C1C;fill-opacity:1" d="M72.7,71.05L70.95 71.6L70.9 71.6L69.95 71.8L69.5 71.8L69.15 72.75L68.7 73.7Q69.7 76.6 69.75 78.75L69.5 80.7Q69.15 82.05 68.25 83.05L68.65 85.05L68.25 84.95L67.65 84.45L67.25 83.65L66 84.2L64.8 84.35L63.65 84.15L63.25 95.05L62.85 97.35Q62.55 97.25 62.45 94.3Q62.05 88.65 62.25 88.3L60.55 89.35Q60.3 89.4 60.35 89.1Q61.1 86.8 62.4 86.1L62.3 84.35L61.75 85L60.4 85.95L59.45 85.85Q60 82.5 61.95 81.85Q61.3 78.85 61.7 77.1L61.95 76L61.1 75.8Q60 75.45 59.4 74.95Q58.95 75.4 58.35 75.4Q57.65 75.35 58.05 74.85L58.65 74L58.05 72.6Q57.5 71.2 57.55 69.85L57.7 67.85Q56.65 68.05 55.35 67.3Q57.9 66.5 58.75 63.85L59.8 64.1L59.85 64.85L59.45 65.6Q58.05 68.55 59.35 72.6Q60 74.5 61.65 74.85Q63.25 75.25 65.1 74.85Q66.9 74.35 67.9 73.3L67.95 73.2L68.7 71.85L67.3 71.6Q65.4 70.95 64.6 68.55L65.1 68.5Q65.65 70.15 67 70.8L68.65 71.15L69 71.15L69.2 70.45L69.3 70Q69.45 68.75 69.25 67.7L69.2 67.55L70.05 67.25L70.2 68.45L70.1 69.8L69.75 71.1L70.05 71.05L70.4 71L70.85 70.9L71.85 70.65L73.3 70L74.55 69.2Q77 67.2 76.9 63.3L76.5 60.6L76.45 60.6L76.85 62.9L76.8 63.45L76.45 64.7L76.2 64.85Q75.05 64.65 74.25 63.75L74.25 62.35L73.55 60.5Q75.45 59.15 76 58.1Q76.5 57.05 76.25 56Q75.95 54.95 75.15 54.05Q74.5 53.25 73.75 53.05Q76.2 52.1 78 50Q79.2 49.55 80.2 48.8L79.8 50.05Q82.65 49.85 84.15 47.9Q82.4 52.15 77.2 53.05L79 53.1L76.65 53.7L81.4 55.55L80.35 55.95Q82.9 57.15 84.5 56.35L84.55 56.4Q82.7 57.75 80.45 57.7L79 57.5L79.8 58.2Q80.95 59.45 81.5 60.7L78 60.95L77.05 60.65Q77.65 63.15 77.3 65.2Q76.75 68.2 74.75 69.85L73.5 70.7L72.7 71.05M57.25,61.7L57.4 62.25Q57.65 63.3 58.6 63.8L58.05 64L56.4 64Q55.5 63.85 56.05 62.6Q56.35 61.95 56.7 61.6L57.25 61.7M67.95,74.15L66.8 75.2L67.1 76.15L67.1 76.25Q66.35 76.25 65.7 75.65L63.05 76.25Q62.1 78.75 63 81.85Q63.35 81.35 63.25 82.35Q63.05 83.25 64.5 83.55Q65.9 83.85 67.25 82.7Q68.65 81.6 68.95 79.85L69.1 78.5L68.9 76.75L68.5 75.5L67.95 74.15" />
<path style="fill:#98948E;fill-opacity:1" d="M79.8,24.7L79.8 24.45Q79.85 24.15 80.2 24.05L80.65 24.55L80.85 26.4L80.75 27.2L79.75 26.95L79.8 24.7M79.55,30.55L78.9 31.05Q77.9 31.3 78.95 29.95L79.8 28.05L79.75 28L80 28L80.95 28.2Q80.4 29.65 79.55 30.55" />
<path style="fill:#1B3862;fill-opacity:1" d="M53.15,33.95L54.35 31.35L54.4 31.2L55.6 30.6L57.05 29.95L60.05 28.9L63.05 28.25L65.3 28.1L65.25 28.15Q63.4 28.75 62.15 30.35Q61.2 31.55 60.6 33.25L60.2 34.5L60 35.35L59.85 36.35L59.85 36.4L59.7 37.45L63.2 35.85L57.05 44.2L56.7 44.6L56.25 44.3L50.35 40.4L52.65 39.4L52.45 37.6L52.5 36.75L52.6 36.2Q52.75 35.1 53.15 33.95M56.5,43.15L60.25 38.15L58.2 38.9L58.15 38.3L58.15 38.25Q58.05 36.6 58.55 34.65L58.7 34.05Q59.2 32.3 60.3 30.9L59.7 30.95Q58.05 31.35 55.6 32.45L54.45 32.95L54.4 33.15L54 34.35L53.7 35.9L53.6 36.3Q53.4 38.45 53.95 39.95L52.4 40.6L53.6 41.35L56.5 43.15" />
<path style="fill:#625643;fill-opacity:1" d="M54.15,58.35L52.7 58.5L51.55 52.7L51.4 52.4L50.5 51.9L49.65 51.35Q46.2 48 45.95 44.25L45.95 44.05Q45.85 41.8 46.85 39.55L47.45 38.45L48.6 36.65L50.75 34.2L51.55 33.45L54.35 31.35L53.15 33.95L52.85 34.15L52.35 34.55L51.55 35.25Q50.2 36.55 49 38.55L48.5 39.45L48.45 39.5L48.25 39.85L48.25 39.9L48.25 40L48.2 40.05L48.05 40.3L47.95 40.6L48.05 40.45Q47.25 42.5 47.25 43.85Q47.25 44.8 48.05 47.2L48.25 47.75Q49.2 49.7 52.2 51L52.45 51.2Q53 51.7 53.4 53.3L53.75 55.3L54.1 58.1L54.15 58.35M55.6,30.6Q57.7 29.5 60.05 28.9L57.05 29.95L55.6 30.6M69.6,30.3L64.55 29.95L62.15 30.35Q63.4 28.75 65.25 28.15L66.3 28.1Q71.85 28.55 75.5 31L74 31.75L73.65 32Q71.75 30.8 69.6 30.3M59.15,59.4L58.6 59.9L57.25 59.75L57.2 59.7L57.05 57.9L56.95 54.6L56.95 54.4L56.95 53.9L57.3 53.85L57.75 54.55Q58.6 56.1 59 57.95L59 58.05L59.15 59.4M63.35,59L63.15 57.55L63.05 56.75Q62.7 54.7 63 53.7Q63.1 53.3 63.35 53.05L63.75 53.7Q64.65 55.3 65 57.3L65.05 57.85L65.1 58.75L65.1 59.1L65.1 59.15L63.35 59.25L63.35 59" />
<path style="fill:#6CA7DB;fill-opacity:1" d="M55.4,35.55Q55.25 36.95 55.25 38.2L55.25 38.25Q55.3 40.2 55.8 41.65L53.6 41.35L52.4 40.6L53.95 39.95Q53.4 38.45 53.6 36.3L53.7 35.9L54 34.35L54.4 33.15L54.45 32.95L55.6 32.45Q58.05 31.35 59.7 30.95L60.3 30.9Q59.2 32.3 58.7 34.05L55.4 35.55" />
<path style="fill:#10100B;fill-opacity:1" d="M50.15,33.4L50.05 33.4Q49.6 32.9 48.85 32.8Q48.45 32.6 48 32.8L47.05 33.15Q46.05 33.8 45.5 35.1Q44.95 35.95 46.1 37.4Q46.6 38.15 47.45 38.45L46.85 39.55Q45.7 39.05 44.7 37.65Q43.75 36.1 43.5 33.4Q43.5 31 45.3 27.95L45.8 27.25Q46.35 26.5 46.65 26.4L48.1 26.35Q48.45 26.4 48.85 27.25L49.45 29.2Q49.9 31.95 51.3 33.25Q51.35 33.4 51.5 33.4L51.55 33.45L50.75 34.2L50.15 33.4M45.1,32Q44.85 33.05 44.9 34.15Q46 32.35 47.55 31.8L48.95 31.7L48.1 28.95L47.65 27.5Q47.4 27.1 46.5 28.65Q45.5 30.05 45.2 31.35L45.2 31.45L45.1 32M48.25,39.9L48.25 39.85L48.45 39.5L48.5 39.45L48.3 39.9L48.25 39.9" />
<path style="fill:#F5F4EA;fill-opacity:1" d="M73.55,32.05L73 32.6L69.95 31.7L65 31.55L63.4 31.95L61.5 32.75L60.8 33.15L60.6 33.25Q61.2 31.55 62.15 30.35L64.55 29.95L69.6 30.4Q71.7 30.9 73.55 32.05M48.15,40.15L48.2 40.1L48.2 40.05L48.25 40L48.3 39.9L48.5 39.45L49 38.55Q50.2 36.55 51.55 35.25L52.35 34.55L52.85 34.15L53.15 33.95Q52.75 35.1 52.6 36.2L51.6 36.9L50 38.3L48.55 39.95L48.2 40.3L48.05 40.45L48.15 40.15M59.85,36.35L60 35.35L60 35.45L59.85 36.35M54.1,58.1L53.75 55.3L53.4 53.3L54.3 53.55L55.05 58.4L54.55 58.35L54.1 58.1M59,58.05L59 57.95Q58.6 56.1 57.75 54.55Q58.6 54.85 59.25 55.85Q59.75 56.65 60.05 57.7L60.15 58.35L59 58.05M65.05,57.85L65 57.3Q64.65 55.3 63.75 53.7L64.9 53L66.1 57.5L65.05 57.85" />
<path style="fill:#D4D0C5;fill-opacity:1" d="M60.8,33.15L61.5 32.75L63.4 31.95L65 31.55L69.95 31.7L73 32.6Q72.45 33.35 72.3 34.45L72.3 34.65L72.3 34.7Q71.45 36.65 72.65 39.1Q74.05 41.95 76.75 42.4L76.75 42.5L76.55 42.4Q75.45 42.95 76.2 44.3L76.45 44.6L75.7 46.85L75.5 46.65Q75.1 46.7 74.8 46.95Q74.05 47.5 74.95 47.7L75.15 47.7L74.35 48.55Q74.2 48.6 74 48.75Q74.15 49.25 73.1 49.35L72.85 49.5Q73.95 50.35 72.4 50.95Q71.9 51.1 71.45 50.6L71.2 50.35L69.25 51.05L68.95 50.7L68.15 50.75L67.95 50.55L66.6 50.75L66.85 52.65L67 52.6Q69.15 54.05 67 53.9L67.3 56.3L67.35 56.35L67.55 56.5L67.65 56.95L66.1 57.5L64.9 53L63.75 53.7L63.35 53.05Q63.1 53.3 63 53.7L62.65 53.6L62.55 53.6L61.7 54.05L62.25 58.2L62.15 58.45L61.8 58.6L61.75 58.7L61.7 58.65Q61.55 58.9 61 59L60.85 59L60.7 59L60.4 58.7L60.2 58.35L60.15 58.35L60.05 57.7Q59.75 56.65 59.25 55.85Q58.6 54.85 57.75 54.55L57.3 53.85L56.95 53.9L56.95 54.4L56.95 54.6L56.3 54.6L56 57.05L56.6 58Q56.85 58.65 55.8 58.25L55.8 58.4L55.65 58.45L55.25 58.45L55.05 58.4L54.3 53.55L53.4 53.3Q53 51.7 52.45 51.2L54.6 50.95L54.95 51.6Q59.15 54.5 62.25 51.2Q63.7 50.35 63.65 49.1Q66.9 48.95 69.45 46.4Q71.95 43.8 70.9 39.9L71.75 40.9Q71.9 41.15 71.95 40.85Q72.4 37.6 68.35 37.15L67 37.3L63.4 37.15Q61.45 37.85 61.05 39.85L60.95 40.2L60.65 39.95L60.2 40.2Q59.75 40.85 60.3 40.95L60.7 41.05L60.4 41.9L60.3 41.9L60 42.2L59.9 42.65L59.6 42.95Q60.2 43.65 58.7 43.75L57.6 44.6L57.2 44.5L57.05 44.2L63.2 35.85L59.7 37.45L59.85 36.4L60 35.5L60 35.45L60 35.35L60.2 34.5L60.6 33.25L60.8 33.15M55.85,45.85L53.5 44.35Q51.7 43.2 50.5 43.75L50.3 43.6Q48.45 43.35 47.9 44.75Q47.7 45.35 48.25 45.2L48.55 45.15Q48.05 46.6 48.25 47.75L48.05 47.2Q47.25 44.8 47.25 43.85Q47.25 42.5 48.05 40.45L48.2 40.3L48.55 39.95L50 38.3L51.6 36.9L52.6 36.2L52.5 36.75L52.45 37.6L52.65 39.4L50.35 40.4L56.25 44.3Q55.8 45 55.85 45.85M48.2,40.05L48.2 40.1L48.15 40.15L48.05 40.45L47.95 40.6L48.05 40.3L48.2 40.05M66.15,33.5Q65.85 33.5 65.65 33.85Q65.3 34.5 65.95 34.55Q68.3 34.85 66.15 33.5M70.8,48Q73.4 48.55 71.25 46.85Q70.7 46.95 70.6 47.5Q70.5 47.95 70.8 48M73.1,44.35Q74.8 45.5 73.45 44L73.25 44.05Q72.85 44.25 73.1 44.35M66,50.95Q66.35 50.55 65.1 49.7Q64.4 49.95 64.45 50.8Q64.55 51.3 64.8 51.25L65.95 51L66 50.95M60.3,54.85Q60 54.95 59.95 55.2Q59.95 55.6 60.3 55.7Q62.15 56.15 60.45 54.8L60.3 54.85M55,53.55Q54.95 53.95 55.15 54Q57.15 54.55 55.55 53.1Q55.05 53.1 55 53.55" />
<path style="fill:#295BB4;fill-opacity:1" d="M58.7,34.05L58.55 34.65Q58.05 36.6 58.15 38.25L58.15 38.3L58.2 38.9L60.25 38.15L56.5 43.15L53.6 41.35L55.8 41.65Q55.3 40.2 55.25 38.25L55.25 38.2Q55.25 36.95 55.4 35.55L58.7 34.05" />
<path style="fill:#B3A38A;fill-opacity:1" d="M69.25,51.05L71.2 50.35L71.45 50.6Q71.9 51.1 72.4 50.95Q73.95 50.35 72.85 49.5L73.1 49.35Q74.15 49.25 74 48.75Q74.2 48.6 74.35 48.55L75.15 47.7L74.95 47.7Q74.05 47.5 74.8 46.95Q75.1 46.7 75.5 46.65L75.7 46.85L76.45 44.6L76.2 44.3Q75.45 42.95 76.55 42.4L76.75 42.5L76.75 42.4Q74.05 41.95 72.65 39.1Q71.45 36.65 72.3 34.7Q72 36 72.85 37.35L73.15 37.9L74.45 39.3Q75.65 40.4 77.45 40.35L79.9 40L79.9 40.15Q80.2 41.9 79.85 43.55Q79.5 45.15 78.2 47.2L78.15 47.35Q77.15 48.95 75.05 50.45L74.65 50.75L73.9 51.2Q70.85 53.05 70.05 52.1L69.25 51.05M48.25,47.75Q48.05 46.6 48.55 45.15L49.85 45.2L49.55 45.9Q49.35 47.65 50.35 48.55Q51.35 49.45 53.25 49.5L53.75 49.35L54 48.8L54.05 48.6Q55.4 49.65 56.85 49.55Q58.25 49.45 58.75 48.45Q59.2 47.4 58.9 47.25Q58.5 47.1 59.35 47.35Q60.15 47.55 61.8 46.6L64.25 47.35Q67 47.5 68.8 44.65Q70.9 41.3 69.2 38.95Q70.05 39.15 70.9 39.9Q71.95 43.8 69.45 46.4Q66.9 48.95 63.65 49.1Q63.7 50.35 62.25 51.2Q59.15 54.5 54.95 51.6L54.6 50.95L52.45 51.2L52.2 51Q49.2 49.7 48.25 47.75M50.5,43.75Q51.7 43.2 53.5 44.35L55.85 45.85Q55.95 46.8 56.65 47.8Q54.65 48.05 54 46.55Q53.4 45.15 50.5 43.75M63.2,40.3Q62.65 43.2 60.8 44.75Q59.5 45.8 58.6 45.65L57.85 45.2L57.55 44.9L57.4 44.8L57.45 44.8L57.2 44.5L57.6 44.6L58.7 43.75Q60.2 43.65 59.6 42.95L59.9 42.65L60 42.2L60.3 41.9L60.4 41.9L60.7 41.05L60.3 40.95Q59.75 40.85 60.2 40.2L60.65 39.95L60.95 40.2L61.05 39.85Q61.45 37.85 63.4 37.15L67 37.3Q63.7 37.85 63.2 40.3M57.2,59.7L57.2 59.9L57.2 60.15L57.15 60.15L55.2 59.75L54.25 59.35L54.25 59.3L54.15 58.35L54.1 58.1L54.55 58.35L55.05 58.4L55.25 58.45L55.65 58.45L55.8 58.4L55.8 58.25Q56.85 58.65 56.6 58L56 57.05L56.3 54.6L56.95 54.6L57.05 57.9L57.2 59.7M59,58.05L60.15 58.35L60.2 58.35L60.4 58.7L60.7 59L60.85 59L61 59Q61.55 58.9 61.7 58.65L61.75 58.7L61.8 58.6L62.15 58.45L62.25 58.2L61.7 54.05L62.55 53.6L62.65 53.6L63 53.7Q62.7 54.7 63.05 56.75L63.15 57.55L63.35 59L63.35 59.25L63.45 59.7L63.45 59.8L62.65 60.1L59.8 60.25L59.2 60.25L59.15 59.45L59.15 59.4L59 58.05M65.1,59.1L65.1 58.75L65.05 57.85L66.1 57.5L67.65 56.95L67.55 56.5L67.35 56.35L67.3 56.3L67 53.9Q69.15 54.05 67 52.6L66.85 52.65L66.6 50.75L67.95 50.55L68.15 50.75L68.1 50.8Q68.2 53.45 68.6 55.55L68.75 56.35L68.8 57.25L68.8 58L68.8 58.25L68.2 58.55L65.5 59.4L65.1 59.15L65.1 59.1M65.95,34.55Q65.3 34.5 65.65 33.85Q65.85 33.5 66.15 33.5Q68.3 34.85 65.95 34.55M70.6,47.5Q70.7 46.95 71.25 46.85Q73.4 48.55 70.8 48Q70.5 47.95 70.6 47.5M76.75,41.7L76.5 41.6L76.75 41.8L76.75 41.7M77.75,43.2Q77.3 43.75 77.85 43.85Q80.1 44.4 78.25 42.9Q77.95 42.9 77.75 43.2M73.25,44.05L73.45 44Q74.8 45.5 73.1 44.35Q72.85 44.25 73.25 44.05M65.95,51L64.8 51.25Q64.55 51.3 64.45 50.8Q64.4 49.95 65.1 49.7Q66.35 50.55 66 50.95L65.95 51M60.45,54.8Q62.15 56.15 60.3 55.7Q59.95 55.6 59.95 55.2Q60 54.95 60.3 54.85L60.45 54.8M55.55,53.1Q57.15 54.55 55.15 54Q54.95 53.95 55 53.55Q55.05 53.1 55.55 53.1" />
<path style="fill:#4D4232;fill-opacity:1" d="M54,46.55Q54.65 48.05 56.65 47.8Q55.95 46.8 55.85 45.85Q55.8 45 56.25 44.3L56.7 44.6L57.05 44.2L57.2 44.5L57.45 44.8L57.4 44.8L57.55 44.9L57.85 45.2L58.6 45.65Q59.5 45.8 60.8 44.75Q62.65 43.2 63.2 40.3Q63.7 37.85 67 37.3L68.35 37.15Q72.4 37.6 71.95 40.85Q71.9 41.15 71.75 40.9L70.9 39.9Q70.05 39.15 69.2 38.95Q70.9 41.3 68.8 44.65Q67 47.5 64.25 47.35L61.8 46.6Q60.15 47.55 59.35 47.35Q58.5 47.1 58.9 47.25Q59.2 47.4 58.75 48.45Q58.25 49.45 56.85 49.55Q55.4 49.65 54.05 48.6L54 48.8L53.75 49.35L53.25 49.5Q51.35 49.45 50.35 48.55Q49.35 47.65 49.55 45.9L49.85 45.2L48.55 45.15L48.25 45.2Q47.7 45.35 47.9 44.75Q48.45 43.35 50.3 43.6L50.5 43.75Q53.4 45.15 54 46.55M52.9,48.55Q53.4 48.35 53.2 47.7L52.15 46.45Q51.25 45.75 50.8 45.55Q50.1 47.1 51.25 47.95Q52.4 48.75 52.9 48.55M67.95,39.5Q66.7 38.95 65.55 40.2Q64.3 41.5 63.75 43.2L62.95 45.45Q63.5 45.85 64.45 45.75L64.9 45.65L65.6 45.45Q68.7 44.3 68.15 40.5L67.95 39.5" />
<path style="fill:#4F4536;fill-opacity:1" d="M51.25,47.95Q50.1 47.1 50.8 45.55Q51.25 45.75 52.15 46.45L53.2 47.7Q53.4 48.35 52.9 48.55Q52.4 48.75 51.25 47.95M68.15,40.5Q68.7 44.3 65.6 45.45L64.9 45.65L64.45 45.75Q63.5 45.85 62.95 45.45L63.75 43.2Q64.3 41.5 65.55 40.2Q66.7 38.95 67.95 39.5L68.15 40.5" />
<path style="fill:#CCC6B8;fill-opacity:1" d="M76.75,41.8L76.5 41.6L76.75 41.7L76.75 41.8M78.25,42.9Q80.1 44.4 77.85 43.85Q77.3 43.75 77.75 43.2Q77.95 42.9 78.25 42.9" />
<path style="fill:#1C202A;fill-opacity:1" d="M71.85,66.5L71.3 66.75L70.05 67.25L69.2 67.55L68.15 67.85L67.55 68L66.55 68.2L66 68.35L65.1 68.5L64.6 68.55L62.35 68.4Q61.05 67.8 60.3 66.2L59.85 64.85L59.8 64.1L58.75 63.85L58.6 63.8Q57.65 63.3 57.4 62.25L57.25 61.7L58.55 61.85L58.6 61.95Q59 62.8 60.25 63.15L60.95 63.3L64.7 62.95Q67.85 62.4 71.8 60.2L73.7 58.9Q75.55 57.35 75.1 56.2L75.1 56.15Q74.35 54.5 73.6 54.4Q72.85 54.3 72.15 54.9L70.8 55.9L70.5 54.25L70.7 54.1L73.7 53.05L73.75 53.05Q74.5 53.25 75.15 54.05Q75.95 54.95 76.25 56Q76.5 57.05 76 58.1Q75.45 59.15 73.55 60.5L74.25 62.35L74.25 63.75L73.8 64.8L73.15 65.6L71.85 66.5M68.45,66.4L68.5 66.4L69.3 66.15L69.4 66.1L71.2 65.25L72.45 64.05Q73.15 62.8 72.3 61.2Q71.9 61.65 69.65 62.7Q67.4 63.75 64.75 64.2L61.5 64.4L61.65 65.1Q62 66.75 63.15 67.15L66.9 66.85L68.45 66.4" />
<path style="fill:#61666C;fill-opacity:1" d="M70.8,56.55L70.8 55.9L72.15 54.9Q72.85 54.3 73.6 54.4Q74.35 54.5 75.1 56.15L75.1 56.2Q75.55 57.35 73.7 58.9L71.8 60.2Q67.85 62.4 64.7 62.95L60.95 63.3L60.25 63.15Q59 62.8 58.6 61.95L58.55 61.85L62.05 61.95Q64 61.9 67.05 61.05L66.9 61.15Q66.15 61.9 65 62.3Q67.25 61.8 68.95 60.9Q73.25 58.75 74.45 56.95L74.25 56.5L73.95 55.8Q73.45 54.95 73.1 55L70.85 56.7L70.8 56.55M66.9,66.85L63.15 67.15Q62 66.75 61.65 65.1L63.85 65L66.35 64.5L66.6 64.45L67.4 64.45L67.9 64.6L68.4 65.2L68.45 66.35L68.45 66.4L66.9 66.85M63.75,65.6Q63.4 65.6 63.35 66L63.35 66.05Q64.15 66.75 64.9 66.05L64.9 66Q64.7 65.3 63.75 65.6" />
<path style="fill:#2D343C;fill-opacity:1" d="M67.95,60.75Q71.5 59.65 70.85 56.7L73.1 55Q73.45 54.95 73.95 55.8L74.25 56.5L74.45 56.95Q73.25 58.75 68.95 60.9Q67.25 61.8 65 62.3Q66.15 61.9 66.9 61.15L67.05 61.05L67.95 60.75M61.5,64.4L64.75 64.2Q67.4 63.75 69.65 62.7Q71.9 61.65 72.3 61.2Q73.15 62.8 72.45 64.05L71.2 65.25L69.4 66.1L69.3 66.15L68.5 66.4L68.45 66.4L68.45 66.35L68.4 65.2L67.9 64.6L67.4 64.45L66.6 64.45L66.35 64.5L63.85 65L61.65 65.1L61.5 64.4" />
<path style="fill:#969BA1;fill-opacity:1" d="M64.9,66L64.9 66.05Q64.15 66.75 63.35 66.05L63.35 66Q63.4 65.6 63.75 65.6Q64.7 65.3 64.9 66" />
<path style="fill:#A19986;fill-opacity:1" d="M70.2,73.05Q71.15 73.9 70.85 75.2L70.8 75.3Q69.6 74.6 70.15 73.05L70.2 73.05M71,97.15Q71.6 99.65 70.6 99.25Q69.55 98.8 70 96.7Q70.35 94.65 71 97.15" />
</g>
</svg>
