<?xml version="1.0" encoding="utf-8"?>
<svg version="1.1" id="Layer_1"
xmlns="http://www.w3.org/2000/svg"
xmlns:xlink="http://www.w3.org/1999/xlink"
xmlns:author="http://www.sothink.com"
width="58px" height="61px"
xml:space="preserve">
<g id="636" transform="matrix(1, 0, 0, 1, 0, 0)">
<path style="fill:#4C82AA;fill-opacity:1" d="M51.15,11.8Q49.65 14.85 49.35 17.7Q51.65 16.5 52.75 13.65Q53.85 10.85 52.05 9.5L51.85 9.6L51.6 9.75Q51.6 10.9 51.15 11.8M54.4,14.55L54.1 15.8L53.8 16.95L52.8 18.15L51.35 19.4L50.55 19.95L49.1 20.65L48.85 20.75L47.1 21.35L45.55 21.75L43.8 21.8L42.6 21.35Q45 20.25 46.85 18.05Q50.8 13.3 50.8 4.6Q53.95 7.35 54.95 11.95L54.4 14.55M51.3,26.05L52.6 25L52.95 25.2Q53.25 25.3 53.35 28.55Q53.45 31.75 51.85 35.05L50.4 34.55L51.15 31.4L51.4 27.95L51.3 26.05M35.05,47.95L35.65 49.7Q36.6 51.4 36.3 49.8L36.4 46.3L37 44.45L40.35 43.45L41.65 42.35L42.4 41.3L43.1 42.7L43.7 43.55L43.35 44L42.25 45.6L41.45 46.6L40.5 47.6L39.5 48.55L38.5 49.45L37.45 50.3L36.5 51L35.55 51.65L34.35 52.45L33.95 52.75L33.4 52.8L31.5 52.8L29.65 52.6L29.3 52.5L29.75 48.15L32.95 46.45L35.05 47.95M8.1,18.3L7.2 18.3L6.3 18.15L5.6 17.8L4.45 17L3.3 15.85L2.25 14.5L1.95 14.1Q1.95 12 2.25 10.9Q2.7 9.3 3.25 8.3Q4.35 6.3 6.05 5.15Q7.75 3.95 10 3.75L11.05 3.7Q8.6 6.15 7.85 8.1Q7.2 9.7 7.2 11.75L7.3 13.45L7.3 13.5Q7.5 15.45 8 16.95L8.5 18.3L8.1 18.3M26.35,12.5Q25.9 13.2 25.7 14.5L23.75 13.5L22.75 12.7L21.95 11.75L21.4 10.85L21.4 10.8L21.3 10.65L21.4 10.25L21.4 10.1Q21.7 8.55 22.45 7Q23.85 4.05 26.4 2Q25.15 6.8 26.65 11.25L26.35 12.5M23.3,8.05Q22.55 11.75 24.75 13.15L24.8 13.05Q25 9.45 24.2 6.35Q23.5 6.9 23.3 8.05M23.35,17.25L23.95 17.55L24.5 17.85L24.65 17.95L25.95 18.9L28.05 21.6L28.45 22.15L29.2 24.25Q29.9 26.3 28.3 28.6Q26.6 30.9 24.5 32.05Q22.4 33.15 21.2 32.65L19.75 32.1L19.55 32L19.25 31.9L18.1 31.25L18.2 28.15Q18.5 24.3 19.75 21.75Q21.2 18.85 23.85 17.6L23.55 17.4L23.35 17.25M7.05,6.85Q6.8 6.5 6.4 6.6Q2.7 9.85 4.8 13.4L5 13.1Q5.25 9.7 7.1 6.95L7.05 6.85M19.8,51.1L19.8 47.4L22.4 49.15L22.45 52.3L21.65 52.1Q20.75 51.8 20 51.25L19.8 51.1" />
<path style="fill:#1D3E5D;fill-opacity:1" d="M28.45,56.05L28.95 56.15L33.25 56.4L34.3 55.5L39.05 51.95L43 48.3L45.6 45.45L45.45 45.35L43.7 43.55L43.1 42.7L42.4 41.3Q41.9 40.15 41.7 38.9L42.1 36.05Q42.4 33.6 42.3 32.55Q42.2 31.55 41.8 31.65Q36.65 32.75 34.9 33.6L34.2 32.05L34.65 31.8Q36.95 30.6 39.4 29.75L41.2 29.3L40.1 28.3L39.45 27.4Q38.9 26.5 38.85 25.45L39.95 25.9L41.85 26.15L44.05 25.7L45.6 25.05Q48.25 24.1 50.3 22.25L50.6 21.95L51.7 20.8Q53.1 19.05 53.8 16.95L54.1 15.8L54.4 14.55L54.95 11.95L55.2 13.7L55.35 16.4Q55.3 21.05 51.05 24.3Q48.2 26.45 43.5 28Q43.45 28.4 43.75 28.35Q48.55 27.85 51.3 26.05L51.4 27.95L51.15 31.4L50.4 34.55L48.55 33.9Q47.8 33.9 46.7 36.65Q45.6 39.4 45.6 40.6L49.3 45.6L45.85 48.85Q41.6 52.45 32.95 58.65L28.15 58.65L28.25 56.05L28.45 56.05M31.55,33.15L31.6 34.85L22.85 40Q21.3 39.4 19.75 38.15L16.95 35.4L16.9 34.1L17.6 34.7L18.45 35.5L19.75 36.5L21.15 37.4L21.7 37.7L22.65 37.8Q24.4 37.6 25.95 36.65L30.4 34.2L30.9 33.9L31.25 33.7L31.35 33.5L31.55 33.15M16.75,24.2L16.65 24.55Q16.3 25.55 16.3 26.7L16.35 29.85Q15.95 29.3 15.25 29.2L14.9 29.15L12.65 28.75Q8.15 27.6 5.1 23.45Q3.05 20.6 2.4 18.05Q3.05 19.45 4.15 20.6L6.4 22.75Q8.55 24.55 11.2 25.45L12.3 25.8Q12 24.15 12.45 22.6Q14.1 23.55 16.3 24L16.95 23.45L16.75 24.2M19.75,53.6L19.95 53.8L20.3 54.2L22.4 55.65L22.45 55.7L22.55 58.15L18.95 54.8L18.9 54.8L18.9 54.7L19.05 52.7L19.7 53.5L19.75 53.6" />
<path style="fill:#215A85;fill-opacity:1" d="M31.35,33.5L31.25 33.7L30.9 33.9L30.4 34.2L25.95 36.65Q24.4 37.6 22.65 37.8L21.7 37.7L21.15 37.4L19.75 36.5L18.45 35.5L17.6 34.7L16.9 34.1L16.85 32.85L16.85 31.55L16.75 30.55L16.75 30.5L16.8 30.4L16.8 30.45L18.1 31.35L18.1 31.25L19.25 31.9L19.55 32L19.75 32.1L21.2 32.65Q22.4 33.15 24.5 32.05Q26.6 30.9 28.3 28.6Q29.9 26.3 29.2 24.25L28.45 22.15L28.05 21.6L25.95 18.9L24.65 17.95L24.5 17.85L23.95 17.55L23.35 17.25Q22.1 16.75 21.7 15.85Q21.15 14.6 21.05 12.5Q21.15 10.45 21.4 10.25L21.3 10.65L21.4 10.8L21.4 10.85L21.95 11.75L22.75 12.7L23.75 13.5L25.7 14.5Q25.9 13.2 26.35 12.5L26.65 11.25Q28.05 15.45 29.5 17.05L32.05 19.7Q33.1 20.7 34.7 21.5Q36.3 22.2 38.45 22.3Q40.55 22.35 42.6 21.35L43.8 21.8L45.55 21.75L47.1 21.35L48.85 20.75L49.1 20.65L50.55 19.95L51.35 19.4L52.8 18.15L53.8 16.95Q53.1 19.05 51.7 20.8L50.6 21.95L50.3 22.25Q48.25 24.1 45.6 25.05L44.05 25.7L41.85 26.15L39.95 25.9L38.85 25.45Q38.9 26.5 39.45 27.4L40.1 28.3L41.2 29.3L39.4 29.75Q36.95 30.6 34.65 31.8L34.2 32.05L33.2 30.15Q31.2 26.4 31.3 29L31.55 33.15L31.35 33.5M12.3,25.8L11.2 25.45Q8.55 24.55 6.4 22.75L4.15 20.6Q3.05 19.45 2.4 18.05L2.05 16L1.95 14.1L2.25 14.5L3.3 15.85L4.45 17L5.6 17.8L6.3 18.15L7.2 18.3L8.1 18.3L8.5 18.3L9.3 19.75Q10.55 21.5 12.45 22.6Q12 24.15 12.3 25.8M29.3,52.5L29.65 52.6L31.5 52.8L33.4 52.8L33.95 52.75L34.35 52.45L35.55 51.65L36.5 51L37.45 50.3L38.5 49.45L39.5 48.55L40.5 47.6L41.45 46.6L42.25 45.6L43.35 44L43.7 43.55L45.45 45.35L45.6 45.45L43 48.3L39.05 51.95L34.3 55.5L33.25 56.4L28.95 56.15L29.3 52.5M20,51.25Q20.75 51.8 21.65 52.1L22.45 52.3L22.45 53.35L22.45 55.7L22.4 55.65L20.3 54.2L19.95 53.8L19.75 53.6L19.7 53.5L19.75 52.55L19.8 51.1L20 51.25" />
<path style="fill:#B6E0FF;fill-opacity:1" d="M51.6,9.75L51.85 9.6L52.05 9.5Q53.85 10.85 52.75 13.65Q51.65 16.5 49.35 17.7Q49.65 14.85 51.15 11.8Q51.6 10.9 51.6 9.75M28.95,56.15L28.45 56.05L28.25 56.05L28.5 47.35L34.05 45.05L35.05 47.95L32.95 46.45L29.75 48.15L29.3 52.5L28.95 56.15M42.4,41.3L41.65 42.35L40.35 43.45L37 44.45L36.4 46.3L36.45 43.9L40.7 42.05L41.35 40.85L41.7 38.9Q41.9 40.15 42.4 41.3M16.95,23.45L17.15 22.95Q17.55 21.75 18.3 20.5Q18.9 19.45 19.75 18.75L20.1 18.45L21.8 17.15L21.9 16.95L21.75 16.05L21.7 15.85Q22.1 16.75 23.35 17.25L23.55 17.4L23.85 17.6Q21.2 18.85 19.75 21.75Q18.5 24.3 18.2 28.15L18.1 31.25L18.1 31.35L16.8 30.45L16.8 30.4L16.75 30.5L16.75 30.55L16.45 30.05L16.35 29.85L16.3 26.7Q16.3 25.55 16.65 24.55L16.75 24.2L16.95 23.45M24.2,6.35Q25 9.45 24.8 13.05L24.75 13.15Q22.55 11.75 23.3 8.05Q23.5 6.9 24.2 6.35M7.1,6.95Q5.25 9.7 5 13.1L4.8 13.4Q2.7 9.85 6.4 6.6Q6.8 6.5 7.05 6.85L7.1 6.95M19.8,47.4L19.8 51.1L19.75 52.55L19.7 53.5L19.05 52.7L19.1 50.35L18.9 44.7L19.75 45.4L22.3 47.45L22.4 49.15L19.8 47.4" />
<path style="fill:#1C274D;fill-opacity:1" d="M26.4,59.8L26.2 57.85Q26.1 52.3 26.35 49.4Q26.6 46.45 26.85 46Q27.05 45.55 28.1 45.2L30.85 44.2L34.65 42.75L38.85 41.05L39.4 40.35L40.35 34.05L39.6 34.1Q38.45 34.15 36.95 34.8Q35.45 35.35 33.5 36.35L30 38.2L25.85 40.6Q23.35 42.05 22.2 41.75L19.75 40.35L18.8 39.55L18.85 41.55Q18.9 42.15 19.75 43L20.5 43.7L23.15 45.8Q23.75 46.2 23.95 47.35Q24.15 48.4 24.15 52.35L24.15 52.85L24.1 59.3L24.05 59.6Q23.7 61.1 20.8 58.5Q17.6 55.65 17.35 55.2L17.25 54.7L17.25 49.9L17.3 38.6L15.9 36.85Q14.85 35.8 15.2 33.35Q15.6 30.9 12.85 30.7Q10.05 30.5 6.45 27.65Q3.05 24.85 1.3 20.6Q-1.1 14.7 0.85 9.65Q1.45 8.1 2.4 6.65Q4.85 3.1 9.2 2.5L12.35 2.55L13.95 3.1L12.4 4.85Q10.75 6.35 9.95 8.1Q9.15 9.8 9.1 11.4L9.1 13.45Q9.15 14.5 9.35 15.4Q9.65 16.9 10.35 17.95Q11.6 20.1 13.05 21.2Q14.2 22.05 15.45 22.25Q16.65 18.4 19.75 16.45L19.9 16.35L19.75 15.8Q19.05 12.95 19.75 9.9Q20 8.85 20.4 7.75Q22.05 3.2 24.95 1.35Q27.8 -0.5 28 0.15Q28.2 0.75 27.7 3.3Q27.15 5.8 27.85 9.1Q28.45 11.9 29.3 12.85Q29.8 14.35 30.65 15.55L31.5 16.6L31.85 17L32 17.25Q33.55 19 34.75 19.8Q35.75 20.45 38 20.7L39.15 20.75Q42.25 20.9 45.45 17.45L45.4 17.35L46.7 15.75Q49.05 12.35 48.95 7.1Q48.85 1.6 50.7 2.25Q53 3.6 54.75 6.25L55.2 7L55.95 8.45Q56.65 9.75 57.05 13.8Q57.45 17.8 56.3 20.5L54.55 23.95Q54.95 29.8 54 33.5Q53 37.45 52.25 37.1L50.85 36.5L49.5 35.95L49.1 35.8L47.65 40.1L50 43.85L51.3 45.95Q51.45 46.45 50.5 47.4L45.45 51.55L33.65 60.45L29.9 60.85Q26.7 60.9 26.45 59.85L26.4 59.8M38.45,22.3Q36.3 22.2 34.7 21.5Q33.1 20.7 32.05 19.7L29.5 17.05Q28.05 15.45 26.65 11.25Q25.15 6.8 26.4 2Q23.85 4.05 22.45 7Q21.7 8.55 21.4 10.1L21.4 10.25Q21.15 10.45 21.05 12.5Q21.15 14.6 21.7 15.85L21.75 16.05L21.9 16.95L21.8 17.15L20.1 18.45L19.75 18.75Q18.9 19.45 18.3 20.5Q17.55 21.75 17.15 22.95L16.95 23.45L16.3 24Q14.1 23.55 12.45 22.6Q10.55 21.5 9.3 19.75L8.5 18.3L8 16.95Q7.5 15.45 7.3 13.5L7.3 13.45L7.2 11.75Q7.2 9.7 7.85 8.1Q8.6 6.15 11.05 3.7L10 3.75Q7.75 3.95 6.05 5.15Q4.35 6.3 3.25 8.3Q2.7 9.3 2.25 10.9Q1.95 12 1.95 14.1L2.05 16L2.4 18.05Q3.05 20.6 5.1 23.45Q8.15 27.6 12.65 28.75L14.9 29.15L15.25 29.2Q15.95 29.3 16.35 29.85L16.45 30.05L16.75 30.55L16.85 31.55L16.85 32.85L16.9 34.1L16.95 35.4L19.75 38.15Q21.3 39.4 22.85 40L31.6 34.85L31.55 33.15L31.3 29Q31.2 26.4 33.2 30.15L34.2 32.05L34.9 33.6Q36.65 32.75 41.8 31.65Q42.2 31.55 42.3 32.55Q42.4 33.6 42.1 36.05L41.7 38.9L41.35 40.85L40.7 42.05L36.45 43.9L36.4 46.3L36.3 49.8Q36.6 51.4 35.65 49.7L35.05 47.95L34.05 45.05L28.5 47.35L28.25 56.05L28.15 58.65L32.95 58.65Q41.6 52.45 45.85 48.85L49.3 45.6L45.6 40.6Q45.6 39.4 46.7 36.65Q47.8 33.9 48.55 33.9L50.4 34.55L51.85 35.05Q53.45 31.75 53.35 28.55Q53.25 25.3 52.95 25.2L52.6 25L51.3 26.05Q48.55 27.85 43.75 28.35Q43.45 28.4 43.5 28Q48.2 26.45 51.05 24.3Q55.3 21.05 55.35 16.4L55.2 13.7L54.95 11.95Q53.95 7.35 50.8 4.6Q50.8 13.3 46.85 18.05Q45 20.25 42.6 21.35Q40.55 22.35 38.45 22.3M18.9,54.7L18.9 54.8L18.95 54.8L22.55 58.15L22.45 55.7L22.45 53.35L22.45 52.3L22.4 49.15L22.3 47.45L19.75 45.4L18.9 44.7L19.1 50.35L19.05 52.7L18.9 54.7" />
<path style="fill:#0D152E;fill-opacity:1" d="M26.45,59.85L26.05 59.85L24.05 59.6L24.1 59.3L24.15 52.85L24.15 52.35Q24.15 48.4 23.95 47.35Q23.75 46.2 23.15 45.8L20.5 43.7L19.75 43Q18.9 42.15 18.85 41.55L18.8 39.55L19.75 40.35L22.2 41.75Q23.35 42.05 25.85 40.6L30 38.2L33.5 36.35Q35.45 35.35 36.95 34.8Q38.45 34.15 39.6 34.1L40.35 34.05L39.4 40.35L38.85 41.05L34.65 42.75L30.85 44.2L28.1 45.2Q27.05 45.55 26.85 46Q26.6 46.45 26.35 49.4Q26.1 52.3 26.2 57.85L26.4 59.8L26.45 59.85" />
</g>
</svg>
