<?xml version="1.0" encoding="utf-8"?>
<svg version="1.1" id="Layer_1"
xmlns="http://www.w3.org/2000/svg"
xmlns:xlink="http://www.w3.org/1999/xlink"
xmlns:author="http://www.sothink.com"
width="12px" height="10px"
xml:space="preserve">
<g id="384" transform="matrix(1, 0, 0, 1, 0.05, 0)">
<path style="fill:#8C2F1D;fill-opacity:1" d="M8.35,7.45Q9.45 5.85 10 3.55L10.1 3.15L10.65 3.55L10.5 5.25Q10.15 6.4 9.35 7.35Q8.8 7.85 7.9 8.05L8.35 7.45" />
<path style="fill:#BB482E;fill-opacity:1" d="M1.8,6L1.9 5.1L3 4.95L3.05 4.95L2.1 3.55Q2.65 3.5 2.5 3.15L2.5 2.35L3.5 1.65L5.6 1.1L6.45 1.35Q8.05 1.8 9.2 2.55L10.1 3.15L10 3.55Q9.45 5.85 8.35 7.45L7.9 8.05L7.1 8.25Q5.6 8.35 3.5 7.65L2 7.05L1.8 6" />
<path style="fill:#EE775A;fill-opacity:1" d="M2,7.05Q1.25 6.65 1.2 6.2Q0.95 5.35 1.25 3.95Q1.5 2.5 2.15 1.8Q2.85 1.05 3.85 1L5.6 1.1L3.5 1.65L2.5 2.35L2.5 3.15Q2.65 3.5 2.1 3.55L3.05 4.95L3 4.95L1.9 5.1L1.8 6L2 7.05" />
<path style="fill:#5F1000;fill-opacity:1" d="M9.2,2.55Q8.05 1.8 6.45 1.35L5.6 1.1L3.85 1Q2.85 1.05 2.15 1.8Q1.5 2.5 1.25 3.95Q0.95 5.35 1.2 6.2Q1.25 6.65 2 7.05L3.5 7.65Q5.6 8.35 7.1 8.25L7.9 8.05Q8.8 7.85 9.35 7.35Q10.15 6.4 10.5 5.25L10.65 3.55L10.1 3.15L9.2 2.55M10.8,6.85L9.8 8.35Q9.05 8.95 8 9.15L6.55 9.25L5.05 9.15L2.5 8.55L1.65 8.2Q0.05 7.45 -0.05 6.5L0.2 3.9Q0.45 2.1 1.1 1.25Q1.65 0.35 2.7 0.15L5.35 0Q6.95 0.1 8.9 1.1L10.25 2L11.85 3.55L10.8 6.85" />
</g>
</svg>
