<?xml version="1.0" encoding="utf-8"?>
<svg version="1.1" id="Layer_1"
xmlns="http://www.w3.org/2000/svg"
xmlns:xlink="http://www.w3.org/1999/xlink"
xmlns:author="http://www.sothink.com"
width="180px" height="76px"
xml:space="preserve">
<g id="701" transform="matrix(1, 0, 0, 1, 0, 0)">
<path style="fill:#101010;fill-opacity:1" d="M169.85,40.6L168.8 41.45Q167.8 42.3 166 42.9L166 42.95L165.2 43.2L164.3 43.45L162.5 43.85L158.8 44.3L154.7 44Q152.6 43.6 148.65 41.3L148.5 41.2L148.45 41.15L148.05 40.85L148 40.8L146.85 39.95L144.3 37.75Q141.35 35 138.8 33.4L136.7 32.25L133.9 30.95L133.75 30.9L133.25 30.8L132.65 31.35L131.55 31.45L128.9 28L128.1 29.4L127.9 29.7Q127.15 31.1 127 32.35L126.95 32.6Q126.7 33.95 125.5 32.85L125.1 34.15L124.35 35.7L124 36.15L123.8 36.4Q122.05 38.45 119.3 39.6L119.1 39.65Q116.9 40.5 114.35 40.95L114.3 40.95L112.4 41.15L112.3 41.15L109.4 41.25L109.15 41.2L108.6 40.9L108.3 40.05L107.8 39.15Q107.05 37.85 105 37Q102.9 36.1 99.3 35.75L91.45 36.05Q87.25 36.7 83.15 38Q79 39.25 74.7 41.95Q70.35 44.6 69.15 46.95L68.55 48.45Q68.15 49.8 68.55 50.7Q69.1 51.95 70.15 52.65L70.3 52.75L70.8 53.1L71.6 53.75L71.5 54.15L70.55 55.3L70.2 55.65L70.15 55.7L66 58.3L62.55 59.85L62.45 59.9Q58.65 61.45 55.05 62.1L50.9 62.4L41.55 61.65Q37.8 60.9 34.95 59.6Q30.45 57.6 26.9 55.2Q23.75 53 23.2 51.65L23.15 51.45L24.25 50.55Q29.8 45.95 32.9 41.05Q36.35 35.65 37.7 30.8L38.65 27.2L38.75 26.55L38.8 26.45L39.1 25.3L39.2 24.55L39.45 23Q39.8 22.95 40.6 23.5L41.05 23.8L41.55 24.2L42.05 24.6L46.45 27.35Q49.75 29.2 53.7 30.4L61.55 32.2L68.75 32.9L76.4 32.5Q80.7 32 85.1 30.3L85.35 30.2Q89.8 28.4 91.25 26.2Q92.7 23.9 93.1 22.2Q93.2 21.7 93.4 21.35Q93.8 20.6 94.45 20.95L96.35 21.6L98.75 22.3L103.05 23.1L107.3 23.6L112.15 23.85L120.45 23.5L121.5 23.4Q121.45 21.7 122 20.25Q122.9 17.55 125.55 17.25Q128.15 16.95 130.35 17.15L133.45 17.25L135.4 16.75Q136.45 16.35 136.85 14.75Q137.25 13.15 138 11.95Q138.75 10.7 140.9 9.45Q140.9 5.4 143.05 3.05Q145.15 0.65 149 0.1L150.8 0Q152.25 0.1 151.15 1.3Q149.45 3 148.65 5.15Q147.85 7.25 148 7.75L150.75 8.05L151.45 6.5Q154.5 0.45 161.3 0.4L161.8 0.45L162.1 0.55Q163.4 0.9 161.9 1.8Q160.05 2.9 159.65 5.1Q159.25 7.3 159.7 9.3L162.3 9.05L163.3 9.1L162.7 10.95Q162.1 12.5 162.35 14.75Q162.55 17 163.85 18.75Q165.1 20.5 164.8 20.75L164.35 21L164 21.15Q161.5 21.95 160.2 23.05Q158.9 24.1 158.45 24.95Q158.05 25.5 158.45 27.15L158.8 28.2L158.9 28.7Q159.75 31.65 162.05 34.85Q164.4 38.1 170.15 40.6L169.85 40.6M170.75,40.9L170.45 40.75L170.9 40.95L170.75 40.9M139.8,32.55Q143.05 34.55 146.5 37.7L147.75 38.75Q153.75 43.7 159.2 43.1Q162.65 42.7 164.8 42Q166.4 41.5 167.3 40.85Q160.95 37.95 157.95 30.35L157.25 28.5L157.15 28.15L156.9 26.75L155.7 29.1L155.5 29.55Q155.05 30.15 154.45 29.85L154.05 29.6L153.2 29.1L152.3 28.8L150.6 28.5Q148.75 28.25 146.7 29L146.4 29.1Q145.05 29.5 145.25 28.6L145.4 28.1Q146.15 26.45 145.75 24.55L143.7 24.6Q142.9 25.2 142.05 25.35L140.85 25.1Q140.7 27.1 139.75 28.25L138.3 29.65L137.45 29.6L136.65 28.35Q135.65 26.65 134.15 26.15L134.25 28.25L133.9 29.6L134.2 29.7Q134.8 29.9 135.4 30.2Q137.55 31.1 139.8 32.55M159.15,2Q154.15 3.35 152.15 8.25L152 8.6Q151.75 9.7 152.35 10.8Q152.95 11.95 154.15 12.2L156.3 12.3Q157 12.15 157.6 11.8L158 11.5Q158.7 10.9 158.3 10.05Q157.1 3.55 160.5 1.7L159.9 1.85L159.15 2M159.75,11.2Q159.3 12.25 158.2 12.85L157.15 13.35L156.05 13.5L155.7 14.65Q155.15 16 154.5 16.4L155.4 16.55L155.85 16.65L155.95 16.65L161.8 18.25Q160 14.1 161.45 10.95L161.7 10.45L160 10.65L159.75 11.2M144.2,3.85Q142.65 5.75 142.3 7.6L142.2 8.8Q143.45 7.9 146.7 7.8Q146.65 6.95 146.85 6.15Q147.3 3.85 149.5 1.4L148.15 1.5Q145.75 1.8 144.2 3.85M150.4,9.5Q150.4 9.05 147.2 9.05Q144.05 9.05 141.25 10.75Q138.85 12.15 138.45 13.75L138.35 14.35Q138.25 16.3 136.35 17.8L136.3 17.8Q133.65 18.9 130.95 18.6L125.9 18.75Q123.5 19.4 123.25 21.05L122.95 23.25L122.95 23.75Q122.95 24.55 123.2 24.95L123.45 25.2Q123.9 25.5 125 24.75Q126.05 24 127.35 24.2L128.35 24.4L129.6 24.8L130.5 23.95L131.05 23.75L132.3 24.05L134.6 25.2Q135.5 23.5 138 23.25L139.05 23.35Q139.95 23.5 140.6 23.9L142.8 23.75L142.85 23.7L143.35 23.3Q143.95 22.75 144.65 22.85L145.85 23.05Q146.9 22.9 148.3 22Q149.75 21.1 150.2 20L150.9 18.05L149.75 18.2L149.6 18.15L148.5 17.8L149.25 17.4L149.35 17.35L150.85 16.55Q153.7 16.75 154.35 14.65L154.55 13.55Q152.25 13.05 151.3 11.5L150.4 9.6L150.4 9.5M141.25,18.7L140.9 18.4L140.85 18.3Q141.45 16.65 142.5 15.6L142.85 15.3Q143.55 14.7 144.5 14.4L145.8 14.05L147.55 13.95L148.2 14.1L148.85 14.45L148.9 14.5L148.85 14.5L148.45 14.7L147.6 15.35L147.6 15.25L147.45 15.45Q147.8 15.35 146.85 16.75Q145.9 18.1 144.35 18.5L141.7 18.8L141.55 18.75L141.25 18.7M147.6,25.75Q147.6 26.5 147.2 27.25L148.7 27L151.25 26.95L152.35 27.15L153.65 27.65L153.45 27L152.95 25.5L151.7 22.35L151.05 20.85Q149.55 23.1 147.1 23.75L147.35 24.35L147.6 25.75M160.25,19.1L157.6 18.2L155.35 17.6L155.3 17.6L153.6 17.3L153.55 17.35L151.85 18Q152.05 18.7 151.6 19.75L151.95 20.3L152.5 21.3Q153.95 23.95 154.65 26.2L154.9 27.05L155.1 26.5Q156.65 23 160.6 20.9Q161.4 20.4 162.35 20.05L160.35 19.15L160.25 19.1M126.15,21.95L126.25 21.2Q126.4 20.65 127.4 20.15L130.15 19.95Q131.85 20.25 129.4 21L128.85 22L127.45 22.75Q126.5 22.95 126.15 21.95M139.25,24.65Q137.8 23.55 135.85 25.45L136.25 25.75Q137.4 26.7 138.1 28.55Q139.95 26.45 139.75 25.1L139.25 24.65M131.3,25.1Q130.3 25.6 129.75 27.2L130.2 27.85L131.9 30.1Q132.35 30.35 132.95 29.15Q133.5 27.95 133.25 26.8Q133.05 26.05 132.4 25.6L131.3 25.1M125.5,30.2L125.85 31.05Q126.2 29.7 126.8 28.45Q127.5 27.05 128.55 25.85L127.05 25.55Q125.7 25.55 124.65 26.85L124.8 27.55L124.9 28.15L124.95 28.25L125.5 30.2M121.7,25.7L121.65 25.35L121.6 25.15L120.8 25.25Q108.65 26.55 98.1 24L97.95 24L95 23.15Q94.45 25.25 93.1 27L90.45 29.5L89 30.5L88.5 30.8L86.15 31.9L85.2 32.25L85.1 32.3L84.95 32.35L84 32.7Q80.55 33.75 76.15 34.2Q68.15 35 62.25 34.2Q56.3 33.35 50.65 31.35Q45.9 29.7 42.2 27.35L41.5 26.9L41.2 26.7L40.7 26.35L40.5 27.8Q39.7 31.95 37.9 36.05L35.75 40.3Q32.45 45.9 27.65 50.35L27.05 50.95L26.85 51.1L25.95 51.85Q28.45 54 31.25 55.65Q36.45 58.65 42.7 59.75L50.35 60.3Q55 60.2 59.2 58.9L59.5 58.8L60.05 58.6Q64.9 56.9 67.2 55.65L68.1 55.05L68.95 54.2Q66.7 52.15 66.45 50Q66.3 48.9 66.7 47.8Q67.05 46.65 67.95 45.5Q69.2 43.9 71.3 42.2Q74.45 39.75 78.8 37.9Q81.95 36.55 85.1 35.7Q89.2 34.5 93.3 34.1Q104.65 33.1 108.7 37.45L109.5 38.45L109.95 39.25L110.1 39.6L113.9 39.5L114.4 39.4L114.6 39.4L117.75 38.55L119 38.05Q121.2 37 122.15 36.05L123.45 34.3L123.4 34.3L123.4 34.25L123.5 34.05L123.85 32.9L123.95 32.4L124.2 31Q123.55 29.6 123.4 27.65L122.85 27.6Q122.45 27.45 122.2 27.15Q121.75 26.65 121.7 25.7" />
<path style="fill:#2E2721;fill-opacity:1" d="M59.4,72.85Q64.2 72.25 68.3 70.95Q75.3 68.75 80.4 64.75Q83.4 62.4 85.1 59.9Q86.4 57.95 86.95 55.9L86.3 56L85.1 56Q83.45 55.9 81.55 55.2Q78.55 54.05 77.2 51.45Q75.8 48.85 78.25 46.55Q80.7 44.25 83.4 42.75L85.1 41.9Q86.95 40.95 88.85 40.3Q93.25 38.75 97.35 39Q101.4 39.25 103.65 41.65Q105.55 43.65 105.4 45.35L105.3 45.9Q107.9 47.25 111.4 47Q114.9 46.75 117.8 45.6Q120.3 44.55 121.95 43.5L122.45 43.15L125.5 40.6Q126.8 39.25 127.4 37.85L128 36.3L128 36.35L128.05 36.35L132.4 36.7Q134 37.25 135.25 38.05L135.5 38.2L143.4 45.1Q147.1 48.45 151.9 49.65L152.2 49.75L159.85 50.1L160.05 50.1L162.8 49.7L165.6 49.1L165.7 49.05L165.75 49.05L165.85 49Q169.95 47.85 173.55 45.75L177.4 43.05L174.55 42.95L173.55 42.8L168.8 41.45L169.85 40.6L170.15 40.6L170.45 40.75L170.75 40.9L170.9 40.95L171.2 41.05L174.15 41.8L174.2 41.8L179.8 41.5Q180.4 42.1 177.2 45L175.65 46.2Q172.45 48.35 166.95 50.2L160.8 51.5L152.9 51.15Q145.8 49.75 140 44.2Q134.15 38.65 131.75 38.05L128.9 37.85L128.45 39.05Q127.8 40.55 126.8 41.7L125.9 42.6L123.5 44.6Q118.4 48.15 112.45 48.7Q106.55 49.2 103.45 47.65L103.35 47.65Q103.75 46.2 103.35 44.8Q103.05 42.45 99.8 41.25L92.4 41.05Q88.25 42 86.25 43.15L82.7 45.25L79.8 47.6Q78.5 48.9 79.05 50.5Q79.6 52.1 81.55 53.05Q83.45 54 85.1 54.1L85.15 54.1L88.6 53.8L88.85 54.9L88.5 57.15Q87.8 59.35 85.7 62.1L85.1 62.8Q83 65.2 79.5 67.65Q75.45 70.45 67.95 72.85L67.25 73.05L66.75 73.2Q59.8 75.2 52.4 75.5Q44.35 75.8 35.9 74.25L31.25 73.2Q28.3 72.4 25.7 71.4L21.7 69.5Q11.5 63.95 6.75 58.95Q3.65 55.65 1.5 52.2Q-0.4 49.25 0.1 48.7Q0.15 48.6 0.3 48.6L4.5 47.45Q10.6 45.75 14.85 43.65Q19.9 41.1 23.3 38.65L29.15 33.95L29.85 33.3Q32.75 30.6 35.5 27.3L35.95 26.75L37.2 25.25L37.95 24.4Q39.1 23.05 39.45 23L39.2 24.55L39.1 25.3L38.8 26.45L38.9 25.9L38.55 26.4L38.5 26.5L35.2 30.6L32.55 33.5Q29.7 36.5 26.7 38.9L22.6 41.8Q17.45 45.1 11.85 47.2L3.9 49.85L3.3 50Q6.3 56.4 13.3 61.45L18.2 64.75Q22.05 67.2 25.05 68.4Q29.85 70.35 36.35 72L44.35 73.2L52.05 73.4L55.8 73.2L59.4 72.85" />
<linearGradient
id="LinearGradID_850" gradientUnits="userSpaceOnUse" gradientTransform="matrix(-0.019516, -0.0040741, 0.00204468, -0.00978088, 153.65, 41.6)" spreadMethod ="pad" x1="-819.2" y1="0" x2="819.2" y2="0" >
<stop  offset="0" style="stop-color:#655E59;stop-opacity:1" />
<stop  offset="1" style="stop-color:#A19893;stop-opacity:1" />
</linearGradient>
<path style="fill:url(#LinearGradID_850) " d="M148.5,41.2L148.65 41.3Q152.6 43.6 154.7 44L158.8 44.3L162.5 43.85L164.3 43.45L165.2 43.2L166 42.95L166 42.9L171.2 44.7L172.8 45.15Q172 45.9 169.75 47.15L165.85 49L165.75 49.05L165.7 49.05L165.6 49.1L162.8 49.7L160.05 50.1L159.85 50.1L152.2 49.75L151.9 49.65L150 48.7L147.3 46.95Q146.9 46.6 147.55 46.4L148.65 45.4Q149.1 44.55 149.05 43.35Q149 42.15 148.5 41.2M147.8,40.7L147.6 40.6L147.35 40.35L147.8 40.7" />
<path style="fill:#544E50;fill-opacity:1" d="M157.3,31.3Q157.7 30.4 157.95 30.35Q160.95 37.95 167.3 40.85Q166.4 41.5 164.8 42L164.25 41.6L162.6 40.2L161.25 38.75L159.1 36L157.1 33.2L156.65 32.5L157.3 31.3" />
<path style="fill:#2A2325;fill-opacity:1" d="M159.2,43.1Q153.75 43.7 147.75 38.75L146.5 37.7Q143.05 34.55 139.8 32.55L140.1 32.15L141.15 30.85L141.9 29.7L142.3 29L142.8 30.1L142.95 30.75L143.1 31.35L143.35 32.25Q143.6 32.9 144.05 32.95Q144.5 33 145.05 32.65L145.9 32.05Q147.45 30.9 149 30.8L151.7 30.9Q152.85 31.15 153.5 31.5L154.4 32.25L154.8 32.65Q155.7 33.65 156.3 32.95L156.65 32.5L157.1 33.2L159.1 36L161.25 38.75L162.6 40.2L164.25 41.6L164.8 42Q162.65 42.7 159.2 43.1" />
<path style="fill:#A8A39F;fill-opacity:1" d="M173.55,42.8L174.55 42.95L177.4 43.05L173.55 45.75Q169.95 47.85 165.85 49L169.75 47.15Q172 45.9 172.8 45.15L171.2 44.7L166 42.9Q167.8 42.3 168.8 41.45L173.55 42.8" />
<path style="fill:#5C544F;fill-opacity:1" d="M157.55,11.75L157.2 11.15Q156.8 10.25 156.75 9.25L156.7 8.3L156.75 7.15L157.05 5.85L157.6 4.55L158.45 3.25L159.55 2.1L159.9 1.85L160.5 1.7Q157.1 3.55 158.3 10.05Q158.7 10.9 158 11.5L157.6 11.8L157.55 11.75M152.15,8.25Q154.15 3.35 159.15 2Q157.3 3.25 156.05 5.1Q155.25 6.25 154.85 7.6Q154.6 8.45 154.75 9.3L154.8 9.5L154.95 9.85L154.6 9.75L154.25 9.65L153.8 9.5Q153.1 9.25 152.55 8.75L152.15 8.25M155.45,4.05Q154.65 4.65 154.05 5.6Q153.55 6.35 153.8 7.05Q153.85 7.35 154.05 7.15L155.2 5.8Q156.1 4.75 155.45 4.05M160.7,12.3L160.15 13.7Q159.8 14.55 159.9 15.5L159.95 16L160.05 16.4L160.2 16.55L159.2 16.35L157.45 16.3L156.05 16.45L156.15 16.25L156.55 15.45L156.95 14.65Q157.9 14.55 158.6 13.9L159.15 13.3Q159.75 12.65 159.9 11.8L160 11.1L160 10.65L161.7 10.45L161.45 10.95Q161 11.55 160.7 12.3M148.15,1.5L147.9 1.65L147.15 2.4L145.9 3.8L145.05 5L144.5 6.25L144.4 6.65L144.05 6.75Q143.2 7.05 142.45 7.5L142.3 7.6Q142.65 5.75 144.2 3.85Q145.75 1.8 148.15 1.5M147.6,25.75L147.35 24.35L147.95 24.25Q148.95 24.05 149.85 23.65L150.7 23.15L150.95 23.05L151.5 23.95L151.95 25.15L152 25.35L151.75 25.3L150.55 25.3L149.55 25.45Q148.45 25.65 147.6 26.25L147.65 26.15L147.6 25.75M159,19.75Q158.35 20.1 157.65 20.6Q156.95 21.1 156.4 21.75L155.9 22.35L155.55 23.2L155.45 23L154.6 22.25L153.85 21.6L152.75 20.85L153 20.15L153.2 19.6L153.25 19.35L153.55 19.15L154 18.85L154.55 18.45L154.85 18.45L155.75 18.6L157.5 19.1L158.75 19.6L159 19.75M135.85,25.45Q137.8 23.55 139.25 24.65L139.25 24.7L138.9 26.25L138.25 26.9L138.15 26.9L137.55 26.45L137.1 26.2L136.25 25.75L135.85 25.45M137.95,25.65Q139.15 25.25 137.9 24.5Q137.3 24.75 137.6 25.45Q137.75 25.7 137.95 25.65M132.4,25.6L132.6 27.05L132.55 27.65L132.1 28.7L131.95 28.8L131.75 28.85L131.55 28.8L130.95 28.4L130.2 27.85L129.75 27.2Q130.3 25.6 131.3 25.1L132.4 25.6M131,27.05L131.35 27.25Q132.55 26.85 131.25 26.05Q130.55 26.35 131 27.05M124.95,28.25L124.9 28.15L124.8 27.55L124.65 26.85Q125.7 25.55 127.05 25.55L126.6 26.2L126.15 27.15L125.9 27.95Q125.55 29.05 125.5 30.2L124.95 28.25M125.45,26.45Q124.85 26.65 124.95 27.4L125.15 27.6Q126.25 27.3 125.45 26.45" />
<path style="fill:#3F3732;fill-opacity:1" d="M152.55,8.75Q153.1 9.25 153.8 9.5L154.25 9.65L154.6 9.75L154.95 9.85L154.8 9.5L154.75 9.3Q154.6 8.45 154.85 7.6Q155.25 6.25 156.05 5.1Q157.3 3.25 159.15 2L159.9 1.85L159.55 2.1L158.45 3.25L157.6 4.55L157.05 5.85L156.75 7.15L156.7 8.3L156.75 9.25Q156.8 10.25 157.2 11.15L157.55 11.75L157.6 11.8Q157 12.15 156.3 12.3L154.15 12.2Q152.95 11.95 152.35 10.8Q151.75 9.7 152 8.6L152.15 8.25L152.55 8.75M160,10.65L160 11.1L159.9 11.8Q159.75 12.65 159.15 13.3L158.6 13.9Q157.9 14.55 156.95 14.65L156.55 15.45L156.15 16.25L156.05 16.45L157.45 16.3L159.2 16.35L160.2 16.55L160.05 16.4L159.95 16L159.9 15.5Q159.8 14.55 160.15 13.7L160.7 12.3Q161 11.55 161.45 10.95Q160 14.1 161.8 18.25L155.95 16.65L155.85 16.65L155.4 16.55L154.5 16.4Q155.15 16 155.7 14.65L156.05 13.5L157.15 13.35L158.2 12.85Q159.3 12.25 159.75 11.2L160 10.65M142.45,7.5Q143.2 7.05 144.05 6.75L144.4 6.65L144.5 6.25L145.05 5L145.9 3.8L147.15 2.4L147.9 1.65L148.15 1.5L149.5 1.4Q147.3 3.85 146.85 6.15Q146.65 6.95 146.7 7.8Q143.45 7.9 142.2 8.8L142.3 7.6L142.45 7.5M153.2,14.35Q152.35 13.95 151.6 13.3L150.5 12.05Q150.1 11.55 150.15 10.9Q150.2 10.25 150.4 9.6L151.3 11.5Q152.25 13.05 154.55 13.55L154.35 14.65L153.2 14.35M127.45,22.75L128.85 22L129.4 21Q130.3 21.55 131.1 21.4Q131.9 21.2 132.7 22.15Q133.5 23.05 135.05 22.65Q136.95 21.45 138.05 21.75L140.4 22.3Q141.65 22.6 142.6 21.9Q143.5 21.2 144.3 21.35L145.3 21.6L146.1 21.7Q146.75 21.7 147.7 20.95L149.1 19.45L149.75 18.2L150.9 18.05L150.2 20Q149.75 21.1 148.3 22Q146.9 22.9 145.85 23.05L144.65 22.85Q143.95 22.75 143.35 23.3L142.85 23.7L142.8 23.75L140.6 23.9Q139.95 23.5 139.05 23.35L138 23.25Q135.5 23.5 134.6 25.2L132.3 24.05L131.05 23.75L130.5 23.95L129.6 24.8L128.35 24.4L127.35 24.2Q126.05 24 125 24.75Q123.9 25.5 123.45 25.2L123.2 24.95Q122.95 24.55 122.95 23.75L122.95 23.25L123.95 23.3L124.15 23.25Q125.6 22.75 126.15 21.95Q126.5 22.95 127.45 22.75M136.35,17.8Q138.25 16.3 138.35 14.35L138.45 13.75L138.8 14.25Q139.45 14.95 140.35 15.2L142 15.4L142.85 15.3L142.5 15.6Q141.45 16.65 140.85 18.3L140.9 18.4Q140 17.9 138.95 17.7L137.55 17.6L136.35 17.8M147.65,17.85Q146.35 19.35 145.15 19.5L143.85 19.55L143.65 19.5L142.35 19.25L141.9 19L141.55 18.75L141.7 18.8L144.35 18.5Q145.9 18.1 146.85 16.75Q147.8 15.35 147.45 15.45L147.6 15.25L147.6 15.35L148.45 14.7Q148.85 16.3 147.65 17.85M151.45,22.55L150.95 23.05L150.7 23.15L149.85 23.65Q148.95 24.05 147.95 24.25L147.35 24.35L147.1 23.75Q149.55 23.1 151.05 20.85L151.7 22.35L151.45 22.55M147.65,26.15L147.6 26.25Q148.45 25.65 149.55 25.45L150.55 25.3L151.75 25.3L152 25.35L152.95 25.5L153.45 27L153.65 27.65L152.35 27.15L151.25 26.95L148.7 27L147.2 27.25Q147.6 26.5 147.6 25.75L147.65 26.15M154.55,18.45L154 18.85L153.55 19.15L153.25 19.35L153.2 19.6L153 20.15L152.75 20.85L153.85 21.6L154.6 22.25L155.45 23L155.55 23.2L155.9 22.35L156.4 21.75Q156.95 21.1 157.65 20.6Q158.35 20.1 159 19.75L159.05 19.7L159.95 19.3L160.35 19.15L162.35 20.05Q161.4 20.4 160.6 20.9Q156.65 23 155.1 26.5L154.9 27.05L154.65 26.2Q153.95 23.95 152.5 21.3L151.95 20.3L151.6 19.75Q152.05 18.7 151.85 18L153.55 17.35L153.6 17.3L155.3 17.6L154.55 18.45M139.75,25.1Q139.95 26.45 138.1 28.55Q137.4 26.7 136.25 25.75L137.1 26.2L137.55 26.45L138.15 26.9L138.25 26.9L138.9 26.25L139.25 24.7L139.25 24.65L139.75 25.1M130.95,28.4L131.55 28.8L131.75 28.85L131.95 28.8L132.1 28.7L132.55 27.65L132.6 27.05L132.4 25.6Q133.05 26.05 133.25 26.8Q133.5 27.95 132.95 29.15Q132.35 30.35 131.9 30.1L130.2 27.85L130.95 28.4M128.55,25.85Q127.5 27.05 126.8 28.45Q126.2 29.7 125.85 31.05L125.5 30.2Q125.55 29.05 125.9 27.95L126.15 27.15L126.6 26.2L127.05 25.55L128.55 25.85" />
<path style="fill:#C4BEB9;fill-opacity:1" d="M17.55,52.3Q13.4 50.6 11.75 49.2Q17.65 46.45 22.6 42.65Q25.15 40.7 26.7 38.9Q29.7 36.5 32.55 33.5L35.2 30.6Q33.45 36.85 22.95 43.95Q18.55 46.9 14 49.3L19.15 50.2L24.25 50.55L23.15 51.45L23.2 51.65L17.55 52.3M117.8,45.6Q114.9 46.75 111.4 47Q107.9 47.25 105.3 45.9L105.4 45.35L106.55 43.65L108.3 40.05L108.6 40.9L109.15 41.2L109.1 41.65L108.25 45.4L110.35 45.55L116.1 45.15Q119.3 44.6 121.95 43.5Q120.3 44.55 117.8 45.6M146.85,39.95L148 40.8L148.05 40.85L148.45 41.15L148.5 41.2Q149 42.15 149.05 43.35Q149.1 44.55 148.65 45.4L147.55 46.4Q146.9 46.6 147.3 46.95L150 48.7L151.9 49.65Q147.1 48.45 143.4 45.1L135.5 38.2L135.25 38.05L136.1 38.4Q137.8 39.25 139.35 40.25L140.8 41.25L143.4 43.2L145.1 44.55Q146.3 44.7 146.9 43.85Q147.45 43 147.45 42.2L147.25 40.95L146.85 39.95M155.2,5.8L154.05 7.15Q153.85 7.35 153.8 7.05Q153.55 6.35 154.05 5.6Q154.65 4.65 155.45 4.05Q156.1 4.75 155.2 5.8M143.3,11.7Q143 13.35 141.8 13.5Q140.55 13.55 141.05 12.25Q141.55 10.9 143.65 10.3L146.65 10.15Q144.2 10.6 143.3 11.7M124.4,20.45Q124.55 19.55 125.85 19.45Q126.5 19.55 125.35 20.45Q124.2 21.35 124.4 20.45M137.6,25.45Q137.3 24.75 137.9 24.5Q139.15 25.25 137.95 25.65Q137.75 25.7 137.6 25.45M131.25,26.05Q132.55 26.85 131.35 27.25L131 27.05Q130.55 26.35 131.25 26.05M125.15,27.6L124.95 27.4Q124.85 26.65 125.45 26.45Q126.25 27.3 125.15 27.6M147.35,40.35L147.6 40.6L147.8 40.7L147.35 40.35M56.25,72.65L59.4 72.85L55.8 73.2L52.05 73.4L44.35 73.2L36.35 72Q29.85 70.35 25.05 68.4Q22.05 67.2 18.2 64.75Q8.2 55.75 6.55 52.25L9.6 52.65Q23.95 70.35 56.25 72.65" />
<linearGradient
id="LinearGradID_851" gradientUnits="userSpaceOnUse" gradientTransform="matrix(0.00396729, 0.00564575, -0.015274, 0.0107269, 138.85, 19.2)" spreadMethod ="pad" x1="-819.2" y1="0" x2="819.2" y2="0" >
<stop  offset="0" style="stop-color:#8C8683;stop-opacity:1" />
<stop  offset="1" style="stop-color:#4F4843;stop-opacity:1" />
</linearGradient>
<path style="fill:url(#LinearGradID_851) " d="M146.65,10.15L143.65 10.3Q141.55 10.9 141.05 12.25Q140.55 13.55 141.8 13.5Q143 13.35 143.3 11.7Q144.2 10.6 146.65 10.15M137.55,17.6L138.95 17.7Q140 17.9 140.9 18.4L141.25 18.7L141.55 18.75L141.9 19L142.35 19.25L143.65 19.5L143.85 19.55L145.15 19.5Q146.35 19.35 147.65 17.85Q148.85 16.3 148.45 14.7L148.85 14.5L148.9 14.5L148.85 14.45L148.2 14.1L147.55 13.95L145.8 14.05L144.5 14.4Q143.55 14.7 142.85 15.3L142 15.4L140.35 15.2Q139.45 14.95 138.8 14.25L138.45 13.75Q138.85 12.15 141.25 10.75Q144.05 9.05 147.2 9.05Q150.4 9.05 150.4 9.5L150.4 9.6Q150.2 10.25 150.15 10.9Q150.1 11.55 150.5 12.05L151.6 13.3Q152.35 13.95 153.2 14.35L154.35 14.65Q153.7 16.75 150.85 16.55L149.35 17.35L149.25 17.4L148.5 17.8L149.6 18.15L149.75 18.2L149.1 19.45L147.7 20.95Q146.75 21.7 146.1 21.7L145.3 21.6L144.3 21.35Q143.5 21.2 142.6 21.9Q141.65 22.6 140.4 22.3L138.05 21.75Q136.95 21.45 135.05 22.65Q133.5 23.05 132.7 22.15Q131.9 21.2 131.1 21.4Q130.3 21.55 129.4 21Q131.85 20.25 130.15 19.95L127.4 20.15Q126.4 20.65 126.25 21.2L126.15 21.95Q125.6 22.75 124.15 23.25L123.95 23.3L122.95 23.25L123.25 21.05Q123.5 19.4 125.9 18.75L130.95 18.6Q133.65 18.9 136.3 17.8L136.35 17.8L137.55 17.6M125.35,20.45Q126.5 19.55 125.85 19.45Q124.55 19.55 124.4 20.45Q124.2 21.35 125.35 20.45" />
<path style="fill:#1E181A;fill-opacity:1" d="M135.4,30.2Q134.8 29.9 134.2 29.7L133.9 29.6L134.25 28.25L134.15 26.15Q135.65 26.65 136.65 28.35L137.45 29.6L138.3 29.65L139.75 28.25Q140.7 27.1 140.85 25.1L142.05 25.35Q142.9 25.2 143.7 24.6L145.75 24.55Q146.15 26.45 145.4 28.1L145.25 28.6Q145.05 29.5 146.4 29.1L146.7 29Q148.75 28.25 150.6 28.5L152.3 28.8L153.2 29.1L154.05 29.6L154.45 29.85Q155.05 30.15 155.5 29.55L155.7 29.1L156.9 26.75L157.15 28.15L157.25 28.5L157.95 30.35Q157.7 30.4 157.3 31.3L156.65 32.5L156.3 32.95Q155.7 33.65 154.8 32.65L154.4 32.25L153.5 31.5Q152.85 31.15 151.7 30.9L149 30.8Q147.45 30.9 145.9 32.05L145.05 32.65Q144.5 33 144.05 32.95Q143.6 32.9 143.35 32.25L143.1 31.35L142.95 30.75L142.8 30.1L142.3 29L141.9 29.7L141.15 30.85L140.1 32.15L139.8 32.55Q137.55 31.1 135.4 30.2" />
<path style="fill:#87807C;fill-opacity:1" d="M152,25.35L151.95 25.15L151.5 23.95L150.95 23.05L151.45 22.55L151.7 22.35L152.95 25.5L152 25.35M158.75,19.6L157.5 19.1L155.75 18.6L154.85 18.45L154.55 18.45L155.3 17.6L155.35 17.6L157.6 18.2L160.25 19.1L160.35 19.15L159.95 19.3L159.05 19.7L159 19.75L158.75 19.6" />
<path style="fill:#7E7772;fill-opacity:1" d="M126.95,32.6L127 32.35Q127.15 31.1 127.9 29.7L128.1 29.4L128.9 28L131.55 31.45L132.65 31.35L133.25 30.8L133.75 30.9L133.75 31L133.35 31.6L133.05 32.1L132.3 33.15Q131.6 34.2 131.1 33.8L130.85 33.6L130.1 32.8L129.25 31.8L128.25 33.15L127.4 34.45L127 32.7L126.95 32.6" />
<linearGradient
id="LinearGradID_852" gradientUnits="userSpaceOnUse" gradientTransform="matrix(-0.019516, -0.0040741, 0.00204468, -0.00978088, 153.85, 41.6)" spreadMethod ="pad" x1="-819.2" y1="0" x2="819.2" y2="0" >
<stop  offset="0" style="stop-color:#655E59;stop-opacity:1" />
<stop  offset="1" style="stop-color:#A19893;stop-opacity:1" />
</linearGradient>
<path style="fill:url(#LinearGradID_852) " d="M132.4,36.7L128.05 36.35L127.4 34.45L128.25 33.15L129.25 31.8L130.1 32.8L130.85 33.6L131.1 33.8Q131.6 34.2 132.3 33.15L133.05 32.1L133.35 31.6L133.75 31L133.75 30.9L133.9 30.95L136.7 32.25L138.8 33.4Q141.35 35 144.3 37.75L146.85 39.95L147.25 40.95L147.45 42.2Q147.45 43 146.9 43.85Q146.3 44.7 145.1 44.55L143.4 43.2L140.8 41.25L139.35 40.25Q137.8 39.25 136.1 38.4L135.25 38.05Q134 37.25 132.4 36.7" />
<linearGradient
id="LinearGradID_853" gradientUnits="userSpaceOnUse" gradientTransform="matrix(0.0206146, 0.0201263, -0.0399628, 0.0408783, 93.65, 36.95)" spreadMethod ="pad" x1="-819.2" y1="0" x2="819.2" y2="0" >
<stop  offset="0" style="stop-color:#3F3437;stop-opacity:1" />
<stop  offset="1" style="stop-color:#252021;stop-opacity:1" />
</linearGradient>
<path style="fill:url(#LinearGradID_853) " d="M42.35,29.45Q46.4 32.35 55.7 35.25Q67.55 38.9 84 32.7L84.95 32.35L85.1 32.3L85.2 32.25L86.15 31.9L88.5 30.8L89 30.5L90.45 29.5L93.1 27Q95.8 25.4 95.9 24.95Q104.6 27.85 115.5 26.45L120.85 25.55L121.65 25.35L121.7 25.7Q121.75 26.65 122.2 27.15L121.4 27.15L118.5 27.5L116.65 27.95Q114.95 28.1 112.85 29.1Q118.9 29.85 121 32Q123.05 34.15 123.4 34.25L123.4 34.3L123.45 34.3L122.15 36.05Q121.2 37 119 38.05Q117.7 33.7 112.7 30.4L112.85 30.55Q111.15 28.85 107.95 28.75Q105.65 28.65 102.85 29.45L101.25 29.3L92.65 29.9L88.5 30.8Q71.75 43.35 55.3 38.35Q50.15 36.75 45.6 33.6L43.7 32.05L42.35 29.45M104.85,29.9L108.6 30.5Q114.3 32.3 114.4 38.7L113.9 39.5L110.1 39.6L109.95 39.25Q111.5 31.75 104.85 29.9M59.5,58.8L59.2 58.9Q55 60.2 50.35 60.3L42.7 59.75Q36.45 58.65 31.25 55.65L28.8 53.35L28.25 52.9Q27.55 52.45 27.4 51.75Q27.15 51.75 27.65 51.7L28.75 51.8L30.15 51.95L32.8 51.85Q38.5 56.9 48.1 58.3L49.2 58.45L57.85 58.85L59.05 58.85L59.5 58.8M38.05,43.45Q35.3 48.3 32 51.1L32.05 51.15L29.4 50.7L29.05 50.55Q31.25 49.3 33 47.25L34.8 44.9L35.75 43.25Q36.95 40.6 37.55 37.75L37.9 36.05Q39.7 31.95 40.5 27.8L41.45 28.75Q42.1 36.2 38.05 43.45M97.65,26.55L97.4 26.65L97.2 26.75L97.1 26.85Q97.1 28.2 98.65 27.9Q101.55 27.4 97.65 26.55" />
<linearGradient
id="LinearGradID_854" gradientUnits="userSpaceOnUse" gradientTransform="matrix(-0.0123749, 0.00572205, -0.00209045, -0.0045166, 118.4, 40.65)" spreadMethod ="pad" x1="-819.2" y1="0" x2="819.2" y2="0" >
<stop  offset="0" style="stop-color:#655E59;stop-opacity:1" />
<stop  offset="1" style="stop-color:#A19893;stop-opacity:1" />
</linearGradient>
<path style="fill:url(#LinearGradID_854) " d="M109.15,41.2L109.4 41.25L112.3 41.15L112.4 41.15L114.3 40.95L114.35 40.95Q116.9 40.5 119.1 39.65L119.3 39.6Q122.05 38.45 123.8 36.4L124 36.15L124.35 35.7L125.1 34.15L125.5 32.85Q126.7 33.95 126.95 32.6L127 32.7L127.4 34.45L128.05 36.35L128 36.35L128 36.3L127.4 37.85Q126.8 39.25 125.5 40.6L122.45 43.15L121.95 43.5Q119.3 44.6 116.1 45.15L110.35 45.55L108.25 45.4L109.1 41.65L109.15 41.2" />
<linearGradient
id="LinearGradID_855" gradientUnits="userSpaceOnUse" gradientTransform="matrix(0.0314331, 0.000137329, -6.10352e-005, 0.0128784, 79.3, 46.15)" spreadMethod ="pad" x1="-819.2" y1="0" x2="819.2" y2="0" >
<stop  offset="0" style="stop-color:#655E59;stop-opacity:1" />
<stop  offset="1" style="stop-color:#A19893;stop-opacity:1" />
</linearGradient>
<path style="fill:url(#LinearGradID_855) " d="M71.5,54.15L71.6 53.75L70.8 53.1L70.3 52.75L70.15 52.65Q69.1 51.95 68.55 50.7Q68.15 49.8 68.55 48.45L69.15 46.95Q70.35 44.6 74.7 41.95Q79 39.25 83.15 38Q87.25 36.7 91.45 36.05L99.3 35.75Q102.9 36.1 105 37Q107.05 37.85 107.8 39.15L108.3 40.05L106.55 43.65L105.4 45.35Q105.55 43.65 103.65 41.65Q101.4 39.25 97.35 39Q93.25 38.75 88.85 40.3Q86.95 40.95 85.1 41.9L83.4 42.75Q80.7 44.25 78.25 46.55Q75.8 48.85 77.2 51.45Q78.55 54.05 81.55 55.2Q83.45 55.9 85.1 56L86.3 56Q79.75 57.15 74.7 55.45Q72.5 54.7 71.5 54.15" />
<linearGradient
id="LinearGradID_856" gradientUnits="userSpaceOnUse" gradientTransform="matrix(0.015274, 0.00958252, -0.0142975, 0.0227814, 54.95, 61.8)" spreadMethod ="pad" x1="-819.2" y1="0" x2="819.2" y2="0" >
<stop  offset="0" style="stop-color:#655E59;stop-opacity:1" />
<stop  offset="1" style="stop-color:#A19893;stop-opacity:1" />
</linearGradient>
<path style="fill:url(#LinearGradID_856) " d="M9.6,52.65L9.15 52.1L12.75 52.35L17.55 52.3L23.2 51.65Q23.75 53 26.9 55.2Q30.45 57.6 34.95 59.6Q37.8 60.9 41.55 61.65L50.9 62.4L55.05 62.1Q58.65 61.45 62.45 59.9L62.55 59.85L66 58.3L70.15 55.7L70.2 55.65L70.55 55.3L71.5 54.15Q72.5 54.7 74.7 55.45Q79.75 57.15 86.3 56L86.95 55.9Q86.4 57.95 85.1 59.9Q83.4 62.4 80.4 64.75Q75.3 68.75 68.3 70.95Q64.2 72.25 59.4 72.85L56.25 72.65Q23.95 70.35 9.6 52.65" />
<path style="fill:#696264;fill-opacity:1" d="M55.7,35.25Q46.4 32.35 42.35 29.45L41.45 28.75L40.5 27.8L40.7 26.35L41.2 26.7L41.5 26.9L42.2 27.35Q45.9 29.7 50.65 31.35Q56.3 33.35 62.25 34.2Q68.15 35 76.15 34.2Q80.55 33.75 84 32.7Q67.55 38.9 55.7 35.25" />
<linearGradient
id="LinearGradID_857" gradientUnits="userSpaceOnUse" gradientTransform="matrix(-0.0167999, 0.0108337, -0.0042572, -0.0065918, 30.15, 39.25)" spreadMethod ="pad" x1="-819.2" y1="0" x2="819.2" y2="0" >
<stop  offset="0" style="stop-color:#655E59;stop-opacity:1" />
<stop  offset="1" style="stop-color:#A19893;stop-opacity:1" />
</linearGradient>
<path style="fill:url(#LinearGradID_857) " d="M19.15,50.2L14 49.3Q18.55 46.9 22.95 43.95Q33.45 36.85 35.2 30.6L38.5 26.5L38.55 26.4L38.9 25.9L38.8 26.45L38.75 26.55L38.65 27.2L37.7 30.8Q36.35 35.65 32.9 41.05Q29.8 45.95 24.25 50.55L19.15 50.2" />
<path style="fill:#F0F0F0;fill-opacity:1" d="M12.75,52.35L9.15 52.1L9.6 52.65L6.55 52.25Q8.2 55.75 18.2 64.75L13.3 61.45Q6.3 56.4 3.3 50L3.9 49.85L11.85 47.2Q17.45 45.1 22.6 41.8L26.7 38.9Q25.15 40.7 22.6 42.65Q17.65 46.45 11.75 49.2Q13.4 50.6 17.55 52.3L12.75 52.35" />
<linearGradient
id="LinearGradID_858" gradientUnits="userSpaceOnUse" gradientTransform="matrix(0.0206146, 0.0201263, -0.0399628, 0.0408783, 93.65, 36.95)" spreadMethod ="pad" x1="-819.2" y1="0" x2="819.2" y2="0" >
<stop  offset="0" style="stop-color:#312629;stop-opacity:1" />
<stop  offset="1" style="stop-color:#171112;stop-opacity:1" />
</linearGradient>
<path style="fill:url(#LinearGradID_858) " d="M32.8,51.85L32.05 51.15L32 51.1Q35.3 48.3 38.05 43.45Q42.1 36.2 41.45 28.75L42.35 29.45L43.7 32.05L45.6 33.6Q50.15 36.75 55.3 38.35Q71.75 43.35 88.5 30.8L92.65 29.9L101.25 29.3L102.85 29.45L104.85 29.9Q111.5 31.75 109.95 39.25L109.5 38.45L108.7 37.45Q104.65 33.1 93.3 34.1Q89.2 34.5 85.1 35.7Q81.95 36.55 78.8 37.9Q74.45 39.75 71.3 42.2Q69.2 43.9 67.95 45.5Q67.05 46.65 66.7 47.8Q66.3 48.9 66.45 50Q66.7 52.15 68.95 54.2L68.1 55.05Q59.35 53.85 57.8 49.1Q57.2 47.3 57.7 45.25L58.35 43.5Q54.1 45.6 53.15 48Q53.1 47.6 53.2 47.25Q52.7 47.75 52.3 49.5Q51.85 51.2 52.95 54.05Q54.05 56.85 59.05 58.85L57.85 58.85L49.2 58.45Q44.4 55.25 42.55 49.1Q41.9 46.95 41.7 44.7L41.65 42.85Q41.3 46.65 39 49.15L37.5 50.45Q39.5 53.8 45 56.8L48.1 58.3Q38.5 56.9 32.8 51.85M46.65,37.15Q45.35 39.7 47.1 42.85Q47.35 43.2 47.5 43.05Q49.95 39.9 46.65 37.15M42.75,40.25Q41.25 40.75 42.1 42.05Q42.4 42.5 42.8 42.45Q45.45 41.95 42.75 40.25M53.25,40.65Q51.95 41.3 52.35 42.95Q52.5 43.5 52.9 43.4Q56.4 42.6 53.25 40.65M63.55,47.85Q65.9 45.8 62.55 45.4Q61.2 46.45 62.6 47.8L63.55 47.85M61.45,43.25Q64.05 43.15 61.65 41.5Q60.85 41.65 60.8 42.5Q60.8 43.3 61.45 43.25M63.15,49.5L62.5 49.85Q61.65 50.7 62.7 50.9Q66.6 51.7 63.15 49.5M49.85,54.85Q50.3 55.2 50.7 55.15Q53.3 54.65 50 53.25L49.6 53.4L49.4 53.7Q49.3 54.4 49.85 54.85M47.75,51Q50.65 49.9 47.4 48.75Q45.75 49.5 47.25 50.75Q47.55 51.05 47.75 51" />
<linearGradient
id="LinearGradID_859" gradientUnits="userSpaceOnUse" gradientTransform="matrix(0.0206146, 0.0201263, -0.0399628, 0.0408783, 93.65, 36.95)" spreadMethod ="pad" x1="-819.2" y1="0" x2="819.2" y2="0" >
<stop  offset="0" style="stop-color:#2C2225;stop-opacity:1" />
<stop  offset="1" style="stop-color:#1C1718;stop-opacity:1" />
</linearGradient>
<path style="fill:url(#LinearGradID_859) " d="M123.3,33.75Q120.55 28.95 116.8 28L116.65 27.95L118.5 27.5L121.4 27.15L122.2 27.15Q122.45 27.45 122.85 27.6L123.4 27.65Q123.55 29.6 124.2 31L123.95 32.4L123.85 32.9L123.5 34.05L123.3 33.75M114.4,38.7L114.75 37.85Q115.65 35.25 114.05 32.35L112.85 30.55L112.7 30.4Q117.7 33.7 119 38.05L117.75 38.55L114.6 39.4L114.4 39.4L113.9 39.5L114.4 38.7" />
<linearGradient
id="LinearGradID_860" gradientUnits="userSpaceOnUse" gradientTransform="matrix(0.0206146, 0.0201263, -0.0399628, 0.0408783, 93.65, 36.95)" spreadMethod ="pad" x1="-819.2" y1="0" x2="819.2" y2="0" >
<stop  offset="0" style="stop-color:#3F3437;stop-opacity:1" />
<stop  offset="1" style="stop-color:#43383A;stop-opacity:1" />
</linearGradient>
<path style="fill:url(#LinearGradID_860) " d="M116.65,27.95L116.8 28Q120.55 28.95 123.3 33.75L123.5 34.05L123.4 34.25Q123.05 34.15 121 32Q118.9 29.85 112.85 29.1Q114.95 28.1 116.65 27.95M102.85,29.45Q105.65 28.65 107.95 28.75Q111.15 28.85 112.85 30.55L114.05 32.35Q115.65 35.25 114.75 37.85L114.4 38.7Q114.3 32.3 108.6 30.5L104.85 29.9L102.85 29.45" />
<linearGradient
id="LinearGradID_861" gradientUnits="userSpaceOnUse" gradientTransform="matrix(0.0206146, 0.0201263, -0.0399628, 0.0408783, 93.65, 36.95)" spreadMethod ="pad" x1="-819.2" y1="0" x2="819.2" y2="0" >
<stop  offset="0" style="stop-color:#3F3437;stop-opacity:1" />
<stop  offset="1" style="stop-color:#433A3C;stop-opacity:1" />
</linearGradient>
<path style="fill:url(#LinearGradID_861) " d="M93.1,27Q94.45 25.25 95 23.15L97.95 24L98.1 24Q108.65 26.55 120.8 25.25L121.6 25.15L121.65 25.35L120.85 25.55L115.5 26.45Q104.6 27.85 95.9 24.95Q95.8 25.4 93.1 27" />
<linearGradient
id="LinearGradID_862" gradientUnits="userSpaceOnUse" gradientTransform="matrix(0.0206146, 0.0201263, -0.0399628, 0.0408783, 93.65, 36.95)" spreadMethod ="pad" x1="-819.2" y1="0" x2="819.2" y2="0" >
<stop  offset="0" style="stop-color:#271D20;stop-opacity:1" />
<stop  offset="1" style="stop-color:#120C0D;stop-opacity:1" />
</linearGradient>
<path style="fill:url(#LinearGradID_862) " d="M56.7,52.45Q60.7 55.55 67.2 55.65Q64.9 56.9 60.05 58.6L59.5 58.8L59.05 58.85Q54.05 56.85 52.95 54.05Q51.85 51.2 52.3 49.5Q52.7 47.75 53.2 47.25Q53.1 47.6 53.15 48Q53.35 49.9 56.7 52.45M47.5,43.05Q47.35 43.2 47.1 42.85Q45.35 39.7 46.65 37.15Q49.95 39.9 47.5 43.05M48.1,58.3L45 56.8Q39.5 53.8 37.5 50.45L39 49.15Q41.3 46.65 41.65 42.85L41.7 44.7Q41.9 46.95 42.55 49.1Q44.4 55.25 49.2 58.45L48.1 58.3M52.9,43.4Q52.5 43.5 52.35 42.95Q51.95 41.3 53.25 40.65Q56.4 42.6 52.9 43.4M62.6,47.8Q61.2 46.45 62.55 45.4Q65.9 45.8 63.55 47.85L62.6 47.8M47.25,50.75Q45.75 49.5 47.4 48.75Q50.65 49.9 47.75 51Q47.55 51.05 47.25 50.75" />
<linearGradient
id="LinearGradID_863" gradientUnits="userSpaceOnUse" gradientTransform="matrix(0.0206146, 0.0201263, -0.0399628, 0.0408783, 93.65, 36.95)" spreadMethod ="pad" x1="-819.2" y1="0" x2="819.2" y2="0" >
<stop  offset="0" style="stop-color:#48393D;stop-opacity:1" />
<stop  offset="1" style="stop-color:#171112;stop-opacity:1" />
</linearGradient>
<path style="fill:url(#LinearGradID_863) " d="M53.15,48Q54.1 45.6 58.35 43.5L57.7 45.25Q57.2 47.3 57.8 49.1Q59.35 53.85 68.1 55.05L67.2 55.65Q60.7 55.55 56.7 52.45Q53.35 49.9 53.15 48M98.65,27.9Q97.1 28.2 97.1 26.85L97.2 26.75L97.4 26.65L97.65 26.55Q101.55 27.4 98.65 27.9M42.8,42.45Q42.4 42.5 42.1 42.05Q41.25 40.75 42.75 40.25Q45.45 41.95 42.8 42.45M60.8,42.5Q60.85 41.65 61.65 41.5Q64.05 43.15 61.45 43.25Q60.8 43.3 60.8 42.5M62.7,50.9Q61.65 50.7 62.5 49.85L63.15 49.5Q66.6 51.7 62.7 50.9M49.4,53.7L49.6 53.4L50 53.25Q53.3 54.65 50.7 55.15Q50.3 55.2 49.85 54.85Q49.3 54.4 49.4 53.7" />
<linearGradient
id="LinearGradID_864" gradientUnits="userSpaceOnUse" gradientTransform="matrix(0.0206146, 0.0201263, -0.0399628, 0.0408783, 93.65, 36.95)" spreadMethod ="pad" x1="-819.2" y1="0" x2="819.2" y2="0" >
<stop  offset="0" style="stop-color:#625559;stop-opacity:1" />
<stop  offset="1" style="stop-color:#252021;stop-opacity:1" />
</linearGradient>
<path style="fill:url(#LinearGradID_864) " d="M30.15,51.95L28.75 51.8L27.65 51.7Q27.15 51.75 27.4 51.75Q27.55 52.45 28.25 52.9L28.8 53.35L31.25 55.65Q28.45 54 25.95 51.85L26.85 51.1L27.05 50.95L27.65 50.35Q32.45 45.9 35.75 40.3L37.9 36.05L37.55 37.75Q36.95 40.6 35.75 43.25L34.8 44.9L33 47.25Q31.25 49.3 29.05 50.55L29.4 50.7L32.05 51.15L32.8 51.85L30.15 51.95" />
</g>
</svg>
