<?xml version="1.0" encoding="utf-8"?>
<svg version="1.1" id="Layer_1"
xmlns="http://www.w3.org/2000/svg"
xmlns:xlink="http://www.w3.org/1999/xlink"
xmlns:author="http://www.sothink.com"
width="11px" height="10px"
xml:space="preserve">
<g id="389" transform="matrix(1, 0, 0, 1, 0, 0)">
<path style="fill:#876430;fill-opacity:1" d="M10.2,6.45Q9.95 7.85 8.65 8.85Q7.35 9.85 4.95 9.8Q2.5 9.75 1.4 8.95Q0.25 8.15 0 6.75Q-0.15 4.45 0.9 3.2Q2 1.85 4.45 1.65L5.1 1.6L5.2 1.35Q5.6 -0.3 7.3 0.05L8.9 0.55L9.2 0.7L9.7 1.1Q10.25 1.8 10.2 2.4L9.75 3.5L10.25 5.05L10.2 6.45M6.1,1.65Q7.35 1.7 8.35 2.25L9.25 2.95Q9.5 2.1 9.05 1.55Q8.7 1.1 7.95 0.9Q6.45 0.45 6.15 1.25L6.1 1.65M0.9,6.9Q1.1 8.45 3.55 8.85L7.5 8.55Q9 7.85 9.3 6.3L9.4 5.9Q9.5 4.6 9 3.85Q8.35 2.9 6.95 2.6L5.15 2.35Q1.9 2.5 1.05 4.35Q0.6 5.35 0.9 6.9" />
<path style="fill:#E9CB9E;fill-opacity:1" d="M8.7,2Q7.6 1.1 6.15 1.25Q6.45 0.45 7.95 0.9Q8.7 1.1 9.05 1.55L8.7 2M5.75,6.75L2.95 6.1Q1.45 5.55 1.05 4.35Q1.9 2.5 5.15 2.35L6.95 2.6Q8.35 2.9 9 3.85Q9.5 4.6 9.4 5.9Q7.75 6.9 5.75 6.75" />
<path style="fill:#D0A15B;fill-opacity:1" d="M6.15,1.25Q7.6 1.1 8.7 2L9.05 1.55Q9.5 2.1 9.25 2.95L8.35 2.25Q7.35 1.7 6.1 1.65L6.15 1.25M1.05,4.35Q1.45 5.55 2.95 6.1L5.75 6.75Q7.75 6.9 9.4 5.9L9.3 6.3Q9 7.85 7.5 8.55L3.55 8.85Q1.1 8.45 0.9 6.9Q0.6 5.35 1.05 4.35" />
</g>
</svg>
