<?xml version="1.0" encoding="utf-8"?>
<svg version="1.1" id="Layer_1"
xmlns="http://www.w3.org/2000/svg"
xmlns:xlink="http://www.w3.org/1999/xlink"
xmlns:author="http://www.sothink.com"
width="20px" height="19px"
xml:space="preserve">
<g id="2870" transform="matrix(1, 0, 0, 1, 4.7, 7.15)">
<path style="fill:#1C202A;fill-opacity:1" d="M7.25,-6.95Q9.9 -6.15 12.15 -3.35L13.6 -1.35L14.6 0.9Q14.95 3.5 13.15 5.05Q12.3 5.75 11.3 5.8L11.8 7.4Q11.95 8.35 11.6 9.1L10.45 10.35L8.1 11.25L5.25 11.2L2.2 9.85Q0.5 8.9 -0.45 9.2L-0.5 9.2Q-1.4 9.55 -1.55 10.3Q-1.7 11.05 -2.4 10.7L-3.75 9.7L-4.65 8.3Q-4.95 7.5 -4 7.05L-2.9 6.1L-2.45 5.4Q-1.9 4.25 -1.1 3.75Q-1.6 3.1 -1.45 1.7L-1.35 1.1Q-1 -0.8 1.15 -1.7Q3.25 -2.65 3.95 -3.85L5.05 -6.05Q5.4 -7.05 6.1 -7.15L7.25 -6.95M-0.15,2.9Q1.55 1.95 4.4 1.75Q7.8 1.9 10.05 4.2L10.8 5Q12.3 4.75 12.95 3.95Q13.6 3.15 13.65 1.6L13.6 1L13.15 -0.25L12.7 -1.1L12.3 -1.65L11.1 -3.1Q9 -5.25 7.55 -5.85L6 -5.75Q5.85 -5 4.75 -3.55Q3.65 -2.1 1.45 -0.8Q0.55 -0.3 0.15 0.4Q-0.5 1.45 -0.15 2.9M9.15,4.5L8.6 4.05L8.2 3.75Q5.55 1.95 2.5 2.85Q0.15 3.55 -0.9 4.9L-2 6.35L-2.25 6.7L-3.6 8.05Q-3.15 9.1 -2.3 9.5Q-0.5 6.8 2.95 9.15L4.1 9.85Q7.6 11.45 10.5 8.9Q11.1 8 10.55 6.55L10.5 6.4L10.55 6.4L9.4 4.75L9.15 4.5" />
<path style="fill:#2D343C;fill-opacity:1" d="M12.6,3.1Q11.7 3.95 10.05 4.2Q7.8 1.9 4.4 1.75Q1.55 1.95 -0.15 2.9Q-0.5 1.45 0.15 0.4L1.2 -0.05L1.85 -0.2L3.15 -0.3L5.1 -0.05L6.7 0.35L8.35 1.15Q9.15 1.75 10.15 1.95Q11.1 2.1 11.85 1.55L12.95 0.25L13.15 -0.25L13.6 1L13.65 1.6L12.6 3.1M2.95,9.15Q-0.5 6.8 -2.3 9.5Q-3.15 9.1 -3.6 8.05L-2.25 6.7L-2 6.35L-1.8 6.3L-0.8 6.15L0.15 5.9L1.95 5.95Q2.8 6.2 3.4 6.85Q4.05 7.55 5.05 7.55L6.9 7.2L8.4 6.4L9.05 5.65L9.4 4.75L10.55 6.4L10.5 6.4L10.55 6.55L10.25 7.35L9.3 8.5L7.95 9.3L6.1 9.7L4.1 9.85L2.95 9.15" />
<path style="fill:#61666C;fill-opacity:1" d="M1.85,-0.2L3.2 -1.3L4.9 -2.05L5.15 -2.15L5.25 -2L5.7 -1.9Q7.4 -2.25 6.3 -3.2L6.25 -3.25L6.25 -3.3L6.75 -4.75L8.25 -4.3L9.9 -3.4L11.3 -2.45L12.3 -1.65L12.7 -1.1L13.15 -0.25L12.95 0.25L11.85 1.55Q11.1 2.1 10.15 1.95Q9.15 1.75 8.35 1.15L6.7 0.35L5.1 -0.05L3.15 -0.3L1.85 -0.2M13.65,1.6Q13.6 3.15 12.95 3.95Q12.3 4.75 10.8 5L10.05 4.2Q11.7 3.95 12.6 3.1L13.65 1.6M10.5,8.9Q7.6 11.45 4.1 9.85L6.1 9.7L7.95 9.3L9.3 8.5L10.25 7.35L10.55 6.55Q11.1 8 10.5 8.9M9.4,4.75L9.05 5.65L8.4 6.4L6.9 7.2L5.05 7.55Q4.05 7.55 3.4 6.85Q2.8 6.2 1.95 5.95L0.15 5.9L-0.8 6.15L-0.75 6L0.45 4.75L2.05 3.95L2.2 3.9L2.55 4.4L3.25 4.8Q4.95 5.2 5 3.85L5 3.7L5.7 3.7L7.55 4L9.15 4.5L9.4 4.75" />
<path style="fill:#969BA1;fill-opacity:1" d="M11.3,-2.45L9.9 -3.4L8.25 -4.3L6.75 -4.75L6.25 -3.3L6.25 -3.25L6.3 -3.2Q7.4 -2.25 5.7 -1.9L5.25 -2L5.15 -2.15L4.9 -2.05L3.2 -1.3L1.85 -0.2L1.2 -0.05L0.15 0.4Q0.55 -0.3 1.45 -0.8Q3.65 -2.1 4.75 -3.55Q5.85 -5 6 -5.75L7.55 -5.85Q9 -5.25 11.1 -3.1L12.3 -1.65L11.3 -2.45M9.15,4.5L7.55 4L5.7 3.7L5 3.7L5 3.85Q4.95 5.2 3.25 4.8L2.55 4.4L2.2 3.9L2.05 3.95L0.45 4.75L-0.75 6L-0.8 6.15L-1.8 6.3L-2 6.35L-0.9 4.9Q0.15 3.55 2.5 2.85Q5.55 1.95 8.2 3.75L8.6 4.05L9.15 4.5" />
</g>
</svg>
