<?xml version="1.0" encoding="utf-8"?>
<svg version="1.1" id="Layer_1"
xmlns="http://www.w3.org/2000/svg"
xmlns:xlink="http://www.w3.org/1999/xlink"
xmlns:author="http://www.sothink.com"
width="117px" height="23px"
xml:space="preserve">
<g id="1085" transform="matrix(1, 0, 0, 1, -66.1, -4.85)">
<path style="fill:#71B4D2;fill-opacity:1" d="M178.55,16.75L182.7 16.75L182.65 17.2L182.35 20.2L180.6 23.75L178.3 26.9L174.05 27L169.95 27L169.95 27.05Q169.5 23.75 169.5 20.15L169.45 16.85L174 16.8L174 20.05Q174.35 20.35 175 20.35L176.1 20.3L176.4 20.2L176.75 20.05L177.3 19.55L177.7 19L178.45 17.3L178.55 16.75M154,16.95L162.8 16.9L162.8 18.3L161.3 18.45L159.9 18.45L158.95 18.65L158.85 20.7L158.95 22.55L159 22.65L163.1 22.75L167.3 22.8L167.3 24.95Q167.3 26.05 166.95 27L160.45 27.05Q157.1 27.15 154.05 26.9L154 16.95M143.1,17L148.05 17L148.05 18.45L148.2 26.8L148.2 26.9L145.6 27L143.1 27.05L143.1 25.15L143.1 19.8L143.1 17M132.55,18.1L133.75 18.1L134.9 18.1L134.8 17.05L138.35 17.05L140.5 27.05L138.4 27.2L136.25 26.9Q135.95 26.2 135.8 25.25L135.2 23.35L134.75 21.8L133.95 21.7L133.5 21.7L132.8 21.8L132.3 23.45L131.9 25.3L131.35 27.05L131.3 27.05L130.05 27.05L126.9 27.05L126.8 27L127.1 25.3L127.75 21.8L128.65 17.1L132.7 17.1L132.55 18.1M112.1,17.25L120.9 17.15L120.9 18.3L119.4 18.45L117.95 18.45L117.05 18.65Q116.85 19.55 116.95 20.7L117.05 22.55L117.1 22.65L121.2 22.75L125.4 22.8L125.4 24.95L125.05 27L118.55 27.05Q115.2 27.15 112.15 26.9L112.1 17.25M96.55,17.35L106.4 17.3L106.4 18.8L106.3 18.85L104.25 19.1L102.3 19.35L102.2 19.35Q102.05 21.3 102.05 23.3L102 27.05L100.5 27.15L98.75 27.15L97.25 27.15L96.55 27.05L96.45 27L96.45 21.85L96.55 17.35M81.3,17.45L90.1 17.4L90.1 18.3L88.6 18.45L87.2 18.45L86.25 18.65Q86.05 19.55 86.15 20.7L86.25 22.55L86.3 22.65L90.4 22.75L94.6 22.8L94.6 24.95L94.25 27L87.75 27.05Q84.4 27.15 81.35 26.9L81.3 17.45M70.65,20.05L71.65 20.35L72.75 20.3L73.1 20.2L73.4 20.05L73.95 19.55L74.35 19L75.1 17.5L79.3 17.5L79 20.2L77.25 23.75L74.95 26.9L70.7 27L66.6 27L66.6 27.05Q66.15 23.75 66.15 20.15L66.1 17.6L70.6 17.55L70.65 20.05" />
<linearGradient
id="LinearGradID_1374" gradientUnits="userSpaceOnUse" gradientTransform="matrix(0, -0.00671387, 0.00811768, 0, 72.75, 12)" spreadMethod ="pad" x1="-819.2" y1="0" x2="819.2" y2="0" >
<stop  offset="0" style="stop-color:#FFFFFF;stop-opacity:1" />
<stop  offset="1" style="stop-color:#95DEFF;stop-opacity:1" />
</linearGradient>
<path style="fill:url(#LinearGradID_1374) " d="M178.55,16.75L178.45 15.1L178.05 13.75L177.5 12.55Q177.15 12 176.4 11.8L175.25 11.7L174.05 11.8L173.9 11.8L173.9 11.95L174 15.8L174 16.8L169.45 16.85L169.5 12.8L169.5 5.5L169.5 5.4L169.55 5.3L172 5L174.6 5L177.15 5Q178.15 5.25 179.1 6.05L180.6 7.7L180.6 7.6L181.7 9.8L182.5 12.25L182.7 13.25L182.7 14.2L182.7 16.75L178.55 16.75M154,16.95L153.95 16.1Q153.8 10.75 154.15 5.4L157.35 5.25L160.8 5.15L163.95 5.1L166.25 5.1L167.1 5.15L167.2 7.45L167.1 9.65L164.45 9.95L161.7 9.95L158.95 10.05L158.8 10.05L158.8 10.1L158.7 11.95Q158.6 12.9 158.8 13.75L158.85 13.8L160.75 13.9L162.7 13.9L162.8 16.1L162.8 16.9L154 16.95M143.1,17L142.85 10.3Q142.3 10.05 141.55 9.95L140.05 9.95L139.1 9.9L138.95 8.95L138.85 7.05L138.95 4.9L138.95 4.85L145.55 4.85L152.15 5.15L152.25 7.5L152.1 10.05L150.6 9.95L148.2 10.05L148.15 10.05L148.15 10.1L148.05 10.1L148.05 11.05L148.05 13.5L148.05 17L143.1 17M134.8,17.05L134.3 13.25L133.8 11.45Q133.55 11.3 133.4 12.1L133 14.55L132.7 17.1L128.65 17.1L128.7 16.9L130.05 11.05L131.7 5L132.3 5L133.4 5L135.55 4.85L135.85 6.4L136.5 8.85L137.1 11.6L137.65 14.2L138.15 16.05L138.35 17.05L134.8 17.05M112.1,17.25L112.05 16.1Q111.9 10.75 112.2 5.4L115.45 5.25L118.9 5.15L122.05 5.1L124.35 5.1L125.2 5.15L125.3 7.45L125.2 9.65L122.55 9.95L119.8 9.95L117.05 10.05L116.85 10.05L116.85 10.1L116.8 11.95Q116.7 12.9 116.85 13.75L116.95 13.8L118.85 13.9L120.8 13.9L120.9 16.1L120.9 17.15L112.1 17.25M96.55,17.35L96.55 17.15L96.55 12.1L96.55 5.65L98.5 5.4L101.45 5.15L104.75 5.1L107.95 5.15L110.65 5.55L110.65 7.05L110.65 8.8L110.65 10.2L108.05 10.35L105.05 10.5L102.2 10.75Q101.85 11.6 101.9 12.35L102.3 13.6L103.7 13.65L105.15 13.65L106.3 13.6L106.4 14.95L106.4 16.9L106.4 17.3L96.55 17.35M81.3,17.45L81.25 16.1Q81.1 10.75 81.45 5.4L84.65 5.25L88.1 5.15L91.25 5.1L93.55 5.1L94.4 5.15L94.5 7.45L94.4 9.65L91.75 9.95L89 9.95L86.25 10.05L86.05 10.05L86.05 10.1L86 11.95Q85.9 12.9 86.05 13.75L86.15 13.8L88.05 13.9L90 13.9L90.1 16.1L90.1 17.4L81.3 17.45M75.1,17.5L75.15 17.3Q75.35 16.25 75.15 15.1L74.75 13.75L74.2 12.55Q73.8 12 73.1 11.8L71.9 11.7L70.7 11.8L70.55 11.8L70.55 11.95L70.65 15.8L70.6 17.55L66.1 17.6L66.15 12.8L66.15 5.5L66.15 5.4L66.25 5.3L68.65 5L71.25 5L73.8 5L75.75 6.05L77.25 7.7L77.25 7.6L78.35 9.8L79.15 12.25L79.4 13.25L79.4 14.2L79.3 17.2L79.3 17.5L75.1 17.5" />
</g>
</svg>
