<?xml version="1.0" encoding="utf-8"?>
<svg version="1.1" id="Layer_1"
xmlns="http://www.w3.org/2000/svg"
xmlns:xlink="http://www.w3.org/1999/xlink"
xmlns:author="http://www.sothink.com"
width="43px" height="42px"
xml:space="preserve">
<g id="503" transform="matrix(1, 0, 0, 1, -1.1, -7.15)">
<path style="fill:#FFFFFF;fill-opacity:1" d="M41.1,19.3L39.15 17.55L37.6 15.85L37.35 15.4Q36.2 13.6 36.3 11.55L36.3 11.25Q32.65 11.8 28.9 9.9L26.6 8.5Q25.65 7.8 24.45 8.1L23.5 9.9L21.9 11.45L21 12.05Q18.8 13.4 17.25 12.25Q18.35 11.65 20.4 11.2Q21.85 10.95 22.5 9.7L22.8 9.15Q23.45 7.9 24.1 7.15Q27 7.65 29.75 9.35Q32.5 11 35.65 9.95Q36.5 9.7 37.1 10.35L37.1 12.3Q37.1 13.1 37.55 13.8L38.15 14.7Q40.05 17.75 42.85 19.6Q41.8 19.75 41.25 20.7L40.4 22.45L40.25 22.65L40 23.1Q38.9 24.7 38.3 26.45L38.05 26.5Q37.8 26 37.95 25.35Q38.2 24.4 38.7 23.6L39.05 23.15L39.15 22.9L40.65 19.95L41.1 19.3M42.15,44L42 43.8L41.2 43.1Q40.85 42.5 40.2 42.7Q39.55 44.85 37.1 42.85Q35.8 41.8 35.15 40.25Q34.85 39.55 35.4 39.45L36.4 39.6L36.6 39.9Q35.75 40.45 36.6 41.3Q37.8 42.65 39.45 42.6L39.45 42.4Q39.3 41.7 39.85 41.75Q41.15 41.8 42.2 42.65L42.9 43.6L42.9 44.9L43.25 46.4L43.55 47.8Q43.6 48.3 43.25 48.65L37.7 48.15L35.95 48.2L35.05 48.15Q35.15 47.45 34.9 46.8L34.1 45.3L32.75 43.9L32.65 43.7Q33.4 43.15 34.45 44.45Q35.1 45.25 35.4 46.2L35.85 47.55Q38.05 46.3 40.1 47.5Q41.3 48.25 42.65 48L42.7 47.05L42.3 45.7L42.15 44.65L42.15 44M29.95,21.4L30.8 22.7L32 24.1L32.4 24.55Q32.65 25.5 32.3 26.4Q31.95 27.25 31.9 28.1Q31.8 28.8 31.25 29.1Q30.5 28.65 31 27.6L31.4 26.4L31.7 25.2L31.1 24.2L30.35 23.45L30.1 23.3Q30.3 24 29.95 24.6L28.85 25.55L28.2 25.75L29.1 23.85Q29.4 23.05 29.3 22.2Q29.2 21.4 29.95 21.4M1.35,17.4Q4.55 19.65 8.2 21.35Q12.25 23.2 15.7 22.9Q16.5 22.85 16.5 23.8Q14 25 10.65 23.2Q7.5 21.6 4.15 20.15Q4.05 20 3.85 19.95Q4.15 20.8 4.6 21.65Q5 22.25 5.05 23.05L5.35 24.2L6 26.1L6.1 26.55Q8.05 27.05 9.65 28.7L10.9 30.25L12.05 32.45L12.1 32.75L12.4 32.65Q13.35 32.3 13.95 33.05L13.95 33.15L13.05 33.8Q12.05 34.15 11.35 33.4L10.55 31.15L9.45 29.4Q7.9 27.5 5.35 27.35L4.75 24.75L4.05 22.65L2.95 20.25Q2.3 18.85 1.15 17.65Q0.95 17.5 1.35 17.4M7.85,35.6L7.85 35.5L7.9 35.5L7.9 35.6L7.85 35.6M7.6,41.75Q8.4 41.65 8.55 42.4L8.55 43.55L8.5 44Q7.75 44.9 6.45 44.75L6.45 44.85L6.45 45.35L6.45 46L6.45 46.85L10.85 46.95Q7.4 47.6 4.9 48.65L5.6 46.8L5.75 45.75L5.75 44.85L5.75 44Q8.25 44.1 7.5 42.8Q7 42.05 7.6 41.75" />
</g>
</svg>
