<?xml version="1.0" encoding="utf-8"?>
<svg version="1.1" id="Layer_1"
xmlns="http://www.w3.org/2000/svg"
xmlns:xlink="http://www.w3.org/1999/xlink"
xmlns:author="http://www.sothink.com"
width="17px" height="16px"
xml:space="preserve">
<g id="1656" transform="matrix(1, 0, 0, 1, -0.3, 0.25)">
<linearGradient
id="LinearGradID_1867" gradientUnits="userSpaceOnUse" gradientTransform="matrix(0.000289917, 0.00898743, -0.00990295, 0.000320435, 8.45, 6.4)" spreadMethod ="pad" x1="-819.2" y1="0" x2="819.2" y2="0" >
<stop  offset="0" style="stop-color:#FFFFFF;stop-opacity:1" />
<stop  offset="1" style="stop-color:#E0F5FF;stop-opacity:1" />
</linearGradient>
<path style="fill:url(#LinearGradID_1867) " d="M9.15,3.85L9.05 3.8L6 1.85L3.65 2.25L1.65 5.15L2.5 6.15L4.65 7.4L2.45 6.85L1.45 6.2L2.45 9.95L2.55 10.15L2.7 10.4L1.85 10.25L1.65 9.95L0.3 6.05L3.15 1.65L5.95 1.1L9.45 -0.25L12.95 1.45L14 1.8L15.1 3.5L16.6 7.6L14.3 11.75L12.6 12.35L15.25 8.25L14.4 8.6L10.75 8.3L14.05 7.95L14.05 8L16.2 6.95L14.85 4.1L13.9 2.55L12.5 1.95L11.35 3.7L11.3 3.65L9.15 3.85M7.2,1.65L9.5 3.15L11.9 1.75L9.35 0.35L7.2 1.65" />
<linearGradient
id="LinearGradID_1868" gradientUnits="userSpaceOnUse" gradientTransform="matrix(-0.000564575, 0.00874329, -0.0519409, -0.00337219, 42.9, 8.45)" spreadMethod ="pad" x1="-819.2" y1="0" x2="819.2" y2="0" >
<stop  offset="0" style="stop-color:#CBFBFF;stop-opacity:1" />
<stop  offset="1" style="stop-color:#91E9FF;stop-opacity:1" />
</linearGradient>
<path style="fill:url(#LinearGradID_1868) " d="M13.45,4.75Q13.05 4.9 12.75 6.1L11.3 3.65L11.35 3.7L12.5 1.95L13.9 2.55L14.85 4.1L16.2 6.95L14.05 8L14.05 7.95L13.45 4.75M4.65,7.4L2.5 6.15L1.65 5.15L3.65 2.25L6 1.85L9.05 3.8L8.95 7.5L7.4 6.4L7.05 5.8L7.05 5.7L7.05 5.65L7.05 5.6L7 5.6L6.95 5.5L6.55 3.9L6.3 7.8L4.65 7.4M9.35,0.35L11.9 1.75L9.5 3.15L7.2 1.65L9.35 0.35" />
<linearGradient
id="LinearGradID_1869" gradientUnits="userSpaceOnUse" gradientTransform="matrix(-0.000564575, 0.00874329, -0.0519409, -0.00337219, 42.9, 8.45)" spreadMethod ="pad" x1="-819.2" y1="0" x2="819.2" y2="0" >
<stop  offset="0" style="stop-color:#ADF6FC;stop-opacity:1" />
<stop  offset="1" style="stop-color:#91E9FF;stop-opacity:1" />
</linearGradient>
<path style="fill:url(#LinearGradID_1869) " d="M12.55,12.4L8.6 12.6L8.35 12.35L7.15 8.25L5.8 9.6L6 11.95L4.5 10.8L2.55 10.15L2.45 9.95L1.45 6.2L2.45 6.85L4.65 7.4L6.3 7.8L6.55 3.9L6.95 5.5L7 5.6L7.05 5.6L7.05 5.65L7.05 5.7L7.05 5.8L7.4 6.4L8.95 7.5L9.05 3.8L9.15 3.85L11.3 3.65L12.75 6.1Q13.05 4.9 13.45 4.75L14.05 7.95L10.75 8.3L14.4 8.6L15.25 8.25L12.6 12.35L12.55 12.4" />
<path style="fill:#5AD1DB;fill-opacity:1" d="M3.95,12.45L4.1 12.55L7.5 14.25L10.85 13.5L11.85 13.55L12.55 12.4L12.6 12.35L14.3 11.75L13 14.2L11.05 14.3L10.9 14.35Q9.05 14.6 8.5 14.95Q7.85 15.25 6.25 14.25L3.75 13.05L1.85 10.25L2.7 10.4L3.95 12.45" />
<path style="fill:#7CE5EE;fill-opacity:1" d="M2.7,10.4L2.55 10.15L4.5 10.8L6 11.95L5.8 9.6L7.15 8.25L8.35 12.35L8.6 12.6L12.55 12.4L11.85 13.55L10.85 13.5L7.5 14.25L4.1 12.55L3.95 12.45L2.7 10.4" />
</g>
</svg>
