<?xml version="1.0" encoding="utf-8"?>
<svg version="1.1" id="Layer_1"
xmlns="http://www.w3.org/2000/svg"
xmlns:xlink="http://www.w3.org/1999/xlink"
xmlns:author="http://www.sothink.com"
width="80px" height="83px"
xml:space="preserve">
<g id="3029" transform="matrix(1, 0, 0, 1, 0, 0)">
<path style="fill:#000000;fill-opacity:1" d="M75.1,61.95L75.2 61.4L76.15 61.75L76.1 62.15L76.05 62.6L75.8 63.9Q75.4 65.8 74.55 67.6Q73.3 70.2 70.75 72.3Q68.2 74.35 66.2 74.8L65.9 74.85Q64.15 75.15 63.85 74.65Q63.5 74.1 63.7 73.35L64.4 67.85L64.6 66.1L65 62.05L65.8 62L66.1 61.9L65.7 65.25L65.35 69.65Q64.7 73.75 64.95 73.8L66 73.7L66.2 73.65Q70.25 72.7 72.8 68.3L73.95 66L75.1 61.95M43.5,76.2L45.2 74.05L45.15 74.4L45 75.45Q45.05 75.85 45.35 76.05L44.8 76.7L43.95 77.6Q41.6 79.95 38 81.05Q33.65 82.4 30.45 82.35L26.3 81.9Q25.3 81.5 25 80.75Q24.7 80 28.25 75.7Q30.4 73.05 31.95 69.65L33.25 69.6L32.4 71.55L30.95 74.05L28.05 77.8L27.2 78.95Q26.5 79.95 26.7 80.45Q26.95 81.1 29.95 81.1Q32.95 81.1 36.8 80.05Q40.6 79 42.85 76.85L43.5 76.2M17,44.5L18.75 42.5L19.65 43.4L18.95 44.25L17.85 45.55L16.05 48.25L14.4 51.5Q13.65 53.05 13.3 54.6Q12.9 56.1 11.9 56.35Q10.85 56.55 8.65 55.2L8.4 55.05Q6.35 53.7 5 51.9Q3.55 49.95 2.85 47.55L2.55 46.35L2.45 45.75Q2 43 3.15 40.6L3.85 40.75L3.85 40.85L3.7 42.55L3.55 45.25L3.7 46.7Q4.2 48.9 5.4 50.65Q6.35 52.1 7.75 53.3Q9.2 54.5 10.25 54.9L11.95 54.8Q13.3 50.4 15.3 47.1L17 44.5" />
<path style="fill:#232323;fill-opacity:1" d="M17,44.5L15.7 43.45Q12 48.75 10.85 54.85L10.25 54.9Q9.2 54.5 7.75 53.3Q6.35 52.1 5.4 50.65Q6.7 51.75 8.6 52.4Q7.9 47.15 9.05 42.5Q6.05 42.95 3.55 45.25L3.7 42.55L3.85 40.85L3.85 40.75L4.2 40.7L5.75 39.4Q6.75 38.2 8.8 37.6L13.85 37.8Q16.9 38.65 18 41.2L18.75 42.5L17 44.5M43.5,76.2L42.55 74.7L41 75.9Q35.05 80.25 26.7 80.45Q26.5 79.95 27.2 78.95Q32.9 78.6 37 74.25L39 71.8L32.4 71.55L33.25 69.6L35.05 68.9Q37.15 67.75 39.55 67.8Q41.95 67.85 43.25 69.25Q44.55 70.6 44.95 72.2L45.2 74.05L43.5 76.2M75.1,61.95Q72.8 60.75 70.15 62.3Q70.15 65.3 69.7 68.1Q71.75 67.9 73.95 66L72.8 68.3Q70.25 72.7 66.2 73.65Q67.2 69.55 67.6 65.05L67.55 64L65.7 65.25L66.1 61.9L68.25 60.75Q69.7 59.75 71.75 59.9Q73.75 59.95 74.6 60.9L75.2 61.4L75.1 61.95" />
<path style="fill:#414141;fill-opacity:1" d="M3.7,46.7L3.55 45.25Q6.05 42.95 9.05 42.5Q7.9 47.15 8.6 52.4Q6.7 51.75 5.4 50.65Q4.2 48.9 3.7 46.7M15.3,47.1Q13.3 50.4 11.95 54.8L10.25 54.9L10.85 54.85Q12 48.75 15.7 43.45L17 44.5L15.3 47.1M5.85,45.5Q4.3 46.5 4.95 47.85Q5.55 49.15 6.4 48.8Q7.25 48.5 5.85 45.5M28.05,77.8L30.95 74.05L32.4 71.55L39 71.8L37 74.25Q32.9 78.6 27.2 78.95L28.05 77.8M42.85,76.85Q40.6 79 36.8 80.05Q32.95 81.1 29.95 81.1Q26.95 81.1 26.7 80.45Q35.05 80.25 41 75.9L42.55 74.7L43.5 76.2L42.85 76.85M32.95,73.4Q31.65 74.65 30.9 76.05Q31.65 76.9 32.5 76.35Q35.3 74.5 33.35 73.2L32.95 73.4M66,73.7L64.95 73.8Q64.7 73.75 65.35 69.65L65.7 65.25L67.55 64L67.6 65.05Q67.2 69.55 66.2 73.65L66 73.7M73.95,66Q71.75 67.9 69.7 68.1Q70.15 65.3 70.15 62.3Q72.8 60.75 75.1 61.95L73.95 66M72,65Q74.45 65.1 72.85 62.85Q71.65 63.15 71.75 64.45Q71.8 65 72 65" />
<path style="fill:#6D6969;fill-opacity:1" d="M6.4,48.8Q5.55 49.15 4.95 47.85Q4.3 46.5 5.85 45.5Q7.25 48.5 6.4 48.8M33.35,73.2Q35.3 74.5 32.5 76.35Q31.65 76.9 30.9 76.05Q31.65 74.65 32.95 73.4L33.35 73.2M71.75,64.45Q71.65 63.15 72.85 62.85Q74.45 65.1 72 65Q71.8 65 71.75 64.45" />
<path style="fill:#0E0A0B;fill-opacity:1" d="M72.65,38.25L70.7 35.35L70.3 34.65L69.85 33.75Q69.05 32 68.7 30.15Q65.2 14.05 55.05 5.25Q51.7 2.35 48.05 1.7L40.6 1.5Q37.9 2.35 36.45 4.35L33.5 8.5Q31.95 10.65 28.95 12.2L26.25 13.6L25.05 12.75L29.9 10.05Q31.35 9.1 32.6 7.4L35.25 3.7Q37.45 0.85 42.3 0.1Q52.9 -0.75 59.75 7.95Q66.55 16.65 68.05 21.7Q69.5 26.7 70.15 29.85Q70.8 33.05 73.85 37.35L74.3 38.05L72.65 38.25M65,62.05Q64.3 61.95 63.6 61.25Q62.5 60.2 62.4 58.5Q62.3 56.75 63.4 55.25Q64.45 53.75 67 52.8L67.5 47.7Q67.85 43.4 63.55 39Q65.05 42 63.05 49Q61.05 56.05 56.45 60.45L51.65 65.05Q52.8 69.2 51.45 71.85Q50.05 74.5 47.85 75.4L45.35 76.05Q45.05 75.85 45 75.45L45.15 74.4L45.2 74.05L44.95 72.2Q44.55 70.6 43.25 69.25Q41.95 67.85 39.55 67.8Q37.15 67.75 35.05 68.9L33.25 69.6L31.95 69.65L31.4 69.5Q29.85 68.95 30.3 66.15Q30.95 61.3 36.85 59.85Q37.65 56.15 39.75 52.35Q42.1 48.1 42.6 47.5Q40.85 45.05 40.9 41.3Q40.95 37.55 38.7 35.15Q36.4 32.75 33.1 32.55Q29.75 32.3 27.6 33.5Q25.45 34.65 24.8 35.4L23.9 36.4Q25.65 40.3 24.4 42.2Q23.1 44.05 21.1 43.9L19.65 43.4L18.75 42.5L18 41.2Q16.9 38.65 13.85 37.8L8.8 37.6Q6.75 38.2 5.75 39.4L4.2 40.7L3.85 40.75L3.15 40.6L2.65 40.45Q-0.8 38.15 0.2 34.25L0.35 33.8L1.3 34.65Q0.9 36.25 1.75 37.9Q2.3 39.05 3.2 39.2L4.05 39.1L4.15 39.05L4.95 38.4Q6.7 36.55 9.15 36.2L13.75 36.4L15.45 37L16.15 37.35L17.1 38L18.8 39.9L19.65 41.6L19.85 42L20.2 42.45L22.15 42.5Q23.8 41.8 23.6 39.7Q23.45 37.85 21.1 35.2L21.1 35.1L20.5 34.05L20.7 34L20.85 34.05L21.9 34.65L22.95 35.55Q24.1 34 25.8 32.9Q27.5 31.8 29.45 31.4L33.3 31.2Q42.45 32.8 42.3 42.6Q42.25 45.15 43.35 46.7L44.4 45.4L44.55 45.15Q44.4 47.25 43.65 48.55L41.45 52.25Q40.05 54.6 39.15 57.15Q38.25 59.65 38.45 59.65Q40.3 59.85 41.45 60.9L41.6 61.05Q38.15 60.55 35.2 61.85Q32.25 63.15 31.8 65.35L31.75 65.65Q31.35 67.6 31.7 68L32.45 68.5L32.55 68.5L33.4 68.4L33.75 68.25L34.9 67.7L38.05 66.8Q40 66.45 42.05 67.2Q43.4 67.7 44.35 68.65L45.15 69.6Q45.9 70.7 46.2 72L46.35 73.2L46.35 74.55L46.3 74.6Q48.55 73.8 49.75 71.8Q50.9 69.7 50.75 68.05Q50.6 66.4 49.65 64L48.85 62.15L48.75 61.95L48.6 61.85L48.9 61.5Q49.1 61.4 49.75 62.05L49.85 62.15L50.95 63.55Q56.85 58.25 58.55 55.45Q60.25 52.65 60.05 51.65Q59.8 50.7 57.5 48.8L56.4 47.95L55.5 46.15Q58.1 47.35 61.1 50.35Q63.1 46.1 62.65 41.25L62.2 38.6Q61.45 35.7 64.9 38.5L65.5 39.05Q66.65 40.15 67.5 41.8L67.9 42.75Q68.85 45.2 68.8 48L68.3 52.35Q68.4 52.6 69.05 52.55L69.15 52.55L70.65 52.5L70.8 52.55L70.85 52.55L70.65 52.75L70 52.9L69.95 52.9Q68.8 53.15 67.55 53.75L66.8 54.1Q65.1 55 64.25 56.25Q63.4 57.45 63.6 58.55Q63.75 59.65 64.45 60.55Q64.7 60.9 65.15 60.9L66.25 60.5L66.6 60.2Q68.05 59.25 71.35 58.9Q74.25 58.95 75.3 60.1L76.2 60.7Q76.9 60.9 77.8 60.35L78.5 59.6L79.2 60.4Q78.1 61.8 76.95 61.8L76.15 61.75L75.2 61.4L74.6 60.9Q73.75 59.95 71.75 59.9Q69.7 59.75 68.25 60.75L66.1 61.9L65.8 62L65 62.05" />
<path style="fill:#1C1417;fill-opacity:1" d="M69.35,33.7Q68.8 33.7 68.3 34.15Q67.45 35.05 68.35 35.35Q70.8 36.05 70.7 35.35L72.65 38.25Q70.75 38.65 69.2 39.95L70 41.1Q69.25 41.4 68.9 42.2Q68.4 43.3 69.4 43.45L71.15 43.6Q71.6 45.2 71.7 47Q73.65 48.75 71.7 49.05L71.65 49.7L71.6 51L71.5 51.35L71.2 52L70.85 52.55L70.8 52.55L70.65 52.5L69.15 52.55L69.05 52.55Q68.4 52.6 68.3 52.35L68.8 48Q68.85 45.2 67.9 42.75L67.5 41.8Q66.65 40.15 65.5 39.05L64.9 38.5Q61.45 35.7 62.2 38.6L62.65 41.25Q63.1 46.1 61.1 50.35Q58.1 47.35 55.5 46.15L56.4 47.95Q54.5 46.8 52.35 46.6L49 46.15Q48.5 46 48.55 45.6L52.15 45.35L54.65 44.95Q57.15 44.9 59.3 46.75L59.4 46.8Q62.3 43.35 61.8 40.2Q58.55 36.5 56.55 35.6Q54.25 34.55 51.15 33.8L45.95 32.4Q43.9 31.75 42.15 30.2L40.55 28.35L39.85 28.35Q38.9 28.3 38.95 27.2Q38.95 26.4 39.25 25.9L39 25.35Q38.4 24 38.75 22.55Q39.6 18.4 39.1 14.5L33.15 15.2Q29.15 15.3 26.25 13.6L28.95 12.2Q31.95 10.65 33.5 8.5L36.45 4.35Q37.9 2.35 40.6 1.5L48.05 1.7Q51.7 2.35 55.05 5.25Q65.2 14.05 68.7 30.15Q69.05 32 69.85 33.75L70.3 34.65L69.35 33.7M78.5,59.6L77.8 60.35Q76.9 60.9 76.2 60.7L75.3 60.1Q74.25 58.95 71.35 58.9Q68.05 59.25 66.6 60.2L66.25 60.5L65.15 60.9Q64.7 60.9 64.45 60.55Q63.75 59.65 63.6 58.55Q63.4 57.45 64.25 56.25Q65.1 55 66.8 54.1L67.55 53.75L67.25 54.4Q67 55.5 67.7 56.4L68.35 57L68.7 57.2Q72.15 56.2 75.55 57.75Q76.65 58.2 77.7 58.95L78.5 59.6Q79.05 58.5 78.55 56.6Q77.85 53.75 76.1 53.15Q75.4 52.9 75.9 52.8L77 52.85L77.95 53.55Q79.05 50.8 77.65 46.8Q76.5 43.5 73.15 38.9L72.65 38.25L74.3 38.05Q77 41.95 78.7 45.8Q80.5 49.95 78.95 54.2Q80.6 58.45 79.4 60.15L79.2 60.4L78.5 59.6M0.35,33.8Q0.9 32.15 2.4 30.95Q4.35 29.4 6.15 28.85Q7.9 28.25 10.75 28.15Q10.85 26.5 12.05 25Q13.2 23.6 15 22.75Q17.05 21.85 19.4 21.55L19.35 21.25Q19.4 15.65 23.95 13.3L25.05 12.75L26.25 13.6L24.6 14.45Q21.05 16.45 21.15 20.2L21.35 21.35Q24 21.3 25 22.3Q25.95 23.3 23.5 22.8Q21 22.3 17.8 23.3Q14.55 24.3 13.55 25.5Q12.55 26.7 12.4 27.4Q12.2 28.15 12.3 28.3Q15 28.95 15.6 29.75L12.6 29.7Q9 28.8 5.7 30.35Q2.35 31.9 1.6 33.75L1.3 34.65Q4.05 36.9 7.9 34.8Q9.15 34.1 10.7 34.2Q15.6 34.45 18.9 37.65Q20.25 37.2 21.05 35.35L21.1 35.2Q23.45 37.85 23.6 39.7Q23.8 41.8 22.15 42.5L20.2 42.45L19.85 42L19.65 41.6L18.8 39.9L17.1 38L16.15 37.35L15.45 37L13.75 36.4L9.15 36.2Q6.7 36.55 4.95 38.4L4.15 39.05L4.05 39.1L3.2 39.2Q2.3 39.05 1.75 37.9Q0.9 36.25 1.3 34.65L0.35 33.8M38.45,59.65Q38.25 59.65 39.15 57.15Q40.05 54.6 41.45 52.25L43.65 48.55Q44.4 47.25 44.55 45.15L44.4 45.4L43.35 46.7Q42.25 45.15 42.3 42.6Q42.45 32.8 33.3 31.2L29.45 31.4Q27.5 31.8 25.8 32.9Q24.1 34 22.95 35.55L21.9 34.65L20.85 34.05L20.7 34Q21.85 32.15 23.45 30.85Q22.75 30.8 22.4 29.95Q21.3 27.25 23.75 26.3Q26.6 27.85 26.65 29Q27.9 28.45 29.4 28.25Q29.6 28.6 30.3 28.65Q32.8 28.8 33.2 28.05Q36.5 28.3 39.15 30.3L39.85 30.95Q43.1 34.15 43.5 36.55Q44 42.85 45.05 43.65L45.55 42.35Q46.5 43.9 45.85 45.85Q43.85 51.75 40.6 56.95L40.6 58.5L40.85 58.75Q41.5 59.6 41.45 60.9Q40.3 59.85 38.45 59.65M49.65,64Q50.6 66.4 50.75 68.05Q50.9 69.7 49.75 71.8Q48.55 73.8 46.3 74.6L46.35 74.55L46.35 73.2L46.2 72Q45.9 70.7 45.15 69.6L44.35 68.65Q43.4 67.7 42.05 67.2Q40 66.45 38.05 66.8L34.9 67.7L33.75 68.25L33.4 68.4L32.55 68.5L32.45 68.5L31.7 68Q31.35 67.6 31.75 65.65Q32.45 66.05 33.25 66.25L34.1 66.35L34.6 66.35L36.45 66L37.85 65.45L39.7 65.2Q42.9 65.55 45.1 67.25L45.95 67.95L46.15 67.8L47.2 66.7Q48.75 64.8 48.85 62.15L49.65 64M49.85,62.15Q54.4 58.55 56.25 52.85Q57.1 50.25 56.4 47.95L57.5 48.8Q59.8 50.7 60.05 51.65Q60.25 52.65 58.55 55.45Q56.85 58.25 50.95 63.55L49.85 62.15M53.15,37.5Q58.15 40 53.05 41.65Q52.2 41.95 51.85 40.95Q50.95 38.35 53.15 37.5M34.3,22.85Q32.05 23.75 31.85 21.5Q31.7 19.75 33.35 19.5Q39.45 20.9 34.3 22.85M44.55,53.5Q48.15 56.7 43.25 55.85Q42.65 55.75 42.95 54.85Q43.3 53.65 44.55 53.5" />
<path style="fill:#3C3134;fill-opacity:1" d="M56.25,52.85Q54.4 58.55 49.85 62.15L49.75 62.05Q49.1 61.4 48.9 61.5L48.6 61.85L48.75 61.95L48.85 62.15Q48.75 64.8 47.2 66.7L46.15 67.8L45.95 67.95L45.1 67.25Q42.9 65.55 39.7 65.2L37.85 65.45L36.45 66L34.6 66.35L34.1 66.35L33.25 66.25Q32.45 66.05 31.75 65.65L31.8 65.35Q32.25 63.15 35.2 61.85Q38.15 60.55 41.6 61.05L41.45 60.9Q41.5 59.6 40.85 58.75L40.6 58.5L40.6 56.95Q43.85 51.75 45.85 45.85Q46.5 43.9 45.55 42.35L45.05 43.65Q44 42.85 43.5 36.55Q43.1 34.15 39.85 30.95L39.15 30.3Q36.5 28.3 33.2 28.05Q32.8 28.8 30.3 28.65Q29.6 28.6 29.4 28.25Q27.9 28.45 26.65 29Q26.6 27.85 23.75 26.3Q21.3 27.25 22.4 29.95Q22.75 30.8 23.45 30.85Q21.85 32.15 20.7 34L20.5 34.05L20.4 34.3L20.35 34.4L21.1 35.2L21.05 35.35Q20.25 37.2 18.9 37.65Q15.6 34.45 10.7 34.2Q9.15 34.1 7.9 34.8Q4.05 36.9 1.3 34.65L1.6 33.75Q2.35 31.9 5.7 30.35Q9 28.8 12.6 29.7L15.6 29.75Q15 28.95 12.3 28.3Q12.2 28.15 12.4 27.4Q12.55 26.7 13.55 25.5Q14.55 24.3 17.8 23.3Q21 22.3 23.5 22.8Q25.95 23.3 25 22.3Q24 21.3 21.35 21.35L21.15 20.2Q21.05 16.45 24.6 14.45L26.25 13.6Q29.15 15.3 33.15 15.2L39.1 14.5Q39.6 18.4 38.75 22.55Q38.4 24 39 25.35L39.25 25.9Q38.95 26.4 38.95 27.2Q38.9 28.3 39.85 28.35L40.55 28.35L42.15 30.2Q43.9 31.75 45.95 32.4L51.15 33.8Q54.25 34.55 56.55 35.6Q58.55 36.5 61.8 40.2Q62.3 43.35 59.4 46.8L59.3 46.75Q57.15 44.9 54.65 44.95L52.15 45.35L48.55 45.6Q48.5 46 49 46.15L52.35 46.6Q54.5 46.8 56.4 47.95Q57.1 50.25 56.25 52.85M69.95,52.9L70 52.9L70.65 52.75L70.85 52.55L71.2 52L71.5 51.35L71.6 51L71.65 49.7L71.7 49.05Q73.65 48.75 71.7 47Q71.6 45.2 71.15 43.6L69.4 43.45Q68.4 43.3 68.9 42.2Q69.25 41.4 70 41.1L69.2 39.95Q70.75 38.65 72.65 38.25L73.15 38.9Q76.5 43.5 77.65 46.8Q79.05 50.8 77.95 53.55L77 52.85L75.9 52.8Q75.4 52.9 76.1 53.15Q77.85 53.75 78.55 56.6Q79.05 58.5 78.5 59.6L77.7 58.95Q76.65 58.2 75.55 57.75Q72.15 56.2 68.7 57.2L68.35 57L67.7 56.4Q67 55.5 67.25 54.4L67.55 53.75Q68.8 53.15 69.95 52.9M70.7,35.35Q70.8 36.05 68.35 35.35Q67.45 35.05 68.3 34.15Q68.8 33.7 69.35 33.7L70.3 34.65L70.7 35.35M51.85,40.95Q52.2 41.95 53.05 41.65Q58.15 40 53.15 37.5Q50.95 38.35 51.85 40.95M74.9,44.2Q73.7 42.1 73.45 43.7Q73.2 45.25 74.35 48Q75.45 50.75 75.75 48.5Q76.05 46.25 74.9 44.2M33.35,19.5Q31.7 19.75 31.85 21.5Q32.05 23.75 34.3 22.85Q39.45 20.9 33.35 19.5M15.95,27L18.55 26.85Q21.75 25.7 19.45 24.75L18.95 24.85Q16.75 25.35 15.85 26.9L15.95 27M13.05,31.6Q13.35 31 10.35 30.45L7.6 30.7Q5.9 31.1 5.5 32.4L5.75 32.75L11.85 32.05Q12.7 32.2 13.05 31.6M38.05,61.85Q36.5 62 35.65 63.15Q35.55 63.3 35.6 63.5Q35.75 63.9 36.2 63.85L42.55 63.2L42.55 63.1Q41.85 61 38.2 61.85L38.05 61.85M74.35,55.5Q75.7 56.2 76.3 55.3Q76.85 54.4 74.4 54.1Q72.95 54.8 74.35 55.5M51,50Q48.2 52.35 47.9 54.85Q47.6 57.3 49 56.25Q50.35 55.2 51.9 52.35Q53.4 49.5 51 50M42.95,54.85Q42.65 55.75 43.25 55.85Q48.15 56.7 44.55 53.5Q43.3 53.65 42.95 54.85" />
<path style="fill:#625158;fill-opacity:1" d="M75.75,48.5Q75.45 50.75 74.35 48Q73.2 45.25 73.45 43.7Q73.7 42.1 74.9 44.2Q76.05 46.25 75.75 48.5M15.85,26.9Q16.75 25.35 18.95 24.85L19.45 24.75Q21.75 25.7 18.55 26.85L15.95 27L15.85 26.9M11.85,32.05L5.75 32.75L5.5 32.4Q5.9 31.1 7.6 30.7L10.35 30.45Q13.35 31 13.05 31.6Q12.7 32.2 11.85 32.05M38.2,61.85Q41.85 61 42.55 63.1L42.55 63.2L36.2 63.85Q35.75 63.9 35.6 63.5Q35.55 63.3 35.65 63.15Q36.5 62 38.05 61.85L38.2 61.85M74.4,54.1Q76.85 54.4 76.3 55.3Q75.7 56.2 74.35 55.5Q72.95 54.8 74.4 54.1M51.9,52.35Q50.35 55.2 49 56.25Q47.6 57.3 47.9 54.85Q48.2 52.35 51 50Q53.4 49.5 51.9 52.35" />
<path style="fill:#481436;fill-opacity:1" d="M21.1,35.1L21.1 35.2L20.35 34.4L20.4 34.3L20.5 34.05L21.1 35.1" />
</g>
</svg>
