<?xml version="1.0" encoding="utf-8"?>
<svg version="1.1" id="Layer_1"
xmlns="http://www.w3.org/2000/svg"
xmlns:xlink="http://www.w3.org/1999/xlink"
xmlns:author="http://www.sothink.com"
width="55px" height="51px"
xml:space="preserve">
<g id="416" transform="matrix(1, 0, 0, 1, -0.95, -3.55)">
<path style="fill:#D0A67A;fill-opacity:1" d="M41.85,9.45L42.2 9.65L42.55 9.65L42.7 9.8Q43.3 11.2 44.7 12.05Q45.6 12.7 47.25 13.05L47.4 15L47.35 15L47.4 15.15L47.45 15.2L47.45 15.5L47.5 15.6L47.5 15.8L47.55 15.85L47.55 16.35L47.6 16.4L47.65 16.5L47.65 17.3L47.7 17.3L47.7 18.35L47.8 18.45L47.8 18.65L47.85 18.7L47.85 18.8L47.9 18.85L47.9 18.95L47.95 19L47.95 19.3L48 19.3L48 20.9L48.1 20.95L48.25 20.95L48.35 21.1L48.45 21.1L48.5 21.25L48.55 21.3L48.65 21.4L48.65 21.45L48.75 21.6L48.8 21.65L48.8 21.7L48.85 21.7L48.85 22.5L48.8 22.6L48.75 22.6L48.75 22.65L48.7 22.75L48.65 22.8L48.55 22.8L48.55 22.9L48.5 22.9L48.4 22.9L48.25 22.9L48.1 22.9L48.2 23.65L48.05 23.65L48.05 23.8L47.65 23.8L47.45 23.95L47.35 24.15L47.2 24.3L47.2 24.4L47.1 24.55L46.95 24.7L46.85 24.9L46.8 25.05L46.8 25.25L46.8 25.35L46.8 25.55L46.8 25.7L46.8 25.9L46.8 26L46.8 26.15L46.85 26.3L47 26.5L47.15 26.65L47.3 26.8L47.45 26.95L47.55 27.15L47.7 27.25L47.8 27.4L47.9 27.5L47.95 29.3L47.8 36.75L47.45 39.7L47.35 39.7L47.15 39.8L47.05 39.8L46.9 39.95L46.7 40.1L46.55 40.3L46.45 40.45L46.3 40.6L46.2 40.8L46.15 40.9L46.15 41.05L46.1 41.2L46.05 41.35L46.05 41.55L46.05 41.7L46.05 41.85L46 41.95L46 42.15L45.9 42.3L45.85 42.45L45.85 42.6L45.85 42.7L45.85 42.9L45.85 43.1L45.85 43.25L45.8 43.35L45.8 43.5L45.75 43.7L45.7 43.9L45.7 44L45.7 44.15L45.7 44.35L45.7 44.5L45.7 44.65L45.7 44.85L45.7 45L45.75 45.15L45.8 45.3L45.8 45.4L45.8 45.6L45.5 46.3Q45.25 46.6 44.95 46.6L44.25 46.6L44.2 46.6L43.7 47.15L43.55 47L43.45 46.85L43.25 46.7L43.05 46.55L42.75 46.45L42.55 46.4L42.3 46.3L41.95 46.3L41.9 46.25L41.85 46.25L41.75 46.25L41.55 46.25L41.55 46.3L41.45 46.4L41.35 46.4L41.35 46.55L41.15 46.55L40.9 46.7L40.7 46.85L40.6 47L40.45 47.15L40.4 47.35L40.3 47.5L40.3 47.65L40.25 47.75L40.15 47.95L40.15 48.15L40.15 48.3L40.15 48.4L40.15 48.55L40.15 48.7L40.15 48.9L40.2 48.95L39.55 48.95L38.4 48.7L36.9 48.8L36.6 48.95L34.2 48.95L34.2 48.9L34.2 48.7L34.05 48.55L34 48.4L33.85 48.3L33.65 48.15L33.3 47.95L33.3 48.05L33.05 48.05L33 48.1L32.8 48.2L32.7 48.35L32.55 48.5L32.45 48.65L32.4 48.7L32.3 48.8L32.25 48.95L31.85 48.95L31.85 48.25Q31.25 48.4 30.7 48.8L30.7 48.85Q31.1 49.4 29.4 49.55Q27.7 49.65 25.65 48.8L25.25 48.65L23.65 48.7L17.75 49L16.65 49.05L16.7 49.1L16.7 49.15L16.75 49.15L16.75 49.4L16.7 49.45L16.7 49.55L16.65 49.55L16.65 49.6L16.6 49.65L16.6 49.7L16.55 49.75L16.45 49.85L16.4 49.9L16.4 49.95L16.3 50L16.2 50.05L16.1 50.05L15.8 50.05L15.65 50.05L15.6 50L15.55 49.95L15.45 49.9L15.45 49.85L15.4 49.75L15.3 49.85L15.2 49.85L14.8 49.85L14.65 49.85L14.6 49.75L14.5 49.75L14.5 49.7L14.45 49.7L14.35 49.65L14.25 49.6L14.2 49.55L14.15 49.5L14.1 49.45L14.1 49.4L14.05 49.4L14.05 48.8L14.1 48.8L14.1 48.7L14.15 48.7L14.15 48.65L14.2 48.65L14.25 48.55L14.25 48.5L14.35 48.5Q13.65 48.2 13.3 47.55L12.9 46.8L12.3 46.95L11.55 47.15Q10.75 47.15 8.5 45.15L7.3 44.1L7.3 43.95L7.3 43.8L7.3 43.65L7.25 43.5L7.1 43.35L7.1 43.2L6.95 43.05L6.85 42.9L6.7 42.7L6.65 42.55L6.6 42.45L6.5 42.3L6.5 42.15L6.45 41.95L6.3 41.8L6.3 41.65L6.15 41.5L6.05 41.3L5.9 41.2L5.7 41L5.35 40.9L5.35 40.95L5.3 40.95L5.25 39.2L5.15 37.35L5.1 37.4L5 37.35L4.95 37.35L4.95 37.3L4.85 37.3L4.75 37.25L4.75 37.2L4.7 37.1L4.65 37.1L4.65 36.95L4.6 36.95L4.6 36.75L4.65 36.75L4.65 36.65L4.7 36.6L4.75 36.5L4.85 36.45L4.95 36.35L5 36.35L5.1 36.35L5.15 36.35L5.1 32.85L5.1 31.3L5.55 30.4L5.55 30.35L5.75 30.3L5.8 30.2L5.95 30.05L6.1 29.9L6.15 29.75L6.3 29.5L6.5 29.45L6.6 29.3L6.65 29.05L6.7 29.15L6.95 29.15L7.05 29.15L7.1 29.15L7.1 29.05L7.2 29.05L7.3 29L7.3 28.9L7.35 28.85L7.35 28.8L7.4 28.8L7.4 28.4L7.35 28.4L7.35 28.3L7.3 28.3L7.3 28.2L7.25 28.15L7.1 28.15L7.1 28.1L7.05 28.05L6.95 28.05L6.8 28.05L6.7 28.1L6.65 28.15L6.6 28L6.5 27.8L6.45 27.65L6.3 27.55L6.05 27.4L5.7 27.25L5.35 27.25L5.35 27.35L5.15 27.35L5.65 16.25L5.75 14.7L6.3 13.65Q6.65 12.6 7.65 13.1L7.8 12.2L7.65 11.6L8.8 9.9L9.8 8.1L15.35 8.45L15.55 8Q15.95 7.55 16.45 7.55L16.85 7.8L17.05 8.2L16.95 8.45L26.95 8.2L27.4 8.45Q28 8.9 28.35 8.9L29.25 8.3L29.4 8.1L30.9 8.05L30.8 8.2L30.7 8.3L30.7 8.45L30.6 8.65L30.6 8.8L30.6 8.9L30.7 9.15L30.7 9.25L30.75 9.4L30.9 9.65L31.1 9.75L31.5 9.8L31.65 9.8L31.85 9.8L31.85 7.4L33 7.45L33.8 7.5L33.8 7.55L33.8 7.7L33.85 7.9L33.95 8L34 8.2L34.2 8.3L34.35 8.45L34.75 8.6L36 8.6L36.35 8.45L36.55 8.3L36.7 8.2L36.75 8L36.9 7.9L36.9 7.7L36.9 7.55L39 7.7L38.9 7.8L38.85 7.95L38.85 8.1L38.85 8.25L38.85 8.4L38.9 8.55L39 8.7L39.15 8.85L39.25 9.05L39.5 9.2L39.55 9.2L39.5 9.3Q39.5 9.65 39.85 9.65L40.25 9.65L40.3 9.55L40.7 9.65L40.9 9.65L41.2 9.55L41.45 9.4L41.55 9.4L41.85 9.45M45.25,10.8L44.95 10.95L44.35 10.8L44.35 9.8L45 9.8L45.15 9.9L45.35 10.4L45.25 10.8M43.5,12.15L43.45 12.15L43.45 12.2L43.4 12.25L43.4 12.3L43.3 12.35L43.3 12.45L43.25 12.55L43.25 12.6L43.15 12.7L43.15 13.2L43.25 13.3L43.25 13.35L43.3 13.45L43.3 13.5L43.45 13.5L43.5 13.6L43.55 13.6L43.65 13.65L43.8 13.65L43.85 13.7L44.05 13.7L44.2 13.65L44.25 13.65L44.35 13.65L44.35 13.6L44.4 13.6L44.5 13.5L44.6 13.45L44.6 12.55L44.5 12.55L44.5 12.45L44.45 12.4L44.45 12.35L44.4 12.3L44.35 12.3L44.25 12.2L44.2 12.15L44.05 12.1L43.95 12.05L43.8 12.05L43.7 12.05L43.65 12.05L43.55 12.1L43.5 12.15M44.85,15.65L44.6 16.5L45 17.25L45.25 16.7Q45.25 16 44.85 15.65M47.15,19.7L47.1 19.6L47.05 19.55L46.95 19.55L46.85 19.55L46.8 19.55L46.7 19.55L46.6 19.55L46.55 19.6L46.55 19.7L46.45 19.7L46.4 19.75L46.4 19.85L46.35 19.9L46.3 19.95L46.3 20.2L46.35 20.25L46.35 20.35L46.4 20.4L46.4 20.45L46.45 20.5L46.55 20.5L46.55 20.55L46.6 20.65L46.7 20.65L46.8 20.65L46.9 20.65L46.95 20.65L47.05 20.65L47.05 20.55L47.1 20.5L47.15 20.5L47.2 20.45L47.2 20.4L47.25 20.35L47.3 20.25L47.3 20.15L47.35 20.05L47.35 20L47.3 19.95L47.3 19.9L47.25 19.85L47.25 19.75L47.2 19.7L47.15 19.7M48.65,33.85L48.75 33.85L48.85 33.85L48.9 33.85L48.9 33.9L49 33.9L49.2 34.2L49.2 34.65L49.1 34.75L49.1 34.8L49 34.8L48.9 34.9L48.9 34.95L48.85 34.95L48.75 35L48.65 34.95L48.6 34.95L48.5 34.9L48.5 34.8L48.4 34.8L48.35 34.75L48.3 34.65L48.3 34.2L48.35 34.05L48.4 34.05L48.4 34L48.45 34L48.5 33.9L48.6 33.85L48.65 33.85M43.05,40L43 40L42.95 40.05L42.9 40.1L42.9 40.15L42.85 40.15L42.85 40.35L42.8 40.35L42.8 40.5L42.85 40.6L42.9 40.65L42.9 40.8L43.05 40.8L43.1 40.9L43.15 40.95L43.4 40.95L43.45 40.9L43.5 40.8L43.65 40.8L43.65 40.65L43.7 40.6L43.7 40.5L43.75 40.45L43.75 40.4L43.7 40.35L43.7 40.15L43.65 40.15L43.65 40.1L43.55 40.05L43.55 40L43.5 40L43.45 39.95L43.4 39.85L43.15 39.85L43.1 39.95L43.05 40M43.55,43.3L43.5 43.3L43.45 43.35L43.4 43.35L43.25 43.5L43.1 43.6L43.1 43.65L43.05 43.65L43 43.7L43 43.8L42.9 43.8L42.9 43.95L42.85 43.95L42.85 44.1L42.8 44.1L42.8 44.5L42.85 44.55L42.85 44.65L42.9 44.7L42.9 44.75L42.95 44.85L43.05 44.85L43.05 44.9L43.1 45L43.15 45L43.25 45.05L43.3 45.05L43.4 45.1L43.45 45.15L43.8 45.15L43.85 45.1L43.95 45.1L44 45.05L44.05 45L44.2 44.9L44.2 44.85L44.3 44.85L44.35 44.75L44.4 44.7L44.45 44.65L44.45 44.55L44.5 44.5L44.5 44.25L44.6 44.25L44.65 44.1L44.7 44.1L44.7 43.9L44.75 43.85L44.75 43.8L44.7 43.7L44.7 43.5L44.6 43.5L44.6 43.35L44.5 43.35L44.45 43.3L44.35 43.25L44.25 43.25L43.75 43.25L43.65 43.25L43.55 43.3M45,47.6L45.1 47.55L45.1 47.5L45.15 47.45L45.25 47.45L45.4 47.45L45.4 47.35L45.6 47.35L45.7 47.45L45.8 47.45L45.9 47.45L46 47.5L46.1 47.6L46.15 47.65L46.15 48.5L46.1 48.55L46.1 48.65L46.05 48.65L46 48.7L45.9 48.7L45.8 48.8L45.75 48.8L45.4 48.8L45.3 48.8L45.25 48.7L45.15 48.7L45.1 48.65L45 48.55L45 48.4L44.95 48.35L44.95 47.8L45 47.75L45 47.6M20.55,6.8L20.65 6.9L20.65 6.95L20.7 7.05L20.75 7.05L20.8 7.1L20.8 7.55L20.75 7.55L20.75 7.65L20.7 7.7L20.65 7.7L20.65 7.8L20.55 7.8L20.45 7.85L20.35 7.9L20.25 7.9L20.25 7.85L20.2 7.85L20.1 7.8L20.05 7.8L20 7.7L19.9 7.7L19.85 7.65L19.85 7.05L19.9 7.05L19.95 6.95L20 6.9L20.05 6.9L20.1 6.8L20.2 6.8L20.25 6.8L20.35 6.8L20.45 6.8L20.55 6.8M27.1,10.3L27.1 10.35L27 10.35L26.9 10.35L26.85 10.4L26.8 10.4L26.8 10.45L26.75 10.55L26.7 10.6L26.65 10.6L26.65 11.05L26.7 11.1L26.7 11.15L26.75 11.2L26.8 11.2L26.8 11.35L26.85 11.35L26.95 11.35L27.05 11.45L27.15 11.5L27.15 11.55L27.2 11.55L27.3 11.55L27.4 11.55L27.45 11.5L27.55 11.45L27.65 11.35L27.7 11.35L27.7 11.2L27.8 11.2L27.8 10.85L27.7 10.8L27.6 10.6L27.45 10.45L27.4 10.45L27.3 10.4L27.25 10.4L27.2 10.35L27.15 10.35L27.1 10.3M10.25,11.35L10.2 11.35L10.15 11.2L10.1 11.2L10.1 11.05L10 11L10 10.95L9.95 10.95L9.85 10.9L9.8 10.85L9.75 10.85L9.7 10.8L9.5 10.8L9.4 10.8L9.35 10.75L9.25 10.75L9.1 10.75L9 10.75L9 10.8L8.85 10.8L8.85 10.9L8.8 10.95L8.75 11L8.75 11.05L8.65 11.1L8.65 11.5L8.75 11.55L8.75 11.85L8.8 11.85L8.8 12.05L8.85 12.1L8.85 12.15L8.9 12.25L9 12.3L9.05 12.3L9.2 12.35L9.2 12.45L9.3 12.45L9.35 12.55L9.45 12.55L9.55 12.6L9.8 12.6L9.85 12.55L10 12.55L10 12.45L10.1 12.4L10.1 12.35L10.15 12.3L10.2 12.3L10.2 12.25L10.25 12.25L10.25 11.35M8.05,13.5L8 13.6L8 13.65L7.9 13.7L7.9 13.9L8 13.95L8 14.05L8.05 14.1L8.05 14.2L8.1 14.25L8.25 14.25L8.25 14.35L8.5 14.35L8.55 14.25L8.65 14.25L8.75 14.2L8.8 14.1L8.85 14.05L8.85 13.6L8.8 13.5L8.75 13.5L8.65 13.45L8.65 13.35L8.55 13.3L8.25 13.3L8.15 13.35L8.1 13.45L8.05 13.5M5.8,24.7L5.7 24.7L5.7 24.75L5.65 24.8L5.55 24.9L5.55 25.05L5.45 25.1L5.45 25.35L5.55 25.35L5.55 25.55L5.65 25.6L5.65 26L5.7 26.05L5.7 26.25L5.75 26.25L5.75 26.45L5.8 26.45L5.8 26.5L5.85 26.55L5.9 26.65L5.95 26.65L6.05 26.7L6.1 26.7L6.15 26.75L6.2 26.8L6.3 26.8L6.3 26.85L6.45 26.85L6.5 26.8L6.6 26.8L6.6 26.75L6.7 26.75L6.7 26.7L6.8 26.65L6.8 26.6L6.85 26.55L6.85 26.5L6.9 26.45L6.9 25.7L6.85 25.7L6.85 25.6L6.8 25.6L6.7 25.55L6.7 25.35L6.65 25.3L6.65 25.25L6.6 25.2L6.5 25.05L6.5 24.9L6.45 24.9L6.3 24.9L6.3 24.8L6.2 24.75L6.15 24.7L5.9 24.7L5.8 24.7M8.5,46.05L8.8 46.05L8.85 46.1L8.9 46.1L8.9 46.15L9 46.2L9 46.25L9.1 46.25L9.2 46.3L9.2 46.85L9.1 46.9L9.05 46.95L9 47L8.9 47.05L8.85 47.15L8.5 47.15L8.45 47.05L8.4 47L8.3 47L8.25 46.95L8.25 46.75L8.15 46.7L8.15 46.45L8.25 46.4L8.25 46.2L8.3 46.15L8.4 46.1L8.45 46.1L8.5 46.05M11,45.55L10.95 45.6L10.9 45.65L10.85 45.7L10.8 45.8L10.8 46.15L10.85 46.2L10.85 46.25L10.9 46.25L10.95 46.3L11 46.4L11.05 46.4L11.15 46.45L11.25 46.55L11.35 46.55L11.4 46.55L11.55 46.45L11.6 46.4L11.7 46.4L11.7 46.3L11.75 46.3L11.75 46.25L11.8 46.25L11.8 46.2L11.85 46.15L11.85 46.05L11.9 46L11.9 45.95L11.85 45.85L11.85 45.8L11.8 45.7L11.75 45.65L11.75 45.6L11.7 45.6L11.7 45.55L11.6 45.5L11.55 45.45L11.45 45.4L11.25 45.4L11.15 45.4L11.15 45.45L11.05 45.5L11 45.55M18,45.1L17.8 45.2L17.7 45.2L17.65 45.3L17.6 45.3L17.5 45.4L17.5 45.45L17.4 45.5L17.35 45.55L17.3 45.6L17.25 45.6L17.2 45.65L17.15 45.7L17.15 45.95L17.1 45.95L17.1 46.05L17.05 46.1L17.05 46.6L17.1 46.6L17.1 46.7L17.15 46.75L17.15 46.85L17.2 46.9L17.25 46.95L17.3 46.95L17.35 47L17.45 47L17.5 47.05L17.55 47.05L17.6 47.15L17.75 47.15L17.8 47.05L17.9 47.05L17.95 47L18 47L18.05 46.95L18.1 46.9L18.1 46.85L18.15 46.85L18.15 46.8L18.2 46.75L18.2 46.6L18.3 46.6L18.3 45.85L18.3 45.6L18.15 45.15L18 45.1M19.1,47.45L18.95 47.45L18.9 47.5L18.9 47.6L18.8 47.6L18.8 47.75L18.75 47.75L18.75 47.95L18.8 47.95L18.8 48.2L18.9 48.2L18.9 48.25L18.95 48.3L19.1 48.35L19.2 48.35L19.3 48.4L19.35 48.4L19.4 48.35L19.5 48.35L19.75 48.15L19.75 47.6L19.6 47.45L19.5 47.45L19.45 47.35L19.1 47.35L19.1 47.45M28.05,45.55L28 45.6L27.9 45.6L27.85 45.65L27.85 45.8L27.8 45.8L27.8 46L27.7 46.05L27.7 46.1L27.6 46.1L27.55 46.2L27.45 46.2L27.45 46.25L27.4 46.25L27.4 46.3L27.3 46.4L27.3 46.55L27.25 46.6L27.25 47L27.3 47L27.3 47.15L27.4 47.3L27.4 47.35L27.45 47.45L27.55 47.45L27.6 47.5L27.7 47.55L27.8 47.6L28.05 47.6L28.1 47.55L28.2 47.55L28.2 47.5L28.3 47.5L28.35 47.45L28.45 47.35L28.45 47.3L28.5 47.3L28.5 47.15L28.55 47.15L28.55 47.05L28.6 47L28.65 47L28.65 46.95L28.7 46.9L28.75 46.85L28.75 46.7L28.8 46.6L28.8 46.55L28.85 46.3L28.65 46L28.65 45.8L28.6 45.8L28.55 45.7L28.55 45.65L28.5 45.6L28.45 45.6L28.35 45.55L28.35 45.5L28.3 45.5L28.2 45.5L28.1 45.5L28.05 45.55M29.95,47.15L29.9 47.15L29.85 47.3L29.85 47.75L29.9 47.75L29.9 47.9L29.95 47.9L30.05 47.9L30.1 47.95L30.2 47.95L30.3 48.05L30.35 47.95L30.45 47.95L30.55 47.9L30.6 47.9L30.7 47.8L30.7 47.15L30.55 47.05L30.45 47L30.1 47L30.05 47.05L29.95 47.15M35.3,48.2L35.6 48.2L36 47.9L36.15 47.45L36 47.05L35.55 47.05L35.2 47.75L35.3 48.2" />
<path style="fill:#B17846;fill-opacity:1" d="M42.3,6.35L45.55 6.35Q45.6 8.25 46.75 9.55Q47.9 10.9 49.6 10.95L49.65 10.95L49.65 41.7L49.65 41.85L49.65 42.05L49.65 42.25L49.65 42.35L49.65 42.5L49.65 42.7L49.65 46.8L49.6 46.8Q47.9 46.85 46.75 48.2Q45.65 49.4 45.6 51.1L8.4 51.1Q8.25 49.4 7.1 48.2Q5.9 46.8 4.2 46.8L4 46.8L4 10.95L4.2 10.95L5.55 10.75L7.1 9.55L7.5 9.05Q8.3 7.95 8.4 6.35L34.2 6.35L34.2 6.3L34.35 6.2L34.55 6.15L34.75 6.15L34.95 6.15L35.3 6.2L35.55 6.35L41.15 6.35L41.2 6.3L41.5 6.3L41.7 6.3L41.7 6.2L42 6.3L42.3 6.35M41.55,9.4L41.45 9.4L41.2 9.55L40.9 9.65L40.7 9.65L40.3 9.55L40.25 9.65L39.85 9.65Q39.5 9.65 39.5 9.3L39.55 9.2L39.5 9.2L39.25 9.05L39.15 8.85L39 8.7L38.9 8.55L38.85 8.4L38.85 8.25L38.85 8.1L38.85 7.95L38.9 7.8L39 7.7L36.9 7.55L36.9 7.7L36.9 7.9L36.75 8L36.7 8.2L36.55 8.3L36.35 8.45L36 8.6L34.75 8.6L34.35 8.45L34.2 8.3L34 8.2L33.95 8L33.85 7.9L33.8 7.7L33.8 7.55L33.8 7.5L33 7.45L31.85 7.4L31.85 9.8L31.65 9.8L31.5 9.8L31.1 9.75L30.9 9.65L30.75 9.4L30.7 9.25L30.7 9.15L30.6 8.9L30.6 8.8L30.6 8.65L30.7 8.45L30.7 8.3L30.8 8.2L30.9 8.05L29.4 8.1L29.25 8.3L28.35 8.9Q28 8.9 27.4 8.45L26.95 8.2L16.95 8.45L17.05 8.2L16.85 7.8L16.45 7.55Q15.95 7.55 15.55 8L15.35 8.45L9.8 8.1L8.8 9.9L7.65 11.6L7.8 12.2L7.65 13.1Q6.65 12.6 6.3 13.65L5.75 14.7L5.65 16.25L5.15 27.35L5.35 27.35L5.35 27.25L5.7 27.25L6.05 27.4L6.3 27.55L6.45 27.65L6.5 27.8L6.6 28L6.65 28.15L6.7 28.1L6.8 28.05L6.95 28.05L7.05 28.05L7.1 28.1L7.1 28.15L7.25 28.15L7.3 28.2L7.3 28.3L7.35 28.3L7.35 28.4L7.4 28.4L7.4 28.8L7.35 28.8L7.35 28.85L7.3 28.9L7.3 29L7.2 29.05L7.1 29.05L7.1 29.15L7.05 29.15L6.95 29.15L6.7 29.15L6.65 29.05L6.6 29.3L6.5 29.45L6.3 29.5L6.15 29.75L6.1 29.9L5.95 30.05L5.8 30.2L5.75 30.3L5.55 30.35L5.55 30.4L5.1 31.3L5.1 32.85L5.15 36.35L5.1 36.35L5 36.35L4.95 36.35L4.85 36.45L4.75 36.5L4.7 36.6L4.65 36.65L4.65 36.75L4.6 36.75L4.6 36.95L4.65 36.95L4.65 37.1L4.7 37.1L4.75 37.2L4.75 37.25L4.85 37.3L4.95 37.3L4.95 37.35L5 37.35L5.1 37.4L5.15 37.35L5.25 39.2L5.3 40.95L5.35 40.95L5.35 40.9L5.7 41L5.9 41.2L6.05 41.3L6.15 41.5L6.3 41.65L6.3 41.8L6.45 41.95L6.5 42.15L6.5 42.3L6.6 42.45L6.65 42.55L6.7 42.7L6.85 42.9L6.95 43.05L7.1 43.2L7.1 43.35L7.25 43.5L7.3 43.65L7.3 43.8L7.3 43.95L7.3 44.1L8.5 45.15Q10.75 47.15 11.55 47.15L12.3 46.95L12.9 46.8L13.3 47.55Q13.65 48.2 14.35 48.5L14.25 48.5L14.25 48.55L14.2 48.65L14.15 48.65L14.15 48.7L14.1 48.7L14.1 48.8L14.05 48.8L14.05 49.4L14.1 49.4L14.1 49.45L14.15 49.5L14.2 49.55L14.25 49.6L14.35 49.65L14.45 49.7L14.5 49.7L14.5 49.75L14.6 49.75L14.65 49.85L14.8 49.85L15.2 49.85L15.3 49.85L15.4 49.75L15.45 49.85L15.45 49.9L15.55 49.95L15.6 50L15.65 50.05L15.8 50.05L16.1 50.05L16.2 50.05L16.3 50L16.4 49.95L16.4 49.9L16.45 49.85L16.55 49.75L16.6 49.7L16.6 49.65L16.65 49.6L16.65 49.55L16.7 49.55L16.7 49.45L16.75 49.4L16.75 49.15L16.7 49.15L16.7 49.1L16.65 49.05L17.75 49L23.65 48.7L25.25 48.65L25.65 48.8Q27.7 49.65 29.4 49.55Q31.1 49.4 30.7 48.85L30.7 48.8Q31.25 48.4 31.85 48.25L31.85 48.95L32.25 48.95L32.3 48.8L32.4 48.7L32.45 48.65L32.55 48.5L32.7 48.35L32.8 48.2L33 48.1L33.05 48.05L33.3 48.05L33.3 47.95L33.65 48.15L33.85 48.3L34 48.4L34.05 48.55L34.2 48.7L34.2 48.9L34.2 48.95L36.6 48.95L36.9 48.8L38.4 48.7L39.55 48.95L40.2 48.95L40.15 48.9L40.15 48.7L40.15 48.55L40.15 48.4L40.15 48.3L40.15 48.15L40.15 47.95L40.25 47.75L40.3 47.65L40.3 47.5L40.4 47.35L40.45 47.15L40.6 47L40.7 46.85L40.9 46.7L41.15 46.55L41.35 46.55L41.35 46.4L41.45 46.4L41.55 46.3L41.55 46.25L41.75 46.25L41.85 46.25L41.9 46.25L41.95 46.3L42.3 46.3L42.55 46.4L42.75 46.45L43.05 46.55L43.25 46.7L43.45 46.85L43.55 47L43.7 47.15L44.2 46.6L44.25 46.6L44.95 46.6Q45.25 46.6 45.5 46.3L45.8 45.6L45.8 45.4L45.8 45.3L45.75 45.15L45.7 45L45.7 44.85L45.7 44.65L45.7 44.5L45.7 44.35L45.7 44.15L45.7 44L45.7 43.9L45.75 43.7L45.8 43.5L45.8 43.35L45.85 43.25L45.85 43.1L45.85 42.9L45.85 42.7L45.85 42.6L45.85 42.45L45.9 42.3L46 42.15L46 41.95L46.05 41.85L46.05 41.7L46.05 41.55L46.05 41.35L46.1 41.2L46.15 41.05L46.15 40.9L46.2 40.8L46.3 40.6L46.45 40.45L46.55 40.3L46.7 40.1L46.9 39.95L47.05 39.8L47.15 39.8L47.35 39.7L47.45 39.7L47.8 36.75L47.95 29.3L47.9 27.5L47.8 27.4L47.7 27.25L47.55 27.15L47.45 26.95L47.3 26.8L47.15 26.65L47 26.5L46.85 26.3L46.8 26.15L46.8 26L46.8 25.9L46.8 25.7L46.8 25.55L46.8 25.35L46.8 25.25L46.8 25.05L46.85 24.9L46.95 24.7L47.1 24.55L47.2 24.4L47.2 24.3L47.35 24.15L47.45 23.95L47.65 23.8L48.05 23.8L48.05 23.65L48.2 23.65L48.1 22.9L48.25 22.9L48.4 22.9L48.5 22.9L48.55 22.9L48.55 22.8L48.65 22.8L48.7 22.75L48.75 22.65L48.75 22.6L48.8 22.6L48.85 22.5L48.85 21.7L48.8 21.7L48.8 21.65L48.75 21.6L48.65 21.45L48.65 21.4L48.55 21.3L48.5 21.25L48.45 21.1L48.35 21.1L48.25 20.95L48.1 20.95L48 20.9L48 19.3L47.95 19.3L47.95 19L47.9 18.95L47.9 18.85L47.85 18.8L47.85 18.7L47.8 18.65L47.8 18.45L47.7 18.35L47.7 17.3L47.65 17.3L47.65 16.5L47.6 16.4L47.55 16.35L47.55 15.85L47.5 15.8L47.5 15.6L47.45 15.5L47.45 15.2L47.4 15.15L47.35 15L47.4 15L47.25 13.05Q45.6 12.7 44.7 12.05Q43.3 11.2 42.7 9.8L42.55 9.65L42.2 9.65L41.85 9.45L41.55 9.4M45.35,10.4L45.15 9.9L45 9.8L44.35 9.8L44.35 10.8L44.95 10.95L45.25 10.8L45.35 10.4M43.55,12.1L43.65 12.05L43.7 12.05L43.8 12.05L43.95 12.05L44.05 12.1L44.2 12.15L44.25 12.2L44.35 12.3L44.4 12.3L44.45 12.35L44.45 12.4L44.5 12.45L44.5 12.55L44.6 12.55L44.6 13.45L44.5 13.5L44.4 13.6L44.35 13.6L44.35 13.65L44.25 13.65L44.2 13.65L44.05 13.7L43.85 13.7L43.8 13.65L43.65 13.65L43.55 13.6L43.5 13.6L43.45 13.5L43.3 13.5L43.3 13.45L43.25 13.35L43.25 13.3L43.15 13.2L43.15 12.7L43.25 12.6L43.25 12.55L43.3 12.45L43.3 12.35L43.4 12.3L43.4 12.25L43.45 12.2L43.45 12.15L43.5 12.15L43.55 12.1M45.25,16.7L45 17.25L44.6 16.5L44.85 15.65Q45.25 16 45.25 16.7M47.2,19.7L47.25 19.75L47.25 19.85L47.3 19.9L47.3 19.95L47.35 20L47.35 20.05L47.3 20.15L47.3 20.25L47.25 20.35L47.2 20.4L47.2 20.45L47.15 20.5L47.1 20.5L47.05 20.55L47.05 20.65L46.95 20.65L46.9 20.65L46.8 20.65L46.7 20.65L46.6 20.65L46.55 20.55L46.55 20.5L46.45 20.5L46.4 20.45L46.4 20.4L46.35 20.35L46.35 20.25L46.3 20.2L46.3 19.95L46.35 19.9L46.4 19.85L46.4 19.75L46.45 19.7L46.55 19.7L46.55 19.6L46.6 19.55L46.7 19.55L46.8 19.55L46.85 19.55L46.95 19.55L47.05 19.55L47.1 19.6L47.15 19.7L47.2 19.7M48.6,33.85L48.5 33.9L48.45 34L48.4 34L48.4 34.05L48.35 34.05L48.3 34.2L48.3 34.65L48.35 34.75L48.4 34.8L48.5 34.8L48.5 34.9L48.6 34.95L48.65 34.95L48.75 35L48.85 34.95L48.9 34.95L48.9 34.9L49 34.8L49.1 34.8L49.1 34.75L49.2 34.65L49.2 34.2L49 33.9L48.9 33.9L48.9 33.85L48.85 33.85L48.75 33.85L48.65 33.85L48.6 33.85M43.1,39.95L43.15 39.85L43.4 39.85L43.45 39.95L43.5 40L43.55 40L43.55 40.05L43.65 40.1L43.65 40.15L43.7 40.15L43.7 40.35L43.75 40.4L43.75 40.45L43.7 40.5L43.7 40.6L43.65 40.65L43.65 40.8L43.5 40.8L43.45 40.9L43.4 40.95L43.15 40.95L43.1 40.9L43.05 40.8L42.9 40.8L42.9 40.65L42.85 40.6L42.8 40.5L42.8 40.35L42.85 40.35L42.85 40.15L42.9 40.15L42.9 40.1L42.95 40.05L43 40L43.05 40L43.1 39.95M43.65,43.25L43.75 43.25L44.25 43.25L44.35 43.25L44.45 43.3L44.5 43.35L44.6 43.35L44.6 43.5L44.7 43.5L44.7 43.7L44.75 43.8L44.75 43.85L44.7 43.9L44.7 44.1L44.65 44.1L44.6 44.25L44.5 44.25L44.5 44.5L44.45 44.55L44.45 44.65L44.4 44.7L44.35 44.75L44.3 44.85L44.2 44.85L44.2 44.9L44.05 45L44 45.05L43.95 45.1L43.85 45.1L43.8 45.15L43.45 45.15L43.4 45.1L43.3 45.05L43.25 45.05L43.15 45L43.1 45L43.05 44.9L43.05 44.85L42.95 44.85L42.9 44.75L42.9 44.7L42.85 44.65L42.85 44.55L42.8 44.5L42.8 44.1L42.85 44.1L42.85 43.95L42.9 43.95L42.9 43.8L43 43.8L43 43.7L43.05 43.65L43.1 43.65L43.1 43.6L43.25 43.5L43.4 43.35L43.45 43.35L43.5 43.3L43.55 43.3L43.65 43.25M45,47.75L44.95 47.8L44.95 48.35L45 48.4L45 48.55L45.1 48.65L45.15 48.7L45.25 48.7L45.3 48.8L45.4 48.8L45.75 48.8L45.8 48.8L45.9 48.7L46 48.7L46.05 48.65L46.1 48.65L46.1 48.55L46.15 48.5L46.15 47.65L46.1 47.6L46 47.5L45.9 47.45L45.8 47.45L45.7 47.45L45.6 47.35L45.4 47.35L45.4 47.45L45.25 47.45L45.15 47.45L45.1 47.5L45.1 47.55L45 47.6L45 47.75M20.45,6.8L20.35 6.8L20.25 6.8L20.2 6.8L20.1 6.8L20.05 6.9L20 6.9L19.95 6.95L19.9 7.05L19.85 7.05L19.85 7.65L19.9 7.7L20 7.7L20.05 7.8L20.1 7.8L20.2 7.85L20.25 7.85L20.25 7.9L20.35 7.9L20.45 7.85L20.55 7.8L20.65 7.8L20.65 7.7L20.7 7.7L20.75 7.65L20.75 7.55L20.8 7.55L20.8 7.1L20.75 7.05L20.7 7.05L20.65 6.95L20.65 6.9L20.55 6.8L20.45 6.8M27.15,10.35L27.2 10.35L27.25 10.4L27.3 10.4L27.4 10.45L27.45 10.45L27.6 10.6L27.7 10.8L27.8 10.85L27.8 11.2L27.7 11.2L27.7 11.35L27.65 11.35L27.55 11.45L27.45 11.5L27.4 11.55L27.3 11.55L27.2 11.55L27.15 11.55L27.15 11.5L27.05 11.45L26.95 11.35L26.85 11.35L26.8 11.35L26.8 11.2L26.75 11.2L26.7 11.15L26.7 11.1L26.65 11.05L26.65 10.6L26.7 10.6L26.75 10.55L26.8 10.45L26.8 10.4L26.85 10.4L26.9 10.35L27 10.35L27.1 10.35L27.1 10.3L27.15 10.35M10.25,12.25L10.2 12.25L10.2 12.3L10.15 12.3L10.1 12.35L10.1 12.4L10 12.45L10 12.55L9.85 12.55L9.8 12.6L9.55 12.6L9.45 12.55L9.35 12.55L9.3 12.45L9.2 12.45L9.2 12.35L9.05 12.3L9 12.3L8.9 12.25L8.85 12.15L8.85 12.1L8.8 12.05L8.8 11.85L8.75 11.85L8.75 11.55L8.65 11.5L8.65 11.1L8.75 11.05L8.75 11L8.8 10.95L8.85 10.9L8.85 10.8L9 10.8L9 10.75L9.1 10.75L9.25 10.75L9.35 10.75L9.4 10.8L9.5 10.8L9.7 10.8L9.75 10.85L9.8 10.85L9.85 10.9L9.95 10.95L10 10.95L10 11L10.1 11.05L10.1 11.2L10.15 11.2L10.2 11.35L10.25 11.35L10.25 12.25M8.1,13.45L8.15 13.35L8.25 13.3L8.55 13.3L8.65 13.35L8.65 13.45L8.75 13.5L8.8 13.5L8.85 13.6L8.85 14.05L8.8 14.1L8.75 14.2L8.65 14.25L8.55 14.25L8.5 14.35L8.25 14.35L8.25 14.25L8.1 14.25L8.05 14.2L8.05 14.1L8 14.05L8 13.95L7.9 13.9L7.9 13.7L8 13.65L8 13.6L8.05 13.5L8.1 13.45M5.9,24.7L6.15 24.7L6.2 24.75L6.3 24.8L6.3 24.9L6.45 24.9L6.5 24.9L6.5 25.05L6.6 25.2L6.65 25.25L6.65 25.3L6.7 25.35L6.7 25.55L6.8 25.6L6.85 25.6L6.85 25.7L6.9 25.7L6.9 26.45L6.85 26.5L6.85 26.55L6.8 26.6L6.8 26.65L6.7 26.7L6.7 26.75L6.6 26.75L6.6 26.8L6.5 26.8L6.45 26.85L6.3 26.85L6.3 26.8L6.2 26.8L6.15 26.75L6.1 26.7L6.05 26.7L5.95 26.65L5.9 26.65L5.85 26.55L5.8 26.5L5.8 26.45L5.75 26.45L5.75 26.25L5.7 26.25L5.7 26.05L5.65 26L5.65 25.6L5.55 25.55L5.55 25.35L5.45 25.35L5.45 25.1L5.55 25.05L5.55 24.9L5.65 24.8L5.7 24.75L5.7 24.7L5.8 24.7L5.9 24.7M8.45,46.1L8.4 46.1L8.3 46.15L8.25 46.2L8.25 46.4L8.15 46.45L8.15 46.7L8.25 46.75L8.25 46.95L8.3 47L8.4 47L8.45 47.05L8.5 47.15L8.85 47.15L8.9 47.05L9 47L9.05 46.95L9.1 46.9L9.2 46.85L9.2 46.3L9.1 46.25L9 46.25L9 46.2L8.9 46.15L8.9 46.1L8.85 46.1L8.8 46.05L8.5 46.05L8.45 46.1M11.05,45.5L11.15 45.45L11.15 45.4L11.25 45.4L11.45 45.4L11.55 45.45L11.6 45.5L11.7 45.55L11.7 45.6L11.75 45.6L11.75 45.65L11.8 45.7L11.85 45.8L11.85 45.85L11.9 45.95L11.9 46L11.85 46.05L11.85 46.15L11.8 46.2L11.8 46.25L11.75 46.25L11.75 46.3L11.7 46.3L11.7 46.4L11.6 46.4L11.55 46.45L11.4 46.55L11.35 46.55L11.25 46.55L11.15 46.45L11.05 46.4L11 46.4L10.95 46.3L10.9 46.25L10.85 46.25L10.85 46.2L10.8 46.15L10.8 45.8L10.85 45.7L10.9 45.65L10.95 45.6L11 45.55L11.05 45.5M18.15,45.15L18.3 45.6L18.3 45.85L18.3 46.6L18.2 46.6L18.2 46.75L18.15 46.8L18.15 46.85L18.1 46.85L18.1 46.9L18.05 46.95L18 47L17.95 47L17.9 47.05L17.8 47.05L17.75 47.15L17.6 47.15L17.55 47.05L17.5 47.05L17.45 47L17.35 47L17.3 46.95L17.25 46.95L17.2 46.9L17.15 46.85L17.15 46.75L17.1 46.7L17.1 46.6L17.05 46.6L17.05 46.1L17.1 46.05L17.1 45.95L17.15 45.95L17.15 45.7L17.2 45.65L17.25 45.6L17.3 45.6L17.35 45.55L17.4 45.5L17.5 45.45L17.5 45.4L17.6 45.3L17.65 45.3L17.7 45.2L17.8 45.2L18 45.1L18.15 45.15M19.1,47.35L19.45 47.35L19.5 47.45L19.6 47.45L19.75 47.6L19.75 48.15L19.5 48.35L19.4 48.35L19.35 48.4L19.3 48.4L19.2 48.35L19.1 48.35L18.95 48.3L18.9 48.25L18.9 48.2L18.8 48.2L18.8 47.95L18.75 47.95L18.75 47.75L18.8 47.75L18.8 47.6L18.9 47.6L18.9 47.5L18.95 47.45L19.1 47.45L19.1 47.35M28.1,45.5L28.2 45.5L28.3 45.5L28.35 45.5L28.35 45.55L28.45 45.6L28.5 45.6L28.55 45.65L28.55 45.7L28.6 45.8L28.65 45.8L28.65 46L28.85 46.3L28.8 46.55L28.8 46.6L28.75 46.7L28.75 46.85L28.7 46.9L28.65 46.95L28.65 47L28.6 47L28.55 47.05L28.55 47.15L28.5 47.15L28.5 47.3L28.45 47.3L28.45 47.35L28.35 47.45L28.3 47.5L28.2 47.5L28.2 47.55L28.1 47.55L28.05 47.6L27.8 47.6L27.7 47.55L27.6 47.5L27.55 47.45L27.45 47.45L27.4 47.35L27.4 47.3L27.3 47.15L27.3 47L27.25 47L27.25 46.6L27.3 46.55L27.3 46.4L27.4 46.3L27.4 46.25L27.45 46.25L27.45 46.2L27.55 46.2L27.6 46.1L27.7 46.1L27.7 46.05L27.8 46L27.8 45.8L27.85 45.8L27.85 45.65L27.9 45.6L28 45.6L28.05 45.55L28.1 45.5M30.05,47.05L30.1 47L30.45 47L30.55 47.05L30.7 47.15L30.7 47.8L30.6 47.9L30.55 47.9L30.45 47.95L30.35 47.95L30.3 48.05L30.2 47.95L30.1 47.95L30.05 47.9L29.95 47.9L29.9 47.9L29.9 47.75L29.85 47.75L29.85 47.3L29.9 47.15L29.95 47.15L30.05 47.05M35.2,47.75L35.55 47.05L36 47.05L36.15 47.45L36 47.9L35.6 48.2L35.3 48.2L35.2 47.75" />
<path style="fill:#69482E;fill-opacity:1" d="M42,6.3L41.7 6.2L41.7 6.3L41.5 6.3L41.2 6.3L41.15 6.35L35.55 6.35L35.3 6.2L34.95 6.15L34.75 6.15L34.55 6.15L34.35 6.2L34.2 6.3L34.2 6.35L8.4 6.35Q8.3 7.95 7.5 9.05L7.1 9.55L5.55 10.75L4.2 10.95L4 10.95L4 46.8L4.2 46.8Q5.9 46.8 7.1 48.2Q8.25 49.4 8.4 51.1L45.6 51.1Q45.65 49.4 46.75 48.2Q47.9 46.85 49.6 46.8L49.65 46.8L49.65 42.7L49.65 42.5L49.65 42.35L49.65 42.25L49.65 42.05L49.65 41.85L49.65 41.7L49.65 10.95L49.6 10.95Q47.9 10.9 46.75 9.55Q45.6 8.25 45.55 6.35L42.3 6.35L42 6.3M48.65,7.2Q49.9 8.65 51.6 8.7L51.6 49Q49.9 49.1 48.65 50.55Q48.1 51.25 47.8 52.05Q47.5 52.9 47.45 53.85L6.45 53.85Q6.3 51.95 5.15 50.55Q3.8 49 2.05 49L1.85 49L1.85 8.7L2.05 8.7L2.95 8.65Q4.2 8.3 5.15 7.2L5.55 6.65Q6.35 5.3 6.45 3.55L47.45 3.55Q47.45 5.7 48.65 7.2" />
<radialGradient
id="RadialGradID_523" gradientUnits="userSpaceOnUse" gradientTransform="matrix(0.0339203, 0, 0, 0.0242462, 25.25, 27.85)" spreadMethod ="pad" cx="0" cy="0" r="819.2" fx="0" fy="0" >
<stop  offset="0"  style="stop-color:#FFFFFF;stop-opacity:0.8" />
<stop  offset="1"  style="stop-color:#FFFFFF;stop-opacity:0" />
</radialGradient>
<path style="fill:url(#RadialGradID_523) " d="M55.75,12.15L36.05 27.75L55.75 42.6L44.5 48.35L31.95 33.4L34.75 49.8L19.7 50L21.45 33.55L13.1 49.8L0.95 43.95L9.15 35.95L17.8 27.3L16.2 25.6L0.95 10.85L13.1 4.95Q19.1 15.65 22.15 23.55L19.7 4.75L34.75 4.95L32.2 23.05L44.5 6.45L55.75 12.15M19.05,28.4L19 28.35L18.95 28.4L19.05 28.4M33.75,26.45L33.95 26.85L34.35 26.75L33.75 26.45M32.8,28.9L32.95 28.55L32.85 28.55L32.8 28.9M32.6,29.2L32.65 29.1L32.65 28.8L32.6 29.2M22.05,27.55L22.15 27.55L22.3 27.5L22.05 27.55M22.65,27.25L22.7 27.25L22.65 27.05L22.8 26.75L22.6 27.05L22.6 27.1L22.65 27.25M22.7,27.45L22.85 27.4L22.75 27.4L22.7 27.45" />
<radialGradient
id="RadialGradID_524" gradientUnits="userSpaceOnUse" gradientTransform="matrix(0.0339203, 0, 0, -0.0242462, 25.25, 26.95)" spreadMethod ="pad" cx="0" cy="0" r="819.2" fx="0" fy="0" >
<stop  offset="0"  style="stop-color:#FFFFFF;stop-opacity:0.8" />
<stop  offset="1"  style="stop-color:#FFFFFF;stop-opacity:0" />
</radialGradient>
<path style="fill:url(#RadialGradID_524) " d="M34.35,26.75L33.95 26.85L33.75 26.45L34.35 26.75" />
</g>
</svg>
