<?xml version="1.0" encoding="utf-8"?>
<svg version="1.1" id="Layer_1"
xmlns="http://www.w3.org/2000/svg"
xmlns:xlink="http://www.w3.org/1999/xlink"
xmlns:author="http://www.sothink.com"
width="68px" height="492px"
xml:space="preserve">
<g id="2733" transform="matrix(1, 0, 0, 1, 19.5, 387.55)">
<path style="fill:#FFFFFF;fill-opacity:1" d="M25.5,-348.2L25 -342.85Q24.5 -339.1 24.5 -337.5Q24.5 -329.25 25.75 -317.1L27 -303.5Q27 -299.35 26.15 -298.55L24.25 -296.7Q22.45 -292.95 21.85 -276.8L21.55 -263.05Q20.6 -258.65 19.7 -251.7Q18 -238.9 18 -235.45Q18 -233.45 19.5 -223.3Q21 -213.15 21 -203.4Q22.4 -204.6 27.1 -199.65Q32 -194.45 32 -190.05L31.75 -185.1L31.5 -180.7L31.5 -178.05Q30.75 -179.5 28.7 -181.5L27.35 -182.7L24.5 -172.05L29.5 -150.05L29.2 -143.75L29.05 -141.2L31.5 -138Q29.3 -126.15 27.85 -120.65Q27.5 -118.8 27.5 -106.65Q27.5 -103.3 28.5 -100.65L28 -100.65L24.5 -106Q24 -102 24 -93.3Q24 -83.3 26.5 -79.7Q29 -76.1 29 -71.95L28.5 -63.15L28 -49.95Q27.75 -49.95 27.5 -50.6Q27.25 -51.3 27 -51.3Q27 -50.35 27.75 -46.5L28.5 -41.25L27 -29.95Q27 -20.3 29.3 -11.4Q32 -0.95 36.15 -2.7L34.8 -1.35Q33.45 0.5 33.05 4.5Q32.1 3.95 30.85 2.5Q29 0.5 28.5 0.75Q28.15 1.7 28.05 2.65L28 6.1L30.45 23.7L34.5 55.5L34.5 57.35Q36.45 58.55 37.5 62.7Q40.15 73.2 42.5 78.15L45.25 78.15Q44.65 81.35 44.3 87.35L44 95.5Q42.8 92.3 39.15 78.05Q36.8 68.8 34.75 68.8Q33.75 68.8 32.8 72.7L30.5 80.85Q34.25 85.75 35.55 89.1Q36.8 92.3 37.5 98.2Q36.45 92.05 31.5 91.75L26 92.85L28.9 96.2Q30.55 98.2 31.35 98.2Q26.15 98.2 21.8 100.85Q17.5 103.5 16.75 103.5Q15.75 103.5 13.3 98.2Q10.8 92.85 9.5 92.85Q8.4 93.25 7 94.3L5 96.05L1 80.85L1 87.5Q0.7 87.5 -1.8 89.5Q-4.3 91.5 -5 91.5Q-5.9 91.5 -10.25 78.45Q-9.2 80.05 -7.7 80.3Q-5.75 80.7 -2 79.5Q-2 75.5 -1.5 72.8L1 72.8Q3.25 77.9 5.5 76.85L5.65 69.75Q5.75 64.3 6.5 62.15Q5.55 62.8 3.15 57.1L3.05 56.8L-1 56.8Q-1 54.15 -3.05 40.65Q-5.05 27.3 -5 22.25Q-3.2 27.3 -1.3 34.95Q-0.2 39.45 1.25 39.45Q1.65 39.45 3 35.45L5.6 40.95L8.5 47.45Q9.25 45.45 10.45 36.15L11.5 26.8Q11.5 25.05 8.6 14.4L7.1 8.5L5.85 7.45Q2.55 4.75 2 4.75Q0.4 4.75 -0.85 6.25Q0.55 2.35 0.9 -3.25L1 -32.6L5 -32.6L7.7 -26.75L9.05 -23.1Q9.2 -36.45 10 -47.7Q11 -61.95 11 -64.6L9.45 -85.3Q7.95 -104.9 8 -110Q8.2 -128.8 7.05 -142.55L6.25 -150.05Q6.95 -155.9 6.75 -162.85Q6 -173.9 6 -176.7L9.5 -176.7Q10 -175.4 12 -175.4L12 -179.4Q12 -203.8 10.8 -211.55Q8.45 -226.35 6.1 -264.9Q5.1 -262.4 3.7 -256.65Q2.2 -250.8 1.55 -245.85Q1.65 -227.3 2 -215.4L2 -214.1Q0.45 -222.1 -2.95 -258.25L-4.6 -276.8Q-6.5 -298.8 -6.5 -306.85Q-6 -326.15 -6 -331.5Q-4.1 -312.55 -1.05 -304.8L-0.3 -306.7Q0.4 -308.15 2 -308.85Q3.35 -305.2 3.55 -299.35Q3.7 -295.5 5.25 -295.5Q6.8 -295.5 8 -302.15Q9 -307.75 9 -312.15Q9 -318.7 7.9 -321.9Q6.8 -325.25 5 -323.5L4.5 -324.85Q5.3 -324.85 6.7 -325.5L8.75 -326.15Q10.8 -326.15 11.4 -325.1L12.7 -321.1L13.5 -318.15L14.75 -314.15L15.05 -313.25L15.4 -313.75Q17.95 -316.55 19 -316.85L19.5 -316.85L16.85 -329.5Q15 -338.45 15 -341.5Q15 -345.65 16.25 -349.65Q17.5 -353.65 17.5 -355.55L13.7 -373.3Q12.25 -380.2 11.45 -385L13.25 -387.55Q16.8 -387.55 21.5 -368.1Q23.85 -358.2 25.5 -348.2M6.5,-266.1L6 -266.1L6.1 -264.9L6.5 -266.1M0,-140.7L-0.5 -136.7Q-0.25 -138.95 -0.7 -143.5Q-1.15 -148.45 -2 -150.05L-2 -151.35L0.5 -151.35L0.5 -144.7L0 -140.7M35,-95.3Q35.45 -92 36.3 -88.25L37 -84.65Q37 -81.55 36.2 -78.1Q35.5 -75.45 34 -71.3Q33.85 -82.35 33.2 -89.3L33.8 -90.8L35 -95.3M38.3,-19Q39.15 -20.05 39.5 -21.9Q39.5 -16.85 40.4 -7.1L38.8 -4.45Q37.45 -1.9 37 -0.55Q37.55 -3.25 38.1 -8.7L38.5 -13.9L38.3 -19M46.95,7.3Q48.05 9.95 48 12.75L45.75 17.3Q44 21.2 43.5 23.45L43 23.45L44.3 14.25Q45.15 7.95 45.15 3.95L45.45 4.1L46.2 4.65Q46.4 5.95 46.95 7.3M45.5,47.45L44.2 51.75Q43.6 54.55 43.75 57.2Q43.15 55.35 41.45 52L40.6 50.25Q43.2 47.45 44.25 47.45L45.5 47.45M-5.5,-204.2L-6 -206.75L-7.5 -214.1Q-6.6 -214.35 -6.15 -216.1Q-4.7 -213.3 -4 -211.4Q-5.2 -208.75 -5.5 -204.2M-7.2,-26.6Q-5.85 -25.4 -5.5 -24.6L-5.75 -18.6L-5.95 -14.85Q-8.3 -20.7 -9.5 -24.6L-8.15 -27.4L-7.2 -26.6M-18,38.65L-15.8 53.35Q-16.3 51.35 -17.15 48.8Q-18.85 43.6 -19.5 42.15L-18 38.65" />
</g>
</svg>
