<?xml version="1.0" encoding="utf-8"?>
<svg version="1.1" id="Layer_1"
xmlns="http://www.w3.org/2000/svg"
xmlns:xlink="http://www.w3.org/1999/xlink"
xmlns:author="http://www.sothink.com"
width="14px" height="17px"
xml:space="preserve">
<g id="1670" transform="matrix(1, 0, 0, 1, -36.05, 3.9)">
<path style="fill:#FFFFFF;fill-opacity:1" d="M42.15,-3.8L42.8 -3.9L43 -3.9L43.05 -3.85L43.25 -3.8L44.6 -3L46.55 -1.1L46.8 -0.85L47.1 -0.55L47.35 -0.25L49.8 2.45L49.15 2L49.65 2.75L49.5 2.8L47.6 0.75L43.35 -2.55Q42.65 -2.65 42.4 -2.35Q41.4 -1.45 40.45 -0.9L37.95 0.85Q37.6 1.25 37.05 1.5L37.5 2.25L38.4 3.15L39 4.55L39.1 4.4L41.2 2Q41.9 1.25 42.6 1.7Q45.3 3 48.2 3.4L49.55 4L49.3 4.1L49.9 5.05Q50.2 5.95 49.35 7.65Q48.9 9.6 46.05 10.5L43.9 11.9L42.85 12.2Q42.3 12.45 42.25 11.65Q42.75 10.15 43.55 9.15L43.45 9.1L43.5 9.05L43.7 8.9L43.9 8.7L43.9 8.8Q44.75 8.25 45.8 7.9L45.45 8.3L44.05 9.25L43.1 11.45L43.75 11.45Q45.25 10.05 47.35 9.2L48.7 7.35Q48.95 5.65 48.7 4.7L42 2.3L38.95 6Q38.45 6.5 38.3 6.3L38.2 5.1Q38.2 4.05 37.55 3.45Q37.05 3.25 36.85 2.65L36.6 2.15Q36.25 1.85 36.25 1.45Q36.2 1.15 36.45 0.8L36.1 0.8L36.05 0.75L38.1 -0.4Q39.2 -0.75 40.5 -2.05L42.15 -3.8M47.2,9.7L46.9 9.85L47.2 9.75L47.2 9.7" />
</g>
</svg>
