<?xml version="1.0" encoding="utf-8"?>
<svg version="1.1" id="Layer_1"
xmlns="http://www.w3.org/2000/svg"
xmlns:xlink="http://www.w3.org/1999/xlink"
xmlns:author="http://www.sothink.com"
width="44px" height="109px"
xml:space="preserve">
<g id="1595" transform="matrix(1, 0, 0, 1, 23.35, 19)">
<path style="fill:#FFFFFF;fill-opacity:1" d="M15.25,-18.3L16.4 -17.65L17 -17.55Q17.75 -17.4 18.15 -16.95L19 -16.45L19.65 -15.8L19.85 -15.5Q20.65 -14.3 20.45 -11.15L18.6 -13.5Q18.2 -13.4 17.65 -11.45L16.65 -9.4Q16.4 -11 15.7 -11.3L15 -11.8L14.25 -11.85L13.75 -8.5Q13.4 -6.45 12.95 -5.8L12.7 -6Q12.35 -7.75 11.15 -8.4Q10.9 -7 7.55 -1.75L8.5 -2.6Q7.5 -0.15 7.4 1.35L7.05 1.15Q6.95 3.15 7.1 3.6Q7.3 3.2 7.55 3.35Q7.65 3.2 7.65 3.35L4.7 8.7Q5.15 8.35 7.75 7.1L9.7 6.95Q6.4 8.5 5.25 10.95L4.6 11.85L4.45 11.65L2.6 13.4L0 14.7Q-4.45 12.15 -16.65 21.15Q-9.05 25.95 -8 27.6Q-7 29.05 -6.55 34L-6.9 33L-7.25 32.1Q-8.1 30.15 -8.55 30.1L-12.3 38.55Q-14.25 42.85 -11.15 44.5Q-9.6 45.2 -8.7 45.95L-8.35 47L-7.4 51.9L-8.25 52.75Q-11.25 55.75 -8.8 65.15Q-6.4 74.55 -5.75 75.65L0.95 85.2L-6.3 79.2L-11.8 79.6Q-11.25 79.15 -9.45 78.6L-11.4 74.95Q-11 75.65 -9.65 75.9L-9 76.05L-8.15 76.15Q-7.95 75.6 -9.05 71.85Q-10.15 68.1 -11.15 66.7Q-12.15 65.25 -12.4 63.7L-12.55 60.45L-12.05 56Q-11.75 53.25 -10.35 51.7Q-8.95 50.15 -13.85 46.1Q-15.8 44.45 -17.15 44.45Q-15.05 41.75 -13.55 38.5Q-12.05 35.2 -11.5 31.75Q-11.05 28.3 -14.05 28.3Q-14.95 24.75 -15.8 24.6L-17.35 24L-21.95 27.05Q-21.5 21.25 -17.2 18.65Q-12.95 16 -7.75 13.55L-0.8 10.3L1.4 9.25L1.5 8.6L2.05 9.1L3.8 4.95Q4.5 2.95 4.5 0.75L3.4 1.85Q2.4 2.45 2.3 2.9L1.95 2.7L4.55 -0.65L6.1 -4.55L5.8 -5.15L8.1 -7.95Q7.65 -7.85 7.4 -7.55L5.9 -6.3L5.65 -6.5Q8.4 -10.15 11.4 -12.9L9.35 -12.75L6.1 -12.4Q7.05 -13.5 8.85 -14.2L11.1 -15.4L8.7 -16.1L6.4 -16.9Q12.15 -19.35 13 -18.95L15.25 -18.3M2.5,-16.1L0.5 -14.9L-0.3 -16.4L2.9 -16.45L2.5 -16.1M1.15,-5.5L1.35 -3.9L1.35 -3.75L1.6 -3.55L1.2 -3.15L0.85 -2.5L0.8 -2.4L0.3 -2.7L-1.9 -3Q-1.5 -3.45 0.3 -4.7L0.45 -4.6L1.15 -5.5M13.3,-0.45L12.45 1L13.8 2.25L13.05 4.55L12.85 4.45Q12.15 3.15 11.9 1.95L11.35 2.95L10.7 4L9.4 1.6Q9.75 0.7 10.35 -0.05L10.35 0.3L10.5 1.65L11.8 0.45L11.8 0.4L11.8 0.45L13.05 -0.75L13.3 -0.45M18.7,-2.05Q17.75 0.2 16.05 1.6Q16.55 0.75 16.85 -0.7Q17.3 -2.3 17.05 -3L16.3 -2.25L16.35 -2.35L16.2 -2.6Q16.45 -4.3 17.05 -5.35L18.25 -4.05L19.35 -5.05Q19.45 -3.8 18.7 -2.05M11.95,6L11.85 6.15L11.8 5.85L11.95 6M2.85,61.6Q3.15 62.1 3.1 62.7L1.25 60.85L-0.15 58.95L-1.25 55.1Q-1.35 54.05 -1.6 53.3Q-3 52.2 -3.6 49.35L-0.05 51.6L0.25 53.85Q1 57.15 2.85 61.6M-3.25,-13.45L-2 -12.25L-3.2 -10.55Q-3.1 -11 -3.95 -11.45Q-4.25 -10.8 -6.75 -8.85L-8.35 -7.6L-8.75 -7.85L-7 -10.25L-8.05 -9.85L-7.7 -10.3L-6.6 -10.9L-6.05 -11.95L-5.6 -12.85L-3.25 -13.45M-2.1,0.65L-2.4 0Q-2.1 0.1 -1.85 0.35L-2.1 0.65M-9.35,5.4Q-13.9 7.85 -15.7 8.2L-12.15 3.35L-10.95 1.75L-10.95 3.15Q-10.8 4.4 -10.45 4.85L-8.45 3.25L-8.3 3.15Q-6.7 2.05 -5.55 2.1L-5.05 2.6L-5.1 2.7L-7.4 4.2L-9.35 5.4M-20.3,30.65Q-21.05 32.1 -21.8 34.45Q-23.45 39.65 -23.35 38.4L-23.1 37.95L-22.5 34.8Q-22.15 32.1 -22.4 31.4Q-21.6 31.3 -20.3 30.65M-6.45,35L-6.55 35.1L-6.5 34.7L-6.45 35M-2.95,38.7Q-2.7 35.25 -2.15 33.6Q-1.45 39.45 -1.5 40.95Q-1.7 42.1 -2.3 42.85Q-3.2 39.4 -2.95 38.7M-7.05,87.2L-7.35 86.25L-5.55 86.95Q-5.95 89.45 -6.4 89.8Q-7.35 90.45 -10.25 86.7L-8.9 87.1L-7.05 87.2" />
</g>
</svg>
