<?xml version="1.0" encoding="utf-8"?>
<svg version="1.1" id="Layer_1"
xmlns="http://www.w3.org/2000/svg"
xmlns:xlink="http://www.w3.org/1999/xlink"
xmlns:author="http://www.sothink.com"
width="115px" height="162px"
xml:space="preserve">
<g id="2468" transform="matrix(1, 0, 0, 1, -0.5, 157.7)">
<linearGradient
id="LinearGradID_2462" gradientUnits="userSpaceOnUse" gradientTransform="matrix(0.00779724, 0.0534058, -0.0563202, 0.00823975, 63.15, -75.3)" spreadMethod ="pad" x1="-819.2" y1="0" x2="819.2" y2="0" >
<stop  offset="0" style="stop-color:#F8F8F8;stop-opacity:0.2" />
<stop  offset="1" style="stop-color:#FFFFFF;stop-opacity:0.701961" />
</linearGradient>
<path style="fill:url(#LinearGradID_2462) " d="M23.65,-157.7Q38.6 -151.75 52.3 -143Q89.55 -117.3 105.45 -80.7L109.95 -68.45Q114.2 -53.8 114.95 -40.9Q114.8 -39.7 115.1 -38.1L114.8 -31.95Q113.6 -28.6 110.1 -26.3Q106.6 -24.1 105.3 -24.25L110.05 -18.1L104.95 -6.45L97.45 -5.8L93.3 -1.4L84.75 0.45L78.8 -0.8L75.35 -4.25L72.8 -3.6L68.1 0.2Q62.7 3.95 59.55 3.95Q56.4 3.95 52.5 2.7L49.15 1.45L46.3 -2L41.9 -3.9Q40.2 -6.85 36.55 -10.3L33.3 -13Q28.85 -16.3 23.75 -18L23.65 -18.55L23.55 -18.75Q23.05 -27.5 21.85 -35.6L20.75 -40.95Q19.25 -47.55 17.25 -53.7Q16.15 -56.4 15.55 -58.55Q6.2 -82.1 0.5 -88.15L6.2 -83.85Q12.6 -78.3 17.7 -71.85Q23.85 -63.75 27.1 -55.65L27.1 -57.55Q26.7 -60.1 25.35 -64.65L21.9 -74.15Q15.65 -90.5 11.1 -96.4Q13.1 -96.05 15.4 -94.65Q19.7 -92.6 23.95 -89.35L30.65 -83.6L32.25 -81.7Q32.9 -87.75 29.65 -95.65Q28.95 -97.45 28.25 -98.5Q23.25 -109.2 19.25 -113.65Q25.9 -110.85 32.1 -104.8L34.35 -102.3L39.05 -96.05Q39.85 -102.45 34.85 -112.75L31.9 -118.15Q22.45 -133.35 17.6 -138.2Q26.9 -135.85 33.85 -130.9Q34.5 -130.6 35.2 -129.9L42.9 -124.15Q44.9 -122.45 40.55 -128.9Q35.5 -136.25 26.25 -145Q31.1 -145 36.75 -141.5Q42.2 -138.65 44.5 -136.15Q42.3 -142.2 34.3 -149.25Q26 -156.65 23.65 -157.7" />
</g>
</svg>
