<?xml version="1.0" encoding="utf-8"?>
<svg version="1.1" id="Layer_1"
xmlns="http://www.w3.org/2000/svg"
xmlns:xlink="http://www.w3.org/1999/xlink"
xmlns:author="http://www.sothink.com"
width="22px" height="20px"
xml:space="preserve">
<g id="1828" transform="matrix(1, 0, 0, 1, -0.5, -0.15)">
<path style="fill:#513727;fill-opacity:1" d="M14.45,12.3L13.25 11.1L11.65 11.6L8.3 12.15Q4.45 12.15 1.95 11.1Q1.7 10.1 1.75 9.1Q1.55 1.7 8.2 1.45Q11.75 1.2 14.25 2.35Q16.8 3.35 18.85 6.15Q19.9 7.5 20.35 9.45Q20.8 11.6 20.25 13.8Q19.35 17.25 15.4 18.15Q15.45 14.2 14.45 12.3" />
<path style="fill:#2E201B;fill-opacity:1" d="M4.35,15.65Q6.95 18.15 11.15 18.4L15.4 18.15Q19.35 17.25 20.25 13.8Q20.8 11.6 20.35 9.45Q19.9 7.5 18.85 6.15Q16.8 3.35 14.25 2.35Q11.75 1.2 8.2 1.45Q1.55 1.7 1.75 9.1Q1.7 10.1 1.95 11.1Q2.4 13.7 4.35 15.65M21.65,14.05Q21.05 16.6 19.55 17.8Q17.8 19.05 15.35 19.55L13 19.8Q8.9 19.85 6.7 18.8Q4.4 17.65 3.4 16.85Q2.35 15.95 1.3 13.85Q0.5 12.35 0.55 10.3L0.5 8.8L0.6 8.05Q0.95 4.4 2.7 2.35Q4.4 0.25 5.85 0.3L8.15 0.15Q14.35 -0.05 17.4 1.9Q20.65 3.95 21.65 9.4L21.85 12.35L21.65 14.05" />
<path style="fill:#644638;fill-opacity:1" d="M1.95,11.1Q4.45 12.15 8.3 12.15L11.65 11.6L13.25 11.1L14.45 12.3Q15.45 14.2 15.4 18.15L11.15 18.4Q6.95 18.15 4.35 15.65Q2.4 13.7 1.95 11.1" />
</g>
</svg>
