<?xml version="1.0" encoding="utf-8"?>
<svg version="1.1" id="Layer_1"
xmlns="http://www.w3.org/2000/svg"
xmlns:xlink="http://www.w3.org/1999/xlink"
xmlns:author="http://www.sothink.com"
width="36px" height="41px"
xml:space="preserve">
<g id="1693" transform="matrix(1, 0, 0, 1, 2.9, 0)">
<path style="fill:#101820;fill-opacity:1" d="M17,35.55L15.75 35.45L12.3 34.85L11.05 34.5L9 33.65L5.9 31.75Q3.75 30.15 2.6 27.4L1.85 25.7L1.6 25.05Q1.1 23.55 1.35 23.4L1.9 22.85L2.7 21.95Q1.3 20.75 0.55 19.5Q-0.4 18.2 0.25 17.5L2.85 15.7Q0.4 14.6 0.3 14L0.35 13.8L0.8 12.95L2.2 11.2L4.9 8.45Q6.2 7.3 9.05 5.8Q10 5.25 11.25 4.85L12.85 4.4L14.45 4.1L16.4 3.9L17.6 3.8L19.5 3.75Q21.25 3.75 21.75 4.15L21.9 4.55L21.15 5.7L23.15 5.55Q25 5.45 27 6.15Q28.95 6.8 29.65 7.45Q30.35 8.1 29.05 8.55Q27.7 8.95 26.6 9.7L25.2 10.75Q28.75 12.9 32 16.15Q33.8 17.75 32.7 18.15L31 18.8L26.45 20.9Q27.8 22.55 29.1 23.3L30.55 24.3Q30.75 24.5 30.45 25.1Q29.8 26.35 28.1 27.25Q26.4 28.15 25.6 28.15Q26.35 29.75 28.6 30.75Q29.85 31.3 29.25 32.25Q28.6 33.15 25.5 34.4Q22.55 35.5 18.75 35.6L17 35.55M25.4,27.4Q27.2 26.8 28.1 26.15L29.55 24.65Q26.55 23.75 25.45 21.2L24.8 21.5L24.6 21.55L24.45 21.45L24.7 21.3L24.75 21.25Q27.95 18.8 31.6 17.3Q29.25 14.85 27 13.35L24.35 11.55Q23.5 11.95 22.9 12.6L22.8 12.75Q22.55 12.95 22.65 12.7L22.7 12.55L22.8 12.4Q24.6 8.65 28.15 7.75Q24.3 6.3 20.7 6.65L20.25 7.15Q20 7.55 19.9 8.15Q19.75 8.9 19.65 8.3L19.6 7.6L19.6 7.05Q19.6 5.8 20.2 4.95L18.55 4.95L16.85 5L12.15 5.85L10.95 6.25Q8.3 7.2 6.1 8.9L2.8 12.2L1.65 13.55Q1.55 13.65 2.85 14.6L3.45 14.85L3.7 14.95L4.05 15.1Q4.5 15.4 3.75 16.15L1.3 18.1Q1.95 19.85 3.35 21.05Q4.8 21.2 4.3 21.9L2.4 23.85Q2.6 25.15 3.8 27.45L4.15 28.1L5.4 29.8L6.75 31.1Q8.75 32.45 10.95 33.3L11.9 33.65L12.7 33.85L16.5 34.45L18.1 34.5L24.35 33.65Q26.95 33 28.35 31.75Q25.7 30.7 24.2 27.95L24.5 27.85L25.4 27.4M15.05,19.55L17.4 19.1L18.9 18.7L19.85 18.2Q20.55 17.65 18.35 16.2L13.55 13.55L13.4 13.45L16.8 14.25Q18.75 15.25 20.85 16.95Q22.15 18.1 20.45 18.95L19.8 19.25L18.25 19.8L14.05 20.1L13.6 20.05Q13.95 19.8 14.85 19.6L14.95 19.6L15.05 19.55M13.45,28.75Q15.1 28.7 16.6 27.95Q15.25 26.1 13.4 24.8L12.25 24.1L11.7 23.8L11.8 23.6L11.9 23.55L12.25 23.55L13 23.75Q14 24.15 15.4 25.35L16.45 26.4Q18.65 28.35 17 28.85L15.95 29.15L12.25 29.35L10.65 28.75L10.45 28.65Q8.6 27.7 11.45 28.45L11.6 28.5L13.45 28.75" />
<path style="fill:#202017;fill-opacity:1" d="M17.6,3.8L19.05 2.1L19.85 1.4L18.65 1.35Q16.15 1.35 14.5 2.6L13.9 3.1L12.85 4.4L11.25 4.85Q12.15 2.1 15.55 0.6Q17.1 -0.05 18.15 0L20.45 0.35Q21.9 0.75 21.85 1.4L20.9 2.55L19.5 3.75L17.6 3.8M19.85,38.85Q18.55 37.8 17.65 36.55L17 35.55L18.75 35.6L19.5 36.5L20.9 37.7Q23 39.2 20.45 39.9L19.65 40.1L18.15 40.25Q17.1 40.3 15.55 39.65Q11.6 37.9 11.05 34.5L12.3 34.85Q13.05 36.65 14.5 37.65Q15.6 38.5 17.1 38.8L19.85 38.85" />
<path style="fill:#A7C6D7;fill-opacity:1" d="M20.7,6.65Q24.3 6.3 28.15 7.75Q24.6 8.65 22.8 12.4Q23.15 10.1 24.1 8.7L24.95 7.7L21.15 7.2L20.25 7.15L20.7 6.65M6.1,8.9Q8.3 7.2 10.95 6.25L12.15 5.85L16.85 5L18.55 4.95L20.2 4.95Q19.6 5.8 19.6 7.05L19.6 7.6L19.65 8.3L19.05 9.45Q18.6 9.05 18.1 7.55L17.7 6.1Q11.15 7.05 3.5 11.7L2.8 12.2L6.1 8.9M28.35,31.75Q26.95 33 24.35 33.65L18.1 34.5L16.5 34.45L12.7 33.85L20.2 33.35Q24.2 32.75 26.2 31.7Q25.45 30.95 24.2 27.95Q25.7 30.7 28.35 31.75M25.45,21.2Q26.55 23.75 29.55 24.65L28.1 26.15Q27.2 26.8 25.4 27.4Q27.05 26.4 27.2 24.6L25.7 23.45Q25 22.55 24.8 21.5L25.45 21.2M22.9,12.6Q23.5 11.95 24.35 11.55L27 13.35Q29.25 14.85 31.6 17.3Q27.95 18.8 24.75 21.25L24.7 21Q24.95 20.15 26.75 18.6L28.95 16.85Q27.55 14.45 24.3 13.15L22.8 12.75L22.9 12.6M14.95,14.65L13.55 13.55L18.35 16.2Q20.55 17.65 19.85 18.2L18.9 18.7Q19.1 17.8 18.45 16.85Q17.7 16.05 14.95 14.65M13.4,24.8Q15.25 26.1 16.6 27.95Q15.1 28.7 13.45 28.75L14.8 27.6Q14.7 26.5 13.4 24.8" />
<path style="fill:#648595;fill-opacity:1" d="M22.7,12.55L22.65 12.7Q22.55 12.95 22.8 12.75L24.3 13.15Q27.55 14.45 28.95 16.85L26.75 18.6Q24.95 20.15 24.7 21L24.75 21.25L24.7 21.3L24.45 21.45L24.6 21.55L24.8 21.5Q25 22.55 25.7 23.45L27.2 24.6Q27.05 26.4 25.4 27.4L24.15 27.8L24.2 27.95Q25.45 30.95 26.2 31.7Q24.2 32.75 20.2 33.35L12.7 33.85L11.9 33.65L10.95 33.3Q8.75 32.45 6.75 31.1L5.4 29.8L4.15 28.1Q5.7 29.4 7.7 30.35Q13 32.8 18.95 31.9Q21.95 31.5 23.4 30.7Q20.45 29.1 19.7 26.4Q23.75 26.55 25.5 24.45Q22.9 24.35 20.65 21.9Q23.2 18.3 26.75 16.55Q24.05 14.15 19.55 13.65Q20.1 11.45 21.45 10.1Q18.2 9.75 14.95 12.3Q15.05 10.35 16 8.9L16.15 8.7Q14.65 8.8 13.2 9.25Q7.55 10.95 4.35 14.75L4.45 14.7L5.05 14.95L2.3 18.2L3.35 21.05Q1.95 19.85 1.3 18.1L3.75 16.15Q4.5 15.4 4.05 15.1L3.7 14.95L3.45 14.85L2.85 14.6Q1.55 13.65 1.65 13.55L2.8 12.2L3.5 11.7Q11.15 7.05 17.7 6.1L18.1 7.55Q18.6 9.05 19.05 9.45L19.65 8.3Q19.75 8.9 19.9 8.15Q20 7.55 20.25 7.15L21.15 7.2L24.95 7.7L24.1 8.7Q23.15 10.1 22.8 12.4L22.7 12.55M18.45,16.85Q19.1 17.8 18.9 18.7L17.4 19.1L15.05 19.55L14.95 19.6L18.05 18.35Q18.5 17.55 14.95 14.65Q17.7 16.05 18.45 16.85M14.8,27.6L13.45 28.75L11.6 28.5Q12.85 28.05 13.7 27.45Q13.65 26.6 12.25 24.1L13.4 24.8Q14.7 26.5 14.8 27.6" />
<path style="fill:#354B59;fill-opacity:1" d="M3.8,27.45Q2.6 25.15 2.4 23.85L4.3 21.9Q4.8 21.2 3.35 21.05L2.3 18.2L5.05 14.95L4.45 14.7L4.35 14.75Q7.55 10.95 13.2 9.25Q14.65 8.8 16.15 8.7L16 8.9Q15.05 10.35 14.95 12.3Q18.2 9.75 21.45 10.1Q20.1 11.45 19.55 13.65Q24.05 14.15 26.75 16.55Q23.2 18.3 20.65 21.9Q22.9 24.35 25.5 24.45Q23.75 26.55 19.7 26.4Q20.45 29.1 23.4 30.7Q21.95 31.5 18.95 31.9Q13 32.8 7.7 30.35Q5.7 29.4 4.15 28.1L3.8 27.45M14.95,14.65Q18.5 17.55 18.05 18.35L14.95 19.6L14.85 19.6Q13.95 19.8 13.6 20.05L14.05 20.1L18.25 19.8L19.8 19.25L20.45 18.95Q22.15 18.1 20.85 16.95Q18.75 15.25 16.8 14.25L13.4 13.45L13.55 13.55L14.95 14.65M13.7,27.45Q12.85 28.05 11.6 28.5L11.45 28.45Q8.6 27.7 10.45 28.65L10.65 28.75L12.25 29.35L15.95 29.15L17 28.85Q18.65 28.35 16.45 26.4L15.4 25.35Q14 24.15 13 23.75L12.25 23.55L11.9 23.55L11.8 23.6L11.7 23.8L12.25 24.1Q13.65 26.6 13.7 27.45" />
<path style="fill:#645D4C;fill-opacity:1" d="M18.65,1.35L19.85 1.4L19.05 2.1L16.65 2.7L16.3 3.1L15.2 3.1Q16.6 1.7 18.65 1.35M17.1,38.8Q16.05 37.9 15.2 36.6L17.65 36.55Q18.55 37.8 19.85 38.85L17.1 38.8" />
<path style="fill:#38382E;fill-opacity:1" d="M15.2,3.1L16.3 3.1L16.65 2.7L19.05 2.1L17.6 3.8L16.4 3.9L14.45 4.1L12.85 4.4L13.9 3.1L15.2 3.1M12.3,34.85L15.75 35.45L17 35.55L17.65 36.55L15.2 36.6Q16.05 37.9 17.1 38.8Q15.6 38.5 14.5 37.65Q13.05 36.65 12.3 34.85" />
<path style="fill:#98948E;fill-opacity:1" d="M15.2,3.1L13.9 3.1L14.5 2.6Q16.15 1.35 18.65 1.35Q16.6 1.7 15.2 3.1" />
<path style="fill:#202017;fill-opacity:1" d="M12.45,5.1L10.95 7.85Q10 9.8 10.75 11.85Q10.8 12.1 12.3 11.85Q13.8 11.6 13 11.2Q12.15 10.8 13.3 8.3Q14.4 5.75 15.05 5.25Q15.65 4.7 16.6 4.85Q16.9 4.4 17.75 3.5L18.85 2.5L19 2.45Q19.4 2.4 19.55 2.7L19.2 3.4L18.4 4.55L18.05 5.15Q17.35 6.25 16.85 6.25L16.05 6.25Q15.75 6.25 14.9 7.7Q14 9.1 13.4 11.65Q13.3 12.2 12.6 12.45Q8.3 13.85 8.9 9.85Q9.25 7.85 9.8 7.9Q11.6 3.75 12.15 3.55L12.95 3.4L12.95 3.95L12.45 5.1M12.95,36.7L12.15 36.55Q11.6 36.35 9.8 32.2Q9.25 32.25 8.9 30.25Q8.3 26.25 12.6 27.65Q13.3 27.9 13.4 28.45Q14 31 14.9 32.4Q15.75 33.85 16.05 33.85L16.85 33.85Q17.35 33.85 18.05 34.95L18.4 35.55L19.2 36.7L19.55 37.4Q19.4 37.7 19 37.65L18.85 37.6L17.75 36.6L16.6 35.25Q15.65 35.4 15.05 34.85Q14.4 34.35 13.3 31.8Q12.15 29.3 13 28.9Q13.8 28.5 12.3 28.25Q10.8 28 10.75 28.25Q10 30.3 10.95 32.25Q11.7 33.3 12.45 35L12.95 36.15L12.95 36.7" />
<path style="fill:#38382E;fill-opacity:1" d="M17.75,3.5Q16.9 4.4 16.6 4.85Q15.65 4.7 15.05 5.25Q14.4 5.75 13.3 8.3Q12.15 10.8 13 11.2Q13.8 11.6 12.3 11.85Q10.8 12.1 10.75 11.85Q10 9.8 10.95 7.85L12.45 5.1L12.95 3.95L17.75 3.5M12.95,36.15L12.45 35Q11.7 33.3 10.95 32.25Q10 30.3 10.75 28.25Q10.8 28 12.3 28.25Q13.8 28.5 13 28.9Q12.15 29.3 13.3 31.8Q14.4 34.35 15.05 34.85Q15.65 35.4 16.6 35.25L17.75 36.6L12.95 36.15" />
<path style="fill:#9C753C;fill-opacity:1" d="M6.8,12.05Q4.6 12.25 3 13.15Q1.6 13.9 0.65 15.1Q-1.45 17.7 -1.65 19.4Q-1.85 20.8 -1.25 22.1L-0.85 23Q0.45 25.75 2.65 27.2Q5.2 28.8 9.25 28.75L10.9 28.65L10.9 28.75Q11.1 29.8 10 29.7L9.25 29.75Q1.9 30.05 -2 23.5L-2.6 22.15Q-2.95 21.2 -2.9 20.25Q-3 18.3 -1.65 16.1Q0.25 13 2.8 11.7Q3.4 11.4 4.1 11.2Q6.2 10.45 9 10.5L10 10.55Q11.1 10.45 10.9 11.5L9 11.8L6.8 12.05" />
<path style="fill:#E9CB9E;fill-opacity:1" d="M-0.85,23L-1.25 22.1Q-1.85 20.8 -1.65 19.4Q-1.45 17.7 0.65 15.1Q1.6 13.9 3 13.15Q2.3 14.7 1.9 16.55L0.85 17.1Q0.15 18.8 0.45 19.4L1.55 19.25L1.5 20.25L1.5 20.3L2.05 23.95L0.45 23.45L-0.85 23" />
<path style="fill:#D0A15B;fill-opacity:1" d="M0.45,23.45L2.05 23.95L1.5 20.3L1.5 20.25L1.55 19.25L0.45 19.4Q0.15 18.8 0.85 17.1L1.9 16.55Q2.3 14.7 3 13.15Q4.6 12.25 6.8 12.05L9 11.8L9.25 28.75Q5.2 28.8 2.65 27.2Q0.45 25.75 -0.85 23L0.45 23.45" />
<path style="fill:#101820;fill-opacity:1" d="M6,9.25L5.85 9.25Q4.25 9.2 3.2 10L2.35 10.75L2.2 11.05L3.15 11.3Q4 11.6 4.55 12.25L5.65 12L7.3 11.85L8.25 12.2L8.85 12.95L8.85 13L6.6 12.95L3.95 13.45L3.75 13.55Q2.6 14.15 1.95 15.6L1.75 16.15L1.55 17.25Q1.6 17.2 2.3 16.85L2.45 16.8L4.6 16.3Q5.85 16.25 6.2 16.6L7.1 16.65L7.25 16.7L7.3 16.8L7.25 17.55L7.15 17.65L5.2 17.45Q3.8 17.35 2.35 18L0.75 17.95Q0.55 17.3 0.65 16.55L1.05 15.1Q1.35 14.4 1.8 13.95Q2.5 13.15 3.6 12.8L1.7 12.15Q0.1 11.9 0.75 11.05L0.75 11Q1.35 10.15 2.05 9.45Q2.75 8.75 4.4 8.1Q6.9 7.45 8.65 8.6L9.25 9.1L10.4 10.25L10.4 10.35L8.75 9.8L6 9.25M4.3,25.8L3.3 26.05Q2.35 25.95 1.3 25.1Q1.4 26.2 1.85 26.95L2.45 27.65Q3.85 28.8 6.9 28.05L7.25 28L8.15 27.75L8.45 27.8L7.65 28.85Q5.55 30.15 3.4 29.2Q1.2 28.25 0.7 27.05L0.4 26Q0.3 25.35 0.45 24.8Q0.65 23.8 0.95 23.9L2.25 24.65L3.15 24.95L5.55 24.55L5.6 24.55Q6.4 24.4 5.9 24.95L4.3 25.8" />
<path style="fill:#648595;fill-opacity:1" d="M3.85,10.2L4.05 10.15L4.15 10L4.95 9.75L5.6 9.75Q5.3 10.1 4.9 11L3.45 10.75L3.85 10.2M2.3,15.9Q2.5 15.25 3 14.75L3.35 14.45L2.85 15.75L2.3 15.9M1.9,26.4L1.9 26.35L3.5 26.55L4.2 27.4L2.25 27.15L1.9 26.4" />
<path style="fill:#354B59;fill-opacity:1" d="M6,9.25L8.75 9.8L7.3 11.85L5.65 12L4.55 12.25Q4 11.6 3.15 11.3L2.2 11.05L2.35 10.75L3.45 10.75L4.9 11Q5.3 10.1 5.6 9.75L6 9.25M2.3,15.9L2.85 15.75L3.35 14.45L3.5 14.15L3.95 13.45L6.6 12.95L6.2 16.6Q5.85 16.25 4.6 16.3L2.45 16.8L2.3 16.85Q1.6 17.2 1.55 17.25L1.75 16.15L2.3 15.9M2.25,27.15L4.2 27.4L3.5 26.55L3.3 26.05L4.3 25.8L5.9 24.95L7.25 28L6.9 28.05Q3.85 28.8 2.45 27.65L1.85 26.95L2.25 27.15" />
<path style="fill:#A7C6D7;fill-opacity:1" d="M1.75,16.15L1.95 15.6Q2.6 14.15 3.75 13.55L3.95 13.45L3.5 14.15L3.35 14.45L3 14.75Q2.5 15.25 2.3 15.9L1.75 16.15M5.6,9.75L4.95 9.75L4.15 10L4.05 10.15L3.85 10.2L3.45 10.75L2.35 10.75L3.2 10Q4.25 9.2 5.85 9.25L6 9.25L5.6 9.75M1.85,26.95Q1.4 26.2 1.3 25.1Q2.35 25.95 3.3 26.05L3.5 26.55L1.9 26.35L1.9 26.4L2.25 27.15L1.85 26.95" />
<path style="fill:#2C1335;fill-opacity:1" d="M16.3,8.85Q16.45 12.55 18.7 17.35L19.25 18.4Q20.3 20.4 19.15 21.95Q17.3 25.7 16.65 28.75L16.3 31.35Q14.85 33.35 12.95 33.35Q11.05 33.4 9.35 32.7Q7.7 32 5.75 28.5Q3.8 25 2.55 20.45Q2.9 17.3 4.8 13.6L5.35 12.55Q7.7 8.2 9.35 7.5Q11.05 6.8 12.95 6.85Q14.85 6.85 16.3 8.85M9.5,31.3Q10.25 31.85 11.75 31.95Q13.55 32 14.6 31.05L14.8 29.7Q15.35 26 17.3 21.6Q17.7 20.7 18.2 20.1L17.3 18.6L17.15 18.2Q15 13.25 14.6 9.15Q11.6 7.3 9 9.55Q8.4 10.1 7.4 11.8L6.75 12.9Q5.55 14.95 4.9 16.9L4.6 18Q3.95 20.45 4.1 20.55L4.65 22.4Q5.1 24.2 6.7 27.35L7.45 28.75Q8.6 30.7 9.5 31.3" />
<path style="fill:#AF87CD;fill-opacity:1" d="M9,9.55Q11.6 7.3 14.6 9.15Q15 13.25 17.15 18.2Q16.6 18.6 16.15 19.15L15.15 17.3Q13.55 13.9 13.75 10.25Q10.25 10.25 7.8 11.55L7.4 11.8Q8.4 10.1 9 9.55" />
<path style="fill:#7E52A1;fill-opacity:1" d="M14.7,22.2Q9.95 24.7 6 21.15Q5.2 19.05 4.9 16.9Q5.55 14.95 6.75 12.9L7.4 11.8L7.8 11.55Q10.25 10.25 13.75 10.25Q13.55 13.9 15.15 17.3L16.15 19.15Q15.05 20.5 14.7 22.2M7.45,28.75Q10.9 31.25 14.8 29.7L14.6 31.05Q13.55 32 11.75 31.95Q10.25 31.85 9.5 31.3Q8.6 30.7 7.45 28.75" />
<path style="fill:#512A70;fill-opacity:1" d="M17.3,18.6L18.2 20.1Q17.7 20.7 17.3 21.6Q15.35 26 14.8 29.7Q10.9 31.25 7.45 28.75L6.7 27.35Q5.1 24.2 4.65 22.4L4.1 20.55Q3.95 20.45 4.6 18L4.9 16.9Q5.2 19.05 6 21.15Q9.95 24.7 14.7 22.2Q15.05 20.5 16.15 19.15Q16.6 18.6 17.15 18.2L17.3 18.6" />
</g>
</svg>
