<?xml version="1.0" encoding="utf-8"?>
<svg version="1.1" id="Layer_1"
xmlns="http://www.w3.org/2000/svg"
xmlns:xlink="http://www.w3.org/1999/xlink"
xmlns:author="http://www.sothink.com"
width="27px" height="22px"
xml:space="preserve">
<g id="1325" transform="matrix(1, 0, 0, 1, 0, 0)">
<path style="fill:#792E0A;fill-opacity:1" d="M2.85,16.75Q1.95 17.7 1.15 17.25L1.25 17.35L1.2 17.35L0.35 16.3Q-0.15 15.4 0.05 14.45L0.4 13.15L0.95 12.2Q1.3 11.6 3.6 9.2Q5.9 6.75 10.35 3.95L12 2.95Q15.45 1 18.35 0.3Q21.9 -0.55 23.25 0.85Q24.5 2.15 24.1 3.1L24.05 3.2L24 3.2L22.6 3.75L22.55 3.75L22.35 3.8L21.85 3.95L17.6 5.45L16.1 6Q10.25 8.15 2.85 16.75M10.4,5.4L8.05 7.05Q4.4 9.9 2.8 11.8Q1.15 13.65 1.15 14.65Q1.15 15.65 2.15 16.05Q2.9 14 8.35 9.4Q11.5 6.7 15.75 4.85L16 4.7Q18.25 3.7 20.8 2.95L21.85 2.65L22.2 2.55L22.55 2.25Q23 1.6 21.7 1.25Q20.1 0.75 15.9 2.5Q14.65 3 13.45 3.6L10.4 5.4" />
<path style="fill:#A66221;fill-opacity:1" d="M14.65,4.45L20.65 2.25L21.5 2.25L22.55 2.25L22.2 2.55L21.85 2.65L20.8 2.95Q18.25 3.7 16 4.7L15.75 4.85Q11.5 6.7 8.35 9.4Q2.9 14 2.15 16.05Q1.15 15.65 1.15 14.65Q1.15 13.65 2.8 11.8Q4.4 9.9 8.05 7.05L10.4 5.4L13.45 3.6L13.7 3.75L13.85 3.85L14.65 4.45" />
<path style="fill:#BF7A24;fill-opacity:1" d="M13.85,3.85Q18.45 1.85 19.9 1.85L21.05 1.9L21.5 2.25L20.65 2.25L14.65 4.45L13.85 3.85" />
<path style="fill:#E5AA38;fill-opacity:1" d="M21.5,2.25L21.05 1.9L19.9 1.85Q18.45 1.85 13.85 3.85L13.7 3.75L13.45 3.6Q14.65 3 15.9 2.5Q20.1 0.75 21.7 1.25Q23 1.6 22.55 2.25L21.5 2.25" />
<path style="fill:#0D1931;fill-opacity:1" d="M1.15,17.25Q1.95 17.7 2.85 16.75Q3 17.8 6.1 19.5Q9.15 21.15 12.2 18.7Q14.9 15.35 16.35 14.45Q17.8 13.55 21.5 12.65Q25.15 11.75 25.55 9.7L25.6 9.5Q25.9 7.55 24.45 5.6L23.6 4.55L22.6 3.75L24 3.2L24.05 3.2L24.1 3.1L24.2 3L24.15 3.05L25.5 4.5Q26.15 5.5 26.65 6.85Q27.15 8.35 26.95 9.75L26.45 11.25Q25.4 13.3 21.7 14.15Q18 15 16.75 16.15L13.55 19.65Q11.6 21.95 8.8 21.85Q6 21.75 4.05 20.05L1.85 17.95L1.5 17.55L1.25 17.35L1.15 17.25" />
<path style="fill:#283D69;fill-opacity:1" d="M22.5,4.85L18.4 6.3L18.8 7Q19.6 8.45 19.75 10.1Q21.05 9.6 22.35 9.45L23.7 9.35L25.6 9.5L25.55 9.7Q25.15 11.75 21.5 12.65Q17.8 13.55 16.35 14.45Q14.9 15.35 12.2 18.7Q9.15 21.15 6.1 19.5Q3 17.8 2.85 16.75Q10.25 8.15 16.1 6L17.6 5.45L21.85 3.95L22.35 3.8L22.55 3.75L22.6 3.75L23.6 4.55L22.5 4.85" />
<path style="fill:#496298;fill-opacity:1" d="M19.75,10.1Q19.6 8.45 18.8 7L18.4 6.3L22.5 4.85L22.8 5.35Q24.05 7.3 24.4 8.85Q23.95 8.75 22.35 9.45Q21.05 9.6 19.75 10.1" />
<path style="fill:#6B95E0;fill-opacity:1" d="M23.6,4.55L24.45 5.6Q25.9 7.55 25.6 9.5L23.7 9.35L22.35 9.45Q23.95 8.75 24.4 8.85Q24.05 7.3 22.8 5.35L22.5 4.85L23.6 4.55" />
</g>
</svg>
