<?xml version="1.0" encoding="utf-8"?>
<svg version="1.1" id="Layer_1"
xmlns="http://www.w3.org/2000/svg"
xmlns:xlink="http://www.w3.org/1999/xlink"
xmlns:author="http://www.sothink.com"
width="20px" height="27px"
xml:space="preserve">
<g id="18" transform="matrix(1, 0, 0, 1, 0.6, 3.85)">
<path style="fill:#9A7226;fill-opacity:1" d="M11.65,18.05L11.4 17.85L12.25 15.2Q14.1 8.45 11.75 1.5L11.5 0.6L11.6 0.6L12.25 0.65L12.35 0.85L13.25 2.75Q14.3 5.55 14.6 9.55L14.45 10.95Q14.1 15.9 13.05 18.45L12.95 18.6L11.65 18.05M16.6,7.85Q17.25 11.05 17.1 14.15Q16.5 16 15.5 17.6L15.35 17.75L14.9 17.95L14.8 18L14.35 18.15L14.35 17.1L14.7 15.85L14.9 14.9L15.25 8.55L14.8 3.75L14.6 2.8Q15.95 4.65 16.6 7.85" />
<path style="fill:#745416;fill-opacity:1" d="M12.95,18.6Q11.85 20.95 11.25 21.3L9.4 21.65L9.5 21.5L10.7 19.5L11.05 18.7L11.4 17.85L11.65 18.05L12.95 18.6M9.8,2.3L8.75 3.5Q6.95 6.05 6.95 10.5Q6.95 14.65 9.15 17.7L9.75 18.5L8.35 21.25L8.15 21.6L7.4 21.4Q5.1 20.65 3.25 18.05Q0.7 14.5 0.7 9.55Q0.7 4.6 3.25 1.05L3.9 0.25Q5.2 -1.25 6.7 -1.95L7.85 -2.3L8.8 -2.45L10.65 1.75Q10.2 1.9 9.8 2.3M15.1,18.05L14.9 18.4L12.6 20.9L12.35 21.05L12.55 20.85L13.75 18.65L14.35 17.1L14.35 18.15L14.8 18L14.9 17.95L15.35 17.75L15.1 18.05" />
<path style="fill:#B28F45;fill-opacity:1" d="M13.25,2.75L12.35 0.85L12.25 0.65L11.6 0.6L11.5 0.6L10.2 -2.3L11.25 -1.9Q11.7 -1.75 12.35 -0.7L13.7 2.2Q14.7 4.8 14.6 9.55Q14.3 5.55 13.25 2.75M17.1,14.15Q17.25 11.05 16.6 7.85Q15.95 4.65 14.6 2.8Q13.7 -0.45 12.15 -1.75Q13.55 -1.2 15.1 1.05Q17.7 4.6 17.7 9.55L17.7 10.55L17.1 14.15" />
<path style="fill:#4D3212;fill-opacity:1" d="M11.75,1.5Q14.1 8.45 12.25 15.2L11.4 17.85L11.05 18.7L10.7 19.5L9.5 21.5L9.4 21.65L11.25 21.3Q11.85 20.95 12.95 18.6L13.05 18.45Q14.1 15.9 14.45 10.95L14.6 9.55Q14.7 4.8 13.7 2.2L12.35 -0.7Q11.7 -1.75 11.25 -1.9L10.2 -2.3L11.5 0.6L11.75 1.5M10.1,17.55L11.05 14.35Q12.55 8.05 10.75 2.15L10.65 1.75L8.8 -2.45L7.85 -2.3L6.7 -1.95Q5.2 -1.25 3.9 0.25L3.25 1.05Q0.7 4.6 0.7 9.55Q0.7 14.5 3.25 18.05Q5.1 20.65 7.4 21.4L8.15 21.6L8.35 21.25L9.75 18.5L10.1 17.55M4.75,-2.5Q6.7 -3.85 9.05 -3.85Q13.85 -3.85 16.3 -0.5Q19.2 3.6 19.2 9.7L18.8 12.65L17.95 16.15L17.85 16.3L16.65 18.8L14.75 20.95L14.1 21.4Q12 22.75 8.95 22.9Q5 23 2.2 19Q-0.6 15.1 -0.6 9.55Q-0.6 4.05 2.2 0.05L3.7 -1.7L4.75 -2.5M15.35,17.75L15.5 17.6Q16.5 16 17.1 14.15L17.7 10.55L17.7 9.55Q17.7 4.6 15.1 1.05Q13.55 -1.2 12.15 -1.75Q13.7 -0.45 14.6 2.8L14.8 3.75L15.25 8.55L14.9 14.9L14.7 15.85L14.35 17.1L13.75 18.65L12.55 20.85L12.35 21.05L12.6 20.9L14.9 18.4L15.1 18.05L15.35 17.75" />
<path style="fill:#584010;fill-opacity:1" d="M9.75,18.5L9.15 17.7Q6.95 14.65 6.95 10.5Q6.95 6.05 8.75 3.5L9.8 2.3Q10.2 1.9 10.65 1.75L10.75 2.15Q12.55 8.05 11.05 14.35L10.1 17.55L9.75 18.5" />
</g>
</svg>
