<?xml version="1.0" encoding="utf-8"?>
<svg version="1.1" id="Layer_1"
xmlns="http://www.w3.org/2000/svg"
xmlns:xlink="http://www.w3.org/1999/xlink"
xmlns:author="http://www.sothink.com"
width="40px" height="40px"
xml:space="preserve">
<g id="207" transform="matrix(1, 0, 0, 1, 2.35, -1.2)">
<path style="fill:#BB2D2B;fill-opacity:1" d="M17.75,39.25Q16.95 39 17.1 38.45L16.95 35.95Q11.35 35.55 7.25 31.25Q3.15 26.95 3.1 23.75Q3.05 20.55 1.85 20.8L-2.35 20.7L-2.35 19.5L1.15 19.55L1.2 18.85L1.1 18.5L1.2 17.95Q1.5 16.15 2.15 14.55Q3.35 12.3 5.35 10.35Q9.7 6.2 15.6 5.6L15.65 5.6L15.8 5.6L16.55 5.25L16.6 4.1L16.5 2L18.7 2.1L18.8 4.25Q18.8 5.2 18.95 5.5L19.7 5.6Q24.95 6.15 28.95 9.55L29.85 10.35Q32 12.4 33.25 14.85Q33.9 16.55 34.15 18.45L34.15 19.65L34.8 19.75L36.15 19.75Q36.75 19.7 37.25 20.5L37.25 20.8L34.1 21.1L33.4 21.4Q33.15 21.55 32.9 23Q32.65 24.45 31.8 26.7Q30.95 28.9 28.05 31.95Q25.15 35 19.9 35.9L19.7 37.45L19.6 37.45L19.6 39L17.75 39.25M15.9,32.7L18.85 32.7L18.95 33.45Q19 33.85 19.2 33.85L19.7 33.7Q23.75 33.1 26.75 30.05Q29.55 27.25 30.35 23.6L30.5 22.75L30.5 22.65L30.6 21.95L30.55 21.5L30.15 21.15L28.5 21.15L28.5 19.55L29.4 19.5L31 19.55Q31.55 19.6 31.65 19.25L31.75 18.6L31.85 18.55L31.3 16.25Q30.25 13.3 27.85 10.9Q24.35 7.4 19.6 6.85L19.55 7.45L19.6 8.1L19.6 8.95L17.15 8.85Q16.45 8.8 16.55 8.15L16.6 6.75Q11.35 7.1 7.55 10.9Q4.55 13.9 3.7 17.7L3.7 17.85L3.6 18.4L3.7 18.5L3.5 18.5L3.3 18.95L3.3 19.35L5.55 19.4Q6.1 19.45 6.15 20.4L6.2 20.9L5.5 20.9L5.3 20.9L4.7 20.95L4.65 21.55L4.8 22.75L4.85 22.9Q5.3 26.4 7.6 29.2L8.4 30.05Q11.5 33.15 15.7 33.75L15.7 32.75L15.9 32.7M21.5,16.55Q19.9 15.05 17.6 15.05Q15.2 15.05 13.45 16.75L13.2 17Q11.75 18.65 11.75 20.9Q11.75 23.05 13.1 24.6L13.45 25Q15.2 26.7 17.6 26.7Q20.05 26.7 21.7 25L22.8 23.6Q23.45 22.35 23.45 20.9Q23.45 18.45 21.7 16.75L21.5 16.55M25.9,19.7L25.9 19.8Q25.9 22.5 24.3 24.65L23.4 25.65Q21.05 28.05 17.55 28.05Q14.1 28.05 11.6 25.65L11.1 25.05Q9.4 23.1 9.25 20.5L9.25 20.25L9.25 20.15L9.25 19.9L9.4 19.35L10.2 17.6L11.5 16Q14 13.55 17.55 13.55Q20.95 13.55 23.35 15.7L23.65 16Q25.15 17.5 25.8 19.35L25.9 19.65L25.9 19.7M15.1,19.7Q15.45 19.35 15.9 19.2L17.5 18.8Q18.8 18.8 19.75 19.6L19.9 19.7L20.55 20.45L20.25 21.2L19.7 21.85Q18.9 22.75 17.7 22.75Q16.45 22.75 15.65 21.85L15.45 21.65Q14.85 20.95 14.8 20L15.1 19.7" />
<path style="fill:#7B1312;fill-opacity:1" d="M16.6,4.1L16.55 5.25L15.8 5.6L15.85 5.1L15.5 4.35L15.7 4.3L15.7 2L16.5 2L16.6 4.1M37.25,20.8L37.25 22.75L34.2 22.75Q33.65 28.45 29.4 32.65Q25.3 36.8 19.7 37.45L19.9 35.9Q25.15 35 28.05 31.95Q30.95 28.9 31.8 26.7Q32.65 24.45 32.9 23Q33.15 21.55 33.4 21.4L34.1 21.1L37.25 20.8M19.6,39L19.6 40.65L15.7 40.65L15.7 37.45Q10 36.85 5.8 32.65L4.75 31.5Q1.55 27.65 1.05 22.75L-2.35 22.75L-2.35 20.7L1.85 20.8Q3.05 20.55 3.1 23.75Q3.15 26.95 7.25 31.25Q11.35 35.55 16.95 35.95L17.1 38.45Q16.95 39 17.75 39.25L19.6 39M19.55,7.45L19.6 6.85Q24.35 7.4 27.85 10.9Q30.25 13.3 31.3 16.25L31.85 18.55L31.75 18.6L30.45 18.8L30.45 18.7Q29.8 14.7 26.75 11.7L26.2 11.15Q23.35 8.55 19.6 8.05L19.6 8.1L19.55 7.45M4,18.6L3.7 18.5L3.6 18.4L3.7 17.85L3.7 17.7Q4.55 13.9 7.55 10.9Q11.35 7.1 16.6 6.75L16.55 8.15Q16.45 8.8 17.15 8.85L19.6 8.95L19.6 9.95L15.7 9.95L15.7 8.05Q11.5 8.6 8.4 11.7Q5.4 14.75 4.8 18.85L4 18.6M6.4,20.9L6.4 22.75L4.8 22.75L4.65 21.55L4.7 20.95L5.3 20.9L5.5 20.9L6.2 20.9L6.4 20.9M30.5,22.75L28.5 22.75L28.5 21.15L30.15 21.15L30.55 21.5L30.6 21.95L30.5 22.65L30.5 22.75M25.9,19.65L25.9 19.55L25.9 19.45L25.9 19.2L26.05 20.05L26.05 20.85Q26.05 22.4 25.55 23.75L25 25L23.55 26.8Q21.1 29.3 17.6 29.3Q14.1 29.3 11.65 26.8L11.15 26.25Q10.2 25.15 9.7 23.85Q9.25 22.6 9.2 21.25L9.2 20.85L9.25 20.25L9.25 20.5Q9.4 23.1 11.1 25.05L11.6 25.65Q14.1 28.05 17.55 28.05Q21.05 28.05 23.4 25.65L24.3 24.65Q25.9 22.5 25.9 19.8L25.9 19.7L25.9 19.65M14.8,19.85L14.8 20Q14.85 20.95 15.45 21.65L15.65 21.85Q16.45 22.75 17.7 22.75Q18.9 22.75 19.7 21.85L20.25 21.2L20.55 20.45L20.55 20.35L20.6 20.5L20.6 20.85L20.55 21.5L19.7 22.95Q18.85 23.85 17.6 23.85Q16.35 23.85 15.5 22.95L15.3 22.75Q14.6 21.95 14.6 20.85L14.7 20.15L14.8 19.75L14.8 19.85" />
<path style="fill:#E05C5A;fill-opacity:1" d="M29.85,10.35L28.95 9.55Q24.95 6.15 19.7 5.6L18.95 5.5Q18.8 5.2 18.8 4.25L18.7 2.1L16.5 2L15.7 2L15.7 1.2L19.6 1.2L19.6 4.3Q24.7 4.85 28.55 8.25L29.4 9.05Q32 11.65 33.25 14.85Q32 12.4 29.85 10.35M34.15,18.45L34.2 18.85L37.25 18.85L37.25 20.5Q36.75 19.7 36.15 19.75L34.8 19.75L34.15 19.65L34.15 18.45M-2.35,19.5L-2.35 18.85L1.05 18.85L1.1 18.5L1.2 18.85L1.15 19.55L-2.35 19.5M15.8,5.6L15.65 5.6L15.6 5.6Q9.7 6.2 5.35 10.35Q3.35 12.3 2.15 14.55Q3.35 11.55 5.8 9.05Q9.95 4.95 15.5 4.35L15.85 5.1L15.8 5.6M31.65,19.25Q31.55 19.6 31 19.55L29.4 19.5L28.5 19.55L28.5 18.85L30.45 18.85L30.45 18.8L31.75 18.6L31.65 19.25M6.2,20.9L6.15 20.4Q6.1 19.45 5.55 19.4L3.3 19.35L3.3 18.95L3.5 18.5L3.7 18.5L4 18.6L4.8 18.85L6.4 18.85L6.4 20.9L6.2 20.9M15.7,32.75L15.7 31.9L19.6 31.9L19.6 33.7L19.7 33.7L19.2 33.85Q19 33.85 18.95 33.45L18.85 32.7L15.9 32.7L15.7 32.75M25.9,19.45L25.9 19.55L25.9 19.65L25.8 19.35Q25.15 17.5 23.65 16L23.35 15.7Q20.95 13.55 17.55 13.55Q14 13.55 11.5 16L10.2 17.6L9.4 19.35L9.25 19.9Q9.35 19 9.6 18.25L10.4 16.5L11.65 14.9Q14.1 12.45 17.6 12.45Q20.9 12.45 23.25 14.6L23.55 14.9Q25.05 16.4 25.65 18.25L25.9 19.1L25.9 19.2L25.9 19.45M14.8,20L14.8 19.85L14.8 19.75L15.5 18.75L16.2 18.25Q16.8 17.85 17.6 17.85Q18.75 17.85 19.6 18.65L19.7 18.75Q20.4 19.4 20.55 20.35L20.55 20.45L19.9 19.7L19.75 19.6Q18.8 18.8 17.5 18.8L15.9 19.2Q15.45 19.35 15.1 19.7L14.8 20" />
</g>
</svg>
