<?xml version="1.0" encoding="utf-8"?>
<svg version="1.1" id="Layer_1"
xmlns="http://www.w3.org/2000/svg"
xmlns:xlink="http://www.w3.org/1999/xlink"
xmlns:author="http://www.sothink.com"
width="79px" height="106px"
xml:space="preserve">
<g id="1030" transform="matrix(1, 0, 0, 1, -4.3, 11.7)">
<path style="fill:#000000;fill-opacity:0.25098" d="M57,85.3L60.2 85.7Q69.8 87.2 69.8 89.3Q69.8 91.3 60.2 92.75Q50.55 94.25 37.1 94.25Q23.45 94.25 13.9 92.75Q4.3 91.3 4.3 89.3Q4.3 87.2 13.9 85.7L14.8 85.6L14.85 86.05Q15.55 88.65 19 90.75L20.15 91.25L20.25 91.35Q23.2 92.5 27.6 92.05L28.4 91.95Q34.25 91.1 35.85 88.05Q36.7 86.4 36.1 84.35L37.1 84.35L40.9 84.4Q40.5 85.5 40.8 86.95Q41.35 89.8 46.3 91.05L53.2 90.75L54.65 89.9Q57.25 88.15 57 85.3" />
<path style="fill:#876430;fill-opacity:1" d="M14.8,54.95L13 55.2L12.65 55.3Q12.75 54.5 13 53.75Q13.6 51.5 14.25 50.6L14.75 49.85L15.25 50.45L16.1 51.15Q15.8 51.7 15.65 52.35Q15.05 53.65 14.8 54.95M26.7,58.25Q29 55.55 30.35 53.05L31 51.5L32.75 50.2L33.15 49.85L32.9 51.35L30.8 56L28.45 59.35L26.7 58.25M32.35,77.95Q30.55 78.1 29.1 77.5Q27.45 76.8 25.7 75.3L24.25 73.75Q26.35 73.7 26.35 73.15L26.4 73.45Q26.6 74.2 28.5 75.4Q30.3 76.6 33.05 76L33.35 75.9Q35.55 75.25 36.55 73.55L36.9 72.7L37.05 72L37.1 71.95L37.1 71.85L37.3 70.95L37.3 70.15L37.25 69.45Q37.1 68.25 36.35 67.5L34.25 65.4L34.15 65.3Q33.45 64.6 32 65.05L31.75 65.1L31.3 63.75L30.75 61.9L31.35 62.85L32.9 62.7L33.5 62.75Q34.4 62.9 35 63.6L37.3 65.95Q38.25 66.9 38.7 68.15L39 69.5L39 70L39 70.35L39 70.45L38.8 72.6L38.75 72.8L38.55 73.3L38.15 74.2L36.4 76.25L36 76.55Q34.65 77.4 32.9 77.85L32.35 77.95" />
<path style="fill:#D0A15B;fill-opacity:1" d="M35.7,39.95Q33.7 38.4 31.9 36.1L31.65 35.85L31.8 34.95Q31.95 33.75 32.3 33.5L32.7 34.6Q34.05 38 36.4 39.6Q37.45 40.3 38.4 40.65L39 40.8L41 40.65Q40.65 39.25 41.05 37.15Q41.4 35 43.25 33.1L43.35 33.05Q44.35 31.85 45.35 31.35L46.7 30.9L46.9 31.6L47.9 33.1L48.1 33.25L49.6 34.9L50.6 35.7Q51.7 36.5 53.1 37.15L52.35 38.05L52.05 38.35L51.45 38.9L50.8 39.5L48.85 40.8Q46 38.9 44.95 35.95L44.6 36.4Q42.9 38.8 42.7 42.7Q39.15 42.6 35.7 39.95M24.2,57Q21.95 55.95 20.1 55.45L19.65 55.2L16.3 52.95L15.65 52.35Q15.8 51.7 16.1 51.15Q17.8 52.3 21.25 53Q25.75 54.05 28.2 53Q29.6 52.4 31 51.5L30.35 53.05Q29 55.55 26.7 58.25L24.2 57M37.1,71.85L37.1 71.95L37.05 72L36.9 72.7L36.55 73.55Q35.55 75.25 33.35 75.9L33.05 76Q30.3 76.6 28.5 75.4Q26.6 74.2 26.4 73.45L26.35 73.15L26.35 73L26.35 71.8L26.5 71.25L26.65 70.65L26.8 70.3L27.55 70.85L28.2 71.25L30.25 72.3L30.55 72.4L31.1 72.55L34 72.25L34.3 72.15L37.3 70.95L37.1 71.85" />
<path style="fill:#E9CB9E;fill-opacity:1" d="M42.7,42.7Q42.9 38.8 44.6 36.4L44.95 35.95Q46 38.9 48.85 40.8Q45.75 42.7 42.7 42.7M15.65,52.35L16.3 52.95L19.65 55.2L20.1 55.45L17.1 55L14.8 54.95Q15.05 53.65 15.65 52.35M32,65.05Q33.45 64.6 34.15 65.3L34.25 65.4L36.35 67.5Q37.1 68.25 37.25 69.45L37.3 70.15L37.3 70.95L34.3 72.15L34 72.25L31.1 72.55L30.55 72.4L30.25 72.3L28.2 71.25L27.55 70.85L26.8 70.3L26.95 69.6L27.25 68.9Q27.65 68.1 28.35 67.3L28.6 67L30.3 65.7L30.85 65.45Q31.2 65.2 31.75 65.1L32 65.05M65.75,59.75L65.55 59.65L65.75 59.65L65.75 59.75M65.75,59.6L65.75 59.65L65.75 59.6" />
<path style="fill:#CED1D2;fill-opacity:1" d="M80.35,39.75Q79.7 37.95 78.7 36.6L78.7 36.45L78.7 35.05L79.95 36.6L80.9 39.1L81.35 41.2L81.35 43.2L81.25 44.4L81.15 45.1L81 43.3Q80.55 43.4 80.2 43.65L80.35 41.6L80.35 39.75M77.95,44.55Q77.05 44.9 76.2 45.35L76.9 43.85L77.4 42.75L78.25 42.4Q78.5 42.25 78.85 42.2L78.5 44.35L77.95 44.55M54.45,41.4L54.5 41.35L54.75 39.65L55.95 41.8L56.7 45.3L56.65 48.05L56.2 50.5L55.9 51.85L55.8 52.1L55.5 52.9L55.7 51.8L55.8 50.6L55.15 50.75L54.7 50.9L55.4 48.3L55.8 45.95Q55.4 43.7 54.6 41.95L54.45 41.6L54.45 41.5L54.45 41.4M49.25,52.1L50.5 50.35L50.55 50.3L51.35 49.1L52.5 48.8L52.7 48.8L53.35 48.7L52.55 51L52.4 51.4L51.7 51.5L50.55 51.75L49.25 52.1" />
<path style="fill:#939697;fill-opacity:1" d="M78.55,50.5L75.4 53.65Q79.4 49.05 80.2 43.65L78.5 44.35L78.85 42.2L80.35 41.6L80.2 43.65Q80.55 43.4 81 43.3L81.15 45.1Q80.6 47.85 78.55 50.5M55.45,53.05L55.05 54.05Q54.05 56.05 52.4 57.85L51.05 59.15L48.3 61.3L46.35 62.4Q48.3 60.8 49.9 59.05L52.6 55.4L53.5 53.8L54 52.75L54.5 51.55L54.7 50.9L53.4 51.1L52.65 51.35L52.55 51.35L52.4 51.4L52.55 51L53.35 48.7L53.95 48.6L54.15 48.55L55.4 48.3L54.7 50.9L55.15 50.75L55.8 50.6L55.7 51.8L55.5 52.9L55.45 53.05" />
<path style="fill:#4E5254;fill-opacity:1" d="M45.7,65.05L44.85 65.35L44.6 65.05L43.75 63.85L43.55 63.65L46.35 62.4L48.3 61.3L51.05 59.15L52.4 57.85Q54.05 56.05 55.05 54.05L55.45 53.05L55.5 52.9L55.8 52.1L55.9 51.85L56.2 50.5L56.65 48.05L56.7 45.3L55.95 41.8L54.75 39.65L54.5 41.35L54.45 41.4L54.45 41.5L53.75 44.15L53.7 44.3Q52.8 46.8 51.35 49.1L50.55 50.3L50.5 50.35L49.25 52.1L49.1 52.3Q45.35 57 40.45 60.55L40.2 60.75L39.05 59.65L38.55 59.35Q42.9 56.4 46.1 52.9L46.4 52.6L47.75 50.8L48.65 49.65L50.85 46.05Q52.3 43.1 53.35 39.7L53.55 39.1L53.95 37.55L54.15 36.75L54.25 36.75L55.5 38.1Q56.5 39.4 57.3 41.15Q58.7 44.25 58.65 47.65L58.45 50.1L57.9 52.45L57.7 53L57.4 53.75L57 54.55L55.35 57.05L54.1 58.65L51.4 61.45L51.3 61.55Q48.55 63.9 45.7 65.05M70.5,53.2L69.45 52.55L69.05 52.35Q71.95 49.55 73.85 46.4L74.9 44.55L75.4 43.6Q77.05 39.95 77.65 35.3L77.8 32.95L77.9 32.95Q79.45 33.95 80.8 35.85Q82.35 38.05 82.8 40.65L83 42.55L82.8 44.9L81.55 48.3L80.85 49.65Q78.2 54.2 74.65 56.1L74.4 55.85L73.6 55.05L73.45 54.95L75.4 53.65L78.55 50.5Q80.6 47.85 81.15 45.1L81.25 44.4L81.35 43.2L81.35 41.2L80.9 39.1L79.95 36.6L78.7 35.05L78.7 36.45L78.7 36.6Q78.55 39.65 77.4 42.75L76.9 43.85L76.2 45.35Q73.95 49.55 70.65 53.05L70.5 53.2" />
<path style="fill:#AEAEAE;fill-opacity:1" d="M53.95,46.25L53.35 48.7L52.7 48.8L52.5 48.8L51.35 49.1Q52.8 46.8 53.7 44.3L53.75 44.15L54.45 41.5L54.45 41.6L53.95 46.25M78.85,42.2Q78.5 42.25 78.25 42.4L77.4 42.75Q78.55 39.65 78.7 36.6Q79.1 39.55 78.85 42.2M70.5,53.2L70.65 53.05Q73.95 49.55 76.2 45.35Q77.05 44.9 77.95 44.55L78.5 44.35Q77.3 49.25 73.3 52.75L71.8 53.95L70.5 53.2M50.55,51.75L51.7 51.5L52.4 51.4L50.45 54.85Q47.9 58.4 43.85 60.85L41.7 62L40.2 60.75L40.45 60.55Q45.35 57 49.1 52.3L49.25 52.1L50.55 51.75" />
<path style="fill:#717575;fill-opacity:1" d="M78.7,36.6Q79.7 37.95 80.35 39.75L80.35 41.6L78.85 42.2Q79.1 39.55 78.7 36.6M73.45,54.95L73.35 54.9L72.6 54.45L71.8 53.95L73.3 52.75Q77.3 49.25 78.5 44.35L80.2 43.65Q79.4 49.05 75.4 53.65L73.45 54.95M53.35,48.7L53.95 46.25L54.45 41.6L54.6 41.95Q55.4 43.7 55.8 45.95L55.4 48.3L54.15 48.55L53.95 48.6L53.35 48.7M43.55,63.65L43.45 63.55L42.6 62.85L41.7 62L43.85 60.85Q47.9 58.4 50.45 54.85L52.4 51.4L52.55 51.35L52.65 51.35L53.4 51.1L54.7 50.9L54.5 51.55L54 52.75L53.5 53.8L52.6 55.4L49.9 59.05Q48.3 60.8 46.35 62.4L43.55 63.65" />
<path style="fill:#723C13;fill-opacity:1" d="M65.95,56.05L65.95 56L65.8 55.85L65.75 55.75Q64.75 54.8 64.5 54.2Q63.85 52.95 64.45 52.4Q65.3 51.25 66.5 51.45L68.2 51.95L69.05 52.35L69.45 52.55L70.5 53.2L71.8 53.95L72.6 54.45L73.35 54.9L73.45 54.95L73.6 55.05L74.4 55.85L74.65 56.1L75.95 57.5L76.2 58.25L75.9 59.25Q74.95 60.35 72.3 59.75L71.4 59.55L70.1 58.95L69.9 58.9L68.6 58.1L67.4 57.25L67.25 57.15L66.55 56.55L66.05 56.25L65.95 56.05M42.6,62.85L43.45 63.55L43.55 63.65L43.75 63.85L44.6 65.05L44.85 65.35L46.1 67.5Q46.35 67.9 46.25 68.45L45.65 69.7Q44.25 70.85 40.95 69.45L39.85 69L38.7 68.15Q38.25 66.9 37.3 65.95L35 63.6Q34.4 62.9 33.5 62.75Q32.5 61.45 32.4 60.65Q31.85 58.9 32.75 58.35Q34.1 57.1 35.6 57.6L35.75 57.65Q36.95 58.15 37.55 58.65L38.55 59.35L39.05 59.65L40.2 60.75L41.7 62L42.6 62.85M34.75,61.6L36 63.45L36.45 63.95L36.75 64.35L37.5 65.2L38.8 66.3L39.6 66.95Q42.2 68.7 43.85 68.05L44.05 68Q44.05 67.8 44.2 67.85L43.75 66.6L43.25 66.05L43.1 65.9L43.05 65.8L42.6 65.15L41.95 64.45L41.75 64.25L41.1 63.65L40.2 62.75L39.15 61.85L38.45 61.25L37.05 60.35L35.8 59.75L34.75 59.35L34.3 59.8L34.2 60.4L34.35 60.75L34.75 61.6M66,54L66.4 54.6L68.05 56.15L69.1 56.95L70.85 58Q73.1 59 74.25 58.3L74.45 58.2L74.55 58.05L74 57.2L73.55 56.9L73.35 56.65L72.9 56.25L72.3 55.8L72.2 55.7L71.55 55.3L70.7 54.7L69.85 54.2L69.25 53.85L68.05 53.3L66.15 52.9L65.85 53.3L65.85 53.8L66 54" />
<path style="fill:#C6A831;fill-opacity:1" d="M43.85,68.05L43.7 67.9L42.5 67.25L40.9 66.25L40.55 66L39.75 65.55L39.1 65.15L39 65.1L38.2 64.4L37.35 63.7L36 62.35L35.9 62.25L34.6 60.85L34.35 60.75L34.2 60.4L34.6 60.85Q35.3 60.85 35.8 61.25L35.85 61.3L38.8 63.25L40.3 64.35L40.55 64.55L40.7 64.7L40.8 64.75L42.2 65.9L42.35 66.05L43.7 67.9L44.05 68L43.85 68.05M66,54L65.85 53.8L66.2 54.05L67.2 54.2L69.75 55.3L71.25 56.05L71.45 56.15L71.5 56.2L72.75 56.85L74.2 58.15L74.45 58.2L74.25 58.3L74.2 58.15L73.2 57.85L71.5 57.2L70.8 56.9L70.25 56.75L70.2 56.65L68.7 55.85L67.5 55.05L66.2 54.05L66 54" />
<path style="fill:#956823;fill-opacity:1" d="M34.35,60.75L34.6 60.85L35.9 62.25L36 62.35L37.35 63.7L38.2 64.4L39 65.1L39.1 65.15L39.75 65.55L40.55 66L40.9 66.25L42.5 67.25L43.7 67.9L43.85 68.05Q42.2 68.7 39.6 66.95L38.8 66.3L37.5 65.2L36.75 64.35L36.45 63.95L36 63.45L34.75 61.6L34.35 60.75M66.2,54.05L67.5 55.05L68.7 55.85L70.2 56.65L70.25 56.75L70.8 56.9L71.5 57.2L73.2 57.85L74.2 58.15L74.25 58.3Q73.1 59 70.85 58L69.1 56.95L68.05 56.15L66.4 54.6L66 54L66.2 54.05" />
<path style="fill:#FFE687;fill-opacity:1" d="M34.3,59.8L34.75 59.35L35.8 59.75L37.05 60.35L38.45 61.25L39.15 61.85L40.2 62.75L41.1 63.65L41.75 64.25L41.95 64.45L42.6 65.15L43.05 65.8L43.1 65.9L43.25 66.05L43.75 66.6L44.2 67.85Q44.05 67.8 44.05 68L43.7 67.9L42.35 66.05L42.2 65.9L40.8 64.75L40.7 64.7L40.55 64.55L40.3 64.35L38.8 63.25L35.85 61.3L35.8 61.25Q35.3 60.85 34.6 60.85L34.2 60.4L34.3 59.8M74.2,58.15L72.75 56.85L71.5 56.2L71.45 56.15L71.25 56.05L69.75 55.3L67.2 54.2L66.2 54.05L65.85 53.8L65.85 53.3L66.15 52.9L68.05 53.3L69.25 53.85L69.85 54.2L70.7 54.7L71.55 55.3L72.2 55.7L72.3 55.8L72.9 56.25L73.35 56.65L73.55 56.9L74 57.2L74.55 58.05L74.45 58.2L74.2 58.15" />
<path style="fill:#443911;fill-opacity:1" d="M66.05,56.25L65.85 56.15L65.95 56.05L66.05 56.25M70.1,58.95L71.4 59.55L70.5 61.05L70.15 61.5L70.15 61.45L70.1 60.75L69.7 59.7L70.1 58.95M39,70L39 69.5L38.7 68.15L39.85 69L39 70" />
<path style="fill:#55442B;fill-opacity:1" d="M67.4,57.25L68.6 58.1L69.9 58.9L70.1 58.95L69.7 59.7Q69.25 58.8 68.45 58.15L67.4 57.25" />
<path style="fill:#272727;fill-opacity:1" d="M14.75,49.85Q13.6 48.45 13.7 47.1L13.8 46.35L13.8 45.9Q15.05 38.95 22.75 37.3L23 37.25L23.85 37.15L26.45 36.95L27.75 37.05L28.95 37.2L30.65 37.65L31.55 38Q34 39 35.4 40.7L35.85 41.5L36.25 42.5L36.25 42.55Q36.7 43.85 35.95 45.65Q34.85 48.1 33.15 49.85L32.75 50.2L31 51.5Q29.6 52.4 28.2 53Q25.75 54.05 21.25 53Q17.8 52.3 16.1 51.15L15.25 50.45L14.75 49.85M57.9,52.45Q61.1 53.5 62.45 54.95L63.1 55.65L63.6 56.25L63.75 56.2Q64.2 56.8 64.3 57.8L64.3 57.9L64.1 58Q63.7 58.1 63.45 58.3Q62.5 58.8 61.85 59.7L61.7 59.95Q61 60.95 60.8 61.9L60.55 63.2L60.5 63.6Q60.4 64.2 60.6 64.65L58.95 65.2L57.6 65.15L54.85 64.6Q52.8 63.95 51.4 63.1L51.15 61.7L51.3 61.55L51.4 61.45Q53 62.7 55.7 63.35L59.05 63.55L59.2 62.1L59.3 61.65L59.3 61.35Q59.6 60.1 60.45 59.15L61.15 58.3L62 57.45L62.2 57.2Q62.25 56.6 61.05 55.7Q59.8 54.75 57.4 53.75L57.7 53L57.9 52.45M54.65,89.9L53.2 90.75L46.3 91.05Q41.35 89.8 40.8 86.95Q40.5 85.5 40.9 84.4Q41.2 83.5 41.9 82.8Q41.6 82.05 41.45 81Q41.3 79.35 41.45 78.35L41.55 77.8L42.4 76.25L42.4 76.2L43.6 75.1Q44.2 74.45 45.7 74Q47.25 73.35 48.55 73.35L51.25 73.45L52.75 73.55L52.8 73.55L52.9 73.55Q53.95 73.7 54.65 74.2Q55.75 75.05 55.9 76.95Q56.05 79.6 55.4 81.5Q56.1 82.25 56.5 83.3L57 85.3Q57.25 88.15 54.65 89.9M32.9,77.85Q34.65 77.4 36 76.55L35.2 79.2L34.3 80.9Q35.65 82.75 36.1 84.35Q36.7 86.4 35.85 88.05Q34.25 91.1 28.4 91.95L27.6 92.05Q23.2 92.5 20.25 91.35L20.15 91.25L19 90.75Q15.55 88.65 14.85 86.05L14.8 85.6Q14.2 81.95 16.05 79.9L16.4 79.6Q16.25 78.15 16.6 75.6Q16.85 73.15 17.7 71.7Q15.05 70.4 13.65 68.85Q11.9 66.9 10.8 64.5L10.7 64.15L10.2 62.5Q9.75 60.95 9.95 59.3L9.95 58.95Q10.05 56.4 10.85 56L12.65 55.3L13 55.2L14.8 54.95L17.1 55L20.1 55.45Q21.95 55.95 24.2 57L26.7 58.25L28.45 59.35L30.05 60.95L30.55 61.65L30.75 61.9L31.3 63.75L31.75 65.1Q31.2 65.2 30.85 65.45L30.3 65.7L28.6 67L28.35 67.3Q27.65 68.1 27.25 68.9L26.95 69.6L26.8 70.3L26.65 70.65L26.5 71.25L26.35 71.8L26.35 73L26.35 73.15Q26.35 73.7 24.25 73.75L24.25 73.65L23.65 73.65L20.4 72.85L19.5 72.5Q18.65 73.65 18.4 75.6Q18.15 77.2 18.35 78.4L18.55 79.25Q18.65 79.75 19.4 80.2L19.95 80.55L22.6 81.3L28.9 81.85L30.25 81.5L31 80.45L31 80.4L32.05 78.6L32.35 77.95L32.9 77.85M33.85,41.1L32.15 39.75L31.5 39.35Q29.1 38.1 25 38.55L23.75 38.7L23 38.8Q16.65 41 15.8 45.05Q15.6 46 15.75 47.1L15.8 48.05L15.85 48.1Q16.2 48.75 17.15 49.4L17.5 49.65Q18.5 50.45 20.4 51L25.1 51.75Q28.1 51.9 31.2 49.35L31.25 49.3L32.75 47.95Q34.4 46.15 34.6 44.3L34.65 43.35Q34.5 42.15 33.85 41.1M25.15,68.8L25.2 68.75Q25.65 67.25 26.9 66.05L27.9 65.1L28.45 64.6L29.1 64.15L29.35 63.8L29.3 63.35Q29.1 62.7 28.15 61.75L27.1 60.85L25.4 59.7Q23.85 58.8 21.75 57.8L20.6 57.3L14.6 56.95L12.6 57.5L12.05 57.65Q11.5 58.25 11.6 59.7L11.65 61.35L11.95 62.4Q12.45 64.65 14.15 66.75Q15.7 68.9 18.8 70.25L20.2 70.8L21.05 71.1L22.5 71.5L24.5 71.55L24.6 70.8L24.65 70.45L24.9 69.65L25.05 69.15L25.15 68.8M19.3,88.5Q20.6 89.35 24.3 89.95L28.9 89.7L31.6 88.75Q34.85 87.05 34 84.4L33.85 84.05L32.85 82.3Q31.85 82.95 30.55 83.25L28.05 83.55L25.45 83.6L20.95 82.9L19.45 82.4L18.5 82L17.75 81.6L17.35 82.25Q16.5 83.85 16.95 85.35Q17.05 85.8 17.3 86.25L18.6 87.9L19.3 88.5M51.2,74.9L46.85 75Q44.95 75.6 44.15 76.35L43.25 77.2L42.85 77.8Q42.6 78.3 42.6 79.25L42.55 79.85Q42.5 81.05 43 81.9L43.15 82.2Q43.45 82.55 44.3 82.85L46.35 83.35L51.1 83.2L51.2 83.2L52 82.9Q52.8 82.5 53.3 81.8L53.95 80.55L54 80.3Q54.75 77.7 54.25 76.55L53.9 76.05Q53.4 75.55 52.45 75.25L52 75.1L51.2 74.9M51.85,84.45L51.25 84.6L45.95 84.8Q43.7 84.4 42.9 83.9L42.45 84.4Q42.1 84.9 42.1 85.45Q42.1 86.6 43.05 87.6Q44 88.7 46.1 89.45L50.95 89.75Q52.4 89.5 53.5 88.85L54.8 87.5Q55.55 86.4 55.4 85.15Q55.25 84.15 54.6 83.05L54.55 82.95Q53.9 83.65 52.9 84.1L51.85 84.45" />
<path style="fill:#705328;fill-opacity:1" d="M68.45,58.15Q69.25 58.8 69.7 59.7L70.1 60.75L70.15 61.45L70.15 61.5L70.15 63.15L70.05 63.75Q69.65 65.2 68.65 66.2L66 67.75Q64.45 68.15 63.1 67.75Q61.8 67.35 60.3 66.3L59.05 65.2L58.95 65.2L60.6 64.65L60.7 64.85Q60.9 65.45 62.45 66.2Q64 67 66.25 66.2Q68.25 65.35 68.7 63.45L68.75 63.35L68.75 62.85L68.8 61.45L68.75 61.1Q68.6 60.25 68.15 59.75L67.85 59.45L67.75 59.4L67.7 59.35L66.15 58.1L66 57.95L64.7 57.8L64.3 57.9L64.3 57.8Q64.2 56.8 63.75 56.2L64.85 56.1L65.85 56.15L66.05 56.25L66.55 56.55L67.25 57.15L67.4 57.25L68.45 58.15" />
<path style="fill:#E2B674;fill-opacity:1" d="M65.75,59.65L65.75 59.6L65.75 59.65L65.25 59.45L64.5 59.15L63.8 59.2L63.7 59.2L62.65 59.35L61.75 60.25L61.7 59.95L61.85 59.7Q62.5 58.8 63.45 58.3Q63.7 58.1 64.1 58L64.3 57.9L64.7 57.8L66 57.95L66.15 58.1L67.7 59.35L67.75 59.4L67.85 59.45L68.15 59.75Q68.6 60.25 68.75 61.1L68.8 61.45L68.65 61.3Q68.05 60.7 66.95 60.2L65.75 59.65" />
<path style="fill:#3F3F3F;fill-opacity:1" d="M16.3,47.45L18 48.25Q20.25 49.15 22.2 49.1L24.25 48.9L24.25 48.75Q23.3 48.55 22.5 47.75L25.5 47.85Q27.75 47.75 29.7 47Q30.7 46.65 31.6 46.1Q32.9 45.3 34 44.15L34.65 43.35L34.6 44.3Q34.4 46.15 32.75 47.95L31.25 49.3L31.2 49.35Q28.1 51.9 25.1 51.75L20.4 51Q18.5 50.45 17.5 49.65L17.15 49.4Q16.2 48.75 15.85 48.1L15.8 48.05L15.75 47.1L16.3 47.45M25.05,69.15L24.9 69.65L24.65 70.45L24.6 70.8L24.5 71.55L22.5 71.5L21.05 71.1L20.2 70.8L18.8 70.25Q15.7 68.9 14.15 66.75Q12.45 64.65 11.95 62.4Q12.35 63.1 12.9 63.6Q14.4 65.15 17.8 66.85L19.5 67.8L21 68.5L21.1 68.55L21.25 68.55L21.05 68.2L20.3 66.65L20.15 66.25L19.5 64.8L19.45 64.6L19.45 64.45L19.75 64.8L20.2 65.25L21.75 66.6L23.4 67.8L24.7 68.55L25 68.7L25.05 68.75L25.15 68.8L25.05 69.15M30.35,87Q30.7 84.95 27.5 84.75L26 84.6L22.15 83.8Q20.3 83.2 18.5 82L19.45 82.4L20.95 82.9L25.45 83.6L28.05 83.55L30.55 83.25Q31.85 82.95 32.85 82.3L33.85 84.05L34 84.4Q34.85 87.05 31.6 88.75L28.9 89.7Q30.05 89.1 30.35 87M57,54.55Q57.85 54.75 57.9 54.9L57.7 55.85L57.75 56.65L58.25 56.15Q58.45 55.85 58.8 55.8Q59.25 55.75 60.9 56.5L62.2 57.2L62 57.45L61.15 58.3L60.45 59.15Q59.6 60.1 59.3 61.35L59.3 61.65L59.2 62.1L59.05 63.55L55.7 63.35Q53 62.7 51.4 61.45L54.1 58.65L55.35 57.05L57 54.55M52,82.9L51.2 83.2L51.1 83.2L46.35 83.35L44.3 82.85Q43.45 82.55 43.15 82.2L43 81.9Q42.5 81.05 42.55 79.85L42.6 79.25Q42.6 78.3 42.85 77.8L43.25 77.2L44.15 76.35Q44.95 75.6 46.85 75L51.2 74.9L52 75.1L52.2 75.8L52.35 77.4L52.3 78.4L52.05 78.45L49.85 79.55L49.75 79.55L50.15 79.75L51.5 79.85L51.7 80L52 81.3L52 82.9M53.5,88.85Q52.4 89.5 50.95 89.75L46.1 89.45Q44 88.7 43.05 87.6Q42.1 86.6 42.1 85.45Q42.1 84.9 42.45 84.4L42.9 83.9Q43.7 84.4 45.95 84.8L51.25 84.6L51.85 84.45L52.9 84.1L53.65 83.9Q54.95 83 54.3 84.6L54.05 85Q53.2 86.2 50.8 85.95L51.9 86.25Q53.4 86.75 53.5 88.85" />
<path style="fill:#6D6D6D;fill-opacity:1" d="M16.15,44.75Q18.9 42.7 19.95 42.3L20.8 42.25L21.5 43.5L21.65 43.65Q22.1 44.05 23.2 44Q23.65 44 24.5 43.2L25.3 42.4Q26.4 41.1 29.35 40.75L30.75 40.65L31.55 40.65L33.85 41.1Q34.5 42.15 34.65 43.35L34 44.15Q32.9 45.3 31.6 46.1Q30.7 46.65 29.7 47Q27.75 47.75 25.5 47.85L22.5 47.75Q23.3 48.55 24.25 48.75L24.25 48.9L22.2 49.1Q20.25 49.15 18 48.25L16.3 47.45L15.75 47.1Q15.6 46 15.8 45.05L16.15 44.75M29.1,64.15L28.45 64.6L27.9 65.1L26.9 66.05Q25.65 67.25 25.2 68.75L25.15 68.8L25.05 68.75L25 68.7L24.7 68.55L23.4 67.8L21.75 66.6L20.2 65.25L19.75 64.8L19.45 64.45L19.45 64.6L19.5 64.8L20.15 66.25L20.3 66.65L21.05 68.2L21.25 68.55L21.1 68.55L21 68.5L19.5 67.8L17.8 66.85Q14.4 65.15 12.9 63.6Q12.35 63.1 11.95 62.4L11.65 61.35L11.6 59.7L11.85 59.45L12.75 58.85L13.65 58.55L14.7 58.55L15.05 58.55Q15.55 58.65 16.85 59.25L17.05 58.2L18.6 58.2L19.75 58.5L21.8 59.2Q24.15 60.05 24.15 60.3L23.9 61.15L23.8 61.45L23.8 62.5L24.5 61.95Q24.75 61.6 25.2 61.6L26.1 61.85Q26.75 62.1 27.8 62.7L28.45 63.1L29.35 63.8L29.1 64.15M23.65,73.65L24.25 73.65L24.25 73.75L25.7 75.3Q27.45 76.8 29.1 77.5Q30.55 78.1 32.35 77.95L32.05 78.6L31 80.4L31 80.45L30.25 81.5L28.9 81.85L22.6 81.3L19.95 80.55L19.8 80L19.6 78.85L19.5 77.95Q19.5 77.5 19.65 77.35Q20.05 76.95 21.55 77.05L21.6 77.05L19.8 74.8Q20.75 74.65 20.5 74.15Q20.3 73.1 20.4 72.85L23.65 73.65M28.9,89.7L24.3 89.95Q20.6 89.35 19.3 88.5L18.6 87.9L18.35 87.3L17.8 85.55L20.05 86.05L20.25 86.05L18.5 85.15L18.25 85Q17.7 84.6 18 83.65Q18.15 82.6 18.35 82.35L18.5 82Q20.3 83.2 22.15 83.8L26 84.6L27.5 84.75Q30.7 84.95 30.35 87Q30.05 89.1 28.9 89.7M60.9,56.5Q59.25 55.75 58.8 55.8Q58.45 55.85 58.25 56.15L57.75 56.65L57.7 55.85L57.9 54.9Q57.85 54.75 57 54.55L57.4 53.75Q59.8 54.75 61.05 55.7Q62.25 56.6 62.2 57.2L60.9 56.5M52,81.3L51.7 80L51.5 79.85L50.15 79.75L49.75 79.55L49.85 79.55L52.05 78.45L52.3 78.4L52.35 77.4L52.2 75.8L52 75.1L52.45 75.25Q53.4 75.55 53.9 76.05L54.25 76.55Q54.75 77.7 54 80.3L53.95 80.55L53.3 81.8Q52.8 82.5 52 82.9L52 81.3M51.9,86.25L50.8 85.95Q53.2 86.2 54.05 85L54.3 84.6Q54.95 83 53.65 83.9L52.9 84.1Q53.9 83.65 54.55 82.95L54.6 83.05Q55.25 84.15 55.4 85.15Q55.55 86.4 54.8 87.5L53.5 88.85Q53.4 86.75 51.9 86.25" />
<path style="fill:#B88D4D;fill-opacity:1" d="M66.95,60.2Q68.05 60.7 68.65 61.3L68.8 61.45L68.75 62.85L68.75 63.35L68.7 63.45Q68.25 65.35 66.25 66.2Q64 67 62.45 66.2Q60.9 65.45 60.7 64.85L60.6 64.65Q60.4 64.2 60.5 63.6L60.55 63.2L60.8 61.9Q61 60.95 61.7 59.95L61.75 60.25L62.65 59.35L63.7 59.2L63.8 59.2L64.5 59.15L65.25 59.45L65.75 59.65L65.55 59.65L65.75 59.75L65.75 59.65L66.95 60.2" />
<path style="fill:#5A2D41;fill-opacity:1" d="M51.8,41.9L51.25 43.85L50.85 46.05L48.65 49.65L47.75 50.8L46.4 52.6L46.2 52.6L44.35 52.6L42.75 52.6L37.65 52.2Q36.9 51.75 36.45 51.75L36.1 53.55Q35.75 55.25 35.75 57.65L35.6 57.6Q34.1 57.1 32.75 58.35Q31.85 58.9 32.4 60.65Q32.5 61.45 33.5 62.75L32.9 62.7L31.35 62.85L30.75 61.9L30.55 61.65L30.05 60.95L28.45 59.35L30.8 56L32.9 51.35L33.15 49.85Q34.85 48.1 35.95 45.65Q36.7 43.85 36.25 42.55L37.35 43.15Q40.05 44.55 42.8 44.55L43.85 44.45Q47.05 44.1 49.2 42.7L50.5 41.85L52.15 40.55L51.8 41.9M45.7,65.05Q48.45 64.05 49.95 62.85Q50.45 63.2 49.9 66L49.45 66.55L49.5 66.6L48.65 67.4L50.6 70.05Q50 70.2 49.95 70.85Q51.25 71.1 51.8 71.85L52.75 73.55L51.25 73.45L48.55 73.35Q47.25 73.35 45.7 74Q44.2 74.45 43.6 75.1L42.4 76.2L42.4 76.25L41.55 75.1L41.2 74.65L41.2 74.55L40.95 73.85L40.9 73.7L40.3 72.5L40.15 72.25L39.95 72L39.6 71.6L39.55 71.6L39.35 71.6L39.2 71.75L38.95 72.4L38.95 72.75L38.75 72.8L38.8 72.6L39 70.45L39 70.35L39 70L39.85 69L40.95 69.45Q44.25 70.85 45.65 69.7L46.25 68.45Q46.35 67.9 46.1 67.5L44.85 65.35L45.7 65.05" />
<path style="fill:#3C1929;fill-opacity:1" d="M51.3,61.55L51.15 61.7L51.4 63.1Q51.65 64.9 51.3 66.4L51.95 67.1Q52.85 68.3 53.95 70.45Q54.95 72.55 54.7 73.95L54.65 74.2Q53.95 73.7 52.9 73.55Q53.1 72.15 52.55 71.1Q51.95 69.75 50.7 68.15L50.6 68L49.5 66.6L49.45 66.55L49.9 66Q50.45 63.2 49.95 62.85Q48.45 64.05 45.7 65.05Q48.55 63.9 51.3 61.55M50.85,46.05L51.25 43.85L51.8 41.9L52.15 40.55L52.6 40.1L53.55 39.1L53.35 39.7Q52.3 43.1 50.85 46.05M41.55,77.8L41.45 78.35Q40.65 77.6 39.85 76Q39.3 75 39.1 74.05L38.15 74.2L38.55 73.3L38.75 72.8L38.95 72.75L38.95 72.4L39.2 71.75L39.35 71.6L39.55 71.6L39.6 71.6L39.95 72L40.15 72.25L40.3 72.5L40.9 73.7L40.95 73.85L41.2 74.55L41.2 74.65L41.55 75.1L42.4 76.25L41.55 77.8" />
<path style="fill:#83414D;fill-opacity:1" d="M38.55,59.35L37.55 58.65Q36.95 58.15 35.75 57.65Q35.75 55.25 36.1 53.55L36.45 51.75Q36.9 51.75 37.65 52.2L42.75 52.6L44.35 52.6L46.2 52.6L46.4 52.6L46.1 52.9Q42.9 56.4 38.55 59.35M52.8,73.55L52.75 73.55L51.8 71.85Q51.25 71.1 49.95 70.85Q50 70.2 50.6 70.05L48.65 67.4L49.5 66.6L50.6 68L50.7 68.15Q51.95 69.75 52.55 71.1Q53.1 72.15 52.9 73.55L52.8 73.55" />
<path style="fill:#9A9A9A;fill-opacity:1" d="M15.8,45.05Q16.65 41 23 38.8L23.75 38.7L25 38.55Q29.1 38.1 31.5 39.35L32.15 39.75L33.85 41.1L31.55 40.65L30.75 40.65L29.35 40.75Q26.4 41.1 25.3 42.4L24.5 43.2Q23.65 44 23.2 44Q22.1 44.05 21.65 43.65L21.5 43.5L20.8 42.25L19.95 42.3Q18.9 42.7 16.15 44.75L15.8 45.05M12.05,57.65L12.6 57.5L14.6 56.95L20.6 57.3L21.75 57.8Q23.85 58.8 25.4 59.7L27.1 60.85L28.15 61.75Q29.1 62.7 29.3 63.35L29.35 63.8L28.45 63.1L27.8 62.7Q26.75 62.1 26.1 61.85L25.2 61.6Q24.75 61.6 24.5 61.95L23.8 62.5L23.8 61.45L23.9 61.15L24.15 60.3Q24.15 60.05 21.8 59.2L19.75 58.5L18.6 58.2L17.05 58.2L16.85 59.25Q15.55 58.65 15.05 58.55L14.7 58.55L13.65 58.55L12.75 58.85L11.85 59.45L11.6 59.7Q11.5 58.25 12.05 57.65M19.4,80.2Q18.65 79.75 18.55 79.25L18.35 78.4Q18.15 77.2 18.4 75.6Q18.65 73.65 19.5 72.5L20.4 72.85Q20.3 73.1 20.5 74.15Q20.75 74.65 19.8 74.8L21.6 77.05L21.55 77.05Q20.05 76.95 19.65 77.35Q19.5 77.5 19.5 77.95L19.6 78.85L19.8 80L19.95 80.55L19.4 80.2M18.35,82.35Q18.15 82.6 18 83.65Q17.7 84.6 18.25 85L18.5 85.15L20.25 86.05L20.05 86.05L17.8 85.55L18.35 87.3L18.6 87.9L17.3 86.25Q17.05 85.8 16.95 85.35Q16.5 83.85 17.35 82.25L17.75 81.6L18.5 82L18.35 82.35" />
<path style="fill:#8E6755;fill-opacity:1" d="M36.8,-3.2Q41.4 -5.8 43.15 -8.35L43.65 -7.9L43.75 -6.45Q43.75 -3.4 41.75 -0.25Q39.7 1.45 37.35 1.65L36.9 1.65L36.9 1.55Q38.65 0.6 41.25 -2.8L41.25 -3.55Q39.75 -3.55 37.1 -2.35L34.75 -1.05L36.8 -3.2M21.9,5L22.2 3.3L23.05 2.05L25.8 -1.25L25.9 0.4Q26.25 2.95 27.9 3.95Q27.9 5.7 28.35 6.55L27.55 5.95L25.75 4.05L24.7 2.4L24.6 2.4Q24.15 2.85 23.5 5.2Q22.8 7.7 22.8 9L22.8 9.1Q22 7.2 21.9 5M17.05,10.05L17.05 10.9L16.9 15Q16.9 17.25 17.05 18L17.95 19.85Q15.95 18.1 15.7 17.5L15.35 19.65Q15.35 21.9 16.65 24.4L15.95 23.9Q12.65 21.3 13.6 18L15.25 12.3Q15.95 9.95 12.45 6.55Q13.25 6.55 15.15 7.6Q15.75 8.9 17.05 10.05M49.8,-3.3L51.45 -4.45L53.65 -4.95Q52.5 0.7 56.25 3.9Q57.9 5.25 59.35 7.1L56.05 5.25L53.2 2.95Q51.8 1.65 51.55 0.5Q51.3 -0.35 51.4 -1.5L51.45 -2.95L48.1 -0.25Q46.35 1.05 44.9 1.65Q48.95 -1.3 49.8 -3.3" />
<path style="fill:#513727;fill-opacity:1" d="M44.9,1.65L44.7 1.7Q39.35 5.45 36.55 4.5L36.55 4.25Q38.55 4.15 41.05 0.7L41.75 -0.25Q43.75 -3.4 43.75 -6.45L43.65 -7.9Q45.75 -6.15 46.35 -5.05Q46.95 -3.75 46.95 -2.45L46.95 -1.25L47.15 -0.6L49.8 -3.3Q48.95 -1.3 44.9 1.65M27.9,3.95L28.7 4.3L30.4 1.45L31.35 0.35Q33 -1.3 36.55 -3.15L36.8 -3.2L34.75 -1.05L33.8 -0.2Q30.65 2.75 30.05 6.9L29.9 8.55L28.4 6.75L28.35 6.55Q27.9 5.7 27.9 3.95M15.15,7.6L16.9 8.65L17.75 9.15L19.4 10.3L19.75 9Q20.55 5.8 22.2 3.3L21.9 5Q22 7.2 22.8 9.1L23.85 11L25.55 13.6L24.95 13.5L22.35 12.9L19.5 11.7L17.05 10.05Q15.75 8.9 15.15 7.6M18.45,32.3Q15.25 32.15 13.6 31Q17.85 30.25 19.25 29.2Q20.8 28 21.65 25.65Q22.25 23.1 22.6 22.25L23.05 24.85L23.3 27.45L23.2 30.6Q21.75 32.5 18.45 32.3M27.75,37.05L27.2 35L27.05 33.25L27.1 32.35Q27.2 30 27.95 28.05Q28.45 26.8 29.2 25.7L29.8 24.85Q32.3 21.65 35.85 21.55L34.65 23.25L33.95 24.35Q32.95 26.35 32.6 28.75Q30.65 30.3 30 31.7L29.55 32.8L29.3 33.65L29 35.5L28.95 36.2L28.95 36.45L28.95 37.2L27.75 37.05M37,36.8L37.35 33.2L37.75 31.25Q38.4 29.15 40.2 27.45Q42.7 24.95 44.9 24Q47.05 22.85 47.9 22.95L49 22.95Q49.75 23 50.1 23.3L49.75 23.55Q48.6 24.45 48.45 25.05Q48.25 25.7 48.35 26.05L49.05 27Q51.55 29.8 54.3 30.5L54.35 30.5L54.35 30.25Q53.8 29 54.15 26.95L54.3 25.95L54.5 24.75Q54.5 26.6 58.65 30.5L59.45 32.85Q61 36.45 60.85 36.65Q58.65 36.55 55.8 35.3L54.7 34.75L54.3 34.55Q50.95 32.75 49.5 30.6L47.75 27.9L47.5 27.55L43.6 29.95Q42.9 30.4 42.3 30.95Q41.25 31.85 40.45 33.05Q39.3 34.65 38.65 36.75Q38.4 37.6 38.3 38.4L37 36.8M51.75,7.6Q52 7 54.4 8.75Q56.75 10.45 57 13.25Q57.3 16 56.5 16.8L56.05 15.35L54.6 11.95Q53.45 9.5 51.75 7.6M35.6,10.55L35.6 10.4Q36.5 11.35 36.5 12.75Q36.5 14.2 35.6 15.25Q34.65 16.3 33.25 16.3L30.95 16.1Q33.8 14.8 33.6 12.8Q33.55 11.7 34.3 11.1Q34.9 10.55 35.6 10.55" />
<path style="fill:#2E201B;fill-opacity:1" d="M31.55,37.35L31.55 38L30.65 37.65L28.95 37.2L28.95 36.45L28.95 36.2L29 35.5L29.3 33.65L29.55 32.8L30 31.7Q30.65 30.3 32.6 28.75L32.85 28.4L34.3 31.8L34.5 32.2L35.2 33.8L37 36.8L38.3 38.4Q38.4 37.6 38.65 36.75Q39.3 34.65 40.45 33.05Q41.25 31.85 42.3 30.95Q42.9 30.4 43.6 29.95L47.5 27.55L47.75 27.9L49.5 30.6Q50.95 32.75 54.3 34.55L54.7 34.75L55.8 35.3Q58.65 36.55 60.85 36.65Q61 36.45 59.45 32.85L58.65 30.5Q58.15 28.3 58.65 26.7Q59.45 24.15 62.65 20.7Q65.7 17.4 63.25 12.8L62.9 12.2L62.8 12.1Q61.2 9.25 59.35 7.1Q57.9 5.25 56.25 3.9Q52.5 0.7 53.65 -4.95L51.45 -4.45L49.8 -3.3L47.15 -0.6L46.95 -1.25L46.95 -2.45Q46.95 -3.75 46.35 -5.05Q45.75 -6.15 43.65 -7.9L43.15 -8.35Q41.4 -5.8 36.8 -3.2L36.55 -3.15Q33 -1.3 31.35 0.35L30.4 1.45L28.7 4.3L27.9 3.95Q26.25 2.95 25.9 0.4L25.8 -1.25L23.05 2.05L22.2 3.3Q20.55 5.8 19.75 9L19.4 10.3L17.75 9.15L16.9 8.65L15.15 7.6Q13.25 6.55 12.45 6.55Q15.95 9.95 15.25 12.3L13.6 18Q12.65 21.3 15.95 23.9L16.65 24.4L17.75 25.2Q16.55 28.85 13.35 30.75L13.6 31Q15.25 32.15 18.45 32.3Q21.75 32.5 23.2 30.6L23.4 30.3Q24.3 34.4 25.75 36.2L26.25 36.75L26.45 36.95L23.85 37.15Q22.55 35.5 22.35 34.5L22.25 34.15Q18 35.5 12.65 33.35L9.8 31.45L9.55 31.2L13.5 28Q14.55 27 14.65 26.4Q12.4 24.25 11.5 21.2Q10.65 18.1 11.8 15.15Q12.9 12.2 12.3 10.4Q11.7 8.5 8.5 4.6Q9 4.25 10.15 4.15Q12.15 3.8 14.8 4.65L15.15 4.75Q17.95 5.7 18.35 6.75Q18.65 4.5 19.95 2Q21.15 -0.55 24.85 -3.15Q28.6 -5.8 28.35 -3.75Q28.05 -1.65 28.25 -0.9L28.35 -0.25L28.6 0.75Q29.3 -2.2 34.85 -4.7L37.45 -6.1Q40.65 -8.15 42.65 -11L43 -11.7L45.85 -9.3Q48.2 -7.2 48.5 -5.3L50 -6.25Q52.15 -7.45 54.6 -7.4L56.65 -7.05Q57.35 -6.85 56.25 -4.15Q55.1 -1.55 57.8 2.35Q62.4 6.15 64.65 9.7Q65.75 11.45 66.3 13.15L66.55 14.35L66.65 15.35Q66.9 21.2 64.05 23.4Q61.2 25.45 61 28.3Q60.75 30.75 61.7 33L62.05 33.8Q63.25 36.3 65 37.75Q63.8 38.8 62.05 39.25Q60.2 39.6 55.5 38.1L54.25 36.75L54.15 36.75L53.95 37.55L53.1 37.15Q51.7 36.5 50.6 35.7L49.6 34.9L48.1 33.25L47.9 33.1L46.9 31.6L46.7 30.9L45.35 31.35Q44.35 31.85 43.35 33.05L43.25 33.1Q41.4 35 41.05 37.15Q40.65 39.25 41 40.65L39 40.8L38.4 40.65Q37.45 40.3 36.4 39.6Q34.05 38 32.7 34.6L32.3 33.5Q31.95 33.75 31.8 34.95L31.65 35.85L31.55 37.35M47.9,-5.2L48 -5.2L48 -5.3L47.9 -5.2" />
<path style="fill:#644638;fill-opacity:1" d="M41.05,0.7Q38.55 4.15 36.55 4.25L36.55 4.5Q39.35 5.45 44.7 1.7L44.9 1.65Q46.35 1.05 48.1 -0.25L51.45 -2.95L51.4 -1.5Q51.3 -0.35 51.55 0.5Q51.8 1.65 53.2 2.95L56.05 5.25L59.35 7.1Q61.2 9.25 62.8 12.1L62.9 12.2L63.25 12.8Q65.7 17.4 62.65 20.7Q59.45 24.15 58.65 26.7Q58.15 28.3 58.65 30.5Q54.5 26.6 54.5 24.75L54.3 25.95L54.15 26.95Q53.8 29 54.35 30.25L54.35 30.5L54.3 30.5Q51.55 29.8 49.05 27L48.35 26.05Q48.25 25.7 48.45 25.05Q48.6 24.45 49.75 23.55L50.1 23.3Q49.75 23 49 22.95L47.9 22.95Q47.05 22.85 44.9 24Q42.7 24.95 40.2 27.45Q38.4 29.15 37.75 31.25L37.35 33.2L37 36.8L35.2 33.8L34.5 32.2L34.3 31.8L32.85 28.4L32.6 28.75Q32.95 26.35 33.95 24.35L34.65 23.25L35.85 21.55Q32.3 21.65 29.8 24.85L29.2 25.7Q28.45 26.8 27.95 28.05Q27.2 30 27.1 32.35L27.05 33.25L27.2 35L27.75 37.05L26.45 36.95L26.25 36.75L25.75 36.2Q24.3 34.4 23.4 30.3L23.2 30.6L23.3 27.45L23.05 24.85L22.6 22.25Q22.25 23.1 21.65 25.65Q20.8 28 19.25 29.2Q17.85 30.25 13.6 31L13.35 30.75Q16.55 28.85 17.75 25.2L16.65 24.4Q15.35 21.9 15.35 19.65L15.7 17.5Q15.95 18.1 17.95 19.85L17.05 18Q16.9 17.25 16.9 15L17.05 10.9L17.05 10.05L19.5 11.7L22.35 12.9L24.95 13.5L25.55 13.6L23.85 11L22.8 9.1L22.8 9Q22.8 7.7 23.5 5.2Q24.15 2.85 24.6 2.4L24.7 2.4L25.75 4.05L27.55 5.95L28.35 6.55L28.4 6.75L29.9 8.55L30.05 6.9Q30.65 2.75 33.8 -0.2L34.75 -1.05L37.1 -2.35Q39.75 -3.55 41.25 -3.55L41.25 -2.8Q38.65 0.6 36.9 1.55L36.9 1.65L37.35 1.65Q39.7 1.45 41.75 -0.25L41.05 0.7M54.6,11.95L56.05 15.35L56.5 16.8Q57.3 16 57 13.25Q56.75 10.45 54.4 8.75Q52 7 51.75 7.6Q53.45 9.5 54.6 11.95M34.3,11.1Q33.55 11.7 33.6 12.8Q33.8 14.8 30.95 16.1L33.25 16.3Q34.65 16.3 35.6 15.25Q36.5 14.2 36.5 12.75Q36.5 11.35 35.6 10.4L35.6 10.55Q34.9 10.55 34.3 11.1" />
<path style="fill:#9C753C;fill-opacity:1" d="M31.55,38L31.55 37.35L31.65 35.85L31.9 36.1Q33.7 38.4 35.7 39.95Q39.15 42.6 42.7 42.7Q45.75 42.7 48.85 40.8L50.8 39.5L51.45 38.9L52.05 38.35L52.35 38.05L53.1 37.15L53.95 37.55L53.55 39.1L52.6 40.1L52.15 40.55L50.5 41.85L49.2 42.7Q47.05 44.1 43.85 44.45L42.8 44.55Q40.05 44.55 37.35 43.15L36.25 42.55L36.25 42.5L35.85 41.5L35.4 40.7Q34 39 31.55 38" />
</g>
</svg>
