<?xml version="1.0" encoding="utf-8"?>
<svg version="1.1" id="Layer_1"
xmlns="http://www.w3.org/2000/svg"
xmlns:xlink="http://www.w3.org/1999/xlink"
xmlns:author="http://www.sothink.com"
width="52px" height="62px"
xml:space="preserve">
<g id="3021" transform="matrix(1, 0, 0, 1, 0, 0)">
<path style="fill:#0E0A0B;fill-opacity:1" d="M45.5,41.4L46.4 39.05Q47.2 35.9 45.45 32.5Q43.7 29.1 43.35 26.5Q42.95 23.85 43.55 21.75Q44.15 19.55 45.35 18.45L47.65 16.5Q48.75 15.6 49.55 14.1Q50.3 12.55 50.35 10.1L50.35 9.25L50.2 6.45Q50.05 5.2 49.5 3.65Q48.9 2.05 48.7 2.3L48 3.4Q46.05 6.2 43.8 7.15L42.8 7.5L43.15 7.9L40.45 7.25L35.1 7.1Q32.75 7.95 31.35 10.2Q29.85 12.4 29.45 15Q29 17.55 28.25 19.4L26.8 22.4L25.95 23.55L24.25 25.45Q22.35 27.35 17.8 29.25Q18.9 29.85 19.3 30.75Q19.7 31.6 17.05 30.35L10.1 30.05Q9 30.25 7.9 30.9L6.1 32.15L4.65 32.7L4.9 32.05Q5.5 30.8 7.35 29.7Q10.3 27.95 12.65 28.1L16.25 28.4Q17.55 28.5 20.4 26.7Q23.25 24.9 25.25 22.6L25.3 22.6Q27.3 20.25 28.35 14Q29.35 7.7 35.9 5.75Q38.85 5.1 41.7 6.55L42.75 6.25Q45.25 5.25 46.9 2.8L47.7 1.4Q48.5 -1.25 49.8 1.15Q51.1 3.5 51.45 7.5L51.45 7.55Q51.75 11.45 50.8 14.3Q49.75 17.1 47.55 18.2Q45.3 19.3 44.75 23.15Q44.15 27 46.2 30.95Q48.25 34.9 47.7 39.3Q47.35 42.25 45.6 44.1Q45.75 42.6 45.5 41.4" />
<path style="fill:#2E2427;fill-opacity:1" d="M38.05,35.85L34.45 36.25Q33.45 36.55 32.2 37.25Q30.9 37.95 30.35 38.3Q27.7 34.5 24.45 33.75L20.9 33.4L16.25 33.15Q15.75 32.05 13.2 31Q10.55 30.25 7.9 30.9Q9 30.25 10.1 30.05L17.05 30.35Q19.7 31.6 19.3 30.75Q18.9 29.85 17.8 29.25Q22.35 27.35 24.25 25.45L25.95 23.55L27.2 25.25Q32.9 27.9 37.8 25.55Q37.95 27.4 39.2 29.25L41.8 32.05L41.8 32.25Q42.15 34.95 40.8 36.35Q39.4 35.8 38.05 35.85M45.2,12.05L45.2 11.85Q45.75 8.9 43.8 7.15Q46.05 6.2 48 3.4L48.7 2.3Q48.9 2.05 49.5 3.65Q50.05 5.2 50.2 6.45L50.35 9.25Q48.5 11.35 45.2 12.05" />
<path style="fill:#201619;fill-opacity:1" d="M13.2,31Q15.75 32.05 16.25 33.15L20.9 33.4L18.95 33.6L16.7 34.35L15.35 34.95L14.95 35.15L14.75 34.7Q13.7 32.75 9.2 31.85L6.1 32.15L7.9 30.9Q10.55 30.25 13.2 31M43.55,38Q42.15 36.85 40.8 36.35Q42.15 34.95 41.8 32.25L41.8 32.05L39.2 29.25Q37.95 27.4 37.8 25.55Q32.9 27.9 27.2 25.25L25.95 23.55L26.8 22.4L28.25 19.4Q29 17.55 29.45 15Q29.85 12.4 31.35 10.2Q32.75 7.95 35.1 7.1L40.45 7.25L43.15 7.9L42.8 7.5L43.8 7.15Q45.75 8.9 45.2 11.85L45.2 12.05Q48.5 11.35 50.35 9.25L50.35 10.1Q50.3 12.55 49.55 14.1Q48.75 15.6 47.65 16.5L45.35 18.45Q44.15 19.55 43.55 21.75Q42.95 23.85 43.35 26.5Q43.7 29.1 45.45 32.5Q47.2 35.9 46.4 39.05L45.5 41.4Q45.1 39.25 43.55 38" />
<path style="fill:#000000;fill-opacity:1" d="M40.8,36.35Q42.15 36.85 43.55 38Q45.1 39.25 45.5 41.4Q45.75 42.6 45.6 44.1L45.25 47.4Q44.85 50.1 42.4 53.2Q39.95 56.3 35.45 58.05Q30.95 59.8 29.7 59.15Q28.45 58.5 27.3 56.35L20.1 60.3L15.8 61.75Q13.75 62.1 12.55 61.75L10.25 60.2Q8 58.2 7.15 55.2L6.95 54.45L6.15 50.9Q2.8 49.4 1.6 47.25Q0.4 45.05 0.15 43.65Q-0.1 42.25 0.1 40.85Q0.35 38.55 1.65 35.95Q2.75 33.75 4.65 32.7L6.1 32.15L9.2 31.85Q13.7 32.75 14.75 34.7L14.95 35.15L15.35 34.95L16.7 34.35L18.95 33.6L20.9 33.4L24.45 33.75Q27.7 34.5 30.35 38.3Q30.9 37.95 32.2 37.25Q33.45 36.55 34.45 36.25L38.05 35.85Q39.4 35.8 40.8 36.35M40.05,37.4L39.75 37.25Q35.2 35.6 30.7 39.25L30.55 39.4Q29.45 40.3 28.8 41.6Q27 45.1 27.05 48.8L27.15 49.85L27.5 51.9L28.35 54.25L29 55.45Q29.75 56.75 31.25 56.7L35.5 55.55Q41.75 53.3 43.7 47.45Q44.5 45.15 44.55 42.75L44.35 41.15Q43.6 38.85 40.05 37.4M2.3,45.35Q3.5 47.65 6.7 49L6.85 47.85Q7.15 45.9 7.6 44.45Q9.45 38.65 13.85 35.6L13.5 34.85L12.05 33.95Q10.1 33.05 7.75 33.25Q5.4 33.4 3.9 35.05Q2.4 36.65 1.7 39.6Q1.35 41.1 1.45 42.5Q1.6 44 2.3 45.35M9.2,56.4Q10.2 58.35 12 59.7Q13.75 61.35 19.25 58.55L26.6 54.5L26.45 53.35L26.15 51.2L26.1 50.5Q25.8 47.7 26.4 45.05Q27.1 42.3 28.8 39.85L29.45 39Q29.95 38.2 26.95 36.55Q23.95 34.9 21.85 34.65Q19.7 34.4 17.45 35.2Q16.15 35.7 14.75 36.6Q8.75 40.45 8.05 48.35L7.95 50.85Q8.05 54.1 9.2 56.4" />
<path style="fill:#232323;fill-opacity:1" d="M27.8,52.25Q39.35 53.75 40.9 42.4L40.95 41.95Q36.3 38.2 30.55 39.4L30.7 39.25Q35.2 35.6 39.75 37.25L40.05 37.4Q43.6 38.85 44.35 41.15Q43.85 46.7 40.9 50.3Q37.9 53.9 32.2 55.25Q29.95 55.25 28.35 54.25L27.5 51.9L27.8 52.25M1.45,42.5Q2.7 43.5 4.3 43.9Q4.65 40.3 7.55 37.7Q10.1 35.35 13.5 34.85L13.85 35.6Q9.45 38.65 7.6 44.45Q7.15 45.9 6.85 47.85L6.7 49Q3.5 47.65 2.3 45.35Q1.6 44 1.45 42.5M9.2,56.4Q8.05 54.1 7.95 50.85Q8.6 51.8 9.75 52.65Q11 53.55 12.85 53.25Q20.05 52.35 20.75 48.25Q20.65 43.25 24.25 38.7L24.35 38.65L22.6 37.1Q20.4 35.55 17.45 35.2Q19.7 34.4 21.85 34.65Q23.95 34.9 26.95 36.55Q29.95 38.2 29.45 39L28.8 39.85Q27.1 42.3 26.4 45.05Q25.8 47.7 26.1 50.5L26.15 51.2L25.4 51.85Q20.2 56.55 14.6 58.1Q11.15 58.9 9.2 56.4" />
<path style="fill:#414141;fill-opacity:1" d="M32.2,55.25Q37.9 53.9 40.9 50.3Q43.85 46.7 44.35 41.15L44.55 42.75Q44.5 45.15 43.7 47.45Q41.75 53.3 35.5 55.55L31.25 56.7Q29.75 56.75 29 55.45L28.35 54.25Q29.95 55.25 32.2 55.25M27.5,51.9L27.15 49.85L27.05 48.8Q27 45.1 28.8 41.6Q29.45 40.3 30.55 39.4Q36.3 38.2 40.95 41.95L40.9 42.4Q39.35 53.75 27.8 52.25L27.5 51.9M7.55,37.7Q4.65 40.3 4.3 43.9Q2.7 43.5 1.45 42.5Q1.35 41.1 1.7 39.6Q2.4 36.65 3.9 35.05Q5.4 33.4 7.75 33.25Q10.1 33.05 12.05 33.95L13.5 34.85Q10.1 35.35 7.55 37.7M22.6,37.1L24.35 38.65L24.25 38.7Q20.65 43.25 20.75 48.25Q20.05 52.35 12.85 53.25Q11 53.55 9.75 52.65Q8.6 51.8 7.95 50.85L8.05 48.35Q8.75 40.45 14.75 36.6Q16.15 35.7 17.45 35.2Q20.4 35.55 22.6 37.1M14.6,58.1Q20.2 56.55 25.4 51.85L26.15 51.2L26.45 53.35L26.6 54.5L19.25 58.55Q13.75 61.35 12 59.7Q10.2 58.35 9.2 56.4Q11.15 58.9 14.6 58.1M6.75,34.6Q4.25 35.3 3.2 38.1Q2.1 40.85 3.95 39.15Q6.35 36.3 7.8 35.1Q9.2 33.85 6.75 34.6M18.85,38.2Q18.4 37.55 17.65 37.4Q17.2 37.3 16.55 37.7Q15.5 38.3 13.85 40.25Q11.55 42.85 11.2 46.75L11.1 48.1Q11.35 49 13 48.65Q14.6 48.3 16.95 43.85L18.6 41.05Q19.5 39.9 19.15 38.8L18.85 38.2M28.85,46.3Q28.75 48.45 30.6 48.35Q32.5 48.3 34.15 45.35Q35.8 42.35 34.3 41.75Q32.75 41.1 32.1 41.2Q31.45 41.25 30.2 42.7Q28.9 44.1 28.85 46.3" />
<path style="fill:#6D6969;fill-opacity:1" d="M7.8,35.1Q6.35 36.3 3.95 39.15Q2.1 40.85 3.2 38.1Q4.25 35.3 6.75 34.6Q9.2 33.85 7.8 35.1M19.15,38.8Q19.5 39.9 18.6 41.05L16.95 43.85Q14.6 48.3 13 48.65Q11.35 49 11.1 48.1L11.2 46.75Q11.55 42.85 13.85 40.25Q15.5 38.3 16.55 37.7Q17.2 37.3 17.65 37.4Q18.4 37.55 18.85 38.2L19.15 38.8M30.2,42.7Q31.45 41.25 32.1 41.2Q32.75 41.1 34.3 41.75Q35.8 42.35 34.15 45.35Q32.5 48.3 30.6 48.35Q28.75 48.45 28.85 46.3Q28.9 44.1 30.2 42.7" />
</g>
</svg>
