<?xml version="1.0" encoding="utf-8"?>
<svg version="1.1" id="Layer_1"
xmlns="http://www.w3.org/2000/svg"
xmlns:xlink="http://www.w3.org/1999/xlink"
xmlns:author="http://www.sothink.com"
width="41px" height="32px"
xml:space="preserve">
<g id="1716" transform="matrix(1, 0, 0, 1, 6.1, 5.45)">
<path style="fill:#694817;fill-opacity:1" d="M24.1,3.85Q25.85 5.6 26.95 8.25L27.75 10.85L27.8 11.05L27.95 11.95L27.95 12.25L28 13.05L28.05 13.55L28.05 14.4L27.95 15.25Q27.95 15.85 26.85 17.6Q21 27 9.75 23.9Q8.35 23.5 6.6 22.35L5.25 21.45Q3 19.85 2.15 17.85L1.25 15.4L1.05 13.45Q0.95 11.9 1.1 10.55Q1.25 9.2 1.7 8L1.85 7.65Q2.2 6.75 2.7 5.95L3.2 5.2L4.25 3.95L5.6 2.7L5.7 2.65Q8.55 0.65 11.4 0.2L16.5 0Q18.8 0.25 20.55 1.15Q22.3 2.05 24.1 3.85M6.65,3.35L6.5 3.4L5.45 4.3L4.2 5.6L3.75 6.3L3.75 6.35L3.15 7.55L2.7 8.85L2.5 9.55L2.2 10.95Q1.95 12.5 2.1 14.05L2.55 15.8Q2.55 16.05 3.1 16.9L4 18.25Q6.7 22 11.15 22.95L11.7 23.05Q15.65 23.7 20.25 21.95Q23.05 20.9 24.6 19.05Q25.9 17.5 26.85 14.5L26.95 14.1L26.75 11.85L26.55 11L26.35 10.45L26.15 9.7L26 9.2Q24.8 6.1 23.2 4.5L21.45 3Q20.2 2.2 19.15 1.75L17.8 1.3L12.6 1.05L10.85 1.4L9.2 1.9L8.9 2.05Q8.55 2.1 7.55 2.7L7.3 2.85Q6.5 3.25 6.65 3.35M8.9,2.05L8.95 2L8.9 2.05" />
<path style="fill:#FBF734;fill-opacity:1" d="M25.9,9.15Q25.05 8.55 24.25 8.3L23.15 8.1L22.35 7.9L21.8 7.8L21.8 7.7L22.55 7.25L22.25 6.65L20.75 5.05L19.3 3.75L18.25 3.4L16.9 3.5L16.8 3.5L16.65 3.45L16.45 3.55L16.25 3.55L16.4 3.55Q14.85 4.25 14.5 6L14.45 5.55Q14.3 4.2 15 3.1L14.8 3.05L14.65 3.05Q13.35 3.2 12.4 3.95L11.75 4.55Q11.7 4.05 12.55 2.95L13.1 2.4L13.1 2.35L13 2.35L12.9 2.4L12.85 2.4L12.9 2.35L12.2 2.3L12.15 2.3L10.25 2.15L7.3 2.85L7.55 2.7Q8.55 2.1 8.9 2.05L9.2 1.9L10.85 1.4L12.6 1.05L17.8 1.3L19.15 1.75Q20.2 2.2 21.45 3L23.2 4.5Q24.8 6.1 26 9.2L25.9 9.15" />
<path style="fill:#FED009;fill-opacity:1" d="M25.4,11.35L25.4 11.45L25.5 11.85Q25.4 12.65 23.5 13.45L22.55 11.75L22.45 11.65L21.15 10.35L20.7 10L20.1 10.95L19.25 11.9L18.9 12.2L17.8 13.25Q17.35 13.7 16.65 12.5Q15.65 11.6 15.55 10.5Q15.2 10.8 14.15 12.75L13.85 12.55L13.8 12.65L13.6 12.35Q12.65 11.4 12.55 10.3L11.65 11.2L10.8 12.5L10.05 10.95L9.85 10.6L9.35 9.25L9.4 8.8L7.8 9.95L7.65 10.05L7.6 10.1Q6.35 11.4 6.35 12.9L6.4 13.2L5.7 12.4L5.55 12.15Q4.65 10.85 4.65 9.7L4.75 9.4L4 9.9Q3.25 10.45 2.9 11.4Q2.5 12.5 2.7 14.1L2.1 14.05Q1.95 12.5 2.2 10.95L2.5 9.55L2.7 8.85L3.15 7.55L3.75 6.35L3.75 6.3L4.2 5.6L5.45 4.3L6.5 3.4L6.65 3.35Q6.5 3.25 7.3 2.85L10.25 2.15L12.15 2.3L12.2 2.3L12.9 2.35L12.85 2.4L12.9 2.4L13 2.35L13.1 2.35L13.1 2.4L12.55 2.95Q11.7 4.05 11.75 4.55L12.4 3.95Q13.35 3.2 14.65 3.05L14.8 3.05L15 3.1Q14.3 4.2 14.45 5.55L14.5 6Q14.85 4.25 16.4 3.55L16.25 3.55L16.45 3.55L16.65 3.45L16.8 3.5L16.9 3.5L18.25 3.4L19.3 3.75L20.75 5.05L22.25 6.65L22.55 7.25L21.8 7.7L21.8 7.8L22.35 7.9L23.15 8.1L24.25 8.3Q25.05 8.55 25.9 9.15L26 9.2L26.15 9.7L26.35 10.45L26.55 11L26.75 11.85Q26.15 11.5 25.4 11.35M16,10.05L16.05 10.05L16.05 9.8L16 10.05M8.95,2L8.9 2.05L8.95 2" />
<path style="fill:#D48D01;fill-opacity:1" d="M26.75,11.85L26.95 14.1L26.85 14.5Q25.9 17.5 24.6 19.05Q23.05 20.9 20.25 21.95Q15.65 23.7 11.7 23.05L11.15 22.95Q6.7 22 4 18.25L3.1 16.9Q2.55 16.05 2.55 15.8L2.1 14.05L2.7 14.1Q2.5 12.5 2.9 11.4Q3.25 10.45 4 9.9L4.75 9.4L4.65 9.7Q4.65 10.85 5.55 12.15L5.7 12.4L6.4 13.2L6.35 12.9Q6.35 11.4 7.6 10.1L7.65 10.05L7.8 9.95L9.4 8.8L9.35 9.25L9.85 10.6L10.05 10.95L10.8 12.5L11.65 11.2L12.55 10.3Q12.65 11.4 13.6 12.35L13.8 12.65L13.85 12.55L14.15 12.75Q15.2 10.8 15.55 10.5Q15.65 11.6 16.65 12.5Q17.35 13.7 17.8 13.25L18.9 12.2L19.25 11.9L20.1 10.95L20.7 10L21.15 10.35L22.45 11.65L22.55 11.75L23.5 13.45Q25.4 12.65 25.5 11.85L25.4 11.45L25.4 11.35Q26.15 11.5 26.75 11.85M16.05,9.8L16.05 10.05L16 10.05L16.05 9.8" />
<path style="fill:#76838C;fill-opacity:1" d="M26.9,14.1L27.05 14.25L26.95 14.2L26.85 14.1L26.9 14.1" />
<path style="fill:#4F433E;fill-opacity:1" d="M20.15,-0.55L20.5 -0.4L21.25 -0.05Q23.3 0.85 24.95 2.3Q26.25 3.4 27.45 5.65L27.65 5.5Q28.7 4.7 29.55 5.1Q30.4 5.5 30.65 5.75L31.55 6.85Q32.2 7.7 32.6 9.55Q32.95 11.35 32.4 12.7L31.1 14.7Q30.45 15.3 29.1 15.3L27.6 18.7Q25.65 21.95 23.7 23.05L20.25 24.7Q18.7 25.3 16.3 25.6Q13.85 25.9 11.2 25.6Q8.55 25.25 6.75 24.35Q4.95 23.35 3.25 21.95Q1.7 20.65 0.65 17.85Q-0.35 18.5 -1.85 17.65Q-3.4 16.75 -3.9 14.75Q-4.4 12.7 -3.9 11.15L-3.05 9.15L-2.25 8.3Q-1.8 7.9 -1.2 7.7Q-0.65 7.45 0.3 7.95Q0.7 6.45 1.75 4.75Q2.8 3.05 4.35 1.85Q5.55 0.85 7.7 -0.2L7.2 0.15L7.15 0.2Q8.85 -0.75 10.3 -1L10.7 -1.05L10.85 -1.1L14.65 -1.6L16.05 -1.45L17.4 -1.25L17.3 -1.35L20.05 -0.7L20.15 -0.55M27.5,8.05L27.4 8.45Q27.15 9.55 27.25 11.25Q27.3 12.15 27.5 12.75L28 13.75Q28.45 14.2 29.15 14.15L29.4 14.1Q30.1 13.85 30.6 13.35L30.75 13.2L30.85 13.1L31.25 12.25L31.35 12.05L31.5 11.6L31.55 10.95L31.6 10.95L31.6 10.75L31.6 10.25L31.5 9.5L31.45 9.4L31.45 9.35Q31.1 7.9 29.95 6.8Q29 5.85 28.3 6.5L28.05 6.75L28 6.9L27.95 6.9L27.9 7L27.9 7.05L27.5 8.05M1.85,7L1.45 8.25L1.3 8.7Q1.9 9.4 2.25 10.8Q2.7 12.45 2.55 14.2L2.1 16.45L2.1 16.55L1.65 17.2Q2.55 19.35 4.5 21.15Q8.2 24.5 12.55 24.55L17.55 24.2L17.6 24.2L18.9 23.95Q24.75 21.95 26.75 17.9L27.8 15L27.4 14.65L27.3 14.55L27.25 14.4L27.05 14.25L26.9 14.1L26.85 13.95Q26.4 13.25 26.2 11.75L26.1 10.65Q26 9.45 26.2 8.35L26.5 7.2L26.65 6.7L24.7 4L23.3 2.65Q21.2 0.8 17.95 0.05Q14.7 -0.75 10.8 0.15L9.3 0.55L8.55 0.85L6.95 1.65Q5.75 2.25 4.2 3.8Q2.6 5.35 2.1 6.5L1.85 7M-2.85,14L-2.8 14.5L-2.5 15.15L-2.05 15.9L-2 15.95L-1.75 16.15Q-1.1 16.7 -0.2 16.85L0.3 16.8L1.2 15.9L1.45 13.8L1.4 12.85L1 10.6L0.4 9.55L0.05 9.2L-0.05 9.1L-0.4 8.95Q-0.85 8.85 -1.35 9.3L-1.65 9.6L-2.6 11.15L-2.95 12.3L-2.95 12.4L-3 13.2L-2.95 13.65L-2.9 13.85L-2.85 14" />
<path style="fill:#AA912B;fill-opacity:1" d="M17.4,-1.25L16.05 -1.45L14.65 -1.6L10.85 -1.1L10.7 -1.05Q11.75 -2.6 13.8 -3.7Q15.55 -3.6 17.3 -1.35L17.4 -1.25" />
<path style="fill:#FFFFFF;fill-opacity:1" d="M29.95,6.8Q31.1 7.9 31.45 9.35L31.3 9Q31.2 8.8 30.5 8.7Q29.8 8.6 29.9 8.15L29.75 7.15Q29.45 6.55 28.3 6.5Q29 5.85 29.95 6.8M19.95,1.9L18.4 1.5Q18.25 2.85 17.85 3.15L16.6 3.4Q15.8 3.4 15.3 2.9Q14.75 2.4 14.75 1.8L13.4 1.6Q9.3 1.4 6.25 3.4Q3.15 5.4 2.1 6.5Q2.6 5.35 4.2 3.8Q5.75 2.25 6.95 1.65L8.55 0.85L9.3 0.55L10.8 0.15Q14.7 -0.75 17.95 0.05Q21.2 0.8 23.3 2.65L24.7 4Q21.85 2.4 19.95 1.9" />
<path style="fill:#EEDED3;fill-opacity:1" d="M31.45,9.4L31.5 9.5L31.6 10.25L31.6 10.75L31.6 10.95L30.95 9.65L29.6 9.55Q29.05 9.2 29.25 8.6Q29.4 7.95 29.15 7.65L28.75 7.2L28.3 6.5Q29.45 6.55 29.75 7.15L29.9 8.15Q29.8 8.6 30.5 8.7Q31.2 8.8 31.3 9L31.45 9.35L31.45 9.4M1.45,8.25L1.85 7L2.1 6.5Q3.15 5.4 6.25 3.4Q9.3 1.4 13.4 1.6L14.75 1.8Q14.75 2.4 15.3 2.9Q15.8 3.4 16.6 3.4L17.85 3.15Q18.25 2.85 18.4 1.5L19.95 1.9Q21.85 2.4 24.7 4L26.65 6.7L26.5 7.2L24.35 5.85L19.65 3.8Q19.5 3.8 18.9 5.1Q18.3 6.35 16.25 6.35Q14.4 6.35 13.45 5.15Q12.9 4.5 13.15 3.75L12.25 3.75L10.1 4.2Q8.25 4.75 7.15 5.5Q5.2 6.75 3.85 7.9L2.75 8.9L2.2 8.55L1.45 8.25M-1.15,10.85L-0.9 11.65L-0.95 12.3L-1.55 12.35L-2.45 12L-2.9 12.35L-2.95 12.4L-2.95 12.3L-2.6 11.15L-2.05 11.5L-1.5 11.45L-1.45 10.85L-1.7 10.25Q-1.7 9.7 -1.35 9.3Q-0.85 8.85 -0.4 8.95L-0.3 9.15L-0.25 9.25Q-1.15 10.15 -1.15 10.85" />
<path style="fill:#CBB4AC;fill-opacity:1" d="M27.9,7.05L27.9 7L27.95 6.9L28 6.9L28.05 6.75L28.3 6.5L28.75 7.2L29.15 7.65Q29.4 7.95 29.25 8.6Q29.05 9.2 29.6 9.55L30.95 9.65L31.6 10.95L31.55 10.95L31.5 11.6L31.35 12.05L30.3 12.1Q29.15 12.1 28.4 10.9Q27.75 9.85 27.75 8.55L27.8 8.35L27.5 8.05L27.9 7.05M27.5,12.75Q27.85 13.1 28.6 13.25L29.45 13.35L30.75 13.2L30.6 13.35Q30.1 13.85 29.4 14.1L29.15 14.15Q28.45 14.2 28 13.75L27.5 12.75M22.7,12.65Q18.35 14.5 12.8 14.5L7.65 13.9Q5.75 13.5 5.3 13.15L4.9 12.25L3.95 10.2L2.75 8.9L3.85 7.9Q5.2 6.75 7.15 5.5Q8.25 4.75 10.1 4.2L12.25 3.75L13.15 3.75Q12.9 4.5 13.45 5.15Q14.4 6.35 16.25 6.35Q18.3 6.35 18.9 5.1Q19.5 3.8 19.65 3.8L24.35 5.85L26.5 7.2L26.2 8.35Q26 9.45 26.1 10.65Q25.6 11.4 22.7 12.65M27.3,14.55L27.4 14.65L27.8 15L26.75 17.9Q24.75 21.95 18.9 23.95L17.6 24.2L17.55 24.2L12.55 24.55Q8.2 24.5 4.5 21.15Q2.55 19.35 1.65 17.2L2.1 16.55Q6.7 22.85 13 22.8Q17.9 22.75 20.6 21.55Q25.8 18.45 27.3 14.55M-2.9,13.85L-2.95 13.65L-3 13.2L-2.95 12.4L-2.9 12.35L-2.45 12L-1.55 12.35L-0.95 12.3L-0.9 11.65L-1.15 10.85Q-1.15 10.15 -0.25 9.25Q0.2 10.15 0.2 11.25Q0.2 12.85 -0.4 13.5Q-0.95 14.1 -2.25 14.1L-2.85 14L-2.9 13.85M-2.05,15.9Q-0.25 15.75 0.75 14.4L1.4 12.85L1.45 13.8L1.2 15.9L0.3 16.8L-0.2 16.85Q-1.1 16.7 -1.75 16.15L-2 15.95L-2.05 15.9" />
<path style="fill:#A69089;fill-opacity:1" d="M29.45,13.35L28.6 13.25Q27.85 13.1 27.5 12.75Q27.3 12.15 27.25 11.25Q27.15 9.55 27.4 8.45L27.5 8.05L27.8 8.35L27.75 8.55Q27.75 9.85 28.4 10.9Q29.15 12.1 30.3 12.1L31.35 12.05L31.25 12.25L30.85 13.1L30.75 13.2L29.45 13.35M2.2,8.55L2.75 8.9L3.95 10.2L4.9 12.25L5.3 13.15Q5.75 13.5 7.65 13.9L12.8 14.5Q18.35 14.5 22.7 12.65Q25.6 11.4 26.1 10.65L26.2 11.75Q26.4 13.25 26.85 13.95L26.9 14.1L26.85 14.1L26.95 14.2L27.05 14.25L27.25 14.4L27.3 14.55Q25.8 18.45 20.6 21.55Q17.9 22.75 13 22.8Q6.7 22.85 2.1 16.55L2.1 16.45L2.55 14.2Q2.7 12.45 2.25 10.8Q1.9 9.4 1.3 8.7L1.45 8.25L2.2 8.55M0.75,14.4Q-0.25 15.75 -2.05 15.9L-2.5 15.15L-2.8 14.5L-2.85 14L-2.25 14.1Q-0.95 14.1 -0.4 13.5Q0.2 12.85 0.2 11.25Q0.2 10.15 -0.25 9.25L-0.3 9.15L-0.4 8.95L-0.05 9.1L0.05 9.2L0.4 9.55L1 10.6L1.4 12.85L0.75 14.4" />
<path style="fill:#723C13;fill-opacity:1" d="M10.3,-1Q8.85 -0.75 7.15 0.2L7.2 0.15L7.7 -0.2Q10.6 -3.75 14 -5.45Q17.6 -4.1 20.05 -0.7L17.3 -1.35Q15.55 -3.6 13.8 -3.7Q11.75 -2.6 10.7 -1.05L10.3 -1" />
<path style="fill:#FFFFF6;fill-opacity:1" d="M-1.65,9.6L-1.35 9.3Q-1.7 9.7 -1.7 10.25L-1.45 10.85L-1.5 11.45L-2.05 11.5L-2.6 11.15L-1.65 9.6" />
<path style="fill:#723C13;fill-opacity:1" d="M29.25,4.75L28.95 4.8Q28.1 5.95 27.65 7.25L27.4 8.05Q26.9 9.7 26.95 10.2Q29.15 10.1 31.45 9.15L31.8 8.25L32.05 7.2L32.2 6.75L32.5 5.85L33.15 3.3L30.95 4Q30.15 4.25 29.25 4.75M34,5.55L33.7 6.8L33.15 8.5L32.6 9.6Q30.3 11.55 26.15 11.3L25.75 11.2Q25.8 8.75 26.4 6.9L26.95 5.4Q27.4 4.2 27.6 4.05L28.5 3.55L30.35 2.8L31.9 2.3L34.6 1.7Q35.05 1.7 34 5.55M2.9,13.6L2.5 13.7Q-1.65 13.95 -3.95 12L-4.5 10.9L-5.05 9.2L-5.35 7.95Q-6.4 4.1 -5.95 4.1L-3.25 4.7L-1.7 5.2Q-0.55 5.6 0.15 5.95L1.05 6.45L1.7 7.8L2.25 9.3Q2.85 11.15 2.9 13.6M-2.3,6.4L-4.5 5.7L-3.85 8.25L-3.55 9.15L-3.4 9.6L-3.15 10.65L-2.8 11.55Q-0.5 12.5 1.7 12.6L1.25 10.45L1 9.65Q0.55 8.35 -0.3 7.2L-0.6 7.15Q-1.5 6.65 -2.3 6.4" />
<path style="fill:#FFE687;fill-opacity:1" d="M32.6,5.2L31.75 5.3Q31.85 4.45 31.05 4L30.95 4L33.15 3.3L32.5 5.85L32.6 5.2M-2.4,6.4Q-3.2 6.85 -3.1 7.7L-3.95 7.6L-3.85 8.25L-4.5 5.7L-2.3 6.4L-2.4 6.4" />
<path style="fill:#C6A831;fill-opacity:1" d="M29.25,4.75Q30.15 4.25 30.95 4L31.05 4Q31.85 4.45 31.75 5.3L32.6 5.2L32.5 5.85L32.2 6.75L32.05 7.2L31.3 7.4L31.6 6.3L31.4 6.2L30.7 6.35L30.6 6.35L30.95 5.5L30.35 5.05L29.7 4.85L29.35 4.8L29.15 4.9L29.25 4.75M-2.3,6.4Q-1.5 6.65 -0.6 7.15L-0.5 7.3L-0.7 7.2L-1.05 7.25L-1.7 7.45L-2.3 7.9L-1.95 8.75L-2.05 8.75L-2.75 8.6L-2.95 8.7L-2.65 9.8L-3.4 9.6L-3.55 9.15L-3.85 8.25L-3.95 7.6L-3.1 7.7Q-3.2 6.85 -2.4 6.4L-2.3 6.4" />
<path style="fill:#AA912B;fill-opacity:1" d="M29.15,4.9L29.35 4.8L29.7 4.85L30.35 5.05L30.95 5.5L30.6 6.35L30.7 6.35L31.4 6.2L31.6 6.3L31.3 7.4L30.6 7.6L29.15 7.45L28.95 6.8L29 6.05L29.15 5.05L29.15 4.9M-0.5,7.3L-0.5 7.45L-0.35 8.45L-0.3 9.2L-0.5 9.85L-1.95 10L-2.65 9.8L-2.95 8.7L-2.75 8.6L-2.05 8.75L-1.95 8.75L-2.3 7.9L-1.7 7.45L-1.05 7.25L-0.7 7.2L-0.5 7.3" />
<path style="fill:#956823;fill-opacity:1" d="M29.15,4.9L29.15 5.05L29 6.05L28.95 6.8L29.15 7.45L30.6 7.6L31.3 7.4L32.05 7.2L31.8 8.25L31.45 9.15Q29.15 10.1 26.95 10.2Q26.9 9.7 27.4 8.05L27.65 7.25Q28.1 5.95 28.95 4.8L29.25 4.75L29.15 4.9M-2.65,9.8L-1.95 10L-0.5 9.85L-0.3 9.2L-0.35 8.45L-0.5 7.45L-0.5 7.3L-0.6 7.15L-0.3 7.2Q0.55 8.35 1 9.65L1.25 10.45L1.7 12.6Q-0.5 12.5 -2.8 11.55L-3.15 10.65L-3.4 9.6L-2.65 9.8" />
</g>
</svg>
