<?xml version="1.0" encoding="utf-8"?>
<svg version="1.1" id="Layer_1"
xmlns="http://www.w3.org/2000/svg"
xmlns:xlink="http://www.w3.org/1999/xlink"
xmlns:author="http://www.sothink.com"
width="66px" height="15px"
xml:space="preserve">
<g id="1545" transform="matrix(1, 0, 0, 1, 0, 0)">
<linearGradient
id="LinearGradID_1809" gradientUnits="userSpaceOnUse" gradientTransform="matrix(0, 0.0078125, -0.00686646, 0, 5.65, 7.5)" spreadMethod ="pad" x1="-819.2" y1="0" x2="819.2" y2="0" >
<stop  offset="0" style="stop-color:#FFF980;stop-opacity:1" />
<stop  offset="1" style="stop-color:#E7950A;stop-opacity:1" />
</linearGradient>
<path style="fill:url(#LinearGradID_1809) " d="M65.05,1.7Q65.05 2.35 64.6 2.8L64.6 2.85Q64.1 3.25 63.3 3.25L57.9 3.25L57.9 5.4L62.85 5.4Q63.65 5.4 64.1 5.8L64.15 5.85Q64.5 6.25 64.5 6.85Q64.5 7.5 64.15 7.95L64.1 8Q63.65 8.35 62.85 8.35L57.9 8.35L57.9 11.05L63.5 11.05Q64.3 11.05 64.75 11.4L64.8 11.45Q65.25 11.9 65.25 12.55Q65.25 13.3 64.8 13.7Q64.3 14.1 63.5 14.1L56.4 14.1Q55.35 14.1 54.9 13.6L54.85 13.55Q54.3 13.05 54.3 12L54.3 2.3L54.5 1.2L54.55 1.15L55.25 0.5L55.3 0.45L56.4 0.2L63.3 0.2Q64.1 0.2 64.6 0.65Q65.05 1 65.05 1.7M50.9,5.1Q50.4 5.55 49.7 5.55L49 5.45L48.9 5.4L48.3 4.85L48.3 4.8L47.55 3.75L46.75 3.2L46.8 3.2L45.55 3L44.15 3.25L43.1 4.1Q42.65 4.55 42.45 5.35L42.45 5.4Q42.15 6.15 42.15 7.1Q42.15 9.15 43.1 10.3Q44 11.3 45.6 11.3L47.2 11.1L48.45 10.6L48.45 9.3L46.9 9.3L45.55 9Q44.95 8.65 44.95 7.85Q44.95 7.2 45.4 6.75L45.45 6.75Q45.85 6.35 46.6 6.35L49.55 6.35L50.65 6.5Q51.1 6.6 51.5 7.05L51.55 7.1L51.8 8.35L51.8 10.85L51.75 11.7L51.75 11.75L51.25 12.5L51.25 12.55L50.45 13.05L48.1 14.05L45.6 14.3L42.75 13.85Q41.35 13.35 40.45 12.4Q39.5 11.4 39.05 10.15Q38.55 8.8 38.55 7.15Q38.55 5.55 39.05 4.25Q39.5 2.85 40.45 1.95Q41.35 0.95 42.75 0.5Q44.05 0 45.75 0L48.25 0.4Q49.3 0.75 50 1.35Q50.7 1.9 51.05 2.6L51.05 2.65Q51.45 3.3 51.45 3.9Q51.45 4.55 50.9 5.05L50.9 5.1M33.2,1.75L33.6 2.8L33.6 2.75L37 11.05L36.95 11.05L37.4 12.6Q37.4 13.25 36.85 13.8Q36.35 14.3 35.6 14.3L34.95 14.2L34.9 14.15Q34.5 14 34.3 13.7L33.95 13.05L33.95 13.1L33.65 12.3L33.65 12.35L33.15 11L28.6 11L28.15 12.4L28.1 12.4L27.4 13.8L27.4 13.85Q27 14.3 26.2 14.3Q25.5 14.3 25 13.85L24.95 13.8Q24.45 13.3 24.45 12.65L24.5 12.05L24.55 11.95L24.85 11.15L28.15 2.8L28.15 2.75L28.5 1.95L28.95 1L28.95 0.95L29.7 0.3Q30.15 0 30.85 0Q31.55 0 32 0.3L32 0.25L32.75 0.95L33.25 1.8L33.2 1.75M30.85,4.75L29.7 8.05L32.1 8.05L30.85 4.75M23.85,3L22.5 3.35L20.2 3.35L20.2 12.25Q20.2 13.3 19.65 13.8Q19.15 14.3 18.4 14.3Q17.6 14.3 17.15 13.8L17.1 13.75Q16.55 13.25 16.55 12.25L16.55 3.35L14.25 3.35Q13.3 3.35 12.95 3Q12.4 2.55 12.4 1.8Q12.4 1.05 12.95 0.65Q13.4 0.2 14.25 0.2L22.5 0.2Q23.4 0.2 23.9 0.65Q24.35 1.1 24.35 1.8L23.9 2.95L23.85 3M10.7,3.65L10.25 4.85Q9.8 5.35 9.05 5.35L8.05 5.05L8 5L7.4 4.15L7.4 4.1L6.7 3.15Q6.3 2.85 5.4 2.85Q4.6 2.85 4.1 3.2Q3.65 3.5 3.65 3.85L3.8 4.25L4.2 4.6L4.2 4.55L4.9 4.9L6.05 5.2L8.15 5.8Q9 6.1 9.7 6.55L9.75 6.55Q10.45 7.05 10.85 7.9Q11.25 8.6 11.25 9.75Q11.25 11.05 10.6 12.15Q9.9 13.15 8.65 13.75L8.6 13.75Q7.3 14.3 5.65 14.3Q3.55 14.3 2.25 13.55Q1.25 12.95 0.65 11.95L0.65 12Q0 11 0 10.05Q0 9.35 0.5 8.85Q0.9 8.4 1.7 8.4Q2.3 8.4 2.75 8.8L3.35 9.8L3.3 9.75L3.8 10.65L4.45 11.25L4.45 11.2L5.55 11.4Q6.5 11.4 7.15 10.95Q7.65 10.55 7.65 10L7.45 9.35L6.6 8.85L5 8.4Q3.5 8.1 2.6 7.6Q1.5 7.1 0.9 6.25Q0.25 5.4 0.25 4.1Q0.25 2.9 0.95 1.9L0.95 1.95Q1.55 1 2.8 0.5Q4 0 5.6 0Q6.9 0 7.85 0.35L9.45 1.25L10.35 2.4L10.35 2.35L10.7 3.65" />
<path style="fill:#FFFFFF;fill-opacity:1" d="M62.45,1.7Q62.55 1.1 63.25 0.9L63.25 0.85Q64.45 1.1 64.55 2.25L64.45 2.3Q63 3.1 62.45 1.7M55.25,1.7Q55.35 1.1 56.05 0.9L56.05 0.85Q57.25 1.1 57.35 2.25L57.25 2.3Q55.8 3.1 55.25 1.7M47.65,2.1L42.85 2.35Q42.15 2.9 42.45 1.95Q43.35 0.35 46.65 0.75L47.3 1Q47.85 1.2 48.25 1.6Q48.65 2.3 47.65 2.1M31.85,2.3Q30.4 3.1 29.85 1.7Q29.95 1.1 30.65 0.9L30.65 0.85Q31.85 1.1 31.95 2.25L31.85 2.3M23.7,2.1Q22.25 2.9 21.7 1.5Q21.8 0.9 22.5 0.7L22.5 0.65Q23.7 0.9 23.8 2.05L23.7 2.1M13.2,1.45Q13.3 0.85 14 0.65L14 0.6Q15.2 0.85 15.3 2L15.2 2.05Q13.75 2.85 13.2 1.45M6.65,0.75L7.3 1Q7.85 1.2 8.25 1.6Q8.65 2.3 7.65 2.1L2.85 2.35Q2.15 2.9 2.45 1.95Q3.35 0.35 6.65 0.75" />
</g>
</svg>
