<?xml version="1.0" encoding="utf-8"?>
<svg version="1.1" id="Layer_1"
xmlns="http://www.w3.org/2000/svg"
xmlns:xlink="http://www.w3.org/1999/xlink"
xmlns:author="http://www.sothink.com"
width="24px" height="26px"
xml:space="preserve">
<g id="2725" transform="matrix(1, 0, 0, 1, -30.9, 7.15)">
<path style="fill:#FFFFFF;fill-opacity:1" d="M43.75,-6Q42.35 -7.15 38.3 -3.15Q37.75 0.2 38.75 3.55L38.65 3.5L38.85 3.7L39.8 4L40 4.2L40.65 4.55L42.35 3.2L42.75 2.55Q42.7 2.15 43 1.9Q42.9 0 45.7 1.65L45.95 1.7L46.2 1.8L46.4 1.95L46.4 2.1L46.15 2.55L46.1 2.55L43.75 2.45L43.5 2.7L43.45 2.75L43.35 2.8L43 3.65Q42.7 4.6 41.95 5.15L42.3 5.35Q45.5 5.45 45.05 4.7Q45.45 5.3 44.45 5.95L43.45 6.9Q43.15 9.25 41.7 7.85L41.1 7.65L40.75 7.3L39.45 6L38.9 5.5Q37.95 6.35 36.6 6.25Q36.1 6.65 35.4 6.7Q34.9 7.1 34.05 7L34 6.95L35.8 5.35L35.75 5.25Q36.05 3.6 37.6 3.2L37.6 3.3L38.3 3.15L38.55 3.45L38.6 3.5L38.6 3.45Q36.75 0.65 37.65 -3.4Q38.85 -4.8 40.5 -5.9Q42.8 -8.1 44.7 -6.4Q46.65 -4.65 49.65 -3.6Q50.65 -3.9 51.85 -3.3L52.9 -2.6L53.7 -1.7Q55.2 0.05 54.4 1.6L54.45 3.5L54.85 4.15L54.65 4.7L54.65 4.8Q52.4 5.4 50.75 3.85L50.8 3.75Q51.1 3.7 51.05 3.1Q50.95 2.75 49.3 2.6L49.3 2.55Q50.45 1.8 51.8 2.9L53 3.35L53.75 3.2Q53.5 2.15 53.95 1.2L53.7 0.45Q53.15 -0.7 53.15 -1.35Q51.4 -2.7 49.4 -3.1Q47.45 -3.4 43.75 -6M43.3,1.65L43.25 1.75L43.3 1.85Q43.35 1.75 43.5 1.75L43.3 1.65M41.85,14.2Q42 11.3 43.65 9.45Q43.25 12 41.9 14.3L41.85 14.2M44.6,13.85Q43.7 15.05 41.65 15.4Q41.25 17.2 40.2 18.2Q40.25 19.05 37.85 18.2L37.45 18.15L37.3 18L37.2 18L35.95 17.45Q31.7 15.75 31 14.55Q30.8 14.05 31.05 13.45Q30.95 13.65 31 13.3L32.4 7.9Q32.65 8.7 32.4 9.75Q31.65 12.25 31.9 14.3Q32.35 15.2 34.55 16.1Q35.9 16.95 37.05 17.25Q40 18.5 40.5 16.55L41.45 14.85L41.8 14.7L42.25 14.6Q43.25 14 44.6 13.85M37.25,3.95L37.15 3.85L37.1 4.05L37.25 3.95M38.05,4.6L38.1 4.55L38.05 4.55L38.05 4.6" />
</g>
</svg>
