<?xml version="1.0" encoding="utf-8"?>
<svg version="1.1" id="Layer_1"
xmlns="http://www.w3.org/2000/svg"
xmlns:xlink="http://www.w3.org/1999/xlink"
xmlns:author="http://www.sothink.com"
width="21px" height="19px"
xml:space="preserve">
<g id="3110" transform="matrix(1, 0, 0, 1, 5.6, -19.45)">
<path style="fill:#DB2AF0;fill-opacity:1" d="M12.15,22.35Q12.6 21.35 12.9 21.3L12.95 21.2L13 21.5L12.55 22.8L11.8 23.9Q11.6 24.2 11.6 23.8Q11.6 23.3 12.15 22.35M14.2,30.45L14.4 30.35L14.6 31.1L14.25 31.3L14.1 31.15L14.05 30.8Q14.05 30.5 14.2 30.45M1.85,31.9L1.8 31.4L1.95 31Q2.15 30.75 2.4 30.75Q3.05 30.75 3.05 31.45L2.85 31.9L2.4 32.1L2.05 32.05L1.85 31.9M9.7,31.75L9.3 32.1L8.9 31.75L9.3 31.4L9.7 31.75M8.95,36.55L8.7 36.35Q8.95 35.8 9.15 35.8L9.6 36.25Q9.55 36.5 8.95 36.55M0.2,38.2L-0.15 38.35L-0.6 38.3Q-0.75 38.55 -0.75 38.1L-0.15 37.6L0.2 37.95L0.2 38.2M-5.6,19.5L-5.25 19.45Q-4.95 19.45 -4.75 21.3L-5.3 20.55Q-5.65 20 -5.6 19.5M-0.6,27.35Q-0.6 27.85 -0.75 27.85L-1.2 28Q-1.6 28 -1.85 27.45L-1.95 26.9L-1.8 26.5L-1.4 26.3Q-0.75 26.3 -0.6 27.35" />
</g>
</svg>
