<?xml version="1.0" encoding="utf-8"?>
<svg version="1.1" id="Layer_1"
xmlns="http://www.w3.org/2000/svg"
xmlns:xlink="http://www.w3.org/1999/xlink"
xmlns:author="http://www.sothink.com"
width="30px" height="41px"
xml:space="preserve">
<g id="1315" transform="matrix(1, 0, 0, 1, 0.7, 0.35)">
<path style="fill:#3FC4FF;fill-opacity:1" d="M25.2,5.35Q25.15 5.6 25.45 5.65Q27.35 7.6 28.6 9.7L28.25 10.15Q25.75 10.65 24.35 9.7Q23.5 9.35 23.6 8.6L24.85 5.55L25.2 5.35M28,30.45Q26.85 32.35 25.3 32.65Q24.6 33.55 24.45 34.55Q24.3 35.75 23.05 36.35L21.35 37.65L22.45 36.3Q23.3 34.15 23.5 32.15Q23.95 28.5 22.4 26.1Q21.2 23.75 21.55 20.55L20.95 20.45Q20.85 21.45 20.1 22.6Q19.3 24.25 18.05 24.6L17.05 25.2L15.2 25.5L14.7 26.9Q14.3 27.9 13.4 27.8Q11.9 27.6 10.7 25Q9.7 23.15 9.4 20.6Q9 21.3 8.8 23.05Q8.6 24.5 8.65 26.7Q8.55 27.45 8.25 27.45Q7.95 27.65 6.85 26.5Q6.1 25.2 5.8 25.15L5.15 28.25Q4.85 30.45 6.3 33.65L8.1 36.6L5.35 34.3L3.7 32.55Q1.55 30.1 0.95 27.55L1.1 26.35L0.35 27.7Q0.15 29.2 0.75 31.75Q-1.05 29.05 -0.6 25.35Q0.05 22.2 1.9 19.5Q2.95 18.6 3.7 19.95L3.65 20.4Q5.25 16.9 5.1 13.15Q5 8.9 8.1 5.55Q8.85 4.65 10.1 4.3L11 4.45Q9.25 8.95 12.8 12.3Q16.1 15.4 14.65 19.7Q14.55 20.7 15.1 21.3L15.7 21.35Q17.25 18.3 20.25 16.15Q22.3 14.45 22.9 11.75Q22.95 11.25 23.25 11.55Q23.85 11.6 23.8 11.85Q23.6 16.3 25.85 20.1Q26.9 21.65 26.65 23.6Q26 26.55 27.15 29.65L28.35 30.05L28 30.45M17.95,2.25L16.6 3.3Q16.25 3.55 16.2 4.3Q16.55 3.55 17.5 3.4Q17.85 3.2 18.5 2.85L18.5 2.6L17.95 2.25M18.2,0.05Q18.25 -0.45 18.85 -0.35Q18.8 0.15 19.1 0.15Q19.85 1.45 20.05 2.5L20 2.75Q19.7 5.45 16.2 6.5Q14.95 7.1 14.8 5.85Q14.3 2.35 17.85 0.25L18.2 0.05M11.15,23.5L11.1 24.25L11.35 24.55L12.2 24.9L12.55 24.7Q12.95 23.95 12.65 23.7Q12.75 23 11.85 22.9L11.5 23.35Q11.2 23.3 11.15 23.5" />
<path style="fill:#C9F4FF;fill-opacity:1" d="M11.25,38.4L10.05 38.05Q9.25 37.25 8.1 36.6L6.3 33.65Q4.85 30.45 5.15 28.25L5.8 25.15Q6.1 25.2 6.85 26.5Q7.95 27.65 8.25 27.45Q8.55 27.45 8.65 26.7Q8.6 24.5 8.8 23.05Q9 21.3 9.4 20.6Q9.7 23.15 10.7 25Q11.9 27.6 13.4 27.8Q14.3 27.9 14.7 26.9L15.2 25.5L17.05 25.2L18.05 24.6Q19.3 24.25 20.1 22.6Q20.85 21.45 20.95 20.45L21.55 20.55Q21.2 23.75 22.4 26.1Q23.95 28.5 23.5 32.15Q23.3 34.15 22.45 36.3L21.35 37.65Q16.85 39.85 11.25 38.4M11.5,23.35L11.85 22.9Q12.75 23 12.65 23.7Q12.95 23.95 12.55 24.7L12.2 24.9L11.35 24.55L11.1 24.25L11.15 23.5Q11.2 23.3 11.5 23.35" />
<path style="fill:#0D78C4;fill-opacity:1" d="M21.35,37.65L23.05 36.35Q24.3 35.75 24.45 34.55Q24.6 33.55 25.3 32.65Q26.85 32.35 28 30.45L28.35 30.05L28.65 30.1L28.95 30.1Q27.5 32.2 26.25 34.8L25.5 35.9Q22.2 41 15.3 40.15Q11.7 39.75 9.05 38.95Q7 38.2 5.95 36.85Q4.6 35.15 2.65 33.95Q2.35 33.9 2.35 33.65Q1.25 32.8 0.75 31.75Q0.15 29.2 0.35 27.7L1.1 26.35L0.95 27.55Q1.55 30.1 3.7 32.55L5.35 34.3L8.1 36.6Q9.25 37.25 10.05 38.05L11.25 38.4Q16.85 39.85 21.35 37.65M18.5,2.6L18.5 2.85Q17.85 3.2 17.5 3.4Q16.55 3.55 16.2 4.3Q16.25 3.55 16.6 3.3L17.95 2.25L18.5 2.6" />
</g>
</svg>
