<?xml version="1.0" encoding="utf-8"?>
<svg version="1.1" id="Layer_1"
xmlns="http://www.w3.org/2000/svg"
xmlns:xlink="http://www.w3.org/1999/xlink"
xmlns:author="http://www.sothink.com"
width="75px" height="15px"
xml:space="preserve">
<g id="129" transform="matrix(1, 0, 0, 1, 0, 3)">
<linearGradient
id="LinearGradID_260" gradientUnits="userSpaceOnUse" gradientTransform="matrix(0, 0.00210571, -0.00411987, 0, -52.05, 4.45)" spreadMethod ="pad" x1="-819.2" y1="0" x2="819.2" y2="0" >
<stop  offset="0" style="stop-color:#FAED2D;stop-opacity:1" />
<stop  offset="1" style="stop-color:#FFFEF3;stop-opacity:1" />
</linearGradient>
<path style="fill:url(#LinearGradID_260) " d="M42.1,6.75L42.1 2.4L47.4 2.4L49.7 2.7Q50.6 2.95 51.2 3.7Q51.75 4.4 51.75 5.3Q51.75 6 51.4 6.6L42.1 6.75M48.85,5.3L48.55 4.55Q48.25 4.25 47.9 4.2L46.6 4.15L44.95 4.15L44.95 6.55L46.65 6.55L47.9 6.5L48.55 6.05L48.85 5.3" />
<path style="fill:#EEBE23;fill-opacity:1" d="M51.4,6.6Q50.85 7.35 49.7 7.75L51.9 12L48.8 12L46.95 8.2L44.95 8.2L44.95 12L42.1 12L42.1 6.75L51.4 6.6" />
<path style="fill:#EEBE23;fill-opacity:1" d="M61.3,5L61.3 7L56.8 7L56.8 9.65L62.5 9.65L62.5 12L53.95 12L53.95 5.2L61.3 5" />
<linearGradient
id="LinearGradID_261" gradientUnits="userSpaceOnUse" gradientTransform="matrix(0, 0.00263977, -0.00411987, 0, -52.05, 2.55)" spreadMethod ="pad" x1="-819.2" y1="0" x2="819.2" y2="0" >
<stop  offset="0" style="stop-color:#FAED2D;stop-opacity:1" />
<stop  offset="1" style="stop-color:#FFFEF3;stop-opacity:1" />
</linearGradient>
<path style="fill:url(#LinearGradID_261) " d="M53.95,5.2L53.95 0L62.5 0L62.5 2.3L56.8 2.3L56.8 4.75L61.3 4.75L61.3 5L53.95 5.2" />
<linearGradient
id="LinearGradID_262" gradientUnits="userSpaceOnUse" gradientTransform="matrix(0, 0.00263977, -0.00411987, 0, -52.05, -0.45)" spreadMethod ="pad" x1="-819.2" y1="0" x2="819.2" y2="0" >
<stop  offset="0" style="stop-color:#FAED2D;stop-opacity:1" />
<stop  offset="1" style="stop-color:#FFFEF3;stop-opacity:1" />
</linearGradient>
<path style="fill:url(#LinearGradID_262) " d="M71.05,1.8L70.75 0.9Q70.3 -0.05 69.65 -0.4Q69.05 -0.8 68.15 -0.8L66.95 -0.8L66.95 1.9L64.2 1.95L64.2 -3L67.85 -3Q70.1 -3 71.2 -2.35Q72.3 -1.75 73.15 -0.4Q73.75 0.5 73.95 1.7L71.05 1.8" />
<path style="fill:#EEBE23;fill-opacity:1" d="M66.95,6.75L68.1 6.75Q69.65 6.75 70.4 5.6Q71.15 4.45 71.15 2.9L71.05 1.8L73.95 1.7L74.05 2.95Q74.05 5.55 72.5 7.3Q71 9 68.35 9L64.2 9L64.2 1.95L66.95 1.9L66.95 6.75" />
<linearGradient
id="LinearGradID_263" gradientUnits="userSpaceOnUse" gradientTransform="matrix(0, 0.00263977, -0.00411987, 0, -52.05, 2.35)" spreadMethod ="pad" x1="-819.2" y1="0" x2="819.2" y2="0" >
<stop  offset="0" style="stop-color:#FAED2D;stop-opacity:1" />
<stop  offset="1" style="stop-color:#FFFEF3;stop-opacity:1" />
</linearGradient>
<path style="fill:url(#LinearGradID_263) " d="M0,6.2L0 5.8Q0 3.1 1.4 1.35Q2.85 -0.4 5.35 -0.4Q9.7 -0.4 10.25 4.25L7.3 4.45Q7.25 1.9 5.3 1.9Q3.1 1.9 3.1 5.8L3.1 6.1L0 6.2" />
<path style="fill:#EEBE23;fill-opacity:1" d="M3.1,6.1Q3.15 8.15 3.7 8.9Q4.3 9.7 5.4 9.7Q7.1 9.7 7.5 7.4L10.25 7.6Q9.95 9.75 8.65 10.85Q7.3 12 5.35 12Q2.95 12 1.5 10.35Q0.1 8.8 0 6.2L3.1 6.1" />
<linearGradient
id="LinearGradID_264" gradientUnits="userSpaceOnUse" gradientTransform="matrix(0, 0.00263977, -0.00411987, 0, -52.05, 2.55)" spreadMethod ="pad" x1="-819.2" y1="0" x2="819.2" y2="0" >
<stop  offset="0" style="stop-color:#FAED2D;stop-opacity:1" />
<stop  offset="1" style="stop-color:#FFFEF3;stop-opacity:1" />
</linearGradient>
<path style="fill:url(#LinearGradID_264) " d="M11.85,6.1L11.85 0L14.7 0L14.7 6.05L11.85 6.1" />
<path style="fill:#EEBE23;fill-opacity:1" d="M14.7,6.05L14.7 9.65L19.45 9.65L19.45 12L11.85 12L11.85 6.1L14.7 6.05" />
<linearGradient
id="LinearGradID_265" gradientUnits="userSpaceOnUse" gradientTransform="matrix(0, 0.00263977, -0.00411987, 0, -52.05, 2.55)" spreadMethod ="pad" x1="-819.2" y1="0" x2="819.2" y2="0" >
<stop  offset="0" style="stop-color:#FAED2D;stop-opacity:1" />
<stop  offset="1" style="stop-color:#FFFEF3;stop-opacity:1" />
</linearGradient>
<path style="fill:url(#LinearGradID_265) " d="M20.9,5.9L20.9 0L29.45 0L29.45 2.3L23.75 2.3L23.75 4.75L28.25 4.75L28.25 5.75L20.9 5.9" />
<path style="fill:#EEBE23;fill-opacity:1" d="M28.25,5.75L28.25 7L23.75 7L23.75 9.65L29.45 9.65L29.45 12L20.9 12L20.9 5.9L28.25 5.75" />
<linearGradient
id="LinearGradID_266" gradientUnits="userSpaceOnUse" gradientTransform="matrix(0, 0.00263977, -0.00411987, 0, -52.05, 2.55)" spreadMethod ="pad" x1="-819.2" y1="0" x2="819.2" y2="0" >
<stop  offset="0" style="stop-color:#FAED2D;stop-opacity:1" />
<stop  offset="1" style="stop-color:#FFFEF3;stop-opacity:1" />
</linearGradient>
<path style="fill:url(#LinearGradID_266) " d="M35.9,5.6L35.15 3.1L34.4 5.6L32 5.65L33.8 0L37.05 0L38.8 5.5L35.9 5.6" />
<path style="fill:#EEBE23;fill-opacity:1" d="M35.9,5.6L38.8 5.5L40.8 12L37.8 12L37.05 9.55L33.15 9.55L32.4 12L29.95 12L32 5.65L34.4 5.6L33.85 7.3L36.4 7.3L35.9 5.6" />
</g>
</svg>
