<?xml version="1.0" encoding="utf-8"?>
<svg version="1.1" id="Layer_1"
xmlns="http://www.w3.org/2000/svg"
xmlns:xlink="http://www.w3.org/1999/xlink"
xmlns:author="http://www.sothink.com"
width="174px" height="58px"
xml:space="preserve">
<g id="1903" transform="matrix(1, 0, 0, 1, 57.8, 0.4)">
<linearGradient
id="LinearGradID_1953" gradientUnits="userSpaceOnUse" gradientTransform="matrix(-0.0386047, 0.0192108, -0.0285645, -0.0174255, 53.35, 18)" spreadMethod ="pad" x1="-819.2" y1="0" x2="819.2" y2="0" >
<stop  offset="0" style="stop-color:#FFFFFF;stop-opacity:1" />
<stop  offset="1" style="stop-color:#FFFFFF;stop-opacity:0.2" />
</linearGradient>
<path style="fill:url(#LinearGradID_1953) " d="M92.75,43.7Q75 52.2 57 55.25Q43.15 57.55 27.3 57.55L11.6 56.95Q1.1 56.1 -8.3 54.15Q-22.85 51.05 -35 45.3Q-52 37.2 -57.8 26.9Q-53.3 33.05 -43.5 38.1Q-34.95 42.45 -24.8 44.8Q-18.15 46.3 -10.85 46.95L0.2 47.4Q11.35 47.4 21.05 45.65Q33.7 43.35 44 38.1L44.1 38.05Q51.4 34.25 56.5 28.95Q61.45 23.85 62.95 18.7Q64.4 13.55 61.5 9.3Q58.6 5.05 52.2 1.9Q62.05 -0.3 72.85 -0.4Q83.6 -0.55 94.3 2.7Q103.5 5.5 107.65 8.2Q118.25 14.95 114.35 25.1Q110.45 35.2 92.75 43.7" />
</g>
</svg>
