<?xml version="1.0" encoding="utf-8"?>
<svg version="1.1" id="Layer_1"
xmlns="http://www.w3.org/2000/svg"
xmlns:xlink="http://www.w3.org/1999/xlink"
xmlns:author="http://www.sothink.com"
width="16px" height="25px"
xml:space="preserve">
<g id="2718" transform="matrix(1, 0, 0, 1, -33.2, -1.4)">
<path style="fill:#FFFFFF;fill-opacity:1" d="M46.55,1.55L46.75 1.6L46.8 1.4Q49.6 2.95 48.8 4.9L48.95 4.95L49 4.95Q48.1 6.75 46.25 7.65Q46.1 9.1 45.4 9.6Q44.25 11.15 41.9 11.35L41.9 13.05Q43.25 16.25 41.8 19.05L42.05 19.75Q42.4 20.7 41.6 22.55L41.5 21L40.95 19.95L39.55 20.45L39.3 20.55Q37.95 21.95 35.55 21.5L35.45 21.45L34.3 23.4Q34 25.65 36.5 26.05L35.4 26.25Q34.35 26.35 33.9 25.1L33.6 23.45L33.85 22.75L34.05 22.3Q34.15 21.95 34.25 22.55Q34.35 21.8 34.95 21.3Q32.85 20.5 33.55 19.65Q34.3 18.7 33.85 15.75L33.6 15.45L33.2 14.6L33.3 14.5L33.35 14.4L35.3 14.5L35.5 14.75L35.65 14.55L36.25 15.15Q36.9 15.85 36.65 16.75Q36.4 17.65 36.4 17.1Q36.45 16.45 35.45 15.5Q34.65 18.4 36.4 20.3L36.45 20.25Q36.25 19 36.95 18.25L36.95 18.35Q37.5 19.6 36.8 20.2L39.85 19.35L40.15 19.2L40.2 19.2L40.2 19.25L40.25 19.2L41.2 17.85L41.1 16.9L41.05 16.35L41.05 16.4L41 16.25L41 16L40.9 15.3Q40.35 11.85 39.4 11.65L39.55 11.6L40.7 11.5Q40.45 9 41.2 6.85L41.2 6.65Q41.1 6.4 41.3 6.2Q41.35 6.1 41.45 6.1L41.7 5.9L41.7 5.8Q43.15 4.2 44.75 3.2L46.35 1.5L46.55 1.55M48.3,4.7Q48.35 4.25 48.05 3.95L47.15 3L46.05 3.4L43.3 5.5L42.15 7.05L41.7 8.25L41.7 9.35L41.75 10.45L41.85 11Q43.15 10.3 44.6 9.75L45.8 7.85L45.85 7.8L46.1 7.35L46.25 7.15Q47.1 6 48.45 5.2L48.3 4.7M34.8,19.7L34.9 19.85L34.8 19.65L34.8 19.7" />
</g>
</svg>
