<?xml version="1.0" encoding="utf-8"?>
<svg version="1.1" id="Layer_1"
xmlns="http://www.w3.org/2000/svg"
xmlns:xlink="http://www.w3.org/1999/xlink"
xmlns:author="http://www.sothink.com"
width="21px" height="20px"
xml:space="preserve">
<g id="1343" transform="matrix(1, 0, 0, 1, -5.05, 4.4)">
<path style="fill:#574031;fill-opacity:1" d="M12.55,4.5L12.5 4.45L12.5 4.4L12.55 4.5" />
<path style="fill:#543914;fill-opacity:1" d="M15.5,10.8Q15.5 10.45 16.2 9.55Q17.25 8 19 7.5L21.65 7.05Q22.55 7.1 22.65 7.3L23.2 7.3L24.6 7.05Q25.05 6.85 23.7 5.95Q22.35 5.05 20.25 5.7L18.3 5.95L18.45 4.85L20.1 4.5Q21.65 4.05 23.7 4.9Q25.75 5.75 25.7 6.95Q25.6 8.15 23.75 8.1Q25.2 8.65 25.2 10.35Q25.15 12.05 23.9 13.55Q22.6 15 20.65 15.45Q18.7 15.85 17.55 15.05Q16.3 14.25 15.75 13.3L15.3 11.9L15 11.55Q14.2 10.45 14.15 9.35L14.5 9.35L14.8 9.35Q14.75 10.1 15.5 10.8M16.3,11.25Q16.2 13.45 18.8 14.65Q21.85 14.6 23.7 12.3L23.95 11.95L24.25 10.7Q24.35 9.6 23.75 9.05L22.8 8.35L22.35 8.2L21.6 8L19.65 8.3Q18.35 8.6 17.2 10L16.3 11.25" />
<path style="fill:#E9CB9E;fill-opacity:1" d="M18.25,6.15L18.3 5.95L20.25 5.7Q22.35 5.05 23.7 5.95Q25.05 6.85 24.6 7.05L23.2 7.3L23.2 7.1Q23.2 6.85 21.85 6.3L20.3 5.8L18.4 6.1L18.25 6.15M23.95,11.9Q23.95 11.25 23.45 10.95Q22.95 10.7 22.95 10.3Q22.95 10.1 22 9.7Q21 9.25 20.3 9.25Q18.75 9.25 17.2 10Q18.35 8.6 19.65 8.3L21.6 8L22.35 8.2L22.8 8.35L23.75 9.05Q24.35 9.6 24.25 10.7L23.95 11.95L23.95 11.9" />
<path style="fill:#C4944D;fill-opacity:1" d="M18.4,6.1L20.3 5.8L21.85 6.3Q23.2 6.85 23.2 7.1L23.2 7.3L22.65 7.3Q22.55 7.1 21.65 7.05L19 7.5Q17.25 8 16.2 9.55Q15.5 10.45 15.5 10.8Q14.75 10.1 14.8 9.35Q16.1 9.2 17 8.45L17.8 7.35L17.95 7.05L17.95 6.95L18.25 6.15L18.4 6.1M23.95,11.95L23.7 12.3Q21.85 14.6 18.8 14.65Q16.2 13.45 16.3 11.25L17.2 10Q18.75 9.25 20.3 9.25Q21 9.25 22 9.7Q22.95 10.1 22.95 10.3Q22.95 10.7 23.45 10.95Q23.95 11.25 23.95 11.9L23.95 11.95" />
<path style="fill:#C68331;fill-opacity:1" d="M17.25,6.35L12.1 0.2L11.75 0.7L11.6 1.35L10.15 -0.2L8.1 -2.25L7 -3L7.3 -3.5Q10.65 -2.6 13.65 -0.8L16.05 2.55L17.55 4.85L17.6 5L17.5 5.5L17.5 5.6L17.4 5.9L17.35 6.1L17.25 6.35" />
<path style="fill:#AA692B;fill-opacity:1" d="M8.1,-2.25L10.15 -0.2L11.6 1.35L11.75 0.7L12.1 0.2L17.25 6.35L17.05 6.95L15.9 8.1L14.8 8.55L14.25 8.65L14.2 8.6Q9.9 5.95 6.1 2.45Q5.75 0.05 6.45 -1.95L6.6 -2.15L6.9 -2.8L7 -3L8.1 -2.25M12.5,4.4L12.5 4.45L12.55 4.5L12.5 4.4" />
<path style="fill:#58240A;fill-opacity:1" d="M18.3,5.95L18.25 6.15L17.95 6.95L17.95 7.05L17.8 7.35L17 8.45Q16.1 9.2 14.8 9.35L14.5 9.35L14.15 9.35L13.1 9.15L7.2 4.65Q5.85 3.6 5.8 3.35Q5.4 3.5 5.1 0.95Q4.9 -0.95 5.8 -2.9L6.1 -3.45L6.3 -3.85L6.7 -4.4L8.8 -4.05Q10.45 -3.65 12 -2.75L13.9 -1.55L15.4 0.1Q16.5 1.4 17.6 3.2L18.45 4.65L18.45 4.85L18.3 5.95M17.35,6.1L17.4 5.9L17.5 5.6L17.5 5.5L17.6 5L17.55 4.85L16.05 2.55L13.65 -0.8Q10.65 -2.6 7.3 -3.5L7 -3L6.9 -2.8L6.6 -2.15L6.45 -1.95Q5.75 0.05 6.1 2.45Q9.9 5.95 14.2 8.6L14.25 8.65L14.8 8.55L15.9 8.1L17.05 6.95L17.25 6.35L17.35 6.1" />
</g>
</svg>
