<?xml version="1.0" encoding="utf-8"?>
<svg version="1.1" id="Layer_1"
xmlns="http://www.w3.org/2000/svg"
xmlns:xlink="http://www.w3.org/1999/xlink"
xmlns:author="http://www.sothink.com"
width="14px" height="10px"
xml:space="preserve">
<g id="1348" transform="matrix(1, 0, 0, 1, 0, 0)">
<path style="fill:#3E3A2F;fill-opacity:1" d="M12.8,6.85L12.35 5.9Q12.05 5.25 10.55 3.95L9.95 3.55L8.4 3.3Q7.65 3.35 6.85 3.8L8.25 4.8Q9.4 5.65 10.35 7L10.35 7.05L12.3 7.25L12.85 7L12.8 6.85M0.75,6.05L0.9 6.15Q0.95 5.5 1.3 5.05Q2.35 3.7 3.3 3.25L4.5 3L6.2 3.35Q6.65 2.6 7.15 2.5L8.85 2.25L9.4 2.3L10.3 2.7L10.95 3.1L11.7 3.7Q13.3 5.1 13.7 6.9L13.75 7.3L12.9 8.05L9.95 7.85Q7.55 10.15 3.1 8.8L2.25 8.5Q0.3 7.65 0.7 6.25L0.75 6.05M3.65,4.2L2.95 4.55L2.75 4.7L2.4 5Q2 5.35 1.85 5.85Q1.45 6.65 2.15 7.2L2.35 7.35L2.7 7.55Q4.05 8.15 5.7 8.25L7.15 8.1L8.85 7.55L9.2 7.4L8.65 6.65L6.5 4.75Q5.8 4.2 5.1 4.05L3.65 4.2" />
<path style="fill:#F0EAC6;fill-opacity:1" d="M11.05,5.45Q11.7 6.05 12.15 7L11.4 6.85Q10.8 6.7 10.15 6L10.05 5.75L10.55 5.9L11.35 5.95Q10.55 5.7 9.75 5.15L8.85 4.55L9 4.25Q10.3 4.8 11.05 5.45M2.6,5.75Q2.25 6.6 2.35 7.35L2.15 7.2Q1.45 6.65 1.85 5.85Q2 5.35 2.4 5L2.75 4.7L2.95 4.55L3.65 4.2Q2.95 4.85 2.6 5.75M7.3,7.55L3.8 7.15Q4.15 6.8 6.1 6.4L6.25 6.3L5.1 6.4L4.25 6.25L4.05 5.75Q4.05 5.15 4.55 4.55Q5.8 4.7 6.3 5.3L8.15 7.2L7.9 7.55L7.3 7.55" />
<path style="fill:#9D8E79;fill-opacity:1" d="M12.55,7L12.85 7L12.3 7.25L10.35 7.05L10.35 7Q9.4 5.65 8.25 4.8L6.85 3.8Q7.65 3.35 8.4 3.3L9.95 3.55Q9.2 3.9 9 4.25L8.85 4.55L9.75 5.15Q10.55 5.7 11.35 5.95L10.55 5.9L10.05 5.75L10.15 6Q10.8 6.7 11.4 6.85L12.15 7L12.55 7M3.65,4.2L5.1 4.05L4.55 4.55Q4.05 5.15 4.05 5.75L4.25 6.25L5.1 6.4L6.25 6.3L6.1 6.4Q4.15 6.8 3.8 7.15L7.3 7.55L7.9 7.55L8.85 7.55L7.15 8.1L5.7 8.25Q4.05 8.15 2.7 7.55L2.35 7.35Q2.25 6.6 2.6 5.75Q2.95 4.85 3.65 4.2" />
<path style="fill:#FFFCEE;fill-opacity:1" d="M12.85,7L12.55 7L12.15 7Q11.7 6.05 11.05 5.45Q10.3 4.8 9 4.25Q9.2 3.9 9.95 3.55L10.55 3.95Q12.05 5.25 12.35 5.9L12.8 6.85L12.85 7M7.9,7.55L8.15 7.2L6.3 5.3Q5.8 4.7 4.55 4.55L5.1 4.05Q5.8 4.2 6.5 4.75L8.65 6.65L9.2 7.4L8.85 7.55L7.9 7.55" />
<path style="fill:#E9CB9E;fill-opacity:1" d="M5.1,1.75Q5.8 1.4 6.65 1.25L7.6 1.55L8.85 2.25L7.15 2.5L5.1 1.75" />
<path style="fill:#C4944D;fill-opacity:1" d="M6.65,1.25Q5.8 1.4 5.1 1.75L7.15 2.5Q6.65 2.6 6.2 3.35L4.5 3L3.3 3.25Q2.35 3.7 1.3 5.05L1.15 4.65Q1.05 3.45 2.3 2.4L2.5 2.25Q3.65 1.3 5.1 1.15L6.65 1.25" />
<path style="fill:#694A1F;fill-opacity:1" d="M5.1,1.15Q3.65 1.3 2.5 2.25L2.3 2.4Q1.05 3.45 1.15 4.65L1.3 5.05Q0.95 5.5 0.9 6.15L0.75 6.05L0.7 6.25Q0.2 5.55 0.05 4.7Q-0.2 3.3 1.05 2.15Q2.25 1 3.55 0.4L6.8 0.2Q7.95 0.45 8.8 1.1L9.95 2.25L10.3 2.7L9.4 2.3L8.85 2.25L7.6 1.55L6.65 1.25L5.1 1.15" />
</g>
</svg>
