<?xml version="1.0" encoding="utf-8"?>
<svg version="1.1" id="Layer_1"
xmlns="http://www.w3.org/2000/svg"
xmlns:xlink="http://www.w3.org/1999/xlink"
xmlns:author="http://www.sothink.com"
width="39px" height="45px"
xml:space="preserve">
<g id="529" transform="matrix(1, 0, 0, 1, -1.2, 0)">
<path style="fill:#625643;fill-opacity:1" d="M22.8,12.5Q22.7 14 21.75 15.25L21.7 15.3L20.4 15.65L20.9 14.95Q21.7 14 21.85 12.95Q22.1 11.85 21.5 10.55L21.05 9.5L21 9.5L20.85 9.1L20.75 8.9L20.9 8.95L22.05 9.4Q22.9 11.15 22.8 12.5M23.2,43.6L23.1 43.6L22.15 43.2L22.35 43.2L23.75 42.9L24.25 42.7Q24.85 42.15 24.35 41.7L22.95 40.7L20.85 40.4L19.05 40.7L18.65 40.25L18.6 40.2Q18.75 39.95 19.05 39.9L19.2 39.9Q20.05 39.5 20.95 39.45L21 39.05L20.4 37.8L20.35 37.25L20.35 36.9L18.6 37.05L19.45 36.4L19.8 36.1L20.85 35.9L21 35.45Q21.05 34.65 20.75 34.05L20.75 34.1L20.45 35.1L20.4 35.15L19.85 35.15L19.85 35.2L19.4 35.25L19.75 34.4L19.9 34.1L19.95 33.4L19.9 33.15L19.8 32.85L19.2 32.15L18.25 31.75L18.2 31.45L18.15 31.2L17.95 30.75L18.1 30.7Q19.35 31 19.9 31.65L20.55 32.75Q21.55 33.45 21.85 34.4L21.85 35.75L21.55 36.25L21.25 36.75L21.25 36.8L21.45 38.1Q21.85 38.6 21.85 39.05L21.85 39.5L22.45 39.9Q23.2 39.95 24.05 40.65Q24.95 41.2 25.3 41.7Q25.75 42.15 25.4 42.9Q24.95 43.5 23.8 43.65L23.2 43.6" />
<path style="fill:#B3A38A;fill-opacity:1" d="M11.3,23.85L8.6 23.7L6.9 24.1L6.75 24.15L6.85 23.65L7.15 22.4Q7.75 22.85 8.7 23.05L11.45 23.25L11.3 23.85M14.8,16.6L14.55 16.35L14.45 16.3L13.95 16.1L13.9 16.05L13.85 16L13.65 14.35Q13.5 13.05 13.85 12L14.25 12.15Q15.4 12.55 15.65 14.35L15.8 15.75L15.85 16.8L15.85 16.85L15.85 17.1Q16 18 16.65 18.25L17.05 18.3L17.05 18.4L17.05 18.65L16.8 18.65L16.3 18.6L16.1 18.55L15.45 17.25L14.85 16.65L14.8 16.6M20.1,13.8L19.45 14.65L18.2 14.85Q17.35 14.85 16.65 13.85Q16 12.8 16.05 11.65L16.15 11.05Q16.15 11.6 16.45 12.35Q16.95 13.45 17.6 13.95L19.15 14.2L20.1 13.8M18.2,16.85Q18.4 17.5 19 17.85L19.75 18.15L18.85 18.3L18.45 18.25L18.15 17.45L18.2 16.95L18.2 16.85M19.85,27.1L20.95 28.05L20.8 28.25L20 28.35L18.75 27.1L18.15 26.2L18.7 25.65L19.85 27.1M19.35,35.3L18.75 35.95L18.6 36.1L18.3 36.25L17.35 36.7L16.6 36.55L16.4 36.35Q17.55 34.8 17.75 33L17.8 32.7L17.85 31.7L18.25 31.75L18.25 32.3L18.25 32.35L18.25 33L18 34.45L17.8 34.85L18.45 35.15L18.55 35.2L19.4 35.25L19.35 35.3M16.85,41.8Q16.2 40.5 16.55 39.15L17.15 37.5Q17.85 37.5 18.6 37.05L20.35 36.9L20.35 37.25L20.2 37.35L18.5 37.95L18.45 38.9Q18.45 39.6 18.6 40.2Q17.55 40.7 16.85 41.8M5.3,38.75L4.65 38.85L4.95 38.5L5.3 38.75M3.5,41.2Q3.6 40.5 4.25 39.9Q4.7 39.45 5.25 39.45L6 39.5L7.15 39.95L6.4 39.9Q4.5 39.9 3.95 41L3.65 41.55L3.5 41.2M19.15,40.95L19.2 41.1L19.95 41.7L21.15 42.75L22.15 43.2L19.9 43.2L18.2 42.9L17.45 42.4L17.55 42L17.9 41.7L17.9 41.65L19.05 40.7L19.15 40.95M30.95,31.85L30.55 31.75L30.05 31.55L28.7 30.85L28.2 30.5L28.05 30.4L27.65 30.15L27 30.6Q26.5 31.25 26.25 32.15L26.15 32.75L25.95 32.45Q25.35 31.85 25.75 30.7L25.8 30.55Q26.15 29.65 26.8 29.1L27.3 28.9L27.35 28.9L28.2 29L28.25 29L29.2 29.35L30.75 30.5L30.95 30.75L31.35 31.55L31.45 32.05L30.95 31.85M23,29.3Q24.15 30.1 25.2 30.4Q24.95 30.95 25 31.5Q23.55 30.85 22.2 29.95L20.85 28.95L21.4 28.35L21.5 28.25L23 29.3" />
<path style="fill:#E9E7DA;fill-opacity:1" d="M20,16.8L19.85 18.15L19.75 18.15L19.65 17.6L19.65 16.9L19.75 16.85L19.8 16.8L19.8 16.75L19.8 16.65L19.7 16.55L19.65 16.55L19.7 15.9L19.6 15.85L19.5 15.8L19.5 15.7L19.55 15.5L19.75 15.4L19.85 15.5L20.5 14.45L20.9 13.7L21.15 13.55L21.2 13.25L21.15 13.2L21.1 13.2L21.3 12.15L21.2 12.15L21.15 12.1L21.15 11.9Q21.2 11.8 21.3 11.8L21.35 11.8L21.15 9.95L20.95 9.45L21 9.5L21.05 9.5L21.5 10.55Q22.1 11.85 21.85 12.95Q21.7 14 20.9 14.95L20.4 15.65Q20.05 16.25 20 16.8M16.9,16.25L16.95 16.3L17.05 16.4L17.05 16.65L16.7 16.75L16.7 16.65L16.7 16.4L16.85 16.25L16.9 16.25M17.05,18.3L17.1 18Q17.2 17.5 17.6 17.1L17.75 16.95Q17.85 16.8 18 16.75L17.85 17.05L17.75 17.4L17.65 18.15L17.55 18.4L17.5 18.4L17.5 18.45L17.3 18.55L17.05 18.65L17.05 18.4L17.05 18.3M19.2,32.15L19.8 32.85L19.9 33.15L19.95 33.4L19.9 34.1L19.75 34.4L19.75 34.25L19.6 33.8Q19.3 33.05 18.45 32.45L18.25 32.35L18.25 32.3L18.25 31.75L19.2 32.15M20.4,35.3L20.45 35.1L20.75 34.1L20.75 34.05Q21.05 34.65 21 35.45L20.85 35.9L19.8 36.1Q20.35 35.8 20.4 35.3M19.6,39.5L20.35 38.9Q20.2 38.45 20.2 37.8L20.2 37.35L20.35 37.25L20.4 37.8L21 39.05L20.95 39.45Q20.05 39.5 19.2 39.9L19.6 39.5M19.2,41.1L19.15 40.95L19.05 40.7L20.85 40.4L22.95 40.7L24.35 41.7Q24.85 42.15 24.25 42.7L23.75 42.9L23.75 42.45Q23.75 41.85 22.6 41.35Q21.55 40.8 20.2 40.8L19.2 41.1" />
<path style="fill:#4A4131;fill-opacity:1" d="M6.85,23.65L6.75 24.15L6.2 24.35L6 24.45L6.2 22.8L6.55 21.9L7.15 22.4L6.85 23.65M12.25,23.5L12.1 24L11.35 23.85L11.3 23.85L11.45 23.25L12.35 23.1L12.25 23.5M19.35,19.35L18.95 19.4Q18.4 19.4 18 18.9L17.9 19L16.8 19.4L16.25 19.4L16.1 18.8L16.1 18.55L16.3 18.6L16.8 18.65L17.05 18.65L17.3 18.55L17.5 18.45L17.5 18.4L17.55 18.4L17.65 18.15L17.75 17.4L17.85 17.05L18 16.75L18.15 16.55Q18.35 16.3 18.25 16.55L18.2 16.85L18.2 16.95L18.15 17.45L18.45 18.25L18.85 18.3L19.75 18.15L19.85 18.15L20 16.8Q20.05 16.25 20.4 15.65L21.7 15.3Q20.9 16.45 20.95 18.45L20.95 18.5Q20.3 19.1 19.45 19.35L19.35 19.35M14.85,16.65L13.95 16.1L14.45 16.3L14.55 16.35L14.8 16.6L14.85 16.65M29.95,28.9L31.3 30.05L31.5 30.25L31.55 30.3L31.95 30.9L32.1 32.2L31.4 33.45Q29.65 35.55 27.2 34.3L26.15 33.7Q25.2 32.95 25 32.25Q23.9 31.85 22.25 30.75L20.4 29.35Q19.75 29.05 19.4 28.75L18.2 27.25L17.75 26.6L18.15 26.2L18.75 27.1L20 28.35L20.8 28.25L20.95 28.05L21.1 27.85L21.2 27.4L19.65 24.6L19.7 24.5L19.95 24L20.65 25.05L21.75 27.1L22.05 27.15L22.2 27.15L23.4 27.45L24.85 27.95L25.85 28.35L26.5 28.45L26.7 28.35L27.1 28.25L28.3 28.15L28.8 28.3L29.95 28.9M18.15,31.2L18.2 31.45L18.25 31.75L17.85 31.7L17.8 31.3L17.8 30.8L17.8 30.75L17.95 30.75L18.15 31.2M19.8,36.1L19.45 36.4L18.6 37.05Q17.85 37.5 17.15 37.5L16.55 39.15Q16.2 40.5 16.85 41.8Q17.55 40.7 18.6 40.2L18.65 40.25L19.05 40.7L17.9 41.65L17.9 41.7L17.55 42L17.45 42.4L18.2 42.9L19.9 43.2L22.15 43.2L23.1 43.6L23.2 43.6L23.8 43.65L23.1 43.8L22.05 44.05L19.65 44.05L17.45 43.6Q16.95 43.3 16.95 42.85L16.65 42.85Q16.35 42.75 15.9 41.7Q15.6 40.5 15.9 38.9L16.4 37.35L15.85 37.05L16.05 36.75L16.4 36.35L16.6 36.55L17.35 36.7L18.3 36.25L18.6 36.1L18.75 35.95L19.35 35.3L19.4 35.25L19.85 35.2L19.85 35.15L20.4 35.15L20.45 35.1L20.4 35.3Q20.35 35.8 19.8 36.1M9.6,39.9L9.3 40.5L9.6 41.1L9.95 41.8Q9.95 42.25 9.55 42.45Q8.7 43.05 6.9 43.15L4.2 42.85L3.6 42.7L3.05 42.25L2.85 41.2Q2.85 40.5 3.6 39.45Q3.35 39.35 3.9 38.6L4.35 38.05L4.4 38.1L4.95 38.5L4.65 38.85L5.3 38.75Q6.65 39.6 8.25 39.8L8.65 40.2L8.8 39.85L9.6 39.9M7.15,39.95L6 39.5L5.25 39.45Q4.7 39.45 4.25 39.9Q3.6 40.5 3.5 41.2L3.65 41.55Q4.05 42 5.25 42.25Q7 42.55 8.2 42.25Q9.45 41.85 8.85 41.25L8.25 40.7L7.8 40.25L7.45 40.05L7.35 40.05L7.15 39.95M28.7,34.05Q30.05 34.05 31.25 32.55L31.45 32.05L31.35 31.55L30.95 30.75L30.75 30.5L29.2 29.35L28.25 29L28.2 29L27.35 28.9L27.3 28.9L26.8 29.1Q26.15 29.65 25.8 30.55L25.75 30.7Q25.35 31.85 25.95 32.45L26.15 32.75Q27.45 34 28.7 34.05M25.9,29.2L24.4 28.4Q23.6 28.05 22.45 27.85L21.8 27.75L21.5 28.25L21.4 28.35L20.85 28.95L22.2 29.95Q23.55 30.85 25 31.5Q24.95 30.95 25.2 30.4L25.9 29.2" />
<path style="fill:#CCC6B8;fill-opacity:1" d="M19,17.85Q18.4 17.5 18.2 16.85L18.25 16.55Q18.35 16.3 18.15 16.55L18 16.75Q17.85 16.8 17.75 16.95L17.6 17.1Q17.2 17.5 17.1 18L17.05 18.3L16.65 18.25Q16 18 15.85 17.1L15.85 16.85L15.85 16.8L15.8 15.75L15.65 14.35Q15.4 12.55 14.25 12.15L13.85 12Q14.35 10.05 16.15 8.8Q17 8.25 17.75 8.3L18.85 8.3Q19.15 8.3 20.05 8.65L20.75 8.9L20.85 9.1L21 9.5L20.95 9.45L21.15 9.95L21.35 11.8L21.3 11.8Q21.2 11.8 21.15 11.9L21.15 12.1L21.2 12.15L21.3 12.15L21.1 13.2L21.15 13.2L21.2 13.25L21.15 13.55L20.9 13.7L20.5 14.45L19.85 15.5L19.75 15.4L19.55 15.5L19.5 15.7L19.5 15.8L19.6 15.85L19.7 15.9L19.65 16.55L19.7 16.55L19.8 16.65L19.8 16.75L19.8 16.8L19.75 16.85L19.65 16.9L19.65 17.6L19.75 18.15L19 17.85M16.05,11.65Q16 12.8 16.65 13.85Q17.35 14.85 18.2 14.85L19.45 14.65L20.1 13.8L20.2 13.65L20.55 12.5Q20.75 11.7 20.15 10.75Q19.6 9.75 18.7 9.65L18.3 9.6Q17.1 9.55 16.5 10.3L16.25 10.8L16.15 11.05L16.05 11.65M16.85,16.25L16.7 16.4L16.7 16.65L16.7 16.75L17.05 16.65L17.05 16.4L16.95 16.3L16.9 16.25L16.85 16.25M19.65,24.6L21.2 27.4L21.1 27.85L20.95 28.05L19.85 27.1L18.7 25.65L19.65 24.6M19.4,35.25L18.55 35.2L18.45 35.15L17.8 34.85L18 34.45L18.25 33L18.25 32.35L18.45 32.45Q19.3 33.05 19.6 33.8L19.75 34.25L19.75 34.4L19.4 35.25M19.2,39.9L19.05 39.9Q18.75 39.95 18.6 40.2Q18.45 39.6 18.45 38.9L18.5 37.95L20.2 37.35L20.2 37.8Q20.2 38.45 20.35 38.9L19.6 39.5L19.2 39.9M20.2,40.8Q21.55 40.8 22.6 41.35Q23.75 41.85 23.75 42.45L23.75 42.9L22.35 43.2L22.15 43.2L21.15 42.75L19.95 41.7L19.2 41.1L20.2 40.8M31.45,32.05L31.25 32.55Q30.05 34.05 28.7 34.05Q27.45 34 26.15 32.75L26.25 32.15Q26.5 31.25 27 30.6L27.65 30.15L28.05 30.4L28.2 30.5L28.7 30.85L30.05 31.55L30.55 31.75L30.95 31.85L31.45 32.05M25.2,30.4Q24.15 30.1 23 29.3L21.5 28.25L21.8 27.75L22.45 27.85Q23.6 28.05 24.4 28.4L25.9 29.2L25.2 30.4" />
<path style="fill:#7B705E;fill-opacity:1" d="M8.8,39.85L8.65 40.2L8.25 39.8L8.8 39.85M7.35,40.05L7.45 40.05L7.8 40.25L8.25 40.7L8.85 41.25Q9.45 41.85 8.2 42.25Q7 42.55 5.25 42.25Q4.05 42 3.65 41.55L3.95 41Q4.5 39.9 6.4 39.9L7.15 39.95L7.35 40.05" />
<path style="fill:#717575;fill-opacity:1" d="M36.05,16.85L34.75 17.8L34.75 17.1Q34.4 14.25 32.85 12.15L32.05 11.25L31.55 10.5L31.8 10.6Q35.25 13.15 36.05 16.8L36.05 16.85M31.4,26.35L31.45 26.35Q32.9 25.1 33.75 23.3Q34.8 21.2 34.8 18.85L35.15 18.6L36.3 17.9L36.3 17.95L36.3 18Q36.6 20.45 34.65 24.1Q33.7 25.8 32.55 27.1L32.5 27.1L31.4 26.35" />
<path style="fill:#4E5254;fill-opacity:1" d="M31.55,10.5L32.05 11.25Q33.4 13.3 33.75 16.65L33.9 18.3L33.9 19.4Q33.75 21.6 32.8 23.3L30.9 25.95L30.9 26L30.45 25.7L30.5 25.7L31.8 23.65Q32.8 21.95 33 19.8L33.1 18.7L33.15 18Q33 14.75 32.2 12.95L30.45 10.25L30.3 10L29.95 9.45Q29.85 9.2 30 9.2Q36.3 10.6 38.25 15.05Q40.25 19.4 38.4 23.2L38.35 23.25Q36.65 26.9 34.4 28.5L33.7 28L33.75 28L34.05 27.7L36.3 25.1Q37.9 23.2 38.25 20.8L38.4 19.85Q38.55 17.65 37.55 15.55L36.7 14.05Q35.4 12.1 32.8 11L31.8 10.6L31.55 10.5M33.65,27.95L33.7 28L33.55 27.9L33.65 27.95" />
<path style="fill:#939697;fill-opacity:1" d="M30.9,26L30.9 25.95L32.8 23.3Q33.75 21.6 33.9 19.4L33.9 18.3L33.75 16.65Q33.4 13.3 32.05 11.25L32.85 12.15Q34.4 14.25 34.75 17.1L34.75 17.8L36.05 16.85L36.3 17.9L35.15 18.6L34.8 18.85Q34.8 21.2 33.75 23.3Q32.9 25.1 31.45 26.35L31.4 26.35L30.9 26" />
<path style="fill:#AEAEAE;fill-opacity:1" d="M35.65,13.8L36.95 16.05L36.25 16.65L36.05 16.8Q35.25 13.15 31.8 10.6L32.8 11Q34.9 12.6 35.65 13.8M33.65,27.95L32.5 27.1L32.55 27.1Q33.7 25.8 34.65 24.1Q36.6 20.45 36.3 18L36.3 17.95L36.9 17.55L37.35 17.25Q37.95 18.85 38.25 20.8Q37.9 23.2 36.3 25.1L34.05 27.7L33.75 28L33.7 28L33.65 27.95" />
<path style="fill:#28282A;fill-opacity:1" d="M21.55,6.15L21.6 6.25L21.85 6.7L21.9 6.95L22.3 7.65L22.5 8.05L22.8 9.35L22.8 9.6L22.65 9.65L22.05 9.4L20.9 8.95L20.75 8.9L20.05 8.65Q19.15 8.3 18.85 8.3L17.75 8.3Q17 8.25 16.15 8.8Q14.35 10.05 13.85 12Q13.5 13.05 13.65 14.35L13.85 16L13.9 16.05L13.95 16.1L14.85 16.65L15.45 17.25L16.1 18.55L16.1 18.8L16.25 19.4L16.25 20.2L15.9 21.15Q14.55 22.6 12.55 23.05L12.35 23.1L11.45 23.25L8.7 23.05Q7.75 22.85 7.15 22.4L6.55 21.9L6.35 21.6L6.3 21.4L6 20.6L6.05 19.5L6.35 18.55L6.95 17.6L6.2 15.6Q5.55 13.65 5.4 12.45L5.4 11.85L5.4 11.25L5.4 10.95L5.45 10.55Q5.55 9.5 5.9 8.5L6.1 7.95L6.15 7.75L6.25 7.55L6.45 7.1L6.9 6.35L7.05 6.15L7.25 5.8L7.75 5.15L9.05 3.95L9.2 3.85L9.85 3.4L10.3 3.2L10.8 2.95Q12.35 2.3 14.25 2.25L16.35 2.5L16.8 2.6L17.7 2.9L17.85 2.95L18.4 3.25L18.5 3.25L18.75 3.4L20.1 4.3L20.7 4.9L20.9 5.15L21.55 6.15M7.05,8.05L6.55 9.65L6.35 10.9L6.35 11.65L6.55 13.35L7.15 15.9L7.55 16.85L7.6 16.9Q8.1 16.45 8.75 16.15L8.8 16.1Q9.25 15.9 9.75 15.8Q11.1 15.5 13.05 15.75L13 15.7L12.8 13.5L13 11.8Q13.35 10.35 14.35 9.35L14.9 8.85Q15.4 8.45 15.95 8.15L16.3 7.95L17.05 7.65L18.5 7.5L19.05 7.55L20.05 7.75L20.15 7.75L21.05 8L21.35 8.1L21.45 8.1L21.05 7.1L20.2 5.7L19.25 4.75Q18.8 4.35 17.95 3.9L17.8 3.85L16.95 3.5L16.5 3.35L15.85 3.25L14.7 3.1L12.15 3.4L10.5 4L10.05 4.25L9.95 4.35L9.15 5L8.25 5.95L7.05 8.05M16.1,26.7L16.1 26.65L16.3 26.55L17.2 25.7L17.65 25.25L18.2 24.65L18.25 24.65L18.95 23.75L19.25 22.9L19.1 21.45L18.8 20.65L18.7 20.5L17.9 19L18 18.9Q18.4 19.4 18.95 19.4L19.35 19.35L19.45 19.35L19.8 20.2L20 20.85Q20.55 22.6 19.95 24L19.7 24.5L19.65 24.6L18.7 25.65L18.15 26.2L17.75 26.6L17.6 26.7L17.45 26.85L17.25 27L16.7 27.5L16.1 26.7M14.85,18L14.7 17.9L14.15 17.4L14.05 17.35L13.3 17L12.25 16.75Q11 16.5 8.9 17.35L8.85 17.4L7.8 18.05Q7.25 18.55 7.05 19.25L7 19.95L7 20.1L7 20.2L7.25 21L7.55 21.4Q8.35 22.2 10.2 22.3L11.65 22.25L11.75 22.25L12.55 22.15Q13.8 21.85 14.5 21.15Q15.55 20.05 15.4 19.2L15.25 18.85L15.1 18.45L14.85 18" />
<path style="fill:#E3E4E5;fill-opacity:1" d="M21,4.85L22.9 4.5L22.7 4.9L20.9 5.15L20.7 4.9L21 4.85M8.55,2.35L9.4 1.9L10.5 1.45Q12.9 0.55 15.05 0.75Q17.7 1.05 18.45 2.3L17.7 2.9L16.8 2.6L16.35 2.5L16.85 1.9L13.1 1.5Q11.85 1.4 11.1 1.85Q10.25 2.3 10.25 2.95L10.3 3.2L9.85 3.4L9.2 3.85Q8.7 3.15 8.55 2.35M5.4,6.1L5.15 5.7L5.55 5.7L7.1 5.8L7.25 5.8L7.05 6.15L5.4 6.1M14,5.1L14.55 5.55L14.55 5.6L14 5.85L13.8 5.95Q13.5 6.1 13.3 6.35Q13.3 6.25 13.15 6.25L13 6.25L13 5.9L13.05 5.8L13.35 4.95L14 5.1" />
<path style="fill:#B4BCC2;fill-opacity:1" d="M16.35,2.5L14.25 2.25Q12.35 2.3 10.8 2.95L10.3 3.2L10.25 2.95Q10.25 2.3 11.1 1.85Q11.85 1.4 13.1 1.5L16.85 1.9L16.35 2.5M6.65,5L6.5 5L6.4 4.9L6.2 4.5Q7.05 3.25 8.45 2.45L8.55 2.35Q8.7 3.15 9.2 3.85L9.05 3.95L7.75 5.15L6.65 5M5.8,6.75L5.4 6.1L7.05 6.15L6.9 6.35L6.45 7.1L5.8 6.75M22.4,5.65L21.55 6.15L20.9 5.15L22.7 4.9L22.4 5.65M13,5L13.35 4.95L13.05 5.8L13 5.9L13 6.25L12.55 5.95L12.1 5.55Q12.35 5.25 13 5M14.6,6.75L13.3 6.35Q13.5 6.1 13.8 5.95L14 5.85L14.55 5.6L14.7 6.1L14.65 6.65L14.6 6.75" />
<path style="fill:#3D434B;fill-opacity:1" d="M21.4,3.95L23.15 3.75Q23.8 3.7 23.75 4.1L23.75 4.2L23.75 4.5L23.55 4.95L23.45 5.3L22.85 6.5L22.3 7.65L21.9 6.95L21.85 6.7L22.35 5.75L22.4 5.65L22.7 4.9L22.9 4.5L21 4.85L20.7 4.9L20.1 4.3L21.4 3.95M5.85,6.85L6.25 7.55L6.15 7.75L6.1 7.95L5.9 8.5L5.4 7.7L5.05 7.05Q4.35 9.1 4.35 10.55L5.45 10.55L5.4 10.95L5.4 11.25L3.7 11.3L3.7 10.2Q3.8 8.35 4.55 6.15L4.35 5.8L4.25 5.45L4.25 5.4Q4.2 5 4.8 4.95L5.1 4.95L5.95 3.65L6.05 3.55Q7 2.3 7.65 1.95L9 1.2L10.25 0.6L11.9 0.2L13.75 0L15.2 0.1L16.9 0.45L18.55 1.4L19.45 2.55L19.45 2.6L18.5 3.25L18.4 3.25L17.85 2.95L17.7 2.9L18.45 2.3Q17.7 1.05 15.05 0.75Q12.9 0.55 10.5 1.45L9.4 1.9L8.55 2.35L8.45 2.45Q7.05 3.25 6.2 4.5L5.9 4.95L6.5 5L6.65 5L7.75 5.15L7.25 5.8L7.1 5.8L5.55 5.7L5.15 5.7L5.4 6.1L5.8 6.75L5.85 6.85M15.25,5.55L15.25 5.6L15.3 5.9L15.3 6.5L15.25 6.75Q15.05 7.75 14.05 8.1L13.35 8.2L12.4 8.2L11.75 7.85L11.45 7.4L11.35 7.15L11.3 7.1Q11 6.25 11.4 5.45L11.65 5.05L11.75 4.95Q12.3 4.45 13.15 4.3L13.65 4.35L13.85 4.4L14 4.45Q14.6 4.5 14.85 4.8L15.2 5.4L15.25 5.55M14.65,6.65L14.7 6.1L14.55 5.6L14.55 5.55L14 5.1L13.35 4.95L13 5Q12.35 5.25 12.1 5.55Q11.85 5.85 11.85 6.2L11.95 6.75L12 6.85L12.6 7.5L13.4 7.55L14.6 6.75L14.65 6.65" />
<path style="fill:#717D8E;fill-opacity:1" d="M5.8,6.75L6.45 7.1L6.25 7.55L5.85 6.85L5.8 6.75M5.9,8.5Q5.55 9.5 5.45 10.55L4.35 10.55Q4.35 9.1 5.05 7.05L5.4 7.7L5.9 8.5M21.85,6.7L21.6 6.25L21.55 6.15L22.4 5.65L22.35 5.75L21.85 6.7M13.15,6.25Q13.3 6.25 13.3 6.35L14.6 6.75L13.4 7.55L12.6 7.5L12 6.85L11.95 6.75L11.85 6.2Q11.85 5.85 12.1 5.55L12.55 5.95L13 6.25L13.15 6.25M6.2,4.5L6.4 4.9L6.5 5L5.9 4.95L6.2 4.5" />
<path style="fill:#D3D3D3;fill-opacity:1" d="M19.9,7.15L20 7.1L20.05 6.9L19.95 6.6L19.65 6.45L19.55 6.5L18.8 5.5L18.85 5.45L18.7 5.25L18.45 4.9L18.35 4.75L18.3 4.75L18.15 4.75L18 4.8Q16.9 3.9 15.35 3.9L14.4 3.9L14.4 3.85L14.25 3.65L14.15 3.6Q14 3.6 13.95 3.75L13.9 3.9Q11.75 3.95 10.45 4.7L8.6 5.75L8.25 5.95L9.15 5L9.95 4.35L10.05 4.25L10.5 4L12.15 3.4L14.7 3.1L15.85 3.25L16.5 3.35L16.95 3.5L17.8 3.85L17.95 3.9Q18.8 4.35 19.25 4.75L20.2 5.7L21.05 7.1L21.45 8.1L21.35 8.1L21.05 8L20.15 7.75L19.9 7.15M7,19.95L7.05 19.25Q7.25 18.55 7.8 18.05L8.85 17.4L8.9 17.35Q11 16.5 12.25 16.75L13.3 17L14.05 17.35L14.15 17.4L14.7 17.9L14.1 17.7L13.35 17.55L12.05 17.4L10.8 17.55L10.95 17.65L10.95 18.3L9.85 18.45L9.45 18.4L9.15 18.1L9.1 18.15L9 18.1L8.85 18.05L8.6 18.05Q8.45 18.05 8.35 18.25L8.25 18.35L8.3 18.5L8.4 18.6L8.2 18.8Q7.5 19.25 7.05 20L7 19.95" />
<path style="fill:#CED1D2;fill-opacity:1" d="M36.3,17.9L36.05 16.85L36.05 16.8L36.25 16.65L36.95 16.05L35.65 13.8Q34.9 12.6 32.8 11Q35.4 12.1 36.7 14.05L37.55 15.55Q38.55 17.65 38.4 19.85L38.25 20.8Q37.95 18.85 37.35 17.25L36.9 17.55L36.3 17.95L36.3 17.9" />
<path style="fill:#3D3D46;fill-opacity:1" d="M15.95,6.05L16.35 5.8L16.55 5.8L16.75 5.8L16.8 5.8L16.95 6L16.9 6.1L16.8 6.25L16.65 6.35L16.6 6.3L16.55 6.3L16.5 6.25L16.4 6.25L16 6.25L15.95 6.15L15.9 6.15L15.95 6.05M10.55,8.3Q10.7 8.5 10.45 8.7L9.9 8.65L9.95 8.65L10.15 8.3Q10.2 8.1 10.45 8.2L10.55 8.3M10,6.95L10 7L9.55 7.35L9.25 7.2L9.3 7.1L9.5 6.95L9.85 6.8L9.9 6.85L10 6.95" />
<path style="fill:#636379;fill-opacity:1" d="M7.05,8.05L8.25 5.95L8.6 5.75L10.45 4.7Q11.75 3.95 13.9 3.9L13.95 3.75Q14 3.6 14.15 3.6L14.25 3.65L14.4 3.85L14.4 3.9L15.35 3.9Q16.9 3.9 18 4.8L18.15 4.75L18.3 4.75L18.35 4.75L18.45 4.9L18.7 5.25L18.85 5.45L18.8 5.5L19.55 6.5L19.65 6.45L19.95 6.6L20.05 6.9L20 7.1L19.9 7.15L20.15 7.75L20.05 7.75L19.05 7.55L18.5 7.5L17.05 7.65L16.3 7.95L15.95 8.15Q15.4 8.45 14.9 8.85L14.15 9.15Q12.7 9.8 11.25 10.05L11.35 10.5L11.3 10.5L11.3 10.55L11.2 10.55L11.05 10.45L10.95 10.3L10.85 10.35L10.75 10.35L10.7 10.3L10.4 10.2L9.85 10.2L8.75 10L8.25 9.95L8.1 9.85L8 9.6L7.8 9.3L7.75 9.3L7.5 9L7.7 8.9Q7.85 8.75 7.95 8.75L8.05 8.7L8.1 8.8L8.15 8.85L8.4 8.8L8.45 8.45L8.95 8.3L9.05 8.2L9 8.15L9 8.1L8.95 8.05L8.9 8.05L8.9 8L8.3 8.15L8.25 7.9L8.1 7.75L7.95 7.7L7.85 7.7L7.8 7.75L7.75 7.8L7.95 8.2L8 8.3L7.95 8.3L7.6 8.6L7.6 8.55L7.3 8.65L7.15 8.3L7.05 8.05M9.75,15.8Q9.25 15.9 8.8 16.1L8.75 16.15L8.65 15.9L8.65 15.5L8.75 15.45L8.85 15.4L9.2 15.35L9.6 15.6L9.75 15.8M15.9,6.15L15.95 6.15L16 6.25L16.4 6.25L16.5 6.25L16.55 6.3L16.6 6.3L16.65 6.35L16.8 6.25L16.9 6.1L16.95 6L16.8 5.8L16.75 5.8L16.55 5.8L16.35 5.8L15.95 6.05L15.9 6.15M15.2,5.4L14.85 4.8Q14.6 4.5 14 4.45L13.85 4.4L13.65 4.35L13.15 4.3Q12.3 4.45 11.75 4.95L11.65 5.05L11.4 5.45Q11 6.25 11.3 7.1L11.35 7.15L11.45 7.4L11.75 7.85L12.4 8.2L13.35 8.2L14.05 8.1Q15.05 7.75 15.25 6.75L15.3 6.5L15.3 5.9L15.25 5.6L15.25 5.55L15.2 5.4M10.45,8.2Q10.2 8.1 10.15 8.3L9.95 8.65L9.9 8.65L10.45 8.7Q10.7 8.5 10.55 8.3L10.45 8.2M9.9,6.85L9.85 6.8L9.5 6.95L9.3 7.1L9.25 7.2L9.55 7.35L10 7L10 6.95L9.9 6.85M10.1,12.4L10.25 12.5L10.3 12.8L10.25 13.05L10.15 13.1L9.85 13.05L9.85 12.65Q9.9 12.45 10.1 12.4M7.7,13.35L7.85 13.35L7.95 13.45L8 13.7L7.95 13.85L7.85 13.85L7.6 13.85L7.5 13.8L7.45 13.65L7.6 13.4L7.7 13.35M14.85,18L14.8 18.1L14.85 18.15L14.85 18.35L14.9 18.55L14.65 19.2Q14.35 19.85 12.85 20.5L11.3 20.85L11.3 20.8L11.15 20.35L10.85 20.2Q10.65 20.25 10.5 20.4L10.3 20.8L10.3 20.85L9.7 20.75L9 20.6L8.75 20.55L8.65 20.5L8.65 20.55L8.65 20.7L8.65 20.8L8.55 20.8L8.35 20.9L8.2 20.9L8.05 20.7L8.05 20.5L8.05 20.4L8.1 20.35L7.7 20.25L7.05 20Q7.5 19.25 8.2 18.8L8.4 18.6L8.3 18.5L8.25 18.35L8.35 18.25Q8.45 18.05 8.6 18.05L8.85 18.05L9 18.1L9.1 18.15L9.15 18.1L9.45 18.4L9.85 18.45L10.95 18.3L10.95 17.65L10.8 17.55L12.05 17.4L13.35 17.55L14.1 17.7L14.7 17.9L14.85 18M12.75,18.85L12.65 18.85Q12.4 18.8 12.3 19L12.35 19.35L12.45 19.45Q12.85 19.55 12.95 19.25L12.75 18.85M18.8,20.65L18.45 21.6L18.2 22L17.9 22.4L17.85 22.45L17.15 23.05L17.95 23.05L18.15 22.95L18.05 23.7L17.55 24.95L17.25 25.3L17.1 25.5L16.3 26.55L16.1 26.65L16.1 26.7L14.75 25.4L13.55 24.6Q13.95 23.95 14.65 23.45L15.85 22.65L16.1 22.5L16.55 21.9Q16.95 20.75 17.65 20.55L18.7 20.5L18.8 20.65" />
<path style="fill:#3E3E51;fill-opacity:1" d="M16.8,19.4L17.9 19L18.7 20.5L17.65 20.55Q16.95 20.75 16.55 21.9L16.1 22.5L15.85 22.65L14.65 23.45Q13.95 23.95 13.55 24.6Q12.9 24.25 12.2 24.05L12.1 24L12.25 23.5L12.35 23.1L12.55 23.05Q14.55 22.6 15.9 21.15L16.25 20.2L16.25 19.4L16.8 19.4M9.6,15.6L9.2 15.35L8.85 15.4L8.75 15.45L8.65 15.5L8.65 15.9L8.75 16.15Q8.1 16.45 7.6 16.9L7.55 16.85L7.15 15.9L6.55 13.35L6.35 11.65L6.35 10.9L6.55 9.65L7.05 8.05L7.15 8.3L7.3 8.65L7.6 8.55L7.6 8.6L7.95 8.3L8 8.3L7.95 8.2L7.75 7.8L7.8 7.75L7.85 7.7L7.95 7.7L8.1 7.75L8.25 7.9L8.3 8.15L8.9 8L8.9 8.05L8.95 8.05L9 8.1L9 8.15L9.05 8.2L8.95 8.3L8.45 8.45L8.4 8.8L8.15 8.85L8.1 8.8L8.05 8.7L7.95 8.75Q7.85 8.75 7.7 8.9L7.5 9L7.75 9.3L7.8 9.3L8 9.6L8.1 9.85L8.25 9.95L8.75 10L9.85 10.2L10.4 10.2L10.7 10.3L10.75 10.35L10.85 10.35L10.95 10.3L11.05 10.45L11.2 10.55L11.3 10.55L11.3 10.5L11.35 10.5L11.25 10.05Q12.7 9.8 14.15 9.15L14.9 8.85L14.35 9.35Q13.35 10.35 13 11.8L12.8 13.5L13 15.7L13.05 15.75Q11.1 15.5 9.75 15.8L9.6 15.6M9.85,12.65L9.85 13.05L10.15 13.1L10.25 13.05L10.3 12.8L10.25 12.5L10.1 12.4Q9.9 12.45 9.85 12.65M7.6,13.4L7.45 13.65L7.5 13.8L7.6 13.85L7.85 13.85L7.95 13.85L8 13.7L7.95 13.45L7.85 13.35L7.7 13.35L7.6 13.4M15.1,18.45L15.25 18.85L15.4 19.2Q15.55 20.05 14.5 21.15Q13.8 21.85 12.55 22.15L11.75 22.25L11.65 22.25L10.2 22.3Q8.35 22.2 7.55 21.4L7.25 21L7 20.2L7 20.1L7 19.95L7.05 20L7.7 20.25L8.1 20.35L8.05 20.4L8.05 20.5L8.05 20.7L8.2 20.9L8.35 20.9L8.55 20.8L8.65 20.8L8.65 20.7L8.65 20.55L8.65 20.5L8.75 20.55L9 20.6L9.7 20.75L10.3 20.85L10.3 20.8L10.5 20.4Q10.65 20.25 10.85 20.2L11.15 20.35L11.3 20.8L11.3 20.85L12.85 20.5Q14.35 19.85 14.65 19.2L14.9 18.55L14.85 18.35L14.85 18.15L14.8 18.1L14.85 18L15.1 18.45M12.95,19.25Q12.85 19.55 12.45 19.45L12.35 19.35L12.3 19Q12.4 18.8 12.65 18.85L12.75 18.85L12.95 19.25" />
<path style="fill:#3C3326;fill-opacity:1" d="M17,12.1Q17.7 14.15 19.65 13.3L19.8 12.45L19.7 11.45Q19.45 10.55 18.45 10.2Q17.55 10.15 17.15 10.45Q16.65 10.85 17 12.1M19.15,14.2L17.6 13.95Q16.95 13.45 16.45 12.35Q16.15 11.6 16.15 11.05L16.25 10.8L16.5 10.3Q17.1 9.55 18.3 9.6L18.7 9.65Q19.6 9.75 20.15 10.75Q20.75 11.7 20.55 12.5L20.2 13.65L20.1 13.8L19.15 14.2" />
<path style="fill:#4F4536;fill-opacity:1" d="M17.15,10.45Q17.55 10.15 18.45 10.2Q19.45 10.55 19.7 11.45L19.8 12.45L19.65 13.3Q17.7 14.15 17 12.1Q16.65 10.85 17.15 10.45" />
<path style="fill:#36271F;fill-opacity:1" d="M4.95,38.5L4.4 38.1L4.35 38.05L2.6 36.25Q1.55 34.75 1.3 32.75L1.3 32.55L1.2 31.2Q1.45 28.75 3.1 26.75Q4.3 25.25 6 24.45L6.2 24.35L6.75 24.15L6.9 24.1L8.6 23.7L11.3 23.85L11.35 23.85L12.1 24L12.2 24.05Q12.9 24.25 13.55 24.6L14.75 25.4L16.1 26.7L16.7 27.5Q17.55 28.95 17.8 30.75L17.8 30.8L17.8 31.3L17.85 31.7L17.8 32.7L17.75 33Q17.55 34.8 16.4 36.35L16.05 36.75L15.85 37.05Q13.7 39.4 10.5 39.8L9.6 39.9L8.8 39.85L8.25 39.8Q6.65 39.6 5.3 38.75L4.95 38.5M2,31.9L2.05 32.55Q2.2 33.95 2.85 35.15Q3.55 36.55 4.95 37.55L5.65 38L6.25 38.35Q7.7 39.05 9.35 39.05L10.4 39L10.6 39L12.8 38.3L14.15 37.45L15.2 36.45L15.3 36.3L15.9 35.55Q16.95 33.95 17 32.1L17 31.9L17.05 31.8L17.05 31.75L17 31.2L16.95 30.8L16.8 30.1L16.8 30L16 28L15.4 27.15L14.55 26.35L13.2 25.4L11.65 24.8L10.95 24.6L10.9 24.6L9.1 24.55L8.5 24.6L6.75 25L6.6 25.1Q6.4 25.15 6.15 25.3L5.95 25.4Q4.75 25.95 3.8 27.05Q2.6 28.4 2.2 30.05L2 31.9M14.55,33.4L14.25 34.1L13.65 34.9L12.95 35.65Q12 36.45 10.75 36.7L10.15 36.8L9.9 36.85L9.25 36.85L8.25 36.75L7.15 36.3L6.3 35.75Q5.2 34.95 4.7 33.75L4.4 32.5L4.4 32.4Q4.15 30.3 5.5 28.6Q6.25 27.6 7.45 27.1L7.65 27.05L7.9 26.95L8.9 26.7L8.95 26.7L9.4 26.7L10.75 26.75L11.2 26.9Q12 27.15 12.75 27.65L12.85 27.75L13.7 28.55L14.55 30.15L14.6 30.25L14.75 31.15L14.75 31.25L14.8 32.1L14.6 33.15L14.55 33.4M5.3,32.2Q5.45 33.35 6.15 34.25L6.95 35.05Q7.65 35.6 8.5 35.8L9.9 35.95L10.05 35.9L11.05 35.65L12.35 34.9L12.8 34.5L12.85 34.4L12.95 34.25L13.35 33.65L13.35 33.6L13.8 31.8L13.75 31.5L13.7 31.05L13.5 30.15L13.15 29.55L12.55 28.8L12.4 28.7L12.3 28.6Q11.6 28.05 10.75 27.85L10.3 27.75L9.3 27.65L8.95 27.7L8.2 27.85L7.95 27.9L7.6 28.05L6.3 29Q5.35 30.1 5.25 31.5L5.3 32.2" />
<path style="fill:#785743;fill-opacity:1" d="M16.75,30L15.55 28.25L14.7 27.4L14.7 27.35L14.55 27.3L14.45 27.35Q14.05 27.4 13.85 27.05L13.8 26.9L13.75 26.65L13.05 26.25Q12.5 25.95 12 25.8L11.05 25.95L10.1 25.65L10.15 25.5L10.1 25.45L9.15 25.5L9 25.5L8.55 25.6L7.35 25.9L7.25 25.9L7.3 25.85L7.25 25.8L7.15 25.65L6.95 25.6L6.85 25.55L6.6 25.7L6.55 25.75L6.45 25.8L6.4 26L6.4 26.15L6.4 26.25L4.8 27.15L4.85 27.25L4.95 27.35L4.6 27.7L4.25 27.65L3.9 28Q2.85 28.9 2.2 30.05Q2.6 28.4 3.8 27.05Q4.75 25.95 5.95 25.4L6.15 25.3Q6.4 25.15 6.6 25.1L6.75 25L8.5 24.6L9.1 24.55L10.9 24.6L10.95 24.6L11.65 24.8L13.2 25.4L14.55 26.35L15.4 27.15L16 28L16.8 30L16.8 30.1L16.75 30M15.5,29.55L15.7 29.8L15.8 30L15.8 30.1L15.3 30.25L15.15 30.15L15.15 30.1L15.1 29.9L15.1 29.8L15.15 29.75L15.25 29.65L15.35 29.55L15.5 29.55M8.65,24.9L8.5 24.8L8.35 24.9Q8.2 25.05 8.45 25.1Q8.9 25.2 8.65 24.9M3.75,29.55L3.9 29.65Q4 30 3.6 30.05L3.4 29.9Q3.35 29.75 3.45 29.7L3.55 29.65L3.75 29.55" />
<path style="fill:#A0ADBF;fill-opacity:1" d="M19.1,21.45L19.25 22.9L18.95 23.75L18.25 24.65L18.2 24.65L17.65 25.25L17.2 25.7L16.3 26.55L17.1 25.5L17.25 25.3L17.55 24.95L18.05 23.7L18.15 22.95L17.95 23.05L17.15 23.05L17.85 22.45L17.9 22.4L18.2 22L18.45 21.6L18.8 20.65L19.1 21.45" />
<path style="fill:#574031;fill-opacity:1" d="M3.8,33.3L3.7 33.25L3.85 33L3.7 32.6L3.55 32.55Q3.3 32.55 3.3 32.8L3.3 32.95L3.2 32.85L3 32.9L2.75 32.95L2.65 32.95L2.6 32.8L2.6 32.6L2.6 32.5L2.65 32.45L2 31.9L2.2 30.05Q2.85 28.9 3.9 28L4.25 27.65L4.6 27.7L4.95 27.35L4.85 27.25L4.8 27.15L6.4 26.25L6.4 26.15L6.4 26L6.45 25.8L6.55 25.75L6.6 25.7L6.85 25.55L6.95 25.6L7.15 25.65L7.25 25.8L7.3 25.85L7.25 25.9L7.35 25.9L8.55 25.6L9 25.5L9.15 25.5L10.1 25.45L10.15 25.5L10.1 25.65L11.05 25.95L12 25.8Q12.5 25.95 13.05 26.25L13.75 26.65L13.8 26.9L13.85 27.05Q14.05 27.4 14.45 27.35L14.55 27.3L14.7 27.35L14.7 27.4L15.55 28.25L16.75 30L16.8 30.1L16.95 30.8L17 31.2L17.05 31.75L17.05 31.8L17 31.9L16.5 32.25L16.1 32.45L16.15 32.45L16.05 32.75L15.6 32.85L15.5 32.85L15.35 32.8L15.3 32.85L14.6 33.15L14.8 32.1L14.75 31.25L14.75 31.15L14.6 30.25L14.55 30.15L13.7 28.55L12.85 27.75L12.75 27.65Q12 27.15 11.2 26.9L10.75 26.75L9.4 26.7L8.95 26.7L8.9 26.7L7.9 26.95L7.65 27.05L7.45 27.1Q6.25 27.6 5.5 28.6Q4.15 30.3 4.4 32.4L4.4 32.5L4.7 33.75L3.8 33.3M15.35,29.55L15.25 29.65L15.15 29.75L15.1 29.8L15.1 29.9L15.15 30.1L15.15 30.15L15.3 30.25L15.8 30.1L15.8 30L15.7 29.8L15.5 29.55L15.35 29.55M11.25,37.05L11.4 36.95L11.6 36.95L11.6 37.3L11.55 37.3L11.2 37.35L11.1 37.25Q11.1 37.1 11.25 37.1L11.25 37.05M15.1,34.65L15.25 34.7Q15.5 35 15.1 34.9Q14.8 34.85 15.1 34.65M15.85,31L15.75 30.85L15.4 30.95L15.2 31.15L15.2 31.2L15.35 31.35Q15.9 31.4 15.85 31M8.45,25.1Q8.2 25.05 8.35 24.9L8.5 24.8L8.65 24.9Q8.9 25.2 8.45 25.1M7.25,26.8Q7.55 26.7 7.45 26.45L7.3 26.25L7.05 26.4Q6.9 26.45 6.8 26.55L6.8 26.65L7.25 26.8M3.55,29.65L3.45 29.7Q3.35 29.75 3.4 29.9L3.6 30.05Q4 30 3.9 29.65L3.75 29.55L3.55 29.65M3.2,31.45L2.8 31.55Q2.55 31.6 2.55 31.8L2.7 31.9Q3.35 32.1 3.4 31.6L3.3 31.5L3.2 31.45M4.7,35.25L4.85 35.65L4.8 35.95L4.55 35.9L4.15 35.6L4.05 35.35L4.1 35.3Q4.15 35.2 4.25 35.2L4.4 35.1Q4.55 35.1 4.7 35.25M5.6,36.75Q5.95 37.05 5.55 36.95Q5.2 36.9 5.5 36.65L5.6 36.75M8.95,37.8Q8.75 38.2 8.15 38.2L7.95 38.1L7.9 38L7.85 37.7L7.9 37.6L7.95 37.55L8.15 37.4L8.4 37.35L8.8 37.55L8.95 37.7L8.95 37.8" />
<path style="fill:#7E6A3D;fill-opacity:1" d="M12.65,29.45L11.85 29.35L11 29.25L10.6 29.25L10.5 29.15L10.4 29.15L10.2 29.05L10.1 28.95L9.7 29.1L9.6 29.1Q9.5 29.1 9.4 29.25L9.45 29.35L8.6 29.55L8.55 29.5L8.55 29.4L8.5 29.25Q8.45 29.05 8.25 29.1L8 29.2L7.7 29.25L7.75 29.5L7.45 29.9L7.45 29.95L7.4 30L7.35 30.2L6.9 30.25L6.85 30.15L6.75 30.15L6.3 29.95L6.25 30L6.15 30.1L6.05 30.15L6 30.25L6.05 30.3L6.05 30.4L6.05 30.55L6.35 30.65L5.25 31.5Q5.35 30.1 6.3 29L7.6 28.05L7.95 27.9L8.2 27.85L8.95 27.7L9.3 27.65L10.3 27.75L10.75 27.85Q11.6 28.05 12.3 28.6L12.4 28.7L12.55 28.8L13.15 29.55L12.65 29.45M11.3,30.45L11.5 30.25L11.55 30.15Q11.65 29.95 11.9 30L12.05 30.05L12.15 30.2L12.2 30.3L12.2 30.35L11.95 30.7L11.4 30.7L11.3 30.6L11.3 30.55L11.3 30.45M7.35,31.15L7.4 31.1L7.5 31.2Q7.8 31.6 7.35 31.4L7.3 31.4Q7.05 31.25 7.35 31.15" />
<path style="fill:#675232;fill-opacity:1" d="M6.15,34.25Q5.45 33.35 5.3 32.2L5.25 31.5L6.35 30.65L6.05 30.55L6.05 30.4L6.05 30.3L6 30.25L6.05 30.15L6.15 30.1L6.25 30L6.3 29.95L6.75 30.15L6.85 30.15L6.9 30.25L7.35 30.2L7.4 30L7.45 29.95L7.45 29.9L7.75 29.5L7.7 29.25L8 29.2L8.25 29.1Q8.45 29.05 8.5 29.25L8.55 29.4L8.55 29.5L8.6 29.55L9.45 29.35L9.4 29.25Q9.5 29.1 9.6 29.1L9.7 29.1L10.1 28.95L10.2 29.05L10.4 29.15L10.5 29.15L10.6 29.25L11 29.25L11.85 29.35L12.65 29.45L13.15 29.55L13.5 30.15L13.7 31.05L13.75 31.5L13.8 31.8L13.35 33.6L13.1 33.7L12.15 33.9L12 33.95L11.65 34.05L11.45 34.1L10.8 34.2L10.65 33.95L10.5 33.9Q10.15 33.95 10.25 34.3L10.25 34.35L9.95 34.4L9.35 34.45L9.5 34.3L9.65 34.2L9.6 34.1L9.6 34L9.6 33.85L9.5 33.7L9.35 33.65L9.15 33.8L8.85 33.9L8.3 34.25L8.3 34.45L8.3 34.5L8.2 34.5L8.2 34.65L8.15 34.65L8.15 34.75L7.75 34.8L7.5 34.65L7.5 34.5L7.5 34.45L6.15 34.25M11.3,30.55L10.45 30.95L10.35 31L10.3 30.95L9.95 30.7L10.45 30.15L10.3 30.1L9.8 30.3L9.7 30.35L9.5 30.4L9.45 30.35L9.35 30.3L9.3 30.35L9.2 30.6L8.35 31.05L8.2 31.35L8.2 31.45L9.15 31.25L9.4 31.15L9.6 31.25L9.75 31.4L9.25 31.8L8.95 32.1L8.95 32.35L9.8 32.1L10.2 31.75L10.6 31.9L10.85 31.9L10.85 31.7L10.65 31.4L11.15 30.95L11.4 30.7L11.95 30.7L12.2 30.35L12.2 30.3L12.15 30.2L12.05 30.05L11.9 30Q11.65 29.95 11.55 30.15L11.5 30.25L11.3 30.45L11.3 30.55M12.95,32.15L12.5 32.2Q12.25 32.1 12.05 32.35L12.05 32.55Q12.1 32.95 12.55 32.85L12.95 32.65L13.05 32.2L12.95 32.15M7.3,31.4L7.35 31.4Q7.8 31.6 7.5 31.2L7.4 31.1L7.35 31.15Q7.05 31.25 7.3 31.4M6.4,32.4L6.4 32.5L6.4 32.6L6.6 32.7L7.3 32.5L7.3 32.45L7.3 32.3L7.25 32.25L7.15 32.05L7 31.9L6.8 31.95L6.55 32.1L6.4 32.2L6.35 32.3L6.35 32.35L6.4 32.4" />
<path style="fill:#55442B;fill-opacity:1" d="M31.5,30.25L31.3 30.05L31.55 30.2L31.5 30.25M7.5,34.45L7.5 34.5L7.5 34.65L7.75 34.8L8.15 34.75L8.15 34.65L8.2 34.65L8.2 34.5L8.3 34.5L8.3 34.45L8.3 34.25L8.85 33.9L9.15 33.8L9.35 33.65L9.5 33.7L9.6 33.85L9.6 34L9.6 34.1L9.65 34.2L9.5 34.3L9.35 34.45L9.95 34.4L10.25 34.35L10.25 34.3Q10.15 33.95 10.5 33.9L10.65 33.95L10.8 34.2L11.45 34.1L11.65 34.05L12 33.95L12.15 33.9L13.1 33.7L13.35 33.6L13.35 33.65L12.95 34.25L12.85 34.4L12.8 34.5L12.35 34.9L11.05 35.65L10.05 35.9L9.9 35.95L8.5 35.8Q7.65 35.6 6.95 35.05L6.15 34.25L7.5 34.45M11.15,30.95L10.65 31.4L10.85 31.7L10.85 31.9L10.6 31.9L10.2 31.75L9.8 32.1L8.95 32.35L8.95 32.1L9.25 31.8L9.75 31.4L9.6 31.25L9.4 31.15L9.15 31.25L8.2 31.45L8.2 31.35L8.35 31.05L9.2 30.6L9.3 30.35L9.35 30.3L9.45 30.35L9.5 30.4L9.7 30.35L9.8 30.3L10.3 30.1L10.45 30.15L9.95 30.7L10.3 30.95L10.35 31L10.45 30.95L11.3 30.55L11.3 30.6L11.4 30.7L11.15 30.95M13.05,32.2L12.95 32.65L12.55 32.85Q12.1 32.95 12.05 32.55L12.05 32.35Q12.25 32.1 12.5 32.2L12.95 32.15L13.05 32.2M6.35,32.35L6.35 32.3L6.4 32.2L6.55 32.1L6.8 31.95L7 31.9L7.15 32.05L7.25 32.25L7.3 32.3L7.3 32.45L7.3 32.5L6.6 32.7L6.4 32.6L6.4 32.5L6.4 32.4L6.35 32.35" />
<path style="fill:#3C2C22;fill-opacity:1" d="M4.7,33.75Q5.2 34.95 6.3 35.75L7.15 36.3L8.25 36.75L9.25 36.85L9.9 36.85L10.15 36.8L10.75 36.7Q12 36.45 12.95 35.65L13.65 34.9L14.25 34.1L14.55 33.4L14.6 33.15L15.3 32.85L15.35 32.8L15.5 32.85L15.6 32.85L16.05 32.75L16.15 32.45L16.1 32.45L16.5 32.25L17 31.9L17 32.1Q16.95 33.95 15.9 35.55L15.3 36.3L15.2 36.45L14.15 37.45L12.8 38.3L10.6 39L10.4 39L9.35 39.05Q7.7 39.05 6.25 38.35L5.65 38L4.95 37.55Q3.55 36.55 2.85 35.15Q2.2 33.95 2.05 32.55L2 31.9L2.65 32.45L2.6 32.5L2.6 32.6L2.6 32.8L2.65 32.95L2.75 32.95L3 32.9L3.2 32.85L3.3 32.95L3.3 32.8Q3.3 32.55 3.55 32.55L3.7 32.6L3.85 33L3.7 33.25L3.8 33.3L4.7 33.75M11.25,37.1Q11.1 37.1 11.1 37.25L11.2 37.35L11.55 37.3L11.6 37.3L11.6 36.95L11.4 36.95L11.25 37.05L11.25 37.1M15.1,34.9Q15.5 35 15.25 34.7L15.1 34.65Q14.8 34.85 15.1 34.9M15.35,31.35L15.2 31.2L15.2 31.15L15.4 30.95L15.75 30.85L15.85 31Q15.9 31.4 15.35 31.35M6.8,26.65L6.8 26.55Q6.9 26.45 7.05 26.4L7.3 26.25L7.45 26.45Q7.55 26.7 7.25 26.8L6.8 26.65M3.3,31.5L3.4 31.6Q3.35 32.1 2.7 31.9L2.55 31.8Q2.55 31.6 2.8 31.55L3.2 31.45L3.3 31.5M4.4,35.1L4.25 35.2Q4.15 35.2 4.1 35.3L4.05 35.35L4.15 35.6L4.55 35.9L4.8 35.95L4.85 35.65L4.7 35.25Q4.55 35.1 4.4 35.1M5.5,36.65Q5.2 36.9 5.55 36.95Q5.95 37.05 5.6 36.75L5.5 36.65M8.95,37.7L8.8 37.55L8.4 37.35L8.15 37.4L7.95 37.55L7.9 37.6L7.85 37.7L7.9 38L7.95 38.1L8.15 38.2Q8.75 38.2 8.95 37.8L8.95 37.7" />
<path style="fill:#443911;fill-opacity:1" d="M31.55,30.2L31.3 30.05L29.95 28.9L28.8 28.3L28.8 28.25L27.85 27.35Q27.25 26.65 27.2 25.65L27.2 25.6L27.25 25.2Q27.45 24.05 28.65 24.6Q29.4 24.95 29.85 25.25L30.25 25.5L30.5 25.7L30.45 25.7L30.9 26L31.4 26.35L32.5 27.1L33.65 27.95L33.55 27.9L33.7 28L34.4 28.5L35 29L35.7 29.65L36.05 30.45Q36.1 30.95 35.05 31.1L34.7 31.15Q33.6 31.15 32.2 30.55L31.95 30.9L31.55 30.3L31.5 30.25L31.55 30.2M29.95,28.4L31 29.2Q32.8 30.25 34.55 30.4L34.85 30.4L35.05 30.2L34.5 29.4L31.7 27.4L30.95 26.9L29.8 26.15L28.95 25.65L27.95 25.2L28 25.95L28.4 26.75L28.4 26.8L28.45 26.85L29.95 28.4" />
<path style="fill:#C6A831;fill-opacity:1" d="M30.5,28.15L29.95 27.85L28.45 26.85L28.4 26.8L28.4 26.75L28 25.95L28.4 26.15L29.8 26.8L31.35 27.7L31.4 27.7L33.45 29L34.25 29.9L30.5 28.15" />
<path style="fill:#E1CF2F;fill-opacity:1" d="M27.95,25.2L28.95 25.65L29.8 26.15L30.95 26.9L31.7 27.4L34.5 29.4L35.05 30.2L34.85 30.4L34.55 30.4L34.25 29.9L33.45 29L31.4 27.7L31.35 27.7L29.8 26.8L28.4 26.15L28 25.95L27.95 25.2" />
<path style="fill:#AA912B;fill-opacity:1" d="M28.45,26.85L29.95 27.85L30.5 28.15L34.25 29.9L34.55 30.4Q32.8 30.25 31 29.2L29.95 28.4L28.45 26.85" />
</g>
</svg>
