<?xml version="1.0" encoding="utf-8"?>
<svg version="1.1" id="Layer_1"
xmlns="http://www.w3.org/2000/svg"
xmlns:xlink="http://www.w3.org/1999/xlink"
xmlns:author="http://www.sothink.com"
width="29px" height="35px"
xml:space="preserve">
<g id="2160" transform="matrix(1, 0, 0, 1, 0, 0)">
<radialGradient
id="RadialGradID_2142" gradientUnits="userSpaceOnUse" gradientTransform="matrix(0.0222168, 0, 0, 0.0222168, 14.9, 18.5)" spreadMethod ="pad" cx="0" cy="0" r="819.2" fx="0" fy="0" >
<stop  offset="0"  style="stop-color:#2A2A2A;stop-opacity:1" />
<stop  offset="0.32549"  style="stop-color:#232323;stop-opacity:1" />
<stop  offset="1"  style="stop-color:#000000;stop-opacity:1" />
</radialGradient>
<path style="fill:url(#RadialGradID_2142) " d="M22.85,19.55L25.45 21.55L28.85 26.6L22.7 25.9L19.4 23.65L18.65 33.1L15.55 26.15L13.85 30.7L9.5 34.25L9.65 33.6Q10.75 30.1 9.2 27.85L11.3 23.35L0.95 25.05L5.65 21.65L2.25 20.7L6.05 19.95L11 19.1L8.35 18.5L0 10.75L5.95 12.75L11.35 15.7L12.8 15.25L11.05 9.45Q10.8 8.8 11.05 6.9L11.5 3.3L13 4.95L14.35 6.7L14.5 8.8L14.75 7L15.6 7.55L16.15 9.4L16.5 13.95L18.45 8.55L25.35 0L23.55 11.5L19.15 16.3L23.45 15.25L27 16.95L22.85 19.55" />
</g>
</svg>
