<?xml version="1.0" encoding="utf-8"?>
<svg version="1.1" id="Layer_1"
xmlns="http://www.w3.org/2000/svg"
xmlns:xlink="http://www.w3.org/1999/xlink"
xmlns:author="http://www.sothink.com"
width="160px" height="52px"
xml:space="preserve">
<g id="786" transform="matrix(1, 0, 0, 1, 0, 0)">
<path style="fill:#FFD0A8;fill-opacity:1" d="M157.55,50L157.55 1.5L159.05 1.5L159.05 51.75L0 51.75L0 50L157.55 50" />
<path style="fill:#AA936C;fill-opacity:1" d="M0,50L0 0L157.55 0L157.55 1.5L157.55 50L0 50" />
<path style="fill:#6C5C3E;fill-opacity:1" d="M7.5,44.75L45.75 44.75L45.75 6L45.75 4L47.5 4L47.5 46L5.5 46L5.5 44.75L7.5 44.75" />
<path style="fill:#A99267;fill-opacity:1" d="M7.5,6L7.5 44.75L5.5 44.75L5.5 4L45.75 4L45.75 6L7.5 6" />
<path style="fill:#8F7852;fill-opacity:1" d="M45.75,6L45.75 44.75L7.5 44.75L7.5 6L45.75 6" />
</g>
</svg>
