<?xml version="1.0" encoding="utf-8"?>
<svg version="1.1" id="Layer_1"
xmlns="http://www.w3.org/2000/svg"
xmlns:xlink="http://www.w3.org/1999/xlink"
xmlns:author="http://www.sothink.com"
width="43px" height="95px"
xml:space="preserve">
<g id="1593" transform="matrix(1, 0, 0, 1, 17.15, 18.85)">
<path style="fill:#FFFFFF;fill-opacity:1" d="M18.4,-17.9L20.5 -15.95L23.7 -11.7Q25.95 -8.5 24.35 -10.3Q22.8 -12.1 22.75 -9.5L22.55 -5.95Q22.45 -5.1 19.75 2.9Q16.75 -3.05 15.1 0.05L11.85 6L11.75 -0.65L11.45 -0.25Q10.45 1.6 8.15 7Q6.8 10.1 5.6 11.7L5.85 11.1Q4.3 12.5 -1.9 15.95Q-8.1 19.4 -10.25 19.75Q-6.8 25.45 -4.6 29.75Q-2.45 34 -2.5 34.4Q-2.6 34.75 -5.7 32.15Q-12.5 35.3 -12 39.45Q-8.2 44.1 -6 45.6Q-3.8 47.15 -6.15 50.05Q-8.55 52.95 -10.6 58.55L-12.8 64.75L-12.95 66.25Q-13 67.1 -3.4 75.25Q-12.55 71.7 -15.6 68.85L-16.6 67.7L-17.1 66.6Q-15.4 60 -11.35 54Q-7.4 48 -12.25 44.55Q-17.1 41.1 -17.15 38.95Q-17.2 36.75 -13.1 33Q-9.05 29.2 -8.9 29.5L-11.05 25.35L-13.65 19.2Q-14.15 17.5 -9.6 15.6L2.65 10.3L5.1 6Q7 2.8 8.7 -0.95L3.1 2.25Q0.45 3.85 -0.55 4.6L-0.95 4.05Q1.4 0.8 6.85 -5.95L-2.6 -4.5Q-1 -5.45 3.05 -8.4L7.05 -11.35Q3.75 -10.45 1.8 -10.3Q3.3 -12.55 6.45 -14.95Q9.55 -17.35 11.6 -18.1Q13.6 -18.85 15.45 -18.85Q17.25 -18.85 18.4 -17.9M-2,6.2L-2.5 6.85L-2.85 6.75L-2.5 5.75L-2 6.2" />
</g>
</svg>
