<?xml version="1.0" encoding="utf-8"?>
<svg version="1.1" id="Layer_1"
xmlns="http://www.w3.org/2000/svg"
xmlns:xlink="http://www.w3.org/1999/xlink"
xmlns:author="http://www.sothink.com"
width="87px" height="33px"
xml:space="preserve">
<g id="421" transform="matrix(1, 0, 0, 1, 23.3, -5.15)">
<path style="fill:#0A3580;fill-opacity:1" d="M59,6.5Q63.6 8.9 63.6 15.75L63.6 27.3Q63.35 37.4 52.75 37.4L-12.45 37.4Q-23.05 37.4 -23.3 27.3L-23.3 27.25L-23.3 26.8L-23.3 15.75Q-23.3 8.9 -18.7 6.5Q-16.2 5.15 -12.45 5.15L52.75 5.15Q56.5 5.15 59 6.5M52.9,35.8Q61.75 35.75 62 27.25L62 15.75Q62 6.75 52.75 6.75L-12.45 6.75Q-21.65 6.75 -21.65 15.75L-21.65 26.8L-21.65 27.25Q-21.45 35.8 -12.45 35.8L52.75 35.8L52.9 35.8" />
<linearGradient
id="LinearGradID_527" gradientUnits="userSpaceOnUse" gradientTransform="matrix(0.0020752, 0.0184326, -0.0735474, 0.00794983, 28.45, 21.2)" spreadMethod ="pad" x1="-819.2" y1="0" x2="819.2" y2="0" >
<stop  offset="0.00392157" style="stop-color:#7EECF0;stop-opacity:1" />
<stop  offset="0.423529" style="stop-color:#26AEDB;stop-opacity:1" />
<stop  offset="1" style="stop-color:#11539C;stop-opacity:1" />
</linearGradient>
<path style="fill:url(#LinearGradID_527) " d="M53.1,9.85L52.55 9.7L-9.1 9.7Q-18.65 9.7 -18.65 18.45L-18.65 24.5L-18.5 26.2L-18.3 27.25Q-16.9 32.9 -9.1 32.9L15.9 32.9L15.9 32.85L19.85 32.85L19.85 32.8L52.75 32.75Q56 32.5 57.5 30.7Q58.95 28.85 59 27.6L59 24.5L59 18.45Q59 11.35 53.1 9.85M52.75,35.8L-12.45 35.8Q-21.45 35.8 -21.65 27.25L-21.65 26.8L-21.65 15.75Q-21.65 6.75 -12.45 6.75L52.75 6.75Q62 6.75 62 15.75L62 27.25Q61.75 35.75 52.9 35.8L52.75 35.8" />
<linearGradient
id="LinearGradID_528" gradientUnits="userSpaceOnUse" gradientTransform="matrix(0.000289917, 0.0141602, -0.24025, 0.000289917, -76.8, 22.25)" spreadMethod ="pad" x1="-819.2" y1="0" x2="819.2" y2="0" >
<stop  offset="0" style="stop-color:#48C2EB;stop-opacity:1" />
<stop  offset="1" style="stop-color:#005F94;stop-opacity:1" />
</linearGradient>
<path style="fill:url(#LinearGradID_528) " d="M59,18.45L59 24.5L59 27.6Q58.95 28.85 57.5 30.7Q56 32.5 52.75 32.75L19.85 32.8L19.85 32.85L15.9 32.85L15.9 32.9L-9.1 32.9Q-16.9 32.9 -18.3 27.25L-18.5 26.2L-18.65 24.5L-18.65 18.45Q-18.65 9.7 -9.1 9.7L52.55 9.7L53.1 9.85Q59 11.35 59 18.45" />
</g>
</svg>
