<?xml version="1.0" encoding="utf-8"?>
<svg version="1.1" id="Layer_1"
xmlns="http://www.w3.org/2000/svg"
xmlns:xlink="http://www.w3.org/1999/xlink"
xmlns:author="http://www.sothink.com"
width="58px" height="32px"
xml:space="preserve">
<g id="204" transform="matrix(1, 0, 0, 1, 0, 0)">
<path style="fill:#CA430D;fill-opacity:1" d="M51.3,9.35Q57.65 14.9 57.9 20Q58.05 22.05 56.15 25.2Q54.2 28.3 50.8 29.8Q47.4 31.3 44.7 31.6L38.4 31.85Q34.8 31.8 28.8 30.45Q23.5 29.2 20.8 27.95Q12 23.85 6.65 19.05Q1.35 14.25 0.3 9.4L0.15 8.55Q-0.55 3.4 2.65 0.15L2.85 0L3.1 0.05L3.3 0.3L3.3 0.55Q2.1 3.8 2.8 6.95Q3.4 9.85 5.65 12.7L5.7 12.7L7.15 14.35Q9.8 17.05 13.6 19.25Q11.9 16.65 11.65 14.8Q11.35 12.9 11.5 12.4L11.6 12.1Q11.7 11.1 13.1 12.6Q16.4 16.4 21.8 18.45Q28.55 20.95 36.45 19.65Q45 18.2 46.8 12.8L46.9 12.6L47.15 12.5L47.35 12.55Q48.85 13.4 49.65 15.55L50.15 17L50.2 17Q51.3 15.2 51.05 12.6L50.65 10.45L50.55 9.85L50.6 9.6L51 9.25L51.3 9.35M15.2,20.7L15 20.8L14.75 20.75Q9.8 18.2 6.6 14.9L6.55 14.9L5.9 14.15L5.05 13.25L5.05 13.2Q2.6 10.15 1.95 6.95Q1.5 4.65 1.95 2.3Q0.8 4.35 0.85 6.95L0.95 8.45Q2.55 18.45 21 27.15Q23.65 28.4 30.4 29.9L39.45 31Q44.95 31.3 49.35 29.5Q53.65 27.7 55.45 24.8Q57 22.25 56.9 19.9Q56.6 15.3 51.45 10.6L51.85 12.4L51.85 12.5Q52.1 15.5 50.85 17.45L50.8 17.45L50.6 17.7L50.3 18.05L50.1 18.2L49.8 18.15L49.65 17.95L48.9 15.8Q48.35 14.3 47.35 13.55Q45.3 18.95 36.6 20.45Q28.45 21.75 21.5 19.2Q15.7 17 12.35 13.15L12.25 14.05L12.25 14.1Q12.8 16.85 15.05 19.95L15.25 20.2L15.3 20.45L15.25 20.65L15.2 20.7" />
<path style="fill:#FAEDB6;fill-opacity:1" d="M30.4,29.9Q23.65 28.4 21 27.15Q2.55 18.45 0.95 8.45L0.85 6.95Q0.8 4.35 1.95 2.3Q1.5 4.65 1.95 6.95Q2.6 10.15 5.05 13.2L5.05 13.25L5.9 14.15L6.1 14.6Q9.95 22.2 21.9 24.8L17.95 22.65L15.25 20.65L15.3 20.45L15.25 20.2L15.05 19.95Q12.8 16.85 12.25 14.1L12.25 14.05L12.35 13.15Q15.7 17 21.5 19.2Q28.45 21.75 36.6 20.45Q45.3 18.95 47.35 13.55Q48.35 14.3 48.9 15.8L49.65 17.95L49.8 18.15L50.1 18.2L50.3 18.05L50.6 17.7Q52.95 28.4 35.6 29.65L30.4 29.9" />
<path style="fill:#FF840E;fill-opacity:1" d="M35.6,29.65Q52.95 28.4 50.6 17.7L50.8 17.45L50.85 17.45Q52.1 15.5 51.85 12.5L51.85 12.4L51.45 10.6Q56.6 15.3 56.9 19.9Q57 22.25 55.45 24.8Q53.65 27.7 49.35 29.5Q44.95 31.3 39.45 31L30.4 29.9L35.6 29.65" />
<path style="fill:#FF960A;fill-opacity:1" d="M5.9,14.15L6.55 14.9L6.6 14.9Q9.8 18.2 14.75 20.75L15 20.8L15.2 20.7L15.25 20.65L17.95 22.65L21.9 24.8Q9.95 22.2 6.1 14.6L5.9 14.15" />
</g>
</svg>
