<?xml version="1.0" encoding="utf-8"?>
<svg version="1.1" id="Layer_1"
xmlns="http://www.w3.org/2000/svg"
xmlns:xlink="http://www.w3.org/1999/xlink"
xmlns:author="http://www.sothink.com"
width="149px" height="244px"
xml:space="preserve">
<g id="1086" transform="matrix(1, 0, 0, 1, -35.5, 238.25)">
<path style="fill:#231713;fill-opacity:1" d="M137.25,-22.1L139.2 -21.3Q139.25 -25.15 141.1 -29.3L141.65 -30.4Q143.6 -34.05 147.1 -35.6Q148.45 -36.25 150.05 -36.55Q147.85 -39.4 144.4 -38.85L146.75 -40.2L147.1 -40.4Q150.4 -39.8 152.2 -36.75L152.2 -36.8Q159.3 -35.4 160.6 -29.35Q161.15 -27 160.35 -22.35L160.05 -20.9Q159.3 -17.95 157.7 -15.75Q155.65 -12.85 152.35 -11.6L149.4 -11.25Q147.2 -11.25 144.85 -11.95Q142.55 -12.65 140.8 -14.8L139.8 -16.25Q138.95 -17.8 138.85 -19.5L137.5 -20.1L137.3 -21.95L137.25 -22.1M92.2,-32.5Q96.4 -30.45 101.4 -30.4L101 -28.65Q96.5 -28.9 91.85 -30.65L91.85 -30.75L92.2 -32.5M93.8,-43.3Q100.1 -39.25 105.45 -37.65L104.2 -36.1Q101.9 -36.7 99.25 -37.85Q96.2 -39.15 93.15 -41.5L93.8 -43.3M132.3,-28.6L132.55 -30.25Q133.55 -33.3 135.3 -35.45L139.05 -36.5Q134.55 -33.45 133.8 -27.65L132.3 -28.6M134.4,-24.1L134.45 -23.95L134.3 -24.1L134.4 -24.1M151.25,-31.4Q152.75 -32.25 154.3 -32.35Q156.35 -32.5 158 -31.2Q157.65 -32.5 154.5 -34.4Q152.85 -35.4 150.8 -35.2Q149.15 -35.05 147.6 -34.2L146.6 -33.6L144.75 -32.05Q142.8 -30.05 141.9 -27.1Q140.75 -23.5 140.75 -21.05Q140.7 -18.6 142.25 -16Q143.8 -13.4 147.7 -13.2Q147.25 -13.3 146.45 -14.65Q145.55 -16.15 145.15 -18.6Q144.75 -21.1 145.35 -23.35Q145.95 -25.65 147.2 -27.6Q148.35 -29.45 150.3 -30.8L151.25 -31.4M158.65,-23L158.65 -25.7Q158.35 -28.2 157.85 -29Q157.3 -29.85 155.75 -30.4Q154.3 -30.95 152.55 -30.35L152.35 -30.3Q150.1 -29.5 148.1 -26.25L147.9 -25.85Q145.95 -22.45 146.8 -18.65Q147.65 -15.1 149.55 -14.1L153 -14Q154.65 -14.95 155.9 -16.75L158.05 -20.9L158.65 -23" />
<path style="fill:#2E201B;fill-opacity:1" d="M90.65,-66Q97.45 -73.7 110.35 -76.4L112.65 -76.65L116.25 -77.05Q132.1 -77.25 141.95 -65.25L142.15 -65L143.55 -63.1L141.25 -63.7L140.7 -63.75L140.2 -64.45L138.6 -66.55Q134.45 -71.3 128.75 -73.25Q121.25 -75.8 113.85 -75.1Q106.4 -74.4 99.6 -70.5L99 -70.15L96.4 -68.35L94.75 -67.05L93.05 -65.5L91.9 -65.8L91.25 -65.95L90.95 -66L90.65 -66M137.3,-21.95L137.5 -20.1Q137.6 -17.8 137 -14.3L136.9 -13.7Q136.15 -9.95 134.15 -7.15Q131.9 -4 128.3 -2.65L125.1 -2.25Q122.7 -2.25 120.15 -3.05Q117.65 -3.8 115.75 -6.1Q113.8 -8.45 113.65 -11.25Q110.05 -12.75 108.05 -14.45L107.35 -15Q106.75 -15.55 106.55 -16.4Q106.3 -17.35 106.2 -18.7Q106.2 -21.35 107.5 -24.5L108.05 -25.75Q108.75 -27.35 109.75 -28.6Q111.25 -30.5 113.4 -31.7Q116.9 -33.75 119.75 -33.8Q122.6 -33.85 125.05 -33.1L126.5 -32.05L128.15 -29.95L128.15 -30Q130.5 -29.55 132.3 -28.6L133.8 -27.65Q136.45 -25.65 137.25 -22.1L137.3 -21.95M91.85,-30.75L91.85 -30.65Q91.05 -27.8 89.65 -25.1Q91.8 -21.9 90.9 -19.35Q90 -16.8 87.6 -15.75Q85.2 -14.75 82.2 -14.65L78 -14.85L75.1 -15.65Q71.15 -16.9 69.25 -19.1Q67.3 -21.35 67.3 -23.45Q67.25 -25.55 67.75 -26.65L68.6 -27.9L69.5 -28.6Q70.7 -29.45 73.25 -29.6Q73.25 -31.85 74.85 -35.8L75.65 -37.05L76.75 -37.75L78.5 -38.8Q81.9 -40.65 84.05 -41.35L85 -41.6L87.5 -41.3L87.6 -41.25L90.1 -39.2L90.75 -38.45L91.45 -37.65L92.8 -35.75L92.7 -34.5L92.2 -32.5L91.85 -30.75M69.1,-24.1Q69.15 -23 69.75 -21.85Q70.25 -20.8 71.65 -19.4Q73.2 -17.85 77.15 -16.85L84.25 -16.55Q87.35 -17.3 88.25 -18.35Q89.15 -19.4 89.2 -20.6Q89.3 -21.85 88.6 -23.2L87.85 -22.8L86.4 -22.3Q84.5 -21.95 81.45 -22.2Q77.4 -22.6 75.35 -24L74.9 -24.35Q72.8 -26.05 72.85 -27.55L71.3 -27.3Q69.45 -26.7 69.15 -25.15L69.15 -24.95L69.1 -24.1M74.95,-28.4L74.95 -28Q75 -27.2 76.45 -25.85Q77.3 -25.05 78.8 -24.55L78.95 -24.5L81.25 -24.1L86.15 -24.3L86.95 -24.65L87.15 -24.8Q87.95 -25.4 88.3 -26.4L89.4 -29.55L90.85 -35.35L89.95 -36.55L89.35 -37.3L87.6 -38.85L87.2 -39.1Q86.6 -39.45 86.2 -39.75L85.55 -39.75L84.6 -39.5Q80.35 -38.25 76.85 -35.45L76.45 -35.2Q75.95 -33.9 75.45 -31.35L75.1 -29.65L74.95 -28.4M108.15,-21.15Q107.7 -19.25 107.85 -18Q107.95 -16.75 109.4 -15.5Q111.65 -13.85 114.05 -13.2Q114.1 -15.7 114.8 -18.3L115.4 -20.05L116.1 -21.85L116.2 -22Q118.6 -27.35 123.85 -29.25L126.25 -29.95Q125.95 -30.7 125.05 -31.5L123.25 -32.1Q117.1 -33.2 112.35 -29.1L111 -27.55L110.3 -26.45L109.65 -25.3L109.05 -23.8L108.75 -23.1L108.15 -21.15M127.6,-24.4Q128.8 -25 130.1 -25.15L130.45 -25.2L131.4 -25.2Q132.95 -25.05 134.3 -24.1L134.45 -23.95L134.4 -24.1L133.65 -25.2L130.65 -27.4Q128.85 -28.5 126.65 -28.3L126 -28.2Q124 -27.85 122.05 -26.55L120.5 -25.3Q118.25 -23.2 117.15 -20.05L116.95 -19.5L116.1 -16.25Q115.7 -14.35 115.7 -12.9Q115.65 -10.25 117.35 -7.45Q119.05 -4.6 123.25 -4.4Q122.8 -4.5 121.9 -5.95Q120.95 -7.6 120.5 -10.25Q120.05 -12.95 120.7 -15.4Q121.35 -17.9 122.7 -20.05Q123.95 -22.05 126.1 -23.5L127.6 -24.4M122.3,-10.3Q123.2 -6.45 125.3 -5.35L129 -5.25Q130.8 -6.3 132.15 -8.25Q133.5 -10.25 134.5 -12.75L134.8 -13.5Q135.45 -15.65 135.15 -17.95Q134.85 -20.7 134.3 -21.55L133.7 -22.15L132 -23.05L128.3 -22.95Q125.85 -22.1 123.7 -18.55L122.75 -16.6Q121.55 -13.6 122.3 -10.3" />
<path style="fill:#4D3212;fill-opacity:1" d="M107.35,-15Q106.45 -15.55 105.4 -16.6Q99.95 -22.25 101 -28.65L101.4 -30.4Q101.9 -32.25 102.95 -34.15L103.45 -35L104.2 -36.1L105.45 -37.65L106.05 -38.3L106.15 -38.45Q105.75 -39.4 106.3 -41.75Q106.75 -43.9 107.7 -46.15Q109.5 -50.4 113.1 -53.85L113.55 -54.3L117.35 -57.3Q121.15 -59.9 124.75 -61.3Q126.85 -62.15 129.15 -62.7Q132.9 -63.65 137.1 -63.85L138.85 -63.85L140.7 -63.75L141.25 -63.7L143.55 -63.1Q150.6 -60.6 152.35 -55.4L152.7 -54.15Q153.6 -50.45 152.45 -47.05Q151.05 -42.95 147.1 -40.4L146.75 -40.2L144.4 -38.85L144.05 -38.7Q141.6 -37.4 139.05 -36.5L135.3 -35.45Q131.4 -34.5 127.85 -34.35Q127.8 -33.65 126.5 -32.05L125.05 -33.1L125.75 -34.4Q123.5 -34.35 120.3 -35.4Q117.05 -36.5 116.55 -37.45Q116.05 -38.45 116.75 -38.2Q119.45 -37.05 122.35 -36.45L123.7 -36.25Q126.15 -35.85 130.2 -36.3L136.45 -37.4Q138.9 -38.05 140.65 -38.85L142.85 -39.85L145.6 -41.4Q147.6 -42.7 149.4 -44.9Q150.35 -46.15 150.85 -47.65L150.9 -47.75L150.95 -47.95Q151.45 -49.6 151.35 -50.9L151.3 -51.75L151.15 -52.65L151.1 -52.95Q150.5 -56.4 148.35 -58.4Q146.95 -59.75 144.75 -60.6L140.6 -61.8Q137.05 -62.45 133.5 -61.9L129.85 -61.15Q127.15 -60.5 124.7 -59.45Q115.25 -55.45 109.9 -46.15Q107.8 -42.5 107.8 -39.85L111.35 -40.8Q106.25 -37.4 104.25 -33.05Q103.45 -31.4 103.1 -29.9Q102.45 -27.6 102.7 -25.75Q103.15 -22.9 105.05 -20.2L106.2 -18.7Q106.3 -17.35 106.55 -16.4Q106.75 -15.55 107.35 -15M79.9,-47.8Q78.95 -48.1 78.2 -48.55Q76.5 -49.55 75.55 -51.35L75.05 -52.7Q74.6 -54.25 75 -55.95L75 -56.1Q75.3 -57.25 75.9 -58.45L76.15 -58.9L76.35 -59.2L77.95 -61.3L78 -61.25L78 -61.3L78.2 -61.5Q79.9 -63.25 82.4 -64.45L83.8 -65.05L85.1 -65.5L85.55 -65.6L86.8 -65.9L90.65 -66L90.95 -66L91.25 -65.95L91.9 -65.8L93.05 -65.5L94.2 -65Q95.9 -64.15 96.9 -62.65L97.3 -61.95Q97.85 -60.95 98 -59.85L98 -57.95L98 -57.9L97.65 -56.4L96.95 -54.9L95.1 -52.2L93.55 -50.7Q92.2 -49.65 90.5 -48.8Q87.85 -47.5 85.25 -47.25L81.6 -47.4L79.9 -47.8M77.6,-52.35L78 -51.65Q79.45 -49.65 82.7 -49.4L85.15 -49.45Q87.65 -49.7 90 -51Q93 -52.65 94.6 -54.85L95.05 -55.6Q96.15 -57.6 95.8 -59.5L95.55 -60.35L95.25 -60.95L94.85 -61.65L94.35 -62.25L92.5 -63.55L90.45 -64.1L90.15 -64.15L87.2 -64.1L84.9 -63.5L83.4 -62.85Q80.5 -61.45 78.8 -59.25L78 -58.05L77.8 -57.7L77.7 -57.5L77.3 -56.5L77.15 -55.95Q76.7 -54.1 77.6 -52.35" />
<path style="fill:#794823;fill-opacity:1" d="M79.9,-47.8L79.3 -45.45L78.75 -41.95L78.5 -38.8L76.75 -37.75Q76.7 -40.95 77.3 -44.45L77.6 -46L78.2 -48.55Q78.95 -48.1 79.9 -47.8M85.1,-65.5L85 -66L84.65 -67Q84.3 -67.55 83.2 -68.1L81.5 -68.75L80 -68.5Q78.65 -68.05 78 -67.2L77.45 -66.2L77.25 -64.9Q77.3 -63.2 78.75 -62.1L78.2 -61.5L78 -61.3L78 -61.25L77.95 -61.3Q76.3 -62.25 75.75 -63.6Q75.4 -64.4 75.45 -65.25Q75.45 -66.25 76.05 -67.3Q76.85 -68.75 78.25 -69.5Q79.6 -70.3 81.6 -70.25Q83.6 -70.2 85.65 -68.15Q86.6 -67.2 86.8 -65.9L85.55 -65.6L85.1 -65.5M90.75,-38.45L90.1 -39.2L91.4 -41.65L91.8 -42.6Q93.3 -46.85 93.55 -50.7L95.1 -52.2Q95.25 -50.55 94.9 -48.2Q94.55 -45.65 93.8 -43.3L93.15 -41.5L91.45 -37.65L90.75 -38.45" />
<path style="fill:#D0A15B;fill-opacity:1" d="M82.4,-64.45Q79.9 -63.25 78.2 -61.5L78.75 -62.1Q77.3 -63.2 77.25 -64.9L77.45 -66.2L80.35 -66.5Q82.4 -66.5 83.8 -65.05L82.4 -64.45M87.6,-41.25L87.5 -41.3L85 -41.6L85.2 -44.5L82.15 -44.9L79.3 -45.45L79.9 -47.8L81.6 -47.4L85.25 -47.25Q87.85 -47.5 90.5 -48.8Q92.2 -49.65 93.55 -50.7Q93.3 -46.85 91.8 -42.6L91.4 -41.65L90.1 -39.2L87.6 -41.25" />
<path style="fill:#FED009;fill-opacity:1" d="M105.05,-83.1Q104.15 -81.4 102.55 -80.3L100.65 -81.95Q99.05 -83.15 98.1 -83.55L96.7 -80.65Q95.45 -78.45 94.35 -77.65L93.1 -80.15L91.15 -82.3Q90.75 -80.3 88.6 -78Q87.05 -76.35 85.75 -75.45Q85.7 -78.6 84.25 -80.45L83.9 -80.85L78.2 -76.15L73.05 -72.35L73.3 -75.25Q73.85 -77.45 74.8 -79Q71.7 -78 68.3 -74.85Q64.8 -71.65 63.6 -68.35L63.3 -69.15Q62.45 -71.55 62.15 -74.4L62.85 -75.9Q64.25 -78.45 65.9 -80.65Q68.95 -83.45 73.15 -85.55Q75.85 -86.9 78.75 -87.85L78.2 -87.3Q77.05 -85.95 76.4 -84.3Q77.6 -85.65 80.2 -87.3L83.25 -89.05L90.7 -89.95L89.55 -88.8Q88.05 -86.85 88 -85Q88.4 -85.75 90.65 -87.2Q93.15 -88.85 96 -89.7Q100 -89.05 103.55 -86.8L105.8 -85.2L105.05 -83.1M75,-55.95Q73.65 -53.65 73 -50Q71.2 -51.75 70 -54.5L70.55 -53.9L72.9 -51.6Q72.9 -53.35 73.35 -54.2Q73.85 -55.3 75 -56.1L75 -55.95M67.3,-55.75Q65.95 -54.35 65.2 -52.05Q64.9 -51.2 64.75 -50.15L63.3 -52.15Q60.45 -56.6 60.15 -62.55L61.35 -59.05Q62.65 -55.65 64.05 -53.55Q64.85 -54.55 66.65 -55.45L67.3 -55.75" />
<path style="fill:#644638;fill-opacity:1" d="M69.1,-24.1L69.15 -24.95L71.5 -25.75Q71.9 -25.75 72.3 -24.85Q73.1 -24.1 75.35 -24Q77.4 -22.6 81.45 -22.2Q84.5 -21.95 86.4 -22.3L85.45 -19.75Q84.7 -18.5 82.4 -18.5Q78.2 -18.5 73.75 -20.5Q70.25 -22.05 69.1 -24.1M88.55,-33.7Q84.9 -26.75 81.9 -26.75Q78.65 -26.75 76.65 -27.45Q75.55 -27.85 74.95 -28.4L75.1 -29.65L77.65 -33.05Q80.65 -36.2 83.95 -37.2L86.95 -37.75L87.25 -37.75L89.35 -37.3L89.95 -36.55L88.55 -33.7M98,-57.95L98 -59.85Q97.85 -60.95 97.3 -61.95L96.9 -62.65Q95.9 -64.15 94.2 -65Q96.35 -66.2 101.25 -67.55L111.75 -70.05Q112.15 -67.8 114.5 -67.8Q115.75 -67.8 117.7 -69.15L123.35 -67.35L125.7 -66.05Q120.25 -64.55 115.25 -61.1Q107.6 -55.75 107.25 -51.5L106 -51.5Q102.25 -52 100.75 -53.05Q99.7 -53.75 99.1 -55.55L98 -57.9L98 -57.95M123.85,-29.25Q118.6 -27.35 116.2 -22L116.1 -21.85L115.4 -20.05Q113.2 -20.3 111 -21.5Q109.5 -22.3 108.75 -23.1L109.05 -23.8L109.65 -25.3L110.3 -26.45L111 -27.55L112.2 -28.15Q116.05 -29.75 120.4 -29.75L123.85 -29.25M125.15,-25.75L130.1 -25.15Q128.8 -25 127.6 -24.4Q125 -23.5 122.5 -21.55Q119.95 -19.6 118.75 -15.25Q117.95 -15.25 116.8 -15.8Q116.4 -16 116.1 -16.25L116.95 -19.5L117.15 -20.05Q118.25 -23.2 120.5 -25.3L125.15 -25.75M134.3,-24.1Q132.95 -25.05 131.4 -25.2L132.75 -25.25L133.65 -25.2L134.4 -24.1L134.3 -24.1" />
<path style="fill:#745416;fill-opacity:1" d="M110.35,-76.4L110.25 -78.45L109.8 -80.85L109.1 -82.85L107.8 -85.35L106.15 -87.35Q103.2 -90.4 98.25 -91.9L94.15 -92.95L89.4 -93.4Q83.75 -93.65 76.25 -89.6L75.65 -89.25Q70.05 -86.15 65.9 -80.65Q64.25 -78.45 62.85 -75.9L62.15 -74.4Q61.6 -73.15 61.15 -71.45Q60.45 -68.9 60.25 -66.75Q60.05 -64.6 60.15 -62.55Q60.45 -56.6 63.3 -52.15L64.75 -50.15Q64.9 -51.2 65.2 -52.05Q65.95 -54.35 67.3 -55.75L69 -57.05L69.2 -56.45Q69.55 -55.4 70 -54.5Q71.2 -51.75 73 -50Q73.65 -53.65 75 -55.95Q74.6 -54.25 75.05 -52.7L75.55 -51.35Q74.75 -49.2 74.3 -46.8Q70.4 -48.2 68.4 -53.3Q66.6 -51.4 66.2 -46.8Q63.95 -47.75 62.75 -49.05Q61.55 -50.35 60.1 -53.1Q58.6 -55.9 58.15 -59.25Q56.5 -70.85 61.45 -79.25L62.2 -80.4Q64.55 -84 68.25 -87.2Q72.5 -90.9 78.05 -93.15Q83.6 -95.4 86.85 -95.6L92.75 -95.45L97.5 -94.6Q99.6 -94.1 101.9 -92.85Q104.05 -91.75 106.25 -90.05L106.55 -89.8Q108.9 -87.95 109.95 -86.25L111.45 -82.8L111.8 -81.7Q112.6 -78.85 112.65 -76.65L110.35 -76.4M94,-54.45Q88.7 -50.7 84.6 -50.7Q80.2 -50.7 78 -51.65L77.6 -52.35Q76.7 -54.1 77.15 -55.95Q77.5 -55.75 78 -55.5Q80.2 -54.5 83.65 -54.5Q89.35 -54.5 93.6 -58.35L95.25 -60L95.55 -60.35L95.8 -59.5Q96.15 -57.6 95.05 -55.6L94.6 -54.85L94 -54.45M122.35,-36.45Q119.45 -37.05 116.75 -38.2Q116.05 -38.45 116.55 -37.45Q117.05 -36.5 120.3 -35.4Q123.5 -34.35 125.75 -34.4L125.05 -33.1Q122.6 -33.85 119.75 -33.8Q116.9 -33.75 113.4 -31.7Q111.25 -30.5 109.75 -28.6L109.75 -28.75Q109.75 -34.4 115.45 -40.75Q119.35 -45.15 121.9 -46.4L124.45 -45.85L130.15 -45Q143.15 -45 149 -49.5L150.8 -51.15L151.3 -51.75L151.35 -50.9Q151.45 -49.6 150.95 -47.95L150.9 -47.75L150.85 -47.65Q148.75 -44.55 143 -41.45Q133.75 -36.45 123.85 -36.45L122.35 -36.45M132.55,-30.25L132.3 -28.6Q130.5 -29.55 128.15 -30L128.15 -29.95L126.5 -32.05Q127.8 -33.65 127.85 -34.35Q131.4 -34.5 135.3 -35.45Q133.55 -33.3 132.55 -30.25M106.2,-18.7L105.05 -20.2Q103.15 -22.9 102.7 -25.75Q102.45 -27.6 103.1 -29.9Q103.7 -27.6 105.5 -25.9Q106.4 -25.05 107.5 -24.5Q106.2 -21.35 106.2 -18.7" />
<path style="fill:#412B1E;fill-opacity:1" d="M141.65,-30.4L141.1 -29.3Q139.25 -25.15 139.2 -21.3L137.25 -22.1Q136.45 -25.65 133.8 -27.65Q134.55 -33.45 139.05 -36.5Q141.6 -37.4 144.05 -38.7Q145.2 -38.4 146.45 -36.65L147.1 -35.6Q143.6 -34.05 141.65 -30.4M150.3,-30.8Q148.35 -29.45 147.2 -27.6Q145.95 -25.65 145.35 -23.35Q144.75 -21.1 145.15 -18.6Q145.55 -16.15 146.45 -14.65Q147.25 -13.3 147.7 -13.2Q143.8 -13.4 142.25 -16Q140.7 -18.6 140.75 -21.05Q140.75 -23.5 141.9 -27.1Q142.8 -30.05 144.75 -32.05L147.4 -32.25L147.6 -32.25Q149.7 -32.2 151 -31.55L151.25 -31.4L150.3 -30.8M148.1,-26.25Q150.1 -29.5 152.35 -30.3L152.55 -30.35Q154.3 -30.95 155.75 -30.4Q157.3 -29.85 157.85 -29Q158.35 -28.2 158.65 -25.7L158.65 -23L157.3 -24.25Q154.45 -26.5 151.15 -26.5L148.15 -26L147.9 -25.85L148.1 -26.25M122.75,-16.6Q123.65 -15.6 126.25 -14.75Q130.05 -13.55 134.8 -13.5L134.5 -12.75Q133.5 -10.25 132.15 -8.25Q130.8 -6.3 129 -5.25L125.3 -5.35Q123.2 -6.45 122.3 -10.3Q121.55 -13.6 122.75 -16.6" />
<path style="fill:#513727;fill-opacity:1" d="M73.75,-20.5Q78.2 -18.5 82.4 -18.5Q84.7 -18.5 85.45 -19.75L86.4 -22.3L87.85 -22.8L88.6 -23.2Q89.3 -21.85 89.2 -20.6Q89.15 -19.4 88.25 -18.35Q87.35 -17.3 84.25 -16.55L77.15 -16.85Q73.2 -17.85 71.65 -19.4Q70.25 -20.8 69.75 -21.85Q69.15 -23 69.1 -24.1Q70.25 -22.05 73.75 -20.5M89.95,-36.55L90.85 -35.35L89.4 -29.55L88.3 -26.4Q87.95 -25.4 87.15 -24.8L86.95 -24.65L86.15 -24.3L81.25 -24.1L78.95 -24.5L78.8 -24.55Q77.3 -25.05 76.45 -25.85Q75 -27.2 74.95 -28L74.95 -28.4Q75.55 -27.85 76.65 -27.45Q78.65 -26.75 81.9 -26.75Q84.9 -26.75 88.55 -33.7L89.95 -36.55M138.85,-63.85L137.1 -63.85Q132.9 -63.65 129.15 -62.7Q126.85 -62.15 124.75 -61.3Q121.15 -59.9 117.35 -57.3L113.55 -54.3L113.1 -53.85Q109.5 -50.4 107.7 -46.15Q106.75 -43.9 106.3 -41.75Q105.75 -39.4 106.15 -38.45L106.05 -38.3L105.45 -37.65Q100.1 -39.25 93.8 -43.3Q94.55 -45.65 94.9 -48.2Q95.25 -50.55 95.1 -52.2L96.95 -54.9L97.65 -56.4L98 -57.9L99.1 -55.55Q99.7 -53.75 100.75 -53.05Q102.25 -52 106 -51.5L107.25 -51.5Q107.6 -55.75 115.25 -61.1Q120.25 -64.55 125.7 -66.05Q129.8 -67.25 134.2 -67.25L134.25 -67.25L136.3 -67.1L138.6 -66.55L140.2 -64.45L140.7 -63.75L138.85 -63.85M144.05,-38.7L144.4 -38.85Q147.85 -39.4 150.05 -36.55Q148.45 -36.25 147.1 -35.6L146.45 -36.65Q145.2 -38.4 144.05 -38.7M92.2,-32.5L92.7 -34.5L92.8 -35.75L91.45 -37.65L93.15 -41.5Q96.2 -39.15 99.25 -37.85Q101.9 -36.7 104.2 -36.1L103.45 -35L102.95 -34.15Q101.9 -32.25 101.4 -30.4Q96.4 -30.45 92.2 -32.5M115.4,-20.05L114.8 -18.3Q114.1 -15.7 114.05 -13.2Q111.65 -13.85 109.4 -15.5Q107.95 -16.75 107.85 -18Q107.7 -19.25 108.15 -21.15L108.75 -23.1Q109.5 -22.3 111 -21.5Q113.2 -20.3 115.4 -20.05M126.1,-23.5Q123.95 -22.05 122.7 -20.05Q121.35 -17.9 120.7 -15.4Q120.05 -12.95 120.5 -10.25Q120.95 -7.6 121.9 -5.95Q122.8 -4.5 123.25 -4.4Q119.05 -4.6 117.35 -7.45Q115.65 -10.25 115.7 -12.9Q115.7 -14.35 116.1 -16.25Q116.4 -16 116.8 -15.8Q117.95 -15.25 118.75 -15.25Q119.95 -19.6 122.5 -21.55Q125 -23.5 127.6 -24.4L126.1 -23.5M146.6,-33.6L147.6 -34.2Q149.15 -35.05 150.8 -35.2Q152.85 -35.4 154.5 -34.4Q157.65 -32.5 158 -31.2Q156.35 -32.5 154.3 -32.35Q152.75 -32.25 151.25 -31.4L151 -31.55Q149.7 -32.2 147.6 -32.25L147.4 -32.25L144.75 -32.05L146.6 -33.6M126.25,-14.75Q123.65 -15.6 122.75 -16.6L123.7 -18.55Q125.85 -22.1 128.3 -22.95L132 -23.05L133.7 -22.15L134.3 -21.55Q134.85 -20.7 135.15 -17.95Q135.45 -15.65 134.8 -13.5Q130.05 -13.55 126.25 -14.75" />
<path style="fill:#9A7226;fill-opacity:1" d="M80.5,-58.65Q82.8 -59.8 85.25 -60.25Q85.4 -59.75 86 -59.3Q86.85 -58.75 88.1 -58.75Q89.1 -58.75 89.55 -59.8L90 -61.75L90.6 -61.75L93.6 -61L95.25 -60L93.6 -58.35Q89.35 -54.5 83.65 -54.5Q80.2 -54.5 78 -55.5Q77.5 -55.75 77.15 -55.95L77.3 -56.5Q78.55 -57.7 80.5 -58.65M94.6,-54.85Q93 -52.65 90 -51Q87.65 -49.7 85.15 -49.45L82.7 -49.4Q79.45 -49.65 78 -51.65Q80.2 -50.7 84.6 -50.7Q88.7 -50.7 94 -54.45L94.6 -54.85M149,-49.5Q143.15 -45 130.15 -45L124.45 -45.85L121.9 -46.4Q119.35 -45.15 115.45 -40.75Q109.75 -34.4 109.75 -28.75L109.75 -28.6Q108.75 -27.35 108.05 -25.75L107.5 -24.5Q106.4 -25.05 105.5 -25.9Q103.7 -27.6 103.1 -29.9Q103.45 -31.4 104.25 -33.05Q106.25 -37.4 111.35 -40.8L107.8 -39.85Q107.8 -42.5 109.9 -46.15Q115.25 -55.45 124.7 -59.45L130.1 -60.1L134 -60.25Q149.25 -60.25 150.8 -51.15L149 -49.5M123.85,-36.45Q133.75 -36.45 143 -41.45Q148.75 -44.55 150.85 -47.65Q150.35 -46.15 149.4 -44.9Q147.6 -42.7 145.6 -41.4L142.85 -39.85L140.65 -38.85Q138.9 -38.05 136.45 -37.4L130.2 -36.3Q126.15 -35.85 123.7 -36.25L122.35 -36.45L123.85 -36.45" />
<path style="fill:#E9CB9E;fill-opacity:1" d="M85.1,-65.5L83.8 -65.05Q82.4 -66.5 80.35 -66.5L77.45 -66.2L78 -67.2L80.55 -67.5Q82.6 -67.5 85 -66L85.1 -65.5M84.05,-41.35Q81.9 -40.65 78.5 -38.8L78.75 -41.95L79.3 -45.45L82.15 -44.9L85.2 -44.5L85 -41.6L84.05 -41.35" />
<path style="fill:#D48D01;fill-opacity:1" d="M66.65,-55.45Q64.85 -54.55 64.05 -53.55Q62.65 -55.65 61.35 -59.05L60.15 -62.55Q60.05 -64.6 60.25 -66.75Q60.45 -68.9 61.15 -71.45Q61.6 -73.15 62.15 -74.4Q62.45 -71.55 63.3 -69.15L63.6 -68.35Q64.8 -71.65 68.3 -74.85Q71.7 -78 74.8 -79Q73.85 -77.45 73.3 -75.25L73.05 -72.35L78.2 -76.15L83.9 -80.85L84.25 -80.45Q85.7 -78.6 85.75 -75.45Q87.05 -76.35 88.6 -78Q90.75 -80.3 91.15 -82.3L93.1 -80.15L94.35 -77.65Q95.45 -78.45 96.7 -80.65L98.1 -83.55Q99.05 -83.15 100.65 -81.95L102.55 -80.3Q104.15 -81.4 105.05 -83.1L105.8 -85.2L106.05 -86.5L106.15 -87.35L107.8 -85.35L109.1 -82.85L109.8 -80.85L110.25 -78.45L110.35 -76.4Q97.45 -73.7 90.65 -66L86.8 -65.9Q86.6 -67.2 85.65 -68.15Q83.6 -70.2 81.6 -70.25Q79.6 -70.3 78.25 -69.5Q76.85 -68.75 76.05 -67.3Q75.45 -66.25 75.45 -65.25Q75.4 -64.4 75.75 -63.6Q76.3 -62.25 77.95 -61.3L76.35 -59.2L76.15 -58.9L75.9 -58.45Q75.3 -57.25 75 -56.1Q73.85 -55.3 73.35 -54.2Q72.9 -53.35 72.9 -51.6L70.55 -53.9L70 -54.5Q69.55 -55.4 69.2 -56.45L69 -57.05L67.3 -55.75L66.65 -55.45" />
<path style="fill:#FBF734;fill-opacity:1" d="M105.8,-85.2L103.55 -86.8Q100 -89.05 96 -89.7Q93.15 -88.85 90.65 -87.2Q88.4 -85.75 88 -85Q88.05 -86.85 89.55 -88.8L90.7 -89.95L83.25 -89.05L80.2 -87.3Q77.6 -85.65 76.4 -84.3Q77.05 -85.95 78.2 -87.3L78.75 -87.85Q75.85 -86.9 73.15 -85.55Q68.95 -83.45 65.9 -80.65Q70.05 -86.15 75.65 -89.25L76.25 -89.6L77.2 -89.85L80.85 -90.9L85.85 -91.85Q88.4 -92.1 92.35 -91.7Q96.3 -91.35 99.4 -90Q102.5 -88.65 106.05 -86.5L105.8 -85.2" />
<path style="fill:#8E6755;fill-opacity:1" d="M72.3,-24.85Q71.9 -25.75 71.5 -25.75L69.15 -24.95L69.15 -25.15Q69.45 -26.7 71.3 -27.3L72.85 -27.55Q72.8 -26.05 74.9 -24.35L75.35 -24Q73.1 -24.1 72.3 -24.85M87.25,-37.75L86.95 -37.75L83.95 -37.2Q80.65 -36.2 77.65 -33.05L75.1 -29.65L75.45 -31.35Q75.95 -33.9 76.45 -35.2L76.85 -35.45Q80.35 -38.25 84.6 -39.5L85.55 -39.75L86.2 -39.75Q86.6 -39.45 87.2 -39.1L87.6 -38.85L89.35 -37.3L87.25 -37.75M93.05,-65.5L94.75 -67.05L96.4 -68.35L99 -70.15Q101.75 -71.2 104.95 -71.9Q110.1 -73.05 114.45 -73.05L114.9 -73.05L114.9 -72.9Q114.9 -70.85 118 -70.85Q119.7 -70.85 121.1 -71.9L121.8 -72.45L127 -71.2Q131.9 -69.7 136.3 -67.1L134.25 -67.25L134.2 -67.25Q129.8 -67.25 125.7 -66.05L123.35 -67.35L117.7 -69.15Q115.75 -67.8 114.5 -67.8Q112.15 -67.8 111.75 -70.05L101.25 -67.55Q96.35 -66.2 94.2 -65L93.05 -65.5M120.4,-29.75Q116.05 -29.75 112.2 -28.15L111 -27.55L112.35 -29.1Q117.1 -33.2 123.25 -32.1L125.05 -31.5Q125.95 -30.7 126.25 -29.95L123.85 -29.25L120.4 -29.75M132.75,-25.25L131.4 -25.2L130.45 -25.2L130.1 -25.15L125.15 -25.75L120.5 -25.3L122.05 -26.55Q124 -27.85 126 -28.2L126.65 -28.3Q128.85 -28.5 130.65 -27.4L133.65 -25.2L132.75 -25.25" />
<path style="fill:#382317;fill-opacity:1" d="M158.05,-20.9L155.9 -16.75Q154.65 -14.95 153 -14L149.55 -14.1Q147.65 -15.1 146.8 -18.65Q145.95 -22.45 147.9 -25.85L148.15 -26L151.15 -26.5Q154.45 -26.5 157.3 -24.25L158.65 -23L158.05 -20.9" />
<path style="fill:#B49148;fill-opacity:1" d="M95.25,-60L93.6 -61L90.6 -61.75L90 -61.75L89.55 -59.8Q89.1 -58.75 88.1 -58.75Q86.85 -58.75 86 -59.3Q85.4 -59.75 85.25 -60.25Q82.8 -59.8 80.5 -58.65Q78.55 -57.7 77.3 -56.5L77.7 -57.5L77.8 -57.7L78 -58.05L78.8 -59.25L81.2 -60.75L86.1 -62.4Q86.05 -61.85 86.45 -61.4Q86.85 -60.9 87.55 -60.9Q88.35 -60.9 89.1 -61.7Q89.85 -62.5 89.6 -63.15L90.9 -63.15Q92.15 -63.35 94.35 -62.25L94.85 -61.65L95.25 -60.95L95.55 -60.35L95.25 -60M150.8,-51.15Q149.25 -60.25 134 -60.25L130.1 -60.1L124.7 -59.45Q127.15 -60.5 129.85 -61.15L133.5 -61.9Q137.05 -62.45 140.6 -61.8L144.75 -60.6Q146.95 -59.75 148.35 -58.4Q150.5 -56.4 151.1 -52.95L151.15 -52.65L151.3 -51.75L150.8 -51.15" />
<path style="fill:#BD9E90;fill-opacity:1" d="M138.6,-66.55L136.3 -67.1Q131.9 -69.7 127 -71.2L121.8 -72.45L121.1 -71.9Q119.7 -70.85 118 -70.85Q114.9 -70.85 114.9 -72.9L114.9 -73.05L114.45 -73.05Q110.1 -73.05 104.95 -71.9Q101.75 -71.2 99 -70.15L99.6 -70.5Q106.4 -74.4 113.85 -75.1Q121.25 -75.8 128.75 -73.25Q134.45 -71.3 138.6 -66.55" />
<path style="fill:#FFFDB8;fill-opacity:1" d="M89.4,-93.4L94.15 -92.95L98.25 -91.9Q103.2 -90.4 106.15 -87.35L106.05 -86.5Q102.5 -88.65 99.4 -90Q96.3 -91.35 92.35 -91.7Q88.4 -92.1 85.85 -91.85L80.85 -90.9L77.2 -89.85L76.25 -89.6Q83.75 -93.65 89.4 -93.4" />
<path style="fill:#E2C589;fill-opacity:1" d="M78.8,-59.25Q80.5 -61.45 83.4 -62.85L84.9 -63.5L87.2 -64.1L90.15 -64.15L90.45 -64.1L92.5 -63.55L94.35 -62.25Q92.15 -63.35 90.9 -63.15L89.6 -63.15Q89.85 -62.5 89.1 -61.7Q88.35 -60.9 87.55 -60.9Q86.85 -60.9 86.45 -61.4Q86.05 -61.85 86.1 -62.4L81.2 -60.75L78.8 -59.25" />
<path style="fill:#F3E2C8;fill-opacity:1" d="M80,-68.5L81.5 -68.75L83.2 -68.1Q84.3 -67.55 84.65 -67L85 -66Q82.6 -67.5 80.55 -67.5L78 -67.2Q78.65 -68.05 80 -68.5" />
<linearGradient
id="LinearGradID_1375" gradientUnits="userSpaceOnUse" gradientTransform="matrix(0, 0.211243, -0.0903931, 0, 109.55, -227.05)" spreadMethod ="pad" x1="-819.2" y1="0" x2="819.2" y2="0" >
<stop  offset="0" style="stop-color:#FFFFFF;stop-opacity:0.901961" />
<stop  offset="1" style="stop-color:#FFFFFF;stop-opacity:0.14902" />
</linearGradient>
<path style="fill:url(#LinearGradID_1375) " d="M160.1,-238.25L183.2 -24.8Q183.6 -23.35 183.6 -21.8L183.6 -21.75Q183.6 -10.7 161.9 -2.85Q140.2 4.95 109.55 4.95Q78.9 4.95 57.2 -2.85Q35.5 -10.7 35.5 -21.75L35.55 -22.85L35.7 -23.8L59.75 -238.2L115.55 -237.65Q134.05 -237.4 160.1 -238.25" />
<path style="fill:none;stroke-width:2;stroke-linecap:round;stroke-linejoin:round;stroke-miterlimit:3;stroke:#21406D;stroke-opacity:1" d="M100.8,-85.9L100.8 -108.35M95.55,-79.15L95.55 -101.6M90.55,-83.9L90.55 -106.35M86.05,-78.15L86.05 -100.6" />
</g>
</svg>
