<?xml version="1.0" encoding="utf-8"?>
<svg version="1.1" id="Layer_1"
xmlns="http://www.w3.org/2000/svg"
xmlns:xlink="http://www.w3.org/1999/xlink"
xmlns:author="http://www.sothink.com"
width="37px" height="36px"
xml:space="preserve">
<g id="683" transform="matrix(1, 0, 0, 1, 3.3, 6.65)">
<path style="fill:#000000;fill-opacity:1" d="M25.95,6.9Q26.65 7.45 27.75 7.4Q29.2 6.9 30.4 5.4Q31.55 4 31.7 1.35Q31.85 -1.15 30.45 -2.85L30.25 -3.05L29.2 -1Q28.1 1.2 26.4 2.95L25.95 3.45L25.25 4.5Q24.9 5.3 25.25 5.95L25.3 6.05L25.3 6.1L25.95 6.9M32.9,-0.35Q33.45 2.1 32.55 4.3Q31.6 6.55 30.25 7.45Q28.85 8.3 27.2 8.4L25.95 8.15L25.25 7.65L24.2 6.3Q22.95 4.25 25.15 2.25L25.25 2.15L25.95 1.5Q27.6 -0.2 28.4 -2.1Q29.35 -4.5 29.65 -4.85L30.3 -4.9Q32.3 -2.9 32.9 -0.35" />
<path style="fill:#232323;fill-opacity:1" d="M30.45,-2.85Q31.85 -1.15 31.7 1.35Q31.55 4 30.4 5.4Q29.2 6.9 27.75 7.4Q26.65 7.45 25.95 6.9L25.3 6.1L28.25 4.2Q30.9 1.4 30.45 -2.85" />
<path style="fill:#414141;fill-opacity:1" d="M28.25,4.2L25.3 6.1L25.3 6.05L25.25 5.95Q24.9 5.3 25.25 4.5L25.95 3.45L26.4 2.95Q28.1 1.2 29.2 -1L30.25 -3.05L30.45 -2.85Q30.9 1.4 28.25 4.2" />
<path style="fill:#9C753C;fill-opacity:1" d="M12,22.35Q14 23.9 16.05 23.95Q18.3 23.95 20.7 22.1L21.1 21.75L21.8 20.95L22 20.65L22.25 20.2L22.75 21.2L22 22.2L21.75 22.45L19.8 23.95Q18.55 24.75 16.7 24.95L16.1 25Q14.5 25 12.95 24.25Q11.1 23.35 9.95 21.9Q9.65 20.95 9.65 20L12 22.35" />
<path style="fill:#D0A15B;fill-opacity:1" d="M20.75,21.35Q19.25 19.5 19.25 18.85Q18 19.05 17.15 20.3Q16.15 21.7 16.05 23.95Q14 23.9 12 22.35L9.65 20Q9.6 18.95 9.85 17.9Q10.15 16.6 10.8 15.7L10.95 16.3Q11.65 18.3 13.2 19.85Q14.15 20.8 15.4 20.95Q15.65 19.4 16 18.5Q16.35 17.6 17.4 16.85Q18.4 16.1 19.6 16L21.3 18.4L22 19.7L22.25 20.2L22 20.65L21.8 20.95L21.1 21.75L20.75 21.35" />
<path style="fill:#E9CB9E;fill-opacity:1" d="M21.1,21.75L20.7 22.1Q18.3 23.95 16.05 23.95Q16.15 21.7 17.15 20.3Q18 19.05 19.25 18.85Q19.25 19.5 20.75 21.35L21.1 21.75" />
<path style="fill:#C6A831;fill-opacity:1" d="M8.65,15.15L8.75 15.05L8.75 15.15L8.65 15.15" />
<path style="fill:#952214;fill-opacity:1" d="M2.4,9.35L2.9 10.95Q2.9 10.2 4.1 9.2Q5.8 7.7 7.55 7.3L7.15 8Q6.85 8.6 6.95 9.6Q7 10.55 7.3 10.85L8.6 9.55Q9.65 8.5 11.6 7.65Q13.55 6.8 13.15 7.35Q12.65 7.85 12.4 9.4Q12.15 10.95 12.25 11.2L12.4 11.55Q14.3 8.9 16.6 8.85Q15.1 10.9 15.45 12.9L15.55 13.35L16.25 12.9L18.55 11.35L19.55 10.45L19.55 10.4Q20.8 10.65 22 12.05L22.05 12.1Q23.2 13.5 23.85 14.9Q24.45 16.25 24.45 16.9L24.15 17.6L25.25 17L25.95 16.5L26.1 16.35L25.95 16.9L25.25 18.6L23.7 21.05L22.9 19.4L22 17.8L21.5 17L20.05 15.1Q19.75 14.9 19.05 15.1L17.35 15.8Q16.35 16.3 15.7 17.4Q15.05 18.45 14.9 19.15L14.75 19.75Q13.25 19.05 12.5 17.45L11.15 14.2Q10.8 14.25 10.05 15.3Q9.4 16.25 9.15 17.2L9.1 17.4L8.9 19.35L8.95 20.5L9.15 21.5L9.25 21.95L9.15 21.9L7.75 20.75L6.55 19.15L6.05 18.4Q5.25 19.85 5.3 20.75L5.35 21.65L3.9 20.4Q2.1 18.65 1.55 16L1.5 15.9Q1.15 14.25 1.15 12.9Q1.15 12 1.3 11.25L1.85 9.15L2.35 7.85Q2.25 8.85 2.4 9.35M8.75,15.15L8.75 15.05L8.65 15.15L8.75 15.15" />
<path style="fill:#A63B26;fill-opacity:1" d="M2.35,7.85L2.7 7.1Q3.75 4.9 6.2 3.45Q7.1 2.9 8.1 2.5L12.05 2.25L13.55 2.25L12.8 2.8Q11.45 3.8 11.45 4.35L12.45 3.75Q13.8 3.15 15.55 3.15L15.75 3.15L16 3.2Q14.85 4.25 14.85 5.6L14.85 6.05Q15.7 4.25 18.2 3.75L18.3 3.8L19.05 3.95Q20.15 4.35 21.5 5.95L22 6.55L23.25 8.35L23.75 9.3Q23.1 9.25 22.05 9.95L21.95 9.95L22 10Q23.7 10.55 25.25 13.2L25.95 14.5L26.15 14.9L26.3 15.25L26.1 16.35L25.95 16.5L25.25 17L24.15 17.6L24.45 16.9Q24.45 16.25 23.85 14.9Q23.2 13.5 22.05 12.1L22 12.05Q20.8 10.65 19.55 10.4L19.55 10.45L18.55 11.35L16.25 12.9L15.55 13.35L15.45 12.9Q15.1 10.9 16.6 8.85Q14.3 8.9 12.4 11.55L12.25 11.2Q12.15 10.95 12.4 9.4Q12.65 7.85 13.15 7.35Q13.55 6.8 11.6 7.65Q9.65 8.5 8.6 9.55L7.3 10.85Q7 10.55 6.95 9.6Q6.85 8.6 7.15 8L7.55 7.3Q5.8 7.7 4.1 9.2Q2.9 10.2 2.9 10.95L2.4 9.35Q2.25 8.85 2.35 7.85" />
<path style="fill:#E26657;fill-opacity:1" d="M26.15,14.9L25.95 14.5L25.25 13.2Q23.7 10.55 22 10L21.95 9.95L22.05 9.95Q23.1 9.25 23.75 9.3L23.25 8.35L22 6.55L21.5 5.95Q20.15 4.35 19.05 3.95L18.3 3.8L18.2 3.75Q15.7 4.25 14.85 6.05L14.85 5.6Q14.85 4.25 16 3.2L15.75 3.15L15.55 3.15Q13.8 3.15 12.45 3.75L11.45 4.35Q11.45 3.8 12.8 2.8L13.55 2.25L12.05 2.25L8.1 2.5Q9.85 1.75 12 1.45Q15.25 0.9 17.75 1.85L18.55 2.2Q19.55 2.65 20.6 3.35L22 4.45L22.75 5.05Q24.3 6.45 25.25 8.8L25.85 10.5L25.95 10.95L26.2 11.9Q26.55 13.55 26.3 15.25L26.15 14.9" />
<path style="fill:#6D0F0A;fill-opacity:1" d="M22.25,20.2L22 19.7L21.3 18.4L19.6 16Q18.4 16.1 17.4 16.85Q16.35 17.6 16 18.5Q15.65 19.4 15.4 20.95Q14.15 20.8 13.2 19.85Q11.65 18.3 10.95 16.3L10.8 15.7Q10.15 16.6 9.85 17.9Q9.6 18.95 9.65 20Q9.65 20.95 9.95 21.9L10.05 22.25L10.4 23.5L9.15 23.05L8.55 22.7L7.2 21.55L6.3 20.35Q6 20.45 6.45 23.4Q3.1 21.65 1.3 18.7Q0.6 17.5 0.25 16Q-0.05 14.6 0 12.9L0.2 10.8Q0.55 8.3 1.9 6.25L2.45 5.5Q3.45 4.15 4.9 3.05L5 3Q6.9 1.6 8.85 0.9Q10.45 0.4 13.3 0.05Q15.9 -0.25 18.55 0.8L19 0.95L22 2.75L24.65 5.15L25.25 5.9L25.95 7.05L26.75 8.85L26.75 8.95Q27.75 11.65 27.6 14.05L27.6 14.4L27.5 14.95L27 16.95L26.2 18.95L26.2 19L25.95 19.45Q24.85 21.5 23.4 22.4L23.1 21.95L22.75 21.2L22.25 20.2M6.2,3.45Q3.75 4.9 2.7 7.1L2.35 7.85L1.85 9.15L1.3 11.25Q1.15 12 1.15 12.9Q1.15 14.25 1.5 15.9L1.55 16Q2.1 18.65 3.9 20.4L5.35 21.65L5.3 20.75Q5.25 19.85 6.05 18.4L6.55 19.15L7.75 20.75L9.15 21.9L9.25 21.95L9.15 21.5L8.95 20.5L8.9 19.35L9.1 17.4L9.15 17.2Q9.4 16.25 10.05 15.3Q10.8 14.25 11.15 14.2L12.5 17.45Q13.25 19.05 14.75 19.75L14.9 19.15Q15.05 18.45 15.7 17.4Q16.35 16.3 17.35 15.8L19.05 15.1Q19.75 14.9 20.05 15.1L21.5 17L22 17.8L22.9 19.4L23.7 21.05L25.25 18.6L25.95 16.9L26.1 16.35L26.3 15.25Q26.55 13.55 26.2 11.9L25.95 10.95L25.85 10.5L25.25 8.8Q24.3 6.45 22.75 5.05L22 4.45L20.6 3.35Q19.55 2.65 18.55 2.2L17.75 1.85Q15.25 0.9 12 1.45Q9.85 1.75 8.1 2.5Q7.1 2.9 6.2 3.45" />
<path style="fill:#AA912B;fill-opacity:1" d="M1.4,8.2L1.3 8.15L1.55 7.75L1.4 8.2" />
<path style="fill:#CBB4AC;fill-opacity:1" d="M24.15,-0.25L24.4 -0.45L24.15 -0.25L23.9 0L24.15 -0.25M21.5,1.7L20.95 2.05L20.65 2.25L20.35 2.45L20.65 2.25L21.5 1.7M19.75,2.6L19.85 2.7L19.8 2.7L19.75 2.6" />
<path style="fill:#253439;fill-opacity:1" d="M1.85,20.15L1.9 20.2Q3.35 22.15 5.25 23.5Q3.25 22.45 1.85 20.15" />
<path style="fill:#BF7A24;fill-opacity:1" d="M12.9,-4.9L12.95 -4.95L12.95 -4.9L12.9 -4.9" />
<path style="fill:#D48D01;fill-opacity:1" d="M1.3,8.15L1.4 8.2L3 9.1L3.1 9.15L4.85 9.8L6.05 10.15L6.95 10.35L6.85 9.7L6.7 8.55L6.7 8.15L6.7 8.1Q6.7 7.05 7.05 6.15L7.25 5.6L8.6 6.1L8.65 8.5L8.7 8.75L8.75 9.1L8.8 9.5L9 10.55L9.05 10.7L9.1 10.85Q9.35 11.55 9.75 11.95L9.9 12.1L9.7 12.2L9.2 12.25L8.35 12.4L8.25 12.4L6.6 12.25L5.7 11.95L4.95 11.55L4.8 11.5L4.8 11.45L4 11L2.25 10Q1.3 9.45 1.25 8.65L1.25 8.6L1.2 8.25L1.2 8.1L1.3 8.15" />
<path style="fill:#FED009;fill-opacity:1" d="M6.7,8.15L6.7 8.55L6.85 9.7L6.95 10.35L6.05 10.15L4.85 9.8L3.1 9.15L2.95 8.95L2 7.3L2.45 7.15Q2.8 7.15 3.15 7.7Q3.5 8.25 4.05 8.25Q4.75 8.25 4.85 7.5L6.7 8.1L6.7 8.15" />
<path style="fill:#FBF734;fill-opacity:1" d="M1.55,7.75L1.3 8.15L1.2 8.1L1.25 6.85L1.3 6.8L1.8 6.4L2.1 6.5L2.2 6.55L2.6 6.7Q3.3 6.7 3.5 6L3.6 5.7L3.85 5.65L3.9 5.65L6.1 6L7.05 6.15Q6.7 7.05 6.7 8.1L4.85 7.5Q4.75 8.25 4.05 8.25Q3.5 8.25 3.15 7.7Q2.8 7.15 2.45 7.15L2 7.3L2.95 8.95L3.1 9.15L3 9.1L1.4 8.2L1.55 7.75" />
<path style="fill:#694817;fill-opacity:1" d="M4.55,12.6L4.5 12.6L3.7 12.2L3.55 12.1L0.95 10.6L0.8 10.5L0.65 10.4Q0.25 9.4 0.2 8.1L0.2 6.9L0.2 6.85L0.4 4.4L0.5 2.95L1.25 3.1L2.4 3.3L2.75 3.55L4.1 3.8L4.2 3.8L4.55 3.9L4.75 3.9L5.6 4.1L5.75 4.15L7.2 4.5L7.8 4.65L8.9 5.05Q8.65 6.6 8.7 7.95L8.85 9.05L8.9 9.45L9.15 10.5L9.2 10.55L9.65 11.65L9.9 12.1L10.1 12.45L10.5 12.9L9.85 13.2Q7.95 13.85 6 13.25L5.9 13.2L5.15 12.9L4.55 12.6M1.2,8.1L1.2 8.25L1.25 8.6L1.25 8.65Q1.3 9.45 2.25 10L4 11L4.8 11.45L4.8 11.5L4.95 11.55L5.7 11.95L6.6 12.25L8.25 12.4L8.35 12.4L9.2 12.25L9.7 12.2L9.9 12.1L9.75 11.95Q9.35 11.55 9.1 10.85L9.05 10.7L9 10.55L8.8 9.5L8.75 9.1L8.7 8.75L8.65 8.5L8.6 6.1L7.25 5.6L6.75 5.45L4.85 4.9L4.6 4.8L3.65 4.6L3.4 4.55L2.15 4.3L1.6 4.25L1.4 5.4L1.35 5.9L1.3 6.4L1.25 6.85L1.2 8.1" />
<path style="fill:#FFFDBB;fill-opacity:1" d="M7.05,6.15L6.1 6L3.9 5.65L3.85 5.65L3.6 5.7L3.5 6Q3.3 6.7 2.6 6.7L2.2 6.55L2.1 6.5L1.8 6.4L1.3 6.8L1.25 6.85L1.3 6.4L1.35 5.9L1.4 5.4L1.6 4.25L2.15 4.3L3.4 4.55L3.65 4.6L4.6 4.8L4.85 4.9L6.75 5.45L7.25 5.6L7.05 6.15" />
<path style="fill:#DBDBDB;fill-opacity:1" d="M6.6,-1.45L6.45 -1.4L6.2 -1.2L5.25 -2.75L5.15 -2.9L5.05 -2.85L1.6 0.1L-0.1 1.8Q1.85 -1.3 4.55 -3.05L4.9 -3.3L5.25 -3.5L5.45 -3.6Q8.7 -5.45 13 -5.5L12.95 -5.2L11.8 -5.2L8.55 -4.5Q6.95 -4 5.5 -3.1L5.8 -2.65L6.6 -1.45M4.2,3.8L4.15 3.75L4 3.65Q4.8 2.55 6.9 1.15Q9 -0.25 11.9 -0.75L16.05 -1.1L17.5 -0.85L17.55 -0.85L17.35 -0.15L17.45 0L17.3 0L14.35 0.2Q14.4 0.75 14.05 1.15Q13.45 1.8 12.25 1.8L11.6 1.8L10.2 1.4L9.85 1.25Q7.4 2.2 5.6 4.1L4.75 3.9L4.55 3.9L4.2 3.8M27.8,3.45Q26.7 2.5 25.95 2.4L25.8 2.4L22.5 4.3L22 4.5L20.8 4.95L19.2 5.45L18.55 5.65L16.05 6L15.15 5.95L14 5.75L13.3 5.55L18.55 4.75L19 4.6L22 3.3L23.05 2.7L24.7 1.45L25.25 0.95L25.4 0.8L25.75 0.4L25.95 0.55Q28.05 1.95 29.1 4.75L27.8 3.45M22,21.15L25.15 21L25.35 21.15L25.2 21.85L24.95 21.7L23.5 21.65L22 21.55L21.5 21.55L19.55 21.2L18.3 20.8L22 21.15" />
<path style="fill:#9C8F95;fill-opacity:1" d="M-0.85,3L-0.65 2.65L-0.1 1.8L1.6 0.1L5.05 -2.85L5.15 -2.9L5.25 -2.75L6.2 -1.2L5.9 -1.05L5.1 -2.35L4.5 -1.9Q1.55 0.45 -0.85 3.85L-0.85 3.05L-0.85 3" />
<path style="fill:#705D62;fill-opacity:1" d="M0.5,2.95L0.4 4.4L-0.2 5.5L-0.5 6.2L-0.85 3.85Q1.55 0.45 4.5 -1.9L5.1 -2.35L5.9 -1.05Q4.1 0.1 2.3 1.9L1.25 3.1L0.5 2.95M12.1,9.85Q11.55 9.6 11.2 9.1L10.9 8.7L10.85 8.6L10.6 7.95L10.8 7.75L11.25 7.85L11.3 7.85L12.65 8L13.3 8.05L12.85 9.1L12.7 9.6L12.7 9.7L12.6 9.95L12.6 10L12.1 9.85" />
<path style="fill:#872C09;fill-opacity:1" d="M17.45,0L17.35 -0.15L17.55 -0.85L17.5 -0.85L17.65 -1.35L17.8 -2L18.05 -2.55L18.2 -2.85L18.25 -2.95L18.55 -3.6L18.65 -3.75L19.1 -4.7L19.55 -5.6L22 -3.95L22.25 -3.8L24.3 -2.2L25.1 -1.15L24.4 -0.45L22.9 -1.85L22.5 -2.15L22 -2.45L21.3 -2.95L20 -3.75L19.6 -3.15L19.35 -2.5L19.3 -2.3L19.25 -2.15L18.95 -1.1L18.9 -0.9L18.85 0L18.85 0.05L18.85 0.25L18.95 0.5L19 0.75L19.2 1.35L19.25 1.5L19.5 2.1L19.75 2.6L19.8 2.7Q18.75 3.5 18.6 3.1L18 1.45L17.8 0.95L17.75 0.85L17.45 0" />
<path style="fill:#D74B25;fill-opacity:1" d="M20.65,2.25L20.35 2.45L19.9 2.75L19.85 2.7L19.75 2.6L19.5 2.1L19.5 0.4L19.6 0.25L19.7 0.25L19.75 0.3L20.05 0.5L20.65 0.75L20.85 0.75L21.1 -0.1L21.1 -0.4L20.6 -1.1L20.65 -1.15L21 -1.5L22 -2.05L22.5 -2.15L22.9 -1.85L24.4 -0.45L24.15 -0.25L23.9 0L22.05 1.3L22 1.35L21.85 1.45L21.5 1.7L20.65 2.25" />
<path style="fill:#E29E36;fill-opacity:1" d="M19.25,1.5L19.2 1.35L19 0.75L18.95 0.5L19.1 0.1L19.55 -0.95L19.8 -1.4L20 -1.65L20.45 -2.3L21.3 -2.95L22 -2.45L22.5 -2.15L22 -2.05L21 -1.5L20.65 -1.15L20.6 -1.1L21.1 -0.4L21.1 -0.1L20.85 0.75L20.65 0.75L20.05 0.5L19.75 0.3L19.7 0.25L19.6 0.25L19.5 0.4L19.5 2.1L19.25 1.5" />
<path style="fill:#F7DA7D;fill-opacity:1" d="M20.45,-2.3L20 -1.65L19.8 -1.4L19.55 -0.95L19.1 0.1L18.95 0.5L18.85 0.25L18.85 0.05L18.85 0L18.9 -0.9L18.95 -1.1L19.25 -2.15L19.3 -2.3L19.35 -2.5L19.6 -3.15L20 -3.75L21.3 -2.95L20.45 -2.3" />
<path style="fill:#2D343C;fill-opacity:1" d="M4.6,14.15Q4.5 13.75 4.55 13.15L4.55 13L4.55 12.9L4.55 12.6L5.15 12.9L5.9 13.2L6 13.25Q7.95 13.85 9.85 13.2L10.5 12.9L10.9 13.35L11.35 13.7L12 14.2Q12.1 15.15 11.45 15.85L10.5 16.05L9.15 16.05L8.7 16.05L8.35 16Q7.1 15.9 6.25 15.4L5.05 14.7L4.6 14.15M0.8,15.5L0.65 14.9L0.45 12.9L0.45 12.15L0.5 10.3L0.5 10.15L0.6 10.4L0.65 10.45L0.7 10.45L0.8 10.5L0.95 10.6L3.55 12.1L3.45 12.9Q3.35 14.05 3.7 15.1L4.15 16L5.75 17.5Q7.25 18.45 9.15 18.25L9.25 18.25Q11.15 17.95 12.6 16.2L13.1 15.2L13.2 14.95L13.4 15L14.2 15.2L14.4 15.25Q13.95 16.4 13.8 17.6L13.75 18.85L13.75 19.5L13.75 20L14.05 21.95L14.1 22.25L14.3 23.05L13.65 23.1Q11.35 23.2 9.15 22.5L6.65 21.45Q3.5 19.8 1.5 16.7L1.1 16L0.8 15.5M-1.85,5.3L-0.85 3L-0.85 3.05L-0.85 3.85L-0.5 6.2L-0.2 5.5L0.4 4.4L0.2 6.85L0.2 6.9L0.15 7L0.05 7.1L-0.4 8.05L-0.4 8.1L-0.6 8.7L-0.85 10.1L-1.35 8.6L-1.85 5.3M12.95,-4.9L12.8 -3.1L12.8 -2.7L12.85 -2.15L11.15 -1.8Q9.1 -1.25 7.5 -0.4Q5.9 0.4 4.25 1.75L2.45 3.3L2.4 3.3L1.25 3.1L2.3 1.9Q4.1 0.1 5.9 -1.05L6.2 -1.2L6.45 -1.4L6.6 -1.45L6.9 -1.6L9.7 -2.8L11.8 -3.2L12.35 -4.15L12.9 -4.9L12.95 -4.9M17.8,-2L15 -2.25L13.75 -2.25L13.8 -2.75L15 -2.8L15.05 -2.8Q15 -3 16.7 -2.8L18.05 -2.55L17.8 -2M10.6,7.95L10.85 8.6L10.9 8.7L11.2 9.1Q11.55 9.6 12.1 9.85L12.6 10L12.8 10.75L13.2 11.6Q13.85 12.9 14.2 12.85L14.45 12.65L14.8 11.7L14.85 11.6L14.95 11.2L15.1 9.95L15.05 9.85L15.1 9.85L15.6 9.8L15.9 9.75L16.35 9.7L17.65 9.6L17.35 10.15L18.65 12.05L19.8 13.75L20.2 13.5L20.85 12.5L20.85 12.45L21.1 11.95L21.2 11.75Q21.5 10.9 21.4 10.25L21.4 10.2L21.25 9.4L21.65 9.4L21.85 9.4L22 9.4L22.25 9.4L24 9.5L23.95 9.6L23.6 10.4L24.15 11.8L25.25 14.7L25.85 16.2L25.95 16.05L26.2 15.65L26.25 15.5Q27.05 14.15 27.3 12.7L27.4 11.5L27.4 11.3L27.4 11L27.3 10.2L27.3 10.1L27.65 10.2L27.85 10.25L28.4 10.45L29.3 10.75L29.65 10.9L30.15 11.15L30 14.65L29.55 16.4L28.2 19L27.5 18.75L26.75 18.35L26.5 18.2L25.95 17.9L25.25 17.45L24.75 17.2L24.2 16.9L22 16.05L20.65 15.55L17.2 14.5L15.55 14.2L14.05 13.85L13.25 13.7L13 13.6L12.75 13.45L12.55 13.3L12.05 12.9L11.9 12.75L11.05 11.7L10.35 10.3L10.05 9.4L10 9.3L9.9 8.9L9.85 8.65L9.8 7.95L9.8 7.35L9.8 7.05L9.8 6.95L10 5.8L10.4 7.35L10.5 7.7L10.6 7.95M22.85,24.65L23.2 24.75L23.85 24.75L22.25 26.45L21.65 26.5Q20.15 26.5 17.05 24.2L16 23.35L15.85 23.1L15.2 21.35L16.5 22.4L17.4 22.95L17.3 23.35L17.2 24.05L17.5 24.3L18.6 24.75L19.25 23.65L19.65 23.8L20.7 24.1L20.2 25.45L20.2 25.5L21.15 26.25L22.85 24.65" />
<path style="fill:#61666C;fill-opacity:1" d="M7.8,4.65L7.2 4.5L8.05 3.75L9.15 3.1Q10.35 2.5 11.25 2.5L12.5 2.75L12.9 2.85L13.75 3L15.05 2.9L15.2 2.75Q15.35 2.4 15 1.5L16.3 1.15L17.5 0.9L17.75 0.85L17.8 0.95L18 1.45L18.6 3.1L18.7 3.35L18.55 3.45L18.5 3.45Q16.2 4.45 13.5 4.4L12.1 4.3L11.5 4.25L10.6 4.1L9.55 3.9L9.45 3.85L9.25 3.75L9.1 4.6L9.05 4.8L8.95 5.05L8.9 5.05L7.8 4.65M5.05,14.7L6.25 15.4Q7.1 15.9 8.35 16L8.7 16.05L9.15 16.05L10.5 16.05L11.45 15.85L11.15 16.15Q10.3 16.85 9.15 17L8.7 17.05Q7.25 17.1 6.15 16.35L5.7 16Q5 15.4 4.75 14.8L4.6 14.15L5.05 14.7M1.1,16L1.5 16.7Q3.5 19.8 6.65 21.45L9.15 22.5Q11.35 23.2 13.65 23.1L14.3 23.05L14.4 23.35L14.8 24.45L14.8 24.6L14.75 24.6L14.65 24.65Q11.65 25 9.15 24.1L8.6 23.85L7 23Q5.15 21.85 3.45 19.9L2.05 18.1L1.55 17.3L1.4 16.95L1 16L0.8 15.5L1.1 16M-1.35,8.6L-0.85 10.1L-0.95 10.8L-1 11.85L-0.95 12.9L-0.8 14.3L-1.55 12.9Q-3.25 9.3 -1.85 5.3L-1.35 8.6M18.05,-2.55L16.7 -2.8Q15 -3 15.05 -2.8L15 -2.8L13.8 -2.75L13.9 -3.25L14.3 -3.3L18.2 -2.85L18.05 -2.55M12.35,-4.15L11.8 -3.2L9.7 -2.8L6.9 -1.6L6.05 -3Q8.6 -4.2 10.45 -4.55L12.9 -4.9L12.35 -4.15M27.65,10.2L27.7 9.35L27.7 8.95L27.7 8.85Q27.65 7.3 26.9 5.1Q27.3 5.15 27.9 5.75L29.2 7.25L29.9 8.4L29.95 8.85L30.1 10.7L30.15 11.15L29.65 10.9L29.3 10.75L28.4 10.45L27.85 10.25L27.65 10.2M28.2,19L27.35 20.1L27.1 20.35L27.05 20.4L26.65 20.8L26.4 20.55L26.25 20.35L26 20.15L25.95 20.1L25.45 19.6L22 17L20.2 16Q17.9 14.85 15.85 14.3L15.55 14.2L17.2 14.5L20.65 15.55L22 16.05L24.2 16.9L24.75 17.2L25.25 17.45L25.95 17.9L26.5 18.2L26.75 18.35L27.5 18.75L28.2 19M22.25,9.4L22 9.4L21.85 9.4L21.65 9.4L21.25 9.4L21.3 8.35L21.25 8L21.1 7.3L21.7 7.15L22 7.1L22.4 7L24.8 6.05L24.2 8.65L24 9.4L24 9.5L22.25 9.4M15.05,20.7L15.95 21L18.45 21.7L20.55 21.95L22 22L22.6 21.95L24.25 21.9L24.3 22.5L24.1 24.35L23.85 24.75L23.2 24.75L22.85 24.65Q23.4 23.75 23.45 22.5L23.45 22.45L23.45 22.25L22 22.25L21.25 22.35L20.7 24.1L19.65 23.8L19.25 23.65L19.7 22.65Q19.75 22.25 19.15 22.05L18.15 21.65Q17.75 21.45 17.6 22.1L17.4 22.95L16.5 22.4L15.2 21.35L15.05 20.7M15.1,9.85L15.2 9.1L15.05 8.05L15.4 8.05L16.3 8L18.55 7.85L18.45 8.05L18.05 8.9L18 8.95L17.65 9.6L16.35 9.7L15.9 9.75L15.6 9.8L15.1 9.85M16,23.35L17.05 24.2Q20.15 26.5 21.65 26.5L22.25 26.45L20.85 27.35Q19.1 26.4 16.5 24.6L16 23.35" />
<path style="fill:#969BA1;fill-opacity:1" d="M5.8,-2.65L5.5 -3.1Q6.95 -4 8.55 -4.5L11.8 -5.2L12.95 -5.2L12.95 -4.95L12.9 -4.9L10.45 -4.55Q8.6 -4.2 6.05 -3L6.9 -1.6L6.6 -1.45L5.8 -2.65M18.2,-2.85L14.3 -3.3L13.9 -3.25L13.95 -3.8Q16.7 -3.65 18.25 -2.95L18.2 -2.85M10.5,7.7L10.4 7.35L10 5.8L10.05 5.05L11.4 5.35L12.8 5.5L13.3 5.55L14 5.75L15.15 5.95L16.05 6L18.55 5.65L19.2 5.45L20.8 4.95L22 4.5L22.5 4.3L25.8 2.4L25.95 2.4Q26.7 2.5 27.8 3.45L29.1 4.75L29.3 5.35L29.7 6.9L29.9 8.15L29.9 8.4L29.2 7.25L27.9 5.75Q27.3 5.15 26.9 5.1Q27.65 7.3 27.7 8.85L27.7 8.95L27.7 9.35L27.65 10.2L27.3 10.1L27.05 8.85L26.55 7.35L26.1 6.2L25.95 5.85L25.85 5.55L25.55 4.9L25.4 4.65L25.25 4.35L25.2 4.25L25.1 4.1L25.1 4.3L25.1 4.4L24.85 5.6L24.8 5.8L24.8 5.9L24.8 6.05L22.4 7L22 7.1L21.7 7.15L21.1 7.3L21.25 8L21.3 8.35L21.25 9.4L21.15 9.05L20.35 7.45L20.15 7.15L20.1 7.1L19.7 6.55L19.5 6.3L19.45 6.25Q19.35 6.15 19.25 6.35L19.15 6.55L18.8 7.35L18.8 7.4L18.7 7.6L18.55 7.85L16.3 8L15.4 8.05L15.05 8.05L15.2 9.1L15.1 9.85L15.05 9.85L15.05 9.75L14.95 9.2L14.5 8.05L14.2 7.7L14.05 7.6L14.05 7.55L13.7 7.3L13.55 7.55L13.45 7.65L13.3 7.95L13.3 8.05L12.65 8L11.3 7.85L11.25 7.85L10.8 7.75L10.6 7.95L10.5 7.7M25,22.5L24.1 24.35L24.3 22.5L24.25 21.9L22.6 21.95L22 22L20.55 21.95L18.45 21.7L15.95 21L15.05 20.7L14.95 19.95L18 20.75L18.3 20.8L19.55 21.2L21.5 21.55L22 21.55L23.5 21.65L24.95 21.7L25.2 21.85L25 22.5M17.75,0.85L17.5 0.9L16.3 1.15L15 1.5Q15.35 2.4 15.2 2.75L15.05 2.9L13.75 3L12.9 2.85L12.5 2.75L11.25 2.5Q10.35 2.5 9.15 3.1L8.05 3.75L7.2 4.5L5.75 4.15L5.6 4.1Q7.4 2.2 9.85 1.25L10.2 1.4L11.6 1.8L12.25 1.8Q13.45 1.8 14.05 1.15Q14.4 0.75 14.35 0.2L17.3 0L17.45 0L17.75 0.85" />
<path style="fill:#1C202A;fill-opacity:1" d="M18.55,-3.6L18.25 -2.95Q16.7 -3.65 13.95 -3.8L13.9 -3.25L13.8 -2.75L13.75 -2.25L15 -2.25L17.8 -2L17.65 -1.35L17.5 -0.85L16.05 -1.1L11.9 -0.75Q9 -0.25 6.9 1.15Q4.8 2.55 4 3.65L4.15 3.75L4.2 3.8L4.1 3.8L2.75 3.55L2.4 3.3L2.45 3.3L4.25 1.75Q5.9 0.4 7.5 -0.4Q9.1 -1.25 11.15 -1.8L12.85 -2.15L12.8 -2.7L12.8 -3.1L12.95 -4.9L12.95 -4.95L12.95 -5.2L13 -5.5Q8.7 -5.45 5.45 -3.6L5.25 -3.5L4.9 -3.3L4.55 -3.05Q1.85 -1.3 -0.1 1.8L-0.65 2.65L-0.85 3L-1.85 5.3Q-3.25 9.3 -1.55 12.9L-0.8 14.3L-0.95 12.9L-1 11.85L-0.95 10.8L-0.85 10.1L-0.6 8.7L-0.4 8.1L-0.4 8.05L0.05 7.1L0.15 7L0.2 6.9L0.2 8.1Q0.25 9.4 0.65 10.4L0.8 10.5L0.7 10.45L0.65 10.45L0.6 10.4L0.5 10.15L0.5 10.3L0.45 12.15L0.45 12.9L0.65 14.9L0.8 15.5L1 16L1.4 16.95L1.55 17.3L2.05 18.1L3.45 19.9Q5.15 21.85 7 23L8.6 23.85L9.15 24.1Q11.65 25 14.65 24.65L14.75 24.6L14.8 24.6L14.8 24.45L14.4 23.35L14.3 23.05L14.1 22.25L14.05 21.95L13.75 20L13.75 19.5L13.75 18.85L13.8 17.6Q13.95 16.4 14.4 15.25L14.2 15.2L13.4 15L13.2 14.95L13.1 15.2L12.6 16.2Q11.15 17.95 9.25 18.25L9.15 18.25Q7.25 18.45 5.75 17.5L4.15 16L3.7 15.1Q3.35 14.05 3.45 12.9L3.55 12.1L3.7 12.2L4.5 12.6L4.55 12.6L4.55 12.9L4.55 13L4.55 13.15Q4.5 13.75 4.6 14.15L4.75 14.8Q5 15.4 5.7 16L6.15 16.35Q7.25 17.1 8.7 17.05L9.15 17Q10.3 16.85 11.15 16.15L11.45 15.85Q12.1 15.15 12 14.2L11.35 13.7L10.9 13.35L10.5 12.9L10.1 12.45L9.9 12.1L9.65 11.65L9.2 10.55L9.15 10.5L8.9 9.45L8.85 9.05L8.7 7.95Q8.65 6.6 8.9 5.05L8.95 5.05L9.05 4.8L9.1 4.6L9.25 3.75L9.45 3.85L9.55 3.9L10.6 4.1L11.5 4.25L12.1 4.3L13.5 4.4Q16.2 4.45 18.5 3.45L18.55 3.45L18.7 3.35L18.6 3.1Q18.75 3.5 19.8 2.7L19.85 2.7L19.9 2.75L20.35 2.45L20.65 2.25L20.95 2.05L21.5 1.7L21.85 1.45L22 1.35L22.05 1.3L23.9 0L24.15 -0.25L24.4 -0.45L25.1 -1.15L25.1 -1.1L25.25 -1.25L25.45 -1.45L26.2 -1Q30.8 2.25 31.55 8.85L31.55 8.95L31.65 9.85L31.7 11.15L31.7 12L31.7 13Q31.5 15.95 30.4 18L29.75 18.95L29.7 19L28.65 20.35L26.7 22.3L26.45 22.1L26.4 22.5L25.95 23.8L25.4 24.7L22.8 27.55Q21.45 28.55 20.75 28.65L16.1 25.8L16 25.75L14.25 26Q11.9 26.25 9.15 25.35L7.8 24.85Q6.45 24.3 5.25 23.5Q3.35 22.15 1.9 20.2L1.85 20.15Q0.3 18 -0.35 16.1L-0.45 16Q-1.9 14.75 -2.6 12.9Q-3.1 11.65 -3.25 10.1Q-3.5 7.45 -2.8 5.2L-1.95 2.9Q-1.1 1 0.05 -0.45L0.5 -0.95L0.5 -1Q2.1 -2.85 4.35 -4.1L4.7 -4.3Q8.35 -6.3 13.7 -6.65Q14.35 -6.75 14.05 -4.65L14.4 -4.65L16.35 -4.45L18.55 -3.8L18.65 -3.75L18.55 -3.6M12.8,5.5L11.4 5.35L10.05 5.05L10 5.8L9.8 6.95L9.8 7.05L9.8 7.35L9.8 7.95L9.85 8.65L9.9 8.9L10 9.3L10.05 9.4L10.35 10.3L11.05 11.7L11.9 12.75L12.05 12.9L12.55 13.3L12.75 13.45L13 13.6L13.25 13.7L14.05 13.85L15.55 14.2L15.85 14.3Q17.9 14.85 20.2 16L22 17L25.45 19.6L25.95 20.1L26 20.15L26.25 20.35L26.4 20.55L26.65 20.8L27.05 20.4L27.1 20.35L27.35 20.1L28.2 19L29.55 16.4L30 14.65L30.15 11.15L30.1 10.7L29.95 8.85L29.9 8.4L29.9 8.15L29.7 6.9L29.3 5.35L29.1 4.75Q28.05 1.95 25.95 0.55L25.75 0.4L25.4 0.8L25.25 0.95L24.7 1.45L23.05 2.7L22 3.3L19 4.6L18.55 4.75L13.3 5.55L12.8 5.5M27.3,10.2L27.4 11L27.4 11.3L27.4 11.5L27.3 12.7Q27.05 14.15 26.25 15.5L26.2 15.65L25.95 16.05L25.85 16.2L25.25 14.7L24.15 11.8L23.6 10.4L23.95 9.6L24 9.5L24 9.4L24.2 8.65L24.8 6.05L24.8 5.9L24.8 5.8L24.85 5.6L25.1 4.4L25.1 4.3L25.1 4.1L25.2 4.25L25.25 4.35L25.4 4.65L25.55 4.9L25.85 5.55L25.95 5.85L26.1 6.2L26.55 7.35L27.05 8.85L27.3 10.1L27.3 10.2M18,8.95L18.05 8.9L18.45 8.05L18.55 7.85L18.7 7.6L18.8 7.4L18.8 7.35L19.15 6.55L19.25 6.35Q19.35 6.15 19.45 6.25L19.5 6.3L19.7 6.55L20.1 7.1L20.15 7.15L20.35 7.45L21.15 9.05L21.25 9.4L21.4 10.2L21.4 10.25Q21.5 10.9 21.2 11.75L21.1 11.95L20.85 12.45L20.85 12.5L20.2 13.5L19.8 13.75L18.65 12.05L17.35 10.15L17.65 9.6L18 8.95M20.35,9.45L20.1 8.95L19.85 8.5L19.55 7.95L19.45 8.2L19.1 8.9L18.8 9.55L18.55 9.95L18.5 10L18.55 10.1L19.75 11.6L19.75 11.65L19.85 12.05L20.15 11.7L20.2 11.55L20.25 11.45L20.45 10.05L20.35 9.45M24.9,9.6L24.8 9.9L24.6 10.3L25.1 11.75L25.25 12.2L25.4 12.65L25.9 14.15L25.95 14.05L26.15 13.55L26.2 13.4L26.45 11.65L26.4 10.65L26.35 10.5L26.25 9.85L26 8.85L25.95 8.7L25.9 8.45L25.45 7.1L25.45 8.05L25.25 8.8L25 9.45L24.9 9.6M23.05,19.25L22 18.5Q18.85 16.35 15.25 15.45Q14.8 17.15 14.9 19.25L18.7 19.8L22 20.05L24.1 20.15L23.05 19.25M15.2,21.35L15.85 23.1L16 23.35L16.5 24.6Q19.1 26.4 20.85 27.35L22.25 26.45L23.85 24.75L24.1 24.35L25 22.5L25.2 21.85L25.35 21.15L25.15 21L22 21.15L18.3 20.8L18 20.75L14.95 19.95L15.05 20.7L15.2 21.35M21.15,26.25L20.2 25.5L20.2 25.45L20.7 24.1L21.25 22.35L22 22.25L23.45 22.25L23.45 22.45L23.45 22.5Q23.4 23.75 22.85 24.65L21.15 26.25M21.7,22.9L20.9 25.15L21.3 25.45L22.25 24.5L22.7 22.8L21.7 22.9M15.1,9.95L14.95 11.2L14.85 11.6L14.8 11.7L14.45 12.65L14.2 12.85Q13.85 12.9 13.2 11.6L12.8 10.75L12.6 10L12.6 9.95L12.7 9.7L12.7 9.6L12.85 9.1L13.3 8.05L13.3 7.95L13.45 7.65L13.55 7.55L13.7 7.3L14.05 7.55L14.05 7.6L14.2 7.7L14.5 8.05L14.95 9.2L15.05 9.75L15.05 9.85L15.1 9.95M13.8,9.1L13.75 9.4L13.55 9.95L13.5 10L13.8 10.95L13.85 11L14.1 11.5L14.15 11.05L14.1 10.3L14.1 10.15L14.05 9.95L14.05 9.9L14 9.35L13.9 9.05Q13.8 8.75 13.8 9.1M17.6,22.1Q17.75 21.45 18.15 21.65L19.15 22.05Q19.75 22.25 19.7 22.65L19.25 23.65L18.6 24.75L17.5 24.3L17.2 24.05L17.3 23.35L17.4 22.95L17.6 22.1M18.75,23.5L19.1 22.65L18.15 22.2L17.65 23.8L18.45 24.15L18.75 23.5" />
</g>
</svg>
