<?xml version="1.0" encoding="utf-8"?>
<svg version="1.1" id="Layer_1"
xmlns="http://www.w3.org/2000/svg"
xmlns:xlink="http://www.w3.org/1999/xlink"
xmlns:author="http://www.sothink.com"
width="39px" height="42px"
xml:space="preserve">
<g id="1923" transform="matrix(1, 0, 0, 1, 13.9, 13.7)">
<path style="fill:#1E1915;fill-opacity:1" d="M12.75,-1.45Q15 0.5 15 3.6Q15 7.6 13.3 9.35L13.15 9.5Q13.7 10.6 13.7 11.55Q13.7 15 12.05 16.8Q10.75 18.25 8.7 18.25Q7.35 18.25 6.45 17.75L6.2 17.6Q6 21.35 3.35 21.35Q1.6 21.35 0.8 20.7L-0.1 21.3L-2.1 21.7Q-3.7 21.7 -4.85 20.7Q-6.15 19.65 -6.15 17.85L-6.15 17.55L-6.9 17.6Q-8.5 17.6 -9.6 16.45Q-10.75 15.25 -10.75 13.3Q-10.75 10.65 -9.3 8.3Q-8.45 7.1 -7.6 6.55L-8.25 5.75Q-9.3 4.45 -9.3 3.1Q-9.3 1.4 -8.65 0.7Q-7.9 -0.15 -6 -0.15Q-3.65 -0.15 -2.1 0.8L-2.1 0.6L-1.8 -1.65Q-0.95 -3.75 1.45 -3.75Q3.5 -3.75 4.75 -2.8L5.2 -2.95L7 -3.45Q10.45 -3.45 12.75 -1.45M21.65,-2.55Q22.15 -3.3 23 -3.3Q24 -3.3 24.35 -2.9L24.65 -1.85Q24.65 -1.1 23.65 -1.1Q22.8 -1.1 21.9 -2.2L21.65 -2.55M-11.4,-9.45L-11.4 -11.1Q-11.5 -11.85 -10.6 -12.7Q-9.55 -13.7 -8.2 -13.7Q-5.4 -13.7 -4.05 -12.1Q-3.1 -11 -3.1 -9.85Q-3.1 -9.05 -5.15 -8.1Q-6.95 -7.3 -7.65 -7.3Q-9.85 -7.3 -10.75 -8.25L-11.4 -9.45M-13.9,23.55L-13.65 22.8Q-13.25 22.35 -12.7 22.35L-12.35 22.45L-12.1 22.5L-11.85 23.3L-11.95 23.9Q-12.2 24.45 -12.8 24.45Q-13.9 24.45 -13.9 23.55M-4.25,28.3Q-4.75 28.3 -5.1 27.95L-5.25 27.75L-5 27.45Q-4.7 27.2 -4.45 27.2L-3.95 27.45L-3.55 27.75L-3.8 28.25L-4.25 28.3M13.05,22.65L12.25 22.8Q11.65 22.8 11.15 22.25L11 22.05Q11.3 21.4 11.85 21.4L12.65 21.7Q13.15 22.1 13.05 22.65M5.15,26.45L5 27.35Q4.75 27.9 3.9 27.9Q2.55 27.9 2.55 27.05Q2.55 26.6 2.95 25.85Q3.45 24.9 4.1 24.85L4.55 25.15Q5.15 25.7 5.15 26.45" />
</g>
</svg>
