<?xml version="1.0" encoding="utf-8"?>
<svg version="1.1" id="Layer_1"
xmlns="http://www.w3.org/2000/svg"
xmlns:xlink="http://www.w3.org/1999/xlink"
xmlns:author="http://www.sothink.com"
width="23px" height="26px"
xml:space="preserve">
<g id="1624" transform="matrix(1, 0, 0, 1, -0.8, 0.9)">
<path style="fill:#D79B07;fill-opacity:1" d="M23.6,5.8L23.45 6.4Q23.3 6.85 23.3 7.25Q23.3 8 23.55 8.3L23.8 8.55L22.95 10.05L22.1 11.8L22.1 11.9L21.4 10L20.5 8.3L21.2 8L21.4 6.9Q21.4 5.35 18.4 3L17.5 2.35L17.55 2.3L18.6 1.4L21 3.6L23.6 5.8M21,12.3Q21.1 13.55 21.65 13.85Q20.5 14.7 19.7 16.1Q19 17.3 19.05 18.15L18.95 17.15Q18.8 16.1 19 15.15L19.3 14.35L19.45 13.45L18.9 12.5L18.35 11.35L17.1 10.05Q16.05 9.25 15.6 9.25L14.75 9.05L14.25 8.9L13.45 8.95Q12.75 9.4 12.05 11.15Q11.75 10.9 11.55 10.05Q11.25 8.85 11.25 7.35L11.25 6.65L11.3 6.65Q11.6 7.15 12.4 7.25L13.95 6.85Q14.75 6.45 14.85 4.7Q14.95 6.65 16.55 7.8Q18.1 8.8 19.15 8.15Q18.35 9.2 19.45 10.25Q20.3 11.05 21 11.05L21 12.3M1.8,9.35L3.2 9.8L4.05 11.4Q4.5 11.9 5.15 11.9L5.65 11.85L5.35 12.25L5.3 13.3Q5.3 15.4 6.6 15.4L6.1 15.6Q5.7 15.85 5.7 16.55Q5.7 18.5 7.9 21.15Q7.2 20.6 6.8 22.25L7 23.5L5.45 21.05Q4.3 19.3 3.7 19.1Q4.15 18.35 2.75 16.5L1.4 14.8Q2.75 14.15 2.6 12.65Q2.5 11.85 1.8 10.45L0.8 9.05L1.8 9.35M8.5,15.45L9.1 13.75Q9.6 12.15 8.55 11.05L11.3 11.45Q10.7 11.55 11 12.5Q11.15 13.2 11.4 13.25L12.55 14.1Q10.95 15.4 11.55 16.75Q12.05 18.25 11.75 17.85Q12.3 18.8 13.1 18.3L14.05 17.75L15.15 17.5Q15.8 17.3 16.55 17.8Q16.05 17.8 15.55 18.55Q14.7 19.95 14.55 20.75L14.45 21.8L13.4 21.2L11.65 20.7L10.45 20.85Q10.2 19.35 9.35 17.3L8.5 15.45M11.6,24.75L11.8 24.9L11.7 24.9L11.6 24.75" />
<path style="fill:#DF9931;fill-opacity:1" d="M8.55,-0.9L13 2L13.1 2.1L12 1.6L9.95 1.4Q8.5 1.4 8.25 2.15L8.3 3.5L7.65 3.4Q7.1 3.4 6.7 4.1Q6.25 4.85 6.2 6.15L6.05 5.85L4.7 3.6L5.85 3.55L6.1 2.6Q6.1 1.2 4.8 0.1L4.8 0L7.2 -0.45L8.55 -0.9" />
</g>
</svg>
