<?xml version="1.0" encoding="utf-8"?>
<svg version="1.1" id="Layer_1"
xmlns="http://www.w3.org/2000/svg"
xmlns:xlink="http://www.w3.org/1999/xlink"
xmlns:author="http://www.sothink.com"
width="52px" height="58px"
xml:space="preserve">
<g id="3062" transform="matrix(1, 0, 0, 1, 22, 16.95)">
<path style="fill:#F8C030;fill-opacity:1" d="M-10.3,15.9L-10.8 14.65L-10.6 12.7Q-10.4 11.85 -9.65 10.7Q-8.85 9.55 -7.85 8.95Q-6.9 8.3 -6 8.15L-3.7 7.85Q-1.3 7.75 0.5 8.95L2.7 10.5Q5.3 7.95 7.95 8.4Q8.8 8.55 9.6 9L9.95 9.15Q10.7 9.55 10.7 9.75Q13 8.15 14.7 8.5L14.9 8.5L16.35 9.35L17.1 10.35L17.5 11.1L17.95 12.2Q20.95 11.2 22.9 12.9Q24 14.1 23.6 14.9L19.7 21.65L21.95 15.65L15.2 16.7L14.6 11.8L9.2 14.2L7.55 10.6L3.15 14.6L-2.7 11.35L-3.7 15.55L-8.65 13.7L-8.4 19.45L-10.3 15.9" />
<path style="fill:#F8F088;fill-opacity:1" d="M-2.45,29.75L-4.55 26.15L-5.15 25.1L-8.4 19.45L-8.65 13.7L-3.7 15.55L-2.7 11.35L3.15 14.6L7.55 10.6L9.2 14.2L14.6 11.8L15.2 16.7L21.95 15.65L19.7 21.65L14.1 30.9L20 17.2L13.45 18.6L12.8 14.35L8.15 16.15L6.65 13.45L3.4 17.4L-1.15 14.5L-1.2 18L-5.95 16.15L0.05 33.9L-2.45 29.75" />
<path style="fill:#F8F8F8;fill-opacity:1" d="M0.05,33.9L-5.95 16.15L-1.2 18L-1.15 14.5L3.4 17.4L6.65 13.45L8.15 16.15L12.8 14.35L13.45 18.6L20 17.2L14.1 30.9L9.5 38.35L8.5 40L5.45 40.55Q3.8 40.5 2.8 38.7L2.25 37.6L0.05 33.9M11.15,24.35Q10.75 24.65 10.7 25L10.9 25.1L11.95 25.35L12.5 25.25L12.9 24.8Q12.9 24.05 12 24.05Q11.55 24.05 11.15 24.35M0.15,30.75L0.15 30.9L0.3 31.15Q0.65 31.55 1.3 31.55L1.65 31.55L1.9 31.25Q1.9 30.5 0.8 30.5Q0.4 30.5 0.15 30.75M7.85,35.65L8.3 35.65L9.05 35.55Q9 34.95 8.4 34.95L8.05 35L7.85 35.25L7.85 35.65M-2.2,22.25L-1.65 22.15Q-1.5 22 -1.8 21.75L-2.35 21.35L-3.3 21.35L-3.3 22L-2.2 22.25" />
<path style="fill:#C43B0D;fill-opacity:1" d="M12,24.05Q12.9 24.05 12.9 24.8L12.5 25.25L11.95 25.35L10.9 25.1L10.7 25Q10.75 24.65 11.15 24.35Q11.55 24.05 12 24.05M0.8,30.5Q1.9 30.5 1.9 31.25L1.65 31.55L1.3 31.55Q0.65 31.55 0.3 31.15L0.15 30.9L0.15 30.75Q0.4 30.5 0.8 30.5M7.85,35.25L8.05 35L8.4 34.95Q9 34.95 9.05 35.55L8.3 35.65L7.85 35.65L7.85 35.25M-3.3,22L-3.3 21.35L-2.35 21.35L-1.8 21.75Q-1.5 22 -1.65 22.15L-2.2 22.25L-3.3 22" />
<path style="fill:#FF580D;fill-opacity:1" d="M-9.5,26L-11 25.3L-12.25 23.9L-12.5 22.85L-12.25 22.65L-12.2 22.6L-11 22.35Q-8.1 22.35 -8.1 24.6Q-8.1 25.65 -9.45 25.95L-9.5 26M21.05,24L21.45 24.45L21.7 25.55Q21.7 26.35 21.05 26.85L20.9 26.9Q20.15 27.3 19.1 27.3L18.4 27.25Q17.95 27.15 17.75 26.65L17.75 26.5L17.75 26.45Q17.75 25.65 18.7 24.75Q19.65 23.8 20.55 23.8L21.05 24M-7.2,26.35L-5.55 26.45Q-4.6 27.05 -4.7 27.6Q-4.8 28.15 -5.85 28.15Q-6.35 28.15 -6.9 27.7L-7.2 27.25L-7.2 26.35" />
<path style="fill:#564B41;fill-opacity:1" d="M27.3,-3.95Q24.55 -0.6 20.8 -0.6Q17.15 -0.6 14.45 -1.75Q10.5 -3.4 10.5 -7L10.55 -7.7L11.45 -9.2Q13.05 -10.75 16.3 -10.75Q20.6 -10.75 24.2 -8.15Q26.85 -6.3 27.55 -4.2L27.3 -3.95M-14.4,21.7L-16.35 20.95Q-18.2 19.7 -18.2 17.3Q-18.2 15.8 -17.85 14.75L-16.5 14.6Q-13.9 14.6 -12.7 15.65L-12.25 16.2Q-11.7 17.05 -11.7 18.45Q-11.7 19.55 -12.25 20.3Q-12.75 21.05 -13.7 21.45L-14.4 21.7M-13.75,5.35Q-13.75 8.05 -16.7 10.5Q-18.85 12.35 -20.55 12.65Q-22 11.65 -22 9.35Q-22 6.05 -20.3 3.3Q-18.7 0.8 -16.35 0.15Q-13.75 1.2 -13.75 5.35M-13.35,-3.85Q-12.95 -7.85 -9.65 -11.9Q-5.45 -16.95 -0.2 -16.95L0.9 -16.9L1.55 -16.3Q3.45 -14.25 3.45 -11.3Q3.45 -6.75 -0.7 -3.8Q-4.1 -1.35 -7.55 -1.35Q-10.05 -1.35 -12.35 -3L-13.35 -3.85M7.95,8.4Q5.3 7.95 2.7 10.5L0.5 8.95Q-1.3 7.75 -3.7 7.85L-6 8.15Q-6.35 7.2 -6.35 6.05Q-6.35 3.25 -3.8 0.95Q-0.8 -1.6 4 -1.6Q7.85 -1.6 9.8 -0.2Q11.7 1.2 11.7 3.9Q11.7 6.85 9.6 9Q8.8 8.55 7.95 8.4M14.9,8.5L14.75 8.05Q14.75 5.5 16.65 3.65Q18.55 1.85 21.2 1.85Q23.45 1.85 24.75 3.3Q25.75 4.45 25.75 6Q25.75 8.55 23.2 9.85Q21.4 10.75 19.5 10.75L17.1 10.35L16.35 9.35L14.9 8.5" />
<path style="fill:#362F29;fill-opacity:1" d="M-9.45,25.95Q-8.1 25.65 -8.1 24.6Q-8.1 22.35 -11 22.35L-12.2 22.6L-12.25 22.65L-12.5 22.85L-12.55 22.3L-12.5 21.8L-13.05 21.85L-14.4 21.7L-13.7 21.45Q-12.75 21.05 -12.25 20.3Q-11.7 19.55 -11.7 18.45Q-11.7 17.05 -12.25 16.2L-12.7 15.65Q-13.9 14.6 -16.5 14.6L-17.85 14.75L-17.4 13.75L-17.2 13.45Q-19.2 13.45 -20.3 12.8Q-20.4 12.75 -20.55 12.65Q-18.85 12.35 -16.7 10.5Q-13.75 8.05 -13.75 5.35Q-13.75 1.2 -16.35 0.15L-14.7 -0.05L-12.6 0.15Q-13.4 -1.15 -13.4 -2.8L-13.35 -3.85L-12.35 -3Q-10.05 -1.35 -7.55 -1.35Q-4.1 -1.35 -0.7 -3.8Q3.45 -6.75 3.45 -11.3Q3.45 -14.25 1.55 -16.3L0.9 -16.9Q5.1 -16.65 7.75 -14.35Q10.5 -11.95 10.5 -8.1L10.5 -7.6L10.55 -7.7L10.5 -7Q10.5 -3.4 14.45 -1.75Q17.15 -0.6 20.8 -0.6Q24.55 -0.6 27.3 -3.95L27.55 -4.2L27.85 -2.65Q27.85 -0.35 26.1 0.95L27.85 2.5Q29.4 4.45 29.4 6.7Q29.4 10.2 26.1 12.8Q27.15 14.25 27.15 16.65Q27.15 19.05 24.4 20.55L22.95 21.2Q23.35 22.45 23.35 24.55Q23.35 27.2 21.05 28.55L20.8 28.65Q19.25 29.45 17.4 29.55Q16.85 31.35 13.4 35Q11.35 37.15 9.5 38.35L14.1 30.9L19.7 21.65L23.6 14.9Q24 14.1 22.9 12.9Q20.95 11.2 17.95 12.2L17.5 11.1L17.1 10.35L19.5 10.75Q21.4 10.75 23.2 9.85Q25.75 8.55 25.75 6Q25.75 4.45 24.75 3.3Q23.45 1.85 21.2 1.85Q18.55 1.85 16.65 3.65Q14.75 5.5 14.75 8.05L14.9 8.5L14.7 8.5Q13 8.15 10.7 9.75Q10.7 9.55 9.95 9.15L9.6 9Q11.7 6.85 11.7 3.9Q11.7 1.2 9.8 -0.2Q7.85 -1.6 4 -1.6Q-0.8 -1.6 -3.8 0.95Q-6.35 3.25 -6.35 6.05Q-6.35 7.2 -6 8.15Q-6.9 8.3 -7.85 8.95Q-8.85 9.55 -9.65 10.7Q-10.4 11.85 -10.6 12.7L-10.8 14.65L-10.3 15.9L-8.4 19.45L-5.15 25.1L-4.55 26.15L-2.45 29.75L0.05 33.9L2.25 37.6Q0.3 36.45 -1.65 33.9Q-3.5 31.55 -4.2 30.05Q-5.25 29.95 -6.2 29.45Q-7.9 28.5 -7.9 26.7L-7.85 26.1L-8.45 26.1L-9.5 26L-9.45 25.95M20.55,23.8Q19.65 23.8 18.7 24.75Q17.75 25.65 17.75 26.45L17.75 26.5L17.75 26.65Q17.95 27.15 18.4 27.25L19.1 27.3Q20.15 27.3 20.9 26.9L21.05 26.85Q21.7 26.35 21.7 25.55L21.45 24.45L21.05 24L20.55 23.8M-7.2,27.25L-6.9 27.7Q-6.35 28.15 -5.85 28.15Q-4.8 28.15 -4.7 27.6Q-4.6 27.05 -5.55 26.45L-7.2 26.35L-7.2 27.25" />
</g>
</svg>
