<?xml version="1.0" encoding="utf-8"?>
<svg version="1.1" id="Layer_1"
xmlns="http://www.w3.org/2000/svg"
xmlns:xlink="http://www.w3.org/1999/xlink"
xmlns:author="http://www.sothink.com"
width="12px" height="9px"
xml:space="preserve">
<g id="347" transform="matrix(1, 0, 0, 1, 0, 0)">
<path style="fill:#4D3212;fill-opacity:1" d="M9.25,2.4Q8.15 1.7 6.55 1.25L5.7 1.05L3.95 0.95Q2.95 1 2.25 1.7Q1.55 2.35 1.3 3.7Q1 5 1.25 5.8Q1.3 6.2 2 6.6L3.5 7.15L7.1 7.7L7.9 7.55Q8.8 7.35 9.35 6.85L10.55 4.9L10.7 3.3L10.15 2.95Q9.8 2.7 9.25 2.4M11.9,3.3L10.85 6.4L9.8 7.8L8 8.55L6.55 8.65L5.05 8.55L2.5 8L1.65 7.65Q0.05 6.95 0 6.1Q-0.1 5.25 0.25 3.65Q0.55 1.95 1.2 1.15Q1.75 0.35 2.8 0.15L5.45 0Q7.05 0.1 9 1.05L10.35 1.85L11.9 3.3" />
<path style="fill:#B49148;fill-opacity:1" d="M2,6.6Q1.3 6.2 1.25 5.8Q1 5 1.3 3.7Q1.55 2.35 2.25 1.7Q2.95 1 3.95 0.95L5.7 1.05L3.6 1.55Q2.6 1.95 2.55 2.2L2.55 2.95L2.15 3.3L3.1 4.65L3.05 4.65L1.95 4.75L1.85 5.6L2 6.6" />
<path style="fill:#9A7226;fill-opacity:1" d="M1.85,5.6L1.95 4.75L3.05 4.65L3.1 4.65L2.15 3.3L2.55 2.95L2.55 2.2Q2.6 1.95 3.6 1.55L5.7 1.05L6.55 1.25Q8.15 1.7 9.25 2.4Q9.8 2.7 10.15 2.95L10.05 3.3Q9.5 5.45 8.35 6.95L7.9 7.55L7.1 7.7L3.5 7.15L2 6.6L1.85 5.6" />
<path style="fill:#745416;fill-opacity:1" d="M8.35,6.95Q9.5 5.45 10.05 3.3L10.15 2.95L10.7 3.3L10.55 4.9L9.35 6.85Q8.8 7.35 7.9 7.55L8.35 6.95" />
</g>
</svg>
