<?xml version="1.0" encoding="utf-8"?>
<svg version="1.1" id="Layer_1"
xmlns="http://www.w3.org/2000/svg"
xmlns:xlink="http://www.w3.org/1999/xlink"
xmlns:author="http://www.sothink.com"
width="7px" height="19px"
xml:space="preserve">
<g id="480" transform="matrix(1, 0, 0, 1, 0.25, 0.25)">
<path style="fill:#662616;fill-opacity:1" d="M3.7,6.3L3.65 6.3L3.45 6.45L3.05 6.75L2.85 6.6L2.65 6.5L2.2 6.2L0.55 5.1L0 0.8Q-0.1 -0.25 0.6 0.2L3.05 1.55L5.65 0Q6.2 -0.05 6.1 0.6L5.5 5.1L3.9 6.15L3.7 6.3M1.3,1.2L0.5 0.7L1 4.6L2.85 5.95L3 6.1L3.3 5.9L4.65 4.9L5.05 4.6L5.55 0.7L3.05 2.25L2.15 1.75L1.3 1.2" />
<path style="fill:#EE7557;fill-opacity:1" d="M2.15,1.75L3.05 2.25L5.55 0.7L5.05 4.6L4.65 4.9L4.95 1.65L3.25 2.95L1.6 1.4L2.15 1.75" />
<path style="fill:#BB482E;fill-opacity:1" d="M3.3,5.9L1.75 4.3Q1.25 2.95 1.3 1.2L1.6 1.4L3.25 2.95L4.95 1.65L4.65 4.9L3.3 5.9" />
<path style="fill:#8C331D;fill-opacity:1" d="M3,6.1L2.85 5.95L1 4.6L0.5 0.7L1.3 1.2Q1.25 2.95 1.75 4.3L3.3 5.9L3 6.1" />
<path style="fill:#35281A;fill-opacity:1" d="M2.65,17.7L2.15 17.7L2.15 6.35L2.2 6.2L2.65 6.5L2.65 17.7M3.45,6.45L3.65 6.3L3.7 6.3L3.9 6.15L3.95 6.3L3.95 17.7L3.45 17.7L3.45 6.45" />
<path style="fill:#B4997D;fill-opacity:1" d="M2.85,6.6L3.05 6.75L3.45 6.45L3.45 17.7L3 17.7L2.85 6.6" />
<path style="fill:#66523D;fill-opacity:1" d="M3,17.7L2.65 17.7L2.65 6.5L2.85 6.6L3 17.7" />
<path style="fill:none;stroke-width:0.5;stroke-linecap:round;stroke-linejoin:round;stroke-miterlimit:3;stroke:#662616;stroke-opacity:1" d="M3.9,6.15L5.5 5.1L6.1 0.6Q6.2 -0.05 5.65 0L3.05 1.55L0.6 0.2Q-0.1 -0.25 0 0.8L0.55 5.1L2.2 6.2L2.65 6.5L2.85 6.6L3.05 6.75L3.45 6.45L3.65 6.3L3.7 6.3L3.9 6.15z" />
<path style="fill:none;stroke-width:0.5;stroke-linecap:round;stroke-linejoin:round;stroke-miterlimit:3;stroke:#35281A;stroke-opacity:1" d="M3.9,6.15L3.95 6.3L3.95 17.7L3.45 17.7M2.65,17.7L2.15 17.7L2.15 6.35L2.2 6.2" />
</g>
</svg>
