<?xml version="1.0" encoding="utf-8"?>
<svg version="1.1" id="Layer_1"
xmlns="http://www.w3.org/2000/svg"
xmlns:xlink="http://www.w3.org/1999/xlink"
xmlns:author="http://www.sothink.com"
width="32px" height="16px"
xml:space="preserve">
<g id="2714" transform="matrix(1, 0, 0, 1, -26.5, -3.9)">
<path style="fill:#FFFFFF;fill-opacity:1" d="M57.65,7.75L57.5 7.9L54.3 6.25Q52.8 6.35 51.55 4.85Q50.35 4.05 47.95 6.85L43.1 13.95L42.05 16.4Q41.4 17.8 39.9 18.55L40.15 18.7L39.8 18.55L39.2 19.05L39.45 18.65L38.95 18.65Q36.15 17.3 33.5 14.85L30.8 13.25Q30.5 13.05 30.05 13L27.7 13.3L27.55 13L27.4 12.9L26.5 12.4L29.95 12.2Q30.65 12.2 31.55 12.65L34.7 14.95Q36.6 16.65 38.85 17.85Q40.5 19.05 42.1 15.1Q42.05 14.75 43.35 12.7L45.75 9.05L47.15 6.8L48.95 4.8Q50.45 3.4 51.95 4.15Q52.35 4.2 52.85 4.6L53.65 5.15L57.65 7.75M47.3,4.45L46.95 4.5L47.2 4.4L47.3 4.45M32.6,12.85L32.4 12.75L32.1 12.65L32.25 12.65L32.4 12.7L32.6 12.85" />
</g>
</svg>
