<?xml version="1.0" encoding="utf-8"?>
<svg version="1.1" id="Layer_1"
xmlns="http://www.w3.org/2000/svg"
xmlns:xlink="http://www.w3.org/1999/xlink"
xmlns:author="http://www.sothink.com"
width="41px" height="47px"
xml:space="preserve">
<g id="551" transform="matrix(1, 0, 0, 1, 0, -0.05)">
<path style="fill:#4E4138;fill-opacity:1" d="M35.15,37.35L34.6 36.45L35.2 36.7Q36.45 37.4 38.3 35.95L37 35.3Q35.9 34.65 36.05 33.4Q34.95 32.5 35.85 32.7L37.55 33L39.25 32.75L39.7 31.55L40.15 30.6L40.3 30.25L37.75 29.2L36.35 30.25L35.55 31.3L35.35 31.6Q35.05 32.2 35 31.6L35.05 31.05Q34.1 30.2 34.35 29L34.9 27.5Q32.6 27.85 32.1 29.3L31.8 30.15L31.8 30.2L31.7 29.8L31.4 29.4Q31.8 27.9 33.4 27.2L35.9 26.95Q35 28.75 34.95 29.35Q34.95 30 35.35 30.35L36.2 29.4Q37.1 28.7 38.05 28.65L40.65 29.65L40.8 29.8Q41.1 30 41 30.25L39.8 32.95Q39.1 33.6 38 33.65L36.75 33.6Q36.7 34.15 37.15 34.6Q37.6 35 39.5 35.7Q38.9 36.65 37.5 37.25L35.15 37.45L35.15 37.35M30.65,39.3L31.6 38.65L32.35 38.1L32.7 38.6L30.5 40.1L30.65 39.3M28.15,40.7L28.8 41.1L26.85 42.15Q26.45 42.35 26.5 40.95L26.65 38.8Q26.75 38 27.25 38.05Q27.8 38 27.55 37.1L27.55 36.95L27 36.25L26.65 36.15L26.2 36.1L26.05 36.1L26.45 35.6L26.65 35.25Q26.75 34.85 26.5 34.4L26.4 34.25Q25.95 33.45 25.5 33.8L24.55 33.7L23.1 32.4L23 32.3L22.85 32.15L22.25 31.4L22.25 31.3L22.35 31.2L23.2 31L24.55 30.6L24.35 31.15L24.35 31.25L23.2 31.55L23.2 31.6L23.35 31.9L25.15 33.35Q25.95 32.7 26.85 33.95L27.1 34.3L27.3 35L27.2 35.55L27.35 35.65L27.5 35.75L27.7 35.95L28 36.6L28.05 36.75L28.15 37.1L28.2 37.35L28.1 38.15L27.3 38.6Q27.05 39.9 27.15 41.2L28.15 40.7M28.85,30.3L28.15 30.35L27.1 30.6L26.7 30.35L26.1 30.15L29.1 29.65L28.85 30.3M9.7,29.95L8.7 29.55L8.45 29.4L7.95 29.05L7.85 29L7 28.1L6.8 27.85L6.55 27.4L6.25 26.7L6.15 26.45L6.1 26L6.35 25.2Q6.75 24.55 7.3 24.55L7.2 23.8Q7.25 23.3 7.55 22.9Q7.65 22.75 7.9 22.7L9.65 22.65L10.8 22.9L12.95 24.2L13.25 24.4L13.5 24.6L13.7 24.75L14.45 25.4L15.9 27.15L15.95 27.25L16.1 28.2L15.85 29L15.65 29.2L15.15 29.45L14.55 29.6L14.15 29.6L13.8 29.65L11.25 30.05L10.8 30.15L10.25 30.1L9.75 29.95L9.7 29.95M9.8,27L9.75 27L8.75 26.4L8.1 25.85L7.7 25.45Q7.2 25.35 7 25.85Q6.75 26.1 6.95 26.45L7.05 26.75L7.15 26.9L7.35 27.3L7.45 27.45L8.9 28.9L10.15 29.35L10.2 29.35L10.65 29.35L11.65 29.2L11.75 29.2L12.05 29.1L12.25 29.05L12.4 29L13.45 28.8L14.45 28.7L14.8 28.65L15.2 28.3L15.2 27.85L14.95 27.25L14.05 26.05L13.8 25.8L13.25 25.4L12.3 24.6Q10.4 23.25 8.45 23.5Q8.1 23.85 8.25 24.4L8.65 25.15L8.75 25.25L8.85 25.45L9.35 26.05L9.85 26.45L10.2 26.7L10.4 26.85L10.65 26.95L10.7 27L10.95 27.1L11.25 27.25L11.7 27.55L11.8 27.65L11.6 27.6L11.3 27.55L10.45 27.3L10.25 27.25L10.2 27.2L9.8 27" />
<path style="fill:#194310;fill-opacity:1" d="M13.85,14.45L13.35 13.5L12.15 12.05L11.15 11.2L11.05 11.1L8.5 9.2L7.2 8.3L5.55 7.3L5.45 7.6L5.65 8.25L6 9L6.4 9.75L6.5 9.9L6.55 9.9L6.55 9.95L6.6 9.95L7.15 10.9L7.4 11.25Q8.45 12.7 10.15 13.95Q11.9 15.25 13 15.35L13.05 15.35L13 15.4L12.55 16Q11.5 15.8 10.5 15.2L9.95 14.8L8.65 13.7L8.45 13.55L8.15 13.3L7.75 13.25L7.7 13.25L7.55 13.2L4 13.55L4.35 13.95L6.7 15.9L6.8 15.95L8.75 16.85Q10.1 17.4 11.45 17.4L10.95 18.1L8.85 17.7Q7.1 17.25 5.85 16.4Q4.55 15.55 3.8 14.6L3.35 14Q3.05 13.55 3.2 13.4Q3.9 12.8 5.2 12.5L5.4 12.45L7.05 12.25L6.6 11.6L5.6 10.05L5.55 10L5.5 9.95L5.15 9.2L4.75 8.25Q4.45 7.7 4.3 6.85Q4.1 6.05 4.65 6.05L4.95 6.15L5.85 6.6L6 6.65L6.15 6.75L6.2 6.75L7.1 7.3L7.2 7.4L9.4 8.75Q11.15 9.85 12.35 11.2L14.1 13.6L14.2 13.7L14.35 14L13.85 14.45M19.75,5.7L20.05 4.55L20.25 3.85L20.65 2.95L20.8 2.7Q21.35 1.8 21.65 2L22.35 2.5L23.2 3.75L23.85 4.85Q23.95 5.1 24.3 4.6L25.45 3Q26.35 1.8 27 1.25Q27.6 0.65 28.1 0.35Q28.55 0 28.65 0.45Q28.95 1.15 28.1 6.05Q27.45 9.8 25.45 12.25L25.4 12.35L25.2 12.65L24.8 12.2L25.25 11.55L26.1 9.9L26.6 8.45L27.65 3.85L27.95 1.95L27.1 2.45L26 3.8L25.9 3.85L25.9 3.9L25.2 4.85Q24.55 5.85 24.1 7.15L23.6 8.75L23.55 9.1Q23.25 10.3 23.3 11.15L22.5 10.65L22.6 9.5L22.7 9.2L23.1 7.65L23.2 7.3L23.45 6.65L23.3 6.25L23.25 6.05L22.9 5.05Q22.35 3.75 21.6 2.95L21.45 3.3L21.35 3.45L20.95 4.5L20.7 5.3L20.45 6.3L20.45 6.6Q20.35 7.55 20.4 8.6L20.45 9.35L19.6 8.85Q19.4 7.65 19.7 5.95L19.75 5.7M8.75,31.6L8.4 31.9L8.35 31.9L8.05 31.75L7.9 31.55L7.85 31.45Q7.65 31.1 7.6 30.75L7.6 30.7Q7.45 30.4 7.65 30.1L7.5 30.15L6.8 30.6L6.6 30.85L6.35 31L6.35 30.95L5.95 30.5L5.7 30.1L5.65 30.05Q5.25 29.45 5.55 28.7L5.95 27.95L6.45 27.45L6.5 27.45L6.55 27.4L6.8 27.85L6.3 28.5Q6.05 29 6.05 29.45L6.2 30.05L6.35 30.25L6.35 30.15L7.2 29.55L7.45 29.5L7.75 29.55L7.95 29.55L8 29.6L8.2 29.7L8.25 29.75L8.25 30.05L8.2 30.25Q8.1 30.55 8.25 30.85L8.35 31L8.45 31.1Q9.25 30.35 9.7 30.3L9.95 30.35L10 30.4Q10.35 30.45 10.6 30.65L10.7 30.7L11.2 31.1L11.6 31.6L11.65 31.7L11.85 31.7L11.9 31.7L11.95 31.65L12.3 31.5L12.45 31.45L13.1 30.85L13.3 30.6L13.45 30.35L13.8 29.65L14.15 29.6L14.55 29.6L14.05 30.55L14 30.65L13.3 31.55L12.85 31.95L12.4 32.25L12.3 32.3L11.65 32.45L11.45 32.5L11.35 32.5Q11.15 32.45 11.05 32L10.8 31.65L10.4 31.25L10.2 31.15L9.9 31L9.8 31L9.25 31.15L8.95 31.45L8.75 31.6" />
<path style="fill:#6AA643;fill-opacity:1" d="M26.9,2.75Q27.05 3.15 26.7 3.7L26.95 3.5L26.4 7.9L26.1 9.9L25.25 11.55Q25.1 10.75 25.25 9.9Q25.3 9.05 25.5 8.65L24.85 9.4Q24.75 8.6 25.05 7.1Q25.3 5.65 25.9 3.9L25.9 3.85L26 3.8L26.9 2.75M22.05,4.8L22.05 4.4L22.1 4.35L22.35 4.65L23 6.55L22.8 6.95L22.8 7L22.35 8.2Q21.95 9.35 21.95 10.3L21.8 10.2L21.45 8.7L21.4 8.75L21.35 8.9L21.1 9.75L21 9.7L20.5 6.75L20.5 6.6L20.45 6.3L20.7 5.3L20.95 4.5L21.35 3.45L22.05 4.8M13.35,13.5Q12.55 13.35 11.85 12.9Q11.05 12.5 10.75 12.15L11.25 13Q10.45 12.85 9.2 12L7.9 11.1L6.6 9.95L6.55 9.9L5.9 8.55L6.55 8.95L6.7 9.15L6.65 8.9L6.6 8.85L6.7 8.9L8 9.6L10.25 10.95L10.45 11.05L12.15 12.05L13.35 13.5M4.35,13.95L5.95 13.85L5.5 13.7L5.5 13.6L5.9 13.5L7.9 13.7L8.15 14Q9.2 15.15 10.2 15.75L11.7 16.3L10.2 16.15L9.25 15.9L9.25 16L10.3 16.75L10.25 16.75L6.95 16L6.85 15.95L6.7 15.9L4.35 13.95M9.75,30.15Q9.8 30.05 9.9 30.05L9.75 29.95L10.25 30.1L10.8 30.15L11.2 30.2L11.65 30.2L12 30.1L12.1 30.45L12.1 31.1L11.95 31.65L11.9 31.7L11.85 31.7L11.65 31.7L11.6 31.6L11.2 31.1L10.7 30.7L10.6 30.65Q10.35 30.45 10 30.4L9.95 30.35L9.7 30.3L9.75 30.15M7.95,29.05L8.45 29.4L8.2 29.7L8 29.6L7.95 29.55L7.75 29.55L7.95 29.05M7.85,29Q7.2 28.9 6.5 29.65Q6.65 28.9 6.95 28.25L7 28.1L7.85 29M9.2,29.95Q8.75 30 8.4 30.55L8.45 30.45L8.55 29.9L8.7 29.55L9.7 29.95L9.2 29.95" />
<path style="fill:#A7DE84;fill-opacity:1" d="M26.1,9.9L26.4 7.9L26.95 3.5L26.7 3.7Q27.05 3.15 26.9 2.75L26 3.8L27.1 2.45L27.95 1.95L27.65 3.85L26.6 8.45L26.1 9.9M23,6.55L22.35 4.65L22.1 4.35L22.05 4.4L22.05 4.8L21.35 3.45L21.45 3.3L21.6 2.95Q22.35 3.75 22.9 5.05L23.25 6.05L23 6.55M6.5,9.9L6.4 9.75L6 9L5.65 8.25L5.45 7.6L5.55 7.3L7.2 8.3L8.5 9.2L11.05 11.1L11.15 11.2L12.15 12.05L10.45 11.05L10.25 10.95L8 9.6L6.7 8.9L6.6 8.85L6.65 8.9L6.7 9.15L6.55 8.95L5.9 8.55L6.55 9.9L6.5 9.9M4,13.55L7.55 13.2L7.9 13.7L5.9 13.5L5.5 13.6L5.5 13.7L5.95 13.85L4.35 13.95L4 13.55M8.45,29.4L8.7 29.55L8.55 29.9L8.45 30.45L8.4 30.55L8.25 30.85Q8.1 30.55 8.2 30.25L8.25 30.05L8.25 29.75L8.2 29.7L8.45 29.4M6.2,30.05L6.05 29.45Q6.05 29 6.3 28.5L6.8 27.85L7 28.1L6.95 28.25Q6.65 28.9 6.5 29.65L6.2 30.05" />
<path style="fill:#282C37;fill-opacity:1" d="M1.55,23.35L1.5 23.45L0.95 22.8L0.7 22.3L0.55 21.75L0.45 21.3Q0.35 20.65 0.55 19.55Q0.7 18.4 1.55 17.35L1.8 17.05Q2.5 16.15 3.35 15.65L2.35 15.5Q1.95 15.5 1.5 15.8L1.4 15.75Q0.7 14.75 1.1 13.3Q1.35 12.05 2.45 10.95L4.4 9.5L5.15 9.2L5.5 9.95L5.1 10.05L3.2 11.25Q2.3 12.05 1.9 13Q1.5 13.95 1.7 14.75L2.75 14.65L3.25 14.75L3.7 14.95Q4.7 15.5 4.55 15.7L3.3 16.75L3.2 16.85Q2.35 17.55 1.75 18.8L1.6 19.15Q1.05 20.4 1.25 21.4L1.4 21.9L1.6 21.6L2.6 20.4L3.1 20.05L3.7 19.75L4.5 19.5L5.05 19.4L5.45 19.4L6.05 19.5L6.35 19.6L6.8 19.8L7.2 20L7.1 19.95L6.8 20.05L6.45 20.55L6.35 20.5L5.7 20.35L5.35 20.35L4.75 20.4Q3.7 20.5 3.1 21.1L2.55 21.65L2.55 21.7L2 22.5L1.85 22.8L1.55 23.35M4.95,6.15Q5.35 4.9 6.7 4.1Q8.6 2.9 10.3 2.85L12.75 3.1L13.1 3.25L14.7 3.95L14.85 3.75L14.7 2.7L14.6 2.45L14.1 1.05L13.75 0.3L15.75 0.25Q17.65 0.65 19.95 2.1L20.8 2.7L20.65 2.95L20.25 3.85L20.2 3.8Q18.15 2 15.2 1.05L15.4 1.5L15.7 2.4Q16.2 4.35 15.3 5.6L15.2 5.5L12.6 4.3L11.2 3.95L9.55 4.05Q8 4.3 7.1 4.95Q6.2 5.55 5.85 6.6L4.95 6.15M6.2,6.75L7 7.2L7.1 7.3L6.2 6.75" />
<path style="fill:#388328;fill-opacity:1" d="M24.45,11.9L24.05 11.65L23.3 11.15Q23.25 10.3 23.55 9.1L23.6 8.75L24.1 7.15Q24.55 5.85 25.2 4.85L25.9 3.9Q25.3 5.65 25.05 7.1Q24.75 8.6 24.85 9.4L25.5 8.65Q25.3 9.05 25.25 9.9Q25.1 10.75 25.25 11.55L24.8 12.2L24.45 11.9M20.45,9.35L20.4 8.6Q20.35 7.55 20.45 6.6L20.45 6.3L20.5 6.6L20.5 6.75L21 9.7L20.45 9.35M21.1,9.75L21.35 8.9L21.4 8.75L21.45 8.7L21.8 10.2L21.25 9.85L21.1 9.75M23.25,6.05L23.3 6.25L23.45 6.65L23.2 7.3L23.1 7.65L22.7 9.2L22.6 9.5L22.5 10.65L21.95 10.3Q21.95 9.35 22.35 8.2L22.8 7L22.8 6.95L23 6.55L23.25 6.05M13.85,14.45L13.15 15.25L13.05 15.35L13 15.35Q11.9 15.25 10.15 13.95Q8.45 12.7 7.4 11.25L7.15 10.9L6.6 9.95L7.9 11.1L9.2 12Q10.45 12.85 11.25 13L10.75 12.15Q11.05 12.5 11.85 12.9Q12.55 13.35 13.35 13.5L13.85 14.45M11.45,17.4Q10.1 17.4 8.75 16.85L6.8 15.95L6.7 15.9L6.85 15.95L6.95 16L10.25 16.75L10.3 16.75L9.25 16L9.25 15.9L10.2 16.15L11.7 16.3L10.2 15.75Q9.2 15.15 8.15 14L7.9 13.7L7.55 13.2L7.7 13.25L7.75 13.25L8.15 13.3L8.45 13.55L8.65 13.7L9.95 14.8L10.5 15.2Q11.5 15.8 12.55 16L11.45 17.4M13.45,30.35L13.3 30.6L13.1 30.85L12.45 31.45L12.3 31.5L11.95 31.65L12.1 31.1L12.1 30.45L12 30.1L11.65 30.2L11.2 30.2L10.8 30.15L11.25 30.05L13.8 29.65L13.45 30.35M8.4,30.55Q8.75 30 9.2 29.95L9.7 29.95L9.75 29.95L9.9 30.05Q9.8 30.05 9.75 30.15L9.7 30.3Q9.25 30.35 8.45 31.1L8.35 31L8.25 30.85L8.4 30.55M7.75,29.55L7.45 29.5L7.2 29.55L6.35 30.15L6.35 30.25L6.2 30.05L6.5 29.65Q7.2 28.9 7.85 29L7.95 29.05L7.75 29.55" />
<path style="fill:#625643;fill-opacity:1" d="M25.2,12.65L25.2 12.7Q25.6 13.25 25.5 15.8L24.95 21.6Q25.2 22.5 25.75 23.6Q26.25 24.7 26.1 25.55Q25.95 26.4 25.4 27.1L24.4 28.05L23.3 29.25L23.2 31L22.35 31.2L22.25 31.3Q22.45 29.1 22.75 28.55L25.15 25.85Q25.45 25.05 24.85 23.8Q24.2 22.6 24.3 21.4L24.5 15.15L24.5 14.4L24.4 13.85L24.35 13.6L24.05 13L23.6 12.5L23.15 12.1L23.05 12.05L22.7 11.85L20.8 10.75L19.9 10.3L18.45 9.5L18.1 9.3L18.05 10Q17.85 12.7 19.15 15.15L19.3 15.45L19.8 16.75L19.85 17.45L19.85 17.65L19.8 17.65L19.8 17.6L19.75 17.55L19.7 17.5L19.65 17.45L18.55 15.9L17.6 13.7L17.5 13.7L16.55 13.8L16.45 13.8L16.05 13.95L15.3 14.25L14.75 14.7L14.45 14.95L14.4 14.95L14.55 14.45L14.75 13.7L14.8 13.55L15.3 13.2Q15.8 12.85 16.25 12.75L17.25 12.6L17.1 11.8Q16.9 10.55 17.2 9.25Q17.4 8 18.3 8.25L19.6 8.85L20.45 9.35L21 9.7L21.1 9.75L21.25 9.85L21.8 10.2L21.95 10.3L22.5 10.65L23.3 11.15L24.05 11.65L24.45 11.9L24.8 12.2L25.2 12.65M16.55,20.65Q17.25 20.9 16.85 21.1L16.65 21.1L16.55 20.65M18.75,27.2L19 26.6L19.05 26.6L19.15 27.2L18.75 27.2M22.4,35.1L22.05 35L22.25 31.65L22.25 31.4L22.85 32.15L23 32.3L23.1 32.4L22.95 34.65L22.9 35.25L22.4 35.1" />
<path style="fill:#D0C4AA;fill-opacity:1" d="M19.65,17.45L19.7 17.5L19.75 17.55L19.8 17.6L19.3 19.45L19.25 19.8L18.65 19.2Q18.25 18.85 18 19.2L17.8 19.6L16.8 18.1L16.85 18.1L16.9 18.2L17.15 18.3L17.6 18.4L17.75 18.15L17.75 18.1Q18.6 17.8 17.9 17.2L17.4 17.25L17.1 17L16.9 17.35Q16.55 17.4 16.45 17.55L15.95 16.45L16.15 16.3Q16.3 16.2 16.05 16.1L16 16.05L15.85 16L15.8 16.1L15.75 15.95L15.6 15.5L15.4 15L15.35 14.8L15.3 14.25L16.05 13.95L16.45 13.8L16.55 13.8L16.9 14.75L17.15 14.55L17.5 14.75Q17.65 15 17.4 15.05L17.2 15.05L17.2 15.15L18.3 16.2L19.65 17.45M20.9,35.2L20.9 35.3Q20.95 35.65 20.7 35.65L19.95 35.55L19.7 35.35Q19.75 35.15 20.4 34.9L20.3 34.15L20.45 34.15Q21 34.1 20.7 33.65L20.4 33.45L20.2 33.6L20 31.85L19.95 31.2L19.65 29.35L19.35 28.35L19.3 28.05L19.15 27.2L19.05 26.6L19 26.6L18.75 27.2L18.65 27.2L18.05 28.95L17.7 29.75L17.6 29.95L17.2 29.5L17.05 29.25L17 29.1L17.25 28.75L17.8 27.85L17.3 28.05L17.7 26.8L18 25.3L17.75 24.95L17.3 24.5L17.2 23.9L16.9 23.6L16.75 23.5L15.95 23.15L15.75 23.05L15.55 22.95L14.8 22.9L14.55 22.95L14.5 22.55Q14.5 21.8 15.1 21.8L15.2 21.8L16.65 21.4L16.4 21.15L16.65 21.1L16.85 21.1Q17.25 20.9 16.55 20.65L16 19.95L15.4 19.65Q14.3 19.35 13.95 18.8L13.45 18.8L13.35 18.7L13.45 18.6Q13.65 18.5 13.45 18.4L13.75 17.9L13.8 17.75L14.05 17.25L14.35 17.7L16.25 19.6L17.7 20.55L17.65 21.2L17.65 21.65L17.7 22.55L17.75 22.75Q17.8 23.25 18 23.6L18 23.65Q18 24.45 19.2 25.15L19.6 25.35L20.05 27.2L20.3 28Q19.9 28.5 20.45 28.45L20.5 28.45L20.55 28.45L20.85 28.35L21 28L20.95 27.85Q20.85 27.65 20.6 27.65L20.7 25.75L20.85 25.8L21.35 25.85L21.95 25.85L22.45 25.75Q22.9 25.65 23.15 25.25Q24 25.05 23.85 24.8L21.95 22.3L20.9 21.3L20.9 20.9L20.85 20.05L20.85 19.8L20.3 16.6L20.3 16.5L20.35 16.6L20.5 16.8L20.35 16.55L20.35 15.8L19.75 14.45L19.25 13.4L19.9 13.3Q20.1 13.25 19.95 13L19.4 12.7L19.05 13L18.95 12.65Q18.5 11.5 18.45 10.2L18.65 10.3L19.75 11.05L20.3 11.4L21.35 12.05L21.5 12.15L21.45 12.2Q20.9 12.9 21.65 12.5L21.8 12.4L22.05 12.6L23.05 13.5L23.5 14L23.5 14.05L23.6 14.15L23.65 14.35L23.75 14.95L23.75 15.95L23.65 18.75Q22.7 19.35 23.55 19.3Q23 21.3 23 21.75L23.75 23.3L24.45 25.05Q24.45 26 22.95 27.1L22.15 28Q21.45 28.6 21.9 28.45Q21.75 28.95 21.85 29.4L21.65 31.4L21.2 35.15L20.9 35.2M22.15,15.15Q21.15 15.9 22.45 15.6Q22.7 15.55 22.5 15.3L22.15 15.15M21.75,19.5L21.45 19.4L21.35 19.5L21.1 19.8Q20.85 20.2 21.7 19.9Q22 19.8 21.75 19.5M22.45,18.9Q21.35 19.65 22.7 19.35Q23 19.3 22.75 19.05L22.45 18.9M13.55,17.8Q12.35 18.4 13.3 17.45L13.5 17.55Q13.8 17.7 13.55 17.8M12.85,18.9Q11.65 19.25 12.55 18.3Q12.85 18.3 12.95 18.6L12.85 18.9M17.3,28.05L17.2 28.15L17.2 28.1L17.3 28.05M17.2,30.2Q15.95 30.55 16.95 29.7L17.2 29.8Q17.5 30.1 17.2 30.2" />
<path style="fill:#F7F7F3;fill-opacity:1" d="M18.45,9.5L19.9 10.3L20.8 10.75L22.7 11.85L23.05 12.05L23.15 12.1L23.6 12.5L24.05 13L24.35 13.6L24.4 13.85L24.5 14.4L24.5 15.15L24.3 21.4Q24.2 22.6 24.85 23.8Q25.45 25.05 25.15 25.85L22.75 28.55Q22.45 29.1 22.25 31.3L22.25 31.4L22.25 31.65L22.05 35L22 35L21.2 35.15L21.65 31.4L21.85 29.4Q21.75 28.95 21.9 28.45Q21.45 28.6 22.15 28L22.95 27.1Q24.45 26 24.45 25.05L23.75 23.3L23 21.75Q23 21.3 23.55 19.3Q22.7 19.35 23.65 18.75L23.75 15.95L23.75 14.95L23.65 14.35L23.6 14.15L23.5 14.05L23.5 14L23.05 13.5L22.05 12.6L21.8 12.4L21.65 12.5Q20.9 12.9 21.45 12.2L21.5 12.15L21.35 12.05L20.3 11.4L19.75 11.05L18.65 10.3L18.45 10.2L18.45 9.8L18.45 9.5M23.15,25.25Q22.9 25.65 22.45 25.75L21.95 25.85L21.35 25.85L20.85 25.8L20.7 25.75L20.7 25.25L21.1 25.3L22.1 25.4L22.75 25.35L23.15 25.25M19.6,25.35L19.2 25.15Q18 24.45 18 23.65L18 23.6L18.1 23.7Q18.5 24.3 19.45 24.75L19.6 25.35M18.7,28.55L18.7 28.65L18.8 29.55L18.35 30L17.9 30L17.65 29.95L17.6 29.95L17.7 29.75L18.05 28.95L18.65 27.2L18.75 27.2Q18.6 27.8 18.7 28.55M22.75,19.05Q23 19.3 22.7 19.35Q21.35 19.65 22.45 18.9L22.75 19.05" />
<path style="fill:#BFA172;fill-opacity:1" d="M18.3,16.2L17.2 15.15L17.2 15.05L17.4 15.05Q17.65 15 17.5 14.75L17.15 14.55L16.9 14.75L16.55 13.8L17.5 13.7L17.6 13.7L18.55 15.9L19.65 17.45L18.3 16.2M19.85,17.45L19.8 16.75L19.3 15.45L19.15 15.15Q17.85 12.7 18.05 10L18.1 9.3L18.45 9.5L18.45 9.8L18.45 10.2Q18.5 11.5 18.95 12.65L19.05 13L19.4 12.7L19.95 13Q20.1 13.25 19.9 13.3L19.25 13.4L19.75 14.45L20.35 15.8L20.35 16.55L20.5 16.8L20.35 16.6L20.3 16.5L20.3 16.6L19.85 17.45M20.55,28.35L20.6 27.65Q20.85 27.65 20.95 27.85L21 28L20.85 28.35L20.55 28.45L20.55 28.35M20.45,28.45Q19.9 28.5 20.3 28L20.45 28.45M13.45,16.05L13.85 16.9L14.05 17.25L13.8 17.75L13.75 17.9L13.45 18.4Q13.65 18.5 13.45 18.6L13.35 18.7L13.45 18.8L13.95 18.8Q14.3 19.35 15.4 19.65L16 19.95L16.55 20.65L15.75 20.45L14.85 20.25Q12.2 19.7 11.5 19L11.95 18.15L12.5 17.3L13.35 16.2L13.45 16.05M18.8,29.55L18.85 30.15L18.85 30.6L18.6 30.65L18 30.75L17.65 30.75L17.15 30.75L16.05 30.55L15.9 30.5L15.95 30.4Q16 29.8 16.2 29.25Q16.55 27.9 17.15 26.9L17.2 26.8Q17.9 25.65 17 24.8L16.9 24.7L16.5 24.45L16.05 24.2L14.85 23.7L14.55 23.65L13.75 23.6L13.5 22.95L13.4 22.25L13.45 21.25L13.45 20.9L15.45 21.1L16.4 21.15L16.65 21.4L15.2 21.8L15.1 21.8Q14.5 21.8 14.5 22.55L14.55 22.95L14.8 22.9L15.55 22.95L15.75 23.05L15.95 23.15L16.75 23.5L16.9 23.6L17.2 23.9L17.3 24.5L17.75 24.95L18 25.3L17.7 26.8L17.3 28.05L17.8 27.85L17.25 28.75L17 29.1L17.05 29.25L17.2 29.5L17.6 29.95L17.65 29.95L17.9 30L18.35 30L18.8 29.55M22,36.15L21.9 36.2L20.65 36.25L20 36.2L19.8 36.2L19 35.95L19.05 35.7L19.15 35.15L19.5 31.05L19.45 29.55L19.35 28.35L19.65 29.35L19.95 31.2L20 31.85L20.2 33.6L20.4 33.45L20.7 33.65Q21 34.1 20.45 34.15L20.3 34.15L20.4 34.9Q19.75 35.15 19.7 35.35L19.95 35.55L20.7 35.65Q20.95 35.65 20.9 35.3L20.9 35.2L21.2 35.15L22 35L22.05 35L22 36.15M22.5,15.3Q22.7 15.55 22.45 15.6Q21.15 15.9 22.15 15.15L22.5 15.3M21.7,19.9Q20.85 20.2 21.1 19.8L21.35 19.5L21.45 19.4L21.75 19.5Q22 19.8 21.7 19.9M15.9,16.35L15.8 16.1L15.85 16L16 16.05L16.05 16.1Q16.3 16.2 16.15 16.3L15.95 16.45L15.9 16.35M16.45,17.55Q16.55 17.4 16.9 17.35L17.1 17L17.4 17.25L17.9 17.2Q18.6 17.8 17.75 18.1L17.75 18.15L17.6 18.4L17.15 18.3L16.9 18.2L16.85 18.1L16.8 18.1L16.45 17.55M13.5,17.55L13.3 17.45Q12.35 18.4 13.55 17.8Q13.8 17.7 13.5 17.55M12.95,18.6Q12.85 18.3 12.55 18.3Q11.65 19.25 12.85 18.9L12.95 18.6M17.2,28.1L17.2 28.15L17.3 28.05L17.2 28.1M17.2,29.8L16.95 29.7Q15.95 30.55 17.2 30.2Q17.5 30.1 17.2 29.8" />
<path style="fill:#2F7231;fill-opacity:1" d="M17.7,20.55L16.25 19.6L14.35 17.7L14.05 17.25L13.85 16.9L13.45 16.05L13.5 16L14 15.4L14.2 15.2L14.4 14.95L14.45 14.95L14.75 14.7L15.3 14.25L15.35 14.8L15.4 15L15.6 15.5L15.75 15.95L15.8 16.1L15.9 16.35L15.95 16.45L16.45 17.55L16.8 18.1L17.8 19.6L17.7 20.55M20.3,16.6L20.85 19.8L20.85 20.05L20.9 20.9L20.9 21.3L20.15 20.65L19.25 19.8L19.3 19.45L19.8 17.6L19.8 17.65L19.85 17.65L19.85 17.45L20.3 16.6M20.3,28L20.05 27.2L19.6 25.35Q20.1 25.65 20.7 25.75L20.6 27.65L20.55 28.35L20.55 28.45L20.5 28.45L20.45 28.45L20.3 28" />
<path style="fill:#3F3629;fill-opacity:1" d="M22.75,25.35L22.1 25.4L21.1 25.3L20.7 25.25L20 25L19.45 24.75Q18.5 24.3 18.1 23.7L18 23.6Q17.8 23.25 17.75 22.75L17.7 22.55L17.65 21.65L17.65 21.2L17.7 20.55L17.8 19.6L18 19.2Q18.25 18.85 18.65 19.2L19.25 19.8L20.15 20.65L20.9 21.3L21.95 22.3L23.85 24.8Q24 25.05 23.15 25.25L22.75 25.35" />
<path style="fill:#969BA1;fill-opacity:1" d="M20.05,4.55L18.5 3.2Q17.1 2.2 15.4 1.5L15.2 1.05Q18.15 2 20.2 3.8L20.25 3.85L20.05 4.55M6,6.65L5.85 6.6Q6.2 5.55 7.1 4.95Q8 4.3 9.55 4.05L11.2 3.95L12.6 4.3L15.2 5.5L14.7 6.45Q13.35 5.3 11.45 5L9.85 4.9Q7.85 5.1 6.15 6.75L6 6.65M3.8,14.6L3.25 14.75L2.75 14.65L1.7 14.75Q1.5 13.95 1.9 13Q2.3 12.05 3.2 11.25L5.1 10.05L5.5 9.95L5.55 10L5.6 10.05L4.85 10.6L3.8 11.65L2.5 13.55L2.5 13.75L3.1 13.95L3.35 14L3.8 14.6M2.6,20.4L1.6 21.6L1.4 21.9L1.25 21.4Q1.05 20.4 1.6 19.15L1.75 18.8Q2.35 17.55 3.2 16.85L2.15 19.7L2.05 20L2.2 19.8L2.5 19.5Q3 19.1 3.45 19L3.1 20.05L2.6 20.4" />
<path style="fill:#61666C;fill-opacity:1" d="M19.75,5.7Q18.8 4.6 17.4 3.85Q18.45 6.35 16.35 8.45Q12.55 4.9 9.9 6.85Q10.15 6.7 11.4 8.25Q12.4 9.55 12.35 11.2Q11.15 9.85 9.4 8.75L7.2 7.4L7.1 7.3L7 7.2L6.2 6.75L6.15 6.75Q7.85 5.1 9.85 4.9L11.45 5Q13.35 5.3 14.7 6.45L15.2 5.5L15.3 5.6Q16.2 4.35 15.7 2.4L15.4 1.5Q17.1 2.2 18.5 3.2L20.05 4.55L19.75 5.7M6.6,11.6L5.2 12.4L5.4 12.45L5.2 12.5Q3.9 12.8 3.2 13.4Q3.05 13.55 3.35 14L3.1 13.95L2.5 13.75L2.5 13.55L3.8 11.65L4.85 10.6L5.6 10.05L6.6 11.6M4.25,17.85L4.55 17.85Q5.6 17.85 6.4 18.5L6.95 19.1L7.35 20.05L7.2 20L6.8 19.8L6.35 19.6L6.05 19.5L5.45 19.4L5.05 19.4L4.5 19.5L3.7 19.75L3.1 20.05L3.45 19Q3 19.1 2.5 19.5L2.2 19.8L2.05 20L2.15 19.7L3.2 16.85L3.3 16.75L4.55 15.7Q4.7 15.5 3.7 14.95L3.25 14.75L3.8 14.6Q4.55 15.55 5.85 16.4Q4.95 16.9 4.25 17.85M6.55,27.4L6.5 27.45L6.45 27.45L5.95 27.95L5.55 28.7L5.3 29.1L5.2 28.75L5.05 27.9L5.1 26.7L5.1 26.5L5.15 26.15L5.25 25.85L5.4 25.25L5.95 24L6.1 23.7L6.3 23.55L6.4 23.45L6.35 23.8L6.2 24.9L6.05 26L5.9 26.7L5.9 27.6L6 27.2L6.15 26.95L6.2 26.75L6.25 26.7L6.55 27.4" />
<path style="fill:#2D343C;fill-opacity:1" d="M14.35,14L14.2 13.7L14.1 13.6L12.35 11.2Q12.4 9.55 11.4 8.25Q10.15 6.7 9.9 6.85Q12.55 4.9 16.35 8.45Q18.45 6.35 17.4 3.85Q18.8 4.6 19.75 5.7L19.7 5.95Q19.4 7.65 19.6 8.85L18.3 8.25Q17.4 8 17.2 9.25Q16.9 10.55 17.1 11.8L17.25 12.6L16.25 12.75Q15.8 12.85 15.3 13.2L14.8 13.55L14.35 14M7.05,12.25L5.4 12.45L5.2 12.4L6.6 11.6L7.05 12.25M10.65,18.6Q10.25 19.6 11.2 20.05L11.85 20.35L10.4 20.35L10.1 20.3L9.95 20.3L7.9 20.15L7.35 20.05L6.95 19.1L6.4 18.5Q5.6 17.85 4.55 17.85L4.25 17.85Q4.95 16.9 5.85 16.4Q7.1 17.25 8.85 17.7L10.95 18.1L10.65 18.6M7.55,22.65L7.9 22.7Q7.65 22.75 7.55 22.9Q7.25 23.3 7.2 23.8L7.3 24.55Q6.75 24.55 6.35 25.2L6.1 26L6.15 26.45L6.25 26.7L6.2 26.75L6.15 26.95L6 27.2L5.9 27.6L5.9 26.7L6.05 26L6.2 24.9L6.35 23.8L6.4 23.45L6.3 23.55L6.1 23.7L6.25 23.45L6.3 23.35L6.5 23.05L6.85 22.5L7.55 22.65M12.95,24.2L10.8 22.9L11.6 22.95L12.6 22.95Q12.7 23.8 12.95 24.2M13.45,24.4L13.95 24.45L13.7 24.75L13.5 24.6L13.25 24.4L13.45 24.4" />
<path style="fill:#626262;fill-opacity:1" d="M4.5,5.45L4.25 5.3L4.3 5.3L4.45 5.4L4.5 5.4L4.5 5.45" />
<path style="fill:#F7EAEA;fill-opacity:1" d="M6.55,9.9L6.6 9.95L6.55 9.95L6.55 9.9" />
<path style="fill:#4D3212;fill-opacity:1" d="M27.55,36.95L19.25 40.2L18.7 40.4L18.35 40.55L18.15 40.6L17.9 40.7L17.8 40.75L17.75 40.3L17.7 39.95L17.95 39.85L18.4 39.65L18.95 39.45L20.8 38.7L27 36.25L27.55 36.95M9.35,44.1L8.6 44.4L7.7 44.7L4.9 45.65Q3.6 45.55 3.4 44.85Q3.25 44.25 3.85 43.3L8.7 41.4L8.95 41.3L9.35 41.15L9.4 41.15L10.45 40.7L10.75 40.6L11.45 41.3L11.1 41.4L9.9 41.9L9.4 42.1L8.85 42.35L4.85 43.75Q4.4 44.2 4.5 44.45Q4.5 44.7 5.35 44.75L8 43.7L8.8 43.4L9.6 43.05L11 42.55L11.75 42.25L12 42.15L12.15 42.35L12.7 42.8L12.1 43.05L11.8 43.15L10.7 43.6L9.35 44.1M3.6,28.1L3.3 27.6L2.35 26.25L0.95 24.15L0.05 22.6Q-0.1 22.2 0.4 21.8L0.55 21.75L0.7 22.3L0.6 22.5L0.8 22.95L1.85 24.6L3.75 27.45L3.9 27.7L3.6 28.1M5.9,22.25L5.55 22.8L5.15 21.65L4.75 20.4L5.35 20.35L5.9 22.25M6.4,20.6L6.35 20.5L6.45 20.55L6.4 20.6M2.7,21.6Q3.25 21.35 3.65 21.8L4 22.3L4.55 23.5L4.85 24.15L4.75 24.4L4.65 24.7L3.4 22.5L3.2 22.1Q2.6 22.3 2.5 22.45Q2.35 22.6 3.95 25.2L4.4 25.9L4.3 26.6L4.1 26.3L1.85 22.8L2 22.5L2.55 21.7L2.7 21.6M19.9,37L21.9 36.2L22 36.15L22.9 35.85L26.5 34.4Q26.75 34.85 26.65 35.25L22.8 36.75L21.95 37.1L21.3 37.35L20.65 37.6L17.8 38.75L17.15 39L17 38.15L17.55 37.95L19.35 37.2L19.9 37" />
<path style="fill:#9A7226;fill-opacity:1" d="M6.1,22L5.9 22.25L5.35 20.35L5.7 20.35L6.05 21.55L6.1 22M1.85,23.85L4.15 27.5L3.9 27.7L3.75 27.45L1.85 24.6L0.8 22.95L0.6 22.5L0.7 22.3L0.95 22.8L1.5 23.45L1.55 23.35L1.85 23.85M11.7,41.7L4.5 44.45Q4.4 44.2 4.85 43.75L8.85 42.35L9.4 42.1L9.9 41.9L11.1 41.4L11.45 41.3L11.5 41.35L11.55 41.35L11.7 41.7M26.2,36.1L17.5 39.5L17.15 39.05L17.15 39L17.8 38.75L20.65 37.6L21.3 37.35L21.95 37.1L22.8 36.75L26.65 35.25L26.45 35.6L26.05 36.1L26.2 36.1" />
<path style="fill:#745416;fill-opacity:1" d="M6.4,20.6L6.35 20.65L6.25 20.9L6.05 21.5L6.05 21.55L5.7 20.35L6.35 20.5L6.4 20.6M4.15,27.5L1.85 23.85L1.55 23.35L1.85 22.8L4.1 26.3L4.3 26.6L4.25 27.4L4.15 27.5M4.4,25.65L4.4 25.7L4.4 25.9L3.95 25.2Q2.35 22.6 2.5 22.45Q2.6 22.3 3.2 22.1L3.4 22.5L4.65 24.7L4.4 25.65M12,42.15L11.75 42.25L11 42.55L9.6 43.05L8.8 43.4L8 43.7L5.35 44.75Q4.5 44.7 4.5 44.45L11.7 41.7L12 42.15M17.5,39.5L26.2 36.1L26.65 36.15L27 36.25L20.8 38.7L18.95 39.45L18.4 39.65L17.95 39.85L17.7 39.95L17.5 39.5" />
<path style="fill:#1C202A;fill-opacity:1" d="M4.55,29.05L4.4 28.55L4.25 27.4L4.3 26.6L4.4 25.9L4.4 25.7L4.4 25.65L4.65 24.7L4.75 24.4L4.85 24.15L4.9 24L5 23.8L5.55 22.8L5.9 22.25L6.1 22L6.25 22.2L6.5 22.35L6.75 22.45L6.85 22.5L6.5 23.05L6.3 23.35L6.25 23.45L6.1 23.7L5.95 24L5.4 25.25L5.25 25.85L5.15 26.15L5.1 26.5L5.1 26.7L5.05 27.9L5.2 28.75L5.3 29.1L5.55 28.7Q5.25 29.45 5.65 30.05L5.7 30.1L5.6 30.15L5.55 30.2L5.25 30.45L5.05 30.25L4.55 29.05M14.85,24.95L14.45 25.4L13.7 24.75L13.95 24.45L14.3 24.5L15.2 24.7L14.85 24.95" />
<path style="fill:#2E201B;fill-opacity:1" d="M30.75,38L30.65 39.3L30.5 40.1Q30.15 41.25 29.2 41.15L28.8 41.1L28.15 40.7L27.95 40.15L28.05 38.45L28.1 38.15L28.2 37.35L28.5 35.6L28.55 35.15L28.7 34.35L25.8 32.55L24.7 31.9L24.45 31.65L24.35 31.25L24.35 31.15L24.55 30.6L24.65 30.35L24.75 30.3Q25.15 29.8 25.9 30.15L26.1 30.15L26.7 30.35L27.1 30.6L27.2 30.6L28.6 31.2L28.7 31.25L28.75 31.2L28.75 31.05L28.85 30.3L29.1 29.65L29.25 29.4L29.6 29.2L30.75 29.2L31.4 29.4L31.7 29.8L31.8 30.2L31.9 30.9L31.8 33.05L33.55 34.9L34.6 36.45L35.15 37.35L35.15 37.45Q35.4 38.1 34.9 38.5Q33.9 39.3 33 39.1L32.7 38.6L32.35 38.1L31.8 37.25L30.9 36.1L30.75 38M6.5,34.5L6.6 34.7L6.55 34.75L6.25 35L5.4 33.95L3.9 31.35Q3.2 29.9 3.2 29.45Q3.1 29.05 3.4 28.45L3.6 28.1L3.9 27.7L4.15 27.5L4.25 27.4L4.4 28.55L4.3 28.65L4.1 28.85L3.8 29.3Q4 30.2 5.35 32.45L5.55 32.85L6.3 33.9L6.5 34.5M6.05,21.55L6.05 21.5L6.25 20.9L6.35 20.65L6.4 20.6L6.45 20.55L6.8 20.05L7.1 19.95L7.2 20L7.35 20.05L7.9 20.15L9.95 20.3L10.1 20.3L10.4 20.35L11.85 20.35L12.6 20.55L12.6 21L11.75 21L9.5 21L9.3 21L9.2 21L7.55 20.85L7.25 20.8L7.2 20.8L6.95 21L6.85 21.1L6.8 21.4L6.8 21.7L6.95 21.8L7 21.8L7.3 21.9L8.45 22.1L9.3 22.2L12.6 22.3L12.6 22.9L12.6 22.95L11.6 22.95L10.8 22.9L9.65 22.65L7.9 22.7L7.55 22.65L6.85 22.5L6.75 22.45L6.5 22.35L6.25 22.2L6.1 22L6.05 21.55M30.3,29.85Q29.95 29.9 29.7 30.1L29.65 30.25L29.6 31.15L29.6 31.25L29.55 31.65L30.95 32.55L31.1 31.5L31.1 30.7L31.15 30.55Q31.15 29.9 30.55 29.9L30.3 29.85M25.75,30.75L25.35 30.6L25.25 30.75L25.05 30.85L25.05 31.1L25.3 31.5L25.45 31.65L27.2 32.6L28.5 33.4Q31.05 34.75 32.3 36.65L32.35 36.75L32.95 37.55L33.35 38.05L33.7 38.4L34.45 37.9L34.4 37.7L34.15 36.9L33.95 36.6L33.75 36.3L33.2 35.75L33 35.4L32.05 34.35L31.9 34.25Q29.85 32.35 27.3 31.3L26 30.85L25.75 30.75M29,36.25L28.9 37L28.6 39.4L28.6 39.6Q28.5 40.2 29.1 40.2L29.25 40.15L29.65 39.9L30.1 38.3L30.15 37.65L30.2 35.55L29.2 34.75L29.1 35.4L29 36.25" />
<path style="fill:#8E6755;fill-opacity:1" d="M7,21.25L6.85 21.1L6.95 21L7.2 20.8L7.25 20.8L7.55 20.85L9.2 21L9.3 21L9.5 21L11.75 21L10.7 21.2L9.3 21.3L9.1 21.3L7.95 21.3L7.55 21.35L7.45 21.4L7 21.25M5.65,30.2L5.55 30.2L5.6 30.15L5.65 30.2M3.8,29.3L4.1 28.85L4.3 28.65L4.4 28.55L4.55 29.05L5.05 30.25L5 30.25L5.05 31.25L5.35 32.45Q4 30.2 3.8 29.3M26,30.85L27.3 31.3Q29.85 32.35 31.9 34.25L32.05 34.35L31.85 34.45L31.25 34.25L30.4 33.65L28.6 32.6L26.25 31.4L25.65 31L25.7 30.9L25.75 30.75L26 30.85" />
<path style="fill:#644638;fill-opacity:1" d="M12.55,21.75L10.05 21.7L8.95 21.65L7.7 21.5L7.45 21.4L7.55 21.35L7.95 21.3L9.1 21.3L9.3 21.3L10.7 21.2L11.75 21L12.6 21L12.55 21.75M6.45,31.3L6.15 33.25L6.3 33.9L5.55 32.85L5.35 32.45L5.05 31.25L5 30.25L5.05 30.25L5.25 30.45L5.55 30.2L5.65 30.2L5.6 30.15L5.7 30.1L5.95 30.5L6.35 30.95L6.35 31L6.6 30.85L6.45 31.3M29.6,31.15L29.65 30.25L29.7 30.1Q29.95 29.9 30.3 29.85L30.35 30L30.4 30.3L30.4 30.8L30.4 31.05L30.3 31.65Q30.35 31.35 29.6 31.25L29.6 31.15M25.45,31.65L25.3 31.5L25.05 31.1L25.05 30.85L25.25 30.75L25.35 30.6L25.75 30.75L25.7 30.9L25.65 31L26.25 31.4L28.6 32.6L30.4 33.65L31.25 34.25L31.85 34.45L32.05 34.35L33 35.4L33.2 35.75L33.75 36.3L33.55 36.6L33.4 36.65Q33.15 36.75 32.6 36.3L31.9 35.65L30.1 33.85Q29.25 33.1 27.2 32.6L25.45 31.65M29.1,35.4L29.25 35.45L29.45 35.85Q29.7 36.55 29.6 37.45L29.45 38.6L29.25 39.6L28.6 39.4L28.9 37L29 36.25L29.1 35.4" />
<path style="fill:#513727;fill-opacity:1" d="M12.6,22.3L9.3 22.2L8.45 22.1L7.3 21.9L7 21.8L6.95 21.8L6.8 21.7L6.8 21.4L6.85 21.1L7 21.25L7.45 21.4L7.7 21.5L8.95 21.65L10.05 21.7L12.55 21.75L12.6 22.3M30.55,29.9Q31.15 29.9 31.15 30.55L31.1 30.7L31.1 31.5L30.95 32.55L29.55 31.65L29.6 31.25Q30.35 31.35 30.3 31.65L30.4 31.05L30.4 30.8L30.4 30.3L30.35 30L30.3 29.85L30.55 29.9M33.95,36.6L34.15 36.9L34.4 37.7L34.45 37.9L33.7 38.4L33.35 38.05L32.95 37.55L32.35 36.75L32.3 36.65Q31.05 34.75 28.5 33.4L27.2 32.6Q29.25 33.1 30.1 33.85L31.9 35.65L32.6 36.3Q33.15 36.75 33.4 36.65L33.55 36.6L33.75 36.3L33.95 36.6M29.25,39.6L29.45 38.6L29.6 37.45Q29.7 36.55 29.45 35.85L29.25 35.45L29.1 35.4L29.2 34.75L30.2 35.55L30.15 37.65L30.1 38.3L29.65 39.9L29.25 40.15L29.1 40.2Q28.5 40.2 28.6 39.6L28.6 39.4L29.25 39.6" />
<path style="fill:#F5F3EE;fill-opacity:1" d="M31.8,30.2L31.8 30.15L32.1 29.3Q32.6 27.85 34.9 27.5L34.35 29Q34.1 30.2 35.05 31.05L35 31.6L34.9 31.75L34.65 31.05L33.7 30.6L33.5 30.05L33.6 29L33.3 29.15L33.05 29.15L32.55 29.7L32.2 30.25L31.9 30.9L31.8 30.2M35.55,31.3L36.35 30.25L37.75 29.2L40.3 30.25L40.15 30.6L38.85 30.25L37.55 30.05L37.6 30.1L36.2 30.85L35.55 31.3M8.45,23.5Q10.4 23.25 12.3 24.6L13.25 25.4L13.8 25.8L13.25 25.45Q11 24.05 9.6 24L9.15 24.15L8.4 24.25L8.25 24.4Q8.1 23.85 8.45 23.5M10.2,27.2L9.7 27.1L9 26.9L8.85 26.85L8.45 26.65L7.6 26.25L7.5 26.2Q7.15 26.2 6.95 26.45Q6.75 26.1 7 25.85Q7.2 25.35 7.7 25.45L8.1 25.85L8.75 26.4L9.75 27L9.8 27L10.2 27.2M28.75,31.05L28.75 31.2L28.6 31.2L27.2 30.6L27.1 30.6L28.15 30.35L28.85 30.3L28.75 31.05M23.35,31.9L23.2 31.6L23.2 31.55L24.35 31.25L24.45 31.65L23.35 31.9" />
<path style="fill:#B6A998;fill-opacity:1" d="M39.5,31.9L39.05 32.25L37.45 32.6L34.8 32.4L34.7 32.45L35.6 34.65L34.5 34.75L33.65 34.85L33.55 34.9L31.8 33.05L31.9 30.9L32.2 30.25L32.55 29.7L33.05 29.15L33.3 29.15L33.6 29L33.5 30.05L33.7 30.6L34.65 31.05L34.9 31.75L35 31.6Q35.05 32.2 35.35 31.6L35.55 31.3L36.2 30.85L37.6 30.1L37.55 30.05L38.85 30.25L40.15 30.6L39.7 31.55L39.5 31.9M14.05,26.05L14.95 27.25L15.2 27.85L14.9 27.95L14.85 28L14.45 28.25L12.9 28.45L12.7 28.45L12 28.35L11.55 28.25L11.15 28.15L10.75 28L10.35 27.85L10.4 27.95L10.5 28.3L9.5 28.05L9 27.85L8.3 27.5L7.8 27.25L7.25 26.9L7.2 26.85L7.05 26.75L6.95 26.45Q7.15 26.2 7.5 26.2L7.6 26.25L8.45 26.65L8.85 26.85L9 26.9L9.7 27.1L10.2 27.2L10.25 27.25L10.45 27.3L11.3 27.55L11.6 27.6L11.8 27.65L11.7 27.55L11.25 27.25L11.55 27.25L12.4 27.15L11.8 26.9L11.45 26.75L10.8 26.4L10.55 26.3L9.8 25.9L9.7 25.85L8.95 25.4L8.75 25.25L8.65 25.15L8.25 24.4L8.4 24.25L9.15 24.15L9.6 24Q11 24.05 13.25 25.45L13.8 25.8L14.05 26.05M27.5,35.75L27.35 35.65L27.2 35.55L27.3 35L27.1 34.3L26.85 33.95Q25.95 32.7 25.15 33.35L23.35 31.9L24.45 31.65L24.7 31.9L25.8 32.55L28.7 34.35L28.55 35.15L28.5 35.6L27.5 35.75M28.75,31.2L28.7 31.25L28.6 31.2L28.75 31.2M30.9,36.1L31.8 37.25L31.6 37.55L30.75 38L30.9 36.1" />
<path style="fill:#4A4131;fill-opacity:1" d="M18.75,27.2L19.15 27.2L19.3 28.05L19.35 28.35L19.45 29.55L19.5 31.05L19.15 35.15L19.05 35.7L19 35.95L19.8 36.2L20 36.2L20.65 36.25L21.9 36.2L19.9 37L19.05 36.95L18.85 36.9L18.2 36.75L18.05 36.55L18.05 36.1L18.05 35.95L18.15 35.45L18.35 34.15L18.65 31.6L17.7 31.75L16.8 31.7L16.7 31.65L15.9 31.45L15.6 31.35L15.7 31L15.75 30L15.65 29.2L15.85 29L16.1 28.2L15.95 27.25L16.65 25.6Q16.15 25.05 15.3 24.75L15.2 24.7L14.3 24.5L13.95 24.45L13.45 24.4L13.25 24.4L12.95 24.2Q12.7 23.8 12.6 22.95L12.6 22.9L12.6 22.3L12.55 21.75L12.6 21L12.6 20.55L11.85 20.35L11.2 20.05Q10.25 19.6 10.65 18.6L10.95 18.1L11.45 17.4L12.55 16L13 15.4L13.05 15.35L13.15 15.25L13.85 14.45L14.35 14L14.8 13.55L14.75 13.7L14.55 14.45L14.4 14.95L14.2 15.2L14 15.4L13.5 16L13.45 16.05L13.35 16.2L12.5 17.3L11.95 18.15L11.5 19Q12.2 19.7 14.85 20.25L15.75 20.45L16.55 20.65L16.65 21.1L16.4 21.15L15.45 21.1L13.45 20.9L13.45 21.25L13.4 22.25L13.5 22.95L13.75 23.6L14.55 23.65L14.85 23.7L16.05 24.2L16.5 24.45L16.9 24.7L17 24.8Q17.9 25.65 17.2 26.8L17.15 26.9Q16.55 27.9 16.2 29.25Q16 29.8 15.95 30.4L15.9 30.5L16.05 30.55L17.15 30.75L17.65 30.75L18 30.75L18.6 30.65L18.85 30.6L18.85 30.15L18.8 29.55L18.7 28.65L18.7 28.55Q18.6 27.8 18.75 27.2M22.05,35L22.4 35.1L22.9 35.25L22.9 35.85L22 36.15L22.05 35" />
<path style="fill:#438745;fill-opacity:1" d="M20.7,25.75Q20.1 25.65 19.6 25.35L19.45 24.75L20 25L20.7 25.25L20.7 25.75" />
<path style="fill:#C4944D;fill-opacity:1" d="M15.2,24.7L15.3 24.75Q16.15 25.05 16.65 25.6L15.95 27.25L15.9 27.15L14.45 25.4L14.85 24.95L15.2 24.7M15.7,32Q15.35 32.9 14.5 33.3L14.25 33.45L13.65 33.75L13.3 33.85L13.3 33.45L14.45 32.85L15.4 31.85L15.6 31.35L15.9 31.45L15.7 32M19.05,37.05L19.35 37.2L17.55 37.95L17.65 37.25L17.7 37.2Q17.65 36.9 17.75 36.65L18.05 36.55L18.2 36.75L18.85 36.9L19.05 36.95L19.05 37.05M12.85,34.9L13.05 34.55L13.55 34.85L13.95 34.95L13.9 35.1L13.65 35.2L13.55 35.25L13.25 35.35L12.85 34.9M14.55,37.85L14.4 38.4L14.2 38.9L14.1 39.1L13.1 40.35L13.3 40.55L13.65 41L13.75 41.1L14.05 41.35L14.95 41.75L15.35 41.75L15.35 41Q15.5 41.3 16.4 41.3L16.55 41.3L16.6 41.3L16.65 41.3L16.55 41.4L16.4 41.5L16 41.95L15.75 42.1L15.7 42.1L15.25 42.25L14.4 42.45L13.7 42.4L12.9 41.9L12.8 41.8L12.45 41.45L12.15 41L12.15 40.95L13.25 39.6L13.5 39.35L13.6 39.15L14 38.55L14.4 38L14.45 37.9L14.45 37.85L14.55 37.85M9.35,41.15L8.5 40.45L8.75 40.05L8.8 40L9 40.55L9.1 40.75L9.4 41.15L9.35 41.15M10.45,40.7L10.7 40.5L10.75 40.6L10.45 40.7M8.65,44.4L8.8 44.4Q9 45.3 9.35 45.15L9.85 45.05L9.9 45.2L10 45.4L10.5 46L10.85 46.15L11 46.05L11.05 45.65L11.35 45.05L11.45 45Q12.05 45.4 12.3 46L11.15 46.2L10.7 46.25L9.3 46.15L8.35 45.95Q8.2 45.75 8.2 45.1Q8.15 44.55 8.65 44.4M16.55,39.85L15.7 39.75L16 39.55L16.1 39.5L16.1 39.45L16.15 39.4L16.45 38.8L16.55 39.25L16.55 39.3L16.8 39.75L16.85 39.85L16.55 39.85M18.75,44.65L18.65 44.8L18.6 45.1L18.1 45.1L17.85 45L17.75 45.3Q17.75 45.65 19.25 46.05L19.5 46.15L17.85 46.05L16.75 45.8L16.55 44.8L16.6 44.45L16.95 44.15Q17.85 44.75 18.1 44.4L18.45 43.9L18.55 43.9L18.6 43.95L19.25 44.15L19.65 44.3L20.2 44.55L18.75 44.65" />
<path style="fill:#837462;fill-opacity:1" d="M33.55,34.9L33.65 34.85L34.5 34.75L35.6 34.65L34.7 32.45L34.8 32.4L37.45 32.6L39.05 32.25L39.5 31.9L39.7 31.55L39.25 32.75L37.55 33L35.85 32.7Q34.95 32.5 36.05 33.4Q35.9 34.65 37 35.3L38.3 35.95Q36.45 37.4 35.2 36.7L34.6 36.45L33.55 34.9M8.75,25.25L8.95 25.4L9.7 25.85L9.8 25.9L10.55 26.3L10.8 26.4L11.45 26.75L11.8 26.9L12.4 27.15L11.55 27.25L11.25 27.25L10.95 27.1L10.7 27L10.65 26.95L10.4 26.85L10.2 26.7L9.85 26.45L9.35 26.05L8.85 25.45L8.75 25.25M7.05,26.75L7.2 26.85L7.25 26.9L7.8 27.25L8.3 27.5L9 27.85L9.5 28.05L10.5 28.3L10.4 27.95L10.35 27.85L10.75 28L11.15 28.15L11.55 28.25L12 28.35L12.7 28.45L12.9 28.45L14.45 28.25L14.85 28L14.9 27.95L15.2 27.85L15.2 28.3L14.8 28.65L14.45 28.7L13.45 28.8L12.4 29L12.25 29.05L12.05 29.1L11.75 29.2L11.65 29.2L10.65 29.35L10.2 29.35L10.15 29.35L8.9 28.9L7.45 27.45L7.35 27.3L7.15 26.9L7.05 26.75M28.15,37.1L28.05 36.75L28 36.6L27.7 35.95L27.5 35.75L28.5 35.6L28.2 37.35L28.15 37.1M27.15,41.2Q27.05 39.9 27.3 38.6L28.1 38.15L28.05 38.45L27.95 40.15L28.15 40.7L27.15 41.2M31.6,38.65L30.65 39.3L30.75 38L31.6 37.55L31.8 37.25L32.35 38.1L31.6 38.65" />
<path style="fill:#543914;fill-opacity:1" d="M20.2,44.55L19.65 44.3L19.25 44.15L19.75 44.1L20.15 43.95L20.15 43.75L20.45 43.9L21.1 44.4L20.2 44.55M16.2,44.75L16.6 44.45L16.55 44.8L16.75 45.8L17.85 46.05L19.5 46.15L21.7 46.45L21 46.7L18.15 46.85L16.1 46.45Q15.55 46.2 15.85 44.8L16.2 44.75M12.7,42.8L12.15 42.35L12 42.15L11.7 41.7L11.55 41.35L11.65 41.3L12.15 41L12.45 41.45L12.8 41.8L12.9 41.9L13.7 42.4L14.4 42.45L15.25 42.25L15.7 42.1L15.75 42.1L16 41.95L16.4 41.5L16.55 41.4L16.65 41.3L17.75 41.05L17.45 41.65L16.4 42.6L16.4 42.65L16 42.85L15.5 43.05L14.25 43.2L12.75 42.8L12.7 42.85L12.7 42.8M8.2,45.1Q8.2 45.75 8.35 45.95L9.3 46.15L10.7 46.25L11.15 46.2L12.3 46Q12.05 45.4 11.45 45L11.8 44.55L12.05 44.75L12.7 45.65Q13 46.25 12.55 46.5L11.95 46.7L9.55 46.85L7.8 46.5Q7.25 46.25 7.65 44.85L7.7 44.7L8.6 44.4L8.65 44.4Q8.15 44.55 8.2 45.1M8.5,40.45L9.35 41.15L8.95 41.3L8.7 41.4L8.15 40.95L8.5 40.45M6.65,39.2L6.55 39.05Q6.3 38.7 6.45 38.2L6.55 37.85L6.65 39.2M15.15,29.45L15.65 29.2L15.75 30L15.7 31L15.6 31.35L15.4 31.85L14.45 32.85L13.3 33.45L13.3 33.85L13.15 34.3L13.55 34.3L14.05 34.25L15.6 33.7Q16.65 33 16.75 32.2L16.8 31.7L17.7 31.75Q17.7 32.65 17.1 33.4Q16.1 34.6 15.2 34.85L14.9 34.9L14.7 35.2L14.4 35.85L13.8 35.8L13.75 35.8L13.9 35.1L13.95 34.95L13.55 34.85L13.05 34.55L12.85 34.9L12.45 34.5L12.55 34.3L12.55 34.25L12.7 33.95L12.8 33.15L12.6 32.7L12.4 32.25L12.85 31.95L12.95 32.1L13.2 32.8L14.3 32.25Q14.9 31.85 15.1 31.1L15.2 30.55L15.2 29.95L15.15 29.45M17.75,36.25L17.8 36.15L17.75 35.95L17.75 35.8L17.7 35.8L17.95 35.6L18.15 35.45L18.05 35.95L18.05 36.1L17.75 36.25M10.8,31.65L10.35 31.8L10.1 31.9L9.5 32.35L8.85 32.95L8.65 33.15L8.7 33L8.7 32.95L9.35 31.95L10.15 31.35L10.4 31.25L10.8 31.65M14.45,37.85L14.55 37.75L14.55 37.85L14.45 37.85M18.45,43.9L18.45 43.85L18.55 43.9L18.45 43.9" />
<path style="fill:#D0A15B;fill-opacity:1" d="M14.35,30.35Q14.7 30 15 29.95L15.2 29.95L15.2 30.55L14.95 30.8L14.55 31L13.3 31.55L14 30.65L14.05 30.55L14.35 30.35M11.3,33.4L10.75 33.25L10.5 33.2L8.65 33.6L8.2 33.75L8 33.9L7.7 34Q7.9 33.05 8.35 32.3L8.95 31.45L9.25 31.15L9.8 31L9.9 31Q9.2 31.55 8.85 32.3L8.7 32.75L8.7 32.95L8.7 33L8.65 33.15L8.85 32.95L8.9 32.95L9.2 32.9L10.1 32.95L10.5 33.1Q11 33.15 11.45 32.5L11.65 32.45L12.3 32.3L12.05 32.85L11.55 33.6L11.3 33.4" />
<path style="fill:#E9CB9E;fill-opacity:1" d="M13.3,33.85L13.65 33.75L14.25 33.45L14.5 33.3Q15.35 32.9 15.7 32L15.9 31.45L16.7 31.65L16.8 31.7L16.75 32.2Q16.65 33 15.6 33.7L14.05 34.25L13.55 34.3L13.15 34.3L13.3 33.85M17.75,36.25L18.05 36.1L18.05 36.55L17.75 36.65L17.75 36.25M19.35,37.2L19.05 37.05L19.05 36.95L19.9 37L19.35 37.2M13.6,35.8L13.25 35.35L13.55 35.25L13.65 35.2L13.9 35.1L13.75 35.8L13.6 35.8M15.2,29.95L15 29.95Q14.7 30 14.35 30.35L14.05 30.55L14.55 29.6L15.15 29.45L15.2 29.95M11.45,32.5Q11 33.15 10.5 33.1L10.1 32.95L9.2 32.9L8.9 32.95L8.85 32.95L9.5 32.35L10.1 31.9L10.35 31.8L10.8 31.65L11.05 32Q11.15 32.45 11.35 32.5L11.45 32.5M7,34.4L6.8 33.75L6.8 32.1L7.35 31.1L7.6 30.7L7.6 30.75Q7.65 31.1 7.85 31.45L7.9 31.55L8.05 31.75L8.35 31.9L8.4 31.9L8.75 31.6L8.95 31.45L8.35 32.3Q7.9 33.05 7.7 34L7 34.4M16.1,39.5L16 39.55L15.7 39.75L16.55 39.85L16.65 40.35L16.65 40.65L16.65 41.2L16.65 41.25L16.6 41.3L16.55 41.3L16.4 41.3Q15.5 41.3 15.35 41L15.35 41.75L14.95 41.75L14.05 41.35L13.75 41.1L13.65 41L13.3 40.55L13.1 40.35L14.1 39.1L14.2 38.9L14.4 38.4L14.55 37.85L14.85 37.8L15.2 38L15.65 38.35L15.85 38.6Q16.2 39 16.15 39.4L16.1 39.45L16.1 39.5M19.5,46.15L19.25 46.05Q17.75 45.65 17.75 45.3L17.85 45L18.1 45.1L18.6 45.1L18.65 44.8L18.75 44.65L20.2 44.55Q21.1 45.1 21.4 45.85L20.05 46.1L19.5 46.15" />
<path style="fill:#BF914B;fill-opacity:1" d="M13.3,31.55L14.55 31L14.95 30.8L15.2 30.55L15.1 31.1Q14.9 31.85 14.3 32.25L13.2 32.8L12.95 32.1L12.85 31.95L13.3 31.55M11.65,33.7L11.55 33.6L12.05 32.85L12.3 32.3L12.4 32.25L12.6 32.7L12.8 33.15L12.7 33.95L12.55 34.25L12.55 34.3L12.45 34.5L11.65 33.7M10.2,31.15L10.4 31.25L10.15 31.35L9.35 31.95L8.7 32.95L8.7 32.75L8.85 32.3Q9.2 31.55 9.9 31L10.2 31.15" />
<path style="fill:#462B21;fill-opacity:1" d="M18.7,40.4L19.25 40.2Q19.65 41.45 19.65 42.65L19.9 43.35L20.15 43.75L20.15 43.95L19.75 44.1L18.7 43.45L18.4 43.2L18.45 43.15L19.3 43.4L19.3 43.35L18.95 41.8L18.8 40.7L18.7 40.4M13.75,35.8L13.8 35.8L14.4 35.85Q14.95 35.95 15.1 36.15L15.25 36.3L15.3 37.1L15.25 37.1L14.65 37.2L14.7 37.25L14.65 37.5L14.6 37.55L14.55 37.75L14.45 37.85L14.45 37.9L14.4 38L14 38.55L13.6 39.15L13.5 39.1L13.3 39L13.05 38.75L13.3 38.15L13.65 37.45L13.45 37.05L13.3 36.75L13.05 36.45L12.5 35.7L12.3 35.45L12.15 35.25L12 35.05Q11.4 34.25 10.85 34.1L10.75 34.1L10.6 34.05L9.45 34.3L8.55 34.65L8.35 34.7L8.15 34.3L8 33.9L8.2 33.75L8.65 33.6L10.5 33.2L10.75 33.25L11.3 33.4L11.55 33.6L11.65 33.7L12.45 34.5L12.85 34.9L13.25 35.35L13.6 35.8L13.75 35.8M14.5,37.1L14.5 36.85L14.2 36.6L14.5 37.1" />
<path style="fill:#B47F60;fill-opacity:1" d="M9.45,34.3L10.6 34.05L10.75 34.1L10.85 34.1Q11.4 34.25 12 35.05L12.15 35.25L12.3 35.45L12.5 35.7L13.05 36.45L13.3 36.75L13.45 37.05L13.65 37.45L13.3 38.15L13.2 37.75L12.8 36.95L12.65 36.8L12.5 37L12.5 37.1L12.45 37L12.2 36.45L12.15 36.35L11.8 35.85L11.65 35.75L11.65 36L11.6 36.05L11.55 36.05L11.3 35.55Q10.85 34.95 9.8 34.45L9.45 34.3M14.2,36.6L14.5 36.85L14.5 37.1L14.2 36.6M17.9,40.7L18.15 40.6L18.15 40.7L18.1 40.9L17.9 40.7M18.8,40.7L18.95 41.8L19.3 43.35L18.75 42.05L18.5 41.15L18.4 40.8L18.35 40.55L18.7 40.4L18.8 40.7" />
<path style="fill:#7F5C46;fill-opacity:1" d="M15.6,35.45L16.7 36L17.15 36.25L17.2 36.75L17.25 36.9L17.2 37L16.8 36.8L15.8 36.45L15.95 36.7Q15.65 36.45 15.25 36.3L15.1 36.15Q14.95 35.95 14.4 35.85L14.7 35.2L15.6 35.45M12.5,38.25L12.2 37.9L12 37.7L11.2 37.05L11.15 37.95Q10.9 37.85 10.6 37.25L10.4 37L10.05 36.55L10.1 37.25L9.65 36.9L9.35 36.5L9 35.95L8.55 35.1L8.35 34.7L8.55 34.65L9.45 34.3L9.8 34.45Q10.85 34.95 11.3 35.55L11.55 36.05L11.6 36.05L11.65 36L11.65 35.75L11.8 35.85L12.15 36.35L12.2 36.45L12.45 37L12.5 37.1L12.5 37L12.65 36.8L12.8 36.95L13.2 37.75L13.3 38.15L13.05 38.75L12.5 38.25M9.05,38.85L9 39Q8.55 39 8.2 39.4L7.95 38.6L7.75 37.65L7.7 37.55L9.05 38.85M18.1,40.9L18.15 40.7L18.15 40.6L18.35 40.55L18.4 40.8L18.5 41.15L18.75 42.05L19.3 43.35L19.3 43.4L18.45 43.15L18.4 43.2L18.3 43.15L17.75 42.55L17.55 43.1L17.15 42.85L16.85 42.4L16.8 42.4L16.8 42.95L16.4 42.65L16.4 42.6L17.45 41.65L17.75 41.05L17.8 40.75L17.9 40.7L18.1 40.9M11.95,43.3L11.4 44.1L11.3 44.25L11 44.75L10.7 45.3L10.65 45.25L10.25 44.7L10.7 43.6L11.8 43.15L12.1 43.05L11.95 43.3" />
<path style="fill:#301D16;fill-opacity:1" d="M15.85,44.8L15.8 44.7L15.6 43.55L15.5 43.05L16 42.85L16.3 43.9L17.6 43.85L17.65 43.9L17.75 43.8L18.15 43.4L18.4 43.2L18.7 43.45L19.75 44.1L19.25 44.15L18.6 43.95L18.55 43.9L18.45 43.85L18.45 43.9L18.1 44.4Q17.85 44.75 16.95 44.15L16.6 44.45L16.2 44.75L15.85 44.8M12.7,42.8L12.7 42.85L11.8 44.55L11.45 45L11.35 45.05L11.05 45.65L11 46.05L10.85 46.15L10.5 46L10 45.4L9.9 45.2L9.85 45.05L9.35 45.15Q9 45.3 8.8 44.4L8.65 44.4L8.6 44.4L9.35 44.1L9.4 44.25L9.4 44.6L9.95 44.6L10.2 44.65L10.25 44.65L10.25 44.7L10.65 45.25L10.7 45.3L11 44.75L11.3 44.25L11.4 44.1L11.95 43.3L12.1 43.05L12.7 42.8M8.15,40.95L7.95 41.2L7.85 41.35L7.35 41.4L6.8 40.25L6.65 39.2L6.55 37.85L6.6 36.5L6.05 35.8L5.95 35.6L5.95 35.55L6.25 35L6.55 34.75L6.6 34.7L7 34.4L7.7 34L8 33.9L8.15 34.3L8.35 34.7L7.75 35L7.6 35.1L7.2 35.55L7.2 35.85L7.55 36.25L7.75 36.4L9.35 37.95L9.8 38.35L10.2 38.7L11 39.55L11.75 40.05L11.9 39.95L12.6 39.3L12.65 39.25L13.05 38.75L13.3 39L13.5 39.1L13.6 39.15L13.5 39.35L13.25 39.6L12.15 40.95L12.15 41L11.65 41.3L11.55 41.35L11.5 41.35L11.45 41.3L10.75 40.6L10.7 40.5L10.45 40.7L9.4 41.15L9.1 40.75L9 40.55L8.8 40L8.75 40.05L8.5 40.45L8.15 40.95M16.95,38L17.1 37.6L17.2 37.2L17.2 37L17.25 36.9L17.2 36.75L17.15 36.25L16.7 36L15.6 35.45L14.7 35.2L14.9 34.9L15.2 34.85Q16.4 35.2 17.6 35.8L17.7 35.8L17.75 35.8L17.75 35.95L17.8 36.15L17.75 36.25L17.75 36.65Q17.65 36.9 17.7 37.2L17.65 37.25L17.55 37.95L17 38.15L16.95 38M9.15,39L9.05 38.85L7.7 37.55L7.4 37.25L7.35 37.85L7.45 39.4L7.6 40.35L7.9 39.85L8.2 39.4Q8.55 39 9 39L9.15 39M9.3,39.1Q9.4 40.05 9.85 40.45L10.2 40.05L9.35 39.2L9.3 39.1" />
<path style="fill:#876430;fill-opacity:1" d="M19.5,46.15L20.05 46.1L21.4 45.85Q21.1 45.1 20.2 44.55L21.1 44.4L21.9 45.45Q22.2 46.15 21.7 46.45L19.5 46.15M14.55,37.75L14.6 37.55L14.65 37.5L14.7 37.25L14.65 37.2L15.25 37.1L15.3 37.1Q16.3 37.1 16.8 37.75L16.95 38L17 38.15L17.15 39L17.15 39.05L17.5 39.5L17.7 39.95L17.75 40.3L17.8 40.75L17.75 41.05L16.65 41.3L16.8 41.15L16.8 41.1Q17.15 40.6 17 40.2L16.9 40L16.85 39.85L16.8 39.75L16.55 39.3L16.55 39.25L16.45 38.8L16.3 38.5L16.3 38.4Q16.05 37.8 15.35 37.8L15.2 37.8L14.85 37.8L14.55 37.85L14.55 37.75M6.3,33.9L6.15 33.25L6.45 31.3L6.6 30.85L6.8 30.6L7.5 30.15L6.8 32.1L6.8 33.75L7 34.4L6.6 34.7L6.5 34.5L6.3 33.9" />
<path style="fill:#57351A;fill-opacity:1" d="M17.2,37.2L17.1 37.6L16.95 38L16.8 37.75Q16.3 37.1 15.3 37.1L15.25 36.3Q15.65 36.45 15.95 36.7L15.8 36.45L16.8 36.8L17.2 37L17.2 37.2M8.35,34.7L8.55 35.1L9 35.95L9.35 36.5L9.65 36.9L10.1 37.25L10.05 36.55L10.4 37L10.6 37.25Q10.9 37.85 11.15 37.95L11.2 37.05L12 37.7L12.2 37.9L12.5 38.25L13.05 38.75L12.65 39.25L12.6 39.3L11.9 39.95L11.75 40.05L11 39.55L10.2 38.7L9.8 38.35L9.35 37.95L7.75 36.4L7.55 36.25L7.2 35.85L7.2 35.55L7.6 35.1L7.75 35L8.35 34.7M7.9,39.85L7.6 40.35L7.45 39.4L7.35 37.85L7.4 37.25L7.7 37.55L7.75 37.65L7.95 38.6L8.2 39.4L7.9 39.85M9,39L9.05 38.85L9.15 39L9 39M9.35,39.2L10.2 40.05L9.85 40.45Q9.4 40.05 9.3 39.1L9.35 39.2M10.7,43.6L10.25 44.7L10.25 44.65L10.2 44.65L9.95 44.6L9.4 44.6L9.4 44.25L9.35 44.1L10.7 43.6M18.15,43.4L17.75 43.8L17.65 43.9L17.6 43.85L16.3 43.9L16 42.85L16.4 42.65L16.8 42.95L16.8 42.4L16.85 42.4L17.15 42.85L17.55 43.1L17.75 42.55L18.3 43.15L18.4 43.2L18.15 43.4" />
<path style="fill:#FCE5C2;fill-opacity:1" d="M7.35,31.1L6.8 32.1L7.5 30.15L7.65 30.1Q7.45 30.4 7.6 30.7L7.35 31.1" />
<path style="fill:#F0DBBB;fill-opacity:1" d="M15.2,37.8L15.35 37.8Q16.05 37.8 16.3 38.4L16.3 38.5L16.45 38.8L16.15 39.4L16.1 39.45L16.15 39.4Q16.2 39 15.85 38.6L15.65 38.35L15.2 38L14.85 37.8L15.2 37.8M16.6,41.3L16.65 41.25L16.65 41.2L16.65 40.65L16.65 40.35L16.55 39.85L16.85 39.85L16.9 40L17 40.2Q17.15 40.6 16.8 41.1L16.8 41.15L16.65 41.3L16.6 41.3" />
</g>
</svg>
