<?xml version="1.0" encoding="utf-8"?>
<svg version="1.1" id="Layer_1"
xmlns="http://www.w3.org/2000/svg"
xmlns:xlink="http://www.w3.org/1999/xlink"
xmlns:author="http://www.sothink.com"
width="302px" height="283px"
xml:space="preserve">
<g id="1132" transform="matrix(1, 0, 0, 1, -7.55, 53.35)">
<linearGradient
id="LinearGradID_1408" gradientUnits="userSpaceOnUse" gradientTransform="matrix(0, -0.182968, 6.27776, 0, -2814.35, 63.85)" spreadMethod ="pad" x1="-819.2" y1="0" x2="819.2" y2="0" >
<stop  offset="0" style="stop-color:#B68F44;stop-opacity:1" />
<stop  offset="1" style="stop-color:#D7B064;stop-opacity:1" />
</linearGradient>
<path style="fill:url(#LinearGradID_1408) " d="M46.95,223.6L13.3 223.6L13.3 -49.95L43.35 -49.95L46.95 -49.95L46.95 223.6" />
<linearGradient
id="LinearGradID_1409" gradientUnits="userSpaceOnUse" gradientTransform="matrix(0, -0.182968, 6.27776, 0, -2836, 63.85)" spreadMethod ="pad" x1="-819.2" y1="0" x2="819.2" y2="0" >
<stop  offset="0" style="stop-color:#B68F44;stop-opacity:1" />
<stop  offset="1" style="stop-color:#D7B064;stop-opacity:1" />
</linearGradient>
<path style="fill:url(#LinearGradID_1409) " d="M52.4,223.6L46.95 223.6L46.95 -49.95L52.4 -49.95L52.4 223.6" />
<linearGradient
id="LinearGradID_1410" gradientUnits="userSpaceOnUse" gradientTransform="matrix(0, -0.182968, 6.27776, 0, -2919.8, 63.85)" spreadMethod ="pad" x1="-819.2" y1="0" x2="819.2" y2="0" >
<stop  offset="0" style="stop-color:#B68F44;stop-opacity:1" />
<stop  offset="1" style="stop-color:#D7B064;stop-opacity:1" />
</linearGradient>
<path style="fill:url(#LinearGradID_1410) " d="M228.3,-49.95L256.15 -49.95L302.05 -49.95L302.05 223.6L228.3 223.6L228.3 -49.95" />
<linearGradient
id="LinearGradID_1411" gradientUnits="userSpaceOnUse" gradientTransform="matrix(0, -0.182968, 6.27776, 0, -2891.95, 63.85)" spreadMethod ="pad" x1="-819.2" y1="0" x2="819.2" y2="0" >
<stop  offset="0" style="stop-color:#B68F44;stop-opacity:1" />
<stop  offset="1" style="stop-color:#D7B064;stop-opacity:1" />
</linearGradient>
<path style="fill:url(#LinearGradID_1411) " d="M52.4,-49.95L228.3 -49.95L228.3 223.6L52.4 223.6L52.4 -49.95" />
<path style="fill:none;stroke-width:0.1;stroke-linecap:round;stroke-linejoin:round;stroke-miterlimit:3;stroke:#662616;stroke-opacity:1" d="M52.4,-49.95L228.3 -49.95M256.15,-49.95L302.05 -49.95L302.05 223.6L228.3 223.6L52.4 223.6L46.95 223.6L13.3 223.6L13.3 -49.95L43.35 -49.95" />
<path style="fill:#E0C287;fill-opacity:1" d="M18.35,-36.7L18.35 -42.7L301.9 -42.7L301.9 -34.3L293.65 -34.45L284.95 -34.45L267.55 -35.2L246.85 -36.05L228.3 -36.8L228.3 -37.7Q218.05 -37.9 222.15 -37.35L176.95 -36.75L81.8 -36.55L72.2 -36.6L69.5 -36.6L58.95 -36.65L50.05 -36.7L43.35 -36.7L43.35 -36.75L30.55 -36.75L18.35 -36.7M117.5,-39.95L118.9 -39.6L122.6 -39.25Q122.25 -39.7 122.9 -39.95L118.5 -39.85L117.5 -39.95M158.05,-37L158.05 -37.05L157.95 -37.4L154.7 -37.25L158.05 -37" />
<linearGradient
id="LinearGradID_1412" gradientUnits="userSpaceOnUse" gradientTransform="matrix(0.00012207, -0.128189, 1.1613, 0.00120544, 29.4, 124.15)" spreadMethod ="pad" x1="-819.2" y1="0" x2="819.2" y2="0" >
<stop  offset="0" style="stop-color:#B1842D;stop-opacity:1" />
<stop  offset="1" style="stop-color:#C69D4E;stop-opacity:1" />
</linearGradient>
<path style="fill:url(#LinearGradID_1412) " d="M80.4,-26.45L77.5 -26.5L80.4 -26.6L80.4 -26.45M52.4,-23.8L58.95 -23.65L61.35 -23.6L61.25 -23.1L58.95 -22.75L52.4 -22.25L52.4 -23.8M46.6,-21.85L43.35 -21.65L43.35 -22.2L46.6 -21.85M72.15,-13.75L69.5 -13.95L67.95 -14L66.5 -15.65Q65.95 -16.45 66.7 -16.6L69.5 -16.25L72.15 -15.65L72.2 -15.6L73.6 -15.15L73.5 -14.85L72.25 -13.75L72.15 -13.75M89,-9.05L91.15 -8.85L91.3 -8.3L89 -8.3L89 -9.05M114.55,-4.2L161.55 -3.3L190.2 -2.75L190.15 -2.2L165 -0.35L161.55 -0.2Q138.85 1 119.75 -0.95L114.55 -1.45Q99.65 -3.2 102.75 -4.35L114.55 -4.2M228.3,-17.75L228.3 -17.3L228.35 -17.3Q225.35 -15.2 221.75 -18.35L221.45 -18.6L221.65 -19.4L222.3 -20.45L223 -21.05Q226.5 -21.05 229.55 -19.1L229.85 -18.75L229.35 -18.2L228.85 -17.7L228.3 -17.75M228.3,-6.5L204.25 -6.45L205.4 -6.55Q209.35 -9.25 228.3 -10.1L228.3 -6.5M236.15,-10.35L256.15 -10.45L256.15 -9.9L246.85 -10.15L236.15 -10.35M256.15,-6.65L256.15 -6.5L254.95 -6.5L256.15 -6.65M206.15,-5.6L206.45 -5.6L206.45 -5.5L206.15 -5.6M256.15,-17.3L255.6 -17.5Q254.35 -17.75 255.8 -17.85L256.15 -17.75L256.15 -17.3M248.2,13.5Q244.9 17 240.6 13.35L240.3 13.1L240.5 12.7L248.5 12.7L248.75 13L248.2 13.5M223.4,26.95L256.15 27.45L256.15 28.05L254.35 28L246.85 27.85L228.3 27.45L228.3 28.9Q221.15 27.75 223.4 26.95M251.9,31.25L254.35 31.1L256.15 31.05L256.15 31.4L251.9 31.25M247.35,36.45Q250.8 36.45 253.85 38.4L253.95 38.45L245.9 38.45L246 38.1Q246.25 37.55 246.65 37.05Q247 36.6 247.35 36.45M228.3,75.95L228.3 77.5L223.3 77.35L208.85 76.8L205.8 76.7L198.8 76.45L199.95 76.35L205.8 76.3L208.85 76.25L223.3 76L228.3 75.95M228.3,69.2L242.75 68.2L242.5 67.95L242 67.6L256.15 66.55L256.15 69.2L223.3 70.35L208.85 70.45L205.8 70.45L195.95 70.3L195.95 70.25L205.8 69.75L208.85 69.55L223.3 68.8L228.3 68.5L228.3 69.2M202.35,5.95L201.1 7.15L196.8 6.9L195.35 5.3Q194.85 4.45 195.55 4.3Q199.15 4.5 202.45 5.75L202.35 5.95M174.9,35.7Q143.8 39.95 115.7 32.75Q114.5 32.45 115.95 32.35L174.7 35.25L174.9 35.7M179.2,41.65L183.05 41.75L193.45 42.15L193.45 42.3L186.95 42.1L183.05 42.25L176.6 42.6Q151 43.8 129.1 43.7L114.55 43.7L92.05 43.75L72.2 43.8L69.5 43.8L64.45 43.8L65.6 43.65Q66.8 42.8 69.5 42.15L72.2 41.6Q79.05 40.4 92.05 39.95Q101.65 39.6 114.55 39.7Q136.2 39.85 167.25 41.15L179.2 41.65M174.5,97.2Q151.75 98.35 132.65 96.45Q112.1 94.35 115.65 93L174.5 94.05L203.15 94.65L203.05 95.15L177.9 97L174.5 97.2M219.4,91.85L219.15 91.8L219.4 91.8L219.4 91.85M228.3,120.75L225.15 120.65L225.15 119.4L228.3 119.4L228.3 120.75M215.35,103.1L215.3 103.35L214.05 104.5L209.7 104.3L208.25 102.65Q207.75 101.85 208.5 101.65Q212.1 101.9 215.35 103.1M238.1,143.25L237.8 143Q237.85 142.6 238.05 142.25Q238.25 141.65 238.7 141.2L239.4 140.55Q242.85 140.55 245.9 142.55L246.15 142.9L245.7 143.45L244.55 144.4Q242.3 145.9 239.75 144.4Q238.9 144 238.1 143.25M169.8,127.4L144.65 129.25L141.3 129.4Q118.6 130.6 99.45 128.65L92.05 127.85Q79.65 126.3 82.5 125.25L92.05 125.4L141.3 126.3L169.95 126.85L169.8 127.4M175.25,133.9Q178.85 134.15 182.2 135.35L182.05 135.6L180.85 136.75L176.55 136.5L175.1 134.9Q174.5 134.05 175.25 133.9M186.2,124.1L185.85 124L186.2 124L186.2 124.1M169.6,174.3L107.8 176.5L94.1 176.35L107.8 175.65L160.3 172.2Q165.3 171.1 169.4 174L169.6 174.3M256.15,184.95L256.15 185L241.45 185L242.05 184.95L246.85 184.95L256.15 184.95M224.2,185Q165.9 184.9 107.8 182.9L97.8 182.55L98.95 182.45L107.8 182.3Q173.45 181.3 202.1 181.85Q232.65 182.55 225.15 184.6Q224.7 185 224.2 185M256.15,110.05L256.15 112.7L242.75 113.3Q245 112.45 246.6 110.75L256.15 110.05M89.5,32Q86.15 35.45 81.9 31.8L81.6 31.6Q81.65 31.1 81.85 30.75L82.5 29.7L83.2 29.15Q86.65 29.15 89.7 31.05L89.95 31.45L89.5 32M93,73.45L93 73.5L92.7 73.45L93 73.45M89,84.85L88.85 85.05L87.65 86.2L83.35 85.95L81.9 84.3Q81.3 83.55 82.1 83.3Q85.7 83.6 89 84.85M104.1,88.6L104.2 89.05L101.9 89.05L101.9 88.3L104.1 88.6M52.4,75.8L58.95 75.95L69.5 76.2L72.2 76.25L76.75 76.35L76.6 76.8L72.2 77.35L69.5 77.55L58.95 78.25L51.5 78.75L48.1 78.9L43.35 79.15L43.35 76.9L46.95 76.85L46.95 76.2L43.35 76.1L43.35 75.65L45.65 75.65L52.4 76.95L52.4 75.8M52.4,117.15L58.95 117.45L61.5 117.6L61.5 117.75L58.95 117.65L55.9 117.5L52.4 117.7L52.4 117.15M43.7,110.6L43.95 111.15L43.35 111.25L43.35 110.6L43.7 110.6M52.4,148.15L52.4 147L43.35 147.15L43.35 146.55L58.95 146.55L69.5 146.6L72.2 146.65L78.85 146.75L92.05 147.2Q107.45 147.9 101.9 149.4L100.9 149.85L92.05 149.85L72.2 149.7L69.5 149.7L58.95 149.55L43.35 149.35L43.35 147.85L52.4 148.15M43.35,139.45L43.35 137.45Q44.8 137.95 46.15 138.9L46.3 139.2L43.35 139.45M84,186.2Q87.6 186.45 90.9 187.65L90.8 187.9L89.65 189.05L85.25 188.8L83.8 187.2Q83.3 186.4 84 186.2" />
<linearGradient
id="LinearGradID_1413" gradientUnits="userSpaceOnUse" gradientTransform="matrix(0.00012207, -0.128189, 1.1613, 0.00120544, 85.35, 124.15)" spreadMethod ="pad" x1="-819.2" y1="0" x2="819.2" y2="0" >
<stop  offset="0" style="stop-color:#B1842D;stop-opacity:1" />
<stop  offset="1" style="stop-color:#C69D4E;stop-opacity:1" />
</linearGradient>
<path style="fill:url(#LinearGradID_1413) " d="M52.4,-22.25L52.4 -21.35L46.8 -21.85L46.6 -21.85L43.35 -22.2L43.35 -25L52.4 -24.85L52.4 -23.8L52.4 -22.25M46.95,10L46.95 7.6L43.35 7.65L43.35 7.5L52.4 7.5L52.4 10.5L43.35 10.35L43.35 9.95L46.95 10M52.4,76.95L45.65 75.65Q44 75.1 45.25 74.65L52.4 74.8L52.4 75.8L52.4 76.95M46.95,115.25L52.4 115.3L52.4 117.15L52.4 117.7L52.4 119.1L46.95 119.1L46.95 115.25M43.35,115.25L43.35 115.2L44.8 115.2L43.35 115.25M52.4,110.6L43.35 108.8L43.35 107.95L52.4 108.65L52.4 110.6M43.35,147.15L52.4 147L52.4 148.15L43.35 147.85L43.35 147.15M43.35,140.35L52.4 139.9L52.4 141.4L43.35 141.45L43.35 140.35" />
<linearGradient
id="LinearGradID_1414" gradientUnits="userSpaceOnUse" gradientTransform="matrix(0.00012207, -0.128189, 1.1613, 0.00120544, 1.55, 124.15)" spreadMethod ="pad" x1="-819.2" y1="0" x2="819.2" y2="0" >
<stop  offset="0" style="stop-color:#B1842D;stop-opacity:1" />
<stop  offset="1" style="stop-color:#C69D4E;stop-opacity:1" />
</linearGradient>
<path style="fill:url(#LinearGradID_1414) " d="M239.1,-33.9L238.7 -33.9L239.15 -34.4L239.1 -33.9M228.85,-17.7L246.85 -16.5L286.65 -14.95L286.9 -14.45Q266.2 -11.7 246.85 -13.95Q237.4 -15.05 228.35 -17.3L228.3 -17.3L228.3 -17.75L228.85 -17.7M246.85,-10.15L256.15 -9.9L279.2 -9.05L291.25 -8.55L295 -8.45L304.45 -8L305.45 -8L307.9 -7.9L307.9 -7.75L305.45 -7.85L304.45 -7.85L298.9 -8.1L295 -7.9L288.55 -7.6Q271.55 -6.85 256.15 -6.65L254.95 -6.5L248.55 -6.5L246.85 -6.5L246.15 -6.5L228.3 -6.5L228.3 -10.1L228.3 -10.45L236.15 -10.35L246.85 -10.15M302.05,25.6L302.05 25.8L299.15 25.7L302.05 25.6M295.25,37.05L295.1 37.25L293.95 38.45L293.8 38.45L289.6 38.2L288.15 36.6Q287.65 35.75 288.35 35.6Q291.15 35.75 293.8 36.6L295.25 37.05M283.05,28.55L282.95 29.1L257.8 30.95L256.15 31.05L254.35 31.1L251.9 31.25L246.85 31.4Q237.25 31.7 228.3 31.4L228.3 28.9L228.3 27.45L246.85 27.85L254.35 28L256.15 28.05L283.05 28.55M228.3,75.95L228.3 75.65L246.85 75.6Q263.95 75.55 275.25 75.75Q305.8 76.45 298.3 78.45L297.35 78.9L246.85 78.5L228.3 78.15L228.3 77.5L228.3 75.95M242,67.6L242.5 67.95L242.75 68.2L228.3 69.2L228.3 68.5L228.3 66.55L233.4 66.15Q238.1 65.1 242 67.6M228.3,119.4L228.3 119.05L246.85 118.95Q265.2 118.9 277.1 119.15Q307.65 119.85 300.15 121.8Q299.7 122.3 299.25 122.3L246.85 121.75L228.3 121.4L228.3 120.75L228.3 119.4M235.3,109.45Q240.3 108.35 244.45 111.3L244.6 111.6L228.3 112.7L228.3 110.05L235.3 109.45M238.7,173.2Q235.35 176.7 231.05 173.05L230.8 172.8L231 172Q231.25 171.45 231.65 171L232.4 170.35Q235.85 170.35 238.9 172.35L239.2 172.7L238.7 173.2M246.85,184.95L242.05 184.95L228.3 185L228.3 181.95L246.85 181.05Q265.2 180.7 293.65 181.55L301.9 181.8L301.9 184.7L293.65 184.9L278.3 184.95L256.15 184.95L246.85 184.95M265.15,173.6L293.65 175.45L301.9 175.9L301.9 178.55L293.65 178.3Q278.85 177.55 264.95 173.95Q263.7 173.65 265.15 173.6" />
<linearGradient
id="LinearGradID_1415" gradientUnits="userSpaceOnUse" gradientTransform="matrix(0, -0.16452, 6.37683, 0, -3042.75, 88.2)" spreadMethod ="pad" x1="-819.2" y1="0" x2="819.2" y2="0" >
<stop  offset="0" style="stop-color:#B1842D;stop-opacity:1" />
<stop  offset="1" style="stop-color:#C69D4E;stop-opacity:1" />
</linearGradient>
<path style="fill:url(#LinearGradID_1415) " d="M256.15,197.95L256.15 198.15L245.55 198.3L219.95 200.5L251.4 201.85L228.3 202L228.3 206L256.15 205.9L256.15 206L230.15 206.05L212.45 206.65L198.1 207.65L180.3 208.9L180.25 209.75Q186.15 209.55 197.1 209.5Q221.55 209.3 252.65 209.55L253.25 209.75L246.85 209.65L236.55 209.6L228.3 209.55L228.3 217.8L52.4 217.8L52.4 208.45L58.95 208.55L69.5 208.7L72.2 208.7L92.05 208.65L107.8 208.5Q128.65 208.3 154.3 207.7L128.05 205.9L107.8 205L93.75 204.4L92.05 204.35L72.2 203.7L69.5 203.65L58.95 203.4L52.4 203.35L52.4 193.15L58.95 193.7L69.5 194.5L72.2 194.65L92.05 195.35L102.05 195.05L107.8 194.7L128.2 193.4L129.05 193.4L128.95 193.35L133.95 193.05L127.6 192.75L127.65 191.85L127.8 191.55L128.4 191.25L128.25 190.7Q127.6 189.1 128.7 188.65Q131.9 188.9 134.4 190.95L148.35 193.7Q161.7 193.7 190.85 193.1L210.75 192.6Q214.1 198.6 219.25 194.75L219.15 194.35L217.95 192.35L228.3 191.9L228.3 198.15L246.85 198L256.15 197.95M52.4,178.65L58.95 178.8L69.5 179L72.2 179.05L78.65 179.2L78.6 179.7L72.2 180.4L69.5 180.6L58.95 181.3L53.45 181.55L50.05 181.75L43.35 182.05L43.35 179.8L46.95 179.75L46.95 179L43.35 178.9L43.35 178.45L47.45 178.55L52.4 179.6L52.4 178.65M156.3,196.85Q184.75 202.75 191.35 200.6Q198.45 198.4 198.9 197.95L201.15 198Q177.75 196.8 156.3 196.85" />
<linearGradient
id="LinearGradID_1416" gradientUnits="userSpaceOnUse" gradientTransform="matrix(0, -0.16452, 6.37683, 0, -3070.6, 88.2)" spreadMethod ="pad" x1="-819.2" y1="0" x2="819.2" y2="0" >
<stop  offset="0" style="stop-color:#B1842D;stop-opacity:1" />
<stop  offset="1" style="stop-color:#C69D4E;stop-opacity:1" />
</linearGradient>
<path style="fill:url(#LinearGradID_1416) " d="M246.85,198L228.3 198.15L228.3 191.9L228.3 190.45L242.15 189.65L246.85 189.35Q272.25 187.9 278.75 189.25L293.65 188.55L301.9 188.15L301.9 197.8L293.65 197.75Q277.7 197.7 256.15 197.95L246.85 198M228.3,206L228.3 202L251.4 201.85L301.9 201.35L301.9 217.8L228.3 217.8L228.3 209.55L236.55 209.6L246.85 209.65L253.25 209.75L252.65 209.55L251.7 209.2Q264.3 208.7 274.75 208.75Q273.7 207.6 265.15 206.4L257.9 205.9L256.15 205.9L228.3 206M257.6,193.75Q260.75 198 264.15 194.9L264.1 194.5Q262.3 190.85 258.15 192.2Q256.7 192.5 257.6 193.75" />
<linearGradient
id="LinearGradID_1417" gradientUnits="userSpaceOnUse" gradientTransform="matrix(0.00012207, -0.128189, 1.1613, 0.00120544, 107, 124.15)" spreadMethod ="pad" x1="-819.2" y1="0" x2="819.2" y2="0" >
<stop  offset="0" style="stop-color:#B1842D;stop-opacity:1" />
<stop  offset="1" style="stop-color:#C69D4E;stop-opacity:1" />
</linearGradient>
<path style="fill:url(#LinearGradID_1417) " d="M43.35,7.65L46.95 7.6L46.95 10L43.35 9.95L16.35 9.25L16.35 7.95L43.35 7.65M16.35,0.7L46.95 -1.4L46.95 1.25L16.35 2.25L16.35 0.7M37.1,31.05L37.4 31.45L36.95 32L35.75 33Q33.5 34.45 30.95 33L29.3 31.8L29.05 31.6L29.25 30.75L29.9 29.7L30.6 29.15Q34.1 29.15 37.1 31.05M32.05,82.4L32 82.6Q26.55 86.5 27.15 81.75Q27.25 81.15 27.6 80.9Q30 81.05 32.05 82.4M46.95,76.2L46.95 76.85L43.35 76.9L16.35 77.8L16.35 75.25L43.35 76.1L46.95 76.2M16.35,68L46.95 69.45L46.95 70.65L16.35 70.8L16.35 68M44.8,115.2L46.2 115.2L46.95 115.2L46.95 115.25L46.95 119.1L11.05 119.15L12.2 119.05Q16.95 115.8 43.35 115.25L44.8 115.2M36.1,107.4Q32.75 110.85 28.45 107.25L28.15 106.95L28.45 106.2Q28.7 105.6 29.1 105.15L29.8 104.5Q33.2 104.5 36.3 106.5L36.6 106.85L36.1 107.4M46.95,179L46.95 179.75L43.35 179.8L30.55 180.15L18.35 180.65L18.35 178.1L30.55 178.5L43.35 178.9L46.95 179M33.95,185.2L33.9 185.45Q31.7 187.1 30.55 187.25Q28.75 187.5 29.1 184.65Q29.15 184 29.55 183.75L30.55 183.9Q32.35 184.1 33.95 185.2M18.35,170.9Q24.45 170.95 30.55 171.15L46.95 172.15L46.95 173.55L30.55 173.55L18.35 173.65L18.35 170.9" />
<linearGradient
id="LinearGradID_1418" gradientUnits="userSpaceOnUse" gradientTransform="matrix(0, -0.16452, 6.37683, 0, -2965.15, 88.2)" spreadMethod ="pad" x1="-819.2" y1="0" x2="819.2" y2="0" >
<stop  offset="0" style="stop-color:#B1842D;stop-opacity:1" />
<stop  offset="1" style="stop-color:#C69D4E;stop-opacity:1" />
</linearGradient>
<path style="fill:url(#LinearGradID_1418) " d="M46.95,204.4L46.5 204.35L43.35 205Q41.85 205.4 41.15 205.9L40.95 206.05Q40.45 206.55 43.35 206.95L46.95 207.3L46.95 217.8L18.35 217.8L18.35 191.05L19.5 191.05L19.6 191.75Q21.3 196.65 25.7 195.2L25.85 194.75Q26.3 193.4 26.25 192L26.2 191.55L25.85 191.15L25.55 190.9L30.55 190.95L46.95 191.3L46.95 191.85L46.95 204.4M30.55,199.55L30.05 199.5L29.75 199.95Q28.9 203.45 30.55 203.05Q31.35 202.9 32.75 201.7L32.65 201.35Q31.85 199.85 30.55 199.55" />
<linearGradient
id="LinearGradID_1419" gradientUnits="userSpaceOnUse" gradientTransform="matrix(0, -0.16452, 6.37683, 0, -2986.8, 88.2)" spreadMethod ="pad" x1="-819.2" y1="0" x2="819.2" y2="0" >
<stop  offset="0" style="stop-color:#B1842D;stop-opacity:1" />
<stop  offset="1" style="stop-color:#C69D4E;stop-opacity:1" />
</linearGradient>
<path style="fill:url(#LinearGradID_1419) " d="M46.95,191.85L47.9 191.85L52.4 192L52.4 193.15L52.4 203.35L52.4 208.45L52.4 217.8L46.95 217.8L46.95 207.3L43.35 206.95L43.35 206.5L49.15 206.5L49.25 206L47.8 205.9L43.35 205.55L43.35 205L46.5 204.35L46.95 204.4L46.95 191.85M52.4,179.6L47.45 178.55Q45.95 178 47.15 177.55L52.4 177.65L52.4 178.65L52.4 179.6" />
<linearGradient
id="LinearGradID_1420" gradientUnits="userSpaceOnUse" gradientTransform="matrix(0.00534058, 0, 0, 0.20845, 22.55, 122.75)" spreadMethod ="pad" x1="-819.2" y1="0" x2="819.2" y2="0" >
<stop  offset="0" style="stop-color:#703112;stop-opacity:0.501961" />
<stop  offset="1" style="stop-color:#803C18;stop-opacity:0" />
</linearGradient>
<path style="fill:url(#LinearGradID_1420) " d="M25.85,-42.75Q20.55 -45 20.1 -43.05L19.25 -42.55L19.25 -42.7L18.35 -42.7L18.35 -48.05L20.3 -48.05Q21.85 -53.2 24.2 -48.05L29.1 -48.05L29.1 -42.7L26.15 -42.7L25.85 -42.75M18.35,205.9L18.35 -30.7Q18.65 -36.55 19.05 -40.6L20.1 -42.9Q19.6 -40.35 26.9 -31L29.1 205.9Q23.75 224.3 18.35 205.9M29.1,217.8L29.1 218.85L18.35 218.85L18.35 217.8L29.1 217.8" />
<linearGradient
id="LinearGradID_1421" gradientUnits="userSpaceOnUse" gradientTransform="matrix(0, 0.0104065, 0.277817, 0.000350952, 120.6, -39.6)" spreadMethod ="pad" x1="-819.2" y1="0" x2="819.2" y2="0" >
<stop  offset="0" style="stop-color:#4D200A;stop-opacity:0.498039" />
<stop  offset="1" style="stop-color:#4D230C;stop-opacity:0" />
</linearGradient>
<path style="fill:url(#LinearGradID_1421) " d="M300.45,-42.7L302.85 -42.7L302.85 -30.7L298.25 -30.7Q300 -38.35 300.45 -42.7" />
<linearGradient
id="LinearGradID_1422" gradientUnits="userSpaceOnUse" gradientTransform="matrix(-0.00534058, 0, 0, 0.20845, 294, 122.75)" spreadMethod ="pad" x1="-819.2" y1="0" x2="819.2" y2="0" >
<stop  offset="0" style="stop-color:#703112;stop-opacity:0.501961" />
<stop  offset="1" style="stop-color:#803C18;stop-opacity:0" />
</linearGradient>
<path style="fill:url(#LinearGradID_1422) " d="M287.5,205.9L287.3 -31Q292.2 -28.25 294.35 -42.7L287.5 -42.7L287.5 -48.05L298.25 -48.05L298.25 -42.7L300.45 -42.7Q300 -38.35 298.25 -30.7L298.25 205.9Q299.5 229.55 287.5 205.9M298.25,217.8L298.25 218.85L287.5 218.85L287.5 217.8L298.25 217.8" />
<linearGradient
id="LinearGradID_1423" gradientUnits="userSpaceOnUse" gradientTransform="matrix(0, -0.0104065, 0.277817, 0, 207.45, 213.8)" spreadMethod ="pad" x1="-819.2" y1="0" x2="819.2" y2="0" >
<stop  offset="0" style="stop-color:#703112;stop-opacity:0.501961" />
<stop  offset="1" style="stop-color:#803C18;stop-opacity:0" />
</linearGradient>
<path style="fill:url(#LinearGradID_1423) " d="M46.95,205.9L52.4 205.9L52.4 217.8L46.95 217.8L46.95 205.9" />
<linearGradient
id="LinearGradID_1424" gradientUnits="userSpaceOnUse" gradientTransform="matrix(0, -0.0104065, 0.277817, 0, 151.5, 213.8)" spreadMethod ="pad" x1="-819.2" y1="0" x2="819.2" y2="0" >
<stop  offset="0" style="stop-color:#703112;stop-opacity:0.501961" />
<stop  offset="1" style="stop-color:#803C18;stop-opacity:0" />
</linearGradient>
<path style="fill:url(#LinearGradID_1424) " d="M228.3,217.8L52.4 217.8L52.4 205.9L228.3 205.9L228.3 217.8" />
<linearGradient
id="LinearGradID_1425" gradientUnits="userSpaceOnUse" gradientTransform="matrix(0, -0.0104065, 0.277817, 0, 229.1, 213.8)" spreadMethod ="pad" x1="-819.2" y1="0" x2="819.2" y2="0" >
<stop  offset="0" style="stop-color:#703112;stop-opacity:0.501961" />
<stop  offset="1" style="stop-color:#803C18;stop-opacity:0" />
</linearGradient>
<path style="fill:url(#LinearGradID_1425) " d="M18.35,217.8L13.55 217.8L13.55 205.9L18.35 205.9Q23.75 224.3 29.1 205.9L46.95 205.9L46.95 217.8L29.1 217.8L18.35 217.8" />
<linearGradient
id="LinearGradID_1426" gradientUnits="userSpaceOnUse" gradientTransform="matrix(0, -0.0104065, 0.277817, 0, 123.65, 213.8)" spreadMethod ="pad" x1="-819.2" y1="0" x2="819.2" y2="0" >
<stop  offset="0" style="stop-color:#703112;stop-opacity:0.501961" />
<stop  offset="1" style="stop-color:#803C18;stop-opacity:0" />
</linearGradient>
<path style="fill:url(#LinearGradID_1426) " d="M228.3,205.9L287.5 205.9Q299.5 229.55 298.25 205.9L303 205.9L303 217.8L298.25 217.8L287.5 217.8L228.3 217.8L228.3 205.9" />
<path style="fill:#34240D;fill-opacity:1" d="M10.85,224.7L11.15 225.1Q11.95 226.3 13.55 227.5L270.7 227.45L270.7 229.65L14.55 229.65Q15.85 229.55 14 229.6Q12.15 229.6 10.4 227.85Q8.6 226.1 8.05 224.3Q7.5 222.45 7.6 219.65L7.6 -41.85Q7.5 -42.45 7.7 -44.5Q7.9 -46.8 8.3 -47.7Q10.8 -53.35 19.1 -53.35L135.95 -53.35L135.95 -51.15L92.05 -51.15L72.2 -51.2L69.5 -51.2L58.95 -51.2L52.4 -51.2L52.4 -51.25L46.95 -51.25L43.35 -51.25L20.95 -51.3L19.25 -51.3L19.1 -51.3Q12.15 -51 10.35 -46.15Q9.95 -45.2 9.8 -44.1L9.75 -42.9L9.85 -41.85L9.85 -41.45L9.85 2.25L9.85 91.75L9.85 221.55Q10 222.9 10.45 224L10.85 224.7M16.9,-41.85L17.15 -42.85Q17.65 -43.9 19.1 -43.9L135.95 -43.95L135.95 -41.75L19.2 -41.75L19.2 218.05L270.7 218.05L270.7 220.3L18.45 220.1L17.9 220L17.75 220.05Q17.3 220.05 16.9 219.3L16.9 -41.85" />
<path style="fill:#674529;fill-opacity:1" d="M270.7,227.45L13.55 227.5Q11.95 226.3 11.15 225.1L10.85 224.7L10.45 224L14.15 224.8L46.95 224.8L46.95 224.75L52.4 224.75L52.4 224.7L223.05 224.5L223.05 224.4L228.3 224.4L228.3 224.5L270.7 224.4L270.7 227.45M16.9,219.3Q17.3 220.05 17.75 220.05L13.85 222.4L13.6 91.75L13.55 91.75L13.25 -41.85L13.35 -41.85Q12.95 -43.9 14.1 -45Q15.2 -46.1 16.55 -46.4L20.55 -46.65L19.1 -46.55L46.95 -46.55L46.95 -46.6L52.4 -46.6L52.4 -46.65L135.95 -46.8L135.95 -43.95L19.1 -43.9Q17.65 -43.9 17.15 -42.85L16.9 -41.85L16.9 219.3" />
<path style="fill:#D2A977;fill-opacity:1" d="M135.95,-46.8L52.4 -46.65L52.4 -46.6L46.95 -46.6L46.95 -46.55L19.1 -46.55L20.55 -46.65L16.55 -46.4Q15.2 -46.1 14.1 -45Q12.95 -43.9 13.35 -41.85L13.25 -41.85L13.55 91.75L13.6 91.75L13.85 222.4L17.75 220.05L17.9 220L18.45 220.1L270.7 220.3L270.7 224.4L228.3 224.5L228.3 224.4L223.05 224.4L223.05 224.5L52.4 224.7L52.4 224.75L46.95 224.75L46.95 224.8L14.15 224.8L10.45 224Q10 222.9 9.85 221.55L9.85 91.75L9.85 2.25L9.85 -41.45L9.85 -41.85L9.75 -42.9L9.8 -44.1Q9.95 -45.2 10.35 -46.15Q12.15 -51 19.1 -51.3L19.25 -51.3L20.95 -51.3L43.35 -51.25L46.95 -51.25L52.4 -51.25L52.4 -51.2L58.95 -51.2L69.5 -51.2L72.2 -51.2L92.05 -51.15L135.95 -51.15L135.95 -46.8" />
<path style="fill:none;stroke-width:0.1;stroke-linecap:round;stroke-linejoin:round;stroke-miterlimit:3;stroke:#662616;stroke-opacity:1" d="M16.9,-41.85L17.15 -42.85Q17.65 -43.9 19.1 -43.9" />
<path style="fill:#34240D;fill-opacity:1" d="M302.75,227.5Q304.3 226.3 305.1 225.1L305.4 224.7L305.8 224L306.4 221.55L306.4 44.65L306.4 39.4L306.4 5.15L306.4 -41.45L306.4 -41.85L306.5 -42.9L306.45 -44.1Q306.35 -45.2 305.9 -46.15Q304.1 -51 297.15 -51.3L297 -51.3L295.3 -51.3L52.3 -51.15L52.3 -53.35L297.15 -53.35Q305.45 -53.35 307.95 -47.7Q308.35 -46.8 308.55 -44.5L308.65 -41.85L308.65 219.65Q308.75 222.45 308.2 224.3Q307.65 226.1 305.85 227.85Q304.1 229.6 302.25 229.6Q300.4 229.55 301.7 229.65L52.3 229.65L52.3 227.45L302.75 227.5M299.35,219.3L298.5 220.05L298.35 220L297.8 220.1L52.3 220.25L52.3 218.05L297.05 218.05L297.05 -41.75L52.3 -41.75L52.3 -43.95L297.15 -43.9Q298.6 -43.9 299.15 -42.85L299.35 -41.85L299.35 219.3" />
<path style="fill:#674529;fill-opacity:1" d="M302.1,224.8L305.8 224L305.4 224.7L305.1 225.1Q304.3 226.3 302.75 227.5L52.3 227.45L52.3 224.55L302.1 224.8M299.35,-41.85L299.15 -42.85Q298.6 -43.9 297.15 -43.9L52.3 -43.95L52.3 -46.85L297.15 -46.55L295.7 -46.65L299.7 -46.4Q301.05 -46.1 302.15 -45Q303.3 -43.9 302.9 -41.85L303 -41.85L302.4 222.4L298.5 220.05L299.35 219.3L299.35 -41.85" />
<path style="fill:#D2A977;fill-opacity:1" d="M52.3,224.55L52.3 220.25L297.8 220.1L298.35 220L298.5 220.05L302.4 222.4L303 -41.85L302.9 -41.85Q303.3 -43.9 302.15 -45Q301.05 -46.1 299.7 -46.4L295.7 -46.65L297.15 -46.55L52.3 -46.85L52.3 -51.15L295.3 -51.3L297 -51.3L297.15 -51.3Q304.1 -51 305.9 -46.15Q306.35 -45.2 306.45 -44.1L306.5 -42.9L306.4 -41.85L306.4 -41.45L306.4 5.15L306.4 39.4L306.4 44.65L306.4 221.55L305.8 224L302.1 224.8L52.3 224.55" />
<path style="fill:none;stroke-width:0.1;stroke-linecap:round;stroke-linejoin:round;stroke-miterlimit:3;stroke:#662616;stroke-opacity:1" d="M299.35,-41.85L299.15 -42.85Q298.6 -43.9 297.15 -43.9" />
</g>
</svg>
