<?xml version="1.0" encoding="utf-8"?>
<svg version="1.1" id="Layer_1"
xmlns="http://www.w3.org/2000/svg"
xmlns:xlink="http://www.w3.org/1999/xlink"
xmlns:author="http://www.sothink.com"
width="54px" height="44px"
xml:space="preserve">
<g id="227" transform="matrix(1, 0, 0, 1, 0, 0)">
<path style="fill:#482D19;fill-opacity:1" d="M13.6,26.75L1.35 35.9Q1.05 36.65 1.75 37.5L2.8 38.45L17.4 27.9L20.05 25.95L19.1 27.35L21.05 27.25L15.75 30.8L3.4 39.7Q2.15 39.9 1.05 38.7L0.85 38.45L0.7 38.25Q-0.3 36.85 0.15 35.35L0.5 35L1.05 34.55L8.9 28.55L13.4 25.15L16.8 22.25L16.25 23.8L18.1 23.35L15.95 25L13.6 26.75" />
<path style="fill:#6B4228;fill-opacity:1" d="M14.2,28.3L13.6 26.75L15.95 25L16.7 26.5L17.4 27.9L2.8 38.45L1.75 37.5L14.2 28.3" />
<path style="fill:#9F6D50;fill-opacity:1" d="M1.75,37.5Q1.05 36.65 1.35 35.9L13.6 26.75L14.2 28.3L1.75 37.5" />
<path style="fill:#5F1000;fill-opacity:1" d="M21.3,14.6Q22.1 14.9 22.05 15.35L21.8 15.2Q22.2 15.6 21.4 15.7Q19.9 15.8 20.15 16.15L17.3 16Q11.4 15.05 9.8 9.5L9.5 9.9Q8.95 10.75 8.75 12.25Q8.4 13.95 9.35 16.3Q11.55 16.5 10.05 17.75Q9.6 18.05 8.85 18.5Q5.35 20.3 4.65 22.4L4.2 23.5Q3.85 24.55 4.1 24.85Q6.05 23.8 8.25 23.45L10.8 23.15L11.4 23.45Q11.7 23.75 11.85 24.6L11.95 25.2L12 26.8L11.6 29.15L10.65 31.5L10.45 31.95L9.2 34.05Q8.75 34.45 9 34.75L9.6 35.15Q10.65 35.35 12.5 34.5Q14.2 33.6 15.5 31.75L15.6 31.6L15.75 31.9Q16.65 33.85 15.3 35.35Q16.7 37.6 16.35 40.45L16.1 41.65Q19.35 40.55 21.3 37.45L20.75 35.6L21.75 35.85L22.05 35.95L22.4 36.05L22.55 36.15Q23.8 36.6 24.05 40.55Q24.25 40.8 25.85 39.05L26.45 38.4Q28.4 35.95 26.75 31.85L26.7 31.8Q25 27.7 28.05 25.2L28.1 27.25Q28.1 27.95 28.55 27.35L28.15 28.95Q28 29.35 28.2 30.55L29.15 34.7L29.35 36.05Q29.3 39.05 25.5 41.75L22.2 43.65Q22.7 40.15 21.85 39.5Q21.3 41.4 18.7 42.65Q16.1 43.8 13.6 44Q15.6 39.2 13.7 36Q12.9 36.75 11.25 37.05L7.35 36.6Q5.05 35.9 6.65 34.7L8.35 32.45Q10.65 28.55 10.15 25.15Q6.3 25.7 2.7 27.8Q1.75 27.35 1.85 25.8Q1.9 24.85 2.35 23.65Q3.7 19 7.1 17.15Q6.45 15.15 6.65 12.95Q7.2 8.7 9.75 6.65L10 6.6Q10.4 6.55 10.75 7.25L11.7 9.45L13.1 11.7Q13.8 12.6 15.1 13.15L15.8 13.4L16.85 13.65L20.3 14.35L20.85 14.6L20.5 14.35L21.3 14.6" />
<path style="fill:#BB482E;fill-opacity:1" d="M20.4,14.3L20.5 14.35L20.85 14.6L20.3 14.35L20.4 14.3" />
<path style="fill:#AD1F0E;fill-opacity:1" d="M25.85,39.05Q24.25 40.8 24.05 40.55Q23.8 36.6 22.55 36.15L22.4 36.05L22.05 35.95L21.75 35.85L20.75 35.6L21.3 37.45Q19.35 40.55 16.1 41.65L16.35 40.45L16.6 40.15L17.55 38.8L18.35 37.5L18.9 35.95L19.1 34L19.1 33.15L19 33.15L17.2 32.7L15.75 31.9L15.6 31.6L15.5 31.75Q14.2 33.6 12.5 34.5Q10.65 35.35 9.6 35.15L9 34.75Q11.05 34.25 12.7 32.45L14.05 30.4L13.95 30.25L13 29.2Q12.35 28.45 12.15 27.5L12 26.8L11.95 25.2L11.85 24.6Q11.7 23.75 11.4 23.45L10.8 23.15L8.25 23.45Q6.05 23.8 4.1 24.85Q3.85 24.55 4.2 23.5L5.6 22.7Q6.4 22.15 7.3 21.9L7.9 21.65L9.55 21Q10.95 20.4 11.6 20.4L12.75 19.7L11.35 18.3Q10.6 17.7 10.25 17.7L10.05 17.75Q11.55 16.5 9.35 16.3Q8.4 13.95 8.75 12.25Q8.95 10.75 9.5 9.9Q9.65 12.1 10.65 13.95L11.95 15.8Q13.3 17.35 15.05 18.05L15.6 17.8Q16.35 17.3 17.3 17.4L17.3 17.15L17.3 16L20.15 16.15Q19.9 15.8 21.4 15.7Q22.2 15.6 21.8 15.2L22.05 15.35Q25.9 18.25 28.6 22.7Q29.3 23.85 29.3 25L29.2 25.75L28.6 27.3L28.55 27.35Q28.1 27.95 28.1 27.25L28.05 25.2Q25 27.7 26.7 31.8L26.1 32.05L25.15 32.35L24.4 32.65L23.15 33.05L24 34.45L24.95 35.95L25.2 36.45L25.6 37.5L25.85 39.05M28.55,27.3L28.75 26.75Q28.95 25.95 28.75 26.5L28.55 27.3" />
<path style="fill:#E2745B;fill-opacity:1" d="M25.6,37.5L25.2 36.45Q25.75 36.6 26.2 36.9L26.4 36.9Q26.7 36.25 26.55 35.3L26 33.5L25.6 32.9L25.15 32.35L26.1 32.05L26.7 31.8L26.75 31.85Q28.4 35.95 26.45 38.4L25.85 39.05L25.6 37.5M10.6,32.5L10.35 33.25Q12.1 32.3 13.55 30.7L13.95 30.25L14.05 30.4L12.7 32.45Q11.05 34.25 9 34.75Q8.75 34.45 9.2 34.05L10.45 31.95L10.65 31.5L10.6 32.5M10.25,17.7Q10.6 17.7 11.35 18.3Q10 18.55 8.95 19.3Q7.25 20.55 6.05 21.9L7.6 21.65L7.9 21.65L7.3 21.9Q6.4 22.15 5.6 22.7L4.2 23.5L4.65 22.4Q5.35 20.3 8.85 18.5Q9.6 18.05 10.05 17.75L10.25 17.7M17.3,17.15L15.5 16.7L13.9 15.8L12.35 14.75L11 13.7Q10.95 13.6 10.9 13.65L10.65 13.95Q9.65 12.1 9.5 9.9L9.8 9.5Q11.4 15.05 17.3 16L17.3 17.15" />
<path style="fill:#D9402D;fill-opacity:1" d="M16.35,40.45Q16.7 37.6 15.3 35.35Q16.65 33.85 15.75 31.9L17.2 32.7L19 33.15L19.1 33.15L19.1 34L18.9 35.95L18.35 37.5L17.55 38.8L16.6 40.15L16.35 40.45M10.65,31.5L11.6 29.15L12 26.8L12.15 27.5Q12.35 28.45 13 29.2L13.95 30.25L13.55 30.7Q12.1 32.3 10.35 33.25L10.6 32.5L10.65 31.5M7.9,21.65L7.6 21.65L6.05 21.9Q7.25 20.55 8.95 19.3Q10 18.55 11.35 18.3L12.75 19.7L11.6 20.4Q10.95 20.4 9.55 21L7.9 21.65M10.9,13.65Q10.95 13.6 11 13.7L12.35 14.75L13.9 15.8L15.5 16.7L17.3 17.15L17.3 17.4Q16.35 17.3 15.6 17.8L15.05 18.05Q13.3 17.35 11.95 15.8L10.65 13.95L10.9 13.65M25.2,36.45L24.95 35.95L24 34.45L23.15 33.05L24.4 32.65L25.15 32.35L25.6 32.9L26 33.5L26.55 35.3Q26.7 36.25 26.4 36.9L26.2 36.9Q25.75 36.6 25.2 36.45" />
<path style="fill:#E5D5C9;fill-opacity:1" d="M27.4,18.55Q28.6 17.6 29.8 16.8L30.65 16.15L31.1 15.85L35.55 12.65L36.6 11.9L37.05 11.55L41.45 8.6Q42.75 7.7 44.85 6.35L49.55 3.3L50.8 2.45L51.25 2.15L43.9 16.15L38.9 25.65L37.5 25.1L37.05 24.9L37.05 24.85Q36.05 24.35 34.15 23.25Q30.2 21.1 28.05 19.35L27.95 19.35L27.4 18.55M34,25.3L35.75 25.2L37.05 25.95L38.05 26.5L37.05 26.55L37 26.55Q22.65 26.9 21.7 26.65L21.45 26.55L20.45 26L34 25.3M37.05,10.8L36.55 11.15L36.45 5.55L44.85 3.35L44.85 5.4L37.05 10.8M29.45,16.15L27.05 17.9L26.95 17.95L26.9 17.8L26.7 17L25.8 9.15L26.85 7.95L31.25 6.55L31.1 14.95L29.45 16.15M37.15,24.7L49.35 3.6L30.85 18.15L37.15 24.7" />
<path style="fill:#3C2A22;fill-opacity:1" d="M50.95,5.6L47.5 12.15L45.2 16.45L43.15 20.45L41.5 23.9L40.45 25.8L39.7 26.9L39.7 26.95L39.45 27.15L38.8 27.4L37 27.5L32.1 27.7L23.55 27.8Q23.15 29.85 21.7 30.35L19.2 30.5Q18.1 30.25 17.55 29.9L15.9 28.55Q14.85 27.45 14.25 25.4Q13.65 23.3 14.2 21.65Q14.7 19.95 15.4 19.5Q16.1 19.05 16.9 18.8L18.45 18.9Q18.4 17.95 19.75 14.55Q21.1 11.1 22.2 9.4L23.95 6.35Q24.65 5.05 26.2 4.65L31.9 3.3L41.8 1.3L49.5 0.1L52.45 0.05Q53.35 0.15 53.15 0.9L50.95 5.6M27.3,18.6L23.6 21.45Q20.3 24.1 19.6 25L19.9 25.45L20.45 26L21.45 26.55L21.7 26.65Q22.65 26.9 37 26.55L37.05 26.55L38.05 26.5L37.05 25.95L35.75 25.2Q31.95 23 29.8 21.3Q27.3 19.3 27.9 19.35L27.95 19.35L28.05 19.35Q30.2 21.1 34.15 23.25Q36.05 24.35 37.05 24.85L37.05 24.9L37.5 25.1L38.9 25.65L43.9 16.15L51.25 2.15L50.8 2.45L49.55 3.3L44.85 6.35Q42.75 7.7 41.45 8.6L37.05 11.55L36.6 11.9L35.55 12.65L31.1 15.85L30.65 16.15L29.8 16.8Q28.6 17.6 27.4 18.55L27.3 18.6M31.1,14.95L33.1 13.55L36.55 11.15L37.05 10.8L44.85 5.4L50.6 1.5L51.05 1.2Q38.15 2.8 25.55 7L25.8 9.15L26.7 17L26.45 16.15Q25.6 13.55 25.3 11.5L25.05 10L24.8 8.15L24.75 7.5L24.4 8.15L23.05 10.65Q21.65 13.25 20.5 16.15L20.35 16.6L19.65 18.5L19.25 19.8Q18.35 22.95 19.05 24.35Q21.25 22.15 26.95 17.95L27.05 17.9L29.45 16.15L31.1 14.95M15.9,26.15Q16.35 27.05 17.1 27.85Q18.1 28.9 19.15 29.2L20.75 29.25Q22.7 28.85 22.65 27.6L21.2 27.4Q19.9 27.05 19 26.05L18.95 26L18.1 24.6Q17.3 22.85 17.95 20.9L18.2 20.2L18.25 20.05L18.1 20Q17 19.65 16.05 20.65Q15.25 21.4 15.2 22.85L15.2 23.85Q15.3 25.05 15.9 26.15" />
<path style="fill:#FFFFFF;fill-opacity:1" d="M33.1,13.55L31.1 14.95L31.25 6.55L26.85 7.95L25.8 9.15L25.55 7Q38.15 2.8 51.05 1.2L50.6 1.5L44.85 5.4L44.85 3.35L36.45 5.55L36.55 11.15L33.1 13.55M20.5,16.15Q21.65 13.25 23.05 10.65L24.4 8.15L24.75 7.5L24.8 8.15L25.05 10L23.45 11.75L20.35 16.6L20.5 16.15" />
<path style="fill:#C9B5A6;fill-opacity:1" d="M26.9,17.8L26.95 17.95Q21.25 22.15 19.05 24.35Q18.35 22.95 19.25 19.8L19.65 18.5L20.35 16.6L23.45 11.75L25.05 10L25.3 11.5Q25.6 13.55 26.45 16.15L26.7 17L26.9 17.8M15.2,23.85L15.2 22.85L15.75 22.1Q16.65 21.15 17.55 20.95Q16.1 23.6 18.45 26.35Q17 27.6 15.9 26.15Q15.3 25.05 15.2 23.85M19.15,29.2Q20.1 29.15 20.8 28.1L21.2 27.4L22.65 27.6Q22.7 28.85 20.75 29.25L19.15 29.2" />
<linearGradient
id="LinearGradID_480" gradientUnits="userSpaceOnUse" gradientTransform="matrix(-0.00102234, -0.00492859, 0.00323486, -0.000671387, 5.65, -19.6)" spreadMethod ="pad" x1="-819.2" y1="0" x2="819.2" y2="0" >
<stop  offset="0.00392157" style="stop-color:#917162;stop-opacity:1" />
<stop  offset="1" style="stop-color:#C2AEA0;stop-opacity:1" />
</linearGradient>
<path style="fill:url(#LinearGradID_480) " d="M34,25.3L31.4 24.1L26.7 21.7Q26.1 21.7 23.4 23.35L20.95 24.85L19.9 25.45L19.6 25Q20.3 24.1 23.6 21.45L27.3 18.6L27.4 18.55L27.95 19.35L27.9 19.35Q27.3 19.3 29.8 21.3Q31.95 23 35.75 25.2L34 25.3M20.8,28.1Q20.1 29.15 19.15 29.2Q18.1 28.9 17.1 27.85Q16.35 27.05 15.9 26.15Q17 27.6 18.45 26.35Q16.1 23.6 17.55 20.95L18.15 20.2L18.2 20.2L17.95 20.9Q17.3 22.85 18.1 24.6L18.95 26L19 26.05Q19.9 27.05 21.2 27.4L20.8 28.1" />
<path style="fill:#AA8B7B;fill-opacity:1" d="M20.45,26L19.9 25.45L20.95 24.85L23.4 23.35Q26.1 21.7 26.7 21.7L31.4 24.1L34 25.3L20.45 26" />
<path style="fill:#B19587;fill-opacity:1" d="M30.85,18.15L49.35 3.6L37.15 24.7L30.85 18.15" />
<path style="fill:#EEEEEE;fill-opacity:1" d="M15.75,22.1L15.2 22.85Q15.25 21.4 16.05 20.65Q17 19.65 18.1 20L18.25 20.05L18.2 20.2L18.15 20.2L17.55 20.95Q16.65 21.15 15.75 22.1" />
</g>
</svg>
