<?xml version="1.0" encoding="utf-8"?>
<svg version="1.1" id="Layer_1"
xmlns="http://www.w3.org/2000/svg"
xmlns:xlink="http://www.w3.org/1999/xlink"
xmlns:author="http://www.sothink.com"
width="12px" height="17px"
xml:space="preserve">
<g id="1399" transform="matrix(1, 0, 0, 1, 0, 0)">
<path style="fill:#69290A;fill-opacity:1" d="M9,3.85Q5.7 4.15 2.5 5.4L1.35 5.9L1.35 5.95Q0.2 6.1 0.05 5.15Q-0.05 4.55 0.2 4.1L0.65 3.45L1.8 2.4Q2.6 1.75 4.35 0.85Q6.1 -0.05 8.35 0Q10.55 0 11.1 0.75Q11.65 1.45 11.4 2.45Q11.15 3.45 10.75 3.7L10.5 3.8L9.95 3.85L9 3.85M3.05,13.85Q4.35 13.05 6.4 12.65L8.6 12.25L9.65 12.2L10.2 12.25Q10.75 12.25 11.25 13Q11.75 13.7 11.65 14.5Q11.55 15.25 9.7 15.2L9.55 15.2L6.95 15.5L5.1 16.1Q2.7 17.1 2.05 16.65Q1.55 16.3 1.8 15.25L2 14.4L3.05 13.85M2.6,2.8Q1.25 3.8 1 4.4Q0.7 5 1.1 5.25Q2.35 4.55 4.65 3.75Q6.95 2.95 10.3 3.1Q10.95 1 9.65 0.8Q5.65 0.45 2.65 2.75L2.6 2.8M9.7,14.25L10.6 14.25Q10.8 13.5 9.95 13.1L7.65 13.25L6.55 13.45Q5.5 13.65 4.5 14.1Q3.3 14.55 2.95 14.8L2.75 14.95Q2.5 15.15 2.4 15.6Q2.25 16 3.1 16.05Q4.85 15.1 6.75 14.65L9.7 14.25" />
<path style="fill:#070707;fill-opacity:1" d="M3.05,13.85L2 14.4Q0.8 9.2 1.35 6.2L1.35 5.95L1.35 5.9L2.5 5.4Q2.05 6.95 2.2 9.1Q2.45 12.35 3.05 13.85M9,3.85L9.95 3.85Q9.45 5.1 9.25 6.4Q8.75 9.25 9.65 12.2L8.6 12.25L8.25 10.1Q8.05 8 8.2 6.45Q8.4 4.85 9 3.85" />
<path style="fill:#A66221;fill-opacity:1" d="M4.65,3.75Q2.35 4.55 1.1 5.25Q0.7 5 1 4.4Q1.25 3.8 2.6 2.8L5.75 1.9Q8.7 1.2 8.7 1.45Q9.35 1.45 9.65 1.75Q10.05 2.1 10.3 3.1Q6.95 2.95 4.65 3.75M6.75,14.65Q4.85 15.1 3.1 16.05Q2.25 16 2.4 15.6Q2.5 15.15 2.75 14.95L2.95 14.8L5.6 14.15L6.65 13.95L8.5 13.65L8.8 13.7L9.65 13.9L9.7 14.25L6.75 14.65" />
<path style="fill:#BF7A24;fill-opacity:1" d="M2.65,2.75Q5.65 0.45 9.65 0.8Q10.95 1 10.3 3.1Q10.05 2.1 9.65 1.75Q9.35 1.45 8.7 1.45Q8.7 1.2 5.75 1.9L2.6 2.8L2.65 2.75M4.5,14.1Q5.5 13.65 6.55 13.45L7.65 13.25L9.95 13.1Q10.8 13.5 10.6 14.25L9.7 14.25L9.65 13.9L8.8 13.7L8.5 13.65L6.65 13.95L5.6 14.15L2.95 14.8Q3.3 14.55 4.5 14.1" />
<path style="fill:#5F5F5F;fill-opacity:1" d="M6.05,9.55L5.9 7.3L5.9 6.75L7.15 6.6L8.2 6.45Q8.05 8 8.25 10.1L8.6 12.25L6.4 12.65L6.05 9.55" />
<path style="fill:#353535;fill-opacity:1" d="M8.2,6.45L7.15 6.6L5.9 6.75L5.9 7.3L6.05 9.55L6.4 12.65Q4.35 13.05 3.05 13.85Q2.45 12.35 2.2 9.1Q2.05 6.95 2.5 5.4Q5.7 4.15 9 3.85Q8.4 4.85 8.2 6.45" />
</g>
</svg>
