<?xml version="1.0" encoding="utf-8"?>
<svg version="1.1" id="Layer_1"
xmlns="http://www.w3.org/2000/svg"
xmlns:xlink="http://www.w3.org/1999/xlink"
xmlns:author="http://www.sothink.com"
width="39px" height="61px"
xml:space="preserve">
<g id="24" transform="matrix(1, 0, 0, 1, 2.8, 3.7)">
<path style="fill:#B8E0F0;fill-opacity:1" d="M2.55,38.2Q2.85 35.4 2.5 32.25Q3.2 33 4.25 36.45Q5.1 39.3 5.25 39.2Q7.55 36.2 7.1 31.25Q6.35 26.1 5.75 24.2Q7 25.55 8.4 27.85Q9.6 29.95 9.95 31.4Q10.3 30.65 10.1 25.7Q9.85 20.85 9.95 21Q11.9 23.95 14.35 28.8Q14.55 29.35 15 27.4L15.25 23.85Q15 20.35 14.1 16.4L12.8 11.4Q16.65 12.75 19.75 18.85Q20 19.15 19.7 16.55Q19.25 13.9 18.3 11.8Q17.35 9.65 16.25 8.3L17.4 8.9L19.65 10.85L21.85 13.6Q20.9 8.55 17.75 2.9L16.45 1.35Q26.7 9.55 32.05 21.5L33.2 24.25Q29.5 18.2 25.05 14.85Q28.3 18.75 29.5 25.1L29.8 26.75L30 26.6L30.15 26.65Q31 27.75 30.95 29L30.2 28.85Q30.7 32.15 30.6 33.7Q30.5 36.05 29.75 38.4L28.4 41.4Q26.65 38.05 23.25 35.9Q23.75 38.65 22.5 40.7L19.75 36.5L19.45 38.9L19.7 39.15Q19.95 40.05 19.8 40.95L19.7 41L18.95 40.75L17.5 43.65Q16.45 41.9 15.55 41.45L15.15 43.4L14.8 42.75L14.7 42.7L14.35 42.8L14.2 42.9L14.15 43.9Q13.2 42.15 12 41.65Q12.4 43.45 12.25 45.5L12 45.15Q11.6 45.8 11.45 46.55L9.7 45.05L9.05 47.4Q8.8 46.75 8.05 46.3L7.9 46.4L7.15 44.45Q5.8 41.6 5.2 41.5Q5.15 44.45 3.9 46.6Q3.15 45 2.4 45.05L2.25 42.4L2.55 38.2M20.5,15.1Q24.5 27.6 25.55 35.15Q26.5 33.55 26.5 32.2Q27 32.85 27.35 34.15Q29.15 31.25 27.9 25.75Q26.55 21 24.2 18.3L24.7 21.35Q23.05 17.55 20.5 15.1M18.8,20.3L16.15 16.3Q16.85 19.3 16.95 21.6L17.25 20.4Q17.75 19.2 18.8 20.3M17.9,23.75Q17.85 27 19.05 30.75Q20.15 34.3 20.65 34.4L21 30.7Q21 28.05 19.5 24.25Q17.8 20.3 17.9 23.75M13.65,34.25Q15.45 38.8 16.7 40Q16.85 38.25 16.1 35.05Q15.1 31.9 12.5 29.7L13.65 34.25M8.55,33.05L8.7 33.1Q9.5 32.35 8.65 31.5L8.5 31.45Q7.65 32.2 8.55 33.05M9.35,36.5L11.45 39.8Q10.55 35.4 9.6 33.8Q10.35 36.7 9.35 36.5M8.65,43.2Q9.95 41.85 8.5 40.1Q7.6 41.35 8.55 43.1L8.65 43.2M3.8,40.7L3.85 40.75Q4.7 40.45 4 39.75L3.9 39.7Q3.15 40.05 3.8 40.7M5.25,48.6L5.2 48.45Q4.75 47.25 5.65 46.7L5.75 46.75Q6.45 47.55 6.1 48.6Q5.65 48.95 5.25 48.6M11.05,47.6Q11.2 47.95 11 48Q9.4 48.55 10.55 47.05Q11 47.1 11.05 47.6M31.95,35.5L32.35 35.7L32.4 36Q32.35 38.8 31.15 36.1L31.15 36Q31.4 35.6 31.95 35.5M25.2,39.7L25.4 39.8Q26.05 40.7 25.5 41.6L25.4 41.65Q23.45 40.9 25.2 39.7" />
<path style="fill:#F8F8F8;fill-opacity:1" d="M33.2,24.25L34.3 27.4Q35.7 32.5 35.75 37.2Q35.8 40.85 35.15 42.85Q34.8 46.9 31.7 50.4L31.65 50.45Q29 53.25 24.7 55.15Q23.4 56.3 18.8 56.7Q14.15 57.1 11.45 56.15L10.75 55.5L9.5 54.55L2.15 54.8L2.1 53.65L2.1 53.6Q2.45 49.1 2.4 45.05Q3.15 45 3.9 46.6Q5.15 44.45 5.2 41.5Q5.8 41.6 7.15 44.45L7.9 46.4L8.05 46.3Q8.8 46.75 9.05 47.4L9.7 45.05L11.45 46.55Q11.6 45.8 12 45.15L12.25 45.5Q12.4 43.45 12 41.65Q13.2 42.15 14.15 43.9L14.2 42.9L14.35 42.8L14.7 42.7L14.8 42.75L15.15 43.4L15.55 41.45Q16.45 41.9 17.5 43.65L18.95 40.75L19.7 41L19.8 40.95Q19.95 40.05 19.7 39.15L19.45 38.9L19.75 36.5L22.5 40.7Q23.75 38.65 23.25 35.9Q26.65 38.05 28.4 41.4L29.75 38.4Q30.5 36.05 30.6 33.7Q30.7 32.15 30.2 28.85L30.95 29Q31 27.75 30.15 26.65L30 26.6L29.8 26.75L29.5 25.1Q28.3 18.75 25.05 14.85Q29.5 18.2 33.2 24.25M24.7,21.35L24.2 18.3Q26.55 21 27.9 25.75Q29.15 31.25 27.35 34.15Q27 32.85 26.5 32.2Q26.5 33.55 25.55 35.15Q24.5 27.6 20.5 15.1Q23.05 17.55 24.7 21.35M17.25,20.4L16.95 21.6Q16.85 19.3 16.15 16.3L18.8 20.3Q17.75 19.2 17.25 20.4M19.5,24.25Q21 28.05 21 30.7L20.65 34.4Q20.15 34.3 19.05 30.75Q17.85 27 17.9 23.75Q17.8 20.3 19.5 24.25M12.5,29.7Q15.1 31.9 16.1 35.05Q16.85 38.25 16.7 40Q15.45 38.8 13.65 34.25L12.5 29.7M8.5,31.45L8.65 31.5Q9.5 32.35 8.7 33.1L8.55 33.05Q7.65 32.2 8.5 31.45M9.6,33.8Q10.55 35.4 11.45 39.8L9.35 36.5Q10.35 36.7 9.6 33.8M8.55,43.1Q7.6 41.35 8.5 40.1Q9.95 41.85 8.65 43.2L8.55 43.1M3.9,39.7L4 39.75Q4.7 40.45 3.85 40.75L3.8 40.7Q3.15 40.05 3.9 39.7M6.1,48.6Q6.45 47.55 5.75 46.75L5.65 46.7Q4.75 47.25 5.2 48.45L5.25 48.6Q5.65 48.95 6.1 48.6M10.55,47.05Q9.4 48.55 11 48Q11.2 47.95 11.05 47.6Q11 47.1 10.55 47.05M31.15,36L31.15 36.1Q32.35 38.8 32.4 36L32.35 35.7L31.95 35.5Q31.4 35.6 31.15 36M25.4,41.65L25.5 41.6Q26.05 40.7 25.4 39.8L25.2 39.7Q23.45 40.9 25.4 41.65" />
<path style="fill:#7098A8;fill-opacity:1" d="M2.75,18.75L5.55 20.9L7.7 23.25L8.2 24.05Q8.6 21.6 7.75 18.4Q7.65 15.4 7.25 13.9L8.4 14.5L8.95 14.85L9.65 15.8L10.95 18.2Q11.5 15.8 10.1 11.9L9.7 9.5Q9.4 7.8 8.35 6L7.55 4.6L9.15 4.95L10.3 5.35L10.8 5.65L13.05 7.75Q13.7 8.35 12.45 6.05Q11 3.6 8.35 0.55Q9.9 0.6 11.65 1.7L13.9 3.6Q13.35 1.55 11 -0.85L7.9 -3.7Q12.45 -1.65 16.45 1.35L17.75 2.9Q20.9 8.55 21.85 13.6L19.65 10.85L17.4 8.9L16.25 8.3Q17.35 9.65 18.3 11.8Q19.25 13.9 19.7 16.55Q20 19.15 19.75 18.85Q16.65 12.75 12.8 11.4L14.1 16.4Q15 20.35 15.25 23.85L15 27.4Q14.55 29.35 14.35 28.8Q11.9 23.95 9.95 21Q9.85 20.85 10.1 25.7Q10.3 30.65 9.95 31.4Q9.6 29.95 8.4 27.85Q7 25.55 5.75 24.2Q6.35 26.1 7.1 31.25Q7.55 36.2 5.25 39.2Q5.1 39.3 4.25 36.45Q3.2 33 2.5 32.25Q2.85 35.4 2.55 38.2L2.25 42.4L1.5 36.3L1.5 35.25Q1.35 31.65 -0.1 26.3L-1.05 23.25Q1.1 25.55 2.6 28.25Q4.45 31.85 5.35 35.4L5.4 34.55L5.05 31.35L4.45 24.9Q4.15 22.1 2.75 18.75" />
<path style="fill:#305860;fill-opacity:1" d="M1.5,36.3L1.15 34.15Q-1.05 24 -2.8 21.45L-1.05 23.25L-0.1 26.3Q1.35 31.65 1.5 35.25L1.5 36.3M4.45,24.9L5.05 31.35L4.25 27.25Q2.8 20.5 1.45 18.05L2.75 18.75Q4.15 22.1 4.45 24.9M8.4,14.5L7.25 13.9Q7.65 15.4 7.75 18.4L7.45 17.3Q6.15 13.2 4.95 11.5Q7.05 12.55 8.95 14.85L8.4 14.5M10.1,11.9L9.25 9.9Q6.75 4.5 5.25 2.75Q8.25 3.65 10.3 5.35L9.15 4.95L7.55 4.6L8.35 6Q9.4 7.8 9.7 9.5L10.1 11.9" />
</g>
</svg>
