<?xml version="1.0" encoding="utf-8"?>
<svg version="1.1" id="Layer_1"
xmlns="http://www.w3.org/2000/svg"
xmlns:xlink="http://www.w3.org/1999/xlink"
xmlns:author="http://www.sothink.com"
width="148px" height="80px"
xml:space="preserve">
<g id="963" transform="matrix(1, 0, 0, 1, 16.6, 17.3)">
<path style="fill:#F7E3CC;fill-opacity:1" d="M-16.6,-17.3L131.35 -17.3L131.35 62.1L40 62.1L40 62.15L-16.6 62.1L-16.6 51.55L-16.6 41.95L-16.6 41.2L-16.6 29.45L-16.6 24.4L-16.6 1.25L-16.6 -11.35L-16.6 -17.3" />
<path style="fill:#680B01;fill-opacity:1" d="M122.55,32.2Q122.5 33.85 121.85 35.1Q121.2 36.3 120.05 37Q118.85 37.65 117.35 37.65Q115.85 37.65 114.65 37Q113.5 36.3 112.85 35.1Q112.2 33.85 112.2 32.2Q112.2 30.55 112.85 29.3Q113.5 28.1 114.65 27.4Q115.85 26.75 117.35 26.75Q118.85 26.75 120.05 27.4Q121.2 28.1 121.85 29.3Q122.5 30.55 122.55 32.2M96.85,35.6L101.8 35.6L101.8 37.45L94.9 37.45L94.9 26.95L101.6 26.95L101.6 28.8L96.85 28.8L96.85 31.05L100.55 31.05L100.55 32.9L96.85 32.9L96.85 35.6M90.7,31.05L90.7 26.95L92.6 26.95L92.6 37.45L90.7 37.45L90.7 32.9L85.75 32.9L85.75 37.45L83.8 37.45L83.8 26.95L85.75 26.95L85.75 31.05L90.7 31.05M86.4,48.3L85.35 45.25L84.25 48.3L86.4 48.3M86.25,42.2L90 52.7L88 52.7L87.1 50.15L83.6 50.15L82.7 52.7L80.7 52.7L84.45 42.2L86.25 42.2M100.45,42.2L101.9 52.7L99.9 52.7L99 45.65L96.3 50.5L93.6 45.7L92.7 52.7L90.7 52.7L92.15 42.2L93.75 42.2L96.3 47L98.85 42.2L100.45 42.2M117.35,28.6Q116.35 28.6 115.65 29.05Q114.95 29.5 114.6 30.3Q114.3 31.15 114.3 32.2Q114.3 33.25 114.6 34.05Q114.95 34.9 115.65 35.35Q116.35 35.8 117.35 35.8Q118.35 35.8 119.05 35.35Q119.75 34.9 120.1 34.05L120.4 32.2L120.1 30.3Q119.75 29.5 119.05 29.05Q118.35 28.6 117.35 28.6M106.8,28.55L105.35 28.55L105.35 31.75L106.75 31.75L108.05 31.55L108.7 30.95L108.85 30.1L108.7 29.3L108.05 28.75L106.8 28.55M110.85,30L110.6 31.35L110 32.35L109.1 33.05L111.45 37.45L109.45 37.45L107.25 33.55L105.35 33.55L105.35 37.45L103.4 37.45L103.4 26.95L107.25 26.95L109.1 27.25Q109.9 27.5 110.35 28.2Q110.85 28.85 110.85 30M108.75,41.45L108.45 49.7L107.2 49.7L106.9 41.45L108.75 41.45M106.9,52.7L106.9 50.85L108.75 50.85L108.75 52.7L106.9 52.7M59.45,26.95L59.45 28.8L56.45 28.8L56.45 37.45L54.55 37.45L54.55 28.8L51.6 28.8L51.6 26.95L59.45 26.95M46.8,26.95L46.8 37.45L45.2 37.45L40.45 30.25L40.45 37.45L38.5 37.45L38.5 26.95L40.4 26.95L44.9 33.75L44.9 26.95L46.8 26.95M40.65,44.05L37.65 44.05L37.65 52.7L35.75 52.7L35.75 44.05L32.8 44.05L32.8 42.2L40.65 42.2L40.65 44.05M48.9,46.3L48.9 42.2L50.8 42.2L50.8 52.7L48.9 52.7L48.9 48.15L43.95 48.15L43.95 52.7L42 52.7L42 42.2L43.95 42.2L43.95 46.3L48.9 46.3M58.75,48.15L55.05 48.15L55.05 50.85L60 50.85L60 52.7L53.1 52.7L53.1 42.2L59.8 42.2L59.8 44.05L55.05 44.05L55.05 46.3L58.75 46.3L58.75 48.15M78.6,28.8L73.85 28.8L73.85 31.05L77.55 31.05L77.55 32.9L73.85 32.9L73.85 35.6L78.8 35.6L78.8 37.45L71.9 37.45L71.9 26.95L78.6 26.95L78.6 28.8M62.75,32.9L62.75 37.45L60.8 37.45L60.8 26.95L62.75 26.95L62.75 31.05L67.7 31.05L67.7 26.95L69.6 26.95L69.6 37.45L67.7 37.45L67.7 32.9L62.75 32.9M64.1,42.2L71.95 42.2L71.95 44.05L68.95 44.05L68.95 52.7L67.05 52.7L67.05 44.05L64.1 44.05L64.1 42.2M75.25,46.3L78.95 46.3L78.95 48.15L75.25 48.15L75.25 50.85L80.2 50.85L80.2 52.7L73.3 52.7L73.3 42.2L80 42.2L80 44.05L75.25 44.05L75.25 46.3M20.2,26.85L21.4 27.15L22.15 27.55L21.95 29.5L20.4 28.8L18.9 28.55L18.05 28.65Q17.6 28.75 17.3 29L16.95 29.7L17.25 30.35L18.05 30.85L19.1 31.2L20.35 31.6Q21 31.85 21.5 32.2L22.4 33.15L22.7 34.6L22.6 35.6L22 36.6Q21.6 37.05 20.8 37.35L18.65 37.65L16.55 37.45L15.2 36.9L15.4 34.7Q15.85 35.15 16.65 35.45L18.7 35.8L20.05 35.55Q20.55 35.3 20.55 34.65Q20.55 34.15 20.2 33.8Q19.9 33.45 19.35 33.25L18.15 32.8L16.65 32.25L15.5 31.35Q15.05 30.8 15 29.9L15.2 28.8Q15.4 28.25 15.85 27.8Q16.3 27.3 17.05 27.05L18.8 26.75L20.2 26.85M10.2,28.55L9.35 28.65Q8.9 28.75 8.6 29L8.25 29.7L8.55 30.35L9.35 30.85L10.4 31.2L11.65 31.6L12.8 32.2L13.7 33.15L14 34.6L13.9 35.6L13.3 36.6Q12.9 37.05 12.1 37.35L9.95 37.65L7.85 37.45L6.5 36.9L6.7 34.7Q7.15 35.15 7.95 35.45L10 35.8L11.35 35.55Q11.85 35.3 11.85 34.65Q11.85 34.15 11.5 33.8L10.65 33.25L9.45 32.8L7.95 32.25L6.8 31.35Q6.35 30.8 6.3 29.9L6.5 28.8Q6.7 28.25 7.15 27.8L8.35 27.05Q9.05 26.75 10.1 26.75L11.5 26.85L12.7 27.15L13.45 27.55L13.25 29.5L11.7 28.8L10.2 28.55M1.95,26.95L5.7 37.45L3.7 37.45L2.8 34.9L-0.7 34.9L-1.6 37.45L-3.6 37.45L0.15 26.95L1.95 26.95M1.05,30L-0.05 33.05L2.1 33.05L1.05 30M9.9,42.2L17.75 42.2L17.75 44.05L14.75 44.05L14.75 52.7L12.85 52.7L12.85 44.05L9.9 44.05L9.9 42.2M18.95,44.55Q19.6 43.35 20.75 42.65Q21.95 42 23.45 42Q24.95 42 26.15 42.65Q27.3 43.35 27.95 44.55Q28.6 45.8 28.65 47.45Q28.6 49.1 27.95 50.35Q27.3 51.55 26.15 52.25Q24.95 52.9 23.45 52.9Q21.95 52.9 20.75 52.25Q19.6 51.55 18.95 50.35Q18.3 49.1 18.3 47.45Q18.3 45.8 18.95 44.55M36.1,29.2L34.7 28.75L33.2 28.6Q32.1 28.6 31.4 29.05Q30.7 29.5 30.35 30.3Q30.05 31.1 30.05 32.15Q30.05 33.25 30.4 34.05Q30.75 34.9 31.5 35.35Q32.2 35.8 33.3 35.8L34 35.75L34.75 35.65L34.75 33.75L33.6 33.75L33.6 32.2L36.65 32.2L36.65 36.85L35.65 37.25L34.35 37.55L33.05 37.65Q31.55 37.65 30.4 37Q29.25 36.3 28.6 35.1Q27.95 33.85 27.95 32.2Q27.95 30.55 28.6 29.3Q29.25 28.1 30.45 27.4Q31.6 26.75 33.15 26.75L34.25 26.8L35.4 27Q35.95 27.15 36.3 27.35L36.1 29.2M26.25,26.95L26.25 37.45L24.3 37.45L24.3 26.95L26.25 26.95M23.45,43.85Q22.45 43.85 21.75 44.3Q21.05 44.75 20.7 45.55Q20.4 46.4 20.4 47.45Q20.4 48.5 20.7 49.3Q21.05 50.15 21.75 50.6L23.45 51.05L25.15 50.6Q25.85 50.15 26.2 49.3L26.5 47.45L26.2 45.55Q25.85 44.75 25.15 44.3Q24.45 43.85 23.45 43.85" />
<path style="fill:#95154D;fill-opacity:1" d="M29.35,-8.8L29.35 1.7L27.75 1.7L23 -5.5L23 1.7L21.05 1.7L21.05 -8.8L22.95 -8.8L27.45 -2L27.45 -8.8L29.35 -8.8M38.35,-6.95L33.6 -6.95L33.6 -4.7L37.3 -4.7L37.3 -2.85L33.6 -2.85L33.6 -0.15L38.55 -0.15L38.55 1.7L31.65 1.7L31.65 -8.8L38.35 -8.8L38.35 -6.95M53.35,-8.8L50.3 1.7L48.6 1.7L46.25 -5.3L43.9 1.7L42.1 1.7L39.15 -8.8L41.15 -8.8L43.25 -1.35L45.6 -8.8L46.9 -8.8L49.35 -1.55L51.35 -8.8L53.35 -8.8M59.95,-4.7L64.9 -4.7L64.9 -8.8L66.8 -8.8L66.8 1.7L64.9 1.7L64.9 -2.85L59.95 -2.85L59.95 1.7L58 1.7L58 -8.8L59.95 -8.8L59.95 -4.7M71.05,-6.95L71.05 -4.7L74.75 -4.7L74.75 -2.85L71.05 -2.85L71.05 -0.15L76 -0.15L76 1.7L69.1 1.7L69.1 -8.8L75.8 -8.8L75.8 -6.95L71.05 -6.95M80.95,-4L82.25 -4.2L82.9 -4.8L83.05 -5.65L82.9 -6.45L82.25 -7L81 -7.2L79.55 -7.2L79.55 -4L80.95 -4M88.85,-8.35Q90.05 -9 91.55 -9Q93.05 -9 94.25 -8.35Q95.4 -7.65 96.05 -6.45Q96.7 -5.2 96.75 -3.55Q96.7 -1.9 96.05 -0.65Q95.4 0.55 94.25 1.25Q93.05 1.9 91.55 1.9Q90.05 1.9 88.85 1.25Q87.7 0.55 87.05 -0.65Q86.4 -1.9 86.4 -3.55Q86.4 -5.2 87.05 -6.45Q87.7 -7.65 88.85 -8.35M84.55,-7.55Q85.05 -6.9 85.05 -5.75L84.8 -4.4L84.2 -3.4L83.3 -2.7L85.65 1.7L83.65 1.7L81.45 -2.2L79.55 -2.2L79.55 1.7L77.6 1.7L77.6 -8.8L81.45 -8.8L83.3 -8.5Q84.1 -8.25 84.55 -7.55M89.85,-0.4Q90.55 0.05 91.55 0.05Q92.55 0.05 93.25 -0.4Q93.95 -0.85 94.3 -1.7L94.6 -3.55L94.3 -5.45Q93.95 -6.25 93.25 -6.7L91.55 -7.15L89.85 -6.7Q89.15 -6.25 88.8 -5.45Q88.5 -4.6 88.5 -3.55Q88.5 -2.5 88.8 -1.7Q89.15 -0.85 89.85 -0.4M93.35,11.7Q93.35 13.35 92.7 14.55Q92 15.7 90.85 16.3Q89.7 16.95 88.2 16.95L84.25 16.95L84.25 6.45L88.2 6.45Q89.7 6.45 90.85 7.1Q92 7.7 92.7 8.85Q93.35 10.05 93.35 11.7M100.1,5.7L99.8 13.95L98.55 13.95L98.25 5.7L100.1 5.7M82.45,8.3L77.7 8.3L77.7 10.55L81.4 10.55L81.4 12.4L77.7 12.4L77.7 15.1L82.65 15.1L82.65 16.95L75.75 16.95L75.75 6.45L82.45 6.45L82.45 8.3M86.2,8.3L86.2 15.1L88.2 15.1Q89.7 15.1 90.5 14.2Q91.25 13.3 91.25 11.7Q91.25 10.1 90.5 9.2Q89.7 8.3 88.2 8.3L86.2 8.3M100.1,15.1L100.1 16.95L98.25 16.95L98.25 15.1L100.1 15.1M74.55,6.45L70.9 11.4L74.55 16.95L72.4 16.95L68.75 11.4L72.4 6.45L74.55 6.45M68.4,6.45L68.4 16.95L66.45 16.95L66.45 6.45L68.4 6.45M63.45,6.4L64.85 6.85L64.65 8.7L63.35 8.25L61.85 8.1Q60.85 8.1 60.15 8.55Q59.45 9 59.1 9.8Q58.8 10.65 58.8 11.7Q58.8 12.75 59.1 13.55Q59.45 14.4 60.15 14.85L61.85 15.3L63.35 15.15L64.65 14.7L64.85 16.55L63.45 17L61.85 17.15Q60.35 17.15 59.15 16.5Q58 15.8 57.35 14.6Q56.7 13.35 56.7 11.7Q56.7 10.05 57.35 8.8Q58 7.6 59.15 6.9Q60.35 6.25 61.85 6.25L63.45 6.4M54.95,8.8Q55.6 10.05 55.65 11.7Q55.6 13.35 54.95 14.6Q54.3 15.8 53.15 16.5L50.45 17.15Q48.95 17.15 47.75 16.5Q46.6 15.8 45.95 14.6Q45.3 13.35 45.3 11.7Q45.3 10.05 45.95 8.8Q46.6 7.6 47.75 6.9Q48.95 6.25 50.45 6.25Q51.95 6.25 53.15 6.9Q54.3 7.6 54.95 8.8M52.15,8.55Q51.45 8.1 50.45 8.1Q49.45 8.1 48.75 8.55Q48.05 9 47.7 9.8Q47.4 10.65 47.4 11.7Q47.4 12.75 47.7 13.55Q48.05 14.4 48.75 14.85L50.45 15.3L52.15 14.85Q52.85 14.4 53.2 13.55L53.5 11.7L53.2 9.8Q52.85 9 52.15 8.55M44.85,16.95L38.6 16.95L38.6 6.45L40.55 6.45L40.55 15.1L44.85 15.1L44.85 16.95M36.3,6.45L36.3 16.95L34.7 16.95L29.95 9.75L29.95 16.95L28 16.95L28 6.45L29.9 6.45L34.4 13.25L34.4 6.45L36.3 6.45M25.85,6.45L25.85 12.45Q25.85 13.9 25.35 14.95Q24.9 16 23.9 16.6Q22.95 17.15 21.5 17.15Q20 17.15 19.05 16.6Q18.1 16 17.6 14.95Q17.15 13.9 17.15 12.45L17.15 6.45L19.05 6.45L19.05 11.8L19.25 13.6Q19.45 14.35 19.95 14.85Q20.5 15.3 21.5 15.3Q22.5 15.3 23 14.85L23.75 13.6L23.9 11.8L23.9 6.45L25.85 6.45" />
</g>
</svg>
