<?xml version="1.0" encoding="utf-8"?>
<svg version="1.1" id="Layer_1"
xmlns="http://www.w3.org/2000/svg"
xmlns:xlink="http://www.w3.org/1999/xlink"
xmlns:author="http://www.sothink.com"
width="118px" height="54px"
xml:space="preserve">
<g id="240" transform="matrix(1, 0, 0, 1, -3.35, 0.15)">
<path style="fill:#2C5500;fill-opacity:1" d="M107.65,-0.15Q112.4 -0.15 115.55 1.45Q121.3 4.5 121.3 13.2L121.3 40.2Q121.05 52.95 107.65 52.95L17 52.95Q3.7 52.95 3.35 40.2L3.35 39.65L3.35 13.2Q3.35 4.5 9.15 1.45Q12.25 -0.15 17 -0.15L107.65 -0.15M107.65,1.8L17 1.8Q5.4 1.8 5.4 13.2L5.4 39.65L5.4 40.2Q5.7 51 17 51L107.8 51Q119 50.9 119.35 40.2L119.35 13.2Q119.35 1.8 107.65 1.8" />
<linearGradient
id="LinearGradID_490" gradientUnits="userSpaceOnUse" gradientTransform="matrix(0.00260925, 0.0232544, -0.0927887, 0.0100403, 73.5, 27.1)" spreadMethod ="pad" x1="-819.2" y1="0" x2="819.2" y2="0" >
<stop  offset="0.00392157" style="stop-color:#D9F07E;stop-opacity:1" />
<stop  offset="0.423529" style="stop-color:#86DB26;stop-opacity:1" />
<stop  offset="1" style="stop-color:#448307;stop-opacity:1" />
</linearGradient>
<path style="fill:url(#LinearGradID_490) " d="M119.35,13.2L119.35 40.2Q119 50.9 107.8 51L17 51Q5.7 51 5.4 40.2L5.4 39.65L5.4 13.2Q5.4 1.8 17 1.8L107.65 1.8Q119.35 1.8 119.35 13.2M115.6,16.05Q115.35 7.55 108.1 5.7L107.45 5.5L21.25 5.5Q9.5 5.5 9.2 16.05L9.2 16.6L9.2 36.7L9.4 38.85L9.65 40.2Q11.45 47.35 21.25 47.35L107.65 47.1Q111.8 46.85 113.65 44.55Q115.5 42.2 115.6 40.6L115.6 36.7L115.6 16.6L115.6 16.05" />
<linearGradient
id="LinearGradID_491" gradientUnits="userSpaceOnUse" gradientTransform="matrix(0.000549316, 0.0266113, -0.303116, 0.000366211, -64.15, 26.35)" spreadMethod ="pad" x1="-819.2" y1="0" x2="819.2" y2="0" >
<stop  offset="0" style="stop-color:#AEEB48;stop-opacity:1" />
<stop  offset="1" style="stop-color:#669400;stop-opacity:1" />
</linearGradient>
<path style="fill:url(#LinearGradID_491) " d="M115.6,16.6L115.6 36.7L115.6 40.6Q115.5 42.2 113.65 44.55Q111.8 46.85 107.65 47.1L21.25 47.35Q11.45 47.35 9.65 40.2L9.4 38.85L9.2 36.7L9.2 16.6L9.2 16.05Q9.5 5.5 21.25 5.5L107.45 5.5L108.1 5.7Q115.35 7.55 115.6 16.05L115.6 16.6" />
</g>
</svg>
