<?xml version="1.0" encoding="utf-8"?>
<svg version="1.1" id="Layer_1"
xmlns="http://www.w3.org/2000/svg"
xmlns:xlink="http://www.w3.org/1999/xlink"
xmlns:author="http://www.sothink.com"
width="75px" height="94px"
xml:space="preserve">
<g id="928" transform="matrix(1, 0, 0, 1, 0, 0)">
<path style="fill:#FFFFC8;fill-opacity:1" d="M43.55,21.8L42.8 24.8Q42.1 27.15 42.35 28L41.95 26.8L41.55 25.6Q39.95 26.15 38.3 28Q36.85 29.6 36.15 29.6Q33.1 29.6 32.45 27.3L30.75 14.8L30.75 12.8L31.8 13.6L33.15 14.8L33.05 13.65L32.35 10L32.35 6.4L33.3 7.3L34.35 7.6Q35.3 7.6 36.05 5.25L37.55 0.8L37.95 0.8Q38.25 1.95 38.65 9.3Q39.6 15.75 42.75 14.4L42.8 15.3Q42.85 18.2 43.55 21.8" />
<path style="fill:#D48777;fill-opacity:1" d="M59.15,13.2L59.15 15.2L56 23.9L55.95 24L56.1 24L58.75 23.6L59.15 23.6L57.9 26.3L56.6 28.8Q55 31.6 51.15 33.2L48 30.65L46.5 29.4L46.35 28.2Q46.35 27.45 48.75 23.65L51.4 19.7L52.1 18.75L51.7 19.5L51.55 19.8Q51.05 20.75 51.15 21.6L50.75 22L52.65 20.65L55.15 17.8L58.75 13.2L59.15 13.2" />
<path style="fill:#F6DEF4;fill-opacity:1" d="M61.95,49.2L64.7 50.4L67.1 51.35Q73.85 53.9 74.35 54.4Q73.95 54.4 73.95 55.2L63.8 55.6L60.35 55.6L64.15 54.25L64.75 54L64.25 53.75L59.75 52L55.55 50.4Q55.95 50.4 55.95 50L59.15 49.2L61.95 49.2M46.15,81.9L43.65 80.45L43.45 80.45L44.05 81.9L44.7 83.15L42.85 82.45Q41.5 81.7 40.35 81.7Q38.4 81.7 37.8 82.55L37.05 84.55L37.05 84.75Q33.6 81.3 31.7 81.3Q31.05 81.3 30.55 81.7L30.05 82.5Q29.5 82.4 28.9 81.35L28.2 80.05L27.6 80.85L25.85 78.5Q24.45 76.45 23.9 76.15L20.5 75.6L17.7 75.5Q20.75 73.05 22.75 73.05L24.75 74.3Q26.6 75.5 28.1 75.5Q28.8 75.5 29.1 75.05L29.45 73.45L30.7 73.45L33.45 73.85Q35.05 73.85 37.9 72.6L38.6 72.3L41.65 76.6Q44.65 80.6 46.15 81.9" />
<path style="fill:#FAEBE4;fill-opacity:1" d="M25.15,9.2Q25.55 9.2 25.55 8Q27.05 10.7 27.95 13.7L28.65 16.3L30.35 26.4L29.75 26L29.25 25.65L30 27.8Q30.8 30.05 31.15 30.4L27.45 29.2L24.75 28.25L21.8 22.9Q18.8 17.3 17.9 15.1L17.55 14L20.35 14.4L20.35 11.2Q17.1 1.15 16.35 0.4L16.35 0L20.8 4.4L25.15 9.2M29.15,25.2L29.15 25.6L29.25 25.65L29.15 25.2" />
<path style="fill:#D7BCC5;fill-opacity:1" d="M8.65,19.95L14.75 27.6L12.7 27.4L11.3 27.25L11.95 27.55Q13.4 28.3 13.95 28.8Q13.05 29 11.55 29.7L9.85 30.65L8.5 29.8L3.55 26.45L1.95 25.2L1.95 24.4L7.55 24.4Q7.7 23.9 6.35 21.6L5.85 20.8Q3.9 17.75 2.75 16.8Q5.7 16.45 8.4 19.65L8.65 19.95M9.95,26.8L10.35 27.2L11.3 27.25L9.95 26.8M28.95,68.3L29.95 65.6Q31.55 66.1 32.4 67.2Q33 68 34.15 68Q35.85 68 35.55 62.4L36.35 62.4Q37.75 63.1 43.55 66.55Q43.6 68.6 44.5 70.85L44.65 71.25Q45.75 73.9 47.55 74.4Q45.55 74.4 45.55 74.8L49 77.85Q50.35 79.15 50.35 81Q50.35 81.5 49.95 81.7Q49.55 81.9 49.55 82.4Q49.55 83.55 52.15 87.7Q54.75 91.85 54.75 93.2L54.35 92.8Q52.85 91.1 48.25 88.3Q43.75 85.6 42.75 85.6L42.55 87.25L42.35 89.2L39.95 89.2L38.45 88.05Q37.1 87.2 36.35 87.2L34.6 89.75Q33.2 91.65 32.35 92Q29.5 86.3 28.75 85.6L26.75 88.4Q22.45 82.8 22.85 78.95L11.5 81.7L10.75 81.6Q10.75 81.2 12.95 77.55Q15.15 73.85 15.15 73.2L12.35 73.2Q12.45 72.35 13.8 71.4Q14.95 70.6 16.95 69.7Q20.8 68 21.95 68L24.35 69.35Q26.85 70.9 27.95 72Q27.95 70.8 28.95 68.3M41.65,76.6L38.6 72.3L37.9 72.6Q35.05 73.85 33.45 73.85L30.7 73.45L29.45 73.45L29.1 75.05Q28.8 75.5 28.1 75.5Q26.6 75.5 24.75 74.3L22.75 73.05Q20.75 73.05 17.7 75.5L20.5 75.6L23.9 76.15Q24.45 76.45 25.85 78.5L27.6 80.85L28.2 80.05L28.9 81.35Q29.5 82.4 30.05 82.5L30.55 81.7Q31.05 81.3 31.7 81.3Q33.6 81.3 37.05 84.75L37.05 84.55L37.8 82.55Q38.4 81.7 40.35 81.7Q41.5 81.7 42.85 82.45L44.7 83.15L44.05 81.9L43.45 80.45L43.65 80.45L46.15 81.9Q44.65 80.6 41.65 76.6M46.35,82.1L46.55 82.1L46.15 81.9L46.35 82.1" />
<path style="fill:#FBDAD3;fill-opacity:1" d="M0.35,47.6L0 47.6L2.35 47L5.15 46Q4.75 45.25 3.6 44.25L2.4 43.25L5.55 43.9L8.75 44.65L15.55 46.4Q15.15 46.55 13.55 47.8L11.55 49.2Q12.15 49.6 13.9 50.2Q15.5 50.75 15.95 51.2L14.45 52.6Q13.15 53.75 13.15 54.4Q13.15 54.9 13.55 55Q13.95 55.1 13.95 55.6Q13.95 56.4 12.6 57.15L10.9 57.85L10 57.75L4.35 57.2Q5.9 56.1 7.5 54Q8.9 52.2 9.1 51.3L9.15 51Q9.15 50.3 8.3 49.85Q7.7 49.45 6.6 49.2L0.35 47.6" />
<path style="fill:#FFFFFF;fill-opacity:1" d="M46.15,81.9L46.55 82.1L46.35 82.1L46.15 81.9" />
</g>
</svg>
