<?xml version="1.0" encoding="utf-8"?>
<svg version="1.1" id="Layer_1"
xmlns="http://www.w3.org/2000/svg"
xmlns:xlink="http://www.w3.org/1999/xlink"
xmlns:author="http://www.sothink.com"
width="26px" height="34px"
xml:space="preserve">
<g id="1089" transform="matrix(1, 0, 0, 1, 0, 0)">
<path style="fill:#785EA8;fill-opacity:1" d="M2.95,17.25L5.35 15.25L5.65 15.1L6.75 15.05Q7 15 6.9 14.6L6.8 14.35Q9.05 13 10.5 12.75L10.4 12.95L10.9 12.85L11.4 12.85L11.7 13.1Q6.9 15.3 6.5 17.9Q6.3 19.05 6.75 20.8L7.05 21.4L9 20.4Q11.3 20.05 12.5 18.5Q13.25 17.45 13.5 16.05L14.45 16.25L15.7 16.1L16.2 16.95L16.65 17.05Q15.5 17.9 17.5 17.55L17.55 17.55L18.5 20L18.95 21.3L18.75 22.85Q18.45 23.75 18.7 23.5Q20.6 21.6 20.15 18.75Q19.75 16.15 17.8 14.75L17.25 14.4L17.65 14L19.35 14.75Q21.15 15.75 22.5 18L22.5 18.4Q22.5 21.25 21.8 23.1L21.2 22.95Q19.8 24.05 21.35 24.15L20.8 24.95L19.65 26Q19.5 25.7 19.1 25.65Q17.2 26.35 18.35 26.8L16.1 27.6L16.25 28Q16.3 28.6 15.8 28.55L14.35 28.25L14.15 28.1L13.9 28.15L12.45 28.15Q13.9 27.05 13.6 26.15L9.5 26.75L9.4 26.75L9.25 26.85Q7.45 27.35 8 26.65L7.4 26.5Q7.9 26.45 7.6 25.95Q7.35 25.55 6.9 25.55Q6.3 25.85 6.05 26.05L5 25.55L4.65 25.35L4.4 25.4Q1.7 25.45 3.5 24.45L2.9 23.75Q1.8 22.35 1.65 20.3Q2.15 18.6 2.95 17.25M11.55,2.7L11.8 1.8L11.8 2.05L11.9 2.75L13 3L13.8 3.25Q13 4.1 14.5 3.75L14.7 3.6L16.3 4.55L16.45 4.15Q16.5 3.95 16.85 3.95L16.9 3.95Q17.45 4.8 17.4 5.9L16.85 6.2L16.05 6.45L15.75 6.25L15.6 5.85L14.25 6.15L13.5 5.95L14.4 5.85L14.65 5.45Q14.65 4.85 14.1 4.85Q13.25 5.5 13.25 5.75Q12.7 5.3 12.3 4.25L12.15 3.85L11.9 2.75L11.55 2.7M14.2,10.65Q15.1 11.2 15.2 11.75L15.2 11.55Q15.25 10.9 15.55 10.35Q15.9 9.75 16.35 9.75Q17.1 9.75 16.9 10.35Q17.15 10.05 17.5 10.05L17.6 10.05L17.7 11L17.6 11.6L17.25 11.85L16.35 12.15L15.95 12.05Q15.8 11.9 15.9 11.65L15.25 11.85L14.95 12L14.5 12.05Q13.4 12.05 13.25 11L13.2 10.55L13.25 10.2L13.1 10.15Q13.15 10.05 13.3 10.05L13.25 10.2L14.2 10.65M6.6,8.55Q8.3 7 9.7 7.05L9.9 7.05L10.2 7.7L10.75 8.5L11.1 8.15L11.5 8.3Q11.9 8.75 11.45 8.9L10.45 9L10.05 9.15L8.9 9.35L7.15 9.15L6.6 8.55M9.55,8.1Q9.4 7.95 9.2 7.95Q7.55 9.4 9.45 8.8Q10.1 8.6 9.55 8.1M5.1,16.25Q3.7 17.9 5.55 16.7Q5.75 16.55 5.4 16.35L5.1 16.25M4.4,19.25Q3.5 20.1 3.3 20.95Q2.5 21.35 3.2 21.85Q3.25 22.55 3.75 23.25Q3.9 23.45 4.1 23.1L4.4 22.45L5.9 22.6Q6.85 22.35 6.05 21.7L4.8 20.9Q4.85 20 4.4 19.25M11.5,23.3Q11.2 22.9 10.8 22.85Q8.85 24.4 11.3 23.9Q11.8 23.8 11.5 23.3M14.55,21.6Q14.8 21.55 14.7 21.2L14.1 20.75Q12.7 22.15 14.55 21.6M16.8,20.1Q17.35 19.95 16.9 19.5L16.5 19.35Q14.85 20.55 16.8 20.1M9.7,27.85Q10.05 27.85 10.25 28.2Q10.45 28.7 10.05 28.8Q8.2 29.3 9.7 27.85M20.45,27.55Q18.55 28.05 20.1 26.55L20.7 27Q20.85 27.5 20.45 27.55" />
<path style="fill:#443B74;fill-opacity:1" d="M23.4,19.7L24 21.8Q24.4 24.3 23 26.75Q21.25 29.7 18.05 30.9Q14.8 32.1 11.75 31.75Q8.7 31.4 5.8 29.35Q1.25 26.15 1.3 22.3L1.6 20.45L1.65 20.3Q1.8 22.35 2.9 23.75L3.5 24.45Q1.7 25.45 4.4 25.4L4.65 25.35L5 25.55L6.05 26.05Q6.3 25.85 6.9 25.55Q7.35 25.55 7.6 25.95Q7.9 26.45 7.4 26.5L8 26.65Q7.45 27.35 9.25 26.85L9.4 26.75L9.5 26.75L13.6 26.15Q13.9 27.05 12.45 28.15L13.9 28.15L14.15 28.1L14.35 28.25L15.8 28.55Q16.3 28.6 16.25 28L16.1 27.6L18.35 26.8Q17.2 26.35 19.1 25.65Q19.5 25.7 19.65 26L20.8 24.95L21.35 24.15Q19.8 24.05 21.2 22.95L21.8 23.1Q22.5 21.25 22.5 18.4L22.5 18L23.4 19.7M15.7,16.1L14.45 16.25L13.5 16.05Q13.25 17.45 12.5 18.5Q11.3 20.05 9 20.4Q9.6 20.05 10.35 19.6Q12.75 18.05 13.4 14.75L16.15 14.9L16.2 14.85L17 15.5L15.7 16.1M13.9,7.65L12.35 6.2Q11.2 4.95 11.35 3.6L11.5 2.9L11.55 2.7L11.9 2.75L12.15 3.85L12.3 4.25Q12.7 5.3 13.25 5.75Q13.25 5.5 14.1 4.85Q14.65 4.85 14.65 5.45L14.4 5.85L13.5 5.95L14.25 6.15L15.6 5.85L15.75 6.25L16.05 6.45L16.85 6.2L17.4 5.9L17 7.55L16.3 7.45L14.6 7.9L14.4 8L14.3 7.95L13.9 7.65M11,6.95Q12.05 8.25 12.95 8.65L13.15 8.7L12.55 8.95Q12.25 9.05 12.05 9.25L11.9 9.45L11.35 10.15L11.05 10.1Q8.45 10.35 7.15 9.15L8.9 9.35L10.05 9.15L10.45 9L11.45 8.9Q11.9 8.75 11.5 8.3L11.1 8.15L10.75 8.5L10.2 7.7L9.9 7.05L11 6.95M16.75,13Q12.95 14.9 12.9 11.05L12.95 10.65Q12.95 10.3 13.1 10.15L13.25 10.2L13.2 10.55L13.25 11Q13.4 12.05 14.5 12.05L14.95 12L15.25 11.85L15.9 11.65Q15.8 11.9 15.95 12.05L16.35 12.15L17.25 11.85L17.6 11.6L17.6 11.7Q17.35 12.65 16.75 13M9.45,8.8Q7.55 9.4 9.2 7.95Q9.4 7.95 9.55 8.1Q10.1 8.6 9.45 8.8M4.8,20.9L6.05 21.7Q6.85 22.35 5.9 22.6L4.4 22.45L4.1 23.1Q3.9 23.45 3.75 23.25Q3.25 22.55 3.2 21.85Q2.5 21.35 3.3 20.95Q3.5 20.1 4.4 19.25Q4.85 20 4.8 20.9M8.1,17.55Q8.6 15.95 10.45 15Q12.25 14.1 12.15 14.25L10.75 17.4Q9.7 19.15 7.85 19.7Q7.55 19.15 8.1 17.55M11.3,23.9Q8.85 24.4 10.8 22.85Q11.2 22.9 11.5 23.3Q11.8 23.8 11.3 23.9M14.1,20.75L14.7 21.2Q14.8 21.55 14.55 21.6Q12.7 22.15 14.1 20.75M10.05,28.8Q10.45 28.7 10.25 28.2Q10.05 27.85 9.7 27.85Q8.2 29.3 10.05 28.8M20.7,27L20.1 26.55Q18.55 28.05 20.45 27.55Q20.85 27.5 20.7 27" />
<path style="fill:#373254;fill-opacity:1" d="M18.9,19.85Q18.75 17.7 17.8 16.45L17 15.5L16.2 14.85Q17.55 14.15 18.2 13.45L18.55 12.85Q20.85 13.85 22.4 15.4Q24.35 17.4 25.1 20.35L24 21.8L23.4 19.7L22.5 18Q21.15 15.75 19.35 14.75L17.65 14L17.25 14.4L17.8 14.75Q19.75 16.15 20.15 18.75Q20.6 21.6 18.7 23.5Q18.45 23.75 18.75 22.85L18.95 21.3L18.9 19.85M2.95,17.25Q2.15 18.6 1.65 20.3L1.6 20.45L1.3 22.3L0.1 20.65Q0.35 19.05 1.2 17.45Q2.6 14.75 4.7 13.15L5.5 12.6Q6.45 11.95 7.6 11.45L9.2 11.05L11.7 11.05L11.4 11.75Q9.75 11.7 6.65 13.45Q4.35 14.75 2.95 17.25M11.55,2.7L11.5 2.9L11.3 2.55L10.65 1.05L11.15 0.05Q12.2 -0.1 14.65 0.6Q17.05 1.3 18.3 3.7Q19.5 6.1 17.85 8Q18.65 8.45 18.8 9.2L19 9.85L19.1 10.75L17.8 11.6L17.6 11.7L17.6 11.6L17.7 11L17.6 10.05Q17.4 9.25 16.65 8.9Q15 8.55 14.7 9.8L14.8 10.1Q15.2 11.45 14.1 10.45Q13.55 10 13.3 10.05Q13.15 10.05 13.1 10.15Q12.95 10.3 12.95 10.65L12.05 9.25Q12.25 9.05 12.55 8.95L13.15 8.7L12.95 8.65L14.3 7.95L14.4 8L14.6 7.9L16.3 7.45L17 7.55L17.4 5.9Q17.45 4.8 16.9 3.95L16.7 3.7Q15.55 2.15 12.6 1.55L12 1.5L11.8 1.8L11.55 2.7M13.8,9L13.85 9L13.85 8.95L13.8 9" />
<path style="fill:#29253F;fill-opacity:1" d="M9,20.4L7.05 21.4L6.75 20.8Q6.3 19.05 6.5 17.9Q6.9 15.3 11.7 13.1L11.8 13.05L11.5 12.35L11.5 11.75L11.4 11.75L11.7 11.05L9.2 11.05L7.6 11.45L8.25 11.15Q7.5 11.15 6.25 10.25Q5 9.3 4.9 8.65L5.35 8.1L5.75 7.6Q7.25 5.95 8.9 5.85L10.65 5.9Q9.7 4.25 10.15 2.35L10.65 1.05L11.3 2.55L11.5 2.9L11.35 3.6Q11.2 4.95 12.35 6.2L13.9 7.65L14.3 7.95L12.95 8.65Q12.05 8.25 11 6.95L9.9 7.05L9.7 7.05Q8.3 7 6.6 8.55L7.15 9.15Q8.45 10.35 11.05 10.1L11.35 10.15L11.9 9.45L12.05 9.25L12.95 10.65L12.9 11.05Q12.95 14.9 16.75 13Q17.35 12.65 17.6 11.7L17.8 11.6L19.1 10.75L19 11.85L18.55 12.85L18.2 13.45Q17.55 14.15 16.2 14.85L16.15 14.9L13.4 14.75Q12.75 18.05 10.35 19.6Q9.6 20.05 9 20.4M1.3,22.3Q1.25 26.15 5.8 29.35Q8.7 31.4 11.75 31.75Q14.8 32.1 18.05 30.9Q21.25 29.7 23 26.75Q24.4 24.3 24 21.8L25.1 20.35L25.45 22.4Q25.7 24.9 24.5 26.85Q19.45 35.25 9.2 32.4Q4.3 31 1.65 27Q-0.4 23.9 0.1 20.65L1.3 22.3M7.85,19.7Q9.7 19.15 10.75 17.4L12.15 14.25Q12.25 14.1 10.45 15Q8.6 15.95 8.1 17.55Q7.55 19.15 7.85 19.7" />
<path style="fill:#9C89C2;fill-opacity:1" d="M17,15.5L17.8 16.45Q18.75 17.7 18.9 19.85L18.95 21.3L18.5 20L17.55 17.55L17.5 17.55Q15.5 17.9 16.65 17.05L16.2 16.95L15.7 16.1L17 15.5M6.65,13.45Q9.75 11.7 11.4 11.75L11.5 11.75L11.5 12.35L11.8 13.05L11.7 13.1L11.4 12.85L10.9 12.85L10.4 12.95L10.5 12.75Q9.05 13 6.8 14.35L6.9 14.6Q7 15 6.75 15.05L5.65 15.1L5.35 15.25L2.95 17.25Q4.35 14.75 6.65 13.45M16.85,3.95Q16.5 3.95 16.45 4.15L16.3 4.55L14.7 3.6L14.5 3.75Q13 4.1 13.8 3.25L13 3L11.9 2.75L11.8 2.05L11.8 1.8L12 1.5L12.6 1.55Q15.55 2.15 16.7 3.7L16.9 3.95L16.85 3.95M13.25,10.2L13.3 10.05Q13.55 10 14.1 10.45Q15.2 11.45 14.8 10.1L14.7 9.8Q15 8.55 16.65 8.9Q17.4 9.25 17.6 10.05L17.5 10.05Q17.15 10.05 16.9 10.35Q17.1 9.75 16.35 9.75Q15.9 9.75 15.55 10.35Q15.25 10.9 15.2 11.55L15.2 11.75Q15.1 11.2 14.2 10.65L13.25 10.2M5.4,16.35Q5.75 16.55 5.55 16.7Q3.7 17.9 5.1 16.25L5.4 16.35M16.5,19.35L16.9 19.5Q17.35 19.95 16.8 20.1Q14.85 20.55 16.5 19.35" />
</g>
</svg>
