<?xml version="1.0" encoding="utf-8"?>
<svg version="1.1" id="Layer_1"
xmlns="http://www.w3.org/2000/svg"
xmlns:xlink="http://www.w3.org/1999/xlink"
xmlns:author="http://www.sothink.com"
width="21px" height="32px"
xml:space="preserve">
<g id="270" transform="matrix(1, 0, 0, 1, 0.2, 2.7)">
<path style="fill:#4F433E;fill-opacity:1" d="M14.5,2.25L15.05 2.75L17.8 5.4L19.1 7L19.1 4.7L19.1 4.25L16.35 1.5L14.9 0.05L13.6 -1.1L13.15 -1.4Q9.6 0.15 6.25 2.6Q2.85 5.1 1.3 7.1L0.9 7.6L0.85 8.1L0.85 8.55L0.85 8.65L0.9 10.3Q1.05 13 1.3 14.15Q2 17.15 3.2 19.35Q4.3 21.5 6.05 23.3Q7.65 24.95 9.25 25.85L12 27.35L14.8 24.8L15.55 23.9L16.75 22.3L17.55 20.8L17.8 19.85L16.05 21.65L14.8 22.7L12.85 24.2L12.65 24.35L12.6 24.35L12.4 24.5L13.85 22.55L14.05 22.3L15.85 20.75L16.65 19.9L18 18.5L18.8 13.25L18.85 13.05L19.05 10.75L19.95 9.9L19.85 10.95L19.7 12.7L19.6 14.05Q19.25 18.05 18.7 20.35Q18.15 22.65 16 25.3L13.05 28.1L12.95 28.15L11.9 28.75Q4.1 25.25 1.4 18.25L0.75 16.6L0.05 13.8Q-0.3 12 -0.2 8.2L-0.2 7.85L-0.2 7.5Q0.95 5.6 3.15 3.75L7.45 0.45L10.7 -1.6Q11.75 -2.3 12.95 -2.7L13 -2.7L14.5 -1.65L16.8 0.5L17.3 1L19.95 3.75Q20.25 4.05 20.2 5.35L20.2 5.9L20.05 7.7L19.95 9.45L19.65 9.05L19.1 8.65L19.1 8.2L17.35 6.1L15.75 4.55L15.55 4.15L14.55 2.45L14 2L13.8 1.75L14.5 2.25M12.05,23.25L12.15 24.2L12.35 24.55L12.25 24.55L12 24.45L11.65 24.25L9.7 22.75L7.6 20.45Q5.45 17.45 4.4 13.55L3.85 11.05Q3.65 9.9 3.85 9.35L3.95 9.2L4.95 8.25L7.7 5.75L10.9 3.4Q13.3 1.75 13.5 1.7L13.65 1.7L13.3 2.7L13.15 3.1Q11.45 4 9.5 5.5L6.2 8.2L5.5 8.95L5 9.1L4.15 9.55Q4 9.65 4.2 9.8L4.6 10.1L4.9 10.25L5.05 11.8Q5.5 14.45 6.85 17Q8.65 20.4 10.2 21.85L11.75 23.05L12.05 23.25" />
<path style="fill:#FFFFFF;fill-opacity:1" d="M0.9,7.6L1.3 7.1Q2.85 5.1 6.25 2.6Q9.6 0.15 13.15 -1.4L13.6 -1.1L14.9 0.05L13.75 -0.15L13.65 -0.2Q13.2 -0.35 10.3 1.1Q7.4 2.5 6.6 3.1L5.2 4L3.8 5.05L0.85 8.1L0.9 7.6" />
<path style="fill:#CBB4AC;fill-opacity:1" d="M13.8,0.55L13.8 0.65L13.7 1.7L13.65 1.7L13.5 1.7Q13.3 1.75 10.9 3.4L7.7 5.75L4.95 8.25L3.95 9.2L3.85 9.35Q3.65 9.9 3.85 11.05L4.4 13.55Q5.45 17.45 7.6 20.45L9.7 22.75L11.65 24.25Q9.7 23.9 8.5 23.15Q7 22.15 5.6 20Q4.15 17.85 3.35 15.75Q2.55 13.65 2.2 11.75L1.75 9.85L1.35 9.1L1.15 8.8Q0.85 8.45 0.85 8.65L0.85 8.55L0.85 8.1L3.8 5.05L5.2 4L6.6 3.1Q7.4 2.5 10.3 1.1Q13.2 -0.35 13.65 -0.2L13.75 -0.15L13.8 0.55M12.85,24.2L14.8 22.7L16.05 21.65L17.8 19.85L17.55 20.8L16.75 22.3L16.7 22.2Q16.65 22.15 15.5 23.2L15.4 23.25Q14.25 24.25 12.85 24.2M19.1,7L17.8 5.4L15.05 2.75L14.5 2.25L14.65 1.75Q14.9 1.15 15.25 1.15L15.3 1.15L16.8 2.75L18.6 4.4L19.1 4.7L19.1 7" />
<path style="fill:#EEDED3;fill-opacity:1" d="M13.8,1.75L13.75 1.75L13.7 1.7L13.8 0.65L13.8 0.55L13.75 -0.15L14.9 0.05L16.35 1.5L19.1 4.25L19.1 4.7L18.6 4.4L16.8 2.75L15.3 1.15L15.25 1.15Q14.9 1.15 14.65 1.75L14.5 2.25L13.8 1.75" />
<path style="fill:#723C13;fill-opacity:1" d="M18.75,10.95L17.15 11.65L16.8 15L15.75 18.75L14.05 22.3L13.85 22.55L12.4 24.5L12.35 24.55L12.15 24.2L12.05 23.25L12.05 22.6L12.1 17.3L12.15 12.25L7.45 11.15L4.9 10.25L4.6 10.1L4.2 9.8Q4 9.65 4.15 9.55L5 9.1L5.5 8.95L7.55 8.35L8.8 8.1L12.05 7.65L12.55 5.6L12.7 5L13.15 3.1L13.3 2.7L13.65 1.7L13.7 1.7L13.75 1.75L13.8 1.75L14 2L14.55 2.45L15.55 4.15L15.75 4.55L16.45 7.2L16.5 7.7L17.75 8.15L18.15 8.25L19.1 8.65L19.65 9.05L19.95 9.45L19.95 9.65L19.95 9.9L19.05 10.75L18.75 10.95M13.85,4.15L13.7 4.8L13.25 7.45Q13.1 8.35 12.55 8.55L10.6 8.95L7.8 9.35L6.9 9.5L6.45 9.6L5.9 9.7L13.2 11.2L13.1 17.15L12.75 22.65L12.75 22.75L12.7 23.2L12.7 23.4L12.85 23.15L13 22.85L13.2 22.45L15 18Q15.95 15 16.1 13.05L16.25 10.9L16.95 10.7L18.5 10.15L19.1 9.75L19.15 9.75L19.2 9.7L19.1 9.6L18.9 9.45Q18.55 9.2 17.95 9.05L15.7 8.45L15.45 6.8L15.25 5.9Q14.9 4.4 14.4 3.45L14.15 3.05L14.1 2.95L14.05 3.2L13.85 4.15" />
<path style="fill:#A7CEF3;fill-opacity:1" d="M16.45,7.2L15.75 4.55L17.35 6.1L19.1 8.2L19.1 8.65L18.15 8.25L17.75 8.15L16.45 7.2" />
<path style="fill:#E1D52F;fill-opacity:1" d="M16.75,9.4L14.9 9.2Q14.75 6.15 14.05 3.2L14.1 2.95L14.15 3.05L14.4 3.45Q14.9 4.4 15.25 5.9L15.45 6.8L15.7 8.45L17.95 9.05Q18.55 9.2 18.9 9.45L19.1 9.6L19.2 9.7L19.15 9.75L19.1 9.75L16.75 9.4" />
<path style="fill:#AA912B;fill-opacity:1" d="M14.55,9.25L7.8 9.55L6.45 9.6L6.9 9.5L7.8 9.35L10.6 8.95L12.55 8.55Q13.1 8.35 13.25 7.45L13.7 4.8L13.85 4.15L14.05 3.2Q14.75 6.15 14.9 9.2L14.55 9.25" />
<path style="fill:#5180AD;fill-opacity:1" d="M13.15,3.1L12.7 5L10.75 6.55L8.8 8.1L7.55 8.35L5.5 8.95L6.2 8.2L9.5 5.5Q11.45 4 13.15 3.1" />
<path style="fill:#3D6285;fill-opacity:1" d="M12.7,5L12.55 5.6L12.05 7.65L8.8 8.1L10.75 6.55L12.7 5M11.75,23.05L10.2 21.85Q8.65 20.4 6.85 17Q5.5 14.45 5.05 11.8Q7.7 13.2 10.15 13.7L10.95 18.75L11.75 23.05" />
<path style="fill:#956823;fill-opacity:1" d="M13,22.85L12.85 23.15L12.7 23.4L12.7 23.2L12.75 22.75L12.75 22.65L13.1 17.15L13.2 11.2L5.9 9.7L6.45 9.6L7.8 9.55L14.55 9.25L14.9 9.2L14.75 14.9L14.35 17.5L13.55 21.15L13 22.85" />
<path style="fill:#3E6C98;fill-opacity:1" d="M16.65,19.9L15.85 20.75L14.05 22.3L15.75 18.75L16.8 15L17.15 11.65L18.75 10.95L19.05 10.75L18.85 13.05L18.1 13.2L17.85 15.05Q18 16.15 16.65 19.9M17.75,8.15L16.5 7.7L16.45 7.2L17.75 8.15" />
<path style="fill:#C6A831;fill-opacity:1" d="M13.55,21.15L14.35 17.5L14.75 14.9L14.9 9.2L16.75 9.4L19.1 9.75L18.5 10.15L16.95 10.7L16.25 10.9L16.1 13.05Q15.95 15 15 18L13.2 22.45L13 22.85L13.55 21.15" />
<path style="fill:#A69089;fill-opacity:1" d="M15.4,23.25L15.5 23.2Q16.65 22.15 16.7 22.2L16.75 22.3L15.55 23.9L14.8 24.8L12 27.35L9.25 25.85Q7.65 24.95 6.05 23.3Q4.3 21.5 3.2 19.35Q2 17.15 1.3 14.15Q1.05 13 0.9 10.3L0.85 8.65Q0.85 8.45 1.15 8.8L1.35 9.1L1.75 9.85L2.2 11.75Q2.55 13.65 3.35 15.75Q4.15 17.85 5.6 20Q7 22.15 8.5 23.15Q9.7 23.9 11.65 24.25L12 24.45L12.25 24.55L12.35 24.55L12.4 24.5L12.6 24.35L12.65 24.35L12.85 24.2Q14.25 24.25 15.4 23.25" />
<path style="fill:#2E4F6D;fill-opacity:1" d="M11.75,23.05L10.95 18.75L10.15 13.7Q7.7 13.2 5.05 11.8L4.9 10.25L7.45 11.15L12.15 12.25L12.1 17.3L12.05 22.6L12.05 23.25L11.75 23.05" />
<path style="fill:#4D7FAF;fill-opacity:1" d="M17.85,15.05L18.1 13.2L18.85 13.05L18.8 13.25L18 18.5L16.65 19.9Q18 16.15 17.85 15.05" />
</g>
</svg>
