<?xml version="1.0" encoding="utf-8"?>
<svg version="1.1" id="Layer_1"
xmlns="http://www.w3.org/2000/svg"
xmlns:xlink="http://www.w3.org/1999/xlink"
xmlns:author="http://www.sothink.com"
width="20px" height="20px"
xml:space="preserve">
<g id="619" transform="matrix(1, 0, 0, 1, 0, 0)">
<path style="fill:#3C3134;fill-opacity:1" d="M2.7,7.75Q2.45 7.9 2.45 8.2Q1.25 7.4 0.75 5.75L0.4 4.2L0.45 4.15L1.1 3.35Q1.6 2.7 2.95 2Q4.25 1.3 6.25 1.65Q8.25 2 10.3 3.85L13.55 7.2L13.15 9.4Q12.9 10.1 13.75 9.55L14.6 8.2Q15 7.4 15.4 7.3L16.35 7.45L16.8 8.15L16.3 9.6L15.85 10.7L15 12.05L13.55 13.35L12.9 13.8L12.75 13.9L12.45 13.6L11.95 12.75L11.9 12.5L11.85 12.35L12.1 11.95L12.35 11.05L11.45 11.8L11.3 11.85L10.3 11.65L8.5 10.65L6.9 9.05Q6.1 8.2 4.85 8L3.35 7.85L3.1 7.85L2.9 7.95L2.7 7.75M7.8,5.55Q7.85 6.5 8.9 6.4Q11.6 6.05 8.45 4.65Q7.75 4.8 7.8 5.55M4.75,4.3Q7.5 2.95 3.95 2.65Q3 2.8 3.05 3.7Q3.15 5.05 4.75 4.3" />
<path style="fill:#0E0A0B;fill-opacity:1" d="M2.45,8.2Q2.45 7.9 2.7 7.75L2.9 7.95L4.95 9.85Q6.45 11.45 8.95 12.55Q9.8 13 11.45 11.8L12.35 11.05L12.1 11.95L11.85 12.35L10.35 13.7L9.65 14.05Q9.4 14.4 9.65 14.9Q9.85 15.4 11.3 15.55Q12.4 15.65 13.85 14.3Q14.45 14.45 13.9 14.2L14 14.1L14.75 13.25Q16.75 10.8 16.85 9.3L16.8 8.15L16.35 7.45L15.4 7.3Q15 7.4 14.6 8.2L13.75 9.55Q12.9 10.1 13.15 9.4L13.55 7.2L10.3 3.85Q8.25 2 6.25 1.65Q4.25 1.3 2.95 2Q1.6 2.7 1.1 3.35L0.45 4.15L0.4 4.2Q0 4.5 0 3.65Q0 2.4 0.9 1.65Q1.75 0.85 3.05 0.4L5.95 0Q7.6 0.05 9.95 1.75Q12.25 3.4 13.9 6.2Q15.65 5.1 17.2 6.45Q18.75 7.8 18.35 9.55L18.1 10.5Q20.7 13.85 19.1 16.75L18.5 17.75Q17.25 19.65 16.3 19.65L15.6 18.75L13.45 16Q12.15 16.95 10.65 16.85Q9.15 16.7 8.2 15.7Q7.25 14.65 8.1 13.5Q5.35 12.5 3.5 10.4Q2.4 8.9 2.45 8.2M17.9,16.05L18.1 15.25Q18.4 13.6 17.2 12.4L16.05 14.4L14.8 15.6Q15.95 16.7 16.65 18.1L17.9 16.05" />
<path style="fill:#1C1417;fill-opacity:1" d="M8.95,12.55Q6.45 11.45 4.95 9.85L2.9 7.95L3.1 7.85L3.35 7.85L4.85 8Q6.1 8.2 6.9 9.05L8.5 10.65L10.3 11.65L11.3 11.85L11.45 11.8Q9.8 13 8.95 12.55M16.85,9.3Q16.75 10.8 14.75 13.25L14 14.1L13.9 14.2Q14.45 14.45 13.85 14.3Q12.4 15.65 11.3 15.55Q9.85 15.4 9.65 14.9Q9.4 14.4 9.65 14.05L10.35 13.7L11.85 12.35L11.9 12.5L11.95 12.75L12.45 13.6L12.75 13.9L12.9 13.8L13.55 13.35L15 12.05L15.85 10.7L16.3 9.6L16.8 8.15L16.85 9.3" />
<path style="fill:#625158;fill-opacity:1" d="M8.45,4.65Q11.6 6.05 8.9 6.4Q7.85 6.5 7.8 5.55Q7.75 4.8 8.45 4.65M3.05,3.7Q3 2.8 3.95 2.65Q7.5 2.95 4.75 4.3Q3.15 5.05 3.05 3.7" />
<path style="fill:#414141;fill-opacity:1" d="M17.2,12.4Q18.4 13.6 18.1 15.25L17.9 16.05L17.5 15.5L16.95 14.95Q16.55 14.6 16.1 14.4L16.05 14.4L17.2 12.4" />
<path style="fill:#232323;fill-opacity:1" d="M16.65,18.1Q15.95 16.7 14.8 15.6L16.05 14.4L16.1 14.4Q16.55 14.6 16.95 14.95L17.5 15.5L17.9 16.05L16.65 18.1" />
</g>
</svg>
