<?xml version="1.0" encoding="utf-8"?>
<svg version="1.1" id="Layer_1"
xmlns="http://www.w3.org/2000/svg"
xmlns:xlink="http://www.w3.org/1999/xlink"
xmlns:author="http://www.sothink.com"
width="77px" height="58px"
xml:space="preserve">
<g id="854" transform="matrix(1, 0, 0, 1, 0, 0.05)">
<path style="fill:#4E2F1B;fill-opacity:1" d="M10,55.45L9.8 55.45L7.15 55.2L4.95 54.6L4.9 54.55Q0 52.3 0 45.05L0 44.95L0 11L0 10.6Q0 0.05 10 0.05L65.5 -0.05Q65.45 2.15 64.55 2.2L13.45 2.3Q2.25 2.3 2.25 12.4L2.25 12.8L2.25 14.1L2.25 14.5L2.25 45.3L2.25 45.4L2.25 45.85Q2.45 55.15 12.7 55.45L10 55.45" />
<path style="fill:#E5B37E;fill-opacity:1" d="M12.7,55.45L68 55.25L64.95 55.45L65 55.55Q63.95 55.65 65.05 55.65L65.35 56.5L13.05 57.2Q7.65 57.1 4.95 54.6L7.15 55.2L9.8 55.45L10 55.45L12.7 55.45" />
<path style="fill:#684527;fill-opacity:1" d="M68,55.25L12.7 55.45Q2.45 55.15 2.25 45.85L2.25 45.4L2.25 45.3L2.25 14.5L2.25 14.1L2.25 12.8L2.25 12.4Q2.25 2.3 13.45 2.3L64.55 2.2L76.05 2.3Q76.95 3.35 76.75 30.2Q76.6 44 76.8 52.5Q74.65 55.05 70.45 55.4L70.1 55.45L69.95 55.45L69.4 55.45L69.25 55.45L69.1 55.45L68.95 55.45L64.95 55.45L68 55.25" />
</g>
</svg>
