<?xml version="1.0" encoding="utf-8"?>
<svg version="1.1" id="Layer_1"
xmlns="http://www.w3.org/2000/svg"
xmlns:xlink="http://www.w3.org/1999/xlink"
xmlns:author="http://www.sothink.com"
width="27px" height="25px"
xml:space="preserve">
<g id="1832" transform="matrix(1, 0, 0, 1, -1, 0.7)">
<path style="fill:#D0A15B;fill-opacity:1" d="M7.1,19.8Q5.85 18.5 5 16.6Q2.75 11.7 6.65 8.7Q7.75 7.8 9.2 7.45L13.85 6.85Q22.45 6.25 23.55 13.9Q23.95 16.65 22.45 18.95L22.1 18.05Q21.35 19.05 19.75 19.95L17.05 21.4Q17.35 20.25 16.2 18.5Q15.4 17.3 14.65 16.8L13.7 18.05L13.3 19.3Q13.15 20.1 13.3 20.45L12.95 20.5Q12.45 20.5 10.65 19.15L8.5 17.25L8.45 17.25L8.45 17.4L8 17.95Q7.5 18.5 7.5 19.65L7.65 20.3L7.1 19.8" />
<path style="fill:#E9CB9E;fill-opacity:1" d="M21.95,19.6Q19.85 22.1 16.55 22.6L10.75 22.3Q9.15 21.75 7.65 20.3L7.5 19.65Q7.5 18.5 8 17.95L8.45 17.4L8.45 17.25L8.5 17.25L10.65 19.15Q12.45 20.5 12.95 20.5L13.3 20.45Q13.15 20.1 13.3 19.3L13.7 18.05L14.65 16.8Q15.4 17.3 16.2 18.5Q17.35 20.25 17.05 21.4L19.75 19.95Q21.35 19.05 22.1 18.05L22.45 18.95L21.95 19.6" />
<path style="fill:#9C753C;fill-opacity:1" d="M22.45,18.95Q23.95 16.65 23.55 13.9Q22.45 6.25 13.85 6.85L9.2 7.45Q7.75 7.8 6.65 8.7Q2.75 11.7 5 16.6Q5.85 18.5 7.1 19.8L7.65 20.3Q9.15 21.75 10.75 22.3L16.55 22.6Q19.85 22.1 21.95 19.6L22.45 18.95M22.8,20.3L21.3 21.7Q18.25 23.95 14.95 24.1Q11.65 24.2 8.85 22.85Q6 21.45 4.7 19.3Q3.55 17.35 3.15 13.95Q3.05 12.9 3.35 11.9Q5.35 5.15 13.45 5.7Q21.85 4.8 24.45 11.75Q25.15 13.45 24.9 15.3Q24.5 18.3 22.8 20.3" />
<path style="fill:#694817;fill-opacity:1" d="M14.7,-0.65L14.95 -0.65L15.15 -0.65L15.4 -0.7L15.6 -0.65L16.1 -0.7L17.05 -0.6L19.3 -0.05L21.5 0.9Q23.25 1.85 24.9 3.95Q26.55 6 27.1 8.1L27.9 12.8Q28.05 15.45 27.3 16.9L26.05 18.75L24.4 20.75L24.65 20.45L23.25 16.1L22.3 14.3L22.05 15Q21.5 15.85 21.1 17Q19.75 19.2 18.2 20.25Q18 20.3 17.85 19.8L17.6 19.1L17.2 18.2L16.35 16.35L14.8 13.95Q13.5 14 12.75 14.7Q11.85 15.25 11.45 16.25Q10.95 17.05 11.2 18.6Q7.75 16.8 6.55 15.2Q5.9 14.45 5.85 13.85Q5.35 14.9 5.25 15.95Q4.95 16.9 5.15 18Q5.1 18.85 5.45 19.75L5.6 20.1L6 21.25L6 21.3L4.25 20.55L2.6 18.95Q1.5 17.7 1.25 16.25L1.1 15.1L1 11.95Q1 9.9 1.6 8.45L2.7 6.1Q3.15 5.15 5.25 2.9L5.35 2.8Q8.25 0.25 11.4 -0.3L14.25 -0.65L14.7 -0.65M2.55,10L2.35 10.7Q2.1 11.45 2.2 12.2L2.2 12.25Q2 13.5 2.2 14.85L2.3 15.15Q2.7 17.1 3.35 18.05L4.35 19.45Q3.5 16.75 4.95 13.85Q5 13.45 5.35 13.1Q5.85 12.05 6.7 11.25Q6.6 11.75 6.9 12.4Q7.1 13.6 8.45 15.1L10.15 16.9Q10.65 14.6 12.75 13.45L13.1 13.1Q13.8 12.6 14.6 12.55L14.85 12.7Q16.2 13.55 17.55 15.9L18.6 18.05Q20.05 17.05 20.95 14.7L21.75 12.65Q23.15 13.1 24.15 15.5Q25.1 17.65 25.05 18.5L26.45 15.75Q26.45 15.5 26.65 15.4L26.75 13.05L26.75 13L26.7 12.25L26.55 11.55L26.45 10.8L26.25 10.3L25.8 8.6Q25.05 6.25 24.05 4.95L22.35 3.2L21.2 2.4L19.95 1.6L18.45 1.1L12.85 0.8Q11.85 0.85 10.9 1.25L9.05 1.85L8.8 2L8.7 2.05L7.25 2.85L7.05 3.05Q6.15 3.45 6.25 3.7L6.15 3.8L5.15 4.75Q4.15 5.6 3.9 6.35Q3.5 6.9 3.5 7.2Q2.95 8.1 2.9 8.5L2.6 9.6Q2.5 9.75 2.55 10M21.6,12.55L21.8 12.6L21.65 12.65L21.6 12.55" />
<path style="fill:#FBF734;fill-opacity:1" d="M23.65,7.25L22.75 6.8Q19.8 5.45 17.05 5.25L16.95 5.2Q17.25 4.55 18.55 4.2L20.7 4.15L20.8 4.15L18.7 3.2Q16.95 2.4 16.1 2.55Q13.5 2.5 12.3 3.2Q11.1 3.8 10.2 5.35L9.95 5.4L9.85 4.25L10.2 3.15Q9.35 3.1 6.85 5.35Q5.05 6.8 4.65 7.8L4.5 6.75Q4 6.85 2.8 9.25L2.6 9.6L2.9 8.5Q2.95 8.1 3.5 7.2Q3.5 6.9 3.9 6.35Q4.15 5.6 5.15 4.75L6.15 3.8L6.25 3.7Q6.15 3.45 7.05 3.05L7.25 2.85L8.7 2.05L8.8 2L9.05 1.85L10.9 1.25Q11.85 0.85 12.85 0.8L18.45 1.1L19.95 1.6L21.2 2.4L22.35 3.2L24.05 4.95Q25.05 6.25 25.8 8.6L23.65 7.25" />
<path style="fill:#FED009;fill-opacity:1" d="M2.2,12.2Q2.1 11.45 2.35 10.7L2.55 10Q2.5 9.75 2.6 9.6L2.8 9.25Q4 6.85 4.5 6.75L4.65 7.8Q5.05 6.8 6.85 5.35Q9.35 3.1 10.2 3.15L9.85 4.25L9.95 5.4L10.2 5.35Q11.1 3.8 12.3 3.2Q13.5 2.5 16.1 2.55Q16.95 2.4 18.7 3.2L20.8 4.15L20.7 4.15L18.55 4.2Q17.25 4.55 16.95 5.2L17.05 5.25Q19.8 5.45 22.75 6.8L23.65 7.25L25.8 8.6L26.25 10.3L26.45 10.8L26.55 11.55L26.7 12.25L26.75 13Q26.4 13.4 26.2 13.95L26.1 13.95Q25.95 12.8 24.35 11.25Q22.75 9.7 21.7 9.25L20.9 10.5L20.4 9.65L19.85 8.75L19.75 8.75Q19.5 9.1 19.55 9.55L18.1 12.7L17.95 12.7L16.85 10.1Q15.95 7.95 16.05 7.55Q13.4 9.1 12.1 10.1Q9.5 11.8 9.9 13.1Q9.25 12.45 9.25 10.35L9.6 9.1Q9.5 8.85 9.75 8.65L10.05 8.2Q9.5 8.3 8.1 9.75L8.05 9.05Q7.9 8.85 8.45 8.2Q8.85 7.25 9.3 7L9.25 6.9Q8.45 6.8 6.8 8.15Q5 9.1 3.4 12.45Q3.05 11 3.15 10.8L3.05 10.4L2.2 12.2" />
<path style="fill:#D48D01;fill-opacity:1" d="M3.05,10.4L3.15 10.8Q3.05 11 3.4 12.45Q5 9.1 6.8 8.15Q8.45 6.8 9.25 6.9L9.3 7Q8.85 7.25 8.45 8.2Q7.9 8.85 8.05 9.05L8.1 9.75Q9.5 8.3 10.05 8.2L9.75 8.65Q9.5 8.85 9.6 9.1L9.25 10.35Q9.25 12.45 9.9 13.1Q9.5 11.8 12.1 10.1Q13.4 9.1 16.05 7.55Q15.95 7.95 16.85 10.1L17.95 12.7L18.1 12.7L19.55 9.55Q19.5 9.1 19.75 8.75L19.85 8.75L20.4 9.65L20.9 10.5L21.7 9.25Q22.75 9.7 24.35 11.25Q25.95 12.8 26.1 13.95L26.2 13.95Q26.4 13.4 26.75 13L26.75 13.05L26.65 15.4Q26.45 15.5 26.45 15.75L25.05 18.5Q25.1 17.65 24.15 15.5Q23.15 13.1 21.75 12.65L20.95 14.7Q20.05 17.05 18.6 18.05L17.55 15.9Q16.2 13.55 14.85 12.7L14.6 12.55Q13.8 12.6 13.1 13.1L12.75 13.45Q10.65 14.6 10.15 16.9L8.45 15.1Q7.1 13.6 6.9 12.4Q6.6 11.75 6.7 11.25Q5.85 12.05 5.35 13.1Q5 13.45 4.95 13.85Q3.5 16.75 4.35 19.45L3.35 18.05Q2.7 17.1 2.3 15.15L2.2 14.85Q2 13.5 2.2 12.25L2.2 12.2L3.05 10.4M21.65,12.65L21.8 12.6L21.6 12.55L21.65 12.65" />
</g>
</svg>
