<?xml version="1.0" encoding="utf-8"?>
<svg version="1.1" id="Layer_1"
xmlns="http://www.w3.org/2000/svg"
xmlns:xlink="http://www.w3.org/1999/xlink"
xmlns:author="http://www.sothink.com"
width="44px" height="49px"
xml:space="preserve">
<g id="226" transform="matrix(1, 0, 0, 1, -4.95, 5.4)">
<path style="fill:#FFDD9C;fill-opacity:1" d="M13.9,35.75Q13.6 36.85 12.5 38.1Q11.2 38.35 10.4 39L10.45 38.95L9.9 39.3L7.2 41.2L6.7 38.2L6.65 37.95Q10.65 36.25 12.85 33.8Q15 30.85 15.4 29.5Q15.75 32.35 15.45 33.15Q19.05 29.25 19.95 23.2Q20.35 20.2 20.2 18.9Q21.9 20.9 22.3 22.1L22.55 25.05Q24.2 22.55 24.3 20.35L24.15 16.4Q26.5 17.55 27.55 19.15Q28.05 17.1 27.7 14.75L26.65 10.3Q29.35 12.05 30.3 13.5Q31 11.8 29.85 8.45L28.6 5.55Q32.35 6.5 35.35 9.9Q38.15 13.2 38.45 15.3Q39.5 12.95 39.8 10.9L40.05 9.05L40 8.95L40.2 8Q44.65 14.05 45.6 20.05L45.95 23.7L45.9 26.15L45.55 24.7Q43.35 18.45 41.35 16.9Q41.45 19 40.8 23.45Q40.2 26.65 37.25 28.9L37.35 28.6Q37.4 28.25 37.1 28.3L35.55 30L35 30.4L32 30.95Q31.5 31.85 29.6 32.8L29.05 33L29.35 32.2Q29.1 32.2 29.15 32.1L29.1 32.2L28.95 32.2L27.3 33.8L24.95 34.55L22.85 35.3Q25.2 30.85 27.55 29.5Q29 29.25 28.5 31.35Q31.55 29.3 32.05 25.35Q34.9 24.6 36.35 27.55Q38.4 21.65 33.5 15.65Q35 20.6 33.45 22.65L33.5 22.5L33.55 22.45L33.3 22.35L33.2 22.35Q32.5 23 32.7 23.45L31.6 24Q30 20.2 29 18.95Q30.4 24.3 28.8 26.05L26.4 28.3Q25.35 28.7 24.25 27.3Q23.55 30.75 21.25 33.7L20.1 34.9Q20.65 33.4 21 29.1L21.1 27.9Q20.6 29.75 19.55 31.9Q18.4 34.4 17.15 35.85L15.15 37.95L14.3 37.95Q14.65 36.45 13.9 35.75M41.05,13.75Q40.95 13.7 40.95 13.8Q40.8 14.75 41.65 15.5L41.7 15.55Q42.45 14.45 41.05 13.75M32.4,10.75Q32.2 11.25 32.6 11.1Q32.95 12.8 34.65 13.6L34.65 13.4Q34.1 11.7 32.65 10.6L32.45 10.65L32.4 10.75M26.05,23.5L25.75 25.45Q25.45 25.7 25.65 25.85L25.85 26.05Q27.05 24.65 27.1 22.65Q27.05 20.95 25.75 20.55L26.05 23.5M30.25,15.3Q30.55 16.25 31.2 16.95L31.4 17.1Q31.85 15.6 30.45 15L30.4 14.95L30.25 15.2L30.25 15.3M13.9,34.8L13.9 34.85Q14.75 34 14.25 33.35L14.15 33.3Q13.55 34.15 13.9 34.8" />
<path style="fill:#FF840E;fill-opacity:1" d="M40,8.95L40.05 9.05L39.8 10.9Q39.5 12.95 38.45 15.3Q38.15 13.2 35.35 9.9Q32.35 6.5 28.6 5.55L29.85 8.45Q31 11.8 30.3 13.5Q29.35 12.05 26.65 10.3L27.7 14.75Q28.05 17.1 27.55 19.15Q26.5 17.55 24.15 16.4L24.3 20.35Q24.2 22.55 22.55 25.05L22.3 22.1Q21.9 20.9 20.2 18.9Q20.35 20.2 19.95 23.2Q19.05 29.25 15.45 33.15Q15.75 32.35 15.4 29.5Q15 30.85 12.85 33.8Q10.65 36.25 6.65 37.95L6.55 37.75L9.75 35.5L9.85 35.45Q14.5 31.25 15.05 26.85L15.55 27.6L16.1 28.05L16.75 28L17.2 27.5Q18.5 23.5 18.8 20.3L18.8 20.25Q19 17 18.2 13.85L18.15 13.8Q17.55 11.9 16.75 10.25Q18.2 10.7 18.8 11.7L19.25 12.1L19.8 12.15L20.3 11.85L20.5 11.3Q20.65 8.9 18.4 5.45Q16.9 3.15 14.65 1.65Q15.75 1.9 16.45 2.35L17.05 2.45L17.55 2.2L17.8 1.65L17.65 1.05Q15.75 -1.8 11.9 -3.6L15.7 -3.3L15.65 -3.3Q23.4 -1.75 25.65 1.2L26.15 1.55L26.8 1.45L27.2 0.95L27.2 0.3L26.25 -1.45L30.8 1.45Q32.95 3.05 34.75 4.8L35.2 5.05Q35.3 3.3 35.05 2.95L39.65 7.25L40.2 8L40 8.95" />
<path style="fill:#C83903;fill-opacity:1" d="M7.6,-4.95Q11.25 -5.75 15.95 -5.1L16 -5.05Q19.75 -4.3 22.4 -3.2L22.35 -3.4L22.4 -3.95L22.8 -4.35L23.35 -4.45Q26.35 -4 31.85 0L32.85 0.75L32.1 -1.55L35.35 0.45L39.3 4.15Q42.05 7 43.85 10.15Q45.6 13.3 46.7 16.2Q47.65 18.85 48.05 22.75Q48.6 28.1 46 32.4Q43.6 36.35 40.4 38.65Q37.15 40.95 32.5 42.35Q26.6 43.95 19.4 43.45Q18 40.75 14.9 39.75L14.45 39.75L14.3 39.75L14.1 39.75L13.4 39.8Q12.15 39.9 11.45 40.45L11.4 40.5L11.05 40.7L11 40.75L7.9 42.9L7.8 42.9L6.95 43.25L6.45 43.35Q6.15 43.3 5.95 43.1L5.7 42.65L5.35 41.15Q4.75 37.8 5.05 36.75Q7.15 35.1 8.7 34.05Q13.55 29.65 13.3 25L13.5 24.4L14 24.1L14.65 24.15L16.05 25.2Q16.8 22.5 17 20.15Q17.2 17.2 16.45 14.3L16.45 14.35Q15.6 11.6 14.35 9.4Q14.15 9.1 14.25 8.75L14.6 8.25Q14.85 8 15.2 8.05Q16.95 8.25 18.2 8.85L16.9 6.45Q14.9 3.4 11.35 2L10.85 1.55L10.8 0.9Q10.85 0.6 11.2 0.4Q12.3 -0.35 13.95 -0.25Q11.5 -2.15 7.55 -3.2Q7.2 -3.3 7.05 -3.55L6.85 -4.1L7.05 -4.65Q7.25 -4.9 7.6 -4.95M6.7,38.2L7.2 41.2L9.9 39.3L10.45 38.95L10.4 39Q11.2 38.35 12.5 38.1L13.2 38L14.25 37.95L14.3 37.95L15.15 37.95L15.35 37.95L15.5 38Q16.9 38.15 18.2 39.15L19.85 40.85L20.2 41.6Q25.4 42.45 32.8 39.95L37.4 37.65Q41.5 34.95 43.4 32.2Q45.1 29.8 45.9 26.15L45.95 23.7L45.6 20.05Q44.65 14.05 40.2 8L39.65 7.25L35.05 2.95Q35.3 3.3 35.2 5.05L34.75 4.8Q32.95 3.05 30.8 1.45L26.25 -1.45L27.2 0.3L27.2 0.95L26.8 1.45L26.15 1.55L25.65 1.2Q23.4 -1.75 15.65 -3.3L15.7 -3.3L11.9 -3.6Q15.75 -1.8 17.65 1.05L17.8 1.65L17.55 2.2L17.05 2.45L16.45 2.35Q15.75 1.9 14.65 1.65Q16.9 3.15 18.4 5.45Q20.65 8.9 20.5 11.3L20.3 11.85L19.8 12.15L19.25 12.1L18.8 11.7Q18.2 10.7 16.75 10.25Q17.55 11.9 18.15 13.8L18.2 13.85Q19 17 18.8 20.25L18.8 20.3Q18.5 23.5 17.2 27.5L16.75 28L16.1 28.05L15.55 27.6L15.05 26.85Q14.5 31.25 9.85 35.45L9.75 35.5L6.55 37.75L6.65 37.95L6.7 38.2" />
<path style="fill:#FFFEBF;fill-opacity:1" d="M45.9,26.15Q45.1 29.8 43.4 32.2Q41.5 34.95 37.4 37.65L32.8 39.95Q25.4 42.45 20.2 41.6L19.85 40.85L18.2 39.15Q16.9 38.15 15.5 38L15.35 37.95L15.15 37.95L17.15 35.85Q18.4 34.4 19.55 31.9Q20.6 29.75 21.1 27.9L21 29.1Q20.65 33.4 20.1 34.9L21.25 33.7Q23.55 30.75 24.25 27.3Q25.35 28.7 26.4 28.3L28.8 26.05Q30.4 24.3 29 18.95Q30 20.2 31.6 24L32.7 23.45Q32.5 23 33.2 22.35L33.3 22.35L33.55 22.45L33.5 22.5L33.45 22.65Q35 20.6 33.5 15.65Q38.4 21.65 36.35 27.55Q34.9 24.6 32.05 25.35Q31.55 29.3 28.5 31.35Q29 29.25 27.55 29.5Q25.2 30.85 22.85 35.3L24.95 34.55L27.3 33.8L28.95 32.2L29.1 32.2L29.15 32.1Q29.1 32.2 29.35 32.2L29.05 33L29.6 32.8Q31.5 31.85 32 30.95L35 30.4L35.55 30L37.1 28.3Q37.4 28.25 37.35 28.6L37.25 28.9Q40.2 26.65 40.8 23.45Q41.45 19 41.35 16.9Q43.35 18.45 45.55 24.7L45.9 26.15M14.3,37.95L14.25 37.95L13.2 38L12.5 38.1Q13.6 36.85 13.9 35.75Q14.65 36.45 14.3 37.95M41.7,15.55L41.65 15.5Q40.8 14.75 40.95 13.8Q40.95 13.7 41.05 13.75Q42.45 14.45 41.7 15.55M32.45,10.65L32.65 10.6Q34.1 11.7 34.65 13.4L34.65 13.6Q32.95 12.8 32.6 11.1Q32.2 11.25 32.4 10.75L32.45 10.65M25.75,20.55Q27.05 20.95 27.1 22.65Q27.05 24.65 25.85 26.05L25.65 25.85Q25.45 25.7 25.75 25.45L26.05 23.5L25.75 20.55M30.25,15.2L30.4 14.95L30.45 15Q31.85 15.6 31.4 17.1L31.2 16.95Q30.55 16.25 30.25 15.3L30.25 15.2M14.15,33.3L14.25 33.35Q14.75 34 13.9 34.85L13.9 34.8Q13.55 34.15 14.15 33.3" />
</g>
</svg>
