<?xml version="1.0" encoding="utf-8"?>
<svg version="1.1" id="Layer_1"
xmlns="http://www.w3.org/2000/svg"
xmlns:xlink="http://www.w3.org/1999/xlink"
xmlns:author="http://www.sothink.com"
width="20px" height="20px"
xml:space="preserve">
<g id="422" transform="matrix(1, 0, 0, 1, 0.25, 0.25)">
<path style="fill:#135614;fill-opacity:1" d="M11.5,10.75L13.5 11.8L12.8 13.5L11.55 14.85L10.8 15.3L9.4 15.55L7.95 15.3L7.2 14.7Q6.35 13.8 6.3 12.4Q5.95 14.15 6.25 15.3Q6.45 16.05 6.95 16.55Q8.2 17.9 10.35 17.85L12.5 17.4Q13.35 17 14.05 16.25L14.9 15.3Q15.75 14.15 16 12.85L18 13.65L16 8L11.5 10.75M13.2,6.55Q13.85 3.7 12.6 2.4Q11.3 1.05 9.2 1.1L7.1 1.55Q6.2 1.95 5.5 2.7Q3.95 4.3 3.55 6.1L1.55 5.3L3.55 10.95L8.05 8.2L6 7.15L6.7 5.45Q7.05 4.75 7.95 4.1Q8.8 3.45 10.1 3.4Q11.45 3.25 12.3 4.25Q13.15 5.15 13.2 6.55M11.45,4.95Q10.7 4.2 9.9 4.35Q8.8 4.65 8.1 5.65Q7.75 6.2 7.7 6.65L10.05 8.15L2.7 12.55L0 3.5L2.95 4.55Q3.35 3.2 4.65 2.05Q5.65 1.1 6.4 0.8Q8.9 -0.5 11.2 0.3Q12.6 0.8 13.15 1.55Q14.85 3.65 14.2 5.7Q13.45 7.75 12.45 7.9Q12.45 5.9 11.45 4.95M9.65,14.6Q10.75 14.3 11.45 13.3L11.85 12.3L9.45 10.8L16.85 6.4L19.5 15.3L19.5 15.45L16.55 14.4L16.2 15.3L14.9 16.9L13.1 18.15Q10.6 19.45 8.3 18.65Q6.95 18.15 6.35 17.4Q5.5 16.35 5.25 15.3Q5.05 14.25 5.35 13.25Q6.05 11.2 7.05 11.05Q7.05 13.05 8.1 14Q8.85 14.75 9.65 14.6" />
<radialGradient
id="RadialGradID_529" gradientUnits="userSpaceOnUse" gradientTransform="matrix(0.0109406, 0, 0, 0.0109406, 13.55, 11.2)" spreadMethod ="pad" cx="0" cy="0" r="819.2" fx="0" fy="0" >
<stop  offset="0"  style="stop-color:#5FEC8B;stop-opacity:1" />
<stop  offset="1"  style="stop-color:#058C12;stop-opacity:1" />
</radialGradient>
<path style="fill:url(#RadialGradID_529) " d="M16,8L18 13.65L16 12.85Q15.75 14.15 14.9 15.3L14.05 16.25Q13.35 17 12.5 17.4L10.35 17.85Q8.2 17.9 6.95 16.55Q6.45 16.05 6.25 15.3Q5.95 14.15 6.3 12.4Q6.35 13.8 7.2 14.7L7.95 15.3L9.4 15.55L10.8 15.3L11.55 14.85L12.8 13.5L13.5 11.8L11.5 10.75L16 8" />
<radialGradient
id="RadialGradID_530" gradientUnits="userSpaceOnUse" gradientTransform="matrix(0.0098114, 0, 0, 0.0098114, 6.3, 3.4)" spreadMethod ="pad" cx="0" cy="0" r="819.2" fx="0" fy="0" >
<stop  offset="0"  style="stop-color:#5FEC8B;stop-opacity:1" />
<stop  offset="1"  style="stop-color:#058C12;stop-opacity:1" />
</radialGradient>
<path style="fill:url(#RadialGradID_530) " d="M12.3,4.25Q11.45 3.25 10.1 3.4Q8.8 3.45 7.95 4.1Q7.05 4.75 6.7 5.45L6 7.15L8.05 8.2L3.55 10.95L1.55 5.3L3.55 6.1Q3.95 4.3 5.5 2.7Q6.2 1.95 7.1 1.55L9.2 1.1Q11.3 1.05 12.6 2.4Q13.85 3.7 13.2 6.55Q13.15 5.15 12.3 4.25" />
<path style="fill:none;stroke-width:0.5;stroke-linecap:round;stroke-linejoin:round;stroke-miterlimit:3;stroke:#135614;stroke-opacity:1" d="M12.45,7.9Q13.45 7.75 14.2 5.7Q14.85 3.65 13.15 1.55Q12.6 0.8 11.2 0.3Q8.9 -0.5 6.4 0.8Q5.65 1.1 4.65 2.05Q3.35 3.2 2.95 4.55L0 3.5L2.7 12.55L10.05 8.15L7.7 6.65Q7.75 6.2 8.1 5.65Q8.8 4.65 9.9 4.35Q10.7 4.2 11.45 4.95Q12.45 5.9 12.45 7.9M8.1,14Q7.05 13.05 7.05 11.05Q6.05 11.2 5.35 13.25Q5.05 14.25 5.25 15.3Q5.5 16.35 6.35 17.4Q6.95 18.15 8.3 18.65Q10.6 19.45 13.1 18.15L14.9 16.9L16.2 15.3L16.55 14.4L19.5 15.45L19.5 15.3L16.85 6.4L9.45 10.8L11.85 12.3L11.45 13.3Q10.75 14.3 9.65 14.6Q8.85 14.75 8.1 14" />
<radialGradient
id="RadialGradID_531" gradientUnits="userSpaceOnUse" gradientTransform="matrix(0.00869751, 0, 0, 0.00869751, -8.25, -1.3)" spreadMethod ="pad" cx="0" cy="0" r="819.2" fx="0" fy="0" >
<stop  offset="0"  style="stop-color:#FFFFFF;stop-opacity:0.101961" />
<stop  offset="1"  style="stop-color:#FFFFFF;stop-opacity:0.501961" />
</radialGradient>
<path style="fill:url(#RadialGradID_531) " d="M11.5,10.75L16 8L16.2 8.55Q15.55 8.95 14.85 9.65Q14.1 10.25 13.7 11Q14.45 11.55 14.6 12.1L14.4 13.9Q14.1 15.25 12.85 15.9L10.4 16.75Q8.15 16.85 6.7 15.75L6.3 15.45L6.25 15.3Q5.95 14.15 6.3 12.4Q6.35 13.8 7.2 14.7L7.95 15.3L9.4 15.55L10.8 15.3L11.55 14.85L12.8 13.5L13.5 11.8L11.5 10.75M3.55,10.95L1.55 5.3L3.55 6.1Q3.95 4.3 5.5 2.7Q6.2 1.95 7.1 1.55Q5.65 2.45 5.1 4Q4.7 5.3 4.9 6.45Q4.05 7.35 3.65 10.9L3.55 10.95" />
<linearGradient
id="LinearGradID_532" gradientUnits="userSpaceOnUse" gradientTransform="matrix(0, -0.000457764, 0.00512695, 0, 8.8, 2.15)" spreadMethod ="pad" x1="-819.2" y1="0" x2="819.2" y2="0" >
<stop  offset="0" style="stop-color:#FFFFFF;stop-opacity:0.101961" />
<stop  offset="1" style="stop-color:#FFFFFF;stop-opacity:0.701961" />
</linearGradient>
<path style="fill:url(#LinearGradID_532) " d="M10.55,2.45Q7.75 2.2 4.6 4.6Q5.15 3.45 6.35 2.5Q8.8 0.7 11.2 1.8Q12.9 2.8 13 4Q11.95 2.65 10.55 2.45" />
<linearGradient
id="LinearGradID_533" gradientUnits="userSpaceOnUse" gradientTransform="matrix(0, -0.000595093, 0.00236511, 0, 15, 9.65)" spreadMethod ="pad" x1="-819.2" y1="0" x2="819.2" y2="0" >
<stop  offset="0" style="stop-color:#FFFFFF;stop-opacity:0.101961" />
<stop  offset="1" style="stop-color:#FFFFFF;stop-opacity:0.701961" />
</linearGradient>
<path style="fill:url(#LinearGradID_533) " d="M16.95,12L15.8 10.9Q14.4 9.95 13.1 10.45L15.65 8.55L16.95 12" />
</g>
</svg>
