<?xml version="1.0" encoding="utf-8"?>
<svg version="1.1" id="Layer_1"
xmlns="http://www.w3.org/2000/svg"
xmlns:xlink="http://www.w3.org/1999/xlink"
xmlns:author="http://www.sothink.com"
width="41px" height="8px"
xml:space="preserve">
<g id="2712" transform="matrix(1, 0, 0, 1, -21.65, -8)">
<path style="fill:#FFFFFF;fill-opacity:1" d="M62.3,11.85L60.8 11.85Q59.4 11.65 57.8 10.85L55 9.1Q53.8 8.25 50.75 10.5Q47.6 12.75 42.55 13.4Q41.55 14.05 39.25 13.9L48.15 11.15L52.3 8.6Q53.45 7.75 54.9 8.15Q58.55 10.9 62.3 11.85M25.1,12.45L24.75 12.65Q23.1 13.85 21.7 14.15L21.7 14.1Q23.25 12.25 25.65 11.95L28.75 14Q26.8 14 25.1 12.45M35.75,14.65L35.2 15.35Q34.5 15.95 33.3 15.35L33.3 15.3L35.75 14.65" />
</g>
</svg>
