<?xml version="1.0" encoding="utf-8"?>
<svg version="1.1" id="Layer_1"
xmlns="http://www.w3.org/2000/svg"
xmlns:xlink="http://www.w3.org/1999/xlink"
xmlns:author="http://www.sothink.com"
width="78px" height="17px"
xml:space="preserve">
<g id="857" transform="matrix(1, 0, 0, 1, 11.1, 1.75)">
<path style="fill:#FEE3B0;fill-opacity:1" d="M3.7,-1.2L4.45 -1.2L6 -1.25L6.25 -0.1L6.65 1.55L7.15 3.5L7.55 5.35L7.85 6.7L9.5 14.5L8 14.6L6.5 14.45L6.15 13.25L5.8 11.85L5.45 10.75L4.9 10.75L4.55 10.75L4 10.75L3.7 11.9L3.45 13.3L3.05 14.5L2.95 14.5L2.1 14.5L-0.15 14.5L-0.15 14.45L0 13.3L0.5 10.75L1.1 7.2L2.1 3.15L3.2 -1.2L3.7 -1.2M17.45,-1L18.75 -1.1L19.9 -1.1L19.9 3.15L19.9 7.4L19.85 14.5L18.8 14.5L17.75 14.5L16.9 14.5L16.8 11.75L16.7 8.55L16.55 5.8L16.25 6.6L15.85 7.6L15.45 8.65L15.1 9.05L14.7 8.55L14.3 7.45L13.95 6.45L13.75 5.95Q13.6 8.05 13.6 10.15L13.85 14.45L12.25 14.5L10.75 14.5L10.65 14.45L10.6 13.85L10.6 12.35L10.6 9.65L10.6 5.35L10.65 -0.85L12.1 -1L13.7 -0.95L14.25 0.05L14.7 1.4L15.1 2.4L15.3 2.5L15.55 2L15.85 1L16.15 -0.1L16.65 -1L17.45 -1M23.85,-1.45L26.45 -1.35L28.8 -0.6Q29.9 -0.05 30.65 1Q31.25 2 31.45 3.45L31.45 3.5L31.45 3.85L31.35 4.1Q31.2 5.55 30.25 6.7Q29.35 7.8 28 8.3L25.3 8.55L25.3 9.2L25.3 10.15L25.3 11.65L25.35 14.25L25.3 14.25L24.2 14.45L22.8 14.45L21.5 14.35L21.45 9.55L21.45 4.2L21.35 -1.1L23.85 -1.45M36.55,-0.1L36.95 1.55L37.45 3.5L37.8 5.35L38.15 6.7L39.85 14.5L38.3 14.6L36.8 14.45L36.45 13.25L36.05 11.85L35.8 10.75L35.2 10.75L34.85 10.75L34.3 10.75L34 11.9L33.75 13.3L33.35 14.5L33.3 14.5L32.4 14.5L30.15 14.5L30.15 14.45L30.35 13.3L30.8 10.75L31.45 7.2L32.4 3.15L33.5 -1.2L34 -1.2L34.8 -1.2L36.3 -1.25L36.55 -0.1M48.9,-0.85L50 -1.2L53 -0.85Q54.45 -0.35 55.2 0.75Q55.95 1.95 55.8 3.7L55.7 3.85L55.55 3.95L54.95 3.95L54.25 3.95L53.7 3.95L52.85 3.85L52.65 3.15L52.1 2.35Q51.85 2 51.35 2L50.65 2Q50.25 2 50 2.25L49.9 2.5L49.75 2.9Q49.5 3.6 49.4 4.7L49.35 6.95L49.4 9.3L49.6 10.4Q49.75 11 50.15 11.3L50.4 11.5L50.65 11.55L51.35 11.55L52.1 11.3L52.5 11.05L52.7 10.5L52.8 10.15L52.85 9.45L52.8 9.15L52.25 9.15L51.6 9.15L51.1 9.15L51 8.35L51.1 7.6L51 6.75L51.1 6.75L52.1 6.5L53.45 6.5L54.8 6.6L55.7 6.6L55.8 6.6L55.8 6.7L55.95 9.15L55.8 11.75Q55.6 12.85 55.05 13.5L53.6 14.35L51.2 14.85L48.9 14.5L47.55 13.5Q47.05 12.85 46.8 11.85L46.65 11.25L46.45 10.35L46.3 8.65L46.2 7.05L46.3 5.2L46.3 3.7L46.45 2.25L46.9 0.8L47.8 -0.3L48.9 -0.85M44.55,-1.25L45.1 -1.25L45.1 -1.2L45.05 4L44.95 9.2L45.05 14.45L44.3 14.6L43.1 14.6L41.85 14.6L40.95 14.6L41.1 9.2L40.95 3.85L41.2 -1.35L41.6 -1.35L42.1 -1.35L43.05 -1.25L44.55 -1.25M60.4,-1L60.8 -0.2L61.1 0.5L61.6 1.5L61.9 2.25L62.6 3.45L63.1 4.7L63.45 5.2L63.6 4.75L63.6 3.95L63.6 2.35L63.5 0.75L63.5 -0.2L63.6 -1.25L65.2 -1.45L66.7 -1.25L66.7 5.95L66.7 7.85L66.7 9.8L66.7 11.05L66.7 12.25L66.7 13.15L66.7 14L66.7 14.5L66.45 14.6L65.95 14.6L64.95 14.6L63.95 14.5L62.4 11.3Q61.65 9.7 61.2 8.3L61 7.6L60.8 7.15L60.65 6.95L60.65 7.45L60.55 8.8L60.55 10.65L60.5 12.65L60.5 13.6L60.55 14.5L60.05 14.6L59.5 14.6L58.5 14.6L57.35 14.5L57.35 12.9L57.35 8.8L57.35 4.85L57.35 1.8L57.55 -1.2L58 -1.25L58.55 -1.25L59.2 -1.25L60 -1.2L60.4 -1M35.05,3.45Q34.95 3.35 34.8 3.85L34.45 5.6L34.25 8.1L35.05 8.1L35.85 8.1L35.35 4.7L35.05 3.45M26.15,2Q25.45 1.85 24.7 2L24.65 2.1L24.65 3.75L24.85 5.45L24.95 5.45L25.9 5.35L27.05 5.2Q27.55 5.15 27.9 4.75L28.15 4L28.05 3.25L27.45 2.6Q26.9 2.1 26.15 2M4.45,3.85L4.2 5.6L3.95 8.1L4.7 8.1L5.55 8.1L5.05 4.7L4.7 3.45L4.45 3.85M-5.45,-1.65Q-4 -1.25 -2.85 -0.3Q-1.85 0.75 -1.45 2.1Q-1 3.45 -1.5 5.1L-3.1 5.2L-4.8 5L-4.85 3.7Q-4.95 3 -5.2 2.5Q-5.55 2 -6.4 2L-6.95 2.1Q-7.3 2.15 -7.5 2.35L-7.55 2.5L-7.55 2.65L-7.65 3.45L-7.75 5.15L-7.75 7.2L-7.75 9.05L-7.4 10.35Q-7.15 10.9 -6.45 11.05L-5.55 11L-4.85 10.35L-4.65 9.65L-4.65 8.8L-4.55 8.1L-3.6 8.1L-2.55 8.1L-1.5 8.3Q-1.2 9.4 -1.35 10.55Q-1.5 11.75 -2.15 12.6Q-2.7 13.5 -3.7 14.1Q-4.7 14.75 -5.9 14.75L-7.55 14.75L-9.15 14.35L-10.4 13.3Q-10.85 12.75 -11 11.8L-11.1 9.45L-11.1 6.6L-11 2.5L-11 1.75L-10.8 1L-10.3 -0.1L-9.6 -0.95L-9.05 -1.25L-8.5 -1.5L-5.45 -1.65" />
</g>
</svg>
