<?xml version="1.0" encoding="utf-8"?>
<svg version="1.1" id="Layer_1"
xmlns="http://www.w3.org/2000/svg"
xmlns:xlink="http://www.w3.org/1999/xlink"
xmlns:author="http://www.sothink.com"
width="46px" height="45px"
xml:space="preserve">
<g id="201" transform="matrix(1, 0, 0, 1, 0, 0)">
<path style="fill:#2A63A3;fill-opacity:1" d="M35.65,41.55Q38.7 40.45 40.1 38.3L41.85 35L42.8 31.8Q40.4 32.7 38.75 32.75Q37 32.75 37.35 32.15L38.8 28.55L40.1 23.4Q37.35 25.55 34.95 25.55L35.95 21.45L32.3 22.2L34.05 13.85L31.45 14.8Q29.8 15.2 28.3 13L25.45 8.5L22.45 3.3L18.4 11.8Q16.65 15.6 15 14.7Q13.25 13.65 11.9 11.95L11.85 18.1L11.95 22Q12 24 11.45 23.9L9.5 22.95L7.6 21.65L7.5 21.6L7.8 23.15L8.5 26.55L9.15 29.6Q9.4 30.65 6.6 29.4L5.85 29.05L7.75 33.95L2.6 32.35L4.4 36L6.15 39.1L7.8 41.2Q8.85 42.4 11.75 43.75L9.8 43.45Q8.45 42.95 7.4 42.25Q6.3 41.45 5.05 40.05L3.2 37.85Q0.45 33.8 0 29.9L4.35 30.3L2.45 25.55L4.4 25.95L6.8 26.35Q6.5 25.8 5.35 20.55L4.8 18.4L9.55 20.7Q9.15 13.95 10.8 9.55Q14.25 11.05 15.65 12.05Q17.4 7.6 19.85 3.45Q22.25 -0.75 22.7 0.15Q26.75 4.55 28.7 8.05L31 12L36.75 10.5L36.25 15.15Q35.85 17.95 35.15 19.1L38.15 17.95Q37.9 21.05 37.2 23.25Q39.1 21.65 40.5 21Q41.9 20.3 42.05 21.55Q42.2 22.8 41.7 25.3Q41.15 27.8 39.65 31.05L45.1 29.15Q44.85 33.75 43.1 36.95Q41.3 40.25 37.45 42.2L35.95 42.25L35.65 41.55" />
<path style="fill:#83D5EF;fill-opacity:1" d="M11.65,34L12.65 35.45Q13.4 36.4 13.35 36.85L13.15 36.85L12.85 36.55L12.4 36.4L11.45 36.4L12.15 37.4L13 38.45L12.4 38.45L9 37.3L9 37.45Q9.15 39.2 12.95 42.45L13.6 43.05L13.55 43.1Q13.05 43.6 13.3 44.2L11.75 43.75Q8.85 42.4 7.8 41.2L6.15 39.1L4.4 36L2.6 32.35L7.75 33.95L5.85 29.05L6.6 29.4Q9.4 30.65 9.15 29.6L8.5 26.55L7.8 23.15L7.5 21.6L7.6 21.65L9.5 22.95L11.45 23.9Q12 24 11.95 22L11.85 18.1L11.9 11.95Q13.25 13.65 15 14.7Q16.65 15.6 18.4 11.8L22.45 3.3L25.45 8.5L28.3 13Q29.8 15.2 31.45 14.8L34.05 13.85L32.3 22.2L35.95 21.45L34.95 25.55Q37.35 25.55 40.1 23.4L38.8 28.55L37.35 32.15Q37 32.75 38.75 32.75Q40.4 32.7 42.8 31.8L41.85 35L40.1 38.3Q38.7 40.45 35.65 41.55L35.95 42.25Q35.55 42.35 34.75 42.75L34.75 42.55L34.75 42.3L34.5 42.05L34.3 41.9L35.2 40.6L38.75 35.75Q38.4 35.7 36.2 36.55L34.65 36.55L34.65 36.25L35.9 34.05L36.55 32.15L34 34.2L34 34L34.4 32.05L34.6 31.65L34.7 31.35L34.9 30.65L34.8 30.15L35 29.1L34.85 29.1L34.5 29.4L34.4 29.2L34.9 27.9L34.8 27.45Q34.45 26.2 33.65 25.8Q33.05 24.4 31.4 24.1L30.75 24L30.6 21.95L30.45 21.95L29.75 23.3L28.75 23.3L28.55 20.8L28.6 20.4Q28.7 17.9 27.5 16.45L27.35 16.55L26.6 17.2L26.55 17.2L26.3 16.2L25.5 14.8L25.35 14.95L24.6 16.3L24 15.4Q22.4 10.75 22.4 8.95L21.35 15.9L21.15 16.25Q20.65 17.1 20.6 17.55L20.6 17.45Q20.55 16.65 19.9 16.65Q19.7 16.65 19.7 16.75Q18.5 18.05 18.25 19.8L18 19.55L18 22.65L17.85 22.65L14.9 19.4L14.9 20.15Q14.9 21.55 15.6 23.9L15.8 24.45L15.45 24.65Q13.95 25.25 13.95 25.7Q12.9 26.7 12.65 27.7L12.5 27.55L11.45 26.4L12.4 29.5L12.45 30.15L12.65 30.3L12.8 30.85Q12.15 31.5 12.1 32.65L12.25 33.85L12.3 34L11.65 34" />
<path style="fill:#A6F6FF;fill-opacity:1" d="M34.8,30.15L34.9 30.65L34.7 31.35L34.6 31.65L34.4 32.05L33.4 33.5Q32.1 34.8 30.65 33.35L29.9 32.4Q30.5 32.4 30.85 32.85Q31.15 33.15 31.8 33.15Q32.75 33.15 33.05 32.65L33.25 31.95L33.35 30.75L33.35 30.1Q33.25 29 32.8 28.45Q32.35 27.8 31.45 27.8Q32 27.1 31.2 26.45L30.95 26.25L30.9 26.2Q29.8 25.35 28.75 25.15L27.1 25.25Q26.55 25.4 25.8 25.95L25.7 24.95L26.15 21.85L26.3 20.6L26.3 19.15Q25.55 19.3 25.25 18.65L25.05 17.8L24.95 18.2L24.9 18.25L24.35 18.6Q23.95 18.6 22.65 16.5L22.65 16.6L21.9 18.4Q21.55 19.35 21.2 19.35L20.7 18.95L20.55 18.7L20.25 20.15L20.15 20.45Q20.15 21.5 20.55 22.85Q20.55 25.55 20.1 25.9L17.6 26.05L16.35 26.25L15.85 26.5L15.3 26.95L14.9 27.45L14.4 28.95L14.35 29.8Q14.35 30.2 14.75 30.6Q14.35 30.75 14 31.45Q13.65 32.2 13.7 33.3L13.7 33.45L13.8 33.85L14 34.15Q14.35 34.5 15.15 34.5L15.75 34.45L14.65 34.85Q13 35.45 12.45 34.4L12.3 34L12.25 33.85L12.1 32.65Q12.15 31.5 12.8 30.85L13 30.65L12.65 30.3L12.45 30.15L12.4 29.5L12.4 29.35Q12.4 28.6 12.55 28.1L12.65 27.7Q12.9 26.7 13.95 25.7Q13.95 25.25 15.45 24.65L15.8 24.45L16.45 24.15L19.5 24.2L19.4 23.95Q18.15 23.1 18.15 21.05L18.25 19.8Q18.5 18.05 19.7 16.75Q19.7 16.65 19.9 16.65Q20.55 16.65 20.6 17.45L20.6 17.55Q20.65 17.1 21.15 16.25L21.35 15.9L23.05 13.8L24 15.4L24.6 16.3L25.35 14.95L25.5 14.8L26.3 16.2L26.55 17.2L26.6 17.2L27.35 16.55L27.5 16.45Q28.7 17.9 28.6 20.4L28.55 20.8Q28.35 22.15 27.5 23.4L27.5 23.95L27.65 23.9L27.9 23.85L30.75 24L31.4 24.1Q33.05 24.4 33.65 25.8Q34.45 26.2 34.8 27.45L34.9 27.9L34.4 29.2L34.5 29.4L34.8 30.15M34.05,42.25Q32.15 41.35 31.8 40.85Q31.45 40.5 31.35 38.55L30.9 37.45L29.7 36.4L29.15 36L28.4 35.25L28.15 34.7Q28.15 34.1 28.3 33.95L28.4 33.9L29.05 33.8L28.95 34.1L29.1 34.25Q29.65 34.4 30.15 34.7L30.8 35.1L30.9 35.15Q32.45 36.35 33.05 38.2L33.05 38.65L33 38.65Q33.1 39.75 32.55 40.8Q32.9 40.8 33.25 41.1L34.3 41.9L34.5 42.05L34.75 42.3L34.75 42.55L34.05 42.25M14.2,40.25L14.35 39.6L14.5 39L14.6 38.85L14.5 38.65Q14.6 38.15 15 37.7Q15.4 37.05 16.15 36.75L18.05 35.2L18.4 34.85L18.5 34.8L18.65 34.9Q19.1 35.4 19.1 35.95L18.4 36.65L17.95 36.95L16.25 38.05L16 38.45L15.35 39.7L15.1 40.25L14.35 41.55Q14 41 14.2 40.25" />
<path style="fill:#A2F2FB;fill-opacity:1" d="M28.7,43.05L29.05 43.55L29.95 44.15L27.65 44.4L28.7 43.05M19.3,44.55L16.45 44.55L16.15 44.55L17.15 44.25L18.2 43.45L19.3 44.55M27.9,23.85L27.65 23.9L27.5 23.95L27.5 23.4Q28.35 22.15 28.55 20.8L28.75 23.3L29.75 23.3L30.45 21.95L30.6 21.95L30.75 24L27.9 23.85M34.5,29.4L34.85 29.1L35 29.1L34.8 30.15L34.5 29.4M29.7,32.6L29.8 32.4L29.85 32.35L29.9 32.4L30.65 33.35Q32.1 34.8 33.4 33.5L34.4 32.05L34 34L34 34.2L36.55 32.15L35.9 34.05L34.65 36.25L34.65 36.55L36.2 36.55Q38.4 35.7 38.75 35.75L35.2 40.6L34.3 41.9L33.25 41.1Q32.9 40.8 32.55 40.8Q33.1 39.75 33 38.65L33.05 38.65L33.05 38.2Q32.45 36.35 30.9 35.15L30.8 35.1L30.75 33.9L30.15 34.7Q29.65 34.4 29.1 34.25L28.95 34.1L29.05 33.8L29.7 32.6M22.4,8.95Q22.4 10.75 24 15.4L23.05 13.8L21.35 15.9L22.4 8.95M18.25,19.8L18.15 21.05Q18.15 23.1 19.4 23.95L19.5 24.2L16.45 24.15L15.8 24.45L15.6 23.9Q14.9 21.55 14.9 20.15L14.9 19.4L17.85 22.65L18 22.65L18 19.55L18.25 19.8M12.65,27.7L12.55 28.1Q12.4 28.6 12.4 29.35L12.4 29.5L11.45 26.4L12.5 27.55L12.65 27.7M12.65,30.3L13 30.65L12.8 30.85L12.65 30.3M14.35,41.55L14.45 41.65L14.5 41.95L14.35 42.05L13.85 42.65Q13.65 42.8 13.6 43.05L12.95 42.45Q9.15 39.2 9 37.45L9 37.3L12.4 38.45L13 38.45L12.15 37.4L11.45 36.4L12.4 36.4L12.85 36.55L13.15 36.85L13.35 36.85Q13.4 36.4 12.65 35.45L11.65 34L12.3 34L12.45 34.4Q13 35.45 14.65 34.85L15.75 34.45L16.8 33.55L17.15 33.2L17.5 32.65Q17.5 33 17.8 33.35L17.8 33.45L18.4 34.2L18.55 34.8L18.5 34.8L18 34.25L18 34.95L18.05 35.2L16.15 36.75Q15.4 37.05 15 37.7Q14.6 38.15 14.5 38.65L14.6 38.85L14.5 39L14.35 39.6L14.2 40.25Q14 41 14.35 41.55" />
<path style="fill:#24A1BF;fill-opacity:1" d="M29.05,33.8L28.4 33.9L28.3 33.95Q28.15 34.1 28.15 34.7L28.4 35.25L29.15 36L29.7 36.4L30.9 37.45L31.35 38.55Q31.45 40.5 31.8 40.85Q32.15 41.35 34.05 42.25L34.75 42.55L34.75 42.75Q34.5 43.75 33.4 44.05L31.55 44.45L29.95 44.15L29.05 43.55L28.7 43.05L28.65 42.4L28.75 41.95L28.3 40.1L27.25 39.5L24.55 37.45Q23.65 36.95 22.95 37.7L21.1 39.25Q19.9 40 19.9 40.7Q19.9 41.3 19.2 42.15L19.2 42.25L18.35 42.95L18.2 43.45L17.15 44.25L16.15 44.55L15.3 44.6L13.4 44.3L13.3 44.2Q13.05 43.6 13.55 43.1L13.6 43.05Q13.65 42.8 13.85 42.65L14.35 42.05L14.5 41.95L14.45 41.65L14.35 41.55L15.1 40.25L15.35 39.7L16 38.45L16.25 38.05L17.95 36.95L18.4 36.65L19.1 35.95Q19.1 35.4 18.65 34.9L18.5 34.8L18.55 34.8L18.4 34.2L17.8 33.45L18.45 33.15Q20.25 32.15 20.25 30.8Q20.25 30.1 19.9 29.8L19.1 29.35L18.75 30.1L18.05 30.5L16.55 30.9Q16.4 31.55 14.9 32.9L13.85 33.8L13.8 33.85L13.7 33.45L13.7 33.3Q13.65 32.2 14 31.45Q14.35 30.75 14.75 30.6Q14.35 30.2 14.35 29.8L14.4 28.95L14.9 27.45L15.3 26.95L15.85 26.5L16.35 26.25L17.6 26.05L20.1 25.9Q20.55 25.55 20.55 22.85Q20.15 21.5 20.15 20.45L20.25 20.15L20.55 18.7L20.7 18.95L21.2 19.35Q21.55 19.35 21.9 18.4L22.65 16.6L22.65 16.5Q23.95 18.6 24.35 18.6L24.9 18.25L24.95 18.2L25.05 17.8L25.25 18.65Q25.55 19.3 26.3 19.15L26.3 20.6L26.15 21.85L25.7 24.95L25.8 25.95Q26.55 25.4 27.1 25.25L28.75 25.15Q29.8 25.35 30.9 26.2L30.95 26.25L31.2 26.45Q32 27.1 31.45 27.8Q32.35 27.8 32.8 28.45Q33.25 29 33.35 30.1L33.35 30.75L33.25 31.95Q31.95 31.75 31.35 30.85Q30.7 30 31.05 29.55L30 29.85Q29.05 29.85 28.3 29.1Q27.65 28.55 27.55 28.1L27.5 28.1L27.15 29.3Q27.15 30.35 28.05 31.45L29.7 32.6L29.05 33.8M24.5,20.3L24.05 20.7L23.7 20.45L23.25 20.3Q22.8 21.25 22.35 21.25L21.8 21L21.4 20.75L21.25 21.55Q20.9 22 20.9 22.35Q20.9 24.05 21.55 25L20.9 26.85Q20.35 28.2 20.35 29.35Q20.35 30.2 20.9 30.9L21.25 31.55L21.4 32.55Q21.4 34.2 19.9 36.35Q18.35 38.5 18.35 39.75L18.4 40.15L18.55 40.15Q18.65 39 20.65 37.7Q22.55 36.45 23.9 36.45Q25 36.45 26.1 37.25Q28 38.5 29.8 39.25Q27.9 37.85 26.85 35.25L26.1 32.8L25.9 30.5L26.15 27.9L26.05 27.65L24.9 27.45Q24.6 27.15 24.6 26.35L24.9 25.15L25.2 23.7L24.95 21.7L24.7 20.3L24.5 20.3" />
<path style="fill:#0C6D98;fill-opacity:1" d="M15.75,34.45L15.15 34.5Q14.35 34.5 14 34.15L13.8 33.85L13.85 33.8L14.9 32.9Q16.4 31.55 16.55 30.9L18.05 30.5L18.75 30.1L19.1 29.35L19.9 29.8Q20.25 30.1 20.25 30.8Q20.25 32.15 18.45 33.15L17.8 33.45L17.8 33.35Q17.5 33 17.5 32.65L17.15 33.2L16.8 33.55L15.75 34.45M29.85,32.35L29.8 32.4L29.7 32.6L28.05 31.45Q27.15 30.35 27.15 29.3L27.5 28.1L27.55 28.1Q27.65 28.55 28.3 29.1Q29.05 29.85 30 29.85L31.05 29.55Q30.7 30 31.35 30.85Q31.95 31.75 33.25 31.95L33.05 32.65Q32.75 33.15 31.8 33.15Q31.15 33.15 30.85 32.85Q30.5 32.4 29.9 32.4L29.85 32.35M24.7,20.3L24.95 21.7L25.2 23.7L24.9 25.15L24.6 26.35Q24.6 27.15 24.9 27.45L26.05 27.65L26.15 27.9L25.9 30.5L26.1 32.8L26.85 35.25Q27.9 37.85 29.8 39.25Q28 38.5 26.1 37.25Q25 36.45 23.9 36.45Q22.55 36.45 20.65 37.7Q18.65 39 18.55 40.15L18.4 40.15L18.35 39.75Q18.35 38.5 19.9 36.35Q21.4 34.2 21.4 32.55L21.25 31.55L20.9 30.9Q20.35 30.2 20.35 29.35Q20.35 28.2 20.9 26.85L21.55 25Q20.9 24.05 20.9 22.35Q20.9 22 21.25 21.55L21.4 20.75L21.8 21L22.35 21.25Q22.8 21.25 23.25 20.3L23.7 20.45L24.05 20.7L24.5 20.3L24.7 20.3" />
<path style="fill:#FFFFFF;fill-opacity:1" d="M27.65,44.4L26.55 44.5L21.35 44.6L19.3 44.55L18.2 43.45L18.35 42.95L19.2 42.25L19.2 42.15Q19.9 41.3 19.9 40.7Q19.9 40 21.1 39.25L22.95 37.7Q23.65 36.95 24.55 37.45L27.25 39.5L28.3 40.1L28.75 41.95L28.65 42.4L28.7 43.05L27.65 44.4M18.4,34.85L18.05 35.2L18 34.95L18 34.25L18.5 34.8L18.4 34.85M30.75,33.9L30.8 35.1L30.15 34.7L30.75 33.9" />
</g>
</svg>
