<?xml version="1.0" encoding="utf-8"?>
<svg version="1.1" id="Layer_1"
xmlns="http://www.w3.org/2000/svg"
xmlns:xlink="http://www.w3.org/1999/xlink"
xmlns:author="http://www.sothink.com"
width="28px" height="25px"
xml:space="preserve">
<g id="12" transform="matrix(1, 0, 0, 1, 0, 0)">
<path style="fill:#694817;fill-opacity:1" d="M26.1,16.35L26.3 15.25Q26.55 13.55 26.2 11.9L25.85 10.5Q24.8 6.95 22.75 5.05L20.6 3.35Q19.15 2.4 17.75 1.85Q15.25 0.9 12 1.45Q9.85 1.75 8.1 2.5Q7.1 2.9 6.2 3.45Q3.75 4.9 2.7 7.1L2.35 7.85L1.85 9.15L1.3 11.25Q0.9 13.2 1.5 15.9Q2.05 18.6 3.9 20.4L5.35 21.65L5.3 20.75Q5.25 19.85 6.05 18.4L6.55 19.15L7.75 20.75Q8.55 21.7 9.25 21.95L8.95 20.5L8.9 19.35L9.1 17.4Q9.3 16.35 10.05 15.3Q10.8 14.25 11.15 14.2L12.5 17.45Q13.25 19.05 14.75 19.75L14.9 19.15Q15.05 18.45 15.7 17.4Q16.35 16.3 17.35 15.8L19.05 15.1Q19.75 14.9 20.05 15.1L21.5 17L22.9 19.4L23.7 21.05Q25.5 18.7 26.1 16.35M22.25,20.2L21.3 18.4L19.6 16Q18.4 16.1 17.4 16.85Q16.35 17.6 16 18.5Q15.65 19.4 15.4 20.95Q14.15 20.8 13.2 19.85Q11.65 18.3 10.95 16.3L10.8 15.7Q10.15 16.6 9.85 17.9Q9.6 18.95 9.65 20Q9.65 20.95 9.95 21.9L10.05 22.25L10.4 23.5Q9.15 23.1 8.55 22.7L7.2 21.55L6.3 20.35Q6 20.45 6.45 23.4Q3.1 21.65 1.3 18.7Q-0.5 15.7 0.2 10.8Q0.55 8.3 1.9 6.25L2.45 5.5Q3.45 4.15 4.9 3.05L5 3Q6.9 1.6 8.85 0.9Q10.45 0.4 13.3 0.05Q16.1 -0.25 19 0.95Q22.05 2.3 24.65 5.15Q26 6.65 26.75 8.95Q27.75 11.65 27.6 14.05L27.6 14.4L27.5 14.95L27 16.95L26.2 18.95Q25.05 21.4 23.4 22.4L23.1 21.95L22.75 21.2L22.25 20.2" />
<path style="fill:#FBF734;fill-opacity:1" d="M12,1.45Q15.25 0.9 17.75 1.85Q19.15 2.4 20.6 3.35L22.75 5.05Q24.8 6.95 25.85 10.5L26.2 11.9Q26.55 13.55 26.3 15.25L26.15 14.9Q24.2 10.7 21.95 9.95L22.05 9.95Q23.1 9.25 23.75 9.3L23.25 8.35L21.5 5.95Q20.15 4.35 19.05 3.95L18.3 3.8L18.2 3.75Q15.7 4.25 14.85 6.05L14.85 5.6Q14.85 4.25 16 3.2L15.75 3.15L15.55 3.15Q13.8 3.15 12.45 3.75L11.45 4.35Q11.45 3.8 12.8 2.8L13.55 2.25L12.05 2.25L8.1 2.5Q9.85 1.75 12 1.45" />
<path style="fill:#FED009;fill-opacity:1" d="M26.1,16.35L24.15 17.6L24.45 16.9Q24.45 16.25 23.85 14.9Q23.2 13.5 22.05 12.1Q20.85 10.65 19.55 10.4L19.55 10.45Q19.2 11.05 15.55 13.35Q14.95 11.1 16.6 8.85Q14.3 8.9 12.4 11.55L12.25 11.2Q12.15 10.95 12.4 9.4Q12.65 7.85 13.15 7.35Q13.55 6.8 11.6 7.65Q9.65 8.5 8.6 9.55L7.3 10.85Q7 10.55 6.95 9.6Q6.85 8.6 7.15 8L7.55 7.3Q5.8 7.7 4.1 9.2Q2.9 10.2 2.9 10.95L2.4 9.35Q2.25 8.85 2.35 7.85L2.7 7.1Q3.75 4.9 6.2 3.45Q7.1 2.9 8.1 2.5L12.05 2.25L13.55 2.25L12.8 2.8Q11.45 3.8 11.45 4.35L12.45 3.75Q13.8 3.15 15.55 3.15L15.75 3.15L16 3.2Q14.85 4.25 14.85 5.6L14.85 6.05Q15.7 4.25 18.2 3.75L18.3 3.8L19.05 3.95Q20.15 4.35 21.5 5.95L23.25 8.35L23.75 9.3Q23.1 9.25 22.05 9.95L21.95 9.95Q24.2 10.7 26.15 14.9L26.3 15.25L26.1 16.35" />
<path style="fill:#D48D01;fill-opacity:1" d="M23.7,21.05L22.9 19.4L21.5 17L20.05 15.1Q19.75 14.9 19.05 15.1L17.35 15.8Q16.35 16.3 15.7 17.4Q15.05 18.45 14.9 19.15L14.75 19.75Q13.25 19.05 12.5 17.45L11.15 14.2Q10.8 14.25 10.05 15.3Q9.3 16.35 9.1 17.4L8.9 19.35L8.95 20.5L9.25 21.95Q8.55 21.7 7.75 20.75L6.55 19.15L6.05 18.4Q5.25 19.85 5.3 20.75L5.35 21.65L3.9 20.4Q2.05 18.6 1.5 15.9Q0.9 13.2 1.3 11.25L1.85 9.15L2.35 7.85Q2.25 8.85 2.4 9.35L2.9 10.95Q2.9 10.2 4.1 9.2Q5.8 7.7 7.55 7.3L7.15 8Q6.85 8.6 6.95 9.6Q7 10.55 7.3 10.85L8.6 9.55Q9.65 8.5 11.6 7.65Q13.55 6.8 13.15 7.35Q12.65 7.85 12.4 9.4Q12.15 10.95 12.25 11.2L12.4 11.55Q14.3 8.9 16.6 8.85Q14.95 11.1 15.55 13.35Q19.2 11.05 19.55 10.45L19.55 10.4Q20.85 10.65 22.05 12.1Q23.2 13.5 23.85 14.9Q24.45 16.25 24.45 16.9L24.15 17.6L26.1 16.35Q25.5 18.7 23.7 21.05M8.65,15.15L8.75 15.15L8.75 15.05L8.65 15.15" />
<path style="fill:#9C753C;fill-opacity:1" d="M12,22.35Q14 23.9 16.05 23.95Q18.3 23.95 20.7 22.1L21.1 21.75L21.8 20.95L22.25 20.2L22.75 21.2L21.75 22.45L19.8 23.95Q18.55 24.75 16.7 24.95L16.1 25Q14.5 25 12.95 24.25Q11.1 23.35 9.95 21.9Q9.65 20.95 9.65 20L12 22.35" />
<path style="fill:#D0A15B;fill-opacity:1" d="M16.05,23.95Q14 23.9 12 22.35L9.65 20Q9.6 18.95 9.85 17.9Q10.15 16.6 10.8 15.7L10.95 16.3Q11.65 18.3 13.2 19.85Q14.15 20.8 15.4 20.95Q15.65 19.4 16 18.5Q16.35 17.6 17.4 16.85Q18.4 16.1 19.6 16L21.3 18.4L22.25 20.2L21.8 20.95L21.1 21.75L20.75 21.35Q19.25 19.5 19.25 18.85Q18 19.05 17.15 20.3Q16.15 21.7 16.05 23.95" />
<path style="fill:#E9CB9E;fill-opacity:1" d="M17.15,20.3Q18 19.05 19.25 18.85Q19.25 19.5 20.75 21.35L21.1 21.75L20.7 22.1Q18.3 23.95 16.05 23.95Q16.15 21.7 17.15 20.3" />
<path style="fill:#C6A831;fill-opacity:1" d="M8.75,15.05L8.75 15.15L8.65 15.15L8.75 15.05" />
</g>
</svg>
