<?xml version="1.0" encoding="utf-8"?>
<svg version="1.1" id="Layer_1"
xmlns="http://www.w3.org/2000/svg"
xmlns:xlink="http://www.w3.org/1999/xlink"
xmlns:author="http://www.sothink.com"
width="55px" height="44px"
xml:space="preserve">
<g id="1361" transform="matrix(1, 0, 0, 1, 0, 0)">
<path style="fill:#3E3A2F;fill-opacity:1" d="M5.95,35.25Q4.6 34.75 3.7 32.75L3.45 32.1L3.35 31.25L4.55 31.2L5.65 32L7.85 33.05L7.9 33.05L7.9 32.35Q7.95 31.25 8.45 30.45L8.5 30.4L9.85 30.55L10.7 30.8Q11.8 31.7 12.05 32.75L11.45 33.05L9.65 31.05L9.45 30.85L9.2 31.25L8.8 32.5L8.8 32.65Q8.6 33.45 8.75 33.85L8.45 33.95L7.9 34.1L5.35 32.95L5.1 32.8L4.85 32.65L4.55 32.45Q5.15 33.9 6.4 34.8L6.15 35L5.95 35.25" />
<path style="fill:#3C3427;fill-opacity:1" d="M7.55,38.8Q7.95 39.1 8.55 39.25L11.25 39.1Q12.6 38.6 14.25 36.95Q15.85 35.25 18.4 34.7Q20.95 34.1 25.9 36.7Q30.85 39.3 33.1 40.15Q33.55 41.25 34.5 41.8L35.15 42.1Q33.65 41.75 29.2 39.5Q22.55 36.1 19.75 35.95Q16.95 35.8 14.9 38Q12.8 40.2 10.6 40.5Q8.35 40.8 7 39.85L6.8 39.7L6.15 39Q5.55 38.15 5.5 37Q5.45 35.9 5.95 35.25L6.15 35L6.4 34.8L6.85 34.55L7.25 34.35L7.9 34.1L8.45 33.95L8.75 33.85L9.5 33.65L9.75 33.6L10.6 33.35L11.45 33.05L12.05 32.75L13.5 31.8L14.8 32.1L13.75 32.85Q12.45 33.85 11.05 34.2L10.8 34.3L9.8 34.55L8.5 34.85Q7.85 35 7.5 35.3L6.95 35.8Q6.5 36.4 6.85 37.65L7.55 38.8" />
<path style="fill:#B3A38A;fill-opacity:1" d="M6.85,37.65Q7.2 36.55 9 35.7L9.25 35.6Q9.2 35.45 9.3 35.3Q9.45 35.05 9.7 35.05L10.45 35.15L11.55 34.7L11.6 35.1Q11.95 35.5 12.4 35.25L12.4 35.15Q12.6 34.6 12.3 34.4L12.95 34.05L16.2 32.15L20.05 31.75Q22.3 31.4 25 31.65L27.55 32.25Q28.8 32.75 30.65 35.25L31.25 36.1L29.25 35.25L28.25 34.8L28.2 34.85L28.2 34.95Q27.2 35.25 26.85 34.3L26.85 34.25L24.1 33.55L23.9 33.5Q23.75 33.3 23.4 33.25L23 33.35L22.95 33.3L22.95 33.35Q22.7 33.45 22.65 33.7Q21.95 33.85 21.25 33.4L21.25 33.2L20.25 33.15L18.3 33.25Q18.6 32.75 18 32.45L17.9 32.5Q17.4 33.05 17.85 33.35Q16.25 33.65 14.85 34.4L15 34.45L15.05 34.6L15 35.15L14.6 35.3Q14.6 34.75 13.9 34.75L13.65 34.85L13.45 35.3L13.1 35.6L11.45 36.9Q11.65 37.1 11.5 37.5L11.45 37.6Q10.8 37.65 10.8 37.35Q9.1 38.4 7.55 38.8L6.85 37.65M12.4,37.05Q12.7 37 12.8 37.25L12.85 37.3Q12.7 38.15 12.05 37.6Q11.95 37.25 12.25 37.1L12.4 37.05M8.65,36.6Q8.35 36.7 8.45 37.05L9.25 37.1L9.25 37.05Q9.2 36.6 8.8 36.55L8.65 36.6M23,32.25Q22.85 32.25 22.7 32.4L22.65 32.55L22.65 32.6Q22.75 33.3 23.5 33.1L23.7 32.75L23.6 32.35L23.45 32.3L23 32.25M27.2,32.75L27 32.85Q26.7 33.15 26.75 33.6Q27.25 34 27.7 33.6L27.8 33.3L27.7 32.85L27.55 32.8L27.2 32.75M29,36.65L29 36.75Q27.75 36.95 28.3 35.95L28.4 35.95Q29.2 35.95 29 36.65" />
<path style="fill:#F0EAC6;fill-opacity:1" d="M9.75,33.6L9.5 33.65L9.45 32.75L9.5 31.7L10.15 32.55L10.6 33.35L9.75 33.6M7.2,31.35L7.4 32.15L6.4 31.7L7.2 31.35M6.85,34.55L6.15 33.8L5.85 33.5L6.45 33.9L7.25 34.35L6.85 34.55" />
<path style="fill:#323E54;fill-opacity:1" d="M13.1,20.5L14.95 21.5L15.55 22.15L15.55 22.4L15.5 22.65L15.4 22.8L14.95 23.55L13.7 25.3Q12.5 26.95 10.4 26.8L8.8 26.5L7.55 26.1L6.45 25.65L6.35 25.6L6.3 25.55L6.35 25.25L6.5 24.7L6.55 24.5L6.8 23.75L6.95 23.25Q7.5 21.5 9.1 20.45L9.6 20.2L11.6 20Q12.3 20.1 13.1 20.5M7.3,24.9L7.6 25.05L7.95 25.15L9 25.5L10.2 25.8Q11.65 26.1 12.45 25.35L13.5 24.05L14.4 22.3L13.9 22L13.3 21.7Q11.7 20.9 10.5 21.05L10.3 21.1Q10 21.1 9.8 21.25Q8.95 21.55 8.35 22.35L7.8 23.4L7.55 24.05L7.3 24.9" />
<path style="fill:#A87C28;fill-opacity:1" d="M7.55,24.05L7.75 24.05L8.75 24.4L9 24.55L10.3 24.95L10.75 24.95L11.8 24.65L11.85 24.6L12.7 23.3L13.1 22.35L13.3 21.7L13.9 22L14.4 22.3L13.5 24.05L12.45 25.35Q11.65 26.1 10.2 25.8L9 25.5L7.95 25.15L7.6 25.05L7.3 24.9L7.55 24.05" />
<path style="fill:#877861;fill-opacity:1" d="M31.25,36.1Q32.55 38 32.9 39.4L33.1 40.15Q30.85 39.3 25.9 36.7Q20.95 34.1 18.4 34.7Q15.85 35.25 14.25 36.95Q12.6 38.6 11.25 39.1L8.55 39.25Q7.95 39.1 7.55 38.8Q9.1 38.4 10.8 37.35Q10.8 37.65 11.45 37.6L11.5 37.5Q11.65 37.1 11.45 36.9L13.1 35.6L13.45 35.3L13.65 34.85L13.9 34.75Q14.6 34.75 14.6 35.3L15 35.15L15.05 34.6L15 34.45L14.85 34.4Q16.25 33.65 17.85 33.35L18.15 33.45L18.15 33.4L18.3 33.25L20.25 33.15L21.25 33.2L21.25 33.4Q21.95 33.85 22.65 33.7Q22.7 33.45 22.95 33.35L22.95 33.3L23 33.35L23.4 33.25Q23.75 33.3 23.9 33.5L24.1 33.55L26.85 34.25L26.85 34.3Q27.2 35.25 28.2 34.95L28.2 34.85L28.25 34.8L29.25 35.25L31.25 36.1M12.25,37.1Q11.95 37.25 12.05 37.6Q12.7 38.15 12.85 37.3L12.8 37.25Q12.7 37 12.4 37.05L12.25 37.1M8.8,36.55Q9.2 36.6 9.25 37.05L9.25 37.1L8.45 37.05Q8.35 36.7 8.65 36.6L8.8 36.55M23.45,32.3L23.6 32.35L23.7 32.75L23.5 33.1Q22.75 33.3 22.65 32.6L22.65 32.55L22.7 32.4Q22.85 32.25 23 32.25L23.45 32.3M27.55,32.8L27.7 32.85L27.8 33.3L27.7 33.6Q27.25 34 26.75 33.6Q26.7 33.15 27 32.85L27.2 32.75L27.55 32.8M28.4,35.95L28.3 35.95Q27.75 36.95 29 36.75L29 36.65Q29.2 35.95 28.4 35.95" />
<path style="fill:#CDBFA8;fill-opacity:1" d="M12.95,34.05L12.3 34.4Q12.6 34.6 12.4 35.15L12.4 35.25Q11.95 35.5 11.6 35.1L11.55 34.7L10.45 35.15L9.7 35.05Q9.45 35.05 9.3 35.3Q9.2 35.45 9.25 35.6L9 35.7Q7.2 36.55 6.85 37.65Q6.5 36.4 6.95 35.8L7.5 35.3Q7.85 35 8.5 34.85L9.8 34.55L10.8 34.3L11.05 34.2Q12.45 33.85 13.75 32.85L14.8 32.1L15.85 32.15L16.2 32.15L12.95 34.05M18.15,33.4L18.15 33.45L17.85 33.35Q17.4 33.05 17.9 32.5L18 32.45Q18.6 32.75 18.3 33.25L18.15 33.4" />
<path style="fill:#9D8E79;fill-opacity:1" d="M6.4,31.7L5.65 32L4.55 31.2L6.8 30.65L8.5 30.4L8.45 30.45Q7.95 31.25 7.9 32.35L7.9 33.05L7.85 33.05L7.8 32.95L7.4 32.15L7.2 31.35L6.4 31.7M12.05,32.75Q11.8 31.7 10.7 30.8L11.4 31.05L13.5 31.8L12.05 32.75M9.2,31.25L9.45 30.85L9.65 31.05L11.45 33.05L10.6 33.35L10.15 32.55L9.5 31.7L9.2 31.25M7.25,34.35L6.45 33.9L5.85 33.5L5.1 32.8L5.35 32.95L7.9 34.1L7.25 34.35" />
<path style="fill:#FFFCEE;fill-opacity:1" d="M8.75,33.85Q8.6 33.45 8.8 32.65L8.8 32.5L9.2 31.25L9.5 31.7L9.45 32.75L9.5 33.65L8.75 33.85M6.4,31.7L7.4 32.15L7.8 32.95L7.85 33.05L5.65 32L6.4 31.7M6.4,34.8Q5.15 33.9 4.55 32.45L4.85 32.65L5.1 32.8L5.85 33.5L6.15 33.8L6.85 34.55L6.4 34.8" />
<radialGradient
id="RadialGradID_1578" gradientUnits="userSpaceOnUse" gradientTransform="matrix(0.00283813, 1.52588e-005, -1.52588e-005, 0.00283813, 10.5, 22.9)" spreadMethod ="pad" cx="0" cy="0" r="819.2" fx="0" fy="0" >
<stop  offset="0"  style="stop-color:#F7EFB1;stop-opacity:1" />
<stop  offset="1"  style="stop-color:#DBAC50;stop-opacity:1" />
</radialGradient>
<path style="fill:url(#RadialGradID_1578) " d="M13.1,22.35L12.7 23.3L11.85 24.6L11.8 24.65L10.75 24.95L10.3 24.95L9 24.55L8.75 24.4L7.75 24.05L7.55 24.05L7.8 23.4L8.35 22.35Q8.95 21.55 9.8 21.25Q10 21.1 10.3 21.1L10.5 21.05Q11.7 20.9 13.3 21.7L13.1 22.35" />
<path style="fill:#71B4BB;fill-opacity:1" d="M23,29.85L16.95 29.6Q17.15 30.25 15.95 30.3L15.85 30.25Q15.7 29.8 15.9 29.55L12.2 28.9Q11.05 28.35 12.05 28.3Q13 28.2 14.65 25.75Q15.85 23.95 15.6 22.9L18.45 24.7L18.9 24.95L18.3 26.3Q17.75 27.25 16.6 28.2Q19.65 28.8 20.5 25.9L22.2 26.8L22.2 26.85Q21.95 28 20.9 28.6L22.4 28.5Q23.9 28 23.65 27.5Q27.2 29 31.1 29.35Q31.3 30.25 32.35 29.9L32.35 29.8L32.35 29.4L33.15 29.4L35.05 29.3Q35 30.05 36.3 29.85L36.3 29.75L36.3 29.15L36.9 29.05Q38.65 31.85 39.1 33.6Q39.15 31.6 38.3 28.85L39.5 28.7L40.3 28.6L40.8 29.35L42.6 32.55Q42.6 34.65 41.85 35.75L41.4 35.65L41.05 36.1Q41.55 36.25 41.45 36.9L41.45 37L40.85 37.1L40.85 37.7L40.8 37.8L40 37.8Q39.4 37.9 38.95 37.4L38.95 37.3L37.8 37.35L36.85 37.3L36.8 36.95L36.65 36.9L36 36.85Q35.8 36.85 35.7 37L35.65 37.1L35.65 37.2L33.3 36.7L32.95 36.6Q31.75 34.55 30.2 32.9Q28.85 31.4 27.35 30.9Q25.5 29.85 23 29.85M47.55,35.45L47.55 35.5Q47.2 36 46.65 35.65Q46.5 35.4 46.5 35.05L46.55 34.85L46.9 34.65Q47.55 34.75 47.55 35.45M46.5,37.4L46.6 37.35Q47.75 37.35 47.55 38.4L47.5 38.5Q45.25 38.7 46.5 37.4M41.1,40.9L40.15 40.95Q39.9 40.6 40.15 40.25L40.4 40.05Q41.3 40.05 41.15 40.8L41.1 40.9M6.8,26.35L8 27.6L8.25 27.75L8.2 27.75L7.25 27.9L7.2 28.35L7.2 28.45Q6.05 28.55 5.95 28.2L5.8 28.25L3.75 28.8L3.85 28.75Q3.6 28.4 3.5 27.85L3.5 27.95Q2.85 28.25 2.85 27.6Q2.85 27.25 3.2 27.25L3.5 27.4L3.5 26.55L3.35 26.55Q2.85 25.95 3.5 25.45L3.7 25.35Q4.1 23.8 5.15 22.4L5.15 22.15Q5.2 21.9 5.4 21.85L5.5 21.85L5.6 21.85L7.2 19.95L7.55 19.95L9.6 20.2L9.1 20.45Q7.5 21.5 6.95 23.25L6.8 23.75L5.65 25.1L4.4 26.65L6.8 26.35M5.35,23.9L5.35 23.95Q6.45 24.25 5.7 23.45L5.55 23.5Q5.3 23.6 5.35 23.9M15.45,27.55L15.1 27.45L15 27.5Q14.3 28.3 15.4 28.3L15.5 28.15L15.55 27.65L15.45 27.55M33.2,31.15Q32.95 31.15 32.85 31.45Q32.75 31.9 32.95 32.25Q33.45 32.55 33.9 32.25L34 31.7L33.9 31.25L33.75 31.2L33.2 31.15M31.3,31.85L31.2 31.9Q30.55 32.55 31.45 32.75L31.5 32.7Q31.95 32.15 31.3 31.85M36.85,33.8L36.65 33.95L36.65 34.2Q36.95 35.8 38.1 34.65L38.05 34.55Q37.85 33.8 37 33.75L36.85 33.8" />
<path style="fill:#4F8A91;fill-opacity:1" d="M39.4,22.2L39.95 22.5L41.4 23.4L40.6 23.6L40.55 23.65L39.4 22.2M40.9,24.15L43.2 25.8Q44.65 27.05 45.9 28.9L47.35 31.5Q50 37 49.25 38.95Q48.5 40.85 45.15 41.65L38.7 41.95Q35.6 41.5 35.05 40.45L33.6 37.8L33.25 37.15L33.2 37.05L32.95 36.6L33.3 36.7L35.65 37.2L35.65 37.1L35.7 37Q35.8 36.85 36 36.85L36.65 36.9L36.8 36.95L36.85 37.3L37.8 37.35L38.95 37.3L38.95 37.4Q39.4 37.9 40 37.8L40.8 37.8L40.85 37.7L40.85 37.1L41.45 37L41.45 36.9Q41.55 36.25 41.05 36.1L41.4 35.65L41.85 35.75Q42.6 34.65 42.6 32.55Q43.9 35.45 43.9 38.3L44 38.4Q44.5 37.15 44.5 35.4Q44.5 29.85 41.3 24.75L40.9 24.15M27.2,16.9L29.25 19.25Q34.4 25.15 36.9 29.05L36.3 29.15L36.3 29.75L36.3 29.85Q35 30.05 35.05 29.3L33.15 29.4L32.35 29.4L32.35 29.8L32.35 29.9Q31.3 30.25 31.1 29.35Q27.2 29 23.65 27.5Q23.9 28 22.4 28.5L20.9 28.6Q21.95 28 22.2 26.85L22.2 26.8L20.5 25.9Q19.65 28.8 16.6 28.2Q17.75 27.25 18.3 26.3L18.9 24.95L18.45 24.7L15.6 22.9Q15.85 23.95 14.65 25.75Q13 28.2 12.05 28.3Q11.05 28.35 12.2 28.9L15.9 29.55Q15.7 29.8 15.85 30.25L15.95 30.3Q17.15 30.25 16.95 29.6L23 29.85Q25.5 29.85 27.35 30.9L26.7 30.75L23.7 30.4L21.4 30.55L17.5 30.95Q14.7 31.2 12.85 30.35Q10.95 29.45 9.65 29.2L7.1 29.25L5.9 29.55L4.55 29.9L2.45 29.85Q1.65 29.45 1.5 28.8L1.5 28.7L2.8 28.85L3.85 28.75L3.75 28.8L5.8 28.25L5.95 28.2Q6.05 28.55 7.2 28.45L7.2 28.35L7.25 27.9L8.2 27.75L8.25 27.75L8 27.6L6.8 26.35L7.55 26.1L8.8 26.5L10.4 26.8Q12.5 26.95 13.7 25.3L14.95 23.55L15.4 22.8L15.5 22.65L15.55 22.4L15.55 22.15L14.95 21.5L17.7 20.1Q21.05 18.2 25.9 16.75L26.25 16.65L27.2 16.9M5.75,20.1Q8.35 17.35 11.85 16.7L14.6 16L14 15.8L17.8 15.6L17.55 15.75L15.5 17.2Q13.55 18.4 11.6 20L9.6 20.2L7.55 19.95L7.2 19.95L5.75 20.1M40.3,28.6L39.5 28.7L38.3 28.85L37.75 27.15Q36.9 24.8 35.65 22.6L40.3 28.6M46.9,34.65L46.55 34.85L46.5 35.05Q46.5 35.4 46.65 35.65Q47.2 36 47.55 35.5L47.55 35.45Q47.55 34.75 46.9 34.65M47.5,38.5L47.55 38.4Q47.75 37.35 46.6 37.35L46.5 37.4Q45.25 38.7 47.5 38.5M41.15,40.8Q41.3 40.05 40.4 40.05L40.15 40.25Q39.9 40.6 40.15 40.95L41.1 40.9L41.15 40.8M5.55,23.5L5.7 23.45Q6.45 24.25 5.35 23.95L5.35 23.9Q5.3 23.6 5.55 23.5M15.55,27.65L15.5 28.15L15.4 28.3Q14.3 28.3 15 27.5L15.1 27.45L15.45 27.55L15.55 27.65M33.75,31.2L33.9 31.25L34 31.7L33.9 32.25Q33.45 32.55 32.95 32.25Q32.75 31.9 32.85 31.45Q32.95 31.15 33.2 31.15L33.75 31.2M31.5,32.7L31.45 32.75Q30.55 32.55 31.2 31.9L31.3 31.85Q31.95 32.15 31.5 32.7M37,33.75Q37.85 33.8 38.05 34.55L38.1 34.65Q36.95 35.8 36.65 34.2L36.65 33.95L36.85 33.8L37 33.75" />
<path style="fill:#A0DAE0;fill-opacity:1" d="M5.6,21.85L5.5 21.85L5.4 21.85Q5.2 21.9 5.15 22.15L5.15 22.4Q4.1 23.8 3.7 25.35L3.5 25.45Q2.85 25.95 3.35 26.55L3.5 26.55L3.5 27.4L3.2 27.25Q2.85 27.25 2.85 27.6Q2.85 28.25 3.5 27.95L3.5 27.85Q3.6 28.4 3.85 28.75L2.8 28.85L1.5 28.7Q1.35 28.25 1.45 27.55L1.5 27.05L1.55 26.55Q1.8 24.95 4.75 21.2L5.75 20.1L7.2 19.95L5.6 21.85" />
<path style="fill:#324B54;fill-opacity:1" d="M34.5,41.8Q33.55 41.25 33.1 40.15L32.9 39.4Q32.55 38 31.25 36.1L30.65 35.25Q28.8 32.75 27.55 32.25L25 31.65Q22.3 31.4 20.05 31.75L16.2 32.15L15.85 32.15L14.8 32.1L13.5 31.8L11.4 31.05L10.7 30.8L9.85 30.55L8.5 30.4L6.8 30.65L4.55 31.2L3.35 31.25L3 31.25Q1.25 31.05 0.5 30Q-0.05 29.2 0 28L0.05 27.35Q0.25 26 1.1 24.2Q1.95 22.35 3.1 20.9Q4.4 19.1 6.05 17.8Q9.1 15.35 11.85 15.55L14 15.8L14.6 16L11.85 16.7Q8.35 17.35 5.75 20.1L4.75 21.2Q1.8 24.95 1.55 26.55L1.5 27.05L1.45 27.55Q1.35 28.25 1.5 28.7L1.5 28.8Q1.65 29.45 2.45 29.85L4.55 29.9L5.9 29.55L7.1 29.25L9.65 29.2Q10.95 29.45 12.85 30.35Q14.7 31.2 17.5 30.95L21.4 30.55L23.7 30.4L26.7 30.75L27.35 30.9Q28.85 31.4 30.2 32.9Q31.75 34.55 32.95 36.6L33.2 37.05L33.25 37.15L33.6 37.8L35.05 40.45Q35.6 41.5 38.7 41.95L45.15 41.65Q48.5 40.85 49.25 38.95Q50 37 47.35 31.5L45.9 28.9Q44.65 27.05 43.2 25.8L40.9 24.15L40.75 24.05L40.45 23.9L40.45 23.85L40.55 23.65L40.6 23.6L41.4 23.4L41.7 23.35L41.9 23.55L42.8 24.25L43.05 24.45Q44.25 25.75 44.1 25.4Q43.85 25 44.5 25.5L46 26.75Q46.65 27.25 47.85 29.55L48.9 31.65Q50.85 35.8 51 37.7Q51.15 39.6 50.3 40.55Q49.4 41.55 47.55 42.4Q45.65 43.2 42.9 43.25L37.95 42.85L35.15 42.1L34.5 41.8" />
<path style="fill:#2F4A72;fill-opacity:1" d="M38.3,28.85Q39.15 31.6 39.1 33.6Q38.65 31.85 36.9 29.05L37.15 29L37.45 28.95L38.3 28.85M4.4,26.65L5.65 25.1L6.8 23.75L6.55 24.5L6.5 24.7L6.35 25.25L6.3 25.55L6.35 25.6L6.45 25.65L7.55 26.1L6.8 26.35L4.4 26.65" />
<path style="fill:#253C5D;fill-opacity:1" d="M40.55,23.65L40.45 23.85L40.45 23.9L40.75 24.05L40.9 24.15L41.3 24.75Q44.5 29.85 44.5 35.4Q44.5 37.15 44 38.4L43.9 38.3Q43.9 35.45 42.6 32.55L40.8 29.35L40.3 28.6L35.65 22.6Q36.9 24.8 37.75 27.15L38.3 28.85L37.45 28.95L37.15 29L36.9 29.05Q34.4 25.15 29.25 19.25L27.2 16.9L30.8 18.05L32.25 18.6L33.25 19Q36.3 20.35 39.4 22.2L40.55 23.65M11.6,20Q13.55 18.4 15.5 17.2L17.55 15.75L17.8 15.6L19.1 15.65Q22.65 15.8 26.25 16.65L25.9 16.75Q21.05 18.2 17.7 20.1L14.95 21.5L13.1 20.5Q12.3 20.1 11.6 20" />
<linearGradient
id="LinearGradID_1579" gradientUnits="userSpaceOnUse" gradientTransform="matrix(-0.000793457, -0.00216675, 0.0014801, -0.000366211, 11.05, 24.15)" spreadMethod ="pad" x1="-819.2" y1="0" x2="819.2" y2="0" >
<stop  offset="0" style="stop-color:#1F293C;stop-opacity:1" />
<stop  offset="1" style="stop-color:#323E54;stop-opacity:1" />
</linearGradient>
<path style="fill:url(#LinearGradID_1579) " d="M9.9,20.8Q10.35 20.75 11.05 21.55Q11.75 22.25 12.05 23.35Q12.35 24.45 12.25 25.2Q12 26 11.6 26.1L10.45 25.35Q9.8 24.7 9.55 23.65Q9.3 22.65 9.4 21.8Q9.5 20.95 9.9 20.8M10.45,22.2L10.3 22.55L10.4 22.85L10.85 23.05Q11.05 23.05 11.25 22.85L11.4 22.6L11.3 22.2L10.9 22.1L10.45 22.2" />
<path style="fill:#F3F3F3;fill-opacity:1" d="M10.9,22.1L11.3 22.2L11.4 22.6L11.25 22.85Q11.05 23.05 10.85 23.05L10.4 22.85L10.3 22.55L10.45 22.2L10.9 22.1" />
<path style="fill:#301D16;fill-opacity:1" d="M12.8,12.25L12.15 12L11.35 11.75L10.6 11.55L11.1 11.4L11.65 11.3L11.8 11.25L13.3 11L14.2 10.9L15.55 10.75L20.2 11.25L22.05 11.8L22.4 11.95L22.9 12.2L24.95 13L25.8 13.25L26.4 13.4L31.2 13.9L32.4 14L33.45 14.25L35.4 15.05L35.95 15.35L38.6 16.95L39.3 17.45L41.95 19.6L42.35 19.95L43.3 21L43.5 21.2L43.1 21.15L41.6 21.15L39.2 19.05L38.1 18.15Q33.85 15 30.1 15.05Q25.85 15.05 23.05 13.75L20.45 12.75L18.4 12.25L17.35 12.05L12.8 12.25" />
<path style="fill:#4E4138;fill-opacity:1" d="M8.5,16.05Q6.95 16.5 6.2 17.5L5.25 18.9Q5.05 19.3 4.05 18.4Q3.05 17.45 2.95 16.35Q2.8 15.4 3.1 14.5L3.2 14.2Q3.75 12.65 5.2 11.9Q6.5 11.2 8.75 11.3L10.6 11.55L11.35 11.75L12.15 12L12.8 12.25L13.9 12.7Q16.55 13.85 19.9 16.6L20.4 17Q24.65 20.65 28.55 22.1Q30.5 22.85 32.6 22.75L36.6 22.05L37.5 21.8L40.8 21.2L41.6 21.15L43.1 21.15L43.5 21.2L44.5 21.4Q45.15 21.6 45.65 21.95Q46.5 22.5 46.85 23.55L47.3 25.85L47.2 26.45Q46.9 26.75 46.4 26.65L45 26.15L42.7 25.75Q41.3 25.75 37.05 26.7Q32.8 27.6 26.9 25.95Q21 24.3 17.25 20.6Q13.5 16.9 11.8 16.25L9.25 15.9L8.5 16.05M4.05,15.45Q3.95 16.05 4.1 16.45L4.6 17.25Q4.85 17.5 5.35 16.8Q5.8 16.1 6.65 15.65Q7.6 15.05 9.2 14.85Q10.75 14.6 12.7 15.5Q14.65 16.35 17.6 19.35Q20.5 22.35 24.9 24.1Q29.25 25.8 32.95 25.85Q36.6 25.9 40.2 24.95Q43.75 24 46.15 25.4L46 24.55Q45.7 23.75 45.2 23.25L44.4 22.65Q43.65 22.25 42.6 22.2Q40.6 22.05 37.5 23L35.45 23.5Q28.6 24.8 22.95 20.35L16.05 15.35Q14.3 14.25 13 13.65L10.8 12.75L9.1 12.3L7.65 12.3Q6.6 12.35 5.6 13Q4.55 13.6 4.2 14.75L4.15 15.05L4.05 15.45" />
<path style="fill:#270303;fill-opacity:1" d="M9.25,15.9Q8.1 16.3 7.05 17.15L5.25 18.9L6.2 17.5Q6.95 16.5 8.5 16.05L9.25 15.9" />
<path style="fill:#B6A998;fill-opacity:1" d="M4.15,15.05Q5.3 13.75 5.9 13.45L8.6 13.1Q10.35 13.1 14.9 14.9L16.05 15.35L22.95 20.35Q28.6 24.8 35.45 23.5L37.8 23.85L39.95 23.65L42.35 23.4L44.2 23.7Q41.85 23.3 38.5 24.15L37.2 24.5Q37.1 24.15 36.6 24.25Q36.4 24.25 36.3 24.45L36.25 24.6L36.25 24.65L36.3 24.7L35 25Q30.25 25.3 26.15 23.8L26.2 23.85Q25.75 24.5 25.35 23.85Q25.3 23.6 25.55 23.55L24.05 22.85L24.1 22.65L24 22.25L23.85 22.2L23.5 22.15L23.3 22.25L23.2 22.35L22.3 21.8L21.35 20.95L21.35 20.9Q21.5 20.25 20.8 20.15L20.65 20.2L20.6 20.3L19.75 19.5L19.7 19.65L19.7 19.75Q18.3 20 18.85 18.75L18.9 18.75L17.95 17.85L15.55 16.15L15.8 15.85L15.75 15.75Q15.4 15.2 14.7 15.25Q14.45 15.25 14.35 15.45Q10.75 13.5 7.95 13.85L7.8 14.45L7.7 14.65L7.65 14.7L7.4 14.9L7.2 15Q6.75 14.9 6.75 14.45L6.75 14.35L6.9 14.1Q5.4 14.55 4.7 15.6L4.05 15.45L4.15 15.05M33.25,24.2Q33 24.3 33.05 24.55Q33.45 25.2 33.9 24.55L33.85 24.5Q33.8 24.1 33.4 24.15L33.25 24.2M39.95,24.7L40 24.75Q39.5 25.45 39.05 24.75L39.15 24.45L39.4 24.35Q39.85 24.25 39.95 24.7M5.4,15.05Q6.15 15.85 5.05 15.55L5.05 15.5Q5 15.2 5.25 15.1L5.4 15.05" />
<path style="fill:#57351A;fill-opacity:1" d="M17.35,12.05L18.4 12.25L20.45 12.75L20.5 13.9L20.45 14.6L20.5 15.05L20.3 15.1Q20.15 15.2 20.15 15.35Q20.15 16.05 20.9 15.9L21.05 15.8L21.45 16.15L23.6 17.7Q25.6 19.15 31.7 19.2Q31.35 20 32.75 19.7L32.75 19.6L32.75 19.2L33.05 19.2L33.2 18.6L33.3 18.55Q34 18.65 34.15 19.15L34.7 19.1L35 19.05L37.05 18.5L38.1 18.15L39.2 19.05L41.6 21.15L40.8 21.2L37.5 21.8L36.6 22.05L32.6 22.75Q30.5 22.85 28.55 22.1Q24.65 20.65 20.4 17L19.9 16.6Q16.55 13.85 13.9 12.7L12.8 12.25L17.35 12.05M24,16.4Q23.75 17.3 23.05 16.7Q23.05 16.15 23.6 16.05L23.95 16.3L24 16.4M33.55,21.45L34.5 21.4L34.55 21.3Q34.7 20.55 33.9 20.55L33.65 20.65Q33.25 21 33.55 21.45" />
<path style="fill:#837462;fill-opacity:1" d="M46,24.55L46.15 25.4Q43.75 24 40.2 24.95Q36.6 25.9 32.95 25.85Q29.25 25.8 24.9 24.1Q20.5 22.35 17.6 19.35Q14.65 16.35 12.7 15.5Q10.75 14.6 9.2 14.85Q7.6 15.05 6.65 15.65Q5.8 16.1 5.35 16.8Q4.85 17.5 4.6 17.25L4.1 16.45Q3.95 16.05 4.05 15.45L4.7 15.6Q5.4 14.55 6.9 14.1L6.75 14.35L6.75 14.45Q6.75 14.9 7.2 15L7.4 14.9L7.65 14.7L7.7 14.65L7.8 14.45L7.95 13.85Q10.75 13.5 14.35 15.45Q14.45 15.25 14.7 15.25Q15.4 15.2 15.75 15.75L15.8 15.85L15.55 16.15L17.95 17.85L18.9 18.75L18.85 18.75Q18.3 20 19.7 19.75L19.7 19.65L19.75 19.5L20.6 20.3L20.65 20.2L20.8 20.15Q21.5 20.25 21.35 20.9L21.35 20.95L22.3 21.8L23.2 22.35L23.3 22.25L23.5 22.15L23.85 22.2L24 22.25L24.1 22.65L24.05 22.85L25.55 23.55Q25.3 23.6 25.35 23.85Q25.75 24.5 26.2 23.85L26.15 23.8Q30.25 25.3 35 25L36.3 24.7L36.25 24.65L36.25 24.6L36.3 24.45Q36.4 24.25 36.6 24.25Q37.1 24.15 37.2 24.5L38.5 24.15Q41.85 23.3 44.2 23.7L44.5 23.75L45.2 23.25Q45.7 23.75 46 24.55M33.4,24.15Q33.8 24.1 33.85 24.5L33.9 24.55Q33.45 25.2 33.05 24.55Q33 24.3 33.25 24.2L33.4 24.15M39.4,24.35L39.15 24.45L39.05 24.75Q39.5 25.45 40 24.75L39.95 24.7Q39.85 24.25 39.4 24.35M5.25,15.1Q5 15.2 5.05 15.5L5.05 15.55Q6.15 15.85 5.4 15.05L5.25 15.1" />
<path style="fill:#F5F3EE;fill-opacity:1" d="M42.35,23.4L39.95 23.65L37.8 23.85L35.45 23.5L37.5 23Q40.6 22.05 42.6 22.2Q43.65 22.25 44.4 22.65L45.2 23.25L44.5 23.75L44.2 23.7L42.35 23.4M4.15,15.05L4.2 14.75Q4.55 13.6 5.6 13Q6.6 12.35 7.65 12.3L9.1 12.3L10.8 12.75L13 13.65Q14.3 14.25 16.05 15.35L14.9 14.9Q10.35 13.1 8.6 13.1L5.9 13.45Q5.3 13.75 4.15 15.05" />
<path style="fill:#7F5C46;fill-opacity:1" d="M35,19.05L34.7 19.1L34.15 19.15Q34 18.65 33.3 18.55L33.2 18.6L33.05 19.2L32.75 19.2L32.75 19.6L32.75 19.7Q31.35 20 31.7 19.2Q25.6 19.15 23.6 17.7L21.45 16.15L21.05 15.8L20.9 15.9Q20.15 16.05 20.15 15.35Q20.15 15.2 20.3 15.1L20.5 15.05L20.45 14.6L20.5 13.9L21.85 14.55Q21.3 15.15 22.15 15.35L22.2 15.3L22.35 14.75L24.25 15.4L24.35 15.15Q24.4 15.05 24.5 15.05Q25.05 15.2 25.15 15.65L31 16.9L31.15 16.95L31.2 16.8L31.5 16.55L32.25 17.15L32.55 17.2Q32.55 16.85 33 16.75Q33.45 16.9 33.35 17.35Q35.45 17.8 37.05 18.5L35 19.05M23.95,16.3L23.6 16.05Q23.05 16.15 23.05 16.7Q23.75 17.3 24 16.4L23.95 16.3M32.5,17.85L32.35 17.8L32 17.75L31.8 17.85Q31.45 18.15 31.75 18.55Q32.15 18.85 32.5 18.55L32.6 18.25L32.5 17.85M33.65,20.65L33.9 20.55Q34.7 20.55 34.55 21.3L34.5 21.4L33.55 21.45Q33.25 21 33.65 20.65" />
<path style="fill:#B47F60;fill-opacity:1" d="M20.45,12.75L23.05 13.75Q25.85 15.05 30.1 15.05Q33.85 15 38.1 18.15L37.05 18.5Q35.45 17.8 33.35 17.35Q33.45 16.9 33 16.75Q32.55 16.85 32.55 17.2L32.25 17.15L31.5 16.55L31.2 16.8L31.15 16.95L31 16.9L25.15 15.65Q25.05 15.2 24.5 15.05Q24.4 15.05 24.35 15.15L24.25 15.4L22.35 14.75L22.2 15.3L22.15 15.35Q21.3 15.15 21.85 14.55L20.5 13.9L20.45 12.75M32.6,18.25L32.5 18.55Q32.15 18.85 31.75 18.55Q31.45 18.15 31.8 17.85L32 17.75L32.35 17.8L32.5 17.85L32.6 18.25" />
<path style="fill:#9D8E79;fill-opacity:1" d="M33.45,14.25L34.25 12.9L35.15 10.6Q35.45 10.9 35.65 12.15L35.4 15.05L33.45 14.25" />
<path style="fill:#332F25;fill-opacity:1" d="M32.4,14Q33.45 12.85 34.1 11Q34.8 8.85 35.2 8.9Q36.45 10.2 36.6 12.2Q36.7 14 35.95 15.35L35.4 15.05L35.65 12.15Q35.45 10.9 35.15 10.6L34.25 12.9L33.45 14.25L32.4 14" />
<path style="fill:#694817;fill-opacity:1" d="M45.65,19.9Q47.4 19.15 49.3 19L52.25 19.15L53.5 19.4L53.3 18.9Q52.85 18.05 51.85 17.35L48.8 17.6Q47.25 17.8 45.85 18.3L43.9 19.1L43.3 19.4L42.35 19.95L41.95 19.6L43.15 18.75Q43.45 18.55 43.8 18.4L44 18.25Q47.25 16.5 51.6 16.35L52.55 16.45Q54.3 18.15 54.65 19.35L54.7 19.65L54.85 20.7L53.2 20.4L51.25 20.15Q47.75 19.75 44.95 21.15L44.85 21.2L44.5 21.4L43.5 21.2L43.3 21Q44.15 20.5 45.65 19.9M10.55,5.85L8.2 2.45L7.05 1.35L6.15 1.3L4.85 1.45Q3.4 1.75 2.35 2.65Q3.65 3.15 4.8 3.75Q7.8 5.3 9.6 7.55L10.55 8.95L11.8 11.25L11.65 11.3L11.1 11.4L9.2 9L9.1 8.85Q7.1 6.55 4.7 5.2L2.1 3.75L0.4 3.15Q2.35 0.7 4.65 0.3L4.8 0.3L7.4 0L7.9 0.2L9.75 2.4L10.3 3.1Q12 5.35 13.6 9.35L14.2 10.9L13.3 11Q12.55 8.95 10.55 5.85M24.95,13L27.3 10.05Q30.3 6.5 33.2 5.3Q34.75 4.6 35.85 4.4L37.35 4.35L36.8 3.9L34.7 2.95L32.95 2.65L31.75 3.25L30.2 4.45L27.55 6.85Q25.65 8.65 24.1 10.6L23.05 12L22.9 12.2L22.4 11.95L22.05 11.8L23.65 9.75L24 9.3Q27 5.55 29.05 4L32.3 1.65L34.9 2.05Q37.15 2.6 38.25 3.8L38.55 4.15Q39.15 4.95 38.45 5.1L37.3 5.3L34.85 5.9Q32.1 6.6 27.8 11.15L25.8 13.25L24.95 13" />
<path style="fill:#FED009;fill-opacity:1" d="M50.25,18.5L46.75 18.9Q45.65 19.15 45.5 19.3L45.5 19.2L45.7 19Q45.35 18.9 44.75 19.45L43.9 20L43.9 19.1L45.85 18.3L49.75 18Q50.95 18 51.55 18.5L51.65 18.6L50.25 18.5M27.55,6.85L30.2 4.45Q31.65 3.7 32.95 3.7L34.8 3.95L35 4.05Q33.2 4.3 31.5 5.15Q28.25 6.8 26.5 10.2L26.1 9.6L25.1 11.5Q24.6 11.45 24.1 10.6Q25.65 8.65 27.55 6.85M7.2,2.5Q8.65 4.35 10.3 7.7L9.6 7.5L9.6 7.55Q7.8 5.3 4.8 3.75L4.3 2.8L7.2 2.5" />
<path style="fill:#D48D01;fill-opacity:1" d="M43.3,21L42.35 19.95L43.3 19.4L43.9 19.1L43.9 20L44.75 19.45Q45.35 18.9 45.7 19L45.5 19.2L45.5 19.3Q45.65 19.15 46.75 18.9L50.25 18.5L51.65 18.6L53.3 18.9L53.5 19.4L52.25 19.15L49.3 19Q47.4 19.15 45.65 19.9Q44.15 20.5 43.3 21M37.35,4.35L35.85 4.4Q34.75 4.6 33.2 5.3Q30.3 6.5 27.3 10.05L24.95 13L22.9 12.2L23.05 12L24.1 10.6Q24.6 11.45 25.1 11.5L26.1 9.6L26.5 10.2Q28.25 6.8 31.5 5.15Q33.2 4.3 35 4.05L36.65 3.9L36.8 3.9L37.35 4.35M9.6,7.5L10.3 7.7Q8.65 4.35 7.2 2.5L6.15 1.3L7.05 1.35L8.2 2.45L10.55 5.85Q12.55 8.95 13.3 11L11.8 11.25L10.55 8.95L9.6 7.55L9.6 7.5" />
<path style="fill:#FBF734;fill-opacity:1" d="M48.8,17.6L51.85 17.35Q52.85 18.05 53.3 18.9L51.65 18.6L51.55 18.5Q50.95 18 49.75 18L45.85 18.3Q47.25 17.8 48.8 17.6M34.8,3.95L32.95 3.7Q31.65 3.7 30.2 4.45L31.75 3.25L32.95 2.65L34.7 2.95L36.8 3.9L36.65 3.9L35 4.05L34.8 3.95M4.3,2.8L4.8 3.75Q3.65 3.15 2.35 2.65Q3.4 1.75 4.85 1.45L6.15 1.3L7.2 2.5L4.3 2.8" />
<path style="fill:#3E3A2F;fill-opacity:1" d="M41.35,15.05Q41.1 16.8 40.4 18.4Q39.65 20 38.9 20.1L37.25 19.9Q36.35 19.65 35.8 18.85Q35.25 17.95 35.85 17.15Q36.45 16.3 38.3 14.8L40.1 13.4L40.75 13Q41.3 12.7 41.45 13Q41.6 13.25 41.35 15.05M29.8,13.95L29.55 14.2L28.35 15.7L26.3 18.4L26.9 19.25L27.1 19.4L27.65 19.65L28.4 19.65L29.5 17.7Q30 16.5 30 15.4L29.95 14.4L29.8 13.95M30.3,12.65L30.4 12.75L30.45 12.9Q31.4 14.6 30.6 17.4Q29.7 20.2 28.85 20.7Q27.2 20.7 26.25 20L26.1 19.85Q25.25 19.2 25.4 18L29.5 12.9Q29.95 12.25 30.3 12.65M36.7,18.35L36.95 18.65L37.6 19.05L38.25 19.15Q38.9 19.1 39.55 17.6L40.4 14.9L40.45 14.4L39.45 15L39.05 15.35Q37.25 16.8 36.8 17.45Q36.45 17.9 36.7 18.35M20.5,12.55L20.1 13.25Q19.4 13.85 18.4 13.8L16.75 13.45L15.8 12.95L15.15 12.4Q14.6 11.8 14.75 11.4Q16.15 7.6 17.75 5.5Q18.7 4.2 19.4 3.65Q19.85 3.25 20.15 3.2Q20.6 3.4 20.85 5.85Q21.2 9 20.5 12.55M18.55,6.25L17.75 7.65L17 9.05L15.85 11.55L16.65 12.25Q17.5 12.8 18.6 12.75L18.75 12.75L19.25 12.65L19.55 11.55L19.8 9.2L19.75 4.95L19.75 4.85Q19.7 4.8 19.6 4.9L19 5.65L18.55 6.25" />
<path style="fill:#9D8E79;fill-opacity:1" d="M28.35,16.9L29.55 14.2L29.8 13.95L29.95 14.4L29.25 16.85Q28.7 18.7 27.65 19.65L27.1 19.4L26.9 19.25L28.35 16.9M39.3,17.6Q38.7 19 37.6 19.05L36.95 18.65L36.7 18.35Q37.7 18.2 38.9 16L39.45 15L40.45 14.4L40.4 14.9L39.3 17.6M19.35,10.55L18.75 12.75L18.6 12.75Q17.5 12.8 16.65 12.25Q17.75 11.15 18.45 8.05L19 5.65L19.6 4.9Q19.7 4.8 19.75 4.85Q19.75 8.1 19.35 10.55" />
<path style="fill:#F0EAC6;fill-opacity:1" d="M29.25,16.85L29.95 14.4L30 15.4Q30 16.5 29.5 17.7L28.4 19.65L27.65 19.65Q28.7 18.7 29.25 16.85M26.9,19.25L26.3 18.4L28.35 15.7L29.55 14.2L28.35 16.9L26.9 19.25M36.8,17.45Q37.25 16.8 39.05 15.35L39.45 15L38.9 16Q37.7 18.2 36.7 18.35Q36.45 17.9 36.8 17.45M37.6,19.05Q38.7 19 39.3 17.6L40.4 14.9L39.55 17.6Q38.9 19.1 38.25 19.15L37.6 19.05M19.75,4.85L19.75 4.95L19.8 9.2L19.55 11.55L19.25 12.65L18.75 12.75L19.35 10.55Q19.75 8.1 19.75 4.85M16.65,12.25L15.85 11.55L17 9.05L17.75 7.65L18.55 6.25L19 5.65L18.45 8.05Q17.75 11.15 16.65 12.25" />
</g>
</svg>
