<?xml version="1.0" encoding="utf-8"?>
<svg version="1.1" id="Layer_1"
xmlns="http://www.w3.org/2000/svg"
xmlns:xlink="http://www.w3.org/1999/xlink"
xmlns:author="http://www.sothink.com"
width="40px" height="34px"
xml:space="preserve">
<g id="214" transform="matrix(1, 0, 0, 1, 0.1, -1.5)">
<path style="fill:#9C753C;fill-opacity:1" d="M3,27.05L1.8 27.05L0.95 26.95L1.95 24.15Q2.6 22.45 3.45 21.05Q3.9 20.15 4.5 19.4Q6 17.3 7.95 16.05Q11.55 13.7 14.65 13.2L15.1 13.1L16.5 13L18.75 13.15L21.7 13.95L22.4 14.25L22.75 14.45Q23.45 14.8 24.05 15.3L24.3 15.5L24.7 15.85L26.05 17.6L26.2 18L26.7 19.25L26.8 19.8L26.85 20.8L26.8 21.1L26.25 23.45L25.55 24.05L24.05 25.1L24.1 24.95L24.35 24.5L24.5 24.2L25.35 22.25L25.65 21L25.7 20.1L25.7 19.4Q24 17.45 21.75 16.85L20.8 16.65L19.3 16.55L18.55 16.6L16.5 16.95L14.1 17.7L12.3 18.5Q11.75 18.7 11.3 19Q9.25 20.05 7.7 21.25Q5.15 23.1 3.75 25.4L3.35 26.1L3.1 26.6L3 27.05M16.5,14.55L15.05 14.75L12.8 15.4L12.65 15.45Q9.95 16.45 7.9 18.2Q6.65 19.25 5.65 20.6L4.5 22.25L3.7 23.7L4.75 22.4L4.95 22.2L5.25 21.85L7.3 20.05L8.25 19.35L10.65 17.8Q12.15 16.95 13.55 16.45L13.65 16.4L16.5 15.55L17.9 15.35L20.1 15.4L21.1 15.55L22.45 15.8L22.6 15.8L22.55 15.75L21.6 15.25L21.05 15.05Q19.4 14.4 17.5 14.45L16.5 14.55" />
<path style="fill:#E9CB9E;fill-opacity:1" d="M7.9,18.25L8.2 18.3L11.05 17.35L13.8 16.15L13.9 16.1L16.5 14.95L17.5 14.45Q19.4 14.4 21.05 15.05L21.6 15.25L22.55 15.75L22.6 15.8L22.45 15.8L21.1 15.55L20.1 15.4L17.9 15.35L16.5 15.55L13.65 16.4L13.55 16.45Q12.15 16.95 10.65 17.8L8.25 19.35L7.3 20.05L5.25 21.85L4.95 22.2L4.75 22.4L3.7 23.7L4.5 22.25L5.65 20.6Q6.65 19.25 7.9 18.2L7.9 18.25" />
<path style="fill:#DBDBDB;fill-opacity:1" d="M24,25.1L23.45 25.6L20.9 27.3Q21.4 26.1 21.4 24.7Q21.4 21.95 19.45 19.95Q18.15 18.7 16.5 18.3L14.75 18.05Q13.45 18.05 12.3 18.5L14.1 17.7L16.5 16.95L18.55 16.6L19.3 16.55L20.8 16.65L21.75 16.85Q24 17.45 25.7 19.4L25.7 20.1L25.65 21L25.35 22.25L24.5 24.2L24.35 24.5L24.1 24.95L24 25.1M5.75,28.45Q4.65 27.7 4.05 27L3.35 26.1L3.75 25.4Q5.15 23.1 7.7 21.25Q9.25 20.05 11.3 19L10.05 19.95Q8.1 21.95 8.1 24.7Q8.1 27.45 10.05 29.35L10.5 29.8Q7.35 29.5 5.75 28.45" />
<path style="fill:#7E5D2D;fill-opacity:1" d="M24.05,25.1L25.55 24.05L26.25 23.45L26.1 24L25.45 25.5Q23.2 30.2 17.8 32.45L17.55 32.55Q12.3 34.6 7.2 33.25Q4.75 32.85 3.45 33.85Q2.15 34.85 1.05 34.45Q-0.05 34.05 -0.1 31.9Q-0.2 30.35 0.95 26.95L1.8 27.05L3 27.05Q2.75 28.2 3.3 29.5Q3.95 31 5.2 31.9Q7.1 31.6 9.15 31.9L16.5 31.45Q21.1 30.05 23.8 25.55L24.05 25.1M2.05,29.15Q1.4 31.25 2 32.85Q2.85 32.45 3.8 32.2Q2.6 30.95 2.1 29.35L2.05 29.15" />
<path style="fill:#722816;fill-opacity:1" d="M2.1,29.35Q2.6 30.95 3.8 32.2Q2.85 32.45 2 32.85Q1.4 31.25 2.05 29.15L2.1 29.35" />
<path style="fill:#F5E9D6;fill-opacity:1" d="M17.5,14.45L16.5 14.95L13.9 16.1L13.8 16.15L11.05 17.35L8.2 18.3L7.9 18.25L7.9 18.2Q9.95 16.45 12.65 15.45L12.8 15.4L15.05 14.75L16.5 14.55L17.5 14.45" />
<path style="fill:#959494;fill-opacity:1" d="M23.8,25.55Q21.1 30.05 16.5 31.45L9.15 31.9Q7.1 31.6 5.2 31.9Q3.95 31 3.3 29.5Q2.75 28.2 3 27.05L3.1 26.6L3.35 26.1L4.05 27Q4.65 27.7 5.75 28.45Q7.35 29.5 10.5 29.8Q12.3 31.35 14.75 31.35L16.5 31.15Q18.15 30.7 19.45 29.35L20.9 27.3L23.45 25.6L24 25.1L24.1 24.95L24.05 25.1L23.8 25.55" />
<path style="fill:#5F1000;fill-opacity:1" d="M26.85,20.8L26.8 19.8L29.95 18.8Q33.25 17.75 35.55 14.65L36.4 13.35Q38 10.55 38.2 8.45Q38.3 7.25 38 6.25Q34.7 8.25 31.15 8.1L28.35 8.2L27.8 8.35L27.2 10.4Q26.15 13.45 24.05 15.3Q23.45 14.8 22.75 14.45Q24.85 12.7 25.85 9.9L26.1 9.05L26.3 8.2Q26.85 5.85 26.4 4.85Q24.45 6.35 22.2 6.7L20.15 6.95L19.75 7L19.7 7.2L19.65 7.4L19.6 7.4L19.55 7.7Q18.95 9.85 16.9 12.45L16.5 13L15.1 13.1L14.65 13.2L16.5 10.7L16.75 10.35L18.3 7.6L18.45 7.25L18.5 7.15L18.6 6.8L18.85 5.85L19.05 3.2Q18.1 4.95 16.5 5.95Q15.05 6.95 12.6 7.55Q9.45 8.3 7.35 10.3L5.95 11.9Q5.2 12.95 4.75 14.2Q3.75 16.65 4.45 19.25L4.5 19.4Q3.9 20.15 3.45 21.05Q2.9 20.1 2.75 18.7Q2.45 16.25 3.25 14.05Q3.85 12.35 5.3 10.75L6.1 9.9L6.15 9.85Q8.25 7.85 12.3 6.4Q15 5.45 16.5 4.3L17.8 2.95Q18.75 1.45 19.45 1.5L19.85 1.7Q20.5 2.25 20.2 4.8L20 5.75Q23.2 5.5 24.75 4.35Q26.35 3.1 26.8 3Q27.2 2.95 27.8 4.8L28 5.95L28 6.35L28 6.65L30.25 6.55L34.55 6.25L37.25 4.85Q38.15 4.05 38.65 4.1Q39.1 4.15 39.7 6.8Q40.3 9.45 38.6 12.85Q36.95 16.25 34.15 18.25Q31.35 20.2 29.15 20.7L26.8 21.1L26.85 20.8M12.3,18.5Q13.45 18.05 14.75 18.05L16.5 18.3Q18.15 18.7 19.45 19.95Q21.4 21.95 21.4 24.7Q21.4 26.1 20.9 27.3L19.45 29.35Q18.15 30.7 16.5 31.15L14.75 31.35Q12.3 31.35 10.5 29.8L10.05 29.35Q8.1 27.45 8.1 24.7Q8.1 21.95 10.05 19.95L11.3 19Q11.75 18.7 12.3 18.5M11.3,28.1Q12.75 29.5 14.75 29.5L16.5 29.2L18.15 28.1L18.75 27.4Q19.6 26.2 19.6 24.7Q19.6 22.65 18.15 21.25L16.5 20.2L14.75 19.9Q12.75 19.9 11.3 21.25Q9.9 22.65 9.9 24.7L10 25.55Q10.2 26.95 11.3 28.1" />
<path style="fill:#931A26;fill-opacity:1" d="M7.95,16.05Q6 17.3 4.5 19.4L4.45 19.25Q3.75 16.65 4.75 14.2Q5.2 12.95 5.95 11.9Q6.15 13.1 7.25 13.1Q8.25 13.1 10.15 11.65Q11.05 10.95 12.1 10.2L12.3 10L12.3 10.65L12.1 11.35L11.95 11.8L11.9 12.2L16.5 9.1L18.25 7.45L18.45 7.25L18.3 7.6L16.75 10.35L16.5 10.7L14.65 13.2Q11.55 13.7 7.95 16.05M22.4,14.25L21.7 13.95L18.75 13.15L16.5 13L16.9 12.45Q18.95 9.85 19.55 7.7L19.6 7.4L19.65 7.4L19.7 7.2L19.75 7.65L19.95 10.15L19.8 11.3L19.6 11.95L21.7 10.45L21.7 11.75L21.35 12.15L21.15 12.5L21.15 12.75L21.6 12.75Q23.4 12.6 25.8 9.9L25.85 9.9Q24.85 12.7 22.75 14.45L22.4 14.25M26.7,19.25L26.2 18L26.05 17.6L24.7 15.85L24.3 15.5L24.05 15.3Q26.15 13.45 27.2 10.4L27.8 8.35Q28.15 9.1 28.15 10.4Q28.15 12.35 27.15 14.35L27.15 14.5L30.25 12.6L30.45 12.6L30.45 13.05Q29.15 15.95 28.7 16L28.7 16.15L29.15 16.15Q32.75 15.35 35.75 12.1L37.05 10.5L38.2 8.45Q38 10.55 36.4 13.35L35.55 14.65Q33.25 17.75 29.95 18.8L26.8 19.8L26.7 19.25M18.75,27.4L18.15 28.1L16.5 29.2L14.75 29.5Q12.75 29.5 11.3 28.1Q10.2 26.95 10 25.55L11.25 26.85Q13.05 28.25 14.9 28.25L16.5 28.15L18.5 27.55L18.75 27.4" />
<path style="fill:#C23940;fill-opacity:1" d="M5.95,11.9L7.35 10.3L9.9 9.3Q12.8 8.15 13.85 7.85L14.35 7.7Q14.25 8.55 13.35 9.05L13.9 8.8L13.9 8.85L14.1 8.75L14 8.75L16.5 7.35L17.55 6.5L18 6.75L18.2 7.15L18.25 7.45L16.5 9.1L11.9 12.2L11.95 11.8L12.1 11.35L12.3 10.65L12.3 10L12.1 10.2Q11.05 10.95 10.15 11.65Q8.25 13.1 7.25 13.1Q6.15 13.1 5.95 11.9M25.8,9.9Q23.4 12.6 21.6 12.75L21.15 12.75L21.15 12.5L21.35 12.15L21.7 11.75L21.7 10.45L19.6 11.95L19.8 11.3L19.95 10.15L19.75 7.65L19.7 7.2L19.75 7L20.15 6.95L22.1 7.15L23.85 7.1L25 6.7L25 7.15L24.45 8.15L24.45 8.25L25.25 7.6Q25.75 7.25 25.85 7.25L26.1 9.05L25.85 9.9L25.8 9.9M35.75,12.1Q32.75 15.35 29.15 16.15L28.7 16.15L28.7 16Q29.15 15.95 30.45 13.05L30.45 12.6L30.25 12.6L27.15 14.5L27.15 14.35Q28.15 12.35 28.15 10.4Q28.15 9.1 27.8 8.35L28.35 8.2L33.05 8.8L34.45 8.75L35.7 8.35Q35.8 8.9 35.4 9.45L35.4 9.55L36.8 8.45L36.95 9.1L37.05 10.5L35.75 12.1" />
<path style="fill:#3F0404;fill-opacity:1" d="M13.15,23.1Q13.85 22.5 14.75 22.5Q15.7 22.5 16.3 23.1L16.5 23.35Q16.95 23.9 16.95 24.7L16.5 26.05L16.3 26.25Q15.7 26.9 14.75 26.9Q13.85 26.9 13.15 26.25Q12.55 25.6 12.55 24.7Q12.55 23.75 13.15 23.1" />
<linearGradient
id="LinearGradID_470" gradientUnits="userSpaceOnUse" gradientTransform="matrix(0.00109863, -0.00282288, 0.0055542, 0.00216675, 14.7, 24.75)" spreadMethod ="pad" x1="-819.2" y1="0" x2="819.2" y2="0" >
<stop  offset="0" style="stop-color:#C23940;stop-opacity:1" />
<stop  offset="1" style="stop-color:#F77878;stop-opacity:1" />
</linearGradient>
<path style="fill:url(#LinearGradID_470) " d="M12.55,24.7Q12.55 25.6 13.15 26.25Q13.85 26.9 14.75 26.9Q15.7 26.9 16.3 26.25L16.5 26.05L16.95 24.7Q16.95 23.9 16.5 23.35L16.3 23.1Q15.7 22.5 14.75 22.5Q13.85 22.5 13.15 23.1Q12.55 23.75 12.55 24.7M18.5,27.55L16.5 28.15L14.9 28.25Q13.05 28.25 11.25 26.85L10 25.55L9.9 24.7Q9.9 22.65 11.3 21.25Q12.75 19.9 14.75 19.9L16.5 20.2L18.15 21.25Q19.6 22.65 19.6 24.7Q19.6 26.2 18.75 27.4L18.5 27.55M12.6,21.35Q12.6 22 13.45 22L14.9 21.95L16.45 22.35L16.5 22.4L17.45 22.7L18 22.55Q17.8 21.65 16.9 20.95L16.5 20.7Q15.9 20.35 15.25 20.35Q14.15 20.35 12.65 21.05L12.6 21.35" />
<path style="fill:#FFFFFF;fill-opacity:1" d="M12.65,21.05Q14.15 20.35 15.25 20.35Q15.9 20.35 16.5 20.7L16.9 20.95Q17.8 21.65 18 22.55L17.45 22.7L16.5 22.4L16.45 22.35L14.9 21.95L13.45 22Q12.6 22 12.6 21.35L12.65 21.05" />
<path style="fill:#FF9393;fill-opacity:1" d="M18.25,7.45L18.2 7.15L18 6.75L17.55 6.5L16.5 7.35L14 8.75L14.1 8.75L13.9 8.85L13.9 8.8L13.35 9.05Q14.25 8.55 14.35 7.7L13.85 7.85Q12.8 8.15 9.9 9.3L7.35 10.3Q9.45 8.3 12.6 7.55Q15.05 6.95 16.5 5.95Q18.1 4.95 19.05 3.2L18.85 5.85L18.6 6.8L18.5 7.15L18.45 7.25L18.25 7.45M20.15,6.95L22.2 6.7Q24.45 6.35 26.4 4.85Q26.85 5.85 26.3 8.2L26.1 9.05L25.85 7.25Q25.75 7.25 25.25 7.6L24.45 8.25L24.45 8.15L25 7.15L25 6.7L23.85 7.1L22.1 7.15L20.15 6.95M37.05,10.5L36.95 9.1L36.8 8.45L35.4 9.55L35.4 9.45Q35.8 8.9 35.7 8.35L34.45 8.75L33.05 8.8L28.35 8.2L31.15 8.1Q34.7 8.25 38 6.25Q38.3 7.25 38.2 8.45L37.05 10.5" />
</g>
</svg>
