<?xml version="1.0" encoding="utf-8"?>
<svg version="1.1" id="Layer_1"
xmlns="http://www.w3.org/2000/svg"
xmlns:xlink="http://www.w3.org/1999/xlink"
xmlns:author="http://www.sothink.com"
width="33px" height="20px"
xml:space="preserve">
<g id="1198" transform="matrix(1, 0, 0, 1, -130.8, -91.8)">
<path style="fill:#4A4131;fill-opacity:1" d="M134.15,111.05L134.25 111.05L135.65 110.65L138.95 110.65L141.35 110.15L142.35 109.5L142.2 108.95L141.7 108.4L141.7 108.35L140.15 107.15L140.6 106.45L140.75 106.25Q142.15 107.05 143.3 108.6Q144.2 106.8 143.6 104.8L142.4 101.3L141.65 101.6L140.75 101.8L140.5 100.75L140.45 100.4L142.9 99.95L144.95 98.5L146.65 97.2L148.3 96.95Q148.4 96.1 148.1 95.5L147.45 94.6L148.45 94.25L149.15 96L149.25 96.85L149.25 97Q150.05 96.3 150.8 95.9Q151.5 95.4 153 95.25Q154.35 95 155.35 96.4Q156.2 97.75 155.4 98.95L154.85 99.95Q156.8 100.4 158.9 101.65Q160.9 102.8 161.7 104Q162.45 105.1 162.1 105.25Q163.1 106.75 163.2 107.75L162.9 109.2L162.1 109.8L161.25 110.1L157.35 110.5Q154.8 110.4 153.65 109.55Q153.1 109.2 153.1 108.6Q153.1 108.1 153.5 107.55L154 106.75Q153.95 106.15 152.85 105.15Q151.7 104.1 149.95 103.6L149.55 103.65Q147.6 103.65 147.15 102.65Q146.65 101.6 147.15 100.45Q147.6 99.3 148.55 98.1L148.35 98.05L148.3 98.05Q147.45 97.75 146 99.1Q144.55 100.4 143.55 100.9L144.55 104.5Q145.1 106.8 144.6 108.4Q144 109.95 143.5 110L143.05 110Q143 110.7 142.35 111.15Q141.6 111.7 139.2 111.8L135.8 111.7L134.25 111.5L133.3 111.3L134.15 111.05M149.3,98.55Q148.7 99.35 148.05 100.95Q147.75 101.6 148.25 102.25Q149.55 103.1 151.5 101.7L152.85 100.55L154.45 98.9Q155.4 97.65 154 96.75L151.3 96.8Q149.95 97.75 149.3 98.55M159.3,104.2L160.65 104.35L159.15 103.05Q157.2 101.8 155.95 101.4L153.9 100.85L153.5 101.2L152.85 101.8L151.85 102.5L151 103L152.7 103.7Q154.35 104.6 154.95 106.25Q156.4 104.95 157.55 104.5L159 104.25L159.3 104.2M162.2,107.75Q162.1 106.75 161.15 105.85Q160.6 105.2 159.8 105.2L158.65 105.35L156.6 106.15L156.2 106.35L155.45 107L154.6 107.85Q153.8 108.65 155.55 109.2Q157.3 109.7 159.8 109.2Q161.4 108.8 161.95 108.3L162.2 107.75" />
<path style="fill:#E9E7DA;fill-opacity:1" d="M137.45,100.15L137.35 99.5Q137.05 96.95 139.8 95.8Q142 94.85 143.6 93L145.15 93.3Q146.05 93.6 147.3 94.5L147.45 94.6L147.15 94.75L146.45 94.45L144.9 94.15Q143.95 94.15 143.05 94.8L140.95 96.15Q139.7 96.8 139.05 97.4Q138.4 98 138.2 98.95Q138.05 100 139.05 100.4L139.1 100.45L137.45 100.15M138.5,102.85L138.3 104.45Q138.3 104.8 139.3 105.4L140.1 105.95Q138.85 105.35 137.4 105.25Q137.2 105 137.35 104.65Q138.05 103.65 138.15 102.8L138.25 102.1L138.45 102.2L138.5 102.85M138.45,107.2Q136.55 107.2 135 107.9Q133.35 108.65 133.35 109.6L133.4 110.15L132.75 109.8Q131.9 109.1 132.6 108.5L134.55 107.15Q135.85 106.55 137.5 106.6L140.05 107.1L140.15 107.15L140 107.35L139.85 107.5L138.45 107.2" />
<path style="fill:#CCC6B8;fill-opacity:1" d="M145.6,95.5Q142.5 97.2 141.45 98.3Q140.45 99.25 140.45 100.35L140.45 100.4L139.1 100.45L139.05 100.4Q138.05 100 138.2 98.95Q138.4 98 139.05 97.4Q139.7 96.8 140.95 96.15L143.05 94.8Q143.95 94.15 144.9 94.15L146.45 94.45L147.15 94.75L145.6 95.5M138.45,102.2Q139.95 102.9 140.9 103.05L140.95 104.45L140.75 106.25L140.1 105.95L139.3 105.4Q138.3 104.8 138.3 104.45L138.5 102.85L138.45 102.2M139.85,107.5L138.85 108.55Q138.05 109.4 137.05 109.95L135.65 110.65L135.4 110.65L133.4 110.15L133.35 109.6Q133.35 108.65 135 107.9Q136.55 107.2 138.45 107.2L139.85 107.5" />
<path style="fill:#625643;fill-opacity:1" d="M135.4,110.65L135.65 110.65L134.25 111.05L134.15 111.05L133.3 111.3Q131.6 110.95 131.1 110.15Q130.5 109.1 131.15 108.4L133.05 106.95Q134.2 106.05 135.15 105.75L136.1 105.35Q135.95 105.4 136.1 104.7Q136.2 104.05 136.65 103.3Q137 102.5 136.95 101.4L136.95 101.3L136.55 100.8L136.2 100.05Q135.95 99.15 136.2 97.95Q136.65 96.2 138.85 95.15Q140.9 94 141.95 93.05Q143 91.85 143.3 91.8Q147.1 91.85 148.45 94.25L147.45 94.6L147.3 94.5Q146.05 93.6 145.15 93.3L143.6 93Q142 94.85 139.8 95.8Q137.05 96.95 137.35 99.5L137.45 100.15L139.1 100.45L140.45 100.4L140.5 100.75L140.75 101.8L138.25 101.6L138.2 101.6L138.25 102.1L138.15 102.8Q138.05 103.65 137.35 104.65Q137.2 105 137.4 105.25Q138.85 105.35 140.1 105.95L140.75 106.25L140.6 106.45L140.15 107.15L140.05 107.1L137.5 106.6Q135.85 106.55 134.55 107.15L132.6 108.5Q131.9 109.1 132.75 109.8L133.4 110.15L135.4 110.65" />
<path style="fill:#B3A38A;fill-opacity:1" d="M147.15,94.75L147.45 94.6L148.1 95.5Q148.4 96.1 148.3 96.95L146.65 97.2L144.95 98.5L142.9 99.95L140.45 100.4L140.45 100.35Q140.45 99.25 141.45 98.3Q142.5 97.2 145.6 95.5L147.15 94.75M140.95,104.45L140.9 103.05Q139.95 102.9 138.45 102.2L138.25 102.1L138.2 101.6L138.25 101.6L140.75 101.8L141.65 101.6L142.4 101.3L143.6 104.8Q144.2 106.8 143.3 108.6Q142.15 107.05 140.75 106.25L140.95 104.45M137.05,109.95Q138.05 109.4 138.85 108.55L139.85 107.5L140 107.35L140.15 107.15L141.7 108.35L141.7 108.4L142.2 108.95L142.35 109.5L141.35 110.15L138.95 110.65L135.65 110.65L137.05 109.95M159,104.25L158.6 103.8Q157.5 102.85 156.6 102.5L154.35 101.65L153.5 101.2L153.9 100.85L155.95 101.4Q157.2 101.8 159.15 103.05L160.65 104.35L159.3 104.2L159 104.25M156.6,106.15L158.65 105.35L159.8 105.2Q160.6 105.2 161.15 105.85Q162.1 106.75 162.2 107.75L161.95 108.3L161.65 107.4Q160.85 105.95 158.15 105.95L156.6 106.15" />
<path style="fill:#7B705E;fill-opacity:1" d="M151.3,96.8L154 96.75Q155.4 97.65 154.45 98.9L152.85 100.55L151.5 101.7Q149.55 103.1 148.25 102.25Q147.75 101.6 148.05 100.95Q148.7 99.35 149.3 98.55Q149.95 97.75 151.3 96.8M154.35,101.65L156.6 102.5Q157.5 102.85 158.6 103.8L159 104.25L157.55 104.5Q156.4 104.95 154.95 106.25Q154.35 104.6 152.7 103.7L151 103L151.85 102.5L152.85 101.8L153.5 101.2L154.35 101.65M158.15,105.95Q160.85 105.95 161.65 107.4L161.95 108.3Q161.4 108.8 159.8 109.2Q157.3 109.7 155.55 109.2Q153.8 108.65 154.6 107.85L155.45 107L156.2 106.35L156.6 106.15L158.15 105.95" />
</g>
</svg>
