<?xml version="1.0" encoding="utf-8"?>
<svg version="1.1" id="Layer_1"
xmlns="http://www.w3.org/2000/svg"
xmlns:xlink="http://www.w3.org/1999/xlink"
xmlns:author="http://www.sothink.com"
width="32px" height="32px"
xml:space="preserve">
<g id="1710" transform="matrix(1, 0, 0, 1, -12.95, -20)">
<path style="fill:#5F1000;fill-opacity:1" d="M15.05,43.2L15.55 43.25L15.9 44.8L15.45 44.35L14.75 43.6L14.9 43.35L15.05 43.2M18.9,47.85L19.75 48L20.9 48.25L21 48.4Q20.25 49 20.1 48.85L18.95 47.9L18.9 47.85" />
<path style="fill:#931A26;fill-opacity:1" d="M33.55,33.55L33.4 33.5L33.85 33.8L35.05 35L35.15 33.5L33.55 33.55M23.15,42.45L23.6 42.25L26.3 40.5L28.1 38.6L29.65 36.3L30.85 33.9L29.85 33.5L29.3 33.15Q28.65 35.7 27.1 38.35L25.7 40.3Q24.4 41.7 22.8 42.35L22.35 42.2Q24 41.6 25.35 40.2L26.65 38.35Q28.3 35.55 29.05 32.35Q30 33.1 32.2 33.25L32.95 33.25L33 33.25L35.1 33.1L35.7 33.05Q36.05 35.3 34.95 36.3L34.85 35.55Q34.4 34.35 33.55 34L31.85 34.05Q29.85 37.7 27.05 40.3L26.8 40.6L23.55 42.55L23.15 42.45" />
<path style="fill:#3C2A22;fill-opacity:1" d="M35.95,26.25L35.25 24.8L34.55 23.7Q33.9 22.65 32.65 21.9L32.4 21.7L32.35 22.65L31.55 24.65Q30.35 27.1 27.35 27.35L25.85 26.4Q24.8 25.55 23.45 23.2Q23.35 26.85 24.35 28.45L25.05 29.4L25.05 29.45L25.15 29.5L25.15 29.55L25.05 31.35L24.7 33.35L23.4 36.95L22.4 38.5L22.4 37.8L21.7 38.4L21.2 38.8L20.8 39.15L20.45 39.4L20.55 39.45L20.4 39.45L19.9 39.95L19.75 40.15L19.35 40.1L17.4 40.2L17.2 40.25L16.65 40.35L16 40.6L16.1 41.9L16.15 42.15L17.3 41.85L17.85 41.75L18.75 41.7L19.25 41.7L19.6 41.7L19.6 42.2L17.75 42.4L17.1 42.5L16.75 42.45L16.65 42.45L16.25 42.5L16.3 42.85L16.35 43.4L16.55 44.25L16.75 45.15Q17 46.1 17.5 46.45L18.35 47.05L19.5 47.3L20.2 47.45L20.25 47.45L20.75 47.45L21.3 46.4L21.3 46.3L21.95 45.05L22 44.95L22.1 44.7L22.5 44.85L22.55 44.85L22.4 45.3L22.35 45.45L22.35 45.5L22.1 46.1L22.05 46.15L21.4 47.55L21.8 47.6L23.6 47.65L23.8 47.05L24.1 45.9L24.2 45.55L24.8 45.55L24.55 46.85L24.5 47.1L24.1 48.1L23.05 49.85Q22.3 50.95 21.1 51.45L21.1 51.1L21.1 50.6L21.1 49.7L21.05 48.75L21 48.45L21 48.4L20.9 48.25L19.75 48L18.9 47.85L18.75 47.85L18.15 47.65L18.05 47.6L16.75 46.55Q16.35 46.15 16.1 45.3L15.9 44.8L15.55 43.25L15.05 43.2L13.5 43L13.35 43L12.95 43L13.1 42.55L13.55 41.8Q14.1 41 14.8 40.55L15.05 40.4Q15.85 39.95 16.6 39.7L17.05 39.6L18.85 39.4L20.35 39.4L20.55 39.2Q20.7 38.95 21 38.85Q23.15 36.6 24.15 30Q22 26.3 22.2 23.25Q22.3 21.8 22.85 20.35L25.25 23.95Q26.05 25.35 27.35 26.1Q29.35 25.6 30.15 23.5Q30.9 21.15 30.6 20Q35.65 19.8 37.45 26.7Q39.65 25.55 44.1 20.1Q45.2 34.45 38 41.2L37.25 41.85Q35.65 42.95 33.15 43.9Q32.85 43.9 32.65 44.05L32.9 42.5Q32.9 41.3 32.55 40.5L31.1 41.95Q28.85 43.8 26.05 44.75L28.1 43.1L27.8 43.1L29.9 41.65L32.65 38.75L32.8 38.9Q33.9 40.15 34 42.45Q37.35 40.3 39.35 37.3Q40.4 35.5 40.95 33.45Q42.65 26.45 42.75 24.35Q39.85 27.75 36.8 28.6L35.95 26.25M15.6,42.45L15.45 41.9L15.45 41.55L15.45 40.95Q14.55 41.25 13.85 42.2L13.75 42.4L14.2 42.4L15.6 42.45M21.75,50.35L21.7 50.45L23.2 48.45L23.3 48.25L22.3 48.25L21.7 48.25L21.75 48.55L21.85 49.5L21.75 50.35" />
<path style="fill:#FFFFFF;fill-opacity:1" d="M41.35,27.6Q38.1 29.15 34.45 30.3Q31.1 31.25 28.05 29.95L33.6 29.65L34.35 29.5L36.8 28.6Q39.85 27.75 42.75 24.35Q42.65 26.45 40.95 33.45Q40.4 35.5 39.35 37.3Q41.3 31.95 41.35 27.6M34.5,23.95L33.3 23.25L33.1 23.15L32.65 21.9Q33.9 22.65 34.55 23.7L35.25 24.8L34.5 23.95" />
<path style="fill:#D4C5BD;fill-opacity:1" d="M34.35,29.5L33.6 29.65L28.05 29.95L27.8 29.85Q32.8 28.8 33.15 25L33.2 24.9L34.05 26.6Q34.65 28.1 34.35 29.5" />
<linearGradient
id="LinearGradID_1887" gradientUnits="userSpaceOnUse" gradientTransform="matrix(-0.00274658, 0.00227356, -0.00286865, -0.00346375, 32.3, 24.45)" spreadMethod ="pad" x1="-819.2" y1="0" x2="819.2" y2="0" >
<stop  offset="0.00392157" style="stop-color:#917162;stop-opacity:1" />
<stop  offset="1" style="stop-color:#C2AEA0;stop-opacity:1" />
</linearGradient>
<path style="fill:url(#LinearGradID_1887) " d="M33.2,24.9L33.15 25Q32.8 28.8 27.8 29.85L27.7 29.85Q25.85 28.5 24.85 26.8Q23.65 24.95 23.45 23.2Q24.8 25.55 25.85 26.4L27.35 27.35Q30.35 27.1 31.55 24.65L32.35 22.65L32.4 21.7L32.65 21.9L33.1 23.15L33.2 24.9" />
<linearGradient
id="LinearGradID_1888" gradientUnits="userSpaceOnUse" gradientTransform="matrix(-0.000732422, -0.00257874, 0.00141907, -0.000396729, 37.9, 26.3)" spreadMethod ="pad" x1="-819.2" y1="0" x2="819.2" y2="0" >
<stop  offset="0.00392157" style="stop-color:#917162;stop-opacity:1" />
<stop  offset="1" style="stop-color:#C2AEA0;stop-opacity:1" />
</linearGradient>
<path style="fill:url(#LinearGradID_1888) " d="M33.1,23.15L33.3 23.25L34.5 23.95L35.25 24.8L35.95 26.25L36.8 28.6L34.35 29.5Q34.65 28.1 34.05 26.6L33.2 24.9L33.1 23.15" />
<path style="fill:#3F2E27;fill-opacity:1" d="M22.25,42.15L22.3 41.6L22.55 41.45L24.6 40Q27.3 37.2 28.2 31.7L32.15 32.45L34.85 32.2L37.35 31.55L36.9 34.75Q36.5 36.3 34.7 37.95Q34.6 35.55 32.6 34.3Q30.45 38.6 27.65 40.9Q26.05 42.1 24.35 42.75L23.55 42.55L26.8 40.6L27.05 40.3Q29.85 37.7 31.85 34.05L33.55 34Q34.4 34.35 34.85 35.55L34.95 36.3Q36.05 35.3 35.7 33.05L35.1 33.1L33 33.25L32.95 33.25L32.2 33.25Q30 33.1 29.05 32.35Q28.3 35.55 26.65 38.35L25.35 40.2Q24 41.6 22.35 42.2L22.25 42.15" />
<linearGradient
id="LinearGradID_1889" gradientUnits="userSpaceOnUse" gradientTransform="matrix(-0.00253296, 0.00506592, -0.0100708, -0.0050354, 32.4, 30.8)" spreadMethod ="pad" x1="-819.2" y1="0" x2="819.2" y2="0" >
<stop  offset="0.00392157" style="stop-color:#6D5852;stop-opacity:1" />
<stop  offset="1" style="stop-color:#AF9A8D;stop-opacity:1" />
</linearGradient>
<path style="fill:url(#LinearGradID_1889) " d="M32.85,36.1L32.65 35.5Q32.5 35.55 32.6 35.75Q30.95 39.1 28.45 41.15Q27 42.2 25.45 42.9L24.65 42.8L24.35 42.75Q26.05 42.1 27.65 40.9Q30.45 38.6 32.6 34.3Q34.6 35.55 34.7 37.95Q36.5 36.3 36.9 34.75L37.35 31.55L34.85 32.2L32.15 32.45L28.2 31.7Q27.3 37.2 24.6 40L22.55 41.45L22.3 41.6L22.3 40.9L23.8 39.75Q26.55 37.1 27.25 31.4L26.5 31L25.15 29.55L25.15 29.5L25.05 29.45L25.05 29.4L24.35 28.45Q23.35 26.85 23.45 23.2Q23.65 24.95 24.85 26.8Q25.85 28.5 27.7 29.85L27.8 29.9L28.05 29.95Q31.1 31.25 34.45 30.3Q38.1 29.15 41.35 27.6Q41.3 31.95 39.35 37.3Q37.35 40.3 34 42.45L34.4 41.35Q34.9 39 32.85 36.1" />
<linearGradient
id="LinearGradID_1890" gradientUnits="userSpaceOnUse" gradientTransform="matrix(0.00630188, -0.00994873, 0.00334167, 0.00212097, 21.2, 40.05)" spreadMethod ="pad" x1="-819.2" y1="0" x2="819.2" y2="0" >
<stop  offset="0.00392157" style="stop-color:#917162;stop-opacity:1" />
<stop  offset="1" style="stop-color:#C2AEA0;stop-opacity:1" />
</linearGradient>
<path style="fill:url(#LinearGradID_1890) " d="M22.4,38.5L23.4 36.95L24.7 33.35L25.05 31.35L25.15 29.55L26.5 31L27.25 31.4Q26.55 37.1 23.8 39.75L22.3 40.9L22.4 38.5" />
<path style="fill:#BD3C49;fill-opacity:1" d="M35.15,33.5L35.05 35L33.85 33.8L33.4 33.5L33.55 33.55L35.15 33.5M22.8,42.35Q24.4 41.7 25.7 40.3L27.1 38.35Q28.65 35.7 29.3 33.15L29.85 33.5L30.85 33.9L29.65 36.3L28.1 38.6L26.3 40.5L23.6 42.25L23.15 42.45L22.8 42.35" />
<linearGradient
id="LinearGradID_1891" gradientUnits="userSpaceOnUse" gradientTransform="matrix(-0.00541687, 0.0067749, -0.00292969, -0.00233459, 28.25, 40.75)" spreadMethod ="pad" x1="-819.2" y1="0" x2="819.2" y2="0" >
<stop  offset="0.00392157" style="stop-color:#6D5852;stop-opacity:1" />
<stop  offset="1" style="stop-color:#AF9A8D;stop-opacity:1" />
</linearGradient>
<path style="fill:url(#LinearGradID_1891) " d="M32.8,38.9L32.65 38.75L29.9 41.65L27.8 43.1L25.45 42.9Q27 42.2 28.45 41.15Q30.95 39.1 32.6 35.75Q32.5 35.55 32.65 35.5L32.85 36.1L32.8 38.9" />
<linearGradient
id="LinearGradID_1892" gradientUnits="userSpaceOnUse" gradientTransform="matrix(-0.000961304, -0.0030365, 0.00146484, -0.000457764, 35.3, 40.45)" spreadMethod ="pad" x1="-819.2" y1="0" x2="819.2" y2="0" >
<stop  offset="0.00392157" style="stop-color:#6D5852;stop-opacity:1" />
<stop  offset="1" style="stop-color:#AF9A8D;stop-opacity:1" />
</linearGradient>
<path style="fill:url(#LinearGradID_1892) " d="M32.85,36.1Q34.9 39 34.4 41.35L34 42.45Q33.9 40.15 32.8 38.9L32.85 36.1" />
<path style="fill:#723C13;fill-opacity:1" d="M24.25,45.5L23.65 45.3L22.75 44.9L22.55 44.85L22.5 44.85L22.1 44.7L22.1 44.65L22 44.65L21.95 44.65L21.8 44.55L20.9 44.25L19.75 43.7L19.6 42.65L19.6 42.55L19.6 42.45L19.6 42.35L19.6 42.2L19.6 41.7L19.6 41.6L19.65 41L19.75 40.2L19.75 40.15L19.9 39.95L20.4 39.45L20.55 39.45L20.45 39.4L20.8 39.15L21.2 38.8L21.7 38.4L22.4 37.8L22.4 38.5L22.3 40.9L22.3 41.6L22.25 42.15L22.35 42.2L22.8 42.35L23.15 42.45L23.55 42.55L24.35 42.75L24.65 42.8L25.45 42.9L27.8 43.1L28.1 43.1L26.05 44.75L24.8 45.5L24.8 45.55L24.2 45.55L24.25 45.5M25.6,44.15L25.7 44.05L25.85 43.95L26.2 43.65L24.25 43.35L23.3 43.1L23 42.95L21.8 42.55L21.8 39.15L21.6 39.3L21.2 39.65L20.4 40.35L20.3 40.65Q20.15 41.1 20.15 41.7L20.2 42.4L20.2 42.55L20.3 42.95L20.35 43.25L20.35 43.3L20.55 43.4L20.8 43.55L21.65 44L22.35 44.25L22.45 44.25L22.5 44.3L23.25 44.6L24.45 45L24.55 44.95L25 44.55L25.6 44.15" />
<path style="fill:#C9B7AD;fill-opacity:1" d="M24.2,45.55L24.1 45.9L23.65 45.65L23.4 45.6L22.75 45.45L22.4 45.3L22.55 44.85L22.75 44.9L23.65 45.3L24.25 45.5L24.2 45.55M22.1,44.7L22 44.95L21.95 45.05L21.8 45L20.75 44.8Q19.95 44.65 19.7 44.5L19.7 44.55L19.55 44.45L19.3 44.3L19.1 43.6L18.75 42.65L17.75 42.4L19.6 42.2L19.6 42.35L19.6 42.45L19.6 42.55L19.6 42.65L19.75 43.7L20.9 44.25L21.8 44.55L21.95 44.65L22 44.65L22.1 44.65L22.1 44.7M19.25,41.45L19.2 40.5L18.95 40.4L17.2 40.25L17.4 40.2L19.35 40.1L19.75 40.15L19.75 40.2L19.65 41L19.6 41.6L19.25 41.45M14.85,41.9L14.2 42.4L13.75 42.4L13.85 42.2Q14.55 41.25 15.45 40.95L15.45 41.55L14.85 41.9M22.8,48.55L23.2 48.45L21.7 50.45L21.75 50.35L22.05 49.8L22.8 48.55" />
<path style="fill:#AB9283;fill-opacity:1" d="M22.1,46.1L22.35 45.5L22.35 45.45L22.4 45.3L22.75 45.45L23.4 45.6L23.65 45.65L24.1 45.9L23.8 47.05L22.65 47.05L22.35 47.05L22.2 47.05L22.1 46.8L22.1 46.2L22.1 46.1M18.75,42.65L19.1 43.6L19.3 44.3L19.55 44.45L19.7 44.55L19.7 44.5Q19.95 44.65 20.75 44.8L21.8 45L21.95 45.05L21.3 46.3L21.25 46.4L20.75 46.8L19.4 46.7L18.45 46.3L17.95 45.9L17.55 45.35L17.15 44.4L17.05 42.85L17.05 42.75L17.1 42.5L17.75 42.4L18.75 42.65M19.25,41.45L19.6 41.6L19.6 41.7L19.25 41.7L19.25 41.45M18.95,40.4L19.2 40.5L19.25 41.45L18.35 41.2L17.25 41.25L17.2 41.25L16.85 41.15L16.8 41.1Q16.65 40.9 16.65 40.4L16.65 40.35L17.2 40.25L18.95 40.4M14.85,41.9L15.45 41.55L15.45 41.9L15.2 41.85L14.85 41.9M21,43.1L21 43.2L20.95 43.05L21 43.1M22.05,49.8L21.75 50.35L21.85 49.5L22.25 48.6L22.5 48.6L22.8 48.55L22.05 49.8" />
<path style="fill:#8C7465;fill-opacity:1" d="M22.1,46.2L22.1 46.8L22.2 47.05L22.35 47.05L22.65 47.05L23.8 47.05L23.6 47.65L21.8 47.6L21.4 47.55L22.05 46.15L22.1 46.1L22.1 46.2M21.3,46.3L21.3 46.4L20.75 47.45L20.25 47.45L20.2 47.45L19.5 47.3L18.35 47.05L17.5 46.45Q17 46.1 16.75 45.15L16.55 44.25L16.35 43.4L16.3 42.85L16.25 42.5L16.65 42.45L16.75 42.45L17.1 42.5L17.05 42.75L17.05 42.85L17.15 44.4L17.55 45.35L17.95 45.9L18.45 46.3L19.4 46.7L20.75 46.8L21.25 46.4L21.3 46.3M19.25,41.7L18.75 41.7L17.85 41.75L17.3 41.85L16.15 42.15L16.1 41.9L16 40.6L16.65 40.35L16.65 40.4Q16.65 40.9 16.8 41.1L16.85 41.15L17.2 41.25L17.25 41.25L18.35 41.2L19.25 41.45L19.25 41.7M15.2,41.85L15.45 41.9L15.6 42.45L14.2 42.4L14.85 41.9L15.2 41.85M22.8,48.55L22.5 48.6L22.25 48.6L21.85 49.5L21.75 48.55L21.7 48.25L22.3 48.25L23.3 48.25L23.2 48.45L22.8 48.55" />
<path style="fill:#C6A831;fill-opacity:1" d="M21.6,39.5L21.5 41.3L21.45 42L21.45 42.4L21.4 42.7L21.4 42.8L21.9 42.95L22.65 43.25L22.9 43.35L23.5 43.6L25.55 44.05L25.7 44.05L25.6 44.15L25 44.55L24.6 44.45L24.35 44.35L22.75 43.8L22.65 43.75L21.85 43.4L21 43.1L21 43L21.05 42.85L21.2 39.65L21.6 39.3L21.6 39.5" />
<path style="fill:#FFE687;fill-opacity:1" d="M21.6,39.3L21.8 39.15L21.8 42.55L23 42.95L23.3 43.1L24.25 43.35L26.2 43.65L25.85 43.95L25.7 44.05L25.55 44.05L23.5 43.6L22.9 43.35L22.65 43.25L21.9 42.95L21.4 42.8L21.4 42.7L21.45 42.4L21.45 42L21.5 41.3L21.6 39.5L21.6 39.3" />
<path style="fill:#956823;fill-opacity:1" d="M21.05,42.85L21 43L21 43.1L20.95 43.05L21 43.2L21 43.1L21.85 43.4L22.65 43.75L22.75 43.8L24.35 44.35L24.6 44.45L25 44.55L24.55 44.95L24.45 45L23.25 44.6L22.5 44.3L22.45 44.25L22.35 44.25L21.65 44L20.8 43.55L20.55 43.4L20.35 43.3L20.35 43.25L20.3 42.95L20.2 42.55L20.2 42.4L20.15 41.7Q20.15 41.1 20.3 40.65L20.4 40.35L21.2 39.65L21.05 42.85" />
</g>
</svg>
