<?xml version="1.0" encoding="utf-8"?>
<svg version="1.1" id="Layer_1"
xmlns="http://www.w3.org/2000/svg"
xmlns:xlink="http://www.w3.org/1999/xlink"
xmlns:author="http://www.sothink.com"
width="21px" height="15px"
xml:space="preserve">
<g id="353" transform="matrix(1, 0, 0, 1, 4.25, 1.45)">
<path style="fill:#A14C27;fill-opacity:1" d="M8.7,9.55L8.5 8.85L7.8 9.05Q6.25 9.3 2.25 7.6L1.85 7.45L1.65 7.3Q0.3 6.5 -1 4.9L-1.1 4.8L-1.4 4.35L-0.2 3.25L0.2 2.95L2.25 2.35Q4.8 1.55 7.3 2.45Q10.3 3.65 12.15 6.3Q12.2 7.75 11.25 9.25Q10.35 10.85 9.1 11.5L8.5 11.8Q8.85 10.6 8.7 9.55M1.55,9.85Q2.25 8.75 3.05 8.6L4.4 8.8L4.15 9.05L4.1 9.3Q3.25 9.45 1.55 10.75L1.45 10.65L1.25 10.3L1.55 9.85M-2.15,8.05Q-0.65 6.4 0.7 6.75L0.35 7.8L-0.3 7.8Q-1 7.75 -2.3 9.1L-2.4 9.3L-2.7 8.85L-2.15 8.05" />
<path style="fill:#D26A3D;fill-opacity:1" d="M1.55,9.85L1.25 10.3Q1 9.85 1.15 9.35Q1.35 8.5 1.15 8.25L1.15 8.2L1.85 7.45L2.25 7.6Q1.8 8.2 1.6 9.6L1.55 9.85M-2.15,8.05L-2.7 8.85Q-3.35 7.5 -2.5 5.95L-1.4 4.35L-1.1 4.8L-2.15 8.05" />
<path style="fill:#982E0F;fill-opacity:1" d="M13.3,6.2Q14.3 6.65 12.3 9.85Q10.5 12.8 7.75 13.4L7.25 13.5Q6.9 13.45 6.65 12.5Q6 11.4 5 10.85L4.2 10.65Q3.75 10.55 3.25 10.9L2.3 11.7L1.55 12.35L1.45 12.35Q1.15 12.4 0.9 12.1L0.65 11.7L0.5 11.5L-0.05 10.25Q-0.25 9.6 0.05 8.95Q-0.9 9.2 -1.55 9.9L-2.35 10.6L-2.4 10.55L-3.1 9.75L-3.7 8.85Q-4.85 7.1 -3.1 4.85L-1.9 3.5Q-0.5 2.15 1.3 1.55Q1.95 1.55 1.5 1.85L0.7 2.5L1.3 2.25Q2.35 1.85 3.55 1.8L7 2.1L8.75 2.85Q10.5 3.85 11.75 5.45Q11.95 5.75 12.1 5.7L13.3 6.2M-2.5,5.95Q-3.35 7.5 -2.7 8.85L-2.4 9.3L-2.3 9.1Q-1 7.75 -0.3 7.8L0.35 7.8L0.75 7.9L1.15 8.2L1.15 8.25Q1.35 8.5 1.15 9.35Q1 9.85 1.25 10.3L1.45 10.65L1.55 10.75Q3.25 9.45 4.1 9.3L4.5 9.35Q5.4 9.6 6 10L7.8 11.95L8.5 11.8L9.1 11.5Q10.35 10.85 11.25 9.25Q12.2 7.75 12.15 6.3Q10.3 3.65 7.3 2.45Q4.8 1.55 2.25 2.35L0.2 2.95L-0.2 3.25L-1.4 4.35L-2.5 5.95" />
<path style="fill:#B1552E;fill-opacity:1" d="M1.6,9.6Q1.8 8.2 2.25 7.6Q6.25 9.3 7.8 9.05L8.5 8.85L8.7 9.55Q8.85 10.6 8.5 11.8L7.8 11.95L6 10Q5.4 9.6 4.5 9.35L4.1 9.3L4.15 9.05L4.4 8.8L3.05 8.6Q2.25 8.75 1.55 9.85L1.6 9.6M-1.1,4.8L-1 4.9Q0.3 6.5 1.65 7.3L1.85 7.45L1.15 8.2L0.75 7.9L0.35 7.8L0.7 6.75Q-0.65 6.4 -2.15 8.05L-1.1 4.8" />
<path style="fill:#C68331;fill-opacity:1" d="M12.35,1.35L13.5 2.35Q12.75 3.65 11.85 3.65L7.9 3.15L5.7 2.65L6 3.05L6 3.55L3.8 2.65L3.7 2.6L2.5 2.25L2.05 2L2.2 1.9L2.9 1.45L4.85 1.1L5.5 0.85Q5.75 0.85 6.45 1.55L7.1 1.55L7.1 0.95L8.05 0.85L12.35 1.35" />
<path style="fill:#AA692B;fill-opacity:1" d="M3.7,2.6L3.8 2.65L6 3.55L6 3.05L5.7 2.65L7.9 3.15L11.85 3.65Q12.75 3.65 13.5 2.35Q14.35 3.4 14.3 4.8L14.3 4.85L13.55 5L12.8 5.1Q8.75 5.5 5.15 3.65L2.5 2.25L3.7 2.6" />
<path style="fill:#F3B94B;fill-opacity:1" d="M8.05,0.85L7.1 0.95L7.1 1.55L6.45 1.55Q5.75 0.85 5.5 0.85L4.85 1.1L2.9 1.45L2.2 1.9L2.05 2L1.7 1.8L1.8 1.75L1.9 1.6Q6.85 -2.2 12.25 1.25L12.35 1.35L8.05 0.85" />
<path style="fill:#662D11;fill-opacity:1" d="M14.85,4.8L14.3 4.8Q14.35 3.4 13.5 2.35L12.35 1.35L12.25 1.25Q6.85 -2.2 1.9 1.6L1.8 1.75L0.8 1.05L1.85 0.15Q4.3 -1.4 7.2 -1.45L7.8 -1.45Q10.7 -1.3 13.15 0.35L14.05 1.1L14.85 2.2Q15.4 3.35 15.25 4.8L14.85 4.8" />
<path style="fill:#4D3212;fill-opacity:1" d="M1.7,1.8L2.05 2L2.5 2.25L5.15 3.65Q8.75 5.5 12.8 5.1L13.55 5L14.3 4.85L14.3 4.8L14.85 4.8L15.25 4.8L15.2 5.1L15.7 6L15.8 7.1Q15.6 8.4 13.5 9.4Q12.3 10.05 10.05 10.2Q5.4 10.55 2.3 9.35Q-0.75 8.1 -3.6 4.75L-4.05 3.75L-4.2 2.95Q-4.6 0.15 -2.25 -0.6Q-1.25 -0.95 0.65 1.2L0.8 1.05L1.8 1.75L1.7 1.8M10.1,6.35Q5.55 6.05 1.5 3.35L0.8 2.9L-2.15 0.75Q-3 1.95 -2.6 3.15L-2.3 3.9L-2 4.4Q-1.1 5.65 0.4 6.7Q2.25 7.95 5.1 8.6L10.45 8.8Q12.95 8.4 13.65 7.5L14.1 6.75L12.3 6.55L10.1 6.35" />
<path style="fill:#9A7226;fill-opacity:1" d="M-2.3,3.9L-2.6 3.15L-2.4 3.15L-1.75 3.55L-1.75 3.05L3.35 5.35Q7 6.55 12.05 6.55L12.3 6.55L14.1 6.75L13.65 7.5L13.6 7.5L9.95 8.15Q7.2 8.5 3.25 7.15Q-0.7 5.75 -2 4.4L-2.3 3.9" />
<path style="fill:#B49148;fill-opacity:1" d="M12.3,6.55L12.05 6.55Q7 6.55 3.35 5.35L-1.75 3.05L-1.75 3.55L-2.4 3.15L-2.6 3.15Q-3 1.95 -2.15 0.75L0.8 2.9L1.5 3.35Q5.55 6.05 10.1 6.35L12.3 6.55" />
<path style="fill:#745416;fill-opacity:1" d="M10.45,8.8L5.1 8.6Q2.25 7.95 0.4 6.7Q-1.1 5.65 -2 4.4Q-0.7 5.75 3.25 7.15Q7.2 8.5 9.95 8.15L13.6 7.5L13.65 7.5Q12.95 8.4 10.45 8.8" />
</g>
</svg>
