<?xml version="1.0" encoding="utf-8"?>
<svg version="1.1" id="Layer_1"
xmlns="http://www.w3.org/2000/svg"
xmlns:xlink="http://www.w3.org/1999/xlink"
xmlns:author="http://www.sothink.com"
width="28px" height="22px"
xml:space="preserve">
<g id="2037" transform="matrix(1, 0, 0, 1, 10.95, 0.65)">
<path style="fill:#DB2AF0;fill-opacity:1" d="M-6.85,7.5Q-4.25 5.55 -2.1 4.45Q2 2.2 3.8 3Q5 3.5 5.55 5.9Q6.2 8.45 6.7 9.05Q7.85 10.15 10.95 8.6Q13.15 7.4 13.65 5.3Q15.5 4.95 16.05 8.05Q16.35 10 15.85 11.9Q15.05 14.55 12.6 15.85Q10.8 16.85 8.15 15.35L6.3 15.5Q5.05 15.1 4.7 13.2L4.75 7.85Q4.1 4.55 -2.7 6.3L-6.85 7.5M2.3,20.15Q1.3 20.7 0.25 21.2L-1.95 21.35L-3.05 21.25Q-1 20.75 0.6 19.95L1.7 19.1L2.3 20.15" />
<path style="fill:#F079FF;fill-opacity:1" d="M10.95,8.6Q7.85 10.15 6.7 9.05Q6.2 8.45 5.55 5.9Q5 3.5 3.8 3Q2 2.2 -2.1 4.45Q-4.25 5.55 -6.85 7.5L-10.95 9.05L-10.95 8.8Q-10.55 7.5 -8.9 6.2Q-6.75 4.3 -1.9 1.75Q4 -1.4 6.8 -0.45Q8.9 0.25 9.55 3.65Q10.1 6.8 12.7 5.55L13.65 5.3Q13.15 7.4 10.95 8.6M7.3,2Q7.7 1.7 7.4 1.2Q6.45 -0.25 5 0.4Q4.45 3.8 7.3 2M-3.25,21.05L-2.95 20.65L-0.4 19.05Q-0.3 18.9 -0.1 18.9L1.7 19.1L0.6 19.95Q-1 20.75 -3.05 21.25L-3.25 21.05M-6.45,5.85Q-6.25 5.55 -6.65 5.3L-7.7 5.45Q-7.85 8 -6.45 5.85" />
<path style="fill:#F8C6FF;fill-opacity:1" d="M5,0.4Q6.45 -0.25 7.4 1.2Q7.7 1.7 7.3 2Q4.45 3.8 5 0.4M-7.7,5.45L-6.65 5.3Q-6.25 5.55 -6.45 5.85Q-7.85 8 -7.7 5.45" />
</g>
</svg>
