<?xml version="1.0" encoding="utf-8"?>
<svg version="1.1" id="Layer_1"
xmlns="http://www.w3.org/2000/svg"
xmlns:xlink="http://www.w3.org/1999/xlink"
xmlns:author="http://www.sothink.com"
width="38px" height="47px"
xml:space="preserve">
<g id="540" transform="matrix(1, 0, 0, 1, 0, 0)">
<path style="fill:#10100B;fill-opacity:1" d="M36.45,7.75L36.6 7.4L36.35 6.6L36.1 6.35L35.8 6.25L35.4 6.35L35.35 6.35L35.05 6.1L36.05 5.05Q36.6 4.3 36.85 4.3L37.25 4.5L37.5 5.2Q37.7 6.35 37.4 7.1L36.7 8.2L36.45 7.75M22.15,13.9Q21.85 13.95 21.65 14.15L21.3 14.5L20.9 14.35L21.1 14.1L21.2 14L22.05 12.5Q22.45 11.5 22.7 11.4L23.3 11.5L23.8 12.2Q24.4 13.45 24.25 14.4Q24.1 15.45 23.6 16.05L23.5 16.2L23.15 15.8L23.4 15L22.85 14.15L22.5 14L22.15 13.9M36.9,7.15L37.1 6.45L37.1 6.3L37.1 6.25L37.1 5.25L36.85 4.75L36.55 5.1L35.9 5.9L36.35 6.15Q36.8 6.45 36.9 7.15M22.75,13.6L23.7 14.6L23.7 13.75L23.65 13.55L23.3 12.4L22.85 11.95L22.6 12.45L22.15 13.5L22.75 13.6" />
<path style="fill:#645D4C;fill-opacity:1" d="M35.7,6.6L35.35 6.35L35.4 6.35L35.8 6.25L36.1 6.35L35.7 6.6M36.85,5.55L36.35 6.15L35.9 5.9L36.55 5.1L36.85 4.75L37.1 5.25L37.1 6.25L37.1 6.3L36.85 5.55M25.7,3.4L25.5 3.6L25.45 4.35L25.5 4.7L25.4 4.75L25 4.8Q24.95 4.1 25.15 3.45L25.5 3.1Q25.9 2.8 26 2.85L26.05 2.95L26.05 3.2L26.05 3.85L26.05 3.95L26.1 4.5L25.85 4.6L25.9 3.75L25.9 3.65L25.85 3.55L25.7 3.4M26.05,4.95L26.2 4.9Q26.35 5.65 26.9 6.4L26.95 6.45L26.8 7.15L26.6 7.5L26.35 7.75L25.75 7.15Q25.2 6.5 25.1 5.9L25 5.2L25.4 5.2Q25.65 6.05 26.2 6.35Q26.65 6.5 26.2 5.85L25.85 5.05L26.05 4.95M24.15,5.65L24.15 5.8L24.45 7.7L24.7 8.25L24.45 8.2L24.25 7.95L24 6.8Q24 6.15 24.15 5.65M25,8.9L25.05 9.15L24.6 8.6L24.95 8.6L25.25 8.95L25 8.9M27.15,9.75L26.95 9.6L27.35 9.55L27.6 9.55L27.15 9.75M28.65,8.1L28.2 8.2L27.45 8.25L27.25 8.2L26.65 7.95Q27.15 7.5 27.25 6.65L27.4 6.7L27.75 6.9L27.8 6.9L28.05 7.05L28.35 7.3L28.65 8.05L28.65 8.1M22.15,13.5L22.6 12.45L22.85 11.95L23.3 12.4L23.65 13.55L23.7 13.75L23.65 13.6L23.1 12.8L22.75 13.6L22.15 13.5M22.5,14L22.15 14.4L21.65 14.15Q21.85 13.95 22.15 13.9L22.5 14M29.05,19.7L28.5 19.55L28.8 18.9L29.45 19.2L29.6 19.85L29.45 19.85L29.4 19.7L29.35 19.7L29.25 19.8L29.05 19.7M30.25,19.4L30.1 19.9L29.95 19.9L29.85 19.5L29.85 19.3L30.25 19.4M29.7,20.25L29.9 20.7L29.4 22.5L28.7 22.4L28.45 21.55L28.45 21.3L28.35 20.25Q27.7 20.2 28.05 19.85L29 20.15Q28.9 20.4 28.95 20.7L29 20.75L29.55 20.25L29.7 20.25M29.35,20.85Q28.9 21.25 29.05 21.9L29.05 21.95Q29.65 21.6 29.4 20.85L29.35 20.85M11.05,12.8L10.55 12.8L10.55 12.05L10.6 11.7L10.7 11.2L10.85 11.05L11.05 10.85L11.1 10.8Q11.65 10.4 11.7 10.55L11.75 10.95L11.8 11.3L11.75 11.7L11.75 11.85L11.8 12.45L11.55 12.6L11.6 11.55L11.6 11.45L11.55 11.35L11.35 11.15L11.25 11.35L11.15 11.4L11.05 12.3L11.05 12.4L11.1 12.75L11.05 12.8M11.55,13.1L11.8 13L11.85 13L11.95 12.95L12 13.15Q12.15 13.75 12.6 14.35L12.85 14.7L12.65 15.55L12.65 15.65L12.3 16.15L12.15 16.3L11.95 16.2L11.4 15.55Q10.8 14.75 10.65 14.1L10.65 14.05L10.55 13.25L11 13.2L11.6 14.3L11.95 14.6Q12.3 14.75 12.2 14.35L12 14L11.55 13.1M10.2,16.9L9.85 16.85L9.65 16.55L9.55 16.25L9.4 15.65L9.35 15.15L9.35 15.05L9.55 13.75L9.55 14L9.7 15.15L9.85 15.8L9.95 16.25L10.05 16.45L10.2 16.9M14.45,16.85L13.7 16.95L13.15 16.85L12.5 16.55L12.9 16.1L13.1 15.65L13.25 15.15L13.25 15L13.4 15.05L13.5 15.1L13.85 15.3L13.95 15.35L14.15 15.45L14.5 15.8L14.8 16.7L14.45 16.85M11.7,18.25L12.25 18.4L12.3 18.4L12.8 18.5L13.3 18.45L13.6 18.4L12.9 18.7L12.65 18.7L12.35 18.7L11.65 18.6L11.1 18.4Q10.45 18.05 10.05 17.3L10.45 17.35Q10.9 17.95 11.7 18.25M15.75,35.25L15.5 35.6L16.05 35.25L16.1 35.65L15.95 36.1L15.9 36.15L15.35 36L14.25 35.35L14.55 34.85L14.7 34.7L15.75 35.25M8.95,31.05L8.9 31.15L8.85 31.05L8.95 31.05M29.85,33.15L29.5 34.85L27.65 35L27.35 34.7L27.8 33.9L27.85 33.65Q28.65 33 28.4 32Q27.65 32.1 28.25 31.6Q27.8 30.95 28.2 30.95L28.7 30.9L29.1 30.85Q29.8 31.9 29.85 33.15M29.2,33.95Q29.7 33.75 29.45 32.7Q29.3 31.65 28.95 32.9Q28.65 34.15 29.2 33.95M27.5,39.35Q27.4 40.5 27.65 42.4L28.2 44.7Q28.1 45.55 26.75 45.1Q27.05 43.25 26.95 41.65L26.95 41.2L26.6 41.15L26.6 41.1Q26.55 40.7 26.85 40.6L26.65 39.1L26.55 38.55L27.15 38.5L27.55 38.65L27.5 39.35M27.4,43.9Q27.15 44.05 27.25 44.45L27.25 44.5L27.55 44.5Q27.8 44.15 27.4 43.9M26.85,45.7L26.85 45.45L26.95 45.45L27.1 45.4L27.4 45.7L26.85 45.8L26.85 45.7" />
<path style="fill:#38382E;fill-opacity:1" d="M35.35,6.35L35.7 6.6L36.1 6.35L36.35 6.6L36.6 7.4L36.45 7.75L35.65 6.7L35.35 6.35M37.1,6.3L37.1 6.45L36.9 7.15Q36.8 6.45 36.35 6.15L36.85 5.55L37.1 6.3M25,4.8L24.45 4.7L25.15 3.45Q24.95 4.1 25 4.8M25.85,8.05L24.7 8.25L24.45 7.7L24.15 5.8L24.15 5.65L24.15 5.6L24.3 5L24.35 4.95L24.95 5.2L25 5.2L25.1 5.9Q25.2 6.5 25.75 7.15L26.35 7.75L25.85 8.05M26.35,8.15L26.6 8L26.65 7.95L27.25 8.2L27.45 8.25L28.2 8.2L28.65 8.1L28.4 8.7L28.05 9.15L27.65 9.55L27.6 9.55L27.35 9.55L26.95 9.6Q26.25 9.05 25.25 8.95L24.95 8.6Q25.75 8.6 26.35 8.15M28.55,17.5L28.8 17.6L29.45 17.85L29.35 18.5L29.45 19.2L28.8 18.9L28.5 19.55L27.8 19.3L27.9 19L28.55 17.5M30.25,19.4L29.85 19.3L29.85 18.15L29.9 18L30.4 18.15L30.75 18.25L30.25 19.4M23.7,14.6L22.75 13.6L23.1 12.8L23.65 13.6L23.7 13.75L23.7 14.6M22.7,15.35Q22.2 14.95 21.3 14.5L21.65 14.15L22.15 14.4L22.5 14L22.85 14.15L23.4 15L23.15 15.8L22.7 15.35M29.25,19.8L29.35 19.7L29.4 19.7L29.45 19.85L29.25 19.8M29.55,20.25L29 20.75L28.95 20.7Q28.9 20.4 29 20.15L29.55 20.25M28.05,19.85Q27.7 20.2 28.35 20.25L28.45 21.3L28.45 21.55L28.7 22.4L27.9 22.5L27.75 21.35L27.7 19.65L28.05 19.85M10.55,12.8L9.85 12.7L9.9 12.6L10.25 11.9L10.45 11.6L10.7 11.2L10.6 11.7L10.55 12.05L10.55 12.8M12.15,16.3L11.55 16.65L10.2 16.9L10.05 16.45L9.95 16.25L9.85 15.8L9.7 15.15L9.55 14L9.55 13.75L9.6 13.45L9.7 13.05L9.75 13L9.75 13.05L10.5 13.25L10.55 13.25L10.65 14.05L10.65 14.1Q10.8 14.75 11.4 15.55L11.95 16.2L12.15 16.3M10.45,17.35Q11.45 17.3 12.15 16.75L12.5 16.55L13.15 16.85L13.7 16.95L14.45 16.85L14.8 16.7L14.55 17.55L14.25 17.9L14.2 17.95L13.7 18.35L13.6 18.4L13.3 18.45L12.8 18.5L12.3 18.4L12.25 18.4L11.7 18.25Q10.9 17.95 10.45 17.35M15.2,34.4L14.7 34.7L14.55 34.85L14.25 35.35L15.35 36L15.9 36.15L16 36.15L16.3 36.2L16.2 36.35L15.9 36.5L15.6 36.5L15.45 36.5L15.35 36.5L15 36.45Q13.9 36.3 12.5 35.3L12.2 35.05L12.5 34.55L13.15 33.4L15.2 34.4M8.95,31.05L9.5 30.85Q9.8 30.75 9.9 31.25L9.55 31.95L9.5 32.1L9 31.35L8.9 31.15L8.95 31.05M28.75,30.05L29.05 30.75L29.1 30.85L28.7 30.9L28.2 30.95Q27.8 30.95 28.25 31.6Q27.65 32.1 28.4 32Q28.65 33 27.85 33.65L27.6 32.05Q27.15 30.8 27.15 30.15L27.15 30.05L27.15 29.65L27.35 29.7L28.2 29.9L28.75 29.9L28.75 30.05M27.65,35L29.5 34.85L29.05 35.45L28.85 35.7L28.8 35.75L27.9 37.25L27.6 38.6L27.55 38.65L27.15 38.5L26.55 38.55L26.65 39.1L26.85 40.6Q26.55 40.7 26.6 41.1L26.6 41.15L26.95 41.2L26.95 41.65Q27.05 43.25 26.75 45.1Q28.1 45.55 28.2 44.7L28.4 45.25Q28.9 46.1 27.55 46.2Q26.3 46.25 26.25 45.7L26.35 44.45L26.35 44.35L26.5 43.45L26.35 40.95L26.15 38.4L26.1 38.3Q26.05 37.2 26.3 36.45L26.35 36.4L26.6 35.75L27.05 35.15L27.35 34.7L27.65 35M27.55,44.5L27.25 44.5L27.25 44.45Q27.15 44.05 27.4 43.9Q27.8 44.15 27.55 44.5M26.85,45.8L27.4 45.7L27.1 45.4L26.95 45.45L26.85 45.45L26.85 45.7L26.85 45.8" />
<path style="fill:#1C202A;fill-opacity:1" d="M25.6,0.95Q25.4 1.45 25.8 2.4L25.5 2.5L25.4 2.5L25.25 2.65L24.9 1.6L24.8 0.4L24.95 0Q25.4 0.05 27.2 1.05Q28.45 1.8 29 2.6L29.3 1.5L29.75 0.55Q30 0.1 30.2 0.1L31.1 1.05Q31.8 2 31.85 3.5Q32.3 2.75 33.35 2.15Q34.45 1.55 34.5 2L34.5 2.3L34.3 3.55L33.55 5L33.3 4.9L32.95 4.75L33.2 4.4L33.8 3.1L33.85 2.6Q33.15 2.8 32.35 3.7L32 4.1L31.8 4.4L31.15 4.3L31.2 4.25Q31.45 3.35 31.2 2.55Q30.8 1.25 30.15 0.95L29.75 2.4Q29.65 3.35 30.05 4.3L29.15 4.45L29.1 4.5Q28.4 1.8 25.6 0.95M26.55,4.5L26.55 4.35L26.55 3.8Q27.15 4.5 28.25 4.85L27.8 5.25L27.7 5.4L26.7 4.6L26.55 4.5M25.85,3.55L25.9 3.65L25.9 3.75L25.85 3.55" />
<path style="fill:#61666C;fill-opacity:1" d="M32,4.1L32.35 3.7Q33.15 2.8 33.85 2.6L33.8 3.1L33 3.9L33.05 3.45L32 4.1M31.2,4.25L30.5 2.75L30.3 3.45L30.25 3.45Q29.85 2.95 29.75 2.4L30.15 0.95Q30.8 1.25 31.2 2.55Q31.45 3.35 31.2 4.25M25.8,2.4Q25.4 1.45 25.6 0.95Q28.4 1.8 29.1 4.5L28.65 4.2L27.5 3.05L27.15 2.6L27.15 3.3L27.3 3.45L26.55 3.25L26.55 3.1L26.35 2.4Q26.2 2.25 25.8 2.4" />
<path style="fill:#2D343C;fill-opacity:1" d="M33.05,3.45L33 3.9L33.8 3.1L33.2 4.4L32.95 4.75L31.8 4.4L32 4.1L33.05 3.45M29.75,2.4Q29.85 2.95 30.25 3.45L30.3 3.45L30.5 2.75L31.2 4.25L31.15 4.3L30.95 4.3L30.05 4.3Q29.65 3.35 29.75 2.4M26.55,3.8L26.55 3.25L27.3 3.45L27.15 3.3L27.15 2.6L27.5 3.05L28.65 4.2L29.1 4.5Q28.65 4.65 28.25 4.85Q27.15 4.5 26.55 3.8" />
<path style="fill:#5B5B46;fill-opacity:1" d="M35.65,6.7L36.45 7.75L36.7 8.2L37.05 9.3Q37.15 10.15 36.85 10.95Q36.2 12.8 35.05 12.7L35 12.8L34.95 12.95L34.9 13.25L33.95 13.1L34 12.85L34.15 12.6L34.2 12.5L34.25 12.35L34.65 11.9L35.05 11.8L35.4 11.75L35.45 11.7L35.9 11.25L36.2 9.85L36.1 9.3L35.9 8.6L35.75 8.25L35.4 7.7L34.7 6.8L34.4 6.55Q33.75 6.05 32.85 5.65L32.8 5.65L31.8 5.25L31.3 5.2L30.8 5.1L30.45 5.1L29.55 5.35L29.3 5.45Q28.7 5.75 28.25 6.1L27.95 6.5L27.4 6.2L27.15 5.95L27.7 5.4L27.8 5.25L28.25 4.85Q28.65 4.65 29.1 4.5L29.15 4.45L30.05 4.3L30.95 4.3L31.15 4.3L31.8 4.4L32.95 4.75L33.3 4.9L33.55 5L35.05 6.1L35.35 6.35L35.65 6.7M23.9,29.25L23.9 30.55L23.85 31.4L23.7 32.5L23.4 35.2L23.2 35.5L23 35.5L22.35 35.25L22.45 35.2L22.75 35.15L23.05 32L23.05 31.75L23.1 31.45L23.1 31.05L23.1 30.95L23.15 29.1L23.15 28.75L23.1 28.5L23.1 28L23.05 27.35L23 25.9Q23.05 25.45 23.4 25.15L23.9 24.5L24.1 23.2Q24.1 22.2 24.2 22.15L24.75 21.65L25.3 20.5Q25.35 19.7 24.25 19.15Q23.1 18.55 23.1 18.15L23 17.15L22.9 16.7L22.85 16.6L22.65 16.3L22.2 15.8L20.95 15.1L20.55 14.9L19.65 14.55L19.5 14.5L18.65 14.3L16.95 13.95L16.85 13.95L16.45 13.95L16.4 13.95L16.35 13.95L15.95 14.1L15.85 14.1L15.75 14.15L15.7 14.15L15.5 14.25Q14.8 14.5 14.35 15L13.85 14.65L13.85 14.6L14.05 14.4L14.8 13.9L15.05 13.8L15.75 13.6L16.35 13.5L16.8 13.45L19.25 13.8L19.85 14L19.9 14L20.9 14.35L21.3 14.5Q22.2 14.95 22.7 15.35L23.15 15.8L23.5 16.2L23.7 16.65L23.95 17.55L24.05 18.05L25.15 18.75Q26.1 19.25 26.1 20.4Q26.05 21.5 25.55 22L24.75 22.65L24.8 24.15Q24.8 24.75 23.85 25.95L23.85 26.2L23.9 29.25M27.95,9.9L29.25 10.8L28.3 10.8L28 10.7L27.8 10.65L27.55 10.25L27.5 10.15L27.95 9.9" />
<path style="fill:#C9C5BC;fill-opacity:1" d="M33.6,11.4L34.2 12.5L34.15 12.6L34 12.85L33.75 12.8Q32.35 12.4 31.2 11.6L31.2 10.9L31.05 10.7L30.4 10.55L30.1 9.95L29.6 9.9L28.75 9.15Q29.15 8.5 29.05 7.9L29.05 7.8Q28.9 7 28.25 6.65L28.15 6.6L28.25 6.1L29.35 5.7L29.7 5.65L30.2 5.6L31 5.65L31.25 5.7L31.45 5.85L31.45 6.2L31.65 6.35L32.6 6.15L32.75 6.25L34.1 7.3L34.8 8.15L35.05 8.55L35.4 9.3Q35.8 10.5 35.45 11.7Q34.6 11.25 34.25 10.4L34.05 9.7L33.95 9.45L33.9 9.45Q33.65 8.65 32.8 8Q31.7 7.15 30.15 7.1Q29.9 7.85 30.3 8.5L30.35 8.75Q30.5 9.3 31.15 9.9Q31.75 10.5 32.35 10.65L32.65 10.65L33.6 11.4M22.15,25L21.2 24.95L21.15 24.95Q20.65 25.1 21.2 25.25Q21.15 26.3 22.3 26.35Q22.3 26.6 22.45 26.35L22.6 26.1L22.65 26.3L22.65 26.55L22.7 27.1L22.7 27.5L22.7 27.8L22.65 28.55L22.65 28.65Q22.2 29.1 22.65 29.05L22.65 29.4L22.55 31.2L22.5 31.9L22.45 32.2L22.2 35.1L21.75 34.8L21.8 34.65Q21.8 34.15 21.4 34.05L21.15 34.4L21.1 34.3Q20.55 34.15 21.05 33.75L21 31.55L20.75 31.45Q20.5 31.25 20.95 30.8L20.95 28L20.85 27.55L20.6 26.95L20.95 26.9L21.05 26.7L20.8 26.5L20.55 26.75L20.1 25.95L20.2 26.15L20.1 26.05L20.1 26L19.95 25.8L20 26.1L19.85 26.5L19.8 26.65L19.5 27.05L19 27.15Q19.15 26.8 18.7 26.65L18.6 26.7Q18.15 26.9 18.15 27.05L18.05 27.05L17.6 26.9L18 26.55L18.6 25.8L18.8 25.5L18.85 25.4L19 25.15L19.4 23.8L18 24.5L17.95 24.5Q18.2 22.45 17.4 22.15L17.35 22.15L17.35 21.85Q17.15 21.55 16.8 21.6L16.5 21.95L16.35 21.85Q15.85 21.55 15.6 22.05L15.55 22.2L15.45 22.15L15.05 22.25Q14.85 22.2 14.75 22L14.7 21.7L14.65 21.55L14.65 21.45L14.7 21.45L14.8 21.45L14.9 21.3L14.8 20.65L14.65 20.55L14.4 20.7L13.8 20.05L13.3 19.9Q13.15 19.7 13.4 19.4L13.2 19.15L14.3 18.7L14.55 18.85L15.15 19L15.45 19L15.3 18.9L15.15 18.8L15.35 18.9L16.55 19.1L15.65 18.55L15 17.85L15.3 17.15L15.75 17.3L15.9 17.15Q16.05 16.7 15.6 16.55L15.4 16.75L15.35 16.5L15.3 16.35L15.15 15.8L15.7 16.05L17.3 16.8L20.1 18.45Q20 17.4 19.15 16.25L18.85 15.9L17 14.25L17.3 14.3L18.6 14.6L19.4 14.9L19.45 14.95L19.5 14.95L19.6 15L19.65 15Q19.1 15.55 20 15.55L20.25 15.3L20.25 15.25L20.45 15.35L21.1 15.75L21.75 16.25L22.05 16.75L22.1 16.85L22.2 17.15L22.25 17.3L22.35 17.85Q22.5 18.6 22.95 19Q22.2 19.25 23.15 19.65Q23.25 19.7 23.4 19.55L23.5 19.35Q24.15 19.7 24.45 20.2Q24.85 20.7 24.55 21L23.6 22.3L23.3 24.3L22.45 25.15L22.15 25M20.7,16.55Q19.75 17.1 20.9 17.25L21.05 17L20.7 16.55M21.65,18.1Q20.95 18.55 21.8 18.35Q22 18.35 21.85 18.15L21.65 18.1M18.4,20.55L18.55 20.9Q18.4 21.35 18.95 22Q19.5 22.55 20.6 22.85Q21.65 23.05 22.2 22.85L22.4 22.75L22.55 22.5L23 22.25L23.1 22.3L23.15 22.1L23.15 22.05L23.05 21.35Q22.85 20.6 21.85 19.7L21.4 19.35Q20.2 18.6 19.1 18.9Q17.9 19.1 18.15 19.8L18.3 20L18.4 20.55M22.5,24.05L22.6 23.9L22.2 23.4Q21.5 24 22.5 24.05M14.5,19.25L14.4 19.15L14.25 19.1Q13.5 19.55 14.35 19.35L14.4 19.35L14.5 19.25M17.9,21Q16.95 21.35 17.8 21.75L18 21.65Q18.35 21.2 17.9 21M15.6,20.1L15.3 19.85Q14.5 20.55 15.5 20.3L15.6 20.1M19.5,25.5L19.2 25.2Q18.45 26 19.4 25.7L19.5 25.5M21.7,29.75L21.5 29.9Q20.95 30.3 21.75 30.45L21.9 30.35Q22.05 29.95 21.8 29.8L21.7 29.75" />
<path style="fill:#EEEEEE;fill-opacity:1" d="M28.25,6.1Q28.7 5.75 29.3 5.45L29.55 5.35L30.45 5.1L30.8 5.1L31.3 5.2L31.8 5.25L32.8 5.65L32.85 5.65Q33.75 6.05 34.4 6.55L34.7 6.8L35.4 7.7L35.75 8.25L35.9 8.6L36.1 9.3L36.2 9.85L35.9 11.25L35.45 11.7Q35.8 10.5 35.4 9.3L35.05 8.55L34.8 8.15L34.1 7.3L32.75 6.25L32.6 6.15L31.65 6.35L31.45 6.2L31.45 5.85L31.25 5.7L31 5.65L30.2 5.6L29.7 5.65L29.35 5.7L28.25 6.1" />
<path style="fill:#202017;fill-opacity:1" d="M27.55,38.65L27.6 38.6L27.9 37.25L28.8 35.75L28.85 35.7L29.05 35.45L29.5 34.85L29.85 33.15Q29.8 31.9 29.1 30.85L29.05 30.75L28.75 30.05L28.75 29.9L29.15 29.85L29.45 29.8L29.5 30.05L29.6 30.25L29.75 30.55Q30.25 31.5 30.4 32.45L30.45 34.15L30.45 34.3L29.75 35.75L29.25 36.4Q28.35 37.5 28.15 38.8L28.1 39.3L28.2 41.8L28.55 43.4L29.1 44.9L29.25 46.15Q29.1 46.65 28.35 46.85L27.25 47L26.35 46.8Q25.85 46.65 25.65 46.25Q25.45 45.85 25.55 45.25L25.75 44.05L25.8 42.5L25.55 39.6L25.45 38.75Q25.3 37.25 25.6 36.35L25.8 35.75Q26.1 35 26.6 34.55L26.6 34.5L27.15 33.8L27.25 33.2L26.7 31.4Q26.55 31.05 26.55 30.55L26.5 30.05L26.55 29.15L26.55 29.05L27.15 29.65L27.15 30.05L27.15 30.15Q27.15 30.8 27.6 32.05L27.85 33.65L27.8 33.9L27.35 34.7L27.05 35.15L26.6 35.75L26.35 36.4L26.3 36.45Q26.05 37.2 26.1 38.3L26.15 38.4L26.35 40.95L26.5 43.45L26.35 44.35L26.35 44.45L26.25 45.7Q26.3 46.25 27.55 46.2Q28.9 46.1 28.4 45.25L28.2 44.7L27.65 42.4Q27.4 40.5 27.5 39.35L27.55 38.65M15.75,34.1L16.35 34.4L16.65 34.65Q17 35.05 16.95 35.55L16.8 36.15L16.65 36.2L16.3 36.2L16.5 35.8L16.5 35.2L16 34.7L15.9 34.65L15.5 34.55L15.2 34.4L15.3 34.4L15.75 34.1M27.25,22.8L27.1 21.95Q26.75 20.4 27.05 19.2L27.7 19.65L27.75 21.35L27.9 22.5L27.45 22.65L27.25 22.8M27.5,10.15L27.15 9.75L27.6 9.55L27.65 9.55L28.05 9.15L28.4 8.7L28.65 8.1L28.65 8.05L28.35 7.3L28.05 7.05L27.8 6.9L27.75 6.9L27.4 6.7L27.25 6.65Q27.15 7.5 26.65 7.95L26.6 8L26.35 8.15Q25.75 8.6 24.95 8.6L24.6 8.6L25.05 9.15L25.1 9.55L25.15 9.8L24.65 9.35Q23.9 8.5 23.6 7.2Q23.35 5.9 24.05 4.35L24.15 4.15Q24.7 3 25.25 2.65L25.4 2.5L25.5 2.5L25.8 2.4Q26.2 2.25 26.35 2.4L26.55 3.1L26.55 3.25L26.55 3.8L26.55 4.35L26.55 4.5Q26.6 5.25 26.9 5.6L27.15 5.95L27.4 6.2L27.95 6.5L28.15 6.6L28.25 6.65Q28.9 7 29.05 7.8L29.05 7.9Q29.15 8.5 28.75 9.15L28.65 9.25L28.45 9.4L27.95 9.9L27.5 10.15M30.6,7.5Q33.4 8.15 33.8 10.35L33.05 10.65L32.65 10.65L32.35 10.65Q31.75 10.5 31.15 9.9Q30.5 9.3 30.35 8.75L30.3 8.5Q30.25 8 30.6 7.5M24.45,4.7L25 4.8L25.4 4.75L25.5 4.7L25.85 4.6L26.1 4.5L26.05 3.95L26.05 3.85L26.05 3.2L26.05 2.95L26 2.85Q25.9 2.8 25.5 3.1L25.15 3.45L24.45 4.7M24,6.8L24.25 7.95L24.45 8.2L24.7 8.25L25.85 8.05L26.35 7.75L26.6 7.5L26.8 7.15L26.95 6.45L26.9 6.4Q26.35 5.65 26.2 4.9L26.05 4.95L25.85 5.05L25.4 5.2L25 5.2L24.95 5.2L24.35 4.95L24.3 5L24.15 5.6L24.15 5.65Q24 6.15 24 6.8M27.9,19L27.8 19.3L27.15 18.85L27.95 17.05L28.55 17.5L27.9 19M30.1,19.9L30.25 19.4L30.75 18.25L31.2 18.35L31.4 18.4L31.45 18.45L31.05 19.3L31 19.55L31 19.65L30.1 19.9M10.4,10.7L10.65 10.45L10.75 10.35L11.05 10.15L11.1 10.1L11.35 9.95L11.5 9.9L12.1 9.95L12.35 10.8L12.35 10.95L12.35 11.65L12.35 12.3L12.4 12.55L12.8 13.75L13.4 14.4L13.5 14.45L13.85 14.65L14.35 15L14.4 15L15 15.5L15.15 15.8L15.3 16.35L15.35 16.5L15.4 16.75Q15.1 17 15.3 17.15L15 17.85L14.85 18.05L14.7 18.25L14.65 18.35L14.3 18.7L13.2 19.15L12.7 19.2L12.4 19.2L12 19.2Q10.85 19.05 10.1 18.2L9.9 17.9L9.3 16.9L8.95 15.95L8.85 15.65L8.85 15.45L8.8 14.75L8.9 13.7L9.3 12.6L9.4 12.3L9.55 12.05L9.6 12L9.75 11.65L10 11.3L10.4 10.7M29.4,22.5L29.9 20.7L30.1 21.15Q29.85 21.9 29.75 22.6L29.4 22.5M30,22.7L30.25 22.1L30.1 22.7L30 22.7M30.55,21L30.5 20.95L30.1 20.25L30.85 20.15L30.55 21M11.1,12.75L11.4 12.65L11.55 12.6L11.8 12.45L11.75 11.85L11.75 11.7L11.8 11.3L11.75 10.95L11.7 10.55Q11.65 10.4 11.1 10.8L11.05 10.85L10.85 11.05L10.7 11.2L10.45 11.6L10.25 11.9L9.9 12.6L9.85 12.7L10.55 12.8L11.05 12.8L11.1 12.75M9.35,15.05L9.35 15.15L9.4 15.65L9.55 16.25L9.65 16.55L9.85 16.85L10.2 16.9L11.55 16.65L12.15 16.3L12.3 16.15L12.65 15.65L12.65 15.55L12.85 14.7L12.6 14.35Q12.15 13.75 12 13.15L11.95 12.95L11.85 13L11.8 13L11.55 13.1L11 13.2L10.55 13.25L10.5 13.25L9.75 13.05L9.75 13L9.7 13.05L9.6 13.45L9.55 13.75L9.35 15.05M12.15,16.75Q11.45 17.3 10.45 17.35L10.05 17.3Q10.45 18.05 11.1 18.4L11.65 18.6L12.35 18.7L12.65 18.7L12.9 18.7L13.6 18.4L13.7 18.35L14.2 17.95L14.25 17.9L14.55 17.55L14.8 16.7L14.5 15.8L14.15 15.45L13.95 15.35L13.85 15.3L13.5 15.1L13.4 15.05L13.25 15L13.25 15.15L13.1 15.65L12.9 16.1L12.5 16.55L12.15 16.75M8.85,31.9L8.55 31.3L8.7 31.15L8.85 31.05L8.9 31.15L8.85 31.9" />
<path style="fill:#918A7B;fill-opacity:1" d="M27.95,6.5L28.25 6.1L28.15 6.6L27.95 6.5M32.65,10.65L33.05 10.65L33.8 10.35Q33.4 8.15 30.6 7.5Q30.25 8 30.3 8.5Q29.9 7.85 30.15 7.1Q31.7 7.15 32.8 8Q33.65 8.65 33.9 9.45L33.95 9.45L34.05 9.7L34.25 10.4Q34.6 11.25 35.45 11.7L35.4 11.75L35.05 11.8L34.65 11.9L34.25 12.35L34.2 12.5L33.6 11.4L32.65 10.65M27.95,9.9L28.45 9.4L28.65 9.25L28.75 9.15L29.6 9.9L30.1 9.95L30.4 10.55L31.05 10.7L31.2 10.9L31.2 11.6Q32.35 12.4 33.75 12.8L34 12.85L33.95 13.1L33.25 13.05Q31.75 13.1 30.55 12.3L28.8 11.05L28.3 10.8L29.25 10.8L27.95 9.9M28,10.7L27.85 10.7L27.8 10.65L28 10.7M15.4,16.75L15.6 16.55Q16.05 16.7 15.9 17.15L15.75 17.3L15.3 17.15Q15.1 17 15.4 16.75M15.1,18.75L14.65 18.35L14.7 18.25L14.85 18.05L15 17.85L15.65 18.55L16.55 19.1L15.35 18.9L15.15 18.8L15.1 18.75M15.15,22.75L14.45 22.85L14.2 22.7Q14.05 22.55 14.05 22.25L13.95 22L13.8 21.1L13.55 20.5L13.2 19.85L12.7 19.2L13.2 19.15L13.4 19.4Q13.15 19.7 13.3 19.9L13.8 20.05L14.4 20.7L14.65 20.55L14.8 20.65L14.9 21.3L14.8 21.45L14.7 21.45L14.65 21.45L14.65 21.55L14.7 21.7L14.75 22Q14.85 22.2 15.05 22.25L15.45 22.15L15.55 22.2L15.15 22.75M17.4,24.4L17.5 23.7Q17.65 23.1 17.25 22.7L17.05 22.55L17 22.55L16.5 21.95L16.8 21.6Q17.15 21.55 17.35 21.85L17.35 22.15L17.4 22.15Q18.2 22.45 17.95 24.5L17.4 24.4M19.75,27L19.7 27.15L19.7 27.25L19.7 27.8L18.6 27.75L18.5 27.75L17.8 27.6L17.2 27.45L17.45 27L17.6 26.9L18.05 27.05L18.15 27.05Q18.15 26.9 18.6 26.7L18.7 26.65Q19.15 26.8 19 27.15L19.5 27.05L19.8 26.65L19.75 27M22.2,35.15L22.2 35.25Q21.25 35.35 20.45 34.6L20.45 32L20.45 31.85L20.5 31.45L20.5 29.95L20.5 29.6L20.4 28.65L20.3 27.95L20.3 27.85L20.15 26.8L20 26.2L20 26.1L19.95 25.8L20.1 26L20.1 26.05L20.2 26.15L20.1 25.95L20.55 26.75L20.8 26.5L21.05 26.7L20.95 26.9L20.6 26.95L20.85 27.55L20.95 28L20.95 30.8Q20.5 31.25 20.75 31.45L21 31.55L21.05 33.75Q20.55 34.15 21.1 34.3L21.15 34.4L21.4 34.05Q21.8 34.15 21.8 34.65L21.75 34.8L22.2 35.1L22.2 35.15M22.3,26.35Q21.15 26.3 21.2 25.25L21.4 25.25Q22.25 25.45 22.3 26.3L22.3 26.35M21.05,17L20.9 17.25Q19.75 17.1 20.7 16.55L21.05 17M21.85,18.15Q22 18.35 21.8 18.35Q20.95 18.55 21.65 18.1L21.85 18.15M22.8,21.85Q22.5 21.15 21.6 20.35Q20.7 19.5 19.55 19.5Q18.4 19.45 18.4 19.9L18.3 19.95L18.3 20L18.15 19.8Q17.9 19.1 19.1 18.9Q20.2 18.6 21.4 19.35L21.85 19.7Q22.85 20.6 23.05 21.35L23.15 22.05L23.15 22.1L23.1 22.3L23 22.25L22.8 21.85M14.4,19.35L14.35 19.35Q13.5 19.55 14.25 19.1L14.4 19.15L14.5 19.25L14.4 19.35M18,21.65L17.8 21.75Q16.95 21.35 17.9 21Q18.35 21.2 18 21.65M15.5,20.3Q14.5 20.55 15.3 19.85L15.6 20.1L15.5 20.3M19.4,25.7Q18.45 26 19.2 25.2L19.5 25.5L19.4 25.7M21.8,29.8Q22.05 29.95 21.9 30.35L21.75 30.45Q20.95 30.3 21.5 29.9L21.7 29.75L21.8 29.8" />
<path style="fill:#98948E;fill-opacity:1" d="M25.85,3.55L25.9 3.75L25.85 4.6L25.5 4.7L25.45 4.35L25.5 3.6L25.7 3.4L25.85 3.55M25.85,5.05L26.2 5.85Q26.65 6.5 26.2 6.35Q25.65 6.05 25.4 5.2L25.85 5.05M11.6,11.55L11.55 12.6L11.4 12.65L11.1 12.75L11.05 12.4L11.05 12.3L11.15 11.4L11.25 11.35L11.35 11.15L11.55 11.35L11.6 11.55M12,14L12.2 14.35Q12.3 14.75 11.95 14.6L11.6 14.3L11 13.2L11.55 13.1L12 14" />
<path style="fill:#3A3A3A;fill-opacity:1" d="M25.45,12.4L25.8 12.65L24.35 12.45Q25.05 11.7 25.85 11.7L26.2 11.75L26.45 11.75L26.5 11.75L26.3 12.2L26.3 12.3L25.45 12.4M25.05,9.15L25 8.9L25.25 8.95Q26.25 9.05 26.95 9.6L27.15 9.75L27.5 10.15L27.55 10.25L27.8 10.65L27.85 10.7L27.75 10.7L27.25 10.9L26.4 10.25L26.35 10.2L26.35 10.25L26.4 10.65Q25.7 10.4 25.3 9.9L25.1 9.55L25.05 9.15" />
<path style="fill:#1C1C1C;fill-opacity:1" d="M35.05,13.3L36.15 13.25Q37.25 13.5 37.45 14.2Q37.05 14.7 35.9 14.9L35.85 14.2L35.2 13.4L35.05 13.3M35.9,14.95L36.45 15.6Q36.7 16.2 36.25 16.3L35.45 16.3L35.25 16.2L35.8 15.5L35.9 14.95M31,19.65Q31.65 19.35 31.95 18.55L32.15 18.55Q31.75 19.8 30.85 20.15L30.1 20.25L30.5 20.95L30.55 21Q30.95 21.5 31.9 21.75Q32.8 21.95 33.65 21.75Q34.45 21.55 34.8 20.65Q35.45 18.55 34.75 17.1L34.6 16.75L34.6 16.35L35.15 16.25Q35.5 17.55 36.8 17.95L35.65 18.2L35.7 19.2Q35.75 19.9 35.45 20.6L35.15 21.3L35.45 21.75Q35.65 22 35.3 22L34.8 21.8L33.9 22.2L33.45 22.3L33.65 22.85Q33.85 23.75 33.45 25.3Q34.45 25.6 34.75 27.25L34.3 27.3L33.6 26.85L33.3 26.5L33.25 27.4Q33.95 27.7 34.3 28.85L34.2 29L33.3 28.45L33.2 31.5L33 33L32.8 31.9L32.65 26.4L32.05 26.5L31.45 26.45L31.15 26.35L31.15 26.2L31.2 25.95L32.2 26.1Q32.9 25.95 32.8 25.5Q32.75 25 32.95 25.25Q33.4 23.65 32.9 22.4L31.6 22.15L30.9 22.4L31.05 21.9L30.5 21.4L30.25 22.1L30 22.7L29.75 22.6Q29.85 21.9 30.1 21.15L29.9 20.7L29.7 20.25L29.55 20.25L29 20.15L28.05 19.85L27.7 19.65L27.05 19.2Q26.05 18.4 25.8 16.9Q25.55 15.65 25.9 14.55L25 14.3Q25.15 13.9 25.8 13.45L26.1 13.25L25.6 13.2Q24.85 13.05 24.3 12.45L24.35 12.45L25.8 12.65L25.45 12.4L26.3 12.3Q26.2 12.75 26.45 13.25Q26.7 13.75 27.65 14.45L27.3 15.4L27.25 15.8L26.5 16.05Q26.35 15.8 26.45 15.3L26.8 14.4L26.2 14.55L26 15.95Q25.95 17.85 27.15 18.85L27.8 19.3L28.5 19.55L29.05 19.7L29.25 19.8L29.45 19.85L29.6 19.85L29.45 19.2L29.35 18.5L29.45 17.85L29.9 18L29.85 18.15L29.85 19.3L29.85 19.5L29.95 19.9L30.1 19.9L31 19.65M26.55,11.6Q25.4 10.95 25.15 9.8L25.1 9.55L25.3 9.9Q25.7 10.4 26.4 10.65L26.35 10.25L26.35 10.2L26.4 10.25L27.25 10.9L26.85 11.2L26.55 11.6" />
<path style="fill:#2C1335;fill-opacity:1" d="M35.8,15.5L35.25 16.2L35.15 16.25L34.6 16.35L34.6 16.75L34.3 17.4Q33.95 18.2 33.25 18.5L32.15 18.55L31.95 18.55L31.4 18.4L31.2 18.35L30.75 18.25L30.4 18.15L29.9 18L29.45 17.85L28.8 17.6L28.55 17.5L27.95 17.05L27.55 16.6Q27.25 16.2 27.25 15.8L27.3 15.4L27.65 14.45Q26.7 13.75 26.45 13.25Q26.2 12.75 26.3 12.3L26.3 12.2L26.5 11.75L26.55 11.6L26.85 11.2L27.25 10.9L27.75 10.7L27.85 10.7L28 10.7L28.3 10.8L28.8 11.05L30.55 12.3Q31.75 13.1 33.25 13.05L33.95 13.1L34.9 13.25L35.05 13.3L35.2 13.4L35.85 14.2L35.9 14.9L35.9 14.95L35.8 15.5M27,12.05L26.95 12.2L26.9 12.3Q26.65 12.9 27.65 13.7L28.5 14.3Q30.55 15.5 32.1 15.8L34.05 15.95L34.35 15.9L35.2 15.3L35.25 15.15L35.3 14.95L35.1 14.3Q34.9 13.9 34.3 13.8L34.15 13.8L33.7 13.8L31.45 13.5Q30.4 13.1 29.6 12.55L28.35 11.65L28.2 11.55L27.65 11.4Q27.3 11.45 27 12.05M30.3,17.45L31 17.7L32.85 17.85Q33.45 17.65 33.65 16.9L33.75 16.5L32.05 16.4Q30.75 16.15 29.65 15.6L28.3 14.8Q27.85 15.7 28.25 16.35Q28.4 16.65 28.9 16.9L29.8 17.3L30.25 17.45L30.3 17.45" />
<path style="fill:#7E52A1;fill-opacity:1" d="M27.65,11.4L28.2 11.55L28.35 11.65L29.6 12.55Q30.4 13.1 31.45 13.5L33.7 13.8L34.15 13.8L34.3 13.8Q34.9 13.9 35.1 14.3L35.3 14.95L35.25 15.15L35.2 15.3L34.35 15.9L34.05 15.95L32.1 15.8Q30.55 15.5 28.5 14.3L27.65 13.7Q26.65 12.9 26.9 12.3L26.95 12.2L27 12.05Q27.3 11.45 27.65 11.4M27.85,11.75Q27.7 11.7 27.45 12.15L27.2 12.65L27.45 12.95L27.55 13.1L27.85 13.4Q28.65 14 30 14.7Q30.85 15.2 31.95 15.45L31 14.8L30.55 14.3Q30.2 13.75 30.4 13.4L28.3 12.1L27.85 11.75M33.65,16.9Q33.45 17.65 32.85 17.85L31 17.7L30.3 17.45L30.25 17.45L30.25 16.9L30.5 16.6L30.75 16.55L31.15 16.55L31.3 16.55L32.55 16.8L33.65 16.9M33.8,14.9Q34.45 15.25 34.6 14.9L34.65 14.5L34.6 14.4L34.35 14.25L34.25 14.25L33.95 14.25L32.2 14.05L33.3 14.45Q33.75 14.6 33.8 14.9M32,17.3Q32.4 17.7 32.75 17.3L32.55 17.1Q32.1 16.95 32 17.3M7.4,24.15L7.8 23.9L8 23.9L8.35 23.9L9 23.9Q9.7 23.95 10.2 24.15L10.75 24.65L10.9 24.8L10.85 25.3L10.65 25.6L10.25 25.1L10 24.85Q9.7 24.55 9.4 24.4L8.75 24.15L9.05 24.45L9.1 24.75L9.1 24.85L9 24.95L8.4 24.5L7.95 24.4L7.6 24.35L7.35 24.35L7.15 24.35L7.4 24.15M6.15,27.6L6.25 27.55L6.4 27.5Q7.25 26.95 8.2 27L8.6 27.05L8.6 27.4L7.85 27.6L7.5 27.75L6.85 28L7.05 27.65L7.1 27.6Q7.4 27.3 6.5 27.8L5.75 28.25L5.5 28.45L6.15 27.6M7.8,29.6L8.15 29.05L8.6 28.6Q8.85 28.7 9.1 28.95L9.2 29L9.25 29.2L8.85 29.35L8.75 29.45L8.2 30.1L8.15 30.15L8 30.05L7.95 29.75L7.5 30.5L7.4 30.75L7.35 30.55L7.8 29.6M11.15,31.15L10.65 31.9L10.7 30.15L11.15 30.4L11.6 30.8L11.95 31.2L11.05 32.5Q11.3 31.9 11.15 31.15M15.15,31.6L14.65 30.65L14.25 30.2Q14.6 29.65 15 29.7Q15.6 30.55 15.15 31.6M16.95,28.9L16.85 28.9Q15.6 28.8 14.6 27.65L15.9 27.75L16.05 27.7L17.4 28.55L16.95 28.9M16.35,25.3L16.6 25.3L17.2 25.4L17.45 25.5L17.35 25.55L17.1 25.65Q16.65 25.85 16.35 26.1L16.1 26.35L15.95 26.05L15.9 25.9L15.9 25.45L16.35 25.3M16.15,23.1L16.2 23.55L16.05 23.7L15.35 24.4L15.1 24.7L14.15 25.15L14.05 24.9L14.05 24.7L14.05 24.5Q15.35 24.2 16.15 23.1M11.9,21.9L12.3 22.25L12.45 22.4L12.9 23.15L13.2 23.9L13.25 24.2L13.2 24.15L13.1 24.1L12.65 23.6L12.6 23.45L12.1 22.7L11.05 21.55L11.9 21.9M13.35,27.1L13.4 27.4L12.95 28.55L12.45 27.9L11.95 27.4Q11.7 27.2 11.45 27.1L12.35 26.9L13.3 27L13.35 27.1M12.1,25.1L12.3 25.05L12.65 25.75L12.95 26.05L12.6 26.15L12 26.05L11.9 25.6L12.1 25.1M18.45,38.1L18.05 37.9L17.65 37.75L17.2 37.7L16.85 37.35L16.5 36.85L16.7 36.75L17.05 36.65Q17.35 36.5 17.95 37.2L18.5 38.15L18.45 38.1M16.15,38.55L16.15 38.5L16.35 38.5L16.15 38.55M8.6,36.9L9 37.3L8.2 37.35L7.85 37.3L8.6 36.9M9.1,37.4L9.35 37.55L9 37.6L8.85 37.6L9 37.5L9.1 37.4M7.95,38.9L8.05 38.75Q8.15 38.35 8.4 38.15L8.55 38.15L9.45 37.95L9.95 38.15L10 38.15Q10.5 38.5 10.55 39L10.4 38.95L9.3 39L9.5 38.75L8.7 38.9L8.2 39.15L7.8 39.65L7.95 38.9M9.9,40.35L10.95 40.05L11.35 40L11.15 40.5L11.05 41.2L9.9 40.35M11.5,41.9L11.7 41.85L11.75 41.85Q11.8 42.7 12.25 42.6L12.45 42.55L12.35 43.05L11.85 43.8L11.45 44.3L11.3 44.5L10.95 44.9L10.65 45.35L10.3 44.75L11 43.4L10.95 43.3L10.8 43.4L10.7 43.4L10.65 43.35L10.7 43.3L11.1 42.95L11.45 42.2L11.5 41.9" />
<path style="fill:#512A70;fill-opacity:1" d="M28.3,12.1L30.4 13.4Q30.2 13.75 30.55 14.3L31 14.8L31.95 15.45Q30.85 15.2 30 14.7Q28.65 14 27.85 13.4L27.55 13.1L27.45 12.95L27.2 12.65L27.45 12.15Q27.7 11.7 27.85 11.75L28.3 12.1M32.55,16.8L31.3 16.55L31.15 16.55L30.75 16.55L30.5 16.6L30.25 16.9L30.25 17.45L29.8 17.3L28.9 16.9Q28.4 16.65 28.25 16.35Q27.85 15.7 28.3 14.8L29.65 15.6Q30.75 16.15 32.05 16.4L33.75 16.5L33.65 16.9L32.55 16.8M10.9,24.55L10.9 24.5L10.8 24L10.9 24.05L11.2 24.05L11.4 23.8L11.35 23.05L11.05 22L10.95 21.75L10.9 21.6L10.8 21.5L11 21.55L11.05 21.55L12.1 22.7L12.6 23.45L12.65 23.6L13.1 24.1L13.2 24.15L13.25 24.2L13.8 24.25L13.9 24.25L14.15 24.2L14.05 24.5L14.05 24.7L14.05 24.9L14.15 25.15L15.1 24.7L15.35 24.4L16.05 23.7L16.2 23.55L16.45 22.95L16.45 22.85L16.5 22.95Q16.8 23.45 16.7 24.05L16.7 24.4L15.85 25.15L15.8 25.2L15.8 25.3L15.8 25.35L15.9 25.45L15.9 25.9L15.95 26.05L16.1 26.35L16.35 26.1Q16.65 25.85 17.1 25.65L17.35 25.55L17.45 25.5L18 25.35Q17.85 25.4 17.75 25.55L17.65 25.65L17.25 26.2L16.8 27L16.75 27.05L16.2 26.85L15.95 26.7L15.95 26.8L15.95 26.85L16.1 27.35L16.2 27.5L16.3 27.6L16.25 27.65L16.05 27.7L15.9 27.75L14.6 27.65Q15.6 28.8 16.85 28.9L16.95 28.9L17.5 28.8L18.35 28.45L18.45 28.45L18.1 29L17.35 29.45L17.3 29.55L16.1 29.65L14.85 29.15L15.2 29.75L15 29.7Q14.6 29.65 14.25 30.2L14.65 30.65L15.15 31.6Q15.35 32.05 15.15 32.45L14.85 31.85L14.5 31.55Q14.25 31.35 14.1 31.3L13.8 31.2L13.45 31.25L13.3 31.45L13.2 31.4L13.25 31.45L13.05 31.7L12 32.5L10.7 33.05L10.5 33.1L10.2 33.15L10.7 32.8L11.05 32.5L11.95 31.2L11.6 30.8L11.15 30.4L10.7 30.15L10.55 30.05L10.45 30L10 29.8L9.9 30.15L9.1 30.3L8.7 30.45L8.6 30.55L8.25 30.8L8.05 31L7.7 31.4L7.4 30.8L7.4 30.75L7.5 30.5L7.95 29.75L8 30.05L8.15 30.15L8.2 30.1L8.75 29.45L8.85 29.35L9.25 29.2L9.2 29L9.1 28.95Q8.85 28.7 8.6 28.6L8.05 28.55L8.05 28.5L8.05 28.35L8 28.3L7.9 28.15L7.6 28.55L7.4 28.75L6 28.85L5.35 29.15L5.1 29.3L5.5 28.45L5.75 28.25L6.5 27.8Q7.4 27.3 7.1 27.6L7.05 27.65L6.85 28L7.5 27.75L7.85 27.6L8.6 27.4L8.6 27.05L8.45 26.65L8.45 26.5L8.5 26.5Q9 26.55 8.6 26.25L8.6 26.15L8.3 25.55L8 25.15L7.55 24.8L7.5 24.75Q7.25 24.55 7.05 24.5L7.15 24.35L7.35 24.35L7.6 24.35L7.95 24.4L8.4 24.5L9 24.95L9.1 24.85L9.1 24.75L9.05 24.45L8.75 24.15L9.4 24.4Q9.7 24.55 10 24.85L10.25 25.1L10.65 25.6L10.85 25.3L10.9 24.8L10.9 24.55M13.3,27L12.35 26.9L11.45 27.1L11.15 27.4L11.65 27.7L12.45 28.7L12.55 28.85L12.85 29.7L13.3 29L13.35 28.85L13.35 28.8Q13.65 27.95 13.4 27.25L13.35 27.1L13.3 27M11.9,25.6L12 26.05L12.6 26.15L12.95 26.05L12.65 25.75L12.3 25.05L12.1 25.1L11.9 25.6M17.75,38L17.2 38.2L17.05 38.25L17.05 38.3L16.85 38.35L16.35 38.5L16.15 38.5L16.15 38.55L15.7 38.5L15.4 38.45Q15.6 37.95 15.4 37.35L15.4 37.3L16.05 37.05L16.5 36.85L16.85 37.35L17.2 37.7L17.65 37.75L18.05 37.9L18.45 38.1L18.5 38.15L18.5 38.2L17.75 38M8.2,37.35L9 37.3L9.1 37.4L9 37.5L8.85 37.6L9 37.6L9.35 37.55L10.3 38.15L11.3 38.95Q11.35 40 12.2 40.2L12.25 40.25L12.05 40.45L11.8 40.8L11.5 41.35L11.05 41.2L11.15 40.5L11.35 40L10.95 40.05L9.9 40.35L9.8 40.1L9.7 39.85L10.1 39.75L10.5 39.7L10.5 39.55L10.4 39.45L10.3 39.45L9.65 39.45L8.95 39.6L8.4 39.8L7.8 40.05L7.8 39.65L8.2 39.15L8.7 38.9L9.5 38.75L9.3 39L10.4 38.95L10.55 39Q10.5 38.5 10 38.15L9.95 38.15L9.45 37.95L8.55 38.15L8.4 38.15L8.55 38.1L8.55 38.05L7.95 37.9L7.15 37.5L7.85 37.3L8.2 37.35M11.45,42.2L11.1 42.95L10.7 43.3L10.65 43.35L10.7 43.4L10.8 43.4L10.95 43.3L11 43.4L10.3 44.75L10.3 44.7L10.25 44.7L10 44.65L9.45 44.6L9.5 44.35Q9.45 43.7 8.7 43.75L10.05 41.7L10.2 41.9L10.5 42.15L10.9 42.1L11.4 41.95L11.5 41.9L11.45 42.2" />
<path style="fill:#F5F5F5;fill-opacity:1" d="M22.2,35.25L22.2 35.15L22.2 35.1L22.45 32.2L22.5 31.9L22.55 31.2L22.65 29.4L22.65 29.05Q22.2 29.1 22.65 28.65L22.65 28.55L22.7 27.8L22.7 27.5L22.7 27.1L22.65 26.55L22.65 26.3L22.6 26.1L22.65 25.5L22.45 25.15L23.3 24.3L23.6 22.3L24.55 21Q24.85 20.7 24.45 20.2Q24.15 19.7 23.5 19.35L23.4 19.55Q23.25 19.7 23.15 19.65Q22.2 19.25 22.95 19Q22.5 18.6 22.35 17.85L22.25 17.3L22.2 17.15L22.1 16.85L22.05 16.75L21.75 16.25L21.1 15.75L20.45 15.35L20.25 15.25L20.25 15.3L20 15.55Q19.1 15.55 19.65 15L19.6 15L19.5 14.95L19.45 14.95L19.4 14.9L18.6 14.6L17.3 14.3L17 14.25L16.8 14.15L16.4 13.95L16.45 13.95L16.85 13.95L16.95 13.95L18.65 14.3L19.5 14.5L19.65 14.55L20.55 14.9L20.95 15.1L22.2 15.8L22.65 16.3L22.85 16.6L22.9 16.7L23 17.15L23.1 18.15Q23.1 18.55 24.25 19.15Q25.35 19.7 25.3 20.5L24.75 21.65L24.2 22.15Q24.1 22.2 24.1 23.2L23.9 24.5L23.4 25.15Q23.05 25.45 23 25.9L23.05 27.35L23.1 28L23.1 28.5L23.15 28.75L23.15 29.1L23.1 30.95L23.1 31.05L23.1 31.45L23.05 31.75L23.05 32L22.75 35.15L22.45 35.2L22.35 35.25L22.2 35.25M22.55,22.5L22.4 22.75L22.2 22.85Q21.65 23.05 20.6 22.85Q19.5 22.55 18.95 22Q18.4 21.35 18.55 20.9L19.3 21.7Q20 22.4 21.6 22.5L22.55 22.5M22.2,23.4L22.6 23.9L22.5 24.05Q21.5 24 22.2 23.4" />
<path style="fill:#3F3629;fill-opacity:1" d="M21.6,22.5Q20 22.4 19.3 21.7L18.55 20.9L18.4 20.55L18.3 20L18.3 19.95L18.4 19.9Q18.4 19.45 19.55 19.5Q20.7 19.5 21.6 20.35Q22.5 21.15 22.8 21.85L23 22.25L22.55 22.5L21.6 22.5" />
<path style="fill:#A19986;fill-opacity:1" d="M29.4,20.85Q29.65 21.6 29.05 21.95L29.05 21.9Q28.9 21.25 29.35 20.85L29.4 20.85M14.7,34.7L15.2 34.4L15.5 34.55L15.9 34.65L16 34.7L16.5 35.2L16.5 35.8L16.3 36.2L16 36.15L15.9 36.15L15.95 36.1L16.1 35.65L16.05 35.25L15.5 35.6L15.75 35.25L14.7 34.7M28.95,32.9Q29.3 31.65 29.45 32.7Q29.7 33.75 29.2 33.95Q28.65 34.15 28.95 32.9" />
<path style="fill:#66461A;fill-opacity:1" d="M25,26.55L25 26L25 25.45L25 25.4Q25.05 24.9 25.45 24.55Q25.8 24.25 26.3 24.4L26.35 24.4L26.45 23.3Q26.6 23.1 27.25 22.8L27.45 22.65L27.9 22.5L28.7 22.4L29.4 22.5L29.75 22.6L30 22.7L30.1 22.7Q30.65 23 31 23.5Q31.5 24.3 31.35 24.9L31.2 25.95L31.15 26.2L31.15 26.35Q31 26.9 31.1 27.5Q31.2 28.15 30.9 28.7L30.15 29.6L29.45 29.8L29.15 29.85L28.75 29.9L28.2 29.9L27.35 29.7L27.15 29.65L26.55 29.05L26.45 28.9L26.4 28.8Q26.05 28.2 26.3 27.25L25.9 27.45L25.7 27.45L25.35 27.35L25.05 26.9L25 26.55M27,25.65L26.95 25.85L27.1 25.8L27.75 25.7L27.85 25.7L28.1 25.75L28.8 26L28.85 26L29.1 26.2L29 26.4L28.75 26.45L28.45 26.4L27.65 26.45L27 26.6L26.9 26.9L26.75 27.4L26.75 27.7L26.7 28.15L27.2 28.95L27.65 29.15L28.65 29.25L29.35 29.15L29.65 29.05Q30.6 28.5 30.45 28L30.45 26.75L30.45 26.4L30.6 25.5L30.65 24.95L30.7 24.85L30.75 24.75Q30.8 24.15 30 23.5L29.95 23.45L29.65 23.3L29.25 23.2L29.15 23.15L28.55 23.1L27.95 23.2Q27.55 23.3 27.25 23.5L27.05 23.65L27.05 24.55L27.1 24.9L27 25.65M25.6,26.9L26.2 26.8L26.25 26.6L26.3 26.6L26.3 26.45L26.35 26.2L26.4 25.95L26.4 25.85L26.4 25.75L26.3 25.15Q26.15 24.75 25.5 25.3L25.5 25.45L25.4 25.9L25.4 26.2L25.35 26.3Q25.3 26.85 25.6 26.9" />
<path style="fill:#DBBE91;fill-opacity:1" d="M27.4,23.65L27.4 23.75L27.45 23.8L27.5 23.9L27.9 23.9L28.25 23.85L29.15 23.85L29.6 23.95L29.95 24L30 24L29.95 23.85L29.7 23.7L29.6 23.65L29.2 23.5L28.85 23.4L28.45 23.4L27.95 23.5L27.4 23.6L27.4 23.65M26.75,27.4L26.9 26.9L27 26.6L27.65 26.45L28.45 26.4L28.75 26.45L29 26.4L29.1 26.2L28.85 26L28.8 25.95L27.8 25.15L27.2 24.95L27.1 24.9L27.05 24.55L27.05 23.65L27.25 23.5Q27.55 23.3 27.95 23.2L28.55 23.1L29.15 23.15L29.25 23.2L29.65 23.3L29.95 23.45L30 23.5Q30.8 24.15 30.75 24.75L30.7 24.85L30.65 24.95L30.4 25.25L30.15 25.65Q29.65 26.55 29.8 27.8L29.85 28L29.3 28.15L28.55 28.2L27.65 28L27.35 27.85L26.8 27.45L26.75 27.4M28.25,26.75L27.6 26.75Q27.3 26.8 27.1 27.05L27.1 27.1L27.5 27.2L28.4 26.95L28.4 26.9L28.35 26.8L28.25 26.75M26.3,25.9L25.85 26.3L25.8 26.3L25.35 26.3L25.4 26.2L25.4 25.9L25.5 25.45L25.5 25.3Q26.15 24.75 26.3 25.15L26.4 25.75L26.3 25.9" />
<path style="fill:#F3E0C4;fill-opacity:1" d="M27.4,23.6L27.95 23.5L28.45 23.4L28.85 23.4L29.2 23.5L29.6 23.65L29.7 23.7L29.95 23.85L30 24L29.95 24L29.6 23.95L29.15 23.85L28.25 23.85L27.9 23.9L27.5 23.9L27.45 23.8L27.4 23.75L27.4 23.65L27.4 23.6M28.35,26.8L28.4 26.9L28.4 26.95L27.5 27.2L27.1 27.1L27.1 27.05Q27.3 26.8 27.6 26.75L28.25 26.75L28.35 26.8" />
<path style="fill:#AF87CD;fill-opacity:1" d="M33.3,14.45L32.2 14.05L33.95 14.25L34.25 14.25L34.35 14.25L34.6 14.4L34.65 14.5L34.6 14.9Q34.45 15.25 33.8 14.9Q33.75 14.6 33.3 14.45M32.55,17.1L32.75 17.3Q32.4 17.7 32 17.3Q32.1 16.95 32.55 17.1M6.15,27.6L7.55 26.65L7.7 26.6L8.45 26.5L8.45 26.65L8.6 27.05L8.2 27Q7.25 26.95 6.4 27.5L6.25 27.55L6.15 27.6M7.35,30.55Q7.25 30 7.6 29.4L7.85 28.95L7.9 28.85L8.05 28.55L8.6 28.6L8.15 29.05L7.8 29.6L7.35 30.55M10,29.8L10.45 30L10.55 30.05L10.7 30.15L10.65 31.9L11.15 31.15Q11.3 31.9 11.05 32.5L10.7 32.8L10.2 33.15L9.95 33.2L10.4 32.3L10.5 31.5L10.3 30.45L10 29.8M15,29.7L15.2 29.75L15.25 29.75L15.25 29.8L15.35 29.85Q15.8 30.45 15.75 31.15Q15.7 31.9 15.15 32.45Q15.35 32.05 15.15 31.6Q15.6 30.55 15 29.7M17.4,28.55L16.05 27.7L16.25 27.65L16.3 27.6L16.5 27.8L17 28.1L17.4 28.2L18.1 28.4L18.35 28.45L17.5 28.8L16.95 28.9L17.4 28.55M16.35,25.3L16.6 25.25L17.25 25.15L17.8 25.25L18.1 25.3L18 25.35L17.45 25.5L17.2 25.4L16.6 25.3L16.35 25.3M14.05,24.5L14.15 24.2L14.3 24.1L15.55 23.25L15.85 22.85L16.15 22.5L16.15 22.45L16.2 22.5L16.35 22.7L16.45 22.85L16.45 22.95L16.2 23.55L16.15 23.1Q15.35 24.2 14.05 24.5M13.8,24.25L13.25 24.2L13.2 23.9L12.9 23.15L12.45 22.4L12.3 22.25L11.9 21.9L12.6 22.3L13.25 22.9L13.6 23.3L14.05 24L13.85 24.2L13.8 24.25M10.8,24L10.9 24.5L10.9 24.55L10.9 24.8L10.75 24.65L10.2 24.15Q9.7 23.95 9 23.9L8.35 23.9L8 23.9L7.8 23.9L8.05 23.8L8.5 23.65L8.55 23.65L10.25 23.75L10.65 23.95L10.8 24M11.95,27.4L12.45 27.9L12.95 28.55L13.4 27.4L13.35 27.1L13.4 27.25Q13.65 27.95 13.35 28.8L13.35 28.85L13.3 29L12.85 29.7L12.55 28.85L12.45 28.7L11.65 27.7L11.15 27.4L11.45 27.1Q11.7 27.2 11.95 27.4M20.15,42.5L20.1 42.45L20.2 42.4L20.15 42.5M19.85,44.75L19.85 44.8L19.8 44.75L19.85 44.75" />
<path style="fill:#AF38AD;fill-opacity:1" d="M10.35,8.9Q10.2 9.7 10.45 10.2L10.65 10.45L10.4 10.7L9.75 10.35L9.75 10.3Q9.9 9.45 10.35 8.8L10.4 8.75L10.35 8.9M13.5,14.45L12.55 12.75L12.4 12.55L12.35 12.3L12.35 11.65L12.75 11.95Q13.4 12.45 14.05 13.6Q13.95 12.5 13.4 12.05L14.65 12.25L14.85 12.35Q15.4 12.8 15.75 13.6L15.05 13.8L14.8 13.9L14.05 14.4L13.85 14.6L13.85 14.65L13.5 14.45M16.8,13.45L16.35 13.5L15.85 12.6L15.85 12.55L14.4 11.35Q14.4 10.2 15.25 9.35L15.3 9.3L15.25 9.4L15.2 9.8Q15.2 10.95 15.7 11.6Q16.2 12.35 17.3 12.6Q17.65 12.55 17.4 12.15L16.9 11.45L17.6 11.9L17.7 12Q18.85 12.7 19.25 13.8L16.8 13.45M11.6,11.55L11.55 11.35L11.6 11.45L11.6 11.55M8.8,14.75Q6.5 13.65 5.9 11.1L6 11.05L6.05 11L6.15 11.2Q6.45 11.95 7.05 12.55L8.3 13.5L8.9 13.7L8.8 14.75M9.3,12.6L9.25 12.6Q8.4 12.15 8.8 11.85L8.95 11.7Q9.35 11.75 9.55 11.95L9.6 12L9.55 12.05L9.4 12.3L9.3 12.6" />
<path style="fill:#561F4C;fill-opacity:1" d="M2.9,20.8Q2.25 20.8 1.5 21.45L0.7 22.5L0.6 22.75L0.6 22.9L0.55 23.1L0.5 23.5L0.5 23.55L0.05 24L0 23.3L0 23.1L0.05 22.75L0.1 22.5Q0.45 21.05 2.45 20.4L2.35 20.25L2.3 20.15L2.9 20.8M2.1,18L2.65 18.2L4.4 18.35L5.2 18L5.4 17.95L5.35 17.95L5.35 17.9L6.1 17.55L9.55 17.8L9.9 17.9L10.1 18.2Q10.85 19.05 12 19.2L12.45 19.8L13.1 20.8L12.9 20.8L12.75 20.75L12.45 20.7L11.05 20.9L10.65 20.85L10.2 20.95L10.05 21.15L10.1 21.4L9.8 21.6L9 22.3L8.85 22.5L8.7 22.75L8.5 23.05L8.25 23.1L7.8 23.3L7.9 23.1L8.15 22.75L8.3 22.5L8.45 22.3L8.45 22.2L8.5 22.15L8.55 22.1L9.1 21.5Q10.2 20.4 12.2 20.2L12.25 20.2L12.2 20.05L11.65 19.45L11.6 19.45L11.55 19.4L11 19L10.85 18.9L9.45 18.2L7.9 18L6.35 18.1L5.05 18.6L3.35 19.05L2.4 18.75L2.4 18.7Q2.1 18.35 2.1 18M10,11.3Q9.3 10.85 8.55 10.7Q7.25 10.45 6.05 11L6 11.05L5.9 11.1Q6.5 13.65 8.8 14.75L8.85 15.45L8.4 15.25L7.65 14.8L7.6 14.9L6.5 15.1L5.7 15.35L4.35 16.05L4.1 16.2L3.65 15.95L3.7 15.9L4.35 15.4Q4.95 14.9 6 14.6L7 14.4L7.1 14.35L7 14.25L6.25 13.35Q5.65 12.65 5.3 11.65Q4.9 10.65 5.85 10.4L5.9 10.4L7.65 9.95L8.4 9.95L9.05 10.15Q9.25 8.8 9.95 8L10.4 7.55Q10.9 7.15 11.4 7.05Q12.15 6.85 11.95 7.55Q11.8 8.25 11.95 9.3Q12.15 10.35 13.65 11Q13.8 9.2 15.2 8.5L15.2 8.45L15.85 8.2L16.1 8.55L16.35 9.15L16.95 10.55L18 11.45L18.15 11.55Q19.1 12.05 19.65 12.9Q19.95 13.35 19.85 14L19.25 13.8Q18.85 12.7 17.7 12L17.6 11.9L16.9 11.45L16.85 11.4Q15.75 10.45 15.65 9L15.3 9.3L15.25 9.35Q14.4 10.2 14.4 11.35L15.85 12.55L15.85 12.6L16.35 13.5L15.75 13.6Q15.4 12.8 14.85 12.35L14.65 12.25L14.55 12.15L12.55 11.05L12.35 10.95L12.35 10.8L12.1 9.95L11.5 9.9Q11.15 9.15 11.15 7.95Q10.7 8.3 10.4 8.75L10.35 8.8Q9.9 9.45 9.75 10.3L9.75 10.35L10.4 10.7L10 11.3M13.5,14.45L13.4 14.4L12.8 13.75L12.4 12.55L12.55 12.75L13.5 14.45" />
<path style="fill:#ECB1EB;fill-opacity:1" d="M11.35,9.95Q10.85 9.4 10.95 8.85L10.65 9.7L10.75 10.35L10.65 10.45L10.45 10.2Q10.2 9.7 10.35 8.9L10.4 8.75Q10.7 8.3 11.15 7.95Q11.15 9.15 11.5 9.9L11.35 9.95M15.7,11.6Q15.2 10.95 15.2 9.8L15.25 9.4L15.3 9.3L15.65 9Q15.75 10.45 16.85 11.4Q15.8 10.9 15.55 9.85L15.55 11.05L15.7 11.6M6.15,11.2L6.05 11Q7.25 10.45 8.55 10.7Q9.3 10.85 10 11.3L9.75 11.65Q8.1 10.95 6.65 11.15L6.75 11.75L6.8 12L7.05 12.55Q6.45 11.95 6.15 11.2" />
<path style="fill:#C669C0;fill-opacity:1" d="M13.4,12.05Q13.95 12.5 14.05 13.6Q13.4 12.45 12.75 11.95L12.35 11.65L12.35 10.95L12.55 11.05L14.55 12.15L14.65 12.25L13.4 12.05M17.4,12.15Q17.65 12.55 17.3 12.6Q16.2 12.35 15.7 11.6L15.55 11.05L15.55 9.85Q15.8 10.9 16.85 11.4L16.9 11.45L17.4 12.15M11.35,9.95L11.1 10.1L11.05 10.15L10.75 10.35L10.65 9.7L10.95 8.85Q10.85 9.4 11.35 9.95M9.6,12L9.55 11.95Q9.35 11.75 8.95 11.7L8.8 11.85Q8.4 12.15 9.25 12.6L9.3 12.6L8.9 13.7L8.3 13.5L7.05 12.55L6.8 12L6.75 11.75L6.65 11.15Q8.1 10.95 9.75 11.65L9.6 12" />
<path style="fill:#D993D8;fill-opacity:1" d="M8,15.3Q5.6 15.65 4.55 16.4L4.5 16.45L4.05 16.25L4.1 16.2L4.35 16.05L5.7 15.35L6.5 15.1L7.6 14.9L7.95 15.2L8.05 15.3L8 15.3M2.35,18.7L2.4 18.7L2.4 18.75L3.35 19.05L5.05 18.6L6.35 18.1L7.9 18L9.45 18.2L10.85 18.9L11 19L9.7 18.65Q7.6 18.25 6.3 18.65Q4.65 19.6 3.1 19.3L2.7 19.15L2.35 18.7M8.5,23.05L8.7 22.75L8.85 22.5L9 22.3L9.8 21.6L10.1 21.4L10.25 21.85L10.3 22L9.65 22.5L9.4 22.75L9.2 22.95L8.5 23.05M12.55,20.8L11.85 21.05L11.75 21.15L11.05 20.9L12.45 20.7L12.55 20.8M1.5,22.1L2.35 21.9L2.35 21.95Q1.8 22.1 1.5 22.5L1.45 22.5L1.15 22.75L0.85 23.1L0.85 23.15L0.5 23.5L0.55 23.1L0.6 22.9L0.6 22.75L0.7 22.5L1.5 21.45Q2.25 20.8 2.9 20.8L2.9 20.85L3 20.95Q1.9 21.35 1.5 22.1" />
<path style="fill:#B85EB2;fill-opacity:1" d="M4.5,16.45L4.55 16.4Q5.6 15.65 8 15.3L8.05 15.3L8.95 15.95L9.3 16.9L8.45 16.75L8.55 17L6.15 16.85L4.5 16.45M6.65,15.85Q5.8 16.35 7.2 16.4Q7.9 16.45 7.35 16.1L6.65 15.85M7.9,19Q8.95 19.05 9.65 19.65Q9.8 19.95 8.55 20.35L5.6 20.1Q5.4 20 5.65 20.3L6.15 20.7L4.65 20.55Q3.45 20.25 2.7 19.15L3.1 19.3Q4.65 19.6 6.3 18.65Q7.6 18.25 9.7 18.65L11 19L11.55 19.4Q10.2 18.65 7.9 19M1.5,22.5Q1.8 22.1 2.35 21.95L2.35 21.9L1.5 22.1Q1.9 21.35 3 20.95Q3.75 22.05 4.75 22.45L4.85 22.5L5.5 22.7L5.45 22.75L4 22.75L3.75 22.7L2.4 22.5L2.15 22.5Q2.35 22.25 2.65 22.15L1.75 22.35L1.5 22.5M5.8,19.45L6.4 19.55Q7 19.3 6.45 19Q5.3 18.85 5.8 19.45M3.45,27.3Q3.3 26.35 3.95 25.15L4.15 25.15L6.5 24.95L7 25.25L6.65 25.55Q6.1 26 6.05 26.5L5.85 26.5Q5.6 26.4 5.65 26.05Q5.7 25.8 5.4 26.1L4.85 26.9Q4.35 27.9 4.25 28.95Q3.65 28.25 3.45 27.3M10.35,22.1L9.8 22.5L9.55 22.75L9.5 22.8L9.55 22.9L9.95 22.85L10.3 22.75L10.55 22.65L10.7 23.25L9.2 22.95L9.4 22.75L9.65 22.5L10.3 22L10.35 22.1M11.85,21.05L12.55 20.8L12.75 21.5L12.8 21.65L12.55 21.5L11.75 21.15L11.85 21.05M4.7,26.05Q3.7 26.6 4.8 26.4Q5.1 26.35 4.85 26.1L4.7 26.05" />
<path style="fill:#9F2E9D;fill-opacity:1" d="M7.65,14.8L8.4 15.25L8.85 15.45L8.85 15.65L8.95 15.95L8.05 15.3L7.95 15.2L7.6 14.9L7.65 14.8M4.8,17.05L4.15 16.7L3.9 16.45L4.05 16.25L4.5 16.45L6.15 16.85L8.55 17L8.45 16.75L9.3 16.9L9.9 17.9L9.55 17.8L6.1 17.55Q5.5 17.5 4.8 17.05M7.35,16.1Q7.9 16.45 7.2 16.4Q5.8 16.35 6.65 15.85L7.35 16.1M2.7,19.15Q3.45 20.25 4.65 20.55L6.15 20.7L5.65 20.3Q5.4 20 5.6 20.1L8.55 20.35Q9.8 19.95 9.65 19.65Q8.95 19.05 7.9 19Q10.2 18.65 11.55 19.4L11.6 19.45L11.65 19.45L12.2 20.05L12.25 20.2L12.2 20.2Q10.2 20.4 9.1 21.5L9 21.55L8.75 21.6L6.8 21.8Q5.5 21.9 4.55 21.35L3.4 20.6L3.1 20.3L2.45 19.3L2.35 19.05L2.35 18.7L2.7 19.15M0.5,23.5L0.85 23.15L0.85 23.1L1.15 22.75L1.45 22.5L1.5 22.5L1.75 22.35L2.65 22.15Q2.35 22.25 2.15 22.5L2.4 22.5L3.75 22.7L4 22.75L5.45 22.75L5.5 22.7L4.85 22.5L4.75 22.45Q3.75 22.05 3 20.95L2.9 20.85L2.9 20.8L3 20.9Q5.45 23.05 8.55 22.1L8.5 22.15L8.45 22.2L8.45 22.3L8.3 22.4L8.25 22.5L8 22.75L8 22.8L7.5 23.1Q6 24 4.25 23.6L1.45 23.75L0.75 24.45L0.5 23.55L0.5 23.5M12.45,20.7L12.75 20.75L12.9 20.8L13.1 20.8L13.3 21.5L13.4 22L12.8 21.65L12.75 21.5L12.55 20.8L12.45 20.7M6.45,19Q7 19.3 6.4 19.55L5.8 19.45Q5.3 18.85 6.45 19M4.25,28.95Q4.35 27.9 4.85 26.9L5.4 26.1Q5.7 25.8 5.65 26.05Q5.6 26.4 5.85 26.5L6.05 26.5Q6.1 26 6.65 25.55L7 25.25L6.5 24.95L4.15 25.15L3.95 25.15L4.5 24.2L6.85 24L6.7 24.2Q6.5 24.55 6.7 24.95Q7.7 25.2 7.9 26Q6.6 26.25 5.95 26.9Q5.35 27.55 5.05 28.2L4.75 29.2L4.25 28.95M10.55,22.65L10.3 22.75L9.95 22.85L9.55 22.9L9.5 22.8L9.55 22.75L9.8 22.5L10.35 22.1L10.55 22.65M4.85,26.1Q5.1 26.35 4.8 26.4Q3.7 26.6 4.7 26.05L4.85 26.1" />
<path style="fill:#431337;fill-opacity:1" d="M4.25,28.95L4.75 29.2L4.7 29.6L4.7 29.8L4.55 29.75L3.65 29L3.1 28.1L2.9 27.05L3.05 25.95L3.4 25L3.85 24.15L2 24Q1.3 24.3 0.85 25.1Q0.6 25.45 0.35 24.9L0.1 24.15L0.05 24L0.5 23.55L0.75 24.45L1.45 23.75L4.25 23.6Q6 24 7.5 23.1L8 22.8L8 22.75L8.25 22.5L8.3 22.4L8.45 22.3L8.3 22.5L8.15 22.75L7.9 23.1L7.8 23.3L6.85 24L4.5 24.2L3.95 25.15Q3.3 26.35 3.45 27.3Q3.65 28.25 4.25 28.95M2.3,20.15L1.95 19.5L1.8 18.75L1.8 18.4Q1.85 17.95 2.1 18Q2.1 18.35 2.4 18.7L2.35 18.7L2.35 19.05L2.45 19.3L3.1 20.3L3.4 20.6L4.55 21.35Q5.5 21.9 6.8 21.8L8.75 21.6L9 21.55L9.1 21.5L8.55 22.1Q5.45 23.05 3 20.9L2.9 20.8L2.3 20.15M4.1,16.2L4.05 16.25L3.9 16.45L4.15 16.7L4.8 17.05Q5.5 17.5 6.1 17.55L5.35 17.9L5.35 17.95Q4.75 17.7 4.1 17.3L3.4 16.8L3.35 16.55L3.55 16.1L3.65 15.95L4.1 16.2" />
<path style="fill:#431D51;fill-opacity:1" d="M8.85,31.05L8.7 31.15L8.55 31.3L8.4 31.4L8.2 31.65L7.8 32.1Q7.45 32.3 7.05 31.4Q6.6 30.5 6.95 29.45L5.9 29.55L5.8 29.6Q5.7 30 5.1 29.9L4.95 30Q4.7 30.2 4.7 29.8L4.7 29.6L4.75 29.2L5.05 28.2Q5.35 27.55 5.95 26.9Q6.6 26.25 7.9 26Q7.7 25.2 6.7 24.95Q6.5 24.55 6.7 24.2L6.85 24L7.8 23.3L8.25 23.1L8.5 23.05L9.2 22.95L10.7 23.25L10.55 22.65L10.35 22.1L10.3 22L10.25 21.85L10.1 21.4L10.05 21.15L10.2 20.95L10.65 20.85L11.05 20.9L11.75 21.15L12.55 21.5L12.8 21.65L13.4 22L14.5 23.3L14.75 23.1L15.15 22.75L15.55 22.2L15.6 22.05Q15.85 21.55 16.35 21.85L16.5 21.95L17 22.55L17.2 22.95Q17.5 23.7 17.3 24.35L17.4 24.4L17.95 24.5L18 24.5L18.2 24.55Q18.8 24.7 18.95 24.95L19 25.15L18.85 25.4L18.8 25.5L18.15 26.05L17.55 26.9L17.45 27L17.2 27.45L17.8 27.6L18.5 27.75L18.7 27.8Q19.25 27.9 19.15 28.4L19 28.8L18.5 29.45L18.05 29.9L18 29.9L17.65 30.05L17.6 30.1L16.3 30.3L16.4 30.75L16.4 31.05Q16.4 31.85 15.7 32.75L15.55 32.95Q15 33.5 14.75 32.75Q14.55 32.05 13.9 31.9L13.7 31.85L13.1 32.55L12.7 32.85L11.7 33.35L9.75 33.6L9.65 33.55Q9.05 33.35 9.5 32.8Q9.95 32.2 9.9 31.5L9.9 31.25Q9.8 30.75 9.5 30.85L8.95 31.05L8.85 31.05M7.9,28.85L7.85 28.95L7.6 29.4Q7.25 30 7.35 30.55L7.4 30.75L7.4 30.8L7.7 31.4L8.05 31L8.25 30.8L8.6 30.55L8.7 30.45L9.1 30.3L9.9 30.15L10 29.8L10.3 30.45L10.5 31.5L10.4 32.3L9.95 33.2L10.2 33.15L10.5 33.1L10.7 33.05L12 32.5L13.05 31.7L13.25 31.45L13.2 31.4L13.3 31.45L13.45 31.25L13.8 31.2L14.1 31.3Q14.25 31.35 14.5 31.55L14.85 31.85L15.15 32.45Q15.7 31.9 15.75 31.15Q15.8 30.45 15.35 29.85L15.25 29.8L15.25 29.75L15.2 29.75L14.85 29.15L16.1 29.65L17.3 29.55L17.35 29.45L18.1 29L18.45 28.45L18.35 28.45L18.1 28.4L17.4 28.2L17 28.1L16.5 27.8L16.3 27.6L16.2 27.5L16.1 27.35L15.95 26.85L15.95 26.8L15.95 26.7L16.2 26.85L16.75 27.05L16.8 27L17.25 26.2L17.65 25.65L17.75 25.55Q17.85 25.4 18 25.35L18.1 25.3L17.8 25.25L17.25 25.15L16.6 25.25L16.35 25.3L15.9 25.45L15.8 25.35L15.8 25.3L15.8 25.2L15.85 25.15L16.7 24.4L16.7 24.05Q16.8 23.45 16.5 22.95L16.45 22.85L16.35 22.7L16.2 22.5L16.15 22.45L16.15 22.5L15.85 22.85L15.55 23.25L14.3 24.1L14.15 24.2L13.9 24.25L13.8 24.25L13.85 24.2L14.05 24L13.6 23.3L13.25 22.9L12.6 22.3L11.9 21.9L11.05 21.55L11 21.55L10.8 21.5L10.9 21.6L10.95 21.75L11.05 22L11.35 23.05L11.4 23.8L11.2 24.05L10.9 24.05L10.8 24L10.65 23.95L10.25 23.75L8.55 23.65L8.5 23.65L8.05 23.8L7.8 23.9L7.4 24.15L7.15 24.35L7.05 24.5Q7.25 24.55 7.5 24.75L7.55 24.8L8 25.15L8.3 25.55L8.6 26.15L8.6 26.25Q9 26.55 8.5 26.5L8.45 26.5L7.7 26.6L7.55 26.65L6.15 27.6L5.5 28.45L5.1 29.3L5.35 29.15L6 28.85L7.4 28.75L7.6 28.55L7.9 28.15L8 28.3L8.05 28.35L8.05 28.5L8.05 28.55L7.9 28.85" />
<path style="fill:#C264CD;fill-opacity:1" d="M14.4,15L14.35 15Q14.8 14.5 15.5 14.25L15.7 14.15L15.75 14.15L15.85 14.1L15.95 14.1L16.35 13.95L16.4 13.95L16.8 14.15L17 14.25L16.85 14.3L16.45 14.45L16.3 14.5Q15.95 14.6 15.7 14.75L15.45 14.9L15.4 14.95L15.35 15L15.25 15.1L15 15.5L14.4 15" />
<path style="fill:#AB41D2;fill-opacity:1" d="M15,15.5L15.25 15.1L15.35 15L15.4 14.95L15.45 14.9L15.7 14.75Q15.95 14.6 16.3 14.5L16.45 14.45L16.85 14.3L17 14.25L18.85 15.9L19.15 16.25Q20 17.4 20.1 18.45L17.3 16.8L15.7 16.05L15.15 15.8L15 15.5M18.95,24.95Q18.8 24.7 18.2 24.55L18 24.5L19.4 23.8L19 25.15L18.95 24.95M17.55,26.9L18.15 26.05L18.8 25.5L18.6 25.8L18 26.55L17.6 26.9L17.55 26.9M17.35,40.5Q17.75 40.85 17.1 40.95Q16.45 41 16.35 40.55L16.35 40.5Q16.4 40.2 16.95 40.35L17.3 40.45L17.35 40.5M16.25,41.4L16.25 41.45Q16.55 42.05 16.3 42.4Q16.05 42.7 15.4 41.9L15.2 41.6Q14.9 41 15.45 40.8L15.8 40.95L16.25 41.4M14.7,41.9L14.75 41.9L15.1 42.35L15 43Q14.85 43.2 14.6 42.85Q14.35 42.5 14.7 41.95L14.7 41.9" />
<path style="fill:#41412C;fill-opacity:1" d="M22.35,35.25L23 35.5L23.2 35.5L22.85 35.75L22.15 35.85L21.65 35.8L20.3 35.25L19.8 34.6L19.8 33.9L19.9 31.55L19.9 31.5L19.95 30.75L19.95 30.3L19.9 29.35L19.75 28.4L19.15 28.4Q19.25 27.9 18.7 27.8L18.5 27.75L18.6 27.75L19.7 27.8L19.7 27.25L19.7 27.15L19.75 27L19.8 26.65L19.85 26.5L20 26.1L20 26.2L20.15 26.8L20.3 27.85L20.3 27.95L20.4 28.65L20.5 29.6L20.5 29.95L20.5 31.45L20.45 31.85L20.45 32L20.45 34.6Q21.25 35.35 22.2 35.25L22.35 35.25M14.65,18.35L15.1 18.75L15.15 18.8L15.3 18.9L15.45 19L15.15 19L14.55 18.85L14.3 18.7L14.65 18.35M22.3,26.3Q22.25 25.45 21.4 25.25L21.2 25.25Q20.65 25.1 21.15 24.95L21.2 24.95L22.15 25L22.45 25.15L22.65 25.5L22.6 26.1L22.45 26.35Q22.3 26.6 22.3 26.35L22.3 26.3M14.75,23.1L14.5 23.3L13.4 22L13.3 21.5L13.1 20.8L12.45 19.8L12 19.2L12.4 19.2L12.7 19.2L13.2 19.85L13.55 20.5L13.8 21.1L13.95 22L14.05 22.25Q14.05 22.55 14.2 22.7L14.45 22.85L15.15 22.75L14.75 23.1M17.05,22.55L17.25 22.7Q17.65 23.1 17.5 23.7L17.4 24.4L17.3 24.35Q17.5 23.7 17.2 22.95L17 22.55L17.05 22.55" />
<path style="fill:#8E27B4;fill-opacity:1" d="M17.55,26.9L17.6 26.9L17.45 27L17.55 26.9" />
<path style="fill:#C4944D;fill-opacity:1" d="M26.8,27.45L27.35 27.85L27.65 28L28.55 28.2L29.3 28.15L29.85 28L29.8 27.8Q29.65 26.55 30.15 25.65L30.4 25.25L30.65 24.95L30.6 25.5L30.45 26.4L30.45 26.75L30.45 28Q30.6 28.5 29.65 29.05L29.35 29.15L28.65 29.25L27.65 29.15L27.2 28.95L26.7 28.15L26.75 27.7L26.75 27.4L26.8 27.45M28.85,26L28.8 26L28.1 25.75L27.85 25.7L27.75 25.7L27.1 25.8L26.95 25.85L27 25.65L27.1 24.9L27.2 24.95L27.8 25.15L28.8 25.95L28.85 26M19.8,30.55L19.85 30.4L19.95 30.3L19.95 30.75L18.5 29.45L19 28.8L19.15 28.4L19.75 28.4L19.9 29.35Q19.7 29.95 19.8 30.55M17.7,30.6L16.4 30.75L16.3 30.3L17.6 30.1L17.7 30.6M9.55,35L9.5 35Q9.35 35.1 9.7 35.75L9.75 35.9L9.9 36.25L10.05 36.55L10.55 37.1L11.35 37.75L11.7 38L11.4 38.5L9.35 36.9L9.05 36.55L8.85 36.1L8.75 35.25L8.8 35.2L8.75 35.2L9.3 35.05L9.4 34.2L9.65 33.55L9.75 33.6L11.7 33.35L12.7 32.85L12.65 33L11.95 34.05L11.7 34.5L11.4 34.45L10.75 34.05L10.65 34.2L10.2 35L10.1 35.05L9.55 35M16.55,33.55L15.45 33.85Q14.95 33.75 14.9 33.45L14.85 33.8L14.3 33.55L13.35 33.1L13.4 32.95L13.9 31.9Q14.55 32.05 14.75 32.75Q15 33.5 15.55 32.95L15.6 33.15Q15.95 33.45 16.45 33.55L16.55 33.55M14.3,36.6L13.4 36.7L12.75 35.9L14.3 36.6M9.3,32.55L8.85 33.6Q8.8 32.75 8.9 32L9.3 32.55M9.65,40.8L9.9 41.05L9.85 41.15L9.65 40.8M8.9,44.35Q8.95 45.2 9.35 45.1L9.9 45.05L9.95 45.2L9.95 45.4L10.4 46.05L10.75 46.2L10.4 46.2L9 46.15L8.1 45.95Q7.95 45.8 7.95 45.15Q7.95 44.5 8.65 44.35L8.9 44.35M10.8,46.2L10.85 46.1L10.95 45.7L11.3 45.2L11.35 45.2L11.95 46L10.85 46.2L10.8 46.2M19.7,40.85L19.75 40.9L19.85 41L19.9 41.15L20.25 41.4L19.35 41.45L19.25 41.4L18.85 41.2L18.65 40.9L18.6 40.8L18.55 40.75L18.5 40.45L18.4 40.9Q18.15 40.6 18.25 40.3L18.3 40.1L18.55 40L18.8 40.15L19.3 40.6L19.7 40.85M12.75,40.2L13.25 39.4L13.5 40.2L13.5 40.25L13.65 41.5L13.65 41.9Q13.75 42.85 15.2 44.25Q16.1 45.1 16.75 45.05Q17.1 45.05 17.35 44.7L17.45 44.8L17.6 44.95L17.45 45.5L17.15 45.65L16.65 45.6L15.3 45.1Q14.1 44.3 13.45 43.15L13.15 42.45L13.05 42.15L12.9 41.2L12.8 40.4L12.75 40.2M18.75,43.75L19.45 43.7L19.6 43.25L19.65 43.85Q19.6 44.15 19.05 44.3L18.35 44.4L17.8 44.2L17.5 44L16.95 43.75L16.6 43.55L16.75 43.8L16.9 44.15L16.5 43.55L16.45 43.4L16.3 43.05L16.5 43.05L16.75 43L16.95 43.15L17.65 43.5L18.05 43.6L18.5 43.7L18.6 43.7L18.75 43.75M20.95,44.7L20.35 44.8L20.4 44.45L20.45 44.45L20.95 44.7M19.25,45.25L18.95 45.25L18.65 45.1L18.6 45.4Q18.6 45.75 20.05 46.15L20.3 46.2L18.65 46.15L17.8 46L18.25 45.3L18.3 45.25L18.65 45.05L18.95 45L19 45.05L19.25 45.25M26.25,26.6L26.2 26.8L25.6 26.9Q25.3 26.85 25.35 26.3L25.8 26.3L25.85 26.3L26.3 25.9L26.4 25.75L26.4 25.85L26.4 25.95L26.35 26.2L26.3 26.45L26.25 26.6M26.3,28.85Q25.85 28.3 25.7 27.55L25.7 27.45L25.9 27.45L26.3 27.25Q26.05 28.2 26.4 28.8L26.3 28.85M23.9,29.25L24.15 29.75L24.4 30.15L24.3 30.2L23.9 30.55L23.9 29.25" />
<path style="fill:#543914;fill-opacity:1" d="M23.9,30.55L24.3 30.2L24.4 30.15L24.9 30.65L24.55 30.9L23.85 31.4L23.9 30.55M18.5,29.45L19.95 30.75L19.9 31.5L19.9 31.55L18.3 30.15L18.05 29.9L18.5 29.45M17.7,30.6L17.6 30.1L17.65 30.05L18 29.9L18.15 30.5L18 32.15Q17.75 33.15 17.15 33.7L16.35 34.4L15.75 34.1L14.85 33.8L14.9 33.45Q14.95 33.75 15.45 33.85L16.55 33.55Q17.05 33.15 17.4 32.25Q17.75 31.3 17.7 30.6M21.1,41.4L21.2 41.7Q21.25 42.05 20.8 42.2L20.6 42.25L20.25 42.35L20.2 42.35L19.85 42.3Q19.25 42.2 18.75 41.75L18.55 41.55L18.4 41L18.4 40.9L18.5 40.45L18.55 40.75L18.6 40.8L18.65 40.9L18.85 41.2L19.25 41.4L19.35 41.45L20.25 41.4L19.9 41.15L21.1 41.4M20.95,44.7L20.45 44.45L20.4 44.45L20.4 44.2L20.55 43.7L21.2 44.05L21.85 44.55L20.95 44.7M22.4,46.55L21.7 46.75L19 46.9L16.95 46.55L16.7 46.2L15 45.7L13.6 44.4L12.85 43.25L12.6 42.7L12.5 42.15L12.35 42.05L12.2 41.6L12.15 41.55L12.1 41.4L12.1 41.35L12.4 40.95L12.25 40.25L12.2 40.2L12.75 40.2L12.8 40.4L12.9 41.2L13.05 42.15L13.15 42.45L13.45 43.15Q14.1 44.3 15.3 45.1L16.65 45.6L17.15 45.65L17.45 45.5L17.6 44.95L17.45 44.8L17.35 44.7L16.95 44.2L16.9 44.15L16.75 43.8L16.6 43.55L16.95 43.75L17.5 44L17.8 44.2L18.35 44.4L19.05 44.3Q19.6 44.15 19.65 43.85L19.6 43.25L19.6 43.1L19.8 43.1L20.05 43L20.25 42.85L20.25 43.95L19.85 44.75L19.8 44.75L19.5 44.85L19.4 44.9L18.95 45L18.65 45.05L18.3 45.1L18.25 45.3L17.8 46L18.65 46.15L20.3 46.2L22.4 46.55M10.85,46.2L11.95 46L11.35 45.2L11.7 44.8L12.35 45.65Q12.6 46.2 12.2 46.5L11.6 46.7L9.3 46.8L7.55 46.5Q7.1 46.25 7.45 44.9Q7.55 44.35 7.95 44.05L8.1 44.15L8.9 44.3L8.9 44.35L8.65 44.35Q7.95 44.5 7.95 45.15Q7.95 45.8 8.1 45.95L9 46.15L10.4 46.2L10.75 46.2L10.8 46.2L10.85 46.2M9.2,40L9.5 40.6L9.55 40.7L9.65 40.8L9.85 41.15L9.55 41.7L8.65 40.25L9.2 40M11.3,38.9L11.3 38.95L10.3 38.15L9.35 37.55L9.1 37.4L9 37.3L8.6 36.9L8.45 36.4L8.4 36.25L8.5 35.45L8.55 35.4L8.4 34.4L8.35 31.75L8.4 31.4L8.55 31.3L8.85 31.9L8.9 32Q8.8 32.75 8.85 33.6L9.3 32.55L9.5 32.1L9.55 31.95L9.9 31.25L9.9 31.5Q9.95 32.2 9.5 32.8Q9.05 33.35 9.65 33.55L9.4 34.2L9.3 35.05L8.75 35.2L8.8 35.2L8.75 35.25L8.85 36.1L9.05 36.55L9.35 36.9L11.4 38.5L11.3 38.9M19.9,29.35L19.95 30.3L19.85 30.4L19.8 30.55Q19.7 29.95 19.9 29.35M13.4,32.95L13.35 33.1L13.15 33.4L12.5 34.55L11.7 34.5L11.95 34.05L12.65 33L12.7 32.85L13.1 32.55L13.7 31.85L13.9 31.9L13.4 32.95M26.3,26.45L26.3 26.6L26.25 26.6L26.3 26.45M26.55,29.15L26.3 28.85L26.4 28.8L26.45 28.9L26.55 29.05L26.55 29.15" />
<path style="fill:#E9CB9E;fill-opacity:1" d="M17.4,32.25Q17.05 33.15 16.55 33.55L16.45 33.55Q15.95 33.45 15.6 33.15L15.55 32.95L15.7 32.75Q16.4 31.85 16.4 31.05L16.4 30.75L17.7 30.6Q17.75 31.3 17.4 32.25M11.7,34.5L11.65 34.65L11.4 34.95L11.35 35.05L10.75 34.95L10.2 35L10.65 34.2L10.75 34.05L11.4 34.45L11.7 34.5M11.7,38L11.35 37.75L10.55 37.1L10.05 36.55L9.9 36.25L9.75 35.9L9.7 35.75Q9.35 35.1 9.5 35L9.55 35L10.1 35.05L10.15 35.1L10.75 35.3L11 35.4L11.65 35.75L12.2 36.35L12.7 37L12.75 37.05L12.4 37.25L12.35 37.3L11.7 38M18.4,41Q17.9 41.95 18.85 42.9L18.85 43.4L18.6 43.7L18.5 43.7L18.05 43.6L17.65 43.5L16.95 43.15L16.75 43L16.5 43.05L16.3 43.05L16.45 43.4L16.5 43.55L16.9 44.15L16.95 44.2L17.35 44.7Q17.1 45.05 16.75 45.05Q16.1 45.1 15.2 44.25Q13.75 42.85 13.65 41.9L13.65 41.5L13.5 40.25L13.5 40.2L13.25 39.4L13.8 38.95L14.4 38.7L14.45 38.75Q14.95 39.25 15.75 39.3L15.95 39.3L16.3 39.25L16.95 39.1L17 39.05L17.4 39.1L17.85 39.25L18.5 39.6L18.8 39.85L19.3 40.6L18.8 40.15L18.55 40L18.3 40.1L18.25 40.3Q18.15 40.6 18.4 40.9L18.4 41M17.3,40.45L16.95 40.35Q16.4 40.2 16.35 40.5L16.35 40.55Q16.45 41 17.1 40.95Q17.75 40.85 17.35 40.5L17.3 40.45M15.8,40.95L15.45 40.8Q14.9 41 15.2 41.6L15.4 41.9Q16.05 42.7 16.3 42.4Q16.55 42.05 16.25 41.45L16.25 41.4L15.8 40.95M12.2,41.6L12.35 42.05L12.2 41.8L12.2 41.6M14.7,41.95Q14.35 42.5 14.6 42.85Q14.85 43.2 15 43L15.1 42.35L14.75 41.9L14.7 41.9L14.7 41.95M20,45.55L20.4 45.55L20.45 45.35L20.35 44.9L20.35 44.8L20.95 44.7Q21.85 45.2 22.1 45.95L20.8 46.2L20.3 46.2L20.05 46.15Q18.6 45.75 18.6 45.4L18.65 45.1L18.95 45.25L19.25 45.25L20 45.55" />
<path style="fill:#12120D;fill-opacity:1" d="M15.3,34.4L15.2 34.4L13.15 33.4L13.35 33.1L14.3 33.55L14.85 33.8L15.75 34.1L15.3 34.4M12.75,35.9L12.5 35.6L12 35.3L12.2 35.05L12.5 35.3Q13.9 36.3 15 36.45L15.35 36.5L15.45 36.5L15.6 36.5L15.9 36.5L16.2 36.35L16.3 36.2L16.65 36.2L16.8 36.15L16.25 36.75L15 36.8L14.95 36.8L14.9 36.8L14.3 36.6L12.75 35.9M9.3,32.55L8.9 32L8.85 31.9L8.9 31.15L9 31.35L9.5 32.1L9.3 32.55" />
<path style="fill:#876430;fill-opacity:1" d="M19.9,41.15L19.85 41L19.75 40.9L19.7 40.85Q19.5 40.55 19.45 40.25L19.35 39.6L19.1 39.35L18.35 38.85L17.55 38.8L17.4 38.85L17 39.05L16.95 39.1L16.3 39.25L15.95 39.3L15.75 39.3Q14.95 39.25 14.45 38.75L14.4 38.7Q14.95 38.4 15.4 38.45L15.7 38.5L16.15 38.55L16.35 38.5L16.85 38.35L17.05 38.3L17.2 38.2L17.75 38L18.5 38.2L19 38.4L19.15 38.5L20 39.35L20.15 39.85L20.3 40.2L20.3 40.25L20.8 40.95L21.1 41.4L19.9 41.15M21.85,44.55L22.6 45.55Q22.85 46.2 22.4 46.55L20.3 46.2L20.8 46.2L22.1 45.95Q21.85 45.2 20.95 44.7L21.85 44.55M12.2,35.05L12 35.3L12.5 35.6L12.75 35.9L13.4 36.7Q13.1 36.8 12.75 37.05L12.7 37L12.2 36.35L11.65 35.75L11 35.4L10.75 35.3L10.15 35.1L10.1 35.05L10.2 35L10.75 34.95L11.35 35.05L11.4 34.95L11.65 34.65L11.7 34.5L12.5 34.55L12.2 35.05M20.2,42.4L20.1 42.45L20.15 42.5L20.25 42.85L20.05 43L19.8 43.1L19.6 43.1L19.6 43.25L19.55 43.1L19.55 42.95L18.8 41.95L18.55 41.55L18.75 41.75Q19.25 42.2 19.85 42.3L20.2 42.35L20.25 42.35L20.2 42.4" />
<path style="fill:#3A2F27;fill-opacity:1" d="M23.85,26.2Q24.25 25.65 25 25.45L25 26Q24.75 26.1 24.45 26.35L24.1 26.95L24 27.65L24.05 28L24.15 28.35L24.15 28.45L24.55 29.4L24.85 29.85L25.15 30.15L25.35 30.3L25.9 30.25Q26.3 30.05 26.25 29.65L25.8 29.15L25.3 28.25L25.05 27.15L25.05 26.9L25.35 27.35L25.7 27.45L25.7 27.55Q25.85 28.3 26.3 28.85L26.55 29.15L26.5 30.05L26.55 30.55L26.35 30.65L25.15 30.75L24.9 30.65L24.4 30.15L24.15 29.75L23.9 29.25L23.85 26.2M15.4,37.3L15.4 37.35Q15.6 37.95 15.4 38.45Q14.95 38.4 14.4 38.7L13.8 38.95L13.25 39.4L12.75 40.2L12.2 40.2Q11.35 40 11.3 38.95L11.3 38.9L11.4 38.5L11.7 38L12.35 37.3L12.4 37.25L12.75 37.05Q13.1 36.8 13.4 36.7L14.3 36.6L14.9 36.8L14.95 36.8L15.4 37.3M12.25,38.35Q11.95 38.75 12 39L12.35 39.45L12.45 39.5L12.9 38.9L13.1 38.65Q13.4 38.35 13.75 38.15L14.5 37.85L14.8 37.8L14.65 37.4Q14.55 37.25 14.35 37.2L13.85 37.25L13.35 37.4L13.15 37.55L12.55 38L12.25 38.35" />
<path style="fill:#2E103A;fill-opacity:1" d="M14.95,36.8L15 36.8L16.25 36.75L16.8 36.15L17.3 36.15L18.55 37.15Q19.05 37.75 19.15 38.5L19 38.4L18.5 38.2L18.5 38.15L17.95 37.2Q17.35 36.5 17.05 36.65L16.7 36.75L16.5 36.85L16.05 37.05L15.4 37.3L14.95 36.8M11.05,41.2L11.5 41.35L11.8 40.8L12.05 40.45L12.25 40.25L12.4 40.95L12.1 41.35L12.1 41.4L11.85 41.7L11.45 41.85L11.1 41.75L10.05 41.15L9.9 41.05L9.65 40.8L9.55 40.7L9.5 40.6L9.2 40L8.65 40.25L8.05 40.5Q7.45 40.9 7.3 40.3Q7.15 39.7 7.65 38.3L6.6 37.7Q6.1 37.3 6.9 37.15L7.25 37.05L8.3 36.5L8.45 36.4L8.6 36.9L7.85 37.3L7.15 37.5L7.95 37.9L8.55 38.05L8.55 38.1L8.4 38.15Q8.15 38.35 8.05 38.75L7.95 38.9L7.8 39.65L7.8 40.05L8.4 39.8L8.95 39.6L9.65 39.45L10.3 39.45L10.4 39.45L10.5 39.55L10.5 39.7L10.1 39.75L9.7 39.85L9.8 40.1L9.9 40.35L11.05 41.2M17.05,38.3L17.05 38.25L17.2 38.2L17.05 38.3" />
<path style="fill:#2D1038;fill-opacity:1" d="M12.2,41.8L12.35 42.05L12.5 42.15L12.6 42.7L12.85 43.25L12.65 43.45L11.7 44.8L11.35 45.2L11.3 45.2L10.95 45.7L10.85 46.1L10.8 46.2L10.75 46.2L10.4 46.05L9.95 45.4L9.95 45.2L9.9 45.05L9.35 45.1Q8.95 45.2 8.9 44.35L8.9 44.3L8.1 44.15L7.95 44.05L7.95 43.8L8.55 43.05L9.55 41.7L9.85 41.15L9.9 41.05L10.05 41.15L11.1 41.75L11.45 41.85L11.85 41.7L12.1 41.4L12.15 41.55L12.2 41.6L12.2 41.8M10.65,45.35L10.95 44.9L11.3 44.5L11.45 44.3L11.85 43.8L12.35 43.05L12.45 42.55L12.25 42.6Q11.8 42.7 11.75 41.85L11.7 41.85L11.5 41.9L11.4 41.95L10.9 42.1L10.5 42.15L10.2 41.9L10.05 41.7L8.7 43.75Q9.45 43.7 9.5 44.35L9.45 44.6L10 44.65L10.25 44.7L10.3 44.7L10.3 44.75L10.65 45.35M19.25,45.25L19 45.05L18.95 45L19.4 44.9L19.5 45L20 45.55L19.25 45.25M18.25,45.3L18.3 45.1L18.65 45.05L18.3 45.25L18.25 45.3" />
<path style="fill:#F0DBBB;fill-opacity:1" d="M19.7,40.85L19.3 40.6L18.8 39.85L18.5 39.6L17.85 39.25L17.4 39.1L17 39.05L17.4 38.85L17.55 38.8L18.35 38.85L19.1 39.35L19.35 39.6L19.45 40.25Q19.5 40.55 19.7 40.85M18.6,43.7L18.85 43.4L18.85 42.9Q17.9 41.95 18.4 41L18.55 41.55L18.8 41.95L19.55 42.95L19.55 43.1L19.6 43.25L19.45 43.7L18.75 43.75L18.6 43.7" />
<path style="fill:#391746;fill-opacity:1" d="M20.3,40.2L20.65 40.15L20.7 40.15L20.8 40.95L20.3 40.25L20.3 40.2M20.25,42.85L20.15 42.5L20.2 42.4L20.25 42.35L20.6 42.25L20.8 42.2L20.55 43.7L20.4 44.2L20.4 44.45L20.35 44.8L20.35 44.9L20.45 45.35L20.4 45.55L20 45.55L19.5 45L19.4 44.9L19.5 44.85L19.8 44.75L19.85 44.8L19.85 44.75L20.25 43.95L20.25 42.85" />
<path style="fill:#B6A998;fill-opacity:1" d="M14.05,37.35L13.95 37.35Q12.75 37.6 13.7 37.85L14.2 37.65L14.25 37.6L14.25 37.45L14.05 37.35M12.55,38L13.15 37.55L13.35 37.4L13.85 37.25L14.35 37.2Q14.55 37.25 14.65 37.4L14.8 37.8L14.5 37.85L13.75 38.15Q13.4 38.35 13.1 38.65L12.55 38M25.05,26.9L25.05 27.15L25.3 28.25L25.8 29.15L26.25 29.65Q26.3 30.05 25.9 30.25L25.35 30.3L25.15 30.15L24.85 29.85L24.55 29.4L24.15 28.45L24.15 28.35L24.05 28L24 27.65L24.1 26.95L24.45 26.35Q24.75 26.1 25 26L25 26.55L25.05 26.9M25.9,30L26 29.75L25.6 29.25Q25.25 28.75 25.05 28.1Q24.9 28.6 24.15 28.45L24.8 29.6L24.9 29.75L25.3 30.1L25.5 30.15L25.9 30M24.75,26.3L24.4 26.8Q24.3 27.05 24.8 27.15L24.9 27L24.95 26.5L24.95 26.45L24.85 26.3L24.75 26.3" />
<path style="fill:#F5F3EE;fill-opacity:1" d="M14.25,37.45L14.25 37.6L14.2 37.65L13.7 37.85Q12.75 37.6 13.95 37.35L14.05 37.35L14.25 37.45M24.85,26.3L24.95 26.45L24.95 26.5L24.9 27L24.8 27.15Q24.3 27.05 24.4 26.8L24.75 26.3L24.85 26.3" />
<path style="fill:#837462;fill-opacity:1" d="M13.1,38.65L12.9 38.9L12.45 39.5L12.35 39.45L12 39Q11.95 38.75 12.25 38.35L12.55 38L13.1 38.65M25.5,30.15L25.3 30.1L24.9 29.75L24.8 29.6L24.15 28.45Q24.9 28.6 25.05 28.1Q25.25 28.75 25.6 29.25L26 29.75L25.9 30L25.5 30.15" />
</g>
</svg>
