<?xml version="1.0" encoding="utf-8"?>
<svg version="1.1" id="Layer_1"
xmlns="http://www.w3.org/2000/svg"
xmlns:xlink="http://www.w3.org/1999/xlink"
xmlns:author="http://www.sothink.com"
width="16px" height="16px"
xml:space="preserve">
<g id="1359" transform="matrix(1, 0, 0, 1, 0, 0)">
<path style="fill:#71B4BB;fill-opacity:1" d="M13.45,0.7Q13.9 1 14.15 2Q14.6 4.25 12.1 5.95L9.7 7.75L11.1 6L12.45 4.15Q12.15 4.3 12.25 4Q10.95 3.75 12.7 3L12.9 3.05L13.1 1.45Q13.1 0.75 12.65 0.25L12.6 0.2Q13.1 0.35 13.45 0.7M2.8,11.4L3.05 11.45Q3.45 11.6 3.25 11.75Q1.65 13 2.8 11.4" />
<path style="fill:#4F8A91;fill-opacity:1" d="M8.5,8.95L7.55 10.25L6.5 12Q5.6 13.7 4.1 14.5Q2.8 15.15 1.85 14.2L1.6 13.9Q0.55 12.55 2.45 10.9Q4.35 9.2 5.9 4.85Q6.75 2.35 8.1 1.2L8.95 0.6L9.8 0.2L11.4 0.05L11.55 0.05L12.6 0.2L12.65 0.25Q13.1 0.75 13.1 1.45L12.9 3.05L12.7 3Q10.95 3.75 12.25 4Q12.15 4.3 12.45 4.15L11.1 6L9.7 7.75L8.5 8.95M3.25,11.75Q3.45 11.6 3.05 11.45L2.8 11.4Q1.65 13 3.25 11.75" />
<path style="fill:#243941;fill-opacity:1" d="M13.6,0.6Q15.2 1.3 15.3 3.1Q15.4 4.85 13.65 5.95Q11.9 7.05 10.1 8.85L8.65 10.55Q7.85 11.55 7.4 12.6Q6.5 14.45 5.5 15.1Q4.5 15.7 3.45 15.85Q2.4 15.95 1.4 15.3L1.3 15.25Q0.35 14.55 0.05 13.15Q-0.3 11.6 1.75 9.95Q3.75 8.25 4.2 6.3Q4.6 4.3 5.4 3.45Q6.2 2.55 8.1 1.2Q6.75 2.35 5.9 4.85Q4.35 9.2 2.45 10.9Q0.55 12.55 1.6 13.9L1.85 14.2Q2.8 15.15 4.1 14.5Q5.6 13.7 6.5 12L7.55 10.25L8.5 8.95L9.7 7.75L12.1 5.95Q14.6 4.25 14.15 2Q13.9 1 13.45 0.7Q13.45 0.55 13.6 0.6" />
</g>
</svg>
