<?xml version="1.0" encoding="utf-8"?>
<svg version="1.1" id="Layer_1"
xmlns="http://www.w3.org/2000/svg"
xmlns:xlink="http://www.w3.org/1999/xlink"
xmlns:author="http://www.sothink.com"
width="112px" height="98px"
xml:space="preserve">
<g id="1031" transform="matrix(1, 0, 0, 1, 29.95, 3.4)">
<path style="fill:#000000;fill-opacity:0.25098" d="M49,86.05Q49.55 88.95 54.55 90.15L61.4 89.85L62.95 89.05Q64.85 87.75 65.25 85.85Q74.65 87.35 74.75 89.45Q74.85 91.5 65.25 93Q55.6 94.5 42.05 94.5Q28.35 94.5 18.65 93Q9 91.5 8.9 89.45Q8.8 87.45 17.05 86.05L17.1 86.25Q17.8 88.9 21.3 90.95L22.45 91.5L22.5 91.6Q25.5 92.7 29.9 92.3L30.7 92.2Q36.65 91.3 38.2 88.25Q39.05 86.55 38.45 84.45L41.65 84.4L48.9 84.5L49 86.05" />
<path style="fill:#4D3212;fill-opacity:1" d="M59.95,50.55L59.1 50.35L59.1 50.3L59.45 48.85L59.95 48.95L60 48.95L61.6 49.2L61.8 49.2Q65.55 49.45 67.45 47.85L68.05 47.25Q68.75 46.3 68.95 45.15L68.85 44.3L68.7 43.05Q68 39.9 63.25 36.75L64.25 35.65Q67.6 37.95 69 40.75Q70.4 43.4 70.25 45.9L70.2 46.15L70.15 46.7L69.7 47.7Q69.1 48.85 67.55 49.65Q64.95 50.8 62.25 50.8L61.4 50.75L59.95 50.55M38.45,84.45Q39.05 86.55 38.2 88.25Q36.65 91.3 30.7 92.2L29.9 92.3Q25.5 92.7 22.5 91.6L22.45 91.5L21.3 90.95Q17.8 88.9 17.1 86.25L17.05 86.05Q16.4 82.2 18.35 80.1Q18.7 79.7 19.15 79.4L19.35 77.2Q19.65 74.25 20.75 72.75L21.6 71.75L22.6 71.7L23.2 73.05L22.6 73.6Q21.45 74.8 21.15 77.2L21.05 78.35Q20.95 79.7 21.25 80.65L21.3 80.85Q21.45 81.55 22.75 82.15L25.4 82.95L31.7 83.5L33.1 83.15Q34.25 82.8 35 82.25L35.5 81.75L36.4 80.65L36.75 80L37.4 78.25L37.4 78.2L37.5 77.6Q37.65 76.1 37.45 75.45L36.5 74.9L36.45 74.9L37.75 73.65L39.55 75.3L39.45 75.8L39.05 77.5L38.5 79.5L38.05 80.8L37.4 82.1L38.45 84.45M16.95,63.15L15.15 63.25L15 62.6Q14.55 61 14.75 59.35L14.75 59Q14.85 56.5 15.65 56.05Q16.4 55.55 17.5 55.35L17.8 55.25L19.65 55L21.9 55.05Q23.35 55.05 25.1 55.55Q26.9 56.05 29.05 57.1L31.65 58.35L33.35 59.45L34.95 61.05L35.15 61.35Q33.8 60.85 32.05 60.85L30.35 59.8L26.65 57.85Q26.05 57.55 25.45 57.35Q22.65 56.4 19.45 57L17.45 57.5L16.85 57.7Q16.3 58.3 16.4 59.8Q16.3 60.5 16.5 61.45L16.75 62.5L16.95 63.15M18.8,51.2L18.55 50.95Q16.45 48.9 16.6 46.9L16.7 45.85L16.8 45.35Q17.6 40.9 20.6 38.25L22.25 37Q23.15 36.4 24.2 35.95L27.7 34.8L28 34.75L29.1 34.6L30.3 34.5Q34.4 34.1 37.5 35.3L39.75 36.25Q40.9 36.85 41.85 37.65L43.25 39.05L43.4 39.3L43.85 39.95L44.25 41.25L44.45 42.05L44.35 44L44 45Q42.45 48.35 39.95 50.75L37.4 52.65L34.8 53.95L34.45 54.1Q31.35 55.35 25.9 54.15Q22.5 53.4 20.5 52.35L18.8 51.2M19.15,45.05Q19.05 45.95 19.1 46.9L19.25 48.05L20.05 49.1L21.25 50L21.5 50.2Q22.85 51 24.85 51.65L30.65 52.55Q33.35 52.65 36.05 51.1L38.1 49.65L38.15 49.6Q42 46.55 42.25 43.4L42.3 43.15L42.3 42.75L42.3 42.25Q42.15 40.75 41.35 39.5L40.5 38.75L40.15 38.45L39.25 37.8Q36.6 36.05 31.75 36.25L30.05 36.4L28.05 36.65L25.7 37.6L25.6 37.65Q24.15 38.35 23 39.2Q19.85 41.35 19.2 44.3L19.15 45.05M21.55,88.7Q22.85 89.55 26.6 90.2L31.25 89.9L33.95 88.95Q37.3 87.2 36.3 84.45L36.2 84.25L35.95 83.75Q34.85 84.5 33.35 84.85L31.25 85.2L30.9 85.2L28.25 85.2L23.75 84.5L22.2 84L20.4 83.15L19.65 82.5Q18.75 84.15 19.2 85.7L19.55 86.45L20.85 88.1L21.55 88.7" />
<path style="fill:#B49148;fill-opacity:1" d="M68.7,43.05L68.85 44.3L64.4 39.6L64.3 39.55L64.4 39.9L64.3 40.45L64.45 41.05L64.3 41L64.05 40.7L64 40.75L63.85 40.85Q63.05 40.8 62.9 39.9L63 39.5L62.7 39.25L61.5 38.45L61.85 38.05L63.25 36.75Q68 39.9 68.7 43.05M19.2,44.3Q19.85 41.35 23 39.2Q24.15 38.35 25.6 37.65L25.7 37.6L28.05 36.65L30.05 36.4L31.75 36.25Q36.6 36.05 39.25 37.8L40.15 38.45L40.5 38.75L40.25 38.75L34 38.3L32.2 38.25L32 38.25L32.4 38.6L32.75 39.15L33.5 39.6L33.3 39.7L32.8 39.6L32.8 39.75L32.7 39.95L31.05 39.85L30.85 39.6L30.75 39.45L30.25 39.45L26.8 40L25.55 40.2Q25.9 40.15 26.9 40.65L27.55 41L28.15 41.35L27.4 41.4L25.6 41.7Q21.6 42.25 19.15 45.05L19.2 44.3M25.05,40.75L24.45 40.3L24 40.25L23.2 40.85L23.2 41.2L23.2 41.45L23.35 41.5L24.95 41.45L25.2 41L25.05 40.75M29.05,60.4L28.65 60.1Q28.3 59.55 27.4 59.35L26.65 59.25L24.6 58.55L23.45 58.25L21.9 58.25Q21.9 59.15 21.7 59.3Q20.4 58.7 19.9 58.6L19.6 58.6L18.5 58.6Q18.1 58.65 17.65 58.9L16.65 59.55L16.4 59.8Q16.3 58.3 16.85 57.7L17.45 57.5L19.45 57Q22.65 56.4 25.45 57.35Q26.05 57.55 26.65 57.85L30.35 59.8L32.05 60.85L31.3 60.85L28.95 61.05L28.95 60.85L29.05 60.4M23.2,74.45Q23.1 74.7 23.3 75.75Q23.55 76.25 22.6 76.4L24.45 78.65L24.35 78.65Q22.85 78.55 22.45 78.95Q22.25 79.15 22.35 80.1L22.35 80.45Q22.4 81.15 22.75 82.15Q21.45 81.55 21.3 80.85L21.25 80.65Q20.95 79.7 21.05 78.35L21.15 77.2Q21.45 74.8 22.6 73.6L23.2 73.05L23.75 73.85Q23.2 74.2 23.2 74.45M20.25,83.8Q20 84.8 20.5 85.2L20.95 85.45L22.5 86.25L22.35 86.25L20.05 85.75L20.6 87.5L20.85 88.1L19.55 86.45L19.2 85.7Q18.75 84.15 19.65 82.5L20.4 83.15L20.25 83.8" />
<path style="fill:#94722A;fill-opacity:1" d="M64.75,44.15L64.85 44.05L64.95 43.95L65.05 43.8L65.25 43.75L65.65 43.75L65.85 43.8L66.05 44.5L65.75 45L65.7 45.05L65.15 45Q64.7 44.7 64.7 44.2L64.75 44.15M25.2,41L24.95 41.45L23.35 41.5L23.2 41.45L23.2 41.2L23.2 40.85L24 40.25L24.45 40.3L25.05 40.75L25.2 41M24.1,44.8L23.9 45.85L23.75 45.9L23.65 45.9L23.45 45.95L22.95 45.8L22.85 45.65L22.75 45.25Q22.75 44.75 23.05 44.4L23.45 44.2Q24 44.2 24.1 44.7L24.1 44.8M29.45,44.75L29.35 44.9L28.9 45.3Q28.25 45.35 28.15 44.75L28.15 44.65L28.2 44.4L28.35 44.25L28.75 44.05L29.1 44.3L29.45 44.7L29.45 44.75M37.3,41Q37.75 40.95 38 41.4Q38.3 41.75 38.2 42.2L38.2 42.25L38.05 42.5L37.6 42.7Q36.95 42.85 36.45 42.3L36.45 42.25L36.45 42.05L36.45 41.95L36.45 41.9L36.4 41.6L36.6 41.45L37.05 41.1L37.3 41" />
<path style="fill:#D0A15B;fill-opacity:1" d="M57.4,38L57.15 38.25L56.5 38.85L56.1 39.3Q55.85 37.55 55.15 36.5L52 38.95L51.9 39.05L48.05 41.45Q46.2 38.05 41.55 34.55L41.55 33.3L41.75 31.3Q42.05 29.3 42.85 27.7Q42.6 28.25 42.75 28.4L44.85 30.9L46.2 32.9L46.7 33.8Q47.9 36.05 48.05 37.55Q48.25 38.95 48.95 38.7L51.05 37.1L53.5 34.25L53.9 33.7L54.7 32.45Q55.3 31.35 55.15 30.85L56.5 33.5L56.7 33.95L57.2 35.35L57.8 37.5L57.4 38M55.15,42.75L53.85 44.3L53.45 44.7L52.65 45.5L49.95 47.85L48.65 48.85Q43.1 53.05 36.55 55.7L35.8 56L37.4 52.65L39.95 50.75Q42.45 48.35 44 45L44.35 44L47.8 44.5L48.85 44.45Q52.1 44.1 54.25 42.7L55.55 41.8L56.15 41.45L55.15 42.75M48.55,61.2Q50.9 59.9 52.55 58.6L52.6 58.55L53.7 57.65L55.4 56.05L55.2 58.2L55.2 58.45L54.25 59.4L53.8 59.8L53.2 60.3L52.3 60.9L48.55 61.2M58.6,51.7L59.1 50.35L59.95 50.55L59.6 51.95L58.6 51.7M32.7,57.05L31.65 58.35L29.05 57.1Q26.9 56.05 25.1 55.55L24.55 55.25L21.15 52.95L20.5 52.35Q22.5 53.4 25.9 54.15Q31.35 55.35 34.45 54.1L34.8 53.95L32.7 57.05M22.45,63.05L22.75 62.85L23.5 62.35Q24.8 61.65 26.7 61.45Q25.25 61.95 24.2 62.75L23.5 63.3L22.45 64.7Q22.1 63.8 22.45 63.05M24,66L24.25 67.35L24.4 67.75Q24.75 68.55 25.55 69.3L25.75 69.5Q27.5 71 30.65 71.25L32 71.3L32.8 71.3L34.55 71Q36.4 70.55 37.85 69.3L38.1 69.15L37.85 70.8Q37.5 72.05 36.7 72.95Q36.05 73.65 35.1 74.15L31.75 75.05Q27.3 75.6 25.55 73.85L25 73.2L24.85 72.9L24.3 71.6Q24 70.7 23.85 69.6L23.65 67.85L23.65 67.8L23.7 67.35L24 65.9L24 66M74.55,62.55L74.5 63.6L74.5 63.8Q74.3 65.2 73.6 66.15L72.3 67.35L72.1 67.45Q70.05 68.55 68.2 68.3Q66.9 68.15 65.85 67.45L65.75 67.35L65.25 66.9L64.3 65.35L64.25 65.2Q63.85 64.4 63.75 63.7Q64.5 64.55 65.95 65L69.15 65.35Q71.4 65.35 73.15 64L74.55 62.55M69.4,70.3L67.05 70.5Q65.6 70.15 65.9 69.05L65.95 68.9L66.25 69.05L66.75 69.2Q68.25 69.6 70.2 69.2L70.3 69.2Q70.2 69.8 69.4 70.3" />
<path style="fill:#876430;fill-opacity:1" d="M59.6,51.95L59.95 50.55L61.4 50.75L60.95 52.5L59.6 51.95M75.1,66L74.15 67.35L72.15 68.7L71.25 69Q71.15 70.2 70.45 71Q69.75 71.7 68.05 71.6Q66.2 71.55 65.15 70.3L64.5 69.15Q64.4 68.65 64.7 68.2L64.1 67.45L64.05 67.35L63.8 67L62.9 65.35Q62.3 63.85 62.55 62.3Q62.55 61.85 62.7 61.4L62.8 61.35Q63 60.55 63.55 59.9Q64.2 59.05 65.45 58.45L66.55 58.05L68 57.7L69 57.5Q72.35 57.35 74.05 58.85Q74.95 59.65 75.35 61.05L75.45 61.15L75.5 61.35L75.6 62.4L75.65 63.65L75.1 66M20.5,52.35Q19.9 53.7 19.65 55L17.8 55.25L17.5 55.35Q17.6 54.5 17.85 53.8Q18.3 52.15 18.8 51.2L20.5 52.35M35.75,56.05L34.3 58.3L33.35 59.45L31.65 58.35L32.7 57.05L34.8 53.95L37.4 52.65L35.8 56L35.75 56.05M54,60.75L54.55 60L55.2 58.45L55.2 58.2L55.4 56.05L56.7 54.65L56.9 54.45L57.65 53.4L57.7 53.35L57.7 54.9L57.65 55.7L57.45 57.95L56.9 60.5L54 60.75M38.45,64Q39.15 65.25 39.3 67.1L39.35 67.35L39.35 67.65L39.35 68.7L39.1 70.75Q38.7 72.45 37.75 73.65L36.45 74.9Q34.35 76.35 30.8 76.55Q26.45 76.7 24.35 74.6L23.75 73.85L23.2 73.05L22.6 71.7Q22.25 70.8 22.05 69.7L21.8 68.35L21.8 67.85L21.8 67.35L21.8 66.6Q21.05 66.45 20.75 65.05L20.7 64.8Q20.5 63.8 20.8 62.95L21.1 62.25Q22.45 59.9 25.05 59.3L26.65 59.25L27.4 59.35Q28.3 59.55 28.65 60.1L28.95 60.85L28.95 61.05L31.3 60.85L32.05 60.85Q33.8 60.85 35.15 61.35Q35.9 61.6 36.55 62Q37.75 62.7 38.45 64M22.45,64.7L23.5 63.3L24.2 62.75Q25.25 61.95 26.7 61.45L27.3 61.3L27.4 61.3L27.5 60.75Q24.95 60.05 23.2 61.75Q22.7 62.25 22.5 62.85L22.45 63.05Q22.1 63.8 22.45 64.7M38.1,68.75L38.1 68.45L38.05 67.35L38.05 67.15Q37.8 65.2 36.85 64.05Q35.5 62.35 32.6 62.25L31.6 62.25L31.3 62.25L30.05 62.4Q26.35 62.9 24.8 64.65Q24.3 65.2 24 65.9L23.7 67.35L23.65 67.8L23.65 67.85L23.85 69.6Q24 70.7 24.3 71.6L24.85 72.9L25 73.2L25.55 73.85Q27.3 75.6 31.75 75.05L35.1 74.15Q36.05 73.65 36.7 72.95Q37.5 72.05 37.85 70.8L38.1 69.15L38.1 68.75M64.25,65.2L64.3 65.35L65.25 66.9L65.75 67.35L65.85 67.45Q66.9 68.15 68.2 68.3Q70.05 68.55 72.1 67.45L72.3 67.35L73.6 66.15Q74.3 65.2 74.5 63.8L74.5 63.6L74.55 62.55L74.35 61.45Q74 60.4 73.25 59.85Q72.55 59.25 71.45 59.05L69 58.9L68.05 59L67.65 59.1L67.55 59.15L67.5 59.15L66.7 59.4L66.2 59.6Q64.45 60.35 64 61.7L63.85 62.2L63.75 63.7Q63.85 64.4 64.25 65.2M70.3,69.2L70.2 69.2Q68.25 69.6 66.75 69.2L66.25 69.05L65.95 68.9L65.9 69.05Q65.6 70.15 67.05 70.5L69.4 70.3Q70.2 69.8 70.3 69.2" />
<path style="fill:#9A7226;fill-opacity:1" d="M68.95,45.15Q68.75 46.3 68.05 47.25L67.05 47.35Q64.45 47.5 62.05 46.55L61.65 47.05L61.6 47.15L61.2 47.2Q60.7 46.95 60.8 46.35L60.9 46L60 45.4L60.1 44.45Q60.2 42.15 59.65 39.85L61.3 38.6L61.5 38.45L62.7 39.25L63 39.5L62.9 39.9Q63.05 40.8 63.85 40.85L64 40.75L64.05 40.7L64.3 41L64.45 41.05L64.3 40.45L64.4 39.9L64.3 39.55L64.4 39.6L68.85 44.3L68.95 45.15M41.85,42.8L41.8 42.9L41.5 43.25Q39.5 45.35 36.9 46.55L36.05 46.9L36.1 47.7L35.85 48.2L35.75 48.25Q35.1 48.4 34.7 47.8L34.5 47.4L31.25 47.8L27.45 47.7Q28.35 48.6 29.6 48.8L29.65 49.05L28.05 49.35Q28.1 48.65 27.25 48.45L26.9 48.7Q26.55 48.95 26.5 49.4Q24.65 49.35 22.6 48.6L20.85 47.85L19.1 46.9Q19.05 45.95 19.15 45.05Q21.6 42.25 25.6 41.7L27.4 41.4L28.15 41.35L27.55 41L26.9 40.65Q25.9 40.15 25.55 40.2L26.8 40L30.25 39.45L30.75 39.45L30.85 39.6L31.05 39.85L32.7 39.95L32.8 39.75L32.8 39.6L33.3 39.7L33.5 39.6L32.75 39.15L32.4 38.6L32 38.25L32.2 38.25L34 38.3L40.25 38.75L40.5 38.75L41.35 39.5Q42.15 40.75 42.3 42.25L41.85 42.8M40.75,41.05Q40.5 40.6 40.1 40.6L39.8 40.7Q39.4 40.85 39.45 41.25L39.45 41.45Q39.7 42.15 40.5 41.9L40.65 41.75L40.85 41.45L40.75 41.05M57.7,53.35L57.95 52.95L58.9 53.15L60.45 53.7L61.6 54.35Q64.85 56.4 66.5 58L66.55 58.05L65.45 58.45Q64.3 57.65 63.9 57.6Q63.55 57.55 63.35 57.8L62.75 58.1L62.85 57.3L63.25 56.5L61.5 55.4L59.85 54.6L59.15 54.3L57.9 54.15L57.7 54.9L57.7 53.35M62.3,43Q62.25 42.85 62.05 42.9L61.8 42.9L61.7 43L61.65 43.05Q61.35 43.55 61.85 43.75L62.25 43.8L62.3 43.7L62.45 43.4L62.35 42.95L62.3 43M64.7,44.2Q64.7 44.7 65.15 45L65.7 45.05L65.75 45L66.05 44.5L65.85 43.8L65.65 43.75L65.25 43.75L65.05 43.8L64.95 43.95L64.85 44.05L64.75 44.15L64.7 44.2M67.45,45Q67.05 44.85 66.9 45.25Q66.65 45.75 67.2 46.05L67.4 46.05Q67.7 46.05 67.85 45.7L67.65 45.1L67.45 45M24.1,44.7Q24 44.2 23.45 44.2L23.05 44.4Q22.75 44.75 22.75 45.25L22.85 45.65L22.95 45.8L23.45 45.95L23.65 45.9L23.75 45.9L23.9 45.85L24.1 44.8L24.1 44.7M29.45,44.7L29.1 44.3L28.75 44.05L28.35 44.25L28.2 44.4L28.15 44.65L28.15 44.75Q28.25 45.35 28.9 45.3L29.35 44.9L29.45 44.75L29.45 44.7M37.05,41.1L36.6 41.45L36.4 41.6L36.45 41.9L36.45 41.95L36.45 42.05L36.45 42.25L36.45 42.3Q36.95 42.85 37.6 42.7L38.05 42.5L38.2 42.25L38.2 42.2Q38.3 41.75 38 41.4Q37.75 40.95 37.3 41L37.05 41.1M33.65,43.6L33.2 43.25L33.2 43.35Q33.05 43.25 32.85 43.45L32.7 43.65L32.6 43.75L32.6 43.9L32.6 44Q32.75 44.7 33.45 44.45L33.85 44.2L33.8 44.05L33.85 43.9L33.65 43.6M33.15,50.55L33.15 51.1Q32.7 51.9 32 51.4L31.9 51.3L31.85 51L31.95 50.6L31.95 50.45L32.1 50.35L32.3 50.25L32.65 50.2L32.9 50.25L33.15 50.5L33.15 50.55M16.75,62.5L16.5 61.45Q16.3 60.5 16.4 59.8L16.65 59.55L17.65 58.9Q18.1 58.65 18.5 58.6L19.6 58.6L19.9 58.6Q20.4 58.7 21.7 59.3Q21.9 59.15 21.9 58.25L23.45 58.25L24.6 58.55L26.65 59.25L25.05 59.3Q22.45 59.9 21.1 62.25L20.8 62.95L17.2 63.15L16.75 62.5M28.65,60.1L29.05 60.4L28.95 60.85L28.65 60.1M31.7,83.5L25.4 82.95L22.75 82.15Q22.4 81.15 22.35 80.45L22.35 80.1Q22.25 79.15 22.45 78.95Q22.85 78.55 24.35 78.65L24.45 78.65L22.6 76.4Q23.55 76.25 23.3 75.75Q23.1 74.7 23.2 74.45Q23.2 74.2 23.75 73.85L24.35 74.6Q26.45 76.7 30.8 76.55Q34.35 76.35 36.45 74.9L36.5 74.9L36.35 75.5L35.6 78.3L35.2 79.4L34.25 81.35L33.8 82.05L33.1 83.15L31.7 83.5M31.25,89.9L26.6 90.2Q22.85 89.55 21.55 88.7L20.85 88.1L20.6 87.5L20.05 85.75L22.35 86.25L22.5 86.25L20.95 85.45L20.5 85.2Q20 84.8 20.25 83.8L20.4 83.15L22.2 84L23.75 84.5L28.25 85.2L30.9 85.2L31.25 85.2Q32.95 85.65 32.7 87.2Q32.35 89.3 31.25 89.9M60.3,74.2L60.7 74.35L62.15 75.15L62.6 75.7Q63.05 76.8 62.3 79.45L62.25 79.6L61.65 80.9L60.3 82.1L60.3 80.35Q60.2 79.25 59.85 79.05L59.8 79L59.7 79.05L58.95 79L58.05 78.65L58.15 78.65Q60.25 77.55 60.6 77.55L60.65 76.5L60.45 74.9L60.3 74.2M61.8,87.95Q61.65 85.85 60.15 85.35L59.5 85.15L59.05 85.05Q61.85 85.3 62.6 83.65Q63.25 82.05 61.95 82.95L61.4 83.15L62.9 82.1Q64.05 84.05 63.6 85.6L63.1 86.6L61.8 87.95" />
<path style="fill:#745416;fill-opacity:1" d="M19.1,46.9L20.85 47.85L22.6 48.6Q24.65 49.35 26.5 49.4Q26.55 48.95 26.9 48.7L27.25 48.45Q28.1 48.65 28.05 49.35L29.65 49.05L29.6 48.8Q28.35 48.6 27.45 47.7L31.25 47.8L34.5 47.4L34.7 47.8Q35.1 48.4 35.75 48.25L35.85 48.2L36.1 47.7L36.05 46.9L36.9 46.55Q39.5 45.35 41.5 43.25L41.8 42.9L41.85 42.8L42.3 42.25L42.3 42.75L42.3 43.15L42.25 43.4Q42 46.55 38.15 49.6L38.1 49.65L36.05 51.1Q33.35 52.65 30.65 52.55L24.85 51.65Q22.85 51 21.5 50.2L21.25 50L20.05 49.1L19.25 48.05L19.1 46.9M40.85,41.45L40.65 41.75L40.5 41.9Q39.7 42.15 39.45 41.45L39.45 41.25Q39.4 40.85 39.8 40.7L40.1 40.6Q40.5 40.6 40.75 41.05L40.85 41.45M60.9,46L60.8 46.35Q60.7 46.95 61.2 47.2L61.6 47.15L61.65 47.05L62.05 46.55Q64.45 47.5 67.05 47.35L68.05 47.25L67.45 47.85Q65.55 49.45 61.8 49.2L61.6 49.2L60 48.95L59.95 48.95L59.45 48.85L59.8 47.05L60 45.4L60.9 46M62.35,42.95L62.45 43.4L62.3 43.7L62.25 43.8L61.85 43.75Q61.35 43.55 61.65 43.05L61.7 43L61.8 42.9L62.05 42.9Q62.25 42.85 62.3 43L62.35 42.95M67.65,45.1L67.85 45.7Q67.7 46.05 67.4 46.05L67.2 46.05Q66.65 45.75 66.9 45.25Q67.05 44.85 67.45 45L67.65 45.1M33.85,43.9L33.8 44.05L33.85 44.2L33.45 44.45Q32.75 44.7 32.6 44L32.6 43.9L32.6 43.75L32.7 43.65L32.85 43.45Q33.05 43.25 33.2 43.35L33.2 43.25L33.65 43.6L33.85 43.9M33.15,50.5L32.9 50.25L32.65 50.2L32.3 50.25L32.1 50.35L31.95 50.45L31.95 50.6L31.85 51L31.9 51.3L32 51.4Q32.7 51.9 33.15 51.1L33.15 50.55L33.15 50.5M16.75,62.5L17.2 63.15L16.95 63.15L16.75 62.5M32.7,87.2Q32.95 85.65 31.25 85.2L33.35 84.85Q34.85 84.5 35.95 83.75L36.2 84.25L36.3 84.45Q37.3 87.2 33.95 88.95L31.25 89.9Q32.35 89.3 32.7 87.2M37.45,75.45Q37.65 76.1 37.5 77.6L37.4 78.2L37.4 78.25L36.75 80L36.4 80.65L35.5 81.75L35 82.25Q34.25 82.8 33.1 83.15L33.8 82.05L34.25 81.35L35.2 79.4L35.6 78.3L36.35 75.5L36.5 74.9L37.45 75.45M56.9,60.5L57.45 57.95L57.65 55.7L57.7 54.9L57.9 54.15L59.15 54.3L59.85 54.6L61.5 55.4L63.25 56.5L62.85 57.3L62.75 58.1L63.35 57.8Q63.55 57.55 63.9 57.6Q64.3 57.65 65.45 58.45Q64.2 59.05 63.55 59.9L56.9 60.5M60.45,74.9L60.65 76.5L60.6 77.55Q60.25 77.55 58.15 78.65L58.05 78.65L58.95 79L59.7 79.05L59.8 79L59.85 79.05Q60.2 79.25 60.3 80.35L60.3 82.1L59.55 82.4L59.45 82.4Q57.25 82.95 54.65 82.5L52.45 82Q51.65 81.7 51.4 81.35L51.2 80.95Q50.75 80.15 50.8 79.05L50.8 79Q50.8 77.6 51.15 76.9L51.2 76.9Q51.55 76.1 52.4 75.45Q53.25 74.7 55.15 74.15L59.5 74L60.3 74.2L60.45 74.9M61.95,82.95Q63.25 82.05 62.6 83.65Q61.85 85.3 59.05 85.05L59.5 85.15L60.15 85.35Q61.65 85.85 61.8 87.95Q60.7 88.6 59.2 88.9L54.3 88.55Q52.2 87.8 51.25 86.7Q50.35 85.65 50.35 84.55Q50.4 83.75 51.1 83.05Q51.9 83.55 54.25 83.95L59.55 83.75L60.15 83.6L61.4 83.15L61.95 82.95" />
<path style="fill:#3C2C22;fill-opacity:1" d="M19.35,69.85L19.15 69.85L5.6 70.55L5.1 70.65Q3.95 68.95 3.3 67.35L2.75 65.65L5.85 65.35L6.65 65.3L6.65 65.7L6.9 66.15L7.25 67.05L7.3 67.9L11.95 67.7L21.8 67.85L21.8 68.35L22.05 69.7L19.35 69.85M44.35,66.8L44.35 67.05L45.05 66.95L45.15 66.95L54.5 66.15L54.75 66.15L55.75 66.1L58.4 65.85L58.45 65.85L60.55 65.65L61.7 65.5L62.9 65.35L63.8 67L63.3 67.05L60.8 67.25L60.2 67.3L59.65 67.35L58 67.5L55.95 67.65L45.05 68.45L44.35 68.45L44.35 68.35L39.75 68.65L39.35 68.7L39.35 67.65L39.35 67.35L39.3 67.1L44.35 66.8M75.65,63.65L79.2 63.2Q79.3 64.55 78.7 65.65L75.1 66L75.65 63.65" />
<path style="fill:#3F1F0C;fill-opacity:1" d="M60.95,52.5Q62.15 53.05 63.6 53.95Q66.05 55.5 67.25 56.9L68 57.7L66.55 58.05L66.5 58Q64.85 56.4 61.6 54.35L60.45 53.7L58.9 53.15L57.95 52.95L58.6 51.7L59.6 51.95L60.95 52.5M48.9,84.5Q49 82.95 50.15 81.85Q49.85 81.15 49.7 80.15L49.65 78.15Q49.65 77.45 49.8 76.95L50.2 76.15L50.65 75.35Q51.1 74.75 51.85 74.2Q52.45 73.55 54 73.1Q55.55 72.45 56.85 72.45L59.55 72.55L61 72.65L61.1 72.65L62.65 73.1Q64.1 73.9 64.25 76.1Q64.4 78.75 63.75 80.6L64.8 82.35Q65.5 84.3 65.25 85.85Q64.85 87.75 62.95 89.05L61.4 89.85L54.55 90.15Q49.55 88.95 49 86.05L48.9 84.5M61.65,80.9L62.25 79.6L62.3 79.45Q63.05 76.8 62.6 75.7L62.15 75.15L60.7 74.35L60.3 74.2L59.5 74L55.15 74.15Q53.25 74.7 52.4 75.45Q51.55 76.1 51.2 76.9L51.15 76.9Q50.8 77.6 50.8 79L50.8 79.05Q50.75 80.15 51.2 80.95L51.4 81.35Q51.65 81.7 52.45 82L54.65 82.5Q57.25 82.95 59.45 82.4L59.55 82.4L60.3 82.1L61.65 80.9M63.1,86.6L63.6 85.6Q64.05 84.05 62.9 82.1L61.4 83.15L60.15 83.6L59.55 83.75L54.25 83.95Q51.9 83.55 51.1 83.05Q50.4 83.75 50.35 84.55Q50.35 85.65 51.25 86.7Q52.2 87.8 54.3 88.55L59.2 88.9Q60.7 88.6 61.8 87.95L63.1 86.6" />
<path style="fill:#2E201B;fill-opacity:1" d="M35.8,56L36.55 55.7Q43.1 53.05 48.65 48.85L49.95 47.85L52.65 45.5L53.45 44.7L53.85 44.3L55.15 42.75L56.15 41.45L56.2 41.4L57.65 40.1L58.2 39.55L58.25 40.25Q58.6 40.45 59.65 39.85Q60.2 42.15 60.1 44.45L60 45.4L59.8 47.05L59.45 48.85L59.1 50.3L59.1 50.35L58.6 51.7L57.95 52.95L57.7 53.35L57.65 53.4L56.9 54.45L56.7 54.65L55.4 56.05L53.7 57.65L52.6 58.55L52.55 58.6Q50.9 59.9 48.55 61.2L45.05 61.5L45.05 61.4L44.3 61.45Q48.95 59.75 52.05 56.9L52.2 56.8L53.45 55.6L55.05 54.05L55.5 53.65L56.15 52.9L56.95 51.75L57.1 51.45L57.55 49.95L57.65 49.85L57.65 49.5L57.85 48.4L57.85 48.25L58 47.5L58.1 46.95L58.15 46.5L58.25 45.95L58.45 44.1L58.35 41.4L57.3 42.95L56.95 43.4L56.5 43.9L56.25 44.2L54.9 45.6L53.6 46.8L50.25 49.55L48.95 50.5L44.55 53.35L41.1 55.35L39.95 55.95L36.75 57.45L34.3 58.3L35.75 56.05L35.8 56M47.85,71.95L47.3 72.3L46.85 72.5L46.05 72.8L46.35 73.7L43.45 74.25L43.3 75.15Q42.85 76.15 41.45 77.55Q39.95 78.9 38.5 79.5L39.05 77.5L40.85 76.05L42.15 74.4L42.75 73.5L42.6 73.05L47.85 71.95" />
<path style="fill:#8E6755;fill-opacity:1" d="M57.55,49.9L57.3 47.9L56.95 47.25L56.75 47.25L56.65 47.45L55.7 48.5L55.5 48.7L54.85 49.3L55.15 48.4L55.7 47.6L55.7 46.7L54.35 47.65L50.55 50.25L49.15 51.2L48.05 51.95Q44.4 54.45 41.1 55.35L44.55 53.35L48.95 50.5L50.25 49.55L53.6 46.8L54.9 45.6L56.25 44.2L56.5 43.9L56.95 43.4L57.3 42.95L58.35 41.4L58.45 44.1L58.25 45.95L58.15 46.5L58.1 46.95L58 47.5L57.85 48.25L57.85 48.4L57.65 49.5L57.65 49.85L57.55 49.95L57.55 49.9" />
<path style="fill:#644638;fill-opacity:1" d="M41.1,55.35Q44.4 54.45 48.05 51.95L49.15 51.2L50.55 50.25L54.35 47.65L55.7 46.7L55.7 47.6L55.15 48.4L54.85 49.3L55.5 48.7L55.7 48.5L56.65 47.45L56.75 47.25L56.95 47.25L57.3 47.9L57.55 49.9L57.55 49.95L56.3 51.4L55.5 52.35L54.9 53.05L54.15 53.95L53.6 54.6L52.15 55.8Q49.55 57.65 45.45 58.8L47.2 57.5Q45.1 58.65 42.15 59.1Q37.5 59.8 37.15 58.65L36.75 57.45L39.95 55.95L41.1 55.35M39.55,75.3L37.75 73.65Q38.7 72.45 39.1 70.75L41.25 70.6L41.6 71.15L42.4 72.6Q41.95 72.75 41.55 73.1L40.5 74.45L40.2 74.95L39.45 75.8L39.55 75.3" />
<path style="fill:#513727;fill-opacity:1" d="M36.55,62Q35.9 61.6 35.15 61.35L34.95 61.05L33.35 59.45L34.3 58.3L36.75 57.45L37.15 58.65Q37.5 59.8 42.15 59.1Q45.1 58.65 47.2 57.5L45.45 58.8Q49.55 57.65 52.15 55.8L53.6 54.6L54.15 53.95L54.9 53.05L55.5 52.35L56.3 51.4L57.55 49.95L57.1 51.45L56.95 51.75L56.15 52.9L55.5 53.65L55.05 54.05L53.45 55.6L52.2 56.8L52.05 56.9Q48.95 59.75 44.3 61.45L36.55 62M42.6,73.05L42.75 73.5L42.15 74.4L40.85 76.05L39.05 77.5L39.45 75.8L40.2 74.95L40.5 74.45L41.55 73.1Q41.95 72.75 42.4 72.6L42.6 73.05M60.85,71.15Q59.9 70.1 59.05 69.65L58.7 69.5L60.15 69.4L60.85 71.15" />
<path style="fill:#412B1E;fill-opacity:1" d="M59.55,72.55L56.85 72.45Q55.55 72.45 54 73.1Q52.45 73.55 51.85 74.2Q51.1 74.75 50.65 75.35L50.2 76.15L48.3 73.65L48 73.25L47.3 72.3L47.85 71.95L42.6 73.05L42.4 72.6L41.6 71.15L41.25 70.6L44.3 70.35L44.3 70.45L58.7 69.5L59.05 69.65Q59.9 70.1 60.85 71.15L60.9 71.65L61 72.65L59.55 72.55" />
<path style="fill:#E9CB9E;fill-opacity:1" d="M44.25,41.25L43.85 39.95L43.4 39.3L43.25 39.05L41.85 37.65L41.6 35.65L41.55 34.55Q46.2 38.05 48.05 41.45L51.9 39.05L52 38.95L55.15 36.5Q55.85 37.55 56.1 39.3L55.85 39.45L53.9 40.75Q50.75 42.7 47.7 42.7L46.15 42.5L44.45 42.05L44.25 41.25M20.5,52.35L21.15 52.95L24.55 55.25L25.1 55.55Q23.35 55.05 21.9 55.05L19.65 55Q19.9 53.7 20.5 52.35M23.5,62.35L22.75 62.85L22.45 63.05L22.5 62.85Q22.7 62.25 23.2 61.75Q24.95 60.05 27.5 60.75L27.4 61.3L27.3 61.3L26.7 61.45Q24.8 61.65 23.5 62.35M24,65.9Q24.3 65.2 24.8 64.65Q26.35 62.9 30.05 62.4L31.3 62.25L31.6 62.25L32.6 62.25Q35.5 62.35 36.85 64.05Q37.8 65.2 38.05 67.15L38.05 67.35L38.1 68.45L38.1 68.75L38.1 69.15L37.85 69.3Q36.4 70.55 34.55 71L32.8 71.3L32 71.3L30.65 71.25Q27.5 71 25.75 69.5L25.55 69.3Q24.75 68.55 24.4 67.75L24.25 67.35L24 66L24 65.9M73.15,64Q71.4 65.35 69.15 65.35L65.95 65Q64.5 64.55 63.75 63.7L63.85 62.2L64 61.7Q64.45 60.35 66.2 59.6L66.7 59.4L67.5 59.15L67.55 59.15L67.65 59.1L68.05 59L69 58.9L71.45 59.05Q72.55 59.25 73.25 59.85Q74 60.4 74.35 61.45L74.55 62.55L73.15 64M52.3,60.9L53.2 60.3L53.8 59.8L54.25 59.4L55.2 58.45L54.55 60L54 60.75L52.3 60.9" />
<path style="fill:#231713;fill-opacity:1" d="M60.15,69.4L62.05 69.3L62.6 70.55L62.65 73.1L61.1 72.65L61 72.65L60.9 71.65L60.85 71.15L60.15 69.4M49.8,76.95Q49.65 77.45 49.65 78.15L49.6 78.1Q47.9 76.7 46.65 74.35L46.35 73.7L46.05 72.8L46.85 72.5L47.3 72.3L48 73.25L48.3 73.65L50.2 76.15L49.8 76.95" />
<path style="fill:#6D150A;fill-opacity:1" d="M63.25,36.75L61.85 38.05L61.5 38.45L61.3 38.6L59.65 39.85Q58.6 40.45 58.25 40.25L58.2 39.55L58.05 38.65L57.8 37.5L57.2 35.35L56.7 33.95L56.5 33.5L55.15 30.85Q55.3 31.35 54.7 32.45L53.9 33.7L53.5 34.25L51.05 37.1L48.95 38.7Q48.25 38.95 48.05 37.55Q47.9 36.05 46.7 33.8L46.2 32.9L44.85 30.9L42.75 28.4Q42.6 28.25 42.85 27.7Q42.05 29.3 41.75 31.3L41.55 33.3L41.55 34.55L41.6 35.65L41.85 37.65Q40.9 36.85 39.75 36.25L39.65 33.85L39.7 33.25L39.8 32.4L39.95 31.55Q40.4 29.05 41.2 27.2Q42.05 25 43.8 26.55Q45.4 28.1 46.95 30.9L47.05 31.1L48 32.9L49.55 36L51.85 33.7L52.1 33.35L53.1 31.8L54 29.55Q54.6 27.6 55.65 28.55Q56.6 29.45 58 33.2L58.1 33.4L58.75 35.25L58.95 35.8L59.5 37.85L59.5 38.05L59.95 37.65L60.1 37.5L61.55 36L62.65 34.65L65.35 31L66.1 29.7Q67.85 26.65 67.85 23.35L67.4 20.1L66.35 16.7Q63.85 10.45 57.9 5.15Q57.75 5.05 57.65 5.4L57.3 7.2L56.85 8.55L56.8 8.7L56.35 9.4L56.2 9.4L55.15 7.5L53.3 4.8L53.15 4.6Q45.65 -3.25 35.35 -1.4L37.1 0.1L37.55 0.6L38.9 2.45Q39.55 3.5 37.1 3.15L36.15 2.85Q32.55 2 27.15 2.95Q21.65 3.85 19.9 5.3L17.9 7.15Q19.75 7.2 22.1 8.1L22.35 8.2L22.7 8.35Q24.55 9.3 26.2 12.2L26.2 12.3L24.3 12.65Q20.1 13.5 17.4 16.2Q14.6 18.8 13.65 21.15L12.8 23L13.15 22.9L13.65 22.8L15.75 22.45L18.8 22.65Q20.6 23.1 21.6 23.7Q22.55 24.15 22.3 25.7L22.2 26.15Q21.65 27.55 19.6 29.25Q17.15 31.2 14.7 31.3Q16.1 33.55 18.6 35.2L21.25 36.6L22.25 37L20.6 38.25Q16.15 36.15 14.25 33.8Q12.1 31.3 12.85 29.7Q16.45 29.55 18.6 27.95Q20.6 26.4 20.55 25.1L20.55 24.9L19.75 24.65L13.9 24.5Q10.85 25.2 11.05 24.3L11.55 22.3Q12.5 18.9 14.85 16.1Q18.25 12.2 23.05 11.3L23.25 11.3L23.85 11.3Q22.65 9.85 20.6 9.3L15.05 8Q14.95 7.4 16.1 6.25Q17.2 5.15 18.95 4Q20.95 2.6 24.2 1.75L29 1.05L33.45 1.2L34.4 1.4L36.15 1.55Q35.8 0.95 33.45 -1.3L32.45 -2.2L36.9 -3.25Q41.55 -3.95 47.3 -1.6Q52.95 0.8 56.1 6.6L56.2 6.25L56.6 1.65Q58.35 1.45 63.15 8.2Q67.85 14.9 69.05 20.45Q69.5 22.65 69.25 25Q68.8 28.5 66.65 32.3L65.25 34.4L64.25 35.65L63.25 36.75M29.1,34.6Q28.3 32.75 27.95 30.95Q27.85 30.6 28.1 30.5Q28.7 32.35 30.3 34.5L29.1 34.6" />
<path style="fill:#E28157;fill-opacity:1" d="M18.6,35.2Q16.1 33.55 14.7 31.3Q17.15 31.2 19.6 29.25Q21.65 27.55 22.2 26.15L22.35 27.2Q22.35 29.1 20.55 30.75Q18.7 32.5 16.8 32.15L18.6 35.2M15.75,22.45L13.65 22.8L13.15 22.9L12.8 23L13.65 21.15Q14.6 18.8 17.4 16.2Q20.1 13.5 24.3 12.65L26.2 12.3L26.2 12.2Q27.7 12.9 28.1 13.65Q25.05 13.15 20.35 16.2Q16.1 18.9 14.35 21.7L15.75 22.45M39.45,4.95L39.25 4.95L33.95 4.45Q26.3 4.45 21.3 6.7L22.35 8.2L22.1 8.1Q19.75 7.2 17.9 7.15L19.9 5.3Q21.65 3.85 27.15 2.95Q32.55 2 36.15 2.85L37.1 3.15Q38.55 4.1 39.45 4.95M49.05,2.35L44.6 0.6Q40.95 -0.6 39.9 -0.6L37.2 -0.45L37.55 0.1L37.55 0.6L37.1 0.1L35.35 -1.4Q45.65 -3.25 53.15 4.6L53.3 4.8L49.05 2.35M57.3,7.2L57.65 5.4Q57.75 5.05 57.9 5.15Q63.85 10.45 66.35 16.7L67.4 20.1Q63.6 11.15 57.3 7.2" />
<path style="fill:#A64926;fill-opacity:1" d="M22.25,37L21.25 36.6L18.6 35.2L16.8 32.15Q18.7 32.5 20.55 30.75Q22.35 29.1 22.35 27.2L22.2 26.15L22.3 25.7Q22.55 24.15 21.6 23.7Q20.6 23.1 18.8 22.65L15.75 22.45L14.35 21.7Q16.1 18.9 20.35 16.2Q25.05 13.15 28.1 13.65Q27.7 12.9 26.2 12.2Q24.55 9.3 22.7 8.35L22.35 8.2L21.3 6.7Q26.3 4.45 33.95 4.45L39.25 4.95L39.45 4.95Q38.55 4.1 37.1 3.15Q39.55 3.5 38.9 2.45L37.55 0.6L37.55 0.1L37.2 -0.45L39.9 -0.6Q40.95 -0.6 44.6 0.6L49.05 2.35L53.3 4.8L55.15 7.5L56.2 9.4L56.35 9.4L56.8 8.7L56.85 8.55L57.3 7.2Q63.6 11.15 67.4 20.1L67.85 23.35Q67.85 26.65 66.1 29.7L66.1 29.6Q66.1 21.45 63.25 16.9Q62.3 15.35 60.2 13.5Q59.9 15.25 59.15 16.7Q58.2 18.2 57.2 18.65Q56.35 16.3 53.45 12.45Q48.5 5.65 43.8 6.9L43.2 6.9L44.15 7.85Q45.9 9.85 45.9 12.35L45.9 12.65Q45.1 12 44 11.4Q40.25 9.3 36.55 9.3Q31.5 9.3 29 10.45Q30.9 11.3 33.15 14.35L34.2 15.75L33.5 15.75Q28.2 15.75 24.7 17.7Q22.7 18.75 21.95 19.95L26.1 22.4L28.4 24.3L28.3 25.2Q28.65 26.85 25.85 29.45Q23.6 31.55 21.5 32.05Q21.95 33.3 24.2 35.95Q23.15 36.4 22.25 37" />
<path style="fill:#953714;fill-opacity:1" d="M28.1,30.5Q27.85 30.6 27.95 30.95Q28.3 32.75 29.1 34.6L28 34.75L27.7 34.8L24.2 35.95Q21.95 33.3 21.5 32.05Q23.6 31.55 25.85 29.45Q28.65 26.85 28.3 25.2L28.4 24.3L26.1 22.4L21.95 19.95Q22.7 18.75 24.7 17.7Q28.2 15.75 33.5 15.75L34.2 15.75L33.15 14.35Q30.9 11.3 29 10.45Q31.5 9.3 36.55 9.3Q40.25 9.3 44 11.4Q45.1 12 45.9 12.65L45.9 12.35Q45.9 9.85 44.15 7.85L43.2 6.9L43.8 6.9Q48.5 5.65 53.45 12.45Q56.35 16.3 57.2 18.65Q58.2 18.2 59.15 16.7Q59.9 15.25 60.2 13.5Q62.3 15.35 63.25 16.9Q66.1 21.45 66.1 29.6L66.1 29.7L65.35 31L62.65 34.65L61.55 36L60.1 37.5L59.95 37.65L59.5 38.05L59.5 37.85L58.95 35.8L58.75 35.25L58.1 33.4L58 33.2Q56.6 29.45 55.65 28.55Q54.6 27.6 54 29.55L53.1 31.8L52.1 33.35L51.85 33.7L49.55 36L48 32.9L47.05 31.1L46.95 30.9Q45.4 28.1 43.8 26.55Q42.05 25 41.2 27.2Q40.4 29.05 39.95 31.55L39.8 32.4L39.7 33.25L39.65 33.85L39.75 36.25L37.5 35.3Q34.4 34.1 30.3 34.5Q28.7 32.35 28.1 30.5" />
<path style="fill:#9C753C;fill-opacity:1" d="M57.8,37.5L58.05 38.65L58.2 39.55L57.65 40.1L56.2 41.4L56.15 41.45L55.55 41.8L54.25 42.7Q52.1 44.1 48.85 44.45L47.8 44.5L44.35 44L44.45 42.05L46.15 42.5L47.7 42.7Q50.75 42.7 53.9 40.75L55.85 39.45L56.1 39.3L56.5 38.85L57.15 38.25L57.4 38L57.8 37.5" />
<path style="fill:#231813;fill-opacity:1" d="M75.45,61.15L75.35 61.05Q74.95 59.65 74.05 58.85L78.75 58.45Q80.95 59.3 81.55 61.6L81.7 63Q81.85 64.4 81.5 65.45L80.6 67.35L80.05 68.2L72.15 68.7L74.15 67.35L75.1 66L78.7 65.65Q79.3 64.55 79.2 63.2L79 62.55Q78.5 60.85 78.15 61L75.5 61.35L75.45 61.15M60.15,69.4L58.7 69.5L44.3 70.45L44.3 70.35L41.25 70.6L39.1 70.75L39.35 68.7L39.75 68.65L44.35 68.35L44.35 68.45L45.05 68.45L55.95 67.65L58 67.5L59.65 67.35L60.2 67.3L60.8 67.25L63.3 67.05L63.8 67L64.05 67.35L64.1 67.45L64.7 68.2Q64.4 68.65 64.5 69.15L62.05 69.3L60.15 69.4M5.8,71.6L5.1 70.65L5.6 70.55L19.15 69.85L19.35 69.85L22.05 69.7Q22.25 70.8 22.6 71.7L21.6 71.75L14.95 72L6.25 72.1L5.8 71.6M2.5,64.85L2.5 63.75L5.75 63.7L14 63.3L15.15 63.25L16.95 63.15L17.2 63.15L20.8 62.95Q20.5 63.8 20.7 64.8L19.1 64.9L17.65 64.95L15.8 65L6.65 65.3L5.85 65.35L2.75 65.65L2.5 64.85M56.65,62.8L56.45 62.85L55.1 62.95L55 62.95L50.5 63.35L47.9 63.55L47.45 63.6L45.05 63.75L44.35 63.75L44.35 63.65L43.05 63.75L38.45 64Q37.75 62.7 36.55 62L44.3 61.45L45.05 61.4L45.05 61.5L48.55 61.2L52.3 60.9L54 60.75L56.9 60.5L63.55 59.9Q63 60.55 62.8 61.35L62.7 61.4Q62.55 61.85 62.55 62.3L56.65 62.8" />
<path style="fill:#574031;fill-opacity:1" d="M11.95,67.7L7.3 67.9L7.25 67.05L6.9 66.15L6.65 65.7L6.65 65.3L15.8 65L17.65 64.95L19.1 64.9L20.7 64.8L20.75 65.05Q21.05 66.45 21.8 66.6L21.8 67.35L21.8 67.85L11.95 67.7M62.55,62.3Q62.3 63.85 62.9 65.35L61.7 65.5L60.55 65.65L58.45 65.85L58.4 65.85L55.75 66.1L54.75 66.15L54.5 66.15L45.15 66.95L45.05 66.95L44.35 67.05L44.35 66.8L39.3 67.1Q39.15 65.25 38.45 64L43.05 63.75L44.35 63.65L44.35 63.75L45.05 63.75L47.45 63.6L47.9 63.55L50.5 63.35L55 62.95L55.1 62.95L56.45 62.85L56.65 62.8L62.55 62.3M75.65,63.65L75.6 62.4L75.5 61.35L78.15 61Q78.5 60.85 79 62.55L79.2 63.2L75.65 63.65" />
<path style="fill:#3A3634;fill-opacity:1" d="M6.25,72.1Q8.1 74.25 12.8 76.85L15.1 78.05Q12.05 84.85 5.35 87.7Q1.1 89.55 -3.1 90.15L-16.4 89.75Q-23.25 88.1 -28.1 84.1Q-29.7 82.85 -29.95 79.7L-29.75 79.45L-27.9 77.2L-25 73.35Q-23.4 71.3 -24 71.25Q-23.75 71 -24.35 70.9L-25.8 69.75Q-26.65 68.85 -26.8 68.05L-26.65 67.35Q-26.3 66.55 -24.9 65.75Q-22.95 64.5 -20.85 64.2L-18.3 63.7L-18.2 63.8L-17.65 62.8L-16.1 62.7L-14.95 62.7L-13.65 62.65Q-12.2 62.55 -10 62.6Q-5.65 62.5 -3.4 62.7L-0.2 62.9L2.15 63.1L2.5 63.45L2.5 63.65L2.4 63.75L2.5 63.75L2.5 64.85L2.75 65.65L3.3 67.35Q3.95 68.95 5.1 70.65L5.8 71.6L6.25 72.1M-15.7,64L-17.2 64.05L-18.7 66.5L-19.25 67.35L-21.2 70.55L-23.1 73.4L-21.5 74.15L-18.7 75.2Q-11.6 77.55 -3.6 75.7L-1.7 75.25Q0.9 74.3 3.3 72.95L4.5 72.4L4.05 71.85L3.35 70.85Q2.35 69.4 1.65 67.75L1.5 67.35Q1 66.1 0.95 64.8L0.95 64.4L-2.7 64.1L-8.4 63.95L-14.15 64L-15.7 64M12.65,78.6Q10.9 81.6 3.25 84.65Q-4.35 87.6 -12.9 86.4Q-21.55 85.25 -26.85 82.55L-23.15 84.95Q-20.2 86.55 -16.75 87.75Q-12.4 89.1 -5.6 88.55Q0.5 87.9 5.85 85.1Q8.3 83.85 10.6 81.8L12.2 79.75Q13.1 78.45 12.65 78.6M7.2,75.3L5.4 73.5Q1.65 75.85 -2.65 77L-5.45 77.55L-10.95 78Q-15.4 78 -19.2 76.55L-22.1 75.1L-23.6 74.05L-24.75 75.8Q-27.15 79.15 -28.45 80Q-25.45 82.9 -16.45 84.6L-5.15 85.5L-1.45 85.1Q2.4 84.2 5.6 82.85L8.85 80.9L9.65 80.4L11.6 78L11.1 77.8Q9.05 77 7.2 75.3M-20.2,65.65Q-22.35 65.95 -23.75 67L-24.15 67.35Q-25.05 68.25 -23.9 69Q-22.65 70 -21.7 68.6L-20.9 67.35L-19.5 65.55L-20.2 65.65" />
<path style="fill:#5D544E;fill-opacity:1" d="M-16.4,69.5L-15.5 67.35L-14.15 64L-8.4 63.95L-2.7 64.1L0.95 64.4L0.95 64.8Q1 66.1 1.5 67.35L1.65 67.75Q2.35 69.4 3.35 70.85L4.05 71.85L4.5 72.4L3.3 72.95Q0.9 74.3 -1.7 75.25L-3.6 75.7Q-11.6 77.55 -18.7 75.2L-16.4 69.5" />
<path style="fill:#ACA49F;fill-opacity:1" d="M5.35,82.85L0.65 83.65L-3.8 84L-4.95 84L-4.3 81.55Q3.1 81.15 9.45 78.5L11.1 77.8L11.6 78L9.65 80.4L8.85 80.9L5.6 82.85L5.35 82.85M-7.5,81.6L-8.35 83.95L-16.95 83.1Q-21.6 82.1 -24.65 78.9L-22.1 75.1L-19.2 76.55L-20.1 78.45L-17.4 80Q-13.8 81.6 -7.5 81.6M-19.5,65.55L-20.9 67.35L-21.7 68.6Q-22.65 70 -23.9 69Q-25.05 68.25 -24.15 67.35L-23.75 67Q-22.35 65.95 -20.2 65.65L-19.5 65.55" />
<path style="fill:#938D89;fill-opacity:1" d="M12.2,79.75L10.6 81.8Q8.3 83.85 5.85 85.1Q0.5 87.9 -5.6 88.55Q-12.4 89.1 -16.75 87.75Q-20.2 86.55 -23.15 84.95L-26.85 82.55Q-21.55 85.25 -12.9 86.4Q-4.35 87.6 3.25 84.65Q10.9 81.6 12.65 78.6Q13.1 78.45 12.2 79.75M-17.4,80L-20.1 78.45L-19.2 76.55Q-15.4 78 -10.95 78L-5.45 77.55L-2.65 77Q1.65 75.85 5.4 73.5L7.2 75.3Q9.05 77 11.1 77.8L9.45 78.5Q3.1 81.15 -4.3 81.55L-6.05 81.55L-7.5 81.6Q-13.8 81.6 -17.4 80" />
<path style="fill:#E0D8D4;fill-opacity:1" d="M-4.3,81.55L-4.95 84L-3.8 84L0.65 83.65L5.35 82.85L5.6 82.85Q2.4 84.2 -1.45 85.1L-5.15 85.5L-16.45 84.6Q-25.45 82.9 -28.45 80Q-27.15 79.15 -24.75 75.8L-23.6 74.05L-22.1 75.1L-24.65 78.9Q-21.6 82.1 -16.95 83.1L-8.35 83.95L-7.5 81.6L-6.05 81.55L-4.3 81.55" />
<path style="fill:#766D67;fill-opacity:1" d="M-19.75,71.15L-17.5 67.35L-15.7 64L-14.15 64L-15.5 67.35L-16.4 69.5L-18.7 75.2L-21.5 74.15L-19.75 71.15" />
<path style="fill:#8E8680;fill-opacity:1" d="M-21.5,74.15L-23.1 73.4L-21.2 70.55L-19.25 67.35L-18.7 66.5L-17.2 64.05L-15.7 64L-17.5 67.35L-19.75 71.15L-21.5 74.15" />
</g>
</svg>
