<?xml version="1.0" encoding="utf-8"?>
<svg version="1.1" id="Layer_1"
xmlns="http://www.w3.org/2000/svg"
xmlns:xlink="http://www.w3.org/1999/xlink"
xmlns:author="http://www.sothink.com"
width="168px" height="54px"
xml:space="preserve">
<g id="150" transform="matrix(1, 0, 0, 1, -0.4, -0.75)">
<path style="fill:#B6924E;fill-opacity:1" d="M152.95,41.9Q156 43.75 152.7 43.2L152.3 43.1Q151.8 43.1 152.2 42.4Q152.35 42 152.7 41.95L152.95 41.9M17.15,44.75Q16.1 44.95 16.1 43.75Q15.95 42.6 17.15 42.4Q21.75 43.65 17.15 44.75M38.75,42.5Q43.3 45.35 37.9 44.25Q37.25 44.15 37.75 43.2Q38.1 42.55 38.75 42.5" />
<path style="fill:#FAD6AC;fill-opacity:1" d="M7.95,14.9L13.65 7.5L155.65 7.5L160.75 14.2L160.75 16.05L160.05 15.5L160.05 15.4Q155 10.75 153.3 10.3L152.7 10.2L149.45 10L148 10.05L145.95 10.1L145.45 10.1L143.2 10.1L142.2 10.1L138.05 10.1L133.55 10.1L85.05 10.15L74.95 10.15L21.45 10.25L19.6 10.3L14.55 10.8Q13.45 11.2 11.55 13.15L8.6 15.85L7.95 16.6L7.95 14.9" />
<path style="fill:#C4A05B;fill-opacity:1" d="M160.75,26.25Q160.5 26.85 160.55 27.9L160.45 30.15L160.2 32.25L159.25 35.7L157.6 37.6Q155.2 40.35 153.85 40.55L152.7 40.65L149.45 40.85L149.25 40.85L148.25 40.9Q149.95 41.95 146.45 42.45L145.95 42.45L145.95 42L145.45 42L144.8 41.9L143.2 41.6L143.2 41.5L142.8 41.5L142.2 41.5L138.05 41.55L136.05 41.55L133.55 41.55L85.05 41.45L80.55 41.4L74.95 41.35L71.65 41.3Q72.5 42.2 68.3 41.9Q67.5 41.85 67.35 41.25L59.3 41.15Q59.35 42 56.3 42.75Q54.8 43.15 53.5 42L52.9 41.1L50.95 41.1Q50.7 40.3 48.25 39.25Q47.7 39.3 47.3 39.8L47.05 40.15L47.1 41.05L21.45 40.95L20.85 40.9Q18.65 38.9 14.5 39.5L10.6 37.35L8.5 35.85L8.5 35.8L8.35 35.7L7.75 34.8L7.85 23.7L7.95 16.6L8.6 15.85L11.55 13.15Q13.45 11.2 14.55 10.8L19.6 10.3L21.45 10.25L74.95 10.15L85.05 10.15L133.55 10.1L138.05 10.1L142.2 10.1L143.2 10.1L145.45 10.1L145.95 10.1L148 10.05L149.45 10L152.7 10.2L153.3 10.3Q155 10.75 160.05 15.4L160.05 15.5L160.75 16.05L160.75 26.25M143.2,22.4L143.2 22.3Q148.65 21.75 147.15 21.4L143.2 20.95L143.2 20.9L142.2 20.9L139.65 20.85L138.05 20.85L136.05 20.85L133.55 20.85L85.05 21.05L74.95 21.2L69.25 21.35Q51.85 21.9 66.25 22.6L74.95 22.9L85.05 22.95L133.55 22.8L138.05 22.75L138.05 22.6L142.2 22.45L143.2 22.4M150.6,18.9L149.7 19.2L149.7 19.25L149.45 19.1L149.25 18.9Q148.3 19.05 148.2 19.9Q148 20.6 148.45 20.65L149.45 20.8L151.2 20.6Q151.7 20.6 150.6 18.9M123.25,33.6L121.15 33.9Q116.3 34.8 117.5 35.7L118.4 35.85Q137.4 37.95 126.75 35.7L123.25 33.6M152.7,30.15Q152.35 30.3 151.95 30.9Q151.05 32.55 151.2 35.55L151.2 35.7Q151.25 36 151.55 36L152.7 35.9L153.75 35.7Q155.65 34.05 152.8 30.15L152.7 30.15M54.8,15.7L21.45 15.75L13.3 16.4Q12 17.05 21.95 17.2Q31.85 17.3 48.25 16.7Q64.6 16.05 54.8 15.7M15.7,31.5Q15.7 35.25 16.8 34.8Q21.1 33.15 16.55 28.95Q15.8 28.95 15.7 31.5M36.15,33.9L35.75 34.5L35.35 35.55L35.35 35.7Q34.95 36.8 36.05 36.85Q40.95 37.2 38.05 35.7L36.5 33.6L36.15 33.9" />
<path style="fill:#AF8941;fill-opacity:1" d="M7.75,34.8L8.35 35.7L8.5 35.8L8.5 35.85L10.6 37.35L14.5 39.5Q18.65 38.9 20.85 40.9L21.45 40.95L47.1 41.05L47.05 40.15L47.3 39.8Q47.7 39.3 48.25 39.25Q50.7 40.3 50.95 41.1L52.9 41.1L53.5 42Q54.8 43.15 56.3 42.75Q59.35 42 59.3 41.15L67.35 41.25Q67.5 41.85 68.3 41.9Q72.5 42.2 71.65 41.3L74.95 41.35L80.55 41.4L85.05 41.45L133.55 41.55L136.05 41.55L138.05 41.55L142.2 41.5L142.8 41.5L143.2 41.5L143.2 41.6L144.8 41.9L145.45 42L145.95 42L145.95 42.45L146.45 42.45Q149.95 41.95 148.25 40.9L149.25 40.85L149.45 40.85L152.7 40.65L153.85 40.55Q155.2 40.35 157.6 37.6L159.25 35.7L160.2 32.25L160.45 30.15L160.55 27.9Q160.5 26.85 160.75 26.25L160.7 40.6L154.85 47.45L13 47.4L7.7 40.45L7.75 34.8M142.2,22.45L138.05 22.6L138.05 22.75L133.55 22.8L85.05 22.95L74.95 22.9L66.25 22.6Q51.85 21.9 69.25 21.35L74.95 21.2L85.05 21.05L133.55 20.85L136.05 20.85L138.05 20.85L139.65 20.85L142.2 20.9L143.2 20.9L143.2 20.95L147.15 21.4Q148.65 21.75 143.2 22.3L143.2 22.4L142.2 22.45M151.2,20.6L149.45 20.8L148.45 20.65Q148 20.6 148.2 19.9Q148.3 19.05 149.25 18.9L149.45 19.1L149.7 19.25L149.7 19.2L150.6 18.9Q151.7 20.6 151.2 20.6M126.75,35.7Q137.4 37.95 118.4 35.85L117.5 35.7Q116.3 34.8 121.15 33.9L123.25 33.6L126.75 35.7M152.8,30.15Q155.65 34.05 153.75 35.7L152.7 35.9L151.55 36Q151.25 36 151.2 35.7L151.2 35.55Q151.05 32.55 151.95 30.9Q152.35 30.3 152.7 30.15L152.8 30.15M152.7,41.95Q152.35 42 152.2 42.4Q151.8 43.1 152.3 43.1L152.7 43.2Q156 43.75 152.95 41.9L152.7 41.95M48.25,16.7Q31.85 17.3 21.95 17.2Q12 17.05 13.3 16.4L21.45 15.75L54.8 15.7Q64.6 16.05 48.25 16.7M16.55,28.95Q21.1 33.15 16.8 34.8Q15.7 35.25 15.7 31.5Q15.8 28.95 16.55 28.95M17.15,42.4Q15.95 42.6 16.1 43.75Q16.1 44.95 17.15 44.75Q21.75 43.65 17.15 42.4M36.5,33.6L38.05 35.7Q40.95 37.2 36.05 36.85Q34.95 36.8 35.35 35.7L35.35 35.55L35.75 34.5L36.15 33.9L36.5 33.6M37.75,43.2Q37.25 44.15 37.9 44.25Q43.3 45.35 38.75 42.5Q38.1 42.55 37.75 43.2" />
<path style="fill:#E0E0E0;fill-opacity:1" d="M164.15,11.65L163 10.85L156.5 3.75L155.15 2.85L157.75 3.1Q158.25 3.25 159.75 4.95L163.25 8.8Q165.2 10.95 165.5 11.75L165.5 13.05L164.15 11.65M3.15,12.35Q5.35 9 7.3 6.6L10.35 2.8L10.45 2.8Q11.1 3.25 11.1 3.7L11.05 4.4L5 12.25Q4 13.3 3.15 12.35M12.75,49.15L24.2 49.15L74.95 49.2L75.55 49.2L129.05 49.2L135.05 49.2L136.05 49.2L142.2 49.2L143.2 49.2L151.95 49.2L152.7 49.2L154.2 49.2L154.2 49.15L154.95 49.15Q156.05 49.75 154.9 50.25L154.2 50.25L154.2 50.3L20.05 50.3L17.8 50.4L14.5 50.3Q12.75 50.25 12.75 49.35L12.75 49.15" />
<path style="fill:#989898;fill-opacity:1" d="M5,12.25L11.05 4.4L11.1 3.7Q11.1 3.25 10.45 2.8L24.2 2.9L74.95 2.9L75.55 2.9L129.05 2.9L135.05 2.9L136.05 2.9L142.2 2.9L143.2 2.9L151.95 2.9L152.7 2.9L154.2 2.9L154.2 2.85L155.15 2.85L156.5 3.75L163 10.85L164.15 11.65L165.5 13.05L165.5 13.35L165.5 14.8L165.05 16.75L164.65 38.95L164.45 38.95L164.3 41.85L156.75 50.55L154.2 50.6L154.2 50.65L10.6 50.85L2.75 41.1L2.8 38.95L2.85 38.95L2.9 12.65L3.15 12.35Q4 13.3 5 12.25M162.8,12.05L156.85 4.7L154.2 4.7L154.2 4.75L74.95 4.75L24.2 4.7L11.95 4.6L5.3 12.85L6 15.85L6 19.2L5.95 26.45L5.95 31.95L5.95 36.2L5.95 36.25L5.95 38.95L5.85 38.95L5.8 41.25Q11.55 48 11.95 48.85L12.2 49.15L12.75 49.15L12.75 49.35Q12.75 50.25 14.5 50.3L17.8 50.4L20.05 50.3L154.2 50.3L154.2 50.25L154.9 50.25Q156.05 49.75 154.95 49.15L155.2 49.15L156.3 48.15L162.35 40.85L162.35 38.95L162.4 38.95L162.4 36.25L162.4 36.2L162.4 31.95L162.4 26.45L162.4 19.2L162.4 18.55L162.4 16.8L162.4 15.55L162.8 12.05" />
<path style="fill:#333333;fill-opacity:1" d="M154.2,2.85L154.2 2.9L152.7 2.9L151.95 2.9L143.2 2.9L142.2 2.9L136.05 2.9L135.05 2.9L129.05 2.9L75.55 2.9L74.95 2.9L24.2 2.9L10.45 2.8L10.35 2.8L7.3 6.6Q5.35 9 3.15 12.35L2.9 12.65L2.85 38.95L2.8 38.95L2.75 41.1L2.75 42.65Q5 46.45 7.15 49.15L9.9 52.2L137.7 52.4L142.2 52.45L143.2 52.45L151.95 52.5L152.7 52.5L154.2 52.5L154.2 52.45L156.75 52.3Q157.55 52.2 158.6 51.45L161.9 47.75L165.45 43.05L165.5 38.95L165.5 37.6L165.5 36.2L165.5 31.95L165.5 26.45L165.5 19.2L165.5 14.8L165.5 13.35L165.5 13.05L165.5 11.75Q165.2 10.95 163.25 8.8L159.75 4.95Q158.25 3.25 157.75 3.1L155.15 2.85L154.2 2.85M154.2,49.15L154.2 49.2L152.7 49.2L151.95 49.2L143.2 49.2L142.2 49.2L136.05 49.2L135.05 49.2L129.05 49.2L75.55 49.2L74.95 49.2L24.2 49.15L12.75 49.15L12.2 49.15L11.95 48.85Q11.55 48 5.8 41.25L5.85 38.95L5.95 38.95L5.95 36.25L5.95 36.2L5.95 31.95L5.95 26.45L6 19.2L6 15.85L6 14.25Q11.8 6.5 12.85 5.7L24.2 5.8L74.95 5.85L75.55 5.85L129.05 5.85L135.05 5.85L136.05 5.85L142.2 5.85L143.2 5.85L151.95 5.85L152.7 5.85L154.2 5.85L154.2 5.8L155.9 5.8L162.4 13.95L162.4 15.55L162.4 16.8L162.4 18.55L162.4 19.2L162.4 26.45L162.4 31.95L162.4 36.2L162.4 36.25L162.4 38.95L162.35 38.95L162.35 40.85L156.3 48.15L155.2 49.15L154.95 49.15L154.2 49.15M167.7,19.2L167.75 26.45L167.75 31.95L167.8 31.95L167.8 36.2L167.8 36.25L167.8 37.6L167.8 38.95L167.8 43L160.6 51.95Q159.3 53.5 157.85 54.2L9.05 54Q2.35 46.7 0.55 42.95L0.45 38.95L0.4 38.95L0.4 36.95L0.4 36.2L0.4 31.95L0.4 26.45L0.5 19.2L0.8 11.9L9.5 0.75L24.2 0.85L74.95 0.9L151.95 0.9L151.95 0.85L158.85 0.85L167.35 10.3L167.7 19.2M154.2,7.45L154.2 7.5L13.65 7.5L7.95 14.9L7.8 38.95L7.75 38.95L7.7 40L13 46.95L151.95 47L151.95 46.95L154.35 46.95L160.2 40.1L160.2 36.25L160.25 36.25L160.25 36.2L160.2 36.2L160.25 31.95L160.25 26.45L160.25 19.2L160.25 14.15L155.15 7.45L154.2 7.45" />
<path style="fill:#707070;fill-opacity:1" d="M10.6,50.85L154.2 50.65L154.2 50.6L156.75 50.55L164.3 41.85L164.45 38.95L164.65 38.95L165.05 16.75L165.5 14.8L165.5 19.2L165.5 26.45L165.5 31.95L165.5 36.2L165.5 37.6L165.5 38.95L165.45 43.05L161.9 47.75L158.6 51.45Q157.55 52.2 156.75 52.3L154.2 52.45L154.2 52.5L152.7 52.5L151.95 52.5L143.2 52.45L142.2 52.45L137.7 52.4L9.9 52.2L7.15 49.15Q5 46.45 2.75 42.65L2.75 41.1L10.6 50.85M162.4,15.55L162.4 13.95L155.9 5.8L154.2 5.8L154.2 5.85L152.7 5.85L151.95 5.85L143.2 5.85L142.2 5.85L136.05 5.85L135.05 5.85L129.05 5.85L75.55 5.85L74.95 5.85L24.2 5.8L12.85 5.7Q11.8 6.5 6 14.25L6 15.85L5.3 12.85L11.95 4.6L24.2 4.7L74.95 4.75L154.2 4.75L154.2 4.7L156.85 4.7L162.8 12.05L162.4 15.55" />
</g>
</svg>
