<?xml version="1.0" encoding="utf-8"?>
<svg version="1.1" id="Layer_1"
xmlns="http://www.w3.org/2000/svg"
xmlns:xlink="http://www.w3.org/1999/xlink"
xmlns:author="http://www.sothink.com"
width="81px" height="49px"
xml:space="preserve">
<g id="699" transform="matrix(1, 0, 0, 1, 0, 0)">
<path style="fill:#695F62;fill-opacity:1" d="M70.85,15.75L69.3 16.6L70.4 15L70.9 13.35L71 12.35L70.9 12.4L70 12.7L69.25 12.9L68.5 13.05L65.4 13.2L67.05 12.65L71 11.15L73.3 10Q73.65 11.95 71.85 15.1L70.85 15.75M75.2,26.15L72.35 24.95L71 24.6L71.75 24.4Q73.5 24.25 75.05 24.8L74.8 24.45L74.35 24L71.75 21.5L71.35 21.2L71.55 21.15L72.3 21.35Q73.3 21.7 75.1 23.2Q76.85 24.7 77.35 26.1L77.95 27.8L75.2 26.15M65.9,28.2Q65.55 28.75 65.75 29.75L65.9 30.5Q67.2 34.85 70.05 36.45L68.9 36.55L68.85 36.55L68.1 36.35L66.6 35.8L65.45 35.2L64.1 34.3L64.35 34.35L66.3 34.5L66.2 34.25L66 33.9Q65.1 32.15 64.95 30.15L64.85 29L64.85 28.2L65.9 28.2M58.55,41.2L57.95 40.4L56.55 38.9L57 38.95L57.65 39.15Q58.5 39.4 59.1 39.95Q59.75 39.3 59.95 38.25L60.2 36.15L60.2 35.4L60.4 36.05L60.6 38.95Q60.55 40.15 59.3 42.7L58.55 41.2M47.45,37.65L47.7 37.45L47.9 39L48.2 40.4L48.85 41.9L49.2 42.45Q49.1 43.5 49.3 44.5Q48 43.4 47.75 42.35Q47.4 41.2 47.25 38L47.45 37.65M40.3,41.65L40.1 41.55Q41.8 39.25 41.95 38.1L41.75 36.35L42 36.2L42.65 35.85L42.8 35.75L42.85 36Q43.15 36.85 42.95 37.65L42.9 38L42.7 38.9L42.6 39.15L42.55 39.25L42.45 39.5L41.9 40.15L41.75 40.4Q43.95 39.45 45.95 37.75L45.1 38.95Q44.05 40.2 42.65 41Q41.5 41.6 40.3 41.65M12.4,43.4L11.55 41.75Q11 40.2 11.15 38.5Q11.2 37.1 11.7 35.3L12 35.15Q11.85 36 11.85 36.9L11.85 38.5Q11.8 40.05 12.6 41.4L12.55 41.5L12.4 43.4M9.6,25.75Q7.95 26.75 6 26.95L5.6 26.95L5.35 27L5.5 27.1L6 27.5L6.6 27.9L6.75 28L6.85 28.1L7.3 28.4L5.75 28L4.3 27.45L2.4 26.45L2.25 26.25Q7.55 26 9.05 24.2L10.2 25.15L10.3 25.2L9.6 25.75" />
<path style="fill:#101010;fill-opacity:1" d="M64.7,13.4L61.85 13.55Q61.45 12.8 61.55 12.3Q62.4 10.1 62.7 7.85Q62.95 5.65 62.7 3.5Q61.05 6.85 58.4 8.75L57.8 9.15L54 10.95Q51.65 11.85 51.15 11.15L50.1 9.65Q49.5 8.85 48.35 6.1Q46.8 6.7 45.65 8.35Q44.45 9.95 44 9.7L42.45 8.15Q41.4 6.85 38.4 5.65Q37.3 10.7 32.9 12.2Q30.75 11.95 29.9 9.15Q28.8 5.55 29.7 4.55Q24.35 6.6 23.5 9.7Q22.65 12.75 21.75 12.25L21.3 12.15Q16.15 8.6 10.4 10.1L10.7 10.35Q12.6 12.2 12.85 14.8L12.85 16.3L12.55 18.5L12 19.35L11.7 19.2Q10.85 18.25 9.15 18.05Q7.45 17.8 4.75 18.9L4.55 19Q7.2 20.35 7.85 21.8Q8.45 23.15 9.6 21.9Q9.8 23.25 9.05 24.2Q7.55 26 2.25 26.25L2.4 26.45Q4.4 29.25 7.6 31L7.75 30.95Q10.3 30.35 11.15 32.25L11.15 32.4L9.85 32.5Q6.15 32.95 3.7 35.8L3.9 35.8L8.25 36.4L9.2 36.6Q9.85 35.45 11.95 34.35L11.7 35.3Q11.2 37.1 11.15 38.5Q11 40.2 11.55 41.75L12.4 43.4L13.3 44.45Q13.75 40.1 16.35 37.15L17.7 35.7Q19.6 33.75 21.45 32.55Q23.95 30.85 27.1 30.15L29.65 29.7Q31.4 29.55 33.1 29.75Q36 30.1 38.35 31.8Q40.65 33.5 41.35 35.2L41.75 36.35L41.95 38.1Q41.8 39.25 40.1 41.55L40.3 41.65L41.75 42.05L43.6 42.2L45.45 41.75L45.85 41.6L45.85 41.5Q45.9 39.8 47.2 37.8L47.25 38Q47.4 41.2 47.75 42.35Q48 43.4 49.3 44.5L49.6 44.75Q51.15 46 50.95 45.2Q51.25 42.9 52.5 40.65Q53.7 38.4 55.7 40.15Q57.65 41.9 58.7 43.85L59.3 42.7Q60.55 40.15 60.6 38.95L60.4 36.05L60.2 35.4L59.3 33.5L59.15 33.3Q58.55 32.35 59.1 32.25L60.4 33.1L62.45 35.15L63.25 35.55Q65.7 36.75 68.85 36.55L68.9 36.55L70.05 36.45Q67.2 34.85 65.9 30.5L65.75 29.75Q65.55 28.75 65.9 28.2Q66.2 27.6 67 27.45Q73.7 25.55 78.1 28.3L77.95 27.8L77.35 26.1Q76.85 24.7 75.1 23.2Q73.3 21.7 72.3 21.35L71.55 21.15L71.25 21.1L70.7 21.1L68.4 21.55Q66.7 21.85 65.35 20.4L66.6 20.15Q68.2 19.6 69.5 18.35Q70.8 17.05 71.25 15.95L71.3 15.95L71.85 15.1Q73.65 11.95 73.3 10L71 11.15L67.05 12.65L65.4 13.2L64.7 13.4M75.05,9.6Q75.25 14.85 71.9 19.05Q79.95 20.95 80.5 30.5L80.55 30.8L80.55 31.3L80.45 31.45L80.2 31.7Q75.55 28.3 67.9 29Q68.45 33.45 70.85 35.25Q72.5 36.5 72.6 36.9Q72.75 37.45 71.15 38.1Q66 39.6 62.2 37.7Q62.45 42.15 60.1 45.2Q58.7 47.4 57.55 45.3Q56.5 43.3 54.6 41.75Q53.25 43.3 52.75 46.1Q52.7 49.6 49.85 47.4Q46.95 45.2 45.85 43.55Q43.9 44.5 41.7 44.05Q39.5 43.55 38.35 42.95Q37.25 42.35 39 40.15Q40.35 38.4 40.1 36.9L39.8 36.05Q38.8 34.15 37.75 33.3Q33.9 31.05 30.8 31.4L29.65 31.55L26.05 32.35Q24.4 32.95 22.75 33.8Q21.1 34.65 18.7 37.1Q16.3 39.5 15.65 42.3L14.8 46.15Q14.55 47.25 13.35 46.75Q11.45 45.85 10.4 43.8Q9.65 42.35 9.2 40.2L9.05 38.35L6.9 37.8L1.7 37.25Q0.45 37.1 1.4 35.6L3.1 33.45Q4.35 32.3 5.3 31.8Q3.85 31.45 2 29.15Q0.15 26.8 0 25.95Q-0.15 25.05 1.8 24.75Q6 24.25 6.55 23.6Q7.1 23.3 4 20.8Q1.15 19.1 1.95 18.5Q2.75 17.85 4.4 17.15Q6 16.45 7.55 16.3L10.85 16.5L10.9 14.8Q10.65 12.6 8.65 11.15Q7.1 10.2 7.6 9.4L8.3 8.8Q9.65 8.15 11.85 7.8Q19.3 7.4 21.55 10.35Q21.2 8.6 23.75 6Q26.3 3.4 29.75 2.95L30.95 3L31 2.95Q31.7 2.9 32.05 3.45L32.15 3.65Q29.65 7.7 32.85 10.25Q35.35 10 36.7 5.35Q36.8 2.85 39.7 4.3Q43 5.65 44.25 7.4Q44.7 6.6 46.15 5.45Q47.25 4.6 48.5 4.2L49.7 4.25Q50.55 7.85 52.55 9.45Q57.6 8.05 61.65 1.8Q62.8 -0.45 63.6 0.15Q64.4 0.75 65.05 3.55Q65.6 6.05 64.2 10.75L63.9 11.65L64.55 11.55Q68.15 10.85 73.6 7.55Q74.75 6.5 75.05 9.6M55.55,15.9Q54.7 15.85 54.15 15.45L60.05 13.3L59.85 16.05L59.6 16.7L59.1 17.6L58.6 18.05Q57 19.3 57.5 18.2L57.85 17.65Q58.35 16.55 58.3 15.3Q58.15 15.65 56.4 15.85L55.55 15.9M56.2,20.85L56.55 20.7L56.75 20.65L58.1 21.15Q61.95 22.85 61.6 27.6L61.35 28.7L60.85 29.7Q60.7 29.9 60.1 29.45L59.05 28.55Q57.5 27.1 53.65 27.4Q53.35 27.25 53.75 26.9Q54.1 26.55 54.75 26.35L55.95 26.1L57.85 26.4Q59.25 26.75 59.9 27.6Q60.5 28.35 60.05 25.9L60 25.7Q59.5 22.95 57.85 21.95L57.35 21.65L56.2 20.85" />
<path style="fill:#3F3437;fill-opacity:1" d="M68.95,16.7L65.1 17.45L64.1 17.55L63.3 17.5L63.35 17.4Q64.8 16.15 64.75 14.15L64.7 13.4L65.4 13.2L68.5 13.05L69.25 12.9L70 12.7L70.9 12.4L71 12.35L70.9 13.35L70.4 15L69.3 16.6L68.95 16.7M59.15,33.3L59.3 33.5L60.2 35.4L60.2 36.15L59.95 38.25Q59.75 39.3 59.1 39.95Q58.5 39.4 57.65 39.15L57 38.95L56.55 38.9L55.5 38.2Q55.6 37.1 56.15 36.15L56.9 35Q57.75 33.7 59.15 33.3M3.9,35.8L3.7 35.8Q6.15 32.95 9.85 32.5L9.8 33L9.5 33.75L8.5 34.75L6.25 35.1L3.9 35.8M4.75,18.9Q7.45 17.8 9.15 18.05Q10.85 18.25 11.7 19.2L12 19.35L11.65 20.35L11.2 20.75L10.55 21L10.25 20.75L9.1 19.9L7.9 19.3L6.5 19L4.75 18.9M12.55,18.5L12.85 16.3L12.85 14.8Q12.6 12.2 10.7 10.35Q11.95 10.95 13 11.85L14.2 12.9L15.05 14.05L15.45 14.8L16.2 17.1L16.15 18.25Q15.5 18.85 14.5 18.85L12.55 18.5M59.45,11.2L57.6 12.15Q57.15 12.25 57.1 12Q57.5 11.65 57.7 11L57.95 10.4L58.4 8.75Q61.05 6.85 62.7 3.5Q62.95 5.65 62.7 7.85Q61.4 9.8 59.45 11.2M71,24.6L68.85 24.35L67.75 24.35L68.2 23.65L69.6 22.15Q70.4 21.45 71.35 21.2L71.75 21.5L74.35 24L74.8 24.45L75.05 24.8Q73.5 24.25 71.75 24.4L71 24.6M56.4,15.85Q58.15 15.65 58.3 15.3Q58.35 16.55 57.85 17.65Q56.8 17.45 56.1 16.8L55.7 16.35L55.55 15.9L56.4 15.85M59.2,25.4Q57.9 24.8 56.45 24.75L56.55 23.25L56.75 22.5Q57 22 57.35 21.65L57.85 21.95Q59.5 22.95 60 25.7L60.05 25.9L59.2 25.4M54,34.4Q51.15 32.1 49.9 31.55L50.9 30.95Q51.7 30.4 52.35 29.15Q54.3 30.3 54.55 31.9Q54.75 33.5 54 34.4M43.45,35.3L44.35 34.6L45.85 33.1L46.3 33.7Q46.75 34.55 46.65 35.5Q46.5 36.7 45.95 37.75Q43.95 39.45 41.75 40.4L41.9 40.15L42.45 39.5L42.55 39.25L42.6 39.15L42.7 38.9L42.9 38L42.95 37.65Q43.15 36.85 42.85 36L42.8 35.75Q43.15 35.55 43.45 35.3M47.7,37.45L48 37.2L48.9 36.95L49.65 36.85Q50.75 36.8 51.65 37.45Q50.7 38.1 50.15 39.15L49.55 40.7L49.2 42.4L49.2 42.45L48.85 41.9L48.2 40.4L47.9 39L47.7 37.45M63.8,34.05L62.85 33.15Q61.75 32.1 61.4 30.65L61.5 30.4Q62.45 28.7 64.45 28.25L64.85 28.2L64.85 29L64.95 30.15Q65.1 32.15 66 33.9L66.2 34.25L66.3 34.5L64.35 34.35L64.1 34.3L63.8 34.05M18.15,29.75L17.9 30.2L17 30L15.75 30Q14 30.05 12.55 30.9L12.6 30.55L12.9 29.85Q14 28.2 15.8 27.3L17.15 26.75L18.35 26.6L18.5 27.25Q18.7 28.55 18.15 29.75M10.3,25.2L10.85 25.9L11.15 26.6Q11.3 27.45 11.05 28.15L9.25 28.5L7.3 28.4L6.85 28.1L6.75 28L6.6 27.9L6 27.5L5.5 27.1L5.35 27L5.6 26.95L6 26.95Q7.95 26.75 9.6 25.75L10.3 25.2M12.6,41.4Q11.8 40.05 11.85 38.5L11.85 36.9Q11.85 36 12 35.15L13.2 34.7L14.25 34.55L15.5 34.5L16 34.55L15 35.75L14.5 36.6Q13.45 38.15 12.9 40L12.6 41.4" />
<path style="fill:#1E1415;fill-opacity:1" d="M6.25,35.1L8.5 34.75L9.5 33.75L9.8 33L9.85 32.5L11.15 32.4L11.15 32.25Q10.3 30.35 7.75 30.95L7.6 31Q4.4 29.25 2.4 26.45L4.3 27.45L5.75 28L7.3 28.4L9.25 28.5L11.05 28.15Q11.3 27.45 11.15 26.6L10.85 25.9L10.3 25.2L10.2 25.15L9.05 24.2Q9.8 23.25 9.6 21.9Q8.45 23.15 7.85 21.8Q7.2 20.35 4.55 19L4.75 18.9L6.5 19L7.9 19.3L9.1 19.9L10.25 20.75L10.55 21L11.2 20.75L11.65 20.35L12 19.35L12.55 18.5L14.5 18.85Q15.5 18.85 16.15 18.25L16.2 17.1L15.45 14.8L15.05 14.05L14.2 12.9L13 11.85Q11.95 10.95 10.7 10.35L10.4 10.1Q16.15 8.6 21.3 12.15L21.75 12.25Q22.65 12.75 23.5 9.7Q24.35 6.6 29.7 4.55Q28.8 5.55 29.9 9.15Q30.75 11.95 32.9 12.2Q37.3 10.7 38.4 5.65Q41.4 6.85 42.45 8.15L44 9.7Q44.45 9.95 45.65 8.35Q46.8 6.7 48.35 6.1Q49.5 8.85 50.1 9.65L51.15 11.15Q51.65 11.85 54 10.95L57.8 9.15L58.4 8.75L57.95 10.4L57.7 11Q57.5 11.65 57.1 12Q57.15 12.25 57.6 12.15L59.45 11.2Q61.4 9.8 62.7 7.85Q62.4 10.1 61.55 12.3Q61.45 12.8 61.85 13.55L64.7 13.4L64.75 14.15Q64.8 16.15 63.35 17.4L63.3 17.5L64.1 17.55L65.1 17.45L68.95 16.7L69.3 16.6L70.85 15.75L71.85 15.1L71.3 15.95L71.25 15.95Q70.8 17.05 69.5 18.35Q68.2 19.6 66.6 20.15L65.35 20.4Q66.7 21.85 68.4 21.55L70.7 21.1L71.25 21.1L71.55 21.15L71.35 21.2Q70.4 21.45 69.6 22.15L68.2 23.65L67.75 24.35L68.85 24.35L71 24.6L72.35 24.95L75.2 26.15L77.95 27.8L78.1 28.3Q73.7 25.55 67 27.45Q66.2 27.6 65.9 28.2L64.85 28.2L64.45 28.25Q62.45 28.7 61.5 30.4L61.4 30.65Q61.75 32.1 62.85 33.15L63.8 34.05L64.1 34.3L65.45 35.2L66.6 35.8L68.1 36.35L68.85 36.55Q65.7 36.75 63.25 35.55L62.45 35.15L60.4 33.1L59.1 32.25Q58.55 32.35 59.15 33.3Q57.75 33.7 56.9 35L56.15 36.15Q55.6 37.1 55.5 38.2L56.55 38.9L57.95 40.4L58.55 41.2L59.3 42.7L58.7 43.85Q57.65 41.9 55.7 40.15Q53.7 38.4 52.5 40.65Q51.25 42.9 50.95 45.2Q51.15 46 49.6 44.75L49.3 44.5Q49.1 43.5 49.2 42.45L49.2 42.4L49.55 40.7L50.15 39.15Q50.7 38.1 51.65 37.45Q50.75 36.8 49.65 36.85L48.9 36.95L48 37.2L47.7 37.45L47.45 37.65L47.25 38L47.2 37.8Q45.9 39.8 45.85 41.5L45.85 41.6L45.45 41.75L43.6 42.2L41.75 42.05L40.3 41.65Q41.5 41.6 42.65 41Q44.05 40.2 45.1 38.95L45.95 37.75Q46.5 36.7 46.65 35.5Q46.75 34.55 46.3 33.7L45.85 33.1L44.35 34.6L43.45 35.3Q43.15 35.55 42.8 35.75L42.65 35.85L42 36.2L41.75 36.35L41.35 35.2Q40.65 33.5 38.35 31.8Q36 30.1 33.1 29.75Q31.4 29.55 29.65 29.7L27.1 30.15Q23.95 30.85 21.45 32.55Q19.6 33.75 17.7 35.7L16.35 37.15Q13.75 40.1 13.3 44.45L12.4 43.4L12.55 41.5L12.6 41.4L12.9 40Q13.45 38.15 14.5 36.6L15 35.75L16 34.55L15.5 34.5L14.25 34.55L13.2 34.7L12 35.15L11.7 35.3L11.95 34.35Q9.85 35.45 9.2 36.6L8.25 36.4L3.9 35.8L6.25 35.1M63.45,15.85L63.45 15.8L63.3 15.9L63.45 15.85M57.5,18.2Q57 19.3 58.6 18.05L59.1 17.6L59.6 16.7L59.85 16.05L60.05 13.3L54.15 15.45Q54.7 15.85 55.55 15.9L55.7 16.35L56.1 16.8Q56.8 17.45 57.85 17.65L57.5 18.2M57.35,21.65Q57 22 56.75 22.5L56.55 23.25L56.45 24.75Q57.9 24.8 59.2 25.4L60.05 25.9Q60.5 28.35 59.9 27.6Q59.25 26.75 57.85 26.4L55.95 26.1L54.75 26.35Q54.1 26.55 53.75 26.9Q53.35 27.25 53.65 27.4Q57.5 27.1 59.05 28.55L60.1 29.45Q60.7 29.9 60.85 29.7L61.35 28.7L61.6 27.6Q61.95 22.85 58.1 21.15L56.75 20.65L56.55 20.7L56.2 20.85L57.35 21.65M54.55,31.9Q54.3 30.3 52.35 29.15Q51.7 30.4 50.9 30.95L49.9 31.55Q51.15 32.1 54 34.4Q54.75 33.5 54.55 31.9M18.5,27.25L18.35 26.6L17.15 26.75L15.8 27.3Q14 28.2 12.9 29.85L12.6 30.55L12.55 30.9Q14 30.05 15.75 30L17 30L17.9 30.2L18.15 29.75Q18.7 28.55 18.5 27.25" />
<path style="fill:#1C202A;fill-opacity:1" d="M63.3,15.9L63.45 15.8L63.45 15.85L63.3 15.9" />
</g>
</svg>
