<?xml version="1.0" encoding="utf-8"?>
<svg version="1.1" id="Layer_1"
xmlns="http://www.w3.org/2000/svg"
xmlns:xlink="http://www.w3.org/1999/xlink"
xmlns:author="http://www.sothink.com"
width="9px" height="9px"
xml:space="preserve">
<g id="1579" transform="matrix(1, 0, 0, 1, 0, 0)">
<path style="fill:#0A7726;fill-opacity:1" d="M8.15,2.75L8.25 3.05L8.25 5.3L8.15 5.5L7.85 5.65L5.55 5.65L5.55 7.9L5.5 8.2L5.2 8.25L2.95 8.25L2.75 8.2L2.6 7.9L2.6 5.65L0.35 5.65L0.05 5.5L0 5.3L0 3.05L0.05 2.75L0.35 2.7L2.6 2.7L2.6 0.4L2.75 0.15L2.95 0L5.2 0Q5.35 0 5.5 0.15L5.55 0.4L5.55 2.7L7.85 2.7L8.15 2.75M3.3,3.05L3.25 3.3L2.95 3.45L0.7 3.45L0.7 4.55L0.7 4.9L2.95 4.9L3.25 5L3.3 5.3L3.3 7.6L4.9 7.6L4.9 7.45L4.9 5.3L4.95 5L5.2 4.9L7.5 4.9L7.5 4.25L7.5 3.45L5.2 3.45L4.95 3.3L4.9 3.05L4.9 0.75L3.3 0.75L3.3 1.1L3.3 3.05" />
<path style="fill:#6DFC58;fill-opacity:1" d="M7.1,3.95L5.6 3.8L5.05 3.8Q4.65 3.85 4.6 3.95L4.6 3.15L4.6 1.85Q4.6 1.1 4.3 1.1L3.45 1.1L3.3 1.1L3.3 0.75L4.9 0.75L4.9 3.05L4.95 3.3L5.2 3.45L7.5 3.45L7.5 4.25L7.1 3.95" />
<path style="fill:#57D723;fill-opacity:1" d="M3.9,7.15L3.7 5.9L3.45 4.75Q3.4 4.45 3 4.45L0.7 4.55L0.7 3.45L2.95 3.45L3.25 3.3L3.3 3.05L3.3 1.1L3.45 1.1L4.3 1.1Q4.6 1.1 4.6 1.85L4.6 3.15L4.6 3.95Q4.65 3.85 5.05 3.8L5.6 3.8L7.1 3.95L7.5 4.25L7.5 4.9L5.2 4.9L4.95 5L4.9 5.3L4.9 7.45L3.9 7.15" />
<path style="fill:#12A610;fill-opacity:1" d="M4.9,7.45L4.9 7.6L3.3 7.6L3.3 5.3L3.25 5L2.95 4.9L0.7 4.9L0.7 4.55L3 4.45Q3.4 4.45 3.45 4.75L3.7 5.9L3.9 7.15L4.9 7.45" />
</g>
</svg>
