<?xml version="1.0" encoding="utf-8"?>
<svg version="1.1" id="Layer_1"
xmlns="http://www.w3.org/2000/svg"
xmlns:xlink="http://www.w3.org/1999/xlink"
xmlns:author="http://www.sothink.com"
width="154px" height="150px"
xml:space="preserve">
<g id="923" transform="matrix(1, 0, 0, 1, 0, 0)">
<path style="fill:#FDFFFC;fill-opacity:1" d="M90.5,15L86.5 25.25L97.5 6.25L97.25 22.5L92.25 35L95 34L95 37L103 27.5L122.5 14.75L101.5 41.5L106.5 38L106.5 41.5L132.25 22.25L112 46L117.75 46.5L115.25 51.5L125 50.25L123.75 55L154 45.75L124.5 60.25L152.5 59.75L113.75 72.75L116.25 77.5L123.5 78.5L133.75 84.75L124 86L137.75 98L107.25 91L123.5 103L108 101.5L120.25 118.5L110 114.25L125.5 134L102.25 117.25L105.75 122.5L101 121.25L112 134.75L111.5 139.75L97 124.75L97.75 130.5L91.5 124.75L101 145.75L86.25 125.25L80.75 125.5L80.25 136.5L75.5 131.5L74.5 148.5L68.5 131.5L65 138.5L62.5 129.25L57.25 149.75L56.5 131.75L53 133.75L50.5 129.5L41.5 144.75L42.75 128.75L35.5 140.5L39.5 126.25L25.75 138.5L32 122.25L29.45 122.3L19.25 131L23.25 123.25L13.75 125.25L21 118.5L22.5 113.25L14.75 115.25L20.5 107.25L19.5 100.5L9.75 103.5L14.25 97.75L10.25 97.25L15 94.5L2 97L19 89L8.5 87.25L15.75 82.75L4.75 79.75L11 77.75L3 74.75L0 70.5L12 68.5L4.5 58.75L20.25 59.25L6 48L23.75 54.5L13.75 44.25L14 42.5L3 32.25L25 44.75L8.5 22.75L19.75 30.75L20 27L28.75 38L27.75 33.75L32 36.75L26.25 24.25L24.75 16.5L37.75 32L35.75 23L41.75 31L40.75 19.75L46.5 30.5L48.75 31L48.5 17.75L53.5 26.25L56 22L60.25 25.25L62.75 0L66.75 9.25L67.75 28.75L78.5 15.25L77.25 30L89.25 4L90.5 15" />
</g>
</svg>
