<?xml version="1.0" encoding="utf-8"?>
<svg version="1.1" id="Layer_1"
xmlns="http://www.w3.org/2000/svg"
xmlns:xlink="http://www.w3.org/1999/xlink"
xmlns:author="http://www.sothink.com"
width="80px" height="59px"
xml:space="preserve">
<g id="951" transform="matrix(1, 0, 0, 1, 1.45, 1.1)">
<path style="fill:#FFBC35;fill-opacity:1" d="M71.7,10.6Q71.1 10.45 70.7 10.85Q70.2 11.25 70.2 11.9Q70.2 12.5 70.7 13.1Q71.2 13.65 71.75 13.75Q72.4 13.8 72.9 13.4Q73.25 13.05 73.25 12.4Q73.25 11.8 72.85 11.25L71.7 10.6M67.9,11.6Q66.95 12.6 66.95 14.05Q66.95 15.55 67.9 16.55Q69 17.6 70.45 17.6Q71.85 17.6 72.95 16.55Q73.95 15.55 73.95 14.05L73.95 13.95L73.3 14.8Q72.5 15.65 71.3 15.65Q70.1 15.65 69.25 14.8Q68.4 13.95 68.4 12.75Q68.4 11.6 69.2 10.8Q68.5 11 67.9 11.6M70.45,9.2Q72.45 9.2 73.85 10.65Q75.3 12.05 75.3 14.05Q75.3 16.1 73.85 17.5Q72.45 19 70.45 19Q68.45 19 67 17.5Q65.6 16.1 65.6 14.05Q65.6 12.05 67 10.65Q68.45 9.2 70.45 9.2M67.35,21.95L67.5 20.55Q68.8 21.15 70.45 21.15L70.6 21.15Q69.35 23.05 67.8 27.5Q66 32.65 65.05 37.05L59.5 35.2Q55.9 33.85 54.8 34L50.25 33.8Q46.75 33.6 44.15 32.2L40.4 30.3Q39.25 29.7 38.7 29.65Q38.25 29.55 35.55 31.35Q32.95 33.2 28 33.6L22 34Q20.9 33.85 17.3 35.2L11.75 37.05Q10.8 32.65 9 27.5Q7.45 23.05 6.2 21.15L6.35 21.15Q8 21.15 9.3 20.55Q9.25 21.4 9.6 22.45Q10.55 25.95 12.7 28.3Q14.85 30.6 17.55 31.45Q20.4 32.3 22.75 32Q25.05 31.6 27 30.7Q28.85 29.75 30.85 27.75Q32.85 25.85 34 23.6Q35.2 21.35 35.7 18.75L36.4 14.6L37.5 14.9L37.95 14.95L38.35 14.95L38.4 14.95L38.85 14.95L39 14.95L39 17.15Q39.3 20.75 40.4 23.7Q44 33.25 54.75 33.55L56.6 33.6Q58.9 33.5 60.85 32.75Q67 30.25 67.35 21.95M40.9,4.05Q40.45 3.45 39.85 3.4L38.75 3.6Q38.35 4.05 38.35 4.7L38.75 5.85Q39.25 6.4 39.9 6.5Q40.5 6.6 40.95 6.2L41.4 5.15Q41.4 4.6 40.9 4.05M40.6,8.25L40.2 8.55L40.1 8.6L39.6 8.75L39.15 8.75L38.7 8.75L38.2 8.6L38.1 8.55L37.7 8.25L37.2 7.9L36.9 7.6Q36.4 6.85 36.4 5.85Q36.4 4.75 37.1 3.9L35.95 4.75Q34.85 5.8 34.85 7.35Q34.85 8.6 35.5 9.55L35.95 10.05L36.5 10.45L36.95 10.75L37.05 10.85L37.85 11.1L38.35 11.15L38.9 11.1L39.7 10.85L39.8 10.75L40.3 10.45L40.8 10.05L41.25 9.55Q41.9 8.6 41.9 7.35L41.85 6.6L41.4 7.6L41.1 7.9L40.6 8.25M41.8,11.05L41 11.7L40.35 12.1L40.15 12.2L39.1 12.55L38.4 12.6L38.35 12.6L37.7 12.55L36.6 12.2L36.45 12.1L35.75 11.7L34.95 11.05L34.45 10.4Q33.45 9.15 33.45 7.4Q33.45 5.2 34.95 3.7Q36.4 2.4 38.2 2.2L38.35 2.15L38.4 2.15L38.6 2.2Q40.4 2.4 41.8 3.7Q43.35 5.2 43.35 7.4Q43.35 9.15 42.35 10.4L41.8 11.05M65.8,44.95L64.9 44.85Q64.1 44.7 58.7 45.9L47.45 47.9L38.4 48.55L38.35 48.55L29.35 47.9L18.1 45.9Q12.7 44.7 11.9 44.85L11 44.95L9.85 43.35Q8.8 41.75 11.75 40.2Q12.5 39.8 13.75 39.3L14.45 39.05Q20.45 37.55 21.6 37.55L28.5 38.05Q36.6 38.2 38.5 35.85L44.3 38.05Q49.75 39.3 53.2 38.75Q56.55 38.15 60.25 39.4Q63.95 40.5 66.9 43.45L65.8 44.95M55.6,45.6L65.2 43.7L60.9 42.65Q53.3 44.8 47.2 45.3L39.85 45Q35.15 42.9 38.7 38.45L39 38.3Q31.6 40.3 27.4 39.65L22.45 38.5L19.7 38.6Q17.8 39.15 15.25 40.2Q12.7 41.25 10.9 42.6L11.3 43.35L11.75 43.95L15.1 44.05Q19.05 44.5 22.3 45.55L29.25 46.85Q37.7 48.05 45.35 47.3L55.6 45.6M64.6,50.55Q50.55 53.8 45.85 54.05L38.4 54.4L38.35 54.4L31.5 54.25Q26.3 53.85 12.2 50.55Q10.1 49.05 11.25 48Q12.3 46.95 13.85 47.55L21 48.9L21.05 48.9L21.15 49Q29.4 51.25 40.1 51.45Q45.3 51.9 49.65 51.35Q58.05 50.1 62.75 48.55Q63.3 48 64.6 49.25L65.1 50.2L64.6 50.55M37.05,16.1Q35.7 25.55 29.6 30.25Q26.5 32.6 23.65 32.95L29.25 32.85Q35.6 31.5 37.9 28.55L37.85 16.2L37.05 16.1M4,9.8Q5.1 9.2 6.35 9.2Q8.35 9.2 9.8 10.65Q10.65 11.55 11 12.65L11.2 14.05Q11.2 16.1 9.8 17.5Q8.35 19 6.35 19Q4.35 19 2.95 17.5Q1.5 16.1 1.5 14.05Q1.5 12.05 2.95 10.65L4 9.8M4.5,10.8L3.7 11.45Q2.55 12.5 2.55 14.05Q2.55 15.65 3.7 16.8Q4.75 17.85 6.35 17.85Q7.85 17.85 9 16.8Q10.1 15.65 10.1 14.05Q10.1 13.05 9.65 12.2L9.55 13.25L9.15 14.15L8.25 15.05L6.05 15.35Q4.85 15.05 4.3 14.05Q3.7 13.05 3.9 11.9L3.9 11.85Q4.05 11.2 4.5 10.8M6,10.5Q5.5 10.95 5.5 11.6Q5.5 12.2 6 12.75Q6.5 13.3 7.1 13.4L8.2 13.1Q8.6 12.7 8.6 12.1L8.15 10.95Q7.65 10.35 7.05 10.3L6 10.5M7.4,22.05L9.8 27.2Q12.15 32.9 12.2 35.85L15.85 34.6Q19.45 33.4 21.15 33.05Q19.15 33.3 16.35 32.05Q10.9 29.6 8.45 22.1L7.4 22.05M12,48.8Q11.95 49.35 12.15 49.9L21.05 51.9L37.8 53.55Q39.3 53.4 40.8 53.55Q39.3 52.85 39 51.7Q33.1 51.75 22.8 50.1Q14.3 48.65 13.5 48.1Q12.15 47.9 12 48.8" />
<path style="fill:#E58919;fill-opacity:1" d="M69.2,10.8Q68.4 11.6 68.4 12.75Q68.4 13.95 69.25 14.8Q70.1 15.65 71.3 15.65Q72.5 15.65 73.3 14.8L73.95 13.95L73.95 14.05Q73.95 15.55 72.95 16.55Q71.85 17.6 70.45 17.6Q69 17.6 67.9 16.55Q66.95 15.55 66.95 14.05Q66.95 12.6 67.9 11.6Q68.5 11 69.2 10.8M50.95,11.4Q49.95 10.35 49.95 9Q49.95 7.65 50.95 6.65Q51.95 5.65 53.35 5.65Q54.75 5.65 55.7 6.65Q56.65 7.65 56.65 9Q56.65 10.35 55.7 11.4L55.3 11.75L54.35 12.2L53.35 12.35Q51.95 12.35 50.95 11.4M41.1,7.9L41.4 7.6L41.85 6.6L41.9 7.35Q41.9 8.6 41.25 9.55L40.8 10.05L40.3 10.45L39.8 10.75L39.7 10.85L38.9 11.1L38.35 11.15L37.85 11.1L37.05 10.85L36.95 10.75L36.5 10.45L35.95 10.05L35.5 9.55Q34.85 8.6 34.85 7.35Q34.85 5.8 35.95 4.75L37.1 3.9Q36.4 4.75 36.4 5.85Q36.4 6.85 36.9 7.6L37.2 7.9L37.7 8.25L38.1 8.55L38.2 8.6L38.7 8.75L39.15 8.75L39.6 8.75L40.1 8.6L40.2 8.55L40.6 8.25L41.1 7.9M53.7,22.5Q55.05 26 57.85 27.6Q57.9 28.05 55.7 28.6Q53.55 29.2 50.75 27.75Q48.1 26.4 47.35 23.9Q50.4 22.15 52 16.95Q52.35 19.05 53.7 22.5M21.05,11.4Q20.15 10.35 20.15 9Q20.15 7.65 21.05 6.65Q22.05 5.65 23.45 5.65Q24.85 5.65 25.85 6.65Q26.85 7.65 26.85 9Q26.85 10.35 25.85 11.4Q24.85 12.35 23.45 12.35L22.45 12.2Q21.9 12.05 21.5 11.75L21.05 11.4M24.8,16.95Q26.4 22.15 29.45 23.9Q28.7 26.4 26.05 27.75Q23.25 29.2 21.05 28.6Q18.9 28.05 18.95 27.6Q21.75 26 23.1 22.5Q24.45 19.05 24.8 16.95M3.9,11.85L3.9 11.9Q3.7 13.05 4.3 14.05Q4.85 15.05 6.05 15.35L8.25 15.05L9.15 14.15L9.55 13.25L9.65 12.2Q10.1 13.05 10.1 14.05Q10.1 15.65 9 16.8Q7.85 17.85 6.35 17.85Q4.75 17.85 3.7 16.8Q2.55 15.65 2.55 14.05Q2.55 12.5 3.7 11.45L4.5 10.8Q4.05 11.2 3.9 11.85" />
<path style="fill:#9A330C;fill-opacity:1" d="M38.4,-1.1L39.7 -0.95Q42.25 -0.35 44.2 1.8Q46.15 3.95 46.4 6.65Q46.6 9.35 45.25 11.1L43.7 13.05L43.45 13.8Q43.35 14.25 43.95 17.25Q44.65 20.2 45.85 21.3Q48.35 20.5 49.5 16.9L49.75 14.45L48.3 13.15Q47.15 12 47.2 9.35Q47.3 6.65 49 4.85Q50.75 3.1 53.35 3.1Q55.75 3.1 57.45 4.85Q59.25 6.65 59.25 9.1Q59.25 11.55 57.45 13.25L56.75 13.9L55.55 14.85Q54.95 16.7 56.45 21Q58 25.35 61.5 25.6Q63.4 24.95 64.2 22.25Q64.95 19.45 64.55 19.2L63.1 17.25Q62.05 15.6 62.4 13.05Q62.65 10.35 64.55 8.45Q66.35 6.45 69.9 6.1Q73.45 5.7 75.85 8.45Q78.3 11.05 78.2 14.2Q78.2 17.35 76.7 19Q75.25 20.7 74.45 21Q73.65 21.4 73.65 21.5L72.15 24.5Q70.6 27.65 69.35 32.75Q68.15 37.65 68.35 38.65L69.9 39.8Q70.95 42.2 70.05 44.15L69.05 46.25Q70.25 47.6 70 50.5Q69.75 52.85 64.6 54.15Q59.45 55.5 52.55 56.45L42.1 57.5L38.4 57.65L38.35 57.65L34.7 57.5L24.25 56.45Q17.35 55.5 12.2 54.15Q7.05 52.85 6.8 50.5Q6.55 47.6 7.75 46.25L6.75 44.15Q5.85 42.2 6.9 39.8L8.45 38.65Q8.65 37.65 7.45 32.75Q6.2 27.65 4.65 24.5L3.15 21.5L2.35 21Q1.55 20.7 0.1 19Q-1.4 17.35 -1.45 14.2Q-1.5 11.05 0.95 8.45Q3.35 5.7 6.9 6.1Q10.45 6.45 12.25 8.45Q14.1 10.35 14.4 13.05Q14.75 15.6 13.7 17.25L12.25 19.2Q11.85 19.45 12.6 22.25Q13.4 24.95 15.3 25.6Q18.8 25.35 20.35 21Q21.85 16.7 21.25 14.85L20.05 13.9L19.3 13.25Q17.55 11.55 17.55 9.1Q17.55 6.65 19.3 4.85Q21.05 3.1 23.45 3.1Q26.05 3.1 27.8 4.85Q29.5 6.65 29.6 9.35Q29.65 12 28.5 13.15L27.05 14.45L27.3 16.9Q28.45 20.5 30.95 21.3Q32.15 20.2 32.85 17.25L33.35 13.8L33.1 13.05L31.55 11.1Q30.2 9.35 30.4 6.65Q30.65 3.95 32.6 1.8Q34.55 -0.35 37.1 -0.95L38.4 -1.1M67,10.65Q65.6 12.05 65.6 14.05Q65.6 16.1 67 17.5Q68.45 19 70.45 19Q72.45 19 73.85 17.5Q75.3 16.1 75.3 14.05Q75.3 12.05 73.85 10.65Q72.45 9.2 70.45 9.2Q68.45 9.2 67 10.65M64.1,28.3Q61.95 30.6 59.2 31.45Q56.4 32.3 54.05 32Q51.75 31.6 49.8 30.7Q47.95 29.75 45.95 27.75Q43.95 25.85 42.8 23.6Q41.85 21.9 41.35 19.95L41.1 18.75L40.4 14.6L40 14.8L39.3 14.9L39 14.95L38.85 14.95L38.4 14.95L38.35 14.95L37.95 14.95L37.5 14.9L36.4 14.6L35.7 18.75Q35.2 21.35 34 23.6Q32.85 25.85 30.85 27.75Q28.85 29.75 27 30.7Q25.05 31.6 22.75 32Q20.4 32.3 17.55 31.45Q14.85 30.6 12.7 28.3Q10.55 25.95 9.6 22.45Q9.25 21.4 9.3 20.55Q8 21.15 6.35 21.15L6.2 21.15Q7.45 23.05 9 27.5Q10.8 32.65 11.75 37.05L17.3 35.2Q20.9 33.85 22 34L28 33.6Q32.95 33.2 35.55 31.35Q38.25 29.55 38.7 29.65Q39.25 29.7 40.4 30.3L44.15 32.2Q46.75 33.6 50.25 33.8L54.8 34Q55.9 33.85 59.5 35.2L65.05 37.05Q66 32.65 67.8 27.5Q69.35 23.05 70.6 21.15L70.45 21.15Q68.8 21.15 67.5 20.55L67.35 21.95L67.2 22.45L67.15 22.7L67 23.3L65.35 26.8L64.1 28.3M53.35,12.35L54.35 12.2L55.3 11.75L55.7 11.4Q56.65 10.35 56.65 9Q56.65 7.65 55.7 6.65Q54.75 5.65 53.35 5.65Q51.95 5.65 50.95 6.65Q49.95 7.65 49.95 9Q49.95 10.35 50.95 11.4Q51.95 12.35 53.35 12.35M42.35,10.4Q43.35 9.15 43.35 7.4Q43.35 5.2 41.8 3.7Q40.4 2.4 38.6 2.2L38.4 2.15L38.35 2.15L38.2 2.2Q36.4 2.4 34.95 3.7Q33.45 5.2 33.45 7.4Q33.45 9.15 34.45 10.4L34.95 11.05L35.75 11.7L36.45 12.1L36.6 12.2L37.7 12.55L38.35 12.6L38.4 12.6L39.1 12.55L40.15 12.2L40.35 12.1L41 11.7L41.8 11.05L42.35 10.4M52,16.95Q50.4 22.15 47.35 23.9Q48.1 26.4 50.75 27.75Q53.55 29.2 55.7 28.6Q57.9 28.05 57.85 27.6Q55.05 26 53.7 22.5Q52.35 19.05 52 16.95M66.9,43.45L67.1 43.25Q68.25 41.5 65.7 40.35L62 38.75L60.4 38.05L59.65 37.75Q56.2 36.15 53.95 36.35L47.7 36.1Q43.65 35.7 39.1 32.9L34.9 34.8Q31.95 36.05 28.15 36.3L25.05 36.3L22.6 36.35L21.05 36.4L20.8 36.5Q19.4 36.85 17.2 37.85L13.75 39.3Q12.5 39.8 11.75 40.2Q8.8 41.75 9.85 43.35L11 44.95L11.9 44.85Q12.7 44.7 18.1 45.9L29.35 47.9L38.35 48.55L38.4 48.55L47.45 47.9L58.7 45.9Q64.1 44.7 64.9 44.85L65.8 44.95L66.9 43.45M37,50.6L25.15 49.55L21.15 49L21.05 48.9L21 48.9L13.85 47.55Q12.3 46.95 11.25 48Q10.1 49.05 12.2 50.55Q26.3 53.85 31.5 54.25L38.35 54.4L38.4 54.4L45.85 54.05Q50.55 53.8 64.6 50.55L65.1 50.2Q66.5 48.85 65.55 48Q64.5 46.95 62.95 47.55L61.6 47.9L51.65 49.55L38.4 50.6L38.35 50.6L37 50.6M21.5,11.75Q21.9 12.05 22.45 12.2L23.45 12.35Q24.85 12.35 25.85 11.4Q26.85 10.35 26.85 9Q26.85 7.65 25.85 6.65Q24.85 5.65 23.45 5.65Q22.05 5.65 21.05 6.65Q20.15 7.65 20.15 9Q20.15 10.35 21.05 11.4L21.5 11.75M23.1,22.5Q21.75 26 18.95 27.6Q18.9 28.05 21.05 28.6Q23.25 29.2 26.05 27.75Q28.7 26.4 29.45 23.9Q26.4 22.15 24.8 16.95Q24.45 19.05 23.1 22.5M2.95,10.65Q1.5 12.05 1.5 14.05Q1.5 16.1 2.95 17.5Q4.35 19 6.35 19Q8.35 19 9.8 17.5Q11.2 16.1 11.2 14.05L11 12.65Q10.65 11.55 9.8 10.65Q8.35 9.2 6.35 9.2Q5.1 9.2 4 9.8L2.95 10.65" />
<path style="fill:#FFEA4F;fill-opacity:1" d="M60.85,32.75Q58.9 33.5 56.6 33.6L54.75 33.55Q44 33.25 40.4 23.7Q39.3 20.75 39 17.15L39 14.95L39.3 14.9L40 14.8L40.4 14.6L41.1 18.75L41.35 19.95Q41.7 22 42.4 23.85Q45.5 32 54.05 32.8L55.75 32.85L59.6 32.2Q64.45 30.85 65.35 26.8L67 23.3L67.15 22.7L67.2 22.45L67.35 21.95Q67 30.25 60.85 32.75M65.7,40.35Q68.25 41.5 67.1 43.25L66.9 43.45Q63.95 40.5 60.25 39.4Q56.55 38.15 53.2 38.75Q49.75 39.3 44.3 38.05L38.5 35.85Q36.6 38.2 28.5 38.05L21.6 37.55Q20.45 37.55 14.45 39.05L13.75 39.3L17.2 37.85Q19.4 36.85 20.8 36.5L21.05 36.4L22.6 36.35L25.05 36.3L29.25 36.5Q32.75 36.5 36.15 35.35L39.15 34.2L41.6 35.25L45.7 37Q48.75 38.05 52.15 37.5Q55.1 37.05 62 38.75L65.7 40.35M25.15,49.55L37 50.6L44.1 51.1Q48.85 51.1 50.45 50.25Q58 49.35 61.6 47.9L62.95 47.55Q64.5 46.95 65.55 48Q66.5 48.85 65.1 50.2L64.6 49.25Q63.3 48 62.75 48.55Q58.05 50.1 49.65 51.35Q45.3 51.9 40.1 51.45Q29.4 51.25 21.15 49L25.15 49.55" />
<path style="fill:#F4FFDF;fill-opacity:1" d="M72.85,11.25Q73.25 11.8 73.25 12.4Q73.25 13.05 72.9 13.4Q72.4 13.8 71.75 13.75Q71.2 13.65 70.7 13.1Q70.2 12.5 70.2 11.9Q70.2 11.25 70.7 10.85Q71.1 10.45 71.7 10.6L72.85 11.25M41.35,19.95Q41.85 21.9 42.8 23.6Q43.95 25.85 45.95 27.75Q47.95 29.75 49.8 30.7Q51.75 31.6 54.05 32Q56.4 32.3 59.2 31.45Q61.95 30.6 64.1 28.3L65.35 26.8Q64.45 30.85 59.6 32.2L55.75 32.85L54.05 32.8Q45.5 32 42.4 23.85Q41.7 22 41.35 19.95M41.4,5.15L40.95 6.2Q40.5 6.6 39.9 6.5Q39.25 6.4 38.75 5.85L38.35 4.7Q38.35 4.05 38.75 3.6L39.85 3.4Q40.45 3.45 40.9 4.05Q41.4 4.6 41.4 5.15M28.15,36.3Q31.95 36.05 34.9 34.8L39.1 32.9Q43.65 35.7 47.7 36.1L53.95 36.35Q56.2 36.15 59.65 37.75L60.4 38.05L62 38.75Q55.1 37.05 52.15 37.5Q48.75 38.05 45.7 37L41.6 35.25L39.15 34.2L36.15 35.35Q32.75 36.5 29.25 36.5L25.05 36.3L28.15 36.3M38.35,50.6L38.4 50.6L51.65 49.55L61.6 47.9Q58 49.35 50.45 50.25Q48.85 51.1 44.1 51.1L37 50.6L38.35 50.6M7.05,10.3Q7.65 10.35 8.15 10.95L8.6 12.1Q8.6 12.7 8.2 13.1L7.1 13.4Q6.5 13.3 6 12.75Q5.5 12.2 5.5 11.6Q5.5 10.95 6 10.5L7.05 10.3" />
<path style="fill:#D26936;fill-opacity:1" d="M45.35,47.3Q37.7 48.05 29.25 46.85L22.3 45.55Q19.05 44.5 15.1 44.05L11.75 43.95L11.3 43.35L10.9 42.6Q12.7 41.25 15.25 40.2Q17.8 39.15 19.7 38.6L22.45 38.5L27.4 39.65Q31.6 40.3 39 38.3L38.7 38.45Q35.15 42.9 39.85 45L47.2 45.3Q53.3 44.8 60.9 42.65L65.2 43.7L55.6 45.6L45.35 47.3M37.85,16.2L37.9 28.55Q35.6 31.5 29.25 32.85L23.65 32.95Q26.5 32.6 29.6 30.25Q35.7 25.55 37.05 16.1L37.85 16.2M8.45,22.1Q10.9 29.6 16.35 32.05Q19.15 33.3 21.15 33.05Q19.45 33.4 15.85 34.6L12.2 35.85Q12.15 32.9 9.8 27.2L7.4 22.05L8.45 22.1M13.5,48.1Q14.3 48.65 22.8 50.1Q33.1 51.75 39 51.7Q39.3 52.85 40.8 53.55Q39.3 53.4 37.8 53.55L21.05 51.9L12.15 49.9Q11.95 49.35 12 48.8Q12.15 47.9 13.5 48.1" />
<path style="fill:#5F1000;fill-opacity:1" d="M43.6,43.3Q41.95 48 38.45 47.9Q34.95 47.95 33.4 43.3Q31.2 37.4 35.1 35.9Q37.9 34.7 38.7 34.95Q39.8 35 41.9 35.9Q45.75 37.4 43.6 43.3M42.35,41.95Q42.85 39.45 41.9 38.35Q40.85 37.35 39.9 37.15L38.45 37.05L37.1 37.15L36.35 37.45L35.3 38.2Q34.2 39.4 34.85 41.85Q35.45 44.3 36.25 45.05Q37 45.75 38 45.85Q39.1 46.15 40.4 45.45Q41.8 44.75 42.3 42.2L42.35 41.95" />
<path style="fill:#931A26;fill-opacity:1" d="M42.3,42.2Q41.8 44.75 40.4 45.45Q39.1 46.15 38 45.85Q37 45.75 36.25 45.05Q35.45 44.3 34.85 41.85Q34.2 39.4 35.3 38.2L36.35 37.45Q36 39.5 36.45 41.05Q36.9 42.65 39.1 42.75L41.65 42.55L42.35 41.95L42.3 42.2" />
<path style="fill:#C23940;fill-opacity:1" d="M37.1,37.15L38.45 37.05L39.9 37.15Q40.85 37.35 41.9 38.35Q42.85 39.45 42.35 41.95L41.65 42.55L39.1 42.75Q36.9 42.65 36.45 41.05Q36 39.5 36.35 37.45L37.1 37.15M40.75,38.2Q40 37.85 39.2 37.85Q38.45 37.8 38.25 38.2Q37.9 38.7 38.25 39.4L39.25 40.5Q40.1 41 40.75 40.95Q41.55 41 41.85 40.55Q42.05 40 41.8 39.45Q41.55 38.75 40.75 38.2" />
<path style="fill:#F79A9F;fill-opacity:1" d="M41.8,39.45Q42.05 40 41.85 40.55Q41.55 41 40.75 40.95Q40.1 41 39.25 40.5L38.25 39.4Q37.9 38.7 38.25 38.2Q38.45 37.8 39.2 37.85Q40 37.85 40.75 38.2Q41.55 38.75 41.8 39.45" />
<path style="fill:#496298;fill-opacity:1" d="M56.2,39.65L55.65 39.5L55.4 39.5L55.25 39.5L54.9 39.7L54.8 39.85L54.7 40.6L55 41.05L55.1 41.15L55.15 41.25L55.65 41.5L56 41.5L56.6 41L56.7 40.3L56.6 39.95L56.2 39.65M57.65,41.15L57.25 41.7L57.25 41.8Q56.65 42.45 55.7 42.45L55.6 42.45Q54.8 42.4 54.15 41.7Q53.6 41 53.6 40L53.65 39.6Q53.8 39.45 54.1 39.35Q54.55 39 55.2 39L55.6 39.05Q56.35 39.1 56.95 39.7Q57.5 40.3 57.65 41.15M20.3,39.3Q20.8 38.95 21.35 38.95L21.75 39Q22.55 39.05 23.1 39.65Q23.7 40.25 23.85 41.1L23.4 41.65L23.4 41.75Q22.8 42.4 21.9 42.4L21.75 42.4Q21 42.35 20.35 41.65Q19.75 40.95 19.75 39.95L19.8 39.55L20.3 39.3M21,39.8L20.9 40.55L21.15 41L21.25 41.1L21.3 41.2L21.8 41.4L22.2 41.4L22.75 40.95Q23 40.55 22.85 40.25L22.75 39.85L22.4 39.6L21.8 39.45L21.55 39.45L21.4 39.45L21.05 39.65L21 39.8" />
<path style="fill:#96BBFC;fill-opacity:1" d="M56.6,39.95L56.7 40.3L56.6 41L56 41.5L55.65 41.5L55.15 41.25L55.1 41.15L55 41.05L54.7 40.6L54.8 39.85L54.9 39.7L55.25 39.5L55.4 39.5L55.65 39.5L56.2 39.65L56.6 39.95M21.05,39.65L21.4 39.45L21.55 39.45L21.8 39.45L22.4 39.6L22.75 39.85L22.85 40.25Q23 40.55 22.75 40.95L22.2 41.4L21.8 41.4L21.3 41.2L21.25 41.1L21.15 41L20.9 40.55L21 39.8L21.05 39.65" />
<path style="fill:#283D69;fill-opacity:1" d="M53.6,40Q53.6 41 54.15 41.7Q54.8 42.4 55.6 42.45L55.7 42.45Q56.65 42.45 57.25 41.8L57.25 41.7L57.65 41.15L57.65 41.4L57.65 41.8Q57.5 42.55 56.95 43.15L55.7 43.85L55.2 43.85Q54.2 43.85 53.5 43.15Q52.75 42.4 52.75 41.4Q52.75 40.4 53.5 39.7L53.65 39.6L53.6 40M23.85,41.35L23.85 41.75L23.1 43.1L21.85 43.8L21.35 43.8Q20.4 43.8 19.65 43.1Q18.95 42.35 18.95 41.35Q18.95 40.35 19.65 39.65L19.8 39.55L19.75 39.95Q19.75 40.95 20.35 41.65Q21 42.35 21.75 42.4L21.9 42.4Q22.8 42.4 23.4 41.75L23.4 41.65L23.85 41.1L23.85 41.35" />
<path style="fill:#0D1931;fill-opacity:1" d="M58.05,38.6Q59.2 39.75 59.2 41.4Q59.2 43.1 58.05 44.2L56.95 45L55.15 45.4Q53.55 45.4 52.35 44.2Q51.2 43.1 51.2 41.4Q51.2 39.75 52.35 38.6Q53.55 37.45 55.15 37.45L55.25 37.45L56.55 37.65L57.45 38.1L58.05 38.6M56.95,39.7Q56.35 39.1 55.6 39.05L55.2 39Q54.55 39 54.1 39.35Q53.8 39.45 53.65 39.6L53.5 39.7Q52.75 40.4 52.75 41.4Q52.75 42.4 53.5 43.15Q54.2 43.85 55.2 43.85L55.7 43.85L56.95 43.15Q57.5 42.55 57.65 41.8L57.65 41.4L57.65 41.15Q57.5 40.3 56.95 39.7M18.55,38.55Q19.7 37.4 21.3 37.4L21.4 37.4L22.75 37.6L23.65 38.05L24.25 38.55Q25.4 39.7 25.4 41.35Q25.4 43.05 24.25 44.15L23.1 45L21.3 45.35Q19.7 45.35 18.55 44.15Q17.4 43.05 17.4 41.35Q17.4 39.7 18.55 38.55M19.8,39.55L19.65 39.65Q18.95 40.35 18.95 41.35Q18.95 42.35 19.65 43.1Q20.4 43.8 21.35 43.8L21.85 43.8L23.1 43.1L23.85 41.75L23.85 41.35L23.85 41.1Q23.7 40.25 23.1 39.65Q22.55 39.05 21.75 39L21.35 38.95Q20.8 38.95 20.3 39.3L19.8 39.55" />
</g>
</svg>
