<?xml version="1.0" encoding="utf-8"?>
<svg version="1.1" id="Layer_1"
xmlns="http://www.w3.org/2000/svg"
xmlns:xlink="http://www.w3.org/1999/xlink"
xmlns:author="http://www.sothink.com"
width="34px" height="60px"
xml:space="preserve">
<g id="3015" transform="matrix(1, 0, 0, 1, 0, 0)">
<path style="fill:#000000;fill-opacity:1" d="M24.75,5.05Q25.25 0.45 25.75 0.05Q26.2 -0.35 28.5 2.05Q30.75 4.45 32.5 9.15Q34.35 14.1 33.9 20.95Q33.65 25.05 32.1 29.25Q30.6 33.2 28.7 35.35L26.1 37.95L24.7 38.9Q27.15 43.3 26 49.2Q24.85 55.1 21.2 57.95Q17.85 60.35 15.5 58.1Q13.15 55.8 11.6 55.15L8.95 54.25L5.35 53.25Q2.8 52.4 1.4 50.25Q0.75 49.3 0.45 48.15Q0 46.6 0 44.7Q0.05 42.95 1.1 40.95Q2.2 38.9 4 37.35Q7.7 34.1 10.05 27.85Q12.7 20.75 12.9 13.15Q13.1 5.5 16 6.2Q17.3 6.45 18.6 7.75Q20.15 9.25 21.75 12.25Q24.15 9.65 24.75 5.05M18,8.95Q16.35 7.15 15.35 7.75Q14.3 8.3 14.25 11.3Q14.15 14.3 13.5 18.95Q12.85 23.55 11.15 27.95Q9.5 32.3 7.85 34.55L3.85 39.25Q1.5 41.75 1.2 44.35Q0.85 46.9 2.25 49.35L2.3 49.4Q3.75 51.9 7.8 52.85Q11.8 53.8 13.45 54.85Q15 55.85 17.25 57.9Q21.35 58.25 23.65 52.5Q25.9 46.75 24.6 41.85Q24.05 39.85 22.65 38.2Q21.3 36.6 19.55 35.7L19.6 35.4Q19.7 35.05 20.05 34.95L20.3 34.9Q22.7 36.2 23.85 37.7Q27.6 35.6 29.8 31.15Q32 26.7 32.45 21.45Q32.9 16.15 32.1 12.55Q31.3 8.9 29.8 6.4L27.4 2.75Q26.5 1.65 26.4 1.9L26.3 2.7L26.15 4.5L25.7 7.35Q25.4 8.85 24.5 10.75L22.35 14Q23.8 21.65 22.4 19.85L22.2 19.5Q21.75 15.65 20.6 13L19.6 11.15L18 8.95" />
<path style="fill:#202020;fill-opacity:1" d="M5.45,50L8.9 49.95Q10.75 49.85 11.25 49.15Q11.75 48.45 9.95 46.9Q8.15 45.35 8.6 41.25Q9 37.45 11.55 34.55Q13.95 31.8 15.5 28.45Q17.15 24.9 18.1 21.15L19.55 14.05L19.6 11.15L20.6 13Q21.75 15.65 22.2 19.5L22.4 19.85Q23.8 21.65 22.35 14L24.5 10.75Q25.4 8.85 25.7 7.35L26.15 4.5L26.3 2.7L26.4 1.9Q26.5 1.65 27.4 2.75L29.8 6.4Q31.3 8.9 32.1 12.55Q32.9 16.15 32.45 21.45Q32 26.7 29.8 31.15Q27.6 35.6 23.85 37.7Q22.7 36.2 20.3 34.9L20.05 34.95Q19.7 35.05 19.6 35.4L19.55 35.7Q21.3 36.6 22.65 38.2Q24.05 39.85 24.6 41.85Q25.9 46.75 23.65 52.5Q21.35 58.25 17.25 57.9Q15 55.85 13.45 54.85Q11.8 53.8 7.8 52.85Q3.75 51.9 2.3 49.4L2.25 49.35L5.45 50" />
<path style="fill:#2E2E2E;fill-opacity:1" d="M19.6,11.15L19.55 14.05L18.1 21.15Q17.15 24.9 15.5 28.45Q13.95 31.8 11.55 34.55Q9 37.45 8.6 41.25Q8.15 45.35 9.95 46.9Q11.75 48.45 11.25 49.15Q10.75 49.85 8.9 49.95L5.45 50L2.25 49.35Q0.85 46.9 1.2 44.35Q1.5 41.75 3.85 39.25L7.85 34.55Q9.5 32.3 11.15 27.95Q12.85 23.55 13.5 18.95Q14.15 14.3 14.25 11.3Q14.3 8.3 15.35 7.75Q16.35 7.15 18 8.95L19.6 11.15" />
</g>
</svg>
