<?xml version="1.0" encoding="utf-8"?>
<svg version="1.1" id="Layer_1"
xmlns="http://www.w3.org/2000/svg"
xmlns:xlink="http://www.w3.org/1999/xlink"
xmlns:author="http://www.sothink.com"
width="22px" height="11px"
xml:space="preserve">
<g id="2272" transform="matrix(1, 0, 0, 1, -24.4, -36.6)">
<path style="fill:#984928;fill-opacity:1" d="M43.55,41.5Q45.35 40.75 45.05 39.8L44.4 39Q42.15 38.65 41.95 40.1L41.95 40.4Q41.7 41.7 40.65 42.35L39.95 42.85Q38.85 42.85 38.1 43.15L36.8 43.9Q36.9 43.25 37.9 42.8Q39.65 42 40.4 40.85L40.85 39.8Q41.25 37.8 43.95 37.85Q45.15 37.9 45.65 38.9L45.8 39.1Q46.8 41.55 44.1 42.4Q43.45 42.7 43.1 43.4L42 43.05L41.5 42.95Q42.2 42.05 43.55 41.5M27.7,44.8Q25.85 44.65 25.65 46.3L25.95 46.1L25.05 46.8L24.95 46.8Q24.25 46.25 24.45 45.35Q24.65 44.4 25.65 43.9Q26.6 43.45 27.2 43.45Q27.45 43.45 28.25 43.95Q29.2 44.2 30.05 44.7L30.1 44.75L28.75 45.25Q28.35 44.95 27.7 44.8M35.35,38.25Q35.45 39.2 36.3 38.8L36.8 38.2L36.6 37.55Q35.4 37.3 35.4 38.1L35.35 38.25M36.4,39.4Q34.65 40.2 34.5 38.65Q34.45 35.85 36.9 36.9L37.55 37.65Q38 38.55 36.4 39.4" />
<path style="fill:#D97F59;fill-opacity:1" d="M44.35,40.05L41.95 40.4L41.95 40.1Q42.15 38.65 44.4 39L45.05 39.8L44.35 40.05M36.35,38.25L35.55 38.2L35.4 38.1Q35.4 37.3 36.6 37.55L36.8 38.2L36.35 38.25" />
<path style="fill:#B1552E;fill-opacity:1" d="M45.05,39.8Q45.35 40.75 43.55 41.5Q42.2 42.05 41.5 42.95L39.95 42.85L40.65 42.35Q41.7 41.7 41.95 40.4L44.35 40.05L45.05 39.8M28.75,45.25Q27.75 45.45 26.95 45.75L26.6 46L25.95 46.1L25.65 46.3Q25.85 44.65 27.7 44.8Q28.35 44.95 28.75 45.25M35.4,38.1L35.55 38.2L36.35 38.25L36.8 38.2L36.3 38.8Q35.45 39.2 35.35 38.25L35.4 38.1" />
<path style="fill:#6A6059;fill-opacity:1" d="M35,43.1L34.85 42.85L34.55 42.45L33.9 42.5L33.05 42.5L32.25 42.3L32.7 43.4L32.95 43.95L32.6 43.9L31.95 43.75Q31.55 42.6 31.6 41.6L32.3 41.6L33.25 41.7Q33.8 41.85 34.65 41.15L35.4 42.05L35.8 42.85L35.2 43.35L35 43.1" />
<path style="fill:#CCC6C4;fill-opacity:1" d="M34.25,43L33.7 43.3Q33.5 43.2 33.05 42.5L33.9 42.5L34.55 42.45L34.85 42.85L34.25 43" />
<path style="fill:#97A2AC;fill-opacity:1" d="M34.85,42.85L35 43.1L35.2 43.35L34.8 43.55Q33.9 44 32.95 43.95L32.7 43.4L32.25 42.3L33.05 42.5Q33.5 43.2 33.7 43.3L34.25 43L34.85 42.85" />
</g>
</svg>
