<?xml version="1.0" encoding="utf-8"?>
<svg version="1.1" id="Layer_1"
xmlns="http://www.w3.org/2000/svg"
xmlns:xlink="http://www.w3.org/1999/xlink"
xmlns:author="http://www.sothink.com"
width="41px" height="46px"
xml:space="preserve">
<g id="527" transform="matrix(1, 0, 0, 1, 0, 0)">
<path style="fill:#462B21;fill-opacity:1" d="M36.35,14.2L36.1 14.2L36.2 13.7L36.25 13.7L37.1 13.6L38.25 13.15L39.75 12.25L40.3 11.4L39.5 11.5L38.5 11.55L37.2 12.5L37 12.6L36.05 13L35.85 12.7L36.65 12.25L36.9 12.05L38.05 11.2L38.15 11.05L38.05 10.6L37.85 9.55L36.05 11.9L35.75 12.15L35.5 12.35L35.45 12.35L34.95 12.15Q36.35 10.95 37 9.85L37.15 9.5L38 8L38.45 8.2L39.45 8.95L40.6 10.1L40.95 10.6L40.9 11.35L40.35 12.35Q39.7 13.3 38.1 13.85L36.55 14.2L36.35 14.2M16.15,32.85L16.45 33.1Q16.8 33.5 16.75 34L16.65 34.55L16.6 34.6L16.3 34.65L16.1 34.65L16.3 34.25L16.3 33.65L15.8 33.15L15.7 33.1L15.3 33L15 32.85L15.1 32.85L15.55 32.6L16.15 32.85M8.8,29.65L8.75 30.4L8.35 29.7L8.3 29.5L8.35 29.45L8.65 29.3L8.8 29.65M20.7,12.7L20.9 12.45L21 12.35L21.85 10.85Q22.25 9.85 22.5 9.75L23.1 9.85L23.55 10.55Q24.15 11.8 24 12.75Q23.85 13.75 23.4 14.35L23.3 14.5L22.95 14.1L23.2 13.3L22.65 12.5L22.3 12.35L21.95 12.25Q21.65 12.3 21.45 12.5L21.1 12.85L20.7 12.7M25.55,7.9Q25 6.35 25.05 4.8Q25.2 1.65 25.4 1.15Q25.6 0.65 26.3 0.25L28.2 0.05L29.75 2.25Q30.45 3.3 29.95 3.8L28.8 5.4L28.45 6.5Q28.2 7.6 28.6 8.65L28.9 9.4L29.25 10.1L29.1 10L28.35 9.65L27.95 8.75L27.9 8.55L27.7 7Q27.75 6.15 27.95 5.45Q28.3 4.25 29.1 3.55L26.95 1.85L26.65 1.7Q26.1 1.3 26 2L25.85 4.85Q25.8 6.3 26.6 8.15L27.3 9.65L27.45 9.95L27.2 10.15L27 10.45L26.3 9.4L25.55 7.9M38.6,10.95Q39.3 11.15 39.9 10.95L40.2 10.8L38.3 8.8L38.4 9.85L38.6 10.95M27.3,1.4L28.65 2.35L29.35 2.8L28 0.65L26.9 0.9L26.8 1L27.3 1.4M23.5,12.95L23.5 12.1L23.45 11.9L23.1 10.75L22.65 10.3L22.4 10.8L21.95 11.8L22.55 11.95Q23.1 12.2 23.5 12.95" />
<path style="fill:#D25532;fill-opacity:1" d="M33.55,12L32.55 11.9L32.6 11.9Q34.15 11.85 34.9 10.85Q35.65 9.85 35.65 9Q35.7 8.15 35.1 7.9Q34.35 7.75 33.95 8.75Q33.2 10 31.95 9.8Q30.65 9.6 30.4 8.9L29.4 8.95Q29.1 9.65 29.45 10.25L29.25 10.1L28.9 9.4L28.85 8.85Q28.8 7.75 29.3 6.6Q29.75 5.4 30.9 5L32.7 4.7L34.4 5.25Q35.45 5.75 36.05 7.05Q36.7 8.35 36.05 10.25Q35.55 11.55 34.2 12.05L33.55 12M30.4,5.9Q29.6 6.6 30.15 6.75L31 6.35Q31.1 6.6 31.6 6.65L32.25 6.4L32.3 6.1L33.6 6.15Q34.4 6.25 33.85 5.8Q33.35 5.35 32.25 5.3Q31.15 5.2 30.4 5.9M31.15,7.2L31.1 7.15L31 7.1Q30.45 7.1 30.55 7.6Q31.15 7.85 31.15 7.2M32.25,7.8Q31 8.25 32.15 8.75Q32.4 8.85 32.55 8.55Q32.85 8 32.25 7.8M7.9,22.3L8.2 22.3L8.65 22.3L9.75 22.55L10.35 22.95L10.5 23.15L10.45 23.5L10.25 23.95L9.85 23.45L9.4 23.05Q9.1 22.8 8.7 22.65L8.4 22.55L8.55 22.65L8.75 23L8.75 23.1L8.65 23.3L8.05 22.9L7.35 22.75L6.8 22.75Q7 22.5 7.35 22.35L7.45 22.3L7.9 22.3M12.85,22.6L12.8 22.55L12.25 22L12.2 21.9L11.7 21.1L11 20.25L10.75 20.05L10.65 19.95L10.8 20L11 20.1L11.5 20.3L11.9 20.65L12.1 20.85L12.55 21.65L12.85 22.6M16.9,23.9L16.25 24.2L15.65 24.7L15.5 24.4L15.45 24.2L15.45 23.8L15.9 23.65L16.4 23.7L16.95 23.85L17 23.85L16.9 23.9M7.45,27.9L7.95 27.2L8.25 26.95L8.65 27.25L8.75 27.3L8.85 27.55L8.8 27.6L8.5 27.7L8.2 28L7.85 28.4L7.65 28.35L7.6 28.05L7.15 28.8L7.05 29.05L7 28.85L7.45 27.9M5.9,25.9L6.35 25.7Q7.2 25.3 8.1 25.4L8.25 25.4L8.25 25.75L7.5 25.95L7.45 26L6.5 26.35L6.65 26.1L6.75 25.95Q7.05 25.65 6.15 26.15L5.75 26.4L5.15 26.8L5.8 25.95L5.9 25.9M11.95,23.6L12.5 24.35L12.55 24.4L12.5 24.45L11.8 24.55Q11.4 24.45 11.5 23.95L11.7 23.45L11.9 23.4L11.95 23.6M15.7,21.5L15.75 21.9L15.6 22.1L14.9 22.8L14.8 22.9L13.7 23.5L13.6 23.25L13.6 23.15L13.6 22.9Q14.9 22.6 15.7 21.5M16.95,26.9L16.5 27.25Q15.2 27.2 14.15 26L15.45 26.1L15.6 26.05L16.95 26.9M12.95,25.45L12.95 25.95L12.8 26.6L12.65 26.85L12.55 26.9L12.5 26.85L11.7 25.85L11.65 25.85Q11.35 25.6 11.1 25.5L11.05 25.45L11.2 25.4L11.95 25.25L12.9 25.35L12.95 25.45M10.85,28.8L11.2 29.1L11.55 29.5L10.65 30.8Q10.9 30.2 10.75 29.4L10.25 30.2L10.3 28.45L10.85 28.8M14.2,28.95L13.8 28.45L14.05 28.2Q14.3 27.95 14.55 28Q15.15 28.85 14.7 29.9L14.2 28.95M17,36.15L16.65 35.8L16.3 35.25L16.5 35.2L16.85 35.1Q17.15 34.95 17.75 35.65L17.9 35.8L17.1 36.1L17 36.15M8.8,35.15L9.1 34.85L9.45 35.15L10 35.5L9.55 35.8L8.9 36.05L8.75 36.05L9.15 35.65L8.2 35.8L7.75 35.75L8.8 35.15M7.85,37.35L8.05 36.9L8.3 36.6L8.6 36.6L9.3 36.4L9.85 36.6L10.4 37.4L9.15 37.45L9.35 37.2L8.8 37.3L8.25 37.5Q7.9 37.7 7.7 38.05L7.85 37.35M10.35,39.35L10.15 39.2L9.75 38.75L11.05 38.45L11.2 38.4L11.1 38.6L10.9 39.6L10.35 39.35M11.45,40.25L11.65 40.15L11.7 40.15Q11.7 40.5 11.85 40.7Q11.95 40.95 12.2 40.9Q12.6 40.7 12.35 41.25L12.3 41.35L11.8 42.15L11.4 42.55L11.25 42.7L10.9 43.15L10.6 43.6L10.25 43L10.95 41.7L10.9 41.6L10.8 41.65L10.65 41.7L10.6 41.65L10.7 41.55L11.1 41.15L11.4 40.5L11.45 40.25M19.85,42.55L19.85 42.8L19.55 42.55L19.7 42.5L19.85 42.5L19.85 42.55" />
<path style="fill:#981D04;fill-opacity:1" d="M20.65,38.2L20.7 38.25L20.75 38.25L20.8 38.4L20.65 38.2M20.45,42.25L20.4 42.85L20.4 42.95L20.4 43L20.5 43.4L20.45 43.6L20.05 43.6L19.55 43.05L19.25 42.65L19.25 42.6L19.55 42.55L19.85 42.8L19.9 42.85L19.9 42.6L19.9 42.45Q20.4 42.25 20.45 41.65L20.45 40.55L20.3 40.15L20.45 40.05L20.8 39.95L20.85 39.95L20.5 42.15L20.45 42.25M4.45,27.25L4.7 26.55L5.6 25.25Q6.25 24.6 7.55 24.35Q7.4 23.75 6.9 23.5L6.35 23.3L6.3 23.25Q6.15 22.9 6.35 22.6L6.6 22.35Q7 21.85 7.75 21.6L7.9 21.5L8.35 21.4L8.95 21.35L10.3 21.65L10.15 21.05L9.95 20.55L9.95 20.45L9.85 20.25L9.7 19.85L9.65 19.55L9.8 19.35L10.25 19.25L10.65 19.3L11.35 19.55L12.15 19.9L12.7 20.25L13.35 20.75L14.05 21.65L14.05 21.7L14.15 21.65L14.3 21.5L14.7 21.15L14.8 21.05L15.15 20.5L15.15 20.45Q15.4 19.95 15.9 20.25L16 20.35L16.4 20.7L16.75 21.35Q17.05 22.1 16.85 22.75L17.2 22.8L17.5 22.9L17.75 22.95Q18.35 23.05 18.45 23.3L18.4 23.75L17.7 24.4L17.35 24.85L16.95 25.45L16.85 25.65L16.75 25.8L17.35 25.95L18.25 26.15Q18.65 26.2 18.65 26.6L18.5 27.15L18.05 27.85L17.25 28.35L17.2 28.35L15.85 28.6L15.95 29.35Q15.4 30.1 15.3 30.95L15.25 31L14.3 31.05Q14.15 30.45 13.7 30.25L13.3 30.15L12.7 30.85L12.6 30.95L11.3 31.65L9.5 31.95L9.35 31.9L8.95 31.55L9.05 31.2L9.1 31.1Q9.5 30.6 9.5 30L9.5 29.8Q9.5 29.05 9.1 29.15L8.9 29.2L8.65 29.3L8.35 29.45L8.3 29.5L7.85 29.95L7.45 30.4Q7.1 30.6 6.7 29.7Q6.25 28.8 6.6 27.8L5.7 27.85L5.55 27.85L5.05 28.05Q4.75 28.15 4.6 28.3Q4.3 28.55 4.35 27.9L4.35 27.8L4.45 27.25M28.6,8.65Q28.2 7.6 28.45 6.5Q29.1 4.75 31.15 4.1Q33.2 3.5 35.35 4.85Q37.5 6.15 37.1 9.2L37 9.85Q36.35 10.95 34.95 12.15L34.2 12.05Q35.55 11.55 36.05 10.25Q36.7 8.35 36.05 7.05Q35.45 5.75 34.4 5.25L32.7 4.7L30.9 5Q29.75 5.4 29.3 6.6Q28.8 7.75 28.85 8.85L28.9 9.4L28.6 8.65M32,11.75L32.2 11.75L32.1 11.8L32.05 11.8L32 11.75M7.6,24.9L7.2 25Q6.35 25.4 5.8 25.95L5.15 26.8L4.85 27.45L4.75 27.65L4.95 27.5Q5.2 27.55 5.3 27.35L5.9 27.15L7.05 27.1L7.5 26.55L7.55 26.5L7.7 26.85L7.65 27.05L7.55 27.2L7.25 27.75Q6.9 28.3 7 28.85L7.05 29.05L7.05 29.1L7.35 29.7L7.7 29.3L8.05 29L8.35 28.75L8.45 28.7L9.1 28.5L9.5 28.45L9.6 28.1L10 29L10.05 30.45L10 30.6L9.7 31.3L9.55 31.5L9.6 31.5L9.8 31.45L10.1 31.4L10.3 31.35L11.6 30.8L12.65 30L12.85 29.75L12.8 29.7L12.9 29.75L13.05 29.55L13.25 29.5L13.4 29.5L13.9 29.75L14.05 29.85L14.4 30.15L14.7 30.75Q15.25 30.2 15.3 29.45Q15.35 28.75 14.9 28.15L14.8 28.05L14.4 27.5L15.65 27.95L16.9 27.8L16.95 27.8L17.65 27.35L18 26.85L18 26.8L17.9 26.8L17.25 26.65L16.55 26.45L16.05 26.15L15.85 25.95L15.65 25.65L15.5 25.2L15.5 25.15L15.5 25.05L16.05 25.35L16.35 25.35L16.65 24.8L16.8 24.55L17.2 24L17.55 23.7L17.6 23.7L17.6 23.65L17.05 23.55L16.4 23.55L15.9 23.65L15.45 23.8L15.35 23.7L15.35 23.65L15.35 23.55L15.45 23.4L16.25 22.8L16.25 22.45Q16.35 21.8 16 21.25L15.9 21.1L15.7 20.85L15.4 21.25L15.15 21.55L13.85 22.5L13.7 22.6L13.5 22.65L13.4 22.65L13.45 22.6L13.55 22.4L13.3 21.9L12.9 21.35L12.25 20.75L11.5 20.3L11 20.1L10.8 20L10.65 19.95L10.4 19.9L10.5 20.05L10.55 20.15L10.75 20.65L10.95 21.4L11 21.85L11 21.9L11 22.2L10.8 22.45L10.5 22.45L10.4 22.4L10.3 22.35L9.85 22.15L8.35 22.05L8.2 22.05L7.95 22.1L7.45 22.3L7.35 22.35Q7 22.5 6.8 22.75L6.7 22.9L7.15 23.1L8.05 24.05L8.25 24.5L8.25 24.6L8.4 24.75L8.3 24.85L8.15 24.85L8.1 24.85L7.6 24.9" />
<path style="fill:#FCBC7D;fill-opacity:1" d="M32.25,5.3Q33.35 5.35 33.85 5.8Q34.4 6.25 33.6 6.15L32.3 6.1L32.25 6.4L31.6 6.65Q31.1 6.6 31 6.35L30.15 6.75Q29.6 6.6 30.4 5.9Q31.15 5.2 32.25 5.3M30.55,7.6Q30.45 7.1 31 7.1L31.1 7.15L31.15 7.2Q31.15 7.85 30.55 7.6M32.55,8.55Q32.4 8.85 32.15 8.75Q31 8.25 32.25 7.8Q32.85 8 32.55 8.55" />
<path style="fill:#BD2F1D;fill-opacity:1" d="M32.05,11.8L30.85 11.2L29.45 10.25Q29.1 9.65 29.4 8.95L30.4 8.9Q30.65 9.6 31.95 9.8Q33.2 10 33.95 8.75Q34.35 7.75 35.1 7.9Q35.7 8.15 35.65 9Q35.65 9.85 34.9 10.85Q34.15 11.85 32.6 11.9L32.55 11.9L32.1 11.8L32.2 11.75L32 11.75L32.05 11.8M8.25,26.95L7.7 26.85L7.55 26.5L7.5 26.55L7.05 27.1L5.9 27.15L5.3 27.35Q5.2 27.55 4.95 27.5L4.75 27.65L4.85 27.45L5.15 26.8L5.75 26.4L6.15 26.15Q7.05 25.65 6.75 25.95L6.65 26.1L6.5 26.35L7.45 26L7.5 25.95L8.25 25.75L8.25 25.4L8.15 25.15L8.1 25L8.1 24.85L8.15 24.85L8.3 24.85L8.4 24.75L8.25 24.6L8.25 24.5L8.05 24.05L7.15 23.1L6.7 22.9L6.8 22.75L7.35 22.75L8.05 22.9L8.65 23.3L8.75 23.1L8.75 23L8.55 22.65L8.4 22.55L8.7 22.65Q9.1 22.8 9.4 23.05L9.85 23.45L10.25 23.95L10.45 23.5L10.5 23.15L10.5 22.95L10.5 22.9L10.4 22.4L10.5 22.45L10.8 22.45L11 22.2L11 21.9L11 21.85L10.95 21.4L10.75 20.65L10.55 20.15L10.5 20.05L10.4 19.9L10.65 19.95L10.75 20.05L11 20.25L11.7 21.1L12.2 21.9L12.25 22L12.8 22.55L12.85 22.6L12.9 22.65L13.4 22.65L13.5 22.65L13.7 22.6L13.6 22.9L13.6 23.15L13.6 23.25L13.7 23.5L14.8 22.9L14.9 22.8L15.6 22.1L15.75 21.9L16 21.25Q16.35 21.8 16.25 22.45L16.25 22.8L15.45 23.4L15.35 23.55L15.35 23.65L15.35 23.7L15.45 23.8L15.45 24.2L15.5 24.4L15.65 24.7L16.25 24.2L16.9 23.9L17 23.85L17.55 23.7L17.2 24L16.8 24.55L16.65 24.8L16.35 25.35L16.05 25.35L15.5 25.05L15.5 25.15L15.5 25.2L15.65 25.65L15.85 25.95L15.6 26.05L15.45 26.1L14.15 26Q15.2 27.2 16.5 27.25L17.05 27.15L17.9 26.8L18 26.8L18 26.85L17.65 27.35L16.95 27.8L16.9 27.8L15.65 27.95L14.4 27.5L14.8 28.05L14.55 28Q14.3 27.95 14.05 28.2L13.8 28.45L14.2 28.95L14.7 29.9Q14.9 30.35 14.7 30.75L14.4 30.15L14.05 29.85L13.9 29.75L13.4 29.5L13.25 29.5L13.05 29.55L12.9 29.75L12.8 29.7L12.85 29.75L12.65 30L11.6 30.8L10.3 31.35L10.1 31.4L9.8 31.45L10.3 31.1L10.65 30.8L11.55 29.5L11.2 29.1L10.85 28.8L10.3 28.45L9.6 28.1L9.5 28.45L9.1 28.5L8.45 28.7L8.35 28.75L8.05 29L7.7 29.3L7.35 29.7L7.05 29.1L7.05 29.05L7.15 28.8L7.6 28.05L7.65 28.35L7.85 28.4L8.2 28L8.5 27.7L8.8 27.6L8.85 27.55L8.75 27.3L8.65 27.25L8.25 26.95M11.9,23.4L11.7 23.45L11.5 23.95Q11.4 24.45 11.8 24.55L12.5 24.45L12.55 24.4L12.5 24.35L11.95 23.6L11.9 23.4M12.9,25.35L11.95 25.25L11.2 25.4L11.05 25.45L10.75 25.75L10.8 25.75L11.35 26.1L11.35 26.15L12 26.95L12.05 27.05L12.35 27.7L12.45 28L12.7 27.7L12.95 27.15L13.05 26.9L13.15 26.2L12.95 25.45L12.9 25.35" />
<path style="fill:#9A3612;fill-opacity:1" d="M35.65,12.5L35.85 12.7L36.05 13L36.1 13.15L36.15 13.3L36.2 13.7L36.1 14.2L36.05 14.4L35.5 15.1L35.4 15.15L34.85 15.25L34.85 15.65L34.55 16.3L33.55 17.35L32.45 17.45L32.25 17.4L31.7 17.3L31.5 17.25L31 17.15L30.7 17.05L30.2 16.9L29.75 16.75L29.1 16.5L28.9 16.4L28.25 15.95L27.9 15.5Q27.6 15.1 27.6 14.7L27.65 14.3L28 13.4Q27.05 12.7 26.8 12.2Q26.55 11.7 26.65 11.2L26.65 11.15L26.85 10.7L26.9 10.6L27 10.45L27.2 10.15L27.45 9.95Q27.75 9.7 28.1 9.65L28.35 9.65L29.1 10L29.25 10.1L29.45 10.25L30.85 11.2L32.05 11.8L32.1 11.8L32.55 11.9L33.55 12L34.2 12.05L34.95 12.15L35.45 12.35L35.5 12.35L35.65 12.5M24.3,28.65L24.05 28.25L23.65 27.4L23.65 25L23.7 24.85Q24.15 24.15 25.05 23.95L25.2 23.95L25.2 24.45Q24.8 24.5 24.35 24.9L24 25.45L23.9 26.2L23.95 26.55L24.05 26.9L24.05 27L24.45 27.95L24.75 28.35L25.05 28.65L25.25 28.75L25.8 28.75L26.15 28.15L25.7 27.7L25.2 26.8L24.95 25.7L25.15 24.95L25.2 24.85L25.2 24.95Q25.25 25.55 25.55 25.75L25.6 26.1Q25.75 26.85 26.2 27.4L26.55 27.8L26.6 27.85L26.7 27.95Q26.85 28.75 26.25 29.15L25.05 29.25L24.8 29.15L24.3 28.65M0.05,22.25L0 21.55L0.05 21L0.1 20.75Q0.45 19.3 2.45 18.6L2.35 18.5L2.3 18.4L2.9 19.05Q2.25 19.05 1.5 19.7L0.7 20.75L0.6 21L0.6 21.15L0.5 21.75L0.5 21.8L0.05 22.25M11.5,17.75L11.45 17.7L10.9 17.3L10.75 17.15L9.35 16.5L7.8 16.3L6.3 16.4L5 16.9Q3.9 17.4 3.35 17.35L2.4 17Q2.1 16.65 2.1 16.3L2.6 16.5L4.35 16.6L5.15 16.3L5.35 16.25L5.3 16.2Q5.65 15.95 6.05 15.8L9.4 16.1L9.8 16.25L10 16.5Q10.75 17.35 11.85 17.5L11.5 17.75M9.9,9.6Q9.2 9.2 8.5 9.05L6 9.35L5.95 9.4L5.85 9.45Q6.45 12 8.75 13.1L8.8 13.75L8.35 13.55L7.6 13.15L7.55 13.2L6.45 13.4L5.65 13.65Q4.8 14 4.3 14.35L4.1 14.5L3.65 14.25L3.7 14.2L4.3 13.7Q4.9 13.2 5.95 12.95L6.95 12.75L7.05 12.7L6.95 12.6L6.2 11.7Q5.6 11 5.25 10Q4.85 9 5.8 8.75L7.6 8.35L8.35 8.35L9 8.5Q9.15 7.2 9.85 6.4L10.3 5.95Q10.8 5.55 11.3 5.45Q12.05 5.25 11.85 5.95Q11.7 6.65 11.85 7.65Q12.05 8.7 13.55 9.35Q13.7 7.6 15.05 6.9L15.05 6.85L15.7 6.6L15.95 6.95L16.2 7.55L16.8 8.9Q17.1 9.35 17.85 9.8L18 9.9Q18.9 10.4 19.45 11.25Q19.75 11.7 19.65 12.35L19.05 12.15Q18.7 11.05 17.55 10.35L17.45 10.25L16.75 9.8L16.7 9.75Q15.6 8.8 15.5 7.4L15.15 7.65L15.1 7.75Q14.25 8.55 14.25 9.65L14.25 9.7L15.7 10.9L15.7 10.95L16.2 11.85L15.6 11.95Q15.25 11.15 14.7 10.7L14.5 10.6L14.4 10.5Q13.8 10.05 12.45 9.4L12.25 9.3L12.25 9.15L12 8.35L11.4 8.3Q11 7.55 11.05 6.35Q10.6 6.7 10.3 7.15L10.2 7.2Q9.8 7.85 9.65 8.65L9.65 8.7L10.3 9.05L9.9 9.6M27.25,11.25Q27 11.85 28 12.65L28.85 13.25Q30.8 14.4 32.4 14.65L34.3 14.85L34.6 14.8Q35.25 14.65 35.45 14.2L35.5 14.1L35.55 13.7L35.4 13.25L35.35 13.2L35.15 12.95L33.95 12.75L33.7 12.75L32.05 12.55L32 12.55L31.75 12.45L30.05 11.55L29.9 11.45L29.45 11.15L29.15 10.95L28.7 10.6Q28.35 10.3 28 10.35L27.9 10.4L27.5 10.8L27.4 10.95L27.4 11L27.35 11.1L27.25 11.25M30.6,16.35L31.3 16.6L33.15 16.75Q33.75 16.55 33.9 15.75L34 15.4L32.35 15.3Q31.05 15.05 29.95 14.5L28.65 13.75Q28.2 14.6 28.6 15.25L29.2 15.8L30.1 16.2L30.55 16.35L30.6 16.35M12.3,10.9L12.45 11.1L13.4 12.8L13.3 12.75L12.7 12.1L12.3 10.9M8.95,20.55L8.8 20.75L8.6 21L8.35 21.4L7.9 21.5L7.75 21.6L7.75 21.55L8.1 21L8.25 20.75L8.4 20.55L8.4 20.5L8.45 20.4L8.5 20.35L9 19.75Q10.1 18.65 12.1 18.45Q12.5 18.55 12.7 18.75L12.8 19L12.65 19L12.35 18.95L10.95 19.15L10.65 19.3L10.25 19.25L9.8 19.35L9.65 19.55L9.7 19.85L8.95 20.55M13.7,34.45L14.55 34.35Q15.3 34.45 15.6 34.95L15.65 35.1L15.7 35.3L15.75 35.55L15.65 36.15L15.6 36.15Q15.15 36.15 14.6 36.45L14.1 36.7L13.55 37.1Q13.2 37.45 13.05 37.9L12.5 37.9Q11.65 37.7 11.6 36.7L11.6 36.65L11.7 36.25L12 35.7L12.65 35.05L12.7 35L13.05 34.8Q13.35 34.55 13.7 34.45M14.05,35.9L14.75 35.6L15.05 35.55L15 35.3L14.6 34.95L14.15 35L13.65 35.15L13.45 35.3L12.85 35.75L12.55 36.1Q12.25 36.5 12.3 36.75L12.65 37.15L12.75 37.2L13.2 36.65L13.4 36.4L14.05 35.9" />
<path style="fill:#AD8972;fill-opacity:1" d="M35.5,12.35L35.75 12.15L36.05 11.9L37.85 9.55L38.05 10.6L38.15 11.05L38.05 11.2L37.7 10.55L37.65 10.55Q37.15 11.6 36.25 12.2L35.65 12.5L35.5 12.35M39.6,10.65L38.4 9.85L38.3 8.8L40.2 10.8L39.9 10.95L39.6 10.65M26.8,1L26.9 0.9L28 0.65L29.35 2.8L28.65 2.35L27.9 1.15L27.3 1.4L26.8 1M26.95,1.85L29.1 3.55Q28.3 4.25 27.95 5.45L28.25 3.5L26.4 2.4Q26.35 2.1 26.45 1.95L26.65 1.7L26.95 1.85" />
<path style="fill:#7F5C46;fill-opacity:1" d="M35.65,12.5L36.25 12.2Q37.15 11.6 37.65 10.55L37.7 10.55L38.05 11.2L36.9 12.05L36.65 12.25L35.85 12.7L35.65 12.5M36.05,13L37 12.6L37.2 12.5L38.5 11.55L39.5 11.5L40.3 11.4L39.75 12.25L38.7 12.25L37.6 12.95L36.15 13.3L36.1 13.15L36.05 13M38.4,9.85L39.6 10.65L39.9 10.95Q39.3 11.15 38.6 10.95L38.4 9.85M27.3,1.4L27.9 1.15L28.65 2.35L27.3 1.4M27.7,7L27.9 8.55L27.55 8.55Q26.25 6.45 26.3 3.8L26.4 2.4L28.25 3.5L27.95 5.45Q27.75 6.15 27.7 7M15.55,33.7L15.3 34.05L15.85 33.7L15.9 34.05L15.75 34.5L15.7 34.6L15.15 34.45L14.05 33.8L14.35 33.3L14.5 33.15L15.55 33.7M8.9,29.2L8.8 29.65L8.65 29.3L8.9 29.2" />
<path style="fill:#64432E;fill-opacity:1" d="M36.15,13.3L37.6 12.95L38.7 12.25L39.75 12.25L38.25 13.15L37.1 13.6L36.25 13.7L36.2 13.7L36.15 13.3M26.3,3.8Q26.25 6.45 27.55 8.55L27.9 8.55L27.95 8.75L28.35 9.65L28.1 9.65Q27.75 9.7 27.45 9.95L27.3 9.65L26.6 8.15Q25.8 6.3 25.85 4.85L26 2Q26.1 1.3 26.65 1.7L26.45 1.95Q26.35 2.1 26.4 2.4L26.3 3.8" />
<path style="fill:#9A745C;fill-opacity:1" d="M21.95,12.75L21.45 12.5Q21.65 12.3 21.95 12.25L22.3 12.35L21.95 12.75M23.45,11.95L22.9 11.15L22.55 11.95L21.95 11.8L22.4 10.8L22.65 10.3L23.1 10.75L23.45 11.9L23.5 12.1L23.45 11.95M9.45,12.35L9.55 13.45L9.7 14.1L9.8 14.55L9.9 14.75L10.1 15.2L9.75 15.15L9.55 14.85L9.45 14.55L9.3 13.95L9.25 13.45L9.25 13.35Q9.25 12.7 9.4 12.1L9.45 12.35M13.5,16.7L12.8 17L12.55 17L12.25 17L11.55 16.9L11 16.7Q10.35 16.35 9.95 15.6L10.35 15.65Q10.8 16.25 11.6 16.55L12.15 16.7L12.2 16.7L12.7 16.75L13.2 16.75L13.5 16.7" />
<path style="fill:#774720;fill-opacity:1" d="M22.5,13.65L21.1 12.85L21.45 12.5L21.95 12.75L22.3 12.35L22.65 12.5L23.2 13.3L22.95 14.1L22.5 13.65M23.5,12.1L23.5 12.95Q23.1 12.2 22.55 11.95L22.9 11.15L23.45 11.95L23.5 12.1M10.45,11.15L9.75 11.05L9.8 10.95L10.15 10.25L10.35 9.95L10.6 9.55L10.5 10.05L10.45 10.4L10.45 11.15M9.4,12.1L9.5 11.85L9.6 11.4L9.65 11.35L9.65 11.4L10.4 11.6L10.45 11.6L10.55 12.4L10.55 12.45Q10.7 13.1 11.3 13.85L11.85 14.5L12.05 14.6L11.45 14.95L10.1 15.2L9.9 14.75L9.8 14.55L9.7 14.1L9.55 13.45L9.45 12.35L9.4 12.1M13.2,16.75L12.7 16.75L12.2 16.7L12.15 16.7L11.6 16.55Q10.8 16.25 10.35 15.65Q11.35 15.6 12.05 15.05L12.4 14.85L13.05 15.15L13.6 15.25L14.3 15.15L14.65 15L14.4 15.85L14.1 16.2L14.05 16.25L13.6 16.65L13.5 16.7L13.2 16.75" />
<path style="fill:#483829;fill-opacity:1" d="M26.65,11.2L25.8 11.35L26.15 11.6L24.65 11.4Q25.4 10.65 26.2 10.65L26.55 10.65L26.8 10.7L26.85 10.7L26.65 11.15L26.65 11.2M26.3,9.4Q25.7 9.1 25.45 8.55L25.35 7.85L25.55 7.9L26.3 9.4" />
<path style="fill:#2E201B;fill-opacity:1" d="M36.1,14.2L36.35 14.2L36.55 14.2L36.7 14.5Q36.95 15.1 36.5 15.2L35.7 15.2L35.5 15.1L36.05 14.4L36.1 14.2M31.15,19L30.4 19.1L30.8 19.75L30.85 19.8Q31.3 20.35 32.2 20.55L33.9 20.6Q34.7 20.4 35.05 19.5Q35.7 17.45 35 16L34.85 15.65L34.85 15.25L35.4 15.15Q35.75 16.45 37.05 16.85L35.9 17.1L35.95 18.1L35.7 19.45L35.4 20.15L35.7 20.55Q35.9 20.8 35.55 20.85Q35.25 20.85 35.05 20.65L34.15 21.05L33.75 21.15L33.9 21.7Q34.1 22.55 33.75 24.05Q34.7 24.4 35 26.05L34.55 26.1L33.85 25.65L33.6 25.3L33.55 26.15Q34.2 26.5 34.55 27.65L34.45 27.75L33.6 27.25L33.5 30.25L33.3 31.75L33.1 30.6L32.95 25.2L32.35 25.3L31.75 25.25L31.25 25.05L31.3 24.65L32.5 24.9Q33.2 24.75 33.1 24.3Q33.05 23.8 33.25 24.05Q33.7 22.5 33.2 21.25L31.9 20.95Q31.6 21.3 31.2 21.25L31.2 21.2Q31.2 20.95 31.35 20.75L30.8 20.25L30.5 21.05L30.5 21.1L30.4 21.25L30.1 21.1L30.4 20L30.2 19.55L30 19.1L29.8 19.05L29.3 18.95L28.4 18.7L28.05 18.55L27.4 18.1Q26.4 17.3 26.15 15.8Q25.9 14.55 26.25 13.5L25.35 13.25Q25.5 12.8 26.15 12.4Q26.3 12.25 26.45 12.2L25.95 12.15Q25.2 12 24.65 11.4L26.15 11.6L25.8 11.35L26.65 11.2Q26.55 11.7 26.8 12.2Q27.05 12.7 28 13.4L27.65 14.3L27.6 14.7L26.85 14.95Q26.7 14.7 26.8 14.2L27.15 13.35L26.55 13.5L26.35 14.85Q26.3 16.75 27.5 17.75L28.15 18.2L28.85 18.45L29.35 18.6L29.55 18.65L29.75 18.7L29.9 18.7L29.75 18.05L29.65 17.4L29.75 16.75L30.2 16.9L30.15 17.05Q30 17.55 30.1 18.2L30.15 18.4L30.25 18.75L30.4 18.75L31.25 18.55Q31.95 18.25 32.25 17.4L32.45 17.45Q32.05 18.65 31.15 19M26.3,9.4L27 10.45L26.9 10.6Q25.65 9.85 25.45 8.55Q25.7 9.1 26.3 9.4" />
<path style="fill:#E99C3E;fill-opacity:1" d="M27.35,11.1L27.4 11L27.4 10.95L27.5 10.8L27.9 10.4L28 10.35Q28.35 10.3 28.7 10.6L29.15 10.95L29.45 11.15L29.9 11.45L30.05 11.55L31.75 12.45L32 12.55L32.05 12.55L33.7 12.75L33.95 12.75L35.15 12.95L35.35 13.2L35.4 13.25L35.55 13.7L35.5 14.1L35.45 14.2Q35.25 14.65 34.6 14.8L34.3 14.85L32.4 14.65Q30.8 14.4 28.85 13.25L28 12.65Q27 11.85 27.25 11.25L27.35 11.1M27.8,11.9L27.9 12.05L28.2 12.3Q28.95 12.95 30.3 13.6L32.25 14.35L31.3 13.75Q30.4 12.85 30.7 12.35L30.05 12L29.1 11.3L28.8 11.1L28.2 10.65L27.95 10.9L27.8 11.05L27.55 11.6L27.8 11.9M33.9,15.75Q33.75 16.55 33.15 16.75L31.3 16.6L30.6 16.35L30.55 16.35L30.55 15.8L30.8 15.5L31.05 15.45L31.45 15.45L31.6 15.45L32.8 15.7L33.9 15.75M34.85,13.35L34.6 13.2L34.5 13.2L34.45 13.2L34.25 13.2L32.5 13Q33.95 13.35 34.05 13.8L34.8 13.9L34.85 13.8L34.85 13.35M32.3,16.2Q32.7 16.55 33.05 16.2L32.85 16Q32.4 15.85 32.3 16.2M16.75,9.8L17.25 10.5Q17.5 10.9 17.15 10.95Q16.05 10.7 15.55 9.95L15.4 9.4L15.4 8.25Q15.65 9.25 16.7 9.75L16.75 9.8M10.65,8.65L10.55 8.05L10.85 7.25Q10.75 7.8 11.25 8.35L11 8.45L10.95 8.45L10.65 8.65M12.45,9.4Q13.8 10.05 14.4 10.5L14.5 10.6L13.3 10.4Q13.85 10.85 13.9 11.95L12.65 10.3L12.25 10L12.25 9.3L12.45 9.4M9.5,10.35L9.45 10.3Q9.25 10.1 8.9 10.05L8.75 10.2Q8.35 10.5 9.15 10.95L9.2 10.95L9.05 11.4L9 11.35L8.95 11.65L8.85 12.05L8.2 11.8L7 10.9L6.75 10.35L6.7 10.1L6.6 9.5Q8.05 9.3 9.65 10L9.5 10.35M12.85,35.75L13.45 35.3L13.65 35.15L14.15 35L14.6 34.95L15 35.3L15.05 35.55L14.75 35.6L14.05 35.9L13.4 36.4L12.85 35.75M14.5,35.15L14.3 35.1L14.25 35.15Q13.05 35.35 14 35.6Q14.3 35.65 14.45 35.4L14.5 35.35L14.5 35.15M25.2,24.85L25.15 24.95L24.95 25.7L25.2 26.8L25.7 27.7L26.15 28.15L25.8 28.75L25.25 28.75L25.05 28.65L24.75 28.35L24.45 27.95L24.05 27L24.05 26.9L23.95 26.55L23.9 26.2L24 25.45L24.35 24.9Q24.8 24.5 25.2 24.45L25.2 24.85M25.8,28.5L25.9 28.2L25.55 27.8L24.95 26.65Q24.8 27.15 24.05 27L24.7 28.1L24.8 28.25L25.2 28.6L25.4 28.65L25.8 28.5M24.75,24.85L24.65 24.85L24.3 25.35Q24.2 25.6 24.7 25.7L24.8 25.55L24.85 25.05L24.85 25L24.75 24.85" />
<path style="fill:#D45E32;fill-opacity:1" d="M27.55,11.6L27.8 11.05L27.95 10.9L28.2 10.65L28.8 11.1L29.1 11.3L30.05 12L30.7 12.35Q30.4 12.85 31.3 13.75L32.25 14.35L30.3 13.6Q28.95 12.95 28.2 12.3L27.9 12.05L27.8 11.9L27.55 11.6M32.8,15.7L31.6 15.45L31.45 15.45L31.05 15.45L30.8 15.5L30.55 15.8L30.55 16.35L30.1 16.2L29.2 15.8L28.6 15.25Q28.2 14.6 28.65 13.75L29.95 14.5Q31.05 15.05 32.35 15.3L34 15.4L33.9 15.75L32.8 15.7M17.15,10.95Q17.5 10.9 17.25 10.5L16.75 9.8L17.45 10.25L17.55 10.35Q18.7 11.05 19.05 12.15L16.65 11.8L16.2 11.85L15.7 10.95L15.7 10.9L14.25 9.7L14.25 9.65Q14.25 8.55 15.1 7.75L15.15 7.65L15.1 7.8L15.05 8.2Q15.05 9.25 15.55 9.95Q16.05 10.7 17.15 10.95M10.3,9.05L9.65 8.7L9.65 8.65Q9.8 7.85 10.2 7.2L10.3 7.15L10.25 7.3Q10.1 8.05 10.35 8.55L10.55 8.8L10.3 9.05M14.7,10.7Q15.25 11.15 15.6 11.95L14.9 12.15L14.65 12.2L13.9 12.75L13.75 12.95L13.75 13L13.4 12.8L12.45 11.1L12.3 10.9L12.25 10.65L12.25 10L12.65 10.3L13.9 11.95Q13.85 10.85 13.3 10.4L14.5 10.6L14.7 10.7M11.45,9.7L11.5 9.8L11.5 9.9L11.45 9.7M8.75,13.1Q6.45 12 5.85 9.45L5.95 9.4L6 9.35L6.1 9.55Q6.4 10.3 7 10.9L8.2 11.8L8.85 12.05L8.75 13.1M8.95,11.65L9 11.35L9.05 11.4L8.95 11.65M13.4,36.4L13.2 36.65L12.75 37.2L12.65 37.15L12.3 36.75Q12.25 36.5 12.55 36.1L12.85 35.75L13.4 36.4M25.4,28.65L25.2 28.6L24.8 28.25L24.7 28.1L24.05 27Q24.8 27.15 24.95 26.65L25.55 27.8L25.9 28.2L25.8 28.5L25.4 28.65" />
<path style="fill:#41290C;fill-opacity:1" d="M28,41.05Q27.75 39.15 27.85 37.95L27.9 37.3L27.95 37.25L28.25 35.9Q28.5 35.2 29.15 34.4L29.35 34.15L29.8 33.5Q30.2 32.8 30.15 31.9Q30.1 30.65 29.4 29.6L29.35 29.5Q29.05 29.05 29 28.25L29.3 28.2L29.65 28.15Q29.7 28.65 29.9 29L30.05 29.25L30.7 31.2L30.75 32.9L30.75 33.05L29.55 35.1Q28.7 36.2 28.5 37.5L28.45 37.95L28.55 40.45L28.9 42.05L29.4 43.5L29.55 44.75Q29.4 45.25 28.7 45.4L27.6 45.55L26.7 45.4L26 44.85Q25.8 44.4 25.9 43.8L26.1 42.65L26.15 41.15L25.9 38.2L25.8 37.4Q25.65 35.95 25.95 35Q26.3 33.9 26.95 33.25L26.95 33.2L27.5 32.55L27.6 31.95L27.05 30.15Q26.7 29.35 26.9 27.7L26.9 27.65Q27.2 27.95 27.55 28.05L27.5 28.9Q27.5 29.55 27.95 30.8L28.2 32.4L28.15 32.65L27.7 33.4L27.4 33.8L26.7 35.1L26.65 35.15Q26.4 35.9 26.45 37L26.5 37.1L26.7 39.6L26.85 42.05L26.7 42.9L26.7 43L26.6 44.25Q26.65 44.85 27.9 44.75Q29.2 44.7 28.75 43.8L28.55 43.25L28 41.05M27.55,21.2L27.45 20.8Q27.1 19.25 27.4 18.1L28.05 18.55L28.1 20.15L28.25 20.9L27.65 21.1L27.55 21.2M28.25,15.95L28.9 16.4L28.25 17.9L28.15 18.2L27.5 17.75L28.25 15.95M30.4,18.75L30.55 18.3L31 17.15L31.5 17.25L31.7 17.3L31.75 17.35L31.35 18.2L31.3 18.4L31.25 18.55L30.4 18.75M29.8,21L30.2 19.55L30.4 20L30.1 21.1L29.8 21M30.4,21.25L30.5 21.1L30.45 21.25L30.4 21.25M30.85,19.8L30.8 19.75L30.4 19.1L31.15 19L30.85 19.8" />
<path style="fill:#5D391E;fill-opacity:1" d="M28.15,18.2L28.25 17.9L28.9 16.4L29.1 16.5L29.75 16.75L29.65 17.4L29.75 18.05Q29.15 17.9 29.1 17.75L28.85 18.45L28.15 18.2M30.1,18.2Q30 17.55 30.15 17.05L30.2 16.9L30.7 17.05L31 17.15L30.55 18.3L30.1 18.2M29.55,18.65L29.65 18.6L29.7 18.6L29.75 18.7L29.55 18.65M28.25,20.9L28.1 20.15L28.05 18.55L28.4 18.7Q28.05 19.05 28.7 19.1L28.8 20.15L28.8 20.4L28.95 20.85L28.25 20.9M29.3,19.6L29.25 19.55Q29.15 19.2 29.3 18.95L29.8 19.05L29.3 19.6M29.35,29.5L29.4 29.6L29 29.65L28.55 29.65Q28.15 29.7 28.6 30.35Q28 30.85 28.75 30.75Q28.95 31.75 28.2 32.4L27.95 30.8Q27.5 29.55 27.5 28.9L27.55 28.05L28.4 28.25L29 28.25Q29.05 29.05 29.35 29.5M27.5,37.15L26.9 37.25L27 37.8L27.2 39.25Q26.9 39.35 26.95 39.75L26.95 39.8L27.3 39.8L27.3 40.25Q27.4 41.9 27.1 43.7Q28.45 44.15 28.55 43.25L28.75 43.8Q29.2 44.7 27.9 44.75Q26.65 44.85 26.6 44.25L26.7 43L26.7 42.9L26.85 42.05L26.7 39.6L26.5 37.1L26.45 37Q26.4 35.9 26.65 35.15L26.7 35.1L27.4 33.8L27.7 33.4L28 33.7Q28.45 34.15 29.8 33.5L29.35 34.15L29.15 34.4Q28.5 35.2 28.25 35.9L27.95 37.25L27.9 37.3L27.5 37.15M27.6,43Q27.5 42.65 27.75 42.5Q28.15 42.75 27.9 43.1L27.6 43.05L27.6 43M27.75,44.3L27.45 44L27.3 44L27.2 44.05L27.2 44.25L27.2 44.4L27.75 44.3" />
<path style="fill:#93663B;fill-opacity:1" d="M29.9,18.7L29.75 18.7L29.7 18.6L29.65 18.6L29.55 18.65L29.35 18.6L28.85 18.45L29.1 17.75Q29.15 17.9 29.75 18.05L29.9 18.7M30.55,18.3L30.4 18.75L30.25 18.75L30.15 18.4L30.1 18.2L30.55 18.3M29.8,21L29.55 20.95L28.95 20.85L28.8 20.4L28.8 20.15L28.7 19.1Q28.05 19.05 28.4 18.7L29.3 18.95Q29.15 19.2 29.25 19.55L29.3 19.6L29.8 19.05L30 19.1L30.2 19.55L29.8 21M29.65,19.7Q29.2 20.1 29.35 20.75L29.35 20.8Q29.95 20.45 29.7 19.7L29.65 19.7M30.15,31.9Q30.2 32.8 29.8 33.5Q28.45 34.15 28 33.7L27.7 33.4L28.15 32.65L28.2 32.4Q28.95 31.75 28.75 30.75Q28 30.85 28.6 30.35Q28.15 29.7 28.55 29.65L29 29.65L29.4 29.6Q30.1 30.65 30.15 31.9M29.75,31.45Q29.6 30.4 29.25 31.65Q28.95 32.9 29.5 32.7Q30 32.45 29.75 31.45M27.9,37.3L27.85 37.95Q27.75 39.15 28 41.05L28.55 43.25Q28.45 44.15 27.1 43.7Q27.4 41.9 27.3 40.25L27.3 39.8L26.95 39.8L26.95 39.75Q26.9 39.35 27.2 39.25L27 37.8L26.9 37.25L27.5 37.15L27.9 37.3M27.6,43.05L27.9 43.1Q28.15 42.75 27.75 42.5Q27.5 42.65 27.6 43L27.6 43.05M27.2,44.4L27.2 44.25L27.2 44.05L27.3 44L27.45 44L27.75 44.3L27.2 44.4" />
<path style="fill:#8A5A44;fill-opacity:1" d="M23.55,30L23.5 30.65L23.2 33.3L23 33.6L22.8 33.6L22.15 33.3L22.25 33.3L22.55 33.2L22.85 30.3L22.9 29.55L22.95 27.75L22.9 26.7L22.9 26.6L22.9 25.9L22.8 24.1Q22.85 23.65 23.2 23.35L23.65 22.75L23.85 21.45L23.95 20.35L24.5 19.9L25.05 18.75Q25.1 17.95 24 17.4Q22.9 16.85 22.9 16.45L22.8 15.45L22.7 15L22.45 14.6L22 14.1Q21.6 13.75 20.75 13.4L20.35 13.2L19.45 12.9L19.3 12.85L19.2 12.8Q17.3 12.2 16.3 12.3L16.25 12.3L15.8 12.45L15.55 12.5L15.35 12.6Q14.6 12.85 14.2 13.3L13.75 13L13.75 12.95L13.9 12.75L14.65 12.2L14.9 12.15L15.6 11.95L16.2 11.85L16.65 11.8L19.05 12.15L19.65 12.35L19.7 12.35L20.7 12.7L21.1 12.85L22.5 13.65L22.95 14.1L23.3 14.5L23.5 14.95L23.7 15.8L23.8 16.35L24.9 17.05Q25.85 17.55 25.85 18.65Q25.8 19.75 25.3 20.25L24.5 20.9L24.55 22.4Q24.55 22.95 23.6 24.15L23.65 25L23.65 27.4L23.6 29.15L23.55 30" />
<path style="fill:#FFF9F3;fill-opacity:1" d="M22,33.35L22 33.25L22 33.2L22.25 30.4L22.25 30.35L22.3 29.8L22.45 28.05L22.45 27.25Q22 27.3 22.45 26.85L22.45 26.75L22.5 26.1L22.4 24.3L22.45 23.7L22.25 23.35L23.1 22.55L23.4 20.55L24.3 19.25Q24.6 18.95 24.2 18.45Q23.9 17.95 23.3 17.65L23.2 17.8L22.95 17.95Q22 17.55 22.75 17.3Q22.3 16.9 22.15 16.15L21.9 15.15L21.85 15.05L21.55 14.55L20.9 14.05L20.25 13.65L20.05 13.55L20.05 13.6L19.8 13.85Q18.9 13.85 19.45 13.3L19.3 13.25L19.25 13.25L19.2 13.2L16.85 12.6L16.3 12.35L16.25 12.3L16.3 12.3Q17.3 12.2 19.2 12.8L19.3 12.85L19.45 12.9L20.35 13.2L20.75 13.4Q21.6 13.75 22 14.1L22.45 14.6L22.7 15L22.8 15.45L22.9 16.45Q22.9 16.85 24 17.4Q25.1 17.95 25.05 18.75L24.5 19.9L23.95 20.35L23.85 21.45L23.65 22.75L23.2 23.35Q22.85 23.65 22.8 24.1L22.9 25.9L22.9 26.6L22.9 26.7L22.95 27.75L22.9 29.55L22.85 30.3L22.55 33.2L22.25 33.3L22.15 33.3L22 33.35M22.35,20.75L22.2 21L22 21.1Q21.45 21.3 20.4 21.1Q19.3 20.8 18.75 20.25Q18.25 19.6 18.4 19.15L19.1 19.95Q19.8 20.65 21.4 20.75L22.35 20.75M22.3,22.3Q21.3 22.25 22 21.65L22.4 22.1L22.3 22.3" />
<path style="fill:#C99772;fill-opacity:1" d="M20.85,15.3L20.7 15.55Q19.55 15.4 20.5 14.85L20.85 15.3M15.25,15.05L15.45 14.85Q15.9 15 15.75 15.45L15.6 15.55L15.2 15.45Q14.95 15.3 15.25 15.05M14.5,16.6L14.55 16.55L14.7 16.35L14.85 16.15L15.5 16.85L16.4 17.4L15.25 17.15L14.95 17L14.5 16.6M14.8,21.05L14.3 21.1Q14.1 21.1 14.05 20.95Q13.9 20.8 13.9 20.5L13.85 20.25L13.7 19.35L13.45 18.75L13.1 18.1L12.6 17.5L13.1 17.45L13.3 17.7Q13.05 18 13.2 18.15L13.7 18.3L14.25 18.95L14.5 18.8L14.65 18.9L14.75 19.55L14.65 19.7L14.55 19.7L14.5 19.7L14.5 19.8L14.55 19.95L14.6 20.25L14.9 20.5L15.15 20.5L14.8 21.05M17.5,22.9L17.2 22.8L17.35 21.95Q17.5 21.3 17.1 20.9L16.9 20.8L16.65 20.75L16.4 20.7L16 20.35L16 20.25L16.35 20.2L16.65 19.85Q17 19.8 17.15 20.1L17.2 20.35L17.25 20.4Q18.05 20.7 17.8 22.75L17.5 22.9M19.55,25.1L19.55 25.15L19.5 25.35L19.5 25.95L19.5 26L18.4 25.95L17.85 25.9L16.85 25.65L16.95 25.45L17.45 25.05L17.8 25.2L18 25.25L18.55 24.85Q18.95 25 18.8 25.3L19.3 25.25L19.6 24.85L19.55 25.1M22,33.25L22 33.35Q21.05 33.45 20.25 32.65L20.25 30.45L20.25 30.15L20.25 29.85L20.3 28.45L20.3 28.3L20.25 27.3L20.2 26.65L20.1 26.1L20.05 25.6L19.8 24.35L19.8 24.3L19.75 24L19.9 24.2L19.9 24.25L19.95 24.35L19.9 24.1L20.35 24.9L20.6 24.65L20.85 24.9L20.75 25.05L20.4 25.15L20.75 26.2L20.75 28.95Q20.1 29.6 20.75 29.7L20.85 31.9Q20.35 32.3 20.9 32.45L20.95 32.5L21.2 32.2Q21.6 32.3 21.6 32.75L21.55 32.9L22 33.2L22 33.25M21.2,23.45Q22.05 23.65 22.1 24.5L22.1 24.55Q20.95 24.5 21 23.45L21.2 23.45M22.6,20.1Q22.3 19.4 21.4 18.6Q20.5 17.8 19.35 17.8Q18.25 17.75 18.25 18.15L18.15 18.2L18.15 18.25L18 18.05Q17.75 17.4 18.9 17.15Q20 16.9 21.2 17.65L21.65 17.95Q22.65 18.85 22.85 19.6L22.95 20.3L22.95 20.35L22.9 20.55L22.8 20.5L22.6 20.1M21.6,16.65Q20.75 16.85 21.45 16.35L21.65 16.45Q21.8 16.6 21.6 16.65M15.35,18.55Q14.35 18.75 15.15 18.1L15.45 18.35L15.35 18.55M14.2,17.65Q13.4 17.85 14.1 17.4L14.25 17.45L14.35 17.55L14.25 17.65L14.2 17.65M17.85,19.9Q17.75 20.05 17.65 20Q16.75 19.55 17.75 19.25Q18.2 19.45 17.85 19.9M19.3,23.7L19.2 23.9Q18.3 24.2 19 23.4L19.3 23.7M21.55,28.6L21.1 28.45Q20.9 28.2 21.5 27.9L21.75 28.3L21.7 28.5L21.55 28.6" />
<path style="fill:#E0C9B5;fill-opacity:1" d="M20.5,14.85Q19.55 15.4 20.7 15.55L20.85 15.3L20.5 14.85M21.95,23.15Q21.6 23 21 23.15L20.95 23.15Q20.45 23.3 21 23.45Q20.95 24.5 22.1 24.55L22.25 24.5L22.4 24.3L22.5 26.1L22.45 26.75L22.45 26.85Q22 27.3 22.45 27.25L22.45 28.05L22.3 29.8L22.25 30.35L22.25 30.4L22 33.2L21.55 32.9L21.6 32.75Q21.6 32.3 21.2 32.2L20.95 32.5L20.9 32.45Q20.35 32.3 20.85 31.9L20.75 29.7Q20.1 29.6 20.75 28.95L20.75 26.2L20.4 25.15L20.75 25.05L20.85 24.9L20.6 24.65L20.35 24.9L19.9 24.1L19.95 24.35L19.9 24.25L19.9 24.2L19.75 24L19.8 24.3L19.6 24.85L19.3 25.25L18.8 25.3Q18.95 25 18.55 24.85L18 25.25L17.8 25.2L17.45 25.05L17.7 24.85L18.15 24.35Q19 23.3 19.2 22.05L17.8 22.75Q18.05 20.7 17.25 20.4L17.2 20.35L17.15 20.1Q17 19.8 16.65 19.85L16.35 20.2L16 20.25L16 20.35L15.9 20.25Q15.4 19.95 15.15 20.45L15.15 20.5L14.9 20.5L14.6 20.25L14.55 19.95L14.5 19.8L14.5 19.7L14.55 19.7L14.65 19.7L14.75 19.55L14.65 18.9L14.5 18.8L14.25 18.95L13.7 18.3L13.2 18.15Q13.05 18 13.3 17.7L13.1 17.45L14.1 17L14.4 17.15L15 17.3L15.3 17.3L15.15 17.2L14.95 17L15.25 17.15L16.4 17.4L15.5 16.85L14.85 16.15L15.2 15.45L15.6 15.55L15.75 15.45Q15.9 15 15.45 14.85L15.25 15.05L15.2 14.8L15.15 14.65L15 14.1L15.55 14.35L17.15 15.1L19.9 16.75Q19.8 15.7 18.95 14.55L18.7 14.2Q17.95 13.25 16.85 12.6L19.2 13.2L19.25 13.25L19.3 13.25L19.45 13.3Q18.9 13.85 19.8 13.85L20.05 13.6L20.05 13.55L20.25 13.65L20.9 14.05L21.55 14.55L21.85 15.05L21.9 15.15L22.15 16.15Q22.3 16.9 22.75 17.3Q22 17.55 22.95 17.95L23.2 17.8L23.3 17.65Q23.9 17.95 24.2 18.45Q24.6 18.95 24.3 19.25L23.4 20.55L23.1 22.55L22.25 23.35L21.95 23.15M18.25,18.8L18.4 19.15Q18.25 19.6 18.75 20.25Q19.3 20.8 20.4 21.1Q21.45 21.3 22 21.1L22.2 21L22.35 20.75L22.8 20.5L22.9 20.55L22.95 20.35L22.95 20.3L22.85 19.6Q22.65 18.85 21.65 17.95L21.2 17.65Q20 16.9 18.9 17.15Q17.75 17.4 18 18.05L18.15 18.25L18.25 18.8M21.65,16.45L21.45 16.35Q20.75 16.85 21.6 16.65Q21.8 16.6 21.65 16.45M22.4,22.1L22 21.65Q21.3 22.25 22.3 22.3L22.4 22.1M15.45,18.35L15.15 18.1Q14.35 18.75 15.35 18.55L15.45 18.35M14.25,17.65L14.35 17.55L14.25 17.45L14.1 17.4Q13.4 17.85 14.2 17.65L14.25 17.65M17.75,19.25Q16.75 19.55 17.65 20Q17.75 20.05 17.85 19.9Q18.2 19.45 17.75 19.25M19,23.4Q18.3 24.2 19.2 23.9L19.3 23.7L19 23.4M21.7,28.5L21.75 28.3L21.5 27.9Q20.9 28.2 21.1 28.45L21.55 28.6L21.7 28.5" />
<path style="fill:#3F3629;fill-opacity:1" d="M21.4,20.75Q19.8 20.65 19.1 19.95L18.4 19.15L18.25 18.8L18.15 18.25L18.15 18.2L18.25 18.15Q18.25 17.75 19.35 17.8Q20.5 17.8 21.4 18.6Q22.3 19.4 22.6 20.1L22.8 20.5L22.35 20.75L21.4 20.75" />
<path style="fill:#744631;fill-opacity:1" d="M22.15,33.3L22.8 33.6L23 33.6L22.65 33.85L21.95 33.95L21.45 33.85L20.1 33.3L19.6 32.65L19.6 32.05L19.7 30.15L19.7 29.6L19.7 29.4L19.75 28.9L19.75 28.35L19.55 26.6L18.65 26.6Q18.65 26.2 18.25 26.15L17.35 25.95L16.75 25.8L16.85 25.65L17.85 25.9L18.4 25.95L19.5 26L19.5 25.95L19.5 25.35L19.55 25.15L19.55 25.1L19.6 24.85L19.8 24.3L19.8 24.35L20.05 25.6L20.1 26.1L20.2 26.65L20.25 27.3L20.3 28.3L20.3 28.45L20.25 29.85L20.25 30.15L20.25 30.45L20.25 32.65Q21.05 33.45 22 33.35L22.15 33.3M14.95,17L15.15 17.2L15.3 17.3L15 17.3L14.4 17.15L14.1 17L14.5 16.6L14.95 17M21,23.45Q20.45 23.3 20.95 23.15L21 23.15Q21.6 23 21.95 23.15L22.25 23.35L22.45 23.7L22.4 24.3L22.25 24.5L22.1 24.55L22.1 24.5Q22.05 23.65 21.2 23.45L21 23.45M13.1,18.1L13.45 18.75L13.7 19.35L13.85 20.25L13.9 20.5Q13.9 20.8 14.05 20.95Q14.1 21.1 14.3 21.1L14.8 21.05L14.7 21.15L14.3 21.5L14.15 21.65L14.05 21.65L13.35 20.75L13.2 19.75L13 19.05L12.35 18.05L11.9 17.5L12.3 17.5L12.6 17.5L13.1 18.1M16.85,22.75Q17.05 22.1 16.75 21.35L16.4 20.7L16.65 20.75L16.9 20.8L17.1 20.9Q17.5 21.3 17.35 21.95L17.2 22.8L16.85 22.75" />
<path style="fill:#66461A;fill-opacity:1" d="M29.3,28.2L29 28.25L28.4 28.25L27.55 28.05Q27.2 27.95 26.9 27.65L26.65 27.3L26.6 27.2Q26.3 26.6 26.5 25.65L26.1 25.85L25.55 25.75Q25.25 25.55 25.2 24.95L25.2 24.85L25.2 24.45L25.2 23.95L25.2 23.8Q25.25 23.3 25.65 23Q26 22.7 26.5 22.85L26.55 22.85L26.65 21.75Q26.85 21.5 27.55 21.2L27.65 21.1L28.25 20.9L28.95 20.85L29.55 20.95L29.8 21L30.1 21.1L30.4 21.25L30.45 21.25L31.15 21.95Q31.65 22.75 31.5 23.3L31.3 24.6L31.3 24.65L31.25 25.05L31.25 25.9Q31.35 26.55 31.05 27.1L30.3 27.95L29.65 28.15L29.3 28.2M27.2,24.15L26.6 24.3L26.6 24.15L26.45 23.55Q26.35 23.15 25.7 23.7L25.65 24.05L25.55 24.7L25.55 25.05L25.8 25.3L26.4 25.2L26.45 25L27.4 24.8L27.5 24.15L28.05 24.1L28.15 24.1L28.3 24.15L29 24.4L29.15 24.5L29.25 24.6L29.15 24.8L29.1 24.8L28.65 24.8L28.05 24.85L27.85 24.85L27.4 24.95L27.2 25L26.95 25.8L26.9 26.55L27 26.8L27.55 27.45L27.85 27.55L28.95 27.65L29.6 27.55L29.8 27.45Q30.75 26.9 30.6 26.4L30.6 25.65L30.6 24.8L30.6 24.75L30.65 24.6L30.7 24.05L30.8 23.35L30.85 23.25L30.9 23.15Q30.95 22.65 30.25 22.05L30.15 21.95L29.95 21.85L29.65 21.7L29.3 21.6L28.95 21.55L28.3 21.6L27.6 21.85L27.25 22.1L27.25 23L27.3 23.3L27.2 24.15" />
<path style="fill:#C69566;fill-opacity:1" d="M29.7,19.7Q29.95 20.45 29.35 20.8L29.35 20.75Q29.2 20.1 29.65 19.7L29.7 19.7M29.5,32.7Q28.95 32.9 29.25 31.65Q29.6 30.4 29.75 31.45Q30 32.45 29.5 32.7" />
<path style="fill:#DBBE91;fill-opacity:1" d="M26.95,25.8L27.2 25L27.4 24.95L27.85 24.85L28.05 24.85L28.65 24.8L29.1 24.8L29.15 24.8L29.25 24.6L29.15 24.5L29 24.4Q28.8 23.95 28.2 23.65L27.55 23.4L27.3 23.3L27.25 23L27.25 22.1L27.6 21.85L28.3 21.6L28.95 21.55L29.3 21.6L29.65 21.7L29.95 21.85L30.15 21.95L30.25 22.05Q30.95 22.65 30.9 23.15L30.85 23.25L30.8 23.35L30.5 23.7L30.3 24.1Q29.8 25 29.95 26.2L30 26.4L29.65 26.5L28.95 26.6L27.85 26.4L27.75 26.35L27.15 26L26.95 25.8M25.55,24.7L25.65 24.05L25.7 23.7Q26.35 23.15 26.45 23.55L26.6 24.15L26.5 24.3L26.5 24.35L26.05 24.7L25.85 24.75L25.55 24.7M27.65,22.25L27.7 22.35L28.3 22.3L28.8 22.3L29.5 22.35L29.9 22.4L30.1 22.45Q30.3 22.35 29.9 22.2L29.85 22.15L29.55 22L29 21.85L28.95 21.85L28.3 21.9L27.6 22.05L27.6 22.1L27.6 22.2L27.65 22.25M28.55,25.2L28.45 25.15L28 25.1Q27.55 25.1 27.3 25.45L27.3 25.5L27.95 25.6L28.6 25.35L28.6 25.3L28.55 25.2" />
<path style="fill:#F3E0C4;fill-opacity:1" d="M27.6,22.2L27.6 22.1L27.6 22.05L28.3 21.9L28.95 21.85L29 21.85L29.55 22L29.85 22.15L29.9 22.2Q30.3 22.35 30.1 22.45L29.9 22.4L29.5 22.35L28.8 22.3L28.3 22.3L27.7 22.35L27.65 22.25L27.6 22.2M28.6,25.3L28.6 25.35L27.95 25.6L27.3 25.5L27.3 25.45Q27.55 25.1 28 25.1L28.45 25.15L28.55 25.2L28.6 25.3" />
<path style="fill:#C4944D;fill-opacity:1" d="M27.15,26L27.75 26.35L27.85 26.4L28.95 26.6L29.65 26.5L30 26.4L29.95 26.2Q29.8 25 30.3 24.1L30.5 23.7L30.8 23.35L30.7 24.05L30.65 24.6L30.6 24.75L30.6 24.8L30.6 25.65L30.6 26.4Q30.75 26.9 29.8 27.45L29.6 27.55L28.95 27.65L27.85 27.55L27.55 27.45L27 26.8L26.9 26.55L26.95 25.8L27.15 26M25.85,24.75L26.05 24.7L26.5 24.35L26.5 24.3L26.6 24.15L26.6 24.3L27.2 24.15L27.3 23.3L27.55 23.4L28.2 23.65Q28.8 23.95 29 24.4L28.3 24.15L28.15 24.1L28.05 24.1L27.5 24.15L27.4 24.8L26.45 25L26.4 25.2L25.8 25.3L25.55 25.05L25.55 24.7L25.85 24.75M19.55,26.6L19.75 28.35L19.75 28.9L19.7 29.4L18.1 27.9L18.05 27.85L18.5 27.15L18.65 26.6L19.55 26.6M17.5,29.1L15.95 29.35L15.85 28.6L17.2 28.35L17.25 28.35L17.5 29.1M14.3,31.05L15.25 31L15.3 30.95L15.3 31.35L15.4 31.65Q15.75 31.95 16.25 32.05L16.35 32.05L15.25 32.35Q14.75 32.25 14.7 31.95Q14.6 32.1 14.65 32.3L14.1 32.05L13.1 31.5L13.4 30.9L13.7 30.25Q14.15 30.45 14.3 31.05M11.7,36.25L9.65 34.65L9.35 34.25L9.2 33.85L9.1 33L9.15 32.95L9.1 32.95L9.25 32.9Q9.25 32.55 9.4 32.15L9.5 31.95L11.3 31.65L12.6 30.95L12.55 31.05L12.35 31.4L11.95 32L11.7 32.4Q11.2 32.3 10.75 32L10.6 32.2L10.35 32.55L10.25 32.75L9.85 32.75L9.8 32.75Q9.65 32.85 10 33.5L10.05 33.65L10.1 33.7L10.45 34.4L11.4 35.35L11.65 35.5L12 35.7L11.7 36.25M13.05,37.9Q13.2 37.45 13.55 37.1L13.7 37.35L13.8 37.7L13.8 37.95L13.95 39.55L13.95 39.6L14.25 40.4L15.45 41.9L16.35 42.6Q17.1 42.9 17.6 42.3L17.85 42.6L17.75 43.05L17.4 43.25L17.2 43.3L16.5 43.15L15.5 42.75Q14.35 41.95 13.75 40.85L13.25 39.4L13.2 38.9L13.2 38.45L13.2 38.4L13.05 37.9M20.45,39.1L20.3 39.2L19.75 39.2L19.45 39.1L19.3 39.05L18.9 38.65L18.8 38.45L18.75 38.15L18.65 38.6L18.5 38.25L18.5 38L18.5 37.9L18.55 37.8Q18.7 37.6 18.85 37.7L19.05 37.85L19.5 38.3L19.55 38.3L19.65 38.45L19.9 38.55L19.95 38.6L20.1 38.85L20.45 39.1M8.8,30.5L9.1 31L9.05 31.2L8.95 31.55L8.8 32.1L8.8 30.5M8.9,42.7Q9 43.45 9.3 43.35L9.85 43.3L9.9 43.45L9.9 43.65L10.35 44.3L10.7 44.45L10.8 44.35L10.9 43.95L11.25 43.45L11.35 43.4L12.15 44.35L11.05 44.55L10.6 44.55L9.25 44.5L8.35 44.3Q8.2 44.15 8.2 43.5Q8.2 42.85 8.9 42.7M19.85,41.2L19.85 41.5L19.8 41.6L18.9 42L18.6 42.05L18.45 42L18.25 41.95L17.05 41.35L16.85 41.25L17 41.5L17.05 41.55L17.15 41.8L17.05 41.7L16.75 41.25L16.6 40.8L16.55 40.7L16.6 40.7L17 40.7L17.1 40.75L17.45 41L17.9 41.2L18.05 41.25L18.85 41.4L19.65 41.4L19.8 40.95L19.85 41.2M19.15,43.5L18.65 43.5L18.4 43.35L18.35 43.65Q18.35 44 19.75 44.4L20 44.45L18.4 44.4L17.35 44.15L17.25 43.9Q17.95 43.9 18.35 43.35L18.4 43.3L18.95 42.95L19.05 43.1L19.2 43.2Q19.1 43.35 19.15 43.5M26.2,27.4Q25.75 26.85 25.6 26.1L25.55 25.75L26.1 25.85L26.5 25.65Q26.3 26.6 26.6 27.2L26.2 27.4M23.65,27.4L24.05 28.25L24.3 28.65L24.2 28.7L23.6 29.15L23.65 27.4M20.65,42.95L20.4 43L20.4 42.95L20.4 42.85L20.65 42.95" />
<path style="fill:#FFDA95;fill-opacity:1" d="M34.85,13.8L34.8 13.9L34.05 13.8Q33.95 13.35 32.5 13L34.25 13.2L34.45 13.2L34.5 13.2L34.6 13.2L34.85 13.35L34.85 13.8M32.85,16L33.05 16.2Q32.7 16.55 32.3 16.2Q32.4 15.85 32.85 16M14.5,35.35L14.45 35.4Q14.3 35.65 14 35.6Q13.05 35.35 14.25 35.15L14.3 35.1L14.5 35.15L14.5 35.35M24.85,25L24.85 25.05L24.8 25.55L24.7 25.7Q24.2 25.6 24.3 25.35L24.65 24.85L24.75 24.85L24.85 25" />
<path style="fill:#FFCC6B;fill-opacity:1" d="M15.5,7.4Q15.6 8.8 16.7 9.75Q15.65 9.25 15.4 8.25L15.4 9.4L15.55 9.95Q15.05 9.25 15.05 8.2L15.1 7.8L15.15 7.65L15.5 7.4M11.05,6.35Q11 7.55 11.4 8.3L11.25 8.35Q10.75 7.8 10.85 7.25L10.55 8.05L10.65 8.65L10.55 8.8L10.35 8.55Q10.1 8.05 10.25 7.3L10.3 7.15Q10.6 6.7 11.05 6.35M6.1,9.55L6 9.35L8.5 9.05Q9.2 9.2 9.9 9.6L9.65 10Q8.05 9.3 6.6 9.5L6.7 10.1L6.75 10.35L7 10.9Q6.4 10.3 6.1 9.55" />
<path style="fill:#543428;fill-opacity:1" d="M10.3,9.05L10.55 8.8L10.65 8.65L10.95 8.45L11 8.45L11.25 8.35L11.4 8.3L12 8.35L12.25 9.15L12.25 9.3L12.25 10L12.25 10.65L12.3 10.9L12.7 12.1L13.3 12.75L13.4 12.8L13.75 13L14.2 13.3L14.25 13.3L14.85 13.8L15 14.1L15.15 14.65L15.2 14.8L15.25 15.05Q14.95 15.3 15.2 15.45L14.85 16.15L14.7 16.35L14.55 16.55L14.5 16.6L14.1 17L13.1 17.45L12.6 17.5L12.3 17.5L11.9 17.5L11.85 17.5Q10.75 17.35 10 16.5L9.8 16.25L9.2 15.2L8.9 14.25L8.8 13.95L8.8 13.75L8.75 13.1L8.85 12.05L8.95 11.65L9.05 11.4L9.2 10.95L9.3 10.65L9.45 10.4L9.5 10.35L9.65 10L9.9 9.6L10.3 9.05M10.35,9.95L10.15 10.25L9.8 10.95L9.75 11.05L10.45 11.15L10.95 11.15L11 11.1L11.3 11L11.45 10.95L11.7 10.8L11.65 10.2L11.65 10.05L11.7 9.65L11.65 9.25L11.6 8.85Q11.55 8.75 11 9.15L10.95 9.2L10.75 9.4L10.6 9.55L10.35 9.95M10.4,11.6L9.65 11.4L9.65 11.35L9.6 11.4L9.5 11.85L9.4 12.1Q9.25 12.7 9.25 13.35L9.25 13.45L9.3 13.95L9.45 14.55L9.55 14.85L9.75 15.15L10.1 15.2L11.45 14.95L12.05 14.6L12.2 14.45L12.55 13.95L12.55 13.85L12.75 13.05L12.5 12.7Q12 12.1 11.85 11.45L11.8 11.3L11.75 11.35L11.7 11.35L11.45 11.45L11.35 11.5L11.4 11.45L10.9 11.55L10.45 11.6L10.4 11.6M12.05,15.05Q11.35 15.6 10.35 15.65L9.95 15.6Q10.35 16.35 11 16.7L11.55 16.9L12.25 17L12.55 17L12.8 17L13.5 16.7L13.6 16.65L14.05 16.25L14.1 16.2L14.4 15.85L14.65 15L14.35 14.1L14 13.75L13.85 13.65L13.75 13.6L13.4 13.4L13.3 13.35L13.15 13.3L13.15 13.45L13 13.95L12.8 14.4L12.4 14.85L12.05 15.05" />
<path style="fill:#AA8065;fill-opacity:1" d="M11,11.1L10.95 11.15L10.45 11.15L10.45 10.4L10.5 10.05L10.6 9.55L10.75 9.4L10.95 9.2L11 9.15Q11.55 8.75 11.6 8.85L11.65 9.25L11.7 9.65L11.65 10.05L11.65 10.2L11.7 10.8L11.45 10.95L11.5 9.9L11.5 9.8L11.45 9.7L11.25 9.5L11 9.75L10.95 10.75L11 11.1M11.45,11.45L11.7 11.35L11.75 11.35L11.8 11.3L11.85 11.45Q12 12.1 12.5 12.7L12.75 13.05L12.55 13.85L12.55 13.95L12.2 14.45L12.05 14.6L11.85 14.5L11.3 13.85Q10.7 13.1 10.55 12.45L10.55 12.4L10.45 11.6L10.9 11.55L11.5 12.65L11.85 12.95Q12.2 13.1 12.1 12.7L11.9 12.35L11.45 11.45M14.3,15.15L13.6 15.25L13.05 15.15L12.4 14.85L12.8 14.4L13 13.95L13.15 13.45L13.15 13.3L13.3 13.35L13.4 13.4L13.75 13.6L13.85 13.65L14 13.75L14.35 14.1L14.65 15L14.3 15.15" />
<path style="fill:#E5B497;fill-opacity:1" d="M10.95,10.75L11 9.75L11.25 9.5L11.45 9.7L11.5 9.9L11.45 10.95L11.3 11L11 11.1L10.95 10.75M11.9,12.35L12.1 12.7Q12.2 13.1 11.85 12.95L11.5 12.65L10.9 11.55L11.4 11.45L11.35 11.5L11.45 11.45L11.9 12.35" />
<path style="fill:#D95141;fill-opacity:1" d="M16.35,12.8L16.3 12.8L16 12.9Q15.3 13.15 15.1 13.4L14.85 13.8L14.25 13.3L14.2 13.3Q14.6 12.85 15.35 12.6L15.55 12.5L15.8 12.45L16.25 12.3L16.3 12.35L16.85 12.6L16.35 12.8" />
<path style="fill:#B84728;fill-opacity:1" d="M9.2,10.95L9.15 10.95Q8.35 10.5 8.75 10.2L8.9 10.05Q9.25 10.1 9.45 10.3L9.5 10.35L9.45 10.4L9.3 10.65L9.2 10.95M7.3,14.4Q7.85 14.75 7.15 14.7Q5.75 14.65 6.6 14.15Q7 14.2 7.3 14.4M6.35,17.85L5.75 17.75Q5.25 17.15 6.4 17.3Q6.95 17.6 6.35 17.85M9.95,20.55L10.15 21.05L9.85 21.1L9.45 21.15L9.4 21.05L9.45 21L9.7 20.75L9.95 20.55" />
<path style="fill:#C64A28;fill-opacity:1" d="M8.8,13.95L8.9 14.25L8 13.6L7.9 13.5L7.55 13.2L7.6 13.15L8.35 13.55L8.8 13.75L8.8 13.95M9.8,16.25L9.4 16.1L6.05 15.8L4.75 15.35L4.15 15L3.9 14.75L4.05 14.55L4.45 14.75L6.1 15.15L8.5 15.3L8.4 15.05L9.2 15.2L9.8 16.25M11.5,17.75L11.55 17.75L12.1 18.3L12.15 18.45L12.1 18.45Q10.1 18.65 9 19.75L8.95 19.8L8.7 19.85L6.75 20.05Q5.45 20.1 4.5 19.6L3.4 18.85L3.1 18.55L2.45 17.6L2.35 17.35L2.35 17L2.7 17.45Q3.45 18.5 4.6 18.8L6.1 18.95L5.6 18.55Q5.35 18.2 5.55 18.35L8.5 18.6Q9.7 18.2 9.55 17.95Q8.9 17.35 7.85 17.3Q10.1 16.95 11.45 17.7L11.5 17.75M2.9,19.1L2.9 19.05L3 19.15L2.9 19.1M8.45,20.4L8.4 20.5L8.4 20.55L8.25 20.65L8.2 20.75L7.95 21L7.95 21.05Q6.25 22.35 4.25 21.85L1.4 22L0.75 22.7L0.5 21.8L0.5 21.75L0.85 21.4L1.15 21L1.45 20.75L1.5 20.75L1.75 20.6L2.6 20.4L2.15 20.75L2.4 20.75L3.75 20.95L4 21L5.4 21L5.45 20.95L4.8 20.75L4.7 20.7Q3.75 20.3 3 19.15Q5.4 21.3 8.5 20.35L8.45 20.4M6.35,22.6Q6.15 22.9 6.3 23.25L4.15 23.35L3.95 23.3L4.45 22.45L6.6 22.35L6.35 22.6M4.75,24.6Q3.7 24.8 4.65 24.25L4.8 24.3Q5 24.55 4.75 24.6M12.35,18.95L12.65 19L12.8 19L13 19.05L13.2 19.75L13.35 20.75L12.7 20.25L12.7 20.2L12.65 19.75L12.45 19.05L12.35 18.95M4.25,27.15Q4.3 26.1 4.8 25.1L5.35 24.3Q5.65 24 5.6 24.25Q5.55 24.6 5.8 24.7L6 24.7Q6.05 24.2 6.6 23.7L6.9 23.5Q7.4 23.75 7.55 24.35Q6.25 24.6 5.6 25.25L4.7 26.55L4.45 27.25L4.25 27.15M14.05,21.7L14.05 21.65L14.15 21.65L14.05 21.7" />
<path style="fill:#FFBC6B;fill-opacity:1" d="M4.05,14.55L4.1 14.5L4.3 14.35Q4.8 14 5.65 13.65L6.45 13.4L7.55 13.2L7.9 13.5L8 13.6L7.95 13.6Q5.55 13.95 4.5 14.7L4.45 14.75L4.05 14.55M2.4,17L3.35 17.35Q3.9 17.4 5 16.9L6.3 16.4L7.8 16.3L9.35 16.5L10.75 17.15L10.9 17.3L9.6 16.95Q7.55 16.55 6.25 16.95Q4.6 17.9 3.1 17.55L2.7 17.45L2.35 17L2.4 17M1.5,20.35L2.35 20.15L2.35 20.2Q1.8 20.35 1.5 20.75L1.45 20.75L1.15 21L0.85 21.4L0.5 21.75L0.6 21.15L0.6 21L0.7 20.75L1.5 19.7Q2.25 19.05 2.9 19.05L2.9 19.1L3 19.15Q1.9 19.6 1.5 20.35M11.35,19.55L10.65 19.3L10.95 19.15L12.35 18.95L12.45 19.05L11.75 19.3L11.35 19.55M8.95,21.35L8.35 21.4L8.6 21L8.8 20.75L8.95 20.55L9.7 19.85L9.85 20.25L9.95 20.45L9.55 20.75L9.3 21L8.95 21.35" />
<path style="fill:#DB7332;fill-opacity:1" d="M9.2,15.2L8.4 15.05L8.5 15.3L6.1 15.15L4.45 14.75L4.5 14.7Q5.55 13.95 7.95 13.6L8 13.6L8.9 14.25L9.2 15.2M6.6,14.15Q5.75 14.65 7.15 14.7Q7.85 14.75 7.3 14.4Q7 14.2 6.6 14.15M6.4,17.3Q5.25 17.15 5.75 17.75L6.35 17.85Q6.95 17.6 6.4 17.3M3.1,17.55Q4.6 17.9 6.25 16.95Q7.55 16.55 9.6 16.95L10.9 17.3L11.45 17.7Q10.1 16.95 7.85 17.3Q8.9 17.35 9.55 17.95Q9.7 18.2 8.5 18.6L5.55 18.35Q5.35 18.2 5.6 18.55L6.1 18.95L4.6 18.8Q3.45 18.5 2.7 17.45L3.1 17.55M3,19.15Q3.75 20.3 4.7 20.7L4.8 20.75L5.45 20.95L5.4 21L4 21L3.75 20.95L2.4 20.75L2.15 20.75L2.6 20.4L1.75 20.6L1.5 20.75Q1.8 20.35 2.35 20.2L2.35 20.15L1.5 20.35Q1.9 19.6 3 19.15M3.95,23.3L4.15 23.35L6.3 23.25L6.35 23.3L6.9 23.5L6.6 23.7Q6.05 24.2 6 24.7L5.8 24.7Q5.55 24.6 5.6 24.25Q5.65 24 5.35 24.3L4.8 25.1Q4.3 26.1 4.25 27.15Q3.65 26.45 3.45 25.5Q3.3 24.55 3.95 23.3M4.8,24.3L4.65 24.25Q3.7 24.8 4.75 24.6Q5 24.55 4.8 24.3M9.3,21L9.55 20.75L9.95 20.45L9.95 20.55L9.7 20.75L9.45 21L9.4 21.05L9.45 21.15L9.85 21.1L10.15 21.05L10.3 21.65L8.95 21.35L9.3 21M11.75,19.3L12.45 19.05L12.65 19.75L12.7 20.2L12.7 20.25L12.15 19.9L11.35 19.55L11.75 19.3" />
<path style="fill:#832F10;fill-opacity:1" d="M5.55,27.85L5.7 27.85Q5.55 28.1 5.05 28.05L5.55 27.85M4.35,27.8L3.65 27.2L3.1 26.3L2.9 25.25L3 24.1L3.4 23.15L3.8 22.35L2 22.25Q1.3 22.5 0.85 23.3Q0.6 23.65 0.35 23.1L0.05 22.4L0.05 22.25L0.5 21.8L0.75 22.7L1.4 22L4.25 21.85Q6.25 22.35 7.95 21.05L7.95 21L8.2 20.75L8.25 20.65L8.4 20.55L8.25 20.75L8.1 21L7.75 21.55L7.75 21.6Q7 21.85 6.6 22.35L4.45 22.45L3.95 23.3Q3.3 24.55 3.45 25.5Q3.65 26.45 4.25 27.15L4.45 27.25L4.35 27.8M2.3,18.4L1.95 17.8L1.8 17L1.8 16.7Q1.8 16.25 2.1 16.3Q2.1 16.65 2.4 17L2.35 17L2.35 17.35L2.45 17.6L3.1 18.55L3.4 18.85L4.5 19.6Q5.45 20.1 6.75 20.05L8.7 19.85L8.95 19.8L9 19.75L8.5 20.35Q5.4 21.3 3 19.15L2.9 19.05L2.3 18.4M4.1,14.5L4.05 14.55L3.9 14.75L4.15 15L4.75 15.35L6.05 15.8Q5.65 15.95 5.3 16.2L4.1 15.6L3.4 15.1L3.35 14.85L3.55 14.4L3.65 14.25L4.1 14.5" />
<path style="fill:#FF8E72;fill-opacity:1" d="M10.5,23.15L10.35 22.95L9.75 22.55L8.65 22.3L8.2 22.3L7.9 22.3L7.45 22.3L7.95 22.1L8.2 22.05L8.35 22.05L9.85 22.15L10.3 22.35L10.4 22.4L10.5 22.9L10.5 22.95L10.5 23.15M12.9,22.65L12.85 22.6L12.55 21.65L12.1 20.85L11.9 20.65L11.5 20.3L12.25 20.75L12.9 21.35L13.3 21.9L13.55 22.4L13.45 22.6L13.4 22.65L12.9 22.65M15.75,21.9L15.7 21.5Q14.9 22.6 13.6 22.9L13.7 22.6L13.85 22.5L15.15 21.55L15.4 21.25L15.7 20.85L15.9 21.1L16 21.25L15.75 21.9M17,23.85L16.95 23.85L16.4 23.7L15.9 23.65L16.4 23.55L17.05 23.55L17.6 23.65L17.6 23.7L17.55 23.7L17 23.85M17.05,27.15L16.5 27.25L16.95 26.9L15.6 26.05L15.85 25.95L16.05 26.15L16.55 26.45L17.25 26.65L17.9 26.8L17.05 27.15M14.7,29.9Q15.15 28.85 14.55 28L14.8 28.05L14.9 28.15Q15.35 28.75 15.3 29.45Q15.25 30.2 14.7 30.75Q14.9 30.35 14.7 29.9M10.3,31.1L9.8 31.45L9.6 31.5L9.55 31.5L9.7 31.3L10 30.6L10.05 30.45L10 29L9.6 28.1L10.3 28.45L10.25 30.2L10.75 29.4Q10.9 30.2 10.65 30.8L10.3 31.1M7,28.85Q6.9 28.3 7.25 27.75L7.55 27.2L7.65 27.05L7.7 26.85L8.25 26.95L7.95 27.2L7.45 27.9L7 28.85M5.8,25.95Q6.35 25.4 7.2 25L7.6 24.9L8.1 24.85L8.1 25L8.15 25.15L8.25 25.4L8.1 25.4Q7.2 25.3 6.35 25.7L5.9 25.9L5.8 25.95M11.1,25.5Q11.35 25.6 11.65 25.85L11.7 25.85L12.5 26.85L12.55 26.9L12.65 26.85L12.8 26.6L12.95 25.95L12.95 25.45L13.15 26.2L13.05 26.9L12.95 27.15L12.7 27.7L12.45 28L12.35 27.7L12.05 27.05L12 26.95L11.35 26.15L11.35 26.1L10.8 25.75L10.75 25.75L11.05 25.45L11.1 25.5M19.85,42.8L19.85 42.55L19.85 42.5L19.9 42.45L19.9 42.6L19.9 42.85L19.85 42.8" />
<path style="fill:#C44334;fill-opacity:1" d="M14.85,13.8L15.1 13.4Q15.3 13.15 16 12.9L16.3 12.8L16.35 12.8L16.85 12.6Q17.95 13.25 18.7 14.2L18.95 14.55Q19.8 15.7 19.9 16.75L17.15 15.1L15.55 14.35L15 14.1L14.85 13.8M17.35,25.05L17.35 24.85L17.7 24.4L18.4 23.75L18.45 23.3Q18.35 23.05 17.75 22.95L17.8 22.75L19.2 22.05Q19 23.3 18.15 24.35L17.7 24.85L17.45 25.05L17.35 25.05M17.3,38.1L17.55 38.15Q18 38.5 17.55 38.65L17.35 38.65L17.05 38.65Q16.65 38.55 16.6 38.25L16.8 38L17.3 38.1M15.85,38.55L16.4 39L16.5 39.15Q16.75 39.7 16.6 40.05L16.55 40.1Q16.3 40.4 15.65 39.6L15.6 39.5L15.5 39.4Q15.1 38.7 15.7 38.5L15.85 38.55M15.35,40.05L15.25 40.7Q15.1 40.9 14.85 40.55L14.75 40.2L14.95 39.6L15.25 39.75L15.35 40.05" />
<path style="fill:#70280E;fill-opacity:1" d="M12.8,19L12.7 18.75Q12.5 18.55 12.1 18.45L12.15 18.45L12.1 18.3L11.55 17.75L11.5 17.75L11.85 17.5L11.9 17.5L12.35 18.05L13 19.05L12.8 19" />
<path style="fill:#AF2C1C;fill-opacity:1" d="M17.5,22.9L17.8 22.75L17.75 22.95L17.5 22.9M17.35,24.85L17.35 25.05L17.45 25.05L16.95 25.45L17.35 24.85" />
<path style="fill:#E9CB9E;fill-opacity:1" d="M15.95,29.35L17.5 29.1Q17.55 29.8 17.2 30.75L16.35 32.05L16.25 32.05Q15.75 31.95 15.4 31.65L15.3 31.35L15.3 30.95Q15.4 30.1 15.95 29.35M11.45,32.75L11.05 32.7L10.4 32.8L11.05 33.05L11.2 33.1L11.8 33.45L12.5 34.1L12.8 34.45L13.05 34.8L12.7 35L12.65 35.05L12 35.7L11.65 35.5L11.4 35.35L10.45 34.4L10.1 33.7L10.05 33.65L10 33.5Q9.65 32.85 9.8 32.75L9.85 32.75L10.25 32.75L10.35 32.55L10.6 32.2L10.75 32Q11.2 32.3 11.7 32.4L11.45 32.75M17.45,42.1L17.6 42.3Q17.1 42.9 16.35 42.6L15.45 41.9L14.25 40.4L13.95 39.6L13.95 39.55L13.8 37.95L13.8 37.7L13.7 37.35L13.55 37.1L14.1 36.7L14.6 36.45L14.7 36.5Q15.2 36.95 15.95 37L16.75 36.95L17.2 36.85L17.25 36.8L17.65 36.85L18.4 37.1L18.75 37.3L18.9 37.4L19.5 38.2L19.5 38.3L19.05 37.85L18.85 37.7Q18.7 37.6 18.55 37.8L18.5 37.9L18.5 38L18.5 38.25L18.65 38.6L18.65 38.7L18.55 39.05Q18.35 39.85 19.1 40.6L19.1 41.1L18.85 41.4L18.05 41.25L17.9 41.2L17.45 41L17.1 40.75L17 40.7L16.6 40.7L16.55 40.7L16.6 40.8L16.75 41.25L17.05 41.7L17.15 41.8L17.45 42.1M16.8,38L16.6 38.25Q16.65 38.55 17.05 38.65L17.35 38.65L17.55 38.65Q18 38.5 17.55 38.15L17.3 38.1L16.8 38M15.7,38.5Q15.1 38.7 15.5 39.4L15.6 39.5L15.65 39.6Q16.3 40.4 16.55 40.1L16.6 40.05Q16.75 39.7 16.5 39.15L16.4 39L15.85 38.55L15.7 38.5M15.25,39.75L14.95 39.6L14.75 40.2L14.85 40.55Q15.1 40.9 15.25 40.7L15.35 40.05L15.25 39.75M21.8,44.2L20.5 44.45L20 44.45L19.75 44.4Q18.35 44 18.35 43.65L18.4 43.35L18.65 43.5L19.15 43.5Q19.1 43.35 19.2 43.2Q19.6 43.5 20.05 43.6L20.45 43.6L20.5 43.4L20.4 43L20.65 42.95Q21.55 43.45 21.8 44.2M12.1,39.55L12.4 40.4L12.15 40.05L12.05 39.65L12.1 39.55" />
<path style="fill:#543914;fill-opacity:1" d="M26.9,27.7L26.6 27.85L26.55 27.8L26.2 27.4L26.6 27.2L26.65 27.3L26.9 27.65L26.9 27.7M24.8,29.15L24.45 29.4L23.55 30L23.6 29.15L24.2 28.7L24.3 28.65L24.8 29.15M14.65,32.3Q14.6 32.1 14.7 31.95Q14.75 32.25 15.25 32.35L16.35 32.05L17.2 30.75Q17.55 29.8 17.5 29.1L17.25 28.35L18.05 27.85L18.1 27.9L19.7 29.4L19.7 29.6L19.7 30.15L18.1 28.75L17.85 28.5L17.95 29L17.8 30.65Q17.55 31.65 16.95 32.2L16.15 32.85L15.55 32.6L14.65 32.3M20.8,39.95L20.45 40.05L20.3 40.05L19.95 40L19.7 39.9L19.45 39.8L19.3 39.7L19.05 39.5L19 39.45L18.8 39.25L18.7 39L18.7 38.9L18.65 38.7L18.65 38.6L18.75 38.15L18.8 38.45L18.9 38.65L19.3 39.05L19.45 39.1L19.75 39.2L20.3 39.2L20.45 39.1L20.1 38.85L21.3 39.1L21.4 39.4L20.85 39.95L20.8 39.95M20.65,42.95L20.4 42.85L20.45 42.25L20.5 42.15L20.9 42.35L21.55 42.8L20.65 42.95M22.1,44.8L21.4 45L18.7 45.15L16.7 44.8Q16.3 44.6 16.4 43.75L15.25 43.35L13.9 42.05L13.1 40.8L12.95 40.5L12.7 40.5L12.4 40.4L12.1 39.55L12.45 39L12.85 40.2Q12.7 39.6 12.7 39L12.7 38.7L12.6 38.2L12.5 37.9L13.05 37.9L13.2 38.4L13.2 38.45L13.2 38.9L13.25 39.4L13.75 40.85Q14.35 41.95 15.5 42.75L16.5 43.15L17.2 43.3L17.4 43.25L17.75 43.05L17.85 42.6L17.6 42.3L17.45 42.1L17.15 41.8L17.05 41.55L17 41.5L16.85 41.25L17.05 41.35L18.25 41.95L18.45 42L18.6 42.05L18.9 42L19.8 41.6L19.85 41.5L19.85 41.2L19.8 40.95L19.8 40.8L19.85 40.8L20.2 40.7L20.45 40.55L20.45 41.65Q20.4 42.25 19.9 42.45L19.85 42.5L19.7 42.5L19.55 42.55L19.25 42.6L18.55 42.75L18.35 43.35Q17.95 43.9 17.25 43.9L17.35 44.15L18.4 44.4L20 44.45L22.1 44.8M13,40.95Q13.05 41.45 12.7 41.75L12.5 41.95L13 40.95M8.2,43.5Q8.2 44.15 8.35 44.3L9.25 44.5L10.6 44.55L11.05 44.55L12.15 44.35L11.35 43.4L11.75 43L11.9 43.15L12.55 44Q12.8 44.55 12.4 44.85L11.8 45.05L9.5 45.15L7.8 44.85Q7.35 44.6 7.7 43.25Q7.8 42.7 8.2 42.45L8.9 42.55L8.9 42.7Q8.2 42.85 8.2 43.5M9.55,39.9L8.75 38.55L9.05 38.4L9.35 39L9.4 39.1L9.8 39.45L9.55 39.9M8.85,34.45Q8.75 34.5 8.6 34.65L8.3 32.85L8.25 30.25L8.35 29.7L8.75 30.4L8.8 30.5L8.8 32.1L8.95 31.55L9.35 31.9L9.5 31.95L9.4 32.15Q9.25 32.55 9.25 32.9L9.1 32.95L9.15 32.95L9.1 33L9.2 33.85L9.35 34.25L9.65 34.65L11.7 36.25L11.6 36.65L11.6 36.7L10.6 35.9L10 35.5L9.45 35.15L9.1 34.85L8.85 34.45M12.9,31.8L12.5 32.45L11.7 32.4L11.95 32L12.35 31.4L12.55 31.05L12.6 30.95L12.7 30.85L13.3 30.15L13.7 30.25L13.4 30.9L13.1 31.5L12.9 31.8M9.1,31L9.3 30.55L9.5 30Q9.5 30.6 9.1 31.1L9.05 31.2L9.1 31" />
<path style="fill:#301D16;fill-opacity:1" d="M15.55,32.6L15.1 32.85L15 32.85Q13.8 32.4 12.9 31.8L13.1 31.5L14.1 32.05L14.65 32.3L15.55 32.6M16.05,35.2L15.7 35.3L15.65 35.1L15.6 34.95L15.7 34.95L16 34.8L16.1 34.65L16.3 34.65L16.6 34.6L16.05 35.2M9.1,31L8.8 30.5L8.75 30.4L8.8 29.65L8.9 29.85L9.3 30.55L9.1 31" />
<path style="fill:#57351A;fill-opacity:1" d="M15.8,34.6L16.1 34.65L16 34.8L15.7 34.95L15.6 34.95Q15.3 34.45 14.55 34.35L13.7 34.45L12.8 33.35L12.2 32.95L12.5 32.45L12.9 31.8Q13.8 32.4 15 32.85L14.5 33.15L14.35 33.3L14.05 33.8L15.15 34.45L15.7 34.6L15.8 34.6M9.3,30.55L8.9 29.85L8.8 29.65L8.9 29.2L9.1 29.15Q9.5 29.05 9.5 29.8L9.5 30L9.3 30.55" />
<path style="fill:#B47F60;fill-opacity:1" d="M15.7,34.6L15.75 34.5L15.9 34.05L15.85 33.7L15.3 34.05L15.55 33.7L14.5 33.15L15 32.85L15.3 33L15.7 33.1L15.8 33.15L16.3 33.65L16.3 34.25L16.1 34.65L15.8 34.6L15.7 34.6" />
<path style="fill:#876430;fill-opacity:1" d="M20.8,38.4L21 38.65L21.3 39.1L20.1 38.85L19.95 38.6L19.9 38.55L19.85 38.5Q19.55 37.9 19.55 37.3Q19.2 36.95 18.85 36.75L18.6 36.6L18.3 36.55L18.2 36.5L17.65 36.55L17.35 36.75L17.25 36.8L17.2 36.85L16.75 36.95L15.95 37Q15.2 36.95 14.7 36.5L14.6 36.45Q15.15 36.15 15.6 36.15L15.95 36.25L17 36.15L17.1 36.1L17.9 35.8L18 35.75L18.5 35.8L19.2 36.15L20.2 37.05L20.35 37.55L20.5 37.95L20.65 38.2L20.8 38.4M20,44.45L20.5 44.45L21.8 44.2Q21.55 43.45 20.65 42.95L21.55 42.8L22.3 43.8Q22.55 44.45 22.1 44.8L20 44.45M13.05,34.8L12.8 34.45L12.5 34.1L11.8 33.45L11.2 33.1L11.05 33.05L10.4 32.8L11.05 32.7L11.45 32.75L11.7 32.4L12.5 32.45L12.2 32.95L12.8 33.35L13.7 34.45Q13.35 34.55 13.05 34.8M20.3,40.15L20.45 40.55L20.2 40.7L19.85 40.8L19.8 40.8L19.8 40.95L19.75 40.8L19.75 40.65L19.25 39.85L19.15 39.75L19.05 39.65L18.8 39.25L19 39.45L19.05 39.5L19.3 39.7L19.45 39.8L19.7 39.9L19.95 40L20.3 40.05L20.45 40.05L20.3 40.15" />
<path style="fill:#AA2615;fill-opacity:1" d="M12.6,38.2L12.55 38.2L12.4 38.3L12.25 38.5L11.9 38.85L11.8 38.95L11.5 39.45L11.4 39.7L11.35 39.75L11.3 39.75L10.9 39.6L11.1 38.6L11.2 38.4L11.05 38.45L9.75 38.75L9.65 38.5L9.55 38.25L9.95 38.15L10.35 38.05L10.35 37.95L10.25 37.85L10.2 37.8L10.15 37.8L9.5 37.8L9.05 37.9L8.5 38.1L7.7 38.45L7.7 38.05Q7.9 37.7 8.25 37.5L8.8 37.3L9.35 37.2L9.15 37.45L10.4 37.4L9.85 36.6L9.3 36.4L8.6 36.6L8.3 36.6L8.45 36.55L8.45 36.5L8 36.4L7.05 35.9L7.75 35.75L8.2 35.8L9.15 35.65L8.75 36.05L8.9 36.05L9.55 35.8L10 35.5L10.6 35.9L11.6 36.7Q11.65 37.7 12.5 37.9L12.6 38.2M16.65,35.8L17 36.15L15.95 36.25L15.6 36.15L15.65 36.15L15.75 35.55L15.9 35.5L16.3 35.25L16.65 35.8M11.4,40.5L11.1 41.15L10.7 41.55L10.6 41.65L10.65 41.7L10.8 41.65L10.9 41.6L10.95 41.7L10.25 43L10.25 42.95L10.2 42.95L9.95 42.9L9.4 42.85L9.45 42.7Q9.45 42.25 9.15 42.15L8.7 42.05L10 40L10.15 40.2L10.55 40.45L10.85 40.4L11.35 40.25L11.45 40.25L11.4 40.5" />
<path style="fill:#771401;fill-opacity:1" d="M16.6,34.6L16.65 34.55L17.1 34.6L18.35 35.6L18.5 35.8L18 35.75L17.9 35.8L17.75 35.65Q17.15 34.95 16.85 35.1L16.5 35.2L16.3 35.25L15.9 35.5L15.75 35.55L15.7 35.3L16.05 35.2L16.6 34.6M12.7,38.7L12.45 39L12.1 39.55L12.05 39.65L12.15 40.05L12.4 40.4L12.7 40.5L12.95 40.5L13.1 40.8L13 40.95L12.5 41.95L11.75 43L11.35 43.4L11.25 43.45L10.9 43.95L10.8 44.35L10.7 44.45L10.35 44.3L9.9 43.65L9.9 43.45L9.85 43.3L9.3 43.35Q9 43.45 8.9 42.7L8.9 42.55L8.2 42.45L8.1 42.4Q7.8 42.3 7.95 42.1L8.55 41.35L9.55 39.9L9.8 39.45L9.4 39.1L9.35 39L9.05 38.4L8.75 38.55L7.95 38.9Q7.35 39.25 7.2 38.7Q7.05 38.1 7.55 36.75L6.5 36.15Q6 35.75 6.8 35.6L7.15 35.5L8.2 34.95L8.6 34.65Q8.75 34.5 8.85 34.45L9.1 34.85L8.8 35.15L7.75 35.75L7.05 35.9L8 36.4L8.45 36.5L8.45 36.55L8.3 36.6L8.05 36.9L7.85 37.35L7.7 38.05L7.7 38.45L8.5 38.1L9.05 37.9L9.5 37.8L10.15 37.8L10.2 37.8L10.25 37.85L10.35 37.95L10.35 38.05L9.95 38.15L9.55 38.25L9.65 38.5L9.75 38.75L10.15 39.2L10.35 39.35L10.9 39.6L11.3 39.75L11.35 39.75L11.4 39.7L11.5 39.45L11.8 38.95L11.9 38.85L12.25 38.5L12.4 38.3L12.55 38.2L12.6 38.2L12.7 38.7M10.6,43.6L10.9 43.15L11.25 42.7L11.4 42.55L11.8 42.15L12.3 41.35L12.35 41.25Q12.6 40.7 12.2 40.9Q11.95 40.95 11.85 40.7Q11.7 40.5 11.7 40.15L11.65 40.15L11.45 40.25L11.35 40.25L10.85 40.4L10.55 40.45L10.15 40.2L10 40L8.7 42.05L9.15 42.15Q9.45 42.25 9.45 42.7L9.4 42.85L9.95 42.9L10.2 42.95L10.25 42.95L10.25 43L10.6 43.6M18.55,42.75L19.25 42.6L19.25 42.65L19.55 43.05L20.05 43.6Q19.6 43.5 19.2 43.2L19.05 43.1L18.95 42.95L18.4 43.3L18.35 43.35L18.55 42.75" />
<path style="fill:#F0DBBB;fill-opacity:1" d="M19.65,38.45L19.55 38.3L19.5 38.3L19.5 38.2L18.9 37.4L18.75 37.3L18.4 37.1L17.65 36.85L17.25 36.8L17.35 36.75L17.65 36.55L18.2 36.5L18.3 36.55L18.6 36.6L18.85 36.75Q19.2 36.95 19.55 37.3Q19.55 37.9 19.85 38.5L19.9 38.55L19.65 38.45M18.7,38.9L18.7 39L18.8 39.25L19.05 39.65L19.15 39.75L19.25 39.85L19.75 40.65L19.75 40.8L19.8 40.95L19.65 41.4L18.85 41.4L19.1 41.1L19.1 40.6Q18.35 39.85 18.55 39.05L18.65 38.7L18.7 38.9" />
</g>
</svg>
