<?xml version="1.0" encoding="utf-8"?>
<svg version="1.1" id="Layer_1"
xmlns="http://www.w3.org/2000/svg"
xmlns:xlink="http://www.w3.org/1999/xlink"
xmlns:author="http://www.sothink.com"
width="17px" height="9px"
xml:space="preserve">
<g id="1645" transform="matrix(1, 0, 0, 1, 0, 0)">
<path style="fill:#3F94BB;fill-opacity:0.701961" d="M13.7,4.6Q13.3 4 12.45 3.85L10.9 2.9L10.5 2.65L10.2 2.45L9.35 1.9L10.25 0.65L10.25 1L10.45 0.95L11.3 0.25L11.55 0L11.7 0.2Q12.95 1.7 15 2.55L14.7 2.7L16.85 6.6L13.7 4.6M4.6,6.7L4.9 8.3L4.85 8.3L2.35 8.6L4.6 6.7" />
<path style="fill:#477585;fill-opacity:1" d="M10.25,0.5L11.3 0.25L10.45 0.95L10.25 1L10.25 0.65L10.25 0.5" />
<path style="fill:#96EEFA;fill-opacity:0.501961" d="M6.6,3.15Q6.55 3.05 6.65 3L6.75 2.85L6.8 2.75L7.05 2.45L6.55 2.1L8.1 1.5Q9.2 0.8 10.25 0.5L10.25 0.65L9.35 1.9L8.65 1.5L6.6 3.15M5.05,3.2L5 3.15L5.05 3.1L5.05 3.2" />
<path style="fill:#D0FCFC;fill-opacity:0.901961" d="M5.25,4.35L6.65 3Q6.55 3.05 6.6 3.15L8.65 1.5L10.2 2.45L10.5 2.65L10.9 2.9L12.45 3.85Q13.3 4 13.7 4.6L16.85 6.6L16.9 6.65L14.65 7L12.95 5.95Q12.15 5.85 11.95 5.3L8.7 3.3L6.65 5L5.85 5.65L4.6 6.7L2.35 8.6L2 8.6L5.25 4.35" />
<path style="fill:#80E3FF;fill-opacity:0.501961" d="M4.6,6.7L5.85 5.65L6.25 6.2L6.4 6.15L6.65 5L8.7 3.3L11.95 5.3Q12.15 5.85 12.95 5.95L14.65 7L12.75 7.15L4.9 8.3L4.6 6.7M5.25,4.35L2 8.6L0 8.65L2.55 5.65L5 3.15L5.05 3.2L5.25 4.35" />
<path style="fill:#62B3C4;fill-opacity:1" d="M5.05,3.2L5.05 3.1L6.1 2.15L6.55 2.1L7.05 2.45L6.8 2.75L6.75 2.85L6.65 3L5.25 4.35L5.05 3.2M6.65,5L6.4 6.15L6.25 6.2L5.85 5.65L6.65 5" />
</g>
</svg>
