<?xml version="1.0" encoding="utf-8"?>
<svg version="1.1" id="Layer_1"
xmlns="http://www.w3.org/2000/svg"
xmlns:xlink="http://www.w3.org/1999/xlink"
xmlns:author="http://www.sothink.com"
width="299px" height="270px"
xml:space="preserve">
<g id="1871" transform="matrix(1, 0, 0, 1, 152.9, 162.05)">
<path style="fill:#F8CC00;fill-opacity:1" d="M142.05,-0.55Q138.35 4.1 135.95 4.1Q129.5 4.1 127.65 -0.25L126.35 -4Q125.45 -6.2 123.85 -7.4L123.4 5.15Q122.9 13.45 122.9 16.7L122.05 16.7Q120.35 10.6 118.55 2.5Q116.45 -6.9 116.45 -9.6L115.5 -9.6Q114.6 -7.45 114.55 -2.95Q114.45 -4.3 112.7 -8.5L110.75 -13.1L110.75 -8.45L109.95 -8.45L105.9 -33.1L101.5 -59.95Q100.05 -54.85 98.9 -48.15L97.25 -38.45Q95.45 -29.2 91.3 -28Q91.3 -29.15 90.35 -29.15Q90.35 -28.3 89.75 -26.8L88.45 -24.5Q88.45 -25.65 85.7 -25.65L85.7 -18.85Q84.9 -20.85 81.6 -38.4Q78.25 -55.9 78.25 -57.8L77.3 -57.8L76.05 -26.65L75.4 -3.9L74.05 -5.5Q73.3 -6.2 72.65 -6.2Q72.65 3.05 72.05 15.75Q71.5 28.05 70.75 35.1Q67.75 31.2 63.35 21.8Q60.25 15.25 58.65 11Q57.5 13.35 55.3 21.15Q53.25 28.5 52.1 30.4Q46.65 23.55 42.65 5.75Q38.35 -13.5 35.35 -47.4L35.35 -46.25Q31.75 -7.25 29.95 3.35Q28.6 11.6 26.6 15.25Q24.5 19.05 20.9 19.05Q19.8 19.05 18.3 17.35Q16.8 15.55 14.8 15.55Q14 17.15 11.95 19.05L9.8 15.15Q8.75 13.2 7.35 12.15Q7.35 12.85 6.2 14.6L4.6 16.7L2.5 12.85Q1.6 11 0 11Q-1.35 11 -1.85 11.6Q-2.4 12.15 -2.7 12.15Q-2.7 16.7 -4.6 19.05Q-6 17.35 -8.3 11.9L-11.15 5.25L-11.55 10.25L-11.95 14.35L-12.9 14.35Q-17.1 8.4 -21.85 -17.8Q-26.45 -43 -29.65 -46.25L-36.05 21.4Q-40.15 21.5 -43.7 22.55L-47.95 23.7Q-49.1 23.7 -51.3 22.55Q-53.45 21.4 -54.95 21.4Q-56.9 24.1 -58.5 29.5Q-59.5 32.75 -61.95 32.75Q-66.2 32.75 -68.95 27.7L-72.65 20.2Q-74.35 24.1 -75.4 28.7Q-76.35 33 -76.35 36.25Q-84.95 35.45 -89.3 4.7L-92.05 -17.25Q-93.5 -27.75 -95 -29.15Q-95 -28.05 -96.95 -10.2Q-98.85 7.5 -98.8 9.8Q-100.65 9.5 -102.4 5.95Q-104.25 2.25 -106.15 1.75Q-106.15 3.55 -106.75 4.95Q-107.35 6.45 -108.05 6.45L-109.4 4.85Q-110.15 4.1 -110.75 4.1Q-111.7 5.25 -111.7 8.65L-112.65 8.65Q-112.65 7.05 -113.25 6.15Q-113.8 5.25 -114.55 5.25Q-114.55 6 -115 6.3L-115.5 6.45L-115.5 11L-116.45 11Q-116.45 8.85 -118.3 4.8Q-120.15 0.75 -120.15 -0.25Q-120.15 0.35 -120.6 0.65L-121.1 0.8Q-121.1 2.95 -122.05 5.85Q-123.35 9.65 -125.75 12.15Q-125.75 11 -126.7 11Q-127.65 8.15 -129.45 -9.35Q-131.2 -26.5 -131.3 -32.55L-132.25 -32.55L-135.05 -10.8Q-137.7 9.65 -138.8 11Q-138.8 9.8 -139.75 9.8Q-141.8 1.4 -148.2 -14.3Q-149.5 -13.15 -150.4 -8.45Q-151.25 -4 -152.65 -2.85L-152.65 -13.55L-152.9 -13.75L-152.75 -55.15L-151.6 -50.7L-151.2 -49.75L-151.2 -60.3L-151.15 -75.3L-151.05 -86.3Q-150.95 -99.4 -150.7 -102.5L-149.8 -102.5L-149.55 -102.05L-149.3 -101.95Q-148.3 -94.3 -147.55 -78.4L-147.5 -77.15L-146.9 -75.3L-145.45 -70.4L-142.45 -60.3L-140.65 -54.45L-139.75 -54.45Q-139.75 -56.2 -139.05 -60.3L-139 -60.65Q-138.3 -64.95 -137.85 -65.85Q-136.95 -64.7 -134.6 -60.3L-133.4 -57.95Q-131.65 -54.6 -129.5 -54.45L-129.3 -54.45Q-124.25 -54.45 -123.25 -55.65Q-122.45 -56.6 -122.15 -60.3L-121.95 -63.85L-121.45 -75.3Q-120.05 -101.3 -115.95 -127.75L-115.5 -127.75Q-115.2 -123.8 -115.35 -108.4L-115.5 -92.85Q-115.5 -83.6 -114.55 -75.3L-113.85 -69.7L-112.55 -60.3L-112.25 -57.25Q-111.5 -58.25 -110.8 -60.3L-110.5 -61.3Q-109.55 -64.45 -109.45 -67.6Q-109.2 -67.6 -109 -67.95L-108.65 -68.5L-108.5 -68.75L-108.05 -68.75Q-108.1 -67.9 -107.15 -65.2L-106.2 -62.45L-105.3 -62.45L-104.9 -64.15L-103.4 -69.85L-102 -75.3L-101.55 -77.3L-100.45 -75.3L-99.9 -73.95Q-98.75 -71.1 -98.75 -70.4Q-97.4 -71.6 -96.5 -74.25L-96.1 -75.3L-95 -77.9L-93.8 -77.3Q-93.45 -77 -93.6 -76.2L-93.15 -76.2Q-93.15 -89.8 -92.15 -104.8Q-91.45 -115.6 -90.35 -123.05L-90.65 -127.8L-89.7 -130.6L-88.35 -132.9Q-87.8 -133.5 -87.2 -133.5L-87 -133.5L-86.65 -133.4L-88 -123.1L-88.1 -122.2Q-88.5 -117.1 -88.5 -112.55Q-88.5 -96.75 -85.9 -81.25L-84.65 -75.3L-83.35 -68.75L-82.4 -68.4Q-80.7 -67.65 -78.85 -65.8Q-76.75 -63.6 -75.7 -63.6L-75.4 -63.6Q-74.15 -63.85 -73.55 -66.2Q-73.2 -67.5 -72.2 -75.3L-72.15 -75.65L-71.25 -76.75L-70.2 -75.3L-69.3 -73.45Q-68.45 -71.35 -68.45 -70.4L-67.5 -70.4Q-67.7 -71.95 -67.3 -75.3Q-66.9 -79.05 -66.15 -80.2Q-65.2 -79.5 -64.5 -77.9L-63.8 -76.2L-63.3 -76.2Q-63.3 -77.05 -62.15 -81.35Q-61 -85.65 -61 -85.9Q-60.65 -85.5 -59.65 -83.5L-58.65 -81.35L-58.25 -81.8Q-58.2 -87.5 -57.15 -84.4L-56.55 -87.35L-55.85 -92.8L-54 -92.8L-53.35 -92.05Q-52.9 -91.7 -52.2 -91.7Q-51.9 -91.7 -51.45 -92.5Q-51 -93.35 -50.3 -93.35Q-49.6 -93.35 -49.4 -92.75L-49.35 -91.7L-47.95 -91.7L-47.9 -91.75L-44.35 -101.05L-43.8 -102.45Q-40 -113.55 -37.2 -127.75L-37.15 -128.4L-36.75 -129.45L-37.2 -109.45Q-37.2 -87.65 -36.95 -85.2Q-36.3 -78.75 -34.35 -75.3Q-32.6 -72.2 -29.75 -71.6Q-29.35 -73.15 -29.35 -75.3Q-29.4 -77 -29.75 -79.05L-29.75 -80.2L-28.75 -76.65L-28.35 -75.3Q-27.9 -73.65 -27.9 -72.75Q-26.85 -73.7 -26 -75.3L-25.05 -77.55L-23.7 -81.35Q-23.15 -80.75 -21.25 -76.95L-20.4 -75.3L-19.05 -72.75L-17.65 -72.75L-17.15 -75.3L-16.8 -76.75Q-16.05 -80 -16.25 -82.5L-15.8 -82.7L-15.45 -82.9L-14.85 -83.05Q-13.85 -83.05 -13.05 -80.8Q-11.9 -77.75 -11.1 -76.75Q-9.6 -77.6 -8.95 -79.9Q-8.15 -82.7 -7.4 -83.65Q-6.7 -83.05 -5.8 -81L-4.15 -77.9L-3.2 -77.9L-2.35 -100.8Q-1.4 -121.3 -0.45 -124.35Q0.8 -123.2 1.2 -119.1Q1.95 -109.6 3.2 -97.95Q4.2 -89 6.25 -81.7L7.55 -77.55L7.95 -76.5Q8.95 -76 9.65 -75.3L10.3 -74.5Q11.1 -73.3 11.85 -73.3L12.15 -73.3Q13.55 -73.45 14.95 -75.3L16.5 -77.8L18 -80.95L25 -97.65L25.6 -93.6L26.45 -88.3L26.65 -87.05L27.1 -86.8Q27.45 -86.45 28.1 -86.45Q29.15 -86.45 29.75 -88.15L31.65 -95.7L31.9 -96.05L32.1 -96.8L33.35 -90.65Q34.65 -84.5 36.3 -82.5Q40.45 -85.3 41.8 -100.35Q43.7 -122 45.15 -127.75L45.65 -127.75Q46.2 -126.05 46.25 -113.1Q46.3 -97 47.5 -84.75Q47.95 -80 48.85 -75.3L50.35 -68.6L52.2 -61.25Q53.7 -62.45 54.45 -66.25L55.2 -69.85L56.35 -75.1L56.6 -75.15L56.75 -75.3L56.8 -75.55L56.8 -75.3Q56.85 -73.45 57.75 -70.4L57.75 -77.9L58.85 -77.6L60.05 -77.3Q60.65 -77.3 61.7 -78.8L62.75 -80.7Q63.25 -82 63.35 -83.65L63.65 -83.9Q63.85 -84.2 64.5 -84.2L67 -79.4L69.05 -75.3L71.25 -71.05Q72.8 -72.25 74.1 -75.3Q77 -82.05 78.85 -97.95L80.55 -115.5Q81.35 -124.9 81.95 -127.75L82.45 -128.9Q83.15 -126.4 85.15 -101.3Q85.3 -122.3 88.1 -96.6L90.55 -75.3L92.4 -61.55Q93.3 -63.4 94.2 -67.3L95.9 -75.3L95.95 -75.65L96.8 -75.3Q99.65 -73.8 101.55 -68.15Q102.35 -69.15 104.75 -75.3L106.35 -79.65Q109.3 -87.65 112.5 -87.65Q113 -87.65 113.95 -86.35L115.5 -83.65L116 -83.65Q116 -85.3 116.65 -89.25Q117.45 -93.95 118.35 -95.1L120 -91.4L120.5 -90.15L122.5 -84.75Q124.75 -85.9 125.1 -87.7Q125.3 -88.55 125.3 -95.15Q125.3 -100.1 124.6 -108.55Q123.9 -117.05 124.35 -125.4Q124.8 -133.75 124.6 -142.35L124.4 -151.85L124.85 -152.4Q127.5 -148.1 128.55 -117.9Q129.05 -102.5 129.05 -85.35L129.05 -84.85L129.3 -86.8L129.5 -88.7Q129.5 -87.2 130.5 -84.2L131.75 -86L132.3 -87.65L133.55 -84.7L134.15 -81.9L134.65 -81.9L135.6 -88.8L136.5 -96.8L136.95 -97.35Q137.75 -96.3 140.1 -87.45L142 -78.85L142.6 -75.3L144.45 -61.75L144.6 -60.3Q145.8 -48.55 143.35 -40.8L143.9 -41.15L144.15 -3.5L142.05 -0.55M100.2,-124.8L102.25 -99.95L100.6 -103.65Q99.7 -102.5 98.9 -97.8Q98.25 -93.85 98.25 -92.2L98.1 -92.2L100.2 -125.45L100.2 -124.8M17.05,-160.15Q17.35 -161.2 19.25 -162.05Q19.8 -160.3 21.1 -146.3L21.7 -139.95L20.65 -137.5L20.05 -139.35Q19.05 -142.45 19.9 -128.95Q17.3 -150.55 16.9 -155.85Q16.9 -159.6 17.05 -160.15M7.4,-76.75L7.4 -75.1L7.45 -75.05L7.45 -75.3L7.5 -76.7L7.4 -76.75M-69.85,-127.5L-70.15 -121.7Q-70.15 -118.2 -69.2 -105.15L-68.25 -92.2L-68.75 -92.75Q-68.75 -94.2 -69.9 -100.5Q-71.25 -108.1 -72.45 -108.8L-72.45 -108.25Q-72.85 -107.75 -72.9 -106.65L-72.9 -111.15Q-72.5 -132.55 -72 -135.15L-71.05 -135.15Q-70.4 -134.3 -69.5 -132.1L-69.85 -127.5M-128.95,-139.55Q-128.4 -137.9 -128.4 -129Q-128.4 -123.55 -129.8 -111.05L-130.45 -105.1L-131.05 -105L-130.75 -116Q-130.75 -121.7 -131.4 -127.3L-131.8 -130.45L-131.7 -130.95Q-130.75 -129.75 -130.75 -128.05L-130.3 -128.05L-130.05 -132.1L-129.85 -138.45Q-129.4 -138.45 -129.4 -139.55L-128.95 -139.55M-140,-31.45Q-139.75 -32.25 -140 -34.35L-140 -32.6L-140 -31.45" />
<path style="fill:#F87800;fill-opacity:1" d="M144.15,-3.5L144.3 18.6L145.15 30.1L145.2 30.55Q145.65 32 145.7 33.3L145.7 34.9Q145.7 64.8 101.95 85.95Q58.25 107.1 -3.6 107.1Q-65.45 107.1 -109.2 85.95Q-151.55 65.45 -152.85 36.7L-152.9 34.85L-152.7 31.1L-152.65 -2.85Q-151.25 -4 -150.4 -8.45Q-149.5 -13.15 -148.2 -14.3Q-141.8 1.4 -139.75 9.8Q-138.8 9.8 -138.8 11Q-137.7 9.65 -135.05 -10.8L-132.25 -32.55L-131.3 -32.55Q-131.2 -26.5 -129.45 -9.35Q-127.65 8.15 -126.7 11Q-125.75 11 -125.75 12.15Q-123.35 9.65 -122.05 5.85Q-121.1 2.95 -121.1 0.8L-120.6 0.65Q-120.15 0.35 -120.15 -0.25Q-120.15 0.75 -118.3 4.8Q-116.45 8.85 -116.45 11L-115.5 11L-115.5 6.45L-115 6.3Q-114.55 6 -114.55 5.25Q-113.8 5.25 -113.25 6.15Q-112.65 7.05 -112.65 8.65L-111.7 8.65Q-111.7 5.25 -110.75 4.1Q-110.15 4.1 -109.4 4.85L-108.05 6.45Q-107.35 6.45 -106.75 4.95Q-106.15 3.55 -106.15 1.75Q-104.25 2.25 -102.4 5.95Q-100.65 9.5 -98.8 9.8Q-98.85 7.5 -96.95 -10.2Q-95 -28.05 -95 -29.15Q-93.5 -27.75 -92.05 -17.25L-89.3 4.7Q-84.95 35.45 -76.35 36.25Q-76.35 33 -75.4 28.7Q-74.35 24.1 -72.65 20.2L-68.95 27.7Q-66.2 32.75 -61.95 32.75Q-59.5 32.75 -58.5 29.5Q-56.9 24.1 -54.95 21.4Q-53.45 21.4 -51.3 22.55Q-49.1 23.7 -47.95 23.7L-43.7 22.55Q-40.15 21.5 -36.05 21.4L-29.65 -46.25Q-26.45 -43 -21.85 -17.8Q-17.1 8.4 -12.9 14.35L-11.95 14.35L-11.55 10.25L-11.15 5.25L-8.3 11.9Q-6 17.35 -4.6 19.05Q-2.7 16.7 -2.7 12.15Q-2.4 12.15 -1.85 11.6Q-1.35 11 0 11Q1.6 11 2.5 12.85L4.6 16.7L6.2 14.6Q7.35 12.85 7.35 12.15Q8.75 13.2 9.8 15.15L11.95 19.05Q14 17.15 14.8 15.55Q16.8 15.55 18.3 17.35Q19.8 19.05 20.9 19.05Q24.5 19.05 26.6 15.25Q28.6 11.6 29.95 3.35Q31.75 -7.25 35.35 -46.25L35.35 -47.4Q38.35 -13.5 42.65 5.75Q46.65 23.55 52.1 30.4Q53.25 28.5 55.3 21.15Q57.5 13.35 58.65 11Q60.25 15.25 63.35 21.8Q67.75 31.2 70.75 35.1Q71.5 28.05 72.05 15.75Q72.65 3.05 72.65 -6.2Q73.3 -6.2 74.05 -5.5L75.4 -3.9L76.05 -26.65L77.3 -57.8L78.25 -57.8Q78.25 -55.9 81.6 -38.4Q84.9 -20.85 85.7 -18.85L85.7 -25.65Q88.45 -25.65 88.45 -24.5L89.75 -26.8Q90.35 -28.3 90.35 -29.15Q91.3 -29.15 91.3 -28Q95.45 -29.2 97.25 -38.45L98.9 -48.15Q100.05 -54.85 101.5 -59.95L105.9 -33.1L109.95 -8.45L110.75 -8.45L110.75 -13.1L112.7 -8.5Q114.45 -4.3 114.55 -2.95Q114.6 -7.45 115.5 -9.6L116.45 -9.6Q116.45 -6.9 118.55 2.5Q120.35 10.6 122.05 16.7L122.9 16.7Q122.9 13.45 123.4 5.15L123.85 -7.4Q125.45 -6.2 126.35 -4L127.65 -0.25Q129.5 4.1 135.95 4.1Q138.35 4.1 142.05 -0.55L144.15 -3.5" />
</g>
</svg>
