<?xml version="1.0" encoding="utf-8"?>
<svg version="1.1" id="Layer_1"
xmlns="http://www.w3.org/2000/svg"
xmlns:xlink="http://www.w3.org/1999/xlink"
xmlns:author="http://www.sothink.com"
width="205px" height="95px"
xml:space="preserve">
<g id="1793" transform="matrix(1, 0, 0, 1, 96.15, 76.4)">
<path style="fill:#F8F8F8;fill-opacity:1" d="M78.45,-67.4Q85.25 -60.85 88.8 -56.25L88.8 -54.55L88.4 -54.55Q87.45 -56.1 83.25 -59.25Q78.85 -62.6 77.2 -62.6L77.2 -62.2L78.75 -60.85Q79.75 -59.95 80.05 -59.05L78.25 -59.05Q76 -60.4 72.25 -61.65Q68.5 -62.9 67.8 -62.6L68.15 -62.6L69.65 -60.65Q70.95 -59.15 70.95 -58Q64.05 -60.35 59.05 -61.7Q49.75 -64.25 45 -62.9L45.4 -62.6L50.35 -61L53.75 -60.05L53.75 -59.05Q52.7 -58 47.7 -57.75L41.2 -57.7L45.4 -53.1L32.4 -53.1L34.15 -51.1Q35.05 -49.95 35.25 -48.85L31.85 -48.25Q29.3 -48 28.6 -47.5L29.55 -45.25L30.4 -42.95Q30.4 -41.4 28 -40.65L24.1 -39.5L22 -40.1Q21.65 -47.1 21 -52.7Q20.4 -56.85 20.5 -56.95L23.45 -60.4Q25.2 -62.35 26.95 -59.25Q28.6 -56.25 30.75 -59Q32.95 -61.75 32.6 -65.25Q32.2 -68 33.6 -68.8Q34.3 -69.2 36.45 -71.1Q38.95 -73 41.85 -74.2Q48.45 -76.7 59.25 -76.35Q67.95 -73.45 75.95 -69.65L76.1 -69.55L78.45 -67.4M85.9,-54Q80.95 -53.05 82.55 -56.7L82.55 -56.75Q84.55 -55.9 85.8 -54.15L85.9 -54M75.4,-50.9Q72.8 -49.9 70.15 -52.2Q70 -53.1 70.5 -53.7L71.35 -54.25Q74 -53.3 75.35 -51.1L75.4 -50.9M63.2,-55Q59.25 -54.55 60.5 -57.35L60.5 -57.4Q62.55 -57.15 63.15 -55.3L63.2 -55" />
<path style="fill:#B0E3F0;fill-opacity:1" d="M30.65,-37.8L24.1 -39.5L28 -40.65Q30.4 -41.4 30.4 -42.95L29.55 -45.25L28.6 -47.5Q29.3 -48 31.85 -48.25L35.25 -48.85Q35.05 -49.95 34.15 -51.1L32.4 -53.1L45.4 -53.1L41.2 -57.7L47.7 -57.75Q52.7 -58 53.75 -59.05L53.75 -60.05L50.35 -61L45.4 -62.6L45 -62.9Q49.75 -64.25 59.05 -61.7Q64.05 -60.35 70.95 -58Q70.95 -59.15 69.65 -60.65L68.15 -62.6L67.8 -62.6Q68.5 -62.9 72.25 -61.65Q76 -60.4 78.25 -59.05L80.05 -59.05Q79.75 -59.95 78.75 -60.85L77.2 -62.2L77.2 -62.6Q78.85 -62.6 83.25 -59.25Q87.45 -56.1 88.4 -54.55L88.8 -54.55L88.8 -56.25Q85.25 -60.85 78.45 -67.4L76.1 -69.55Q87 -64.3 94.2 -58.25Q100.4 -50.25 100.4 -42.95Q100.4 -37.5 98.6 -35.95Q98.3 -37.65 91.7 -43.5Q85.2 -49.2 83.5 -49.65L83.5 -48.85L85.15 -46.65L86.65 -44.35L86.65 -42.55L83.1 -44.75Q80.2 -46.5 79 -46.5L79.7 -45.6L79.7 -44.2L79.35 -41.55L77.6 -41.55Q73.45 -45.7 65.1 -49.3Q55.75 -53.2 47.85 -53.1L53.25 -49.35Q57.35 -46.2 57.65 -44.35Q53.35 -45.45 46.75 -45.75L35.35 -46.4L39 -43.55Q41.8 -41.4 42.25 -40.55L42.25 -38.75L30.65 -37.8M85.8,-54.15Q84.55 -55.9 82.55 -56.75L82.55 -56.7Q80.95 -53.05 85.9 -54L85.8 -54.15M75.35,-51.1Q74 -53.3 71.35 -54.25L70.5 -53.7Q70 -53.1 70.15 -52.2Q72.8 -49.9 75.4 -50.9L75.35 -51.1M63.15,-55.3Q62.55 -57.15 60.5 -57.4L60.5 -57.35Q59.25 -54.55 63.2 -55L63.15 -55.3M35.25,-46.5L34.95 -46.5L35.35 -46.4L35.25 -46.5" />
<path style="fill:#1179C2;fill-opacity:1" d="M42.25,-38.75L42.25 -40.55Q41.8 -41.4 39 -43.55L35.35 -46.4L46.75 -45.75Q53.35 -45.45 57.65 -44.35Q57.35 -46.2 53.25 -49.35L47.85 -53.1Q55.75 -53.2 65.1 -49.3Q73.45 -45.7 77.6 -41.55L79.35 -41.55L79.7 -44.2L79.7 -45.6L79 -46.5Q80.2 -46.5 83.1 -44.75L86.65 -42.55L86.65 -44.35L85.15 -46.65L83.5 -48.85L83.5 -49.65Q85.2 -49.2 91.7 -43.5Q98.3 -37.65 98.6 -35.95Q100.4 -37.5 100.4 -42.95Q100.4 -50.25 94.2 -58.25Q107.85 -46.75 107.9 -32.45Q107.9 -22.1 100.8 -13.2Q101.5 -19.5 93.7 -25.6Q85.8 -31.75 80.25 -33.6Q74.55 -35.45 69.6 -35.9Q70.6 -34.9 71.25 -29.25L71.7 -24.55Q70.05 -26.15 64.9 -29.95Q55.15 -37.25 49.95 -38.3Q53.1 -35.9 53.05 -31.2L39.65 -35.45L30.65 -37.8L42.25 -38.75" />
<path style="fill:#1179C2;fill-opacity:0.698039" d="M-7.95,17.4Q17.25 15.75 36.65 10.6L39.45 9.85Q97.2 -6.5 81.85 -48.5L85.4 -50.95L89.3 -45.35Q96.3 -33.45 93.8 -24.35Q97.15 -30.35 98 -38.5Q98.95 -48.95 93.9 -57.25Q108.2 -45.85 108.25 -31.65Q108.3 -10.95 78.1 3.65Q66.35 9.35 52.75 12.8Q31 18.35 4.95 18.35L-13.8 17.55L-7.95 17.4" />
<path style="fill:#F8F8F8;fill-opacity:0.2" d="M93.9,-57.25Q98.95 -48.95 98 -38.5Q97.15 -30.35 93.8 -24.35Q96.3 -33.45 89.3 -45.35L85.4 -50.95Q89.6 -54.4 91.75 -58.9L93.9 -57.25M39.45,9.85L36.65 10.6Q17.25 15.75 -7.95 17.4L-13.8 17.55Q-44.75 14.95 -68.25 3.65Q-89.8 -6.65 -96.15 -20.1Q-77.9 0.5 -36.9 8.05Q-14.75 12.05 5.35 11.75Q-5.4 11.6 -16.85 9.15Q-47.95 2.45 -54.2 -19.7L-40.3 -16.7Q-23.7 -13.7 -10.3 -13.55Q6.8 -13.35 16.25 -17.75Q21.95 -14.5 26.65 -11.15Q41.15 -0.85 39.45 9.85" />
<path style="fill:#BCDFE9;fill-opacity:0.498039" d="M26.65,-11.15Q21.95 -14.5 16.25 -17.75Q30.55 -24.45 27.45 -41.65L36.4 -41.05Q47.25 -40.55 56.7 -41.5Q72.75 -43.15 81.85 -48.5Q97.2 -6.5 39.45 9.85Q41.15 -0.85 26.65 -11.15" />
</g>
</svg>
