<?xml version="1.0" encoding="utf-8"?>
<svg version="1.1" id="Layer_1"
xmlns="http://www.w3.org/2000/svg"
xmlns:xlink="http://www.w3.org/1999/xlink"
xmlns:author="http://www.sothink.com"
width="412px" height="253px"
xml:space="preserve">
<g id="2977" transform="matrix(1, 0, 0, 1, 41.55, 51.95)">
<path style="fill:#000000;fill-opacity:1" d="M51.75,-8.65Q49.55 0.4 50.65 9.7Q51.6 20.45 57.05 31.15Q64.9 46.95 82.25 62.15L82.4 62.35Q102 77.85 119.35 87.3L124.7 90.1Q117.75 111.4 115.25 134.8Q113.45 150.7 112.8 166.35L112.55 171.55Q111.35 170.9 110.1 171Q97 168.35 86.45 169.9Q75.8 171.05 69.9 173.8L59.1 178.4Q55.25 180 53.15 173.9Q44.25 160.75 34.1 160.15Q24 159.3 17.4 163.55Q10.8 167.35 7.95 178.25Q6.05 184.6 4.45 186.4Q3.1 187.65 1.3 187.3L0.65 187.25L-1.9 185.9Q-24.05 171.05 -33.85 146.85Q-43.2 124.05 -41.2 94.8Q-40.9 88.8 -40 83.35L-39.8 81.6L-39.7 80.95L-39.7 80.55L-39.45 78.95L-39.2 77.55L-38.35 73.6Q-30.8 35.75 -4.85 11.15Q3.1 3.4 12.6 -2.8Q27.65 -13.2 47.6 -20.25Q48.6 -20.75 52.6 -21.65L54 -21.95L54.25 -21.7Q55.45 -21.5 55.05 -19.3L54.35 -16.6Q51.7 -10.65 51.75 -8.65" />
<path style="fill:#000000;fill-opacity:1" d="M223.8,-51.95L230.7 -51.45Q286.7 -46.25 320.85 -11.2Q337.1 5.4 348.35 27.2Q359.45 48.7 366.55 79.9Q368.3 88.35 369.2 96.55L369.55 99.7L369.9 107Q370.15 122.4 366.45 136.25Q359.55 161.2 341.05 186.55L332.7 197.1L330.4 199.4L328.05 200.3L326.8 200.4Q324.25 200.5 323.6 198.5Q322.65 196.4 323.05 196.25Q325.85 169.8 316.55 158.3Q307.6 147.65 298.95 145.65Q291.45 143.85 285.9 145.55Q280 147 275.5 149.6Q270.95 152.1 267.9 154.5Q264.65 156.75 260.3 161.35Q255.5 165.95 253.5 157.15Q244.55 128.5 210.45 140.55Q191.45 147.2 183.9 159.9Q176.3 172.4 172.05 168.7Q162.2 163.05 152.4 162.65L149.55 162.7Q145.55 162.8 141.7 163.85Q141.45 163.85 141.3 164L139.25 164.45Q137.8 164.65 136.7 165.1L135.45 160.2Q131.75 145.05 128.9 129.2Q127.1 119.9 126.1 110.7Q125.8 109.4 125.9 108.25Q125.3 104.65 125.05 100.9L124.95 99.15Q124.1 90.45 124 81.9L125.25 81.55Q131.3 80.55 139.15 78L141.05 77.15L153.5 71.85Q176 60.95 193.3 38.85Q210.55 16.1 213.4 -7.05Q214.05 -13.75 214.05 -20.15Q214.1 -25.25 213.55 -33.1Q212.45 -41.15 212.85 -45.55Q212.9 -50.1 215.9 -50.75Q216.6 -51.2 217.85 -51.3L219.95 -51.65L223.8 -51.95" />
</g>
</svg>
