<?xml version="1.0" encoding="utf-8"?>
<svg version="1.1" id="Layer_1"
xmlns="http://www.w3.org/2000/svg"
xmlns:xlink="http://www.w3.org/1999/xlink"
xmlns:author="http://www.sothink.com"
width="69px" height="20px"
xml:space="preserve">
<g id="362" transform="matrix(1, 0, 0, 1, 75.75, -10.75)">
<path style="fill:#3C2C22;fill-opacity:1" d="M-51.6,15.4L-48.05 15.5L-41.6 15.4L-33.05 15.15L-33.05 15.3L-32.55 15.25L-32.5 15.25L-26.1 14.9L-21.2 14.6L-17.1 14.25L-9.3 13.5Q-9.25 14.25 -9.65 14.85L-18.6 15.4L-32.55 16.1L-33.05 16.1L-33.05 16.05L-50.2 16.6L-51 16.65L-51.6 15.4" />
<path style="fill:#574031;fill-opacity:1" d="M-52.1,13.8L-45.6 13.65L-33 13.35L-33 13.4L-32.5 13.4L-30.55 13.3L-15.75 12.55L-9.95 12.2Q-9.75 12.1 -9.45 13.1L-9.3 13.5L-17.1 14.25L-21.2 14.6L-26.1 14.9L-32.5 15.25L-32.55 15.25L-33.05 15.3L-33.05 15.15L-41.6 15.4L-48.05 15.5L-51.6 15.4L-51.95 14.3L-52.1 13.8" />
<path style="fill:#231813;fill-opacity:1" d="M-50.35,17.65L-51 16.65L-50.2 16.6L-33.05 16.05L-33.05 16.1L-32.55 16.1L-18.6 15.4L-9.65 14.85Q-9.25 14.25 -9.3 13.5L-9.45 13.1Q-9.75 12.1 -9.95 12.2L-15.75 12.55L-30.55 13.3L-32.5 13.4L-33 13.4L-33 13.35L-45.6 13.65L-52.1 13.8L-52.1 13.05L-52.15 13.05L-52.1 13L-52.1 12.85L-52.2 12.75L-32.45 12.05L-32.45 12.1L-15.5 11.05L-9.55 10.75Q-8.05 11.25 -7.7 12.6L-7.6 13.4Q-7.55 14.2 -7.75 14.8L-8.8 16.35L-33.1 17.25L-33.1 17.2L-50.2 17.75L-50.35 17.65" />
<path style="fill:#3A3634;fill-opacity:1" d="M-71.25,19.65L-72 20.65Q-73.75 22.8 -74.7 23.4Q-72.6 25.35 -66.05 26.55L-57.95 27.3L-55.25 27.1L-50.1 25.7L-47.75 24.5L-47.15 24.15L-45.7 22.6L-46.1 22.4Q-47.5 21.9 -48.85 20.75L-50.05 19.55L-49.1 19Q-47.7 20.3 -44.8 21.85L-43.2 22.65Q-45.45 27.15 -50.4 28.9Q-53.45 30.05 -56.55 30.4L-66.1 29.9Q-71.05 28.8 -74.55 26.1Q-75.65 25.2 -75.75 23.15L-75.65 23L-74.3 21.55L-72.1 19.05L-71.25 19.65M-45,23Q-46.3 24.95 -51.8 26.8Q-57.4 28.7 -63.6 27.85Q-69.85 26.9 -73.6 25.05L-70.95 26.7Q-68.85 27.85 -66.35 28.65Q-63.25 29.6 -58.35 29.35Q-53.95 28.95 -50 27.2Q-48.15 26.4 -46.45 25.05L-45.3 23.75Q-44.65 22.9 -45 23" />
<path style="fill:#938D89;fill-opacity:1" d="M-45.3,23.75L-46.45 25.05Q-48.15 26.4 -50 27.2Q-53.95 28.95 -58.35 29.35Q-63.25 29.6 -66.35 28.65Q-68.85 27.85 -70.95 26.7L-73.6 25.05Q-69.85 26.9 -63.6 27.85Q-57.4 28.7 -51.8 26.8Q-46.3 24.95 -45 23Q-44.65 22.9 -45.3 23.75" />
<path style="fill:#E0D8D4;fill-opacity:1" d="M-57.75,26.35L-56.95 26.35L-53.7 26.15L-50.35 25.7L-50.1 25.7L-55.25 27.1L-57.95 27.3L-66.05 26.55Q-72.6 25.35 -74.7 23.4Q-73.75 22.8 -72 20.65L-71.25 19.65L-71.1 19.5L-70.05 20.2L-70.2 20.45L-71.95 22.7Q-69.85 24.85 -66.45 25.6L-60.25 26.3L-59.6 24.7L-58.55 24.7L-57.25 24.7L-57.75 26.35" />
<path style="fill:#ACA49F;fill-opacity:1" d="M-50.1,25.7L-50.35 25.7L-53.7 26.15L-56.95 26.35L-57.75 26.35L-57.25 24.7Q-51.9 24.55 -47.3 22.9L-46.1 22.4L-45.7 22.6L-47.15 24.15L-47.75 24.5L-50.1 25.7M-68,21.2L-68.65 22.45L-66.7 23.5Q-64.1 24.6 -59.6 24.7L-60.25 26.3L-66.45 25.6Q-69.85 24.85 -71.95 22.7L-70.2 20.45L-70.05 20.2L-68 21.2" />
<path style="fill:#766D67;fill-opacity:1" d="M-66.7,23.5L-68.65 22.45L-68 21.2Q-65.25 22.25 -62.05 22.3L-58 22.1L-56 21.7Q-53.3 21.1 -50.8 19.85L-50.1 19.5L-50.05 19.55L-48.85 20.75Q-47.5 21.9 -46.1 22.4L-47.3 22.9Q-51.9 24.55 -57.25 24.7L-58.55 24.7L-59.6 24.7Q-64.1 24.6 -66.7 23.5" />
<path style="fill:#80250A;fill-opacity:1" d="M-70.05,20.2L-71.1 19.5L-71.25 19.65L-72.1 19.05L-71.3 18Q-71.4 18.45 -70.5 16.95L-70.2 16.4L-70.25 16.6L-68.45 14.45L-67.7 13.7L-67.1 12.8L-66.65 12.2L-65.55 12.1L-64.7 12.1L-63.75 12.1L-61.1 12.1L-56.35 12.3L-54.05 12.5L-52.35 12.65L-52.2 12.75L-52.1 12.85L-52.1 13L-52.15 13.05L-52.1 13.05L-52.1 13.8L-51.95 14.3L-51.6 15.4L-51 16.65L-50.35 17.65L-50.2 17.75L-49.8 18.3L-49.5 18.6L-49.1 19L-50.05 19.55L-50.1 19.5L-50.8 19.85Q-53.3 21.1 -56 21.7L-58 22.1L-62.05 22.3Q-65.25 22.25 -68 21.2L-70.05 20.2M-65.25,13L-66.35 13L-67.45 14.6L-69.35 17.25L-70.75 19.1L-69.6 19.6L-67.6 20.35Q-62.45 21.95 -56.7 20.85L-55.3 20.6L-51.65 19.15L-50.75 18.75L-51.05 18.45L-51.55 17.8L-51.6 17.75L-52.3 16.65L-52.75 15.7L-52.9 15.35L-53.25 13.8L-53.25 13.75L-53.25 13.45L-55.9 13.25L-59.95 13.05L-61.4 13.05L-64.1 13L-65.25 13" />
<path style="fill:#9C3C19;fill-opacity:1" d="M-65.85,16.65L-64.1 13L-61.4 13.05L-59.95 13.05L-55.9 13.25L-53.25 13.45L-53.25 13.75L-53.25 13.8L-52.9 15.35L-52.75 15.7L-52.3 16.65L-51.6 17.75L-51.55 17.8L-51.05 18.45L-50.75 18.75L-51.65 19.15L-55.3 20.6L-56.7 20.85Q-62.45 21.95 -67.6 20.35L-65.85 16.65" />
<path style="fill:#4A5662;fill-opacity:1" d="M-70.25,16.6L-70.2 16.4Q-70.7 16.6 -71.25 16.2Q-72.2 15.6 -71.1 14.9Q-70.1 14.2 -68.55 14.05L-68.05 14L-68.45 14.45L-70.25 16.6" />
<path style="fill:#253439;fill-opacity:1" d="M-70.5,16.95Q-71.4 18.45 -71.3 18L-71.25 17.75L-71.35 17.65Q-71.2 17.55 -71.65 17.45L-72.65 16.7L-73.35 15.5Q-73.5 14.8 -71.95 14.05Q-70.5 13.25 -69 13.05L-67.2 12.75L-67.1 12.8L-67.7 13.7L-68.45 14.45L-68.05 14L-68.55 14.05Q-70.1 14.2 -71.1 14.9Q-72.2 15.6 -71.25 16.2Q-70.7 16.6 -70.2 16.4L-70.5 16.95" />
<path style="fill:#B1522E;fill-opacity:1" d="M-68.3,17.65L-65.25 13L-64.1 13L-65.85 16.65L-67.6 20.35L-69.6 19.6L-68.3 17.65" />
<path style="fill:#D26A3D;fill-opacity:1" d="M-69.6,19.6L-70.75 19.1L-69.35 17.25L-67.45 14.6L-66.35 13L-65.25 13L-68.3 17.65L-69.6 19.6" />
</g>
</svg>
