<?xml version="1.0" encoding="utf-8"?>
<svg version="1.1" id="Layer_1"
xmlns="http://www.w3.org/2000/svg"
xmlns:xlink="http://www.w3.org/1999/xlink"
xmlns:author="http://www.sothink.com"
width="88px" height="87px"
xml:space="preserve">
<g id="2861" transform="matrix(1, 0, 0, 1, 0, 0)">
<path style="fill:#000000;fill-opacity:1" d="M84.65,21.45Q80 20.5 78 23.6Q78.35 23.7 78.75 24.1Q80.5 25.75 81.3 27.95Q82.15 30.3 82.3 32.35Q82.45 34.6 81.8 36.5Q80.65 39.65 77.05 41.85L77.2 42L77.95 42.7Q78.45 43.2 78.4 43.55L78.35 43.9L79.1 43.7Q80.05 43.6 80.85 42.8L82.15 41.6Q82.6 41.2 82.8 41.6Q83.1 42 83.2 42.95L83.15 44.7Q83.05 45.6 82.1 46.9Q81.15 48.2 79.4 48.25L78.6 48.25L78.35 49.15L78.4 49.2Q79.05 50.25 78.9 51.8Q78.95 52.4 78.15 52.55Q78.65 52.95 79.55 53.2Q79.75 53.45 79.15 54.05Q78.5 54.7 77.45 54.65Q76.45 54.6 75.6 53.6L75.35 53.95L76 54.35Q77.6 55.3 78.35 56.25L78.85 56.75L79.45 56.65Q81.55 56.55 82.6 57.45L85.5 57.2Q87.2 57.8 87.65 59.25L87.75 60.15L87.65 61.75L86.45 63.55L81.7 63.8L80.9 64.1Q80.85 64.9 80.4 65.4Q79.95 65.85 78.8 65.8Q77.65 65.75 76.95 64.95L76.55 64.1L74.9 64.2L75.3 65.1L75.35 66.8Q76.25 67.3 76.4 68.7Q76.45 70.45 76.05 71.65L76.8 72.8Q77.8 75.6 75.55 77.15L74.6 77.65L70.15 77.85Q66.85 77.05 66.5 75.2Q66.15 73.55 67.25 72.5L66.95 71.35L66.95 70.1L66.9 70.05Q65.75 69.15 64.95 67.75L64.65 67.15L62.9 67.5L62.8 68.05L61.5 69.65L59.7 70.9L59.4 71.8L59 72.65Q60.3 74.95 59.45 76.6Q58.45 78.55 54.6 79.15L54.1 79.2L49.3 78.75L49.2 78.7L49 78.6L45.85 81.1Q42.95 83.2 38.5 84.65L33.05 86.05Q24.7 87.75 16.8 86.35Q8.85 84.85 4.2 81.05Q-0.5 77.3 0.05 75.1L6.5 74.5L8.85 73.25L9.75 72.45L10.25 72.05L9.6 70.65L12.65 69.25L13.6 67.5L5.9 65.85Q2 64.9 4.25 63.85L5.1 63.5Q8.65 62.2 13.2 61.1L13.85 60.95L11.75 59.95Q9.9 59.45 11.05 58.6L14.2 56.85L13.8 56.45L15.45 54.8L16.5 55.85Q19.65 54.75 22.9 54.8L30.9 55.45L32.35 55.75L33.05 56L34.45 54.45L36.15 56L35.35 56.85Q36.85 57.5 38.1 58.3L38.45 58.5Q40.3 59.85 37.55 60.05L36.3 60.55L44.5 60.15L44.45 59.9Q44.15 58.9 44.2 57.85L44.2 57.6L44.3 56.95Q43.9 56.05 43.8 55.4L40.25 55.55Q38.6 54.75 38.2 53.35Q37.8 52.05 38.25 51.75L38.3 51.75L40.95 51.9Q39.7 51.05 40.3 50.1Q41.25 47.7 43.05 46.7L43.2 46.65Q43.3 45.85 43.55 45.15L42.3 44.55Q39.8 43.15 39.35 40.7Q37.65 38.95 36.35 36.55Q35.65 35.3 35.55 32.9Q35.65 31.5 36 31.75L36.85 32.05L38.3 32.3L38.5 32.3Q39.6 32.35 40.5 31.4Q35.85 30.5 34.9 25.15Q34 20.05 37.15 17.15Q37.65 16.6 38 16.95L38.5 17.45L38.55 17.5Q39.75 18.8 41.1 19.35L40.8 15.85L40.75 13.05L41 11.05Q41.15 10 41.9 8.55L43.15 6.3L43.7 5.4Q45.45 2.95 47.55 1.95Q51.85 -0.05 52.05 0L52.3 0.05L52.4 1L52.9 3.55Q53.25 5.15 53.95 6.4L55.75 8.45Q58.4 10.7 62.7 10.2L63.15 9.15L63.4 6.75Q63.25 5.9 64.7 6.55Q66.15 7.1 67.55 8Q68.9 9 70.3 10.95Q71.7 12.9 72.15 15.45Q73.85 13.8 77 14Q80.05 14.2 82.4 16.1Q84.75 18 85.2 19.95L85.25 21.1L84.65 21.45M40.3,72.3L41.4 72.8L45.65 74.15Q45.55 72.35 46.55 71.25L47.15 70.8L47.25 69.45Q47.45 67.5 48.15 66.55L48.95 65.75L48.75 65.65L34.75 66.25L35.1 67.05L37.05 68L36.9 68.4L41 70.1L40.15 72.25L40.3 72.3" />
</g>
</svg>
