<?xml version="1.0" encoding="utf-8"?>
<svg version="1.1" id="Layer_1"
xmlns="http://www.w3.org/2000/svg"
xmlns:xlink="http://www.w3.org/1999/xlink"
xmlns:author="http://www.sothink.com"
width="36px" height="48px"
xml:space="preserve">
<g id="1237" transform="matrix(1, 0, 0, 1, 0, 0)">
<path style="fill:#544F45;fill-opacity:1" d="M30.95,30.6L31.3 30.35L31.4 30.2L31.75 29.8Q32.4 28.95 32.4 28.05L31.85 24.9L31.1 21.95L30.7 22.15L30.3 22.3L28.15 22.45L26.65 22L24.65 20.8L22.7 19Q20.15 19.35 18.75 19.05Q17.35 18.7 15.5 17.55Q13.65 16.45 13.1 15.3Q12.55 14.1 12.85 13.35L12.6 12.95L11 11.5Q9.9 10.65 9.3 10.65Q8.7 10.6 7.2 11.4Q5.7 12.2 5.3 13.25L7.45 17.2L8.45 19.3Q8.75 20.2 8.1 21.45Q9.6 21.85 10.75 22.5L12.95 23.85Q13.95 24.5 13.8 25.6L13.35 27.45L12.75 29.35L13.25 29.75Q14.7 30.6 15.5 31.35Q16.3 32.05 16.95 36.1Q21.15 33.1 22.85 33.5Q24.5 33.85 25.7 34.35L27.4 35.1L27.4 35.05L28.55 35.85Q29.75 36.9 30.05 37.65Q30.3 38.4 30.05 39.2L28.8 41.55L28.35 42.35L26.95 41.85L28.65 38.6Q27.3 36.6 24.7 35.6Q22.1 34.55 21.1 35.25L18.65 36.8L18.15 37.1L16.7 38L16.25 38.2L16.2 38.2L16.05 38.1Q15.85 37.9 15.8 37.4L15.6 36.3L15.45 35.2L15.3 34.55L15.2 33.85L15.1 32.55L14.15 31.9Q13.25 31.2 11.35 30.15Q10.35 29.6 9.9 28.9Q9.5 28.25 9.5 27.55L9.6 27.5L9.75 27.45L10.85 28L11.6 28.5L11.95 27.4L12.25 26.3L12.45 25.25L10.85 24.1L10.5 23.9Q9.05 23.05 7.55 22.7L7.05 22.6L6.9 22.7L6.85 22.4L6.15 20.6L6.2 20.6L7.35 19.9L7.4 19.85L5.7 16.75L4.35 14.45L4.05 14L3.75 11.05L4.85 11.5Q7.7 9.15 10 9.55Q12.55 10.8 13.8 12.5L14.75 11.9L15.3 11.4Q15.75 11.25 16.2 10.4L14.65 8.1Q13.7 6.65 11.3 6.6Q9.45 6.5 7.85 7.1L6.85 7.55Q5.25 8.35 4.2 9.05Q3.9 9.15 3.7 9.35L3.65 7.5L3.8 5.45L6.55 3.2Q8.5 1.7 11.1 0.75Q13.75 -0.2 15 0.05Q16.2 0.25 17.8 0.95L20.7 2.25Q21.95 2.85 22.65 3.55Q23.3 4.25 23.35 7.55Q26.5 8.1 28.7 9.25Q30.85 10.4 31.95 11.3L34 13.2Q35 14.15 35.6 15.9Q36.2 17.65 35.3 18.65L34.8 19.2L32.35 21.4L33.4 26.85Q33.65 29.25 33.25 30.1L32.35 31.3L30.95 30.6M9.85,2.95L8.8 3.5Q6.45 4.65 5.55 5.55Q4.25 6.9 4.1 7.45Q8.05 5.15 11.15 5.25L13.25 5.3Q14.2 5.2 14.85 5.85L17.2 9.4Q17.75 7.75 19.5 7.35L21.4 7.2L21.9 7.25L21.9 5.95L21.65 4.5Q19.7 3.3 18.15 2.55Q16.55 1.8 14.45 1.15Q12.6 1.75 11.1 2.4L9.85 2.95M30.55,15.45L32.35 13.7Q30.4 10.9 25.8 9.45L22.5 8.6L21.5 8.5L19.45 8.85Q18.55 9.25 19.15 10.4Q19.65 11.5 20.25 12.05L21.2 12.85L23.45 14.3Q25.3 15.55 28.3 16.1Q29.35 16.35 30.55 15.45M29,19.95L29 19.9L28.95 17.25L26.15 16.7L25.6 16.5L24.55 16L23.95 17.55L23.5 18.3Q23.6 19.1 25.6 20.3Q27.65 21.55 28.6 21.2L28.85 20.75L29 19.95M19,12.15L17.7 10.35Q16.6 11.9 15.5 12.65L13.8 13.6Q13.95 14.6 14.3 15.05Q17.15 18.45 21.8 17.95L22.3 17.9L22.65 17.45L22.9 17L23.45 15.45Q21.25 14.15 19.55 12.65L19 12.15M34,18.3L34.75 17.1L34.45 15.65L33.7 14.75Q33.25 14.45 32.8 14.95L32 15.6L31.45 16L30.5 16.6L29.8 17.05L30 18.75L29.9 20.65L29.7 21.3L30.3 21.05L31.95 20.2L33.55 18.7L34 18.3" />
<path style="fill:#D4D0C7;fill-opacity:1" d="M15.25,10.6Q15.25 10 14.25 9.15L13.55 8.6Q12.25 9.55 13.15 8.3L13.05 8.2Q12.55 7.75 11.1 7.45L7.85 7.1Q9.45 6.5 11.3 6.6Q13.7 6.65 14.65 8.1L16.2 10.4Q15.75 11.25 15.3 11.4L15.25 10.6M6.45,20.1L5.85 19.85L6.05 18.95L4.6 16.5L4.05 15.6Q3.55 14.35 2.4 13.6L2.45 13.4L1.8 12.25L2.15 12.2Q2.75 12.25 3.7 12.75L4.05 14L4.35 14.45L5.7 16.75L7.4 19.85L7.35 19.9L6.45 20.1M11.15,25.55L10.9 25.35L10.8 25.4Q9.15 25.85 10.05 24.75Q8.8 24 7.35 23.5L7 23.4L6.95 23.35L6.95 23.2L7.05 22.75L7.05 22.6L7.55 22.7Q9.05 23.05 10.5 23.9L10.85 24.1L12.45 25.25L12.25 26.3L11.95 27.4L11.6 28.5L10.85 28Q11.8 26.7 11.15 25.55M9.25,26.5Q9.8 26.5 9.8 27.1L9.75 27.45L9.6 27.5L9.5 27.55Q7.75 27.95 9.25 26.5M15.15,33.6L14.15 33.2L14.15 33.4Q14.05 32.85 13.35 32.3L13.15 32.4Q11.4 32.8 12.45 31.7L9.05 29.5Q9.3 29.15 9.85 28.9L9.9 28.9Q10.35 29.6 11.35 30.15Q13.25 31.2 14.15 31.9L15.1 32.55L15.2 33.85L15.15 33.6M26.5,42.55L26.25 42.95L26.25 42.6L26.6 41.7L26.8 40.3L26.9 38.9Q25.55 38.8 26.4 38Q25.3 37.55 24.9 36.9L24.1 36.3L23.45 36.6L22.85 36.9L21.7 36.4L20.3 36.75L18.15 37.1L18.65 36.8L21.1 35.25Q22.1 34.55 24.7 35.6Q27.3 36.6 28.65 38.6L26.95 41.85L26.5 42.55M29.2,30.75Q28.3 30.75 27.6 30.1L26.85 29.1L28.2 29.4Q27.65 29.7 28.4 29.9L28.5 29.95L28.6 29.95Q29 30 29.05 29.55L29.05 29.45L29.5 29.35L30.2 29.6L30.4 29.4L30.45 29.15L30.45 28.95L30.45 28.85L30.55 28.75L30.85 28.4L31.4 28.6L31.65 28.4Q31.9 27.75 31.35 27.5L31.25 27.6L31.25 27.35L31.1 27.05L31.15 26.95L31.3 26.8L31.3 26.55L30.85 26.45L31.3 25.75L30.95 23.3L30.7 22.15L31.1 21.95L31.85 24.9L32.4 28.05Q32.4 28.95 31.75 29.8L31.4 30.2L31.3 30.35L29.2 30.75M20,4.6Q18.25 4.2 17.65 3.5Q16.75 2.4 11.1 2.4Q12.6 1.75 14.45 1.15Q16.55 1.8 18.15 2.55Q19.7 3.3 21.65 4.5L21.9 5.95L21.9 7.25L21.4 7.2Q21.2 5.2 20 4.6M25.8,9.45Q30.4 10.9 32.35 13.7L30.55 15.45L30.65 13.05L30.7 13Q31.2 12.9 30.75 12.45L30.35 12.3L30.25 12.45L29.25 11.95L29.2 11.95Q27.65 13.2 28.75 11.65L26.25 10.25Q24.9 9.45 21.7 9.25L22.3 8.7L22.5 8.6L25.8 9.45M32,15.6L32.8 14.95Q33.25 14.45 33.7 14.75L34.45 15.65L34.75 17.1L34 18.3L33.75 17.35L33.45 16.5L33.45 16.4L33.4 16.4Q31.6 16.85 32.95 15.8L32 15.6M12.9,33.85Q11.3 35.1 12.45 33.5L12.7 33.55Q13.1 33.7 12.9 33.85M29.05,24.9L29.65 25.35Q29.75 25.75 29.45 25.85Q27.55 26.25 29.05 24.9M25.2,39Q25.55 39.4 25.15 39.5Q23.25 39.95 24.75 38.8Q25 38.75 25.2 39" />
<path style="fill:#877E71;fill-opacity:1" d="M3.7,9.35Q3.9 9.15 4.2 9.05L4.95 9.7L5.7 9.2Q5.1 9.15 6.05 8.3Q6.35 8.3 6.55 8.6Q7.5 8 8.15 8L8.5 8Q7.85 9 9.1 8.05Q11.1 8.1 11.75 8.6L14.75 11.9L13.8 12.5Q12.55 10.8 10 9.55Q7.7 9.15 4.85 11.5L3.75 11.05L2.4 10.4L3.55 9.4L3.7 9.35M7.35,19.9L6.2 20.6L6.15 20.6L5.25 21.3L4.5 22.05L2.8 18.85L1.4 15.95L1.45 13.15Q1.5 12.45 1.8 12.25L2.45 13.4L2.4 13.6L2.35 13.6L2.25 13.75L2.65 15.45L2.95 16.3L3.25 16Q3.6 16 3.8 16.35Q4 16.85 3.6 16.95L3.3 17.05L3.55 17.4L3.85 17.7Q3.05 18.65 4.4 18.35L4.95 19L5.85 19.85L6.45 20.1L7.35 19.9M26.25,42.95L25.9 43.45L25.2 44.35L23.85 45.75L19.4 45.85L17.2 45.45Q16.6 45.3 16.05 44.2L13.85 40.6Q13.05 39.2 8.75 38.6Q4.4 33.15 2.5 30.35Q2.15 29.55 4.35 24.55L6.2 23.15L6.75 22.8L6.9 22.7L7.05 22.6L7.05 22.75L6.95 23.2L6.95 23.35L6.75 24.35Q6.75 24.8 7.15 25.05L8.05 25.6L7.2 26.25L7.1 26.4L7.05 27.1Q5.1 28.45 7.2 28.1L7.25 29.1L6.9 29.1Q6.95 29.55 6.65 29.6L5.9 29.7L5.85 29.8Q5.85 31.25 7.15 32.35L8.3 33.4Q6.5 34.75 9.05 34.3L9.15 34.3L9.55 34.75Q9.85 34.6 10.35 34.4Q10.95 34.45 11 35.05L11 35.45L11.65 35.95Q12.85 36.8 13.45 36.8Q13.45 38.35 13.75 38.7L14.15 38.5L14.7 38.3L15 38.35L15.15 38.9Q15.9 38.9 16.55 39.5L17 39.95Q15.7 41.3 17.5 40.75L17.6 40.75L17.65 40.8Q17.2 41.9 18.25 42.45L18.5 42.6L19.25 42Q19.7 42 19.9 42.5L19.95 42.9L20.75 42.9L21.1 42.9Q20.15 44 22.1 43.4Q22.6 43.25 22.15 42.8L22.1 42.75L23.05 42L23.5 42.5L25.35 41.5L26.25 41.5L26.25 41.6L26.25 42.6L26.25 42.95M18.9,28.5Q20.45 30.5 22.35 30.7L24.55 30.7Q25.2 32 26.05 32.55Q26.9 33.1 28.1 33.2Q27.85 34.3 27.4 35.05L27.4 35.1L25.7 34.35Q24.5 33.85 22.85 33.5Q21.15 33.1 16.95 36.1Q16.3 32.05 15.5 31.35Q14.7 30.6 13.25 29.75L12.75 29.35L13.35 27.45L13.8 25.6Q13.95 24.5 12.95 23.85L10.75 22.5Q9.6 21.85 8.1 21.45Q8.75 20.2 8.45 19.3L7.45 17.2L5.3 13.25Q5.7 12.2 7.2 11.4Q8.7 10.6 9.3 10.65Q9.9 10.65 11 11.5L12.6 12.95L11 13.2Q10.2 13.5 9.75 14.1L9.8 14.4L9.6 14.85L9.4 14.9L9.35 15.05L9.25 15.9L9.65 16.95L10.05 17.6Q10.95 19 11.05 19.5L11.15 20.8L12 21.05Q12.8 21.25 12.95 21.5L14.8 23.8Q15.45 24.7 15.45 26.3L15.4 27.8Q15.25 28.35 14.55 29.1L15.8 29.95L16.55 30.8Q17.35 31.65 17.55 32.4Q17.65 32.7 18.25 32.7Q18.85 32.7 19.65 32.3L20.3 32.05Q18.9 31.35 17.75 29.7Q16.25 27.55 16.25 25.7Q16.25 24.55 16.65 24L16.85 23.8L17.3 23.2L18.35 23.75Q17.4 26.5 18.9 28.5M29.8,31.5Q29.05 32.05 27.6 31.9Q26.15 31.7 25.4 30.1Q25.65 28.1 24.45 25.9Q23.2 23.7 19.8 22.85Q17.65 22.3 16.6 21.5L15.5 20.45L14.25 18.5L14.15 18.65L14.2 18.4L16.3 20.4Q17.2 21.1 18.25 21.3L19.75 21.55L21.7 22.2Q23.15 22.7 24.8 24.9Q25.7 26.15 26.6 28.5L26.75 28.9L26.85 29.1L27.6 30.1Q28.3 30.75 29.2 30.75L31.3 30.35L30.95 30.6L29.8 31.5M9.3,4L9.25 4L9.25 4.1L9.3 4Q10.25 3.5 10.7 3.5L11.5 3.55Q11.3 3.4 12.05 2.6Q12.5 2.6 12.65 3.05L12.5 3.45L11.9 3.6L12.6 3.7L14.35 3.9L14.65 3.95L15.25 3.2Q15.7 3.2 15.85 3.7L15.7 4.1L15.2 4.2L16.2 4.9L17.45 4.6Q18.3 4.6 18.65 6.1Q18.85 6.95 19.5 7.35Q17.75 7.75 17.2 9.4L14.85 5.85Q14.2 5.2 13.25 5.3L11.15 5.25Q8.05 5.15 4.1 7.45Q4.25 6.9 5.55 5.55Q6.45 4.65 8.8 3.5L9.85 2.95L9.3 4M21.4,10L21.05 9.9Q19.55 11.05 21.4 10.6L21.95 11.25L22 11.25L22.55 10.5Q23.05 10.5 23.15 11.05L23 11.5L22.65 11.6L23.25 11.9L23.7 12.5Q23.9 12.8 24.45 12.9Q25.05 13 25.45 14.15Q25.8 15.15 28.3 16.1Q25.3 15.55 23.45 14.3L21.2 12.85L20.25 12.05Q19.65 11.5 19.15 10.4Q18.55 9.25 19.45 8.85L21.5 8.5L22.5 8.6L22.3 8.7L21.7 9.25Q21.4 9.6 21.4 10M26.8,12.3Q24.65 13 26.15 11.1Q26.7 11.15 26.9 11.75Q27.05 12.2 26.8 12.3M28.85,20.75L28.6 21.2Q27.65 21.55 25.6 20.3Q23.6 19.1 23.5 18.3L23.95 17.55L24.55 16L25.6 16.5L25.55 17.1L25.7 17.6L27.6 18.1Q28.5 18.5 28.65 19.8L29 19.95L28.85 20.75M22.3,17.9L21.8 17.95Q17.15 18.45 14.3 15.05Q13.95 14.6 13.8 13.6L15.5 12.65Q16.6 11.9 17.7 10.35L19 12.15L18.35 12.45L20.05 13.85L20.7 14.4Q19.3 15.35 21.15 15L21.25 15L21.65 15.8Q22.25 16.35 22.45 16.8L22.65 17.45L22.3 17.9M24.75,21.8Q25.2 21.8 25.35 22.3L25.2 22.7Q23 23.3 24.75 21.8M31.15,18.05Q32.05 18.65 32.05 19.1L33 18.75L33.55 18.7L31.95 20.2L30.3 21.05L29.7 21.3L29.9 20.65L30 18.75L29.8 17.05L30.5 16.6Q30.55 17.7 31.15 18.05M8.45,4.3L7.95 4Q6.6 5.2 8.35 4.8Q8.7 4.7 8.45 4.3M15.95,14Q14.45 15.15 16.35 14.7Q16.75 14.6 16.4 14.2L15.95 14M11.05,16.15Q8.95 16.65 10.65 15Q11.2 15 11.3 15.6Q11.35 16.05 11.05 16.15M13.3,18.2Q10.95 18.75 12.75 17.2Q13.25 17.25 13.4 17.8Q13.55 18.15 13.3 18.2M5.3,28.65Q5.1 28.3 4.75 28.3Q2.9 29.85 5.1 29.25Q5.5 29.15 5.3 28.65" />
<path style="fill:#AA9F90;fill-opacity:1" d="M4.2,9.05Q5.25 8.35 6.85 7.55L7.85 7.1L11.1 7.45Q12.55 7.75 13.05 8.2L13.15 8.3Q12.25 9.55 13.55 8.6L14.25 9.15Q15.25 10 15.25 10.6L15.3 11.4L14.75 11.9L11.75 8.6Q11.1 8.1 9.1 8.05Q7.85 9 8.5 8L8.15 8Q7.5 8 6.55 8.6Q6.35 8.3 6.05 8.3Q5.1 9.15 5.7 9.2L4.95 9.7L4.2 9.05M9.5,27.55Q9.5 28.25 9.9 28.9L9.85 28.9Q9.3 29.15 9.05 29.5L12.45 31.7Q11.4 32.8 13.15 32.4L13.35 32.3Q14.05 32.85 14.15 33.4L14.15 33.2L15.15 33.6L15.2 33.85L15.3 34.55L15.45 35.2L15.6 36.3L15.8 37.4Q15.85 37.9 16.05 38.1L16.2 38.2L16.25 38.2L16.7 38L18.15 37.1L20.3 36.75L21.7 36.4L22.85 36.9L23.45 36.6L24.1 36.3L24.9 36.9Q25.3 37.55 26.4 38Q25.55 38.8 26.9 38.9L26.8 40.3L26.6 41.7L26.25 42.6L26.25 41.6L26.25 41.5L25.35 41.5L23.5 42.5L23.05 42L22.1 42.75L22.15 42.8Q22.6 43.25 22.1 43.4Q20.15 44 21.1 42.9L20.75 42.9L19.95 42.9L19.9 42.5Q19.7 42 19.25 42L18.5 42.6L18.25 42.45Q17.2 41.9 17.65 40.8L17.6 40.75L17.5 40.75Q15.7 41.3 17 39.95L16.55 39.5Q15.9 38.9 15.15 38.9L15 38.35L14.7 38.3L14.15 38.5L13.75 38.7Q13.45 38.35 13.45 36.8Q12.85 36.8 11.65 35.95L11 35.45L11 35.05Q10.95 34.45 10.35 34.4Q9.85 34.6 9.55 34.75L9.15 34.3L9.05 34.3Q6.5 34.75 8.3 33.4L7.15 32.35Q5.85 31.25 5.85 29.8L5.9 29.7L6.65 29.6Q6.95 29.55 6.9 29.1L7.25 29.1L7.2 28.1Q5.1 28.45 7.05 27.1L7.1 26.4L7.2 26.25L8.05 25.6L7.15 25.05Q6.75 24.8 6.75 24.35L6.95 23.35L7 23.4L7.35 23.5Q8.8 24 10.05 24.75Q9.15 25.85 10.8 25.4L10.9 25.35L11.15 25.55Q11.8 26.7 10.85 28L9.75 27.45L9.8 27.1Q9.8 26.5 9.25 26.5Q7.75 27.95 9.5 27.55M26.75,28.9L26.6 28.5Q25.7 26.15 24.8 24.9Q23.15 22.7 21.7 22.2L19.75 21.55L18.25 21.3Q17.2 21.1 16.3 20.4L14.2 18.4L14.15 18.65L13.9 19.1L13.75 19.55Q13.6 20.85 15.75 22.25L17.3 23.2L16.85 23.8L16.65 24Q16.25 24.55 16.25 25.7Q16.25 27.55 17.75 29.7Q18.9 31.35 20.3 32.05L19.65 32.3Q18.85 32.7 18.25 32.7Q17.65 32.7 17.55 32.4Q17.35 31.65 16.55 30.8L15.8 29.95L14.55 29.1Q15.25 28.35 15.4 27.8L15.45 26.3Q15.45 24.7 14.8 23.8L12.95 21.5Q12.8 21.25 12 21.05L11.15 20.8L11.05 19.5Q10.95 19 10.05 17.6L9.65 16.95L9.25 15.9L9.35 15.05L9.4 14.9L9.6 14.85L9.8 14.4L9.75 14.1Q10.2 13.5 11 13.2L12.6 12.95L12.85 13.35Q12.55 14.1 13.1 15.3Q13.65 16.45 15.5 17.55Q17.35 18.7 18.75 19.05Q20.15 19.35 22.7 19L24.65 20.8L26.65 22L28.15 22.45L30.3 22.3L30.7 22.15L30.95 23.3L31.3 25.75L30.85 26.45L31.3 26.55L31.3 26.8L31.15 26.95L31.1 27.05L31.25 27.35L31.25 27.6L31.35 27.5Q31.9 27.75 31.65 28.4L31.4 28.6L30.85 28.4L30.55 28.75L30.45 28.85L30.45 28.95L30.45 29.15L30.4 29.4L30.2 29.6L29.5 29.35L29.05 29.45L29.05 29.55Q29 30 28.6 29.95L28.5 29.95L28.4 29.9Q27.65 29.7 28.2 29.4L26.85 29.1L26.75 28.9M9.85,2.95L11.1 2.4Q16.75 2.4 17.65 3.5Q18.25 4.2 20 4.6Q21.2 5.2 21.4 7.2L19.5 7.35Q18.85 6.95 18.65 6.1Q18.3 4.6 17.45 4.6L16.2 4.9L15.2 4.2L15.7 4.1L15.85 3.7Q15.7 3.2 15.25 3.2L14.65 3.95L14.35 3.9L12.6 3.7L11.9 3.6L12.5 3.45L12.65 3.05Q12.5 2.6 12.05 2.6Q11.3 3.4 11.5 3.55L10.7 3.5Q10.25 3.5 9.3 4L9.85 2.95M28.3,16.1Q25.8 15.15 25.45 14.15Q25.05 13 24.45 12.9Q23.9 12.8 23.7 12.5L23.25 11.9L22.65 11.6L23 11.5L23.15 11.05Q23.05 10.5 22.55 10.5L22 11.25L21.95 11.25L21.4 10.6Q19.55 11.05 21.05 9.9L21.4 10Q21.4 9.6 21.7 9.25Q24.9 9.45 26.25 10.25L28.75 11.65Q27.65 13.2 29.2 11.95L29.25 11.95L30.25 12.45L30.35 12.3L30.75 12.45Q31.2 12.9 30.7 13L30.65 13.05L30.55 15.45Q29.35 16.35 28.3 16.1M26.9,11.75Q26.7 11.15 26.15 11.1Q24.65 13 26.8 12.3Q27.05 12.2 26.9 11.75M26.15,16.7L28.95 17.25L29 19.9L29 19.95L28.65 19.8Q28.5 18.5 27.6 18.1L25.7 17.6L25.55 17.1L25.6 16.5L26.15 16.7M19.55,12.65Q21.25 14.15 23.45 15.45L22.9 17L22.65 17.45L22.45 16.8Q22.25 16.35 21.65 15.8L21.25 15L21.15 15Q19.3 15.35 20.7 14.4L20.05 13.85L18.35 12.45L19 12.15L19.55 12.65M25.2,22.7L25.35 22.3Q25.2 21.8 24.75 21.8Q23 23.3 25.2 22.7M32.95,15.8Q31.6 16.85 33.4 16.4L33.45 16.4L33.45 16.5L33.75 17.35L34 18.3L33.55 18.7L33 18.75L32.05 19.1Q32.05 18.65 31.15 18.05Q30.55 17.7 30.5 16.6L31.45 16L32 15.6L32.95 15.8M8.35,4.8Q6.6 5.2 7.95 4L8.45 4.3Q8.7 4.7 8.35 4.8M5.85,19.85L4.95 19L4.4 18.35Q3.05 18.65 3.85 17.7L3.55 17.4L3.3 17.05L3.6 16.95Q4 16.85 3.8 16.35Q3.6 16 3.25 16L2.95 16.3L2.65 15.45L2.25 13.75L2.35 13.6L2.4 13.6Q3.55 14.35 4.05 15.6L4.6 16.5L6.05 18.95L5.85 19.85M16.4,14.2Q16.75 14.6 16.35 14.7Q14.45 15.15 15.95 14L16.4 14.2M11.3,15.6Q11.2 15 10.65 15Q8.95 16.65 11.05 16.15Q11.35 16.05 11.3 15.6M13.4,17.8Q13.25 17.25 12.75 17.2Q10.95 18.75 13.3 18.2Q13.55 18.15 13.4 17.8M12.7,33.55L12.45 33.5Q11.3 35.1 12.9 33.85Q13.1 33.7 12.7 33.55M10.35,31.5Q10.2 31 9.75 31Q8.35 32.45 10.2 31.9L10.35 31.5M5.1,29.25Q2.9 29.85 4.75 28.3Q5.1 28.3 5.3 28.65Q5.5 29.15 5.1 29.25M18.25,39.1L18.25 39.15Q16.55 40.4 18.75 39.85Q19.15 39.8 18.8 39.35L18.25 39.1M29.45,25.85Q29.75 25.75 29.65 25.35L29.05 24.9Q27.55 26.25 29.45 25.85M24.75,38.8Q23.25 39.95 25.15 39.5Q25.55 39.4 25.2 39Q25 38.75 24.75 38.8M22.25,39.05Q22.1 38.6 21.65 38.6Q20.15 39.95 22.05 39.55Q22.35 39.45 22.25 39.05" />
<path style="fill:#464137;fill-opacity:1" d="M26.95,41.85L28.35 42.35Q26.55 45.1 24.55 46.95Q20.7 47.75 16.2 46.55Q15 45.6 12.85 41.3Q11.85 40.55 8.45 39.85Q7.35 39.05 4.95 35.8L1.7 31.7Q0.9 30.8 0.95 30Q1 29.2 1.6 27.5Q2.15 25.8 3.45 23L1.1 18.7L0 16.15Q-0.1 15.75 0.25 13.5Q0.6 11.25 1.6 9L3.8 5.45L3.65 7.5L3.7 9.35L3.55 9.4L2.4 10.4L3.75 11.05L4.05 14L3.7 12.75Q2.75 12.25 2.15 12.2L1.8 12.25Q1.5 12.45 1.45 13.15L1.4 15.95L2.8 18.85L4.5 22.05L5.25 21.3L6.15 20.6L6.85 22.4L6.9 22.7L6.75 22.8L6.2 23.15L4.35 24.55Q2.15 29.55 2.5 30.35Q4.4 33.15 8.75 38.6Q13.05 39.2 13.85 40.6L16.05 44.2Q16.6 45.3 17.2 45.45L19.4 45.85L23.85 45.75L25.2 44.35L25.9 43.45L26.25 42.95L26.5 42.55L26.95 41.85M17.3,23.2L15.75 22.25Q13.6 20.85 13.75 19.55L13.9 19.1L14.15 18.65L14.25 18.5L15.5 20.45L16.6 21.5Q17.65 22.3 19.8 22.85Q23.2 23.7 24.45 25.9Q25.65 28.1 25.4 30.1Q26.15 31.7 27.6 31.9Q29.05 32.05 29.8 31.5L30.95 30.6L32.35 31.3L31 32.35L29.3 33.15L28.55 35.85L27.4 35.05Q27.85 34.3 28.1 33.2Q26.9 33.1 26.05 32.55Q25.2 32 24.55 30.7L24.2 29.6L24.1 29.3L24.05 28.35L23.95 27.85L23.65 27.15Q23.05 25.9 22 25.15L20.4 24.25L20.3 24.2L19.9 24.2L18.35 23.7L18.35 23.75L17.3 23.2" />
<path style="fill:#A14C27;fill-opacity:1" d="M20.8,26.65Q19.4 25.4 19.4 25.15L19.65 24.35L19.9 24.2L20.3 24.2L20.4 24.25L22 25.15Q23.05 25.9 23.65 27.15L23.95 27.85Q22.2 27.85 20.8 26.65" />
<path style="fill:#988D7D;fill-opacity:1" d="M9.3,4L9.25 4.1L9.25 4L9.3 4" />
<path style="fill:#742108;fill-opacity:1" d="M18.35,23.75L18.35 23.7L19.9 24.2L19.65 24.35L19.4 25.15L19.35 25.75Q19.25 26.95 20.6 28.15Q21.95 29.3 24.05 29.4L24.1 29.3L24.2 29.6L24.55 30.7L22.35 30.7Q20.45 30.5 18.9 28.5Q17.4 26.5 18.35 23.75" />
<path style="fill:#95321F;fill-opacity:1" d="M24.05,29.4Q21.95 29.3 20.6 28.15Q19.25 26.95 19.35 25.75L19.4 25.15Q19.4 25.4 20.8 26.65Q22.2 27.85 23.95 27.85L24.05 28.35L24.1 29.3L24.05 29.4" />
<path style="fill:#776E61;fill-opacity:1" d="M10.2,31.9Q8.35 32.45 9.75 31Q10.2 31 10.35 31.5L10.2 31.9M18.8,39.35Q19.15 39.8 18.75 39.85Q16.55 40.4 18.25 39.15L18.25 39.1L18.8 39.35M22.05,39.55Q20.15 39.95 21.65 38.6Q22.1 38.6 22.25 39.05Q22.35 39.45 22.05 39.55" />
<path style="fill:#FFFFFF;fill-opacity:1" d="M21.35,25.55L21.55 26L21.35 26.45L20.9 26.65L20.45 26.45L20.25 26L20.45 25.55L20.9 25.35L21.35 25.55" />
</g>
</svg>
