<?xml version="1.0" encoding="utf-8"?>
<svg version="1.1" id="Layer_1"
xmlns="http://www.w3.org/2000/svg"
xmlns:xlink="http://www.w3.org/1999/xlink"
xmlns:author="http://www.sothink.com"
width="16px" height="18px"
xml:space="preserve">
<g id="1691" transform="matrix(1, 0, 0, 1, 0.15, 4.6)">
<path style="fill:#969BA1;fill-opacity:1" d="M1.15,9.9Q0.7 9.1 0.75 7.4Q0.75 5.75 1.8 4.1L4.05 0.9L6.65 -2.1L7.35 -2.85L7.35 -2.8L7.4 -2.85L7.4 -2.9L7.55 -3L7.6 -3.05L7.85 -3.35L8.15 -3.6L8.2 -3.65L8.2 -3.55L8.2 -3.5L7.9 -3.25L8.05 -2.5L7.8 -0.5Q4.85 2.25 3.95 4.1Q3.3 5.7 3.1 7.35L2.55 6.55L2.15 7.35Q1.4 8.7 1.5 10.15L1.15 9.9M7.5,-2.9L7.55 -2.95L7.6 -3L7.5 -2.9M7.4,-2.85L7.45 -2.85L7.5 -2.95L7.4 -2.85" />
<path style="fill:#61666C;fill-opacity:1" d="M9.55,0.5L9.55 0.6L9.75 0.85L10 1.2L12.05 3.7L12 3.75L11.8 3.9Q10.1 5.25 9.2 6.1L8.6 6.9L6.95 8.7Q5.9 10.25 3.95 10.55Q2.6 10.75 1.5 10.15Q1.4 8.7 2.15 7.35L2.55 6.55L3.1 7.35Q3.3 5.7 3.95 4.1Q4.85 2.25 7.8 -0.5L8.45 -1.3L9.55 0.5" />
<path style="fill:#2D343C;fill-opacity:1" d="M9.75,0.8L9.75 0.85L9.55 0.6L9.55 0.5L8.45 -1.3L8.4 -1.5L8.05 -2.5L7.9 -3.25L8.2 -3.5L8.2 -3.55L8.5 -3.8L10.15 -0.05L9.75 0.75L10 1.2L9.75 0.8M1.5,10.15Q2.6 10.75 3.95 10.55Q5.9 10.25 6.95 8.7L8.6 6.9L9.2 6.1Q10.1 5.25 11.8 3.9L12 3.75L12.05 3.7L12.35 3.45L12.1 3.8Q11.55 4.5 11.65 4.65L11.55 4.6Q11.65 5.55 12.35 6.15L10.5 7.75Q9.2 8.9 7.6 10.8Q6 12.75 3.25 11.5Q2.15 11.05 1.55 10.4L1.15 9.9L1.5 10.15" />
<path style="fill:#1C202A;fill-opacity:1" d="M8.15,-3.6L7.85 -3.35L7.6 -3.05L7.55 -3L7.4 -2.9L7.35 -2.85L6.65 -2.1L4.05 0.9L1.8 4.1Q0.75 5.75 0.75 7.4Q0.7 9.1 1.15 9.9L1.55 10.4Q2.15 11.05 3.25 11.5Q6 12.75 7.6 10.8Q9.2 8.9 10.5 7.75L12.35 6.15Q11.65 5.55 11.55 4.6L11.65 4.65Q12.3 4.75 13 5.5Q13.7 6.15 14.6 6.4Q15.95 6.75 14.65 6.9L13.1 6.65L13 6.6L10 9.4L7.9 11.7Q6.8 12.9 5.15 12.9Q3.5 12.9 1.95 11.95Q0.45 11 0.1 9.7L-0.15 7.15Q-0.1 5.9 1.2 3.4Q2.45 0.85 4.65 -1.55Q6.6 -3.8 7.7 -4.5L7.85 -4.6L8.35 -4.05L8.1 -4L8.2 -3.65L8.15 -3.6" />
</g>
</svg>
