<?xml version="1.0" encoding="utf-8"?>
<svg version="1.1" id="Layer_1"
xmlns="http://www.w3.org/2000/svg"
xmlns:xlink="http://www.w3.org/1999/xlink"
xmlns:author="http://www.sothink.com"
width="82px" height="80px"
xml:space="preserve">
<g id="233" transform="matrix(1, 0, 0, 1, 0.1, -3.6)">
<path style="fill:#352109;fill-opacity:1" d="M36.45,51.1L42.6 45.2L42.7 45.3L45.6 42Q45.1 38.65 45.7 36.5Q46.2 34.25 47.95 31.7Q50.75 28.1 54.9 27.55Q59.15 26.85 64.4 30.5Q69.6 34.05 66.75 41.6Q65.4 43.05 63.9 43.6L61.65 44.15Q61.4 44.2 61.3 43.2L61.8 42.35Q66.05 37.95 63.8 34.9Q61.8 32.15 59.1 31L59 30.95Q57.65 30.25 56.3 30.45Q54.1 30.6 52.45 31.7Q50.85 32.8 49.7 34.5Q48.45 36.05 48.4 38.85Q49.65 47.45 59.9 47.95L63.9 47.75L67.6 46.4Q69.8 45.35 74.25 40.5Q78.7 35.45 77.8 24.05Q76.85 12.4 60.75 8.6Q57 7.65 53.75 8Q44.15 8.35 38.9 17.75L38.2 19.1Q35.7 24.15 35.9 29.2Q36 31.65 36.55 36.15L34.35 39.05L31.15 42.85L22.6 53.15Q13.8 63.9 4.25 76.35Q2.15 78.75 6.65 80L22.4 64.9L29.9 57.5L36.45 51.1M76.7,13.45Q80.95 18.45 81.65 26.7Q82.15 34.75 78.9 40.05Q75.55 45.1 72.05 47.95Q68.65 50.75 63.85 51.9L55.1 51.5Q51.05 49.9 48.1 46.55L47.4 45.45L44.3 48.6L44.15 48.25L43.1 49.4L36.4 55.8L32.8 59.2L32.5 59.5Q23.6 67.65 10.9 81.05Q8.3 83.75 5.5 82.85Q2.6 81.85 0.9 80.1Q-0.85 78.25 0.4 75.75Q9.7 63.55 19.8 51.5L28.4 41.2L31.65 37.5L33.55 35.05Q31.85 30.8 32.1 26.95Q32.3 21.95 35.3 17Q38.2 12.05 41.7 8.7Q45.1 5.05 51.2 3.95Q57.35 2.8 64.85 5.65Q72.4 8.55 76.7 13.45M37.25,35.75L37.5 36.25L37.15 35.9L37.25 35.75" />
<path style="fill:#93663B;fill-opacity:1" d="M66.55,18.45Q66.8 17.2 66.15 16.8Q65.4 16.35 64.3 16.05Q63.2 15.75 62.35 17.15Q64.35 20.3 66.4 18.7L66.55 18.45M71,17.15Q68.45 17.2 68.7 19.75Q68.8 22 72.45 25.7Q74.25 27.5 75.2 26.8Q76.1 26.05 75.45 23.1Q74.2 17.15 71 17.15M52.85,41.05L52.8 40.3Q51.5 40.4 50.65 38.6Q51.05 37.1 52.35 36.75L52.85 36.7Q52.85 36.25 53 36Q53.35 33.65 55.1 32.15Q56.45 31 58.15 30.95L58.15 30.7L58.35 30.7L59 30.95L59.1 31Q61.8 32.15 63.8 34.9Q66.05 37.95 61.8 42.35L61.3 43.2Q61.4 44.2 61.65 44.15L63.9 43.6Q65.4 43.05 66.75 41.6Q68.8 40.3 70.2 38.1Q71.25 36.35 71.65 34.6L71.3 34.4L70.2 33.75Q70.4 32.45 70.95 31.5Q71.15 30.95 71.7 31.1L70.95 28.9Q67.95 24.75 64.25 23.4Q61.55 22.05 59.2 21.7L58.55 22.55L58.3 22.7Q56.65 23 56 21.35L56.1 21.2Q51.4 21.35 49.05 25.55L48.45 26.9Q47.3 29.9 47.95 31.7Q46.2 34.25 45.7 36.5Q45.1 38.65 45.6 42L42.7 45.3L42.6 45.2L36.45 51.1L35.5 49Q34.55 49.8 33 50.2L32.7 50.1Q32.85 47.7 34.95 46.35Q34.85 45.7 34.9 45.05Q35 44.1 35.35 43.3L42.05 32.55Q42 26.9 43.3 22.1L43.75 20.5Q42.55 20.4 42.4 18.75Q43.35 17.2 45 17.35L46.1 15.25Q49.05 10 53.75 8Q57 7.65 60.75 8.6Q76.85 12.4 77.8 24.05Q78.7 35.45 74.25 40.5Q69.8 45.35 67.6 46.4L63.9 47.75L59.9 47.95Q53.4 43.9 52.85 41.05M57.25,35.5Q54.6 38.9 59.25 40.7L59.4 40.45Q61.7 37.7 57.55 35.5L57.25 35.5M43.45,38.85Q40.55 39.7 41.25 42.6L41.5 42.6Q44.8 41.2 43.45 38.85M55.1,41.3L55.15 41.45Q58.55 44.1 56.75 40.65L55.9 40.65Q55.25 40.7 55.1 41.3M74.4,33.25L74.95 33.2Q77.15 32.4 76.4 30.4Q73.65 30.75 74.4 33.25M61.7,26.35L61.75 26.05L61.85 25.9Q62.5 25 63.35 25.5L63.4 25.45Q65.65 25.95 65.1 27.55L65 27.75Q63 29.35 61.7 26.35M39.7,25.75Q40.6 27.75 39.15 28.8L39.1 28.9Q36.45 27.2 39.3 25.8L39.7 25.75M26.25,54.65L26.6 54.65L26.95 55.75Q27.1 57.2 25.1 57.6L24.85 57.6Q24.15 55.75 25.6 54.95L26.25 54.65M18.7,63.75Q19.85 66.45 16.55 65.25L16.05 65Q16.1 63.05 18.7 63.75" />
<path style="fill:#C69566;fill-opacity:1" d="M75.45,23.1Q76.1 26.05 75.2 26.8Q74.25 27.5 72.45 25.7Q68.8 22 68.7 19.75Q68.45 17.2 71 17.15Q74.2 17.15 75.45 23.1M57.55,35.5Q61.7 37.7 59.4 40.45L59.25 40.7Q54.6 38.9 57.25 35.5L57.55 35.5" />
<path style="fill:#5D391E;fill-opacity:1" d="M66.4,18.7Q64.35 20.3 62.35 17.15Q63.2 15.75 64.3 16.05Q65.4 16.35 66.15 16.8Q66.8 17.2 66.55 18.45L66.4 18.7M29.9,57.5L22.4 64.9L6.65 80Q2.15 78.75 4.25 76.35Q13.8 63.9 22.6 53.15L31.15 42.85L34.35 39.05L36.55 36.15Q36 31.65 35.9 29.2Q35.7 24.15 38.2 19.1L38.9 17.75Q44.15 8.35 53.75 8Q49.05 10 46.1 15.25L45 17.35Q43.35 17.2 42.4 18.75Q42.55 20.4 43.75 20.5L43.3 22.1Q42 26.9 42.05 32.55L35.35 43.3Q35 44.1 34.9 45.05Q34.85 45.7 34.95 46.35Q32.85 47.7 32.7 50.1L33 50.2Q34.55 49.8 35.5 49L36.45 51.1L29.9 57.5M64.4,30.5Q59.15 26.85 54.9 27.55Q50.75 28.1 47.95 31.7Q47.3 29.9 48.45 26.9L49.05 25.55Q51.4 21.35 56.1 21.2L56 21.35Q56.65 23 58.3 22.7L58.55 22.55L59.2 21.7Q61.55 22.05 64.25 23.4Q67.95 24.75 70.95 28.9L71.7 31.1Q71.15 30.95 70.95 31.5Q70.4 32.45 70.2 33.75L71.3 34.4L71.65 34.6Q71.25 36.35 70.2 38.1Q68.8 40.3 66.75 41.6Q69.6 34.05 64.4 30.5M59,30.95L58.35 30.7L58.15 30.7L58.15 30.95Q56.45 31 55.1 32.15Q53.35 33.65 53 36Q52.85 36.25 52.85 36.7L52.35 36.75Q51.05 37.1 50.65 38.6Q51.5 40.4 52.8 40.3L52.85 41.05Q53.4 43.9 59.9 47.95Q49.65 47.45 48.4 38.85Q48.45 36.05 49.7 34.5Q50.85 32.8 52.45 31.7Q54.1 30.6 56.3 30.45Q57.65 30.25 59 30.95M41.5,42.6L41.25 42.6Q40.55 39.7 43.45 38.85Q44.8 41.2 41.5 42.6M55.9,40.65L56.75 40.65Q58.55 44.1 55.15 41.45L55.1 41.3Q55.25 40.7 55.9 40.65M76.4,30.4Q77.15 32.4 74.95 33.2L74.4 33.25Q73.65 30.75 76.4 30.4M65,27.75L65.1 27.55Q65.65 25.95 63.4 25.45L63.35 25.5Q62.5 25 61.85 25.9L61.75 26.05L61.7 26.35Q63 29.35 65 27.75M39.3,25.8Q36.45 27.2 39.1 28.9L39.15 28.8Q40.6 27.75 39.7 25.75L39.3 25.8M37.15,35.9L37.5 36.25L37.25 35.75L37.15 35.9M25.6,54.95Q24.15 55.75 24.85 57.6L25.1 57.6Q27.1 57.2 26.95 55.75L26.6 54.65L26.25 54.65L25.6 54.95M16.05,65L16.55 65.25Q19.85 66.45 18.7 63.75Q16.1 63.05 16.05 65" />
</g>
</svg>
