<?xml version="1.0" encoding="utf-8"?>
<svg version="1.1" id="Layer_1"
xmlns="http://www.w3.org/2000/svg"
xmlns:xlink="http://www.w3.org/1999/xlink"
xmlns:author="http://www.sothink.com"
width="26px" height="37px"
xml:space="preserve">
<g id="1217" transform="matrix(1, 0, 0, 1, 0, -0.05)">
<path style="fill:#040404;fill-opacity:1" d="M8.05,5.05L8 5L8.2 4.9L9 4.2L9.85 5.45L11.8 8.25L11.9 8.4Q12.65 9.55 12.35 9.85L11.65 10.15Q11.2 10.1 10.25 8.4L8.9 6.25L8.05 5.05M5.6,12.1L6.4 13.4Q6.75 14.2 6.35 14.4Q5.75 14.65 4.65 13.2L4.5 13L2.8 10.35L1.9 8.65L3.15 8.25L5.6 12.1" />
<path style="fill:#5F2204;fill-opacity:1" d="M4.45,7.5L3.15 8.25L1.9 8.65L0.65 8.55Q0.15 8.2 0 7.3Q-0.1 6.7 0.35 5.7Q0.9 4.55 1.95 3.45L2 3.35Q4.85 0.4 7.55 0.05Q9.7 -0.05 10.15 1.05L10.3 2.25L9.95 3.05L9 4.2L8.2 4.9L8 5L8.05 5.05L4.45 7.5M1.8,6.85Q2.5 7.2 3.25 6.85L5.7 5.35L7.7 3.8L8.4 3.05Q9.35 1.95 8.8 1.4Q8.2 0.8 6.15 1.7Q4.05 2.6 2.55 4.55L2.2 5.05Q1.15 6.55 1.8 6.85" />
<path style="fill:#353535;fill-opacity:1" d="M6.4,13.4L5.6 12.1L3.15 8.25L4.45 7.5L8.05 5.05L8.9 6.25Q7.65 7.2 6.4 7.8L6.5 7.9Q7.55 8.6 9.15 11.55L9.65 12.55L9.5 12.6Q7.95 13.4 6.55 13.4L6.4 13.4" />
<path style="fill:#A66221;fill-opacity:1" d="M7.7,3.8L5.7 5.35L3.25 6.85Q2.5 7.2 1.8 6.85Q1.15 6.55 2.2 5.05Q2.5 5.5 3.2 5.5Q4.75 5.5 7.7 3.8" />
<path style="fill:#5F5F5F;fill-opacity:1" d="M9.65,12.55L9.15 11.55Q7.55 8.6 6.5 7.9L6.4 7.8Q7.65 7.2 8.9 6.25L10.25 8.4Q11.2 10.1 11.65 10.15Q11.3 11.6 9.65 12.55" />
<path style="fill:#BF7A24;fill-opacity:1" d="M3.2,5.5Q2.5 5.5 2.2 5.05L2.55 4.55Q4.05 2.6 6.15 1.7Q8.2 0.8 8.8 1.4Q9.35 1.95 8.4 3.05L7.7 3.8Q4.75 5.5 3.2 5.5" />
<path style="fill:#3C2A22;fill-opacity:1" d="M8.25,15.55L11.05 21.5L14.2 28.55L15.15 30.95L15.25 31L17.1 31.75L18.6 32.35L24.15 34.65L24.15 32.25L24.15 29.4L24.1 25.1L24.1 24.85L19.3 20L17.5 18.05L13 12.85L11.9 11.5Q11.2 10.25 13.5 11.05Q16.05 14.5 19.9 18.5L25.8 24.2L25.7 29.6L25.7 31.25L25.55 33.65L25.35 36.2L23.9 36.05L20.45 34.7L19.85 34.55L18.9 34.15Q16.6 33.3 13.8 32.05Q10.15 21.8 6.55 15.6Q6.75 13.35 7.4 14.15L8.25 15.55" />
<path style="fill:#D4C5BD;fill-opacity:1" d="M22.85,32.7L22.8 33.4L15.4 30.75L16.7 28.65L21.85 31.15L22.85 32.7" />
<path style="fill:#E9DBD0;fill-opacity:1" d="M22.85,32.7L21.85 31.15L21.55 25.65L23.2 25.35L23.35 25.3L22.85 32.7" />
<path style="fill:#FFFFFF;fill-opacity:1" d="M23.35,25.3L23.2 25.35L17.5 18.05L19.3 20L24.1 24.85L24.1 25.1L24.15 29.4L24.15 32.25L24.15 34.65L18.6 32.35L17.1 31.75L15.25 31L15.4 30.75L22.8 33.4L22.85 32.7L23.35 25.3" />
<path style="fill:#792E0A;fill-opacity:1" d="M21.85,31.15L16.7 28.65L13.15 21.25L8.45 12.8L9.15 12.25Q9.5 12 9.25 11.15L16.6 19.95L21.55 25.65L21.85 31.15M20.35,25.8L10.45 14.1L17.4 27.45L20.7 29.4Q20.5 29.2 20.35 25.8" />
<path style="fill:#D48D01;fill-opacity:1" d="M19.9,28L19.45 26L13.3 18.3L17.7 26.9L19.9 28M20.7,29.4L17.4 27.45L10.45 14.1L20.35 25.8Q20.5 29.2 20.7 29.4" />
<path style="fill:#FED009;fill-opacity:1" d="M19.1,26.95L19 26.05L15.6 21.8L18.2 26.4L19.1 26.95M17.7,26.9L13.3 18.3L19.45 26L19.9 28L17.7 26.9" />
<path style="fill:#FFFDBB;fill-opacity:1" d="M18.2,26.4L15.6 21.8L19 26.05L19.1 26.95L18.2 26.4" />
<linearGradient
id="LinearGradID_1525" gradientUnits="userSpaceOnUse" gradientTransform="matrix(-0.00888062, -0.0119629, 0.00177002, -0.00131226, 20.65, 23.4)" spreadMethod ="pad" x1="-819.2" y1="0" x2="819.2" y2="0" >
<stop  offset="0.00392157" style="stop-color:#917162;stop-opacity:1" />
<stop  offset="1" style="stop-color:#C2AEA0;stop-opacity:1" />
</linearGradient>
<path style="fill:url(#LinearGradID_1525) " d="M23.2,25.35L21.55 25.65L16.6 19.95L9.25 11.15L11.7 11.45L11.9 11.5L13 12.85L17.5 18.05L23.2 25.35" />
<linearGradient
id="LinearGradID_1526" gradientUnits="userSpaceOnUse" gradientTransform="matrix(-0.0065918, -0.0137634, 0.00131226, -0.00062561, 15.25, 28.45)" spreadMethod ="pad" x1="-819.2" y1="0" x2="819.2" y2="0" >
<stop  offset="0.00392157" style="stop-color:#917162;stop-opacity:1" />
<stop  offset="1" style="stop-color:#C2AEA0;stop-opacity:1" />
</linearGradient>
<path style="fill:url(#LinearGradID_1526) " d="M15.25,31L15.15 30.95L14.2 28.55L11.05 21.5L8.25 15.55L7.4 14.15L8 13.5L8.45 12.8L13.15 21.25L16.7 28.65L15.4 30.75L15.25 31" />
<path style="fill:#5F1000;fill-opacity:1" d="M12.4,7.8L13.35 8.75L14.35 10.05L15.2 11.05L13.9 12.2L13.15 12.85L12.9 12.95L12.15 13.55L10.85 14.45L10.75 14.45L10.6 14.55L9.25 15.55L8.6 16L8.45 16.1L7.7 16.7L6.2 17.55L5 16.1L4.6 15.5Q3.6 14 3.9 13.75L5.4 12.45L5.65 12.25L6.6 11.35L7.45 10.75L9.45 9.3L10.9 8.4L12.05 7.6L12.4 7.8M6.55,16.2L7.4 15.6L8.15 15.05L8.5 14.85L8.95 14.5L10 13.8L10.15 13.7L10.2 13.6L11.2 12.95L11.75 12.55L11.9 12.45L13.7 11.1L13.3 10.4L13.2 10.3L12.65 9.7L12.05 9L8.95 11.2L6.7 12.9L5.15 14.1L5.4 14.65L6.3 15.9L6.55 16.2" />
<path style="fill:#931A26;fill-opacity:1" d="M13.2,10.3L13.3 10.4L11.85 11.55L11.75 11.55L11.6 11.5L11.5 11.5L11.45 11.5L11.3 11.6L11.25 11.7L11.15 11.8L11.15 12L11.15 12.05L10.95 12.25L10.7 12.45L10.55 12.5L10.4 12.55Q10.2 12.5 10 12.8L10 12.7L9.95 12.65L9.95 12.6L9.85 12.5L9.75 12.45L9.65 12.4L9.6 12.35L9.5 12.35L9.3 12.5L9 13.2Q8.95 13.45 9.15 13.5L9.2 13.55L8.8 13.9L8.7 13.95L8.45 14.15L7.2 15.1L6.3 15.9L5.4 14.65L6.5 13.7L12.45 9.6L12.65 9.7L13.2 10.3M7.7,13.75L7.55 13.75L7.5 13.7L7.35 13.75L7.25 14L7.2 14.15L7.4 14.35L7.6 14.45L7.8 14.45L7.85 14.4L7.95 14.3L8 14.15L8 14L7.95 13.9L7.95 13.8L7.85 13.75L7.7 13.75" />
<path style="fill:#791A1A;fill-opacity:1" d="M5.15,14.1L6.7 12.9L8.95 11.2L12.05 9L12.65 9.7L12.45 9.6L6.5 13.7L5.4 14.65L5.15 14.1" />
<path style="fill:#C23940;fill-opacity:1" d="M6.3,15.9L7.2 15.1L8.45 14.15L8.7 13.95L8.8 13.9L9.2 13.55L9.15 13.5Q8.95 13.45 9 13.2L9.3 12.5L9.5 12.35L9.6 12.35L9.65 12.4L9.75 12.45L9.85 12.5L9.95 12.6L9.95 12.65L10 12.7L10 12.8Q10.2 12.5 10.4 12.55L10.55 12.5L10.7 12.45L10.95 12.25L11.15 12.05L11.15 12L11.15 11.8L11.25 11.7L11.3 11.6L11.45 11.5L11.5 11.5L11.6 11.5L11.75 11.55L11.85 11.55L13.3 10.4L13.7 11.1L11.9 12.45L11.75 12.55L11.2 12.95L10.2 13.6L10.15 13.7L10 13.8L8.95 14.5L8.5 14.85L8.15 15.05L7.4 15.6L6.55 16.2L6.3 15.9M7.85,13.75L7.95 13.8L7.95 13.9L8 14L8 14.15L7.95 14.3L7.85 14.4L7.8 14.45L7.6 14.45L7.4 14.35L7.2 14.15L7.25 14L7.35 13.75L7.5 13.7L7.55 13.75L7.7 13.75L7.85 13.75" />
</g>
</svg>
