<?xml version="1.0" encoding="utf-8"?>
<svg version="1.1" id="Layer_1"
xmlns="http://www.w3.org/2000/svg"
xmlns:xlink="http://www.w3.org/1999/xlink"
xmlns:author="http://www.sothink.com"
width="938px" height="1213px"
xml:space="preserve">
<g id="2993" transform="matrix(1, 0, 0, 1, 94.25, 946.1)">
<path style="fill:#FFFFFF;fill-opacity:1" d="M721.85,-380.65Q714.5 -321.75 697.5 -218.3Q680.5 -114.85 669.45 -81.55L670.2 -82.7Q683.05 -102.55 693.1 -122.55Q704.75 -153.55 702.2 -140.6Q699.6 -127.65 694.75 -90.55Q689.9 -53.45 684.85 -3.45L685.75 -4.3Q689.8 -7.75 693.2 -12.05Q713.1 -37.05 733.55 -61.55L740.6 -69.45Q742.45 -71.3 743.9 -73.45L743.5 -70.95Q742.75 -65.6 741.35 -60.35Q730.95 -21.15 718.85 17.55Q716.45 25.15 714.65 32.85Q725.65 28.45 734.35 18.9Q738.75 14.05 744.4 12.1Q747.5 12.4 746.8 17.35Q746.05 22.45 745.7 27.65Q744 52.95 737.05 77.5Q730.45 100.85 726.8 124.6Q734.35 124.75 741.3 121.4Q759.4 112.65 775.65 101.6Q779.1 99.3 782.8 97.65Q784.9 96.7 787.25 97.3Q788.25 97.55 789.05 98.4Q786.25 112.5 776.8 125.05Q774.15 128.65 772.15 132.8L769.8 138.3Q769.2 139.85 769.2 141.6Q802.5 120.35 840.25 106.55L842.8 106.55Q838.15 110.05 829.2 118.5Q811.35 135.15 792 151.1Q777.7 162.8 748 200Q737.9 208.05 725.65 215.15Q661.65 252.1 538.1 262.55Q484.6 267.1 419.7 266.35L381.35 265.65Q366.25 265.3 364.95 265.8Q160.25 270.1 48.65 238.15Q15.2 228.55 -5.85 216.7Q-16.05 203.05 -24.4 188Q-40.6 158.85 -53.35 128Q-56.6 120.2 -57.85 112.25L-18.2 113.45L-1.55 115.1L34.75 119.7Q33.25 111.7 32.3 108.55L27.35 91.8Q23.15 77.3 20.85 62.3Q16.2 31.7 8.85 1.6Q1.2 -30.05 -4.25 -62.25Q-7.05 -79.2 -6.65 -96.65L-6.6 -101.85Q11.45 -99.15 26.9 -86.75Q35.2 -80.1 41.6 -76.3L43.05 -75.5L43.05 -127.75Q43.05 -157.1 44.3 -186.4Q44.7 -195.9 48.15 -224.25Q51.55 -252.65 57.1 -249.4Q62.65 -246.2 67.6 -241.75Q72.55 -237.3 78.15 -229.9Q81.35 -225.65 86.05 -229.6Q87.25 -226.7 86.8 -233.1Q86.05 -243.4 86.4 -253.75Q87 -272.75 87 -291.75Q87 -317.85 89.8 -343.5Q91 -354.65 91.65 -365.95L91.85 -367.5L94.3 -365.55Q103.1 -358.5 112.25 -351.85L115.8 -348.75Q123.2 -352.35 122.1 -362.7Q121.6 -367.75 122.9 -372.8Q125.7 -383.35 131.75 -391.1Q132.35 -391.9 133.85 -391.45Q141.3 -389.2 147.2 -383.3L148.85 -381.55Q151.85 -385.45 151.35 -393.7Q150.55 -407.45 150.05 -421.25Q149.7 -431.6 148.95 -442Q145 -497 145.45 -552.3Q166.25 -531.4 168.5 -528.15L193.45 -492L196.5 -486.75L196.85 -485.15Q199.95 -485.45 199.25 -490.45Q198.5 -495.5 198.6 -500.7Q198.85 -512.85 200.7 -524.75Q201 -526.55 201.8 -528.3Q206.9 -528.5 208.9 -523.35Q210.05 -520.5 211.75 -517.95Q214.75 -521 214.1 -528.35Q213.4 -536.95 213.4 -545.6Q213.4 -608.6 213.55 -671.6Q213.6 -680.3 214.7 -688.9L214.75 -689.1L216.8 -686.75Q227.15 -674.95 237.9 -661.05Q244.2 -652.95 250.3 -650.5Q251.45 -650 252.4 -651.4Q253.9 -653.45 255.1 -655.85Q256.5 -658.65 259.6 -657.5Q265.15 -655.4 266.3 -650.9Q271 -650.65 273.4 -655.85Q287.25 -686.2 297.1 -718.4Q299.4 -725.95 301.5 -733.65L309.3 -763.1Q312.7 -761.95 313.6 -756.35Q314.3 -751.85 315.7 -747.45Q328.45 -707.45 329.95 -664.75Q330.65 -644.75 333.25 -624.9L334.5 -615Q352.2 -643.3 359.55 -671.55Q367.6 -702.8 374.3 -731.95Q379.3 -753.55 383.45 -775.25L383.75 -778.65Q388.5 -776.55 388.1 -769.95Q387.9 -766.55 388 -763.05Q388.75 -741.7 396.15 -721.4Q399.5 -712.2 401.45 -702.6Q408.55 -667.45 412.6 -631.8Q413.5 -623.75 414 -615.65Q434.95 -655.95 442.7 -678.7Q452 -706 460.55 -733.55Q466.8 -753.6 473.9 -773.15Q476.15 -779.4 481.35 -783.85Q486.15 -780.3 485.5 -771.7Q484.65 -760.5 484.1 -749.3Q483.15 -728.55 480.7 -707.75Q478.9 -692.3 478.7 -676.8Q478.1 -624.8 478.05 -572.8Q486.25 -587.95 498.2 -600.5Q505.6 -608.3 508.85 -598.85Q510.3 -594.75 511.1 -590.45Q513.9 -575.6 518.7 -561.4Q519.4 -559.35 521.35 -558.15Q528.85 -553.35 532.65 -560.65L537.85 -571Q539.25 -574 540.9 -574.9Q546.3 -568.85 548.45 -557.85Q549.15 -554.15 550.65 -550.65Q560 -529 572.85 -509.65L577 -503.85Q580.7 -499 585.7 -497.8L590.45 -497.5Q597.9 -498.3 599.25 -490.35Q604.9 -456.65 607.8 -422.5Q613.25 -419.5 616.55 -412.4Q623.15 -398.25 625.6 -383.3Q627.35 -372.95 634.85 -378.55Q639 -381.6 640.65 -386.55Q641 -387.55 641.8 -388.45Q647.1 -385.7 647.4 -378.15L647.65 -369.45Q647.7 -362.55 683.6 -404.25Q719.5 -446 722.1 -395.05Q723.4 -393.45 721.85 -380.65" />
<path style="fill:#FFFFFF;fill-opacity:0.34902" d="M121.2,-870.15Q122.6 -859 124.4 -847.75Q130 -812.7 129.05 -776.9Q123.35 -791.4 115.9 -806.3Q112.5 -813.15 108.55 -819.65Q102.45 -829.6 99 -840.15Q99.75 -856.1 102.5 -871.85Q103.4 -877 103.25 -882.2Q102.95 -892.9 109.2 -897.75Q117.5 -889 120.05 -876.9L121.2 -870.15M276.6,-936.15Q279.5 -945.5 289.5 -946.1Q292.15 -936.4 294.25 -923.6Q295.3 -917.6 295.35 -911.55L296.9 -801.05Q297.3 -777.3 294.35 -754.45Q293.4 -747.4 287.85 -747.55L285.85 -750.75L281.35 -756.35Q275.45 -763.4 271.8 -771.9Q267.3 -782.65 261.35 -789Q259.1 -786 257.8 -782.15L250.35 -759.45Q247.6 -751.1 241.5 -747.55Q239.85 -748.4 239.2 -749.75Q228.4 -771.4 226.55 -795.9Q225.8 -806.25 224.35 -816.5Q223.3 -823.95 222.55 -831.4Q226.35 -863.65 230.75 -895.9L232.35 -908.2L233.85 -923.6L234.35 -928.85Q235.05 -935.4 239.85 -935.75Q240.7 -935.75 241.05 -935.35Q242.35 -934 242.45 -932.2L243.7 -911.6Q245.05 -885.8 244.8 -859.75Q246.9 -863.65 247.8 -868.45Q249.8 -878.8 253.6 -888.9Q261.5 -909.85 273.2 -928.65Q275.45 -932.25 276.6 -936.15M443.35,-927.1Q444.3 -887.05 438.85 -847.65Q434.55 -816.4 428.6 -785.5Q427.6 -780.35 427.9 -775.2Q428.2 -770.3 425.1 -770Q420.15 -796.3 419.15 -823.5L417.9 -859.75L417.8 -870.5Q421 -887.25 427.95 -903.15Q430.1 -908.1 431.1 -913.4Q433.35 -925.1 441.65 -930.55L442.65 -930.25Q443.3 -928.8 443.35 -927.1M495.55,-856.25Q496.25 -835.55 496.25 -814.85Q496.25 -808.8 497.15 -802.95Q498.6 -793.2 492.95 -789Q489.8 -794.7 489.2 -804.45Q487.3 -836.9 487.85 -869.7Q490.5 -868.35 491.65 -866.95Q495.3 -862.35 495.55 -856.25M612.95,-718.1Q614.7 -701.7 618.65 -685.4Q620.3 -678.5 620.9 -671.5L622.8 -645.75Q623.15 -639.65 620 -635.5Q616.95 -631.45 615.65 -623.2Q611.15 -594 607.7 -564.5Q606.95 -558.45 603.75 -557.65Q600.3 -563.85 599.6 -571.4Q597.45 -595.75 592.5 -619.85L590.35 -630.45L589.6 -634.05Q592.1 -647.5 595.35 -661.25Q597.15 -668.95 597.8 -676.85Q599.1 -693.2 603.5 -707.9Q606 -716.25 612.05 -719.9Q612.9 -719.05 612.95 -718.1M-93.9,-613.1Q-82.55 -592.45 -74.15 -569.8Q-66.35 -548.7 -66.15 -526.55Q-70.75 -529.4 -74.2 -535.35Q-76.85 -539.85 -80.3 -544.35L-83.15 -548.75Q-85.85 -553.9 -88.65 -558.25Q-89.65 -566.75 -91.55 -575.15Q-93.4 -583.5 -93.8 -592.15Q-94.25 -603.3 -94.25 -614.5Q-94.25 -613.7 -93.9 -613.1M-47.95,-502.4Q-36.85 -490.8 -34.05 -473.15Q-33.05 -467 -31.45 -460.95Q-21.6 -424.1 -19.65 -386.7Q-19.25 -378.8 -17.35 -371Q-16.55 -367.7 -17.05 -364.35L-17.05 -364.05Q-27.6 -380.85 -37.9 -398.9L-45.4 -411.55L-47.4 -416.25Q-55 -434.65 -59.75 -454Q-61.75 -462.2 -54.55 -461.65Q-50.05 -461.35 -47.95 -459.25Q-45.1 -464.95 -45.7 -474.8L-46.95 -493.7Q-47.1 -496.35 -47.65 -499L-47.95 -502.4" />
</g>
</svg>
