<?xml version="1.0" encoding="utf-8"?>
<svg version="1.1" id="Layer_1"
xmlns="http://www.w3.org/2000/svg"
xmlns:xlink="http://www.w3.org/1999/xlink"
xmlns:author="http://www.sothink.com"
width="56px" height="63px"
xml:space="preserve">
<g id="1632" transform="matrix(1, 0, 0, 1, 0, 0)">
<path style="fill:#85C4D3;fill-opacity:1" d="M42.75,18.55L42.45 18.35Q42.25 17.4 42.45 16.6Q42.7 15.45 43.75 14.6L44.25 15.05Q44.75 15.65 44.45 16.7L44.35 17.1Q43.95 18.35 42.75 18.55" />
<path style="fill:#CBFFFF;fill-opacity:1" d="M18.85,31.2Q17.75 30.35 18.7 29.15L19.15 29.45L18.85 31.2M6.1,35.95L6.15 35.9L6.7 36.55L6.1 35.95M5.45,38.3L4.3 38.25Q3.95 38.2 4.25 37.7L4.3 37.65L5.45 38.3" />
<path style="fill:#62B3C4;fill-opacity:1" d="M40,35.9Q40.75 34.5 42.1 33.35L43.85 32.2L44 32.15Q44.4 33.1 42.9 34.05L42.85 34.1Q42.75 35.5 40.65 35.85L40.6 35.85L40 35.9M41.9,37.4Q43.1 35.75 44.95 34.95L45 35.35L41.9 37.4M38.85,32.7L38.85 32.9L38.8 33L38.35 32.95Q35.45 32.6 36.7 30.15L36.8 30.1Q38.2 30.4 38.65 31.55L38.85 32.7M12.45,23.7Q12 22.8 11.7 21.7Q12 21.35 12.4 21.55Q13.45 19.65 15.35 18.4L15.45 18.9L13.1 23.6L12.45 23.7M13.7,43.35L13.85 43.3Q16.4 44.4 17.25 47.1L17.25 47.2Q14.15 46.2 13.75 43.5L13.7 43.35M32.9,51L32.7 49.85Q32.65 48.8 33.05 47.65L33.05 47.6L34.7 49.1L34.45 49.4L32.9 51M34.3,51.65L34.05 52.8L33.9 52.85L33.5 52.3L34.3 51.65M13.7,51.95L14.35 52.15L14.45 52.25Q13.9 55.05 10.9 52.6Q10 51.85 10.7 51.25L13.2 51.8L13.7 51.95M16.9,57.55Q16.75 56.75 17.4 56.05L17.85 55.65L18.3 56.6L18.05 57.9L18 57.95L17.5 58.5L17.35 58.55L17 57.85L16.9 57.55M13.8,57.95Q14.8 58.3 15.4 59.3L15.45 59.4Q13.15 59.95 11.9 58L11.8 57.85Q11.7 57.75 11.9 57.7L13.8 57.95" />
<path style="fill:#477585;fill-opacity:1" d="M38.15,45.8Q38.65 44.25 40.35 42.9L40.85 42.55L40.95 42.45L40.95 43.4Q40.85 44.35 40.35 45.2Q39.6 46.45 38.1 47.6L37.9 47.65L37.9 47.3Q37.85 46.5 38.15 45.8M4.3,53.2L4.35 53.15Q7.35 54.6 9.95 56.35L9.95 56.45Q7.1 56.75 5 54.35L4.25 53.35Q4.05 53.2 4.3 53.2" />
<path style="fill:#76ACB6;fill-opacity:1" d="M24.75,9.9Q26.9 10.6 25.55 12.35L25.1 12.3Q23.8 11 24.75 9.9" />
<path style="fill:#BCEDF4;fill-opacity:1" d="M23.45,9.1Q22.7 7.9 23.9 7.35Q27 9 23.85 9.45Q23.6 9.5 23.45 9.1" />
<path style="fill:#81C3D1;fill-opacity:1" d="M25.85,15.4Q26.35 16.35 25.8 17.55L25.6 17.5L25.55 17.45Q23.7 15.8 24.9 14.35Q25.55 14.8 25.85 15.4" />
<path style="fill:#81C3D3;fill-opacity:1" d="M34.4,18.25L34.9 17.55L35.1 17.1L35.3 17.1L35.4 17.25L35.7 17.05L35.75 17.05L35.75 17.35L35.2 19.5Q35.05 19.8 34.7 19.75Q34.45 19.75 34.55 19.4L34.1 19.35L34.25 18.85L34.4 18.25M35,18.85L34.95 18.85Q34.9 19.5 35 18.85" />
<path style="fill:#7CBFD0;fill-opacity:1" d="M31.7,18.25L31.55 18.15Q29.4 16.45 30.45 14.6Q31.85 15.35 32.1 16.45L31.95 18.1Q31.85 18.35 31.7 18.25" />
<path style="fill:#95B3BD;fill-opacity:1" d="M19.5,10.6Q20.2 11.65 19.25 13.2Q18.75 14.1 17.95 14.6Q17.4 15.05 17.45 14.3Q17.6 12.45 18.75 11.15L18.95 11.15L19.4 10.65L19.5 10.6M10.65,35.8L10.7 35.9L10.85 36.75L10.8 36.85L7.85 37Q7.65 36.5 8 36.2Q8.45 35.65 9.1 35.65L10.45 35.75L10.65 35.8" />
<path style="fill:#879FBB;fill-opacity:1" d="M13.9,18.45Q11.8 17.45 12.6 16.3Q14.75 16.85 14.2 18.4L13.9 18.45" />
<path style="fill:#5D9FB5;fill-opacity:1" d="M18.4,33L18.6 32.85L18.5 33.75L18.4 33M20.55,34.15L20.15 33.95L20.2 33.35L20.55 34.15" />
<path style="fill:#86C9DA;fill-opacity:1" d="M36.1,36.55Q36.9 35.25 38.2 34.4Q38.45 35.9 37.75 36.75Q37.05 37.55 35.45 37.75L35.45 37.7L36.1 36.55" />
<path style="fill:#9CEAF6;fill-opacity:0.501961" d="M37.3,21.05L42.45 16.6Q42.25 17.4 42.45 18.35L42.75 18.55Q43.95 18.35 44.35 17.1L44.6 22.1L42.65 27.15L42.45 24.7L40.55 26.65L40 26.2L39.65 26.35L41 23L40.7 20.5L36.65 25.6L36.6 24.15Q39 23.25 37.3 21.05M31.95,18.1L32.1 16.45L32.9 13.25L37.55 9L40.05 8.55L43.45 13.25L40.45 16.75L40.55 16.15L40.45 16.05L39.7 15.95L39.35 16.15Q37.9 17.65 38.05 19.35L38.2 19.4L37.05 20.75L36.95 20.65L36.8 20.75L37.1 19.2L35.85 19.95L37.7 16L35.75 17.35L35.75 17.05L35.7 17.05L35.4 17.25L35.3 17.1L35.1 17.1L34.9 17.55L34.4 18.25L31.15 20.45L31.7 18.25Q31.85 18.35 31.95 18.1M41.65,13.95Q44.35 13.3 41.55 11.75Q40.4 12.45 41.15 13.6Q41.35 14.05 41.65 13.95M42.5,20.5Q41.7 21.1 42.15 21.95L43.4 21.85L43.45 21.75Q43.75 20.65 42.65 20.4L42.5 20.5M9.1,25.8L9.1 27.1L10.7 30.45L10.05 30.35L7.1 26.05L9.1 25.8M18.7,15Q18.55 15 18.55 15.15Q18.65 17.55 20.7 17.4L20.3 18.7L16.55 13.9L17.35 11.3L20.55 6.8L24.95 3.05L27.15 15.25L27.25 11.7L27.75 12.35L27.8 12.3Q28.95 10 27.55 8L27.45 8.1L27.3 8.45L27.45 2.45L31.55 4.15L32.45 10L28.85 17.2L28.75 17L28.85 16.9Q29.1 16.05 28.45 15.8L28.05 16.15L27.75 16.95L27.1 15.65L26.1 13.45L25.85 15.4Q25.55 14.8 24.9 14.35Q23.7 15.8 25.55 17.45L25.6 17.5L24.7 25.3L24.6 25.4L24.6 25.35L24.4 25.25L24.35 25.05L24.2 25L23.75 24.8Q23.85 23.3 22.85 22.35L22.55 20.2L24.6 21.8L24.65 21.75Q24.95 19.1 22.4 18.25L22.25 18.25L22 18.35L21.15 15.85L21 16.4Q20.25 15.35 18.7 15M39.8,10.35L38.95 10.3Q38.5 10.5 38.4 11.1Q38.25 11.6 38.55 11.75Q41.65 13.65 40 10.35L39.8 10.35M23.85,9.45Q27 9 23.9 7.35Q22.7 7.9 23.45 9.1Q23.6 9.5 23.85 9.45M25.1,12.3L25.55 12.35Q26.9 10.6 24.75 9.9Q23.8 11 25.1 12.3M18.9,22.5L18.95 22.65L18.8 22.5L18.9 22.5M33.65,17.15Q35.7 15.55 34.5 13.9Q32.6 15.35 33.5 17.2L33.65 17.15M35.7,13.7Q37.75 12.85 36.25 11.6Q35.05 12.1 35.3 13.45Q35.4 13.8 35.7 13.7M19.4,10.65L18.95 11.15L18.75 11.15Q17.6 12.45 17.45 14.3Q17.4 15.05 17.95 14.6Q18.75 14.1 19.25 13.2Q20.2 11.65 19.5 10.6L19.4 10.65M9.85,15.1L15 16.7L16.05 17.65L15.45 18.9L15.35 18.4Q13.45 19.65 12.4 21.55Q12 21.35 11.7 21.7Q12 22.8 12.45 23.7L12.3 23.7L11.8 22.85L11.1 22.8L11.1 22.85Q10.5 21.25 9.05 20.5L8.85 20.9L9.85 15.1M8.3,24.15L8.7 21.9Q8.7 22.85 9.65 23.95L9.75 24.05L8.3 24.15M17.05,18.6L18.35 21.4L16.6 19.45L17.05 18.6M14.2,18.4Q14.75 16.85 12.6 16.3Q11.8 17.45 13.9 18.45L14.2 18.4M12.05,19.45Q12.35 17.8 11.05 16.9L10.1 17.65Q10.3 19.35 12 19.5L12.05 19.45M12.65,25.6L12.35 26.35L12.3 26.3L11.9 26.05L11.85 26.2L10.75 25.6L12.55 25.4L12.65 25.6" />
<path style="fill:#96EEFA;fill-opacity:0.501961" d="M37.9,47.3L37 48.55L36.3 48.15L34.25 49.8L34.45 49.4L34.7 49.1L33.05 47.6L33.05 47.65Q32.65 48.8 32.7 49.85L30.9 48.15L28.9 49.5L27.65 53.4L24.4 53.25L24.3 53.2L23.05 53L22.95 53.1L22.35 53.05L22.8 52.8L22.85 52.75L26.2 50.45L31.45 45.05L27.9 46.15L23.15 46.15L22.55 45.3L29.95 44.85L31 41.3Q32.45 40.7 33.6 39.45L33.6 39.35Q33.8 37.2 32.75 35.65L32.55 35.8L31.45 37.65L30.55 35.95Q31.05 34.1 29.55 32.3L29.35 32.3L28.75 32.15L28.55 32.3L28 30.9L27.8 30.4L27.4 29.5L27.4 29.45L28.1 29.9L30.25 31.25Q29.7 32 30.7 32.95L30.85 32.85L31.55 32.05L32.2 32.45L33.25 33.6L33.85 35.55L34.65 35.1L35.9 36.5L36.1 36.55L35.45 37.7L35.45 37.75Q37.05 37.55 37.75 36.75L38.45 36.7L38.15 37.7L38.75 37.75L36.3 40.1L36.1 39.5Q34.6 40.35 34.6 41.8L32.15 44.15L33.25 47.05L38.15 45.8Q37.85 46.5 37.9 47.3M39.75,38.8L40.05 37.8L41.15 37.9L39.75 38.8M22.3,25.55L22.3 24.55L23.2 25.05L23.6 25.2L23.7 25.05L23.75 24.8L24.2 25L24.35 25.05L24.4 25.25L24.6 25.35L24.6 25.4L24.7 25.3L24.55 26.4L22.3 25.55M21,35.95L25.15 36.65Q25.15 36.25 20.95 34.3L20.75 27.7L22.2 28.4L22.25 27.65L25.8 28.75L27.05 30.6L26.65 31.85L27.4 37.05L25.65 33.6L24.45 34.5L27.75 42.15L23.5 41.35Q23.5 40.35 22.7 39.25Q21.75 40.05 21.6 41L21.15 40.95L21.15 40.25L21 35.95" />
<path style="fill:#8CCFEC;fill-opacity:0.501961" d="M16.9,57.55L17 57.85L13.8 57.95L11.9 57.7Q11.7 57.75 11.8 57.85L11.9 58L9.55 58.05L5.85 55.75L5 54.35Q7.1 56.75 9.95 56.45L9.95 56.35Q7.35 54.6 4.35 53.15L4.3 53.2L3.85 52.45L9.7 49.65L13.2 50.85Q12.6 50.9 12.4 51.3L13.2 51.8L10.7 51.25Q10 51.85 10.9 52.6Q13.9 55.05 14.45 52.25L14.35 52.15L13.7 51.95Q14.4 52.05 15 51.6L15 51.45L14.95 51.4L14.85 51.35L14.05 50.95L16.65 51.15L16.45 51.65L17.3 53.85L15.95 52.65L18.95 56.95L18.3 56.6L17.85 55.65L17.4 56.05L15.85 55.15L15.9 54.75L15.8 54.7L14.8 54.5L10.3 53.4L12.5 56L13.55 56.35L13.6 56.7L13.8 56.75L14.35 56.65L16.9 57.55M4.05,37.55L4.3 37.65L4.25 37.7Q3.95 38.2 4.3 38.25L5.45 38.3L10.05 40.85L9.2 40.45L10.8 43.9L13.65 46.3L12.5 46.55Q11.05 44.2 8.75 42.75L8.4 42.85Q7.9 43 7.9 43.3Q8.1 46.3 11.2 46.85L7.3 47.7L4.4 45.45L4.2 41.05Q4.75 42.2 6 42.95L6.05 42.75Q6.15 42.25 6.55 41.85L6.45 41.7L4.1 39.4L4.05 37.55M14.05,37.35L14.15 37.3L14.2 37.35L15 38.3L15.15 39.8L15.3 42.6Q15.3 43.05 13.55 40.8L11.1 39.7L9.9 39.15L9.55 38.75L6.15 35.25L5.05 34.15L4.65 33.7L4.5 33.5L4.45 33.55L3.85 32.95L6.6 32.6L12.2 34.05L12.5 34.25L13.55 35.3L12.15 34.9L11.95 34.85L11.6 35.15L11.25 35.4Q11.05 35.5 11.05 35.75L11.05 35.8L11.1 35.9Q12.25 37.3 13.5 37.4L14.05 37.35M12.55,25.4Q12.2 24.35 11.3 24.3L10.65 24.4L10.65 24.35L10.65 24L11.1 22.85L11.1 22.8L11.8 22.85L12.3 23.7L13.2 25.25L13.45 25.25L14.85 27.7L13.6 23.4L14.25 23.4L15.95 18.75L16.6 19.45L18.35 21.4L18.4 21.45L19.7 20.6L19.9 21.2L20.65 22.15L20.65 23.15L18.9 22.5L18.8 22.5L18.2 22.25L17.5 27.05L17.05 26.75Q16.1 27.95 17.2 28.8L16.95 30.45L16.75 30.6L16.85 31.35L16.8 31.7L15.6 29.95L12.3 26.6L12.8 29.7L15.45 33.4L10.8 31.55L10 30.35L10.05 30.35L10.7 30.45L9.1 27.1L9.1 25.8L9.1 24.75L10.2 24.7Q10.3 25.2 10.75 25.6L11.85 26.2L12.3 26.3L12.35 26.35L12.7 26.4L12.75 26.15L12.65 25.6L12.55 25.4M10.45,35.75L9.1 35.65Q8.45 35.65 8 36.2Q7.65 36.5 7.85 37L10.8 36.85L10.85 36.75L10.7 35.9L10.65 35.8L10.45 35.75M21.15,40.25L20.05 36.5L20.1 35.8L21 35.95L21.15 40.25M20.2,33.35L20.55 27.1L22.25 27.65L22.2 28.4L20.75 27.7L20.95 34.3L20.55 34.15L20.2 33.35M18.2,54.65L19.6 54.85L22.35 53.05L22.95 53.1L22.9 53.15Q21.85 55.15 24.15 54.9L28.05 57.2L24.25 61.6L24.25 61.55Q23.6 61.2 24.15 61.15L21.3 57.4L21.35 57.4L21.55 57.35L22.25 57.15L22.25 57Q22 55.4 19.9 55.85Q19.75 55.85 19.7 55.95L18.2 54.65M24.1,61.75L23.65 62.3L23.5 62L24.1 61.75M8.9,51.9Q7.75 52.3 7.75 53.45Q7.75 54.1 8.25 54.1Q10.25 54 10.3 53.4Q10.3 52.85 8.9 51.9" />
<path style="fill:#80E3FF;fill-opacity:0.501961" d="M35.7,61.05L38.4 57.55L38.55 55.3L32.8 60.3Q32.4 60.75 32.1 58.25L32.65 55.4L32.25 53.35L33.5 52.3L33.9 52.85L34.05 52.8L34.3 51.65L36.35 49.95L39.6 51.95Q39.8 52.5 40.6 52.6L43.65 54.5L39.65 58.95L37.05 61.05L35.7 61.05M29.2,55.8L29.4 55.7L28.05 57.2L24.15 54.9L25 54.75L25 54.65Q25.05 53.65 24.4 53.25L27.65 53.4L28.9 49.5L30.9 48.15L32.7 49.85L32.9 51L29.2 55.8" />
<path style="fill:#93DFF7;fill-opacity:0.501961" d="M51.7,30.75L50.85 30.6Q49.2 31.6 48.2 33.25L48.2 33.3L48.85 34.2L48.95 34.1Q51.1 32.7 51.85 30.8L51.7 30.75M41.7,31.35L43 30.75L50 29.45L52.8 30.05L50.05 33.65L45.15 37.7L45.4 35.05L45 35.35L44.95 34.95Q43.1 35.75 41.9 37.4L41.15 37.9L40.05 37.8L40.6 35.9L38.75 37.75L38.15 37.7L38.45 36.7Q39.55 36.5 40.6 35.85L40.65 35.85Q42.75 35.5 42.85 34.1L42.9 34.05Q44.4 33.1 44 32.15L43.85 32.2L42.1 33.35L41.7 31.35" />
<path style="fill:#85E2E7;fill-opacity:0.501961" d="M37.75,36.75Q38.45 35.9 38.2 34.4Q36.9 35.25 36.1 36.55L35.9 36.5L34.65 35.1L38.35 32.95L38.8 33L38.85 32.9L38.85 32.7L40.65 31.75L40.6 31.85L41.7 31.35L42.1 33.35Q40.75 34.5 40 35.9L40.6 35.85Q39.55 36.5 38.45 36.7L37.75 36.75M31.05,30.6L30.25 31.25L28.1 29.9L30.95 27.55L32.8 32.1L33.25 33.6L32.2 32.45L31.55 32.05Q31.9 31.3 31.05 30.6" />
<path style="fill:#D0FCFC;fill-opacity:0.901961" d="M37.3,21.05L37.05 20.75L38.2 19.4L38.3 19.35Q40.05 18.5 40.45 16.75L43.45 13.25L40.05 8.55L37.55 9L40.05 6.75L45.5 13.2L45.75 21.9L41.3 30.5L42.65 27.15L44.6 22.1L44.35 17.1L44.45 16.7Q44.75 15.65 44.25 15.05L43.75 14.6Q42.7 15.45 42.45 16.6L37.3 21.05M50.05,33.65L52.8 30.05L50 29.45L43 30.75L50.05 27.3L55.5 29.15L50.05 33.65M29.4,55.7L29.2 55.8L32.9 51L34.45 49.4L34.25 49.8L36.3 48.15L37.85 49.1L38.15 49.3L38.55 49.55L40.1 50.5Q40.95 50.65 41.35 51.25L44.5 53.25L45.2 54.5L39.65 58.95L43.65 54.5L40.6 52.6Q39.8 52.5 39.6 51.95L36.35 49.95L34.3 51.65L33.5 52.3L32.25 53.35L29.4 55.7M4.25,53.35L5 54.35L5.85 55.75L0 52.05L8.65 48.95L13.5 50.8L13.4 50.8L13.2 50.85L9.7 49.65L3.85 52.45L4.3 53.2Q4.05 53.2 4.25 53.35M4.3,37.65L4.05 37.55L4.1 39.4L3.9 39.15L3.7 39.35Q3.8 40.3 4.2 41.05L4.4 45.45L2.85 44.25L2 34.3L4.65 33.7L5.05 34.15L6.15 35.25L5.5 35.35L6.1 35.95L6.7 36.55L11.85 41.85L10.05 40.85L5.45 38.3L4.3 37.65M7.1,26.05L6.85 25.65L8.85 13.2L16 15.7L16.2 15.15L17.5 17.65L17.05 18.6L16.6 19.45L15.95 18.75L14.25 23.4L13.6 23.4L14.85 27.7L13.45 25.25L13.2 25.25L12.3 23.7L12.45 23.7L13.1 23.6L15.45 18.9L16.05 17.65L15 16.7L9.85 15.1L8.85 20.9Q8.65 21.35 8.7 21.9L8.3 24.15L9.75 24.05L10.45 24.5Q11.15 24.75 11.3 24.3Q12.2 24.35 12.55 25.4L10.75 25.6Q10.3 25.2 10.2 24.7L9.1 24.75L9.1 25.8L7.1 26.05M27.25,11.7L27.15 15.25L24.95 3.05L20.55 6.8L17.35 11.3L19.15 5.4L25.45 0L32.6 3.25L32.6 11.05L32.45 10L31.55 4.15L27.45 2.45L27.3 8.45Q26.45 10.4 27.25 11.7M24.55,26.4L26.4 27.1L27.4 29.45L27.4 29.5L27.8 30.4L28 30.9L28.55 32.3L28.35 32.55L27.05 30.6L25.8 28.75L22.25 27.65L20.55 27.1L20.2 33.35L20.15 33.95L20.55 34.15L20.95 34.3Q25.15 36.25 25.15 36.65L21 35.95L20.1 35.8L20.05 36.5L21.15 40.25L21.15 40.95L21.2 42.35L19.35 37.65L19.15 37.1L18.3 34.9L18.5 33.75L18.6 32.85L18.85 31.2L19.15 29.45L19.85 24.65L22.3 25.55L24.55 26.4M11.6,35.15L13.85 36.45L11.05 35.75Q11.05 35.5 11.25 35.4L11.6 35.15" />
<path style="fill:#CBFFFF;fill-opacity:0.74902" d="M40.45,16.75Q40.05 18.5 38.3 19.35L38.2 19.4L38.05 19.35Q37.9 17.65 39.35 16.15L39.7 15.95L40.45 16.05L40.55 16.15L40.45 16.75M41.15,13.6Q40.4 12.45 41.55 11.75Q44.35 13.3 41.65 13.95Q41.35 14.05 41.15 13.6M42.65,20.4Q43.75 20.65 43.45 21.75L43.4 21.85L42.15 21.95Q41.7 21.1 42.5 20.5L42.65 20.4M39.65,26.35L40 26.2L40.55 26.65L40.9 26.9L40.9 26.95L39.3 28.25L38.85 28.4L38.8 28.4L37.45 28.4L38.05 27.55Q38.6 26.8 39.6 26.35L39.65 26.35M45.95,42.25Q46.1 41.3 47.2 40.9L48.1 40.6Q49.25 40.45 50.1 41L50.15 41.15Q48.8 42.9 46.1 42.35L45.95 42.25M40,10.35Q41.65 13.65 38.55 11.75Q38.25 11.6 38.4 11.1Q38.5 10.5 38.95 10.3L39.8 10.35L40 10.35M28.85,17.2Q29.65 19.3 28.2 21.85L28.15 21.95L27.05 21.85Q27 19.7 27.55 17.7L27.55 17.65L27.75 16.95L28.05 16.15L28.45 15.8Q29.1 16.05 28.85 16.9L28.75 17L28.85 17.2M23.7,25.05L23.6 25.2L23.2 25.05L22.3 24.55L21.55 23.6L21.35 23Q21.1 22.4 21.15 21.55Q21.15 21.45 21.3 21.45Q22.25 21.8 22.85 22.35Q23.85 23.3 23.75 24.8L23.7 25.05M21,16.4L21.4 17.15L21.4 17.25L20.7 17.4Q18.65 17.55 18.55 15.15Q18.55 15 18.7 15Q20.25 15.35 21 16.4M33.5,17.2Q32.6 15.35 34.5 13.9Q35.7 15.55 33.65 17.15L33.5 17.2M12,19.5Q10.3 19.35 10.1 17.65L11.05 16.9Q12.35 17.8 12.05 19.45L12 19.5M12.3,26.3L11.85 26.2L11.9 26.05L12.3 26.3M11.1,39.7L9.5 39.4Q9.35 39 9.55 38.75L9.9 39.15L11.1 39.7M19.45,41.55L20.45 42.5L20.25 43L19.55 43.8L18.35 43.95Q16.35 42.9 17.6 41.4L19.45 41.55M10.7,48.3Q12.65 48 13.65 49.4L13.7 49.55Q11.95 50.35 10.5 48.8Q10.2 48.4 10.7 48.3M31.25,25.2Q31.15 22.95 33.25 21.9Q34.95 24.4 31.35 25.25L31.25 25.2M31.55,32.05L30.85 32.85L30.7 32.95Q29.7 32 30.25 31.25L31.05 30.6Q31.9 31.3 31.55 32.05M24.15,54.9Q21.85 55.15 22.9 53.15L22.95 53.1L23.05 53L24.3 53.2L24.4 53.25Q25.05 53.65 25 54.65L25 54.75L24.15 54.9M34.6,41.8Q34.6 40.35 36.1 39.5L36.3 40.1Q36.65 41.6 34.9 42.55L34.7 42.55L34.6 41.8M37.35,39.4Q38.3 39.45 38.8 39.95L39.05 40.55L39 41.7L38.95 41.85Q36.15 42.1 37.25 39.5L37.35 39.4M19.7,55.95Q19.75 55.85 19.9 55.85Q22 55.4 22.25 57L22.25 57.15L21.55 57.35L21.35 57.4L21.3 57.4Q20.05 57.45 19.65 56.15Q19.6 56 19.7 55.95M23.5,62Q21.05 62.8 18.65 60.95L18.3 60.6L18.4 60.1Q18.6 59.75 19 59.7Q21.1 60.05 24.15 61.15Q23.6 61.2 24.25 61.55L24.25 61.6L24.3 61.65L24.1 61.75L23.5 62M14.35,56.65L13.8 56.75L13.6 56.7L13.55 56.35Q13.35 55.35 14.35 54.7L14.75 54.5L14.8 54.5L15.8 54.7L15.9 54.75L15.85 55.15Q15.6 56.3 14.35 56.65M10.3,53.4Q10.25 54 8.25 54.1Q7.75 54.1 7.75 53.45Q7.75 52.3 8.9 51.9Q10.3 52.85 10.3 53.4" />
<path style="fill:#62B3C4;fill-opacity:0.701961" d="M36.6,24.15L36.4 24.2L36.15 24.2Q35.6 23.35 35.7 22.6L35.7 22.4L35.7 22.35Q35.85 21.45 36.8 20.75L36.95 20.65L37.05 20.75L37.3 21.05Q39 23.25 36.6 24.15M51.85,30.8Q51.1 32.7 48.95 34.1L48.85 34.2L48.2 33.3L48.2 33.25Q49.2 31.6 50.85 30.6L51.7 30.75L51.85 30.8M43.7,44.1Q46.05 43.75 48 44.55L48.05 44.65Q45.15 46.6 41.05 45.6L40.9 45.5L40.95 45.2L41.15 45.05Q42 44.4 43.4 44.15L43.7 44.1M27.3,8.45L27.45 8.1L27.55 8Q28.95 10 27.8 12.3L27.75 12.35L27.25 11.7L27.3 8.45M22,18.35L22.25 18.25L22.4 18.25Q24.95 19.1 24.65 21.75L24.6 21.8L22.55 20.2L21.3 18.65Q21.6 18.45 22 18.35M35.3,13.45Q35.05 12.1 36.25 11.6Q37.75 12.85 35.7 13.7Q35.4 13.8 35.3 13.45M10.65,24L10.65 24.35L10.65 24.4L11.3 24.3Q11.15 24.75 10.45 24.5L9.75 24.05L9.65 23.95Q8.7 22.85 8.7 21.9Q8.65 21.35 8.85 20.9L9.05 20.5Q10.5 21.25 11.1 22.85L10.65 24M13.5,37.4L13.6 37.25L13.8 37.3L14.05 37.35L13.5 37.4M14.2,37.35L15.35 37.8Q16.05 38.2 16.55 38.95L16.7 39.15L16.75 39.25L15.8 39.7L15.15 39.8L15 38.3L14.2 37.35M12.5,46.55L12.7 46.9L12.7 46.95L11.2 46.85Q8.1 46.3 7.9 43.3Q7.9 43 8.4 42.85L8.75 42.75Q11.05 44.2 12.5 46.55M19.15,37.1L19.35 37.65Q19.5 38.2 19.1 38.8L18.25 36.7L18.3 36.5L18.45 36.3L19.15 37.1M30.55,35.95L30.4 36.3Q29.95 37.45 28.75 38.6L28.5 38.75Q27.9 36.15 28.15 33.1L28.35 32.55L28.55 32.3L28.75 32.15L29.35 32.3L29.55 32.3Q31.05 34.1 30.55 35.95M3.7,39.35L3.9 39.15L4.1 39.4L6.45 41.7L6.55 41.85Q6.15 42.25 6.05 42.75L6 42.95Q4.75 42.2 4.2 41.05Q3.8 40.3 3.7 39.35M18.4,39.55L18.3 39.55L18.25 39.3L18.5 39.45L18.4 39.55M23.5,41.35Q23.5 42.5 22.5 43.55L22.4 43.6Q21.4 42.2 21.6 41Q21.75 40.05 22.7 39.25Q23.5 40.35 23.5 41.35M13.2,51.8L12.4 51.3Q12.6 50.9 13.2 50.85L13.4 50.8L13.5 50.8L13.55 50.8L13.6 50.8L14.05 50.95L14.85 51.35L14.95 51.4L15 51.45L15 51.6Q14.4 52.05 13.7 51.95L13.2 51.8" />
<path style="fill:#3F94BB;fill-opacity:0.701961" d="M38.65,31.55Q38.2 30.4 36.8 30.1L36.7 30.15Q35.45 32.6 38.35 32.95L34.65 35.1L33.85 35.55L33.25 33.6L32.8 32.1L30.95 27.55L28.1 29.9L27.4 29.45L26.4 27.1L24.55 26.4L24.7 25.3L25.6 17.5L25.8 17.55Q26.35 16.35 25.85 15.4L26.1 13.45L27.1 15.65L27.75 16.95L27.55 17.65L27.55 17.7Q27 19.7 27.05 21.85L28.15 21.95L28.2 21.85Q29.65 19.3 28.85 17.2L32.45 10L32.6 11.05L32.6 13.5L32.9 13.25L32.1 16.45Q31.85 15.35 30.45 14.6Q29.4 16.45 31.55 18.15L31.7 18.25L31.15 20.45L34.4 18.25L34.25 18.85L34.1 19.35L34.55 19.4Q34.45 19.75 34.7 19.75Q35.05 19.8 35.2 19.5L35.75 17.35L37.7 16L35.85 19.95L37.1 19.2L36.8 20.75Q35.85 21.45 35.7 22.35L35.7 22.4L35.7 22.6Q35.6 23.35 36.15 24.2L36.4 24.2L36.6 24.15L36.65 25.6L40.7 20.5L41 23L39.65 26.35L39.6 26.35Q38.6 26.8 38.05 27.55L37.45 28.4L38.8 28.4L38.85 28.4L39.3 28.25L40.9 26.95L40.9 26.9L40.55 26.65L42.45 24.7L42.65 27.15L41.3 30.5L40.65 31.75L38.85 32.7L38.65 31.55M33.25,47.05L32.15 44.15L34.6 41.8L34.7 42.55L34.9 42.55Q36.65 41.6 36.3 40.1L38.75 37.75L40.6 35.9L40.05 37.8L39.75 38.8L41.15 37.9L41.9 37.4L45 35.35L45.4 35.05L45.15 37.7L42.05 40.2L54.65 37.8L53.2 43.15L42.35 49.35L44.5 53.25L41.35 51.25Q40.95 50.65 40.1 50.5L38.55 49.55L38.15 49.3L37.85 49.1L37 48.55L37.9 47.3L37.9 47.65L38.1 47.6Q39.6 46.45 40.35 45.2Q40.85 44.35 40.95 43.4L40.95 42.45L40.85 42.55L40.35 42.9Q38.65 44.25 38.15 45.8L33.25 47.05M46.1,42.35Q48.8 42.9 50.15 41.15L50.1 41Q49.25 40.45 48.1 40.6L47.2 40.9Q46.1 41.3 45.95 42.25L46.1 42.35M19.7,55.95Q19.6 56 19.65 56.15Q20.05 57.45 21.3 57.4L24.15 61.15Q21.1 60.05 19 59.7Q18.6 59.75 18.4 60.1L18.3 60.6L18.65 60.95Q21.05 62.8 23.5 62L23.65 62.3L24.1 61.75L24.3 61.65L24.25 61.6L28.05 57.2L29.4 55.7L32.25 53.35L32.65 55.4L32.1 58.25Q32.4 60.75 32.8 60.3L38.55 55.3L38.4 57.55L35.7 61.05L37.05 61.05L35.2 62.55L16.3 62.3L9.55 58.05L11.9 58Q13.15 59.95 15.45 59.4L15.4 59.3Q14.8 58.3 13.8 57.95L17 57.85L17.35 58.55L17.5 58.5L18 57.95L18.05 57.9L18.3 56.6L18.95 56.95L15.95 52.65L17.3 53.85L17.45 54.5L18.2 54.65L19.7 55.95M13.6,50.8L13.55 50.8L13.5 50.8L8.65 48.95L8.85 48.85L7.3 47.7L11.2 46.85L12.7 46.95L12.7 46.9L12.5 46.55L13.65 46.3L10.8 43.9L9.2 40.45L10.05 40.85L11.85 41.85L6.7 36.55L6.15 35.9L6.1 35.95L5.5 35.35L6.15 35.25L9.55 38.75Q9.35 39 9.5 39.4L11.1 39.7L13.55 40.8Q15.3 43.05 15.3 42.6L15.15 39.8L15.8 39.7L16.75 39.25L16.7 39.15L16.55 38.95Q16.05 38.2 15.35 37.8L14.2 37.35L14.15 37.3L14.05 37.35L13.8 37.3L13.6 37.25L13.5 37.4Q12.25 37.3 11.1 35.9L11.05 35.8L11.05 35.75L13.85 36.45L11.6 35.15L11.95 34.85L12.15 34.9L13.55 35.3L12.5 34.25L12.65 34.3L10.8 31.55L15.45 33.4L12.8 29.7L12.3 26.6L15.6 29.95L16.8 31.7L16.85 31.35L16.75 30.6L16.95 30.45L17.2 28.8Q16.1 27.95 17.05 26.75L17.5 27.05L18.2 22.25L18.8 22.5L18.95 22.65L18.9 22.5L20.65 23.15L20.65 22.15L19.9 21.2L19.7 20.6L18.4 21.45L18.35 21.4L17.05 18.6L17.5 17.65L16.2 15.15L16.55 13.9L20.3 18.7L20.7 17.4L21.4 17.25L21.4 17.15L21 16.4L21.15 15.85L22 18.35Q21.6 18.45 21.3 18.65L22.55 20.2L22.85 22.35Q22.25 21.8 21.3 21.45Q21.15 21.45 21.15 21.55Q21.1 22.4 21.35 23L21.55 23.6L22.3 24.55L22.3 25.55L19.85 24.65L19.15 29.45L18.7 29.15Q17.75 30.35 18.85 31.2L18.6 32.85L18.4 33L18.5 33.75L18.3 34.9L19.15 37.1L18.45 36.3L18.3 36.5L18.25 36.7L19.1 38.8Q19.5 38.2 19.35 37.65L21.2 42.35L21.15 40.95L21.6 41Q21.4 42.2 22.4 43.6L22.5 43.55Q23.5 42.5 23.5 41.35L27.75 42.15L24.45 34.5L25.65 33.6L27.4 37.05L26.65 31.85L27.05 30.6L28.35 32.55L28.15 33.1Q27.9 36.15 28.5 38.75L28.75 38.6Q29.95 37.45 30.4 36.3L30.55 35.95L31.45 37.65Q30.5 39.5 30.2 41.55L31 41.3L29.95 44.85L22.55 45.3L21.9 44.3L21.7 44.05L21.6 43.9L21.6 43.85L20.85 42.75L20.6 43.1L20.5 43.25L20.6 47.25L20.3 50.4L19 50.9L16.65 51.15L14.05 50.95L13.6 50.8M43.4,44.15Q42 44.4 41.15 45.05L40.95 45.2L40.9 45.5L41.05 45.6Q45.15 46.6 48.05 44.65L48 44.55Q46.05 43.75 43.7 44.1L43.4 44.15M18.5,39.45L18.25 39.3L18.3 39.55L18.4 39.55L18.5 39.45M17.6,41.4Q16.35 42.9 18.35 43.95L19.55 43.8L20.25 43L20.45 42.5L19.45 41.55L17.6 41.4M13.75,43.5Q14.15 46.2 17.25 47.2L17.25 47.1Q16.4 44.4 13.85 43.3L13.7 43.35L13.75 43.5M10.5,48.8Q11.95 50.35 13.7 49.55L13.65 49.4Q12.65 48 10.7 48.3Q10.2 48.4 10.5 48.8M31.35,25.25Q34.95 24.4 33.25 21.9Q31.15 22.95 31.25 25.2L31.35 25.25M37.25,39.5Q36.15 42.1 38.95 41.85L39 41.7L39.05 40.55L38.8 39.95Q38.3 39.45 37.35 39.4L37.25 39.5M14.35,56.65Q15.6 56.3 15.85 55.15L17.4 56.05Q16.75 56.75 16.9 57.55L14.35 56.65M12.5,56L10.3 53.4L14.8 54.5L14.75 54.5L14.35 54.7Q13.35 55.35 13.55 56.35L12.5 56" />
<path style="fill:#7BCBD6;fill-opacity:0.701961" d="M30.2,41.55Q30.5 39.5 31.45 37.65L32.55 35.8L32.75 35.65Q33.8 37.2 33.6 39.35L33.6 39.45Q32.45 40.7 31 41.3L30.2 41.55M19.6,54.85L18.2 54.65L17.45 54.5L17.3 53.85L16.45 51.65L16.65 51.15L19 50.9L20.3 50.4L20.6 47.25L20.5 43.25L20.6 43.1L20.85 42.75L21.6 43.85L21.6 43.9L21.7 44.05L21.9 44.3L22.55 45.3L23.15 46.15L27.9 46.15L31.45 45.05L26.2 50.45L22.85 52.75L22.8 52.8L22.35 53.05L19.6 54.85" />
</g>
</svg>
