<?xml version="1.0" encoding="utf-8"?>
<svg version="1.1" id="Layer_1"
xmlns="http://www.w3.org/2000/svg"
xmlns:xlink="http://www.w3.org/1999/xlink"
xmlns:author="http://www.sothink.com"
width="8px" height="8px"
xml:space="preserve">
<g id="400" transform="matrix(1, 0, 0, 1, -0.2, 0)">
<path style="fill:#38382E;fill-opacity:1" d="M6.5,6.2L6.55 6.45L5.95 6.7L5.85 6.75L3.35 7.1L1.15 6.45Q1.7 3.4 1.35 1.25L2.9 0.2Q3.8 3.1 3.45 6.3L6.5 6.2" />
<path style="fill:#645D4C;fill-opacity:1" d="M3.45,6.3Q3.8 3.1 2.9 0.2L3.65 0L3.9 0L4.8 0.55L5.45 1.4L6.5 6.2L3.45 6.3" />
<path style="fill:#202017;fill-opacity:1" d="M6,0.55L6.55 1.1L7 3L7.25 5.55L7.3 5.85L7.3 7L6.8 7.3L6.35 7.45L5.9 7.6L4.1 7.9L3.2 7.9L1.45 7.45Q0 6.85 0.2 6.3L0.55 4.2L0.85 2.15Q1.1 1.35 1.35 1.25Q1.7 3.4 1.15 6.45L3.35 7.1L5.85 6.75L5.95 6.7L6.55 6.45L6.6 6.4L6.6 6.2L6.4 3.5Q6.4 1.65 5.8 0.55L6 0.55" />
<path style="fill:#959083;fill-opacity:1" d="M6.5,6.2L5.45 1.4L4.8 0.55L3.9 0L3.95 0L5.05 0.1L5.4 0.2L5.7 0.45L5.8 0.55Q6.4 1.65 6.4 3.5L6.6 6.2L6.6 6.4L6.55 6.45L6.5 6.2" />
</g>
</svg>
