<?xml version="1.0" encoding="utf-8"?>
<svg version="1.1" id="Layer_1"
xmlns="http://www.w3.org/2000/svg"
xmlns:xlink="http://www.w3.org/1999/xlink"
xmlns:author="http://www.sothink.com"
width="44px" height="22px"
xml:space="preserve">
<g id="2840" transform="matrix(1, 0, 0, 1, 8.95, 3.95)">
<path style="fill:#3C3532;fill-opacity:1" d="M18.1,14.75L15.95 12.35Q16.05 11.9 16.8 11.65Q19.75 14.2 20.45 16.75Q25.95 15.25 28.65 12.65Q31.35 10.05 32.25 7.85Q33.1 5.6 33.2 3.8L33.25 2.15L33.1 0.9L32.95 0.4L32.7 -0.2L32.5 -0.45L29.25 0.75L29.35 0.35L29.55 -0.65L31.65 -1.35L33.05 -1.85L33.4 -1.8L33.45 -1.7L33.65 -1.3L33.7 -1.15L33.95 -0.2Q34.45 1.7 34.35 4Q34.2 6.3 33.35 8.8Q32.5 11.3 28.85 14.2Q25.8 16.65 21.45 17.75L19.5 17.9Q18.95 17.65 18.2 16.6Q17.55 15.65 15.75 14.2L15.65 14.1L15.85 12.7L18.1 14.75M1.45,5.2L1.2 5.25L1.25 5.25L1.45 5.2" />
<path style="fill:#000000;fill-opacity:1" d="M-3.65,0.65L-4.7 1.6Q-7.1 3.7 -7.5 5.1L-7.55 5.35L-7.55 5.45Q-5.5 4.25 -0.35 5.3L-0.2 5.15L-0.1 5.1L0.4 4.65L2.3 3.05L4.3 1.6L8.15 -0.75L7.25 -1.25L6.55 -1.85L5.95 -3L4 -2.7L2.3 -2.3L1.2 -1.95L-1.3 -0.9L-3.65 0.65M29.35,0.35L29.25 0.75Q28.65 3.3 27.45 5.3Q26 7.65 23.7 9.2Q21.9 10.4 19.65 11.1L18.3 11.45L16.75 11.6L16.85 11.65L16.8 11.65Q16.05 11.9 15.95 12.35L15.85 12.7L15.65 14.1L15.5 14L14.7 13.3L12.25 11.75Q10.75 10.9 6.45 9.75L5.2 9.45L3.15 11.3Q0 13.25 -2.6 12.9Q-3.65 12.5 -3.6 10.95L-3.3 8.3L-8.85 8.05Q-9.15 6.4 -8.6 5.15L-6.8 1.95Q-5.6 0.05 -1.8 -1.8L-1.35 -2Q2.2 -3.65 6.55 -3.95L6.6 -3.5Q6.6 -3.1 7.3 -2.4L8 -1.85L8.35 -1.65L8.95 -1.8L10.45 -2.2Q11.6 -2.4 13 -1.75L13.15 -1.65Q14.6 -0.95 14.45 0.75L18.65 1.15Q22.8 1.25 27.05 0.05L27.85 -0.15L29.55 -0.65L29.35 0.35M1.35,5.15L1.25 5.25L1.2 5.25L1 5.45L2.05 5.65L2.25 5.7Q3.3 5.95 3.9 6.75Q4.5 7.55 4.75 8.3L5.75 7.45L6.6 6.75L7.85 5.75L9.55 4.25L11.9 2.1Q13.3 0.9 13.2 0.55L13.05 -0.2L12.4 -0.9L10.4 -1.05Q9.1 -0.65 8.7 -0.3L7 0.95L4.9 2.45L3.2 3.7L3.05 3.85Q2.4 4.3 2.05 4.65L1.35 5.15M11.45,4.05L9.45 5.9L7.9 7.2L9.3 7.5Q12.4 8.3 15.6 10.7L18.55 10.15L21.6 8.95Q23.5 7.9 24.85 6.35Q26.6 4.3 27.5 1.35Q20.85 3.15 13.95 1.55L12.6 2.95L11.45 4.05M15.05,11.4Q12.85 9.35 9.4 8.4L7.1 7.75L6.1 8.4L8 8.95Q10.15 9.3 14.75 11.9L15.05 11.4M2.15,7L0.65 6.65Q-0.1 6.5 -1.35 7.8Q-2.35 8.8 -2.4 9.85L-2.4 10.55Q-2.15 12 -0.45 11.45L2.25 10.3L3.3 9.15L3.25 8.25Q2.9 7.25 2.15 7M-1.95,6.3Q-6.2 5.5 -7.5 6.95L-2.8 7L-1.95 6.3" />
<path style="fill:#9E9187;fill-opacity:1" d="M27.45,5.3Q28.65 3.3 29.25 0.75L32.5 -0.45L32.7 -0.2Q31.85 1.5 30.45 2.95Q29.05 4.4 27.45 5.3" />
<path style="fill:#AFA59C;fill-opacity:1" d="M30.45,2.95Q31.85 1.5 32.7 -0.2L32.95 0.4Q32.1 3.1 30.3 5.25Q27.5 8.65 23.7 9.2Q26 7.65 27.45 5.3Q29.05 4.4 30.45 2.95" />
<path style="fill:#C8C1BB;fill-opacity:1" d="M19.65,11.1Q21.9 10.4 23.7 9.2Q27.5 8.65 30.3 5.25Q32.1 3.1 32.95 0.4L33.1 0.9L33.25 2.15Q32.4 5.6 30.15 8.3Q26.95 12.3 21.55 12.9L19.65 11.1" />
<path style="fill:#F7F7F7;fill-opacity:1" d="M21.55,12.9Q26.95 12.3 30.15 8.3Q32.4 5.6 33.25 2.15L33.2 3.8Q33.1 5.6 32.25 7.85Q31.35 10.05 28.65 12.65Q25.95 15.25 20.45 16.75Q19.75 14.2 16.8 11.65L16.85 11.65L16.75 11.6L18.3 11.45L19.65 11.1L21.55 12.9" />
<path style="fill:#252525;fill-opacity:1" d="M4,-2.7L5.95 -3L6.55 -1.85L7.25 -1.25L8.15 -0.75L4.3 1.6Q3.5 0.75 2.15 0.4L0.45 0.25Q0.7 -1 1.85 -1.95L2.3 -2.3L4 -2.7M1.25,5.25L1.35 5.15L2.05 4.65L2.9 4.85Q4.6 5.45 5.05 6.95L7.8 4.7L10.5 1.95Q11.6 0.55 13.05 -0.2L13.2 0.55Q13.3 0.9 11.9 2.1L9.55 4.25L7.85 5.75L6.6 6.75L5.75 7.45L4.75 8.3Q4.5 7.55 3.9 6.75Q3.3 5.95 2.25 5.7L2.05 5.65L1 5.45L1.2 5.25L1.45 5.2L1.25 5.25M21.9,6.7Q21.05 5.6 19.4 4.8Q17.55 4 15.7 3.5L12.6 2.95L13.95 1.55Q20.85 3.15 27.5 1.35Q26.6 4.3 24.85 6.35L21.9 6.7M14.75,11.9Q10.15 9.3 8 8.95L6.1 8.4L7.1 7.75L9.4 8.4Q12.85 9.35 15.05 11.4L14.75 11.9M-2.1,10.2L0.75 10.25Q2.25 9.4 3.25 8.25L3.3 9.15L2.25 10.3L-0.45 11.45Q-2.15 12 -2.4 10.55L-2.4 9.85L-2.1 10.2M-2.8,7L-7.5 6.95Q-6.2 5.5 -1.95 6.3L-2.8 7" />
<path style="fill:#3A3838;fill-opacity:1" d="M2.3,3.05L0.2 2.25L-2.7 1.8Q-2.55 0.3 -1.3 -0.9L1.2 -1.95L2.3 -2.3L1.85 -1.95Q0.7 -1 0.45 0.25L2.15 0.4Q3.5 0.75 4.3 1.6L2.3 3.05M19.65,7.3L16.5 5.45Q14.7 4.65 12.85 4.25L11.45 4.05L12.6 2.95L15.7 3.5Q17.55 4 19.4 4.8Q21.05 5.6 21.9 6.7L24.85 6.35Q23.5 7.9 21.6 8.95L19.65 7.3" />
<path style="fill:#434242;fill-opacity:1" d="M-4.7,1.6L-3.65 0.65L-1.3 -0.9Q-2.55 0.3 -2.7 1.8L0.2 2.25L2.3 3.05L0.4 4.65L-1.3 4.1L-5.1 3.95L-4.7 1.6M9.45,5.9L11.45 4.05L12.85 4.25Q14.7 4.65 16.5 5.45L19.65 7.3L21.6 8.95L18.55 10.15L16.1 8.45Q14.5 7.5 12.8 6.8Q11.15 6.1 9.45 5.9" />
<path style="fill:#9C9C9C;fill-opacity:1" d="M10.45,-0.65Q10.1 0.9 8.4 2.1L4.4 4.45Q4.2 4.55 4.3 4.4Q6.65 1.3 10.2 -0.85L10.45 -0.65M12.8,6.8Q14.5 7.5 16.1 8.45L18.55 10.15L15.6 10.7Q12.4 8.3 9.3 7.5L7.9 7.2L9.45 5.9Q11.15 6.1 12.8 6.8M-5.1,3.95L-1.3 4.1L0.4 4.65L-0.1 5.1L-0.2 5.15L-0.35 5.3Q-5.5 4.25 -7.55 5.45L-7.55 5.35L-7.5 5.1Q-7.1 3.7 -4.7 1.6L-5.1 3.95M-1.05,9.75Q-2.25 8.3 0.1 7.2Q0.9 8.2 -0.6 9.7L-1.05 9.75" />
<path style="fill:#3F3E3E;fill-opacity:1" d="M10.2,-0.85Q6.65 1.3 4.3 4.4Q4.2 4.55 4.4 4.45L8.4 2.1Q10.1 0.9 10.45 -0.65L10.2 -0.85M10.5,1.95L7.8 4.7L5.05 6.95Q4.6 5.45 2.9 4.85L2.05 4.65Q2.4 4.3 3.05 3.85L3.2 3.7L4.9 2.45L7 0.95L8.7 -0.3Q9.1 -0.65 10.4 -1.05L12.4 -0.9L13.05 -0.2Q11.6 0.55 10.5 1.95M-2.4,9.85Q-2.35 8.8 -1.35 7.8Q-0.1 6.5 0.65 6.65L2.15 7Q2.9 7.25 3.25 8.25Q2.25 9.4 0.75 10.25L-2.1 10.2L-2.4 9.85M-0.6,9.7Q0.9 8.2 0.1 7.2Q-2.25 8.3 -1.05 9.75L-0.6 9.7" />
</g>
</svg>
