<?xml version="1.0" encoding="utf-8"?>
<svg version="1.1" id="Layer_1"
xmlns="http://www.w3.org/2000/svg"
xmlns:xlink="http://www.w3.org/1999/xlink"
xmlns:author="http://www.sothink.com"
width="43px" height="45px"
xml:space="preserve">
<g id="542" transform="matrix(1, 0, 0, 1, -1.2, 0)">
<path style="fill:#4A4131;fill-opacity:1" d="M19.7,20.4L19.3 20.45Q18.8 20.45 18.35 20L18.3 20.05L17.2 20.45L16.55 20.5L16.4 20.5L16.4 19.65L16.75 19.7L17.25 19.75L17.45 19.75L17.7 19.65L17.9 19.55L17.9 19.5L17.95 19.5L18.05 19.25L18.15 18.55L18.25 18.25L18.35 17.95L18.55 17.75Q18.7 17.55 18.6 17.75L18.55 18L18.55 18.15L18.5 18.55Q18.5 19 18.8 19.4L19.2 19.4L20.05 19.3L20.15 19.3L20.3 18L20.7 16.9L21.9 16.55Q21.15 17.65 21.2 19.55L21.2 19.65L19.75 20.4L19.7 20.4M20.05,25.45L20.05 25.4L20.35 24.85L21 25.9L22.05 27.85L22.4 27.9L22.5 27.9L23.65 28.2L25.05 28.65L26 29.05L26.6 29.15L26.8 29.05L27.2 28.95L28.35 28.85L28.4 28.85Q29.1 28.95 29.9 29.55L31.4 30.95L31.85 31.65Q32.1 32.2 31.95 32.75L31.3 33.95Q29.65 35.9 27.3 34.7L26.3 34.15Q25.35 33.45 25.2 32.8Q24.1 32.4 22.55 31.35L20.8 30Q20.15 29.75 19.85 29.45L18.65 28L18.65 27.95L18.25 27.35L18.65 27L19.2 27.85L20.4 29.05L21.15 28.95L21.3 28.8L21.45 28.6L21.55 28.15L20.05 25.45M8,23.7L7.55 23.8L7.2 23.9L7.2 23.8L7.4 23.2L7.45 23.15L8.25 22.95L8.05 23.55L8 23.7M4.75,39.4L5.55 40L5.45 40.1Q4.75 40.75 4.75 41.35L4.85 41.75Q5.25 42.1 6.35 42.3Q8 42.75 9.15 42.3Q10.35 42 9.8 41.45L9.8 41.4L10.65 41.45L10.8 42L10.45 42.6Q9.7 43.2 7.9 43.2L5.4 42.95L4.75 42.75L4.3 42.3Q4 42.05 4 41.35Q4.15 40.75 4.75 39.7L4.75 39.4M22.5,43.3L23.45 43.65L23.55 43.65L24.1 43.75L23.45 43.9L22.45 44.05L20.15 44.1L17.95 43.7Q17.55 43.35 17.55 42.85L17.3 42.85Q16.95 42.85 16.5 41.85Q16.2 40.75 16.5 39.2L17.65 38L17.15 39.45Q16.8 40.75 17.4 42L19.05 40.4L19.2 40.45L19.5 40.95Q19 41.2 18.45 41.75L18.45 41.85L18.1 42.2L17.95 42.55L18.75 43L20.3 43.3L22.5 43.3M20.2,36.45L19.9 36.75L19.1 37.35Q18.45 37.75 17.8 37.8L18.55 36.75L18.8 36.6L19.1 36.4L19.3 36.25L19.8 35.65L19.85 35.6L20.3 35.55L20.8 35.55L20.9 35.5L20.8 35.7Q20.8 36.2 20.25 36.4L20.2 36.45M28.7,34.5Q30 34.5 31.15 33.05L31.35 32.6L31.3 32.3L31.25 32.1L31 31.55Q30.25 30.3 28.6 29.75L28.3 29.65L27.85 29.55L27.4 29.55L26.9 29.75Q26.25 30.3 25.95 31.15L25.9 31.3Q25.5 32.35 26.1 33L26.3 33.25Q27.5 34.45 28.7 34.5M21.75,29.05L21.25 29.6L22.5 30.6L25.2 32.05Q25.15 31.55 25.4 31L26.05 29.85L24.6 29.1L22.75 28.6L22.15 28.5L21.85 28.95L21.75 29.05" />
<path style="fill:#B3A38A;fill-opacity:1" d="M17.45,19.75L17.25 19.75L16.75 19.7L16.4 19.65Q16.3 18.8 15.75 18.05L15.2 17.5L14.35 16.8L14.25 15.65Q14.1 14.4 14.4 13.4L14.8 13.55Q15.9 13.95 16.15 15.65L16.25 17L16.35 18L16.35 18.25Q16.45 19.15 17.1 19.4L17.45 19.4L17.45 19.5L17.45 19.75M16.65,12.5Q16.6 13.05 16.9 13.75Q17.4 14.8 18 15.25L19.5 15.5L20.4 15.15Q20.25 15.7 19.75 15.95L18.55 16.1Q17.75 16.1 17.1 15.15Q16.45 14.2 16.5 13.05Q16.5 12.65 16.65 12.5M19.35,19L20.05 19.3L19.2 19.4L18.8 19.4Q18.5 19 18.5 18.55L18.55 18.15L18.55 18Q18.75 18.7 19.35 19M8.05,23.55L8.25 22.95L8.95 22.8Q9.85 22.6 11 23.3L9.45 23.4L8 23.7L8.05 23.55M5.1,41.15L4.85 41.75L4.75 41.35Q4.75 40.75 5.45 40.1L5.55 40L6.2 40.35Q5.4 40.6 5.1 41.15M17.65,38L17.75 37.85L17.8 37.8Q18.45 37.75 19.1 37.35L20.8 37.25L20.8 37.55L20.65 37.65L19 38.2L18.95 39.15L19.05 40.4L17.4 42Q16.8 40.75 17.15 39.45L17.65 38M19.85,35.6L19.8 35.65L19.3 36.25L19.1 36.4L18.8 36.6L18.55 36.75L19.1 35.65L19.85 35.6M21.3,28.8L21.15 28.95L20.4 29.05L19.2 27.85L18.65 27L19.2 26.45L20.25 27.85L21.3 28.8M20.4,41.9L21.55 42.85L22.5 43.3L20.3 43.3L18.75 43L17.95 42.55L18.1 42.2L18.45 41.85L18.45 41.75Q19 41.2 19.5 40.95L19.6 41.15L19.75 41.2L20.4 41.9M31.15,32.5L30.45 32.3L29.6 31.9L28.1 31L27.8 30.85L27.7 30.75L27.1 31.2L26.6 32.1L26.3 33.25L26.1 33Q25.5 32.35 25.9 31.3L25.95 31.15Q26.25 30.3 26.9 29.75L27.4 29.55L27.85 29.55L28.3 29.65L28.6 29.75Q30.25 30.3 31 31.55L31.25 32.1L31.3 32.3L31.35 32.6L31.15 32.5M21.85,28.95L23.25 30Q24.35 30.7 25.4 31Q25.15 31.55 25.2 32.05L22.5 30.6L21.25 29.6L21.75 29.05L21.85 28.95" />
<path style="fill:#E9E7DA;fill-opacity:1" d="M20.05,19.3L20 18.75L19.95 18.1L20.05 18.05L20.1 18L20.1 17.95L20.1 17.85L20 17.75L19.95 17.75L20 17.1L19.9 17.05L19.8 17.05L19.8 16.95Q19.75 16.8 19.85 16.75L20.05 16.65L20.15 16.75L20.75 15.75L21.15 15L21.4 14.9L21.4 14.6L21.4 14.55L21.35 14.55L21.55 13.55L21.4 13.55L21.4 13.5L21.4 13.3L21.55 13.2L21.6 13.25L21.4 11.45L21.2 10.95L21.25 11L21.3 11L21.7 12Q22.3 13.3 22.1 14.3Q21.9 15.3 21.15 16.25L20.7 16.9L20.3 18L20.15 19.3L20.05 19.3M17.45,19.5L17.45 19.4L17.5 19.1L18 18.25L18.15 18.15L18.35 17.95L18.25 18.25L18.15 18.55L18.05 19.25L17.95 19.5L17.9 19.5L17.9 19.55L17.7 19.65L17.45 19.75L17.45 19.5M19.65,33.7L19.65 33.3L19.7 32.75L20.2 33.35L20.3 33.7L20.35 33.85L20.35 34.5L20.3 34.55L20.2 34.85L20.2 34.7L20.05 34.25L19.65 33.7M17.45,17.85L17.15 17.95L17.15 17.85L17.15 17.6L17.35 17.5L17.4 17.55L17.45 17.6L17.45 17.85M20.25,36.4Q20.8 36.2 20.8 35.7L20.9 35.5L21.1 34.55L21.1 34.45Q21.45 35.05 21.4 35.85L21.25 36.25L20.2 36.45L20.25 36.4M20.8,37.55L20.85 38.05Q20.85 38.65 21.4 39.3L21.35 39.7Q20.4 39.75 19.55 40.2Q19.75 40.05 20.05 39.85L20.7 39.15L20.65 38.1L20.65 37.65L20.8 37.55M24,42.6Q24 42 22.9 41.5Q21.9 41 20.65 41L19.75 41.2L19.6 41.15L19.5 40.95L19.55 40.95L21.25 40.6L23.25 40.95Q24.1 41.45 24.55 41.9Q25.05 42.3 24.45 42.75L24 43L24 42.6" />
<path style="fill:#625643;fill-opacity:1" d="M20.7,16.9L21.15 16.25Q21.9 15.3 22.1 14.3Q22.3 13.3 21.7 12L21.3 11L21.25 11L21.1 10.65L21 10.45L21.15 10.5L22.25 10.95Q23.05 12.6 22.95 13.9Q22.85 15.3 21.95 16.5L21.9 16.55L20.7 16.9M20.35,32.2L20.95 33.25Q21.95 33.85 22.1 34.8Q22.3 35.6 22.1 36.2L21.9 36.75L21.6 37.1L21.6 37.15Q21.6 37.85 21.9 38.4L22.25 39.3L22.25 39.75L22.85 40.05Q23.45 40.25 24.3 40.9L25.55 41.85Q25.95 42.3 25.6 43Q25.2 43.55 24.1 43.75L23.55 43.65L23.45 43.65L22.5 43.3L22.7 43.3L24 43L24.45 42.75Q25.05 42.3 24.55 41.9Q24.1 41.45 23.25 40.95L21.25 40.6L19.55 40.95L19.5 40.95L19.2 40.45L19.05 40.4L19.55 40.2Q20.4 39.75 21.35 39.7L21.4 39.3Q20.85 38.65 20.85 38.05L20.8 37.55L20.8 37.25L19.1 37.35L19.9 36.75L20.2 36.45L21.25 36.25L21.4 35.85Q21.45 35.05 21.1 34.45L21.1 34.55L20.9 35.5L20.8 35.55L20.3 35.55L19.85 35.6L20.2 34.85L20.3 34.55L20.35 34.5L20.35 33.85L20.3 33.7L20.2 33.35L19.7 32.75L19.65 31.8L19.7 31.7L20.35 32.2" />
<path style="fill:#7B705E;fill-opacity:1" d="M4.85,41.75L5.1 41.15Q5.4 40.6 6.2 40.35Q7.85 41.3 9.8 41.4L9.8 41.45Q10.35 42 9.15 42.3Q8 42.75 6.35 42.3Q5.25 42.1 4.85 41.75" />
<path style="fill:#CCC6B8;fill-opacity:1" d="M18.55,18L18.6 17.75Q18.7 17.55 18.55 17.75L18.35 17.95L18.15 18.15L18 18.25L17.5 19.1L17.45 19.4L17.1 19.4Q16.45 19.15 16.35 18.25L16.35 18L16.25 17L16.15 15.65Q15.9 13.95 14.8 13.55L14.4 13.4Q14.9 11.55 16.65 10.35Q17.4 9.8 18.15 9.85L19.2 9.9L20.35 10.2L21 10.45L21.1 10.65L21.25 11L21.2 10.95L21.4 11.45L21.6 13.25L21.55 13.2L21.4 13.3L21.4 13.5L21.4 13.55L21.55 13.55L21.35 14.55L21.4 14.55L21.4 14.6L21.4 14.9L21.15 15L20.75 15.75L20.15 16.75L20.05 16.65L19.85 16.75Q19.75 16.8 19.8 16.95L19.8 17.05L19.9 17.05L20 17.1L19.95 17.75L20 17.75L20.1 17.85L20.1 17.95L20.1 18L20.05 18.05L19.95 18.1L20 18.75L20.05 19.3L19.35 19Q18.75 18.7 18.55 18M16.5,13.05Q16.45 14.2 17.1 15.15Q17.75 16.1 18.55 16.1L19.75 15.95Q20.25 15.7 20.4 15.15L20.45 14.95L20.8 13.9Q21 13.1 20.45 12.2Q19.9 11.25 19.05 11.15L18.65 11.15Q17.55 11.05 16.95 11.8L16.7 12.25L16.65 12.5Q16.5 12.65 16.5 13.05M19.1,35.65L19.65 33.7L20.05 34.25L20.2 34.7L20.2 34.85L19.85 35.6L19.1 35.65M21.55,28.15L21.45 28.6L21.3 28.8L20.25 27.85L19.2 26.45L20.05 25.45L21.55 28.15M17.45,17.6L17.4 17.55L17.35 17.5L17.15 17.6L17.15 17.85L17.15 17.95L17.45 17.85L17.45 17.6M20.65,37.65L20.65 38.1L20.7 39.15L20.05 39.85Q19.75 40.05 19.55 40.2L19.05 40.4L18.95 39.15L19 38.2L20.65 37.65M19.75,41.2L20.65 41Q21.9 41 22.9 41.5Q24 42 24 42.6L24 43L22.7 43.3L22.5 43.3L21.55 42.85L20.4 41.9L19.75 41.2M31.35,32.6L31.15 33.05Q30 34.5 28.7 34.5Q27.5 34.45 26.3 33.25L26.6 32.1L27.1 31.2L27.7 30.75L27.8 30.85L28.1 31L29.6 31.9L30.45 32.3L31.15 32.5L31.35 32.6M23.25,30L21.85 28.95L22.15 28.5L22.75 28.6L24.6 29.1L26.05 29.85L25.4 31Q24.35 30.7 23.25 30" />
<path style="fill:#3A3634;fill-opacity:1" d="M35.45,17.55L33.95 20.15L32.65 22.45L32.5 22.7L30.65 26L30 25.45L36.45 13.8L43.7 12.5L43.45 16.6L43.15 19.75L34.55 28.8L34 28.25L36.6 25.45L36.85 25.2L37.4 24.65L40.55 21.15L40.75 21L41.65 20L42.25 19.25L42.55 16.25L42.65 13.7L42.65 13.65L42.6 13.7L40.15 14.15L37.3 14.7L36.5 15.9L35.45 17.55" />
<path style="fill:#F5F1EE;fill-opacity:1" d="M41.6,19.15L41.35 15.4L41.35 15.35L42.6 13.7L42.65 13.65L42.65 13.7L42.55 16.25L42.25 19.25L41.65 20L41.6 19.15" />
<path style="fill:#BFBBB8;fill-opacity:1" d="M35.6,22.8L41.3 15.45L41.35 15.4L41.6 19.15L41.65 20L40.75 21L40.55 21.15L37.4 24.65L36.85 25.2L36.6 25.45L35.6 22.8" />
<path style="fill:#E0D8D4;fill-opacity:1" d="M36.5,15.9L37.3 14.7L40.15 14.15L42.6 13.7L41.35 15.35L41.3 15.45L36.5 15.9" />
<path style="fill:#312D23;fill-opacity:1" d="M22.65,9.65L22.6 9.45Q24.3 8.7 24.75 7L24.8 6.75L24.9 6.45L24.85 5.05L24.7 4.55L24.5 5.05Q23.35 6.45 21.65 7.3L21.55 7.35L21.15 6.9L21.1 6.8L22.35 6.1L23.9 4.55L24.5 3.3L25.2 4.1L25.6 5.05L25.65 5.45Q25.8 7.75 24.1 9.45L22.85 10.2L22.65 9.65" />
<path style="fill:#F0EAC6;fill-opacity:1" d="M22.05,7.6L21.75 7.8L21.55 7.35L21.65 7.3Q23.35 6.45 24.5 5.05L24.7 4.55L24.85 5.05Q24.1 6.35 22.05 7.6M22.45,9.1L23.35 8.6Q24.5 7.9 24.75 7Q24.3 8.7 22.6 9.45L22.5 9.25L22.45 9.1M7,8.4L7.35 8.75L8.15 9.25L8.65 9.5L8.9 9.6L9.15 9.7L9.25 9.75L9.75 9.9L10.75 10.15L11.25 10.2L11.5 10.2L11.3 10.25L11.1 10.3L11.05 10.3L10.85 10.35L9.25 10.1L8.8 9.95L8.75 9.95L8 9.55L7.25 8.95L6.7 8.3L6.15 7.2L7 8.4M6,5.4Q6.1 4.7 6.45 3.95Q6.65 3.4 7 2.8L7.25 2.35L7.25 3.1L7.4 4.2Q7.65 4.95 8.2 5.7L9 6.35L9.05 6.4L9.8 6.8L10.2 7L11.35 7.3L12.55 7.45Q13.25 7.7 13.2 8.4L12.65 8.85L11.2 9.1L10.85 9.05L10.45 8.9L10.1 8.75L8.95 7.85L8.85 7.8L8.8 8.05L8.8 8.2L8.85 8.55L8.6 8.55L8.5 8.5L7.75 8.05Q6.7 7.3 6.15 5.9L6.1 5.8L6 5.4M7.1,3.7L7 3.7L6.9 4.05L6.9 4.8Q7 5.75 7.9 6.4L8 6.45L8.6 6.85L9.45 7.2L8.8 6.6L8.6 6.4L8 5.75L7.2 4.4L7.1 3.7" />
<path style="fill:#545454;fill-opacity:1" d="M18.25,4.8L18.6 4.25L19.6 3.35L20.6 2.65Q19.7 1.15 16.7 0.8Q14.2 0.5 11.5 1.6L10.25 2.15L9.25 2.7L9.15 2.8L8 3.65L7.85 2.7L7.85 2.6Q8.45 2.05 9.2 1.65L9.35 1.55Q10.55 0.85 11.95 0.55L13.1 0.25L15.5 0L16.4 0.05L18.9 0.55Q20.1 1.05 20.95 1.9L21.7 2.9L21.7 2.95Q20.7 3.2 19.75 4L18.85 4.9L18.8 5L18.25 4.8M4.45,12.5L6.3 12.4L6.3 13.3L3.7 13.35L3.7 12.05Q3.85 9.85 4.7 7.15L5.35 5.55L5.35 5.7L5.6 7.2Q4.45 10.4 4.45 12.5" />
<path style="fill:#9D8E79;fill-opacity:1" d="M24.85,5.05L24.9 6.45L24.8 6.75L24.75 7Q24.5 7.9 23.35 8.6L22.45 9.1L22.1 8.55L22.05 8.3L21.85 7.9L21.8 7.85L21.75 7.8L22.05 7.6Q24.1 6.35 24.85 5.05M6.15,7.2L6 6.2L5.95 5.9L6 5.4L6.1 5.8L6.15 5.9Q6.7 7.3 7.75 8.05L8.5 8.5L8.6 8.55L8.85 8.55L8.8 8.2L8.8 8.05L8.85 7.8L8.95 7.85L10.1 8.75L10.45 8.9L10.85 9.05L11.2 9.1L12.65 8.85L13.2 8.4L12.95 9.25L12.6 9.7Q12.45 9.95 11.5 10.2L11.25 10.2L10.75 10.15L9.75 9.9L9.25 9.75L9.15 9.7L8.9 9.6L8.65 9.5L8.15 9.25L7.35 8.75L7 8.4L6.15 7.2" />
<path style="fill:#4E1C10;fill-opacity:1" d="M9.55,5.95L9.85 5.7L10.55 5.2L11.5 4.75Q12.95 4.15 14.8 4.05L17.2 4.4L18.25 4.8L18.8 5L19.1 5.2L20.4 6.05L20.95 6.65L21.1 6.8L21.15 6.9L21.55 7.35L21.75 7.8L21.8 7.85L21.85 7.9L22.05 8.3L22.1 8.55L22.45 9.1L22.5 9.25L22.6 9.45L22.65 9.65L22.85 10.2L23 10.9L23 11.15L22.85 11.15L22.25 10.95L21.15 10.5L21 10.45L20.35 10.2L19.2 9.9L18.15 9.85Q17.4 9.8 16.65 10.35Q14.9 11.55 14.4 13.4Q14.1 14.4 14.25 15.65L14.35 16.8L13.55 16.35L13.4 14.85L13.6 13.25Q13.95 11.85 14.9 10.9L15.45 10.4L16.4 9.7L16.75 9.55Q17.1 9.35 17.45 9.25L18.9 9.1L19.4 9.15L20.35 9.35L20.45 9.35L21.3 9.6L21.6 9.7L21.65 9.7L21.3 8.75L21.05 8.2L20.7 7.65L20.45 7.4L20.05 6.95L19.55 6.45Q19.15 6.1 18.35 5.7Q17.55 5.25 16.9 5.15L15.25 4.9L12.8 5.2L10.8 6L10.55 6.2L10.3 6.4L9.55 5.95M19.1,21.55L18.3 20.05L18.35 20Q18.8 20.45 19.3 20.45L19.7 20.4L19.75 20.4L20.15 21.3L20.35 21.9Q20.85 23.5 20.35 24.85L20.05 25.4L20.05 25.45L19.2 26.45L18.65 27L18.25 27.35L18.65 27.95L18.65 28Q19.45 29.45 19.65 31.25L19.7 31.7L19.65 31.8L19.7 32.75L19.65 33.3L19.65 33.7L19.1 35.65L18.55 36.75L17.8 37.8L17.75 37.85L17.65 38L16.5 39.2Q14.4 41 11.55 41.35L10.65 41.45L9.8 41.4Q7.85 41.3 6.2 40.35L5.55 40L4.75 39.4L2.7 37.3Q1.5 35.6 1.25 33.4L1.25 33.15L1.25 31.65Q1.4 28.95 3.25 26.75Q4.65 24.9 6.75 24.05L7.2 23.9L7.55 23.8L8 23.7L9.45 23.4L11 23.3L12.5 23.45L13.45 23.7L14.15 23.95L14.4 23.25Q15.7 22.65 15.6 20.9L15.55 20.65Q15.4 19.8 14.75 19.4L14.55 19.25L14.35 19.2L13.75 19L11.15 18.55L9.95 18.15L10.1 18L10.8 17.85L11.85 17.75L13.15 17.9L13.85 18.15L14.15 18.25L14.6 18.5L14.9 18.7L15.2 18.9L15.3 19L15.2 18.85Q15.8 19.25 16.2 20.45L16.35 20.9L16.3 21.05L16.3 21.2L16.3 21.35L16.3 21.45Q16.35 22.65 15.25 23.5L14.55 23.95L14.3 24.05Q14.75 24.2 15.2 24.5L16.25 25.2L17.5 26.4L17.65 26.55L17.7 26.45L18.15 26.05L18.65 25.55L18.75 25.5L19.4 24.6L19.65 23.75L19.5 22.5L19.2 21.7L19.1 21.55M7,9.6L7.8 10.15L7.45 11.15L7.25 12.35L7.25 13.05L7.45 14.7L8 17.1L8.35 17.9L7.55 17.95L7.1 16.8L6.35 13.85L6.3 13.3L6.3 12.4Q6.45 11 7 9.6M2.05,32.45L2.1 33.2Q2.3 34.75 3 36.1Q3.75 37.6 5.25 38.65L5.35 38.75L5.85 39.1L5.9 39.15L7.05 39.75L8 40.1L10.3 40.5L11.45 40.45Q14.75 39.95 16.8 37.55L16.9 37.4L17.3 36.95Q18.45 35.3 18.75 33.5L18.85 32.95L18.85 32.45L18.85 32.35L18.75 31.7L18.75 31.35L18.6 30.45Q18.3 29.1 17.55 28L16.95 27.2L16.95 27.15L16.05 26.3L14.45 25.2L13.45 24.75L12.85 24.55L12.7 24.5L12.15 24.4L12.05 24.35L10 24.25L9.3 24.3L7.8 24.7L7.4 24.8L7.05 24.95L6.65 25.05Q5.25 25.7 4.1 27Q2.7 28.55 2.25 30.4L2.05 32.45" />
<path style="fill:#EE7557;fill-opacity:1" d="M20.2,8.8L20.3 8.75L20.35 8.55L20.25 8.25L20 8.1L19.85 8.15L19.15 7.2L19.2 7.15L19.05 6.95L18.8 6.65L18.7 6.45L18.6 6.45L18.55 6.45L18.35 6.5Q17.35 5.7 15.95 5.65L15.85 5.65L15.75 5.65L14.95 5.65L14.95 5.55L14.8 5.45L14.7 5.4Q14.55 5.4 14.5 5.5L14.45 5.65L14.2 5.7L12.6 5.9Q11.75 6.05 11.2 6.45L10.95 6.6L10.85 6.55L10.3 6.4L10.55 6.2L10.8 6L12.8 5.2L15.25 4.9L16.9 5.15Q17.55 5.25 18.35 5.7Q19.15 6.1 19.55 6.45L20.05 6.95L20.45 7.4L20.7 7.65L21.05 8.2L21.3 8.75L21.65 9.7L21.6 9.7L21.3 9.6L20.45 9.35L20.2 8.8M17.35,7.65L17.35 7.8L17.2 7.9L17.1 8L17.05 7.95L17 7.95L16.95 7.9L16.85 7.9L16.45 7.9L16.45 7.85L16.4 7.85L16.45 7.7L16.8 7.5L16.95 7.5L17.15 7.45L17.25 7.5L17.35 7.65M14.55,19.35L14.55 19.7L14.55 19.85L14.35 19.75L13.6 19.5L12.2 19.2L12.1 19.15L11.4 18.75L11 18.55L11.15 18.55L13.75 19L14.35 19.2L14.55 19.25L14.55 19.35M17.1,28.35L16.45 27.65L16.2 27.45L16.05 27.3L15.9 27.4Q15.45 27.45 15.25 27.05L15.15 26.65Q14.55 26.25 14 26L13.15 25.65Q12.85 25.95 12.2 25.85L12.15 25.85L11.55 25.65L11.1 25.45L11.1 25.3L11.1 25.25L9.9 25.35L7.9 25.85L7.9 25.7L7.9 25.65L7.85 25.55L7.7 25.45L7.55 25.45L7.45 25.4L7.2 25.55L7 25.95L7.05 26.05L7.05 26.2L6.95 26.25Q6.05 26.6 5.2 27.2L5.25 27.3L5.3 27.4L4.95 27.8Q4.7 27.95 4.6 27.7L4.15 28.1L2.25 30.4Q2.7 28.55 4.1 27Q5.25 25.7 6.65 25.05L7.05 24.95L7.4 24.8L7.8 24.7L9.3 24.3L10 24.25L12.05 24.35L12.15 24.4L12.7 24.5L12.85 24.55L13.45 24.75L14.45 25.2L16.05 26.3L16.95 27.15L16.95 27.2L17.55 28Q18.3 29.1 18.6 30.45L17.1 28.35M9.3,24.55Q8.9 24.8 9.25 24.85Q9.7 25 9.45 24.65L9.3 24.55M19.2,21.7L19.5 22.5L19.65 23.75L19.4 24.6L18.75 25.5L18.65 25.55L18.15 26.05L17.7 26.45L17.65 26.55L17.5 26.4L17.6 26.3L17.7 26.15L18 25.75L18.5 24.5L18.6 23.9L18.45 23.95L17.65 24.05L18.35 23.4L18.4 23.3L18.6 23L18.9 22.55L19.2 21.7M17.4,30.05L17.4 30.35L17.45 30.5L16.9 30.6L16.75 30.6L16.7 30.45L16.7 30.3L16.7 30.15L16.7 30.05L16.8 29.95L16.9 29.85L17.1 29.85Q17.25 29.8 17.4 30.05M8.2,26.45L7.95 26.8Q7.6 26.85 7.45 26.6L7.45 26.55L7.55 26.45L7.65 26.35L7.95 26.2L8.2 26.35L8.2 26.45M3.6,30.25Q3.55 30.1 3.65 30.05Q3.75 29.95 3.8 29.95L4.05 29.85L4.15 30Q4.3 30.35 3.85 30.45L3.6 30.25" />
<path style="fill:#BB482E;fill-opacity:1" d="M14.7,10.7L11.95 11.55L12 11.95L11.95 11.95L11.9 12L11.75 11.9L11.65 11.8L11.55 11.85L11.45 11.85L11.4 11.8Q11.25 11.65 11.1 11.65L10.55 11.65L9.55 11.5L9.1 11.45L8.95 11.35L8.85 11.15L8.6 10.85L8.35 10.55L8.5 10.5L8.9 10.65L11 10.95L11.25 10.9L12.6 10.45L12.75 10.4L13.4 9.75L13.85 8.8Q13.95 8.1 13.6 7.6Q13.15 7 12.55 6.9L11.75 6.65L11.4 6.65L10.95 6.6L11.2 6.45Q11.75 6.05 12.6 5.9L14.2 5.7L14.45 5.65L14.5 5.5Q14.55 5.4 14.7 5.4L14.8 5.45L14.95 5.55L14.95 5.65L15.75 5.65L15.85 5.65L15.95 5.65Q17.35 5.7 18.35 6.5L18.55 6.45L18.6 6.45L18.7 6.45L18.8 6.65L19.05 6.95L19.2 7.15L19.15 7.2L19.85 8.15L20 8.1L20.25 8.25L20.35 8.55L20.3 8.75L20.2 8.8L20.45 9.35L20.35 9.35L19.4 9.15L18.9 9.1L17.45 9.25Q17.1 9.35 16.75 9.55L16.4 9.7L15.45 10.4L14.7 10.7M17.25,7.5L17.15 7.45L16.95 7.5L16.8 7.5L16.45 7.7L16.4 7.85L16.45 7.85L16.45 7.9L16.85 7.9L16.95 7.9L17 7.95L17.05 7.95L17.1 8L17.2 7.9L17.35 7.8L17.35 7.65L17.25 7.5M8.65,14.7Q8.85 14.65 8.8 14.8L8.85 15.05L8.8 15.15L8.65 15.15L8.4 15.15L8.35 15.15L8.3 14.95L8.4 14.75L8.45 14.7L8.55 14.7L8.65 14.7M4.05,34L3.95 33.9L4.15 33.7L4 33.25L3.8 33.15Q3.5 33.2 3.5 33.5L3.5 33.65L3.35 33.55L3.2 33.55L2.9 33.6L2.8 33.6L2.75 33.45L2.7 33.25L2.75 33.15L2.8 33.1L2.05 32.45L2.25 30.4L4.15 28.1L4.6 27.7Q4.7 27.95 4.95 27.8L5.3 27.4L5.25 27.3L5.2 27.2Q6.05 26.6 6.95 26.25L7.05 26.2L7.05 26.05L7 25.95L7.2 25.55L7.45 25.4L7.55 25.45L7.7 25.45L7.85 25.55L7.9 25.65L7.9 25.7L7.9 25.85L9.9 25.35L11.1 25.25L11.1 25.3L11.1 25.45L11.55 25.65L12.15 25.85L12.2 25.85Q12.85 25.95 13.15 25.65L14 26Q14.55 26.25 15.15 26.65L15.25 27.05Q15.45 27.45 15.9 27.4L16.05 27.3L16.2 27.45L16.45 27.65L17.1 28.35L18.6 30.45L18.75 31.35L18.75 31.7L18.85 32.35L18.85 32.45L18.75 32.5L17.8 33.1L17.8 33.15L17.7 33.4L17.1 33.5L16.95 33.5Q16.5 33.65 16.1 33.9L16.25 33.2L16.3 32.85L16.25 31.65L16.1 30.85L16 30.45L15.45 29.2L14.65 28.25L14.15 27.85Q13.3 27.25 12.35 26.9L11.8 26.8L10.05 26.75L9.85 26.75L9.55 26.8L8.65 26.9L8.35 27.05L8.1 27.15Q6.85 27.7 6 28.8Q4.45 30.65 4.7 33L4.75 33.15L5.1 34.5L4.05 34M9.45,24.65Q9.7 25 9.25 24.85Q8.9 24.8 9.3 24.55L9.45 24.65M10.55,14.4L10.55 14L10.8 13.75L11 13.9L11 14.2L11 14.45L10.85 14.45L10.6 14.45L10.55 14.4M14.45,20.2L14.1 20.65L13.65 20.6L13.15 20L13 19.85L12.2 19.2L13.6 19.5L14.35 19.75L14.55 19.85L14.45 20.2M19.2,21.7L18.9 22.55L18.6 23L18.4 23.3L18.35 23.4L17.65 24.05L18.45 23.95L18.6 23.9L18.5 24.5L18 25.75L17.7 26.15L17.6 26.3L17.5 26.4L16.25 25.2L15.2 24.5L15.25 24.4L16.4 23.6L16.55 23.5L17.05 22.9Q17.45 21.8 18.1 21.65L19.1 21.55L19.2 21.7M17.1,29.85L16.9 29.85L16.8 29.95L16.7 30.05L16.7 30.15L16.7 30.3L16.7 30.45L16.75 30.6L16.9 30.6L17.45 30.5L17.4 30.35L17.4 30.05Q17.25 29.8 17.1 29.85M17.55,31.35L17.35 31.25L17 31.4L16.8 31.5L16.75 31.65L16.8 31.75L16.9 31.85L17.15 31.85L17.55 31.4L17.55 31.35M16.65,35.55L16.9 35.65Q17.1 35.95 16.7 35.85Q16.3 35.75 16.65 35.55M8.2,26.35L7.95 26.2L7.65 26.35L7.55 26.45L7.45 26.55L7.45 26.6Q7.6 26.85 7.95 26.8L8.2 26.45L8.2 26.35M3.85,30.45Q4.3 30.35 4.15 30L4.05 29.85L3.8 29.95Q3.75 29.95 3.65 30.05Q3.55 30.1 3.6 30.25L3.85 30.45M2.85,32.45Q3.55 32.7 3.6 32.15L3.45 32L3.35 31.95L2.85 32.05Q2.65 32.1 2.7 32.35L2.85 32.45M5.05,36.15L5.25 36.65L5.2 36.95L4.9 36.95L4.45 36.6L4.35 36.3L4.4 36.25L4.5 36.2L4.75 36.1L5.05 36.15M9.15,38.55L9.7 38.75L9.75 38.9L9.8 39Q9.6 39.5 8.9 39.45L8.7 39.4L8.65 39.25L8.6 38.95L8.65 38.85L8.7 38.75L8.9 38.65L9.15 38.55M6.05,37.8L6.1 37.8L6.15 37.85Q6.5 38.25 5.95 38.1L5.8 38.1Q5.75 38 6.05 37.8M12.3,38.55L12.25 38.45L12.35 38.25L12.55 38.05L12.7 38.15Q12.9 38.4 12.65 38.5L12.3 38.55" />
<path style="fill:#3C3326;fill-opacity:1" d="M19.5,15.5L18 15.25Q17.4 14.8 16.9 13.75Q16.6 13.05 16.65 12.5L16.7 12.25L16.95 11.8Q17.55 11.05 18.65 11.15L19.05 11.15Q19.9 11.25 20.45 12.2Q21 13.1 20.8 13.9L20.45 14.95L20.4 15.15L19.5 15.5M17.6,11.9Q17.1 12.35 17.4 13.5Q18.1 15.45 19.95 14.65L20.1 13.8L20 12.85Q19.75 12 18.8 11.7L17.6 11.9" />
<path style="fill:#ACA49F;fill-opacity:1" d="M35.6,22.8L35.55 22.9L32.5 22.7L32.65 22.45L33.95 20.15L35.45 17.55L36.5 15.9L41.3 15.45L35.6 22.8" />
<path style="fill:#766D67;fill-opacity:1" d="M36.6,25.45L34 28.25L32.3 27.15L32.2 27.05L30.65 26L32.5 22.7L35.55 22.9L35.6 22.8L36.6 25.45" />
<path style="fill:#BFBFBF;fill-opacity:1" d="M10,4.5L10.55 5.2L9.85 5.7L9.55 5.95L9.5 5.9Q8.8 5.45 8.4 4.65L8 3.65L9.15 2.8L9.25 2.7Q9.45 3.7 10 4.5M14.8,4.05Q12.95 4.15 11.5 4.75L11.2 3.35Q11.2 2.65 12.15 2.1Q13 1.55 14.45 1.65L18.75 2.2Q18.15 2.7 17.6 3.75L17.2 4.4L14.8 4.05" />
<path style="fill:#F0F0F0;fill-opacity:1" d="M9.25,2.7L10.25 2.15L11.5 1.6Q14.2 0.5 16.7 0.8Q19.7 1.15 20.6 2.65L19.6 3.35L18.6 4.25L18.25 4.8L17.2 4.4L17.6 3.75Q18.15 2.7 18.75 2.2L14.45 1.65Q13 1.55 12.15 2.1Q11.2 2.65 11.2 3.35L11.5 4.75L10.55 5.2L10 4.5Q9.45 3.7 9.25 2.7" />
<path style="fill:#3E3A2F;fill-opacity:1" d="M9.55,5.95L10.3 6.4L10.85 6.55L10.95 6.6L11.4 6.65L11.75 6.65L12.55 6.9Q13.15 7 13.6 7.6Q13.95 8.1 13.85 8.8L13.4 9.75L12.75 10.4L12.6 10.45L11.25 10.9L11 10.95L8.9 10.65L8.5 10.5L7.8 10.15L7 9.6L6.8 9.4L5.8 7.85L5.6 7.2L5.35 5.7L5.35 5.55Q5.4 4.75 5.7 4.05L6.35 2.75L7.7 1.25L7.85 2.6L7.85 2.7L8 3.65L8.4 4.65Q8.8 5.45 9.5 5.9L9.55 5.95M12.55,7.45L11.35 7.3L10.2 7L9.8 6.8L9.05 6.4L9 6.35L8.2 5.7Q7.65 4.95 7.4 4.2L7.25 3.1L7.25 2.35L7 2.8Q6.65 3.4 6.45 3.95Q6.1 4.7 6 5.4L5.95 5.9L6 6.2L6.15 7.2L6.7 8.3L7.25 8.95L8 9.55L8.75 9.95L8.8 9.95L9.25 10.1L10.85 10.35L11.05 10.3L11.1 10.3L11.3 10.25L11.5 10.2Q12.45 9.95 12.6 9.7L12.95 9.25L13.2 8.4Q13.25 7.7 12.55 7.45" />
<path style="fill:#8C331D;fill-opacity:1" d="M11.7,15.95Q10.6 15.85 9.6 16.3Q8.7 16.65 8.9 17.6L9.05 18.05L8.35 17.9L8 17.1L7.45 14.7L7.25 13.05L7.25 12.35L7.45 11.15L7.8 10.15L8.5 10.5L8.35 10.55L8.6 10.85L8.85 11.15L8.95 11.35L9.1 11.45L9.55 11.5L10.55 11.65L11.1 11.65Q11.25 11.65 11.4 11.8L11.45 11.85L11.55 11.85L11.65 11.8L11.75 11.9L11.9 12L11.95 11.95L12 11.95L11.95 11.55L14.7 10.7L15.45 10.4L14.9 10.9Q13.95 11.85 13.6 13.25L13.4 14.85L13.55 16.35L11.7 15.95M19.1,21.55L18.1 21.65Q17.45 21.8 17.05 22.9L16.55 23.5L16.4 23.6L15.25 24.4L15.2 24.5Q14.75 24.2 14.3 24.05L14.55 23.95L15.25 23.5Q16.35 22.65 16.3 21.45L16.3 21.35L16.3 21.2L16.3 21.05L16.35 20.9L16.4 20.5L16.55 20.5L17.2 20.45L18.3 20.05L19.1 21.55M8.55,14.7L8.45 14.7L8.4 14.75L8.3 14.95L8.35 15.15L8.4 15.15L8.65 15.15L8.8 15.15L8.85 15.05L8.8 14.8Q8.85 14.65 8.65 14.7L8.55 14.7M13.65,20.6L14.1 20.65L14.45 20.2L14.55 19.85L14.55 19.7L14.55 19.35L14.55 19.25L14.75 19.4Q15.4 19.8 15.55 20.65L15.6 20.9Q15.7 22.65 14.4 23.25L14.25 23.3Q14.65 21.8 13.65 20.6M5.1,34.5Q5.65 35.8 6.95 36.75L7.35 37.05L8.05 37.45L8.8 37.75L11.2 38L11.75 37.9L12.55 37.7L14.2 36.75L14.75 36.25L15.1 35.8L15.2 35.7L15.95 34.4L16.1 33.9Q16.5 33.65 16.95 33.5L17.1 33.5L17.7 33.4L17.8 33.15L17.8 33.1L18.75 32.5L18.85 32.45L18.85 32.95L18.75 33.5Q18.45 35.3 17.3 36.95L16.9 37.4L16.8 37.55Q14.75 39.95 11.45 40.45L10.3 40.5L8 40.1L7.05 39.75L5.9 39.15L5.85 39.1L5.35 38.75L5.25 38.65Q3.75 37.6 3 36.1Q2.3 34.75 2.1 33.2L2.05 32.45L2.8 33.1L2.75 33.15L2.7 33.25L2.75 33.45L2.8 33.6L2.9 33.6L3.2 33.55L3.35 33.55L3.5 33.65L3.5 33.5Q3.5 33.2 3.8 33.15L4 33.25L4.15 33.7L3.95 33.9L4.05 34L5.1 34.5M10.6,14.45L10.85 14.45L11 14.45L11 14.2L11 13.9L10.8 13.75L10.55 14L10.55 14.4L10.6 14.45M17.55,31.4L17.15 31.85L16.9 31.85L16.8 31.75L16.75 31.65L16.8 31.5L17 31.4L17.35 31.25L17.55 31.35L17.55 31.4M16.7,35.85Q17.1 35.95 16.9 35.65L16.65 35.55Q16.3 35.75 16.7 35.85M2.7,32.35Q2.65 32.1 2.85 32.05L3.35 31.95L3.45 32L3.6 32.15Q3.55 32.7 2.85 32.45L2.7 32.35M4.75,36.1L4.5 36.2L4.4 36.25L4.35 36.3L4.45 36.6L4.9 36.95L5.2 36.95L5.25 36.65L5.05 36.15L4.75 36.1M8.9,38.65L8.7 38.75L8.65 38.85L8.6 38.95L8.65 39.25L8.7 39.4L8.9 39.45Q9.6 39.5 9.8 39L9.75 38.9L9.7 38.75L9.15 38.55L8.9 38.65M5.8,38.1L5.95 38.1Q6.5 38.25 6.15 37.85L6.1 37.8L6.05 37.8Q5.75 38 5.8 38.1M12.65,38.5Q12.9 38.4 12.7 38.15L12.55 38.05L12.35 38.25L12.25 38.45L12.3 38.55L12.65 38.5" />
<path style="fill:#4F4536;fill-opacity:1" d="M18.8,11.7Q19.75 12 20 12.85L20.1 13.8L19.95 14.65Q18.1 15.45 17.4 13.5Q17.1 12.35 17.6 11.9L18.8 11.7" />
<path style="fill:#FFFCEE;fill-opacity:1" d="M7.2,4.4L8 5.75L8.6 6.4L8.8 6.6L9.45 7.2L8.6 6.85L8 6.45L7.9 6.4Q7 5.75 6.9 4.8L6.9 4.05L7 3.7L7.1 3.7L7.2 4.4" />
<path style="fill:#999A9C;fill-opacity:1" d="M6.3,12.4L4.45 12.5Q4.45 10.4 5.6 7.2L5.8 7.85L6.8 9.4L7 9.6Q6.45 11 6.3 12.4" />
<path style="fill:#792E0A;fill-opacity:1" d="M14.25,23.3L14.4 23.25L14.15 23.95L13.45 23.7L12.5 23.45L11 23.3Q9.85 22.6 8.95 22.8L8.25 22.95L7.45 23.15L7.4 23.2L6.75 23.15Q6.35 22.95 6.2 22.1L6.05 21.5L6.05 20.65L6.05 20.45L6.35 19.2Q6.75 18.2 7.35 18L7.55 17.95L8.35 17.9L9.05 18.05L8.9 17.6Q8.7 16.65 9.6 16.3Q10.6 15.85 11.7 15.95L13.55 16.35L14.35 16.8L15.2 17.5L15.75 18.05Q16.3 18.8 16.4 19.65L16.4 20.5L16.35 20.9L16.2 20.45Q15.8 19.25 15.2 18.85L15.1 18.6L14.95 18.45L14.8 18.25L14.55 17.95L13.65 17.25L13.6 17.2Q12.2 16.5 10.45 16.9L9.7 17.1L9.7 17.5L9.7 17.6L9.85 17.95L9.95 18.05L10.1 18L9.95 18.15L11.15 18.55L11 18.55L11.4 18.75L12.1 19.15L12.2 19.2L13 19.85L13.15 20L13.65 20.6Q14.65 21.8 14.25 23.3M7.05,22.4Q7.5 22.15 8.2 22.05L8.7 21.95L9.05 21.9L9.5 21.9L9.8 21.95Q10.6 22 11.45 22.4L12.6 23.05L13.2 23.55L13.25 23.6L13.5 23.15L13.45 22.35L13.3 22L13.3 21.95Q13 21.15 12.2 20.4L12.15 20.3L11.55 19.85L11.4 19.75Q11 19.5 10.55 19.35L10.4 19.3L9.9 19.1Q8.4 18.55 7.85 18.85L7.8 18.85L7.25 19.3L7.2 19.5L7 20L7 20.1L6.9 21.15L7.05 22.4M15.95,34.4L15.2 35.7L15.1 35.8L14.75 36.25L14.2 36.75L12.55 37.7L11.75 37.9L11.2 38L8.8 37.75L8.05 37.45L7.35 37.05L6.95 36.75Q5.65 35.8 5.1 34.5L4.75 33.15L4.7 33Q4.45 30.65 6 28.8Q6.85 27.7 8.1 27.15L8.35 27.05L8.65 26.9L9.55 26.8L9.85 26.75L10.05 26.75L11.8 26.8L12.35 26.9Q13.3 27.25 14.15 27.85L14.65 28.25L15.45 29.2L16 30.45L16.1 30.85L16.25 31.65L16.3 32.85L16.25 33.2L16.1 33.9L15.95 34.4M5.75,32.8Q5.9 34.1 6.7 35.05L7.6 35.95L8.5 36.5L9.75 36.9L10.5 37L11.05 36.95L11.35 36.9L13.1 36.15L14.1 35.2L14.4 34.85L14.7 34.35L14.9 33.95L15.15 32.6L15.15 32L15.15 31.8L15 30.85L14.45 29.85L14 29.25L13.6 28.9L12.95 28.4L11.8 27.9L11.35 27.8L10.3 27.7L10.2 27.7L9.85 27.75L9.8 27.75L8.7 28.1L8.3 28.2L6.85 29.25Q5.8 30.5 5.7 32.05L5.75 32.8" />
<path style="fill:#FAC154;fill-opacity:1" d="M9.85,17.95L9.7 17.6L9.7 17.5L9.7 17.1L10.45 16.9Q12.2 16.5 13.6 17.2L12.15 17.1L11 17.15L10.55 17.25L10.45 17.25L10.05 17.45L9.95 17.65L9.85 17.95M7,20L7.2 19.5L7.25 19.3L7.4 19.5L7.75 19.7Q8.15 19.7 8.2 19.5Q8.2 19.3 8.85 19.25L9.45 19.2L10.4 19.3L10.55 19.35Q11 19.5 11.4 19.75L11.55 19.85L11.25 19.75Q10.25 19.35 9.85 19.5L9.25 19.45Q9.05 19.45 8.95 19.55Q8.35 20.4 7.75 20.4L7.25 20.3L7.2 19.95L7 20.1L7 20" />
<path style="fill:#BF7A24;fill-opacity:1" d="M14.55,18.15L14.05 17.85L13.75 17.75L11.95 17.35L10.45 17.6L10.8 17.85L10.1 18L9.95 18.05L9.85 17.95L9.95 17.65L10.05 17.45L10.45 17.25L10.55 17.25L11 17.15L12.15 17.1L13.6 17.2L13.65 17.25L14.55 17.95L14.8 18.25L14.95 18.45L14.55 18.15M12.15,20.3L12.2 20.4L12.4 21.25L12.35 21.65Q11.65 21.2 11.05 20.9L10.15 20.55L10 20.55L8.9 20.4L8.5 20.4Q8 20.4 7.6 20.8L7.15 21.2L6.9 21.15L7 20.1L7.2 19.95L7.25 20.3L7.75 20.4Q8.35 20.4 8.95 19.55Q9.05 19.45 9.25 19.45L9.85 19.5Q10.25 19.35 11.25 19.75L11.55 19.85L12.15 20.3" />
<path style="fill:#FFF3A1;fill-opacity:1" d="M7.8,18.85L7.85 18.85Q8.4 18.55 9.9 19.1L10.4 19.3L9.45 19.2L8.85 19.25Q8.2 19.3 8.2 19.5Q8.15 19.7 7.75 19.7L7.4 19.5L7.25 19.3L7.8 18.85" />
<path style="fill:#A66221;fill-opacity:1" d="M15.3,19L15.2 18.9L14.9 18.7L14.6 18.5L14.15 18.25L13.85 18.15L13.15 17.9L11.85 17.75L10.8 17.85L10.45 17.6L11.95 17.35L13.75 17.75L14.05 17.85L14.55 18.15L14.95 18.45L15.1 18.6L15.2 18.85L15.3 19M6.9,21.15L7.15 21.2L7.6 20.8Q8 20.4 8.5 20.4L8.9 20.4L10 20.55L10.15 20.55L11.05 20.9Q11.65 21.2 12.35 21.65L12.4 21.25L12.2 20.4Q13 21.15 13.3 21.95L13.3 22L13.45 22.35L13.5 23.15L13.25 23.6L13.2 23.55L12.6 23.05L11.45 22.4Q10.6 22 9.8 21.95L9.5 21.9L9.05 21.9L8.7 21.95L8.2 22.05Q7.5 22.15 7.05 22.4L6.9 21.15M14.7,34.35L14.4 34.85L14.1 35.2L13.1 36.15L11.35 36.9L11.05 36.95L10.5 37L9.75 36.9L8.5 36.5L7.6 35.95L6.7 35.05L8.2 35.3L8.2 35.5L8.45 35.7L8.85 35.65L8.95 35.45L9 35.4L9.05 35.4L9.05 35.35Q9 35.2 9.1 35.1L9.35 34.9L9.65 34.65L10.25 34.5L10.3 34.45L10.4 34.45L10.55 34.65L10.55 34.7L10.55 34.8L10.55 34.9L10.6 35L10.45 35.15L10.35 35.25L11.3 35.15L11.3 35.1Q11.2 34.75 11.55 34.7L11.7 34.7L11.9 35.05L12.6 34.9L12.85 34.9L13.25 34.8L13.65 34.65L14.7 34.35M12.45,31L12.55 31.1L12.05 31.6L11.7 31.9L11.95 32.45L11.7 32.55L11.65 32.5L11.2 32.3L10.75 32.65Q10.3 33 9.8 32.95Q9.65 32.8 9.85 32.7L10.15 32.35L10.7 31.95L10.5 31.75L10.3 31.6L10.05 31.75L9 32L8.95 31.95Q8.85 31.7 9.15 31.55L10.1 31.05L10.1 30.95L10.2 30.65L10.35 30.8L10.4 30.8L10.6 30.7L11.3 30.45L11.35 30.45L11.45 30.5L11.35 30.65L10.85 31.1L11.35 31.5L12.4 30.95L12.45 31M13.55,33.5L13.3 33.3L13.25 33.15L13.25 32.95L13.75 32.75L14.25 32.7L14.35 32.85Q14.45 33.35 13.85 33.45L13.55 33.5M7.95,32.9L7.95 33.1L7.25 33.3L6.95 33.25L6.95 33.1L6.95 33.05L6.95 32.95L6.95 32.9L6.95 32.8L7.15 32.6L7.45 32.55L7.6 32.4L7.8 32.65L7.95 32.9" />
<path style="fill:#FFC570;fill-opacity:1" d="M13.25,29.6L12.45 29.55L11.75 29.55L11.65 29.55L11.65 29.5L11.6 29.4L11.2 29.3L11.05 29.2L10.5 29.35L10.45 29.35L10.35 29.5L10.4 29.65L9.35 29.85L9.35 29.75L9.25 29.55L9.1 29.35L8.7 29.45L8.35 29.55L8.5 29.85L8.2 30.2L8.2 30.25L8.1 30.35L8 30.6L7.55 30.65L7.5 30.5L7.35 30.5L6.85 30.3L6.8 30.4L6.7 30.45L6.65 30.5L6.55 30.6L6.55 30.65L6.6 30.8L6.6 30.95L6.85 31.05L5.7 32.05Q5.8 30.5 6.85 29.25L8.3 28.2L8.7 28.1L9.8 27.75L9.85 27.75L10.2 27.7L10.3 27.7L11.35 27.8L11.8 27.9L12.95 28.4L13.6 28.9L14 29.25L14.45 29.85L13.25 29.6M12.4,30.95L12.4 30.9L12.4 30.85L12.7 30.55L12.75 30.55Q12.8 30.35 13.05 30.3L13.25 30.45L13.4 30.5L13.45 30.7L13.15 31.1Q12.7 31.3 12.55 31.1L12.45 31L12.4 30.95" />
<path style="fill:#E99C3E;fill-opacity:1" d="M13.65,34.65L13.25 34.8L12.85 34.9L12.6 34.9L11.9 35.05L11.7 34.7L11.55 34.7Q11.2 34.75 11.3 35.1L11.3 35.15L10.35 35.25L10.45 35.15L10.6 35L10.55 34.9L10.55 34.8L10.55 34.7L10.55 34.65L10.4 34.45L10.3 34.45L10.25 34.5L9.65 34.65L9.35 34.9L9.1 35.1Q9 35.2 9.05 35.35L9.05 35.4L9 35.4L8.95 35.45L8.85 35.65L8.45 35.7L8.2 35.5L8.2 35.3L6.7 35.05Q5.9 34.1 5.75 32.8L5.7 32.05L6.85 31.05L6.6 30.95L6.6 30.8L6.55 30.65L6.55 30.6L6.65 30.5L6.7 30.45L6.8 30.4L6.85 30.3L7.35 30.5L7.5 30.5L7.55 30.65L8 30.6L8.1 30.35L8.2 30.25L8.2 30.2L8.5 29.85L8.35 29.55L8.7 29.45L9.1 29.35L9.25 29.55L9.35 29.75L9.35 29.85L10.4 29.65L10.35 29.5L10.45 29.35L10.5 29.35L11.05 29.2L11.2 29.3L11.6 29.4L11.65 29.5L11.65 29.55L11.75 29.55L12.45 29.55L13.25 29.6L14.45 29.85L15 30.85L15.15 31.8L15.15 32L15.15 32.6L14.9 33.95L14.7 34.35L13.65 34.65M13.15,31.1L13.45 30.7L13.4 30.5L13.25 30.45L13.05 30.3Q12.8 30.35 12.75 30.55L12.7 30.55L12.4 30.85L12.4 30.9L12.4 30.95L11.35 31.5L10.85 31.1L11.35 30.65L11.45 30.5L11.35 30.45L11.3 30.45L10.6 30.7L10.4 30.8L10.35 30.8L10.2 30.65L10.1 30.95L10.1 31.05L9.15 31.55Q8.85 31.7 8.95 31.95L9 32L10.05 31.75L10.3 31.6L10.5 31.75L10.7 31.95L10.15 32.35L9.85 32.7Q9.65 32.8 9.8 32.95Q10.3 33 10.75 32.65L11.2 32.3L11.65 32.5L11.7 32.55L11.95 32.45L11.7 31.9L12.05 31.6L12.55 31.1Q12.7 31.3 13.15 31.1M13.85,33.45Q14.45 33.35 14.35 32.85L14.25 32.7L13.75 32.75L13.25 32.95L13.25 33.15L13.3 33.3L13.55 33.5L13.85 33.45M7.8,32.65L7.6 32.4L7.45 32.55L7.15 32.6L6.95 32.8L6.95 32.9L6.95 32.95L6.95 33.05L6.95 33.1L6.95 33.25L7.25 33.3L7.95 33.1L7.95 32.9L7.8 32.65" />
<path style="fill:#443911;fill-opacity:1" d="M28.4,28.85L28.5 28.75L27.2 27.65Q27 27.4 27.7 26.35L28.05 25.9L28.85 24.8L30 25.45L30.65 26L32.2 27.05L32.3 27.15L34 28.25L34.55 28.8L35.5 29.6L34.95 30.3L34.15 31.3L33.45 31.95L33.2 32.1L32.05 31.35L31.85 31.65L31.4 30.95L29.9 29.55Q29.1 28.95 28.4 28.85M28.35,26.95L28.1 27.35L29.25 28.3L30.9 29.5L33.25 31.15L33.6 30.6L34 30.1L34.05 30.05L34.45 29.55L33.05 28.6L31.85 27.7L31.8 27.65L30.35 26.7L29.75 26.25L29.1 25.85L28.95 26.05L28.35 26.95" />
<path style="fill:#E1CF2F;fill-opacity:1" d="M33,29.2L32.95 29.25L32.85 29.25L32.75 29.25L32.7 29.25L32.65 29.2L32.6 29.1L32.55 29.05L32.55 28.85L32.55 28.8L32.1 28.55L31.65 28.2L31.65 28.3L31.95 28.45L32.1 28.55L31.95 28.55L31.65 28.35L31.65 28.45L31.6 28.55L31.5 28.6L31.4 28.6L31.4 28.65L31.35 28.65L31.15 28.55L30.95 28.05L31.05 27.85L31.1 27.8L29.6 26.6L28.95 26.05L29.1 25.85L29.75 26.25L30.35 26.7L31.8 27.65L31.85 27.7L33.05 28.6L34.45 29.55L34.05 30.05Q33.5 29.55 33 29.2M29.65,27.35L29.75 27.15L29.95 27.1L30 27.1L30.05 27.15L30.2 27.2L30.25 27.35L30.2 27.45L30.2 27.55L30.15 27.65L30.05 27.65L30 27.65L29.85 27.65L29.75 27.65L29.65 27.4L29.65 27.35" />
<path style="fill:#C6A831;fill-opacity:1" d="M28.35,26.95L28.95 26.05L29.6 26.6L31.1 27.8L31.05 27.85L30.95 28.05L31.15 28.55L31.35 28.65L31.4 28.65L31.4 28.6L31.5 28.6L31.6 28.55L31.65 28.45L31.65 28.35L31.95 28.55L32.1 28.55L31.95 28.45L31.65 28.3L31.65 28.2L32.1 28.55L32.55 28.8L32.55 28.85L32.55 29.05L32.6 29.1L32.65 29.2L32.7 29.25L32.75 29.25L32.85 29.25L32.95 29.25L33 29.2Q33.5 29.55 34.05 30.05L34 30.1L33.6 30.6L33.5 30.7Q33.3 30.7 29.1 27.7L28.35 26.95M29.65,27.4L29.75 27.65L29.85 27.65L30 27.65L30.05 27.65L30.15 27.65L30.2 27.55L30.2 27.45L30.25 27.35L30.2 27.2L30.05 27.15L30 27.1L29.95 27.1L29.75 27.15L29.65 27.35L29.65 27.4" />
<path style="fill:#AA912B;fill-opacity:1" d="M29.1,27.7Q33.3 30.7 33.5 30.7L33.6 30.6L33.25 31.15L30.9 29.5L29.25 28.3L28.1 27.35L28.35 26.95L29.1 27.7" />
</g>
</svg>
