<?xml version="1.0" encoding="utf-8"?>
<svg version="1.1" id="Layer_1"
xmlns="http://www.w3.org/2000/svg"
xmlns:xlink="http://www.w3.org/1999/xlink"
xmlns:author="http://www.sothink.com"
width="53px" height="61px"
xml:space="preserve">
<g id="1334" transform="matrix(1, 0, 0, 1, 0, 0)">
<path style="fill:#303A43;fill-opacity:1" d="M15.4,38.8L15.4 37.55Q16.1 36 17.4 34.2L18.25 33.05L19 35.2Q17.8 37.25 17.4 39.6L15.4 38.8" />
<path style="fill:#414D58;fill-opacity:1" d="M22.9,25.35L23.1 21.65L23.35 19.4Q23.35 17.45 21.35 15.9Q19.25 14.25 16.15 14.25L15.5 14.25L15.6 13.95L16.35 12.5L18.35 12.4Q23.25 12.95 23.8 13.9L25.05 16.45Q25.7 18 25.9 19.7L25.95 23Q24.7 24.45 24 25.85Q23.45 25.45 22.9 25.35M9.95,15.3Q8.45 16.8 9.65 14.85Q10.3 14.95 9.95 15.3M9.75,19.5Q7.3 20 9.25 18.35Q9.85 18.4 9.9 19.05L9.75 19.5M29.9,46.7Q30.55 46.8 30.2 47.05Q28.7 48.35 29.9 46.7" />
<path style="fill:#596770;fill-opacity:1" d="M35.4,3.35L36.05 2.95Q37 2.35 38 1.95L39.1 1.55Q40.65 1 42.9 1.9L43.05 1.95Q44.95 2.8 46.55 4.35L44.6 3.6Q41.7 2.75 39.15 2.7L37.1 2.85L35.4 3.35M43.55,10.15Q41.4 7.8 37.9 7.5L36.7 7.45L33.5 7.7L33.25 7.75L32.45 7.85L32.6 7.8L33.25 7.45L33.5 7.35L33.75 7.2L33.95 7.1Q35.45 6.35 37.65 6.05L40.7 6.5Q42.5 6.85 43.6 7.5L44.25 8.05Q45 8.9 45.75 10.85L46.65 13.9L43.55 10.15M32.15,6.55Q31.55 5.8 30.25 5.95L28.55 5.75L27.4 5.2L24.8 4.55L17.9 4L13.35 4.4L14.85 3Q15.8 2.25 16.55 1.95L17.6 1.75L18.8 1.95L20.45 2.25L27.65 3.85L29.15 4.3L31.7 5L32.2 5.1L32.6 5.2L32.65 6.05L32.75 6.45L32.5 6.55L32.25 6.65L32.15 6.55" />
<path style="fill:#65737B;fill-opacity:1" d="M44.75,37.65L45.6 38.4L47.5 40.05Q48.4 40.95 50 41.65L49.85 42.2L49.45 43.45Q45.7 46.5 42.05 47.75L41.35 47.35Q42 46.95 43.2 46.4Q45.4 45.35 45.4 44.9Q45.4 44.55 46.6 44.05Q47.75 43.55 47.75 42.95Q47.75 42.4 46.9 41.35L46.25 40.6Q44.75 39.05 44.75 37.65" />
<path style="fill:#4A5762;fill-opacity:1" d="M34.2,4.35L35.4 3.35L37.1 2.85L39.15 2.7L39 2.7Q39.15 2.7 39.15 2.8L39.15 2.7Q41.7 2.75 44.6 3.6L46.55 4.35L46.9 4.65Q48.15 5.9 48.35 7.4L48.35 7.95L48.25 7.95L47.8 7.7L47.75 7.55Q47.7 6.9 46.9 6.3L45.75 5.75L44.8 5.3Q43.8 4.5 42.3 4.2L37.95 3.95L34.2 4.35M32.3,7.95L32.45 7.85L33.25 7.75L33.5 7.7L36.7 7.45L37.9 7.5Q41.4 7.8 43.55 10.15L46.65 13.9L47.2 17.2L46.35 16.7L45.3 15.8L44.1 15.25L42.9 14.95Q42.15 14.85 41.95 14Q41.6 12.7 40.8 11.8Q39.7 10.55 35.55 10.75Q32.5 10.9 32.35 8.4L32.3 8.05L32.3 7.95M37.6,47.4Q37.5 47.1 38.15 46.3Q38.65 46.35 38.8 46.9Q38.95 47.3 38.7 47.35L37.7 47.5L37.6 47.4M46.25,40.6L46.9 41.35Q47.75 42.4 47.75 42.95Q47.75 43.55 46.6 44.05Q45.4 44.55 45.4 44.9Q45.4 45.35 43.2 46.4Q42 46.95 41.35 47.35L41.15 47.2L39.4 44.7L39.6 44.15L40.4 43.3Q40.25 43.1 39.8 43Q39.5 42.95 39.5 42.55L39.55 42.3L40.45 42.1Q40.7 42.05 40.5 41.7L40.05 41.3L40.05 41.2L40.25 39.95L40.15 38.8L39.95 38.8Q36.9 38.85 39.5 37.5L38.25 35.55L39.5 34.85L40.75 34.75Q41.15 34.7 41.05 34.15L41.05 34L42.15 33.45Q42.5 33.7 42.9 34.75Q43.4 36 44 36.8L44.75 37.65Q44.75 39.05 46.25 40.6M6.55,12.65Q8.2 10.35 10.15 8L13.35 4.4L17.9 4L24.8 4.55L27.4 5.2L28.55 5.75L30.25 5.95Q31.55 5.8 32.15 6.55L32.25 6.65Q31.05 7.25 29.9 8L29.05 8.6L27.75 9.6L26.45 10.75L24.7 10.1Q23.6 9.4 22.95 9.4L21.8 9.45L21.85 9.7Q21.95 10.2 21.7 10.25Q19.2 10.65 20.5 9.5L19.4 9.55L18.15 9.65L15.85 9.85Q15.75 9.2 15.15 9.1L14.95 9.3L14.75 9.2L14.1 10.1Q11.85 10.7 10.05 13.15L7.8 16.15Q6.9 16.15 6.05 15.35L6.55 12.65M31.55,55.6L29.2 56.1L28.9 56.15L28.15 56.15L28.05 56.45Q27.8 56.95 27.2 56.9Q26 56.8 25.9 56.45Q25.75 56.05 26.9 55.4L26.9 54.9L26.9 54.45L27.6 54.35Q28.1 54.25 27.85 53.75L27.6 53.3L28.85 52.4L29.05 52.25L29.45 51.95L30.3 52.05L32.15 52.05L32.55 52.05L36.05 51.9L36.4 53.4L33.05 55.65L31.55 55.6M32.95,40.25Q32.65 38.8 31.9 37.45Q31.55 36.85 28.3 35.05L25.45 33.7L24.55 33.3Q24.95 32.5 26.4 31.5L26.75 31.3L31.15 34.5Q34.05 36.9 34.95 38.35L35 38.4L34.65 40.5L34.1 42.3L33.9 42.3L33.15 42.25L32.95 40.25M33.75,49.5L32.65 49.2L32.35 49.25L30.7 49.2L30.9 48.9Q31.1 48.65 31.65 48.4L32.55 47.2L33.8 47.2Q34.15 47.15 34.05 46.65Q33.95 46.15 33.6 45.95L34.45 45.15L35.4 46.65Q36.55 48.15 37.5 48.75L37.05 49.25L36.55 49.85L33.75 49.5M38.4,43.05Q38.8 43.8 38.05 43.85Q35.35 44 37.9 42.7L38.4 43.05M24.4,54.2Q24.75 54.9 24.05 55L23.65 55.05Q22.4 55.75 22.9 55.1Q22.2 54.9 23.9 53.8Q24.25 53.85 24.4 54.2" />
<path style="fill:#38434D;fill-opacity:1" d="M37.95,3.95L42.3 4.2Q43.8 4.5 44.8 5.3L45.75 5.75L46.9 6.3Q47.7 6.9 47.75 7.55L47.8 7.7L48.25 7.95L48.35 7.95L48.3 8.8L47.8 11.8Q47.7 12.5 47.45 12.6Q46.95 10.55 45.8 8.1L45.5 7.5L45.25 7.1Q42.7 5.65 41.1 5.25L38.8 4.85L36.75 5.1L34.6 5.75L33.85 6Q33.75 5.15 34 4.65L34.15 4.4L34.2 4.35L37.95 3.95M26.1,12.4L27.5 11.15L28.3 10.45L28.5 10.3Q30.15 9.05 32.3 7.95L32.3 8.05L32.35 8.4Q32.5 10.9 35.55 10.75Q39.7 10.55 40.8 11.8Q41.6 12.7 41.95 14Q42.15 14.85 42.9 14.95L44.1 15.25L45.3 15.8L46.35 16.7L47.2 17.2L47.2 17.35L47.35 21.85L47.1 23.35L44.6 20.6L44.45 20.45Q43.1 19.15 42.05 18.95L40 19.15L39.25 18.7Q36.9 17.3 35.25 17.3Q33.45 17.3 31.85 18Q30.65 18.55 29.9 19.3L28.15 19.3Q28.15 17.35 27.05 15.05L25.9 12.9L26.1 12.4M47.5,40.05L45.6 38.4L44.75 37.65L44 36.8Q43.4 36 42.9 34.75Q42.5 33.7 42.15 33.45L41.05 34L41.05 34.15Q41.15 34.7 40.75 34.75L39.5 34.85L38.25 35.55L39.5 37.5Q36.9 38.85 39.95 38.8L40.15 38.8L40.25 39.95L40.05 41.2L40.05 41.3L40.5 41.7Q40.7 42.05 40.45 42.1L39.55 42.3L39.5 42.55Q39.5 42.95 39.8 43Q40.25 43.1 40.4 43.3L39.6 44.15L39.4 44.7L41.15 47.2L41.35 47.35L42.05 47.75L40.2 48.25Q38.95 48.55 37.7 47.5L38.7 47.35Q38.95 47.3 38.8 46.9Q38.65 46.35 38.15 46.3Q37.5 47.1 37.6 47.4L37.1 46.85Q35.65 45.2 35.25 44.35L35.15 44.15L35.05 43.9Q34.8 43.1 35.05 42.25L35.25 41.7L36.1 38.3L35.3 36.85L35.4 35.9Q35.4 34.25 35 33.85L32.9 32.05Q31.9 31.05 31.9 27.8Q31.9 25.65 33.65 23.8Q36.25 21.05 41.95 20.65L41.4 20.2L42.15 20.1L42.9 20.6L44.15 21.7L47.6 25.9Q49.8 28.85 51.35 32.5L50.95 37.25L50 41.65Q48.4 40.95 47.5 40.05M6.05,15.35Q6.9 16.15 7.8 16.15L10.05 13.15Q11.85 10.7 14.1 10.1L14.75 9.2L14.95 9.3L15.15 9.1Q15.75 9.2 15.85 9.85L18.15 9.65L19.4 9.55L20.5 9.5Q19.2 10.65 21.7 10.25Q21.95 10.2 21.85 9.7L21.8 9.45L22.95 9.4Q23.6 9.4 24.7 10.1L26.45 10.75L26.3 10.9L24.35 12.9Q22.45 11.95 21.65 11.85L20.15 11.55L18.25 11.35L17.25 11.35L15.95 11.55Q14.9 11.8 14 12.55Q13.05 13.25 12.45 15.3Q11.65 17.75 11.6 21.45L11.55 25.05L11.4 26.25L11.15 28.05Q9.15 27 8.2 25.95L7.9 25.6Q6.85 24.2 6.35 22.05Q5.9 20.1 5.9 17.65Q5.9 16.45 6.05 15.35M15.5,14.25L16.15 14.25Q19.25 14.25 21.35 15.9Q23.35 17.45 23.35 19.4L23.1 21.65L22.9 25.35L22.4 25.3Q21.95 25.3 20.4 25.95L18.25 26.55Q14.9 26.55 14.9 20.4Q14.9 16.2 15.5 14.25M9.65,14.85Q8.45 16.8 9.95 15.3Q10.3 14.95 9.65 14.85M9.9,19.05Q9.85 18.4 9.25 18.35Q7.3 20 9.75 19.5L9.9 19.05M33.05,55.65L31.85 56.25L31.45 56.45L30.2 57L28.05 57.9L21.4 59.35L21.4 59.3L19.7 56.45L17.8 53.75Q14.15 48.75 14.15 44.05Q14.15 43 15.8 42.35L15.95 42.4L20.25 44.9L21.85 45.8L22.8 46.55Q25.25 48.5 26.5 50.05Q27.75 51.6 28.15 51.75L29.2 51.95L29.45 51.95L29.05 52.25L28.85 52.4L27.6 53.3L27.85 53.75Q28.1 54.25 27.6 54.35L26.9 54.45L26.9 54.9L26.9 55.4Q25.75 56.05 25.9 56.45Q26 56.8 27.2 56.9Q27.8 56.95 28.05 56.45L28.15 56.15L28.9 56.15L29.2 56.1L31.55 55.6L33.05 55.65M33.15,42.25Q31 41.75 27.9 38.8Q24.4 35.45 24.4 33.9L24.55 33.3L25.45 33.7L28.3 35.05Q31.55 36.85 31.9 37.45Q32.65 38.8 32.95 40.25L33.15 42.25M36.55,49.85L36.15 50.65L35.85 50.65L34.5 50.8L32.65 50.9L30.5 50.85L30.4 50.85L29.95 50.8L29.8 50.65L28.3 49.2Q27.05 47.15 25.9 46.05L24.85 44.55L23.9 43.3L22.05 42.1Q21.4 41.55 21.4 40.55Q21.4 39.3 22.2 38.1L23.9 39.75L26.3 42.6Q27.4 44.1 29.75 44.4L33.3 44.2L33.9 44.05L34.05 44.05L34.15 44.45L34.45 45.15L33.6 45.95Q33.95 46.15 34.05 46.65Q34.15 47.15 33.8 47.2L32.55 47.2L31.65 48.4Q31.1 48.65 30.9 48.9L30.7 49.2L32.35 49.25L32.65 49.2L33.75 49.5L36.55 49.85M30.2,47.05Q30.55 46.8 29.9 46.7Q28.7 48.35 30.2 47.05M37.9,42.7Q35.35 44 38.05 43.85Q38.8 43.8 38.4 43.05L37.9 42.7M23.9,53.8Q22.2 54.9 22.9 55.1Q22.4 55.75 23.65 55.05L24.05 55Q24.75 54.9 24.4 54.2Q24.25 53.85 23.9 53.8" />
<path style="fill:#28323A;fill-opacity:1" d="M25.9,12.9L27.05 15.05Q28.15 17.35 28.15 19.3L29.9 19.3Q30.65 18.55 31.85 18Q33.45 17.3 35.25 17.3Q36.9 17.3 39.25 18.7L40 19.15Q32.9 20.1 26.75 22.95L27 21.8L26.85 18.65Q26.55 16.35 24.85 13.55L26.1 12.4L25.9 12.9M41.4,20.2L41.95 20.65Q36.25 21.05 33.65 23.8Q31.9 25.65 31.9 27.8Q31.9 31.05 32.9 32.05L35 33.85Q35.4 34.25 35.4 35.9L35.3 36.85L35.25 36.8Q34.4 35.35 31.8 33.35Q29.95 31.85 27.95 30.65L24 28.65L24.95 26.5L25.55 25.35L26.3 24.15Q33.85 21.2 41.4 20.2M6.05,15.35Q5.9 16.45 5.9 17.65Q5.9 20.1 6.35 22.05Q6.85 24.2 7.9 25.6L8.2 25.95Q9.15 27 11.15 28.05L11.4 26.25L11.55 25.05Q11.5 30.3 11.85 32.8Q9.85 31.85 8.4 30.9Q6.5 29.6 5.5 28.25Q4.95 26.25 4.75 23.5L4.6 20.9Q4.5 16.35 4.95 14.9L5.3 14.4L6.55 12.65L6.05 15.35M14.9,20.4Q14.9 26.55 18.25 26.55L20.4 25.95Q21.95 25.3 22.4 25.3L22.9 25.35Q23.45 25.45 24 25.85Q23.25 27.25 23 28.55L22.25 28.65L20.35 29.2Q19.05 29.6 17.35 30.45Q15.65 31.3 14.1 34.1L13.1 36.55Q12.85 35.8 12.6 29.9L12.5 24.25Q12.55 21.1 12.9 17.9Q13.05 15.95 13.7 14.7Q14.6 12.95 16.35 12.5L15.6 13.95L15.5 14.25Q14.9 16.2 14.9 20.4M14.15,44.05Q14.15 48.75 17.8 53.75L19.7 56.45L21.4 59.3L21.4 59.35L20.8 59.45Q18.85 59.8 15.75 56.45L15.7 56.4Q12.55 53 8.85 47.6Q10 46.65 11.75 46.05L13.4 45.4Q10.55 45.15 7.85 46.8Q4.9 44.55 1.35 43.75Q0.65 37.65 1.7 33Q3.65 30.05 4.9 29.05L6.7 30.8L8.75 32.25Q9.75 32.95 11.85 33.9L11.85 35.5Q11.95 36.95 13.25 39.3Q14.5 41.5 15.8 42.35Q14.15 43 14.15 44.05M26.4,31.5Q24.95 32.5 24.55 33.3L24.4 33.9Q24.4 35.45 27.9 38.8Q31 41.75 33.15 42.25L33.9 42.3L34.1 42.3L33.95 42.7L33.2 43.15Q31.05 44.2 27.65 42.85Q25.05 39.2 22.8 37.4L22.3 37Q19.85 35.2 19.65 34.15L18.95 32.3L18.3 31.1Q20.75 30.15 22.25 29.95Q23.75 29.75 26 30.9L26.75 31.3L26.4 31.5M18.25,33.05L17.4 34.2Q16.1 36 15.4 37.55L15.4 38.8L17.4 39.6L17.2 41.65Q14.1 39.95 13.55 37.45Q15.7 32.3 17.45 31.55L18.25 33.05M21.4,40.55Q21.4 41.55 22.05 42.1L23.9 43.3L24.85 44.55L25.9 46.05Q27.05 47.15 28.3 49.2L29.8 50.65L29.95 50.8L29.7 50.8L28.25 50.55Q24.35 45.35 18.15 42.6L18.05 42.5L17.9 42.35L17.9 41.8Q17.95 40.75 18.15 39.9Q18.55 37.6 19.9 36.05Q20.35 36.55 21.5 37.5L22.2 38.1Q21.4 39.3 21.4 40.55" />
<path style="fill:#19242A;fill-opacity:1" d="M49.2,5.85L49.25 5.95L49.45 6.5L49.5 7.05L49.5 7.45L49.45 9.45Q49.35 11.2 48 15.45L48.05 15.8L48.3 17.3Q48.6 20.6 47.95 24.45Q50.45 27.8 51.35 29.7L52.45 31.9L52.65 32.45L52.65 33.2L52.65 33.25L52.65 33.35Q52.45 37.55 51.15 42.1L51 42.7L50.45 44.35Q47.05 47.05 43.4 48.5L40.9 49.3L39.9 49.5L38.5 49.35L37.75 50Q37.05 50.8 37.2 51.8L37.9 53.2Q38.4 53.75 38.1 54.05L37.9 54.2L34.35 56.45L31.45 57.8L27.3 59.25L21.6 60.5L21.3 60.55L18.8 60.35Q16.65 59.1 15.2 57.6L14.2 56.45L12.8 54.65L9.2 49.65L7.35 47.8Q6.25 47 4.75 46.45L1.75 45.35Q0.25 44.8 0.1 42.7Q-0.1 40.55 0.05 37.6Q0.2 34.65 0.8 32.75Q2.05 29.75 4.35 28.1L3.8 23.95Q3.65 22.45 3.65 20.95Q3.6 17.2 3.85 15.6Q3.95 14.8 4.85 13.25L7.5 9.25L8.45 8L8.8 7.5L10.8 5.1Q12.2 3.55 13.45 2.6L14.35 1.95L16.5 0.55L19.45 0.85L24.9 1.95L26.95 2.45L32.85 4.05Q33 3.6 34.05 2.5L34.15 2.5L34.85 1.95Q37.2 0.25 40.45 0L41 0.05Q43.75 0.5 45.8 1.95Q47.85 3.4 49.2 5.85M43.05,1.95L42.9 1.9Q40.65 1 39.1 1.55L38 1.95Q37 2.35 36.05 2.95L35.4 3.35L34.2 4.35L34.15 4.4L34 4.65Q33.75 5.15 33.85 6L34.6 5.75L36.75 5.1L38.8 4.85L41.1 5.25Q42.7 5.65 45.25 7.1L45.5 7.5L45.8 8.1Q46.95 10.55 47.45 12.6Q47.7 12.5 47.8 11.8L48.3 8.8L48.35 7.95L48.35 7.4Q48.15 5.9 46.9 4.65L46.55 4.35Q44.95 2.8 43.05 1.95M32.3,7.95Q30.15 9.05 28.5 10.3L28.3 10.45L27.5 11.15L26.1 12.4L24.85 13.55Q26.55 16.35 26.85 18.65L27 21.8L26.75 22.95Q32.9 20.1 40 19.15L42.05 18.95Q43.1 19.15 44.45 20.45L44.6 20.6L47.1 23.35L47.35 21.85L47.2 17.35L47.2 17.2L46.65 13.9L45.75 10.85Q45 8.9 44.25 8.05L43.6 7.5Q42.5 6.85 40.7 6.5L37.65 6.05Q35.45 6.35 33.95 7.1L33.75 7.2L33.5 7.35L33.25 7.45L32.6 7.8L32.45 7.85L32.3 7.95M37.7,47.5Q38.95 48.55 40.2 48.25L42.05 47.75Q45.7 46.5 49.45 43.45L49.85 42.2L50 41.65L50.95 37.25L51.35 32.5Q49.8 28.85 47.6 25.9L44.15 21.7L42.9 20.6L42.15 20.1L41.4 20.2Q33.85 21.2 26.3 24.15L25.55 25.35L24.95 26.5L24 28.65L27.95 30.65Q29.95 31.85 31.8 33.35Q34.4 35.35 35.25 36.8L35.3 36.85L36.1 38.3L35.25 41.7L35.05 42.25Q34.8 43.1 35.05 43.9L35.15 44.15L35.25 44.35Q35.65 45.2 37.1 46.85L37.6 47.4L37.7 47.5M10.15,8Q8.2 10.35 6.55 12.65L5.3 14.4L4.95 14.9Q4.5 16.35 4.6 20.9L4.75 23.5Q4.95 26.25 5.5 28.25Q6.5 29.6 8.4 30.9Q9.85 31.85 11.85 32.8Q11.5 30.3 11.55 25.05L11.6 21.45Q11.65 17.75 12.45 15.3Q13.05 13.25 14 12.55Q14.9 11.8 15.95 11.55L17.25 11.35L18.25 11.35L20.15 11.55L21.65 11.85Q22.45 11.95 24.35 12.9L26.3 10.9L26.45 10.75L27.75 9.6L29.05 8.6L29.9 8Q31.05 7.25 32.25 6.65L32.5 6.55L32.75 6.45L32.65 6.05L32.6 5.2L32.2 5.1L31.7 5L29.15 4.3L27.65 3.85L20.45 2.25L18.8 1.95L17.6 1.75L16.55 1.95Q15.8 2.25 14.85 3L13.35 4.4L10.15 8M13.7,14.7Q13.05 15.95 12.9 17.9Q12.55 21.1 12.5 24.25L12.6 29.9Q12.85 35.8 13.1 36.55L14.1 34.1Q15.65 31.3 17.35 30.45Q19.05 29.6 20.35 29.2L22.25 28.65L23 28.55Q23.25 27.25 24 25.85Q24.7 24.45 25.95 23L25.9 19.7Q25.7 18 25.05 16.45L23.8 13.9Q23.25 12.95 18.35 12.4L16.35 12.5Q14.6 12.95 13.7 14.7M28.05,57.9L30.2 57L31.45 56.45L31.85 56.25L33.05 55.65L36.4 53.4L36.05 51.9L32.55 52.05L32.15 52.05L30.3 52.05L29.45 51.95L29.2 51.95L28.15 51.75Q27.75 51.6 26.5 50.05Q25.25 48.5 22.8 46.55L21.85 45.8L20.25 44.9L15.95 42.4L15.8 42.35Q14.5 41.5 13.25 39.3Q11.95 36.95 11.85 35.5L11.85 33.9Q9.75 32.95 8.75 32.25L6.7 30.8L4.9 29.05Q3.65 30.05 1.7 33Q0.65 37.65 1.35 43.75Q4.9 44.55 7.85 46.8Q10.55 45.15 13.4 45.4L11.75 46.05Q10 46.65 8.85 47.6Q12.55 53 15.7 56.4L15.75 56.45Q18.85 59.8 20.8 59.45L21.4 59.35L28.05 57.9M34.65,40.5L35 38.4L34.95 38.35Q34.05 36.9 31.15 34.5L26.75 31.3L26 30.9Q23.75 29.75 22.25 29.95Q20.75 30.15 18.3 31.1L18.95 32.3L19.65 34.15Q19.85 35.2 22.3 37L22.8 37.4Q25.05 39.2 27.65 42.85Q31.05 44.2 33.2 43.15L33.95 42.7L34.1 42.3L34.65 40.5M17.45,31.55Q15.7 32.3 13.55 37.45Q14.1 39.95 17.2 41.65L17.4 39.6Q17.8 37.25 19 35.2L18.25 33.05L17.45 31.55M30.4,50.85L30.5 50.85L32.65 50.9L34.5 50.8L35.85 50.65L36.15 50.65L36.55 49.85L37.05 49.25L37.5 48.75Q36.55 48.15 35.4 46.65L34.45 45.15L34.15 44.45L34.05 44.05L33.9 44.05L33.3 44.2L29.75 44.4Q27.4 44.1 26.3 42.6L23.9 39.75L22.2 38.1L21.5 37.5Q20.35 36.55 19.9 36.05Q18.55 37.6 18.15 39.9Q17.95 40.75 17.9 41.8L17.9 42.35L18.05 42.5L18.15 42.6Q24.35 45.35 28.25 50.55L29.7 50.8L29.95 50.8L30.4 50.85" />
</g>
</svg>
