<?xml version="1.0" encoding="utf-8"?>
<svg version="1.1" id="Layer_1"
xmlns="http://www.w3.org/2000/svg"
xmlns:xlink="http://www.w3.org/1999/xlink"
xmlns:author="http://www.sothink.com"
width="102px" height="95px"
xml:space="preserve">
<g id="3119" transform="matrix(1, 0, 0, 1, 22.9, 41)">
<path style="fill:#332F2C;fill-opacity:0.2" d="M30.65,-26.2L30.55 -26.55L31.15 -26.25L31.1 -26.05L30.65 -26.2M31.2,-12.75L32.35 -12.15L31.15 -12.55L31.2 -12.75" />
<path style="fill:#480F6B;fill-opacity:0.501961" d="M28.1,-31.2Q30.4 -28.85 30.4 -26.2L30.3 -24.65L30.5 -24.55L30.6 -24.2L30.25 -24.4Q29.6 -21.1 26.2 -21.1Q23.85 -21.1 21.3 -22.55Q17.65 -24.55 17.65 -28.2Q17.65 -30.5 19.5 -32Q21.3 -33.45 24.2 -33.45L25.35 -33.3Q26.85 -32.5 28.1 -31.2M19.05,-21.45Q19.95 -20.6 20.2 -19.65L20.2 -17.8L19.6 -17.5L18.95 -17.45Q18 -17.45 17.3 -17.8Q16.2 -18.4 16.2 -19.65Q16.2 -20.05 16.65 -20.65L16.9 -20.95L17.3 -21.45L19.05 -21.45M53.75,-40.7L55.3 -39.9Q57.85 -37.7 57.85 -35.35Q57.9 -33.9 57.5 -32.6Q56.65 -30.1 54.2 -30.1L53.85 -30.15Q51.35 -31.3 49.2 -33.1Q48.4 -34.25 48.4 -35.7Q48.4 -36.9 49.1 -38.45Q50.3 -41 52.75 -41L53.75 -40.7M76.75,14.1L76.85 14.2L77.25 14.65Q78.35 16.1 78.35 16.9Q78.35 18.55 77.95 19.3Q77.4 20.35 75.95 20.35Q74.75 20.35 73.6 19.65Q71.8 18.5 71.8 16.2Q71.8 15.15 72.5 14.2Q73.35 13.1 74.7 13.1L75.95 13.3L76.75 14L76.75 14.1M45.05,31.4Q45.75 30.65 46.65 30.65Q47.55 30.65 48.55 31.2L49.15 31.6L49.35 31.95L49.75 33.05Q49.75 34.85 48.7 35.5L47.7 35.2Q45.4 34.55 44.3 33.4L44.3 33.2Q44.3 32.15 45.05 31.4M9.25,47.5Q11.05 49.5 11.05 51.3L10.7 52.95Q10.2 54 9.4 54L7.4 53.65Q6.3 53 6.3 50.95Q6.3 50.15 7.05 48.95Q7.95 47.5 9.05 47.5L9.25 47.5M-13.4,-29.3L-12 -28.7Q-10.9 -26.8 -10.9 -24.15Q-10.9 -21.95 -11.65 -20.35Q-12.25 -19.05 -13.25 -18.3Q-14.5 -17.45 -16.35 -17.45Q-18.2 -17.45 -20.35 -18.9L-21.15 -19.55Q-22.9 -21.1 -22.9 -23.05Q-22.9 -26.05 -20.75 -28Q-18.65 -29.8 -15.65 -29.8Q-14.55 -29.8 -13.4 -29.3M-13.95,17.35L-13.8 17.45Q-12.3 18.85 -12.3 21.3Q-12.3 22.8 -13 24.25Q-13.95 26.05 -15.55 26.05Q-19.9 26.05 -19.9 22.25Q-19.9 19.85 -17.75 18.45Q-16.05 17.35 -13.95 17.35" />
</g>
</svg>
