<?xml version="1.0" encoding="utf-8"?>
<svg version="1.1" id="Layer_1"
xmlns="http://www.w3.org/2000/svg"
xmlns:xlink="http://www.w3.org/1999/xlink"
xmlns:author="http://www.sothink.com"
width="22px" height="25px"
xml:space="preserve">
<g id="2705" transform="matrix(1, 0, 0, 1, -32.35, 4.65)">
<path style="fill:#FFFFFF;fill-opacity:1" d="M34.6,-2.1L33.3 -0.55L33.05 0.55Q32.9 1.4 33.3 2.6Q35.65 4.4 37.95 4.05L40.2 2.8Q41.3 2 42.5 1.6L43.9 1.2Q44.05 1.45 42.05 2.45L38.85 4.3Q37.65 5.2 37.15 4.9Q34.75 4.6 33.3 3.65L32.75 3.15Q31.9 1.15 32.9 -0.75L33 -0.85L33 -0.7Q33.85 -2.45 35.35 -3.9Q37.2 -5.55 40.2 -3.5Q39.05 -3.75 39.95 -3.45L36.85 -3.8Q35.7 -3.5 34.6 -2.1M47.1,5.7L46.75 7.7L44.05 5.4L44.1 4.4Q44.2 3.8 44.55 3.5Q47.35 4.15 47.1 5.7M49.35,19.85Q51.55 18.85 53.1 16.8Q52.85 14.95 53.45 13.15Q53.85 14.2 53.75 17.15Q51.4 19.7 50.4 19.75L49.35 19.85" />
</g>
</svg>
