<?xml version="1.0" encoding="utf-8"?>
<svg version="1.1" id="Layer_1"
xmlns="http://www.w3.org/2000/svg"
xmlns:xlink="http://www.w3.org/1999/xlink"
xmlns:author="http://www.sothink.com"
width="50px" height="53px"
xml:space="preserve">
<g id="1920" transform="matrix(1, 0, 0, 1, 21.55, 12.7)">
<path style="fill:#F8F8F8;fill-opacity:1" d="M14.6,32.65L14.65 32.55L14.75 32.65L14.6 32.65" />
<path style="fill:#4F453C;fill-opacity:1" d="M-8.4,34.6L-7.4 34.35L-7.15 34.3L-6.65 34.35L-6.55 34.35L-5.95 34.4L-5.55 34.5Q-4.65 34.7 -4 35.15Q-2.5 36.2 -2.5 38L-2.5 38.2L-2.5 38.45L-2.55 38.65L-3.55 38.55L-4.4 38.4L-6.3 37.8L-7.7 36.65Q-8.3 35.8 -8.4 34.6" />
<path style="fill:#564B41;fill-opacity:1" d="M-9.9,-8.45Q-5.5 -12.7 -0.3 -12.7Q2.2 -12.7 4.05 -11.9L4.05 -11.8Q4.05 -4.9 -2.3 -1.05Q-6.65 1.55 -10.1 1.55Q-12.55 1.55 -14.3 0.35Q-14.1 -4.4 -9.9 -8.45M-17.55,6.35Q-15.25 6.2 -13.9 7.8Q-12.55 9.35 -12.8 12.95Q-13.05 16.5 -14.85 18.3Q-16.7 20.1 -20.4 18.3Q-21.55 16.75 -21.55 14.5Q-21.55 10.05 -17.95 6.65L-17.55 6.35M23.75,-0.15Q22.4 -2.45 19.3 -4.65Q16.1 -6.9 12.4 -7Q8.6 -7.15 6.15 -6L7.85 -8.1L7.55 -8.8Q9.15 -9.85 11.65 -9.85Q17.75 -9.85 21.15 -5.65Q23.2 -3.15 23.75 -0.15M-5.9,4.2Q-1.8 0.7 2.7 0.25Q7.15 -0.2 9.7 2.5Q12.25 5.15 11.15 9.75Q10.05 14.25 6.85 16.3L5.95 16.2L4.3 18.1Q3 19.35 0.9 19.55L-5.55 19.2L-5.7 18.6L-6.95 17.95Q-9.1 16.85 -9.95 15.45L-10.35 13.6L-10.25 12.3Q-9.95 9.15 -8.1 6.6Q-7.2 5.35 -5.9 4.2M-7.65,25.45L-7.6 25.55Q-7.15 26.2 -7.15 27.1Q-7.15 27.9 -8 28.3L-8.45 28.5L-8.8 28.6L-9.55 28.65Q-11 28.65 -11.65 27.9L-11.9 27.55L-12.2 26.95L-12.6 25.9L-12.65 25.8Q-12.65 24.45 -10 24.45Q-8.55 24.45 -7.8 25.3L-7.65 25.45M21.55,8L23.45 9.5Q25.35 11.3 25.35 13Q25.35 15.1 24.25 16.2Q23.1 17.25 22.15 17.4Q21.2 17.55 21.25 16.85L20.85 14.25Q20.4 12.4 17.75 9.75Q19.7 9.25 20.95 8.45L21.55 8M10.5,23Q15.55 25.35 10 25Q8.75 24.95 9.6 23.6Q9.95 23.05 10.5 23M18.2,26.9Q19.75 26.9 20.3 27.6Q20.75 28.1 20.75 29.25Q20.75 30.35 19.65 30.9L18 31.35L17.55 31.3L17.1 31.25L16.5 31.1L15.8 30.85Q15.3 30.65 15 30.25L14.65 29.75L14.6 29.55L14.8 28.65Q15.05 28.05 15.65 27.6L15.75 27.55L16.1 27.35L16.65 27.15L17.8 26.95L18.2 26.9M13.55,33.75L13.9 34.15L13.95 34.65Q13.95 35.25 12.85 35.7L12.4 35.9L11.5 36.05L11.1 36.05L10.45 35.95L9.75 34.8L9.75 34.65L10.9 33.95L12.5 33.6L12.9 33.65L13.55 33.75M1.7,34.2Q1.7 32.9 4.05 32.9Q5.25 32.9 5.95 33.4Q6.55 33.95 6.55 34.8Q6.55 35.55 5.75 35.7L4.45 35.7Q3 35.7 2.35 35.25Q1.9 34.95 1.75 34.45L1.7 34.2" />
<path style="fill:#362F29;fill-opacity:1" d="M5.75,-10.9Q6.85 -10 7.55 -8.8L7.85 -8.1L6.15 -6Q8.6 -7.15 12.4 -7Q16.1 -6.9 19.3 -4.65Q22.4 -2.45 23.75 -0.15L23.9 1.9Q23.9 5.35 22.15 7.35Q23.2 7.7 24.2 8.3L24.45 8.45Q27.5 10.55 27.5 14.85Q27.5 19 23.05 21.25L22.4 21.6L22.85 22.35Q24.1 24.7 24.1 27.7Q24.1 31.35 21.35 33.95L21.3 34Q19.05 36.05 16.9 36.05L15.95 35.9L15.75 35.85L14.3 37.45Q12.6 38.9 10.3 39.4L9.95 39.45L8.15 39.55Q4.85 39.55 2.95 38.5L2.4 38.15L1.9 38.3L-1.05 38.7L-1.75 38.7L-2.15 38.7L-2.55 38.65L-2.5 38.45L-2.5 38.2L-2.5 38Q-2.5 36.2 -4 35.15Q-4.65 34.7 -5.55 34.5L-5.95 34.4L-6.55 34.35L-6.65 34.35L-7.15 34.3L-7.4 34.35L-8.4 34.6L-8.45 34.1L-8.25 32.95Q-10.35 32.55 -12 30.95Q-14.55 28.55 -14.55 24.8Q-14.55 23.15 -13.7 21.6L-13.55 21.3L-14.15 21.25Q-16.25 21.25 -18.35 20.05L-20.4 18.3Q-16.7 20.1 -14.85 18.3Q-13.05 16.5 -12.8 12.95Q-12.55 9.35 -13.9 7.8Q-15.25 6.2 -17.55 6.35Q-15.5 4.5 -13.65 4.05Q-14.35 2.75 -14.35 0.95L-14.3 0.35Q-12.55 1.55 -10.1 1.55Q-6.65 1.55 -2.3 -1.05Q4.05 -4.9 4.05 -11.8L4.05 -11.9L5.75 -10.9M-8.1,6.6Q-9.95 9.15 -10.25 12.3L-10.35 13.6L-9.95 15.45Q-9.1 16.85 -6.95 17.95L-5.7 18.6L-5.55 19.2L0.9 19.55Q3 19.35 4.3 18.1L5.95 16.2L6.85 16.3Q10.05 14.25 11.15 9.75Q12.25 5.15 9.7 2.5Q7.15 -0.2 2.7 0.25Q-1.8 0.7 -5.9 4.2Q-7.2 5.35 -8.1 6.6M-7.8,25.3Q-8.55 24.45 -10 24.45Q-12.65 24.45 -12.65 25.8L-12.6 25.9L-12.2 26.95L-11.9 27.55L-11.65 27.9Q-11 28.65 -9.55 28.65L-8.8 28.6L-8.45 28.5L-8 28.3Q-7.15 27.9 -7.15 27.1Q-7.15 26.2 -7.6 25.55L-7.65 25.45L-7.8 25.3M20.95,8.45Q19.7 9.25 17.75 9.75Q20.4 12.4 20.85 14.25L21.25 16.85Q21.2 17.55 22.15 17.4Q23.1 17.25 24.25 16.2Q25.35 15.1 25.35 13Q25.35 11.3 23.45 9.5L21.55 8L20.95 8.45M9.6,23.6Q8.75 24.95 10 25Q15.55 25.35 10.5 23Q9.95 23.05 9.6 23.6M17.8,26.95L16.65 27.15L16.1 27.35L15.75 27.55L15.65 27.6Q15.05 28.05 14.8 28.65L14.6 29.55L14.65 29.75L15 30.25Q15.3 30.65 15.8 30.85L16.5 31.1L17.1 31.25L17.55 31.3L18 31.35L19.65 30.9Q20.75 30.35 20.75 29.25Q20.75 28.1 20.3 27.6Q19.75 26.9 18.2 26.9L17.8 26.95M12.9,33.65L12.5 33.6L10.9 33.95L9.75 34.65L9.75 34.8L10.45 35.95L11.1 36.05L11.5 36.05L12.4 35.9L12.85 35.7Q13.95 35.25 13.95 34.65L13.9 34.15L13.55 33.75L12.9 33.65M14.75,32.65L14.65 32.55L14.6 32.65L14.75 32.65M1.75,34.45Q1.9 34.95 2.35 35.25Q3 35.7 4.45 35.7L5.75 35.7Q6.55 35.55 6.55 34.8Q6.55 33.95 5.95 33.4Q5.25 32.9 4.05 32.9Q1.7 32.9 1.7 34.2L1.75 34.45" />
</g>
</svg>
