<?xml version="1.0" encoding="utf-8"?>
<svg version="1.1" id="Layer_1"
xmlns="http://www.w3.org/2000/svg"
xmlns:xlink="http://www.w3.org/1999/xlink"
xmlns:author="http://www.sothink.com"
width="12px" height="12px"
xml:space="preserve">
<g id="1652" transform="matrix(1, 0, 0, 1, 0, 0)">
<path style="fill:#80E3FF;fill-opacity:0.501961" d="M7.6,6.95L8.45 6.8L8.45 6.7Q8.5 5.7 7.85 5.3L9.9 5.4L11.4 6.95L10.75 7.75L10.05 8.4L7.6 6.95" />
<path style="fill:#7BCBD6;fill-opacity:0.701961" d="M3.65,6.55Q2.3 5.3 0.8 4.55L0.2 4.25L0.15 4.1L2.3 3.9Q4.15 3.8 5.35 2.95L5.35 0.65L5.35 0L5.4 0L6.55 1L8.25 3.45L6.3 4.8L6.25 4.85L5.8 5.1L3.65 6.55" />
<path style="fill:#96EEFA;fill-opacity:0.501961" d="M7.75,5.25L6.5 5.05L6.4 5.15L5.8 5.1L6.25 4.85L6.3 4.8L8.25 3.45L9.9 5.4L7.85 5.3L7.75 5.25" />
<path style="fill:#8CCFEC;fill-opacity:0.501961" d="M5.8,5.1L6.4 5.15L6.35 5.2Q5.3 7.2 7.6 6.95L10.05 8.4L9.85 8.5Q8.25 9.75 7.55 11.55Q6.55 10.6 5.65 9.25L5.7 9.2L5.7 9.05Q5.55 8.1 4.75 7.9L4.6 7.6L4.6 7.5L3.65 6.55L5.8 5.1M0.2,4.25L0 4.15L0.15 4.1L0.2 4.25" />
<path style="fill:#CBFFFF;fill-opacity:0.74902" d="M5.65,9.25L4.75 7.9Q5.55 8.1 5.7 9.05L5.7 9.2L5.65 9.25M6.4,5.15L6.5 5.05L7.75 5.25L7.85 5.3Q8.5 5.7 8.45 6.7L8.45 6.8L7.6 6.95Q5.3 7.2 6.35 5.2L6.4 5.15" />
</g>
</svg>
