<?xml version="1.0" encoding="utf-8"?>
<svg version="1.1" id="Layer_1"
xmlns="http://www.w3.org/2000/svg"
xmlns:xlink="http://www.w3.org/1999/xlink"
xmlns:author="http://www.sothink.com"
width="38px" height="17px"
xml:space="preserve">
<g id="2690" transform="matrix(1, 0, 0, 1, -23.1, -4.1)">
<path style="fill:#FFFFFF;fill-opacity:1" d="M41.2,13.15Q36.65 10.9 34.5 7.7Q32.35 4.55 30.9 4.95L27.7 5.65L24.55 5.6L23.1 5.1Q27 5.45 31.35 4.1Q32.85 4.2 33.65 5.4Q34.55 6.95 36.7 9.2L44.2 14.75Q41.95 14.1 41.2 13.15M49.3,18.05L49.3 18.1Q47.95 18.25 47.5 17.45L47.2 16.6L49.3 18.05M54,18.35L57.65 17.45Q59.8 18.5 60.65 20.8L60.65 20.85Q59.4 20.1 58.25 18.4L57.95 18.1Q55.85 19 54 18.35" />
</g>
</svg>
