<?xml version="1.0" encoding="utf-8"?>
<svg version="1.1" id="Layer_1"
xmlns="http://www.w3.org/2000/svg"
xmlns:xlink="http://www.w3.org/1999/xlink"
xmlns:author="http://www.sothink.com"
width="26px" height="22px"
xml:space="preserve">
<g id="1353" transform="matrix(1, 0, 0, 1, 0, 0)">
<path style="fill:#574031;fill-opacity:1" d="M10.7,10.55L10.8 10.65L10.7 10.6L10.7 10.55" />
<path style="fill:#E9CB9E;fill-opacity:1" d="M20.7,12.85L20.65 12.9L21.45 13.4L19.6 13.4L19.75 13.55Q21.2 14.8 23.45 15.6Q24.25 15.85 24.15 17.15L24.15 17.2L20.8 17.4L17.65 16.9L16.75 16.15L18 14.9L17.55 14.9L18.3 13.25L18.45 12.75Q18.8 11.6 18.6 10.7L18.55 10.4L18.3 9.85Q20.25 9.4 21.6 9.8Q22.4 10.05 22.9 10.45Q22.1 10.5 20.7 11.2Q19.6 11.8 19.1 12.15L19 12.15L21 12.6L21.05 12.6L20.7 12.85" />
<path style="fill:#C4944D;fill-opacity:1" d="M23.45,11.15Q23.9 12.05 23.9 13.15L23.35 13.05L21.25 12.6L21.05 12.6L21 12.6L19 12.15L19.1 12.15Q19.6 11.8 20.7 11.2Q22.1 10.5 22.9 10.45L23.45 11.15M17.55,14.9L18 14.9L16.75 16.15L17.65 16.9L20.8 17.4L24.15 17.2L24 17.5L22.95 18.65Q21.2 20.15 19.25 20.45L16.1 20.5Q14.9 20.25 13.7 19.35Q12.45 18.4 12.25 16.3L12.55 16.65L14.4 16.6Q16.35 16.2 17.55 14.9" />
<path style="fill:#EEECEA;fill-opacity:1" d="M24.15,17.15Q24.25 15.85 23.45 15.6Q21.2 14.8 19.75 13.55L19.6 13.4L21.45 13.4Q22.9 14.25 24.65 14.6Q24.75 16 24.15 17.15" />
<path style="fill:#694A1F;fill-opacity:1" d="M24.65,14.6Q22.9 14.25 21.45 13.4L20.65 12.9L20.7 12.85L21.05 12.6L21.25 12.6L23.35 13.05L23.9 13.15Q23.9 12.05 23.45 11.15L22.9 10.45Q22.4 10.05 21.6 9.8Q20.25 9.4 18.3 9.85L18.55 10.4L17.45 8.75L21.4 8.55Q23.5 8.9 24.25 10.45L24.4 10.7L24.5 11L24.6 11.25Q25 12.3 24.95 13.25L25.7 13.6L25.9 15L25.6 16.9Q25.15 18.05 24.25 18.85L21.35 20.75Q16 23.05 12.25 19.3Q10.5 17.5 11.45 16L10.65 15.65L11.6 15.85L12.25 16.3Q12.45 18.4 13.7 19.35Q14.9 20.25 16.1 20.5L19.25 20.45Q21.2 20.15 22.95 18.65L24 17.5L24.15 17.2L24.15 17.15Q24.75 16 24.65 14.6" />
<path style="fill:#C68331;fill-opacity:1" d="M1.9,2.15L4.9 2.45L7.5 3.3L7.35 3.4L6.5 4.05Q8.9 3.8 11.75 5.95L17.6 10.9L17.25 12.95Q14.6 13.15 12.45 11.2Q10.25 9.25 10.1 8.2L10.1 9.15L10.5 9.95L10.7 10.55L8.35 9.05L7.85 7.8L7.85 7.65L7.7 9L8.05 10.8Q6.7 9.85 5.85 8.9Q2.8 5.45 1.65 3.05L1.9 2.15" />
<path style="fill:#AA692B;fill-opacity:1" d="M16,14.7Q15.15 15.4 13.9 15.7Q7.75 13.1 1.95 9.25L1.9 9.25Q1 6.15 1.55 3.4L1.65 3.05Q2.8 5.45 5.85 8.9Q6.7 9.85 8.05 10.8L7.7 9L7.85 7.65L7.85 7.8L8.35 9.05L10.7 10.55L10.7 10.6L10.8 10.65L10.7 10.55L10.5 9.95L10.1 9.15L10.1 8.2Q10.25 9.25 12.45 11.2Q14.6 13.15 17.25 12.95L16 14.7" />
<path style="fill:#F3B94B;fill-opacity:1" d="M17.6,10.9L11.75 5.95Q8.9 3.8 6.5 4.05L7.35 3.4L7.5 3.3L4.9 2.45L1.9 2.15L2.3 1.1Q6.95 1.6 11.2 3.45L15.05 7.3L17.6 10.25L17.6 10.9" />
<path style="fill:#662D11;fill-opacity:1" d="M13.65,4.1Q15.4 5.7 17.45 8.75L18.55 10.4L18.6 10.7Q18.8 11.6 18.45 12.75L18.3 13.25L17.55 14.9Q16.35 16.2 14.4 16.6L12.55 16.65L12.25 16.3L11.6 15.85L10.65 15.65L8.9 14.65Q7.1 13.6 4.5 12.25Q1.85 10.85 1.7 10.45Q1.2 10.7 0.3 7.4Q-0.4 5 0.45 2.2L0.95 0.85L1.3 0.05L4.1 0.1Q6.45 0.25 8.55 1.05L11.25 2.15L13.65 4.1M17.6,10.25L15.05 7.3L11.2 3.45Q6.95 1.6 2.3 1.1L1.9 2.15L1.65 3.05L1.55 3.4Q1 6.15 1.9 9.25L1.95 9.25Q7.75 13.1 13.9 15.7Q15.15 15.4 16 14.7L17.25 12.95L17.6 10.9L17.6 10.25" />
</g>
</svg>
