<?xml version="1.0" encoding="utf-8"?>
<svg version="1.1" id="Layer_1"
xmlns="http://www.w3.org/2000/svg"
xmlns:xlink="http://www.w3.org/1999/xlink"
xmlns:author="http://www.sothink.com"
width="60px" height="53px"
xml:space="preserve">
<g id="3129" transform="matrix(1, 0, 0, 1, 0, 0)">
<path style="fill:#FFCC00;fill-opacity:1" d="M55.9,5.2L55.45 5.6Q55.2 5.5 55.2 5.05L55.8 4.9L55.9 5.2M59.65,1.85L60 2.05L59.8 2.25L59.45 2.1L59.45 1.9L59.65 1.85M48.6,0.3L48.45 0.25Q48.65 -0.1 49 0L48.6 0.3M44.3,4.05L44.1 4.15L43.8 4.05L43.75 3.75L43.85 3.45L44.1 3.45L44.45 3.75L44.3 4.05M54.95,23.75L54.7 24L54.45 24L54.4 23.75L54.45 23.5L54.7 23.45L54.95 23.75M58.75,30.35L58.55 30.7L58.35 30.35Q58.45 30.2 58.75 30.35M35.6,8.45L35.7 8.1L35.95 8Q36.2 8.1 36.3 8.3L36.05 8.5L35.7 8.65Q35.6 8.85 35.6 8.45M29.1,2.2L28.8 2.05L29.2 1.6L29.45 1.7L29.6 1.9L29.4 2.1L29.1 2.2M26.8,10.75L26.75 11.1L26.65 11.2L26.45 11.25L26.1 10.75Q26.1 10.5 26.25 10.45L26.7 10.45L26.8 10.75M19.55,9.2L19.7 9.55L19.45 9.75L19.25 9.3L19.55 9.2M8,19.15L7.8 19.35L7.6 19.1L8 19.15M17.3,13.9L17.6 14.05L17.3 14.35L17.1 14.3L17.3 13.9M11.35,19.45L11 19.25L11.2 18.95L11.6 19.25L11.35 19.45M17.75,25.25L17.45 25.05L17.75 24.65L18.05 24.95L17.75 25.25M16.9,30L16.85 30.2L16.55 30.15L16.45 29.8L16.75 29.75L16.8 29.7L16.9 30M13.85,27.7L13.95 27.95L13.85 28.15L13.6 28.1L13.45 27.75L13.8 27.7L13.85 27.7M11.3,29.1L11.05 29Q11.15 28.8 11.5 29L11.3 29.1M6.65,37.45L6.55 37.65L6.05 37.7Q5.95 37.8 5.95 37.45L6 37.2L6.3 37.15L6.6 37.2L6.65 37.45M0.95,47L0.9 47L0.9 47.05L0.45 47.25L0 46.7Q0 46.15 0.45 46.15Q0.85 46.15 0.9 46.55L0.95 46.55L1 46.8L0.95 47M7.1,46.5L7.1 46.4L7.15 46.65L7.1 46.85L6.95 46.9L6.85 46.55L7.1 46.5M8.35,52.1L8.65 52.05L8.7 52L8.75 52.3L8.75 52.5L8.45 52.5L8.35 52.1" />
</g>
</svg>
