<?xml version="1.0" encoding="utf-8"?>
<svg version="1.1" id="Layer_1"
xmlns="http://www.w3.org/2000/svg"
xmlns:xlink="http://www.w3.org/1999/xlink"
xmlns:author="http://www.sothink.com"
width="11px" height="9px"
xml:space="preserve">
<g id="1868" transform="matrix(1, 0, 0, 1, -0.65, -0.95)">
<path style="fill:#876430;fill-opacity:1" d="M10.75,5.45Q10.6 9.7 5.85 9.95Q3.35 10.05 2.15 8.85Q1.05 7.75 0.7 5.25L0.7 4.5Q0.95 3 1.7 2.35Q2.4 1.65 3.5 1.3L3.85 1.2L4.8 1.05L6.15 0.95Q10.6 0.8 10.75 4.85L10.75 5.45M1.75,4.95Q1.95 7.55 2.85 8.4Q3.85 9.4 6.4 9.1Q9.9 8.7 10.05 5.7L10.05 5.3Q10.05 1.45 6.15 1.75Q2.7 2 1.95 3.85L1.75 4.95" />
<path style="fill:#E9CB9E;fill-opacity:1" d="M9.9,5.8Q8.55 6.95 6.55 6.95Q4.05 6.95 2.85 5.8Q1.95 4.95 1.95 3.9L1.95 3.85Q2.7 2 6.15 1.75Q10.05 1.45 10.05 5.3L10.05 5.7L9.9 5.8" />
<path style="fill:#D0A15B;fill-opacity:1" d="M1.95,3.85L1.95 3.9Q1.95 4.95 2.85 5.8Q4.05 6.95 6.55 6.95Q8.55 6.95 9.9 5.8L10.05 5.7Q9.9 8.7 6.4 9.1Q3.85 9.4 2.85 8.4Q1.95 7.55 1.75 4.95L1.95 3.85" />
</g>
</svg>
