<?xml version="1.0" encoding="utf-8"?>
<svg version="1.1" id="Layer_1"
xmlns="http://www.w3.org/2000/svg"
xmlns:xlink="http://www.w3.org/1999/xlink"
xmlns:author="http://www.sothink.com"
width="20px" height="20px"
xml:space="preserve">
<g id="780" transform="matrix(1, 0, 0, 1, 4.4, 4.3)">
<linearGradient
id="LinearGradID_939" gradientUnits="userSpaceOnUse" gradientTransform="matrix(0, 0.00665283, -0.011322, 0, 5.4, 8.15)" spreadMethod ="pad" x1="-819.2" y1="0" x2="819.2" y2="0" >
<stop  offset="0" style="stop-color:#FAE444;stop-opacity:1" />
<stop  offset="1" style="stop-color:#EE841E;stop-opacity:1" />
</linearGradient>
<path style="fill:url(#LinearGradID_939) " d="M11.95,-1.1Q14.65 1.6 14.65 5.45Q14.65 9.3 11.95 12.05Q9.25 14.75 5.35 14.75Q1.55 14.75 -1.2 12.05Q-3.9 9.3 -3.9 5.45Q-3.9 1.6 -1.2 -1.1Q1.55 -3.8 5.35 -3.8Q9.25 -3.8 11.95 -1.1" />
<path style="fill:none;stroke-width:1;stroke-linecap:round;stroke-linejoin:round;stroke-miterlimit:3;stroke:#C60505;stroke-opacity:1" d="M11.95,-1.1Q14.65 1.6 14.65 5.45Q14.65 9.3 11.95 12.05Q9.25 14.75 5.35 14.75Q1.55 14.75 -1.2 12.05Q-3.9 9.3 -3.9 5.45Q-3.9 1.6 -1.2 -1.1Q1.55 -3.8 5.35 -3.8Q9.25 -3.8 11.95 -1.1z" />
</g>
</svg>
