<?xml version="1.0" encoding="utf-8"?>
<svg version="1.1" id="Layer_1"
xmlns="http://www.w3.org/2000/svg"
xmlns:xlink="http://www.w3.org/1999/xlink"
xmlns:author="http://www.sothink.com"
width="68px" height="521px"
xml:space="preserve">
<g id="2731" transform="matrix(1, 0, 0, 1, 21.5, 415.6)">
<path style="fill:#FFFFFF;fill-opacity:1" d="M26.5,-386.2L23.75 -362.75Q21 -338.05 21 -328.85Q21 -326.45 22.25 -318.85Q23.5 -311.1 23.5 -296.8L23.25 -292.15Q25.5 -288.7 27.95 -281.6Q31.55 -271.45 32.3 -263.45L38 -260.8Q38 -254.9 38.45 -245.3Q39.15 -230.1 40.5 -226.1L38.9 -219.7L38 -215.4Q38 -213.3 38.3 -211.95L39 -210.1Q37 -207.55 34.4 -197.25Q36.85 -191.15 37 -176.7Q37.05 -170.05 39.95 -163.9Q43.4 -156.85 44 -152.7Q44.55 -148.85 45.5 -127.35L46.5 -103.3L42.65 -123.6Q41.15 -130 39.25 -130Q37.35 -130 35 -127.1Q32.45 -124 31 -119.35Q32.25 -116 33.7 -113.2Q35.35 -110 36 -110Q36.65 -110 36.9 -111.35Q37.15 -112.65 37.75 -112.65Q39 -112.65 39.35 -108.15Q39.6 -104.5 40.4 -100.9Q37.9 -94.9 37 -81.85Q36.5 -75.05 36.5 -59.95Q36.5 -55.3 39.75 -23.8Q43 7.85 43 10.75Q43 13.3 42 18.65Q40.1 28.65 39.2 40.8Q38.3 52.95 39.5 70.55Q40.7 88.15 37.65 90.7Q36.25 95.4 35.5 96.85L32.1 96.85L31.5 99.1Q29.3 104.85 19.25 104.85Q6.15 104.85 -2.05 92.85Q-6.55 86.3 -7.45 81.9Q-8.4 77.5 -8.4 76.3L-7.9 70.3L-3 10.1Q-3 1.15 -5.35 -11.1Q-7.95 -24.85 -11 -27.25Q-17 -32.05 -18.75 -52.75L-19.85 -69.05Q-20.5 -77.95 -21.5 -81.95L-21 -81.95Q-20.8 -79.55 -18.45 -74.75Q-16.35 -70.5 -14 -67.3L-7.5 -67.3L-7.25 -72.35L-7 -77.95Q-7 -85.7 -10 -95.05L-13 -104.65Q-13 -107.6 -10.6 -118.95L-8.9 -126.95L-13.25 -143.5Q-21 -172.85 -21 -179.4L-20 -193.25Q-19 -206.5 -19 -222.1Q-19 -239.15 -19.2 -242.25L-19.3 -243.95Q-17.65 -249.45 -16.75 -257.3Q-15.85 -265.3 -16 -274.15L-15.5 -274.15Q-15.7 -268.95 -13.65 -258.9L-10 -243.45L-6 -243.45L-6 -255.45Q-8.1 -273.05 -9 -275.45L-8.5 -275.45Q-1.95 -273.05 -0.55 -280.65Q0 -283.45 0 -300.8Q0 -302.3 -2 -320.05Q-4 -337.9 -4 -340.2L-3.5 -351.8Q-3 -361.95 -3.05 -364.85Q-2.2 -370.5 -1.2 -372.75L1.55 -378.1Q2.7 -381 3.75 -387.45L3.25 -380.9Q2.5 -371 2.5 -367.55Q2.5 -364.45 2.8 -358.75L3 -355.55Q3 -349.4 4.15 -338.7Q5.55 -325.35 7.5 -322.15Q9.1 -330.7 10.7 -341.4Q13 -356.35 13 -361.55Q13 -367.55 12.6 -376.35Q12.35 -382.1 12.7 -385.15Q13.35 -391.55 21.5 -415.6Q21.5 -406.5 24 -395.55Q25.25 -390.1 26.5 -386.2M35,-346.85Q35 -342.3 33.5 -331.9L32 -320.85Q31.65 -323.65 31.65 -330.45Q31.6 -337.25 32 -344.3L32.7 -359.15Q32.9 -366.85 34.1 -370.6Q34.3 -360.6 35 -346.85M9,-268.65L7.7 -273.35L3 -259.45Q5.45 -252.9 7.2 -244.25L8.05 -239.55L8 -241.45Q8 -251.85 8.2 -253.85Q8.85 -259.7 11.5 -258.1Q11.5 -260.65 9 -268.65M30.25,-249.05Q28 -244.1 28 -234.75L30 -217.4L31.6 -201.25L31.65 -200.6L31.75 -201.15L34.5 -220.1Q33 -234.1 33 -238.1Q33 -239.85 33.5 -245.05L34 -251.45L31.6 -252.65L30.25 -249.05M22,-106Q22 -105.05 20 -94.1Q18 -83.05 18 -80.65Q21 -83.95 22.25 -80.1Q23.15 -77.15 23.65 -67.3Q25.05 -38.75 28.35 -26.45L27.75 -33Q27 -41.4 27 -48.6Q27 -59.3 28.5 -68.65L30 -75.95L29 -82.75Q28.65 -85.55 28.45 -88.4L26.15 -93.7Q23.05 -101.2 22.5 -104.65Q22 -104.65 22 -106M28.5,-25.9L28.35 -26.45L28.5 -24.6L28.5 -25.9M26.5,53.45L27.5 61.9L29 74.15L28.65 59.1Q28.35 55.35 26.8 51.75L26.5 53.45M7.5,62.15Q7.5 63.1 8.25 68.15Q9 73.1 9 76.85Q10 68.8 10 63.5L9.85 56.7L8.65 53.85L8.6 54Q7.5 58.3 7.5 62.15M-9.9,-206.35Q-9.7 -207.95 -8.5 -208.75Q-9.3 -208.75 -11.5 -209.8Q-11 -210.1 -11 -211.4L-12.25 -210.2L-13.5 -208.75Q-13.5 -206.35 -10.75 -199.15L-9.85 -196.6L-10 -199.4L-9.9 -206.35M-9.6,-194.05Q-9.15 -189.95 -8.5 -187.4L-8.5 -188.75Q-8.2 -191.65 -9.85 -196.6L-9.6 -194.05M-8.85,-161.1L-9 -160.55Q-10.25 -154.7 -11 -152.7Q-9.6 -149.5 -5.65 -137.35Q-2 -126.15 -1.15 -122.65L-1 -120.65L-1 -122L-1.15 -122.65L-1.7 -132.8L-2 -146Q-3.05 -146 -6.95 -156.05L-8.85 -161.1M-4,-78.65Q-2.75 -72.9 -2.55 -68.1L-2.5 -64.6L-2.5 -65.95L-2.55 -68.1Q-2.45 -74.35 -1 -80.65Q-1.5 -81.05 -4.1 -86.4L-5.15 -88.5L-5.5 -86.65L-4 -78.65M-4.6,-23.65L-5.2 -24.7Q-4.65 -18.85 -3.1 -12.85Q-0.05 -0.85 0.5 3.45Q0.1 -0.7 -0.2 -7.4L-0.5 -19.25Q-2 -19.25 -4.6 -23.65" />
</g>
</svg>
