<?xml version="1.0" encoding="utf-8"?>
<svg version="1.1" id="Layer_1"
xmlns="http://www.w3.org/2000/svg"
xmlns:xlink="http://www.w3.org/1999/xlink"
xmlns:author="http://www.sothink.com"
width="67px" height="69px"
xml:space="preserve">
<g id="497" transform="matrix(1, 0, 0, 1, 8.5, -1.35)">
<path style="fill:#E9E6E3;fill-opacity:1" d="M49.3,11.25L49.3 11.15L49.25 11.15L49.1 11.15L49.3 11.05L49.35 11L49.3 11.25" />
<path style="fill:#E2E2E2;fill-opacity:1" d="M49.35,11L49.35 10.85L49.4 10.9L49.5 10.75L49.55 10.75L49.6 10.75L49.45 10.95L49.35 11" />
<path style="fill:#F5F1EE;fill-opacity:1" d="M49.65,10.6L49.5 10.75L49.4 10.8L49.4 10.75L49.65 10.6M49.35,10.75L49.35 10.8L49.3 10.8L49.35 10.75" />
<path style="fill:#C9C2BE;fill-opacity:1" d="M49.5,10.75L49.4 10.9L49.35 10.85L49.3 10.8L49.35 10.8L49.35 10.75L49.35 10.7L49.4 10.75L49.4 10.8L49.5 10.75L49.65 10.6L49.55 10.75L49.5 10.75M49.35,10.85L49.35 11L49.3 11.05L49.35 10.85" />
<path style="fill:#ACA49F;fill-opacity:1" d="M30.85,30.8L30.8 30.7L30.85 30.6L33.45 27.9L30.85 30.7L30.85 30.8M27.75,34L27.85 34L27.75 34.1L27.75 34" />
<path style="fill:#513422;fill-opacity:1" d="M4.8,54.55L4.15 53.75L3.35 52.9L7.85 48.55L9.25 49.7L14.25 53.75L14.1 53.75L7.8 59.8L6.2 61.35L4.45 63.05L3.4 64.1L2.1 65.3Q-0.3 67.55 -1.55 67.55L-4.1 65.9L-2.75 64.95L-1.85 64.1L0.55 62.1L2.95 59.75Q5.55 57.1 5.55 56.55Q5.55 55.65 4.8 54.55" />
<path style="fill:#805A43;fill-opacity:1" d="M5.55,56.55Q5.55 57.1 2.95 59.75L0.55 62.1L-1.85 64.1L-2.75 64.95L-4.1 65.9L-4.5 65.5L-4.7 65.3L-5.4 64.25L-4.05 62.7L-3.5 62.1L-1.85 60.45L-1.35 59.95L-0.6 59.25L-0.55 59.3L-0.05 58.8L3.65 55.45L4.8 54.55Q5.55 55.65 5.55 56.55" />
<path style="fill:#C4855D;fill-opacity:1" d="M4.15,53.75L4.8 54.55L3.65 55.45L-0.05 58.8L-0.55 59.3L-0.6 59.25L-1.35 59.95L-1.85 60.45L-3.5 62.1L-4.05 62.7L-5.4 64.25L-5.55 62.9L-5.4 62.4Q-4.9 60.95 -3.15 59.25L-2.7 58.8L-1.8 57.9L0.15 56.05L0.1 56L3.35 52.9L4.15 53.75" />
<path style="fill:#3C2515;fill-opacity:1" d="M3.35,52.9L0.1 56L0.15 56.05L-1.8 57.9L-2.7 58.8L-3.15 59.25Q-4.9 60.95 -5.4 62.4L-5.55 62.9L-5.4 64.25L-4.7 65.3L-4.5 65.5L-4.1 65.9L-1.55 67.55Q-0.3 67.55 2.1 65.3L3.4 64.1L4.45 63.05L6.2 61.35L7.8 59.8L14.1 53.75L14.25 53.75Q19.8 53.45 13.8 58.6L7 64.6L2.65 68.4Q-0.15 70.75 -1.95 70.25Q-3.75 69.75 -5.35 68.4L-7.3 66.4L-8.2 64.65L-8.5 63.3L-8.3 61.95Q-7.85 60.35 -5.7 58.05Q-3.85 56 1.55 51.05L3.2 49.5L6.2 46.95Q9.85 44.25 9.55 46.9L7.85 48.55L3.35 52.9" />
<path style="fill:#A8FFC5;fill-opacity:1" d="M49.45,10.95L49.6 10.75L53.5 6.6L53.95 6.45L51.55 22.95L49.35 24.65L49.45 10.95" />
<path style="fill:#CDFFCD;fill-opacity:1" d="M37.55,12L38.35 10.9L53.5 6.6L49.6 10.75L49.55 10.75L49.65 10.6L49.4 10.75L49.35 10.7L49.35 10.75L49.3 10.8L37.55 12" />
<path style="fill:#69E588;fill-opacity:1" d="M30.85,30.7L33.45 27.9L44.95 15.5L44.9 15.5L44.35 15.95L49.25 11.15L49.3 11.15L49.3 11.25L49.35 11L49.45 10.95L49.35 24.65L32.45 37.7L30.85 30.7" />
<path style="fill:#3AB158;fill-opacity:1" d="M30.8,30.7L30.85 30.8L30.85 30.7L32.45 37.7L20.75 46.75L19.9 45.9L17.9 43.9L30.8 30.7M27.75,34.1L27.85 34L27.75 34L27.75 34.1" />
<path style="fill:#85F3A1;fill-opacity:1" d="M49.3,10.8L49.35 10.85L49.3 11.05L49.1 11.15L49.25 11.15L44.35 15.95L44.9 15.5L44.95 15.5L33.45 27.9L30.85 30.6L23.4 30.35L37.55 12L49.3 10.8" />
<path style="fill:#53CD72;fill-opacity:1" d="M17.9,43.9L16.6 42.6L15.15 41.05L23.4 30.35L30.85 30.6L30.8 30.7L17.9 43.9" />
<path style="fill:#6AD08F;fill-opacity:1" d="M22.05,47.85L21.95 47.8L20.75 46.75L32.45 37.7L32.9 39.65L22.05 47.85" />
<path style="fill:#92EEB4;fill-opacity:1" d="M39.95,34.2L33.8 39L32.9 39.7L32.9 39.65L32.45 37.7L49.35 24.65L49 27.05L39.95 34.2M15.15,41.05L14.4 40.1Q16.55 36.8 21.45 30.25L23.4 30.35L15.15 41.05" />
<path style="fill:#0A7448;fill-opacity:1" d="M14.4,40.1L12.55 38.15L34.2 8.2L45.3 4.5L58.3 1.35Q57.9 10.1 56.55 19.05L55.5 25.5L24.2 49.8L24.3 50L22.85 48.85L21.95 47.8L22.05 47.85L32.9 39.65L32.9 39.7L33.8 39L39.95 34.2L49 27.05L49.7 26.65L52.95 23.8L53.25 21.65L54.35 13.85L55.3 4.85L55.2 4.95L55 4.95Q51.55 5.55 45.95 7.4L42.75 8.35Q38.85 9.55 36.15 10.7L34.9 12.25L32.8 15L25.9 24.3L21.45 30.25Q16.55 36.8 14.4 40.1" />
<path style="fill:#D7FFF0;fill-opacity:1" d="M38.35,10.9L37.55 12L23.4 30.35L21.45 30.25L25.9 24.3L32.8 15L34.9 12.25L36.15 10.7Q38.85 9.55 42.75 8.35L45.95 7.4Q51.55 5.55 55 4.95L55.2 4.95L55.3 4.85L54.35 13.85L53.25 21.65L52.95 23.8L49.7 26.65L49 27.05L49.35 24.65L51.55 22.95L53.95 6.45L53.5 6.6L38.35 10.9" />
</g>
</svg>
