<?xml version="1.0" encoding="utf-8"?>
<svg version="1.1" id="Layer_1"
xmlns="http://www.w3.org/2000/svg"
xmlns:xlink="http://www.w3.org/1999/xlink"
xmlns:author="http://www.sothink.com"
width="346px" height="263px"
xml:space="preserve">
<g id="2686" transform="matrix(1, 0, 0, 1, 0.6, 22.3)">
<path style="fill:#1C4EDE;fill-opacity:1" d="M252.2,58.4L344.85 24L277.35 96.8L335.55 112.65L278.65 133.85L342.2 178.9L265.45 172.3L273.35 221.25L228.4 181.55L212.5 227.85L179.45 188.15L155.6 239.75L137.1 190.8L88.1 227.85L93.4 177.55L24.55 213.3L65.55 149.8L8.65 148.45L52.35 117.95L-0.6 76.95L58.95 80.9L21.9 9.45L96.05 61.7L96.05 26.65L122.55 49.15L138.4 -22.3L162.2 42.55L192.65 5.5L200.6 42.55L252.2 6.8L252.2 58.4M188.05,25.35L159.6 60.45L140.4 10.8L125.15 61.8L103.35 44.6L101.35 73.05L42.45 34L69.6 89.6L19.3 86.25L61 117.35Q61.65 118.05 27.25 143.85L78.2 143.85L46.45 193.45L102.7 165L98.05 210L141.05 178.25L154.95 221.9L178.1 174.95L209.85 212.65L223.1 167.65L265.5 206.7L258.2 164.35L315.1 170.3L264.85 132.6L313.15 113.4L267.5 100.85L322.4 38.65L242.3 69.75L243 22.75L197.3 55.85L188.05 25.35" />
<path style="fill:#0B2448;fill-opacity:1" d="M197.3,55.85L243 22.75L242.3 69.75L322.4 38.65L267.5 100.85L313.15 113.4L264.85 132.6L315.1 170.3L258.2 164.35L265.5 206.7L223.1 167.65L209.85 212.65L178.1 174.95L154.95 221.9L141.05 178.25L98.05 210L102.7 165L46.45 193.45L78.2 143.85L27.25 143.85Q61.65 118.05 61 117.35L19.3 86.25L69.6 89.6L42.45 34L101.35 73.05L103.35 44.6L125.15 61.8L140.4 10.8L159.6 60.45L188.05 25.35L197.3 55.85" />
</g>
</svg>
