<?xml version="1.0" encoding="utf-8"?>
<svg version="1.1" id="Layer_1"
xmlns="http://www.w3.org/2000/svg"
xmlns:xlink="http://www.w3.org/1999/xlink"
xmlns:author="http://www.sothink.com"
width="45px" height="45px"
xml:space="preserve">
<g id="271" transform="matrix(1, 0, 0, 1, 1.15, 20.4)">
<path style="fill:#3C2A22;fill-opacity:1" d="M23.3,-17.25Q21.95 -13.1 22.65 -11.35Q22.95 -10.6 23.2 -10.3L23.2 -10.25L23.3 -10.15L23.3 -10.1L22.55 -7.8L21.3 -5.05L17.65 0.9L15.85 3.1L13.8 5.4Q10.25 9.2 7.7 10.5L5.1 11.55Q4.05 11.8 4.35 11.05L4.9 10.9Q6.45 10.15 11.25 6.2L12.25 5.3L14.4 3Q18.35 -1.65 21.8 -9.4Q20.35 -13.65 21.8 -17.1Q22.4 -18.55 23.5 -20L25.2 -16.45Q25.85 -15 27.05 -14.4Q29.45 -15 30.7 -17.15Q31.9 -19.35 31.8 -20.4Q36.35 -20.45 37.25 -14.5Q39.3 -15.7 42.95 -20.3Q43.55 -7.55 36.1 2.4L35.2 3.55Q33.05 5.95 29.45 8.65L28.8 9.1L29.5 6.4Q29.85 4.45 29.6 3.3L27.25 6.25L26 7.6Q22.3 11.45 17.5 14.5Q10.15 19.05 8.45 19.15Q7.4 19.25 10.5 17.25Q12.25 16.1 15.45 14.3Q21.1 11.05 25.7 6.15L26.15 5.7L30.2 0.55L30.35 0.75Q31.5 2.3 31 5.8Q35.6 1.35 38 -3.15Q39.25 -5.6 39.9 -8.05Q41.7 -15.05 41.8 -16.85Q39.3 -13.65 36.45 -12.6L35.95 -14.85L35.45 -16.15L34.95 -17.15Q34.5 -18 33.45 -18.7L33.25 -18.85L32.95 -18L31.85 -16.1Q30.2 -13.5 26.7 -12.95L25.25 -13.9Q24.25 -14.75 23.3 -17.2L23.3 -17.25" />
<path style="fill:#FFFFFF;fill-opacity:1" d="M34.85,-16.9L33.85 -17.5L33.65 -17.6L33.45 -18.7Q34.5 -18 34.95 -17.15L35.45 -16.15L34.85 -16.9M40.55,-13.95Q37.6 -12.15 33.9 -10.55Q30.15 -8.95 26.9 -10.05Q29.6 -10.05 33.15 -11.15L33.95 -11.4L36.45 -12.6Q39.3 -13.65 41.8 -16.85Q41.7 -15.05 39.9 -8.05Q39.25 -5.6 38 -3.15Q40.3 -9.6 40.55 -13.95" />
<path style="fill:#D4C5BD;fill-opacity:1" d="M33.15,-11.15Q29.6 -10.05 26.9 -10.05L26.6 -10.15Q32.5 -11.95 33.45 -15.9L33.5 -16L34.1 -14.35Q34.45 -12.85 33.95 -11.4L33.15 -11.15" />
<linearGradient
id="LinearGradID_506" gradientUnits="userSpaceOnUse" gradientTransform="matrix(-0.00325012, 0.00268555, -0.00338745, -0.00408936, 28.2, -15.6)" spreadMethod ="pad" x1="-819.2" y1="0" x2="819.2" y2="0" >
<stop  offset="0.00392157" style="stop-color:#917162;stop-opacity:1" />
<stop  offset="1" style="stop-color:#C2AEA0;stop-opacity:1" />
</linearGradient>
<path style="fill:url(#LinearGradID_506) " d="M33.65,-17.6L33.5 -16L33.45 -15.9Q32.5 -11.95 26.6 -10.15L26.45 -10.1Q24.65 -11.45 23.85 -13.3Q23 -15.25 23.3 -17.2Q24.25 -14.75 25.25 -13.9L26.7 -12.95Q30.2 -13.5 31.85 -16.1L32.95 -18L33.25 -18.85L33.45 -18.7L33.65 -17.6" />
<linearGradient
id="LinearGradID_507" gradientUnits="userSpaceOnUse" gradientTransform="matrix(-0.000869751, -0.00305176, 0.00167847, -0.000473022, 34.85, -13.4)" spreadMethod ="pad" x1="-819.2" y1="0" x2="819.2" y2="0" >
<stop  offset="0.00392157" style="stop-color:#917162;stop-opacity:1" />
<stop  offset="1" style="stop-color:#C2AEA0;stop-opacity:1" />
</linearGradient>
<path style="fill:url(#LinearGradID_507) " d="M33.95,-11.4Q34.45 -12.85 34.1 -14.35L33.5 -16L33.65 -17.6L33.85 -17.5L34.85 -16.9L35.45 -16.15L35.95 -14.85L36.45 -12.6L33.95 -11.4" />
<linearGradient
id="LinearGradID_508" gradientUnits="userSpaceOnUse" gradientTransform="matrix(-0.00299072, 0.00598145, -0.0118866, -0.00593567, 28.35, -8.1)" spreadMethod ="pad" x1="-819.2" y1="0" x2="819.2" y2="0" >
<stop  offset="0.00392157" style="stop-color:#6D5852;stop-opacity:1" />
<stop  offset="1" style="stop-color:#AF9A8D;stop-opacity:1" />
</linearGradient>
<path style="fill:url(#LinearGradID_508) " d="M38,-3.15Q35.6 1.35 31 5.8L31.8 3.9Q32.95 0.25 31.05 -3.25L30.95 -3.95L30.8 -3.65Q28.7 0.3 25.75 3.75L23.6 6.05Q20.5 9.1 16.65 11.7Q12.35 14.6 8.9 15.95L8.15 15.3Q11.65 14 15.95 11.15Q19.45 8.9 22.45 5.95L24.65 3.65Q28.25 -0.4 31.15 -5.55Q33.2 -4.25 32.9 -1.15Q35.2 -3.8 35.8 -5.75Q36.4 -7.7 36.6 -9.55L34 -8.5L31.05 -7.75L26.55 -7.95Q24.1 -1.55 20.1 3.4L18 5.7L13.55 9.55Q9.7 12.45 6.5 13.6L5.75 12.65Q9 11.7 12.85 8.95L16.9 5.6L19.05 3.3Q23.1 -1.55 25.4 -8.1Q25.15 -8 24.55 -8.5L23.3 -10.1L23.3 -10.15L23.2 -10.25L23.2 -10.3Q22.95 -10.6 22.65 -11.35Q21.95 -13.1 23.3 -17.25L23.3 -17.2Q23 -15.25 23.85 -13.3Q24.65 -11.45 26.45 -10.1L26.55 -10.05L26.9 -10.05Q30.15 -8.95 33.9 -10.55Q37.6 -12.15 40.55 -13.95Q40.3 -9.6 38 -3.15" />
<linearGradient
id="LinearGradID_509" gradientUnits="userSpaceOnUse" gradientTransform="matrix(0.00743103, -0.0117493, 0.00395203, 0.00250244, 15.1, 2.85)" spreadMethod ="pad" x1="-819.2" y1="0" x2="819.2" y2="0" >
<stop  offset="0.00392157" style="stop-color:#917162;stop-opacity:1" />
<stop  offset="1" style="stop-color:#C2AEA0;stop-opacity:1" />
</linearGradient>
<path style="fill:url(#LinearGradID_509) " d="M5.1,11.55L7.7 10.5Q10.25 9.2 13.8 5.4L15.85 3.1L17.65 0.9L21.3 -5.05L22.55 -7.8L23.3 -10.1L24.55 -8.5Q25.15 -8 25.4 -8.1Q23.1 -1.55 19.05 3.3L16.9 5.6L12.85 8.95Q9 11.7 5.75 12.65L5.1 11.55" />
<path style="fill:#931A26;fill-opacity:1" d="M29.15,-5.65L28.15 -6L27.55 -6.35Q25.9 -2.6 22.8 1.85L21.65 3.45L19.75 5.8Q14.65 11.45 8.55 13.65Q11.55 12.95 14.9 10.65Q17.7 8.75 20.6 5.85L22.75 3.55L24.1 1.9L27.05 -2.1L29.15 -5.65M6.7,13.8Q13.6 11.85 19.15 5.75L21.1 3.45L22.1 2.05Q25.5 -2.7 27.4 -7.3Q28.35 -6.45 30.95 -6.8L31.8 -6.95L31.85 -6.95L34.15 -7.5L34.8 -7.7Q34.9 -4.95 33.5 -3.5L33.45 -4.35Q33.2 -5.8 32.3 -6.1Q31.75 -6.3 30.35 -5.7Q27.45 -0.95 23.4 3.6L21.85 5.2L21.2 5.9Q13.65 13.5 7.2 14.35L6.75 13.9L6.7 13.8M32.65,-6.4L33.8 -5.15L34.15 -7.05L32.4 -6.7L32.25 -6.7L32.65 -6.4" />
<path style="fill:#BD3C49;fill-opacity:1" d="M27.05,-2.1L24.1 1.9L22.75 3.55L20.6 5.85Q17.7 8.75 14.9 10.65Q11.55 12.95 8.55 13.65Q14.65 11.45 19.75 5.8L21.65 3.45L22.8 1.85Q25.9 -2.6 27.55 -6.35L28.15 -6L29.15 -5.65L27.05 -2.1M32.25,-6.7L32.4 -6.7L34.15 -7.05L33.8 -5.15L32.65 -6.4L32.25 -6.7" />
<path style="fill:#3F2E27;fill-opacity:1" d="M6.5,13.6Q9.7 12.45 13.55 9.55L18 5.7L20.1 3.4Q24.1 -1.55 26.55 -7.95L31.05 -7.75L34 -8.5L36.6 -9.55Q36.4 -7.7 35.8 -5.75Q35.2 -3.8 32.9 -1.15Q33.2 -4.25 31.15 -5.55Q28.25 -0.4 24.65 3.65L22.45 5.95Q19.45 8.9 15.95 11.15Q11.65 14 8.15 15.3L7.9 15.05L7.2 14.35Q13.65 13.5 21.2 5.9L21.85 5.2L23.4 3.6Q27.45 -0.95 30.35 -5.7Q31.75 -6.3 32.3 -6.1Q33.2 -5.8 33.45 -4.35L33.5 -3.5Q34.9 -4.95 34.8 -7.7L34.15 -7.5L31.85 -6.95L31.8 -6.95L30.95 -6.8Q28.35 -6.45 27.4 -7.3Q25.5 -2.7 22.1 2.05L21.1 3.45L19.15 5.75Q13.6 11.85 6.7 13.8L6.5 13.6" />
<linearGradient
id="LinearGradID_510" gradientUnits="userSpaceOnUse" gradientTransform="matrix(-0.00639343, 0.00799561, -0.00346375, -0.00276184, 23.45, 3.65)" spreadMethod ="pad" x1="-819.2" y1="0" x2="819.2" y2="0" >
<stop  offset="0.00392157" style="stop-color:#6D5852;stop-opacity:1" />
<stop  offset="1" style="stop-color:#AF9A8D;stop-opacity:1" />
</linearGradient>
<path style="fill:url(#LinearGradID_510) " d="M30.35,0.75L30.2 0.55L26.15 5.7L25.7 6.15Q21.1 11.05 15.45 14.3Q12.25 16.1 10.5 17.25L8.9 15.95Q12.35 14.6 16.65 11.7Q20.5 9.1 23.6 6.05L25.75 3.75Q28.7 0.3 30.8 -3.65L30.95 -3.95L31.05 -3.25Q31.1 -1.7 30.35 0.75" />
<linearGradient
id="LinearGradID_511" gradientUnits="userSpaceOnUse" gradientTransform="matrix(-0.00112915, -0.00358582, 0.00172424, -0.000549316, 31.75, 3.3)" spreadMethod ="pad" x1="-819.2" y1="0" x2="819.2" y2="0" >
<stop  offset="0.00392157" style="stop-color:#6D5852;stop-opacity:1" />
<stop  offset="1" style="stop-color:#AF9A8D;stop-opacity:1" />
</linearGradient>
<path style="fill:url(#LinearGradID_511) " d="M31.05,-3.25Q32.95 0.25 31.8 3.9L31 5.8Q31.5 2.3 30.35 0.75Q31.1 -1.7 31.05 -3.25" />
<path style="fill:#5F1000;fill-opacity:1" d="M9.95,20.3Q8.95 21.1 8.7 20.9L7.25 19.7L7.15 19.6L7.1 19.55L8.15 19.75L8.25 19.75L9.85 20.05L9.95 20.3M2.35,14.8L1.4 13.75L1.55 13.4L1.75 13.2L2.45 13.3L2.95 15.4L2.35 14.8" />
<path style="fill:#4D3212;fill-opacity:1" d="M5,20.05L5.5 19.6L5.9 19.15L6.05 19.25L6.9 19.5L6.75 19.65L5.75 20.65L4.5 21.7Q2.9 23.05 2.05 22.65L0.35 21.4L0.25 21.3Q-0.65 20.35 -0.65 19.65Q-0.65 18.95 0.15 17.95L0.7 17.35L2 15.95L2.7 15.2L2.35 14.8L2.95 15.4L3.2 16.1L1.7 17.6Q0.85 18.4 0.55 19.15L0.55 19.2Q0.25 19.9 0.9 20.65L1 20.75L2.5 21.8Q3.15 21.8 4.35 20.65L5 20.05" />
<path style="fill:#745416;fill-opacity:1" d="M5.5,19.6L5 20.05L4.45 19.5L3.1 17.95L1.9 19.35L0.95 20.6L0.9 20.65Q0.25 19.9 0.55 19.2L0.55 19.15Q0.85 18.4 1.7 17.6L3.2 16.1Q3.6 17.25 4.15 17.8L5.9 19.15L5.5 19.6" />
<path style="fill:#9A7226;fill-opacity:1" d="M4.35,20.65Q3.15 21.8 2.5 21.8L1 20.75L0.9 20.65L0.95 20.6L1.9 19.35L3.1 17.95L4.45 19.5L5 20.05L4.35 20.65" />
<path style="fill:#3C2A22;fill-opacity:1" d="M14.25,16.8L14.4 16.3L15.2 16.3L14.85 18.05L14.75 18.4L14.25 19.8L14.15 20.1L12.85 22.3Q11.8 23.8 10.2 24.45L10.2 24L10.15 23.3L10.15 22.1L10.05 20.75L9.95 20.35L9.95 20.3L9.85 20.05L8.25 19.75L8.15 19.75L7.1 19.55L6.9 19.5L6.05 19.25L5.9 19.15L4.15 17.8Q3.6 17.25 3.2 16.1L2.95 15.4L2.45 13.3L1.75 13.2L0.95 13.05L-0.4 12.95L-0.65 12.95L-1.15 12.95L-0.95 12.3L-0.35 11.25Q0.35 10.25 1.15 9.7L1.35 9.55L1.7 9.35Q2.85 8.75 3.85 8.4L4.5 8.2L6.95 7.9L9.15 7.9L9.25 7.95L9.1 7.95L8.4 8.65L8.15 8.95Q6.3 8.65 4.95 9L4.65 9.05L3.9 9.3L3.05 9.65L3.15 11.4L3.2 11.75L4.8 11.3L5.55 11.15L7.5 11.05L7.95 11.05L7.95 10.95L8 10.95L7.95 11.95L7.95 11.75L5.45 12.05L4.55 12.15L4.05 12.2L3.95 12.2L3.35 12.25L3.45 12.75L3.55 13.45L3.85 14.65L4.15 15.9Q4.45 17.1 5.15 17.6L6.35 18.4L7.9 18.8L8.9 19L8.95 19L9.6 19L10.35 17.55L10.4 17.4L11.25 15.65L11.5 15.15L11.25 15.1L12.1 15.4L11.9 16.05L11.8 16.2L11.45 17.15L11.4 17.2L10.55 19.1L11.1 19.2L13.55 19.15L13.8 18.35L14.25 16.8M2.25,10.9L2.3 10.1L1.1 10.8L0.1 11.85L-0.05 12.1L0.55 12.1L2.45 12.2L2.3 11.4L2.25 10.9M11.05,22.95L11 23.1L13 20.35L13.15 20.1L11.75 20.1L10.9 20.1L11 20.5L11.15 21.8L11.05 22.95" />
<path style="fill:#AB9283;fill-opacity:1" d="M7.95,11.05L7.5 11.05L7.5 10.75L7.95 10.9L7.95 10.95L7.95 11.05M7.4,9.4L7.5 10.75L6.25 10.4L4.75 10.45L4.7 10.45L4.2 10.35L4.15 10.3Q3.9 10.05 3.9 9.35L3.9 9.3L4.65 9.05L7.4 9.4M2.3,11.4L1.9 11.35L1.45 11.4L2.25 10.9L2.3 11.4M10.4,17.4L10.3 17.5L9.6 18.1L7.8 17.95Q7 17.75 6.45 17.4L5.75 16.85L5.2 16.1L4.7 14.75L4.5 12.65L4.5 12.5L4.55 12.15L5.45 12.05L6.8 12.35Q7.15 12.75 7.35 13.65L7.6 14.65L7.95 14.85L8.15 15L8.15 14.9L9.65 15.35L11.25 15.65L10.4 17.4M9.9,13L9.9 13.1L9.8 12.95L9.9 13M13.8,18.35L12.25 18.45L11.8 18.45L11.65 18.4Q11.5 18.35 11.5 18.05L11.45 17.25L11.45 17.15L11.8 16.2L11.9 16.05L13.3 16.35L13.6 16.4L14.25 16.8L13.8 18.35M11.05,22.95L11.15 21.8L11.7 20.55L12 20.55L12.45 20.5L11.5 22.2L11.05 22.95" />
<path style="fill:#C9B7AD;fill-opacity:1" d="M7.5,10.75L7.4 9.4L4.65 9.05L4.95 9Q6.3 8.65 8.15 8.95L8.2 9L7.95 10.9L7.5 10.75M11.5,15.15L11.25 15.65L9.65 15.35L8.15 14.9L8.15 15L7.95 14.85L7.6 14.65L7.35 13.65Q7.15 12.75 6.8 12.35L5.45 12.05L7.95 11.75L7.95 11.95L8 12.4L8.25 13.85L9.8 14.55L11.05 15L11.25 15.1L11.5 15.15M13.6,16.4L13.3 16.35L11.9 16.05L12.1 15.4L12.35 15.5L14.45 16.25L14.4 16.3L14.25 16.8L13.6 16.4M-0.05,12.1L0.1 11.85L1.1 10.8L2.3 10.1L2.25 10.9L1.45 11.4L1.05 11.7L0.55 12.1L-0.05 12.1M11.5,22.2L12.45 20.5L13 20.35L11 23.1L11.05 22.95L11.5 22.2" />
<path style="fill:#8C7465;fill-opacity:1" d="M7.5,11.05L5.55 11.15L4.8 11.3L3.2 11.75L3.15 11.4L3.05 9.65L3.9 9.3L3.9 9.35Q3.9 10.05 4.15 10.3L4.2 10.35L4.7 10.45L4.75 10.45L6.25 10.4L7.5 10.75L7.5 11.05M1.9,11.35L2.3 11.4L2.45 12.2L0.55 12.1L1.05 11.7L1.45 11.4L1.9 11.35M4.5,12.5L4.5 12.65L4.7 14.75L5.2 16.1L5.75 16.85L6.45 17.4Q7 17.75 7.8 17.95L9.6 18.1L10.3 17.5L10.4 17.4L10.35 17.55L9.6 19L8.95 19L8.9 19L7.9 18.8L6.35 18.4L5.15 17.6Q4.45 17.1 4.15 15.9L3.85 14.65L3.55 13.45L3.45 12.75L3.35 12.25L3.95 12.2L4.05 12.2L4.55 12.15L4.5 12.5M11.45,17.25L11.5 18.05Q11.5 18.35 11.65 18.4L11.8 18.45L12.25 18.45L13.8 18.35L13.55 19.15L11.1 19.2L10.55 19.1L11.4 17.2L11.45 17.15L11.45 17.25M12.45,20.5L12 20.55L11.7 20.55L11.15 21.8L11 20.5L10.9 20.1L11.75 20.1L13.15 20.1L13 20.35L12.45 20.5" />
<path style="fill:#723C13;fill-opacity:1" d="M10.2,8.25L9.05 9.2Q8.75 9.9 8.75 11.1Q8.75 12.3 9.1 13.3Q10.4 14 11.85 14.55L11.95 14.6L12.05 14.65L14.7 15.55L14.85 15.45L15.5 14.95L16.3 14.35L16.4 14.25L17.1 13.7L12.65 12.8L11 12.25L11 7.55L10.7 7.8L10.2 8.25M14.4,16.3L14.45 16.25L12.35 15.5L12.1 15.4L11.25 15.1L11.05 15L9.8 14.55L8.25 13.85L8 12.4L7.95 11.95L8 10.95L7.95 10.95L7.95 10.9L8.2 9L8.15 8.95L8.4 8.65L9.1 7.95L9.25 7.95L9.15 7.9L9.6 7.55L10.2 7.1L10.85 6.55L11.85 5.7L11.6 11.7L14.95 12.5L19.65 12.9Q18 14.55 15.2 16.2L15.2 16.3L14.4 16.3" />
<path style="fill:#FFE687;fill-opacity:1" d="M12.55,13.35L10.45 12.55L10.7 7.8L11 7.55L11 12.25L12.65 12.8L17.1 13.7L16.4 14.25L12.55 13.35" />
<path style="fill:#C6A831;fill-opacity:1" d="M9.9,13L10.2 8.25L10.7 7.8L10.45 12.55L12.55 13.35L16.4 14.25L16.3 14.35L15.5 14.95L14.9 14.8L12.25 13.9L9.9 13" />
<path style="fill:#956823;fill-opacity:1" d="M12.25,13.9L14.9 14.8L15.5 14.95L14.85 15.45L14.7 15.55L12.05 14.65L11.95 14.6L11.85 14.55Q10.4 14 9.1 13.3Q8.75 12.3 8.75 11.1Q8.75 9.9 9.05 9.2L10.2 8.25L9.9 13L12.25 13.9M9.8,12.95L9.9 13.1L9.9 13L9.8 12.95" />
</g>
</svg>
