<?xml version="1.0" encoding="utf-8"?>
<svg version="1.1" id="Layer_1"
xmlns="http://www.w3.org/2000/svg"
xmlns:xlink="http://www.w3.org/1999/xlink"
xmlns:author="http://www.sothink.com"
width="70px" height="61px"
xml:space="preserve">
<g id="3068" transform="matrix(1, 0, 0, 1, 38.75, 29.7)">
<path style="fill:#FFCC00;fill-opacity:1" d="M29.95,-27.5L30.4 -27.35L30.15 -27.1Q29.85 -27.1 29.75 -27.25L29.75 -27.45L29.95 -27.5M11.65,-25.35Q11.65 -25.65 11.8 -25.7L12 -25.75L12.4 -25.35L12.3 -25L12 -24.95L11.7 -25L11.65 -25.35M17.7,-29.65L17.2 -29.3L17.05 -29.35Q17.35 -29.8 17.7 -29.65M2.75,-19.85L2.35 -19.7Q2.25 -19.5 2.25 -19.9L2.35 -20.3L2.7 -20.5L3.05 -20.15L2.75 -19.85M25.65,-23.65L25.1 -23.25Q24.8 -23.35 24.8 -23.8L25.55 -24L25.65 -23.65M24,-2.05L23.95 -2.35L23.95 -2.65L24.25 -2.65L24.55 -2.3Q24.4 -2.05 24.25 -2.05L24 -2.05M29,5.3L28.75 5.65L28.5 5.3Q28.65 5.15 29 5.3M-4.9,-27.2L-5.2 -27.1L-5.55 -27.35L-5.1 -27.85L-4.75 -27.75L-4.65 -27.45L-4.9 -27.2M-25.85,-7.85L-25.35 -7.5L-25.65 -7.25L-26.1 -7.45L-25.85 -7.85M-29.55,-7.6L-29.8 -7.4L-30 -7.7L-29.55 -7.6M-8.2,-16.7L-8.65 -17.25L-8.5 -17.6L-8 -17.6L-7.85 -17.25L-7.95 -16.9L-8.05 -16.8L-8.2 -16.7M-18.8,-13.1L-19.05 -13.25L-18.8 -13.65L-18.45 -13.45L-18.8 -13.1M-16.6,-18.95L-16.25 -19.1L-16.05 -18.65L-16.35 -18.45L-16.6 -18.95M-18.3,-1.3L-17.95 -0.9Q-18 -0.65 -18.3 -0.55L-18.65 -0.75L-18.3 -1.3M-19.8,4.65L-19.45 4.6L-19.4 4.55L-19.3 4.85L-19.35 5.15L-19.7 5.05L-19.8 4.65M-22.85,2.25L-22.8 2.2Q-22.65 2.25 -22.65 2.55L-22.8 2.8L-23.1 2.75L-23.25 2.35L-22.85 2.25M-25.45,3.75L-25.75 3.85L-26 3.75Q-25.95 3.5 -25.45 3.75M-31.9,13.45L-31.85 13.15L-31.5 13.15L-31.15 13.2L-31.1 13.5L-31.2 13.75L-31.8 13.75L-31.9 13.45M-37.7,23.95Q-37.6 23.95 -37.6 24.25L-37.65 24.5L-37.7 24.5L-38.2 24.75L-38.75 24.1Q-38.75 23.5 -38.2 23.5Q-37.75 23.5 -37.7 23.95M-30.55,24.25L-30.75 24.3L-30.85 23.9L-30.55 23.9L-30.55 23.8L-30.5 24.1L-30.55 24.25M-29.05,30.8L-29.1 30.35L-28.8 30.3L-28.7 30.3L-28.65 30.55L-28.7 30.8L-29.05 30.8" />
</g>
</svg>
