<?xml version="1.0" encoding="utf-8"?>
<svg version="1.1" id="Layer_1"
xmlns="http://www.w3.org/2000/svg"
xmlns:xlink="http://www.w3.org/1999/xlink"
xmlns:author="http://www.sothink.com"
width="25px" height="30px"
xml:space="preserve">
<g id="419" transform="matrix(1, 0, 0, 1, 0, 0.25)">
<path style="fill:#7E2C04;fill-opacity:1" d="M13.55,22.55L13.3 23.35L13.3 23.45Q13 23.9 12.4 23.9Q11.75 23.9 11.5 23.25L11.5 23.1L11.35 22.65L11.15 21.75L11.15 20.05Q10.7 20.05 10.45 19.85Q9.7 19.1 9.7 18L9.8 17.6Q9.9 16.7 10.45 16.1Q11.25 15.35 12.4 15.35Q13.5 15.35 14.2 16.1L14.75 16.8L15 17.9Q15 18.95 14.55 19.4Q13.95 19.9 13.65 19.85L13.55 22.05L13.55 22.55" />
<path style="fill:#7E2504;fill-opacity:1" d="M19.55,6Q19.15 5.15 18.05 3.8Q16.95 2.45 15.35 1.85L11.95 1.35Q9.65 1.35 7.75 2.7L6.1 4.15L5.65 4.8L4.75 6.2L4.5 6.9L4.5 6.75Q3.9 8.15 3.8 8.9L3.55 10.05L3.45 10.65L3.4 11.15L3.5 11.15L4.5 11.15L6.1 11.15L6.45 9.25L6.7 8.4L7.15 7.25Q7.55 6.05 8.55 5.3Q9.5 4.5 10.95 4.1L13.6 4.2Q15.05 4.65 15.95 5.7L17.15 7.5L17.55 8.45L17.7 9.1L18.05 11.1L19.85 11.15L20.55 11.2L20.75 11.1L20.7 10.6L20.25 7.75L19.55 6M21.9,11.35Q23.35 11.75 23.9 12.6Q24.35 13.45 24.35 15.45L24.35 24.55L24.35 25.1L24.35 25.35L24.35 25.5Q23.8 28.95 19.85 29L4.5 29Q-0.1 29 0 24.55L0 15.45Q0.05 12.85 0.75 12.15Q1.45 11.45 2.1 11.35Q2.6 7.7 3.65 5.75Q5.05 2.9 7.4 1.3Q9.75 -0.35 12.45 -0.25Q15.15 -0.2 17.3 1.2Q19.4 2.55 20.45 4.75Q22.2 8.35 21.9 11.35M22.3,13.1Q21.25 12.45 20.4 12.55L17.35 12.55L12.3 12.55L7.3 12.55L6.75 12.55L5.25 12.55L5 12.55L4.6 12.55L3.95 12.55L3.75 12.55L2.95 12.6Q2.25 12.7 1.8 13.3Q1.4 13.85 1.5 14.9L1.5 25.1Q1.5 27.65 3.95 27.65L20.4 27.65Q22.55 27.65 22.85 25.75L22.85 25.65L22.85 25.1L22.85 14.9Q22.75 13.6 22.3 13.1M11.55,5.45Q10.1 5.6 9.2 6.5Q8.3 7.4 8 8.3Q7.65 9.15 7.5 11.1L8.45 11.15L12.95 11.2L13.65 11.2L14.2 11.2L14.65 11.2L15.65 11.2L16.65 11.2Q16.35 8.3 15.65 7.4Q14.9 6.45 13.95 5.9Q12.95 5.3 11.55 5.45" />
<linearGradient
id="LinearGradID_525" gradientUnits="userSpaceOnUse" gradientTransform="matrix(0, 0.00361633, -0.009552, 0, 12.4, 4.9)" spreadMethod ="pad" x1="-819.2" y1="0" x2="819.2" y2="0" >
<stop  offset="0" style="stop-color:#E9C157;stop-opacity:1" />
<stop  offset="1" style="stop-color:#D98431;stop-opacity:1" />
</linearGradient>
<path style="fill:url(#LinearGradID_525) " d="M4.85,8.8Q4.45 8.45 4.55 7.6L4.75 6.2L5.65 4.8L6.1 4.15L7.75 2.7Q9.65 1.35 11.95 1.35L15.35 1.85Q16.95 2.45 18.05 3.8Q19.15 5.15 19.55 6L20.25 7.75L20.2 7.7Q19.65 8.7 19.3 8.7L18.55 8.6L17.75 8.1L17.25 7.6L17.15 7.5L15.95 5.7Q15.05 4.65 13.6 4.2L10.95 4.1Q9.5 4.5 8.55 5.3Q7.55 6.05 7.15 7.25L6.7 8.4Q5.7 9.5 4.85 8.8M17.7,4.95Q16.8 2.6 13.85 2.25Q13.55 2.25 13.5 2.4L13.4 2.5L13.4 2.7Q14.9 5.05 17.7 5.05L17.7 4.95" />
<linearGradient
id="LinearGradID_526" gradientUnits="userSpaceOnUse" gradientTransform="matrix(0, 0.00669861, -0.013031, 0, 12.2, 21.95)" spreadMethod ="pad" x1="-819.2" y1="0" x2="819.2" y2="0" >
<stop  offset="0" style="stop-color:#E9C157;stop-opacity:1" />
<stop  offset="1" style="stop-color:#D98431;stop-opacity:1" />
</linearGradient>
<path style="fill:url(#LinearGradID_526) " d="M13.55,22.55L13.95 21.9Q14.2 21.4 14.1 20.55Q15.4 21.2 15.4 18.25Q15.4 17.35 15 16.95L14.75 16.8L14.2 16.1Q13.5 15.35 12.4 15.35Q11.25 15.35 10.45 16.1Q9.9 16.7 9.8 17.6Q9.35 17.9 9.35 18.8Q9.35 20.15 10.7 20.7Q10.7 21.55 11.25 22.55L11.35 22.65L11.5 23.1Q9.25 22.7 8.05 21.9Q4.85 19.75 4.15 14.95Q3.4 14.65 3.35 18.55Q3.25 22.4 3.4 23.65Q3.65 24.9 5.55 25.5L13.2 26.05L19.85 25.8Q21 25.6 21.4 24.6L21.85 22.7L21.85 22.45Q19.35 23.45 16.2 23.45L13.3 23.35L13.55 22.55M22.85,14.9L22.85 25.1L22.85 25.65L22.85 25.75Q22.55 27.65 20.4 27.65L3.95 27.65Q1.5 27.65 1.5 25.1L1.5 14.9Q1.4 13.85 1.8 13.3Q2.25 12.7 2.95 12.6L3.75 12.55L3.95 12.55L4.6 12.55L5 12.55L5.25 12.55L6.75 12.55L7.3 12.55L12.3 12.55L17.35 12.55L20.4 12.55Q21.25 12.45 22.3 13.1Q22.75 13.6 22.85 14.9M16.7,14.4Q16 14.95 17.55 15.45L19.95 16.35Q20.95 16.7 21.1 16Q21.5 14.3 19.7 14Q17.5 13.6 16.7 14.4" />
<path style="fill:#C25D1E;fill-opacity:1" d="M17.25,7.6L17.75 8.1L18.55 8.6L19.3 8.7Q19.65 8.7 20.2 7.7L20.25 7.75L20.7 10.6L20.75 11.1L20.55 11.2L19.85 11.15L18.05 11.1L17.7 9.1L17.55 8.45L17.15 7.5L17.25 7.6M6.7,8.4L6.45 9.25L6.1 11.15L4.5 11.15L3.5 11.15L3.4 11.15L3.45 10.65L3.55 10.05L3.8 8.9Q3.9 8.15 4.5 6.75L4.5 6.9L4.75 6.2L4.55 7.6Q4.45 8.45 4.85 8.8Q5.7 9.5 6.7 8.4M11.5,23.25Q11.75 23.9 12.4 23.9Q13 23.9 13.3 23.45L13.3 23.35L16.2 23.45Q19.35 23.45 21.85 22.45L21.85 22.7L21.4 24.6Q21 25.6 19.85 25.8L13.2 26.05L5.55 25.5Q3.65 24.9 3.4 23.65Q3.25 22.4 3.35 18.55Q3.4 14.65 4.15 14.95Q4.85 19.75 8.05 21.9Q9.25 22.7 11.5 23.1L11.5 23.25" />
<path style="fill:#F7EF9F;fill-opacity:1" d="M11.35,22.65L11.25 22.55Q10.7 21.55 10.7 20.7Q9.35 20.15 9.35 18.8Q9.35 17.9 9.8 17.6L9.7 18Q9.7 19.1 10.45 19.85Q10.7 20.05 11.15 20.05L11.15 21.75L11.35 22.65M13.55,22.05L13.65 19.85Q13.95 19.9 14.55 19.4Q15 18.95 15 17.9L14.75 16.8L15 16.95Q15.4 17.35 15.4 18.25Q15.4 21.2 14.1 20.55Q14.2 21.4 13.95 21.9L13.55 22.55L13.55 22.05M17.7,5.05Q14.9 5.05 13.4 2.7L13.4 2.5L13.5 2.4Q13.55 2.25 13.85 2.25Q16.8 2.6 17.7 4.95L17.7 5.05M19.7,14Q21.5 14.3 21.1 16Q20.95 16.7 19.95 16.35L17.55 15.45Q16 14.95 16.7 14.4Q17.5 13.6 19.7 14" />
</g>
</svg>
