<?xml version="1.0" encoding="utf-8"?>
<svg version="1.1" id="Layer_1"
xmlns="http://www.w3.org/2000/svg"
xmlns:xlink="http://www.w3.org/1999/xlink"
xmlns:author="http://www.sothink.com"
width="48px" height="14px"
xml:space="preserve">
<g id="493" transform="matrix(1, 0, 0, 1, -1.4, -0.2)">
<linearGradient
id="LinearGradID_666" gradientUnits="userSpaceOnUse" gradientTransform="matrix(0, 0.00494385, -0.00738525, 0, 7.45, 7.65)" spreadMethod ="pad" x1="-819.2" y1="0" x2="819.2" y2="0" >
<stop  offset="0" style="stop-color:#FFF980;stop-opacity:1" />
<stop  offset="1" style="stop-color:#E7950A;stop-opacity:1" />
</linearGradient>
<path style="fill:url(#LinearGradID_666) " d="M48.65,3.45Q49.35 4.85 49.35 6.85Q49.35 8.35 48.95 9.5Q48.5 10.75 47.75 11.65Q46.9 12.6 45.7 13.05L43 13.55L40.3 13.05L40.35 13.05Q39.05 12.6 38.25 11.65Q37.4 10.75 37.05 9.5Q36.6 8.3 36.6 6.85Q36.6 5.35 37.05 4.15Q37.5 2.9 38.3 2.05Q39.1 1.1 40.35 0.65L42.95 0.2Q44.9 0.2 46.4 1.05L46.35 1.05Q47.85 1.85 48.65 3.45M45.2,5L44.25 3.9Q43.65 3.55 42.95 3.55L41.95 3.75L41.25 4.3L41.2 4.3L40.7 5.35L40.65 5.35L40.45 6.85Q40.45 7.7 40.7 8.4L41.2 9.4L41.25 9.45Q41.55 9.8 42 10L42.95 10.2L44.25 9.85L45.15 8.85Q45.5 8 45.5 6.85Q45.5 5.75 45.15 4.95L45.2 5M36.8,2.1Q36.8 2.95 36.25 3.4Q35.75 3.8 34.85 3.8L33.05 3.8L33.05 11.4Q33.05 12.45 32.6 12.95L32.55 13Q31.95 13.55 31.15 13.55Q30.35 13.55 29.8 13L29.75 12.95Q29.25 12.45 29.25 11.4L29.25 3.8L27.45 3.8Q26.5 3.8 26.15 3.4Q25.55 2.95 25.55 2.1Q25.55 1.25 26.15 0.85Q26.6 0.4 27.45 0.4L34.85 0.4Q35.75 0.4 36.25 0.85L36.3 0.9Q36.8 1.4 36.8 2.1M24.45,0.8L24.5 0.8Q24.95 1.3 24.95 2.35L24.95 7.85L24.7 10.3Q24.35 11.4 23.45 12.25L23.45 12.3L21.8 13.25L21.7 13.3L19.55 13.55L17.1 13.25L15.25 12.2Q14.5 11.45 14.15 10.35Q13.8 9.3 13.8 7.85L13.8 2.35Q13.8 1.3 14.4 0.8L14.35 0.8Q14.85 0.2 15.7 0.2Q16.65 0.2 17.15 0.8L17.1 0.8Q17.65 1.3 17.65 2.35L17.65 8L17.85 9.4L18.25 10L19.4 10.2Q20.3 10.2 20.7 9.8L20.75 9.8Q21.15 9.2 21.15 8.05L21.15 2.35Q21.15 1.3 21.65 0.8Q22.1 0.2 23.05 0.2Q23.85 0.2 24.45 0.8M13.5,11.75Q13.5 12.45 13 13Q12.4 13.55 11.6 13.55L10.85 13.4L10.25 12.9L9.85 12.2L9.6 11.6L9.6 11.55L9.25 10.6L5.6 10.6L5.25 11.6L5.25 11.65L4.65 12.95L4.6 13Q4.15 13.55 3.25 13.55Q2.5 13.55 1.95 13.1L1.9 13Q1.4 12.4 1.4 11.75L1.5 11.1L1.5 11L1.75 10.35L1.75 10.3L4.7 2.95L4.7 2.9Q4.8 2.5 5.05 2.05L5.45 1.25Q5.7 0.7 6.3 0.45L7.4 0.2L8.5 0.45L9.4 1.2L9.75 1.95L9.75 2L9.8 2.05L10.1 2.85L13.1 10.25L13.5 11.75M8.05,7.35L7.4 5.6L6.75 7.35L8.05 7.35" />
</g>
</svg>
