<?xml version="1.0" encoding="utf-8"?>
<svg version="1.1" id="Layer_1"
xmlns="http://www.w3.org/2000/svg"
xmlns:xlink="http://www.w3.org/1999/xlink"
xmlns:author="http://www.sothink.com"
width="118px" height="94px"
xml:space="preserve">
<g id="705" transform="matrix(1, 0, 0, 1, 0, 0)">
<path style="fill:#543428;fill-opacity:1" d="M17.95,86.85L14.1 85.65Q12.15 83.6 11.2 81.45Q10.1 78.95 9.75 77.55L9.55 76.85L8.55 72.85L8.25 71.85L8.25 71.8L9.05 72.35L9.25 72.5L10 73L10.2 73.95L11.3 77.55L12.9 81.35Q14.4 84.5 17.85 86.8L17.95 86.85" />
<path style="fill:#43271D;fill-opacity:1" d="M64.55,90.25L64.5 90.2L63.95 90.5L59.85 92.15L59.6 92.25L59.3 92.35L59 92.4L58.7 92.5L58.4 92.6L58.15 92.65L55.1 93.3L51.75 93.75L51 93.8L50.45 93.85L48.75 93.9L46.1 93.8Q39.05 93.3 33.1 90.45Q30.4 91.4 26.75 91.2L24.7 90.95Q19.75 90.25 16.2 87.45L14.7 86.2L14.1 85.65L17.95 86.85L20.25 88.2Q23.3 89.75 26.75 89.85L31.9 89.3Q30.6 88.25 29.65 86.4L29.15 85.3L28.7 84.05Q28 81.7 27.9 79.05L27.9 77.4L27.9 76.8L27.95 76.55L27.95 76.25L27.95 76.1L28.05 74.9L28.1 74.75L27.95 74.6L24.9 71.1Q22.45 68.85 20.4 68.75L18.5 68.6L15.55 68.15L13.7 67.45Q11.35 69.1 9.75 71.65L9.85 72.35L9.9 72.6L10 73L9.25 72.5L9.05 72.35L8.45 71.95L9 70.3L9 69.8L9.1 69.75L9.25 70.2L9.75 69.2Q10.4 68.15 11.6 67.25Q12.1 66.85 12.6 66.7L14 66.45Q15.1 67.1 16.75 67.3L19.1 67.55L20.05 67.6Q21.6 67.7 23.65 68.55Q24.45 68.85 25.45 69.8Q26.8 71 28.5 73.3L28.75 73.65L28.95 73.2Q30.2 70.7 33.05 68.35Q35.75 66.15 39 64.85L39.95 64.45L42.7 63.55L46.45 62.65L48.65 62.35L51.55 61.95L56.8 60.9L57.9 60.5Q59.55 59.75 60.95 58.25L62.6 58.2L63.05 58.2Q73.9 62.8 73.95 74.7L75 74.4L75.15 74.4L75.35 74.4L75.5 74.45L75.8 74.5L75.9 74.55L75.9 74.7L74.9 75.2L74.75 75.25L73.9 75.75L73.75 75.9Q72.55 77 71.65 79.75Q70.4 83.6 68.8 86L68.7 86.15L66.9 88.2L66.3 88.75L66.1 88.9L65.9 89L65.4 89.3L65.5 89.4L64.55 90.25M29.35,79.05Q29.35 80.85 29.7 82.75Q30.05 84.7 31.35 86.5L32.25 87.55L33.7 88.9Q37.05 91.7 43.5 92.25L43.85 92.3L48.75 92.55L50.8 92.45L51 92.45L53.85 92.1Q57.75 91.3 61.6 89.85Q65.4 88.4 67.45 85.05Q69.5 81.7 70.4 79L70.85 77.8Q71.55 76.05 72.5 75.3Q72 63.65 61.6 59.5L61.25 59.85L60.95 60.15L59.5 61.2L59.3 61.3L58.15 61.85Q56.4 62.55 54.85 62.85L49.8 63.6L48.8 63.7L43.1 64.9L40.2 65.85L39.8 66Q35.45 67.6 32.8 70.15Q29.95 72.8 29.5 76.1L29.45 76.8L29.4 77.1Q29.3 78.05 29.35 79.05" />
<path style="fill:#150E10;fill-opacity:1" d="M65.5,89.4L67.65 90.45L73.3 90.7Q77.6 89.7 78.6 86.3L77.4 84.5L77.4 84.45L77.2 84Q76.45 82.4 79.3 84.8L80.75 85.75Q83 87.05 86.4 87.65L87.65 87.8Q93.1 88.45 95.95 86.35Q98.75 84.2 99.85 81.8Q100.95 79.35 100.9 78.75L100.6 77.55L100.15 76.9Q99.55 76.4 98.95 76.05Q96.45 74.55 93.3 74.9Q91 75.15 88.3 76.4Q82.75 79 81.6 78.95Q81.25 78.95 81.3 78.7Q83.6 76.75 86.45 75.4Q88.2 74.55 90.1 73.95L92.45 73.4L92.85 73.3Q96.8 72.75 99.35 74.05Q100.7 74.75 101.65 76.05Q104.65 73.75 107.45 70.2Q110.25 66.6 112.95 60.2Q115.55 53.75 116.05 47.8L116.2 42.55L115.7 38.3Q114.9 34.7 113.6 31.9L112.8 30.5L114.95 31.2Q116.4 34.1 117.25 37.8Q117.9 40.65 117.85 44.1L117.65 47.75Q117.05 53.35 115.5 57.8Q113.95 62.25 110.8 67.85Q107.65 73.45 102.6 77.65Q102.7 79.05 101.9 81.05Q101.05 83 99 85.6Q96.95 88.2 92.9 89.2Q88.85 90.15 85.15 89.1Q81.4 88 79.95 87.25Q78.2 90.25 75.3 91.4Q72.4 92.55 69.55 92.3Q67.6 92.1 65.95 91.2L64.55 90.25L65.5 89.4M64.9,27.7Q65.05 22.15 62.25 18.05Q60.85 16.05 58.8 14.4Q55.6 11.8 52.35 10.35Q49.25 9 46.2 8.7Q44.35 7.7 47.4 8.1L50.7 8.6Q60.2 11.7 63.7 17.35L64.35 18.45Q67.1 23.6 65.95 29.45L65.55 31.35Q64.75 34.45 64.9 27.7" />
<path style="fill:#43363A;fill-opacity:1" d="M41.9,6.7L42 6.65Q64.1 3.75 87.1 17.5L97.1 24.05L102.8 28.35L101.25 28.35Q95.05 28.6 89.65 31.2Q86.95 28.6 83.4 26.25Q74.95 20.65 64.35 18.45L63.7 17.35Q60.2 11.7 50.7 8.6L47.4 8.1L47.05 7.85L44.25 7.05L41.9 6.7" />
<path style="fill:#625158;fill-opacity:1" d="M18.8,11.15Q20.6 9.75 22.8 8.4Q28.35 4.8 36.2 2.9Q44 1 54.05 1.5Q64.05 1.95 74.65 5.75Q85.25 9.55 93.9 14.5Q102.55 19.45 107.4 24.3Q110.6 27.45 112.3 29.8Q107.7 28.35 102.8 28.35L97.1 24.05L87.1 17.5Q64.1 3.75 42 6.65L41.9 6.7Q35.65 5.9 29.3 7.35Q23.85 8.6 18.8 11.15" />
<path style="fill:#1C1417;fill-opacity:1" d="M112.8,30.5L113.6 31.9Q114.9 34.7 115.7 38.3L116.2 42.55Q114.3 41 111.9 40Q105.05 37.1 98.1 40.2L96.15 41.15Q90.95 43.9 86.95 48.35Q81.65 54.25 81.6 61.85Q81.6 69.85 86.45 75.4Q83.6 76.75 81.3 78.7Q81.25 78.95 81.6 78.95Q77.4 80.1 74 77.5Q73.4 79.45 73.1 81.5Q72.35 86.55 69.4 89.2Q72.45 88.95 74.7 87.65Q77.05 86.3 77.4 84.5L78.6 86.3Q77.6 89.7 73.3 90.7L67.65 90.45L65.5 89.4L65.4 89.3L65.9 89L66.1 88.9L66.3 88.75L66.9 88.2L68.7 86.15L68.8 86Q70.4 83.6 71.65 79.75Q72.55 77 73.75 75.9L73.9 75.75L74.75 75.25L74.9 75.2L75.9 74.7L75.9 74.55L75.8 74.5L75.5 74.45L75.35 74.4L75.15 74.4L75 74.4L73.95 74.7Q73.9 62.8 63.05 58.2L62.6 58.2L63.5 56.6L64.1 54.85L64.15 54.65L64.45 51.6Q64.5 48.2 63.7 43.25L63.65 42.05L65.65 34.45L65.55 31.35L65.95 29.45Q67.1 23.6 64.35 18.45Q74.95 20.65 83.4 26.25Q86.95 28.6 89.65 31.2Q95.05 28.6 101.25 28.35L102.8 28.35Q107.7 28.35 112.3 29.8Q110.6 27.45 107.4 24.3Q102.55 19.45 93.9 14.5Q85.25 9.55 74.65 5.75Q64.05 1.95 54.05 1.5Q44 1 36.2 2.9Q28.35 4.8 22.8 8.4Q20.6 9.75 18.8 11.15L18.55 11.35L16 11.75Q19.25 8.7 23.15 6.6Q29.05 3.35 35.1 1.85Q41.15 0.3 48.7 0.05Q56.2 -0.25 65.25 1.55Q74.25 3.3 86.05 8.85Q97.85 14.4 102.5 17.95Q107.05 21.45 109.8 24.2Q112.55 26.9 114.4 30.2L114.7 30.65L114.95 31.2L112.8 30.5" />
<path style="fill:#000000;fill-opacity:1" d="M8.25,71.8Q7.25 68.25 3.9 64.2Q0.55 60.1 0.1 55.45Q-0.2 52.1 0.4 49.05L0.95 46.85L0.95 46.75Q2.05 43.4 3.8 40.7Q5.55 37.95 5.8 32.65Q6 27.35 7.15 23.8Q8.3 20.25 12.8 15.05L16 11.75L18.55 11.35Q15.95 13.4 14.25 15.4Q11.35 18.8 9.45 22.45Q7.55 26.1 7.45 29.4L6.95 35.7Q6.55 38.75 4.15 42.75Q1.85 46.45 1.45 50.7L1.4 51.45L1.35 52.45Q1.2 56.45 2.3 59Q3.45 61.8 6.2 64.9Q8 66.95 9.1 69.75L9 69.8L9 70.3L8.45 71.95L9.05 72.35L8.25 71.8" />
<path style="fill:#171012;fill-opacity:1" d="M57.9,60.5L56.8 60.9L51.55 61.95L48.65 62.35Q42.15 55.65 33.75 52.95L34.8 53.6Q40.5 57.4 42.7 63.55L39.95 64.45L39 64.85Q37.4 62.95 34.55 61.45Q28.65 58.4 25.9 63Q26.75 66.4 25.45 69.8Q24.45 68.85 23.65 68.55Q21.6 67.7 20.05 67.6L19.1 67.55Q20.4 64.95 20.75 62.15L21.2 60.7Q22.05 57.3 20.05 54.2L19.05 52.75Q18.1 51.6 18.2 52.9L19 53.95Q18.65 58.5 16.75 61.9Q15.15 64.85 13.05 65.7L11.75 63.95Q10.75 62.25 10.1 59.8Q9.45 57.35 9.5 54.1Q9.55 50.85 10.1 49.55Q10.6 48.25 9.75 46.4Q7.65 54.05 8.6 58.35Q9.5 62.65 10.8 64.5L11.4 65.35Q8.2 63.75 5.6 60.2L5 59.35Q2.4 55.5 1.45 50.7Q1.85 46.45 4.15 42.75Q6.55 38.75 6.95 35.7L7.45 29.4Q7.55 26.1 9.45 22.45Q11.35 18.8 14.25 15.4Q15.95 13.4 18.55 11.35L18.8 11.15Q23.85 8.6 29.3 7.35Q35.65 5.9 41.9 6.7L44.25 7.05L47.05 7.85L47.4 8.1Q44.35 7.7 46.2 8.7Q49.25 9 52.35 10.35Q55.6 11.8 58.8 14.4Q60.85 16.05 62.25 18.05Q65.05 22.15 64.9 27.7Q64.75 34.45 65.55 31.35L65.65 34.45L63.65 42.05L63.7 43.25L63.65 43Q63.3 42.45 63.5 48.35L63.5 51L54.05 45.25L45.35 45.1Q52.35 48.3 58.05 53.45L61.7 57.25L60.95 58.25Q59.55 59.75 57.9 60.5M116.05,47.8Q115.55 53.75 112.95 60.2Q110.25 66.6 107.45 70.2Q104.65 73.75 101.65 76.05Q100.7 74.75 99.35 74.05Q96.8 72.75 92.85 73.3L92.45 73.4L90.1 73.95Q88.2 74.55 86.45 75.4Q81.6 69.85 81.6 61.85Q81.65 54.25 86.95 48.35Q90.95 43.9 96.15 41.15L98.1 40.2Q105.05 37.1 111.9 40Q114.3 41 116.2 42.55L116.05 47.8M95.35,83.65Q92.2 87.4 86.4 87.65Q83 87.05 80.75 85.75Q86.2 87.15 90.95 82.75Q95 78.95 93.3 74.9Q96.45 74.55 98.95 76.05Q98.5 79.85 95.35 83.65M46.45,38.45Q50.95 39.85 53.15 41.1L57.8 43.65Q58.2 42.4 54.15 40.2Q50.05 37.95 46 37.5Q41.9 37 46.45 38.45M33.35,48.3L33.35 48.35L37.85 50.45Q41.35 52.1 45.4 56.2Q49.45 60.25 49.35 59.7L49.15 59.1L49.15 59.05Q44.05 50.25 33.85 48.1L33.35 48.3" />
<path style="fill:#0E090B;fill-opacity:1" d="M60.95,58.25L61.7 57.25L58.05 53.45Q52.35 48.3 45.35 45.1L54.05 45.25L63.5 51L63.5 48.35Q63.3 42.45 63.65 43L63.7 43.25Q64.5 48.2 64.45 51.6L64.15 54.65L64.1 54.85L63.5 56.6L62.6 58.2L60.95 58.25M46,37.5Q50.05 37.95 54.15 40.2Q58.2 42.4 57.8 43.65L53.15 41.1Q50.95 39.85 46.45 38.45Q41.9 37 46 37.5M16.75,67.3Q15.1 67.1 14 66.45L12.6 66.7L11.95 66L11.4 65.35L10.8 64.5Q9.5 62.65 8.6 58.35Q7.65 54.05 9.75 46.4Q10.6 48.25 10.1 49.55Q9.55 50.85 9.5 54.1Q9.45 57.35 10.1 59.8Q10.75 62.25 11.75 63.95L13.05 65.7Q15.15 64.85 16.75 61.9Q18.65 58.5 19 53.95L18.2 52.9Q18.1 51.6 19.05 52.75L20.05 54.2Q22.05 57.3 21.2 60.7L20.75 62.15Q20.4 64.95 19.1 67.55L16.75 67.3M33.05,68.35Q30.2 70.7 28.95 73.2L28.75 73.65L28.5 73.3Q26.8 71 25.45 69.8Q26.75 66.4 25.9 63Q28.65 58.4 34.55 61.45Q37.4 62.95 39 64.85Q35.75 66.15 33.05 68.35M46.45,62.65L42.7 63.55Q40.5 57.4 34.8 53.6L33.75 52.95Q42.15 55.65 48.65 62.35L46.45 62.65M33.85,48.1Q44.05 50.25 49.15 59.05L49.15 59.1L49.35 59.7Q49.45 60.25 45.4 56.2Q41.35 52.1 37.85 50.45L33.35 48.35L33.35 48.3L33.85 48.1" />
<path style="fill:#23191D;fill-opacity:1" d="M79.3,84.8Q76.45 82.4 77.2 84L77.4 84.45L77.4 84.5Q77.05 86.3 74.7 87.65Q72.45 88.95 69.4 89.2Q72.35 86.55 73.1 81.5Q73.4 79.45 74 77.5Q77.4 80.1 81.6 78.95Q82.75 79 88.3 76.4Q91 75.15 93.3 74.9Q95 78.95 90.95 82.75Q86.2 87.15 80.75 85.75L79.3 84.8M86.4,87.65Q92.2 87.4 95.35 83.65Q98.5 79.85 98.95 76.05Q99.55 76.4 100.15 76.9L100.6 77.55L100.9 78.75Q100.95 79.35 99.85 81.8Q98.75 84.2 95.95 86.35Q93.1 88.45 87.65 87.8L86.4 87.65M11.95,66L12.6 66.7Q12.1 66.85 11.6 67.25Q10.4 68.15 9.75 69.2L9.25 70.2L9.1 69.75Q8 66.95 6.2 64.9Q3.45 61.8 2.3 59Q1.2 56.45 1.35 52.45L1.4 51.45L1.45 50.7Q2.4 55.5 5 59.35L5.6 60.2Q8.2 63.75 11.4 65.35L11.95 66" />
<path style="fill:#7E5331;fill-opacity:1" d="M18.4,87L20.65 87.7L21.7 87.95Q23.75 88.3 26.75 87.85L27.7 87.7L26.75 86.15Q25.2 83.2 25.65 81Q26 78.85 25.2 77.55L24.25 76.6Q22.35 75.25 20.15 75.6L18.75 75.75Q19.8 74.9 16.6 73.5Q14.75 73.85 15.3 75.65L13.1 75.15L10.2 73.95L10 73L9.9 72.6L9.85 72.35L9.75 71.65Q11.35 69.1 13.7 67.45L15.55 68.15L18.5 68.6L20.4 68.75Q22.45 68.85 24.9 71.1L27.95 74.6L28.1 74.75L28.05 74.9L27.95 76.1L27.95 76.25L27.95 76.55L27.9 76.8L27.9 77.4L27.9 79.05Q28 81.7 28.7 84.05L29.15 85.3L29.65 86.4Q30.6 88.25 31.9 89.3L26.75 89.85Q23.3 89.75 20.25 88.2L17.95 86.85L18.4 87M38.05,90.05L38.3 90.1L47.45 90.35L51.95 89.75Q52.15 90.4 53.05 90.4Q57.1 90.35 55.8 88.6L60.25 86.25L61.1 85.5Q60.5 85.2 60.6 84.1Q60.8 82.65 62.2 82.5L63.2 82.95L65.65 78.35Q67.2 74.7 68.6 73.05Q68.6 71.25 68 69.55Q72.55 69.5 68.8 66.5Q67.7 66.75 67.15 67.75Q65.9 65.75 63.75 63.95L61.4 62.25Q58.7 65.2 53.65 66.1L51.9 66.45Q51.65 65.8 50.4 64.7Q49.35 64.85 48.75 65.85Q48.2 66.7 48.95 66.85L49.4 66.95Q44 68.1 38.85 69.9Q32.3 72.15 29.4 77.1L29.45 76.8L29.5 76.1Q29.95 72.8 32.8 70.15Q35.45 67.6 39.8 66L40.2 65.85L43.1 64.9L48.8 63.7L49.8 63.6L54.85 62.85Q56.4 62.55 58.15 61.85L59.3 61.3L59.5 61.2L60.95 60.15L61.25 59.85L61.6 59.5Q72 63.65 72.5 75.3Q71.55 76.05 70.85 77.8L70.4 79Q69.5 81.7 67.45 85.05Q65.4 88.4 61.6 89.85Q57.75 91.3 53.85 92.1L51 92.45L50.8 92.45L48.75 92.55L43.85 92.3L43.5 92.25Q37.05 91.7 33.7 88.9L32.25 87.55L31.35 86.5L38.05 90.05M20.6,77.5L20.7 77.55Q25.05 79.6 20.45 80.4Q19.95 80.5 19.55 79.8Q18.55 78.1 20.4 77.55L20.6 77.5M55.8,74.5Q59.35 77.1 54.85 76.4Q53.95 76.25 54.55 75.3Q55 74.55 55.8 74.5M43.15,84.65Q41.5 85 41.5 83.25Q41.5 81.7 43 81.5Q48.6 83.55 43.15 84.65" />
<path style="fill:#A67A60;fill-opacity:1" d="M17.85,86.8Q14.4 84.5 12.9 81.35L11.3 77.55L10.2 73.95L13.1 75.15L15.3 75.65Q14.75 73.85 16.6 73.5Q19.8 74.9 18.75 75.75L20.15 75.6Q22.35 75.25 24.25 76.6L25.2 77.55Q26 78.85 25.65 81Q25.2 83.2 26.75 86.15L27.7 87.7L26.75 87.85Q23.75 88.3 21.7 87.95L20.65 87.7L18.4 87L17.95 86.85L17.85 86.8M29.4,77.1Q32.3 72.15 38.85 69.9Q44 68.1 49.4 66.95L48.95 66.85Q48.2 66.7 48.75 65.85Q49.35 64.85 50.4 64.7Q51.65 65.8 51.9 66.45L53.65 66.1Q58.7 65.2 61.4 62.25L63.75 63.95Q65.9 65.75 67.15 67.75Q67.7 66.75 68.8 66.5Q72.55 69.5 68 69.55Q68.6 71.25 68.6 73.05Q67.2 74.7 65.65 78.35L63.2 82.95L62.2 82.5Q60.8 82.65 60.6 84.1Q60.5 85.2 61.1 85.5L60.25 86.25L55.8 88.6Q57.1 90.35 53.05 90.4Q52.15 90.4 51.95 89.75L47.45 90.35L38.3 90.1L38.05 90.05L31.35 86.5Q30.05 84.7 29.7 82.75Q29.35 80.85 29.35 79.05Q29.3 78.05 29.4 77.1M13.1,77.55Q13.25 80.9 15.7 83.3Q17 84.55 18.3 85.1L19.15 85.45L21.5 85.9Q22.75 84.9 20.3 83.9Q15.55 81.4 13.35 77.55L13.1 77.1L13.1 77.55M33.3,82.7Q34.15 76.4 40.5 74.5Q45.85 72.85 41.2 71.1Q35.6 72.1 32.7 76.85Q30.9 79.8 32.65 82.55Q33.2 83.4 33.3 82.7M37.1,85.95Q41.45 86.9 38.2 83.9Q37.15 83.95 36.8 85Q36.5 85.8 37.1 85.95M20.4,77.55Q18.55 78.1 19.55 79.8Q19.95 80.5 20.45 80.4Q25.05 79.6 20.7 77.55L20.6 77.5L20.4 77.55M48,71.9Q47 72 46.45 73.05Q46.1 73.8 46.75 73.95Q51.25 75.05 48 71.9M54.55,75.3Q53.95 76.25 54.85 76.4Q59.35 77.1 55.8 74.5Q55 74.55 54.55 75.3M43,81.5Q41.5 81.7 41.5 83.25Q41.5 85 43.15 84.65Q48.6 83.55 43 81.5" />
<path style="fill:#E5A884;fill-opacity:1" d="M13.1,77.1L13.35 77.55Q15.55 81.4 20.3 83.9Q22.75 84.9 21.5 85.9L19.15 85.45L18.3 85.1Q17 84.55 15.7 83.3Q13.25 80.9 13.1 77.55L13.1 77.1M32.65,82.55Q30.9 79.8 32.7 76.85Q35.6 72.1 41.2 71.1Q45.85 72.85 40.5 74.5Q34.15 76.4 33.3 82.7Q33.2 83.4 32.65 82.55M36.8,85Q37.15 83.95 38.2 83.9Q41.45 86.9 37.1 85.95Q36.5 85.8 36.8 85M46.75,73.95Q46.1 73.8 46.45 73.05Q47 72 48 71.9Q51.25 75.05 46.75 73.95" />
</g>
</svg>
