<?xml version="1.0" encoding="utf-8"?>
<svg version="1.1" id="Layer_1"
xmlns="http://www.w3.org/2000/svg"
xmlns:xlink="http://www.w3.org/1999/xlink"
xmlns:author="http://www.sothink.com"
width="46px" height="45px"
xml:space="preserve">
<g id="224" transform="matrix(1, 0, 0, 1, -0.05, -4.9)">
<path style="fill:#C43B0D;fill-opacity:1" d="M35.7,46.45Q38.75 45.35 40.15 43.2L41.9 39.9L42.85 36.7L38.8 37.65Q37.05 37.65 37.4 37.05L38.85 33.45L40.15 28.3Q37.4 30.45 35 30.45L36 26.35L32.35 27.1L34.1 18.75Q33.25 19.3 31.5 19.7Q29.85 20.1 28.35 17.9L25.5 13.4L22.5 8.2L18.45 16.7Q16.7 20.5 15.05 19.6Q13.3 18.55 11.95 16.85L11.9 23L12 26.9Q12.05 28.9 11.5 28.8L9.55 27.85L7.65 26.55L7.55 26.5L7.85 28.05L8.55 31.45L9.2 34.5Q9.45 35.55 6.65 34.3L5.9 33.95L7.8 38.85L2.65 37.25L4.45 40.9L6.2 44L7.85 46.1Q8.9 47.3 11.8 48.65L9.85 48.35Q8.5 47.85 7.45 47.15L5.1 44.95L3.25 42.75Q0.5 38.7 0.05 34.8L4.4 35.2L2.5 30.45L4.45 30.85L6.85 31.25Q6.55 30.7 5.4 25.45L4.85 23.3L9.6 25.6Q9.2 18.85 10.85 14.45Q14.3 15.95 15.7 16.95Q17.45 12.5 19.9 8.35Q22.3 4.15 22.75 5.05Q26.8 9.45 28.75 12.95L31.05 16.9L36.8 15.4L36.3 20.05Q35.9 22.85 35.2 24L38.2 22.85Q37.95 25.95 37.25 28.15Q39.15 26.55 40.55 25.9Q41.95 25.2 42.1 26.45Q42.25 27.7 41.75 30.2Q41.2 32.7 39.7 35.95L45.15 34.05Q44.9 38.65 43.15 41.85Q41.35 45.15 37.5 47.1L36 47.15L35.7 46.45" />
<path style="fill:#FFCC00;fill-opacity:1" d="M15.4,49.4L11.8 48.65Q8.9 47.3 7.85 46.1L6.2 44L4.45 40.9L2.65 37.25L7.8 38.85L5.9 33.95L6.65 34.3Q9.45 35.55 9.2 34.5L8.55 31.45L7.85 28.05L7.55 26.5L7.65 26.55L9.55 27.85L11.5 28.8Q12.05 28.9 12 26.9L11.9 23L11.95 16.85Q13.3 18.55 15.05 19.6Q16.7 20.5 18.45 16.7L22.5 8.2L25.5 13.4L28.35 17.9Q29.85 20.1 31.5 19.7Q33.25 19.3 34.1 18.75L32.35 27.1L36 26.35L35 30.45Q37.4 30.45 40.15 28.3L38.85 33.45L37.4 37.05Q37.05 37.65 38.8 37.65L42.85 36.7L41.9 39.9L40.15 43.2Q38.75 45.35 35.7 46.45L36 47.15Q35.55 47.25 34.6 47.7L33.35 48.2L35.25 45.5L38.8 40.65L36.25 41.45L34.7 41.45L34.7 41.15L35.95 38.95L36.6 37.05L34.05 39.1L34.05 38.9L35.05 34L34.9 34L33.85 34.75L32.85 35.2L32.85 32.85L33.2 31.3L33.2 30.25L33 30.25L31.95 30.95L30.95 31.45L30.65 26.85L30.5 26.85L29.8 28.2L28.8 28.2L28.6 25.45L28.35 25.45L27.55 26.4Q27.05 27 26.6 27L26.2 26.85L24.3 21Q22.45 15.8 22.45 13.85L21.05 22.4Q20.4 25.75 19.55 25.75L18.85 25.25L18.05 24.45L18.05 27.55L17.9 27.55L14.95 24.3L14.95 25.05Q14.95 26.45 15.65 28.8L16.5 31.8L15.35 30.9L15.35 32.3L15.6 33L15.6 34.3L15.35 34.3Q13.95 33.7 12.55 32.45L11.5 31.3L12.55 34.8L14.15 39.3L13.9 39.3L12.8 38.9L11.7 38.9L12.7 40.35Q13.45 41.3 13.4 41.75L13.2 41.75L12.9 41.45L12.45 41.3L11.5 41.3L12.2 42.3L13.05 43.35L12.45 43.35L9.05 42.2L9.05 42.35Q9.2 44.1 13 47.35L15.4 49.4" />
<path style="fill:#FAED2D;fill-opacity:1" d="M30.95,41.85L30.8 38.8L28.6 41.6L28.35 39.2L28.25 36.75L28.25 36.9L27.8 38.2Q27.45 39.25 26.9 39.45L26.8 39.3L26.8 36.9Q26.3 37.35 25.35 38.9L25.25 38.65Q25.6 35.8 24.15 32L22.6 27.75L22.4 27.75L21.85 32.15L21.25 36.9Q19.6 34.15 19.6 33.2L19.15 33.2L18.75 35.2L18.5 37.05L18.5 39.15Q18.55 39.65 18.85 40L18.65 39.85L18.05 39.15L18.05 39.85L18.5 41.75L18.5 43.3Q17.4 43.2 17.65 43.9L16.3 43.45L15.1 42.85Q14.7 44.35 17.5 47.55L19.35 49.45L16.5 49.45L15.4 49.4L13 47.35Q9.2 44.1 9.05 42.35L9.05 42.2L12.45 43.35L13.05 43.35L12.2 42.3L11.5 41.3L12.45 41.3L12.9 41.45L13.2 41.75L13.4 41.75Q13.45 41.3 12.7 40.35L11.7 38.9L12.8 38.9L13.9 39.3L14.15 39.3L12.55 34.8L11.5 31.3L12.55 32.45Q13.95 33.7 15.35 34.3L15.6 34.3L15.6 33L15.35 32.3L15.35 30.9L16.5 31.8L15.65 28.8Q14.95 26.45 14.95 25.05L14.95 24.3L17.9 27.55L18.05 27.55L18.05 24.45L18.85 25.25L19.55 25.75Q20.4 25.75 21.05 22.4L22.45 13.85Q22.45 15.8 24.3 21L26.2 26.85L26.6 27Q27.05 27 27.55 26.4L28.35 25.45L28.6 25.45L28.8 28.2L29.8 28.2L30.5 26.85L30.65 26.85L30.95 31.45L31.95 30.95L33 30.25L33.2 30.25L33.2 31.3L32.85 32.85L32.85 35.2L33.85 34.75L34.9 34L35.05 34L34.05 38.9L34.05 39.1L36.6 37.05L35.95 38.95L34.7 41.15L34.7 41.45L36.25 41.45L38.8 40.65L35.25 45.5L33.35 48.2L31.7 48.7L27.7 49.3Q30.95 45.3 30.95 41.85" />
<path style="fill:#FFF783;fill-opacity:1" d="M27.7,49.3L26.6 49.4L21.4 49.5L19.35 49.45L17.5 47.55Q14.7 44.35 15.1 42.85L16.3 43.45L17.65 43.9Q17.4 43.2 18.5 43.3L18.5 41.75L18.05 39.85L18.05 39.15L18.65 39.85L18.85 40Q18.55 39.65 18.5 39.15L18.5 37.05L18.75 35.2L19.15 33.2L19.6 33.2Q19.6 34.15 21.25 36.9L21.85 32.15L22.4 27.75L22.6 27.75L24.15 32Q25.6 35.8 25.25 38.65L25.35 38.9Q26.3 37.35 26.8 36.9L26.8 39.3L26.9 39.45Q27.45 39.25 27.8 38.2L28.25 36.9L28.25 36.75L28.35 39.2L28.6 41.6L30.8 38.8L30.95 41.85Q30.95 45.3 27.7 49.3" />
<path style="fill:#F5A455;fill-opacity:1" d="M30.9,37.75L31.85 38.05Q32.8 38.05 33.1 37.55L33.3 36.85L33.4 35.65Q33.4 32.7 31.5 32.7Q32.15 31.9 31 31.15Q29.9 30.25 28.8 30.05L27.15 30.15L25.85 30.85L25.75 29.85L26.35 25.5L26.35 24.05Q25.6 24.2 25.3 23.55L25.1 22.7L24.95 23.15L24.4 23.5Q24 23.5 22.7 21.4L22.7 21.5L21.95 23.3Q21.6 24.25 21.25 24.25Q20.95 24.25 20.6 23.6L20.2 25.35Q20.2 26.4 20.6 27.75Q20.6 30.45 20.15 30.8L17.65 30.95Q15.8 30.95 14.95 32.35Q14.4 33.35 14.4 34.7Q14.4 35.1 14.8 35.5Q14.4 35.65 14.05 36.35Q13.7 37.1 13.75 38.2L13.85 38.75Q14.1 39.4 15.2 39.4L15.8 39.35L14.7 39.75Q13.05 40.35 12.5 39.3L12.3 38.75L12.15 37.55Q12.2 36.25 13.05 35.55L12.5 35.05Q12.35 34.7 12.45 34.25Q12.45 33.5 12.6 33Q12.7 31.85 14 30.6Q14 30.15 15.5 29.55Q15.95 29.25 16.5 29.05L19.55 29.1L19.45 28.85Q18.2 28 18.2 25.95Q18.1 23.4 19.75 21.65L19.95 21.55Q20.6 21.55 20.65 22.35L20.65 22.45L21.2 21.15Q21.55 20.25 23.1 18.7L24.65 21.2L25.4 19.85L25.55 19.7Q26.1 20.2 26.35 21.1L26.6 22.1L26.65 22.1L27.4 21.45L27.55 21.35Q28.75 22.8 28.65 25.3Q28.5 26.9 27.55 28.3L27.55 28.85L27.7 28.8L27.95 28.75L31.45 29Q33.1 29.3 33.7 30.7Q34.5 31.1 34.85 32.35L34.95 32.8L34.45 34.1L34.95 35.55L34.75 36.25L34.65 36.55L33.45 38.4Q32.15 39.7 30.7 38.25L29.95 37.3Q30.55 37.3 30.9 37.75M31.85,45.75Q31.5 45.4 31.4 43.45Q31.35 42.35 29.75 41.3Q28.2 40.25 28.2 39.6Q28.2 38.8 28.45 38.8L29.1 38.7L29 39L29.15 39.15Q30.05 39.4 30.95 40.05Q32.5 41.25 33.1 43.1L33.1 43.55L33.05 43.55Q33.15 44.65 32.6 45.7Q32.95 45.7 33.3 46L34.55 46.95L34.8 47.2L34.8 47.45Q32.25 46.35 31.85 45.75M18.7,39.8L19.15 40.85Q19.15 41.15 18 41.85L16.3 42.95Q16 43.25 15.15 45.15L14.4 46.45Q14.05 45.9 14.25 45.15L14.4 44.5L14.55 43.9L14.65 43.75L14.55 43.55Q14.65 43.05 15.05 42.6Q15.45 41.95 16.2 41.65L18.45 39.75L18.55 39.7L18.7 39.8" />
<path style="fill:#BF3E24;fill-opacity:1" d="M34.8,47.45Q34.65 48.6 33.45 48.95L31.6 49.35Q30.15 49.35 29.1 48.45Q28.55 48 28.7 47.3L28.8 46.85L28.35 45L27.3 44.4L24.6 42.35Q23.7 41.85 23 42.6L21.15 44.15Q19.95 44.9 19.95 45.6Q19.95 46.2 19.25 47.05L19.25 47.15L18.4 47.85Q18.35 48.6 17.2 49.15L15.35 49.5L13.45 49.2L13.35 49.1Q13.1 48.5 13.6 48Q13.7 47.7 13.9 47.55L14.4 46.95L14.55 46.85L14.5 46.55L14.4 46.45L15.15 45.15Q16 43.25 16.3 42.95L18 41.85Q19.15 41.15 19.15 40.85L18.7 39.8L18.55 39.7L18.6 39.7L18.45 39.1L17.85 38.35Q20.3 37.25 20.3 35.7Q20.3 35 19.95 34.7L19.15 34.25Q19.1 34.95 18.1 35.4L16.6 35.8Q16.45 36.45 14.95 37.8L13.85 38.75L13.75 38.2Q13.7 37.1 14.05 36.35Q14.4 35.65 14.8 35.5Q14.4 35.1 14.4 34.7Q14.4 33.35 14.95 32.35Q15.8 30.95 17.65 30.95L20.15 30.8Q20.6 30.45 20.6 27.75Q20.2 26.4 20.2 25.35L20.6 23.6Q20.95 24.25 21.25 24.25Q21.6 24.25 21.95 23.3L22.7 21.5L22.7 21.4Q24 23.5 24.4 23.5L24.95 23.15L25.1 22.7L25.3 23.55Q25.6 24.2 26.35 24.05L26.35 25.5L25.75 29.85L25.85 30.85L27.15 30.15L28.8 30.05Q29.9 30.25 31 31.15Q32.15 31.9 31.5 32.7Q33.4 32.7 33.4 35.65L33.3 36.85Q32 36.65 31.4 35.75Q30.75 34.9 31.1 34.45L30.05 34.75Q29.1 34.75 28.35 34Q27.7 33.45 27.6 33L27.55 33L27.2 34.2Q27.2 35.25 28.1 36.35Q28.9 37.25 29.75 37.5L29.1 38.7L28.45 38.8Q28.2 38.8 28.2 39.6Q28.2 40.25 29.75 41.3Q31.35 42.35 31.4 43.45Q31.5 45.4 31.85 45.75Q32.25 46.35 34.8 47.45M18.45,45.05L18.6 45.05Q18.7 43.9 20.7 42.6Q22.6 41.35 23.95 41.35Q25.05 41.35 26.15 42.15Q28.05 43.4 29.85 44.15Q27.95 42.75 26.9 40.15Q25.95 37.85 25.95 35.4L26.2 32.8L26.1 32.55L24.95 32.35Q24.65 32.05 24.65 31.25L24.95 30.05L25.25 28.6L25 26.6L24.75 25.2L24.55 25.2L24.1 25.6L23.75 25.35L23.3 25.2Q22.85 26.15 22.4 26.15L21.85 25.9L21.45 25.65L21.3 26.45Q20.95 26.9 20.95 27.25Q20.95 28.95 21.6 29.9L20.95 31.75Q20.4 33.1 20.4 34.25Q20.4 35.1 20.95 35.8Q21.45 36.5 21.45 37.45Q21.45 39.1 19.95 41.25Q18.4 43.4 18.4 44.65L18.45 45.05" />
<path style="fill:#98230C;fill-opacity:1" d="M28.1,36.35Q27.2 35.25 27.2 34.2L27.55 33L27.6 33Q27.7 33.45 28.35 34Q29.1 34.75 30.05 34.75L31.1 34.45Q30.75 34.9 31.4 35.75Q32 36.65 33.3 36.85L33.1 37.55Q32.8 38.05 31.85 38.05L30.9 37.75Q30.55 37.3 29.95 37.3L29.9 37.25L29.85 37.3L29.75 37.5Q28.9 37.25 28.1 36.35M14.95,37.8Q16.45 36.45 16.6 35.8L18.1 35.4Q19.1 34.95 19.15 34.25L19.95 34.7Q20.3 35 20.3 35.7Q20.3 37.25 17.85 38.35L17.85 38.25Q17.55 37.9 17.55 37.55L17.2 38.1L16.85 38.45L15.8 39.35L15.2 39.4Q14.1 39.4 13.85 38.75L14.95 37.8M18.4,44.65Q18.4 43.4 19.95 41.25Q21.45 39.1 21.45 37.45Q21.45 36.5 20.95 35.8Q20.4 35.1 20.4 34.25Q20.4 33.1 20.95 31.75L21.6 29.9Q20.95 28.95 20.95 27.25Q20.95 26.9 21.3 26.45L21.45 25.65L21.85 25.9L22.4 26.15Q22.85 26.15 23.3 25.2L23.75 25.35L24.1 25.6L24.55 25.2L24.75 25.2L25 26.6L25.25 28.6L24.95 30.05L24.65 31.25Q24.65 32.05 24.95 32.35L26.1 32.55L26.2 32.8L25.95 35.4Q25.95 37.85 26.9 40.15Q27.95 42.75 29.85 44.15Q28.05 43.4 26.15 42.15Q25.05 41.35 23.95 41.35Q22.6 41.35 20.7 42.6Q18.7 43.9 18.6 45.05L18.45 45.05L18.4 44.65" />
</g>
</svg>
