<?xml version="1.0" encoding="utf-8"?>
<svg version="1.1" id="Layer_1"
xmlns="http://www.w3.org/2000/svg"
xmlns:xlink="http://www.w3.org/1999/xlink"
xmlns:author="http://www.sothink.com"
width="299px" height="214px"
xml:space="preserve">
<g id="1873" transform="matrix(1, 0, 0, 1, 152.9, 106.85)">
<path style="fill:#F8CC00;fill-opacity:1" d="M119.45,-106.85Q120 -104.2 121.3 -82.4L121.9 -72.55L120.85 -68.7L120.25 -71.6Q119.25 -76.4 120.1 -55.5Q117.5 -89 117.1 -97.25Q117.1 -103 117.25 -103.85Q117.55 -105.55 119.45 -106.85M79.8,-104.85L82.95 -67.25L80.45 -72.8Q79.05 -71.1 77.85 -63.95Q76.85 -58 76.85 -55.5L76.65 -55.5L79.8 -105.9L79.8 -104.85M47.25,-61Q47.8 -58.35 49.1 -36.6L49.7 -26.75L48.65 -22.9L48.05 -25.8Q47.05 -30.6 47.9 -9.65Q45.3 -43.2 44.9 -51.4Q44.9 -57.2 45.05 -58.05Q45.35 -59.7 47.25 -61M144.25,38.05Q140.25 47.45 134.05 47.45Q131.7 47.45 128.9 44.65Q126.1 41.75 124.3 41.75Q122.1 41.75 121.45 44.3Q120.95 47.85 120.15 49.8Q117.6 49.55 101.15 58.75Q84.35 68.2 77.65 68.2L74.75 65.3Q71.95 62.35 71.25 62.35Q70 62.35 64.2 69.8Q58.4 77.2 57.7 77.2L54.15 74.4Q50.35 71.55 48.3 71.55L41.45 76.15Q34.7 80.7 33.45 80.7Q32.5 80.7 28.8 77.05Q24.8 73.05 24.1 72.75Q24.1 74.9 21.85 78.5Q19.2 82.9 15.75 84.25Q14.7 81.6 9.75 65.4L4.6 48.65L0.05 73.6Q-3.15 87.6 -6.5 87.6Q-7.75 87.6 -10.6 84.15Q-13.45 80.7 -15.75 80.7Q-17.85 80.7 -19.55 83.6Q-21.3 86.45 -22.3 86.45Q-24.15 86.45 -27.95 82.45Q-31.8 78.4 -32.15 78.4Q-33.5 78.4 -37.25 81.85L-41.4 85.3Q-42.25 85.3 -45.1 83Q-48 80.7 -48.9 80.7Q-50.45 80.7 -52.15 83Q-53.9 85.3 -55.45 85.3Q-56.3 85.3 -59.1 81.3Q-61.9 77.2 -63.75 77.2Q-65.15 77.2 -67 79Q-68.85 80.7 -71.35 80.7Q-73.65 80.7 -76.8 77.95Q-81 74.15 -83.8 67L-85.9 71Q-86.75 72.75 -88.9 72.75Q-91.4 72.75 -95.5 63.4Q-99.45 54.55 -101.5 45.25L-102.45 45.25L-105.55 52.85Q-108.6 59.7 -110.75 61.3Q-119.8 50.3 -127.65 41.75L-128.45 44Q-128.95 44.8 -131.3 46.3Q-132.65 43.5 -135.6 40.25Q-139.65 35.75 -142.5 36.25Q-147.8 37.05 -150.45 29.95Q-152.05 25.5 -152.4 24.9L-152.7 24.4L-152.7 23.15L-152.9 23L-152.75 -18.45L-151.6 -13.95L-151.35 -13.4L-151.2 -13.05L-151.2 -13.6L-151.15 -25.95Q-149.7 40.4 -147.25 -39.7L-147.05 -44.15Q-145.85 -66.2 -144.9 -77.3L-144.9 -79.05Q-142.85 -60.35 -141.1 -48.55L-141 -52.95Q-141 -58.7 -141.65 -64.25L-142.05 -67.4L-141.95 -67.9Q-141 -66.75 -141 -65L-140.55 -65L-140.3 -69.05L-140.1 -75.4Q-139.65 -75.4 -139.65 -76.5L-139.2 -76.5Q-138.65 -74.85 -138.65 -66Q-138.65 -60.5 -140.05 -48.05L-140.45 -44.15L-140.2 -42.45Q-138.65 -32.95 -136.75 -27.4L-133.4 -21.25L-133.05 -20.55Q-131.8 -19.45 -130.5 -19.45Q-128.7 -19.45 -127.55 -20.9Q-125.8 -23.15 -126.25 -28.05L-126.25 -28.6Q-125.9 -24.45 -125.15 -20.5L-124.65 -18.15Q-123.9 -14.85 -123 -13.75L-121.1 -13.75L-120.8 -15L-120.2 -17.15Q-117.85 -14.3 -115.15 -9L-114.15 -7.45L-112.2 -38.3L-112.2 -37.3L-109.65 -6.7L-108.45 -7.4L-106.45 -8.55L-101.05 -3.1Q-95.9 2.3 -92.25 2.3Q-89.4 2.3 -88.7 0.6Q-88.15 -0.75 -88.2 -6.7Q-88.2 -16.85 -87.45 -27.35L-85.8 -44.15L-83.35 -32.05L-82.4 -31.7L-82.1 -31.55L-82 -28.8Q-81.15 -9.65 -78.95 -9.65Q-78.2 -9.65 -78 -10.15Q-77.85 -10.45 -77.85 -11.45L-73.5 -3.15Q-70.8 1.75 -69.4 1.75Q-68.9 1.75 -68 0.05Q-67.15 -1.65 -66.15 -1.65L-62.4 2L-62.15 2.2Q-58 5.7 -54.95 5.7Q-50.2 5.7 -48.3 3.6L-47.35 2.2Q-46.2 -0.1 -45.7 -4.45Q-45.25 -8.55 -45.05 -21.55Q-44.75 -38.75 -44.25 -50.4L-44.25 -50.95Q-42.65 -47.5 -41.2 -31.55L-39.6 -12.55L-39.15 -11.45Q-38.4 -12.75 -36.75 -18.3Q-34.3 -11.1 -31.65 -4.65L-28.55 2.2Q-25.5 8.1 -23.55 8.1Q-22.95 8.1 -22.85 7.55Q-22.7 6.95 -22.15 6.95Q-21.95 6.95 -9.75 12.1L-9.1 12Q-8.6 11.6 -8.35 10.4Q-7.2 11.1 -6.35 12.15L-5.7 13.15Q-5.55 13.5 -5.55 13.8Q-5.15 13.75 -4.7 13.15Q-3.9 12.05 -3 9.05Q-1.7 4.6 -0.45 4.6Q0.15 4.6 0.75 5.15Q1.4 5.7 1.8 5.7L2.45 2.2Q4.95 -13.2 6.3 -44.9L6.4 -48.2L8.8 -105.95L8.35 -86.45L12.25 -49.75L13.65 -37.2Q16.1 -15.95 18.1 -9.65L19.05 -9.65L19.3 -12.2L19.5 -14.3L19.5 -14.85L22.25 -8.5L25.1 -1.1L26.55 -2.15L27.65 -2.85Q29.15 -2.85 31 0.55L32 2.2Q33.7 4.75 35.35 5.7Q35.95 5.05 36.45 3.1L36.65 2.2L36.75 0.6L38.35 2.2L39.7 3.6Q41.2 5.15 42.8 5.15Q44.3 5.15 46.15 2.65L46.5 2.2Q48.05 0.05 48.4 0.05Q48.85 0.05 50.5 2.2L51.4 3.5Q53.8 6.95 55.1 6.95Q56.15 6.95 57.5 6.05Q58.9 5.15 59.85 5.15L62.45 5.35Q64.1 5.75 64.7 7.5L66.6 7.5Q66.4 6.3 67.5 2.2L67.65 1.6Q69 -3.4 70.3 -5.1Q71.65 -4.3 72.7 -2.85Q73.5 -1.65 74.25 -1.65Q75.55 -1.65 76.05 -3.35Q76.5 -4.75 77.4 2.2L77.7 4.8Q78.1 8.5 78.9 2.2Q80.2 -7.95 82.4 -44.1L82.9 -44.1Q82.9 -40.3 85.5 -25.7Q88.3 -10.05 89.85 -9.1L90.35 -9.1Q90.35 -13.1 91.25 -16.55Q92.8 -14.1 95 -7.6Q96.65 -2.85 98 -2.85Q98.75 -2.85 99.7 -4.25Q100.6 -5.65 101.5 -5.65Q102.3 -5.65 103.65 -3.35L105.3 -0.5L106.2 -0.5Q106 -2.1 107.2 -5.2Q108.5 -8.45 109.9 -9.1L111.9 -5.8L113.15 -2.85L113.65 -2.85Q113.65 -3.95 114.55 -7.25L116.05 -5.1L118.35 -2.25L119.85 -3.7Q120.4 -4.15 120.55 -4.75L120.65 -18.9Q120.65 -26.15 118.55 -43.45L117.25 -55.35Q117.75 -57.65 118.35 -58.35L118.75 -57.5L123.9 -36.65Q130.2 -11.5 130.95 -9.1L131.85 -9.1Q131.85 -11.2 132.5 -17.7Q133.2 -24.6 133.7 -26.4L134.55 -24.35L135.05 -22.25L136 -22.25Q137.15 -24.5 137.4 -48.2L137.45 -59.6Q138.35 -57.4 140.1 -50.75L142 -42.15Q143.25 -35 144.45 -25.05L144.5 -24.6Q145.1 -19.5 145 -15.1Q144.9 -10.7 144.15 -7L144.2 2.2L144.25 10.55L144.3 13.15L144.3 18.6L145.15 30.1L145.2 30.55Q145.65 32 145.7 33.3L145.7 34.05L144.25 38.05M7.4,-38.4L7.45 -38.3L7.5 -40L7.4 -40.05L7.4 -38.4M-75.9,-99.65Q-74.95 -98.4 -73.7 -95.2L-74.2 -88.6L-74.6 -80.4Q-74.6 -75.4 -73.25 -56.85L-71.9 -38.3L-72.6 -39.1Q-72.6 -41.2 -74.25 -50.15Q-76.2 -61 -77.9 -62L-77.9 -61.2Q-78.45 -60.5 -78.55 -58.9L-78.55 -65.3Q-77.95 -95.8 -77.25 -99.65L-75.9 -99.65M-17.1,-68.25Q-16.55 -65.55 -15.25 -43.8L-14.65 -33.95L-15.7 -30.15L-16.3 -32.95Q-17.3 -37.75 -16.45 -16.85Q-19.05 -50.4 -19.45 -58.6L-19.3 -65.25Q-19 -66.9 -17.1 -68.25" />
<path style="fill:#F87800;fill-opacity:1" d="M145.7,34.05L145.7 34.9Q145.7 64.8 101.95 85.95Q58.25 107.1 -3.6 107.1Q-65.45 107.1 -109.2 85.95Q-151.55 65.45 -152.85 36.7L-152.9 34.85L-152.7 31.1L-152.7 24.4L-152.4 24.9Q-152.05 25.5 -150.45 29.95Q-147.8 37.05 -142.5 36.25Q-139.65 35.75 -135.6 40.25Q-132.65 43.5 -131.3 46.3Q-128.95 44.8 -128.45 44L-127.65 41.75Q-119.8 50.3 -110.75 61.3Q-108.6 59.7 -105.55 52.85L-102.45 45.25L-101.5 45.25Q-99.45 54.55 -95.5 63.4Q-91.4 72.75 -88.9 72.75Q-86.75 72.75 -85.9 71L-83.8 67Q-81 74.15 -76.8 77.95Q-73.65 80.7 -71.35 80.7Q-68.85 80.7 -67 79Q-65.15 77.2 -63.75 77.2Q-61.9 77.2 -59.1 81.3Q-56.3 85.3 -55.45 85.3Q-53.9 85.3 -52.15 83Q-50.45 80.7 -48.9 80.7Q-48 80.7 -45.1 83Q-42.25 85.3 -41.4 85.3L-37.25 81.85Q-33.5 78.4 -32.15 78.4Q-31.8 78.4 -27.95 82.45Q-24.15 86.45 -22.3 86.45Q-21.3 86.45 -19.55 83.6Q-17.85 80.7 -15.75 80.7Q-13.45 80.7 -10.6 84.15Q-7.75 87.6 -6.5 87.6Q-3.15 87.6 0.05 73.6L4.6 48.65L9.75 65.4Q14.7 81.6 15.75 84.25Q19.2 82.9 21.85 78.5Q24.1 74.9 24.1 72.75Q24.8 73.05 28.8 77.05Q32.5 80.7 33.45 80.7Q34.7 80.7 41.45 76.15L48.3 71.55Q50.35 71.55 54.15 74.4L57.7 77.2Q58.4 77.2 64.2 69.8Q70 62.35 71.25 62.35Q71.95 62.35 74.75 65.3L77.65 68.2Q84.35 68.2 101.15 58.75Q117.6 49.55 120.15 49.8Q120.95 47.85 121.45 44.3Q122.1 41.75 124.3 41.75Q126.1 41.75 128.9 44.65Q131.7 47.45 134.05 47.45Q140.25 47.45 144.25 38.05L145.7 34.05" />
</g>
</svg>
