<?xml version="1.0" encoding="utf-8"?>
<svg version="1.1" id="Layer_1"
xmlns="http://www.w3.org/2000/svg"
xmlns:xlink="http://www.w3.org/1999/xlink"
xmlns:author="http://www.sothink.com"
width="11px" height="13px"
xml:space="preserve">
<g id="1172" transform="matrix(1, 0, 0, 1, 0, 0)">
<path style="fill:#876430;fill-opacity:1" d="M10.4,1.8L10.15 1.55L10.05 1.5Q9.35 0.95 8.05 1.05Q6.75 1.05 4.4 2.95Q2.55 4.45 1.8 6.35L1.45 7.3Q0.8 9.7 0.95 10.5L1.05 10.85L0.1 10.9L0.05 10.65Q-0.1 9.6 0.15 8.25Q1.75 0.85 8.5 0Q9.55 0.1 10.15 0.65L10.35 0.8L10.85 1.75L10.85 1.85Q10.8 2 10.65 1.95L10.4 1.8" />
<path style="fill:#C4944D;fill-opacity:1" d="M1.05,10.85Q2.2 10.65 3.25 9.5Q4.75 7.9 4.75 6.15L4.75 5.65Q6.15 5.5 8 4.25Q9.6 3.15 10 1.7L10.05 1.5L10.15 1.55L10.4 1.8L10.65 1.95Q11.1 3.1 10.6 4.15L10.6 4.2Q10.5 3.95 9.65 4.7Q8.65 5.55 7.3 6.2Q5.9 6.85 5 8.7L3.5 11.2Q2.9 11.85 2.45 11.85L1.65 11.75L1.2 11.45L1.05 10.85" />
<path style="fill:#543914;fill-opacity:1" d="M1.2,11.45L1.65 11.75L2.45 11.85Q2.9 11.85 3.5 11.2L5 8.7Q5.9 6.85 7.3 6.2Q8.65 5.55 9.65 4.7Q10.5 3.95 10.6 4.2L10.55 4.6Q10.2 5.5 9.15 6.2L7 7.65Q5.9 8.4 5.45 9.7L4.5 11.65L3.5 12.65L2 12.95Q0.95 12.85 0.45 11.95L0.1 10.9L1.05 10.85L1.2 11.45" />
<path style="fill:#E9CB9E;fill-opacity:1" d="M4.2,3.65Q6.8 1.65 9.5 1.65L10 1.7Q9.6 3.15 8 4.25Q6.15 5.5 4.75 5.65L4.75 6.15Q4.75 7.9 3.25 9.5Q2.2 10.65 1.05 10.85L0.95 10.5Q0.8 9.7 1.45 7.3L1.8 6.35Q2.75 4.75 4.2 3.65" />
<path style="fill:#F0DBBB;fill-opacity:1" d="M10,1.7L9.5 1.65Q6.8 1.65 4.2 3.65Q2.75 4.75 1.8 6.35Q2.55 4.45 4.4 2.95Q6.75 1.05 8.05 1.05Q9.35 0.95 10.05 1.5L10 1.7" />
</g>
</svg>
