<?xml version="1.0" encoding="utf-8"?>
<svg version="1.1" id="Layer_1"
xmlns="http://www.w3.org/2000/svg"
xmlns:xlink="http://www.w3.org/1999/xlink"
xmlns:author="http://www.sothink.com"
width="55px" height="11px"
xml:space="preserve">
<g id="821" transform="matrix(1, 0, 0, 1, -29.25, -0.75)">
<path style="fill:#FFE4B1;fill-opacity:1" d="M82.45,4.4L81.35 4.25L81.15 3.6Q80.9 3.35 80.55 3.25L79.85 3.35Q79.55 3.5 79.45 3.9L79.45 4.1L79.45 4.3L79.85 4.8L80.45 4.95L81.9 5.45L83.05 6.5L83.5 7.55L83.55 8.65L83.25 9.75L82.6 10.75L81.55 11.3L80.35 11.45L79.05 11.25Q78.4 11.05 77.9 10.65L77.1 9.7Q76.8 9.1 76.85 8.4L76.85 8.3L78 8.25L79.15 8.3Q79.15 8.75 79.5 9L80.25 9.25L80.95 9L81.15 8.2L80.75 7.5L79.9 7.15L79 6.95L78.45 6.75L78 6.45Q77.3 5.75 77.1 5Q76.9 4.2 77.05 3.45Q77.25 2.65 77.75 2.05L78.95 1.15L80.05 0.9L81.25 1L82.3 1.3Q83.05 1.7 83.4 2.45Q83.8 3.15 83.6 4.3L82.45 4.4M75,2.2Q75.5 2.95 75.4 4.2L75.35 4.25L75.25 4.3L74.9 4.35L74.4 4.35L74 4.35L73.5 4.3L73.3 3.8L72.95 3.3L72.45 3.05L71.95 3.05Q71.75 3.05 71.55 3.2L71.45 3.35L71.4 3.6L71.15 4.85L71.1 6.35L71.15 7.95L71.3 8.65Q71.35 9.05 71.65 9.25L71.8 9.35L72 9.4L72.45 9.4L72.95 9.25L73.2 9.05L73.4 8.75L73.45 8.45L73.45 8.05L73.4 7.85L73.05 7.8L72.6 7.85L72.3 7.8L72.25 7.25L72.25 6.8L72.25 6.2L72.3 6.2L72.9 6.05L73.85 6.05L74.75 6.1L75.35 6.1L75.4 6.1L75.4 6.15L75.5 7.85L75.4 9.55L74.95 10.7L73.95 11.3L72.35 11.6L70.8 11.4Q70.2 11.15 69.9 10.7L69.4 9.65L69.3 9.2L69.2 8.6L69.1 7.45L69.05 6.45L69.05 5.15L69.1 4.2L69.2 3.2L69.45 2.25Q69.65 1.8 70.1 1.45Q70.4 1.2 70.75 1.1L71.55 0.9L73.6 1.1Q74.5 1.4 75 2.2M66.1,1.55L66.1 0.85L67.2 0.75L68.15 0.85L68.15 5.65L68.2 6.95L68.2 8.25L68.2 9.1L68.15 9.9L68.2 10.5L68.2 11.1L68.2 11.4L68.05 11.45L67.7 11.45L67 11.45L66.3 11.4L65.35 9.25L64.5 7.25L64.35 6.8L64.25 6.5L64.15 6.35L64.1 6.7L64.05 7.6L64.05 8.85L64.05 10.15L64.05 10.8L64.05 11.4L63.75 11.45L63.4 11.45L62.65 11.45L61.95 11.4L61.95 10.35L61.95 7.6L61.9 4.9L61.95 2.85L62.05 0.9L62.35 0.85L62.7 0.85L63.15 0.85L63.7 0.9L63.95 1L64.2 1.55L64.45 2.05L64.75 2.65L65 3.2L65.4 4.05L65.8 4.8L66 5.15L66.1 4.85L66.1 4.35L66.1 3.25L66.05 2.2L66.1 1.55M61.05,0.9L61 4.4L60.95 7.9L61.05 11.35L60.55 11.45L59.7 11.45L58.85 11.45L58.3 11.45L58.4 7.85L58.3 4.25L58.4 0.8L58.7 0.8L59.05 0.8L59.65 0.85L60.7 0.85L61.05 0.85L61.05 0.9M57.5,2.1L57.4 3.3L56.7 3.25L55.55 3.3L55.5 3.3L55.5 3.35L55.5 3.8L55.5 4.95L55.5 7.3L55.6 11.3L54.35 11.35L53.15 11.4L53.15 10.5L53.15 7.95L53.05 3.4L53 3.4L52.4 3.25L51.7 3.25L51.2 3.25L51.15 2.75L51.1 1.85L51.15 0.85L54.3 0.8L57.45 1L57.5 2.1M50.6,2.1L50.5 3.3L49.8 3.25L48.65 3.3L48.6 3.3L48.6 3.35L48.6 3.8L48.6 4.95L48.6 7.3L48.7 11.3L47.45 11.35L46.25 11.4L46.25 10.5L46.25 7.95L46.15 3.4L46.1 3.4L45.5 3.25L44.8 3.25L44.3 3.25L44.25 2.75L44.2 1.85L44.25 0.85L47.4 0.8L50.55 1L50.6 2.1M43.5,2.05L43.45 3.1L42.15 3.25L40.85 3.25L39.5 3.3L39.45 3.3L39.4 4.2L39.45 5.05L39.5 5.1L40.4 5.1L41.3 5.15L41.4 6.15L41.35 7.25L40.65 7.3L39.95 7.3L39.55 7.4Q39.45 7.85 39.5 8.4L39.55 9.3L41.5 9.35L43.5 9.35L43.5 9.4L43.5 10.4L43.35 11.35L40.25 11.4L37.2 11.35L37.15 6.2L37.25 1.05L38.75 1L40.4 0.95L41.9 0.95L43 0.95L43.45 1L43.5 2.05M36,4.3L34.85 4.4L33.75 4.25L33.55 3.6Q33.3 3.35 32.95 3.25L32.25 3.35L31.85 3.9L31.85 4.1L31.85 4.3L32.25 4.8L32.85 4.95L34.3 5.45L35.45 6.5L35.9 7.55L35.95 8.65L35.65 9.75L35 10.75L33.95 11.3L32.75 11.45L31.45 11.25Q30.8 11.05 30.3 10.65L29.5 9.7Q29.2 9.1 29.25 8.4L29.25 8.3L30.4 8.25L31.55 8.3Q31.55 8.75 31.9 9L32.65 9.25L33.35 9L33.55 8.2L33.15 7.5L32.3 7.15L31.4 6.95L30.85 6.75L30.4 6.45Q29.7 5.75 29.5 5Q29.3 4.2 29.45 3.45Q29.65 2.65 30.15 2.05L31.35 1.15Q31.85 0.95 32.45 0.9L33.65 1L34.7 1.3Q35.45 1.7 35.8 2.45Q36.2 3.15 36 4.3" />
</g>
</svg>
