<?xml version="1.0" encoding="utf-8"?>
<svg version="1.1" id="Layer_1"
xmlns="http://www.w3.org/2000/svg"
xmlns:xlink="http://www.w3.org/1999/xlink"
xmlns:author="http://www.sothink.com"
width="34px" height="35px"
xml:space="preserve">
<g id="1924" transform="matrix(1, 0, 0, 1, 16.6, 12.5)">
<path style="fill:#1E1915;fill-opacity:1" d="M7.25,-0.4Q8.3 0.6 8.5 1.65L8.8 1.8Q9.45 2.1 9.9 2.45Q11.7 4.1 11.95 6.2Q12.1 8.35 10.6 9.9Q8.7 11.95 6.95 12.05L6.8 12.05L6.1 13.35L5.5 13.95L5.7 14.75L5.55 15.7Q5.25 16.25 4.4 16.25Q2.95 16.25 2.95 15.4L3 15.2L2.7 15.25Q1.3 15.35 0.25 14.4L-0.65 13L-0.7 12.8Q-2.55 14.65 -3.95 13.35Q-4.8 12.5 -4.95 11.8L-5.7 11.65L-6.9 10.85Q-7.7 10.1 -7.85 9.05Q-8 7.85 -7.15 6.95L-7 6.8L-7.4 6.45Q-8.25 5.7 -8.2 4.6Q-8.2 3.4 -7.3 2.4Q-6 1.05 -4.1 0.55L-2.35 0.45L-2.35 -0.25Q-2.2 -1.4 -1.55 -2.15Q-0.75 -3 -0.05 -3.05Q0.75 -3.1 1.7 -2.2Q2.9 -1.05 3.2 0.2L3.35 0.05L4.55 -0.9Q6 -1.6 7.25 -0.4M15,10.75L14.85 10.55Q15.2 9.9 15.75 9.9L16.55 10.2Q17.1 10.6 17 11.2L16.15 11.35Q15.55 11.35 15 10.75M-13.95,-10L-13.95 -11Q-14 -11.4 -13.45 -11.95Q-12.85 -12.5 -12 -12.5Q-10.4 -12.5 -9.55 -11.6Q-9 -10.9 -9 -10.25Q-9 -9.75 -10.25 -9.2Q-11.3 -8.7 -11.7 -8.7Q-13.05 -8.7 -13.55 -9.3L-13.95 -10M-16,13.45Q-15.7 13.45 -15.6 13.7L-15.5 14.05L-15.65 14.5L-15.75 14.55L-16 14.55L-16.5 14.3L-16.6 13.9Q-16.6 13.45 -16 13.45M-5.15,21.45L-4.55 21.2L-4.05 21.4L-3.65 21.75L-3.95 22.3L-4.35 22.35Q-4.9 22.35 -5.25 21.95L-5.45 21.75L-5.15 21.45" />
</g>
</svg>
