<?xml version="1.0" encoding="utf-8"?>
<svg version="1.1" id="Layer_1"
xmlns="http://www.w3.org/2000/svg"
xmlns:xlink="http://www.w3.org/1999/xlink"
xmlns:author="http://www.sothink.com"
width="79px" height="20px"
xml:space="preserve">
<g id="720" transform="matrix(1, 0, 0, 1, 4.65, 0)">
<path style="fill:#3A3634;fill-opacity:1" d="M52.9,14.85L52.75 14.85L51.85 15.15L51.4 15.4L47.15 15.6L48.8 14.35Q49.4 12.8 52.15 10.55L53.65 9.45L54.85 8.6L58 6.6Q59.35 6 60.4 5.7L61.6 5.45L61.85 5.45L66.55 1.95L68.3 0.6Q69.35 -0.15 70.8 0.3Q72.2 0.65 73.2 2Q74.2 3.3 74.25 4.85Q74.15 6.25 73.1 7.05L69.8 9.55L67.05 11.6L67 12Q67 12.95 66.25 14.45L66 14.9L63.3 14.95L64.15 13.95L64.4 13.6L63.8 14L62.9 14.45L61.7 14.4L61.5 14.35L61 14.2L59.9 15.05L58 15.1L59.05 14.4L60 13.65L58.95 12.65L58.65 12.25L58.45 11.8L57.8 12.2L55.9 13.65L55.8 13.7L56.05 14L56.75 15.15L53.95 15.25Q53.55 14.9 52.9 14.85M14.8,16.85L15 16.55L14.9 16.5Q14.2 16.05 13.15 15.6L12.8 15.4L12.1 15.05L11.7 16.05L10.9 17.2L11.65 17.6L11.9 17.7L13.4 18.4L11.35 18.6L10 17.85L9.5 18.1L9.35 18.2L8.15 18.4L7.15 18.15L6.55 17.85L7.35 18.65L7.75 19L5.05 19.3L4.75 18.95Q3.8 17.55 3.65 16.65L3.55 16.25L0.9 14.85L-3.1 12.75Q-4.3 12.1 -4.6 10.7Q-4.75 9.2 -4 7.75Q-3.2 6.25 -1.95 5.65Q-0.6 5.05 0.6 5.65L1.1 5.9L7.7 9.4L7.95 9.35Q9.2 9.2 11.35 9.8L11.75 9.9Q13.6 10.5 16.45 12L18.1 12.9L19.45 13.75Q21.35 15.05 22.05 16.15L22.25 16.25Q22.05 16.7 22 17.55L20.05 17.7L19.75 17.55L19.15 17.3L18.2 17.2L18.05 17.2Q17.25 17.35 16.95 18L14.3 18.3L14.8 16.85M61.7,8.5Q60.95 9.1 60.7 9.85L60.6 10.55L60.85 11.25L61.7 11.75L62.15 11.75L62.9 11.65L63.7 11.2L65.9 9.55L70.45 6.15Q71.25 5.55 71.5 4.75Q71.7 4 71.25 3.45Q70.9 2.95 70.2 2.9L70.05 2.85Q69.25 2.85 68.45 3.45L63.2 7.35L61.7 8.5M57.15,11.35Q57.65 11 58.1 10.75L58.05 9.8Q58 8.95 58.35 8.35Q57.65 8.7 56.95 9.2Q55.75 9.95 54.4 11L53.45 11.8L53.05 12.15L53.65 12.3Q54.45 12.5 55.15 13.05L55.35 12.85L57.15 11.35M15.55,15.75L16.85 14.75L17.45 14.55L17.05 14.3L15.95 13.65Q13.45 12.25 11.65 11.65L11.55 11.65Q12.05 12.2 12.15 13.05L12.25 14L13.3 14.45L14.45 15.1L15.3 15.6L15.55 15.75M6.8,15.35L7.65 15.65L8.45 15.65L8.85 15.6L9.65 14.95L9.75 14.15L9.55 13.55Q9.25 12.8 8.4 12.35L6.7 11.45L0.95 8.45L0.2 8.15L-0.75 8.1Q-1.55 8.25 -1.85 8.9Q-2.2 9.5 -1.85 10.2Q-1.55 11 -0.65 11.45L4.35 14.1L6.8 15.35" />
<path style="fill:#ACA49F;fill-opacity:1" d="M62.9,14.45L63.8 14L64.4 13.6L64.15 13.95L63.3 14.95L62.35 15L62.9 14.45M61.3,15L59.9 15.05L61 14.2L61.5 14.35L61.7 14.4L61.3 15M53.95,15.25L51.4 15.4L51.85 15.15L52.75 14.85L52.9 14.85Q53.55 14.9 53.95 15.25M18.05,17.2L18.2 17.2L19.15 17.3L19.75 17.55L20.05 17.7L16.95 18Q17.25 17.35 18.05 17.2M9.35,18.2L9.5 18.1L10 17.85L11.35 18.6L9.8 18.75L9.8 18.7L9.35 18.2M8.8,18.85L7.75 19L7.35 18.65L6.55 17.85L7.15 18.15L8.15 18.4L8.8 18.85M65.5,9.3L65.7 9.15L64.85 8.95Q64.1 8.55 63.3 7.45L63.2 7.35L68.45 3.45Q69.25 2.85 70.05 2.85L70.2 2.9Q70.9 2.95 71.25 3.45Q71.7 4 71.5 4.75Q71.25 5.55 70.45 6.15L65.9 9.55L65.5 9.3M69.7,3.6L69.75 3.65L68.95 3.95L68.6 4.4L69.05 4.65L69.55 4.85L68.75 5.9L67.75 6.85L67.85 6.9L69 6.25L70 5.55L70.1 5.5L70.6 4.95L70.6 5.1L70.7 4.6L70.7 3.95L70.2 3.75L69.7 3.6M55.35,12.85L54.4 11Q55.75 9.95 56.95 9.2Q57.65 8.7 58.35 8.35Q58 8.95 58.05 9.8L58.1 10.75Q57.65 11 57.15 11.35L55.35 12.85M15.65,14.7L15.3 15.6L14.45 15.1L13.3 14.45L12.25 14L12.15 13.05Q12.05 12.2 11.55 11.65L11.65 11.65Q13.45 12.25 15.95 13.65L15.65 14.7M0.25,8.95L-0.35 8.8L-0.8 9L-1.2 9.3L-1.2 9.95L-0.95 10.45L-1 10.3L-0.3 10.8L0.5 11.15L0.85 11.25L2.05 11.7L2.1 11.65L1 10.9L0.45 10.4L0 10L0.35 9.8L0.5 9.7L0.85 9.45L0.45 9L0.25 8.95M6.6,11.6L5.35 13.3Q4.65 13.5 4.5 13.65L4.7 13.75L4.35 14.1L-0.65 11.45Q-1.55 11 -1.85 10.2Q-2.2 9.5 -1.85 8.9Q-1.55 8.25 -0.75 8.1L0.2 8.15L0.95 8.45L6.7 11.45L6.6 11.6" />
<path style="fill:#E0D8D4;fill-opacity:1" d="M62.35,15L61.3 15L61.7 14.4L62.9 14.45L62.35 15M8.15,18.4L9.35 18.2L9.8 18.7L9.8 18.75L8.8 18.85L8.15 18.4M70.2,3.75L70.7 3.95L70.7 4.6L70.6 5.1L70.6 4.95L70.1 5.5L70 5.55L69 6.25L67.85 6.9L67.75 6.85L68.75 5.9L69.55 4.85L69.05 4.65L68.6 4.4L68.95 3.95L69.75 3.65L69.7 3.6L70.2 3.75M0.45,9L0.85 9.45L0.5 9.7L0.35 9.8L0 10L0.45 10.4L1 10.9L2.1 11.65L2.05 11.7L0.85 11.25L0.5 11.15L-0.3 10.8L-1 10.3L-0.95 10.45L-1.2 9.95L-1.2 9.3L-0.8 9L-0.35 8.8L0.25 8.95L0.45 9" />
<path style="fill:#B65E19;fill-opacity:1" d="M69.8,9.55L69.35 14.85L66 14.9L66.25 14.45Q67 12.95 67 12L67.05 11.6L69.8 9.55M3.55,16.25L3.65 16.65Q3.8 17.55 4.75 18.95L5.05 19.3L1.45 19.7L0.9 14.85L3.55 16.25M39.85,4.85L38.05 3.6Q35.8 2.4 33.1 2.55Q30.35 2.7 28.15 4.55L26.95 5.75Q20.25 6.65 12.65 8.1L7.7 9.4L1.1 5.9L5.55 4.75Q12.85 2.95 23.45 1.4Q34.05 -0.2 45.3 0.05Q55 0.2 66.55 1.95L61.85 5.45L61.6 5.45L60.4 5.7L39.85 4.85" />
<path style="fill:#766D67;fill-opacity:1" d="M65.9,9.55L63.7 11.2L62.9 11.65L62.15 11.75L61.7 11.75L60.85 11.25L60.6 10.55L60.7 9.85Q60.95 9.1 61.7 8.5L63.2 7.35L63.3 7.45Q64.1 8.55 64.85 8.95L65.7 9.15L65.5 9.3L65.9 9.55M55.35,12.85L55.15 13.05Q54.45 12.5 53.65 12.3L53.05 12.15L53.45 11.8L54.4 11L55.35 12.85M15.3,15.6L15.65 14.7L15.95 13.65L17.05 14.3L17.45 14.55L16.85 14.75L15.55 15.75L15.3 15.6M4.35,14.1L4.7 13.75L4.5 13.65Q4.65 13.5 5.35 13.3L6.6 11.6L6.7 11.45L8.4 12.35Q9.25 12.8 9.55 13.55L9.75 14.15L9.65 14.95L8.85 15.6L8.45 15.65L7.65 15.65L6.8 15.35L4.35 14.1" />
<path style="fill:#E6BE45;fill-opacity:1" d="M56.9,15.6L56.75 15.15L56.05 14L55.8 13.7L55.9 13.65L57.8 12.2L58.45 11.8L58.65 12.25Q58.55 13.5 57.95 15L57.95 15.1L57.9 15.15L57.3 15.45Q57.15 15.55 57.05 15.6L56.9 15.6M41.75,7.35L42.4 7.3Q49.3 7.15 54.85 8.6L53.65 9.45L52.15 10.55Q49.4 12.8 48.8 14.35L47.15 15.6L47.05 15.7L46 15.7L45.55 14.45Q44.9 13.6 43.45 13.35Q43.5 10.5 41.75 7.35M19.85,13.65L19.45 13.75L18.1 12.9L16.45 12Q13.6 10.5 11.75 9.9L11.35 9.8Q16.15 8.85 21.75 8.4L25.35 8.15L24.8 9.3Q24.2 10.7 23.95 12.9L19.85 13.65M34.7,12.4Q36.55 12.3 31.4 12.3L29.15 12.4L29.35 11.45Q29.55 10.5 30.4 9.6Q31.2 8.6 32.65 8.35L35.1 8.6L36.9 9.9Q37.7 10.75 38.25 13.6L37.25 13.7L36.25 13.8L35.8 13.85L35.25 13.85L34.55 13.95L30.85 14.2Q32.5 13.15 34.7 12.4M11.45,16.5L11.65 17.6L10.9 17.2L11.7 16.05L12.1 15.05L12.8 15.4L13.15 15.6Q12.1 16 11.45 16.5" />
<path style="fill:#FAE49E;fill-opacity:1" d="M57.95,15.1L57.95 15Q58.55 13.5 58.65 12.25L58.95 12.65L60 13.65L59.05 14.4L58 15.1L57.9 15.15L57.95 15.1M60.4,5.7Q59.35 6 58 6.6L54.85 8.6Q49.3 7.15 42.4 7.3L41.75 7.35L41.5 6.9L39.85 4.85L60.4 5.7M12.65,8.1Q20.25 6.65 26.95 5.75Q26 6.8 25.35 8.15L21.75 8.4Q16.15 8.85 11.35 9.8Q9.2 9.2 7.95 9.35L7.7 9.4L12.65 8.1" />
<linearGradient
id="LinearGradID_865" gradientUnits="userSpaceOnUse" gradientTransform="matrix(0.000305176, 0.00360107, -0.00952148, 0.000793457, 33.45, 7.75)" spreadMethod ="pad" x1="-819.2" y1="0" x2="819.2" y2="0" >
<stop  offset="0" style="stop-color:#E9C157;stop-opacity:1" />
<stop  offset="1" style="stop-color:#D98431;stop-opacity:1" />
</linearGradient>
<path style="fill:url(#LinearGradID_865) " d="M37.05,8.25L36.15 7.55Q35.45 7.1 34.6 6.95L31.95 7.05Q31.05 7.35 30.45 7.8Q30 8.1 29.65 8.45Q28.7 9.3 28.45 10.5L28.1 11.65Q27.2 12.85 26.3 12.2Q25.85 11.9 25.9 11L25.95 9.65L26.75 8.2L26.85 8.05L27.15 7.5L28.6 5.9L29.15 5.5Q30.75 4.35 32.7 4.2L36.15 4.45L37.3 4.9L39 6.15L40.1 7.4L40.7 8.25L41.55 9.9L41.5 9.85L40.65 10.9L39.9 10.85Q39.55 10.8 39.05 10.45L38.55 10L38.4 9.9L37.05 8.25M34.7,4.95L34.65 5Q34.4 5 34.35 5.15L34.25 5.25L34.25 5.45Q35.7 7.3 37.9 7.45L38.75 7.45L38.75 7.35Q37.7 5.15 34.9 4.95L34.7 4.95" />
<path style="fill:#7E2504;fill-opacity:1" d="M43.45,13.35Q44.9 13.6 45.55 14.45L46 15.7L44.45 15.75L44 15.05Q42.95 14.5 42.1 14.65L39.05 14.9L34 15.35L29 15.75L28.85 15.8L28.5 15.8L27 15.9L26.75 15.95L26.35 15.95L25.7 16L25.5 16.05L24.7 16.15Q24 16.3 23.6 16.95L23.45 17.4L22 17.55Q22.05 16.7 22.25 16.25L22.45 15.9Q23.1 15.15 23.75 15L23.95 12.9Q24.2 10.7 24.8 9.3L25.35 8.15Q26 6.8 26.95 5.75L28.15 4.55Q30.35 2.7 33.1 2.55Q35.8 2.4 38.05 3.6L39.85 4.85L41.5 6.9L41.75 7.35Q43.5 10.5 43.45 13.35M28.1,11.65L28.45 10.5Q28.7 9.3 29.65 8.45Q30 8.1 30.45 7.8Q31.05 7.35 31.95 7.05L34.6 6.95Q35.45 7.1 36.15 7.55L37.05 8.25L38.4 9.9L38.9 10.8L39.1 11.45L39.6 13.4L41.4 13.3L42.15 13.3L42.3 13.2L42.25 12.7L41.55 9.9L40.7 8.25L40.1 7.4L39 6.15L37.3 4.9L36.15 4.45L32.7 4.2Q30.75 4.35 29.15 5.5L28.6 5.9L27.15 7.5L26.85 8.05L26.75 8.2L25.95 9.65L25.75 10.4L25.75 10.25Q25.25 11.65 25.25 12.4L25.2 12.75L25.1 13.55L25.05 14.15L25 14.65L25.1 14.65L26.1 14.6L27.7 14.45L27.9 12.5L27.9 12.45L28.1 11.65M29.05,14.3L30 14.25L30.85 14.2L34.55 13.95L35.25 13.85L35.8 13.85L36.25 13.8L37.25 13.7L38.25 13.6Q37.7 10.75 36.9 9.9L35.1 8.6L32.65 8.35Q31.2 8.6 30.4 9.6Q29.55 10.5 29.35 11.45L29.15 12.4L29.05 14.3" />
<path style="fill:#C25D1E;fill-opacity:1" d="M42.25,12.7L42.3 13.2L42.15 13.3L41.4 13.3L39.6 13.4L39.1 11.45L38.9 10.8L38.4 9.9L38.55 10L39.05 10.45Q39.55 10.8 39.9 10.85L40.65 10.9L41.5 9.85L41.55 9.9L42.25 12.7M27.9,12.45L27.9 12.5L27.7 14.45L26.1 14.6L25.1 14.65L25 14.65L25.05 14.15L25.1 13.55L25.2 12.75L25.25 12.4Q25.25 11.65 25.75 10.25L25.75 10.4L25.95 9.65L25.9 11Q25.85 11.9 26.3 12.2Q27.2 12.85 28.1 11.65L27.9 12.45" />
<linearGradient
id="LinearGradID_866" gradientUnits="userSpaceOnUse" gradientTransform="matrix(0.000549316, 0.00666809, -0.0129852, 0.00108337, 34.65, 24.7)" spreadMethod ="pad" x1="-819.2" y1="0" x2="819.2" y2="0" >
<stop  offset="0" style="stop-color:#E9C157;stop-opacity:1" />
<stop  offset="1" style="stop-color:#D98431;stop-opacity:1" />
</linearGradient>
<path style="fill:url(#LinearGradID_866) " d="M44.45,15.75L23.45 17.4L23.6 16.95Q24 16.3 24.7 16.15L25.5 16.05L25.7 16L26.35 15.95L26.75 15.95L27 15.9L28.5 15.8L28.85 15.8L29 15.75L34 15.35L39.05 14.9L42.1 14.65Q42.95 14.5 44 15.05L44.45 15.75" />
<path style="fill:#69421E;fill-opacity:1" d="M57.05,15.6L56.9 15.65L56.9 15.6L57.05 15.6" />
<path style="fill:#F7EF9F;fill-opacity:1" d="M34.9,4.95Q37.7 5.15 38.75 7.35L38.75 7.45L37.9 7.45Q35.7 7.3 34.25 5.45L34.25 5.25L34.35 5.15Q34.4 5 34.65 5L34.7 4.95L34.9 4.95" />
<path style="fill:#DE9A2D;fill-opacity:1" d="M14.3,18.3L14.25 18.65L13.75 18.5L13.4 18.4L11.9 17.7L11.65 17.6L11.45 16.5Q12.1 16 13.15 15.6Q14.2 16.05 14.9 16.5L15 16.55L14.8 16.85L14.3 18.3M23.95,12.9L23.75 15Q23.1 15.15 22.45 15.9L22.25 16.25L22.05 16.15Q21.35 15.05 19.45 13.75L19.85 13.65L23.95 12.9M30.85,14.2L30 14.25L29.05 14.3L29.15 12.4L31.4 12.3Q36.55 12.3 34.7 12.4Q32.5 13.15 30.85 14.2" />
</g>
</svg>
