<?xml version="1.0" encoding="utf-8"?>
<svg version="1.1" id="Layer_1"
xmlns="http://www.w3.org/2000/svg"
xmlns:xlink="http://www.w3.org/1999/xlink"
xmlns:author="http://www.sothink.com"
width="46px" height="68px"
xml:space="preserve">
<g id="1435" transform="matrix(1, 0, 0, 1, 0, 0)">
<path style="fill:#544F45;fill-opacity:1" d="M29.4,6L29.35 6L29.35 5.95L29.4 6" />
<path style="fill:#1E1518;fill-opacity:1" d="M42.45,20.6L42.25 20.05L41.15 17.2L39 13.4L38.15 12.9Q36.8 12.15 35.25 11.5L33.8 10.95L32.8 10.65L29.4 9.8L25.5 10.55L23.5 11.15Q25.05 12.9 25.8 15.05L25.95 15.05Q32 16.95 33.9 21.5Q34.7 23.4 34.8 25.8Q38.6 23.4 42.75 21.45L42.45 20.6M44.05,21.25Q45.3 26.15 45.65 30.75L45.75 32.7L45.6 33.65L44.65 34.7L44.3 34.9Q40.45 38.65 35.05 42.3L34.45 42.7Q33.55 43.25 32.65 43.6Q33.05 45.15 32.45 47.2L32 48.6L31.95 48.75L30.95 50.95Q29.6 53.25 27.6 54.55L23.7 56.7L23.7 57.45L23.65 57.75Q22.55 64.55 15.6 67.1Q10.55 66.05 8.35 65.25L5.25 64.05L0.95 55.55Q-0.65 52.2 0.5 50.75Q2.15 48.65 3.95 47.15Q1.9 45 1.2 43.2Q0.5 41.3 0.6 40.65L1 39.05Q1.3 37.9 1.9 36.95Q2.4 36 3.2 35.2L2.7 34Q2.2 32.9 2.3 31.85L2.3 31.7L2.35 31.4Q2.5 28.15 5.3 27.15Q5.8 25.5 6.5 24.15L7.25 22.85L7.7 22.15Q8.7 20.8 10.05 19.75L8.65 18.7L8.45 18.55L7.45 17.45L7.2 16.85L6.65 14.55Q6.25 12.15 6.65 10.1L6.75 9.55Q7.45 6.2 9.9 5.15Q11.65 4.95 15.8 6.05L16.05 6.15L16.1 6.1Q17.45 2.85 20.2 1.8L23.2 0.75L23.25 0.75L24.9 0.35L28.35 0Q29.75 -0.05 33.55 2.05Q37.3 4.1 39.6 7.35Q40.35 10.7 40 12.75L41.35 15.05L43.35 19.35L44 21.05L44.05 21.25M44.8,32.1Q44.7 29.8 44.1 26.85L43.05 22.95Q37.85 24.9 34.85 26.9L34.45 28.5L34.35 28.75L33.95 30.1Q33.8 30.5 34.2 30.9L35.65 31.85L40.7 32.25L44.75 32.1L44.8 32.1M28,1.2L25.15 1.45L23.25 1.7Q27.3 4.3 28.2 5.3Q29.1 6.25 29.4 6.15L34.85 6.25L37.4 6.25L37 5.85Q34.35 3.5 32 2.4Q29.4 1.2 28.8 1.2L28 1.2M39.05,12.25Q39 9.65 38.4 7.45Q33.9 7.1 29.9 7.3L30 8.45L30 8.55L30.1 8.8L30.2 8.85L33.5 9.75Q35.35 10.25 37.75 11.55L39.05 12.25M21.9,2.2Q18.3 3.35 17.55 6.5L17.5 6.7L19.85 8.1L21.75 9.5L22.9 10.5Q24.8 9.5 26.95 9.05L28.7 8.8L28.75 7.15Q27.6 6 25.9 4.7L23.35 2.95L21.9 2.2M17.8,8.3Q16.45 7.5 15.45 7.2L13.45 6.65L13.3 9.1L13.35 10.5L13.45 11.15Q13.7 12.65 13.45 13.05L12.95 13.55L11.75 14.55Q10.5 15.5 8.8 16.25L8.2 16.45Q8.75 17.5 9.8 18.25L11.15 18.95Q13.4 17.4 16.9 16.35Q20.35 15.3 24.55 15.05Q23.75 13.35 22.95 12.3L22.9 12L22.5 11.4L21.9 11.15L20.6 10.1L20.4 9.95L20.2 9.8L19.05 9.05L17.8 8.3M8.35,23.5L7.9 24.2L7.5 24.95Q5.95 27.8 6.25 28.5L7.35 30.05L9 31.95L10.6 33.75L13 35.75Q14.65 36.85 18.65 37.05Q22.65 37.25 24.6 37L25.45 36.9L21.25 33.15L20.45 32.45L19.05 31.5L18.55 31.2Q17.85 28.3 18.55 26.6L18.6 26.4L18.8 26.3L19.9 25.55L26.25 21L27.1 20.25L27.75 19.7L27.8 19.7L27.8 19.75L27.35 20.7Q25.8 23.35 21.95 25.35L21 25.8Q20.5 26.05 20.25 26.25L19.85 26.5Q19.35 27.4 19.3 28.6L19.4 30.45L21.55 31.9Q23.75 33.45 25.1 35L26.2 36.45Q26.45 36.6 27.85 35.85L29.3 34.75L30.85 33.1Q32.25 31.35 33 29.15L33.15 28.5L33.85 24.95L33.2 22.65L32.85 21.85L32.1 20.6Q30.7 18.7 28.9 17.6Q27.1 16.5 25.75 16.4L19.1 16.85Q15.75 17.6 13.9 18.6Q12 19.55 11.9 19.75L11.2 20.3L11.25 20.25L10.4 21Q9.25 22.1 8.35 23.5M7.55,12.75L7.6 13.55L7.9 15.4L10.25 14.2L12.45 12.65L12.25 9.3L12.25 9.15L12.25 9.05Q12.3 7.5 12.65 6.55L10 6.25Q7.9 7.4 7.6 10.15Q7.5 11.05 7.55 12.45L7.55 12.75M3.2,32.05L3.3 32.75Q3.5 33.75 4.1 34.5L6.55 36.8L9.35 39.05L11.15 40.3Q11.55 40.6 14.4 42.1Q18.85 44.5 22.4 44.4Q25.9 44.3 27.6 43.3L27.75 42.45Q27.95 41.5 27.75 40.6L27.75 40.4L27.5 39.7L27.35 39.35Q26.6 37.85 26.25 38.1L21.15 38.35L15.55 37.75Q11.9 37.05 10 34.75L6.8 30.9Q5.5 29.35 5.35 28.55L4.5 29.2Q3.35 30.25 3.25 31.4Q3.15 31.7 3.2 32.05M24.95,54.55Q27.9 52.85 29.85 50.75L30.55 49.1L30.6 49L31.1 47.3Q31.55 45.5 31.5 44.1L28.1 44.8Q22.15 46.8 16.05 44.1Q9.95 41.35 9.5 40.8Q7.6 38.6 5.1 36.95L3.95 36.1L2.95 37.8L1.75 40.65L1.55 41.3Q2.6 43.85 4.8 46.35Q6.35 45.45 8.5 44.85Q10.2 44.35 8.75 45.45L8.3 45.75L7.7 46.15Q4.75 48.05 1.1 51.55Q0.95 52.9 2.3 55.75L5.7 63L11.3 64.9L15.85 65.85Q19.15 64.6 20.9 61.85Q22.3 59.6 22.35 58L22.3 57.3L21 57.7L19.4 58.15Q19.1 58.2 19.65 57.85L20.5 57.25L21.3 56.75L24.95 54.55M31.15,34.75Q29.65 36.3 27.65 37.55Q28.4 38.65 28.7 40L28.85 41.35L28.75 42.7Q28.65 43.3 30.4 43.1Q31.9 42.85 34.8 41.05L35.85 40.35Q39.5 37.85 44.2 33.4L36.2 33.05Q34.3 32.7 33.4 31.75L31.15 34.75" />
<path style="fill:#382B30;fill-opacity:1" d="M42.75,21.45Q38.6 23.4 34.8 25.8Q34.7 23.4 33.9 21.5Q32 16.95 25.95 15.05L25.8 15.05Q25.05 12.9 23.5 11.15L25.5 10.55L26.65 11.05L27.95 11.85L31.6 12.35Q30.2 13.9 33.7 13.15L34.15 12.85L35.3 13.25Q39.2 15.05 40.55 20.7L40.65 21.05L42.45 20.6L42.75 21.45M44.75,32.1L40.7 32.25L35.65 31.85L34.2 30.9Q33.8 30.5 33.95 30.1L34.35 28.75L34.45 28.5L34.85 26.9Q37.85 24.9 43.05 22.95L44.1 26.85Q44.7 29.8 44.8 32.1L44.75 32.1M32.4,4Q32.1 3.15 31.2 3.15L31.2 3.1Q30.45 4.25 30.35 4.75Q30.25 5.3 31.1 4.9L32.4 4.1L32.4 4M37.4,6.25L34.85 6.25L29.4 6.15Q29.1 6.25 28.2 5.3Q27.3 4.3 23.25 1.7L25.15 1.45L28 1.2Q29.5 1.7 30.95 2.6Q33.3 4.1 34.6 5.85L37 5.85L37.4 6.25M37.75,11.55Q35.35 10.25 33.5 9.75L30.2 8.85L30.1 8.8L30 8.55L30 8.45L29.9 7.3Q33.9 7.1 38.4 7.45Q39 9.65 39.05 12.25L37.75 11.55M29.35,5.95L29.35 6L29.4 6L29.35 5.95M23.35,2.95L25.9 4.7Q27.6 6 28.75 7.15L28.7 8.8L26.95 9.05Q24.8 9.5 22.9 10.5L21.75 9.5L19.85 8.1L17.5 6.7L17.55 6.5Q18.3 3.35 21.9 2.2L23.35 2.95M14.2,13.35L14.45 9.6L15.4 9.55L15.7 8.85L18.8 9.55L19.05 9.05L20.2 9.8L20.4 9.95L20.6 10.1L21.9 11.15L22.5 11.4L22.9 12L22.95 12.3Q23.75 13.35 24.55 15.05Q20.35 15.3 16.9 16.35Q13.4 17.4 11.15 18.95L9.8 18.25Q8.75 17.5 8.2 16.45L8.8 16.25Q10.5 15.5 11.75 14.55L12.95 13.55L14.2 13.35M29.75,20.65L31.75 22.3Q32.6 23.3 32.85 24.5L33.2 22.65L33.85 24.95L33.15 28.5L33 29.15Q32.25 31.35 30.85 33.1L29.3 34.75L27.85 35.85Q26.45 36.6 26.2 36.45L25.1 35Q23.75 33.45 21.55 31.9L19.4 30.45L19.3 28.6Q19.35 27.4 19.85 26.5L20.25 26.25Q20.5 26.05 21 25.8L21.95 25.35Q25.8 23.35 27.35 20.7L27.8 19.75L29.75 20.65M27.75,19.7L27.1 20.25L26.25 21L19.9 25.55L18.8 26.3L18.6 26.4L18.55 26.6Q17.85 28.3 18.55 31.2L19.05 31.5L20.45 32.45L21.25 33.15L25.45 36.9L24.6 37Q22.65 37.25 18.65 37.05Q14.65 36.85 13 35.75L10.6 33.75L9 31.95L7.35 30.05L6.25 28.5Q5.95 27.8 7.5 24.95L7.9 24.2L8.35 23.5Q9.25 22.1 10.4 21Q14 18.9 18.8 18.65L21.85 18.75L22.15 18.65Q25.35 18.85 27.75 19.7M12.25,9.05L12.25 9.15L12.25 9.3L12.45 12.65L10.25 14.2L7.9 15.4L7.6 13.55L7.55 12.75L7.55 12.45Q7.8 11.35 8.4 10.2L8.75 9.55Q7.95 11.2 10.65 9.35L10.65 9.25Q10.35 8.4 9.5 8.4Q10.15 7.6 10.8 7.6Q11.2 7.6 12.05 8.75L12.25 9.05M15.7,9.1Q13.5 12.45 16.9 10.1L16.9 10Q16.6 9.15 15.7 9.15L15.7 9.1M17.75,21.35Q18.4 20.85 17.45 20.3L16.95 20.1Q14.4 24 17.75 21.35M27.5,39.7L27.75 40.4L27.75 40.6Q27.95 41.5 27.75 42.45L27.6 43.3Q25.9 44.3 22.4 44.4Q18.85 44.5 14.4 42.1Q11.55 40.6 11.15 40.3L9.35 39.05L6.55 36.8L4.1 34.5Q3.5 33.75 3.3 32.75L3.2 32.05Q3.15 31.7 3.25 31.4L3.55 31.35Q4.65 31.35 6.55 33.35L8.45 35.6Q9.85 36.85 11.4 37.6L14.7 38.85L23.65 39.45L27.5 39.7M27.8,49.65Q26.8 52.25 24.7 53.3Q22.15 54.55 21.3 56.75L20.5 57.25L19.65 57.85Q19.1 58.2 19.4 58.15L21 57.7L22.3 57.3L22.35 58Q22.3 59.6 20.9 61.85Q19.15 64.6 15.85 65.85L11.3 64.9L5.7 63L2.3 55.75Q0.95 52.9 1.1 51.55Q4.75 48.05 7.7 46.15L8.3 45.75L8.75 45.45Q10.2 44.35 8.5 44.85Q6.35 45.45 4.8 46.35Q2.6 43.85 1.55 41.3L1.75 40.65L2.95 37.8L3.95 36.1L5.1 36.95Q7.6 38.6 9.5 40.8Q9.95 41.35 16.05 44.1Q22.15 46.8 28.1 44.8L31.5 44.1Q31.55 45.5 31.1 47.3L30.6 49L27.8 49.65M33.4,31.75Q34.3 32.7 36.2 33.05L44.2 33.4Q39.5 37.85 35.85 40.35L34.8 41.05Q31.9 42.85 30.4 43.1Q28.65 43.3 28.75 42.7L28.85 41.35L28.7 40Q28.4 38.65 27.65 37.55Q29.65 36.3 31.15 34.75L33.4 31.75M24.2,51.85Q21.75 55.25 24.8 52.6Q25.5 52 24.2 51.85" />
<path style="fill:#4A4044;fill-opacity:1" d="M29.4,9.8L32.8 10.65L33.8 10.95L35.25 11.5Q36.8 12.15 38.15 12.9L39 13.4L41.15 17.2L42.25 20.05L42.45 20.6L40.65 21.05L40.55 20.7Q39.2 15.05 35.3 13.25L34.15 12.85L33.7 13.15Q30.2 13.9 31.6 12.35L27.95 11.85L26.65 11.05L25.5 10.55L29.4 9.8M32.4,4.1L31.1 4.9Q30.25 5.3 30.35 4.75Q30.45 4.25 31.2 3.1L31.2 3.15Q32.1 3.15 32.4 4L32.4 4.1M28.8,1.2Q29.4 1.2 32 2.4Q34.35 3.5 37 5.85L34.6 5.85Q33.3 4.1 30.95 2.6Q29.5 1.7 28 1.2L28.8 1.2M12.95,13.55L13.45 13.05Q13.7 12.65 13.45 11.15L13.35 10.5L13.3 9.1L13.45 6.65L15.45 7.2Q16.45 7.5 17.8 8.3L19.05 9.05L18.8 9.55L15.7 8.85L15.4 9.55L14.45 9.6L14.2 13.35L12.95 13.55M27.8,19.75L27.8 19.7L27.75 19.7Q25.35 18.85 22.15 18.65L21.85 18.75L18.8 18.65Q14 18.9 10.4 21L11.25 20.25L11.2 20.3L11.9 19.75Q12 19.55 13.9 18.6Q15.75 17.6 19.1 16.85L25.75 16.4Q27.1 16.5 28.9 17.6Q30.7 18.7 32.1 20.6L32.85 21.85L33.2 22.65L32.85 24.5Q32.6 23.3 31.75 22.3L29.75 20.65L27.8 19.75M12.05,8.75Q11.2 7.6 10.8 7.6Q10.15 7.6 9.5 8.4Q10.35 8.4 10.65 9.25L10.65 9.35Q7.95 11.2 8.75 9.55L8.4 10.2Q7.8 11.35 7.55 12.45Q7.5 11.05 7.6 10.15Q7.9 7.4 10 6.25L12.65 6.55Q12.3 7.5 12.25 9.05L12.05 8.75M15.7,9.15Q16.6 9.15 16.9 10L16.9 10.1Q13.5 12.45 15.7 9.1L15.7 9.15M16.95,20.1L17.45 20.3Q18.4 20.85 17.75 21.35Q14.4 24 16.95 20.1M23.65,39.45L14.7 38.85L11.4 37.6Q9.85 36.85 8.45 35.6L6.55 33.35Q4.65 31.35 3.55 31.35L3.25 31.4Q3.35 30.25 4.5 29.2L5.35 28.55Q5.5 29.35 6.8 30.9L10 34.75Q11.9 37.05 15.55 37.75L21.15 38.35L26.25 38.1Q26.6 37.85 27.35 39.35L27.5 39.7L23.65 39.45M30.6,49L30.55 49.1L29.85 50.75Q27.9 52.85 24.95 54.55L21.3 56.75Q22.15 54.55 24.7 53.3Q26.8 52.25 27.8 49.65L30.6 49M24.8,52.6Q21.75 55.25 24.2 51.85Q25.5 52 24.8 52.6" />
</g>
</svg>
