<?xml version="1.0" encoding="utf-8"?>
<svg version="1.1" id="Layer_1"
xmlns="http://www.w3.org/2000/svg"
xmlns:xlink="http://www.w3.org/1999/xlink"
xmlns:author="http://www.sothink.com"
width="39px" height="48px"
xml:space="preserve">
<g id="95" transform="matrix(1, 0, 0, 1, -27.6, -1.55)">
<path style="fill:#9A330C;fill-opacity:1" d="M35,48.55Q36.3 48.15 36.55 46.5Q33.35 45.05 31.95 41.8Q30.45 38.8 30.6 35.1L30.65 34.2Q30.75 32.7 31.15 31.3Q31.8 29.3 33.25 27.95L33.45 27.7Q35.8 25.45 40 25L47.85 24L49.25 23.75L49.35 23.7L52.25 22.95Q54.65 22.2 57.55 20.1Q60.45 18 62.35 15.35Q65.75 10.65 65.55 7.1L65.45 6.2Q64.8 3.1 63.85 3.15Q63.6 3.15 63.35 3.45Q63.65 8.7 62.1 12.3Q60.5 16 56.95 18.25Q53.45 20.5 50.65 21.15L48.8 21.55L42.75 22.35L41.4 22.5Q39.1 22.75 37.1 23.5Q33.55 24.85 31.1 27.9L30.65 28.5L30.6 28.55Q28.45 31.6 28.4 35.55Q28.4 37.5 28.9 39.7Q29.45 42.25 30.55 44.2Q32.2 47.25 35 48.55M65.85,10.8Q64.9 13.95 62.65 16.65L58.65 20.55L54.85 22.9Q52.8 23.95 50.6 24.45L49.45 24.7L45.45 25.35L40.15 25.95Q37.8 26.2 36 27.2Q34.1 28.1 33 29.75Q32 31.1 31.6 33.5L31.55 33.85L31.4 34.95Q31.35 37.05 31.95 39.25Q32.55 41.7 33.95 43.4Q35.2 44.8 37.35 45.95L37.5 45.95Q37.75 47 36.6 48.65Q35.2 50.05 34 49Q29.7 46.85 28.4 41.8L28.05 40.3Q27.6 37.85 27.6 35.7Q27.65 31.7 29.25 28.8Q29.7 27.85 30.3 27.1Q31.65 25.45 33.75 24.15Q37.9 21.75 44.85 21.2Q53.4 20.65 58.45 16Q63.3 11.45 62.35 4.1Q62.2 1.6 62.95 1.55L64.7 1.8Q65.7 2.2 66.3 4.9Q66.85 7.6 65.85 10.8" />
<path style="fill:#EEBB3D;fill-opacity:1" d="M58.15,18.8L56 20.25Q51.5 22.85 47.05 23.25L41.6 23.8L37.55 24.5Q28.85 27.95 29.5 36.7Q29.8 41.05 31.85 44.75Q31.85 45.5 30.55 44.2Q29.45 42.25 28.9 39.7Q28.4 37.5 28.4 35.55Q28.45 31.6 30.6 28.55L30.65 28.5L31.1 27.9Q33.55 24.85 37.1 23.5Q39.1 22.75 41.4 22.5L42.75 22.35L48.8 21.55L50.65 21.15Q53.45 20.5 56.95 18.25Q60.5 16 62.1 12.3Q63.65 8.7 63.35 3.45Q63.6 3.15 63.85 3.15Q66.3 12.4 58.15 18.8" />
<path style="fill:#EC491C;fill-opacity:1" d="M30.55,44.2Q31.85 45.5 31.85 44.75Q29.8 41.05 29.5 36.7Q28.85 27.95 37.55 24.5L41.6 23.8L47.05 23.25Q51.5 22.85 56 20.25L58.15 18.8Q66.3 12.4 63.85 3.15Q64.8 3.1 65.45 6.2L65.55 7.1Q65.75 10.65 62.35 15.35Q60.45 18 57.55 20.1Q54.65 22.2 52.25 22.95L49.35 23.7L49.25 23.75L47.85 24L40 25Q35.8 25.45 33.45 27.7L33.25 27.95Q31.8 29.3 31.15 31.3Q30.75 32.7 30.65 34.2L30.6 35.1Q30.45 38.8 31.95 41.8Q33.35 45.05 36.55 46.5Q36.3 48.15 35 48.55Q32.2 47.25 30.55 44.2" />
</g>
</svg>
