<?xml version="1.0" encoding="utf-8"?>
<svg version="1.1" id="Layer_1"
xmlns="http://www.w3.org/2000/svg"
xmlns:xlink="http://www.w3.org/1999/xlink"
xmlns:author="http://www.sothink.com"
width="168px" height="142px"
xml:space="preserve">
<g id="3114" transform="matrix(1, 0, 0, 1, 50.35, 48.65)">
<path style="fill:#872EBD;fill-opacity:1" d="M21,-37.5Q31.4 -42 43 -42Q56.85 -42 65.5 -34Q68.3 -31.45 70 -28.8Q68.65 -26 67 -23.5Q59.35 -12 47.75 -12Q33.6 -12 24 -17.5Q14.5 -23 14.5 -31Q14.5 -32.6 14.75 -34.05Q17.3 -35.9 21 -37.5M74.05,-2.45L76 -4Q75.65 1.3 72 6Q65.4 14.5 50.5 14.5Q42.55 14.5 39 11Q36 8.05 36 2.5L36.05 1.9Q35.35 2.9 34.9 4L34 7Q30.1 18.5 20.25 18.5Q4.3 18.5 -3.15 4.5Q-4.7 1.6 -5.65 -1.2Q-6.5 3.95 -11 8Q-17.15 13.5 -27.25 13.5Q-32.8 13.5 -36.85 8.65Q-35.35 -9.5 -18.75 -9.5Q-14 -9.5 -10.15 -7.45L-6.85 -5.35L-5.5 -4.55L-4.65 -4.1L-3.6 -5.4Q2.35 -12.5 10.95 -14.05L10.55 -14.95Q19.9 -14.3 30.75 -7.1Q33.7 -5.15 35.95 -3.3L36.45 -2.85L38.45 -1.05Q40.95 -3.6 44.9 -5.4Q52.85 -9 65 -9L67.55 -8.75Q71.15 -6.4 74.05 -2.45M94.5,21.5Q85.95 21.5 81.5 16.45Q77 11.4 77 1.75L77.5 -4.05L77.6 -5.05L78.75 -5.65Q82.6 -7.5 87.25 -7.5L91.05 -7.2Q95.95 -5.8 99.55 -0.7Q103.5 4.85 103.5 12Q103.55 15.65 102.45 19.05Q99.05 21.5 94.5 21.5M-22.85,62.85Q-22.1 56.2 -17.5 52.5Q-14.2 49.9 -9.3 49L-5.55 49.65Q1.9 51.05 8.45 53.35Q13.85 55.25 17.85 57.5L16.85 57.45Q18.55 59.65 19.7 62.35Q20.7 64.8 21.15 67.4Q19.4 72.6 15.9 76.15Q10.15 82 1.25 82Q-7.2 82 -14 77.5Q-21.85 72.3 -22.85 62.85M80.9,61.4Q80.4 65.9 78 70Q73.4 78 63.75 78Q59.25 78 56.25 76.65Q56 75.05 56 73.25Q56 68.25 58.5 64Q61.75 58.5 67.75 58.5L70.55 58.65L72.15 58.8L72.25 58.8L77.55 59.4Q79.5 60 80.9 61.4M60.5,23.5Q62.5 26.15 62.5 30Q62.5 37.15 56 41Q50.85 44 44 44Q35.8 44 33 38Q31.75 35.35 31.55 30.35L31.5 29.75L31.55 29.45Q31.85 26.65 38 23.5Q44.9 20 52.5 20Q57.9 20 60.5 23.5M15.25,20.9L18.15 23.05Q23.5 27.9 23.5 36.25Q23.5 42 21.5 45Q18.8 49 12.25 49Q7.35 49 1 45Q-7 40 -7 32.75Q-7 26.35 -2.5 23Q1.5 20 8.25 20L12.3 20.5L15.25 20.9" />
<path style="fill:#621B8E;fill-opacity:1" d="M72.5,-20.75Q72.5 -17.45 70.6 -14.55Q69.05 -12.15 65.95 -9.65L67.55 -8.75L65 -9Q52.85 -9 44.9 -5.4Q40.95 -3.6 38.45 -1.05L36.45 -2.85L35.95 -3.3Q33.7 -5.15 30.75 -7.1Q19.9 -14.3 10.55 -14.95Q9 -18.7 9 -24.5Q9 -29.9 14.75 -34.05Q14.5 -32.6 14.5 -31Q14.5 -23 24 -17.5Q33.6 -12 47.75 -12Q59.35 -12 67 -23.5Q68.65 -26 70 -28.8Q72.5 -24.85 72.5 -20.75M-9.3,49L-3.75 48.5L-3.6 48.5L-4 48Q-8.65 42.05 -9.35 33.5Q-15.1 35.5 -17.5 35.5Q-27.55 35.5 -32.5 29Q-37 23.15 -37 12.5L-36.85 8.65Q-32.8 13.5 -27.25 13.5Q-17.15 13.5 -11 8Q-6.5 3.95 -5.65 -1.2Q-4.7 1.6 -3.15 4.5Q4.3 18.5 20.25 18.5Q30.1 18.5 34 7L34.9 4Q35.35 2.9 36.05 1.9L36 2.5Q36 8.05 39 11Q42.55 14.5 50.5 14.5Q65.4 14.5 72 6Q75.65 1.3 76 -4L77.6 -5.05L77.5 -4.05L77 1.75Q77 11.4 81.5 16.45Q85.95 21.5 94.5 21.5Q99.05 21.5 102.45 19.05L101.5 21.5Q97.45 30.5 86.75 30.5Q80.15 30.5 75.5 28Q72.75 26.5 70.95 24.25L68.65 25.2Q70 28.15 70 32.5Q70 39.55 64.5 44.5Q58.4 50 48.25 50Q39.65 50 35.65 46.8Q34.9 46.2 34.05 45.25Q33.15 48.55 31.45 51.15Q28.3 56 22.95 57.15L19.5 57.5L17.85 57.5Q13.85 55.25 8.45 53.35Q1.9 51.05 -5.55 49.65L-9.3 49M-14,77.5Q-7.2 82 1.25 82Q10.15 82 15.9 76.15Q19.4 72.6 21.15 67.4Q21.5 69.4 21.5 71.5L21.15 74.9Q20.55 78.95 19 82.3Q14.15 93 2.25 93Q-5.75 93 -13 87.5Q-23 79.9 -23 65.5L-22.85 62.85Q-21.85 72.3 -14 77.5M63.75,78Q73.4 78 78 70Q80.4 65.9 80.9 61.4L81.45 62Q84 64.95 84 69.75Q84 76.35 79.5 81.5Q74.65 87 67.5 87Q61.9 87 59 83.5Q56.8 80.95 56.25 76.65Q59.25 78 63.75 78M52.5,20Q44.9 20 38 23.5Q31.85 26.65 31.55 29.45L31.5 29.75L31.55 30.35Q31.75 35.35 33 38Q35.8 44 44 44Q50.85 44 56 41Q62.5 37.15 62.5 30Q62.5 26.15 60.5 23.5Q57.9 20 52.5 20M12.3,20.5L8.25 20Q1.5 20 -2.5 23Q-7 26.35 -7 32.75Q-7 40 1 45Q7.35 49 12.25 49Q18.8 49 21.5 45Q23.5 42 23.5 36.25Q23.5 27.9 18.15 23.05L15.25 20.9L12.3 20.5" />
<path style="fill:#F079FF;fill-opacity:1" d="M28.6,-34.35L28.7 -34.15Q29.2 -33.05 28.95 -31.4Q28.7 -29.7 26.45 -29.05L25.6 -28.85L23.6 -28.55Q23.3 -28.6 22.85 -28.85L21.65 -29.5Q20.2 -30.25 20.15 -31.9Q20.05 -33.3 21.7 -34.35L22.35 -34.7Q24.05 -35.65 26.1 -35.45Q28 -35.3 28.6 -34.35M35.5,-3.05Q33.6 -6.1 30.5 -6.1Q28.5 -6.1 26.2 -4.55Q23.5 -2.8 23.05 0.05L22.85 -0.25Q22.35 -1.25 22.35 -2.45Q22.35 -4.85 25.25 -7.25Q28.15 -9.7 31.2 -9.7L34.05 -9.35L34.6 -9Q36.85 -7.4 36.85 -4.35L36.65 -2.1L36.4 -1.3L35.5 -3.05M72.95,-47.65L74 -48.3Q76.7 -49.25 79.75 -47.7Q82.55 -46.25 82.55 -43.65L82.55 -43.4L80.9 -42.4Q79.45 -41.6 76.55 -42.9Q73.65 -44.15 73.35 -45.7L72.95 -47.65M78.95,-7.8Q79.65 -7.3 79.45 -5.7Q79.25 -4.1 77.4 -3.95L75.65 -4L74.8 -4.25Q74 -4.6 74 -5.85Q74 -7.05 74.5 -8Q74.9 -8.75 75.65 -8.8L75.95 -8.8L77.4 -8.7L78.95 -7.8M99.6,39.25Q101.65 37.85 106.7 29.9Q111.7 21.95 109.4 13.35Q107.1 4.8 106.25 3.95Q103.4 -1.2 101.5 -3.65Q96.65 -9.6 90.9 -12.05Q91.75 -12.65 93.45 -13.15L93.75 -13.25Q97.65 -14.35 102.6 -11.4Q105.95 -9.3 107.85 -7L111.05 -3.35Q112.3 -1.9 114 1.8L115.7 6.1L116.65 10Q117.6 14.4 116.9 19.85Q116.3 23.15 114.55 26.75Q113.3 29.3 111.5 32.05L108.3 36.35Q99.9 43.55 95.6 41.85L99.6 39.25M50.05,18.25Q51.2 17.25 52.9 17.25Q53.75 17.25 55.3 18.05L56 18.6L57.25 20.45Q58.05 22.05 58.2 23.7L58.2 26.05L58.2 26.15L56.3 25.65Q53.9 25.25 52.3 22.75Q50.75 20.45 49.35 20.45L48.55 20.7Q49 19.15 50.05 18.25M4.9,26.8Q2.9 28.15 1.4 28.15Q-1.95 28.15 -4.65 23.65Q-6.1 21.2 -6.7 20.5Q-8 19.1 -9.6 19.1Q-11.5 19.1 -13.2 20.2L-13.35 20.25L-13.2 19.4Q-12.75 17.15 -11.6 15.6L-10.6 14.5Q-7.95 12 -3 12Q0.45 12 2.3 13.25L2.55 13.45L2.6 13.4L3 13.75L4.65 15.6L5.3 16.45Q6.85 18.5 7.55 22.8L7.85 25.5Q6.85 25.55 4.9 26.8M33.55,56.45L33.15 57.55Q32.3 59.1 29.8 59.1L27.7 58.75Q25.85 58.1 25.85 56.2Q25.85 53.9 26.9 53.1L28.1 52.15L28.6 51.9L29.5 51.75Q30.1 51.55 30.8 51.75Q31.75 52 32.5 52.85Q33.65 54.1 33.65 55.3L33.55 56.45M26.9,54.95Q26.9 56.3 28.5 56.3Q29.3 56.3 29.75 55.35L30.05 53.95L29.7 53L29.6 52.85L28.15 53.15Q26.9 54.05 26.9 54.95M71.45,52.4Q71.75 53 71.6 53.95Q71.45 54.95 70.15 55.3L69.7 55.4L68.55 55.6L68.1 55.4L67.45 55.05Q66.6 54.6 66.6 53.7Q66.5 52.9 67.45 52.3L67.85 52.1Q68.8 51.55 69.95 51.65Q71.05 51.75 71.4 52.3L71.45 52.4M58.85,79.55Q59.95 80.7 59.4 82.45Q58.75 84.2 57.65 85.05Q56.5 85.95 55.45 85.5Q54.35 85.15 53.75 84.15Q53.1 83.25 52.8 81.6L53.35 80.15Q53.85 79.5 54.5 79.1Q56.1 78.2 57.5 78.65Q58.35 79 58.85 79.55M-14.7,-28.4Q-18.35 -27.3 -19.6 -29.15Q-20.85 -31.1 -19.7 -33.25Q-18.35 -34.55 -16.75 -35.1Q-14.2 -36 -12.7 -34.8Q-11.25 -33.6 -10.85 -32.35L-10.5 -30.65L-10.5 -30.6Q-11.1 -29.5 -14.7 -28.4M-19.45,76.6L-22.5 74.9L-22.6 74.8L-32.45 69.5Q-36.75 67.15 -41 58.9L-41.9 57.05Q-46.65 47.2 -46.45 38.45Q-46.35 29.65 -42.1 24.6Q-40.2 22.35 -38.4 21.4L-36.45 20.7Q-35 21 -38.35 30.85Q-39.95 38.25 -38.55 45.8Q-37.7 50.75 -35.45 55L-32.9 58.85Q-28.55 64.4 -24.45 68.8L-22.1 71.25Q-20.05 73.55 -19.55 74.5Q-18.75 75.75 -19.45 76.6M-4.65,75.2Q-4.15 75.6 -3.95 76.35Q-3.85 77.1 -4.3 77.7L-5.3 78.5Q-5.95 78.75 -6.85 78.5Q-7.75 78.25 -8.1 77.55Q-8.4 76.85 -7.75 75.7Q-7.25 74.55 -5.7 74.75Q-5.1 74.8 -4.65 75.2" />
<path style="fill:#DB2AF0;fill-opacity:1" d="M23.05,0.05Q23.5 -2.8 26.2 -4.55Q28.5 -6.1 30.5 -6.1Q33.6 -6.1 35.5 -3.05L36.4 -1.3L35.05 1.05Q33.75 3 30.7 3.15Q27.65 3.25 25.4 2.1Q23.8 1.25 23.05 0.05M73.35,-45.7Q73.65 -44.15 76.55 -42.9Q79.45 -41.6 80.9 -42.4L82.55 -43.4Q82.5 -42.1 81.1 -40.4Q79.65 -38.75 77.85 -38.5Q76.05 -38.2 73.45 -39.55Q70.9 -40.85 71.65 -45.4Q72.1 -46.9 72.95 -47.65L73.35 -45.7M90.9,-12.05Q96.65 -9.6 101.5 -3.65Q103.4 -1.2 106.25 3.95Q107.1 4.8 109.4 13.35Q111.7 21.95 106.7 29.9Q101.65 37.85 99.6 39.25L95.6 41.85L95.75 41.7L95.6 41.65Q95.5 41.4 96.45 40.4L102.45 29.9Q107.35 20.7 102.85 8.95Q98.35 -2.45 91.45 -8.05L89.9 -9.25L89.85 -9.5Q89.45 -10.7 90.25 -11.45L90.9 -12.05M57.2,28.35Q56.3 29.95 54.6 30.45L53.65 30.5Q51.95 30.5 50.4 29.15Q48.25 27.15 48.25 23.2Q48.25 21.8 48.55 20.7L49.35 20.45Q50.75 20.45 52.3 22.75Q53.9 25.25 56.3 25.65L58.2 26.15L57.2 28.35M-13.35,20.25L-13.2 20.2Q-11.5 19.1 -9.6 19.1Q-8 19.1 -6.7 20.5Q-6.1 21.2 -4.65 23.65Q-1.95 28.15 1.4 28.15Q2.9 28.15 4.9 26.8Q6.85 25.55 7.85 25.5Q8 27.65 7.8 28.65L6.85 30.95L4.9 32.6L4.6 32.8Q2.9 33.85 -0.8 34.05Q-3.55 34.15 -6.5 32.6L-8.55 31.35Q-12.3 28.75 -13.2 25.05L-13.5 22.55L-13.35 20.25M28.15,53.15L29.6 52.85L29.7 53L30.05 53.95L29.75 55.35Q29.3 56.3 28.5 56.3Q26.9 56.3 26.9 54.95Q26.9 54.05 28.15 53.15M-10.5,-30.6Q-9.9 -28.35 -11.1 -26.85L-11.35 -26.55L-14.2 -23.9Q-15.65 -22.85 -18.65 -23.35Q-20.65 -23.85 -21.65 -26.65L-21.7 -26.85Q-22.65 -29.95 -20.4 -32.55L-19.7 -33.25Q-20.85 -31.1 -19.6 -29.15Q-18.35 -27.3 -14.7 -28.4Q-11.1 -29.5 -10.5 -30.6M-38.4,21.4Q-40.2 22.35 -42.1 24.6Q-46.35 29.65 -46.45 38.45Q-46.65 47.2 -41.9 57.05L-41 58.9Q-36.75 67.15 -32.45 69.5L-22.6 74.8L-22.5 74.9L-19.45 76.6L-20.35 76.55L-22.6 76.05Q-26 75.15 -29.55 73.35Q-36.55 69.8 -41.5 64.25L-44.15 60.95L-45.85 58.35Q-49.6 51.95 -50.2 44.95Q-50.7 39.5 -49.45 33.75Q-48.6 29.8 -46.3 26.6Q-43.45 22.3 -39.5 20.75L-37 20.4Q-36.25 20.4 -36.45 20.7L-38.4 21.4" />
</g>
</svg>
