<?xml version="1.0" encoding="utf-8"?>
<svg version="1.1" id="Layer_1"
xmlns="http://www.w3.org/2000/svg"
xmlns:xlink="http://www.w3.org/1999/xlink"
xmlns:author="http://www.sothink.com"
width="14px" height="13px"
xml:space="preserve">
<g id="382" transform="matrix(1, 0, 0, 1, 0.15, 0)">
<path style="fill:#513727;fill-opacity:1" d="M12.75,6.55Q11.75 6.95 10.55 7.9Q9.2 8.9 7.6 10.8Q6 12.75 3.25 11.5Q2.15 11.05 1.55 10.4L1.15 9.9L1.5 10.15Q2.6 10.75 3.95 10.55Q5.9 10.25 6.95 8.7L8.6 6.9L9.2 6.1Q10.25 5.1 11.7 4.65L13.1 6.45L12.75 6.55" />
<path style="fill:#644638;fill-opacity:1" d="M6.4,1.1L8.8 2.3L11.45 4.3L11.7 4.65Q10.25 5.1 9.2 6.1L8.6 6.9L6.95 8.7Q5.9 10.25 3.95 10.55Q2.6 10.75 1.5 10.15Q1.4 8.7 2.15 7.35L2.55 6.55L3.1 7.35Q3.3 5.7 3.95 4.1Q4.85 2.25 6.4 1.1" />
<path style="fill:#2E201B;fill-opacity:1" d="M5.65,0.85L5.45 0.95L3.95 1.9Q2.9 2.55 1.85 4.15Q0.75 5.7 0.75 7.4Q0.7 9.1 1.15 9.9L1.55 10.4Q2.15 11.05 3.25 11.5Q6 12.75 7.6 10.8Q9.2 8.9 10.55 7.9Q11.75 6.95 12.75 6.55L13.1 6.45L13.6 6.9L13.45 7Q10.9 8.3 10 9.4L7.9 11.7Q6.8 12.9 5.15 12.9Q3.5 12.9 1.95 11.95Q0.45 11 0.1 9.7L-0.15 7.15Q-0.1 5.9 0.7 4.3Q1.5 2.65 3.1 1.35Q4.65 0.05 5.2 0L5.45 0.2L5.7 0.85L5.65 0.85" />
<path style="fill:#8E6755;fill-opacity:1" d="M3.95,4.1Q3.3 5.7 3.1 7.35L2.55 6.55L2.15 7.35Q1.4 8.7 1.5 10.15L1.15 9.9Q0.7 9.1 0.75 7.4Q0.75 5.7 1.85 4.15Q2.9 2.55 3.95 1.9L5.45 0.95L5.65 0.85L5.7 0.85L6.4 1.1Q4.85 2.25 3.95 4.1" />
</g>
</svg>
