<?xml version="1.0" encoding="utf-8"?>
<svg version="1.1" id="Layer_1"
xmlns="http://www.w3.org/2000/svg"
xmlns:xlink="http://www.w3.org/1999/xlink"
xmlns:author="http://www.sothink.com"
width="14px" height="26px"
xml:space="preserve">
<g id="1394" transform="matrix(1, 0, 0, 1, 0, 0)">
<path style="fill:#B3A38A;fill-opacity:1" d="M2.85,2.5Q2.85 2.9 4.2 4.55L5.55 6.1L7.7 10.65L6.55 10.8L1.5 2.95Q1.2 1.45 2.15 1.2Q2.5 1.15 3.25 1.85L2.85 2.5M10.2,16.65L9.6 16.65L9.15 16.55L8.8 15.75Q8.55 14.95 7.9 14.3Q7.4 13.7 5.6 13.65L6.55 12.25Q6.75 11.95 7.45 11.8L8.45 11.55L8.15 12.05L9.5 13.7Q10.7 15.3 11.05 16.8L10.2 16.65M6.4,14.4Q7.05 14.5 7.9 15.45Q7.55 16.95 6.85 17.55L6 16.7L5.1 16.45Q4.7 16.45 4.3 16.75Q4 15.95 5.1 14.5L6.4 14.4M6.3,18Q6.5 18.25 5.85 19.2Q5.2 20.1 4.55 20Q3.7 19.1 4.25 17.6L5.5 17.45L6.3 18M4.7,23.4Q5.5 23.15 7.8 21.25Q8.3 21.3 8.65 21.7Q9 22.05 9 22.5Q7.15 24.3 5.5 24.55Q3.8 24.75 3.85 24.25Q3.85 23.65 4.7 23.4M11.15,18L11.75 18.5Q10.9 20.55 9.65 21.8L9.25 21.35Q8.9 20.9 8.25 20.7L8.8 19.65L9.5 17.6L10.3 17.55L11.15 18M10,22.8Q10.5 23 10.6 23.5L10.6 23.55Q9 24.85 8.2 24.25L9.95 22.8L10 22.8M11.05,23.15Q11 22.4 10.4 22.3Q11.6 20.95 12.3 19.4L12.35 19.75L11.9 22.35L11.05 23.15M11.4,24.8L10.05 24.85L11.65 23.75L11.4 24.8" />
<path style="fill:#CCC6B8;fill-opacity:1" d="M7.7,10.65L5.55 6.1L4.2 4.55Q2.85 2.9 2.85 2.5L3.25 1.85L5.25 4.05Q7.6 7 8.55 10.5L7.7 10.65M8.9,11.45L10.4 13.5Q11.15 14.5 12.1 17.05L11.05 16.8Q10.7 15.3 9.5 13.7L8.15 12.05L8.45 11.55L8.9 11.45M10.3,17.55Q11.1 17.55 11.9 18.05L11.75 18.5L11.15 18L10.3 17.55M12.7,18.45Q13.15 19.95 12.85 21.05L11.9 22.35L12.35 19.75L12.3 19.4L12.7 18.45M11.65,23.75L11.95 23.55L12.6 23.5L11.6 24.65L11.4 24.8L11.65 23.75" />
<path style="fill:#4A4131;fill-opacity:1" d="M5.05,1.9L7.45 5.2Q8.95 7.6 9.4 9.35L9.7 10.5L9.9 11.15L10.9 12.3Q11.85 13.4 13.1 16.7Q14.1 19.75 14 20.6L13.7 22Q13.85 22.75 13.4 23.85Q12.95 24.95 12.1 25.45Q10.4 26.45 9.3 25.45L8.75 25.45Q7.2 25.45 7.15 24.85L4.4 25.25Q3.45 25.15 3.2 24.7Q2.95 24.25 3.05 23.75Q3.15 23 3.75 22.9L4.9 22.45L6.75 21Q7.95 19.9 8.25 18.9Q8.55 18.05 8.3 17.35L7.25 18.45Q6.4 20.25 5.45 20.65L4.1 20.8Q2.75 18.6 3.4 16.3Q4.05 14 4.55 13.35L5.7 11.4L1.65 5.45Q-0.35 2.8 0.1 1.75Q0.55 0.65 1.3 0.15L3 0.2L5.05 1.9M8.55,10.5Q7.6 7 5.25 4.05L3.25 1.85Q2.5 1.15 2.15 1.2Q1.2 1.45 1.5 2.95L6.55 10.8L7.7 10.65L8.55 10.5M11.05,16.8L12.1 17.05Q11.15 14.5 10.4 13.5L8.9 11.45L8.45 11.55L7.45 11.8Q6.75 11.95 6.55 12.25L5.6 13.65Q7.4 13.7 7.9 14.3Q8.55 14.95 8.8 15.75L9.15 16.55L9.6 16.65L10.2 16.65L11.05 16.8M5.1,14.5Q4 15.95 4.3 16.75Q4.7 16.45 5.1 16.45L6 16.7L6.85 17.55Q7.55 16.95 7.9 15.45Q7.05 14.5 6.4 14.4L5.1 14.5M5.5,17.45L4.25 17.6Q3.7 19.1 4.55 20Q5.2 20.1 5.85 19.2Q6.5 18.25 6.3 18L5.5 17.45M3.85,24.25Q3.8 24.75 5.5 24.55Q7.15 24.3 9 22.5Q9 22.05 8.65 21.7Q8.3 21.3 7.8 21.25Q5.5 23.15 4.7 23.4Q3.85 23.65 3.85 24.25M11.9,18.05Q11.1 17.55 10.3 17.55L9.5 17.6L8.8 19.65L8.25 20.7Q8.9 20.9 9.25 21.35L9.65 21.8Q10.9 20.55 11.75 18.5L11.9 18.05M9.95,22.8L8.2 24.25Q9 24.85 10.6 23.55L10.6 23.5Q10.5 23 10 22.8L9.95 22.8M12.3,19.4Q11.6 20.95 10.4 22.3Q11 22.4 11.05 23.15L11.9 22.35L12.85 21.05Q13.15 19.95 12.7 18.45L12.3 19.4M10.05,24.85L11.4 24.8L11.6 24.65L12.6 23.5L11.95 23.55L11.65 23.75L10.05 24.85" />
</g>
</svg>
