<?xml version="1.0" encoding="utf-8"?>
<svg version="1.1" id="Layer_1"
xmlns="http://www.w3.org/2000/svg"
xmlns:xlink="http://www.w3.org/1999/xlink"
xmlns:author="http://www.sothink.com"
width="148px" height="82px"
xml:space="preserve">
<g id="955" transform="matrix(1, 0, 0, 1, 16.6, 17.3)">
<path style="fill:#F7E3CC;fill-opacity:1" d="M7.85,64.25L7.85 50.15L-16.6 50.1L-16.6 43.5L-16.6 37L-16.6 11.15L-16.6 -17.3L131.35 -17.3L131.35 50.1L40 50.1L40 50.15L18.15 50.15L7.85 64.25" />
<path style="fill:#680B01;fill-opacity:1" d="M103.35,16.35Q102.85 15.95 102 15.95L100.65 16.35Q100.1 16.7 99.85 17.35Q99.55 18 99.55 18.85Q99.55 19.7 99.85 20.35L100.65 21.35L102 21.75Q102.85 21.75 103.35 21.35L104.2 20.35L104.45 18.85L104.2 17.35L103.35 16.35M105.6,16.55Q106.15 17.5 106.15 18.85Q106.15 20.2 105.6 21.15L104.65 22.35L104.15 22.7L103.05 23.1L102 23.2L101 23.1L99.85 22.7L99.4 22.35L98.4 21.15Q97.9 20.2 97.85 18.85Q97.9 17.5 98.4 16.55Q98.95 15.55 99.85 15Q100.8 14.5 102 14.5Q103.2 14.5 104.15 15Q105.1 15.55 105.6 16.55M97.4,16.15L95.05 16.15L95.05 23.05L93.5 23.05L93.5 16.15L91.15 16.15L91.15 14.65L97.4 14.65L97.4 16.15M97.45,33.35L99.5 36.65L101.55 33.35L103.15 33.35L103.1 33.45L100.25 38.05L100.25 41.75L98.7 41.75L98.7 38.05L95.8 33.35L97.45 33.35M95.7,34.85L93.35 34.85L93.35 41.75L91.8 41.75L91.8 34.85L89.45 34.85L89.45 33.35L95.7 33.35L95.7 34.85M88.3,33.35L88.3 41.75L86.8 41.75L86.8 33.35L88.3 33.35M85.75,40.25L85.75 41.75L80.8 41.75L80.8 33.35L82.3 33.35L82.3 40.25L85.75 40.25M108.05,32.75L107.8 39.35L106.8 39.35L106.55 32.75L108.05 32.75M106.55,40.25L108.05 40.25L108.05 41.75L106.55 41.75L106.55 40.25M54.45,36.6L57.4 36.6L57.4 38.1L54.45 38.1L54.45 40.25L58.35 40.25L58.35 41.75L52.9 41.75L52.9 33.35L58.25 33.35L58.25 34.85L54.45 34.85L54.45 36.6M43.2,35.25Q43.75 36.2 43.75 37.55Q43.75 38.9 43.2 39.85L41.75 41.4Q40.8 41.9 39.6 41.9Q38.4 41.9 37.45 41.4Q36.55 40.85 36 39.85Q35.5 38.9 35.45 37.55Q35.5 36.2 36 35.25Q36.55 34.25 37.45 33.7Q38.4 33.2 39.6 33.2Q40.8 33.2 41.75 33.7Q42.7 34.25 43.2 35.25M40.95,35.05L39.6 34.65Q38.8 34.65 38.25 35.05Q37.7 35.4 37.45 36.05Q37.15 36.7 37.15 37.55Q37.15 38.4 37.45 39.05Q37.7 39.7 38.25 40.05Q38.8 40.45 39.6 40.45L40.95 40.05L41.8 39.05L42.05 37.55L41.8 36.05L40.95 35.05M45.65,33.35L48 39.7L50.3 33.35L51.9 33.35L48.95 41.75L47.05 41.75L44.05 33.35L45.65 33.35M72.75,34.65L71.4 34.65L71.4 36.7L72.9 36.7L73.35 36.65L73.75 36.35L73.95 35.75L73.8 35.05L73.4 34.75L72.75 34.65M75.35,35.5L75.2 36.5L74.65 37.25Q75.4 37.55 75.75 38Q76.1 38.5 76.1 39.3L75.85 40.5L75.15 41.25L74.15 41.65L73.1 41.75L69.9 41.75L69.9 33.35L72.15 33.35L73.85 33.5Q74.55 33.65 74.95 34.1Q75.35 34.6 75.35 35.5M78.9,33.35L78.9 41.75L77.4 41.75L77.4 33.35L78.9 33.35M65.95,33.35L68.9 41.75L67.3 41.75L66.6 39.7L63.8 39.7L63.1 41.75L61.5 41.75L64.45 33.35L65.95 33.35M66.05,38.25L65.2 35.75L64.35 38.25L66.05 38.25M74.55,39.2Q74.5 38.5 74.1 38.2Q73.65 37.9 73 37.95L71.4 37.95L71.4 40.45L72.9 40.45L74.1 40.15Q74.5 39.9 74.55 39.2M26.2,16.15L22.4 16.15L22.4 17.9L25.35 17.9L25.35 19.4L22.4 19.4L22.4 21.55L26.3 21.55L26.3 23.05L20.85 23.05L20.85 14.65L26.2 14.65L26.2 16.15M6.7,14.65L6.7 18.95L6.85 20.35Q7 21 7.45 21.35Q7.85 21.75 8.65 21.75Q9.45 21.75 9.9 21.35L10.45 20.35L10.6 18.95L10.6 14.65L12.15 14.65L12.15 19.45Q12.15 20.6 11.75 21.45Q11.4 22.3 10.6 22.75L8.65 23.2L6.7 22.75Q5.95 22.3 5.55 21.45Q5.2 20.6 5.2 19.45L5.2 14.65L6.7 14.65M19.1,15.15L18.95 16.7L17.7 16.15L16.5 15.95L15.8 16Q15.45 16.1 15.2 16.3Q15 16.5 14.95 16.85L15.2 17.4L15.8 17.75L16.65 18.05L17.65 18.4Q18.2 18.55 18.6 18.85L19.3 19.6L19.55 20.75L19.45 21.55L19 22.35L18 22.95L16.3 23.2L14.6 23.05L13.55 22.6L13.7 20.85L14.75 21.45L16.35 21.75L17.45 21.55Q17.85 21.35 17.85 20.85L17.55 20.15Q17.3 19.85 16.85 19.7L15.9 19.35L14.7 18.9L13.8 18.2Q13.4 17.75 13.4 17Q13.4 16.6 13.55 16.15L14.1 15.3Q14.45 14.95 15 14.7L16.45 14.5L17.55 14.6L18.5 14.85L19.1 15.15M13.4,33.35L15.45 37.15L17.5 33.35L18.75 33.35L19.9 41.75L18.3 41.75L17.6 36.1L15.45 40L13.3 36.15L12.55 41.75L11 41.75L12.15 33.35L13.4 33.35M9.55,33.35L9.55 41.75L8.05 41.75L8.05 33.35L9.55 33.35M32.7,35.2Q32.55 34.95 32.2 34.8L31.2 34.65L30 34.65L30 37.2L31.15 37.2L32.2 37L32.7 36.55L32.85 35.9L32.7 35.2M34.45,35.75L34.25 36.9L33.75 37.65L33 38.2L34.9 41.75L33.3 41.75L31.55 38.65L30 38.65L30 41.75L28.5 41.75L28.5 33.35L31.55 33.35L33 33.55Q33.65 33.8 34.05 34.35L34.45 35.75M25.25,33.45L26.35 33.8L27.05 34.65L27.3 36L27 37.5L26.25 38.4L25.3 38.85L24.35 39L22.85 39L22.85 41.75L21.35 41.75L21.35 33.35L23.7 33.35L25.25 33.45M22.85,34.65L22.85 37.55L24.15 37.55Q25 37.55 25.35 37.2Q25.75 36.85 25.75 36.05L25.6 35.25L25.1 34.8L24.1 34.65L22.85 34.65" />
<path style="fill:#E51919;fill-opacity:1" d="M81.75,15.15L81.15 14.6L79.9 14.4L78.35 14.4L78.35 18.05L79.95 18.05Q81 18.05 81.45 17.65Q81.95 17.2 81.9 16.15L81.75 15.15M83.85,16.15Q83.85 17.25 83.5 18L82.6 19.1L81.4 19.7L80.2 19.85L78.35 19.85L78.35 23.3L76.4 23.3L76.4 12.8L79.35 12.8L81.3 12.9L82.7 13.4L83.6 14.4L83.85 16.15M70.65,16.5L72.85 12.8L75.1 12.8L71.6 17.85L75.3 23.3L73.05 23.3L70.5 19.45L68.05 23.3L65.85 23.3L69.55 18.05L66 12.8L68.2 12.8L70.65 16.5" />
<path style="fill:#95154D;fill-opacity:1" d="M6.5,-8.35L6.5 -10.2L14.35 -10.2L14.35 -8.35L11.35 -8.35L11.35 0.3L9.45 0.3L9.45 -8.35L6.5 -8.35M17.65,-3.6L17.65 0.3L15.7 0.3L15.7 -10.2L19.55 -10.2L21.4 -9.9Q22.2 -9.65 22.65 -8.95Q23.15 -8.3 23.15 -7.15L22.9 -5.8L22.3 -4.8L21.4 -4.1L23.75 0.3L21.75 0.3L19.55 -3.6L17.65 -3.6M19.05,-5.4L20.35 -5.6L21 -6.2L21.15 -7.05L21 -7.85L20.35 -8.4L19.1 -8.6L17.65 -8.6L17.65 -5.4L19.05 -5.4M29.55,-10.2L33.3 0.3L31.3 0.3L30.4 -2.25L26.9 -2.25L26 0.3L24 0.3L27.75 -10.2L29.55 -10.2M29.7,-4.1L28.65 -7.15L27.55 -4.1L29.7 -4.1M36.45,-10.2L36.45 0.3L34.5 0.3L34.5 -10.2L36.45 -10.2M45.15,-10.2L47.05 -10.2L47.05 0.3L45.45 0.3L40.7 -6.9L40.7 0.3L38.75 0.3L38.75 -10.2L40.65 -10.2L45.15 -3.4L45.15 -10.2M54.7,-4.25L54.7 0.3L52.75 0.3L52.75 -10.2L54.7 -10.2L54.7 -6.1L59.65 -6.1L59.65 -10.2L61.55 -10.2L61.55 0.3L59.65 0.3L59.65 -4.25L54.7 -4.25M70.55,-8.35L65.8 -8.35L65.8 -6.1L69.5 -6.1L69.5 -4.25L65.8 -4.25L65.8 -1.55L70.75 -1.55L70.75 0.3L63.85 0.3L63.85 -10.2L70.55 -10.2L70.55 -8.35M77.65,-7.85L77 -8.4L75.75 -8.6L74.3 -8.6L74.3 -5.4L75.7 -5.4L77 -5.6L77.65 -6.2L77.8 -7.05L77.65 -7.85M78.05,-9.9Q78.85 -9.65 79.3 -8.95Q79.8 -8.3 79.8 -7.15L79.55 -5.8L78.95 -4.8L78.05 -4.1L80.4 0.3L78.4 0.3L76.2 -3.6L74.3 -3.6L74.3 0.3L72.35 0.3L72.35 -10.2L76.2 -10.2L78.05 -9.9M88,-8.1Q87.3 -8.55 86.3 -8.55Q85.3 -8.55 84.6 -8.1Q83.9 -7.65 83.55 -6.85Q83.25 -6 83.25 -4.95Q83.25 -3.9 83.55 -3.1Q83.9 -2.25 84.6 -1.8Q85.3 -1.35 86.3 -1.35Q87.3 -1.35 88 -1.8Q88.7 -2.25 89.05 -3.1L89.35 -4.95L89.05 -6.85Q88.7 -7.65 88 -8.1M90.8,-7.85Q91.45 -6.6 91.5 -4.95Q91.45 -3.3 90.8 -2.05Q90.15 -0.85 89 -0.15L86.3 0.5Q84.8 0.5 83.6 -0.15Q82.45 -0.85 81.8 -2.05Q81.15 -3.3 81.15 -4.95Q81.15 -6.6 81.8 -7.85Q82.45 -9.05 83.6 -9.75Q84.8 -10.4 86.3 -10.4L89 -9.75Q90.15 -9.05 90.8 -7.85M99.85,-8.35L95.1 -8.35L95.1 -6.1L98.8 -6.1L98.8 -4.25L95.1 -4.25L95.1 -1.55L100.05 -1.55L100.05 0.3L93.15 0.3L93.15 -10.2L99.85 -10.2L99.85 -8.35M106.45,-8.35L104.95 -8.6L104.1 -8.5Q103.65 -8.4 103.35 -8.15Q103.05 -7.9 103 -7.45L103.3 -6.8L104.1 -6.3L105.15 -5.95L106.4 -5.55L107.55 -4.95L108.45 -4L108.75 -2.55L108.65 -1.55L108.05 -0.55Q107.65 -0.1 106.85 0.2L104.7 0.5L102.6 0.3L101.25 -0.25L101.45 -2.45Q101.9 -2 102.7 -1.7Q103.55 -1.35 104.75 -1.35L106.1 -1.6Q106.6 -1.85 106.6 -2.5L106.25 -3.35L105.4 -3.9L104.2 -4.35L102.7 -4.9L101.55 -5.8Q101.1 -6.35 101.05 -7.25L101.25 -8.35L101.9 -9.35L103.1 -10.1L104.85 -10.4L106.25 -10.3L107.45 -10L108.2 -9.6L108 -7.65Q107.2 -8.1 106.45 -8.35" />
</g>
</svg>
