<?xml version="1.0" encoding="utf-8"?>
<svg version="1.1" id="Layer_1"
xmlns="http://www.w3.org/2000/svg"
xmlns:xlink="http://www.w3.org/1999/xlink"
xmlns:author="http://www.sothink.com"
width="8px" height="5px"
xml:space="preserve">
<g id="301" transform="matrix(1, 0, 0, 1, 0, 0)">
<path style="fill:#275C8A;fill-opacity:1" d="M3.8,2.15L3.7 2.15L3.7 2.05L3.8 2.15" />
<path style="fill:#231713;fill-opacity:1" d="M1.4,0.85Q0.95 1.1 0.9 1.5Q0.85 1.9 1.5 2.55Q2.15 3.2 3.95 3.7L6.55 3.6Q7.1 3.1 6.95 2.6L6.75 2.25Q6.15 1.5 5.1 1.15L3.5 0.65L2.4 0.65L1.65 0.75L1.4 0.85M7.55,2L7.75 2.55L7.8 3.1Q7.75 3.7 7.1 4.2Q6.4 4.7 5.3 4.65L3.15 4.2Q2.15 3.9 1.05 3.1Q-0.05 2.25 0 1.5Q0 0.75 0.8 0.4Q1.55 0.05 2.05 0.05L3.15 0Q3.85 0 5.5 0.7Q7.2 1.45 7.55 2" />
<path style="fill:#412B1E;fill-opacity:1" d="M1.65,0.75L2.6 1.65Q3.55 2.3 3.95 2.25L3.8 2.15L5.3 2.35L6.6 2.6L6.95 2.6Q7.1 3.1 6.55 3.6L3.95 3.7Q2.15 3.2 1.5 2.55Q0.85 1.9 0.9 1.5Q0.95 1.1 1.4 0.85L1.65 0.75" />
<path style="fill:#513727;fill-opacity:1" d="M6.6,2.6L5.3 2.35L3.8 2.15L3.7 2.05L3.7 2.15L3.8 2.15L3.95 2.25Q3.55 2.3 2.6 1.65L1.65 0.75L2.4 0.65L3.5 0.65L5.1 1.15Q6.15 1.5 6.75 2.25L6.95 2.6L6.6 2.6" />
</g>
</svg>
