<?xml version="1.0" encoding="utf-8"?>
<svg version="1.1" id="Layer_1"
xmlns="http://www.w3.org/2000/svg"
xmlns:xlink="http://www.w3.org/1999/xlink"
xmlns:author="http://www.sothink.com"
width="9px" height="9px"
xml:space="preserve">
<g id="356" transform="matrix(1, 0, 0, 1, 0.75, 0)">
<path style="fill:#574031;fill-opacity:1" d="M5.9,0.4L6.35 1.3L7.15 3.25Q7.35 4 7.05 4.85L6.65 3.6L5.7 2.85Q5.8 2.5 6.15 2.45L5.3 0.75L5.9 0.4" />
<path style="fill:#3C2C22;fill-opacity:1" d="M6.9,5.1Q6.5 6.1 5.5 6.65Q4.5 7.2 3.2 6.95Q1.9 6.65 1.45 6L0.65 4.75Q0.35 4.2 0.35 2.75Q0.3 1.4 0.7 0.75L1.5 1.05L5.3 0.75L6.15 2.45Q5.8 2.5 5.7 2.85L6.65 3.6L7.05 4.85L6.9 5.1M0.25,3.65L0.4 4.15L0.35 4.1L0.35 4.05L0.25 3.65" />
<path style="fill:#231713;fill-opacity:1" d="M5.85,0.35Q6.25 -0.1 6.55 0.05L7.2 0.95L8 3.05Q8.35 4.35 8.05 5.1L7.05 6.65Q6.4 7.4 5.05 7.85L2.4 7.9Q1.2 7.55 0.25 6.45L-0.55 4.75Q-0.95 3.55 -0.55 2.1L-0.55 1.95L-0.5 1.9L-0.3 1.15L-0.3 0.85L0.75 0.65L0.8 0.65L0.7 0.75Q0.3 1.4 0.35 2.75Q0.35 4.2 0.65 4.75L1.45 6Q1.9 6.65 3.2 6.95Q4.5 7.2 5.5 6.65Q6.5 6.1 6.9 5.1L7.05 4.85Q7.35 4 7.15 3.25L6.35 1.3L5.9 0.4L5.85 0.35M0.35,4.05L0.35 4.1L0.4 4.15L0.25 3.65L0.35 4.05" />
</g>
</svg>
