<?xml version="1.0" encoding="utf-8"?>
<svg version="1.1" id="Layer_1"
xmlns="http://www.w3.org/2000/svg"
xmlns:xlink="http://www.w3.org/1999/xlink"
xmlns:author="http://www.sothink.com"
width="42px" height="54px"
xml:space="preserve">
<g id="182" transform="matrix(1, 0, 0, 1, 0, 0)">
<path style="fill:#DD5904;fill-opacity:1" d="M30.45,48.55L27.85 50L27.3 49.8L27 49.65L31 46.8L31.05 46.8L31.8 46.35Q32.75 46.1 33.75 46.8L37.6 49.3L37.3 49.45L36.6 49.85Q33.95 47.35 30.45 48.55M7.35,48.95Q6.1 49.45 5.15 50.2L4.95 50.15L4.55 50L9.5 46.4L9.6 46.3L15.05 49.85L14.25 50.2Q10.85 47.7 7.35 48.95" />
<path style="fill:#E97923;fill-opacity:1" d="M36.6,49.85Q35.15 50.5 32.7 50.6Q29.95 50.75 27.85 50L30.45 48.55Q33.95 47.35 36.6 49.85M14.25,50.2L11.3 50.7L11.25 50.7L5.15 50.2Q6.1 49.45 7.35 48.95Q10.85 47.7 14.25 50.2" />
<path style="fill:#FFF8B7;fill-opacity:1" d="M33.75,44.45L38.9 47.35L38.9 47.95Q38.8 48.4 37.6 49.3L33.75 46.8Q32.75 46.1 31.8 46.35L31.05 46.8L30 44.9L31.75 43.8L31.75 43.7L33.75 44.2L33.75 44.45" />
<linearGradient
id="LinearGradID_393" gradientUnits="userSpaceOnUse" gradientTransform="matrix(0.000152588, 0.0043335, -0.00192261, 6.10352e-005, 32.9, 12.55)" spreadMethod ="pad" x1="-819.2" y1="0" x2="819.2" y2="0" >
<stop  offset="0" style="stop-color:#FFFB86;stop-opacity:1" />
<stop  offset="0.447059" style="stop-color:#FFFA67;stop-opacity:1" />
<stop  offset="0.992157" style="stop-color:#FFF899;stop-opacity:1" />
</linearGradient>
<path style="fill:url(#LinearGradID_393) " d="M31.75,13.2L31.75 13.05Q31.85 9.5 31.1 8.1L34.25 7.75L33.85 8.35L33.5 9.3L33.5 17.4L31.85 18.4L31.75 13.2" />
<linearGradient
id="LinearGradID_394" gradientUnits="userSpaceOnUse" gradientTransform="matrix(6.10352e-005, 0.00244141, -0.0010376, 3.05176e-005, 32.6, 28.65)" spreadMethod ="pad" x1="-819.2" y1="0" x2="819.2" y2="0" >
<stop  offset="0" style="stop-color:#FFFE69;stop-opacity:1" />
<stop  offset="0.992157" style="stop-color:#FFF6AA;stop-opacity:1" />
</linearGradient>
<path style="fill:url(#LinearGradID_394) " d="M33.5,30.95L31.8 31.95L31.8 29.65L31.8 28.75L31.8 27.55L33.25 26.95L33.5 30.95" />
<linearGradient
id="LinearGradID_395" gradientUnits="userSpaceOnUse" gradientTransform="matrix(0.0012207, 0, 0, 0.00488281, 32.75, 40.2)" spreadMethod ="pad" x1="-819.2" y1="0" x2="819.2" y2="0" >
<stop  offset="0" style="stop-color:#FFF46D;stop-opacity:1" />
<stop  offset="0.992157" style="stop-color:#FFF6AA;stop-opacity:1" />
</linearGradient>
<path style="fill:url(#LinearGradID_395) " d="M33.75,44.2L31.75 43.7L31.8 36.95L33.5 36.2L33.75 44.2" />
<linearGradient
id="LinearGradID_396" gradientUnits="userSpaceOnUse" gradientTransform="matrix(-0.00308228, 0.00198364, -0.000823975, -0.00128174, 29.1, 46.8)" spreadMethod ="pad" x1="-819.2" y1="0" x2="819.2" y2="0" >
<stop  offset="0" style="stop-color:#FFF8B7;stop-opacity:1" />
<stop  offset="0.992157" style="stop-color:#FFAF50;stop-opacity:1" />
</linearGradient>
<path style="fill:url(#LinearGradID_396) " d="M31,46.8L27 49.65Q25.5 49.05 25.3 48.4L25.25 47.8L30 44.9L31.05 46.8L31 46.8" />
<path style="fill:#FCFFCA;fill-opacity:1" d="M33.35,26.9L33.25 26.95L31.8 27.55L31.85 18.4L33.5 17.4L33.5 17.95L38.8 16L38.8 23.75L33.35 26.9" />
<path style="fill:#FFFFC1;fill-opacity:1" d="M35.6,6.7Q34.75 7.1 34.25 7.75L31.1 8.1L31 7.9L30.1 7.3L25.5 4.85Q25.5 3.7 26.65 3.1L27.2 3Q27.1 4.1 31.35 5.75Q32.7 6.3 34.35 5.3L37.3 3.25L37.3 3.2L37.4 3.2L38.5 4.1L38.75 4.9L35.6 6.7" />
<path style="fill:#F8D215;fill-opacity:1" d="M11.2,4.8Q9.8 5.8 8.2 5.45L3.75 3.6Q4.2 3.2 4.85 3.05L4.9 3.05L10.95 2.55L13.4 3L11.2 4.8M27.2,3L27.15 3Q32.95 2.3 37.3 3.25L34.35 5.3Q32.7 6.3 31.35 5.75Q27.1 4.1 27.2 3" />
<path style="fill:#FFFFCD;fill-opacity:1" d="M16.35,47.45Q16.15 48.8 15.4 49.6L15.45 49.6L15.05 49.85L9.6 46.3L9.5 46.4L8.3 44.3L8.7 43.95L8.7 20.5L8.7 9.7L8.7 8.7L2.7 5.5Q2.95 4.2 3.75 3.6L8.2 5.45Q9.8 5.8 11.2 4.8L13.4 3Q14.3 3.25 14.95 3.65L15.5 4.9Q14 5.3 12.35 6.7L10.85 8.2L10.85 10.85L10.9 24.6L10.95 44.3L16.35 47.45" />
<linearGradient
id="LinearGradID_397" gradientUnits="userSpaceOnUse" gradientTransform="matrix(0.00286865, -0.00242615, 0.00112915, 0.00132751, 5.9, 47.5)" spreadMethod ="pad" x1="-819.2" y1="0" x2="819.2" y2="0" >
<stop  offset="0" style="stop-color:#FFD278;stop-opacity:1" />
<stop  offset="0.509804" style="stop-color:#FFBC65;stop-opacity:1" />
<stop  offset="0.988235" style="stop-color:#FFFFCD;stop-opacity:1" />
</linearGradient>
<path style="fill:url(#LinearGradID_397) " d="M4.55,50Q3.6 49.6 3.05 48.8L4.2 47.15L4.2 47.45L8.3 44.3L9.5 46.4L4.55 50" />
<linearGradient
id="LinearGradID_398" gradientUnits="userSpaceOnUse" gradientTransform="matrix(-0.000549316, -0.0138702, 0.00140381, -6.10352e-005, 3.15, 34.55)" spreadMethod ="pad" x1="-819.2" y1="0" x2="819.2" y2="0" >
<stop  offset="0" style="stop-color:#ECAD5E;stop-opacity:1" />
<stop  offset="0.988235" style="stop-color:#C67B2A;stop-opacity:1" />
</linearGradient>
<path style="fill:url(#LinearGradID_398) " d="M4.2,47.15L3.05 48.8Q2.55 47.95 2.5 46.75L2.5 18.35L3.85 23.05L4.2 45.8L4.2 47.15" />
<linearGradient
id="LinearGradID_399" gradientUnits="userSpaceOnUse" gradientTransform="matrix(6.10352e-005, 0.0062561, -0.00540161, 4.57764e-005, 15.25, 13.4)" spreadMethod ="pad" x1="-819.2" y1="0" x2="819.2" y2="0" >
<stop  offset="0" style="stop-color:#FDE60E;stop-opacity:1" />
<stop  offset="0.988235" style="stop-color:#FEFFBD;stop-opacity:1" />
</linearGradient>
<path style="fill:url(#LinearGradID_399) " d="M10.9,24.6L10.85 10.85L15.7 8.85L15.7 14.3L15.6 18.9L15.6 19.05L13.75 20.4L11.85 21.7Q13.1 23.85 14.9 24.75Q15.8 25.2 16.45 25.2L18.1 25.2L19.8 27.7L15.45 27.7L15.15 27.6L10.9 24.6" />
<linearGradient
id="LinearGradID_400" gradientUnits="userSpaceOnUse" gradientTransform="matrix(-0.00244141, 9.15527e-005, -6.10352e-005, -0.00167847, 21.9, 26.5)" spreadMethod ="pad" x1="-819.2" y1="0" x2="819.2" y2="0" >
<stop  offset="0" style="stop-color:#FDE60E;stop-opacity:1" />
<stop  offset="0.988235" style="stop-color:#FEFFBD;stop-opacity:1" />
</linearGradient>
<path style="fill:url(#LinearGradID_400) " d="M19.8,27.7L18.1 25.2L23.2 25.2L24.95 27.7L19.8 27.7" />
<path style="fill:#FDE200;fill-opacity:1" d="M23.2,25.2L18.1 25.2L16.45 25.2Q15.8 25.2 14.9 24.75Q13.1 23.85 11.85 21.7L13.75 20.4L15.6 19.05L15.75 19.6L16.2 20.1L16.85 20.3L24.25 20.4L24.55 20.4L25.45 22.15L25.45 22.2L25.85 25.8Q25.95 27.2 25.45 27.6L24.95 27.7L23.2 25.2" />
<path style="fill:#FAE100;fill-opacity:1" d="M10.85,10.85L10.85 8.2L12.35 6.7Q14 5.3 15.5 4.9L15.7 7.05L15.7 8.85L10.85 10.85" />
<path style="fill:#FDF320;fill-opacity:1" d="M33.5,30.95L33.25 26.95L33.35 26.9L38.8 23.75L38.85 28.3L33.5 30.95" />
<path style="fill:#FFE303;fill-opacity:1" d="M33.5,17.4L33.5 9.3L33.85 8.35L34.25 7.75Q34.75 7.1 35.6 6.7L38.75 4.9Q38.95 6.25 38.75 9.45L38.8 16L33.5 17.95L33.5 17.4" />
<path style="fill:#FFE001;fill-opacity:1" d="M33.5,36.2L33.5 35.95L38.85 32.35L38.9 47.35L33.75 44.45L33.75 44.2L33.5 36.2" />
<linearGradient
id="LinearGradID_401" gradientUnits="userSpaceOnUse" gradientTransform="matrix(-0.000366211, -0.00915527, 0.00402832, -0.000152588, 13.95, 36)" spreadMethod ="pad" x1="-819.2" y1="0" x2="819.2" y2="0" >
<stop  offset="0" style="stop-color:#FFE903;stop-opacity:1" />
<stop  offset="0.988235" style="stop-color:#FEFD41;stop-opacity:1" />
</linearGradient>
<path style="fill:url(#LinearGradID_401) " d="M15.15,27.6L16.25 31.3L17.15 34.2L16.9 34.4Q16.5 34.75 16.5 35.25L16.4 46.85L16.35 47.45L10.95 44.3L10.9 24.6L15.15 27.6" />
<path style="fill:#F4A121;fill-opacity:1" d="M26.05,22L25.45 22.15L24.55 20.4L25.15 20.05Q25.5 19.7 25.5 19.15L25.5 6.7L28 7.9L27.85 19.3Q27.9 20.65 26.95 21.5L26.05 22" />
<path style="fill:#F79F21;fill-opacity:1" d="M16.25,31.3L20.15 30.85Q24.55 31.15 25.05 34.4L24.8 34.2L24.15 34L17.75 34L17.15 34.2L16.25 31.3" />
<path style="fill:#FDFFD7;fill-opacity:1" d="M38.85,28.3L38.85 32.35L33.5 35.95L33.5 36.2L31.8 36.95L31.8 31.95L33.5 30.95L38.85 28.3" />
<path style="fill:#8E0442;fill-opacity:1" d="M41.5,47.55Q41.55 48.95 40.9 50Q40.25 51.05 38.25 52Q36.25 53 32.7 53.15Q29.1 53.25 26.35 52.1Q22.85 50.7 22.8 48.7L22.85 48.75Q22.6 47.45 22.9 36.5L19 36.5L18.9 46.95Q18.8 49.95 17.1 51.45Q15.55 52.9 11.45 53.2Q7.6 53.45 4.3 52.55Q0.2 51.5 0 46.8L0 7.3Q-0.05 1.35 4.35 0.6L11.15 0.05Q14.6 0.35 16.5 1.7L16.65 1.8Q18.2 3 18.2 7.05L18.2 14.3L18.2 17.85L23 17.9L23 5.4Q23 1.85 25.7 0.75L26 0.7Q32.75 -0.5 38.1 0.8L38.3 0.85Q39.2 1.2 40.3 2.4Q41.6 3.45 41.25 9.5L41.5 47.55M27.15,3L27.2 3L26.65 3.1Q25.5 3.7 25.5 4.85L25.5 5.4L25.5 6.7L25.5 19.15Q25.5 19.7 25.15 20.05L24.55 20.4L24.25 20.4L16.85 20.3L16.2 20.1L15.75 19.6L15.6 19.05L15.6 18.9L15.7 14.3L15.7 8.85L15.7 7.05L15.5 4.9L14.95 3.65Q14.3 3.25 13.4 3L10.95 2.55L4.9 3.05L4.85 3.05Q4.2 3.2 3.75 3.6Q2.95 4.2 2.7 5.5L2.5 7.3L2.5 18.35L2.5 46.75Q2.55 47.95 3.05 48.8Q3.6 49.6 4.55 50L4.95 50.15L5.15 50.2L11.25 50.7L11.3 50.7L14.25 50.2L15.05 49.85L15.45 49.6L15.4 49.6Q16.15 48.8 16.35 47.45L16.4 46.85L16.5 35.25Q16.5 34.75 16.9 34.4L17.15 34.2L17.75 34L24.15 34L24.8 34.2L25.05 34.4L25.25 34.65L25.4 35.3L25.25 45.8L25.25 47.8L25.3 48.4Q25.5 49.05 27 49.65L27.3 49.8L27.85 50Q29.95 50.75 32.7 50.6Q35.15 50.5 36.6 49.85L37.3 49.45L37.6 49.3Q38.8 48.4 38.9 47.95L38.9 47.35L38.85 32.35L38.85 28.3L38.8 23.75L38.8 16L38.75 9.45Q38.95 6.25 38.75 4.9L38.5 4.1L37.4 3.2L37.3 3.2L37.3 3.25Q32.95 2.3 27.15 3" />
<linearGradient
id="LinearGradID_402" gradientUnits="userSpaceOnUse" gradientTransform="matrix(0.000198364, 0.0141602, -0.00271606, 4.57764e-005, 4.9, 29.7)" spreadMethod ="pad" x1="-819.2" y1="0" x2="819.2" y2="0" >
<stop  offset="0.0117647" style="stop-color:#FB8C00;stop-opacity:1" />
<stop  offset="1" style="stop-color:#E44401;stop-opacity:1" />
</linearGradient>
<path style="fill:url(#LinearGradID_402) " d="M6.7,43.8L4.2 45.8L3.85 23.05L2.5 18.35L2.5 7.3L6.85 10.3L6.85 10.65L6.8 21.7L6.7 43.8" />
<linearGradient
id="LinearGradID_403" gradientUnits="userSpaceOnUse" gradientTransform="matrix(0.00378418, 0, 0, 0.00314331, 5.6, 8.05)" spreadMethod ="pad" x1="-819.2" y1="0" x2="819.2" y2="0" >
<stop  offset="0" style="stop-color:#E34000;stop-opacity:1" />
<stop  offset="1" style="stop-color:#ED5F09;stop-opacity:1" />
</linearGradient>
<path style="fill:url(#LinearGradID_403) " d="M2.5,7.3L2.7 5.5L8.7 8.7L8.7 9.7L6.85 10.65L6.85 10.3L2.5 7.3M25.5,6.7L25.5 5.4L25.5 4.85L30.1 7.3L31 7.9L31.1 8.1Q31.85 9.5 31.75 13.05L29.85 13.75L29.85 8.8L28 7.9L25.5 6.7" />
<linearGradient
id="LinearGradID_404" gradientUnits="userSpaceOnUse" gradientTransform="matrix(0.00274658, 0, 0, 0.016449, 6.45, 33.95)" spreadMethod ="pad" x1="-819.2" y1="0" x2="819.2" y2="0" >
<stop  offset="0" style="stop-color:#E34000;stop-opacity:1" />
<stop  offset="1" style="stop-color:#ED5F09;stop-opacity:1" />
</linearGradient>
<path style="fill:url(#LinearGradID_404) " d="M31.75,43.7L31.75 43.8L30 44.9L25.25 47.8L25.25 45.8L29.75 43.15L29.85 31.15L31.8 29.65L31.8 31.95L31.8 36.95L31.75 43.7M8.3,44.3L4.2 47.45L4.2 47.15L4.2 45.8L6.7 43.8L6.8 21.7L8.7 20.5L8.7 43.95L8.3 44.3" />
<path style="fill:#F57831;fill-opacity:1" d="M29.85,31.15L29.85 29.65L29.85 13.75L31.75 13.05L31.75 13.2L31.85 18.4L31.8 27.55L31.8 28.75L31.8 29.65L29.85 31.15M6.85,10.65L8.7 9.7L8.7 20.5L6.8 21.7L6.85 10.65" />
<linearGradient
id="LinearGradID_405" gradientUnits="userSpaceOnUse" gradientTransform="matrix(-4.57764e-005, -0.0106201, 0.00897217, -4.57764e-005, 22.5, 33.75)" spreadMethod ="pad" x1="-819.2" y1="0" x2="819.2" y2="0" >
<stop  offset="0" style="stop-color:#E44401;stop-opacity:1" />
<stop  offset="0.988235" style="stop-color:#FB8C00;stop-opacity:1" />
</linearGradient>
<path style="fill:url(#LinearGradID_405) " d="M29.75,43.15L25.25 45.8L25.4 35.3L25.25 34.65L25.05 34.4Q24.55 31.15 20.15 30.85L16.25 31.3L15.15 27.6L15.45 27.7L19.8 27.7L24.95 27.7L25.45 27.6Q25.95 27.2 25.85 25.8L25.45 22.2L25.45 22.15L26.05 22L26.95 21.5L27.75 22.55Q29.15 24.85 29.85 29.65L29.85 31.15L29.75 43.15" />
<path style="fill:#EC8118;fill-opacity:1" d="M29.85,29.65Q29.15 24.85 27.75 22.55L26.95 21.5Q27.9 20.65 27.85 19.3L28 7.9L29.85 8.8L29.85 13.75L29.85 29.65" />
</g>
</svg>
