<?xml version="1.0" encoding="utf-8"?>
<svg version="1.1" id="Layer_1"
xmlns="http://www.w3.org/2000/svg"
xmlns:xlink="http://www.w3.org/1999/xlink"
xmlns:author="http://www.sothink.com"
width="55px" height="58px"
xml:space="preserve">
<g id="2762" transform="matrix(1, 0, 0, 1, -3.55, 10.5)">
<path style="fill:#F8F8F8;fill-opacity:1" d="M5.25,29.65Q12.45 30.1 14.85 28.05Q15.15 29.6 12.9 31L17.5 30.1Q19.55 29.7 22.15 28.2L26 25.7L25.1 26.7Q22.2 30.2 20.8 31.1L22.5 30.85Q26.35 29.7 29.1 27.1Q29.15 29 30.35 29.3L33.8 28.85Q36.25 28.2 38.4 22.75Q38.55 24.45 37.5 28.75L38.8 29Q39 28.5 39.95 28.3L40.05 28.4L40.2 28.65L40.1 28.65L40 28.75Q42.6 27.9 44.3 22.65Q44.95 30.95 39.5 34.85Q40.1 31.3 37.15 30.35Q34.25 33.3 30.3 33.3Q32 31.75 30.65 31.1Q27.65 30.8 22.95 33.2L25.25 33.85L27.75 34.7L30.2 34.3L30.3 34.4L30.35 34.4L30.5 34.5L29.7 35.05L30.4 35.2L33.55 35.05Q34.85 35.9 36.6 36.45L37.25 36.5L39.65 35.95Q39.95 36 39.75 36.25L39.45 36.55Q43.4 36.3 45.95 33.9Q49.2 30.5 50.4 28.55Q51.25 31.2 49.25 38L48.2 40.85Q52.5 34.9 54.1 25.65L55.8 29.6L56.9 33.65L56.6 35.65Q55.5 38.05 53.7 40.1Q49 45.5 42.5 46.7Q27.6 48.85 14.1 40.45Q7.3 36.2 3.55 31.35L4.3 29.45L5.25 29.65M46.45,17.7L46.5 17.65L46.75 17.7Q47.25 19.5 46.7 21.4L46.6 21.55Q45.65 19.85 46.35 18.1Q45.95 18 46.45 17.7M42.05,20.1L42.1 20.2Q42.95 21.55 41.65 22.6L41.5 22.4Q41.4 21.3 41.75 20.3L41.8 20.25L42.05 20.1M52.1,25.65Q52.95 27.1 51.55 27.6L51.55 27.55Q51.2 26.3 52.05 25.6L52.1 25.65M16.6,26.15Q16.7 27.15 15.45 27.25L15.4 27.2Q15.5 26.45 16.55 26.15L16.6 26.15M31.15,26.7L31.55 26.4L33 24.9L34.6 22.1Q35.45 23.3 34.45 24.8Q33.15 26.5 31.25 26.95L31.15 26.7" />
<path style="fill:#E6B0F0;fill-opacity:1" d="M4.3,29.45Q5.5 26.45 6.2 25.3Q11.4 26.7 15.15 25.75Q18.85 24.5 20 23.5Q18.5 26.25 17.8 26.75Q23.35 25.6 27.85 20.9L30.75 17.3Q31 20.05 30.6 21.35L29 24.05Q31.95 22.85 33.45 21.05L35.75 17.55Q37.1 19.95 37 22.05Q38.65 20.6 39.85 18.25L41.65 13.75Q42.95 17.05 42.9 18.8Q44.5 17.7 45.65 14.1L46.3 10.8Q48.95 13.9 49.5 18.75Q50 23.35 48.9 25.4Q51.25 24 52.75 22.4L54.75 20.15L54.8 20.05Q55.9 22.35 56.45 25.05Q57.35 29.2 56.9 33.65L55.8 29.6L54.1 25.65Q52.5 34.9 48.2 40.85L49.25 38Q51.25 31.2 50.4 28.55Q49.2 30.5 45.95 33.9Q43.4 36.3 39.45 36.55L39.75 36.25Q39.95 36 39.65 35.95L37.25 36.5L36.6 36.45Q34.85 35.9 33.55 35.05L30.4 35.2L29.7 35.05L30.5 34.5L30.35 34.4L30.3 34.4L30.2 34.3L27.75 34.7L25.25 33.85L22.95 33.2Q27.65 30.8 30.65 31.1Q32 31.75 30.3 33.3Q34.25 33.3 37.15 30.35Q40.1 31.3 39.5 34.85Q44.95 30.95 44.3 22.65Q42.6 27.9 40 28.75L40.1 28.65L40.2 28.65L40.05 28.4L39.95 28.3Q39 28.5 38.8 29L37.5 28.75Q38.55 24.45 38.4 22.75Q36.25 28.2 33.8 28.85L30.35 29.3Q29.15 29 29.1 27.1Q26.35 29.7 22.5 30.85L20.8 31.1Q22.2 30.2 25.1 26.7L26 25.7L22.15 28.2Q19.55 29.7 17.5 30.1L12.9 31Q15.15 29.6 14.85 28.05Q12.45 30.1 5.25 29.65L4.3 29.45M46.35,18.1Q45.65 19.85 46.6 21.55L46.7 21.4Q47.25 19.5 46.75 17.7L46.5 17.65L46.45 17.7Q45.95 18 46.35 18.1M41.8,20.25L41.75 20.3Q41.4 21.3 41.5 22.4L41.65 22.6Q42.95 21.55 42.1 20.2L42.05 20.1L41.8 20.25M52.05,25.6Q51.2 26.3 51.55 27.55L51.55 27.6Q52.95 27.1 52.1 25.65L52.05 25.6M16.55,26.15Q15.5 26.45 15.4 27.2L15.45 27.25Q16.7 27.15 16.6 26.15L16.55 26.15M31.25,26.95Q33.15 26.5 34.45 24.8Q35.45 23.3 34.6 22.1L33 24.9L31.55 26.4L31.15 26.7L31.25 26.95" />
<path style="fill:#AF21F3;fill-opacity:1" d="M56.9,33.65Q57.35 29.2 56.45 25.05Q55.9 22.35 54.8 20.05L54.75 20.15L52.75 22.4Q51.25 24 48.9 25.4Q50 23.35 49.5 18.75Q48.95 13.9 46.3 10.8L45.65 14.1Q44.5 17.7 42.9 18.8Q42.95 17.05 41.65 13.75L39.85 18.25Q38.65 20.6 37 22.05Q37.1 19.95 35.75 17.55L33.45 21.05Q31.95 22.85 29 24.05L30.6 21.35Q31 20.05 30.75 17.3L27.85 20.9Q23.35 25.6 17.8 26.75Q18.5 26.25 20 23.5Q18.85 24.5 15.15 25.75Q11.4 26.7 6.2 25.3L6.6 24.1L11.45 24.3Q19 23.45 21.75 18.85Q22.6 20.4 22.25 22.2Q25.7 19.6 27.95 16.95Q30 14.4 31.2 11.35Q32.15 8.25 32.4 5.45Q35.15 7.95 34.95 10.25Q36.35 8.4 36.55 4.45Q36.6 0.2 34.25 -3.45Q35.65 -3.4 36.95 -2.15L38.55 0.1Q38.75 -4.9 34.05 -10.5Q37.6 -8.95 41.15 -5.6Q47.3 0.95 47.3 5.1L47.65 2.3L47.3 -0.5Q49.4 1.75 51.6 8.25Q52.6 11.05 53.05 13.8Q54 10.7 53.95 8.75L53.9 8.45L54.05 9.05Q60.9 24.7 57.05 34.6L56.6 35.65L56.9 33.65" />
</g>
</svg>
