<?xml version="1.0" encoding="utf-8"?>
<svg version="1.1" id="Layer_1"
xmlns="http://www.w3.org/2000/svg"
xmlns:xlink="http://www.w3.org/1999/xlink"
xmlns:author="http://www.sothink.com"
width="128px" height="127px"
xml:space="preserve">
<g id="3112" transform="matrix(1, 0, 0, 1, 40.05, 51)">
<path style="fill:#872EBD;fill-opacity:1" d="M-28.3,38.2Q-30.8 23.4 -26.05 18.8L-25.4 17.85Q-22.65 16.15 -16.95 15Q-11.7 13.95 -7.2 15.25Q-4.3 16.1 -0.4 18.6L-0.55 17.55Q-0.8 15.25 -2.05 13.4Q-5.9 8.05 -17.75 6.95L-19.15 2.45Q-21.25 -8.05 -14.5 -16.95Q-8.15 -21.9 -0.85 -23.35Q9.4 -25.4 15.05 -22.5Q17.05 -21.5 18.7 -19.8L18.95 -20.1Q25.15 -26.5 35.6 -28.55Q47.05 -30.85 60.2 -21.7Q64.6 -18.65 67.9 -15.05L68.8 -11.45Q70.5 -2.85 67.5 4.85Q63.8 14.25 54.45 16.15L47.3 16.8L47.8 17.8Q50.05 22.35 50.4 24.05Q52.4 34 49.85 42.05Q46.1 53.95 32.9 56.6Q13.85 60.35 3.35 46.65L2.05 44.85Q0.3 45.75 -2.05 46.2Q-11.9 48.15 -21.2 43.35Q-25.7 41.1 -28.3 38.2" />
<path style="fill:#621B8E;fill-opacity:1" d="M-21.2,43.35Q-11.9 48.15 -2.05 46.2Q0.3 45.75 2.05 44.85L3.35 46.65Q13.85 60.35 32.9 56.6Q46.1 53.95 49.85 42.05Q52.4 34 50.4 24.05Q50.05 22.35 47.8 17.8L47.3 16.8L54.45 16.15Q63.8 14.25 67.5 4.85Q70.5 -2.85 68.8 -11.45L67.9 -15.05Q74.65 -7.85 76.45 1.3Q79.05 14.4 72.35 24.3Q70.1 27.6 67.8 29.75L68 30.75Q70.4 42.8 66.15 54.6Q60.55 69.95 45.2 73.8Q29.8 77.65 21.6 74.55Q13.35 71.5 11.15 65.9L9.1 66.4Q-2.15 68.65 -12.7 63.1Q-24.7 56.8 -27.95 40.2L-28.3 38.2Q-25.7 41.1 -21.2 43.35M-25.4,17.85L-25 16.45Q-27.15 14.15 -27.3 4.9Q-27.45 -4.3 -19.15 -12.85Q-16.9 -15.2 -14.5 -16.95Q-21.25 -8.05 -19.15 2.45L-17.75 6.95Q-5.9 8.05 -2.05 13.4Q-0.8 15.25 -0.55 17.55L-0.4 18.6Q-4.3 16.1 -7.2 15.25Q-11.7 13.95 -16.95 15Q-22.65 16.15 -25.4 17.85" />
<path style="fill:#F079FF;fill-opacity:1" d="M25.1,-26.15Q26.05 -25.35 25.25 -22.95Q24.4 -20.6 21.95 -19.9L18.1 -19.35Q16.7 -19.5 15.75 -20.35Q14.75 -21.2 14.9 -22.95Q15 -24.7 17.5 -26Q19.35 -27 21.75 -27Q24.1 -27 25.1 -26.15M-5.75,-40.5Q-1.3 -40.5 0.5 -36.5Q1.5 -34.3 1.5 -31.5L1.45 -30.45L1.45 -30.4L1.4 -30.4Q-0.05 -29 -5.3 -29.6Q-10.55 -30.25 -11.35 -33.6Q-12.2 -37 -11.15 -39.2Q-8.4 -40.5 -5.75 -40.5M42,31Q37.45 37.5 29.75 37.5Q24.85 37.5 22.15 34.9L21.95 34.7Q27.5 30.9 27.5 26Q27.5 21.85 25.55 20.5Q24.3 19.65 23 20L23 21L23.5 21Q22.5 24.8 20.25 26.2Q18.25 27.5 14 27.5Q5.4 27.5 -1.2 22.2L-1.9 20Q-4.75 9.55 1.8 2.15Q8.45 -5.4 17 -6.8Q25.6 -8.35 31.7 -2.9Q35.8 0.65 36.5 4.55L36.55 6.3Q40.1 6.9 44.55 12.3Q45.7 13.65 46.5 15.2Q46.25 24.95 42 31M61.05,-46.15Q59 -43 55.25 -43Q50.15 -43 47 -45.5L46.05 -46.35Q46.35 -47.2 47 -47.9Q49.95 -51 55 -51Q59.7 -51 61.5 -47.5L61.65 -47.2L61.05 -46.15M66,42.5Q80.5 31.5 80.5 14.35Q80.5 4.85 75.25 -2Q68 -11.5 52.65 -11.5Q47 -11.5 43.45 -10.55L43.35 -11.1Q43.3 -15.1 49.4 -17.1Q54.15 -18.75 59.9 -18L62.85 -17.5Q70.15 -15.9 73.35 -13.55Q76.5 -11.35 78.95 -8.35Q81.4 -5.45 82.55 -3.35L84.1 0.15L84.55 1.3L86.1 6.8L86.95 12.6Q87.35 15.3 87.05 20.45Q86.75 25.5 85.45 29.75Q84.2 33.95 81.4 38.4Q78.5 42.85 72.6 47.05Q66.55 51.3 61.55 52.45Q56.4 53.6 51.5 53.6Q47.05 53.5 45.45 52.4L45.05 52.05L45 52Q57.1 49.25 66 42.5M57.65,6.9Q57.75 9.25 55.2 9.4L51.55 9.05Q50.5 8.55 50.5 6.95Q50.5 5.35 51.15 4.15Q51.8 2.95 53.1 2.3L53.95 2.2Q56.05 2.3 56.85 3.45Q57.55 4.5 57.65 6.9M36.75,61.75L38.95 61.8Q40.1 62.15 40.95 62.85Q43 64.6 43 66.75Q43 68.05 42.5 69Q41.45 71 38.8 71.1Q36.15 71.15 34.4 70.05Q32.65 68.95 32.7 67.3Q32.7 65.6 33.2 64.05Q33.7 62.5 36.75 61.75M17.5,54.55Q16.6 54.9 15.3 54.55Q13.95 54.15 13.5 53.15Q13.05 52.15 14 50.5Q14.7 48.85 16.95 49.1Q17.8 49.15 18.5 49.75Q19.2 50.35 19.45 51.45Q19.65 52.5 19 53.35Q18.35 54.15 17.5 54.55M-12.8,56Q-33.7 45.65 -33.5 21.85Q-33.5 18.2 -31.2 12.7Q-29.85 9.45 -28 6.4Q-21.4 1.85 -12.35 1Q-9 0.9 -6.75 2.05Q-4.55 3.2 -11.65 8.55Q-20 13.85 -22.15 21.35Q-24.35 28.85 -22.55 35.2Q-20.75 41.5 -17.2 45.15Q-13.65 48.7 -10.4 50.6Q-7.1 52.4 -1.1 54.8L4.95 56.9Q12.25 58.95 11.65 59.75L10.4 60.8L8.75 61.6L8.5 61.7Q-2.35 61.2 -12.8 56M-11.95,-12.05Q-9.95 -12.85 -8.2 -12.05Q-6.45 -11.25 -5.7 -10.2Q-5 -9.15 -5 -8.25Q-5 -5.5 -8 -5.5Q-14 -5.5 -14 -9.25Q-14 -11.3 -11.95 -12.05" />
<path style="fill:#DB2AF0;fill-opacity:1" d="M-2.6,-24.5Q-6.75 -22.5 -9.85 -22.35Q-12.95 -22.2 -14.75 -23.65Q-17.5 -25.5 -17.5 -30.25Q-17.5 -35.65 -12.5 -38.5L-11.15 -39.2Q-12.2 -37 -11.35 -33.6Q-10.55 -30.25 -5.3 -29.6Q-0.05 -29 1.4 -30.4L1.45 -30.4Q1.05 -26.3 -2.6 -24.5M-1.2,22.2Q5.4 27.5 14 27.5Q18.25 27.5 20.25 26.2Q22.5 24.8 23.5 21L23 21L23 20Q24.3 19.65 25.55 20.5Q27.5 21.85 27.5 26Q27.5 30.9 21.95 34.7L22.15 34.9Q24.85 37.5 29.75 37.5Q37.45 37.5 42 31Q46.25 24.95 46.5 15.2Q48.8 19.7 48.15 25.65Q47.4 33.65 40.75 39.35Q34.25 44.9 28.55 44.55Q24.1 44.25 19.8 40.4L17.05 37.65L16.1 37.55L12.65 36.8Q8.85 35.6 5.25 32.45Q1 28.65 -1.2 22.2M61.65,-47.2Q62.5 -45.4 62.5 -43Q62.5 -38.8 59.5 -37Q57 -35.5 52.45 -35.7Q47.9 -35.9 45.8 -42.45Q45.35 -44.75 46.05 -46.35L47 -45.5Q50.15 -43 55.25 -43Q59 -43 61.05 -46.15L61.65 -47.2M45,52Q44.2 51.05 44.2 50.45Q44.15 49.9 44.55 49.55L47 48.7L50.35 47.6Q52.35 47 55.2 45.6L59.75 43Q61.55 41.75 64.25 38.95Q66.9 36.2 68.65 32.95L71.25 27L72.6 21.45Q73.05 18.6 72.95 14.7Q72.8 10.7 71.3 6.8Q69.75 2.8 67.9 0.4L64.45 -3.45L60.75 -5.95Q58.65 -7 55.95 -7.7L49.45 -8.25Q45.65 -8.2 44.5 -9.15Q43.7 -9.85 43.45 -10.55Q47 -11.5 52.65 -11.5Q68 -11.5 75.25 -2Q80.5 4.85 80.5 14.35Q80.5 31.5 66 42.5Q57.1 49.25 45 52M-28,6.4Q-29.85 9.45 -31.2 12.7Q-33.5 18.2 -33.5 21.85Q-33.7 45.65 -12.8 56Q-2.35 61.2 8.5 61.7L5.3 62.5L0.75 63.15L-0.4 63.1Q-18.05 62.8 -29.25 52.4Q-40.15 42.3 -40.05 26.8Q-40 17.75 -32.2 9.95Q-30.25 7.95 -28 6.4" />
</g>
</svg>
