<?xml version="1.0" encoding="utf-8"?>
<svg version="1.1" id="Layer_1"
xmlns="http://www.w3.org/2000/svg"
xmlns:xlink="http://www.w3.org/1999/xlink"
xmlns:author="http://www.sothink.com"
width="47px" height="44px"
xml:space="preserve">
<g id="3103" transform="matrix(1, 0, 0, 1, -2, 17.7)">
<path style="fill:#FFFFFF;fill-opacity:1" d="M33.35,10.7L36 15.45L28.7 11.6L28.65 17.15L24.95 11.95L22.85 16.7L20.9 12.05L13.55 18.45L17.35 10.4L12.95 12.15L15 9.7L11.45 9L14.75 8L6.35 -0.65L18.15 4.45L17.55 1.65L20.05 3L19.8 -0.6L22 1.05L21.65 -4.25L24.8 2.15L27.35 -2.45L28.3 1.6L34.35 -5.25L31.5 4.9L37.05 4.15L33.7 7.8L39.05 10.65L33.35 10.7" />
<path style="fill:#CD5F1C;fill-opacity:1" d="M19.4,-15.65Q19.45 -16.3 20.15 -13.85L20.95 -11.2L24.75 -0.95L28.6 -7.95L29.35 -1.75L41.15 -17.7L33.6 2.9L39.9 2.55L40.2 2.65L40.35 2.85L40.4 3.15L40.25 3.4L36.25 7.2Q41.25 10.55 48.1 12.8L36.1 12.5L40.4 19.45L30.05 14.05L30.2 22.2L25.15 15.55L22.7 20.75L22.2 19.45L22.15 19.4L20.25 14.75L12.95 21.35L9.55 24.7L8 26.2Q7.55 26.6 8.7 24.6L9.95 22.45L14.4 13.25L10.3 14.95L9.05 15.45L8.7 15.55L8.5 15.6Q8 15.55 8.05 15.2L8 15.2Q7.85 15 8.15 14.7L10.3 12.65L12.05 10.9L6.2 10.55L5.9 10.45L5.7 10.15L5.8 9.8L6 9.6L11.75 7.25L7.05 2.1L4.45 -0.6L2 -3.2L15.9 1.95L12.55 -4.2L18.3 0.55L17.25 -5.15L18.1 -4.45L18.55 -4L20.65 -2.15L19.95 -11L19.65 -13.1Q19.35 -15 19.4 -15.65M39.05,10.65L33.7 7.8L37.05 4.15L31.5 4.9L34.35 -5.25L28.3 1.6L27.35 -2.45L24.8 2.15L21.65 -4.25L22 1.05L19.8 -0.6L20.05 3L17.55 1.65L18.15 4.45L6.35 -0.65L14.75 8L11.45 9L15 9.7L12.95 12.15L17.35 10.4L13.55 18.45L20.9 12.05L22.85 16.7L24.95 11.95L28.65 17.15L28.7 11.6L36 15.45L33.35 10.7L39.05 10.65" />
</g>
</svg>
