<?xml version="1.0" encoding="utf-8"?>
<svg version="1.1" id="Layer_1"
xmlns="http://www.w3.org/2000/svg"
xmlns:xlink="http://www.w3.org/1999/xlink"
xmlns:author="http://www.sothink.com"
width="11px" height="16px"
xml:space="preserve">
<g id="1548" transform="matrix(1, 0, 0, 1, 0, 0)">
<linearGradient
id="LinearGradID_1812" gradientUnits="userSpaceOnUse" gradientTransform="matrix(0, 0.00598145, -0.00491333, 0, -81.6, 8.65)" spreadMethod ="pad" x1="-819.2" y1="0" x2="819.2" y2="0" >
<stop  offset="0" style="stop-color:#FFF980;stop-opacity:1" />
<stop  offset="1" style="stop-color:#E7950A;stop-opacity:1" />
</linearGradient>
<path style="fill:url(#LinearGradID_1812) " d="M10.9,1.8Q10.95 2.3 10.3 3.15L9.2 4.65L9.2 4.7Q8.6 5.45 7.95 6.65Q7.25 7.8 6.75 9.5L6.4 10.7L6.2 12.05L6 13.3Q5.75 14.4 5.35 14.9L5.3 14.9Q4.75 15.45 3.9 15.45Q3.15 15.45 2.6 14.9L2.55 14.85Q2.1 14.3 2.1 13.3Q2.1 12.65 2.4 11.5L3.3 8.9Q3.85 7.35 4.8 5.7L6.35 3.3L2.1 3.3Q1.1 3.3 0.6 2.9Q0 2.45 0 1.6Q0 0.55 0.7 0.25L2.1 0L8.6 0Q9.75 0 10.3 0.4Q10.9 0.8 10.9 1.8" />
<path style="fill:#FFFFFF;fill-opacity:1" d="M8.9,0.7L8.9 0.65Q10.1 0.9 10.2 2.05L10.1 2.1Q8.65 2.9 8.1 1.5Q8.2 0.9 8.9 0.7M1.4,0.7L1.4 0.65Q2.6 0.9 2.7 2.05L2.6 2.1Q1.15 2.9 0.6 1.5Q0.7 0.9 1.4 0.7" />
</g>
</svg>
