<?xml version="1.0" encoding="utf-8"?>
<svg version="1.1" id="Layer_1"
xmlns="http://www.w3.org/2000/svg"
xmlns:xlink="http://www.w3.org/1999/xlink"
xmlns:author="http://www.sothink.com"
width="27px" height="34px"
xml:space="preserve">
<g id="3022" transform="matrix(1, 0, 0, 1, 0, 0)">
<path style="fill:#000000;fill-opacity:1" d="M17.3,33.2Q13.05 33.65 11.25 30.85Q10.8 28 9.05 26Q7.3 24 5.85 22.85L3.65 20.75Q2.85 19.85 1.95 18.35Q1 16.8 0.2 13.2Q-0.6 9.6 1.75 5.35Q4.05 1.05 9.5 0.15Q12.65 -0.35 15 0.85Q17.35 2.05 17.75 4L18.35 7.45Q18.55 8.9 19.45 10.9Q20.3 12.85 23.65 15.35Q26.95 17.85 26.85 21.1Q26.7 23.95 25.5 24.45L25.15 24.55Q26.7 21.15 24.15 17.95Q18.85 13.3 17.85 10.7Q16.9 8.1 16.55 5.7Q16.15 3.25 14.4 2.05Q12.65 0.8 8.75 1.65Q4.8 2.5 2.7 6.15Q0.6 9.8 1.65 14.1Q2.65 18.4 6.95 22.15Q11.2 25.8 12.55 30.65Q15.75 33.3 22.05 30L21.9 30.45Q21.15 32.8 17.3 33.2" />
<path style="fill:#201619;fill-opacity:1" d="M25.25,25.15Q24.1 28.15 21.9 30.45L22.05 30Q15.75 33.3 12.55 30.65Q11.2 25.8 6.95 22.15Q2.65 18.4 1.65 14.1Q0.6 9.8 2.7 6.15Q4.8 2.5 8.75 1.65Q12.65 0.8 14.4 2.05Q16.15 3.25 16.55 5.7Q16.9 8.1 17.85 10.7Q18.85 13.3 24.15 17.95Q26.7 21.15 25.15 24.55L25.5 24.45L25.25 25.15" />
</g>
</svg>
