<?xml version="1.0" encoding="utf-8"?>
<svg version="1.1" id="Layer_1"
xmlns="http://www.w3.org/2000/svg"
xmlns:xlink="http://www.w3.org/1999/xlink"
xmlns:author="http://www.sothink.com"
width="33px" height="41px"
xml:space="preserve">
<g id="2041" transform="matrix(1, 0, 0, 1, 13.05, 6.8)">
<path style="fill:#7B0ABF;fill-opacity:1" d="M-3.8,1.6L-3.45 1.45Q-1.95 1.2 -1.9 0.05Q-1.4 1.1 -0.05 0.9Q1.2 0.75 1.35 -1.3Q1.85 -1.55 2.15 -2.05Q2.8 -2.9 1.9 -4Q2.3 -3.75 2.45 -5.15Q2.5 -6.15 1.65 -6.8Q2.5 -6.65 3.1 -6Q3.5 -5.05 3.2 -4.2L3.15 -4.15L3.3 -4L3.6 -3.65Q4.1 -2.9 3.85 -1.95Q3.6 -1.2 2.95 -0.8L2.8 0.75Q2.55 1.75 1.55 2.35Q0.6 2.95 -0.5 2.7Q-1.25 2.7 -1.55 2.3L-2.15 1.85L-3.4 1.8L-3.8 1.6M4.1,2.15Q4.8 2.25 5.1 2.9L5.3 2.9L5.65 2.95Q6.35 3 6.7 3.8L6.9 4.4L6.9 4.9L7.65 5.7Q8.05 6.4 7.85 7.45Q7.75 8.2 7.05 8.75L6.15 9L5.7 9.05L4.95 9.7L4.6 9.85L4.8 9.6Q5.3 8.7 4.85 8.05Q5.65 8.25 6.2 7.5Q6.85 6.65 5.75 5.55L5.8 4.75L5.75 4.7Q5.65 3.9 4.5 3.75Q4.85 3.7 4.15 2.9Q3.65 2.35 2.85 2.45Q3.45 1.95 4.1 2.15M6.9,13.45Q7.7 13.95 8 14.75Q8.2 15.55 7.65 16.35L7.65 16.5L7.75 16.6L7.9 17.05Q8.05 17.9 7.6 18.7Q7.25 19.45 6.35 19.7L5.9 21Q5.25 21.9 4.15 22.2L1.95 22.1L1.1 21.3L0.75 20.65L-0.35 20.25L-0.85 19.9L-0.3 20.05Q1.1 20.1 1.4 19.15Q1.75 20.15 3 20.4Q4.25 20.6 5.05 18.65L5.95 18.4Q6.95 17.65 6.3 16.3Q6.7 16.65 7.2 15.35Q7.5 14.4 6.9 13.45M4.6,31.85Q4.4 30.2 3.05 29.95Q4.25 29.4 4.35 27.8Q4.2 26.25 1.75 25.75L1.05 24.7L-1.55 24.75Q-1.2 24.3 -2.85 24.05Q-3.9 23.9 -4.8 24.75Q-4.6 23.65 -3.65 23.2Q-2.7 22.75 -1.65 23.2L-1.55 23.25L-1.45 23.15L-0.95 22.85L1.15 22.7Q2.2 23.05 2.6 23.95L4.3 24.2Q5.6 24.7 6.3 25.95Q6.85 27.25 6.45 28.6Q6.3 29.3 5.8 29.85L5.05 30.4L5 31.9L4.6 32.4L4.6 31.85M18.45,17.65Q18.35 16.85 17.65 16.9Q18.15 16.45 18.05 15.75Q17.9 15.1 16.85 15L16.5 14.5Q16 14.15 15.35 14.75Q15.5 14.55 14.7 14.45Q14.25 14.5 13.85 14.95Q13.9 14.35 14.25 14.15Q14.7 13.75 15.2 13.95L15.35 13.9L15.45 13.75Q15.85 13.55 16.2 13.5L16.4 13.55L17.15 14.1L17.9 14L18.9 14.8L19.1 15.75L19.05 16L18.8 16.65L18.6 16.95L18.65 17.7L18.55 17.95L18.45 17.65M-9.55,-4.25Q-9.2 -3.85 -9.35 -3.4L-9.75 -2.9Q-9.85 -2.8 -9.95 -2.8L-10 -2.3Q-10.1 -1.65 -10.7 -1.4Q-11.15 -1.05 -11.7 -1.2L-12.25 -1.55L-12 -1.55Q-10.85 -2 -10.9 -3.1L-10.2 -3.65Q-9.9 -4.1 -10.1 -4.7Q-9.7 -4.6 -9.55 -4.25" />
<path style="fill:#B133FF;fill-opacity:1" d="M2.45,-5.15Q2.3 -3.75 1.9 -4Q2.8 -2.9 2.15 -2.05Q1.85 -1.55 1.35 -1.3Q1.2 0.75 -0.05 0.9Q-1.4 1.1 -1.9 0.05Q-1.95 1.2 -3.45 1.45L-3.8 1.6L-4.55 0.75Q-5.1 0.05 -5 -0.8L-4.5 -1.65Q-5.25 -3 -4.9 -4.2Q-4.65 -5.6 -3.4 -6.35Q-2.15 -7 -0.8 -6.75L-0.1 -6.55L0.5 -6.75L1.65 -6.8Q2.5 -6.15 2.45 -5.15M3.85,9.9Q3.15 9.7 2.75 9.3L2.45 8.55Q1.25 8.25 0.7 7.45L0.4 6.95Q0.2 6.3 0.45 5.5Q0.6 4.45 1.55 3.8L2.1 3.55L2.3 3.1Q2.4 2.7 2.8 2.45L2.85 2.45Q3.65 2.35 4.15 2.9Q4.85 3.7 4.5 3.75Q5.65 3.9 5.75 4.7L5.8 4.75L5.75 5.55Q6.85 6.65 6.2 7.5Q5.65 8.25 4.85 8.05Q5.3 8.7 4.8 9.6L4.6 9.85L3.85 9.9M7.2,15.35Q6.7 16.65 6.3 16.3Q6.95 17.65 5.95 18.4L5.05 18.65Q4.25 20.6 3 20.4Q1.75 20.15 1.4 19.15Q1.1 20.1 -0.3 20.05L-0.85 19.9L-1.3 19Q-1.6 18.2 -1.25 17.4L-0.55 16.65Q-0.95 15.35 -0.25 14.05Q0.4 12.9 1.85 12.45Q3.25 12.1 4.5 12.8L5.05 13.25L5.75 13.2L6.85 13.45L6.9 13.45Q7.5 14.4 7.2 15.35M4.6,32.4L3.6 33.3L1.65 33.5Q1 33.35 0.7 32.85L-2.6 33.1Q-4.2 32.5 -4.9 30.95Q-5.75 29.35 -5.2 27.75L-4.75 26.9L-4.9 26.15Q-5.1 25.45 -4.9 24.8L-4.8 24.75Q-3.9 23.9 -2.85 24.05Q-1.2 24.3 -1.55 24.75L1.05 24.7L1.75 25.75Q4.2 26.25 4.35 27.8Q4.25 29.4 3.05 29.95Q4.4 30.2 4.6 31.85L4.6 32.4M13.85,14.95Q14.25 14.5 14.7 14.45Q15.5 14.55 15.35 14.75Q16 14.15 16.5 14.5L16.85 15Q17.9 15.1 18.05 15.75Q18.15 16.45 17.65 16.9Q18.35 16.85 18.45 17.65L18.55 17.95L18.15 18.35L17.2 18.6L16.85 18.35Q16.15 18.8 15.6 18.65L15.4 18.65Q14.6 18.55 14.2 17.9Q13.75 17.25 13.9 16.35L14.1 15.95L13.85 15.55L13.85 15L13.85 14.95M-12.55,-1.7L-12.6 -2.5L-12.8 -2.75Q-13.1 -3.3 -13 -3.8L-12.35 -4.75L-11.2 -4.95L-10.6 -4.65L-10.1 -4.7Q-9.9 -4.1 -10.2 -3.65L-10.9 -3.1Q-10.85 -2 -12 -1.55L-12.25 -1.55Q-12.4 -1.55 -12.55 -1.7" />
</g>
</svg>
