<?xml version="1.0" encoding="utf-8"?>
<svg version="1.1" id="Layer_1"
xmlns="http://www.w3.org/2000/svg"
xmlns:xlink="http://www.w3.org/1999/xlink"
xmlns:author="http://www.sothink.com"
width="77px" height="66px"
xml:space="preserve">
<g id="848" transform="matrix(1, 0, 0, 1, 0, 0.05)">
<path style="fill:#4E2F1B;fill-opacity:1" d="M10,55.45L9.8 55.45L7.15 55.2L4.95 54.6L4.9 54.55Q0 52.3 0 45.05L0 44.95L0 11L0 10.6Q0 0.05 10 0.05L65.5 -0.05Q65.45 2.15 64.55 2.2L13.45 2.3Q2.25 2.3 2.25 12.4L2.25 12.8L2.25 14.1L2.25 14.5L2.25 45.3L2.25 45.4L2.25 45.85Q2.45 55.15 12.7 55.45L10 55.45" />
<path style="fill:#FAD19E;fill-opacity:1" d="M63.55,57L63.65 57.4L63.7 62Q63.75 64.75 63.05 65.05L61.4 57.2L13.05 57.2Q7.65 57.1 4.95 54.6L7.15 55.2L9.8 55.45L10 55.45L12.7 55.45L63 55.45L63.55 57" />
<path style="fill:#4C2E16;fill-opacity:1" d="M63,55.45L64.95 55.45L65.5 57.2L63.95 57.2L63.8 57.05L63.7 57.5L63.7 57.25L63.6 56.95L63.55 57L63 55.45" />
<path style="fill:#5E3F23;fill-opacity:1" d="M63,55.45L12.7 55.45Q2.45 55.15 2.25 45.85L2.25 45.4L2.25 45.3L2.25 14.5L2.25 14.1L2.25 12.8L2.25 12.4Q2.25 2.3 13.45 2.3L64.55 2.2L76.05 2.3Q76.95 3.35 76.75 30.2Q76.6 44 76.8 52.5Q74.4 55.35 69.4 55.45L69.25 55.45L69.1 55.45L68.95 55.45L64.95 55.45L63 55.45" />
</g>
</svg>
