<?xml version="1.0" encoding="utf-8"?>
<svg version="1.1" id="Layer_1"
xmlns="http://www.w3.org/2000/svg"
xmlns:xlink="http://www.w3.org/1999/xlink"
xmlns:author="http://www.sothink.com"
width="51px" height="64px"
xml:space="preserve">
<g id="698" transform="matrix(1, 0, 0, 1, 2.95, 0)">
<path style="fill:#101010;fill-opacity:1" d="M41.3,46.7Q43 48.9 46.95 49.5L47.25 49.5Q48.2 49.45 46.95 51.2Q45.55 52.7 43.1 53.7Q39.25 55.3 36.3 54.65Q35.95 57.4 34.65 59.25Q33.35 61.05 32.5 61.5Q31.6 61.9 30.9 60.75L29.5 58.75Q28.5 57.75 27.35 57.15Q26.15 56.5 25.9 56.9Q25.6 57.25 25.95 58.6L26.3 60.4Q26.35 61 25.75 61.1Q22.05 61.85 17.55 58.65L15.95 61Q14.7 62.45 12.85 63.35Q11 64.2 9.95 63.8L10.3 62.15Q11 58.25 9.95 56Q5.75 60.6 -1.55 55.7L-2.25 55.15Q-4.2 53.8 -0.9 52.75Q2.55 51.05 3.65 48.35L3.8 47.95L5.15 43.3L5.85 40.1Q6.2 38.3 7.15 36.95Q9 34.45 13.15 33.75L28.2 31.25Q36.85 29.9 38.25 37.2L38.45 38.25Q39.3 42.35 40.25 44.7L41.15 46.45L41.3 46.7M0.6,54.25L0.45 54.45Q3.6 56.45 6.35 55.8Q8.4 55.3 9.35 54.15L9.85 53.4Q10.65 53.55 11.2 54.25Q12.65 56 12.2 61.35L12.2 61.4Q14.65 60.95 16.4 55.1Q20.25 59.3 24.35 59.55L24.65 59.6Q23.75 58.45 23.95 56.75L24.3 54.75L24.35 54.6L26 54.5Q30.55 55.85 32.2 59.75L32.8 59.1Q34.2 57.4 34.9 54.55Q35.1 53 35.5 52.45Q36 51.75 36.85 52.6Q40.6 53.6 44.55 51L44.95 50.7Q43.55 50.45 41.75 49.3Q39.9 48.15 39.25 46.9Q38.6 45.8 38.9 44.65Q37.35 42.9 36.35 40.15Q35.95 39 35.35 38.1Q33.65 35.65 30.35 34.75Q19.7 31.95 13.1 37.2Q10.4 39.3 8.4 42.65L7.95 43.4Q6.95 45.1 7.25 45.15L7.15 45.45L5.5 48.8Q3.95 51.55 2.6 52.65L0.6 54.25" />
<path style="fill:#1E1415;fill-opacity:1" d="M37.2,47.6L36.3 47.9L35.7 48.25L35.8 48.4L36.3 49Q37.7 50.05 39.3 50.65L42.5 51.25L43.1 51.2L44.2 51.05L44.55 51Q40.6 53.6 36.85 52.6Q36 51.75 35.5 52.45L34.6 50.9L33.7 49.95L33.6 49.85L33.15 50.25Q32.05 51.15 32.15 52.6Q32.2 53.4 31.85 53.85L31.5 53.85L30.5 53.7L30.1 53.65L29.65 53.6L30.05 54.05L30.65 54.7Q31.8 56.1 32.5 57.8L32.65 58.2L32.75 58.7L32.8 59.1L32.2 59.75Q30.55 55.85 26 54.5L24.35 54.6L24.3 54.75L24.1 54.5Q23.45 53.6 22.5 53.15L21.5 52.8Q20.3 52.6 19.2 53.25Q19.35 54.2 20.25 55.85Q21.1 57.45 22.55 58.2Q23.95 58.9 24.35 59.55Q20.25 59.3 16.4 55.1Q14.65 60.95 12.2 61.4L12.2 61.35Q13 60.45 13.4 59.3L13.8 58.3L14.2 56.9L14.2 56.6L13.75 55.8L13.35 55.25Q12.35 54.4 11.2 54.25Q10.65 53.55 9.85 53.4L9.35 54.15Q8.4 55.3 6.35 55.8Q3.6 56.45 0.45 54.45L0.6 54.25L0.8 54.25L1.6 54.3L4.25 54.15L5.3 53.9L5.95 53.55L6.25 53.25L7.45 51.8L7.35 51.2L7.1 50.7L6.4 49.65L5.5 48.8L7.15 45.45L7.25 45.15Q6.95 45.1 7.95 43.4L8.4 42.65Q10.4 39.3 13.1 37.2Q19.7 31.95 30.35 34.75Q33.65 35.65 35.35 38.1Q35.95 39 36.35 40.15Q37.35 42.9 38.9 44.65Q38.6 45.8 39.25 46.9L37.2 47.6" />
<path style="fill:#695F62;fill-opacity:1" d="M2.6,52.65Q3.95 51.55 5.5 48.8L6.4 49.65Q5.85 51.65 4.1 53.05L3.3 53.5L2.7 53.7L3.1 53.8L3.4 53.95L4.25 54.15L1.6 54.3L0.8 54.25L0.6 54.25L2.6 52.65M34.9,54.55Q34.2 57.4 32.8 59.1L32.75 58.7L32.65 58.2Q33.15 57.55 33.3 56.7L33.55 55.4L33.8 51.7L33.8 50.8L33.7 49.95L34.6 50.9L35.5 52.45Q35.1 53 34.9 54.55M42.8,50.7L42.5 50.7L42.3 50.65L41.4 50.25Q39.95 49.65 38.6 48.8L38.05 48.35L37.45 47.85L37.2 47.6L39.25 46.9Q39.9 48.15 41.75 49.3Q43.55 50.45 44.95 50.7L44.55 51L44.2 51.05L43.1 51.2L42.5 51.25L42.8 50.7" />
<path style="fill:#3F3437;fill-opacity:1" d="M6.4,49.65L7.1 50.7L7.35 51.2L7.45 51.8L6.25 53.25L5.95 53.55L5.3 53.9L4.25 54.15L3.4 53.95L3.1 53.8L2.7 53.7L3.3 53.5L4.1 53.05Q5.85 51.65 6.4 49.65M11.2,54.25Q12.35 54.4 13.35 55.25L13.75 55.8L14.2 56.6L14.2 56.9L13.8 58.3L13.4 59.3Q13 60.45 12.2 61.35Q12.65 56 11.2 54.25M23.95,56.75Q23.75 58.45 24.65 59.6L24.35 59.55Q23.95 58.9 22.55 58.2Q21.1 57.45 20.25 55.85Q19.35 54.2 19.2 53.25Q20.3 52.6 21.5 52.8L22.5 53.15Q23.45 53.6 24.1 54.5L24.3 54.75L23.95 56.75M33.8,50.8L33.8 51.7L33.55 55.4L33.3 56.7Q33.15 57.55 32.65 58.2L32.5 57.8Q31.8 56.1 30.65 54.7L30.05 54.05L29.65 53.6L30.1 53.65L30.5 53.7L31.5 53.85L31.85 53.85Q32.2 53.4 32.15 52.6Q32.05 51.15 33.15 50.25L33.6 49.85L33.7 49.95L33.8 50.8M42.5,51.25L39.3 50.65Q37.7 50.05 36.3 49L35.8 48.4L35.7 48.25L36.3 47.9L37.2 47.6L37.45 47.85L38.05 48.35L38.6 48.8Q39.95 49.65 41.4 50.25L42.3 50.65L42.5 50.7L42.8 50.7L42.5 51.25" />
<path style="fill:#12151E;fill-opacity:1" d="M43.2,37.25L43.05 37.05L43.15 37.15L43.2 37.25" />
<path style="fill:#1F374D;fill-opacity:1" d="M26.3,22.7L29 23.3Q30.55 23.8 32 26Q33.4 28.2 32.6 30.85Q31.6 35.1 27 35.4L26.9 35.45L25.7 35.4L23.7 35.65Q22.9 36 20.8 34.35Q18.7 32.65 18.2 30.05Q17.7 27.4 19.2 25.75Q20.65 24.1 21.7 23.4Q22.7 22.7 23.9 22.65L26.3 22.7" />
<path style="fill:#19213C;fill-opacity:1" d="M42.55,36.6L42.6 38.4L42.5 40.15L42.25 42.05L41.6 44.8L40.85 46.1L36.85 46.75Q31.95 48.2 31.2 50.4Q30.8 51.6 29.85 51.9L27.15 51.55Q22.85 51.05 20 51.5Q16.5 52.05 15.6 52.7L14.4 53.45L13.85 53.55L13.65 53.5L13.1 53.3Q11.7 50.65 9.1 49Q7.05 47.7 5.6 47.35L4.9 47.25L2.05 47.1Q1.15 46.95 2.25 43.2L2.6 42.05Q3.45 39.4 3.05 36.8Q2.75 34.55 1.5 32.3Q-1.15 27.45 0.9 27L2.15 26.6Q4.2 25.85 5.8 24.65L6.35 24.2Q8.1 22.7 9.25 20.55Q10.85 17.55 11.3 13.35Q11.4 12.45 11.8 11.95Q12 11.65 12.95 11.65L17 12.05L18.6 12.25Q23 12.8 28.6 16.15Q34.25 19.55 38.75 26.8Q40.15 29.05 41.05 31.25Q42.2 34.05 42.5 36.65L42.55 36.6M15.95,43.55L15.7 43.75Q14.6 44.45 14.05 44.3L13.95 44.25L13.1 43.8L12.95 43.6L10.65 42L10.2 41.75Q8.65 40.85 6.7 40.8L4.75 40.9L4.15 43.25L4 43.85L3.65 45.05L6.4 45.6Q11.15 46.9 13.8 51.05Q16.3 50 19.45 49.45Q24.6 48.55 29.15 50.15Q30.15 48 32.45 46.5Q34.2 45.35 37.5 44.8L38.35 44.65L39.85 44.45L40.5 42L40.75 38.9L40.7 38.35L40.65 37.55Q39.8 37.1 38.2 37L35.5 36.95Q33.5 37.05 32.05 38Q30.9 38.75 30.1 40.05L27.8 43.25L26.45 43.2L23.85 42.2Q22.1 41.6 19.7 42.15Q17.55 42.55 16.25 43.35L15.95 43.55M6.55,38.85Q8.8 38.9 10.65 39.6Q12.7 40.4 14.3 42.1L14.6 42.45Q17.3 40.75 20.05 40.25Q25.15 39.45 27.15 41.6Q27.15 41.05 28.25 39.4L29.55 37.9Q31.6 35.9 34.6 35.5L34.85 35.45L37.85 35.25L40.3 35.6Q39.8 33.3 38.65 30.8Q37.6 28.45 36 26L35.95 25.9L35.9 25.85Q31.75 19.5 25.15 16.7Q22.75 15.7 20.65 15.05L17.4 14.3L16.15 14.1L15.9 14.1L13.9 14Q13.25 17.8 10.7 22.5L10.6 22.7Q9.3 24.8 7.35 26.3L7.1 26.45Q5.55 27.55 3.5 28.2L2.05 28.6Q4.2 32.6 4.55 36.85L4.6 38.95L6.55 38.85" />
<path style="fill:#1D3E5D;fill-opacity:1" d="M13.9,44.9L13.45 46.35L13.3 46.75L13.85 47.05L14.75 47.9Q15.25 47.45 15.9 47.1Q16.45 46.8 17.05 46.65L24.65 46.4Q26.25 46.65 27.6 47.55L27.65 47.4Q29 45.55 31.05 44.35Q32.2 43.6 33.65 43.15L35.25 42.7L38 42.15L40.25 42L40.5 42L39.85 44.45L38.35 44.65L37.5 44.8Q34.2 45.35 32.45 46.5Q30.15 48 29.15 50.15Q24.6 48.55 19.45 49.45Q16.3 50 13.8 51.05Q11.15 46.9 6.4 45.6L6.75 43.35L6.75 42.5L6.7 40.8Q8.65 40.85 10.2 41.75L10.65 42L12.95 43.6L13.1 43.8L13.95 44.25L14.05 44.3L13.9 44.9M10.65,39.6Q8.8 38.9 6.55 38.85L6.3 36.95L6.15 36.2L5.4 33L4.55 30.3L3.5 28.2Q5.55 27.55 7.1 26.45L7.35 26.3Q9.3 24.8 10.6 22.7L10.7 22.5Q13.25 17.8 13.9 14L15.9 14.1L16.15 14.1L17.4 14.3L17.4 16L16.95 19.1Q16.55 20.9 15.65 22.6L14.25 24.95L12.7 27.2L12.45 27.55L12.95 29.5L13.65 32.4L14.15 35.3L14.3 37.25L14.3 38.1L14.3 41.9L14.3 42.1Q12.7 40.4 10.65 39.6" />
<path style="fill:#286593;fill-opacity:1" d="M14.05,44.3Q14.6 44.45 15.7 43.75L15.95 43.55L16.25 43.35L19.65 43.25Q24.1 43.35 25.85 44.15L26.6 44.6L27.05 44.9Q27.6 45 28.3 44.25L28.5 44Q31.15 40.75 32.75 39.7Q35.4 37.95 38.3 38.3L38.3 38.4L38.05 41.9L38 42.15L35.25 42.7L33.65 43.15Q32.2 43.6 31.05 44.35Q29 45.55 27.65 47.4L27.6 47.55Q26.25 46.65 24.65 46.4L17.05 46.65Q16.45 46.8 15.9 47.1Q15.25 47.45 14.75 47.9L13.85 47.05L13.3 46.75L13.45 46.35L13.9 44.9L14.05 44.3M6.75,42.5L6.75 43.35L6.4 45.6L3.65 45.05L4 43.85L4.15 43.25L4.75 40.9L6.7 40.8L6.75 42.5M34.85,35.45L34.6 35.5Q31.6 35.9 29.55 37.9L28.25 39.4Q27.15 41.05 27.15 41.6Q25.15 39.45 20.05 40.25Q17.3 40.75 14.6 42.45L14.3 42.1L14.3 41.9L14.3 38.1L14.3 37.25L14.15 35.3L13.65 32.4L12.95 29.5L12.45 27.55L12.7 27.2L14.25 24.95L15.65 22.6Q16.55 20.9 16.95 19.1L17.4 16L17.4 14.3L20.65 15.05L22.4 15.65Q24.15 16.25 25.7 17.25Q27.35 18.3 28.7 19.7L31.3 22.6L32.5 24.1L34.15 26.65L35.2 28.6L36.65 31.7L37.8 35L37.85 35.25L34.85 35.45M23.9,22.65Q22.7 22.7 21.7 23.4Q20.65 24.1 19.2 25.75Q17.7 27.4 18.2 30.05Q18.7 32.65 20.8 34.35Q22.9 36 23.7 35.65L25.7 35.4L26.9 35.45L27 35.4Q31.6 35.1 32.6 30.85Q33.4 28.2 32 26Q30.55 23.8 29 23.3L26.3 22.7L23.9 22.65M4.6,38.95L4.55 36.85Q4.2 32.6 2.05 28.6L3.5 28.2L4.55 30.3L5.4 33L6.15 36.2L6.3 36.95L6.55 38.85L4.6 38.95" />
<path style="fill:#6CACE7;fill-opacity:1" d="M40.25,42L38 42.15L38.05 41.9L38.3 38.4L38.3 38.3Q35.4 37.95 32.75 39.7Q31.15 40.75 28.5 44L28.3 44.25Q27.6 45 27.05 44.9L26.6 44.6L25.85 44.15Q24.1 43.35 19.65 43.25L16.25 43.35Q17.55 42.55 19.7 42.15Q22.1 41.6 23.85 42.2L26.45 43.2L27.8 43.25L30.1 40.05Q30.9 38.75 32.05 38Q33.5 37.05 35.5 36.95L38.2 37Q39.8 37.1 40.65 37.55L40.7 38.35L40.75 38.9L40.5 42L40.25 42M25.15,16.7Q31.75 19.5 35.9 25.85L35.95 25.9L36 26Q37.6 28.45 38.65 30.8Q39.8 33.3 40.3 35.6L37.85 35.25L37.8 35L36.65 31.7L35.2 28.6L34.15 26.65L32.5 24.1L31.3 22.6L28.7 19.7Q27.35 18.3 25.7 17.25Q24.15 16.25 22.4 15.65L20.65 15.05Q22.75 15.7 25.15 16.7" />
<path style="fill:#F0EAC6;fill-opacity:1" d="M25.7,17.75Q29.45 13.35 30.75 5.65L31.05 3.4Q31.6 2.8 32.75 4.4L32.85 4.55L32.85 4.8L32.9 5.7L32.95 7.3L32.9 10.25L32.75 13.2L32.3 16.05L31.65 17.95L30.8 19.95L28.95 23.35Q27.65 25.5 24.65 25.55Q21.65 25.6 21.2 24Q22.2 21.85 25.7 17.75M21.25,28.25L22.65 28.95L24.75 29.55L26.95 29.75L27.9 29.7L30 29.2Q31.3 28.7 32.9 25.9Q34.45 23.1 34.9 21.55L35.65 18.2L36 14.6L36.05 11.75Q36.8 14.8 36.55 18.5Q36.2 23.45 34.55 26.7Q32.9 29.9 30.95 31Q29 32.05 26.15 31.6Q23.25 31.1 21.75 29.05L21.25 28.25M31.1,9.3L29.6 13.8Q28.6 16.45 30 15.75Q31.4 15.05 31.9 12.35Q32.4 9.6 32 6.8Q31.55 7.45 31.1 9.3" />
<path style="fill:#9D8E79;fill-opacity:1" d="M36,14.6L35.65 18.2L34.9 21.55Q34.45 23.1 32.9 25.9Q31.3 28.7 30 29.2L27.9 29.7L26.95 29.75L24.75 29.55L22.65 28.95L21.25 28.25Q20.35 26.55 20.85 24.85Q20.95 24.45 21.2 24Q21.65 25.6 24.65 25.55Q27.65 25.5 28.95 23.35L30.8 19.95L31.65 17.95L32.3 16.05L32.75 13.2L32.9 10.25L32.95 7.3L32.9 5.7L32.85 4.8L32.85 4.55L33.55 5.75L35.4 9.75L36.05 11.75L36 14.6" />
<path style="fill:#3E3A2F;fill-opacity:1" d="M21.2,24Q20.95 24.45 20.85 24.85Q20.35 26.55 21.25 28.25L21.75 29.05Q23.25 31.1 26.15 31.6Q29 32.05 30.95 31Q32.9 29.9 34.55 26.7Q36.2 23.45 36.55 18.5Q36.8 14.8 36.05 11.75L35.4 9.75L33.55 5.75L32.85 4.55L32.75 4.4Q31.6 2.8 31.05 3.4L30.75 5.65Q29.45 13.35 25.7 17.75Q22.2 21.85 21.2 24M31.3,0.15Q32.35 0.7 34.65 3.5L36.25 5.85Q37.25 7.7 37.95 10.05Q39.2 14.2 38.45 20.4Q37.7 26.55 35.05 29.95Q32.35 33.35 29.9 33.8Q27.4 34.2 25.1 33.7Q22.8 33.2 20.55 31.1Q18.3 29.05 18.55 26Q18.8 22.9 21.65 19.55L25.9 13.8Q27.3 11.45 28.4 6.3L28.55 5.55Q29.45 1.1 29.75 0.7Q30 0.25 30.65 0.05L31.3 0.15" />
<path style="fill:#FFFCEE;fill-opacity:1" d="M32,6.8Q32.4 9.6 31.9 12.35Q31.4 15.05 30 15.75Q28.6 16.45 29.6 13.8L31.1 9.3Q31.55 7.45 32 6.8" />
</g>
</svg>
