<?xml version="1.0" encoding="utf-8"?>
<svg version="1.1" id="Layer_1"
xmlns="http://www.w3.org/2000/svg"
xmlns:xlink="http://www.w3.org/1999/xlink"
xmlns:author="http://www.sothink.com"
width="138px" height="109px"
xml:space="preserve">
<g id="1019" transform="matrix(1, 0, 0, 1, 13.45, 36.55)">
<path style="fill:#F7E3CC;fill-opacity:1" d="M124.3,-36.55L124.3 72.3L5.2 72.3L5.2 20.55L-13.45 12.95L5.2 4.8L5.2 -36.55L124.3 -36.55" />
<path style="fill:#690C02;fill-opacity:1" d="M18.45,-23L18.7 -23L18.95 -22.95L19.45 -22.95L20.25 -22.95L20.55 -22.95L20.55 -22.9L20.5 -20.1L20.45 -17.3L20.55 -14.55L20.15 -14.45L19.45 -14.45L18.8 -14.45L18.35 -14.45L18.4 -17.35L18.35 -20.2L18.45 -22.95L18.45 -23M19.45,-5.75L19.6 -4.75L19.8 -3.6L20 -2.5L20.2 -1.6L20.5 -2.55L20.75 -3.75L21 -4.9L21.2 -5.7L21.95 -5.75L22.75 -5.75L22.2 -3.85L21.75 -1.8L21.25 0.25L20.6 0.3L19.85 0.3L19.15 0.3L18.95 -1.1L18.7 -2.5L18.45 -1.1L18.2 0.25L17.5 0.3L16.7 0.3L15.95 0.3L15.4 -2.8L14.7 -5.75L15.6 -5.75L16.4 -5.7L16.55 -4.75L16.75 -3.6L16.95 -2.5L17.15 -1.6L17.45 -2.5L17.65 -3.5L17.95 -4.9L18 -5.05L18.05 -5.35L18.1 -5.6L18.1 -5.75L18.65 -5.75L19.05 -5.75L19.45 -5.75M35.8,-18.7L35.6 -18.55L35.55 -18.45L35.5 -18.3L35.45 -17.55L35.4 -16.75Q35.4 -16.5 35.55 -16.35L35.95 -16.1L36.4 -16.1L36.8 -16.2L36.95 -16.35L37.05 -16.6L37.15 -17.4L37.1 -18.1L36.75 -18.75L36 -18.8L35.8 -18.7M37.55,-20.5L38.15 -20.15L38.5 -19.65L38.6 -18.8L38.65 -17.75L38.6 -16.95L38.55 -16.1L38.45 -15.4L38.25 -14.95L37.5 -14.45L36.5 -14.4L35.5 -14.4L34.9 -14.6L34.45 -14.95Q34.15 -15.25 34 -15.65L33.85 -16.55L33.85 -17.55L33.85 -18.4L33.85 -18.85L33.9 -19.25L34 -19.6L34.1 -19.95L34.5 -20.35L35.15 -20.6L35.9 -20.65L36.35 -20.65L36.85 -20.65L37.55 -20.5M40.25,-20.55L41 -20.5L41 -19.65L41 -18.7L41.05 -17.75L41.05 -17.3L41.15 -16.85L41.35 -16.55L41.4 -16.55L41.8 -16.45L42.25 -16.6L42.5 -17.2L42.5 -18.3L42.5 -19.35L42.55 -20.4L42.55 -20.45L43 -20.55L43.4 -20.5L44 -20.55L44.05 -17.6L44.05 -14.5L43.75 -14.55L43.5 -14.55L43.2 -14.5L42.95 -14.5L42.65 -14.45L42.5 -14.5L42.45 -14.85L42.45 -15.15L42.3 -15.05L42.15 -14.95Q41.8 -14.7 41.4 -14.6L40.5 -14.6Q40.1 -14.65 39.75 -14.95Q39.6 -15.1 39.55 -15.55L39.45 -16.6L39.45 -17.95L39.5 -19.3L39.5 -20.5L40.25 -20.55M31.8,-20.5L32.6 -20.5L33.55 -20.5L33.2 -19.1L32.9 -17.85L32.55 -16.35L32.15 -14.85L31.4 -13.5L30.15 -12.65L28.15 -12.4L28.05 -13.2L28.1 -13.95L28.9 -13.95L29.5 -14.1Q29.75 -14.25 29.65 -14.8L29.05 -17.7L28.3 -20.5L29.2 -20.5L30.05 -20.45L30.25 -19.45L30.45 -18.25L30.75 -17.05L31 -16.15L31.2 -17.1L31.35 -18.3L31.55 -19.55L31.8 -20.5M25.5,-21.95L25.4 -21.15L24.95 -21.15L24.45 -21.05L23.9 -21L23.6 -20.7L23.55 -20.2L25.4 -20.2L25.4 -19.9L25.4 -19.65L25.4 -19.35L25.4 -19.1L25.35 -18.7L24.3 -18.75L23.55 -18.75L23.55 -14.55L22.7 -14.55L22 -14.5L21.95 -15.1L21.95 -16.05L21.95 -17.15L21.95 -18.1L21.95 -18.75L21.55 -18.75L21.1 -18.75L21.05 -20.2L21.55 -20.2L21.95 -20.2L22 -21.1L22.35 -21.95Q22.65 -22.35 23.15 -22.55L24.25 -22.75L25.4 -22.75L25.5 -21.95M28.95,-8.4L30.6 -8.35L30.6 -8L30.6 -7.4L30.65 -6.85L30.3 -6.7L29.7 -6.75L29 -6.75L29 -7.5L28.95 -8.4M24.8,-8.5L25 -8.45L25 -8L25 -7.2L25 -6.3L25 -5.5L25 -5.1L25.15 -5.2L25.3 -5.3L26.05 -5.65L26.95 -5.65L27.7 -5.3L27.9 -4.7L28 -3.65L27.95 -2.3L27.95 -0.95L27.95 0.25L27.2 0.3L26.45 0.25L26.45 -0.6L26.45 -1.55L26.4 -2.5L26.4 -2.95L26.3 -3.4L26.1 -3.7L26.05 -3.7L25.65 -3.8L25.2 -3.65L24.9 -3.05L24.9 -1.95L24.95 -0.9L24.9 0.15L24.9 0.2L24.45 0.3L24.05 0.25L23.4 0.3L23.4 -1.15L23.4 -3.05L23.4 -5L23.4 -6.9L23.4 -8.45L23.75 -8.4L23.95 -8.4L24.25 -8.45L24.5 -8.45L24.8 -8.5M29,-5.8L29.2 -5.8L29.35 -5.8L29.8 -5.8L30.45 -5.8L30.65 -5.8L30.65 -5.75L30.6 -2.8L30.65 0.2L30.35 0.25L29.8 0.25L29.3 0.25L28.95 0.25L29 -1.8L28.95 -3.85L29 -5.8M33.15,-6.95L33.1 -5.1L33.1 -3.1L33.1 -1.25L33.15 0.2L32.85 0.25L32.3 0.25L31.8 0.25L31.45 0.25L31.5 -2.65L31.4 -5.55L31.5 -8.45L33.15 -8.45L33.15 -6.95M34.75,-5.55L35.85 -5.9L37.05 -5.85Q37.75 -5.7 38.1 -5.25L38.6 -4.15L38.65 -2.85L38.2 -2.8L37.5 -2.75L36.65 -2.75L35.9 -2.75L35.4 -2.75L35.4 -2.55L35.45 -1.95L35.6 -1.5L36 -1.1L36.5 -1L36.95 -1.3L37.1 -2.05L37.55 -2.05L38.15 -2.05L38.6 -2.05L38.55 -1.25L38.45 -0.55L38.3 -0.15L37.5 0.3L36.5 0.4L35.5 0.35L35.2 0.3L34.9 0.15L34.2 -0.7Q33.95 -1.2 33.85 -1.85L33.8 -3.15L33.9 -4L34.05 -4.8L34.75 -5.55M36.45,-4.75L35.7 -4.5Q35.5 -4.3 35.45 -3.95L35.45 -3.75L35.75 -3.7L36.6 -3.7L37.15 -3.7L37.35 -3.7L37.35 -3.85L37.2 -4.3L36.85 -4.6L36.7 -4.7L36.45 -4.75M57.45,-20.05L57.65 -19.45L57.75 -18.4L57.7 -17.05L57.7 -15.7L57.7 -14.5L56.95 -14.45L56.2 -14.5L56.2 -15.35L56.2 -16.3L56.15 -17.25L56.15 -17.7L56.05 -18.15L55.85 -18.45L55.8 -18.45L55.4 -18.55L54.95 -18.4L54.65 -17.8L54.65 -16.7L54.7 -15.65L54.65 -14.6L54.65 -14.55L54.2 -14.45L53.8 -14.5L53.15 -14.45L53.15 -17.4L53.15 -20.5L53.45 -20.45L53.7 -20.45L54 -20.5L54.25 -20.5L54.55 -20.55L54.7 -20.5L54.75 -20.15L54.75 -19.85L54.9 -19.95L55.05 -20.05L55.8 -20.4L56.7 -20.4L57.45 -20.05M60.45,-20.65L60.9 -20.65L61.4 -20.65L62.1 -20.5L62.7 -20.15L63.05 -19.65L63.15 -18.9L63.2 -17.95L62.7 -17.95L62.15 -17.95L61.65 -18.05L61.3 -18.7L60.55 -18.8L60.35 -18.7L60.15 -18.55L60.1 -18.45L60.05 -18.3L60 -17.55L59.95 -16.75Q59.95 -16.45 60.1 -16.3Q60.25 -16.15 60.5 -16.1L60.95 -16.05L61.35 -16.2L61.55 -16.45L61.65 -16.85L62.1 -16.85L62.7 -16.85L63.15 -16.8L63.1 -16L63 -15.3L62.8 -14.9L62.05 -14.45L61.05 -14.35L60.05 -14.4L59.45 -14.6L59 -14.9Q58.7 -15.2 58.55 -15.65L58.4 -16.55L58.4 -17.5L58.4 -18.4L58.45 -19.25L58.55 -19.6L58.65 -19.95L59.05 -20.35L59.7 -20.6L60.45 -20.65M51.9,-20L52.4 -18.9L52.45 -17.6L52 -17.55L51.3 -17.5L50.45 -17.5L49.7 -17.5L49.2 -17.5L49.2 -17.3L49.25 -16.7L49.4 -16.25L49.8 -15.85L50.3 -15.75L50.75 -16.05L50.9 -16.8L51.35 -16.8L51.95 -16.8L52.4 -16.8L52.35 -16L52.25 -15.3L52.1 -14.9Q51.8 -14.55 51.3 -14.45L50.3 -14.35L49.3 -14.4L49 -14.45L48.7 -14.6Q48.25 -14.9 48 -15.45Q47.75 -15.95 47.65 -16.6Q47.55 -17.25 47.6 -17.9L47.7 -18.75L47.85 -19.55L48.55 -20.3L49.65 -20.65L50.85 -20.6Q51.55 -20.45 51.9 -20M50.65,-19.35L50.5 -19.45L50.25 -19.5L49.5 -19.25L49.25 -18.7L49.25 -18.5L49.55 -18.45L50.4 -18.45L50.95 -18.45L51.15 -18.45L51.15 -18.6L51 -19.05L50.65 -19.35M49.4,-8.45L49.4 -6.95L49.35 -5.1L49.35 -3.1L49.35 -1.25L49.4 0.2L49.1 0.25L48.55 0.25L48.05 0.25L47.7 0.25L47.75 -2.65L47.65 -5.55L47.75 -8.45L49.4 -8.45M45.1,-5.7L46.2 -5.35L46.75 -4.6L47.05 -3.5L47.1 -2.35L47 -1.25L46.7 -0.4L46.15 0.1L45.45 0.25L44.7 0.25L44.1 0.15L43.85 -0.05L43.85 1L43.85 1.55L43.85 1.9L43.85 2.15L43.8 2.55L43.8 2.7L43.55 2.75L42.9 2.75L42.3 2.7L42.3 1.9L42.25 -2.05L42.2 -5.75L43.05 -5.75L43.85 -5.75L43.85 -5.65L43.85 -5.45L43.85 -5.25L43.9 -5.15L44 -5.2L44.45 -5.65L45.1 -5.7M43.85,-3.4L43.8 -2.5L43.85 -1.6L44.05 -1.2L44.5 -1.1L45.3 -1.35L45.65 -1.95L45.75 -2.3L45.75 -2.65L45.6 -3.45L45.25 -4L44.65 -4.25L44.05 -4L43.85 -3.4M50.25,-1.9L50.15 -2.95Q50.15 -3.75 50.4 -4.35L51.15 -5.3Q51.6 -5.7 52.15 -5.7L52.65 -5.7L53.1 -5.55L53.4 -5.15L53.4 -5.5L53.4 -5.75L53.55 -5.8L53.8 -5.8L54 -5.75L54.5 -5.75L55.2 -5.75L55.2 -5.6L55.2 -5.45L55.2 -5.3L55.2 -2.75L55.2 -0.25L55.15 0.05L55 0.25L54.9 0.25L54.5 0.25L54.1 0.2L53.85 0.25L53.6 0.25L53.45 0.15L53.45 0L53.45 -0.2L53.5 -0.4Q53.2 -0.1 52.75 0.05L51.9 0.25L51.1 -0.05Q50.75 -0.35 50.55 -0.85L50.25 -1.9M53.25,-4.05L52.8 -4.1L52.05 -3.85L51.7 -3.35L51.65 -3.05L51.6 -2.7Q51.6 -2.15 51.9 -1.8Q52.2 -1.4 52.7 -1.4L53.25 -1.6L53.4 -2.1L53.4 -2.85L53.4 -3.7L53.25 -4.05M59.3,-5.75L60.1 -5.75L61.05 -5.75L60.7 -4.35L60.4 -3.1L60.05 -1.6L59.65 -0.1L58.9 1.25L57.65 2.1L55.65 2.35L55.55 1.55L55.6 0.8L56.4 0.8L57 0.65Q57.25 0.5 57.15 -0.05L56.55 -2.95L55.8 -5.75L56.7 -5.75L57.55 -5.7L57.75 -4.7L57.95 -3.5L58.25 -2.3L58.5 -1.4L58.7 -2.35L58.85 -3.55L59.05 -4.8L59.3 -5.75M76.55,-20.15L76.55 -19.85L76.7 -19.95L76.85 -20.05L77.6 -20.4L78.5 -20.4L79.25 -20.05L79.45 -19.45L79.55 -18.4L79.5 -17.05L79.5 -15.7L79.5 -14.5L78.75 -14.45L78 -14.5L78 -15.35L78 -16.3L77.95 -17.25L77.95 -17.7L77.85 -18.15L77.65 -18.45L77.6 -18.45L77.2 -18.55L76.75 -18.4L76.45 -17.8L76.45 -16.7L76.5 -15.65L76.45 -14.6L76.45 -14.55L76 -14.45L75.6 -14.5L74.95 -14.45L74.95 -17.4L74.95 -20.5L75.25 -20.45L75.5 -20.45L75.8 -20.5L76.05 -20.5L76.35 -20.55L76.5 -20.5L76.55 -20.15M80.2,-19L80.25 -20.45L80.7 -20.45L81.1 -20.45L81.1 -21.2L81.1 -22.05L81.1 -22.75L81.85 -22.75L82.65 -22.7L82.65 -21.1L82.65 -20.8L82.7 -20.45L83.45 -20.45L84.5 -20.5L84.6 -20.1L84.55 -19.55L84.55 -19L82.7 -19L82.7 -17.75L82.7 -16.6L83.2 -16.25L83.9 -16.15L84.55 -16.1L84.65 -15.35L84.55 -14.5L83.25 -14.55L82 -14.85Q81.5 -15.05 81.25 -15.55L81.1 -17.3L81.1 -19L80.7 -19L80.2 -19M71.1,-19.65L71.1 -18.7L71.15 -17.75L71.15 -17.3L71.25 -16.85Q71.3 -16.65 71.45 -16.55L71.5 -16.55L71.9 -16.45L72.35 -16.6L72.6 -17.2L72.6 -18.3L72.6 -19.35L72.65 -20.4L72.65 -20.45L73.1 -20.55L73.5 -20.5L74.1 -20.55L74.15 -17.6L74.15 -14.5L73.85 -14.55L73.6 -14.55L73.3 -14.5L73.05 -14.5L72.75 -14.45L72.6 -14.5L72.55 -14.85L72.55 -15.15L72.4 -15.05L72.25 -14.95Q71.9 -14.7 71.5 -14.6L70.6 -14.6Q70.2 -14.65 69.85 -14.95Q69.7 -15.1 69.65 -15.55L69.55 -16.6L69.55 -17.95L69.6 -19.3L69.6 -20.5L70.35 -20.55L71.1 -20.5L71.1 -19.65M67.65,-20.5L68.25 -20.15L68.6 -19.65L68.7 -18.8L68.75 -17.75L68.7 -16.95L68.65 -16.1L68.55 -15.4L68.35 -14.95L67.6 -14.45L66.6 -14.4L65.6 -14.4L65 -14.6L64.55 -14.95L64.1 -15.65L63.95 -16.55L63.95 -17.55L63.95 -18.4L63.95 -18.85L64 -19.25L64.1 -19.6L64.2 -19.95L64.6 -20.35L65.25 -20.6L66 -20.65L66.45 -20.65L66.95 -20.65L67.65 -20.5M66.1,-18.8L65.9 -18.7L65.7 -18.55L65.65 -18.45L65.6 -18.3L65.55 -17.55L65.5 -16.75L65.65 -16.35L66.05 -16.1L66.5 -16.1L66.9 -16.2L67.05 -16.35L67.15 -16.6L67.25 -17.4L67.2 -18.1L66.85 -18.75L66.1 -18.8M63.2,-8L63.2 -7.4L63.25 -6.85L62.9 -6.7L62.3 -6.75L61.6 -6.75L61.6 -7.5L61.55 -8.4L63.2 -8.35L63.2 -8M64.85,-5.75L65.1 -5.75L65.4 -5.8L65.55 -5.75L65.6 -5.4L65.6 -5.1L65.75 -5.2L65.9 -5.3L66.65 -5.65L67.55 -5.65L68.3 -5.3L68.5 -4.7L68.6 -3.65L68.55 -2.3L68.55 -0.95L68.55 0.25L67.8 0.3L67.05 0.25L67.05 -0.6L67.05 -1.55L67 -2.5L67 -2.95L66.9 -3.4L66.7 -3.7L66.65 -3.7L66.25 -3.8L65.8 -3.65L65.5 -3.05L65.5 -1.95L65.55 -0.9L65.5 0.15L65.5 0.2L65.05 0.3L64.65 0.25L64 0.3L64 -2.65L64 -5.75L64.3 -5.7L64.55 -5.7L64.85 -5.75M63.05,-5.8L63.25 -5.8L63.25 -5.75L63.2 -2.8L63.25 0.2L62.95 0.25L62.4 0.25L61.9 0.25L61.55 0.25L61.6 -1.8L61.55 -3.85L61.6 -5.8L61.8 -5.8L61.95 -5.8L62.4 -5.8L63.05 -5.8M69.65,-4.3L70.25 -5.25Q70.65 -5.65 71.45 -5.7L72.15 -5.6L72.6 -5.15L72.7 -5.25L72.65 -5.5L72.7 -5.75L73.5 -5.75L74.3 -5.75L74.35 -2.6L74.3 0.75L74.3 1.35L74.2 1.8L73.75 2.35L73.3 2.55L72.85 2.65L72.45 2.65L71.6 2.65L70.6 2.4L69.9 1.75L69.8 1.45L69.7 1.05L69.7 0.75L70.15 0.7L70.75 0.7L71.25 0.75L71.45 1.25L71.9 1.45L72.35 1.35L72.65 0.85L72.7 0.6L72.7 0.4L72.7 0.15L72.7 -0.05L72.3 0.2L71.8 0.25L71.3 0.25L70.4 0.1Q70 -0.05 69.75 -0.5L69.5 -1.15L69.45 -1.9L69.45 -3.1L69.65 -4.3M70.8,-2.85L70.8 -2.6L70.8 -2.5Q70.8 -1.9 71.15 -1.45Q71.35 -1.2 71.7 -1.15L72.4 -1.15L72.65 -1.45L72.75 -1.9L72.7 -2.85L72.6 -3.85L72.25 -4.2L71.75 -4.25L71.3 -4.05L71 -3.6L70.8 -3.05L70.8 -2.85M75.75,-1.25L76.5 -1.2L76.45 0.25L76.4 0.35L76.4 0.5L76.3 1L76.25 1.2L76.2 1.45L75.9 1.45L75.35 1.45L75.4 1.2L75.5 0.75L75.6 0.25L75.05 0.2L75 0.2L75 0.1L75 -0.25L75.05 -1.2L75.75 -1.25M79.4,-5.75L80.3 -5.75L81.15 -5.7L81.35 -4.7L81.55 -3.5L81.85 -2.3L82.1 -1.4L82.3 -2.35L82.45 -3.55L82.65 -4.8L82.9 -5.75L83.7 -5.75L84.65 -5.75L84.3 -4.35L84 -3.1L83.65 -1.6L83.25 -0.1L82.5 1.25L81.25 2.1L79.25 2.35L79.15 1.55L79.2 0.8L80 0.8L80.6 0.65Q80.85 0.5 80.75 -0.05L80.15 -2.95L79.4 -5.75M99.85,-21.7L99.8 -19.85L99.8 -17.85L99.8 -16L99.85 -14.55L99.55 -14.5L99 -14.5L98.5 -14.5L98.15 -14.5L98.2 -17.4L98.1 -20.3L98.2 -23.2L99.85 -23.2L99.85 -21.7M93.1,-20.3L93.8 -20.45L94.45 -20.5L94.75 -20.45L94.75 -19.55L94.75 -18.9L94.75 -18.35L94.65 -18.4L94.55 -18.45L94.4 -18.45L94.1 -18.55L93.95 -18.55L93.2 -18.6L92.65 -18.35Q92.45 -18.15 92.5 -17.75L92.5 -16.7L92.5 -15.7L92.55 -14.6L92.55 -14.55L92.05 -14.45L91.55 -14.5L90.9 -14.45L90.9 -17.4L90.9 -20.5L91.2 -20.45L91.45 -20.45L91.75 -20.5L92 -20.5L92.35 -20.5L92.55 -20.5L92.55 -20.3L92.55 -20.2L92.55 -20.1L92.75 -20.2L93.1 -20.3M100.6,-17.7Q100.6 -18.5 100.85 -19.1L101.6 -20.05Q102.05 -20.45 102.6 -20.45L103.1 -20.45L103.55 -20.3L103.85 -19.9L103.85 -20.25L103.85 -20.5L104 -20.55L104.25 -20.55L104.45 -20.5L104.95 -20.5L105.65 -20.5L105.65 -20.35L105.65 -20.2L105.65 -20.05L105.65 -17.5L105.65 -15L105.6 -14.7L105.45 -14.5L105.35 -14.5L104.95 -14.5L104.55 -14.55L104.3 -14.5L104.05 -14.5L103.9 -14.6L103.9 -14.75L103.9 -14.95L103.95 -15.15L103.2 -14.7L102.35 -14.5Q101.9 -14.5 101.55 -14.8Q101.2 -15.1 101 -15.6L100.7 -16.65L100.6 -17.7M86.8,-18.7L86.8 -18.5L87.1 -18.45L87.95 -18.45L88.5 -18.45L88.7 -18.45L88.7 -18.6L88.55 -19.05L88.2 -19.35L88.05 -19.45L87.8 -19.5L87.05 -19.25Q86.85 -19.05 86.8 -18.7M88.4,-20.6Q89.1 -20.45 89.45 -20L89.95 -18.9L90 -17.6L89.55 -17.55L88.85 -17.5L88 -17.5L87.25 -17.5L86.75 -17.5L86.75 -17.3L86.8 -16.7Q86.8 -16.45 86.95 -16.25L87.35 -15.85L87.85 -15.75L88.3 -16.05L88.45 -16.8L88.9 -16.8L89.5 -16.8L89.95 -16.8L89.9 -16L89.8 -15.3L89.65 -14.9Q89.35 -14.55 88.85 -14.45L87.85 -14.35L86.85 -14.4L86.55 -14.45L86.25 -14.6Q85.8 -14.9 85.55 -15.45Q85.3 -15.95 85.2 -16.6L85.15 -17.9L85.25 -18.75L85.4 -19.55L86.1 -20.3L87.2 -20.65L88.4 -20.6M85.2,-5.2L85.6 -5.6L86.25 -5.85L87 -5.9L87.45 -5.9L87.95 -5.9L88.65 -5.75L89.25 -5.4L89.6 -4.9L89.7 -4.05L89.75 -3L89.7 -2.2L89.65 -1.35L89.55 -0.65L89.35 -0.2L88.6 0.3L87.6 0.35L86.6 0.35L86 0.15L85.55 -0.2Q85.25 -0.5 85.1 -0.9L84.95 -1.8L84.95 -2.8L84.95 -3.65L84.95 -4.1L85 -4.5L85.1 -4.85L85.2 -5.2M90.6,-4.55L90.6 -5.75L91.35 -5.8L92.1 -5.75L92.1 -4.9L92.1 -3.95L92.15 -3L92.15 -2.55L92.25 -2.1Q92.3 -1.9 92.45 -1.8L92.5 -1.8L92.9 -1.7L93.35 -1.85L93.6 -2.45L93.6 -3.55L93.6 -4.6L93.65 -5.65L93.65 -5.7L94.1 -5.8L94.5 -5.75L95.1 -5.8L95.15 -2.85L95.15 0.25L94.85 0.2L94.6 0.2L94.3 0.25L94.05 0.25L93.75 0.3L93.6 0.25L93.55 -0.1L93.55 -0.4L93.4 -0.3L93.25 -0.2L92.5 0.15L91.6 0.15L90.85 -0.2Q90.7 -0.35 90.65 -0.8L90.55 -1.85L90.55 -3.2L90.6 -4.55M86.65,-3.7L86.6 -3.55L86.55 -2.8L86.5 -2Q86.5 -1.75 86.65 -1.6L87.05 -1.35L87.5 -1.35L87.9 -1.45L88.05 -1.6L88.15 -1.85L88.25 -2.65L88.2 -3.35L87.85 -4L87.1 -4.05L86.9 -3.95L86.7 -3.8L86.65 -3.7M100.95,-5.9L101.4 -5.9L101.9 -5.9L102.6 -5.75L103.2 -5.4L103.55 -4.9L103.65 -4.15L103.7 -3.2L103.2 -3.2L102.65 -3.2L102.15 -3.3L101.8 -3.95L101.05 -4.05L100.85 -3.95L100.65 -3.8L100.6 -3.7L100.55 -3.55L100.5 -2.8L100.45 -2Q100.45 -1.7 100.6 -1.55Q100.75 -1.4 101 -1.35L101.45 -1.3L101.85 -1.45L102.05 -1.7L102.15 -2.1L102.6 -2.1L103.2 -2.1L103.65 -2.05L103.6 -1.25L103.5 -0.55L103.3 -0.15L102.55 0.3L101.55 0.4L100.55 0.35L99.95 0.15L99.5 -0.15Q99.2 -0.45 99.05 -0.9L98.9 -1.8L98.9 -2.75L98.9 -3.65L98.95 -4.5L99.05 -4.85L99.15 -5.2L99.55 -5.6L100.2 -5.85L100.95 -5.9M111.45,-13.4L111.35 -12.95L110.9 -12.4L110.45 -12.2L110 -12.1L109.6 -12.1L108.75 -12.1L107.75 -12.35L107.05 -13L106.95 -13.3L106.85 -13.7L106.85 -14L107.3 -14.05L107.9 -14.05L108.4 -14L108.6 -13.5Q108.75 -13.35 109.05 -13.3L109.5 -13.4L109.8 -13.9L109.85 -14.15L109.85 -14.35L109.85 -14.6L109.85 -14.8Q109.7 -14.6 109.45 -14.55L108.95 -14.5L108.45 -14.5L107.55 -14.65Q107.15 -14.8 106.9 -15.25L106.65 -15.9L106.6 -16.65L106.6 -17.85L106.8 -19.05L107.4 -20Q107.8 -20.4 108.6 -20.45L109.3 -20.35L109.75 -19.9L109.85 -20L109.8 -20.25L109.85 -20.5L110.65 -20.5L111.45 -20.5L111.5 -17.35L111.45 -14L111.45 -13.4M108.9,-19L108.45 -18.8L108.15 -18.35L107.95 -17.8L107.95 -17.6L107.95 -17.35L107.95 -17.25Q107.95 -16.65 108.3 -16.2L108.85 -15.9L109.55 -15.9L109.8 -16.2L109.9 -16.65L109.85 -17.6L109.75 -18.6L109.4 -18.95L108.9 -19M102.5,-18.6L102.15 -18.1L102.1 -17.8L102.05 -17.45Q102.05 -16.9 102.35 -16.55Q102.65 -16.15 103.15 -16.15L103.7 -16.35L103.85 -16.85L103.85 -17.6L103.85 -18.45L103.7 -18.8L103.25 -18.85L102.5 -18.6M105.9,-3.35L105.85 -3.05L105.8 -2.7Q105.8 -2.15 106.1 -1.8Q106.4 -1.4 106.9 -1.4Q107.25 -1.4 107.45 -1.6L107.6 -2.1L107.6 -2.85L107.6 -3.7L107.45 -4.05L107 -4.1L106.25 -3.85L105.9 -3.35M105.35,-5.3Q105.8 -5.7 106.35 -5.7L106.85 -5.7L107.3 -5.55L107.6 -5.15L107.6 -5.5L107.6 -5.75L107.75 -5.8L108 -5.8L108.2 -5.75L108.7 -5.75L109.4 -5.75L109.4 -5.6L109.4 -5.45L109.4 -5.3L109.4 -2.75L109.4 -0.25L109.35 0.05L109.2 0.25L109.1 0.25L108.7 0.25L108.3 0.2L108.05 0.25L107.8 0.25L107.65 0.15L107.65 0L107.65 -0.2L107.7 -0.4L106.95 0.05L106.1 0.25Q105.65 0.25 105.3 -0.05L104.75 -0.85L104.45 -1.9L104.35 -2.95Q104.35 -3.75 104.6 -4.35L105.35 -5.3M110.55,-5.7L110.8 -5.7L111.1 -5.75L111.35 -5.75L111.65 -5.8L111.8 -5.75L111.85 -5.4L111.85 -5.1L112 -5.2L112.15 -5.3L112.9 -5.65L113.8 -5.65L114.55 -5.3L114.75 -4.7L114.85 -3.65L114.8 -2.3L114.8 -0.95L114.8 0.25L114.05 0.3L113.3 0.25L113.3 -0.6L113.3 -1.55L113.25 -2.5L113.25 -2.95L113.15 -3.4L112.95 -3.7L112.9 -3.7L112.5 -3.8L112.05 -3.65L111.75 -3.05L111.75 -1.95L111.8 -0.9L111.75 0.15L111.75 0.2L111.3 0.3L110.9 0.25L110.25 0.3L110.25 -2.65L110.25 -5.75L110.55 -5.7M103.1,8.9Q103.8 9.05 104.15 9.5L104.65 10.6L104.7 11.9L104.25 11.95L103.55 12L102.7 12L101.95 12L101.45 12L101.45 12.2L101.5 12.8L101.65 13.25L102.05 13.65L102.55 13.75L103 13.45L103.15 12.7L103.6 12.7L104.2 12.7L104.65 12.7L104.6 13.5L104.5 14.2L104.35 14.6L103.55 15.05L102.55 15.15L101.55 15.1L101.25 15.05L100.95 14.9L100.25 14.05Q100 13.55 99.9 12.9Q99.8 12.25 99.85 11.6L99.95 10.75L100.1 9.95L100.8 9.2L101.9 8.85L103.1 8.9M102.9,10.15L102.75 10.05L102.5 10Q101.95 10 101.75 10.25Q101.55 10.45 101.5 10.8L101.5 11L101.8 11.05L102.65 11.05L103.2 11.05L103.4 11.05L103.4 10.9L103.25 10.45L102.9 10.15M103.45,21.45Q104.05 21.55 104.5 21.9L104.8 22.25L105 22.65L105.15 23L105.2 23.4L105.25 24L105.2 24.6L105.2 25.8L105.15 27.05L105.15 27.45L105 28.3L104.65 29.05L104.15 29.5L103.45 29.8L102.75 29.9L102.05 29.9L101.15 29.7Q100.7 29.55 100.5 29.05L100.25 28.45L100.2 27.75L100.1 25.85L100.15 23.95Q100.15 23.4 100.3 22.9Q100.4 22.35 100.75 21.9L100.9 21.8L101.05 21.7Q101.6 21.45 102.2 21.35L103.45 21.45M101.55,24.05L101.4 25L101.4 26L101.5 26.9L101.65 27.7L102.15 28.15L102.85 28.2L103.45 27.85L103.65 27.55L103.7 27.3L103.7 26.75L103.7 26.35L103.7 26.15L103.7 24.65L103.65 24.35L103.65 24.05L103.45 23.45L103.05 23.05L102.55 23L102.1 23.2L101.75 23.6L101.55 24.05M111.2,21.4L111.25 21.4L110.8 25.55L110.45 29.7L110.25 29.7L110.05 29.7L109.45 29.7L109.25 29.3L109.1 28.7L108.95 28.15L108.75 27.7L108.55 28.05L108.4 28.65L108.25 29.2L108.1 29.65L107.8 29.7L107.5 29.75L107.3 29.7L107.05 29.7L106.45 25.55L106.15 21.4L106.5 21.35L106.95 21.35L107.4 21.35L107.85 21.35L107.9 22.55L107.9 23.9L107.95 25.2L108.1 26.4L108.4 25.3L108.65 24.25L108.65 24.2L108.7 24.2L108.8 24.55L109 25.2L109.2 26L109.35 26.55L109.4 25.35L109.45 24L109.5 22.65L109.55 21.45L109.55 21.4L110 21.35L110.4 21.35L110.8 21.35L111.2 21.4M95.15,9.1Q95.6 9.15 95.9 9.45L96 9.5L96.05 9.65L96.2 9.55L96.3 9.45Q96.65 9.2 97.1 9.1L97.95 9.1Q98.4 9.15 98.75 9.45L98.95 10.05L99 11.1L99 12.45L98.95 13.8L99 15L98.25 15.05L97.5 15L97.45 14.15L97.45 13.2L97.45 12.25L97.4 11.8L97.3 11.35L97.15 11.05L97.1 11.05L96.7 10.95L96.2 11.15L96.2 12.45L96.15 13.8L96.15 15L95.4 15.05L94.65 15L94.65 14.15L94.65 13.2L94.6 12.25L94.6 11.8L94.5 11.35L94.3 11.05L93.85 10.95Q93.6 10.95 93.4 11.1Q93.15 11.25 93.15 11.7L93.15 12.8L93.15 13.85L93.1 14.9L93.1 14.95L92.65 15.05L92.25 15L91.65 15.05L91.6 12.1L91.6 9L91.95 9.05L92.15 9.05L92.45 9L92.7 9L93 8.95L93.2 9L93.2 9.35L93.2 9.65L93.35 9.55L93.5 9.45Q93.85 9.2 94.3 9.1L95.15 9.1M84.95,9L85 12.15L84.95 15.5L84.95 16.1L84.85 16.55L84.4 17.1L83.95 17.3L83.5 17.4L83.1 17.4L82.25 17.4L81.25 17.15L80.55 16.5L80.45 16.2L80.35 15.8L80.35 15.5L80.8 15.45L81.4 15.45L81.9 15.5L82.1 16L82.55 16.2L83 16.1L83.3 15.6L83.35 15.35L83.35 15.15L83.35 14.9L83.35 14.7L82.95 14.95L82.45 15L81.95 15L81.05 14.85L80.4 14.25L80.15 13.6L80.1 12.85L80.1 11.65L80.3 10.45L80.9 9.5Q81.3 9.1 82.1 9.05L82.8 9.15L83.25 9.6L83.35 9.5L83.3 9.25L83.35 9L84.15 9L84.95 9M82.4,10.5L81.95 10.7L81.65 11.15L81.45 11.7L81.45 11.9L81.45 12.15L81.45 12.25Q81.45 12.85 81.8 13.3L82.35 13.6L83.05 13.6L83.3 13.3L83.4 12.85L83.35 11.9L83.25 10.9L82.9 10.55L82.4 10.5M85.95,10.4Q86.25 9.8 86.7 9.45Q87.15 9.05 87.7 9.05L88.2 9.05L88.65 9.2L88.95 9.6L88.95 9.25L88.95 9L89.1 8.95L89.35 8.95L89.55 9L90.05 9L90.75 9L90.75 9.15L90.75 9.3L90.75 9.45L90.75 12L90.75 14.5L90.7 14.8L90.55 15L90.45 15L90.05 15L89.65 14.95L89.4 15L89.15 15L89 14.9L89 14.75L89 14.55L89.05 14.35L88.3 14.8L87.45 15L86.65 14.7Q86.3 14.4 86.1 13.9L85.8 12.85L85.7 11.8Q85.7 11 85.95 10.4M87.6,10.9Q87.3 11.1 87.25 11.4L87.2 11.7L87.15 12.05Q87.15 12.6 87.45 12.95Q87.75 13.35 88.25 13.35L88.8 13.15L88.95 12.65L88.95 11.9L88.95 11.05L88.8 10.7L88.35 10.65Q87.85 10.65 87.6 10.9M82.1,21.75L82.65 22.35L83.1 23.2L83.4 24.1L83.45 24.5L83.5 24.85L83.45 26L83.3 27.15L82.65 28.5L81.8 29.7L80.2 29.7L78.6 29.75L78.4 27.1L78.4 24.3L78.4 21.5L78.45 21.5L78.45 21.45L79.4 21.35L80.4 21.35L81.35 21.35L82.1 21.75M81.05,23.9L80.6 23.9L80.15 23.95L80.1 23.95L80.1 24L80.15 25.45L80.15 27.1L80.5 27.2L80.95 27.15L81.05 27.15L81.2 27.1L81.4 26.9L81.55 26.7L81.85 26L81.85 25.2L81.7 24.7L81.5 24.2L81.05 23.9M90.75,21.25L91.25 21.3L91.2 21.45L91.15 21.55L91 22.1L90.65 23.3L90.4 23.95L90.15 24.6L89.75 25.9L89.3 27.2L89.15 27.55L89.05 27.95L88.35 29.65L88.3 29.7L88.05 29.75L87.65 29.75L86.8 29.75L86.8 29.6L86.9 29.25L87.05 28.9L87.1 28.65L87.3 28.15L87.5 27.6L87.55 27.4L87.7 26.95L88.05 26.05L88.6 24.5L88.85 23.8L89.05 23.1L89.2 22.8L89.4 22.1L89.65 21.25L90.2 21.25L90.75 21.25M94.6,21.3L95.15 21.2L95.9 21.2L96.5 21.35L96.5 23.5L96.55 25.7L96.55 27.85L96.95 27.85L97.65 27.85L98.45 27.9L99.2 27.95L99.65 27.95L99.65 28.05L99.6 28.2L99.6 28.45L99.6 28.65L99.65 29.45L99.55 29.7L99.3 29.75L98.95 29.75L98.25 29.75L96.9 29.8L94.55 29.75L94.55 29.55L94.6 27.65L94.65 26.05L94.65 24.65L94.6 23.1L94.6 21.3M89.7,40.1L89.75 41.4L89.3 41.45L88.6 41.5L87.75 41.5L87 41.5L86.5 41.5L86.5 41.7L86.55 42.3L86.7 42.75L87.1 43.15L87.6 43.25L88.05 42.95L88.2 42.2L88.65 42.2L89.25 42.2L89.7 42.2L89.65 43L89.55 43.7L89.4 44.1L88.6 44.55L87.6 44.65L86.6 44.6L86.3 44.55L86 44.4L85.3 43.55L84.95 42.4L84.9 41.1L85 40.25L85.15 39.45L85.85 38.7Q86.35 38.4 86.95 38.35L88.15 38.4Q88.85 38.55 89.2 39L89.7 40.1M87.55,39.5Q87 39.5 86.8 39.75Q86.6 39.95 86.55 40.3L86.55 40.5L86.85 40.55L87.7 40.55L88.25 40.55L88.45 40.55L88.45 40.4L88.3 39.95L87.95 39.65L87.8 39.55L87.55 39.5M84.4,38.5L83.85 40.4L83.4 42.45L82.9 44.5L82.2 44.55L81.35 44.55L80.65 44.55L80.1 41.45L79.4 38.5L80.25 38.5L81.05 38.55L81.25 39.55L81.4 40.65L81.65 41.75L81.85 42.65L82.1 41.75L82.3 40.6L82.55 39.45L82.8 38.55L83.55 38.5L84.4 38.5M92.05,55.3L92.9 55.3L93.45 55.3L93.65 55.3L93.65 55.15L93.5 54.7L93.15 54.4L93 54.3L92.75 54.25Q92.2 54.25 92 54.5Q91.8 54.7 91.75 55.05L91.75 55.25L92.05 55.3M93.35,53.15Q94.05 53.3 94.4 53.75L94.9 54.85L94.95 56.15L94.5 56.2L93.8 56.25L92.95 56.25L92.2 56.25L91.7 56.25L91.7 56.45L91.75 57.05L91.9 57.5L92.3 57.9L92.8 58L93.25 57.7L93.4 56.95L93.85 56.95L94.45 56.95L94.9 56.95L94.85 57.75L94.75 58.45L94.6 58.85Q94.3 59.2 93.8 59.3L92.8 59.4L91.8 59.35L91.5 59.3L91.2 59.15L90.5 58.3L90.15 57.15L90.1 55.85L90.2 55L90.35 54.2L91.05 53.45Q91.55 53.15 92.15 53.1L93.35 53.15M86.45,55.3L86.4 55.45L86.35 56.2L86.3 57L86.45 57.45L86.85 57.65L87.3 57.7L87.7 57.55L87.9 57.3L88 56.9L88.45 56.9L89.05 56.9L89.5 56.95L89.45 57.75L89.35 58.45L89.15 58.85L88.4 59.3L87.4 59.4L86.4 59.35L85.8 59.15L85.35 58.85L84.9 58.1L84.75 57.2L84.75 56.25L84.75 55.35L84.8 54.5L84.9 54.15L85 53.8L85.4 53.4L86.05 53.15L86.8 53.1L87.25 53.1L87.75 53.1L88.45 53.25L89.05 53.6L89.4 54.1L89.5 54.85L89.55 55.8L89.05 55.8L88.5 55.8L88 55.7L87.65 55.05L86.9 54.95L86.7 55.05L86.5 55.2L86.45 55.3M81.1,53.6L81.1 53.9L81.25 53.8L81.4 53.7Q81.75 53.45 82.15 53.35L83.05 53.35Q83.45 53.4 83.8 53.7L84 54.3L84.1 55.35L84.05 56.7L84.05 58.05L84.05 59.25L83.3 59.3L82.55 59.25L82.55 58.4L82.55 57.45L82.5 56.5L82.5 56.05L82.4 55.6L82.2 55.3L82.15 55.3L81.75 55.2Q81.5 55.2 81.3 55.35Q81.05 55.5 81 55.95L81 57.05L81.05 58.1L81 59.15L81 59.2L80.55 59.3L80.15 59.25L79.5 59.3L79.5 56.35L79.5 53.25L79.8 53.3L80.05 53.3L80.35 53.25L80.6 53.25L80.9 53.2L81.05 53.25L81.1 53.6M75,8.9Q75.7 9.05 76.05 9.5L76.55 10.6L76.6 11.9L76.15 11.95L75.45 12L74.6 12L73.85 12L73.35 12L73.35 12.2L73.4 12.8L73.55 13.25L73.95 13.65L74.45 13.75L74.9 13.45L75.05 12.7L75.5 12.7L76.1 12.7L76.55 12.7L76.5 13.5L76.4 14.2L76.25 14.6L75.45 15.05L74.45 15.15L73.45 15.1L73.15 15.05L72.85 14.9L72.15 14.05Q71.9 13.55 71.8 12.9L71.75 11.6L71.85 10.75L72 9.95Q72.25 9.45 72.7 9.2Q73.2 8.9 73.8 8.85L75 8.9M71.1,11.1L71.05 12.45L71.05 13.8L71.05 15L70.3 15.05L69.55 15L69.55 14.15L69.55 13.2L69.5 12.25L69.5 11.8L69.4 11.35L69.2 11.05L69.15 11.05L68.75 10.95L68.3 11.1Q68.05 11.25 68 11.7L68 12.8L68.05 13.85L68 14.9L68 14.95L67.55 15.05L67.15 15L66.5 15.05L66.5 13.6L66.5 11.7L66.5 9.75L66.5 7.85L66.5 6.3L66.85 6.35L67.05 6.35L67.35 6.3L67.6 6.3L67.9 6.25L68.1 6.3L68.1 6.75L68.1 7.55L68.1 8.45L68.1 9.25L68.1 9.65L68.25 9.55L68.4 9.45L69.15 9.1L70.05 9.1L70.8 9.45L71 10.05L71.1 11.1M73.4,11L73.7 11.05L74.55 11.05L75.1 11.05L75.3 11.05L75.3 10.9L75.15 10.45L74.8 10.15L74.65 10.05L74.4 10Q73.85 10 73.65 10.25Q73.45 10.45 73.4 10.8L73.4 11M63.55,8.4L63.55 8.7L63.6 9.05L64.35 9.05L65.4 9L65.5 9.4L65.45 9.95L65.45 10.5L63.6 10.5L63.6 11.75L63.6 12.9L64.1 13.25L64.8 13.35L65.45 13.4L65.55 14.15L65.45 15L64.15 14.95L62.9 14.65L62.15 13.95L62 12.2L62 10.5L61.6 10.5L61.1 10.5L61.15 9.05L61.6 9.05L62 9.05L62 8.3L62 7.45L62 6.75L62.75 6.75L63.55 6.8L63.55 8.4M62.95,24.6L63.05 25.45L63.1 26.5L63.05 27.3L63 28.15L62.9 28.85L62.7 29.3L61.95 29.8L60.95 29.85L59.95 29.85L59.35 29.65L58.9 29.3L58.45 28.6L58.3 27.7L58.3 26.7L58.3 25.85L58.3 25.4L58.35 25L58.45 24.65L58.55 24.3L58.95 23.9L59.6 23.65L60.35 23.6L60.8 23.6L61.3 23.6L62 23.75Q62.35 23.85 62.6 24.1L62.95 24.6M70.3,21.45L71 21.4L71.65 21.4L71.65 23.65L71.65 25.95L71.6 29.75L71.05 29.75L70.5 29.75L70 29.75L70 28.25L69.95 26.6L69.85 25.1L69.65 25.5L69.45 26.1L69.25 26.6L69.1 26.85L68.9 26.55L68.65 26L68.45 25.4L68.35 25.15Q68.25 26.3 68.3 27.45L68.4 29.7L67.55 29.75L66.7 29.75L66.65 29.7L66.65 29.4L66.65 28.6L66.65 27.15L66.65 24.85L66.65 21.5L67.45 21.45L68.3 21.45L68.6 22L68.85 22.7L69.1 23.25L69.15 23.3L69.3 23.1L69.45 22.55L69.65 21.9L69.9 21.45L70.3 21.45M73.8,21.45L75.1 21.4L76.3 21.4L77.2 21.4L77.5 21.4L77.55 22.25L77.5 23.1L77.5 23.15L76.5 23.25L75.45 23.25L74.4 23.3L74.35 23.3L74.3 24L74.35 24.7L75.1 24.75L75.85 24.75L75.85 25.55L75.85 26.4L75.3 26.5L74.75 26.5L74.4 26.55L74.35 27.35L74.4 28.05L75.95 28.1L77.55 28.1L77.55 28.15L77.6 28.95L77.45 29.7L74.95 29.75L72.55 29.7L72.5 25.6Q72.45 23.55 72.55 21.5L73.8 21.45M55,8.85L56.2 8.9Q56.9 9.05 57.25 9.5L57.75 10.6L57.8 11.9L57.35 11.95L56.65 12L55.8 12L55.05 12L54.55 12L54.55 12.2L54.6 12.8L54.75 13.25L55.15 13.65L55.65 13.75L56.1 13.45L56.25 12.7L56.7 12.7L57.3 12.7L57.75 12.7L57.7 13.5L57.6 14.2L57.45 14.6Q57.15 14.95 56.65 15.05L55.65 15.15L54.65 15.1L54.35 15.05L54.05 14.9L53.35 14.05L53 12.9Q52.9 12.25 52.95 11.6L53.05 10.75L53.2 9.95L53.9 9.2L55 8.85M52.2,9L52.25 12.15L52.2 15.5L52.2 16.1L52.1 16.55L51.65 17.1L51.2 17.3L50.75 17.4L50.35 17.4L49.5 17.4L48.5 17.15L47.8 16.5L47.7 16.2L47.6 15.8L47.6 15.5L48.05 15.45L48.65 15.45L49.15 15.5L49.35 16Q49.5 16.15 49.8 16.2L50.25 16.1L50.55 15.6L50.6 15.35L50.6 15.15L50.6 14.9L50.6 14.7L50.2 14.95L49.7 15L49.2 15L48.3 14.85L47.65 14.25L47.4 13.6L47.35 12.85L47.35 11.65L47.55 10.45Q47.75 9.85 48.15 9.5Q48.55 9.1 49.35 9.05L50.05 9.15L50.5 9.6L50.6 9.5L50.55 9.25L50.6 9L51.4 9L52.2 9M54.6,11L54.9 11.05L55.75 11.05L56.3 11.05L56.5 11.05L56.5 10.9L56.35 10.45L56 10.15L55.85 10.05L55.6 10Q55.05 10 54.85 10.25Q54.65 10.45 54.6 10.8L54.6 11M43.45,9L43.5 9.35L43.5 9.65L43.65 9.55L43.8 9.45Q44.15 9.2 44.55 9.1L45.45 9.1Q45.85 9.15 46.2 9.45L46.4 10.05L46.5 11.1L46.45 12.45L46.45 13.8L46.45 15L45.7 15.05L44.95 15L44.95 14.15L44.95 13.2L44.9 12.25L44.9 11.8L44.8 11.35L44.6 11.05L44.55 11.05L44.15 10.95L43.7 11.1Q43.45 11.25 43.4 11.7L43.4 12.8L43.45 13.85L43.4 14.9L43.4 14.95L42.95 15.05L42.55 15L41.9 15.05L41.9 12.1L41.9 9L42.2 9.05L42.45 9.05L42.75 9L43 9L43.3 8.95L43.45 9M41.05,9.15L41.05 9.3L41.05 9.45L41.05 12L41.05 14.5L41 14.8L40.85 15L40.75 15L40.35 15L39.95 14.95L39.7 15L39.45 15L39.3 14.9L39.3 14.75L39.3 14.55L39.35 14.35L38.6 14.8L37.75 15L36.95 14.7L36.4 13.9L36.1 12.85L36 11.8Q36 11 36.25 10.4L37 9.45Q37.45 9.05 38 9.05L38.5 9.05L38.95 9.2L39.25 9.6L39.25 9.25L39.25 9L39.4 8.95L39.65 8.95L39.85 9L40.35 9L41.05 9L41.05 9.15M49.65,10.5L49.2 10.7L48.9 11.15L48.7 11.7L48.7 11.9L48.7 12.15L48.7 12.25Q48.7 12.85 49.05 13.3Q49.25 13.55 49.6 13.6L50.3 13.6L50.55 13.3L50.65 12.85L50.6 11.9L50.5 10.9L50.15 10.55L49.65 10.5M42.1,21.5L42.9 21.55L42.9 23.15L42.9 23.45L42.95 23.8L43.7 23.8L44.75 23.75L44.85 24.15L44.8 24.7L44.8 25.25L42.95 25.25L42.95 26.5L42.95 27.65L43.45 28L44.15 28.1L44.8 28.15L44.9 28.9L44.8 29.75L43.5 29.7L42.25 29.4Q41.75 29.2 41.5 28.7L41.35 26.95L41.35 25.25L40.95 25.25L40.45 25.25L40.5 23.8L40.95 23.8L41.35 23.8L41.35 23.05L41.35 22.2L41.35 21.5L42.1 21.5M50.15,23.75L49.8 25.15L49.5 26.4L49.15 27.9L48.75 29.4L48 30.75L46.75 31.6L44.75 31.85L44.65 31.05L44.7 30.3L45.5 30.3L46.1 30.15Q46.35 30 46.25 29.45L45.65 26.55L44.9 23.75L45.8 23.75L46.65 23.8L46.85 24.8L47.05 26L47.35 27.2L47.6 28.1L47.8 27.15L47.95 25.95L48.15 24.7L48.4 23.75L49.2 23.75L50.15 23.75M54.9,21.5L55.7 21.55L55.7 23.15L55.7 23.45L55.75 23.8L56.5 23.8L57.55 23.75L57.65 24.15L57.6 24.7L57.6 25.25L55.75 25.25L55.75 26.5L55.75 27.65L56.25 28L56.95 28.1L57.6 28.15L57.7 28.9L57.6 29.75L56.3 29.7L55.05 29.4L54.3 28.7L54.15 26.95L54.15 25.25L53.75 25.25L53.25 25.25L53.3 23.8L53.75 23.8L54.15 23.8L54.15 23.05L54.15 22.2L54.15 21.5L54.9 21.5M60.25,25.55L60.05 25.7L60 25.8L59.95 25.95L59.9 26.7L59.85 27.5L60 27.9L60.4 28.15L60.85 28.15L61.25 28.05L61.4 27.9L61.5 27.65L61.6 26.85L61.55 26.15L61.2 25.5L60.45 25.45L60.25 25.55M55,35.9L55 36.25L55 36.85L55.05 37.4L54.7 37.55L54.1 37.5L53.4 37.5L53.4 36.75L53.35 35.85L55 35.9M42.4,36.3L42.4 37.9L42.4 38.2L42.45 38.55L43.2 38.55L44.25 38.5L44.35 38.9L44.3 39.45L44.3 40L42.45 40L42.45 41.25L42.45 42.4L42.95 42.75L43.65 42.85L44.3 42.9L44.4 43.65L44.3 44.5L43 44.45L41.75 44.15L41 43.45L40.85 41.7L40.85 40L40.45 40L39.95 40L40 38.55L40.45 38.55L40.85 38.55L40.85 37.8L40.85 36.95L40.85 36.25L41.6 36.25L42.4 36.3M49.75,40.2L49.8 41.25L49.75 42.05L49.7 42.9L49.6 43.6L49.4 44.05L48.65 44.55L47.65 44.6L46.65 44.6L46.05 44.4L45.6 44.05L45.15 43.35L45 42.45L45 41.45L45 40.6L45 40.15L45.05 39.75L45.15 39.4L45.25 39.05L45.65 38.65Q45.9 38.45 46.3 38.4L47.05 38.35L47.5 38.35L48 38.35L48.7 38.5Q49.05 38.6 49.3 38.85L49.65 39.35L49.75 40.2M46.7,40.55L46.65 40.7L46.6 41.45L46.55 42.25L46.7 42.65L47.1 42.9L47.55 42.9L47.95 42.8L48.1 42.65L48.2 42.4L48.3 41.6L48.25 40.9L47.9 40.25L47.15 40.2L46.95 40.3L46.75 40.45L46.7 40.55M60.1,38.95L60.2 39L60.25 39.15L60.4 39.05L60.5 38.95Q60.85 38.7 61.3 38.6L62.15 38.6Q62.6 38.65 62.95 38.95L63.15 39.55L63.2 40.6L63.2 41.95L63.15 43.3L63.2 44.5L62.45 44.55L61.7 44.5L61.65 43.65L61.65 42.7L61.65 41.75L61.6 41.3L61.5 40.85L61.35 40.55L61.3 40.55L60.9 40.45L60.4 40.65L60.4 41.95L60.35 43.3L60.35 44.5L59.6 44.55L58.85 44.5L58.85 43.65L58.85 42.7L58.8 41.75L58.8 41.3L58.7 40.85L58.5 40.55L58.05 40.45Q57.8 40.45 57.6 40.6Q57.35 40.75 57.35 41.2L57.35 42.3L57.35 43.35L57.3 44.4L57.3 44.45L56.85 44.55L56.45 44.5L55.85 44.55L55.8 41.6L55.8 38.5L56.15 38.55L56.35 38.55L56.65 38.5L56.9 38.5L57.2 38.45L57.4 38.5L57.4 38.85L57.4 39.15L57.55 39.05L57.7 38.95Q58.05 38.7 58.5 38.6L59.35 38.6Q59.8 38.65 60.1 38.95M55.05,38.5L55 41.45L55.05 44.45L54.75 44.5L54.2 44.5L53.7 44.5L53.35 44.5L53.4 42.45L53.35 40.4L53.4 38.45L53.6 38.45L53.75 38.45L54.2 38.45L54.85 38.45L55.05 38.45L55.05 38.5M70.25,38.55L70.5 38.55L70.8 38.5L71.05 38.5L71.4 38.5L71.6 38.5L71.6 38.7L71.6 38.8L71.6 38.9L71.8 38.8L72.15 38.7L72.85 38.55L73.5 38.5L73.8 38.55L73.8 39.45L73.8 40.1L73.8 40.65L73.7 40.6L73.6 40.55L73.45 40.55L73.15 40.45L73 40.45L72.25 40.4Q71.9 40.45 71.7 40.65Q71.5 40.85 71.55 41.25L71.55 42.3L71.55 43.3L71.6 44.4L71.6 44.45L71.1 44.55L70.6 44.5L69.95 44.55L69.95 41.6L69.95 38.5L70.25 38.55M68.15,38.9L68.7 39.65L69 40.75L69.05 41.9L68.95 43L68.65 43.85L68.1 44.35L67.4 44.5L66.65 44.5L66.05 44.4L65.8 44.2L65.8 45.25L65.8 45.8L65.8 46.15L65.8 46.4L65.75 46.8L65.75 46.95L65.5 47L64.85 47L64.25 46.95L64.25 46.15L64.2 42.2L64.15 38.5L65 38.5L65.8 38.5L65.8 38.6L65.8 38.8L65.8 39L65.85 39.1L65.95 39.05Q66.1 38.7 66.4 38.6L67.05 38.55Q67.75 38.6 68.15 38.9M67.7,41.6L67.55 40.8L67.2 40.25Q66.95 40 66.6 40Q66.2 40 66 40.25L65.8 40.85L65.75 41.75L65.8 42.65L66 43.05L66.45 43.15L67.25 42.9L67.6 42.3L67.7 41.95L67.7 41.6M79.05,39.35L79.15 40.2L79.2 41.25L79.15 42.05L79.1 42.9L79 43.6L78.8 44.05L78.05 44.55L77.05 44.6L76.05 44.6L75.45 44.4L75 44.05L74.55 43.35L74.4 42.45L74.4 41.45L74.4 40.6L74.4 40.15L74.45 39.75L74.55 39.4L74.65 39.05L75.05 38.65Q75.3 38.45 75.7 38.4L76.45 38.35L76.9 38.35L77.4 38.35L78.1 38.5Q78.45 38.6 78.7 38.85L79.05 39.35M77.65,40.9L77.3 40.25L76.55 40.2L76.35 40.3L76.15 40.45L76.1 40.55L76.05 40.7L76 41.45L75.95 42.25Q75.95 42.5 76.1 42.65L76.5 42.9L76.95 42.9L77.35 42.8L77.5 42.65L77.6 42.4L77.7 41.6L77.65 40.9M34.3,9.1Q34.7 9.15 35.05 9.45L35.25 10.05L35.35 11.1L35.3 12.45L35.3 13.8L35.3 15L34.55 15.05L33.8 15L33.8 14.15L33.8 13.2L33.75 12.25L33.75 11.8L33.65 11.35L33.45 11.05L33.4 11.05L33 10.95Q32.75 10.95 32.55 11.1L32.25 11.7L32.25 12.8L32.3 13.85L32.25 14.9L32.25 14.95L31.8 15.05L31.4 15L30.75 15.05L30.75 13.6L30.75 11.7L30.75 9.75L30.75 7.85L30.75 6.3L31.1 6.35L31.3 6.35L31.6 6.3L31.85 6.3L32.15 6.25L32.35 6.3L32.35 6.75L32.35 7.55L32.35 8.45L32.35 9.25L32.35 9.65L32.5 9.55L32.65 9.45Q33 9.2 33.4 9.1L34.3 9.1M37.55,11.4L37.5 11.7L37.45 12.05Q37.45 12.6 37.75 12.95Q38.05 13.35 38.55 13.35L39.1 13.15L39.25 12.65L39.25 11.9L39.25 11.05L39.1 10.7L38.65 10.65Q38.15 10.65 37.9 10.9L37.55 11.4M25.3,11.1L25.35 10.25L25.45 9.9L25.55 9.55L25.95 9.15L26.6 8.9L27.35 8.85L27.8 8.85L28.3 8.85L29 9L29.6 9.35L29.95 9.85L30.05 10.6L30.1 11.55L29.6 11.55L29.05 11.55L28.55 11.45L28.2 10.8L27.45 10.7L27.25 10.8L27.05 10.95L27 11.05L26.95 11.2L26.9 11.95L26.85 12.75Q26.85 13.05 27 13.2L27.4 13.4L27.85 13.45L28.25 13.3L28.45 13.05L28.55 12.65L29 12.65L29.6 12.65L30.05 12.7L30 13.5L29.9 14.2L29.7 14.6L28.95 15.05L27.95 15.15L26.95 15.1L26.35 14.9L25.9 14.6L25.45 13.85L25.3 12.95L25.3 12L25.3 11.1M21.75,23.85L21.75 23.75L22.55 23.75L23.4 23.75L23.35 27.45L23.3 31.4L23.3 32.2L22.7 32.25L22.05 32.25L21.8 32.2L21.8 32.05L21.75 31.65L21.75 31.4L21.75 31.05L21.75 30.5L21.75 29.45L21.5 29.65L20.9 29.75L20.15 29.75L19.45 29.6L18.9 29.1L18.6 28.25L18.5 27.15L18.6 25.6Q18.75 24.85 19.2 24.35Q19.6 23.85 20.5 23.8L21.15 23.85L21.6 24.3L21.7 24.35L21.75 24.25L21.75 24.05L21.75 23.85M25.2,23.7L25.95 23.75L25.95 24.6L25.95 25.55L26 26.5L26 26.95L26.1 27.4L26.3 27.7L26.35 27.7L26.75 27.8L27.2 27.65L27.45 27.05L27.45 25.95L27.45 24.9Q27.4 24.35 27.5 23.85L27.5 23.8L27.95 23.7L28.35 23.75L28.95 23.7L29 26.65L29 29.75L28.7 29.7L28.45 29.7L28.15 29.75L27.9 29.75L27.6 29.8L27.45 29.75L27.4 29.4L27.4 29.1L27.25 29.2L27.1 29.3L26.35 29.65L25.45 29.65Q25.05 29.6 24.7 29.3L24.5 28.7L24.4 27.65L24.4 26.3L24.45 24.95L24.45 23.75L25.2 23.7M31.85,23.8L32.35 23.8L32.8 23.95L33.1 24.35L33.1 24L33.1 23.75L33.25 23.7L33.5 23.7L33.7 23.75L34.2 23.75L34.9 23.75L34.9 23.9L34.9 24.05L34.9 24.2L34.9 26.75L34.9 29.25L34.85 29.55L34.7 29.75L34.6 29.75L34.2 29.75L33.8 29.7L33.55 29.75L33.3 29.75L33.15 29.65L33.15 29.5L33.15 29.3L33.2 29.1Q32.9 29.4 32.45 29.55L31.6 29.75L30.8 29.45Q30.45 29.15 30.25 28.65L29.95 27.6L29.85 26.55Q29.85 25.75 30.1 25.15Q30.4 24.55 30.85 24.2Q31.3 23.8 31.85 23.8M39.9,21.15L39.9 21.5L39.9 22.1L39.95 22.65L39.6 22.8L39 22.75L38.3 22.75L38.3 22L38.25 21.1L39.9 21.15M37.5,21.05L37.5 22.55L37.45 24.4L37.45 26.4L37.45 28.25L37.5 29.7L37.2 29.75L36.65 29.75L36.15 29.75L35.8 29.75L35.85 26.85L35.75 23.95L35.85 21.05L37.5 21.05M39.1,23.7L39.75 23.7L39.95 23.7L39.95 23.75L39.9 26.7L39.95 29.7L39.65 29.75L39.1 29.75L38.6 29.75L38.25 29.75L38.3 27.7L38.25 25.65L38.3 23.7L38.5 23.7L38.65 23.7L39.1 23.7M19.95,27.55Q20 27.95 20.3 28.15L21.05 28.4L21.55 28.3L21.75 27.9L21.8 27L21.75 26.1L21.55 25.5Q21.35 25.25 20.95 25.25Q20.6 25.25 20.35 25.5Q20.1 25.7 20 26.05L19.85 26.85L19.85 27.2L19.95 27.55M33.1,26.65L33.1 25.8L32.95 25.45L32.5 25.4Q32 25.4 31.75 25.65L31.4 26.15L31.35 26.45L31.3 26.8Q31.3 27.35 31.6 27.7Q31.9 28.1 32.4 28.1L32.95 27.9L33.1 27.4L33.1 26.65M37.25,53.35L37.9 53.3Q38.6 53.35 39 53.65L39.55 54.4L39.85 55.5L39.9 56.65L39.8 57.75L39.5 58.6Q39.3 58.95 38.95 59.1L38.25 59.25L37.5 59.25L36.9 59.15L36.65 58.95L36.65 60L36.65 60.55L36.65 60.9L36.65 61.15L36.6 61.55L36.6 61.7L36.35 61.75L35.7 61.75L35.1 61.7L35.1 60.9L35.05 56.95L35 53.25L35.85 53.25L36.65 53.25L36.65 53.35L36.65 53.55L36.65 53.75L36.7 53.85L36.8 53.8Q36.95 53.45 37.25 53.35M36.85,55L36.65 55.6L36.6 56.5L36.65 57.4L36.85 57.8L37.3 57.9L38.1 57.65L38.45 57.05L38.55 56.7L38.55 56.35L38.4 55.55L38.05 55Q37.8 54.75 37.45 54.75Q37.05 54.75 36.85 55M40.35,55.85L40.45 55L40.6 54.2L41.3 53.45L42.4 53.1L43.6 53.15Q44.3 53.3 44.65 53.75L45.15 54.85L45.2 56.15L44.75 56.2L44.05 56.25L43.2 56.25L42.45 56.25L41.95 56.25L41.95 56.45L42 57.05L42.15 57.5L42.55 57.9L43.05 58L43.5 57.7L43.65 56.95L44.1 56.95L44.7 56.95L45.15 56.95L45.1 57.75L45 58.45L44.85 58.85L44.05 59.3L43.05 59.4L42.05 59.35L41.75 59.3L41.45 59.15L40.75 58.3Q40.5 57.8 40.4 57.15L40.35 55.85M77.45,53.25L77.95 53.25L78.65 53.25L78.65 53.4L78.65 53.55L78.65 53.7L78.65 56.25L78.65 58.75L78.6 59.05L78.45 59.25L78.35 59.25L77.95 59.25L77.55 59.2L77.3 59.25L77.05 59.25L76.9 59.15L76.9 59L76.9 58.8L76.95 58.6L76.2 59.05L75.35 59.25Q74.9 59.25 74.55 58.95L74 58.15L73.7 57.1L73.6 56.05Q73.6 55.25 73.85 54.65Q74.15 54.05 74.6 53.7Q75.05 53.3 75.6 53.3L76.1 53.3L76.55 53.45L76.85 53.85L76.85 53.5L76.85 53.25L77 53.2L77.25 53.2L77.45 53.25M76.7,54.95L76.25 54.9Q75.75 54.9 75.5 55.15L75.15 55.65L75.1 55.95L75.05 56.3Q75.05 56.85 75.35 57.2Q75.65 57.6 76.15 57.6L76.7 57.4L76.85 56.9L76.85 56.15L76.85 55.3L76.7 54.95M71.95,53.35Q72.4 53.4 72.75 53.7L72.95 54.3L73 55.35L73 56.7L72.95 58.05L73 59.25L72.25 59.3L71.5 59.25L71.45 58.4L71.45 57.45L71.45 56.5L71.4 56.05L71.3 55.6L71.15 55.3L71.1 55.3L70.7 55.2L70.2 55.4L70.2 56.7L70.15 58.05L70.15 59.25L69.4 59.3L68.65 59.25L68.65 58.4L68.65 57.45L68.6 56.5L68.6 56.05L68.5 55.6L68.3 55.3L67.85 55.2L67.4 55.35Q67.15 55.5 67.15 55.95L67.15 57.05L67.15 58.1L67.1 59.15L67.1 59.2L66.65 59.3L66.25 59.25L65.65 59.3L65.6 56.35L65.6 53.25L65.95 53.3L66.15 53.3L66.45 53.25L66.7 53.25L67 53.2L67.2 53.25L67.2 53.6L67.2 53.9L67.35 53.8L67.5 53.7Q67.85 53.45 68.3 53.35L69.15 53.35Q69.6 53.4 69.9 53.7L70 53.75L70.05 53.9L70.2 53.8L70.3 53.7Q70.65 53.45 71.1 53.35L71.95 53.35M62.7,53.25L62.9 53.25L62.9 53.45L62.9 53.55L62.9 53.65L63.1 53.55L63.45 53.45L64.15 53.3L64.8 53.25L65.1 53.3L65.1 54.2L65.1 54.85L65.1 55.4L65 55.35L64.9 55.3L64.75 55.3L64.45 55.2L64.3 55.2L63.55 55.15Q63.2 55.2 63 55.4Q62.8 55.6 62.85 56L62.85 57.05L62.85 58.05L62.9 59.15L62.9 59.2L62.4 59.3L61.9 59.25L61.25 59.3L61.25 56.35L61.25 53.25L61.55 53.3L61.8 53.3L62.1 53.25L62.35 53.25L62.7 53.25M57.9,53.1L58.4 53.1L59.1 53.25Q59.45 53.35 59.7 53.6L60.05 54.1L60.15 54.95L60.2 56L60.15 56.8L60.1 57.65L60 58.35L59.8 58.8L59.05 59.3L58.05 59.35L57.05 59.35L56.45 59.15L56 58.8L55.55 58.1L55.4 57.2L55.4 56.2L55.4 55.35L55.4 54.9L55.45 54.5L55.55 54.15L55.65 53.8L56.05 53.4Q56.3 53.2 56.7 53.15L57.45 53.1L57.9 53.1M57.1,55.3L57.05 55.45L57 56.2L56.95 57L57.1 57.4L57.5 57.65L57.95 57.65L58.35 57.55L58.5 57.4L58.6 57.15L58.7 56.35L58.65 55.65L58.3 55L57.55 54.95L57.35 55.05L57.15 55.2L57.1 55.3M54.95,51.8L54.85 52.6L54.4 52.6L53.9 52.7L53.35 52.75L53.05 53.05Q52.95 53.25 53 53.55L54.85 53.55L54.85 53.85L54.85 54.1L54.85 54.4L54.85 54.65L54.8 55.05L53.75 55L53 55L53 59.2L52.15 59.2L51.45 59.25L51.4 58.65L51.4 57.7L51.4 56.6L51.4 55.65L51.4 55L51 55L50.55 55L50.5 53.55L51 53.55L51.4 53.55L51.45 52.65Q51.5 52.2 51.8 51.8L52.6 51.2L53.7 51L54.85 51L54.95 51.8M47.2,53.25L47.55 53.25L47.75 53.25L47.75 53.45L47.75 53.55L47.75 53.65L47.95 53.55L48.3 53.45L49 53.3L49.65 53.25L49.95 53.3L49.95 54.2L49.95 54.85L49.95 55.4L49.85 55.35L49.75 55.3L49.6 55.3L49.3 55.2L49.15 55.2L48.4 55.15Q48.05 55.2 47.85 55.4Q47.65 55.6 47.7 56L47.7 57.05L47.7 58.05L47.75 59.15L47.75 59.2L47.25 59.3L46.75 59.25L46.1 59.3L46.1 56.35L46.1 53.25L46.4 53.3L46.65 53.3L46.95 53.25L47.2 53.25M42,55.25L42.3 55.3L43.15 55.3L43.7 55.3L43.9 55.3L43.9 55.15L43.75 54.7L43.4 54.4L43.25 54.3L43 54.25Q42.45 54.25 42.25 54.5Q42.05 54.7 42 55.05L42 55.25" />
</g>
</svg>
