<?xml version="1.0" encoding="utf-8"?>
<svg version="1.1" id="Layer_1"
xmlns="http://www.w3.org/2000/svg"
xmlns:xlink="http://www.w3.org/1999/xlink"
xmlns:author="http://www.sothink.com"
width="128px" height="19px"
xml:space="preserve">
<g id="727" transform="matrix(1, 0, 0, 1, 34.3, -18.8)">
<path style="fill:#FFFFFF;fill-opacity:1" d="M85.45,23.75L85.15 24.5L85.05 25.65L84.9 28.55Q84.9 29.95 85.3 31.3L85.55 32.25Q85.7 32.75 86.25 32.85L86.75 32.95L87.2 32.95L87.95 32.4L88.3 31.65L88.5 30.4L88.65 29.1L88.65 27.15L88.45 25.05L87.9 23.45Q87.6 23.05 87.2 23L86.3 23.05Q86.05 23.1 85.8 23.3Q85.55 23.45 85.45 23.75M82.7,20.85L84.4 19.45Q85.35 18.9 86.75 18.8Q88.45 18.8 89.75 19.55Q90.95 20.4 91.7 21.7Q92.45 23 92.75 24.5L92.95 26.05L92.95 27.55L92.75 30.85Q92.4 32.55 91.7 34.05Q90.95 35.45 89.65 36.35Q88.45 37.3 86.6 37.15L85.65 37.1L84.8 36.85Q83.05 36.15 82.3 34.9Q81.55 33.7 81.35 32.2L81.15 29.05L81.05 26.4Q81.05 25.05 81.35 23.75Q81.7 22.45 82.45 21.2L82.5 21.05L82.7 20.85M65.7,21L65.7 22.25L65.6 22.85L64.7 22.95L63.05 22.95L61.2 22.95L59.5 23.05L58.6 23.05L58.6 23.15L58.7 23.65L58.8 24.05L58.8 24.15L58.9 24.15L60.3 23.95L61.55 24.05Q63.15 24.35 64.05 25.2Q65 26.2 65.5 27.6L66 30.55L65.9 33.6Q65.6 34.75 64.7 35.65Q63.85 36.45 62.55 36.8L59.9 37.2Q58.6 37.2 57.45 36.8L55.5 35.45Q54.8 34.45 54.8 33.1L54.9 32.3L55 31.5L58.6 31.4L58.6 31.5Q58.7 32.4 59.2 32.8L60.2 33L61.55 32.1Q61.95 31.4 61.95 30.65Q61.95 29.75 61.55 29.05Q61.2 28.35 60.4 28.05L58.5 27.95L56.55 28.05L54.9 28.05L54.8 28.05L54.8 24.9L54.8 22.15L54.8 19.2L55.65 19.2L57.65 19.1L60.1 19.1L62.65 19L64.7 19L65.7 19.1L65.7 19.7L65.7 21M69.15,21.05L69.35 20.85L71.05 19.45Q72 18.9 73.35 18.8Q75.05 18.8 76.35 19.55Q77.6 20.4 78.35 21.7Q79.1 23 79.35 24.5L79.55 26.05L79.55 27.55Q79.65 29.1 79.35 30.85Q79.05 32.55 78.35 34.05Q77.6 35.45 76.3 36.35Q75.05 37.3 73.25 37.15L72.3 37.1L71.45 36.85Q69.7 36.15 68.95 34.9Q68.2 33.7 68 32.2L67.8 29.05L67.7 26.4Q67.7 25.05 68 23.75Q68.3 22.45 69.05 21.2L69.15 21.05M71.8,24.5L71.65 25.65L71.55 28.55Q71.55 29.95 71.95 31.3L72.2 32.25Q72.35 32.75 72.9 32.85L73.35 32.95L73.85 32.95L74.6 32.4L74.95 31.65L75.15 30.4L75.3 29.1L75.3 27.15L75.05 25.05L74.55 23.45Q74.25 23.05 73.85 23L72.95 23.05Q72.7 23.1 72.4 23.3L72.05 23.75L71.8 24.5M1.75,21.2L1.65 23.25L0.4 23.2L-1.5 23.25L-1.65 23.25L-1.65 23.3L-1.7 24.05L-1.7 26.1L-1.65 30.15L-1.5 37.05L-1.5 37.1L-3.6 37.15L-5.75 37.25L-5.75 35.65L-5.75 31.25L-5.95 23.45L-5.95 23.4L-7.05 23.2L-8.25 23.1L-9.1 23.1L-9.2 22.3L-9.2 20.75L-9.15 19.05L-9.2 19.05L-9.2 18.95L-3.75 18.95L1.75 19.25L1.75 21.2M-17.45,23.25L-17.55 24.8L-17.4 26.3L-15.85 26.4L-14.2 26.4L-14.2 26.45L-14.1 28.25L-14.2 30L-15.35 30.15L-16.6 30.2L-17.35 30.35L-17.4 32L-17.35 33.55L-17.25 33.6L-13.9 33.7L-10.5 33.7L-10.5 33.75L-10.45 35.45L-10.7 37.15L-16.1 37.25L-21.3 37.1L-21.4 28.25L-21.3 19.35L-18.65 19.3L-15.75 19.25L-13.15 19.15L-11.25 19.15L-10.6 19.25L-10.5 21.05L-10.6 22.9L-12.85 23.2L-15.1 23.2L-17.35 23.25L-17.45 23.25M-31.3,19.45L-30 19.1L-26.45 19.45Q-24.85 20 -24 21.35Q-23.15 22.65 -23.35 24.75L-23.4 24.9L-23.6 25.05L-24.2 25.05L-25.05 25.05L-25.8 25.05L-26.65 24.95L-26.95 24.05L-27.55 23.2Q-27.9 22.85 -28.45 22.8L-29.25 22.8Q-29.65 22.8 -30 23.1L-30.15 23.3L-30.3 23.8L-30.65 25.9L-30.75 28.5L-30.7 31.25L-30.4 32.45Q-30.3 33.15 -29.8 33.55L-29.55 33.7L-29.2 33.85L-28.4 33.75L-27.65 33.55L-27.1 33.2L-26.8 32.6L-26.75 32.1L-26.65 31.45Q-26.65 31.1 -26.8 31.1L-27.35 31.05L-28.15 31.1L-28.7 31.05L-28.8 30.1L-28.7 29.25L-28.8 28.3L-28.8 28.25L-28.7 28.25L-27.65 27.95L-26 27.95L-24.4 28.05L-23.4 28.1L-23.35 28.1L-23.35 28.15L-23.15 31.05L-23.35 34.05Q-23.45 35.35 -24.15 36Q-24.75 36.75 -25.8 37.1L-28.6 37.65L-31.3 37.25Q-32.25 36.85 -32.9 36.1L-33.7 34.15L-33.9 33.4L-34.05 32.4L-34.15 30.4L-34.3 28.65L-34.3 26.45L-34.25 24.75L-34.05 23.05L-33.55 21.4L-32.55 20.05Q-32 19.65 -31.3 19.45" />
</g>
</svg>
