<?xml version="1.0" encoding="utf-8"?>
<svg version="1.1" id="Layer_1"
xmlns="http://www.w3.org/2000/svg"
xmlns:xlink="http://www.w3.org/1999/xlink"
xmlns:author="http://www.sothink.com"
width="39px" height="18px"
xml:space="preserve">
<g id="1246" transform="matrix(1, 0, 0, 1, -117.1, -77.9)">
<path style="fill:#57351A;fill-opacity:1" d="M143.1,80.2L143.7 81.1L143.85 81L143.8 81.15L143.8 81.25Q143.2 82.5 141.7 83.15Q140.15 83.85 138.65 84.05L137.95 84.15Q136.7 84.4 135.8 85.25L134.4 86.6Q133.6 85.95 131.75 85.75L131.6 85.7Q131.6 85 132.15 84.05Q132.75 83.15 133.35 83L133.9 82.65L134 82.65L133.55 81.95L135.05 82.25L135.3 82.25L135.7 82.25L140.35 81.9Q141.6 80.85 142.8 80.1L143.1 80.2M139.4,84.65Q141.5 84.25 143.45 82.75L144.15 82.1L144.5 83.8Q144.5 85.25 144.1 85.95L143.35 86.75L142.15 87.05L140.15 86.75Q139.05 86.45 138.4 85.9L137.5 85.15L139.4 84.65" />
<path style="fill:#301D16;fill-opacity:1" d="M125.25,85.75L125.45 85.6Q124.55 82.35 125.95 81.1Q127.2 79.65 129.75 80.05Q132.05 80.35 133.25 81.6L133.35 81.65L133.45 81.75L133.55 81.95L134 82.65L133.9 82.65L133.65 82.5Q132.8 81.9 131.6 81.4L130.15 81.05Q127.5 80.35 126.55 81.75Q125.5 83.35 126.4 85.4L126.5 85.4L126.75 85.4L125.25 85.75" />
<path style="fill:#7F5C46;fill-opacity:1" d="M130.95,85.55L129.05 85.4L126.95 85.4L126.75 85.4L126.5 85.4Q126.7 83.95 127.3 82.9Q128.05 81.75 129.7 81.55L131.6 81.4Q132.8 81.9 133.65 82.5L133.9 82.65L133.35 83Q132.75 83.15 132.15 84.05Q131.6 85 131.6 85.7L130.95 85.55" />
<path style="fill:#25140E;fill-opacity:1" d="M144.95,78.75L144.95 78.9L145.05 79.55L145.05 80.25L145 80.55L144.7 81.4L144.75 81.55L145.05 83L145.2 84.45L144.95 86L144.45 86.85L144.45 86.9L143.85 87.2L142.85 87.85L140.55 87.7Q139.85 87.6 138.75 86.9L136.9 85.5L136.85 85.55L136.85 85.45L136.45 85.8Q135 86.85 134.85 87.2Q133.55 86.1 131.75 85.75Q133.6 85.95 134.4 86.6L135.8 85.25Q136.7 84.4 137.95 84.15L138.65 84.05Q140.15 83.85 141.7 83.15Q143.2 82.5 143.8 81.25L143.8 81.15L143.85 81L143.7 81.1L143.1 80.2L142.8 80.1L142.7 79.9L142.55 79.9L142.1 80.1L142 80.1L142.45 79.05L142.65 78.95L142.65 78.9L142.8 78.75L143.55 78.45L143.75 78.25Q143.8 77.9 144.15 77.9L144.35 77.95L144.65 77.9L144.75 78.25L144.95 78.75M137.5,85.15L138.4 85.9Q139.05 86.45 140.15 86.75L142.15 87.05L143.35 86.75L144.1 85.95Q144.5 85.25 144.5 83.8L144.15 82.1L143.45 82.75Q141.5 84.25 139.4 84.65L137.5 85.15M144.05,79.85L144.05 79.4L143.95 78.9L143.9 78.8L143.65 78.9L143.15 79.4L143.55 79.75L144.05 79.85" />
<path style="fill:#987560;fill-opacity:1" d="M126.4,85.4Q125.5 83.35 126.55 81.75Q127.5 80.35 130.15 81.05L131.6 81.4L129.7 81.55Q128.05 81.75 127.3 82.9Q126.7 83.95 126.5 85.4L126.4 85.4" />
<path style="fill:#191919;fill-opacity:1" d="M134.85,87.2L134.85 87.4L135 87.6Q135.35 88.5 134.75 89.7Q134.3 90.75 132.35 91.45L132.1 91.45L129.65 92L126 91.85L125 91.6Q123.25 90.9 122.8 90.05Q122.25 88.85 122.85 87.75Q123.4 86.85 124.4 86.25Q124.95 85.9 125.25 85.75L126.75 85.4L126.95 85.4L129.05 85.4L130.95 85.55L131.6 85.7L131.75 85.75Q133.55 86.1 134.85 87.2M131.1,86.4L131 86.4L129.1 86.25L127.2 86.3Q125.65 86.4 124.9 86.8Q123.75 87.4 123.5 88.4Q123.2 89.1 123.6 89.95Q123.9 90.25 124.75 90.65L126.4 91.1L129.4 91.25L131.4 90.85L132.6 90.45Q134 89.85 134.15 88.95L133.9 87.85L133.2 87Q132.6 86.55 131.1 86.4" />
<path style="fill:#524A47;fill-opacity:1" d="M129.1,86.25L131 86.4L131.1 86.4Q131.6 86.45 132.1 87.6Q132.6 88.75 132.6 90.1L132.6 90.45L131.4 90.85L129.4 91.25L126.4 91.1L124.75 90.65L124.6 89.85Q124.6 88.1 126.8 86.55L127.2 86.3L129.1 86.25" />
<path style="fill:#7E7470;fill-opacity:1" d="M123.6,89.95Q123.2 89.1 123.5 88.4Q123.75 87.4 124.9 86.8Q125.65 86.4 127.2 86.3L126.8 86.55Q124.6 88.1 124.6 89.85L124.75 90.65Q123.9 90.25 123.6 89.95" />
<path style="fill:#382F2C;fill-opacity:1" d="M133.2,87L133.9 87.85L134.15 88.95Q134 89.85 132.6 90.45L132.6 90.1Q132.6 88.75 132.1 87.6Q131.6 86.45 131.1 86.4Q132.6 86.55 133.2 87M143.55,79.75L144.05 79.4L144.05 79.85L143.55 79.75M144.45,86.85L144.95 86L145.2 84.45L145.05 83L144.75 81.55L144.7 81.4L145 80.55L145.05 80.25L145.05 79.55L144.95 78.9L144.95 78.75L146.25 78.95Q147.7 79.6 148.25 81L148.95 83.6Q149.25 84.65 148.7 86.65Q148.1 88.9 146.45 88.95Q144.8 89.1 144.2 88.55L143.8 87.6L144.2 87.05Q144.35 86.9 144.45 86.9L144.45 86.85" />
<path style="fill:#0B0B0B;fill-opacity:1" d="M144.75,78.25L144.65 77.9Q145.3 77.85 146.25 78.35Q148.1 78.95 148.75 80.5Q149.55 82 149.7 83.7Q149.8 85.45 149.1 87.6Q148.4 89.7 146.35 89.7Q144.3 89.8 143.4 88.65L142.85 87.85L143.85 87.2L144.45 86.9Q144.35 86.9 144.2 87.05L143.8 87.6L144.2 88.55Q144.8 89.1 146.45 88.95Q148.1 88.9 148.7 86.65Q149.25 84.65 148.95 83.6L148.25 81Q147.7 79.6 146.25 78.95L144.95 78.75L144.75 78.25" />
<path style="fill:#000000;fill-opacity:0.25098" d="M136.45,95.25L122.75 94.55Q117.1 93.85 117.1 92.85Q117.1 91.85 122.75 91.15L136.45 90.45L150.15 91.15Q155.85 91.85 155.85 92.85Q155.85 93.85 150.15 94.55L136.45 95.25" />
</g>
</svg>
