<?xml version="1.0" encoding="utf-8"?>
<svg version="1.1" id="Layer_1"
xmlns="http://www.w3.org/2000/svg"
xmlns:xlink="http://www.w3.org/1999/xlink"
xmlns:author="http://www.sothink.com"
width="14px" height="52px"
xml:space="preserve">
<g id="1268" transform="matrix(1, 0, 0, 1, 1.5, 4.45)">
<path style="fill:#4D3212;fill-opacity:1" d="M4.45,35.7Q4.55 41.2 4.3 44.9Q4.7 45.65 5.1 45.7Q5.5 45.8 5.95 44.7L5.95 38.45L5.95 10.3L5.95 9.9L7.25 9.85L7.25 10L7.25 10.3L7.25 35.7L7 45.8Q6.1 47.35 5.1 47.3Q4.15 47.25 3.2 45.95Q3.1 43.75 3.15 38.45L3.15 10.3L3.15 9.95L4.45 9.95L4.45 10L4.45 10.3L4.45 35.7" />
<path style="fill:#9A7226;fill-opacity:1" d="M5.1,45.7Q4.7 45.65 4.3 44.9Q4.55 41.2 4.45 35.7L4.45 10.3L5.45 10.3L5.1 45.7" />
<path style="fill:#745416;fill-opacity:1" d="M5.45,10.3L5.95 10.3L5.95 38.45L5.95 44.7Q5.5 45.8 5.1 45.7L5.45 10.3" />
<path style="fill:#4E4138;fill-opacity:1" d="M1.25,4.3L0.5 8.9L0.35 9.95L5.25 13.65L10.15 9.85L9.2 4.25L8.75 1.1L7.9 -0.2L7.8 -0.25L6.5 -1.65L5.9 -2.25L5.2 -3L4.5 -2.15L2.55 -0.05Q1.75 0.7 1.7 1.2L1.25 4.2L1.25 4.3M8.05,-1.9L9.7 0Q10.75 4.55 11.1 7.95L11.4 10.1L11.4 10.55L10.9 11.05L5.35 15.1Q2.6 13.5 -0.4 11.15L-0.85 10.65L-0.9 10.25L-0.9 10.2L-0.65 8.1L-0.55 7.65L0.7 0.15L2.35 -1.9L5.2 -4.45L7.75 -2.2L8.05 -1.9" />
<path style="fill:#B6A998;fill-opacity:1" d="M0.5,8.9L1.25 4.3L1.25 4.2L1.35 4L2.3 1.95L2.45 1.7L2.95 1.2L4.35 -0.25L5.25 -1.1L5.55 -1.35L5.85 -1.2Q6 -1.05 6.1 -1.1L6.5 -1.65L7.8 -0.25L8.1 3.1L8.6 8.45Q8.8 8.4 8.6 8.5L8 8.3L7.3 8.15L6.25 9.8Q6.05 9.85 5.85 9.5Q5.6 9.15 5.65 8.9L5.5 8.8L5.1 9.85L4.6 10.4Q4.05 10.65 2.2 9.9L0.5 8.9" />
<path style="fill:#837462;fill-opacity:1" d="M2.2,9.9Q4.05 10.65 4.6 10.4L5.1 9.85L5.5 8.8L5.65 8.9Q5.6 9.15 5.85 9.5Q6.05 9.85 6.25 9.8L7.3 8.15L8 8.3L8.6 8.5Q8.8 8.4 8.6 8.45L8.1 3.1L7.8 -0.25L7.9 -0.2L8.75 1.1L9.2 4.25L10.15 9.85L5.25 13.65L0.35 9.95L0.5 8.9L2.2 9.9" />
<path style="fill:#F5F3EE;fill-opacity:1" d="M6.1,-1.1Q6 -1.05 5.85 -1.2L5.55 -1.35L5.25 -1.1L4.35 -0.25L2.95 1.2L2.45 1.7L2.3 1.95L1.35 4L1.25 4.2L1.7 1.2Q1.75 0.7 2.55 -0.05L4.5 -2.15L5.2 -3L5.9 -2.25L6.5 -1.65L6.1 -1.1" />
<path style="fill:#2E201B;fill-opacity:1" d="M11.55,9.8Q10.75 11.25 9.05 10.25L8.9 10.15L5.15 7.7L4.35 7.25L0.95 10L0.6 10.25Q-0.3 10.95 -0.65 10.6L-1.4 9.7L-1.4 9.6Q-1.75 9 -1.1 8.3L-0.55 7.65L-0.1 7.2L1.15 5.95L1 5.8Q-0.25 5.2 -0.5 4.6L-0.55 4.2L-0.1 3.05Q0.35 2.25 0.95 2.3Q2.35 2.45 4.3 3.5Q6.65 2.25 10.05 1.85L10.1 1.85Q10.9 1.85 11.1 2.55Q11.55 3.9 10.95 4.75Q8.2 5.15 7 5.65L10.35 7.3Q12.35 8.3 11.55 9.8M7.6,3.1Q6.6 3.35 5.75 3.8L5.55 3.9Q2 5.6 -0.55 8.75L-0.85 9.1L-0.75 9.3L-0.65 9.5L0.25 9.4L1.95 8.05L3.3 7Q5.8 4.95 8.25 4.4L10.55 3.7L10.3 2.75L10.1 2.7Q9.55 2.5 8.8 2.7L8.4 2.85L7.6 3.1M0.4,3.75L0.4 4.4L1.5 5.05L1.95 5.25Q2.2 4.9 3.4 4.15L1.6 3.25Q0.8 2.85 0.55 3.5L0.4 3.75M5.6,7.25L7.15 8.05L9.5 9.35L9.7 9.4Q10.4 9.8 10.55 9Q10.75 8.25 8.3 7.05Q5.8 5.85 6.2 6.15L4.95 6.85L5.6 7.25" />
<path style="fill:#513727;fill-opacity:1" d="M4.45,5.55L6.95 4.4L8.6 3.35Q8.6 2.95 8.4 2.85L8.8 2.7Q9.55 2.5 10.1 2.7L10.3 2.75L10.55 3.7L8.25 4.4Q5.8 4.95 3.3 7L1.95 8.05Q3.3 6.15 4.45 5.55M0.55,3.5Q0.8 2.85 1.6 3.25L3.4 4.15Q2.2 4.9 1.95 5.25L1.5 5.05Q1.95 4.35 2.25 4.5L1.4 4L0.55 3.7L0.4 3.75L0.55 3.5M4.95,6.85L6.2 6.15Q5.8 5.85 8.3 7.05Q10.75 8.25 10.55 9Q10.4 9.8 9.7 9.4L9.5 9.35L9.9 8.75L7.9 7.5Q7 7 6.2 7L5.75 7.1L5.6 7.25L4.95 6.85" />
<path style="fill:#644638;fill-opacity:1" d="M-0.3,9L0.35 8.55L2.55 6.65L4.3 5.15L5.25 4.55L5.75 4L5.75 3.8Q6.6 3.35 7.6 3.1L8.4 2.85Q8.6 2.95 8.6 3.35L6.95 4.4L4.45 5.55Q3.3 6.15 1.95 8.05L0.25 9.4L-0.65 9.5L-0.75 9.3L-0.85 9.1L-0.55 8.75L-0.3 9M0.4,4.4L0.4 3.75L0.55 3.7L1.4 4L2.25 4.5Q1.95 4.35 1.5 5.05L0.4 4.4M7.15,8.05L5.6 7.25L5.75 7.1L6.2 7Q7 7 7.9 7.5L9.9 8.75L9.5 9.35L7.15 8.05" />
<path style="fill:#8E6755;fill-opacity:1" d="M-0.55,8.75Q2 5.6 5.55 3.9L5.75 3.8L5.75 4L5.25 4.55L4.3 5.15L2.55 6.65L0.35 8.55L-0.3 9L-0.55 8.75" />
</g>
</svg>
