<?xml version="1.0" encoding="utf-8"?>
<svg version="1.1" id="Layer_1"
xmlns="http://www.w3.org/2000/svg"
xmlns:xlink="http://www.w3.org/1999/xlink"
xmlns:author="http://www.sothink.com"
width="44px" height="49px"
xml:space="preserve">
<g id="1337" transform="matrix(1, 0, 0, 1, -0.6, 0.25)">
<path style="fill:#BB482E;fill-opacity:1" d="M25.8,28.8L26 29.7L25.9 29.75L25.8 28.8" />
<path style="fill:#BB732E;fill-opacity:1" d="M25.15,28.7L25.8 28.7L25.8 28.8L25.9 29.75L24.9 30.05Q23.8 30.35 22 29.65Q20.15 28.9 19.45 27.2Q18.95 25.95 19.2 24.75Q20.6 28.7 25.15 28.7" />
<path style="fill:#4E2710;fill-opacity:1" d="M25.9,29.75L26.1 30.85L26.1 30.95Q24.25 31.75 21.5 30.65Q20.5 30.3 19.6 29.55Q18.1 28.2 17.85 26.7Q17.65 25.45 18.3 23.4L18 23.3L18.65 23.4L18.8 23.45L19.7 23.85L19.45 23.8L19.2 24.75Q18.95 25.95 19.45 27.2Q20.15 28.9 22 29.65Q23.8 30.35 24.9 30.05L25.9 29.75" />
<path style="fill:#CBA33F;fill-opacity:1" d="M19.2,24.75L19.45 23.8L19.7 23.85L19.95 23.9L20.8 24.15L23.45 25.25Q25.1 26 25.8 28.7L25.15 28.7Q20.6 28.7 19.2 24.75" />
<path style="fill:#A8ACAB;fill-opacity:1" d="M42.65,8.3L42.9 7.45Q44 7.6 42.4 12L42.75 10.1L42.6 8.55L42.65 8.3" />
<path style="fill:#CACDCC;fill-opacity:1" d="M29.55,14.7L34.15 11.35L35.35 10.35L35.9 9.9L40.65 5.55Q41.85 4.7 41.8 6.4L41.5 7.95Q41.35 7.65 40.9 7.65L32.95 13.2L29.55 15.5Q27.85 16.6 26.3 16.8L29.55 14.7M9.05,3.65Q9.55 3.7 9.3 3.95Q8 5.05 9.05 3.65" />
<path style="fill:#B3B8B7;fill-opacity:1" d="M4.95,5.45L5.95 4.05Q7.7 1.7 9.9 2.85L10.65 3.55L10.35 3.7L9.9 3.85L9.45 3.75L8.65 3.6Q6.7 3.6 4.95 5.45M23.8,9.75L23.5 9.2L27.15 8.55L30.75 11.9L29.9 12.8L29.45 12.35L28.7 11.6Q28.65 11.2 28.1 10.95Q27.65 10.7 27.65 10.1L27 10.05L26.9 10.2Q25.7 11.4 26.55 10L23.8 9.75M29.6,29.5Q29.15 29.3 28.8 27.85L28.7 27.4L29.1 28.15Q29.85 28 30.1 28.45L31.9 28.45L32 28.35Q32 27.8 32.2 27.7L31.55 27.4L31.55 27.2Q32.55 27.5 32.85 25.85L33.5 25.7L33.55 25.7L33.45 28.9L33.25 29.2L29.6 29.5M22.8,5.4L21.1 4.15Q20.85 3.8 19.45 3Q17.9 2.15 17.1 2.15L17 2.15Q17.7 1.6 18.3 1.4Q20.4 2.25 21.7 3.5L23.4 5.9L22.8 5.4M18.35,7.2L17.95 6.85L18.65 6.7Q20.25 6.35 21.55 8.2Q22.85 10 22.95 11.3L22.95 11.95L21.6 9.95L21.5 9.7L21.45 9.5Q21.35 8.4 19.75 7.75L18.55 7.45L18.35 7.2M7.05,19.85L7.05 19.9L8.35 23.5Q8.6 24.2 9.4 24.2L11.65 23.65L11.65 27.95L11.3 27L10.9 25.65L10.8 25.65Q8.9 25.95 9.7 25.1L8.85 25Q7.95 24.85 7.9 24L7.25 21.35L6.9 20.2L7.05 19.85M32.95,41.65L32.55 41.5L32.55 41.45L32.75 40.25Q32.75 39.7 32.15 39.2Q31.6 38.8 31.05 38.7Q30.6 38.6 30.5 38.3L30.4 37.85Q29.95 37.35 29 37.35L29.1 36.8L29.1 35.3L27.45 36.75L26.45 37.45L25.9 37.4Q26.05 39.25 25 37.6L25.05 37.55L25.4 37.25L23.25 36.35Q21 35.2 20.8 35.2L18.75 35.8L16.2 36.35L16.2 35.95L21 33.85L22.05 34.9Q25.8 36.5 26.5 36.05Q27.15 35.85 29.25 33.6L30.25 36.75Q34.15 37.8 33.85 39.6Q33.65 40.6 32.95 41.65M9.7,28.75Q9.35 28.05 10.1 27.8L10.2 27.9Q11.15 28.95 9.7 28.85L9.7 28.75M34.3,35.95L34.3 35.2L34.25 35.2L34.55 34.05L34.1 34.05Q34.1 33.3 33.25 32.95L33.1 32.9L33.4 32.55Q34.55 32.7 35.65 33.75L34.35 35.95L34.3 35.95" />
<path style="fill:#88949C;fill-opacity:1" d="M10.15,5.95Q9.55 6.8 9 6.8L7.95 6.4L7.15 7L6.75 7.4L6.7 7.3Q6.6 6.6 5.95 6.45Q4.6 7.45 5.05 7.8L4.25 7.9L3.8 7.9Q4.1 6.7 4.95 5.45Q6.7 3.6 8.65 3.6L9.45 3.75L9.9 3.85L10.35 3.7L10.65 3.55L11.35 4.25L11.4 4.3Q10.9 4.85 10.15 5.95M31.55,27.2L31.55 27.4L32.2 27.7Q32 27.8 32 28.35L31.9 28.45L30.1 28.45Q29.85 28 29.1 28.15L28.7 27.4L28.25 25.9Q27.4 23.9 25.7 23.25Q18.25 20.8 16.2 19.5L15.9 20.8L15.95 21.05L15.75 20.95Q15.6 21.6 16.1 22.2L16.6 22.65Q16.2 23.4 16.2 24.6Q16.2 25.65 16.5 26.5L16.65 26.8L15.1 26.75Q15.25 25 14.55 22.95L13.85 21.1L13.1 20.85L11.1 20.45L10.8 20.5L10.7 20L11.55 19.8Q11.85 19.75 11.7 19.3Q11.5 18.75 11 18.65L10.45 19.25L10.3 19.05Q9.8 18.35 9.8 17.9Q10.45 15.75 11.1 15L11.6 14.55L12.7 13.95L13.4 13.75Q14.1 14.95 14.9 15.5Q16.75 16.4 18.65 17Q20.55 17.65 21.7 16.5L23.35 14.6L23.8 13.8L24.25 12.4Q24.55 11.3 23.9 9.95L23.8 9.75L26.55 10Q25.7 11.4 26.9 10.2L27 10.05L27.65 10.1Q27.65 10.7 28.1 10.95Q28.65 11.2 28.7 11.6L29.45 12.35L29.9 12.8Q29.55 13 29.15 13.3L26.2 15.2L25.5 15.65L24.5 16.3Q24.25 16.45 24.05 17.65Q23.7 18.1 23.7 19Q23.7 20.65 24.95 22.05Q26 23.25 27.2 23.55L29.75 24.3L30.65 25.25Q31.15 25.9 31.85 25.9L32.85 25.85Q32.55 27.5 31.55 27.2M42.1,12.7L39.15 17.8L38.3 17.8L36.7 19.2L34.65 20.35L34.1 20.35Q36.05 18.8 38.05 16.45Q41.2 12.75 42.6 8.55L42.75 10.1L42.4 12L42.1 12.7M40.1,11.45L39.65 12.5L38.85 13.4Q36.75 15.8 35.1 16.95Q32.9 18.4 31.8 18.4L31.55 18.4L32.95 17.4Q33.85 16.75 35.4 14.3Q32.1 16.1 31.45 16.75L29.1 18.15L29.1 18.4L28.95 18.85Q27.65 19.2 28 18.6L27.7 18.3L27 17.7L25.75 17.3L25.65 17.25L26.3 16.8Q27.85 16.6 29.55 15.5L32.95 13.2L40.9 7.65Q41.35 7.65 41.5 7.95L40.1 11.45M36.5,12.35L36.45 12.4Q37.5 13.95 37.55 12.25L37.3 12.05Q36.75 11.95 36.5 12.35M23.4,5.9L24 7.2L22.5 7.5Q21.7 6.4 20.55 5.45Q19.4 4.5 14.8 6.15Q13.8 5.65 15.4 3.75L17 2.15L17.1 2.15Q17.9 2.15 19.45 3Q20.85 3.8 21.1 4.15L22.8 5.4L23.4 5.9M22.95,11.95L22.9 12.35L22.65 12.45L22.2 12.05Q21.95 12.1 21.45 12.45L20.7 13L20.65 12.1L20.15 10.55L18.55 7.45L19.75 7.75Q21.35 8.4 21.45 9.5L21.5 9.7L21.4 9.65L21.2 9.6Q19.7 10.85 21.55 9.95L21.6 9.95L22.95 11.95M26.75,12.45Q26.5 12 26.1 11.95Q24.2 13.65 26.65 13Q27 12.9 26.75 12.45M21.05,20Q21.2 21.15 22.2 20.45L22.25 20.4Q22.3 19.7 21.55 19.65Q21.2 19.65 21.1 19.9L21.05 20M38.85,16.25Q39.1 16.05 38.6 16Q37.55 17.4 38.85 16.25M32.95,14.15Q32.5 14.1 32.3 14.45L32.25 14.55Q32.55 15.8 33.45 14.75L33.45 14.55L33.3 14.3Q33.15 14.15 32.95 14.15M17.25,3.55L17.2 3.65Q17.4 4.8 18.2 3.85L18.2 3.65L17.7 3.25Q17.35 3.3 17.25 3.55M11.15,8.95Q12 7.6 12.65 5.6Q13.3 5.95 13.5 7.2Q12.5 8.1 12.2 9.25L11.4 10L11.2 9.7L10.6 9.7L11.15 8.95M13.25,9.85Q13.6 9 14.35 8.3Q15.05 7.55 16.15 8.3Q18 9.15 18.45 11.45L18.15 11.6L17.45 11.2L17.05 10.75L16.2 11.1L15.5 10.85Q15.4 10.85 14.75 11.35Q14.15 11.8 13.7 11.85Q13.3 10.85 13.25 9.85M15.35,9.2Q14.3 10.9 15.75 9.7Q16 9.45 15.55 9.25L15.35 9.2M17.35,12.35L16.55 12.55Q16.25 12.75 16.3 12.55Q15.05 12.6 16.65 11.2Q17.25 11.25 17.4 11.85Q17.55 12.3 17.35 12.35M7.25,5Q6.1 6.3 7.8 5.95L7.85 5.95Q7.95 5.35 7.4 5.05L7.25 5M9.3,3.95Q9.55 3.7 9.05 3.65Q8 5.05 9.3 3.95M7.35,18.1Q6.15 18.05 3.55 19.1Q2.2 17.4 1.7 16.05Q1.65 13.2 3.05 11.35L3.7 12.1Q3.4 12.8 3.4 13.35Q3.4 14.35 3.85 15.45L3.85 15.5Q2.2 17.05 4.45 16.6L4.55 16.6Q4.9 16.95 5.4 16.95L6.2 16.75Q7.35 16.75 7.35 17.8L7.35 18.1M8.05,7.6Q6.25 8.05 7.9 6.6L8.25 6.85Q8.65 7.45 8.05 7.6M5.95,14.45Q6.1 16.15 5.05 14.65L5.1 14.55Q5.3 14.2 5.75 14.25L5.95 14.45M12.15,30.65L12.4 30.75L14.6 30.55Q15.55 30.5 15.65 31.9L15.65 32.7Q15.45 34.9 15.6 35.75Q15.5 36.1 16.2 35.95L16.2 36.35L18.75 35.8L20.8 35.2Q21 35.2 23.25 36.35L25.4 37.25L25.05 37.55L25 37.6Q26.05 39.25 25.9 37.4L26.45 37.45L27.45 36.75L29.1 35.3L29.1 36.8L29 37.35Q29.95 37.35 30.4 37.85L30.5 38.3Q30.6 38.6 31.05 38.7Q31.6 38.8 32.15 39.2Q32.75 39.7 32.75 40.25L32.55 41.45L32.55 41.5L32.4 41.4Q31.45 40.95 30.35 40.95L28.25 40.7L28.2 40.95Q28.55 41.05 28.3 41.25Q27.2 42.15 27.7 41.4L27.2 40.5L26 40.2Q24.8 40.2 24 42.15Q23.2 44.05 22.2 44.05L22 44.05Q22.1 44.65 21.55 44.65Q19.5 44.65 20.4 43.7L18.65 43.1Q18.3 43.05 18.25 42.8L18.15 42.45L17.2 42.25L16.75 41.5Q16.55 41.05 16.15 41.05Q15.9 41.05 15.25 41.45L14.5 41.8Q13.15 41.8 11.55 40.85Q9.7 39.75 9.7 38.3Q9.7 37.95 10.1 37.9Q10.45 37.85 10.45 37.3L10 36.85Q7.7 37.35 9.5 35.8Q9.8 35.85 10 36.2L10.25 35.85L10.65 35L10 34.45Q9.3 33.95 9.3 33L9.3 32.9L9.65 32.8Q9.95 32.7 9.85 32.25L9.7 32.1L9.4 32L8.85 32.4L8.55 32.3Q7.8 32.15 7.8 31.4L8.1 30.05L7.35 29.9Q6.95 29.85 6.95 29.5Q6.95 29.1 7.35 28.95L8.45 28.7L8 27.85L7.6 27.3L7.8 26.9Q6.7 26.25 6.35 25.5L6.2 24.95Q4.65 25.4 6.15 24.1L6.1 23.5L6.3 22.05L6.75 20.6L6.9 20.2L7.25 21.35L7.9 24Q7.95 24.85 8.85 25L9.7 25.1Q8.9 25.95 10.8 25.65L10.9 25.65L11.3 27L11.65 27.95Q11.75 30.25 12.15 30.65M18,17.35Q16.35 18.85 18.8 18.05Q19.1 17.95 18.75 17.7Q18.4 17.4 18 17.35M12.6,17.65Q13.4 20.05 13.45 17.65Q13.45 17.3 13.1 17.25L12.6 17.55L12.6 17.65M9.7,28.85Q11.15 28.95 10.2 27.9L10.1 27.8Q9.35 28.05 9.7 28.75L9.7 28.85M6.75,31.65Q4.6 32.4 6.3 30.9Q6.55 30.9 6.7 31.15Q7.05 31.55 6.75 31.65M9.7,40.85L9.8 40.9Q10.95 42.1 9.4 42.1L9.35 42Q8.85 41.15 9.7 40.85M14.95,38.8Q15.35 38.7 15.05 38.2L14.7 38Q12.9 39.3 14.95 38.8M32.95,35.2Q32.7 35.15 32.7 34.05L32.75 33.3L33.1 32.9L33.25 32.95Q34.1 33.3 34.1 34.05L34.55 34.05L34.25 35.2L32.95 35.2M20.9,37.65Q20.65 37.3 20.25 37.25Q18.2 39.15 20.75 38.4Q21.4 38.25 20.9 37.65M21.95,41.25L22.1 40.8Q22.05 40.25 21.55 40.2Q19.8 41.75 21.95 41.25" />
<path style="fill:#64717E;fill-opacity:1" d="M37.3,12.05L37.55 12.25Q37.5 13.95 36.45 12.4L36.5 12.35Q36.75 11.95 37.3 12.05M18.55,7.45L20.15 10.55L20.65 12.1L20.7 13L21.45 12.45Q21.95 12.1 22.2 12.05L22.65 12.45L22.9 12.35L22.7 13L22.1 13.9Q21.4 14.95 20.15 15.8L19.75 15.7Q20.15 12.75 19.6 10.75L18.9 9.1L17.8 7.85L16.85 7L17.95 6.85L18.35 7.2L18.55 7.45M26.65,13Q24.2 13.65 26.1 11.95Q26.5 12 26.75 12.45Q27 12.9 26.65 13M38.6,16Q39.1 16.05 38.85 16.25Q37.55 17.4 38.6 16M33.3,14.3L33.45 14.55L33.45 14.75Q32.55 15.8 32.25 14.55L32.3 14.45Q32.5 14.1 32.95 14.15Q33.15 14.15 33.3 14.3M18.45,11.5Q18.9 13.75 18.45 15.45L15.35 14.3L14.7 13.6L13.7 11.85Q14.15 11.8 14.75 11.35Q15.4 10.85 15.5 10.85L16.2 11.1L17.05 10.75L17.45 11.2L18.15 11.6L18.45 11.45L18.45 11.5M17.4,11.85Q17.25 11.25 16.65 11.2Q15.05 12.6 16.3 12.55Q16.25 12.75 16.55 12.55L17.35 12.35Q17.55 12.3 17.4 11.85" />
<path style="fill:#566370;fill-opacity:1" d="M3.6,9.4L3.6 9.3L3.8 7.9L4.25 7.9L5.05 7.8Q4.6 7.45 5.95 6.45Q6.6 6.6 6.7 7.3L6.75 7.4L7.15 7L7.95 6.4L9 6.8Q9.55 6.8 10.15 5.95Q10.9 4.85 11.4 4.3Q11.7 4.8 11.05 7.15L11.1 6.9Q10.2 9.45 7.95 10.6Q5.7 11.8 4.9 11.35L4.25 10.7Q3.85 10.2 3.6 9.4M12.7,13.95L11.6 14.55L11.1 15Q10.45 15.75 9.8 17.9Q9.8 18.35 10.3 19.05L10.45 19.25L11 18.65Q11.5 18.75 11.7 19.3Q11.85 19.75 11.55 19.8L10.7 20L10.8 20.5L11.1 20.45L13.1 20.85L13.85 21.1L14.55 22.95Q15.25 25 15.1 26.75L16.65 26.8L16.5 26.5Q16.2 25.65 16.2 24.6Q16.2 23.4 16.6 22.65L17.35 23.05L17.95 23.3L18 23.3L18.3 23.4Q17.65 25.45 17.85 26.7Q18.1 28.2 19.6 29.55Q20.5 30.3 21.5 30.65Q24.25 31.75 26.1 30.95L26.15 30.95Q26.85 32.2 28.75 32.25L28.6 32.4L26 34.95L23.15 33.8L22.3 32.9Q21.4 32 20.75 32.15L19.75 32.4L18.85 32.8L17.1 33.6Q17.35 29.3 16.45 29.25L16.4 29.25Q14.5 28.85 13.25 29.25Q13.05 22.95 12.7 22.35Q12.3 21.75 9.45 22.7L8.3 18.65Q8.2 18.1 7.35 18.1L7.35 17.8Q7.35 16.75 6.2 16.75L5.4 16.95Q4.9 16.95 4.55 16.6L4.45 16.6Q2.2 17.05 3.85 15.5L3.85 15.45Q3.4 14.35 3.4 13.35Q3.4 12.8 3.7 12.1Q4.55 12.8 6.15 13.05Q7.8 13.35 9 16.45L9.3 15.15Q10.9 13.75 12.85 12.65L13.4 13.75L12.7 13.95M33.5,25.7L32.85 25.85L31.85 25.9Q31.15 25.9 30.65 25.25L29.75 24.3L27.2 23.55Q26 23.25 24.95 22.05Q23.7 20.65 23.7 19Q23.7 18.1 24.05 17.65L24.05 17.7Q23.85 18.9 25.4 20.95Q26.9 23 29.5 22.65L30.75 23.85Q31.6 24.5 32.95 24.45L33.6 24.35L33.55 25.7L33.5 25.7M34.1,20.35L34.65 20.35L36.7 19.2L38.3 17.8L39.15 17.8Q35.95 22.3 32.7 23.25Q31.3 22.85 30.95 22.3Q32.5 21.55 34.1 20.35M25.65,17.25L25.75 17.3L27 17.7L27.7 18.3L28 18.6Q27.65 19.2 28.95 18.85L29.1 18.4L29.1 18.15L31.45 16.75Q32.1 16.1 35.4 14.3Q33.85 16.75 32.95 17.4L31.55 18.4L31.8 18.4Q32.9 18.4 35.1 16.95Q36.75 15.8 38.85 13.4L39.65 12.5L37.65 15.4Q35.75 17.8 33.3 19.45Q30.8 21 29.7 21.3L28.2 21.5Q27.8 21.5 26.7 20.65Q25.55 19.8 25.45 17.35L25.65 17.25M21.6,9.95L21.55 9.95Q19.7 10.85 21.2 9.6L21.4 9.65L21.5 9.7L21.6 9.95M21.1,19.9Q21.2 19.65 21.55 19.65Q22.3 19.7 22.25 20.4L22.2 20.45Q21.2 21.15 21.05 20L21.1 19.9M17.7,3.25L18.2 3.65L18.2 3.85Q17.4 4.8 17.2 3.65L17.25 3.55Q17.35 3.3 17.7 3.25M12.15,9.45L12.25 10.9Q10.45 12.25 8.95 13.95Q8.45 12.95 7.35 12.1Q8.7 11.45 9.5 10.85L10.6 9.7L11.2 9.7L11.4 10L12.2 9.25L12.15 9.45M15.55,9.25Q16 9.45 15.75 9.7Q14.3 10.9 15.35 9.2L15.55 9.25M7.4,5.05Q7.95 5.35 7.85 5.95L7.8 5.95Q6.1 6.3 7.25 5L7.4 5.05M8.25,6.85L7.9 6.6Q6.25 8.05 8.05 7.6Q8.65 7.45 8.25 6.85M5.75,14.25Q5.3 14.2 5.1 14.55L5.05 14.65Q6.1 16.15 5.95 14.45L5.75 14.25M32.95,41.65L31.35 43.4L26.8 42.85L25.7 42.65L26.1 43.05L27.1 43.95L26.35 45.55L26.05 45.85L26.05 45.9L18.85 46.25Q16.25 44.1 15.75 44.3L11.55 44.2Q8.7 42.3 7.75 40.55Q7.35 36.35 5.65 34.45Q3.9 32.5 2.85 32L3.75 29.85L4.3 28.05L5.4 28.45Q5.2 27.45 3.2 26L4.6 20.55Q6.1 19.7 6.5 19.6L6.7 19.55L7.05 19.85L6.9 20.2L6.75 20.6L6.3 22.05L6.1 23.5L6.15 24.1Q4.65 25.4 6.2 24.95L6.35 25.5Q6.7 26.25 7.8 26.9L7.6 27.3L8 27.85L8.45 28.7L7.35 28.95Q6.95 29.1 6.95 29.5Q6.95 29.85 7.35 29.9L8.1 30.05L7.8 31.4Q7.8 32.15 8.55 32.3L8.85 32.4L9.4 32L9.7 32.1L9.85 32.25Q9.95 32.7 9.65 32.8L9.3 32.9L9.3 33Q9.3 33.95 10 34.45L10.65 35L10.25 35.85L10 36.2Q9.8 35.85 9.5 35.8Q7.7 37.35 10 36.85L10.45 37.3Q10.45 37.85 10.1 37.9Q9.7 37.95 9.7 38.3Q9.7 39.75 11.55 40.85Q13.15 41.8 14.5 41.8L15.25 41.45Q15.9 41.05 16.15 41.05Q16.55 41.05 16.75 41.5L17.2 42.25L18.15 42.45L18.25 42.8Q18.3 43.05 18.65 43.1L20.4 43.7Q19.5 44.65 21.55 44.65Q22.1 44.65 22 44.05L22.2 44.05Q23.2 44.05 24 42.15Q24.8 40.2 26 40.2L27.2 40.5L27.7 41.4Q27.2 42.15 28.3 41.25Q28.55 41.05 28.2 40.95L28.25 40.7L30.35 40.95Q31.45 40.95 32.4 41.4L32.55 41.5L32.95 41.65M18.75,17.7Q19.1 17.95 18.8 18.05Q16.35 18.85 18 17.35Q18.4 17.4 18.75 17.7M12.6,17.55L13.1 17.25Q13.45 17.3 13.45 17.65Q13.4 20.05 12.6 17.65L12.6 17.55M33.25,29.2Q31.65 31.1 30.2 31.25Q28.65 31.45 27.9 30.55L26.35 25.8Q25.65 24.25 23.45 23.45Q21.2 22.6 18.8 21.95L17.5 21.6L15.95 21.05L15.9 20.8L16.2 19.5Q18.25 20.8 25.7 23.25Q27.4 23.9 28.25 25.9L28.7 27.4L28.8 27.85Q29.15 29.3 29.6 29.5L33.25 29.2M6.7,31.15Q6.55 30.9 6.3 30.9Q4.6 32.4 6.75 31.65Q7.05 31.55 6.7 31.15M9.35,42L9.4 42.1Q10.95 42.1 9.8 40.9L9.7 40.85Q8.85 41.15 9.35 42M14.7,38L15.05 38.2Q15.35 38.7 14.95 38.8Q12.9 39.3 14.7 38M34.25,35.2L34.3 35.2L34.3 35.95L34.35 35.95L33.85 36.8Q32.75 35.95 31.2 35.45Q31.95 34.2 32.75 33.3L32.7 34.05Q32.7 35.15 32.95 35.2L34.25 35.2M20.75,38.4Q18.2 39.15 20.25 37.25Q20.65 37.3 20.9 37.65Q21.4 38.25 20.75 38.4M21.55,40.2Q22.05 40.25 22.1 40.8L21.95 41.25Q19.8 41.75 21.55 40.2" />
<path style="fill:#2B3B41;fill-opacity:1" d="M34.05,29.2L33.25 29.2L33.45 28.9L33.55 25.7L33.6 24.35L32.95 24.45Q31.6 24.5 30.75 23.85L29.5 22.65Q26.9 23 25.4 20.95Q23.85 18.9 24.05 17.7L24.05 17.65Q24.25 16.45 24.5 16.3L25.5 15.65L26.2 15.2L29.15 13.3Q29.55 13 29.9 12.8L30.75 11.9L27.15 8.55L23.5 9.2L23.8 9.75L23.9 9.95Q24.55 11.3 24.25 12.4L23.8 13.8L23.35 14.6L21.7 16.5Q20.55 17.65 18.65 17Q16.75 16.4 14.9 15.5Q14.1 14.95 13.4 13.75L12.85 12.65Q10.9 13.75 9.3 15.15L9 16.45Q7.8 13.35 6.15 13.05Q4.55 12.8 3.7 12.1L3.85 11.75L4.25 10.7L4.9 11.35Q5.7 11.8 7.95 10.6Q10.2 9.45 11.1 6.9L11.05 7.15Q11.7 4.8 11.4 4.3L11.35 4.25L10.65 3.55L9.9 2.85Q7.7 1.7 5.95 4.05L4.95 5.45Q4.1 6.7 3.8 7.9L3.6 9.3L2.2 8.95L2.6 7.25Q3.25 5.15 4.95 3.3Q7.3 0.65 10.25 1.7Q12.5 3.2 13.2 4.75L14.5 2.95Q17 -0.5 18.05 -0.25Q19.95 0.55 23.35 3Q23.85 3.45 25.7 7.05L26.75 6.95L27.65 7.35L32.05 10.95L38.1 5.95Q40.7 3.35 41.65 3.65Q42.6 3.95 43.6 5.35Q44.55 6.7 44.4 8.8Q44.25 10.85 43.35 13.25Q42.45 15.6 40.2 18.8Q37.9 21.95 34.95 24L35.05 28.25L34.9 29.2L34.05 29.2M32.95,41.65Q33.65 40.6 33.85 39.6Q34.15 37.8 30.25 36.75L29.25 33.6Q27.15 35.85 26.5 36.05Q25.8 36.5 22.05 34.9L21 33.85L16.2 35.95Q15.5 36.1 15.6 35.75Q15.45 34.9 15.65 32.7L15.65 31.9Q15.55 30.5 14.6 30.55L12.4 30.75L12.15 30.65Q11.75 30.25 11.65 27.95L11.65 23.65L9.4 24.2Q8.6 24.2 8.35 23.5L7.05 19.9L7.05 19.85L7.35 18.1Q8.2 18.1 8.3 18.65L9.45 22.7Q12.3 21.75 12.7 22.35Q13.05 22.95 13.25 29.25Q14.5 28.85 16.4 29.25L16.45 29.25Q17.35 29.3 17.1 33.6L18.85 32.8L19.75 32.4L20.75 32.15Q21.4 32 22.3 32.9L23.15 33.8L26 34.95L28.6 32.4Q30.55 32.9 32.75 31.85L33.95 31.25L34.25 31.4L35.5 32.05Q37.35 32.95 36.6 34.4L35.95 35.7L34.9 37.6Q35.85 38.4 34.8 40.3L33.9 42.05L32.95 41.65M30.95,22.3Q31.3 22.85 32.7 23.25Q35.95 22.3 39.15 17.8L42.1 12.7L42.4 12Q44 7.6 42.9 7.45L42.65 8.3L42.6 8.55Q41.2 12.75 38.05 16.45Q36.05 18.8 34.1 20.35Q32.5 21.55 30.95 22.3M25.45,17.35Q25.55 19.8 26.7 20.65Q27.8 21.5 28.2 21.5L29.7 21.3Q30.8 21 33.3 19.45Q35.75 17.8 37.65 15.4L39.65 12.5L40.1 11.45L41.5 7.95L41.8 6.4Q41.85 4.7 40.65 5.55L35.9 9.9L35.35 10.35L34.15 11.35L29.55 14.7L26.3 16.8L25.65 17.25L25.45 17.35M15.4,3.75Q13.8 5.65 14.8 6.15Q19.4 4.5 20.55 5.45Q21.7 6.4 22.5 7.5L24 7.2L23.4 5.9L21.7 3.5Q20.4 2.25 18.3 1.4Q17.7 1.6 17 2.15L15.4 3.75M16.85,7L17.8 7.85L18.9 9.1L19.6 10.75Q20.15 12.75 19.75 15.7L20.15 15.8Q21.4 14.95 22.1 13.9L22.7 13L22.9 12.35L22.95 11.95L22.95 11.3Q22.85 10 21.55 8.2Q20.25 6.35 18.65 6.7L17.95 6.85L16.85 7M10.6,9.7L9.5 10.85Q8.7 11.45 7.35 12.1Q8.45 12.95 8.95 13.95Q10.45 12.25 12.25 10.9L12.15 9.45L12.2 9.25Q12.5 8.1 13.5 7.2Q13.3 5.95 12.65 5.6Q12 7.6 11.15 8.95L10.6 9.7M13.7,11.85L14.7 13.6L15.35 14.3L18.45 15.45Q18.9 13.75 18.45 11.5L18.45 11.45Q18 9.15 16.15 8.3Q15.05 7.55 14.35 8.3Q13.6 9 13.25 9.85Q13.3 10.85 13.7 11.85M32.75,33.3Q31.95 34.2 31.2 35.45Q32.75 35.95 33.85 36.8L34.35 35.95L35.65 33.75Q34.55 32.7 33.4 32.55L33.1 32.9L32.75 33.3M30.9,33.4L31.9 32.25L30.6 32.6L30.9 33.4" />
<path style="fill:#222F35;fill-opacity:1" d="M32.75,31.85Q30.55 32.9 28.6 32.4L28.75 32.25Q26.85 32.2 26.15 30.95L26.1 30.95L26.1 30.85L25.9 29.75L26 29.7L25.8 28.8L25.8 28.7Q25.1 26 23.45 25.25L20.8 24.15L19.95 23.9L19.7 23.85L18.8 23.45L18.65 23.4L18 23.3L17.95 23.3L17.35 23.05L16.6 22.65L16.1 22.2Q15.6 21.6 15.75 20.95L15.95 21.05L17.5 21.6L18.8 21.95Q21.2 22.6 23.45 23.45Q25.65 24.25 26.35 25.8L27.9 30.55Q28.65 31.45 30.2 31.25Q31.65 31.1 33.25 29.2L34.05 29.2L34.9 29.2L34.25 30.35L33.6 31.1L33.95 31.25L32.75 31.85M33.9,42.05L32.25 44.35L28.15 44.45L27.05 46.9Q22.4 48.55 18 47.4L15.55 45.5L11.5 45.6Q11.1 45.6 10.35 44.95L8.2 43Q6.8 41.75 6.35 39.55Q5.9 37.35 4.65 35.65Q3.3 33.9 2.05 33.3Q0.75 32.65 1.55 31.15Q2.3 29.6 2.75 27.35L2.05 26.8L1.9 26.45Q1.85 26.35 2.35 24.4L3.3 20.8Q2.8 20.45 0.65 16.3Q0.25 14.2 2.15 9.95L2.2 8.95L3.6 9.3L3.6 9.4Q3.85 10.2 4.25 10.7L3.85 11.75L3.7 12.1L3.05 11.35Q1.65 13.2 1.7 16.05Q2.2 17.4 3.55 19.1Q6.15 18.05 7.35 18.1L7.05 19.85L6.7 19.55L6.5 19.6Q6.1 19.7 4.6 20.55L3.2 26Q5.2 27.45 5.4 28.45L4.3 28.05L3.75 29.85L2.85 32Q3.9 32.5 5.65 34.45Q7.35 36.35 7.75 40.55Q8.7 42.3 11.55 44.2L15.75 44.3Q16.25 44.1 18.85 46.25L26.05 45.9L26.05 45.85L26.35 45.55L27.1 43.95L26.1 43.05L25.7 42.65L26.8 42.85L31.35 43.4L32.95 41.65L33.9 42.05" />
<path style="fill:#FFFFFF;fill-opacity:1" d="M20.65,24.95Q20.95 24.65 21.45 24.65Q21.9 24.65 22.15 24.95L22.5 25.75L22.15 26.55L21.45 26.85L20.65 26.55Q20.35 26.2 20.35 25.75Q20.35 25.3 20.65 24.95" />
</g>
</svg>
