<?xml version="1.0" encoding="utf-8"?>
<svg version="1.1" id="Layer_1"
xmlns="http://www.w3.org/2000/svg"
xmlns:xlink="http://www.w3.org/1999/xlink"
xmlns:author="http://www.sothink.com"
width="39px" height="15px"
xml:space="preserve">
<g id="1867" transform="matrix(1, 0, 0, 1, 4.95, 1.25)">
<path style="fill:#E0D8D4;fill-opacity:1" d="M26.7,3.55L29.5 4.45Q30.55 2.4 30.85 0.6L31.75 0.5Q32.55 0.6 32.25 2L31.5 3.95L30.9 4.85L30.35 5.7L29.9 6.35Q28.35 8.4 24.95 11Q20.5 9.25 17.5 8.4L18 8.35L24.3 8.85L24.75 8.95L25.1 8.85Q27.1 8.15 28.75 5.85L25.75 4.75L26.7 3.55M15.65,9.35L14.85 9.2L14.85 9.05L14.9 8.75L19 9.75Q20.65 10.25 23.15 11.7Q19.95 10.3 15.65 9.35" />
<path style="fill:#3A3634;fill-opacity:1" d="M14.65,11.25L14.55 11Q14.55 10.55 14.7 10.2L15 10.2Q20.4 10.95 23.6 11.95L23.15 11.7Q20.65 10.25 19 9.75L14.9 8.75L15 8.35L15.5 8.1L15.8 7.9L17.5 8.4Q20.5 9.25 24.95 11Q28.35 8.4 29.9 6.35L30.35 5.7L30.9 4.85L31.5 3.95L32.25 2Q32.55 0.6 31.75 0.5L30.85 0.6L28.2 1L28.1 1L21.9 1.4L21.35 0.1L28.2 -0.55L31.1 -0.9L33.45 -1.25Q34.15 1.05 33.3 3.4L32.35 5.35L31.35 6.95L30.15 8.5Q28.2 10.9 25.5 12.85Q25.1 13.05 24.7 13.4L17.65 12.15L14.65 11.85L14.65 11.25" />
<path style="fill:#ACA49F;fill-opacity:1" d="M28.1,1L28.2 1L30.85 0.6Q30.55 2.4 29.5 4.45L26.7 3.55Q27.8 2.15 28.1 1M15.6,7.85L16.9 7.25L18.6 6.15Q20.85 6.8 22.4 7.65Q23.55 6.95 25.05 5.45L25.75 4.75L28.75 5.85Q27.1 8.15 25.1 8.85L24.75 8.95L24.3 8.85L18 8.35L17.5 8.4L15.8 7.9L15.6 7.85M-0.25,11L-1.45 10.9L-1.65 9.45L-1.45 8.7L-0.9 8.15L-0.1 7.85Q1.3 7.55 2.15 8.3L2.85 9.25Q2.05 11 -0.25 11" />
<path style="fill:#938D89;fill-opacity:1" d="M20.05,4.75Q21.45 3.35 21.8 2.25Q22.05 1.8 21.9 1.4L28.1 1Q27.8 2.15 26.7 3.55L25.75 4.75L25.05 5.45Q23.55 6.95 22.4 7.65Q20.85 6.8 18.6 6.15L20.05 4.75M23.15,11.7L23.6 11.95Q20.4 10.95 15 10.2L14.7 10.2L14.85 9.2L15.65 9.35Q19.95 10.3 23.15 11.7" />
<path style="fill:#253439;fill-opacity:1" d="M-1.35,6.75L-1.3 6.75L-1.2 6.65L-1 6.4L0.5 6.45L1.4 6.6Q2.65 6.7 3.25 7.1L3.05 7.1L3.2 7.15L3.5 7.45L4.05 8.15L4.4 8.75L4.8 9.65L4.85 9.65L4.85 10.1L4.45 11.9L4.05 12.25Q3.05 13.25 1.6 13.45Q-0.3 13.8 -1.6 12.95Q-2.95 12.05 -3.05 10.1L-3.05 10.05L-2.9 8.75L-2.6 7.9Q-2.2 7.1 -1.35 6.75M-1.3,11.35L-0.25 12.25Q0.45 12.5 1.8 12.25Q3.05 11.95 3.05 10.5L2.85 9.25L2.15 8.3Q1.3 7.55 -0.1 7.85L-0.9 8.15L-1.45 8.7L-1.65 9.45L-1.45 10.9L-1.3 11.35" />
<path style="fill:#4A5662;fill-opacity:1" d="M2.85,9.25L3.05 10.5Q3.05 11.95 1.8 12.25Q0.45 12.5 -0.25 12.25L-1.3 11.35L-1.45 10.9L-0.25 11Q2.05 11 2.85 9.25" />
<path style="fill:#3D434B;fill-opacity:1" d="M-2.6,7.9L-2.8 7.7L-4.05 6.55L-4.35 6.2Q-4.85 6.05 -4.85 5.75L-4.9 5.4Q-5.05 5.2 -4.85 5.05L-4.8 5.05Q-4.55 4.75 -3.45 4.65L0.6 4.1L1.55 4.1L0.5 5L-2.85 5.35L-2.15 5.7L-1.7 6.5L-1.4 6.6L-1.3 6.75L-1.35 6.75Q-2.2 7.1 -2.6 7.9M4,1.25L4.15 1.3L4.5 1.75L3.35 2.6L3 2.2L2 1.05L1.8 0.75L1.45 0.3L1.4 0Q1.25 -0.55 2.7 -0.65L6.05 -0.65L7.85 -0.55L6.75 0.15L6.65 0.15Q5.45 0.05 3.1 0.1L3.5 0.45L4 1.25" />
<path style="fill:#E3E4E5;fill-opacity:1" d="M3.5,0.45L3.1 0.1Q5.45 0.05 6.65 0.15L6.75 0.15L6.4 0.4L3.5 0.45M-2.15,5.7L-2.85 5.35L0.5 5L0.05 5.4L-2.15 5.7" />
<path style="fill:#717D8E;fill-opacity:1" d="M4.15,1.3L4 1.25L4.9 1.45L4.5 1.75L4.15 1.3M-1.2,6.65L-1.3 6.75L-1.4 6.6L-1.2 6.65" />
<path style="fill:#B4BCC2;fill-opacity:1" d="M6.4,0.4L4.9 1.45L4 1.25L3.5 0.45L6.4 0.4M-1.2,6.65L-1.4 6.6L-1.7 6.5L-2.15 5.7L0.05 5.4L-0.7 6.15L-1 6.4L-1.2 6.65" />
<path style="fill:#662D11;fill-opacity:1" d="M1.4,6.6L0.5 6.45L-1 6.4L-0.7 6.15L0.05 5.4L0.5 5L1.55 4.1L2.45 3.35L3.35 2.6L4.5 1.75L4.9 1.45L6.4 0.4L6.75 0.15L7.85 -0.55L8.1 -0.7L9.7 -0.4L21.35 0.1L21.9 1.4Q22.05 1.8 21.8 2.25Q21.45 3.35 20.05 4.75L18.6 6.15L16.9 7.25L15.6 7.85L15.8 7.9L15.5 8.1L15 8.35L14.9 8.75L14.85 9.05L14.85 9.2L14.7 10.2Q14.55 10.55 14.55 11L14.65 11.25L14.65 11.85L6.1 11.35L4.65 11.55L4.45 11.9L4.85 10.1L4.85 9.65L6.2 9.55L13.35 10.05L13.35 9.65L13.4 8.95L13.5 8.5Q8.45 7.4 3.25 7.1Q2.65 6.7 1.4 6.6M4.45,3.8L1.9 5.9Q6.65 6.05 12.2 7.1L13.5 7.4L13.6 7.4Q15.55 6.8 17.1 5.65L19.05 3.8Q19.95 2.65 20.5 1.3Q16.4 1.75 12.55 1.2Q8.7 0.6 6.8 2L4.8 3.5L4.45 3.8" />
<path style="fill:#AA692B;fill-opacity:1" d="M13.25,4.75L4.8 3.5L6.8 2Q8.7 0.6 12.55 1.2Q16.4 1.75 20.5 1.3Q19.95 2.65 19.05 3.8L17.1 5.65L13.25 4.75" />
<path style="fill:#C68331;fill-opacity:1" d="M4.8,3.5L13.25 4.75L17.1 5.65Q15.55 6.8 13.6 7.4L13.5 7.4L12.2 7.1Q6.65 6.05 1.9 5.9L4.45 3.8L4.8 3.5M4.8,9.65L4.4 8.75L4.05 8.15L12.2 8.7L13.4 8.95L13.35 9.65L13.35 10.05L6.2 9.55L4.85 9.65L4.8 9.65" />
<path style="fill:#F3B94B;fill-opacity:1" d="M3.5,7.45L3.2 7.15L3.05 7.1L3.25 7.1Q8.45 7.4 13.5 8.5L13.4 8.95L12.2 8.7L4.05 8.15L3.5 7.45" />
</g>
</svg>
