<?xml version="1.0" encoding="utf-8"?>
<svg version="1.1" id="Layer_1"
xmlns="http://www.w3.org/2000/svg"
xmlns:xlink="http://www.w3.org/1999/xlink"
xmlns:author="http://www.sothink.com"
width="53px" height="30px"
xml:space="preserve">
<g id="222" transform="matrix(1, 0, 0, 1, 0, 0)">
<path style="fill:#FF840E;fill-opacity:1" d="M13.1,3.95Q10.75 5.45 8.95 7.55Q6.4 10.55 5.4 14.4L5.3 14.9L4.55 15.45Q2.5 17.45 1.15 20.05Q0.6 19.05 0.4 18Q-1.35 11.5 4.95 6.3Q11.3 1.05 21.95 0.2Q25.3 -0.1 28.5 0.1Q18.95 0.2 13.1 3.95" />
<path style="fill:#FFDD9C;fill-opacity:1" d="M19.85,9.55L23.2 11.25L23.15 11.75Q11.95 9.35 5.3 14.9L5.4 14.4Q6.4 10.55 8.95 7.55Q10.75 5.45 13.1 3.95Q14.8 6.8 19.85 9.55" />
<path style="fill:#F8F8F8;fill-opacity:0.74902" d="M28.5,0.1Q35.25 0.55 41.2 3.2Q37.65 2.5 32.55 3.35L31.8 3.45Q35.55 3.3 39.6 4.95Q42.1 5.95 43.75 7.1Q48.5 15.25 43.15 20.4Q41.4 22 38.95 23.1L36.55 23.95Q40.3 22.2 41.45 19.45Q42 18.05 42 17.25Q42.4 12.75 37.8 9.9Q34.85 8.05 32.05 7.7Q26.65 6.1 24.4 8.8Q23.65 9.6 23.35 10.75L23.2 11.25L19.85 9.55Q14.8 6.8 13.1 3.95Q18.95 0.2 28.5 0.1" />
<path style="fill:#FF840E;fill-opacity:0.74902" d="M39.6,4.95Q35.55 3.3 31.8 3.45L32.55 3.35Q37.65 2.5 41.2 3.2L41.3 3.25Q50.05 7.25 51.75 13.75Q53.1 19 49.2 23.45Q44.7 26.95 39 28.45L34.7 29.2L33 29.35Q51.1 24 49.25 15.05Q48.7 12.25 46.2 9.45L43.75 7.1Q42.1 5.95 39.6 4.95" />
</g>
</svg>
