<?xml version="1.0" encoding="utf-8"?>
<svg version="1.1" id="Layer_1"
xmlns="http://www.w3.org/2000/svg"
xmlns:xlink="http://www.w3.org/1999/xlink"
xmlns:author="http://www.sothink.com"
width="35px" height="28px"
xml:space="preserve">
<g id="520" transform="matrix(1, 0, 0, 1, 0, 0)">
<path style="fill:#06541C;fill-opacity:1" d="M15.2,24.05L15.2 23.95L15.25 23.9Q22.85 15.7 30.4 8.15Q32.3 6.15 31.35 5.25L28.75 2.75Q27.8 1.85 25.8 3.85L13.9 16.4Q12.65 17.85 11.65 17.05L6.95 12.35Q5.8 11.3 4.95 12.15Q4.25 12.45 2.75 14.15Q2.05 15.15 3.15 16.45L12.05 24.7Q13.2 25.9 15.1 24.05L15.2 24.05M32.85,8.25L15.4 26.4L14.45 27.2L11.75 27.25L7.6 23.2L7.35 22.9L0.7 16.35Q-0.65 15 0.65 13.6L4.2 10.05L7.2 10L11.6 14.45Q12.25 15.2 13.5 13.7L25.7 1.3Q27.8 -0.9 29.35 0.6L33.4 4.55Q34.95 6.05 32.85 8.25" />
<path style="fill:#55E27E;fill-opacity:1" d="M15.1,24.05Q13.2 25.9 12.05 24.7L3.15 16.45Q2.05 15.15 2.75 14.15Q4.25 12.45 4.95 12.15Q5.8 11.3 6.95 12.35L11.65 17.05Q12.65 17.85 13.9 16.4L25.8 3.85Q27.8 1.85 28.75 2.75L31.35 5.25Q32.3 6.15 30.4 8.15Q22.85 15.7 15.25 23.9L15.2 23.95L15.1 24.05M26.45,6.35Q29.2 5.3 27.65 3.9Q26.05 4.15 25.6 5.7Q25.2 6.85 26.45 6.35M25.35,9.75L15.6 18.7L14.15 19.8Q12.35 20.6 10.95 19.25L5.85 14.6L4.75 14.65Q3.8 14.85 3.7 15.95L12.45 23.85Q13.3 24.65 15.55 22.4L31 6.5Q28.75 6.6 25.35 9.75M5.3,12.5Q4.9 12.7 5 12.8Q5.95 13.95 7.8 15.2L8.25 15.15Q8.5 12.85 5.5 12.4L5.3 12.5" />
<path style="fill:#C5FAD4;fill-opacity:1" d="M25.6,5.7Q26.05 4.15 27.65 3.9Q29.2 5.3 26.45 6.35Q25.2 6.85 25.6 5.7M5.5,12.4Q8.5 12.85 8.25 15.15L7.8 15.2Q5.95 13.95 5 12.8Q4.9 12.7 5.3 12.5L5.5 12.4" />
<path style="fill:#199A3E;fill-opacity:1" d="M31,6.5L15.55 22.4Q13.3 24.65 12.45 23.85L3.7 15.95Q3.8 14.85 4.75 14.65L5.85 14.6L10.95 19.25Q12.35 20.6 14.15 19.8L15.6 18.7L25.35 9.75Q28.75 6.6 31 6.5" />
<radialGradient
id="RadialGradID_689" gradientUnits="userSpaceOnUse" gradientTransform="matrix(7.62939e-005, 0, 0, 7.62939e-005, 15.15, 24)" spreadMethod ="pad" cx="0" cy="0" r="819.2" fx="0" fy="0" >
<stop  offset="0"  style="stop-color:#5FEC8B;stop-opacity:1" />
<stop  offset="1"  style="stop-color:#058C12;stop-opacity:1" />
</radialGradient>
<path style="fill:url(#RadialGradID_689) " d="M15.1,24.05L15.2 23.95L15.2 24.05L15.1 24.05" />
</g>
</svg>
