<?xml version="1.0" encoding="utf-8"?>
<svg version="1.1" id="Layer_1"
xmlns="http://www.w3.org/2000/svg"
xmlns:xlink="http://www.w3.org/1999/xlink"
xmlns:author="http://www.sothink.com"
width="77px" height="96px"
xml:space="preserve">
<g id="645" transform="matrix(1, 0, 0, 1, 0, 0)">
<path style="fill:#200E1C;fill-opacity:1" d="M12.75,64.55L13.25 64.35L13.7 65.35L12.75 64.55" />
<path style="fill:#3C152F;fill-opacity:1" d="M66.05,60.4L66.3 60.2L66.25 60.35L66.05 60.4" />
<path style="fill:#000000;fill-opacity:1" d="M67.6,33.75Q68.05 33.75 68.4 35.55Q70.9 30.25 68.95 24.45L67.85 21.85Q62.7 22.5 60.4 25.95Q64.6 27.45 63.6 32.2L65.55 32.3Q66.9 32.6 67.6 33.75M6.7,16.75L6.9 16.6Q7.3 13.9 13.25 8.2Q19.2 2.5 30.3 0.3Q55.1 -2.35 66.95 17.6L66.95 17.65Q68.95 21.05 69.4 22.45L70.1 24.55L70.1 24.7Q70.95 27.8 70.95 30.1Q70.9 34.85 68.75 36.9L67.15 40.45L66.65 40.95Q67.7 41.6 68.35 42.65Q69.95 45.2 69.3 49.85L70.7 51.6Q71.3 52.5 71.5 53.35L71.85 53Q73.65 51.35 74.75 54.35Q75.5 56.5 73.95 59.1Q72.7 63 74.75 63Q76.05 62.45 76.1 65.2Q76.15 67.95 74.5 71.45Q72.85 74.95 72.3 75.15L71.35 75.5L69.3 76.4L62.65 79.5Q55.55 82.9 49.2 88.65Q46.2 91.3 43.2 93.1Q40.4 94.7 38.4 95.15Q30.65 96.5 26.9 94.35Q25.4 93.45 24.7 92.25L23.6 89.55Q22.8 87.35 20.95 83.9Q17.6 77.55 17.05 76.95L13.9 72.65Q11.3 68.95 8.9 66.15Q8.05 64.5 8.5 63.55Q8.95 62.55 9.25 62.3L9.6 62L9.7 61.2Q9.65 60.4 10.25 59.25Q10.8 58.1 12.5 57.3Q14 56.6 14.95 56.75L15.15 56.8Q14.95 59.1 15.35 60.25L15.8 61L16.65 61.9L17.3 62.55L17.4 62.65Q19.85 69.1 25.85 72.25L27.8 73.2L29 73.65Q30.25 74.1 32.4 73.6L33.65 73.25Q36.6 72.3 40.95 69.9L41.6 69.55L41.55 69.65L41.45 69.9L43.25 68.7L43 68.8L44.9 67.6L51.35 64.3L54 63.35L53.4 61.8L52.7 60.55Q51.65 59.1 50 58.6Q47.7 57.95 44.55 59.15L43.4 59.7L42.85 57.95L42.65 57.65L43.1 58.25L43.75 58L46 57.4Q48.5 56.65 50.55 57Q51.55 57.15 52.45 57.6Q53.7 55.1 55.7 53.7Q55.05 52.2 54.05 51.35L52.9 50.55L51.95 50.6L46.5 50.1L46.55 49.5L46.55 49.4Q46.6 49.05 46.8 49L46.8 48.25L47.05 47.75L46.95 48.75L48.7 49.15L51.35 49.3L52.5 49.2L54.8 48.85Q55.9 48.55 57.2 47.75Q58.8 46.75 59.9 45.15Q61 43.55 60.95 41.6Q60.85 39.6 60.15 38.2Q59.55 36.9 57.2 36.4L56.6 36.3Q50.45 36.95 45.55 43.05L45.3 42.5L44.4 41.9L44.5 41.95Q45.25 40.95 46.9 39.45L46.95 39L47.9 38.65L48.55 38L48.45 38.45Q50.75 36.55 53.25 35.65Q55.7 34.7 56.5 34.7L57.55 34.8L57.7 34.85L59.1 35.45Q59.7 34.15 60.85 33.25Q62 32.3 62.35 32.35Q63.6 28.1 60.45 27.25Q57.3 26.35 52.95 27.15Q48.6 27.9 46.9 31.35L47.8 32.55L47.5 32.15L45.8 30.45Q46.35 29.2 47.95 27.95Q49.7 26.6 52.55 25.7L59.3 25.9Q60.55 23.15 62.6 22.1Q64.6 21 67.4 20.5Q65.6 17.2 63.1 14.35Q47.55 -3.25 24.4 3.35Q21.25 4.25 16.5 7.15Q11.8 10.05 8.25 16.95L6.7 16.75M56.6,52.9L57.9 52.15Q58.05 51.95 59.55 51.75L60.65 51.6L61.95 51.85Q63.05 49 59.85 46.9Q59.95 47.35 58.05 48.6Q56.15 49.8 54.55 50L55.65 51.05L56.6 52.9M65.75,40.2Q67.4 37.75 67.05 35.8Q66.8 34.6 65.85 33.6L62.7 33.8L62.25 34Q61.05 34.65 60.05 36.1Q61.35 37.15 62.2 39L63.85 39.25Q64.95 39.6 65.75 40.2M65.95,49.35Q67.35 48.75 67.8 49Q68.15 49.25 68.25 47.3L68.15 44.95L67.6 43.8L67.3 43.4L65.8 41.95Q64.4 40.75 62.5 40.4Q62.55 42.45 61.8 44.1L60.9 45.6Q64.25 48.45 62.9 52.4L63.95 52.9L64 52.3Q64.4 50.6 65.2 49.85L65.95 49.35M14.55,60.5L13.7 58.55Q12.7 58.65 12 59.55Q11.2 60.5 11.2 62.15L12.3 62.95L13.25 64.35L12.75 64.55Q11.45 63.45 11.1 63.45Q9.1 63.5 9.75 65.25L10.4 66L15 71.85Q18.15 76.1 20.45 80.15Q22.45 83.6 24.2 87.85L24.8 89.25Q26.8 94.3 31.95 94.4Q37.15 94.45 40.65 92.85Q44.1 91.2 50.3 86.1Q56.4 81 62.6 77.9Q68.7 74.75 71.5 73.95Q74.2 69.4 74.6 64.45Q72.55 64.05 72.2 62.8Q71.8 61.5 72.35 60.65Q70.9 62 69.95 61.55Q74.4 57.4 72.7 54.5L68.45 58.45L67.6 59.2L66.3 60.2L66.05 60.4L63.3 62.15Q61.35 63.1 58.55 63.7L57.8 63.85L55.25 64.4L54.3 64.65Q52.4 65.2 50.85 65.85L39.85 71.9Q36.45 73.8 33.2 74.7Q29.95 75.6 26.95 74.1Q23.9 72.55 20.3 69.4Q17.75 67.1 15.55 62.7L14.55 60.5M54.2,69.25L53.7 69.45Q51.95 70 42.35 74.65Q32.7 79.3 29.35 78.9Q26 78.45 23.15 76.15L21.3 74.55L17.4 70.6Q14.45 67.3 15 67.5L15.85 67.9L15.9 67.95L16.45 68.35L16.5 68.35L17.3 69.1Q22.05 74.5 26.8 76.9Q30.75 78.6 37.9 75.4L47.6 70.95Q49.9 69.8 52.35 68.8L52.8 68.65Q55.45 67.55 55.45 68.2L55.4 68.35Q55.25 68.8 54.2 69.25M69.9,52.7Q69.25 50.95 68 50.45L66.2 50.55L65.7 51.45L65.55 51.85L65.05 53.45Q65.9 54.55 66.35 55.75Q66.7 56.85 66.65 58.1L70.3 54.55L70.05 53.2L69.9 52.7M60,52.95Q59 53.1 58.05 53.7Q55.45 55.25 54.6 56.6Q53.65 57.9 53.3 58.9L54.6 61L55.2 63.05L57.1 62.55L58.2 62.3L61.85 61.25Q63.7 60.55 65.95 58.7Q65.95 55.4 63.55 53.9Q62 52.95 60.65 52.95L60 52.95" />
<path style="fill:#250000;fill-opacity:1" d="M42.9,68.85L42.9 66.8L43.35 67.75L44.9 67.6L43 68.8L42.9 68.85M38.7,63L38.6 63.05L38.75 62.95L38.7 63" />
<path style="fill:#BB8F74;fill-opacity:1" d="M19.2,34.55Q25.2 36.25 19.65 37.3Q18.45 37.55 18.15 36.05Q17.85 34.75 19.2 34.55M4.6,36.35Q8.3 39.15 4.25 38.35Q2.85 38.1 3.75 36.85Q4.05 36.35 4.6 36.35M13.9,49.3Q17.15 49.35 17.4 51.9Q17.45 52.25 17 52.15Q13.95 51.65 13.65 49.45L13.9 49.3M32.4,39.3Q32.55 38.2 33.6 38.15Q38.2 40.15 33.15 40.4Q32.3 40.45 32.4 39.3M35.45,51.8Q31.75 52.1 32.85 49.8Q32.95 49.65 33.2 49.6Q36.45 49.1 36 51.4L35.45 51.8M32.7,58.6Q35.4 59.85 33 60.3Q32.55 60.4 32.2 59.95Q31.45 59 32.7 58.6M24.7,58.8Q27.55 60.35 24.55 59.95Q24.1 59.9 24.15 59.35Q24.2 58.8 24.7 58.8M28.8,66.55Q32.75 69.55 27.65 68.6Q26.9 68.45 27.4 67.5Q27.85 66.65 28.8 66.55M22.4,62.75Q25.1 65.2 21.6 64.4Q20.9 64.25 21.4 63.4Q21.75 62.8 22.4 62.75M17,58.75Q16.85 57.8 17.8 57.6Q19.65 59.05 17.5 59.2Q17.1 59.25 17 58.75" />
<path style="fill:#724A2B;fill-opacity:1" d="M41.95,41.1Q42.6 38.75 41.4 36.35Q37.1 34.1 30.85 37.15Q31.25 35.65 31.25 34.05Q31.5 33.05 33.65 31.5Q34.95 30.6 36.8 30.1L41.7 29.75Q44.85 30.35 46.15 32.95Q47.35 35.3 46.95 39L46.9 39.45Q45.25 40.95 44.5 41.95L44.4 41.9Q43.15 41.35 41.95 41.1M34.3,70Q37.65 70.15 39.65 68.4L38.5 66.45Q36.05 67.65 33.65 67L33 65.55L33.5 65.7Q35.45 66.1 39.7 64.3L40.35 64.35Q41.3 64.5 41.6 65.85L41.8 67.6L41.6 69.55L40.95 69.9Q36.6 72.3 33.65 73.25Q34.35 71.7 34.3 70M32.95,69.35Q33.25 71.2 32.5 73.45L32.4 73.6Q30.25 74.1 29 73.65L27.8 73.2L27.9 73.1Q26.4 71.35 25.7 69.45Q29.15 72.6 32.95 69.35M25.85,72.25Q19.85 69.1 17.4 62.65L17.3 62.55L19.15 63.45Q20.65 67.65 23.6 67.6Q24 69.85 25.2 71.45L25.85 72.25M41.7,47.5Q39.2 47.35 37.3 45.75Q34.15 48.55 30 48.15L30.5 46.5Q33.2 43.5 36.35 42.65L41.45 42.4L41.5 42.4Q43.45 42.95 44.95 45.05L45.35 46.95L45.45 47.8Q45.6 49.3 43.9 51.7Q42.2 54.1 39.2 54.7Q36.15 55.3 32.3 53.8Q31.45 53.2 30.9 52.5Q38.6 54.85 41.7 47.5M7.4,18.35Q9.6 18.25 11.7 19.35Q14.1 20.6 15.2 23.15Q16.25 25.5 16 27.65Q15.85 29.2 15.15 30.15Q12.55 33.05 12.35 33.5L10.35 33.75Q9.05 33.7 7.65 32.65Q6.2 31.55 4.85 28.8Q3.5 26.05 4.3 23.15Q5 20.45 7.4 18.35M25.3,34.25L25 34.35L25.05 33.65Q18.9 32.85 13.4 34.7Q13.65 33.65 14.55 32.65Q16.7 30.05 20.15 29.2Q23.6 28.3 26.75 29.9Q29.9 31.45 30.05 35.1Q30.2 38.75 26.55 41.75Q25.35 40.45 23.75 39.55Q26.15 37.25 25.3 34.25M9,39.5L8.6 39.15L8.4 35.95L8.2 35.95Q3.7 36.3 1.6 33.65Q1.65 31.15 3.8 29.65L4.9 31.45Q7.65 35.85 11.9 34.95Q11.65 36.65 12.75 38.25Q11.35 38.6 9.9 39.1L9 39.5M17.5,53.45Q20.15 53.35 23 52.15Q22.8 50.05 22.05 48.45L21.95 48.2L19.6 48.55Q13.5 49 8.55 46.55Q6.55 42.95 9.6 40.8L10.2 40.45Q16.15 37.25 23.25 41.25Q24.15 41.75 25.1 42.4Q26.7 43.5 27.55 45L28.5 47.9L28.7 49.05Q29 51.55 26.2 53.3Q23.35 54.95 20.3 54.25L17.5 53.45M34.6,55.8L40.4 56.25Q41.1 57.05 41.4 57.9L41.7 59L41.65 59.55L41.6 60.75Q41.55 61.35 40 62.3L38.75 62.95L38.6 63.05Q35.55 64.4 33.75 64.3L33.65 64.3Q31.4 64.1 30.8 62.75L30.65 62.4Q34.5 63.7 37.9 61.2L38.9 60.35L39 58.95L39 58.55L38.4 57.95Q34.5 58.45 32.1 55.55L34.6 55.8M26.8,61.75L27.4 61.45L27.2 57.15L26.95 56.9Q24.55 58.55 22.3 57.7Q22.25 56.85 22.6 56.05Q26.55 56.1 29.1 52.85L29.4 52.35Q29.45 53.15 30.9 54.4Q28.3 57.35 28.6 59.55L29.05 62.45Q29.15 63.25 26.5 63.05Q25.35 62.5 24.45 61.75L26.8 61.75M20.4,60.05Q19.55 58.45 19.75 56.8Q17.85 56.75 16.6 56.1L16.45 56Q16.85 54.8 17.85 55L20.05 55.6L21.2 56.1L21.15 57.15Q21.2 59.45 22.2 61.05Q20.2 63.1 18.25 62.05Q17.2 61.45 16.7 60.35Q18.65 61.2 20.4 60.05M24,65.35Q25.05 64.9 25.6 64.1L26 64.8Q26.1 65.45 24.35 66.4Q22.45 66.3 21.45 65.15L24 65.35" />
<path style="fill:#936542;fill-opacity:1" d="M39.4,40.85Q36.95 40.95 34.05 42.1Q31.2 43.2 29.5 45.7Q28.4 43.75 27.3 42.6L27.45 42.45Q30 40.15 30.85 37.15Q37.1 34.1 41.4 36.35Q42.6 38.75 41.95 41.1L39.4 40.85M30,48.15Q34.15 48.55 37.3 45.75Q39.2 47.35 41.7 47.5Q38.6 54.85 30.9 52.5Q29.45 50.75 30 48.15M18.15,36.05Q18.45 37.55 19.65 37.3Q25.2 36.25 19.2 34.55Q17.85 34.75 18.15 36.05M13.4,34.7Q18.9 32.85 25.05 33.65L25 34.35L25.3 34.25Q26.15 37.25 23.75 39.55Q20.4 37.75 15.2 37.8L13.95 37.8Q13 36.25 13.4 34.7M8.2,35.95L8.4 35.95L8.6 39.15L9 39.5Q7.65 40.15 7.1 41.05Q3 39.9 1.9 35.85Q1.55 34.65 1.6 33.65Q3.7 36.3 8.2 35.95M3.75,36.85Q2.85 38.1 4.25 38.35Q8.3 39.15 4.6 36.35Q4.05 36.35 3.75 36.85M19.6,48.55L21.95 48.2L22.05 48.45Q22.8 50.05 23 52.15Q20.15 53.35 17.5 53.45L15.6 52.6L12.3 50.5Q10.55 49.35 9.05 47.4L8.55 46.55Q13.5 49 19.6 48.55M13.65,49.45Q13.95 51.65 17 52.15Q17.45 52.25 17.4 51.9Q17.15 49.35 13.9 49.3L13.65 49.45M33.15,40.4Q38.2 40.15 33.6 38.15Q32.55 38.2 32.4 39.3Q32.3 40.45 33.15 40.4M36,51.4Q36.45 49.1 33.2 49.6Q32.95 49.65 32.85 49.8Q31.75 52.1 35.45 51.8L36 51.4M32.2,59.95Q32.55 60.4 33 60.3Q35.4 59.85 32.7 58.6Q31.45 59 32.2 59.95M30.15,60.4Q29.9 57.15 31.1 56.1Q31.55 55.7 32.1 55.55Q34.5 58.45 38.4 57.95L39 58.55L39 58.95L38.9 60.35L37.9 61.2Q34.5 63.7 30.65 62.4Q30.2 61.25 30.15 60.4M22.3,57.7Q24.55 58.55 26.95 56.9L27.2 57.15L27.4 61.45L26.8 61.75L24.45 61.75Q23.2 60.65 22.55 59.05L22.3 57.7M16.45,56L16.6 56.1Q17.85 56.75 19.75 56.8Q19.55 58.45 20.4 60.05Q18.65 61.2 16.7 60.35Q16.3 59.55 16.15 58.45Q16.15 56.85 16.45 56M24.15,59.35Q24.1 59.9 24.55 59.95Q27.55 60.35 24.7 58.8Q24.2 58.8 24.15 59.35M25.7,69.45L25.2 67.55Q27.25 66.65 27.9 64.75L30.35 64.95Q32.6 66.85 32.95 69.35Q29.15 72.6 25.7 69.45M27.4,67.5Q26.9 68.45 27.65 68.6Q32.75 69.55 28.8 66.55Q27.85 66.65 27.4 67.5M25.6,64.1Q25.05 64.9 24 65.35L21.45 65.15Q20.8 64.4 20.55 63.25Q22.3 62.75 22.7 62Q24.15 63.45 25.05 63.8L25.6 64.1M21.4,63.4Q20.9 64.25 21.6 64.4Q25.1 65.2 22.4 62.75Q21.75 62.8 21.4 63.4M34.3,70L33.85 67.5L33.65 67Q36.05 67.65 38.5 66.45L39.65 68.4Q37.65 70.15 34.3 70M17.5,59.2Q19.65 59.05 17.8 57.6Q16.85 57.8 17 58.75Q17.1 59.25 17.5 59.2" />
<path style="fill:#381F16;fill-opacity:1" d="M42.9,66.75L42.9 66.8L42.9 68.85L43 68.8L43.25 68.7L41.45 69.9L41.55 69.65L41.6 69.55L41.8 67.6L41.6 65.85Q41.3 64.5 40.35 64.35L39.7 64.3Q35.45 66.1 33.5 65.7L33 65.55L33.65 67L33.85 67.5L34.3 70Q34.35 71.7 33.65 73.25L32.4 73.6L32.5 73.45Q33.25 71.2 32.95 69.35Q32.6 66.85 30.35 64.95L27.9 64.75Q27.25 66.65 25.2 67.55L25.7 69.45Q26.4 71.35 27.9 73.1L27.8 73.2L25.85 72.25L25.2 71.45Q24 69.85 23.6 67.6Q20.65 67.65 19.15 63.45L17.3 62.55L16.65 61.9L15.8 61L15.35 60.25Q14.95 59.1 15.15 56.8L14.95 56.75Q15 55.4 15.4 54.6L15.7 54.15Q14 53.45 12.5 52.45Q10.35 51.1 8.55 49.2L8.05 48.5Q7.1 47.45 6.75 45.6Q6.5 44.2 6.6 42.4Q2.35 41.75 0.5 36.15Q-1.3 30.8 3.45 28.1Q2.9 26.05 3.05 23.75Q3.35 19.3 6.7 16.75L8.25 16.95L8.2 17L9 17.05Q12.3 17.4 14.6 19.95Q17.15 22.8 17.45 25.35Q17.7 27.7 16.75 29.35Q17.95 28.55 18.75 28.35L22.3 27.85Q25 27.6 27.55 28.75Q30.45 30.1 30.6 32.6Q31.65 30.85 33.75 29.95Q35.85 29.05 39.7 28.6Q43.6 28.15 45.75 30.6L45.8 30.45L47.5 32.15L47.8 32.55L47.95 32.9Q49.1 35.1 48.55 38L47.9 38.65L46.95 39Q47.35 35.3 46.15 32.95Q44.85 30.35 41.7 29.75L36.8 30.1Q34.95 30.6 33.65 31.5Q31.5 33.05 31.25 34.05Q31.25 35.65 30.85 37.15Q30 40.15 27.45 42.45L27.3 42.6Q28.4 43.75 29.5 45.7Q31.2 43.2 34.05 42.1Q36.95 40.95 39.4 40.85L41.95 41.1Q43.15 41.35 44.4 41.9L45.3 42.5L45.55 43.05L45.5 43.15L45.4 43.25L45.8 43.85Q46.6 45.05 46.9 46.3L47.05 47.75L46.8 48.25L46.8 49Q46.6 49.05 46.55 49.4L46.55 49.5L46.5 50.1L46.4 50.05L46.35 50.05L46.15 50.5L45.55 51.55Q43.9 54.4 42.15 55.45Q42 56.4 42.5 57.35L42.65 57.65L42.85 57.95L43.4 59.7L43.4 59.75L43.4 60L43.2 60.75L43.2 61Q43.1 62.15 42 63.45L42.55 64.6L42.9 66.75M30.9,52.5Q31.45 53.2 32.3 53.8Q36.15 55.3 39.2 54.7Q42.2 54.1 43.9 51.7Q45.6 49.3 45.45 47.8L45.35 46.95L44.95 45.05Q43.45 42.95 41.5 42.4L41.45 42.4L36.35 42.65Q33.2 43.5 30.5 46.5L30 48.15Q29.45 50.75 30.9 52.5M4.3,23.15Q3.5 26.05 4.85 28.8Q6.2 31.55 7.65 32.65Q9.05 33.7 10.35 33.75L12.35 33.5Q12.55 33.05 15.15 30.15Q15.85 29.2 16 27.65Q16.25 25.5 15.2 23.15Q14.1 20.6 11.7 19.35Q9.6 18.25 7.4 18.35Q5 20.45 4.3 23.15M13.95,37.8L15.2 37.8Q20.4 37.75 23.75 39.55Q25.35 40.45 26.55 41.75Q30.2 38.75 30.05 35.1Q29.9 31.45 26.75 29.9Q23.6 28.3 20.15 29.2Q16.7 30.05 14.55 32.65Q13.65 33.65 13.4 34.7Q13 36.25 13.95 37.8M9.9,39.1Q11.35 38.6 12.75 38.25Q11.65 36.65 11.9 34.95Q7.65 35.85 4.9 31.45L3.8 29.65Q1.65 31.15 1.6 33.65Q1.55 34.65 1.9 35.85Q3 39.9 7.1 41.05Q7.65 40.15 9 39.5L9.9 39.1M20.3,54.25Q23.35 54.95 26.2 53.3Q29 51.55 28.7 49.05L28.5 47.9L27.55 45Q26.7 43.5 25.1 42.4Q24.15 41.75 23.25 41.25Q16.15 37.25 10.2 40.45L9.6 40.8Q6.55 42.95 8.55 46.55L9.05 47.4Q10.55 49.35 12.3 50.5L15.6 52.6L17.5 53.45L20.3 54.25M38.75,62.95L40 62.3Q41.55 61.35 41.6 60.75L41.65 59.55L41.7 59L41.4 57.9Q41.1 57.05 40.4 56.25L34.6 55.8L32.1 55.55Q31.55 55.7 31.1 56.1Q29.9 57.15 30.15 60.4Q30.2 61.25 30.65 62.4L30.8 62.75Q31.4 64.1 33.65 64.3L33.75 64.3Q35.55 64.4 38.6 63.05L38.7 63L38.75 62.95M22.55,59.05Q23.2 60.65 24.45 61.75Q25.35 62.5 26.5 63.05Q29.15 63.25 29.05 62.45L28.6 59.55Q28.3 57.35 30.9 54.4Q29.45 53.15 29.4 52.35L29.1 52.85Q26.55 56.1 22.6 56.05Q22.25 56.85 22.3 57.7L22.55 59.05M16.15,58.45Q16.3 59.55 16.7 60.35Q17.2 61.45 18.25 62.05Q20.2 63.1 22.2 61.05Q21.2 59.45 21.15 57.15L21.2 56.1L20.05 55.6L17.85 55Q16.85 54.8 16.45 56Q16.15 56.85 16.15 58.45M25.05,63.8Q24.15 63.45 22.7 62Q22.3 62.75 20.55 63.25Q20.8 64.4 21.45 65.15Q22.45 66.3 24.35 66.4Q26.1 65.45 26 64.8L25.6 64.1L25.05 63.8" />
<path style="fill:#120C0D;fill-opacity:1" d="M64.6,26.35Q67.05 29.3 65.55 32.3L63.6 32.2Q64.6 27.45 60.4 25.95Q62.7 22.5 67.85 21.85L68.95 24.45Q66.95 24.55 64.6 26.35M45.75,30.6Q43.6 28.15 39.7 28.6Q35.85 29.05 33.75 29.95Q31.65 30.85 30.6 32.6Q30.45 30.1 27.55 28.75Q25 27.6 22.3 27.85L18.75 28.35Q17.95 28.55 16.75 29.35Q17.7 27.7 17.45 25.35Q17.15 22.8 14.6 19.95Q12.3 17.4 9 17.05L8.2 17L8.25 16.95Q11.8 10.05 16.5 7.15Q21.25 4.25 24.4 3.35Q47.55 -3.25 63.1 14.35Q65.6 17.2 67.4 20.5Q64.6 21 62.6 22.1Q60.55 23.15 59.3 25.9L52.55 25.7Q49.7 26.6 47.95 27.95Q46.35 29.2 45.8 30.45L45.75 30.6M47.8,32.55L46.9 31.35Q48.6 27.9 52.95 27.15Q57.3 26.35 60.45 27.25Q63.6 28.1 62.35 32.35Q62 32.3 60.85 33.25Q59.7 34.15 59.1 35.45L57.7 34.85L57.55 34.8Q57.75 32.25 56.05 30.5Q51.7 29.8 47.95 32.9L47.8 32.55M53.9,47.3Q56.4 45.75 57 43.7L52.7 42.9Q52.35 44.15 50.7 45.1Q49.05 46.1 46.9 46.3Q46.6 45.05 45.8 43.85L45.4 43.25L45.5 43.15L45.55 43.05Q50.45 36.95 56.6 36.3L57.2 36.4Q59.55 36.9 60.15 38.2Q60.85 39.6 60.95 41.6Q61 43.55 59.9 45.15Q58.8 46.75 57.2 47.75Q55.9 48.55 54.8 48.85L52.5 49.2L51.35 49.3L48.7 49.15Q51.65 48.7 53.9 47.3M52.35,52.25Q48.8 53.65 45.55 51.55L46.15 50.5L46.35 50.05L46.4 50.05L46.5 50.1L51.95 50.6L52.9 50.55L54.05 51.35Q55.05 52.2 55.7 53.7Q53.7 55.1 52.45 57.6Q51.55 57.15 50.55 57Q52.5 54.75 52.35 52.25M52.7,60.55L53.4 61.8L54 63.35L51.35 64.3L44.9 67.6L43.35 67.75L42.9 66.8L42.9 66.75L42.55 64.6Q46.65 66.05 51.4 62.4Q52.45 61.6 52.7 60.55M59.4,49.05Q59 49.65 58.15 50.15Q57.05 50.8 55.65 51.05L54.55 50Q56.15 49.8 58.05 48.6Q59.95 47.35 59.85 46.9Q63.05 49 61.95 51.85L60.65 51.6Q60.5 50 59.4 49.05M63.4,36.55L63.85 39.25L62.2 39Q61.35 37.15 60.05 36.1Q61.05 34.65 62.25 34L62.7 33.8L65.85 33.6Q66.8 34.6 67.05 35.8Q64.85 35.05 63.4 36.55M63.35,44.25Q65.65 46.45 65.2 49.85Q64.4 50.6 64 52.3L63.95 52.9L62.9 52.4Q64.25 48.45 60.9 45.6L61.8 44.1Q62.55 42.45 62.5 40.4Q64.4 40.75 65.8 41.95L67.3 43.4Q65.55 44.3 63.35 44.25M70.05,53.2L70.3 54.55L66.65 58.1Q66.7 56.85 66.35 55.75Q65.9 54.55 65.05 53.45L65.55 51.85L65.7 51.45Q66.4 51.7 66.95 52.5L67.7 54.15Q68.8 53.8 69.7 52.85L69.9 52.7L70.05 53.2M60.65,52.95Q62 52.95 63.55 53.9Q65.95 55.4 65.95 58.7Q63.7 60.55 61.85 61.25L58.2 62.3L57.1 62.55L55.2 63.05L54.6 61Q59.05 60.95 61.95 57.9Q61.75 55.65 60.75 54L60 52.95L60.65 52.95" />
<path style="fill:#201619;fill-opacity:1" d="M65.55,32.3Q67.05 29.3 64.6 26.35Q66.95 24.55 68.95 24.45Q70.9 30.25 68.4 35.55Q68.05 33.75 67.6 33.75Q66.9 32.6 65.55 32.3M47.95,32.9Q51.7 29.8 56.05 30.5Q57.75 32.25 57.55 34.8L56.5 34.7Q55.7 34.7 53.25 35.65Q50.75 36.55 48.45 38.45L48.55 38Q49.1 35.1 47.95 32.9M48.7,49.15L46.95 48.75L47.05 47.75L46.9 46.3Q49.05 46.1 50.7 45.1Q52.35 44.15 52.7 42.9L57 43.7Q56.4 45.75 53.9 47.3Q51.65 48.7 48.7 49.15M50.55,57Q48.5 56.65 46 57.4L43.75 58L43.1 58.25L42.65 57.65L42.5 57.35Q42 56.4 42.15 55.45Q43.9 54.4 45.55 51.55Q48.8 53.65 52.35 52.25Q52.5 54.75 50.55 57M51.4,62.4Q46.65 66.05 42.55 64.6L42 63.45Q43.1 62.15 43.2 61L43.2 60.75L43.4 60L43.4 59.75L43.4 59.7L44.55 59.15Q47.7 57.95 50 58.6Q51.65 59.1 52.7 60.55Q52.45 61.6 51.4 62.4M51.8,31.95Q50.9 32 50.6 32.95Q50.35 33.95 51.1 34Q56.8 34.5 51.8 31.95M49.5,47.15Q54.55 48.5 51.6 45.35Q50.5 45.6 49.55 46.45Q48.9 47 49.5 47.15M55.65,51.05Q57.05 50.8 58.15 50.15Q59 49.65 59.4 49.05Q60.5 50 60.65 51.6L59.55 51.75Q58.05 51.95 57.9 52.15L56.6 52.9L55.65 51.05M63.85,39.25L63.4 36.55Q64.85 35.05 67.05 35.8Q67.4 37.75 65.75 40.2Q64.95 39.6 63.85 39.25M65.2,36.85Q65.1 37.25 65.35 37.3Q67.45 37.55 65.8 36.4Q65.35 36.4 65.2 36.85M65.2,49.85Q65.65 46.45 63.35 44.25Q65.55 44.3 67.3 43.4L67.6 43.8L68.15 44.95L68.25 47.3Q68.15 49.25 67.8 49Q67.35 48.75 65.95 49.35L65.2 49.85M66.9,47.05Q68.85 46.3 67.1 44.7Q65.9 45.3 66.4 46.7Q66.6 47.2 66.9 47.05M66.2,50.55L68 50.45Q69.25 50.95 69.9 52.7L69.7 52.85Q68.8 53.8 67.7 54.15L66.95 52.5Q66.4 51.7 65.7 51.45L66.2 50.55M53.3,58.9Q53.65 57.9 54.6 56.6Q55.45 55.25 58.05 53.7Q59 53.1 60 52.95L60.75 54Q61.75 55.65 61.95 57.9Q59.05 60.95 54.6 61L53.3 58.9M45.4,55.15Q49.15 56.1 46.2 53.75Q45.7 53.75 45.3 54.15Q44.6 54.95 45.4 55.15M44.8,60.5Q47 61.9 49.65 60.85L49.95 60.4Q49.75 58.8 47.2 59.4L44.85 60.1Q44.45 60.25 44.8 60.5" />
<path style="fill:#2E2427;fill-opacity:1" d="M51.1,34Q50.35 33.95 50.6 32.95Q50.9 32 51.8 31.95Q56.8 34.5 51.1 34M49.55,46.45Q50.5 45.6 51.6 45.35Q54.55 48.5 49.5 47.15Q48.9 47 49.55 46.45M65.8,36.4Q67.45 37.55 65.35 37.3Q65.1 37.25 65.2 36.85Q65.35 36.4 65.8 36.4M66.4,46.7Q65.9 45.3 67.1 44.7Q68.85 46.3 66.9 47.05Q66.6 47.2 66.4 46.7M55.4,68.35Q57.9 67.1 57.8 63.85L58.55 63.7Q61.35 63.1 63.3 62.15L66.05 60.4L66.25 60.35L66.3 60.2L67.6 59.2L68.45 58.45Q70.6 64.2 65.05 70.5Q62.75 72.5 59.95 73.95L55.45 76.35Q53.75 77.3 49.3 81.6L41.7 88.45Q38.55 90.95 33.75 91.5Q28.9 92 24.2 87.85Q22.45 83.6 20.45 80.15Q18.15 76.1 15 71.85L10.4 66L10.4 65.35L12.75 64.55L13.7 65.35L13.25 64.35L12.3 62.95Q12.55 61.95 13.4 61.2L14.55 60.5L15.55 62.7L15.4 62.95Q14.35 65.85 15.85 67.9L15 67.5Q14.45 67.3 17.4 70.6L21.3 74.55L26 80.15Q30.55 84.1 38.9 78.45L55.8 70.75L56.15 69.9L56.2 69.55L54.2 69.25Q55.25 68.8 55.4 68.35M45.3,54.15Q45.7 53.75 46.2 53.75Q49.15 56.1 45.4 55.15Q44.6 54.95 45.3 54.15M44.85,60.1L47.2 59.4Q49.75 58.8 49.95 60.4L49.65 60.85Q47 61.9 44.8 60.5Q44.45 60.25 44.85 60.1" />
<path style="fill:#1C1417;fill-opacity:1" d="M55.4,68.35L55.45 68.2Q55.45 67.55 52.8 68.65L52.35 68.8Q49.9 69.8 47.6 70.95L37.9 75.4Q30.75 78.6 26.8 76.9Q22.05 74.5 17.3 69.1L16.5 68.35L16.45 68.35L15.9 67.95L15.85 67.9Q14.35 65.85 15.4 62.95L15.55 62.7Q17.75 67.1 20.3 69.4Q23.9 72.55 26.95 74.1Q29.95 75.6 33.2 74.7Q36.45 73.8 39.85 71.9L50.85 65.85Q52.4 65.2 54.3 64.65L55.25 64.4L57.8 63.85Q57.9 67.1 55.4 68.35M68.45,58.45L72.7 54.5Q74.4 57.4 69.95 61.55Q70.9 62 72.35 60.65Q71.8 61.5 72.2 62.8Q72.55 64.05 74.6 64.45Q74.2 69.4 71.5 73.95Q68.7 74.75 62.6 77.9Q56.4 81 50.3 86.1Q44.1 91.2 40.65 92.85Q37.15 94.45 31.95 94.4Q26.8 94.3 24.8 89.25L24.2 87.85Q28.9 92 33.75 91.5Q38.55 90.95 41.7 88.45L49.3 81.6Q53.75 77.3 55.45 76.35L59.95 73.95Q62.75 72.5 65.05 70.5Q70.6 64.2 68.45 58.45" />
<path style="fill:#43363A;fill-opacity:1" d="M10.4,66L9.75 65.25Q9.1 63.5 11.1 63.45Q11.45 63.45 12.75 64.55L10.4 65.35L10.4 66M13.4,61.2Q12.55 61.95 12.3 62.95L11.2 62.15Q11.2 60.5 12 59.55Q12.7 58.65 13.7 58.55L14.55 60.5L13.4 61.2M23.15,76.15Q26 78.45 29.35 78.9Q32.7 79.3 42.35 74.65Q51.95 70 53.7 69.45L54.2 69.25L56.2 69.55L56.15 69.9L55.8 70.75L38.9 78.45Q30.55 84.1 26 80.15L21.3 74.55L23.15 76.15" />
</g>
</svg>
