<?xml version="1.0" encoding="utf-8"?>
<svg version="1.1" id="Layer_1"
xmlns="http://www.w3.org/2000/svg"
xmlns:xlink="http://www.w3.org/1999/xlink"
xmlns:author="http://www.sothink.com"
width="344px" height="210px"
xml:space="preserve">
<g id="2974" transform="matrix(1, 0, 0, 1, 16.55, -16.95)">
<path style="fill:#000000;fill-opacity:1" d="M51.6,38.95L51.3 41.35Q50.1 47 50.4 48.6Q50.05 56.8 52.4 64.45Q52.8 65.75 52.8 67.05L51.25 71.2L49.55 74.65Q59.4 86.35 77.55 95.7L77.65 95.8Q98.25 105.05 115.75 109.7L121.1 110.9Q118.35 130.7 119.95 151.25Q121 165.3 123 178.8L123.6 183.3L121.35 183.35Q108.85 183.8 99.4 187Q89.9 190.15 84.9 193.55Q82 195.4 78.2 198.6Q74.4 201.75 69.7 196.9Q59.5 187.4 50.15 188.8Q44.75 189.6 43.65 191.55L45.3 196.95Q46.75 200.75 43.05 209.9Q41.5 219.55 41.4 221.25Q41.3 222.95 40.2 224.1Q39.1 225.2 36.9 225.05L34.45 224.45Q12.3 216.1 -0.45 197.45Q-12.35 180.1 -15.5 155Q-16.7 145.5 -16.5 136.65Q-16 103.4 2.95 77.15Q8.75 69.15 16.2 61.8Q28.15 49.9 44.7 39.75Q45.55 39.1 49.05 37.4Q49.9 36.85 50.5 37Q51.65 37 51.6 38.95" />
<path style="fill:#000000;fill-opacity:1" d="M325.45,171Q321.25 192.1 306.85 213.95L300.25 223.4L298.35 225.4Q297.6 225.95 296.35 226.15L295.2 226.3Q292.95 226.55 292.2 224.75Q291.4 222.9 291.65 222.7Q292.45 199.7 286.5 193.1Q280.55 186.45 276.65 184.55Q272.7 182.6 271.3 176.3Q270.85 174.7 269.25 173.15Q264.25 167.45 258.45 174.35L256.25 176.55Q252.15 180.65 249.9 172.8Q240.6 148 209.55 158.5Q191.85 164.3 184.8 175.65Q177.8 186.9 173.6 183.6Q164.15 178.7 154.55 178.45L151.8 178.4Q147.9 178.6 144.15 179.55L143.7 179.65L141.75 180.05L139.2 180.6L138.05 176.2Q134.35 162.55 131.5 148.3Q129.75 140.1 128.8 131.9L128.55 129.75Q127.05 118.15 126.85 106.65L132.6 106.75L142.05 106.4L152.75 105Q159.15 104.05 170.15 96.8Q181.1 89.55 183 75.1L183.1 75.35Q191.5 63.9 196.45 50.7L187.15 46.35Q185.7 43.85 185.6 41.3Q185.5 37.3 184.85 31.15Q183.8 24.85 183.8 21.4Q183.9 17.95 186.35 17.45L188.05 17.15L199.25 17.75Q247.35 24 277.7 51.9Q292.25 65.3 302.85 82.5Q313.5 99.75 321.55 124.75Q324.15 133.05 325.45 140.85Q328.15 156.9 325.45 171" />
</g>
</svg>
