<?xml version="1.0" encoding="utf-8"?>
<svg version="1.1" id="Layer_1"
xmlns="http://www.w3.org/2000/svg"
xmlns:xlink="http://www.w3.org/1999/xlink"
xmlns:author="http://www.sothink.com"
width="78px" height="32px"
xml:space="preserve">
<g id="2839" transform="matrix(1, 0, 0, 1, 85.4, -6.7)">
<path style="fill:#231813;fill-opacity:1" d="M-9.45,13.1Q-9.75 12.1 -9.95 12.2L-15.75 12.55L-30.55 13.3L-32.5 13.4L-33 13.4L-33 13.35L-45.6 13.65L-53.75 13.8L-56.5 13.95L-59.85 14.1L-63.15 14.25L-63.15 13.1L-56.45 12.9L-56.35 12.9L-53.55 12.8L-32.45 12.05L-32.45 12.1L-15.5 11.05L-9.55 10.75Q-8.05 11.25 -7.7 12.6L-7.6 13.4Q-7.55 14.2 -7.75 14.8L-8.8 16.35L-33.1 17.25L-33.1 17.2L-64.85 17.95Q-70.9 16.85 -67.1 16.8L-50.2 16.6L-33.05 16.05L-33.05 16.1L-32.55 16.1L-18.6 15.4L-9.65 14.85Q-9.25 14.25 -9.3 13.5L-9.45 13.1" />
<path style="fill:#312118;fill-opacity:1" d="M-67.4,15.9L-48.05 15.5L-41.6 15.4L-33.05 15.15L-33.05 15.3L-32.55 15.25L-32.5 15.25L-26.1 14.9L-21.2 14.6L-17.1 14.25L-9.3 13.5Q-9.25 14.25 -9.65 14.85L-18.6 15.4L-32.55 16.1L-33.05 16.1L-33.05 16.05L-50.2 16.6L-67.1 16.8Q-73.7 16.1 -67.4 15.9" />
<path style="fill:#4F3727;fill-opacity:1" d="M-67.95,14.65L-63.15 14.25L-59.85 14.1L-56.5 13.95L-53.75 13.8L-45.6 13.65L-33 13.35L-33 13.4L-32.5 13.4L-30.55 13.3L-15.75 12.55L-9.95 12.2Q-9.75 12.1 -9.45 13.1L-9.3 13.5L-17.1 14.25L-21.2 14.6L-26.1 14.9L-32.5 15.25L-32.55 15.25L-33.05 15.3L-33.05 15.15L-41.6 15.4L-48.05 15.5L-67.4 15.9Q-70.05 14.95 -67.95 14.65" />
<path style="fill:#000000;fill-opacity:1" d="M-79.2,15.95L-72.1 17.5L-72.55 18.15Q-72.8 18.65 -72.4 18.35Q-69 19.9 -72.6 19.15L-80.05 17.25Q-83.45 16.25 -81.45 15.2L-80.7 14.95Q-77.5 13.7 -73.5 12.7Q-69.55 11.7 -70.4 12.3L-71.4 13.15L-71.4 13.25L-71.6 13.45L-71.8 13.5L-72.2 13.7L-72.2 13.65Q-72.5 13.85 -72.15 14.1L-76.55 15.3L-78.95 15.9L-79.2 15.95M-71.8,17.85L-71.8 17.9L-71.9 17.95L-71.8 17.85" />
<path style="fill:#3D3C3C;fill-opacity:1" d="M-71.85,15.55L-75.65 16L-78.95 15.9L-76.55 15.3L-72.15 14.1Q-72.5 13.85 -72.2 13.65L-72.2 13.7Q-71.55 14.4 -71.1 15.35L-71.85 15.55M-74.5,14.9Q-75.55 14.9 -76.35 15.55Q-74.55 16.1 -74.5 14.95L-74.5 14.9" />
<path style="fill:#222222;fill-opacity:1" d="M-71.9,17.95L-72.4 18.35Q-72.8 18.65 -72.55 18.15L-72.1 17.5L-79.2 15.95L-78.95 15.9L-75.65 16L-71.85 15.55L-71.1 15.35L-71.05 15.5Q-70.55 16.7 -71.45 17.5L-71.8 17.85L-71.9 17.95" />
<path style="fill:#9C9C9C;fill-opacity:1" d="M-74.5,14.95Q-74.55 16.1 -76.35 15.55Q-75.55 14.9 -74.5 14.9L-74.5 14.95" />
<path style="fill:#000000;fill-opacity:1" d="M-73.95,10.6Q-71 12.2 -70.75 13.5Q-70.7 13.95 -70.8 14.05Q-71 14.3 -71.8 13.5Q-73.05 12.3 -74.75 11.55Q-76.35 11.05 -75.35 10.2Q-70.15 6.5 -64.8 6.7L-57.75 7.45L-56.5 7.8L-54.95 8.4Q-53 9.25 -51.45 10.4L-51.15 10.65Q-49.55 12.05 -51.95 12.15Q-53.25 12.55 -54.4 13.4Q-55.9 14.45 -56.45 16.35Q-56.55 16.7 -56.55 16.4L-56.3 14.85Q-55.6 11.5 -52.6 11Q-52.9 10.75 -53.55 10.25L-53.95 10.05Q-54.45 9.75 -54.9 9.6Q-57.3 8.6 -59.6 8.15L-63.45 7.7Q-68.95 7.55 -73.95 10.6" />
<path style="fill:#252525;fill-opacity:1" d="M-57.5,15.4Q-59.35 16 -61.25 16L-65.1 15.85L-65.45 15.85Q-66.25 11.5 -69.05 10.15Q-66.9 9.25 -62.8 9.15Q-58.6 9 -53.95 10.05L-53.55 10.25Q-52.9 10.75 -52.6 11Q-55.6 11.5 -56.3 14.85L-57.5 15.4" />
<path style="fill:#3A3838;fill-opacity:1" d="M-62.8,9.15Q-66.9 9.25 -69.05 10.15Q-66.25 11.5 -65.45 15.85L-67.35 15.5L-67.45 15.45L-67.55 15.15Q-68.6 11.65 -71.5 10.15L-69.25 8.95L-66.5 8.2L-63.45 7.7L-59.6 8.15Q-57.3 8.6 -54.9 9.6Q-54.45 9.75 -53.95 10.05Q-58.6 9 -62.8 9.15" />
<path style="fill:#434242;fill-opacity:1" d="M-68.4,15.15L-68.85 15L-69.9 14.55Q-70.1 13.55 -70.65 12.6Q-71.35 11.25 -72.3 10.35Q-71.05 9.4 -69.25 8.95L-71.5 10.15Q-68.6 11.65 -67.55 15.15L-67.45 15.45L-68.4 15.15" />
<path style="fill:#9C9C9C;fill-opacity:1" d="M-70.8,14.05Q-70.7 13.95 -70.75 13.5Q-71 12.2 -73.95 10.6Q-68.95 7.55 -63.45 7.7L-66.5 8.2L-69.25 8.95Q-71.05 9.4 -72.3 10.35Q-71.35 11.25 -70.65 12.6Q-70.1 13.55 -69.9 14.55L-70.8 14.05" />
<path style="fill:#3C3532;fill-opacity:1" d="M-75.45,26.35L-76.25 25.75Q-79.9 27.8 -83.35 27.85Q-79.85 33.5 -72.55 35.35Q-66.65 36.8 -61.3 36.55L-58.9 36.35Q-52.55 35.5 -47.85 32.6Q-44.7 30.55 -43.45 29.35L-42.75 28.45L-44.5 28.05Q-47.25 27.45 -48.7 26.75L-50.75 25.55Q-50.05 25.05 -49.75 24.35L-48.8 24.85L-43.15 26.9L-40.25 27.5Q-40.1 28.05 -40.3 28.55Q-41 29.9 -45 33.1Q-47.6 35.1 -51.55 36.45L-56.4 37.75Q-63.8 39.25 -70.75 37.7Q-77.75 36.05 -81.8 32.2Q-85.85 28.4 -85.35 26.25L-79.65 25.8L-77.55 24.6L-76.7 23.85Q-76.9 25 -75.45 26.35" />
<path style="fill:#434242;fill-opacity:1" d="M-71.6,18.8L-71.35 18.05L-67.95 17.9Q-67.3 21.2 -70.15 26.3L-70.6 27.2L-73.8 25.9Q-71.55 23.3 -71.6 18.8M-71.4,15.2Q-71.4 14 -70.7 14L-61.55 13.65L-56.15 13.9L-55.6 14.3Q-55.65 15.35 -57.5 15.35L-61.3 15.35L-65.2 15.35L-69.1 15.35L-71.4 15.35L-71.4 15.2M-61.65,14.3L-61.7 14.1L-62 14L-62.6 14L-62.75 14L-65.95 14.35L-66 14.4Q-64 14.8 -61.75 14.45L-61.65 14.3" />
<path style="fill:#000000;fill-opacity:1" d="M-75.25,26.45L-75.45 26.35Q-76.9 25 -76.7 23.85L-74.75 21.8L-72.6 17.65Q-73.65 16.1 -72.75 13.7Q-72.15 12.25 -68.9 12.1Q-65 11.8 -61.1 11.95L-55.75 12.2Q-54.3 12.45 -54 14.35Q-53.7 16.25 -54.2 16.85L-54.75 17.55L-53.5 20.5Q-52.7 22 -51.55 23.05L-49.75 24.35Q-50.05 25.05 -50.75 25.55Q-53.4 27.75 -59.5 28.8L-68.05 29.1L-69.65 28.75L-71.25 28.2L-74.7 26.75Q-75 26.55 -75.25 26.45M-66,17.9L-67.95 17.9L-71.35 18.05L-71.6 18.8Q-73.1 22.3 -74.8 24.2Q-75.25 24.6 -74.35 25.5L-73.8 25.9L-70.6 27.2L-69.7 27.4L-67.3 27.9Q-64.5 28.25 -61.2 27.9Q-56.5 27.4 -51.9 24.7L-52.45 24.25Q-54.35 22.75 -55.4 20.05L-55.65 19.3L-56.15 17.7L-65.1 17.95L-66 17.9M-55.6,14.3L-56.15 13.9L-61.55 13.65L-70.7 14Q-71.4 14 -71.4 15.2L-71.4 15.35Q-71.45 16.5 -71 16.6L-65.35 16.5Q-60.55 16.4 -55.75 16.45Q-54.7 15.2 -55.6 14.3" />
<path style="fill:#252525;fill-opacity:1" d="M-66.75,26.8Q-64.55 22.35 -65.1 17.95L-56.15 17.7L-55.65 19.3L-55.4 20.05Q-54.35 22.75 -52.45 24.25L-51.9 24.7Q-56.5 27.4 -61.2 27.9Q-64.5 28.25 -67.3 27.9L-66.75 26.8M-55.75,16.45Q-60.55 16.4 -65.35 16.5L-71 16.6Q-71.45 16.5 -71.4 15.35L-69.1 15.35L-65.2 15.35L-61.3 15.35L-57.5 15.35Q-55.65 15.35 -55.6 14.3Q-54.7 15.2 -55.75 16.45" />
<path style="fill:#3A3838;fill-opacity:1" d="M-67.95,17.9L-66 17.9L-65.1 17.95Q-64.55 22.35 -66.75 26.8L-67.3 27.9L-69.7 27.4L-70.6 27.2L-70.15 26.3Q-67.3 21.2 -67.95 17.9" />
<path style="fill:#9C9C9C;fill-opacity:1" d="M-73.8,25.9L-74.35 25.5Q-75.25 24.6 -74.8 24.2Q-73.1 22.3 -71.6 18.8Q-71.55 23.3 -73.8 25.9M-61.75,14.45Q-64 14.8 -66 14.4L-65.95 14.35L-62.75 14L-62.6 14L-62 14L-61.7 14.1L-61.65 14.3L-61.75 14.45" />
<linearGradient
id="LinearGradID_2716" gradientUnits="userSpaceOnUse" gradientTransform="matrix(-0.0240479, 0.00247192, -0.000564575, -0.00733948, -57.25, 30.15)" spreadMethod ="pad" x1="-819.2" y1="0" x2="819.2" y2="0" >
<stop  offset="0.00392157" style="stop-color:#625B57;stop-opacity:1" />
<stop  offset="1" style="stop-color:#BFB4AA;stop-opacity:1" />
</linearGradient>
<path style="fill:url(#LinearGradID_2716) " d="M-71.25,28.2L-69.65 28.75L-68.05 29.1L-69.4 30.9Q-62.95 33.9 -50 30.15L-44.5 28.05L-42.75 28.45L-43.45 29.35L-50.2 32Q-63.95 36.4 -74.3 31.25Q-72.35 29.95 -71.25 28.2" />
<linearGradient
id="LinearGradID_2717" gradientUnits="userSpaceOnUse" gradientTransform="matrix(-0.0240479, 0.00247192, -0.000564575, -0.00733948, -57.25, 30.15)" spreadMethod ="pad" x1="-819.2" y1="0" x2="819.2" y2="0" >
<stop  offset="0.00392157" style="stop-color:#5B514C;stop-opacity:1" />
<stop  offset="1" style="stop-color:#B6A89D;stop-opacity:1" />
</linearGradient>
<path style="fill:url(#LinearGradID_2717) " d="M-50,30.15Q-62.95 33.9 -69.4 30.9L-68.05 29.1L-59.5 28.8Q-53.4 27.75 -50.75 25.55L-48.7 26.75Q-47.25 27.45 -44.5 28.05L-50 30.15" />
<linearGradient
id="LinearGradID_2718" gradientUnits="userSpaceOnUse" gradientTransform="matrix(-0.0240479, 0.00247192, -0.000564575, -0.00733948, -57.25, 30.15)" spreadMethod ="pad" x1="-819.2" y1="0" x2="819.2" y2="0" >
<stop  offset="0.00392157" style="stop-color:#746E6B;stop-opacity:1" />
<stop  offset="1" style="stop-color:#CDC6C0;stop-opacity:1" />
</linearGradient>
<path style="fill:url(#LinearGradID_2718) " d="M-74.3,31.25Q-63.95 36.4 -50.2 32L-43.45 29.35Q-44.7 30.55 -47.85 32.6Q-52.55 35.5 -58.9 36.35L-61.3 36.55Q-74.55 35.6 -80.85 28.8Q-78.4 28.9 -76 27.6L-74.7 26.75L-71.25 28.2Q-72.35 29.95 -74.3 31.25" />
<linearGradient
id="LinearGradID_2719" gradientUnits="userSpaceOnUse" gradientTransform="matrix(-0.0240479, 0.00247192, -0.000564575, -0.00733948, -57.25, 30.15)" spreadMethod ="pad" x1="-819.2" y1="0" x2="819.2" y2="0" >
<stop  offset="0.00392157" style="stop-color:#C4BEBB;stop-opacity:1" />
<stop  offset="1" style="stop-color:#F7F7F7;stop-opacity:1" />
</linearGradient>
<path style="fill:url(#LinearGradID_2719) " d="M-74.7,26.75L-76 27.6Q-78.4 28.9 -80.85 28.8Q-74.55 35.6 -61.3 36.55Q-66.65 36.8 -72.55 35.35Q-79.85 33.5 -83.35 27.85Q-79.9 27.8 -76.25 25.75L-75.45 26.35L-75.25 26.45Q-75 26.55 -74.7 26.75" />
</g>
</svg>
