<?xml version="1.0" encoding="utf-8"?>
<svg version="1.1" id="Layer_1"
xmlns="http://www.w3.org/2000/svg"
xmlns:xlink="http://www.w3.org/1999/xlink"
xmlns:author="http://www.sothink.com"
width="33px" height="40px"
xml:space="preserve">
<g id="1576" transform="matrix(1, 0, 0, 1, 2.05, 12.05)">
<path style="fill:#3F5B06;fill-opacity:1" d="M23.15,-7.95Q25 -7.55 25.75 -8.95L27 -9.05Q27.7 -9.4 27.9 -10.35L27.9 -10.3L28.35 -9.25Q28.35 -8.6 27.9 -8.2Q27.55 -7.75 27 -7.75L26.6 -7.85L26.15 -7.25Q25.55 -6.7 24.75 -6.7Q23.9 -6.7 23.35 -7.25Q22.95 -7.6 22.85 -8.05L23.15 -7.95M30.2,-5.4L29.95 -4.8L29.4 -4.6L28.85 -4.75L28.7 -4.95L28.3 -4.9Q27.85 -4.9 27.55 -5.25Q27.2 -5.55 27.2 -5.95Q27.2 -6.3 27.35 -6.5L27.4 -6.35Q28 -5.5 28.85 -5.75L29.35 -5.3Q29.75 -5.1 30.25 -5.45L30.2 -5.4M28.25,10.4Q28.15 11.6 27.25 12.25Q26.35 12.9 25.2 12.6L25.15 12.6L24.95 12.8L24.55 13.15Q23.65 13.85 22.5 13.65Q21.4 13.45 20.75 12.6L19 12.65Q17.65 12.4 16.8 11.2Q15.95 10.05 16.05 8.65Q16.1 7.8 16.5 7.3L17.1 6.6Q16.75 5.9 16.95 5.05L17.2 4.4L17.35 4.95Q17.8 6.65 19.25 6.65Q18.05 7.45 18.4 9.05Q18.75 10.55 21.3 10.6L22.25 11.55Q23.45 12.25 24.75 11Q24.5 11.5 26.25 11.5Q27.5 11.5 28.25 10.4M14.2,4.9Q15.45 5.95 15.45 7.5Q15.45 9.05 14.15 10.15L14.1 10.2L14.15 10.55L14.25 11.3Q14.25 12.9 13.1 14Q12 15.1 10.45 15.15Q10.1 16.3 9.1 17.15Q7.7 18.45 5.65 18.45Q3.6 18.45 2.15 17.15Q1.3 16.4 1 15.5L0.75 14.25Q-0.35 14.1 -1.15 13.15L-1.65 12.35L-0.95 12.65Q1.35 13.5 2.55 11.95Q2.5 13.9 4.55 14.85Q6.6 15.7 8.7 12.85L10.55 12.6Q12.35 11.8 12.05 9.3Q12.4 10 13.8 8.05Q14.8 6.65 14.2 4.9M15.35,17.05Q16.4 17.1 17 17.8Q17.65 18.55 17.45 19.55L17.6 19.75L17.95 20Q18.4 20.6 18.45 21.25L18.4 21.65Q18.3 22.55 17.55 23.2Q17.85 23.85 17.65 24.6Q17.45 25.7 16.4 26.5Q15.6 27.1 14.55 27.1L14.15 27.1L12.95 26.8L12.3 26.35L10.9 26.5L10.3 26.35L10.8 26.2Q12.3 25.8 12.3 24.65Q13.05 25.5 14.5 25.2Q15.8 24.85 15.8 22.75L16.6 21.95Q17.2 20.95 16.05 19.9Q16.45 20.05 16.45 18.6Q16.35 17.65 15.35 17.05" />
<path style="fill:#587410;fill-opacity:1" d="M27.9,-10.35Q27.7 -9.4 27 -9.05L25.75 -8.95Q25 -7.55 23.15 -7.95L22.85 -8.05L22.75 -8.45L23.15 -9.5L23.15 -9.95Q23.15 -10.85 23.75 -11.45Q24.4 -12.05 25.25 -12.05Q26.15 -12.05 26.8 -11.45L27.3 -10.65L27.9 -10.35M27.45,-6.7Q27.65 -6.9 28 -6.95L28.15 -7.15Q28.5 -7.5 29 -7.45L29.85 -7.15L30.2 -6.3L30.1 -5.8L30.25 -5.45Q29.75 -5.1 29.35 -5.3L28.85 -5.75Q28 -5.5 27.4 -6.35L27.35 -6.5L27.45 -6.7M26.25,11.5Q24.5 11.5 24.75 11Q23.45 12.25 22.25 11.55L21.3 10.6Q18.75 10.55 18.4 9.05Q18.05 7.45 19.25 6.65Q17.8 6.65 17.35 4.95L17.2 4.4Q17.5 3.8 18.1 3.4Q19 2.7 20 2.8Q20.65 2.85 21.1 3.2Q22.65 2.15 24.35 2.4Q26.1 2.65 27.15 4.1Q28.2 5.55 27.95 7.3L27.7 8.25L28.05 9L28.25 10.35L28.25 10.4Q27.5 11.5 26.25 11.5M13.8,8.05Q12.4 10 12.05 9.3Q12.35 11.8 10.55 12.6L8.7 12.85Q6.6 15.7 4.55 14.85Q2.5 13.9 2.55 11.95Q1.35 13.5 -0.95 12.65L-1.65 12.35Q-2.05 11.55 -2.05 10.55Q-2.05 9 -1.15 7.9Q-0.55 7.2 0.25 7Q0.3 4.45 2 2.7Q3.75 0.95 6.25 0.95Q8.75 0.95 10.5 2.7L11.35 3.75L12.45 3.95Q13.4 4.2 14.15 4.85L14.2 4.9Q14.8 6.65 13.8 8.05M16.45,18.6Q16.45 20.05 16.05 19.9Q17.2 20.95 16.6 21.95L15.8 22.75Q15.8 24.85 14.5 25.2Q13.05 25.5 12.3 24.65Q12.3 25.8 10.8 26.2L10.3 26.35Q9.8 26.1 9.4 25.7Q8.8 24.95 8.85 24.05Q8.8 23.55 9.2 23.15Q8.4 22.2 8.35 21.1L8.35 20.55Q8.55 19.1 9.75 18.2Q11.1 17.25 12.65 17.4L13.5 17.6L14.1 17.25L15.2 17.05L15.35 17.05Q16.35 17.65 16.45 18.6" />
</g>
</svg>
