<?xml version="1.0" encoding="utf-8"?>
<svg version="1.1" id="Layer_1"
xmlns="http://www.w3.org/2000/svg"
xmlns:xlink="http://www.w3.org/1999/xlink"
xmlns:author="http://www.sothink.com"
width="53px" height="64px"
xml:space="preserve">
<g id="2876" transform="matrix(1, 0, 0, 1, 0, 0)">
<path style="fill:#000000;fill-opacity:1" d="M42.75,17.05L42.75 17.1Q42.7 18.45 42.2 19.8Q41.7 21.05 40.7 21.55L41.85 21.8L42.2 22.1Q42.55 22.5 41.4 23.25L40.85 23.8L41.05 26.55L41.8 26.45L43.85 26.7Q44.8 26.95 45.35 27.35Q45.8 27.65 43.7 28.95Q41.55 30.9 41.9 31.05L44.9 31.35Q46.2 31.35 46.05 31.85L44.45 34Q43.05 35.6 42 35.9L43.3 36.8L44.3 37.85L47.95 30.9L51.05 28.5L52.35 27.55Q52.55 27.4 52.6 27.65L52.7 28.6L52.75 30.5L52.55 32.4L51.75 34.2L48.35 39.65L46.35 42.85L46.65 43.15Q47.4 44.05 47.3 45.55Q47.25 47 46 47.8L44.05 47.7L43.5 46.9L43.45 47.35L43.35 47.65Q43.15 48.5 42.55 49.05Q41.95 49.65 41.05 49.95L39.35 50L37.75 49.15L37 48.5L36.95 48.5L36.2 48.45L34.6 48.15L32.75 47.35L32.7 47.75L32.6 49.2L32.9 49.6L34.05 51.5Q34.65 52.75 34.45 53.5L34.45 53.65Q35.1 54.1 35.2 55.25Q35.3 56.75 34.9 57.85L35.55 58.9Q36.45 61.35 34.5 62.7L33.6 63.15L29.65 63.35Q26.75 62.65 26.45 61Q26.15 59.55 27.1 58.6L26.85 57.6L26.85 56.1L25.95 54.7L25.8 54.35Q25.45 54.15 25.25 53.75L25.2 53.65L24.95 53.65L23.95 54.85L23.85 54.95L23.3 56.55L22.75 57.5Q24.5 59.95 23.65 61.65Q22.75 63.4 19.35 63.9L18.9 63.95L14.65 63.55L14.6 63.5L13.95 63.2Q11.95 62 11.55 60.5Q11.1 58.2 12.25 56.95L12.45 56.8Q12.3 55.95 12.55 54.5Q12.7 53.05 13.15 52.2Q11.6 51.5 10.8 50.6L9.2 48.05L9.15 47.85L8.85 46.9Q8.6 46 8.65 45.05L8.65 44.85Q8.75 43.4 9.2 43.15L10.3 42.75L10.45 41.85L10.55 41.5L10.4 41.55L10.35 41.55Q9.45 41.95 9.35 42.7Q9.2 43.45 8.5 43.15Q7.75 42.85 7.1 42.2L6.15 40.85Q5.8 40.05 6.75 39.55L7.8 38.55L8.2 37.95Q5.1 37.9 2.25 35.4Q-0.4 33.15 0.05 30L0.1 29.7L0.3 29Q3.05 31.4 6.8 28.55L6.35 26.85Q5.65 23.65 5.55 21.8L5.5 20.85L5.45 19.75L5.6 17.45Q5.85 15 6.35 12.9Q6.85 10.7 8.05 8.55Q9.1 6.3 10.2 5.25L11.55 4L14.35 2.3Q16.25 1.3 18.8 0.65Q21.35 -0.05 23.55 0L27.8 0.5Q29.8 0.95 32.65 2.3Q35.45 3.7 38.3 6.9Q41.1 10.05 41.9 12.55L42.75 15.85L42.75 17.05M40.6,39.65L39.2 40.15L38.95 41.25L38.65 42.25L39 42.6L39.35 43L39.65 43.35L39.75 43.3L39.9 43.25Q39.45 42.7 39.55 42L39.95 40.6L40.5 39.85L40.95 39.6L40.6 39.65M42.5,41.2L43.7 39L41.55 39.45L41.65 39.6L42.1 40.6L42.5 41.2M44.1,45.3L43.9 45.6L44.35 45.3L44.1 45.3" />
</g>
</svg>
