<?xml version="1.0" encoding="utf-8"?>
<svg version="1.1" id="Layer_1"
xmlns="http://www.w3.org/2000/svg"
xmlns:xlink="http://www.w3.org/1999/xlink"
xmlns:author="http://www.sothink.com"
width="35px" height="24px"
xml:space="preserve">
<g id="2312" transform="matrix(1, 0, 0, 1, 4.25, -6.15)">
<path style="fill:#F7FFDB;fill-opacity:1" d="M24.45,6.15Q27.95 8.25 25.4 10.4Q22.8 12.55 17.75 13.4L4.8 14.95L0.2 15.15L3.35 18.15L8.2 22.45L12.95 22.4Q17.5 22.2 26.1 20.05L29.5 18.65Q30.05 18.95 29.95 20.1Q29.9 21.2 27.3 22.5Q21.5 24.6 11.6 25.25Q14.35 27.4 16.85 28.55Q17.55 30.05 15.65 29.8Q13.7 29.55 12.5 28.55L8.25 25.1L0.55 26.55Q-1.9 27.05 -1.6 25.35Q-1.3 23.65 6.55 23.1L-0.4 17.75Q-6.4 12.85 -3.05 11.7Q-2.7 13 5.05 12.5Q19.1 11.2 21.8 9.45Q24.45 7.7 24.45 6.15" />
</g>
</svg>
