<?xml version="1.0" encoding="utf-8"?>
<svg version="1.1" id="Layer_1"
xmlns="http://www.w3.org/2000/svg"
xmlns:xlink="http://www.w3.org/1999/xlink"
xmlns:author="http://www.sothink.com"
width="27px" height="26px"
xml:space="preserve">
<g id="111" transform="matrix(1, 0, 0, 1, 0, 0)">
<path style="fill:#FFFFFF;fill-opacity:1" d="M23.4,17.7L19.3 17.25L17.8 16.9Q13.6 15.65 12.65 11.95L12.05 9.8L11.65 9.8L11.35 9.8Q10.25 9.65 9.3 8.55Q8.25 7.3 8.25 5.9L8.35 5.35Q8.45 4.95 8.7 4.5L8.8 4.4Q7.4 3.8 5.25 3.8L3.2 4.05Q3.8 2.65 5.85 2.65L10.45 2.65Q12.25 2.7 12.25 4.4L12.4 7.95L12.6 9.55L12.6 9.6L13.15 11.35Q13.65 12.55 14.65 13.5Q15.7 14.55 16.75 14.8L18.9 15.25L21 15.4Q23.05 15.4 23.55 16.5L23.65 17.75L23.4 17.7" />
<path style="fill:#E9E9E9;fill-opacity:1" d="M2.95,5.3L2.95 5.2Q3 4.55 3.2 4.05L5.25 3.8Q7.4 3.8 8.8 4.4L8.7 4.5Q8.45 4.95 8.35 5.35Q7.35 5.3 5.95 5.9L5.7 5.1L4.65 5.05L2.95 5.3M15.4,16.55L14.65 16.4L14.1 16.25L12.05 16.45Q11.1 16.45 11.25 15.35Q11.45 14.25 12.5 14L11.55 11.15L11.35 9.8L11.65 9.8L12.05 9.8L12.65 11.95Q13.6 15.65 17.8 16.9L19.3 17.25L23.4 17.7L23.65 17.75L23.7 20.3L23.55 21.85L23.1 20.25L22.65 19.15Q22.3 18.45 21.35 17.9L19.35 18.65Q17.75 19.05 17.7 17.55L17.8 16.9L15.4 16.55" />
<path style="fill:#424242;fill-opacity:1" d="M2.95,5.2L2.95 5.3L2.9 7.65L2.85 13.25Q2.8 18.75 3.3 20.55L3.35 20.75Q3.9 22.35 6.2 22.65L22.9 22.85Q23.3 22.8 23.55 21.85L23.7 20.3L23.65 17.75L23.55 16.5Q23.05 15.4 21 15.4L18.9 15.25L16.75 14.8Q15.7 14.55 14.65 13.5Q13.65 12.55 13.15 11.35L12.6 9.6L12.6 9.55L12.4 7.95L12.25 4.4Q12.25 2.7 10.45 2.65L5.85 2.65Q3.8 2.65 3.2 4.05Q3 4.55 2.95 5.2M24.2,13.3Q26.2 14.25 26.2 17.1L26.2 18.75L26 23.5Q25.85 24.8 23.7 25.25L20.65 25.45L11.5 25.4L4.1 25.25Q0.85 25.1 0.4 21.5L0.35 21.15Q-0.05 17.25 0 11.2L0.1 6.15L0.2 3.2Q0.3 1.25 1.9 0.65Q3.45 0.05 8.55 0Q13.65 0 14.35 0.55Q15 1.15 14.85 4.15Q14.65 7.15 15.75 9.9Q16.85 12.8 21.7 12.8Q23.2 12.8 24.2 13.3" />
<path style="fill:#AEAEB0;fill-opacity:1" d="M4.65,5.05L5.7 5.1L5.95 5.9Q7.35 5.3 8.35 5.35L8.25 5.9Q8.25 7.3 9.3 8.55Q10.25 9.65 11.35 9.8L11.55 11.15L12.5 14Q11.45 14.25 11.25 15.35Q11.1 16.45 12.05 16.45L14.1 16.25L14.65 16.4L15.4 16.55L17.8 16.9L17.7 17.55Q17.75 19.05 19.35 18.65L21.35 17.9Q22.3 18.45 22.65 19.15L23.1 20.25L15.65 20Q16.85 19.45 13.75 17.95Q12.9 18.1 12.55 18.85Q12.3 19.45 12.45 19.85L11.4 19.8Q11.5 20.35 9.35 21.05Q7.9 21.5 7.95 20Q7.3 19.75 8 18.95L8.25 18.75Q7.8 18.25 5.85 17.8L5.6 17.9Q5.1 16.65 4.95 14.45L4.25 14.5Q3.4 14.5 3.45 13.45Q3.55 12.25 4.7 12.1Q4.2 9.05 2.9 7.65L2.95 5.3L4.65 5.05M6.4,13.9L6.7 14.15Q10.2 14.95 7.25 12.75Q6.75 12.75 6.5 13.3L6.4 13.6L6.4 13.9" />
<path style="fill:#8B8B8C;fill-opacity:1" d="M4.7,12.1Q3.55 12.25 3.45 13.45Q3.4 14.5 4.25 14.5L4.95 14.45Q5.1 16.65 5.6 17.9L5.85 17.8Q7.8 18.25 8.25 18.75L8 18.95Q7.3 19.75 7.95 20Q7.9 21.5 9.35 21.05Q11.5 20.35 11.4 19.8L12.45 19.85Q12.3 19.45 12.55 18.85Q12.9 18.1 13.75 17.95Q16.85 19.45 15.65 20L23.1 20.25L23.55 21.85Q23.3 22.8 22.9 22.85L6.2 22.65Q3.9 22.35 3.35 20.75L3.3 20.55Q2.8 18.75 2.85 13.25L2.9 7.65Q4.2 9.05 4.7 12.1M6.4,13.6L6.5 13.3Q6.75 12.75 7.25 12.75Q10.2 14.95 6.7 14.15L6.4 13.9L6.4 13.6" />
</g>
</svg>
