<?xml version="1.0" encoding="utf-8"?>
<svg version="1.1" id="Layer_1"
xmlns="http://www.w3.org/2000/svg"
xmlns:xlink="http://www.w3.org/1999/xlink"
xmlns:author="http://www.sothink.com"
width="88px" height="45px"
xml:space="preserve">
<g id="31" transform="matrix(1, 0, 0, 1, -0.9, 0)">
<linearGradient
id="LinearGradID_7" gradientUnits="userSpaceOnUse" gradientTransform="matrix(-0.0247345, -0.0114288, 0.008255, -0.017868, 36.1, 24.25)" spreadMethod ="pad" x1="-819.2" y1="0" x2="819.2" y2="0" >
<stop  offset="0" style="stop-color:#F8F8F8;stop-opacity:0.2" />
<stop  offset="1" style="stop-color:#FFFFFF;stop-opacity:0.701961" />
</linearGradient>
<path style="fill:url(#LinearGradID_7) " d="M52.35,30.05Q61.2 36.1 73.7 38.1L74.2 38.15L70.45 39.9Q79.25 41.95 88.5 42.25Q82.05 44.2 77.85 44.7L75.15 44.75Q47.65 45.05 25.65 36.9L24.55 36.45L22.85 35.75Q13.55 32 6.1 27.25Q0.85 23.7 0.9 21.9L19.55 0L20.8 0Q24.7 0.3 27.45 4.2Q29.15 6.55 29.95 10.1Q28.4 19.5 39.4 26.35Q43.2 28.65 45.75 29.05L49.15 29.55Q48.55 28.3 48.3 26.45L50.1 28.15L52.35 30.05" />
</g>
</svg>
