<?xml version="1.0" encoding="utf-8"?>
<svg version="1.1" id="Layer_1"
xmlns="http://www.w3.org/2000/svg"
xmlns:xlink="http://www.w3.org/1999/xlink"
xmlns:author="http://www.sothink.com"
width="180px" height="60px"
xml:space="preserve">
<g id="763" transform="matrix(1, 0, 0, 1, -11, 6.75)">
<path style="fill:#7E230B;fill-opacity:1" d="M21.9,-6.75L179.7 -6.75Q183.55 -6.75 186 -5.45Q190.65 -2.9 190.65 4.2L190.65 42.2Q190.45 52.6 179.7 52.6L21.9 52.6Q11.25 52.6 11 42.2L11 41.75L11 4.2Q11 -2.9 15.6 -5.45Q18.1 -6.75 21.9 -6.75M23.15,-4.15Q14 -4.15 14 4.85L14 41.1L14 41.5Q14.25 50.05 23.15 50.05L178.6 50.05Q187.45 49.95 187.7 41.5L187.7 4.85Q187.7 -4.15 178.5 -4.15L23.15 -4.15" />
<linearGradient
id="LinearGradID_926" gradientUnits="userSpaceOnUse" gradientTransform="matrix(0, 0.0229492, -0.102386, 0, 100.9, 22.4)" spreadMethod ="pad" x1="-819.2" y1="0" x2="819.2" y2="0" >
<stop  offset="0" style="stop-color:#F6E255;stop-opacity:1" />
<stop  offset="1" style="stop-color:#D19B27;stop-opacity:1" />
</linearGradient>
<path style="fill:url(#LinearGradID_926) " d="M178.85,-1.1Q184.55 0.4 184.75 7.1L184.75 7.5L184.75 38.75L184.75 41.85Q184.7 43.1 183.2 44.95Q181.75 46.75 178.5 46.95L26.5 47.15Q18.8 47.15 17.35 41.5L17.15 40.45L17 38.75L17 7.5L17 7.1Q17.25 -1.25 26.5 -1.25L178.35 -1.25L178.85 -1.1" />
<linearGradient
id="LinearGradID_927" gradientUnits="userSpaceOnUse" gradientTransform="matrix(0.00556946, 0.0383759, -0.107483, 0.0156097, 101.55, 25.4)" spreadMethod ="pad" x1="-819.2" y1="0" x2="819.2" y2="0" >
<stop  offset="0.00392157" style="stop-color:#FFF3CD;stop-opacity:1" />
<stop  offset="0.423529" style="stop-color:#ECBB59;stop-opacity:1" />
<stop  offset="1" style="stop-color:#B85A12;stop-opacity:1" />
</linearGradient>
<path style="fill:url(#LinearGradID_927) " d="M178.35,-1.25L26.5 -1.25Q17.25 -1.25 17 7.1L17 7.5L17 38.75L17.15 40.45L17.35 41.5Q18.8 47.15 26.5 47.15L178.5 46.95Q181.75 46.75 183.2 44.95Q184.7 43.1 184.75 41.85L184.75 38.75L184.75 7.5L184.75 7.1Q184.55 0.4 178.85 -1.1L178.35 -1.25M178.5,-4.15Q187.7 -4.15 187.7 4.85L187.7 41.5Q187.45 49.95 178.6 50.05L23.15 50.05Q14.25 50.05 14 41.5L14 41.1L14 4.85Q14 -4.15 23.15 -4.15L178.5 -4.15" />
</g>
</svg>
