<?xml version="1.0" encoding="utf-8"?>
<svg version="1.1" id="Layer_1"
xmlns="http://www.w3.org/2000/svg"
xmlns:xlink="http://www.w3.org/1999/xlink"
xmlns:author="http://www.sothink.com"
width="54px" height="65px"
xml:space="preserve">
<g id="731" transform="matrix(1, 0, 0, 1, 8.95, 8.55)">
<path style="fill:#FFF1D7;fill-opacity:1" d="M18,-8.55Q21.3 -8.55 24 -7.05Q25.45 -6.2 26.75 -4.9Q30.4 -1.3 30.4 3.9Q30.4 8.9 26.75 12.55Q23.1 16.2 18 16.2Q12.9 16.2 9.25 12.55Q5.7 8.9 5.7 3.8Q5.7 -1.3 9.25 -4.9L12.05 -7.05Q14.7 -8.55 18 -8.55M42.65,43.6L22.75 54.45Q18 57.5 12.95 54.4L-6.9 43.6L-8.35 42.55Q-9 41.85 -8.8 39.25L-8.95 35.25Q-8.85 33.85 -7.95 33Q-7.1 32.15 -4.1 30.65Q-2.05 29.6 6.45 25.9L8 25.2L14.9 22.25L15.1 19.95Q15.25 18.55 15.55 18.5Q16.4 17.75 17.8 17.65L17.9 17.65L17.95 17.65Q19.4 17.75 20.2 18.5Q20.5 18.55 20.65 19.95L20.85 22.25Q24.7 23.85 27.75 25.2L29.25 25.9Q37.8 29.6 39.85 30.65Q42.8 32.15 43.7 33Q44.6 33.85 44.65 35.25L44.55 39.25Q44.7 41.85 44.1 42.55Q43.5 43.3 42.65 43.6M14.35,27.45L14.5 24.9L-2.95 33Q-5.4 34.3 -4.9 35.55L-3.95 36.6L16.55 47.75Q18.2 48.4 19.2 47.75L39.7 36.6L40.65 35.55Q41.15 34.3 38.7 33L21.25 24.9L21.35 27.45Q22.4 27.8 23.6 28.55Q26.1 30.1 26.2 32.15Q26.4 33.3 26.25 34.95Q26.15 36.65 25.05 37.7Q24 38.7 22.45 39.35L18.25 40.05L18 40.05Q14.75 39.95 13.3 39.35Q11.75 38.7 10.65 37.7Q9.6 36.65 9.5 34.95Q9.35 33.3 9.55 32.15Q9.65 30.1 12.15 28.55L14.35 27.45M14.15,29.3L14.05 29.35L14 29.35Q12.25 30.3 12.25 31.6Q12.25 32.95 14 33.85Q15.55 34.7 17.8 34.75L17.95 34.75Q20.2 34.6 21.75 33.85Q23.5 32.95 23.5 31.6Q23.5 30.3 21.75 29.35L21.7 29.35L21.6 29.3L21.7 30.7Q21.7 31.25 20.5 31.95Q19.4 32.45 17.95 32.55L17.9 32.55L17.8 32.55Q16.35 32.45 15.25 31.95Q14.05 31.25 14.05 30.7L14.15 29.3" />
</g>
</svg>
