<?xml version="1.0" encoding="utf-8"?>
<svg version="1.1" id="Layer_1"
xmlns="http://www.w3.org/2000/svg"
xmlns:xlink="http://www.w3.org/1999/xlink"
xmlns:author="http://www.sothink.com"
width="246px" height="56px"
xml:space="preserve">
<g id="959" transform="matrix(1, 0, 0, 1, 3.55, 0.2)">
<path style="fill:#B6924E;fill-opacity:1" d="M226.6,42.4L226.85 42.35Q230 44.25 226.6 43.7L226.2 43.6Q225.65 43.6 226.1 42.85Q226.25 42.45 226.6 42.4M13.75,45.3Q12.7 45.5 12.7 44.25Q12.55 43.05 13.75 42.85Q18.5 44.15 13.75 45.3M36.1,42.95Q40.8 45.9 35.2 44.75Q34.55 44.65 35.05 43.7Q35.4 43 36.1 42.95" />
<path style="fill:#FAD6AC;fill-opacity:1" d="M4.25,14.45L10.15 6.8L229.65 6.8L234.9 13.7L234.9 15.65L234.2 15.05L234.2 14.95Q229 10.15 227.2 9.7L226.6 9.6L223.25 9.4L221.75 9.45L219.65 9.5L219.1 9.5L216.8 9.5L215.75 9.5L211.45 9.5L206.8 9.5L185.95 9.55L184.9 9.55L182.95 9.55L181.3 9.55L178.85 9.55L174.8 9.55L162.45 9.55L156 9.55L108.1 9.55L77.9 9.55L73.5 9.55L18.2 9.65L16.3 9.7L11.1 10.2Q9.95 10.6 8 12.65L4.95 15.45L4.25 16.2L4.25 14.45" />
<path style="fill:#C4A05B;fill-opacity:1" d="M234.9,26.15Q234.65 26.8 234.7 27.9L234.6 30.2L234.35 32.35L233.35 35.95L231.65 37.9Q229.2 40.75 227.8 40.95L226.6 41.05L223.25 41.25L223.05 41.25L222 41.3Q223.75 42.4 220.15 42.9L219.65 42.9L219.65 42.45L219.1 42.45L218.45 42.35L216.8 42.05L216.8 41.95L216.35 41.95L215.75 41.95L211.45 42L209.4 42L206.8 42L185.95 41.95L181.3 41.95L178.85 41.95L166.7 41.95L162.45 41.95L156 41.95L108.1 41.85L84.85 41.8L77.9 41.8L73.5 41.75L70.1 41.7Q70.95 42.65 66.6 42.35Q65.8 42.3 65.65 41.65L57.3 41.55Q57.35 42.45 54.2 43.2Q52.65 43.65 51.3 42.45L50.7 41.5L48.7 41.5Q48.45 40.7 45.9 39.6Q45.35 39.65 44.9 40.15L44.65 40.55Q44.6 41 44.7 41.45L18.2 41.35L17.6 41.3Q15.3 39.25 11.05 39.85Q8.85 38.85 7 37.65L4.85 36.1L4.85 36.05L4.7 35.95L4.05 35L4.25 16.2L4.95 15.45L8 12.65Q9.95 10.6 11.1 10.2L16.3 9.7L18.2 9.65L73.5 9.55L77.9 9.55L108.1 9.55L156 9.55L162.45 9.55L174.8 9.55L178.85 9.55L181.3 9.55L182.95 9.55L184.9 9.55L185.95 9.55L206.8 9.5L211.45 9.5L215.75 9.5L216.8 9.5L219.1 9.5L219.65 9.5L221.75 9.45L223.25 9.4L226.6 9.6L227.2 9.7Q229 10.15 234.2 14.95L234.2 15.05L234.9 15.65L234.9 26.15M224.45,18.6L223.5 18.9L223.5 18.95L223.25 18.8L223.05 18.6Q222.05 18.75 221.95 19.6Q221.75 20.35 222.2 20.4L223.25 20.55L225.05 20.35Q225.55 20.35 224.45 18.6M211.45,22.4L215.75 22.25L216.8 22.2L216.8 22.1Q222.4 21.5 220.85 21.15L216.8 20.7L216.8 20.65L215.75 20.65L213.1 20.6L211.45 20.6L209.4 20.6L206.8 20.6L185.95 20.7L184.25 20.7L181.3 20.7L178.85 20.7L178.85 20.75L172.85 20.75L162.45 20.75L156 20.75L108.1 20.8L77.9 20.9L73.5 20.95L67.6 21.1Q49.6 21.7 64.5 22.4L73.5 22.7L77.9 22.75L108.1 22.75L156 22.75L162.45 22.75L174.8 22.75L178.85 22.75L181.3 22.75L182.8 22.75L184.7 22.75L185.95 22.75L206.8 22.6L211.45 22.55L211.45 22.4M226.6,36.15L227.7 35.95Q229.65 34.25 226.7 30.2L226.6 30.2Q226.25 30.35 225.8 30.95Q224.9 32.7 225.05 35.8L225.05 35.95L225.4 36.25L226.6 36.15M191.15,36.1Q210.8 38.25 199.8 35.95L196.15 33.75L194 34.05Q189 35 190.25 35.95L191.15 36.1M52.65,15.25L18.2 15.3L9.8 16Q8.45 16.65 18.75 16.8Q28.95 16.9 45.9 16.3Q62.8 15.65 52.65 15.25M13.15,28.95Q12.35 28.95 12.25 31.6Q12.25 35.45 13.4 35Q17.85 33.3 13.15 28.95M33.3,37.1Q38.35 37.5 35.35 35.95L33.75 33.75L33.4 34.05L33 34.7L32.55 35.8L32.55 35.95Q32.15 37.05 33.3 37.1" />
<path style="fill:#AF8941;fill-opacity:1" d="M234.85,41L228.8 48.05L9.5 48L4 40.85L4.05 35L4.7 35.95L4.85 36.05L4.85 36.1L7 37.65Q8.85 38.85 11.05 39.85Q15.3 39.25 17.6 41.3L18.2 41.35L44.7 41.45Q44.6 41 44.65 40.55L44.9 40.15Q45.35 39.65 45.9 39.6Q48.45 40.7 48.7 41.5L50.7 41.5L51.3 42.45Q52.65 43.65 54.2 43.2Q57.35 42.45 57.3 41.55L65.65 41.65Q65.8 42.3 66.6 42.35Q70.95 42.65 70.1 41.7L73.5 41.75L77.9 41.8L84.85 41.8L108.1 41.85L156 41.95L162.45 41.95L166.7 41.95L178.85 41.95L181.3 41.95L185.95 41.95L206.8 42L209.4 42L211.45 42L215.75 41.95L216.35 41.95L216.8 41.95L216.8 42.05L218.45 42.35L219.1 42.45L219.65 42.45L219.65 42.9L220.15 42.9Q223.75 42.4 222 41.3L223.05 41.25L223.25 41.25L226.6 41.05L227.8 40.95Q229.2 40.75 231.65 37.9L233.35 35.95L234.35 32.35L234.6 30.2L234.7 27.9Q234.65 26.8 234.9 26.15L234.85 41M225.05,20.35L223.25 20.55L222.2 20.4Q221.75 20.35 221.95 19.6Q222.05 18.75 223.05 18.6L223.25 18.8L223.5 18.95L223.5 18.9L224.45 18.6Q225.55 20.35 225.05 20.35M211.45,22.55L206.8 22.6L185.95 22.75L184.7 22.75L182.8 22.75L181.3 22.75L178.85 22.75L174.8 22.75L162.45 22.75L156 22.75L108.1 22.75L77.9 22.75L73.5 22.7L64.5 22.4Q49.6 21.7 67.6 21.1L73.5 20.95L77.9 20.9L108.1 20.8L156 20.75L162.45 20.75L172.85 20.75L178.85 20.75L178.85 20.7L181.3 20.7L184.25 20.7L185.95 20.7L206.8 20.6L209.4 20.6L211.45 20.6L213.1 20.6L215.75 20.65L216.8 20.65L216.8 20.7L220.85 21.15Q222.4 21.5 216.8 22.1L216.8 22.2L215.75 22.25L211.45 22.4L211.45 22.55M225.4,36.25L225.05 35.95L225.05 35.8Q224.9 32.7 225.8 30.95Q226.25 30.35 226.6 30.2L226.7 30.2Q229.65 34.25 227.7 35.95L226.6 36.15L225.4 36.25M226.1,42.85Q225.65 43.6 226.2 43.6L226.6 43.7Q230 44.25 226.85 42.35L226.6 42.4Q226.25 42.45 226.1 42.85M190.25,35.95Q189 35 194 34.05L196.15 33.75L199.8 35.95Q210.8 38.25 191.15 36.1L190.25 35.95M45.9,16.3Q28.95 16.9 18.75 16.8Q8.45 16.65 9.8 16L18.2 15.3L52.65 15.25Q62.8 15.65 45.9 16.3M13.4,35Q12.25 35.45 12.25 31.6Q12.35 28.95 13.15 28.95Q17.85 33.3 13.4 35M13.75,42.85Q12.55 43.05 12.7 44.25Q12.7 45.5 13.75 45.3Q18.5 44.15 13.75 42.85M32.55,35.95L32.55 35.8L33 34.7L33.4 34.05L33.75 33.75L35.35 35.95Q38.35 37.5 33.3 37.1Q32.15 37.05 32.55 35.95M35.05,43.7Q34.55 44.65 35.2 44.75Q40.8 45.9 36.1 42.95Q35.4 43 35.05 43.7" />
<path style="fill:#E0E0E0;fill-opacity:1" d="M238.45,11.1L237.25 10.25L230.55 2.9Q229.8 2.7 229.15 2L231.8 2.25Q232.35 2.4 233.9 4.15L237.5 8.15Q239.5 10.35 239.8 11.2L239.8 12.55Q239.45 11.85 238.45 11.1M-0.7,11.8Q1.6 8.35 3.6 5.85L6.75 1.95L6.85 1.95Q7.5 2.4 7.5 2.85Q7.65 3.3 7.45 3.6L1.2 11.7Q0.2 12.8 -0.7 11.8M9.2,49.85L21.05 49.85L73.5 49.9L74.1 49.9L77.9 49.9L156 49.9L162.45 49.9L178.85 49.9L181.3 49.9L185.95 49.9L202.15 49.9L208.35 49.9L209.4 49.9L215.75 49.9L216.8 49.9L225.8 49.9L226.6 49.9L228.15 49.9L228.15 49.85L228.9 49.85Q230.05 50.45 228.85 50.95L228.15 50.95L228.15 51L16.75 51L14.45 51.1L11.05 51Q9.2 50.95 9.2 50.05L9.2 49.85" />
<path style="fill:#989898;fill-opacity:1" d="M1.2,11.7L7.45 3.6Q7.65 3.3 7.5 2.85Q7.5 2.4 6.85 1.95L21.05 2.05L73.5 2.05L74.1 2.05L77.9 2.05L156 2.05L162.45 2.05L178.85 2.05L181.3 2.05L185.95 2.05L202.15 2.05L208.35 2.05L209.4 2.05L215.75 2.05L216.8 2.05L225.8 2.05L226.6 2.05L228.15 2.05L228.15 2L229.15 2Q229.8 2.7 230.55 2.9L237.25 10.25L238.45 11.1Q239.45 11.85 239.8 12.55L239.8 12.85L239.8 14.35L239.35 16.35L238.95 39.3L238.75 39.3L238.6 42.3L230.8 51.3L228.15 51.35L228.15 51.4L7 51.6L-1.1 41.5L-1.05 39.3L-1 39.3L-0.95 12.1L-0.7 11.8Q0.2 12.8 1.2 11.7M9.2,50.05Q9.2 50.95 11.05 51L14.45 51.1L16.75 51L228.15 51L228.15 50.95L228.85 50.95Q230.05 50.45 228.9 49.85L229.2 49.85L230.3 48.8L236.55 41.25L236.55 39.3L236.6 39.3L236.6 36.5L236.6 36.45L236.6 32.05L236.6 26.4L236.6 18.9L236.6 18.2L236.6 16.4L236.6 15.1L237.05 11.5L230.9 3.9L228.15 3.9L228.15 3.95L8.4 3.8L1.55 12.35L2.25 15.45L2.25 18.9L2.2 26.4L2.2 32.05L2.2 36.45L2.2 36.5L2.2 39.3L2.1 39.3L2.05 41.65L8.4 49.5L8.65 49.85L9.2 49.85L9.2 50.05" />
<path style="fill:#333333;fill-opacity:1" d="M232.95,-0.05L241.75 9.7L242.1 18.9L242.15 26.4L242.15 32.05L242.2 32.05L242.2 36.45L242.2 36.5L242.2 37.9L242.2 39.3L242.2 43.5L234.75 52.7Q233.4 54.3 231.9 55.05L5.4 54.85Q-1.5 47.3 -3.4 43.4L-3.5 39.3L-3.55 39.3L-3.55 37.25L-3.55 36.45L-3.55 32.05L-3.55 26.4L-3.45 18.9L-3.1 11.35L5.85 -0.2L225.8 0L225.8 -0.05L232.95 -0.05M228.15,2L228.15 2.05L226.6 2.05L225.8 2.05L216.8 2.05L215.75 2.05L209.4 2.05L208.35 2.05L202.15 2.05L185.95 2.05L181.3 2.05L178.85 2.05L162.45 2.05L156 2.05L77.9 2.05L74.1 2.05L73.5 2.05L21.05 2.05L6.85 1.95L6.75 1.95L3.6 5.85Q1.6 8.35 -0.7 11.8L-0.95 12.1L-1 39.3L-1.05 39.3L-1.1 41.5L-1.1 43.1Q1.2 47.05 3.45 49.85L6.3 53L211.1 53.2L215.75 53.25L216.8 53.25L225.8 53.3L226.6 53.3L228.15 53.3L228.15 53.25L230.8 53.1Q231.6 53 232.7 52.2L236.1 48.4L239.75 43.55L239.8 39.3L239.8 37.9L239.8 36.45L239.8 32.05L239.8 26.4L239.8 18.9L239.8 14.35L239.8 12.85L239.8 12.55L239.8 11.2Q239.5 10.35 237.5 8.15L233.9 4.15Q232.35 2.4 231.8 2.25L229.15 2L228.15 2M236.6,16.4L236.6 18.2L236.6 18.9L236.6 26.4L236.6 32.05L236.6 36.45L236.6 36.5L236.6 39.3L236.55 39.3L236.55 41.25L230.3 48.8L229.2 49.85L228.9 49.85L228.15 49.85L228.15 49.9L226.6 49.9L225.8 49.9L216.8 49.9L215.75 49.9L209.4 49.9L208.35 49.9L202.15 49.9L185.95 49.9L181.3 49.9L178.85 49.9L162.45 49.9L156 49.9L77.9 49.9L74.1 49.9L73.5 49.9L21.05 49.85L9.2 49.85L8.65 49.85L8.4 49.5L2.05 41.65L2.1 39.3L2.2 39.3L2.2 36.5L2.2 36.45L2.2 32.05L2.2 26.4L2.25 18.9L2.25 15.45L2.25 13.75Q8.25 5.75 9.35 4.95L21.05 5.05L73.5 5.1L74.1 5.1L77.9 5.1L156 5.1L162.45 5.1L178.85 5.1L181.3 5.1L185.95 5.1L202.15 5.1L208.35 5.1L209.4 5.1L215.75 5.1L216.8 5.1L225.8 5.1L226.6 5.1L228.15 5.1L228.15 5.05L229.9 5.05L236.6 13.45L236.6 15.1L236.6 16.4M228.15,6.75L228.15 6.8L10.15 6.8L4.25 14.45L4.1 39.3L4.05 39.3L4 40.4L9.5 47.55L225.8 47.6L225.8 47.55L228.3 47.55L234.35 40.5L234.35 36.5L234.4 36.5L234.4 36.45L234.35 36.45L234.4 13.65L229.15 6.75L228.15 6.75" />
<path style="fill:#707070;fill-opacity:1" d="M239.8,14.35L239.8 18.9L239.8 26.4L239.8 32.05L239.8 36.45L239.8 37.9L239.8 39.3L239.75 43.55L236.1 48.4L232.7 52.2Q231.6 53 230.8 53.1L228.15 53.25L228.15 53.3L226.6 53.3L225.8 53.3L216.8 53.25L215.75 53.25L211.1 53.2L6.3 53L3.45 49.85Q1.2 47.05 -1.1 43.1L-1.1 41.5L7 51.6L228.15 51.4L228.15 51.35L230.8 51.3L238.6 42.3L238.75 39.3L238.95 39.3L239.35 16.35L239.8 14.35M1.55,12.35L8.4 3.8L228.15 3.95L228.15 3.9L230.9 3.9L237.05 11.5L236.6 15.1L236.6 13.45L229.9 5.05L228.15 5.05L228.15 5.1L226.6 5.1L225.8 5.1L216.8 5.1L215.75 5.1L209.4 5.1L208.35 5.1L202.15 5.1L185.95 5.1L181.3 5.1L178.85 5.1L162.45 5.1L156 5.1L77.9 5.1L74.1 5.1L73.5 5.1L21.05 5.05L9.35 4.95Q8.25 5.75 2.25 13.75L2.25 15.45L1.55 12.35" />
</g>
</svg>
