<?xml version="1.0" encoding="utf-8"?>
<svg version="1.1" id="Layer_1"
xmlns="http://www.w3.org/2000/svg"
xmlns:xlink="http://www.w3.org/1999/xlink"
xmlns:author="http://www.sothink.com"
width="47px" height="34px"
xml:space="preserve">
<g id="663" transform="matrix(1, 0, 0, 1, 14.6, 8.25)">
<path style="fill:#3F3437;fill-opacity:1" d="M22.55,0.1L21.55 -0.05Q21.4 -0.4 21.65 -0.8L22.2 -2.35L22.5 -2.85L23.1 -3.7L24.1 -4.45Q24.7 -5.25 25.6 -5.65Q24.3 -4.3 23.8 -2.6L23.75 -1.65L23.8 -0.3L22.55 0.1M27.65,-0.6L26.7 -0.25L25.85 0.25L25.05 0.95L24.85 1.05L24.45 1.05L24.3 0.75Q24.05 0.55 24.1 0.2L24.35 0.05Q24.85 -0.65 25.95 -0.95L28.85 -0.8L27.65 -0.6M26.6,9.35L25.3 9.25L24.7 8.75Q24.4 8.55 24.55 8.35L24.5 8.1Q26.85 8 28.25 9.6L28.15 9.6L26.6 9.35M25.2,5.55L24.2 5.45Q24.05 5.1 24.25 4.55L24.4 4.15L24.75 3.65L25.15 3.9L27.4 4.3L27.65 4.25L27.9 4.3L27.65 4.35L27.35 4.65Q27.1 4.75 26.95 5L26.85 5.05L26.7 5.15L26.5 5.35L25.2 5.55M21.25,5.4Q22.35 5.8 22.9 6.7L23 7.05L22.95 7.25L21.15 7L20.35 7.05Q20.05 7.1 19.7 7.3L19.7 7.1Q19.3 6.4 19.6 5.6L19.65 5.2L20.35 5.15L21.25 5.4M23.05,10.8L22.9 11.8Q22.9 12.65 22.3 13.5L22.25 12.65L21.45 10.85L21.2 10.4L20.6 9.75L20.9 9.7L21.8 9.6L22.35 9.65L22.95 9.8L23.05 10.8" />
<path style="fill:#695F62;fill-opacity:1" d="M24.8,3.65L25.65 2.9Q26.5 3.9 29.95 3.5L29.8 3.65L28.45 4.5L27.4 5L26.5 5.35L26.7 5.15L26.85 5.05L26.95 5Q27.1 4.75 27.35 4.65L27.65 4.35L27.9 4.3L27.65 4.25L27.4 4.3L25.15 3.9L24.75 3.65L24.8 3.65M22.3,13.6L22.3 13.5Q22.9 12.65 22.9 11.8L23.05 10.8L22.95 9.8L23.3 9.85L23.35 11.75L22.9 13.65L22.3 14.6L22.3 13.6" />
<path style="fill:#1E1415;fill-opacity:1" d="M22.3,14.6L21.65 15.3Q21.65 12.75 20.25 11.3L19.5 10.5L17.45 8.95Q16 8.2 14.15 8.05L12.75 8L10.75 8.3Q9.05 8.7 7.65 9.8L7.55 9.95L8.45 -5.5L8.6 -5.65Q9 -2.7 11.6 -2.2Q12.8 -2.55 13.65 -4.3Q14.45 -6.8 13.95 -7.3Q17 -6.55 17.45 -4.7Q17.8 -2.85 18.35 -3.35L18.7 -3.45Q22.1 -6.2 25.75 -5.85L25.6 -5.65Q24.7 -5.25 24.1 -4.45L23.1 -3.7L22.5 -2.85L22.2 -2.35L21.65 -0.8Q21.4 -0.4 21.55 -0.05L22.55 0.1L23.8 -0.3Q23.9 0.2 24.1 0.2Q24.05 0.55 24.3 0.75L24.45 1.05L24.85 1.05L25.05 0.95L25.85 0.25L26.7 -0.25L27.65 -0.6L28.85 -0.8L28.95 -0.75Q27.15 0.3 26.65 1.35Q26 2.3 25.5 1.55Q25.15 2.45 25.65 2.9L24.8 3.65L24.75 3.65L24.4 4.15L24.25 4.55Q24.05 5.1 24.2 5.45L25.2 5.55L26.5 5.35L27.4 5L28.45 4.5L29.8 3.65Q28.25 5.55 26.05 6.9L26 6.9Q24.45 6.75 23.8 8L23.8 8.1L24.5 8.1L24.55 8.35Q24.4 8.55 24.7 8.75L25.3 9.25L26.6 9.35L28.15 9.6L25.3 10.2L24.65 10.4Q24.3 9.8 23.15 9.4L23.3 9.85L22.95 9.8L22.35 9.65L21.8 9.6L20.9 9.7L20.6 9.75L21.2 10.4L21.45 10.85L22.25 12.65L22.3 13.5L22.3 13.6L22.3 14.6M20.35,5.15L19.65 5.2L19.6 5.6Q19.3 6.4 19.7 7.1L19.7 7.3Q20.05 7.1 20.35 7.05L21.15 7L22.95 7.25L23 7.05L22.9 6.7Q22.35 5.8 21.25 5.4L20.35 5.15" />
<path style="fill:#101010;fill-opacity:1" d="M7.65,9.8Q9.05 8.7 10.75 8.3L12.75 8L14.15 8.05Q16 8.2 17.45 8.95L19.5 10.5L20.25 11.3Q21.65 12.75 21.65 15.3L22.3 14.6L22.9 13.65L23.35 11.75L23.3 9.85L23.15 9.4Q24.3 9.8 24.65 10.4L25.3 10.2L28.15 9.6L28.25 9.6Q26.85 8 24.5 8.1L23.8 8.1L23.8 8Q24.45 6.75 26 6.9L26.05 6.9Q28.25 5.55 29.8 3.65L29.95 3.5Q26.5 3.9 25.65 2.9Q25.15 2.45 25.5 1.55Q26 2.3 26.65 1.35Q27.15 0.3 28.95 -0.75L28.85 -0.8L25.95 -0.95Q24.85 -0.65 24.35 0.05L24.1 0.2Q23.9 0.2 23.8 -0.3L23.75 -1.65L23.8 -2.6Q24.3 -4.3 25.6 -5.65L25.75 -5.85Q22.1 -6.2 18.7 -3.45L18.35 -3.35Q17.8 -2.85 17.45 -4.7Q17 -6.55 13.95 -7.3Q14.45 -6.8 13.65 -4.3Q12.8 -2.55 11.6 -2.2Q9 -2.7 8.6 -5.65L8.45 -5.5L8.5 -6.65Q9.65 -7.2 9.65 -6Q10.2 -3.3 11.7 -3.4Q13.75 -5.3 12.4 -7.55L12.5 -7.65Q12.75 -8.05 13.2 -8.1L13.2 -8.05L13.6 -8.25L13.9 -8.25Q16 -8.35 17.55 -7.05Q18.95 -5.55 18.75 -4.45Q20.2 -6.6 24.95 -7.2L27.25 -6.9Q27.55 -6.85 27.6 -6.6Q27.95 -6.2 26.8 -5.45Q25.35 -4.25 25 -2.8L24.95 -1.7L27.2 -2.25L29.25 -2L30.75 -1.35Q31.2 -1.05 29.1 0.25Q26.95 2.2 27.3 2.35L30.3 2.65Q31.6 2.65 31.45 3.15L29.85 5.3Q28.45 6.9 27.4 7.2Q28.1 7.35 28.7 8.1L29.75 9.2Q30.1 10.05 29.45 10.2L26 10.95L24.6 11.45L24.35 12.55L23.55 14.75Q22.75 15.95 21.5 16.6L21.15 16.7Q20.8 16.7 20.7 16.25L20.4 14.15Q20.2 12.65 18.85 11.5Q17.45 10.15 16.55 9.85L14.75 9.25L12.6 9.05L12 9.05Q10.25 9.1 7.95 10.65L7.4 11.25L7.55 9.95L7.65 9.8M7.15,16.05L7.2 14.85Q7.8 15.55 7.35 15.95L7.15 16.05" />
<path style="fill:#252525;fill-opacity:1" d="M16.2,12.4L13.05 12.5L10.1 12.25L9.4 12L9.2 13.05L9 15.5L9.2 19.25L7.7 19.1Q2.9 18.5 2 16.95Q1.25 15.1 1.3 12.05Q1.35 8.95 2.25 6.95Q3.15 4.9 4.55 3.6Q5.9 2.25 9.95 1.3L13.55 1.2L15.95 1.8Q17.55 2.3 18.1 3.5Q18.65 4.65 18.5 5.35L17.95 7.45Q17.55 8.85 17.55 11.45L17.55 12.1L16.2 12.4M1.4,21.75Q0.3 19.5 1.7 18.25Q2 19.05 6.45 19.95L9.4 20.35L13.45 20.1Q16 19.35 17.2 18.4Q17.5 18.6 17.1 20.45Q16.65 22.25 13.95 23.3Q11.25 24.3 8.85 24.25Q6.45 24.15 4.35 23.5Q2.25 22.8 1.4 21.75" />
<path style="fill:#3A3838;fill-opacity:1" d="M9.2,19.25L9 15.5L9.2 13.05L9.4 12L10.1 12.25L13.05 12.5L16.2 12.4L17.55 12.1L17.3 15.7Q17 17.35 14.75 18.55Q12.85 19.5 9.2 19.25" />
<path style="fill:#000000;fill-opacity:1" d="M19.3,3.4Q20.2 5 19.4 7.55Q18.65 9.9 18.7 11.65L18.7 12.05L18.6 15.55Q18.35 17.15 17.9 17.75Q18.85 22 15.15 23.6Q11.45 25.2 8.1 25Q4.7 24.75 3.4 24.2Q2.1 23.65 1.2 22.95Q0.25 22.2 0.05 20.5Q-0.2 18.8 0.9 17.8Q-0.1 14.5 0.45 10.4Q0.95 6.3 1.95 4.65Q2.9 3 4.75 1.85Q6.6 0.65 9.2 0.3L12.3 0L12.65 0L14.4 0.2Q16.2 0.4 17.3 1.1Q18.4 1.75 19.3 3.4M14.75,18.55Q17 17.35 17.3 15.7L17.55 12.1L17.55 11.45Q17.55 8.85 17.95 7.45L18.5 5.35Q18.65 4.65 18.1 3.5Q17.55 2.3 15.95 1.8L13.55 1.2L9.95 1.3Q5.9 2.25 4.55 3.6Q3.15 4.9 2.25 6.95Q1.35 8.95 1.3 12.05Q1.25 15.1 2 16.95Q2.9 18.5 7.7 19.1L9.2 19.25Q12.85 19.5 14.75 18.55M4.35,23.5Q6.45 24.15 8.85 24.25Q11.25 24.3 13.95 23.3Q16.65 22.25 17.1 20.45Q17.5 18.6 17.2 18.4Q16 19.35 13.45 20.1L9.4 20.35L6.45 19.95Q2 19.05 1.7 18.25Q0.3 19.5 1.4 21.75Q2.25 22.8 4.35 23.5" />
<path style="fill:#000000;fill-opacity:1" d="M5.5,-2.25Q7.15 -0.6 7.3 0.9L7.4 1.35L7.35 1.45Q7.4 1.9 7.2 1.6Q7.1 2.05 6 2.05Q4.85 2.05 3.35 2.6Q1.8 3.1 0.95 4.9Q0.1 6.7 -1.4 7.95Q-2.9 9.2 -6.1 9.25Q-9.35 9.3 -12.35 6.7Q-15 4.45 -14.55 1.3L-14.5 1L-14.3 0.3Q-11.25 2.95 -7 -0.85Q-2.75 -4.7 0.55 -4.3Q3.85 -3.9 5.5 -2.25M-7.25,0.95Q-9.8 3.3 -13 2.8L-12.95 3.2Q-12.5 5.05 -9.85 6.65Q-7 8.4 -4.2 7.55Q-1.45 6.7 0.05 3.9Q1.55 1.1 3.85 0.75L6.4 0.4Q4.95 -1.4 3.1 -2.25Q1.2 -3.15 -1.75 -2.3L-4.05 -1.35Q-5.75 -0.5 -7.25 0.95" />
<path style="fill:#3A3838;fill-opacity:1" d="M-12.95,3.2L-13 2.8Q-9.8 3.3 -7.25 0.95Q-5.75 -0.5 -4.05 -1.35Q-2.6 -1 -1.55 0.35L-0.9 1.3Q-2.35 1.2 -3.2 2.45Q-4.8 4.8 -7.7 4.95Q-10.65 5.15 -12.85 3.25L-12.95 3.2" />
<path style="fill:#252525;fill-opacity:1" d="M-12.85,3.25Q-10.65 5.15 -7.7 4.95Q-4.8 4.8 -3.2 2.45Q-2.35 1.2 -0.9 1.3L-1.55 0.35Q-2.6 -1 -4.05 -1.35L-1.75 -2.3Q1.2 -3.15 3.1 -2.25Q4.95 -1.4 6.4 0.4L3.85 0.75Q1.55 1.1 0.05 3.9Q-1.45 6.7 -4.2 7.55Q-7 8.4 -9.85 6.65Q-12.5 5.05 -12.95 3.2L-12.85 3.25" />
<path style="fill:#251813;fill-opacity:1" d="M8.1,7.7Q5.35 5.15 4.6 3.15Q3.8 2.7 2.65 3.85Q2.6 4.3 2.9 4.8Q5.75 9.95 10.65 12.2L11.85 12.7Q14.2 13.55 16.95 13.8L17.55 13.85L17.75 13.8L18.3 13.2Q18.45 12.45 18 12.1L13.75 11.05L11.6 10.2L11.35 10.05Q9.7 9.15 8.1 7.7M17.2,14.9L13.4 14.2Q10.75 13.55 8.5 12.2Q6.2 10.8 4.9 9.25L2.6 6.25L1.9 4.8Q1.45 3.4 2.55 2.65Q3.6 1.85 4.9 1.8L4.95 1.8Q5.35 1.95 5.95 3.45Q6.5 4.9 9.1 7.15Q10.75 8.55 12.35 9.35L12.55 9.45L14.15 10.05L17.55 10.95Q18.5 11.1 19 11.55Q19.45 12 19.45 12.95Q19.4 13.9 18.9 14.4Q18.45 14.85 17.4 14.9L17.2 14.9M9.95,16.3L10.35 16.4L10.5 16.45L13.75 16.95L15.6 17L16.9 17.1L17.3 17.15Q18.05 17.3 18.15 18.25Q18.2 19.2 17.65 20Q17.05 20.8 12.95 20.85Q8.8 20.85 4.45 18.25Q0.1 15.6 -0.55 14.05Q-0.9 12.85 -0.5 11.65Q-0.1 10.45 0.75 11.05L4.8 13.8Q7.7 15.7 9.95 16.3M16.5,19.6L17 18.8Q17.05 18.25 16.55 18.05L10.9 17.8L10.7 17.75L9.3 17.4Q6.1 16.5 3.85 14.75L0.6 12.3Q0.1 12.1 0.3 13.65Q1.15 15.4 5.3 17.6Q7.8 18.9 10 19.45L12.75 19.8L16.4 19.6L16.5 19.6" />
<path style="fill:#513727;fill-opacity:1" d="M11.35,10.05L11.25 10.15Q10.6 10.85 10.6 11.7L10.65 12.2Q5.75 9.95 2.9 4.8Q2.6 4.3 2.65 3.85Q3.8 2.7 4.6 3.15Q5.35 5.15 8.1 7.7Q9.7 9.15 11.35 10.05M5.3,17.6Q1.15 15.4 0.3 13.65Q0.1 12.1 0.6 12.3L3.85 14.75Q6.1 16.5 9.3 17.4Q9.2 18.05 9.5 18.7L10 19.45Q7.8 18.9 5.3 17.6" />
<path style="fill:#644638;fill-opacity:1" d="M17.55,13.85L16.95 13.8Q14.2 13.55 11.85 12.7L10.65 12.2L10.6 11.7Q10.6 10.85 11.25 10.15L11.35 10.05L11.6 10.2L12.2 10.85L13.35 11.6L15.3 12.1Q16.6 12.3 16.95 12.55L17.55 13L17.75 13.8L17.55 13.85M10.7,17.75L10.9 17.8L11.65 18.2L13.45 18.75L15.4 18.85Q16.45 18.7 16.4 19.6L12.75 19.8L10 19.45L9.5 18.7Q9.2 18.05 9.3 17.4L10.7 17.75" />
<path style="fill:#8E6755;fill-opacity:1" d="M13.75,11.05L18 12.1Q18.45 12.45 18.3 13.2L17.75 13.8L17.55 13L16.95 12.55Q16.6 12.3 15.3 12.1L13.35 11.6L12.2 10.85L11.6 10.2L13.75 11.05M16.4,19.6Q16.45 18.7 15.4 18.85L13.45 18.75L11.65 18.2L10.9 17.8L16.55 18.05Q17.05 18.25 17 18.8L16.5 19.6L16.4 19.6" />
<path style="fill:#252525;fill-opacity:1" d="M2.6,6.25L4.9 9.25Q6.2 10.8 8.5 12.2Q10.75 13.55 13.4 14.2L17.2 14.9L17.4 14.9L17.3 15.85Q10.2 15.45 5.35 11.7Q2.9 9.8 1.85 8Q2.1 7 2.6 6.25" />
<path style="fill:#B6A998;fill-opacity:1" d="M14.05,13.1L14.25 13.1L14.55 13.15L14.95 13.15L15.35 12.8L15.55 12Q15.6 11.5 15.2 11.35L14.5 11.15Q14.4 10.75 14.75 10.2L16.1 10.65Q16.55 10.9 16.45 11.9L16.05 13.6L15.9 13.65L15.35 13.8L13.9 13.65Q13.8 13.1 14.05 13.1M16.35,11.45Q16.3 10.85 15.8 10.65Q14.85 11.55 16.25 11.65L16.35 11.45M12.85,19.5L13 19.5L13.35 19.55L13.7 19.5L14.05 19.2L14.2 18.45Q14.25 18.05 13.9 17.95L13.25 17.8Q13.05 17.45 13.4 16.95L14.65 17.3Q15.1 17.5 15.05 18.35L14.8 19.85L14.65 19.9L14.1 20.1L12.75 20.05Q12.6 19.55 12.85 19.5M14.95,17.95Q14.85 17.4 14.35 17.25Q13.55 18.1 14.85 18.2L14.95 17.95" />
<path style="fill:#F5F3EE;fill-opacity:1" d="M16.25,11.65Q14.85 11.55 15.8 10.65Q16.3 10.85 16.35 11.45L16.25 11.65M14.85,18.2Q13.55 18.1 14.35 17.25Q14.85 17.4 14.95 17.95L14.85 18.2" />
<path style="fill:#3A2F27;fill-opacity:1" d="M16.05,13.6L16.45 11.9Q16.55 10.9 16.1 10.65L14.75 10.2L14.45 10.15L14.35 10.1L14.4 10Q14.65 9.5 15.05 9.1L15.5 9.2L15.95 9.35L16.8 9.8L17.4 10.7Q17.6 11.25 17.3 12.65L17.1 13.45L16 13.65L16.05 13.6M14.6,12.4L14.75 12.45L14.85 12.05L13.9 11.85L14 11.1L14.3 11.15L14.5 11.15L15.2 11.35Q15.6 11.5 15.55 12L15.35 12.8L14.95 13.15L14.55 13.15L14.15 12.75L13.95 12.25L14.6 12.4M14.8,19.85L15.05 18.35Q15.1 17.5 14.65 17.3L13.4 16.95L13.1 16.95L13 16.9L13.05 16.85L13.6 16L14.05 16.1L14.45 16.2L15.25 16.6L15.85 17.25L15.9 17.75L15.95 18.95L15.75 19.7L14.75 19.9L14.8 19.85M13.35,18.9L13.45 18.9L13.6 18.55L12.7 18.45Q12.6 18.05 12.75 17.75L13.05 17.8L13.25 17.8L13.9 17.95Q14.25 18.05 14.2 18.45L14.05 19.2L13.7 19.5L13.35 19.55L12.9 19.2L12.75 18.8L13.35 18.9" />
<path style="fill:#837462;fill-opacity:1" d="M13.9,13.65L15.35 13.8L15.9 13.65L16.05 13.6L16 13.65Q15.7 14.45 14.6 14.3L13.95 14.2L12.65 13.85Q11.8 13.55 11.85 12.55L12.15 10.9Q12.4 10.25 12.85 10.05L14.35 10.1L14.45 10.15L14.75 10.2Q14.4 10.75 14.5 11.15L14.3 11.15L14 11.1L13.6 11.05Q13.3 11.05 13.05 11.95Q12.8 12.8 13.75 13L14.05 13.1Q13.8 13.1 13.9 13.65M12.75,20.05L14.1 20.1L14.65 19.9L14.8 19.85L14.75 19.9Q14.5 20.65 13.45 20.6L12.8 20.55L11.5 20.3Q10.7 20.05 10.7 19.15Q10.65 18.2 11 17.7Q11.15 17.1 11.55 16.9Q11.9 16.7 13 16.9L13.1 16.95L13.4 16.95Q13.05 17.45 13.25 17.8L13.05 17.8L12.75 17.75L12.35 17.75Q12.05 17.75 11.8 18.55Q11.65 19.3 12.55 19.5L12.85 19.5Q12.6 19.55 12.75 20.05" />
<path style="fill:#231912;fill-opacity:1" d="M14.4,10L14.35 10.1L12.85 10.05Q12.4 10.25 12.15 10.9L11.85 12.55Q11.8 13.55 12.65 13.85L13.95 14.2L14.6 14.3Q15.7 14.45 16 13.65L17.1 13.45L16.5 14.8Q16 15.6 13.5 15.05Q10.95 14.5 10.9 13.1Q10.8 11.7 11.2 10.55Q11.6 9.35 12.15 9L13.65 8.8L15.05 9.1Q14.65 9.5 14.4 10M13.9,11.85L13.7 11.8L13.65 12.2L13.95 12.25L14.15 12.75L14.55 13.15L14.25 13.1L14.05 13.1L13.75 13Q12.8 12.8 13.05 11.95Q13.3 11.05 13.6 11.05L14 11.1L13.9 11.85M13.05,16.85L13 16.9Q11.9 16.7 11.55 16.9Q11.15 17.1 11 17.7Q10.65 18.2 10.7 19.15Q10.7 20.05 11.5 20.3L12.8 20.55L13.45 20.6Q14.5 20.65 14.75 19.9L15.75 19.7L15.25 20.9Q15 21.35 14.1 21.45L12.4 21.4Q9.8 20.95 9.75 19.75L9.7 19.25Q9.65 18.25 10.05 17.45Q10.4 16.35 10.95 16.05L11.8 15.85L12.3 15.85L13.6 16L13.05 16.85M12.7,18.45L12.45 18.4L12.45 18.75L12.75 18.8L12.9 19.2L13.35 19.55L13 19.5L12.85 19.5L12.55 19.5Q11.65 19.3 11.8 18.55Q12.05 17.75 12.35 17.75L12.75 17.75Q12.6 18.05 12.7 18.45" />
</g>
</svg>
