<?xml version="1.0" encoding="utf-8"?>
<svg version="1.1" id="Layer_1"
xmlns="http://www.w3.org/2000/svg"
xmlns:xlink="http://www.w3.org/1999/xlink"
xmlns:author="http://www.sothink.com"
width="148px" height="93px"
xml:space="preserve">
<g id="954" transform="matrix(1, 0, 0, 1, 16.6, 17.3)">
<path style="fill:#F7E3CC;fill-opacity:1" d="M-16.6,-17.3L131.35 -17.3L131.35 62.1L40 62.1L40 62.15L22.7 62.15L9.75 74.75L9.65 62.15L-16.6 62.1L-16.6 51.55L-16.6 41.95L-16.6 41.2L-16.6 29.45L-16.6 24.4L-16.6 1.25L-16.6 -11.35L-16.6 -17.3" />
<path style="fill:#680B01;fill-opacity:1" d="M92.05,31.4L93.6 31.4L93.6 39.8L92.35 39.8L88.5 34.05L88.5 39.8L87 39.8L87 31.4L88.5 31.4L92.05 36.8L92.05 31.4M95.5,33.3Q96.05 32.3 97 31.75Q97.9 31.25 99.15 31.25L100.05 31.3L100.95 31.45L101.7 31.7L101.5 33.2L100.4 32.85L99.2 32.7Q98.3 32.7 97.75 33.1Q97.2 33.45 96.9 34.1Q96.65 34.75 96.65 35.55Q96.65 36.45 96.95 37.1L97.8 38.1Q98.4 38.5 99.25 38.5L99.8 38.45L100.4 38.35L100.4 36.85L99.5 36.85L99.5 35.6L101.95 35.6L101.95 39.35L101.15 39.65L100.1 39.9L99.1 39.95L99.05 39.95Q97.9 39.95 96.95 39.45Q96.05 38.9 95.5 37.9Q95 36.9 94.95 35.6Q95 34.25 95.5 33.3M85.1,31.4L85.1 39.8L83.6 39.8L83.6 31.4L85.1 31.4M83.8,45.25L90.05 45.25L90.05 46.75L87.7 46.75L87.7 53.65L86.15 53.65L86.15 46.75L83.8 46.75L83.8 45.25M82.65,45.25L82.65 53.65L81.4 53.65L77.55 47.9L77.55 53.65L76.05 53.65L76.05 45.25L77.55 45.25L81.1 50.65L81.1 45.25L82.65 45.25M90.7,47.6L90.85 46.75L91.4 45.9Q91.75 45.55 92.3 45.3L93.75 45.1L94.85 45.2L95.8 45.45L96.4 45.75L96.25 47.3Q95.6 46.95 95 46.75L93.8 46.55L93.1 46.6Q92.75 46.7 92.5 46.9Q92.3 47.1 92.25 47.45L92.5 48L93.1 48.35L93.95 48.65L94.95 49Q95.5 49.15 95.9 49.45L96.6 50.2L96.85 51.35L96.75 52.15L96.3 52.95Q95.95 53.35 95.3 53.55L93.6 53.8L91.9 53.65L90.85 53.2L91 51.45Q91.35 51.8 92.05 52.05L93.65 52.35L94.75 52.15Q95.15 51.95 95.15 51.45L94.85 50.75Q94.6 50.45 94.15 50.3L93.2 49.95L92 49.5L91.1 48.8Q90.7 48.35 90.7 47.6M102.15,44.65L101.9 51.25L100.9 51.25L100.65 44.65L102.15 44.65M102.15,53.65L100.65 53.65L100.65 52.15L102.15 52.15L102.15 53.65M62.1,13.75L62.7 14.05L62.55 15.6L61.3 15.05L60.1 14.85L59.4 14.9Q59.05 15 58.8 15.2Q58.6 15.4 58.55 15.75L58.8 16.3L59.4 16.65L60.25 16.95L61.25 17.3Q61.8 17.45 62.2 17.75L62.9 18.5L63.15 19.65L63.05 20.45L62.6 21.25Q62.25 21.65 61.6 21.85L59.9 22.1L58.2 21.95L57.15 21.5L57.3 19.75L58.35 20.35L59.95 20.65L61.05 20.45Q61.45 20.25 61.45 19.75L61.15 19.05L60.45 18.6L59.5 18.25L58.3 17.8L57.4 17.1Q57 16.65 57 15.9Q57 15.5 57.15 15.05L57.7 14.2Q58.05 13.85 58.6 13.6L60.05 13.4L61.15 13.5L62.1 13.75M50.3,17.85L50.45 19.25Q50.6 19.9 51.05 20.25Q51.45 20.65 52.25 20.65Q53.05 20.65 53.5 20.25L54.05 19.25L54.2 17.85L54.2 13.55L55.75 13.55L55.75 18.35Q55.75 19.5 55.35 20.35Q55 21.2 54.2 21.65Q53.45 22.1 52.25 22.1L50.3 21.65Q49.55 21.2 49.15 20.35Q48.8 19.5 48.8 18.35L48.8 13.55L50.3 13.55L50.3 17.85M45.75,21.95L41.9 16.2L41.9 21.95L40.4 21.95L40.4 13.55L41.9 13.55L45.45 18.95L45.45 13.55L47 13.55L47 21.95L45.75 21.95M59.75,33.3Q60.3 32.3 61.2 31.75Q62.15 31.25 63.35 31.25Q64.55 31.25 65.5 31.75Q66.45 32.3 66.95 33.3Q67.5 34.25 67.5 35.6Q67.5 36.95 66.95 37.9Q66.45 38.9 65.5 39.45L63.35 39.95Q62.15 39.95 61.2 39.45Q60.3 38.9 59.75 37.9Q59.25 36.95 59.2 35.6Q59.25 34.25 59.75 33.3M55.4,31.4L55.4 38.3L58.85 38.3L58.85 39.8L53.9 39.8L53.9 31.4L55.4 31.4M46.9,31.4L50.45 36.8L50.45 31.4L52 31.4L52 39.8L50.75 39.8L46.9 34.05L46.9 39.8L45.4 39.8L45.4 31.4L46.9 31.4M43.65,36.2Q43.65 37.35 43.25 38.2Q42.9 39.05 42.1 39.5L40.15 39.95L38.2 39.5Q37.45 39.05 37.05 38.2Q36.7 37.35 36.7 36.2L36.7 31.4L38.2 31.4L38.2 35.7Q38.2 36.45 38.35 37.1Q38.5 37.75 38.95 38.1Q39.35 38.5 40.15 38.5Q40.95 38.5 41.4 38.1L41.95 37.1L42.1 35.7L42.1 31.4L43.65 31.4L43.65 36.2M45.25,45.25L47.6 51.6L49.9 45.25L51.5 45.25L48.55 53.65L46.65 53.65L43.65 45.25L45.25 45.25M43.15,46.75L39.35 46.75L39.35 48.5L42.3 48.5L42.3 50L39.35 50L39.35 52.15L43.25 52.15L43.25 53.65L37.8 53.65L37.8 45.25L43.15 45.25L43.15 46.75M54.05,48.5L57 48.5L57 50L54.05 50L54.05 52.15L57.95 52.15L57.95 53.65L52.5 53.65L52.5 45.25L57.85 45.25L57.85 46.75L54.05 46.75L54.05 48.5M73.75,31.35L74.85 31.7L74.7 33.2L73.65 32.85L72.45 32.7Q71.65 32.7 71.1 33.1Q70.55 33.45 70.3 34.1Q70 34.75 70 35.6Q70 36.45 70.3 37.1Q70.55 37.75 71.1 38.1Q71.65 38.5 72.45 38.5L73.65 38.35L74.7 38L74.85 39.5L73.75 39.85L72.45 39.95Q71.25 39.95 70.3 39.45Q69.4 38.9 68.85 37.9Q68.35 36.95 68.3 35.6Q68.35 34.25 68.85 33.3Q69.4 32.3 70.3 31.75Q71.25 31.25 72.45 31.25L73.75 31.35M77.65,31.4L77.65 39.8L76.15 39.8L76.15 31.4L77.65 31.4M80.9,31.4L82.6 31.4L79.7 35.35L82.6 39.8L80.9 39.8L77.95 35.35L80.9 31.4M63.35,32.7L62 33.1Q61.45 33.45 61.2 34.1Q60.9 34.75 60.9 35.6Q60.9 36.45 61.2 37.1Q61.45 37.75 62 38.1Q62.55 38.5 63.35 38.5Q64.2 38.5 64.7 38.1L65.55 37.1L65.8 35.6L65.55 34.1L64.7 33.1Q64.2 32.7 63.35 32.7M63.35,49.05L65.4 45.25L66.65 45.25L67.8 53.65L66.2 53.65L65.5 48L63.35 51.9L61.2 48.05L60.45 53.65L58.9 53.65L60.05 45.25L61.3 45.25L63.35 49.05M70.8,48.5L73.75 48.5L73.75 50L70.8 50L70.8 52.15L74.7 52.15L74.7 53.65L69.25 53.65L69.25 45.25L74.6 45.25L74.6 46.75L70.8 46.75L70.8 48.5M27.3,14.95L26.65 14.85L25.3 14.85L25.3 16.9L26.8 16.9L27.25 16.85L27.65 16.55L27.85 15.95L27.7 15.25L27.3 14.95M27.75,13.7L28.85 14.3Q29.25 14.8 29.25 15.7L29.1 16.7L28.55 17.45Q29.3 17.75 29.65 18.2Q30 18.7 30 19.5L29.75 20.7L29.05 21.45L28.05 21.85L27 21.95L23.8 21.95L23.8 13.55L26.05 13.55L27.75 13.7M26.9,18.15L25.3 18.15L25.3 20.65L26.8 20.65L28 20.35Q28.4 20.1 28.45 19.4Q28.4 18.7 28 18.4Q27.55 18.1 26.9 18.15M37.1,16.25L36.25 15.25Q35.75 14.85 34.9 14.85Q34.1 14.85 33.55 15.25Q33 15.6 32.75 16.25Q32.45 16.9 32.45 17.75Q32.45 18.6 32.75 19.25Q33 19.9 33.55 20.25Q34.1 20.65 34.9 20.65Q35.75 20.65 36.25 20.25L37.1 19.25L37.35 17.75L37.1 16.25M39.05,17.75Q39.05 19.1 38.5 20.05Q38 21.05 37.05 21.6Q36.1 22.1 34.9 22.1Q33.7 22.1 32.75 21.6Q31.85 21.05 31.3 20.05Q30.8 19.1 30.75 17.75Q30.8 16.4 31.3 15.45Q31.85 14.45 32.75 13.9Q33.7 13.4 34.9 13.4Q36.1 13.4 37.05 13.9Q38 14.45 38.5 15.45Q39.05 16.4 39.05 17.75M9.2,16.8L12.15 16.8L12.15 18.3L9.2 18.3L9.2 20.45L13.1 20.45L13.1 21.95L7.65 21.95L7.65 13.55L13 13.55L13 15.05L9.2 15.05L9.2 16.8M5.7,15.35L4.6 15L3.4 14.85Q2.5 14.85 1.95 15.25Q1.4 15.6 1.1 16.25Q0.85 16.9 0.85 17.7Q0.85 18.6 1.15 19.25Q1.45 19.9 2 20.25Q2.6 20.65 3.45 20.65L4 20.6L4.6 20.5L4.6 19L3.7 19L3.7 17.75L6.15 17.75L6.15 21.5L5.35 21.8L4.3 22.05L3.3 22.1L3.25 22.1L1.15 21.6Q0.25 21.05 -0.3 20.05Q-0.8 19.05 -0.85 17.75Q-0.8 16.4 -0.3 15.45Q0.25 14.45 1.2 13.9Q2.1 13.4 3.35 13.4L4.25 13.45L5.15 13.6L5.9 13.85L5.7 15.35M17.6,15.05L17.6 21.95L16.05 21.95L16.05 15.05L13.7 15.05L13.7 13.55L19.95 13.55L19.95 15.05L17.6 15.05M12.75,34.65L15.55 34.65L15.55 36.15L12.75 36.15L12.75 39.8L11.25 39.8L11.25 31.4L16.4 31.4L16.4 32.9L12.75 32.9L12.75 34.65M18.95,37.1Q19.2 37.75 19.75 38.1Q20.3 38.5 21.1 38.5Q21.95 38.5 22.45 38.1L23.3 37.1L23.55 35.6L23.3 34.1Q23 33.45 22.45 33.1Q21.95 32.7 21.1 32.7Q20.3 32.7 19.75 33.1Q19.2 33.45 18.95 34.1Q18.65 34.75 18.65 35.6Q18.65 36.45 18.95 37.1M18.95,31.75Q19.9 31.25 21.1 31.25Q22.3 31.25 23.25 31.75Q24.2 32.3 24.7 33.3Q25.25 34.25 25.25 35.6Q25.25 36.95 24.7 37.9Q24.2 38.9 23.25 39.45Q22.3 39.95 21.1 39.95Q19.9 39.95 18.95 39.45Q18.05 38.9 17.5 37.9Q17 36.95 16.95 35.6Q17 34.25 17.5 33.3Q18.05 32.3 18.95 31.75M18.2,47.15Q18.75 46.15 19.65 45.6Q20.6 45.1 21.8 45.1L23.1 45.2L24.2 45.55L24.05 47.05L23 46.7L21.8 46.55Q21 46.55 20.45 46.95Q19.9 47.3 19.65 47.95Q19.35 48.6 19.35 49.45Q19.35 50.3 19.65 50.95L20.45 51.95Q21 52.35 21.8 52.35L23 52.2L24.05 51.85L24.2 53.35L23.1 53.7L21.8 53.8L19.65 53.3Q18.75 52.75 18.2 51.75Q17.7 50.8 17.65 49.45Q17.7 48.1 18.2 47.15M14.4,45.25L17.35 53.65L15.75 53.65L15.05 51.6L12.25 51.6L11.55 53.65L9.95 53.65L12.9 45.25L14.4 45.25M32.15,32.4L32.55 33.8L32.35 34.95L31.85 35.7L31.1 36.25L33 39.8L31.4 39.8L29.65 36.7L28.1 36.7L28.1 39.8L26.6 39.8L26.6 31.4L29.65 31.4L31.1 31.6Q31.75 31.85 32.15 32.4M30.8,33.25L30.3 32.85L29.3 32.7L28.1 32.7L28.1 35.25L29.25 35.25L30.3 35.05L30.8 34.6L30.95 33.95L30.8 33.25M27,48.5L30.95 48.5L30.95 45.25L32.5 45.25L32.5 53.65L30.95 53.65L30.95 50L27 50L27 53.65L25.5 53.65L25.5 45.25L27 45.25L27 48.5M35.9,45.25L35.9 53.65L34.4 53.65L34.4 45.25L35.9 45.25M14.5,50.15L13.65 47.65L12.8 50.15L14.5 50.15" />
<path style="fill:#95154D;fill-opacity:1" d="M6.15,-6.25Q6.1 -8.4 4.5 -8.4Q2.7 -8.4 2.7 -5.15Q2.7 -3.25 3.2 -2.55Q3.65 -1.9 4.55 -1.9Q6 -1.9 6.35 -3.8L8.6 -3.65Q8.4 -1.85 7.3 -0.95Q6.15 0 4.55 0Q2.55 0 1.3 -1.35Q0.1 -2.75 0.1 -5.15Q0.1 -7.4 1.3 -8.85Q2.5 -10.3 4.55 -10.3Q8.15 -10.3 8.6 -6.45L6.15 -6.25M9.95,-10.15L12.35 -10.15L12.35 -2.15L16.3 -2.15L16.3 -0.15L9.95 -0.15L9.95 -10.15M19.7,-10.15L22.4 -10.15L25.55 -0.15L23.05 -0.15L22.4 -2.2L19.2 -2.2L18.55 -0.15L16.5 -0.15L19.7 -10.15M28.95,-10.15L28.95 -0.15L26.6 -0.15L26.6 -10.15L28.95 -10.15M20.8,-7.55L19.75 -4.05L21.85 -4.05L20.8 -7.55M34.6,-10.15L36.35 -4.15L38.2 -10.15L41.85 -10.15L41.85 -0.15L39.5 -0.15L39.5 -8.3L37 -0.15L35.4 -0.15L32.9 -8.3L32.9 -0.15L30.95 -0.15L30.95 -10.15L34.6 -10.15M47.6,-10.15L52 -10.15L53.95 -9.85Q54.7 -9.6 55.15 -8.85Q55.65 -8.05 55.65 -7.15Q55.65 -5.35 53.9 -4.55L55.75 -0.15L53.2 -0.15L51.65 -4.1L49.95 -4.1L49.95 -0.15L47.6 -0.15L47.6 -10.15M49.95,-5.8L51.4 -5.8L52.4 -5.9L53 -6.35L53.25 -7.15L53 -7.9L52.45 -8.3L51.35 -8.35L49.95 -8.35L49.95 -5.8M59.85,-6.2L63.6 -6.2L63.6 -4.3L59.85 -4.3L59.85 -2.15L64.6 -2.15L64.6 -0.15L57.45 -0.15L57.45 -10.15L64.6 -10.15L64.6 -8.25L59.85 -8.25L59.85 -6.2M67.65,-0.15L65.1 -10.15L67.5 -10.15L68.85 -4.05L68.95 -3.7L69.05 -3.4L70.65 -10.15L72.85 -10.15L74.5 -3.4L74.65 -4.05L76.05 -10.15L78 -10.15L75.5 -0.15L73.2 -0.15L71.55 -6.75L69.95 -0.15L67.65 -0.15M79.7,-0.15L77.65 -0.15L80.85 -10.15L83.55 -10.15L86.7 -0.15L84.2 -0.15L83.55 -2.2L80.35 -2.2L79.7 -0.15M87.75,-10.15L92.15 -10.15L94.1 -9.85Q94.85 -9.6 95.3 -8.85Q95.8 -8.05 95.8 -7.15Q95.8 -5.35 94.05 -4.55L95.9 -0.15L93.35 -0.15L91.8 -4.1L90.1 -4.1L90.1 -0.15L87.75 -0.15L87.75 -10.15M81.95,-7.55L80.9 -4.05L83 -4.05L81.95 -7.55M90.1,-5.8L91.55 -5.8L92.55 -5.9L93.15 -6.35L93.4 -7.15L93.15 -7.9L92.6 -8.3L91.5 -8.35L90.1 -8.35L90.1 -5.8M100.65,-10.15Q102.5 -10.15 103.45 -9.65L105.05 -8Q105.8 -6.9 105.8 -5.15Q105.8 -3.05 104.55 -1.6Q103.25 -0.15 101.05 -0.15L97.6 -0.15L97.6 -10.15L100.65 -10.15M99.9,-8.3L99.9 -2.05L100.85 -2.05Q102.15 -2.05 102.75 -3Q103.4 -3.95 103.4 -5.25Q103.4 -6.15 103.05 -6.9L102.15 -8L100.9 -8.3L99.9 -8.3M110.5,-10.3Q113.4 -10.3 114.25 -7.95L112.25 -7.3Q111.85 -8.45 110.55 -8.45Q109.2 -8.45 109.2 -7.55Q109.2 -7.2 109.45 -6.95L110.6 -6.55L112.85 -5.9L114.05 -4.9Q114.55 -4.2 114.55 -3.35Q114.55 -1.95 113.5 -1Q112.45 0 110.4 0Q108.85 0 107.8 -0.7Q106.7 -1.4 106.35 -2.75L108.55 -3.25Q108.9 -1.85 110.55 -1.85Q111.35 -1.85 111.75 -2.15Q112.15 -2.5 112.15 -2.9L111.8 -3.6L110.4 -4.05Q108.5 -4.45 107.7 -5.15Q106.9 -5.8 106.9 -7.15Q106.9 -8.45 107.85 -9.4Q108.8 -10.3 110.5 -10.3" />
<path style="fill:#E51919;fill-opacity:1" d="M109.6,14.25L109.6 17.9L111.2 17.9Q112.25 17.9 112.7 17.5Q113.2 17.05 113.15 16L113 15L112.4 14.45L111.15 14.25L109.6 14.25M110.6,12.65L112.55 12.75L113.95 13.25Q114.55 13.6 114.85 14.25L115.1 16Q115.1 17.1 114.75 17.85L113.85 18.95Q113.3 19.4 112.65 19.55L111.45 19.7L109.6 19.7L109.6 23.15L107.65 23.15L107.65 12.65L110.6 12.65M104.1,12.65L106.35 12.65L102.85 17.7L106.55 23.15L104.3 23.15L101.75 19.3L99.3 23.15L97.1 23.15L100.8 17.9L97.25 12.65L99.45 12.65L101.9 16.35L104.1 12.65" />
</g>
</svg>
