<?xml version="1.0" encoding="utf-8"?>
<svg version="1.1" id="Layer_1"
xmlns="http://www.w3.org/2000/svg"
xmlns:xlink="http://www.w3.org/1999/xlink"
xmlns:author="http://www.sothink.com"
width="630px" height="459px"
xml:space="preserve">
<g id="2991" transform="matrix(1, 0, 0, 1, 0, 0)">
<path style="fill:#FCFEFB;fill-opacity:1" d="M524.15,88.95Q529.4 89.85 534.25 91.65L535.65 92.5Q536.15 93 536.1 94Q535.7 103.65 533.55 113.1Q533.15 115 533 117Q532.6 123.6 530.55 129.2Q529.55 132 531.2 134Q536.4 140.25 546.15 139.1Q549.05 138.75 549.5 142L550 144.1Q552.5 150.95 557.1 155.1L558.2 156Q561.05 158.15 564.1 155.95L565.2 155.15Q571.95 150.4 581.15 149.8Q583.4 149.65 585.4 148.5Q586.15 148.05 587.15 148.2Q591.55 148.9 594.4 150.6Q595.15 151.05 596.05 151.35Q600.55 152.85 597.85 155.8L596.55 157.35Q595.65 158.55 595.2 160.05Q593.8 164.85 591.3 169.15Q589.55 172.1 590 176.05Q590.15 177.55 590.65 178.85Q591.15 180.05 592.25 180.95L596.25 183.85Q598.55 185.3 599.5 186.85Q601.55 190.2 601.65 196.05L601.75 198.1Q602.35 203.55 600.6 208.2Q599.45 211.25 601.2 211.85Q605.8 213.4 611.15 213.55Q611.65 213.55 612.15 214.05Q610.55 217.6 606.4 221.35Q605.65 222.05 605.3 223.1Q603.6 228.1 604.45 234Q604.85 237.05 603.6 239.3Q603.15 240.05 603.1 241.05Q602.8 246.4 603.7 251.15Q604.15 253.55 603.9 256Q603.2 261.85 606.5 265.75Q607.65 267.15 610 268.4L615.15 271.05Q618.55 272.8 619.8 276.2L620.6 277.75L622 279.2L623 280Q626.9 283.35 629.15 288.05Q627.85 289.75 624.1 289.45L619.8 289.25L613.2 289.45L611.15 289.55Q604.75 289.6 599.3 291.5Q597.65 292.05 596.2 293.15L595.05 293.85Q592.85 294.9 592.15 296.05Q594.9 299.15 599.95 301.5L602.15 303Q607.85 308.45 606.55 316.95Q590.15 344.7 562.75 369.2Q550.05 380.55 535 391.2Q439.3 459 303.8 459Q168.4 459 72.6 391.2L66.7 386.95Q32.35 361.5 11.15 332.15Q11.75 329.4 15.05 329.55Q16 329.6 16.65 328.8Q19.2 325.65 20.8 321.95Q21.45 320.4 22.6 319.6Q24.35 316.15 27.75 313.75Q30.5 311.8 32.05 309.05Q33.8 305.95 36.95 303.95Q40.25 301.85 42.55 297.8L43.4 296.25Q44.75 293.3 43.85 288.1L43.25 284Q43 282.05 42.3 280.35Q42 279.55 40.95 279.4Q38.8 279.1 37.05 280.15Q26.7 286.45 14.05 288.35Q11.4 288.75 9.95 290.5Q15.6 280.95 17.8 272Q19 267.2 21.35 264.35Q22 263.55 22.95 263Q24.9 261.9 25.8 260.6Q26.5 259.55 27.8 258.7Q31.15 256.5 33.25 253.2L34.7 250.9L41.3 240.6L42.4 238.15Q43.7 233.55 43.25 228.05L42.65 222.1Q42.5 221.05 41.8 220.2L38.35 215.5Q38 215.05 37 215L25.95 215.65L22 216.05L11.15 215.15Q10.5 215.05 10.3 214Q9.8 211.25 11 209.05L1.95 208.3L0 208.05L6.9 205.75Q9 205.05 10.85 203.8Q20.2 197.5 31.1 195.45Q36.85 194.4 41.7 191.55Q42.5 191.05 42.6 190Q42.8 187.35 43.8 185.9Q46.95 181.65 47.25 176.05Q47.4 172.7 48.5 169.85L49.35 167.15Q50.15 164 52.8 162.7Q56.5 160.85 61 160.6Q61.55 160.55 62.1 160.1Q64.5 158.25 65.25 154.1L66.3 148.1L66.6 145.05Q66.85 133.7 73.15 125.15Q76.85 120.05 75.9 112Q75.55 109 75.55 106Q75.55 105.5 75.7 104.9Q76.25 102.45 77.85 101.6Q79 100.95 79.45 99.1Q79.55 98.5 80.1 98.05L85 93.95Q88.2 91.35 89.7 86.9Q92.6 78.4 96.8 70.85Q98.45 67.85 101.35 65.35Q107.8 59.8 112.75 52.45Q114.05 50.5 115.85 48.8Q122.65 42.45 129.75 38.45L131.2 37.15Q133.5 34.2 135.05 31Q133.2 43.55 144.05 48Q141.95 51.85 138.1 55.1Q131.85 60.4 127.1 67.05Q121.9 74.4 122.65 84.05Q123.05 89.5 123.05 95L123.05 104Q126.25 102.45 127.1 98.2Q127.55 96 128.8 93.85Q137 79.55 153.1 77.4Q160.7 76.4 167.85 74.35Q169.05 74 170 72.95Q174.05 68.55 173.65 61.95Q173.55 60 173.85 57.95Q174.7 52.25 178.1 48.05Q185.9 38.4 198.2 33.4Q204.05 31 210.05 28.95Q215.6 27.05 220.3 24.45Q221.05 24 222.05 24Q218.8 27.55 218.95 34Q219.05 37 219.75 39.8Q220.05 41 221.2 41.75Q226.15 44.95 228.8 50.1Q230.05 52.5 231.45 54.75Q233.45 58 237.1 58.9Q243.35 60.4 246.2 55.1Q249.55 48.9 252.35 42.7Q253.55 40 254.2 37.05L254.65 33.95Q255 29.3 250.05 29.5Q249.55 29.5 249.45 28.9Q248.85 26.2 249.95 23.95Q252.25 19.2 256.95 19.45Q257.55 19.5 257.75 21.05Q258.35 25 261.15 27.9Q268.75 35.8 278.95 34.6Q279.6 34.5 280.2 33.05Q285.8 19.3 294.95 6.9Q295.6 6 296.4 5.45Q297.1 5 298.1 5.1Q301.35 5.35 303.65 8.6Q304.6 10 306.1 10.95Q318.8 18.95 331.25 25.75L334 27.2Q337.7 29.2 339.65 33.2Q340.7 35.35 343.3 36.6Q344.1 37 345.05 37.2Q349.1 38 350.5 35.2L351.75 32.8Q355.95 25.5 360.8 17.8L362.15 15Q364.6 8.45 369.9 2.8Q371.2 1.4 372.8 0.7Q374.75 -0.15 377.1 0.05Q378.7 0.25 379.25 1.7L379.5 2.95L379.95 5.05Q381.65 10.1 385.75 14.35Q389.5 18.15 393 21.15Q395 22.85 397.1 24Q400.1 25.65 404.1 24.95Q408.25 24.25 409.4 27.9L409.65 29.05Q410.1 34.5 410.1 40Q410.1 43 410.35 46Q410.55 47.8 413.05 48.3L415.15 48.6L424.05 49.35Q429.1 49.75 433.2 48.3L435.1 47.95Q445.05 47.4 454 49.35L455.2 49.65Q473.3 53.8 480.05 69.05Q482.4 74.3 486.45 78.75L487.75 80.3Q488.65 81.5 489.15 83Q490.95 88.3 494.35 92.85Q496.6 95.9 500.25 99.95Q501.2 100.95 503.05 101.45Q505.15 102 507.15 103L509.2 103.7L512.15 104.15Q515.5 104.5 515.6 108L515.85 110.05Q516.8 114.6 519.15 117Q519.15 118.75 519.2 116Q519.45 106.3 517.55 96.9L516.9 93.05Q516.45 89.5 518.6 87.5L519.9 87.45Q521.9 88.6 524.15 88.95" />
</g>
</svg>
