<?xml version="1.0" encoding="utf-8"?>
<svg version="1.1" id="Layer_1"
xmlns="http://www.w3.org/2000/svg"
xmlns:xlink="http://www.w3.org/1999/xlink"
xmlns:author="http://www.sothink.com"
width="207px" height="79px"
xml:space="preserve">
<g id="2806" transform="matrix(1, 0, 0, 1, 98.7, 60.35)">
<path style="fill:#F8F8F8;fill-opacity:1" d="M53.35,-21.45Q50.65 -13.9 46.2 -7.2Q47.65 -10.3 47.35 -18.45Q47.05 -26.6 45.35 -32.85Q43.6 -39.1 44.35 -40.15L45.35 -41.55L45.05 -41.45L55.8 -48.15Q62.8 -54.15 64.7 -51.3Q66.5 -48.45 68.75 -48.2L71.25 -47.85Q71.65 -47.75 73.8 -49.2Q79.8 -53.2 89.2 -51.35Q98 -49.45 106.25 -42.15Q107.9 -37.5 107.9 -32.45L107.9 -31.1Q107.6 -25.45 105.2 -20.15Q104.9 -30.25 103.15 -33.85Q100.65 -16.55 96.25 -16.05L96.85 -17.35Q97.5 -18.7 97.5 -21.1Q97.5 -22.75 96.7 -25.75Q95.75 -28.65 95.75 -28.95L94 -26.7Q92.7 -24.95 91.95 -24.8L91.2 -28.5L90.55 -32.1Q89.3 -31.5 89.2 -30L88.8 -29.6Q88.8 -30.95 86.55 -36.95L84.25 -42.95L83.9 -42.95Q83.9 -38.75 83.5 -37.4L83.4 -37.25L83.15 -37L79.45 -39.85L75.7 -42.85L75.45 -43.35L75.45 -42.95L75.7 -42.85Q76.2 -41.1 76.2 -39.8Q76.2 -38.45 75.45 -37Q74.4 -37 72.15 -38.5L69.15 -40.8Q69.15 -39.15 69.55 -38.45L69.55 -36.3L64.65 -40.55L64.65 -38.05Q65 -37.4 65 -35.95L65.35 -35.3L60.1 -39.8Q60.05 -36.25 58.4 -33.1Q57.15 -30.65 55.2 -29.15L54.8 -26.9L54.3 -24.95L53.35 -21.45M74.7,-32.2L74.5 -31.85Q71.55 -31.65 72.8 -34.4L73.15 -34.75Q75.25 -33.9 74.7 -32.2M82.9,-35.35L82.9 -35.4Q84.75 -34.45 85.4 -32.6L85.3 -32.3Q80.9 -32.25 82.9 -35.35M88.8,-21.2L88.45 -21.05Q86.55 -22.7 88.45 -24.15L88.45 -24.2Q90.6 -23.25 88.8 -21.2" />
<path style="fill:#B8E0F0;fill-opacity:1" d="M75.7,-42.85L75.45 -42.95L75.45 -43.35L75.7 -42.85" />
<path style="fill:#E6B0F0;fill-opacity:1" d="M97.05,-9.15Q91.15 -6.15 87.65 -5.35Q93 -9.75 90.2 -18.15Q88.75 -14.2 80.85 -9.4Q83.85 -15.95 83.45 -21.35Q83.15 -26.8 80.5 -31.5Q77.05 -26.85 74.05 -25.1Q74.15 -25.6 73.55 -26.9L72.7 -28.6Q72.7 -28.25 72.3 -28.25Q72.1 -27.7 70.3 -25.45L68.5 -23.05L68.5 -23.3Q69.15 -24.95 67.85 -27.6L65.7 -31.1Q65.7 -29.15 63.9 -26.7Q62.05 -24 60.1 -23.7L59.4 -26.85L58.7 -26.85Q58 -26.6 56.45 -24.5L54.8 -22.3Q54.8 -23.5 54.3 -24.95L54.8 -26.9L55.2 -29.15Q57.15 -30.65 58.4 -33.1Q60.05 -36.25 60.1 -39.8L65.35 -35.3L65 -35.95Q65 -37.4 64.65 -38.05L64.65 -40.55L69.55 -36.3L69.55 -38.45Q69.15 -39.15 69.15 -40.8L72.15 -38.5Q74.4 -37 75.45 -37Q76.2 -38.45 76.2 -39.8Q76.2 -41.1 75.7 -42.85L79.45 -39.85L83.15 -37L83.4 -37.25L83.5 -37.4Q83.9 -38.75 83.9 -42.95L84.25 -42.95L86.55 -36.95Q88.8 -30.95 88.8 -29.6L89.2 -30Q89.3 -31.5 90.55 -32.1L91.2 -28.5L91.95 -24.8Q92.7 -24.95 94 -26.7L95.75 -28.95Q95.75 -28.65 96.7 -25.75Q97.5 -22.75 97.5 -21.1Q97.5 -18.7 96.85 -17.35L96.25 -16.05Q100.65 -16.55 103.15 -33.85Q104.9 -30.25 105.2 -20.15Q102.5 -14.4 97.05 -9.15M73.15,-34.75L72.8 -34.4Q71.55 -31.65 74.5 -31.85L74.7 -32.2Q75.25 -33.9 73.15 -34.75M85.3,-32.3L85.4 -32.6Q84.75 -34.45 82.9 -35.4L82.9 -35.35Q80.9 -32.25 85.3 -32.3M88.45,-24.2L88.45 -24.15Q86.55 -22.7 88.45 -21.05L88.8 -21.2Q90.6 -23.25 88.45 -24.2" />
<path style="fill:#AF21F3;fill-opacity:1" d="M76.25,4.65Q66.85 9.25 56.15 12.45Q68.35 2.5 72.85 -9Q75 -14.4 75.1 -19.45L73.8 -21.2Q74.45 -19.6 67.5 -13.3Q62.2 -8.35 58.4 -6.15Q60.45 -8.2 63.2 -15.55Q65.75 -22.7 65.1 -22.25Q61.1 -15.05 53.25 -10.4L46.15 -7.15L46.2 -7.2Q50.65 -13.9 53.35 -21.45L54.3 -24.95Q54.8 -23.5 54.8 -22.3L56.45 -24.5Q58 -26.6 58.7 -26.85L59.4 -26.85L60.1 -23.7Q62.05 -24 63.9 -26.7Q65.7 -29.15 65.7 -31.1L67.85 -27.6Q69.15 -24.95 68.5 -23.3L68.5 -23.05L70.3 -25.45Q72.1 -27.7 72.3 -28.25Q72.7 -28.25 72.7 -28.6L73.55 -26.9Q74.15 -25.6 74.05 -25.1Q77.05 -26.85 80.5 -31.5Q83.15 -26.8 83.45 -21.35Q83.85 -15.95 80.85 -9.4Q88.75 -14.2 90.2 -18.15Q93 -9.75 87.65 -5.35Q91.15 -6.15 97.05 -9.15Q89.4 -1.7 76.25 4.65" />
<path style="fill:#F8F8F8;fill-opacity:0.2" d="M40.5,-26Q80.65 -23.5 107.3 -38.8Q108.25 -35.3 108.25 -31.65Q108.25 -28.25 107.4 -24.85Q89.1 -1.35 59 7.75Q48.5 10.9 37.95 11.85Q29.4 12.65 29.4 12.05Q42.15 9.8 58 -1.35L62.75 -4.7Q67.7 -8.5 71.45 -12L58.7 -4.9Q44.75 -6.1 29.35 -18.4Q23.5 -23 18.1 -28.75Q29.25 -26.75 40.5 -26M-98.7,-31.65Q-98.85 -47.85 -80.25 -60.35Q-98.35 -40.6 -84.8 -22Q-76.9 -11.3 -62.9 -5Q-82.35 -21.95 -63.65 -41.2Q-57.65 -47.4 -48.85 -52.7Q-41.3 -57.1 -40.5 -56.6Q-55.95 -44.95 -53.6 -34Q-52.45 -28.45 -48.15 -25.35Q-40.35 -18.9 -22.45 -17.95Q-5.4 -17.05 2.85 -21.35Q8.7 -13.65 2.35 -0.15Q-0.8 6.6 -5.55 12.35Q-26.25 13.15 -47.35 7.75Q-66.4 3 -83.55 -6.4L-87.6 -8.9Q-98.65 -19.15 -98.7 -31.65" />
<path style="fill:#AF21F3;fill-opacity:0.701961" d="M78.1,3.65Q47.8 18.35 4.95 18.35Q-37.85 18.35 -68.25 3.65Q-80.35 -2.15 -87.6 -8.9L-83.55 -6.4Q-66.4 3 -47.35 7.75Q-26.25 13.15 -5.55 12.35Q27.05 11.3 58.7 -4.9L71.45 -12Q67.7 -8.5 62.75 -4.7L58 -1.35Q42.15 9.8 29.4 12.05Q29.4 12.65 37.95 11.85Q48.5 10.9 59 7.75Q89.1 -1.35 107.4 -24.85Q103.2 -8.5 78.1 3.65" />
<path style="fill:#E6B0F0;fill-opacity:0.501961" d="M-5.55,12.35Q-0.8 6.6 2.35 -0.15Q8.7 -13.65 2.85 -21.35L3.6 -21.8Q9.55 -25.3 11 -30.3L15.15 -29.3L18.1 -28.75Q23.5 -23 29.35 -18.4Q44.75 -6.1 58.7 -4.9Q27.05 11.3 -5.55 12.35" />
</g>
</svg>
