<?xml version="1.0" encoding="utf-8"?>
<svg version="1.1" id="Layer_1"
xmlns="http://www.w3.org/2000/svg"
xmlns:xlink="http://www.w3.org/1999/xlink"
xmlns:author="http://www.sothink.com"
width="572px" height="1067px"
xml:space="preserve">
<g id="2996" transform="matrix(1, 0, 0, 1, -363.15, 1056.85)">
<path style="fill:#FFFFFF;fill-opacity:0.34902" d="M524.4,-1052.8Q526.15 -1052.85 526.75 -1052L539.6 -1034.95Q542.45 -1031.05 545.5 -1027.45Q562.8 -1007.15 577.65 -984.85Q582.1 -978.15 589.55 -978.05L592.8 -978.5Q595.55 -979.35 597.6 -981.3Q613.75 -996.55 619.1 -1018.75Q620.4 -1024.25 620.8 -1029.8Q621.6 -1041.55 624.3 -1052.7Q624.7 -1054.2 625.85 -1055.25Q629.95 -1058.95 632.45 -1054.2L656.25 -1009.2Q659.55 -1003 663.7 -997.4Q666.65 -993.45 667.15 -988.2Q667.6 -983 669.3 -983.2Q670.95 -983.45 673.85 -986.65Q676.75 -989.9 678.65 -984.8Q681.45 -977.15 685.85 -970.05Q687.25 -967.8 689.3 -967.35Q693.1 -966.45 696.25 -963.55L699 -961.35Q706.8 -955.95 714.25 -962.2Q716.75 -964.35 719.8 -964.35Q721.5 -964.4 722.05 -963.6Q728.1 -954.75 733.4 -943.95Q736.1 -938.55 737.15 -932.85Q744.55 -893.55 731.7 -855.65Q730.1 -850.85 729.15 -845.95Q727.95 -839.55 725.4 -834.05Q722.85 -828.6 720 -830.85Q717.15 -833.15 712.65 -842.55Q708.15 -852 695.7 -867.8Q694.1 -869.85 693.25 -872.2Q692.15 -875.45 690.45 -878.6Q687.15 -884.75 683.7 -881.55L680.6 -878.5Q676.7 -874.3 676.35 -867.9Q676.1 -863.75 676.15 -859.7Q676.45 -843.05 673.9 -827Q672.65 -818.85 672.2 -810.7L671.2 -797.15Q670.55 -790 673.5 -784.85Q675.65 -794.1 682.2 -801.1Q690.4 -809.8 697.8 -800.1Q700.1 -797.1 701.6 -793.9L706.05 -783.5Q710 -773.1 708.75 -761.85Q706.75 -743.55 705.9 -725Q705.4 -714.5 707.4 -704.5Q707.8 -702.55 708.6 -700.95Q709.55 -699.15 711.5 -698.65Q712.1 -698.45 713.05 -699Q714.65 -699.85 716.4 -700.15Q724.55 -701.6 730.4 -695.4Q732.65 -693.05 734.4 -690.45L734.75 -689.95L728.1 -674.8Q726.65 -671.3 726.2 -667.75Q724.95 -658.35 724.95 -648.85Q724.95 -642.7 725.6 -636.65Q726.6 -627.2 731.8 -623L732.05 -624.25Q732.65 -625.7 733.85 -626.65Q736.9 -629.1 738.75 -632.45Q742.9 -640 747.05 -633.8Q750.1 -629.15 751.8 -622.85Q753.2 -617.55 754.95 -612.4Q759.95 -597.8 759.45 -582.2Q759.2 -575.4 759.95 -568.7Q761.45 -554.95 761.35 -540.9L762.25 -539.25Q763.25 -538.3 765.4 -537.25Q762.45 -512 761.45 -508.25Q760.3 -504.2 751.1 -492.05Q749.8 -490.35 748.3 -489.3Q745.9 -487.6 743.8 -489.7Q738.35 -495.05 733.35 -501.85Q731.8 -503.95 729.65 -505.25L727.4 -505.15Q717.25 -496.05 712.65 -480.25Q711.25 -475.4 710.35 -470.5Q709.5 -465.85 709 -461.15Q708.05 -452.5 710.6 -445.9Q712.05 -442.2 716.35 -442.45Q724.65 -442.95 731.85 -440.8Q734.4 -440 736.5 -438.65Q749 -430.7 757.65 -419.05Q759.25 -416.9 761.4 -415.85Q764.9 -414.1 767.35 -416.65L771.65 -421.3L775.85 -426.15L778.55 -429.4L782.55 -434.4Q787.75 -441.4 796.95 -439.65Q798.65 -439.35 798.95 -438.7Q804.75 -426.15 813.7 -413.25L816.2 -409.8Q817.5 -408.05 817.8 -406.4Q819.4 -398.6 826 -396.95Q827.8 -396.5 829.05 -395.35Q831.55 -393.1 836.35 -392.95Q840.95 -392.8 844.5 -395.05L846.95 -396.3Q853.95 -399.1 857.05 -405.3Q857.75 -406.7 858.95 -407.35L861.35 -407.2Q867.35 -402.4 870.75 -394.5Q874.6 -385.7 877.8 -376.9Q878.35 -375.4 879.45 -375.15Q887.55 -373.1 891.1 -376.9L894.8 -380.65Q914.1 -399.2 920.95 -424.2L921.15 -425.7Q921 -429.7 923.75 -429.85Q925.5 -422.95 929.05 -416.3Q935.25 -404.75 934.6 -391.7Q934.05 -380.85 934.75 -370.05Q936.15 -349.05 930.95 -329.1Q929.75 -324.4 927.9 -320.1Q917.85 -296.9 907.9 -274.95Q906.6 -272.05 906 -269.1Q905.15 -264.95 903.4 -261.05Q899.9 -253.05 891.2 -252.9Q883.8 -252.8 877.55 -255.95L875.65 -256.6Q861.95 -259.4 858.55 -247.55Q857.75 -244.85 856.4 -242.4Q852.75 -235.85 854.05 -228.6Q857.6 -208.55 856.3 -187.75Q856 -182.8 851.85 -184.05Q850.9 -184.3 850.45 -185.2Q846.8 -192.05 839.75 -193.15Q839.75 -178.9 839.9 -164.6Q840.05 -152.1 837.5 -140.2Q834.55 -126.4 831.2 -112.9Q830.35 -109.5 830.15 -106.05Q829.65 -97.25 820.85 -95.6Q813.15 -94.15 808.65 -96Q807.2 -96.6 806.55 -97.45Q800.5 -104.95 798.45 -118.3Q797.5 -124.6 793.25 -129.05Q786.75 -135.9 778.1 -140.2Q769.55 -144.45 764.9 -152.65L762.05 -157.45Q755.65 -167.95 747.65 -157.45Q746.35 -155.75 745.2 -153.9Q743.8 -151.65 743 -149.35Q741.65 -145.3 735.3 -147.1L731.8 -147.55Q730.95 -147.55 730.35 -146.75Q727 -142.1 724.6 -136.2Q721.5 -128.55 718 -121.1Q715.95 -116.6 712.85 -115.95Q711.25 -115.6 710.15 -116.45L707.2 -119.15Q697.2 -129.65 693.95 -142.8L692.9 -148.3Q692.15 -153.5 688.95 -155.05L687.55 -153.5Q683.95 -148.05 684 -141.45Q684.2 -122.25 681.7 -103.45Q681.25 -100 679.65 -97Q678.35 -94.45 675.2 -94.65Q667.6 -95.1 662.85 -101.7Q657.45 -109.25 654.25 -118.2Q650.15 -129.9 643.55 -139.4Q642.7 -132.3 642.3 -122.45L641 -88.4Q640.45 -73.25 637.3 -58.55L636.25 -53Q635.3 -47.1 628.9 -46.65Q622.95 -46.25 617 -46.75Q610.35 -47.35 605.2 -44.55Q603.3 -43.5 603 -41.9Q602.35 -38.25 600.5 -35Q597.25 -29.25 595.3 -22.95Q593.85 -18.35 591.55 -14.4Q588.1 -8.35 585.75 -1.45Q581.5 11.1 569.05 9.1Q567.3 8.85 565.9 7.75L561.95 4.3Q557.3 -0.35 554.75 -6.55Q550.05 -18 546.7 -29.95L542.85 -42Q541.6 -45.55 539.05 -48.2Q533.4 -54.2 525.85 -58Q524.95 -59.95 523.8 -60.15Q521 -60.6 519.75 -61.8L518.8 -62.3L514.1 -62.65L510.95 -61.95Q496.45 -56 492.15 -40.7Q490.75 -35.65 486.5 -32.95Q485 -31.95 483.25 -31.95L481.45 -32.2Q479.85 -32.65 478.9 -33.5Q469.25 -41.8 459.4 -49.05L454.35 -53.25Q449.35 -58 444.2 -53.95L441.75 -52.35Q440.45 -51.65 439.1 -52.35L436.6 -53.7Q435.3 -54.4 434.1 -55.2Q429.3 -58.5 424.95 -62.5Q424.15 -63.2 423.8 -64.1Q423.3 -65.25 422.6 -65.9Q419.1 -69.05 417 -72.45Q413.75 -77.7 412.55 -84.2Q412.15 -86.35 411.9 -88.45L410.7 -97.8Q409.95 -103.55 413.1 -104.3L416.45 -104.85Q424.65 -105.5 431.65 -102.8Q436 -101.05 437 -103.35Q434.75 -109.65 431.7 -116.9Q419.9 -144.9 421.55 -175.45Q421.6 -176.8 420.95 -177.35Q417.3 -180.25 413.2 -182.6Q399.05 -190.7 388.45 -203.55L381.05 -212.7Q365.5 -232.2 365 -257.05L366.35 -254.2Q371.75 -237.35 383.7 -222.95Q386.45 -219.65 389.8 -217.45Q391.6 -216.25 392.1 -217.3Q398.65 -230 399.1 -246.2L400.75 -298L385.7 -321.1Q382.2 -326.45 379.9 -332.35Q374.85 -345.3 368.15 -357.6Q362.2 -368.6 363.3 -380.9Q363.3 -380.2 363.65 -379.8L366.35 -376.5Q375.85 -364.75 390.75 -364.55Q392.45 -364.55 393.7 -365.3Q399.75 -368.75 397.5 -376.8Q396.75 -379.5 396.35 -382.3Q395.9 -385.65 395 -388.8Q391.65 -400.25 391.05 -412.15L390.8 -417.6L392.1 -417.2Q394.2 -415.55 396.35 -414.3Q400.75 -411.75 404.05 -407.75Q406.6 -404.75 409.65 -404.25Q416.65 -403.1 416.55 -410.8Q416.45 -418.3 415.95 -425.7Q415.15 -437.9 418.25 -448.85Q419.05 -451.6 419.35 -454.4L420.55 -463.75Q421.45 -470.2 416.15 -472.7Q414.75 -473.35 413.15 -473.85Q410.45 -474.7 408.65 -476.75Q398.75 -488.2 392.3 -501.85Q385.7 -515.85 380.1 -530.35Q377.6 -536.9 378.15 -544.15Q380.05 -570.35 377.45 -595.85L376.35 -603.85Q374.55 -614.5 375.3 -625.7Q377.45 -622.9 381 -612.35Q384.5 -601.85 392.8 -592.35Q401.05 -582.85 404.8 -576.1Q408.5 -569.4 418.05 -571.75Q419.05 -571.95 419.35 -572.85Q423.95 -584.8 420.55 -598.65Q418.45 -607.25 418.7 -616.2Q419.4 -640.8 423.35 -665.15Q424.15 -669.9 425.85 -674.35Q431 -687.6 429 -695.45Q426.95 -703.35 423.15 -715.2Q419.3 -727.05 411.45 -737.5Q403.6 -747.95 404.45 -753.55Q404.45 -753.15 407.25 -752.2L420.15 -747.25Q430.15 -743.35 435 -740.75Q440 -738.1 445.6 -738.05Q450.6 -738.05 449.25 -744.1Q447.35 -752.5 447.65 -761.75Q448.25 -781.85 445.45 -801.15Q444.75 -805.95 444.3 -810.75L443.25 -820.15Q442.4 -826.8 445.6 -831.1Q450.75 -827.3 455.95 -821.7Q460.35 -816.9 466.45 -814.1Q467.9 -813.45 468.85 -814.3Q471.85 -816.95 472.4 -821.65Q475.55 -848.65 476.4 -876Q476.45 -877.35 477.15 -878L483.1 -884.3Q484.15 -885.5 484.25 -886.95Q484.6 -891.6 482.2 -895.4L480.95 -896.9Q476.8 -900.1 475.2 -906.1Q474.7 -907.95 474.45 -909.95Q472.1 -929.05 481.2 -944.25Q490.25 -959.5 498.85 -975.25Q511.25 -998.05 516.25 -1022.8L519.7 -1041.9Q520.15 -1044.65 520 -1047.35Q519.65 -1052.65 524.4 -1052.8M627.1,-953.65Q622.65 -947 617.05 -934.95Q611.45 -922.95 609.5 -917.15Q607.55 -911.35 604.35 -906.3Q602.4 -903.2 599.25 -902.1Q595.15 -900.65 591.35 -903.2Q587.55 -905.8 578.85 -908.8Q570.1 -911.8 567.65 -918.3Q565.15 -924.8 564.65 -926.65Q564.1 -928.55 561.6 -941.9Q559.1 -955.25 555.35 -955.25Q551.55 -955.3 549.6 -950.65Q547.6 -946.05 541.35 -928L533.6 -906.25Q532.1 -902.5 532.35 -896.4Q532.75 -887.25 536.9 -878.95Q543.9 -865.1 553.25 -852.6Q556.15 -848.75 556.85 -844.4Q560.75 -820.6 555.95 -798.3L554.35 -791.9Q552.65 -786 550.1 -783.5Q549.55 -795.1 547.95 -806.55Q547.55 -809.3 546.15 -811.7L540.1 -821.75Q534.2 -831.45 534.7 -844.25Q534.6 -843.25 534.05 -842.65Q529.55 -837.9 524.7 -833.5Q523.55 -832.45 522.5 -832.3Q518.35 -831.55 517.4 -828.45Q514.45 -818.85 516.1 -808.05Q516.7 -803.9 518.4 -800.2Q523.6 -788.95 522.9 -776.7Q522.7 -773.3 522.15 -770Q520.5 -760.1 521 -749.5Q519.3 -750.15 517.55 -750.15Q514.5 -750.15 512.4 -752.2Q506.4 -758 500.85 -751.8Q497.3 -747.85 498.2 -741.3Q498.7 -737.95 499.75 -734.9Q502.65 -726.65 498.65 -719.6Q497.85 -718.2 496.85 -718.05L478.15 -716.85L476.35 -716.5Q474.7 -708 475 -699.15Q475.15 -693.65 476 -688.25Q477.7 -677.55 477.95 -666.5L478.15 -661.1Q476.45 -661.1 475 -661.75Q466.2 -665.8 457.55 -669.25Q455.65 -666.35 455.35 -662.5Q455 -658.35 453.7 -654.4Q449.15 -640.45 449.05 -625.7Q449 -615.5 448.45 -605.35Q447.7 -592.4 452.85 -581Q460.85 -563.25 471.8 -547.15L476 -541.1Q477.3 -539.35 478.8 -538.05Q481.2 -535.9 480.9 -533.25L480 -522.35Q479.05 -505.1 481.25 -488.3Q483.25 -473.15 486.25 -458.3Q487.8 -450.65 491.85 -447.5Q491.85 -459.75 492.55 -471.95Q492.7 -474.05 494.1 -475.55Q495.3 -476.75 496.95 -476.7Q509.4 -475.95 517 -464.8Q532.9 -441.45 544.4 -416Q545.9 -412.7 547.7 -410.15Q560.3 -403.25 574 -399.5Q581.7 -397.4 589.55 -399.85Q601.95 -403.65 613.7 -410.45Q617.8 -412.85 621.7 -415.45L625.95 -418.25Q630.55 -421.15 630.65 -425.75Q629.8 -425.05 629.45 -424.2Q628.95 -423 628.3 -422.5Q624.35 -419.4 618.65 -420.35Q611.25 -421.6 606.6 -425.7Q605.8 -426.4 605.7 -427.2Q604.15 -441.05 606.85 -454.25Q607.55 -457.7 608.85 -460.9L613.15 -470.8Q617.2 -479.9 619.2 -489.6Q619.55 -491.05 620.7 -491.4Q626.2 -492.95 630.65 -489.65Q631.5 -489 632.45 -488.85Q637.85 -487.8 640.65 -490.1Q641.8 -491.05 642.05 -492.5Q642.65 -495.8 642.85 -499.2Q643.85 -515.15 640.9 -530.5Q640.1 -534.55 638.5 -538.3Q634.45 -547.75 634.3 -557.7Q634.1 -571.95 634.75 -586.2L635.8 -613.45Q639.45 -613.95 642.45 -611.8Q648.65 -607.35 654.2 -602.1Q670.7 -586.45 690.6 -576.65Q693.25 -575.35 695.95 -574.5L698.95 -574.6Q700.95 -575.35 701.7 -577.15Q707.35 -590.2 700.7 -603.8L686 -634.1Q681.5 -643.4 677.6 -653.15L674.5 -660.8L672.65 -665.45Q670.55 -671.15 665.05 -670.1L663.1 -669.5Q656.4 -666.55 652.7 -661.25Q652.1 -660.4 651.15 -660.25L644.45 -659.1Q634.3 -657.2 632.25 -666.5L623.55 -707.25Q622.1 -714.1 621.15 -721.05Q620.4 -726.35 620 -731.75Q618.5 -751.7 623.9 -769.85Q625.15 -774.05 628.9 -773.5L632.35 -773.3Q634.1 -773.3 634.45 -774.45Q643.35 -802.45 650.2 -832.3Q652.1 -840.6 653.45 -849Q657.5 -873.75 656.75 -899.1Q656.35 -912.7 656.95 -926.25Q657.65 -941.05 655.55 -950.4L651.25 -969Q649 -978.25 643.85 -973.45Q638.65 -968.65 634.65 -963.95Q631.55 -960.3 627.1 -953.65M675.85,-398.15Q673.55 -394.45 671.5 -390.55Q669.25 -386.3 667.45 -381.9Q663.8 -373 656.5 -368.4Q654.7 -367.25 652.9 -367.15Q640.65 -366.45 628.9 -371.05Q624.7 -372.7 620.3 -373.35Q615.3 -374.05 610.25 -373.25Q606.7 -372.7 603.7 -370.65Q600.7 -368.6 599.5 -365.4Q598.15 -361.8 598.15 -357.75Q598.15 -348.9 598.75 -340.1L599.35 -331.85Q600.2 -321.15 608.55 -314.35Q616.7 -307.65 622.25 -315.45Q623.85 -317.6 626 -318.45Q629 -319.65 632.35 -319.95Q636.95 -320.35 640.65 -317.85Q647 -313.55 651.05 -307.7Q650.9 -295.6 654.35 -284.2Q655.55 -280.2 657.5 -276.7Q661.85 -269 667.5 -262.25Q662.4 -260.25 656.4 -259.9Q654.7 -259.8 653.25 -260.4L644.55 -260.65Q638.5 -258.85 635.4 -251.85Q634.15 -248.9 631.7 -247.15Q622.95 -240.75 611.95 -245.15Q609.3 -246.2 607.2 -248.1Q599.95 -254.6 598.1 -263.9L596.35 -272.05Q593.2 -285.5 591.05 -299.2Q590.15 -305 587.45 -309.95Q587 -310.8 586.7 -310.65Q578.75 -305.4 569 -306.25Q552.4 -307.75 545.1 -323.8Q543.3 -327.8 542.6 -332.05Q541.6 -338 541.25 -344.15Q540.35 -360.1 534.15 -375.15Q528.55 -388.85 523.3 -402.8Q520.7 -409.6 515.5 -414.45Q508.45 -421 502 -413.65Q497.2 -408.15 494.8 -401.45Q489.45 -386.55 486.45 -371.4Q485.9 -368.6 484.05 -367.15Q482.5 -365.9 480.4 -366.9Q468.1 -372.75 459.25 -383.55Q455.9 -387.65 453.2 -392.2Q450.45 -396.8 445.6 -396.9Q440.35 -397.05 439.85 -390.45L439.55 -384.95Q438.75 -356.4 438.75 -327.8Q438.75 -320.35 439.4 -312.9L439.55 -308.75Q439.5 -305.15 442.15 -303.3Q443.05 -302.65 443.9 -302.65Q449.55 -302.8 451.15 -299.45L451.75 -297.75L453 -291.2Q454.25 -283.4 457.55 -276.05Q459.65 -271.4 463.15 -268.45Q468.7 -263.75 471.7 -257.3Q473.05 -254.35 475.05 -251.9Q483.7 -241.4 483.35 -228.5Q483.3 -226.45 482.75 -226.3Q475.25 -224 468 -227.35Q452.6 -234.45 437.05 -229.9Q438.25 -224.6 439.1 -219.05Q439.6 -215.6 441.35 -212.75Q448.2 -201.35 456.3 -190.75L458.75 -187.35Q462.25 -182.15 467.95 -181.35Q469.9 -181.1 470.7 -183.85Q474 -194.95 486.7 -192.8Q488.45 -192.45 489.8 -191.35Q494.25 -187.7 497.6 -181.15L499.95 -176.6Q501.3 -174.1 502.95 -172.05Q507.3 -166.65 512.05 -161.5Q521.8 -151.05 533.35 -141.85Q538.45 -137.8 541.2 -143L546.1 -152.65Q550.45 -161.8 558.65 -157.7Q561.3 -156.4 562.75 -154.3Q569.55 -144.45 578.9 -138.15Q581 -136.7 583.2 -135.65Q585.3 -134.65 587.8 -134.35Q591.8 -133.85 594.65 -136.05Q604.05 -143.5 608.55 -155Q610.55 -160.1 612 -165.35Q619.25 -169.75 622.05 -178.25Q624.75 -186.55 629.2 -193Q630.7 -195.2 631.75 -197.55Q634.45 -203.55 641 -202.85Q644 -202.55 645.7 -199.7Q650.55 -191.2 659.85 -187.7Q659.85 -189.75 660.2 -191.75Q662 -203 661.65 -214.9Q661.55 -217.6 662.25 -220.15Q663.55 -224.85 668.25 -223.8Q677.35 -221.9 685.2 -215.8Q688.15 -213.55 691.15 -211.55Q699.05 -206.35 705.75 -199.6Q715.9 -189.45 730.15 -191.45Q732.7 -191.8 734.8 -192.8Q741.45 -195.9 740.6 -205.4L739.1 -220L742.05 -221.8Q742.95 -222.35 742.95 -223.05Q743 -227.35 747.25 -227.25L754 -226.6L755.9 -226.2L759.2 -225.5Q767.35 -224.05 771.05 -218.9L788.5 -194.6Q790.1 -192.45 792.25 -191.1Q799.2 -186.7 802.2 -191.7Q807.25 -200.1 809.4 -210.75Q813.15 -229.75 816.45 -248.8Q821.7 -279.25 811.15 -304.9L810.1 -307.1Q807.2 -312.75 804.45 -307.1Q800.75 -299.5 797.95 -291.35Q796.95 -288.35 796.7 -285.5Q795.85 -276.3 786.75 -278Q785.8 -278.15 785.45 -279.05Q782.4 -286.2 782.75 -295.15Q783.75 -323.7 769.15 -348L766.4 -352.5Q763.3 -357.5 757.85 -353.2Q755.8 -351.6 753.85 -349.8L747.8 -343.65Q739.15 -334.1 728.5 -341.55Q725.85 -343.45 724.15 -346.1Q721.55 -350.25 719.1 -354.6Q705.45 -379.4 690.25 -403.7Q686.75 -409.3 680.6 -403.8Q677.85 -401.25 675.85 -398.15M576.15,-104.65Q574.05 -99.35 573.05 -93.75Q572.45 -90.45 571.1 -87.75Q570.75 -87.05 569 -87.05Q565.2 -87 563.1 -90.75Q562.15 -92.5 560.5 -93.9Q557.4 -96.6 553.6 -96.55Q550.35 -91.65 551.75 -84.35Q554.2 -71.7 559.8 -59.55Q562.15 -54.4 564.9 -49.5Q565.6 -48.25 567.25 -47.55Q578.5 -42.6 584.9 -54.15Q587.9 -59.5 588.8 -65.15Q589.6 -70.05 591.05 -74.9Q595.15 -88.35 593.55 -102.3L591.65 -103.85Q590.45 -104.7 589.3 -105.85Q584.45 -110.9 577.9 -106.85Q576.7 -106.1 576.15 -104.65" />
<path style="fill:#FFFFFF;fill-opacity:1" d="M634.65,-963.95Q638.65 -968.65 643.85 -973.45Q649 -978.25 651.25 -969L655.55 -950.4Q657.65 -941.05 656.95 -926.25Q656.35 -912.7 656.75 -899.1Q657.5 -873.75 653.45 -849Q652.1 -840.6 650.2 -832.3Q643.35 -802.45 634.45 -774.45Q634.1 -773.3 632.35 -773.3L628.9 -773.5Q625.15 -774.05 623.9 -769.85Q618.5 -751.7 620 -731.75Q620.4 -726.35 621.15 -721.05Q622.1 -714.1 623.55 -707.25L632.25 -666.5Q634.3 -657.2 644.45 -659.1L651.15 -660.25Q652.1 -660.4 652.7 -661.25Q656.4 -666.55 663.1 -669.5L665.05 -670.1Q670.55 -671.15 672.65 -665.45L674.5 -660.8L677.6 -653.15Q681.5 -643.4 686 -634.1L700.7 -603.8Q707.35 -590.2 701.7 -577.15Q700.95 -575.35 698.95 -574.6L695.95 -574.5Q693.25 -575.35 690.6 -576.65Q670.7 -586.45 654.2 -602.1Q648.65 -607.35 642.45 -611.8Q639.45 -613.95 635.8 -613.45L634.75 -586.2Q634.1 -571.95 634.3 -557.7Q634.45 -547.75 638.5 -538.3Q640.1 -534.55 640.9 -530.5Q643.85 -515.15 642.85 -499.2Q642.65 -495.8 642.05 -492.5Q641.8 -491.05 640.65 -490.1Q637.85 -487.8 632.45 -488.85Q631.5 -489 630.65 -489.65Q626.2 -492.95 620.7 -491.4Q619.55 -491.05 619.2 -489.6Q617.2 -479.9 613.15 -470.8L608.85 -460.9Q607.55 -457.7 606.85 -454.25Q604.15 -441.05 605.7 -427.2Q605.8 -426.4 606.6 -425.7Q611.25 -421.6 618.65 -420.35Q624.35 -419.4 628.3 -422.5Q628.95 -423 629.45 -424.2Q629.8 -425.05 630.65 -425.75Q630.55 -421.15 625.95 -418.25L621.7 -415.45Q617.8 -412.85 613.7 -410.45Q601.95 -403.65 589.55 -399.85Q581.7 -397.4 574 -399.5Q560.3 -403.25 547.7 -410.15Q545.9 -412.7 544.4 -416Q532.9 -441.45 517 -464.8Q509.4 -475.95 496.95 -476.7Q495.3 -476.75 494.1 -475.55Q492.7 -474.05 492.55 -471.95Q491.85 -459.75 491.85 -447.5Q487.8 -450.65 486.25 -458.3Q483.25 -473.15 481.25 -488.3Q479.05 -505.1 480 -522.35L480.9 -533.25Q481.2 -535.9 478.8 -538.05Q477.3 -539.35 476 -541.1L471.8 -547.15Q460.85 -563.25 452.85 -581Q447.7 -592.4 448.45 -605.35Q449 -615.5 449.05 -625.7Q449.15 -640.45 453.7 -654.4Q455 -658.35 455.35 -662.5Q455.65 -666.35 457.55 -669.25Q466.2 -665.8 475 -661.75Q476.45 -661.1 478.15 -661.1L477.95 -666.5Q477.7 -677.55 476 -688.25Q475.15 -693.65 475 -699.15Q474.7 -708 476.35 -716.5L478.15 -716.85L496.85 -718.05Q497.85 -718.2 498.65 -719.6Q502.65 -726.65 499.75 -734.9Q498.7 -737.95 498.2 -741.3Q497.3 -747.85 500.85 -751.8Q506.4 -758 512.4 -752.2Q514.5 -750.15 517.55 -750.15Q519.3 -750.15 521 -749.5Q520.5 -760.1 522.15 -770Q522.7 -773.3 522.9 -776.7Q523.6 -788.95 518.4 -800.2Q516.7 -803.9 516.1 -808.05Q514.45 -818.85 517.4 -828.45Q518.35 -831.55 522.5 -832.3Q523.55 -832.45 524.7 -833.5Q529.55 -837.9 534.05 -842.65Q534.6 -843.25 534.7 -844.25Q534.2 -831.45 540.1 -821.75L546.15 -811.7Q547.55 -809.3 547.95 -806.55Q549.55 -795.1 550.1 -783.5Q552.65 -786 554.35 -791.9L555.95 -798.3Q560.75 -820.6 556.85 -844.4Q556.15 -848.75 553.25 -852.6Q543.9 -865.1 536.9 -878.95Q532.75 -887.25 532.35 -896.4Q532.1 -902.5 533.6 -906.25L541.35 -928Q547.6 -946.05 549.6 -950.65Q551.55 -955.3 555.35 -955.25Q559.1 -955.25 561.6 -941.9Q564.1 -928.55 564.65 -926.65Q565.15 -924.8 567.65 -918.3Q570.1 -911.8 578.85 -908.8Q587.55 -905.8 591.35 -903.2Q595.15 -900.65 599.25 -902.1Q602.4 -903.2 604.35 -906.3Q607.55 -911.35 609.5 -917.15Q611.45 -922.95 617.05 -934.95Q622.65 -947 627.1 -953.65Q631.55 -960.3 634.65 -963.95M680.6,-403.8Q686.75 -409.3 690.25 -403.7Q705.45 -379.4 719.1 -354.6Q721.55 -350.25 724.15 -346.1Q725.85 -343.45 728.5 -341.55Q739.15 -334.1 747.8 -343.65L753.85 -349.8Q755.8 -351.6 757.85 -353.2Q763.3 -357.5 766.4 -352.5L769.15 -348Q783.75 -323.7 782.75 -295.15Q782.4 -286.2 785.45 -279.05Q785.8 -278.15 786.75 -278Q795.85 -276.3 796.7 -285.5Q796.95 -288.35 797.95 -291.35Q800.75 -299.5 804.45 -307.1Q807.2 -312.75 810.1 -307.1L811.15 -304.9Q821.7 -279.25 816.45 -248.8Q813.15 -229.75 809.4 -210.75Q807.25 -200.1 802.2 -191.7Q799.2 -186.7 792.25 -191.1Q790.1 -192.45 788.5 -194.6L771.05 -218.9Q767.35 -224.05 759.2 -225.5L755.9 -226.2L754 -226.6L747.25 -227.25Q743 -227.35 742.95 -223.05Q742.95 -222.35 742.05 -221.8L739.1 -220L740.6 -205.4Q741.45 -195.9 734.8 -192.8Q732.7 -191.8 730.15 -191.45Q715.9 -189.45 705.75 -199.6Q699.05 -206.35 691.15 -211.55Q688.15 -213.55 685.2 -215.8Q677.35 -221.9 668.25 -223.8Q663.55 -224.85 662.25 -220.15Q661.55 -217.6 661.65 -214.9Q662 -203 660.2 -191.75Q659.85 -189.75 659.85 -187.7Q650.55 -191.2 645.7 -199.7Q644 -202.55 641 -202.85Q634.45 -203.55 631.75 -197.55Q630.7 -195.2 629.2 -193Q624.75 -186.55 622.05 -178.25Q619.25 -169.75 612 -165.35Q610.55 -160.1 608.55 -155Q604.05 -143.5 594.65 -136.05Q591.8 -133.85 587.8 -134.35Q585.3 -134.65 583.2 -135.65Q581 -136.7 578.9 -138.15Q569.55 -144.45 562.75 -154.3Q561.3 -156.4 558.65 -157.7Q550.45 -161.8 546.1 -152.65L541.2 -143Q538.45 -137.8 533.35 -141.85Q521.8 -151.05 512.05 -161.5Q507.3 -166.65 502.95 -172.05Q501.3 -174.1 499.95 -176.6L497.6 -181.15Q494.25 -187.7 489.8 -191.35Q488.45 -192.45 486.7 -192.8Q474 -194.95 470.7 -183.85Q469.9 -181.1 467.95 -181.35Q462.25 -182.15 458.75 -187.35L456.3 -190.75Q448.2 -201.35 441.35 -212.75Q439.6 -215.6 439.1 -219.05Q438.25 -224.6 437.05 -229.9Q452.6 -234.45 468 -227.35Q475.25 -224 482.75 -226.3Q483.3 -226.45 483.35 -228.5Q483.7 -241.4 475.05 -251.9Q473.05 -254.35 471.7 -257.3Q468.7 -263.75 463.15 -268.45Q459.65 -271.4 457.55 -276.05Q454.25 -283.4 453 -291.2L451.75 -297.75L451.15 -299.45Q449.55 -302.8 443.9 -302.65Q443.05 -302.65 442.15 -303.3Q439.5 -305.15 439.55 -308.75L439.4 -312.9Q438.75 -320.35 438.75 -327.8Q438.75 -356.4 439.55 -384.95L439.85 -390.45Q440.35 -397.05 445.6 -396.9Q450.45 -396.8 453.2 -392.2Q455.9 -387.65 459.25 -383.55Q468.1 -372.75 480.4 -366.9Q482.5 -365.9 484.05 -367.15Q485.9 -368.6 486.45 -371.4Q489.45 -386.55 494.8 -401.45Q497.2 -408.15 502 -413.65Q508.45 -421 515.5 -414.45Q520.7 -409.6 523.3 -402.8Q528.55 -388.85 534.15 -375.15Q540.35 -360.1 541.25 -344.15Q541.6 -338 542.6 -332.05Q543.3 -327.8 545.1 -323.8Q552.4 -307.75 569 -306.25Q578.75 -305.4 586.7 -310.65Q587 -310.8 587.45 -309.95Q590.15 -305 591.05 -299.2Q593.2 -285.5 596.35 -272.05L598.1 -263.9Q599.95 -254.6 607.2 -248.1Q609.3 -246.2 611.95 -245.15Q622.95 -240.75 631.7 -247.15Q634.15 -248.9 635.4 -251.85Q638.5 -258.85 644.55 -260.65L653.25 -260.4Q654.7 -259.8 656.4 -259.9Q662.4 -260.25 667.5 -262.25Q661.85 -269 657.5 -276.7Q655.55 -280.2 654.35 -284.2Q650.9 -295.6 651.05 -307.7Q647 -313.55 640.65 -317.85Q636.95 -320.35 632.35 -319.95Q629 -319.65 626 -318.45Q623.85 -317.6 622.25 -315.45Q616.7 -307.65 608.55 -314.35Q600.2 -321.15 599.35 -331.85L598.75 -340.1Q598.15 -348.9 598.15 -357.75Q598.15 -361.8 599.5 -365.4Q600.7 -368.6 603.7 -370.65Q606.7 -372.7 610.25 -373.25Q615.3 -374.05 620.3 -373.35Q624.7 -372.7 628.9 -371.05Q640.65 -366.45 652.9 -367.15Q654.7 -367.25 656.5 -368.4Q663.8 -373 667.45 -381.9Q669.25 -386.3 671.5 -390.55Q673.55 -394.45 675.85 -398.15Q677.85 -401.25 680.6 -403.8M658.05,-287.05L658.1 -286.3Q658.6 -286.9 658.05 -287.05" />
</g>
</svg>
