<?xml version="1.0" encoding="utf-8"?>
<svg version="1.1" id="Layer_1"
xmlns="http://www.w3.org/2000/svg"
xmlns:xlink="http://www.w3.org/1999/xlink"
xmlns:author="http://www.sothink.com"
width="64px" height="517px"
xml:space="preserve">
<g id="2732" transform="matrix(1, 0, 0, 1, 16, 412.65)">
<path style="fill:#FFFFFF;fill-opacity:1" d="M18,-398.25Q18 -395.05 19.05 -392.75L21 -388.9L18.95 -383.7Q18.5 -382.6 18.5 -380.2Q18.5 -378.35 19.5 -375.55Q20.5 -372.9 21 -372.9Q27.8 -382.2 28.5 -382.2L29 -382.2Q27.1 -366.6 26.55 -360.75Q25.5 -349.8 25.5 -341.5Q25.5 -335.8 26.25 -331.9L27.05 -328.45Q26.5 -315.9 26.5 -302.8Q26.5 -289.75 27.7 -285.85Q28.45 -283.45 30.5 -278.15Q31.6 -280.15 33.05 -285.75L35 -292.7Q34.95 -285.75 35.5 -273.75Q36.2 -259.7 37 -255.45Q35.65 -251.05 33.15 -247.45Q32 -245.85 32 -238.75Q32 -235.45 35.25 -212.1Q38.5 -188.75 38.5 -185.4L37.9 -166.7L38.05 -166.45Q41.65 -160.95 43.5 -155.35Q44.6 -152.15 44.9 -135.75L45 -132Q44.5 -138 43.85 -141.6Q42.8 -147.25 40.75 -148.55Q38.5 -150.05 37.6 -150.95Q37.8 -143.75 38.45 -133.9L38.6 -131.5L37.55 -127.35Q36.5 -122.65 36.5 -119.35L37.9 -115.85Q39.6 -111.05 41.1 -104.8Q43.65 -94.1 44.3 -56.5Q43.2 -76.5 40.2 -69.05Q41 -73.15 43 -77.95Q41.05 -74.25 39.65 -71.05L38.5 -75.3L39.2 -69.95Q36.45 -63.7 36.15 -60.1Q36 -57.95 36 -49.3Q36 -44.45 36.75 -39.4Q37.5 -34.35 37.5 -27.95L37 -20.6Q36.5 -14.85 36.5 -13.25Q36.5 -12.05 40.5 7.55Q42.55 17.6 43.8 26.4L38.6 36.25Q33 46.8 33 51.45Q33 54.15 34.2 55.9L36.7 58.55Q39.8 62 38 70.15L41 70.15Q42.55 65.9 46.5 46.15Q46.5 48.25 47 55.35L47.5 64.15Q47.5 76.7 43 90.15Q38.5 103.5 34.5 103.5L18.75 95.5Q18.15 95.5 16.75 96.85Q15.4 98.2 14.75 98.2Q12.35 98.2 2 90.15Q1.4 90.15 0.15 91.5Q-1.1 92.85 -1.75 92.85Q-2.8 92.85 -9.1 81.75L-9.2 80.7L-9.5 76.15L-9.35 68.55Q-9 67.2 -6.5 66.15Q-6.8 61.1 -9 55.5Q-4.55 54 -4.5 43.75L-4.65 34.4Q-4.7 28.5 -4 24.8Q-3.15 26.4 -2.55 29.05Q-2 31.3 -2 32.8Q-1.2 32.8 -0.3 31.45Q0.65 30.1 1.25 30.1Q2 30.1 2.15 31.6L2.5 34.1L3 34.1Q3.35 19.7 5 15.45Q2.45 11.7 1.65 9.55Q0.5 6.5 0.5 2.1L0.75 -9.4L1 -18.6Q1 -20.3 1.25 -21.8L1.5 -24.6Q2.4 -24.2 4.4 -20.3L6.5 -16.6Q6 -55.4 7.65 -62.2Q8.65 -66.65 8.9 -69.15Q9.35 -74.1 9.45 -84.5Q5.2 -88.65 5.05 -97.05L5.2 -108.95Q5.25 -117.85 4.5 -126Q6.3 -117.45 10.8 -115.2Q15.45 -112.8 16.5 -108.65L17.5 -108.65L17.5 -116.65Q17.4 -131.1 15.55 -139.2Q12.85 -150.95 12.5 -154.05L11.45 -147.5Q10.5 -142.3 10.5 -138Q10.5 -136 10.8 -133.6L11.5 -128.7Q9.55 -127.6 9.15 -129.75Q9 -130.55 9 -136Q9 -140.95 10 -146.15Q11 -151.35 11 -154.05Q11 -158.55 9.2 -163.35Q7.7 -167.4 7.25 -167.4Q4.9 -167.4 4.25 -154.55Q4 -150.05 4 -138Q2.6 -145.5 0.95 -160.15L-0.5 -174.7Q-0.5 -182.05 3.5 -198.35L6.3 -210.35Q7.5 -216.35 7.5 -218.75Q7.5 -221.55 6.5 -226.1L5.45 -230.25L6.8 -231.85Q9 -234.9 9 -241.45L9 -241.55L8.75 -247.85Q8.35 -250.8 7.25 -252.5L7.8 -257.3Q8 -260 8 -268.8Q8 -280.25 4.45 -294.55Q3.35 -298.8 2.05 -300.95L1 -299.5Q-2.15 -297.75 -4.3 -276.65L-3.9 -274.15Q-2.2 -263.45 -2 -255.45L-2 -254.1Q-3.55 -260 -5.25 -265.7Q-7.25 -239.3 -5.5 -214.1L-5.5 -212.75Q-10 -235.85 -10.25 -262Q-12.4 -224.75 -12.8 -224.5Q-13.35 -224.1 -13.8 -252.9Q-14.3 -281.75 -14.7 -283.45Q-15.2 -285.75 -14.85 -289.9Q-14.5 -294 -14.5 -298.15Q-14.5 -302.15 -15.25 -310.3L-16 -320.15Q-16 -329.25 -14 -337.5Q-11.65 -347.4 -11.05 -353.8L-11.5 -343L-12 -330.85Q-12 -316.85 -11.5 -312.85Q-9.05 -319.35 -6.3 -329L-4 -336.85Q-3.2 -336.85 -1.85 -332.6L-1.35 -331L-1 -338.85Q-1 -343.65 -1.75 -348.6Q-2.5 -353.55 -2.5 -364.2Q-2.5 -370.9 -1 -382.9Q0.25 -392.75 0.45 -397.7L0.25 -390.5L0 -381.55Q0 -375.8 0.75 -371.95L1.5 -367.55L1 -361.15Q0.5 -356.45 0.5 -354.85Q0.5 -348.85 1.6 -342.3L2.6 -336.6L3.2 -340.3Q3.5 -343.4 3.5 -362.85Q3.5 -369.3 2.5 -380.9L2.25 -384.2L3.3 -389.3Q5.5 -399.55 6.5 -402.25L7 -402.25Q7.05 -398.75 7.95 -395.7Q8.75 -392.9 9.5 -392.9Q10.4 -392.9 14.45 -402.9Q17.9 -411.45 21.35 -412.65Q18 -407.6 18 -398.25M1,-255.45Q0.55 -262 -0.85 -272.25L-1.4 -276.55Q0.2 -274.4 0.55 -272.8Q1.15 -270 1 -255.45M1.8,53.85Q0.6 47.75 -0.5 44.8Q0.25 52.25 -0.8 57.75Q-1.85 63.1 -4 63.5L-3.25 75.1L-2.85 77.1L-2 80.85L-2 77.1Q-0.6 76.45 0.3 72.95Q1.85 66.7 3 66.15Q3.2 61.35 1.8 53.85M-1.95,-320.95L-2 -320.85L-2 -320L-1.95 -320.95M-2.25,-70.25Q-0.2 -65.95 0.5 -65.95Q0.1 -62.9 -0.2 -57.8L-0.5 -49.95Q-0.5 -51.95 -2 -63L-3.3 -72.5L-2.25 -70.25" />
</g>
</svg>
