<?xml version="1.0" encoding="utf-8"?>
<svg version="1.1" id="Layer_1"
xmlns="http://www.w3.org/2000/svg"
xmlns:xlink="http://www.w3.org/1999/xlink"
xmlns:author="http://www.sothink.com"
width="33px" height="26px"
xml:space="preserve">
<g id="2728" transform="matrix(1, 0, 0, 1, -26.95, 8.95)">
<path style="fill:#FFFFFF;fill-opacity:1" d="M38.4,-8.35L38.5 -8.35L38.3 -8.3L38.4 -8.35M35.35,-5.4Q37.6 -5.75 38.85 -8.8L41.05 -8.95L40.65 -8.45Q40.05 -8 39.1 -7.95Q38.45 -5.7 36.15 -5.05Q36.7 -2.95 35.7 -1.35L35.55 -3.05L35.35 -5.4M57.3,-1.1L57.4 -1L57.4 -1.05L57.45 -1L57.5 -0.95Q58.1 0 59.3 0.85L59.35 0.95L59.35 1.1L59.2 1.5Q59.05 1.9 57.3 2.35Q56 3.5 56.65 4.75Q57.3 6.05 54.4 8Q54.4 7.3 55.35 6.4Q56.25 5.6 56.1 5L55.9 3.95L55.75 4.15L55.9 3.8L56 3.45L56.25 2.85L56.3 2.7L56.3 2.65L57.2 1.7L58.2 1.05L56.75 -0.35L52.7 -2.1L57.3 -1.1M28.7,15.3L30.45 15.45Q29.65 16.15 28.55 15.85L27.95 15.55Q25.8 13.15 28.2 10.5L27.75 12.4Q27.3 14.4 28.7 15.3M34.4,14.85Q34.7 16.05 34.15 16.3L34.25 16.35L33.9 16.5L32.85 16.6L31.4 16L33.3 16Q33.75 16.05 33.9 15.35L33.65 14.7Q33.3 13.5 34.65 12.35L34.4 13Q34.1 13.6 34.4 14.85" />
</g>
</svg>
