<?xml version="1.0" encoding="utf-8"?>
<svg version="1.1" id="Layer_1"
xmlns="http://www.w3.org/2000/svg"
xmlns:xlink="http://www.w3.org/1999/xlink"
xmlns:author="http://www.sothink.com"
width="57px" height="67px"
xml:space="preserve">
<g id="3127" transform="matrix(1, 0, 0, 1, 26.45, 23.2)">
<path style="fill:#79260B;fill-opacity:1" d="M-18.3,14.9L-18.75 13.75L-18.6 13.65L-17.8 13.5Q-16.95 13.5 -16.5 14.1Q-16.2 14.55 -16.2 14.9Q-16.2 15.25 -16.35 15.4L-17 15.55Q-17.8 15.55 -18.3 14.9" />
<path style="fill:#872EBD;fill-opacity:1" d="M1.9,-14.55Q1.05 -12.6 -1.55 -12.6Q-6.9 -12.6 -6.9 -17.25Q-6.9 -18.75 -6.25 -20L-5 -21.35L-1.65 -21.1L-0.7 -20.8Q2.2 -19.65 2.2 -16.8Q2.2 -15.3 1.9 -14.55M3.5,-4.8Q5.35 -4.8 6.05 -3.65Q6.55 -2.9 6.55 -1.4Q6.55 1.3 1.9 1.3Q0.7 1.3 0.1 0.9Q-0.8 0.3 -1.05 -1.25Q-0.8 -2.5 0.3 -3.5Q1.75 -4.8 3.5 -4.8M26.9,-12.45Q27.35 -11.7 27.35 -10.75Q27.35 -9.75 25.65 -9.75Q24.55 -9.75 23.85 -10.7Q23.45 -11.2 23.3 -11.8L23.5 -11.8L23.45 -12.1L23.35 -12.55Q23.35 -13.4 25 -13.4Q26.25 -13.4 26.9 -12.45M-21.7,-1.75Q-20.7 -1.75 -20.2 -0.95Q-19.9 -0.4 -19.9 0.35Q-19.9 1.85 -21 2.45L-22.35 2.75Q-23.55 2.75 -23.9 1.8L-23.95 1.3L-24.05 0.35Q-24.05 -0.4 -23.55 -1.2Q-22.85 -1.75 -21.7 -1.75" />
<path style="fill:#621B8E;fill-opacity:1" d="M2.2,-16.8Q2.2 -19.65 -0.7 -20.8L-1.65 -21.1L-5 -21.35L-6.25 -20Q-6.9 -18.75 -6.9 -17.25Q-6.9 -12.6 -1.55 -12.6Q1.05 -12.6 1.9 -14.55Q2.2 -15.3 2.2 -16.8M6.5,-16.6Q6.3 -13.35 3.65 -10.55Q0.4 -7 -4.55 -7Q-7.2 -7 -8.5 -8.8L-9.05 -9.75L-10.25 -10.55Q-12.85 -12.4 -12.85 -15Q-12.85 -17.85 -10.6 -20.3Q-7.95 -23.2 -3.6 -23.2Q2.95 -23.2 5.4 -19.35Q6.2 -18.15 6.5 -16.6M0.3,-3.5Q-0.8 -2.5 -1.05 -1.25Q-0.8 0.3 0.1 0.9Q0.7 1.3 1.9 1.3Q6.55 1.3 6.55 -1.4Q6.55 -2.9 6.05 -3.65Q5.35 -4.8 3.5 -4.8Q1.75 -4.8 0.3 -3.5M13.9,3.7L11.05 3.05Q10.6 4.75 9.25 6.1Q7.05 8.35 3.35 8.35Q0.1 8.35 -1.6 6.6L-2.15 5.95Q-1.9 8.5 -4 9.9Q-6.15 11.25 -9.1 10.7Q-12.05 10.2 -13.75 8.2L-13.8 7.7Q-13.8 6.15 -12.5 4.5Q-10.85 2.45 -8.2 2.45Q-7.05 2.45 -6 3.05L-6.1 2.55Q-6.1 0.25 -4.2 -2.2Q-1.4 -5.75 3.8 -5.75Q7.25 -5.75 8.85 -4.6L9.25 -4.25Q9.45 -4.85 9.9 -5.3Q11.05 -6.55 13.65 -6.55Q16.45 -6.55 18.25 -5.1Q20 -3.65 20 -1.4Q20 0.3 18.95 1.9L19.3 2Q17.25 3.7 13.9 3.7M25,-13.4Q23.35 -13.4 23.35 -12.55L23.45 -12.1L23.5 -11.8L23.3 -11.8Q23.45 -11.2 23.85 -10.7Q24.55 -9.75 25.65 -9.75Q27.35 -9.75 27.35 -10.75Q27.35 -11.7 26.9 -12.45Q26.25 -13.4 25 -13.4M28.65,-12.95Q29.75 -11.85 29.75 -10.75Q29.75 -9.05 27.7 -8.45L25.2 -8.15Q24.25 -8.15 23.2 -8.8Q21.45 -9.85 21.45 -12.05L21.7 -13.55Q22.45 -14.4 24.4 -14.4Q27.1 -14.4 28.65 -12.95M-23.6,-2.45Q-22.65 -3.15 -21.4 -3.15L-19.35 -2.7L-18.75 -2.1Q-17.95 -0.7 -17.95 1.8Q-17.95 4.65 -19.25 6.1Q-20.35 7.4 -22.2 7.4Q-23.25 7.4 -24.35 6.6Q-25.65 5.65 -25.65 4.3L-25.45 2.95Q-26.45 2.15 -26.45 0.75Q-26.45 -0.4 -25.65 -1.25Q-24.95 -1.95 -24.05 -2L-23.6 -2.45M-23.55,-1.2Q-24.05 -0.4 -24.05 0.35L-23.95 1.3L-23.9 1.8Q-23.55 2.75 -22.35 2.75L-21 2.45Q-19.9 1.85 -19.9 0.35Q-19.9 -0.4 -20.2 -0.95Q-20.7 -1.75 -21.7 -1.75Q-22.85 -1.75 -23.55 -1.2" />
<path style="fill:#480F6B;fill-opacity:1" d="M19.3,2Q20.9 2.35 22.25 3.7Q24.15 5.65 24.15 8.3Q24.15 12.05 19.55 12.85L19.85 15Q19.85 18.45 17.25 21Q14.7 23.55 11.2 23.55L10.25 23.35L9.9 24.05Q8.95 25.8 6.95 25.8Q5.5 25.8 4.8 25.3L4.15 27.75Q2.95 30.45 0 30.45Q-2.05 30.45 -3.2 29Q-4.3 27.7 -4.35 25.7L-5.55 25.8Q-7.4 25.8 -9.15 24.55Q-11.05 23.1 -11.05 21.25Q-11.05 19.25 -9.5 17.65L-10.45 17.15Q-12.5 15.85 -12.5 13.65Q-12.5 12.05 -11.7 11L-12.65 10.2Q-13.6 9.2 -13.75 8.2Q-12.05 10.2 -9.1 10.7Q-6.15 11.25 -4 9.9Q-1.9 8.5 -2.15 5.95L-1.6 6.6Q0.1 8.35 3.35 8.35Q7.05 8.35 9.25 6.1Q10.6 4.75 11.05 3.05L13.9 3.7Q17.25 3.7 19.3 2M-9.6,33.6L-8.5 33.15L-7.6 33Q-6.45 33 -5.95 33.8L-5.75 34.15Q-5.6 34.4 -5.6 34.7Q-5.6 36.05 -7.85 36.05Q-9.4 36.05 -9.6 34.45L-9.65 34.15L-9.65 33.9L-9.6 33.6M-17,27.5Q-17 28.25 -17.45 28.35L-18 28.35Q-19.2 28.35 -19.7 27.8L-19.7 26.95L-19.25 26.5Q-18.85 26.15 -18.45 26.15Q-17.45 26.15 -17.15 26.75Q-17 27.05 -17 27.5M-1.15,43.4L-2.6 43.75Q-4.65 43.75 -4.65 41.55L-4.65 41.35Q-3.65 39.4 -2.15 39.4Q-1.25 39.4 -0.65 40.4Q-0.2 41.15 -0.2 41.8Q-0.2 42.95 -1.15 43.4M27.2,4.05L27 3.45L27.3 2.85Q27.8 2.1 28.5 2.1Q29.15 2.1 29.45 2.9L29.6 3.7Q29.6 4.45 29.3 4.65L28.4 4.85Q27.6 4.85 27.2 4.05M23.1,22.75Q24 22.75 24.5 23.9L24.8 25.25Q24.8 26.95 22.4 26.95Q21.15 26.95 20.65 25.95Q20.35 25.5 20.3 24.85L21.6 23.55Q22.45 22.75 23.1 22.75M11.5,34.05L11.5 34.15L11.05 35.75Q10.4 36.85 9.35 36.85Q7.55 36.85 7.15 35.75Q4.9 35.65 4.45 34.15L4.3 33.25Q4.3 32.65 4.6 32.2Q5.1 31.55 6.05 31.55Q7.05 31.55 7.95 32.3L8.4 32.65Q9 32.2 9.65 32.1Q10.55 32.1 11.05 32.55Q11.5 33 11.5 34.05M14.8,35.25Q15.3 35.25 16 35.75Q16.1 35.15 16.65 34.6L17.3 34.15L17.7 34.15L17.75 34.15L18.5 34.65Q18.85 35 18.85 35.95Q18.9 36.9 17.8 37.95Q16.7 38.95 15.25 38.95Q12.8 38.95 12.8 37.35Q12.8 36.45 13.25 35.9Q13.8 35.25 14.8 35.25" />
</g>
</svg>
