<?xml version="1.0" encoding="utf-8"?>
<svg version="1.1" id="Layer_1"
xmlns="http://www.w3.org/2000/svg"
xmlns:xlink="http://www.w3.org/1999/xlink"
xmlns:author="http://www.sothink.com"
width="46px" height="31px"
xml:space="preserve">
<g id="491" transform="matrix(1, 0, 0, 1, 0, -3.9)">
<path style="fill:#1E2B35;fill-opacity:1" d="M43.95,15.65Q44.3 15.45 43.4 14.75Q43.15 14.55 42.85 14.45Q41.65 13.6 39.9 12.85L39.65 12.75Q37.55 11.9 34.3 11.15L34.15 11.75L34 12.3L33.95 12.75L34 12.8L37.05 13.85L37.75 14L40.05 14.9L42.85 15.7L43.35 15.7L43.95 15.65M42.85,13.05Q44.55 14.05 45.35 15Q45.95 15.75 45.85 16.25L45.35 16.9L42.85 17.15L42.6 17.1L35.4 15.05L34 14.65L33.6 14.5L33.35 15.5Q32.05 19.6 27.35 19.7L22.3 19.2Q20.8 18.8 19.8 18.1Q17.45 16.4 17.35 12.95Q16.7 12.45 15.95 12.55L15.1 12.75Q14.95 13.1 14.95 13.4L13.9 16.05Q13.3 16.95 12.35 17.45L8.9 18.1L3.3 17.55Q2.15 17.3 1.4 16.55Q0.1 15.25 0.05 12.6Q-0.25 8.5 1.4 6.25L1.55 6.05Q3.1 3.9 7.3 3.9L8.2 3.9Q13.05 4.1 14.15 4.65Q15.15 5.1 15.4 6.8L15.45 7L16.05 7L16.5 7L17.2 7L18.15 7.3Q18.85 5.75 19.05 5.8Q19.95 4.9 22.3 4.75L24.5 4.8L26.25 4.85Q30 5.25 31.85 6L33.2 6.8L34 7.95L34.05 8Q34.4 8.75 34.3 9.6Q38.25 10.75 40.8 11.9L41.7 12.4L42.85 13.05M26.85,6.55L25.6 6.45L25.5 6.45Q23.55 6.35 22.3 6.5Q20.2 6.75 19.9 7.65L19.7 8.65L19.5 9.75L19.45 9.95Q18.15 16.15 22.95 17.45L28.35 17.7Q30.8 17.25 31.85 13.7Q32.35 11.9 32.3 10.15Q32.1 7.55 29.45 6.7L26.85 6.55M9.2,5.8L6.25 5.8L5.85 5.85L4.45 6.05Q2.7 6.4 2.15 9.15L1.8 11.55Q1.75 12.5 1.85 13.2L1.85 13.25L1.95 13.65L2 13.85Q2.25 14.7 2.9 15.2Q3.65 15.8 5.3 16.15L9.95 16Q11.45 15.75 12.3 14.85Q13.15 13.8 13.4 12Q13.9 8.65 13.6 7.45L13.55 7.4L13.05 6.55Q12.6 6.1 11.8 6L11.4 6L9.2 5.8M15.35,10.95L17.1 10.8L17.4 10.95L17.55 9.8L17.7 8.85L17.2 8.7Q16.4 8.35 15.45 8.7L15.4 9.55L15.35 10.95" />
<path style="fill:#6B869C;fill-opacity:1" d="M36.3,12.75Q34.05 12.05 34.15 11.75L34.3 11.15Q37.55 11.9 39.65 12.75L39.9 12.85Q41.65 13.6 42.85 14.45Q43.15 14.55 43.4 14.75Q44.3 15.45 43.95 15.65L42.55 15.1L40.1 14.1L39.75 13.95L40.95 13.9L40.9 13.8Q39.2 12.6 36.9 12.2L36.8 12.25L37.6 13.2L36.3 12.75M2.75,9.35Q3.55 7.45 4.05 8.15L5.4 8.25L6.2 7.4L5.95 6.8L6.7 6.45Q7.8 6.05 9.2 5.8L11.4 6Q10.75 6.1 10.15 6.35Q7.6 7.3 7.15 8.3Q7.6 8.4 7.6 9.25Q7.6 10.7 6.15 10.7Q5.2 10.7 4.9 10.4L4.4 9.95L3.75 10.55L2.85 11.75L1.95 13.65L1.85 13.25L1.85 13.2Q1.75 12.5 1.8 11.55L2.75 9.35M16,9.6L15.4 9.55L15.45 8.7Q16.4 8.35 17.2 8.7L17.7 8.85L17.55 9.8L16 9.6M6.1,8.85Q5.5 9.9 6.75 9.65L6.8 9.5Q6.9 8.85 6.2 8.8L6.1 8.85" />
<path style="fill:#E2E2E2;fill-opacity:1" d="M37.6,13.2L36.8 12.25L36.9 12.2Q39.2 12.6 40.9 13.8L40.95 13.9L39.75 13.95L37.6 13.2M19.5,9.75L19.7 8.65L19.9 7.65Q20.2 6.75 22.3 6.5Q23.55 6.35 25.5 6.45L25.6 6.45L26.85 6.55L25.55 6.6L23.75 6.9L22.85 7.35Q23.3 7.65 23.1 8.25L22.5 9.05L22.3 9.15L21.6 9.15L21 8.5L20.35 8.85L20.25 8.95L19.45 10.05L19.45 9.95L19.5 9.75M24.75,9.75L24.8 9.45L25.25 9.1L26.05 9.25L26.15 9.4L26.25 9.7L26.15 10.25Q25.35 10.65 24.8 9.85L24.75 9.75M1.8,11.55L2.15 9.15Q2.7 6.4 4.45 6.05L5.85 5.85L6.25 5.8L9.2 5.8Q7.8 6.05 6.7 6.45L5.95 6.8L6.2 7.4L5.4 8.25L4.05 8.15Q3.55 7.45 2.75 9.35L1.8 11.55M6.2,8.8Q6.9 8.85 6.8 9.5L6.75 9.65Q5.5 9.9 6.1 8.85L6.2 8.8" />
<path style="fill:#354858;fill-opacity:1" d="M43.35,15.7L42.85 15.7L40.05 14.9L37.75 14L37.05 13.85L34 12.8L33.95 12.75L34 12.3L34.15 11.75Q34.05 12.05 36.3 12.75L37.6 13.2L39.75 13.95L40.1 14.1L42.55 15.1L43.95 15.65L43.35 15.7M22.3,15.95Q20.85 15.25 20.25 13.9L22.3 14.15Q24.8 14.25 26.8 13.05Q29.55 11.45 30.4 8.85Q31.35 10.55 30.6 13.15Q29.9 15.8 27.8 16.3Q25.6 16.8 23.3 16.3L22.3 15.95M12.55,11.9Q12 14.4 10 15L5.75 15.2Q3.55 14.75 2.7 13.1Q6.35 13.65 8.9 12Q11.45 10.3 12.15 7.8Q13.1 9.35 12.55 11.9M15.4,9.55L16 9.6L17.55 9.8L17.4 10.95L17.1 10.8L15.35 10.95L15.4 9.55" />
<path style="fill:#516B80;fill-opacity:1" d="M29.45,6.7Q32.1 7.55 32.3 10.15Q32.35 11.9 31.85 13.7Q30.8 17.25 28.35 17.7L22.95 17.45Q18.15 16.15 19.45 9.95L19.45 10.05L20.25 8.95L20.35 8.85L21 8.5L21.6 9.15L22.3 9.15L22.5 9.05L23.1 8.25Q23.3 7.65 22.85 7.35L23.75 6.9L25.55 6.6L26.85 6.55L29.45 6.7M24.8,9.85Q25.35 10.65 26.15 10.25L26.25 9.7L26.15 9.4L26.05 9.25L25.25 9.1L24.8 9.45L24.75 9.75L24.8 9.85M23.3,16.3Q25.6 16.8 27.8 16.3Q29.9 15.8 30.6 13.15Q31.35 10.55 30.4 8.85Q29.55 11.45 26.8 13.05Q24.8 14.25 22.3 14.15L20.25 13.9Q20.85 15.25 22.3 15.95L23.3 16.3M2.85,11.75L3.75 10.55L4.4 9.95L4.9 10.4Q5.2 10.7 6.15 10.7Q7.6 10.7 7.6 9.25Q7.6 8.4 7.15 8.3Q7.6 7.3 10.15 6.35Q10.75 6.1 11.4 6L11.8 6Q12.6 6.1 13.05 6.55L13.55 7.4L13.6 7.45Q13.9 8.65 13.4 12Q13.15 13.8 12.3 14.85Q11.45 15.75 9.95 16L5.3 16.15Q3.65 15.8 2.9 15.2Q2.25 14.7 2 13.85L1.95 13.65L2.85 11.75M12.15,7.8Q11.45 10.3 8.9 12Q6.35 13.65 2.7 13.1Q3.55 14.75 5.75 15.2L10 15Q12 14.4 12.55 11.9Q13.1 9.35 12.15 7.8" />
<path style="fill:#1C0F09;fill-opacity:1" d="M24.1,22.05L27.2 24.45Q29.9 26.5 32.8 24.4Q32.8 26 32.15 28.05L31.6 29.4Q30.45 32.2 26.6 33.65L23.05 34.25Q21.15 34.2 19.5 33.35Q16.15 31.75 14.2 29.95L14.25 30.1L14.2 30.15Q14.05 30 12.75 30.9Q11.35 31.7 9.6 32.15L4.9 31.7Q2 30.85 0.6 27.1Q0.15 26 0.05 24.9Q-0.25 22.2 1.4 19.45Q3.05 21.35 4.25 21.7L6.5 21.85L9.15 20.65Q12.8 19.75 14.85 22.55L15.9 21.85Q16.55 21.05 18.6 20.9Q20.6 20.65 22.15 21.3L24.1 22.05M3.5,28.05L3.7 28.2Q5.4 29.65 7.15 29.85Q8.85 29.95 11.3 28.8Q13.7 27.6 14.65 27.9L17.4 29.9Q19.6 31.7 23.8 31.35Q27.1 31.05 29.2 28.8L29.7 28.25L30.2 27.45Q29.15 27.7 27.1 26.9Q24.9 26.1 22.5 24.25Q20 22.35 17.5 23.75L15.6 24.8Q14.6 25.45 12.7 23.8Q10.7 22.1 9.25 23.2Q7.7 24.2 6.15 24.35Q4.5 24.45 2.35 22.65Q1.75 22.75 1.8 24.45L2 25.55Q2.35 26.95 3.5 28.05" />
<path style="fill:#412C20;fill-opacity:1" d="M29,28.8L29.7 28.25L29.2 28.8L29 28.8" />
<path style="fill:#2E1E15;fill-opacity:1" d="M29.2,28.8Q27.1 31.05 23.8 31.35Q19.6 31.7 17.4 29.9L14.65 27.9Q13.7 27.6 11.3 28.8Q8.85 29.95 7.15 29.85Q5.4 29.65 3.7 28.2L3.5 28.05L5.25 28.45L7.1 28.6L7.9 28.65L7.85 27.8L8.65 27.85L9.65 28.15Q10.25 28.15 10.8 27.5Q11.35 26.8 12.5 26.8L15.65 27.3L15.85 27.1Q15.8 26.8 16.15 26.85L18.75 28.35Q21.7 29.85 24.4 29.85Q27.7 29.9 29 28.8L29.2 28.8" />
<path style="fill:#5B3F2F;fill-opacity:1" d="M3.5,28.05Q2.35 26.95 2 25.55Q2.2 24.9 2.8 24.9L4.3 25.65L5.95 26.35L8.2 25.5Q10.5 24.65 11.05 24.65Q11.95 24.65 12.7 25Q13.1 25.1 13.75 25.6L14.35 26Q15.9 25.9 16.65 25.5L17.8 24.85L18.4 25.5L20.85 24.85Q22 24.85 24.2 26.85Q26 28.55 29 28.8Q27.7 29.9 24.4 29.85Q21.7 29.85 18.75 28.35L16.15 26.85Q15.8 26.8 15.85 27.1L15.65 27.3L12.5 26.8Q11.35 26.8 10.8 27.5Q10.25 28.15 9.65 28.15L8.65 27.85L7.85 27.8L7.9 28.65L7.1 28.6L5.25 28.45L3.5 28.05M14.35,26L14.6 26.2L14.95 26.05L14.35 26" />
<path style="fill:#957867;fill-opacity:1" d="M29,28.8Q26 28.55 24.2 26.85Q22 24.85 20.85 24.85L18.4 25.5L17.8 24.85L16.65 25.5Q15.9 25.9 14.35 26L13.75 25.6Q13.1 25.1 12.7 25Q11.95 24.65 11.05 24.65Q10.5 24.65 8.2 25.5L5.95 26.35L4.3 25.65L2.8 24.9Q2.2 24.9 2 25.55L1.8 24.45Q1.75 22.75 2.35 22.65Q4.5 24.45 6.15 24.35Q7.7 24.2 9.25 23.2Q10.7 22.1 12.7 23.8Q14.6 25.45 15.6 24.8L17.5 23.75Q20 22.35 22.5 24.25Q24.9 26.1 27.1 26.9Q29.15 27.7 30.2 27.45L29.7 28.25L29 28.8M14.95,26.05L14.6 26.2L14.35 26L14.95 26.05" />
</g>
</svg>
