<?xml version="1.0" encoding="utf-8"?>
<svg version="1.1" id="Layer_1"
xmlns="http://www.w3.org/2000/svg"
xmlns:xlink="http://www.w3.org/1999/xlink"
xmlns:author="http://www.sothink.com"
width="42px" height="45px"
xml:space="preserve">
<g id="28" transform="matrix(1, 0, 0, 1, 0, 0)">
<linearGradient
id="LinearGradID_4" gradientUnits="userSpaceOnUse" gradientTransform="matrix(-0.00730896, 0.0156097, -0.0200958, -0.00939941, 22.15, 25.3)" spreadMethod ="pad" x1="-819.2" y1="0" x2="819.2" y2="0" >
<stop  offset="0" style="stop-color:#F8F8F8;stop-opacity:0.2" />
<stop  offset="1" style="stop-color:#FFFFFF;stop-opacity:0.701961" />
</linearGradient>
<path style="fill:url(#LinearGradID_4) " d="M41.25,20.9L41.25 21.7L40.7 25.4L40.65 25.5L39.95 28.6Q37.9 36.4 33.75 40.95Q31.5 43.25 28.7 44.8L0 29.7L0.75 28.3Q1.95 26.1 2.6 25.25L3 24.4L6.75 24.95Q12.65 24.95 15.2 21.65Q15.7 22.9 15.3 24.25Q18.2 22.55 20.15 20.7Q22 18.9 23.15 16.65Q24.2 14.35 24.6 12.2Q26.55 14.35 26.2 16.1Q27.4 14.8 27.9 11.75Q28.35 8.5 26.8 5.45Q27.9 5.6 28.8 6.7Q29.6 7.75 29.85 8.6Q30.4 4.75 27.3 0Q29.9 1.5 32.35 4.4Q36.55 10 36.2 13.2L36.7 11.1L36.65 8.9Q38.1 10.8 39.25 16.05Q39.75 18.3 39.85 20.45Q40.95 17.95 41 16.4Q41.3 18.55 41.25 20.9" />
</g>
</svg>
