<?xml version="1.0" encoding="utf-8"?>
<svg version="1.1" id="Layer_1"
xmlns="http://www.w3.org/2000/svg"
xmlns:xlink="http://www.w3.org/1999/xlink"
xmlns:author="http://www.sothink.com"
width="47px" height="39px"
xml:space="preserve">
<g id="3111" transform="matrix(1, 0, 0, 1, -2.85, -11.8)">
<path style="fill:#F079FF;fill-opacity:1" d="M34.9,39.55Q36.3 37.65 35.4 33.6Q25.95 39.4 16.05 39.45Q6.1 39.45 3.8 35.15Q2.85 32.4 2.85 29.45Q2.85 20.65 8.35 15.9Q13.15 11.8 20.75 11.8Q25.85 11.8 28.4 13.65L29.4 14.5Q29.7 14.4 29.75 14.9L33.1 15.1Q36.4 14.75 42.9 17.85Q44.95 18.75 46.3 20.25Q49.3 35.3 34.9 39.55" />
<path style="fill:#DB2AF0;fill-opacity:1" d="M46.3,20.25Q49.35 23.45 49.35 29.35Q49.35 37.8 43.5 44.25Q37.6 50.65 27.55 50.65Q17.45 50.65 10.25 44.35Q7.4 41.9 5.7 39.1Q4.45 37.2 3.8 35.15Q6.1 39.45 16.05 39.45Q25.95 39.4 35.4 33.6Q36.3 37.65 34.9 39.55Q49.3 35.3 46.3 20.25" />
</g>
</svg>
