<?xml version="1.0" encoding="utf-8"?>
<svg version="1.1" id="Layer_1"
xmlns="http://www.w3.org/2000/svg"
xmlns:xlink="http://www.w3.org/1999/xlink"
xmlns:author="http://www.sothink.com"
width="37px" height="12px"
xml:space="preserve">
<g id="840" transform="matrix(1, 0, 0, 1, -12.1, -8.1)">
<linearGradient
id="LinearGradID_1117" gradientUnits="userSpaceOnUse" gradientTransform="matrix(0, 0.00366211, -0.00564575, 0, 16.75, 10.85)" spreadMethod ="pad" x1="-819.2" y1="0" x2="819.2" y2="0" >
<stop  offset="0" style="stop-color:#FAED2D;stop-opacity:1" />
<stop  offset="1" style="stop-color:#FFFEF3;stop-opacity:1" />
</linearGradient>
<path style="fill:url(#LinearGradID_1117) " d="M44.5,15.05L46.1 8.1L48.4 8.1L46.7 15.05L44.5 15.05M37.9,15.15L39.6 8.1L42.2 8.1L43.95 15.05L41.4 15.1L40.65 12.15L39.95 15.1L37.9 15.15M34.75,15.15L32.9 8.1L35.8 8.1L37.4 15.15L34.75 15.15M23.75,15.3L23.75 8.1L32.3 8.1L32.3 10.4L26.6 10.4L26.6 12.85L31.1 12.85L31.1 15.1L26.6 15.1L26.6 15.25L23.75 15.3M12.1,15.45L12.1 8.1L15.15 8.1L19.2 15.2L19.15 14.4L19.15 8.1L21.35 8.1L21.35 15.35L16.2 15.4L14.25 12L14.25 12.4L14.3 12.9L14.3 15.4L12.1 15.45" />
<path style="fill:#EEBE23;fill-opacity:1" d="M43.95,15.05L44.2 16.2L44.4 15.4L44.5 15.05L46.7 15.05L45.4 20.1L42.65 20.1L41.4 15.1L43.95 15.05M37.4,15.15L37.45 15.4L37.55 15.8L37.65 16.2L37.9 15.15L39.95 15.1L38.75 20.1L36 20.1L34.75 15.15L37.4 15.15M26.6,15.25L26.6 17.75L32.3 17.75L32.3 20.1L23.75 20.1L23.75 15.3L26.6 15.25M21.35,15.35L21.35 20.1L18.95 20.1L16.2 15.4L21.35 15.35M14.3,15.4L14.3 20.1L12.1 20.1L12.1 15.45L14.3 15.4" />
</g>
</svg>
