<?xml version="1.0" encoding="utf-8"?>
<svg version="1.1" id="Layer_1"
xmlns="http://www.w3.org/2000/svg"
xmlns:xlink="http://www.w3.org/1999/xlink"
xmlns:author="http://www.sothink.com"
width="52px" height="40px"
xml:space="preserve">
<g id="1253" transform="matrix(1, 0, 0, 1, 0.8, -3.6)">
<path style="fill:#BB482E;fill-opacity:1" d="M36.8,22.3L35.35 20.7L37.6 18.95L38.65 18.1Q41.7 15.4 43 14.75L42.9 15L41.65 16.25L39.85 18L36.85 21L37.6 21.55L36.85 22.2L36.8 22.3M15.8,15.15L15.75 15.65L14.2 15.4L14.8 12.6L15.15 9.7L15.15 9.15L15.55 10.95Q15.7 11.9 15 13.95Q14.9 14.7 15.8 15.1L15.8 15.15M34.7,18.45L34.35 18.5L34.05 18.4L33.6 18.25Q32.7 17.85 32.4 17.25L32.5 17.2L32.65 17.25L32.9 16.85L33.1 16.2L33.05 15.75L32.9 15.6L32.65 15.5Q32.4 15.35 32.3 15.65L32.25 15.75L32.25 15.45L32.55 12L32.5 10.35L32.7 9.7Q33.05 11.25 35.05 12.6L35 12.65L34.95 12.75Q34.8 13.05 35.1 13.3Q35.65 13.8 36.3 13.5L36.4 13.4L37.2 13.75L39.75 14.15L41.6 14.25L39.8 15.55L37.85 17L37 17.6Q35.75 18.35 34.7 18.45M42.75,23.25L43.4 24.8L43 24.5Q42.75 24.4 42.6 24.65Q42.3 25.15 42.75 25.65Q43.2 26.1 43.75 25.95L43.75 25.85L43.85 25.65L45.55 27.8L44.45 27.8L43.05 27.8L42.6 27.45L41.4 26.15L41.3 26.45L41.2 26.65L40.95 26.6L40.3 26.05L40.25 25.95L40.2 25.8L40.2 25.75L40.3 25.55L40.35 25.35L40.6 25.3L40.65 25.3L40.75 25.2L40.65 25.1L40.75 24.9L40.85 24.05Q40.8 23.5 40.2 23.3L39.85 23.4Q39.7 22.9 39.9 22.5Q39.95 22.3 40.95 21.2L42.3 19.1L42.55 18.45L42.65 18.65Q42.25 21.4 42.75 23.25M41.95,24.25L42.4 24L42.5 23.85L42.25 23.6L41.95 23.45Q41.75 23.35 41.65 23.55Q41.4 24 41.95 24.25M20.25,10.75Q19.75 11.1 20.4 11.1Q20.95 11.15 20.5 10.65L20.25 10.75M26.2,15.35L26.1 15.65L23.85 15.75L23.15 15.6L23 15.2L22.65 14.9L22.6 14.9L22.5 14.9Q22.4 14.9 22.35 15L22.25 15.2L22.15 15.45L21.1 15.15L20.9 15.4L20.55 15.3L20.05 14.6Q19.05 13.9 18.6 12.3Q17.9 10.05 16.85 8.35L15.9 6.85L17.3 7.65L20.15 9.05L22.1 9.9L22.05 10.05Q22.4 10.6 23 10.6L23.25 10.4L23.25 10.2L25.95 10L29 9.5L26.2 15.35M23.4,11.9L23.35 12.05L23.25 12.2L23.25 12.35L23.2 12.4L23.25 12.55L23.4 12.85L23.85 12.1L23.7 11.75L23.6 11.9L23.4 11.9M24.75,12.45L24.75 12.4L24.75 12.3Q24.65 12.15 24.15 12.85L24.05 12.95L23.9 13.2L24.2 13.2L24.25 13.25L24.4 13.2L24.5 13.1L24.65 12.75L24.75 12.45M22.05,13.05Q22.65 13.05 22.05 12.65L21.9 12.65Q21.3 13.1 22.05 13.05M36.45,15.3L36.6 15.55L37.05 15.5L37.15 15.35L37.25 15.2L37.1 14.7L36.6 14.5Q36.4 14.35 36.3 14.65Q36.15 15 36.45 15.3M34.6,15.45L35.1 15.3Q35.4 15 34.95 14.75Q34.75 14.7 34.7 14.85Q34.4 14.85 34.35 15.05L34.35 15.25L34.6 15.45M19.85,15.1Q20.35 15.6 19.75 15.5Q19.15 15.55 19.6 15.15L19.85 15.1" />
<path style="fill:#662616;fill-opacity:1" d="M17.75,11.55Q17.9 13.85 17.55 15.95L17.5 16.15L16.8 15.95L15.75 15.65L15.8 15.15L15.85 14.95Q16.9 10.6 15.1 7.2L15.15 9.15L15.15 9.7L14.8 12.6L14.2 15.4L12.5 15.25L13.15 13Q13.8 9.8 13.6 7.05L13.4 5.1Q13.1 2.65 14.8 4.15L18.4 6.45Q20.1 7.15 21.75 7.45Q23.35 7.75 25.75 7.5Q28.15 7.25 30.4 6.25Q32.65 5.25 33.05 5.85L34.5 8.2Q35.35 9.9 37.8 11.2Q40.4 12.45 41.8 12.75L44.5 13.15Q45.65 13.2 44.9 14.5Q44.25 15.7 44.1 17.7Q43.9 19.75 45.05 22.65Q46.25 25.4 47.45 27.1Q48.55 28.7 48.4 29.05L47.35 29.3L47 29.25L44.25 29.1L41.65 29.2L41.3 29.25L40.85 28.55L40.6 28.05L40.8 27.95L41.95 27.8L42.45 27.8L43.05 27.8L44.45 27.8L45.55 27.8L46.15 27.85L44.6 25.1L43.55 22.75Q43.1 21.75 42.65 18.65L42.55 18.45L42.55 18.15Q42 19.4 40.2 21.4L39.5 22.15L38.8 22.75L37.85 23.55L36.8 22.3L36.85 22.2L37.6 21.55L38.55 20.6Q41.05 18.2 42.9 15L43 14.75Q41.7 15.4 38.65 18.1L37.6 18.95L35.35 20.7L34.1 19.75L35.25 18.9L37 17.6L37.85 17L39.8 15.55L41.6 14.25L41.7 14.2Q34.65 12.85 32.8 8.2L32.7 9.7L32.5 10.35L30.35 17.05L30.2 17.4L30.05 17.7L28.6 17.35L29.05 16.35L29.55 15.05Q31.05 10.95 31.45 8.2L31.5 8.1L31.25 8.3L30.6 9.1L30.5 9.35Q29.85 10.35 28.45 13.5L28.35 13.6L27.6 15.7L26.9 17.2L26.75 17.25L25.35 17.35L26.1 15.65L26.2 15.35L29 9.5L29.6 8.15L27.75 8.95L23 9.2Q20.45 9.2 17.3 7.65L15.9 6.85L16.85 8.35Q17.5 9.7 17.75 11.55" />
<path style="fill:#8C331D;fill-opacity:1" d="M40.6,28.05L39.7 26.5L38.5 24.5L37.85 23.55L38.8 22.75L39.5 22.15L40.2 21.4Q42 19.4 42.55 18.15L42.55 18.45L42.3 19.1L40.95 21.2Q39.95 22.3 39.9 22.5Q39.7 22.9 39.85 23.4L40.2 23.3Q40.8 23.5 40.85 24.05L40.75 24.9L40.65 25.1L40.75 25.2L40.65 25.3L40.6 25.3L40.35 25.35L40.3 25.55L40.2 25.75L40.2 25.8L40.25 25.95L40.3 26.05L40.95 26.6L41.2 26.65L41.3 26.45L41.4 26.15L42.6 27.45L43.05 27.8L42.45 27.8L41.95 27.8L40.8 27.95L40.6 28.05M29.05,16.35L28.6 17.35L26.9 17.2L27.6 15.7L28.35 13.6L28.45 13.5Q29.85 10.35 30.5 9.35L27.9 16.3L28.55 16.3L29.05 16.35M16.85,8.35Q17.9 10.05 18.6 12.3Q19.05 13.9 20.05 14.6L20.55 15.3L20.9 15.4L21.1 15.15L22.15 15.45L22.25 15.2L22.35 15Q22.4 14.9 22.5 14.9L22.6 14.9L22.65 14.9L23 15.2L23.15 15.6L23.85 15.75L26.1 15.65L25.35 17.35L22.4 17.35Q20.75 17.25 17.5 16.15L17.55 15.95Q17.9 13.85 17.75 11.55Q17.5 9.7 16.85 8.35M21.9,12.65L22.05 12.65Q22.65 13.05 22.05 13.05Q21.3 13.1 21.9 12.65M19.6,15.15Q19.15 15.55 19.75 15.5Q20.35 15.6 19.85 15.1L19.6 15.15" />
<path style="fill:#EE7557;fill-opacity:1" d="M15.8,15.1Q14.9 14.7 15 13.95Q15.7 11.9 15.55 10.95L15.15 9.15L15.1 7.2Q16.9 10.6 15.85 14.95L15.8 15.15L15.8 15.1M39.75,14.15L37.2 13.75L36.4 13.4L36.3 13.5Q35.65 13.8 35.1 13.3Q34.8 13.05 34.95 12.75L35 12.65L35.05 12.6Q33.05 11.25 32.7 9.7L32.8 8.2Q34.65 12.85 41.7 14.2L41.6 14.25L39.75 14.15M37.6,21.55L36.85 21L39.85 18L41.65 16.25L42.9 15Q41.05 18.2 38.55 20.6L37.6 21.55M42.65,18.65Q43.1 21.75 43.55 22.75L44.6 25.1L46.15 27.85L45.55 27.8L43.85 25.65L43.75 25.85L43.75 25.95Q43.2 26.1 42.75 25.65Q42.3 25.15 42.6 24.65Q42.75 24.4 43 24.5L43.4 24.8L42.75 23.25Q42.25 21.4 42.65 18.65M41.65,23.55Q41.75 23.35 41.95 23.45L42.25 23.6L42.5 23.85L42.4 24L41.95 24.25Q41.4 24 41.65 23.55M28.55,16.3L27.9 16.3L30.5 9.35L30.6 9.1L31.25 8.3L31.5 8.1L31.45 8.2Q31.05 10.95 29.55 15.05L29.05 16.35L28.55 16.3M20.5,10.65Q20.95 11.15 20.4 11.1Q19.75 11.1 20.25 10.75L20.5 10.65M23,9.2L27.75 8.95L29.6 8.15L29 9.5L25.95 10L23.25 10.2L23.25 10.4L23 10.6Q22.4 10.6 22.05 10.05L22.1 9.9L20.15 9.05L17.3 7.65Q20.45 9.2 23 9.2M23.6,11.9L23.7 11.75L23.85 12.1L23.4 12.85L23.25 12.55L23.2 12.4L23.25 12.35L23.25 12.2L23.35 12.05L23.4 11.9L23.6 11.9M24.65,12.75L24.5 13.1L24.4 13.2L24.25 13.25L24.2 13.2L23.9 13.2L24.05 12.95L24.15 12.85Q24.65 12.15 24.75 12.3L24.75 12.4L24.75 12.45L24.65 12.75M36.3,14.65Q36.4 14.35 36.6 14.5L37.1 14.7L37.25 15.2L37.15 15.35L37.05 15.5L36.6 15.55L36.45 15.3Q36.15 15 36.3 14.65M34.35,15.25L34.35 15.05Q34.4 14.85 34.7 14.85Q34.75 14.7 34.95 14.75Q35.4 15 35.1 15.3L34.6 15.45L34.35 15.25" />
<path style="fill:#8C3C19;fill-opacity:1" d="M32.5,10.35L32.55 12L32.25 15.45L32.25 15.75L32.3 15.65Q32.4 15.35 32.65 15.5L32.9 15.6L33.05 15.75L33.1 16.2L32.9 16.85L32.65 17.25L32.5 17.2L32.4 17.25Q32.7 17.85 33.6 18.25L34.05 18.4L34.35 18.5L34.7 18.45Q35.75 18.35 37 17.6L35.25 18.9L34.1 19.75Q33.25 19.1 32.5 18.8L30.05 17.7L30.2 17.4L30.35 17.05L32.5 10.35" />
<path style="fill:#3E3A2F;fill-opacity:1" d="M5.95,35.25Q4.6 34.75 3.7 32.75L3.45 32.1L3.35 31.25L4.55 31.2L5.65 32L7.85 33.05L7.9 33.05L7.9 32.35Q7.95 31.25 8.45 30.45L8.5 30.4L9.85 30.55L10.7 30.8Q11.8 31.7 12.05 32.75L11.45 33.05L9.65 31.05L9.45 30.85L9.2 31.25L8.8 32.5L8.8 32.65Q8.6 33.45 8.75 33.85L8.45 33.95L7.9 34.1L5.35 32.95L5.1 32.8L4.85 32.65L4.55 32.45Q5.15 33.9 6.4 34.8L6.15 35L5.95 35.25" />
<path style="fill:#3C3427;fill-opacity:1" d="M7.55,38.8Q7.95 39.1 8.55 39.25L11.25 39.1Q12.6 38.6 14.25 36.95Q15.85 35.25 18.4 34.7Q20.95 34.1 25.9 36.7Q30.85 39.3 33.1 40.15Q33.55 41.25 34.5 41.8L35.15 42.1Q33.65 41.75 29.2 39.5Q22.55 36.1 19.75 35.95Q16.95 35.8 14.9 38Q12.8 40.2 10.6 40.5Q8.35 40.8 7 39.85L6.8 39.7L6.15 39Q5.55 38.15 5.5 37Q5.45 35.9 5.95 35.25L6.15 35L6.4 34.8L6.85 34.55L7.25 34.35L7.9 34.1L8.45 33.95L8.75 33.85L9.5 33.65L9.75 33.6L10.6 33.35L11.45 33.05L12.05 32.75L13.5 31.8L14.8 32.1L13.75 32.85Q12.45 33.85 11.05 34.2L10.8 34.3L9.8 34.55L8.5 34.85Q7.85 35 7.5 35.3L6.95 35.8Q6.5 36.4 6.85 37.65L7.55 38.8" />
<path style="fill:#B3A38A;fill-opacity:1" d="M6.85,37.65Q7.2 36.55 9 35.7L9.25 35.6Q9.2 35.45 9.3 35.3Q9.45 35.05 9.7 35.05L10.45 35.15L11.55 34.7L11.6 35.1Q11.95 35.5 12.4 35.25L12.4 35.15Q12.6 34.6 12.3 34.4L12.95 34.05L16.2 32.15L20.05 31.75Q22.3 31.4 25 31.65L27.55 32.25Q28.8 32.75 30.65 35.25L31.25 36.1L29.25 35.25L28.25 34.8L28.2 34.85L28.2 34.95Q27.2 35.25 26.85 34.3L26.85 34.25L24.1 33.55L23.9 33.5Q23.75 33.3 23.4 33.25L23 33.35L22.95 33.3L22.95 33.35Q22.7 33.45 22.65 33.7Q21.95 33.85 21.25 33.4L21.25 33.2L20.25 33.15L18.3 33.25Q18.6 32.75 18 32.45L17.9 32.5Q17.4 33.05 17.85 33.35Q16.25 33.65 14.85 34.4L15 34.45L15.05 34.6L15 35.15L14.6 35.3Q14.6 34.75 13.9 34.75L13.65 34.85L13.45 35.3L13.1 35.6L11.45 36.9Q11.65 37.1 11.5 37.5L11.45 37.6Q10.8 37.65 10.8 37.35Q9.1 38.4 7.55 38.8L6.85 37.65M12.4,37.05Q12.7 37 12.8 37.25L12.85 37.3Q12.7 38.15 12.05 37.6Q11.95 37.25 12.25 37.1L12.4 37.05M8.65,36.6Q8.35 36.7 8.45 37.05L9.25 37.1L9.25 37.05Q9.2 36.6 8.8 36.55L8.65 36.6M23.45,32.3L23 32.25Q22.85 32.25 22.7 32.4L22.65 32.55L22.65 32.6Q22.75 33.3 23.5 33.1L23.7 32.75L23.6 32.35L23.45 32.3M27.2,32.75L27 32.85Q26.7 33.15 26.75 33.6Q27.25 34 27.7 33.6L27.8 33.3L27.7 32.85L27.55 32.8L27.2 32.75M29,36.65L29 36.75Q27.75 36.95 28.3 35.95L28.4 35.95Q29.2 35.95 29 36.65" />
<path style="fill:#F0EAC6;fill-opacity:1" d="M9.75,33.6L9.5 33.65L9.45 32.75L9.5 31.7L10.15 32.55L10.6 33.35L9.75 33.6M7.2,31.35L7.4 32.15L6.4 31.7L7.2 31.35M6.85,34.55L6.15 33.8L5.85 33.5L6.45 33.9L7.25 34.35L6.85 34.55" />
<path style="fill:#A87C28;fill-opacity:1" d="M13.9,22L14.4 22.3L13.5 24.05L12.45 25.35Q11.65 26.1 10.2 25.8L9 25.5L7.95 25.15L7.6 25.05L7.3 24.9L7.55 24.05L7.75 24.05L8.75 24.4L9 24.55L10.3 24.95L10.75 24.95L11.8 24.65L11.85 24.6L12.7 23.3L13.1 22.35L13.3 21.7L13.9 22" />
<path style="fill:#877861;fill-opacity:1" d="M18.15,33.45L18.15 33.4L18.3 33.25L20.25 33.15L21.25 33.2L21.25 33.4Q21.95 33.85 22.65 33.7Q22.7 33.45 22.95 33.35L22.95 33.3L23 33.35L23.4 33.25Q23.75 33.3 23.9 33.5L24.1 33.55L26.85 34.25L26.85 34.3Q27.2 35.25 28.2 34.95L28.2 34.85L28.25 34.8L29.25 35.25L31.25 36.1Q32.55 38 32.9 39.4L33.1 40.15Q30.85 39.3 25.9 36.7Q20.95 34.1 18.4 34.7Q15.85 35.25 14.25 36.95Q12.6 38.6 11.25 39.1L8.55 39.25Q7.95 39.1 7.55 38.8Q9.1 38.4 10.8 37.35Q10.8 37.65 11.45 37.6L11.5 37.5Q11.65 37.1 11.45 36.9L13.1 35.6L13.45 35.3L13.65 34.85L13.9 34.75Q14.6 34.75 14.6 35.3L15 35.15L15.05 34.6L15 34.45L14.85 34.4Q16.25 33.65 17.85 33.35L18.15 33.45M12.25,37.1Q11.95 37.25 12.05 37.6Q12.7 38.15 12.85 37.3L12.8 37.25Q12.7 37 12.4 37.05L12.25 37.1M8.8,36.55Q9.2 36.6 9.25 37.05L9.25 37.1L8.45 37.05Q8.35 36.7 8.65 36.6L8.8 36.55M23.6,32.35L23.7 32.75L23.5 33.1Q22.75 33.3 22.65 32.6L22.65 32.55L22.7 32.4Q22.85 32.25 23 32.25L23.45 32.3L23.6 32.35M27.55,32.8L27.7 32.85L27.8 33.3L27.7 33.6Q27.25 34 26.75 33.6Q26.7 33.15 27 32.85L27.2 32.75L27.55 32.8M28.4,35.95L28.3 35.95Q27.75 36.95 29 36.75L29 36.65Q29.2 35.95 28.4 35.95" />
<path style="fill:#CDBFA8;fill-opacity:1" d="M12.95,34.05L12.3 34.4Q12.6 34.6 12.4 35.15L12.4 35.25Q11.95 35.5 11.6 35.1L11.55 34.7L10.45 35.15L9.7 35.05Q9.45 35.05 9.3 35.3Q9.2 35.45 9.25 35.6L9 35.7Q7.2 36.55 6.85 37.65Q6.5 36.4 6.95 35.8L7.5 35.3Q7.85 35 8.5 34.85L9.8 34.55L10.8 34.3L11.05 34.2Q12.45 33.85 13.75 32.85L14.8 32.1L15.85 32.15L16.2 32.15L12.95 34.05M17.85,33.35Q17.4 33.05 17.9 32.5L18 32.45Q18.6 32.75 18.3 33.25L18.15 33.4L18.15 33.45L17.85 33.35" />
<path style="fill:#9D8E79;fill-opacity:1" d="M6.4,31.7L5.65 32L4.55 31.2L6.8 30.65L8.5 30.4L8.45 30.45Q7.95 31.25 7.9 32.35L7.9 33.05L7.85 33.05L7.8 32.95L7.4 32.15L7.2 31.35L6.4 31.7M10.7,30.8L11.4 31.05L13.5 31.8L12.05 32.75Q11.8 31.7 10.7 30.8M9.2,31.25L9.45 30.85L9.65 31.05L11.45 33.05L10.6 33.35L10.15 32.55L9.5 31.7L9.2 31.25M7.25,34.35L6.45 33.9L5.85 33.5L5.1 32.8L5.35 32.95L7.9 34.1L7.25 34.35" />
<path style="fill:#FFFCEE;fill-opacity:1" d="M8.75,33.85Q8.6 33.45 8.8 32.65L8.8 32.5L9.2 31.25L9.5 31.7L9.45 32.75L9.5 33.65L8.75 33.85M6.4,31.7L7.4 32.15L7.8 32.95L7.85 33.05L5.65 32L6.4 31.7M6.4,34.8Q5.15 33.9 4.55 32.45L4.85 32.65L5.1 32.8L5.85 33.5L6.15 33.8L6.85 34.55L6.4 34.8" />
<radialGradient
id="RadialGradID_1530" gradientUnits="userSpaceOnUse" gradientTransform="matrix(0.00283813, 1.52588e-005, -1.52588e-005, 0.00283813, 10.5, 22.9)" spreadMethod ="pad" cx="0" cy="0" r="819.2" fx="0" fy="0" >
<stop  offset="0"  style="stop-color:#F7EFB1;stop-opacity:1" />
<stop  offset="1"  style="stop-color:#DBAC50;stop-opacity:1" />
</radialGradient>
<path style="fill:url(#RadialGradID_1530) " d="M7.8,23.4L8.35 22.35Q8.95 21.55 9.8 21.25Q10 21.1 10.3 21.1L10.5 21.05Q11.7 20.9 13.3 21.7L13.1 22.35L12.7 23.3L11.85 24.6L11.8 24.65L10.75 24.95L10.3 24.95L9 24.55L8.75 24.4L7.75 24.05L7.55 24.05L7.8 23.4" />
<path style="fill:#4F915C;fill-opacity:1" d="M5.35,23.95L5.35 23.9Q5.3 23.6 5.55 23.5L5.7 23.45Q6.45 24.25 5.35 23.95M15.4,28.3Q14.3 28.3 15 27.5L15.1 27.45L15.45 27.55L15.55 27.65L15.5 28.15L15.4 28.3M34,31.7L33.9 32.25Q33.45 32.55 32.95 32.25Q32.75 31.9 32.85 31.45Q32.95 31.15 33.2 31.15L33.75 31.2L33.9 31.25L34 31.7M31.3,31.85Q31.95 32.15 31.5 32.7L31.45 32.75Q30.55 32.55 31.2 31.9L31.3 31.85M36.85,33.8L37 33.75Q37.85 33.8 38.05 34.55L38.1 34.65Q36.95 35.8 36.65 34.2L36.65 33.95L36.85 33.8" />
<path style="fill:#72BB71;fill-opacity:1" d="M34.65,18.5L34.65 18.4L34.95 18.55Q36.65 19.4 38.35 20.8Q39.25 23.5 38.3 27.45Q39.45 26.6 40.25 25.35Q40.95 24.3 41.1 23.35L45 27.6L44.65 27.2L45.45 28.25Q45.95 30.55 45.25 32.55Q44.3 32.45 44.55 33.65L44.6 33.8L44.45 34.05L43.85 34.8L43.55 35.2L43.1 35.6Q43.9 36.55 42.8 36.25L42.55 36.1L41.45 36.85L41.45 36.9L41.45 37L40.95 37.1L40.85 37.1L40.9 37.15L40.85 37.7L40.8 37.8L40 37.8Q39.4 37.9 38.95 37.4L38.95 37.3L37.8 37.35L36.85 37.3L36.8 36.95L36.65 36.9L36 36.85Q35.8 36.85 35.7 37L35.65 37.1L35.65 37.2L33.3 36.7L32.95 36.6Q31.75 34.55 30.2 32.9Q28.85 31.4 27.35 30.9Q25.5 29.85 23 29.85L16.95 29.6Q17.15 30.25 15.95 30.3L15.85 30.25Q15.7 29.8 15.9 29.55L12.2 28.9Q11.05 28.35 12.05 28.3Q13 28.2 14.65 25.75Q15.45 24.55 15.2 23.25L15.4 22.8L15.5 22.65L15.5 22.6L15.55 22.4L15.55 22.15L14.95 21.5L19.4 19.2L20.5 18.65L22.55 18.7L22.6 18.75L23.25 18.7L25.2 18.65L25.2 18.7L25.35 18.95Q26.45 19.35 26.05 18.6L27.4 18.5L27.5 18.05Q27.65 17.6 28.1 17.75L28.75 18.4L31.1 18.25Q32.4 21.25 31.4 27.3Q32.9 25.7 33.95 23.55Q35.35 20.6 34.65 18.5M42.55,28.05Q43.65 28.85 43.1 27.65L42.6 27.75Q42.35 27.9 42.55 28.05M41.7,29.3Q41 29.3 41.2 30L41.6 30.35Q43.15 30.4 41.7 29.3M47.55,35.45L47.55 35.5Q47.2 36 46.65 35.65Q46.5 35.4 46.5 35.05L46.55 34.85L46.9 34.65Q47.55 34.75 47.55 35.45M46.6,37.35Q47.75 37.35 47.55 38.4L47.5 38.5Q45.25 38.7 46.5 37.4L46.6 37.35M41.1,40.9L40.15 40.95Q39.9 40.6 40.15 40.25L40.4 40.05Q41.3 40.05 41.15 40.8L41.1 40.9M24.6,22.85Q26.05 23.8 25.4 22.4L24.65 22.5Q24.4 22.7 24.6 22.85M28.55,24.5L28.65 24.75Q29.85 25.15 29.15 23.95Q28.5 23.85 28.55 24.5M5.65,25.1L4.4 26.65L6.8 26.35L8 27.6L8.25 27.75L8.2 27.75L7.25 27.9L7.2 28.35L7.2 28.45Q6.05 28.55 5.95 28.2L5.8 28.25L3.75 28.8L3.85 28.75Q3.6 28.4 3.5 27.85L3.5 27.95Q2.85 28.25 2.85 27.6Q2.85 27.25 3.2 27.25L3.5 27.4L3.5 26.55L3.35 26.55Q2.85 25.95 3.5 25.45L3.7 25.35Q4.1 23.8 5.15 22.4L5.15 22.15Q5.2 21.9 5.4 21.85L5.5 21.85L5.6 21.85L7.2 19.95Q7.6 19.45 8.15 19.1L7.85 18.9L7.9 18.6L8.3 18.5L8.45 18.95L9.45 18.45Q10.8 17.9 12.35 17.85L11.75 17.75Q11.35 17.7 11.6 17.3Q11.8 17 12.1 17.1Q12.85 17.75 12.45 17.85L14.45 17.9L11.6 20L9.6 20.2L9.1 20.45Q7.5 21.5 6.95 23.25L6.8 23.75L5.65 25.1M36.9,22.6Q36.45 22.5 36.35 22.95Q36.25 23.3 36.55 23.35Q37.95 23.65 36.9 22.6M5.7,23.45L5.55 23.5Q5.3 23.6 5.35 23.9L5.35 23.95Q6.45 24.25 5.7 23.45M15.5,28.15L15.55 27.65L15.45 27.55L15.1 27.45L15 27.5Q14.3 28.3 15.4 28.3L15.5 28.15M16.6,28.2Q19.65 28.8 20.55 25.95Q20.55 23.5 19.6 23.1L18.9 24.95L18.3 26.3Q17.75 27.25 16.6 28.2M37.9,30.75Q37.65 30.9 37.8 31.05Q39.1 32.05 38.65 30.65L37.9 30.75M36.3,27.35L35.8 27.35Q35.6 27.5 35.75 27.6Q36.8 28.55 36.3 27.35M30.5,26.75L30.45 26.75L29.8 27.35L29.65 27.4L29.1 27.1L28.9 27.05L28.55 27.1Q28.35 27.6 28.9 28.05L27.75 28.7Q27.55 28.8 27.7 28.9Q28.75 29.55 29.9 28.5L30.15 28.55Q31.05 28.4 30.4 27.8Q30.7 27.3 30.5 26.75M33.9,31.25L33.75 31.2L33.2 31.15Q32.95 31.15 32.85 31.45Q32.75 31.9 32.95 32.25Q33.45 32.55 33.9 32.25L34 31.7L33.9 31.25M31.2,31.9Q30.55 32.55 31.45 32.75L31.5 32.7Q31.95 32.15 31.3 31.85L31.2 31.9M36.65,33.95L36.65 34.2Q36.95 35.8 38.1 34.65L38.05 34.55Q37.85 33.8 37 33.75L36.85 33.8L36.65 33.95M23.3,25.6L22.75 25.05L22.65 26.45L22.2 27.55L20.9 28.6L22.4 28.5L23.3 28.15L23.75 27.3Q23.9 26.6 23.3 25.6" />
<path style="fill:#A4E0A0;fill-opacity:1" d="M2.8,28.85L1.5 28.7Q1.35 28.25 1.45 27.55L1.5 27.05L1.55 26.55Q1.8 24.95 4.75 21.2L5.75 20.1Q8.35 17.35 11.85 16.7L12.85 16.55L15.6 16.85L15.95 16.95L15.5 17.2L14.45 17.9L12.45 17.85Q12.85 17.75 12.1 17.1Q11.8 17 11.6 17.3Q11.35 17.7 11.75 17.75L12.35 17.85Q10.8 17.9 9.45 18.45L8.45 18.95L8.3 18.5L7.9 18.6L7.85 18.9L8.15 19.1Q7.6 19.45 7.2 19.95L5.6 21.85L5.5 21.85L5.4 21.85Q5.2 21.9 5.15 22.15L5.15 22.4Q4.1 23.8 3.7 25.35L3.5 25.45Q2.85 25.95 3.35 26.55L3.5 26.55L3.5 27.4L3.2 27.25Q2.85 27.25 2.85 27.6Q2.85 28.25 3.5 27.95L3.5 27.85Q3.6 28.4 3.85 28.75L2.8 28.85M31.1,18.25L28.75 18.4L28.1 17.75Q27.65 17.6 27.5 18.05L27.4 18.5L26.05 18.6Q26.45 19.35 25.35 18.95L25.2 18.7L25.2 18.65L23.25 18.7L22.6 18.75L22.55 18.7L20.5 18.65Q21.9 17.95 23.25 17.65L27.3 17.35L27.55 17.3L28.45 17.25L30.3 17.3L31 18L31.1 18.25M29.15,23.95Q29.85 25.15 28.65 24.75L28.55 24.5Q28.5 23.85 29.15 23.95M36.55,23.35Q36.25 23.3 36.35 22.95Q36.45 22.5 36.9 22.6Q37.95 23.65 36.55 23.35" />
<path style="fill:#2F7231;fill-opacity:1" d="M40.25,25.35Q39.45 26.6 38.3 27.45Q39.25 23.5 38.35 20.8L39.75 22.05L40.75 23L41.05 23.3L41.1 23.35Q40.95 24.3 40.25 25.35M13.1,20.5Q12.3 20.1 11.6 20L14.45 17.9L16.3 18.25L19.9 18.6L20.5 18.65L19.4 19.2L14.95 21.5L13.1 20.5M33.95,23.55Q32.9 25.7 31.4 27.3Q32.4 21.25 31.1 18.25L33.8 18.3L34.65 18.5Q35.35 20.6 33.95 23.55M6.8,26.35L4.4 26.65L5.65 25.1L6.8 23.75L6.55 24.5L6.5 24.7L6.35 25.25L6.3 25.55L6.35 25.6L6.45 25.65L7.55 26.1L6.8 26.35" />
<path style="fill:#2B462D;fill-opacity:1" d="M34.95,18.55L34.65 18.4L34.05 18.15Q32.35 17.45 30.3 17.3L28.45 17.25L27.55 17.3L27.3 17.35L23.25 17.65L21.05 17.65L15.95 16.95L15.6 16.85L12.85 16.55L11.85 16.7Q8.35 17.35 5.75 20.1L4.75 21.2Q1.8 24.95 1.55 26.55L1.5 27.05L1.45 27.55Q1.35 28.25 1.5 28.7L1.5 28.8Q1.65 29.45 2.45 29.85L4.55 29.9L5.9 29.55L7.1 29.25L9.65 29.2Q10.95 29.45 12.85 30.35Q14.7 31.2 17.5 30.95L21.4 30.55L23.7 30.4L26.7 30.75L27.35 30.9Q28.85 31.4 30.2 32.9Q31.75 34.55 32.95 36.6L33.2 37.05L33.25 37.15L33.6 37.8L35.05 40.45Q35.6 41.5 38.7 41.95L45.15 41.65Q48.5 40.85 49.25 38.95Q50 37 47.35 31.5L45.9 28.9L45.45 28.25L44.65 27.2L45 27.6L41.1 23.35L41.05 23.3L40.75 23L39.75 22.05L38.35 20.8Q36.65 19.4 34.95 18.55M34.5,41.8Q33.55 41.25 33.1 40.15L32.9 39.4Q32.55 38 31.25 36.1L30.65 35.25Q28.8 32.75 27.55 32.25L25 31.65Q22.3 31.4 20.05 31.75L16.2 32.15L15.85 32.15L14.8 32.1L13.5 31.8L11.4 31.05L10.7 30.8L9.85 30.55L8.5 30.4L6.8 30.65L4.55 31.2L3.35 31.25L3 31.25Q1.25 31.05 0.5 30Q-0.05 29.2 0 28L0.05 27.35Q0.25 26 1.1 24.2Q1.95 22.35 3.1 20.9Q4.4 19.1 6.05 17.8Q7.35 16.75 8.6 16.2Q9.3 15.8 10.45 15.45L14.15 15.05L17 15.6L17.2 15.65L17.55 15.75L17.6 15.8L19.6 16.15L23.2 16.05L24.95 15.95L30.55 15.65Q33.65 15.75 37.4 18.15Q39.8 19.65 42.25 22.3Q44.3 24.45 45.45 26.25L46 26.75Q46.65 27.25 47.85 29.55L48.9 31.65Q50.85 35.8 51 37.7Q51.15 39.6 50.3 40.55Q49.4 41.55 47.55 42.4Q45.65 43.2 42.9 43.25L37.95 42.85L35.15 42.1L34.5 41.8" />
<path style="fill:#468C54;fill-opacity:1" d="M33.3,36.7L35.65 37.2L35.65 37.1L35.7 37Q35.8 36.85 36 36.85L36.65 36.9L36.8 36.95L36.85 37.3L37.8 37.35L38.95 37.3L38.95 37.4Q39.4 37.9 40 37.8L40.8 37.8L40.85 37.7L40.9 37.15L40.85 37.1L40.95 37.1L41.45 37L41.45 36.9L41.45 36.85L42.55 36.1L42.8 36.25Q43.9 36.55 43.1 35.6L43.55 35.2L43.85 34.8L44.45 34.05L44.6 33.8L44.55 33.65Q44.3 32.45 45.25 32.55Q45.95 30.55 45.45 28.25L45.9 28.9L47.35 31.5Q50 37 49.25 38.95Q48.5 40.85 45.15 41.65L38.7 41.95Q35.6 41.5 35.05 40.45L33.6 37.8L33.25 37.15L33.2 37.05L32.95 36.6L33.3 36.7M3.85,28.75L3.75 28.8L5.8 28.25L5.95 28.2Q6.05 28.55 7.2 28.45L7.2 28.35L7.25 27.9L8.2 27.75L8.25 27.75L8 27.6L6.8 26.35L7.55 26.1L8.8 26.5L10.4 26.8Q12.5 26.95 13.7 25.3L14.95 23.55L15.2 23.25Q15.45 24.55 14.65 25.75Q13 28.2 12.05 28.3Q11.05 28.35 12.2 28.9L15.9 29.55Q15.7 29.8 15.85 30.25L15.95 30.3Q17.15 30.25 16.95 29.6L23 29.85Q25.5 29.85 27.35 30.9L26.7 30.75L23.7 30.4L21.4 30.55L17.5 30.95Q14.7 31.2 12.85 30.35Q10.95 29.45 9.65 29.2L7.1 29.25L5.9 29.55L4.55 29.9L2.45 29.85Q1.65 29.45 1.5 28.8L1.5 28.7L2.8 28.85L3.85 28.75M42.6,27.75L43.1 27.65Q43.65 28.85 42.55 28.05Q42.35 27.9 42.6 27.75M41.6,30.35L41.2 30Q41 29.3 41.7 29.3Q43.15 30.4 41.6 30.35M46.9,34.65L46.55 34.85L46.5 35.05Q46.5 35.4 46.65 35.65Q47.2 36 47.55 35.5L47.55 35.45Q47.55 34.75 46.9 34.65M46.5,37.4Q45.25 38.7 47.5 38.5L47.55 38.4Q47.75 37.35 46.6 37.35L46.5 37.4M41.15,40.8Q41.3 40.05 40.4 40.05L40.15 40.25Q39.9 40.6 40.15 40.95L41.1 40.9L41.15 40.8M24.65,22.5L25.4 22.4Q26.05 23.8 24.6 22.85Q24.4 22.7 24.65 22.5M18.3,26.3L18.9 24.95L19.6 23.1Q20.55 23.5 20.55 25.95Q19.65 28.8 16.6 28.2Q17.75 27.25 18.3 26.3M38.65,30.65Q39.1 32.05 37.8 31.05Q37.65 30.9 37.9 30.75L38.65 30.65M35.75,27.6Q35.6 27.5 35.8 27.35L36.3 27.35Q36.8 28.55 35.75 27.6M30.4,27.8Q31.05 28.4 30.15 28.55L29.9 28.5Q28.75 29.55 27.7 28.9Q27.55 28.8 27.75 28.7L28.9 28.05Q28.35 27.6 28.55 27.1L28.9 27.05L29.1 27.1L29.65 27.4L29.8 27.35L30.45 26.75L30.5 26.75Q30.7 27.3 30.4 27.8M23.75,27.3L23.3 28.15L22.4 28.5L20.9 28.6L22.2 27.55L22.65 26.45L22.75 25.05L23.3 25.6Q23.9 26.6 23.75 27.3" />
<path style="fill:#1F3521;fill-opacity:1" d="M14.95,23.55L13.7 25.3Q12.5 26.95 10.4 26.8L8.8 26.5L7.55 26.1L6.45 25.65L6.35 25.6L6.3 25.55L6.35 25.25L6.5 24.7L6.55 24.5L6.8 23.75L6.95 23.25Q7.5 21.5 9.1 20.45L9.6 20.2L11.6 20Q12.3 20.1 13.1 20.5L14.95 21.5L15.55 22.15L15.55 22.4L15.5 22.6L15.5 22.65L15.4 22.8L15.2 23.25L14.95 23.55M13.3,21.7Q11.7 20.9 10.5 21.05L10.3 21.1Q10 21.1 9.8 21.25Q8.95 21.55 8.35 22.35L7.8 23.4L7.55 24.05L7.3 24.9L7.6 25.05L7.95 25.15L9 25.5L10.2 25.8Q11.65 26.1 12.45 25.35L13.5 24.05L14.4 22.3L13.9 22L13.3 21.7" />
<path style="fill:#438745;fill-opacity:1" d="M15.95,16.95L21.05 17.65L23.25 17.65Q21.9 17.95 20.5 18.65L19.9 18.6L16.3 18.25L14.45 17.9L15.5 17.2L15.95 16.95M34.65,18.5L33.8 18.3L31.1 18.25L31 18L30.3 17.3Q32.35 17.45 34.05 18.15L34.65 18.4L34.65 18.5" />
<path style="fill:#2B462D;fill-opacity:1" d="M45.75,23.75L46.5 23.55L48.95 23.15Q49 23.55 47.35 25.2L43.6 28.25L42.7 28.8L41.6 28.7L41.05 28.45Q40.25 27.9 40.2 27.05Q40 25.8 40.35 25.5L40.6 25.35L42.6 24.65L45.75 23.75M44.05,25.2L41.25 26.15Q40.95 27.05 41.75 27.55L41.9 27.7L42.2 27.65L44.05 26.8L46.95 24.35L46.15 24.5L46.1 24.55L44.05 25.2M23.15,13.5L24.25 11.2Q24.6 11.35 25.05 13.85L25.55 19.15L25.55 20.35L24.8 21.1L24.25 21.6L22.5 21.35Q21.35 20.7 21.2 20.25L21.2 19.85L21.9 17.75L22.85 14.3L23.15 13.5M24.55,17.75L24.15 13.6L23.75 14.55L23.75 14.65Q23.35 15.6 23.2 16.75L22.25 19.9Q23.05 20.7 23.95 20.4L24.05 20.3L24.25 19.95Q24.65 19.35 24.55 17.75M38.9,13.15L40.85 11.6Q41.1 12 40.4 14.15L38.65 18.75L38.15 19.65L37.15 20.1L36.5 20.05Q35.5 20.05 35.1 19.3Q34.3 18.3 34.4 17.95L34.55 17.55L36 16L38.4 13.7L38.9 13.15M37.55,15.8L35.55 18Q35.75 19 36.7 19L36.95 19L37.15 18.8L38.25 17.25L39.65 13.55L39.05 14.25L39 14.2L37.55 15.8M1.85,14.05L3.45 18.85L3.6 19.3L4.8 19.05L5.65 17.65L5.75 17.55L5.05 16.8L1.05 11.9L1.45 13.05L1.85 14.05M7.45,17.9L7.35 18.4Q6.55 20.15 5.05 20.7L4.1 21.1L4.05 21.1Q2.95 21.4 2.2 19.65L1.6 18.15L-0.25 11.65Q-1.1 8.55 -0.6 8.65L2.9 12L7.5 17.05L7.45 17.9" />
<path style="fill:#468C54;fill-opacity:1" d="M41.9,27.7L41.75 27.55Q40.95 27.05 41.25 26.15L44.05 25.2L46.1 24.55L43.35 25.85Q41.9 26.35 41.8 26.65Q41.6 26.9 41.9 27.7M23.95,20.4Q23.05 20.7 22.25 19.9L23.2 16.75Q23.35 15.6 23.75 14.65L23.2 17.85L23 19.7Q23.15 20.1 24.05 20.3L23.95 20.4M36.95,19L36.7 19Q35.75 19 35.55 18L37.55 15.8L39 14.2L37.2 16.65Q36.2 17.8 36.2 18.15Q36.15 18.45 36.95 19M4.8,19.05L3.6 19.3L3.45 18.85L1.85 14.05L2.05 14.4L3.55 17.3Q3.85 17.35 4.8 19.05" />
<path style="fill:#72BB71;fill-opacity:1" d="M41.8,26.65Q41.9 26.35 43.35 25.85L46.1 24.55L42.95 27.15Q42.6 27.35 42.2 27.65L41.9 27.7Q41.6 26.9 41.8 26.65M24.25,18.95L24.25 19.95L24.05 20.3Q23.15 20.1 23 19.7L23.2 17.85L23.75 14.65Q24.25 16.3 24.25 18.95M36.2,18.15Q36.2 17.8 37.2 16.65L39 14.2Q38.75 15.85 37.55 18.05L37.15 18.8L36.95 19Q36.15 18.45 36.2 18.15M3.55,17.3L2.05 14.4L1.85 14.05L1.45 13.05L3.85 15.75L5.5 17.65L5.65 17.65L4.8 19.05Q3.85 17.35 3.55 17.3" />
<path style="fill:#A4E0A0;fill-opacity:1" d="M42.95,27.15L46.1 24.55L46.15 24.5L46.95 24.35L44.05 26.8L42.2 27.65Q42.6 27.35 42.95 27.15M24.25,19.95L24.25 18.95Q24.25 16.3 23.75 14.65L23.75 14.55L24.15 13.6L24.55 17.75Q24.65 19.35 24.25 19.95M37.55,18.05Q38.75 15.85 39 14.2L39.05 14.25L39.65 13.55L38.25 17.25L37.15 18.8L37.55 18.05M5.5,17.65L3.85 15.75L1.45 13.05L1.05 11.9L5.05 16.8L5.75 17.55L5.65 17.65L5.5 17.65" />
<path style="fill:#F3F3F3;fill-opacity:1" d="M10.9,22.1L11.3 22.2L11.4 22.6L11.25 22.85Q11.05 23.05 10.85 23.05L10.4 22.85L10.3 22.55L10.45 22.2L10.9 22.1" />
<path style="fill:#19481E;fill-opacity:1" d="M9.9,20.8Q10.35 20.75 11.05 21.55Q11.75 22.25 12.05 23.35Q12.35 24.45 12.25 25.2Q12 26 11.6 26.1L10.45 25.35Q9.8 24.7 9.55 23.65Q9.3 22.65 9.4 21.8Q9.5 20.95 9.9 20.8M10.45,22.2L10.3 22.55L10.4 22.85L10.85 23.05Q11.05 23.05 11.25 22.85L11.4 22.6L11.3 22.2L10.9 22.1L10.45 22.2" />
</g>
</svg>
