<?xml version="1.0" encoding="utf-8"?>
<svg version="1.1" id="Layer_1"
xmlns="http://www.w3.org/2000/svg"
xmlns:xlink="http://www.w3.org/1999/xlink"
xmlns:author="http://www.sothink.com"
width="79px" height="81px"
xml:space="preserve">
<g id="96" transform="matrix(1, 0, 0, 1, 0, -0.15)">
<path style="fill:#717463;fill-opacity:1" d="M55,26.45L55.6 25.85L55.15 24.45L56.45 24.95L70.8 30.3L69.05 31.55L67.6 31.4Q64.1 31.2 61.2 31.3Q59.05 31.1 56 33.65L28.3 59.9L27.25 58.9L26.55 58.2L25.45 57.15L55 26.45" />
<path style="fill:#65BFB6;fill-opacity:1" d="M69.05,31.55L70.8 30.3L70.95 30.05L75.15 5.55L76.25 4.45L76.35 3.65L76.4 5.3L76.4 5.35L74.95 18.8L73.35 31.65L32.35 63.25L32.1 63.55L31.2 62.85L30.5 62.1L69.05 31.55" />
<path style="fill:#ACB0A2;fill-opacity:1" d="M55,24.4L55.1 24.35L55.15 24.45L55 24.4M56.45,24.95L75.15 5.55L70.95 30.05L70.8 30.3L56.45 24.95" />
<path style="fill:#FFFFFB;fill-opacity:1" d="M55.1,24.35L50.1 9.95L49.65 8.65L73.4 2.4L73.45 2.4L75.7 2.5L75.8 2.55L75.85 2.6L75.95 2.7L75.9 2.7L75.95 2.75L55.1 24.35" />
<path style="fill:#E7EDE1;fill-opacity:1" d="M55.6,25.85L55 26.45L53.35 26.15L51.65 27.9L46.7 12.25L47.95 10.45L50.1 9.95L55.1 24.35L55 24.4L55.15 24.45L55.6 25.85" />
<path style="fill:#FFFFFF;fill-opacity:1" d="M19.5,50.7L18.25 49.4L18.4 49.25L46.1 10.4L46.7 9.75Q47.5 9.15 49.65 8.65L50.1 9.95L47.95 10.45L46.7 12.25L51.65 27.9L42.1 37.8L37.85 24.75L19.5 50.7" />
<path style="fill:#E0E6DA;fill-opacity:1" d="M24.45,56.05L22.9 54.5L21 52.45L20 51.2L19.5 50.7L37.85 24.75L42.1 37.8L24.45 56.05" />
<path style="fill:#97A782;fill-opacity:1" d="M56.45,24.95L55.15 24.45L55.1 24.35L75.95 2.75L76.25 3.35L76.35 3.6L76.35 3.65L76.25 4.45L75.15 5.55L56.45 24.95M42.1,37.8L51.65 27.9L53.35 26.15L55 26.45L25.45 57.15L24.6 56.25L24.45 56.05L42.1 37.8" />
<path style="fill:#737F71;fill-opacity:1" d="M69.05,31.55L30.5 62.1L29.95 61.4L28.4 60L28.3 59.9L56 33.65Q59.05 31.1 61.2 31.3Q64.1 31.2 67.6 31.4L69.05 31.55" />
<path style="fill:#673720;fill-opacity:1" d="M32.35,63.25L73.35 31.65L74.95 18.8L76.4 5.35L76.4 5.3L76.35 3.65L76.35 3.6L76.25 3.35L75.95 2.75L75.9 2.7L75.95 2.7L75.85 2.6L75.8 2.55L75.7 2.5L73.45 2.4L73.4 2.4L49.65 8.65Q47.5 9.15 46.7 9.75L46.1 10.4L18.4 49.25L18.25 49.4L17.75 49.65L17 49.5Q16.65 49.25 16.6 48.85Q16.5 48.4 16.75 48.1L44.2 9.55Q45.4 7.75 46.8 7.35L49.7 6.55L72.9 0.45Q75.65 -0.35 77.1 1.05L77.15 1.1L77.25 1.2L77.35 1.3L77.4 1.35Q78 2 78.3 3.15L78.4 5.5L76.95 19L75.5 31.1Q75.2 32.7 74.1 33.6L33.55 64.85L32.85 65.05L32.15 64.65Q31.9 64.35 31.95 63.95L32.1 63.55L32.35 63.25" />
<path style="fill:#E9E6E3;fill-opacity:1" d="M66.2,12.75L66.15 13.05L66.15 12.95L65.85 12.95L66.15 12.8L66.2 12.75" />
<path style="fill:#F5F1EE;fill-opacity:1" d="M66.2,12.5L66.15 12.5L66.2 12.4L66.2 12.5M66.4,12.4L66.25 12.5L66.25 12.4L66.6 12.2L66.4 12.4" />
<path style="fill:#C9C2BE;fill-opacity:1" d="M66.6,12.2L66.45 12.4L66.4 12.4L66.25 12.6L66.2 12.55L66.2 12.75L66.15 12.8L66.2 12.55L66.15 12.5L66.2 12.5L66.2 12.4L66.2 12.35L66.25 12.4L66.25 12.5L66.4 12.4L66.6 12.2" />
<path style="fill:#ACA49F;fill-opacity:1" d="M45.15,35.1L41.75 38.8L41.75 38.9L41.65 38.8L41.75 38.65L45.15 35.1M37.75,43.15L37.65 43.3L37.65 43.15L37.75 43.15" />
<path style="fill:#D9AB31;fill-opacity:1" d="M15.05,52.95L15.05 53.15L15.05 53.7L14.1 53.8L13.9 53.65L13.75 53.25Q13.75 52.85 14.1 52.8L14.85 52.85L14.9 52.85L15.05 52.95" />
<path style="fill:#FFF16A;fill-opacity:1" d="M8.7,56.35Q8.1 55.7 11.05 52.25Q14.05 48.75 15.25 49.25L31.4 65.65Q32.15 66.65 31.65 67.55L30.6 68.75L30 67.95L30.05 67.5L28.55 65.6L25.75 63.15L21.45 59.5L20.5 58.55Q20.85 58.7 21.25 58.3L21.25 58.2Q21.1 57.55 20.3 57.55L20.1 57.7L19.9 57.95L18.6 56.7L17.8 56.5Q17.6 56.15 17.75 55.95L16.7 55.1L17.1 55.05L17.15 54.5L17 53.85L16.95 53.8L16.35 53.7L16.15 53.9L16.1 54.65L15.8 54.5L15.6 54.7L15.6 55.4L14.7 55.4L14.3 55.2L12.9 55.05L12.9 54.7L12.85 54.7Q11.35 54.7 10.55 56.3L10.45 56.2L8.85 56.75L8.7 56.35M14.9,52.85L14.85 52.85L14.1 52.8Q13.75 52.85 13.75 53.25L13.9 53.65L14.1 53.8L15.05 53.7L15.05 53.15L15.05 52.95L14.9 52.85M14.75,57.55Q13.95 57.15 14.65 56.7Q15.25 57.05 14.85 57.55L14.75 57.55" />
<path style="fill:#3C2515;fill-opacity:1" d="M4.7,75.9Q5.25 76.55 7.45 77.9Q9.6 79.25 11.9 77.9Q14.2 76.5 17.65 73.15L19.85 70.8L21.5 72.25L21.1 72.7L16.05 77.3Q11.6 81.2 8.3 80.25Q3.2 79.15 0.5 73.9L0.25 73.3Q-0.3 71.9 0.3 69.8Q0.9 67.65 4.7 63.55L8.5 59.3L8 58.7L10.3 60.95L8.1 63.2L4.45 67.25Q2.7 69.75 2.45 71.05Q2.2 72.35 2.7 73.4Q3.3 74.75 4.7 75.9" />
<path style="fill:#E5AE27;fill-opacity:1" d="M24.9,72.3Q10.2 58.95 8.85 56.75L10.45 56.2L10.55 56.3Q11.35 54.7 12.85 54.7L12.9 54.7L12.9 55.05L14.3 55.2L14.7 55.4L15.6 55.4L15.6 54.7L15.8 54.5L16.1 54.65L16.15 53.9L16.35 53.7L16.95 53.8L17 53.85L17.15 54.5L17.1 55.05L16.7 55.1L17.75 55.95Q17.6 56.15 17.8 56.5L18.6 56.7L19.9 57.95L20.1 57.7L20.3 57.55Q21.1 57.55 21.25 58.2L21.25 58.3Q20.85 58.7 20.5 58.55L21.45 59.5L25.75 63.15L28.55 65.6L30.05 67.5L30 67.95L30.6 68.75Q26.4 73.2 24.9 72.3M26.6,66.1L23.55 62.85L20.85 60.15L19.15 58.6L20.4 61.8L20.2 61.8L20.1 61.85Q20.1 62.25 20.25 62.45L19.5 62.2Q19.25 62.05 19.05 62L18.4 61.65Q18.3 62.1 15.95 61.05Q13.6 60 16.1 62.35L19.15 65.4L22.35 68.45Q25.05 70.75 25.55 70.85Q28.1 70.1 28.25 67.85L26.6 66.1M14.85,57.55Q15.25 57.05 14.65 56.7Q13.95 57.15 14.75 57.55L14.85 57.55M15.45,57.9Q15.75 59.35 17.35 58.95L17.35 58.9Q17.2 57.45 15.55 57.7L15.45 57.9" />
<path style="fill:#D26936;fill-opacity:1" d="M28.25,67.85Q28.1 70.1 25.55 70.85Q25.05 70.75 22.35 68.45L19.15 65.4L16.1 62.35Q13.6 60 15.95 61.05Q18.3 62.1 18.4 61.65L19.05 62Q19.25 62.05 19.5 62.2L20.25 62.45Q20.1 62.25 20.1 61.85L20.2 61.8L20.4 61.8L19.15 58.6L20.85 60.15L23.55 62.85L26.6 66.1L28.25 67.85M15.55,57.7Q17.2 57.45 17.35 58.9L17.35 58.95Q15.75 59.35 15.45 57.9L15.55 57.7" />
<path style="fill:#743517;fill-opacity:1" d="M19.85,70.8L18.6 69.7L18.75 69.5L18.45 69.3L16.2 66.9L15.3 65.8L11.4 61.9L11.4 62L10.3 60.95L8 58.7L7.25 57.6Q6.5 56.55 6.85 54.8Q7.15 52.95 10.25 49.8Q13.4 46.7 14.9 47.05Q16.2 47.3 17.35 48.45L17.55 48.65L20.15 51.5L21.85 53.2L23.2 54.7L25.15 56.65L27.35 58.85L28.8 60.4L29.95 61.4L31.4 62.85L33.1 64.3Q33.95 66.2 33.8 67.15L33.15 69.05L30.75 71.8Q28.9 73.5 27.25 74.1L24.75 74.4Q23.8 74.1 21.55 72.15L21.55 72.25L21.5 72.25L19.85 70.8M8.85,56.75Q10.2 58.95 24.9 72.3Q26.4 73.2 30.6 68.75L31.65 67.55Q32.15 66.65 31.4 65.65L15.25 49.25Q14.05 48.75 11.05 52.25Q8.1 55.7 8.7 56.35L8.85 56.75" />
<path style="fill:#DBA17D;fill-opacity:1" d="M3.85,71.55L3.8 71.6L2.7 73.4Q2.2 72.35 2.45 71.05Q2.7 69.75 4.45 67.25L8.1 63.2L8.95 64.5L9.55 65.2Q6 68.45 3.85 71.55" />
<path style="fill:#9F6D50;fill-opacity:1" d="M2.7,73.4L3.8 71.6L3.85 71.55Q6 68.45 9.55 65.2L9.85 65.55L10.45 66.2L11.9 68.2L11.7 69.4L10.9 70.7L9.8 71.95L8.05 73.55L6 75.1L4.7 75.9Q3.3 74.75 2.7 73.4" />
<path style="fill:#6B4228;fill-opacity:1" d="M10.3,60.95L11.4 62L11.4 61.9L15.3 65.8L16.2 66.9L18.45 69.3L18.75 69.5L18.6 69.7L19.85 70.8L17.65 73.15Q14.2 76.5 11.9 77.9Q9.6 79.25 7.45 77.9Q5.25 76.55 4.7 75.9L6 75.1L8.05 73.55L9.8 71.95L10.9 70.7L11.7 69.4L11.9 68.2L10.45 66.2L9.85 65.55L9.55 65.2L8.95 64.5L8.1 63.2L10.3 60.95" />
</g>
</svg>
