<?xml version="1.0" encoding="utf-8"?>
<svg version="1.1" id="Layer_1"
xmlns="http://www.w3.org/2000/svg"
xmlns:xlink="http://www.w3.org/1999/xlink"
xmlns:author="http://www.sothink.com"
width="27px" height="24px"
xml:space="preserve">
<g id="629" transform="matrix(1, 0, 0, 1, 0, 0)">
<path style="fill:#1D3E5D;fill-opacity:1" d="M24.6,6.8L24.65 8.1L24.6 9.95L24.55 10.7L24.4 11.5L24.35 11.95Q23.4 11.8 22.3 11.95Q20.65 12.2 19.3 13.65L18 15.5L16.3 17.25L16.75 16L18.2 12.5L19.15 8.9Q11.65 13.7 10.5 11.55L10.3 11.35L9.45 10.2L8.8 9L8.6 8.5L10.65 4.45Q12.45 1.4 16.2 1.45Q19.9 1.4 22 3Q23.7 4.35 24.6 6.1L24.6 6.8M19.15,18.3Q17.1 21.6 13.15 22.25L5.85 22.05Q2.5 21.2 1.95 19.8L1.85 19.5L2.8 20L3.75 20.4L4.55 20.65L6.5 21.05L7.35 21.2L9.3 21.4L11.05 21.35L13.3 20.95L14.95 20.55L16 20.1L16.75 19.35L16.7 18.7L16.55 18.25Q18.35 16.95 19.45 15.1Q20.95 12.45 24.1 12.8L23.7 13.95L23.35 14.85L23.25 15.1Q21.15 15.5 19.15 18.3" />
<path style="fill:#286593;fill-opacity:1" d="M12.9,18.85L5.5 18.6Q1.7 17.2 1.65 15.9Q1.6 14.55 3.55 13.55Q6.45 11.75 8.6 8.5L8.8 9L9.45 10.2L10.3 11.35L10.5 11.55Q11.65 13.7 19.15 8.9L18.2 12.5L16.75 16L16.3 17.25Q14.95 18.2 12.9 18.85M24.35,11.95L24.4 11.5L24.55 10.7L24.6 9.95L24.65 8.1L24.6 6.8L24.6 6.1Q25.95 8.75 25.2 12.2L24.35 11.95M24.95,12.95Q25 13.9 24 15L23.25 15.1L23.35 14.85L23.7 13.95L24.1 12.8L24.95 12.95M1.65,17.85Q3 19.2 6.7 20.1Q10.35 21 14.05 19.55Q15.4 19 16.55 18.25L16.7 18.7L16.75 19.35L16 20.1L14.95 20.55L13.3 20.95L11.05 21.35L9.3 21.4L7.35 21.2L6.5 21.05L4.55 20.65L3.75 20.4L2.8 20L1.85 19.5Q1.4 18.3 1.65 17.85M5.8,13L3.9 14.1Q2.9 14.85 2.9 15.65Q2.85 16.45 4.05 17.25Q5.2 18 7.7 18.45Q10.15 18.85 12 18.05Q13.8 17.25 10.45 17.35Q7.1 17.45 5.8 16.35Q4.5 15.2 5.6 13.95Q6.7 12.65 5.8 13" />
<path style="fill:#6CACE7;fill-opacity:1" d="M5.6,13.95Q4.5 15.2 5.8 16.35Q7.1 17.45 10.45 17.35Q13.8 17.25 12 18.05Q10.15 18.85 7.7 18.45Q5.2 18 4.05 17.25Q2.85 16.45 2.9 15.65Q2.9 14.85 3.9 14.1L5.8 13Q6.7 12.65 5.6 13.95" />
<path style="fill:#19213C;fill-opacity:1" d="M24.3,3.05Q25.15 3.95 25.8 5.2Q26.95 7.4 26.75 10.65Q26.6 12.75 25.7 14.45Q24.75 16.1 23.85 16.25Q23.15 16.35 22.45 16.8L22 17.1Q21 17.75 19.9 19.25L17.7 21.95Q16.55 23.1 12.85 23.7L6.15 23.45Q3.15 22.6 1.95 21.75Q0.95 21.05 0.3 18.75Q-0.35 16.4 0.35 14.9Q1.05 13.35 3.65 11.95Q6.05 10.6 8.2 6.3L8.45 5.8Q10.7 1.1 13.2 0.4L18.5 0.25Q21.3 0.75 23.05 1.95L24.3 3.05M16.3,17.25L18 15.5L19.3 13.65Q20.65 12.2 22.3 11.95Q23.4 11.8 24.35 11.95L25.2 12.2Q25.95 8.75 24.6 6.1Q23.7 4.35 22 3Q19.9 1.4 16.2 1.45Q12.45 1.4 10.65 4.45L8.6 8.5Q6.45 11.75 3.55 13.55Q1.6 14.55 1.65 15.9Q1.7 17.2 5.5 18.6L12.9 18.85Q14.95 18.2 16.3 17.25M1.85,19.5L1.95 19.8Q2.5 21.2 5.85 22.05L13.15 22.25Q17.1 21.6 19.15 18.3Q21.15 15.5 23.25 15.1L24 15Q25 13.9 24.95 12.95L24.1 12.8Q20.95 12.45 19.45 15.1Q18.35 16.95 16.55 18.25Q15.4 19 14.05 19.55Q10.35 21 6.7 20.1Q3 19.2 1.65 17.85Q1.4 18.3 1.85 19.5" />
</g>
</svg>
