<?xml version="1.0" encoding="utf-8"?>
<svg version="1.1" id="Layer_1"
xmlns="http://www.w3.org/2000/svg"
xmlns:xlink="http://www.w3.org/1999/xlink"
xmlns:author="http://www.sothink.com"
width="267px" height="97px"
xml:space="preserve">
<g id="734" transform="matrix(1, 0, 0, 1, 85, 0)">
<path style="fill:#EFBE73;fill-opacity:1" d="M160.85,21.75Q162.3 21.2 163.7 19.35Q165.05 17.5 164.9 15.2L164.3 12.05L164.5 12.75L165.25 14.6L165.5 16.25Q165.5 16.9 164.75 18.25Q164 19.6 164.1 19.9L162.75 21.3Q161.25 22.5 160.15 22.5L159.45 22.05L160.85 21.75M-66,10L-62.65 12.6Q-60.2 14.6 -58.25 18.25L-59.85 16.55L-62.45 13.8L-65.35 11.3Q-66.7 10.2 -67 9.15L-66 10" />
<path style="fill:#F7D49F;fill-opacity:1" d="M175.7,0L169.05 8.1L168.9 8.1L162.65 8.1Q161.85 6.65 161.85 4.85Q161.85 4.15 163.2 2.15Q163.85 1.2 163.7 0L175.7 0M-66,8.05Q-67.6 6.55 -67.6 5.05Q-67.6 2.85 -67 2.1L-65.25 0L157.45 0Q157.65 2.1 158.95 3.85Q159.7 4.9 160.15 6.5L160.6 8.1L-65.95 8.1L-66 8.05M-85,9.6L-85 5.45Q-85 0 -79.7 0L-68.4 0L-68.85 1.5L-68.4 4.7L-67.65 8.1L-72.55 8.1Q-76.95 8.1 -76.95 12.6L-76.95 16L-85 9.6" />
<path style="fill:#CD9E62;fill-opacity:1" d="M-76.95,16L-76.95 12.6Q-76.95 8.1 -72.55 8.1L-67.65 8.1L-67.6 8.35L-67.35 8.8L-67 9.15Q-66.7 10.2 -65.35 11.3L-62.45 13.8L-59.85 16.55L-58.25 18.25L-57.65 19.5L-57.65 18.6Q-59.3 12.9 -60.9 11.9L-63.7 10.05Q-63.95 9.9 -64.1 9.9L-65.95 8.1L160.6 8.1Q160.65 8.5 161.45 9.45L163.2 12.2Q164.1 14.15 164.1 16.6Q164.1 17.35 162.95 18.45L159.45 21.75L159.4 21.95L159.4 22.05L159.45 22.05L160.15 22.5Q161.25 22.5 162.75 21.3L164.1 19.9Q164 19.6 164.75 18.25Q165.5 16.9 165.5 16.25L165.25 14.6L164.5 12.75L164.3 12.05L164.25 11.85L163.85 10.85L162.65 8.1L168.9 8.1L169.05 8.1Q173.25 8.2 173.4 12.2L173.4 12.6L173.4 84Q173.4 88.45 168.9 88.45L-72.55 88.45Q-76.95 88.45 -76.95 84L-76.95 83.15L-76.95 16" />
<path style="fill:#8C4E38;fill-opacity:1" d="M181.5,91.15Q181.5 96.5 176.15 96.5L-79.7 96.5Q-85 96.5 -85 91.15L-85 85.4L-76.95 83.15L-76.95 84Q-76.95 88.45 -72.55 88.45L168.9 88.45Q173.4 88.45 173.4 84L173.4 12.6L173.4 12.2L181.5 6.35L181.5 91.15" />
<path style="fill:#9C4E38;fill-opacity:1" d="M169.05,8.1L175.7 0L176.15 0Q181.5 0 181.5 5.45L181.5 6.35L173.4 12.2Q173.25 8.2 169.05 8.1" />
<path style="fill:#AF7548;fill-opacity:1" d="M-85,9.6L-76.95 16L-76.95 83.15L-85 85.4L-85 9.6" />
<path style="fill:#74421C;fill-opacity:1" d="M163.7,0Q163.85 1.2 163.2 2.15Q161.85 4.15 161.85 4.85Q161.85 6.65 162.65 8.1L163.85 10.85L164.25 11.85L164.3 12.05L164.9 15.2Q165.05 17.5 163.7 19.35Q162.3 21.2 160.85 21.75L159.45 22.05L159.4 22.05L159.4 21.95L159.45 21.75L162.95 18.45Q164.1 17.35 164.1 16.6Q164.1 14.15 163.2 12.2L161.45 9.45Q160.65 8.5 160.6 8.1L160.15 6.5Q159.7 4.9 158.95 3.85Q157.65 2.1 157.45 0L163.7 0M-65.25,0L-67 2.1Q-67.6 2.85 -67.6 5.05Q-67.6 6.55 -66 8.05L-65.95 8.1L-64.1 9.9Q-63.95 9.9 -63.7 10.05L-60.9 11.9Q-59.3 12.9 -57.65 18.6L-57.65 19.5L-58.25 18.25Q-60.2 14.6 -62.65 12.6L-66 10L-67 9.15L-67.35 8.8L-67.6 8.35L-67.65 8.1L-68.4 4.7L-68.85 1.5L-68.4 0L-65.25 0" />
<path style="fill:#633818;fill-opacity:1" d="M-66.25,81.3Q-66.9 82 -67.85 82Q-68.85 82 -69.5 81.3Q-70.1 80.7 -70.2 79.9L-70.2 79.65Q-70.2 78.7 -69.5 78.05Q-68.85 77.35 -67.85 77.35Q-66.9 77.35 -66.25 78.05Q-65.55 78.7 -65.55 79.65L-65.55 79.9Q-65.65 80.7 -66.25 81.3" />
<path style="fill:#EFBE73;fill-opacity:1" d="M-65.55,79.9L-65.55 80.05L-65.55 80.2Q-65.65 81.3 -66.25 82.05Q-66.9 82.85 -67.85 82.85Q-68.85 82.85 -69.5 82.05Q-70.2 81.3 -70.2 80.2L-70.2 80.05L-70.2 79.9Q-70.1 80.7 -69.5 81.3Q-68.85 82 -67.85 82Q-66.9 82 -66.25 81.3Q-65.65 80.7 -65.55 79.9" />
<path style="fill:#633818;fill-opacity:1" d="M166.3,28.5L166.3 28.35Q166.3 27.6 166.75 27.1Q167.3 26.6 168 26.6Q168.75 26.6 169.3 27.1Q169.8 27.6 169.8 28.35L169.8 28.5Q169.75 29.1 169.3 29.55Q168.75 30.1 168 30.1Q167.3 30.1 166.75 29.55L166.3 28.75L166.3 28.5" />
<path style="fill:#EFBE73;fill-opacity:1" d="M169.8,28.75Q169.75 29.55 169.3 30.15Q168.75 30.75 168 30.75Q167.3 30.75 166.75 30.15Q166.3 29.55 166.3 28.75L166.75 29.55Q167.3 30.1 168 30.1Q168.75 30.1 169.3 29.55Q169.75 29.1 169.8 28.5L169.8 28.75" />
</g>
</svg>
