<?xml version="1.0" encoding="utf-8"?>
<svg version="1.1" id="Layer_1"
xmlns="http://www.w3.org/2000/svg"
xmlns:xlink="http://www.w3.org/1999/xlink"
xmlns:author="http://www.sothink.com"
width="35px" height="36px"
xml:space="preserve">
<g id="1092" transform="matrix(1, 0, 0, 1, 1.55, -8)">
<path style="fill:#CBB4AC;fill-opacity:1" d="M5.95,24L5.75 24.55L5.95 23.9L5.95 24" />
<path style="fill:#FFFFFF;fill-opacity:1" d="M19.05,39.8Q22.35 38.9 25.1 36Q27.85 33.05 29.5 29.55Q31.1 26.05 31.45 24.3L32.05 23.8Q31.95 26.6 31.55 28.1L30.25 31.55Q29.35 33.5 27.5 35.95Q25.65 38.35 23.8 39.65L21.55 41.05Q20.1 40.85 19.05 39.8M12.3,37.35L11.75 37.4L11.2 37.45L8.85 37Q7.7 36.45 7 34.95L6.2 33.5L6.5 33.8Q7.85 35.25 10.2 35.65Q12.5 36.05 14.05 34.85L15.45 33.6Q15.1 34.65 14.2 35.75L14 36.05L12.3 37.35" />
<path style="fill:#E9DBD2;fill-opacity:1" d="M19.05,39.8L18.1 38.55Q16.75 36.2 14 36.05L14.2 35.75Q15.1 34.65 15.45 33.6L14.05 34.85Q12.5 36.05 10.2 35.65Q7.85 35.25 6.5 33.8L6.2 33.5L5.65 32.75L5.4 32.5Q4.75 31.95 3.5 31.65Q1.9 31.25 1.5 30.55L1.35 30.15L1.7 29.6L3.4 28.1L4.95 26.9Q5.1 29.1 7.65 30.4Q9.45 31.3 10.65 31.3L13.4 31L14.85 29.95L14.75 30Q13.2 30.85 10.7 30.05Q8.35 29.25 7.1 27.5Q6.4 26.5 6.1 25.55Q5.9 24.75 5.95 24L5.95 23.9L6.75 22.75L8.1 22.4L10.9 22.2L10.95 22.2L11.25 22.3L15.15 23.65L16.45 24.15L20.9 26.3L22.85 27.6Q24.5 28.7 25.3 28.4L26.55 27.75L30.8 24.85L31.45 24.3Q31.1 26.05 29.5 29.55Q27.85 33.05 25.1 36Q22.35 38.9 19.05 39.8" />
<path style="fill:#A8938C;fill-opacity:1" d="M31.45,24.3L30.8 24.85L26.55 27.75L25.3 28.4Q24.5 28.7 22.85 27.6L20.9 26.3L16.45 24.15L15.15 23.65L11.25 22.3L10.95 22.2L10.9 22.2L8.1 22.4L6.75 22.75L5.95 23.9L5.75 24.55L5.95 24Q5.9 24.75 6.1 25.55Q6.4 26.5 7.1 27.5Q8.35 29.25 10.7 30.05Q13.2 30.85 14.75 30L14.85 29.95L13.4 31L10.65 31.3Q9.45 31.3 7.65 30.4Q5.1 29.1 4.95 26.9L3.4 28.1L1.7 29.6L1.35 30.15L1.5 30.55Q1.9 31.25 3.5 31.65Q4.75 31.95 5.4 32.5L5.65 32.75L6.2 33.5L7 34.95Q7.7 36.45 8.85 37L11.2 37.45L9.5 37.85L7.65 37.75L7.15 37.5Q6.2 36.85 5.4 35.55Q3.55 32.65 1.5 32.7Q-0.55 32.7 0.15 30.7Q0.65 29.2 1.5 28.3L2.2 27.65L2.85 27.15L4.45 25.5L4.55 25.35L4.8 25.05L4.9 24.9L6 22.75L6.55 21.15L8.15 17.1Q10.1 12.35 14.25 10.7Q18.55 8.9 22.9 9.8Q25 10.25 26.65 11.5Q27.9 12.45 28.95 13.9Q31.2 17.05 31.85 21.35L31.9 21.8L32.05 23.8L31.45 24.3M21.55,41.05Q18.75 42.85 17.45 40.45L17.4 40.35Q15.9 37.65 13.85 37.4L12.3 37.35L14 36.05Q16.75 36.2 18.1 38.55L19.05 39.8Q20.1 40.85 21.55 41.05" />
<path style="fill:#564C48;fill-opacity:1" d="M28.1,10.7Q30.35 12.6 31.7 15.6L32.45 17.9Q33.2 20.4 33.3 22.2L33.45 25.05Q33.4 26.8 33 28.3Q30.55 37 22.65 42.4Q20.55 43.8 19.05 43.75Q17.55 43.65 16.4 41.85L14.75 39.55L13.5 38.85Q12.75 38.65 9.6 39.5Q6.4 40.35 4.85 37.35Q3.3 34.3 0.7 34.25Q-1.95 34.2 -1.45 31.1Q-0.95 28 1.4 26.05Q3.75 24.1 4.55 22.1L6.5 16.55Q7.7 13 11.3 10.6Q14.85 8.2 21.2 8Q25.55 8.5 28.1 10.7M11.75,37.4L12.3 37.35L13.85 37.4Q15.9 37.65 17.4 40.35L17.45 40.45Q18.75 42.85 21.55 41.05L23.8 39.65Q25.65 38.35 27.5 35.95Q29.35 33.5 30.25 31.55L31.55 28.1Q31.95 26.6 32.05 23.8L31.9 21.8L31.85 21.35Q31.2 17.05 28.95 13.9Q27.9 12.45 26.65 11.5Q25 10.25 22.9 9.8Q18.55 8.9 14.25 10.7Q10.1 12.35 8.15 17.1L6.55 21.15L6 22.75L4.9 24.9L4.8 25.05L4.55 25.35L4.45 25.5L2.85 27.15L2.2 27.65L1.5 28.3Q0.65 29.2 0.15 30.7Q-0.55 32.7 1.5 32.7Q3.55 32.65 5.4 35.55Q6.2 36.85 7.15 37.5L7.65 37.75L9.5 37.85L11.2 37.45L11.75 37.4" />
</g>
</svg>
