<?xml version="1.0" encoding="utf-8"?>
<svg version="1.1" id="Layer_1"
xmlns="http://www.w3.org/2000/svg"
xmlns:xlink="http://www.w3.org/1999/xlink"
xmlns:author="http://www.sothink.com"
width="11px" height="11px"
xml:space="preserve">
<g id="1769" transform="matrix(1, 0, 0, 1, -1.55, -10.1)">
<path style="fill:#5F1000;fill-opacity:1" d="M9.35,19.4L10.45 18.35L10.75 17.85L9.55 16.35L7.65 14.25L5 11.45L4.35 12.05L3.65 12.55L3.55 12.65Q3 13.05 3 13.2L4.5 14.9L5.95 16.35L5.95 16.45L7.65 18.2L8.3 18.9L9.05 19.65L9.35 19.4M7.5,12.3L9.2 14.1L9.9 14.85L10.65 15.95L10.85 16.15L12 17.75Q12.25 18.1 11.05 19.3L10.5 19.85L9.1 21.05L7.8 19.9L7 19.05L5.25 17.15L5.15 17.05L3.2 15.05L2.55 14.25L1.55 12.9L2.55 12.05L3.85 11L4.9 10.25L5.3 10.1L6.3 11.1L7.5 12.3" />
<path style="fill:#791A1A;fill-opacity:1" d="M5,11.45L7.65 14.25L9.55 16.35L10.75 17.85L10.45 18.35L9.55 17.15L4.55 12L4.35 12.05L5 11.45" />
<path style="fill:#931A26;fill-opacity:1" d="M9.35,19.4L8.6 18.45L6.9 16.5L7 16.45L7.2 16.2L7.05 15.45L6.85 15.25L6.75 15.25L6.7 15.3L6.6 15.3L6.5 15.35L6.4 15.45L6.3 15.55L6.25 15.65L5.95 15.25L5.8 15.2L5.3 14.7L5.3 14.65L5.35 14.45L5.3 14.3L5.25 14.2L5.15 14.05L5.1 14.05L5 14.05L4.85 14.05L4.75 14.05L3.55 12.65L3.65 12.55L4.35 12.05L4.55 12L9.55 17.15L10.45 18.35L9.35 19.4M8.55,17L8.4 17L8.25 17L8.15 17L8.1 17.1L8.05 17.15L8 17.35L8.05 17.5L8.1 17.65L8.15 17.7L8.3 17.75L8.55 17.7L8.8 17.5L8.8 17.35L8.7 17.05L8.6 17L8.55 17" />
<path style="fill:#C23940;fill-opacity:1" d="M9.05,19.65L8.3 18.9L7.65 18.2L5.95 16.45L5.95 16.35L4.5 14.9L3 13.2Q3 13.05 3.55 12.65L4.75 14.05L4.85 14.05L5 14.05L5.1 14.05L5.15 14.05L5.25 14.2L5.3 14.3L5.35 14.45L5.3 14.65L5.3 14.7L5.8 15.2L5.95 15.25L6.25 15.65L6.3 15.55L6.4 15.45L6.5 15.35L6.6 15.3L6.7 15.3L6.75 15.25L6.85 15.25L7.05 15.45L7.2 16.2L7 16.45L6.9 16.5L8.6 18.45L9.35 19.4L9.05 19.65M8.6,17L8.7 17.05L8.8 17.35L8.8 17.5L8.55 17.7L8.3 17.75L8.15 17.7L8.1 17.65L8.05 17.5L8 17.35L8.05 17.15L8.1 17.1L8.15 17L8.25 17L8.4 17L8.55 17L8.6 17" />
</g>
</svg>
