<?xml version="1.0" encoding="utf-8"?>
<svg version="1.1" id="Layer_1"
xmlns="http://www.w3.org/2000/svg"
xmlns:xlink="http://www.w3.org/1999/xlink"
xmlns:author="http://www.sothink.com"
width="19px" height="29px"
xml:space="preserve">
<g id="391" transform="matrix(1, 0, 0, 1, 0, 0)">
<path style="fill:#38382E;fill-opacity:1" d="M1.35,24.5L1.2 18.4Q1.05 13.75 2.05 8.8Q3.05 3.8 5.6 1.85Q8.2 0.3 11.35 2.1Q14.45 3.9 15.95 9.1Q17.4 14.25 17.45 18L17.45 24Q17.4 24.6 17.5 25.05Q9.45 27.4 1.35 24.5" />
<path style="fill:#171710;fill-opacity:1" d="M0.1,24.1L0.05 24.15L0.05 23.45L0.05 22.3L0 17.9Q-0.05 14.4 0.9 9.35Q1.85 4.3 3.65 2.4Q5.4 0.5 6.7 0.25L8.35 0Q11.2 0.45 13.8 3.05Q16.35 5.65 17.5 10.85Q18.65 16.05 18.5 20.4L18.4 24.15L18.4 24.75L17.5 25.05Q17.4 24.6 17.45 24L17.45 18Q17.4 14.25 15.95 9.1Q14.45 3.9 11.35 2.1Q8.2 0.3 5.6 1.85Q3.05 3.8 2.05 8.8Q1.05 13.75 1.2 18.4L1.35 24.5L0.1 24.1" />
<path style="fill:#512A70;fill-opacity:1" d="M14.4,27.6L9.3 27.9L4.25 27.25Q1.85 26.6 1.6 26.25Q1.35 25.85 1.45 25.5L6.55 26.6Q10.95 27.45 17.1 26.05L17.1 26.75Q16.85 27.3 14.4 27.6" />
<path style="fill:#2C1335;fill-opacity:1" d="M0.1,24.1L1.35 24.5Q9.45 27.4 17.5 25.05L18.4 24.75L18.3 27.3Q17.4 28.5 13.65 28.75L7.65 28.8L4.5 28.45L2.05 27.7Q0.65 27.2 0.4 26.65L0.1 24.1M17.1,26.75L17.1 26.05Q10.95 27.45 6.55 26.6L1.45 25.5Q1.35 25.85 1.6 26.25Q1.85 26.6 4.25 27.25L9.3 27.9L14.4 27.6Q16.85 27.3 17.1 26.75" />
</g>
</svg>
