<?xml version="1.0" encoding="utf-8"?>
<svg version="1.1" id="Layer_1"
xmlns="http://www.w3.org/2000/svg"
xmlns:xlink="http://www.w3.org/1999/xlink"
xmlns:author="http://www.sothink.com"
width="36px" height="91px"
xml:space="preserve">
<g id="1597" transform="matrix(1, 0, 0, 1, 14.85, 16.45)">
<path style="fill:#FFFFFF;fill-opacity:1" d="M9,-16.2L9 -14.7L9.2 -14.7L9.2 -15.45L9.55 -15.2Q9.75 -14.95 9.75 -12.65L9.6 -7.65L9.1 -10.9L8.15 -14.7L7.6 -14.05L7.7 -15.65Q7.8 -15.45 8.05 -15.45L8.85 -16.45Q8.85 -16.2 9 -16.2M12.25,0L11.8 -2L11.35 -3.45L11.5 -4.05L11.6 -3.95Q12 -3.45 12.4 -3.3L12.4 -2.05Q12.25 -1.15 12.25 0M19.55,-2.3L19.55 -2.55L20.45 -0.7L20.8 0.5L20.35 1.7L19.7 3.25L19.7 3.5L19.25 -1.3L19.55 -2.3M2.95,5.55Q2.15 7.15 2.2 8L1.7 4.8L2.95 5.55M-13.35,5.7L-13.2 5.7L-13.35 6.65Q-13.25 7.4 -12.9 7.5L-14 9.25L-14.85 10.85L-13.8 6.85L-13.35 5.7M-12,21L-12 19.7L-12 19.2L-11.9 19.25L-11.05 19.5L-12 21M-12.9,15.05Q-13 13.9 -12.75 13.2L-11.3 11.75L-13.25 17.2Q-12.9 16 -12.9 15.05M-8.9,13.25L-8.85 12.85L-8.7 12.5L-7.7 12.9L-8.7 14.75L-8.9 13.25M-5.35,23L-5.05 21.7L-4.1 21.6L-4.55 23.4L-4.95 23.65Q-5.5 23.85 -5.7 24.45L-5.35 23M-7.6,32.95L-10.75 35.5Q-6.85 30.8 -6.2 29.35L-7.6 32.95M-3.9,26.2L-3.55 26.35Q-4.1 28.8 -4.55 30.05L-5.2 29.8L-3.9 26.2M-8.15,47.55L-8.25 49.7L-9.35 50.6Q-10.3 51.5 -10.7 52.35L-9.25 49.1L-8.15 47.55M-2.7,42.9L-3 45.75L-3.95 46.7L-4.2 46.9L-2.7 42.9M-12.55,62.9L-11.75 63.15L-10.9 63.4L-11.2 64.9Q-11.35 64.35 -11.95 63.75L-12.65 63.2L-12.55 62.9M-11.2,69.1L-11.35 69L-11.15 68.65L-10.55 67.85L-9.4 70.7L-9.3 70.65Q-9.75 71.05 -10.15 73.15L-10.25 74.15L-10.4 72Q-10.45 70.35 -10.6 69.75L-11.2 69.1" />
</g>
</svg>
