<?xml version="1.0" encoding="utf-8"?>
<svg version="1.1" id="Layer_1"
xmlns="http://www.w3.org/2000/svg"
xmlns:xlink="http://www.w3.org/1999/xlink"
xmlns:author="http://www.sothink.com"
width="35px" height="33px"
xml:space="preserve">
<g id="1145" transform="matrix(1, 0, 0, 1, 0, 0)">
<path style="fill:#982E0F;fill-opacity:1" d="M18.1,1.05Q14.35 1.55 12.95 2.4Q13.7 2.9 14.35 4.25L14.9 5.7L14.55 5.7L14.05 5.7Q13.8 4.9 12.7 3.6L11.5 2.25Q12.4 1.3 15.2 0.6L19.05 0Q21.55 0 24.1 1.3Q26.1 2.3 28.1 4.1L29.5 5.5Q34.05 10.6 34.05 18.6Q34.05 19.1 32.05 20.55Q30.05 21.95 28.65 22.5L28.65 22.25L28.7 21.75L31.8 19.5L33.2 18.15Q33.2 14 30.2 8.7Q29 6.55 27.5 5L26.3 3.9Q22.8 1.05 18.1 1.05" />
<path style="fill:#B1552E;fill-opacity:1" d="M14.9,5.7L14.35 4.25L14.25 3.75Q14.05 2.7 14.45 3L17.5 2.6L19.05 2.55L18.8 2.25Q19.05 1.9 19.75 2.4L20 2.6L20.8 2.65L20.5 2.15Q20.95 1.85 21.35 2.35L21.7 2.75L22.15 2.85L23.75 3.15Q23.6 3.25 23.6 3.45Q23.6 3.85 24.15 3.85L24.4 3.4L24.4 3.3L26.3 3.9L27.5 5Q29.3 7.55 29.8 9.95L29.55 9.9L29.5 10.1Q29.5 10.65 29.9 10.8L29.95 11.6Q29.95 13.3 29.05 13.3Q27.8 13.3 24.2 10.1L22.4 8.65Q21.25 7.7 20.05 7.1L18.75 6.55L16.6 5.95L16.25 5.85L14.9 5.7M23.95,6L24.2 6.05L24.4 6L24.4 5.75L24.15 5.55L24 5.6Q23.9 5.6 23.9 5.75L23.95 6M24.95,9.45L25.85 9.65L26.1 9.6L26.1 9.15Q25.9 8.7 25.4 8.9Q24.9 9.1 24.9 9.25L24.95 9.45M27.95,9.2L28.2 9.25L28.4 9.2L28.4 8.95L28.15 8.75L28 8.8L27.9 8.95L27.95 9.2M17.65,2.15L17.7 2.45L17.5 2.55L17.25 2.5L17.2 2.25L17.45 1.95L17.65 2.15M19.25,5.15L19 5.45L19.05 5.7L19.3 5.75L19.5 5.65L19.45 5.35L19.25 5.15" />
<path style="fill:#D26A3D;fill-opacity:1" d="M14.35,4.25Q13.7 2.9 12.95 2.4Q14.35 1.55 18.1 1.05Q22.8 1.05 26.3 3.9L24.4 3.3L24.4 3.4L24.15 3.85Q23.6 3.85 23.6 3.45Q23.6 3.25 23.75 3.15L22.15 2.85L21.7 2.75L21.35 2.35Q20.95 1.85 20.5 2.15L20.8 2.65L20 2.6L19.75 2.4Q19.05 1.9 18.8 2.25L19.05 2.55L17.5 2.6L14.45 3Q14.05 2.7 14.25 3.75L14.35 4.25M23.9,5.75Q23.9 5.6 24 5.6L24.15 5.55L24.4 5.75L24.4 6L24.2 6.05L23.95 6L23.9 5.75M17.45,1.95L17.2 2.25L17.25 2.5L17.5 2.55L17.7 2.45L17.65 2.15L17.45 1.95M19.45,5.35L19.5 5.65L19.3 5.75L19.05 5.7L19 5.45L19.25 5.15L19.45 5.35" />
<path style="fill:#524A47;fill-opacity:1" d="M20.25,10.2L20.25 10.45L20.7 11.3Q19.75 10.8 19.4 10.8L19.2 10.8L19.2 11L20.9 11.8L21.1 12.6Q20.05 12.1 19.8 12.1L19.65 12.1Q19.85 12.6 20.95 13.1L21.25 13.25L21.3 13.55L21.45 13.45L21.45 13.3L22.15 13.5L22.35 13.35L21.35 12.75L21.15 11.95L21.95 12.3L22.05 12.25L22.1 12.1L21 11.45L20.35 10.2L20.25 10.2M21.2,15.6L20.9 15.2Q19.55 13.6 18.35 12.85Q16.2 11.45 12.6 11.5Q8.95 11.55 7.25 12.55L7.05 12.65Q6.75 12.5 6.75 12.2Q6.75 11.65 8.4 10.1L10.5 8.35Q11.45 7.75 13.75 7.35L14.35 7.25L16.3 7.05L16.85 7.15L19.35 7.8Q21.6 8.65 23.95 11.7L25.15 13.9Q25.55 14.8 25.55 15.65L25.35 15.65L25.3 15.85L25.5 16.2L25.5 16.25Q24.8 17.85 23.5 17.5Q22.15 17.15 21.75 16.55L21.2 15.6M24.15,16.2L24.15 16.4L24.1 16.4L24.15 16.65L24.45 16.7L24.7 16.4L24.15 15.95L24.15 16.2M13.5,8.95L13.35 9.15L13.65 9.4L14.15 9L14.05 8.9L13.5 8.95M10.35,10.25Q9.4 10.15 9.4 10.5L9.4 10.65L9.6 10.75L10.55 10.4L10.35 10.25M18.55,9.1L18.65 9.35L18.85 9.55L19 9.5L19.05 9.35L18.7 9.05L18.55 9.1" />
<path style="fill:#433B38;fill-opacity:1" d="M20.35,10.2L21 11.45L22.1 12.1L22.05 12.25L21.95 12.3L21.15 11.95L21.35 12.75L22.35 13.35L22.15 13.5L21.45 13.3L21.45 13.45L21.3 13.55L21.25 13.25L20.95 13.1Q19.85 12.6 19.65 12.1L19.8 12.1Q20.05 12.1 21.1 12.6L20.9 11.8L19.2 11L19.2 10.8L19.4 10.8Q19.75 10.8 20.7 11.3L20.25 10.45L20.25 10.2L20.35 10.2M25.15,13.45Q27.75 17.45 27.75 21.45Q27.75 23.85 26.8 25.5L25.5 27.55Q24.15 29.3 23.1 29.3L21.85 29.2L21.95 29.05Q22.95 27.5 23.3 25.6L23.45 23.3L23.3 20.9Q23 18.75 21.75 16.55Q22.15 17.15 23.5 17.5Q24.8 17.85 25.5 16.25L25.5 16.2L25.3 15.85L25.35 15.65L25.55 15.65Q25.55 14.8 25.15 13.9L23.95 11.7L25.15 13.45M24.15,15.95L24.7 16.4L24.45 16.7L24.15 16.65L24.1 16.4L24.15 16.4L24.15 16.2L24.15 15.95M14.05,8.9L14.15 9L13.65 9.4L13.35 9.15L13.5 8.95L14.05 8.9M10.55,10.4L9.6 10.75L9.4 10.65L9.4 10.5Q9.4 10.15 10.35 10.25L10.55 10.4M18.7,9.05L19.05 9.35L19 9.5L18.85 9.55L18.65 9.35L18.55 9.1L18.7 9.05" />
<path style="fill:#A14C27;fill-opacity:1" d="M28.7,21.65L28.7 20.8Q28.55 16.65 25.75 12.5Q24.2 10.15 22.4 8.65L24.2 10.1Q27.8 13.3 29.05 13.3Q29.95 13.3 29.95 11.6L29.9 10.8Q29.5 10.65 29.5 10.1L29.55 9.9L29.8 9.95Q29.3 7.55 27.5 5Q29 6.55 30.2 8.7Q33.2 14 33.2 18.15L31.8 19.5L28.7 21.75L28.7 21.65M24.9,9.25Q24.9 9.1 25.4 8.9Q25.9 8.7 26.1 9.15L26.1 9.6L25.85 9.65L24.95 9.45L24.9 9.25M27.9,8.95L28 8.8L28.15 8.75L28.4 8.95L28.4 9.2L28.2 9.25L27.95 9.2L27.9 8.95" />
<path style="fill:#694817;fill-opacity:1" d="M21.2,30L20.5 29.85Q18.85 29.35 18.35 29.05L17.6 28.55L17.25 28.15Q18.35 26.55 18.6 25.15L18.7 22.2Q18.55 20.7 17.55 18.95Q16.55 17.15 13.75 16.75L10.05 16.65L8.75 17.1L8.1 17.4L7.5 17.85L6.6 18.75L6.4 19.1L6.3 19.05L5.65 18.9Q5.05 18.65 4.7 17.85L4.45 17.05L4.35 16.75L4.05 14.95L5 14L7.05 12.65L7.25 12.55Q8.95 11.55 12.6 11.5Q16.2 11.45 18.35 12.85Q19.55 13.6 20.9 15.2L21.2 15.6L21.75 16.55Q23 18.75 23.3 20.9L23.45 23.3L23.3 25.6Q22.95 27.5 21.95 29.05L21.85 29.2L21.2 30M19.05,14.3Q17.25 12.75 15.15 12.35L10.8 12.2L9.65 12.4Q8.25 12.7 7.4 13.25Q6.2 13.95 5.75 14.4L5.05 15.25L5.15 16.1L5.3 16.6L5.35 16.75L6.05 17.95Q6.25 17.45 7.95 16.5Q8.7 16.05 9.55 15.85L9.65 15.85L12.4 15.6L15.45 16.1Q16.65 16.55 17.65 17.65Q18.6 18.7 18.85 19.6L19.4 21.75Q19.65 23 19.5 24.75Q19.3 26.45 18.55 28.05L19.85 28.65L21 29.05L21.6 28.35L22.25 27.1L22.75 23.75L22.75 23.7Q23 21 21.95 18.4Q21 16.2 19.65 14.8L19.1 14.35L19.05 14.3" />
<path style="fill:#AA912B;fill-opacity:1" d="M22.25,27.1L21.6 28.35L21 29.05L19.85 28.65L18.55 28.05Q19.3 26.45 19.5 24.75Q19.65 23 19.4 21.75L18.85 19.6Q18.6 18.7 17.65 17.65Q16.65 16.55 15.45 16.1L12.4 15.6L9.65 15.85L9.55 15.85Q8.7 16.05 7.95 16.5Q6.25 17.45 6.05 17.95L5.35 16.75L5.3 16.6L5.45 16.55L6.15 16.1L8.15 15.1L13.6 14.5L15.65 14.95L17.3 15.65Q18.1 16.05 18.6 16.8L19.65 18.3Q20.05 18.75 20.25 19.95L20.6 22L20.65 23.5Q20.7 24.1 21.5 24.1L22.75 23.75L22.25 27.1" />
<path style="fill:#C6A831;fill-opacity:1" d="M5.65,15.9Q5.9 14.9 6.7 14.55L9.2 13.45L12.7 13.05L13.25 13.1L13.95 13.15L15.85 13.4L18.1 13.9L18.25 13.95L19.1 14.35L19.65 14.8Q21 16.2 21.95 18.4Q23 21 22.75 23.7L22.75 23.75L21.5 24.1Q20.7 24.1 20.65 23.5L20.6 22L20.25 19.95Q20.05 18.75 19.65 18.3L18.6 16.8Q18.1 16.05 17.3 15.65L15.65 14.95L13.6 14.5L8.15 15.1L6.15 16.1L5.45 16.55L5.65 15.9" />
<path style="fill:#2E2827;fill-opacity:1" d="M21.85,29.2L23.1 29.3Q24.15 29.3 25.5 27.55L26.8 25.5Q27.75 23.85 27.75 21.45Q27.75 17.45 25.15 13.45L23.95 11.7Q21.6 8.65 19.35 7.8L16.85 7.15L16.3 7.05L15.3 6.9L14.3 6.8L13.95 6.8L12.65 6.95Q8.9 8 6.85 10.35Q5.1 12.3 5 13.65L5 14L4.05 14.95L4.05 13.45Q4.2 11.9 6 9.8Q8.2 7.25 11.45 6.2L13.75 5.7L14.05 5.7L14.55 5.7L14.9 5.7L16.25 5.85L16.6 5.95L18.75 6.55L20.05 7.1Q21.25 7.7 22.4 8.65Q24.2 10.15 25.75 12.5Q28.55 16.65 28.7 20.8L28.7 21.65L28.7 21.75L28.65 22.25L28.65 22.5L28.45 23.4L26.9 27Q25.1 30.2 23.6 30.25L21.2 30L21.85 29.2" />
<path style="fill:#7E7470;fill-opacity:1" d="M5,14L5 13.65Q5.1 12.3 6.85 10.35Q8.9 8 12.65 6.95L13.95 6.8L14.3 6.8L15.3 6.9L16.3 7.05L14.35 7.25L13.75 7.35Q11.45 7.75 10.5 8.35L8.4 10.1Q6.75 11.65 6.75 12.2Q6.75 12.5 7.05 12.65L5 14" />
<path style="fill:#E1CF2F;fill-opacity:1" d="M19.1,14.35L18.25 13.95L18.1 13.9L15.85 13.4L13.95 13.15L13.25 13.1L12.7 13.05L9.2 13.45L6.7 14.55Q5.9 14.9 5.65 15.9L5.45 16.55L5.3 16.6L5.15 16.1L5.05 15.25L5.75 14.4Q6.2 13.95 7.4 13.25Q8.25 12.7 9.65 12.4L10.8 12.2L15.15 12.35Q17.25 12.75 19.05 14.3L19.1 14.35" />
<path style="fill:#B68E90;fill-opacity:1" d="M2.7,26.8L4.65 27.15L5.5 27.2L6.6 27.25L8.65 27.15L9.65 26.9L10.05 26.75L10.55 26.6L10.15 26.8L9.8 26.95L6.05 27.9L4.6 27.8L3.55 27.35L3.2 27.15L2.7 26.8M9.2,28L9.2 28.05L9.35 28.55Q9.4 29.3 8.85 30.45Q11.25 30.6 12.1 29.65L12.15 29.6L12.75 28.7Q12.6 29.8 11.85 30.4Q11.05 31.1 9.75 31.1L8.55 31.05L7.95 30.7L8.45 30.15L8.65 29.5L8.65 29L8.65 28.95L8.25 29.1L6.2 29.45L5.15 29.3L5.15 28.75L5.45 28.7L7.15 28.6L7.3 28.55L9.2 28M10.85,31.85L11.6 31.55L13.05 30.9Q16.2 29.35 16.2 28.7L15.8 28.2Q17.1 27 17.1 24L16.85 21.75Q16.5 20.2 16 19.55Q15.45 18.85 13.8 17.95Q12.15 17.05 10.75 17.05L8.75 17.1L10.05 16.65L13.75 16.75Q16.55 17.15 17.55 18.95Q18.55 20.7 18.7 22.2L18.6 25.15Q18.35 26.55 17.25 28.15L17.6 28.55L17.05 29.2L15 30.75Q13.45 31.65 11.25 31.8L10.85 31.85M5.05,25.7L4.95 25.8L4.45 25.85L3.65 25.7L3.1 25.25L3.05 24.9Q2.8 24.45 3.5 24.3Q4.2 24.1 4.65 24.85L5.05 25.7M7.9,24.6L7.4 24.9L7.3 24.7L7.6 24Q7.65 23.75 7.9 23.85L8.1 24.2L7.9 24.6M8.5,24.05L8.7 24.3L8.6 24.45L8.5 24.5L8.4 24.4L8.4 24.05L8.5 24.05M13.9,19.25L13.9 19L14.1 19L14.45 19.2L14.65 19.45L14.45 19.6L13.9 19.25M13.4,21.7L13.8 21.7Q14.25 21.7 14.85 22.15L15.4 22.75L15.5 23L15.3 23.25L13.35 21.9L13.4 21.7M14.9,24.4L14.9 24.7L14.75 24.8L13.4 23L13.55 22.95Q14.3 22.95 14.9 24.4M14.35,29.35L14.05 29.6L13.8 29.5L13.8 29.4Q13.8 29.15 14.15 29.15L14.35 29.35" />
<path style="fill:#F0D6D7;fill-opacity:1" d="M5.55,21.05L5.7 20.55Q6 19.55 6.2 19.3L6.35 19.1L6.4 19.1L6.6 18.75L7.5 17.85L8.1 17.4L7.75 18.05L7.15 19.45L6.7 19.55L6.4 19.8L6.45 20L6.75 20L6.95 19.9L6.8 20.45L6.5 20.4L6.5 20.6L6.75 20.7L6.7 21.4L6.7 21.95L5.55 21.05M6.6,22.85L6.05 22.7L4.75 22.65Q1.3 22.65 1.3 24.85L1.3 25.25Q0.95 24.6 0.9 23.85Q0.85 22.8 1.15 22.05Q1.45 21.25 3.35 21.3Q5.25 21.35 6.25 22.45L6.6 22.85" />
<path style="fill:#D9B5B7;fill-opacity:1" d="M8.75,17.1L10.75 17.05Q12.15 17.05 13.8 17.95Q15.45 18.85 16 19.55Q16.5 20.2 16.85 21.75L17.1 24Q17.1 27 15.8 28.2L16.2 28.7Q16.2 29.35 13.05 30.9L11.6 31.55L10.85 31.85L7.25 31.3Q5.45 30.65 5.25 29.75L5.15 29.3L6.2 29.45L8.25 29.1L8.65 28.95L8.65 29L8.65 29.5L8.45 30.15L7.95 30.7L8.55 31.05L9.75 31.1Q11.05 31.1 11.85 30.4Q12.6 29.8 12.75 28.7L12.9 28L12.9 27.9L12.9 27.85L12.65 26.5L12.3 26.1L12.4 26.05L12.7 25.75L12.9 25.45Q12.9 25.3 12.2 25.75L10.8 26.5L10.55 26.6L10.05 26.75L9.65 26.9L8.65 27.15L6.6 27.25L5.5 27.2L4.65 27.15L2.7 26.8L1.65 25.75L1.3 25.25L1.3 24.85Q1.3 22.65 4.75 22.65L6.05 22.7L6.6 22.85L7.25 23.8L7.35 23.5L7.35 23.15Q7.2 22.45 6.7 21.95L6.7 21.4L6.75 20.7L6.5 20.6L6.5 20.4L6.8 20.45L6.95 19.9L6.75 20L6.45 20L6.4 19.8L6.7 19.55L7.15 19.45L7.75 18.05L8.1 17.4L8.75 17.1M3.65,25.7L4.45 25.85L4.95 25.8L5.05 25.7L5.15 25.9L5.15 25.5L5.15 25.25L4.8 24.3Q4.3 23.55 3.3 23.5Q2.5 23.65 2.5 24.25L2.6 24.7L2.8 25.05L3.05 25.2L3.1 25.25L3.65 25.7M8.1,24.2L7.9 23.85Q7.65 23.75 7.6 24L7.3 24.7L7.4 24.9L7.9 24.6L8.1 24.2M8.4,24.05L8.4 24.4L8.5 24.5L8.6 24.45L8.7 24.3L8.5 24.05L8.4 24.05M14.45,19.6L14.65 19.45L14.45 19.2L14.1 19L13.9 19L13.9 19.25L14.45 19.6M13.35,21.9L15.3 23.25L15.5 23L15.4 22.75L14.85 22.15Q14.25 21.7 13.8 21.7L13.4 21.7L13.35 21.9M13.55,22.95L13.4 23L14.75 24.8L14.9 24.7L14.9 24.4Q14.3 22.95 13.55 22.95M14.15,29.15Q13.8 29.15 13.8 29.4L13.8 29.5L14.05 29.6L14.35 29.35L14.15 29.15" />
<path style="fill:#7E5254;fill-opacity:1" d="M3.2,27.15L3.55 27.35L2.35 27.05L1.25 26.65L0.95 26.3Q0.1 25 0 23.1Q0 19.6 3.7 20.45L4.75 20.75Q5.2 19.2 5.65 18.9L6.3 19.05L6.4 19.1L6.35 19.1L6.2 19.3Q6 19.55 5.7 20.55L5.55 21.05L6.7 21.95Q7.2 22.45 7.35 23.15L7.35 23.5L7.25 23.8L6.6 22.85L6.25 22.45Q5.25 21.35 3.35 21.3Q1.45 21.25 1.15 22.05Q0.85 22.8 0.9 23.85Q0.95 24.6 1.3 25.25L1.65 25.75L2.7 26.8L3.2 27.15" />
<path style="fill:#623E3F;fill-opacity:1" d="M4.65,24.85Q4.2 24.1 3.5 24.3Q2.8 24.45 3.05 24.9L3.1 25.25L3.05 25.2L2.8 25.05L2.6 24.7L2.5 24.25Q2.5 23.65 3.3 23.5Q4.3 23.55 4.8 24.3L5.15 25.25L5.15 25.5L5.15 25.9L5.05 25.7L4.65 24.85" />
<path style="fill:#6B3D3F;fill-opacity:1" d="M7.3,28.55L7.15 28.6L5.45 28.7L5.15 28.75L5.15 29.3L5.25 29.75Q5.45 30.65 7.25 31.3L10.85 31.85L11.25 31.8Q13.45 31.65 15 30.75L17.05 29.2L17.6 28.55L18.35 29.05L16.85 30.45Q14.2 32.7 11.25 32.75Q8.05 32.75 6.05 31.65Q4.2 30.6 4.2 29.2L4.15 28.75L3.95 28.5L3.55 28.25L3.1 28L1.8 27.2L1.25 26.65L2.35 27.05L3.55 27.35L4.6 27.8L6.05 27.9L9.8 26.95L10.15 26.8L10.55 26.6L10.8 26.5L12.2 25.75Q12.9 25.3 12.9 25.45L12.7 25.75L12.4 26.05L12.3 26.1L12.2 26.15L11.7 26.6L11.45 26.75L11.3 26.85L11.25 26.9L11 27.05L10.6 27.3L10.4 27.4L10.25 27.45L9.9 27.65L9.7 27.75L9.2 27.95L9.2 28L7.3 28.55" />
<path style="fill:#6A6059;fill-opacity:1" d="M12.15,29.6L12.1 29.65Q11.25 30.6 8.85 30.45Q9.4 29.3 9.35 28.55L9.2 28.05L9.2 28L9.2 27.95L9.7 27.75L9.9 27.65Q10.25 27.85 9.95 29.8Q11 29.55 11.55 29.1L12 28.4L12.05 28.1Q12.1 26.9 11.7 26.6L12.2 26.15L12.3 26.1L12.65 26.5L12.9 27.85L12.9 27.9L12.9 28L12.75 28.7L12.15 29.6" />
<path style="fill:#E8EBEC;fill-opacity:1" d="M11.25,26.9L11.3 26.85L11.45 26.75L11.7 26.6Q12.1 26.9 12.05 28.1L12 28.4Q11.8 27.5 11.25 26.9" />
<path style="fill:#CCC6C4;fill-opacity:1" d="M12,28.4L11.55 29.1L10.65 29.1L10.65 28.6L10.85 28.15L10.5 27.45L10.6 27.3L11 27.05L11.25 26.9Q11.8 27.5 12 28.4" />
<path style="fill:#97A2AC;fill-opacity:1" d="M10.5,27.45L10.85 28.15L10.65 28.6L10.65 29.1L11.55 29.1Q11 29.55 9.95 29.8Q10.25 27.85 9.9 27.65L10.25 27.45L10.4 27.4L10.6 27.3L10.5 27.45" />
<path style="fill:#663F41;fill-opacity:1" d="M12.85,19.2L12.1 19.6L12.1 20.7L12.1 20.9Q11.85 21.75 10.85 22.3L9.55 22.45L8.5 21.9L7.9 22.2L7.7 22.4L7.5 22.4L7.45 22.3Q7.35 21.95 7.9 21.05Q8.55 20.05 9.55 19.4Q10.45 18.75 12.05 18.6L12.85 18.6Q13.5 18.6 13.3 18.75L13.1 18.95L12.85 19.2M10.85,20.9L11.2 20.9L11.55 20.8L11.65 20.4L11.55 20.2L11.2 20.05L10.85 20.3L10.75 20.55L10.85 20.9" />
<path style="fill:#B68E90;fill-opacity:1" d="M7.5,22.4L7.7 22.4L7.9 22.2L8.5 21.9L9.55 22.45L10.85 22.3Q11.85 21.75 12.1 20.9L12.1 20.7L12.1 19.6L12.85 19.2L13.1 18.95L13.3 19.25Q13.3 21.1 11.8 22.3Q10.45 23.3 8.85 23.3Q7.5 23.3 7.5 22.6L7.5 22.4" />
<path style="fill:#FFFFFF;fill-opacity:1" d="M10.75,20.55L10.85 20.3L11.2 20.05L11.55 20.2L11.65 20.4L11.55 20.8L11.2 20.9L10.85 20.9L10.75 20.55" />
</g>
</svg>
