<?xml version="1.0" encoding="utf-8"?>
<svg version="1.1" id="Layer_1"
xmlns="http://www.w3.org/2000/svg"
xmlns:xlink="http://www.w3.org/1999/xlink"
xmlns:author="http://www.sothink.com"
width="13px" height="11px"
xml:space="preserve">
<g id="280" transform="matrix(1, 0, 0, 1, 0, 0)">
<path style="fill:#4F3D08;fill-opacity:1" d="M2.65,1.2L3 2.05Q3.75 3.6 4.95 4.4L5.3 3.6L5.35 3.5Q6.1 4.95 8.6 6.7L11.2 8.1L10.4 8.95Q9.35 9.8 7.85 9.8L7.6 9.75L7.5 9.75Q4.6 8.95 3.15 7.55Q1.5 5.9 1.1 4L1.05 3.7L1 2.75Q0.95 1.9 1.3 1.55L2.65 1.2" />
<path style="fill:#644F12;fill-opacity:1" d="M8.6,6.7Q6.1 4.95 5.35 3.5L5.3 3.6L4.95 4.4Q3.75 3.6 3 2.05L2.65 1.2Q4.95 0.7 6.9 1.7Q9.35 2.9 10.5 3.95Q11.8 5.15 11.8 6.8L11.4 7.75L11.2 8.1L8.6 6.7" />
<path style="fill:#251D06;fill-opacity:1" d="M12.5,5.15Q12.95 6.3 12.5 7.45L12.1 8.3L11.55 9.15L9.6 10.6Q7.7 11.15 5.45 10.15Q3.15 9.15 2.15 8.05Q1.15 6.9 0.55 5.5L0.5 5.3L0.2 4.35Q-0.05 3.45 0.05 2.5L0.05 2.3Q0.15 0.85 0.6 0.6Q1.1 0.3 1.85 0.15L2.55 0.05L2.75 0.05L4.2 0.05Q5.85 0.1 8.3 1.35L11 3.1Q12 4 12.5 5.15M1.3,1.55Q0.95 1.9 1 2.75L1.05 3.7L1.1 4Q1.5 5.9 3.15 7.55Q4.6 8.95 7.5 9.75L7.6 9.75L7.85 9.8Q9.35 9.8 10.4 8.95L11.2 8.1L11.4 7.75L11.8 6.8Q11.8 5.15 10.5 3.95Q9.35 2.9 6.9 1.7Q4.95 0.7 2.65 1.2L1.3 1.55" />
</g>
</svg>
