<?xml version="1.0" encoding="utf-8"?>
<svg version="1.1" id="Layer_1"
xmlns="http://www.w3.org/2000/svg"
xmlns:xlink="http://www.w3.org/1999/xlink"
xmlns:author="http://www.sothink.com"
width="21px" height="29px"
xml:space="preserve">
<g id="235" transform="matrix(1, 0, 0, 1, 0, 0)">
<path style="fill:#D25BFF;fill-opacity:1" d="M10.7,10.8L10.05 10.7L10.05 10.85Q9.85 11 9.95 11.55Q10.55 12.35 10.8 11.85Q11.55 11.05 10.7 10.8M18.5,23.1L18.6 22.2L18.8 20.85L18.4 18.7L17.4 16.15Q16.7 14.8 15.1 13.55Q13.35 12.3 13.2 11.75Q13.35 12.3 12.5 13.95L10.2 17.05Q11.1 14.65 9.05 12.15Q7.4 9.35 7.6 7.95L6.8 9.2L6.4 10.95L6.05 13.6Q5.8 15.8 3.85 17.7Q1.9 19.55 1.75 20.95Q1.6 21.95 1.95 22.75L2.15 23.1Q0.7 22.25 0.05 20.6Q-0.05 19.85 0.2 19.4Q1.25 16 3.15 12.85Q3.7 11.85 2.9 11.05Q1.8 9.7 3.05 8.45Q6.25 4.6 6.8 0.1L7 0.15L7.05 0L7.45 0Q9.1 0.9 10.4 2.65Q11.15 3.6 11.6 5.1Q12 6.9 11.4 8.7L11.75 8.95L12 8.95L13.25 7.75L14.95 5.8Q15.45 5.3 16.25 5.8Q15.4 9.4 18.95 12.45Q19.7 13.05 19.8 14.1Q21.1 17.45 19.65 20.95L19.6 21.1L18.5 23.1M16.05,12.95Q15.85 12.95 15.9 12.6Q15.45 12.55 15.45 12.35L15.25 12.5L15.05 12.5L14.95 13.05L15.15 13.2L15.8 13.3L15.8 13.15L16 13.15L16.05 12.95" />
<path style="fill:#A02FF5;fill-opacity:1" d="M15.65,27.3L17 26.65L18 25.5L18.5 23.1L19.6 21.1L19.75 21.7Q20.1 26.1 16.2 28.15L15.1 28.65L14.2 28.75Q9.45 29.45 6 28L5.8 27.9Q2.65 26.45 0.6 23.15Q-0.1 21.8 0.05 20.6Q0.7 22.25 2.15 23.1L2.1 23.3L2.65 24.05Q3.75 25.6 5.4 26.5Q10.6 29.25 15.65 27.3" />
<path style="fill:#FEF7FF;fill-opacity:1" d="M5.4,26.5L5.3 26.1L5 24.6Q5 23.85 5.5 22.6L5.9 21.3Q7.1 21.95 7.05 22.75L7.3 22.75L7.8 20.05L8.25 17.5L9.8 19.9Q11 22 11.3 22Q12 22 13.3 20.6Q14.65 19.2 14.65 18.25L15.55 20.05Q16.3 22.05 16.3 24.05Q16.3 25.35 15.65 27.3Q10.6 29.25 5.4 26.5" />
<path style="fill:#F5A6FF;fill-opacity:1" d="M10.8,11.85Q10.55 12.35 9.95 11.55Q9.85 11 10.05 10.85L10.05 10.7L10.7 10.8Q11.55 11.05 10.8 11.85M18,25.5L17 26.65L15.65 27.3Q16.3 25.35 16.3 24.05Q16.3 22.05 15.55 20.05L14.65 18.25Q14.65 19.2 13.3 20.6Q12 22 11.3 22Q11 22 9.8 19.9L8.25 17.5L7.8 20.05L7.3 22.75L7.05 22.75Q7.1 21.95 5.9 21.3L5.5 22.6Q5 23.85 5 24.6L5.3 26.1L5.4 26.5Q3.75 25.6 2.65 24.05L2.1 23.3L2.15 23.1L1.95 22.75Q1.6 21.95 1.75 20.95Q1.9 19.55 3.85 17.7Q5.8 15.8 6.05 13.6L6.4 10.95L6.8 9.2L7.6 7.95Q7.4 9.35 9.05 12.15Q11.1 14.65 10.2 17.05L12.5 13.95Q13.35 12.3 13.2 11.75Q13.35 12.3 15.1 13.55Q16.7 14.8 17.4 16.15L18.4 18.7L18.8 20.85L18.6 22.2L18.5 23.1L18 25.5M16,13.15L15.8 13.15L15.8 13.3L15.15 13.2L14.95 13.05L15.05 12.5L15.25 12.5L15.45 12.35Q15.45 12.55 15.9 12.6Q15.85 12.95 16.05 12.95L16 13.15" />
</g>
</svg>
