<?xml version="1.0" encoding="utf-8"?>
<svg version="1.1" id="Layer_1"
xmlns="http://www.w3.org/2000/svg"
xmlns:xlink="http://www.w3.org/1999/xlink"
xmlns:author="http://www.sothink.com"
width="70px" height="23px"
xml:space="preserve">
<g id="1900" transform="matrix(1, 0, 0, 1, 76.7, -10.75)">
<path style="fill:#574031;fill-opacity:1" d="M-39.7,13.65L-29.05 13.35L-29.05 13.4L-28.65 13.4L-27 13.3L-14.5 12.55L-9.6 12.2Q-9.4 12.1 -9.15 13.1L-9.05 13.5L-15.65 14.25L-19.1 14.6L-23.25 14.9L-28.65 15.25L-28.7 15.25L-29.1 15.3L-29.1 15.15L-36.35 15.4L-41.8 15.5L-47.7 15.3L-50.35 15.35L-50.35 14.85L-50.55 14.35L-50.7 14.1L-50.7 13.85L-39.7 13.65" />
<path style="fill:#3C2C22;fill-opacity:1" d="M-9.35,14.85L-16.9 15.4L-28.7 16.1L-29.1 16.1L-29.1 16.05L-43.6 16.6L-51.35 16.85L-52.4 16.85L-52.5 16.4L-52.7 14.9L-52.8 13.95L-51.15 13.85L-50.7 13.85L-50.7 14.1L-50.55 14.35L-50.35 14.85L-50.35 15.35L-47.7 15.3L-41.8 15.5L-36.35 15.4L-29.1 15.15L-29.1 15.3L-28.7 15.25L-28.65 15.25L-23.25 14.9L-19.1 14.6L-15.65 14.25L-9.05 13.5Q-9 14.25 -9.35 14.85" />
<path style="fill:#231813;fill-opacity:1" d="M-52.4,16.85L-51.35 16.85L-43.6 16.6L-29.1 16.05L-29.1 16.1L-28.7 16.1L-16.9 15.4L-9.35 14.85Q-9 14.25 -9.05 13.5L-9.15 13.1Q-9.4 12.1 -9.6 12.2L-14.5 12.55L-27 13.3L-28.65 13.4L-29.05 13.4L-29.05 13.35L-39.7 13.65L-50.7 13.85L-51.15 13.85L-52.8 13.95L-52.85 13.25L-52.95 13.2L-53.1 13.15L-53.2 13.15L-53.55 12.9L-51.2 12.9L-46.45 12.8L-28.6 12.05L-28.6 12.1L-14.3 11.05L-9.25 10.75Q-8 11.25 -7.7 12.6L-7.6 13.4Q-7.55 14.2 -7.75 14.8L-8.6 16.35L-29.15 17.25L-29.15 17.2L-46 17.8L-52.15 17.85L-52.4 16.85" />
<path style="fill:#3A3634;fill-opacity:1" d="M-53.55,12.9L-53.2 13.15L-53.1 13.15L-52.95 13.2L-52.85 13.25L-52.8 13.95L-52.7 14.9L-52.5 16.4L-52.4 16.85L-52.15 17.85Q-51.45 20.45 -50.05 21.9Q-47.6 24.45 -46.1 25.25L-44.05 26.3Q-43.6 26.5 -46.2 28.85L-48.1 30Q-50.3 31.25 -52.6 32L-54.85 32.65Q-58.55 33.5 -62.9 32.55L-64.75 32.05L-67.95 31.15Q-71.05 30.25 -74 28.1Q-77 25.95 -76.65 25.3L-71.8 20.55L-69.75 18.15L-71.25 17.4L-71.75 17.2L-72.65 16.3L-72.9 15.45L-72.7 14.8L-71.3 13.8Q-70.05 13.25 -68.35 13L-65.6 12.85Q-64.8 11.9 -61.4 12L-55.9 12.25Q-54.4 12.35 -53.55 12.9M-62.9,24.75L-59.8 25.1Q-54.65 25.25 -50.55 23.1L-52 20.95Q-53 19.3 -53.5 17.85L-53.8 16.9L-53.8 16.85L-54.05 15.55L-54.1 14.75L-54.1 13.75L-59.35 13L-64.25 13.2L-65.7 14.65L-67.1 16.55L-69.5 20.15Q-70.45 21.5 -70.25 21.6L-69.15 22.35Q-66.25 24.1 -62.9 24.75M-70.35,16.6L-69.1 17.05Q-68.9 17.1 -68.55 16.75L-67.6 15.55L-66.9 14.6L-66.3 13.8L-69.6 14.35Q-71.45 14.7 -71.4 15.45L-71.1 16.15L-70.35 16.6M-51.45,30.25L-51.3 30.2Q-48.4 28.9 -46.2 26.7Q-48.25 25.65 -50 23.85Q-54.35 26.4 -58.05 26.35L-63.5 25.75L-64.6 25.5Q-66.95 24.85 -69.95 23.15L-71.2 22.4L-74.2 25.1Q-72.45 27.45 -69 28.95Q-65.9 30.25 -63.65 30.85L-63.15 31L-61.65 31.3L-57.75 31.55L-56.5 31.5Q-53.95 31.3 -51.45 30.25" />
<path style="fill:#8E8680;fill-opacity:1" d="M-62.15,14.25L-62.85 14.25L-66.65 19.5L-69.15 22.35L-70.25 21.6Q-70.45 21.5 -69.5 20.15L-67.1 16.55L-65.7 14.65L-64.25 13.2L-59.35 13L-54.1 13.75L-54.1 14.75L-62.15 14.25" />
<path style="fill:#766D67;fill-opacity:1" d="M-55.3,17.35L-57 17.5L-60.85 17.1Q-60.9 20.25 -62.3 23.45L-62.9 24.75Q-66.25 24.1 -69.15 22.35L-66.65 19.5L-62.85 14.25L-62.15 14.25L-54.1 14.75L-54.05 15.55L-53.8 16.85L-53.8 16.9L-55.3 17.35M-66.9,14.6L-67.6 15.55L-68.55 16.75Q-68.9 17.1 -69.1 17.05L-70.35 16.6L-71.1 16.15L-70.6 15.7Q-69.2 14.6 -67.05 14.6L-66.9 14.6" />
<path style="fill:#5D544E;fill-opacity:1" d="M-53.8,16.9L-53.5 17.85Q-53 19.3 -52 20.95L-50.55 23.1Q-54.65 25.25 -59.8 25.1L-62.9 24.75L-62.3 23.45Q-60.9 20.25 -60.85 17.1L-57 17.5L-55.3 17.35L-53.8 16.9" />
<path style="fill:#ACA49F;fill-opacity:1" d="M-67.05,14.6Q-69.2 14.6 -70.6 15.7L-71.1 16.15L-71.4 15.45Q-71.45 14.7 -69.6 14.35L-66.3 13.8L-66.9 14.6L-67.05 14.6M-52.2,30.2L-51.3 30.2L-51.45 30.25Q-53.95 31.3 -56.5 31.5L-61.25 30.85L-60.15 29.8L-52.2 30.2M-62.25,29.4L-63.25 30.3Q-68.35 29.15 -71.55 24.55L-69.95 23.15Q-66.95 24.85 -64.6 25.5L-63.5 25.75L-65.25 28.05L-64.6 28.6L-62.25 29.4" />
<path style="fill:#E0D8D4;fill-opacity:1" d="M-71.55,24.55Q-68.35 29.15 -63.25 30.3L-62.25 29.4L-60.15 29.8L-61.25 30.85L-56.5 31.5L-57.75 31.55L-61.65 31.3L-63.15 31L-63.65 30.85Q-65.9 30.25 -69 28.95Q-72.45 27.45 -74.2 25.1L-71.2 22.4L-69.95 23.15L-71.55 24.55" />
<path style="fill:#938D89;fill-opacity:1" d="M-60.15,29.8L-62.25 29.4L-64.6 28.6L-65.25 28.05L-63.5 25.75L-58.05 26.35Q-54.35 26.4 -50 23.85Q-48.25 25.65 -46.2 26.7Q-48.4 28.9 -51.3 30.2L-52.2 30.2L-60.15 29.8" />
</g>
</svg>
