<?xml version="1.0" encoding="utf-8"?>
<svg version="1.1" id="Layer_1"
xmlns="http://www.w3.org/2000/svg"
xmlns:xlink="http://www.w3.org/1999/xlink"
xmlns:author="http://www.sothink.com"
width="391px" height="220px"
xml:space="preserve">
<g id="2972" transform="matrix(1, 0, 0, 1, 21.7, -68.15)">
<path style="fill:#000000;fill-opacity:1" d="M359.3,126.75Q372.3 114.85 368.3 128.2Q348.5 186.5 306.65 233.45Q295.4 245.8 282.3 256.4Q265.9 269.2 248.55 277Q243.7 279.1 238.65 280.9Q230.4 283.7 221.9 285.5Q199.5 289.85 175.6 286.25Q158.55 283.45 144.8 273.7Q139.95 270.1 139.8 266.6Q139.65 263.05 149.5 252.25Q171.1 229 165.4 195.4Q159.7 161.75 149.5 137.8Q145.05 127.05 139.65 117.4L135.3 103.2Q135.75 96.75 140.5 92.1Q153.55 79.05 167.85 72.7Q169.5 71.8 171.25 71.3Q181.2 67.85 189.25 68.15Q193.25 71.05 196.1 78.4Q198.95 85.75 211.05 87.75Q222.4 89.6 230.6 85.65Q240 80.65 239.25 86Q238.45 91.3 238.55 91.5Q238.55 113.7 261.3 111.3Q266.05 110.7 270.05 107.85L277.45 101.7Q281.8 97.65 282.2 103.3Q282.6 108.95 284.4 115.7Q286.15 122.45 297.25 130.2Q308.35 137.95 329.3 138.15Q347.3 137.2 359.3 126.75M78.25,114.55Q85.65 117.55 93.75 114.8Q101.85 112 105.7 106.35Q109.55 100.65 110.55 96.95Q112.8 87.25 128.45 104.9Q136.95 114.2 141.95 125.15Q146.95 136.1 141.9 156.6Q97.9 204.2 96.75 253.05Q97.1 260.35 93.15 265.4Q90.55 267.65 83.2 268.4Q47.8 272.15 22 251.3Q16.3 246.7 11.15 240.85Q2.85 231.75 -4.1 219.8Q-14.1 202.95 -17.45 181.7Q-25.6 132.3 -18.05 83.2Q-15.55 69.5 -12.55 74.15Q-9.55 78.75 -7.35 83.3L-5 88.6L-1.55 96.1Q0.5 100.4 2.9 104.05Q5.15 107.45 6.95 109.25Q30.8 133.65 53.05 103.65Q60.55 90.7 65.7 101.1Q70.8 111.5 78.25 114.55" />
</g>
</svg>
