<?xml version="1.0" encoding="utf-8"?>
<svg version="1.1" id="Layer_1"
xmlns="http://www.w3.org/2000/svg"
xmlns:xlink="http://www.w3.org/1999/xlink"
xmlns:author="http://www.sothink.com"
width="82px" height="69px"
xml:space="preserve">
<g id="950" transform="matrix(1, 0, 0, 1, 0, 0)">
<path style="fill:#828584;fill-opacity:1" d="M79.45,12.25L79.05 14.9L78.8 15.85L77.9 15.85L76.7 15.8L76.7 15.55Q76.9 15.2 76.9 14.1Q76.9 11.75 76.2 10.9Q75.6 10.05 73.85 10.25L72.2 10.25L71.3 9.5L73.35 9.4L74.85 9.45L75.8 9.75Q76.85 10.05 77.35 10.55Q78.65 11.6 78.35 13.95L78.5 13.95L78.55 13.8L79.2 12.85L79.45 12.25M67.75,59.75Q66 61.35 63 61.2L60.8 60.95L60.8 60L63.5 59.8Q65.45 59.55 65.9 58.95Q66.65 57.95 66.85 56.45L67.05 53.85L69 53.9L69.55 54.4L68.4 58.45L68.1 59.45L67.75 59.75M68,55.6L68 57.25L68.05 57.3L68.75 55.15Q68.75 54.1 67.75 54.3L67.6 54.35L67.55 54.45L67.75 54.75L68 55.6" />
<path style="fill:#1A272C;fill-opacity:1" d="M71.25,9.5L71.1 9.4L70.8 9.05L70.05 8.25L70.05 8.2L71.7 8Q73.25 7.9 75.45 7.95L79.25 8.5Q80.95 8.95 81.05 10.2L80.7 13.9L80.6 14.25L80.5 14.95L80 17.55Q79.75 18.75 78.85 19.75L77 19.9L76.95 19.9L76.05 19.9L75.6 19.85Q74.2 19.8 74.15 19.45L74.15 19.25Q74.2 18.7 74.4 18.35L74.4 18.3L74.5 18.2Q74.65 18 74.9 18L76.3 18.05L78 17.75Q78.3 17.55 78.8 15.85L79.05 14.9L79.45 12.25L79.45 11.8L79.45 11.35L79.3 10.3L78.75 9.95L77.05 9.6L74.85 9.45L73.35 9.4L71.3 9.5L71.25 9.5M55.9,62.85L56 61.75L56.15 60.75L56.4 59.9Q56.55 59.2 56.85 59L57.1 58.9L57.2 58.9L58.4 58.9L58.6 58.9L58.7 58.9L58.2 61.8Q58.1 62.35 60.65 62.45L65.2 62.35Q67 62.15 68.1 59.45L68.4 58.45L69.55 54.4L69 53.9L67.05 53.85L65.85 53.8L65.8 53.8L66 52.3L66 52.2L66.05 52.2L66.1 52.1L66.2 52.1L67.8 52.2L68.9 52.1L69.3 52.1Q70.45 52.05 70.95 52.7Q71.85 53.9 70.55 58.35Q69.15 62.7 68.2 63.55Q67.2 64.3 63.85 64.3L58.1 64.15L56.55 63.8Q55.85 63.45 55.9 62.85" />
<path style="fill:#646967;fill-opacity:1" d="M72.2,10.25L73.85 10.25Q75.6 10.05 76.2 10.9Q76.9 11.75 76.9 14.1Q76.9 15.2 76.7 15.55L76.7 15.8L77.9 15.85L78.8 15.85Q78.3 17.55 78 17.75L76.3 18.05L74.9 18Q74.65 18 74.5 18.2Q76.15 14.05 75.6 13.25L74.4 12.15L73.05 11.05L72.2 10.25M65.85,53.8L67.05 53.85L66.85 56.45Q66.65 57.95 65.9 58.95Q65.45 59.55 63.5 59.8L60.8 60L60.8 60.95L63 61.2Q66 61.35 67.75 59.75L68.1 59.45Q67 62.15 65.2 62.35L60.65 62.45Q58.1 62.35 58.2 61.8L58.7 58.9L60.75 58.95Q63.55 59.25 64.8 57.35Q65.6 56.2 65.8 54.3L65.85 53.8" />
<path style="fill:#775A31;fill-opacity:1" d="M64.35,51.2Q65.8 43.25 67.5 36.35L67.65 35.55L67.8 35.05Q70.1 25.65 71.9 20.4L73.1 16.85L73.9 13.95L72.15 12.7L71.55 12.2L69.7 10.75L68.95 10L69.65 7.7L70.05 8.2L70.05 8.25L70.8 9.05L71.1 9.4L71.25 9.5L71.3 9.5L72.2 10.25L73.05 11.05L74.4 12.15L75.6 13.25Q76.15 14.05 74.5 18.2L74.4 18.3L74.4 18.35Q74.2 18.7 74.15 19.25L73.3 21.9Q72.35 24.75 71.35 28.55Q69.7 34.5 68.05 41.8Q66.8 47.3 66.1 51.45L66.05 52.2L66 52.2L66 52.3L65.8 53.8L65.85 53.8L65.8 54.3Q65.6 56.2 64.8 57.35L63.45 56.25L64.35 51.2M70.75,16.65L70.9 16.7L71 16.75L70.45 19.1L68.55 25.75L65.15 37.25L62.9 45.2Q62.7 45.5 63.2 43.3L65.85 32.6Q67.8 24.75 70.05 18.55Q70.35 17.4 70.75 16.65M59.25,49.65L59.1 49.8Q59.9 45 61.8 37.5Q63.65 29.95 65.3 24.35Q66.95 18.8 68.75 14.55L69.15 13.5Q68.5 16.85 66.85 22.7Q65.1 28.55 63.6 34.85Q62.05 41.15 60.1 47.35L59.25 49.65" />
<path style="fill:#A8ACAB;fill-opacity:1" d="M79.2,12.85L78.55 13.8L78.5 13.95L78.35 13.95Q78.65 11.6 77.35 10.55Q76.85 10.05 75.8 9.75L74.85 9.45L77.05 9.6L78.75 9.95L79.3 10.3L79.45 11.35L79.45 11.8L79.45 12.25L79.2 12.85M67.75,54.75L67.55 54.45L67.6 54.35L67.75 54.3Q68.75 54.1 68.75 55.15L68.05 57.3L68 57.25L68 55.6L67.75 54.75" />
<path style="fill:#253439;fill-opacity:1" d="M57.95,1.85L57.6 2L57.25 2.1L57 3L56.85 3.45L56.85 3.5L56.85 4.05L56.8 4.85L62 5.25L62.1 5.35Q63.35 5.75 63.85 6.3L63.95 6.55Q64.25 7.25 64.05 8.85L63.2 13.05L64.4 13.4L65.9 13.3L66.35 12.15L67.3 8.85L67.7 7.65L68.2 4.15Q68.25 2.65 67.9 2.3L66.6 2.05L66.35 2.05L59.55 1.75L57.95 1.85M27.8,7Q26.65 8.5 25.55 10.85Q23 16.5 20.9 25.7Q18.65 34.8 17.05 43.15Q15.4 51.3 15.75 52.45L23.3 51.35L35.25 50.65L42.45 50.65L42.5 50.2L42.5 50.15Q42.55 49.3 42.9 48.55Q43.15 47.8 43.7 47.2Q44.65 46.05 46.35 46.2L48.25 46.1L50.5 46.15Q51.45 46.05 51.85 44.5L52 43.9L52.1 43.65Q52.35 42.45 52.75 41.55Q53.15 40.45 53.8 40.2L54 40.15L55.65 39.85L56.1 39.85L56.8 39.95L58.2 40.2L59.15 40.55L59.6 40.95L59.75 42.05L59.25 44.6Q58.9 46.3 57.8 49.2L57.5 49.9Q57 51.2 56.15 52.05L54.75 53.1L52.95 53.55Q49.8 53.75 46.6 53.55Q43.3 53.25 42.8 52.55L42.7 52.4L33.6 52.45Q22.7 52.6 19.65 53.75Q17.3 54.65 16.8 55.85Q16.65 56.1 16.65 56.45L16.45 57.25Q16.45 58.1 17 58.8Q15.85 58.5 15 57.95L13.55 56.95Q13.15 55.6 13.55 50.85Q13.95 46.15 16.1 36.1Q18.2 26.05 20.45 18.8Q22.6 11.5 24.35 7.8Q26.1 4.1 27.65 3.35Q29.15 2.55 30.75 2.3L35.6 1.85L43.25 1.55L51.1 1.5L55.45 1.5Q55.85 0.85 56.5 0.6L60.3 0.1L64.55 0L68.1 0.45Q69.9 0.8 70.15 1.35Q70.45 1.8 70.6 2.95Q70.7 4.2 70.2 5.8L69.65 7.7L68.95 10L68.25 11.95L68.25 12.05L68.05 12.65L67.9 13L67.5 14.2Q67.1 15 66.3 15.35L65.45 15.55L63.85 15.3L62.95 15.1L62.85 15.05Q60.15 14.3 60.95 11.65L61.45 9.75L61.55 7.8Q61.2 6.9 58.05 7.1L55.45 7.05Q54.8 6.9 54.8 6.55L54.8 4.85L54.9 3.5L42.75 3.8L31.35 4.6Q30.65 4.7 29.95 5.1L29.6 5.35Q28.65 5.95 27.8 7M55.2,50.15Q56 49 56.7 47.05L56.9 46.25L57.85 42.7Q57.9 41.8 56.85 41.45L56.5 41.35Q55.65 41.2 55.2 41.35Q54.9 41.4 54.7 41.8L54.6 42.05Q54.4 42.25 54.35 42.6L54.15 43.15L53.35 46.2Q52.75 47.65 52.1 47.8L50.05 47.75L46.45 47.75Q45.5 48.05 45.05 48.5L45.05 48.55L44.9 48.7Q44.45 49.35 44.45 50.05L44.45 50.1L44.5 50.7L44.6 51.15Q44.85 51.7 46.6 51.8L51.15 51.8Q54.05 51.65 55.05 50.25L55.2 50.15" />
<path style="fill:#274F72;fill-opacity:1" d="M67.8,52.2L68.1 50.55Q69.1 44.1 70.3 39.45L72.65 30.8L75.25 20.85L75.6 19.85L76.05 19.9L75.1 25.1L74.15 30.6L70.45 44.95L68.9 52.1L67.8 52.2M58.05,7.1Q61.2 6.9 61.55 7.8L61.45 9.75L60.3 8.55L58.45 8.35L58.45 9L58.5 9.15L58.05 9.9Q57 10.35 56.5 9.4L56.45 9.1L56.25 8.95L56.2 8.8L56.2 8.45Q56.15 8.2 56.25 8Q55.55 7.7 55.45 7.05L58.05 7.1M42.35,21.8Q43.25 22.45 43 23.55L42.9 23.85Q41.75 24.65 40.35 24.1Q38.95 23.55 38.8 22.3L38.85 22.15L39.3 21.85L40.15 21.4L40.5 21.25Q41.5 21.2 42.35 21.8M51.9,27.35L51.45 27.8Q50.5 28 50.35 27.15L50.35 26.95L50.4 26.8L50.6 26.5Q50.85 26.25 51.15 26.3L51.15 26.25L51.7 26.6L51.95 27.2L51.9 27.35M47.3,61.45L53.85 60.75L56.15 60.75L56 61.75L47.3 61.45" />
<path style="fill:#3C658A;fill-opacity:1" d="M75.1,25.1L76.05 19.9L76.95 19.9L77 19.9L76.95 20L75.15 26.5L74.15 30.6L75.1 25.1M41.75,41.8L42 41.75Q42.6 41.65 42.9 42.15Q43.2 42.7 42.75 43.15L42.5 43.3Q41.65 43.5 41.3 42.7Q41.1 42.05 41.75 41.8M31.1,36.95Q31.7 36.9 32 37.35Q32.3 37.9 31.9 38.35L31.6 38.5Q30.75 38.75 30.4 37.9Q30.2 37.25 30.85 37L31.1 36.95M27.4,31.05Q28.45 31.15 28.7 32.15Q29.05 33.1 28.65 34.05L28.4 34.45L27.2 34.65Q26.55 34.5 25.95 34.15Q25.6 33.9 25.65 33.5L25.6 32.75L25.5 31.85L25.95 31.45L27.4 31.05M31.25,42.8Q31.45 42.6 31.75 42.65L31.75 42.6L32.3 42.9L32.6 43.5L32.55 43.7L32.05 44.1Q31.1 44.35 30.95 43.45L30.95 43.3L31 43.15L31.25 42.8" />
<path style="fill:#C29C75;fill-opacity:1" d="M63.45,56.25L63.35 56.35L63.15 56.15L63 56.1L61.55 55.15L59.95 54.3L57.8 53L56.15 52.05Q57 51.2 57.5 49.9L57.8 49.2Q58.9 46.3 59.25 44.6L59.75 42.05L59.6 40.95L59.15 40.55L59.25 40.05L60.25 36.25L62.9 25.9L65.45 15.55L66.3 15.35Q67.1 15 67.5 14.2L67.9 13L68.05 12.65L68.25 12.05L68.25 11.95L68.95 10L69.7 10.75L69.4 12.05L68.75 14.55Q66.95 18.8 65.3 24.35Q63.65 29.95 61.8 37.5Q59.9 45 59.1 49.8L59.25 49.65L60.1 47.35Q60.65 48.65 62.1 49.85L64.35 51.2L63.45 56.25" />
<path style="fill:#F5DABD;fill-opacity:1" d="M73.1,16.85Q72.65 14.8 71.7 13.85L69.4 12.05L69.7 10.75L71.55 12.2L72.15 12.7L73.9 13.95L73.1 16.85" />
<path style="fill:#DBB48B;fill-opacity:1" d="M70.05,18.55Q67.8 24.75 65.85 32.6L63.2 43.3Q62.7 45.5 62.9 45.2L65.15 37.25L68.55 25.75L70.45 19.1L71 16.75L70.9 16.7L70.75 16.65Q70.35 17.4 70.05 18.55M69.4,12.05L71.7 13.85Q72.65 14.8 73.1 16.85L71.9 20.4Q70.1 25.65 67.8 35.05L67.65 35.55L67.5 36.35Q65.8 43.25 64.35 51.2L62.1 49.85Q60.65 48.65 60.1 47.35Q62.05 41.15 63.6 34.85Q65.1 28.55 66.85 22.7Q68.5 16.85 69.15 13.5L68.75 14.55L69.4 12.05" />
<path style="fill:#6595C2;fill-opacity:1" d="M61.95,21.7L61.65 22.6L61.9 21.5L62.95 15.1L63.85 15.3L61.95 21.7" />
<path style="fill:#274154;fill-opacity:1" d="M59.15,40.55L58.2 40.2L56.8 39.95L57.35 37.95Q58.7 32.5 60.15 27.8L61.65 22.6L61.95 21.7L63.85 15.3L65.45 15.55L62.9 25.9L60.25 36.25L59.25 40.05L59.15 40.55" />
<path style="fill:#1C3C58;fill-opacity:1" d="M66.05,52.2L66.1 51.45Q66.8 47.3 68.05 41.8Q69.7 34.5 71.35 28.55Q72.35 24.75 73.3 21.9L74.15 19.25L74.15 19.45Q74.2 19.8 75.6 19.85L75.25 20.85L72.65 30.8L70.3 39.45Q69.1 44.1 68.1 50.55L67.8 52.2L66.2 52.1L66.1 52.1L66.05 52.2M56.85,59Q56.55 59.2 56.4 59.9L56.15 60.75L53.85 60.75L47.3 61.45L39.6 61.25L30.2 60.9L27.25 60.75L25.4 60.5L23.55 60.35L24.1 59.25L27.2 59.2L31.25 59.1L31.55 59.1Q43.4 58.55 57.1 58.9L56.85 59M17,58.8L17.4 58.95L17 58.55L17.05 58.55L17.8 58.9L17.4 59.2L17 58.8" />
<path style="fill:#061C2C;fill-opacity:1" d="M69.3,52.1L68.9 52.1L70.45 44.95L74.15 30.6L75.15 26.5L76.95 20L77 19.9L78.85 19.75L78.05 23.4Q75.25 33.45 73.35 42L71.6 49.9L70.95 52.7Q70.45 52.05 69.3 52.1M56,61.75L55.9 62.85Q55.85 63.45 56.55 63.8L33.1 63.2L22.45 62.25L23.55 60.35L25.4 60.5L27.25 60.75L30.2 60.9L39.6 61.25L47.3 61.45L56 61.75M17.4,59.2L15.55 60.25Q14.25 59.2 13.8 57.95L13.55 56.95L15 57.95Q15.85 58.5 17 58.8L17.4 59.2" />
<path style="fill:#625037;fill-opacity:1" d="M19.1,57.45L18.85 57.7L18 58.7L17.9 58.75L17.8 58.9L17.05 58.55L17 58.55L17.4 58.95L17 58.8Q16.45 58.1 16.45 57.25L16.65 56.45L16.65 56.5Q16.85 57.15 19.1 57.45M56.9,54.2L54.75 53.1L56.15 52.05L57.8 53L59.95 54.3L61.55 55.15L63 56.1L63.15 56.15L63.35 56.35L63.45 56.25L64.8 57.35Q63.55 59.25 60.75 58.95L58.7 58.9L58.6 58.9L58.4 58.9L57.2 58.9L57.1 58.9Q43.4 58.55 31.55 59.1L31.25 59.1L27.2 59.2L24.1 59.25L24.2 58.9L24.5 57.7L26.05 57.6L29.15 57.5Q37 57.3 47.5 57.35L62.15 57.3Q62.3 57.1 61.45 56.6L57.65 54.5L56.9 54.2M32.9,56.15L37.4 55.5L46.35 54.9L54 55.1Q56.5 55.25 56.55 55.6L56.5 55.65L39.65 55.85L32.9 56.15M23.95,53.75L33 53.55L42.75 53.4L42.8 53.4Q42.55 54.05 41.65 53.9L28.3 54.45L24.05 54.75L24 54.65L24 54.75L21.95 54.75L21.95 54.65L21.85 54.75L21.75 54.8L21.65 54.8L21.55 54.75L20.95 54.65L20.75 54.65Q22.05 53.8 23.95 53.75" />
<path style="fill:#917F67;fill-opacity:1" d="M57.65,54.5L61.45 56.6Q62.3 57.1 62.15 57.3L47.5 57.35Q37 57.3 29.15 57.5Q28.6 56.9 28.6 56.2Q28.6 54.85 31.5 54.45L38.75 54.25L51.15 54.05L56.9 54.2L57.65 54.5M39.65,55.85L56.5 55.65L56.55 55.6Q56.5 55.25 54 55.1L46.35 54.9L37.4 55.5L32.9 56.15L39.65 55.85" />
<path style="fill:#806F58;fill-opacity:1" d="M16.65,56.5L16.65 56.45Q16.65 56.1 16.8 55.85Q17.3 54.65 19.65 53.75Q22.7 52.6 33.6 52.45L42.7 52.4L42.8 52.55Q43.3 53.25 46.6 53.55Q49.8 53.75 52.95 53.55L54.75 53.1L56.9 54.2L51.15 54.05L38.75 54.25L31.5 54.45Q28.6 54.85 28.6 56.2Q28.6 56.9 29.15 57.5L26.05 57.6L24.5 57.7L24.35 56.05L24.05 54.75L28.3 54.45L41.65 53.9Q42.55 54.05 42.8 53.4L42.75 53.4L33 53.55L23.95 53.75Q22.05 53.8 20.75 54.65Q20.35 54.65 20.35 55.1L19.1 57.45Q16.85 57.15 16.65 56.5" />
<path style="fill:#B15106;fill-opacity:1" d="M5.25,65.35Q6.95 66.1 8.7 66.5Q11.55 67.1 13.9 66.4Q17.65 65.2 19.75 63.25L20.9 62.05L22.1 60.2L22.5 59.25L22.75 58.65L24 54.75L24 54.65L24.05 54.75L24.35 56.05L24.5 57.7L24.2 58.9L24.1 59.25L23.55 60.35L22.45 62.25Q21.2 64 19.5 65.35Q12.35 71.2 3.6 66.8Q2.15 66.05 0.45 64.25L0 63.65Q2.85 61.4 3.3 59.65L4.2 54.85Q4.4 56.3 6.2 58.1Q7.9 59.8 10.1 60.45Q12.3 61.1 14.85 60.45L15.55 60.25L17.4 59.2L17.8 58.9L17.9 58.75L18 58.7L18.85 57.7L19.1 57.45L20.35 55.1Q20.35 54.65 20.75 54.65L20.95 54.65L21.55 54.75L21.65 54.8L21.75 54.8L21.85 54.75L21.95 54.65L21.95 54.75L21.95 54.8L20.95 57.6L19.9 59.15L19.35 59.8L18.25 60.75L17.5 61.25L17.25 61.45L15.25 62.25L11.05 62.7Q6.5 62.45 5.2 59.95L4.5 61.65Q3.95 62.85 2.6 63.8L2.85 63.95Q4 64.75 5.25 65.35" />
<path style="fill:#E58919;fill-opacity:1" d="M22.75,58.65L22.5 59.25L22.1 60.2L20.9 62.05L19.75 63.25Q17.65 65.2 13.9 66.4Q11.55 67.1 8.7 66.5Q6.95 66.1 5.25 65.35L9.35 65.7Q14.25 65.7 16.35 62.85L17.25 61.45L17.5 61.25L18.25 60.75L19.35 59.8L19.9 59.15L20.95 57.6L21.95 54.8L21.95 54.75L24 54.75L22.75 58.65" />
<path style="fill:#FFEA4F;fill-opacity:1" d="M10.25,63L6.15 62.6L5.15 62.15L3.45 63.5L2.85 63.95L2.6 63.8Q3.95 62.85 4.5 61.65L5.2 59.95Q6.5 62.45 11.05 62.7L15.25 62.25Q13.4 63 10.25 63" />
<path style="fill:#FFBC35;fill-opacity:1" d="M2.85,63.95L3.45 63.5L5.15 62.15L6.15 62.6L10.25 63Q13.4 63 15.25 62.25L17.25 61.45L16.35 62.85Q14.25 65.7 9.35 65.7L5.25 65.35Q4 64.75 2.85 63.95" />
<path style="fill:#3674AB;fill-opacity:1" d="M56.8,39.95L56.1 39.85L55.65 39.85L54 40.15L53.8 40.2L49.2 39.35L49.2 39.2Q49.45 37 46.8 37.15L46.8 37.2Q46.05 37.4 45.65 38.1Q43 36.95 40 35.05L39.45 35.55Q38.3 36.55 37.8 35.15Q37.55 34.3 37.8 33.85L34.55 31.2L34.05 30.8L34.05 30.55Q34.05 29.3 33.4 28.2Q32.75 27.15 31.45 27.35L30.05 24.35L30.45 24.1L30.55 23.75L30.65 23.25L30.55 22.95L30.5 22.8L30.4 22.6L30.2 22.45L29.8 22.35L29.55 22.45L29.5 22.5L29.3 21.95L28.85 20Q29.65 20.05 30.45 19.5L30.55 19Q30.8 17.9 29.8 17.35Q29.1 16.95 28.3 17.05Q27.75 13.3 27.75 9.3L27.75 9.1Q25.3 13.5 22.35 26Q19.45 38.25 17.65 50.25Q23.75 49.1 27.95 49L40.5 48.6L42.9 48.55Q42.55 49.3 42.5 50.15L42.5 50.2L42.45 50.65L35.25 50.65L23.3 51.35L15.75 52.45Q15.4 51.3 17.05 43.15Q18.65 34.8 20.9 25.7Q23 16.5 25.55 10.85Q26.65 8.5 27.8 7Q28.65 5.95 29.6 5.35L40.05 6L40.1 6.05Q40.65 6.5 41.35 6.35L41.9 6.1Q51.5 7.1 54.4 9.9Q55.1 10.6 56 10.7L57.5 10.8Q59.2 11.15 60.25 15L61.9 21.5L61.65 22.6L60.15 27.8Q58.7 32.5 57.35 37.95L56.8 39.95M45.2,12.15Q46.1 13.15 46.85 12.15L46.9 11.85L46.55 10.95Q46.2 10.65 45.7 10.6L45.1 10.95Q44.6 11.6 45.2 12.15M40.5,21.25L40.15 21.4L39.3 21.85L38.85 22.15L38.8 22.3Q38.95 23.55 40.35 24.1Q41.75 24.65 42.9 23.85L43 23.55Q43.25 22.45 42.35 21.8Q41.5 21.2 40.5 21.25M57.6,16.9L57.5 17.05L57.5 17.4L57.5 17.7L57.5 17.9L57.6 18.05L57.7 18.2Q58.65 19.25 59.95 18.75L60.35 18.55L60.45 18.05Q60.5 17.25 59.8 16.75Q59.15 16.25 58.35 16.45L58.35 16.5L57.95 16.65L57.75 16.75L57.6 16.9M51.95,27.2L51.7 26.6L51.15 26.25L51.15 26.3Q50.85 26.25 50.6 26.5L50.4 26.8L50.35 26.95L50.35 27.15Q50.5 28 51.45 27.8L51.9 27.35L51.95 27.2M32.95,8.95L32.9 9.1L32.95 9.4Q33.45 10.35 34.55 9.9L35 9.15L34.7 8.75L34.15 8.45L33.75 8.4L33.35 8.55L33 8.8L32.95 8.95" />
<path style="fill:#224A6D;fill-opacity:1" d="M40.5,48.6L27.95 49Q23.75 49.1 17.65 50.25Q19.45 38.25 22.35 26Q25.3 13.5 27.75 9.1L27.75 9.3Q27.75 13.3 28.3 17.05Q29.1 16.95 29.8 17.35Q30.8 17.9 30.55 19L30.45 19.5Q29.65 20.05 28.85 20L29.3 21.95L29.5 22.5L29.55 22.45L29.8 22.35L30.2 22.45L30.4 22.6L30.5 22.8L30.55 22.95L30.65 23.25L30.55 23.75L30.45 24.1L30.05 24.35L31.45 27.35Q32.75 27.15 33.4 28.2Q34.05 29.3 34.05 30.55L34.05 30.8L34.55 31.2L37.8 33.85Q37.55 34.3 37.8 35.15Q38.3 36.55 39.45 35.55L40 35.05Q43 36.95 45.65 38.1Q46.05 37.4 46.8 37.2L46.8 37.15Q49.45 37 49.2 39.2L49.2 39.35L53.8 40.2Q53.15 40.45 52.75 41.55Q52.35 42.45 52.1 43.65L52 43.9L51.85 44.5Q51.45 46.05 50.5 46.15L48.25 46.1L46.35 46.2Q44.65 46.05 43.7 47.2Q43.15 47.8 42.9 48.55L40.5 48.6M41.3,42.7Q41.65 43.5 42.5 43.3L42.75 43.15Q43.2 42.7 42.9 42.15Q42.6 41.65 42 41.75L41.75 41.8Q41.1 42.05 41.3 42.7M30.85,37Q30.2 37.25 30.4 37.9Q30.75 38.75 31.6 38.5L31.9 38.35Q32.3 37.9 32 37.35Q31.7 36.9 31.1 36.95L30.85 37M25.95,31.45L25.5 31.85L25.6 32.75L25.65 33.5Q25.6 33.9 25.95 34.15Q26.55 34.5 27.2 34.65L28.4 34.45L28.65 34.05Q29.05 33.1 28.7 32.15Q28.45 31.15 27.4 31.05L25.95 31.45M31,43.15L30.95 43.3L30.95 43.45Q31.1 44.35 32.05 44.1L32.55 43.7L32.6 43.5L32.3 42.9L31.75 42.6L31.75 42.65Q31.45 42.6 31.25 42.8L31 43.15" />
<path style="fill:#FFFFFF;fill-opacity:1" d="M66.7,3.95L66.6 3.8L64.8 5.35L63.55 4.15L64.35 3.55L64.55 3.4L65.3 2.8L63.15 2.65Q61.05 2.7 59.55 2.05L59.55 1.75L66.35 2.05L66.6 2.05L67.9 2.3Q68.25 2.65 68.2 4.15L67.7 7.65Q67.25 5.1 66.7 3.95M56.7,47.05L56.9 44.95Q56.9 44 56.2 43.3L56 43.15Q55.5 42.75 54.9 42.65L54.9 43.25Q54.9 45.05 53.7 47.4Q52.6 49.6 51.75 50.1Q51.65 49.45 51.05 49.2L49.9 48.95L49.15 48.95L45.75 48.55L45.7 48.5L45.05 48.5Q45.5 48.05 46.45 47.75L50.05 47.75L52.1 47.8Q52.75 47.65 53.35 46.2L54.15 43.15L54.35 42.6Q54.4 42.25 54.6 42.05L54.7 41.8Q54.9 41.4 55.2 41.35Q55.65 41.2 56.5 41.35L56.85 41.45Q57.9 41.8 57.85 42.7L56.9 46.25L56.7 47.05" />
<path style="fill:#D5D5D5;fill-opacity:1" d="M60.3,3.5L56.85 3.5L56.85 3.45L57 3L57.25 2.1L57.6 2L57.95 1.85L59.55 1.75L59.55 2.05Q61.05 2.7 63.15 2.65L65.3 2.8L64.55 3.4L64.35 3.55L63.55 4.15Q62.5 3.45 60.3 3.5M64.8,5.35L66.6 3.8L66.7 3.95Q67.25 5.1 67.7 7.65L67.3 8.85L66.35 12.15Q65.65 11.85 65.6 10.8L65.7 9L65.65 7.7Q65.55 6.25 64.8 5.35M45.7,48.5L45.75 48.55L49.15 48.95L49.9 48.95L51.05 49.2Q51.65 49.45 51.75 50.1Q52.6 49.6 53.7 47.4Q54.9 45.05 54.9 43.25L54.9 42.65Q55.5 42.75 56 43.15L56.2 43.3Q56.9 44 56.9 44.95L56.7 47.05Q56 49 55.2 50.15L53.2 50.45L52.2 50.55L45.55 50.1L44.45 50.1L44.45 50.05Q44.45 49.35 44.9 48.7L45.05 48.55L45.05 48.5L45.7 48.5" />
<path style="fill:#A4A5A5;fill-opacity:1" d="M63.55,4.15L64.8 5.35Q65.55 6.25 65.65 7.7L65.7 9L65.6 10.8Q65.65 11.85 66.35 12.15L65.9 13.3L64.4 13.4L63.2 13.05L64.05 8.85Q64.25 7.25 63.95 6.55L63.85 6.3Q63.35 5.75 62.1 5.35L62 5.25L56.8 4.85L56.85 4.05L56.85 3.5L60.3 3.5Q62.5 3.45 63.55 4.15M55.05,50.25Q54.05 51.65 51.15 51.8L46.6 51.8Q44.85 51.7 44.6 51.15L44.5 50.7L44.45 50.1L45.55 50.1L52.2 50.55L53.2 50.45L55.2 50.15L55.05 50.25" />
<path style="fill:#87B1D9;fill-opacity:1" d="M61.9,21.5L60.25 15Q59.2 11.15 57.5 10.8L56 10.7Q55.1 10.6 54.4 9.9Q51.5 7.1 41.9 6.1L41.35 6.35Q40.65 6.5 40.1 6.05L40.05 6L29.6 5.35L29.95 5.1Q30.65 4.7 31.35 4.6L42.75 3.8L54.9 3.5L54.8 4.85L54.8 6.55Q54.8 6.9 55.45 7.05Q55.55 7.7 56.25 8Q56.15 8.2 56.2 8.45L56.2 8.8L56.25 8.95L56.45 9.1L56.5 9.4Q57 10.35 58.05 9.9L58.5 9.15L58.45 9L58.45 8.35L60.3 8.55L61.45 9.75L60.95 11.65Q60.15 14.3 62.85 15.05L62.95 15.1L61.9 21.5M45.1,10.95L45.7 10.6Q46.2 10.65 46.55 10.95L46.9 11.85L46.85 12.15Q46.1 13.15 45.2 12.15Q44.6 11.6 45.1 10.95M57.75,16.75L57.95 16.65L58.35 16.5L58.35 16.45Q59.15 16.25 59.8 16.75Q60.5 17.25 60.45 18.05L60.35 18.55L59.95 18.75Q58.65 19.25 57.7 18.2L57.6 18.05L57.5 17.9L57.5 17.7L57.5 17.4L57.5 17.05L57.6 16.9L57.75 16.75M33,8.8L33.35 8.55L33.75 8.4L34.15 8.45L34.7 8.75L35 9.15L34.55 9.9Q33.45 10.35 32.95 9.4L32.9 9.1L32.95 8.95L33 8.8" />
</g>
</svg>
