<?xml version="1.0" encoding="utf-8"?>
<svg version="1.1" id="Layer_1"
xmlns="http://www.w3.org/2000/svg"
xmlns:xlink="http://www.w3.org/1999/xlink"
xmlns:author="http://www.sothink.com"
width="12px" height="9px"
xml:space="preserve">
<g id="158" transform="matrix(1, 0, 0, 1, 0, 0)">
<path style="fill:#FFFFFF;fill-opacity:1" d="M11.15,2.6L11.15 2.75L11.15 2.9Q11.05 3.65 10.55 4.25Q10.1 4.8 9.4 5.15L7.9 5.25L7.95 5.6L7.95 6.1L7.95 6.85L7.95 8.25L7.95 8.3L7.35 8.35L6.6 8.35L5.95 8.35L5.9 5.8L5.9 2.95L5.9 0.2L7.15 0L8.55 0.05L9.8 0.45L10.75 1.3L11.15 2.6M8.4,1.8L7.65 1.8L7.6 1.85L7.6 2.75L7.7 3.6L7.75 3.6L8.3 3.6L8.85 3.55L9.3 3.25L9.45 2.85L9.4 2.45L9.1 2.1L8.4 1.8M5.2,0.15L4.75 1.55L4.25 2.95L3.9 4.35L4.25 5.7L4.65 7.05L5 8.4L4.85 8.35L4.7 8.35L4.35 8.4L3.95 8.4L3.7 8.4L3.45 8.35L3.15 7.45L2.95 6.55L2.6 5.65L2.3 6.6L2.05 7.5L1.7 8.35L1.45 8.4L1.2 8.4L0.65 8.4L0.1 8.3L0.5 7L1 5.65L1.35 4.3L0.75 2.25L0 0.25L0.7 0.2L1.2 0.2L1.65 0.2L1.8 0.25L2.05 1.1L2.3 2.05L2.6 2.9L2.9 2.05L3.15 1.05L3.4 0.2L4.1 0.1L5.2 0.1L5.2 0.15" />
</g>
</svg>
