<?xml version="1.0" encoding="utf-8"?>
<svg version="1.1" id="Layer_1"
xmlns="http://www.w3.org/2000/svg"
xmlns:xlink="http://www.w3.org/1999/xlink"
xmlns:author="http://www.sothink.com"
width="183px" height="139px"
xml:space="preserve">
<g id="3055" transform="matrix(1, 0, 0, 1, 59.75, 54.5)">
<path style="fill:#564B41;fill-opacity:1" d="M12.5,-52.5Q14.35 -54.5 20.25 -54.5L26.1 -53.95Q27.65 -53.45 28.8 -52.6Q28.35 -50.35 27 -48.8Q25.45 -47 23.05 -46.55L21.4 -46.4Q19 -46.4 16.55 -47.55L15 -48.4Q12.85 -49.7 11.9 -51.4L12.5 -52.5M69.4,-3.7L67.8 -3.6L65.75 -3.7Q60.55 -4.2 56.2 -7.2Q49.8 -11.65 49.8 -19.4L49.85 -20.3Q52.65 -22.85 57.25 -23L57.75 -23Q61.8 -23 64.75 -22L67 -20.75L68.9 -19.3L69.4 -18.85Q75 -13.85 75 -6.75L75 -6Q72.55 -4.05 69.4 -3.7M-7.9,-19.3L-6.65 -20.4L-6.5 -20.5Q-2.5 -23.5 3 -23.5L3.5 -23.45L9.05 -23.75L12.35 -22.75Q13.8 -21.1 13.8 -18.6Q13.8 -13.15 9.8 -9.2Q5.3 -4.8 -2.2 -4.8Q-5.9 -4.8 -8.6 -6.8Q-10.75 -8.45 -11.45 -10.85Q-11.15 -16.1 -7.9 -19.3M49.85,-51.55Q50.6 -50.05 50.6 -48.6Q50.6 -44.9 48.6 -43.2Q46.75 -41.6 43 -41.6Q39.95 -41.6 37 -42.8Q32.6 -44.65 32.6 -48.4Q32.6 -49.9 34.2 -51.2Q36.65 -53.2 41.8 -53.2Q46 -53.2 48.55 -52.15L49.85 -51.55M20,0L21.2 -1.7Q23.3 -4.1 25.65 -5.15L26.6 -5.5Q30.85 -5.6 34.35 -4.35L35.05 -4.1Q37.25 -3.25 39.1 -1.9L41.8 0.65Q41.1 3.65 39.4 6.4Q35.65 12.4 28.6 12.4Q23.6 12.4 19.95 9.2Q18.45 7.9 17.3 6.25Q17.6 4.6 18.2 3.1L19.45 0.65L20 0M49.9,0Q56.45 6.25 63.2 7.65Q66 11.25 66 15.25Q66 17.75 65.65 19.95L65.4 21.15Q62.15 23.6 58.8 23.6Q53.05 23.6 48.2 19.2Q43 14.45 43 8Q43 5.2 43.85 3.2Q46.65 0.85 49.5 0.55Q48.4 -0.7 47.65 -2.2L49.9 0M94.6,-11.6Q95.4 -13 96.35 -13.85Q97.5 -14.95 98.95 -15.15Q100.8 -14.8 102.9 -13.75L103.55 -13.45L105.95 -11.9Q109.95 -8.95 111 -4.7Q108.2 0.4 103.6 0.4Q98.8 0.4 95.55 -2.2Q93.4 -3.9 92.8 -6Q93.25 -9.2 94.6 -11.6M86.35,64.65L86.6 67.4Q86.6 70.2 85.45 72.4Q83.75 75.6 80.2 75.6Q77 75.6 75.4 74.4Q73.85 73.3 73.5 70.9L75 68.8Q78.7 64.4 84.4 64.4L86.35 64.65M-33.1,-5.3Q-37.4 0.4 -43 0.4Q-49.1 0.4 -53.8 -4L-55.3 -5.55Q-54.75 -10.7 -51.4 -14.4Q-47.75 -18.4 -43.4 -18.4Q-41.15 -18.4 -39.25 -17.25L-38.5 -17.05Q-36.45 -16.5 -34.85 -15.4Q-31.6 -13.15 -30.8 -8.9L-33.1 -5.3M-6.2,80Q-9.9 80 -12.6 78L-14.1 76.6L-14.2 75.2Q-14.2 72.85 -13.8 72Q-13 70.4 -10.2 70.4Q-8.85 70.4 -7.35 71.2L-6.8 71.55Q-5.95 71.8 -5.25 72.2Q-1.85 74.05 -1.8 79.05Q-3.5 80 -6.2 80M-25.4,65.2Q-29 65.2 -32.6 63.2Q-36 61.3 -37 58.45Q-36.6 56.55 -35.8 55.2Q-34.1 52.4 -30.8 52.4L-26.8 53.4L-26.3 53.8Q-23.6 55.95 -22.05 59.7L-20.85 63.6Q-22.7 65.2 -25.4 65.2" />
<path style="fill:#362F29;fill-opacity:1" d="M44.25,-35Q41.3 -35 38.7 -35.8Q36.75 -36.45 35 -37.5Q32.6 -38.95 31.35 -40.85Q30.85 -39.75 30 -39Q28.25 -37.5 25 -37.5Q20.45 -37.5 16.5 -40Q12.35 -42.65 11.65 -46.95Q11.5 -47.8 11.5 -48.75Q11.5 -50.35 11.9 -51.4Q12.85 -49.7 15 -48.4L16.55 -47.55Q19 -46.4 21.4 -46.4L23.05 -46.55Q25.45 -47 27 -48.8Q28.35 -50.35 28.8 -52.6Q30.1 -51.6 30.95 -50.15L31.95 -51.5L32.5 -52Q35.25 -54 42.5 -54L48 -53.75Q50.6 -53.5 51.8 -52.9L53.45 -51.85L53.95 -50.75Q54.5 -49.3 54.5 -48.25Q54.5 -43.8 53 -40.5Q51.85 -38.05 50.05 -36.7Q47.7 -35 44.25 -35M47.65,-2.2Q46 -5.55 46 -10Q46 -16.1 49 -19.5L49.85 -20.3L49.8 -19.4Q49.8 -11.65 56.2 -7.2Q60.55 -4.2 65.75 -3.7L67.8 -3.6L69.4 -3.7Q72.55 -4.05 75 -6Q74.9 -0.65 73.5 2L73.4 2.25Q70.9 6.5 64.5 6.5L62.2 6.4L63.2 7.65Q56.45 6.25 49.9 0L47.65 -2.2M48.55,-52.15Q46 -53.2 41.8 -53.2Q36.65 -53.2 34.2 -51.2Q32.6 -49.9 32.6 -48.4Q32.6 -44.65 37 -42.8Q39.95 -41.6 43 -41.6Q46.75 -41.6 48.6 -43.2Q50.6 -44.9 50.6 -48.6Q50.6 -50.05 49.85 -51.55L48.55 -52.15M19.45,0.65L17.15 2.5L16.2 3.05Q13.2 4.5 9 4.5Q1.9 4.5 -3.5 2Q-11.5 -1.7 -11.5 -9.75L-11.45 -10.85Q-10.75 -8.45 -8.6 -6.8Q-5.9 -4.8 -2.2 -4.8Q5.3 -4.8 9.8 -9.2Q13.8 -13.15 13.8 -18.6Q13.8 -21.1 12.35 -22.75Q14.85 -21.85 16.7 -20.75Q23 -16.95 23 -9.25Q23 -4.9 21.2 -1.7L20 0L19.45 0.65M19.95,9.2Q23.6 12.4 28.6 12.4Q35.65 12.4 39.4 6.4Q41.1 3.65 41.8 0.65Q42.85 1.95 43.55 3.5L43.85 3.2Q43 5.2 43 8Q43 14.45 48.2 19.2Q53.05 23.6 58.8 23.6Q62.15 23.6 65.4 21.15Q64.65 24.5 63 27Q59.4 32.5 52.25 32.5Q45.45 32.5 41.55 29.5Q37.25 26.25 37.05 19.75Q34.8 20.5 32 20.5Q26.4 20.5 22.5 18.5Q17 15.65 17 9.5Q17 7.8 17.3 6.25Q18.45 7.9 19.95 9.2M111.4,-1.4Q111.4 2.85 109.8 5.6Q107.7 9.2 103.2 9.2Q98.7 9.2 96.2 7.2Q92.6 4.3 92.6 -2.8L92.8 -6Q93.4 -3.9 95.55 -2.2Q98.8 0.4 103.6 0.4Q108.2 0.4 111 -4.7Q111.4 -3.15 111.4 -1.4M75.4,74.4Q77 75.6 80.2 75.6Q83.75 75.6 85.45 72.4Q86.6 70.2 86.6 67.4L86.35 64.65L86.9 64.75L88 65.85Q89 67.35 89 70.6Q89 75.9 86.6 79.6Q83.8 84 78.6 84Q75.45 84 74.2 83.2Q71.8 81.7 71.8 77Q71.8 73.8 73.5 70.9Q73.85 73.3 75.4 74.4M-55.3,-5.55L-53.8 -4Q-49.1 0.4 -43 0.4Q-37.4 0.4 -33.1 -5.3L-30.8 -8.9L-30.6 -6.2Q-30.6 0.5 -33.4 4Q-36.3 7.6 -42 7.6Q-47.7 7.6 -51.4 4.8Q-55.4 1.75 -55.4 -3.6L-55.3 -5.55M-1.8,79.05L-1.8 79.2Q-1.8 81.55 -3 82.8Q-4.15 84 -6.2 84Q-8.9 84 -11.4 81.6Q-13.65 79.45 -14.1 76.6L-12.6 78Q-9.9 80 -6.2 80Q-3.5 80 -1.8 79.05M-37,58.45Q-36 61.3 -32.6 63.2Q-29 65.2 -25.4 65.2Q-22.7 65.2 -20.85 63.6L-20.6 66.4Q-20.6 69.6 -22.2 71.6Q-23.8 73.6 -26.2 73.6Q-29.95 73.6 -33 71.6Q-37.4 68.75 -37.4 62.8Q-37.4 60.35 -37 58.45" />
<path style="fill:#1E1915;fill-opacity:1" d="M64.75,-22Q61.8 -23 57.75 -23L57.25 -23Q52.65 -22.85 49.85 -20.3L49 -19.5Q46 -16.1 46 -10Q46 -5.55 47.65 -2.2Q48.4 -0.7 49.5 0.55Q46.65 0.85 43.85 3.2L43.55 3.5Q42.85 1.95 41.8 0.65L39.1 -1.9Q37.25 -3.25 35.05 -4.1L34.35 -4.35Q30.85 -5.6 26.6 -5.5L25.65 -5.15Q23.3 -4.1 21.2 -1.7Q23 -4.9 23 -9.25Q23 -16.95 16.7 -20.75Q14.85 -21.85 12.35 -22.75L9.05 -23.75L3.5 -23.45L3 -23.5Q-2.5 -23.5 -6.5 -20.5L-6.65 -20.4Q-7.4 -23.25 -7.4 -27.8Q-7.4 -34.55 -0.2 -40.8Q5.15 -45.5 11.65 -46.95Q12.35 -42.65 16.5 -40Q20.45 -37.5 25 -37.5Q28.25 -37.5 30 -39Q31.2 -36.3 31.6 -33L32.6 -33.6Q35.3 -35.05 38.7 -35.8Q41.3 -35 44.25 -35Q47.7 -35 50.05 -36.7Q59 -35.8 64.2 -26.8Q66 -23.7 67 -20.75L64.75 -22M-11.45,-10.85L-11.5 -9.75Q-11.5 -1.7 -3.5 2Q1.9 4.5 9 4.5Q13.2 4.5 16.2 3.05L17.15 2.5L19.45 0.65L18.2 3.1Q17.6 4.6 17.3 6.25Q17 7.8 17 9.5Q17 15.65 22.5 18.5Q26.4 20.5 32 20.5Q34.8 20.5 37.05 19.75Q37.25 26.25 41.55 29.5Q45.45 32.5 52.25 32.5Q59.4 32.5 63 27Q64.65 24.5 65.4 21.15L65.65 19.95Q66 17.75 66 15.25Q66 11.25 63.2 7.65L62.2 6.4L64.5 6.5Q70.9 6.5 73.4 2.25L74.9 5.35Q78.2 12.75 78.2 17.6Q78.2 25.85 75 30Q72.35 33.45 67.7 33.95Q66.3 48.4 50.6 48.4L45.85 47.85Q46 56.65 36.35 61.4Q28.45 65.2 17.6 65.2Q8.5 65.2 1.65 56.3Q-3.85 49.2 -4.5 39.6L-6 39.6Q-21 39.6 -21 26.2Q-21 20.7 -16.7 16.05L-16.1 15.45Q-17.55 14.2 -19.15 11.8Q-23.4 5.55 -23.4 -3.8Q-23.4 -11.3 -15.8 -16Q-12.25 -18.2 -7.9 -19.3Q-11.15 -16.1 -11.45 -10.85M67.8,52.4L68.85 52.65L69.6 53.05L70.25 54Q70.6 54.65 70.6 55.6Q70.6 59.2 68.4 59.2Q67 59.2 66.2 58.4Q65.4 57.6 65.4 56.2Q65.4 54.85 66.2 53.65Q67 52.4 67.8 52.4" />
<path style="fill:#FAED2D;fill-opacity:1" d="M22.7,-19.8Q22.1 -20.7 21.2 -20.7L19.95 -20.25Q19.2 -19.75 19.05 -18.9L19 -19Q18.85 -19.3 18.85 -19.65Q18.85 -20.35 19.7 -21.05Q20.55 -21.75 21.45 -21.75L22.25 -21.7L22.4 -21.55Q23.1 -21.1 23.1 -20.2L23 -19.55L22.95 -19.3L22.7 -19.8M94.1,-40.7L92.45 -40.9Q91.35 -41.4 91.2 -42L91.05 -42.75L91.45 -43L93.65 -42.75Q94.7 -42.2 94.7 -41.2L94.7 -41.1L94.1 -40.7M117.2,-2L116.25 -4.3L113.1 -9.25Q109.95 -13.15 106.2 -14.75Q106.75 -15.15 107.8 -15.45L108.05 -15.55Q110.6 -16.25 113.85 -14.35Q116.05 -12.95 117.3 -11.45L119.4 -9.05Q120.2 -8.1 121.3 -5.65L122.4 -2.85L122.5 -2.65L122.85 -1.15Q122 -0.25 120.75 -0.25Q119.15 -0.25 117.55 -0.8L117.2 -2M122.85,9.25L122.8 10.2L122.65 11.2Q122.25 12.5 121.1 12.5Q120.55 12.5 120.15 12.15Q119.35 11.65 119.35 10Q119.35 8.05 119.8 7.3L120.35 6.55L120.55 6.3Q120.7 6.1 121 6.1Q121.25 5.9 121.55 6.1L122.35 7.1Q122.85 8.15 122.85 9.25M119.8,8.9Q119.8 10.1 120.55 10.1Q120.9 10.1 121.1 9.25L121.2 8.05L121.05 7.2L121.05 7.1L120.4 7.4Q119.8 8.05 119.8 8.9M116.4,23.25L116.6 23.15L117.05 23.05L117.6 23.05L118.4 23.5L118.9 24.5L118.85 24.95L118.7 25.4Q118.3 26 117.15 26L116.2 25.85Q115.4 25.6 115.4 24.85Q115.4 23.95 115.85 23.6L116.4 23.25M117.1,23.55L117.1 23.5L116.45 23.65Q115.85 23.95 115.85 24.35Q115.85 24.9 116.6 24.9Q116.95 24.9 117.15 24.5L117.25 23.95L117.1 23.55M50.4,16.4Q50.55 15.8 50.95 15.4Q51.4 15 52.05 15L53 15.35L53.25 15.55L53.7 16.3L54.1 17.55L54.1 18.4L54.1 18.5L53.35 18.3Q52.45 18.15 51.85 17.15Q51.2 16.3 50.65 16.3L50.4 16.4M-0.5,17.9Q-1.1 18.3 -1.55 18.3Q-2.55 18.3 -3.35 16.95L-3.95 16Q-4.35 15.6 -4.8 15.6Q-5.35 15.6 -5.9 15.9L-5.95 15.95L-5.9 15.7L-5.4 14.55L-5.1 14.25Q-4.35 13.5 -2.85 13.5Q-1.85 13.5 -1.3 13.85L-1.2 13.95L-1.2 13.9L-1.05 14L-0.6 14.55L-0.4 14.8Q0.05 15.4 0.25 16.7L0.35 17.5L-0.5 17.9M-20,-33.55Q-21 -33.3 -21.35 -33.8Q-21.65 -34.3 -21.35 -34.9L-20.55 -35.35L-19.45 -35.25L-19 -34.6L-18.9 -34.15Q-19.05 -33.85 -20 -33.55M-53.5,21.3Q-54.4 26.8 -53.65 32.4Q-53.3 34.9 -52.6 37.2L-53.55 37.5Q-55.75 37.5 -57.25 34.8Q-58.15 30.75 -58.05 26.95Q-58 20.4 -55.6 16.65Q-54.55 14.95 -53.55 14.25L-52.45 13.75Q-51.65 13.95 -53.5 21.3M-51.75,42.05Q-51.3 42.15 -50.95 42.5Q-50.45 43 -50.45 43.5L-50.5 43.95L-50.65 44.4Q-51.05 45 -52.2 45L-53.15 44.85Q-53.95 44.6 -53.95 43.85Q-53.95 42.95 -53.5 42.6L-52.95 42.25L-52.75 42.15L-52.3 42.05L-51.75 42.05M-52.25,42.5L-52.9 42.65Q-53.5 42.95 -53.5 43.35Q-53.5 43.9 -52.75 43.9L-52.2 43.5L-52.1 42.95Q-52.1 42.75 -52.25 42.55L-52.25 42.5M-25.55,61.65Q-26.15 61.95 -26.15 62.35Q-26.15 62.9 -25.4 62.9L-24.85 62.5L-24.75 61.95L-24.9 61.55L-24.9 61.5L-25.55 61.65M-23.6,61.5Q-23.1 62 -23.1 62.5L-23.15 62.95L-23.3 63.4Q-23.7 64 -24.85 64L-25.8 63.85Q-26.6 63.6 -26.6 62.85Q-26.6 61.95 -26.15 61.6L-25.6 61.25L-25.4 61.15L-24.95 61.05L-24.4 61.05L-23.6 61.5M-38.25,55.3Q-37.8 55.4 -37.45 55.75Q-36.95 56.25 -36.95 56.75L-37 57.2L-37.15 57.65Q-37.55 58.25 -38.7 58.25L-39.65 58.1Q-40.45 57.85 -40.45 57.1Q-40.45 56.2 -40 55.85L-39.45 55.5L-39.25 55.4L-38.8 55.3L-38.25 55.3M-38.6,56.2L-38.75 55.8L-38.75 55.75L-39.4 55.9Q-40 56.2 -40 56.6Q-40 57.15 -39.25 57.15Q-38.9 57.15 -38.7 56.75L-38.6 56.2" />
<path style="fill:#EEBE23;fill-opacity:1" d="M19.05,-18.9Q19.2 -19.75 19.95 -20.25L21.2 -20.7Q22.1 -20.7 22.7 -19.8L22.95 -19.3L22.55 -18.65Q22.15 -18.05 21.25 -18Q20.4 -18 19.75 -18.35Q19.25 -18.6 19.05 -18.9M91.05,-42.75L91.2 -42Q91.35 -41.4 92.45 -40.9L94.1 -40.7L94.7 -41.1Q94.7 -40.65 94.2 -39.95Q93.6 -39.35 92.95 -39.25Q92.25 -39.1 91.25 -39.65Q90.3 -40.15 90.6 -41.9Q90.75 -42.45 91.05 -42.75M106.2,-14.75Q109.95 -13.15 113.1 -9.25L116.25 -4.3L117.2 -2L117.55 -0.8Q115.3 -1.6 112.95 -3.5Q110.25 -9.1 106.5 -12.15L105.5 -12.9L105.5 -13.1Q105.2 -13.85 105.75 -14.4L106.2 -14.75M120.4,7.4L121.05 7.1L121.05 7.2L121.2 8.05L121.1 9.25Q120.9 10.1 120.55 10.1Q119.8 10.1 119.8 8.9Q119.8 8.05 120.4 7.4M117.25,23.95L117.15 24.5Q116.95 24.9 116.6 24.9Q115.85 24.9 115.85 24.35Q115.85 23.95 116.45 23.65L117.1 23.5L117.1 23.55L117.25 23.95M50.65,16.3Q51.2 16.3 51.85 17.15Q52.45 18.15 53.35 18.3L54.1 18.5L53.7 19.3L52.7 20.15L52.35 20.15Q51.65 20.15 51.05 19.65Q50.25 18.85 50.25 17.35Q50.25 16.8 50.4 16.4L50.65 16.3M0.35,17.5L0.35 18.45L0.05 19.1L-0.5 19.6L-0.6 19.65L-2.2 20.05L-3.9 19.6L-4.5 19.25Q-5.6 18.45 -5.9 17.35L-6 16.65L-5.95 15.95L-5.9 15.9Q-5.35 15.6 -4.8 15.6Q-4.35 15.6 -3.95 16L-3.35 16.95Q-2.55 18.3 -1.55 18.3Q-1.1 18.3 -0.5 17.9L0.35 17.5M-18.9,-34.15Q-18.75 -33.55 -19.05 -33.15L-19.1 -33.05L-19.9 -32.35L-21.05 -32.2Q-21.6 -32.35 -21.9 -33.1L-21.9 -33.15Q-22.15 -34 -21.55 -34.65L-21.35 -34.9Q-21.65 -34.3 -21.35 -33.8Q-21 -33.3 -20 -33.55Q-19.05 -33.85 -18.9 -34.15M-58.05,33Q-59.35 29.5 -59.75 23.65L-59.7 23.45Q-59.25 20.5 -57.95 18.1Q-56.35 14.9 -54.15 13.75L-52.75 13.5Q-52.35 13.5 -52.45 13.75L-53.55 14.25Q-54.55 14.95 -55.6 16.65Q-58 20.4 -58.05 26.95Q-58.15 30.75 -57.25 34.8L-58.05 33M-52.25,42.55Q-52.1 42.75 -52.1 42.95L-52.2 43.5L-52.75 43.9Q-53.5 43.9 -53.5 43.35Q-53.5 42.95 -52.9 42.65L-52.25 42.5L-52.25 42.55M-24.9,61.5L-24.9 61.55L-24.75 61.95L-24.85 62.5L-25.4 62.9Q-26.15 62.9 -26.15 62.35Q-26.15 61.95 -25.55 61.65L-24.9 61.5M-38.7,56.75Q-38.9 57.15 -39.25 57.15Q-40 57.15 -40 56.6Q-40 56.2 -39.4 55.9L-38.75 55.75L-38.75 55.8L-38.6 56.2L-38.7 56.75" />
</g>
</svg>
