<?xml version="1.0" encoding="utf-8"?>
<svg version="1.1" id="Layer_1"
xmlns="http://www.w3.org/2000/svg"
xmlns:xlink="http://www.w3.org/1999/xlink"
xmlns:author="http://www.sothink.com"
width="32px" height="37px"
xml:space="preserve">
<g id="213" transform="matrix(1, 0, 0, 1, 0, 0)">
<path style="fill:#C6A831;fill-opacity:1" d="M15.7,30.2L16.05 30.35L15.75 30.4L15.7 30.2M6.8,22.55L6.75 22.25L7.05 22.65L6.8 22.55" />
<path style="fill:#58524E;fill-opacity:1" d="M16.75,27.5L15.9 26.15L15.75 26L18.6 24.95Q21.1 23.95 23.5 22.05Q26.85 19.4 28.35 16.1L28.7 15.35L29.2 13.8L29.8 11.35L30 8.6L29.5 5.15L28.45 2.9L28 4.65L28 4.75Q26.85 8.6 24.45 12.05L23.5 13.25L22.15 14.9Q18.1 19.45 12.9 22.75L12.7 22.9L11.55 21.8L11.1 21.45Q15.6 18.8 18.95 15.5L20.8 13.55L21.7 12.5Q24.9 8.45 27.05 2.85L28 0L28.1 0Q29.7 1.7 30.85 4.55Q32.05 7.75 31.8 11.15L31.45 13.55L30.5 16.4Q29.9 17.85 27.9 20.25L26.65 21.7Q21.9 26.55 16.95 27.8L16.75 27.5" />
<path style="fill:#E2E2E2;fill-opacity:1" d="M12.7,22.9L12.9 22.75Q18.1 19.45 22.15 14.9L24.65 14.45L25.35 14.4Q22.3 20.15 16.3 23.25L14.05 24.3L12.7 22.9M24.45,12.05Q26.85 8.6 28 4.75L28 4.85Q27.55 8.6 26.45 11.8L25.6 11.9L24.45 12.05M27.7,14.05L28.8 13.85L28.35 16.1Q26.85 19.4 23.5 22.05Q21.1 23.95 18.6 24.95Q25 20.5 27.7 14.05" />
<path style="fill:#FFFFFF;fill-opacity:1" d="M24.65,14.45L22.15 14.9L23.5 13.25L24.45 12.05L25.6 11.9L26.45 11.8L25.35 14.4L24.65 14.45M27.7,14.05L28.5 11.55L29.05 9.2Q28.8 6.8 28 4.85L28 4.75L28 4.65L28.45 2.9L29.5 5.15L30 8.6L29.8 11.35L29.2 13.8L28.7 15.35L28.35 16.1L28.8 13.85L27.7 14.05" />
<path style="fill:#C9C2BE;fill-opacity:1" d="M15.7,25.95L14.9 25.15L14.05 24.3L16.3 23.25Q22.3 20.15 25.35 14.4L27.7 14.05Q25 20.5 18.6 24.95L15.75 26L15.7 25.95M28,4.85Q28.8 6.8 29.05 9.2L28.5 11.55L26.45 11.8Q27.55 8.6 28 4.85" />
<path style="fill:#F0EEEE;fill-opacity:1" d="M27.7,14.05L25.35 14.4L26.45 11.8L28.5 11.55L27.7 14.05" />
<path style="fill:#744517;fill-opacity:1" d="M6.45,26L6.15 25.1L6.15 24.95L6 24.8L5.95 24.65Q5 23.15 4.9 22.3Q4.5 20.6 5.4 20.1Q6.8 18.95 8.25 19.55Q9.55 20.1 10.2 20.7L11.1 21.45L11.55 21.8L12.7 22.9L14.05 24.3L14.9 25.15L15.7 25.95L15.75 26L15.9 26.15L16.75 27.5L16.95 27.8L18.1 30L18.15 30.95Q18.1 31.55 17.5 32.15Q16.05 33.15 12.85 31.65L11.8 31.1L10.2 29.8L8.8 28.4L7.4 26.9L7.2 26.7Q7.15 26.7 7.05 26.8L6.45 26M6.8,22.55L7.15 23.45L8.7 25.85L9.75 27.15L11.65 29Q14.1 30.95 15.75 30.4L16.05 30.35Q16.05 30.15 16.2 30.2L15.75 28.95L15.3 28.4L15.15 28.1L14.7 27.5L14.1 26.7L13.95 26.55L13.35 25.85L12.5 24.9L11.55 23.95L10.85 23.35Q10.25 22.75 9.55 22.3L7.35 21.2L6.9 21.65Q6.75 21.8 6.75 22.25L6.8 22.55" />
<path style="fill:#C26F1E;fill-opacity:1" d="M15.75,30.4Q14.1 30.95 11.65 29L9.75 27.15L8.7 25.85L7.15 23.45L6.8 22.55L7.05 22.65L8.35 24.3L9.65 25.7L11.2 27.15L11.25 27.2L11.85 27.65Q12.25 27.8 12.7 28.2L14.55 29.55L15.7 30.2L15.75 30.4" />
<path style="fill:#FFF16A;fill-opacity:1" d="M15.7,30.2L14.3 28.2L13 26.95L12.9 26.9L12.75 26.7L11.1 25.35L8.25 23.15Q7.75 22.75 7.05 22.65L6.75 22.25Q6.75 21.8 6.9 21.65L7.35 21.2L9.55 22.3Q10.25 22.75 10.85 23.35L11.55 23.95L12.5 24.9L13.35 25.85L13.95 26.55L14.1 26.7L14.7 27.5L15.15 28.1L15.3 28.4L15.75 28.95L16.2 30.2Q16.05 30.15 16.05 30.35L15.7 30.2" />
<path style="fill:#D9AB31;fill-opacity:1" d="M14.55,29.55L12.7 28.2Q12.25 27.8 11.85 27.65L11.25 27.2L11.2 27.15L9.65 25.7L8.35 24.3L7.05 22.65Q7.75 22.75 8.25 23.15L11.1 25.35L12.75 26.7L12.9 26.9L13 26.95L14.3 28.2L15.7 30.2L14.55 29.55" />
<path style="fill:#3C2515;fill-opacity:1" d="M7.05,26.8L4.75 28.5Q3.45 29.6 2.25 31.65Q0.95 33.35 2.85 34.2L2.95 34.25Q4.65 35.1 7.15 33L8.95 31.65L10.35 30L10.2 29.8L11.8 31.1L10.25 32.65L8.35 34.25L6.75 35.3L4.3 36L3.55 36.1Q2.55 36.1 1.9 35.7L0.95 35L0.85 34.9Q0.1 34.1 0 33.25L0 32.9Q0.1 32.25 0.35 31.65Q0.95 29.45 4.8 26.1L5 25.95L6.15 25.1L6.45 26L7.05 26.8" />
<path style="fill:#513422;fill-opacity:1" d="M7.35,29.6Q5.1 31.05 2.85 34.2Q0.95 33.35 2.25 31.65Q3.45 29.6 4.75 28.5L7.05 26.8Q7.15 26.7 7.2 26.7L7.4 26.9L8.8 28.4L10.2 29.8L10.35 30L8.95 31.65Q7.65 30.5 7.35 29.6" />
<path style="fill:#805A43;fill-opacity:1" d="M2.85,34.2Q5.1 31.05 7.35 29.6Q7.65 30.5 8.95 31.65L7.15 33Q4.65 35.1 2.95 34.25L2.85 34.2" />
</g>
</svg>
