<?xml version="1.0" encoding="utf-8"?>
<svg version="1.1" id="Layer_1"
xmlns="http://www.w3.org/2000/svg"
xmlns:xlink="http://www.w3.org/1999/xlink"
xmlns:author="http://www.sothink.com"
width="29px" height="18px"
xml:space="preserve">
<g id="1197" transform="matrix(1, 0, 0, 1, -82.1, -67.05)">
<path style="fill:#4A4131;fill-opacity:1" d="M104.1,76.6L101.75 75.8L101.6 75.95L101.15 76.9L99.95 78.4Q101.1 78.65 103.25 80.55L103.8 80.25L105.45 79.65L105.75 80.4L105.7 80.6L104.45 81.05Q102.6 81.9 103.05 83Q103.45 84 105.7 84L106.15 84.35L106.9 84.85L105.45 84.95L103.5 84.55Q102.65 84.25 102.3 83.7Q102.05 83.2 102.05 82.5Q102.1 81.75 102.5 81.3L102.1 80.85L101.1 80.05L99.55 79.2L99.1 78.95L98.1 79.2L96.6 79.1Q95.75 78.85 95.25 78.4L94.4 77.15Q94.05 76.45 93.85 74.65L93.75 73.45L92.5 74.05L92.95 76.9Q93.05 78.7 92.7 79.9L91.6 81L91.3 80.95Q91.25 81.45 90.65 81.8L88.2 81.9L85.6 81.45L84.5 81.05L83.75 80.75Q82.55 80.35 82.25 79.7Q81.85 78.8 82.45 78.4L84 77.45Q84.85 76.95 85.65 76.75L86.4 76.55L86.45 76.1L87.05 75.1L87.45 73.6L87.15 73.2L86.95 72.65L87.15 71Q87.7 69.75 89.4 69.15Q91.1 68.5 91.95 67.85Q92.9 67.05 93.1 67.05Q95.25 67.45 96.3 68.7L96.8 69.6L97 69.95L97.05 69.95L97.25 69.9Q99.45 69.25 100.85 70.8Q101.9 71.95 102.05 73.55L101.95 75Q103.25 75.25 104.75 75.95L104.1 76.6M88.4,74L88.4 74.35L88.25 74.9L87.45 76.2Q87.3 76.45 87.45 76.65Q88.5 76.9 89.4 77.55L89.85 77.8Q90.85 78.55 91.6 79.95Q92.5 78.65 92.2 77.05L91.55 74.25L91 74.35L90.3 74.35L88.45 74L88.4 74M92.1,73.3L93.65 72.5L93.75 72.4Q94.55 71.8 95.1 71.65Q95.3 71.5 95.55 71.5L95.95 71.5L96.4 71.55Q96.6 70.95 96.4 70.45L96.15 69.95L96 69.7L95.9 69.6L94.35 68.45L93.25 68.05Q91.85 69.25 90.1 69.75Q87.9 70.3 87.9 72.25L87.9 72.8L89.15 73.25L90.15 73.35L92.1 73.3M95.15,73.75Q94.7 75.4 94.85 76.15Q95.05 76.85 95.6 77.45Q96.15 78.1 97.1 78.3L98.9 78L100.4 76.55Q101.05 75.55 101.1 74.35L101.1 74Q101.25 72.25 99.9 71.3Q98.65 70.35 97.1 70.65L97.1 70.95L97.15 71.55L97.05 72.1L96.5 72.55L96.35 72.45L95.85 72.4L95.65 72.45L95.15 73.75M90.45,79.55L90.45 79.5L89.35 78.45L89.25 78.4Q88.6 77.95 87.45 77.7L85.1 77.8Q84.1 78.1 83.45 78.55Q82.95 79.05 83.45 79.6L84 80L85.5 80.6L85.6 80.6L88.1 80.95L90 80.85L90.8 80.55L90.75 80L90.45 79.55" />
<path style="fill:#7B705E;fill-opacity:1" d="M88.45,74L90.3 74.35L91 74.35L91.55 74.25L92.2 77.05Q92.5 78.65 91.6 79.95Q90.85 78.55 89.85 77.8L89.4 77.55Q88.5 76.9 87.45 76.65Q87.3 76.45 87.45 76.2L88.25 74.9L88.4 74.35L88.4 74L88.45 74M95.75,69.75L94.5 70.1Q92 71.15 91.15 71.85Q90.3 72.5 90.15 73.35L89.15 73.25L87.9 72.8L87.9 72.25Q87.9 70.3 90.1 69.75Q91.85 69.25 93.25 68.05L94.35 68.45L95.9 69.6L96 69.7L95.75 69.75M90.75,80L90.8 80.55L90 80.85L88.1 80.95L85.6 80.6L85.5 80.6L84 80L83.45 79.6Q82.95 79.05 83.45 78.55Q84.1 78.1 85.1 77.8L87.45 77.7Q88.6 77.95 89.25 78.4L89.35 78.45L90.45 79.5L90.45 79.55L90.75 80" />
<path style="fill:#B3A38A;fill-opacity:1" d="M105.7,84Q103.45 84 103.05 83Q102.6 81.9 104.45 81.05L105.7 80.6L105.25 81.1Q104.8 81.85 104.8 82.4Q104.8 83.2 105.7 84M105.45,79.65L103.8 80.25L103.25 80.55Q101.1 78.65 99.95 78.4L101.15 76.9L101.6 75.95L101.75 75.8L104.1 76.6Q103.15 77.45 102.3 77.65Q103.45 77.85 104.65 78.8L105.45 79.65M96,69.7L96.15 69.95L96.4 70.45Q96.6 70.95 96.4 71.55L95.95 71.5L95.55 71.5Q95.3 71.5 95.1 71.65Q94.55 71.8 93.75 72.4L93.65 72.5L92.1 73.3L90.15 73.35Q90.3 72.5 91.15 71.85Q92 71.15 94.5 70.1L95.75 69.75L96 69.7M95.65,72.45L95.85 72.4L96.35 72.45L96.5 72.55L97.05 72.1L97.15 71.55L97.1 70.95L97.1 70.65Q98.65 70.35 99.9 71.3Q101.25 72.25 101.1 74L101.1 74.35Q101.05 75.55 100.4 76.55L98.9 78L97.1 78.3Q96.15 78.1 95.6 77.45Q95.05 76.85 94.85 76.15Q94.7 75.4 95.15 73.75L95.65 72.45" />
<path style="fill:#E9E7DA;fill-opacity:1" d="M108.8,83.6L108.95 82.2Q108.95 81.25 108.2 80.35Q109.2 80.5 109.55 80.95Q110.2 82.1 109.6 82.95L108.8 83.6M107.65,78.35L109.1 79.6L107.95 79.4Q107.75 78.65 106.3 77.7L105.05 77Q106.7 77.7 107.65 78.35" />
<path style="fill:#625643;fill-opacity:1" d="M105.05,77L104.95 76.95L104.9 76.95L104.4 76.75L104.1 76.6L104.75 75.95L106.5 76.85Q108.95 78.15 110 79.45Q110.95 80.75 110.8 82.4Q110.7 84.2 108.75 84.55L108.05 84.7L106.9 84.85L106.15 84.35L105.7 84L106.3 84L108.8 83.6L109.6 82.95Q110.2 82.1 109.55 80.95Q109.2 80.5 108.2 80.35L107.8 80.3L105.7 80.6L105.75 80.4L105.45 79.65L105.5 79.6L106.1 79.5L107 79.4L107.35 79.4L107.95 79.4L109.1 79.6L107.65 78.35Q106.7 77.7 105.05 77" />
<path style="fill:#CCC6B8;fill-opacity:1" d="M108.95,82.2L108.8 83.6L106.3 84L105.7 84Q104.8 83.2 104.8 82.4Q104.8 81.85 105.25 81.1L105.7 80.6L107.8 80.3L108.2 80.35Q108.95 81.25 108.95 82.2M104.65,78.8Q103.45 77.85 102.3 77.65Q103.15 77.45 104.1 76.6L104.4 76.75L104.9 76.95L104.95 76.95L105.05 77L106.3 77.7Q107.75 78.65 107.95 79.4L107.35 79.4L107 79.4L106.1 79.5L105.5 79.6L105.45 79.65L104.65 78.8" />
</g>
</svg>
