<?xml version="1.0" encoding="utf-8"?>
<svg version="1.1" id="Layer_1"
xmlns="http://www.w3.org/2000/svg"
xmlns:xlink="http://www.w3.org/1999/xlink"
xmlns:author="http://www.sothink.com"
width="48px" height="50px"
xml:space="preserve">
<g id="548" transform="matrix(1, 0, 0, 1, -3.4, 0)">
<path style="fill:#2B3B41;fill-opacity:1" d="M31.65,5.35L31.3 6L31.15 6.4L31.1 7.1L31 7.05L30.4 6.9L30.5 6.55L30.6 6.05L30.8 5.5L31.1 5.05L31.5 4.45L31.75 4.15L32.05 3.85L32.1 3.8L32.65 3.4L34.25 3.3L34.35 3.35L34.75 3.65L35.65 4.6L35.8 4.85L35.9 4.75L36.45 3.95L36.75 3.6L36.85 3.5L37.15 3.1Q37.85 2.3 38.2 2.4L40.8 4L41.95 6L42.5 5.95L42.95 6.1L45.1 7.9L48.1 5.45Q49.35 4.15 49.85 4.3Q50.3 4.45 50.8 5.15Q51.25 5.8 51.2 6.85L50.7 9.05L49.1 11.75Q48 13.3 46.55 14.35L46.6 16.45L46.5 16.9L46.1 16.9L45.7 16.9L45.8 16.75L45.85 15.15L45.85 14.5L45.55 14.55L44.45 14.25L43.85 13.65L43.7 13.7L43.15 13.7Q42.55 13.6 42.15 13.2L41.8 12.85L41.75 12.75Q41.05 11.8 41.15 11.25L41.15 11.2L41.35 10.6L41.4 10.55L41.85 10.2L41.95 10.15L42.2 10L42.4 9.9L43.65 9.05L44.05 8.8L44.45 8.35L42.7 6.7L40.9 7.05L41.05 7.3L41.1 7.4L41.25 8.6L41.2 8.85L41.05 9.3L40.8 9.7L40.8 9.75L40 10.65Q39.45 11.2 38.5 10.9L37.6 10.6L36.65 10.15L36.3 9.8L35.9 9.3L35.65 8.75L35.2 9L34.75 9.3L34.45 9.55L33.9 9.95L33.9 10.05L33.75 10.6L33.55 10.1L33.3 9.65L33 9.3Q32.7 9 32.35 8.95Q31.55 8.8 31.1 8.45L31.2 8.3L31.4 7.8L31.7 8.1L31.9 8.15L32.2 8.15L32.7 8L32.75 7.95L33.2 7.75L33.9 7.3L34.75 5.9L34.75 6.05L34.9 4.6L34.55 4.25L34.2 3.9Q33.25 3.45 32.55 4.2L32.25 4.5L32.05 4.75L31.75 5.2L31.65 5.35M45.55,23.05L46 22.05Q46.15 21.15 44.2 20.6L43.7 19.05Q42.7 20.2 42.35 20.3L41.15 20.1L40.6 19.9L40.15 19.7L39.65 19.2L37.3 20.25Q36.95 20.3 37 20.15L37 18.7L37 18.6L37 18.25L37 18Q36.85 17.55 36.5 17.55L35.4 17.65L35.3 17.6Q35.1 17.4 35.05 16.3L35.05 14.15L33.95 14.45Q33.55 14.45 33.4 14.1L33.3 13.8L33.05 13.1L32.8 12.3L32.9 11.45L33.15 11.5Q33.35 11.55 33.4 11.7L33.95 13.7L34.5 13.55L35.55 13.5L35.85 16.9Q36.45 16.75 37.4 16.9L37.65 17.25L37.75 18.05L37.75 19.05L38.6 18.65L39.05 18.5L39.55 18.35Q39.85 18.3 40.3 18.7L40.7 19.15L42.1 19.75L43.4 18.5L45.45 18.2L46.05 17.9L46.2 18L46.8 18.3Q47.7 18.75 47.35 19.45L47.05 20.1L46.5 21.05Q47 21.45 46.45 22.35L46 23.25L45.55 23.05M33.8,44.2L33.5 44.75L33.3 45.1L33 45.6L32.65 46.2L32.3 46.2L31.8 46.2L32.25 45.6L32.45 45.3L32.8 44.75L33.1 44.15L33.2 44L33.8 42.65L33.9 42.15L33.75 41.75L33.15 40.8L32.8 40.35L32.55 40.85L32.1 41.65L31.6 42.5L31.4 42.75L29.95 44.7L29.85 44.8L29.35 45.4L28.75 45.6L27.65 45.2L28.95 44.9L29 44.75L29.3 44.45L31 42.25L31.25 41.9L31.7 41.25L32 40.75L32.45 40.1L33.1 38.5L33.25 36.15L32.6 34.95L31.85 33.85L31.6 33.55L31.35 33.25L30.6 32.45L29.75 32.2L29.3 32L28.3 31.45L26.8 30.4L26 29.8L25.45 29.35L25.3 29.25L23.45 27.75L22.4 26.75L22.3 26.65L21.3 25.7L20.85 25.3L19.85 24.45Q17.45 24 14.5 24.35L12.4 25.5L11.75 26.1L10.75 27.25L10.6 27.5L11 27.7L12.8 28.55L16.8 29.85L17.05 29.9L17.6 30.05L18.75 30.35L19.45 30.55L19.15 30.7L17.3 30.6L16.75 30.5L15.9 30.25Q13.1 29.5 10.35 28.05L10.25 28L9.65 27.7L7.3 26.45L7.05 26.15L6.45 25.5L6.65 25.5L6.95 25.6L7.3 25.8L10.1 27.25L10.15 27.25L10.3 27.05L11.35 25.7L11.5 25.55L12.5 24.6Q13.5 23.95 13.85 23.85L16.25 23.65L19.1 23.6L20.35 23.9L21.25 24.75L22.05 25.55L22.1 25.65L23.15 26.6L23.35 26.8L24.2 27.45L25.7 28.6L26.15 28.95L26.75 29.35L29 31Q30.05 31.75 30.7 31.85L32.3 31.2L33.4 31L34.2 31.35L34.7 31.75L36.5 33.55L37.5 34.7Q37.7 35.75 37.4 37L37.3 37.35L37.25 37.4L36.75 38.4L35.9 38.75L35.85 38.75L35.3 38.95L35 39.05L34.6 39.15L34.05 39.25L33.65 39.35L33.55 39.35L33.3 39.8L33.85 40.55L34.55 41.7L34.6 41.85L34.75 42.2L34.75 42.25L34.7 42.35L34.65 42.45L34.4 43L33.8 44.2M9.95,11.25L10.2 10.9L11.15 9.9L11.35 9.75L11.2 9.65L10.65 9.2L10.55 9.15L10.05 8.6L9.95 8.3L9.7 7.15Q9.5 6 9.7 5L9.75 4.7Q10.05 3.05 11.3 2.55L14.2 3L14.3 3.05L14.35 3Q15 1.4 16.35 0.9Q17.15 0.55 17.85 0.35L18.7 0.15L20.4 0Q21.05 0 22.95 1Q24.65 1.95 25.8 3.4L25.95 3.6L26.05 4.1L26.05 4.15L26.15 4.7L26.2 5.25L26.2 5.55L26.1 6.3L26.6 7.1L26.8 7.4L27.8 9.55L27.25 9.9L26.7 8.5L25.85 6.95L25.65 6.6L25.4 6.45L25.2 6.35L24.6 6.05L24.05 5.75L23.8 5.65L23.05 5.4L22.55 5.25L20.9 4.85L18.95 5.2L18 5.5L18.75 6.55L19.1 7.4L19.2 7.4L19.8 7.6Q20.85 8 21.65 8.65Q22.65 9.45 23.1 10.6L22.9 10.65L22.6 10.75L22.45 10.45L22.25 10.15L21.3 9.15L20.65 8.7Q19.75 8.15 19.1 8.1L17.25 8.1L16.95 8.15L15.95 8.3L15.8 8.3Q14.6 8.6 13.8 8.95L13.25 9.15L12.55 9.55L12.25 9.75L11.9 10L11.95 10L11.6 10.35L11.55 10.35L11.15 10.8L10.5 11.6L9.95 11.25M42.25,10.85L41.95 11L41.85 11.05L42.05 12.05L42.25 12.5L42.45 12.7L42.8 12.95L42.95 13.05L43.2 13.1L43.55 13.1L43.95 13Q44.5 12.85 45.7 12.1Q46.95 11.3 47.85 10.1L48.85 8.65L49.05 8.15L49.75 6.4L49.9 5.65Q49.95 4.8 49.35 5.25L47 7.4L46.75 7.6L46.15 8.1L43.85 9.75L42.25 10.8L42.25 10.85M40,4.25Q39.35 3.6 38.3 3.2Q38.15 3.25 37.9 3.45L37.7 3.55L37.5 3.75L37.3 3.9L36.9 4.35L36.4 5.2L36.6 5.55L36.75 5.5Q38.05 5 38.8 5.05L39.45 5.2L39.8 5.5L39.95 5.65L40.4 6.2L40.45 6.2L41.15 6.05L40.95 5.55L40.85 5.4L40 4.25M40.6,8.05L40.6 7.95L39.95 6.55L39.6 6.15Q39.1 5.7 38.5 5.8L38.15 5.9L37.6 5.95L37.75 6.1L38.1 6.35L38.6 7L38.7 7.2L38.95 7.7L38.95 7.8L39.1 8.55L39.05 10.25L39.25 10.3L40.2 9.35L40.3 9.2L40.5 8.9L40.6 8.6L40.6 8.5L40.6 8.4L40.6 8.05M44.55,13.5L45.4 13.95Q47.05 13.5 48.6 11.3L50.05 8.75L50.2 8.4Q51 6.25 50.45 6.15L50.35 6.6L50.3 6.7Q49.6 8.8 48.05 10.6L46.1 12.55L44.55 13.5M45.6,18.7L45.45 18.9L44.7 20Q45.45 20.25 46 20.65L46.25 20.25L46.9 19.15Q46.35 18.6 45.75 18.55L45.6 18.7M44.55,18.95L45.05 18.4L44.4 18.6L44.55 18.95M34,7.85L33.95 7.9L33.3 8.25L32.9 8.45L33.2 8.7L33.7 9.4L34.4 8.7L34.8 8.3L35.35 7.85L35.3 7.6L35.3 7.55L35.3 7.15L35.3 7.05Q35.45 6.5 35.95 6.05Q35.85 5.45 35.55 5.25L34.8 6.9L34.55 7.3L34 7.85M36.05,8.35L36.55 9.2L36.85 9.55L38.4 10.1L38.5 8.75L38.4 8.15L38.2 7.5L37.8 6.95L37.25 6.6L36.7 6.4Q36.5 6.45 36.4 6.6L36.2 6.85L35.85 7.35L35.85 7.4L35.9 7.85L36.05 8.35M21.2,4.2L21.25 4.35L21.3 4.35L22.9 4.8L24.55 5.45L25 5.7L25.15 5.75L25.25 5.85L25.65 6.05L25.65 5.65L25.65 5.5L25.4 3.75L25.35 3.65L24.95 3.65L22.45 3.55L21.15 3.6L21.2 4L21.2 4.15L21.2 4.2M18.8,0.7L17.85 0.85L20.15 2.45L20.3 2.6L20.9 3.05L23 3.1L23.6 3.1L24.85 3.1L24.65 2.9L22.2 1.2L20.6 0.6L20.2 0.6L18.8 0.7M20.6,3.55L20.05 3.05L19.15 2.3L19.05 2.25L17.9 1.45L17.2 1.1Q15.4 1.65 15.05 3.2L15.05 3.3L15.45 3.55L16 3.9L16.1 3.95L16.2 4L17.1 4.7L17.7 5.2Q18.65 4.7 19.7 4.45L20.55 4.35L20.6 3.6L20.6 3.55M12.7,6.8L12.2 7.15L10.75 8L10.45 8.1L11.25 9L11.35 9.05L11.75 9.25L11.9 9.35L12.35 9.1Q13.2 8.6 14.35 8.2L14.75 8.05L16.9 7.6L18.5 7.4L18.05 6.6L17.7 6.05L17.7 5.9L17.5 5.6L17.2 5.5L16.55 5L16.45 4.9L16.35 4.85L15.8 4.45L15.55 4.3L15.2 4.1L14.95 4L14 3.55L13.05 3.3L12.95 4.5L13 5.2L13.05 5.5L13.1 6.2L13.05 6.45L12.8 6.7L12.7 6.8M12.65,3.25L11.35 3.1Q10.3 3.65 10.15 5L10.1 6.15L10.1 6.3L10.15 6.7L10.3 7.6L11.45 7L12.55 6.25L12.45 4.6L12.45 4.5L12.45 4.45L12.65 3.25M31.25,32.15L31.85 32.85L31.95 33L32.45 33.6L33.05 34.45L33.7 35.7L33.75 36.05L33.8 37.95L33.75 38.7L34.05 38.65L34.15 38.6L34.6 38.5L35.9 38L36.2 37.9L36.25 37.85L36.5 37.4L36.75 36.8L36.9 34.95L35.25 33.3L34.05 32.1L34 32.05Q33.45 31.6 33.2 31.7L33.15 31.7L31.25 32.15" />
<path style="fill:#CACDCC;fill-opacity:1" d="M49.45,6.25L45.55 9L43.85 10.15L42.75 10.7L42.25 10.8L43.85 9.75L46.15 8.1L46.75 7.6L47 7.4L49.35 5.25Q49.95 4.8 49.9 5.65L49.75 6.4Q49.7 6.25 49.45 6.25M33.9,4.45L33.55 4.7L33.75 4.3L33.9 4.35L33.9 4.45M15.15,10.55Q13.5 11.85 14.75 9.9L15 10L15.25 10.2L15.2 10.55L15.15 10.55" />
<path style="fill:#88949C;fill-opacity:1" d="M48.45,9.1L46.6 10.85L45 11.55L44.85 11.55L45.55 11.1L46.75 9.55L44.8 10.75L43.65 11.45L43.65 11.55L43.6 11.8L43.2 11.85Q43 11.85 43.1 11.65L42.95 11.5L42.6 11.25L42.35 11.2L42 11.05L41.95 11L42.25 10.85L42.25 10.8L42.75 10.7L43.85 10.15L45.55 9L49.45 6.25Q49.7 6.25 49.75 6.4L49.05 8.15L48.85 8.65L48.45 9.1M37.75,3.55Q38.15 3.55 38.9 4Q39.6 4.35 39.7 4.55L40.55 5.15L40.6 5.2L40.85 5.4L40.95 5.55L41.15 6.05L40.45 6.2L40.4 6.2L39.95 5.65L39.8 5.5L39.45 5.2L38.8 5.05Q38.05 5 36.75 5.5L36.6 5.55L36.4 5.2L36.9 4.35L37.3 3.9L37.5 3.75L37.7 3.55L37.75 3.55M41,11.85Q41 12.45 41.35 13L41.6 13.35L41.65 13.4L42.7 14.1L43.3 14.25L43.8 14.45L43.95 14.5L44.4 14.95Q44.65 15.25 45 15.25L45.5 15.25Q45.35 16.05 44.85 15.9L44.85 16L45.2 16.15L45.1 16.5L45.05 16.55L44.15 16.55L44.05 16.45L43.65 16.4L43.6 16.25L43.45 16L43.25 15.25Q42.8 14.3 41.95 13.95L41.1 13.7L40.5 13.45L39.15 12.95L38.6 12.75L37.65 12.3L37.3 12.1L37.15 12.75L37.15 12.9L37.05 12.85Q37 13.15 37.25 13.45L37.5 13.65L37.3 14.65L37.45 15.55L37.5 15.7L36.75 15.7Q36.8 14.85 36.45 13.8L36.15 12.9L35.75 12.8L35.5 12.7L34.95 12.6L34.75 12.6L34.65 12.6L34.6 12.35L35 12.25L35.05 12L34.7 11.7L34.45 12L34.4 11.9L34.15 11.35L34.25 11.1L34.65 10.05L34.75 9.9L35 9.65L35.4 9.45L35.55 9.4L35.9 9.3L36.3 9.8L36.65 10.15L37.6 10.6L38.5 10.9Q39.45 11.2 40 10.65L40.8 9.75L40.8 9.7L41.05 9.3L41.2 8.85L41.25 8.6L41.1 7.4L41.05 7.3L41.1 7.3L41.6 7.4L42.4 7.45Q41.95 8.1 42.55 7.55L42.6 7.45L42.95 7.5L43.15 7.9L43.45 8.2L43.8 8.6L44.05 8.8L43.65 9.05L42.4 9.9L42.2 10L41.95 10.15L41.85 10.2L41.4 10.55L41.35 10.6L41.15 11.2Q41 11.45 41 11.85M40.45,8.65L40.25 8.45Q40.1 8.45 39.9 8.65L39.7 8.8L39.5 8.9L39.5 8.7L39.5 8.45L39.35 7.9L39.25 7.7L39.05 7.3L38.45 6.15L39.05 6.3Q39.85 6.65 39.9 7.2L39.9 7.3L39.85 7.25L39.75 7.25L39.55 7.45L39.7 7.55L39.95 7.4L40.15 7.75L40.6 8.4L40.6 8.5L40.6 8.6L40.45 8.65M41.8,8.9L41.85 9L42.45 8.9L42.5 8.65L42.15 8.4L41.8 8.9M45.2,9.65Q45.35 10.3 45.8 9.75L45.8 9.65L45.7 9.55L45.55 9.5Q45.35 9.45 45.25 9.65L45.2 9.65M50.05,8.75L48.6 11.3L48.2 11.3L47.4 11.95L46.4 12.55L46.1 12.55L48.05 10.6Q49.6 8.8 50.3 6.7L50.4 7.5L50.2 8.4L50.05 8.75M47.25,8.6Q47.8 9.4 47.8 8.55L47.7 8.45Q47.4 8.4 47.3 8.6L47.25 8.6M48.35,10.4Q47.8 11.1 48.45 10.5L48.35 10.4M45.6,18.7L45.7 18.75Q46.1 18.9 46.1 19.3L46.35 19.3L46.2 19.85L45.55 19.85Q45.4 19.85 45.4 19.3L45.45 18.9L45.6 18.7M45.3,22.9L44.25 22.7L43.25 22.55L43.2 22.7L43.25 22.85Q42.7 23.3 42.95 22.9L42.7 22.45L42.1 22.3Q41.55 22.3 41.15 23.3Q40.75 24.2 40.25 24.2L40.15 24.2L39.95 24.5Q38.9 24.5 39.35 24.05L38.5 23.75L38.3 23.6L38.25 23.45L37.8 23.35L37.75 23.3L37.55 22.95L37.25 22.75L36.8 22.95L36.45 23.1Q35.85 23.1 35.1 22.7L35 22.65Q34.25 22.2 34.15 21.65L34.1 21.4L34.25 21.2L34.3 21.2L34.45 20.9L34.3 20.75L34.25 20.65Q33.1 20.9 34 20.15L34.25 20.35L34.35 20.2L34.4 20.15L34.55 19.75L34.5 19.65L34.25 19.5Q33.9 19.25 33.9 18.75L33.9 18.7L34.05 18.65L34.15 18.4L34.1 18.35L33.95 18.3L33.65 18.5L33.5 18.45L33.15 18L33.3 17.3L32.9 17.25L32.75 17.05Q32.75 16.85 32.9 16.8L33.45 16.65L33.25 16.25L33.05 15.95L33.15 15.75L32.45 15.05L32.35 14.8Q31.6 15 32.35 14.4L32.3 14.1L32.3 13.95L32.4 13.35L32.65 12.7L32.65 12.65L32.7 12.45L32.85 13.05L33 13.55L33.1 13.9L33.2 14.35Q33.2 14.75 33.65 14.85L33.7 14.85L34.1 14.9Q33.7 15.3 34.65 15.15L34.85 15.8L35.05 16.3Q35.1 17.4 35.3 17.6L35.4 17.65L36.5 17.55Q36.85 17.55 37 18L37 18.25L37 18.6L37 18.7L37 20.15Q36.95 20.3 37.3 20.25L37.3 20.4L38.55 20.15L39.55 19.85L40.25 20.15L40.75 20.4L41.8 20.85L41.65 21L41.65 21.05Q42.15 21.85 42.05 20.95L42.35 20.95L42.85 20.6L43.65 19.9L43.65 20.65L43.6 20.9Q44.05 20.9 44.3 21.15L44.35 21.4L44.6 21.6Q44.9 21.65 45.15 21.85L45.45 22.35L45.35 22.95L45.3 22.9M37.8,4.25L37.8 4.3Q37.9 4.8 38.15 4.5L38.2 4.5L38.25 4.4L38.25 4.3L38.05 4.1L37.85 4.25L37.8 4.25M34.9,7.45L34.8 7.3L34.55 7.3L34.8 6.9L35.55 5.25Q35.85 5.45 35.95 6.05Q35.45 6.5 35.3 7.05L34.9 7.45M33.9,4.35L33.95 4.35L34.2 4.4L34.4 4.3L34.45 4.3L34.55 4.25L34.9 4.6L34.3 5.45L33.75 5.85L33.7 5.85L33.2 5.65L33.1 5.7L32.85 5.95L32.65 6.15L32.6 6.1L32.25 5.7L31.95 5.95Q31.6 6.2 31.8 6.35L31.55 6.4L31.4 6.4L31.15 6.4L31.3 6L31.65 5.35L31.75 5.2L32.2 4.8L32.75 4.5L33.35 4.35L33.55 4.3L33.75 4.3L33.55 4.7L33.9 4.45L33.9 4.35M32.7,5.15L32.85 5.5L33.15 5.45L33.1 5.1L32.95 5L32.85 4.95L32.7 5.15M33.2,5.75L33.35 5.9Q33.55 6.15 33.25 6.25L33.1 6.3Q32.5 6.35 33.15 5.8L33.2 5.75M32.9,11.45L32.65 11.45L31.15 11.85L31.05 11.9L30.75 11.5L30.15 10.4Q30.1 9.7 30.3 9.1L30.8 8.1L31.1 8.45L31 9.1L31 9.3L31.2 10.1L31.2 10.15Q30.4 10.9 31.5 10.7L31.55 10.7Q31.7 10.85 31.95 10.85L32.35 10.75L32.6 10.8L32.9 11.3L32.9 11.45M32.25,9.65L32.2 10.05L32.15 10.05L31.8 9.7L31.8 9.65L32.15 9.55L32.25 9.65M35.9,7.85L35.85 7.4L35.85 7.35L36.2 6.85L36.4 6.6Q36.5 6.45 36.7 6.4L37.25 6.6L37.8 6.95L38.2 7.5L38.4 8.15L38.25 8.2L37.9 8L37.7 7.8L37.3 7.95L36.95 7.85L36.55 8.1L36.55 8.15L36.05 8.35L35.9 7.85M37.1,7.25L36.95 7.05L36.85 7.05L36.75 7.25Q36.45 7.8 37.05 7.3L37.1 7.25M37.85,8.6L37.75 8.65L37.45 8.7L37.35 8.7Q36.8 8.7 37.3 8.25L37.5 8L37.9 8.3L37.9 8.35L37.85 8.6M35.95,11.2L35.75 11L35.5 11.15L35.5 11.2L35.55 11.3Q35.85 12.25 35.95 11.4L35.95 11.2M38.15,11.1Q37.45 11.75 38.45 11.45L38.55 11.4L38.55 11.25L38.2 11.05L38.15 11.1M39.7,12.3L39.7 12.35Q39.75 12.95 40.25 12.6L40.25 12.55Q40.3 12.2 39.95 12.2Q39.75 12.2 39.7 12.3M24.95,5.5L24.9 5.25L24.8 4.8L24.75 4.5L23.05 4.3L21.9 4.1L21.85 4.1L21.2 4.15L21.2 4L21.15 3.6L22.45 3.55L24.95 3.65L25.35 3.65L25.4 3.75L25.65 5.5L25.65 5.65L25.65 6.05L25.25 5.85L25.15 5.75L25 5.7L24.95 5.5M20.2,0.6L21.65 1.3Q22.8 2 23.45 2.9L22.05 2.9L22.05 2.4L21.75 2.4L22.4 2L22.4 1.95Q22.25 1.55 21.8 1.55L21.35 2.35L20.3 1.7L18.8 0.7L20.2 0.6M16.2,4L16.1 3.95L16 3.9L15.45 3.55L15.05 3.3L15.05 3.2Q15.4 1.65 17.2 1.1L17.9 1.45L19.05 2.25L19.15 2.3L20.05 3.05L20.6 3.55L20.6 3.6L19.05 3.6L18.2 3L18.15 2.7L17.9 2.45L17.6 2.25Q15.95 3.05 16.8 3.15L17.25 3.15L16.7 3.55L16.35 3.9L16.2 4M24.25,7.45Q22.05 9.1 24.55 8.4Q25.1 8.2 24.65 7.65L24.25 7.45M26.3,10.4L25.25 10.75L24.6 10.75L24.55 10.4L24.45 10.1Q22.1 10.25 23.85 9.4L23.6 9.2Q23.3 8.95 22.3 8.45L22.1 8.3L21.95 8.1L21.75 7.85L21.7 7.75L21.55 7.5L21.95 7.2L22.1 7.05L21.8 6.7L21.55 6.6L21.45 6.75L21.25 7.05L20.9 6.6L20.85 6.5L20.2 5.85L22 6.1Q21.3 6.85 23 6.5L23.1 6.5L23.25 6.35L23.8 6.55Q25.75 7.4 26.4 10.2L26.45 10.35L26.45 10.4L26.3 10.4M20.7,11.75Q17.65 12.8 20.7 12.65L20.9 12.6Q21.55 12.55 21.05 11.95L20.8 11.75L20.7 11.75M22.1,12.95L20.7 13.75L20.6 13.8L20.05 13.9Q20.4 14.3 19.85 14.35L18.65 14.4L18.1 14.9L17.05 15.75L15.95 15L15.9 14.1L16.2 13.05L16.4 12.95L16.7 12.75L16.75 12.7L17.2 12.5Q19.1 11.5 19.9 10.2L20.05 9.85L20.1 9.75Q20.65 9.9 21.05 10.2L21.95 10.9L22.05 11Q22.5 11.5 22.6 12.1L22.1 12.95M28.3,15.55L27.7 14L27.1 13.9Q27.5 13.8 27.35 13.3L27 12.75L26.6 12.6L25.75 13.5L23.35 14.2L23.4 14.05L23.6 13.25L23.75 13.15Q24.95 12.4 26.85 11.65L27.65 11.3L27.7 11.45L27.9 12.05L27.95 12.35L28.15 13.25L28.5 15.85L28.45 15.85L28.3 15.55M21.95,16.95L22.3 16.5L22.85 15.65Q23.3 16.1 24.25 16.3L25.1 16.4L28.2 16.45L26.25 18.25L25.65 18.75L25.1 19.2L24.35 19.75L24.1 19.9L23.55 20.25L23.85 19.45Q24.15 18.8 24.5 18.65L25.1 18.35L25.35 18.1Q25.65 18 25.6 17.7L25.4 17.3L25.25 17.15L25 17.05L24.25 17.65L24 17.9L23.25 17.65L22.5 17.25L22.3 17.2L21.75 17.15L21.95 16.95M32.6,17.85L32.65 18.1Q31.55 18.5 32.4 17.75L32.6 17.85M34.3,16.2Q33.9 16.35 34.1 16.7L34.1 16.75Q34.8 16.8 34.35 16.25L34.3 16.2M34.35,23.15L33.95 23.25L33.9 23.2Q33.65 22.8 34.1 22.65L34.15 22.65L34.4 23.05L34.35 23.15M39.65,21.15L39.6 21.05L39.3 20.85Q38.5 21.6 39.1 21.55L39.55 21.45Q39.8 21.35 39.65 21.15M36.55,21.25L36.25 21.55L36.2 21.75L36.65 21.65L36.75 21.6L36.75 21.4L36.7 21.35L36.55 21.25M40.1,22.85L40.2 22.6L39.95 22.3Q39.05 23.1 40.1 22.85M10.75,8L12.2 7.15L12.7 6.8L12.8 6.7L13.4 6.6L13.55 5.65L13.55 4.75L14 4.7L14.15 4.35L14.5 4.5L15.25 4.65L15.65 4.7L15.8 4.45L16.35 4.85L16.45 4.9L16.55 5L16.4 4.9L16.85 5.7L17.1 5.45L17.2 5.5L17.5 5.6L17.7 5.9L17.7 6.05L17.65 6.1L16.95 6.3L17 6.4L17 6.95L16.25 6.8L15.35 6.7L15.35 7.2Q14.55 7.4 13.9 7.2Q13.9 7.9 13.55 8L12.55 8.05L12.55 8.1L12.5 8.35L12.25 8.45L11.7 8.4L11.3 8.25L10.75 8M18,3.75L18.35 3.25L18.35 3.3Q18.8 3.3 18.9 3.7L18.9 3.75Q17.4 4.7 18 3.75M10.1,6.3L10.1 6.15L10.55 5.05L10.7 4.7Q10.3 5.5 11.65 4.6L11.65 4.55Q11.5 4.15 11.1 4.15Q11.4 3.75 11.75 3.75L12.35 4.3L12.45 4.45L12.45 4.5L12.45 4.6Q12.25 4.8 12.15 5.3L12.05 5.95L11.9 5.9L11.7 5.85Q11.45 5.85 11.15 6.1L10.45 6.7L10.1 6.3M14.15,4.5Q13.65 5.2 13.75 5.4Q13.8 5.65 14.75 5L14.75 4.95L14.45 4.55L14.15 4.5M14.9,5.6Q13.6 7.5 15.3 6.2Q15.6 5.95 15.15 5.7L14.9 5.6M20,9.8Q19.9 9.85 19.75 10L19.35 10.35L16.95 11.3L16.65 11.45Q15.95 11.85 15.75 12.6L15.65 12.95L15.55 13L15.55 13.1L15.5 13.35Q15.3 14 15.45 15L15.55 15.4L15.8 15.55L16.5 16L16.1 16.1L15.5 16.1L15 16L14.45 15.85L14.3 15.9Q11.55 17 13.05 14.85Q12.85 14.6 12.45 14.45L12.15 14.35L12 14.45L11.75 14.25L11.15 13.65Q10.5 12.85 10.3 11.95L10.5 11.6L11.15 10.8L11.55 10.35L11.6 10.35L12.25 10L12.9 9.75L13.3 9.6L13.85 9.45L14.2 9.4L15.5 9.2L15.65 9.2Q15.6 9.4 15.9 9.45L16.85 9.35L17.15 9.25L17.3 9.2L19.8 9.6L20.1 9.7L20 9.8M13.9,12Q12.2 13.8 14.3 12.5Q14.6 12.3 14.15 12.1L13.9 12M15.2,10.55L15.25 10.2L15 10L14.75 9.9Q13.5 11.85 15.15 10.55L15.2 10.55M8.05,16.15L8 15.8L8 15.5L8.15 15.45Q8.7 15.45 9.65 16.45L10.15 17.05L10.55 17.5L10.55 17.55Q11.25 18.15 12 18.55L13.65 19.15L15.15 19.4L15.7 19.45L15.9 19.45L16.35 19.45L17.4 19.45L18.05 19.45L18.5 19.45L19.7 19.55L19.95 19.6L20.1 19.9L20.1 20L19.4 20.85L18.45 21.15L18.35 21.15L17.95 21.15L17.05 21.05L16.2 20.85L15.6 20.7Q13.7 20.1 11.45 18.8L10.2 18.05L9.8 17.75L8.05 16.15M16.25,16.95Q16.9 17 16.55 17.4Q15.05 18.8 16.25 16.95M19.6,15.95L19.3 16.25L18.8 16.4L19.3 15.6Q19.95 15.65 19.6 15.95M10.85,13.8L11.2 14L11.4 14.65L11.35 14.7L11.3 14.75Q9.4 15.1 10.7 13.75L10.85 13.8M17,19.75L16.1 20.6L16.2 20.8L16.9 20.8L17.5 20.7Q17.9 20.65 17.6 20.15L17.2 19.8L17 19.75M28.65,44.8L28.55 44.8Q25.9 44.8 25.35 43.75L25.15 43.4L24.95 43.85L24.95 43.9L23.65 43.8L23.6 43.75Q23.6 43.3 23.75 43L24 42.75L23.45 42.7L23.4 42.7Q22.7 42.7 22.1 42.1L21.7 41.6L21.5 41.35L21.25 40.9L20.95 40.35L21.4 40.35L21.7 40.25L21.85 40.25Q22.25 40.15 22.1 39.55L21.75 39L21.4 38.9L20.9 39.35L20.55 39.7L19.95 39.2L19.35 38.7L18.35 37.85Q16.25 38.7 17.45 37.6L17.6 37.45L17.75 37.3L17.7 37.25L17.45 37.05L17.35 36.95Q16.55 36.2 16.25 35.15L16.15 34.6L16.05 33.9L16.05 33.85L16.05 33.6L16.05 33.4L16 33.45L15.85 33.5L15.7 33.7L15.7 33.55L15.65 33.25L15.6 33.1L15.4 32.9L15.4 33.1L15.3 33.6L15.05 33.65Q13.95 33.7 12.75 32.9L12.6 32.75L12.5 32.7L12.5 32.65L12.45 32.75L11.3 32.8L11.15 32.4L11.15 32.25L11.3 31.8L11.4 31.75L11.5 31.75L11.1 31.45L11.6 31.1Q11.95 30.85 11.4 30.55L11.15 30.45L10.65 31.05L9.6 30.3L8.55 29.65L8.4 29.55L7.95 29.6Q6.8 29.65 7.35 28.9L5.75 27.75L4.35 26.55L4.55 26L6.05 26.05L6.45 26.05L6.55 26.05L7.1 26.35L7.3 26.45L9.65 27.7L10.25 28L10.35 28.05Q13.1 29.5 15.9 30.25L16.75 30.5L17.3 30.6L19.15 30.7L19.45 30.55L18.75 30.35L17.85 29.5L17.35 29.1L16.5 28.55L16.3 28.45L16.25 28.45L15.1 27.9L14.45 27.65L12.45 27.6L12.5 27.5L12.8 27L12.25 26.65L11.75 26.1L12.4 25.5L12.45 25.5L14.3 25.3L15.85 25.1L16.85 25.1Q16.8 25.85 17.75 25.8L18.2 25.6L18.3 25.3Q19.4 25.5 20.05 26L20.2 26.15L20.55 26.5L22.95 28.6L23.9 29.4L24.45 29.85L24.8 30.3L25.55 31.05L25.9 31.3L26.1 31.45L26.9 31.95L26.8 32.25L26.9 32.8L28.3 32.7L28.7 32.9Q29.8 33.45 29.85 33.55L30 33.75L30.2 34.45L30.2 34.55L30.25 34.65L30.6 34.3L30.7 34.2L30.8 34.2L30.85 34.2Q31.45 34.4 31.35 35.05L31.3 35.1L30.35 35.1L30.7 35.65Q31.65 36.65 32 37.95L32.45 40.1L32 40.75L31.7 41.25L31.25 41.9L31 42.25L29.3 44.45L29 44.75L28.65 44.8M32.2,45.15L31.55 44.95L31 45.35L30.85 45.35L31.05 44.85L31.5 43.75L31.8 42.95L32.1 41.65L32.55 40.85L32.8 40.35L33.15 40.8L33.75 41.75L33.9 42.15L33.8 42.65L33.2 44L33.1 44.15L32.8 44.75L32.45 45.3L32.2 45.15M18.9,27.8Q18.4 28.6 19.15 28.05L19.65 27.65Q20 27.35 19.5 27.25L19.3 27.2L19.15 27.4L18.9 27.8M13.95,30.65Q13.1 30.7 12.8 31.35L12.75 31.45Q13.85 32.35 14.1 30.85L13.95 30.65M13.85,40.75L13.85 40.65L14 40.8L14.45 41.3L14 41.4L14 41.35Q13.75 41.05 14 40.8L13.85 40.75M16.75,33.9L16.85 34.1L17.85 34.55L17.9 34.55L18.2 34.65L18.5 34.8L18.5 34.85L19.3 35.6L19.6 35.85L19.9 36L20.7 36.35L21.95 36.85L22.05 36.9L22.7 37.2L22.8 37.25L25.15 37.75L26.2 37.75L27 37.95L26.55 37.65Q24.9 36.6 22.9 35.8L22.15 35.5L22 35.45L21.95 35.4L21.75 34.5Q21.6 33.9 21.6 33.05L21.6 32.4L22.1 32.15L22.75 31.7L22.85 31.65L23.2 31.3L23.7 30.7L24.05 30.1L24 30Q23.9 29.85 23.75 30L22.95 30.7L22.55 31L21.85 31.35L21 31.75Q19.95 32.4 19.8 33.35L19.75 33.7L19.7 33.7L18.65 33.8L17.6 33.8L17.05 33.8L17.4 34.05L16.75 33.9M19.75,36.9L19.2 37.55Q18.75 38.2 19.5 37.8L20.2 37.4Q20.5 37.15 19.95 36.95L19.75 36.9M31.25,32.15L32.5 32.5L32.75 32.65L35.65 34.65L35.75 34.7L36.35 36L36.75 36.8L36.5 37.4L36.3 37.5L36.05 37.5L35.9 37.5Q35.5 37.3 35.25 36.4L34.95 35.1L33.7 33.95L33.15 33.6L32.9 33.45L32.3 33.1L32.05 32.95L31.85 32.85L31.25 32.15M28.8,34.2L28.3 34.5Q26.7 35.6 29 35.35L29.45 35.25L29.55 34.75L29.35 34.3L28.9 34.1L28.8 34.2M30.3,39.8Q30.75 39.7 30.25 39.25L29.85 39.05L29.2 39.6Q28.6 40.2 29.4 40.1L30.3 39.8M28.45,41.3L26.55 40.35L25.35 39.7L24.8 39.9L24.8 40.85L26.65 41.2L28.45 41.3M21.05,42.5L21.15 42.55Q21.8 42.9 21.65 43.6L21.6 43.65L20.75 43.75Q19.7 43.7 20.85 42.4L21.05 42.5" />
<path style="fill:#B3B8B7;fill-opacity:1" d="M40.85,5.4L40.6 5.2L40.55 5.15L39.7 4.55Q39.6 4.35 38.9 4Q38.15 3.55 37.75 3.55L37.7 3.55L37.9 3.45Q38.15 3.25 38.3 3.2Q39.35 3.6 40 4.25L40.85 5.4M43.8,8.6L43.45 8.2L43.15 7.9L42.95 7.5L42.6 7.45L42.55 7.55Q41.95 8.1 42.4 7.45L41.6 7.4L41.1 7.3L41.05 7.3L40.9 7.05L42.7 6.7L44.45 8.35L44.05 8.8L43.8 8.6M44.05,17.1L43.9 17.05L43.65 16.75L43.5 16.25L43.45 16L43.6 16.25L43.65 16.4L44.05 16.45L44.15 16.55L45.05 16.55L45.1 16.5L45.2 16.15L44.85 16L44.85 15.9Q45.35 16.05 45.5 15.25L45.8 15.15L45.85 15.15L45.8 16.75L45.7 16.9L44.05 17.1M39.9,7.3L39.9 7.2Q39.85 6.65 39.05 6.3L38.45 6.15L38.4 6.1L38.35 6.05L38.15 5.9L38.5 5.8Q39.1 5.7 39.6 6.15L39.95 6.55L40.6 7.95L40.6 8.05L40.6 8.4L40.15 7.75L39.95 7.4L39.9 7.3M45.75,18.55Q46.35 18.6 46.9 19.15L46.25 20.25L46.2 20.25L46.2 19.85L46.35 19.3L46.1 19.3Q46.1 18.9 45.7 18.75L45.6 18.7L45.75 18.55M39.65,19.2L40.15 19.7L40.6 19.9L41.15 20.1L42.35 20.3Q42.7 20.2 43.7 19.05L44.2 20.6Q46.15 21.15 46 22.05L45.55 23.05L45.35 22.95L45.45 22.35L45.15 21.85Q44.9 21.65 44.6 21.6L44.35 21.4L44.3 21.15Q44.05 20.9 43.6 20.9L43.65 20.65L43.65 19.9L42.85 20.6L42.35 20.95L42.05 20.95Q42.15 21.85 41.65 21.05L41.65 21L41.8 20.85L40.75 20.4L40.25 20.15L39.55 19.85L38.55 20.15L37.3 20.4L37.3 20.25L39.65 19.2M32.8,12.3L33.05 13.1L33.3 13.8L33.4 14.1Q33.55 14.45 33.95 14.45L35.05 14.15L35.05 16.3L34.85 15.8L34.65 15.15Q33.7 15.3 34.1 14.9L33.7 14.85L33.65 14.85Q33.2 14.75 33.2 14.35L33.1 13.9L33 13.55L32.85 13.05L32.7 12.45L32.8 12.3M34.45,4.3L34.4 4.3L34.2 4.4L33.95 4.35L33.9 4.35L33.75 4.3L33.55 4.3L33.35 4.35L32.75 4.5L32.2 4.8L31.75 5.2L32.05 4.75L32.25 4.5L32.55 4.2Q33.25 3.45 34.2 3.9L34.55 4.25L34.45 4.3M21.65,1.3L20.2 0.6L20.6 0.6L22.2 1.2L24.65 2.9L23.45 2.9Q22.8 2 21.65 1.3M21.75,2.4L21.35 2.35L21.8 1.55Q22.25 1.55 22.4 1.95L22.4 2L21.75 2.4M19.55,5.45L18.95 5.2L20.9 4.85L22.55 5.25L23.05 5.4L23.8 5.65L24.05 5.75L24.6 6.05L25.2 6.35L25.4 6.45L25.65 6.6L25.85 6.95L26.7 8.5L27.25 9.9L27.35 10.15L26.65 10.35L26.45 10.4L26.45 10.35L26.4 10.2Q25.75 7.4 23.8 6.55L23.25 6.35L23.1 6.5L23 6.5Q21.3 6.85 22 6.1L20.2 5.85L19.55 5.45M20.1,9.7L19.8 9.6L17.3 9.2L17.15 9.25L16.85 9.35L15.9 9.45Q15.6 9.4 15.65 9.2L15.5 9.2L14.2 9.4L13.85 9.45L13.3 9.6L12.9 9.75L12.25 10L11.6 10.35L11.95 10L11.9 10L12.25 9.75L12.55 9.55L13.25 9.15L13.8 8.95Q14.6 8.6 15.8 8.3L15.95 8.3L16.95 8.15L17.25 8.1L19.1 8.1Q19.75 8.15 20.65 8.7L21.3 9.15L22.25 10.15L22.45 10.45L22.6 10.75L22.75 11.15L22.65 12L22.6 12.1Q22.5 11.5 22.05 11L21.95 10.9L21.05 10.2Q20.65 9.9 20.1 9.75L20.1 9.7M34.35,16.25Q34.8 16.8 34.1 16.75L34.1 16.7Q33.9 16.35 34.3 16.2L34.35 16.25M15.65,4.7L15.25 4.65L14.5 4.5L14.15 4.35L14 4.7L13.55 4.75L13.55 5.65L13.4 6.6L12.8 6.7L13.05 6.45L13.1 6.2L13.05 5.5L13 5.2L12.95 4.5L13.05 3.3L14 3.55L14.95 4L15.2 4.1L15.55 4.3L15.8 4.45L15.65 4.7M10.1,6.15L10.15 5Q10.3 3.65 11.35 3.1L12.65 3.25L12.45 4.45L12.35 4.3L11.75 3.75Q11.4 3.75 11.1 4.15Q11.5 4.15 11.65 4.55L11.65 4.6Q10.3 5.5 10.7 4.7L10.55 5.05L10.1 6.15M14.45,4.55L14.75 4.95L14.75 5Q13.8 5.65 13.75 5.4Q13.65 5.2 14.15 4.5L14.45 4.55M19.7,19.55L18.5 19.45L18.05 19.45L17.4 19.45L16.35 19.45L15.9 19.45L15.7 19.45L15.15 19.4L13.65 19.15L12 18.55Q11.25 18.15 10.55 17.55L10.55 17.5L10.15 17.05L9.65 16.45Q8.7 15.45 8.15 15.45L8 15.5Q8.05 14.9 8.6 14.4L9.05 14.1L9.75 15.25L10.7 16.35L11.05 16.8L11.35 17.15Q12.25 18.25 14.05 18.6L15.15 18.75L15.65 18.8L16.15 18.85L16.65 18.9L16.85 18.9L17.7 18.95L18.6 18.9L19.1 18.85L19.35 18.8Q19.5 18.65 19.9 19.4L19.95 19.6L19.7 19.55M12.4,25.5L14.5 24.35Q17.45 24 19.85 24.45L20.85 25.3L21.3 25.7L22.3 26.65L22.4 26.75L23.45 27.75L25.3 29.25L25.45 29.35L26 29.8L26.8 30.4L28.3 31.45L29.3 32L29.75 32.2L30.6 32.45L31.35 33.25L31.6 33.55L31.85 33.85L32.6 34.95L33.25 36.15L33.1 38.5L32.45 40.1L32 37.95Q31.65 36.65 30.7 35.65L30.35 35.1L31.3 35.1L31.35 35.05Q31.45 34.4 30.85 34.2L30.8 34.2L30.7 34.2L30.6 34.3L30.25 34.65L30.2 34.55L30.2 34.45L30 33.75L29.85 33.55Q29.8 33.45 28.7 32.9L28.3 32.7L26.9 32.8L26.8 32.25L26.9 31.95L26.1 31.45L25.9 31.3L25.55 31.05L24.8 30.3L24.45 29.85L23.9 29.4L22.95 28.6L20.55 26.5L20.2 26.15L20.05 26Q19.4 25.5 18.3 25.3L18.2 25.6L17.75 25.8Q16.8 25.85 16.85 25.1L15.85 25.1L14.3 25.3L12.45 25.5L12.4 25.5M26.2,37.75L25.15 37.75L22.8 37.25L22.7 37.2L22.05 36.9L21.95 36.85L20.7 36.35L19.9 36L19.6 35.85L19.3 35.6L18.5 34.85L18.5 34.8L19.8 35.35L20.6 35.65L22 36.25L22.1 36.25L22.45 36.4L22.85 36.55L25.8 37.6L26.2 37.75M33.15,31.7L33.2 31.7Q33.45 31.6 34 32.05L34.05 32.1L35.25 33.3L36.9 34.95L36.75 36.8L36.35 36L35.75 34.7L35.65 34.65L32.75 32.65L32.5 32.5L31.25 32.15L33.15 31.7" />
<path style="fill:#64717E;fill-opacity:1" d="M38.45,6.15L39.05 7.3L39.25 7.7L39.35 7.9L39.5 8.45L39.5 8.7L39.5 8.9L39.7 8.8L39.9 8.65Q40.1 8.45 40.25 8.45L40.45 8.65L40.6 8.6L40.5 8.9L40.3 9.2L40.2 9.35L39.25 10.3L39.05 10.25L39.1 8.55L38.95 7.8L38.95 7.7L38.7 7.2L38.6 7L38.1 6.35L37.75 6.1L37.6 5.95L38.15 5.9L38.35 6.05L38.4 6.1L38.45 6.15M42.15,8.4L42.5 8.65L42.45 8.9L41.85 9L41.8 8.9L42.15 8.4M45.25,9.65Q45.35 9.45 45.55 9.5L45.7 9.55L45.8 9.65L45.8 9.75Q45.35 10.3 45.2 9.65L45.25 9.65M47.3,8.6Q47.4 8.4 47.7 8.45L47.8 8.55Q47.8 9.4 47.25 8.6L47.3 8.6M48.45,10.5Q47.8 11.1 48.35 10.4L48.45 10.5M38.5,8.75L38.4 10.1L36.85 9.55L36.55 9.2L36.05 8.35L36.55 8.15L36.55 8.1L36.95 7.85L37.3 7.95L37.7 7.8L37.9 8L38.25 8.2L38.4 8.15L38.5 8.75M37.9,8.35L37.9 8.3L37.5 8L37.3 8.25Q36.8 8.7 37.35 8.7L37.45 8.7L37.75 8.65L37.85 8.6L37.9 8.35" />
<path style="fill:#566370;fill-opacity:1" d="M48.85,8.65L47.85 10.1Q46.95 11.3 45.7 12.1Q44.5 12.85 43.95 13L43.55 13.1L43.2 13.1L42.95 13.05L42.8 12.95L42.45 12.7L42.25 12.5L42.05 12.05L41.85 11.05L41.95 11L42 11.05L42.35 11.2L42.6 11.25L42.95 11.5L43.1 11.65Q43 11.85 43.2 11.85L43.6 11.8L43.65 11.55L43.65 11.45L44.8 10.75L46.75 9.55L45.55 11.1L44.85 11.55L45 11.55L46.6 10.85L48.45 9.1L48.85 8.65M45.8,15.15L45.5 15.25L45 15.25Q44.65 15.25 44.4 14.95L43.95 14.5L43.8 14.45L43.3 14.25L42.7 14.1L41.65 13.4L41.6 13.35L41.35 13Q41 12.45 41 11.85Q41 11.45 41.15 11.2L41.15 11.25Q41.05 11.8 41.75 12.75L41.8 12.85L42.15 13.2Q42.55 13.6 43.15 13.7L43.7 13.7L43.85 13.65L44.45 14.25L45.55 14.55L45.85 14.5L45.85 15.15L45.8 15.15M37.85,13.85L38.15 14L38.2 14L38.3 14.05Q38 15.05 38.1 15.65L38.3 16.2L38.7 16.8L38.95 17.05L39.9 17.6L42.15 17.75L42.2 17.75L42.65 18.2L43.15 18.4L43.5 18.4L43.4 18.5L42.1 19.75L40.7 19.15L40.3 18.7Q39.85 18.3 39.55 18.35L39.05 18.5L38.6 18.65L37.75 19.05L37.75 18.05L37.65 17.25L37.4 16.9Q36.45 16.75 35.85 16.9L35.55 13.5L34.5 13.55L33.95 13.7L33.4 11.7Q33.35 11.55 33.15 11.5L32.9 11.45L32.9 11.3L32.6 10.8L32.35 10.75L31.95 10.85Q31.7 10.85 31.55 10.7L31.5 10.7Q30.4 10.9 31.2 10.15L31.2 10.1L31 9.3L31 9.1L31.1 8.45Q31.55 8.8 32.35 8.95Q32.7 9 33 9.3L33.3 9.65L33.55 10.1L33.75 10.6L33.9 10.05L33.9 9.95L34.45 9.55L34.75 9.3L35.2 9L35.65 8.75L35.9 9.3L35.55 9.4L35.4 9.45L35 9.65L34.75 9.9L34.65 10.05L34.25 11.1L34.15 11.35L34.4 11.9L34.45 12L34.7 11.7L35.05 12L35 12.25L34.6 12.35L34.65 12.6L34.75 12.6L34.95 12.6L35.5 12.7L35.75 12.8L36.15 12.9L36.45 13.8Q36.8 14.85 36.75 15.7L37.5 15.7L37.45 15.55L37.3 14.65L37.5 13.65L37.85 13.85M45.7,16.9Q44.9 17.85 44.2 17.9L43.75 17.9L43.2 17.7L43.05 17.55L43.05 17.45L42.9 16.95L42.3 15.2Q41.95 14.45 40.85 14.05L40.55 13.95L40 13.75L39.25 13.5L38.8 13.4L38.55 13.3L38.35 13.25L37.95 13.15L37.15 12.9L37.15 12.75L37.3 12.1L37.65 12.3L38.6 12.75L39.15 12.95L40.5 13.45L41.1 13.7L41.95 13.95Q42.8 14.3 43.25 15.25L43.45 16L43.5 16.25L43.65 16.75L43.9 17.05L44.05 17.1L45.7 16.9M39.95,7.4L39.7 7.55L39.55 7.45L39.75 7.25L39.85 7.25L39.9 7.3L39.95 7.4M46.1,12.55L46.4 12.55L47.4 11.95L48.2 11.3L48.6 11.3Q47.05 13.5 45.4 13.95L44.55 13.5L46.1 12.55M46.2,20.25L46.25 20.25L46 20.65Q45.45 20.25 44.7 20L45.45 18.9L45.4 19.3Q45.4 19.85 45.55 19.85L46.2 19.85L46.2 20.25M32.7,12.45L32.65 12.65L32.65 12.7L32.4 13.35L32.3 13.95L32.3 14.1L32.35 14.4Q31.6 15 32.35 14.8L32.45 15.05L33.15 15.75L33.05 15.95L33.25 16.25L33.45 16.65L32.9 16.8Q32.75 16.85 32.75 17.05L32.9 17.25L33.3 17.3L33.15 18L33.5 18.45L33.65 18.5L33.95 18.3L34.1 18.35L34.15 18.4L34.05 18.65L33.9 18.7L33.9 18.75Q33.9 19.25 34.25 19.5L34.5 19.65L34.55 19.75L34.4 20.15L34.35 20.2L34.25 20.35L34 20.15Q33.1 20.9 34.25 20.65L34.3 20.75L34.45 20.9L34.3 21.2L34.25 21.2L34.1 21.4L34.15 21.65Q34.25 22.2 35 22.65L35.1 22.7Q35.85 23.1 36.45 23.1L36.8 22.95L37.25 22.75L37.55 22.95L37.75 23.3L37.8 23.35L38.25 23.45L38.3 23.6L38.5 23.75L39.35 24.05Q38.9 24.5 39.95 24.5L40.15 24.2L40.25 24.2Q40.75 24.2 41.15 23.3Q41.55 22.3 42.1 22.3L42.7 22.45L42.95 22.9Q42.7 23.3 43.25 22.85L43.2 22.7L43.25 22.55L44.25 22.7L45.3 22.9L45.35 22.95L45.55 23.05L44.75 23.9L42.5 23.65L41.95 23.55L42.15 23.75L42.65 24.15L42.3 24.95L42.15 25.1L42.15 25.15L38.6 25.3L37.85 24.7L37.4 24.45L37.05 24.35L35 24.3L34.85 24.2L34.2 23.7L33.7 23.25L33.1 22.5L33.05 21.85Q32.75 20.25 32.1 19.5L30.7 18.3L31.15 17.2L31.4 16.35L31.95 16.55Q31.85 16.05 30.9 15.3L31.5 12.95L31.55 12.65L31.85 12.5L32.5 12.15L32.6 12.15L32.65 12.2L32.8 12.3L32.7 12.45M37.85,4.25L38.05 4.1L38.25 4.3L38.25 4.4L38.2 4.5L38.15 4.5Q37.9 4.8 37.8 4.3L37.8 4.25L37.85 4.25M35.3,7.05L35.3 7.15L35.3 7.55L35.3 7.6L35.35 7.85L34.8 8.3L34.4 8.7L33.7 9.4L33.2 8.7L32.9 8.45L33.3 8.25L33.95 7.9L34 7.85L34.55 7.3L34.8 7.3L34.9 7.45L35.3 7.05M31.1,7.1L31.15 6.4L31.4 6.4L31.55 6.4L31.8 6.35Q31.6 6.2 31.95 5.95L32.25 5.7L32.6 6.1L32.65 6.15L32.85 5.95L33.1 5.7L33.2 5.65L33.7 5.85L33.75 5.85L34.3 5.45L34.9 4.6L34.75 6.05L34.75 5.9L33.9 7.3L33.2 7.75L32.75 7.95L32.7 8L32.2 8.15L31.9 8.15L31.7 8.1L31.4 7.8L31.1 7.2L31.1 7.1M32.85,4.95L32.95 5L33.1 5.1L33.15 5.45L32.85 5.5L32.7 5.15L32.85 4.95M33.15,5.8Q32.5 6.35 33.1 6.3L33.25 6.25Q33.55 6.15 33.35 5.9L33.2 5.75L33.15 5.8M32.15,9.55L31.8 9.65L31.8 9.7L32.15 10.05L32.2 10.05L32.25 9.65L32.15 9.55M37.05,7.3Q36.45 7.8 36.75 7.25L36.85 7.05L36.95 7.05L37.1 7.25L37.05 7.3M35.95,11.4Q35.85 12.25 35.55 11.3L35.5 11.2L35.5 11.15L35.75 11L35.95 11.2L35.95 11.4M38.2,11.05L38.55 11.25L38.55 11.4L38.45 11.45Q37.45 11.75 38.15 11.1L38.2 11.05M39.95,12.2Q40.3 12.2 40.25 12.55L40.25 12.6Q39.75 12.95 39.7 12.35L39.7 12.3Q39.75 12.2 39.95 12.2M25,5.7L24.55 5.45L22.9 4.8L21.3 4.35L21.25 4.35L21.2 4.2L21.2 4.15L21.85 4.1L21.9 4.1L23.05 4.3L24.75 4.5L24.8 4.8L24.9 5.25L24.95 5.5L25 5.7M24.85,3.1L23.6 3.1L23 3.1L20.9 3.05L20.3 2.6L20.15 2.45L17.85 0.85L18.8 0.7L20.3 1.7L21.35 2.35L21.75 2.4L22.05 2.4L22.05 2.9L23.45 2.9L24.65 2.9L24.85 3.1M16.35,3.9L16.7 3.55L17.25 3.15L16.8 3.15Q15.95 3.05 17.6 2.25L17.9 2.45L18.15 2.7L18.2 3L19.05 3.6L20.6 3.6L20.55 4.35L19.7 4.45Q18.65 4.7 17.7 5.2L17.1 4.7L16.2 4L16.35 3.9M24.65,7.65Q25.1 8.2 24.55 8.4Q22.05 9.1 24.25 7.45L24.65 7.65M23.1,10.6Q22.65 9.45 21.65 8.65Q20.85 8 19.8 7.6L19.2 7.4L19.1 7.4L18.75 6.55L18 5.5L18.95 5.2L19.55 5.45L20.2 5.85L20.85 6.5L20.9 6.6L21.25 7.05L21.45 6.75L21.55 6.6L21.8 6.7L22.1 7.05L21.95 7.2L21.55 7.5L21.7 7.75L21.75 7.85L21.95 8.1L22.1 8.3L22.3 8.45Q23.3 8.95 23.6 9.2L23.85 9.4Q22.1 10.25 24.45 10.1L24.55 10.4L24.6 10.75L25.25 10.75L26.3 10.4L26.45 10.4L26.65 10.35L27.35 10.15L27.45 10.45L27.5 10.6Q25.65 11.45 23.9 12.5L23.55 12.7L23.55 12.65L23.35 11.3L23.15 10.75L23.1 10.6M20.8,11.75L21.05 11.95Q21.55 12.55 20.9 12.6L20.7 12.65Q17.65 12.8 20.7 11.75L20.8 11.75M17.05,15.75L18.1 14.9L18.65 14.4L19.85 14.35Q20.4 14.3 20.05 13.9L20.6 13.8L20.7 13.75L22.1 12.95L22.6 12.1L22.65 12L22.75 11.15L23.1 12.3L23.05 12.85L22.9 13.45L22.75 14.05L22.65 14.35L21.7 16.2L21.6 16.3L21.3 16.7L20.85 17.15L20.15 17.7L19.3 17.95L18.8 17.25L18.6 17.05L18.2 16.65L17.05 15.75M28.45,15.85L26.45 15.9L25.05 15.8L24 15.7L23.25 15.25Q23.05 15.05 23.15 14.85L23.35 14.2L25.75 13.5L26.6 12.6L27 12.75L27.35 13.3Q27.5 13.8 27.1 13.9L27.7 14L28.3 15.55L28.45 15.85M22.8,20.7L21.6 21.25L21.4 21.25L21 21.3L20.6 21.05L20.65 20.95L20.65 20.4L20.65 20.35L20.55 19.7L20.05 18.5Q21 17.9 21.75 17.15L22.3 17.2L22.5 17.25L23.25 17.65L24 17.9L24.25 17.65L25 17.05L25.25 17.15L25.4 17.3L25.6 17.7Q25.65 18 25.35 18.1L25.1 18.35L24.5 18.65Q24.15 18.8 23.85 19.45L23.55 20.25L22.8 20.7M32.4,17.75Q31.55 18.5 32.65 18.1L32.6 17.85L32.4 17.75M34.4,23.05L34.15 22.65L34.1 22.65Q33.65 22.8 33.9 23.2L33.95 23.25L34.35 23.15L34.4 23.05M39.55,21.45L39.1 21.55Q38.5 21.6 39.3 20.85L39.6 21.05L39.65 21.15Q39.8 21.35 39.55 21.45M36.7,21.35L36.75 21.4L36.75 21.6L36.65 21.65L36.2 21.75L36.25 21.55L36.55 21.25L36.7 21.35M39.95,22.3L40.2 22.6L40.1 22.85Q39.05 23.1 39.95 22.3M17.1,5.45L16.85 5.7L16.4 4.9L16.55 5L17.2 5.5L17.1 5.45M11.3,8.25L11.7 8.4L12.25 8.45L12.5 8.35L12.55 8.1L12.55 8.05L13.55 8Q13.9 7.9 13.9 7.2Q14.55 7.4 15.35 7.2L15.35 6.7L16.25 6.8L17 6.95L17 6.4L16.95 6.3L17.65 6.1L17.7 6.05L18.05 6.6L18.5 7.4L16.9 7.6L14.75 8.05L14.35 8.2Q13.2 8.6 12.35 9.1L11.9 9.35L11.75 9.25L11.35 9.05L11.25 9L10.45 8.1L10.75 8L11.3 8.25M18.9,3.75L18.9 3.7Q18.8 3.3 18.35 3.3L18.35 3.25L18 3.75Q17.4 4.7 18.9 3.75M10.45,6.7L11.15 6.1Q11.45 5.85 11.7 5.85L11.9 5.9L12.05 5.95L12.15 5.3Q12.25 4.8 12.45 4.6L12.55 6.25L11.45 7L10.3 7.6L10.15 6.7L10.1 6.3L10.45 6.7M15.15,5.7Q15.6 5.95 15.3 6.2Q13.6 7.5 14.9 5.6L15.15 5.7M10.3,11.95Q10.5 12.85 11.15 13.65L11.75 14.25L12 14.45L12.15 14.35L12.45 14.45Q12.85 14.6 13.05 14.85Q11.55 17 14.3 15.9L14.45 15.85L15 16L15.5 16.1L16.1 16.1L16.5 16L16.9 16.35L17.6 17L18.8 18.05L18.95 18.2L18.85 18.25L18.55 18.25L18.4 18.3L18.15 18.3L17 18.3L16.45 18.3L15.6 18.25L14.35 18.15Q13.3 18 12.8 17.65L11.65 16.65L11.4 16.4L11.05 16L10.85 15.75L10 14.8L9.5 14.05Q9.35 13.7 10.1 12.3L10.3 11.95M15.65,12.95L15.75 12.6Q15.95 11.85 16.65 11.45L16.95 11.3L19.35 10.35L16.65 12.3L16.2 12.6L15.65 12.95M14.15,12.1Q14.6 12.3 14.3 12.5Q12.2 13.8 13.9 12L14.15 12.1M9.8,17.75L10.2 18.05L11.45 18.8Q13.7 20.1 15.6 20.7L16.2 20.85L17.05 21.05L17.95 21.15L18.35 21.15L18.45 21.15L19.4 20.85L20.1 20L20.15 20.5L20.15 20.8L20.1 20.95L20 21.35L19.9 21.4L18.2 21.85L17.85 21.9L17.45 21.9L17.1 21.9L16.25 21.8Q14.95 21.55 13.5 20.75L11.9 19.85L11 19.25L10.05 18.5L9.65 18.15L8.4 17L8.05 16.15L9.8 17.75M16.55,17.4Q16.9 17 16.25 16.95Q15.05 18.8 16.55 17.4M19.3,15.6L18.8 16.4L19.3 16.25L19.6 15.95Q19.95 15.65 19.3 15.6M10.7,13.75Q9.4 15.1 11.3 14.75L11.35 14.7L11.4 14.65L11.2 14L10.85 13.8L10.7 13.75M17.2,19.8L17.6 20.15Q17.9 20.65 17.5 20.7L16.9 20.8L16.2 20.8L16.1 20.6L17 19.75L17.2 19.8M24.75,45.9L22.5 46.35L22 45.6L21.25 44.5Q20.85 44.1 20.35 44L20.3 43.95Q19.15 43.65 18.2 42.5L17.75 41.9Q17.15 42.15 16.8 41.7L16.75 41.65L16.7 41.6L16.7 41.5Q16.7 41 17.1 40.85L16.7 40.3L16.2 39.45L15.4 38.1L15.35 38.05L14.95 37.6L14.7 37.4L15.25 36.25L15.7 34.2L15.7 33.75L15.7 33.7L15.85 33.5L16 33.45L16.05 33.4L16.05 33.6L16.05 33.85L16.05 33.9L16.15 34.6L16.25 35.15Q16.55 36.2 17.35 36.95L17.45 37.05L17.7 37.25L17.75 37.3L17.6 37.45L17.45 37.6Q16.25 38.7 18.35 37.85L19.35 38.7L19.95 39.2L20.55 39.7L20.9 39.35L21.4 38.9L21.75 39L22.1 39.55Q22.25 40.15 21.85 40.25L21.7 40.25L21.4 40.35L20.95 40.35L21.25 40.9L21.5 41.35L21.7 41.6L22.1 42.1Q22.7 42.7 23.4 42.7L23.45 42.7L24 42.75L23.75 43Q23.6 43.3 23.6 43.75L23.65 43.8L24.95 43.9L24.95 43.85L25.15 43.4L25.35 43.75Q25.9 44.8 28.55 44.8L28.65 44.8L29 44.75L28.95 44.9L27.65 45.2L24.75 45.9M32.45,45.3L32.25 45.6L31.8 46.2L31.55 46.5L28 46.75L27.7 46.3L27.65 45.95L28.6 45.65L28.75 45.6L29.35 45.4L29.85 44.8L29.95 44.7L31.4 42.75L31.6 42.5L32.1 41.65L31.8 42.95L31.5 43.75L31.05 44.85L30.85 45.35L31 45.35L31.55 44.95L32.2 45.15L32.45 45.3M11.75,26.1L12.25 26.65L12.8 27L12.5 27.5L12.45 27.6L14.45 27.65L15.1 27.9L16.25 28.45L16.3 28.45L16.5 28.55L17.35 29.1L17.85 29.5L18.75 30.35L17.6 30.05L17.05 29.9L16.8 29.85L12.8 28.55L11 27.7L10.6 27.5L10.75 27.25L11.75 26.1M4.35,26.55L5.75 27.75L7.35 28.9Q6.8 29.65 7.95 29.6L8.4 29.55L8.55 29.65L9.6 30.3L10.65 31.05L11.15 30.45L11.4 30.55Q11.95 30.85 11.6 31.1L11.1 31.45L11.5 31.75L11.4 31.75L11.3 31.8L11.15 32.25L11.15 32.4L11.3 32.8L12.45 32.75L12.5 32.65L12.5 32.7L12.6 32.75L12.75 32.9Q13.95 33.7 15.05 33.65L15.3 33.6L15.25 33.85L15.15 34.3L15 34.5L14.5 34.95L13.3 36.1L13.25 36.05L13.05 35.65L12.9 35.4L11.55 35.35L11.5 35.3Q11.45 34.45 12.1 34.35L11.05 33.3L10.35 32.65L9.2 31.7L8.95 31.5L8.9 31.45Q6.55 29.6 4.05 28.25Q4 27.35 4.35 26.55M19.15,27.4L19.3 27.2L19.5 27.25Q20 27.35 19.65 27.65L19.15 28.05Q18.4 28.6 18.9 27.8L19.15 27.4M14.1,30.85Q13.85 32.35 12.75 31.45L12.8 31.35Q13.1 30.7 13.95 30.65L14.1 30.85M14,40.8Q13.75 41.05 14 41.35L14 41.4L14.45 41.3L14.95 41.95L15.75 43.15L16.15 44.2L14.2 43.5Q12.95 43 12.75 42.45L12.55 41.75L12 41.95L11.95 41.9Q11.55 41.3 12.25 40.95L12.55 40.95L12.65 41.05L12.7 40.4L12.25 39.8L11.6 38.75L11.25 37.75L12.05 38.85L13.4 40.2L13.85 40.65L13.85 40.75L14 40.8M21.1,32.2Q20.8 32.9 21 34.05L21.3 35.15L20.4 34.85L20.1 34.75L18.65 34.35L18.05 34.2L17.7 34.15L17.4 34.05L17.05 33.8L17.6 33.8L18.65 33.8L19.7 33.7L19.75 33.7L19.8 33.35Q19.95 32.4 21 31.75L21.85 31.35L22.55 31L22.95 30.7L21.1 32.2M10.9,42.6L11 42.55Q11.3 42.7 11.25 43.1L11.2 43.15Q10.35 43.15 10.9 42.6M13.55,41.6Q13.35 41.7 13.25 41.85L13.25 41.95L13.35 42.3Q13.4 42.45 13.55 42.4Q14.35 42.15 13.65 41.65L13.55 41.6M27,46.65L27.15 47.2L26.25 48L24.85 48.65L23 48.75Q22.8 48.5 22.85 48.05L23 48L23.15 48.05L22.9 47.75L22.9 47.65Q23.25 46.9 24.1 47Q24.45 47 24.45 47.4L24.45 47.6L25.45 47.25L27 46.65M36.25,37.85L36.2 37.9L35.9 38L34.6 38.5L34.15 38.6L34.05 38.65L33.75 38.7L33.8 37.95L33.75 36.05L33.7 35.7L33.05 34.45L32.45 33.6L31.95 33L31.85 32.85L32.05 32.95L32.3 33.1L32.9 33.45L33.15 33.6L33.7 33.95L34.95 35.1L35.25 36.4Q35.5 37.3 35.9 37.5L36.05 37.5L36.3 37.5L36.5 37.4L36.25 37.85M28.9,34.1L29.35 34.3L29.55 34.75L29.45 35.25L29 35.35Q26.7 35.6 28.3 34.5L28.8 34.2L28.9 34.1M29.4,40.1Q28.6 40.2 29.2 39.6L29.85 39.05L30.25 39.25Q30.75 39.7 30.3 39.8L29.4 40.1M26.65,41.2L24.8 40.85L24.8 39.9L25.35 39.7L26.55 40.35L28.45 41.3L26.65 41.2M20.85,42.4Q19.7 43.7 20.75 43.75L21.6 43.65L21.65 43.6Q21.8 42.9 21.15 42.55L21.05 42.5L20.85 42.4" />
<path style="fill:#A8ACAB;fill-opacity:1" d="M50.35,6.6L50.45 6.15Q51 6.25 50.2 8.4L50.4 7.5L50.3 6.7L50.35 6.6" />
<path style="fill:#222F35;fill-opacity:1" d="M37.5,13.65L37.25 13.45Q37 13.15 37.05 12.85L37.15 12.9L37.95 13.15L38.35 13.25L38.55 13.3L38.8 13.4L39.25 13.5L40 13.75L40.55 13.95L40.85 14.05Q41.95 14.45 42.3 15.2L42.9 16.95L43.05 17.45L43.05 17.55L43.2 17.7L43.75 17.9L44.2 17.9Q44.9 17.85 45.7 16.9L46.1 16.9L46.5 16.9L46.2 17.45L45.85 17.85L46.05 17.9L45.45 18.2L43.4 18.5L43.5 18.4L43.15 18.4L42.65 18.2L42.2 17.75L42.15 17.75L42.15 17.7L42.05 17.15L42.1 17.15L42.05 16.95L42 16.7L42 16.65Q41.7 15.3 40.85 14.95L39.7 14.45L39.55 14.4L39.15 14.3L39 14.25L38.9 14.2L38.55 14.05L38.5 14.05L38.2 14L38.15 14L37.85 13.85L37.5 13.65M36.45,24.95L35.7 25L34.95 25L34.5 24.75L34.4 24.65L33.95 24.2L33.75 24.05L33.35 23.7L33.25 23.6L32.85 23.1L32.5 22.3L32.45 22L32.15 21.05L31.6 20.1L30.5 19L30.3 18.9L29.9 18.4Q29.9 18.15 30.05 17.85L30.65 16L30.3 15.7L30.25 15.55L30.45 14.55L30.95 12.75L30.35 11.85L29.95 11.15L29.6 10.55Q29.45 9.8 29.95 8.45L30.35 7.4L30.4 6.9L31 7.05L31.1 7.1L31.1 7.2L31.4 7.8L31.2 8.3L31.1 8.45L30.8 8.1L30.3 9.1Q30.1 9.7 30.15 10.4L30.75 11.5L31.05 11.9L31.15 11.85L32.65 11.45L32.9 11.45L32.8 12.3L32.65 12.2L32.6 12.15L32.5 12.15L31.85 12.5L31.55 12.65L31.5 12.95L30.9 15.3Q31.85 16.05 31.95 16.55L31.4 16.35L31.15 17.2L30.7 18.3L32.1 19.5Q32.75 20.25 33.05 21.85L33.1 22.5L33.7 23.25L34.2 23.7L34.85 24.2L35 24.3L37.05 24.35L37.4 24.45L37.85 24.7L38.6 25.3L42.15 25.15L42.15 25.1L42.3 24.95L42.65 24.15L42.15 23.75L41.95 23.55L42.5 23.65L44.75 23.9L45.55 23.05L46 23.25L45.2 24.35L43.2 24.4L42.65 25.65L38.2 25.85L37.5 25.35L37.1 25.05L36.95 24.95L36.45 24.95M31.8,46.2L32.3 46.2L32.65 46.2L32.05 47.1L27.9 47.5L26.8 48.45Q25.95 49.1 24.75 49.3L22.75 49.35Q21.6 49.45 20.5 48.85L19.15 48L18.75 47.6L18.65 46.95L16.9 45.4L14.3 45.3L10.4 45.2Q6.8 43.2 9.75 40.95L9.1 38.35L9.65 35.35L8.35 33.75L6.85 31.95L5.95 31.1Q5.25 30.55 3.9 30.1Q3.35 29 3.4 27.95Q3.35 26.9 3.85 26L4.15 25.55L4.55 25.4L5.85 25.5L5.15 22.5L4.85 20.3L5 19.55L5.05 19.55L5.55 19.05L7.05 18.85L6.9 19.25L6.85 19.4Q5.8 19.6 5.65 20.3Q5.45 21.3 6.2 24.3L6.5 25.35L6.45 25.5L7.05 26.15L7.3 26.45L7.1 26.35L6.55 26.05L6.45 26.05L6.05 26.05L4.55 26L4.35 26.55Q4 27.35 4.05 28.25L4.1 28.9L4.35 29.55Q5.25 29.75 5.95 30.25L7.65 31.75L9.85 34.6L10.25 35.15L10.5 35.5L10.9 36L11.75 37.25L11.9 37.45L12.3 38.1L12.5 38.5L14 37.25L14.2 37L14.95 35.45L15 35.15L15.1 34.6L15.1 34.55L15.15 34.3L15.25 33.85L15.3 33.6L15.4 33.1L15.4 32.9L15.6 33.1L15.65 33.25L15.7 33.55L15.7 33.7L15.7 33.75L15.7 34.2L15.25 36.25L14.7 37.4L13.6 38.5L12.95 38.85L13.65 39.4L15.3 41.05L15.55 41.4L16.2 42.25Q17.05 43.45 17.35 44.55L17.4 44.75L19.7 46.75L22.5 46.35L24.75 45.9L27.65 45.2L28.75 45.6L28.6 45.65L27.65 45.95L27.7 46.3L28 46.75L31.55 46.5L31.8 46.2M10.5,11.6L10.3 11.95L10.1 12.3Q9.35 13.7 9.5 14.05L10 14.8L10.85 15.75L11.05 16L11.4 16.4L11.65 16.65L12.8 17.65Q13.3 18 14.35 18.15L15.6 18.25L16.45 18.3L17 18.3L18.15 18.3L18.4 18.3L18.55 18.25L18.85 18.25L18.95 18.2L18.8 18.05L17.6 17L16.9 16.35L16.5 16L15.8 15.55L15.55 15.4L15.45 15Q15.3 14 15.5 13.35L15.55 13.1L15.55 13L15.65 12.95L16.2 12.6L16.65 12.3L19.35 10.35L19.75 10Q19.9 9.85 20 9.8L20.1 9.7L20.1 9.75L20.05 9.85L19.9 10.2Q19.1 11.5 17.2 12.5L16.75 12.7L16.7 12.75L16.4 12.95L16.2 13.05L15.9 14.1L15.95 15L17.05 15.75L18.2 16.65L18.6 17.05L18.8 17.25L19.3 17.95L20.15 17.7L20.85 17.15L21.3 16.7L21.6 16.3L21.7 16.2L22.65 14.35L22.75 14.05L22.9 13.45L23.05 12.85L23.1 12.3L22.75 11.15L22.6 10.75L22.9 10.65L23.1 10.6L23.15 10.75L23.35 11.3L23.55 12.65L23.55 12.7L23.9 12.5Q25.65 11.45 27.5 10.6L27.45 10.45L27.35 10.15L27.25 9.9L27.8 9.55L28.1 10.4L28.1 10.5L28.15 10.75L28.3 11.35L28.45 11.95L28.5 12.25L28.95 16.1L28.9 16.6L28.25 17.2L26.65 18.65L26.05 19.15L25.5 19.6L24.85 20.05L23.7 20.85L23.4 21.05L23.25 21.15L22.5 21.5L22.5 21.6L22.2 21.65L22 21.7L21.8 21.75L21.75 21.8L21.55 21.8L21.5 21.8L20.25 22.1L19.95 22.2L18.15 22.55L16.8 22.5Q15.55 22.3 14.3 21.75L12.1 20.7L11.1 20.1L10.2 19.2L10 19L9.55 18.65L8.9 18.2L8.35 17.8L8.3 17.85L7.95 17.2L7.75 16.75Q7.5 16.2 7.55 15.7L7.55 15.65L7.55 15.5Q7.65 13.9 9 13.4L9.6 11.9L9.95 11.25L10.5 11.6M23.15,14.85Q23.05 15.05 23.25 15.25L24 15.7L25.05 15.8L26.45 15.9L28.45 15.85L28.5 15.85L28.15 13.25L27.95 12.35L27.9 12.05L27.7 11.45L27.65 11.3L26.85 11.65Q24.95 12.4 23.75 13.15L23.6 13.25L23.4 14.05L23.35 14.2L23.15 14.85M23.55,20.25L24.1 19.9L24.35 19.75L25.1 19.2L25.65 18.75L26.25 18.25L28.2 16.45L25.1 16.4L24.25 16.3Q23.3 16.1 22.85 15.65L22.3 16.5L21.95 16.95L21.75 17.15Q21 17.9 20.05 18.5L20.55 19.7L20.65 20.35L20.65 20.4L20.65 20.95L20.6 21.05L21 21.3L21.4 21.25L21.6 21.25L22.8 20.7L23.55 20.25M8,15.8L8.05 16.15L8.4 17L9.65 18.15L10.05 18.5L11 19.25L11.9 19.85L13.5 20.75Q14.95 21.55 16.25 21.8L17.1 21.9L17.45 21.9L17.85 21.9L18.2 21.85L19.9 21.4L20 21.35L20.1 20.95L20.15 20.8L20.15 20.5L20.1 20L20.1 19.9L19.95 19.6L19.9 19.4Q19.5 18.65 19.35 18.8L19.1 18.85L18.6 18.9L17.7 18.95L16.85 18.9L16.65 18.9L16.15 18.85L15.65 18.8L15.15 18.75L14.05 18.6Q12.25 18.25 11.35 17.15L11.05 16.8L10.7 16.35L9.75 15.25L9.05 14.1L8.6 14.4Q8.05 14.9 8 15.5L8 15.8M7.25,22.45L7.2 21.7L8.05 22.9L7.25 22.45M15.75,43.15L14.95 41.95L14.45 41.3L14 40.8L13.85 40.65L13.4 40.2L12.05 38.85L11.25 37.75L11.15 37.6L10.65 36.8L10.3 36.25L9.7 37.55L10.75 41.1Q10.85 41.55 10 42.1Q9.1 42.6 9.35 43.2L10.7 44.35L10.7 44.4L12.25 44.3L16.2 44.4L16.15 44.2L15.75 43.15M25.8,37.6L22.85 36.55L22.45 36.4L22.1 36.25L22 36.25L20.6 35.65L19.8 35.35L18.5 34.8L18.2 34.65L17.9 34.55L17.85 34.55L16.85 34.1L16.75 33.9L17.4 34.05L17.7 34.15L18.05 34.2L18.65 34.35L20.1 34.75L20.4 34.85L21.3 35.15L21 34.05Q20.8 32.9 21.1 32.2L22.95 30.7L23.75 30Q23.9 29.85 24 30L24.05 30.1L23.7 30.7L23.2 31.3L22.85 31.65L22.75 31.7L22.1 32.15L21.6 32.4L21.6 33.05Q21.6 33.9 21.75 34.5L21.95 35.4L22 35.45L22.15 35.5L22.9 35.8Q24.9 36.6 26.55 37.65L27 37.95L26.2 37.75L25.8 37.6M24.85,48.65L26.25 48L27.15 47.2L27 46.65L26.9 46.05L22.95 46.85L22.25 46.95L20 47.35Q19.55 47.45 19.65 47.55L20.3 48L22 48.7L23 48.75L24.85 48.65" />
<path style="fill:#BB482E;fill-opacity:1" d="M42,16.7L42.05 16.95L42.1 17.15L42.05 17.15L42 16.7" />
<path style="fill:#BB732E;fill-opacity:1" d="M41.6,17.3L40.15 17.1L39.35 16.6L38.95 16L38.9 15.9Q38.65 15.35 38.75 14.8L38.75 14.75L39.1 15.45Q39.9 16.65 41.7 16.65L42 16.65L42 16.7L42.05 17.15L41.6 17.3" />
<path style="fill:#4E2710;fill-opacity:1" d="M39.9,17.6L38.95 17.05L38.7 16.8L38.3 16.2L38.1 15.65Q38 15.05 38.3 14.05L38.2 14L38.5 14.05L38.55 14.05L38.9 14.2L39 14.25L38.9 14.25L38.8 14.55L38.75 14.7L38.75 14.75L38.75 14.8Q38.65 15.35 38.9 15.9L38.95 16L39.35 16.6L40.15 17.1L41.6 17.3L42.05 17.15L42.15 17.7L42.15 17.75L39.9 17.6" />
<path style="fill:#CBA33F;fill-opacity:1" d="M38.75,14.7L38.8 14.55L38.9 14.25L39 14.25L39.15 14.3L39.55 14.4L39.7 14.45L40.85 14.95Q41.7 15.3 42 16.65L41.7 16.65Q39.9 16.65 39.1 15.45L38.75 14.75L38.75 14.7" />
<path style="fill:#596770;fill-opacity:1" d="M48.2,33.75L47.65 32.75L45.25 31.05L44.3 30.8L45.75 30.45Q45.95 30.35 46.4 30.75L47.4 31.7L48.6 32.95Q48.75 33.7 48.5 34.35L48.2 33.75M32.75,24.7L34.5 24.75L34.95 25L35.7 25L35.95 25.2L36.45 25.7L36.9 26.1L37.4 26.55L37.45 26.6L40.85 29.45Q41.95 30.25 42.75 30.65L43.1 30.8L43.75 31.05L44.55 31.9L45.3 32.95L45.8 33.85L45.7 35.7L45.2 36.9L44.85 35.25Q44.6 34.25 43.85 33.5L43.6 33.05L44.3 33.05L44.35 33Q44.45 32.55 43.95 32.4L43.85 32.35L43.5 32.7L43.45 32.65L43.2 31.85L42.3 31.4L42 31.25L40.95 31.3L40.85 30.85L40.95 30.65L39.9 29.95L39.05 29L36.25 26.65L35.8 26.2L35.75 26.15L35.35 25.85L35.05 25.75L34.65 25.6L34.3 25.5L34.2 25.75L33.85 25.9Q33.15 25.95 33.2 25.35L32.4 25.35L31.2 25.5L32.75 24.7M26.75,3.45L27.1 3.25L28.05 2.75L28.6 2.55L30.45 2.75L30.55 2.75L32.1 3.8L32.05 3.85L31.3 3.6L28.6 3.15L27.6 3.2L26.75 3.45M27.85,4.8L29.35 5Q30.25 5.2 30.8 5.5L30.6 6.05L30.5 6.55L30 6.15L29.65 5.95L28.9 5.65L28 5.5L27.4 5.45L26.2 5.55L26.2 5.25L27.85 4.8M27.65,27.25Q27.6 26.8 27.9 26.45L28 26.35L28.35 26.55L28.75 26.7L30.1 27.35L33.65 29.15L34 29.35L33.6 30.45L32.65 30.2Q32.25 29.85 32.3 29.45L32.1 29.25L31.8 28.95L31.35 28.55L30.15 27.9L30.2 28.05L30.1 28.25L29.95 28.25L29.9 28.25L29.75 28.1L29.75 28.05L29.3 28.05L29.15 27.9L29.2 27.85L29.3 27.65L29.1 27.55L28.25 27.35L27.65 27.25M39.95,37.15L39.75 35.1L39.65 34.85L39.5 34.4L39.25 33.85L37.8 31.6L37.65 31.5Q37.8 31.25 37.4 30.95L37.3 30.85L37.25 30.95L37.15 30.85L36.85 30.55L36.05 29.55L35.95 29.55L35.85 29.55L35.65 29.45L35.4 29.8L35.35 29.9L34.95 30.3L34.75 30.55L34.7 30.6L34.7 30.5L34.7 30.45L34.6 29.8L34.6 29.75L34.8 29.2Q35.1 28.45 35.45 28.25L37.6 29.9L37.95 30.25L38.8 31.1Q40.05 32.5 40.2 34.8L40.25 35.05L40.25 35.1L40.2 36.6L40 38.6Q39.9 38.05 39.95 37.15" />
<path style="fill:#19242A;fill-opacity:1" d="M27.9,25.2Q28.5 25.75 29.1 25.6L29.15 25.6L30.05 25.35L30.45 25.2Q30.85 24.95 31.35 24.8L32.4 24.2L33.25 23.6L33.35 23.7L33.75 24.05L33.5 24.2L33.95 24.2L34.4 24.65L34.5 24.75L32.75 24.7L31.2 25.5L31.15 25.55L30.7 25.7L29.45 26.1L29.2 26.2L29.1 26.3L31.85 27.55L33.9 28.6L34.2 28.8L34.6 27.85L35 27.2Q35.25 26.9 38.15 29.4L38.2 29.45L38.5 29.15L38.7 29.2L38.45 29.65Q41.05 32.05 40.95 35L40.95 35.25L41 35.25L40.95 35.25L40.75 38.7L40.4 41.15L42.5 40.65L42.55 40.55L44.85 37.45L45.2 36.9L45.7 35.7L45.8 33.85L45.3 32.95L44.55 31.9L43.75 31.05L43.1 30.8L42.75 30.65Q41.95 30.25 40.85 29.45L37.45 26.6L37.4 26.55L36.9 26.1L36.45 25.7L35.95 25.2L35.7 25L36.45 24.95L36.8 25.35L37.1 25.05L37.5 25.35L37.2 25.75L37.25 25.75L40 28.05L42.55 29.9Q43.35 30.5 43.85 30.55L45.1 30.05L45.95 29.9Q46.35 29.95 46.9 30.5L48.3 31.9L49.1 32.8L49.05 34.55L48.95 34.8L48.9 34.85L48.5 35.6L47.4 36.05L46.05 36.35L45.85 36.7L46.85 38.25L46.95 38.55L46.95 38.6L46.9 38.7L45.85 40.8L45.35 41.65L44.9 42.3L41.7 42.6L40.85 43.35L40.4 43.65L40.4 43.7Q39.55 45.2 37.35 45.45L33.3 45.6L33 45.6L33.3 45.1L33.5 44.75L35.05 44.75L34.95 44.55L34.4 43L34.65 42.45L34.7 42.35L35.15 41.85L35.2 41.7L35.35 40.5L35.15 40.15L34.65 39.25L34.6 39.15L35 39.05L35.45 39.75L35.6 40.15L35.65 40.3Q35.9 41.15 35.55 42.05L35.45 42.2L35.1 42.6L34.9 42.9L34.95 43Q35.15 43.9 35.75 44.8Q37.1 45 38.45 44.4L39 44.05L39.55 43.55L39.55 43.45L39.45 42.8L39.4 42.6L39.3 42.1L39.35 41.9L39.35 41.85L39.45 41.35L39.65 40.6L40 38.6L40.2 36.6L40.25 35.1L40.25 35.05L40.2 34.8Q40.05 32.5 38.8 31.1L37.95 30.25L37.6 29.9L35.45 28.25Q35.1 28.45 34.8 29.2L34.6 29.75L34.6 29.8L34.45 30.45L34.2 31.35L33.4 31L33.6 30.45L34 29.35L33.65 29.15L30.1 27.35L28.75 26.7L28.35 26.55L28 26.35L27.9 26.45Q27.6 26.8 27.65 27.25L27.65 27.35L28 28.05Q28.25 28.3 28.1 28.45L28 28.55L26.75 29.35L26.15 28.95L27.25 28.15L27.1 27.4L25.35 27.45L25.15 27.45L24.55 27.5L24.25 27.45L24.2 27.45L23.35 26.8L23.95 26.85L24.05 26.85L24.3 26.85L24.35 26.85L25.4 26.9L26.3 26.85L27 26.8L27.15 26.8L27.2 26.6L27.3 26.4L27.55 26.15L27.55 26.1L27.8 25.85L27.3 25.45L26.75 24.8L26.3 24.05L26.25 23.95L26.15 23.7L26.1 23.5L26 23.5L25.7 23.6L23.95 23.7Q23 23.6 22.45 23.05L22.4 23.25L22.2 23.95L22.15 24.05L22 24.45L21.7 25.05L22.1 25.4L23.15 26.6L22.1 25.65L22.05 25.55L21.25 24.75L21.3 24.65L21.45 24.2L21.5 24.15L21.6 23.8L21.75 23.3L21.95 22.35L21.95 21.75L21.8 21.75L22 21.7L22.2 21.65L22.5 21.6L22.55 22.4L22.95 22.95L25.65 23.1L26.05 22.85L26.05 22.8L26.1 22.65L26.4 21.75L26.55 20.75L26.55 20.7L25.5 19.6L26.05 19.15L26.7 19.95L27.1 20.7L26.7 22.35L26.6 22.65L26.55 23L26.6 23.45L26.65 23.55L26.7 23.6L26.7 23.65L27.6 24.9L27.85 25.15L27.9 25.2M6.65,25.5L6.45 25.5L6.5 25.35L6.65 25L8.35 23.25L8.05 22.9L7.2 21.7L7 21.3L6.7 20.05L6.85 19.4L6.9 19.25L7.05 18.85L7.35 18.2L8 17.35L7.95 17.2L8.3 17.85L7.85 18.65L7.75 18.85L7.75 18.9L7.3 19.95L7.25 20.05L7.15 20.35L7.3 20.6L7.85 21.7L8.1 22.05L8.75 22.85L9 22.75Q9.7 22.35 10.6 22.1Q11.45 21.85 10.7 22.4L10.5 22.55L10.2 22.75L9.55 23.2L9.05 23.6L6.95 25.4L6.95 25.6L6.65 25.5M11.35,9.75L11.15 9.9L11.2 9.65L11.35 9.75M25.8,3.4L26.1 3.05L26.15 3.05L26.5 2.75Q27.65 1.9 29.25 1.8L29.5 1.8Q30.85 2.05 31.9 2.75L32.65 3.4L32.1 3.8L30.55 2.75L30.45 2.75L28.6 2.55L28.05 2.75L27.1 3.25L26.75 3.45Q26.3 3.75 26.15 3.95L26.05 4.1L25.95 3.6L25.8 3.4M35.1,3.6L34.75 3.65L34.35 3.35L34.25 3.3L34.3 3.3L35 3.1L36.5 2.95L37.15 3.1L36.85 3.5L36.7 3.45L36.35 3.45L35.1 3.6M35.9,4.75L35.8 4.85L35.65 4.6L35.9 4.75M44.75,31.35L45.65 32.55L46.15 33.5L46.2 33.8L46.2 35.85L48.1 35.2L48.3 34.85L48.5 34.4L48.5 34.35Q48.75 33.7 48.6 32.95L47.4 31.7L46.4 30.75Q45.95 30.35 45.75 30.45L44.3 30.8L44.75 31.35M46.2,38.2L45.75 37.45L45.45 37.1L45.25 37.5L44.9 38.1L44.4 38.95L43.25 40.5L42.8 41L42.35 41.15L42.25 41.2L41.5 41.4L41.55 41.7L41.75 42.05L44.5 41.85L44.7 41.65L45.2 40.9L45.7 40.05L46.25 38.9L46.35 38.5L46.2 38.2M40.35,43.1L40.45 43L41.1 42.4L41 41.95L40.95 41.5L40.3 41.65L40.25 41.85L40.3 42.3L40.35 43.1M26.2,5.25L26.15 4.7L26.35 4.65L27.4 4.3L28.45 4.2L29.55 4.4Q30.15 4.55 31.1 5.05L30.8 5.5Q30.25 5.2 29.35 5L27.85 4.8L26.2 5.25M30.1,11.7L29.7 11.75L29.15 11.85L28.95 11.85L28.45 11.95L28.3 11.35L29 11.25L29.95 11.15L30.35 11.85L30.1 11.7M35.9,38.75L35.85 38.8L35.85 38.75L35.9 38.75M33.85,40.55L33.65 39.35L34.05 39.25L34.25 40.45L34.4 41.2L34.55 41.7L33.85 40.55" />
<path style="fill:#4A5762;fill-opacity:1" d="M36.35,3.45L36.7 3.45L36.85 3.5L36.75 3.6L36.35 3.45M44.3,30.8L45.25 31.05L47.65 32.75L48.2 33.75L48.5 34.35L48.5 34.4L48.3 34.85L48.1 35.2L46.2 35.85L46.2 33.8L46.15 33.5L45.65 32.55L44.75 31.35L44.3 30.8M44.85,37.45L42.55 40.55L42.5 40.65L40.4 41.15L40.75 38.7L40.95 35.25L41 35.25L40.95 35.25L40.95 35Q41.05 32.05 38.45 29.65L38.7 29.2L38.5 29.15L38.2 29.45L38.15 29.4Q35.25 26.9 35 27.2L34.6 27.85L34.2 28.8L33.9 28.6L31.85 27.55L29.1 26.3L29.2 26.2L29.45 26.1L30.7 25.7L31.15 25.55L31.2 25.5L32.4 25.35L33.2 25.35Q33.15 25.95 33.85 25.9L34.2 25.75L34.3 25.5L34.65 25.6L35.05 25.75L35.35 25.85L35.75 26.15L35.8 26.2L36.25 26.65L39.05 29L39.9 29.95L40.95 30.65L40.85 30.85L40.95 31.3L42 31.25L42.3 31.4L43.2 31.85L43.45 32.65L43.5 32.7L43.85 32.35L43.95 32.4Q44.45 32.55 44.35 33L44.3 33.05L43.6 33.05L43.85 33.5Q44.6 34.25 44.85 35.25L45.2 36.9L44.85 37.45M46.35,38.5L46.25 38.9L45.7 40.05L45.2 40.9L44.7 41.65L44.5 41.85L41.75 42.05L41.55 41.7L41.5 41.4L42.25 41.2L42.35 41.15L42.8 41L43.25 40.5L44.4 38.95L44.9 38.1L45.25 37.5L45.45 37.1L45.75 37.45L46.2 38.2L46.35 38.5M41,41.95L41.1 42.4L40.45 43L40.35 43.1L40.3 42.3L41 41.95M26.75,3.45L27.6 3.2L28.6 3.15L31.3 3.6L32.05 3.85L31.75 4.15L31.5 4.45L31.4 4.4Q30.9 4 30.15 3.85L28 3.75L26.15 3.95Q26.3 3.75 26.75 3.45M29.95,8.45L29.55 7.75L29.4 7.6L28.55 7.2L28 7.1L27.55 7.1L27.15 7.1L26.85 7.1L26.6 7.1L26.1 6.3L26.2 5.55L27.4 5.45L28 5.5L28.9 5.65L29.65 5.95L30 6.15L30.5 6.55L30.4 6.9L30.35 7.4L29.95 8.45M32.3,23.5Q31.7 23.75 31.7 23.95L31.4 24.3L30.6 24.7Q30 24.95 29.7 25.15L29.65 25.1L29.6 25.05L28.75 23.85L28.85 23.55L29.2 23.15Q29.15 23.05 28.95 23L28.8 22.8L28.8 22.65L29.25 22.55L29.25 22.35L29.05 22.15L29.05 22.1L29.15 21.5L29.15 21.15L29.1 20.95L29 20.95L28.75 20.95Q28 20.9 28.3 20.65L28.8 20.3L28.15 19.35L28.7 19.05L28.8 19L29.4 18.95L29.55 18.9L29.55 18.65L29.55 18.55L29.85 18.45L29.9 18.4L30.3 18.9L30.5 19L30.6 19.3L30.95 19.9L31 19.95L31.35 20.35Q31.35 21.05 32.1 21.8L32.3 22L32.45 22.2L32.5 22.3L32.85 23.1L32.3 23.5M27.85,25.15L28.1 24.65L28.45 24.95L28.4 25.15L27.9 25.2L27.85 25.15M26.55,20.7L26.55 20.75L26.4 21.75L26.1 22.65L26 22.65L25.95 22.65L25.65 22.65L25.65 22.25L25.55 21.65L25.1 20.3L25.05 20.25L24.85 20.05L25.5 19.6L26.55 20.7M26.3,24.05L26.75 24.8L27.3 25.45L27.8 25.85L27.55 26.1L27.55 26.15L27.3 26.4L27.1 26.4L25.95 26.2L25.4 26.05L25.25 26.1L24.45 26.05L24.55 25.9Q24.65 25.8 24.9 25.65L24.95 25.65L25.35 25.1L25.35 25.05L25.95 25.05L26.1 24.85L26.1 24.8L25.85 24.45L26.3 24.05M25.7,28.6L24.2 27.45L24.25 27.45L24.55 27.5L25.15 27.45L25.35 27.45L27.1 27.4L27.25 28.15L26.15 28.95L25.7 28.6M32.3,31.2L30.7 31.85Q30.05 31.75 29 31L26.75 29.35L28 28.55L28.1 28.45Q28.25 28.3 28 28.05L27.65 27.35L27.65 27.25L28.25 27.35L29.1 27.55L29.3 27.65L29.2 27.85L29.15 27.9L29.3 28.05L29.75 28.05L29.75 28.1L29.9 28.25L29.95 28.25L30.1 28.25L30.2 28.05L30.15 27.9L31.35 28.55L31.8 28.95L32.1 29.25L32.3 29.45Q32.25 29.85 32.65 30.2L33.6 30.45L33.4 31L32.3 31.2M35.3,38.95L35.85 38.75L35.85 38.8L35.9 38.75L36.75 38.4L37.25 37.4L37.3 37.35L37.4 37Q37.7 35.75 37.5 34.7L36.5 33.55L34.7 31.75L34.2 31.35L34.45 30.45L34.6 29.8L34.7 30.45L34.7 30.5L34.7 30.6L34.75 30.55L34.95 30.3L35.35 29.9L35.4 29.8L35.65 29.45L35.85 29.55L35.95 29.55L36.05 29.55L36.85 30.55L37.15 30.85L37.25 30.95L37.3 30.85L37.4 30.95Q37.8 31.25 37.65 31.5L37.8 31.6L39.25 33.85L39.5 34.4L39.65 34.85L39.75 35.1L39.95 37.15Q39.9 38.05 40 38.6L39.65 40.6L39.45 41.35L39.35 41.85L39.35 41.9L39.3 42.1L39.4 42.6L39.45 42.8L39.55 43.45L39.55 43.55L39 44.05L38.45 44.4Q37.1 45 35.75 44.8Q35.15 43.9 34.95 43L34.9 42.9L35.1 42.6L35.45 42.2L35.55 42.05Q35.9 41.15 35.65 40.3L35.6 40.15L35.45 39.75L35 39.05L35.3 38.95M34.4,43L34.95 44.55L33.8 44.2L34.4 43M28.25,23.05Q28.45 23.4 28.05 23.4Q26.75 23.5 28 22.85L28.25 23.05M36.95,24.95L37.1 25.05L36.8 25.35L36.45 24.95L36.95 24.95M31.05,29.75Q30.85 29.85 30.9 30.1L31.1 30.55L31.2 30.55L31.4 30.2L31.2 29.85L31.05 29.75M37.85,34.75L37.85 35.2L37.9 35.3Q38.25 35.35 38.4 35.05L38.35 34.95L38.05 34.6L37.9 34.55L37.85 34.75M33.85,40.55L33.3 39.8L33.55 39.35L33.65 39.35L33.85 40.55M36.95,43.95L36.85 43.95L36.85 44Q36.55 44.4 37 44.6L37.05 44.6Q37.45 44.3 37.15 44.05L36.95 43.95" />
<path style="fill:#38434D;fill-opacity:1" d="M36.35,3.45L36.75 3.6L36.45 3.95L35.9 4.75L35.65 4.6L34.75 3.65L35.1 3.6L36.35 3.45M40.3,42.3L40.25 41.85L40.3 41.65L40.95 41.5L41 41.95L40.3 42.3M29.55,4.4L28.45 4.2L27.4 4.3L26.35 4.65L26.15 4.7L26.05 4.15L26.05 4.1L26.15 3.95L28 3.75L30.15 3.85Q30.9 4 31.4 4.4L31.5 4.45L31.1 5.05Q30.15 4.55 29.55 4.4M29,11.25L28.65 11L28.15 10.75L28.1 10.5L28.1 10.4L27.8 9.55L26.8 7.4L26.6 7.1L26.85 7.1L27.15 7.1L27.55 7.1L28 7.1L28.55 7.2L29.4 7.6L29.55 7.75L29.95 8.45Q29.45 9.8 29.6 10.55L29.95 11.15L29 11.25M30.35,11.85L30.95 12.75L30.45 14.55L30.25 15.55L30.3 15.7L30.65 16L30.05 17.85Q29.9 18.15 29.9 18.4L29.85 18.45L29.55 18.55L29.55 18.65L29.55 18.9L29.4 18.95L28.8 19L28.7 19.05L28.15 19.35L28.8 20.3L28.3 20.65Q28 20.9 28.75 20.95L29 20.95L29.1 20.95L29.15 21.15L29.15 21.5L29.05 22.1L29.05 22.15L29.25 22.35L29.25 22.55L28.8 22.65L28.8 22.8L28.95 23Q29.15 23.05 29.2 23.15L28.85 23.55L28.75 23.85L29.6 25.05L29.65 25.1L29.7 25.15L30.05 25.35L29.15 25.6L29.1 25.6Q28.5 25.75 27.9 25.2L28.4 25.15L28.45 24.95L28.1 24.65L27.85 25.15L27.6 24.9L26.7 23.65L26.7 23.6L26.65 23.55L26.6 23.45L26.55 23L26.6 22.65L26.7 22.35L27.1 20.7L26.7 19.95L26.75 19.5L26.75 19.25L26.65 18.65L28.25 17.2L28.9 16.6L28.95 16.1L28.5 12.25L28.6 12.2L30 12L29.7 11.75L30.1 11.7L30.35 11.85M31.8,20.75L31.35 20.35L31 19.95L30.95 19.9L30.6 19.3L30.5 19L31.6 20.1L32.15 21.05L31.8 20.75M33.5,24.2L33.75 24.05L33.95 24.2L33.5 24.2M25.1,22.45L23.25 21.15L23.4 21.05L23.7 20.85L24.85 20.05L25.05 20.25L25.1 20.3L25.55 21.65L25.65 22.25L25.65 22.65L25.1 22.45M25.85,24.45L26.1 24.8L26.1 24.85L25.95 25.05L25.35 25.05L25.35 25.1L24.95 25.65L24.9 25.65Q24.65 25.8 24.55 25.9L24.45 26.05L25.25 26.1L25.4 26.05L25.95 26.2L27.1 26.4L27.3 26.4L27.2 26.6L27.15 26.8L27 26.8L26.3 26.85L25.4 26.9L24.35 26.85L24.3 26.85L24.05 26.85L24 26.8L23.35 26.15L23.25 26.05L23.05 25.7L22.45 24.9L22.05 24.5L22 24.45L22.15 24.05L22.2 23.95L22.4 23.25L22.45 23.05Q23 23.6 23.95 23.7L25.7 23.6L26 23.5L26.1 23.5L26.15 23.7L26.25 23.95L26.3 24.05L25.85 24.45M34.75,42.25L34.75 42.2L34.6 41.85L34.55 41.7L34.4 41.2L34.25 40.45L34.05 39.25L34.6 39.15L34.65 39.25L35.15 40.15L35.35 40.5L35.2 41.7L35.15 41.85L34.7 42.35L34.75 42.25M33.8,44.2L34.95 44.55L35.05 44.75L33.5 44.75L33.8 44.2M28,22.85Q26.75 23.5 28.05 23.4Q28.45 23.4 28.25 23.05L28 22.85M31.2,29.85L31.4 30.2L31.2 30.55L31.1 30.55L30.9 30.1Q30.85 29.85 31.05 29.75L31.2 29.85M37.9,34.55L38.05 34.6L38.35 34.95L38.4 35.05Q38.25 35.35 37.9 35.3L37.85 35.2L37.85 34.75L37.9 34.55M24.05,24.85L24.05 24.9Q23.45 25.65 24.2 25L24.25 25Q24.35 24.9 24.05 24.85M37.15,44.05Q37.45 44.3 37.05 44.6L37 44.6Q36.55 44.4 36.85 44L36.85 43.95L36.95 43.95L37.15 44.05" />
<path style="fill:#28323A;fill-opacity:1" d="M28.15,10.75L28.65 11L29 11.25L28.3 11.35L28.15 10.75M28.45,11.95L28.95 11.85L29.15 11.85L29.7 11.75L30 12L28.6 12.2L28.5 12.25L28.45 11.95M26.05,19.15L26.65 18.65L26.75 19.25L26.75 19.5L26.7 19.95L26.05 19.15M26.05,22.8L26.05 22.85L25.65 23.1L22.95 22.95L22.55 22.4L22.5 21.6L22.5 21.5L23.25 21.15L25.1 22.45L25.65 22.65L25.95 22.65L26 22.65L26.1 22.65L26.05 22.8M23.15,26.6L22.1 25.4L21.7 25.05L22 24.45L22.05 24.5L22.45 24.9L23.05 25.7L23.25 26.05L23.35 26.15L24 26.8L24.05 26.85L23.95 26.85L23.35 26.8L23.15 26.6" />
<path style="fill:#48545F;fill-opacity:1" d="M20.35,23.9L19.1 23.6L16.25 23.65L13.85 23.85Q13.5 23.95 12.5 24.6L11.5 25.55L11.35 25.7L10.3 27.05L10.1 27.25L7.3 25.8L6.95 25.6L6.95 25.4L9.05 23.6L9.55 23.2L10.2 22.75L10.5 22.55L10.7 22.4Q11.45 21.85 10.6 22.1Q9.7 22.35 9 22.75L8.75 22.85L8.1 22.05L7.85 21.7L7.3 20.6L7.15 20.35L7.25 20.05L7.3 20.1L7.95 20.75L8.1 20.9L8.2 21L8.45 20.5L8.7 20.15Q9.35 20.2 9 20.5L8.7 20.8L8.3 21.05L9.35 21.85L9.55 21.5L9.95 21.15L10.55 21.15L10.5 21.05L10.2 20.7L9.4 19.7L9.35 19.65L8.2 18.9L8.15 18.85L7.85 18.65L8.3 17.85L8.35 17.8L8.9 18.2L9.55 18.65L10 19L10.2 19.2L11.1 20.1L12.1 20.7L14.3 21.75Q15.55 22.3 16.8 22.5L18.15 22.55L19.95 22.2L20.25 22.1L21.5 21.8L21.55 21.8L21.75 21.8L21.8 21.75L21.95 21.75L21.95 22.35L21.75 23.3L21.6 23.8L21.5 24.15L21.45 24.2L21.3 24.65L21.25 24.75L20.35 23.9" />
<path style="fill:#65737B;fill-opacity:1" d="M31.35,20.35L31.8 20.75L32.15 21.05L32.45 22L32.5 22.3L32.45 22.2L32.3 22L32.1 21.8Q31.35 21.05 31.35 20.35M32.4,24.2L31.35 24.8Q30.85 24.95 30.45 25.2L30.05 25.35L29.7 25.15Q30 24.95 30.6 24.7L31.4 24.3L31.7 23.95Q31.7 23.75 32.3 23.5L32.85 23.1L33.25 23.6L32.4 24.2" />
<path style="fill:#6A7785;fill-opacity:1" d="M7.3,19.95L7.75 18.9L7.75 18.85L7.85 18.65L8.15 18.85L8.2 18.9L9.35 19.65L9.4 19.7L10.2 20.7L10.5 21.05L10.55 21.15L9.95 21.15L9.55 21.5L9.35 21.85L8.3 21.05L8.7 20.8L9 20.5Q9.35 20.2 8.7 20.15L8.45 20.5L8.2 21L8.1 20.9L7.95 20.75L7.3 20.1L7.25 20.05L7.3 19.95M10.1,27.25L10.3 27.05L10.15 27.25L10.1 27.25" />
<path style="fill:#3D4956;fill-opacity:1" d="M8.05,22.9L8.35 23.25L6.65 25L6.5 25.35L6.2 24.3Q5.45 21.3 5.65 20.3Q5.8 19.6 6.85 19.4L6.7 20.05L7 21.3L7.2 21.7L7.25 22.45L8.05 22.9M15.1,34.55L15.1 34.6L15 35.15L14.95 35.45L14.2 37L14 37.25L12.5 38.5L12.3 38.1L11.9 37.45L11.75 37.25L10.9 36L10.5 35.5L10.25 35.15L9.85 34.6L7.65 31.75L5.95 30.25Q5.25 29.75 4.35 29.55L4.1 28.9L4.05 28.25Q6.55 29.6 8.9 31.45L8.95 31.5L9.2 31.7L10.35 32.65L11.05 33.3L12.1 34.35Q11.45 34.45 11.5 35.3L11.55 35.35L12.9 35.4L13.05 35.65L13.25 36.05L13.3 36.1L14.5 34.95L15 34.5L15.15 34.3L15.1 34.55M11.6,38.75L12.25 39.8L12.7 40.4L12.65 41.05L12.55 40.95L12.25 40.95Q11.55 41.3 11.95 41.9L12 41.95L12.55 41.75L12.75 42.45Q12.95 43 14.2 43.5L16.15 44.2L16.2 44.4L12.25 44.3L10.7 44.4L10.7 44.35L9.35 43.2Q9.1 42.6 10 42.1Q10.85 41.55 10.75 41.1L9.7 37.55L10.3 36.25L10.65 36.8L11.15 37.6L11.25 37.75L11.6 38.75M19.7,46.75L17.4 44.75L17.35 44.55Q17.05 43.45 16.2 42.25L15.55 41.4L15.3 41.05L13.65 39.4L12.95 38.85L13.6 38.5L14.7 37.4L14.95 37.6L15.35 38.05L15.4 38.1L16.2 39.45L16.7 40.3L17.1 40.85Q16.7 41 16.7 41.5L16.7 41.6L16.75 41.65L16.8 41.7Q17.15 42.15 17.75 41.9L18.2 42.5Q19.15 43.65 20.3 43.95L20.35 44Q20.85 44.1 21.25 44.5L22 45.6L22.5 46.35L19.7 46.75M11.2,43.15L11.25 43.1Q11.3 42.7 11 42.55L10.9 42.6Q10.35 43.15 11.2 43.15M25.45,47.25L24.45 47.6L24.45 47.4Q24.45 47 24.1 47Q23.25 46.9 22.9 47.65L22.9 47.75L23.15 48.05L23 48L22.85 48.05Q22.8 48.5 23 48.75L22 48.7L20.3 48L19.65 47.55Q19.55 47.45 20 47.35L22.25 46.95L22.95 46.85L26.9 46.05L27 46.65L25.45 47.25" />
<path style="fill:#4A5662;fill-opacity:1" d="M19.95,36.95Q20.5 37.15 20.2 37.4L19.5 37.8Q18.75 38.2 19.2 37.55L19.75 36.9L19.95 36.95" />
<path style="fill:#76838C;fill-opacity:1" d="M13.65,41.65Q14.35 42.15 13.55 42.4Q13.4 42.45 13.35 42.3L13.25 41.95L13.25 41.85Q13.35 41.7 13.55 41.6L13.65 41.65" />
<path style="fill:#414D58;fill-opacity:1" d="M24.25,25L24.2 25Q23.45 25.65 24.05 24.9L24.05 24.85Q24.35 24.9 24.25 25" />
<path style="fill:#FFFFFF;fill-opacity:1" d="M40.2,14.8L40.4 15.2L40.2 15.6L39.9 15.75L39.5 15.6L39.35 15.2L39.5 14.8Q39.65 14.65 39.9 14.65Q40.1 14.65 40.2 14.8" />
</g>
</svg>
