<?xml version="1.0" encoding="utf-8"?>
<svg version="1.1" id="Layer_1"
xmlns="http://www.w3.org/2000/svg"
xmlns:xlink="http://www.w3.org/1999/xlink"
xmlns:author="http://www.sothink.com"
width="26px" height="8px"
xml:space="preserve">
<g id="989" transform="matrix(1, 0, 0, 1, 0, 0)">
<path style="fill:#0087FF;fill-opacity:1" d="M24.95,4.65Q22 7.25 12.65 7.3Q3.65 7.35 0.75 4.95Q0 4.35 0 3.8Q-0.05 2.9 1.55 2Q3.3 1.05 6.5 0.55L11.35 0.05L12.15 0L18 0.25Q21.55 0.65 23.65 1.6Q25.5 2.4 25.6 3.35Q25.7 4 24.95 4.65M12.15,0.35L7.85 0.75Q5.55 1.2 4.65 1.9Q3.45 2.8 5.25 3.65Q7.65 4.8 12.7 4.75Q17.85 4.7 20.2 3.5Q21.95 2.55 20.4 1.65Q19.25 0.95 16.7 0.6L12.15 0.35" />
</g>
</svg>
