<?xml version="1.0" encoding="utf-8"?>
<svg version="1.1" id="Layer_1"
xmlns="http://www.w3.org/2000/svg"
xmlns:xlink="http://www.w3.org/1999/xlink"
xmlns:author="http://www.sothink.com"
width="38px" height="45px"
xml:space="preserve">
<g id="501" transform="matrix(1, 0, 0, 1, 8.35, 4)">
<path style="fill:#FFDD9C;fill-opacity:1" d="M23.1,15.95L23.15 16.7L21.85 15.85L23.1 15.95" />
<path style="fill:#2A7EA3;fill-opacity:1" d="M20,14.55L20.35 15.2L20.5 15.8L20.2 16.25L19.65 16.4Q16.1 15.85 13.5 14.8L13.45 14.75Q10.95 13.6 8.85 11.8L8.85 11.75L6.75 9.25Q6.45 10.55 7 11.4L7.15 11.9L6.9 12.35L6.5 12.6L6.05 12.5Q4.15 11.7 2.4 8.6Q1.25 6.6 1 4.25Q0.75 5.2 0.85 5.95L0.65 6.4L0.25 6.65L-0.25 6.65L-0.65 6.3Q-2.05 3.75 -1.9 0.15L-3.15 3.1Q-5.05 9.55 -3.7 12.4L-3.6 12.95L-3.95 13.4L-4.5 13.55L-4.95 13.25L-5.95 11.9L-5.55 16.45L-4.55 20.8L-4.5 21.2Q-5.9 20.6 -6.05 20.25L-4.65 25.45L-4.3 26.15Q-1.45 31.95 2.7 35.05L5.4 36.75L7.25 37.7Q10.3 38.55 12.85 38.2Q15.7 37.8 19.35 35.8L22.95 33.2Q26 30.25 27.7 27.45L28.9 28.45Q27.05 31.5 24.85 33.9Q21.95 36.9 18.9 38.45Q15.9 39.95 11.95 40.2Q7.7 40.5 3.8 38Q1 36.1 -0.6 34.35L-4.1 29.8Q-5.8 27.15 -6.85 24L-8.1 19.55L-8.35 16.25L-6.9 17.75L-7.05 16.7Q-7.9 10.9 -7.1 8.5L-6.75 8.1L-6.3 7.95Q-6.05 7.95 -5.9 8.1L-5.75 8.25Q-5.5 5.8 -4.65 2.65L-4.6 2.6Q-3.25 -1.2 -1.2 -3.7L-0.8 -4L-0.25 -3.9L0.05 -3.55L0.1 -3Q-0.65 0.4 -0.15 3Q0.45 1.7 1.4 1.15L2 1.05L2.45 1.35L2.55 1.9Q2.25 5.15 3.75 7.9L5.05 9.8Q5.1 8.6 5.65 7.25Q5.75 6.9 6.05 6.85L6.55 6.75L7.05 7.1Q8.2 8.95 9.95 10.65L9.9 10.65Q11.8 12.35 14.15 13.35Q16 14.15 18.35 14.65Q18.1 13.9 18.1 13.15L18.3 12.7L18.7 12.4L19.3 12.5Q21.05 13.55 23.3 13.5Q23.15 14.25 23.15 15.1Q21.45 15.1 20 14.55" />
<path style="fill:#83D5EF;fill-opacity:1" d="M15.25,16.8Q12.85 15.95 11.9 15.3Q12.75 17.4 13.55 18.2L15.65 19.5Q13.1 19.75 11.4 19L8.45 17.35Q8.35 19.55 9.2 20.95Q7.45 20.55 5.8 19.4L2.8 16.8Q3.1 19.55 3.8 20.85Q2.25 20.7 0.15 18.5L-1.55 16.4Q-2.3 19.6 -0.95 23.25Q0.45 26.65 1.95 27.75Q-0.2 27.6 -1.95 27L-3.45 26.5L-3.45 26.4L-4.3 26.15L-4.65 25.45L-6.05 20.25Q-5.9 20.6 -4.5 21.2L-4.55 20.8L-5.55 16.45L-5.95 11.9L-4.95 13.25L-4.5 13.55L-3.95 13.4L-3.6 12.95L-3.7 12.4Q-5.05 9.55 -3.15 3.1L-1.9 0.15Q-2.05 3.75 -0.65 6.3L-0.25 6.65L0.25 6.65L0.65 6.4L0.85 5.95Q0.75 5.2 1 4.25Q1.25 6.6 2.4 8.6Q4.15 11.7 6.05 12.5L6.5 12.6L6.9 12.35L7.15 11.9L7 11.4Q6.45 10.55 6.75 9.25L8.85 11.75L8.85 11.8Q10.95 13.6 13.45 14.75L13.5 14.8Q16.1 15.85 19.65 16.4L20.2 16.25L20.5 15.8L20.35 15.2L20 14.55Q21.45 15.1 23.15 15.1L23.1 15.95L21.85 15.85L23.15 16.7L23.25 17.65Q19.45 18.25 15.25 16.8" />
<path style="fill:#A2F2FB;fill-opacity:1" d="M23.25,17.65L23.7 19.95L22 19.95L18.5 19.6Q18.95 19.7 19.35 19.95Q22.75 21.4 24.1 21.55Q23.55 21.65 22.75 22L16.65 21.7Q17.35 23.1 16.6 23.75L13.95 24.65Q12 25.2 8.5 22Q9.05 23.25 11.25 26L10.4 26.55Q10.15 26.25 9.35 26.55L9.35 26.65L9.35 26.85L9.4 26.85L9.5 26.85Q7.35 27.2 4.2 24.15Q6.8 30.2 12.1 31Q10.4 28.75 12.15 26.85Q15.3 28.05 18.1 26.55Q16.3 26.05 17.05 25.05Q19 23.85 23.3 23.8L21.95 25.1L20.4 26.55L18.55 27.25L18.5 27.35L18.35 27.35L18.4 27.55L19.1 27.6L18.75 27.9Q17.3 29 16.4 29.05L14.8 31.05L14.25 31.35L12.4 31.85Q12.2 32.05 12.5 32.15L12.75 32.25Q9.9 33.55 7.2 32.7Q3.55 31.45 2.05 30.6Q2.4 32.7 6.3 36.85L7.25 37.7L5.4 36.75L2.7 35.05Q-1.45 31.95 -4.3 26.15L-3.45 26.4L-3.45 26.5L-1.95 27Q-0.2 27.6 1.95 27.75Q0.45 26.65 -0.95 23.25Q-2.3 19.6 -1.55 16.4L0.15 18.5Q2.25 20.7 3.8 20.85Q3.1 19.55 2.8 16.8L5.8 19.4Q7.45 20.55 9.2 20.95Q8.35 19.55 8.45 17.35L11.4 19Q13.1 19.75 15.65 19.5L13.55 18.2Q12.75 17.4 11.9 15.3Q12.85 15.95 15.25 16.8Q19.45 18.25 23.25 17.65M1.1,21.65Q1.35 21.4 0.9 21.35L0.8 21.35L0.7 21.5Q0.95 23.05 2 24.1L2.15 24.2Q2.2 22.55 1.1 21.65M4.9,21.55Q4.8 22.85 6.15 23.1L6.05 22.9Q5.8 22.15 5.2 21.5L5.15 21.45L4.9 21.5L4.9 21.55M14.65,22.1L13.1 21.6L10.95 20.2Q10.75 21.35 12.05 22Q13.55 22.8 15.15 22.4L15 22.15L14.65 22.1M0.85,30.25Q0.6 29.3 -0.15 29.05L-0.25 29.1Q-0.3 30.45 0.85 30.3L0.85 30.25" />
<path style="fill:#FFFFFF;fill-opacity:1" d="M6.3,36.85Q2.4 32.7 2.05 30.6Q3.55 31.45 7.2 32.7Q9.9 33.55 12.75 32.25L12.5 32.15Q12.2 32.05 12.4 31.85L14.25 31.35L14.8 31.05L16.4 29.05Q17.3 29 18.75 27.9L19.1 27.6L18.4 27.55L18.35 27.35L18.5 27.35L18.55 27.25L20.4 26.55L21.95 25.1L23.3 23.8Q19 23.85 17.05 25.05Q16.3 26.05 18.1 26.55Q15.3 28.05 12.15 26.85Q10.4 28.75 12.1 31Q6.8 30.2 4.2 24.15Q7.35 27.2 9.5 26.85L9.4 26.85L9.35 26.85L9.35 26.65L9.35 26.55Q10.15 26.25 10.4 26.55L11.25 26Q9.05 23.25 8.5 22Q12 25.2 13.95 24.65L16.6 23.75Q17.35 23.1 16.65 21.7L22.75 22Q23.55 21.65 24.1 21.55Q22.75 21.4 19.35 19.95Q18.95 19.7 18.5 19.6L22 19.95L23.7 19.95L24.6 22.65Q25.75 25.6 27.7 27.45Q26 30.25 22.95 33.2L19.35 35.8Q15.7 37.8 12.85 38.2Q10.3 38.55 7.25 37.7L6.3 36.85M2.15,24.2L2 24.1Q0.95 23.05 0.7 21.5L0.8 21.35L0.9 21.35Q1.35 21.4 1.1 21.65Q2.2 22.55 2.15 24.2M4.9,21.5L5.15 21.45L5.2 21.5Q5.8 22.15 6.05 22.9L6.15 23.1Q4.8 22.85 4.9 21.55L4.9 21.5M15,22.15L15.15 22.4Q13.55 22.8 12.05 22Q10.75 21.35 10.95 20.2L13.1 21.6L14.65 22.1L15 22.15M0.85,30.3Q-0.3 30.45 -0.25 29.1L-0.15 29.05Q0.6 29.3 0.85 30.25L0.85 30.3" />
</g>
</svg>
