<?xml version="1.0" encoding="utf-8"?>
<svg version="1.1" id="Layer_1"
xmlns="http://www.w3.org/2000/svg"
xmlns:xlink="http://www.w3.org/1999/xlink"
xmlns:author="http://www.sothink.com"
width="31px" height="11px"
xml:space="preserve">
<g id="1152" transform="matrix(1, 0, 0, 1, 0, 0.05)">
<path style="fill:#524A47;fill-opacity:1" d="M22.6,3.35L24.25 3.4L26.3 3.55L27.75 3.7Q28.3 3.7 29 2.9L29.25 2.65L29.35 2.85Q29.3 3.5 28.6 4.1L28.5 4.2L27.55 4.75L26.35 4.35L25.3 4.25L23.65 4.35L23.2 4.4L22 4.7L21.9 4.4L21.85 4.15L21.85 4.1L21.9 3.3L22.6 3.35" />
<path style="fill:#3A3534;fill-opacity:1" d="M27.05,2.2L25.3 2.25L24.45 2.3L22.5 2.25Q22.05 2.75 21.95 3.2L21.9 3.3L21.85 4.1L21.85 4.15L21.9 4.4L22 4.7L23.2 4.4L23.65 4.35L25.3 4.25L26.35 4.35L27.55 4.75L28.5 4.2L28.6 4.1Q29.3 3.5 29.35 2.85L29.25 2.65Q28.75 2.05 27.05 2.2M21.1,5.3L21.05 4.85L21 4.4L21 4.3L21.05 3.7L21.1 3.2L21.15 2.65L21.35 2.35L21.65 1.8L21.7 1.75L22.75 1.5L24.05 1.55L26.8 1.45L27.35 1.4Q28.95 1.3 29.65 1.8L30.15 2.45Q30.45 3.45 29.8 4.35L29.45 4.7Q28.35 5.7 27.3 5.7L22.9 5.45L21.6 5.75L21.5 5.75Q21.15 5.65 21.1 5.3" />
<path style="fill:#7E7470;fill-opacity:1" d="M29.25,2.65L29 2.9Q28.3 3.7 27.75 3.7L26.3 3.55L24.25 3.4L22.6 3.35L21.9 3.3L21.95 3.2Q22.05 2.75 22.5 2.25L24.45 2.3L25.3 2.25L27.05 2.2Q28.75 2.05 29.25 2.65" />
<path style="fill:#4A4D4F;fill-opacity:1" d="M2.45,6.55L0.35 7.6Q1.05 6.4 1.9 5.45Q2.95 4.25 4.8 2.8Q6.65 1.35 8.35 0.85Q9.8 0.35 11.7 0.15L12 0.1L12.4 0.05L13.1 -0.05L12.9 0.75Q12.9 1.5 13.45 2.05Q14 2.6 14.75 2.6Q15.5 2.6 16 2.05Q16.55 1.5 16.55 0.75L16.55 0.6L16.55 0.45L16.5 0.1L17.65 0.3L17.85 0.35L18.25 0.45L19.35 0.8Q20.85 1.25 21.7 1.75L21.65 1.8L21.35 2.35L21.15 2.65L20.75 2.4L20.5 2.25L17.8 1.55L17.5 2.3L16.95 3Q16 3.95 14.75 3.95Q13.45 3.95 12.5 3L11.9 2.2L11.65 1.35L11.6 1.4Q7.45 2 5.15 4L4.55 4.5L2.45 6.55" />
<path style="fill:#AEAEAE;fill-opacity:1" d="M17.5,2.3L17.8 1.55L20.5 2.25L20.75 2.4L19.5 2.65L19.05 2.75L17.5 2.3M9.6,6.1L9.4 6.6Q7.65 5.85 5.8 5.8L6 5.2L6.6 4.4L6.55 4.4L6.2 4.4L4.55 4.5L5.15 4Q7.45 2 11.6 1.4L11.65 1.35L11.9 2.2Q9.45 2.65 7 4.1L6.6 4.4L9.15 4.7L10.1 4.9L9.6 6.1M14.9,9.4L14.7 9.55L14.6 9.4L12.4 8.35L11.4 7.65L11.5 7L11.8 5.35Q13.3 5.85 13.85 6.2L14.9 9.4" />
<path style="fill:#787E7E;fill-opacity:1" d="M20.65,4.4Q18.9 4.9 17.25 6.05L15.35 7.75Q14.95 6.8 14.2 6Q14.75 5 15.8 4.25Q17.05 3.3 19.05 2.75L19.5 2.65L20.75 2.4L21.15 2.65L21.1 3.2L21.05 3.7L21 4.3L20.65 4.4" />
<path style="fill:#97A2AC;fill-opacity:1" d="M19.75,5.45Q18 6.35 16.8 7.5L14.9 9.4L13.85 6.2L14 6.3L14.2 6Q14.95 6.8 15.35 7.75L17.25 6.05Q18.9 4.9 20.65 4.4L21 4.3L21 4.4L21.05 4.85L19.75 5.45" />
<path style="fill:#717575;fill-opacity:1" d="M19.05,2.75Q17.05 3.3 15.8 4.25Q14.75 5 14.2 6L14 6.3L13.85 6.2Q13.3 5.85 11.8 5.35L11.5 5.25L10.1 4.9L9.15 4.7L6.6 4.4L7 4.1Q9.45 2.65 11.9 2.2L12.5 3Q13.45 3.95 14.75 3.95Q16 3.95 16.95 3L17.5 2.3L19.05 2.75" />
<path style="fill:#D4DBDE;fill-opacity:1" d="M4.55,4.5L6.2 4.4L6.55 4.4L6.6 4.4L6 5.2L5.8 5.8Q7.65 5.85 9.4 6.6L9.6 6.1L10.1 4.9L11.5 5.25L11.8 5.35L11.5 7L11.4 7.65L12.4 8.35L11.35 7.95L9.9 7.5L9.15 7.35L6 7L3.75 7L1.9 7.2L2.45 6.55L4.55 4.5" />
<path style="fill:#333638;fill-opacity:1" d="M21.05,4.85L21.1 5.3Q21.15 5.65 21.5 5.75Q20.5 6.15 19.55 6.8Q17.75 7.9 16.9 8.95L15.25 10.3L15.05 10.35L14.8 10.4L13.8 10.2Q12.6 9.4 11.2 9L10.05 8.7L8.35 8.4L4.8 8.05L0 8.2L0.35 7.6L2.45 6.55L1.9 7.2L3.75 7L6 7L9.15 7.35L9.9 7.5L11.35 7.95L12.4 8.35L14.6 9.4L14.7 9.55L14.9 9.4L16.8 7.5Q18 6.35 19.75 5.45L21.05 4.85" />
</g>
</svg>
