<?xml version="1.0" encoding="utf-8"?>
<svg version="1.1" id="Layer_1"
xmlns="http://www.w3.org/2000/svg"
xmlns:xlink="http://www.w3.org/1999/xlink"
xmlns:author="http://www.sothink.com"
width="7px" height="10px"
xml:space="preserve">
<g id="282" transform="matrix(1, 0, 0, 1, -1.1, 1.15)">
<path style="fill:#312609;fill-opacity:1" d="M2.7,0.6Q2.2 1.2 2.15 2.1L2.1 3.85L2.25 4.9Q2.4 5.55 3.2 6.5L3.8 6.85L5.4 6.7Q6.2 6.3 6.6 5.3L6.95 3.75L6.95 3.65Q7.15 1.55 5.95 0.4Q5.05 -0.4 4.2 -0.25L3.5 -0.05L3.15 0.2L2.7 0.6M4.15,-1.15Q5.25 -1.2 6.35 -0.6Q7.3 0 7.7 1.5L7.95 2.85L7.75 4.75Q7.35 6.5 6.35 7.25Q5.25 8.1 4 7.8Q3.5 7.8 3.1 7.5L2 6.65Q1.25 5.6 1.1 3.6Q0.95 1.8 1.75 0.5L1.8 0.4L1.9 0.25Q2.65 -0.65 3.4 -1L4.15 -1.15" />
<path style="fill:#644F12;fill-opacity:1" d="M2.7,0.6L3.15 0.2L3.75 0.55L4.25 1.1L4.5 1L4.75 0.9L5.9 1.55Q6.8 2.35 6.95 3.65Q6.1 4.25 5.35 4.25L4.8 4.2Q3.95 4 3.4 3.25Q2.7 2.3 2.7 0.9L2.7 0.6" />
<path style="fill:#4F3D08;fill-opacity:1" d="M2.7,0.9Q2.7 2.3 3.4 3.25Q3.95 4 4.8 4.2L5.35 4.25Q6.1 4.25 6.95 3.65L6.95 3.75L6.6 5.3Q6.2 6.3 5.4 6.7L3.8 6.85L3.2 6.5Q2.4 5.55 2.25 4.9L2.1 3.85L2.15 2.1Q2.2 1.2 2.7 0.6L2.7 0.9" />
<path style="fill:#94722A;fill-opacity:1" d="M5.9,1.55L4.75 0.9L4.5 1L4.25 1.1L3.75 0.55L3.15 0.2L3.5 -0.05L4.2 -0.25Q5.05 -0.4 5.95 0.4Q7.15 1.55 6.95 3.65Q6.8 2.35 5.9 1.55" />
</g>
</svg>
