<?xml version="1.0" encoding="utf-8"?>
<svg version="1.1" id="Layer_1"
xmlns="http://www.w3.org/2000/svg"
xmlns:xlink="http://www.w3.org/1999/xlink"
xmlns:author="http://www.sothink.com"
width="17px" height="12px"
xml:space="preserve">
<g id="339" transform="matrix(1, 0, 0, 1, 0.95, 1.25)">
<path style="fill:#94722A;fill-opacity:1" d="M10.65,2.9L10.9 2.7L11.05 2.65Q11.3 2.65 11.45 2.9L11.55 3.35L11.55 3.4L11.2 3.65Q10.8 3.7 10.55 3.4L10.55 3.35L10.55 3.25L10.55 3.15L10.55 3L10.65 2.9M5.75,4.4L5.85 4.3L6.1 4.2L6.3 4.35L6.45 4.6L6.4 4.7L6.15 4.9Q5.75 4.95 5.7 4.55L5.7 4.5L5.75 4.4M3.7,1.95L4.05 2.2L4.1 2.35L3.95 2.6Q3.45 2.9 3.05 2.6L2.95 2.55L2.95 2.4L3 2.2Q3.2 1.95 3.45 1.9L3.7 1.95M3.4,4.5L3.25 5.1L3.15 5.15L3.1 5.15L3 5.15L2.7 5.05L2.6 4.75L2.8 4.25L3.05 4.15Q3.4 4.15 3.4 4.5" />
<path style="fill:#4D3212;fill-opacity:1" d="M11.3,-0.6Q13.4 0.2 14.5 1.7L14.6 1.85L14.85 2.2L15.05 2.95Q15.3 3.9 14.8 5.1Q13.85 7 12.35 8.3Q10.8 9.5 9.1 10.1L4.2 9.9Q1.1 9.1 0.05 7.9Q-1.1 6.65 -0.95 5.55L-0.85 4.95L-0.8 4.65Q0.25 -0.15 5.7 -1.15L5.9 -1.15Q9.1 -1.55 11.3 -0.6M0.55,4.55L0.5 5.6L0.55 6.25Q0.75 6.8 1.65 7.4Q2.4 8 3.65 8.45L6.95 9.1Q9.1 9.3 11.35 7.6Q13.6 5.95 13.85 4.15L13.9 3.5Q13.85 2.65 13.4 1.9L12.95 1.45L12.25 0.85Q10.25 -0.6 5.85 -0.05Q1.35 1.35 0.6 4.1L0.55 4.55" />
<path style="fill:#745416;fill-opacity:1" d="M0.5,5.6Q2.75 7.05 4.65 7.2Q4.7 6.95 4.9 6.8L5.1 6.7Q5.6 6.8 5.55 7.2L6.45 7.1L6.45 6.95Q5.75 6.8 5.25 6.25L7.4 6.4L9.3 6.25L9.4 6.5Q9.65 6.85 10.05 6.75L10.2 6.45L10.2 6Q12 5.4 13.4 4.05L13.9 3.5L13.85 4.15Q13.6 5.95 11.35 7.6Q9.1 9.3 6.95 9.1L3.65 8.45Q2.4 8 1.65 7.4Q0.75 6.8 0.55 6.25L0.5 5.6M12.65,2.5L13.05 2.75L12.95 3.15L12.85 3.25Q12.4 3.35 12.3 2.95Q12.2 2.65 12.5 2.55L12.65 2.5M9,4.4L8.75 4.55Q8.35 4.65 8.3 4.25L8.3 4.2L8.3 4.1L8.45 3.95L8.65 3.9L8.65 3.85L8.9 4.05L9 4.3L9 4.4M8.45,8.05L8.45 8L8.3 7.85L8.15 7.8L7.95 7.85L7.85 7.9L7.75 7.95L7.75 8.05L7.7 8.25L7.7 8.4L7.75 8.5Q8.15 8.8 8.45 8.35L8.45 8.05" />
<path style="fill:#9A7226;fill-opacity:1" d="M13.4,4.05Q12 5.4 10.2 6L10.2 6.45L10.05 6.75Q9.65 6.85 9.4 6.5L9.3 6.25L7.4 6.4L5.25 6.25Q5.75 6.8 6.45 6.95L6.45 7.1L5.55 7.2Q5.6 6.8 5.1 6.7L4.9 6.8Q4.7 6.95 4.65 7.2Q2.75 7.05 0.5 5.6L0.55 4.55Q2.05 3 4.35 2.75L5.8 2.65L5.1 2.2L4.35 1.9L5.05 1.85L7.05 1.6L7.35 1.6L7.5 1.85L8.45 1.95L8.5 1.8L8.5 1.75L8.8 1.8L8.9 1.75L8.5 1.5L8.3 1.15L8.1 0.95L8.2 0.95L12.95 1.45L13.4 1.9Q13.85 2.65 13.9 3.5L13.4 4.05M12.5,2.55Q12.2 2.65 12.3 2.95Q12.4 3.35 12.85 3.25L12.95 3.15L13.05 2.75L12.65 2.5L12.5 2.55M10.55,3L10.55 3.15L10.55 3.25L10.55 3.35L10.55 3.4Q10.8 3.7 11.2 3.65L11.55 3.4L11.55 3.35L11.45 2.9Q11.3 2.65 11.05 2.65L10.9 2.7L10.65 2.9L10.55 3M5.7,4.5L5.7 4.55Q5.75 4.95 6.15 4.9L6.4 4.7L6.45 4.6L6.3 4.35L6.1 4.2L5.85 4.3L5.75 4.4L5.7 4.5M9,4.3L8.9 4.05L8.65 3.85L8.65 3.9L8.45 3.95L8.3 4.1L8.3 4.2L8.3 4.25Q8.35 4.65 8.75 4.55L9 4.4L9 4.3M3.05,4.15L2.8 4.25L2.6 4.75L2.7 5.05L3 5.15L3.1 5.15L3.15 5.15L3.25 5.1L3.4 4.5Q3.4 4.15 3.05 4.15M8.45,8.35Q8.15 8.8 7.75 8.5L7.7 8.4L7.7 8.25L7.75 8.05L7.75 7.95L7.85 7.9L7.95 7.85L8.15 7.8L8.3 7.85L8.45 8L8.45 8.05L8.45 8.35" />
<path style="fill:#B49148;fill-opacity:1" d="M0.6,4.1Q1.35 1.35 5.85 -0.05Q10.25 -0.6 12.25 0.85L12.95 1.45L8.2 0.95L8.1 0.95L8.3 1.15L8.5 1.5L8.9 1.75L8.8 1.8L8.5 1.75L8.5 1.8L8.45 1.95L7.5 1.85L7.35 1.6L7.05 1.6L5.05 1.85L4.35 1.9L5.1 2.2L5.8 2.65L4.35 2.75Q2.05 3 0.55 4.55L0.6 4.1M3.45,1.9Q3.2 1.95 3 2.2L2.95 2.4L2.95 2.55L3.05 2.6Q3.45 2.9 3.95 2.6L4.1 2.35L4.05 2.2L3.7 1.95L3.45 1.9" />
</g>
</svg>
