<?xml version="1.0" encoding="utf-8"?>
<svg version="1.1" id="Layer_1"
xmlns="http://www.w3.org/2000/svg"
xmlns:xlink="http://www.w3.org/1999/xlink"
xmlns:author="http://www.sothink.com"
width="27px" height="29px"
xml:space="preserve">
<g id="113" transform="matrix(1, 0, 0, 1, 0, 0)">
<path style="fill:#424242;fill-opacity:1" d="M2.55,6.1L2.6 8.3L2.65 8.95L2.7 9Q3.2 10.05 5.2 10.05L9.45 10.65Q10.5 10.9 11.55 11.95L11.75 12.15L12.1 12.55L13.05 14.1L13.1 14.2L13.6 15.9L13.8 17.5L13.95 21.05Q13.95 22.45 15.2 22.75L15.75 22.8L16.85 22.8L20.35 22.8L21.65 22.65Q23.05 22.2 23.25 20.6L23.25 20.25L23.35 13.8L23.35 12.2L23.35 11.25L23.3 8.35Q23.2 5.95 22.9 4.9L22.7 4.35Q22.1 3.1 20.2 2.85L20 2.8L3.3 2.6Q2.7 2.7 2.6 4.5Q2.5 5.15 2.55 6.1M17.65,25.45L16.85 25.45L11.85 24.9Q11.35 24.45 11.35 22.6L11.35 21.3Q11.55 18.3 10.45 15.55Q9.95 14.3 8.8 13.6Q7.25 12.65 4.5 12.65Q1.7 12.6 0.65 11L0.5 10.65Q0 9.7 0 8.35L0 8.3L0 7.85L0.2 1.95Q0.45 -0.1 5.55 0L14.7 0.05Q18.75 0 22.1 0.2Q25.5 0.35 25.85 4.3L26.2 11.6L26.2 12.65L26.2 14.25L26.1 20.5L26 22.25L25.85 23.25Q25.45 24.35 24.3 24.8L22.65 25.2L21.65 25.3L17.65 25.45" />
<path style="fill:#FFFFFF;fill-opacity:1" d="M21,6.15L18.3 8.9L17.55 9.65L15.95 11.25L15.05 10.9L14.4 11.4L14.3 11.25L13.35 10.35L15.15 8.3L17 6.2L18.4 4.7Q15.8 3.8 10.9 3.8L5.8 3.9Q3.9 4 2.6 4.5Q2.7 2.7 3.3 2.6L20 2.8L20.2 2.85Q22.1 3.1 22.7 4.35L22.9 4.9Q23.2 5.95 23.3 8.35L21 6.15" />
<path style="fill:#E9E9E9;fill-opacity:1" d="M23,13.1Q22.65 12.45 22.4 11.15L22.3 10.55L21.7 8.2L21.65 8.15L21.15 8.15L20.7 8L19.3 8.95L18.3 8.9L21 6.15L23.3 8.35L23.35 11.25L23.35 12.2L23.35 13.8L23 13.1M2.55,6.1Q2.5 5.15 2.6 4.5Q3.9 4 5.8 3.9L10.9 3.8Q15.8 3.8 18.4 4.7L17 6.2L16.25 6.25L14.5 6.2L9.95 5.7L9.85 5.75L4.55 6.05L2.55 6.1" />
<path style="fill:#AEAEB0;fill-opacity:1" d="M21.65,20.6L19.2 20.55L18.75 20.5Q21.75 19.3 17.5 18.35L16.85 18.75L16.75 18.9L16.6 16.85L15.6 16.7Q14.65 16.55 15.2 15.55Q15.55 14.95 16.2 14.75L15.65 13.35L16.85 13Q18.15 12.45 16.65 11.6L15.95 11.25L17.55 9.65L18.3 8.9L19.3 8.95L20.7 8L21.15 8.15L21.65 8.15L21.7 8.2L22.3 10.55L22.4 11.15Q22.65 12.45 23 13.1L23.35 13.8L23.25 20.25L23.25 20.6L21.65 20.6M4.55,6.05L9.85 5.75L9.95 5.7L14.5 6.2L16.25 6.25L17 6.2L15.15 8.3L13.35 10.35Q12.3 9.45 10.9 9L8.35 8.55Q8.25 8.15 6.55 7.25Q6 7.35 5.7 7.9Q5.25 8.65 5.85 8.7L6 8.75L4.6 8.85Q3.4 8.85 2.6 8.3L2.55 6.1L4.55 6.05M21.65,15.55Q21.25 15.15 20.1 14.55L19.3 15Q18.65 15.85 19.5 16L21.65 16.15Q22.2 16 21.65 15.55M16.5,21.25Q16.5 20.6 16.85 20.3Q17.2 19.9 18 19.95Q20.25 21.95 16.85 21.35L16.55 21.3L16.5 21.25" />
<path style="fill:#8B8B8C;fill-opacity:1" d="M13.35,10.35L14.3 11.25L14.4 11.4L15.05 10.9L15.95 11.25L16.65 11.6Q18.15 12.45 16.85 13L15.65 13.35L16.2 14.75Q15.55 14.95 15.2 15.55Q14.65 16.55 15.6 16.7L16.6 16.85L16.75 18.9L16.85 18.75L17.5 18.35Q21.75 19.3 18.75 20.5L19.2 20.55L21.65 20.6L23.25 20.6Q23.05 22.2 21.65 22.65L20.35 22.8L16.85 22.8L15.75 22.8L15.2 22.75Q13.95 22.45 13.95 21.05L13.8 17.5L13.6 15.9L13.1 14.2L13.05 14.1L12.1 12.55L11.75 12.15L11.55 11.95Q10.5 10.9 9.45 10.65L5.2 10.05Q3.2 10.05 2.7 9L2.65 8.95L2.6 8.3Q3.4 8.85 4.6 8.85L6 8.75L5.85 8.7Q5.25 8.65 5.7 7.9Q6 7.35 6.55 7.25Q8.25 8.15 8.35 8.55L10.9 9Q12.3 9.45 13.35 10.35M21.65,16.15L19.5 16Q18.65 15.85 19.3 15L20.1 14.55Q21.25 15.15 21.65 15.55Q22.2 16 21.65 16.15M16.55,21.3L16.85 21.35Q20.25 21.95 18 19.95Q17.2 19.9 16.85 20.3Q16.5 20.6 16.5 21.25L16.55 21.3" />
<path style="fill:#2E1702;fill-opacity:0.501961" d="M0.5,10.65L0.65 11Q1.7 12.6 4.5 12.65Q7.25 12.65 8.8 13.6Q9.95 14.3 10.45 15.55Q11.55 18.3 11.35 21.3L11.35 22.6Q11.35 24.45 11.85 24.9L16.85 25.45L17.65 25.45L21.65 25.3L21.65 28.05L21.2 28.1L17.45 27.9L16.85 27.85L11.9 27.2Q10 27 9.1 26.35Q8.4 25.85 8.15 25Q7.95 24.3 8.05 23.35Q8.25 21.8 7.65 19.6Q7.1 17.5 6.2 16.25Q5.7 15.6 3.5 15.4Q1.35 15.15 0.65 14L0.5 10.65" />
</g>
</svg>
