<?xml version="1.0" encoding="utf-8"?>
<svg version="1.1" id="Layer_1"
xmlns="http://www.w3.org/2000/svg"
xmlns:xlink="http://www.w3.org/1999/xlink"
xmlns:author="http://www.sothink.com"
width="39px" height="55px"
xml:space="preserve">
<g id="101" transform="matrix(1, 0, 0, 1, 0, 0)">
<path style="fill:#F68C1B;fill-opacity:1" d="M31.8,16.4L33.5 18.55L32.05 20.7Q30.85 22.2 29.9 22.65L29.95 22.65Q28.5 23.15 27.7 22.15Q29.75 21.05 31.8 16.4" />
<path style="fill:#FFE101;fill-opacity:1" d="M32.6,14.35L32.55 14.3Q29.35 11.2 26.7 10.25Q26.25 10.2 27.2 8.05L28.2 5.9Q29.4 5.75 30.6 6.55Q33.15 7.55 34.1 9.55L34.1 9.6L32.6 14.35" />
<path style="fill:#FFFDC8;fill-opacity:1" d="M32.05,15.7L31.8 16.4Q28.65 13.1 24.3 12.5Q19.95 11.9 17.35 13.05Q14.7 14.2 12.8 16.25Q11 18.15 10.1 21.05Q9.95 19.1 10.95 16.75Q13 12.05 18.7 10Q19 9.65 19.35 4.9Q17.35 4.95 14.45 6.2Q10.5 7.9 7.1 11.25L8.55 9.45Q10.9 6.75 13.75 5.1Q16.55 3.4 20.7 2.85L27.65 3.25Q30.45 4.25 31.55 5.05L34 7.2Q35.3 8.55 36 10.65L36.2 11.4Q35.4 10.35 34.25 9.65L34.1 9.6L34.1 9.55Q33.15 7.55 30.6 6.55Q29.4 5.75 28.2 5.9L27.2 8.05Q26.25 10.2 26.7 10.25Q29.35 11.2 32.55 14.3L32.6 14.35L32.05 15.7" />
<path style="fill:#FEFF74;fill-opacity:1" d="M34.95,15.95L34.65 16.55L33.5 18.55L31.8 16.4L32.05 15.7L32.6 14.35L34.1 9.6L34.25 9.65Q35.4 10.35 36.2 11.4Q36.4 13.25 34.95 15.95" />
<path style="fill:#FFEF14;fill-opacity:1" d="M32.6,33Q32.4 30.4 28.85 27.95L27.45 27.15L28.6 27.1L34.65 27Q35.95 27.4 36.1 29.25L36.1 30.2L32.6 33" />
<path style="fill:#FCF853;fill-opacity:1" d="M34.15,37.95L36.1 36.5L36.1 45.65Q36.1 48.3 33.45 50.05L33.4 50.05L33.2 50.15L33.45 49.3L33.9 47.25L33.95 46.9Q34.45 43.3 34.15 37.95" />
<linearGradient
id="LinearGradID_91" gradientUnits="userSpaceOnUse" gradientTransform="matrix(-0.00183105, -0.0043335, 0.00709534, -0.00299072, 30.3, 32.65)" spreadMethod ="pad" x1="-819.2" y1="0" x2="819.2" y2="0" >
<stop  offset="0" style="stop-color:#FEFED8;stop-opacity:1" />
<stop  offset="1" style="stop-color:#FFFD68;stop-opacity:1" />
</linearGradient>
<path style="fill:url(#LinearGradID_91) " d="M34.15,37.95L31.85 39.65Q30.85 40.6 29.15 41L27.4 41.3L27.1 41.3L27.25 41.25L28.1 40.95Q29.85 40.05 30.2 38.25L30.35 33L30.35 31.75Q29.85 30.5 28.7 29.4L27.4 28.35Q26.4 27.7 25.25 27.6Q25.85 27.25 27.4 27.15L27.45 27.15L28.85 27.95Q32.4 30.4 32.6 33L36.1 30.2L36.1 36.5L34.15 37.95" />
<path style="fill:#F58F18;fill-opacity:1" d="M27.4,28.35L28.7 29.4Q29.85 30.5 30.35 31.75L30.35 33L29.3 31.65L27.4 30.25Q26.15 29.6 24.7 29.45L24.7 29.4Q24.65 28.15 25.1 27.65L25.25 27.6Q26.4 27.7 27.4 28.35" />
<linearGradient
id="LinearGradID_92" gradientUnits="userSpaceOnUse" gradientTransform="matrix(0.00959778, 0.0118103, -0.00730896, 0.00596619, 18.45, 30.45)" spreadMethod ="pad" x1="-819.2" y1="0" x2="819.2" y2="0" >
<stop  offset="0" style="stop-color:#FAC70A;stop-opacity:1" />
<stop  offset="0.454902" style="stop-color:#FDF938;stop-opacity:1" />
<stop  offset="1" style="stop-color:#EE961A;stop-opacity:1" />
</linearGradient>
<path style="fill:url(#LinearGradID_92) " d="M10.1,21.05Q11 18.15 12.8 16.25Q16.55 15.55 18.4 18.3L19.35 20.25Q17.7 21.15 16.85 22.9Q15.45 25.5 16 29.65L16.05 29.9Q16.75 33.9 19.9 34.5L19.95 34.5Q23.3 35.1 24.05 33.3L24.15 33.05Q24.75 31.7 24.7 29.45Q26.15 29.6 27.4 30.25L29.3 31.65L30.35 33L30.2 38.25Q29.85 40.05 28.1 40.95L27.25 41.25L27.1 41.3L25.25 41.8L20.2 41.4Q17.5 40.65 16.15 39.9Q18 40.8 19 40.3Q20.05 39.75 19.25 39.05Q15.05 37.95 12.7 33Q11.6 30.25 11.2 28.15Q10.65 27.55 10.2 30.7L10 32.3Q9.6 30.95 9.4 28.5Q9.1 24.4 10.1 21.05" />
<linearGradient
id="LinearGradID_93" gradientUnits="userSpaceOnUse" gradientTransform="matrix(0.0030365, 0.00518799, -0.00263977, 0.00154114, 13.4, 33.7)" spreadMethod ="pad" x1="-819.2" y1="0" x2="819.2" y2="0" >
<stop  offset="0" style="stop-color:#FBE222;stop-opacity:1" />
<stop  offset="0.447059" style="stop-color:#FFFE89;stop-opacity:1" />
<stop  offset="1" style="stop-color:#F3B924;stop-opacity:1" />
</linearGradient>
<path style="fill:url(#LinearGradID_93) " d="M10,32.3L10.2 30.7Q10.65 27.55 11.2 28.15Q11.6 30.25 12.7 33Q15.05 37.95 19.25 39.05Q20.05 39.75 19 40.3Q18 40.8 16.15 39.9Q12.2 37.65 10.2 32.9L10 32.3" />
<path style="fill:#8E0442;fill-opacity:1" d="M36.2,11.4L36 10.65Q35.3 8.55 34 7.2L31.55 5.05Q30.45 4.25 27.65 3.25L20.7 2.85Q16.55 3.4 13.75 5.1Q10.9 6.75 8.55 9.45L7.1 11.25Q5.75 13.05 4.8 15.3L4.65 15.65Q3.2 19.2 2.7 24.5Q2.2 29.8 2.85 33.6Q3.45 37.4 4.4 39.8Q5.25 42.15 7.6 45.1Q9.9 47.95 14.3 50.05Q18.7 52.05 24.7 51.8Q30.4 51.55 33.2 50.15L33.4 50.05L33.45 50.05Q36.1 48.3 36.1 45.65L36.1 36.5L36.1 30.2L36.1 29.25Q35.95 27.4 34.65 27L28.6 27.1L27.45 27.15L27.4 27.15Q25.85 27.25 25.25 27.6L25.1 27.65Q24.65 28.15 24.7 29.4L24.7 29.45Q24.75 31.7 24.15 33.05L24.05 33.3Q23.3 35.1 19.95 34.5L19.9 34.5Q16.75 33.9 16.05 29.9L16 29.65Q15.45 25.5 16.85 22.9Q17.7 21.15 19.35 20.25Q20.45 19.65 21.95 19.45Q25.75 19 27.5 21.9L27.7 22.15Q28.5 23.15 29.95 22.65L29.9 22.65Q30.85 22.2 32.05 20.7L33.5 18.55L34.65 16.55L34.95 15.95Q36.4 13.25 36.2 11.4M38.2,8.65Q38.75 10.1 38.7 12.5Q38.55 14.85 36.55 18.45Q34.55 22 32.1 24.55L34.75 24.5L34.95 24.55Q38.3 25 38.6 29.2L38.6 45.6Q38.75 49.6 34.75 52.15L34.7 52.2Q31.55 54.05 24.8 54.3Q18.1 54.55 13.25 52.3Q8.3 49.95 5.65 46.65Q3.05 43.35 2.05 40.7Q1.05 38.1 0.4 34Q-0.3 29.9 0.2 24.25Q0.7 18.5 2.35 14.7Q4 10.75 6.65 7.8L6.7 7.75Q8.6 5.45 10.25 4.25Q11.85 3 13.25 2.3Q14.65 1.55 17.1 0.85Q19.55 0.1 22.3 0Q25.05 -0.15 28.45 0.85Q31.8 1.8 33.8 3.25Q35.7 4.65 36.65 5.9Q37.6 7.1 38.2 8.65M25.4,23.25Q24.35 21.7 22.25 21.95Q20 22.2 19.1 24L19.1 24.05Q18.05 26.1 18.5 29.3L18.5 29.25Q18.85 31.6 20.4 32.05L21.3 32.15L21.85 32.05Q22.25 31.1 22.2 29.55L22.2 29.5Q22.1 26.8 23.5 25.75L23.65 25.65Q24.5 24.95 26.8 24.7L25.4 23.25" />
<linearGradient
id="LinearGradID_94" gradientUnits="userSpaceOnUse" gradientTransform="matrix(-0.0117798, 0.000976563, -0.000518799, -0.0063324, 30.1, 16.75)" spreadMethod ="pad" x1="-819.2" y1="0" x2="819.2" y2="0" >
<stop  offset="0" style="stop-color:#E44301;stop-opacity:1" />
<stop  offset="1" style="stop-color:#FB8C00;stop-opacity:1" />
</linearGradient>
<path style="fill:url(#LinearGradID_94) " d="M12.8,16.25Q14.7 14.2 17.35 13.05Q19.95 11.9 24.3 12.5Q28.65 13.1 31.8 16.4Q29.75 21.05 27.7 22.15L27.5 21.9Q25.75 19 21.95 19.45Q20.45 19.65 19.35 20.25L18.4 18.3Q16.55 15.55 12.8 16.25" />
<linearGradient
id="LinearGradID_95" gradientUnits="userSpaceOnUse" gradientTransform="matrix(0.0191956, 0, 0, 0.0223083, 18.2, 33.55)" spreadMethod ="pad" x1="-819.2" y1="0" x2="819.2" y2="0" >
<stop  offset="0" style="stop-color:#E44301;stop-opacity:1" />
<stop  offset="1" style="stop-color:#FB8C00;stop-opacity:1" />
</linearGradient>
<path style="fill:url(#LinearGradID_95) " d="M4.35,31.5Q7.15 51.35 28 48.75Q30.3 48.55 32.05 47.8L33.85 46.95L33.95 46.9L33.9 47.25L33.45 49.3L33.2 50.15Q30.4 51.55 24.7 51.8Q18.7 52.05 14.3 50.05Q9.9 47.95 7.6 45.1Q5.25 42.15 4.4 39.8Q3.45 37.4 2.85 33.6Q2.2 29.8 2.7 24.5Q3.2 19.2 4.65 15.65L4.8 15.3Q3.25 23.55 4.35 31.5" />
<linearGradient
id="LinearGradID_96" gradientUnits="userSpaceOnUse" gradientTransform="matrix(0.00946045, 0.0217133, -0.0144501, 0.00630188, 15.8, 28.15)" spreadMethod ="pad" x1="-819.2" y1="0" x2="819.2" y2="0" >
<stop  offset="0" style="stop-color:#FCF745;stop-opacity:1" />
<stop  offset="0.266667" style="stop-color:#F7BF10;stop-opacity:1" />
<stop  offset="0.619608" style="stop-color:#FB8C00;stop-opacity:1" />
<stop  offset="1" style="stop-color:#FDEC2C;stop-opacity:1" />
</linearGradient>
<path style="fill:url(#LinearGradID_96) " d="M33.95,46.9L33.85 46.95L32.05 47.8Q30.3 48.55 28 48.75Q7.15 51.35 4.35 31.5Q3.25 23.55 4.8 15.3Q5.75 13.05 7.1 11.25Q10.5 7.9 14.45 6.2Q17.35 4.95 19.35 4.9Q19 9.65 18.7 10Q13 12.05 10.95 16.75Q9.95 19.1 10.1 21.05Q9.1 24.4 9.4 28.5Q9.6 30.95 10 32.3L10.2 32.9Q12.2 37.65 16.15 39.9Q17.5 40.65 20.2 41.4L25.25 41.8L27.1 41.3L27.4 41.3L29.15 41Q30.85 40.6 31.85 39.65L34.15 37.95Q34.45 43.3 33.95 46.9" />
</g>
</svg>
