<?xml version="1.0" encoding="utf-8"?>
<svg version="1.1" id="Layer_1"
xmlns="http://www.w3.org/2000/svg"
xmlns:xlink="http://www.w3.org/1999/xlink"
xmlns:author="http://www.sothink.com"
width="17px" height="14px"
xml:space="preserve">
<g id="2228" transform="matrix(1, 0, 0, 1, 0, 0)">
<path style="fill:#301D16;fill-opacity:1" d="M16.75,2.1L16.8 2.6L13.25 6.95Q13.6 7 13.85 7.2L10.85 6.45L11.9 6.6L14.4 3.9L15.7 2.6L16 2.65L16.6 2.6L16.65 2.3L16.55 2.15L16.75 2.1M0.65,7.75L0.6 7.3L0.55 7.05L0.15 4L0 2.05L0.2 2.05L1.15 1.75L1.8 7.2L0.65 7.75" />
<path style="fill:#57351A;fill-opacity:1" d="M10.45,6.45L10.5 6.4L10.5 6.35L11.25 4.85L6.3 5.3L4.5 5.3L4.45 5.3L4.2 5.3Q2.9 5.4 4.15 5.45L2.95 5.45L2.9 4.3Q2.9 2.35 3.3 1.05L3.35 0.65L3.95 0.55L8.15 0.55L12.75 1.4L16.35 2.15L16.55 2.15L16.65 2.3L16.6 2.6L16 2.65L15.7 2.6L14.4 3.9L11.9 6.6L10.85 6.45L10.45 6.45" />
<path style="fill:#191919;fill-opacity:1" d="M10.45,6.45L10.85 6.45L13.85 7.2Q14.3 7.4 14.6 7.75L15.05 8.4L15.15 8.75L15.3 9.35Q15.35 10.35 14.4 11.4Q13.55 12.4 11 12.95Q7.3 13.35 4.15 13Q3 12.9 2.2 12.3L1.15 10.75L0.8 9.25L0.65 7.75L1.8 7.2L3.1 6.85L6.15 6.4L7.25 6.35L9.7 6.4L10.45 6.45M14.2,9.55Q14.15 8.7 13.55 8.15Q13 7.55 11 7.4L10.1 7.3L6.7 7.35L5.5 7.4L3.3 7.7Q1.9 8 1.85 8.55Q1.75 9.35 2.1 10.45L2.25 10.8L2.45 11.2Q3.05 11.75 4.2 12.1L8.8 12.3Q11.7 11.9 13 11.2L13.75 10.6L14.2 9.55" />
<path style="fill:#7F5C46;fill-opacity:1" d="M9.7,6.4L7.25 6.35L6.15 6.4L3.1 6.85L3.1 6.7L2.95 5.45L4.15 5.45Q2.9 5.4 4.2 5.3L4.45 5.3L4.5 5.3L6.3 5.3L11.25 4.85L10.5 6.35L10.5 6.4L10.45 6.45L9.7 6.4" />
<path style="fill:#524A47;fill-opacity:1" d="M3,8.9L4.15 8.3L5.7 7.8L6.7 7.35L10.1 7.3L11 7.4Q13 7.55 13.55 8.15Q14.15 8.7 14.2 9.55L13.75 10.6L13.4 10.6L12.8 10.35Q12.7 10.35 12.1 10.65L9.9 11L4.9 11.45L2.45 11.2L2.25 10.8Q2.4 9.45 3 8.9" />
<path style="fill:#382F2C;fill-opacity:1" d="M4.9,11.45L9.9 11L12.1 10.65Q12.7 10.35 12.8 10.35L13.4 10.6L13.75 10.6L13 11.2Q11.7 11.9 8.8 12.3L4.2 12.1Q3.05 11.75 2.45 11.2L4.9 11.45" />
<path style="fill:#95725C;fill-opacity:1" d="M1,1.1L1.25 1L3.35 0.65L3.3 1.05Q2.9 2.35 2.9 4.3L2.95 5.45L3.1 6.7L3.1 6.85L1.8 7.2L1.15 1.75L0.2 2.05L0 2.05L0 1.95L0.05 1.75Q0.2 1.35 1 1.1" />
<path style="fill:#36271F;fill-opacity:1" d="M0.05,1.75L0.2 0.7Q0.6 -0.75 0.95 0.85L1 1.1Q0.2 1.35 0.05 1.75" />
<path style="fill:#7E7470;fill-opacity:1" d="M2.25,10.8L2.1 10.45Q1.75 9.35 1.85 8.55Q1.9 8 3.3 7.7L5.5 7.4L6.7 7.35L5.7 7.8L4.15 8.3L3 8.9Q2.4 9.45 2.25 10.8" />
</g>
</svg>
