<?xml version="1.0" encoding="utf-8"?>
<svg version="1.1" id="Layer_1"
xmlns="http://www.w3.org/2000/svg"
xmlns:xlink="http://www.w3.org/1999/xlink"
xmlns:author="http://www.sothink.com"
width="57px" height="14px"
xml:space="preserve">
<g id="736" transform="matrix(1, 0, 0, 1, 0, 0)">
<path style="fill:#FEE3B0;fill-opacity:1" d="M56.05,2.95L54.5 3.15L52.9 3.15L51.3 3.15L51.25 3.15L51.25 3.2L51.2 4.25L51.25 5.3L51.3 5.3L52.4 5.35L53.5 5.4L53.55 6.65L53.55 7.9L52.7 8L51.85 8L51.35 8.1Q51.25 8.65 51.3 9.3L51.35 10.4L53.7 10.45L56.1 10.5L56.1 10.55L56.15 11.75L56 12.9L52.2 12.95L48.55 12.85L48.45 6.65L48.55 0.45L50.4 0.4L52.4 0.35L54.25 0.3L55.55 0.3L56.05 0.35L56.1 1.65L56.05 2.95M47.25,4.45L47.35 5L47.4 5.55L47.35 7.3L47.15 9L46.15 11.05L44.85 12.85L42.4 12.9L40.05 12.9L40.05 12.95L39.75 8.95L39.75 4.75L39.75 0.5L39.8 0.5L39.8 0.45L41.25 0.25L42.75 0.25L44.2 0.25Q44.8 0.4 45.3 0.85L46.15 1.8L46.15 1.75L46.8 3.05L47.25 4.45M42.35,4.25L42.35 6.45L42.35 8.9L42.95 9.1L43.6 9.05L43.75 9L43.95 8.9L44.25 8.65L44.5 8.35L44.95 7.3L44.95 6.1L44.75 5.3L44.4 4.6L43.75 4.15L43.1 4.1L42.4 4.15L42.35 4.15L42.35 4.25M38.4,2.75L38.55 3.35L38.55 4.25L38.55 5.15L38.55 7L38.5 8.85L38.4 9.45L38.2 10.75L37.75 11.9L36.9 12.6L35.85 13L34.85 13.2L33.8 13.2L32.4 12.9Q31.75 12.6 31.4 11.9L31.05 10.95L30.95 9.9L30.85 7.05Q30.8 5.65 30.9 4.2L31.1 2.6Q31.3 1.75 31.85 1.1L32.05 0.95L32.25 0.8L34 0.3L35.85 0.4Q36.8 0.6 37.5 1.1L37.95 1.65L38.25 2.25L38.4 2.75M36.2,4.4L35.9 3.45L35.25 2.85L34.5 2.8L33.85 3.1L33.3 3.65L33 4.35L32.8 5.8L32.8 7.3L32.95 8.6L33.15 9.85L33.9 10.55L34.95 10.65L35.9 10.1L36.2 9.65L36.25 9.2L36.25 8.45L36.3 7.8L36.3 7.5L36.25 5.25L36.2 4.85L36.2 4.4M29.65,0.3L29.65 3.75L29.65 7.2L29.6 12.95L28.75 12.9L27.9 12.95L27.2 12.95L27.15 10.65L27.1 8.15L26.95 5.9L26.65 6.55L26.3 7.4L26 8.2L25.8 8.55L25.45 8.15L25.1 7.25L24.8 6.4L24.7 6.05L24.55 9.45L24.75 12.9L23.45 12.95L22.2 12.95L22.15 12.9L22.1 12.45L22.1 11.25L22.05 9.05L22.1 5.55L22.1 0.55L23.3 0.4L24.6 0.45L25.05 1.25L25.4 2.3L25.8 3.15L25.9 3.25L26.05 2.9L26.35 2.05L26.65 1.1L27 0.4L27.65 0.4L28.7 0.35L29.65 0.3M17.1,4.55Q16.9 5.7 16.15 6.6Q15.45 7.5 14.35 7.9L12.15 8.2L12.15 8.7L12.15 9.4L12.15 10.65L12.2 12.75L12.15 12.75L11.25 12.9L10.1 12.9L9.1 12.85L9.05 8.95L9.05 4.6L9 0.35L10.95 0.05L13.1 0.15L15 0.75Q15.9 1.2 16.45 2Q17 2.85 17.1 4.05L17.1 4.3L17.1 4.55M11.65,2.9L11.65 4.3Q11.65 5.05 11.8 5.6L11.85 5.6L12.7 5.6L13.55 5.45L14.25 5.1L14.5 4.45L14.4 3.8L13.9 3.3Q13.45 2.9 12.85 2.85Q12.3 2.7 11.7 2.85L11.65 2.9M7.95,3.45L8 4.25L8 5.05Q7.9 6.05 7.35 6.65L6.1 7.6L4.6 8.35L3.35 9.3L3.2 9.7L3.05 10.1L3.15 10.4L5.4 10.4L7.6 10.35L7.75 11.15L7.75 12.1L7.75 12.5L7.75 12.9L0 12.95L0.05 11.3L0.15 9.8Q0.25 9.05 0.6 8.45L1.85 7.35L3.2 6.55L4.45 5.65L5 5L5.1 4.2L4.8 3.45L4.15 3.05Q3.6 3.1 3.3 3.45Q3.05 3.8 2.95 4.3L2.8 5.25L2.8 5.3L1.35 5.45L0.15 5.4L0.1 5.4L0.1 5.35Q-0.1 4.1 0.1 3Q0.35 1.95 1 1.15Q1.4 0.7 2.05 0.45Q2.7 0.2 3.5 0.1L4.95 0.15L6.2 0.4Q7 0.85 7.45 1.65Q7.9 2.45 7.95 3.45" />
</g>
</svg>
