<?xml version="1.0" encoding="utf-8"?>
<svg version="1.1" id="Layer_1"
xmlns="http://www.w3.org/2000/svg"
xmlns:xlink="http://www.w3.org/1999/xlink"
xmlns:author="http://www.sothink.com"
width="23px" height="22px"
xml:space="preserve">
<g id="1290" transform="matrix(1, 0, 0, 1, 1.6, 1.55)">
<path style="fill:#4E1C10;fill-opacity:1" d="M11.9,-1.3L12.95 -1.1Q15.55 -0.35 17.5 1.65Q20.05 4.05 20.65 7.25L20.85 9.1L20.85 9.4Q20.85 12.1 19.7 14.3Q18.85 15.8 17.5 17.1Q14.25 20.35 9.6 20.35Q5 20.35 1.65 17.1Q-0.5 15 -1.2 12.3L-1.3 11.9L-1.55 10.05L-1.6 9.4Q-1.6 4.85 1.65 1.65Q3.1 0.2 4.85 -0.55L5.9 -0.95Q7.65 -1.55 9.6 -1.55L11.9 -1.3M-0.45,9.8L-0.4 10.75Q0.05 14 2.6 16.4Q5.45 19.15 9.6 19.25Q13.65 19.2 16.7 16.4Q18.4 14.85 19.15 12.85Q19.8 11.15 19.8 9.25L19.75 8.35L19.2 5.9Q18.4 3.75 16.55 2.1Q14.95 0.7 13.15 0.15L12.25 -0.15L9.9 -0.4L9.05 -0.4L6.6 0L5.7 0.35Q3.6 1.2 2.05 2.95Q-0.15 5.2 -0.4 8.3L-0.45 9.8" />
<path style="fill:#BB482E;fill-opacity:1" d="M-0.4,10.75L-0.45 9.8L-0.4 8.3Q0.45 6.15 2 4.35L2.2 4.15L2.35 4.2L3.1 3.75L3.2 3.25Q4.25 2.3 5.4 1.75L6.7 1.85L7.9 1.25L7.85 1.05L7.85 1L9.35 0.9L11.8 1.2L11.75 1.05L11.75 1L11.85 0.85L12.15 0.65L12.25 0.6L12.6 0.8L12.9 1.2L12.9 1.35L12.9 1.5Q14.1 1.85 15.25 2.45L15.2 2.6L15.15 2.75L15.6 3.15L16.05 3L16.65 3.4Q18.15 4.5 19.2 5.9L19.75 8.35L19 9.2L19.05 9.25L19.1 9.4L19.1 9.65L19.05 9.85L18.9 9.85L18.55 9.85L18.35 9.8L18.15 10L18.15 9.8Q18.1 9.45 17.75 9.45L17.6 9.6Q17.4 9.75 17.45 10.1Q17.45 10.35 17.7 10.4L17.6 10.5L16.4 11.25L16.65 9.55L16.65 9.4Q16.65 6.55 14.55 4.5Q13.3 3.3 11.7 2.8L11.05 2.65L9.6 2.55L7.25 2.9L6.6 3.1L4.6 4.5Q3.05 6.05 2.7 7.95Q2.55 8.65 2.55 9.4Q2.55 10.8 3.05 12.05L2 11.7L1.8 11.8L1.1 11.7L0.9 11.4L0.9 11.35L-0.4 10.75M17.6,5.9L17.5 5.7L17.3 5.55L17.05 5.5L16.9 5.7Q16.75 6.15 17.3 6.15L17.6 5.9M11.9,2.35Q12.35 2.4 12.45 2.1L12.45 2L12.15 1.75L11.8 1.65L11.55 1.9Q11.5 2.25 11.9 2.35M18.1,7.95L18 8Q17.8 8.05 17.85 8.2Q18 8.85 18.8 8.5L19 8.3L18.7 8L18.1 7.95M9.75,0L9.95 -0.1Q10.45 0.15 10 0.25Q9.5 0.5 9.75 0M1.8,7.55L1.65 7.45L1.55 7.35L1.3 7.35Q1.1 7.35 1 7.65L0.95 8L0.95 8.2L1.65 8.25L1.85 8.15L1.85 8L1.85 7.8L1.85 7.6L1.8 7.55M1.2,9.1L1 9.3Q1 9.85 1.8 9.75L1.95 9.55L1.95 9.45Q1.95 9.2 1.65 9.2L1.2 9.1M7.95,16.6L8.2 16.75L8.35 17L8.3 17.15Q8.1 17.4 7.85 17.15Q7.55 17 7.75 16.7L7.95 16.6M2.65,14.5Q2.15 14.7 2.4 14.25L2.6 14.15Q3.1 14.35 2.65 14.5M17.05,13.1L17.3 13.15L17.5 13.25L17.6 13.3L17.45 13.65L16.95 14.15L16.65 14.2Q16.45 14.05 16.55 13.85L16.7 13.25Q16.8 13.1 17.05 13.1M15.75,15.3Q16.3 15.6 15.85 15.7Q15.25 15.95 15.65 15.4L15.75 15.3M11.5,17L12.05 16.7L12.4 16.75L12.7 16.85L12.75 16.95L12.8 17.1L12.8 17.45L12.75 17.65L12.5 17.75Q11.7 17.85 11.4 17.35L11.4 17.2L11.5 17" />
<path style="fill:#8C331D;fill-opacity:1" d="M4.6,14.2Q6.7 16.3 9.6 16.3Q12.5 16.3 14.55 14.2Q15.95 12.9 16.4 11.25L17.6 10.5L17.7 10.4Q17.45 10.35 17.45 10.1Q17.4 9.75 17.6 9.6L17.75 9.45Q18.1 9.45 18.15 9.8L18.15 10L18.35 9.8L18.55 9.85L18.9 9.85L19.05 9.85L19.1 9.65L19.1 9.4L19.05 9.25L19 9.2L19.75 8.35L19.8 9.25Q19.8 11.15 19.15 12.85Q18.4 14.85 16.7 16.4Q13.65 19.2 9.6 19.25Q5.45 19.15 2.6 16.4Q0.05 14 -0.4 10.75L0.9 11.35L0.9 11.4L1.1 11.7L1.8 11.8L2 11.7L3.05 12.05Q3.55 13.2 4.6 14.2M18.7,8L19 8.3L18.8 8.5Q18 8.85 17.85 8.2Q17.8 8.05 18 8L18.1 7.95L18.7 8M1.65,9.2Q1.95 9.2 1.95 9.45L1.95 9.55L1.8 9.75Q1 9.85 1 9.3L1.2 9.1L1.65 9.2M7.75,16.7Q7.55 17 7.85 17.15Q8.1 17.4 8.3 17.15L8.35 17L8.2 16.75L7.95 16.6L7.75 16.7M2.6,14.15L2.4 14.25Q2.15 14.7 2.65 14.5Q3.1 14.35 2.6 14.15M16.7,13.25L16.55 13.85Q16.45 14.05 16.65 14.2L16.95 14.15L17.45 13.65L17.6 13.3L17.5 13.25L17.3 13.15L17.05 13.1Q16.8 13.1 16.7 13.25M15.65,15.4Q15.25 15.95 15.85 15.7Q16.3 15.6 15.75 15.3L15.65 15.4M11.4,17.2L11.4 17.35Q11.7 17.85 12.5 17.75L12.75 17.65L12.8 17.45L12.8 17.1L12.75 16.95L12.7 16.85L12.4 16.75L12.05 16.7L11.5 17L11.4 17.2" />
<path style="fill:#EE7557;fill-opacity:1" d="M16.65,3.4L16.05 3L15.6 3.15L15.15 2.75L15.2 2.6L15.25 2.45Q14.1 1.85 12.9 1.5L12.9 1.35L12.9 1.2L12.6 0.8L12.25 0.6L12.15 0.65L11.85 0.85L11.75 1L11.75 1.05L11.8 1.2L9.35 0.9L7.85 1L7.85 1.05L7.9 1.25L6.7 1.85L5.4 1.75Q4.25 2.3 3.2 3.25L3.1 3.75L2.35 4.2L2.2 4.15L2 4.35Q0.45 6.15 -0.4 8.3Q-0.15 5.2 2.05 2.95Q3.6 1.2 5.7 0.35L6.6 0L9.05 -0.4L9.9 -0.4L12.25 -0.15L13.15 0.15Q14.95 0.7 16.55 2.1Q18.4 3.75 19.2 5.9Q18.15 4.5 16.65 3.4M17.3,6.15Q16.75 6.15 16.9 5.7L17.05 5.5L17.3 5.55L17.5 5.7L17.6 5.9L17.3 6.15M11.55,1.9L11.8 1.65L12.15 1.75L12.45 2L12.45 2.1Q12.35 2.4 11.9 2.35Q11.5 2.25 11.55 1.9M10,0.25Q10.45 0.15 9.95 -0.1L9.75 0Q9.5 0.5 10 0.25M1.85,7.6L1.85 7.8L1.85 8L1.85 8.15L1.65 8.25L0.95 8.2L0.95 8L1 7.65Q1.1 7.35 1.3 7.35L1.55 7.35L1.65 7.45L1.8 7.55L1.85 7.6" />
<path style="fill:#792E0A;fill-opacity:1" d="M3.05,12.05Q2.55 10.8 2.55 9.4Q2.55 8.65 2.7 7.95Q3.05 6.05 4.6 4.5L6.6 3.1L7.25 2.9L9.6 2.55L11.05 2.65L11.7 2.8Q13.3 3.3 14.55 4.5Q16.65 6.55 16.65 9.4L16.65 9.55L16.4 11.25Q15.95 12.9 14.55 14.2Q12.5 16.3 9.6 16.3Q6.7 16.3 4.6 14.2Q3.55 13.2 3.05 12.05M3.95,9.65Q4 11.15 4.8 12.45L5.65 13.35Q7.25 14.9 9.6 15Q11.9 14.95 13.6 13.35L14.6 12.15Q15.35 10.85 15.35 9.3L15.3 8.35Q15 6.5 13.55 5.2L11.65 4.1L11.15 4L9.75 3.8L9.3 3.8L7.95 4.1Q7.65 4.1 7.4 4.3Q6.2 4.7 5.35 5.75Q4.75 6.3 4.45 6.95Q3.8 8.2 3.95 9.65" />
<path style="fill:#A66221;fill-opacity:1" d="M7.15,12.8L7.45 12.8L8.3 12.85L8.5 12.45L8.65 12.4Q9.15 12.4 9.05 12.85L9.05 12.9L10.3 12.9L10.05 12.8L9.9 12.65L9.9 12.5L9.9 12.4L9.9 12.2L10 11.95L10.15 11.9L10.95 12.1L11.65 12.5L11.75 12.8L11.75 12.85L11.85 12.85L11.9 12.95L12 13.15L12.5 13.15L12.8 12.9L12.8 12.75L12.8 12.65L14.6 12.15L13.6 13.35Q11.9 14.95 9.6 15Q7.25 14.9 5.65 13.35L4.8 12.45L7.15 12.8M13.3,9.2L13.65 9.3L13.9 9.45L13.95 9.6L13.95 9.65L13.95 9.75L13.95 9.85L13.95 10L13.65 10.15L12.75 9.95L12.75 9.7L12.85 9.4Q12.85 9.1 13.1 9.1L13.3 9.2M7.1,8.05L7.1 8L8.45 8.55L8.95 8L8.2 7.35Q8.1 7.25 8.3 7.25L9.5 7.55L9.55 7.5L9.7 7.35L9.9 7.8L11.1 8.25Q11.45 8.4 11.4 8.7L10.05 8.65L9.7 8.5L9.5 8.7L9.3 8.95Q9.95 9.25 10.45 9.75Q10.65 9.85 10.5 10.05Q9.95 10.2 9.35 9.85L8.7 9.45L8.25 9.75L7.9 9.75Q7.85 9.4 8.1 9.05L6.95 8.25L7.1 8.05M6.4,10.8Q6.35 11.35 5.75 11.25Q5 11.15 5 10.55Q5 10.4 5.15 10.4L5.75 10.4Q6.1 10.3 6.35 10.55L6.4 10.8" />
<path style="fill:#E99C3E;fill-opacity:1" d="M4.8,12.45Q4 11.15 3.95 9.65Q3.8 8.2 4.45 6.95Q5.9 6.4 7.8 6.2L7.9 6.05L8.3 5.85L8.45 5.75L9.15 5.8L9.4 5.95L9.35 6.15L10.6 6.25L10.6 6.2L10.6 6.1L10.65 5.85L10.85 5.6L11.35 5.7L11.75 5.75Q11.55 5.85 11.65 6.1Q11.75 6.5 12.1 6.55L12.1 6.6L12.2 6.65L12.35 6.95L12.9 6.95L12.95 6.8L13.1 6.75L13.65 6.45L13.8 6.5L13.9 6.6L14 6.65L14.1 6.8L14.1 6.85L14.1 7L14.1 7.2L13.8 7.35L15.3 8.35L15.35 9.3Q15.35 10.85 14.6 12.15L12.8 12.65L12.8 12.75L12.8 12.9L12.5 13.15L12 13.15L11.9 12.95L11.85 12.85L11.75 12.85L11.75 12.8L11.65 12.5L10.95 12.1L10.15 11.9L10 11.95L9.9 12.2L9.9 12.4L9.9 12.5L9.9 12.65L10.05 12.8L10.3 12.9L9.05 12.9L9.05 12.85Q9.15 12.4 8.65 12.4L8.5 12.45L8.3 12.85L7.45 12.8L7.15 12.8L4.8 12.45M13.1,9.1Q12.85 9.1 12.85 9.4L12.75 9.7L12.75 9.95L13.65 10.15L13.95 10L13.95 9.85L13.95 9.75L13.95 9.65L13.95 9.6L13.9 9.45L13.65 9.3L13.3 9.2L13.1 9.1M7.05,7.9L6.7 7.55L6.2 7.35L6.05 7.5Q5.9 7.55 5.85 7.65L5.8 7.85L5.8 7.9Q5.85 8.25 6.2 8.3L6.95 8.25L8.1 9.05Q7.85 9.4 7.9 9.75L8.25 9.75L8.7 9.45L9.35 9.85Q9.95 10.2 10.5 10.05Q10.65 9.85 10.45 9.75Q9.95 9.25 9.3 8.95L9.5 8.7L9.7 8.5L10.05 8.65L11.4 8.7Q11.45 8.4 11.1 8.25L9.9 7.8L9.7 7.35L9.55 7.5L9.5 7.55L8.3 7.25Q8.1 7.25 8.2 7.35L8.95 8L8.45 8.55L7.1 8L7.05 7.9M6.35,10.55Q6.1 10.3 5.75 10.4L5.15 10.4Q5 10.4 5 10.55Q5 11.15 5.75 11.25Q6.35 11.35 6.4 10.8L6.35 10.55" />
<path style="fill:#FFC570;fill-opacity:1" d="M13.8,7.35L14.1 7.2L14.1 7L14.1 6.85L14.1 6.8L14 6.65L13.9 6.6L13.8 6.5L13.65 6.45L13.1 6.75L12.95 6.8L12.9 6.95L12.35 6.95L12.2 6.65L12.1 6.6L12.1 6.55Q11.75 6.5 11.65 6.1Q11.55 5.85 11.75 5.75L11.35 5.7L10.85 5.6L10.65 5.85L10.6 6.1L10.6 6.2L10.6 6.25L9.35 6.15L9.4 5.95L9.15 5.8L8.45 5.75L8.3 5.85L7.9 6.05L7.8 6.2Q5.9 6.4 4.45 6.95Q4.75 6.3 5.35 5.75Q6.2 4.7 7.4 4.3Q7.65 4.1 7.95 4.1L9.3 3.8L9.75 3.8L11.15 4L11.65 4.1L13.55 5.2Q15 6.5 15.3 8.35L13.8 7.35M7.1,8L7.1 8.05L6.95 8.25L6.2 8.3Q5.85 8.25 5.8 7.9L5.8 7.85L5.85 7.65Q5.9 7.55 6.05 7.5L6.2 7.35L6.7 7.55L7.05 7.9L7.1 8" />
</g>
</svg>
