<?xml version="1.0" encoding="utf-8"?>
<svg version="1.1" id="Layer_1"
xmlns="http://www.w3.org/2000/svg"
xmlns:xlink="http://www.w3.org/1999/xlink"
xmlns:author="http://www.sothink.com"
width="25px" height="21px"
xml:space="preserve">
<g id="1292" transform="matrix(1, 0, 0, 1, -123.75, -71.35)">
<path style="fill:#4A4131;fill-opacity:1" d="M127.5,79.15L127.7 79.15L127.85 79.1L128.95 78.75L130.85 77.95L132.05 76.4L133 75.1L133.8 74.6L134.3 74.5L133.75 73.4Q133.4 73.15 133.05 73.1L132.95 72.8L132.75 72.8L130.55 72.3L129.25 72.5Q128.55 74.25 127 75.4L126.5 75.8Q125.35 77.1 126.2 78.7L126.5 79.3L127.1 79.3L127.5 79.15M143.75,83.15L143.7 83.1L143.2 82.75L142.55 82.55L142.4 82.45L140.8 81.8L140.25 81.7Q139.45 83.6 137.7 84.75L139 85.75L139.7 86.6L140.4 87.65L140.9 87.35L142.75 86.65L142.5 86.95L142.15 88L141.65 88.2Q139.65 89.1 140.2 90.25Q140.55 91.2 142.25 91.35L142.65 91.35L143.45 92.15L143.05 92.15L142.2 92.2L140.9 92.05Q139.65 91.65 139.1 91.05Q138.55 90.3 138.95 89.3Q139.1 88.75 139.6 88.25L139.1 87.75L138.25 86.6L137.65 86.05L137.6 85.95L136.6 85.4L136.15 85.25L135.7 85.2L135.65 85.2L134.55 85.1L134.3 85.45L134.05 85.65Q134.25 86.15 133.8 86.65Q133.25 87.25 131.4 87.8L128.6 88.45L127.35 88.55L126.45 88.6L125.8 88.7L124.35 88.25Q123.5 87.6 123.85 86.9Q124.2 86.2 124.9 85.35Q125.5 84.5 126.3 83.95L126.9 83.5L126.7 83L126.75 81.8L126.4 80.2Q126.15 79.9 125.9 79.9L125.4 79.5L124.75 77.85Q124.65 76.4 126.05 75.1L126.7 74.4L127.9 72.8L128.35 72.1L128.7 71.55L128.75 71.55L132.65 71.8L133.65 72.4L134.65 73.55L135.05 74.2L135.1 74.65L135.1 74.7Q134.9 75 134.85 75.4L134.65 75.35Q134.3 75.35 134.15 75.5Q133.65 75.75 133 76.65L131.65 78.5L131.9 78.85Q132.95 76.5 135.25 75.3L135.2 75.2L135.2 75.15L135.25 75L135.3 74.95L135.45 74.85L135.6 74.85Q137.65 75 139 76.65Q140 77.85 140.5 79.3L140.7 79.15L140.7 80.1L140.7 80.15L140.7 80.65L141.2 80.85L142.6 81.4Q143.35 81.65 144.5 82.5L143.75 83.15M138.55,77.95Q137.5 76.4 136.1 75.7Q133.9 77.4 133.45 78.1L132.85 79.4L132.65 79.75L132.55 79.9L132.2 80.7L132.2 80.75L132.2 81.75L132.7 82.9L132.95 83.15L133.3 83.65L133.5 83.85L133.85 84.05L134.8 84.3L135.2 84.3L135.25 84.3L135.35 84.3L136.9 83.85Q137.85 83.55 138.6 82.25L139.65 80.1L139.1 78.9L138.55 77.95M127.6,80.1L127.55 80.15L127.75 80.55L127.8 81.05L127.75 82.65Q127.7 83 127.9 83.1L128.85 83L130.15 83.05L130.3 83.05L130.95 83.15L131.55 83.35L131.8 83.5L131.75 83.35Q131.25 82.65 131.15 81.75Q131.1 80.7 131.3 80.4L131.45 79.95L131.55 79.85L130.75 79.05L130.25 79.45L129.55 79.75L128 80.05L127.6 80.1M128.5,84.1Q127.05 84.5 126.2 85.2Q125.35 85.9 125 86.65Q124.7 87.3 125.5 87.65L125.9 87.7L126.15 87.75L128 87.7L128.15 87.65L130.75 86.95L132.65 86.05L133.25 85.35L133 84.95L132.45 84.65L132.4 84.6L130.75 83.95L130.65 83.95L129.1 83.95L129.05 84L128.5 84.1" />
<path style="fill:#7B705E;fill-opacity:1" d="M132.65,73.05L131.65 73.85Q129.65 75.9 129.1 77Q128.65 77.9 128.95 78.75L127.85 79.1L127.7 79.15L127.5 79.15L127.35 79.05Q126.5 78.45 126.5 76.1L126.5 75.8L127 75.4Q128.55 74.25 129.25 72.5L130.55 72.3L132.75 72.8L132.95 72.8L132.65 73.05M128.6,82.5Q128.5 81.45 128 80.05L129.55 79.75L130.25 79.45L130.75 79.05L131.55 79.85L131.45 79.95L131.3 80.4Q131.1 80.7 131.15 81.75Q131.25 82.65 131.75 83.35L131.8 83.5L131.55 83.35L130.95 83.15L130.3 83.05L130.15 83.05L128.85 83Q128.6 82.85 128.6 82.5M127.6,84.95Q128.25 84.3 129.05 84L129.1 83.95L130.65 83.95L130.75 83.95L132.4 84.6L132.45 84.65L133 84.95L133.25 85.35L132.65 86.05L130.75 86.95L128.15 87.65L128 87.7L126.15 87.75L125.9 87.7Q126.2 86.1 127.6 84.95" />
<path style="fill:#B3A38A;fill-opacity:1" d="M127.1,79.3L126.5 79.3L126.2 78.7Q125.35 77.1 126.5 75.8L126.5 76.1Q126.5 78.45 127.35 79.05L127.5 79.15L127.1 79.3M128.95,78.75Q128.65 77.9 129.1 77Q129.65 75.9 131.65 73.85L132.65 73.05L132.95 72.8L133.05 73.1Q133.4 73.15 133.75 73.4L134.3 74.5L133.8 74.6L133 75.1L132.05 76.4L130.85 77.95L128.95 78.75M142.2,88L142.15 88.15Q142 88.55 142 89.2L142 89.3L142.1 90.15Q142.15 90.65 142.55 91.2L142.8 91.35L142.65 91.35L142.25 91.35Q140.55 91.2 140.2 90.25Q139.65 89.1 141.65 88.2L142.15 88L142.2 88M142.75,86.65L140.9 87.35L140.4 87.65L139.7 86.6L139 85.75L137.7 84.75Q139.45 83.6 140.25 81.7L140.8 81.8L142.4 82.45L142.55 82.55L143.2 82.75L143.7 83.1L143.6 83.15L142.9 83.5L142.85 83.5L141.35 83.9Q142.75 85 142.8 86.2L142.8 86.4L142.8 86.65L142.75 86.65M139.1,78.9L139.65 80.1L138.6 82.25Q137.85 83.55 136.9 83.85L135.35 84.3L135.25 84.3L135.2 84.3L134.8 84.3L133.85 84.05L133.5 83.85L133.3 83.65L132.95 83.15L132.7 82.9L132.2 81.75L132.2 80.75L132.2 80.7L132.55 79.9L132.65 79.75L132.85 79.4L133.45 78.1Q133.9 77.4 136.1 75.7Q137.5 76.4 138.55 77.95L139.1 78.9M128,80.05Q128.5 81.45 128.6 82.5Q128.6 82.85 128.85 83L127.9 83.1Q127.7 83 127.75 82.65L127.8 81.05L127.75 80.55L127.55 80.15L127.6 80.1L128 80.05M129.05,84Q128.25 84.3 127.6 84.95Q126.2 86.1 125.9 87.7L125.5 87.65Q124.7 87.3 125 86.65Q125.35 85.9 126.2 85.2Q127.05 84.5 128.5 84.1L129.05 84" />
<path style="fill:#625643;fill-opacity:1" d="M142.15,88L142.5 86.95L142.75 86.65L142.8 86.65L144.75 86.4L146.05 86.55L146.85 86.7L146.15 85.45L145.35 84.5L144.2 83.45L143.75 83.15L144.5 82.5L144.6 82.6L145.55 83.3Q147.4 84.85 148 87.15Q148.45 87.65 148.5 88.75Q148.6 91 146.05 91.7L145.35 91.9L144.05 92.1L143.45 92.15L142.65 91.35L142.8 91.35L143.45 91.35L146.35 90.85L147 90.25Q147.75 89.3 147.05 88.1L146.35 87.6L145.2 87.4L143.6 87.5L143.2 87.65L142.6 87.8L142.2 88L142.15 88" />
<path style="fill:#CCC6B8;fill-opacity:1" d="M142.8,86.65L142.8 86.4L142.8 86.2Q142.75 85 141.35 83.9L142.85 83.5L142.9 83.5L143.6 83.15L143.65 83.25L144.1 83.55Q145.45 84.85 146.05 86.55L144.75 86.4L142.8 86.65M142.55,91.2Q142.15 90.65 142.1 90.15L142 89.3L142 89.2Q142 88.55 142.15 88.15L142.2 88L142.6 87.8L143.2 87.65L143.6 87.5L145.2 87.4L146.35 87.6L146.45 89.2L146.35 90.85L143.45 91.35L142.8 91.35L142.55 91.2" />
<path style="fill:#E9E7DA;fill-opacity:1" d="M144.2,83.45L145.35 84.5L146.15 85.45L146.85 86.7L146.05 86.55Q145.45 84.85 144.1 83.55L143.65 83.25L143.6 83.15L143.7 83.1L143.75 83.15L144.2 83.45M146.45,89.2L146.35 87.6L147.05 88.1Q147.75 89.3 147 90.25L146.35 90.85L146.45 89.2" />
</g>
</svg>
