<?xml version="1.0" encoding="utf-8"?>
<svg version="1.1" id="Layer_1"
xmlns="http://www.w3.org/2000/svg"
xmlns:xlink="http://www.w3.org/1999/xlink"
xmlns:author="http://www.sothink.com"
width="177px" height="108px"
xml:space="preserve">
<g id="1789" transform="matrix(1, 0, 0, 1, 73.1, 92.15)">
<path style="fill:#F8F8F8;fill-opacity:1" d="M-61.95,-74.85L-57.2 -74.4Q-56 -73.85 -55.6 -73.85L-55.6 -73.7Q-59.25 -71.05 -59.25 -69.65L-58.6 -69.5L-54.35 -70.05L-52.75 -69.8L-52.75 -69.5Q-55.2 -67.05 -55.2 -66.2L-55.05 -65.4L-50.8 -65.4Q-52.2 -62.1 -52.45 -60.85L-52.45 -59.8L-48.5 -59.8L-48.45 -54.55L-47.2 -54.55Q-36.3 -58.05 -43.8 -60.35L-46.35 -60.9L-46.35 -61.05L-43.3 -64.25L-45.3 -63.7L-46.35 -63.7Q-45.85 -69.1 -40.7 -72.65Q-45.65 -72.6 -47.1 -71.3L-48.05 -71.3L-46.35 -72.95L-48.8 -72.8L-48.8 -73.2L-43.85 -77L-44.05 -77L-49.5 -77.15L-49.5 -77.65Q-44.95 -81.25 -42.1 -81.9L-39.2 -82L-37.15 -82L-29.75 -81.55Q-36 -79 -36.95 -77.4L-33.35 -77.4L-34.8 -76.1L-36.3 -74.65L-34.6 -74.65L-21.8 -77.1Q-26.85 -74.2 -29.2 -72.15Q-33.15 -68.9 -34.6 -66.7L-34.65 -66.45L-31.9 -67.15L-31.75 -67.3Q-32.15 -66.35 -33.3 -64.6L-34.15 -63L-33.35 -63L-32.25 -63.5L-30.85 -63.7L-28.6 -63.7Q-29.5 -63.65 -32 -59.85Q-34.45 -56.25 -33.65 -54.95L-27.25 -56.45L-27.05 -56.45Q-28.4 -55.2 -30.2 -51.45Q-31.9 -47.7 -29.65 -45.25L-35.3 -39.8L-40.7 -35.8Q-44.8 -33.35 -50.7 -34.25Q-47.75 -35.95 -46.7 -36.8Q-44.75 -38.45 -48.3 -38.45Q-52.75 -38.45 -59.35 -42.15Q-66.45 -46 -69.95 -51L-72.6 -58.25Q-73.5 -62.35 -72.7 -67.15Q-72.5 -69.1 -71.9 -71.2L-71.9 -71.3L-70.4 -72.1L-67.65 -73.45Q-67.35 -73.5 -67.15 -73.7L-66.8 -73.9L-65.45 -74.5L-61.95 -74.85M-53.85,-73.8L-53.75 -74.8Q-52.8 -75.4 -51.9 -74.8L-51.7 -74.05Q-51.9 -73.45 -52.45 -73.3L-53.75 -73.45L-53.85 -73.5L-53.85 -73.8M-25.1,-81.35Q-25.45 -79.65 -27.65 -80Q-28.2 -79.75 -28.4 -80.2L-28.6 -80.3Q-27.4 -82.25 -25.15 -81.4L-25.1 -81.35M-22,-76.65L-22.3 -76.7L-21.6 -76.7L-22 -76.65M-29.25,-66.75Q-28.35 -67.95 -26.75 -68.4Q-25.85 -68.55 -25.2 -68Q-25.2 -67.45 -25.85 -67.1L-27.1 -66.4Q-28.3 -65.9 -29.15 -66.7L-29.25 -66.75" />
<path style="fill:#B0E3F0;fill-opacity:1" d="M-23.95,-50.9Q-27.2 -48.4 -27.95 -46.8L-29.65 -45.25Q-31.9 -47.7 -30.2 -51.45Q-28.4 -55.2 -27.05 -56.45L-27.25 -56.45L-33.65 -54.95Q-34.45 -56.25 -32 -59.85Q-29.5 -63.65 -28.6 -63.7L-30.85 -63.7L-32.25 -63.5L-33.35 -63L-34.15 -63L-33.3 -64.6Q-32.15 -66.35 -31.75 -67.3L-31.9 -67.15L-34.65 -66.45L-34.6 -66.7Q-33.15 -68.9 -29.2 -72.15Q-26.85 -74.2 -21.8 -77.1L-34.6 -74.65L-36.3 -74.65L-34.8 -76.1L-33.35 -77.4L-36.95 -77.4Q-36 -79 -29.75 -81.55L-37.15 -82L-39.2 -82L-42.1 -81.9Q-44.95 -81.25 -49.5 -77.65L-49.5 -77.15L-44.05 -77L-43.85 -77L-48.8 -73.2L-48.8 -72.8L-46.35 -72.95L-48.05 -71.3L-47.1 -71.3Q-45.65 -72.6 -40.7 -72.65Q-45.85 -69.1 -46.35 -63.7L-45.3 -63.7L-43.3 -64.25L-46.35 -61.05L-46.35 -60.9L-43.8 -60.35Q-36.3 -58.05 -47.2 -54.55L-48.45 -54.55L-48.5 -59.8L-52.45 -59.8L-52.45 -60.85Q-52.2 -62.1 -50.8 -65.4L-55.05 -65.4L-55.2 -66.2Q-55.2 -67.05 -52.75 -69.5L-52.75 -69.8L-54.35 -70.05L-58.6 -69.5L-59.25 -69.65Q-59.25 -71.05 -55.6 -73.7L-55.6 -73.85Q-56 -73.85 -57.2 -74.4L-61.95 -74.85L-65.45 -74.5Q-56.5 -78.65 -46.7 -81.55L-44.25 -82.3Q-36.75 -84.4 -28.8 -85.85L-18.75 -85.85L-12.55 -85.15Q-13.8 -84.75 -21.8 -79.55L-21.8 -79.25Q-19.85 -80.3 -14.25 -81.25L-7.3 -81.9L-7.15 -81.9Q-10.9 -80.9 -16.6 -76.6Q-21.4 -73 -23.35 -70.7L-22.4 -70.7L-15.65 -71.9L-14.45 -72L-18.4 -68.9Q-12.2 -71.55 -9.35 -71.45Q-10.1 -71.35 -15.25 -68.1Q-20.2 -64.85 -24.1 -60.15L-17.05 -61.9L-16.85 -61.9Q-19.65 -60 -22.1 -55.3L-23.95 -50.9M-53.85,-73.5L-53.75 -73.45L-52.45 -73.3Q-51.9 -73.45 -51.7 -74.05L-51.9 -74.8Q-52.8 -75.4 -53.75 -74.8L-53.85 -73.8L-53.85 -73.5M-25.15,-81.4Q-27.4 -82.25 -28.6 -80.3L-28.4 -80.2Q-28.2 -79.75 -27.65 -80Q-25.45 -79.65 -25.1 -81.35L-25.15 -81.4M-21.6,-76.7L-22.3 -76.7L-22 -76.65L-21.6 -76.7M-29.15,-66.7Q-28.3 -65.9 -27.1 -66.4L-25.85 -67.1Q-25.2 -67.45 -25.2 -68Q-25.85 -68.55 -26.75 -68.4Q-28.35 -67.95 -29.25 -66.75L-29.15 -66.7" />
<path style="fill:#1179C2;fill-opacity:1" d="M-22.1,-55.3Q-19.65 -60 -16.85 -61.9L-17.05 -61.9L-24.1 -60.15Q-20.2 -64.85 -15.25 -68.1Q-10.1 -71.35 -9.35 -71.45Q-12.2 -71.55 -18.4 -68.9L-14.45 -72L-15.65 -71.9L-22.4 -70.7L-23.35 -70.7Q-21.4 -73 -16.6 -76.6Q-10.9 -80.9 -7.15 -81.9L-7.3 -81.9L-14.25 -81.25Q-19.85 -80.3 -21.8 -79.25L-21.8 -79.55Q-13.8 -84.75 -12.55 -85.15L-18.75 -85.85L-28.8 -85.85L-15.5 -87.8L9.6 -89.05L10.2 -89.05L15.6 -89L31.4 -88.15Q3.15 -82.05 -2.6 -77.6L9.45 -78.2L19.9 -77.3L6.8 -72.8Q1.4 -70.7 -2.6 -68.8Q-6.25 -67.05 -8.85 -65.4Q-10.7 -64.15 -12.7 -63L-4 -62.7Q-16.5 -56.2 -22.5 -51.9L-23.95 -50.9L-22.1 -55.3" />
<path style="fill:#1179C2;fill-opacity:0.698039" d="M92.5,-27.3L92.8 -29.15Q93.35 -36 92.1 -40Q83.5 -67.15 49.4 -74.8Q31.65 -78.8 14.75 -77L13.7 -77.4Q27.05 -81.55 40.8 -80.4Q48.15 -79.75 51.8 -78.7Q43.05 -85.1 18.15 -86.15L2.45 -86.05L17.85 -90L33.25 -92.15Q55.6 -88.1 73.55 -78Q103.8 -61.1 103.9 -37.15Q104 -13.15 73.75 3.75Q70.9 5.45 68 6.85Q83.25 -3.05 89.4 -15.3Q90.25 -16.9 90.9 -19Q91.9 -22.55 92.5 -27.3M72.45,-5.65Q63.85 -0.45 54.55 3.6Q2.25 26.5 -53.15 4.5Q-19.9 14.65 25.4 6.65L36.95 4.3Q56.75 0 72.45 -5.65" />
<path style="fill:#BCDFE9;fill-opacity:0.498039" d="M60.8,-42.75Q52.6 -40.6 42.2 -36L41.75 -37.65Q41.75 -36.4 37.85 -37.4Q32.5 -38.8 30.45 -38.65Q29.1 -38.6 29.35 -44.45Q29.7 -54.05 29.4 -57.5Q28.25 -72.65 14.75 -77Q31.65 -78.8 49.4 -74.8Q83.5 -67.15 92.1 -40Q93.35 -36 92.8 -29.15Q89.6 -50.35 60.8 -42.75" />
<path style="fill:#F8F8F8;fill-opacity:0.2" d="M36.95,4.3L25.4 6.65L13.55 6.45Q-18.35 5.15 -45.2 -5.05L-28.75 -5.2Q-10.65 -5.75 3.6 -8.2Q47.15 -15.45 42.2 -36Q52.6 -40.6 60.8 -42.75Q89.6 -50.35 92.8 -29.15L92.5 -27.3Q91.9 -22.55 90.9 -19L84.95 -14.3Q78.85 -9.65 72.45 -5.65Q56.75 0 36.95 4.3" />
</g>
</svg>
