<?xml version="1.0" encoding="utf-8"?>
<svg version="1.1" id="Layer_1"
xmlns="http://www.w3.org/2000/svg"
xmlns:xlink="http://www.w3.org/1999/xlink"
xmlns:author="http://www.sothink.com"
width="80px" height="33px"
xml:space="preserve">
<g id="3170" transform="matrix(1, 0, 0, 1, 80.8, 17.95)">
<path style="fill:#FFFFFF;fill-opacity:1" d="M-72.75,-1.25L-72.25 -0.25L-71.85 0.75L-72.05 1L-72.65 0.35Q-73.3 -0.2 -73.7 -0.15L-72.75 -1.25M-64.4,-9.1Q-63.55 -9.15 -62.5 -10.25L-61.5 -11.3Q-60.6 -10.75 -59.9 -10.55Q-60.4 -10 -61.3 -9.8L-64.25 -9.1L-64.4 -9.1M-58.5,-15.55L-58.3 -15.85L-57.35 -16.65L-55.15 -15.8L-58.5 -15.55M-40.75,-4.65L-39.25 -4.5L-39.55 -3.3L-40.6 -3.35L-41.8 -3.55Q-41.25 -3.6 -41 -4.15L-40.75 -4.65M-45.5,-5.1Q-46.7 -5 -51.35 -1.65L-48.65 -4.9L-45.5 -5.1M-45.75,-7.6L-42.75 -7.3L-42.75 -6.8L-45.75 -6.6L-45.75 -7.6M-14,-17.5L-12.5 -16.35L-12.7 -16.35L-13.5 -15.85L-17.3 -16.3L-17.1 -16.3Q-16.7 -16.5 -15.9 -17.25L-14.95 -17.95L-14 -17.5M-12.5,-6.3L-11.5 -6.35L-10.95 -5.25L-10.8 -5.1L-11.3 -4.8L-12.5 -5.4L-14.05 -5.95L-12.5 -6.3M-7.85,-2.6L-3.9 -3.05L-1.9 -2.95L-1.7 -2.45L-2.3 -2.4L-2.3 -2.15L-1.1 -2.25L-0.85 -2L-1.6 -0.8L-1.45 -0.3L-2.7 -0.1L-2.2 -0.9Q-2.6 -1.35 -5.3 -2.1L-7.85 -2.6M-19.75,8.65Q-19.05 8.65 -17.9 7.45L-17.25 9.15L-19.75 8.65M-35,4.8L-35.15 4.8L-33.45 4.2L-33.4 5.7L-33.65 5.85Q-33.8 5.7 -33.95 5.65L-35 4.8M-37.9,9.8L-33.35 9.55L-34.75 10.85L-36.2 10.3Q-36.95 9.8 -37.9 9.8M-39.6,7L-40.55 6.4Q-39.6 6.1 -39.2 5.8L-39.2 7L-39.2 7.15L-39.6 7M-30.45,13.55Q-30.45 14.15 -29.9 14.5Q-29.55 14.9 -29.15 14.8L-29.2 15L-30.2 15.05L-33.5 14.75L-32.05 14.3L-30.45 13.55M-79.15,2L-80.8 2.9L-80.1 2.25Q-78.65 0.75 -78.5 -0.1L-78.5 0.15L-76.1 0.25L-76.5 1.4L-76.7 1.9L-76.8 1.8L-77.45 1.35Q-77.95 1.35 -79.15 2" />
</g>
</svg>
