<?xml version="1.0" encoding="utf-8"?>
<svg version="1.1" id="Layer_1"
xmlns="http://www.w3.org/2000/svg"
xmlns:xlink="http://www.w3.org/1999/xlink"
xmlns:author="http://www.sothink.com"
width="36px" height="17px"
xml:space="preserve">
<g id="1228" transform="matrix(1, 0, 0, 1, 0, 0)">
<path style="fill:#5F5F5F;fill-opacity:1" d="M30,3.3Q28.55 3.3 27.7 4.75Q27.15 5.65 27.05 6.5L27.05 6.85L27.9 6.15Q28 6.4 28.35 6.15Q28.35 6.45 28.65 6.45L30.05 6.05Q31.05 5.6 32.1 5.6Q33.85 5.6 34.1 6.4L33.5 6.35Q31.5 6.35 29.75 7.3Q28.35 8.1 27.35 9.3L26.55 10.45Q26.2 10.85 25.85 10.85L24.95 10.25Q24.1 9.15 24.1 6.75Q24.1 5.85 24.45 5L24.85 4.5L24.9 4.45L25.45 3.9L25.45 3.85L26.55 3.25L27.85 2.5Q28.7 2.05 29.45 2.05Q30.4 2.05 30.9 2.55L31.2 2.95L31.05 3.15L30.4 3.35L30 3.3M17.7,9.9L17.3 9.9L13.25 9.3L12.3 8.9Q12.4 7.5 13.15 6L15.25 6.15Q17.55 6.4 18.65 7.2Q17.95 8.3 17.7 9.9M8.8,14.4L9.35 12.35L14.25 12.85L17.6 12.8L17.9 14.05L17.85 14.05L14.6 14.3L8.8 14.4" />
<path style="fill:#191919;fill-opacity:1" d="M23,13.85L25.4 13.7Q27.4 13.8 28.4 12.05L29 11L30 9.35Q30.55 8.4 32.65 7.75Q34.25 7.2 34.45 6.4L34.4 5.9Q34 4.75 31.95 4.6Q30.05 4.5 28.95 5.5L28.75 5.75L28.35 6.15Q28 6.4 27.9 6.15L27.95 5.45Q28.15 4.05 30.4 3.35L31.05 3.15L31.2 2.95Q31.8 1.8 30.9 1.4Q28.5 0.95 26.05 3.25L25.45 3.85L25.45 3.9L24.9 4.45L24.85 4.5L24.45 5L24.05 5.45Q23.95 4.35 23.25 4.4L23.4 4.35L23.3 4.35Q24.45 2.35 26.15 1.25Q28.25 -0.15 30.95 0.05Q34 0.3 33.05 3.2L33.8 3.55L35.15 4.6Q35.85 5.4 36 6.15L36 7.1Q35.85 7.95 35.15 8.45Q34.1 9.2 32.85 9.5Q31.6 9.8 30.05 12.65Q28.5 15.45 25.85 15.2L23.25 14.95L23 13.85M14.6,14.3L17.85 14.05L17.9 14.05L18.6 15.35L7.8 15.75L7.75 15.75L8 15.5L8.05 15.45L8.1 15.4L8 15.45L8.35 15.2L8.8 14.4L14.6 14.3M14.7,3.85Q17.75 3.95 20.55 5.4Q20.1 5.7 19.5 6.15L16.4 5.25L13.85 4.85L13.55 4.8L14.5 4L14.7 3.85M8.6,15.5L8.6 15.45L8.55 15.5L8.6 15.5" />
<path style="fill:#7B7B7B;fill-opacity:1" d="M26.05,3.25Q28.5 0.95 30.9 1.4Q31.8 1.8 31.2 2.95L30.9 2.55Q30.4 2.05 29.45 2.05Q28.7 2.05 27.85 2.5L26.55 3.25L25.45 3.85L26.05 3.25M34.1,6.4Q33.85 5.6 32.1 5.6Q31.05 5.6 30.05 6.05L28.65 6.45Q28.35 6.45 28.35 6.15L28.75 5.75L28.95 5.5Q30.05 4.5 31.95 4.6Q34 4.75 34.4 5.9L34.45 6.4L34.1 6.4M18.65,7.2Q17.55 6.4 15.25 6.15L13.15 6L13.85 4.85L16.4 5.25L19.5 6.15Q19 6.6 18.65 7.2" />
<path style="fill:#792E0A;fill-opacity:1" d="M17.6,12.8L17.55 12.3Q17.5 11.5 17.6 10.75L17.7 9.9Q17.95 8.3 18.65 7.2Q19 6.6 19.5 6.15Q20.1 5.7 20.55 5.4Q21.55 4.7 22.35 4.55L23.3 4.35L23.4 4.35L23.25 4.4Q23.95 4.35 24.05 5.45L24.45 5Q24.1 5.85 24.1 6.75Q24.1 9.15 24.95 10.25L25.85 10.85Q26.2 10.85 26.55 10.45L27.35 9.3Q28.35 8.1 29.75 7.3Q31.5 6.35 33.5 6.35L34.1 6.4L34.45 6.4Q34.25 7.2 32.65 7.75Q30.55 8.4 30 9.35L29 11L28.4 12.05Q27.4 13.8 25.4 13.7L23 13.85L23.25 14.95L23.25 15.05Q23.4 15.35 22.75 15.95Q22.1 16.55 20.75 16.4Q19.35 16.2 18.6 15.35L17.9 14.05L17.6 12.8M8.8,14.4L8.35 15.2L8 15.45L8.1 15.4L8.05 15.45L8 15.5L7.75 15.75L7.7 15.8L6.6 16.35L3.4 16.65Q1.7 16.35 0.6 15.75L0.65 15.75Q-0.55 15 0.55 11.95Q1.65 8.9 4.9 5.6Q8.15 2.25 10.35 1.95L13.35 2.05Q14.15 2.4 14.5 2.85Q14.8 3.3 14.7 3.85L14.5 4L13.55 4.8L12.6 6.05L11.1 8.35Q10.35 9.65 9.85 11.05L9.35 12.35L8.8 14.4M18.8,9.85Q18.65 10.65 18.65 11.65L18.65 12.75L18.95 14.15Q19.15 14.6 19.45 14.85Q20.25 15.45 21.05 15.3L22.1 14.7L21.7 13.6L21.55 12.55L21.5 11.7L21.5 11.4L21.7 9.35Q22.05 7.5 22.5 6.5Q22.95 5.45 22.05 5.65Q21.1 5.85 19.9 7.45L19.05 9.05L18.85 9.6L18.8 9.85M5.5,6.8L5.35 7L4 8.75Q2.25 11.2 1.7 12.75Q1.1 14.25 1.7 14.9Q4.5 16.4 7.3 14.45L7.6 13.6L7.95 12.45L8.15 11.8L8.35 11.3Q8.9 9.7 9.2 9.2L9.85 7.9L10.65 6.45L11.2 5.65L11.5 5.3L12.2 4.55Q13.05 3.75 12.95 3.35Q12.85 2.95 11.5 2.85Q10.55 2.75 9.2 3.55L8.1 4.3L7.25 5.05L5.5 6.8M8.55,15.5L8.6 15.45L8.6 15.5L8.55 15.5" />
<path style="fill:#353535;fill-opacity:1" d="M27.9,6.15L27.05 6.85L27.05 6.5Q27.15 5.65 27.7 4.75Q28.55 3.3 30 3.3L30.4 3.35Q28.15 4.05 27.95 5.45L27.9 6.15M12.3,8.9L13.25 9.3L17.3 9.9L17.7 9.9L17.6 10.75Q17.5 11.5 17.55 12.3L17.6 12.8L14.25 12.85L9.35 12.35L9.85 11.05Q10.35 9.65 11.1 8.35L12.6 6.05L13.55 4.8L13.85 4.85L13.15 6Q12.4 7.5 12.3 8.9" />
<path style="fill:#BF7A24;fill-opacity:1" d="M21.5,11.7L21.45 11.7Q21.05 12.55 20.1 12.55L19.95 12.55Q19 12.35 18.85 9.85L18.85 9.6L19.05 9.05Q19.85 7.6 20.95 7.3L21.45 7.3L21.45 7.4L21.35 8.9L21.35 9.85L21.5 11.4L21.5 11.7M22.1,14.7L21.05 15.3Q20.25 15.45 19.45 14.85Q19.15 14.6 18.95 14.15L19.05 14.15L21.5 13.7L21.7 13.6L22.1 14.7M7.45,11.35Q5.65 11.35 4.95 10.75Q4.45 10.3 4.45 9.35Q4.45 8.6 4.95 7.7L5.5 6.8L7.25 5.05Q8.9 3.9 9.95 3.9Q11.75 3.9 11.75 4.55L11.5 5.3L11.2 5.65L10.65 6.45L9.85 7.9L9.2 9.2Q8.9 9.7 8.35 11.3L7.45 11.35M2.25,13.2Q3.2 14 4.8 14L7.6 13.6L7.3 14.45Q4.5 16.4 1.7 14.9Q1.1 14.25 1.7 12.75L2.25 13.2" />
<path style="fill:#E5AA38;fill-opacity:1" d="M19.9,7.45Q21.1 5.85 22.05 5.65Q22.95 5.45 22.5 6.5Q22.05 7.5 21.7 9.35L21.5 11.4L21.35 9.85L21.35 8.9L21.45 7.4L21.45 7.3L20.95 7.3Q19.85 7.6 19.05 9.05L19.9 7.45M11.75,4.55Q11.75 3.9 9.95 3.9Q8.9 3.9 7.25 5.05L8.1 4.3L9.2 3.55Q10.55 2.75 11.5 2.85Q12.85 2.95 12.95 3.35Q13.05 3.75 12.2 4.55L11.5 5.3L11.75 4.55" />
<path style="fill:#A66221;fill-opacity:1" d="M18.85,9.6L18.85 9.85Q19 12.35 19.95 12.55L20.1 12.55Q21.05 12.55 21.45 11.7L21.5 11.7L21.55 12.55L21.7 13.6L21.5 13.7L19.05 14.15L18.95 14.15L18.65 12.75L18.65 11.65Q18.65 10.65 18.8 9.85L18.85 9.6M1.7,12.75Q2.25 11.2 4 8.75L5.35 7L5.5 6.8L4.95 7.7Q4.45 8.6 4.45 9.35Q4.45 10.3 4.95 10.75Q5.65 11.35 7.45 11.35L8.35 11.3L8.15 11.8L7.95 12.45L7.6 13.6L4.8 14Q3.2 14 2.25 13.2L1.7 12.75" />
</g>
</svg>
