<?xml version="1.0" encoding="utf-8"?>
<svg version="1.1" id="Layer_1"
xmlns="http://www.w3.org/2000/svg"
xmlns:xlink="http://www.w3.org/1999/xlink"
xmlns:author="http://www.sothink.com"
width="47px" height="48px"
xml:space="preserve">
<g id="3125" transform="matrix(1, 0, 0, 1, 0, 0)">
<path style="fill:#DB2AF0;fill-opacity:1" d="M46.75,10.4L46.15 10.75L45.45 10.3L45.35 9.85L45.55 9.3Q45.8 9.1 46.15 9.1Q46.95 9.1 46.9 9.8L46.75 10.4M10.6,4.35Q9.75 4.35 9.55 3.5L9.5 2.9L9.55 2.6Q9.55 1.8 9.8 1.15Q10.25 0 11.25 0Q11.8 0 12.05 0.3L12.2 0.75L11.75 2.75Q11.2 4.35 10.6 4.35M17.4,24.5Q17.4 25.75 16.05 25.75Q15.05 25.75 14.65 24.7L14.5 24L14.5 23.65Q14.5 23.4 15.05 22.35Q15.7 21.25 15.95 21.25Q16.85 21.25 17.4 24.5M0,46.65L0.3 46Q0.65 45.55 1.05 45.55Q1.85 45.55 2 47.15Q2 47.9 1.15 47.9Q0.45 47.9 0.15 47.3L0 46.65M40.45,31.05Q40.8 31.2 40.8 31.6L40.45 31.95L40.15 31.85L40.1 31.5L40.2 31.15L40.45 31.05M36.2,42.45L35.85 41.65Q35.85 41.25 36.3 40.35Q36.8 39.45 37.15 39.45Q38.3 39.45 38.7 40.4L38.85 41.45Q38.85 43.25 37.05 43.25Q36.6 43.25 36.2 42.45" />
</g>
</svg>
