<?xml version="1.0" encoding="utf-8"?>
<svg version="1.1" id="Layer_1"
xmlns="http://www.w3.org/2000/svg"
xmlns:xlink="http://www.w3.org/1999/xlink"
xmlns:author="http://www.sothink.com"
width="29px" height="17px"
xml:space="preserve">
<g id="141" transform="matrix(1, 0, 0, 1, 1.25, 0.4)">
<path style="fill:#FFFFFF;fill-opacity:1" d="M26.55,-0.2L22.8 5.45L27.5 15.5L23.5 15.5L20.4 8.7L18.15 11.9L18.15 15.5L14.6 15.5L14.6 -0.2L18.15 -0.2L18.15 7.2L23.1 -0.2L26.55 -0.2M12.15,7.65Q12.15 11.05 10.4 13.4Q8.7 15.75 5.4 15.75Q2.25 15.75 0.55 13.4Q-1.25 10.95 -1.25 7.65Q-1.25 4.15 0.55 1.85Q2.3 -0.4 5.55 -0.4Q8.8 -0.4 10.45 2.05Q12.15 4.5 12.15 7.65M2.6,7.7Q2.6 12.75 5.55 12.75Q8.3 12.75 8.3 7.7Q8.3 2.55 5.55 2.55Q2.6 2.55 2.6 7.7" />
</g>
</svg>
