<?xml version="1.0" encoding="utf-8"?>
<svg version="1.1" id="Layer_1"
xmlns="http://www.w3.org/2000/svg"
xmlns:xlink="http://www.w3.org/1999/xlink"
xmlns:author="http://www.sothink.com"
width="211px" height="101px"
xml:space="preserve">
<g id="2785" transform="matrix(1, 0, 0, 1, 108.9, 86.4)">
<path style="fill:#F8F8F8;fill-opacity:1" d="M-37.5,-32.9Q-42.5 -28.35 -42.8 -28.3L-49.85 -22Q-57.7 -16.05 -59.8 -18.85Q-61.9 -21.7 -64.4 -21.95L-67.2 -22.3Q-67.7 -22.45 -70.2 -20.95Q-76.95 -16.9 -87.6 -18.8Q-97.75 -20.65 -107 -28.05Q-108.9 -32.65 -108.9 -37.65L-108.9 -39.15Q-108.6 -44.7 -105.85 -49.95Q-105.45 -39.85 -103.45 -36.3Q-100.75 -53.6 -95.7 -54.15L-96.3 -52.85Q-97.15 -51.5 -97.15 -49.1Q-97.15 -47.35 -96.2 -44.4L-95.1 -41.2L-93.15 -43.5Q-91.65 -45.15 -90.75 -45.45L-90 -41.7L-89.2 -38.05Q-87.75 -38.7 -87.6 -40.15L-87.2 -40.55Q-87.2 -39.25 -84.6 -33.2L-82 -27.25L-81.6 -27.25Q-81.6 -31.35 -81.15 -32.8L-81.05 -32.9Q-80.9 -32.95 -80.9 -33.15L-76.6 -30.25Q-73.2 -28.1 -72.35 -27.35Q-72.9 -29.1 -72.9 -30.4Q-72.9 -31.75 -72 -33.15Q-70.85 -33.15 -68.3 -31.7Q-66.25 -30.45 -64.95 -29.35Q-64.95 -31.1 -65.35 -31.75L-65.35 -33.85L-59.75 -29.6L-59.75 -32.1Q-60.15 -32.8 -60.15 -34.25L-60.55 -34.9L-54.65 -30.4Q-54.5 -33.9 -52.65 -37.05Q-51.4 -39.2 -49.55 -40.6L-49.05 -41Q-48.6 -39.1 -45.65 -38Q-44 -37.4 -42.3 -37.25Q-40.35 -34.4 -37.5 -32.9M-86.85,-46Q-89.3 -46.85 -87.2 -49L-86.85 -49.15Q-84.6 -47.4 -86.85 -46.05L-86.85 -46M-83.25,-37.9Q-78.3 -37.95 -80.5 -34.85L-80.5 -34.8Q-82.65 -35.65 -83.4 -37.55L-83.25 -37.9M-71,-38.25Q-67.65 -38.55 -69.05 -35.75L-69.35 -35.45Q-71.8 -36.25 -71.25 -38L-71 -38.25M-72,-26.85L-72 -27.25L-72.35 -27.35L-72 -26.85" />
<path style="fill:#B8E0F0;fill-opacity:1" d="M-72.35,-27.35L-72 -27.25L-72 -26.85L-72.35 -27.35" />
<path style="fill:#E6B0F0;fill-opacity:1" d="M-43.75,-39.9L-42.3 -37.25Q-44 -37.4 -45.65 -38Q-48.6 -39.1 -49.05 -41L-49.55 -40.6Q-51.4 -39.2 -52.65 -37.05Q-54.5 -33.9 -54.65 -30.4L-60.55 -34.9L-60.15 -34.25Q-60.15 -32.8 -59.75 -32.1L-59.75 -29.6L-65.35 -33.85L-65.35 -31.75Q-64.95 -31.1 -64.95 -29.35Q-66.25 -30.45 -68.3 -31.7Q-70.85 -33.15 -72 -33.15Q-72.9 -31.75 -72.9 -30.4Q-72.9 -29.1 -72.35 -27.35Q-73.2 -28.1 -76.6 -30.25L-80.9 -33.15Q-80.9 -32.95 -81.05 -32.9L-81.15 -32.8Q-81.6 -31.35 -81.6 -27.25L-82 -27.25L-84.6 -33.2Q-87.2 -39.25 -87.2 -40.55L-87.6 -40.15Q-87.75 -38.7 -89.2 -38.05L-90 -41.7L-90.75 -45.45Q-91.65 -45.15 -93.15 -43.5L-95.1 -41.2L-96.2 -44.4Q-97.15 -47.35 -97.15 -49.1Q-97.15 -51.5 -96.3 -52.85L-95.7 -54.15Q-100.75 -53.6 -103.45 -36.3Q-105.45 -39.85 -105.85 -49.95Q-102.8 -55.8 -96.65 -61Q-89.9 -64.05 -85.95 -64.8Q-91.9 -60.4 -88.75 -52.05Q-87.1 -55.95 -78.15 -60.75Q-81.55 -54.2 -81.1 -48.8Q-80.9 -43.4 -77.85 -38.7Q-73.85 -43.35 -70.5 -45.05L-69.9 -43.25L-68.9 -41.55L-68.45 -41.9L-66.25 -44.7L-64.15 -47.15L-64.15 -46.8Q-64.95 -45.15 -63.4 -42.5L-61 -39.15Q-61 -41 -59.05 -43.5Q-56.8 -46.15 -54.65 -46.5L-53.8 -43.35L-53 -43.35Q-52.35 -43.55 -50.5 -45.65L-48.65 -47.85Q-48.65 -46.75 -48.05 -45.15L-48 -45.35L-45.05 -46.95Q-45.2 -43.25 -43.75 -39.9M-86.85,-46.05Q-84.6 -47.4 -86.85 -49.15L-87.2 -49Q-89.3 -46.85 -86.85 -46L-86.85 -46.05M-83.4,-37.55Q-82.65 -35.65 -80.5 -34.8L-80.5 -34.85Q-78.3 -37.95 -83.25 -37.9L-83.4 -37.55M-71.25,-38Q-71.8 -36.25 -69.35 -35.45L-69.05 -35.75Q-67.65 -38.55 -71 -38.25L-71.25 -38" />
<path style="fill:#AF21F3;fill-opacity:1" d="M-73,-74.8Q-62.2 -79.4 -50.1 -82.65Q-64 -72.7 -69.2 -61.15Q-71.45 -55.8 -71.75 -50.7L-70.2 -49Q-70.9 -50.5 -63 -56.85Q-57.05 -61.75 -52.65 -64.05Q-55 -62.05 -58.05 -54.65Q-61.05 -47.4 -60.3 -47.9Q-55.75 -55.15 -46.9 -59.8L-38.75 -63Q-44.95 -54.2 -45.05 -46.95L-48 -45.35L-48.05 -45.15Q-48.65 -46.75 -48.65 -47.85L-50.5 -45.65Q-52.35 -43.55 -53 -43.35L-53.8 -43.35L-54.65 -46.5Q-56.8 -46.15 -59.05 -43.5Q-61 -41 -61 -39.15L-63.4 -42.5Q-64.95 -45.15 -64.15 -46.8L-64.15 -47.15L-66.25 -44.7L-68.45 -41.9L-68.9 -41.55L-69.9 -43.25L-70.5 -45.05Q-73.85 -43.35 -77.85 -38.7Q-80.9 -43.4 -81.1 -48.8Q-81.55 -54.2 -78.15 -60.75Q-87.1 -55.95 -88.75 -52.05Q-91.9 -60.4 -85.95 -64.8Q-89.9 -64.05 -96.65 -61Q-87.85 -68.45 -73 -74.8" />
<path style="fill:#F8F8F8;fill-opacity:0.2" d="M60.85,-13.4Q52.4 -8.5 41.35 -5.5Q33.65 -3.35 31.05 -3.35Q47.55 -8.1 55 -16.9Q58.7 -21.3 59.45 -24Q65.55 -39.05 50.35 -49.8Q40.75 -56.6 30.1 -58.65Q10.5 -65.3 -1.25 -57.1Q-5.05 -54.6 -7.45 -50.85L-8.35 -49.25Q-14.05 -52.15 -19.95 -55.8Q-36.95 -66.45 -40.7 -76.4Q-13.8 -87.15 23.75 -84.85Q50.15 -81.55 70.75 -71Q57.4 -74.45 36.55 -73.05L33.45 -72.8Q48.35 -72.35 62.65 -65.75Q71.6 -61.6 76.75 -57.35Q87 -29.05 60.85 -13.4" />
<path style="fill:#AF21F3;fill-opacity:0.701961" d="M71.15,-70.75Q101.5 -55.2 101.55 -33.1Q101.6 -15.2 81.55 -1.5Q59.95 8.9 36.1 12.25L18.4 13.65Q12.7 13.6 11.7 13.7Q88.35 0.9 90.45 -29.25Q91.1 -38.8 84.15 -48.9L76.75 -57.35Q71.6 -61.6 62.65 -65.75Q48.35 -72.35 33.45 -72.8L36.55 -73.05Q57.4 -74.45 70.75 -71L71.15 -70.75M-60.85,-65.5Q-73.9 -56.25 -81.9 -43.7L-82.85 -42.05L-86.15 -40.3Q-96.45 -34.4 -104.5 -26.1L-104.5 -26.05Q-105.4 -29.55 -105.4 -33.1Q-105.45 -55.2 -75.2 -70.75Q-44.85 -86.4 -2.05 -86.4L23.75 -84.85Q-13.8 -87.15 -40.7 -76.4Q-51.65 -72.05 -60.85 -65.5" />
<path style="fill:#E6B0F0;fill-opacity:0.501961" d="M-9.25,-47.65Q-50.8 -58.7 -82.85 -42.05L-81.9 -43.7Q-73.9 -56.25 -60.85 -65.5Q-51.65 -72.05 -40.7 -76.4Q-36.95 -66.45 -19.95 -55.8Q-14.05 -52.15 -8.35 -49.25L-9.25 -47.65" />
</g>
</svg>
