<?xml version="1.0" encoding="utf-8"?>
<svg version="1.1" id="Layer_1"
xmlns="http://www.w3.org/2000/svg"
xmlns:xlink="http://www.w3.org/1999/xlink"
xmlns:author="http://www.sothink.com"
width="43px" height="48px"
xml:space="preserve">
<g id="471" transform="matrix(1, 0, 0, 1, 5.25, 1.7)">
<path style="fill:#5F1000;fill-opacity:1" d="M19.9,-1.6L19.85 -1.65L20.05 -1.7L19.9 -1.6" />
<path style="fill:#5F1A00;fill-opacity:1" d="M19.85,16.45L18.3 16.1Q17.85 15.95 17.5 15.6L16.85 14.65L16.55 14.05Q16.1 13 16.1 12.6L16.1 12.5Q16.35 11.85 17.55 10.1Q18.8 8.2 22.35 5.7Q26 3.05 30.8 2.1L33.15 2L35.45 2.35Q37.6 3 37.15 5.95Q36.8 8.8 35.75 9.35Q34.75 9.9 33.95 10L32.65 9.8L31.75 8.9L28.8 9.1Q26.3 9.75 23.2 12.45Q20.4 14.95 19.85 16.3L19.85 16.45M27.45,4.95L27.2 5Q23.2 6.65 21.25 8.5Q18.95 10.25 18.3 11.3Q17.8 12.15 17.85 12.9L18.05 13.2L18.4 13.85Q18.8 14.2 19.45 14.2L19.9 13.8Q23.65 8.65 30 7.25Q32.45 6.8 33.7 7.85Q34.9 8.3 35.15 6.55Q35.45 4.25 34 3.7L32.15 3.7Q30.2 3.7 27.45 4.95M16.55,12.75L16.45 12.65L16.5 12.75L16.55 12.75" />
<path style="fill:#9F1E1E;fill-opacity:1" d="M19.9,12.1L22.7 9.55Q27.05 6 31.85 5.55Q31.75 4.95 32.15 3.7L34 3.7Q35.45 4.25 35.15 6.55Q34.9 8.3 33.7 7.85Q32.45 6.8 30 7.25Q23.65 8.65 19.9 13.8L19.45 14.2Q18.8 14.2 18.4 13.85L19.9 12.1" />
<path style="fill:#D23F4E;fill-opacity:1" d="M27.2,5L27.45 4.95Q30.2 3.7 32.15 3.7Q31.75 4.95 31.85 5.55Q27.05 6 22.7 9.55L19.9 12.1L18.4 13.85L18.05 13.2L17.85 12.9L18 12.75Q18.2 12.2 20.55 9.95Q22.85 7.6 24 7.1L27.2 5" />
<path style="fill:#F7747A;fill-opacity:1" d="M24,7.1Q22.85 7.6 20.55 9.95Q18.2 12.2 18 12.75L17.85 12.9Q17.8 12.15 18.3 11.3Q18.95 10.25 21.25 8.5Q23.2 6.65 27.2 5L24 7.1" />
<linearGradient
id="LinearGradID_653" gradientUnits="userSpaceOnUse" gradientTransform="matrix(0.0104523, -0.0196075, -0.0087738, -0.00468445, 8.45, 39.85)" spreadMethod ="pad" x1="-819.2" y1="0" x2="819.2" y2="0" >
<stop  offset="0.00392157" style="stop-color:#917162;stop-opacity:1" />
<stop  offset="1" style="stop-color:#E2CEBF;stop-opacity:1" />
</linearGradient>
<path style="fill:url(#LinearGradID_653) " d="M11.25,35.95L4.5 35.5L6.8 35.5Q15.05 35.15 19.45 30.25L22 27Q22.7 25.6 22.9 24.1L22.85 24.1Q24.5 23.65 25.9 22.7L26.15 22.6Q26 24 25.45 25.1Q22.15 32.3 14.7 35.25L13.95 35.6L11.25 35.95" />
<path style="fill:#931A26;fill-opacity:1" d="M17.45,29Q18.15 27.75 18.2 26.3L18.1 25.2Q15.8 23.75 13.5 20.5Q13.45 20.1 13.55 19.7Q13.6 19.05 13.8 18.3L14.4 19.55L14.5 19.6Q17.8 23.9 22.85 24.1L22.9 24.1Q22.7 25.6 22 27L19.45 30.25Q15.05 35.15 6.8 35.5Q15.1 33.3 17.45 29M14.5,20.7Q15.95 22.8 17.95 24.15L19.2 25.05Q19.35 26 18.65 28.35Q17.8 30.75 14.9 32.85L17.25 31.4Q20.8 28.85 21.45 25.7L21.55 24.8Q19.8 24.85 16.85 22.65L14.5 20.7" />
<path style="fill:#705D54;fill-opacity:1" d="M16.35,14.15Q14.35 15.7 13.8 18.3Q13.6 19.05 13.55 19.7Q13.45 20.1 13.5 20.5L13.5 21.05Q13.6 25.35 11.7 28.35L11.15 29.2Q8.7 32.4 5.7 33.8Q2.7 35.1 1.6 35.05L1.8 35.2Q3.4 36.4 5.5 36.65Q9.85 37 13.95 35.6L14.7 35.25Q22.15 32.3 25.45 25.1Q26 24 26.15 22.6L25.9 22.7Q24.65 22.95 22.55 22.1Q20.3 21.15 19.35 19.3L19.25 19.1Q18.25 17.2 18.3 16.1L19.85 16.45L19.85 16.3Q20.4 18.1 21.2 19.1Q23.05 21.7 27.1 20.7L28.1 20.4Q28.3 25.75 24.3 30.35Q20.4 35 15 37.05Q10.15 38.85 5.55 38.15Q1.05 37.5 -1.9 34.45Q1.95 34.3 6.8 30.8Q11.75 27.4 12 21.55L12.05 19.85L12.35 18.65L12.75 16.55Q13.35 14.7 14.35 13.8Q15.35 12.8 16.1 12.5L16.1 12.6Q16.1 13 16.55 14.05L16.35 14.15" />
<linearGradient
id="LinearGradID_654" gradientUnits="userSpaceOnUse" gradientTransform="matrix(-0.00628662, -0.00628662, -0.00259399, 0.00262451, 20.9, 21.9)" spreadMethod ="pad" x1="-819.2" y1="0" x2="819.2" y2="0" >
<stop  offset="0.00392157" style="stop-color:#917162;stop-opacity:1" />
<stop  offset="1" style="stop-color:#E2CEBF;stop-opacity:1" />
</linearGradient>
<path style="fill:url(#LinearGradID_654) " d="M14.5,19.6L14.4 19.55L13.8 18.3Q14.35 15.7 16.35 14.15L16.55 14.05L16.85 14.65L17.5 15.6Q17.85 15.95 18.3 16.1Q18.25 17.2 19.25 19.1L19.35 19.3Q20.3 21.15 22.55 22.1Q24.65 22.95 25.9 22.7Q24.5 23.65 22.85 24.1Q17.8 23.9 14.5 19.6" />
<path style="fill:#504038;fill-opacity:1" d="M16.5,12.75L16.45 12.65L16.55 12.75L16.5 12.75" />
<linearGradient
id="LinearGradID_655" gradientUnits="userSpaceOnUse" gradientTransform="matrix(-0.0120392, 0.00564575, 0.00288391, 0.00617981, 20.15, 23.6)" spreadMethod ="pad" x1="-819.2" y1="0" x2="819.2" y2="0" >
<stop  offset="0.00392157" style="stop-color:#917162;stop-opacity:1" />
<stop  offset="1" style="stop-color:#E2CEBF;stop-opacity:1" />
</linearGradient>
<path style="fill:url(#LinearGradID_655) " d="M11.7,28.35Q13.6 25.35 13.5 21.05L13.5 20.5Q15.8 23.75 18.1 25.2L18.2 26.3Q18.15 27.75 17.45 29Q15.1 33.3 6.8 35.5L4.5 35.5Q9.95 33.45 11.7 28.35" />
<path style="fill:#BD3C49;fill-opacity:1" d="M16.85,22.65Q19.8 24.85 21.55 24.8L21.45 25.7Q20.8 28.85 17.25 31.4L14.9 32.85Q17.8 30.75 18.65 28.35Q19.35 26 19.2 25.05L17.95 24.15Q15.95 22.8 14.5 20.7L16.85 22.65M18.5,29.25Q19.15 29.45 20.4 27.3L20.6 26.5Q21.2 24.9 20.4 25.2Q19.6 25.4 19.35 26.8L19.35 26.95L18.75 28.75L18.5 29.25" />
<path style="fill:#F39EA7;fill-opacity:1" d="M18.75,28.75L19.35 26.95L19.35 26.8Q19.6 25.4 20.4 25.2Q21.2 24.9 20.6 26.5L20.4 27.3Q19.15 29.45 18.5 29.25L18.75 28.75" />
<path style="fill:#FFFFFF;fill-opacity:1" d="M4.5,35.5L11.25 35.95L13.95 35.6Q9.85 37 5.5 36.65Q3.4 36.4 1.8 35.2L1.6 35.05Q2.7 35.1 5.7 33.8Q8.7 32.4 11.15 29.2L11.7 28.35Q9.95 33.45 4.5 35.5" />
<path style="fill:#7E1616;fill-opacity:1" d="M6.55,18.2Q7.55 19.05 7.65 20.45L7.6 20.55Q6.05 20 6.5 18.25L6.55 18.2M9.15,15.8L9.1 15.85Q7.75 17.4 10.15 17.9L10.45 17.6L10.55 16.95Q10.8 18 10.45 19.45L10.4 19.6Q6.65 18.45 8.85 14.85L8.85 14.75L10.15 16L9.15 15.8M0.35,16.4L0.3 16.4Q-0.3 17.75 1.35 18.35L1.35 18.3Q1.7 17.05 0.35 16.4M4.8,22.4L5 22.25Q7.55 22.75 7.65 24.85L8.3 26.3L8.5 26.65L8.85 27.4L9.15 27.95L9.25 28.2L9.25 28.25L9.15 28.2L9.15 28.35L9.85 29.45L9.85 29.5L9.1 28.95L7.75 29.15L8.55 30L8.55 30.05Q5.25 29.7 3.75 28.95Q2.25 28.2 1.75 27.3Q1.7 26.25 2.1 26.05L3.7 26.15Q4.85 26.5 6.65 28.2L8.35 28.3L7.55 27.4L7.5 27.3L6.95 26.7Q5.9 25.9 5.3 24.6Q4.9 24.2 4.8 23.65L4.75 23.45L4.8 23.45L4.8 22.4M2.85,20.35Q-1.35 18.85 -0.9 15L-0.7 14.75Q2.75 16.1 2.95 20.25L2.85 20.35M6.3,23.1Q5.8 24.75 7.4 25.55L7.45 25.5Q8 23.85 6.35 23.1L6.3 23.1M9,21.05Q11.4 22.9 11 26.15L10.95 26.2Q9.25 24.25 8.85 21.2L9 21.05M8.1,31.05L10.45 31.6L10.65 31.2Q10.95 30.15 11.85 29.45Q12.05 29.3 12.3 29.2Q12.7 28.95 13.05 28.85L14.05 28.65Q13.65 28.85 13.6 29.3L16.25 29.25L16.2 29.15Q15.75 28.45 14.95 28.35L14.4 28.4L14.55 28.2L14.7 27L14.35 26.55Q9.35 23.8 12.1 18.35L12.2 18.25Q11.8 21.8 13.45 24.65L13.45 24.05L13.45 24Q17.55 26.7 15.85 28.35L15.75 28.65Q16.7 28.8 17.4 29.5L17.5 29.7L17.05 30Q17.7 30.85 17.7 32.45L17.8 32.65Q22.4 33.65 23.55 29.05L23.65 30.8L24.55 29.9L24.4 29.85L25.05 28.8L25.1 28.35L25.1 28.3L25.2 28.5L27.2 25.95Q27.5 26.6 26.6 28.05L26.6 28.1Q27.75 28.95 27.75 30.7L27.6 31Q26.35 30.8 25.7 29.45L25.4 29.7Q25.25 30.8 23.65 31.05Q23.4 33.8 20.55 33.8Q20.1 34.7 18.35 34.9L18.35 34.85L19.7 33.75L17.25 33.15Q16.25 32.75 15.9 31.55L15.9 30.5Q14.5 30.9 12.5 30.5Q12.2 31.65 11.4 32.2Q13.45 33.1 13.45 35.55L13.4 35.75Q11.25 34.25 9.8 32.75L9.2 32.85Q10.9 34.85 9.6 36.5L10.1 36.95L13.65 36.5L14 36.5L14.05 36.4L14.2 36.15Q14.55 36.05 14.75 36.35L14.9 36.4Q16.2 35.35 17.95 34.95L18.1 34.9Q18.8 35.8 16.15 36.4L15.9 36.45L16.05 38.15Q16.3 38.9 16.05 39.7Q14.65 39.75 14.35 37.95L13.95 37.1L12.7 37.7L12.2 37.85Q11.95 38.75 12 39.7Q13.7 42.2 13 43.35Q13.4 44.2 12.5 45.45L12.2 45.65Q10.35 45.15 10.3 44.3Q9.75 44.3 9.95 43.35Q10.4 41.55 11 40.15Q11 38.95 10.3 38.05L10.25 37.95Q9.65 38.6 8.75 38.35L8.65 38.2L5.95 38.55Q4.3 43.85 0.8 42.65Q-0.2 42.25 0.6 41.25L3.15 38.3Q0.2 37.6 -1.7 35L-2.75 34.8L-2.75 34.7L-1.95 34.55L-2.25 34.2Q-2.4 33.9 -1.95 33.9Q-1.15 33.65 -0.75 34.3Q1.35 33.7 3.1 32.2Q3.5 34.3 1.75 34.9Q4.65 36.95 8.15 36.95Q8.9 34.9 8.55 32.9Q6.15 33 4.65 31.4Q5.45 29.75 7.7 30.9L6.95 30.8Q6.55 30.8 6.65 31.1Q7.05 33.2 8.75 31.8L8.7 31.7L8.1 31.05M17.8,36.55Q19.9 37.8 20.25 40.15L20.2 40.3Q17.4 40.6 16.5 37.4L16.45 37.2L17.45 36.6L17.8 36.55M5.85,28.45Q5.45 27.55 4.5 27.15L4.45 27.15Q4.25 28.6 5.85 28.5L5.85 28.45M2.15,29.25L-1 29.6Q-4.6 29.5 -5.25 26.3Q-4.4 24.8 -0.65 26.95Q-0.7 26.8 0.5 27.8L2.15 29.25M2.15,36.2Q1.95 36.85 2.05 37.45Q3.25 38.3 3.9 37.2L3.85 37.05L2.6 35.85L2.15 36.2M0.65,35.35L1.1 35.5L0.8 35.1L-0.05 35.1L0.45 35.55Q0.4 35.4 0.65 35.35M8.1,37.65L7.75 37.65L7.9 37.5L6.35 37.8L8.65 38.1L8.55 37.45L8.1 37.65M3.6,41.65Q5.85 40.5 4.3 38.65L4.3 38.7Q2.95 39.9 3.25 41.65L3.6 41.65M18.5,37.25L18.25 37.4L17.65 37.8Q17.4 39.05 18.5 39.35L18.7 39.3Q20.15 38.25 18.5 37.25M12,41.4L11.55 41.3Q10.65 42.2 11.85 43.3L12.05 43.15Q13.2 41.95 12.1 40.95L12 41.4M31.95,30.1Q29.65 31.9 28.55 29.25Q28.4 28.85 28.9 28.85Q30.9 28.5 31.9 29.95L31.95 30.1M27.5,36.4L27.5 36.15Q27.45 34.9 26.3 34.65Q26.2 34.65 26.15 34.75Q25.35 36.7 27.5 36.4M25.75,34.15Q28.65 34.95 28.95 37.45L28.95 37.65Q24.7 38.1 25.6 34.25L25.75 34.15M-0.7,27.7Q-1.7 26.55 -3.35 26.5L-3.5 26.65Q-3 29.3 -0.65 27.85L-0.7 27.7" />
<path style="fill:#A62929;fill-opacity:1" d="M10.15,16L10.2 16L10.4 16.15L10.55 16.95L10.45 17.6L10.15 17.9Q7.75 17.4 9.1 15.85L9.15 15.8L10.15 16M1.35,18.3L1.35 18.35Q-0.3 17.75 0.3 16.4L0.35 16.4Q1.7 17.05 1.35 18.3M6.35,23.1Q8 23.85 7.45 25.5L7.4 25.55Q5.8 24.75 6.3 23.1L6.35 23.1M8.7,31.7L8.75 31.8Q7.05 33.2 6.65 31.1Q6.55 30.8 6.95 30.8L7.7 30.9L8.1 31.05L8.7 31.7M14.05,28.65Q14.15 28.45 14.4 28.4L14.95 28.35Q15.75 28.45 16.2 29.15L16.25 29.25L13.6 29.3Q13.65 28.85 14.05 28.65M5.85,28.5Q4.25 28.6 4.45 27.15L4.5 27.15Q5.45 27.55 5.85 28.45L5.85 28.5M2.6,35.85L3.85 37.05L3.9 37.2Q3.25 38.3 2.05 37.45Q1.95 36.85 2.15 36.2L2.6 35.85M3.25,41.65Q2.95 39.9 4.3 38.7L4.3 38.65Q5.85 40.5 3.6 41.65L3.25 41.65M18.7,39.3L18.5 39.35Q17.4 39.05 17.65 37.8L18.25 37.4L18.5 37.25Q20.15 38.25 18.7 39.3M12.1,40.95Q13.2 41.95 12.05 43.15L11.85 43.3Q10.65 42.2 11.55 41.3L12 41.4L12.1 40.95M26.15,34.75Q26.2 34.65 26.3 34.65Q27.45 34.9 27.5 36.15L27.5 36.4Q25.35 36.7 26.15 34.75M-0.65,27.85Q-3 29.3 -3.5 26.65L-3.35 26.5Q-1.7 26.55 -0.7 27.7L-0.65 27.85" />
</g>
</svg>
