<?xml version="1.0" encoding="utf-8"?>
<svg version="1.1" id="Layer_1"
xmlns="http://www.w3.org/2000/svg"
xmlns:xlink="http://www.w3.org/1999/xlink"
xmlns:author="http://www.sothink.com"
width="12px" height="13px"
xml:space="preserve">
<g id="402" transform="matrix(1, 0, 0, 1, 0, 0)">
<path style="fill:#512A70;fill-opacity:1" d="M4.25,1.25L4.35 1.45L4.7 2.85L3.4 3L1.15 3.1Q0.85 1.8 1.05 1.35L4.25 1.25M4.8,3.8L5.05 3.8Q6.45 5.1 5.95 6.7L2.85 6.75L2.8 4L4.5 3.85L4.7 3.8L4.8 3.8" />
<path style="fill:#7E52A1;fill-opacity:1" d="M4.35,1.45L4.25 1.25L6.55 0.9L6.6 2.5L4.7 2.85L4.35 1.45M5.05,3.8L4.8 3.8L6.95 3.6Q7.6 3.5 7.45 5.6L7.4 6.15L7.4 6.3L5.95 6.7Q6.45 5.1 5.05 3.8" />
<path style="fill:#2C1335;fill-opacity:1" d="M2.75,7.55L2.1 7.35L1.85 7.1L1.85 7.05L1.75 4.1Q0.25 4.15 0.2 3.4L0 1.35Q-0.1 0 1.85 0.2L5 0.15L6.95 0Q7.7 0.05 7.45 0.8L7.45 2.25Q7.8 2.2 8.25 3.2Q8.7 4.15 8.35 5.95L8.35 6L8.15 6.6L8.05 6.8L7.1 7.3L6 7.45L5.6 7.45L4.1 7.55L2.75 7.55M1.05,1.35Q0.85 1.8 1.15 3.1L3.4 3L4.7 2.85L6.6 2.5L6.55 0.9L4.25 1.25L1.05 1.35M4.7,3.8L4.5 3.85L2.8 4L2.85 6.75L5.95 6.7L7.4 6.3L7.4 6.15L7.45 5.6Q7.6 3.5 6.95 3.6L4.8 3.8L4.7 3.8" />
<path style="fill:#645D4C;fill-opacity:1" d="M8.55,7.35L8.9 9L8.95 9.35L8.8 9.4L7.1 9.6L6.6 9.6L6.6 9.1L6.4 8L8.5 7.6L8.55 7.35" />
<path style="fill:#38382E;fill-opacity:1" d="M8.5,7.6L6.4 8L6.6 9.1L6.6 9.6L4.65 9.55L3.3 9.3L3 8.75L2.75 7.55L4.1 7.55L5.6 7.45L6 7.45L7.1 7.3L8.05 6.8L8.15 6.6L8.55 7.35L8.5 7.6" />
<path style="fill:#2D343C;fill-opacity:1" d="M8.65,10.65L9.55 11.5L10.4 11.35Q9.1 11.85 7.8 10.85L7.55 10.65L7.5 10.7L7.5 10.65L7.1 11L6.25 11.1L6 11.1Q6.05 11.7 6.7 12.1L6.9 12.2L6.8 12.25Q6.1 12.25 5.25 11.15L5.1 10.95L4.9 11.1L4.65 11.35L3.35 11.55L3.5 10.95L3.35 10.2L4.75 10.4L7.9 10.35L8.05 10.35L9.1 10.2L9.15 10.35L8.65 10.65" />
<path style="fill:#61666C;fill-opacity:1" d="M9.15,10.35L9.75 11L10.4 11.35L9.55 11.5L8.65 10.65L9.15 10.35M7.1,11Q6.8 11.4 6.9 12.05L6.9 12.2L6.7 12.1Q6.05 11.7 6 11.1L6.25 11.1L7.1 11" />
<path style="fill:#1C202A;fill-opacity:1" d="M3.35,10.2L3.5 10.95L3.35 11.55L4.65 11.35L4.9 11.1L5.1 10.95L5.25 11.15Q6.1 12.25 6.8 12.25L6.9 12.2L6.9 12.05Q6.8 11.4 7.1 11L7.5 10.65L7.5 10.7L7.55 10.65L7.8 10.85Q9.1 11.85 10.4 11.35L9.75 11L9.15 10.35L9.1 10.2L9.7 9.9L9.75 9.8L9.8 10Q10 10.55 11.2 11.1L11.2 11.2L10.15 12.05Q9.15 12.5 7.8 11.6Q7.5 12.05 7.65 12.5L7.65 12.55Q7.75 12.95 6.9 12.95Q6.05 12.95 5.4 12.45L4.9 11.95L3.75 12.25L2.75 12.2Q2.6 12.1 2.75 11.25L2.8 10.85L2.75 10L3.35 10.2" />
<path style="fill:#202017;fill-opacity:1" d="M3.35,10.2L2.75 10Q2.15 9.7 2.15 8.95L2.15 8.05L2.1 7.35L2.75 7.55L3 8.75L3.3 9.3L4.65 9.55L6.6 9.6L7.1 9.6L8.8 9.4L8.95 9.35L8.9 9L8.55 7.35L8.15 6.6L8.35 6L8.35 5.95L8.7 6.25Q10 7.6 9.75 9.8L9.7 9.9L9.1 10.2L8.05 10.35L7.9 10.35L4.75 10.4L3.35 10.2" />
</g>
</svg>
