<?xml version="1.0" encoding="utf-8"?>
<svg version="1.1" id="Layer_1"
xmlns="http://www.w3.org/2000/svg"
xmlns:xlink="http://www.w3.org/1999/xlink"
xmlns:author="http://www.sothink.com"
width="42px" height="32px"
xml:space="preserve">
<g id="1243" transform="matrix(1, 0, 0, 1, 2.35, -1.25)">
<path style="fill:#301D16;fill-opacity:1" d="M26.75,10.55L26.1 10.5L25.75 11.35Q25.55 12.1 26.1 13.35L27.95 12.95L29.25 12.7L30 12.6L29.8 13.25L29.1 14.45L30.95 14.05L31.8 13.9Q33.1 12.75 33.75 10.95L33.75 10.8L33.75 10.7L33.8 10.55Q34.45 8.45 34.15 7.7L33.6 8.05L32.8 8.65Q30.3 10.35 27.45 10.5L26.75 10.55M18.8,27.75L18.75 27.7L18.15 26.5Q18.05 25.9 18.7 25.6L18.95 25.5Q18.45 24.7 18.65 24.35Q18.85 23.95 19 24.1L18.75 23.8Q18.3 23.35 18.35 23Q18.35 22.6 19.1 22.5L19.15 21.9Q18.2 21.6 18.6 21.15L18.75 20.25Q16.95 20.6 17.35 19.45L17.65 18.35L17.6 17.4L18.15 17.4Q18.6 18.2 18.25 19.45L18.25 19.5Q19.95 19.25 19.4 20.8L20.3 20.4L20.3 20.45L21.35 20L21.45 19.95L21.75 19.75L21.9 20L22.2 20.5L21.55 20.8Q20.75 21.15 20.5 21.35Q20.05 21.45 19.8 21.65L19.75 22.5L20.6 22.45L21.75 22.45L21.8 22.5L22.05 22.5L23.15 22.6L23.25 22.6L23.4 23.05L23.45 23.15L23.3 23.15L23.15 23.15L21.4 23.05L21.15 23.05L20.45 23.05L20.8 23.1L19.3 23.15L20 23.85Q20.4 24.1 19.85 24.4L20.7 24.65L21.1 24.75L22.05 24.75L22.9 24.9L24.1 25.1Q24.7 25.25 25.75 25.8L26.55 26.2L27.1 26.45L27 26.1L27 26Q26.85 25.35 26.25 24.75L25.1 23.7Q24.55 23.3 23.7 23.2L24.3 22.8L24.4 22.85L25.7 22.05Q26.9 21.3 28.15 21.15L28.85 21.1L29.4 21.1L29.6 21.15L29.65 21.15L29.75 21.2Q28.2 19.8 26.5 19.7L26.7 19.15L28.45 19.55Q29.35 18.1 30.7 16.9L32.9 15.5L33.05 15.4Q33.5 15.15 34.1 15L34.55 14.8L31.85 14.6L30.65 14.8L29.55 15.1L29.2 15.3L28.1 15.9L27.9 16.15L27 17.2L26.95 16.55L26.95 16.45L28.25 14.95L28.4 14.8L29.3 13.25L28.8 13.35L25.9 14L24.95 14.25L24.25 14L25.65 13.55Q25.05 13.15 25.05 11.9Q25.05 10.5 26.45 9.05Q27.35 7.85 28.35 7.25Q29.15 6.65 30.05 6.35L28.55 6.55L28.5 6.55Q27.75 6.65 26.85 7.05L27.05 6.9L26.15 7.3L25.15 7.8L24.35 8.4L23.8 8.95L23.5 9.35L23.35 9.6L23.25 9.75L23.35 9.4L23.1 9.8L21 12.9L20.35 12.7L20.9 11.6Q22.15 9.65 23.15 8.55Q24 7.55 25.4 6.85Q26.05 5.65 26.2 4.45L26.25 4.15L26.3 4.1L26.3 2.4L25.15 4.05L24.7 4.35L23.1 5.35L20.4 6.05L19.1 6.05L19.05 6.05L19.05 6.1L17.95 6.7L17.3 7.15L17.15 7.3Q16.4 7.9 15.75 8.85L14.75 10.3L14.15 9.95Q15.2 7.95 17.15 6.45Q18.05 5.75 19 5.2L19.25 5.05Q16 5.5 13.85 7.5L13.55 7.8L13.5 7.85L12.7 8.75L12.2 8.35L12.8 7.65Q12.8 7.05 13.3 6.15L14.3 4.75Q14.9 4 15.65 3.4L16.5 2.75L14.6 3.3Q11.55 4.25 9.75 6.35L8.85 5.9Q9.95 4.7 11.45 3.85Q13.65 2.45 15.5 2.25L17.65 2.35L17.7 2.75L17.1 3.1L15.6 4.35Q14.55 5.3 14 6.5Q16.1 5.1 17.75 4.8L19.75 4.6L20.3 4.8Q20.45 4.95 20.1 5.3Q23.85 4.7 25.1 2.95Q26.3 1.15 26.5 1.25L26.95 2.2Q27.25 3.1 27.15 4.25Q26.95 5.35 26.25 6.45Q29.45 5.3 31.1 6Q31.2 6.35 30.9 6.6L29.4 7.3Q27.9 8.05 26.95 9.7Q30.2 9.45 32.05 8.1Q33.9 6.7 34.35 6.8L34.9 7.2L35.05 8.05L34.95 9.65L34.35 11.65L33.45 13.25L33 13.85L33.6 13.95Q35.45 14.25 35.7 15L35.6 15.1L34.1 15.7Q32.35 16.4 31.45 17.1Q31.85 17.5 33.55 17.55L36.55 17.1L38.2 16.3L38.75 15.8L39.1 15.85L39.3 16.55L39.05 17.55L38.15 19.6Q37.45 21.05 35.8 22.35Q34.8 23 33.5 23.35Q32.15 23.7 30.3 23.3L30.2 23.3Q31.4 24.25 32.95 24.2L34.05 24.2L34.25 24.35L33.95 25.05L33.2 25.75L31.35 26.6Q29.95 27.05 27.5 26.2L27.7 26.7L27.7 27.35Q27.6 27.55 27.15 27.15Q26.6 26.7 26.5 26.75L25.55 27.85L28.45 27.95L27.85 28.7L26.3 29.6L24.35 30L22.55 29.95L21.1 29.4L20.25 28.9L19.25 28.3L18.8 27.75M21.15,23.15L21.4 23.2L21.25 23.2L20.95 23.3L21.15 23.15M31.3,18.1L31.15 18.05L30.65 17.8Q29.65 18.65 28.85 19.85Q30.3 20.55 30.65 21.45L30.75 21.6Q30.9 22.1 30.55 21.9L29.9 21.8L28.6 21.8L29 22.3L29.35 22.45L30.85 22.75L31.7 22.85Q34.95 23.1 37.1 19.75L37.5 19L38.55 16.7L38.2 17.05L36.7 17.85L33.75 18.4L31.3 18.1M33.25,24.8L32.8 24.9Q31.05 24.85 30 24.2L28.9 23.25L28.75 22.95L28.5 22.65L28.15 21.85Q26.95 21.95 25.75 22.9L25.4 23.25Q25.8 23.35 26.5 24.05Q27.2 24.75 27.4 25.5Q29.3 26.2 31 25.9L31.5 25.85L33.25 24.8M27,28.4Q25.05 28.7 23.3 27L22.75 26.35L22.65 26.15Q22.4 25.75 22.45 25.45L21.5 25.3L20.75 25.35L19.7 25.1Q20.15 26.1 18.8 26.45L19.35 27.2L19.7 27.6L20.2 28.05Q21.25 28.8 22.45 29.15L25.65 29L27 28.4M24.75,27.45L25.95 26.45Q24.5 25.7 23 25.55Q23.6 26.8 24.75 27.45" />
<path style="fill:#B47F60;fill-opacity:1" d="M33.8,9.8L32.45 10.7L32.75 10L33 9.15Q32.75 9.7 30.1 10.15L27.4 10.55L27.45 10.5Q30.3 10.35 32.8 8.65L33.6 8.05L34.15 7.7Q34.45 8.45 33.8 10.55L33.75 10.7L33.8 9.8M9.9,6.5L9.8 6.4L9.75 6.35Q11.55 4.25 14.6 3.3L16.5 2.75L15.65 3.4Q14.6 3.55 13.3 4.3Q11.6 5.1 9.9 6.5M16.45,6.7Q15.15 7.2 14.8 7.85L15.35 6.8L15.25 6.8Q14.85 6.85 13.55 7.8L13.85 7.5Q16 5.5 19.25 5.05L19 5.2Q18 5.5 16.6 6.55L16.45 6.7M24.65,5.15Q22.6 6.3 21.7 6.45L19.6 6.55L18.1 6.65L17.95 6.7L19.05 6.1L19.05 6.05L19.1 6.05L20.4 6.05L23.1 5.35L24.7 4.35L25.15 4.05L26.3 2.4L26.3 4.1L26.25 4.15L25.65 4.9L24.55 5.75L24.55 5.7L23.9 6.45L23.7 6.6L24.65 5.15M28.1,6.75Q26.25 7.85 25.45 9.05L25.5 8.75L25.7 8.3L25.75 7.95L25.8 7.95L25.75 7.85L25.75 7.95Q25.2 7.95 23.95 9.05L23.45 9.5L23.25 9.75L23.35 9.6L23.5 9.35L23.8 8.95L24.35 8.4L25.15 7.8L26.15 7.3L27.05 6.9L26.85 7.05Q27.75 6.65 28.5 6.55Q28.25 6.6 28.1 6.75M31.1,15.35L29.05 15.7L29.2 15.3L29.55 15.1L30.65 14.8L31.85 14.6L34.55 14.8L34.1 15Q33.15 15 32.35 15.4L32.3 15.35L31.1 15.35M26.3,20.25L26.5 19.7Q28.2 19.8 29.75 21.2L29.65 21.15L29.6 21.15L29.4 21.1L28.65 20.95L27.15 20.25L27.3 20.5L27.25 20.45L26.3 20.25M23.7,23.2Q24.55 23.3 25.1 23.7L26.25 24.75Q26.85 25.35 27 26L26.25 25.45L25.75 25.15L24.8 24.45L25.55 24.4Q24.35 23.55 23.05 23.4L22.9 23.4L21.65 23.35L21.65 23.25L21.4 23.2L21.15 23.15L20.8 23.1L20.45 23.05L21.15 23.05L21.4 23.05L23.15 23.15L23.3 23.15L23.45 23.15L23.7 23.2M33.75,18.4L36.7 17.85L38.2 17.05L38.35 17.05Q38 18.15 36.9 19.3L36.8 19.35Q36.45 19.5 35.95 19.8L35.95 19.7Q36.1 19.35 36.4 19.05L36.75 18.3L35.6 18.7L32.85 18.75Q31.75 18.65 31.25 18.2L31.3 18.1L33.75 18.4M30.15,25.25L31.55 25.15Q30.8 24.85 30 24.2Q31.05 24.85 32.8 24.9L33.25 24.8L31.5 25.85L30.75 25.75L30.6 25.65L30.15 25.25" />
<path style="fill:#7F5C46;fill-opacity:1" d="M27.4,10.55L30.1 10.15Q32.75 9.7 33 9.15L32.75 10L32.45 10.7L33.8 9.8L33.75 10.7L33.75 10.8L32.95 11.55L30.8 12.7L30.85 12.65L31.15 11.9L31.15 11.25L31.1 11.25Q30.45 12.15 28.15 11.95Q27.3 11.8 27.35 11.1L27.4 10.55M13.3,4.3Q14.6 3.55 15.65 3.4Q14.9 4 14.3 4.75L13.3 5.55L11.3 7.7L11.2 7.6L11.2 6.6L10.7 7.15L9.9 6.5Q11.6 5.1 13.3 4.3M15.25,6.8L15.35 6.8L14.8 7.85Q15.15 7.2 16.45 6.7Q14.7 8 13.7 9.55L13.6 9.45L13.6 9L13.35 9.25L13.2 9.15L12.7 8.75L13.5 7.85L13.55 7.8Q14.85 6.85 15.25 6.8M23.7,6.6L23.7 6.65Q22.2 7.7 21.1 9L21.75 7.55Q20.55 7.5 19.3 9.65L19.3 9.6L19.6 8.1Q19.45 8.05 18.45 8.75Q18.1 9 17.65 9.8L17.1 10.35L17 9.7L16.85 8.75Q16.85 8 17.2 7.3L17.3 7.15L17.95 6.7L18.1 6.65L19.6 6.55L21.7 6.45Q22.6 6.3 24.65 5.15L23.7 6.6M25.45,9.05Q25.05 9.5 24.8 10.1L25.05 8.8L25 8.8Q24.4 9.4 23.25 11.35L23.25 10.8L23.15 9.9L23.35 9.4L23.25 9.75L23.45 9.5L23.95 9.05Q25.2 7.95 25.75 7.95L25.7 8.3L25.5 8.75L25.45 9.05M26.55,15.35L26.2 15L26.4 14.75L26.35 14.75L26.2 14.75L26 14.8L24.95 14.25L25.9 14L28.8 13.35L27.45 14.85L27.4 15L27.3 15.05L26.55 15.35M32.3,15.35Q32.2 15.35 32.15 15.45Q31.4 15.75 30 16.65L30.15 15.95L27.45 17.9L29.05 15.7L31.1 15.35L32.3 15.35M21.65,23.35L22.9 23.4L23.05 23.4Q24.35 23.55 25.55 24.4L24.8 24.45L25.75 25.15Q24.3 24.3 23.05 24.25Q23.7 23.85 24.15 23.95L24.1 23.85L22.25 23.6L21.9 23.6L21.6 23.7L21.55 23.7L21.65 23.45L21.65 23.35M27.25,20.45L27.3 20.5L27.15 20.25L28.65 20.95L28.35 20.9L25.95 21L26.15 20.55L26.3 20.25L27.25 20.45M32.85,18.75L35.6 18.7L36.75 18.3L36.4 19.05Q36.1 19.35 35.95 19.7L35.95 19.8Q36.45 19.5 36.8 19.35L36.9 19.3L36.6 19.65Q34.8 21.45 32.65 21.4L31.8 21.35L33 19.75L32.9 19.75L32.2 20.05L31.15 20.25L30.15 20.15L30.15 20L31.25 18.2Q31.75 18.65 32.85 18.75M30.6,25.65L28.5 25.3L27.75 24.65L29.05 24.5L28.05 24.05L26.85 23.4L28.5 22.65L28.75 22.95L28.9 23.25L30 24.2Q30.8 24.85 31.55 25.15L30.15 25.25L30.6 25.65M25.65,29L24.95 28.95Q23.6 28.75 22.55 28.25L22.4 28.2Q21.35 27.65 21.4 27.35L22.65 27.35L21.65 26.3L21.65 25.95L22.15 26L22.65 26.15L22.75 26.35L23.3 27Q25.05 28.7 27 28.4L25.65 29" />
<path style="fill:#57351A;fill-opacity:1" d="M27.35,11.1Q27.3 11.8 28.15 11.95Q30.45 12.15 31.1 11.25L31.15 11.25L31.15 11.9L30.85 12.65L30.8 12.7L32.95 11.55L33.75 10.8L33.75 10.95Q33.1 12.75 31.8 13.9L30.95 14.05L29.1 14.45L29.8 13.25L30 12.6L29.25 12.7L27.95 12.95L26.1 13.35Q25.55 12.1 25.75 11.35L26.1 10.5L26.75 10.55L27.45 10.5L27.4 10.55L27.35 11.1M11.3,7.7L13.3 5.55L14.3 4.75L13.3 6.15Q12.8 7.05 12.8 7.65L12.2 8.35L11.3 7.7M16.6,6.55Q18 5.5 19 5.2Q18.05 5.75 17.15 6.45Q15.2 7.95 14.15 9.95L13.7 9.55Q14.7 8 16.45 6.7L16.6 6.55M19.25,12.3L16.25 11.1L14.75 10.3L15.75 8.85Q16.4 7.9 17.15 7.3L17.3 7.15L17.2 7.3Q16.85 8 16.85 8.75L17 9.7L17.1 10.35L17.65 9.8Q18.1 9 18.45 8.75Q19.45 8.05 19.6 8.1L19.3 9.6L19.3 9.65Q20.55 7.5 21.75 7.55L21.1 9Q22.2 7.7 23.7 6.65L23.7 6.6L23.9 6.45L24.55 5.7L24.55 5.75L25.65 4.9L26.25 4.15L26.2 4.45Q26.05 5.65 25.4 6.85Q24 7.55 23.15 8.55Q22.15 9.65 20.9 11.6L20.35 12.7L19.25 12.3M22.8,13.55L21 12.9L23.1 9.8L23.35 9.4L23.15 9.9L23.25 10.8L23.25 11.35Q24.4 9.4 25 8.8L25.05 8.8L24.8 10.1Q25.05 9.5 25.45 9.05Q26.25 7.85 28.1 6.75Q28.25 6.6 28.5 6.55L28.55 6.55L30.05 6.35Q29.15 6.65 28.35 7.25Q27.35 7.85 26.45 9.05Q25.05 10.5 25.05 11.9Q25.05 13.15 25.65 13.55L24.25 14L22.8 13.55M26.75,15.6L26.55 15.35L27.3 15.05L27.4 15L27.45 14.85L28.8 13.35L29.3 13.25L28.4 14.8L28.25 14.95L26.95 16.45L26.75 15.6M34.1,15Q33.5 15.15 33.05 15.4L32.9 15.5L30.7 16.9Q29.35 18.1 28.45 19.55L26.7 19.15L26.8 18.85L27 17.2L27.9 16.15L28.1 15.9L29.2 15.3L29.05 15.7L27.45 17.9L30.15 15.95L30 16.65Q31.4 15.75 32.15 15.45Q32.2 15.35 32.3 15.35L32.35 15.4Q33.15 15 34.1 15M29.4,21.1L28.85 21.1L28.15 21.15Q26.9 21.3 25.7 22.05L24.4 22.85L24.3 22.8L24.6 22.5L25.95 21L28.35 20.9L28.65 20.95L29.4 21.1M21.65,23.45L21.55 23.7L21.6 23.7L21.9 23.6L22.25 23.6L24.1 23.85L24.15 23.95Q23.7 23.85 23.05 24.25Q24.3 24.3 25.75 25.15L26.25 25.45L27 26L27 26.1L27.1 26.45L26.55 26.2L25.75 25.8Q24.7 25.25 24.1 25.1L22.9 24.9L22.05 24.75L21.1 24.75L20.7 24.65L19.85 24.4Q20.4 24.1 20 23.85L19.3 23.15L20.8 23.1L21.15 23.15L20.95 23.3L21.25 23.2L21.4 23.2L21.65 23.25L21.65 23.35L21.65 23.45M23.25,22.6L23.15 22.6L22.05 22.5L21.8 22.5L21.75 22.45L20.6 22.45L19.75 22.5L19.8 21.65Q20.05 21.45 20.5 21.35Q20.75 21.15 21.55 20.8L22.2 20.5L22.5 21.15L22.6 21.3L23.25 22.6M21.75,19.75L21.45 19.95L21.35 20L20.3 20.45L20.3 20.4L19.4 20.8Q19.95 19.25 18.25 19.5L18.25 19.45Q18.6 18.2 18.15 17.4Q19.25 17.45 20.15 18.05Q21.05 18.6 21.75 19.75M26.2,14.75L26.35 14.75L26.4 14.75L26.2 15L26 14.8L26.2 14.75M38.35,17.05L38.2 17.05L38.55 16.7L37.5 19L37.1 19.75Q34.95 23.1 31.7 22.85L30.85 22.75L29.35 22.45L29 22.3L28.6 21.8L29.9 21.8L30.55 21.9Q30.9 22.1 30.75 21.6L30.65 21.45Q30.3 20.55 28.85 19.85Q29.65 18.65 30.65 17.8L31.15 18.05L31.3 18.1L31.25 18.2L30.15 20L30.15 20.15L31.15 20.25L32.2 20.05L32.9 19.75L33 19.75L31.8 21.35L32.65 21.4Q34.8 21.45 36.6 19.65L36.9 19.3Q38 18.15 38.35 17.05M26.85,23.4L28.05 24.05L29.05 24.5L27.75 24.65L28.5 25.3L30.6 25.65L30.75 25.75L31.5 25.85L31 25.9Q29.3 26.2 27.4 25.5Q27.2 24.75 26.5 24.05Q25.8 23.35 25.4 23.25L25.75 22.9Q26.95 21.95 28.15 21.85L28.5 22.65L26.85 23.4M13.35,9.25L13.6 9L13.6 9.45L13.35 9.25M11.2,7.6L10.7 7.15L11.2 6.6L11.2 7.6M22.15,26L21.65 25.95L21.65 26.3L22.65 27.35L21.4 27.35Q21.35 27.65 22.4 28.2L22.55 28.25Q23.6 28.75 24.95 28.95L25.65 29L22.45 29.15Q21.25 28.8 20.2 28.05L19.7 27.6L19.35 27.2L18.8 26.45Q20.15 26.1 19.7 25.1L20.75 25.35L21.5 25.3L22.45 25.45Q22.4 25.75 22.65 26.15L22.15 26M23,25.55Q24.5 25.7 25.95 26.45L24.75 27.45Q23.6 26.8 23 25.55" />
<path style="fill:#E0E0E0;fill-opacity:1" d="M12.2,20.1L11.9 20.3Q11.2 20.5 11.15 20.1L11.15 19.95Q11.15 19.35 11.75 19.35Q12.35 19.85 12.2 20.1" />
<path style="fill:#BD8E6D;fill-opacity:1" d="M10.15,18.95Q9.65 19.3 9.3 19.8L8.1 19.65L7.95 19.75Q6.9 18.7 6.9 18.3L7 17.95Q8.25 18.5 10.55 18.7L10.15 18.95M4,21.9L5.05 22.8L5.1 22.75L4.7 21.75L4.6 21.65L5.65 21.5Q7.5 21.5 8.8 22.1L9.25 22.3Q10.1 23.4 9.9 22.85L9.85 22.7L10.05 22.85L10 22.9L9.7 25.9L9.55 26.65L6 27.1Q1.75 27 -0.2 25.85L-0.65 25.3Q-1.25 24.35 -1.25 23.15Q-0.15 21.45 2.85 21.5L3.5 21.55L4 21.9M4.8,30.55Q4.1 30.2 3.9 29.35L6.6 29.7L8 29.65L9.75 29.05L11.35 29.3L13.3 28.85Q14.4 28.35 14.4 27.6L14.25 27.25Q14.5 26.8 14.35 26.25L13.85 25.05L13.6 24.65L12.95 23.75L12.25 23.15Q12.9 22.8 13.35 21.9Q13.95 20.8 13.95 19.6L13.9 18.85L14.45 18.8L16.3 18.55L16.5 18.5L16.5 18.85L16.15 20.8L16.15 21.1L16.85 20.9L17.65 20.6L17.55 21.35L17.65 22.05L17.35 23.05L16.85 23.9L17.5 23.9L17.95 23.8L17.9 24.45L17.8 25.25L16.55 26.35L16.5 26.5L17.4 26.7Q16.55 29.65 11.95 30.6L11.65 30.05L11.1 30.2Q10.85 30.45 11.2 30.6L11.45 30.7L5.7 31L4.8 30.55M3.25,24.5L3.2 24.45L3.35 24.1Q3.5 23 2.2 22.65L1.55 22.5Q0.8 22.45 0.5 23Q0.2 23.65 0.65 24.15L0.8 24.25L1.25 24.5L1.25 24.45Q1.75 24.95 2.35 24.9L2.85 24.7L3.05 24.65L3.2 24.5L3.25 24.5M6.45,23Q6.05 23.05 6.15 23.45Q6.2 23.8 6.55 23.8Q8 23.85 6.45 23M14.25,23L14.2 23.2Q15.3 23.7 16.05 24.75L16.2 24.8Q16.5 23.3 14.45 22.9L14.25 23M14.9,25.35Q16.35 25.7 15.15 24.7L14.75 24.9Q14.5 25.25 14.9 25.35M4.6,25.55Q4.6 25.85 4.95 25.85Q6.5 25.65 4.9 25.1Q4.55 25.2 4.6 25.55" />
<path style="fill:#3E3A2F;fill-opacity:1" d="M9.4,27.15L9.5 26.75L9.55 26.65L9.7 25.9L10 22.9L10.05 22.85L10.05 22.75Q10.1 21.95 10.55 22.15Q11.1 22.3 11.6 22.65L12.25 23.15L12.95 23.75L13.6 24.65L13.85 25.05L14.35 26.25Q14.5 26.8 14.25 27.25L14.05 27.6Q12.95 28.8 11.25 28.65L10.5 28.4L10.15 28.35L9.9 28.25L9.85 28.2L9.6 27.85L9.4 27.5L9.35 27.45L9.4 27.25L9.4 27.15M10.45,26.55L10.35 26.95L10.4 26.55L10.35 26.9L10.3 26.95L10.25 27.5L10.25 27.55L10.95 27.85L11.3 27.9L12.1 27.85L12.75 27.6L13.05 27.4Q13.75 26.9 13.55 26.05L13.45 25.65L13.1 25.1L12.55 24.35L12.4 24.2L12.25 24.05L12.2 23.9L11.65 23.45L11.6 23.4L11.05 23.15L10.75 23.2L10.75 23.3L10.75 23.65L10.65 24.6L10.55 25.85L10.45 26.5L10.45 26.55" />
<path style="fill:#F0EAC6;fill-opacity:1" d="M10.6,26.55L10.85 25.9L11.1 24.9L11.4 23.8L11.65 23.75L12.2 23.9L12.25 24.05L12.4 24.2L12.55 25.45L12.55 25.6L12.3 26.35Q12.05 26.7 11.45 26.65L11.05 26.65L10.6 26.55M12.25,27.75L12.3 27.7L13 26.9L13.2 25.95L13.2 25.9L13.1 25.1L13.45 25.65L13.55 26.05Q13.75 26.9 13.05 27.4L12.75 27.6L12.1 27.85L12.25 27.75" />
<path style="fill:#9D8E79;fill-opacity:1" d="M11.05,26.65L11.45 26.65Q12.05 26.7 12.3 26.35L12.55 25.6L12.55 25.45L12.4 24.2L12.55 24.35L13.1 25.1L13.2 25.9L13.2 25.95L13 26.9L12.3 27.7L12.25 27.75L12.1 27.85L11.3 27.9L10.95 27.85L10.25 27.55L10.25 27.5L10.3 26.95L10.35 26.9L10.4 26.55L10.35 26.95L10.45 26.55L10.45 26.5L10.6 26.55L11.05 26.65" />
<path style="fill:#FFFCEE;fill-opacity:1" d="M11.65,23.75L11.4 23.8L11.1 24.9L10.85 25.9L10.6 26.55L10.45 26.5L10.55 25.85L10.65 24.6L10.75 23.65L10.75 23.3L10.75 23.2L11.05 23.15L11.6 23.4L11.65 23.45L12.2 23.9L11.65 23.75" />
<path style="fill:#775135;fill-opacity:1" d="M7.3,31.45L5.7 31L11.45 30.7L11.2 30.6Q10.85 30.45 11.1 30.2L11.65 30.05L11.95 30.6Q16.55 29.65 17.4 26.7L16.5 26.5L16.55 26.35L17.8 25.25L17.9 24.45L17.95 23.8L17.5 23.9L16.85 23.9L17.35 23.05L17.65 22.05L17.55 21.35L17.65 20.6L16.85 20.9L16.15 21.1L16.15 20.8L16.5 18.85L16.5 18.5L16.3 18.55L14.45 18.8L13.9 18.85L13.95 19.6Q13.95 20.8 13.35 21.9Q12.9 22.8 12.25 23.15L11.6 22.65Q11.1 22.3 10.55 22.15Q10.1 21.95 10.05 22.75L10.05 22.85L9.85 22.7L9.5 21.75L9.4 21.6L9.5 21.7Q9.95 22.1 10.65 22.1Q11.4 22.15 12.05 21.7Q13.75 20.6 12.75 18.8L12.65 18.65L12.75 18.65L13.8 18.45L14.15 18.4L13.7 18.25L13.2 18.1L12.65 18.1Q11.65 18.1 10.55 18.7Q8.25 18.5 7 17.95L6.8 17.9L7.1 16.75Q8.65 17.4 11.15 17.5L14.55 17.5L17.55 17.4L17.6 17.4L17.65 18.35L17.35 19.45Q16.95 20.6 18.75 20.25L18.6 21.15Q18.2 21.6 19.15 21.9L19.1 22.5Q18.35 22.6 18.35 23Q18.3 23.35 18.75 23.8L19 24.1Q18.85 23.95 18.65 24.35Q18.45 24.7 18.95 25.5L18.7 25.6Q18.05 25.9 18.15 26.5L18.75 27.7L18.8 27.75Q13.6 32.8 7.3 31.45M-0.2,25.85Q1.75 27 6 27.1L9.55 26.65L9.5 26.75L9.4 27.15L9.4 27.25L5.95 27.65Q2.4 27.65 0.45 26.35L-0.2 25.85M2.35,24.9Q1.75 24.95 1.25 24.45L1.15 24.35L1 24.1L1 24.05Q0.85 23.75 1.05 23.35Q1.25 23.1 1.55 23.1L1.95 23.15L2.8 23.75L2.95 24.15L2.95 24.5L2.85 24.7L2.35 24.9M3.2,24.5L3.2 24.45L3.25 24.5L3.2 24.5M6.55,23.8Q6.2 23.8 6.15 23.45Q6.05 23.05 6.45 23Q8 23.85 6.55 23.8M14.45,22.9Q16.5 23.3 16.2 24.8L16.05 24.75Q15.3 23.7 14.2 23.2L14.25 23L14.45 22.9M14.75,24.9L15.15 24.7Q16.35 25.7 14.9 25.35Q14.5 25.25 14.75 24.9M3.8,29.4L3.55 28.45Q5.5 28.95 9.05 28.4L9.85 28.2L9.9 28.25L10.15 28.35L10.5 28.4L11.25 28.65Q12.95 28.8 14.05 27.6L14.25 27.25L14.4 27.6Q14.4 28.35 13.3 28.85L11.35 29.3L9.75 29.05L8 29.65L6.6 29.7L3.9 29.35L3.8 29.4M4.9,25.1Q6.5 25.65 4.95 25.85Q4.6 25.85 4.6 25.55Q4.55 25.2 4.9 25.1" />
<path style="fill:#DEBDA7;fill-opacity:1" d="M8.75,20.7Q7.9 19.9 6.9 19.9Q6.6 18.75 6.8 17.9L7 17.95L6.9 18.3Q6.9 18.7 7.95 19.75L8.1 19.65L9.3 19.8L8.75 20.7M8.8,22.1Q7.5 21.5 5.65 21.5L4.6 21.65L3.95 20.85Q6.85 20.25 8.25 21.15L8.9 21.8L9.1 22.05L9.25 22.3L8.8 22.1M-1.2,22.4Q-1.05 21.35 -0.25 21L2.5 20.9Q2.9 21.1 3.5 21.55L2.85 21.5Q-0.15 21.45 -1.25 23.15L-1.2 22.4" />
<path style="fill:#412415;fill-opacity:1" d="M-0.65,25.3L-0.2 25.85L0.45 26.35Q2.4 27.65 5.95 27.65L9.4 27.25L9.35 27.45L9.4 27.5L9.6 27.85L9.85 28.2L9.05 28.4Q5.5 28.95 3.55 28.45L3.8 29.4L3.9 29.35Q4.1 30.2 4.8 30.55L5.7 31L7.3 31.45Q13.6 32.8 18.8 27.75L19.25 28.3Q17.25 30.95 14.1 32.05Q10.4 33.25 7.35 32.55Q4.25 31.85 3.45 30.95L3.3 30.8Q2.6 29.9 2.1 28.4Q-1.15 27.25 -2 24.95L-0.65 25.3M1.25,24.5L0.8 24.25L0.65 24.15Q0.2 23.65 0.5 23Q0.8 22.45 1.55 22.5L2.2 22.65Q3.5 23 3.35 24.1L3.2 24.45L3.2 24.5L3.05 24.65L2.85 24.7L2.95 24.5L2.95 24.15L2.8 23.75L1.95 23.15L1.55 23.1Q1.25 23.1 1.05 23.35Q0.85 23.75 1 24.05L1 24.1L1.15 24.35L1.25 24.45L1.25 24.5" />
<path style="fill:#512F1D;fill-opacity:1" d="M-2,24.95L-2.3 23.75Q-2.75 20.5 -0.3 19.9Q2.1 19.3 3.35 20.25Q3.3 20.15 3.95 19.95L4.95 19.7L5.95 19.7Q5.55 18.45 5.9 17.4L6.35 16.35L7.1 16.75L6.8 17.9Q6.6 18.75 6.9 19.9Q7.9 19.9 8.75 20.7L9.3 19.8Q9.65 19.3 10.15 18.95L10.55 18.7Q11.65 18.1 12.65 18.1L13.2 18.1L13.7 18.25L14.15 18.4L13.8 18.45L12.75 18.65L12.65 18.65L12.45 18.75Q10.6 19.35 9.75 20.7L9.45 21.15L9.5 21.7L9.4 21.6L9.5 21.75L9.85 22.7L9.9 22.85Q10.1 23.4 9.25 22.3L9.1 22.05L8.9 21.8L8.25 21.15Q6.85 20.25 3.95 20.85L4.6 21.65L4.7 21.75L5.1 22.75L5.05 22.8L4 21.9L3.5 21.55Q2.9 21.1 2.5 20.9L-0.25 21Q-1.05 21.35 -1.2 22.4L-1.25 23.15Q-1.25 24.35 -0.65 25.3L-2 24.95" />
<path style="fill:#742108;fill-opacity:1" d="M9.45,21.15L11.55 21.2Q12.75 20.75 12.45 18.75L12.65 18.65L12.75 18.8Q13.75 20.6 12.05 21.7Q11.4 22.15 10.65 22.1Q9.95 22.1 9.5 21.7L9.45 21.15" />
<path style="fill:#A14C27;fill-opacity:1" d="M11.55,21.2L9.45 21.15L9.75 20.7Q10.6 19.35 12.45 18.75Q12.75 20.75 11.55 21.2M11.75,19.35Q11.15 19.35 11.15 19.95L11.15 20.1Q11.2 20.5 11.9 20.3L12.2 20.1Q12.35 19.85 11.75 19.35" />
<path style="fill:#4E4138;fill-opacity:1" d="M20.15,18.05Q19.25 17.45 18.15 17.4L17.6 17.4L17.55 17.4L14.55 17.5L11.15 17.5Q8.65 17.4 7.1 16.75L6.35 16.35L5.75 15.95Q4.1 14.5 3.75 13.25Q3.5 12.05 3.6 11Q3.7 9.8 3.9 9.3Q4.05 8.75 4.85 7.7Q5.65 6.7 7.2 6.05L8.85 5.9L9.75 6.35L9.8 6.4L9.9 6.5L10.7 7.15L11.2 7.6L11.3 7.7L12.2 8.35L12.7 8.75L13.2 9.15L13.35 9.25L13.6 9.45L13.7 9.55L14.15 9.95L14.75 10.3L16.25 11.1L19.25 12.3L20.35 12.7L21 12.9L22.8 13.55L24.25 14L24.95 14.25L26 14.8L26.2 15L26.55 15.35L26.75 15.6L26.95 16.45L26.95 16.55L27 17.2L26.8 18.85L26.7 19.15L26.5 19.7L26.3 20.25L26.15 20.55L25.95 21L24.6 22.5L24.3 22.8L23.7 23.2L23.45 23.15L23.4 23.05L23.25 22.6L22.6 21.3L22.5 21.15L22.2 20.5L21.9 20L21.75 19.75Q21.05 18.6 20.15 18.05M4.35,12.05Q4.5 13.45 5.55 14.6L6.85 15.6L7.6 16L8.25 16.3L16.55 16.6Q18.7 16.35 20.4 17.35L20.45 17.4L21.2 17.9L21.2 17.95L22.5 19.4L22.95 20.15L23.25 20.65L23.5 21.1L23.9 22.2L24.65 21.4L25.35 20.15L25.55 19.75L25.8 19.2L26.1 18.35L26.2 17.95L26.2 17.8L26.25 17.15L26.05 16.35L26 16.2L25.65 15.7L24.85 15.15Q24.45 14.9 23.95 14.8L23.9 14.75L23.15 14.55L22.4 14.35L20.55 13.7L19.95 13.5L17.15 12.35L15.65 11.65L14.4 11L13.85 10.65L12.8 9.95L12.15 9.45L11.7 9.05L11.3 8.7L10.2 7.75L9.25 7.05L9.15 7Q8.6 6.65 8.25 6.65L8.2 6.65Q7.4 6.7 6.65 7.15L5.2 8.55L4.9 9.1Q4.45 9.9 4.35 10.75L4.35 12.05" />
<path style="fill:#A29380;fill-opacity:1" d="M20.4,16.35L20.4 16.45Q20.15 16.9 19.65 16.55L19.5 16.2L19.55 16.1L19.8 15.85L20.1 15.8L20.4 16L20.45 16.3L20.4 16.35M8.3,8.45L8.45 8.3L8.6 8.2L8.95 8.1L8.95 8.15L9.15 8.4L9.25 8.6L9.25 8.7L9.2 8.75L9 9L8.5 8.9L8.3 8.55L8.3 8.45M8.2,14.8L8.15 14.9L8.1 15L7.45 15.1L7.25 14.75L7.25 14.65L7.55 14.35L7.9 14.35L8.1 14.6L8.2 14.8" />
<path style="fill:#837462;fill-opacity:1" d="M4.35,10.75L4.75 11.25L5.4 11.95L5.45 11.9L5.75 11.8L6.1 11.85L6.25 12L6.4 12.2L6.45 12.3L6.45 12.4L6.4 12.45L6.15 12.65L7.75 13.55L9.15 14L9.2 13.85Q8.45 13.05 8.55 12.7L9.8 13.5L10.7 14L10.6 14.2L10.65 14.3L10.6 14.5L10.7 14.7Q11.25 15 11.6 14.55L11.6 14.45L15.1 14.8L15.1 14.7L15.15 14.6L15.4 14.3L15.7 14.3L15.9 14.4L16.05 14.7L19.5 15L19.65 15.05L19.8 15.1L21.15 15.75L21.35 15.85Q21.6 15.95 21.85 16.15L22 16.25L22.4 16.55L22.6 16.35L23.2 16.25L23.4 16.45L23.5 16.6L23.35 17.05L23.1 17.25L24.25 18.75L24.45 19.25L24.5 19.3L24.6 19.75L24.65 19.75L24.9 19.2L25.1 18.8L25.6 17.75L25.65 17.55L26.2 17.8L26.2 17.95L26.1 18.35L25.8 19.2L25.55 19.75L25.35 20.15L24.65 21.4L23.9 22.2L23.5 21.1L23.25 20.65L22.95 20.15L22.5 19.4L21.2 17.95L21.2 17.9L20.45 17.4L20.4 17.35Q18.7 16.35 16.55 16.6L8.25 16.3L7.6 16L6.85 15.6L5.55 14.6Q4.5 13.45 4.35 12.05L4.35 10.75M20.45,16.3L20.4 16L20.1 15.8L19.8 15.85L19.55 16.1L19.5 16.2L19.65 16.55Q20.15 16.9 20.4 16.45L20.4 16.35L20.45 16.3M8.1,14.6L7.9 14.35L7.55 14.35L7.25 14.65L7.25 14.75L7.45 15.1L8.1 15L8.15 14.9L8.2 14.8L8.1 14.6" />
<path style="fill:#B6A998;fill-opacity:1" d="M26.25,17.15L26.2 17.8L25.65 17.55L25.6 17.75L25.1 18.8L24.9 19.2L24.65 19.75L24.6 19.75L24.5 19.3L24.45 19.25L24.25 18.75L23.1 17.25L23.35 17.05L23.5 16.6L23.4 16.45L23.2 16.25L22.6 16.35L22.4 16.55L22 16.25L21.85 16.15Q21.6 15.95 21.35 15.85L21.15 15.75L19.8 15.1L19.65 15.05L19.5 15L16.05 14.7L15.9 14.4L15.7 14.3L15.4 14.3L15.15 14.6L15.1 14.7L15.1 14.8L11.6 14.45L11.6 14.55Q11.25 15 10.7 14.7L10.6 14.5L10.65 14.3L10.6 14.2L10.7 14L9.8 13.5L8.55 12.7Q8.45 13.05 9.2 13.85L9.15 14L7.75 13.55L6.15 12.65L6.4 12.45L6.45 12.4L6.45 12.3L6.4 12.2L6.25 12L6.1 11.85L5.75 11.8L5.45 11.9L5.4 11.95L4.75 11.25L4.35 10.75Q4.45 9.9 4.9 9.1L5.2 9L6.7 8.8L6.7 9.1L6.75 9.2L7 9.3L7.65 9.3L7.8 9.05L7.8 8.95L7.9 9L8.7 9.45L8.85 9.4L9.1 9.45L9.25 9.5L9.25 9.25L9.3 8.95L11 10.05L11.5 10.4L12.3 10.9L13.45 11.65L13.95 11.95L14.45 12.2L14.95 12.45L14.75 12.65L14.65 12.75L14.85 13.1Q15.3 13.4 15.55 12.9L15.6 12.9L15.6 12.75L15.55 12.7L19.75 14.05L20.25 14.25L22.1 14.8L22.55 14.95L23.25 15.15L24.05 15.4L24.2 15.45L25.9 16.3L26.05 16.35L26.25 17.15M10.2,11.05L9.85 11.1L9.55 11.35L9.55 11.45L9.75 11.85Q10.2 12.1 10.45 11.65L10.5 11.6L10.5 11.5L10.4 11.3L10.2 11.1L10.2 11.05" />
<path style="fill:#F5F3EE;fill-opacity:1" d="M5.2,8.55L6.65 7.15Q7.4 6.7 8.2 6.65L8.25 6.65Q8.6 6.65 9.15 7L9.25 7.05L10.2 7.75L11.3 8.7L11.7 9.05L12.15 9.45L12.8 9.95L13.85 10.65L14.4 11L15.65 11.65L17.15 12.35L19.95 13.5L20.55 13.7L22.4 14.35L23.15 14.55L23.9 14.75L23.95 14.8Q24.45 14.9 24.85 15.15L25.65 15.7L26 16.2L26.05 16.35L25.9 16.3L24.2 15.45L24.05 15.4L23.25 15.15L22.55 14.95L22.1 14.8L20.25 14.25L19.75 14.05L15.55 12.7L15.6 12.75L15.6 12.9L15.55 12.9Q15.3 13.4 14.85 13.1L14.65 12.75L14.75 12.65L14.95 12.45L14.45 12.2L13.95 11.95L13.45 11.65L12.3 10.9L11.5 10.4L11 10.05L9.3 8.95L9.25 9.25L9.25 9.5L9.1 9.45L8.85 9.4L8.7 9.45L7.9 9L7.8 8.95L7.8 9.05L7.65 9.3L7 9.3L6.75 9.2L6.7 9.1L6.7 8.8L5.2 9L4.9 9.1L5.2 8.55M10.2,11.1L10.4 11.3L10.5 11.5L10.5 11.6L10.45 11.65Q10.2 12.1 9.75 11.85L9.55 11.45L9.55 11.35L9.85 11.1L10.2 11.05L10.2 11.1M8.3,8.55L8.5 8.9L9 9L9.2 8.75L9.25 8.7L9.25 8.6L9.15 8.4L8.95 8.15L8.95 8.1L8.6 8.2L8.45 8.3L8.3 8.45L8.3 8.55" />
</g>
</svg>
