<?xml version="1.0" encoding="utf-8"?>
<svg version="1.1" id="Layer_1"
xmlns="http://www.w3.org/2000/svg"
xmlns:xlink="http://www.w3.org/1999/xlink"
xmlns:author="http://www.sothink.com"
width="9px" height="6px"
xml:space="preserve">
<g id="399" transform="matrix(1, 0, 0, 1, 0, 0)">
<path style="fill:#25251D;fill-opacity:1" d="M6.95,2.9L4.85 3.1L3.95 3L3.85 4.65L3.75 4.65L3.2 3.75L3.05 3.8Q2.6 4.1 2.55 4.45L0.95 4.1Q0.55 3.2 0.75 2.55Q0.95 1.85 2.1 1.15Q3.2 0.4 5.55 0.85Q6.8 1.25 7.35 2.05L7.7 2.55L7.7 2.6L6.95 2.9" />
<path style="fill:#38382E;fill-opacity:1" d="M3.85,4.65L3.95 3L4.85 3.1L6.95 2.9L7.7 2.6L7.75 3.4L7.75 4.25L6.5 4.65Q5.4 4.85 3.85 4.65" />
<path style="fill:#000000;fill-opacity:1" d="M6.5,4.65L7.75 4.25L7.75 3.4L7.7 2.6L7.7 2.55L7.35 2.05Q6.8 1.25 5.55 0.85Q3.2 0.4 2.1 1.15Q0.95 1.85 0.75 2.55Q0.55 3.2 0.95 4.1L2.55 4.45Q2.6 4.1 3.05 3.8L3.2 3.75L3.75 4.65L3.85 4.65Q5.4 4.85 6.5 4.65M6.4,5.35L4.65 5.4L4 5.35Q3.2 5.2 3.05 4.9L1.5 5.1Q0.2 4.9 0.1 4Q-0.05 3.05 0.1 2.5Q0.25 1.9 0.8 1.25Q1.35 0.6 2.3 0.3L4.7 0Q6.1 -0.05 7.35 1.05L7.8 1.45Q8.6 2.35 8.55 3.5Q8.5 4.65 8.1 4.9L7.15 5.25L6.4 5.35" />
</g>
</svg>
