<?xml version="1.0" encoding="utf-8"?>
<svg version="1.1" id="Layer_1"
xmlns="http://www.w3.org/2000/svg"
xmlns:xlink="http://www.w3.org/1999/xlink"
xmlns:author="http://www.sothink.com"
width="80px" height="32px"
xml:space="preserve">
<g id="1862" transform="matrix(1, 0, 0, 1, 7.05, 4.7)">
<path style="fill:#3D434B;fill-opacity:1" d="M12.05,-1.15L12 -0.9L11.1 0.5L9.1 0.8L10.3 -1.05L11.65 -2.95L12.1 -3.45L12.65 -4.15L13.1 -4.5Q13.9 -5.1 14.4 -4L15.7 -1.1L16.2 0.55L14.75 0.5L14.7 0.3L13.45 -2.9L13 -2.15L12.05 -1.15M24.6,1.95L24.45 1.9L24.3 1.9Q23.9 1.55 23.3 1.35L23.25 1.1L22.25 -2.2L21.75 -1.5L20.75 -0.5L20.65 -0.3L19.85 0.75L18.1 0.65L19 -0.55L20.5 -2.4L20.95 -2.85L21.55 -3.5L22.05 -3.8Q22.85 -4.35 23.3 -3.25L24.35 -0.2L24.8 2L24.6 1.95" />
<path style="fill:#B4BCC2;fill-opacity:1" d="M12.05,-1.15L13 -2.15L14.15 0.5L13.3 0.45L12.05 0.45L12.05 -1.15M20.75,-0.5L21.75 -1.5L22.7 1.15L20.65 0.8L20.75 -0.5" />
<path style="fill:#717D8E;fill-opacity:1" d="M12.05,0.45L11.1 0.5L12 -0.9L12.05 -1.15L12.05 0.45M20.65,0.8L19.85 0.75L20.65 -0.3L20.75 -0.5L20.65 0.8" />
<path style="fill:#E3E4E5;fill-opacity:1" d="M14.15,0.5L13 -2.15L13.45 -2.9L14.7 0.3L14.75 0.5L14.15 0.5M22.7,1.15L21.75 -1.5L22.25 -2.2L23.25 1.1L23.3 1.35L22.7 1.15" />
<path style="fill:#574031;fill-opacity:1" d="M63.75,3.45L60.1 3.8L55.7 4.1L50 4.45L49.95 4.45L49.55 4.5L49.55 4.35L41.85 4.6L36.1 4.7L29.85 4.5L27.05 4.55L27.05 4.05L26.85 3.55L26.7 3.3L26.7 3.05L38.3 2.85L49.6 2.55L49.6 2.6L50 2.6L51.75 2.5L64.95 1.75L70.15 1.4Q70.35 1.3 70.65 2.3L70.75 2.7L63.75 3.45" />
<path style="fill:#3C2C22;fill-opacity:1" d="M24.9,3.1L26.2 3.05L26.7 3.05L26.7 3.3L26.85 3.55L27.05 4.05L27.05 4.55L29.85 4.5L36.1 4.7L41.85 4.6L49.55 4.35L49.55 4.5L49.95 4.45L50 4.45L55.7 4.1L60.1 3.8L63.75 3.45L70.75 2.7Q70.8 3.45 70.4 4.05L62.45 4.6L49.95 5.3L49.55 5.3L49.55 5.25L34.2 5.8L26 6.05L25.25 6.05L25.2 5.95L24.95 4.05L24.9 3.1" />
<path style="fill:#231813;fill-opacity:1" d="M24.8,2.1L26.15 2.1L31.2 2L50.05 1.25L50.05 1.3L65.2 0.25L70.5 -0.05Q71.85 0.45 72.15 1.8L72.25 2.6L72.1 4L71.2 5.55L49.5 6.45L49.5 6.4L31.65 7L25.45 7.05L25.25 6.05L26 6.05L34.2 5.8L49.55 5.25L49.55 5.3L49.95 5.3L62.45 4.6L70.4 4.05Q70.8 3.45 70.75 2.7L70.65 2.3Q70.35 1.3 70.15 1.4L64.95 1.75L51.75 2.5L50 2.6L49.6 2.6L49.6 2.55L38.3 2.85L26.7 3.05L26.2 3.05L24.9 3.1L24.8 2.1" />
<path style="fill:#662D11;fill-opacity:1" d="M20.65,0.8L22.7 1.15L23.3 1.35Q23.9 1.55 24.3 1.9L24.45 1.9L24.6 1.95L24.8 2L24.8 2.1L24.9 3.1L24.95 4.05L25.2 5.95L25.25 6.05L25.45 7.05Q26.45 10.8 28.5 12.8L29.8 14.05L29.15 14.7L28.05 15.5Q22.5 18.4 17.8 18.35L10.5 17.55L9.1 17.3Q5.9 16.5 1.9 14.35Q1.5 14.05 1 13.85L-1.1 11.8L-0.55 11.1L2.2 8.1L2.15 8.05L3.75 6.45L3.85 6.4L4.05 6.2L4.2 6L4.9 5.15L5.1 4.9L7.85 1.5L8.25 1.15Q8.6 0.95 9.1 0.8L11.1 0.5L12.05 0.45L13.3 0.45L14.15 0.5L14.75 0.5L16.2 0.55L18.1 0.65L19.85 0.75L20.65 0.8M3,13.35Q6.85 15.5 11.35 16.35L15.45 16.75Q22.35 17 27.85 14.3L25.9 11.65Q24.3 9.2 23.6 7L23.45 6.55L23.35 6.05L23.15 4.75L23.1 3.9L23.1 2.65L19.75 2.05L19.35 2L16.05 1.75L9.55 1.95Q8.6 2.6 7.6 3.8L5.75 6.1L2.5 10.6Q1.25 12.3 1.55 12.45L3 13.35" />
<path style="fill:#C68331;fill-opacity:1" d="M23.05,6.7Q23.65 6.85 21.9 7L21.8 7L19.25 7.3L14.1 6.85Q14.05 10.75 12.15 14.7L11.35 16.35Q6.85 15.5 3 13.35L6.35 9.8L11.4 3.25L12.35 3.25L23.1 3.9L23.15 4.75L23.35 6.05L23.45 6.55L23.05 6.7" />
<path style="fill:#AA692B;fill-opacity:1" d="M11.35,16.35L12.15 14.7Q14.05 10.75 14.1 6.85L19.25 7.3L21.8 7L21.9 7Q23.65 6.85 23.05 6.7L23.45 6.55L23.6 7Q24.3 9.2 25.9 11.65L27.85 14.3Q22.35 17 15.45 16.75L11.35 16.35" />
<path style="fill:#F3B94B;fill-opacity:1" d="M1.55,12.45Q1.25 12.3 2.5 10.6L5.75 6.1L7.6 3.8Q8.6 2.6 9.55 1.95L16.05 1.75L19.35 2L19.75 2.05L23.1 2.65L23.1 3.9L12.35 3.25L11.4 3.25L6.35 9.8L3 13.35L1.55 12.45" />
<path style="fill:#253439;fill-opacity:1" d="M2.15,8.05L1.9 7.95L0.2 7.2L-0.45 6.95L-1.65 5.85L-2 4.75L-1.7 3.95Q-1.55 3.3 0.15 2.7Q1.8 2 4.05 1.75L7.75 1.55L7.85 1.5L5.1 4.9L5.6 4.25L6 3.7L6.8 2.7Q6.7 2.7 6.65 2.8L2.4 3.4Q-0.05 3.85 0 4.75Q0 5.25 0.45 5.65L1.4 6.2L3.05 6.75L3.15 6.75L3.75 6.45L2.15 8.05M4.2,6L5.1 4.9L4.9 5.15L4.2 6" />
<path style="fill:#697887;fill-opacity:1" d="M0.45,5.65Q0 5.25 0 4.75Q-0.05 3.85 2.4 3.4L6.65 2.8Q6.7 2.7 6.8 2.7L6 3.7L5.8 3.7Q2.95 3.7 1.1 5.1Q0.65 5.3 0.45 5.65" />
<path style="fill:#4A5662;fill-opacity:1" d="M4.2,6L4.05 6.2L3.85 6.4L3.75 6.45L3.15 6.75L3.05 6.75L1.4 6.2L0.45 5.65Q0.65 5.3 1.1 5.1Q2.95 3.7 5.8 3.7L6 3.7L5.6 4.25L5.1 4.9L4.2 6" />
<path style="fill:#3A3634;fill-opacity:1" d="M1,13.85L0.25 13.4L-3.75 16.75Q-1.4 19.7 3.25 21.55Q7.35 23.2 10.35 23.95L11 24.1L13 24.5L18.2 24.8L19.9 24.75Q23.3 24.5 26.65 23.2L26.8 23.15Q30.7 21.5 33.6 18.75Q30.85 17.45 28.55 15.25L28.05 15.5L29.15 14.7L29.8 14.05Q32.2 16.15 33.75 17L36.5 18.3Q37.1 18.55 33.6 21.45L31.1 22.85Q28.2 24.45 25.1 25.35L22.1 26.15Q17.15 27.25 11.35 26.05L8.9 25.4L4.6 24.35Q0.5 23.2 -3.45 20.5Q-7.45 17.85 -7 17.05Q-3.1 13.85 -1.1 11.8L1 13.85" />
<path style="fill:#E0D8D4;fill-opacity:1" d="M1,13.85Q1.5 14.05 1.9 14.35L1.8 14.45L-0.15 16.1Q4.05 21.85 10.85 23.25L12.2 22.1L15 22.65L13.55 23.95L19.9 24.75L18.2 24.8L13 24.5L11 24.1L10.35 23.95Q7.35 23.2 3.25 21.55Q-1.4 19.7 -3.75 16.75L0.25 13.4L1 13.85" />
<path style="fill:#ACA49F;fill-opacity:1" d="M26.65,23.2Q23.3 24.5 19.9 24.75L13.55 23.95L15 22.65L25.6 23.15L26.8 23.15L26.65 23.2M10.85,23.25Q4.05 21.85 -0.15 16.1L1.8 14.45L1.9 14.35Q5.9 16.5 9.1 17.3L10.5 17.55L8.2 20.45Q8.65 21 9.1 21.15Q10.3 21.7 12.2 22.1L10.85 23.25" />
<path style="fill:#766D67;fill-opacity:1" d="M12.2,22.1Q10.3 21.7 9.1 21.15Q8.65 21 8.2 20.45L10.5 17.55L17.8 18.35Q22.5 18.4 28.05 15.5L28.55 15.25Q30.85 17.45 33.6 18.75Q30.7 21.5 26.8 23.15L25.6 23.15L15 22.65L12.2 22.1" />
</g>
</svg>
