<?xml version="1.0" encoding="utf-8"?>
<svg version="1.1" id="Layer_1"
xmlns="http://www.w3.org/2000/svg"
xmlns:xlink="http://www.w3.org/1999/xlink"
xmlns:author="http://www.sothink.com"
width="77px" height="78px"
xml:space="preserve">
<g id="175" transform="matrix(1, 0, 0, 1, -2.1, -1.15)">
<path style="fill:#717463;fill-opacity:1" d="M55.35,26.45L55.85 25.85L55.65 24.75L56.7 24.9L68.9 26.55L67.2 27.95L65.9 28.1L60.3 29.15Q58.45 29.45 55.45 32.1L28.3 58.75L27.55 58.15L26.95 57.7L26.1 57.05L55.35 26.45" />
<path style="fill:#65BFB6;fill-opacity:1" d="M67.2,27.95L68.9 26.55L75.2 5.6L76.25 4.45L76.45 3.8L76.35 5.15L73.7 16.4L70.95 27.2L31.6 60.8L31.3 61L30.6 60.6L30.05 60.15L67.2 27.95" />
<path style="fill:#ACB0A2;fill-opacity:1" d="M55.65,24.75L55.55 24.75L55.6 24.7L55.65 24.75M68.9,26.55L56.7 24.9L75.2 5.6L68.9 26.55" />
<path style="fill:#FFFFFB;fill-opacity:1" d="M55.6,24.7L52.65 13.95L52.35 12.9L74 3.3Q75.3 2.65 76 2.95L76.05 3L76.15 3L76.25 3.05L76.2 3.05L76.2 3.1L55.6 24.7" />
<path style="fill:#E7EDE1;fill-opacity:1" d="M55.6,24.7L55.55 24.75L55.65 24.75L55.85 25.85L55.35 26.45L53.8 26.55L52.2 28.25L49.4 16.4L50.65 14.75L52.65 13.95L55.6 24.7" />
<path style="fill:#FFFFFF;fill-opacity:1" d="M21.5,52.95L20.5 52.1L20.65 51.95L49.05 15L49.65 14.4Q50.4 13.7 52.35 12.9L52.65 13.95L50.65 14.75L49.4 16.4L52.2 28.25L42.75 38.15L40.3 28.3L21.5 52.95" />
<path style="fill:#E0E6DA;fill-opacity:1" d="M40.3,28.3L42.75 38.15L25.35 56.4L24.1 55.4Q23.2 54.7 22.65 54.05L21.9 53.25L21.5 52.95L40.3 28.3" />
<path style="fill:#97A782;fill-opacity:1" d="M56.7,24.9L55.65 24.75L55.6 24.7L76.2 3.1L76.4 3.55L76.5 3.75L76.45 3.8L76.25 4.45L75.2 5.6L56.7 24.9M42.75,38.15L52.2 28.25L53.8 26.55L55.35 26.45L26.1 57.05L25.4 56.5L25.35 56.4L42.75 38.15" />
<path style="fill:#737F71;fill-opacity:1" d="M30.05,60.15L29.65 59.7L28.4 58.85L28.3 58.75L55.45 32.1Q58.45 29.45 60.3 29.15L65.9 28.1L67.2 27.95L30.05 60.15" />
<path style="fill:#673720;fill-opacity:1" d="M31.6,60.8L70.95 27.2L73.7 16.4L76.35 5.15L76.45 3.8L76.5 3.75L76.4 3.55L76.2 3.1L76.2 3.05L76.25 3.05L76.15 3L76.05 3L76 2.95Q75.3 2.65 74 3.3L52.35 12.9Q50.4 13.7 49.65 14.4L49.05 15L20.65 51.95L20.5 52.1L20.05 52.4Q19.6 52.6 19.4 52.4L19.1 52Q19.05 51.6 19.3 51.35L47.45 14.7Q48.7 13 50 12.35L52.65 11.25L73.75 1.8Q76.2 0.65 77.35 1.5L77.45 1.5L77.5 1.6L77.55 1.65L77.65 1.7L78.2 3L78.1 4.9L75.45 16.2L72.9 26.35Q72.55 27.65 71.45 28.65L32.5 61.85L31.85 62.1L31.25 61.95Q31.05 61.75 31.15 61.4L31.3 61L31.6 60.8" />
<path style="fill:#E9E6E3;fill-opacity:1" d="M66.5,13.3L66.25 13.35L66.55 13.2L66.55 13.4L66.5 13.3" />
<path style="fill:#F5F1EE;fill-opacity:1" d="M66.6,12.8L66.65 12.9L66.6 12.9L66.6 12.8M67,12.6L66.8 12.8L66.65 12.9L66.65 12.8L67 12.6" />
<path style="fill:#C9C2BE;fill-opacity:1" d="M66.65,12.8L66.65 12.9L66.8 12.8L66.6 12.95L66.6 12.9L66.65 12.9L66.6 12.8L66.65 12.8M67,12.6L66.85 12.8L66.8 12.8L67 12.6" />
<path style="fill:#ACA49F;fill-opacity:1" d="M42.3,39.1L42.25 39.05L42.35 38.9L44.9 36.25L42.3 39.05L42.3 39.1M38.3,43.45L38.25 43.35L38.35 43.3L38.3 43.45" />
<path style="fill:#D9AB31;fill-opacity:1" d="M17.3,55.65L17.3 55.8L17.25 56.25L16.4 56.55L16.25 56.4Q16.15 56.35 16.2 56.1Q16.15 55.75 16.55 55.7L17.15 55.6L17.2 55.6Q17.25 55.55 17.3 55.65" />
<path style="fill:#FFF16A;fill-opacity:1" d="M11.4,59.6Q10.85 59.15 13.9 55.8Q16.9 52.4 17.9 52.55L30.5 62.9Q31.05 63.55 30.55 64.4L29.5 65.6L29.05 65.05L29.1 64.65L27.95 63.4L25.7 61.95L22.3 59.8L21.65 59.15L22.3 58.85L22.3 58.7Q22.25 58.25 21.5 58.4L21.3 58.6L21.1 58.75L20.1 58L19.35 58Q19.25 57.75 19.45 57.55L18.55 57.05L18.95 57L19 56.5L18.95 55.95L18.4 56L18.2 56.15L18.1 56.8L17.8 56.75L17.6 57L17.55 57.55L16.75 57.7L16.45 57.6L15.2 57.75L15.2 57.5Q13.85 57.75 13 59.2L12.95 59.15L11.4 59.9L11.4 59.6M17.2,55.6L17.15 55.6L16.55 55.7Q16.15 55.75 16.2 56.1Q16.15 56.35 16.25 56.4L16.4 56.55L17.25 56.25L17.3 55.8L17.3 55.65Q17.25 55.55 17.2 55.6M16.7,59.45L16.6 59.45Q15.95 59.25 16.55 58.8Q17.1 58.95 16.7 59.45" />
<path style="fill:#3C2515;fill-opacity:1" d="M19.75,69.3L21.05 70.1L20.7 70.6L15.7 75.35Q11.4 79.35 8.6 79.15Q4.2 79.25 2.4 75.5L2.2 75.05Q1.85 74 2.6 72.15Q3.35 70.35 7.15 66.25L10.95 62.05L10.55 61.65L12.3 63.05L10.15 65.3L6.5 69.35Q4.75 71.65 4.3 72.8Q4 73.85 4.35 74.7Q4.75 75.6 5.9 76.35Q6.25 76.75 8.1 77.45Q9.85 78.1 12 76.6Q14.2 75 17.55 71.6L19.75 69.3" />
<path style="fill:#E5AE27;fill-opacity:1" d="M20.35,59.45L21.15 61.85L21 61.9L20.9 61.95L21 62.4L20.4 62.35L19.9 62.3L19.35 62.1Q19.25 62.45 17.35 62.1Q15.35 61.7 17.3 63.15L19.65 65Q20 65.55 22.25 66.9Q24.35 68.3 24.8 68.2Q27.15 67.15 27.45 65.25L26.2 64.2L23.85 62.1L21.75 60.35L20.35 59.45M24.05,69.55Q12.45 61.45 11.4 59.9L12.95 59.15L13 59.2Q13.85 57.75 15.2 57.5L15.2 57.75L16.45 57.6L16.75 57.7L17.55 57.55L17.6 57L17.8 56.75L18.1 56.8L18.2 56.15L18.4 56L18.95 55.95L19 56.5L18.95 57L18.55 57.05L19.45 57.55Q19.25 57.75 19.35 58L20.1 58L21.1 58.75L21.3 58.6L21.5 58.4Q22.25 58.25 22.3 58.7L22.3 58.85L21.65 59.15L22.3 59.8L25.7 61.95L27.95 63.4L29.1 64.65L29.05 65.05L29.5 65.6Q25.35 70 24.05 69.55M16.55,58.8Q15.95 59.25 16.6 59.45L16.7 59.45Q17.1 58.95 16.55 58.8M17.2,59.55Q17.3 60.7 18.75 60.1L18.75 60.05Q18.8 58.9 17.25 59.4L17.2 59.55" />
<path style="fill:#D26936;fill-opacity:1" d="M21.75,60.35L23.85 62.1L26.2 64.2L27.45 65.25Q27.15 67.15 24.8 68.2Q24.35 68.3 22.25 66.9Q20 65.55 19.65 65L17.3 63.15Q15.35 61.7 17.35 62.1Q19.25 62.45 19.35 62.1L19.9 62.3L20.4 62.35L21 62.4L20.9 61.95L21 61.9L21.15 61.85L20.35 59.45L21.75 60.35M17.25,59.4Q18.8 58.9 18.75 60.05L18.75 60.1Q17.3 60.7 17.2 59.55L17.25 59.4" />
<path style="fill:#743517;fill-opacity:1" d="M19.75,69.3L18.8 68.6L18.95 68.45L18.7 68.3L16.9 66.8L16.25 66.05L13.15 63.65L13.2 63.7L12.3 63.05L10.55 61.65L9.95 60.9Q9.4 60.2 9.85 58.7Q10.35 57.15 13.4 53.95Q16.45 50.85 17.75 50.85Q18.9 50.8 19.8 51.55Q20 51.5 19.95 51.65L22 53.45L23.3 54.55L24.35 55.5Q24.75 55.9 25.9 56.7L27.6 58.1L28.7 59.1L29.65 59.7L30.75 60.6L32.15 61.45Q32.65 62.85 32.45 63.7L31.7 65.3L29.25 68.05L25.95 70.6Q24.5 71.35 23.75 71.3Q22.9 71.2 21.1 70.1L21.05 70.1L19.75 69.3M11.4,59.9Q12.45 61.45 24.05 69.55Q25.35 70 29.5 65.6L30.55 64.4Q31.05 63.55 30.5 62.9L17.9 52.55Q16.9 52.4 13.9 55.8Q10.85 59.15 11.4 59.6L11.4 59.9" />
<path style="fill:#DBA17D;fill-opacity:1" d="M4.3,72.8Q4.75 71.65 6.5 69.35L10.15 65.3L10.8 66.25L11.25 66.65Q7.8 70 5.5 72.9L5.55 73L4.35 74.7Q4 73.85 4.3 72.8" />
<path style="fill:#9F6D50;fill-opacity:1" d="M11.45,66.85L11.95 67.3L13 68.7L12.7 69.7L11.9 70.9L10.8 72.15L9.05 73.8L7.1 75.4L5.9 76.35Q4.75 75.6 4.35 74.7L5.55 73L5.5 72.9Q7.8 70 11.25 66.65L11.45 66.85" />
<path style="fill:#6B4228;fill-opacity:1" d="M17.55,71.6Q14.2 75 12 76.6Q9.85 78.1 8.1 77.45Q6.25 76.75 5.9 76.35L7.1 75.4L9.05 73.8L10.8 72.15L11.9 70.9L12.7 69.7L13 68.7L11.95 67.3L11.45 66.85L11.25 66.65L10.8 66.25L10.15 65.3L12.3 63.05L13.2 63.7L13.15 63.65L16.25 66.05L16.9 66.8L18.7 68.3L18.95 68.45L18.8 68.6L19.75 69.3L17.55 71.6" />
</g>
</svg>
