<?xml version="1.0" encoding="utf-8"?>
<svg version="1.1" id="Layer_1"
xmlns="http://www.w3.org/2000/svg"
xmlns:xlink="http://www.w3.org/1999/xlink"
xmlns:author="http://www.sothink.com"
width="36px" height="26px"
xml:space="preserve">
<g id="1242" transform="matrix(1, 0, 0, 1, 0, 6.7)">
<path style="fill:#301D16;fill-opacity:1" d="M23.3,15.9L24.5 16.95Q25.2 17.5 26.7 17.65L27.85 17.55L26.7 16.3L26.35 15.7L26.05 14.2L24.45 12.65L23.75 11.9Q22.95 11.05 21.85 9.05L21.35 8.2L20.9 8.45Q20.65 8.55 20.8 8.25L21.1 7.7Q19.8 6.75 18.95 5.25L19.1 5.1L19.25 5.05L21.45 7.15L21.5 7.2L22.3 6.3L22.45 6.25Q23.3 5.45 24.5 4.85Q26.15 3.95 27.85 3.55L29.05 3.3L29.85 3.2Q27.3 2 24.35 2.2L22.9 2.4L21.75 2.6Q20.75 2.9 20.35 3.15L20 3.25L19.3 3.75L19.15 4.5Q18.95 5.6 18.85 4.55L18.85 4.3Q18.15 5.35 18.5 4.15Q18.6 3.75 18.85 3.45L18.95 2.5Q19.2 1.4 19.8 0.5L20.85 -1.35L21.55 -2.2L22.4 -3.25L23.1 -3.95L23.5 -4.4L25.4 -5.95Q21.75 -5.55 19.45 -3.4L19.1 -3.1L18.15 -1.55L17.9 -1L17.8 -0.8L17.5 0.05Q17.3 0.7 17.45 1.7L17.45 2Q17.65 3.6 16.85 2.5Q16.7 2.25 16.65 1Q16.6 -0.3 17.05 -1.35L17.9 -2.9L18.6 -3.75L19.5 -4.7Q21.2 -6.15 23.45 -6.5L25.2 -6.7Q26.6 -6.7 27.05 -6.1L26.8 -5.95Q25.1 -5 23.95 -3.9L23.7 -3.65L24.85 -3.55Q29.75 -3.15 35 -4.35Q35.5 -4.35 35.55 -3.85Q35.35 -2.75 34.15 -0.75Q32.95 1.25 29.15 1.95Q30.55 2.65 31.35 4L31.45 4.1L31.4 4.2L28.9 4.15Q27.45 4.25 26.05 4.85L26.8 5.4Q30.3 7.75 32.3 8.4L32.65 8.5L32.25 8.7Q30.45 9.75 29.45 9.95L29.9 10.7Q31.45 13.3 31.3 14.65L31.3 14.9L31 16.15L30.3 15.6Q29.7 15.05 26.85 14.4L27.3 15.6L29.05 17.8L27.6 18.45L25.8 18.5Q24.6 18.25 23.85 17.7L22.6 16.6Q21.65 15.7 20.65 13.4Q19.7 11.25 19.7 9.15L19.8 9.1L21.15 12.1L21.75 13.55Q22.75 15.4 23.3 15.9M34.8,-3.45L26.45 -2.7L25.35 -2.75L24.45 -2.8L23.2 -3Q21.6 -1.5 20.45 0.85L20.3 1.3L20 1.9L19.7 2.55Q20.05 2.3 20.5 2.1L20.6 2.05L22.75 1.5L22.6 1.55L24.95 1.3L28.5 1.55Q32 0.1 33.05 -0.95L33.7 -1.85L34.8 -3.45M26.1,5.9L25.3 5.25Q24.15 5.9 23.05 6.9L22.95 7L22.85 7.2L22.8 7.2L22.85 7.2Q24.75 9.5 27.95 9.35L30.2 8.9L30.75 8.75L31.1 8.6L29.35 7.85L27.85 7.05L26.1 5.9M29.8,12.15L29.25 10.9L28.6 10.05L25.8 10L24.3 9.7L22.7 9.15L24.35 11.3L24.4 11.35L24.4 11.4L24.65 11.65Q26.45 13.7 29.45 14.55L30.4 14.95L30.45 14.5Q30.5 13.6 29.8 12.15" />
<path style="fill:#7F5C46;fill-opacity:1" d="M23.1,-3.95L22.4 -3.25Q20.6 -2.45 20.05 -1.7L20.5 -2.95L19.65 -2.4L18.9 -1.9L18.65 -1.9L19.1 -3.1L19.45 -3.4L20.6 -3.85Q22.8 -4.65 23.35 -4.65L23.1 -3.95M25.35,-2.75L26.45 -2.7L29.7 -2.2L32.05 -2.3L32.2 -2.3L30.9 -1.6L33.1 -1.65L25.3 0.2L26.1 -0.4L26.8 -0.95L26.65 -0.95L22.85 -0.05L22.85 -0.2L24.45 -2.8L25.35 -2.75M27,8.7L25.7 8.3L25.8 8.3L27.95 8.05L27.85 7.9L24.6 7.1L26.1 5.9L27.85 7.05L28.25 7.45L29.6 8.3L29 8.9L27 8.7M24.35,2.2Q25.6 2.5 27.15 3.2Q24.65 3.3 23.5 4.1L23.5 3.9L24.3 2.95L24.15 2.95L22.45 3.95L22.45 3.9L22.8 2.8L22.9 2.4L24.35 2.2M30.45,14.5L30 14.25Q27.75 13.05 27.2 12.35L28.6 12.35L28.65 12.2L27.85 11.65L27.1 11.1L27.25 11.1L28.85 11L29.25 10.9L29.8 12.15Q30.5 13.6 30.45 14.5M25.35,16.05L25.45 15.35Q25.65 15.7 26.35 15.7L26.7 16.3L27.85 17.55L26.7 17.65L25.35 16.05" />
<path style="fill:#57351A;fill-opacity:1" d="M21.75,13.55L21.9 10.25L21.85 9.05Q22.95 11.05 23.75 11.9L24.45 12.65L26.05 14.2L26.35 15.7Q25.65 15.7 25.45 15.35L25.35 16.05L26.7 17.65Q25.2 17.5 24.5 16.95L23.3 15.9Q22.75 15.4 21.75 13.55M21.75,2.6L22.9 2.4L22.8 2.8L22.45 3.9L22.45 3.95L24.15 2.95L24.3 2.95L23.5 3.9L23.5 4.1Q24.65 3.3 27.15 3.2L27.75 3.2L29.05 3.3L27.85 3.55Q26.15 3.95 24.5 4.85Q23.3 5.45 22.45 6.25L22.3 6.3L21.5 7.2L21.45 7.15L20.65 4.6L20.15 3.5L20.05 3.55L20.15 3.5L20.65 3.05L20.35 3.15Q20.75 2.9 21.75 2.6M22.4,-3.25L21.55 -2.2L20.85 -1.35L19.8 0.5Q19.2 1.4 18.95 2.5L17.95 2.1L17.45 1.7Q17.3 0.7 17.5 0.05L17.8 -0.8L17.9 -1L18.15 -1.55L19.1 -3.1L18.65 -1.9L18.9 -1.9L19.65 -2.4L20.5 -2.95L20.05 -1.7Q20.6 -2.45 22.4 -3.25M33.3,-1.75L33.45 -1.85L33.5 -1.8L33.55 -1.8L33.65 -1.85L33.7 -1.85L33.05 -0.95Q32 0.1 28.5 1.55L24.95 1.3L22.6 1.55L22.75 1.5L20.6 2.05L20.5 2.1Q20.05 2.3 19.7 2.55L20 1.9L20.3 1.3L20.45 0.85Q21.6 -1.5 23.2 -3L24.45 -2.8L22.85 -0.2L22.85 -0.05L26.65 -0.95L26.8 -0.95L26.1 -0.4L25.3 0.2L33.1 -1.65L33.3 -1.75M29,8.9L29.7 8.9L30.2 8.9L27.95 9.35Q24.75 9.5 22.85 7.2L22.95 7L23.05 6.9Q24.15 5.9 25.3 5.25L26.1 5.9L24.6 7.1L27.85 7.9L27.95 8.05L25.8 8.3L25.7 8.3L27 8.7L29 8.9M28.85,11L27.25 11.1L27.1 11.1L27.85 11.65L28.65 12.2L28.6 12.35L27.2 12.35L27.15 12.25L27.1 12.35L27.2 12.35Q27.75 13.05 30 14.25L30.45 14.5L30.4 14.95L29.45 14.55Q26.45 13.7 24.65 11.65L24.4 11.4L24.4 11.35L24.35 11.3L22.7 9.15L24.3 9.7L25.8 10L28.6 10.05L29.25 10.9L28.85 11" />
<path style="fill:#B47F60;fill-opacity:1" d="M23.35,-4.65Q22.8 -4.65 20.6 -3.85L19.45 -3.4Q21.75 -5.55 25.4 -5.95L23.5 -4.4L23.1 -3.95L23.35 -4.65M33.7,-1.85L33.65 -1.85L33.55 -1.8L33.5 -1.8L33.45 -1.85L33.3 -1.75L33.1 -1.65L30.9 -1.6L32.2 -2.3L32.05 -2.3L29.7 -2.2L26.45 -2.7L34.8 -3.45L33.7 -1.85M29.7,8.9L29 8.9L29.6 8.3L28.25 7.45L27.85 7.05L29.35 7.85L31.1 8.6L30.75 8.75L30.2 8.9L29.7 8.9M24.35,2.2Q27.3 2 29.85 3.2L29.05 3.3L27.75 3.2L27.15 3.2Q25.6 2.5 24.35 2.2" />
<path style="fill:#BD8E6D;fill-opacity:1" d="M4,17.3L3.75 17.25L3.2 17L2.6 16.65L1.95 16.05Q5.05 15.65 8.35 14.3L9.8 13.65L8.7 15.45L8.3 15.9L6.35 17.7L5.3 17.6L4 17.3M5.9,9.75L5.05 10.1L1.25 11.3Q1.6 8.95 2.65 6.75Q3.15 5.7 4 4.8L5.2 5.2L9.45 5.75L9.95 6.95L10.15 7.55L10.1 7.55L9.75 7.3Q9.25 7.25 9.05 7.75L9.3 8.05Q9.25 8.05 9.15 8.15L6.45 9.55L5.8 9.45L5.75 9.65L5.9 9.75M6.6,10.5L6.85 10.35L6.8 10.5L6.6 10.5M5.5,7.7L5.75 7.55L5.8 7.3L5.75 7.05L5.15 7.1L5.1 7.35Q5.1 7.7 5.5 7.7" />
<path style="fill:#775135;fill-opacity:1" d="M5.3,17.6L6.35 17.7L8.3 15.9L8.7 15.45L9.8 13.65Q16.8 10.25 18.9 3.3L20.35 4.9Q21.15 6.25 21.35 9.15L21.35 12.7L21.3 12.7L20.9 14.45Q20.45 16 18.15 17Q15.8 18 11.7 18.2L6.2 17.85L4 17.3L5.3 17.6M9.95,6.95L9.45 5.75L5.2 5.2L4 4.8L4.35 4.45L5.1 3.8Q5.8 3.2 6.65 2.75Q8.1 1.95 10 1.45Q13.85 0.8 15.5 1.55L16.15 1.8Q13.65 5.2 10.15 7.55L9.95 6.95M9.05,7.75Q9.25 7.25 9.75 7.3L10.1 7.55L9.3 8.05L9.05 7.75M5.75,9.65L5.8 9.45L6.45 9.55L5.9 9.75L5.75 9.65M5.1,7.35L5.15 7.1L5.75 7.05L5.8 7.3L5.75 7.55L5.5 7.7Q5.1 7.7 5.1 7.35" />
<path style="fill:#301D16;fill-opacity:1" d="M9.8,13.65L8.35 14.3Q5.05 15.65 1.95 16.05L0.8 16.2L0.5 15.55L0.3 14.95L0.2 14.35L0.15 14.25L0.1 13.8L0 12.7L0 12.6L0 12.45L0.2 11.5L1.25 11.3L5.05 10.1L5.9 9.75L6.45 9.55L9.15 8.15Q9.25 8.05 9.3 8.05L10.1 7.55L10.15 7.55Q13.65 5.2 16.15 1.8L17.05 0.45L17.45 0.6L18.45 1.15L19.35 1.7L18.9 3.3Q16.8 10.25 9.8 13.65M8,9.9L7.75 10L6.85 10.35L6.6 10.5L6.25 10.6L5.5 10.9L1.1 12.25L1.1 12.3L1.05 13.2L1.05 13.85L1.1 14.2L1.1 14.3L1.3 15.05L1.5 15.4Q4.7 14.85 8 13.45L10.2 12.4Q16.6 8.95 18.15 2.8Q17.55 2.4 16.8 2.1Q14.85 6 10.35 8.65L8 9.9" />
<path style="fill:#7F5C46;fill-opacity:1" d="M7.75,10L8 9.9L10.35 8.65L10.45 10.25L10.45 10.85L9.9 11.25L8.3 12.15L4.65 13.4L1.1 14.2L1.05 13.85Q1.5 13.1 2.05 12.8L5 11.6L7.75 10" />
<path style="fill:#57351A;fill-opacity:1" d="M4.65,13.4L8.3 12.15L9.9 11.25L10.45 10.85L10.45 10.25L10.35 8.65Q14.85 6 16.8 2.1Q17.55 2.4 18.15 2.8Q16.6 8.95 10.2 12.4L8 13.45Q4.7 14.85 1.5 15.4L1.3 15.05L1.1 14.3L1.1 14.2L4.65 13.4" />
<path style="fill:#412415;fill-opacity:1" d="M1.95,16.05L2.6 16.65L3.2 17L3.75 17.25L4 17.3L6.2 17.85L11.7 18.2Q15.8 18 18.15 17Q20.45 16 20.9 14.45L21.3 12.7L21.35 12.7L21.35 9.15Q21.15 6.25 20.35 4.9L18.9 3.3L19.35 1.7Q20.5 2.6 21.2 3.95Q22.1 5.7 22.3 9.05L22.4 10.35L22.4 11.15L22.4 11.25L22.4 11.6L21.95 13.9Q21.15 16.9 18.35 17.95L13.6 18.9Q11.2 19.3 7.85 19L5.25 18.65L3.05 18L1.1 16.55L0.8 16.2L1.95 16.05M2.65,6.75Q1.6 8.95 1.25 11.3L0.2 11.5L0.2 11.4Q0.4 10.1 0.9 8.45Q1.5 6.05 3.05 4.4L3.5 3.95L4.9 2.8Q7.85 0.7 9.55 0.4L15.5 0L17.05 0.45L16.15 1.8L15.5 1.55Q13.85 0.8 10 1.45Q8.1 1.95 6.65 2.75Q5.8 3.2 5.1 3.8L4.35 4.45L4 4.8Q3.15 5.7 2.65 6.75" />
<path style="fill:#AD8C78;fill-opacity:1" d="M5,11.6L2.05 12.8Q1.5 13.1 1.05 13.85L1.05 13.2L1.1 12.3L1.1 12.25L5.5 10.9L6.25 10.6L6.6 10.5L6.8 10.5L6.85 10.35L7.75 10L5 11.6" />
</g>
</svg>
