<?xml version="1.0" encoding="utf-8"?>
<svg version="1.1" id="Layer_1"
xmlns="http://www.w3.org/2000/svg"
xmlns:xlink="http://www.w3.org/1999/xlink"
xmlns:author="http://www.sothink.com"
width="15px" height="23px"
xml:space="preserve">
<g id="2695" transform="matrix(1, 0, 0, 1, -34.85, -0.9)">
<path style="fill:#FFFFFF;fill-opacity:1" d="M41.2,4.3L40.35 2L39.15 2.8L38.7 3.2L42.15 11.1L42.55 8.85L42.5 8.15L42.5 8.05L41.2 4.3M42.3,4.2Q43.25 6.9 43.8 9.65L42.8 13.9Q41.95 17.9 42.05 18.55Q44.05 18.65 46.85 17.8L47.2 17.7L48.75 17.5Q48.95 17.75 49.25 17.65Q49.5 17.6 49.6 18.35Q49.65 19.1 48.8 19.85L47.4 21.75L46 22.95L46.15 23.05Q45.05 24 43 22.6Q42.6 22.35 43.2 22.8Q41.85 21.9 41.8 22.05Q39.45 20.75 40.55 18.4L42.05 11.8Q40.35 9.9 39.95 7.45L37.9 3.45Q36.5 3.7 34.85 2.9Q37.15 2.7 38.75 1.6Q40.35 0.55 41.2 1.1L42.3 4.2M48.8,17.5L48.9 17.45L48.95 17.55L48.95 17.6L48.8 17.5M41.95,20.75L44.3 21.9Q46 22 46.95 20.75L48.3 18.45L41.75 19.6Q41.45 20 41.95 20.75" />
</g>
</svg>
