<?xml version="1.0" encoding="utf-8"?>
<svg version="1.1" id="Layer_1"
xmlns="http://www.w3.org/2000/svg"
xmlns:xlink="http://www.w3.org/1999/xlink"
xmlns:author="http://www.sothink.com"
width="25px" height="20px"
xml:space="preserve">
<g id="322" transform="matrix(1, 0, 0, 1, 0, -2.15)">
<path style="fill:#56656D;fill-opacity:1" d="M8.65,16.15L12.05 14L13.85 12.85L18.55 9.75L19.9 9.05L21.6 4.75L22 3.75L22 3.7L21.85 3.7L21.8 3.7L17.3 4L16.2 4.1L15.3 5.05L15 5.3L12.4 7.7L10.05 10.15L9.35 10.9L6.35 13.85L5.85 13.45L8.5 10.6L9.4 9.7L13.55 5.35L15.75 3.1L24.05 2.15L20.7 9.8L8.8 17L8.4 16.15L8.65 16.15" />
<path style="fill:#E8EBEC;fill-opacity:1" d="M15,5.3L15.3 5.05L16.2 4.1L17.3 4L21.8 3.7L21.75 3.85L19.85 5.25L19.85 5.3L15 5.3" />
<path style="fill:#AAB3BB;fill-opacity:1" d="M9.35,10.9L10.05 10.15L12.4 7.7L15 5.3L19.85 5.3L11.7 11.5L9.35 10.9M19.85,5.3L19.85 5.25L21.75 3.85L21.85 3.7L22 3.7L22 3.75L21.6 4.75L19.9 9.05L18.55 9.75L19.85 5.3" />
<path style="fill:#5A470F;fill-opacity:1" d="M21.8,3.7L21.85 3.7L21.75 3.85L21.8 3.7" />
<path style="fill:#838E98;fill-opacity:1" d="M11.7,11.5L12.05 14L8.65 16.15L8.4 16.15L7.95 15.8L6.35 13.85L9.35 10.9L11.7 11.5" />
<path style="fill:#97A2AC;fill-opacity:1" d="M11.7,11.5L19.85 5.3L18.55 9.75L13.85 12.85L12.05 14L11.7 11.5" />
<path style="fill:#443911;fill-opacity:1" d="M1.7,20.7Q2.7 21.15 4.15 19.95L5.2 19.15L6 18.2L5.9 18.1L6.85 18.85L5.95 19.75L4.85 20.7L3.9 21.3L2.5 21.7L2.05 21.75L1.1 21.5L0.55 21.1L0.5 21.05Q0.05 20.6 0 20.1L0 19.9L0.2 19.15Q0.55 17.9 2.8 15.95L2.9 15.85L3.55 15.35L3.75 15.9L4.1 16.35L2.75 17.35Q2 18 1.3 19.15Q0.55 20.15 1.65 20.65L1.7 20.7M3.45,15.1L3.5 15.2L3.45 15.1" />
<path style="fill:#C6A831;fill-opacity:1" d="M3.95,13.9L3.9 13.7L4.1 13.95L4.8 14.25L6.45 15.5L7.4 16.3L7.5 16.4L7.55 16.45L8.3 17.15L9.1 18.35L9.3 18.4L9.15 18.45L9.1 18.35L8.45 17.95L7.35 17.15L6.9 16.85L6.55 16.6L6.5 16.55L5.6 15.7L4.85 14.9L4.1 13.95Q4 13.85 3.95 13.9" />
<path style="fill:#55442B;fill-opacity:1" d="M6,18.2L5.2 19.15L4.25 18Q2.95 18.8 1.65 20.65Q0.55 20.15 1.3 19.15Q2 18 2.75 17.35L4.1 16.35L4.2 16.3L4.3 16.4L5.1 17.3L5.9 18.1L6 18.2" />
<path style="fill:#675232;fill-opacity:1" d="M1.65,20.65Q2.95 18.8 4.25 18L5.2 19.15L4.15 19.95Q2.7 21.15 1.7 20.7L1.65 20.65" />
<path style="fill:#723C13;fill-opacity:1" d="M3.95,13.9L4.15 14.4L5.05 15.8L5.65 16.55L6.75 17.65Q8.2 18.75 9.15 18.45L9.3 18.4Q9.3 18.3 9.4 18.35L9.15 17.6L8.9 17.3L8.8 17.1L8.55 16.75L8.2 16.3L8.1 16.2L7.75 15.8L7.25 15.25L6.7 14.7L6.3 14.35L5.55 13.75L4.25 13.1L4 13.35L3.9 13.7L3.95 13.9M3.75,15.9L3.55 15.35L3.55 15.3L3.5 15.2L3.45 15.1Q2.9 14.25 2.85 13.75Q2.6 12.75 3.15 12.45Q3.95 11.8 4.8 12.15L5.9 12.8L8.65 15.4L9.1 15.85L9.15 15.9L9.25 16L9.7 16.75L9.85 16.95L10.5 18.2L10.55 18.75L10.15 19.45Q9.3 20.05 7.45 19.15L6.85 18.85L5.9 18.1L5.1 17.3L4.3 16.4L4.2 16.3L4.1 16.35L3.75 15.9" />
<path style="fill:#956823;fill-opacity:1" d="M4.1,13.95L4.85 14.9L5.6 15.7L6.5 16.55L6.55 16.6L6.9 16.85L7.35 17.15L8.45 17.95L9.1 18.35L9.15 18.45Q8.2 18.75 6.75 17.65L5.65 16.55L5.05 15.8L4.15 14.4L3.95 13.9Q4 13.85 4.1 13.95" />
<path style="fill:#FFE687;fill-opacity:1" d="M9.1,18.35L8.3 17.15L7.55 16.45L7.5 16.4L7.4 16.3L6.45 15.5L4.8 14.25L4.1 13.95L3.9 13.7L4 13.35L4.25 13.1L5.55 13.75L6.3 14.35L6.7 14.7L7.25 15.25L7.75 15.8L8.1 16.2L8.2 16.3L8.55 16.75L8.8 17.1L8.9 17.3L9.15 17.6L9.4 18.35Q9.3 18.3 9.3 18.4L9.1 18.35" />
</g>
</svg>
