<?xml version="1.0" encoding="utf-8"?>
<svg version="1.1" id="Layer_1"
xmlns="http://www.w3.org/2000/svg"
xmlns:xlink="http://www.w3.org/1999/xlink"
xmlns:author="http://www.sothink.com"
width="35px" height="35px"
xml:space="preserve">
<g id="1324" transform="matrix(1, 0, 0, 1, 0, 0)">
<path style="fill:#792E0A;fill-opacity:1" d="M23.05,3.7L23.25 4.9Q24 13.15 25.8 17.3L28.1 22.3L28.2 22.45L28.85 23.8Q29.15 24.6 28.8 24.85Q28.25 24.95 24.95 27.7Q21.5 30.4 18.95 34.8Q17.65 35 12.35 32.7Q7 30.4 4.15 28.1L2.25 26.4Q0.95 24.75 1.7 23.4Q2.05 22.7 2.9 22L3 21.95L4.85 23.55L5.95 24.3Q7.7 25.5 11.4 27.35Q16.4 29.85 17.5 29.85Q19.05 26.45 22.85 23.65L23.25 23.35L24.1 22.75Q22.85 20.85 22.15 19L21.2 16.3Q20.85 15.45 20.4 12.75Q19.95 10.05 19.7 5.8L18.05 6.45L15.3 7.1L10.9 7.3L10.4 7.2L6.75 6.2Q6.25 5.7 5.4 5.3Q4.45 4.85 4.25 4.4Q3.8 3.45 5.55 2.4Q7.85 1.3 10.6 0.75L15.35 0.05L17.4 0L18.6 0.05L20.45 0.3L21.95 0.9Q22.7 1.2 22.9 2.2L23 2.5L23.1 3.4L23.1 3.45L23.05 3.7M6.25,3.6Q5.8 3.55 5.75 3.9L5.75 4.1L6 4.5L7.8 5.4L11.85 6.2Q14.3 6.4 17.95 5.2Q21.45 3.9 21.7 3.4L21.9 2.85L21.9 2.75L21.9 2.6L21.55 2.3Q20.25 3.2 17.8 4L12.35 4.85L8.9 4.55L6.25 3.6M21.25,26.55Q20.1 27.75 17.9 31.2Q11.6 29.15 8.35 27.1L6.1 25.65L4.5 24.55L4.2 24.4L4.05 24.25Q3.05 23.45 2.65 23.9Q2.2 24.25 2.5 24.95Q2.8 25.55 5.6 27.8Q8.3 29.9 13.15 31.95Q17.95 33.85 18.3 33.75Q21.05 28.95 26.05 25L26.55 24.6L27.5 23.85L26.45 21.85Q26.15 21.4 24.8 17.95Q23.35 14.4 22.8 9.8L22.15 4.65L21.95 4.8L20.75 5.4Q20.7 9.65 22.1 14.9Q23.55 20.1 25.8 23.3L25.25 23.6Q22.2 25.35 21.25 26.55M6.8,3.05Q13.95 5.1 20.65 1.55L13.8 1.1Q9.1 1.45 6.8 3.05M18.6,29.3L18.3 29.55L18.35 29.6L18.6 29.3" />
<path style="fill:#BF7A24;fill-opacity:1" d="M21.9,2.85L21.7 2.9L21.9 2.75L21.9 2.85M8.9,4.55L16.2 4.9L21.7 2.9L21.25 3.25Q19.55 4.3 17.7 4.95Q11.7 6.9 5.75 4.1L5.75 3.9Q5.8 3.55 6.25 3.6L8.9 4.55M4.5,24.55L6.1 25.65Q7.55 27.55 12.45 29.65Q15.3 30.9 18.3 31.9Q19.95 28.5 22.65 26.2L24.9 24.55Q25.4 24.45 25.3 23.8L25.25 23.6L25.8 23.3Q23.55 20.1 22.1 14.9Q20.7 9.65 20.75 5.4L21.95 4.8Q22 11.8 24.3 18.3Q25.5 21.7 26.7 23.55L26.55 24.6L26.05 25L25.8 25.05Q22.6 26.6 18.2 32.65Q13.95 31.35 9.6 29.25Q5.15 27.1 4.5 24.55" />
<path style="fill:#E5AA38;fill-opacity:1" d="M16.2,4.9L8.9 4.55L12.35 4.85L17.8 4Q20.25 3.2 21.55 2.3L21.9 2.6L21.9 2.75L21.7 2.9L16.2 4.9M21.95,4.8L22.15 4.65L22.8 9.8Q23.35 14.4 24.8 17.95Q26.15 21.4 26.45 21.85L27.5 23.85L26.55 24.6L26.7 23.55Q25.5 21.7 24.3 18.3Q22 11.8 21.95 4.8M6.1,25.65L8.35 27.1Q11.6 29.15 17.9 31.2Q20.1 27.75 21.25 26.55Q22.2 25.35 25.25 23.6L25.3 23.8Q25.4 24.45 24.9 24.55L22.65 26.2Q19.95 28.5 18.3 31.9Q15.3 30.9 12.45 29.65Q7.55 27.55 6.1 25.65" />
<path style="fill:#A66221;fill-opacity:1" d="M21.7,3.4Q21.45 3.9 17.95 5.2Q14.3 6.4 11.85 6.2L7.8 5.4L6 4.5L5.75 4.1Q11.7 6.9 17.7 4.95Q19.55 4.3 21.25 3.25L21.7 2.9L21.9 2.85L21.7 3.4M9.6,29.25Q13.95 31.35 18.2 32.65Q22.6 26.6 25.8 25.05L26.05 25Q21.05 28.95 18.3 33.75Q17.95 33.85 13.15 31.95Q8.3 29.9 5.6 27.8Q2.8 25.55 2.5 24.95Q2.2 24.25 2.65 23.9Q3.05 23.45 4.05 24.25L4.2 24.4L4.5 24.55Q5.15 27.1 9.6 29.25" />
<path style="fill:#5F5F5F;fill-opacity:1" d="M23.25,23.35L22.85 23.65L22.7 23.45L23.25 23.35" />
<path style="fill:#7E4816;fill-opacity:1" d="M13.8,1.1L20.65 1.55Q13.95 5.1 6.8 3.05Q9.1 1.45 13.8 1.1" />
<path style="fill:#0D1931;fill-opacity:1" d="M2.9,22Q2.05 22.7 1.7 23.4L0.7 21.05Q-0.05 18.5 0.05 15.95L0.05 15.55Q0.05 13.95 0.5 12.4Q1.6 7.95 4.2 4.45L4.25 4.4Q4.45 4.85 5.4 5.3Q4.9 5.95 3.95 7.65Q2.15 10.55 1.75 14.35Q1.3 18.1 2.45 20.85L2.9 22" />
<path style="fill:#071020;fill-opacity:1" d="M30.2,21Q32.35 19.35 32.95 16.95Q30.45 15.5 29.15 13.9Q27.85 12.1 26.2 8.85Q24.8 6.25 23.25 4.9L23.05 3.7L23.1 3.45Q23.85 3.55 24.6 4.15Q25.2 4.75 27.65 9.25Q30 13.75 34.6 16.55Q34.1 19.15 32.2 21.35Q30.95 22.65 28.85 23.8L28.2 22.45Q29.15 21.75 30.2 21" />
<path style="fill:#162543;fill-opacity:1" d="M28.2,22.45L28.1 22.3L25.8 17.3Q24 13.15 23.25 4.9Q24.8 6.25 26.2 8.85Q27.85 12.1 29.15 13.9Q30.45 15.5 32.95 16.95Q32.35 19.35 30.2 21Q29.15 21.75 28.2 22.45" />
<path style="fill:#283D69;fill-opacity:1" d="M6.75,6.2L10.4 7.2L10.2 7.55Q7.35 15.6 11.5 21.7Q13.7 25 16.7 26.5Q18.4 24.8 21.55 23.8L22.7 23.45L22.85 23.65Q19.05 26.45 17.5 29.85Q16.4 29.85 11.4 27.35Q7.7 25.5 5.95 24.3Q2.45 17.7 4.45 11.25Q5.1 9.1 6.25 7.25L6.75 6.2" />
<path style="fill:#496298;fill-opacity:1" d="M2.45,20.85Q1.3 18.1 1.75 14.35Q2.15 10.55 3.95 7.65Q4.9 5.95 5.4 5.3Q6.25 5.7 6.75 6.2L6.25 7.25Q5.1 9.1 4.45 11.25Q2.45 17.7 5.95 24.3L4.85 23.55L3 21.95L2.9 22L2.45 20.85M15.5,8.55L18.7 7.9Q19.35 14.05 21.2 19.65L22.7 23.45L21.55 23.8Q18.4 24.8 16.7 26.5Q13.7 25 11.5 21.7Q7.35 15.6 10.2 7.55Q11.9 8.85 15.5 8.55" />
<path style="fill:#6B95E0;fill-opacity:1" d="M22.7,23.45L21.2 19.65Q19.35 14.05 18.7 7.9L15.5 8.55Q11.9 8.85 10.2 7.55L10.4 7.2L10.9 7.3L15.3 7.1L18.05 6.45L19.7 5.8Q19.95 10.05 20.4 12.75Q20.85 15.45 21.2 16.3L22.15 19Q22.85 20.85 24.1 22.75L23.25 23.35L22.7 23.45" />
</g>
</svg>
