<?xml version="1.0" encoding="utf-8"?>
<svg version="1.1" id="Layer_1"
xmlns="http://www.w3.org/2000/svg"
xmlns:xlink="http://www.w3.org/1999/xlink"
xmlns:author="http://www.sothink.com"
width="293px" height="93px"
xml:space="preserve">
<g id="161" transform="matrix(1, 0, 0, 1, 14.35, -1.75)">
<radialGradient
id="RadialGradID_330" gradientUnits="userSpaceOnUse" gradientTransform="matrix(0.0781097, 0, 0, 0.0784454, 128.55, 4.7)" spreadMethod ="pad" cx="0" cy="0" r="819.2" fx="118" fy="0" >
<stop  offset="0"  style="stop-color:#FFD29F;stop-opacity:1" />
<stop  offset="1"  style="stop-color:#F7842B;stop-opacity:1" />
</radialGradient>
<path style="fill:url(#RadialGradID_330) " d="M27.25,25.5L25.45 16.25Q35.9 13.25 46.35 10.95L48.5 15.65Q38.2 18.05 30.45 21.15L27.65 27.4L27.25 25.5M84.65,9.45Q65.75 11.65 51.4 14.95L51.95 9.7Q69.25 6.1 86.5 4.3Q126.15 0.15 164.1 2.8Q197.05 5 225.75 12.25L225.75 18.35Q151.3 1.8 84.65 9.45M234.6,28.4Q234.25 24.55 232.5 19.85L226.6 18.55L228.55 12.95Q233.85 14.35 239 15.9L237.2 26.05L235.55 34.65Q234.95 32.2 234.6 28.4" />
<radialGradient
id="RadialGradID_331" gradientUnits="userSpaceOnUse" gradientTransform="matrix(0.0993652, 0, 0, 0.129852, 127.55, 54.35)" spreadMethod ="pad" cx="0" cy="0" r="819.2" fx="118" fy="0" >
<stop  offset="0.00784314"  style="stop-color:#F7793B;stop-opacity:1" />
<stop  offset="1"  style="stop-color:#EC491C;stop-opacity:1" />
</radialGradient>
<path style="fill:url(#RadialGradID_331) " d="M217.25,65.65L208.95 63.95L208.95 57.6L206.3 63.5Q185.75 59.8 153.7 57.45Q132.35 55.9 109.55 57.4L107.35 52.85L106.9 57.55L102.7 57.85L100.1 51.15Q127.35 48.8 154.3 50.4Q181.45 52 208.95 57.6L223.55 60.85L233.2 47.2L229 69.05Q224 67.2 217.25 65.65M35.75,69.05L30.85 43.9L39.5 62.15Q48.05 58.85 60.65 56.4Q71.85 54.2 88.85 52.25L99.05 51.25L99.2 51.25L98.3 58.25Q73.35 60.6 46.75 66.5L35.75 69.05" />
<linearGradient
id="LinearGradID_332" gradientUnits="userSpaceOnUse" gradientTransform="matrix(-0.01651, -0.00479126, 0.00593567, -0.0349884, 247.25, 58.95)" spreadMethod ="pad" x1="-819.2" y1="0" x2="819.2" y2="0" >
<stop  offset="0" style="stop-color:#EEBB3D;stop-opacity:1" />
<stop  offset="1" style="stop-color:#DB661C;stop-opacity:1" />
</linearGradient>
<path style="fill:url(#LinearGradID_332) " d="M229,69.05L233.2 47.2L233.8 43.9L235.55 34.65L237.2 26.05L253.95 31.8L254.55 32.05Q275.05 39.45 278.3 42.05Q278.1 41.65 254.55 56.95L250.75 59.35L265.75 94.4Q260.7 92.05 254.55 89.5L247.65 86.7Q228.25 78.95 216.15 76.35L229 69.05" />
<linearGradient
id="LinearGradID_333" gradientUnits="userSpaceOnUse" gradientTransform="matrix(0.0247345, -0.0167084, 0.0145569, 0.0368347, 9.4, 63.85)" spreadMethod ="pad" x1="-819.2" y1="0" x2="819.2" y2="0" >
<stop  offset="0" style="stop-color:#EEBB3D;stop-opacity:1" />
<stop  offset="1" style="stop-color:#DB661C;stop-opacity:1" />
</linearGradient>
<path style="fill:url(#LinearGradID_333) " d="M47.95,75.95Q36.65 78.4 18.95 85.3L16.3 86.35Q6 90.45 -1.8 94.05L13.2 59.05Q-14.15 41.25 -14.35 41.7Q-11.05 39.05 10 31.45L27.25 25.5L27.65 27.4L30.85 43.9L35.75 69.05Q36.3 69.8 42.05 72.75L47.95 75.95" />
<path style="fill:#9A2912;fill-opacity:1" d="M229,69.05L216.15 76.35L216.1 76.35L217.25 65.65Q224 67.2 229 69.05M42.05,72.75Q36.3 69.8 35.75 69.05L46.75 66.5L48.05 75.95L47.95 75.95L42.05 72.75" />
<radialGradient
id="RadialGradID_334" gradientUnits="userSpaceOnUse" gradientTransform="matrix(0.098877, 0, 0, 0.101273, 129.55, 29.85)" spreadMethod ="pad" cx="0" cy="0" r="819.2" fx="118" fy="0" >
<stop  offset="0"  style="stop-color:#FFBC6B;stop-opacity:1" />
<stop  offset="1"  style="stop-color:#EE7B34;stop-opacity:1" />
</radialGradient>
<path style="fill:url(#RadialGradID_334) " d="M225.75,18.35L225.75 20.95L226.6 18.55L232.5 19.85Q234.25 24.55 234.6 28.4Q234.95 32.2 235.55 34.65L233.8 43.9L233.2 47.2L223.55 60.85L208.95 57.6Q181.45 52 154.3 50.4Q127.35 48.8 100.1 51.15L99.45 49.45L99.2 51.25L99.05 51.25L88.85 52.25Q71.85 54.2 60.65 56.4Q48.05 58.85 39.5 62.15L30.85 43.9L27.65 27.4L30.45 21.15Q38.2 18.05 48.5 15.65L50.75 20.7L51.4 14.95Q65.75 11.65 84.65 9.45Q151.3 1.8 225.75 18.35" />
</g>
</svg>
