<?xml version="1.0" encoding="utf-8"?>
<svg version="1.1" id="Layer_1"
xmlns="http://www.w3.org/2000/svg"
xmlns:xlink="http://www.w3.org/1999/xlink"
xmlns:author="http://www.sothink.com"
width="97px" height="97px"
xml:space="preserve">
<g id="800" transform="matrix(1, 0, 0, 1, 0, 0)">
<path style="fill:#B5864A;fill-opacity:1" d="M88.4,12.2L88.4 12.6L88.4 84Q88.4 88.45 83.9 88.45L12.45 88.45Q8.05 88.45 8.05 84L8.05 83.15L8.05 16L8.05 12.6Q8.05 8.1 12.45 8.1L17.35 8.1L17.4 8.35L17.65 8.8L18 9.15Q18.3 10.2 19.65 11.3L22.55 13.8L25.15 16.55L26.75 18.25L27.35 19.5L27.35 18.6Q25.7 12.9 24.1 11.9Q22.2 10.55 21.3 10.05L20.9 9.9L19.05 8.1L75.6 8.1Q75.65 8.5 76.45 9.45L78.2 12.2Q79.1 14.15 79.1 16.6Q79.1 17.35 77.95 18.45L74.45 21.75L74.4 21.95L74.4 22.05L74.45 22.05L75.15 22.5Q76.25 22.5 77.75 21.3L79.1 19.9Q79 19.6 79.75 18.25Q80.5 16.9 80.5 16.25L80.25 14.6L79.5 12.75L79.3 12.05L79.25 11.85L78.85 10.85L77.65 8.1L83.9 8.1L84.05 8.1Q88.25 8.2 88.4 12.2" />
<path style="fill:#EFBE73;fill-opacity:1" d="M76.85,4.85Q76.85 4.15 78.2 2.15Q78.85 1.2 78.7 0L90.7 0L84.05 8.1L83.9 8.1L77.65 8.1Q76.85 6.65 76.85 4.85M75.85,21.75Q77.3 21.2 78.7 19.35Q80.05 17.5 79.9 15.2L79.3 12.05L79.5 12.75L80.25 14.6L80.5 16.25Q80.5 16.9 79.75 18.25Q79 19.6 79.1 19.9L77.75 21.3Q76.25 22.5 75.15 22.5L74.45 22.05L75.85 21.75M19.75,0L72.45 0Q72.65 2.1 73.95 3.85Q74.7 4.9 75.15 6.5L75.6 8.1L19.05 8.1L19 8.05Q17.4 6.55 17.4 5.05Q17.4 2.85 18 2.1L19.75 0M26.75,18.25L25.15 16.55L22.55 13.8L19.65 11.3Q18.3 10.2 18 9.15L19 10L22.35 12.6Q24.8 14.6 26.75 18.25M0,9.6L0 5.45Q0 0 5.3 0L16.6 0L16.15 1.5L16.6 4.7Q17 7.15 17.35 8.1L12.45 8.1Q8.05 8.1 8.05 12.6L8.05 16Q5.2 14 0 9.6" />
<path style="fill:#633818;fill-opacity:1" d="M74.45,22.05L74.4 22.05L74.4 21.95L74.45 21.75L77.95 18.45Q79.1 17.35 79.1 16.6Q79.1 14.15 78.2 12.2L76.45 9.45Q75.65 8.5 75.6 8.1L75.15 6.5Q74.7 4.9 73.95 3.85Q72.65 2.1 72.45 0L78.7 0Q78.85 1.2 78.2 2.15Q76.85 4.15 76.85 4.85Q76.85 6.65 77.65 8.1L78.85 10.85L79.25 11.85L79.3 12.05L79.9 15.2Q80.05 17.5 78.7 19.35Q77.3 21.2 75.85 21.75L74.45 22.05M18,2.1Q17.4 2.85 17.4 5.05Q17.4 6.55 19 8.05L19.05 8.1L20.9 9.9L21.3 10.05Q22.2 10.55 24.1 11.9Q25.7 12.9 27.35 18.6L27.35 19.5L26.75 18.25Q24.8 14.6 22.35 12.6L19 10L18 9.15L17.65 8.8L17.4 8.35L17.35 8.1Q17 7.15 16.6 4.7L16.15 1.5L16.6 0L19.75 0L18 2.1" />
<path style="fill:#794431;fill-opacity:1" d="M8.05,83.15L8.05 84Q8.05 88.45 12.45 88.45L83.9 88.45Q88.4 88.45 88.4 84L88.4 12.6L88.4 12.2L96.5 6.35L96.5 91.15Q96.5 96.5 91.15 96.5L5.3 96.5Q0 96.5 0 91.15L0 85.4L8.05 83.15" />
<path style="fill:#9C663C;fill-opacity:1" d="M0,85.4L0 9.6Q5.2 14 8.05 16L8.05 83.15L0 85.4" />
<path style="fill:#874330;fill-opacity:1" d="M88.4,12.2Q88.25 8.2 84.05 8.1L90.7 0L91.15 0Q96.5 0 96.5 5.45L96.5 6.35L88.4 12.2" />
<path style="fill:#633818;fill-opacity:1" d="M18.75,81.3Q18.1 82 17.15 82Q16.15 82 15.5 81.3Q14.9 80.7 14.8 79.9L14.8 79.65Q14.8 78.7 15.5 78.05Q16.15 77.35 17.15 77.35Q18.1 77.35 18.75 78.05Q19.45 78.7 19.45 79.65L19.45 79.9Q19.35 80.7 18.75 81.3" />
<path style="fill:#EFBE73;fill-opacity:1" d="M19.45,79.9L19.45 80.05L19.45 80.2Q19.35 81.3 18.75 82.05Q18.1 82.85 17.15 82.85Q16.15 82.85 15.5 82.05Q14.8 81.3 14.8 80.2L14.8 80.05L14.8 79.9Q14.9 80.7 15.5 81.3Q16.15 82 17.15 82Q18.1 82 18.75 81.3Q19.35 80.7 19.45 79.9" />
<path style="fill:#633818;fill-opacity:1" d="M84.3,29.55Q83.75 30.1 83 30.1Q82.3 30.1 81.75 29.55L81.3 28.75L81.3 28.5L81.3 28.35Q81.3 27.6 81.75 27.1Q82.3 26.6 83 26.6Q83.75 26.6 84.3 27.1Q84.8 27.6 84.8 28.35L84.8 28.5Q84.75 29.1 84.3 29.55" />
<path style="fill:#EFBE73;fill-opacity:1" d="M84.8,28.5L84.8 28.75Q84.75 29.55 84.3 30.15Q83.75 30.75 83 30.75Q82.3 30.75 81.75 30.15Q81.3 29.55 81.3 28.75L81.75 29.55Q82.3 30.1 83 30.1Q83.75 30.1 84.3 29.55Q84.75 29.1 84.8 28.5" />
</g>
</svg>
