<?xml version="1.0" encoding="utf-8"?>
<svg version="1.1" id="Layer_1"
xmlns="http://www.w3.org/2000/svg"
xmlns:xlink="http://www.w3.org/1999/xlink"
xmlns:author="http://www.sothink.com"
width="40px" height="10px"
xml:space="preserve">
<g id="511" transform="matrix(1, 0, 0, 1, 0, 0)">
<path style="fill:#414850;fill-opacity:1" d="M20.35,8.5Q27.85 7.7 30.7 6.15L33.9 6.55L33.25 7L30.3 8.5L18.45 9.15L15.8 9.05L13.75 9L20.35 8.5" />
<path style="fill:#14171C;fill-opacity:1" d="M19.75,5.85L9.65 6.5Q9.6 7 10.8 8.8L10 8.65Q5.55 7.4 2.5 4.75L0 2.05Q0.75 1.6 2.25 1.25Q5.75 0.35 13.25 0.1L21.4 0L39.6 0.65Q38.4 2.8 35.6 5.2L33.9 6.55L30.7 6.15L19.75 5.85" />
<path style="fill:#21262C;fill-opacity:1" d="M30.7,6.15Q27.85 7.7 20.35 8.5L13.75 9L12.2 8.9L10.8 8.8Q9.6 7 9.65 6.5L19.75 5.85L30.7 6.15" />
</g>
</svg>
