<?xml version="1.0" encoding="utf-8"?>
<svg version="1.1" id="Layer_1"
xmlns="http://www.w3.org/2000/svg"
xmlns:xlink="http://www.w3.org/1999/xlink"
xmlns:author="http://www.sothink.com"
width="9px" height="10px"
xml:space="preserve">
<g id="1265" transform="matrix(1, 0, 0, 1, 0, 0)">
<path style="fill:#4E1C10;fill-opacity:1" d="M5.6,6.9L6.05 7.25L7.65 8.25L5.95 8L5.7 7.85L5.15 8.65Q4.85 9.2 3.5 8.3L2.4 9.2L1.8 9.15L1.45 7.4Q1.2 5.95 0 2.8Q0.45 2.25 1.05 2.6L1.45 2.6L1.45 2.8L1.65 3.85L1.25 3.75L2.55 7.95L4.55 7.9L5.25 7.2L5.6 6.9" />
<path style="fill:#8C331D;fill-opacity:1" d="M5.25,7.2L4.55 7.9L2.55 7.95L1.25 3.75L1.65 3.85L2.25 5.4Q2.75 6.4 3.25 6.55L3.25 5.7L3.35 5.7L3.8 6.4L4.4 6.75L4.7 5.95L5.6 6.9L5.25 7.2" />
<path style="fill:#BB482E;fill-opacity:1" d="M1.65,3.85Q2.4 3.95 2.8 3.05L3.15 2.15L3.35 2.3L4.35 3.25L4.35 3.2L4.5 2.65L4.55 2.65L5.15 3.45Q5.15 2.85 5.45 2.65L6.15 5.15L6.95 7.15Q5.95 6.75 5.7 6.85L5.6 6.9L4.7 5.95L4.4 6.75L3.8 6.4L3.35 5.7L3.25 5.7L3.25 6.55Q2.75 6.4 2.25 5.4L1.65 3.85" />
<path style="fill:#EE7557;fill-opacity:1" d="M6.15,5.15L5.45 2.65Q5.15 2.85 5.15 3.45L4.55 2.65L4.5 2.65L4.35 3.2L4.35 3.25L3.35 2.3L3.15 2.15L3.4 1.55Q4.7 2.45 5.05 1.75Q5.35 0.9 5.85 2.15L6.45 4.8Q6.6 6.25 7 7.15L6.95 7.15L6.15 5.15" />
<path style="fill:#622516;fill-opacity:1" d="M6.05,7.25L5.6 6.9L5.7 6.85Q5.95 6.75 6.95 7.15L7 7.15Q6.6 6.25 6.45 4.8L5.85 2.15Q5.35 0.9 5.05 1.75Q4.7 2.45 3.4 1.55L3.15 2.15L2.8 3.05Q2.4 3.95 1.65 3.85L1.45 2.8L1.45 2.6L2.25 1.9L2.25 1.85L2.95 0.6L3.85 0.8Q4.5 1.15 5.05 0.55Q5.5 -0.1 5.7 0.05L5.75 0.05Q7.45 3.2 7.5 6.05L7.85 7.1L8.25 7.7Q8.45 7.9 8.25 8L7.65 8.25L6.05 7.25" />
</g>
</svg>
