<?xml version="1.0" encoding="utf-8"?>
<svg version="1.1" id="Layer_1"
xmlns="http://www.w3.org/2000/svg"
xmlns:xlink="http://www.w3.org/1999/xlink"
xmlns:author="http://www.sothink.com"
width="180px" height="60px"
xml:space="preserve">
<g id="771" transform="matrix(1, 0, 0, 1, -11.05, 6.65)">
<path style="fill:#333333;fill-opacity:1" d="M21.95,-6.65L179.6 -6.65Q183.45 -6.65 185.9 -5.35Q190.55 -2.8 190.55 4.3L190.55 42.25Q190.35 52.65 179.6 52.65L21.95 52.65Q11.3 52.65 11.05 42.25L11.05 41.8L11.05 4.3Q11.05 -2.8 15.65 -5.35Q18.15 -6.65 21.95 -6.65M23.2,-4.05Q14.05 -4.05 14.05 4.95L14.05 41.15L14.05 41.55Q14.3 50.1 23.2 50.1L178.5 50.1Q187.35 50 187.6 41.55L187.6 4.95Q187.6 -4.05 178.4 -4.05L23.2 -4.05" />
<path style="fill:#666666;fill-opacity:1" d="M178.25,-1.15L26.55 -1.15Q17.3 -1.15 17.05 7.2L17.05 7.6L17.05 38.8Q17.05 39.7 17.2 40.5L17.4 41.55Q18.85 47.2 26.55 47.2L178.4 47Q181.65 46.8 183.1 45Q184.6 43.15 184.65 41.9L184.65 38.8L184.65 7.6L184.65 7.2Q184.45 0.5 178.75 -1L178.25 -1.15M178.4,-4.05Q187.6 -4.05 187.6 4.95L187.6 41.55Q187.35 50 178.5 50.1L23.2 50.1Q14.3 50.1 14.05 41.55L14.05 41.15L14.05 4.95Q14.05 -4.05 23.2 -4.05L178.4 -4.05" />
<path style="fill:#999999;fill-opacity:1" d="M178.75,-1Q184.45 0.5 184.65 7.2L184.65 7.6L184.65 38.8L184.65 41.9Q184.6 43.15 183.1 45Q181.65 46.8 178.4 47L26.55 47.2Q18.85 47.2 17.4 41.55L17.2 40.5Q17.05 39.7 17.05 38.8L17.05 7.6L17.05 7.2Q17.3 -1.15 26.55 -1.15L178.25 -1.15L178.75 -1" />
</g>
</svg>
