<?xml version="1.0" encoding="utf-8"?>
<svg version="1.1" id="Layer_1"
xmlns="http://www.w3.org/2000/svg"
xmlns:xlink="http://www.w3.org/1999/xlink"
xmlns:author="http://www.sothink.com"
width="299px" height="227px"
xml:space="preserve">
<g id="1870" transform="matrix(1, 0, 0, 1, 152.9, 119.05)">
<path style="fill:#F8CC00;fill-opacity:1" d="M85.7,-119.05Q86.25 -117.35 87.55 -103.3L88.15 -97L87.1 -94.55L86.5 -96.35Q85.5 -99.45 86.35 -86Q83.75 -107.55 83.35 -112.85Q83.35 -116.6 83.5 -117.15Q83.8 -118.2 85.7 -119.05M136.9,31.6Q135.6 31.6 133.05 23.25Q129.7 12.3 126.65 6.95L123.4 20.7Q121.1 30.85 118.25 32.15L117.1 29.2L115.95 26.45L114.1 26.45L113.25 31.8Q112.45 36.5 111.3 38.35L109.05 32.8Q107.1 27.7 106.2 27Q103.35 41.8 102.45 42.9Q91.85 9.95 90.8 3.5L89.85 3.5Q89.25 5.1 88.55 19.6Q87.85 34.1 86.6 37.25Q84.75 37.25 83.65 38.25Q83.05 38.8 82.4 40Q80.8 37.8 80.1 37.8Q79.55 37.8 77.6 42.8L75.4 48.65Q73.7 50.6 70.75 50.4L66.8 49.8Q66.4 49.8 65 48.7Q63.55 47.5 62.8 47.5Q62.25 47.5 61.05 48.05L59.3 48.65Q57.2 48.65 55.85 47.4Q53.9 45.25 51.65 43.45Q51.75 44.7 50.75 46.95Q49.75 49.25 49.8 49.8L48.85 49.8Q39.15 21.15 39.15 15.55L38.6 15.55Q37.05 27 35.85 49.1Q35.2 60.7 32.75 60.7Q31.1 60.7 29.4 54.8Q27.55 48.45 24.65 47.5Q22.55 46.85 20.75 43.85Q19.2 41.2 17.4 41.2Q16.85 41.2 15.8 41.8Q14.75 42.35 14.15 42.35Q13.55 42.35 11.65 38.75Q9.7 35.05 8.8 35.05Q8.4 35.05 6.5 35.9Q4.6 36.7 3.9 36.7Q1.1 36.7 -2.7 25Q-6.6 13.15 -6 5.15L-6.45 5.15Q-11.15 38.55 -13.55 45Q-14.75 48.15 -17.1 50.8L-22.75 57.25Q-25.1 54.7 -26.55 54.4Q-26.55 55.75 -27.9 62.95Q-29.7 62.9 -30.9 61.85L-33 60.05L-36.1 65.3Q-37.95 68.65 -38.4 68.65Q-41.6 68.65 -55.85 44.1Q-57.25 44.55 -58.1 45.3L-60.05 46.35L-61.6 42.95Q-63.3 39.55 -64.2 38.9Q-64.2 39.55 -64.75 40.4L-65.6 41.75Q-66.5 39.6 -68.65 21.4Q-70.75 4.05 -70.75 1.2L-71.65 1.2Q-73.35 4.3 -74 37.25Q-76.55 37.25 -78.55 40.2L-80.55 43.45L-81.95 40.55Q-83.1 38.1 -83.8 37.25L-86.1 45.25L-88.45 50.9Q-90.3 48.65 -91.25 48.65Q-91.65 48.65 -92.65 49.75L-94.05 50.9L-96.05 47.2Q-97.7 44.5 -99.6 44.1Q-99.7 47.6 -100.5 48.4L-101.95 48.65Q-102.6 48.65 -105 42.65Q-107.4 36.7 -108.25 36.7Q-109.7 36.7 -111.05 40.7Q-112.35 44.65 -114.05 44.65Q-116.6 44.65 -121.35 29.75Q-125.1 18 -127.55 6.4Q-127.55 11.85 -128.45 18.2Q-130.05 29.45 -133.65 31.6Q-135 30.65 -136.65 22.25Q-138.25 14.35 -139.95 14.35Q-141.4 14.35 -143.7 17.75Q-146.25 21.5 -146.7 21.75Q-146.7 17.35 -148 12.3Q-149.65 5.85 -152.25 5.85L-152.6 5.9L-152.45 -29.95L-151.3 -25.45L-151.1 -25L-150.9 -24.55L-150.9 -25Q-150.9 -71.1 -150.4 -77.3L-149.5 -77.3L-149.25 -76.8L-149 -76.75Q-148 -69.05 -147.25 -53.2L-146.8 -40.6L-146.7 -36.15L-146.7 -40Q-146.65 -37.8 -143.3 -25L-142.75 -22.75L-140.35 -12.8L-139.7 -9.1L-139.7 -7.4L-139.7 -6.2Q-139.45 -7 -139.7 -9.1L-139.75 -12.8L-139.9 -25L-140.35 -63.1L-140.65 -110.5L-134.25 -64.2L-128.55 -25L-127.15 -15.4L-127.2 -16.5Q-127.15 -17.1 -126.45 -17.1Q-125.85 -17.1 -124.6 -16L-122.45 -14.3Q-122.45 -14.85 -122 -14.85Q-122.5 -16.25 -121.6 -18.5L-120.15 -21.15Q-118.65 -17.3 -117.25 -12.8L-117.05 -12.15Q-115.15 -6.05 -113.4 1.05Q-111.7 7.9 -109.45 8.65Q-109.45 8.1 -108.95 8.1Q-108.7 5 -108.5 -12.8L-108.5 -16.5L-108.5 -25L-108.5 -28.5Q-108.45 -58.75 -106.65 -70.4L-106.65 -69.8Q-107.15 -58.6 -104.4 -37.4L-102.6 -25L-101.65 -19.55Q-100.8 -15.35 -100.1 -13.65L-99.65 -14.45L-99.2 -14.85L-98.95 -19.15L-98.75 -20.8L-98.6 -20.85Q-96.9 -13.95 -96.4 -13.1Q-95.5 -19.3 -95 -20.55L-94.35 -20.05L-94.05 -20Q-93.35 -18.15 -92.6 -14.95L-92.05 -12.8L-91.8 -12Q-91.8 -12.55 -91.25 -12.55L-91.2 -12.8L-90.45 -14.45Q-89.65 -15.5 -88.45 -16Q-87.8 -15.1 -87.05 -12.8L-86.3 -10.05Q-85.2 -5.8 -85.2 -3.95L-83.8 -3.95Q-83.5 -5.9 -83.15 -12.8L-82.65 -25L-82.6 -26.5L-82.3 -36.6Q-81.5 -62.5 -81.5 -71L-81 -71Q-81 -66.3 -77.65 -49.7Q-74.2 -32.85 -71.95 -29.55L-71.7 -29.15L-71.65 -29.6L-70.1 -29.95L-69.75 -27.75L-69.3 -25L-68.45 -21.15L-67.95 -21.15L-67.95 -25.7L-67.5 -25.7L-66.95 -25Q-65.65 -22.5 -64.8 -12.8L-64.7 -11.45L-64.25 -11.45Q-64.25 -12.55 -63.8 -12.55L-63.8 -12.8Q-63.75 -14.95 -63.3 -17.1L-62.85 -17.1L-62.85 -12.8Q-62.55 -8.4 -60.75 -5.85L-60.8 -12.8L-60.7 -25L-60.3 -46.85Q-58.1 -27.25 -57.3 -25Q-57.1 -24.4 -57 -25Q-56.7 -27 -57.5 -42.5Q-59.5 -80.15 -52.9 -38.15Q-46.35 3.85 -47.95 -105.9L-47.3 -105.35L-47 -104.8L-46.75 -104.25L-46.55 -104.2Q-45.2 -74.9 -35.75 -47.4Q-33.65 -41.3 -31.45 -36.1L-29.15 -31.05Q-26.25 -25.15 -25.65 -25.15Q-24.6 -25.15 -21.85 -27.4Q-19.95 -28.9 -18.6 -30.35Q-18.6 -28.75 -17.85 -25.55L-17.7 -25Q-16.75 -21.15 -15.35 -21.15Q-13 -21.15 -10.9 -25Q-9.05 -28.45 -7.35 -35.05L-6.8 -37.3Q-4.65 -46.05 -4.6 -50.15Q-4.55 -46.85 -3.7 -42.3L-3.25 -42.3Q-2.8 -44.25 -2.2 -44.9L-0.9 -46.3Q0.75 -32.25 2.15 -25Q5 -9.55 6.5 -25Q7.1 -31.45 7.5 -43.2Q9.2 -96.55 11.6 -61.1L13.85 -25L14.15 -18.3Q14.3 -14.45 14.6 -12.8Q14.85 -11.3 15.25 -11.65L16.5 -12.6L16.7 -11.55Q16.9 -10.65 17.2 -10.35L17.25 -12.8L17.6 -25L17.85 -36.6Q19.05 -88.4 19.05 -108.85L20 -108.85Q21.1 -99.1 25.9 -68.4Q29.2 -47.5 31.4 -35.45L33.45 -25L33.5 -24.6L33.5 -25.15Q33.5 -26.95 33.95 -27.5L34.85 -25L35.4 -22.9Q36.3 -18.95 37.7 -17.7L37.7 -22.25L39.9 -17.6L41.9 -12.8L42.35 -11.45L42.35 -12L42.6 -12.8L42.8 -14.85L43.3 -12.8Q43.9 -10.15 44.2 -9.4Q44.8 -7.95 46.05 -7.95Q46.6 -7.95 47.35 -8.5Q48.05 -9.1 48.65 -9.1Q50.15 -9.1 51.15 -5.25Q52.45 -0.25 53.55 1.2L53.95 -12.8L54.45 -25L54.8 -31.75L55.85 -51.6Q58.15 -92.7 58.15 -102.5L59.1 -102.5Q59.45 -101.15 59.8 -92Q60.3 -79.9 60.85 -73Q63 -45.6 69.8 -37.2L69.8 -41.75L70.3 -41.75L70.9 -38.9L71.7 -36.05L72.15 -36.6L72.15 -40.05L73.1 -40.05L73.7 -38.3L74.5 -36.6Q74.5 -37.2 74.95 -37.2Q74.95 -38.65 75.85 -41.85Q76.7 -45.05 77.25 -45.75L77.25 -45.2Q77.1 -43.1 78.4 -39.85Q79.55 -36.9 80.55 -36.05L81.1 -46L81.25 -48.9L81.4 -51.75L81.45 -48.8L83.5 -81.8L84.35 -84.8L85.45 -73.25Q85.4 -98.7 88.4 -71.4Q91.4 -44.1 92.95 -34.65Q93.9 -28.6 95.45 -25Q96.3 -22.95 97.3 -21.7Q97.3 -23.45 97.75 -23.45Q97.75 -23.05 99.1 -18.6L99.45 -17.35L100.55 -13.75L100.55 -16.85L101.85 -16.25L102.8 -14.05L103.4 -12.8Q104.15 -11.3 104.75 -10.9Q104.75 -11.45 105.2 -11.45L105.2 -13.75L105.7 -12.8L107.35 -8.6Q108.6 -5.1 109.4 -5.1Q111.6 -5.1 112.55 -8.05L113.05 -10.2L113.45 -12.8L114.15 -20.25L114.4 -25Q115.9 -56.75 118.25 -91.7L118.25 -91L120.85 -59.15Q122.5 -38.15 123.1 -25L123.4 -12.8L123.4 -12.55L123.85 -12.55L123.95 -12.8Q124.8 -16.3 124.8 -18.85L125.25 -18.85Q125.25 -17.7 125.7 -17.7L125.7 -18.3L125.95 -20.8L126.2 -22.9L126.65 -22.9L126.9 -20.9L127.1 -19.45L127.1 -20L127.6 -22.4L128 -25L128.05 -25.15L128.5 -24.6Q130.2 -15.55 130.85 -12.95L130.9 -12.8Q132 -8.3 133.2 -6.85L133.25 -12.8L133.45 -25Q133.75 -39.55 134.55 -58Q136.15 -93.9 138.3 -110.5L138.3 -109.4Q139.2 -104.85 140.6 -86.35Q141.9 -69.85 142 -63.45L142.05 -62.35L143 -25L143.3 -12.8L144.25 24.85Q140.8 31.6 136.9 31.6M-123.15,-101.7L-123.45 -95.95Q-123.45 -92.45 -122.5 -79.4L-121.55 -66.45L-122.05 -67Q-122.05 -68.45 -123.2 -74.75Q-124.55 -82.35 -125.75 -83.05L-125.75 -82.5Q-126.15 -82 -126.2 -80.9L-126.2 -85.35Q-125.8 -106.75 -125.3 -109.4L-124.35 -109.4Q-123.7 -108.55 -122.8 -106.35L-123.15 -101.7M-89.4,-105.4Q-88.2 -108.3 -86.9 -108.3L-86.35 -108.2L-87.7 -97.9L-89.4 -85.9L-89.4 -86.45L-89.85 -94.65L-90.35 -102.6L-89.4 -105.4M-13.5,-92.25L-13.05 -92.25Q-12.5 -90.6 -12.5 -81.75Q-12.5 -76.25 -13.9 -63.8L-15.3 -50.5L-14.85 -68.7Q-14.85 -74.4 -15.5 -80L-15.9 -83.15L-15.8 -83.65Q-14.85 -82.5 -14.85 -80.75L-14.4 -80.75L-14.15 -84.8L-13.95 -91.15Q-13.5 -91.15 -13.5 -92.25" />
<path style="fill:#F87800;fill-opacity:1" d="M-152.6,5.9L-152.25 5.85Q-149.65 5.85 -148 12.3Q-146.7 17.35 -146.7 21.75Q-146.25 21.5 -143.7 17.75Q-141.4 14.35 -139.95 14.35Q-138.25 14.35 -136.65 22.25Q-135 30.65 -133.65 31.6Q-130.05 29.45 -128.45 18.2Q-127.55 11.85 -127.55 6.4Q-125.1 18 -121.35 29.75Q-116.6 44.65 -114.05 44.65Q-112.35 44.65 -111.05 40.7Q-109.7 36.7 -108.25 36.7Q-107.4 36.7 -105 42.65Q-102.6 48.65 -101.95 48.65L-100.5 48.4Q-99.7 47.6 -99.6 44.1Q-97.7 44.5 -96.05 47.2L-94.05 50.9L-92.65 49.75Q-91.65 48.65 -91.25 48.65Q-90.3 48.65 -88.45 50.9L-86.1 45.25L-83.8 37.25Q-83.1 38.1 -81.95 40.55L-80.55 43.45L-78.55 40.2Q-76.55 37.25 -74 37.25Q-73.35 4.3 -71.65 1.2L-70.75 1.2Q-70.75 4.05 -68.65 21.4Q-66.5 39.6 -65.6 41.75L-64.75 40.4Q-64.2 39.55 -64.2 38.9Q-63.3 39.55 -61.6 42.95L-60.05 46.35L-58.1 45.3Q-57.25 44.55 -55.85 44.1Q-41.6 68.65 -38.4 68.65Q-37.95 68.65 -36.1 65.3L-33 60.05L-30.9 61.85Q-29.7 62.9 -27.9 62.95Q-26.55 55.75 -26.55 54.4Q-25.1 54.7 -22.75 57.25L-17.1 50.8Q-14.75 48.15 -13.55 45Q-11.15 38.55 -6.45 5.15L-6 5.15Q-6.6 13.15 -2.7 25Q1.1 36.7 3.9 36.7Q4.6 36.7 6.5 35.9Q8.4 35.05 8.8 35.05Q9.7 35.05 11.65 38.75Q13.55 42.35 14.15 42.35Q14.75 42.35 15.8 41.8Q16.85 41.2 17.4 41.2Q19.2 41.2 20.75 43.85Q22.55 46.85 24.65 47.5Q27.55 48.45 29.4 54.8Q31.1 60.7 32.75 60.7Q35.2 60.7 35.85 49.1Q37.05 27 38.6 15.55L39.15 15.55Q39.15 21.15 48.85 49.8L49.8 49.8Q49.75 49.25 50.75 46.95Q51.75 44.7 51.65 43.45Q53.9 45.25 55.85 47.4Q57.2 48.65 59.3 48.65L61.05 48.05Q62.25 47.5 62.8 47.5Q63.55 47.5 65 48.7Q66.4 49.8 66.8 49.8L70.75 50.4Q73.7 50.6 75.4 48.65L77.6 42.8Q79.55 37.8 80.1 37.8Q80.8 37.8 82.4 40Q83.05 38.8 83.65 38.25Q84.75 37.25 86.6 37.25Q87.85 34.1 88.55 19.6Q89.25 5.1 89.85 3.5L90.8 3.5Q91.85 9.95 102.45 42.9Q103.35 41.8 106.2 27Q107.1 27.7 109.05 32.8L111.3 38.35Q112.45 36.5 113.25 31.8L114.1 26.45L115.95 26.45L117.1 29.2L118.25 32.15Q121.1 30.85 123.4 20.7L126.65 6.95Q129.7 12.3 133.05 23.25Q135.6 31.6 136.9 31.6Q140.8 31.6 144.25 24.85L144.3 27.45L145.15 30.4L145.7 33.3L145.7 34.9Q145.7 64.8 101.95 85.95Q58.25 107.1 -3.6 107.1Q-65.45 107.1 -109.2 85.95Q-151.55 65.45 -152.85 36.7L-152.9 34.85L-152.7 31.1L-152.6 5.9" />
</g>
</svg>
