<?xml version="1.0" encoding="utf-8"?>
<svg version="1.1" id="Layer_1"
xmlns="http://www.w3.org/2000/svg"
xmlns:xlink="http://www.w3.org/1999/xlink"
xmlns:author="http://www.sothink.com"
width="45px" height="32px"
xml:space="preserve">
<g id="2770" transform="matrix(1, 0, 0, 1, 7.6, 5.45)">
<path style="fill:#694817;fill-opacity:1" d="M24.1,3.85Q25.85 5.6 26.95 8.25L27.75 10.85L27.8 11.05L27.95 11.95L27.95 12.25L28 13.05L28.05 13.55L28.05 14.4L27.95 15.25Q27.95 15.85 26.85 17.6Q21 27 9.75 23.9Q8.35 23.5 6.6 22.35L5.25 21.45Q3 19.85 2.15 17.85L1.25 15.4L1.05 13.45Q0.95 11.9 1.1 10.55Q1.25 9.2 1.7 8L1.85 7.65Q2.2 6.75 2.7 5.95L3.2 5.2L4.25 3.95L5.6 2.7L5.7 2.65Q8.55 0.65 11.4 0.2L16.5 0Q18.8 0.25 20.55 1.15Q22.3 2.05 24.1 3.85M6.65,3.35L6.5 3.4L5.45 4.3L4.2 5.6L3.75 6.3L3.75 6.35L3.15 7.55L2.7 8.85L2.5 9.55L2.2 10.95Q1.95 12.5 2.1 14.05L2.55 15.8Q2.55 16.05 3.1 16.9L4 18.25Q6.7 22 11.15 22.95L11.7 23.05Q15.65 23.7 20.25 21.95Q23.05 20.9 24.6 19.05Q25.9 17.5 26.85 14.5L26.95 14.1L26.75 11.85L26.55 11L26.35 10.45L26.15 9.7L26 9.2Q24.8 6.1 23.2 4.5L21.45 3Q20.2 2.2 19.15 1.75L17.8 1.3L12.6 1.05L10.85 1.4L9.2 1.9L8.9 2.05Q8.55 2.1 7.55 2.7L7.3 2.85Q6.5 3.25 6.65 3.35M8.9,2.05L8.95 2L8.9 2.05" />
<path style="fill:#FBF734;fill-opacity:1" d="M25.9,9.15Q25.05 8.55 24.25 8.3L23.15 8.1L22.35 7.9L21.8 7.8L21.8 7.7L22.55 7.25L22.25 6.65L20.75 5.05L19.3 3.75L18.25 3.4L16.9 3.5L16.8 3.5L16.65 3.45L16.45 3.55L16.25 3.55L16.4 3.55Q14.85 4.25 14.5 6L14.45 5.55Q14.3 4.2 15 3.1L14.8 3.05L14.65 3.05Q13.35 3.2 12.4 3.95L11.75 4.55Q11.7 4.05 12.55 2.95L13.1 2.4L13.1 2.35L13 2.35L12.9 2.4L12.85 2.4L12.9 2.35L12.2 2.3L12.15 2.3L10.25 2.15L7.3 2.85L7.55 2.7Q8.55 2.1 8.9 2.05L9.2 1.9L10.85 1.4L12.6 1.05L17.8 1.3L19.15 1.75Q20.2 2.2 21.45 3L23.2 4.5Q24.8 6.1 26 9.2L25.9 9.15" />
<path style="fill:#FED009;fill-opacity:1" d="M25.4,11.35L25.4 11.45L25.5 11.85Q25.4 12.65 23.5 13.45L22.55 11.75L22.45 11.65L21.15 10.35L20.7 10L20.1 10.95L19.25 11.9L18.9 12.2L17.8 13.25Q17.35 13.7 16.65 12.5Q15.65 11.6 15.55 10.5Q15.2 10.8 14.15 12.75L13.85 12.55L13.8 12.65L13.6 12.35Q12.65 11.4 12.55 10.3L11.65 11.2L10.8 12.5L10.05 10.95L9.85 10.6L9.35 9.25L9.4 8.8L7.8 9.95L7.65 10.05L7.6 10.1Q6.35 11.4 6.35 12.9L6.4 13.2L5.7 12.4L5.55 12.15Q4.65 10.85 4.65 9.7L4.75 9.4L4 9.9Q3.25 10.45 2.9 11.4Q2.5 12.5 2.7 14.1L2.1 14.05Q1.95 12.5 2.2 10.95L2.5 9.55L2.7 8.85L3.15 7.55L3.75 6.35L3.75 6.3L4.2 5.6L5.45 4.3L6.5 3.4L6.65 3.35Q6.5 3.25 7.3 2.85L10.25 2.15L12.15 2.3L12.2 2.3L12.9 2.35L12.85 2.4L12.9 2.4L13 2.35L13.1 2.35L13.1 2.4L12.55 2.95Q11.7 4.05 11.75 4.55L12.4 3.95Q13.35 3.2 14.65 3.05L14.8 3.05L15 3.1Q14.3 4.2 14.45 5.55L14.5 6Q14.85 4.25 16.4 3.55L16.25 3.55L16.45 3.55L16.65 3.45L16.8 3.5L16.9 3.5L18.25 3.4L19.3 3.75L20.75 5.05L22.25 6.65L22.55 7.25L21.8 7.7L21.8 7.8L22.35 7.9L23.15 8.1L24.25 8.3Q25.05 8.55 25.9 9.15L26 9.2L26.15 9.7L26.35 10.45L26.55 11L26.75 11.85Q26.15 11.5 25.4 11.35M16,10.05L16.05 10.05L16.05 9.8L16 10.05M8.95,2L8.9 2.05L8.95 2" />
<path style="fill:#D48D01;fill-opacity:1" d="M26.75,11.85L26.95 14.1L26.85 14.5Q25.9 17.5 24.6 19.05Q23.05 20.9 20.25 21.95Q15.65 23.7 11.7 23.05L11.15 22.95Q6.7 22 4 18.25L3.1 16.9Q2.55 16.05 2.55 15.8L2.1 14.05L2.7 14.1Q2.5 12.5 2.9 11.4Q3.25 10.45 4 9.9L4.75 9.4L4.65 9.7Q4.65 10.85 5.55 12.15L5.7 12.4L6.4 13.2L6.35 12.9Q6.35 11.4 7.6 10.1L7.65 10.05L7.8 9.95L9.4 8.8L9.35 9.25L9.85 10.6L10.05 10.95L10.8 12.5L11.65 11.2L12.55 10.3Q12.65 11.4 13.6 12.35L13.8 12.65L13.85 12.55L14.15 12.75Q15.2 10.8 15.55 10.5Q15.65 11.6 16.65 12.5Q17.35 13.7 17.8 13.25L18.9 12.2L19.25 11.9L20.1 10.95L20.7 10L21.15 10.35L22.45 11.65L22.55 11.75L23.5 13.45Q25.4 12.65 25.5 11.85L25.4 11.45L25.4 11.35Q26.15 11.5 26.75 11.85M16.05,9.8L16.05 10.05L16 10.05L16.05 9.8" />
<path style="fill:#D48D01;fill-opacity:1" d="M17.3,-1.35L17.4 -1.25L16.95 -1.35L16.9 -1.55L16.85 -1.85L17.3 -1.35M11.5,-2.05L11.45 -1.25L10.85 -1.1L10.7 -1.05L11.5 -2.05M-2.85,9.8L-2.05 10.05L-2 10.05L-0.4 9.85L-0.2 9.3L-0.2 9.15L-0.2 9.05L-0.25 8.3L-0.3 7.7L-0.4 7.15L-0.4 6.95L-0.55 6.8L-0.2 6.85L0.4 7.7Q0.95 8.6 1.3 9.65L1.55 10.55L2.1 13L1.4 12.95L0 12.75L-1.55 12.35L-2.25 12.15L-2.5 12.05L-2.85 11.9L-3.05 11.8L-3.45 10.8L-3.55 10.25L-3.7 9.6L-2.85 9.8" />
<path style="fill:#694817;fill-opacity:1" d="M-3,13.25L-4.15 12.5L-4.35 12.3L-5 11.05L-5.6 9.15L-5.95 7.7Q-7.15 3.3 -6.65 3.3L-3.55 4L-1.8 4.55L0.3 5.45Q0.85 5.7 1.15 5.9L1.35 6L1.85 6.95L2.1 7.55L2.55 8.75L2.7 9.25Q3.4 11.35 3.45 14.15L3 14.25L2.55 14.3L1.45 14.3L0.85 14.25L-1.1 13.95L-3 13.25M-2.45,5.95L-5 5.15L-4.25 8.05L-3.9 9.05L-3.7 9.6L-3.55 10.25L-3.45 10.8L-3.05 11.8L-2.85 11.9L-2.5 12.05L-2.25 12.15L-1.55 12.35L0 12.75L1.4 12.95L2.1 13L1.55 10.55L1.3 9.65Q0.95 8.6 0.4 7.7L-0.2 6.85L-0.55 6.8Q-1.55 6.25 -2.45 5.95" />
<path style="fill:#FAC154;fill-opacity:1" d="M13.65,13.3L13.6 12.2L13.6 12.15L13.65 13.3" />
<path style="fill:#76838C;fill-opacity:1" d="M26.8,13.9L26.7 13.05L26.85 13.85L26.8 13.9" />
<path style="fill:#FFFDBB;fill-opacity:1" d="M-4.25,8.05L-5 5.15L-2.45 5.95L-2.6 5.95Q-3.5 6.45 -3.4 7.4L-4.35 7.3L-4.25 8.05" />
<path style="fill:#FBF734;fill-opacity:1" d="M-0.65,6.85L-1.05 6.9L-1.8 7.15L-2.45 7.65L-2.05 8.6L-2.2 8.6L-2.55 8.6L-3 8.45L-3.2 8.55L-2.85 9.8L-3.7 9.6L-3.9 9.05L-4.25 8.05L-4.35 7.3L-3.4 7.4Q-3.5 6.45 -2.6 5.95L-2.45 5.95Q-1.55 6.25 -0.55 6.8L-0.4 6.95L-0.65 6.85" />
<path style="fill:#FED009;fill-opacity:1" d="M-0.4,6.95L-0.4 7.15L-0.3 7.7L-0.25 8.3L-0.2 9.05L-0.2 9.15L-0.2 9.3L-0.4 9.85L-2 10.05L-2.05 10.05L-2.85 9.8L-3.2 8.55L-3 8.45L-2.55 8.6L-2.2 8.6L-2.05 8.6L-2.45 7.65L-1.8 7.15L-1.05 6.9L-0.65 6.85L-0.4 6.95" />
<path style="fill:#1C202A;fill-opacity:1" d="M10.85,-1.1L11.45 -1.25L11.5 -2.05Q11.7 -4.2 12.55 -4.4L15.75 -4.6L15.8 -4.6Q15.9 -4.55 16.05 -4.45Q16.55 -4 16.85 -1.9L16.85 -1.85L16.9 -1.55L16.95 -1.35L17.4 -1.25L17.3 -1.35L20.05 -0.7L20.15 -0.55L20.5 -0.4L21.25 -0.05L23.15 0.95L24.95 2.3Q25.8 3.05 28.35 6.55Q26.5 4.7 26.3 5.25L26.1 5.8L24.7 4L23.3 2.65L23.25 2.6Q21.15 0.8 17.95 0.05L17.05 -0.15L17.15 0.45L17.4 3.35L17.65 6.15L17.95 9.85L18.25 14L18.3 17.7L18.25 18.85Q18.4 19.85 17.25 20.45L14.5 20.7Q12.95 20.35 12.85 19.65L12.5 14.5L12.5 13.85L12.45 13.5L11.75 3.8L11.6 2L11.6 1.65L11.5 0L10.8 0.15L9.3 0.55L8.55 0.85L6.95 1.65Q5.75 2.25 4.2 3.8Q2.6 5.35 2.1 6.5L1.85 6.95L1.35 6L1.15 5.9L1.75 4.75Q2.8 3.05 4.35 1.85Q5.55 0.85 7.7 -0.2L7.2 0.15L7.15 0.2Q8.85 -0.75 10.3 -1L10.7 -1.05L10.85 -1.1M13.65,13.3L13.7 14.15L13.75 14.5L13.8 15.8L14.05 19.2Q15.7 20 17.15 18.8L17.15 18.6L17 15.65L16 -0.25L16 -0.3L15.95 -0.65L15.85 -1.35L15.8 -1.5L15.65 -2.2L15.4 -3L13 -2.95Q12.85 -2.85 12.85 -2.1L12.85 -1.05L12.85 -0.45L12.85 -0.25L12.85 -0.2L12.95 1.6L13.05 3.75L13.1 4.1L13.1 4.45L13.6 12.2L13.65 13.3M31.5,11.6L31.55 11L32.7 10.25Q32.85 11.6 32.4 12.7L31.1 14.7Q30.45 15.3 29.1 15.3L27.6 18.7L26.1 20.9Q24.9 22.35 23.7 23.05L20.25 24.7Q18.7 25.3 16.3 25.6Q13.85 25.9 11.2 25.6Q8.55 25.25 6.75 24.35Q4.95 23.35 3.25 21.95Q1.7 20.65 0.65 17.85Q-0.35 18.5 -1.85 17.65Q-3.4 16.75 -3.9 14.75L-4.15 12.5L-3 13.25L-2.95 13.65L-2.9 13.85L-2.85 14L-2.8 14.5L-2.5 15.15L-2.05 15.9L-2 15.95L-1.75 16.15Q-1.1 16.7 -0.2 16.85L0.3 16.8L1.2 15.9L1.45 14.3L2.55 14.3L2.1 16.45L2.1 16.55L1.65 17.2Q2.55 19.35 4.5 21.15Q8.2 24.5 12.55 24.55L17.55 24.2L17.6 24.2L18.9 23.95Q22.3 22.75 24.4 20.95Q25.9 19.6 26.75 17.9L27.8 15L27.4 14.65L27.3 14.55L27.25 14.4L27.05 14.25L27.5 13.7Q27.9 13.2 26.85 13.85L26.7 13.05L26.8 13.9Q26.45 13.25 26.25 12.1L27.35 12.05L27.5 12.75L28 13.75Q28.45 14.2 29.15 14.15L29.4 14.1Q30.1 13.85 30.6 13.35L30.75 13.2L30.85 13.1L31.25 12.25L31.35 12.05L31.5 11.6" />
<path style="fill:#2D343C;fill-opacity:1" d="M2.75,8.9L3.95 10.2L4.9 12.25L5.3 13.15Q5.75 13.5 7.65 13.9L12.5 14.5L12.85 19.65Q12.95 20.35 14.5 20.7L17.25 20.45Q18.4 19.85 18.25 18.85L18.3 17.7L18.25 14Q20.6 13.55 22.7 12.65L23.85 12.15L24.95 11.6L24.9 11.95L25.4 12.05L26.25 12.1Q26.45 13.25 26.8 13.9L26.85 13.85Q27.9 13.2 27.5 13.7L27.05 14.25L27.25 14.4L27.3 14.55Q26.4 16.85 24.3 18.85L20.6 21.55Q17.9 22.75 13 22.8Q6.7 22.85 2.1 16.55L2.1 16.45L2.55 14.3L3 14.25L3.45 14.15Q3.4 11.35 2.7 9.25L2.55 8.75L2.75 8.9M17,15.65L17.15 18.6L17.15 18.8Q15.7 20 14.05 19.2L13.8 15.8L13.75 14.5L13.7 14.15L14 14.5L14.2 14.7L15 15.45L15.9 15.85L16.65 16.05L17 15.65M27.5,12.75L27.35 12.05L29.25 11.8L30.3 12.1L31.35 12.05L31.25 12.25L30.85 13.1L30.75 13.2L29.45 13.35L28.6 13.25Q27.85 13.1 27.5 12.75M-2.25,14.1L-1.1 13.95L0.85 14.25L0.75 14.4Q-0.25 15.75 -2.05 15.9L-2.5 15.15L-2.8 14.5L-2.85 14L-2.25 14.1" />
<path style="fill:#61666C;fill-opacity:1" d="M7.65,13.9Q5.75 13.5 5.3 13.15L4.9 12.25L3.95 10.2L2.75 8.9L3.85 7.9Q5.2 6.75 7.15 5.5Q8.25 4.75 10.1 4.2L11.75 3.8L12.45 13.5L12.5 13.85L12.5 14.5L7.65 13.9M18.9,5.1Q19.5 3.8 19.65 3.8L24.35 5.85L25.8 6.7L25.7 7Q25.05 8.95 24.95 11.6L23.85 12.15L22.7 12.65Q20.6 13.55 18.25 14L17.95 9.85L17.65 6.15Q18.55 5.85 18.9 5.1M13.6,12.15L13.75 11.3L13.9 9.1Q13.9 7.8 14.05 7.25L14.2 5.85L14.2 5.35L14.45 0.2L14.6 -0.35L15.1 -1L15.85 -1.35L15.95 -0.65L16 -0.3L16 -0.25L17 15.65L16.65 16.05L15.9 15.85L15 15.45L14.2 14.7L14 14.5L13.7 14.15L13.65 13.3L13.6 12.15M28.6,13.25L29.45 13.35L30.75 13.2L30.6 13.35Q30.1 13.85 29.4 14.1L29.15 14.15Q28.45 14.2 28 13.75L27.5 12.75Q27.85 13.1 28.6 13.25M13,22.8Q17.9 22.75 20.6 21.55L24.3 18.85Q26.4 16.85 27.3 14.55L27.4 14.65L27.8 15L26.75 17.9Q25.9 19.6 24.4 20.95Q22.3 22.75 18.9 23.95L17.6 24.2L17.55 24.2L12.55 24.55Q8.2 24.5 4.5 21.15Q2.55 19.35 1.65 17.2L2.1 16.55Q6.7 22.85 13 22.8M1.45,14.3L1.2 15.9L0.3 16.8L-0.2 16.85Q-1.1 16.7 -1.75 16.15L-2 15.95L-2.05 15.9Q-0.25 15.75 0.75 14.4L0.85 14.25L1.45 14.3M-1.1,13.95L-2.25 14.1L-2.85 14L-2.9 13.85L-2.95 13.65L-3 13.25L-1.1 13.95M31.55,11L31.5 11.6L31.35 12.05L30.3 12.1L29.25 11.8Q30.5 11.55 31.55 11" />
<path style="fill:#969BA1;fill-opacity:1" d="M6.25,3.4Q8.6 1.85 11.6 1.65L11.6 2L11.75 3.8L10.1 4.2Q8.25 4.75 7.15 5.5Q5.2 6.75 3.85 7.9L2.75 8.9L2.55 8.75L2.1 7.55L1.85 6.95L2.1 6.5Q3.15 5.4 6.25 3.4M25.8,6.7L24.35 5.85L19.65 3.8Q19.5 3.8 18.9 5.1Q18.55 5.85 17.65 6.15L17.4 3.35L17.85 3.15Q18.25 2.85 18.4 1.5L19.95 1.9L23.3 3.25L24.7 4L26.1 5.8L25.8 6.7M15.1,-1L14.6 -0.35L14.45 0.2L14.2 5.35L14.2 5.85L14.05 7.25Q13.9 7.8 13.9 9.1L13.75 11.3L13.6 12.15L13.5 10.65L13.35 8.25L13.6 -0.65Q13.6 -1.3 13.75 -1.6L13.85 -1.75Q14.25 -2.15 15.65 -2.2L15.8 -1.5L15.85 -1.35L15.1 -1" />
<path style="fill:#DBDBDB;fill-opacity:1" d="M2.1,6.5Q2.6 5.35 4.2 3.8Q5.75 2.25 6.95 1.65L8.55 0.85L9.3 0.55L10.8 0.15L11.5 0L11.6 1.65Q8.6 1.85 6.25 3.4Q3.15 5.4 2.1 6.5M17.4,3.35L17.15 0.45L17.05 -0.15L17.95 0.05Q21.15 0.8 23.25 2.6L23.3 2.65L24.7 4L23.3 3.25L19.95 1.9L18.4 1.5Q18.25 2.85 17.85 3.15L17.4 3.35M13.85,-1.75L13.75 -1.6Q13.6 -1.3 13.6 -0.65L13.35 8.25L13.5 10.65L13.6 12.15L13.6 12.2L13.1 4.45L13.1 4.1L13.05 3.75L12.95 1.6L12.85 -0.2L12.85 -0.25L12.85 -0.45L12.85 -1.05L12.85 -2.1Q12.85 -2.85 13 -2.95L15.4 -3L15.65 -2.2Q14.25 -2.15 13.85 -1.75" />
<path style="fill:#872C09;fill-opacity:1" d="M15.8,-4.6L15.75 -4.6L12.55 -4.4Q11.7 -4.2 11.5 -2.05L10.7 -1.05L10.3 -1Q8.85 -0.75 7.15 0.2L7.2 0.15L7.7 -0.2Q10.6 -3.75 14 -5.45L15.8 -4.6M20.05,-0.7L17.3 -1.35L16.85 -1.85L16.85 -1.9Q16.55 -4 16.05 -4.45Q18.3 -3.05 20.05 -0.7" />
<path style="fill:#000000;fill-opacity:1" d="M33.45,0.15L33.15 1L33 1.45L32.9 1.65L32.85 1.85L31.95 3.3Q30.3 4.95 29.2 5.05L28 5.4L27.95 5.4L26.4 5.8L26.25 5.85Q25.15 6.3 24.6 7.7L24.35 8.25L24.25 8.9Q24.15 9.8 24.35 10.45Q24.45 10.85 24.75 11.05L24.85 11.3L24.9 11.35Q25.35 11.8 25.9 12L26.5 12.25L27.2 12.5L28.8 12.7L31.5 12.05Q32.85 11.55 34.05 9.1L34.25 8.7L34.4 8.45L35 6.65L35.2 5.7L35.25 5.5L35.35 3.25L35.3 2.75Q35.05 1.2 34.4 0.15L33.55 -1.05L33.6 -0.75L33.45 0.15M32.6,-1.4L32.75 -2.9Q32.85 -3.35 33.25 -3.1Q37.35 1.15 36.35 6.15L35.85 8.3L35.6 8.9Q34.9 10.55 33.9 11.6L32.55 12.75Q31.25 13.6 29.6 13.7L29.1 13.7L28.65 13.7L27.05 13.55Q25.05 13.25 23.95 12.1L23.85 11.95L23.75 11.8L23.35 11.15Q22.95 10.35 23.05 9.25L23.1 9.1L23.3 7.95L23.45 7.4Q23.85 6.25 24.7 5.55Q25.45 4.85 26.65 4.6L27.55 4.4L28.95 4L30.8 2.8Q31.7 1.85 32 0.85L32.5 -0.7L32.6 -1.4M2.25,5.5L2.5 5.5Q3.65 5.75 4.45 6.45Q5.25 7.2 5.65 8.35L5.85 8.95L6.05 10.05L6.1 10.2Q6.2 11.35 5.8 12.15L5.4 12.8L5.25 12.95L5.15 13.1Q4.05 14.25 2.1 14.55L0.45 14.75L0 14.75L-0.55 14.75Q-2.2 14.6 -3.55 13.75L-4.85 12.6Q-5.85 11.55 -6.6 9.85L-6.8 9.25L-7.4 7.1Q-8.4 2 -4.25 -2.3Q-3.8 -2.55 -3.75 -2.1L-3.85 -0.9Q-4 0.1 -3.45 1.25L-1.7 3.8Q-0.5 5.1 0.75 5.3L2.25 5.5M0.65,6.25L0.15 6.1L-1.2 5.7Q-2.15 5.25 -2.95 4.15L-3.95 2.55Q-4.2 2.15 -4 2.4L-3.85 2.5L-3.95 2.3L-4.15 1.85L-4.4 1L-4.6 0.1L-4.55 -0.2L-5.35 1Q-6.05 2.1 -6.25 3.7L-6.3 4.15Q-6.45 5.3 -6.2 6.4L-6.15 6.6L-6 7.6L-5.35 9.4L-5.2 9.65L-5.05 10.05Q-3.8 12.55 -2.4 13.05L0.25 13.7L1.95 13.5L2.6 13.3L3.2 13L4.2 12.4L4.25 12.3L4.4 12.05L4.8 11.5L4.9 9.85L4.75 9.2L4.5 8.65Q4 7.25 2.85 6.75L2.7 6.7L1.1 6.3L0.65 6.25" />
<path style="fill:#232323;fill-opacity:1" d="M25.9,12Q25.35 11.8 24.9 11.35L24.85 11.3L24.75 11.05Q24.45 10.85 24.35 10.45Q24.15 9.8 24.25 8.9L24.35 8.25L24.6 7.7Q25.15 6.3 26.25 5.85L26.4 5.8L27.95 5.4Q26.6 7.65 26.9 8.35L26.95 8.4L27.65 8.65L28.55 8.45L30 7.9L31.05 7.25L31.3 7.05L31.85 6.7L32.6 5.9L33.25 5.05L33.8 3.7L33.95 3.15L34.05 2.4L33.95 0.7L33.6 -0.75L33.55 -1.05L34.4 0.15L34.6 1.65L34.75 3.85L34.7 4.65L34.6 5.5L34.3 6.95Q33.95 8.3 33.05 9.3L32.8 9.55L30.95 11.05L30.9 11.05Q28.55 12.25 25.9 12M-5.35,1L-4.55 -0.2L-4.6 0.1L-4.9 1.55L-5.05 3.3L-4.95 4.1L-4.75 4.65L-4.25 5.95L-3.6 6.8L-2.8 7.65L-2.25 8.05L-1.95 8.2L-0.9 8.85Q-0.2 9.25 0.55 9.45L1.45 9.6Q2.05 9.6 2.15 9.35L2.2 9.3Q2.55 8.6 1.1 6.3L2.7 6.7L2.85 6.75Q4 7.25 4.5 8.65L4.75 9.2L4.9 9.85L4.8 11.5L4.4 12.05L4.25 12.3L4.2 12.4L3.2 13Q0.55 13.3 -1.8 12.05L-1.85 12.05Q-3.05 11.5 -3.75 10.5L-4.05 10.25Q-4.9 9.25 -5.25 7.9L-5.6 6.4L-5.7 5.6L-5.7 4.75L-5.6 2.5L-5.35 1" />
<path style="fill:#414141;fill-opacity:1" d="M30.9,11.05L30.95 11.05L32.8 9.55L33.05 9.3Q33.95 8.3 34.3 6.95L34.6 5.5L34.7 4.65L34.75 3.85L34.6 1.65L34.4 0.15Q35.05 1.2 35.3 2.75L35.35 3.25L35.25 5.5L35.2 5.7L35 6.65L34.4 8.45L34.25 8.7L34.05 9.1Q32.85 11.55 31.5 12.05L28.8 12.7L27.2 12.5L26.5 12.25L25.9 12Q28.55 12.25 30.9 11.05M27.95,5.4L28 5.4L29.2 5.05Q30.3 4.95 31.95 3.3L32.85 1.85L32.9 1.65L33 1.45L33.15 1L33.45 0.15L33.6 -0.75L33.95 0.7L34.05 2.4L33.95 3.15L33.8 3.7L33.25 5.05L32.6 5.9L31.85 6.7L31.3 7.05L31.05 7.25L30 7.9L28.55 8.45L27.65 8.65L26.95 8.4L26.9 8.35Q26.6 7.65 27.95 5.4M32.45,3.75L31.75 4.4L31.05 5L30.05 5.85L29.55 6.3L29.25 6.55Q28.85 6.9 29.35 6.9L31 6.5L31.6 6.2L32.3 5.3Q32.55 4.65 32.45 3.75M-5.6,2.5L-5.7 4.75L-5.7 5.6L-5.6 6.4L-5.25 7.9Q-4.9 9.25 -4.05 10.25L-3.75 10.5Q-3.05 11.5 -1.85 12.05L-1.8 12.05Q0.55 13.3 3.2 13L2.6 13.3L1.95 13.5L0.25 13.7L-2.4 13.05Q-3.8 12.55 -5.05 10.05L-5.2 9.65L-5.35 9.4L-6 7.6L-6.15 6.6L-6.2 6.4Q-6.45 5.3 -6.3 4.15L-6.25 3.7Q-6.05 2.1 -5.35 1L-5.6 2.5M-4.6,0.1L-4.4 1L-4.15 1.85L-3.95 2.3L-3.85 2.5L-4 2.4Q-4.2 2.15 -3.95 2.55L-2.95 4.15Q-2.15 5.25 -1.2 5.7L0.15 6.1L0.65 6.25L1.1 6.3Q2.55 8.6 2.2 9.3L2.15 9.35Q2.05 9.6 1.45 9.6L0.55 9.45Q-0.2 9.25 -0.9 8.85L-1.95 8.2L-2.25 8.05L-2.8 7.65L-3.6 6.8L-4.25 5.95L-4.75 4.65L-4.95 4.1L-5.05 3.3L-4.9 1.55L-4.6 0.1M-3.4,4.65Q-3.55 5.6 -3.3 6.2L-2.55 7.15L-1.9 7.5L-0.3 7.85Q0.2 7.85 -0.2 7.55L-0.45 7.25L-0.95 6.75L-1.95 5.9L-2.75 5.3L-3.4 4.65" />
<path style="fill:#6D6969;fill-opacity:1" d="M32.3,5.3L31.6 6.2L31 6.5L29.35 6.9Q28.85 6.9 29.25 6.55L29.55 6.3L30.05 5.85L31.05 5L31.75 4.4L32.45 3.75Q32.55 4.65 32.3 5.3M-2.75,5.3L-1.95 5.9L-0.95 6.75L-0.45 7.25L-0.2 7.55Q0.2 7.85 -0.3 7.85L-1.9 7.5L-2.55 7.15L-3.3 6.2Q-3.55 5.6 -3.4 4.65L-2.75 5.3" />
</g>
</svg>
