<?xml version="1.0" encoding="utf-8"?>
<svg version="1.1" id="Layer_1"
xmlns="http://www.w3.org/2000/svg"
xmlns:xlink="http://www.w3.org/1999/xlink"
xmlns:author="http://www.sothink.com"
width="20px" height="21px"
xml:space="preserve">
<g id="1836" transform="matrix(1, 0, 0, 1, -18.1, -26.15)">
<path style="fill:#B49148;fill-opacity:1" d="M21.45,41.65L20.25 40.7L19.85 40.35L19.7 40.2Q19.45 39.7 19.9 40L21.85 41.65L23.2 43.05L21.45 41.65M27.6,31.5L21.95 41.25L21 40.4Q21.95 38.4 22.75 37.15Q23 36.2 24.05 34.4Q25 32.3 26 30.95L26.75 29.7L28.1 29.45L34.25 28.35L34.1 31L27.6 31.5" />
<path style="fill:#4D3212;fill-opacity:1" d="M18.95,39.6L20.35 39.85L21.8 36.4Q25.1 28.4 25.55 28.1L38 26.15L35.6 38.6L24.6 44.1L24.95 44.7L25.05 45L24.95 45.4L24.45 45.25L22.95 44.3L21.55 43Q19.85 41.35 19.2 40.25L19.05 39.95L18.95 39.6M19.7,40.25L19.75 40.3L21.05 42L22.9 43.65L23.95 44.55L24.15 44.35L23.7 43.65L23.6 43.55L23.2 43.05L21.85 41.65L19.9 40Q19.45 39.7 19.7 40.2L19.7 40.25M22.1,41.35L22.85 42.1L23.1 42.45L23.5 42.8L23.95 43.3L24.05 43.3L27.9 40.95Q30 39.45 32.55 38.05L34.05 37.25Q35.05 33.65 35.25 31.8Q35.4 29.9 35.7 28.55L35.75 28.1L34.25 28.35L28.1 29.45L26.75 29.7L26 30.95Q25 32.3 24.05 34.4Q23 36.2 22.75 37.15Q21.95 38.4 21 40.4L21.95 41.25L22.1 41.35" />
<path style="fill:#745416;fill-opacity:1" d="M21.2,41.8Q22.8 43.4 23.55 43.65L23.7 43.65L24.15 44.35L23.95 44.55L22.9 43.65L21.05 42L19.75 40.3L19.7 40.25L19.7 40.2L19.85 40.35L21.2 41.8M35.75,28.1L35.7 28.55Q35.4 29.9 35.25 31.8Q35.05 33.65 34.05 37.25L32.55 38.05Q30 39.45 27.9 40.95L24.05 43.3L23.95 43.3L23.5 42.8L23.1 42.45L22.85 42.1L24.3 41.1Q22.55 39.6 24.45 39.65L24.15 40.05L24.25 40.35L24.7 40.9L32.6 36L34.1 31L34.25 28.35L35.75 28.1M29.05,34Q27.4 36.6 26.35 37.7Q25.1 38.6 25.55 37.45Q25.8 36.1 28.8 33.8L29.05 34" />
<path style="fill:#9A7226;fill-opacity:1" d="M19.85,40.35L20.25 40.7L21.45 41.65L23.2 43.05L23.6 43.55L23.7 43.65L23.55 43.65Q22.8 43.4 21.2 41.8L19.85 40.35M21.95,41.25L27.6 31.5L34.1 31L32.6 36L24.7 40.9L24.25 40.35L24.15 40.05L24.45 39.65Q22.55 39.6 24.3 41.1L22.85 42.1L22.1 41.35L21.95 41.25M28.8,33.8Q25.8 36.1 25.55 37.45Q25.1 38.6 26.35 37.7Q27.4 36.6 29.05 34L28.8 33.8" />
<path style="fill:#4D3212;fill-opacity:1" d="M18.15,40.35Q18.3 39.45 19.35 39.5Q20.4 39.45 22 40.65Q23.7 41.7 24.6 43.05Q25.5 44.35 25.6 45Q25.65 45.6 25.35 45.95L23.3 46.05L22.85 45.8Q19.85 44.35 18.95 42.8Q17.95 41.15 18.15 40.35M24.05,44.05L24 44.05L23.9 43.85L23.5 43.4L22 41.9Q20.3 40.4 19.65 40.3Q19.15 40.25 19.1 40.8L19.1 41L19.05 41.05Q19.2 41.75 20.55 42.9L22.7 44.6Q23.5 45.25 24.05 45.25Q24.65 45.3 24.55 44.9L24.05 44.05" />
<path style="fill:#B49148;fill-opacity:1" d="M19.1,40.8Q19.15 40.25 19.65 40.3Q20.3 40.4 22 41.9L23.5 43.4L21.3 42.05L19.85 41.3L19.3 41.1L19.1 40.8" />
<path style="fill:#745416;fill-opacity:1" d="M24.55,44.9Q24.65 45.3 24.05 45.25Q23.5 45.25 22.7 44.6L20.55 42.9Q19.2 41.75 19.05 41.05L19.1 41L19.1 40.8L19.3 41.1L20.85 42.5Q22.85 44.15 23.7 44.1L24.05 44.05L24.55 44.9" />
<path style="fill:#9A7226;fill-opacity:1" d="M23.9,43.85L24 44.05L24.05 44.05L23.7 44.1Q22.85 44.15 20.85 42.5L19.3 41.1L19.85 41.3L21.3 42.05L23.5 43.4L23.9 43.85" />
</g>
</svg>
