<?xml version="1.0" encoding="utf-8"?>
<svg version="1.1" id="Layer_1"
xmlns="http://www.w3.org/2000/svg"
xmlns:xlink="http://www.w3.org/1999/xlink"
xmlns:author="http://www.sothink.com"
width="27px" height="29px"
xml:space="preserve">
<g id="3017" transform="matrix(1, 0, 0, 1, 0, 0)">
<path style="fill:#000000;fill-opacity:1" d="M18.15,27.7L17.95 27.8L17.55 27.95L16.2 28.2Q13.95 28.35 12.65 27.55Q11.35 26.75 11.1 26.15L10.25 22.8L9.45 20.95Q8.15 18.95 5.15 17.1Q0.75 14.4 0.1 9.2Q-0.55 4 3 1.6Q6.55 -0.8 11.25 0.35Q15.9 1.45 17.75 5.1L19.65 9.75Q20.9 13.05 22.85 14.3L25.45 15.95Q27.15 18.4 26.35 20.5Q25.5 22.5 24.5 22.2Q27 17.95 23.6 16.2Q20.15 14.35 18.8 10.9L18 8.9L16.65 5.5Q15.8 3.55 12.35 2.05Q8.9 0.5 6.7 1.2Q4.55 1.9 3.6 2.7Q2.6 3.45 1.95 4.65Q1.25 5.8 1.25 8.05Q1.25 10.3 2.6 12.8Q3.95 15.3 7.55 17.5Q9.15 18.5 10.3 20.2Q11.7 22.3 12.3 25.55L12.5 25.7Q15.65 28.25 19.6 26.55L19.25 26.95L18.15 27.7" />
<path style="fill:#201619;fill-opacity:1" d="M23.6,23.6Q21.9 25.7 19.25 26.95L19.6 26.55Q15.65 28.25 12.5 25.7L12.3 25.55Q11.7 22.3 10.3 20.2Q9.15 18.5 7.55 17.5Q3.95 15.3 2.6 12.8Q1.25 10.3 1.25 8.05Q1.25 5.8 1.95 4.65Q2.6 3.45 3.6 2.7Q4.55 1.9 6.7 1.2Q8.9 0.5 12.35 2.05Q15.8 3.55 16.65 5.5L18 8.9L18.8 10.9Q20.15 14.35 23.6 16.2Q27 17.95 24.5 22.2L23.6 23.6" />
</g>
</svg>
