<?xml version="1.0" encoding="utf-8"?>
<svg version="1.1" id="Layer_1"
xmlns="http://www.w3.org/2000/svg"
xmlns:xlink="http://www.w3.org/1999/xlink"
xmlns:author="http://www.sothink.com"
width="17px" height="22px"
xml:space="preserve">
<g id="37" transform="matrix(1, 0, 0, 1, 15, -12.1)">
<path style="fill:#A62929;fill-opacity:1" d="M1.85,23.65Q2.05 24.35 1.55 24.45Q1 24.6 0.95 24.2L0.95 23.6L1.2 23.1L1.7 23.25L1.8 23.35L1.85 23.65M-2.55,12.2Q-2.1 12.55 -2.05 13L-2.1 13.45L-2.65 13.65Q-3.7 13.8 -3.85 12.95Q-3.9 12.2 -3.2 12.1L-2.65 12.15L-2.55 12.2M-13.6,20.4L-13.2 20.8Q-13.1 21.1 -13.35 21.55L-13.75 22L-14.45 21.95L-14.95 21.35Q-15.05 21.05 -14.75 20.75L-14.7 20.65L-14.5 20.5L-14.25 20.3L-13.6 20.4M-0.55,16.85L-0.3 17.25Q-0.15 17.8 -0.55 17.9L-1.3 17.45L-1.1 16.8L-0.55 16.85M-9.85,14.5L-9.7 14.5Q-9.25 14.4 -9.1 14.75L-9.15 15.1L-9.35 15.35L-9.8 15.3Q-10.1 15.25 -10.2 15.05L-10.1 14.75L-10 14.65L-9.85 14.5M-6.75,18.4L-7.4 18.25L-7.6 17.9Q-7.7 16.75 -6.55 16.45L-5.65 16.65Q-5.2 16.85 -5.15 17.25Q-5.1 17.65 -5.7 17.8L-6.35 18.15L-6.75 18.4M-8.6,23.5Q-8.05 24.15 -7.95 24.85Q-7.7 25.75 -8.75 25.95L-9.85 25.75L-10.5 24.95Q-10.7 24.2 -10.2 23.6L-9.4 23.1Q-9 23 -8.6 23.5M-1.85,21.55L-1.7 21.7L-1.55 21.8L-1.3 22.4L-1.4 23.25Q-1.65 23.85 -2.25 24.05L-3.05 24L-3.6 23.4Q-3.75 22.9 -3.5 22.4Q-3.25 21.8 -2.8 21.7L-2.15 21.65L-1.85 21.55M-3.45,33.05L-4 33.65L-4.6 33.5L-5.15 32.95L-5 32.2L-4.45 31.65L-4.4 31.65L-4.15 31.65Q-3.95 31.65 -3.7 31.8Q-3.3 32.1 -3.2 32.45Q-3.15 32.65 -3.45 33.05" />
</g>
</svg>
