<?xml version="1.0" encoding="utf-8"?>
<svg version="1.1" id="Layer_1"
xmlns="http://www.w3.org/2000/svg"
xmlns:xlink="http://www.w3.org/1999/xlink"
xmlns:author="http://www.sothink.com"
width="57px" height="364px"
xml:space="preserve">
<g id="2737" transform="matrix(1, 0, 0, 1, 11, 281.35)">
<path style="fill:#FFFFFF;fill-opacity:1" d="M19.5,-280.8L19.5 -281.2L20.1 -281.35Q22.5 -280.65 22.5 -274.15L21 -265.3Q19.5 -257.45 19.5 -255.45Q18.9 -257.2 18.2 -260.25L17 -264.8Q18.05 -266.5 18.85 -272.4Q19.5 -277.45 19.5 -280.8M38.8,-218.9L39 -219.4L41.4 -215.4Q43.75 -211.8 44.5 -211.4Q43.9 -210.5 43.05 -207.7L41 -200.75L41.7 -204.2L42 -208.1Q42 -212.6 39.85 -216.9L38.8 -218.9M22.5,-199.4L17.5 -192.75L17 -192.75L18.85 -200.05Q19.85 -204.6 20.25 -208.35Q21.65 -207.4 22.5 -207.4L22.5 -199.4M38.6,-128.95Q40.4 -127.35 41.5 -127.35Q40.85 -123.75 39 -118.15Q37.15 -112.65 36.75 -112.65L35.5 -112.65Q37.85 -114.15 38.3 -117.05Q38.5 -118.25 38.5 -125.35L38.45 -129.1L38.6 -128.95M15.5,-108.65Q16 -106.65 17.4 -104.25Q18.65 -102 19 -102L17 -96.65Q15.3 -91.6 15 -88.65L14.5 -88.65L15.35 -92.4Q16 -95.85 16 -98.65Q16 -101.85 14.95 -105.45L14.8 -106L15.5 -108.65M27.4,-9.5L27.95 -15.65L28 -20.3Q29.35 -19.9 30 -20.6L30.5 -18.05Q30.75 -16.6 31 -16.6Q30.45 -14.85 28.6 -11.8L27.4 -9.5M46,-8.6Q45 -3.25 45 2.1Q44.85 0.1 43.5 -6.7L42.1 -13.5L42.85 -12.2Q45.2 -8.05 46 -8.6M19.5,82.15Q19.3 79.25 18.45 76.95Q17.65 74.85 16.5 74.15L16.5 72.8L16.75 72Q18.45 72.8 22 72.8L22 74.15Q21.5 75.25 20.5 78.55L19.5 82.15M-10,-194.05Q-9.15 -188.6 -7.4 -183.25Q-5.7 -178.05 -5.5 -176.7Q-6.3 -179 -7.75 -177.4L-8.55 -176.45L-8.55 -176.6L-8.5 -180.7Q-8.5 -182.3 -9.05 -186.3Q-9.8 -191.8 -11 -195.4L-10 -195.95L-10 -194.05M-10,-107.35L-9.9 -108.4L-8.7 -106.55Q-7.5 -104.65 -7 -104.65L-7 -96.65Q-9.2 -98.8 -9.8 -102.65L-10 -107.35M-4,-39.95Q-4.25 -39.25 -4.5 -39.25L-3.8 -47.55Q-2.9 -44.35 -3.5 -40.6L-4 -39.95M-3.25,18.1L-3.5 22.6L-3.5 22.1Q-3.95 18.9 -4.75 16.5L-6 12.75L-5.2 11.05L-3 12.75L-3.25 18.1" />
</g>
</svg>
