<?xml version="1.0" encoding="utf-8"?>
<svg version="1.1" id="Layer_1"
xmlns="http://www.w3.org/2000/svg"
xmlns:xlink="http://www.w3.org/1999/xlink"
xmlns:author="http://www.sothink.com"
width="59px" height="62px"
xml:space="preserve">
<g id="477" transform="matrix(1, 0, 0, 1, 0.7, -1.35)">
<path style="fill:#E9E6E3;fill-opacity:1" d="M49.6,10.75L53.5 6.6L53.95 6.45L51.55 22.95L49.35 24.65L49.45 10.95L49.6 10.75M49.3,11.05L49.35 11L49.3 11.25L49.3 11.15L49.25 11.15L49.1 11.15L49.3 11.05" />
<path style="fill:#E2E2E2;fill-opacity:1" d="M32.45,37.7L49.35 24.65L49 27.05L39.95 34.2L33.8 39L32.9 39.7L32.9 39.65L32.45 37.7M49.3,10.8L49.35 10.85L49.4 10.9L49.5 10.75L49.55 10.75L49.6 10.75L49.45 10.95L49.35 11L49.35 10.85L49.3 11.05L49.1 11.15L49.25 11.15L44.35 15.95L44.9 15.5L44.95 15.5L33.45 27.9L30.85 30.6L23.4 30.35L15.15 41.05L14.4 40.1Q16.55 36.8 21.45 30.25L23.4 30.35L37.55 12L49.3 10.8" />
<path style="fill:#F5F1EE;fill-opacity:1" d="M49.65,10.6L49.5 10.75L49.4 10.8L49.4 10.75L49.65 10.6M49.35,10.75L49.35 10.8L49.3 10.8L49.35 10.75" />
<path style="fill:#C9C2BE;fill-opacity:1" d="M32.45,37.7L32.9 39.65L22.05 47.85L21.95 47.8L20.75 46.75L32.45 37.7M49.55,10.75L49.5 10.75L49.4 10.9L49.35 10.85L49.3 10.8L49.35 10.8L49.35 10.75L49.35 10.7L49.4 10.75L49.4 10.8L49.5 10.75L49.65 10.6L49.55 10.75M49.45,10.95L49.35 24.65L32.45 37.7L30.85 30.7L33.45 27.9L44.95 15.5L44.9 15.5L44.35 15.95L49.25 11.15L49.3 11.15L49.3 11.25L49.35 11L49.45 10.95M49.3,11.05L49.35 10.85L49.35 11L49.3 11.05M17.9,43.9L16.6 42.6L15.15 41.05L23.4 30.35L30.85 30.6L30.8 30.7L17.9 43.9" />
<path style="fill:#FFFFFF;fill-opacity:1" d="M49.35,24.65L51.55 22.95L53.95 6.45L53.5 6.6L38.35 10.9L37.55 12L23.4 30.35L21.45 30.25L25.9 24.3Q32.4 15.4 34.9 12.25L36.15 10.7Q39.9 9.1 45.95 7.4Q51.55 5.55 55 4.95L55.2 4.95L55.3 4.85L54.35 13.85L53.25 21.65L52.95 23.8L49.7 26.65L49 27.05L49.35 24.65" />
<path style="fill:#8A827D;fill-opacity:1" d="M20.75,46.75L19.9 45.9L17.9 43.9L30.8 30.7L30.85 30.8L30.85 30.7L32.45 37.7L20.75 46.75M27.85,34L27.75 34L27.75 34.1L27.85 34" />
<path style="fill:#ACA49F;fill-opacity:1" d="M30.85,30.6L33.45 27.9L30.85 30.7L30.85 30.8L30.8 30.7L30.85 30.6M27.75,34.1L27.75 34L27.85 34L27.75 34.1" />
<path style="fill:#D9AB31;fill-opacity:1" d="M7.25,43.95Q7.85 42.75 9 42.75L9.05 42.75L9.05 43L10.1 43.1L10.4 43.25L11.1 43.25L11.1 42.75L11.25 42.6L11.45 42.7L11.5 42.15L11.65 42L12.1 42.05L12.15 42.1L12.25 42.6L12.2 43L11.9 43.05L12.7 43.7L12.75 44.1L13.35 44.25L14.35 45.2L14.5 45L14.65 44.9Q15.25 44.9 15.35 45.4L15.35 45.45L14.8 45.65L15.5 46.35L16.75 47.75L17.9 48.95L19.9 51L20.95 51.95Q20.9 52.8 21.8 52.65L21.95 52.8L21.3 53.45L19.75 54.8L18.8 55.4L17.55 54.4L16.3 53.25L15.9 52.85L12.5 49.45L11.95 48.9L11 47.85L7.65 44.35L7.25 43.95M9.8,41.95L9.7 41.65Q9.7 41.35 9.95 41.3L10.5 41.35L10.55 41.35L10.65 41.4L10.65 41.55L10.65 42L9.95 42.05L9.8 41.95M11.05,45L10.95 45.15Q11.2 46.25 12.4 45.95L12.4 45.9Q12.3 44.8 11.05 45M10.5,44.9Q10.8 44.5 10.35 44.25Q9.85 44.6 10.45 44.9L10.5 44.9M12.95,49Q14.4 50.65 16.95 52.9L18.55 54.3Q19.55 54.1 20.65 52.7L19.4 51.35L17.1 48.9L15.05 46.85L13.75 45.7L14.7 48.1L14.55 48.1L14.5 48.15L14.6 48.6L14.05 48.4L13.7 48.25L13.2 48Q13.2 48.3 11.75 47.4Q10.25 46.5 12.7 48.75L12.95 49" />
<path style="fill:#FFF16A;fill-opacity:1" d="M21.8,52.65Q20.9 52.8 20.95 51.95L19.9 51L17.9 48.95L16.75 47.75L15.5 46.35L14.8 45.65L15.35 45.45L15.35 45.4Q15.25 44.9 14.65 44.9L14.5 45L14.35 45.2L13.35 44.25L12.75 44.1L12.7 43.7L11.9 43.05L12.2 43L12.25 42.6L12.15 42.1L12.1 42.05L11.65 42L11.5 42.15L11.45 42.7L11.25 42.6L11.1 42.75L11.1 43.25L10.4 43.25L10.1 43.1L9.05 43L9.05 42.75L9 42.75Q7.85 42.75 7.25 43.95L6.75 43.45L7.9 42.2L9 40.9L9.2 40.7Q10.1 39.6 10.4 39.6Q10.5 39.55 11.3 40.35L13.55 42.75L13.7 42.9L16.2 45.65L16.3 45.75L16.5 45.85L16.6 45.95L18.75 48.3L19.75 49.3L21.05 50.65L22.45 52.15L21.95 52.75L21.95 52.8L21.8 52.65M9.95,42.05L10.65 42L10.65 41.55L10.65 41.4L10.55 41.35L10.5 41.35L9.95 41.3Q9.7 41.35 9.7 41.65L9.8 41.95L9.95 42.05M10.45,44.9Q9.85 44.6 10.35 44.25Q10.8 44.5 10.5 44.9L10.45 44.9" />
<path style="fill:#513422;fill-opacity:1" d="M5.05,57.15L6.45 55.8L7.5 54.75L7.75 54.45L7.95 54.15L8.3 52.95L7.2 51.45L6.75 50.95L6 50.1L7.9 48.25L7.9 48.2L10.85 51.15L11.55 51.95L13.25 53.8L13.45 53.95L13.35 54.1L12.25 55.25L11.2 56.3L9.9 57.5Q7.5 59.75 6.25 59.75Q4.9 59.25 3.7 58.1L5.05 57.15" />
<path style="fill:#805A43;fill-opacity:1" d="M4.3,54.3L5.95 52.65L7.2 51.45L8.3 52.95L7.95 54.15L7.75 54.45L7.5 54.75L6.45 55.8L5.05 57.15L3.7 58.1L3.3 57.7L3.1 57.5L2.4 56.45L4.3 54.3" />
<path style="fill:#C4855D;fill-opacity:1" d="M2.4,56.45Q2 55.5 2.4 54.6Q2.9 53.15 4.65 51.45L5.1 51L6 50.1L6.75 50.95L7.2 51.45L5.95 52.65L4.3 54.3L2.4 56.45" />
<path style="fill:#C26F1E;fill-opacity:1" d="M12.4,45.9L12.4 45.95Q11.2 46.25 10.95 45.15L11.05 45Q12.3 44.8 12.4 45.9M12.7,48.75Q10.25 46.5 11.75 47.4Q13.2 48.3 13.2 48L13.7 48.25L14.05 48.4L14.6 48.6L14.5 48.15L14.55 48.1L14.7 48.1L13.75 45.7L15.05 46.85L17.1 48.9L19.4 51.35L20.65 52.7Q19.55 54.1 18.55 54.3L16.95 52.9Q14.4 50.65 12.95 49L12.7 48.75" />
<path style="fill:#F0EEEE;fill-opacity:1" d="M37.55,12L38.35 10.9L53.5 6.6L49.6 10.75L49.55 10.75L49.65 10.6L49.4 10.75L49.35 10.7L49.35 10.75L49.3 10.8L37.55 12" />
<path style="fill:#58524E;fill-opacity:1" d="M14.4,40.1L12.55 38.15L34.2 8.2L45.3 4.5L58.3 1.35Q57.9 10.1 56.55 19.05L55.5 25.5L24.2 49.8L24.3 50L22.85 48.85L21.95 47.8L22.05 47.85L32.9 39.65L32.9 39.7L33.8 39L39.95 34.2L49 27.05L49.7 26.65L52.95 23.8L53.25 21.65L54.35 13.85L55.3 4.85L55.2 4.95L55 4.95Q51.55 5.55 45.95 7.4Q39.9 9.1 36.15 10.7L34.9 12.25Q32.4 15.4 25.9 24.3L21.45 30.25Q16.55 36.8 14.4 40.1" />
<path style="fill:#744517;fill-opacity:1" d="M21.95,47.8L22.85 48.85L24.3 50Q24.95 51.45 24.85 52.15L24.35 53.6L22.6 55.7Q21.2 57.05 19.95 57.45L18 57.65Q17.3 57.4 15.6 55.95L15.6 56L13.35 54.1L13.45 53.95L13.25 53.8L11.55 51.95L10.85 51.15L7.9 48.2L7.9 48.25L5.35 45.75L4.75 44.95Q4.2 44.15 4.45 42.8Q4.7 41.4 7.05 39.05Q9.4 36.7 10.55 36.95Q11.55 37.15 12.4 38L12.55 38.15L14.4 40.1L15.15 41.05L16.6 42.6L17.9 43.9L19.9 45.9L20.75 46.75L21.95 47.8M7.65,44.35L11 47.85L11.95 48.9L12.5 49.45L15.9 52.85L16.3 53.25L17.55 54.4L18.8 55.4L19.75 54.8L21.3 53.45L21.95 52.8L21.95 52.75L22.45 52.15L21.05 50.65L19.75 49.3L18.75 48.3L16.6 45.95L16.5 45.85L16.3 45.75L16.2 45.65L13.7 42.9L13.55 42.75L11.3 40.35Q10.5 39.55 10.4 39.6Q10.1 39.6 9.2 40.7L9 40.9L7.9 42.2L6.75 43.45L7.25 43.95L7.65 44.35" />
<path style="fill:#3C2515;fill-opacity:1" d="M6,50.1L5.1 51L4.65 51.45Q2.9 53.15 2.4 54.6Q2 55.5 2.4 56.45L3.1 57.5L3.3 57.7L3.7 58.1Q4.9 59.25 6.25 59.75Q7.5 59.75 9.9 57.5L11.2 56.3L12.25 55.25L13.35 54.1L15.6 56L14.9 56.75L10.95 60.2Q7.65 62.95 5.85 62.45Q4.05 61.95 2.45 60.6L0.5 58.6L-0.4 56.85Q-0.95 55.75 -0.5 54.15Q-0.05 52.55 2.85 49.45L5.7 46.2L5.35 45.75L7.9 48.25L6 50.1" />
</g>
</svg>
