<?xml version="1.0" encoding="utf-8"?>
<svg version="1.1" id="Layer_1"
xmlns="http://www.w3.org/2000/svg"
xmlns:xlink="http://www.w3.org/1999/xlink"
xmlns:author="http://www.sothink.com"
width="53px" height="38px"
xml:space="preserve">
<g id="550" transform="matrix(1, 0, 0, 1, -0.3, -0.1)">
<linearGradient
id="LinearGradID_712" gradientUnits="userSpaceOnUse" gradientTransform="matrix(-0.00382996, -0.001297, 0.00224304, -0.0065918, 45.85, 17.3)" spreadMethod ="pad" x1="-819.2" y1="0" x2="819.2" y2="0" >
<stop  offset="0" style="stop-color:#E9DBD0;stop-opacity:1" />
<stop  offset="1" style="stop-color:#CDBCAF;stop-opacity:1" />
</linearGradient>
<path style="fill:url(#LinearGradID_712) " d="M43.05,10.8Q44.6 10.8 46.55 11.55Q50.5 13.65 51.05 19.15Q51.35 22 50.7 24.65L50.6 24.9L50.75 21.8L50.75 21.5Q51.05 15.5 46.25 12.75Q44.3 11.65 42.25 11.6L41.3 11.6Q41.2 11.1 41.75 10.85L43.05 10.8" />
<linearGradient
id="LinearGradID_713" gradientUnits="userSpaceOnUse" gradientTransform="matrix(0.00448608, -0.00654602, 0.00640869, 0.00437927, 41.1, 19.9)" spreadMethod ="pad" x1="-819.2" y1="0" x2="819.2" y2="0" >
<stop  offset="0.00392157" style="stop-color:#917162;stop-opacity:1" />
<stop  offset="1" style="stop-color:#C2AEA0;stop-opacity:1" />
</linearGradient>
<path style="fill:url(#LinearGradID_713) " d="M49.7,18.55L48.25 18.1L47.5 16.7Q44.7 12.15 39.65 11.2L39.65 10.85Q40.25 9.5 41.7 8.8Q41.35 9.5 41.8 10.3L41.4 10.5Q41.05 10.65 40.95 10.95L41.75 10.85Q41.2 11.1 41.3 11.6L42.25 11.6Q48.65 13.55 49.7 18.55M39.25,24.85L39.15 24.7L38.85 24.45L38.75 24.35L39 23.95L39.45 22.8L39.65 22.35L39.65 22.8L39.65 24L39.85 23.9L39.25 24.9L39.25 24.85" />
<path style="fill:#3C2A22;fill-opacity:1" d="M39.65,11.2Q44.7 12.15 47.5 16.7L48.25 18.1L48.5 18.8L49.15 21.25Q50.1 22.45 50.55 24.95L50.6 24.9L50.7 24.65Q51.8 22.7 51.7 19.75Q51.6 16.4 50.05 14.35Q48.5 12.3 46.55 11.55Q44.6 10.8 43.05 10.8L41.75 10.85L40.95 10.95Q41.05 10.65 41.4 10.5L41.8 10.3Q41.35 9.5 41.7 8.8Q40.25 9.5 39.65 10.85L39.55 11.2L39.65 11.2M39.25,24.9L39.85 23.9L39.65 24L39.65 22.8L39.65 22.35L39.25 20.95L39.25 21Q39.1 22.7 38.55 23.8L38.4 24.1L37.95 23.8L38.55 22L38.8 20.15Q38.25 19.5 37.35 19.95L36.4 18.3L36.25 18.45Q35.35 19.4 35.1 20.1L35.05 20.3Q34.8 21.15 34.95 22.9L34.85 25.7L34.7 26.65L34.7 26.8Q34.25 28.45 33.35 29.8L33.25 30L33.05 30.25L32.55 29.65L33.6 27.75L34 26.75L34.15 26.1L34.3 25.3L34.25 22.3Q34.1 21.4 34.35 20.5L34.35 20.35L34.55 19.6L34.6 19.5L34.95 18.9L35.35 18.35L36.15 17.55L36.65 17.15L36.65 17.2L37.6 19.05L37.75 19L38.85 19.2L38.9 19.25L39.35 19.55L40 20.6L40.05 20.8L40.05 20.9L40.4 22.65L40.4 23Q40.15 23.25 40.65 23L40.85 23Q42.5 23.1 44.25 24.2Q46.15 25.45 46.95 29.75L47 29.65L47.15 29.35Q48.55 26.9 48.4 23.1L48.25 21.35L48.1 20.4L47.6 18.6L47.35 18.05L46.3 16.2Q44.35 13.6 41.85 12.65L39.65 11.95L39.35 11.9L38.85 11.8L37.35 11.7L35.7 11.75L34.7 11.9L35.25 11.3L35.75 11.05Q35.2 10.05 35.65 9.15Q34.75 9.55 34.15 10.15Q33.45 10.85 33.05 11.75L32.8 12.5L32.65 13.1L32.65 13.45L32.55 14.4L32.5 15.45L32.5 15.8L32.5 16.45L32.5 17.45L32.55 18.6L32.55 19.15L32.6 19.45L32.6 20.35L32.65 21.05L32.65 21.7L32.65 21.85L32.65 22.4L32.65 23.1L32.6 23.4L32.5 24.7L32.4 25.6L32.35 25.95L32.25 26.4L31.85 27.75L31.75 28.05L31.6 28.3L31.45 28.65L30.85 28.3L31.35 27.05L31.5 26.5L31.55 26.35L31.6 25.95L31.75 25.1L31.85 24.55L31.95 23.8L32 22.75L32 22.55L32 22.35L32 22.1L31.95 21.9L31.9 21.4L31.9 20.95L31.85 20.75L31.8 20.15L31.8 19.3L31.75 18.7L31.75 17.4L31.75 17.35L31.75 17L31.7 16.2L31.7 15.5Q31.7 14.45 31.85 13.6L31.9 13.2L32 12.85L32.25 11.95L32.3 11.85L32.65 11.1L33.15 10.35L33.25 10.25L33.4 10L33.75 9.65L34 9.45Q35.2 8.4 36.75 8.3Q35.85 9.55 36.5 11.05L37.85 11L39.05 11.1L39.75 9.75L40.2 9.2Q41.25 8.25 42.55 8.15Q41.85 9.15 42.35 10.3L43.45 10.25Q48.45 10.55 51 14.75Q52.35 17 52.5 20.3Q52.55 23.65 50.9 25.55L50 26.45Q49.95 24.25 49.35 22.8L49.4 23.8Q49.5 28.1 47.4 30.5L46.25 31.65Q46.15 28.85 45.4 27Q44.5 24.9 42.5 24.35L40.8 24L40.5 23.95L39.9 25L39.8 25.15L39.65 25.35L39.25 24.9" />
<path style="fill:#ECDFD8;fill-opacity:1" d="M48.5,18.8L48.25 18.1L49.7 18.55Q48.65 13.55 42.25 11.6Q44.3 11.65 46.25 12.75Q51.05 15.5 50.75 21.5L50.75 21.8Q50.15 19.4 48.5 18.8M41.95,21.65L41.8 21.7L41.7 21.05Q43.8 20.6 45.85 21.55L45.55 20.45L44.7 18.55L43.75 17.15L42 15.5L41.25 14.95Q40.55 14.45 39.7 14.05L39.2 13.8L38.6 13.55Q37.55 13.05 36.35 12.7L38.65 13L39.25 13.2L39.7 13.35L41.45 14.15L41.75 14.3L42.55 14.85L43.85 15.95Q45.25 17.3 46.1 19.05L46.4 19.75L46.7 20.65Q47.3 22.75 47.2 25.35L47.2 25.7Q46.05 21.2 41.95 21.65" />
<linearGradient
id="LinearGradID_714" gradientUnits="userSpaceOnUse" gradientTransform="matrix(-0.00488281, -0.00166321, 0.00286865, -0.00840759, 40.95, 20)" spreadMethod ="pad" x1="-819.2" y1="0" x2="819.2" y2="0" >
<stop  offset="0" style="stop-color:#E9DBD0;stop-opacity:1" />
<stop  offset="1" style="stop-color:#CDBCAF;stop-opacity:1" />
</linearGradient>
<path style="fill:url(#LinearGradID_714) " d="M35.15,12.7Q35 12.05 35.7 11.75L37.35 11.7L38.85 11.8L39.35 11.9L39.65 11.95L41.85 12.65Q44.4 14 45.8 16.45L46.3 17.4L46.6 18.15L46.8 18.6L47.2 20L47.35 20.85L47.55 22.35Q47.95 25.95 47.15 29.35L47 29.65Q47.4 27.55 47.2 25.7L47.2 25.35Q47.3 22.75 46.7 20.65L46.4 19.75L46.1 19.05Q45.25 17.3 43.85 15.95L42.55 14.85L41.75 14.3L41.45 14.15L39.7 13.35L39.25 13.2L38.65 13L36.35 12.7L35.15 12.7" />
<path style="fill:#FFFFFF;fill-opacity:1" d="M50.7,24.65Q51.35 22 51.05 19.15Q50.5 13.65 46.55 11.55Q48.5 12.3 50.05 14.35Q51.6 16.4 51.7 19.75Q51.8 22.7 50.7 24.65M41.85,12.65Q44.35 13.6 46.3 16.2L47.35 18.05L47.6 18.6L48.1 20.4L48.25 21.35L48.4 23.1Q48.55 26.9 47.15 29.35Q47.95 25.95 47.55 22.35L47.35 20.85L47.2 20L46.8 18.6L46.6 18.15L46.3 17.4L45.8 16.45Q44.4 14 41.85 12.65" />
<linearGradient
id="LinearGradID_715" gradientUnits="userSpaceOnUse" gradientTransform="matrix(0.00572205, -0.00834656, 0.00817871, 0.00558472, 34.9, 23.3)" spreadMethod ="pad" x1="-819.2" y1="0" x2="819.2" y2="0" >
<stop  offset="0.00392157" style="stop-color:#917162;stop-opacity:1" />
<stop  offset="1" style="stop-color:#C2AEA0;stop-opacity:1" />
</linearGradient>
<path style="fill:url(#LinearGradID_715) " d="M31.9,29L32.2 28.45L32.5 27.8L32.8 27L32.95 26.55L33 26.35L33.15 25.75L33.25 25.45L33.45 23.8L33.5 22.3L33.45 21.45L33.45 20.5L33.4 19.65L33.35 18.8L33.25 17.7L33.25 17.5L33.25 17.4L33.1 15.15L33.1 13.95L33.05 12.55L33.05 12.4L33.05 12.25L33.05 11.75Q33.45 10.85 34.15 10.15Q34.75 9.55 35.65 9.15Q35.2 10.05 35.75 11.05L35.25 11.3L34.7 11.9L35.7 11.75Q35 12.05 35.15 12.7L36.35 12.7Q37.55 13.05 38.6 13.55L39.2 13.8L39.7 14.05Q40.55 14.45 41.25 14.95L42 15.5L43.75 17.15L44.7 18.55L45.55 20.45L45.85 21.55Q43.8 20.6 41.7 21.05L41.15 19.25L40.6 18.6Q40.3 18.35 40 18.2L39.35 18L38.75 17.9L38.7 17.9L38.6 17.9L37 15.6L37 15.55Q36.2 15.7 35.65 16.2Q35.3 16.5 35.1 16.95Q34.65 17.7 34.6 18.9L34.6 19.5L34.55 19.6L34.35 20.35L34.35 20.5Q34.1 21.4 34.25 22.3L34.3 25.3L34.15 26.1L34 26.75L33.6 27.75L32.55 29.65L32.5 29.6L32.4 29.4L32.15 29.2L32 29.1L31.9 29" />
<linearGradient
id="LinearGradID_716" gradientUnits="userSpaceOnUse" gradientTransform="matrix(0.00152588, 0.00291443, -0.00157166, 0.000808716, 39.45, 19.1)" spreadMethod ="pad" x1="-819.2" y1="0" x2="819.2" y2="0" >
<stop  offset="0.00392157" style="stop-color:#917162;stop-opacity:1" />
<stop  offset="1" style="stop-color:#C2AEA0;stop-opacity:1" />
</linearGradient>
<path style="fill:url(#LinearGradID_716) " d="M38.7,17.9L38.75 17.9L39.35 18L40 18.2Q40.3 18.35 40.6 18.6L41.15 19.25L41.7 21.05L41.8 21.7L41.95 21.65L41 22.45L40.4 23L40.4 22.65L40.05 20.9L40.05 20.8L40 20.6L39.35 19.55L38.9 19.25L38.85 19.2L37.75 19L38.7 17.9" />
<linearGradient
id="LinearGradID_717" gradientUnits="userSpaceOnUse" gradientTransform="matrix(0.00297546, 0.00265503, -0.00178528, 0.0019989, 43.95, 24.1)" spreadMethod ="pad" x1="-819.2" y1="0" x2="819.2" y2="0" >
<stop  offset="0.00392157" style="stop-color:#917162;stop-opacity:1" />
<stop  offset="1" style="stop-color:#C2AEA0;stop-opacity:1" />
</linearGradient>
<path style="fill:url(#LinearGradID_717) " d="M41,22.45L41.95 21.65Q46.05 21.2 47.2 25.7Q47.4 27.55 47 29.65L46.95 29.75Q46.15 25.45 44.25 24.2Q42.5 23.1 40.85 23L40.65 23Q40.15 23.25 40.4 23L41 22.45" />
<linearGradient
id="LinearGradID_718" gradientUnits="userSpaceOnUse" gradientTransform="matrix(0.00233459, 0.0020752, -0.00140381, 0.00157166, 48.2, 20.55)" spreadMethod ="pad" x1="-819.2" y1="0" x2="819.2" y2="0" >
<stop  offset="0.00392157" style="stop-color:#917162;stop-opacity:1" />
<stop  offset="1" style="stop-color:#C2AEA0;stop-opacity:1" />
</linearGradient>
<path style="fill:url(#LinearGradID_718) " d="M50.75,21.8L50.6 24.9L50.55 24.95Q50.1 22.45 49.15 21.25L48.5 18.8Q50.15 19.4 50.75 21.8" />
<path style="fill:#FBF734;fill-opacity:1" d="M32.7,1Q33.65 1.2 34.35 1.8Q33.5 2.1 32.75 2.5L33.1 1.9L31.2 1.75L31.85 0.95L32.7 1M13,3.15L11.95 3.05L11.85 3.05Q12.35 2.7 13.2 2.45L14.35 2.2L15.15 2.6L16.15 3.3L14.35 2.85L13.15 3.1L13 3.15M3.55,12.45Q2.8 12.45 2.4 12.8L2.35 12.85L2.3 12.85L1.25 13.1Q1.55 12.55 2.2 12.05L4.2 12.2L6.1 12.6L3.55 12.45" />
<path style="fill:#D48D01;fill-opacity:1" d="M29.2,5.2Q29.5 5.05 29.65 5.05L29.65 5.1L29.1 6L28.3 7.5L27.3 7.4Q27.8 6.05 29.05 4L30.55 1.7Q31 1 31.25 1L31.85 0.95L31.2 1.75Q30.25 2.95 29.2 5.2M19.75,8.85L18.15 6.95Q16.15 4.65 14.2 3.9L12.45 3.4L11.45 3.35L11.85 3.05L11.95 3.05L13 3.15Q14.2 3.25 15.3 3.8Q17.45 4.85 18.65 7L18.95 6.65L19.6 7.85L20.25 7.3L20.9 8.15L21 8.3L19.75 8.85M3.25,12.8L5.5 13Q6.25 13.15 6.35 13.25L6.35 13.2L6.2 13.1Q6.45 13 6.85 13.35L7.45 13.7L7.4 13.1L7.8 13.3L8.45 13.65L7.85 14.35L6.3 13.65L3.85 13.15L1.95 13.25L1.1 13.45L1.25 13.1L2.3 12.85L2.35 12.85L3.25 12.8" />
<path style="fill:#694817;fill-opacity:1" d="M7.05,14.6L6.8 14.5L6.75 14.5Q4.9 13.55 2.65 13.9L1.35 14.1L0.3 14.3L0.3 13.6L0.35 13.4Q0.6 12.6 1.75 11.5L2.35 11.4Q5.2 11.45 7.3 12.55L7.45 12.65L7.9 12.85L8.65 13.4L8.45 13.65L7.8 13.3L7.4 13.1L6.1 12.6L4.2 12.2L2.2 12.05Q1.55 12.55 1.25 13.1L1.1 13.45L1.95 13.25L3.85 13.15L6.3 13.65L7.85 14.35L7.7 14.45L7.05 14.6M19.2,9L17.8 7.7Q14.95 4.75 13.15 4.35L11.5 3.95L10.75 3.9Q10.3 3.8 10.7 3.25L10.9 3.05Q11.6 2.2 13.05 1.85L14.75 1.55L16.9 3Q18.3 4.05 20.3 6.45L20.55 6.75L21.6 8L21.35 8.1L21 8.3L20.9 8.15L20.25 7.3L17.95 4.9L16.15 3.3L15.15 2.6L14.35 2.2L13.2 2.45Q12.35 2.7 11.85 3.05L11.45 3.35L12.45 3.4L14.2 3.9Q16.15 4.65 18.15 6.95L19.75 8.85L19.2 9M32.75,2.5Q33.5 2.1 34.35 1.8Q33.65 1.2 32.7 1L31.85 0.95L31.25 1Q31 1 30.55 1.7L29.05 4Q27.8 6.05 27.3 7.4L26.7 7.35L27.1 6.3Q28.05 3.65 29.15 2.2L29.5 1.7L30.7 0.25L31 0.1L32.7 0.25L32.8 0.25Q34.3 0.5 35.65 2.05Q34.85 2.3 34.55 2.5L32.85 3.45Q31.3 4.4 30 5.95L30 6.05L28.75 7.6L28.4 7.55L28.3 7.5L29.1 6L29.65 5.1Q30.8 3.55 32.75 2.5" />
<path style="fill:#FED009;fill-opacity:1" d="M29.65,5.1L29.65 5.05Q29.5 5.05 29.2 5.2Q30.25 2.95 31.2 1.75L33.1 1.9L32.75 2.5Q30.8 3.55 29.65 5.1M13.15,3.1L14.35 2.85L16.15 3.3L17.95 4.9L20.25 7.3L19.6 7.85L18.95 6.65L18.65 7Q17.45 4.85 15.3 3.8Q14.2 3.25 13 3.15L13.15 3.1M2.35,12.85L2.4 12.8Q2.8 12.45 3.55 12.45L6.1 12.6L7.4 13.1L7.45 13.7L6.85 13.35Q6.45 13 6.2 13.1L6.35 13.2L6.35 13.25Q6.25 13.15 5.5 13L3.25 12.8L2.35 12.85" />
<path style="fill:#F5F3EE;fill-opacity:1" d="M27.55,9.15Q28.35 8.7 29 8.5L30.05 8.2L31 8.15Q31.7 8.2 32.4 8.6Q33.05 8.95 33.3 9.7L33.35 9.9L32.2 8.9L30.45 8.65Q29.3 8.7 26.3 9.95L25.55 10.25L27.55 9.15M20.95,16.75L20.65 16.6L20.55 16.55L20.15 16.45L19.65 16.3L19.4 16.25L18.85 16.2L18.8 16.2L18.5 16.2L17.7 16.3L17.3 16.4L17.6 16.2Q18.25 15.8 19 15.85L19.65 15.95L20.15 16.15L20.6 16.4L20.65 16.4L20.8 16.5L20.85 16.55L21 16.65L21.65 17.3L20.95 16.75M7.3,16.1L7.1 16.15L6.6 15.85L7.1 15.4L8.3 15.1L9.2 15.1Q9.1 15.15 9.15 15.25L9.85 16L9.75 16L9.6 15.95L8.9 15.9L8.5 15.9L7.3 16.1M15.85,20.15L15.15 20.25L14.5 20.45L14.45 20.45L14.05 20.45L13.7 20.45L13.9 20.2L14.1 20.1L14.35 20L14.6 19.95L15 19.95L15.35 20L15.7 20.05L16.35 20.2L15.85 20.15M17,25.05L16.45 24.95Q15.95 24.95 15.05 25.4L14.4 25.7L13.75 26.1L13.6 26.15L13.75 25.95L14 25.65Q14.55 25.2 15.15 24.85L15.6 24.65Q16.45 24.25 17.1 24.4L17.45 24.5Q17.75 24.65 17.6 24.95L17.2 25.25L16.8 25.5L17 25.05M25.15,31.15L25.15 31L25.15 30.4L25.1 30.35L25.05 30.3L24.7 30L24.7 29.95L24.7 29.65L24.7 29.55L25.4 29.65L25.5 29.75L25.55 30L25.55 30.65L25.45 31.15L25.1 31.95L25.15 31.15M23.8,30.5L23.5 29.65Q23.3 29.4 23.05 29.4L23.1 29.1L23.35 28.7L23.85 28.85Q24.2 29.1 24 30.15L23.75 30.9L23.8 30.5" />
<path style="fill:#4E4138;fill-opacity:1" d="M28.05,8L28.6 7.85L29.05 7.7L30.3 7.5L32.6 7.85Q33.6 8.3 33.95 9.35L34 9.45L33.75 9.65L33.4 10L33.35 9.9L33.3 9.7Q33.05 8.95 32.4 8.6Q31.7 8.2 31 8.15L30.05 8.2L29 8.5Q28.35 8.7 27.55 9.15L25.55 10.25L25.3 10.45L24.85 10.75L22.55 12.45L21.6 13.25L21.55 12.45L21.85 12.2L22.75 11.4L23.1 11.15L23.95 10.5Q25.6 9.15 26.95 8.5L27.65 8.2L28.05 8M24.95,13.6L24.85 13.7L21.7 16.1L21.6 15.3L24.3 13.25L24.6 12.9L26.05 11.5L26.95 10.85L27.65 10.45L27.75 10.35Q29 9.7 30.05 9.85Q31.1 9.95 31.7 10.35L32.6 11.05L32.65 11.1L32.3 11.85L32.05 11.55Q31.55 10.9 30.5 10.6L30 10.55L28.4 10.8L28 11L26.75 11.95L24.95 13.6M14.85,30.15L14.85 30.25Q14.7 30.75 14.25 30.75L13.55 30.55L13.3 30.4L12.7 29.95L12.3 29.05L12.25 28.45L12.45 27.35L12.5 27.05L12.6 26.6L12.6 26.55Q12.85 25.9 13.25 25.4L13.9 24.8L14.45 24.45L15.2 24.1L15.4 24.05L15.45 24L16.5 23.75L17.65 23.9L17.7 23.9L18.25 24.25L18.5 24.45Q18.8 24.9 18.5 25.3L17.7 25.8L16.9 26.35L16 27.3L15.9 27.4L15.8 27.5L15.35 28.3L14.95 29.4L14.85 30.15M10.75,17.05L11.25 17.85L11 17.8L8.8 17.5L8.25 17.45L7.95 17.45L6.75 17.75L6.4 17.9L5.85 18.1L5.35 17.95L5.25 17.55Q5.25 16.95 5.55 16.05Q5.75 15.35 6.3 15L7.05 14.6L7.7 14.45L7.95 14.45L8.95 14.45L9.45 14.4L11.1 14.65L11.6 14.75L9.9 15.05L9.2 15.1L8.3 15.1L7.1 15.4L6.6 15.85L6.1 16.7L6 17.25Q6.9 16.7 8 16.65L8.9 16.7L9.25 16.75L9.9 16.85L10.2 16.95L10.4 17L10.75 17.05M17.35,17.4L16.7 17.2L16.65 17.2L15.9 17.05L15.85 17.05L15.75 17.05L15.7 17.05L15.65 17.05L15.7 17L15.65 16.9L15.95 16.55L16.15 16.4L16.5 16.1L16.55 16.05L16.8 15.85L16.9 15.8Q17.05 15.65 17.25 15.6L18.05 15.3L18.45 15.2L18.5 15.2L19.1 15.2L19.85 15.35L20.1 15.4L20.5 15.5L20.8 15.65L20.95 15.7L21.45 16L21.7 16.2L22.6 17.4L22.95 18.2L23.1 18.6L23.2 19.75L23 20.4L22.8 20.65L22.55 21Q22 21.6 21.5 21.5L21.15 21.2L21 21L21 20.95L20.8 20.65L20.65 20.35L20.6 20.25L20.4 19.9L19.55 18.85Q18.85 18.1 17.9 17.65L17.85 17.6L17.8 17.6L17.35 17.4M17.25,16.4L17.2 16.45L17.2 16.5L17 16.65L17.2 16.65L17.25 16.65L17.45 16.7L18.05 16.85L18.45 17L18.55 17.05L18.95 17.25L20.1 18.2L20.4 18.55L21.3 19.8L21.5 20.25L21.65 20.6L22 20.3L22.3 19.8L22.35 19L22.3 18.8L22.3 18.75L21.95 17.75L21.65 17.3L21 16.65L20.85 16.55L20.8 16.5L20.65 16.4L20.6 16.4L20.15 16.15L19.65 15.95L19 15.85Q18.25 15.8 17.6 16.2L17.3 16.4L17.25 16.4M19.6,23.3L19.2 23.5L18.6 23.6L17.85 23.4L17.65 23.3L16.3 22.45L15.15 21.85L14.3 21.75L14 21.75L13.6 21.75L13.05 21.5L13 21.4L12.95 21.15L12.95 20.65L13 20.55L13 20.45L13.2 20L13.45 19.7Q13.6 19.5 13.85 19.45L13.9 19.4L14.8 19.3L14.9 19.3L14.95 19.3L15.95 19.45L16.35 19.5Q17.3 19.75 18.05 20.25L18.1 20.3L19.15 21.25L19.45 21.6L19.6 21.75L19.65 21.85L19.95 22.45L20 22.6L19.6 23.3M13.7,20.85L13.7 20.95L14.25 20.95L14.65 21Q15.5 21.2 16.6 21.95Q17.55 22.65 18.15 22.8L18.9 22.7Q19.25 22.45 18.9 21.95L18.8 21.8L18 21.15Q17.15 20.5 16.35 20.2L15.7 20.05L15.35 20L15 19.95L14.6 19.95L14.35 20L14.1 20.1L13.9 20.2L13.7 20.45L13.7 20.85M13.55,26.25L13.45 26.5Q13.1 27.05 12.95 27.95L12.9 28.3Q12.85 29 13.25 29.45L13.85 29.8L14.15 29.85L14.25 29.2Q14.4 28.35 14.85 27.5L15 27.25L16.15 26L16.8 25.5L17.2 25.25L17.6 24.95Q17.75 24.65 17.45 24.5L17.1 24.4Q16.45 24.25 15.6 24.65L15.15 24.85Q14.55 25.2 14 25.65L13.75 25.95L13.6 26.15L13.55 26.25M23.15,34.15Q22.2 34.35 21.7 33.5L21.15 33.45L20.8 33.3L20.55 33.05L20.45 32.8L20.45 32.45L20.55 32.3L20.85 31.95L20.9 31.9L20.9 31.85L21.55 30.8L21.65 30.55L21.9 30.1L22.25 29.4L22.6 28.75L22.85 28.2Q23.1 27.9 23.45 27.95L23.85 28.05L24.6 28.8L25.05 28.8Q25.7 28.85 25.95 29.25L26 29.35L26.15 29.6L26.2 29.95L26.2 30.1L26.2 30.15L26.2 30.9L26.15 31.2Q25.85 32.9 24.05 33.8L24 33.85L23.55 34L23.45 34.1L23.35 34.1L23.15 34.15M24.45,30.95L23.95 31.85L23.55 32.4L23.45 32.5L23.2 32.8L22.85 33.05L22.75 33.1L22.5 33.25L22.55 33.35L22.75 33.6L22.8 33.6L23.15 33.55L23.65 33.35L23.95 33.15L24.4 32.8L25.1 31.95L25.45 31.15L25.55 30.65L25.55 30L25.5 29.75L25.4 29.65L24.7 29.55L24.7 29.65L24.7 29.95L24.45 30.95M23,29.4L22.8 29.9L21.75 31.65L21.25 32.4L22.45 32.45L22.55 32.4L22.8 32.15L23.15 31.8L23.75 30.9L24 30.15Q24.2 29.1 23.85 28.85L23.35 28.7L23.1 29.1L23 29.4" />
<path style="fill:#B6A998;fill-opacity:1" d="M33.4,10L33.25 10.25L33 10.25Q32.5 9.6 31.55 9.3L31.65 9.5L31.65 9.55L31.35 9.9L31.2 9.85L31.05 9.7L31 9.7L30.95 9.55L30.85 9.15Q29 9 26.65 10.3L26.45 10.15Q26.05 10.15 25.8 10.45L25.75 10.5L25.7 10.55L25.95 10.75L25.45 11.15L24.35 11.9L23.75 12.5L23.9 13.05L23.25 13.2L23.2 13.15L23.2 13.05L22.7 13.6L22.65 13.5L22.55 13.5Q22.1 13.55 22.2 13.95L22.2 14L21.6 14.55L21.6 13.45L21.6 13.25L22.55 12.45L24.85 10.75L25.3 10.45L25.55 10.25L26.3 9.95Q29.3 8.7 30.45 8.65L32.2 8.9L33.35 9.9L33.4 10M31.5,26.5L31.35 27.05L31.1 26.9L31.05 26.6L31.05 26.55L31.5 26.5M32.6,9.95L32.75 10.2Q32.05 10.45 32.5 9.95L32.6 9.95M22.1,19L21.8 19.05L21.65 18.95L20.8 17.75L19.75 17L19.6 16.9L17.85 16.5L17.3 16.45L17.2 16.45L17.25 16.4L17.3 16.4L17.7 16.3L18.5 16.2L18.8 16.2L18.85 16.2L19.4 16.25L19.65 16.3L20.15 16.45L20.55 16.55L20.65 16.6L20.95 16.75L21.65 17.3L21.95 17.75L22.3 18.75L22.3 18.8L22.1 19M24.35,23.95L23.85 24.45L23.9 24L23.45 24.05L23.4 24.05L22.6 24.4L22.1 24.35Q22.35 24.1 22.7 23.95L23.45 23.8L24.4 23.85L24.35 23.95M30.5,27.8L30.45 27.5L30.05 26.85Q29.85 26.65 29.65 26.7L29.6 26.7L30.5 26.65L30.55 27.2L30.5 27.8M8.5,15.9L8.9 15.9L9.6 15.95L9.75 16L9.85 16L10 16.15L9.75 16.1L8.8 16.05L7.3 16.1L8.5 15.9M10.2,16.95L10.05 16.75L10.05 16.7Q10.1 16.5 10.3 16.5L10.6 16.85L10.4 17L10.2 16.95M18.65,22.05L18.25 22.05Q18 22.05 16.65 21.25Q15.55 20.65 14.95 20.5L14.6 20.45L14.5 20.45L15.15 20.25L15.85 20.15L16.35 20.2Q17.15 20.5 18 21.15L18.8 21.8L18.9 21.95L18.65 22.05M13.55,26.25L13.6 26.15L13.75 26.1L14.4 25.7L15.05 25.4Q15.95 24.95 16.45 24.95L17 25.05L16.8 25.5L16.15 26L15.45 26.5L15 26.9Q14.7 27.15 14.55 27.45L14.3 27.9Q13.6 28.05 13.55 26.75L13.55 26.55L13.55 26.25M24.7,30L25.05 30.3L25.1 30.35L25.15 30.4L25.15 31L25.15 31.15L25.1 31.95L24.4 32.8L23.9 32.9L23.8 32.9L23.75 32.9L23.95 32.7L24.15 32.35L24.4 31.6L24.65 30.75L24.7 30M23,29.4L23.1 29.1L23.05 29.4Q23.3 29.4 23.5 29.65L23.8 30.5L23.75 30.9L23.15 31.8L22.7 31.9L22.3 31.8L22.8 30.35L23.05 29.4L23 29.4" />
<path style="fill:#837462;fill-opacity:1" d="M21.6,14.55L22.2 14L22.2 13.95Q22.1 13.55 22.55 13.5L22.65 13.5L22.7 13.6L23.2 13.05L23.2 13.15L23.25 13.2L23.9 13.05L23.75 12.5L24.35 11.9L25.45 11.15L25.95 10.75L25.7 10.55L25.75 10.5L25.8 10.45Q26.05 10.15 26.45 10.15L26.65 10.3Q29 9 30.85 9.15L30.95 9.55L31 9.7L31.05 9.7L31.2 9.85L31.35 9.9L31.65 9.55L31.65 9.5L31.55 9.3Q32.5 9.6 33 10.25L33.25 10.25L33.15 10.35L32.65 11.1L32.6 11.05L31.7 10.35Q31.1 9.95 30.05 9.85Q29 9.7 27.75 10.35L27.65 10.45L26.95 10.85L26.05 11.5L24.6 12.9L24.3 13.25L21.6 15.3L21.6 14.55M31.1,26.9L31.35 27.05L30.85 28.3L31.1 26.9M32.5,9.95Q32.05 10.45 32.75 10.2L32.6 9.95L32.5 9.95M22.3,18.8L22.35 19L22.3 19.8L22 20.3L21.65 20.6L21.5 20.25L21.3 19.8L20.4 18.55L20.1 18.2L18.95 17.25L18.55 17.05L18.45 17L18.05 16.85L17.45 16.7L17.25 16.65L17.2 16.65L17 16.65L17.2 16.5L17.2 16.45L17.3 16.45L17.85 16.5L19.6 16.9L19.75 17L20.8 17.75L21.65 18.95L21.8 19.05L22.1 19L22.3 18.8M23.7,24.65L22.6 24.4L23.4 24.05L23.45 24.05L23.9 24L23.85 24.45L23.7 24.65M10,16.15L10.3 16.5Q10.1 16.5 10.05 16.7L10.05 16.75L10.2 16.95L9.9 16.85L9.25 16.75L8.9 16.7L8 16.65Q6.9 16.7 6 17.25L6.1 16.7L6.6 15.85L7.1 16.15L7.3 16.1L8.8 16.05L9.75 16.1L10 16.15M10.4,17L10.6 16.85L10.75 17.05L10.4 17M18.9,21.95Q19.25 22.45 18.9 22.7L18.15 22.8Q17.55 22.65 16.6 21.95Q15.5 21.2 14.65 21L14.25 20.95L13.7 20.95L13.7 20.85L13.7 20.45L14.05 20.45L14.45 20.45L14.5 20.45L14.6 20.45L14.95 20.5Q15.55 20.65 16.65 21.25Q18 22.05 18.25 22.05L18.65 22.05L18.9 21.95M13.55,26.55L13.55 26.75Q13.6 28.05 14.3 27.9L14.55 27.45Q14.7 27.15 15 26.9L15.45 26.5L16.15 26L15 27.25L14.85 27.5Q14.4 28.35 14.25 29.2L14.15 29.85L13.85 29.8L13.25 29.45Q12.85 29 12.9 28.3L12.95 27.95Q13.1 27.05 13.45 26.5L13.55 26.25L13.55 26.55M30.4,28.05L30.25 27.95Q29.95 27.95 29.15 28.85L29 29.05L28.85 28.95L28.9 28.8L29.5 27.15L29.6 26.7L29.65 26.7Q29.85 26.65 30.05 26.85L30.45 27.5L30.5 27.8L30.4 28.05M24.65,30.75L24.4 31.6L24.15 32.35L23.95 32.7L23.75 32.9L23.8 32.9L23.9 32.9L24.4 32.8L23.95 33.15L23.65 33.35L23.15 33.55L22.8 33.6L22.75 33.6L22.55 33.35L22.5 33.25L22.75 33.1L22.85 33.05L23.2 32.8L23.45 32.5L23.55 32.4L23.95 31.85L24.45 30.95L24.7 29.95L24.7 30L24.65 30.75M23.05,29.4L22.8 30.35L22.3 31.8L22.7 31.9L23.15 31.8L22.8 32.15L22.55 32.4L22.45 32.45L21.25 32.4L21.75 31.65L22.8 29.9L23 29.4L23.05 29.4" />
<path style="fill:#270303;fill-opacity:1" d="M30,10.55L30.5 10.6Q31.55 10.9 32.05 11.55L32.3 11.85L32.25 11.95L31.5 11.3Q30.8 10.75 30 10.55" />
<path style="fill:#324B54;fill-opacity:1" d="M28.35,11.05L28 11L28.4 10.8L30 10.55L31.5 11.3L32.25 11.95L32 12.85Q30.4 11.4 28.35 11.05M30.75,20L30.7 20L29.85 20.15L29.3 20.3L28.85 20.45L27.45 21L26.6 21.2L25.95 21.25L25.7 21.3L25.65 21.3L24.95 21.25L23.95 21.15L23.2 21.05L22.55 21L22.8 20.65L23 20.4L24.05 20.45L24.85 20.5L25.25 20.55L25.9 20.5L27.85 20.05Q29.1 19.4 29.95 19.25Q30.8 19.05 31.6 19.25L31.8 19.3L31.8 20.15L30.75 20M35.9,19.6L35.05 20.3L35.1 20.1Q35.35 19.4 36.25 18.45Q36.25 19.15 35.9 19.6M28.4,28.7L28.55 28.75L28.85 28.95L29 29.05L29.6 30L29.65 30.1L31.3 30.1L31.7 30.25L32.2 30.7L32.55 31.25L32.65 31.4L32.75 32Q32.8 32.7 32.35 33.6Q31.65 34.95 31 35.05L29.9 35.25L29.4 35.7L28.65 36.15L28.4 36.3L28 36.4L27.2 36.5L26.05 36.35Q24.3 36 24 35.5L23.9 35.25L23.75 35L23.65 34.75L23.35 34.1L23.45 34.1L23.55 34L24 33.85L24.05 33.8L24.25 34.2L24.55 34.6L24.85 35L25.25 35.35L26.8 35.7L26.85 35.7L27.3 35.65L27.4 35.65L28.5 35.2L29 34.9L28.5 34.8L27.7 34.55L27.6 34.5L27.5 34.5L27.3 34.45L27.1 34.4L26.95 34.25L27.25 34.2L27.35 34.2L28.95 34.3L29.25 34.3L30.2 34.25Q30.85 34.15 31.2 33.7L31.75 32.7L31.8 32.4L31.8 32.3L31.55 31.4L31.5 31.3Q31.3 31.1 31.05 31.05L30.6 31L29.6 31.1L29.4 31.1L29.15 30.8L29.1 30.8L29.1 30.75L29.05 30.65L28.45 29.8Q28.3 29.6 28 29.6L27.65 29.65L26.9 29.85Q26.6 29.95 26.2 30.15L26.2 30.1L26.2 29.95L26.15 29.6L26 29.35L26.6 29.1L26.9 29L27.8 28.7L28.4 28.7M15.95,32.15L15.55 32.8L16 33.75L18.2 33.6L19.65 34.1L19.7 34.15L20.75 35.15L20.95 35.45L21.25 36.05L21.25 36.75L20.2 37.15L17.55 37.25Q15.65 37.35 14.5 36.35Q13.35 35.3 12.5 35.15L11 34.55Q10.4 34.2 10.35 33.3Q10.4 32.4 10.9 31.6Q11.35 30.85 11.7 30.8L12.4 30.15L12.7 29.95L13.3 30.4L12.8 30.8L12.55 31L12.35 30.95L11.9 30.8L11.8 31.2L11.3 32.2L11.25 32.45Q11.05 32.9 11.15 33.45Q11.3 34.1 12.4 34.45Q13.45 34.7 14.65 35.65Q15.75 36.65 17.75 36.55L20.6 36.4L20.5 36.05L20.25 35.6L19.6 34.95Q18.75 34.3 17.85 34.25L16.1 34.2L16 34.7L15.65 35.1L15.6 34.85L15.5 34.55L15.15 33.6L15.05 33.4L14.65 32.65L14.3 32.15L13.9 31.5L14.3 31.6L14.35 31.6L14.5 31.7L15.05 32.2L15.4 31.7L16.1 30.75L16.8 31.05Q16.25 31.55 15.95 32.15M12.25,28.45L11.65 28.55L8.4 28.9L5.35 28.4Q4.15 27.85 3.5 27.2Q2.95 26.6 3.05 25.35Q3.1 24.1 4.3 21.4L4.95 20Q5.75 18.45 6.1 18.15L6.4 17.9L6.75 17.75L7.95 17.45L6.25 19.55L5.35 21.25Q3.65 24.9 4.2 26.15Q4.65 27.25 6.45 27.8L6.4 27.7Q5.95 26.75 6.3 26.2L6.4 26.35L7.1 27.25L10.7 27.45L12.45 27.35L12.25 28.45M20.65,23.75L21.35 24.35L21.65 24.7L21.8 25L22 25.45L22 25.55L22.05 25.9Q21.8 26.15 22 26.2L21.75 26.8L21.65 26.9L21.5 27.1L20.8 26.6L20.85 26.4L20.9 26.3L20.95 25.6L20.85 25.2L20.5 24.7L20.1 24.4L20.05 24.35L20 24.35L19.35 24.2L19.25 24.2L19.15 24.2L18.4 23.95L18.6 23.6L19.2 23.5L19.6 23.3L20.65 23.75M12.45,25.8Q12.4 25.05 12.7 24.1L12.85 23.75L10.75 23.85Q9.7 23.95 10.85 23.5L11.55 23.3L11.7 23.25L12.35 23.05L13.15 22.9L13.55 21.85L14.15 22L13.85 22.8L13.55 23.7L13.45 24.2L13.25 25.25L13.25 25.4Q12.85 25.9 12.6 26.55L12.6 26.6Q12.45 26.25 12.45 25.8" />
<path style="fill:#917E77;fill-opacity:1" d="M39.55,11.2L39.65 10.85L39.65 11.2L39.55 11.2M31.45,28.65L31.6 28.3L31.75 28.05L31.85 27.75L32.25 26.4L32.35 25.95L32.4 25.6L32.5 24.7L32.6 23.4L32.65 23.1L32.65 22.4L32.65 21.85L32.65 21.7L32.65 21.05L32.6 20.35L32.6 19.45L32.55 19.15L32.55 18.6L32.5 17.45L32.5 16.45L32.5 15.8L32.5 15.45L32.55 14.4L32.65 13.45L32.65 13.1L32.8 12.5L33.05 11.75L33.05 12.25L33.05 12.4L33.05 12.55L33.1 13.95L33.1 15.15L33.25 17.4L33.25 17.5L33.25 17.7L33.35 18.8L33.4 19.65L33.45 20.5L33.45 21.45L33.5 22.3L33.45 23.8L33.25 25.45L33.15 25.75L33 26.35L32.95 26.55L32.8 27L32.5 27.8L32.2 28.45L31.9 29L31.85 29L31.75 28.85L31.65 28.8L31.45 28.65M36.65,17.2L36.65 17.15L36.15 17.55L35.35 18.35L34.95 18.9L34.6 19.5L34.6 18.9Q34.65 17.7 35.1 16.95Q35.3 16.5 35.65 16.2Q36.2 15.7 37 15.55L37 15.6L36.65 17.2M38.7,24.35L38.65 24.25L38.4 24.1L38.55 23.8Q39.1 22.7 39.25 21L39.25 20.95L39.65 22.35L39.45 22.8L39 23.95L38.75 24.35L38.7 24.35" />
<path style="fill:#9D8E79;fill-opacity:1" d="M31.15,21.25L30.75 20L31.8 20.15L31.85 20.75L31.6 20.6L31.45 21.15L31.2 21.65L31.15 21.7L31.15 21.25M31.6,22.55L31.2 22.4L32 22.1L32 22.35L31.6 22.55M23.9,8.6L23.8 8.6L23.65 8.35L23.45 7.55L23.35 7.15Q23.05 5.65 23 3.55L23 3.45L23.1 3.45L23.5 3.95L23.9 5.5L24.55 7.35L25 8.1L25.1 8.25Q24.6 8.6 23.9 8.6M27.45,21L28.85 20.45L29.3 20.3Q28.6 20.9 28.4 21.55L27.45 21M28.8,21.75L30 20.45L30.1 20.35L30.3 20.6L30.1 20.9L29.65 21.45L29.35 21.95L28.8 21.75M12.9,10.35Q12.65 9.2 12.7 8.45Q12.8 7.65 13 7.45L13.65 8.95L14.15 9.75Q13.6 10 12.9 10.35M9.65,10.3L9.6 9.95L10.25 10.35L10.6 11L10.95 11.55L11.5 12.2L12.1 12.5L12 12.65L11.95 12.7L11.5 13Q11.1 13 10.85 12.7L10.4 12.05L10.4 12L9.65 10.3M17.75,12.95L17.65 12.85L16.95 11.4L16.95 11.3L16.6 10.25L16.45 9.8L16.55 9.5L16.7 9.7L16.95 10.25L17.45 11.2L17.55 11.45L18.3 12.75L18.5 12.95L17.75 12.95" />
<path style="fill:#3E3A2F;fill-opacity:1" d="M31.9,21.4L31.95 21.9L32 22.1L31.2 22.4L30.75 22.3L30.6 22.25L30.55 21.45L30.55 21.35L30.3 20.6L30.1 20.35L30 20.45L28.8 21.75L28.4 21.55Q28.6 20.9 29.3 20.3L29.85 20.15L30.7 20L30.75 20L31.15 21.25L31.15 21.7L31.9 21.4M12.75,12.85L12.7 12.85Q12.35 13.35 11.8 13.5L10.7 13.7L10.15 13.3L9.7 12.6L9.7 12.55Q9.2 11.5 9 10.45L8.95 9.1L9.4 9.05L9.8 9.3L11 10.25L11.9 10.95L12.5 11.5L12.65 11.7L12.85 12.25L12.75 12.85M18.55,12.95L18.85 12.65L18.9 12.4L17.9 11.1L17.5 10.65L17.2 10.25L16.7 9.7L16.55 9.5L16.45 9.8L16.45 10.25L16.45 10.45L16.6 11.4L16.8 12L17.3 12.9L16.35 12.5L16.1 11.85L16 11.5L15.85 10.3Q15.8 9.85 15.9 9.55L16.15 8.9L16.15 8.75L16.25 8.65Q16.4 8.4 16.75 8.85L17.25 9.4L17.9 10.15L18.55 10.95L19.5 12.1L19.55 12.5L19.5 12.65L18.55 12.95M26.35,7.65L26.3 8.05L26.1 8.3L25.7 8.65L25.1 9.05L24 9.3Q23.35 9.3 22.9 8.95L22.7 8.65L22.65 8.5L22.5 7.75Q22.2 5.85 22.3 4.15Q22.45 2.5 22.7 2.4L23.2 2.65L24.35 3.85Q25.3 5.1 26.2 7.3L26.35 7.65M23.8,8.6L23.9 8.6Q24.6 8.6 25.1 8.25L25.35 8.1L25.65 7.75L25.45 7.3L24.9 6.15L24.35 5.25L23.8 4.35L23.5 3.95L23.1 3.45L23 3.45L23 3.55L23.05 6.3L23.2 7.6L23.2 7.8L23.4 8.4L23.45 8.5L23.8 8.6M9.6,9.95L9.65 10.3L10.25 12.05L10.25 12.1L10.7 12.85L11.1 13.05L11.5 13L11.95 12.7L12 12.65L12.1 12.5Q12.25 12.2 12.05 11.9L12 11.85L11.4 11.25L10.5 10.6L10.25 10.35L9.6 9.95" />
<path style="fill:#F0EAC6;fill-opacity:1" d="M31.45,21.15L31.6 20.6L31.85 20.75L31.9 20.95L31.45 21.15M32,22.35L32 22.55L31.85 22.7L31.6 22.55L32 22.35M23.8,4.35L24.35 5.25L24.9 6.15L25.45 7.3L25.65 7.75L25.35 8.1L25.1 8.25L25 8.1L24.55 7.35L23.9 5.5L23.5 3.95L23.8 4.35M23.45,8.5L23.4 8.4L23.2 7.8L23.2 7.6L23.05 6.3L23 3.55Q23.05 5.65 23.35 7.15L23.45 7.55L23.65 8.35L23.8 8.6L23.45 8.5M29.9,22.15L29.35 21.95L29.65 21.45L30.1 20.9L30.1 21.55L30.1 22.15L29.9 22.15M11.5,12.2L10.95 11.55L10.6 11L10.25 10.35L10.5 10.6L11.4 11.25L12 11.85L12.05 11.9Q12.25 12.2 12.1 12.5L11.5 12.2M10.4,12L10.4 12.05L10.85 12.7Q11.1 13 11.5 13L11.1 13.05L10.7 12.85L10.25 12.1L10.25 12.05L9.65 10.3L10.4 12M17.2,10.25L17.5 10.65L17.9 11.1L18.9 12.4L18.85 12.65L18.55 12.95L18.5 12.95L18.3 12.75L17.55 11.45L17.45 11.2L16.95 10.25L16.7 9.7L17.2 10.25M17.3,12.9L16.8 12L16.6 11.4L16.45 10.45L16.45 10.25L16.45 9.8L16.6 10.25L16.95 11.3L16.95 11.4L17.65 12.85L17.75 12.95L17.3 12.9" />
<path style="fill:#301D16;fill-opacity:1" d="M8.95,14.45L7.95 14.45L7.7 14.45L7.85 14.35L8.45 13.65L8.65 13.4L9.7 12.55L9.7 12.6L10.15 13.3L8.95 14.45M15.85,10.3Q14.2 10.45 12.5 11.5L11.9 10.95L12.55 10.55L12.9 10.35Q13.6 10 14.15 9.75L14.85 9.6L15.65 9.55L15.9 9.55Q15.8 9.85 15.85 10.3M17.25,9.4L18.8 9.1L19.2 9L19.75 8.85L21 8.3L21.35 8.1L21.6 8L22.5 7.75L22.65 8.5L22.7 8.65Q21.85 8.9 20.95 9.3Q19.7 9.95 17.9 10.15L17.25 9.4M27.3,7.4L28.3 7.5L28.4 7.55L28.75 7.6L29.05 7.7L28.6 7.85L28.05 8L27.65 8.2L26.3 8.05L26.35 7.65L26.2 7.3L26.7 7.35L27.3 7.4M20,22.6L19.95 22.45L19.65 21.85L20.65 21L20.8 20.65L21 20.95L21 21L21.15 21.2L21.5 21.5L21.5 21.55L21.1 22.05L21.05 22.1L20 22.6M14,19.15L14.05 19.05L14.15 18.8L14.35 18.4L14.5 18.2L14.65 17.9L14.95 17.6L15.15 17.4L15.6 17.05L15.65 17.05L15.7 17.05L15.75 17.05L15.85 17.05L15.9 17.05L16.65 17.2L16.7 17.2L17.35 17.4Q16.55 17.55 16 17.95Q15.3 18.4 15 19.2L14.95 19.3L14.9 19.3L14.8 19.3L13.9 19.4L14 19.15M18.5,25.3L18.65 25.35L20.1 26.15L20.8 26.6L21.5 27.1L22.75 28.1L22.85 28.2L22.6 28.75L21.55 27.95L21.1 27.65L20.6 27.35L20.4 27.25L19.25 26.55L18.6 26.2L18.15 25.95L17.8 25.85L17.7 25.8L18.5 25.3M20.55,32.3L20.45 32.45L20.1 32.3L19.95 32.25L19.2 31.95L16.8 31.05L16.1 30.75L14.9 30.25L14.85 30.25L14.85 30.15L14.95 29.4L15.3 29.55L16.35 30.05L16.6 30.15L17.3 30.5L17.95 30.8L20.5 31.8L20.85 31.95L20.55 32.3" />
<path style="fill:#7F5C46;fill-opacity:1" d="M22.7,9.85L22.65 10.15L22.75 10.2L22.85 10.35L22.85 10.55L22.4 10.7L22.3 10.65L22.05 10.85L20.85 11.85L20.65 11.95L20.1 12.3L19.55 12.5L19.5 12.1L18.55 10.95L19.6 10.6L20.05 10.2L20.1 10.25L20.2 10.4L21.45 9.95Q21.35 10.1 21.55 10.3L21.55 10.35Q22.1 10.2 21.75 9.8L22.65 9.4L22.7 9.85M20.6,10.85L20.45 10.9L20.45 11L20.4 11.1Q20.55 11.65 21 11.2L20.7 10.85L20.6 10.85M18.05,20.25Q17.3 19.75 16.35 19.5L15.95 19.45L16 19.4L16.25 19Q16.65 18.45 17.2 18.1L17.2 18.05Q17.65 17.7 17.9 17.65L18.45 18.2L18.5 18.25Q19.1 18.75 19.2 19.4L19.2 19.6Q19.05 20.05 18.1 20.3L18.05 20.25M27.25,26.15Q26.45 25.45 24.9 25L24.8 24.95L24.9 24.8L25 24.6L25.45 24.75L26.8 25.2Q27.9 26.3 29.05 26.6L29 26.8Q28.1 26.4 27.25 26.15M13.25,13L13.2 12.95L12.75 12.85L12.85 12.25L13.4 12.05L13.25 13M14.45,11.45L14.5 11.4L14.8 11.55L14.45 11.45M15,11.65Q15 11.5 15.5 11.25L15.7 11.45L15.75 11.55L15.85 11.5L16 11.5L16.1 11.85L16.35 12.5L16.05 12.3L15 11.65M21.55,30.8L21.5 30.8L18.5 29.45L18.2 29.3L17.75 29.05L16.75 28.5L16.7 28.45L16.9 28L16.95 27.8L17.15 27.3L17.2 27.2L17.25 27.2L17.65 27.3L19.15 27.7L19.55 27.85L19.7 27.9L20.35 28.2L21.1 28.65L22.25 29L22.15 29.2L22.15 29.3L22.25 29.4L21.9 30.1L21.65 30.55L21.55 30.8" />
<path style="fill:#B47F60;fill-opacity:1" d="M17.9,10.15Q19.7 9.95 20.95 9.3Q21.85 8.9 22.7 8.65L22.65 9.4L21.75 9.8Q22.1 10.2 21.55 10.35L21.55 10.3Q21.35 10.1 21.45 9.95L20.2 10.4L20.1 10.25L20.05 10.2L19.6 10.6L18.55 10.95L17.9 10.15M15.85,10.3L16 11.5L15.85 11.5L15.75 11.55L15.7 11.45L15.5 11.25Q15 11.5 15 11.65L14.8 11.55L14.5 11.4L14.45 11.45L13.4 11.35L13.4 12.05L12.85 12.25L12.65 11.7L12.5 11.5Q14.2 10.45 15.85 10.3M14.95,19.3L15 19.2Q15.3 18.4 16 17.95Q16.55 17.55 17.35 17.4L17.8 17.6L17.85 17.6L17.9 17.65Q17.65 17.7 17.2 18.05L17.2 18.1Q16.65 18.45 16.25 19L16 19.4L15.95 19.45L14.95 19.3M22.25,29.4L22.15 29.3L22.15 29.2L22.25 29L21.1 28.65L20.35 28.2L19.7 27.9L19.55 27.85L19.15 27.7L17.65 27.3L17.25 27.2L17.2 27.2L17.7 26.45L18.15 25.95L18.6 26.2L19.25 26.55L20.4 27.25L20.6 27.35L21.1 27.65L21.55 27.95L22.6 28.75L22.25 29.4" />
<path style="fill:#57351A;fill-opacity:1" d="M20.65,11.95L20.85 11.85L22.05 10.85L22.3 10.65L22.4 10.7L22.85 10.55L22.85 10.35L22.75 10.2L22.65 10.15L22.7 9.85L22.65 9.4L22.7 8.65L22.9 8.95Q23.35 9.3 24 9.3L25.1 9.05L25.7 8.65L26.1 8.3L26.3 8.05L27.65 8.2L26.95 8.5Q25.6 9.15 23.95 10.5L23.1 11.15L22.75 11.4L21.85 12.2L21.55 12.45Q21.35 11.7 20.65 11.95M19.55,12.5L20.1 12.3L19.95 12.35L19.5 12.65L19.55 12.5M20.7,10.85L21 11.2Q20.55 11.65 20.4 11.1L20.45 11L20.45 10.9L20.6 10.85L20.7 10.85M20.65,21L19.65 21.85L19.6 21.75L19.45 21.6L19.15 21.25L18.1 20.3Q19.05 20.05 19.2 19.6L19.2 19.4Q19.1 18.75 18.5 18.25L18.45 18.2L17.9 17.65Q18.85 18.1 19.55 18.85L20.4 19.9L20.6 20.25L20.65 20.35L20.8 20.65L20.65 21M27.8,28.7L27.85 28.7L28.1 27.9L28 27.2Q27.8 26.6 27.25 26.15Q28.1 26.4 29 26.8L28.7 27.85L28.6 28.1L28.4 28.7L27.8 28.7M24.8,24.95L24.35 24.8L24.6 24.55L24.85 24.6L25 24.6L24.9 24.8L24.8 24.95M10.15,13.3L10.7 13.7L11.8 13.5Q12.35 13.35 12.7 12.85L12.75 12.85L13.2 12.95L13.25 13L13.15 13.35Q12.9 14.1 11.8 14.65L11.6 14.75L11.1 14.65L9.45 14.4L8.95 14.45L10.15 13.3M17.7,26.45L17.2 27.2L17.15 27.3L16.95 27.8L16.9 28L16.7 28.45L16.75 28.5L17.75 29.05L18.2 29.3L18.5 29.45L21.5 30.8L21.55 30.8L20.9 31.85L20.9 31.9L20.85 31.95L20.5 31.8L17.95 30.8L17.3 30.5L16.6 30.15L16.35 30.05L15.3 29.55L14.95 29.4L15.35 28.3L15.8 27.5L15.9 27.4L16 27.3L16.9 26.35L17.7 25.8L17.8 25.85L18.15 25.95L17.7 26.45" />
<path style="fill:#4F8A91;fill-opacity:1" d="M31.45,13.15L31.2 13.15L29.85 13.35L28.55 13.25Q27.65 12.55 26.75 11.95L28 11L28.35 11.05Q30.4 11.4 32 12.85L31.9 13.2L31.45 13.15M31.75,17.35L31.75 17.4L31 18.15L30.85 18.25L30.9 18.25L31.5 18.35L31.55 18.65L31.55 18.7L31.75 18.7L31.8 19.3L31.6 19.25Q30.8 19.05 29.95 19.25Q29.1 19.4 27.85 20.05L25.9 20.5L25.25 20.55L24.85 20.5L24.05 20.45L23 20.4L23.2 19.75L24.15 19.7L25.15 19.6L25.35 19.95L25.8 20L25.9 20L25.85 19.55L25.95 19.55L28.25 19.05Q29 18.7 28.35 18.65Q27.75 18.65 26.6 17.05Q25.85 15.85 25.95 15.2L24.15 16.4L23.85 16.55L24.25 17.45L24.9 18.25L25.4 18.7Q23.95 19 23.25 18.15L22.8 17.25L22.6 17.4L21.7 16.2L21.7 16.1L24.85 13.7L24.95 13.6L26.35 14.25Q26 14.5 26 14.7L26 14.85L26 15L26.1 15.1L26.4 15.6L27.25 16.75Q28.05 17.8 29.4 17.7L30.45 17.45L31.25 17.15L31.75 17.35M32.65,31.4L33.2 30.4L33.15 30.35L33.05 30.25L33.25 30L33.35 29.8Q34.25 28.45 34.7 26.8L34.9 26.9L35.2 27.1Q34.8 27.45 34.7 27.9L34.65 28.05L34.65 28.1L34.7 28.1L35.25 27.8L35.3 27.8L35.85 27.5L36.75 27.45L37.25 27.65L37.4 27.75L37.4 28.05L37.3 28.65L38.2 27.6L38.05 28.7Q37.7 29.9 37.15 30.1L36.25 30.45L35.9 30.95L35.35 31.4L34.85 31.75L33.25 32L32.75 32L32.65 31.4M26.45,18.2Q26.9 18.7 26.2 18.7L26.1 18.6L26.1 18.3L26.15 18.2L26.35 18.15L26.45 18.2M22.75,28.1L21.5 27.1L21.65 26.9L21.75 26.8L22 26.2L22.45 26.2L22.55 25.95L22.35 25.65L22.05 25.9L22 25.55L22 25.45L22.25 25.5L22.9 25.7L23.1 25.75L23.7 25.55L23.9 25.75L23.85 26.05L24.4 26.25Q23.95 26.6 24.6 26.65L24.65 26.65L25.05 26.45L25.9 26.4L26 26.4L26.3 26.4L26.55 26.45L26.55 26.5L26.75 26.8L26.8 27.1L26.75 27.85L26.7 27.95L26.6 27.95Q25.65 28.3 26.35 28.45L26.45 28.55L26.2 29L25.95 29.25Q25.7 28.85 25.05 28.8L24.6 28.8L23.85 28.05L23.45 27.95Q23.75 27.35 24.15 27L22.75 28.1M11.2,19.4L10.4 19.3L9.9 19.25L11 17.8L11.25 17.85L11.5 18.45L11.2 19.4M12.6,26.6L12.5 27.05L12.45 27.35L10.7 27.45L7.1 27.25L6.4 26.35L6.3 26.2Q5.95 26.75 6.4 27.7L6.45 27.8Q4.65 27.25 4.2 26.15Q3.65 24.9 5.35 21.25L6.25 19.55L7.95 17.45L8.25 17.45L8.8 17.5Q7.15 20.45 7.25 23.75L7.35 24.75L6.65 25.55L7 25.85L7.8 26.2Q6.9 27 8.35 26.65L8.5 26.3L8.75 26.3L9.15 26.3L9.8 25.75L10.15 25.95L10.2 26.1L10.7 26L12.45 25.8Q12.45 26.25 12.6 26.6M8.45,21.9Q8.5 23.2 9 23.95L7.75 24.45Q7.9 23.2 8.45 21.9M11.55,23.3L11.45 23.2L11.45 23.15Q11.55 22.65 12.1 22.55L12.2 22.6L12.35 22.7L12.4 22.85L12.35 23.05L11.7 23.25L11.55 23.3M5.9,23.45L5.7 23.3Q5.25 23.4 5.25 23.85Q5.5 24.2 5.85 23.95L5.95 23.55L5.9 23.45M15.15,21.85L16.3 22.45L17.65 23.3L17.85 23.4L17.7 23.75L17.65 23.9L16.5 23.75L15.45 24L15.4 24.05L15.6 23.55L16.1 22.75L16 22.65Q15.55 22.35 14.9 22.2L14.6 22.1L14.15 22L14.25 21.8L14.3 21.75L15.15 21.85M19.15,24.2L19.25 24.2L19.25 24.25L18.85 25L18.65 25.35L18.5 25.3Q18.8 24.9 18.5 24.45L18.25 24.25L18.3 24.2L19.15 24.2M10.4,25.3Q10.35 25.1 10.75 24.7Q11.05 24.7 11.15 24.95L11.15 25L11.05 25.25L10.4 25.3M11.2,26.5L10.85 26.2Q9.9 27.15 11.1 26.75L11.2 26.5M13.6,31.35L13.3 31.25L13.2 31.15L13.1 31.15L13 31.6L12.9 31.75L12.8 31.7Q12.4 31.7 12.5 32.05L12.5 32.1L12.7 32.15L12.65 32.35L12.5 32.9L12.5 32.95L12.35 33Q12.25 33.1 12.3 33.3L12.6 33.4L12.95 33.95L13.25 34.1L13.3 34.15L13.3 34.1L13.35 34.05L13.7 34L13.75 34.05L13.8 34.2L13.75 34.4L14.2 34.65L15.1 35.5Q15.5 35.95 16.25 36L16.45 36L16.45 36.1L16.65 36.15L16.75 36.15L16.85 36.1L17.2 36.15L17.4 36L17.8 36L18.05 36.05L18.05 35.95Q17.95 35.55 18.35 35.55L18.4 35.55L18.55 35.8L18.9 35.8Q18.8 35.9 18.85 36.05L18.85 36.1L19.45 35.9L19.6 35.95L20.5 36.05L20.6 36.4L17.75 36.55Q15.75 36.65 14.65 35.65Q13.45 34.7 12.4 34.45Q11.3 34.1 11.15 33.45Q11.05 32.9 11.25 32.45L11.3 32.2L11.8 31.2L11.9 30.8L12.35 30.95L12.55 31L12.8 30.8L13.3 30.4L13.55 30.55L14.25 30.75L13.6 31.35M13.25,32.45L13.3 32.7Q13.25 32.85 13.05 32.8Q12.9 32.55 13.2 32.45L13.25 32.45M13.7,33.1L13.9 33.1L14 33.1L14.1 33.4Q13.9 33.6 13.65 33.4L13.6 33.3L13.6 33.25L13.7 33.1M11.6,32.3Q11.7 32.85 12 32.5L12.05 32.4L12.05 32.25L11.9 32.15Q11.75 32.15 11.6 32.3M15.1,34.55L15.2 34.7L14.85 34.65L14.9 34.6Q14.95 34.5 15.05 34.5L15.1 34.55M17.4,35.15Q17.4 35.55 17 35.35Q16.9 35.1 17.15 35L17.4 35.15M5.35,25.85Q6.8 25.95 5.95 25.1L5.85 25.1Q5.1 25.1 5.3 25.75L5.35 25.85M36.25,29.75L36.5 29.55L35.6 29.75Q36.05 29.95 36.25 29.75M26.8,34.25L27.5 33.9L29.9 33.35L31.3 33L31.75 32.7L31.2 33.7Q30.85 34.15 30.2 34.25L29.25 34.3L28.95 34.3L27.35 34.2L27.25 34.2L26.95 34.25L26.8 34.25M28.2,35.05L27.5 34.5L27.6 34.5L27.7 34.55L28.5 34.8L29 34.9L28.5 35.2L28.2 35.05M26.9,29.85L27 30.4L27 31L27 31.65Q26.8 33.3 25.75 34.1L25.65 34.1L25.5 34.2L25.75 34.65L25.8 34.7L25.95 35L26.1 35.15L26.3 35.35L26.4 35.4L26.85 35.7L26.8 35.7L25.25 35.35L24.85 35L24.55 34.6L24.25 34.2L24.05 33.8Q25.85 32.9 26.15 31.2L26.2 30.9L26.2 30.15Q26.6 29.95 26.9 29.85M23.65,34.75L23.75 35L23.8 35.15L23.8 35.35L23.9 35.25L24 35.5Q24.3 36 26.05 36.35L27.2 36.5L25.5 36.55Q23.85 36.6 23 35.75Q22.05 34.95 21.2 34.75L20.3 34.1L20.25 33.95Q20.15 33.4 20.35 32.95L20.45 32.8L20.55 33.05L20.8 33.3L21.15 33.45L21.7 33.5Q22.2 34.35 23.15 34.15L23.65 34.75" />
<linearGradient
id="LinearGradID_719" gradientUnits="userSpaceOnUse" gradientTransform="matrix(0.000473022, -0.00143433, -0.000961304, -0.000228882, 28.95, 15.95)" spreadMethod ="pad" x1="-819.2" y1="0" x2="819.2" y2="0" >
<stop  offset="0" style="stop-color:#1F293C;stop-opacity:1" />
<stop  offset="1" style="stop-color:#323E54;stop-opacity:1" />
</linearGradient>
<path style="fill:url(#LinearGradID_719) " d="M30,14.4L29.95 15.6L29.65 16.45L29.35 16.75L29.05 17.05L28.6 17.2L28.3 16.9L28.2 16.65L28.2 15.95L28.3 15.4Q28.45 14.7 28.9 14.25L29.3 13.9L29.7 13.75L29.95 14.15L30 14.4M28.8,15.1L29.05 15.25L29.35 15.1L29.4 14.9L29.3 14.65L29 14.6L28.75 14.65L28.7 14.95L28.8 15.1" />
<path style="fill:#323E54;fill-opacity:1" d="M31.25,17.15L30.45 17.45L29.4 17.7Q28.05 17.8 27.25 16.75L26.4 15.6L26.1 15.1L26 15L26 14.85L26 14.7Q26 14.5 26.35 14.25L27.6 13.6Q28.1 13.3 28.55 13.25L29.85 13.35L30.2 13.5Q31.25 14.15 31.6 15.3L31.7 15.5L31.7 16.2L31.75 17L31.25 17.15M27.45,14.4L27.05 14.6L26.75 14.8L27.35 15.95L28.05 16.75L28.3 16.9L28.6 17.2L29.05 17.05L29.55 17L30.3 16.85L31 16.55L31.25 16.5L31.45 16.4L31.25 15.85L31.1 15.4L30.7 14.7Q30.4 14.35 29.95 14.15L29.7 13.75L29.3 13.9Q28.5 13.8 27.45 14.4" />
<path style="fill:#71B4BB;fill-opacity:1" d="M31.85,13.6Q31.7 14.45 31.7 15.5L31.6 15.3Q31.25 14.15 30.2 13.5L29.85 13.35L31.2 13.15L31.45 13.15L31.85 13.6M31.55,18.7L31.55 18.65L31.5 18.35L30.9 18.25L30.85 18.25L31 18.15L31.75 17.4L31.75 18.7L31.55 18.7M34.85,26.85L34.9 26.9L34.7 26.8L34.7 26.65L34.85 26.85M23.1,18.6L22.95 18.2L22.6 17.4L22.8 17.25L23.25 18.15Q23.95 19 25.4 18.7L24.9 18.25L24.25 17.45L23.85 16.55L24.15 16.4L25.95 15.2Q25.85 15.85 26.6 17.05Q27.75 18.65 28.35 18.65Q29 18.7 28.25 19.05L25.95 19.55L25.85 19.55L25.9 20L25.8 20L25.35 19.95L25.15 19.6L24.15 19.7L23.2 19.75L23.1 18.6M26.35,18.15L26.15 18.2L26.1 18.3L26.1 18.6L26.2 18.7Q26.9 18.7 26.45 18.2L26.35 18.15M21.8,25L21.85 25L22.8 25.1L23.25 25.2L23.9 25.35L24.55 25.55L25.25 25.8L26.3 26.4L26 26.4L25.9 26.4L25.05 26.45L24.65 26.65L24.6 26.65Q23.95 26.6 24.4 26.25L23.85 26.05L23.9 25.75L23.7 25.55L23.1 25.75L22.9 25.7L22.25 25.5L22 25.45L21.8 25M26.6,29.1L26 29.35L25.95 29.25L26.2 29L26.45 28.55L26.35 28.45Q25.65 28.3 26.6 27.95L26.7 27.95L26.75 27.85L26.8 27.1L26.75 26.8L26.55 26.5L26.55 26.45L27 26.7L27.35 27.4L27.4 27.7L27.3 28.4L26.9 29L26.6 29.1M35.35,27.1L36.2 26.85L36.95 26.95L37.1 27.1L37.35 27.55L37.4 27.75L37.25 27.65L36.75 27.45L35.85 27.5L35.3 27.8L35.25 27.8L34.7 28.1L34.65 28.1L34.65 28.05L34.7 27.9Q34.8 27.45 35.2 27.1L35.35 27.1M11.85,20L11.75 20.65L11.65 21.1L11.7 21.1L12.95 21.15L13 21.4L13.05 21.5L13.6 21.75L13.55 21.85L13.15 22.9L12.35 23.05L12.4 22.85L12.35 22.7L12.2 22.6L12.1 22.55Q11.55 22.65 11.45 23.15L11.45 23.2L11.55 23.3L10.85 23.5Q9.7 23.95 10.75 23.85L12.85 23.75L12.7 24.1Q12.4 25.05 12.45 25.8L10.7 26L10.2 26.1L10.15 25.95L9.8 25.75L9.15 26.3L8.75 26.3L8.5 26.3L8.35 26.65Q6.9 27 7.8 26.2L7 25.85L6.65 25.55L7.35 24.75L7.5 24.6L7.75 24.45L9 23.95Q8.5 23.2 8.45 21.9L9.55 19.75L9.9 19.25L10.4 19.3L11.2 19.4Q10.7 21.2 10.75 22.55Q10.95 21.55 11.85 20M5.95,23.55L5.85 23.95Q5.5 24.2 5.25 23.85Q5.25 23.4 5.7 23.3L5.9 23.45L5.95 23.55M15.2,24.1L14.45 24.45L13.9 24.8L14.05 24.2L14.2 23.6L14.35 23.25L14.65 22.75L14.9 22.2Q15.55 22.35 16 22.65L16.1 22.75L15.6 23.55L15.4 24.05L15.2 24.1M18.65,25.35L18.85 25L19.25 24.25L19.25 24.2L19.35 24.2L20 24.35L20.05 24.35L20.1 24.4L20.25 24.75L20.25 25.2L20.2 25.8L20.1 26.15L18.65 25.35M11.05,25.25L11.15 25L11.15 24.95Q11.05 24.7 10.75 24.7Q10.35 25.1 10.4 25.3L11.05 25.25M11.1,26.75Q9.9 27.15 10.85 26.2L11.2 26.5L11.1 26.75M16.45,34.7L16.45 34.8L16.85 34.85L16.85 34.7L17.55 34.7L17.7 34.5L17.75 34.55L17.85 34.7L17.85 34.75L18.25 34.75L18.45 34.6L18.55 34.6L18.7 34.85L18.7 34.9L18.7 35.1L19.15 35.1L19.2 35.05L20 35.45L20.25 35.6L20.5 36.05L19.6 35.95L19.45 35.9L18.85 36.1L18.85 36.05Q18.8 35.9 18.9 35.8L18.55 35.8L18.4 35.55L18.35 35.55Q17.95 35.55 18.05 35.95L18.05 36.05L17.8 36L17.4 36L17.2 36.15L16.85 36.1L16.75 36.15L16.65 36.15L16.45 36.1L16.45 36L16.25 36Q15.5 35.95 15.1 35.5L14.2 34.65L13.75 34.4L13.8 34.2L13.75 34.05L13.7 34L13.35 34.05L13.3 34.1L13.3 34.15L13.25 34.1L12.95 33.95L12.6 33.4L12.3 33.3Q12.25 33.1 12.35 33L12.5 32.95L12.5 32.9L12.65 32.35L12.7 32.15L12.5 32.1L12.5 32.05Q12.4 31.7 12.8 31.7L12.9 31.75L13 31.6L13.1 31.15L13.2 31.15L13.3 31.25L13.6 31.35L14.25 30.75Q14.7 30.75 14.85 30.25L14.9 30.25L16.1 30.75L15.4 31.7L15.05 32.2L14.5 31.7L14.35 31.6L14.3 31.6L13.9 31.5L14.3 32.15L14.3 32.3L14.35 32.55L14.15 32.55L14.1 32.6L14 32.7L14 32.85L14.25 32.95L14.35 32.9L14.55 33.4L14.6 33.35L14.65 33.4L14.75 33.5L14.75 33.6L15.5 34.55L15.6 34.85L15.65 35.1L16 34.7L16.45 34.7M13.2,32.45Q12.9 32.55 13.05 32.8Q13.25 32.85 13.3 32.7L13.25 32.45L13.2 32.45M13.6,33.25L13.6 33.3L13.65 33.4Q13.9 33.6 14.1 33.4L14 33.1L13.9 33.1L13.7 33.1L13.6 33.25M11.9,32.15L12.05 32.25L12.05 32.4L12 32.5Q11.7 32.85 11.6 32.3Q11.75 32.15 11.9 32.15M15.05,34.5Q14.95 34.5 14.9 34.6L14.85 34.65L15.2 34.7L15.1 34.55L15.05 34.5M17.15,35Q16.9 35.1 17 35.35Q17.4 35.55 17.4 35.15L17.15 35M5.3,25.75Q5.1 25.1 5.85 25.1L5.95 25.1Q6.8 25.95 5.35 25.85L5.3 25.75M28.5,35.2L27.4 35.65L27.3 35.65L26.85 35.7L26.4 35.4L26.3 35.35L26.1 35.15L25.95 35L25.8 34.7L25.75 34.65L25.5 34.2L25.65 34.1L25.75 34.1Q26.8 33.3 27 31.65L27 31L27 30.4L27.6 30.4L27.95 30.4L28.65 30.55L29 30.7L29.1 30.8L29.15 30.8L29.4 31.1Q28.75 31.45 28.5 32.15L28.55 32.15L29.3 31.9L30.1 31.75L30.4 31.75L31.1 31.9Q31.55 32 31.8 32.3L31.8 32.4L31.75 32.7L31.3 33L29.9 33.35L27.5 33.9L26.8 34.25L26.95 34.25L27.1 34.4L27.3 34.45L27.5 34.5L28.2 35.05L28.5 35.2M23.15,34.15L23.35 34.1L23.65 34.75L23.15 34.15M22.05,25.9L22.35 25.65L22.55 25.95L22.45 26.2L22 26.2Q21.8 26.15 22.05 25.9" />
<path style="fill:#F3F3F3;fill-opacity:1" d="M28.7,14.95L28.75 14.65L29 14.6L29.3 14.65L29.4 14.9L29.35 15.1L29.05 15.25L28.8 15.1L28.7 14.95" />
<radialGradient
id="RadialGradID_720" gradientUnits="userSpaceOnUse" gradientTransform="matrix(-0.00186157, 6.10352e-005, 6.10352e-005, 0.00186157, 29.3, 15.15)" spreadMethod ="pad" cx="0" cy="0" r="819.2" fx="0" fy="0" >
<stop  offset="0"  style="stop-color:#F7EFB1;stop-opacity:1" />
<stop  offset="1"  style="stop-color:#DBAC50;stop-opacity:1" />
</radialGradient>
<path style="fill:url(#RadialGradID_720) " d="M29.3,13.9L28.9 14.25Q28.45 14.7 28.3 15.4L28.2 15.95L27.9 15.45L27.6 14.8L27.45 14.4Q28.5 13.8 29.3 13.9M29.65,16.45L29.95 15.6L30 14.4L29.95 14.15Q30.4 14.35 30.7 14.7L31.1 15.4L31.25 15.85L31.15 15.85L30.5 16.05L30.3 16.2L29.65 16.45" />
<path style="fill:#A87C28;fill-opacity:1" d="M27.6,14.8L27.9 15.45L28.2 15.95L28.2 16.65L28.3 16.9L28.05 16.75L27.35 15.95L26.75 14.8L27.05 14.6L27.45 14.4L27.6 14.8M30.3,16.2L30.5 16.05L31.15 15.85L31.25 15.85L31.45 16.4L31.25 16.5L31 16.55L30.3 16.85L29.55 17L29.05 17.05L29.35 16.75L29.65 16.45L30.3 16.2" />
<path style="fill:#253C5D;fill-opacity:1" d="M26.75,11.95Q27.65 12.55 28.55 13.25Q28.1 13.3 27.6 13.6L26.35 14.25L24.95 13.6L26.75 11.95M11.5,18.45L11.6 18.75L11.75 19.45L11.2 19.4L11.5 18.45M9.9,19.25L9.55 19.75L8.45 21.9Q7.9 23.2 7.75 24.45L7.5 24.6L7.35 24.75L7.25 23.75Q7.15 20.45 8.8 17.5L11 17.8L9.9 19.25" />
<path style="fill:#662616;fill-opacity:1" d="M13.4,12.05L13.4 11.35L14.45 11.45L14.8 11.55L15 11.65L16.05 12.3L16.35 12.5L17.3 12.9L17.75 12.95L18.5 12.95L18.55 12.95L19.5 12.65L19.95 12.35L20.1 12.3L20.65 11.95Q21.35 11.7 21.55 12.45L21.6 13.25L21.6 13.45L21.6 14.55L21.6 15.3L21.7 16.1L21.7 16.2L21.45 16L20.95 15.7L20.95 15.65L20.9 15.45L20.85 14.85L20.8 14.3L20.8 14.1L20.8 14.05L20.8 13.9L20.8 13.15L20.6 14.05L20.5 14.9L20.5 15.5L20.1 15.4L20.1 14.95L20.15 14.35L20.3 13.6L20.4 13.3L20.55 13Q20.4 13.05 20.15 13.25L20.1 13.3L18.45 13.75L18.3 13.75L16.85 13.45L16.5 13.35L15.85 13L15.6 12.8L15.75 13L16.05 13.55L16.95 15.05L17.25 15.6Q17.05 15.65 16.9 15.8L16.75 15.6L16.8 15.55L16.6 15.2L15.4 13.45L15.35 13.35L15.3 13.3L14.85 12.7L14.75 12.6L14.75 12.65L15.1 13.4L16.05 15.3L16.4 15.9L16.5 16.1L16.15 16.4L15.9 15.95L15.55 15.35L14.75 14L14.7 14L14.7 13.95L14.65 13.9L14.5 13.5L14.1 12.65L14.05 12.55L14.05 12.7L13.85 13.95Q13.5 14.05 13.55 14.4L12.75 15.05L11.45 15.5L11.25 15.55L11.3 15.55L12.15 16.05L12.55 16.3L13.7 16.85L14.1 17.15L14.25 17.15L14.65 17.35L14.95 17.6L14.65 17.9L14.15 17.65L13.7 17.35L13.55 17.3L12.45 16.65L12 16.4L11.55 16.15Q11.05 15.9 10.75 15.8L10.9 15.95L11.15 16.15L11.55 16.5L12.7 17.3L14 18.15L14.1 18.2L14.35 18.4L14.15 18.8L14 18.75L13.6 18.5L13.05 18.15L13 18.1L12.05 17.45L11.95 17.4L12 17.5L12.05 17.45L12 17.55L12.2 18L12.55 18.9L12.55 19.05L12.65 19.85L12.65 20.05L12.6 20.55L12.85 20.55L13 20.55L12.95 20.65L12.95 21.15L11.7 21.1L11.65 21.1L11.75 20.65L11.85 20L11.75 19.45L11.6 18.75L11.5 18.45L11.25 17.85L10.75 17.05L10.6 16.85L10.3 16.5L10 16.15L9.85 16L9.15 15.25Q9.1 15.15 9.2 15.1L9.9 15.05L11.6 14.75L11.8 14.65Q12.9 14.1 13.15 13.35L13.25 13L13.4 12.05" />
<path style="fill:#EE7557;fill-opacity:1" d="M20.7,14.85L20.8 15.65L20.5 15.5L20.5 14.9L20.6 14.05L20.8 13.15L20.8 13.9L20.8 14.05L20.8 14.1L20.7 14.85M13.2,20L13.15 20L13.05 19.9L13.05 20.05L12.85 20.55L12.6 20.55L12.65 20.05L12.65 19.85L12.55 19.05L12.55 18.9L12.2 18L12 17.55L12.4 18.05L12.75 18.6L13 19.2L13.05 19.7L13.15 19.6L13.3 19.6L13.4 19.65L13.45 19.7L13.2 20M14.35,18.4L14.1 18.2L14 18.15L12.7 17.3L11.55 16.5L11.15 16.15L10.9 15.95L11.2 16.15L11.8 16.5L13.05 17.25L13.2 17.35L14.4 18.15L14.5 18.2L14.35 18.4M11.3,15.55L11.25 15.55L11.45 15.5L12.75 15.05L13.55 14.4Q13.5 14.05 13.85 13.95L14.05 12.7L14.05 12.55L14.1 12.65L14.5 13.5Q14.65 14.2 14 14.9L14.05 15L14.15 15.3L13.7 15.35L13.55 15.25L13.25 15.45L12.25 15.6L11.6 15.55L11.3 15.55M16.55,16.05L16.5 16.1L16.4 15.9L16.05 15.3L15.1 13.4L14.75 12.65L14.75 12.6L14.85 12.7L15.3 13.3L15.35 13.35L16.8 15.85L16.55 16.05M16.05,13.55L15.75 13L15.6 12.8L15.85 13L16.5 13.35L16.85 13.45L18.3 13.75L18.45 13.75L20.1 13.3L19.3 13.8L18.7 14.1L18.7 14.2L18.4 14.35L18.25 14.3L18.3 14.2L17.3 14L16.05 13.55M18.05,15.3L17.95 15.15L18.05 15L18.1 14.9L18.15 14.85L18.2 14.9L18.25 14.85L18.25 14.9L18.3 14.95L18.35 14.95L18.35 15.05L18.4 15.15L18.45 15.2L18.05 15.3M19.3,14.55L19.3 14.7Q19.1 14.7 19.25 14.5L19.3 14.55M14.65,16L14.8 16.1L14.8 16.2L14.75 16.25L14.5 16.2Q14.25 16 14.5 16L14.6 16L14.65 16M13.7,16.3L13.65 16.2L13.55 16.1L13.5 15.95L13.5 15.9L13.7 15.8Q13.8 15.7 13.9 15.9L14 16L13.9 16.2L13.9 16.3L13.7 16.3M13.45,19.25L13.5 19.45L13.3 19.45L13.25 19.35L13.2 19.3L13.3 19.2L13.45 19.25" />
<path style="fill:#BB482E;fill-opacity:1" d="M20.8,15.65L20.7 14.85L20.8 14.1L20.8 14.3L20.85 14.85L20.9 15.45L20.95 15.65L20.95 15.7L20.8 15.65M17.25,15.6L16.95 15.05L16.05 13.55L17.3 14L18.3 14.2L18.25 14.3L18.4 14.35L18.7 14.2L18.7 14.1L19.3 13.8L20.1 13.3L20.15 13.25Q20.4 13.05 20.55 13L20.4 13.3L20.3 13.6L20 14.45L19.85 15.25L19.85 15.35L19.1 15.2L18.5 15.2L18.45 15.2L18.4 15.15L18.35 15.05L18.35 14.95L18.3 14.95L18.25 14.9L18.25 14.85L18.2 14.9L18.15 14.85L18.1 14.9L18.05 15L17.95 15.15L18.05 15.3L17.25 15.6M13,20.55L12.85 20.55L13.05 20.05L13.05 19.9L13.15 20L13.2 20L13 20.45L13 20.55M14,19.15L13.9 19.15L13.8 19.35L13.85 19.45Q13.6 19.5 13.45 19.7L13.4 19.65L13.3 19.6L13.15 19.6L13.05 19.7L13 19.2L12.75 18.6L12.4 18.05L12 17.55L12.05 17.45L12.25 17.7L12.75 18.1L12.95 18.25L13.25 18.45Q13.85 18.75 13.9 18.9L14.05 19.05L14 19.15M14.5,18.2L14.4 18.15L13.2 17.35L13.05 17.25L11.8 16.5L11.2 16.15L10.9 15.95L10.75 15.8Q11.05 15.9 11.55 16.15L12 16.4L12.45 16.65L13.55 17.3L13.7 17.35L14.15 17.65L14.65 17.9L14.5 18.2M14.8,17.35L14.25 17.15L14.1 17.15L13.7 16.85L12.55 16.3L12.15 16.05L11.3 15.55L11.6 15.55L12.25 15.6L13.25 15.45L13.55 15.25L13.7 15.35L14.15 15.3L14.05 15L14 14.9Q14.65 14.2 14.5 13.5L14.65 13.9L14.7 13.95L14.7 14L14.75 14L14.95 14.7L15.2 15.35L15.45 16L15.6 16.3L15.65 16.4L15.5 16.35Q15.45 16.3 15.4 16.4L15.4 16.6L15.55 16.8L15.6 16.85L15.65 16.9L15.7 17L15.65 17.05L15.6 17.05L15.15 17.4L14.8 17.35M19.25,14.5Q19.1 14.7 19.3 14.7L19.3 14.55L19.25 14.5M14.6,16L14.5 16Q14.25 16 14.5 16.2L14.75 16.25L14.8 16.2L14.8 16.1L14.65 16L14.6 16M13.9,16.3L13.9 16.2L14 16L13.9 15.9Q13.8 15.7 13.7 15.8L13.5 15.9L13.5 15.95L13.55 16.1L13.65 16.2L13.7 16.3L13.9 16.3M13.3,19.2L13.2 19.3L13.25 19.35L13.3 19.45L13.5 19.45L13.45 19.25L13.3 19.2" />
<path style="fill:#B3A38A;fill-opacity:1" d="M31.85,24.55L31.75 25.1L31.45 25.5L29.3 24.6L28.9 24.75L28.85 24.7L28.85 24.3L27.8 23.5L27.55 23.3L27.4 23L27.25 22.95Q26.8 22.95 26.8 23.3L26.55 23.2L26.5 22.85L26.55 22.75L26.65 22.7L25.3 22.2L24.7 22.05L24.65 22.05L24.7 22.05L24.75 21.8L24.6 21.5L24.55 21.45Q24.15 21.65 24.35 22L23.85 22L23.05 22L22.4 22L22.4 22.15L21.5 22.35L21.3 22.1L21.25 22.1L21.2 22.1L21.05 22.1L21.1 22.05L21.25 22L21.5 21.6L21.5 21.55L21.5 21.5Q22 21.6 22.55 21L23.2 21.05L23.95 21.15L24.95 21.25L25.65 21.3L25.7 21.3L27.9 22.45L28.3 22.65Q28.1 22.85 28.25 23.15L28.25 23.2L28.75 23.1L28.8 22.85L29.5 23.15L30 23.05L30.25 23.25L30.3 23.45L30.45 23.5Q31.55 23.95 31.85 24.55M28.25,24.4L28.35 24.4L28.5 24.75Q28.1 25.15 27.95 24.6L28 24.55Q28.05 24.4 28.25 24.4M30.6,24L30.3 24.4L30.8 24.35L30.7 24.05L30.6 24" />
<path style="fill:#CDBFA8;fill-opacity:1" d="M31.95,23.8L31.85 24.55Q31.55 23.95 30.45 23.5L30.3 23.45L30.25 23.25L30 23.05L29.5 23.15L28.8 22.85L28.75 23.1L28.25 23.2L28.25 23.15Q28.1 22.85 28.3 22.65L27.9 22.45L25.7 21.3L25.95 21.25L26.6 21.2L27.3 21.7Q28.15 22.3 29.1 22.5L29.3 22.6L29.95 22.75L30.8 22.9Q31.2 23 31.45 23.2L31.8 23.5L31.95 23.8M24.45,22.15L24.45 22.1L24.35 22Q24.15 21.65 24.55 21.45L24.6 21.5L24.75 21.8L24.7 22.05L24.65 22.05L24.45 22.15" />
<path style="fill:#877861;fill-opacity:1" d="M21.5,21.55L21.5 21.6L21.25 22L21.1 22.05L21.5 21.55M19.6,23.3L20 22.6L21.05 22.1L21.2 22.1L21.25 22.1L21.3 22.1L21.5 22.35L22.4 22.15L22.4 22L23.05 22L23.85 22L24.35 22L24.45 22.1L24.45 22.15L24.65 22.05L24.7 22.05L25.3 22.2L26.65 22.7L26.55 22.75L26.5 22.85L26.55 23.2L26.8 23.3Q26.8 22.95 27.25 22.95L27.4 23L27.55 23.3L27.8 23.5L28.85 24.3L28.85 24.7L28.9 24.75L29.3 24.6L31.45 25.5L30.8 25.75L30.7 25.8L29.25 25.75L29.05 25.7Q28.35 25.5 27.5 24.75L27.05 24.35Q26.25 23.5 25 23.15L24.45 23L24.3 22.95L24.05 22.95L23.65 22.9Q22.55 22.9 21 23.6L20.65 23.75L19.6 23.3M28,24.55L27.95 24.6Q28.1 25.15 28.5 24.75L28.35 24.4L28.25 24.4Q28.05 24.4 28 24.55M30.7,24.05L30.8 24.35L30.3 24.4L30.6 24L30.7 24.05" />
<path style="fill:#3C3427;fill-opacity:1" d="M31.6,22.55L31.85 22.7L32 22.75L31.95 23.8L31.8 23.5L31.45 23.2Q31.2 23 30.8 22.9L29.95 22.75L29.3 22.6L29.1 22.5Q28.15 22.3 27.3 21.7L26.6 21.2L27.45 21L28.4 21.55L28.8 21.75L29.35 21.95L29.9 22.15L30.1 22.15L30.6 22.25L30.75 22.3L31.2 22.4L31.6 22.55M30.5,26.65L29.6 26.7L29.45 26.65L29.05 26.6Q27.9 26.3 26.8 25.2L26.65 25.05Q25.95 24.35 25.15 24.05L24.4 23.85L23.45 23.8L22.7 23.95L21.45 24.3L21.35 24.35L20.65 23.75L21 23.6Q22.55 22.9 23.65 22.9L24.05 22.95L24.3 22.95L24.45 23L25 23.15Q26.25 23.5 27.05 24.35L27.5 24.75Q28.35 25.5 29.05 25.7L29.25 25.75L30.7 25.8L30.8 25.75L31.45 25.5L31.75 25.1L31.6 25.95L31.55 26.35L30.5 26.65" />
<path style="fill:#243941;fill-opacity:1" d="M20.45,32.8L20.35 32.95Q20.15 33.4 20.25 33.95L20.3 34.1L21.2 34.75Q22.05 34.95 23 35.75Q23.85 36.6 25.5 36.55L27.2 36.5L28 36.4L28.4 36.3L28.3 36.7L27.45 37L25.3 37.05Q23.8 37.15 22.85 36.3Q21.95 35.45 21.3 35.3L20.75 35.15L19.7 34.15L19.65 34.1L19.6 33.8Q19.6 33.25 19.9 32.7L20.1 32.3L20.45 32.45L20.45 32.8M23.7,24.65L24.35 24.8L24.8 24.95L24.9 25Q26.45 25.45 27.25 26.15Q27.8 26.6 28 27.2L28.1 27.9L27.85 28.7L27.8 28.7L26.9 29L27.3 28.4L27.4 27.7L27.35 27.4L27 26.7L26.55 26.45L26.3 26.4L25.25 25.8L24.55 25.55L23.9 25.35L23.25 25.2L22.8 25.1L21.85 25L21.8 25L21.65 24.7L21.35 24.35L21.45 24.3L22.1 24.35L22.6 24.4L23.7 24.65M24.15,27Q23.75 27.35 23.45 27.95Q23.1 27.9 22.85 28.2L22.75 28.1L24.15 27M23.75,35L23.9 35.25L23.8 35.35L23.8 35.15L23.75 35" />
<path style="fill:#3C3129;fill-opacity:1" d="M30.5,27.8L30.55 27.2L30.5 26.65L31.55 26.35L31.5 26.5L31.05 26.55L31.05 26.6L31.1 26.9L30.85 28.3L30.8 28.3L30.4 28.05L30.5 27.8M21.45,24.3L22.7 23.95Q22.35 24.1 22.1 24.35L21.45 24.3M24.35,24.8L23.7 24.65L23.85 24.45L24.35 23.95L24.4 23.85L25.15 24.05L24.6 24.55L24.35 24.8M28.55,28.75L28.4 28.7L28.6 28.1L28.7 27.85L29 26.8L29.05 26.6L29.45 26.65L29.6 26.7L29.5 27.15L28.9 28.8L28.85 28.95L28.55 28.75" />
<path style="fill:#23140E;fill-opacity:1" d="M25,24.6L24.85 24.6L24.6 24.55L25.15 24.05Q25.95 24.35 26.65 25.05L26.8 25.2L25.45 24.75L25 24.6" />
<path style="fill:#FFFCEE;fill-opacity:1" d="M31.15,21.7L31.2 21.65L31.45 21.15L31.9 20.95L31.9 21.4L31.15 21.7M32,22.55L32 22.75L31.85 22.7L32 22.55M30.1,22.15L30.1 21.55L30.1 20.9L30.3 20.6L30.55 21.35L30.55 21.45L30.6 22.25L30.1 22.15" />
<linearGradient
id="LinearGradID_721" gradientUnits="userSpaceOnUse" gradientTransform="matrix(0.00106812, 0.00189209, -0.000793457, 0.000442505, 37.05, 16.55)" spreadMethod ="pad" x1="-819.2" y1="0" x2="819.2" y2="0" >
<stop  offset="0.00392157" style="stop-color:#917162;stop-opacity:1" />
<stop  offset="1" style="stop-color:#C2AEA0;stop-opacity:1" />
</linearGradient>
<path style="fill:url(#LinearGradID_721) " d="M37,15.6L38.6 17.9L38.7 17.9L37.75 19L37.6 19.05L36.65 17.2L37 15.6" />
<path style="fill:#A0DAE0;fill-opacity:1" d="M31.45,13.15L31.9 13.2L31.85 13.6L31.45 13.15M13.25,25.4L13.25 25.25L13.45 24.2L13.55 23.7L13.85 22.8L14.15 22L14.6 22.1L14.9 22.2L14.65 22.75L14.35 23.25L14.2 23.6L14.05 24.2L13.9 24.8L13.25 25.4M19.15,24.2L18.3 24.2L18.4 23.95L19.15 24.2M20.8,26.6L20.1 26.15L20.2 25.8L20.25 25.2L20.25 24.75L20.1 24.4L20.5 24.7L20.85 25.2L20.95 25.6L20.9 26.3L20.85 26.4L20.8 26.6M15.5,34.55L14.75 33.6L14.75 33.5L14.65 33.4L14.6 33.35L14.55 33.4L14.35 32.9L14.25 32.95L14 32.85L14 32.7L14.1 32.6L14.15 32.55L14.35 32.55L14.3 32.3L14.3 32.15L14.65 32.65L15.05 33.4L15.15 33.6L15.5 34.55M16,34.7L16.1 34.2L17.85 34.25Q18.75 34.3 19.6 34.95L20.25 35.6L20 35.45L19.2 35.05L19.15 35.1L18.7 35.1L18.7 34.9L18.7 34.85L18.55 34.6L18.45 34.6L18.25 34.75L17.85 34.75L17.85 34.7L17.75 34.55L17.7 34.5L17.55 34.7L16.85 34.7L16.85 34.85L16.45 34.8L16.45 34.7L16 34.7M29.6,31.1L30.6 31L31.05 31.05Q31.3 31.1 31.5 31.3L31.55 31.4L31.8 32.3Q31.55 32 31.1 31.9L30.4 31.75L30.1 31.75L29.3 31.9L28.55 32.15L28.5 32.15Q28.75 31.45 29.4 31.1L29.6 31.1M26.9,29.85L27.65 29.65L28 29.6Q28.3 29.6 28.45 29.8L29.05 30.65L29.1 30.75L29.1 30.8L29 30.7L28.65 30.55L27.95 30.4L27.6 30.4L27 30.4L26.9 29.85" />
<path style="fill:#2F4A72;fill-opacity:1" d="M31.25,17.15L31.75 17L31.75 17.35L31.25 17.15M10.75,22.55Q10.7 21.2 11.2 19.4L11.75 19.45L11.85 20Q10.95 21.55 10.75 22.55" />
<path style="fill:#4D3212;fill-opacity:1" d="M32,29.1L32.15 29.2L32.4 29.4L32.5 29.6L32.55 29.65L33.05 30.25L33.15 30.35L33.2 30.4L32.65 31.4L32.55 31.25L32.2 30.7L32.35 30.5L32.2 30.35L32.05 30.25L32 30.25L31.8 30.15L31.8 30.05L31.6 29.85L31.2 29.5L31.05 29.4L31 29.4L30.75 29.25L30.6 29.1L30.45 28.95L29.6 30L29 29.05L29.15 28.85Q29.95 27.95 30.25 27.95L30.4 28.05L30.8 28.3L30.85 28.3L31.45 28.65L31.65 28.8L31.75 28.85L31.85 29L31.9 29L32 29.1M38.75,24.35L38.85 24.45L39.15 24.7L39.25 24.85L39.25 24.9L39.65 25.35L39.75 25.45L39.8 25.45L39.2 26.4L38.2 27.6L37.95 26.85L39.1 25.55L39 25.45L38.9 25.35L38.85 25.35L38.7 25.25L38.7 25.2L38.1 24.7L38.05 24.7L37.85 24.55L37.75 24.45L37.65 24.35L36.25 26.05L35.25 26.25L35.15 26.1L36.6 24.25L37.45 23.55L37.9 23.8L37.95 23.8L38.4 24.1L38.65 24.25L38.7 24.35L38.75 24.35" />
<path style="fill:#9A7226;fill-opacity:1" d="M37.6,26.5Q37.05 25.9 36.6 26L36.25 26.05L37.65 24.35L37.75 24.45L37.85 24.55L38.05 24.7L38.1 24.7L38.7 25.2L38.7 25.25L37.6 26.5M31.3,30.1L29.65 30.1L29.6 30L30.45 28.95L30.6 29.1L30.75 29.25L31 29.4L31.05 29.4L31.2 29.5L31.6 29.85L31.8 30.05L31.8 30.15L31.7 30.25L31.3 30.1" />
<path style="fill:#332F25;fill-opacity:1" d="M12.55,10.55Q12.05 9.65 12.05 8.5Q12.15 7.15 12.95 6.3Q13.2 6.3 13.7 7.7Q14.15 8.85 14.85 9.6L14.15 9.75L13.65 8.95L13 7.45Q12.8 7.65 12.7 8.45Q12.65 9.2 12.9 10.35L12.55 10.55" />
<path style="fill:#8C331D;fill-opacity:1" d="M19.85,15.35L19.85 15.25L20 14.45L20.3 13.6L20.15 14.35L20.1 14.95L20.1 15.4L19.85 15.35M12.25,17.7L12.05 17.45L12 17.5L11.95 17.4L12.05 17.45L13 18.1L13.05 18.15L13.6 18.5L14 18.75L14.15 18.8L14.05 19.05M16.8,15.85L15.35 13.35L15.3 13.3L15.35 13.35L15.4 13.45L16.6 15.2L16.8 15.55L16.75 15.6L16.9 15.8L16.8 15.85M14.05,19.05L13.9 18.9Q13.85 18.75 13.25 18.45L12.95 18.25L12.75 18.1L12.25 17.7M13.9,19.4L13.85 19.45L13.8 19.35L13.9 19.15L14 19.15L13.9 19.4" />
<path style="fill:#8C3C19;fill-opacity:1" d="M15.15,17.4L14.95 17.6L14.65 17.35L14.25 17.15L14.8 17.35L15.15 17.4M15.95,16.55L15.65 16.9L15.6 16.85L15.55 16.8L15.4 16.6L15.4 16.4Q15.45 16.3 15.5 16.35L15.65 16.4L15.6 16.3L15.45 16L15.2 15.35L14.95 14.7L14.75 14L15.55 15.35L15.9 15.95L16.15 16.4L15.95 16.55" />
<path style="fill:#27414A;fill-opacity:1" d="M13.55,21.85L13.6 21.75L14 21.75L14.3 21.75L14.25 21.8L14.15 22L13.55 21.85M18.6,23.6L18.4 23.95L18.3 24.2L18.25 24.25L17.7 23.9L17.65 23.9L17.7 23.75L17.85 23.4L18.6 23.6" />
<path style="fill:#745416;fill-opacity:1" d="M37.85,26.75L37.6 26.5L38.7 25.25L38.85 25.35L38.9 25.35L39 25.45L39.1 25.55L37.95 26.85L37.85 26.75M31.8,30.15L32 30.25L32.05 30.25L32.2 30.35L32.35 30.5L32.2 30.7L31.7 30.25L31.8 30.15" />
<path style="fill:#1C323A;fill-opacity:1" d="M34.7,26.65L34.85 25.7L35.15 26.1L35.25 26.25L36.25 26.05L36.6 26Q37.05 25.9 37.6 26.5L37.85 26.75L37.95 26.85L38.2 27.6L37.3 28.65L37.4 28.05L37.4 27.75L37.35 27.55L37.1 27.1L36.95 26.95L36.2 26.85L35.35 27.1L35.2 27.1L34.9 26.9L34.85 26.85L34.7 26.65M35.6,29.75L36.5 29.55L36.25 29.75Q36.05 29.95 35.6 29.75" />
</g>
</svg>
