<?xml version="1.0" encoding="utf-8"?>
<svg version="1.1" id="Layer_1"
xmlns="http://www.w3.org/2000/svg"
xmlns:xlink="http://www.w3.org/1999/xlink"
xmlns:author="http://www.sothink.com"
width="9px" height="7px"
xml:space="preserve">
<g id="249" transform="matrix(1, 0, 0, 1, 0, 0)">
<path style="fill:#37414A;fill-opacity:1" d="M6.3,2.3L6.3 2.9Q6.15 2.9 4.9 3.6L4.85 3.6L5.85 3.75Q6.2 3.9 6.2 5.5L5.7 5.7L2.95 5.85Q1.4 5.65 1.1 5.25Q0.7 4.7 0.7 3.9Q0.65 3.1 0.85 2.7Q1.05 2.25 1.55 1.85Q2 1.4 3.1 1.05L5.6 0.9L6.05 1L6.3 2.3" />
<path style="fill:#5F6D77;fill-opacity:1" d="M6.2,5.5Q6.2 3.9 5.85 3.75L4.85 3.6L4.9 3.6Q6.15 2.9 6.3 2.9L6.3 2.3L6.05 1Q7.1 1.25 7.4 1.8Q7.7 2.45 7.3 3.95Q7 5.05 6.2 5.5" />
<path style="fill:#172227;fill-opacity:1" d="M7.3,3.95Q7.7 2.45 7.4 1.8Q7.1 1.25 6.05 1L5.6 0.9L3.1 1.05Q2 1.4 1.55 1.85Q1.05 2.25 0.85 2.7Q0.65 3.1 0.7 3.9Q0.7 4.7 1.1 5.25Q1.4 5.65 2.95 5.85L5.7 5.7L6.2 5.5Q7 5.05 7.3 3.95M6.5,0.1Q8.15 0.2 8.35 2Q8.5 3.75 8 4.95Q7.5 6 6.15 6.4L5.8 6.5L2.75 6.7Q1.25 6.5 0.8 6.15Q0.3 5.8 0.1 4.6Q-0.05 3.35 0.1 2.75L0.55 1.8L1.2 1.15L2.4 0.45L4.05 0.05L5.6 0.05L6.5 0.1" />
</g>
</svg>
