<?xml version="1.0" encoding="utf-8"?>
<svg version="1.1" id="Layer_1"
xmlns="http://www.w3.org/2000/svg"
xmlns:xlink="http://www.w3.org/1999/xlink"
xmlns:author="http://www.sothink.com"
width="58px" height="63px"
xml:space="preserve">
<g id="647" transform="matrix(1, 0, 0, 1, 0, 0)">
<path style="fill:#000000;fill-opacity:1" d="M39.25,10.9Q37.15 11.65 36.65 11.95Q32.75 13.8 28.45 19.05Q27.05 20.75 26.5 22.3Q25.3 25.6 27.9 28.3L29.9 30.25Q32.3 32.35 33.95 32.5Q37.3 32.2 40.5 30.95Q42.75 24.8 42.95 17.75Q43.15 10.95 41.85 10.5L39.35 10.8Q38.55 11.05 39.25 10.9M44.4,13.65Q45.1 18.45 43.85 24.35L42.35 30.6Q49.75 27.7 53.65 20.9Q55.05 17.65 55.95 21L57 24.65L57.2 25.75Q58 30.85 56.85 35.65Q55.1 42.7 50 47.2Q45.75 50.95 43.3 52.2Q42.05 52.85 40.45 52.7L35.8 51.85L26.2 51.45Q20.2 51.55 15.35 54.35Q10.5 57.1 7.8 59.7Q5.1 62.3 3.75 62.85Q2.35 63.35 1.2 61.6Q-1.1 56.85 0.95 50.8Q3 44.65 7.85 38.8Q10.2 34.1 4.85 29.55Q4.4 29.4 3.65 28.7L3.2 27.95L3.15 27.8Q3.05 27.3 3.25 26.65Q3.75 23.3 6.85 19.85Q9.85 16.4 12.9 14.35L17.4 10.85L20.35 7.45L22.7 3.45Q23.65 1.4 24.95 0.4Q25.7 -0.15 26.7 0.05Q27.4 0.15 28.3 0.75Q29.25 1.4 29.8 2.5Q30.35 3.65 30.4 5.2L30.3 10.05Q30.1 11.75 32.45 13.3Q35.35 11.15 37.55 9.95Q38.1 9.65 38.6 9.45L39.4 9.1Q40.95 8.5 42.15 8.65Q43.65 8.8 44.4 13.65M55.8,32L55.85 31.3L55.75 27.65Q55.45 24.35 54.55 22.2Q52.95 25.85 46.65 29.8Q40.3 33.7 31.4 34.1Q22.45 34.5 13.35 42.25Q7.7 47 5.55 52.8Q4.2 56.4 4.2 60.4Q8.85 56.35 13.85 53.25Q18.8 50.15 25.7 49.85Q32.55 49.55 40.95 51.05Q43.25 51 46.6 48.5Q49.95 46 52.45 42.1Q54.9 38.15 55.5 34.55L55.8 32M24.95,34.15Q28 33.2 31.3 32.95L28.35 30.7L27.3 29.5L26.1 27.95Q23.55 24.15 26.2 20.15Q28.5 16.65 31.15 14.05Q29.65 13.3 29.15 10.7Q28.05 13.8 24.55 16.8Q21.05 19.75 18.9 22.9Q16.75 26 16.25 29.05L16 30.05Q15.75 30.9 15.6 30.2L15.5 29.65L15.4 28.9Q15.1 25.75 17.8 22.2L18.15 21.7Q20.75 18.3 24.85 14.3Q29.25 10 28.85 5.9Q28.6 3.65 28 2.55Q27.55 1.75 26.95 1.5L26.7 1.4Q24.95 0.95 23.5 4.25Q22 7.5 19.3 10.7Q16.55 13.85 12.4 16.3Q6.8 21 5.2 25.55L4.65 27.5Q9.75 31.75 9.7 35.7Q9.65 37.8 9.1 39.25Q8.6 40.45 7.7 41.15Q0.5 51.7 2.45 59.7Q2.6 58.05 3.85 53.6Q5.1 49.1 9.25 44.55Q13.4 39.95 18.05 37.15Q21.3 35.2 24.95 34.15" />
<path style="fill:#121212;fill-opacity:1" d="M35.75,24.1Q38.85 18.45 39.35 10.8L41.85 10.5Q43.15 10.95 42.95 17.75Q42.75 24.8 40.5 30.95Q37.3 32.2 33.95 32.5Q32.3 32.35 29.9 30.25Q33.2 28.85 35.75 24.1M27.3,29.5Q21.9 27.45 16.2 29.6L16.15 29.8L16 30.05L16.25 29.05Q16.75 26 18.9 22.9Q21.05 19.75 24.55 16.8Q28.05 13.8 29.15 10.7Q29.65 13.3 31.15 14.05Q28.5 16.65 26.2 20.15Q23.55 24.15 26.1 27.95L27.3 29.5" />
<path style="fill:#6D6969;fill-opacity:1" d="M13.35,42.25Q22.45 34.5 31.4 34.1Q40.3 33.7 46.65 29.8Q52.95 25.85 54.55 22.2Q55.45 24.35 55.75 27.65L55.85 31.3L55.7 31.65L55.2 30.2Q54.5 28.45 53.55 28L53.25 28.3Q47.6 35 38.65 35.8Q31.35 36.4 24.4 38.4Q21.75 38.85 19.35 40.1Q15.85 41.85 12.65 44.35Q8.05 48 5.55 52.8Q7.7 47 13.35 42.25M24.8,4.6Q21.15 12.1 17.7 14.4Q14.25 16.7 11.2 19.6L9.2 21.6Q11.8 20.2 14.55 20.55Q13.8 21.65 13.5 22.9Q8.65 22.35 5.2 25.55Q6.8 21 12.4 16.3Q16.55 13.85 19.3 10.7Q22 7.5 23.5 4.25Q24.95 0.95 26.7 1.4L26.95 1.5L26.95 2.45L26.95 2.75Q25.2 3.25 24.8 4.6" />
<path style="fill:#414141;fill-opacity:1" d="M39.25,10.9Q38.55 11.05 39.35 10.8Q38.85 18.45 35.75 24.1Q33.2 28.85 29.9 30.25L27.9 28.3Q25.3 25.6 26.5 22.3Q27.2 26.75 30.8 26.8Q37.8 21.6 39.25 10.9M55.8,32L55.7 31.65Q53.9 35.35 50.1 38.45Q46.4 41.45 41.9 42.9L40.85 42.75Q33.05 41.85 25.2 42.85Q17.25 43.9 11.4 49.8Q6.6 54.6 4.2 60.4Q4.2 56.4 5.55 52.8Q8.05 48 12.65 44.35Q15.85 41.85 19.35 40.1Q21.75 38.85 24.4 38.4Q31.35 36.4 38.65 35.8Q47.6 35 53.25 28.3L53.55 28Q54.5 28.45 55.2 30.2L55.7 31.65L55.85 31.3L55.8 32M26.95,2.75Q26.2 11.4 18.9 16.25Q15.95 18.25 14.55 20.55Q11.8 20.2 9.2 21.6L11.2 19.6Q14.25 16.7 17.7 14.4Q21.15 12.1 24.8 4.6Q25.2 3.25 26.95 2.75M18.05,37.15Q13.4 39.95 9.25 44.55Q5.1 49.1 3.85 53.6Q2.6 58.05 2.45 59.7Q0.5 51.7 7.7 41.15Q8.6 40.45 9.1 39.25Q13.8 35.2 20.6 34.1Q22.8 33.75 24.95 34.15Q21.3 35.2 18.05 37.15" />
<path style="fill:#232323;fill-opacity:1" d="M30.8,26.8Q27.2 26.75 26.5 22.3Q27.05 20.75 28.45 19.05Q32.75 13.8 36.65 11.95Q37.15 11.65 39.25 10.9Q37.8 21.6 30.8 26.8M55.5,34.55Q54.9 38.15 52.45 42.1Q49.95 46 46.6 48.5Q43.25 51 40.95 51.05Q32.55 49.55 25.7 49.85Q18.8 50.15 13.85 53.25Q8.85 56.35 4.2 60.4Q6.6 54.6 11.4 49.8Q17.25 43.9 25.2 42.85Q33.05 41.85 40.85 42.75L41.9 42.9Q46.4 41.45 50.1 38.45Q53.9 35.35 55.7 31.65L55.8 32L55.5 34.55M28,2.55Q28.6 3.65 28.85 5.9Q29.25 10 24.85 14.3Q20.75 18.3 18.15 21.7L17.8 22.2Q15.1 25.75 15.4 28.9L15.5 29.65L15.6 30.2Q15.75 30.9 16 30.05L16.15 29.8L16.2 29.6Q21.9 27.45 27.3 29.5L28.35 30.7L31.3 32.95Q28 33.2 24.95 34.15Q22.8 33.75 20.6 34.1Q13.8 35.2 9.1 39.25Q9.65 37.8 9.7 35.7Q9.75 31.75 4.65 27.5L5.2 25.55Q8.65 22.35 13.5 22.9Q13.8 21.65 14.55 20.55Q15.95 18.25 18.9 16.25Q26.2 11.4 26.95 2.75L26.95 2.45L26.95 1.5Q27.55 1.75 28 2.55" />
</g>
</svg>
