<?xml version="1.0" encoding="utf-8"?>
<svg version="1.1" id="Layer_1"
xmlns="http://www.w3.org/2000/svg"
xmlns:xlink="http://www.w3.org/1999/xlink"
xmlns:author="http://www.sothink.com"
width="38px" height="14px"
xml:space="preserve">
<g id="2711" transform="matrix(1, 0, 0, 1, -23.4, -4.3)">
<path style="fill:#FFFFFF;fill-opacity:1" d="M56.8,5.9Q56.15 5.6 55.55 4.75L54.95 4.3L57.35 5.4Q58.55 8.55 60.8 10.9Q59.75 10.45 58.25 8.6Q56.8 6.8 56.8 5.9M44.75,10.55L44.75 10.5Q48.3 6.6 53.25 4.9L53.35 4.95L44.75 10.55M27.25,11.5L24.1 11.7Q23.1 11.6 23.55 11.35L26.9 10.75Q28.25 10.7 29.2 11.45Q30.15 12.15 30.1 12.8Q31.2 15.4 33.75 16.95Q36.3 17.85 38.7 15.85Q36.9 18.95 32.8 17.2Q32.4 17.1 31.35 15.6L29.05 12.15Q28.35 11.15 27.25 11.5" />
</g>
</svg>
