<?xml version="1.0" encoding="utf-8"?>
<svg version="1.1" id="Layer_1"
xmlns="http://www.w3.org/2000/svg"
xmlns:xlink="http://www.w3.org/1999/xlink"
xmlns:author="http://www.sothink.com"
width="99px" height="100px"
xml:space="preserve">
<g id="2947" transform="matrix(1, 0, 0, 1, -13.6, 3.1)">
<path style="fill:#1C1417;fill-opacity:1" d="M108.9,53.55L106.7 57.25L103.5 61.4L100.65 64.05L96.75 66.5L95.8 67.05L94 67.8Q98.9 65.3 102.35 62L105.05 58.95Q109.6 53.35 110.35 41.75Q110.6 37.6 110.15 33.7Q109.35 26.6 106.2 20.15Q101.35 10.15 94.1 5.05Q86.85 -0.05 77.2 -1.35Q67.5 -2.65 59.75 -1.1Q52 0.4 46.05 3.65Q41.75 6 38.8 8.45L38.7 8.6L37.9 10.1Q37.1 11.85 37.35 13.65Q37.45 14.5 37.8 15.35Q40.75 22.9 47.6 23.95Q42.85 25.15 39 27.8Q35.75 30.05 34.1 32.75Q40.05 28.25 47.75 26.6Q57.55 24.55 67 28.6Q76.35 32.5 81.65 41.05Q87.05 49.65 86.95 59.2Q86.85 69.1 81.55 75.25Q76.5 81.15 71 80.95L70.5 80.95L68.55 79.1L67.75 78.6L67.55 78.5L68.05 78.7Q69.7 78.1 71.75 76.35Q76.85 72.85 80.05 62.8L80.35 57.8Q80.4 55.6 79.75 52.7Q79.05 49.75 77.65 46.6Q76.3 43.4 72 39L69.7 36.9Q67 35.25 64.8 34.55Q62.6 33.8 58.9 33.7L52.6 34Q49.9 34.4 45.2 37.1Q40.45 39.8 37.3 44.45Q35.65 47.25 35.15 50.35Q34.1 56.75 36.5 63.15L36.75 63.45Q37.35 65.6 38.25 67.6Q40.25 71.7 43.85 74.2L45.6 75.7L45.75 76.05L47.7 77.6L52.75 80.2L52.15 80.55L52.8 80.4L52.45 80.85L52 81.05L51.95 81.05Q50.7 82.2 49.05 82.6Q51 85.4 54.45 86.4L55.5 86.55Q61.6 88.4 66.85 85.05L69.8 82.55L69.85 82.5Q70.75 84.05 71 85.35Q70.75 86.8 68.95 88.05Q65.25 91.4 60.6 91.8Q56.35 92.9 51.1 91.05L46.1 88.6L45.4 88L47.25 90.05Q47.3 91.85 45.65 93Q44.8 93.6 43.9 93.8Q41.15 94.6 39 93.35L37.4 91.95L37.6 92Q39.65 92.25 42.1 91.05L43.2 90.4Q42.1 89.7 41.15 88.1Q40.3 86.7 39.9 85L39.5 85.45Q37.65 87.55 35 87.9L34.5 86.35Q35.55 86.15 37.55 84.75Q38.7 83.95 39.45 82.4L40.3 79.65Q41.05 75.9 38.3 74.8Q35.55 73.7 32.1 69.25Q28.7 64.8 27.35 58.8Q26 52.8 26 48.9Q25.95 45 24.25 43.95L23.45 43.95Q21.6 44.2 18.85 46.4L21.35 42.7L25.15 37.1Q27.6 33.6 29.05 30.35Q30.45 27.1 31.8 19.9Q32.45 16.5 34.1 13.25Q35.15 11.1 36.65 9.1Q38 7.85 41.7 5.15Q45.35 2.45 52.85 -0.6L59.85 -2.4Q69.5 -3.6 76.4 -2.8Q83.25 -2 87.55 -0.2Q91.85 1.6 93.85 3L97 5.25Q98.2 6 101.2 9.5Q104.15 12.9 105.1 14.65L106.25 16.55L107.75 19.5L110.4 26.05Q111.65 29.8 111.9 33.25L112.15 36.95L112 41.3Q111.9 45.3 110.2 50.6L108.9 53.55M81.1,84.6Q84.8 83.4 87.8 80.95L88.3 80.5L88.65 80.35L94.2 71.9L94.5 71.65L95 70.5L96.2 69.2Q94.9 69.15 93.5 68.55L92.95 68.55L93.35 68.4Q95 68.5 97.4 67.45L101.1 65.7Q99.7 67.4 98.7 70.7Q96.85 77.05 94.25 80.65Q91.6 84.25 90.2 85.4L87.6 87.2Q82.4 90.5 77.1 91.1L71.3 90.75Q72.25 89.65 72.65 88.3Q73 86.9 73 85.25Q76.95 85.95 81.1 84.6" />
<path style="fill:#150E10;fill-opacity:1" d="M16.9,48.2L16.8 48.1Q19.1 43.5 24.75 35.25Q27.25 31.55 28.15 28.85Q28.85 26.75 29.8 22.25L30.15 20.7L30.4 19.35L31.25 16.25L32 14.75Q33.65 11.8 36.65 9.1Q35.15 11.1 34.1 13.25Q32.45 16.5 31.8 19.9Q30.45 27.1 29.05 30.35Q27.6 33.6 25.15 37.1L21.35 42.7L18.85 46.4L16.9 48.2M37.6,92L37.4 91.95L37.3 91.9L35.05 91.2Q34.05 89.5 33.3 87.05L33.25 86.6L34.5 86.35L35 87.9L36.1 90.35L37.6 92" />
<path style="fill:#625158;fill-opacity:1" d="M37.35,13.65Q37.1 11.85 37.9 10.1L38.7 8.6L38.8 8.45Q41.75 6 46.05 3.65Q52 0.4 59.75 -1.1Q67.5 -2.65 77.2 -1.35Q86.85 -0.05 94.1 5.05Q101.35 10.15 106.2 20.15Q109.35 26.6 110.15 33.7Q110.6 37.6 110.35 41.75Q109.6 53.35 105.05 58.95Q110.1 51.3 108.25 39.8Q107.7 36.2 106.45 32.45L105.2 29.05Q101.25 16.35 88.7 9.15Q84.75 6.9 80.35 5.45L76.45 4.4Q61.2 1.35 46.05 8.6Q41.05 11 37.35 13.65" />
<path style="fill:#171012;fill-opacity:1" d="M56.2,78.55L52.15 80.55L52.75 80.2L47.7 77.6L45.75 76.05L45.6 75.7L43.85 74.2Q40.25 71.7 38.25 67.6Q37.35 65.6 36.75 63.45L36.5 63.15Q34.1 56.75 35.15 50.35Q35.65 47.25 37.3 44.45Q40.45 39.8 45.2 37.1Q49.9 34.4 52.6 34L58.9 33.7Q62.6 33.8 64.8 34.55Q67 35.25 69.7 36.9L72 39Q76.3 43.4 77.65 46.6Q79.05 49.75 79.75 52.7Q80.4 55.6 80.35 57.8L80.05 62.8Q76.85 72.85 71.75 76.35Q69.7 78.1 68.05 78.7L67.55 78.5L67.75 78.6Q61.55 76.45 56.2 78.55" />
<path style="fill:#43271D;fill-opacity:1" d="M33.3,87.05L33.3 87.1L33.15 86.6Q24.35 86.9 19.35 80.15Q17.65 77.9 16.4 74.8Q10.65 60.7 16.75 48.5L16.9 48.2L18.85 46.4Q21.6 44.2 23.45 43.95L24.25 43.95Q25.95 45 26 48.9Q26 52.8 27.35 58.8Q28.7 64.8 32.1 69.25Q35.55 73.7 38.3 74.8Q41.05 75.9 40.3 79.65L39.45 82.4Q38.7 83.95 37.55 84.75Q35.55 86.15 34.5 86.35L33.25 86.6L33.3 87.05M19.1,48.05Q16.45 50.9 15.5 56.45Q14.6 62 15.75 67.65Q16.95 73.25 18.5 75.95Q19.95 78.5 22.25 81.1L22.45 81.3Q24.8 83.95 27.6 84.7Q30.35 85.45 33.45 84.75Q36.5 84 38 81.95Q39.4 79.9 39.1 76.8Q33.75 75.4 29.15 67.55Q24.7 59.9 24.6 47.1Q24.1 45.7 23.05 45.65Q21.6 45.55 19.1 48.05" />
<path style="fill:#7E5331;fill-opacity:1" d="M32.75,77.7L32.8 77.65Q25.1 72 23.1 62.2Q21.4 53.75 23.05 45.65Q24.1 45.7 24.6 47.1Q24.7 59.9 29.15 67.55Q33.75 75.4 39.1 76.8Q39.4 79.9 38 81.95Q36.5 84 33.45 84.75Q30.35 85.45 27.6 84.7Q24.8 83.95 22.45 81.3L22.25 81.1Q28.45 82.4 32.75 77.7" />
<path style="fill:#23191D;fill-opacity:1" d="M36.1,90.35L35 87.9Q37.65 87.55 39.5 85.45L39.9 85Q40.3 86.7 41.15 88.1Q42.1 89.7 43.2 90.4L42.1 91.05Q39.65 92.25 37.6 92L36.1 90.35M71,85.15Q71.4 86.9 70.65 88.35Q69.35 90.95 65.75 92.8Q62.15 94.65 58.65 94.55Q55.1 94.45 52.6 93.55Q50.1 92.6 48.15 90.85L47.25 90.05L45.4 88L46.1 88.6L51.1 91.05Q56.35 92.9 60.6 91.8Q65.25 91.4 68.95 88.05Q70.75 86.8 71 85.35L71 85.15M52.5,81.45Q57.4 78.55 62.4 78.65L65.65 79.15Q68.15 80 69.65 82.25L69.8 82.55L66.85 85.05Q61.6 88.4 55.5 86.55L54.45 86.4Q51 85.4 49.05 82.6Q50.7 82.2 51.95 81.05L52 81.05L52.5 81.45" />
<path style="fill:#A67A60;fill-opacity:1" d="M23.05,45.65Q21.4 53.75 23.1 62.2Q25.1 72 32.8 77.65L32.75 77.7Q28.45 82.4 22.25 81.1Q19.95 78.5 18.5 75.95Q16.95 73.25 15.75 67.65Q14.6 62 15.5 56.45Q16.45 50.9 19.1 48.05Q21.6 45.55 23.05 45.65M19.7,55L20.5 50.55Q20.65 49.6 20.35 49.45Q20 49.3 18.7 50.65Q17.35 52 16.5 56.8Q15.65 61.55 16.9 66.1Q18.2 70.6 18.6 64.55Q19 58.45 19.7 55" />
<path style="fill:#E5A884;fill-opacity:1" d="M18.6,64.55Q18.2 70.6 16.9 66.1Q15.65 61.55 16.5 56.8Q17.35 52 18.7 50.65Q20 49.3 20.35 49.45Q20.65 49.6 20.5 50.55L19.7 55Q19 58.45 18.6 64.55" />
<linearGradient
id="LinearGradID_2812" gradientUnits="userSpaceOnUse" gradientTransform="matrix(0.00256348, -0.0523376, 0.0476227, 0.00523376, 72.2, 55.55)" spreadMethod ="pad" x1="-819.2" y1="0" x2="819.2" y2="0" >
<stop  offset="0" style="stop-color:#23191D;stop-opacity:1" />
<stop  offset="1" style="stop-color:#43363A;stop-opacity:1" />
</linearGradient>
<path style="fill:url(#LinearGradID_2812) " d="M93.35,68.4L92.95 68.55L93.5 68.55Q94.9 69.15 96.2 69.2L95 70.5L94.5 71.65L94.2 71.9L88.65 80.35L88.3 80.5L87.8 80.95Q84.8 83.4 81.1 84.6Q76.95 85.95 73 85.25L72.85 85.2L72.1 83.15L71.65 82.4L70.8 81.25L70.5 80.95L71 80.95Q76.5 81.15 81.55 75.25Q86.85 69.1 86.95 59.2Q87.05 49.65 81.65 41.05Q76.35 32.5 67 28.6Q57.55 24.55 47.75 26.6Q40.05 28.25 34.1 32.75Q35.75 30.05 39 27.8Q42.85 25.15 47.6 23.95Q40.75 22.9 37.8 15.35Q37.45 14.5 37.35 13.65Q41.05 11 46.05 8.6Q61.2 1.35 76.45 4.4L80.35 5.45Q84.75 6.9 88.7 9.15Q101.25 16.35 105.2 29.05L106.45 32.45Q107.7 36.2 108.25 39.8Q110.1 51.3 105.05 58.95L102.35 62Q98.9 65.3 94 67.8L95.8 67.05L93.35 68.4" />
<path style="fill:#100B0D;fill-opacity:1" d="M71,85.35Q70.75 84.05 69.85 82.5L69.8 82.55L69.65 82.25Q68.15 80 65.65 79.15L62.4 78.65Q57.4 78.55 52.5 81.45L52 81.05L52.45 80.85L52.8 80.4L52.15 80.55L56.2 78.55Q61.55 76.45 67.75 78.6L68.55 79.1L70.5 80.95L70.8 81.25L71.65 82.4L72.1 83.15L72.85 85.2L73 85.25Q73 86.9 72.65 88.3Q72.25 89.65 71.3 90.75L77.1 91.1Q82.4 90.5 87.6 87.2L90.2 85.4Q91.6 84.25 94.25 80.65Q96.85 77.05 98.7 70.7Q99.7 67.4 101.1 65.7L97.4 67.45Q95 68.5 93.35 68.4L95.8 67.05L96.75 66.5L100.65 64.05L103.5 61.4L106.7 57.25L108.9 53.55L110.2 50.6L109.8 52.6Q109.3 55.05 108.05 57.25Q107.05 58.9 105.65 60.45L104.25 62.3Q102.5 64.6 101.7 66.6L99.55 72.2Q96.8 80.25 93.1 84.45Q89.35 88.6 82.45 91.3Q75.5 94 69.95 91.95Q65.6 96.25 59.5 96.45Q53.45 96.6 48.1 93.2Q44.2 95.8 39.75 94.9Q36.9 94.3 35.05 91.2L37.3 91.9L37.4 91.95L39 93.35Q41.15 94.6 43.9 93.8Q44.8 93.6 45.65 93Q47.3 91.85 47.25 90.05L48.15 90.85Q50.1 92.6 52.6 93.55Q55.1 94.45 58.65 94.55Q62.15 94.65 65.75 92.8Q69.35 90.95 70.65 88.35Q71.4 86.9 71 85.15L71 85.35" />
</g>
</svg>
