<?xml version="1.0" encoding="utf-8"?>
<svg version="1.1" id="Layer_1"
xmlns="http://www.w3.org/2000/svg"
xmlns:xlink="http://www.w3.org/1999/xlink"
xmlns:author="http://www.sothink.com"
width="118px" height="39px"
xml:space="preserve">
<g id="440" transform="matrix(1, 0, 0, 1, -10.55, 16.7)">
<linearGradient
id="LinearGradID_612" gradientUnits="userSpaceOnUse" gradientTransform="matrix(0, 0.00823975, -0.00872803, 0, 18.5, 6.8)" spreadMethod ="pad" x1="-819.2" y1="0" x2="819.2" y2="0" >
<stop  offset="0" style="stop-color:#FFF980;stop-opacity:1" />
<stop  offset="1" style="stop-color:#E7950A;stop-opacity:1" />
</linearGradient>
<path style="fill:url(#LinearGradID_612) " d="M78.85,-0.9Q78.15 -2.05 76.55 -1.55Q76 -1.55 76.2 -1.05Q77.1 1.15 78.95 -0.7L78.85 -0.9M77.1,-3.4Q78.25 -3.4 79.05 -2.6Q79.85 -1.9 79.85 -0.3L79.85 11.2L85.9 11.2Q87.2 11.2 87.9 11.85Q88.65 12.55 88.65 13.65Q88.65 14.7 87.9 15.4Q87.2 16.05 85.9 16.05L77.5 16.05Q75.85 16.05 75.15 15.25Q74.35 14.55 74.35 12.9L74.35 -0.3Q74.35 -1.8 75.1 -2.55Q75.8 -3.4 77.1 -3.4" />
<path style="fill:#FFFFFF;fill-opacity:1" d="M78.95,-0.7Q77.1 1.15 76.2 -1.05Q76 -1.55 76.55 -1.55Q78.15 -2.05 78.85 -0.9L78.95 -0.7" />
<linearGradient
id="LinearGradID_613" gradientUnits="userSpaceOnUse" gradientTransform="matrix(0, 0.00823975, -0.00872803, 0, 18.5, 1.05)" spreadMethod ="pad" x1="-819.2" y1="0" x2="819.2" y2="0" >
<stop  offset="0" style="stop-color:#FFF980;stop-opacity:1" />
<stop  offset="1" style="stop-color:#E7950A;stop-opacity:1" />
</linearGradient>
<path style="fill:url(#LinearGradID_613) " d="M98.6,-6.2Q98.95 -7.3 98.05 -7.8Q96.15 -7.8 96.2 -6.05L98.5 -6L98.6 -6.2M95.7,-8.3Q96.45 -9.15 97.65 -9.15Q99 -9.15 99.7 -8.3Q100.45 -7.55 100.45 -6.05L100.45 2.4Q100.45 3.65 100.7 4.5Q100.9 5.1 101.45 5.45L101.5 5.5L103.2 5.85Q104.65 5.85 105.25 5.15Q105.9 4.25 105.9 2.45L105.9 -6.05Q105.9 -7.6 106.65 -8.3L106.7 -8.35Q107.4 -9.15 108.65 -9.15Q109.9 -9.15 110.6 -8.35L110.65 -8.3Q111.4 -7.6 111.4 -6.05L111.4 2.2Q111.4 4.35 110.95 5.85Q110.5 7.45 109.2 8.7Q108.1 9.7 106.65 10.15L103.45 10.6L99.75 10.1L99.8 10.15Q98.05 9.65 97 8.55Q95.95 7.5 95.4 5.85Q94.95 4.3 94.95 2.2L94.95 -6.05Q94.95 -7.55 95.7 -8.3M108.05,-7.25Q107.6 -7.05 107.7 -6.55Q108.55 -4.4 110.85 -5.7L110.9 -5.9Q110.85 -7.7 108.8 -7.55L108.05 -7.25" />
<path style="fill:#FFFFFF;fill-opacity:1" d="M98.5,-6L96.2 -6.05Q96.15 -7.8 98.05 -7.8Q98.95 -7.3 98.6 -6.2L98.5 -6M108.8,-7.55Q110.85 -7.7 110.9 -5.9L110.85 -5.7Q108.55 -4.4 107.7 -6.55Q107.6 -7.05 108.05 -7.25L108.8 -7.55" />
<linearGradient
id="LinearGradID_614" gradientUnits="userSpaceOnUse" gradientTransform="matrix(0, 0.00823975, -0.00872803, 0, 18.5, -6.75)" spreadMethod ="pad" x1="-819.2" y1="0" x2="819.2" y2="0" >
<stop  offset="0" style="stop-color:#FFF980;stop-opacity:1" />
<stop  offset="1" style="stop-color:#E7950A;stop-opacity:1" />
</linearGradient>
<path style="fill:url(#LinearGradID_614) " d="M114.05,-15.95Q114.8 -16.7 116.4 -16.7L120.85 -16.7L124.15 -16.3Q125.4 -16 126.35 -15.15L126.4 -15.1L127.85 -13.15L127.85 -13.1Q128.3 -11.95 128.3 -10.5Q128.3 -7.4 126.3 -5.75Q124.5 -4.2 120.85 -4.2L118.65 -4.2L118.65 -0.35Q118.65 1.15 117.9 1.95Q117.1 2.8 115.9 2.8Q114.7 2.8 113.9 1.95Q113.2 1.2 113.2 -0.3L113.2 -13.55Q113.2 -15.2 114 -15.9L114.05 -15.95M116.55,-14.85Q114.65 -14.9 114.95 -13.1L117.25 -13.05L117.35 -13.25Q117.8 -14.6 116.55 -14.85M118.65,-8.8L120 -8.8L121.75 -9L122.5 -9.5L122.75 -10.45Q122.75 -11.15 122.4 -11.6L120 -12.05L118.65 -12.05L118.65 -8.8M124.3,-14.85Q124.05 -14.85 124 -14.6Q123.65 -11.9 126.55 -12.7L126.6 -12.9Q126.7 -15.15 124.3 -14.85" />
<path style="fill:#FFFFFF;fill-opacity:1" d="M117.35,-13.25L117.25 -13.05L114.95 -13.1Q114.65 -14.9 116.55 -14.85Q117.8 -14.6 117.35 -13.25M126.6,-12.9L126.55 -12.7Q123.65 -11.9 124 -14.6Q124.05 -14.85 124.3 -14.85Q126.7 -15.15 126.6 -12.9" />
<linearGradient
id="LinearGradID_615" gradientUnits="userSpaceOnUse" gradientTransform="matrix(0, 0.00823975, -0.00872803, 0, 17.7, 12.25)" spreadMethod ="pad" x1="-819.2" y1="0" x2="819.2" y2="0" >
<stop  offset="0" style="stop-color:#FFF980;stop-opacity:1" />
<stop  offset="1" style="stop-color:#E7950A;stop-opacity:1" />
</linearGradient>
<path style="fill:url(#LinearGradID_615) " d="M24.1,20.85Q23.4 21.5 22.1 21.5L13.7 21.5Q12.05 21.5 11.35 20.7Q10.55 20 10.55 18.35L10.55 5.15Q10.55 3.65 11.3 2.9Q12 2.05 13.3 2.05Q14.45 2.05 15.25 2.85Q16.05 3.55 16.05 5.15L16.05 16.65L22.1 16.65Q23.4 16.65 24.1 17.3Q24.85 18 24.85 19.1Q24.85 20.15 24.1 20.85M12.2,5.55L13.1 6.1Q13.75 6.35 14.25 5.9Q14.75 5.45 14.7 4.75L14.5 4.2L14.3 4.05L12.75 3.9Q12.1 3.95 12.1 4.65L12.2 5.55" />
<path style="fill:#FFFFFF;fill-opacity:1" d="M12.1,4.65Q12.1 3.95 12.75 3.9L14.3 4.05L14.5 4.2L14.7 4.75Q14.75 5.45 14.25 5.9Q13.75 6.35 13.1 6.1L12.2 5.55L12.1 4.65" />
<linearGradient
id="LinearGradID_616" gradientUnits="userSpaceOnUse" gradientTransform="matrix(0, 0.00823975, -0.00872803, 0, 17.7, 12.25)" spreadMethod ="pad" x1="-819.2" y1="0" x2="819.2" y2="0" >
<stop  offset="0" style="stop-color:#FFF980;stop-opacity:1" />
<stop  offset="1" style="stop-color:#E7950A;stop-opacity:1" />
</linearGradient>
<path style="fill:url(#LinearGradID_616) " d="M39.4,3Q39.7 3.25 39.85 4.35Q39.75 6 39.4 6.35L39.35 6.4Q38.75 7 37.45 7L30.6 7L30.6 9.2L36.8 9.2Q38.05 9.2 38.65 9.85L38.7 9.9Q39.4 10.55 39.4 11.5Q39.4 12.5 38.7 13.2Q38.15 13.85 36.8 13.85L30.6 13.85L30.6 16.75L37.7 16.75Q39 16.75 39.6 17.35L39.65 17.4L40.1 18L40.35 19.15L40.1 20.25L39.65 20.85L39.6 20.9Q39 21.5 37.7 21.5L28.25 21.5Q26.55 21.5 25.9 20.7L25.95 20.7Q25.15 20 25.15 18.35L25.15 5.45Q25.15 4.45 25.45 3.85L25.45 3.9Q25.75 3.05 26.6 2.7L26.7 2.65Q27.3 2.3 28.25 2.3L37.45 2.3Q38.75 2.3 39.35 2.95L39.4 3M36.5,3.85Q35.85 6.2 38.7 5.7L38.8 5.5L39.1 4.75L39.15 4.4L39 4.2Q38 3.45 36.75 3.65L36.5 3.85M27.75,5.9L28 5.8Q30.25 4.35 28 3.65L27.75 3.7Q27.25 3.9 26.9 4.25L26.9 4.6Q27 5.55 27.75 5.9" />
<path style="fill:#FFFFFF;fill-opacity:1" d="M36.75,3.65Q38 3.45 39 4.2L39.15 4.4L39.1 4.75L38.8 5.5L38.7 5.7Q35.85 6.2 36.5 3.85L36.75 3.65M26.9,4.6L26.9 4.25Q27.25 3.9 27.75 3.7L28 3.65Q30.25 4.35 28 5.8L27.75 5.9Q27 5.55 26.9 4.6" />
<linearGradient
id="LinearGradID_617" gradientUnits="userSpaceOnUse" gradientTransform="matrix(0, 0.00823975, -0.00872803, 0, 18.5, 12.25)" spreadMethod ="pad" x1="-819.2" y1="0" x2="819.2" y2="0" >
<stop  offset="0" style="stop-color:#FFF980;stop-opacity:1" />
<stop  offset="1" style="stop-color:#E7950A;stop-opacity:1" />
</linearGradient>
<path style="fill:url(#LinearGradID_617) " d="M56.5,2.4Q57.15 2.7 57.5 3.35L57.5 3.4L57.8 4.6L57.75 5.35L57.55 6.1L57.45 6.3L57.3 6.65L53.15 17.9L53.15 17.85L52.7 19.2L52.7 19.15L52.1 20.35L51 21.35L49.3 21.8Q48.2 21.8 47.55 21.35Q46.85 20.95 46.5 20.35L45.85 19.1L45.4 17.85L45.4 17.9L41.3 6.75L41.15 6.2L40.9 5.4Q40.6 4.6 40.9 3.85L41.55 2.8L41.6 2.75Q42.35 2.05 43.45 2.05Q45 2.05 45.55 3.1L46.4 5.05L46.4 5L49.35 13.7L52.3 4.95L52.8 3.55Q53 3 53.55 2.55L53.65 2.5Q54.15 2.05 55.2 2.05Q55.9 2.05 56.45 2.35L56.5 2.4M57.15,5.05Q57.05 3.1 54.8 3.4Q54.05 3.5 54.1 4.4L54.25 5.3L54.45 5.45L57.1 5.25L57.15 5.05M41.95,5L44.55 5.15L44.6 4.95Q44.9 2.85 42.55 2.9Q42.05 2.9 41.8 3.45Q41.4 4.3 41.95 5" />
<path style="fill:#FFFFFF;fill-opacity:1" d="M57.1,5.25L54.45 5.45L54.25 5.3L54.1 4.4Q54.05 3.5 54.8 3.4Q57.05 3.1 57.15 5.05L57.1 5.25M41.8,3.45Q42.05 2.9 42.55 2.9Q44.9 2.85 44.6 4.95L44.55 5.15L41.95 5Q41.4 4.3 41.8 3.45" />
<linearGradient
id="LinearGradID_618" gradientUnits="userSpaceOnUse" gradientTransform="matrix(0, 0.00698853, -0.00872803, 0, 18.5, 13.65)" spreadMethod ="pad" x1="-819.2" y1="0" x2="819.2" y2="0" >
<stop  offset="0" style="stop-color:#FFF980;stop-opacity:1" />
<stop  offset="1" style="stop-color:#E7950A;stop-opacity:1" />
</linearGradient>
<path style="fill:url(#LinearGradID_618) " d="M71.3,6.15Q69.3 8.25 72.95 7.45L72.9 7.3Q72.65 6.3 71.3 6.15M72.7,8.65L72.65 8.7Q72.05 9.2 70.75 9.2L63.9 9.2L63.9 11.05L70.1 11.05Q71.35 11.05 71.95 11.6L72 11.65Q72.7 12.2 72.7 13Q72.7 13.85 72 14.45Q71.45 15 70.1 15L63.9 15L63.9 17.45L71 17.45Q72.3 17.45 72.9 18L72.95 18Q73.65 18.55 73.65 19.5Q73.65 20.35 72.95 20.95L72.9 21Q72.3 21.5 71 21.5L61.55 21.5Q59.85 21.5 59.2 20.8L59.25 20.8Q58.45 20.25 58.45 18.85L58.45 7.9Q58.45 7.05 58.75 6.5L58.75 6.55Q59.05 5.85 59.9 5.55L60 5.5L61.55 5.2L70.75 5.2Q72.05 5.2 72.65 5.75L72.7 5.8Q73.4 6.3 73.4 7.2Q73.4 8.05 72.7 8.65M61.05,6.55Q60.5 6.65 60.3 7.2L60.2 7.85L62.7 7.75L62.7 7.6Q62.85 6.25 61.05 6.55" />
<path style="fill:#FFFFFF;fill-opacity:1" d="M72.9,7.3L72.95 7.45Q69.3 8.25 71.3 6.15Q72.65 6.3 72.9 7.3M62.7,7.6L62.7 7.75L60.2 7.85L60.3 7.2Q60.5 6.65 61.05 6.55Q62.85 6.25 62.7 7.6" />
</g>
</svg>
