<?xml version="1.0" encoding="utf-8"?>
<svg version="1.1" id="Layer_1"
xmlns="http://www.w3.org/2000/svg"
xmlns:xlink="http://www.w3.org/1999/xlink"
xmlns:author="http://www.sothink.com"
width="31px" height="45px"
xml:space="preserve">
<g id="513" transform="matrix(1, 0, 0, 1, 1.1, 1.5)">
<path style="fill:#0F1A1E;fill-opacity:1" d="M22.15,5L21.8 3.8L20.6 0.75L19.85 -0.05L18.9 -0.2Q18.35 -0.05 17.95 1.1Q17.5 1.75 17.45 2.35L17.4 2.85L17.65 4.5L18.1 6.05L18.3 6.1L17 6.7L16.45 4.6Q16.15 3.55 16.15 2.9Q16.15 2.15 16.65 0.95Q17.05 -0.25 17.95 -1.05Q18.8 -1.9 20 -1.2Q21.15 -0.55 21.5 0.15L23.15 5.1L22.15 5M8,37.3Q9.45 39.5 10.95 40.3Q12.2 40.9 12.65 40.95L12.45 42L10.25 41.05L7.95 39.15L6.75 37.55L6.2 37.4L8 37.3M0.5,25.15Q0.35 23.55 0.85 21.75Q1.55 19.35 2.95 17.4L3.5 16.7Q2.95 15 3.2 14L3.25 13.7Q3.45 12.9 3.95 12.4Q4.55 11.85 5 11.8L6.35 11.95Q7.05 12.15 7.7 13.15Q9.65 12.05 11.55 11.5Q13.45 10.9 14.85 10.8L16.9 10.9L17.25 10.95L17.4 11L17.65 11L18.25 11.15L18.25 11.05L19.7 11.6L20 11.75L20.1 11.8L20.95 12.4Q21.6 12.95 22.05 14.15L22.9 16.75L24.1 20.7L24.2 21.2L25.6 26.1L24.5 25.95L24.25 26.1L24.1 25.05L23.45 22.8L23.4 22.3L21.55 15.55L21.15 14.45Q20.45 13.5 19.6 13.05Q18.75 12.5 17.2 12.15Q15.65 11.75 13.75 12.15Q10.5 12.8 8.55 14.2Q6.5 15.6 5 17.2Q2.15 20.45 1.8 24.4L0.5 25.15M14.1,36.4L13.7 37.4L13.65 37.35L13.15 37.05L12.1 36.55L11.55 36.2L11.25 35.95L11.6 35.55L11.9 35.2Q12.95 36 14.1 36.4M19,16.2L17.8 15.95L15.7 16.3L14.25 16.7L13.2 16.95L10.2 17.9L9.9 18.05Q8.6 18.5 7.8 19.1L7.75 19.25Q6.9 19.9 7 21.3Q7.05 22.55 7.6 23.3L7.75 23.4L6.2 23.15L5.85 21.95Q5.65 20.85 6.25 19.35Q6.75 18.1 8.95 17.3L9.85 16.95L14.8 15.55L15.95 15.3L18.2 15.1Q19.6 15.1 20.5 16.7Q21.8 19 21.55 21.25L21.45 21.75L21.05 22.8L21.15 22.85Q18.5 23.2 11.25 25.5L10.55 24.8Q11.6 24.45 12.75 24.2L14.3 23.7L15.3 23.45L18.55 22.6L19.3 22.35Q20.95 22.05 20.7 20.45L20.5 19.05Q20.25 17.2 19.7 16.85Q19.55 16.45 19 16.2M6.7,13.7L6.6 13.5L6.2 13.2L5.15 12.95Q4.9 12.9 4.6 13.35L4.55 13.45L4.5 13.5L4.25 13.9Q4 15 4.5 15.65L5.05 15.1L6.15 14.2L6.4 13.95L6.7 13.7" />
<path style="fill:#36454A;fill-opacity:1" d="M18.3,6.1L18.1 6.05L17.65 4.5L17.4 2.85L17.45 2.35L17.85 1.9Q18.65 1.3 19.6 1.3Q20.4 1.3 21.55 5L21.6 5.15Q19.95 5.4 18.35 6.05L18.3 6.1M12.95,39.15Q12.1 38.8 10.75 37.85L12.1 36.55L13.15 37.05L13.65 37.35L13.7 37.4L13.1 39.2L12.95 39.15M4.05,23.35Q3.45 23.45 2.95 23.7Q3.3 19.95 7.05 16.7Q11.05 13.2 15.55 13.2Q18 13.2 19.65 14.35L21.5 15.5L21.55 15.55L23.4 22.3L22.65 22.5L21.8 22.2L21.45 21.75L21.55 21.25Q21.8 19 20.5 16.7Q19.6 15.1 18.2 15.1L15.95 15.3L14.8 15.55L9.85 16.95L8.95 17.3Q6.75 18.1 6.25 19.35Q5.65 20.85 5.85 21.95L6.2 23.15L4.05 23.35M4.5,13.5L4.55 13.45L4.65 13.45Q5.8 13.45 6.4 13.95L6.15 14.2L5.05 15.1L4.65 14.55L4.5 13.5" />
<path style="fill:#985B20;fill-opacity:1" d="M17.05,39.75Q21.95 39.75 24.8 37L28.4 33.35L28.45 33.3L28.5 33.25L28.55 33.15L28.55 33.25Q28.05 35.05 25.9 37.45Q23.7 39.85 20.15 40.9L13.65 41.3L13.95 39.5L17.05 39.75M25.6,26.1L24.2 21.2L24.1 20.7L22.9 16.75L22.05 14.15Q21.6 12.95 20.95 12.4L20.1 11.8L20 11.75L19.7 11.6L19 9.3Q19.35 9.2 20.1 9.65L21.75 11.3L22.9 13.5L24 16.6Q24.9 18.75 26.05 23.55L27.1 28.45Q27.1 29.85 26.8 30.3L26.3 28.5L26.15 28L25.6 26.1M1.8,32.8Q3.65 34.85 5.9 34.85Q9.2 34.85 11.15 32.6Q11.95 31.7 12.35 30.6L12.35 30.7Q12.35 34.4 9.2 35.75Q6.1 37 3.45 35.7Q0.85 34.25 0.2 31.55Q-0.1 30.65 0 29.7Q0.6 31.5 1.8 32.8" />
<path style="fill:#1F292C;fill-opacity:1" d="M13.1,39.2L13.1 39.25L12.7 40.95L12.65 40.95Q12.2 40.9 10.95 40.3Q9.45 39.5 8 37.3L9.1 37.05Q9.95 36.8 11.25 35.95L11.55 36.2L12.1 36.55L10.75 37.85Q12.1 38.8 12.95 39.15L13.1 39.2M22.9,26.35L22.3 24.5L21.6 23.4L21.15 22.85L21.05 22.8L21.45 21.75L21.8 22.2L22.65 22.5L23.4 22.3L23.45 22.8L24.1 25.05L24.25 26.1L22.9 26.35M4.65,14.55L5.05 15.1L4.5 15.65Q4 15 4.25 13.9L4.5 13.5L4.65 14.55" />
<path style="fill:#000000;fill-opacity:1" d="M26.15,28L26.3 28.5L26.8 30.3L26.8 30.4L26.85 31.9L26.3 33.45L25.1 34.5Q24.25 34.95 23.35 35L23.2 35L21.6 34.75L21.5 34.7L20.5 34.4L20.5 34.35L20.35 34.2L19.95 33.95Q18.9 33.25 18.25 32L17.65 30.55L16.1 30.8L13.75 31.4L13.25 31.5L13.2 30.1L13.45 30.05L15.1 29.55L16.7 29.2Q17.4 29.05 17.85 28.55L18.55 27.95L18.9 27.75Q19.45 27.4 21.55 26.75L21.75 26.65Q21.45 24.75 20.95 24.25L20.15 23.65Q19.7 23.45 17.15 24.2L13.75 25.2L12.05 25.75L11.6 25.85L11.25 25.5Q18.5 23.2 21.15 22.85L21.6 23.4L22.3 24.5L22.9 26.35L24.25 26.1L24.5 25.95L25.6 26.1L26.15 28M24.65,27.35Q24.5 26.95 22.4 27.6L21.8 27.75Q20.15 28.2 19.45 28.7L19.2 28.9Q18.65 29.3 18.75 29.7L18.9 30.55L19.1 31.1L19.1 31.15L21 30.6L24.75 29.25L25.1 29.1L25 28.65L24.65 27.35M19.55,31.8Q19.85 32.85 20.95 33.45L22 33.85L23.05 33.95L23.9 33.85L24.95 33.25L25.55 32.5Q25.85 32 25.75 31.35L25.7 31.25L25.45 29.8L24.9 29.9L23.9 30.25Q22.35 30.65 20.7 31.4L20.45 31.45L20.1 31.65L20 31.65L19.55 31.8M3.3,30.55Q3.55 31.5 4.25 32Q4.9 32.45 6 32.5Q7 32.5 7.8 31.8L8.25 31.35L8.55 29.85L8.4 29.1Q8.1 28.4 7.5 28Q6.45 27.45 5.6 27.65Q4.8 27.65 4.2 28.3L3.85 28.65L3.3 29.45Q3.15 30 3.3 30.55M9.45,30.35Q9.45 31.45 8.55 32.35Q7.6 33.25 6.1 33.35Q4.5 33.45 3.3 32.5Q2.15 31.5 2.45 29.55Q2.6 28.45 3.5 27.6Q4.55 26.6 5.7 26.65Q8.25 26.75 9.05 28.3Q9.45 29.3 9.45 30.35" />
<path style="fill:#FFFFFF;fill-opacity:1" d="M7.75,19.25L7.8 19.1Q8.6 18.5 9.9 18.05L10.4 18.35L12.65 20.45L10.45 21.7L7.75 19.25M14.1,17.55L13.2 16.95L14.25 16.7L15.7 16.3L17.65 17.9L17.05 18.25L15.8 18.9L14.1 17.55" />
<path style="fill:#9F9F9F;fill-opacity:1" d="M17.65,17.9L19.7 16.85Q20.25 17.2 20.5 19.05L20.7 20.45L17.65 17.9M12.75,20.4L15.8 18.9L17.15 20.05L18.85 22L19.1 22.3L19.3 22.35L18.55 22.6L15.3 23.45L13 20.95L12.65 20.45L12.75 20.4M10.5,24.75Q9.75 24.2 7.75 23.4L7.6 23.3Q8.5 22.65 10.45 21.7L10.75 22L12.75 24.2Q11.6 24.45 10.55 24.8L10.5 24.75" />
<path style="fill:#B8B7B7;fill-opacity:1" d="M15.7,16.3L17.8 15.95L19 16.2Q19.55 16.45 19.7 16.85L17.65 17.9L15.7 16.3M10.45,21.7Q8.5 22.65 7.6 23.3Q7.05 22.55 7 21.3Q6.9 19.9 7.75 19.25L10.45 21.7M9.9,18.05L10.2 17.9L13.2 16.95L14.1 17.55L15.8 18.9L12.75 20.4L12.65 20.45L10.4 18.35L9.9 18.05" />
<path style="fill:#D9D9D9;fill-opacity:1" d="M19.1,22.3L18.85 22L17.15 20.05L15.8 18.9L17.05 18.25L17.65 17.9L20.7 20.45Q20.95 22.05 19.3 22.35L19.1 22.3M10.45,21.7L12.65 20.45L13 20.95L15.3 23.45L14.3 23.7L12.75 24.2L10.75 22L10.45 21.7" />
<path style="fill:#747474;fill-opacity:1" d="M20.6,25.3Q20.1 24.8 19.7 24.8Q19 24.8 12.15 26.65L11.6 25.85L12.05 25.75L13.75 25.2L17.15 24.2Q19.7 23.45 20.15 23.65L20.95 24.25Q21.45 24.75 21.75 26.65L21.55 26.75Q21.2 25.85 20.6 25.3M19.3,33.65L18.75 33.3Q17.2 32.3 17.2 31.4L15.35 31.75L13.45 32.25L13.4 32.05L13.25 31.9L13.25 31.5L13.75 31.4L16.1 30.8L17.65 30.55L18.25 32Q18.9 33.25 19.95 33.95L19.3 33.65M19.45,28.7Q20.15 28.2 21.8 27.75L22.4 27.6Q24.5 26.95 24.65 27.35L25 28.65L24.65 28.8Q24.25 27.95 23.95 27.95Q22.25 27.95 19.45 28.7M25.5,31.65L25.35 31.35Q25.1 30.7 24.75 30.7L22.8 31.1L20.45 31.45L20.7 31.4Q22.35 30.65 23.9 30.25L24.9 29.9L25.45 29.8L25.7 31.25L25.5 31.65M5.6,27.65Q6.45 27.45 7.5 28Q8.1 28.4 8.4 29.1Q8.1 28.75 7.8 28.75L7.3 28.75Q7.5 29.3 7 29.3Q6.4 29.3 6.35 28.75Q6.35 28.15 5.3 28.15L4.2 28.3Q4.8 27.65 5.6 27.65" />
<path style="fill:#2E2E2E;fill-opacity:1" d="M21.55,26.75Q19.45 27.4 18.9 27.75L18.55 27.95L13.9 28.95L12.6 27.45L12.4 27.2L12.15 26.65Q19 24.8 19.7 24.8Q20.1 24.8 20.6 25.3Q21.2 25.85 21.55 26.75M20.2,34.25L19.2 34.65Q18 35.2 16.65 35.2L14.1 34.75Q13.7 34.65 13.25 34.35L12.75 34.05L12.65 34.1L13.2 32.3L13.25 31.9L13.4 32.05L13.45 32.25L15.35 31.75L17.2 31.4Q17.2 32.3 18.75 33.3L19.3 33.65L19.95 33.95L20.35 34.2L20.2 34.25M23.95,27.95Q24.25 27.95 24.65 28.8Q24 28.95 23.35 29.25L20 30.1Q19.6 30.1 19.2 28.9L19.45 28.7Q22.25 27.95 23.95 27.95M22.8,31.1L24.75 30.7Q25.1 30.7 25.35 31.35L25.5 31.65Q24.7 32.8 22.8 32.8L20.8 32.35L20 31.65L20.1 31.65L20.45 31.45L22.8 31.1M8.55,29.85L8.25 31.35Q7.5 31.75 6.4 31.75Q5.15 31.75 4.25 30.9Q3.5 30.25 3.3 29.45L3.85 28.65L4.2 28.3L5.3 28.15Q6.35 28.15 6.35 28.75Q6.4 29.3 7 29.3Q7.5 29.3 7.3 28.75L7.8 28.75Q8.1 28.75 8.4 29.1L8.55 29.85" />
<path style="fill:#202020;fill-opacity:1" d="M11.9,35.2L12.15 34.85L12.45 34.4L12.65 34.1L12.75 34.05L13.25 34.35Q13.7 34.65 14.1 34.75L16.65 35.2Q18 35.2 19.2 34.65L20.2 34.25L20.35 34.2L20.5 34.35L20.5 34.4Q20.15 35.95 17.25 36.55L14.35 36.5L14.3 36.5L14.25 36.4L14.1 36.4Q12.95 36 11.9 35.2M13,29.05L12.7 27.95L12.6 27.45L13.9 28.95L18.55 27.95L17.85 28.55Q17.4 29.05 16.7 29.2L15.1 29.55L13.45 30.05L13.2 30.1L13 29.05M20,30.1L23.35 29.25Q24 28.95 24.65 28.8L25 28.65L25.1 29.1L24.75 29.25L21 30.6L19.1 31.15L19.1 31.1L18.9 30.55L18.75 29.7Q18.65 29.3 19.2 28.9Q19.6 30.1 20 30.1M25.7,31.25L25.75 31.35Q25.85 32 25.55 32.5L24.95 33.25L23.9 33.85L23.05 33.95L22 33.85L20.95 33.45Q19.85 32.85 19.55 31.8L20 31.65L20.8 32.35L22.8 32.8Q24.7 32.8 25.5 31.65L25.7 31.25M3.3,29.45Q3.5 30.25 4.25 30.9Q5.15 31.75 6.4 31.75Q7.5 31.75 8.25 31.35L7.8 31.8Q7 32.5 6 32.5Q4.9 32.45 4.25 32Q3.55 31.5 3.3 30.55Q3.15 30 3.3 29.45" />
<path style="fill:#818C95;fill-opacity:1" d="M21.6,5.15L21.55 5Q20.4 1.3 19.6 1.3Q18.65 1.3 17.85 1.9L17.45 2.35Q17.5 1.75 17.95 1.1Q18.35 -0.05 18.9 -0.2L19.85 -0.05L20.6 0.75L21.8 3.8L22.15 5L22.15 5.05L21.6 5.15M21.5,15.5L19.65 14.35Q18 13.2 15.55 13.2Q11.05 13.2 7.05 16.7Q3.3 19.95 2.95 23.7Q2.2 24 1.8 24.4Q2.15 20.45 5 17.2Q6.5 15.6 8.55 14.2Q10.5 12.8 13.75 12.15Q15.65 11.75 17.2 12.15Q18.75 12.5 19.6 13.05Q20.45 13.5 21.15 14.45L21.55 15.55L21.5 15.5M4.55,13.45L4.6 13.35Q4.9 12.9 5.15 12.95L6.2 13.2L6.6 13.5L6.7 13.7L6.4 13.95Q5.8 13.45 4.65 13.45L4.55 13.45" />
<path style="fill:#D9AB31;fill-opacity:1" d="M26.8,30.3Q27.1 29.85 27.1 28.45L26.05 23.55Q24.9 18.75 24 16.6L22.9 13.5L21.75 11.3L20.1 9.65Q19.35 9.2 19 9.3L18.55 7.75Q18.35 7.3 18.55 7.05Q20 6.45 21.8 6.1L21.7 6.25Q22.8 8.9 24.7 15.65L26.15 20.95L27.45 24.2Q28.75 29.3 28.85 30.85Q29 32.35 28.55 33.25L28.55 33.15L28.5 33.25L28.45 33.3L28.4 33.35L24.8 37Q21.95 39.75 17.05 39.75L13.95 39.5L14.05 39.2L14.35 37.65L16.7 37.95Q20 37.95 21.05 36.55L21.55 35.7Q21.8 35.2 22.25 35.25L23.2 35L23.35 35Q24.25 34.95 25.1 34.5L26.3 33.45L26.85 31.9L26.8 30.4L26.8 30.3M0,29.7Q0.1 28.95 0.35 28.3L1.1 26.9L2.65 26.1Q3.85 25.45 6.15 25.45Q7.8 25.45 10.95 27.7Q11.55 28.15 12.35 29.8L12.35 30.6Q11.95 31.7 11.15 32.6Q9.2 34.85 5.9 34.85Q3.65 34.85 1.8 32.8Q0.6 31.5 0 29.7M9.05,28.3Q8.25 26.75 5.7 26.65Q4.55 26.6 3.5 27.6Q2.6 28.45 2.45 29.55Q2.15 31.5 3.3 32.5Q4.5 33.45 6.1 33.35Q7.6 33.25 8.55 32.35Q9.45 31.45 9.45 30.35Q9.45 29.3 9.05 28.3" />
<path style="fill:#FFF16A;fill-opacity:1" d="M26.15,20.95L24.7 15.65Q22.8 8.9 21.7 6.25L22.4 5.95L24.4 12.95L27.4 23.95L27.45 24.2L26.15 20.95M21.6,34.75L23.2 35L22.25 35.25Q21.8 35.2 21.55 35.7L21.05 36.55Q20 37.95 16.7 37.95L14.35 37.65L14.45 37.35Q15.9 37.55 17.5 37.35Q20.4 36.8 21.5 34.7L21.6 34.75M10.95,27.7Q7.8 25.45 6.15 25.45Q3.85 25.45 2.65 26.1L1.1 26.9L1.4 26.35Q1.7 25.95 2.45 25.5Q3.85 24.45 6.1 24.4Q8.65 24.35 10.45 25.8L10.75 26.15L11.65 27.4Q12.2 28.45 12.35 29.8Q11.55 28.15 10.95 27.7" />
<path style="fill:#744517;fill-opacity:1" d="M19.7,11.6L18.25 11.05L17.2 7.45L17 6.7L18.3 6.1L18.35 6.05Q19.95 5.4 21.6 5.15L22.15 5.05L22.15 5L23.15 5.1L23.3 5.55Q24.8 10.2 26.7 17.65L28.85 26L29.1 27.05L29.85 30.35L29.85 30.85Q29.9 33.7 27.7 36.75Q25.3 39.95 22 41.3Q18.75 42.55 15.85 42.55L12.45 42L12.65 40.95L12.7 40.95L13.1 39.25L13.1 39.2L13.7 37.4L14.1 36.4L14.25 36.4L14.3 36.5L14.35 36.5L17.25 36.55Q20.15 35.95 20.5 34.4L21.5 34.7Q20.4 36.8 17.5 37.35Q15.9 37.55 14.45 37.35L14.35 37.65L14.05 39.2L13.95 39.5L13.65 41.3L20.15 40.9Q23.7 39.85 25.9 37.45Q28.05 35.05 28.55 33.25Q29 32.35 28.85 30.85Q28.75 29.3 27.45 24.2L27.4 23.95L24.4 12.95L22.4 5.95L21.7 6.25L21.8 6.1Q20 6.45 18.55 7.05Q18.35 7.3 18.55 7.75L19 9.3L19.7 11.6M1.8,24.4Q2.2 24 2.95 23.7Q3.45 23.45 4.05 23.35L6.2 23.15L7.75 23.4Q9.75 24.2 10.5 24.75L10.55 24.8L11.25 25.5L11.6 25.85L12.15 26.65L12.4 27.2L12.6 27.45L12.7 27.95L13 29.05L13.2 30.1L13.25 31.5L13.25 31.9L13.2 32.3L12.65 34.1L12.45 34.4L12.15 34.85L11.9 35.2L11.6 35.55L11.25 35.95Q9.95 36.8 9.1 37.05L8 37.3L6.2 37.4L5.6 37.4Q3.3 37.15 1.4 35.5Q-1 33.55 -1.05 30.25Q-1.1 28.7 -0.75 27.6L-0.5 27.05L0.5 25.15L1.8 24.4M0.35,28.3Q0.1 28.95 0 29.7Q-0.1 30.65 0.2 31.55Q0.85 34.25 3.45 35.7Q6.1 37 9.2 35.75Q12.35 34.4 12.35 30.7L12.35 30.6L12.35 29.8Q12.2 28.45 11.65 27.4L10.75 26.15L10.45 25.8Q8.65 24.35 6.1 24.4Q3.85 24.45 2.45 25.5Q1.7 25.95 1.4 26.35L1.1 26.9L0.35 28.3" />
<path style="fill:none;stroke-width:0.1;stroke-linecap:round;stroke-linejoin:round;stroke-miterlimit:3;stroke:#744517;stroke-opacity:1" d="M23.15,5.1L23.3 5.55Q24.8 10.2 26.7 17.65L28.85 26L29.1 27.05L29.85 30.35L29.85 30.85Q29.9 33.7 27.7 36.75Q25.3 39.95 22 41.3Q18.75 42.55 15.85 42.55L12.45 42M11.25,35.95Q9.95 36.8 9.1 37.05L8 37.3L6.2 37.4L5.6 37.4Q3.3 37.15 1.4 35.5Q-1 33.55 -1.05 30.25Q-1.1 28.7 -0.75 27.6L-0.5 27.05L0.5 25.15M1.8,24.4Q2.2 24 2.95 23.7Q3.45 23.45 4.05 23.35L6.2 23.15L7.75 23.4Q9.75 24.2 10.5 24.75L10.55 24.8L11.25 25.5L11.6 25.85L12.15 26.65L12.4 27.2L12.6 27.45L12.7 27.95L13 29.05L13.2 30.1L13.25 31.5L13.25 31.9L13.2 32.3L12.65 34.1M12.35,29.8Q12.2 28.45 11.65 27.4L10.75 26.15L10.45 25.8Q8.65 24.35 6.1 24.4Q3.85 24.45 2.45 25.5Q1.7 25.95 1.4 26.35L1.1 26.9M12.35,29.8L12.35 30.6L12.35 30.7Q12.35 34.4 9.2 35.75Q6.1 37 3.45 35.7Q0.85 34.25 0.2 31.55Q-0.1 30.65 0 29.7Q0.1 28.95 0.35 28.3L1.1 26.9M11.25,35.95L11.6 35.55L11.9 35.2L12.15 34.85L12.45 34.4L12.65 34.1M1.8,24.4L0.5 25.15" />
</g>
</svg>
