<?xml version="1.0" encoding="utf-8"?>
<svg version="1.1" id="Layer_1"
xmlns="http://www.w3.org/2000/svg"
xmlns:xlink="http://www.w3.org/1999/xlink"
xmlns:author="http://www.sothink.com"
width="50px" height="11px"
xml:space="preserve">
<g id="242" transform="matrix(1, 0, 0, 1, -33.05, -5.15)">
<path style="fill:#FFFFFF;fill-opacity:1" d="M82.75,8.3L82.75 8.5L82.7 8.65Q82.6 9.55 82 10.25Q81.45 10.95 80.6 11.25L78.9 11.45L78.9 11.85L78.9 12.4L78.9 13.35L78.95 15L78.9 15L78.2 15.1L77.35 15.1L76.55 15.05L76.5 12.05L76.5 8.7L76.45 5.4L78 5.2L79.65 5.25Q80.45 5.35 81.1 5.7L82.25 6.7L82.75 8.25L82.75 8.3M75.55,5.8L75.6 9.4L75.4 13.05Q75.25 13.95 74.7 14.6Q74.1 15.25 73.1 15.35L71.9 15.3L70.75 14.9L69.9 14.2Q69.55 13.75 69.5 13.1L69.55 9.35L69.55 5.65L70.55 5.6L71.55 5.7Q71.45 7.4 71.5 9.15L71.65 12.6L72 13.1L72.55 13.2L73.1 13L73.4 12.5L73.45 9.1L73.5 5.75L74.15 5.7L74.95 5.65L75.55 5.8M80.25,7.7Q79.9 7.4 79.45 7.35L78.55 7.35L78.5 7.4L78.5 8.45Q78.5 9.05 78.65 9.5L78.7 9.5L79.3 9.45L80 9.35L80.55 9.05L80.7 8.6L80.65 8.1L80.25 7.7M62,10.45L62 12.9L62 12.95L62.5 12.9L63.3 12.95L64.3 13L65.1 13L65.65 13L65.65 13.15L65.6 13.35L65.6 13.6L65.6 13.9L65.65 14.8L65.55 15.1L65.25 15.15L64.85 15.15L64 15.15L62.45 15.2L59.7 15.15L59.7 14.9L59.8 12.7L59.8 10.85L59.8 9.2L59.8 7.4L59.75 5.3L60.4 5.2L61.25 5.2L62 5.35L62 7.85L62 10.45M57.4,5.4L58.45 5.4L58.85 5.4L58.85 6.4L58.85 7.4L58.85 7.45L57.6 7.55L56.4 7.55L55.15 7.6L55.1 7.6L55.1 8.45L55.1 9.25L55.15 9.25L56 9.3L56.85 9.3L56.9 10.25L56.9 11.25L56.25 11.35L55.6 11.35L55.2 11.4Q55.1 11.85 55.15 12.35L55.2 13.15L55.2 13.2L57 13.25L58.9 13.25L58.9 13.3L58.9 14.2L58.75 15.1L55.85 15.15L53 15.1L52.95 10.3L53.05 5.5L54.45 5.45L56 5.4L57.4 5.4M52.25,5.55L51.55 8.8L50.8 11.95L49.95 15.15L49.55 15.15L49.05 15.2L48.4 15.15L47.9 15.1L46.85 10.45L46.25 5.6L46.6 5.45L47.2 5.4L47.85 5.4L48.25 5.45L48.3 6.35L48.4 7.9L48.55 9.8L48.95 12.05L49.5 9.35L49.85 7.2L50.2 5.5L50.2 5.45L50.25 5.45L51.25 5.5L52.25 5.55M42.65,5.4L44.05 5.4L45.1 5.4L45.5 5.4L45.5 6.4L45.5 7.4L45.5 7.45L44.25 7.55L43.05 7.55L41.8 7.6L41.75 7.6L41.75 8.45L41.75 9.25L41.8 9.25L42.65 9.3L43.5 9.3L43.55 10.25L43.55 11.25L42.9 11.35L42.25 11.35L41.85 11.4Q41.75 11.85 41.8 12.35L41.85 13.15L41.85 13.2L43.65 13.25L45.55 13.25L45.55 13.3L45.55 14.2L45.4 15.1L42.5 15.15L39.65 15.1L39.6 10.3L39.7 5.5L41.1 5.45L42.65 5.4M35.35,5.35L35.35 7.85L35.35 10.45L35.35 12.9L35.35 12.95L35.85 12.9L36.65 12.95L37.65 13L38.45 13L39 13L39 13.15L38.95 13.35L38.95 13.6L38.95 13.9L39 14.8L38.9 15.1L38.6 15.15L38.2 15.15L37.35 15.15L35.8 15.2L33.05 15.15L33.05 14.9L33.15 12.7L33.15 10.85L33.15 9.2L33.15 7.4L33.1 5.3L33.75 5.2L34.6 5.2L35.35 5.35" />
</g>
</svg>
