<?xml version="1.0" encoding="utf-8"?>
<svg version="1.1" id="Layer_1"
xmlns="http://www.w3.org/2000/svg"
xmlns:xlink="http://www.w3.org/1999/xlink"
xmlns:author="http://www.sothink.com"
width="50px" height="65px"
xml:space="preserve">
<g id="1921" transform="matrix(1, 0, 0, 1, 22.95, 20.65)">
<path style="fill:#79260B;fill-opacity:1" d="M13.75,26.25L13.8 26.95L13 27.05Q12.6 27.05 12 26.25L12.3 25.95Q12.6 25.65 12.95 25.65Q13.65 25.65 13.75 26.25M4.5,42.95L4.5 43.25L4.35 43.4L3.4 43.4L3.2 43.1L3.1 42.7Q3.1 42.15 3.65 42.15Q3.95 42.15 4.25 42.4L4.5 42.95" />
<path style="fill:#564B41;fill-opacity:1" d="M24.45,-8.6L22.4 -8.4Q19.9 -8.4 18.3 -10.35Q16.9 -12.1 16.9 -14.35Q16.9 -16.45 17.55 -18L19.5 -18.4Q22.25 -18.4 24.35 -15.7Q25.8 -13.85 26.1 -12.15L26.2 -11.5Q26.05 -9.3 24.45 -8.6M-10.4,-8L-10.4 -8.1L-10.05 -10.1L-9.45 -12.15L-9.1 -12.85L-6.35 -16.4Q-2.2 -20.65 1.65 -20.65L3.05 -20.5Q4.8 -17.7 4.8 -14.8Q4.8 -10.75 1 -8.1Q-2.25 -5.85 -5.9 -5.85Q-8.85 -5.85 -10.4 -7.95L-10.4 -8M-17.95,-3.95Q-15.75 -2.15 -15.75 1.45Q-15.75 5.45 -18.55 7.7L-18.85 7.95Q-20.45 9.1 -21.65 9.4L-21.9 9.05L-22.15 8.7Q-22.95 7.25 -22.95 5.35Q-22.95 2.15 -21.65 -0.5Q-20.3 -3.3 -17.95 -3.95M24.9,6.4L24.5 6.4Q22.5 6.4 20.15 4.85Q17.15 2.95 17.15 0.3Q17.15 -1.5 18.65 -2.75L20.25 -3.7Q22.3 -3.3 23.8 -2.05Q26.05 -0.1 26.05 3.1Q26.05 5.1 24.9 6.4M6.3,-4.3L7.3 -5.6Q8.55 -6.55 9.9 -6.55Q11.8 -6.55 12.65 -5.45Q13.35 -4.55 13.35 -3.05Q13.35 -1.05 11.85 -0.25Q10.8 0.35 9.35 0.35Q7.75 0.35 6.9 -1.2Q6.2 -2.45 6.2 -4.05L6.3 -4.3M21.4,11.6Q21.4 13.65 19.55 14.4L16.6 14.85Q14.9 14.85 13.85 14.1Q12.3 13 12.65 10.6Q12.9 9.45 13.8 8.65Q14.5 8 15.4 7.7L16.8 7.5L18.5 7.7Q19.95 8.05 20.7 9.2Q21.4 10.25 21.4 11.6M24.5,23.15Q25.05 24 25.05 26.05L24.75 28.2Q24.3 29.9 22.95 30.85Q21.6 31.85 20.25 31.85Q19.25 31.85 18.65 31.15L17.6 31.45Q16.7 31.45 16.1 31.05Q16.15 29.85 17.4 28.9Q18.65 27.9 19.6 27.9L20.1 27.95L20.55 28.5L20.25 27.9L20.15 26.45Q20.15 22.55 22.8 22.55L23.5 22.6L24.15 22.75L24.5 23.15M1.7,7.7L1.4 7.95Q-0.15 9.2 -3.15 9.2Q-6.45 9.2 -7.8 7.7Q-8.7 6.7 -8.7 5L-8.2 2.7L-8.1 2L-7.4 0Q-6.1 -2.6 -2.95 -2.6Q0 -2.6 1.7 -0.35Q3.1 1.5 3.1 3.95Q3.1 6.4 1.7 7.7M6.2,37.75Q6.8 37.25 7.9 36.9L10.15 36.5Q10 35.7 10.3 35.45Q10.55 35.1 11.6 35.1L13.4 35.35Q13.8 36.2 13.8 37.55Q13.8 40.6 9.85 40.6Q7.85 40.6 6.9 39.6Q6.2 38.85 6.2 37.75M1.85,36.15L2 37.15Q2 40.7 -0.05 40.7Q-2.8 40.7 -2.8 37.5L-2.65 36L-1 35.8L1.85 36.15" />
<path style="fill:#362F29;fill-opacity:1" d="M17.55,-18Q16.9 -16.45 16.9 -14.35Q16.9 -12.1 18.3 -10.35Q19.9 -8.4 22.4 -8.4L24.45 -8.6Q26.05 -9.3 26.2 -11.5L26.2 -11.4Q26.2 -8.2 23.95 -6.7Q22.25 -5.6 20.05 -5.6Q16.65 -5.6 15.05 -9.1Q14.1 -11.25 14.1 -13.2L14.5 -14.85Q15.7 -17.25 17.55 -18M7.9,-12.2Q7.9 -10.55 7.45 -9.05L8.85 -9.1Q11.4 -9.1 13.25 -7Q14.6 -5.4 14.85 -3.6L18.35 -3.9L20.25 -3.7L18.65 -2.75Q17.15 -1.5 17.15 0.3Q17.15 2.95 20.15 4.85Q22.5 6.4 24.5 6.4L24.9 6.4L23.8 7.25L22.75 7.7L22.6 7.8L23.3 9.05Q23.8 10.4 23.8 12.3Q23.8 15 21.8 16.25L20.6 16.8L20.45 16.85L19.7 17L19.7 17.4L19.5 17.5Q18.2 18.1 15.65 18.1Q12.65 18.1 9.9 15.4Q9.25 19.35 5.65 19.35Q3.05 19.35 0.8 17.8Q-1.65 16.15 -1.9 13.75Q-3.05 15 -4.8 15Q-7.5 15 -9.7 13.6L-11.65 12.45L-11.55 12.45L-12 12L-14.1 9.5Q-15.25 11.45 -17.85 11.45Q-19.75 11.45 -21.25 9.9L-21.65 9.4Q-20.45 9.1 -18.85 7.95L-18.55 7.7Q-15.75 5.45 -15.75 1.45Q-15.75 -2.15 -17.95 -3.95L-16.45 -4.15Q-14.7 -4.15 -14.05 -3.4Q-13.45 -2.6 -13.3 -1.65L-13.05 -0.4L-12.95 -0.1Q-11.3 -1.85 -9.2 -2.3Q-10.4 -4.7 -10.4 -7.95Q-8.85 -5.85 -5.9 -5.85Q-2.25 -5.85 1 -8.1Q4.8 -10.75 4.8 -14.8Q4.8 -17.7 3.05 -20.5Q7.9 -19.6 7.9 -12.2M6.2,-4.05Q6.2 -2.45 6.9 -1.2Q7.75 0.35 9.35 0.35Q10.8 0.35 11.85 -0.25Q13.35 -1.05 13.35 -3.05Q13.35 -4.55 12.65 -5.45Q11.8 -6.55 9.9 -6.55Q8.55 -6.55 7.3 -5.6L6.3 -4.3L6.2 -4.05M20.7,9.2Q19.95 8.05 18.5 7.7L16.8 7.5L15.4 7.7Q14.5 8 13.8 8.65Q12.9 9.45 12.65 10.6Q12.3 13 13.85 14.1Q14.9 14.85 16.6 14.85L19.55 14.4Q21.4 13.65 21.4 11.6Q21.4 10.25 20.7 9.2M15.5,30.45Q14.9 29.7 14.9 28.7Q14.9 27.3 16.05 26.35Q16.9 25.65 17.45 25.65L17.75 25.7Q17.75 24.7 18.45 24Q19.1 23.25 20.15 23.25L20.2 23.3L20.5 22.9Q21.15 22.3 22.65 22.3L23.8 22.5L24.15 22.75L23.5 22.6L22.8 22.55Q20.15 22.55 20.15 26.45L20.25 27.9L20.55 28.5L20.1 27.95L19.6 27.9Q18.65 27.9 17.4 28.9Q16.15 29.85 16.1 31.05L15.5 30.45M3.1,3.95Q3.1 1.5 1.7 -0.35Q0 -2.6 -2.95 -2.6Q-6.1 -2.6 -7.4 0L-8.1 2L-8.2 2.7L-8.7 5Q-8.7 6.7 -7.8 7.7Q-6.45 9.2 -3.15 9.2Q-0.15 9.2 1.4 7.95L1.7 7.7Q3.1 6.4 3.1 3.95M11.6,35.1Q10.55 35.1 10.3 35.45Q10 35.7 10.15 36.5L7.9 36.9Q6.8 37.25 6.2 37.75Q6.2 36.65 6.75 35.95Q7.3 35.25 8.15 35.25L8.5 35.25L8.85 34.95Q10.1 34.1 11.4 34.1Q12.6 34.1 13.25 35.1L13.4 35.35L11.6 35.1M-1,35.8L-2.65 36L-2.4 35.25Q-2 34.45 -1.1 34.15Q0.3 34.25 1 34.8Q1.65 35.25 1.85 36.15L-1 35.8" />
<path style="fill:#1E1915;fill-opacity:1" d="M-11.65,12.45L-9.7 13.6Q-7.5 15 -4.8 15Q-3.05 15 -1.9 13.75Q-1.65 16.15 0.8 17.8Q3.05 19.35 5.65 19.35Q9.25 19.35 9.9 15.4Q12.65 18.1 15.65 18.1Q18.2 18.1 19.5 17.5L19.7 17.4L19.7 17.45Q19.7 20.95 17.15 22.85Q15.1 24.4 12.4 24.4Q11.9 24.4 11.25 23.95L11.25 24.4Q11.25 27.3 10 29.05Q8.3 31.3 4.55 31.3Q2.45 31.3 1.1 30.25L0.1 31.85Q-0.95 33 -2.15 33Q-3.8 33 -4.8 31.7Q-5.6 30.6 -5.6 29.15L-5.6 28.6L-6.4 28.75Q-7.8 28.75 -8.85 27.9Q-10.25 26.8 -10.25 24.5L-10.1 22.95L-11.3 23.15Q-12.7 23.15 -13.95 22Q-15.45 20.6 -15.45 18.15Q-15.45 16.25 -14.75 14.7Q-13.75 12.45 -11.65 12.45M-17.3,24.7Q-17 24.95 -17 25.25L-17.05 25.5L-17.15 25.65L-18.15 25.65L-18.35 25.4L-18.45 24.95Q-18.45 24.4 -17.85 24.4Q-17.6 24.4 -17.3 24.7M-9.2,20.85L-9.15 20.75L-9.25 20.9L-9.2 20.85M-11.5,33.45L-11.55 33.45L-11.55 33.4Q-11.55 32.5 -11.1 31.85L-10.25 31.3Q-9.4 31.3 -9.4 32.5Q-9.4 33.85 -10.75 33.85L-11.5 33.45" />
</g>
</svg>
