<?xml version="1.0" encoding="utf-8"?>
<svg version="1.1" id="Layer_1"
xmlns="http://www.w3.org/2000/svg"
xmlns:xlink="http://www.w3.org/1999/xlink"
xmlns:author="http://www.sothink.com"
width="14px" height="15px"
xml:space="preserve">
<g id="386" transform="matrix(1, 0, 0, 1, 0, 0)">
<path style="fill:#9C753C;fill-opacity:1" d="M13.25,3.6Q13.4 6 11.5 8.7L8.85 12L7.5 13.3Q5.4 15.15 3.55 14.85Q2 14.55 1.2 13.9L0.85 13.6Q0.05 12.65 0 11.75Q-0.05 10.8 0.45 9.35Q0.65 8.3 1.5 6.75L2.35 5.45Q3.95 3 5.35 1.65Q6.75 0.35 8.05 0.1L10.7 0.35Q11.7 0.7 12.4 1.55Q13.15 2.45 13.25 3.6M1.6,8.8Q0.35 11.45 1.65 12.9L2.5 13.6L4.6 13.8Q6.15 13.25 7.65 11.8L8.35 11.1L10.45 8.65Q11.85 6.9 12.3 4.8Q12.7 2.6 10.9 1.65Q9 0.65 7.9 1.05Q6.9 1.35 5.8 2.45L3.9 4.75Q3.25 5.6 2.55 6.95L1.6 8.8" />
<path style="fill:#D0A15B;fill-opacity:1" d="M5.75,11.35L7.1 9.55L6.7 9.15Q4.85 7.5 2.55 6.95Q3.25 5.6 3.9 4.75L5.8 2.45Q6.9 1.35 7.9 1.05Q9 0.65 10.9 1.65Q12.7 2.6 12.3 4.8Q11.85 6.9 10.45 8.65L8.35 11.1L7.65 11.8Q6.15 13.25 4.6 13.8L2.5 13.6Q4.3 12.95 5.75 11.35" />
<path style="fill:#E9CB9E;fill-opacity:1" d="M2.55,6.95Q4.85 7.5 6.7 9.15L7.1 9.55L5.75 11.35Q4.3 12.95 2.5 13.6L1.65 12.9Q0.35 11.45 1.6 8.8L2.55 6.95" />
</g>
</svg>
