<?xml version="1.0" encoding="utf-8"?>
<svg version="1.1" id="Layer_1"
xmlns="http://www.w3.org/2000/svg"
xmlns:xlink="http://www.w3.org/1999/xlink"
xmlns:author="http://www.sothink.com"
width="58px" height="52px"
xml:space="preserve">
<g id="1537" transform="matrix(1, 0, 0, 1, -651.15, -217.9)">
<path style="fill:#06541C;fill-opacity:1" d="M708.9,243.95L708.15 244.9L677.1 269.15L675.65 269.6L674.4 268.9Q673.85 268.35 673.85 267.55L673.85 256.7L653.6 260.7L652.4 260.6L651.4 259.85Q651.05 259.35 651.15 258.7L651.35 228.9Q651.25 228.25 651.6 227.8L652.5 227.1L653.65 226.9L674.4 230.4L674.4 219.9Q674.4 219.05 674.95 218.55Q675.4 217.9 676.2 217.9Q677 217.8 677.65 218.25L708.15 241.7L708.9 242.75L708.9 243.95M678.45,232.75L678.1 233.95L677.2 234.65L676.1 234.75L655.4 231.3L655.2 256.25L675.45 252.2L676.65 252.3L677.55 253.1L677.9 254.2L677.9 263.4L703.55 243.3L678.45 224L678.45 232.75" />
<path style="fill:#55E27E;fill-opacity:1" d="M689.8,235.3Q687.55 231.15 682.65 229.25L681.85 229.5L681.5 229.8L681.5 229.95Q684.4 234.4 689.8 235.45L689.8 235.3M691.85,246.8Q686.75 248.25 681.05 246.2Q675.3 244 657.55 245.3L657.65 253.5Q678.9 247.45 679.7 251.15Q680.35 252.15 679.95 258.7L688.35 252.65Q694.2 248.15 701.25 243.75L691.85 246.8M659.9,234.1L660.05 234.2L659.55 234.2Q658.8 234.4 659.25 234.55Q665.65 237.7 672.4 237.35L678.1 236.8L678.1 236.7Q669.45 234.55 660.15 233.75Q659.45 233.95 659.9 234.1M678.45,224L703.55 243.3L677.9 263.4L677.9 254.2L677.55 253.1L676.65 252.3L675.45 252.2L655.2 256.25L655.4 231.3L676.1 234.75L677.2 234.65L678.1 233.95L678.45 232.75L678.45 224" />
<path style="fill:#C5FAD4;fill-opacity:1" d="M689.8,235.45Q684.4 234.4 681.5 229.95L681.5 229.8L681.85 229.5L682.65 229.25Q687.55 231.15 689.8 235.3L689.8 235.45M660.15,233.75Q669.45 234.55 678.1 236.7L678.1 236.8L672.4 237.35Q665.65 237.7 659.25 234.55Q658.8 234.4 659.55 234.2L660.05 234.2L659.9 234.1Q659.45 233.95 660.15 233.75" />
<path style="fill:#199A3E;fill-opacity:1" d="M701.25,243.75Q694.2 248.15 688.35 252.65L679.95 258.7Q680.35 252.15 679.7 251.15Q678.9 247.45 657.65 253.5L657.55 245.3Q675.3 244 681.05 246.2Q686.75 248.25 691.85 246.8L701.25 243.75" />
</g>
</svg>
