<?xml version="1.0" encoding="utf-8"?>
<svg version="1.1" id="Layer_1"
xmlns="http://www.w3.org/2000/svg"
xmlns:xlink="http://www.w3.org/1999/xlink"
xmlns:author="http://www.sothink.com"
width="44px" height="90px"
xml:space="preserve">
<g id="648" transform="matrix(1, 0, 0, 1, 0, -9.5)">
<path style="fill:#412035;fill-opacity:1" d="M29.65,83.05L30.4 82.55Q31.75 81.7 33.1 81.15Q33.35 82.4 32.65 83.35L32.6 83.3L30.85 84.6L29.65 83.05M24,79.9L24.9 80.3L23.75 80.1L24 79.9" />
<path style="fill:#B8373B;fill-opacity:1" d="M5.8,38.95Q4.75 38 3.95 36.55L3.4 35.3L3.45 37.45Q2.25 35.15 1.45 31.8Q1.65 29.25 2.35 27L2.4 26.95L2.5 26.55L2.5 26.5L2.55 26.35L2.7 26L2.8 27.65Q4.15 35.85 7.7 36.3L8.75 36.05Q9.9 35.45 10.6 33.8Q11.7 30.1 12.7 27.9L13.3 26.8Q13.05 30.95 14.1 34.3L14.5 35.45L13.8 38.1L13.3 39.45Q8.95 41.75 5.8 38.95M24.3,86.8Q24.2 85.45 23.55 85.05L22.9 84.9Q21 86.3 20.85 88.8L20.1 89.65L19.3 90.6Q19.15 89.3 19.4 87.8Q19.55 86.35 20.2 85L20.6 84.6Q22.15 83.2 23.7 83.15Q25.2 83.1 26.6 84.3L27.3 85Q26 86.85 25.25 89.05L24.55 88.5L24.3 88.3L24.3 86.8" />
<path style="fill:#F78348;fill-opacity:1" d="M13.75,22.95L13.45 25L13.3 26.8L12.7 27.9Q11.7 30.1 10.6 33.8Q9.9 35.45 8.75 36.05L7.7 36.3Q4.15 35.85 2.8 27.65L2.7 26L3.4 24.25L4.35 22.15Q4.3 23.45 4.4 24.4L4.8 26.55Q5 27.75 5.6 29.05Q6.2 30.35 7.4 30.35Q8.55 30.3 9.3 29.2L11.65 24.55Q13.25 21 15 18.6Q14.25 20.35 13.75 22.95M20.1,89.65L20.85 88.8Q20.8 89.75 21.05 91Q21.5 93.05 22.4 94Q22.85 94.8 23.65 91.6L24.3 88.3L24.55 88.5L25.25 89.05Q24.3 91.55 24.05 94.45Q23.95 95.65 24 96.8Q23.45 97.1 22.65 96.6Q21.7 96.05 20.85 94.75Q19.95 93.4 19.5 91.75L19.3 90.6L20.1 89.65" />
<path style="fill:#FFB46D;fill-opacity:1" d="M11.65,24.55L9.3 29.2Q8.55 30.3 7.4 30.35Q6.2 30.35 5.6 29.05Q5 27.75 4.8 26.55L4.4 24.4Q4.3 23.45 4.35 22.15L5.15 20.8Q6.65 18.3 8.7 16.3L10.2 14.95L10.35 14.85Q12.95 12.7 15.25 11.65Q16.9 10.9 18.25 10.85Q19.65 10.75 18.95 11.7L17.3 14.2Q16.15 15.95 15 18.6Q13.25 21 11.65 24.55M9.15,21.8L12.4 17.9L14.75 14.25Q15.25 13.05 13 14.45Q10.7 15.75 9 18.3Q7.25 20.85 7.5 22.05Q7.75 23.2 9.15 21.8" />
<path style="fill:#FF4715;fill-opacity:1" d="M2.45,23.05L2.55 22.85L2.55 22.8L2.55 22.75Q3.65 20.45 5 18.6Q4.45 20.35 4.35 22.15L3.4 24.25L2.7 26L2.45 23.05M13.3,26.8L13.45 25L13.75 22.95Q14.25 20.35 15 18.6Q16.95 15.9 18.5 15.15L17.25 17.35L17.2 17.4Q16.35 19.15 15.45 22.4L15.05 24.6Q14.05 25.45 13.3 26.8M24.1,98.7Q23.15 98.85 21.9 98Q19.15 96.1 18.2 92.75L19.3 90.6L19.5 91.75Q19.95 93.4 20.85 94.75Q21.7 96.05 22.65 96.6Q23.45 97.1 24 96.8L24.1 98.7" />
<path style="fill:#9A1318;fill-opacity:1" d="M1.3,31.05L0.95 27.2Q1.55 24.85 2.45 22.95L2.45 23.05L2.7 26L2.55 26.35L2.5 26.5L2.5 26.55L2.4 26.95L2.35 27Q1.65 29.25 1.45 31.8L1.3 31.05M15.25,32.6L14.5 35.45L14.1 34.3Q13.05 30.95 13.3 26.8Q14.05 25.45 15.05 24.6Q14.7 26.85 14.95 29.55L15 30.05L15.35 32.35L15.25 32.6M18.2,92.75L18.1 92.5Q17.35 89.75 17.8 87.4L20.2 85Q19.55 86.35 19.4 87.8Q19.15 89.3 19.3 90.6L18.2 92.75" />
<path style="fill:#640B2A;fill-opacity:1" d="M2.45,23.05L2.45 22.95L2.55 22.85L2.45 23.05" />
<path style="fill:#FFEBBD;fill-opacity:1" d="M7.5,22.05Q7.25 20.85 9 18.3Q10.7 15.75 13 14.45Q15.25 13.05 14.75 14.25L12.4 17.9L9.15 21.8Q7.75 23.2 7.5 22.05" />
<path style="fill:#EC7941;fill-opacity:1" d="M5,18.6L5.9 17.35L6.45 16.75Q8.2 14.7 10.7 12.8Q13.6 10.6 16.05 9.95L16.65 9.8L19.3 9.55Q20.1 9.75 20.6 10.25Q21.05 10.7 20.55 11.75L20.2 12.45L19.05 14.25L18.5 15.15Q16.95 15.9 15 18.6Q16.15 15.95 17.3 14.2L18.95 11.7Q19.65 10.75 18.25 10.85Q16.9 10.9 15.25 11.65Q12.95 12.7 10.35 14.85L10.2 14.95L8.7 16.3Q6.65 18.3 5.15 20.8L4.35 22.15Q4.45 20.35 5 18.6" />
<path style="fill:#9F2529;fill-opacity:1" d="M3.45,37.45L3.4 35.3L3.95 36.55Q4.75 38 5.8 38.95Q8.95 41.75 13.3 39.45Q12.5 41.05 11.25 41.6L8.2 41.7Q5.3 40.9 3.45 37.45M25.25,89.05Q26 86.85 27.3 85L27.65 85.4L28.5 86.65Q27.45 87.7 26.9 88.9L26.4 90.05L25.25 89.05" />
<path style="fill:#E26165;fill-opacity:1" d="M20.85,88.8Q21 86.3 22.9 84.9L23.55 85.05Q24.2 85.45 24.3 86.8L24.3 88.3L21.75 88.2Q21.2 88.45 20.85 88.8" />
<path style="fill:#7E0C10;fill-opacity:1" d="M26.4,90.1L26.4 90.05L26.9 88.9Q27.45 87.7 28.5 86.65L29.45 88.4L28.85 89.25L28.6 89.7Q27.95 90.35 27.65 91.4L26.4 90.1" />
<path style="fill:#FFA97E;fill-opacity:1" d="M21.75,88.2L24.3 88.3L23.65 91.6Q22.85 94.8 22.4 94Q21.5 93.05 21.05 91Q20.8 89.75 20.85 88.8Q21.2 88.45 21.75 88.2" />
<path style="fill:#D23409;fill-opacity:1" d="M24,96.8L24.1 96.7Q24.65 96.2 25.1 94.3Q25.35 93.05 25.95 91.35Q26 90.8 26.4 90.05L26.4 90.1L27.65 91.4L27.5 91.85L27.35 92.4L27.05 93.25Q26.35 94.9 25.8 96.75Q25.2 98.5 24.1 98.7L24 96.8" />
<path style="fill:#E06B2F;fill-opacity:1" d="M24,96.8Q23.95 95.65 24.05 94.45Q24.3 91.55 25.25 89.05L26.4 90.05Q26 90.8 25.95 91.35Q25.35 93.05 25.1 94.3Q24.65 96.2 24.1 96.7L24 96.8" />
<path style="fill:#4D1818;fill-opacity:1" d="M24.9,80.3L24 79.9Q25.35 78.7 26.7 78.1Q28 77.5 29.2 77.55Q30.35 77.6 31.3 78.05Q32.2 78.5 32.9 80.5L33.1 81.15Q31.75 81.7 30.4 82.55L29.65 83.05Q27.75 80.95 24.9 80.3" />
<path style="fill:#6B1919;fill-opacity:1" d="M15.7,44.15Q14.95 45.85 11.9 46.95Q9.05 47.7 6.2 45.85L6.15 45.75Q4.25 42.45 3.5 38.15L3.45 37.45Q5.3 40.9 8.2 41.7L11.25 41.6Q12.5 41.05 13.3 39.45L14 39Q15.1 40.9 16.3 42.25L15.7 44.15" />
<path style="fill:#8C2626;fill-opacity:1" d="M16.3,42.25Q15.1 40.9 14 39L13.3 39.45L13.8 38.1L14.5 35.45L14.85 36.25Q15.5 37.65 16.3 38.7Q16.6 40.6 16.3 42.25M4.4,44.4L3.1 43L2.65 41.9Q1.3 38.45 1.4 33.65L1.45 31.8Q2.25 35.15 3.45 37.45L3.5 38.15Q4.25 42.45 6.15 45.75L6.2 45.85L4.4 44.4" />
<path style="fill:#A82323;fill-opacity:1" d="M26.6,84.3Q25.2 83.1 23.7 83.15Q22.15 83.2 20.6 84.6L20.2 85L21.15 83.25L22.85 81L23.75 80.1L24.9 80.3Q26.7 81.2 27.7 82.4L28.65 83.8L27.3 85L26.6 84.3" />
<path style="fill:#951717;fill-opacity:1" d="M27.65,85.4L27.3 85L28.65 83.8L27.7 82.4Q26.7 81.2 24.9 80.3Q27.75 80.95 29.65 83.05L30.85 84.6L28.5 86.65L27.65 85.4" />
<path style="fill:#740B0F;fill-opacity:1" d="M3.1,43L0.45 39.9L0.1 37.25Q-0.2 32.95 0.3 30.05Q0.55 28.55 0.95 27.2L1.3 31.05L1.45 31.8L1.4 33.65Q1.3 38.45 2.65 41.9L3.1 43M15.35,32.35L16.05 34.8Q16 37.6 16.3 38.7Q15.5 37.65 14.85 36.25L14.5 35.45L15.25 32.6L15.35 32.35M20.2,85L17.8 87.4Q17.9 86.7 18.15 86.05Q19 83.4 20.45 81.5L20.7 81.15L21.65 80L23.75 80.1L22.85 81L21.15 83.25L20.2 85" />
<path style="fill:#150808;fill-opacity:1" d="M3.1,43Q3.95 45.35 6 47.75Q8.05 50.15 10.9 51.75Q13.7 53.25 18.9 53.7L22.2 53.65Q25.95 53.25 30.1 51.3Q35 48.95 37.45 46.15L38.45 44.9Q40.75 41.3 40.9 39.15Q42.3 34.25 41.45 30.75Q40.55 27.25 38.95 25.75Q38.2 25.05 37.45 24.65Q36.45 24.1 35.4 23.9L31.55 24Q29.55 24.35 27.1 26L26.5 26.4Q24.35 27.95 22.45 30.5Q20.25 33.4 18.75 38.65Q19.15 39.7 20.8 40.25Q22.45 40.8 19.75 40.85Q17.8 40.85 16.3 38.7Q16 37.6 16.05 34.8Q16.6 36.4 17.5 37.8Q19.1 31.8 22.6 28.1L25.2 25.7Q27.45 23.85 29.9 23L37.3 22.8L37.45 22.85Q40.9 24.05 42.5 30.25Q44.05 36.6 41.85 41.6L39.65 45.25L37.45 48.15Q36.4 49.45 33.8 51.35Q31.2 53.25 25.95 54.55Q20.7 55.8 15.25 54.7Q9.8 53.55 6.7 50.5Q3.55 47.4 1.95 44.1Q0.9 42 0.45 39.9L3.1 43M21.65,80L22.35 79.25L23.8 78L26.75 76.35Q28.1 75.8 29.85 75.9Q31.5 76 32.7 77.35Q33.85 78.6 34.3 80.65L34.35 80.75Q34.8 82.85 34.4 83.9L33.6 84.95L33.6 85L32.35 86L32.35 85.95L31.75 86.3L31.65 86.4Q30.35 87.2 29.45 88.4L28.5 86.65L30.85 84.6L32.6 83.3L32.65 83.35Q33.35 82.4 33.1 81.15L32.9 80.5Q32.2 78.5 31.3 78.05Q30.35 77.6 29.2 77.55Q28 77.5 26.7 78.1Q25.35 78.7 24 79.9L23.75 80.1L21.65 80" />
<path style="fill:#1E161A;fill-opacity:1" d="M6.2,45.85Q9.05 47.7 11.9 46.95Q14.95 45.85 15.7 44.15L16.3 42.25Q21.2 47.35 26.4 45.65Q30.95 44.45 33.05 37.75Q35.1 31 26.5 26.4L27.1 26Q29.55 24.35 31.55 24L35.4 23.9Q36.45 24.1 37.45 24.65Q38.2 25.05 38.95 25.75Q40.55 27.25 41.45 30.75Q42.3 34.25 40.9 39.15Q40.75 41.3 38.45 44.9L37.45 46.15Q35 48.95 30.1 51.3Q25.95 53.25 22.2 53.65Q11.15 54.15 6.2 45.85" />
<path style="fill:#2A1F24;fill-opacity:1" d="M33.05,37.75Q30.95 44.45 26.4 45.65Q21.2 47.35 16.3 42.25Q16.6 40.6 16.3 38.7Q17.8 40.85 19.75 40.85Q22.45 40.8 20.8 40.25Q19.15 39.7 18.75 38.65Q20.25 33.4 22.45 30.5Q24.35 27.95 26.5 26.4Q35.1 31 33.05 37.75M22.2,53.65L18.9 53.7Q13.7 53.25 10.9 51.75Q8.05 50.15 6 47.75Q3.95 45.35 3.1 43L4.4 44.4L6.2 45.85Q11.15 54.15 22.2 53.65" />
</g>
</svg>
