<?xml version="1.0" encoding="utf-8"?>
<svg version="1.1" id="Layer_1"
xmlns="http://www.w3.org/2000/svg"
xmlns:xlink="http://www.w3.org/1999/xlink"
xmlns:author="http://www.sothink.com"
width="118px" height="39px"
xml:space="preserve">
<g id="439" transform="matrix(1, 0, 0, 1, -10.55, 17)">
<linearGradient
id="LinearGradID_605" gradientUnits="userSpaceOnUse" gradientTransform="matrix(0, 0.00823975, -0.00872803, 0, 18.5, 6.8)" spreadMethod ="pad" x1="-819.2" y1="0" x2="819.2" y2="0" >
<stop  offset="0" style="stop-color:#FFF980;stop-opacity:1" />
<stop  offset="1" style="stop-color:#E7950A;stop-opacity:1" />
</linearGradient>
<path style="fill:url(#LinearGradID_605) " d="M60.2,-0.05Q61.55 1.25 62.7 -0.15L62.7 -0.3Q62.85 -1.9 61.05 -1.55Q60.5 -1.45 60.3 -0.8L60.2 -0.05M60,-2.8L61.55 -3.15L70.75 -3.15Q72.05 -3.15 72.65 -2.5L72.7 -2.45Q73.4 -1.85 73.4 -0.8Q73.4 0.2 72.7 0.9L72.65 0.95Q72.05 1.55 70.75 1.55L63.9 1.55L63.9 3.75L70.1 3.75Q71.35 3.75 71.95 4.4L72 4.45Q72.7 5.1 72.7 6.05Q72.7 7.05 72 7.75Q71.45 8.4 70.1 8.4L63.9 8.4L63.9 11.3L71 11.3Q72.3 11.3 72.9 11.9L72.95 11.95Q73.65 12.6 73.65 13.7Q73.65 14.7 72.95 15.4L72.9 15.45Q72.3 16.05 71 16.05L61.55 16.05Q59.85 16.05 59.2 15.25L59.25 15.25Q58.45 14.55 58.45 12.9L58.45 0Q58.45 -1 58.75 -1.6L58.75 -1.55Q59.05 -2.4 59.9 -2.75L60 -2.8M71.3,-2.05Q69.3 0.45 72.95 -0.5L72.9 -0.7Q72.65 -1.85 71.3 -2.05" />
<path style="fill:#FFFFFF;fill-opacity:1" d="M60.3,-0.8Q60.5 -1.45 61.05 -1.55Q62.85 -1.9 62.7 -0.3L62.7 -0.15Q61.55 1.25 60.2 -0.05L60.3 -0.8M72.9,-0.7L72.95 -0.5Q69.3 0.45 71.3 -2.05Q72.65 -1.85 72.9 -0.7" />
<linearGradient
id="LinearGradID_606" gradientUnits="userSpaceOnUse" gradientTransform="matrix(0, 0.00823975, -0.00872803, 0, 18.5, 1.4)" spreadMethod ="pad" x1="-819.2" y1="0" x2="819.2" y2="0" >
<stop  offset="0" style="stop-color:#FFF980;stop-opacity:1" />
<stop  offset="1" style="stop-color:#E7950A;stop-opacity:1" />
</linearGradient>
<path style="fill:url(#LinearGradID_606) " d="M76.55,-6.95Q76 -6.95 76.2 -6.45Q77.1 -4.25 78.95 -6.1L78.85 -6.3Q78.15 -7.45 76.55 -6.95M77.1,-8.8Q78.25 -8.8 79.05 -8Q79.85 -7.3 79.85 -5.7L79.85 5.8L85.9 5.8Q87.2 5.8 87.9 6.45Q88.65 7.15 88.65 8.25Q88.65 9.3 87.9 10Q87.2 10.65 85.9 10.65L77.5 10.65Q75.85 10.65 75.15 9.85Q74.35 9.15 74.35 7.5L74.35 -5.7Q74.35 -7.2 75.1 -7.95Q75.8 -8.8 77.1 -8.8" />
<path style="fill:#FFFFFF;fill-opacity:1" d="M78.85,-6.3L78.95 -6.1Q77.1 -4.25 76.2 -6.45Q76 -6.95 76.55 -6.95Q78.15 -7.45 78.85 -6.3" />
<linearGradient
id="LinearGradID_607" gradientUnits="userSpaceOnUse" gradientTransform="matrix(0, 0.00823975, -0.00872803, 0, 18.5, -6.8)" spreadMethod ="pad" x1="-819.2" y1="0" x2="819.2" y2="0" >
<stop  offset="0" style="stop-color:#FFF980;stop-opacity:1" />
<stop  offset="1" style="stop-color:#E7950A;stop-opacity:1" />
</linearGradient>
<path style="fill:url(#LinearGradID_607) " d="M96.2,-13.9L98.5 -13.85L98.6 -14.05Q98.95 -15.15 98.05 -15.65Q96.15 -15.65 96.2 -13.9M95.7,-16.15Q96.45 -17 97.65 -17Q99 -17 99.7 -16.15Q100.45 -15.4 100.45 -13.9L100.45 -5.45Q100.45 -4.2 100.7 -3.35Q100.9 -2.75 101.45 -2.4L101.5 -2.35Q102.1 -2 103.2 -2Q104.65 -2 105.25 -2.7Q105.9 -3.6 105.9 -5.4L105.9 -13.9Q105.9 -15.45 106.65 -16.15L106.7 -16.2Q107.4 -17 108.65 -17Q109.9 -17 110.6 -16.2L110.65 -16.15Q111.4 -15.45 111.4 -13.9L111.4 -5.65Q111.4 -3.5 110.95 -2Q110.5 -0.4 109.2 0.85Q108.1 1.85 106.65 2.3L103.45 2.75L99.75 2.25L99.8 2.3Q98.05 1.8 97 0.7Q95.95 -0.35 95.4 -2Q94.95 -3.55 94.95 -5.65L94.95 -13.9Q94.95 -15.4 95.7 -16.15M107.7,-14.4Q108.55 -12.25 110.85 -13.55L110.9 -13.75Q110.85 -15.55 108.8 -15.4L108.05 -15.1Q107.6 -14.9 107.7 -14.4" />
<path style="fill:#FFFFFF;fill-opacity:1" d="M98.05,-15.65Q98.95 -15.15 98.6 -14.05L98.5 -13.85L96.2 -13.9Q96.15 -15.65 98.05 -15.65M108.05,-15.1L108.8 -15.4Q110.85 -15.55 110.9 -13.75L110.85 -13.55Q108.55 -12.25 107.7 -14.4Q107.6 -14.9 108.05 -15.1" />
<linearGradient
id="LinearGradID_608" gradientUnits="userSpaceOnUse" gradientTransform="matrix(0, 0.00823975, -0.00872803, 0, 18.5, 1.1)" spreadMethod ="pad" x1="-819.2" y1="0" x2="819.2" y2="0" >
<stop  offset="0" style="stop-color:#FFF980;stop-opacity:1" />
<stop  offset="1" style="stop-color:#E7950A;stop-opacity:1" />
</linearGradient>
<path style="fill:url(#LinearGradID_608) " d="M116.4,-8.85L120.85 -8.85L124.15 -8.45Q125.4 -8.15 126.35 -7.3L126.4 -7.25L127.85 -5.3L127.85 -5.25Q128.3 -4.1 128.3 -2.65Q128.3 0.45 126.3 2.1Q124.5 3.65 120.85 3.65L118.65 3.65L118.65 7.5Q118.65 9 117.9 9.8Q117.1 10.65 115.9 10.65Q114.7 10.65 113.9 9.8Q113.2 9.05 113.2 7.55L113.2 -5.7Q113.2 -7.35 114 -8.05L114.05 -8.1Q114.8 -8.85 116.4 -8.85M118.65,-4.2L118.65 -0.95L120 -0.95L121.75 -1.15L122.5 -1.65L122.75 -2.6Q122.75 -3.3 122.4 -3.75L120 -4.2L118.65 -4.2M117.35,-5.4Q117.8 -6.75 116.55 -7Q114.65 -7.05 114.95 -5.25L117.25 -5.2L117.35 -5.4M124,-6.75Q123.65 -4.05 126.55 -4.85L126.6 -5.05Q126.7 -7.3 124.3 -7Q124.05 -7 124 -6.75" />
<path style="fill:#FFFFFF;fill-opacity:1" d="M117.25,-5.2L114.95 -5.25Q114.65 -7.05 116.55 -7Q117.8 -6.75 117.35 -5.4L117.25 -5.2M124.3,-7Q126.7 -7.3 126.6 -5.05L126.55 -4.85Q123.65 -4.05 124 -6.75Q124.05 -7 124.3 -7" />
<linearGradient
id="LinearGradID_609" gradientUnits="userSpaceOnUse" gradientTransform="matrix(0, 0.00823975, -0.00872803, 0, 17.7, 12.25)" spreadMethod ="pad" x1="-819.2" y1="0" x2="819.2" y2="0" >
<stop  offset="0" style="stop-color:#FFF980;stop-opacity:1" />
<stop  offset="1" style="stop-color:#E7950A;stop-opacity:1" />
</linearGradient>
<path style="fill:url(#LinearGradID_609) " d="M24.1,20.85Q23.4 21.5 22.1 21.5L13.7 21.5Q12.05 21.5 11.35 20.7Q10.55 20 10.55 18.35L10.55 5.15Q10.55 3.65 11.3 2.9Q12 2.05 13.3 2.05Q14.45 2.05 15.25 2.85Q16.05 3.55 16.05 5.15L16.05 16.65L22.1 16.65Q23.4 16.65 24.1 17.3Q24.85 18 24.85 19.1Q24.85 20.15 24.1 20.85M12.2,5.55L13.1 6.1Q13.75 6.35 14.25 5.9Q14.75 5.45 14.7 4.75L14.5 4.2L14.3 4.05L12.75 3.9Q12.1 3.95 12.1 4.65L12.2 5.55" />
<path style="fill:#FFFFFF;fill-opacity:1" d="M12.1,4.65Q12.1 3.95 12.75 3.9L14.3 4.05L14.5 4.2L14.7 4.75Q14.75 5.45 14.25 5.9Q13.75 6.35 13.1 6.1L12.2 5.55L12.1 4.65" />
<linearGradient
id="LinearGradID_610" gradientUnits="userSpaceOnUse" gradientTransform="matrix(0, 0.00688171, -0.00872803, 0, 18.5, 13.85)" spreadMethod ="pad" x1="-819.2" y1="0" x2="819.2" y2="0" >
<stop  offset="0" style="stop-color:#FFF980;stop-opacity:1" />
<stop  offset="1" style="stop-color:#E7950A;stop-opacity:1" />
</linearGradient>
<path style="fill:url(#LinearGradID_610) " d="M56.5,5.6L57.5 6.4L57.5 6.45L57.8 7.45L57.75 8.05L57.55 8.7L57.45 8.85L57.3 9.15L53.15 18.55L53.15 18.5L52.7 19.65L52.7 19.6L52.1 20.6L51 21.45L49.3 21.8L47.55 21.45L46.5 20.6L45.85 19.55L45.4 18.5L45.4 18.55L41.3 9.25L41.15 8.8L40.9 8.1Q40.6 7.45 40.9 6.8Q41.1 6.3 41.55 5.95L41.6 5.9Q42.35 5.3 43.45 5.3Q45 5.3 45.55 6.2L46.4 7.8L49.35 15.05L52.3 7.75L52.8 6.55Q53 6.1 53.55 5.75L53.65 5.7Q54.15 5.3 55.2 5.3L56.45 5.55L56.5 5.6M54.1,7.3L54.25 8.05L54.45 8.15L57.1 8L57.15 7.8Q57.05 6.2 54.8 6.45Q54.05 6.5 54.1 7.3M41.95,7.8L44.55 7.9L44.6 7.75Q44.9 6 42.55 6Q42.05 6 41.8 6.5Q41.4 7.2 41.95 7.8" />
<path style="fill:#FFFFFF;fill-opacity:1" d="M54.8,6.45Q57.05 6.2 57.15 7.8L57.1 8L54.45 8.15L54.25 8.05L54.1 7.3Q54.05 6.5 54.8 6.45M41.8,6.5Q42.05 6 42.55 6Q44.9 6 44.6 7.75L44.55 7.9L41.95 7.8Q41.4 7.2 41.8 6.5" />
<linearGradient
id="LinearGradID_611" gradientUnits="userSpaceOnUse" gradientTransform="matrix(0, 0.00823975, -0.00872803, 0, 17.7, 12.25)" spreadMethod ="pad" x1="-819.2" y1="0" x2="819.2" y2="0" >
<stop  offset="0" style="stop-color:#FFF980;stop-opacity:1" />
<stop  offset="1" style="stop-color:#E7950A;stop-opacity:1" />
</linearGradient>
<path style="fill:url(#LinearGradID_611) " d="M39.4,3Q39.7 3.25 39.85 4.35Q39.75 6 39.4 6.35L39.35 6.4Q38.75 7 37.45 7L30.6 7L30.6 9.2L36.8 9.2Q38.05 9.2 38.65 9.85L38.7 9.9Q39.4 10.55 39.4 11.5Q39.4 12.5 38.7 13.2Q38.15 13.85 36.8 13.85L30.6 13.85L30.6 16.75L37.7 16.75Q39 16.75 39.6 17.35L39.65 17.4L40.1 18L40.35 19.15L40.1 20.25L39.65 20.85L39.6 20.9Q39 21.5 37.7 21.5L28.25 21.5Q26.55 21.5 25.9 20.7L25.95 20.7Q25.15 20 25.15 18.35L25.15 5.45Q25.15 4.45 25.45 3.85L25.45 3.9Q25.75 3.05 26.6 2.7L26.7 2.65Q27.3 2.3 28.25 2.3L37.45 2.3Q38.75 2.3 39.35 2.95L39.4 3M36.5,3.85Q35.85 6.2 38.7 5.7L38.8 5.5L39.1 4.75L39.15 4.4L39 4.2Q38 3.45 36.75 3.65L36.5 3.85M27.75,5.9L28 5.8Q30.25 4.35 28 3.65L27.75 3.7Q27.25 3.9 26.9 4.25L26.9 4.6Q27 5.55 27.75 5.9" />
<path style="fill:#FFFFFF;fill-opacity:1" d="M36.75,3.65Q38 3.45 39 4.2L39.15 4.4L39.1 4.75L38.8 5.5L38.7 5.7Q35.85 6.2 36.5 3.85L36.75 3.65M26.9,4.6L26.9 4.25Q27.25 3.9 27.75 3.7L28 3.65Q30.25 4.35 28 5.8L27.75 5.9Q27 5.55 26.9 4.6" />
</g>
</svg>
