<?xml version="1.0" encoding="utf-8"?>
<svg version="1.1" id="Layer_1"
xmlns="http://www.w3.org/2000/svg"
xmlns:xlink="http://www.w3.org/1999/xlink"
xmlns:author="http://www.sothink.com"
width="412px" height="632px"
xml:space="preserve">
<g id="3001" transform="matrix(1, 0, 0, 1, -1016.8, 740)">
<path style="fill:#FFFFFF;fill-opacity:0.34902" d="M1335.3,-647.3Q1339.4 -642.2 1339.3 -634.8Q1339.15 -624.3 1328.85 -628.85Q1326.6 -629.85 1326.05 -631.6Q1322.3 -644.1 1335.15 -647.3L1335.3 -647.3M1390.4,-655.45L1392 -662.15Q1397.85 -656.1 1399.25 -647.1Q1401.2 -634.45 1397.55 -623.65Q1393.4 -622.95 1391.5 -626.4Q1387.1 -634.3 1388.3 -644.75Q1388.95 -650.25 1390.4 -655.45M1389.1,-310.65L1404.55 -271.2Q1407.25 -264.2 1411.45 -258.1Q1422.55 -242 1427.7 -224Q1428.95 -219.75 1425.5 -220.25Q1402.55 -240.8 1391 -269.7Q1388.55 -275.75 1386.8 -274.7L1384.9 -272.1Q1383.6 -269.75 1382.1 -267.55Q1380.35 -264.8 1379.05 -261.95Q1376.6 -256.6 1371.75 -256.15Q1360.05 -255.1 1354.15 -265.85Q1351.35 -271 1349.65 -276.45Q1348.35 -280.75 1347.65 -285.3Q1352.15 -288.7 1361.1 -290.4Q1363.15 -290.8 1363.7 -291.75Q1365.3 -294.5 1365.3 -298.25Q1365.3 -302.6 1366.1 -306.75L1366.7 -309.55Q1367.9 -314.55 1371.45 -316.15Q1372.85 -316.8 1373.45 -318.25Q1374.85 -321.65 1378.2 -321.5Q1382.7 -321.3 1386.1 -316.3Q1387.9 -313.7 1389.1 -310.65M1147.35,-730.5L1148.75 -733.6Q1149.25 -735 1150.45 -736.1L1151.9 -737.8Q1152.45 -738.75 1152.45 -740Q1158.25 -737.1 1161.4 -729Q1168.3 -711.05 1167.55 -690.5Q1166.7 -665.7 1175.9 -643.35Q1180.05 -633.3 1181.2 -622.5Q1181.5 -619.9 1182.35 -617.4L1182.55 -616.25Q1186.55 -616.4 1188.4 -625.05Q1190.1 -633.05 1193.55 -640.9L1195.45 -644.7Q1198.65 -643.45 1198.9 -637.2Q1199.75 -614.35 1200.05 -591.5Q1200.3 -574.3 1191.15 -563Q1184.15 -567.45 1181.05 -574.45Q1179.05 -578.9 1175.3 -581.75Q1173.95 -582.8 1172.05 -582.1Q1170.75 -581.55 1169.75 -580.3Q1166.45 -576 1166.45 -569.2Q1166.45 -566.1 1165.45 -563Q1161.65 -551.15 1156.75 -540.75Q1151.8 -541.25 1149.4 -546.55Q1148.15 -549.4 1146.15 -552Q1142.45 -556.7 1139.8 -561.75Q1140.5 -574.5 1138.5 -586.75Q1137.4 -593.35 1137 -600.15Q1135.8 -621 1139.2 -641.05Q1142.7 -661.6 1141.55 -683.05Q1140.55 -702.2 1143.75 -720.2Q1144.7 -725.6 1147.35 -730.5M1249.05,-645.8Q1257.75 -638.8 1258.5 -628.65Q1259.25 -618.5 1251.35 -616.25L1251.15 -617.35L1249.1 -621.15Q1247.05 -624.25 1246.65 -627.55Q1245.4 -637.75 1245.05 -648.05Q1247.15 -647.3 1249.05 -645.8M1067.95,-634.75Q1067.6 -641.35 1068.5 -647.05Q1071.95 -644.5 1074.9 -640.9Q1080.5 -634.15 1081.4 -626.15Q1082.95 -613.15 1077.2 -603.85Q1075.05 -604.45 1073.5 -605.8Q1070.75 -608.2 1070.25 -611.55Q1068.65 -623.05 1067.95 -634.75M1068.15,-492.85L1073.05 -490.3Q1099.15 -459.25 1094.4 -418.25Q1085.3 -423.95 1077.85 -436L1072.35 -445.2Q1069.7 -449.8 1065.85 -453.55Q1056.6 -462.7 1057.55 -475.2Q1057.85 -478.9 1057.25 -482.5Q1055.4 -493.55 1064.3 -493.7Q1066.45 -493.75 1068.15 -492.85M1249,-355.8L1253.3 -351.3Q1256.75 -347.1 1258.3 -342.2Q1259.95 -337.2 1260.75 -331.75Q1262 -323 1257.8 -320.5Q1252 -319.7 1248.9 -325.25Q1247.05 -328.55 1246.05 -332Q1244.9 -335.95 1244.4 -340.25Q1243.45 -347.8 1247.4 -353.65L1249 -355.8M1159.9,-206.65Q1159.75 -213.5 1162.95 -217.2Q1168.95 -214.15 1174.15 -209.35Q1181.2 -202.85 1182.2 -194.25Q1182.55 -191.2 1181.1 -190.15Q1173.9 -184.9 1165.25 -190.45Q1159.15 -194.35 1159.7 -200.4Q1160 -203.55 1159.9 -206.65M1237.45,-239.3L1239.15 -242.4Q1249.25 -237.05 1251.35 -226.45L1247.15 -226.1Q1238.55 -227.3 1236.8 -235.2Q1236.3 -237.55 1237.45 -239.3M1070.3,-326.05Q1075 -313.9 1072.55 -299.5Q1071.85 -295.1 1071.95 -290.8Q1072.15 -284.3 1068.1 -280.15Q1066.45 -278.4 1064.3 -278.4Q1044.25 -278.05 1032.05 -294.5Q1028.85 -298.85 1024.95 -302.55Q1015.5 -311.55 1017 -324.2Q1023.45 -316.95 1034.2 -316.85Q1036.35 -316.8 1038 -317.7Q1045.2 -321.5 1049.2 -328Q1050.35 -329.8 1051.9 -330.95Q1056.85 -334.55 1063.95 -329.85Q1067.05 -327.75 1070.3 -326.05M1105.35,-203.65Q1106.25 -201.7 1107.3 -200.45Q1109.45 -197.95 1112.15 -196.65L1113.25 -196.05Q1121.95 -191.3 1122.25 -181.9Q1122.35 -178.8 1120.8 -177.35Q1115.05 -172 1109.3 -178.05Q1106.25 -181.3 1104.1 -185.05Q1099.35 -193.35 1100.85 -204.2L1105.35 -203.65M1130.1,-141.1Q1130.35 -144.15 1131.4 -146.1Q1135.35 -143.4 1138.85 -140.25L1146.75 -133.25Q1154.35 -126.6 1152.9 -116.25Q1152.45 -113.2 1151.2 -110.75Q1150.3 -108.9 1148 -108.55Q1142.7 -107.8 1139.05 -110.7Q1126.5 -120.65 1129.4 -136L1130.1 -141.1" />
</g>
</svg>
