<?xml version="1.0" encoding="utf-8"?>
<svg version="1.1" id="Layer_1"
xmlns="http://www.w3.org/2000/svg"
xmlns:xlink="http://www.w3.org/1999/xlink"
xmlns:author="http://www.sothink.com"
width="16px" height="15px"
xml:space="preserve">
<g id="1245" transform="matrix(1, 0, 0, 1, -0.25, 2.7)">
<path style="fill:#982E0F;fill-opacity:1" d="M4.3,9Q5.2 10.1 6.2 10.45L6.7 10.6L7.2 10.65Q7.95 9.3 8.4 8.95L9.4 8.25L9.75 8.15Q10.4 8.15 11.85 9L11.95 8.9L12.05 8.6L12 7.8Q11.75 7.2 11.85 7L11.85 6.95L12.1 6.7L12.45 6.6L12.9 6.5Q13.45 6.4 14.6 7.25L14.7 7.35L14.85 7Q15.2 5.9 14.35 4.8L13.3 3.75L12.45 3.15L12.65 2.5L13.6 3.05L14.7 3.9Q16.3 5.45 15.6 6.9L15.3 7.65L14.85 8.35L14.8 8.4L14.1 7.95Q13.5 7.45 12.75 7.4Q13.1 7.85 13 8.4L12.75 9.4L12.65 9.6L12.5 9.9L12.1 10.15L12.05 10.15L11.4 9.8L10.6 9.3L9.8 9.2L9.25 9.5Q8.55 10 8.2 10.9Q8.1 11.65 7.85 11.75L7.45 11.75Q5.3 11.65 3.55 9.6Q2 7.75 2.2 7.1Q2.75 7.4 3.45 7.6Q3.65 8.3 4.3 9" />
<path style="fill:#A14C27;fill-opacity:1" d="M6.7,10.6L6.2 10.45Q5.2 10.1 4.3 9Q3.65 8.3 3.45 7.6L5.75 7.8Q7.9 7.7 10.4 5.85Q11.6 4.9 12.1 3.95L12.45 3.15L13.3 3.75L13.15 4.1L13.1 4.2L11.4 6.35L11.25 6.45L10.9 6.65Q8.05 8.45 6.9 8.45L6.35 8.35L6.25 8.95Q6.25 9.75 6.7 10.6M12.45,6.6L12.05 5.8Q13 5.4 14.3 6.45L14.85 7L14.7 7.35L14.6 7.25Q13.45 6.4 12.9 6.5L12.45 6.6M11.75,8.25L12.05 8.6L11.95 8.9L11.85 9Q10.4 8.15 9.75 8.15L9.65 7.95L9.45 7.8Q9.65 7.5 10.4 7.5Q11.05 7.5 11.75 8.25" />
<path style="fill:#D26A3D;fill-opacity:1" d="M14.35,4.8Q15.2 5.9 14.85 7L14.3 6.45L13.15 4.1L13.3 3.75L14.35 4.8M11.75,8.25L11.7 8.1Q11.4 7.05 10.9 6.65L11.25 6.45L11.85 6.95L11.85 7Q11.75 7.2 12 7.8L12.05 8.6L11.75 8.25" />
<path style="fill:#B1552E;fill-opacity:1" d="M12.05,5.8L12.45 6.6L12.1 6.7L11.85 6.95L11.25 6.45L11.4 6.35L13.1 4.2L13.15 4.1L14.3 6.45Q13 5.4 12.05 5.8M6.25,8.95L6.35 8.35L6.9 8.45Q8.05 8.45 10.9 6.65Q11.4 7.05 11.7 8.1L11.75 8.25Q11.05 7.5 10.4 7.5Q9.65 7.5 9.45 7.8L9.65 7.95L9.75 8.15L9.4 8.25L8.4 8.95Q7.95 9.3 7.2 10.65L6.7 10.6Q6.25 9.75 6.25 8.95" />
<path style="fill:#D8C69C;fill-opacity:1" d="M4.65,-0.05L4.65 0.15L4.3 0.25L4.2 0.05L4.2 0L4.35 -0.1L4.55 -0.1L4.65 -0.05M8.05,-1.25L8.05 -1.2L8.05 -1.1L8.05 -1L7.7 -0.95L7.6 -1.1L7.7 -1.2L7.9 -1.25L7.9 -1.3L8 -1.25L8.05 -1.25M10.85,3.65L10.8 3.7L10.6 3.65L10.45 3.45L10.5 3.35L10.65 3.25L10.7 3.25L10.85 3.45L10.85 3.65M7.4,5.8L7.55 5.85L7.55 5.9L7.55 6L7.2 6.05L7.15 6L7.15 5.95L7.15 5.85L7.2 5.8L7.3 5.8L7.4 5.8M3.65,5.8L3.8 5.9L3.85 6.1L3.65 6.15L3.5 6.05L3.45 6L3.4 5.95L3.45 5.95L3.45 5.9L3.5 5.85L3.55 5.8L3.65 5.8" />
<path style="fill:#4E4138;fill-opacity:1" d="M1.15,4.45Q1.4 5.75 3 6.5L3.25 6.6L3.35 6.65L7.5 6.45Q9.9 5.6 11.15 3.65L11.65 2.85L11.9 2.15Q12.15 1.15 11.75 0.35L11.55 -0.1L10.75 -0.95Q10.35 -1.3 9.85 -1.45L7.85 -1.8L5.65 -1.15Q4.2 -0.65 2.5 1.2L1.7 2.3L1.25 3.1Q1 3.8 1.15 4.45M8.2,4.55L7.95 4.6Q6.8 4.8 6.05 4.25L5.65 3.95L5.5 3.75L5.2 3Q5.05 2.25 5.35 1.85Q5.65 1.4 6.2 1.3Q7.55 1.3 8.4 1.95L8.85 2.45L8.95 2.6L9.05 3.75L9 3.95L8.65 4.3L8.2 4.55M12.45,3.15L12.1 3.95Q11.6 4.9 10.4 5.85Q7.9 7.7 5.75 7.8L3.45 7.6Q2.75 7.4 2.2 7.1L1.9 6.95Q0.25 5.95 0.25 4.45Q0.25 3.25 0.65 2.35L0.9 1.9L2.4 0Q3.25 -0.95 4.15 -1.45L6.4 -2.4Q8.9 -3.1 10.65 -2.1Q11.6 -1.65 12.2 -0.65L12.25 -0.5L12.65 0.3Q13 1.2 12.65 2.5L12.45 3.15M7.75,2.35L6.8 2Q6.25 1.9 6.1 2.25L6 2.95L6.15 3.35L6.3 3.5L6.85 3.8L7.95 3.85L8.3 3.1L8.15 2.7L8.05 2.55L7.75 2.35" />
<path style="fill:#DAD6BD;fill-opacity:1" d="M8.05,-0.1L8.4 -0.05L8.55 0.15L8.55 0.25L8.2 0.3Q7.9 0.25 8 -0.05L8.05 -0.1M3.7,2.85L3.7 3.15L3.7 3.25L3.35 3.15Q3.2 2.95 3.35 2.75L3.4 2.75L3.7 2.85" />
<path style="fill:#B6A998;fill-opacity:1" d="M11.55,-0.1Q11.3 0.2 11.2 0.7L11.1 1.1L11.25 1.15L11.45 1.45L11.4 1.6L10.95 1.55L10.8 1.9L10.75 1.9L10.5 1.85L10.4 1.9L10.35 1.9L10.35 2.05L10.55 2.35L10.55 2.4L10.35 2.65L9.45 3.55L9 3.95L9.05 3.75L8.95 2.6L8.85 2.45L8.4 1.95Q7.55 1.3 6.2 1.3Q5.65 1.4 5.35 1.85Q5.05 2.25 5.2 3L5.5 3.75L5.65 3.95L6.05 4.25Q6.8 4.8 7.95 4.6L8.2 4.55L7.4 5.1L6.6 5.35L6.55 5.45L6.55 5.5L5.9 5.4L5.5 5.4L4.7 5.4L4.7 5.45L4.65 5.5L4.55 5.55L4.4 5.6L4.35 5.6L4.25 5.6L4.05 5.55L3.9 5.45L3.85 5.35L3.75 5.35L3.7 5.3L3.7 5.25L2.4 4.7L2.4 4.75L1.9 4.65L1.9 4.25L2 4.2L2.05 4.2L1.25 3.1L1.7 2.3L3.35 1.4L3.4 1.4L3.5 1.45L3.55 1.4L3.6 1.4L3.7 1.45L4.05 1.4L4.05 1.25L3.95 1L4.55 0.6Q5.1 0.25 5.65 0L5.6 -0.1L5.65 -0.25L5.75 -0.4L5.95 -0.35L6.1 -0.25L6.15 -0.25L8.55 -1L8.6 -1L8.9 -0.8L9.4 -0.8L9.45 -0.85L9.55 -0.95L9.55 -1.05L9.55 -1.1L10.75 -0.95L11.55 -0.1M8,-0.05Q7.9 0.25 8.2 0.3L8.55 0.25L8.55 0.15L8.4 -0.05L8.05 -0.1L8 -0.05M10.3,0.4L10.3 0.35L10.3 0.15L10.1 0.05L10 0.1L9.95 0.3L10 0.4L10.05 0.4L10.25 0.4L10.3 0.4M8.95,0.6L9.25 0.65L9.3 0.55L9.25 0.45L9.15 0.4L9.05 0.4L9 0.4L8.95 0.45L8.95 0.5L8.9 0.5L8.95 0.6M3.4,2.75L3.35 2.75Q3.2 2.95 3.35 3.15L3.7 3.25L3.7 3.15L3.7 2.85L3.4 2.75M4.05,4.6L4.45 4.55L4.5 4.45L4.35 4.25L4.2 4.15L4.1 4.2L3.95 4.3L3.9 4.4L4.05 4.6" />
<path style="fill:#837462;fill-opacity:1" d="M8.65,4.3L9 3.95L9.45 3.55L10.35 2.65L10.55 2.4L10.55 2.35L10.35 2.05L10.35 1.9L10.4 1.9L10.5 1.85L10.75 1.9L10.8 1.9L10.95 1.55L11.4 1.6L11.45 1.45L11.25 1.15L11.1 1.1L11.2 0.7Q11.3 0.2 11.55 -0.1L11.75 0.35Q12.15 1.15 11.9 2.15L11.65 2.85L11.15 3.65Q9.9 5.6 7.5 6.45L3.35 6.65L3.25 6.6L3 6.5Q1.4 5.75 1.15 4.45Q1 3.8 1.25 3.1L2.05 4.2L2 4.2L1.9 4.25L1.9 4.65L2.4 4.75L2.4 4.7L3.7 5.25L3.7 5.3L3.75 5.35L3.85 5.35L3.9 5.45L4.05 5.55L4.25 5.6L4.35 5.6L4.4 5.6L4.55 5.55L4.65 5.5L4.7 5.45L4.7 5.4L5.5 5.4L5.9 5.4L6.55 5.5L6.55 5.45L6.6 5.35L7.4 5.1L8.2 4.55L8.65 4.3M10.25,0.4L10.05 0.4L10 0.4L9.95 0.3L10 0.1L10.1 0.05L10.3 0.15L10.3 0.35L10.3 0.4L10.25 0.4M10.85,3.45L10.7 3.25L10.65 3.25L10.5 3.35L10.45 3.45L10.6 3.65L10.8 3.7L10.85 3.65L10.85 3.45M8.9,0.5L8.95 0.5L8.95 0.45L9 0.4L9.05 0.4L9.15 0.4L9.25 0.45L9.3 0.55L9.25 0.65L8.95 0.6L8.9 0.5M7.3,5.8L7.2 5.8L7.15 5.85L7.15 5.95L7.15 6L7.2 6.05L7.55 6L7.55 5.9L7.55 5.85L7.4 5.8L7.3 5.8M3.9,4.4L3.95 4.3L4.1 4.2L4.2 4.15L4.35 4.25L4.5 4.45L4.45 4.55L4.05 4.6L3.9 4.4M3.55,5.8L3.5 5.85L3.45 5.9L3.45 5.95L3.4 5.95L3.45 6L3.5 6.05L3.65 6.15L3.85 6.1L3.8 5.9L3.65 5.8L3.55 5.8" />
<path style="fill:#201C13;fill-opacity:1" d="M8.05,2.55L8.15 2.7L8.3 3.1L7.95 3.85L6.85 3.8L6.3 3.5L6.15 3.35L6 2.95L6.1 2.25Q6.25 1.9 6.8 2L7.75 2.35L8.05 2.55" />
<path style="fill:#F5F3EE;fill-opacity:1" d="M4.55,-0.1L4.35 -0.1L4.2 0L4.2 0.05L4.3 0.25L4.65 0.15L4.65 -0.05L4.55 -0.1M2.5,1.2Q4.2 -0.65 5.65 -1.15L7.85 -1.8L9.85 -1.45Q10.35 -1.3 10.75 -0.95L9.55 -1.1L9.55 -1.05L9.55 -0.95L9.45 -0.85L9.4 -0.8L8.9 -0.8L8.6 -1L8.55 -1L6.15 -0.25L6.1 -0.25L5.95 -0.35L5.75 -0.4L5.65 -0.25L5.6 -0.1L5.65 0Q5.1 0.25 4.55 0.6L3.95 1L4.05 1.25L4.05 1.4L3.7 1.45L3.6 1.4L3.55 1.4L3.5 1.45L3.4 1.4L3.35 1.4L1.7 2.3L2.5 1.2M8,-1.25L7.9 -1.3L7.9 -1.25L7.7 -1.2L7.6 -1.1L7.7 -0.95L8.05 -1L8.05 -1.1L8.05 -1.2L8.05 -1.25L8 -1.25" />
</g>
</svg>
