<?xml version="1.0" encoding="utf-8"?>
<svg version="1.1" id="Layer_1"
xmlns="http://www.w3.org/2000/svg"
xmlns:xlink="http://www.w3.org/1999/xlink"
xmlns:author="http://www.sothink.com"
width="15px" height="10px"
xml:space="preserve">
<g id="1147" transform="matrix(1, 0, 0, 1, 0, 0)">
<path style="fill:#524A47;fill-opacity:1" d="M12.05,3.65L12.9 4.75L11.75 5.4L11.05 5.85L10.95 5.95L10.85 5.9L10.55 6L8.7 6.2L8.05 6.35L7.7 6.9L7.4 6.6L7.5 6.4L7.35 6.45L6.85 6.45L5.2 6.3L5.2 6.35L5.05 6.65L4.7 6.4L4.6 6.25L4.3 6.2L3.55 6.25L2.5 6.05L1 4.9L0.95 4.75Q0.8 4.1 1.45 3.25Q2.5 2.65 3.8 2.45L5.9 2.55L6.45 2.4L6.9 2.35L7.2 2.65L7.4 2.5L7.6 2.55L7.8 2.95L8.45 3.15L9.4 2.6L9.9 2.6Q10 2.8 10.25 2.8L10.4 2.65L11.65 3.15L12.05 3.65M10.15,4.3L9.4 4.15L9.05 4.45L9.15 4.65L9.6 4.65L9.65 4.8L9.8 4.9L9.9 4.9L10.3 4.95L10.6 4.6L10.15 4.3M6.35,4.85L6.45 5.1L6.7 4.9L6.55 4.85L6.35 4.85M5.3,3.7Q5 3.45 4.85 3.55L4.65 3.85L4.8 4L4.95 3.9L5.1 4L5.3 3.7" />
<path style="fill:#7E7470;fill-opacity:1" d="M2.35,2.25Q3.8 0.7 8.7 1.2Q10.45 1.9 11.65 3.15L10.4 2.65L10.25 2.8Q10 2.8 9.9 2.6L9.4 2.6L8.45 3.15L7.8 2.95L7.6 2.55L7.4 2.5L7.2 2.65L6.9 2.35L6.45 2.4L5.9 2.55L3.8 2.45Q2.5 2.65 1.45 3.25L2.35 2.25M6.55,4.85L6.7 4.9L6.45 5.1L6.35 4.85L6.55 4.85M5.1,4L4.95 3.9L4.8 4L4.65 3.85L4.85 3.55Q5 3.45 5.3 3.7L5.1 4" />
<path style="fill:#433B38;fill-opacity:1" d="M13.5,5.75Q13.55 6.1 11.25 7L7.25 8.05Q4.85 8.4 2.85 7Q1.3 5.9 1 4.9L2.5 6.05L3.55 6.25L4.3 6.2L4.6 6.25L4.7 6.4L5.05 6.65L5.2 6.35L5.2 6.3L6.85 6.45L7.35 6.45L7.5 6.4L7.4 6.6L7.7 6.9L8.05 6.35L8.7 6.2L10.55 6L10.85 5.9L10.95 5.95L11.05 5.85L11.75 5.4L12.9 4.75L13.5 5.75M10.6,4.6L10.3 4.95L9.9 4.9L9.8 4.9L9.65 4.8L9.6 4.65L9.15 4.65L9.05 4.45L9.4 4.15L10.15 4.3L10.6 4.6" />
<path style="fill:#2E2827;fill-opacity:1" d="M12.9,4.75L12.05 3.65L11.65 3.15Q10.45 1.9 8.7 1.2Q3.8 0.7 2.35 2.25L1.45 3.25Q0.8 4.1 0.95 4.75L1 4.9Q1.3 5.9 2.85 7Q4.85 8.4 7.25 8.05L11.25 7Q13.55 6.1 13.5 5.75L12.9 4.75M14.25,4.6L15 6.1L14.35 6.7L13.35 7.3L12.45 7.75L12.4 7.7L11.5 8.1L11.3 8.2L8.05 9.05L7.9 9.1L7.3 9.1L7.2 9.15L6.2 9.2L6.2 9.25L5.55 9.25L5.3 9.15Q3.3 8.9 1.8 7.65Q0.25 6.25 0.05 5L0.05 3.8Q0.25 2.4 1.5 1.4Q3.1 0.05 5.8 0Q11.1 -0.15 13.85 3.85L14.25 4.6" />
</g>
</svg>
