<?xml version="1.0" encoding="utf-8"?>
<svg version="1.1" id="Layer_1"
xmlns="http://www.w3.org/2000/svg"
xmlns:xlink="http://www.w3.org/1999/xlink"
xmlns:author="http://www.sothink.com"
width="84px" height="56px"
xml:space="preserve">
<g id="1538" transform="matrix(1, 0, 0, 1, 0, 0)">
<linearGradient
id="LinearGradID_1808" gradientUnits="userSpaceOnUse" gradientTransform="matrix(0, 0.0290222, -0.0272522, 0, 22.35, 26.75)" spreadMethod ="pad" x1="-819.2" y1="0" x2="819.2" y2="0" >
<stop  offset="0" style="stop-color:#FFF980;stop-opacity:1" />
<stop  offset="1" style="stop-color:#E7950A;stop-opacity:1" />
</linearGradient>
<path style="fill:url(#LinearGradID_1808) " d="M76.6,9.2Q79.15 10.55 79.05 7.25Q78.95 3.95 75.7 3.4Q66.85 2.2 60.75 3.45L60.15 3.65Q59.25 4 59.5 4.5Q59.75 5 72.4 6.85L76.6 9.2M61.3,14.1L54.9 41.95L62.15 41.95L68.55 14.1L61.3 14.1M57.6,0L78.55 0L84 6.8L74.45 49.2L65.85 56L44.8 56L39.35 49.2L48.95 6.8L57.6 0M41.35,20.9L27.4 20.9L29.15 14.15L21.85 14.15L15.95 41.95L22.8 41.95L24.15 35.15L20.9 35.15L22.4 28.2L40.05 28.2L35.6 49.2L27 56L5.45 56L0 49.2L9.55 6.75L18.15 0L39.15 0L44.65 6.75L41.35 20.9M39.35,9.15Q41.2 10 40.7 6.95Q40.15 3.9 38.3 3.45L26.75 2.9Q17.05 2.85 18.5 3.7Q18.1 4.3 20.95 5.2Q23.65 6.05 29.1 6.1Q34.5 6.1 36 7.2Q37.45 8.3 39.35 9.15" />
<path style="fill:#FFFFCC;fill-opacity:1" d="M72.4,6.85Q59.75 5 59.5 4.5Q59.25 4 60.15 3.65L60.75 3.45Q66.85 2.2 75.7 3.4Q78.95 3.95 79.05 7.25Q79.15 10.55 76.6 9.2L72.4 6.85M36,7.2Q34.5 6.1 29.1 6.1Q23.65 6.05 20.95 5.2Q18.1 4.3 18.5 3.7Q17.05 2.85 26.75 2.9L38.3 3.45Q40.15 3.9 40.7 6.95Q41.2 10 39.35 9.15Q37.45 8.3 36 7.2" />
</g>
</svg>
