<?xml version="1.0" encoding="utf-8"?>
<svg version="1.1" id="Layer_1"
xmlns="http://www.w3.org/2000/svg"
xmlns:xlink="http://www.w3.org/1999/xlink"
xmlns:author="http://www.sothink.com"
width="35px" height="20px"
xml:space="preserve">
<g id="2689" transform="matrix(1, 0, 0, 1, -24.9, -0.45)">
<path style="fill:#FFFFFF;fill-opacity:1" d="M48.3,19.4Q51.25 18.85 53.15 16.75Q53.3 16.15 54.45 15.8L56.85 15.9Q59.55 17.25 59.85 17.6Q60.15 18 59.2 17.7Q58.2 17.45 56.3 16.5Q55.35 15.8 54.35 16.5L51.05 19Q49.55 20.05 49.1 20Q44.7 20.25 44 16.75L44.05 16.75Q45.6 19.4 48.3 19.4M31.85,0.7L30.3 1.35Q30 2.15 28 3.4Q26 4.65 24.9 4.7Q27.75 3.25 29.9 0.7L32.55 0.45L31.85 0.7M33.95,1.6Q38.1 4.85 40.1 9.7L40.1 9.75L33.85 1.6L33.95 1.6" />
</g>
</svg>
