<?xml version="1.0" encoding="utf-8"?>
<svg version="1.1" id="Layer_1"
xmlns="http://www.w3.org/2000/svg"
xmlns:xlink="http://www.w3.org/1999/xlink"
xmlns:author="http://www.sothink.com"
width="20px" height="20px"
xml:space="preserve">
<g id="447" transform="matrix(1, 0, 0, 1, 0.25, 0.25)">
<path style="fill:#FFFFFF;fill-opacity:1" d="M19.15,9.45Q19.15 13.5 16.35 16.35Q13.45 19.15 9.45 19.15Q5.45 19.15 2.6 16.35Q-0.25 13.5 -0.25 9.45Q-0.25 5.45 2.6 2.65Q5.45 -0.25 9.45 -0.25Q13.45 -0.25 16.35 2.65Q19.15 5.45 19.15 9.45M16,3Q13.25 0.25 9.45 0.25Q5.65 0.25 2.95 3Q0.25 5.65 0.25 9.45Q0.25 13.3 2.95 16Q5.65 18.65 9.45 18.65Q13.25 18.65 16 16Q18.65 13.3 18.65 9.45Q18.65 5.65 16 3" />
</g>
</svg>
