<?xml version="1.0" encoding="utf-8"?>
<svg version="1.1" id="Layer_1"
xmlns="http://www.w3.org/2000/svg"
xmlns:xlink="http://www.w3.org/1999/xlink"
xmlns:author="http://www.sothink.com"
width="8px" height="9px"
xml:space="preserve">
<g id="352" transform="matrix(1, 0, 0, 1, 0, 0)">
<path style="fill:#E9CB9E;fill-opacity:1" d="M0.75,3.55Q0.7 2.95 0.9 2.4Q1.25 1.3 3.2 0.85Q5.3 0.6 6.2 1.35Q6.85 1.8 6.95 2.9Q5.7 4.5 3.85 4.5Q1.55 4.5 0.75 3.55" />
<path style="fill:#876430;fill-opacity:1" d="M6.2,1.35Q5.3 0.6 3.2 0.85Q1.25 1.3 0.9 2.4Q0.7 2.95 0.75 3.55L1.05 4.5Q1.4 5.3 1.95 5.7L3.3 6.2Q4.35 6.35 5.55 5.7Q6.75 5.05 6.9 3.5L6.95 2.9Q6.85 1.8 6.2 1.35M7.45,2.1L7.55 2.8Q7.85 5.7 5.05 6.6Q5 7.3 4.6 7.75Q4.2 8.15 3.2 8.1Q2.15 8.05 1.55 7.35Q0.95 6.65 1.3 6.15L0.95 5.7Q-0.35 4 0.15 2.25L0.2 2.2Q0.6 0.45 3.75 0Q6.8 -0.15 7.4 2.05L7.45 2.1M2,6.55Q1.75 7.25 2.65 7.45L4 7.35L4.5 6.7L4.45 6.7L2 6.55" />
<path style="fill:#D0A15B;fill-opacity:1" d="M3.85,4.5Q5.7 4.5 6.95 2.9L6.9 3.5Q6.75 5.05 5.55 5.7Q4.35 6.35 3.3 6.2L1.95 5.7Q1.4 5.3 1.05 4.5L0.75 3.55Q1.55 4.5 3.85 4.5M4.45,6.7L4.5 6.7L4 7.35L2.65 7.45Q1.75 7.25 2 6.55L4.45 6.7" />
</g>
</svg>
