<?xml version="1.0" encoding="utf-8"?>
<svg version="1.1" id="Layer_1"
xmlns="http://www.w3.org/2000/svg"
xmlns:xlink="http://www.w3.org/1999/xlink"
xmlns:author="http://www.sothink.com"
width="79px" height="24px"
xml:space="preserve">
<g id="1011" transform="matrix(1, 0, 0, 1, 39.5, 11.45)">
<path style="fill:#0155D3;fill-opacity:1" d="M0,-9L-10.4 -8.5L-13.5 -8.05Q-18.2 -7.45 -22.15 -6.3Q-31.3 -3.55 -31.3 0.3Q-31.3 4.15 -22.15 6.8Q-18.2 8.05 -13.5 8.7L-9.05 9.25L-9.05 11.75L-13.5 11.4Q-21.45 10.5 -27.95 8.6Q-39.5 5.2 -39.5 0.3Q-39.5 -4.5 -27.95 -8Q-21.45 -9.85 -13.5 -10.7L-10.4 -11L0 -11.45Q16.35 -11.45 27.95 -8Q39.5 -4.5 39.5 0.3Q39.5 5.2 27.95 8.6Q22.05 10.35 15 11.2L8.8 11.85L8.8 9.25L15 8.45L22.15 6.8Q31.35 4.15 31.35 0.3Q31.35 -3.55 22.15 -6.3Q13 -9 0 -9" />
</g>
</svg>
