<?xml version="1.0" encoding="utf-8"?>
<svg version="1.1" id="Layer_1"
xmlns="http://www.w3.org/2000/svg"
xmlns:xlink="http://www.w3.org/1999/xlink"
xmlns:author="http://www.sothink.com"
width="299px" height="270px"
xml:space="preserve">
<g id="2854" transform="matrix(1, 0, 0, 1, 0, 0)">
<path style="fill:#FFFFFF;fill-opacity:1" d="M253.1,37.25L255.15 62.1L253.5 58.4Q252.6 59.55 251.8 64.25Q251.15 68.2 251.15 69.85L251 69.85L253.1 36.6L253.1 37.25M294.95,161.5Q291.25 166.15 288.85 166.15Q282.4 166.15 280.55 161.8L279.25 158.05Q278.35 155.85 276.75 154.65L276.3 167.2Q275.8 175.5 275.8 178.75L274.95 178.75Q273.25 172.65 271.45 164.55Q269.35 155.15 269.35 152.45L268.4 152.45Q267.5 154.6 267.45 159.1Q267.35 157.75 265.6 153.55L263.65 148.95L263.65 153.6L262.85 153.6L258.8 128.95L254.4 102.1Q252.95 107.2 251.8 113.9L250.15 123.6Q248.35 132.85 244.2 134.05Q244.2 132.9 243.25 132.9Q243.25 133.75 242.65 135.25L241.35 137.55Q241.35 136.4 238.6 136.4L238.6 143.2Q237.8 141.2 234.5 123.65Q231.15 106.15 231.15 104.25L230.2 104.25L228.95 135.4L228.3 158.15L226.95 156.55Q226.2 155.85 225.55 155.85Q225.55 165.1 224.95 177.8Q224.4 190.1 223.65 197.15Q220.65 193.25 216.25 183.85Q213.15 177.3 211.55 173.05Q210.4 175.4 208.2 183.2Q206.15 190.55 205 192.45Q199.55 185.6 195.55 167.8Q191.25 148.55 188.25 114.65L188.25 115.8Q184.65 154.8 182.85 165.4Q181.5 173.65 179.5 177.3Q177.4 181.1 173.8 181.1Q172.7 181.1 171.2 179.4Q169.7 177.6 167.7 177.6Q166.9 179.2 164.85 181.1L162.7 177.2Q161.65 175.25 160.25 174.2Q160.25 174.9 159.1 176.65L157.5 178.75L155.4 174.9Q154.5 173.05 152.9 173.05Q151.55 173.05 151.05 173.65L150.2 174.2Q150.2 178.75 148.3 181.1Q146.9 179.4 144.6 173.95L141.75 167.3L141.35 172.3L140.95 176.4L140 176.4Q135.8 170.45 131.05 144.25Q126.45 119.05 123.25 115.8Q118.5 164.95 116.85 183.45Q112.75 183.55 109.2 184.6L104.95 185.75Q103.8 185.75 101.6 184.6Q99.45 183.45 97.95 183.45Q96 186.15 94.4 191.55Q93.4 194.8 90.95 194.8Q86.7 194.8 83.95 189.75L80.25 182.25Q78.55 186.15 77.5 190.75Q76.55 195.05 76.55 198.3Q67.95 197.5 63.6 166.75L60.85 144.8Q59.4 134.3 57.9 132.9L55.95 151.85Q54.05 169.55 54.1 171.85Q52.25 171.55 50.5 168Q48.65 164.3 46.75 163.8Q46.75 165.6 46.15 167Q45.55 168.5 44.85 168.5L43.5 166.9Q42.75 166.15 42.15 166.15Q41.2 167.3 41.2 170.7L40.25 170.7Q40.25 169.1 39.65 168.2Q39.1 167.3 38.35 167.3Q38.35 168.05 37.9 168.35L37.4 168.5L37.4 173.05L36.45 173.05Q36.45 170.9 34.6 166.85Q32.75 162.85 32.75 161.85Q32.75 162.4 32.3 162.7L31.8 162.85Q31.8 165 30.85 167.9Q29.55 171.7 27.15 174.2Q27.15 173.05 26.2 173.05Q25.25 170.2 23.45 152.7Q21.7 135.55 21.6 129.5L20.65 129.5L17.85 151.25Q15.2 171.7 14.1 173.05Q14.1 171.85 13.15 171.85Q11.1 163.45 4.7 147.75Q3.4 148.9 2.5 153.6Q1.65 158.05 0.25 159.2L0.25 148.5L0 148.3L0.15 106.9L1.3 111.35L1.7 112.3L1.75 94.9L1.85 75.75Q1.95 62.65 2.2 59.55L3.1 59.55Q3.1 59.9 3.35 60L3.6 60.1Q4.6 67.75 5.35 83.65L5.4 84.9L7.45 91.65L8.4 94.9L12.25 107.6L13.15 107.6Q13.15 105.75 13.9 101.4Q14.6 97.1 15.05 96.2Q16.15 97.65 19.5 104.1Q21.25 107.45 23.4 107.6L23.6 107.6Q28.65 107.6 29.65 106.4Q30.75 105.05 30.95 98.2L31.1 94.9Q32.2 64.9 36.95 34.3L37.4 34.3Q37.7 38.25 37.55 53.65L37.4 69.2Q37.4 81.65 39.05 92.35L39.45 94.9Q40.65 103.35 40.65 104.8Q41.6 103.55 42.4 100.75Q43.3 97.85 43.45 94.9L43.45 94.45L43.9 94.1L44.25 93.55L44.4 93.3L44.85 93.3L45.15 94.9L45.75 96.85L46.7 99.6L47.6 99.6L48 97.9L48.8 94.9L49.5 92.2L51.35 84.75Q51.85 85.35 53 88.1Q54.15 90.95 54.15 91.65Q55.5 90.45 56.4 87.8Q57.5 84.7 57.9 84.15L59.1 84.75Q59.45 85.05 59.3 85.85L59.75 85.85Q59.75 72.25 60.75 57.25Q61.45 46.45 62.55 39L62.25 34.25L63.2 31.45Q63.85 29.9 64.55 29.15Q65.1 28.55 65.7 28.55L65.9 28.55L66.25 28.65L64.9 38.95L64.8 39.85Q64.4 44.95 64.4 49.5Q64.4 65.3 67 80.8L69.55 93.3Q70 93.4 70.5 93.65L72.55 94.9L74.05 96.25Q76.15 98.45 77.2 98.45L77.5 98.45Q78.75 98.2 79.35 95.85L79.55 94.9L80.75 86.4L81.65 85.3Q82.65 86.35 83.6 88.6Q84.45 90.7 84.45 91.65L85.4 91.65Q85.2 90.1 85.6 86.75Q86 83 86.75 81.85Q87.7 82.55 88.4 84.15L89.1 85.85L89.6 85.85Q89.6 85 90.75 80.7L91.9 76.15L93.25 78.55L94.25 80.7L94.65 80.25Q94.7 74.55 95.75 77.65L96.35 74.7L97.05 69.25L98.9 69.25L99.55 70Q100 70.35 100.7 70.35L101.45 69.55Q101.9 68.7 102.6 68.7Q103.3 68.7 103.5 69.3L103.55 70.35L104.95 70.35L105 70.3Q105.2 69.25 108.55 61L109.1 59.6Q112.9 48.5 115.7 34.3L115.75 33.65Q115.85 32.95 116.15 32.6L115.7 52.6Q115.7 74.4 115.95 76.85Q117.15 89.15 123.15 90.45Q123.9 87.65 123.15 83L123.15 81.85Q123.2 82.6 124.15 85.4Q125 88.1 125 89.3Q126.7 87.8 127.85 84.5L129.2 80.7L131.65 85.1L133.85 89.3L135.25 89.3L136.1 85.3Q136.85 82.05 136.65 79.55L137.1 79.35Q137.25 79.2 137.45 79.15L138.05 79Q139.05 79 139.85 81.25Q141 84.3 141.8 85.3Q143.3 84.45 143.95 82.15Q144.75 79.35 145.5 78.4Q146.2 79 147.1 81.05L148.75 84.15L149.7 84.15Q149.7 78.55 150.55 61.25Q151.5 40.75 152.45 37.7Q153.7 38.85 154.1 42.95Q154.85 52.45 156.1 64.1Q157.1 73.05 159.15 80.35L160.45 84.5L160.85 85.55Q162.4 86.3 163.2 87.55Q164 88.75 164.75 88.75L165.05 88.75Q167.2 88.5 169.4 84.25L170.9 81.1L177.9 64.4L178.5 68.45L179.35 73.75L179.55 75L180 75.25Q180.35 75.6 181 75.6Q182.05 75.6 182.65 73.9L184.55 66.35L184.8 66L185 65.25L186.25 71.4Q187.55 77.55 189.2 79.55Q193.35 76.75 194.7 61.7Q196.6 40.05 198.05 34.3L198.55 34.3Q199.1 36 199.15 48.95Q199.2 65.05 200.4 77.3Q201.2 85.4 203.25 93.45L205.1 100.8Q206.6 99.6 207.35 95.8L207.55 94.9L208.1 92.2Q208.9 88.2 209.25 86.95L209.5 86.9L209.7 86.55Q209.7 88.35 210.65 91.65L210.65 84.15Q211.1 84.15 211.75 84.45L212.95 84.75Q213.55 84.75 214.6 83.25L215.65 81.35Q216.15 80.05 216.25 78.4L216.55 78.15Q216.75 77.85 217.4 77.85L219.9 82.65L224.15 91Q229.1 87.15 231.75 64.1L233.45 46.55Q234.25 37.15 234.85 34.3L235.35 33.15Q236.05 35.65 238.05 60.75Q238.2 39.75 241 65.45Q243.1 84.55 244.5 94.9L245.3 100.5Q246.2 98.7 247.1 94.9L247.1 94.75L248.85 86.4Q252.25 87.4 254.45 93.9Q255.5 92.6 259.25 82.4Q262.2 74.4 265.4 74.4Q265.9 74.4 266.85 75.7L268.4 78.4L268.9 78.4Q268.9 76.75 269.55 72.8Q270.35 68.1 271.25 66.95L272.9 70.65L273.4 71.9L275.4 77.3Q277.65 76.15 278 74.35Q278.2 73.5 278.2 66.9Q278.2 61.95 277.5 53.5Q276.8 45 277.25 36.65Q277.7 28.3 277.5 19.7L277.3 10.2L277.75 9.65Q280.4 13.95 281.45 44.15Q281.95 59.55 281.95 76.7L281.95 77.15L282.2 75.25L282.4 73.4Q282.4 74.9 283.4 77.85L284.65 76.05L285.2 74.4L286.45 77.35L287.05 80.15L287.55 80.15L288.5 73.25L289.4 65.25L289.85 64.7Q290.65 65.75 293 74.6L294.9 83.2L296.7 94.9L297.35 100.3Q298.85 113.05 296.25 121.25L296.8 120.9L297.05 158.55L294.95 161.5M169.95,1.9Q170.25 0.85 172.15 0Q172.7 1.75 174 15.75L174.6 22.1L173.55 24.55L172.95 22.7Q171.95 19.6 172.8 33.1Q170.2 11.5 169.8 6.2Q169.8 2.45 169.95 1.9M82.75,40.35Q82.75 43.85 83.7 56.9L84.65 69.85L84.15 69.3Q84.15 67.85 83 61.55Q81.65 53.95 80.45 53.25L80.45 53.8Q80.05 54.3 80 55.4L80 50.9Q80.4 29.5 80.9 26.9L81.85 26.9Q82.5 27.75 83.4 29.95L83.05 34.55L82.75 40.35M160.3,85.3L160.3 86.95L160.35 87L160.4 85.35L160.3 85.3M23.95,22.5Q24.5 24.15 24.5 33.05Q24.5 38.5 23.1 51L22.45 56.95L21.85 57.05L22.15 46.05Q22.15 40.35 21.5 34.75L21.1 31.6L21.2 31.1Q22.15 32.3 22.15 34L22.6 34L22.85 29.95L23.05 23.6Q23.5 23.6 23.5 22.5L23.95 22.5M12.9,127.7L12.9 129.45L12.9 130.6Q13.15 129.8 12.9 127.7" />
<path style="fill:#ECA8FF;fill-opacity:1" d="M297.05,158.55L297.2 180.65L298.05 192.15L298.1 192.6Q298.55 194.05 298.6 195.35L298.6 196.95Q298.6 226.85 254.85 248Q211.15 269.15 149.3 269.15Q87.45 269.15 43.7 248Q1.35 227.5 0.05 198.75L0 196.9L0.2 193.15L0.25 159.2Q1.65 158.05 2.5 153.6Q3.4 148.9 4.7 147.75Q11.1 163.45 13.15 171.85Q14.1 171.85 14.1 173.05Q15.2 171.7 17.85 151.25L20.65 129.5L21.6 129.5Q21.7 135.55 23.45 152.7Q25.25 170.2 26.2 173.05Q27.15 173.05 27.15 174.2Q29.55 171.7 30.85 167.9Q31.8 165 31.8 162.85L32.3 162.7Q32.75 162.4 32.75 161.85Q32.75 162.85 34.6 166.85Q36.45 170.9 36.45 173.05L37.4 173.05L37.4 168.5L37.9 168.35Q38.35 168.05 38.35 167.3Q39.1 167.3 39.65 168.2Q40.25 169.1 40.25 170.7L41.2 170.7Q41.2 167.3 42.15 166.15Q42.75 166.15 43.5 166.9L44.85 168.5Q45.55 168.5 46.15 167Q46.75 165.6 46.75 163.8Q48.65 164.3 50.5 168Q52.25 171.55 54.1 171.85Q54.05 169.55 55.95 151.85L57.9 132.9Q59.4 134.3 60.85 144.8L63.6 166.75Q67.95 197.5 76.55 198.3Q76.55 195.05 77.5 190.75Q78.55 186.15 80.25 182.25L83.95 189.75Q86.7 194.8 90.95 194.8Q93.4 194.8 94.4 191.55Q96 186.15 97.95 183.45Q99.45 183.45 101.6 184.6Q103.8 185.75 104.95 185.75L109.2 184.6Q112.75 183.55 116.85 183.45Q118.5 164.95 123.25 115.8Q126.45 119.05 131.05 144.25Q135.8 170.45 140 176.4L140.95 176.4L141.35 172.3L141.75 167.3L144.6 173.95Q146.9 179.4 148.3 181.1Q150.2 178.75 150.2 174.2L151.05 173.65Q151.55 173.05 152.9 173.05Q154.5 173.05 155.4 174.9L157.5 178.75L159.1 176.65Q160.25 174.9 160.25 174.2Q161.65 175.25 162.7 177.2L164.85 181.1Q166.9 179.2 167.7 177.6Q169.7 177.6 171.2 179.4Q172.7 181.1 173.8 181.1Q177.4 181.1 179.5 177.3Q181.5 173.65 182.85 165.4Q184.65 154.8 188.25 115.8L188.25 114.65Q191.25 148.55 195.55 167.8Q199.55 185.6 205 192.45Q206.15 190.55 208.2 183.2Q210.4 175.4 211.55 173.05Q213.15 177.3 216.25 183.85Q220.65 193.25 223.65 197.15Q224.4 190.1 224.95 177.8Q225.55 165.1 225.55 155.85Q226.2 155.85 226.95 156.55L228.3 158.15L228.95 135.4L230.2 104.25L231.15 104.25Q231.15 106.15 234.5 123.65Q237.8 141.2 238.6 143.2L238.6 136.4Q241.35 136.4 241.35 137.55L242.65 135.25Q243.25 133.75 243.25 132.9Q244.2 132.9 244.2 134.05Q248.35 132.85 250.15 123.6L251.8 113.9Q252.95 107.2 254.4 102.1L258.8 128.95L262.85 153.6L263.65 153.6L263.65 148.95L265.6 153.55Q267.35 157.75 267.45 159.1Q267.5 154.6 268.4 152.45L269.35 152.45Q269.35 155.15 271.45 164.55Q273.25 172.65 274.95 178.75L275.8 178.75Q275.8 175.5 276.3 167.2L276.75 154.65Q278.35 155.85 279.25 158.05L280.55 161.8Q282.4 166.15 288.85 166.15Q291.25 166.15 294.95 161.5L297.05 158.55" />
</g>
</svg>
