<?xml version="1.0" encoding="utf-8"?>
<svg version="1.1" id="Layer_1"
xmlns="http://www.w3.org/2000/svg"
xmlns:xlink="http://www.w3.org/1999/xlink"
xmlns:author="http://www.sothink.com"
width="36px" height="46px"
xml:space="preserve">
<g id="1100" transform="matrix(1, 0, 0, 1, 2.55, -1.35)">
<path style="fill:#564C48;fill-opacity:1" d="M28.55,23.65L28.5 27.45Q28.3 30.35 28.55 32.2Q28.8 34.05 29.6 34.5L30.75 34.95Q31.95 35.35 32.3 36.05Q32.65 36.75 32.6 37.65Q32.55 38.55 31.7 39.95L29.95 42.05L28.15 43.35L26.4 44.15L24.45 44.2L22.65 43.7L21.1 42.75Q20.2 42.15 19.5 42.75Q18.75 43.35 19 45.65L18.75 46.45Q17.55 47.45 15.7 47.1Q13.8 46.7 12.45 45.55Q11.1 44.35 10.4 44.05Q9.65 43.75 8.25 44.8Q6.85 45.8 5.55 45.55Q4.2 45.25 2.9 44.1Q1.55 42.9 0.6 40.95Q-0.35 39 -0.85 34L-1 31.8Q-1.1 29.4 -0.7 27.15L-0.1 24.3Q1.2 19.6 2.75 17.4Q4.25 15.15 6.3 13.4Q8.3 11.65 10.7 10.4Q11.85 9.75 13.6 9.55Q15.25 9.35 17.45 9.5Q24.35 10.15 26.65 15.7Q28.25 19.5 28.55 23.65M18.6,41.45L18.75 41.35L20.2 40.95Q21.55 41 22.65 41.75Q23.75 42.45 25.35 42.5Q26.8 42.55 28.5 41L28.75 40.8L30.3 39.05L30.8 37.9Q30.95 36.8 30 36.6Q28.05 36.2 27.15 34.55Q26.2 32.85 26.65 28.65L26.8 25.25Q26.7 22.65 26.1 19.95Q25.15 15.45 23.2 13.5Q21.3 11.6 18.9 11.3L18.8 11.3L15.55 11.1L14.35 11.2L12.65 11.5Q11.4 11.8 8.95 13.75L7.95 14.6Q6.05 16.3 4.5 18.65Q1.9 22.6 1 26.9Q0.35 29.9 0.5 33.15Q0.6 35.35 1.1 37.6L1.15 37.75Q1.85 40.9 3.7 42.6Q4.85 43.65 5.75 43.9Q6.6 44 8.15 43Q9.7 42 10.8 42.3Q11.85 42.55 12.9 43.85Q13.95 45.15 15.65 45.45Q17.3 45.7 17.3 45L17.2 44.6Q16.95 42.3 18.6 41.45M16.35,27.4L16.9 26.85Q17.9 25.95 18.75 26Q20.25 26 21.15 26.65Q22.05 27.3 22.5 28.55L22.55 28.9L22.3 29.15Q21.9 29.05 21.05 28.45Q19.45 27.35 18.3 27.9L17.95 28.15Q16.7 29.1 16.2 29.9Q15.65 30.7 15.25 30.35Q14.85 30 15.35 28.9Q15.65 28.05 16.35 27.4" />
<path style="fill:#E9DBD2;fill-opacity:1" d="M25,28.6Q24.45 34.85 26.55 35.95Q28.6 37.05 28.95 38.05L29.2 39.45L26.25 39.9L24.6 39.55L22.7 39.2Q20.3 39.2 18.85 41.2L18.75 41.35L18.6 41.45L18.7 40.1L18.55 36.5L16.6 40.9Q15.45 42.85 13.85 43L13.2 42.5L13.05 42.35Q10.7 40.4 9.25 40.4Q8.55 40.4 7.15 41.05Q5.7 41.6 4.7 40.5Q3.65 39.35 3.05 38.05Q2.45 36.7 1.65 32.9Q3.9 34.95 6 35.2Q8.1 35.45 9.35 34.5Q10.6 33.5 10.6 31.8Q10.6 29.85 8.75 28.85Q7.85 28.3 3 26.8L3 26.75L7 26.6L16.35 27.4Q15.65 28.05 15.35 28.9Q14.85 30 15.25 30.35Q15.65 30.7 16.2 29.9Q16.7 29.1 17.95 28.15L18.3 27.9Q19.45 27.35 21.05 28.45Q21.9 29.05 22.3 29.15L22.55 28.9L25.15 26.7L25 28.6" />
<path style="fill:#FFFFFF;fill-opacity:1" d="M29.2,39.45L28.95 38.05Q28.6 37.05 26.55 35.95Q24.45 34.85 25 28.6L25.15 26.7L25.5 26.35L26.8 25.25L26.65 28.65Q26.2 32.85 27.15 34.55Q28.05 36.2 30 36.6Q30.95 36.8 30.8 37.9L30.3 39.05L29.9 39.2L29.2 39.45M18.6,41.45Q16.95 42.3 17.2 44.6Q15.75 44.5 13.85 43Q15.45 42.85 16.6 40.9L18.55 36.5L18.7 40.1L18.6 41.45" />
<path style="fill:#A8938C;fill-opacity:1" d="M25.5,26.35L25.15 26.7L22.55 28.9L22.5 28.55Q22.05 27.3 21.15 26.65Q20.25 26 18.75 26Q17.9 25.95 16.9 26.85L16.35 27.4L7 26.6L3 26.75L3 26.8Q7.85 28.3 8.75 28.85Q10.6 29.85 10.6 31.8Q10.6 33.5 9.35 34.5Q8.1 35.45 6 35.2Q3.9 34.95 1.65 32.9Q2.45 36.7 3.05 38.05Q3.65 39.35 4.7 40.5Q5.7 41.6 7.15 41.05Q8.55 40.4 9.25 40.4Q10.7 40.4 13.05 42.35L13.2 42.5L13.85 43Q15.75 44.5 17.2 44.6L17.3 45Q17.3 45.7 15.65 45.45Q13.95 45.15 12.9 43.85Q11.85 42.55 10.8 42.3Q9.7 42 8.15 43Q6.6 44 5.75 43.9Q4.85 43.65 3.7 42.6Q1.85 40.9 1.15 37.75L1.1 37.6Q0.6 35.35 0.5 33.15Q0.35 29.9 1 26.9Q1.9 22.6 4.5 18.65Q6.05 16.3 7.95 14.6L8.95 13.75Q11.4 11.8 12.65 11.5L14.35 11.2L15.55 11.1L18.8 11.3L18.9 11.3Q21.3 11.6 23.2 13.5Q25.15 15.45 26.1 19.95Q26.7 22.65 26.8 25.25L25.5 26.35M29.9,39.2L30.3 39.05L28.75 40.8L28.5 41Q26.8 42.55 25.35 42.5Q23.75 42.45 22.65 41.75Q21.55 41 20.2 40.95L18.75 41.35L18.85 41.2Q20.3 39.2 22.7 39.2L24.6 39.55L26.25 39.9L29.2 39.45L29.9 39.2" />
<path style="fill:#A8938C;fill-opacity:1" d="M10.9,30.4L10.65 31.25Q10 32.8 7.05 32.55Q4.1 32.4 2.45 29.85L1.3 28.4Q1 28.15 0.95 28.4L1 28.1Q1 27.85 1.35 27.55L1.75 27.3L3.8 29.05Q6.3 31.65 9.65 31.2L10.9 30.4" />
<path style="fill:#E9DBD2;fill-opacity:1" d="M9.65,31.2Q6.3 31.65 3.8 29.05L1.75 27.3Q4.1 26.2 4.65 26.2Q3.85 26.6 4.05 26.8L4.35 26.85L3.25 27.5Q4.9 27 8.1 28.35Q10.05 29.25 10.85 30.05L10.9 30.4L9.65 31.2" />
<path style="fill:#564C48;fill-opacity:1" d="M10.1,28.7Q8.75 27.55 6.55 27.25L4.35 26.85L4.05 26.8Q3.85 26.6 4.65 26.2L4.7 26.2L7.55 26.3L8.1 26.45Q9.85 27.05 10.95 28.15Q12.05 29.2 12 30.55Q11.9 31.55 11.45 32.35L11 32.85L10.9 32.95Q9.6 34.1 6.95 33.9Q4.45 33.65 2.9 32.2Q1.25 30.75 0.95 29.1L0.9 29L0.95 28.75L0.95 28.4Q1 28.15 1.3 28.4L2.45 29.85Q4.1 32.4 7.05 32.55Q10 32.8 10.65 31.25L10.9 30.4L10.85 30.05Q10.75 29.3 10.1 28.7" />
<path style="fill:#FFFFFF;fill-opacity:1" d="M4.35,26.85L6.55 27.25Q8.75 27.55 10.1 28.7Q10.75 29.3 10.85 30.05Q10.05 29.25 8.1 28.35Q4.9 27 3.25 27.5L4.35 26.85" />
<path style="fill:#622516;fill-opacity:1" d="M-0.35,16.65L-1.05 18.6Q-2.15 17 -2.45 14.85Q-3.1 11.25 0.35 7.2L0.4 7.1Q3.75 3.15 9.4 2.2L14.75 1.4L16.65 1.35Q18.2 1.45 18.65 3.05L19.15 5.45L19.25 6.15Q18.5 5.7 17.9 5.5L17.7 4.6Q17.35 3.05 16.85 2.95Q15.85 2.7 15 2.95L14.9 2.9Q13.5 2.45 14.2 6.6L13.75 6.9L13.65 7.1L13 7.65L12.8 6.6L12.8 6.55L12.65 5.75Q12.4 3.85 12.5 3.35Q11.4 3.15 7.85 4.2Q4.75 5.05 2.6 6.95L2.35 7.15L1.95 7.55L0.7 9.2Q-0.45 10.7 -0.8 12.15L-0.85 12.15L-1.05 13.25Q-1.2 14.9 -0.35 16.65" />
<path style="fill:#BB482E;fill-opacity:1" d="M17.05,4.55L16.8 4.6Q15.95 4.7 15.45 5.1L15.1 3.8L15.65 3.7L16.65 3.85L17.05 4.55M0.9,10.05L2.8 8.1L3.2 7.75Q6.05 5.25 11.2 4.45L12.65 5.75L12.8 6.55L12.8 6.6Q11.95 6.4 10.65 6.6Q6.05 7.25 4.05 8.6L3.95 8.7L1.25 11.25L0.9 10.05" />
<path style="fill:#8C331D;fill-opacity:1" d="M17.9,5.5L17.45 5.3L16.4 4.95L14.2 6.6Q13.5 2.45 14.9 2.9L15.1 3.8L15.45 5.1Q15.95 4.7 16.8 4.6L17.05 4.55L17.7 4.6L17.9 5.5M-1.05,13.25L-0.85 12.15L-0.8 12.15Q-0.45 10.7 0.7 9.2L0.9 10.05L1.25 11.25L3.95 8.7L4.05 8.6Q6.05 7.25 10.65 6.6Q11.95 6.4 12.8 6.6L13 7.65L12.25 8.25L11.8 8.25Q7.95 8.75 5.2 10.3Q1.45 12.45 -0.35 16.65Q-1.2 14.9 -1.05 13.25" />
<path style="fill:#EE7557;fill-opacity:1" d="M15,2.95Q15.85 2.7 16.85 2.95Q17.35 3.05 17.7 4.6L17.05 4.55L16.65 3.85L15.65 3.7L15.1 3.8L14.9 2.9L15 2.95M11.2,4.45Q6.05 5.25 3.2 7.75L2.8 8.1L0.9 10.05L0.7 9.2L1.95 7.55L2.35 7.15L2.6 6.95Q4.75 5.05 7.85 4.2Q11.4 3.15 12.5 3.35Q12.4 3.85 12.65 5.75L11.2 4.45" />
<path style="fill:#1F2C31;fill-opacity:1" d="M27.4,15.65Q27 17.7 26.3 18.5Q25.5 19.25 24.9 18.1Q24.3 17.05 23.85 14.45L23.85 14.2Q23.45 11.9 24.1 12L24.7 12.3Q26.35 13.05 27.05 14.75L27.4 15.65M19.75,7.7L19.45 7.6L18.15 7.05L17 6.65L16.75 6.7Q12.05 10.05 8.65 14L8.5 14.2Q7.4 15.35 6.55 16.65L6.45 16.75L5.95 17.45L5.7 17.8Q6.95 18.3 8.05 19.55L8.45 20L8.65 20.35L8.85 20.7L9.2 21.65L15.6 21.9L16.2 22.05Q20 23.05 22.3 24.7L24.6 22.65Q27.65 19.45 29.55 15.75L29.25 15.35L27.7 13.55L26.5 12.3L24.25 10.4L22.6 9.3Q20.95 8.2 19.75 7.7M15.85,16.3L16.05 18L16.1 18.55Q16.25 19.65 15.2 19.5Q14.15 19.35 13.1 18.35L12.15 17.1L11.8 16.5Q11.55 15.7 12.4 14.25L12.6 13.95Q13.35 12.7 13.85 12.2Q14.3 11.8 14.85 12.85L15.15 13.4L15.75 15.6L15.85 16.3M17.6,11.5L17.7 10.9Q17.9 9.2 19.45 9.75Q20.05 9.95 20.6 10.65Q21.45 11.7 22 13.95L22 14Q23 17.65 22.85 20.2Q22.75 22.85 21.6 22.35Q20.5 21.85 19.85 21.05Q19.2 20.1 18.85 18.75L17.95 14.95L17.9 14.75Q17.5 12.9 17.6 11.5M-0.35,16.65Q1.45 12.45 5.2 10.3Q7.95 8.75 11.8 8.25L12.25 8.25L13 7.65L13.65 7.1L13.75 6.9L14.2 6.6L16.4 4.95L17.45 5.3L17.9 5.5Q18.5 5.7 19.25 6.15L20.3 6.55Q23.2 7.85 26.1 10.35L26.6 10.8Q28.35 12.25 29.5 13.65L30.4 14.7L30.95 15.65L30.95 15.85Q30.2 17.85 28.25 20.55Q26.2 23.3 24.45 24.8Q22.7 26.35 22 26.35L18.1 24.35Q13.7 22.6 10 22.85L9.25 22.9L8.85 24.3Q7.7 26.75 5.6 27.4L2.25 27.7Q1 27.3 0.15 26.55L0.1 26.5L-0.45 26L-0.65 25.7L-0.8 25.45L-1.35 24.1L-1.65 22.5L-1.6 21.75L-1.55 20.55L-1.05 18.6L-0.35 16.65M25.45,13.8L25.2 13.55L24.6 13.1L24.7 14.25L25 15.5Q25.55 17.95 25.9 17.3L26.25 15.95L25.95 14.55L25.9 14.45L25.45 13.8M20.7,13.7Q20.35 12.3 19.7 11.35Q19.05 10.6 18.8 11.25Q18.6 11.9 18.95 13.5L19.1 14.3L19.85 17.8L20.3 19.6Q21.45 21.7 21.7 20.35Q21.7 18.65 21.35 16.9L20.7 13.8L20.7 13.7M3.7,17.5L4.4 17.5L4.7 17.55L4.8 17.35L5.05 16.95L5.95 15.4L6.1 15.15L7.55 13.15L9.35 11.1L10.95 9.55Q8.6 9.9 5.95 11.25L5.3 11.55Q2.9 12.75 1.4 15.45Q0.5 16.95 0.1 18.75L1.2 18.05Q2.2 17.55 3.7 17.5M7.1,20.4L7 20.2L6.75 19.9L6.3 19.55Q5.4 18.9 4 18.8Q2.3 18.75 1 19.85L0.6 20.25Q-0.25 21.2 -0.2 22.85L-0.2 22.9L-0.15 23.4L-0.15 23.55L0.1 24.3L0.2 24.5Q0.5 25.2 1.15 25.6Q2.5 26.3 3.85 26.4Q5.2 26.4 6.45 25.25Q7.55 24.25 7.75 23L7.75 22.8L7.75 21.9L7.5 21L7.15 20.45L7.1 20.4M14.05,13.9Q13.85 13.8 13.6 14.25L12.85 15.8L13.15 16.65L13.9 17.55Q14.75 18.3 14.95 18.2L14.75 16L14.5 14.95L14.05 13.9" />
<path style="fill:#A8ACAB;fill-opacity:1" d="M20.6,10.65Q20.05 9.95 19.45 9.75Q17.9 9.2 17.7 10.9L17.6 11.5L16.45 12.1L16.3 13.8L16.1 15.45L15.75 15.6L15.15 13.4L14.85 12.85Q14.3 11.8 13.85 12.2Q13.35 12.7 12.6 13.95L9.6 15.3L6.55 16.65Q7.4 15.35 8.5 14.2L8.65 14L11.4 11.9Q16.35 8.2 17.05 8.1L19.05 8.4L21.4 8.9L22.6 9.3L24.25 10.4L26.5 12.3L27.7 13.55L27.75 13.8L27.75 14.95L27.05 14.75Q26.35 13.05 24.7 12.3L24.35 11.8L23.75 11.2L22.15 10.8L22.1 12.8L22 13.95Q21.45 11.7 20.6 10.65M-0.15,23.4L0.05 22Q0.55 21 2.1 20.15L2.4 20.75Q2.7 21.05 3.15 20.95Q4 20.85 3.9 20.15L3.7 19.5L4.35 19.4L6.3 19.55L6.75 19.9L7 20.2L7.1 20.4L7.1 20.45L6.7 20.3Q5.6 20.15 4.8 20.55L4.85 20.65L4.95 21.45Q4.9 22.2 3.75 22.55Q2.55 22.9 1.95 21.5Q0.25 22.4 0.1 22.95L-0.15 23.55L-0.15 23.4" />
<path style="fill:#76838C;fill-opacity:1" d="M24.1,12Q23.45 11.9 23.85 14.2L22 13.95L22.1 12.8L22.15 10.8L23.75 11.2L24.35 11.8L24.7 12.3L24.1 12M29.25,15.35L27.75 14.95L27.75 13.8L27.7 13.55L29.25 15.35M12.4,14.25Q11.55 15.7 11.8 16.5L12.15 17.1L11.5 17.4L9.05 18.25Q8.1 18.4 7.1 17.45L6.45 16.75L6.55 16.65L9.6 15.3L12.6 13.95L12.4 14.25M17.9,14.75L16.1 15.45L16.3 13.8L16.45 12.1L17.6 11.5Q17.5 12.9 17.9 14.75M9.35,20.6L9.8 20.55Q11.9 20.25 14.4 20.6L16.85 21.05Q20.35 21.9 22 23.2Q23.15 22.65 25.75 20.1L29.55 15.75Q27.65 19.45 24.6 22.65L22.3 24.7Q20 23.05 16.2 22.05L15.6 21.9L9.2 21.65L8.85 20.7L9.35 20.6M1.2,18.05Q1.6 16.9 2.3 15.95L2.85 15.3L3.45 15.3Q4.25 15.2 4.95 14.6Q5.7 13.95 5.55 13.2L5.55 12.95L6.65 12.1Q7.85 11.35 8.6 11.2L9.35 11.1L7.55 13.15L6.1 15.15L5.95 15.4L5.05 16.95L4.8 17.35L4.7 17.55L4.4 17.5L3.7 17.5Q2.2 17.55 1.2 18.05M6.55,22Q5.2 24.25 1.95 24.7L0.2 24.5L0.1 24.3L-0.15 23.55L0.1 22.95Q0.25 22.4 1.95 21.5Q2.55 22.9 3.75 22.55Q4.9 22.2 4.95 21.45L4.85 20.65L4.8 20.55Q5.6 20.15 6.7 20.3L7.1 20.45L6.55 22" />
<path style="fill:#4A5662;fill-opacity:1" d="M15.75,15.6L16.1 15.45L17.9 14.75L17.95 14.95L18.85 18.75Q19.2 20.1 19.85 21.05Q20.5 21.85 21.6 22.35Q22.75 22.85 22.85 20.2Q23 17.65 22 14L22 13.95L23.85 14.2L23.85 14.45Q24.3 17.05 24.9 18.1Q25.5 19.25 26.3 18.5Q27 17.7 27.4 15.65L27.05 14.75L27.75 14.95L29.25 15.35L29.55 15.75L25.75 20.1Q23.15 22.65 22 23.2Q20.35 21.9 16.85 21.05L14.4 20.6Q11.9 20.25 9.8 20.55L9.35 20.6L8.85 20.7L8.65 20.35L8.45 20L8.05 19.55Q6.95 18.3 5.7 17.8L5.95 17.45L6.45 16.75L7.1 17.45Q8.1 18.4 9.05 18.25L11.5 17.4L12.15 17.1L13.1 18.35Q14.15 19.35 15.2 19.5Q16.25 19.65 16.1 18.55L16.05 18L15.85 16.3L15.75 15.6M7.15,20.45L7.5 21L7.75 21.9L7.75 22.8L7.75 23Q7.55 24.25 6.45 25.25Q5.2 26.4 3.85 26.4Q2.5 26.3 1.15 25.6Q0.5 25.2 0.2 24.5L1.95 24.7Q5.2 24.25 6.55 22L7.1 20.45L7.1 20.4L7.15 20.45" />
<path style="fill:#FFFFF6;fill-opacity:1" d="M22.6,9.3L21.4 8.9L19.05 8.4L17.05 8.1Q16.35 8.2 11.4 11.9L8.65 14Q12.05 10.05 16.75 6.7L17 6.65L18.15 7.05L19.45 7.6L19.75 7.7Q20.95 8.2 22.6 9.3M8.6,11.2Q7.85 11.35 6.65 12.1L5.55 12.95L5.55 13.2Q5.7 13.95 4.95 14.6Q4.25 15.2 3.45 15.3L2.85 15.3L2.3 15.95Q1.6 16.9 1.2 18.05L0.1 18.75Q0.5 16.95 1.4 15.45Q2.9 12.75 5.3 11.55L5.95 11.25Q8.6 9.9 10.95 9.55L9.35 11.1L8.6 11.2M-0.2,22.9L-0.2 22.85Q-0.25 21.2 0.6 20.25L1 19.85Q2.3 18.75 4 18.8Q5.4 18.9 6.3 19.55L4.35 19.4L3.7 19.5L3.9 20.15Q4 20.85 3.15 20.95Q2.7 21.05 2.4 20.75L2.1 20.15Q0.55 21 0.05 22L-0.15 23.4L-0.2 22.9" />
</g>
</svg>
