<?xml version="1.0" encoding="utf-8"?>
<svg version="1.1" id="Layer_1"
xmlns="http://www.w3.org/2000/svg"
xmlns:xlink="http://www.w3.org/1999/xlink"
xmlns:author="http://www.sothink.com"
width="38px" height="20px"
xml:space="preserve">
<g id="1142" transform="matrix(1, 0, 0, 1, -75.55, -71.9)">
<path style="fill:#4D3212;fill-opacity:1" d="M100.45,82.45L99.2 82.4Q97.9 82.2 96.9 81.55L95.3 80.1L95.25 80.05L95.15 80L94.75 78.85L96.25 80L98.35 81.4L100.8 81.65L102.9 81.2L103.9 80.75L104.1 80.55Q104.65 80.1 104.75 78.3Q104.8 77.15 104.45 76.25L103.9 75.1L103.15 74.05L102.9 73.8L102.9 73.9L102.8 73.9L102.65 73.9L102.25 74.1L100.75 74.05L100.4 73.8L100.65 73.5L100.9 73.45L102.7 73.15L102.85 72.8Q103.1 72.45 103.9 72.4Q104.8 71.5 106.45 72.15L106.6 73L106.05 72.8L103.95 72.95L103.45 73.45L104.25 74.4L105 75.9L105 75.95L105.35 77.6L105.4 78.6L105.3 79.55Q105.1 80.65 104.7 81.1L104.65 81.15Q103.25 81.85 100.45 82.45" />
<path style="fill:#745416;fill-opacity:1" d="M103.15,74.05L103.9 75.1L104.45 76.25L102 76.7L103 76.6L94.65 77L96.15 77.75L99.8 80.1L101.95 80.75L103.9 80.75L102.9 81.2L100.8 81.65L98.35 81.4L96.25 80L94.75 78.85L94.3 78.65L92.15 78.3L90.9 78.5Q89.65 78.85 88.85 79.45L88.65 79.6L88.65 79.65L88.55 79.7L88.05 79.1L87.2 78.55Q86.6 78.15 85.8 77.85L84.25 77.25L83.6 77.05L83.7 76.7L84.1 75.6L84.8 74.2L84.05 73.4L84.25 73.25L84.3 73.3L85.35 73.55L85.7 73.45L86.6 73.15L86.05 72.85L87.8 72.85L90.9 72.95L91.55 72.95L100.65 73.5L100.4 73.8L100.75 74.05L102.25 74.1L102.65 73.9L103.15 74.05" />
<path style="fill:#574031;fill-opacity:1" d="M106.6,73.7L106.8 73.95L107.8 76.1Q108.85 78.65 109.05 81.6L108.3 83.15Q106.45 83 105.25 82L104.55 81.25L104.65 81.15L104.7 81.1Q105.1 80.65 105.3 79.55L105.4 78.6L105.35 77.6L105 75.95L105 75.9L104.25 74.4L103.45 73.45L103.95 72.95L106.05 72.8L106.6 73.7M83.35,77.75Q80.9 78.4 80.5 80.8L80.45 81.3Q79.6 80.8 79.2 80.35L78.65 79.7Q78.45 78.95 78.95 78.35Q79.4 77.65 80.5 77.45L82.4 77.55L82.9 77.65L83.35 77.75" />
<path style="fill:#785743;fill-opacity:1" d="M106.6,73.65L106.6 73L106.75 73.05L107.2 73.3Q108.45 74.05 108.9 75.35L109.5 78.2Q109.65 79.45 109.05 81.6Q108.85 78.65 107.8 76.1L106.8 73.95L106.6 73.7L106.6 73.65" />
<path style="fill:#36271F;fill-opacity:1" d="M104.65,81.15L104.55 81.25L103.7 81.6Q103.5 82 104.15 83.05Q104.9 84.05 106.65 83.9Q107.7 83.8 108.3 83.15L109.05 81.6Q109.65 79.45 109.5 78.2L108.9 75.35Q108.45 74.05 107.2 73.3L106.75 73.05L106.6 73L106.45 72.15L106.85 72.35Q108.8 73.2 109.45 74.85Q110.15 76.45 110.3 78.4Q110.45 80.3 109.55 82.55L109.25 83.15L109.15 83.25Q108.2 84.7 106.45 84.65Q104.2 84.6 103.45 83.5Q102.7 82.35 102.8 81.95L101.65 82.3L100.45 82.45Q103.25 81.85 104.65 81.15" />
<path style="fill:#3C260C;fill-opacity:1" d="M81.3,76.45L81.3 76.35Q81.45 73.6 82.65 72.9L83.05 72.7L83.35 72.6Q84.25 72.3 85.25 72.6L85.4 72.65L85.9 72.8L86.05 72.85L86.6 73.15L85.7 73.45L85.35 73.55L84.3 73.3L84.25 73.25L83.85 73.2Q83.3 73.2 82.85 73.85Q82.1 74.65 82.1 76.45L82.1 76.5L81.3 76.45M88.75,80.15L88.65 79.65L88.65 79.6L88.85 79.45Q89.65 78.85 90.9 78.5L92.15 78.3L94.3 78.65L94.75 78.85L95.15 80Q94.45 79.2 92.7 78.95L91.3 79.05Q90.55 79.25 89.9 79.65L89.7 79.8L89.05 80.3L88.95 80.4L88.85 80.6L88.75 80.15" />
<path style="fill:#9A7226;fill-opacity:1" d="M82.8,76.8L82.1 76.6L82.1 76.5L82.1 76.45Q82.1 74.65 82.85 73.85Q83.3 73.2 83.85 73.2L84.25 73.25L84.05 73.4L84.8 74.2L84.1 75.6L83.7 76.7L83.6 77.05L82.8 76.8M104.75,78.3Q104.65 80.1 104.1 80.55L103.9 80.75L101.95 80.75L99.8 80.1L96.15 77.75L94.65 77L103 76.6L102 76.7L104.45 76.25Q104.8 77.15 104.75 78.3" />
<path style="fill:#3C2C22;fill-opacity:1" d="M106.65,83.9Q104.9 84.05 104.15 83.05Q103.5 82 103.7 81.6L104.55 81.25L105.25 82Q106.45 83 108.3 83.15Q107.7 83.8 106.65 83.9M80.5,80.8Q80.9 78.4 83.35 77.75L83.45 77.8L83.7 77.85L84.25 78L86.7 79L87.5 79.7Q88.1 80.5 87.75 81.55Q87.3 82.6 84.9 82.55L82.1 82.1L80.65 81.4L80.45 81.3L80.5 80.8" />
<path style="fill:#251A14;fill-opacity:1" d="M82.1,76.5L82.1 76.6L82.8 76.8L83.6 77.05L84.25 77.25L85.8 77.85Q86.6 78.15 87.2 78.55L88.05 79.1L88.55 79.7L88.65 79.65L88.75 80.15L88.85 80.6L88.8 80.7Q88.8 81.4 88.1 82.35Q87.45 83.2 84.8 83.15Q82.7 83.05 80.9 82.35L80.4 82.05L80.1 81.9L79.05 81.2Q78 80.35 77.95 79.55Q77.8 78.4 78.5 77.7Q79.2 77 80.2 76.75L81.25 76.5L81.3 76.5L81.3 76.45L82.1 76.5M82.9,77.65L82.4 77.55L80.5 77.45Q79.4 77.65 78.95 78.35Q78.45 78.95 78.65 79.7L79.2 80.35Q79.6 80.8 80.45 81.3L80.65 81.4L82.1 82.1L84.9 82.55Q87.3 82.6 87.75 81.55Q88.1 80.5 87.5 79.7L86.7 79L84.25 78L83.7 77.85L83.45 77.8L83.35 77.75L82.9 77.65" />
<path style="fill:#000000;fill-opacity:0.25098" d="M113.5,88.85Q113.5 89.8 107.95 90.5L94.5 91.2L81.1 90.5Q75.55 89.8 75.55 88.85Q75.55 87.85 81.1 87.15L94.5 86.5L107.95 87.15Q113.5 87.85 113.5 88.85" />
</g>
</svg>
