<?xml version="1.0" encoding="utf-8"?>
<svg version="1.1" id="Layer_1"
xmlns="http://www.w3.org/2000/svg"
xmlns:xlink="http://www.w3.org/1999/xlink"
xmlns:author="http://www.sothink.com"
width="10px" height="10px"
xml:space="preserve">
<g id="394" transform="matrix(1, 0, 0, 1, 0, 0)">
<path style="fill:#6D3926;fill-opacity:1" d="M5.05,1.05Q3.45 1.1 2.95 2.45Q2.4 3.75 2.55 5.9Q2.75 8 4.8 8.35L6.05 8.45Q7.15 8.35 7.85 7.65Q8.9 6.55 8.8 4.35Q8.7 2.15 7.7 1.55L6.6 1.15L5.05 1.05M7.25,0.45L8.3 1L9.2 1.95L9.65 3.85L9.55 5.9L9.05 7.4L7.65 8.8Q6.75 9.35 5.65 9.35L5.1 9.3Q3.7 9.1 2.8 8.55Q1.95 8 1.75 6.8L1.55 5L1 4.7Q-0.45 3.75 0.25 1.45Q0.45 0.55 1.4 0.2L2.3 0.15Q2.8 0.2 3.2 0.55Q4 -0.15 5.4 0.05L6.25 0.2L7.25 0.45M1.75,4Q1.9 2.2 2.55 1.25L1.9 1Q1.35 1 1.05 1.55Q0.55 2.5 0.85 3.2L1.15 3.7Q1.35 3.95 1.75 4" />
<path style="fill:#FCE1D7;fill-opacity:1" d="M6.55,7.05Q7.5 3.9 6.6 1.15L7.7 1.55Q8.7 2.15 8.8 4.35Q8.9 6.55 7.85 7.65Q7.15 8.35 6.05 8.45L6.55 7.05M1.15,3.55L1.15 3.7L0.85 3.2Q0.55 2.5 1.05 1.55Q1.35 1 1.9 1Q1.4 2.15 1.15 3.55" />
<path style="fill:#D08E76;fill-opacity:1" d="M6.6,1.15Q7.5 3.9 6.55 7.05L6.05 8.45L4.8 8.35Q2.75 8 2.55 5.9Q2.4 3.75 2.95 2.45Q3.45 1.1 5.05 1.05L6.6 1.15M1.15,3.7L1.15 3.55Q1.4 2.15 1.9 1L2.55 1.25Q1.9 2.2 1.75 4Q1.35 3.95 1.15 3.7" />
</g>
</svg>
