<?xml version="1.0" encoding="utf-8"?>
<svg version="1.1" id="Layer_1"
xmlns="http://www.w3.org/2000/svg"
xmlns:xlink="http://www.w3.org/1999/xlink"
xmlns:author="http://www.sothink.com"
width="19px" height="18px"
xml:space="preserve">
<g id="2719" transform="matrix(1, 0, 0, 1, -32.3, -3.3)">
<path style="fill:#FFFFFF;fill-opacity:1" d="M46.4,5.1L44.1 5.25L39.6 6.7L38.7 7.2L38.55 9.3L38.65 9.8L41.9 9.55L41.95 9.65Q40.65 11.2 38.7 10.2L38.7 10.3L39.15 12.05L39.25 11.95L39.35 12.65L39.4 12.65L39.1 13.3L39.55 14.45Q40.95 17.05 40.05 17.9L37.15 19.6L35.9 19.9L32.7 20.75L32.3 20.6L32.3 20.5Q33.1 18.3 33.3 16.55Q34.2 18.15 33.2 20L33.25 20Q34.6 19.35 35.2 19.2Q35.85 18.9 37.8 18.4Q39.6 17.85 39.45 16.45L38.65 14.1L38.65 14.2L38.55 14.05L38.5 13.85Q37.85 15.3 36.3 15.1L35.15 15.05L34.35 15L34.35 14.95L34.55 14.9L34.2 14.65L34.2 14.6L35.95 14.4L36.05 14.3L36.4 14.2L36.3 14.15L36.3 14.1Q37.4 13.7 38.05 12.65L37.7 10.65Q37.2 9.15 37.55 7.7L37.5 7.6L37.65 7.45L38 6.55L38.1 6.6L38.2 6.55L38.3 6.55Q39.45 5.1 41.3 4.7L41.7 4.4Q45.25 3.6 49 3.35L49.75 3.3L49.8 3.35L50.15 3.3L50.05 3.4L50.5 3.4Q50.7 3.55 50.5 3.65Q49.55 4.4 48.85 4.35L46.65 6Q45.75 8.6 42.75 9.1L42.75 9L45.95 6.35L45.95 6.25Q46.35 5.5 47.05 5L46.4 5.1M40.7,17.25L40.6 17.35L40.6 17.15L40.7 17.25M40.6,17.7L40.6 17.65L40.65 17.7L40.6 17.7M38.45,13.7L38.45 13.6L38.4 13.7L38.45 13.7M39.3,15.75L39.25 15.7L39.3 15.8L39.3 15.75" />
</g>
</svg>
