<?xml version="1.0" encoding="utf-8"?>
<svg version="1.1" id="Layer_1"
xmlns="http://www.w3.org/2000/svg"
xmlns:xlink="http://www.w3.org/1999/xlink"
xmlns:author="http://www.sothink.com"
width="62px" height="12px"
xml:space="preserve">
<g id="803" transform="matrix(1, 0, 0, 1, -26.05, -0.25)">
<path style="fill:#FFE4B1;fill-opacity:1" d="M87.15,4.25L85.95 4.35L84.8 4.25L84.6 3.5Q84.35 3.25 83.95 3.15L83.2 3.25Q82.9 3.4 82.8 3.85L82.8 4.05L82.8 4.25L83.2 4.75L83.85 4.95Q84.7 5.05 85.4 5.5L86.55 6.6L87.05 7.65L87.15 8.85L86.8 10L86.1 11.05L85 11.65L83.75 11.85L82.4 11.6L81.15 10.95L80.3 9.95Q80 9.35 80.05 8.6L80.05 8.5L81.25 8.45L82.45 8.45Q82.5 9 82.85 9.25L83.65 9.5Q84.1 9.5 84.35 9.2Q84.65 8.95 84.6 8.4L84.15 7.6Q83.75 7.35 83.3 7.25L82.35 7.05L81.75 6.85L81.25 6.5Q80.55 5.8 80.3 5Q80.1 4.15 80.3 3.35Q80.5 2.55 81 1.9Q81.55 1.25 82.3 0.95L83.45 0.7L84.7 0.75L85.8 1.1Q86.6 1.5 87 2.3Q87.35 3.05 87.15 4.25M75.1,0.65L75.1 3.5L75.1 6.4L75.1 9.25L75.65 9.2L76.6 9.25L77.65 9.3L78.65 9.35L79.2 9.35L79.2 9.5L79.2 9.7L79.2 10L79.2 10.3L79.2 11.35L79.1 11.7L78.75 11.75L78.3 11.75L77.4 11.75L75.6 11.8L72.5 11.75L72.5 11.5L72.6 8.95L72.65 6.9L72.65 5L72.6 3L72.55 0.65L73.3 0.5L74.25 0.5L75.1 0.65M71.35,2.4L71.5 2.85L71.6 3.35L71.6 4.15L71.6 4.95L71.6 6.55L71.55 8.15L71.5 8.7L71.3 9.8L70.9 10.85L70.2 11.45L69.25 11.8L68.35 11.95L67.45 11.95L66.25 11.7L65.35 10.85L65.05 10L65 9.1L64.9 6.6L64.9 4.15L65.1 2.7Q65.25 2 65.75 1.4L65.9 1.25L66.1 1.15Q66.8 0.8 67.65 0.7L69.25 0.8Q70.05 0.95 70.7 1.4L71.05 1.85L71.35 2.4M67.05,3.65L66.75 4.25Q66.6 4.85 66.6 5.5L66.6 6.85L66.7 7.95L66.9 9.05L67.55 9.65L68.45 9.75Q68.95 9.65 69.3 9.25L69.55 8.85L69.6 8.5L69.6 7.85L69.65 7.25L69.65 7L69.6 5L69.55 4.65L69.55 4.25L69.3 3.45Q69.1 3.1 68.7 2.9L68.05 2.85L67.5 3.15Q67.2 3.35 67.05 3.65M63.35,2.25Q63.8 2.95 63.8 3.85Q63.8 4.7 63.35 5.55L62.55 6.5L61.3 6.9L61.2 6.9L62.2 8.45L63.2 10.05L64 11.7L62.8 11.75L61.4 11.75L60.85 10.5L60.05 9.05L59.2 7.75L59.15 7.7L59.1 8.6L59.15 9.7L59.2 10.75L59.25 11.55L58.55 11.7L57.65 11.75L56.9 11.75L56.5 11.75L56.55 11.2L56.55 9.75L56.55 7.75L56.55 5.5L56.5 3.35L56.45 1.65L56.35 0.7L58.35 0.45L60.55 0.45Q61.5 0.55 62.2 1Q62.95 1.5 63.35 2.25M61.05,3.6L60.65 2.95Q60.3 2.65 59.8 2.65L58.7 2.9L58.7 3.55L58.7 4.25L58.75 4.85L58.8 4.85L59.55 4.9L60.4 4.85L60.95 4.4L61.05 3.6M55.6,1.95L55.5 3.2L54.75 3.15L53.6 3.2L53.55 3.2L53.55 3.25L53.5 3.25L53.5 3.7L53.5 4.95L53.5 7.45L53.6 11.65L52.3 11.7L51 11.75L51 10.8L51.05 8.1L50.9 3.35L50.9 3.3L50.2 3.2L49.45 3.15L49 3.15L48.9 2.65L48.9 1.7L48.9 0.65L48.9 0.6L52.25 0.6L55.6 0.75L55.6 1.95M45.9,0.6L47.05 0.5L48.1 0.6L48.1 5.7L48.1 7.05L48.1 8.4L48.1 9.3L48.1 10.15L48.1 10.8L48.1 11.45L48.1 11.75L47.95 11.8L47.6 11.85L46.85 11.8L46.15 11.75L45.1 9.5L44.2 7.35L44.05 6.9L43.95 6.55L43.85 6.4L43.8 6.8L43.75 7.75L43.75 9.05L43.75 10.45L43.75 11.15L43.75 11.75L43.4 11.8L43.05 11.85L42.3 11.8L41.55 11.75L41.55 10.65L41.5 7.75L41.5 4.9L41.5 2.75L41.65 0.7L41.95 0.65L42.35 0.6L42.8 0.65L43.35 0.7L43.65 0.75L43.9 1.4L44.15 1.85L44.5 2.55L44.75 3.1L45.2 4L45.6 4.8L45.8 5.2L45.9 4.85L45.9 4.3L45.9 3.15L45.85 2L45.9 1.35L45.9 0.6M40.6,4.15L40.6 4.95L40.6 6.55L40.55 8.15L40.5 8.7L40.3 9.8L39.9 10.85L39.2 11.45L38.25 11.8L37.35 11.95L36.45 11.95L35.25 11.7Q34.65 11.45 34.35 10.85L34.05 10L34 9.1L33.9 6.6L33.9 4.15L34.1 2.7Q34.25 2 34.75 1.4L34.9 1.25L35.1 1.15Q35.8 0.8 36.65 0.7L38.25 0.8Q39.05 0.95 39.7 1.4L40.05 1.85L40.35 2.4L40.5 2.85L40.6 3.35L40.6 4.15M37.05,2.85L36.5 3.15L36.05 3.65L35.75 4.25L35.6 5.5L35.6 6.85L35.7 7.95L35.9 9.05L36.55 9.65L37.45 9.75L38.3 9.25L38.55 8.85L38.6 8.5L38.6 7.85L38.65 7.25L38.65 7L38.6 5L38.55 4.65L38.55 4.25L38.3 3.45L37.7 2.9L37.05 2.85M32.9,3Q33.2 4 32.8 5.1L31.7 5.2L30.5 5.05L30.45 4.1L30.2 3.25Q30 2.9 29.4 2.9L28.95 3Q28.75 3.05 28.6 3.2L28.55 3.3L28.5 3.4L28.45 3.95L28.4 5.15L28.4 6.6L28.45 7.9L28.7 8.8L29.35 9.35L30 9.25L30.5 8.8L30.6 8.3L30.65 7.75L30.7 7.2L31.35 7.25L32.1 7.25L32.8 7.3Q33.05 8.15 32.95 8.95Q32.85 9.75 32.4 10.4L31.25 11.5Q30.6 11.9 29.7 11.95L28.55 11.95L27.4 11.6L26.55 10.9Q26.2 10.5 26.1 9.8L26.05 8.2L26.05 6.15L26.05 3.25L26.1 2.7L26.25 2.2L26.6 1.45L27.1 0.8L27.5 0.6L27.95 0.45L30.05 0.35Q31.1 0.6 31.85 1.3Q32.6 2 32.9 3" />
</g>
</svg>
