<?xml version="1.0" encoding="utf-8"?>
<svg version="1.1" id="Layer_1"
xmlns="http://www.w3.org/2000/svg"
xmlns:xlink="http://www.w3.org/1999/xlink"
xmlns:author="http://www.sothink.com"
width="52px" height="20px"
xml:space="preserve">
<g id="3104" transform="matrix(1, 0, 0, 1, 1.05, 2.75)">
<path style="fill:#EEBE23;fill-opacity:1" d="M46.5,1.2L46.35 5.3L50.25 4.6L50.1 7.35L44.9 8.3L43.7 7.15L43.95 1.8L46.5 1.2M39.15,4.05L40.55 3.85L40.55 2.6L43.2 1.95L42.85 8.65L40.3 9.15L40.4 6.4L39.1 6.6L38.95 9.4L36.3 9.85L36.6 3.5L39.25 2.9L39.15 4.05M31.6,4.65L31.45 8L32.75 7.8L32.85 6.4L35.45 6L35.3 8.7L33.9 10.2L29.95 10.95L28.75 9.85L28.95 5.3L31.6 4.65M27.85,5.55L27.55 11.45L24.95 11.9L25.25 6.15L27.85 5.55M22.25,6.85L22 12.4L19.35 12.9L19.65 7.45L22.25 6.85M12.15,9.2L13.1 10L12.95 12.75L11.55 14.3L10.35 14.5L10.5 10.5L9.2 10.7L9 14.75L6.35 15.25L6.6 10.5L12.15 9.2M14.05,8.75L16.65 8.15L16.4 13.4L13.8 13.85L14.05 8.75M1.75,11.65L1.65 13.35L2.95 13.1L3.05 11.75L5.65 11.3L5.5 14.05L4.1 15.55L0.15 16.3L-1.05 15.2L-0.9 12.25L1.75 11.65" />
<linearGradient
id="LinearGradID_2906" gradientUnits="userSpaceOnUse" gradientTransform="matrix(0.000473022, 0.00285339, -0.00466919, 0.000778198, 2.35, 8.1)" spreadMethod ="pad" x1="-819.2" y1="0" x2="819.2" y2="0" >
<stop  offset="0" style="stop-color:#FAED2D;stop-opacity:1" />
<stop  offset="1" style="stop-color:#FFFEF3;stop-opacity:1" />
</linearGradient>
<path style="fill:url(#LinearGradID_2906) " d="M43.95,1.8L44.1 -2.3L46.65 -2.75L46.5 1.2L43.95 1.8M40.55,2.6L40.55 1.05L39.3 1.3L39.25 2.9L36.6 3.5L36.7 0.4L38.2 -1.15L42.05 -1.8L43.3 -0.8L43.2 1.95L40.55 2.6M28.95,5.3L29.1 1.7L30.5 0.2L34.45 -0.5L35.7 0.55L35.55 3.25L32.9 3.75L33 2.4L31.7 2.6L31.6 4.65L28.95 5.3M25.25,6.15L25.5 1.05L28.05 0.6L27.85 5.55L25.25 6.15M19.65,7.45L19.75 4.8L17.75 5.15L17.9 2.5L24.45 1.35L24.3 4L22.35 4.35L22.25 6.85L19.65 7.45M6.6,10.5L6.9 4.45L12.1 3.5L13.35 4.6L13.2 7.35L11.85 8.95L12.15 9.2L6.6 10.5M10.75,6.45L9.35 6.7L9.3 8L10.6 7.75L10.75 6.45M14.05,8.75L14.35 3.05L16.9 2.6L16.65 8.15L14.05 8.75M-0.9,12.25L-0.65 7.05L0.7 5.5L4.65 4.85L5.9 5.9L5.75 8.6L3.1 9.1L3.2 7.75L1.9 7.95L1.75 11.65L-0.9 12.25" />
</g>
</svg>
