<?xml version="1.0" encoding="utf-8"?>
<svg version="1.1" id="Layer_1"
xmlns="http://www.w3.org/2000/svg"
xmlns:xlink="http://www.w3.org/1999/xlink"
xmlns:author="http://www.sothink.com"
width="40px" height="21px"
xml:space="preserve">
<g id="2767" transform="matrix(1, 0, 0, 1, 14.15, -1.8)">
<path style="fill:#D4C6C1;fill-opacity:1" d="M0,7.7L0.4 6.35Q1 5 2.2 4.6L5.6 4.15Q7.4 4.1 9.9 4.9Q9.7 5.25 9.65 5.65L8.35 5.65L5.2 5.75Q2.2 5.75 0.2 7.5L0 7.7" />
<path style="fill:#20272E;fill-opacity:1" d="M0.2,7.5Q2.2 5.75 5.2 5.75L8.35 5.65L9.65 5.65Q9.7 5.25 9.9 4.9L11 5.3L11.8 5.6Q14.4 6.7 15.8 7.9Q17.4 9.2 17.45 12L17.4 15.05L17.1 16.1L16.5 16.7L13.85 18.3L13.7 18.4L13.45 18.5L10.9 19.65L7.9 20.6L5.35 20.45Q4.2 20.1 3.35 19.45Q2.5 18.8 2 17.95Q1.5 17.1 0.7 14.25Q-0.15 11.4 -0.15 9.55L0 7.7L0.2 7.5" />
<path style="fill:#11141C;fill-opacity:1" d="M15.85,6.15Q18.7 8.1 18.8 11.2L18.8 14.35L18.6 15.55L18 16.6L17.7 16.95L17.9 17.55L17.8 17.55L17.2 18.4L17.05 17.45L17 17.4L16.6 17.75L14.7 19L10.65 20.8Q8.1 21.7 5.7 21.35Q4.1 21.15 3 20.4L2.7 21L1.7 20.7L1.8 19.2L1.3 18.4L1.55 18.7Q-0.85 14 -1.4 9.7L-1.55 8.15Q-1.5 3.4 2.7 3L9.95 3.4L10.8 3.65Q13.4 4.5 15.85 6.15M5.6,4.15L2.2 4.6Q1 5 0.4 6.35L0 7.7L-0.15 9.55Q-0.15 11.4 0.7 14.25Q1.5 17.1 2 17.95Q2.5 18.8 3.35 19.45Q4.2 20.1 5.35 20.45L7.9 20.6L10.9 19.65L13.45 18.5L13.7 18.4L13.85 18.3L16.5 16.7L17.1 16.1L17.4 15.05L17.45 12Q17.4 9.2 15.8 7.9Q14.4 6.7 11.8 5.6L11 5.3L9.9 4.9Q7.4 4.1 5.6 4.15" />
<path style="fill:#20272E;fill-opacity:1" d="M3.85,22.7L3.65 22.25Q3.6 22.05 3.7 21.95L3.85 21.8L4.1 21.55L4.1 21.35L4.1 21.3L4.2 20.15L4.15 19.5L4.35 18.4L4.4 18.4L4.5 18.35Q6 17.55 7.65 17.05L8.95 16.95L10.45 16.8L14.1 16.9L14.7 16.95L14.7 17Q17 18.25 18.15 19.15L20.9 21.35L21.1 21.55L21.4 21.95L21.45 22.05L21.9 22.7L3.85 22.7" />
<path style="fill:#11141C;fill-opacity:1" d="M16.2,17.15L15.15 17L14.7 17L14.7 16.95L14.1 16.9L10.45 16.8L8.95 16.95L7.65 17.05Q6 17.55 4.5 18.35L4.4 18.4L4.35 18.4L3.4 19.1Q2.7 19.65 2.3 20.6Q2.1 20.95 2.05 21.35L2 21.55L1.85 21.95L1.75 22.7L0.75 22.7L1.1 21.3Q1.3 20.45 1.1 19.8L1.7 18.75Q2.55 17.35 4.95 16.6L5.2 16.55Q7.35 15.85 10.15 15.7L11.15 15.65Q14.1 15.55 17.6 16.6L17.85 16.7L17.65 16.6L17.25 16.4L17.95 16.6Q19.2 17 20.3 17.5L21.8 19.05L24.4 21.75L25.35 22.7L24.65 22.7L24.05 21.95L23.7 21.55L23.55 21.35L22.1 19.95Q20.4 18.4 17.65 17.45L16.2 17.15" />
<path style="fill:#81878E;fill-opacity:1" d="M23.75,22.7L23.15 21.95L23 21.8L22.8 21.55L22.7 21.35L22.6 21.25L19.1 18.5L17.65 17.45Q20.4 18.4 22.1 19.95L23.55 21.35L23.7 21.55L24.05 21.95L24.65 22.7L23.75 22.7" />
<path style="fill:#484E56;fill-opacity:1" d="M21.9,22.7L21.45 22.05L21.4 21.95L21.1 21.55L20.9 21.35L18.15 19.15Q17 18.25 14.7 17L15.15 17L16.2 17.15L17.65 17.45L19.1 18.5L22.6 21.25L22.7 21.35L22.8 21.55L23 21.8L23.15 21.95L23.75 22.7L21.9 22.7M1.75,22.7L1.85 21.95L2 21.55L2.05 21.35Q2.1 20.95 2.3 20.6Q2.7 19.65 3.4 19.1L4.35 18.4L4.15 19.5L4.2 20.15L4.1 21.3L4.1 21.35L4.1 21.55L3.85 21.8L3.7 21.95Q3.6 22.05 3.65 22.25L3.85 22.7L1.75 22.7" />
<path style="fill:#000000;fill-opacity:1" d="M14.15,6.1Q13.25 7.6 13 8.8Q12.55 10.45 12.8 12.55Q13 14.6 14.45 17.15Q15.85 19.65 15.35 20.35L14.75 21.05Q13.8 19.65 10.05 18.45Q6.25 17.2 0.85 19.95L-1.15 20.9Q-5 22.6 -6.95 22.2L-7.1 22.15Q-9.45 21.6 -11.95 20Q-14.6 18.35 -14.05 18.25Q-13.55 18.15 -12.2 17.45L-10.7 16.4L-8.65 14.7L-8.25 14.35Q-5.65 12 -5.3 7.25Q-5 2.5 -0.55 2.45Q3.2 3.55 6.65 2.3Q10.1 1 12.55 3.1Q15 5.2 14.15 6.1M2,4.15L1.25 4L-2.1 4.1Q-3 4.65 -3.85 9.95L-4.25 11.5Q-5.5 15.05 -9.8 17.7L-11.6 18.7L-9.35 20.1L-7 21.05L-6.65 21.1L-6.35 21.15Q-4.7 21.35 -2.75 20.4L-1.45 19.8Q1.15 18.65 5.35 17.35Q10.55 15.7 13.3 18.55Q11.55 15.3 11.3 12.35Q10.95 8.75 12.85 5.6Q12.35 4.6 11.65 3.95L10.65 3.3L6.5 3.55L4.9 4L2 4.15" />
<path style="fill:#414141;fill-opacity:1" d="M9.95,3.95Q8.55 3.95 6.15 5.15Q3.75 6.3 3.7 7.2Q3.75 5.25 4.9 4L6.5 3.55L10.65 3.3L11.65 3.95L9.95 3.95M-1.2,18.75L1.4 17.65Q6 15.5 7.2 15.45L10.05 15.95Q11.65 16.4 11.15 14.95L10.95 13.75Q10.95 13.1 11.3 12.35Q11.55 15.3 13.3 18.55Q10.55 15.7 5.35 17.35Q1.15 18.65 -1.45 19.8L-1.2 18.75M-6.2,19.9L-6 19.9L-6.65 21.1L-7 21.05L-9.35 20.1L-11.6 18.7L-9.8 17.7Q-9.2 19.95 -6.2 19.9M-2.6,9.1L-4.25 11.5L-3.85 9.95Q-3 4.65 -2.1 4.1L1.25 4L2 4.15Q-0.2 5.35 -2.6 9.1" />
<path style="fill:#232323;fill-opacity:1" d="M-9.8,17.7Q-5.5 15.05 -4.25 11.5L-2.6 9.1Q-0.2 5.35 2 4.15L4.9 4Q3.75 5.25 3.7 7.2Q3.75 6.3 6.15 5.15Q8.55 3.95 9.95 3.95L11.65 3.95Q12.35 4.6 12.85 5.6Q10.95 8.75 11.3 12.35Q10.95 13.1 10.95 13.75L11.15 14.95Q11.65 16.4 10.05 15.95L7.2 15.45Q6 15.5 1.4 17.65L-1.2 18.75L-0.8 17.3L0.15 14.55L2.25 11.35Q-0.1 12.65 -3.2 16.15Q-5 18.2 -6 19.9L-6.2 19.9Q-9.2 19.95 -9.8 17.7" />
<path style="fill:#151515;fill-opacity:1" d="M-6,19.9Q-5 18.2 -3.2 16.15Q-0.1 12.65 2.25 11.35L0.15 14.55L-0.8 17.3L-1.2 18.75L-1.45 19.8L-2.75 20.4Q-4.7 21.35 -6.35 21.15L-6.65 21.1L-6 19.9" />
</g>
</svg>
