<?xml version="1.0" encoding="utf-8"?>
<svg version="1.1" id="Layer_1"
xmlns="http://www.w3.org/2000/svg"
xmlns:xlink="http://www.w3.org/1999/xlink"
xmlns:author="http://www.sothink.com"
width="66px" height="84px"
xml:space="preserve">
<g id="2761" transform="matrix(1, 0, 0, 1, 0, 0)">
<linearGradient
id="LinearGradID_2702" gradientUnits="userSpaceOnUse" gradientTransform="matrix(0.0117493, 0.0361176, -0.0350647, 0.0059967, 27.35, 46.1)" spreadMethod ="pad" x1="-819.2" y1="0" x2="819.2" y2="0" >
<stop  offset="0" style="stop-color:#E500FF;stop-opacity:0.298039" />
<stop  offset="1" style="stop-color:#D700FF;stop-opacity:1" />
</linearGradient>
<path style="fill:url(#LinearGradID_2702) " d="M64.65,48.55L64.75 49.5Q65.7 54.15 65.7 58.35L65.65 59.9L65.15 63.8Q63.25 72.3 56.4 77.8Q50.5 82.2 44.05 83.1L38.4 83.15L35.9 83L34.45 82.9Q22.45 81.6 13.85 74.8Q9.4 71.25 6.95 67.65L6 66.1L11.55 64.95Q20.3 62.2 25.3 56.65Q44.6 34.4 0 0Q55 17.45 64 46L64.25 46.8L64.4 47.35L64.65 48.55" />
</g>
</svg>
