<?xml version="1.0" encoding="utf-8"?>
<svg version="1.1" id="Layer_1"
xmlns="http://www.w3.org/2000/svg"
xmlns:xlink="http://www.w3.org/1999/xlink"
xmlns:author="http://www.sothink.com"
width="223px" height="277px"
xml:space="preserve">
<g id="1137" transform="matrix(1, 0, 0, 1, -285.9, 59.9)">
<path style="fill:#674529;fill-opacity:1" d="M498.25,-54.05L497 -54.1L500.45 -53.9Q501.6 -53.65 502.55 -52.7Q503.55 -51.75 503.2 -50L503.3 -50L503.25 21.8L503.2 21.8L503.05 170.45L502.95 166.45L502.95 172.95L502.85 169.7L502.75 210.45L499.4 208.45Q499.8 208.45 500.15 207.8L500.15 -50L499.95 -50.85Q499.5 -51.75 498.25 -51.75L287.4 -51.8L287.4 -54.3L498.25 -54.05M502.5,212.55L505.7 211.85L505.35 212.45L505.1 212.8L503.05 214.85L287.4 214.8L287.3 212.45L502.5 212.55" />
<path style="fill:#C49A68;fill-opacity:1" d="M287.3,212.45L285.9 208.6L498.8 208.5L499.3 208.4L499.4 208.45L502.75 210.45L502.85 169.7L502.95 172.95L502.95 166.45L503.05 170.45L503.2 21.8L503.25 21.8L503.3 -50L503.2 -50Q503.55 -51.75 502.55 -52.7Q501.6 -53.65 500.45 -53.9L497 -54.1L498.25 -54.05L287.4 -54.3L287.4 -58L496.65 -58.1L498.1 -58.1L498.25 -58.1Q504.25 -57.85 505.8 -53.7L506.25 -51.9L506.3 -50.9L506.2 -50L506.2 209.75L505.7 211.85L502.5 212.55L287.3 212.45" />
<path style="fill:#34240D;fill-opacity:1" d="M505.7,211.85L506.2 209.75L506.2 -50L506.3 -50.9L506.25 -51.9L505.8 -53.7Q504.25 -57.85 498.25 -58.1L498.1 -58.1L496.65 -58.1L287.4 -58L287.4 -59.9L498.25 -59.9Q505.4 -59.9 507.55 -55Q507.9 -54.25 508.05 -52.25L508.15 -50L508.15 207.6L508.1 210.05L507.15 213.45Q506.65 214.3 505.75 215.15Q504.25 216.65 502.65 216.65Q501.05 216.6 502.15 216.7L287.4 216.7L287.4 214.8L503.05 214.85L505.1 212.8L505.35 212.45L505.7 211.85M285.9,208.6L287.4 206.7L498.15 206.7L498.15 -49.9L287.4 -49.9L287.4 -51.8L498.25 -51.75Q499.5 -51.75 499.95 -50.85L500.15 -50L500.15 207.8Q499.8 208.45 499.4 208.45L499.3 208.4L498.8 208.5L285.9 208.6" />
<path style="fill:none;stroke-width:0.1;stroke-linecap:round;stroke-linejoin:round;stroke-miterlimit:3;stroke:#662616;stroke-opacity:1" d="M498.25,-51.75Q499.5 -51.75 499.95 -50.85L500.15 -50" />
</g>
</svg>
