<?xml version="1.0" encoding="utf-8"?>
<svg version="1.1" id="Layer_1"
xmlns="http://www.w3.org/2000/svg"
xmlns:xlink="http://www.w3.org/1999/xlink"
xmlns:author="http://www.sothink.com"
width="35px" height="31px"
xml:space="preserve">
<g id="1404" transform="matrix(1, 0, 0, 1, 0, 0)">
<path style="fill:#625643;fill-opacity:1" d="M25.65,26.05L25.2 26.05L25.55 23.7L25.55 23.6Q24.05 22.2 25 19.95L25.35 19.2L24.85 19.05L26.75 19L26.85 18.9L25.3 18L24.85 17.6L25.2 17.75L27.7 17.65Q28.2 17.15 28.3 16.45L28.35 15.9L28.1 13.45L27.6 11.25L27.2 9.95Q26.55 7.9 25.45 6.5L25.35 6.4L25.3 6.35Q24.1 4.9 21.15 3.35Q18.2 1.8 14.6 1.9Q10.7 2.05 7.9 4.65L6.85 5.7L6.7 5.9L6.2 4.7L6.5 4.45L6.55 4.35Q9.55 1.65 11.35 1.25L16 0.85Q18.75 0.85 22.25 2.6Q25.75 4.35 27.35 7.7L28.9 11.85L29.1 13.25L29.25 16.25L29.2 16.8Q29 17.8 28.4 18.4L27.65 19L27.5 19.05L28.15 20.7Q28.55 21.6 27.95 22.2L27 23.15L26.75 23.4L26.7 23.8L26.4 25.95L25.65 26.05M26.3,19.7Q25.05 21.15 26.1 22.75L26.25 22.55L26.95 21.75Q27.4 21.15 27.05 20.55L26.35 19.65L26.3 19.7M26.7,23.2L26.65 23.25L26.6 23.45L26.7 23.2" />
<path style="fill:#CCC6B8;fill-opacity:1" d="M24.65,10.1Q21.85 9.2 19.35 9.2Q16.8 9.2 15.2 10.1Q13.65 10.95 11.95 10.95Q9.75 10.95 8.3 8.95L8.1 8.7L6.8 8.65L6.8 8.55Q6.85 7.75 7.6 7.75L7.5 7.55L8.7 6.2Q10.3 4.8 10.9 4.8L11.6 5.05Q12.3 5.05 12.7 4.3L12.85 4.45Q12.8 4.7 12.9 4.8L13.15 4.8L13.9 3.95Q14.55 3.05 17.25 3.05Q19.8 3.05 22.7 4.65L25.3 6.35L25.35 6.4L25.45 6.5Q26.55 7.9 27.2 9.95L27.6 11.25Q26.15 10.55 24.65 10.1M18.65,12.75L18.6 12.75L18.6 12.7L19.1 11.7L19.85 11.55Q20.95 11.55 22.25 12.3Q22.05 12.55 22.1 13.05L22.15 13.15L23.5 13.2L24.2 13.8L24.7 13.5L24.8 13.55Q25.2 13.8 25.15 14.3L24.95 14.55Q26.45 15.95 27.45 16.35L26.8 16.8L26 17.05Q25.45 17.05 23.8 15.25Q22.2 13.45 20.7 13.45L20.65 13.45Q19.75 12.85 18.65 12.75M21.4,24L21.45 23.65L21.15 23.9L20.5 24.8L18.95 24.3L18.1 24.4L18 23.9L18.05 23.7Q17.55 23.25 17.5 22.8L17.75 22.15L18 21.7Q17.25 21.95 16.9 22.4L16.45 21.95L15.85 21.05L15.8 19.65L16.55 20.05L16.6 20.5L17.5 20.35L19.5 20.55Q20.7 20.55 22.2 19.95L24.55 19.95L24.05 21.6L23.45 23.55L23.6 23.7L24.2 23.7Q23.8 23.75 23.35 24.3L24.2 24.45L23.85 26.75L23.9 27.45L23.85 27.45L23.05 27.15Q22.9 27.5 22 27.45L21.85 27.1L21.95 26.55L22 26.5L22.05 26.5Q21.35 25.85 21.35 24.95L21.4 24M21.9,23.15Q23.05 23.65 22.8 22.55L22.7 22.5L21.9 23.1L21.9 23.15M20.55,22.05L20.5 22.15Q21.2 23.15 21.55 22.05Q21.65 21.75 21.35 21.75Q20.75 21.6 20.55 22.05M10.6,6.5Q9.7 6.75 9.8 7.55L9.85 7.65Q10.75 7.8 11.15 6.9L10.75 6.55L10.6 6.5M6.7,13.5L6.8 13.6Q7.05 14.85 5.7 14.5L5.65 14.4Q5.55 13.4 6.7 13.5M14.6,16.95Q13.75 17.45 13.5 16.65L13.55 16.6Q13.7 16.1 14.35 16L14.6 16.2L14.6 16.95" />
<path style="fill:#4F4536;fill-opacity:1" d="M22.2,17.65L20.9 17.85Q16.35 18 16.65 13.95L18.95 13.85L19.1 13.85L19.4 13.9Q20.45 14.15 21.3 15.8L22.3 17.45L22.2 17.65" />
<path style="fill:#4A4131;fill-opacity:1" d="M25,27.45L25.1 26.65L25.2 26.05L25.65 26.05L26.4 25.95L26.25 27.45L26.2 28Q26.25 29.2 25.65 29.7Q25 30.2 23.5 30.2Q21.95 30.15 21 29.4Q20.05 28.65 19.75 27.25Q18.85 27.15 17.65 26.35Q16.4 25.55 16.3 24.5Q13.75 24.1 14 21.85Q14.2 19.55 13.5 18.9Q12.15 19.8 9.65 20.2Q7.1 20.6 5.25 19.05Q3.35 17.5 2.65 15.55Q1.95 13.6 2.7 10.4Q3.4 7.35 6.2 4.7L6.7 5.9Q4.7 8 3.9 10.2Q2.9 13 3.8 15.6Q4.55 17.65 6.35 18.65Q7.8 19.4 9.55 19.25Q11.3 19.05 12.7 18Q12.3 16.65 10.1 16.35Q7.85 16 11.25 15.85L11.75 15.9L12.45 16.15L13.6 17.1L14.25 18.25L14.3 18.35Q15.25 20.65 14.95 22.8Q15.8 23.6 16.45 23.55Q16.5 22.85 16.9 22.4Q17.25 21.95 18 21.7L17.75 22.15L17.5 22.8Q16.6 25.45 19.8 26.3L20.5 24.8L21.15 23.9L21.45 23.65L21.4 24L21.2 24.8L21.1 25.05Q20.75 26.3 21.05 27.3Q21.35 28.3 22.15 28.55L24.65 28.7L24.85 28.6L25 27.45" />
<path style="fill:#3C3326;fill-opacity:1" d="M18.6,12.75L18.65 12.75Q19.75 12.85 20.65 13.45Q21.45 14 22.1 15Q23.25 16.85 24.85 17.6L25.3 18L26.85 18.9L26.75 19L24.85 19.05L23.65 18.35L21.4 18.9Q19.25 19.35 17.6 18.35Q15.9 17.3 15.7 15.9Q15.5 14.5 15.6 14.25Q15.6 14 15.35 14.1L13.7 14.35L13.1 14.3Q12.35 14.1 12.05 13.15L13.2 13.45L14.95 13.35Q16.5 12.55 18.6 12.75M22.3,17.45L21.3 15.8Q20.45 14.15 19.4 13.9L19.1 13.85L18.95 13.85L16.65 13.95Q16.35 18 20.9 17.85L22.2 17.65L22.3 17.45" />
<path style="fill:#B3A38A;fill-opacity:1" d="M7.5,7.55L7.6 7.75Q6.85 7.75 6.8 8.55L6.8 8.65L8.1 8.7L8.3 8.95Q9.75 10.95 11.95 10.95Q13.65 10.95 15.2 10.1Q16.8 9.2 19.35 9.2Q21.85 9.2 24.65 10.1Q26.15 10.55 27.6 11.25L28.1 13.45L28.35 15.9L28.3 16.45L28.05 16.45L27.45 16.35Q26.45 15.95 24.95 14.55L25.15 14.3Q25.2 13.8 24.8 13.55L24.7 13.5L24.2 13.8L23.5 13.2L22.15 13.15L22.1 13.05Q22.05 12.55 22.25 12.3Q20.95 11.55 19.85 11.55L19.1 11.7L18.6 12.7L18.6 12.75Q16.5 12.55 14.95 13.35L13.2 13.45L12.05 13.15Q12.35 14.1 13.1 14.3L13.7 14.35L15.35 14.1Q15.6 14 15.6 14.25Q15.5 14.5 15.7 15.9Q15.9 17.3 17.6 18.35Q19.25 19.35 21.4 18.9L23.65 18.35L24.85 19.05L25.35 19.2L25 19.95L24.55 19.95L22.2 19.95Q20.7 20.55 19.5 20.55L17.5 20.35L16.6 20.5L16.55 20.05L15.8 19.65L15.85 21.05L16.45 21.95L16.9 22.4Q16.5 22.85 16.45 23.55Q15.8 23.6 14.95 22.8Q15.25 20.65 14.3 18.35L14.25 18.25L13.6 17.1L12.45 16.15L11.75 15.9L11.25 15.85Q7.85 16 10.1 16.35Q12.3 16.65 12.7 18Q11.3 19.05 9.55 19.25Q7.8 19.4 6.35 18.65Q4.55 17.65 3.8 15.6Q2.9 13 3.9 10.2Q4.7 8 6.7 5.9L6.85 5.7L7.5 7.55M24.85,28.6L24.65 28.7L22.15 28.55Q21.35 28.3 21.05 27.3Q20.75 26.3 21.1 25.05L21.2 24.8L21.4 24L21.35 24.95Q21.35 25.85 22.05 26.5L22 26.5L21.95 26.55L21.85 27.1L22 27.45Q22.9 27.5 23.05 27.15L23.85 27.45L23.9 27.45L25 27.45L24.85 28.6M18.05,23.7L18 23.9L18.1 24.4L18.95 24.3L20.5 24.8L19.8 26.3Q16.6 25.45 17.5 22.8Q17.55 23.25 18.05 23.7M21.9,23.1L22.7 22.5L22.8 22.55Q23.05 23.65 21.9 23.15L21.9 23.1M21.35,21.75Q21.65 21.75 21.55 22.05Q21.2 23.15 20.5 22.15L20.55 22.05Q20.75 21.6 21.35 21.75M10.75,6.55L11.15 6.9Q10.75 7.8 9.85 7.65L9.8 7.55Q9.7 6.75 10.6 6.5L10.75 6.55M5.65,14.4L5.7 14.5Q7.05 14.85 6.8 13.6L6.7 13.5Q5.55 13.4 5.65 14.4M14.6,16.2L14.35 16Q13.7 16.1 13.55 16.6L13.5 16.65Q13.75 17.45 14.6 16.95L14.6 16.2" />
<path style="fill:#E9E7DA;fill-opacity:1" d="M6.85,5.7L7.9 4.65Q10.7 2.05 14.6 1.9Q18.2 1.8 21.15 3.35Q24.1 4.9 25.3 6.35L22.7 4.65Q19.8 3.05 17.25 3.05Q14.55 3.05 13.9 3.95L13.15 4.8L12.9 4.8Q12.8 4.7 12.85 4.45L12.7 4.3Q12.3 5.05 11.6 5.05L10.9 4.8Q10.3 4.8 8.7 6.2L7.5 7.55L6.85 5.7M28.05,16.45L28.3 16.45Q28.2 17.15 27.7 17.65L25.2 17.75L24.85 17.6Q23.25 16.85 22.1 15Q21.45 14 20.65 13.45L20.7 13.45Q22.2 13.45 23.8 15.25Q25.45 17.05 26 17.05L26.8 16.8L27.45 16.35L28.05 16.45M25.1,26.65L25 27.45L23.9 27.45L23.85 26.75L24.2 24.45L23.35 24.3Q23.8 23.75 24.2 23.7L23.6 23.7L23.45 23.55L24.05 21.6L24.55 19.95L25 19.95Q24.05 22.2 25.55 23.6L25.55 23.7L25.2 26.05L25.1 26.65" />
<path style="fill:#3F3629;fill-opacity:1" d="M26.35,19.65L27.05 20.55Q27.4 21.15 26.95 21.75L26.25 22.55L26.1 22.75Q25.05 21.15 26.3 19.7L26.35 19.65" />
<path style="fill:#792E0A;fill-opacity:1" d="M18.05,2.05L16.7 3.9L16.05 4.95L15.35 6.3L14.5 8.4Q14.6 9.15 15.9 9.9Q16.5 10.25 17.35 10.6Q17.45 9.35 19.75 9.65L21.45 9.95Q23.9 10.8 25.4 11.9L25.65 12.15L26.15 12.6Q27.65 14.2 28.4 13.75L30.3 12.45L30.55 12.25Q31.95 11.2 33.45 8.7L33.45 8.45L33.4 7.1L33.3 6.2Q33.15 4.55 32.2 3.2L31.55 2.3L31.1 1.95L31.05 3.3L30.9 4.2L30.3 5.9Q29.55 7.5 27.65 8.05L26.85 8.25L26.65 8.25Q25.6 8.2 24.35 7L24.35 6.95L24.3 6.95L24.1 7.1Q23.55 7.35 23.2 7.95Q22.15 7.7 21.3 7.1Q19.05 5.6 18.05 2.05M32.45,1.95Q34 3.55 34.4 7.2L34.55 8.65Q34.5 9.6 32.55 11.7L29.3 14.35L27.7 14.9L27.05 14.55L25.25 13Q23.75 11.75 21.4 10.95L19.3 10.55Q18.35 10.5 18.1 11L17.6 11.55L15.3 10.8L15.2 10.75Q11.15 13.55 6.75 12.75L4.4 12.05Q3.65 12.15 3.45 13.3L3.25 14.45Q2.6 14.9 1.2 13.6Q0.1 12.55 0.05 11.1L0.05 10.35Q0.25 8.7 0.95 7.55L1.65 6.6Q2.9 5.3 5.1 4.8Q5.7 4.7 5.65 5.15L5.25 6.5Q4.95 7.7 5 8.8L5 8.85L5.55 9.15L7.55 9.55L9.6 9.55L10.6 9.4L12.7 8.65L13.5 8.3L13.55 8.25L13.7 7.6Q14.4 5.05 16 2.85L16.75 1.85L18.5 0Q18.75 -0.2 19.1 1.6Q19.45 3.35 20.45 4.8Q21.4 6.25 22.65 6.8Q22.6 6.4 24.4 5.6Q26.1 7.8 27.5 7.15Q28.9 6.55 29.45 5.6Q30 4.65 30.25 2.65L30.25 2.55L30.45 0.85Q30.5 0.35 31.2 0.85L32.45 1.95M4.65,5.8Q3.05 6.35 1.95 7.95L1.85 8.1L1.5 8.7L1.2 9.45Q0.9 10.25 1 11.05Q1 12.5 2.5 13.6Q2.55 12.5 3.05 11.85Q3.5 11.15 3.95 10.95L6.4 11.8Q10.55 12.8 14.45 10.2L13.75 9.15L12.85 9.6Q10.35 10.7 7.55 10.4L5.05 9.85L4.25 9.55Q4.05 8.95 4.15 8.25Q4.2 7.2 4.65 5.8" />
<path style="fill:#FFF3A1;fill-opacity:1" d="M32.2,3.2Q33.15 4.55 33.3 6.2L33.4 7.1Q32.9 5.2 31.6 3.8L31.6 3.65L31.55 2.3L32.2 3.2M16.7,3.9L18.05 2.05Q19.05 5.6 21.3 7.1Q20.3 6.75 19.45 5.95L18 4.2Q17.6 4.4 16.95 5.15L16.9 5.05L16.7 3.9M4.15,8.25Q3.55 7.65 3.75 7.1L3.75 6.95L1.85 8.4L1.85 8.1L1.95 7.95Q3.05 6.35 4.65 5.8Q4.2 7.2 4.15 8.25" />
<path style="fill:#FAC154;fill-opacity:1" d="M31.15,6.85L31.6 3.8Q32.9 5.2 33.4 7.1L33.45 8.45L32.1 9.65L31.2 10.4L31.3 10.05L31.85 8.05L31.1 8.45L31.15 6.85M18,4.2L19.45 5.95Q20.3 6.75 21.3 7.1Q22.15 7.7 23.2 7.95Q23.55 7.35 24.1 7.1L24.3 6.95L24.35 6.95L24.35 7Q25.6 8.2 26.65 8.25L26.85 8.25L25.6 8.8L25.15 9L22.35 8.15L21.1 8.05L18.95 7.05Q18.3 7.05 18.35 7.55Q17.35 7 16.95 5.15Q17.6 4.4 18 4.2M9.1,10.95L5.45 10.4Q3.65 9.7 3.1 8.45L2.1 9.05L1.85 9.05L1.85 8.4L3.75 6.95L3.75 7.1Q3.55 7.65 4.15 8.25Q4.05 8.95 4.25 9.55L5.05 9.85L7.55 10.4Q10.35 10.7 12.85 9.6L13.25 10.2Q10.85 10.95 9.1 10.95" />
<path style="fill:#BF7A24;fill-opacity:1" d="M16.9,5.05L16.95 5.15Q17.35 7 18.35 7.55Q18.3 7.05 18.95 7.05L21.1 8.05L22.35 8.15L25.15 9L23.65 9.4Q22.1 8.75 20.5 8.65L19.6 8.6L17.1 9.1L16.2 7.2L16.15 6.1L16.05 4.95L16.7 3.9L16.9 5.05M15.9,9.9L16 9.8Q16.75 9.25 18.85 9.2L19.05 9.2L18.9 9.15Q19 8.7 21 9.15Q23.15 9.65 24.5 10.45L26.4 11.75Q27.85 12.7 28.35 12.7L30.25 12.45L30.3 12.45L28.4 13.75Q27.65 14.2 26.15 12.6L25.65 12.15L25.4 11.9Q23.9 10.8 21.45 9.95L19.75 9.65Q17.45 9.35 17.35 10.6Q16.5 10.25 15.9 9.9M31.1,8.45L31.85 8.05L31.3 10.05L31.2 10.4Q29.15 11.85 27.45 11.95Q29 11.35 30.2 9.1L31.15 6.85L31.1 8.45M1.5,8.7L1.85 8.1L1.85 8.4L1.85 9.05L2.1 9.05L3.1 8.45Q3.65 9.7 5.45 10.4L9.1 10.95Q10.85 10.95 13.25 10.2L13.3 10.3Q12.9 11 11.65 11.25L8.95 11.45L5.65 10.95L3.65 9.9Q3.25 10.05 1.7 11.2L1.7 11.35L1.25 9.8L1.2 9.45L1.5 8.7" />
<path style="fill:#A66221;fill-opacity:1" d="M31.15,6.85L30.2 9.1Q29 11.35 27.45 11.95Q29.15 11.85 31.2 10.4L32.1 9.65L33.45 8.45L33.45 8.7Q31.95 11.2 30.55 12.25L30.3 12.45L30.25 12.45L28.35 12.7Q27.85 12.7 26.4 11.75L24.5 10.45Q23.15 9.65 21 9.15Q19 8.7 18.9 9.15L19.05 9.2L18.85 9.2Q16.75 9.25 16 9.8L15.9 9.9Q14.6 9.15 14.5 8.4L15.35 6.3L16.05 4.95L16.15 6.1L16.2 7.2L17.1 9.1L19.6 8.6L20.5 8.65Q22.1 8.75 23.65 9.4L25.15 9L25.6 8.8L26.85 8.25L27.65 8.05Q29.55 7.5 30.3 5.9L30.9 4.2L31.05 3.3L31.1 1.95L31.55 2.3L31.6 3.65L31.6 3.8L31.15 6.85M13.75,9.15L14.45 10.2Q10.55 12.8 6.4 11.8L3.95 10.95Q3.5 11.15 3.05 11.85Q2.55 12.5 2.5 13.6Q1 12.5 1 11.05Q0.9 10.25 1.2 9.45L1.25 9.8L1.7 11.35L1.7 11.2Q3.25 10.05 3.65 9.9L5.65 10.95L8.95 11.45L11.65 11.25Q12.9 11 13.3 10.3L13.25 10.2L12.85 9.6L13.75 9.15" />
<path style="fill:none;stroke-width:0.1;stroke-linecap:round;stroke-linejoin:round;stroke-miterlimit:3;stroke:#694A1F;stroke-opacity:1" d="M24.1,7.1L24.3 6.95L24.35 6.95L24.35 7" />
</g>
</svg>
