<?xml version="1.0" encoding="utf-8"?>
<svg version="1.1" id="Layer_1"
xmlns="http://www.w3.org/2000/svg"
xmlns:xlink="http://www.w3.org/1999/xlink"
xmlns:author="http://www.sothink.com"
width="53px" height="42px"
xml:space="preserve">
<g id="1350" transform="matrix(1, 0, 0, 1, 0, 0)">
<path style="fill:#B1552E;fill-opacity:1" d="M18.8,8.1L18.7 8.1L18.8 8L18.8 8.1M15.15,23.05L15.2 23L15.3 23L15.15 23.05M19.6,19.8L19.5 19.8L19.5 19.75L19.6 19.8M21.7,25.15L21.9 25.2L21.8 25.2L21.7 25.15M21.9,28.25L21.8 28.2L21.9 28.2L21.9 28.25" />
<path style="fill:#3C260C;fill-opacity:1" d="M46.9,36.55L46.95 36.6L46.95 36.75L46.6 36L46.9 36.55" />
<path style="fill:#9C431C;fill-opacity:1" d="M11.75,23.85L11.45 23.9L11.5 23.85L11.75 23.85" />
<path style="fill:#742108;fill-opacity:1" d="M38,26.05L38.5 26.15L39.55 26.15L39.8 26.1L39.8 26.15L39.9 26.65L37.6 26.6L36.65 26.15Q35.2 25.2 34.95 22.8L34.9 22.4L35.15 22.4L35.3 22.45L35.5 22.45L35.8 23.7Q36.4 25.6 38 26.05" />
<path style="fill:#FFC5AD;fill-opacity:1" d="M36.75,24.05Q36.1 23.8 36.95 23.2Q37.65 23.35 37.5 23.85Q37.35 24.3 36.75 24.05" />
<path style="fill:#A14C27;fill-opacity:1" d="M36.8,24.65L35.8 23.7L35.5 22.45L36.15 22.5Q38 22.65 38.9 24.15L39.6 25.5Q37.5 25.25 36.8 24.65M37.5,23.85Q37.65 23.35 36.95 23.2Q36.1 23.8 36.75 24.05Q37.35 24.3 37.5 23.85" />
<path style="fill:#853614;fill-opacity:1" d="M35.8,23.7L36.8 24.65Q37.5 25.25 39.6 25.5L39.8 26.1L39.55 26.15L38.5 26.15L38 26.05Q36.4 25.6 35.8 23.7" />
<path style="fill:#694817;fill-opacity:1" d="M33.85,4.15L31.5 3.25L32.55 4.15L34.1 5.95L35.15 7.8Q35.65 8.95 35.6 9.65L37.15 12L37.35 12.4L37.75 13.2L37.95 13.6L37.25 14L37.05 13.5L36.65 12.7L34.65 9.8L34.6 9.75L34.25 9.35L34.3 9.45Q31.7 6.6 27.6 5.55L27.95 5.8L30.1 7.55Q32.8 10.1 33.85 13.2L34.35 14.95L33.6 15Q32.95 12.75 31.65 10.65Q29.95 7.9 27.8 6.8L27.7 6.75L27.65 6.75L26 6.6Q24.2 6.3 22.6 5.35L20.7 3.95Q19.8 3.2 19.4 2.35L19 1.3L18.8 2.35L18.75 3.3L18.75 3.75Q18.8 5.55 19.6 7.25L20.75 8.1L21.85 9.3L22.2 10.05L21.65 11.95L21.75 11.35L21.85 10.85L21.8 10.45L21.75 10.35L21.6 10.15L21.2 9.55L20.7 8.95Q19.7 7.8 17.6 6.8L16.4 6.3L15.45 5.95L13.5 5.55Q14.6 6 15.6 6.85L16.4 7.6L17.8 9.3Q19.3 11.4 19.15 13Q18.95 14.6 18.2 14.95Q20.85 16 22.75 17.75L23.85 18.9L24.35 19.5L24.5 20.7L23.45 19.5L22.75 18.8L22.55 18.55L21.95 18L20 16.6L19.65 16.35L17.75 15.5L16.4 15L14 14.25L13.4 14.05L14.35 16.1L14.5 16.35L16.4 18.85L17.35 19.9Q18.6 21.2 20 22.25Q21.9 23.6 24.1 24.35L23.85 25.05L23.4 24.9L20.8 23.6Q20.7 23.45 20 23.25L19.05 22.95L17.5 22.6L16.4 22.45Q13.95 22.25 11.5 23.85L11.45 23.9L11.75 23.85L11.9 23.8L12.75 23.85L13.7 24Q15.15 24.35 16.4 25.25L16.75 25.5L18.3 26.7L20 26.55L21.5 26.6L23.4 26.8L23.3 27.4L23.25 27.55L23.2 27.55L22 27.4L20 27.25L19.85 27.25L17.4 27.65L16.4 28.15L15.55 28.8Q14.75 29.5 14.45 30.3L14.4 30.4L14.3 30.85L15.05 30.6L16.15 30.2L16.4 30.15Q17.65 29.7 18.45 29.6L20 29.5L20.05 29.5L21.2 29.45L22.75 29.55L22.95 29.55L22.9 30.35L22.8 30.35L20.6 30.2L20.2 31.15L20 31.4L19.25 32.05Q17.8 33.1 16.4 33.45L14.1 33.4L15.8 34.3L16.4 34.55L20 34.95Q21.6 34.75 23.15 33.85L23.35 34.55L21.3 35.55L20 35.8L16.8 35.45L16.4 35.35Q14.65 34.9 13.4 33.8L12.2 32.55L16.15 32.8Q15.4 32.45 14.95 31.35L14.2 31.65Q13.5 31.95 13.6 31.3L13.65 30.9L13.7 30.5Q10.3 31.25 7.9 30.05L6.4 29.05L4.75 27.1L4.75 27L4.75 26.95L5.4 27.1Q8.95 28.1 11.5 26.3L10.5 26.35L6.3 25.9Q4.55 25.4 3.45 24.4Q1.45 22.5 0.6 20.1Q-0.3 17.7 0.1 16.6L0.2 16.35Q0.5 15.55 0.9 16.15L1.05 16.35Q1.6 17 3.1 17.85Q4.85 18.8 7.05 19L10.15 18.65L7.15 16.4L7.1 16.35L5.4 15.4L4.95 15.25Q5.15 14.45 7.2 14.35L8.3 14.45L9.2 14.55L8.15 13.6L7.75 12.85Q7.15 11.5 7 9.55Q6.85 7.5 7.25 6.65L7.3 6.5L7.9 5.45Q8.25 6.1 10.5 7.8Q13.25 9.8 16.25 10.25L16.4 10.3L17.6 10.4L16.4 8.7Q15.25 7.3 13.65 6.3L11.95 5.4L12 5.35L12.05 5.3L12.4 5.2Q14.05 4.75 16.4 5.6L18.65 6.65Q17.75 4.8 18.1 2.85L18.2 2.35L18.25 2.2Q18.5 1.1 19.15 0L19.65 1.3L20.4 2.35Q22.65 5.25 27.05 5.9L26.05 5.25L26.45 5.15L27.4 5.05L30.15 5.65Q32.2 6.35 34.55 8.7Q33.8 6.65 32 4.7L31.8 4.45L31.15 3.8Q30.25 2.9 29.85 2.75L32.55 2.8Q38.25 4.3 41.7 10.3L41.35 10.7L41.15 10.95L40.6 9.9Q38.5 6.1 33.85 4.15M7.95,10.3L8 10.65Q8.5 12.95 10.35 14.75L11.2 14.95Q12.35 15.25 13.2 15.7L13.4 15.8L13.75 16L13.65 15.9L12.75 14.05Q12.35 13 12.65 13.1L13.6 13.4L15.2 13.9L16.4 14.3L17.6 14.65Q18.5 13.2 18.3 12.25L17.9 11.15L17.1 11.1L16.4 11.05L16.25 11Q12.5 10.35 9.5 7.9L8.55 7.15L7.95 6.55Q7.45 7.4 7.9 10.1L7.95 10.3M12.8,16.35L11.4 15.8L9.85 15.35L6.3 15.2L6.9 15.5L8.15 16.2L8.4 16.35L11 18.45Q12.55 20.1 13.55 21.95L16.4 21.8L17.5 21.95L18.55 22.2L19.1 22.35L16.4 19.9L14.8 17.85L14.5 17.45L13.25 16.6L12.8 16.35M1.1,17.4L0.75 16.95Q0.9 18.3 1.65 20L2.1 20.95Q4.35 25.5 8.7 25.55L9.9 25.6L11.9 25.5L12.4 25.35L12.9 24.75L11.25 24.55L10.35 24.65Q9.8 24.85 10.2 24.2L10.35 24Q10.95 23.05 12.9 22.25Q12.05 20.7 10.95 19.5L10.3 19.7L10 19.75Q8.5 20 6.75 19.75Q4.8 19.45 3 18.6L1.1 17.4M12.7,26.2L12.35 26.6Q11.65 27.25 10.8 27.6L6.9 28.05L6.3 27.95Q7.35 28.85 8.55 29.4L9.15 29.6Q11.35 30.3 14 29.7Q14.35 28.75 15.45 27.9L16.4 27.25L17.05 27L16.6 26.55L16.4 26.4Q15.05 25.25 13.55 24.9L13 25.85L12.7 26.2M16.4,30.8L15.75 31L16.4 31.9L17.2 32.45Q18.8 31.8 19.85 30.25L16.4 30.8" />
<path style="fill:#FED009;fill-opacity:1" d="M40.35,11.75L39.15 10.45L37.8 8.6L37.6 10L35.2 7.05L34.1 5.95L32.55 4.15Q33.8 4.55 35.3 5.5Q38 7.15 40.6 9.9L41.15 10.95L40.35 11.75M20.9,31L21.5 31L21.5 31.5L19.9 32.6L20 32.6L21.6 32.8Q21.6 33.2 20.25 33.7L20 33.8L16.75 34.3L16.4 34.3L15.8 34.3L14.1 33.4L16.4 33.45Q17.8 33.1 19.25 32.05L20 31.4L20.2 31.15L20.9 31M18.8,8.1Q19.5 8.2 21.05 9.7L21.6 10.3L21.8 10.45L21.85 10.85L21.75 11.35L21.65 11.95L21.6 12.6L19.7 9.3L19.6 9.3L19.7 10.9L19.1 9.5L19.1 9.1L18.9 8.55L18.8 8.1M20.7,5.6L20.6 5.5L20.2 4.9L20.2 4.1L22.6 5.35Q24.2 6.3 26 6.6L25.85 7.25L25.5 7.45L24.2 6.9Q23.8 6.7 23.25 7.3L22.3 6.85Q21.25 6.15 20.9 5L20.75 5.55L20.6 6.3L19.4 4.45L20.7 5.6M31.05,8Q32.6 8.75 33 9.6L32.5 8.2L32.6 8.2L34.6 9.75L34.65 9.8L36.65 12.7Q36.4 12.9 35.95 12.9L35.15 12.3L34.4 11.2L34.4 12.1Q33.2 9.95 31.05 8M16.4,16.9L17.8 17.6L17.8 17.3L17.05 16.35L17 16.3L17.1 16.3L17.3 16.35L20 17.45L20.45 17.65L22.55 18.65L22.5 18.8L22.9 20.05L23.4 21.1L20 18.7L19.3 18.2L19.3 19.2L19.5 19.75Q18.15 19.2 16.4 17.3L15.8 16.6L16.4 16.9M8.1,9.2L8.2 9.2L9.65 10.45L9.4 9.6L9.2 8.5Q9.55 9.2 12.8 10.2L16.25 11.05L16.3 11.8Q16.3 12.6 15.2 12.6Q12.05 12.6 11.4 11.3L11.3 11.3L11.2 12.15L11.5 13.1L11.6 13.2Q9.7 12.15 8.95 11.45L8 10.45L8.1 9.2M13.45,17.15L15.1 20.1L11.9 17.3L11.9 18.2L9.35 16.35L9.15 16.25L10.8 16.35Q12.25 16.55 13.45 17.15M10.1,19.9L11.2 22.3L11.2 22.5L9.9 22.5L8.5 22.05Q7.7 21.8 7.6 21.6L7.5 21.6L8.9 23.7L7.8 23.7Q4.95 23.4 2.8 20.9L2.4 20.4L2.5 20.45L3.7 21.2L3.7 21.1L3.2 20.25L2.8 19.2Q3.25 19.3 4.3 19.9L7.9 20.4Q9.35 20.4 10.1 19.9M21.7,25.15L19.2 24.5L18.7 24.5L19.4 25.5Q17.95 24.55 16.4 24.1L13.55 23.7L13.1 23.7L15.15 23.05L14.9 23.3L15 23.3L16.4 23.1L16.55 23.1Q18.3 23.1 19.8 23.65L20 23.85L21.7 25.15M10.8,27.6Q11.65 27.25 12.35 26.6L12.7 26.2L13 25.85L15.1 27.1L13.4 27.7L11.9 28.1L13.7 28.5L12.6 29.2L9.8 29.4L9.55 29.4L10.4 28.9L8.6 28.5L10.8 27.6M16.4,29.25Q17.1 28.7 17.6 28.7L17.4 28.6L16.6 28.5Q18.3 27.65 20 27.6L20.25 27.6L21.9 27.8L21.9 27.9L22 28.2L21.9 28.2Q21.9 28.05 21.6 28.05L21.1 28L18.6 28L18.5 28.1Q19.1 28.1 20 28.6Q18.3 28.5 16.4 29.3L16.25 29.35L16.4 29.25" />
<path style="fill:#D48D01;fill-opacity:1" d="M23.05,33.3L23.15 33.85Q21.6 34.75 20 34.95L16.4 34.55L15.8 34.3L16.4 34.3L16.75 34.3L20 33.8L20.25 33.7Q21.6 33.2 21.6 32.8L20 32.6L19.9 32.6L21.5 31.5L21.5 31L20.9 31L20.2 31.15L20.6 30.2L22.8 30.35L22.9 30.35Q22.8 32 23.05 33.3M23.2,28L22.95 29.55L22.75 29.55L21.2 29.45L20.05 29.5L20 29.5L18.45 29.6Q17.65 29.7 16.4 30.15L16.15 30.2L15.05 30.6L14.3 30.85L14.4 30.4L14.45 30.3L15.45 29.7L16.25 29.35L16.4 29.3Q18.3 28.5 20 28.6Q19.1 28.1 18.5 28.1L18.6 28L21.1 28L21.6 28.05Q21.9 28.05 21.9 28.2L22 28.2L21.9 27.9L21.9 27.8L22 27.4L23.2 27.55L23.25 27.55L23.2 28M23.4,26.8L21.5 26.6L20 26.55L18.3 26.7L16.75 25.5L16.4 25.25Q15.15 24.35 13.7 24L12.75 23.85L11.9 23.8L13.1 23.7L13.55 23.7L16.4 24.1Q17.95 24.55 19.4 25.5L18.7 24.5L19.2 24.5L21.7 25.15L20 23.85L19.8 23.65L19.05 22.95L20 23.25Q20.7 23.45 20.8 23.6L23.4 24.9L23.85 25.05L23.4 26.8M22.55,18.55L22.75 18.8L23.45 19.5L24.5 20.7Q24.65 21.45 25.2 22.05Q24.55 22.95 24.1 24.35Q21.9 23.6 20 22.25Q18.6 21.2 17.35 19.9L16.4 18.85L14.5 16.35L14.35 16.1L13.4 14.05L14 14.25L15.6 16.35L15.7 16.5L15.8 16.6L16.4 17.3Q18.15 19.2 19.5 19.75L19.3 19.2L19.3 18.2L20 18.7L23.4 21.1L22.9 20.05L22.5 18.8L22.55 18.65L22.55 18.55M16,6.3L16.4 6.6Q18.25 8.05 19.1 9.5L19.7 10.9L19.6 9.3L19.7 9.3L21.6 12.6Q21.4 15.7 23 17.6L24.1 18.65L24.35 18.85L24.35 18.9L24.35 19.5L23.85 18.9L22.75 17.75Q20.85 16 18.2 14.95Q18.95 14.6 19.15 13Q19.3 11.4 17.8 9.3L16.4 7.6L15.6 6.85Q14.6 6 13.5 5.55L15.45 5.95L16 6.3M22.2,10.05L21.85 9.3L20.75 8.1L19.6 7.25Q18.8 5.55 18.75 3.75L18.75 3.3L19.4 4.45L20.6 6.3L20.75 5.55L20.9 5Q21.25 6.15 22.3 6.85L23.25 7.3Q22.8 7.8 22.4 9.2L22.3 9.6L22.3 9.65L22.2 9.9L22.2 10.05M33.05,15L32.5 14.8L31.9 14.4L30.7 13.9L30.65 13.9Q30.75 10.2 27.55 8.5Q26.3 7.8 25.5 7.45L25.85 7.25L26 6.6L27.65 6.75L27.7 6.75L27.8 6.8Q29.95 7.9 31.65 10.65Q32.95 12.75 33.6 15L33.05 15M34.35,14.95L33.85 13.2Q32.8 10.1 30.1 7.55L27.95 5.8L30.85 7.8L31.05 8Q33.2 9.95 34.4 12.1L34.4 11.2L35.15 12.3L35.95 12.9Q36.4 12.9 36.65 12.7L37.05 13.5L37.25 14L36.8 14.2L34.6 14.9L34.35 14.95M37.95,13.6L37.75 13.2L37.35 12.4L37.15 12L35.6 9.65Q35.65 8.95 35.15 7.8L34.1 5.95L35.2 7.05L37.6 10L37.8 8.6L39.15 10.45L40.35 11.75Q39.25 12.8 38 13.55L37.95 13.6M16.25,11L16.4 11.05L17.1 11.1L17.9 11.15L18.3 12.25Q18.5 13.2 17.6 14.65L16.4 14.3L15.2 13.9L13.6 13.4L12.65 13.1Q12.35 13 12.75 14.05L13.65 15.9L13.75 16L13.4 15.8L13.2 15.7Q12.35 15.25 11.2 14.95L10.35 14.75Q8.5 12.95 8 10.65L7.95 10.3L8 10.45L8.95 11.45Q9.7 12.15 11.6 13.2L11.5 13.1L11.2 12.15L11.3 11.3L11.4 11.3Q12.05 12.6 15.2 12.6Q16.3 12.6 16.3 11.8L16.25 11.05L16.25 11M9.35,16.35L11.9 18.2L11.9 17.3L15.1 20.1L13.45 17.15L13.25 16.6L14.5 17.45L14.8 17.85L16.4 19.9L19.1 22.35L18.55 22.2L17.5 21.95L16.4 21.8L13.55 21.95Q12.55 20.1 11 18.45L8.4 16.35L8.15 16.2L6.9 15.5Q8.05 15.7 9.1 16.25L9.15 16.25L9.35 16.35M2.8,20.9Q4.95 23.4 7.8 23.7L8.9 23.7L7.5 21.6L7.6 21.6Q7.7 21.8 8.5 22.05L9.9 22.5L11.2 22.5L11.2 22.3L10.1 19.9L10 19.75L10.3 19.7L10.95 19.5Q12.05 20.7 12.9 22.25Q10.95 23.05 10.35 24L10.2 24.2Q9.8 24.85 10.35 24.65L11.25 24.55L12.9 24.75L12.4 25.35L11.9 25.5L9.9 25.6L8.7 25.55Q4.35 25.5 2.1 20.95L1.65 20Q0.9 18.3 0.75 16.95L1.1 17.4L0.9 17.4Q1.2 18.8 2.4 20.4L2.8 20.9M19.5,19.75L19.5 19.8L19.6 19.8L19.5 19.75M21.8,25.2L21.9 25.2L21.7 25.15L21.8 25.2M9.55,29.4L9.8 29.4L12.6 29.2L13.7 28.5L11.9 28.1L13.4 27.7L15.1 27.1L13 25.85L13.55 24.9Q15.05 25.25 16.4 26.4L16.6 26.55L17.05 27L16.4 27.25L15.45 27.9Q14.35 28.75 14 29.7Q11.35 30.3 9.15 29.6L8.55 29.4L9.55 29.4M19.85,30.25Q18.8 31.8 17.2 32.45L16.4 31.9L15.75 31L16.4 30.8L19.85 30.25M21.9,28.2L21.8 28.2L21.9 28.25L21.9 28.2" />
<path style="fill:#FBF734;fill-opacity:1" d="M21.9,27.8L20.25 27.6L20 27.6Q18.3 27.65 16.6 28.5L17.4 28.6L17.6 28.7Q17.1 28.7 16.4 29.25L16.25 29.35L15.45 29.7L14.45 30.3Q14.75 29.5 15.55 28.8L16.4 28.15L17.4 27.65L19.85 27.25L20 27.25L22 27.4L21.9 27.8M11.9,23.8L11.75 23.85L11.5 23.85Q13.95 22.25 16.4 22.45L17.5 22.6L19.05 22.95L19.8 23.65Q18.3 23.1 16.55 23.1L16.4 23.1L15 23.3L14.9 23.3L15.15 23.05L13.1 23.7L11.9 23.8M22.55,18.65L20.45 17.65L20 17.45L17.3 16.35L17.1 16.3L17 16.3L17.05 16.35L17.8 17.3L17.8 17.6L16.4 16.9L15.8 16.6L15.7 16.5L15.6 16.35L14 14.25L16.4 15L17.75 15.5L19.65 16.35L20 16.6L21.95 18L22.55 18.55L22.55 18.65M18.9,8.55L19.1 9.1L19.1 9.5Q18.25 8.05 16.4 6.6L16 6.3L15.45 5.95L16.4 6.3L17.6 6.8Q19.7 7.8 20.7 8.95L21.2 9.55L21.6 10.15L21.75 10.35L21.8 10.45L21.6 10.3L21.05 9.7Q19.5 8.2 18.8 8.1L18.9 8.55M18.75,3.3L18.8 2.35L19 1.3L19.4 2.35Q19.8 3.2 20.7 3.95L22.6 5.35L20.2 4.1L20.2 4.9L20.6 5.5L20.7 5.6L19.4 4.45L18.75 3.3M27.95,5.8L27.6 5.55Q31.7 6.6 34.3 9.45L34.25 9.35L34.6 9.75L32.6 8.2L32.5 8.2L33 9.6Q32.6 8.75 31.05 8L30.85 7.8L27.95 5.8M32.55,4.15L31.5 3.25L33.85 4.15Q38.5 6.1 40.6 9.9Q38 7.15 35.3 5.5Q33.8 4.55 32.55 4.15M7.9,10.1Q7.45 7.4 7.95 6.55L8.55 7.15L9.5 7.9Q12.5 10.35 16.25 11L16.25 11.05L12.8 10.2Q9.55 9.2 9.2 8.5L9.4 9.6L9.65 10.45L8.2 9.2L8.1 9.2L8 10.45L7.95 10.3L7.9 10.1M18.8,8L18.7 8.1L18.8 8.1L18.8 8M13.25,16.6L13.45 17.15Q12.25 16.55 10.8 16.35L9.15 16.25L9.1 16.25Q8.05 15.7 6.9 15.5L6.3 15.2L9.85 15.35L11.4 15.8L12.8 16.35L13.25 16.6M3,18.6Q4.8 19.45 6.75 19.75Q8.5 20 10 19.75L10.1 19.9Q9.35 20.4 7.9 20.4L4.3 19.9Q3.25 19.3 2.8 19.2L3.2 20.25L3.7 21.1L3.7 21.2L2.5 20.45L2.4 20.4Q1.2 18.8 0.9 17.4L1.1 17.4L3 18.6M15.3,23L15.2 23L15.15 23.05L15.3 23M8.6,28.5L10.4 28.9L9.55 29.4L8.55 29.4Q7.35 28.85 6.3 27.95L6.9 28.05L10.8 27.6L8.6 28.5" />
<path style="fill:#62471B;fill-opacity:1" d="M27.45,14.25Q27.35 12.75 25.85 11.25L24.85 10.45L24.25 10.25L25.1 10.15Q26.6 10.7 27.35 12.15Q27.9 13.15 28.05 14.1L27.45 14.25" />
<path style="fill:#662D11;fill-opacity:1" d="M22.9,30.35L22.95 29.55L23.2 28L23.25 27.55L23.3 27.4L23.4 26.8L23.85 25.05L24.1 24.35Q24.55 22.95 25.2 22.05Q24.65 21.45 24.5 20.7L24.35 19.5L24.35 18.9L24.35 18.85L24.45 18.25L24.55 17.75L24.75 17L24.85 16.75L25 16.45L25.45 15.7L25.5 15.6Q26.25 14.7 27.45 14.25L28.05 14.1L30 13.9L30.15 13.9L30.65 13.9L30.7 13.9L31.9 14.4L32.5 14.8L33.05 15L33.6 15L34.35 14.95L34.6 14.9L36.8 14.2L37.25 14L37.95 13.6L38 13.55Q39.25 12.8 40.35 11.75L41.15 10.95L41.35 10.7L41.7 10.3L42.9 8.7Q44.65 9.4 46.05 10.45Q47.4 11.4 48.45 12.65L49.65 14.3Q50.6 15.9 51.15 17.8L51.4 18.75L51.55 19.6Q51.9 22 51.2 24.05Q50.45 26.25 48.45 28L48.2 28.2L46.05 25.55L46.05 25.5L44.95 24.35Q42.05 21.5 37.8 20.45L33.55 19.65L33.4 20Q32.85 21.2 32 21.95L31.45 22.35L29.9 23.05L29.45 24.8Q28.35 29.65 29.55 34.25L29.8 35.15L30.25 36.35L30.55 37.45L30.55 37.5L30.1 37.95Q28.25 38.65 26.5 37.95Q24.85 37.3 24.2 36.5Q23.7 35.95 23.35 34.55L23.15 33.85L23.05 33.3Q22.8 32 22.9 30.35M38.3,14.45L37.9 14.65L37.6 14.85L35.2 15.7L34.6 15.8L34.5 15.8L33.8 15.85L33.3 15.85Q33.95 17.05 33.7 18.8L33.7 18.85L33.8 18.8L35.3 19L37 19.25Q41.65 20 44.7 22.75L45.25 23.3L46.05 24.2L48.2 26.8L48.45 26.55L49.75 24.6Q51 22.1 50.5 19.15L50.5 19.1L49.7 16.25L48.45 14.05L48.05 13.55L47.35 12.75L46.05 11.65L43.2 9.9L42.2 11.2L41.5 11.9L41.2 12.2L41.05 12.35L38.7 14.2L38.3 14.45M45.7,15.35Q45.45 15.45 46 16.5L46.05 16.65L46.45 17.75L47.1 20.85L47.7 21.4Q47.95 21.05 47.85 19.35L47.65 18.1L46.95 16.35L46.05 15.15L45.7 15.35M48.7,19.45L48.45 22L48.25 22.7L48.05 22.65L47.05 21.8Q46.2 20.95 46.15 20.4L46.05 19.95L45.8 18.65L45.5 17.5L45.2 16.7L44.8 15.5L44.8 15.45L44.9 15.25L45.7 14.35L46.05 14.25L46.4 14.45Q47.8 15.75 48.4 17.9L48.45 18.05L48.55 18.4L48.7 19.45M40.35,15.55L40.4 15.4Q40.6 15.2 41.15 14.95Q41.65 14.65 42.15 15.15L42.95 16.55L43.05 17.05L43.1 17.4L43.05 18.4L43 18.5L42.9 18.7L41.35 17.85Q40.75 17.5 40.75 16.95L40.7 16.75L40.35 15.6L40.35 15.55M42.2,16.35L41.6 15.55Q41.4 15.45 41.15 15.7L41.3 16.8L41.35 17.15L42.5 17.65L42.45 16.95L42.2 16.35M26.3,16.1L25.9 16.65L25.4 17.6L25.3 17.85L25.1 18.5L25 19.1L25 19.15Q24.95 20.15 25.7 21.05Q26.8 22.4 28.7 22.25Q30.6 22.1 31.8 20.8L32.35 20.1L32.65 19.5L32.95 18L32.7 16.75L32.7 16.7L31.95 15.55L31.55 15.2L31.1 14.95L29.45 14.65L28.05 14.85L27.4 15.15L27.15 15.3L26.35 16.05L26.3 16.1M24.05,28.95L24 29.7L23.95 30.15Q23.8 32.85 24.35 34.4Q25 36.3 26.7 36.9L27.35 37.1L29.35 37.05L29.4 37.05L28.95 35.5L28.65 34.3L28.15 31.95Q27.9 30.75 28 28.25Q28.05 26.55 28.5 24.9L29.05 23.3L28.9 23.25L28.3 23.3Q26.7 23.3 25.75 22.5L24.95 24.6L24.8 25.05L24.35 26.9L24.05 28.95" />
<path style="fill:#AA692B;fill-opacity:1" d="M35.3,19L33.8 18.8L33.7 18.85L33.7 18.8Q33.95 17.05 33.3 15.85L33.8 15.85L34.5 15.8L34.6 15.8L34.8 16.2L35.55 16.85Q38.1 16.55 40.7 16.75L40.75 16.95Q40.75 17.5 41.35 17.85L42.9 18.7L43 18.5L43.05 18.4L43.1 17.4L43.05 17.05L43.4 17.1L45.5 17.5L45.8 18.65L46.05 19.95L46.15 20.4Q46.2 20.95 47.05 21.8L48.05 22.65L48.25 22.7L48.45 22L48.7 19.45L48.55 18.4L48.9 18.55L49.1 18.6L50.5 19.15Q51 22.1 49.75 24.6L49.7 24.6L48.45 25L48.1 25.1L46.05 22.8L43.45 20.9Q40.35 19.05 35.3 19M25.8,18.35Q27 19.4 28.55 19.4Q31.5 19.4 32.4 17.65L32.7 16.75L32.95 18L32.65 19.5L32.35 20.1Q30.95 21.5 28.6 21.4Q26.25 21.3 25.75 20.45L25 19.1L25.1 18.5L25.3 17.85L25.8 18.35M28.1,36.3L29.35 37.05L27.35 37.1L26.55 36.35Q25.3 35.05 24.85 33.95Q24.55 33.3 24.4 31.1L24.35 28.15L24.35 26.9L24.8 25.05L24.95 24.6L25.75 22.5Q26.7 23.3 28.3 23.3L28.9 23.25L29.05 23.3L28.5 24.9L28.4 24.9L27.6 25L26.45 25.05L25.95 26.3L25.75 29.75L25.95 33Q26.45 35.1 27.95 36.2L28.1 36.3" />
<path style="fill:#C68331;fill-opacity:1" d="M49.1,18.6L48.9 18.55Q49 17.45 48.6 16.35L47.65 14.75L48.45 15.25L49.7 16.25L50.5 19.1L50.5 19.15L49.1 18.6M43.45,20.9L46.05 22.8L48.1 25.1L48.45 25L49.7 24.6L49.75 24.6L48.45 26.55L48.2 26.8L46.05 24.2L45.25 23.3L44.7 22.75Q41.65 20 37 19.25L35.3 19Q40.35 19.05 43.45 20.9M40.35,15.55L40.35 15.6L40.7 16.75Q38.1 16.55 35.55 16.85L34.8 16.2L34.6 15.8L35.2 15.7L40.35 15.55M43.4,17.1L43.7 16.1L43.55 15.35L44.8 15.45L44.8 15.5L45.2 16.7L45.5 17.5L43.4 17.1M25.3,17.85L25.4 17.6L26 17.5L27.3 17.5L27.6 18.25L28.3 18.3Q29.4 18.3 29.4 17.45Q29.4 16.7 28.9 16.6Q29.05 16.2 29.4 16.15L30.5 16.1L32 16.45L32.7 16.7L32.7 16.75L32.4 17.65Q31.5 19.4 28.55 19.4Q27 19.4 25.8 18.35L25.3 17.85M32.35,20.1L31.8 20.8Q30.6 22.1 28.7 22.25Q26.8 22.4 25.7 21.05Q24.95 20.15 25 19.15L25 19.1L25.75 20.45Q26.25 21.3 28.6 21.4Q30.95 21.5 32.35 20.1M27.35,37.1L26.7 36.9Q25 36.3 24.35 34.4Q23.8 32.85 23.95 30.15L24 29.7L24.05 28.95L24.35 26.9L24.35 28.15L24.4 31.1Q24.55 33.3 24.85 33.95Q25.3 35.05 26.55 36.35L27.35 37.1M27.95,36.2Q26.45 35.1 25.95 33L25.75 29.75L25.95 26.3L26.45 25.05L27.6 25Q26.95 25.9 26.9 29.95Q26.85 32.55 27.4 34.5L28.1 36.3L27.95 36.2" />
<path style="fill:#F3B94B;fill-opacity:1" d="M35.2,15.7L37.6 14.85L37.9 14.65L38.3 14.45L38.7 14.2Q40.15 13.95 41.65 13L44.05 10.95Q44.45 11 46.05 11.95L47.35 12.75L48.05 13.55L48.45 14.05L49.7 16.25L48.45 15.25L47.65 14.75L48.6 16.35Q49 17.45 48.9 18.55L48.55 18.4L48.45 18.05L48.4 17.9Q47.8 15.75 46.4 14.45L46.05 14.25L45.7 14.35L44.9 15.25L44.8 15.45L43.55 15.35L43.7 16.1L43.4 17.1L43.05 17.05L42.95 16.55L42.15 15.15Q41.65 14.65 41.15 14.95Q40.6 15.2 40.4 15.4L40.35 15.55L35.2 15.7M32,16.45L30.5 16.1L29.4 16.15Q29.05 16.2 28.9 16.6Q29.4 16.7 29.4 17.45Q29.4 18.3 28.3 18.3L27.6 18.25L27.3 17.5L26 17.5L25.4 17.6L25.9 16.65L26.3 16.1L26.35 16.05L26.4 16.15L26.85 16.55L27.35 16.6L27.6 16.6Q28.3 16.5 28.55 15.85Q28.9 15.1 30.3 15.1L31.55 15.2L31.95 15.55L32.7 16.7L32 16.45M28.1,36.3L27.4 34.5Q26.85 32.55 26.9 29.95Q26.95 25.9 27.6 25L28.4 24.9L28.5 24.9Q28.05 26.55 28 28.25Q27.9 30.75 28.15 31.95L28.65 34.3L28.95 35.5L29.4 37.05L29.35 37.05L28.1 36.3" />
<path style="fill:#E9CB9E;fill-opacity:1" d="M39.3,28.4L39 28.85L38.85 29.25Q38.6 29.85 38.65 30.65L38.9 30.45L39.8 29.25L39.85 29.15L40.2 28.85L40.6 28.9L42.35 29.25Q43.55 29.65 44.45 30.45L45.05 31.05Q45.75 31.9 45.95 32.85L45.45 33.4L45.05 34.25Q45.2 34.1 45.5 33.9L46.05 33.55L46.45 33.3L46.6 33.3L48.45 33.6L50.2 34.7Q51.35 35.75 51.2 36.75L50.85 37.1L50.75 37.15L48.45 37.4L47.95 37.4L46.05 37.2Q44.75 36.9 43.6 36.2L42.25 35.15L40.6 33.9Q39.45 33.2 38.3 33L38.45 34.05L38.5 34.55L38.55 34.9L38.5 34.95L38.3 35.4L37.9 35.8L37.6 35.9L37.2 36L36.2 36.2L35.3 36.2Q33.85 36 32.9 34.75L32.65 34.35L32.4 34.35L31 34.2Q30.4 31.5 30.4 28.55Q30.4 25.6 30.6 24.9L30.85 24.1L32.5 23.5L33.7 22.85L33.7 22.9Q33.65 23.9 34.15 24.75L34.75 25.9L34.9 26.15L35.25 26.6L35.95 27.3Q37.1 28.4 38.95 28.4L39.3 28.4M39.95,39.05L39.25 38.75Q37.6 37.95 36.65 36.8Q38 36.7 38.6 36.05L39.6 36.6L40.6 37.45L41.6 38.2Q41 38.7 41 39.4L39.95 39.05M44.2,26.7L43.35 27.55L43.1 27.45L41.9 27.35Q41.35 26.65 41.15 25.15L40.75 23.6L44.45 25.65L44.7 25.8L44.2 26.7M42.35,30.65L42.3 30.75Q42.25 31.4 42.55 32L42.65 32.15Q43.85 31.75 42.8 30.6L42.7 30.55L42.35 30.65M40.6,30.7Q40.2 31 40.6 31.45L40.65 31.5L40.7 31.55Q41.55 31.3 40.9 30.6L40.8 30.55L40.6 30.7M43.5,33.75Q42.85 34.05 43.3 34.6L43.4 34.65L43.6 34.6Q44.15 34.35 43.6 33.8L43.5 33.75M47.5,36.6L48.45 36.45L48.8 36.3L48.7 36.4L48.7 36.45L49.15 36.2Q49.85 35.7 49.5 34.95Q49.2 34.4 48.45 34.45L47.8 34.55Q46.5 34.9 46.6 36L46.95 36.75L46.95 36.6L47.5 36.6M30,13.9L28.05 14.1Q27.9 13.15 27.35 12.15Q26.6 10.7 25.1 10.15L24.25 10.25L24.85 10.45L24.5 10.95Q24.25 11.3 24.2 12.55Q24.15 13.75 24.65 14.55L25.15 15.3L25.45 15.7L25 16.45Q23.9 15.95 22.85 14.05L22.5 13.35L22.5 11.55L22.55 11.35L22.6 11Q22.75 10 23.2 9.1L23.7 9.1Q25.75 9.1 27.75 10.6Q29.3 11.8 29.95 13.35L30 13.9M32.35,24.35Q32.75 25 33.2 24.35L32.95 24L32.8 23.95Q32.4 23.9 32.35 24.3L32.35 24.35M33.3,25.95L32.65 26.15L32.4 26.25Q31.45 26.7 31.05 27.7L31.1 27.8L32.4 27.35L33.7 26.35L33.65 26.15L33.3 25.95M32.4,29.7Q33.6 29.25 33.3 28.15Q32.75 28.35 32.4 28.65Q31.9 29.1 31.7 29.75L31.7 29.85L32.4 29.7" />
<path style="fill:#EEECEA;fill-opacity:1" d="M50.2,34.7L48.45 33.6L46.6 33.3L46.45 33.3Q47.5 32.75 48.45 32.65L48.5 32.65L50.7 32.75Q51.5 33.05 51.9 33.75Q52.25 34.45 52 35.25L51.25 36.7L51.2 36.75Q51.35 35.75 50.2 34.7M44.95,26Q44.9 27.25 44.5 28.1Q44.05 27.75 43.35 27.55L44.2 26.7L44.7 25.8L44.95 26M45.05,31.05L44.45 30.45Q43.55 29.65 42.35 29.25L40.6 28.9L40.2 28.85L40.6 28.6L42.1 28.3Q43.5 28.35 44.8 29.25L44.95 29.35L46.05 30.2L46.9 31.05L47.25 32Q46.55 32.3 46.05 32.75L45.95 32.85Q45.75 31.9 45.05 31.05M24.1,7.7Q27.9 9.3 28.95 10.75Q29.75 11.85 29.95 13.35Q29.3 11.8 27.75 10.6Q25.75 9.1 23.7 9.1L23.2 9.1L24.1 7.7" />
<path style="fill:#694A1F;fill-opacity:1" d="M21.65,11.95L22.2 10.05L22.2 9.9L22.3 9.65L22.3 9.6L22.4 9.2Q22.8 7.8 23.25 7.3Q23.8 6.7 24.2 6.9L25.5 7.45Q26.3 7.8 27.55 8.5Q30.75 10.2 30.65 13.9L30.15 13.9L30 13.9L29.95 13.35Q29.75 11.85 28.95 10.75Q27.9 9.3 24.1 7.7L23.2 9.1Q22.75 10 22.6 11L22.55 11.35L22.5 11.55L22.5 13.35L22.5 13.45Q22.75 16.65 24.55 17.75L24.45 18.25L24.35 18.85L24.1 18.65L23 17.6Q21.4 15.7 21.6 12.6L21.65 11.95M46.05,33.55L45.5 33.9Q45.2 34.1 45.05 34.25L45.45 33.4L45.95 32.85L46.05 32.75Q46.55 32.3 47.25 32L46.9 31.05L46.05 30.2L44.95 29.35L44.8 29.25Q43.5 28.35 42.1 28.3L40.6 28.6L40.2 28.85L39.85 29.15L39.8 29.25L38.9 30.45L38.65 30.65Q38.6 29.85 38.85 29.25L39 28.85L39.3 28.4L40.05 27.8L39.9 26.7L39.9 26.65L39.8 26.15L39.8 26.1L39.6 25.5L38.9 24.15Q38 22.65 36.15 22.5L35.5 22.45L35.3 22.45L35.15 22.4L34.9 22.4L34.85 22.4L34.2 22.4L33.9 22.45L34.25 22.1L34.55 21.85L35 21.7L35.6 21.65Q38.2 21.75 39.4 23Q40 23.7 40.2 24.75L40.4 25.6L40.55 26.15L40.6 26.45Q40.9 27.55 41.25 27.45L41.9 27.35L43.1 27.45L43.35 27.55Q44.05 27.75 44.5 28.1Q44.9 27.25 44.95 26L45 25.3L44.95 24.35L46.05 25.5L46.05 25.55L46 26.7L45.3 28.45L46.05 29.1L46.2 29.25L47.85 31.05L48.35 31.7L48.45 31.7L49.9 31.55Q52.9 32.05 52.9 34.4Q52.9 36.05 52.1 37.1L51.4 37.8Q50.1 38.65 48.45 39.05L47.85 39.15L46.05 39.2L43.6 38.45L43.55 38.4Q42.3 38.55 42 39.55L41.9 39.95Q41.7 41.3 40.6 41.45Q39.5 41.55 38.6 40.8L36.45 39.1L36.4 39.05L35.3 38.3Q34.5 37.8 33.55 37.35L32.4 36.85L31.65 36.6L30.25 36.35L29.8 35.15L31.3 35.5L32.4 35.85Q34 36.35 35.3 37.15Q36.15 37.65 36.9 38.3L37.8 39.05Q39.7 40.55 40.25 40.5Q40.95 40.45 41 39.45L41 39.4Q41 38.7 41.6 38.2L42.25 37.7L40.6 36.3L40.15 35.9Q39.45 35.25 38.55 34.9L38.5 34.55L38.45 34.05Q39.4 34.25 40.6 35.2L40.75 35.3L42.95 36.9L43.6 37.3Q44.15 37.55 44.9 37.9L46.05 38.2L48.15 38.15L48.45 38.1Q49.85 37.85 50.75 37.15L50.85 37.1L51.2 36.75L51.25 36.7L52 35.25Q52.25 34.45 51.9 33.75Q51.5 33.05 50.7 32.75L48.5 32.65L48.45 32.65Q47.5 32.75 46.45 33.3L46.05 33.55M48.95,36.05L48.95 36Q49.15 35.7 48.95 35.3L48.45 35.05L48.05 35.1Q47.4 35.3 47.2 35.65Q46.95 35.9 46.95 36.6L46.9 36.55L46.6 36Q46.5 34.9 47.8 34.55L48.45 34.45Q49.2 34.4 49.5 34.95Q49.85 35.7 49.15 36.2L48.7 36.45L48.7 36.4L48.8 36.3Q48.8 36.2 48.95 36.05" />
<path style="fill:#C4944D;fill-opacity:1" d="M42.45,16.95L42.5 17.65L41.35 17.15L41.3 16.8L41.15 15.7Q41.4 15.45 41.6 15.55L42.2 16.35L42.45 16.95M38.3,33Q39.45 33.2 40.6 33.9L42.25 35.15L43.6 36.2Q44.75 36.9 46.05 37.2L47.95 37.4L48.45 37.4L50.75 37.15Q49.85 37.85 48.45 38.1L48.15 38.15L46.05 38.2L44.9 37.9Q44.15 37.55 43.6 37.3L42.95 36.9L40.75 35.3L40.6 35.2Q39.4 34.25 38.45 34.05L38.3 33M39.9,26.65L39.9 26.7L40.05 27.8L39.3 28.4L38.95 28.4Q37.1 28.4 35.95 27.3L35.25 26.6L34.9 26.15L34.75 25.9L34.15 24.75Q33.65 23.9 33.7 22.9L33.7 22.85L32.5 23.5L30.85 24.1L30.6 24.9Q30.4 25.6 30.4 28.55Q30.4 31.5 31 34.2L32.4 34.35L32.65 34.35L32.9 34.75Q33.85 36 35.3 36.2L36.2 36.2L37.2 36L37.6 35.9L37.9 35.8L38.3 35.4L38.5 34.95L38.55 34.9Q39.45 35.25 40.15 35.9L40.6 36.3L42.25 37.7L41.6 38.2L40.6 37.45L39.6 36.6L38.6 36.05Q38 36.7 36.65 36.8Q37.6 37.95 39.25 38.75L39.95 39.05L41 39.4L41 39.45Q40.95 40.45 40.25 40.5Q39.7 40.55 37.8 39.05L36.9 38.3Q36.15 37.65 35.3 37.15Q34 36.35 32.4 35.85L31.3 35.5L29.8 35.15L29.55 34.25Q28.35 29.65 29.45 24.8L29.9 23.05L31.45 22.35L32 21.95Q32.85 21.2 33.4 20L33.55 19.65L37.8 20.45Q42.05 21.5 44.95 24.35L45 25.3L44.95 26L44.7 25.8L44.45 25.65L40.75 23.6L41.15 25.15Q41.35 26.65 41.9 27.35L41.25 27.45Q40.9 27.55 40.6 26.45L40.55 26.15L40.4 25.6L40.2 24.75Q40 23.7 39.4 23Q38.2 21.75 35.6 21.65L35 21.7L34.55 21.85L34.25 22.1L33.9 22.45L34.2 22.4L34.85 22.4L34.9 22.4L34.95 22.8Q35.2 25.2 36.65 26.15L37.6 26.6L39.9 26.65M42.7,30.55L42.8 30.6Q43.85 31.75 42.65 32.15L42.55 32Q42.25 31.4 42.3 30.75L42.35 30.65L42.7 30.55M40.8,30.55L40.9 30.6Q41.55 31.3 40.7 31.55L40.65 31.5L40.6 31.45Q40.2 31 40.6 30.7L40.8 30.55M43.6,33.8Q44.15 34.35 43.6 34.6L43.4 34.65L43.3 34.6Q42.85 34.05 43.5 33.75L43.6 33.8M48.8,36.3L48.45 36.45L47.5 36.6L46.95 36.6Q46.95 35.9 47.2 35.65Q47.4 35.3 48.05 35.1L48.45 35.05L48.95 35.3Q49.15 35.7 48.95 36L48.95 36.05Q48.8 36.2 48.8 36.3M24.85,16.75L24.75 17L24.55 17.75Q22.75 16.65 22.5 13.45L22.5 13.35L22.85 14.05Q23.9 15.95 25 16.45L24.85 16.75M25.45,15.7L25.15 15.3L24.65 14.55Q24.15 13.75 24.2 12.55Q24.25 11.3 24.5 10.95L24.85 10.45L25.85 11.25Q27.35 12.75 27.45 14.25Q26.25 14.7 25.5 15.6L25.45 15.7M32.35,24.3Q32.4 23.9 32.8 23.95L32.95 24L33.2 24.35Q32.75 25 32.35 24.35L32.35 24.3M33.65,26.15L33.7 26.35L32.4 27.35L31.1 27.8L31.05 27.7Q31.45 26.7 32.4 26.25L32.65 26.15L33.3 25.95L33.65 26.15M31.7,29.85L31.7 29.75Q31.9 29.1 32.4 28.65Q32.75 28.35 33.3 28.15Q33.6 29.25 32.4 29.7L31.7 29.85" />
<path style="fill:#FFEBC6;fill-opacity:1" d="M46.05,11.95Q44.45 11 44.05 10.95L41.65 13Q40.15 13.95 38.7 14.2L41.05 12.35L41.2 12.2L41.5 11.9L42.2 11.2L43.2 9.9L46.05 11.65L47.35 12.75L46.05 11.95M30.3,15.1Q28.9 15.1 28.55 15.85Q28.3 16.5 27.6 16.6L27.35 16.6L26.85 16.55L26.4 16.15L26.35 16.05L27.15 15.3L27.4 15.15L28.05 14.85L29.45 14.65L31.1 14.95L31.55 15.2L30.3 15.1" />
<path style="fill:#3E3A2F;fill-opacity:1" d="M37.2,26.7L37.25 26.7L37.4 26.65L37.6 26.65L37.75 28.2L38.2 31.95L38.8 35.05L38.8 35.1L38.75 35.15L38.15 35.8L37 36.25L35.9 36.35L34.65 36.15Q33.7 35.95 33.2 35.5L32.7 34.9Q32.15 33 32.95 31.5Q33.7 29.9 35.45 28.25L37.05 26.8L37.2 26.7M35.2,35.45L35.25 35.45L36.35 35.45Q37.05 35.35 37.75 34.75L37.6 34.3L37.55 34.1L37.2 32.5L37.1 31.45L37 30.15L36.9 29.2L36.8 28.7L36.25 28.65L35.6 29.2L34.95 29.95L34.6 30.3L34.45 30.5L34.45 30.55L34.4 30.6L33.7 31.8L33.65 31.9Q33.4 32.45 33.3 33.15Q33.1 34.1 33.45 34.55L34.2 35.15L35.2 35.45" />
<path style="fill:#F0EAC6;fill-opacity:1" d="M36.1,33.85L35.15 33.55L34.9 33.4Q34.55 32.9 34.5 32.2Q34.35 31.2 34.55 30.4L34.55 30.45L34.45 30.5L34.6 30.3L34.95 29.95Q35.25 29.55 35.6 29.65L35.95 29.65L36.35 31.3L36.75 32.7Q36.85 33.15 37.4 33.6L37.35 33.6L36.1 33.85M34.2,35.15L33.45 34.55Q33.1 34.1 33.3 33.15Q33.4 32.45 33.65 31.9L33.55 32.85Q33.5 33.6 33.85 34.1L34.95 35.25L35 35.3L35.2 35.45L34.2 35.15" />
<path style="fill:#FFFCEE;fill-opacity:1" d="M35.6,29.2L36.25 28.65L36.8 28.7L36.9 29.2L37 30.15L37.1 31.45L37.2 32.5L37.55 34.1L37.6 34.3L37.35 33.6L37.4 33.6Q36.85 33.15 36.75 32.7L36.35 31.3L35.95 29.65L35.6 29.65Q35.25 29.55 34.95 29.95L35.6 29.2" />
<path style="fill:#9D8E79;fill-opacity:1" d="M37.75,34.75Q37.05 35.35 36.35 35.45L35.25 35.45L35.2 35.45L35 35.3L34.95 35.25L33.85 34.1Q33.5 33.6 33.55 32.85L33.65 31.9L33.7 31.8L34.4 30.6L34.45 30.55L34.45 30.5L34.55 30.45L34.55 30.4Q34.35 31.2 34.5 32.2Q34.55 32.9 34.9 33.4L35.15 33.55L36.1 33.85L37.35 33.6L37.6 34.3L37.75 34.75" />
</g>
</svg>
