<?xml version="1.0" encoding="utf-8"?>
<svg version="1.1" id="Layer_1"
xmlns="http://www.w3.org/2000/svg"
xmlns:xlink="http://www.w3.org/1999/xlink"
xmlns:author="http://www.sothink.com"
width="38px" height="45px"
xml:space="preserve">
<g id="539" transform="matrix(1, 0, 0, 1, 0, 0)">
<path style="fill:#BB482E;fill-opacity:1" d="M23.9,6.8Q23.8 8.75 24.1 8.6L25 8.2L26 8.15L28.45 8.6L29.55 9L29.65 9.05Q28.2 8.85 26.8 9.5L26.45 9.7Q25.5 10.25 25 10.85L24.95 10.8L23.9 10.4Q24.45 9.6 25.25 9.3L23.55 9.5Q22.8 9.7 22.15 10.1L21.5 10.1L21.65 9.7Q22.4 7.35 20.95 5L20.4 7.55Q19.3 10.35 16.8 11.2Q16.7 9.9 16 8.65Q14.6 6.15 11.6 5.65Q12.4 6.2 12.7 8Q13.05 10.45 11.3 12.5L10.25 10.75Q9.4 9.9 8.4 9.5Q7.5 9.15 6.45 9.15Q7.1 9.2 8.05 10.25L8.45 10.75Q9.95 12.6 9.3 14.4Q9.1 14.05 8.55 13.85L6.6 13.9L6.3 14L6.5 14.1L7.7 15.05Q8.6 15.9 8.65 17.55L8 17.45L7.9 17.45L7.25 16.45L6.5 15.95L6 15.7L5.75 15.65L5.7 15.65L5.6 15.6Q5.15 15.3 4.55 15.1L4.5 15.1L3.3 14.8Q3.85 14.1 5.3 13.3L5.9 13L6.5 13.1L6.85 13.2L7 13.2L7.1 12.6L6.8 11.05Q6.4 10.05 5.55 9.6L5.05 8.8Q5.95 8.05 7.9 8.1L8.55 8.2L8.95 8.4L9.95 9.5L10.35 9.15Q10.8 7.7 10.25 6.45L10.15 6.25L9.8 5L9.3 4.3L12.25 4.45L14.1 5.3L16 6.55L16.15 6.75Q16.95 8.4 17.4 7.9L18.9 5.6Q19.65 4.75 19.7 3.55L19.75 3.3L19.5 1.95Q21.85 2.7 23.25 4.95L23.5 5.4L23.8 6L23.9 6.8M21,17.6L19.85 16.85L19.75 16.85L19.8 14.05L20.35 13.95L20.55 13.95L20.8 14.4L21.05 14.75L21.05 14.8L21 15.55L21 17.6M19.3,24.25L19.1 24.1L19.2 22.15L19.5 22.3L20.9 22.85L20.7 25.25L19.95 24.75L19.3 24.25M7.8,23.9L6.95 23.8L5.9 23.4L5.25 23.05L5.15 23L4.5 22.6Q4.15 22.05 4.15 21.65L4.3 21.25L4.3 21.2L4.7 21.05L4.9 20.9L5.65 20.3L5.7 20.2L5.85 20.15L6.1 20.05L6.4 19.9L6.65 19.7L6.85 19.75L7.6 19.95L7.8 20L7.65 20.1L7.15 20.4L6.65 20.7L6.35 20.85L5.85 21L5.35 21.1L6.35 22.65L6.4 22.7L6.65 22.95L7.35 23.6L7.8 23.9M17.05,34.3L16 33.9L16.25 34.2L15.4 33.8L15.25 33.55L14.5 33.25L14.75 32.7L15.85 32.9L16.95 33.45Q17.3 33.55 17.4 33.7L17.4 34.2L17.45 34.4L17.4 34.45L17.05 34.3M10.25,32.75L10.55 32.85L10.85 33L11.9 33.85L11.95 34.05L12.05 34.05L12.05 33.8L12.2 33.85L12.5 34.25L12.55 34.4L12.8 34.85L12.95 34.65L13.4 35.4L13.55 35.75L13.25 36.25L12.8 35.85L12.3 35.4L12.05 35.15L11.7 34.85L11.7 35.6L11.2 35.05L10.8 34.5L10.8 35.05L10.05 34.3L9.75 33.75L9.65 33.55L9.6 33.45L9.4 33.1L9.55 33.05L10.25 32.75M10.1,36.4L10.3 36.6L10.8 37.05L10.5 37.25L10.1 36.4M9.3,35.65Q9.15 35.9 9.15 36.3L9.1 36.4Q8.65 36.4 8.25 36.8L8 36L7.8 35.1L7.8 35.05L7.7 34.45L7.7 34.4L7.75 34.05L8.5 34.85L9.3 35.6L9.3 35.65M17.95,38.4L18 38.25L18.2 38.15L18.3 38.25L18.3 38.1L18.6 38L18.65 38.35L18.75 38.6L19 39.4L19.55 40.75L18.85 40.55L18.7 40.55L18.6 40.6L18.5 40.55L18 39.95L17.8 40.5Q17.6 40.55 17.4 40.25L17.1 39.8L17 39.8L17 40.35L16.55 39.95L16.65 39.85L17.65 38.95L17.95 38.4M12.25,40.5L12.15 40.65L11.55 41.55L11.45 41.75L11.1 42.2L10.85 42.75L10.45 42.1L10.55 41.95L10.9 41.05Q11.5 40.8 12.25 40.5" />
<path style="fill:#EE7557;fill-opacity:1" d="M19.15,4.05L19 3.1Q18.75 1.9 18.05 0.85L18.45 0.95Q21.15 1.45 22.55 3.2Q23.45 4.35 23.75 5.55L23.8 6L23.5 5.4L23.25 4.95Q21.85 2.7 19.5 1.95L19.75 3.3L19.7 3.55Q19.65 4.75 18.9 5.6L19.15 4.05M16,6.55L14.1 5.3L12.25 4.45L9.3 4.3L9.8 5L10.15 6.25Q9.45 4.9 8 4.5L8.15 4.2L8.75 3.8L13.1 3.9L13.25 4Q15.15 5 16 6.55M8.55,8.2L7.9 8.1Q5.95 8.05 5.05 8.8L5.55 9.6L5 9.4L3.6 9.15Q4.1 8.1 6.3 7.8Q7.55 7.6 8.55 8.2M5.9,13L5.3 13.3Q3.85 14.1 3.3 14.8L4.5 15.1L4.55 15.1Q5.15 15.3 5.6 15.6L5.7 15.65L5.3 15.55L4.8 15.45L4.3 15.45Q2.9 15.4 1.85 16.15Q1.95 15.05 3.45 13.85Q4.6 12.9 5.9 13M29.55,9L28.45 8.6L26 8.15L25 8.2L25.85 7.9Q27.85 7.55 29.55 9M19.5,21.4L20.95 21.95L20.9 22.85L19.5 22.3L19.2 22.15L19.25 21.25L19.5 21.4M5.65,20.3L4.9 20.9L4.7 21.05L4.3 21.2L4.3 21.25L4.15 21.65Q4.15 22.05 4.5 22.6L3.65 21.95L2.75 20.8L3 20.8L4 20.75L4.15 20.7L4.5 20.65L5.6 20.25L5.7 20.2L5.65 20.3M13.9,33.9Q14.5 34 14.6 34.25L14.55 34.6L14.55 34.85L14.55 34.9L14.5 34.85L13.75 33.9L13.9 33.9M13.4,35.4L12.95 34.65L12.8 34.85L12.55 34.4L12.5 34.25L12.2 33.85L12.05 33.8L12.05 34.05L11.95 34.05L11.9 33.85L10.85 33L10.55 32.85L10.25 32.75L10.7 32.6L11.15 32.5Q11.6 32.55 12.15 33.1L12.45 33.4L12.85 33.85L13.25 34.35L13.45 34.6L13.8 35.15L13.55 35.75L13.4 35.4M18.3,38.25L18.2 38.15L18.3 38.1L18.3 38.25M19.55,40.75L19 39.4L18.75 38.6L18.65 38.35L18.6 38L18.95 37.85L19 37.95L19.2 39.15Q19.3 40.15 19.55 40.75" />
<path style="fill:#622516;fill-opacity:1" d="M3.45,13.85Q1.95 15.05 1.85 16.15Q2.9 15.4 4.3 15.45L4.8 15.45L5.3 15.55L5.7 15.65L5.75 15.65L6 15.7L6.5 15.95L7.25 16.45L7.9 17.45L7.15 17.25L6.95 17.35L6.9 17.2L6.05 16.5L5.7 16.4L5.55 16.4L5.45 16.4L5 16.3L4.4 16.25L3.55 16.3Q2.55 16.5 1.95 16.95L1.15 17.05Q0.9 16.7 1 16.35Q1.95 12.4 5.65 12.15L6.3 12.2Q6 10.85 5.25 10.35Q4.45 9.9 3.8 9.85L2.85 9.7Q2.55 9.6 2.9 8.85Q3.15 8.1 4.2 7.55Q5.25 7 6.5 7L8.5 7.25L9.4 7.65L9.7 8L9.7 7.2L9.2 6Q8.55 5.3 7.35 5.1Q7.05 5.1 7.1 4.75L7.25 4.25Q8.95 1.95 12.4 2.75L14.1 3.4Q16.25 4.5 17.25 6.7Q17.35 7 17.95 5.75Q18.5 4.6 18.05 3L18 2.85L17.2 0.95Q16.8 0.5 17.15 0.25L18.05 0Q22.4 0.5 24.3 4.05Q24.95 5.3 24.9 6.6L24.8 7.3L25.25 7.1L26.8 6.95Q27.95 7.05 28.7 7.45L29.95 8.25L30.9 9.35Q31.25 10 29.85 9.85L27.4 10.15Q27.15 10.25 26.9 10.45L25.85 11.4L25.65 11.7L25.6 11.4L25 10.85Q25.5 10.25 26.45 9.7L26.8 9.5Q28.2 8.85 29.65 9.05L29.55 9Q27.85 7.55 25.85 7.9L25 8.2L24.1 8.6Q23.8 8.75 23.9 6.8L23.8 6L23.75 5.55Q23.45 4.35 22.55 3.2Q21.15 1.45 18.45 0.95L18.05 0.85Q18.75 1.9 19 3.1L19.15 4.05L18.9 5.6L17.4 7.9Q16.95 8.4 16.15 6.75L16 6.55Q15.15 5 13.25 4L13.1 3.9L8.75 3.8L8.15 4.2L8 4.5Q9.45 4.9 10.15 6.25L10.25 6.45Q10.8 7.7 10.35 9.15L9.95 9.5L8.95 8.4L8.55 8.2Q7.55 7.6 6.3 7.8Q4.1 8.1 3.6 9.15L5 9.4L5.55 9.6Q6.4 10.05 6.8 11.05L7.1 12.6L7 13.2L6.85 13.2L6.5 13.1L5.9 13Q4.6 12.9 3.45 13.85M20.4,41.35L20 41.5L18.9 40.85L18.6 40.6L18.7 40.55L18.85 40.55L19.55 40.75Q19.3 40.15 19.2 39.15L19 37.95L18.95 37.85L19.5 37.65L19.9 40L20.15 40.75L20.4 41.15L20.45 41.2L20.4 41.35M9.55,33.05L9.4 33.1L9.3 32.9L9.15 32.45L9.3 32.4L9.6 32.25L10.2 32.05L11.05 31.9L11.7 31.95L12 32.15L12.9 32.95L13.1 33.15L13.2 33.15L13.25 33.15L13.35 33.15L13.9 33.15L14.1 33.2L14.5 33.25L15.25 33.55L15.4 33.8L15.45 34.8L15.05 34.85L14.65 34.9L14.65 34.95L14.6 35.15L14.55 35.25L14.5 35.35L14.45 35.5L14.15 36L13.8 36.55L13.6 36.5L13.25 36.25L13.55 35.75L13.8 35.15L13.45 34.6L13.25 34.35L12.85 33.85L12.45 33.4L12.15 33.1Q11.6 32.55 11.15 32.5L10.7 32.6L10.25 32.75L9.55 33.05M13.75,33.9L14.5 34.85L14.55 34.9L14.55 34.85L14.55 34.6L14.6 34.25Q14.5 34 13.9 33.9L13.75 33.9M8,33.25L8 33.3L7.95 33.25L8 33.25" />
<path style="fill:#D0C4AA;fill-opacity:1" d="M21.7,29.8L21.95 28.95L21.9 28.35L22 27.45Q22.05 26.45 21.6 26.45L21.55 26.6L20.05 29.4L19.75 29.1L19.5 28.8L19.75 27L19.75 26.8L19.6 26.85L19.5 26.75L19.4 26.35L19 26.25L19 26.2L19 25.75L18.15 25.35Q17.95 25.8 17.45 25.6L17.4 25.6L17.4 25.2L17.1 25L17 25L17.25 24.5L17.4 24.25L17.6 23.35L17.4 22.6Q17.2 22.85 16.85 22.6L16.85 22.55Q16.75 22.3 16.95 22.15L16.75 21.85L16.55 21.55L16.45 21.3L15.75 20.45L15.25 20L15.3 19.55L14.85 19.6L14.8 19.5Q14.5 18.9 15.05 18.65L15.35 18.95L15.45 18.15Q15.45 17.75 15.95 17.55L16.65 17.05L17.05 15.85L17.3 15.55Q18.3 14.3 19.8 14.05L19.75 16.85L18.55 16.75Q18.05 17.05 18.05 18.5Q17.95 19.9 18.25 20.35L18.25 20.4L18.25 20.45L18.2 20.9Q18.2 21.55 19.2 22.15L19.1 24.1L19.3 24.25Q18.9 24.35 19.05 24.9L19.1 24.95L19.7 24.95L19.9 24.85L19.95 24.75L20.7 25.25L20.9 22.85L21.65 22.9Q22.8 22.9 22.8 22.3L23.35 22Q23.7 21.5 23.25 20.35Q22.8 19.2 21.75 18.25L21.3 17.85L21 17.6L21 15.55L21.65 16.4L21.7 16.4L21.95 14.45L21.8 13.1Q21.8 12.85 22.1 12.75L22.35 12.35L22.25 11.65L23.05 12L23.95 12.55L24.15 13.2L24.2 14.05L23.8 19.3Q23.8 19.85 24.4 20.8L24.95 22.3Q24.95 23.6 24.2 24.4L22.6 25.75L22.4 28.15L22.2 30.15L21.7 29.8M23.4,15.55L23.15 15.45Q22.5 16.1 22.95 16.95L23.05 17.05L23.3 16.65L23.9 16.5L24 16.45L23.45 16L23.4 15.65L23.4 15.55M22.45,24.7L22.5 24.7Q23.15 24.5 22.65 24L22.6 23.95Q22.05 24.2 22.45 24.7M18.45,14.8L18.35 14.75Q17.6 14.85 17.9 15.6L18 15.65Q18.8 15.75 18.65 14.9L18.45 14.8M13.75,18.85L13.75 18.75L14.05 18.45L14.1 18.55Q14.65 19.05 13.95 19.2L13.9 19.2L13.75 18.95L13.75 18.85M15.9,19.7L15.9 19.75Q16.3 20.3 16.6 19.75L16.45 19.5L16.3 19.45Q16 19.4 15.9 19.7M19.95,27.25Q20.85 27.3 20.3 26.6L20.25 26.55L20 26.6L19.95 26.65Q19.8 26.85 19.9 27.1L19.95 27.25M19.05,29.6L19 29.5Q18.95 29.1 19.35 29L19.4 29.05Q19.9 29.85 19.05 29.6" />
<path style="fill:#BFA172;fill-opacity:1" d="M22.35,12.35L22.1 12.75Q21.8 12.85 21.8 13.1L21.95 14.45L21.7 16.4L21.65 16.4L21 15.55L21.05 14.8L21.1 14.8L21.4 11L22.3 10.9Q22.2 11 22.25 11.65L22.35 12.35M22.65,31.1Q21.4 31.2 21.25 30.8L21.9 28.35L21.95 28.95L21.7 29.8L22.2 30.15L22.65 30.2L22.85 30.15L22.65 31.1M19.95,24.75L19.9 24.85L19.7 24.95L19.1 24.95L19.05 24.9Q18.9 24.35 19.3 24.25L19.95 24.75M23.4,15.65L23.45 16L24 16.45L23.9 16.5L23.3 16.65L23.05 17.05L22.95 16.95Q22.5 16.1 23.15 15.45L23.4 15.55L23.4 15.65M22.6,23.95L22.65 24Q23.15 24.5 22.5 24.7L22.45 24.7Q22.05 24.2 22.6 23.95M18.65,14.9Q18.8 15.75 18 15.65L17.9 15.6Q17.6 14.85 18.35 14.75L18.45 14.8L18.65 14.9M20.7,29.75L20.75 29.75L20.4 30.65Q20.2 31.1 19.6 30.9L18.75 30.55Q18.6 30.35 18.75 29.2L18.85 27.4L18.65 26.75L18.55 26.65L17.25 26.35L17.1 26.3L16.45 26.25L15.65 25.9Q15.3 25.6 16.1 24.5L16.2 24.3L16.45 23.65L16.35 22.45L16.25 22.25L15.95 21.7Q15.2 20.65 13.85 20.05Q13.65 19.55 13.75 18.95L13.9 19.2L13.95 19.2Q14.65 19.05 14.1 18.55L14.05 18.45L13.75 18.75L14.15 17.55Q15.7 17.3 17.05 15.85L16.65 17.05L15.95 17.55Q15.45 17.75 15.45 18.15L15.35 18.95L15.05 18.65Q14.5 18.9 14.8 19.5L14.85 19.6L15.3 19.55L15.25 20L15.75 20.45L16.45 21.3L16.55 21.55L16.75 21.85L16.95 22.15Q16.75 22.3 16.85 22.55L16.85 22.6Q17.2 22.85 17.4 22.6L17.6 23.35L17.4 24.25L17.25 24.5L17 25L17.1 25L17.4 25.2L17.4 25.6L17.45 25.6Q17.95 25.8 18.15 25.35L19 25.75L19 26.2L19 26.25L19.4 26.35L19.5 26.75L19.6 26.85L19.75 26.8L19.75 27L19.5 28.8L19.75 29.1L20.05 29.4Q20.35 29.75 20.7 29.75M16.3,19.45L16.45 19.5L16.6 19.75Q16.3 20.3 15.9 19.75L15.9 19.7Q16 19.4 16.3 19.45M19.9,27.1Q19.8 26.85 19.95 26.65L20 26.6L20.25 26.55L20.3 26.6Q20.85 27.3 19.95 27.25L19.9 27.1M19.4,29.05L19.35 29Q18.95 29.1 19 29.5L19.05 29.6Q19.9 29.85 19.4 29.05" />
<path style="fill:#F7F7F3;fill-opacity:1" d="M23.45,11.1L24.6 11.5L24.85 11.6L24.9 12.15L24.85 16.2Q24.7 18.55 24.85 18.95L25.15 20L25.5 21.6L25.4 23.4L24.35 24.95L23.35 25.8Q23.05 25.95 23.05 27.05L22.95 29.45L22.85 30.15L22.65 30.2L22.2 30.15L22.4 28.15L22.6 25.75L24.2 24.4Q24.95 23.6 24.95 22.3L24.4 20.8Q23.8 19.85 23.8 19.3L24.2 14.05L24.15 13.2L23.95 12.55L23.05 12L22.25 11.65Q22.2 11 22.3 10.9L23.45 11.1M20.95,21.95L21.75 22.2L22.8 22.3Q22.8 22.9 21.65 22.9L20.9 22.85L20.95 21.95M18.3,20.45L19.25 21.25L19.2 22.15Q18.2 21.55 18.2 20.9L18.25 20.45L18.25 20.4L18.3 20.45M20.75,29.75L20.7 29.75Q20.35 29.75 20.05 29.4L21.55 26.6L21 28.95L20.75 29.75" />
<path style="fill:#8C331D;fill-opacity:1" d="M16.85,14.95Q15.65 16.15 14.4 16.65Q13.65 16.9 13.3 17.6L13.15 17.6L10.5 17.65L10.2 17.6L10.05 17.6L8.65 17.55Q8.6 15.9 7.7 15.05L6.5 14.1L6.3 14L6.6 13.9L8.55 13.85Q9.1 14.05 9.3 14.4Q9.95 12.6 8.45 10.75L8.05 10.25Q7.1 9.2 6.45 9.15Q7.5 9.15 8.4 9.5Q9.4 9.9 10.25 10.75L11.3 12.5Q13.05 10.45 12.7 8Q12.4 6.2 11.6 5.65Q14.6 6.15 16 8.65Q16.7 9.9 16.8 11.2Q19.3 10.35 20.4 7.55L20.95 5Q22.4 7.35 21.65 9.7L21.5 10.1L21.3 10.1Q20.6 10.2 20.55 10.9L20.5 11L20.6 13.2L19.8 13.3L19.1 13.45L19 13.5Q18.55 13.65 18.05 13.95L16.85 14.95M23.35,10.25L22.15 10.1Q22.8 9.7 23.55 9.5L25.25 9.3Q24.45 9.6 23.9 10.4L23.35 10.25M13.3,24.85L11.7 25.25Q11.1 24.55 10.65 23.55L9.8 21.85Q9.4 22.6 9.5 23.55L9.45 23.6L8.8 23.75L8 23.9L7.8 23.9L7.35 23.6L6.65 22.95L6.4 22.7L6.35 22.65L5.35 21.1L5.85 21L6.35 20.85L6.65 20.7L7.15 20.4L7.65 20.1L7.8 20L9.2 20.15L11.75 20.25L13 20.25L13.3 20.8L14.5 21.45Q15 21.75 15.3 22.4Q14.55 23.3 14.15 24.35L13.95 25L13.3 24.85M17.2,35.55L17.05 35.35Q16.6 34.75 15.6 34.75L15.45 34.8L15.4 33.8L16.25 34.2L16 33.9L17.05 34.3L17.4 34.45L17.4 34.65L17.35 35.1L17.2 35.55M9.4,33.1L9.6 33.45L9.65 33.55L9.75 33.75L10.05 34.3L10.8 35.05L10.8 34.5L11.2 35.05L11.7 35.6L11.7 34.85L12.05 35.15L12.3 35.4L12.8 35.85L13.25 36.25L12.95 36.65L12.75 36.85L12.2 37.25L11.5 36.8L10.9 36.2L9.9 35.3L9.65 35.05L8.6 34L8.55 33.85L8.65 33.65L9.4 33.1M9.3,35.6L10.1 36.4L10.5 37.25L10.35 37.45L9.95 37.9Q9.5 37.45 9.35 36.5L9.3 36.4L9.2 36.4L9.1 36.4L9.15 36.3Q9.15 35.9 9.3 35.65L9.3 35.6M8.25,36.8L7.95 37.3L7.65 37.8L7.5 36.85L7.45 35.2L7.5 34.5L7.6 33.85L7.65 33.4L7.8 33.45Q7.55 33.8 7.7 34L7.75 34.05L7.7 34.4L7.7 34.45L7.8 35.05L7.8 35.1L8 36L8.25 36.8M10.9,41.05L10.55 41.95L10.45 42.1L10.4 42.1L10.4 42.05L10.1 42.05L9.55 42.1L9.5 41.7L9.45 41.6Q10.1 41.35 10.9 41.05M18.35,40.8L18 41.2L17.9 41.3L17.85 41.2Q17.15 40.5 16.55 41.3L16.2 40.15L16.55 39.95L17 40.35L17 39.8L17.1 39.8L17.4 40.25Q17.6 40.55 17.8 40.5L18 39.95L18.5 40.55L18.6 40.6L18.35 40.8" />
<path style="fill:#625643;fill-opacity:1" d="M22.85,30.15L22.95 29.45L23.05 27.05Q23.05 25.95 23.35 25.8L24.35 24.95L25.4 23.4L25.5 21.6L25.15 20L24.85 18.95Q24.7 18.55 24.85 16.2L24.9 12.15L24.85 11.6L24.6 11.5L23.45 11.1L22.3 10.9L21.4 11L21.1 14.8L21.05 14.8L21.05 14.75L20.8 14.4L20.55 13.95L20.35 13.95L19.8 14.05Q18.3 14.3 17.3 15.55L17.05 15.85L17.35 14.9Q17.5 14.35 18.05 13.95Q18.55 13.65 19 13.5L19.1 13.45L19.8 13.3L20.6 13.2L20.5 11L20.55 10.9Q20.6 10.2 21.3 10.1L21.5 10.1L22.15 10.1L23.35 10.25L23.9 10.4L24.95 10.8L25 10.85L25.6 11.4L25.65 11.7L25.7 13.2L25.55 18.75Q26.35 20.8 26.2 22.95Q26 25.1 23.85 26.45L23.6 30.05L22.85 30.15M21,28.95L21.55 26.6L21.6 26.45Q22.05 26.45 22 27.45L21.9 28.35L21.85 28L21.7 27.9Q21.1 29.65 20.75 29.75L21 28.95" />
<path style="fill:#3F3629;fill-opacity:1" d="M19.25,21.25L18.3 20.45L18.25 20.4L18.25 20.35Q17.95 19.9 18.05 18.5Q18.05 17.05 18.55 16.75L19.75 16.85L19.85 16.85L21 17.6L21.3 17.85L21.75 18.25Q22.8 19.2 23.25 20.35Q23.7 21.5 23.35 22L22.8 22.3L21.75 22.2L20.95 21.95L19.5 21.4L19.25 21.25" />
<path style="fill:#745416;fill-opacity:1" d="M6.45,17.9L6.4 18L6.3 18.2L6.1 18.85L6.1 18.9L5.5 16.8L5.45 16.4L5.55 16.4L5.7 16.4L6.05 16.5L6.45 17.9M2.5,19.7L3.2 19.4L3.4 19.75L3.55 20L3.05 20.05L2.7 20.05L2.6 20.05L2.5 19.7M4.2,24.8L1.85 21.15Q0.75 19.3 1.55 19.55L1.95 20.15Q1.8 20.15 1.7 20.25Q1.55 20.4 1.95 21.15Q2.3 21.9 3.55 22.9L3.85 23.15L4.15 23.6L4.65 24.35L4.2 24.8M4.95,24.1L4.7 23.7L5.2 23.95L4.95 24.1M24.9,34.2L25.25 34.45L21.1 36.15L19.15 36.9L18.7 37.1L17.9 37.4L17.7 36.95L24.9 34.2M12.65,39.45L11.95 39.7L11.1 40L10.2 40.35L8.85 40.9L8.05 41.2L6.25 41.9Q5.4 41.95 5.35 41.65L12.3 39L12.65 39.45" />
<path style="fill:#9A7226;fill-opacity:1" d="M5,16.3L5.45 16.4L5.5 16.8L6.1 18.9L5.85 19.1L5 16.3M1.85,21.15L4.2 24.8L3.95 25.05L3.8 24.75L1.85 21.9L0.8 20.25L0.6 19.8L0.75 19.5Q0.95 19.25 1.3 19.2L1.55 19.55Q0.75 19.3 1.85 21.15M24.85,34.15L24.9 34.2L17.7 36.95L17.4 36.6L17.4 36.4L17.85 36.2L20.95 35L21.55 34.75Q23.2 34.1 25 33.4L24.85 34.15M12.3,39L5.35 41.65L5.65 40.9L8.95 39.8Q9.2 39.65 9.55 39.55L10.1 39.35L11.55 38.7L12 38.55L12.05 38.55L12.15 38.5L12.3 39" />
<path style="fill:#2E201B;fill-opacity:1" d="M10.05,17.6L10.2 17.6L10.5 17.65L13.15 17.6L13.3 17.6Q13.1 17.85 13.05 18.25L13 18.25L11.85 18.35L9.6 18.35L9.4 18.3L9.3 18.3L8.6 18.25L7.85 18.2L7.4 18.15L7.3 18.1L7.25 18.1L7.15 18.2L7.05 18.3L6.95 18.45L6.85 18.7L6.85 18.9L6.9 19.05L7.05 19.1L7.1 19.15L8.45 19.4L8.55 19.4L9.4 19.5L12.95 19.6Q12.9 20 13 20.25L11.75 20.25L9.2 20.15L7.8 20L7.6 19.95L6.85 19.75L6.65 19.7L6.6 19.7L6.3 19.5L6.15 19.3L6.1 18.9L6.1 18.85L6.3 18.2L6.4 18L6.45 17.9L6.9 17.35L6.95 17.35L7.15 17.25L7.9 17.45L8 17.45L8.65 17.55L10.05 17.6M29.85,28.15L30.05 27.85L30.25 27.7L31.1 27.7L31.55 27.8Q31.8 27.9 31.85 28.15L31.95 28.6L32 28.95L31.9 30.55L33.7 32.65L34 33.15L34.4 33.8L34.4 33.85Q34.6 34.35 34.2 34.7Q33.5 35.25 32.8 35.15L32.7 34.95L32.2 34.15L31.8 33.55L31.2 32.85L31.15 33.9L31.1 34.85L31.05 35.35L30.95 35.95Q30.65 36.85 29.75 36.75L29.5 36.7Q28.75 36.45 28.8 35.55L28.8 35.3L28.8 35.2L29.2 33.55L29.45 32.15L29.55 31.55L27.4 30.35L26.95 30.1L26.8 30L26.7 29.95Q26.05 29.55 26.2 29.25L26.3 29.05L26.55 28.5L26.6 28.5Q26.9 28.15 27.55 28.35L28.05 28.55L28.5 28.75L29.35 29.15L29.6 29.25L29.65 29.1L29.65 29.05L29.85 28.15M6.85,33.05L5.45 31.35L3.95 28.65Q3.2 27.2 3.2 26.8Q3.15 26.4 3.45 25.8Q3.5 25.55 3.65 25.45L3.95 25.05L4.2 24.8L4.65 24.35L4.85 24.2L4.95 24.1L5.2 23.95L6.1 24.35L5.95 24.4L5.35 24.85L5.15 25.1L4.75 25.55L4.3 26L4.15 26.2L3.85 26.65Q4 27.5 5.4 29.85L5.6 30.2L7.4 32.6Q7.05 32.6 6.85 33.05M9.9,26.3L9.25 24.6L9.5 24.5L9.75 24.45L10.35 25.55L10.45 25.85L9.9 26.3M30.2,29.2L30.25 29.55Q30.5 29.6 31.25 30.2L31.4 28.95L31.4 28.8L31.4 28.7Q31.4 28.2 31 28.2L30.8 28.2L30.35 28.35L30.25 28.95L30.2 29.2M32,31.45Q30.45 30.05 28.55 29.3L27.35 28.85L27.2 28.8L27.1 28.7L26.95 28.85L26.9 28.95Q26.75 29.15 27.15 29.5L27.3 29.6L27.5 29.7L28.45 30.25L29.4 30.85Q31.35 31.9 32.3 33.3L32.7 33.85L33.3 34.6L33.35 34.6L33.55 34.45L33.85 34.2L33.85 34.05L33.65 33.35L33.55 33.2L33.35 33L33.25 32.85L33 32.55L32.1 31.6L32 31.45M29.75,33.55L29.75 33.7L29.5 35.35L29.5 35.5L29.55 35.8L30 35.95Q30.35 35.9 30.5 35.2L30.65 34.15L30.65 34L30.7 32.5L29.95 31.85L29.85 32.35L29.75 33.55" />
<path style="fill:#4D3212;fill-opacity:1" d="M5.85,19.1L5.35 19.4L5.15 18.9Q4.6 17.35 4.4 16.25L5 16.3L5.85 19.1M6.05,16.5L6.9 17.2L6.95 17.35L6.9 17.35L6.45 17.9L6.05 16.5M25,33.4Q23.2 34.1 21.55 34.75L20.95 35L17.85 36.2L17.4 36.4L17.2 35.6L17.75 35.4L19.5 34.7L20.7 34.2L21.3 34Q23.25 33.2 25.15 32.45L25 33.4M26.15,35.05L19.5 37.65L18.95 37.85L18.6 38L18.3 38.1L18.2 38.15L18 38.25L17.95 37.75L17.9 37.4L18.7 37.1L19.15 36.9L21.1 36.15L25.25 34.45L26.15 35.05M10.9,41.05Q10.1 41.35 9.45 41.6L8.9 41.8L8.5 41.95L7.75 42.25L5.8 42.9Q4.55 42.7 4.35 42.05Q4.2 41.45 4.75 40.55Q5.95 39.95 8.75 38.9L9.4 38.65L9.5 38.6L10.4 38.25L10.95 38.05L11.3 37.95L11.35 37.9L11.55 37.8L12.05 38.3L12.15 38.35L12.1 38.4L12.15 38.4L12.15 38.5L12.05 38.55L12 38.55L11.55 38.7L10.1 39.35L9.55 39.55Q9.2 39.65 8.95 39.8L5.65 40.9L5.35 41.65Q5.4 41.95 6.25 41.9L8.05 41.2L8.85 40.9L10.2 40.35L11.1 40L11.95 39.7L12.65 39.45L12.8 39.6L13.4 40.1L12.85 40.3L12.25 40.5Q11.5 40.8 10.9 41.05M3.65,25.45L3.3 24.95L2.4 23.55L0.95 21.4L0.05 19.9Q-0.1 19.45 0.4 19.05Q0.95 18.65 1.2 18.65L1.65 18.85L2 19.3L2.05 19.35L2.15 19.25L2.3 19.1L2.7 18.85Q3.25 18.6 3.65 19.05L4 19.6L4.15 19.85L3.55 20L3.4 19.75L3.2 19.4L2.5 19.7L2.6 20.05L1.95 20.15L1.55 19.55L1.3 19.2Q0.95 19.25 0.75 19.5L0.6 19.8L0.8 20.25L1.85 21.9L3.8 24.75L3.95 25.05L3.65 25.45M4.15,23.6L3.85 23.15L4.7 23.7L4.95 24.1L4.85 24.2L4.65 24.35L4.15 23.6" />
<path style="fill:#8E6755;fill-opacity:1" d="M10.8,18.55L9.4 18.6L9.2 18.6L8.6 18.55L7.65 18.65L7.55 18.75L7.15 18.55L6.95 18.45L7.05 18.3L7.15 18.2L7.25 18.1L7.3 18.1L7.4 18.15L7.85 18.2L8.6 18.25L9.3 18.3L9.4 18.3L9.6 18.35L11.85 18.35L10.8 18.55M6.95,24.7L6.35 25.2L5.85 25.55L5.85 25.6L5.3 26L5.25 26L5.15 26.5L5.2 26.7L5.2 26.9L5.25 26.95L5.7 27.55L5.05 27.6L5.1 28.6L5.4 29.85Q4 27.5 3.85 26.65L4.15 26.2L4.3 26L4.75 25.55L5.15 25.1L5.35 24.85L5.95 24.4L6.1 24.35L6.5 24.45L7.1 24.6Q7.05 24.6 6.95 24.7M32.1,31.6L31.95 31.65Q31.85 31.7 31.45 31.45L30.85 31L29.5 30.25L27.9 29.45L27.75 29.35L27.3 29.05L27.35 28.85L28.55 29.3Q30.45 30.05 32 31.45L32.1 31.6" />
<path style="fill:#513727;fill-opacity:1" d="M12.95,18.8L12.95 19.6L9.4 19.5L8.55 19.4L8.45 19.4L7.1 19.15L7.05 19.1L6.9 19.05L6.85 18.9L6.85 18.7L6.95 18.45L7.15 18.55L7.55 18.75L8.55 18.95L9.05 18.95L10.15 19.05L12.8 19L12.95 18.35L13 18.25L13.05 18.25L12.95 18.8M9.9,26.3Q8.2 27.7 7.6 30.45L7.55 32.1L7.55 32.25L7.65 32.6L7.6 32.6L7.5 32.6L7.4 32.6Q7.4 30.7 7.65 29.75Q7.95 28.4 8.35 28.1L8.55 27.6L7.95 26.25L7.45 25.25L7.2 24.75L7.1 24.6Q8.2 24.8 9.2 24.6L9.25 24.6L9.9 26.3M31,28.2Q31.4 28.2 31.4 28.7L31.4 28.8L31.4 28.95L31.25 30.2Q30.5 29.6 30.25 29.55L30.2 29.2Q30.8 29.35 30.75 29.5L30.85 28.9L30.85 28.85L30.85 28.25L30.8 28.2L31 28.2M33.55,33.2L33.65 33.35L33.85 34.05L33.85 34.2L33.55 34.45L33.35 34.6L33.3 34.6L32.7 33.85L32.3 33.3Q31.35 31.9 29.4 30.85L28.45 30.25Q29.95 30.65 30.65 31.2L32 32.5L32.7 33.1L33.1 33.3L33.35 33L33.55 33.2M29.95,35.45L30.2 34.4L30.25 33.85L30.15 32.7L30 32.4L29.85 32.35L29.95 31.85L30.7 32.5L30.65 34L30.65 34.15L30.5 35.2Q30.35 35.9 30 35.95L29.55 35.8L29.5 35.5L29.5 35.35L29.95 35.45" />
<path style="fill:#4E1C10;fill-opacity:1" d="M17.9,34.7L17.75 35.4L17.2 35.6L17.2 35.55L17.35 35.1L17.4 34.65L17.4 34.45L17.45 34.4L17.4 34.2L17.4 33.7Q17.3 33.55 16.95 33.45L15.85 32.9L14.75 32.7L15.05 32.3L15.4 32.25Q16.7 32.6 17.85 33.2L17.95 33.25L18 33.4L18.05 33.55L18.05 33.7L18 34.15L17.9 34.7M16.2,40.15L16.55 41.3Q17.15 40.5 17.85 41.2L17.9 41.3L18 41.2L18.35 40.8L18.6 40.6L18.9 40.85L20 41.5L19.4 41.5L18.85 41.35L18.8 41.35L18.7 41.25L18.7 41.3L18.3 41.8Q18.1 42.15 17.2 41.55L16.75 41.9L16.45 42.15Q16.15 42.4 16.05 42.15L16.05 42.05L15.8 40.95L15.65 40.35L16.2 40.15M10.85,42.75L11.1 42.2L11.45 41.75L11.55 41.55L12.15 40.65L12.25 40.5L12.85 40.3L11.9 42L11.5 42.45L11.45 42.45L11.2 43.05L11.15 43.45L11.05 43.6L10.7 43.45L10.15 42.9L10.1 42.7L10 42.5L9.45 42.6Q9.1 42.75 8.9 41.8L9.45 41.6L9.5 41.7L9.55 42.1L10.1 42.05L10.4 42.05L10.4 42.1L10.45 42.1L10.85 42.75M8.2,38.4L8.05 38.65L7.95 38.8Q7.7 39.15 7.4 38.8Q7.05 38.35 6.85 37.7L6.7 36.8L6.6 35.25L6.6 35.15Q6.55 33.55 6.85 33.05Q7.05 32.6 7.4 32.6L7.5 32.6L7.6 32.6L7.65 32.6L7.8 33L7.95 33.25L8 33.3L8 33.25L8.05 33.2L8.55 32.8L9.15 32.45L9.3 32.9L9.4 33.1L8.65 33.65L8.55 33.85L8.6 34L9.65 35.05L9.9 35.3L10.9 36.2L11.5 36.8L12.2 37.25L12.75 36.85L12.95 36.65L13.25 36.25L13.6 36.5L13.8 36.55L13.55 36.85L13.35 37.1L12.6 38L12.2 38.3L12.05 38.3L11.55 37.8L11.35 37.9L11.1 37.6L10.95 37.75L10.8 37.85L10.8 37.9L10.4 38.25L9.5 38.6L9.15 38.15L9.05 37.95L8.85 37.4L8.8 37.45L8.55 37.85L8.2 38.4M6.1,18.9L6.15 19.3L6.3 19.5L6.6 19.7L6.65 19.7L6.4 19.9L6.1 20.05L5.85 20.15L5.7 20.2L5.6 20.25L4.5 20.65L4.15 20.7L4 20.75L3 20.8L2.75 20.8L3.65 21.95L4.5 22.6L5.15 23L5.25 23.05L5.9 23.4L6.95 23.8L7.8 23.9L8 23.9L8.8 23.75L9.45 23.6L9.5 23.55Q9.4 22.6 9.8 21.85L10.65 23.55Q11.1 24.55 11.7 25.25Q11.05 25.45 10.55 25.8L10.35 25.55L9.75 24.45L9.5 24.5L9.25 24.6L9.2 24.6Q8.2 24.8 7.1 24.6L6.5 24.45L6.1 24.35L5.2 23.95L4.7 23.7L3.85 23.15L3.55 22.9Q2.3 21.9 1.95 21.15Q1.55 20.4 1.7 20.25Q1.8 20.15 1.95 20.15L2.6 20.05L2.7 20.05L3.05 20.05L3.55 20L4.15 19.85L4.6 19.7L5.35 19.4L5.85 19.1L6.1 18.9M14.55,25.4L14.4 25.3L13.95 25L14.15 24.35Q14.55 23.3 15.3 22.4L15.6 23.15L14.85 24.75Q14.65 25.15 14.6 25.45L14.55 25.4M14.7,27.7L14.7 27.65Q15.05 26.95 14.75 26.2L14.8 26.2L14.9 26.35L15.05 26.5L14.95 27.55L14.7 27.75L14.7 27.7M9.3,35.6L8.5 34.85L7.75 34.05L7.7 34Q7.55 33.8 7.8 33.45L7.65 33.4L7.6 33.85L7.5 34.5L7.45 35.2L7.5 36.85L7.65 37.8L7.95 37.3L8.25 36.8Q8.65 36.4 9.1 36.4L9.2 36.4L9.3 36.4L9.35 36.5Q9.5 37.45 9.95 37.9L10.35 37.45L10.5 37.25L10.8 37.05L10.3 36.6L10.1 36.4L9.3 35.6" />
<path style="fill:#644638;fill-opacity:1" d="M12.95,18.35L12.8 19L10.15 19.05L9.05 18.95L8.55 18.95L7.55 18.75L7.65 18.65L8.6 18.55L9.2 18.6L9.4 18.6L10.8 18.55L11.85 18.35L13 18.25L12.95 18.35M5.4,29.85L5.1 28.6L5.05 27.6L5.7 27.55L5.25 26.95L5.2 26.9L5.2 26.7L5.15 26.5L5.25 26L5.3 26L5.85 25.6L5.85 25.55L6.35 25.2L6.95 24.7Q7.05 24.6 7.1 24.6L7.2 24.75L7.45 25.25L7.95 26.25L8.55 27.6L8.35 28.1Q7.95 28.4 7.65 29.75Q7.4 30.7 7.4 32.6L5.6 30.2L5.4 29.85M30.25,28.95L30.35 28.35L30.8 28.2L30.85 28.25L30.85 28.85L30.85 28.9L30.75 29.5Q30.8 29.35 30.2 29.2L30.25 28.95M27.5,29.7L27.3 29.6L27.15 29.5Q26.75 29.15 26.9 28.95L26.95 28.85L27.1 28.7L27.2 28.8L27.35 28.85L27.3 29.05L27.75 29.35L27.9 29.45L29.5 30.25L30.85 31L31.45 31.45Q31.85 31.7 31.95 31.65L32.1 31.6L33 32.55L33.25 32.85L33.35 33L33.1 33.3L32.7 33.1L32 32.5L30.65 31.2Q29.95 30.65 28.45 30.25L27.5 29.7M29.5,35.35L29.75 33.7L29.75 33.55L29.85 32.35L30 32.4L30.15 32.7L30.25 33.85L30.2 34.4L29.95 35.45L29.5 35.35" />
<path style="fill:#4A4131;fill-opacity:1" d="M23.6,30.05L23.15 31.65L21.7 31.85L20.8 31.55L19.4 31.65L18.05 31Q17.9 30.7 18 30.05L18.1 27.3L17.3 27.2L16.45 27.05L15.05 26.5L14.9 26.35L14.8 26.2L14.9 26.1L14.9 26.05L14.6 25.45Q14.65 25.15 14.85 24.75L15.6 23.15L15.3 22.4Q15 21.75 14.5 21.45L13.3 20.8L13 20.25Q12.9 20 12.95 19.6L12.95 18.8L13.05 18.25Q13.1 17.85 13.3 17.6Q13.65 16.9 14.4 16.65Q15.65 16.15 16.85 14.95L18.05 13.95Q17.5 14.35 17.35 14.9L17.05 15.85Q15.7 17.3 14.15 17.55L13.75 18.75L13.75 18.85L13.75 18.95Q13.65 19.55 13.85 20.05Q15.2 20.65 15.95 21.7L16.25 22.25L16.35 22.45L16.45 23.65L16.2 24.3L16.1 24.5Q15.3 25.6 15.65 25.9L16.45 26.25L17.1 26.3L17.25 26.35L18.55 26.65L18.65 26.75L18.85 27.4L18.75 29.2Q18.6 30.35 18.75 30.55L19.6 30.9Q20.2 31.1 20.4 30.65L20.75 29.75Q21.1 29.65 21.7 27.9L21.85 28L21.9 28.35L21.25 30.8Q21.4 31.2 22.65 31.1L22.85 30.15L23.6 30.05" />
<path style="fill:#543914;fill-opacity:1" d="M15.05,32.3L14.75 32.7L14.5 33.25L14.1 33.2L13.9 33.15L14 32.55L14 32.5L14.05 32.3L13.8 32.25L13.15 31.95L12.9 31.75L12.65 31.6L13.15 31.65L13.8 31.65L14.25 31.6L15.7 31.1Q16.8 30.35 16.9 29.55L16.85 28.35L16.6 27.8Q16.45 27.5 16.45 27.05L17.3 27.2L17.3 27.35Q18.35 29.4 17.2 30.8Q16.25 31.95 15.4 32.25L15.05 32.3M18.05,33.55L18 33.4L17.95 33.25L18.2 33.05L18.55 32.75L19.85 32.7L20.5 33.45L21.3 34L20.7 34.2L20.6 34.15L20.55 34.1L20.2 33.8L19.95 33.5L19.8 33.35Q19.35 32.95 18.9 33.2L18.55 33.35L18.35 33.5L18.05 33.7L18.05 33.55M20.4,41.95L19.85 41.7L19.4 41.5L20 41.5L20.4 41.35L20.45 41.2L20.65 41.3L21.3 41.8L20.4 41.95M21.9,43.9L21.2 44.15L18.3 44.3L16.25 43.9Q15.65 43.6 16.05 42.05L16.05 42.15Q16.15 42.4 16.45 42.15L16.75 41.9L16.7 42.25Q16.7 43 16.9 43.2L18 43.5L19.7 43.55L21.9 43.9M12.3,39L12.15 38.5L12.15 38.4L12.1 38.4L12.15 38.35L12.05 38.3L12.2 38.3L12.6 38L12.7 38.25L13 38.75L13.35 39.15L13.45 39.25L14.35 39.7L14.85 39.7L15.45 39.6L15.95 39.4L16.05 39.35L16.2 39.3L16.7 38.85L16.85 38.7L16.9 38.65L16.95 38.65L17.95 38.4L17.65 38.95L16.65 39.85L16.55 39.95L16.2 40.15L15.65 40.35L14.75 40.45L13.4 40.1L12.8 39.6L12.65 39.45L12.3 39M8.25,42.6Q8.25 43.25 8.4 43.4L9.35 43.65L10.75 43.7L11.2 43.7L12.4 43.45L11.5 42.45L11.9 42L12.15 42.2L12.8 43.15Q13.1 43.7 12.65 44L12.05 44.2L9.6 44.3L7.85 44Q7.3 43.75 7.7 42.3L7.75 42.25L8.5 41.95Q8.2 42.15 8.25 42.6M8.75,38.9L8.2 38.4L8.55 37.85L9.4 38.65L8.75 38.9M6.7,36.8L6.5 36.45Q6.3 36.15 6.45 35.6L6.6 35.15L6.6 35.25L6.7 36.8M7.95,33.25L7.8 33L7.65 32.6L7.55 32.25L7.8 32.3L8.2 32.25L8.3 32.65L8.4 32.75L8.55 32.8L8.05 33.2L8 33.25L7.95 33.25M10.2,32.05L10.9 30.75Q11.5 29.5 12.45 29.05L14.05 28.05L14.4 27.8Q14.65 27.6 14.7 27.7L14.7 27.75L14.7 28L13.75 29.05L12.25 30.05Q11.5 30.55 11.2 31.45L11.05 31.9L10.2 32.05M15.05,34.9L15 35.4L15 35.45L14.55 35.5L14.45 35.5L14.5 35.35L14.55 35.25L14.6 35.15L14.65 34.95L14.65 34.9L15.05 34.85L15.05 34.9M11.3,37.95L10.95 37.75L11.1 37.6L11.35 37.9L11.3 37.95M18.8,41.35L18.7 41.3L18.7 41.25L18.8 41.35" />
<path style="fill:#C4944D;fill-opacity:1" d="M11.05,31.9L11.2 31.45Q11.5 30.55 12.25 30.05L13.75 29.05L14.7 28L14.7 27.75L14.95 27.55L15.05 26.5L16.45 27.05Q16.45 27.5 16.6 27.8L16.85 28.35L16.4 28.4Q16.15 28.45 15.8 29.35Q15.5 30.25 14.6 30.7L14.45 30.8L13.85 31.05L13.15 31.25L13 31.25Q12.3 31.35 12.4 31.5L12.9 31.75L13.15 31.95L13.8 32.25L14.05 32.3L14 32.5L13.75 32.6L13.3 32.7L13.15 32.75L12.9 32.95L12 32.15L11.7 31.95L11.05 31.9M14.4,25.9L14.6 26.1L14.75 26.2Q15.05 26.95 14.7 27.65L14.7 27.7Q14.65 27.6 14.4 27.8L14.05 28.05L12.45 29.05Q11.5 29.5 10.9 30.75L10.2 32.05L9.6 32.25L9.3 32.4L9.15 32.45L8.55 32.8L8.4 32.75L8.3 32.65L8.2 32.25L8.65 32.15L9.7 31.3Q10.75 30.25 10.75 29.05L10.75 28.7Q11.7 28.6 12.95 27.75L13.3 27.5Q14.1 26.85 14.3 26L14.35 25.85L14.4 25.9M14.6,36.55L14.55 36.6L14.55 36.65L13.6 37.75L13.7 37.85L14.1 38.3L14.25 38.5L14.5 38.7L15.4 39.05L15.7 39.05L15.7 38.4L16.8 38.65L16.85 38.65L16.9 38.65L16.85 38.7L16.7 38.85L16.2 39.3L16.05 39.35L15.95 39.4L15.45 39.6L14.85 39.7L14.35 39.7L13.45 39.25L13.35 39.15L13 38.75L12.7 38.25L12.6 38L13.35 37.1L13.55 36.85L13.8 36.55L14.15 36L14.45 35.5L14.55 35.5L15 35.45L14.6 36.55M16.8,37.3L16.75 37.3L16.05 37.25L16.35 37L16.4 37L16.4 36.95L16.6 36.7L16.75 36.35L16.85 36.6L16.85 36.8L17.05 37.2L17.1 37.35L16.8 37.3M18,34.15L18.45 33.9Q19.05 33.7 19.25 34.1L19.3 34.55L19.5 34.7L17.75 35.4L17.9 34.7L18 34.15M9.4,38.65L8.55 37.85L8.8 37.45L8.85 37.4L9.05 37.95L9.15 38.15L9.5 38.6L9.4 38.65M10.4,38.25L10.8 37.9L10.95 38.05L10.4 38.25M8.9,41.8Q9.1 42.75 9.45 42.6L10 42.5L10.1 42.7L10.15 42.9L10.7 43.45L11.05 43.6L11.15 43.45L11.2 43.05L11.45 42.45L11.5 42.45L12.4 43.45L11.2 43.7L10.75 43.7L9.35 43.65L8.4 43.4Q8.25 43.25 8.25 42.6Q8.2 42.15 8.5 41.95L8.9 41.8M17.2,41.55Q18.1 42.15 18.3 41.8L18.7 41.3L18.8 41.35L18.85 41.35L19.4 41.5L19.85 41.7L20.4 41.95L18.95 42.05L18.85 42.2Q18.75 42.35 18.8 42.55L18.3 42.55L18 42.4L17.95 42.7Q17.95 43.1 19.4 43.5L19.7 43.55L18 43.5L16.9 43.2Q16.7 43 16.7 42.25L16.75 41.9L17.2 41.55" />
<path style="fill:#E9CB9E;fill-opacity:1" d="M16.85,28.35L16.9 29.55Q16.8 30.35 15.7 31.1L14.25 31.6L13.8 31.65L13.15 31.65L12.65 31.6L12.9 31.75L12.4 31.5Q12.3 31.35 13 31.25L13.15 31.25L13.85 31.05L14.45 30.8L14.6 30.7Q15.5 30.25 15.8 29.35Q16.15 28.45 16.4 28.4L16.85 28.35M12.9,32.95L13.15 32.75L13.3 32.7L13.75 32.6L14 32.5L14 32.55L13.9 33.15L13.35 33.15L13.25 33.15L13.2 33.15L13.1 33.15L12.9 32.95M8.15,32Q8.05 31.45 8.5 29.8L8.5 29.75L8.75 29.15Q9.2 28.35 9.95 27.7L10.35 27.35L11.45 26.65Q12.1 26.25 12.75 26.1L13.8 25.95L13.95 25.95L14.3 26Q14.1 26.85 13.3 27.5L12.95 27.75Q11.7 28.6 10.75 28.7L10.75 29.05Q10.75 30.25 9.7 31.3L8.65 32.15L8.2 32.25L8.15 32M16.95,37.75L16.95 38.05L16.9 38.6L16.85 38.65L16.8 38.65L15.7 38.4L15.7 39.05L15.4 39.05L14.5 38.7L14.25 38.5L14.1 38.3L13.7 37.85L13.6 37.75L14.55 36.65L14.55 36.6L14.6 36.55L15 35.45L15.25 35.4L15.35 35.45L16 35.9L16.1 36.05L16.45 36.75L16.4 36.95L16.4 37L16.35 37L16.05 37.25L16.75 37.3L16.8 37.3L16.95 37.75M19.5,34.7L19.3 34.55L19.25 34.1Q19.05 33.7 18.45 33.9L18 34.15L18.05 33.7L18.35 33.5L18.55 33.35L18.9 33.2Q19.35 32.95 19.8 33.35L19.95 33.5L20.2 33.8L20.55 34.1L20.6 34.15L20.7 34.2L19.5 34.7M11.3,37.95L10.95 38.05L10.8 37.9L10.8 37.85L10.95 37.75L11.3 37.95M19.7,43.55L19.4 43.5Q17.95 43.1 17.95 42.7L18 42.4L18.3 42.55L18.8 42.55Q18.75 42.35 18.85 42.2L18.95 42.05L20.4 41.95Q21.3 42.5 21.6 43.3L20.2 43.55L19.7 43.55" />
<path style="fill:#876430;fill-opacity:1" d="M21.3,41.8L22.1 42.9Q22.4 43.55 21.9 43.9L19.7 43.55L20.2 43.55L21.6 43.3Q21.3 42.5 20.4 41.95L21.3 41.8M10.45,25.85L10.55 25.8Q11.05 25.45 11.7 25.25L13.3 24.85L13.95 25L14.4 25.3L14.55 25.4L14.6 25.45L14.9 26.05L14.9 26.1L14.8 26.2L14.75 26.2L14.6 26.1L14.4 25.9L14.35 25.85L13.85 25.65L13 25.55L12.2 25.75L11.1 26.4Q10.95 26.5 10.75 26.65L10.5 26.85L10.15 27.2Q9.15 28.1 8.75 29.15L8.5 29.75L8.5 29.8Q8.05 31.45 8.15 32L8.2 32.25L7.8 32.3L7.55 32.25L7.55 32.1L7.6 30.45Q8.2 27.7 9.9 26.3L10.45 25.85M15.6,34.75Q16.6 34.75 17.05 35.35L17.2 35.55L17.2 35.6L17.4 36.4L17.4 36.6L17.7 36.95L17.9 37.4L17.95 37.75L18 38.25L17.95 38.4L16.95 38.65L16.9 38.65L17.05 38.5Q17.35 38 17.25 37.65L17.15 37.45L17.1 37.35L17.05 37.2L16.85 36.8L16.85 36.6L16.75 36.35L16.65 36.05L16.55 35.85Q16.3 35.4 15.7 35.4L15.35 35.4L15.25 35.4L15 35.45L15 35.4L15.05 34.9L15.05 34.85L15.45 34.8L15.6 34.75" />
<path style="fill:#F0DBBB;fill-opacity:1" d="M13.95,25.95L13.8 25.95L12.75 26.1Q12.1 26.25 11.45 26.65L10.35 27.35L9.95 27.7Q9.2 28.35 8.75 29.15Q9.15 28.1 10.15 27.2L10.5 26.85L10.75 26.65Q10.95 26.5 11.1 26.4L12.2 25.75L13 25.55L13.85 25.65L14.35 25.85L14.3 26L13.95 25.95M16.8,37.3L17.1 37.35L17.15 37.45L17.25 37.65Q17.35 38 17.05 38.5L16.9 38.65L16.85 38.65L16.9 38.6L16.95 38.05L16.95 37.75L16.8 37.3M16.6,36.7L16.4 36.95L16.45 36.75L16.1 36.05L16 35.9L15.35 35.45L15.25 35.4L15.35 35.4L15.7 35.4Q16.3 35.4 16.55 35.85L16.65 36.05L16.75 36.35L16.6 36.7" />
<path style="fill:#F5F3EE;fill-opacity:1" d="M35.25,30.6L35.25 30.4L35.3 30.15L35.05 30.05L34.3 29.7L33.05 29.15L32.55 28.95L32.35 28.95L32 28.95L31.95 28.6L32.7 28.4L33.75 28.6L35.5 29.3L36.25 29.55L35.9 30.2L35.7 30.7L35.25 30.6" />
<path style="fill:#4E4138;fill-opacity:1" d="M25.25,34.45L24.9 34.2L24.85 34.15L25 33.4L25.15 32.45Q25.45 31.05 25.9 29.55L26.1 29.1L26.3 29.05L26.2 29.25Q26.05 29.55 26.7 29.95L26.8 30L26.2 32.05L25.9 33.05L25.7 33.7L25.85 33.8L26.25 34.05L27.2 34.6L28.8 35.55Q28.75 36.45 29.5 36.7L29.2 36.85L28.75 36.65L26.15 35.05L25.25 34.45M29.65,29.05L29.35 29.15L28.5 28.75L28.05 28.55L29.85 28.15L29.65 29.05M31.55,27.8L33.1 27.5L34.85 28.05L37.15 29.2L36.4 31.35L36.25 31.65L35.45 33.15L34.4 33.85L34.4 33.8L34 33.15Q34.4 32.9 34.55 32.8L35.15 31.95L35.15 31.9L35.7 30.7L35.9 30.2L36.25 29.55L35.5 29.3L33.75 28.6L32.7 28.4L31.95 28.6L31.85 28.15Q31.8 27.9 31.55 27.8M31.1,34.85L32.2 34.15L32.7 34.95L30.95 35.95L31.05 35.35L31.1 34.85" />
<path style="fill:#B6A998;fill-opacity:1" d="M33.7,32.65L31.9 30.55L32 28.95L32.35 28.95L32.55 28.95L33.05 29.15L34.3 29.7L35.05 30.05L35.3 30.15L35.25 30.4L35.25 30.6L35.7 30.7L35.15 31.9L33.7 32.65M31.15,33.9L31.2 32.85L31.8 33.55L31.15 33.9M27.4,30.35L29.55 31.55L29.45 32.15L29.2 33.55L28.4 33.4Q28.3 33.3 28.5 33.05L28.8 32.8L28.85 32.7L28.05 32.7L27.75 32.65L27.6 32.5L27.55 32.4L27.35 31.55L27.35 30.85L27.4 30.35M29.65,29.05L29.65 29.1L29.6 29.25L29.35 29.15L29.65 29.05" />
<path style="fill:#837462;fill-opacity:1" d="M33.7,32.65L35.15 31.9L35.15 31.95L34.55 32.8Q34.4 32.9 34 33.15L33.7 32.65M31.15,33.9L31.8 33.55L32.2 34.15L31.1 34.85L31.15 33.9M27.2,34.6L26.25 34.05L25.85 33.8L25.7 33.7L25.9 33.05L26.2 32.05L26.8 30L26.95 30.1L27.4 30.35L27.35 30.85L27.35 31.55L27.55 32.4L27.6 32.5L27.75 32.65L28.05 32.7L28.85 32.7L28.8 32.8L28.5 33.05Q28.3 33.3 28.4 33.4L29.2 33.55L28.8 35.2L28.8 35.3L28.8 35.55L27.2 34.6" />
</g>
</svg>
