<?xml version="1.0" encoding="utf-8"?>
<svg version="1.1" id="Layer_1"
xmlns="http://www.w3.org/2000/svg"
xmlns:xlink="http://www.w3.org/1999/xlink"
xmlns:author="http://www.sothink.com"
width="223px" height="312px"
xml:space="preserve">
<g id="112" transform="matrix(1, 0, 0, 1, -275.75, 108.9)">
<path style="fill:#674529;fill-opacity:1" d="M492.35,198.55L495.55 197.85L495.2 198.45L494.95 198.8L492.9 200.85L277.25 200.8L277.15 198.45L492.35 198.55M490,-99L489.8 -99.85Q489.35 -100.75 488.1 -100.75L277.25 -100.8L277.25 -103.3L488.1 -103.05L486.85 -103.1L490.3 -102.9Q491.45 -102.65 492.4 -101.7Q493.4 -100.75 493.05 -99L493.15 -99L493.1 -27.2L493.05 -27.2L492.9 156.45L492.8 152.45L492.8 158.95L492.7 155.7L492.6 196.45L489.25 194.45Q489.65 194.45 490 193.8L490 -99" />
<path style="fill:#C49A68;fill-opacity:1" d="M277.15,198.45L275.75 194.6L488.65 194.5L489.15 194.4L489.25 194.45L492.6 196.45L492.7 155.7L492.8 158.95L492.8 152.45L492.9 156.45L493.05 -27.2L493.1 -27.2L493.15 -99L493.05 -99Q493.4 -100.75 492.4 -101.7Q491.45 -102.65 490.3 -102.9L486.85 -103.1L488.1 -103.05L277.25 -103.3L277.25 -107L486.5 -107.1L487.95 -107.1L488.1 -107.1Q494.1 -106.85 495.65 -102.7L496.1 -100.9L496.15 -99.9L496.05 -99L496.05 -98.65L496.05 -58.5L496.05 -27.2L496.05 32.65L496.05 115.9L496.05 118.1L496.05 123.15L496.05 126.2L496.05 134.15L496.05 155.2L496.05 156.45L496.05 157.2L496.05 158.95L496.05 169.9L496.05 187.75L496.05 195.75L495.55 197.85L492.35 198.55L277.15 198.45" />
<path style="fill:#34240D;fill-opacity:1" d="M492.9,200.85L494.95 198.8L495.2 198.45L495.55 197.85L496.05 195.75L496.05 187.75L496.05 169.9L496.05 158.95L496.05 157.2L496.05 156.45L496.05 155.2L496.05 134.15L496.05 126.2L496.05 123.15L496.05 118.1L496.05 115.9L496.05 32.65L496.05 -27.2L496.05 -58.5L496.05 -98.65L496.05 -99L496.15 -99.9L496.1 -100.9L495.65 -102.7Q494.1 -106.85 488.1 -107.1L487.95 -107.1L486.5 -107.1L277.25 -107L277.25 -108.9L488.1 -108.9Q495.25 -108.9 497.4 -104Q497.75 -103.25 497.9 -101.25L498 -99L498 193.6L497.95 196.05L497 199.45L495.6 201.15Q494.1 202.65 492.5 202.65Q490.9 202.6 492 202.7L277.25 202.7L277.25 200.8L492.9 200.85M489.15,194.4L488.65 194.5L275.75 194.6L277.25 192.7L488 192.7L488 -98.9L277.25 -98.9L277.25 -100.8L488.1 -100.75Q489.35 -100.75 489.8 -99.85L490 -99L490 193.8Q489.65 194.45 489.25 194.45L489.15 194.4" />
<path style="fill:none;stroke-width:0.1;stroke-linecap:round;stroke-linejoin:round;stroke-miterlimit:3;stroke:#662616;stroke-opacity:1" d="M490,-99L489.8 -99.85Q489.35 -100.75 488.1 -100.75" />
</g>
</svg>
