<?xml version="1.0" encoding="utf-8"?>
<svg version="1.1" id="Layer_1"
xmlns="http://www.w3.org/2000/svg"
xmlns:xlink="http://www.w3.org/1999/xlink"
xmlns:author="http://www.sothink.com"
width="25px" height="13px"
xml:space="preserve">
<g id="1977" transform="matrix(1, 0, 0, 1, 9.45, 44.2)">
<path style="fill:#191616;fill-opacity:1" d="M8.85,-32.85L9.15 -32.9L11.35 -33.85Q13.4 -34.65 15.3 -35.85Q12.65 -33.05 7.45 -31.75L2.25 -31.3L0.25 -31.85Q-4.15 -33.4 -6.7 -37.2Q-8.4 -39.9 -9.45 -43.75Q-7.45 -38.75 -5.25 -36.2Q-3.05 -33.6 0.85 -32.4Q4.7 -31.15 8.85 -32.85" />
<path style="fill:#191616;fill-opacity:0.501961" d="M-8.9,-44.05L-2.45 -42.6L9.95 -38.7L14.6 -37.35L15.2 -36.95L15.15 -36.9L14.15 -37.05Q14 -36.8 -8.15 -43.6L-8.8 -43.8Q-7.9 -41.7 -4.25 -38.45Q-0.5 -35.15 3.2 -34.6Q6.85 -34 11.45 -35.25Q14.5 -36.05 15.1 -36.55L14.3 -35.9Q12.6 -34.8 8.45 -34.2L3.15 -34L0.6 -34.65Q-0.75 -35.1 -3.85 -37.6Q-6.95 -40.05 -9.2 -43.85L-9.25 -43.95L-9.15 -44L-9.35 -44.1L-9.05 -44.1L-9.05 -44.05L-9 -44.1L-8.9 -44.05" />
<path style="fill:#4D4D4D;fill-opacity:0.6" d="M15.15,-36.85L15.15 -36.9L15.2 -36.95L15.15 -36.85M-8.9,-44.05L-9 -44.1L-9.05 -44.2L-8.9 -44.05" />
</g>
</svg>
