<?xml version="1.0" encoding="utf-8"?>
<svg version="1.1" id="Layer_1"
xmlns="http://www.w3.org/2000/svg"
xmlns:xlink="http://www.w3.org/1999/xlink"
xmlns:author="http://www.sothink.com"
width="73px" height="25px"
xml:space="preserve">
<g id="1892" transform="matrix(1, 0, 0, 1, 0, 0)">
<path style="fill:#231813;fill-opacity:1" d="M27.1,6.1L34.2 5.85L49.55 5.3L49.55 5.35L49.95 5.35L62.45 4.65L70.4 4.1Q70.8 3.5 70.75 2.75L70.65 2.35Q70.35 1.35 70.15 1.45L64.95 1.8L51.75 2.55L50 2.65L49.6 2.65L49.6 2.6L38.3 2.9L26.75 3.1L26.65 2.15L31.2 2.05L50.05 1.3L50.05 1.35L65.2 0.3L70.5 0Q71.85 0.5 72.15 1.85L72.25 2.65L72.1 4.05L71.2 5.6L49.5 6.5L49.5 6.45L31.65 7.05L27.35 7.1L27.1 6.1" />
<path style="fill:#3C2C22;fill-opacity:1" d="M26.75,3.5L26.85 3.6L27.05 4.1L27.05 4.6L29.85 4.55L36.1 4.75L41.85 4.65L49.55 4.4L49.55 4.55L49.95 4.5L50 4.5L55.7 4.15L60.1 3.85L63.75 3.5L70.75 2.75Q70.8 3.5 70.4 4.1L62.45 4.65L49.95 5.35L49.55 5.35L49.55 5.3L34.2 5.85L27.1 6.1L27 5.6L26.8 3.85L26.75 3.5" />
<path style="fill:#574031;fill-opacity:1" d="M26.75,3.1L38.3 2.9L49.6 2.6L49.6 2.65L50 2.65L51.75 2.55L64.95 1.8L70.15 1.45Q70.35 1.35 70.65 2.35L70.75 2.75L63.75 3.5L60.1 3.85L55.7 4.15L50 4.5L49.95 4.5L49.55 4.55L49.55 4.4L41.85 4.65L36.1 4.75L29.85 4.55L27.05 4.6L27.05 4.1L26.85 3.6L26.75 3.5L26.75 3.1" />
<path style="fill:#80250A;fill-opacity:1" d="M13.5,16.1Q10.85 15.35 7.5 13.35L6.75 12.9L4.95 11L5.45 10.35L7.75 7.6L7.7 7.55L9.05 6.05L9.1 6L9.3 5.8L9.4 5.65L10 4.85L12.45 1.45L12.8 1.15Q13.9 0.4 17.05 0.5L23.2 0.8Q25.35 1 26.25 1.85L26.35 1.85L26.5 1.9L26.65 1.95L26.65 2.15L26.75 3.1L26.75 3.5L26.8 3.85L27 5.6L27.1 6.1L27.35 7.1Q28.15 10.2 29.75 11.95L30.85 13.1L30.3 13.7L29.4 14.45Q24.75 17.1 20.8 17.05L14.7 16.35L13.5 16.1M8.4,12.45Q11.65 14.45 15.4 15.2L18.85 15.6Q24.6 15.8 29.2 13.3Q28.45 12.45 27.6 10.85Q26.4 8.85 25.85 7.1L25.55 6.15L25.55 6.1Q25.25 4.85 25.25 3.7L25.2 3.15L25.25 2.55L23.25 2.15L19.35 1.7L13.9 1.9L12.25 3.6Q11.5 4.5 10.7 5.75L8 9.9Q6.95 11.45 7.2 11.6L8.4 12.45" />
<path style="fill:#D26A3D;fill-opacity:1" d="M7.2,11.6Q6.95 11.45 8 9.9L10.7 5.75Q11.5 4.5 12.25 3.6L13.9 1.9L19.35 1.7L23.25 2.15L25.25 2.55L25.2 3.15L25.25 3.7L24.3 3.6L16.25 3.1L15.45 3.1L11.2 9.15L8.4 12.45L7.2 11.6" />
<path style="fill:#9C3C19;fill-opacity:1" d="M15.4,15.2L16.05 13.7Q17.65 10.05 17.7 6.4L22 6.85L23.15 6.8L25.55 6.15L25.85 7.1Q26.4 8.85 27.6 10.85Q28.45 12.45 29.2 13.3Q24.6 15.8 18.85 15.6L15.4 15.2" />
<path style="fill:#B1522E;fill-opacity:1" d="M23.15,6.8L22 6.85L17.7 6.4Q17.65 10.05 16.05 13.7L15.4 15.2Q11.65 14.45 8.4 12.45L11.2 9.15L15.45 3.1L16.25 3.1L24.3 3.6L25.25 3.7Q25.25 4.85 25.55 6.1L25.55 6.15L23.15 6.8" />
<path style="fill:#766D67;fill-opacity:1" d="M16.1,20.55L13.5 19.65L12.75 19L14.7 16.35L20.8 17.05Q24.75 17.1 29.4 14.45L29.8 14.2Q31.75 16.25 34.05 17.45Q31.6 20 28.35 21.5L27.35 21.5L18.45 21.05L16.1 20.55" />
<path style="fill:#ACA49F;fill-opacity:1" d="M17.25,22.25L18.45 21.05L27.35 21.5L28.35 21.5L28.2 21.55Q25.4 22.75 22.55 23L17.25 22.25M14.7,16.35L12.75 19L13.5 19.65L16.1 20.55L15 21.6Q9.3 20.3 5.75 15L7.4 13.45L7.5 13.35Q10.85 15.35 13.5 16.1L14.7 16.35" />
<path style="fill:#3A3634;fill-opacity:1" d="M30.85,13.1Q32.85 15.05 34.15 15.8L36.45 17Q36.95 17.25 34.05 19.95L31.95 21.25Q29.5 22.7 26.9 23.55L24.4 24.3Q20.25 25.3 15.4 24.2L13.35 23.6L9.75 22.6Q6.3 21.55 3 19.05Q-0.35 16.6 0.05 15.85L4.95 11L6.75 12.9L6.1 12.5L2.75 15.6Q4.7 18.3 8.6 20.05Q12.05 21.55 14.55 22.25L15.1 22.4L16.8 22.75L21.15 23.05L22.55 23Q25.4 22.75 28.2 21.55L28.35 21.5Q31.6 20 34.05 17.45Q31.75 16.25 29.8 14.2L29.4 14.45L30.3 13.7L30.85 13.1" />
<path style="fill:#E0D8D4;fill-opacity:1" d="M7.5,13.35L7.4 13.45L5.75 15Q9.3 20.3 15 21.6L16.1 20.55L18.45 21.05L17.25 22.25L22.55 23L21.15 23.05L16.8 22.75L15.1 22.4L14.55 22.25Q12.05 21.55 8.6 20.05Q4.7 18.3 2.75 15.6L6.1 12.5L6.75 12.9L7.5 13.35" />
<path style="fill:#253439;fill-opacity:1" d="M7.7,7.55L7.5 7.45L6.05 6.75L5.5 6.5L4.5 5.5L4.2 4.5L4.45 3.75Q4.6 3.15 6 2.6Q7.4 1.95 9.3 1.7L12.4 1.5L12.45 1.45L10 4.85L9.4 5.65L10.15 4.6L10.6 4L10.9 3.5L11.6 2.6L11.45 2.65L7.9 3.25Q5.85 3.65 5.9 4.5Q5.9 4.95 6.25 5.3L7.05 5.8L8.45 6.35L8.55 6.35L9.05 6.05L7.7 7.55" />
<path style="fill:#697887;fill-opacity:1" d="M6.25,5.3Q5.9 4.95 5.9 4.5Q5.85 3.65 7.9 3.25L11.45 2.65L11.6 2.6L10.9 3.5L10.75 3.5Q8.35 3.5 6.8 4.8L6.25 5.3" />
<path style="fill:#4A5662;fill-opacity:1" d="M9.3,5.8L9.1 6L9.05 6.05L8.55 6.35L8.45 6.35L7.05 5.8L6.25 5.3L6.8 4.8Q8.35 3.5 10.75 3.5L10.9 3.5L10.6 4L10.15 4.6L9.4 5.65L9.3 5.8" />
</g>
</svg>
