<?xml version="1.0" encoding="utf-8"?>
<svg version="1.1" id="Layer_1"
xmlns="http://www.w3.org/2000/svg"
xmlns:xlink="http://www.w3.org/1999/xlink"
xmlns:author="http://www.sothink.com"
width="37px" height="46px"
xml:space="preserve">
<g id="2043" transform="matrix(1, 0, 0, 1, 8.8, 13.15)">
<path style="fill:#7B0ABF;fill-opacity:1" d="M14.2,-12.05L14.75 -11.15Q14.8 -10.6 14.45 -10.1L14.45 -9.95L14.55 -9.7Q14.65 -9.1 14.2 -8.6Q13.95 -8.2 13.3 -8.1Q13.3 -7.6 12.9 -7.25Q12.5 -6.65 11.7 -6.55Q10.95 -6.4 10.4 -6.85L9.9 -7.35L9.7 -7.85Q9.25 -7.8 8.9 -8.15L8.65 -8.35L8.95 -8.35L9.75 -8.35L10.2 -8.8Q10.35 -8.05 11.05 -7.85Q11.65 -7.7 12.15 -8.15L12.6 -8.8L13.1 -8.9L13.1 -9.55Q12.95 -10.25 12.4 -10.6Q11.75 -11.1 11 -10.9L10.4 -10.7L10.45 -10.95Q11 -11.4 11.7 -11.6L12.95 -11.25L13.7 -10.35L14.25 -10.9Q14.5 -11.45 14.2 -12.05M-0.4,-6.5Q0.3 -5.95 0.7 -6.35Q0.55 -5.8 1.1 -5.25Q1.3 -5 1.8 -5L2.1 -5.15L1.75 -5.55L1.65 -5.75L1.65 -5.8L1.55 -6.25L1.65 -6.8L2.1 -7.35L2.2 -7.5L2.3 -7.5L3.3 -7.55L3.95 -6.9L3.5 -7.2L2.85 -7.2L2.75 -7.1L2.45 -6.85L2.4 -6.65L2.4 -6.05L2.5 -5.85L2.9 -5.6Q3.25 -5.45 3.6 -5.6L3.75 -5.7L3.8 -5.7L3.9 -5.75L4 -6.05L4.05 -6.05L4.05 -6.45L4.05 -6.5L4.1 -6.6L4.05 -6L4.65 -6.3Q5.05 -6.6 5.1 -7.25Q5.35 -6.8 5.2 -6.3Q5.05 -5.8 4.55 -5.65L4.35 -5.3L3.75 -4.65L2.85 -4.55Q2.65 -4.3 2.2 -4.15L1 -4.05Q0.4 -4.3 0.05 -4.9L-0.05 -5.45L0.05 -5.9L-0.5 -6.45L-0.55 -6.7L-0.4 -6.5M20.3,17.75L20.15 17.9L19.85 18.3Q19.5 18.75 19.55 19.45Q19.6 20.15 20.25 20.7Q20.25 20.8 20.35 20.75L21.1 21L21.5 21.1L22.65 20.35L22.8 19.95L22.95 19Q22.85 18.3 22.3 17.9L22 17.65L21.95 17.55L21.75 17.6L21.15 17.55L21 17.55L20.3 17.75M24.35,25.75Q24.65 24.25 23.5 23.6Q24.8 23.5 25.25 22.05Q25.4 21.25 24.95 20.55L24.55 20.05L24.1 20.95L23.75 21.4L23.65 21.45L23.05 22.05Q22.65 22.45 22 22.5L20.6 22.2L20.35 22.1L20.1 21.95Q19.25 21.25 19.1 20.25Q18.95 19.25 19.55 18.4Q20.15 17.6 21 17.4Q20.8 17.05 20 16.65L17.95 16.75Q18.45 15.75 19.55 15.65Q20.6 15.5 21.35 16.2L22 16.1Q23.1 15.95 23.95 16.55Q24.7 17.15 24.9 18.25Q25.6 18.25 26.3 18.85Q27.25 19.6 27.4 20.9Q27.65 22.3 26.8 23.3L25.95 24.15Q25.55 24.5 25.2 24.5Q25.2 25.15 24.7 25.8L24.2 26.25L24.35 25.75M0.8,18.85L0.95 17.3Q0.85 16.65 0.05 16.1Q1.65 16.05 2.25 14.4Q2.7 13.3 1.8 12.3L0.5 11.2L0.35 10.2L-0.9 10.05Q-2.4 10.05 -3.4 11.3Q-4.4 12.5 -4.25 14.1L-4 15.45L-4.2 15.2Q-5.25 14.2 -5.45 12.65Q-5.5 11.05 -4.6 9.85Q-3.75 8.65 -2.4 8.5Q-2.4 8.15 -3.6 7.4L-6.1 7.3Q-5.35 6.25 -4.1 6.2Q-2.85 6.05 -1.95 7.15L-1 6.95Q0.2 6.9 1.05 7.7Q1 8.25 1.25 8.85L1.95 9.8L2.4 9.85L2.55 9.8L3.6 9.55L4.25 8.6Q4.65 9.85 6 9.85Q6.95 9.85 7.45 9.05L8.05 7.85L8.8 7.5L8.6 6.5Q8.15 5.4 7 4.9L4.8 4.95L3.8 5.5L4 5.2Q4.5 4.2 5.6 3.7L7.95 3.8Q8.9 4.15 9.25 5.15Q9.55 5 9.85 3.85Q10.05 2.9 9.3 2Q10.35 2.3 10.7 3.15Q11 4.15 10.45 5.05L10.75 5.65Q11.15 6.6 10.7 7.55Q10.4 8.35 9.45 8.75Q9.5 9.45 9.15 10.15Q8.7 11.2 7.6 11.7Q6.3 12.1 5.15 11.7L4.35 11.25Q5 12.1 5.1 13.3Q5.2 15 4.2 16.15Q3.7 16.9 3 17.15L1.95 17.45Q1.95 18.35 1.25 19.05L0.5 19.45L0.8 18.85M3.55,10.4L3.8 10.65L3.95 10.75L3.7 10.3L3.55 10.4M10,32.3L10.4 32Q11.5 30.95 11 29.75Q12.05 30.35 13.25 29.5Q13.8 29 13.85 28.1L13.65 27.45L12.8 28.05L12.3 28.2L12.2 28.25L11.35 28.35L10.35 28Q9.55 27.7 9.25 27.05L9.15 26.75L9.05 26.6Q8.75 25.55 9.3 24.65Q9.75 23.75 10.65 23.45L12.4 23.35Q12.5 23.1 12 22.15Q11.4 21.25 10.25 21.05L12.1 21.1Q13 21.6 13.25 22.65L13.95 22.9Q14.85 23.4 15.15 24.3Q15.45 25.25 15.1 26.15Q15.65 26.65 15.85 27.55Q16.15 28.7 15.6 29.85Q15 31.1 13.85 31.6L12.5 31.75L11.75 31.5Q11.35 32.15 10.6 32.3L10 32.3M12.25,23.4L11.5 23.3L11.4 23.3L10.9 23.45Q10.3 23.6 10.05 24.25Q9.75 24.8 9.9 25.55L10 25.75L10.4 26.4L10.65 26.55L12.05 26.7L12.4 26.5L13 25.8Q13.35 25.1 13.15 24.55L13.05 24.1L13 24L12.85 23.95L12.35 23.45L12.25 23.4" />
<path style="fill:#B133FF;fill-opacity:1" d="M14.25,-10.9L13.7 -10.35L12.95 -11.25L11.7 -11.6Q11 -11.4 10.45 -10.95L10.4 -10.7L11 -10.9Q11.75 -11.1 12.4 -10.6Q12.95 -10.25 13.1 -9.55L13.1 -8.9L12.6 -8.8L12.15 -8.15Q11.65 -7.7 11.05 -7.85Q10.35 -8.05 10.2 -8.8L9.75 -8.35L8.95 -8.35L8.65 -8.35L8.45 -9Q8.3 -9.6 8.6 -10.1L9.05 -10.5Q8.95 -11.45 9.5 -12.2Q10.1 -12.9 11 -13.1Q11.9 -13.25 12.65 -12.65L13 -12.25L13.4 -12.35L14.1 -12.15L14.2 -12.05Q14.5 -11.45 14.25 -10.9M-0.55,-6.7L-0.5 -7.35L0.1 -8.1L0.6 -8.15Q0.9 -8.95 1.65 -9.25L3.15 -9.35L4.2 -8.35L4.4 -7.9L4.75 -7.7L5.1 -7.25Q5.05 -6.6 4.65 -6.3L4.05 -6L4.1 -6.6L4.05 -6.5L4.05 -6.45L4.05 -6.05L4 -6.05L3.9 -5.75L3.8 -5.7L3.75 -5.7L3.6 -5.6Q3.25 -5.45 2.9 -5.6L2.5 -5.85L2.4 -6.05L2.4 -6.65L2.45 -6.85L2.75 -7.1L2.85 -7.2L3.5 -7.2L3.95 -6.9L3.3 -7.55L2.3 -7.5L2.2 -7.5L2.1 -7.35L1.65 -6.8L1.55 -6.25L1.65 -5.8L1.65 -5.75L1.75 -5.55L2.1 -5.15L1.8 -5Q1.3 -5 1.1 -5.25Q0.55 -5.8 0.7 -6.35Q0.3 -5.95 -0.4 -6.5L-0.55 -6.7M21,17.55L21.15 17.55L21.75 17.6L21.95 17.55L22 17.65L22.3 17.9Q22.85 18.3 22.95 19L22.8 19.95L22.65 20.35L21.5 21.1L21.1 21L20.35 20.75Q20.25 20.8 20.25 20.7Q19.6 20.15 19.55 19.45Q19.5 18.75 19.85 18.3L20.15 17.9L20.3 17.75L21 17.55M17.95,16.75L20 16.65Q20.8 17.05 21 17.4Q20.15 17.6 19.55 18.4Q18.95 19.25 19.1 20.25Q19.25 21.25 20.1 21.95L20.35 22.1L20.6 22.2L22 22.5Q22.65 22.45 23.05 22.05L23.65 21.45L23.75 21.4L24.1 20.95L24.55 20.05L24.95 20.55Q25.4 21.25 25.25 22.05Q24.8 23.5 23.5 23.6Q24.65 24.25 24.35 25.75L24.2 26.25L23.05 26.7Q22 26.85 21.25 26.35Q20.75 26.05 20.6 25.45Q18.9 25.75 17.65 24.7Q16.25 23.75 16.05 22.15Q15.85 20.55 16.85 19.3L17.4 18.6L17.5 17.95Q17.5 17.35 17.85 16.75L17.95 16.75M1.2,7.05Q1.4 6.55 1.9 6.35Q1.3 4.85 1.9 3.45Q2.45 2 3.95 1.5L6.8 1.6L7.55 2L8.15 1.9L9.3 1.95L9.3 2Q10.05 2.9 9.85 3.85Q9.55 5 9.25 5.15Q8.9 4.15 7.95 3.8L5.6 3.7Q4.5 4.2 4 5.2L3.8 5.5L4.8 4.95L7 4.9Q8.15 5.4 8.6 6.5L8.8 7.5L8.05 7.85L7.45 9.05Q6.95 9.85 6 9.85Q4.65 9.85 4.25 8.6L3.6 9.55L2.55 9.8L2.4 9.85L1.95 9.8L1.25 8.85Q1 8.25 1.05 7.7L1.2 7.05M-6.1,7.3L-3.6 7.4Q-2.4 8.15 -2.4 8.5Q-3.75 8.65 -4.6 9.85Q-5.5 11.05 -5.45 12.65Q-5.25 14.2 -4.2 15.2L-4 15.45L-4.25 14.1Q-4.4 12.5 -3.4 11.3Q-2.4 10.05 -0.9 10.05L0.35 10.2L0.5 11.2L1.8 12.3Q2.7 13.3 2.25 14.4Q1.65 16.05 0.05 16.1Q0.85 16.65 0.95 17.3L0.8 18.85L0.5 19.45Q0 19.85 -0.85 19.85Q-2.05 20 -3 19.3L-3.7 18.2Q-5.7 18.25 -7.25 17.05Q-8.7 15.7 -8.8 13.75Q-8.9 11.75 -7.65 10.35L-6.8 9.55L-6.7 8.7Q-6.55 7.95 -6.05 7.35L-6.1 7.3M12,22.15Q12.5 23.1 12.4 23.35L10.65 23.45Q9.75 23.75 9.3 24.65Q8.75 25.55 9.05 26.6L9.15 26.75L9.25 27.05Q9.55 27.7 10.35 28L11.35 28.35L12.2 28.25L12.3 28.2L12.8 28.05L13.65 27.45L13.85 28.1Q13.8 29 13.25 29.5Q12.05 30.35 11 29.75Q11.5 30.95 10.4 32L10 32.3Q9.4 32.4 8.85 32Q7.9 31.65 7.55 30.75Q7.35 30.2 7.5 29.7Q6.05 28.95 5.5 27.45Q5 25.9 5.75 24.5Q6.4 23.1 7.95 22.6L8.8 22.4L9.2 21.8Q9.6 21.3 10.25 21.1L10.25 21.05Q11.4 21.25 12 22.15M12.35,23.45L12.85 23.95L13 24L13.05 24.1L13.15 24.55Q13.35 25.1 13 25.8L12.4 26.5L12.05 26.7L10.65 26.55L10.4 26.4L10 25.75L9.9 25.55Q9.75 24.8 10.05 24.25Q10.3 23.6 10.9 23.45L11.4 23.3L11.5 23.3L12.25 23.4L12.35 23.45" />
</g>
</svg>
