<?xml version="1.0" encoding="utf-8"?>
<svg version="1.1" id="Layer_1"
xmlns="http://www.w3.org/2000/svg"
xmlns:xlink="http://www.w3.org/1999/xlink"
xmlns:author="http://www.sothink.com"
width="70px" height="33px"
xml:space="preserve">
<g id="517" transform="matrix(1, 0, 0, 1, -9.15, -3.7)">
<path style="fill:#2C5500;fill-opacity:1" d="M79.15,13.45L79.15 26.65Q78.95 35.95 69.2 35.95L19.1 35.95Q9.4 35.95 9.15 26.65L9.15 26.25L9.15 13.45Q9.15 7.1 13.35 4.9Q15.65 3.7 19.1 3.7L69.2 3.7Q72.65 3.7 74.95 4.9Q79.15 7.1 79.15 13.45M69.2,5.15L19.1 5.15Q10.65 5.15 10.65 13.45L10.65 26.25L10.65 26.65Q10.85 34.5 19.1 34.5L69.3 34.5Q77.45 34.45 77.7 26.65L77.7 13.45Q77.7 5.15 69.2 5.15" />
<linearGradient
id="LinearGradID_687" gradientUnits="userSpaceOnUse" gradientTransform="matrix(0.00190735, 0.0169525, -0.0676422, 0.00730896, 58.3, 18.85)" spreadMethod ="pad" x1="-819.2" y1="0" x2="819.2" y2="0" >
<stop  offset="0.00392157" style="stop-color:#D9F07E;stop-opacity:1" />
<stop  offset="0.423529" style="stop-color:#86DB26;stop-opacity:1" />
<stop  offset="1" style="stop-color:#448307;stop-opacity:1" />
</linearGradient>
<path style="fill:url(#LinearGradID_687) " d="M75,15.95L75 15.55Q74.8 9.35 69.5 8L69.05 7.85L22.2 7.85Q13.6 7.85 13.4 15.55L13.4 15.95L13.4 24.1Q13.4 24.95 13.55 25.65L13.75 26.65Q15.05 31.85 22.2 31.85L54.55 31.75L54.55 31.7L69.2 31.65Q72.2 31.5 73.55 29.8Q74.9 28.1 75 26.95L75 24.1L75 15.95M77.7,13.45L77.7 26.65Q77.45 34.45 69.3 34.5L19.1 34.5Q10.85 34.5 10.65 26.65L10.65 26.25L10.65 13.45Q10.65 5.15 19.1 5.15L69.2 5.15Q77.7 5.15 77.7 13.45" />
<linearGradient
id="LinearGradID_688" gradientUnits="userSpaceOnUse" gradientTransform="matrix(0.000289917, 0.0140839, -0.220993, 0.000259399, -33.8, 20.3)" spreadMethod ="pad" x1="-819.2" y1="0" x2="819.2" y2="0" >
<stop  offset="0" style="stop-color:#AEEB48;stop-opacity:1" />
<stop  offset="1" style="stop-color:#669400;stop-opacity:1" />
</linearGradient>
<path style="fill:url(#LinearGradID_688) " d="M75,24.1L75 26.95Q74.9 28.1 73.55 29.8Q72.2 31.5 69.2 31.65L54.55 31.7L54.55 31.75L22.2 31.85Q15.05 31.85 13.75 26.65L13.55 25.65Q13.4 24.95 13.4 24.1L13.4 15.95L13.4 15.55Q13.6 7.85 22.2 7.85L69.05 7.85L69.5 8Q74.8 9.35 75 15.55L75 15.95L75 24.1" />
</g>
</svg>
