<?xml version="1.0" encoding="utf-8"?>
<svg version="1.1" id="Layer_1"
xmlns="http://www.w3.org/2000/svg"
xmlns:xlink="http://www.w3.org/1999/xlink"
xmlns:author="http://www.sothink.com"
width="28px" height="23px"
xml:space="preserve">
<g id="2694" transform="matrix(1, 0, 0, 1, -30.9, -0.55)">
<path style="fill:#FFFFFF;fill-opacity:1" d="M42.3,3.6Q43.75 6.85 43.3 7.7Q42.85 8.55 42.75 9.8L42.55 11.55L42.4 12.15Q41.65 9.8 42.75 7.2L41.05 1.9L39.15 1.85L38 2.8L37.95 3.3L38.1 3.1L38.1 3.35L38.2 3.4L38.25 3.45L38.05 3.45L38 3.45L39.75 7.9L41.65 14.35L41.75 14.85Q41.6 13.45 42.1 11.85L42.15 11.8L42.45 16.9L42.9 17.45L43.4 17.55L43.05 17.55L42.75 17.55L44.8 17.6L44.6 17.55L46.75 17.35L48.7 16.75L48.35 16.7Q49.65 14.25 51.95 12.7L52.25 12.55L52.1 12.4L52.25 12.4Q54.55 12.85 56.35 14.7L56.45 14.7Q58 15.35 58.05 16.75Q58.25 17 58.05 17.2L57.55 17.8L56.4 17.5L56.35 17.5L53.8 16.8L52.95 16.55L51.55 16.6L51.55 16.55L50.55 17.25Q49.6 18 47.7 18.6Q46.75 21.3 44 22.45L41.4 22.35Q41.2 21.35 41.85 17.95Q40.85 16.6 40 13.05Q38.45 6.9 36.85 3.35Q30.65 3.6 30.9 2.35L31.05 2.3L33.55 2.25L38.05 1.2L38.15 1.2L40.1 0.6L40.7 0.7Q42 -0.05 42.3 3.6M50,15.65Q51.3 14.9 52.6 14.95L54.95 15.15L55.5 15.2L53.6 13.5L53.6 13.45L53.5 13.45L52.6 13.1L51.3 13.9Q50.4 14.6 50.25 15.05L50 15.65M46.75,18.85L43.4 18.7Q42.7 18.9 42.55 18.5Q41.7 20.55 42.05 22.25Q45.95 21.75 46.75 18.85M53.35,13.6L53.25 13.55L53.35 13.55L53.35 13.6" />
</g>
</svg>
