<?xml version="1.0" encoding="utf-8"?>
<svg version="1.1" id="Layer_1"
xmlns="http://www.w3.org/2000/svg"
xmlns:xlink="http://www.w3.org/1999/xlink"
xmlns:author="http://www.sothink.com"
width="73px" height="457px"
xml:space="preserve">
<g id="2735" transform="matrix(1, 0, 0, 1, 18.5, 349.4)">
<path style="fill:#FFFFFF;fill-opacity:1" d="M14.9,-349.4Q15.8 -344.45 15.9 -335.65Q16.05 -326.85 15.5 -316.85Q15.45 -320.05 14.45 -329.65Q13.5 -339 13.5 -340.85Q13.5 -345.5 14.9 -349.4M25.65,-281.35Q26.1 -277.6 26 -264.8L26 -266.1Q26 -269.45 24.75 -275.75L23.5 -281.45L24.3 -286.4Q25.25 -284.55 25.65 -281.35M15.5,-310.15Q15.5 -304.15 16.05 -291.5L16.3 -286.55Q13.7 -296.8 13.5 -296.8Q12.8 -296.8 12.45 -296.15L12 -295.5L12 -292.8L7 -292.8Q6.6 -293.9 5.65 -294.7Q4.65 -295.5 3.75 -295.5Q0.3 -295.5 0.05 -285.45Q-0.9 -290.15 -2.5 -291.5Q-2.2 -291.5 -2.05 -292.15L-2 -292.8L0.9 -300.8Q3.2 -307.25 4.5 -310.15Q5.65 -307.1 6.1 -306.3Q7.8 -303.5 10.25 -303.5Q12.5 -303.5 13.85 -306.15L15.5 -310.15M-2.25,-247.45Q0.85 -247.45 2.55 -236.65Q4.95 -222.1 6 -219.4Q6 -221.4 6.3 -223Q6.65 -224.75 7 -224.75L9.65 -217.4L10.2 -215.95Q9.1 -214.9 7.85 -211.8Q6.85 -209.15 6 -206.05L3.3 -223.55Q1.25 -235.45 -0.5 -235.45Q-1.1 -235.45 -2 -233.85L-3.5 -231.45Q-3.5 -234.25 -5.75 -241.7L-8 -248.8L-6.95 -254L-6.5 -255.85Q-6.05 -252 -5.4 -249.85Q-5 -248.4 -2.5 -244.75L-2.85 -246.65Q-3 -247.45 -2.25 -247.45M15.5,-224.75L18.65 -227.85Q18.5 -225.3 18.5 -221.4Q18.5 -216.2 19.55 -210.75Q20.15 -207.55 22 -200.75Q20.2 -195.95 17.95 -188.05L14.5 -176.7L14.5 -166.05Q16.65 -164.7 17.95 -154.15Q19.7 -140.15 23 -131.35L22.5 -131.35Q21.25 -136.3 19.7 -138.3Q18.9 -139.35 18.25 -139.35Q16.75 -139.35 16 -138Q15 -136.3 15 -132L18.45 -108.65L18.5 -108Q18.5 -106.1 16.5 -97.3Q14.5 -88.4 13.5 -85.95Q8.9 -98.25 6.85 -99.3Q9.45 -100.25 11.65 -105.45L12.8 -108.65L12.85 -108.8L12.25 -122.8Q11.35 -139.75 10 -143.35Q11.75 -146.45 11.85 -147.1L12 -155.35L11.5 -162.7Q11 -168.3 11 -170.05Q13 -179.4 13 -182.7Q13 -186.05 12 -191.4Q13.95 -192.75 15.45 -196.35Q17.5 -201.15 17.5 -208.1Q17.5 -210.1 16.5 -215.7Q15.5 -221.3 15.5 -224.75M36,-172.85L36 -174.05Q36 -177.1 34.45 -182.3Q32.8 -187.8 31.5 -188.75Q32 -188.75 32 -190.05Q33.3 -189.95 35.8 -195L36.05 -195.4Q37.25 -190.35 38.5 -188.35L37.2 -182.2Q36.05 -175.65 36 -172.85M23.4,-153.35Q24.75 -150.05 26.5 -150.05Q27.8 -150.05 29.85 -156.15Q32.05 -163.5 33 -166.05Q32.5 -160.7 32.5 -147.35Q30.4 -149.35 29.1 -145.75Q28.5 -144 27.5 -138L25.4 -145.2L22.5 -154.05L23.05 -154.3L23.4 -153.35M3,-192.45Q4.6 -188.75 7 -188.75Q7 -185 6.25 -180.05Q5.5 -175.25 5.5 -173.4L5.75 -168.85L6 -164.7Q4.4 -163.25 2.95 -157.35Q1.55 -151.75 1.5 -147.35Q1 -151.65 -1.15 -155.1L-2.6 -156.95Q-0.3 -158.7 1.8 -167.4L4 -180.05L3.25 -185.9Q2.55 -191.15 2.5 -193.8L3 -192.45M33,-76.5L33.5 -69.3L30.55 -62.75Q27.35 -55.95 26.5 -52.6L26.25 -53.8Q26.15 -53.8 26 -53.95Q24.95 -61.95 22.75 -61.95Q20.6 -61.95 19.6 -58.35Q18.95 -55.8 18.95 -52.75Q17.55 -56.35 15.45 -60.2Q13.05 -64.6 12 -64.6Q16.3 -67.3 19.5 -73.45L19.5 -61.95Q21.3 -64.5 27.35 -65.95Q32.55 -69.3 32.5 -83.05L33 -76.5M49.15,-81.55Q49.45 -75.45 51.5 -71.3Q50.65 -69.15 40.5 -53.95L40 -53.95Q41.25 -56.1 44.15 -69.05Q47 -81.55 47 -83.95Q45.6 -92.4 44 -95.3Q46 -95.6 46.35 -98.25L46.5 -106.4Q48 -104.65 48.65 -102Q49.45 -98.65 49.3 -92.4Q49.05 -83.55 49.15 -81.55M47,-32.6Q48.1 -29.95 49.5 -23.25Q48.15 -24.45 46.5 -22.3L45 -19.65Q47 -26.45 47 -31.25L47 -32.6M46.7,23.05L50 23.45Q50 27.6 51.35 36.4Q52.8 45.85 54 47.45Q53.5 49.75 50.8 56.8L47 66.15Q47.7 62.55 49.45 57.5L49.65 56.8Q50.5 53.85 50.5 50.15Q50.5 46.4 49.5 45.2Q48.85 44.4 48 44.8Q49 42.15 49 37.45Q49 31.05 46.9 23.85L46.7 23.05M33.5,-15.25Q32.65 -13 30.35 1.55L27.5 19.45L27 19.45L27 12.75Q27.75 13.3 27.95 12.25L28 9.45L27.9 5.95Q27.3 6.35 26.5 4.75Q28.75 1.05 29.9 -3.5Q31.25 -8.7 31.75 -16.2Q32.7 -15.25 33.5 -15.25M12.1,-18.3L10.75 -24.7Q9 -29.65 9 -29.95Q9 -31.8 10.55 -34.85L10.65 -35Q11.75 -30.6 14 -24.6Q13.4 -23.5 12.95 -22.2Q12.3 -20.3 12.1 -18.3M6.25,16.9Q7.85 22.1 8.5 23.45Q8 23.45 7 26.1L7 28L5.25 22.8Q3.05 16.8 2 15.45Q2.5 15.45 2.5 14.1Q3.4 14.65 5.15 13.05L6.25 16.9M20.75,95.9L19.5 86.15L19.55 84.95L24.5 99.5Q24.1 100.45 22 107.5L20.75 95.9M-5.5,-35.25Q-5.7 -37.8 -7.4 -44.2L-9.5 -52.6Q-9.05 -52.5 -7.5 -54.35L-6.45 -49.4L-4.5 -44.6Q-5.4 -43 -5.4 -40.05L-5.5 -35.25M-16.75,42.4L-16.5 46.15L-17 46.15Q-17 44.4 -17.75 37.05L-18.5 28.8Q-17 28.8 -16 27.45L-12.95 27.45L-13 28.8L-12.75 32.25L-12.7 32.5L-13.3 32.1Q-14.1 31.45 -14.75 31.45Q-15.3 31.45 -16 32.8Q-17 34.65 -17 38.15L-16.75 42.4M-14.1,49.75Q-13.05 52.25 -10.55 56.55L-10.4 56.8Q-7.65 61.75 -7 63.5Q-7.6 63.5 -8.65 65.5L-9.5 67.35L-11.85 61.2Q-13.1 58.3 -14.15 56.8Q-15.15 55.5 -16 55.5L-16 54.15L-14.1 49.75" />
</g>
</svg>
