<?xml version="1.0" encoding="utf-8"?>
<svg version="1.1" id="Layer_1"
xmlns="http://www.w3.org/2000/svg"
xmlns:xlink="http://www.w3.org/1999/xlink"
xmlns:author="http://www.sothink.com"
width="125px" height="8px"
xml:space="preserve">
<g id="1543" transform="matrix(1, 0, 0, 1, 61.65, 3.95)">
<path style="fill:#FEE3B0;fill-opacity:1" d="M1.15,-2.25Q0.7 -2.65 -0.05 -2.65L-0.85 -2.4L-1.45 -1.95L-1.85 -1.15L-2 -0.1L-1.85 0.95L-1.45 1.8L-0.8 2.25L0 2.4Q1.2 2.4 1.8 1.75L1.8 0.85L0.15 0.85L0.15 -0.35L3.3 -0.35L3.3 3.6L2.35 3.6L2.15 3L1.25 3.55L-0.05 3.75L-1.5 3.45Q-2.15 3.2 -2.6 2.75L-3.35 1.55L-3.65 -0.1L-3.4 -1.65L-2.65 -2.9L-1.55 -3.7L-0.05 -3.95L1.25 -3.8L2.25 -3.3L2.9 -2.5L3.2 -1.4L1.65 -1.4Q1.6 -1.95 1.15 -2.25M58.25,-0.95L61.25 -0.95L61.25 -3.85L62.8 -3.85L62.8 3.6L61.25 3.6L61.25 0.35L58.25 0.35L58.25 3.6L56.6 3.6L56.6 -3.85L58.25 -3.85L58.25 -0.95M-60.1,-2.55L-60.1 -0.65L-56.95 -0.65L-56.95 0.7L-60.1 0.7L-60.1 3.6L-61.65 3.6L-61.65 -3.85L-56.45 -3.85L-56.45 -2.55L-60.1 -2.55" />
</g>
</svg>
