<?xml version="1.0" encoding="utf-8"?>
<svg version="1.1" id="Layer_1"
xmlns="http://www.w3.org/2000/svg"
xmlns:xlink="http://www.w3.org/1999/xlink"
xmlns:author="http://www.sothink.com"
width="19px" height="26px"
xml:space="preserve">
<g id="1620" transform="matrix(1, 0, 0, 1, 0.9, -3.2)">
<path style="fill:#202017;fill-opacity:1" d="M14.65,21.2L14.2 21.9L14.15 22.05L13.55 22.25Q12.05 22.6 10.55 23.8Q9 25 8.4 26Q7.75 26.95 7.8 27.85L7.5 28.65L6.75 29.05L3.9 28.4Q1.55 27.55 0.2 25.2Q-1.15 22.8 -0.85 19.75Q-0.6 17.2 1 15.25L1.95 13.85Q3.1 11.75 3 9.3Q2.95 8.3 2.5 7.4L2.5 7.15L2.75 7.2L3.1 7.55Q3.75 8.4 3.7 10.2L3.3 12.55L2.8 13.7L2.5 14.15L0.45 17.55Q-0.35 19.25 -0.25 21.25Q0 25.25 3.85 27.65Q3.5 27.25 3.55 26.35Q3.5 26 3.6 25.6Q3.8 24.1 4.85 22.8L4.7 21.25L4.9 19.85Q5.3 18.55 6.1 17.7L7.95 17.85L8.25 17.95Q9.3 18.45 9.85 19.25Q11.7 17.3 13.8 17.2L15.1 17.25Q14.5 16 14.3 14.75L14.15 12.95Q14.05 8.7 16.5 5.4L17.4 4.3L16.9 5.95L16.15 7.3Q14.8 9.7 14.9 12.7L14.95 13.1Q15.1 16.35 16.75 18.35Q17.6 19.4 16.5 19.25L15.7 19.2L13.7 19.5Q12 19.9 11.5 20.55L10.7 21.9Q10.35 22.65 9.4 21.5Q8.4 20.3 7.05 20Q6.3 21.55 7.2 23.1Q6.35 23.65 5.95 25.05Q5.7 26 6.3 27.15L7 28.2L7.1 27.3Q7.35 26.05 8.25 25.05Q10.9 22.15 14.65 21.2M5.65,27.3Q4.7 24.65 6.35 23Q5.7 21.4 6.45 19.3L6.5 19.2L6.55 19.2Q9.1 19.8 10.2 21.35Q10.75 19.7 12.6 19.05L14.45 18.6L16.05 18.55L15.5 17.85L14.1 17.75L14.05 17.75Q12.75 17.85 11.75 18.5L10.4 19.7Q10.05 20.25 9.7 19.85L8.55 18.95L7.55 18.45L6.75 18.25Q6.25 18.35 5.85 19.3Q5.6 19.75 5.5 20.25L5.35 21L5.35 22.3L5.45 22.95L5.35 23.15L4.7 24.2Q4.15 25.15 4.25 26.35L4.25 26.75Q4.4 27.6 4.85 27.9L6.35 28.35L5.85 27.6L5.65 27.3" />
<path style="fill:#645D4C;fill-opacity:1" d="M13.45,16.15L13.8 17.2Q11.7 17.3 9.85 19.25Q9.3 18.45 8.25 17.95L8.35 17.9Q10.7 16.5 12.95 16.2L12.35 15.2L12.5 14.75L12.8 14.2L13 13.9Q13.05 14.95 13.45 16.15M3.5,13.15L3.7 12.95L5.1 10.9L5.15 12Q5.35 13.1 6.1 13.6L6.95 13.55Q7.85 13.5 8.75 12.85L9.7 13.8Q10.45 14.35 11.35 14.6L9.75 15.6L6.7 16.55Q4.95 16.8 3.05 15.55Q0.2 19.15 1.35 22.75Q1.9 24.4 3 25.45Q3.4 23.05 4.7 21.25L4.85 22.8Q3.8 24.1 3.6 25.6Q3.5 26 3.55 26.35L2.9 26L2.9 26.05Q1.6 25 0.9 23.1Q-0.5 19.3 2.6 15.2Q3.55 14 3.5 13.15" />
<path style="fill:#3A3A2C;fill-opacity:1" d="M8.25,25.05Q7.35 26.05 7.1 27.3L7 28.2L6.3 27.15Q5.7 26 5.95 25.05Q6.35 23.65 7.2 23.1Q6.3 21.55 7.05 20Q8.4 20.3 9.4 21.5Q10.35 22.65 10.7 21.9L11.5 20.55Q12 19.9 13.7 19.5L15.7 19.2L14.65 21.2Q10.9 22.15 8.25 25.05" />
<path style="fill:#98948E;fill-opacity:1" d="M13,13.9Q13.5 13.25 14.15 12.95L14.3 14.75Q14.5 16 15.1 17.25L13.8 17.2L13.45 16.15Q13.05 14.95 13 13.9M3.5,13.15Q3.55 14 2.6 15.2Q-0.5 19.3 0.9 23.1Q1.6 25 2.9 26.05L2.9 26L3.55 26.35Q3.5 27.25 3.85 27.65Q0 25.25 -0.25 21.25Q-0.35 19.25 0.45 17.55L2.5 14.15L2.8 13.7L3.5 13.15" />
<path style="fill:#38382E;fill-opacity:1" d="M2.8,13.7L3.3 12.55L3.7 10.2Q3.75 8.4 3.1 7.55L3.2 6.3Q5.75 4 9.3 3.4Q11.5 3 13.65 3.4Q14.55 3.55 15.3 4.05L16.4 5.25L16.5 5.4Q14.05 8.7 14.15 12.95Q13.5 13.25 13 13.9L12.8 14.2L12.5 14.75L12.35 15.2L12.95 16.2Q10.7 16.5 8.35 17.9L8.25 17.95L7.95 17.85L6.1 17.7Q5.3 18.55 4.9 19.85L4.7 21.25Q3.4 23.05 3 25.45Q1.9 24.4 1.35 22.75Q0.2 19.15 3.05 15.55Q4.95 16.8 6.7 16.55L9.75 15.6L11.35 14.6Q10.45 14.35 9.7 13.8L8.75 12.85Q7.85 13.5 6.95 13.55L6.1 13.6Q5.35 13.1 5.15 12L5.1 10.9L3.7 12.95L3.5 13.15L2.8 13.7" />
<path style="fill:#512A70;fill-opacity:1" d="M14.45,18.6L12.6 19.05Q10.75 19.7 10.2 21.35Q9.1 19.8 6.55 19.2L6.5 19.2L6.45 19.3Q5.7 21.4 6.35 23Q4.7 24.65 5.65 27.3L4.25 26.75L4.25 26.35Q4.15 25.15 4.7 24.2L5.35 23.15L5.45 22.95L5.35 22.3L5.35 21L5.5 20.25Q5.6 19.75 5.85 19.3Q6.25 18.35 6.75 18.25L7.55 18.45L8.55 18.95L9.7 19.85Q10.05 20.25 10.4 19.7L11.75 18.5Q12.75 17.85 14.05 17.75L14.45 18.6" />
<path style="fill:#7E52A1;fill-opacity:1" d="M5.85,27.6L6.35 28.35L4.85 27.9Q4.4 27.6 4.25 26.75L5.65 27.3L5.85 27.6M14.45,18.6L14.05 17.75L14.1 17.75L15.5 17.85L16.05 18.55L14.45 18.6" />
</g>
</svg>
