<?xml version="1.0" encoding="utf-8"?>
<svg version="1.1" id="Layer_1"
xmlns="http://www.w3.org/2000/svg"
xmlns:xlink="http://www.w3.org/1999/xlink"
xmlns:author="http://www.sothink.com"
width="31px" height="27px"
xml:space="preserve">
<g id="2789" transform="matrix(1, 0, 0, 1, -14.25, -23.2)">
<path style="fill:#463D36;fill-opacity:1" d="M27.3,26.35Q25.6 27.5 24.2 29.05Q22.15 31.55 21.05 33.75L20.95 33.85Q20.2 35.65 19.9 37.25L19.65 38.6L19.35 37.65L19.1 37.6Q19.5 35.65 20.15 33.8L20.7 32.6L22.8 29.2Q28.8 22.15 38.75 23.4L39.3 23.5Q41.5 23.95 42.9 24.5Q44.45 25.1 44.95 25.45L45.2 25.7L45.2 25.8L44.95 26.35L43.25 29.05Q42.15 31.2 42 33.5L42.1 36L42.2 36.55L42.25 37.1L42.35 37.35L42.45 37.8L42.45 37.95L41.9 38.05L41.3 37.95L38.85 37.7L37.5 37.65L36.95 37.7Q35.4 37.7 34.1 39.05Q32.85 40.3 32.45 41.65L32.1 43.1L30.7 42.6L28.15 42.45Q26.35 42.55 25.15 43.4L24.6 43.9L24.1 43.65Q24.55 43.1 25.55 42.45Q27.55 41.3 31.4 42L31.6 41.2L31.85 40.55L32.65 39.05Q34.6 36.25 39.35 37L41.45 37.2L41.5 37.25L41.4 36.65L41.25 36.15L41.1 34.05L41.2 32.8Q41.45 30.1 42.7 27.9Q43.45 26.65 44.05 25.95L43.8 25.75L43.65 25.65Q39.65 23.95 35.55 24.1L33.05 24.3Q29.8 24.85 27.3 26.35" />
<path style="fill:#FFFFFF;fill-opacity:1" d="M41.35,29.2Q41.65 27.05 42.65 25.95Q38.95 24.1 33.05 24.3L35.55 24.1Q39.65 23.95 43.65 25.65L43.8 25.75L44.05 25.95Q43.45 26.65 42.7 27.9Q41.45 30.1 41.2 32.8Q41.05 31.25 41.35 29.2" />
<path style="fill:#E2E2E2;fill-opacity:1" d="M39.35,26.3Q35.85 27.55 34.7 28.55L34.3 28.65L34.95 27.8Q36.95 26.15 39.65 25.35Q33.2 24.35 27.3 26.35Q29.8 24.85 33.05 24.3Q38.95 24.1 42.65 25.95Q41.65 27.05 41.35 29.2Q41.05 31.25 41.2 32.8L41.1 34.05L41.25 36.15L41.4 36.65L41.5 37.25L41.45 37.2Q40.05 36.3 38 35.45L34.25 34.35L34.15 34.15L35.25 34.3Q38.25 34.85 40.7 36.1Q39.75 31.45 41.45 26L39.35 26.3M30,40.15L28.75 38.6L28.75 38.45L31.4 41.05L31.85 39.95L32.65 39.05L31.85 40.55L31.6 41.2L31.4 42L30 40.15M42,25.75L41.85 25.75L41.45 26L42 25.75" />
<path style="fill:#1E181A;fill-opacity:1" d="M21.35,41.7L20.75 41Q21.45 38.55 23.6 34.8Q26.6 29.65 34.3 28.65L34.7 28.55Q34.15 29.2 33.75 30.3Q33.1 32.3 34.15 34.15L34.25 34.35L31.55 34.6Q29.05 35.5 28.75 38.45L28.75 38.6Q27.3 38.7 25.8 39.35Q23.35 40.45 22.35 42.7L21.35 41.7M30.75,32.05L30.6 31.85Q30.35 31.55 29.75 31.45Q29.15 31.4 28.6 31.75Q28.1 32.1 27.95 32.65Q27.8 33.25 28.1 33.65Q28.45 34.05 29.05 34.1L30.2 33.85L30.85 33.3L30.95 33Q31.05 32.4 30.75 32.05M27.1,34.8Q26.85 34.6 26.45 34.55Q26 34.6 25.65 34.9Q25.3 35.25 25.3 35.65Q25.2 36.2 25.5 36.4Q25.75 36.8 26.2 36.75Q26.65 36.8 27 36.4L27.3 35.95L27.4 35.6L27.2 34.85L27.1 34.8M24.55,37.6L24.4 37.5L23.95 37.35Q23.65 37.35 23.4 37.6Q23.15 37.85 23.15 38.15Q23.05 38.5 23.3 38.75L23.85 38.95L24.4 38.7L24.7 38.15L24.65 38.05L24.55 37.6" />
<path style="fill:#E29E36;fill-opacity:1" d="M30.95,33L30.85 33.3L30.2 33.85L29.05 34.1Q28.45 34.05 28.1 33.65Q27.8 33.25 27.95 32.65Q28.1 32.1 28.6 31.75Q29.15 31.4 29.75 31.45Q30.35 31.55 30.6 31.85L30.75 32.05Q31.05 32.4 30.95 33M29.95,31.8L29.7 31.65Q29.2 31.65 28.75 31.95L28.2 32.65Q28.05 33.15 28.3 33.5Q28.65 33.9 29.1 33.9L30.05 33.7Q30.2 33.65 30.3 33.55L29.75 33.55Q29.35 33.55 29.15 33.25Q28.9 32.95 29 32.55L29.5 31.95L29.95 31.8M29.85,32.75Q30.4 33.6 30.55 32.6Q30.25 32 29.9 32.4Q29.8 32.6 29.85 32.75M27.2,34.85L27.4 35.6L27.3 35.95L27 36.4Q26.65 36.8 26.2 36.75Q25.75 36.8 25.5 36.4Q25.2 36.2 25.3 35.65Q25.3 35.25 25.65 34.9Q26 34.6 26.45 34.55Q26.85 34.6 27.1 34.8L27.2 34.85M26.7,35.1Q26.4 35.2 26.6 35.5Q27.05 36.3 27.05 35.3Q26.95 35.05 26.7 35.1M26.55,34.8L26.45 34.8Q26.05 34.8 25.8 35.05Q25.5 35.35 25.5 35.6Q25.45 36.1 25.65 36.35L26.25 36.5Q26.65 36.6 26.85 36.25L26.7 36.25Q26.35 36.35 26.2 36.05Q26 35.85 26.1 35.5L26.3 34.95Q26.45 34.9 26.55 34.8M24.65,38.05L24.7 38.15L24.4 38.7L23.85 38.95L23.3 38.75Q23.05 38.5 23.15 38.15Q23.15 37.85 23.4 37.6Q23.65 37.35 23.95 37.35L24.4 37.5L24.55 37.6L24.65 38.05M24.45,37.95L24.15 37.6L24.05 37.75Q24.2 38.55 24.45 37.95M24.15,38.5L23.8 38.35L23.65 38L23.9 37.65L24 37.5L23.95 37.5Q23.75 37.5 23.5 37.75L23.3 38.1L23.4 38.6L23.85 38.8Q24.15 38.85 24.3 38.6L24.55 38.35L24.15 38.5" />
<path style="fill:#D74B25;fill-opacity:1" d="M29.5,31.95L29 32.55Q28.9 32.95 29.15 33.25Q29.35 33.55 29.75 33.55L30.3 33.55Q30.2 33.65 30.05 33.7L29.1 33.9Q28.65 33.9 28.3 33.5Q28.05 33.15 28.2 32.65L28.75 31.95Q29.2 31.65 29.7 31.65L29.95 31.8L29.5 31.95M26.3,34.95L26.1 35.5Q26 35.85 26.2 36.05Q26.35 36.35 26.7 36.25L26.85 36.25Q26.65 36.6 26.25 36.5L25.65 36.35Q25.45 36.1 25.5 35.6Q25.5 35.35 25.8 35.05Q26.05 34.8 26.45 34.8L26.55 34.8Q26.45 34.9 26.3 34.95M24.55,38.35L24.3 38.6Q24.15 38.85 23.85 38.8L23.4 38.6L23.3 38.1L23.5 37.75Q23.75 37.5 23.95 37.5L24 37.5L23.9 37.65L23.65 38L23.8 38.35L24.15 38.5L24.55 38.35" />
<path style="fill:#F7DA7D;fill-opacity:1" d="M29.9,32.4Q30.25 32 30.55 32.6Q30.4 33.6 29.85 32.75Q29.8 32.6 29.9 32.4M27.05,35.3Q27.05 36.3 26.6 35.5Q26.4 35.2 26.7 35.1Q26.95 35.05 27.05 35.3M24.05,37.75L24.15 37.6L24.45 37.95Q24.2 38.55 24.05 37.75" />
<path style="fill:#871A1A;fill-opacity:1" d="M19.05,42.6L19.15 42.7L19.45 43.3L19.4 43.3L18.75 42.9L18.65 42.85L18.35 42.7L18.05 42.6L17.75 42.55L17.3 42.35L17.05 42.35L16.95 42.3L16.2 42.25L15.75 42.25L15.5 42.3L15.45 42.35Q15.1 40.35 15.7 38.8L16 38L17.05 37.6L17.55 37.65L17.05 38.6Q16.55 39.6 16.65 40.95L16.75 41.5L16.8 41.7L16.8 41.75L16.95 41.8Q17.1 41.95 17.2 41.9L17.6 42L17.95 42.15L18.65 42.45L19.05 42.55L19.05 42.6M21.7,44.7L21.45 44.65L21.3 44.65L21.05 44.65L20.85 44.45L20.15 43.85L19.8 43.55L19.5 42.85L19.4 42.65L19.35 42.3L19.05 41.25L20.5 43.5L21.25 44.2L21.7 44.65L21.7 44.7M23.25,48L23.35 48.65L22.95 48.8L22.75 49L22.75 48.65L22.75 48.15L22.75 48.05L22.65 47.55L22.5 47.15L22.35 46.6L22 46.05L21.55 45.25L21.45 45.1L21.3 44.95L21.45 45L21.85 45.15L22.05 45.15L22.1 45.15L22.75 45.3L22.95 45.3L23.35 45.35L24.4 45.2L23.95 45.55L23.45 45.75L23.05 45.85L22.9 45.85L22.5 45.9L22.5 45.95L22.95 46.85L23 47.05L23.2 47.8L23.25 48" />
<path style="fill:#5B1414;fill-opacity:1" d="M22.35,42.7L22.9 43L24.1 43.65L24.6 43.9L24.65 43.9L26.05 44.4Q25.85 48.75 22.55 49.5L22.45 49.5L22.25 49.1Q22.55 48.4 22.15 47.15L21.9 46.5L21.35 45.65L20.95 45.1L20.85 45.05L19.2 43.5L18.75 43.3L18.1 43L16.95 42.75L16.2 42.7Q15.55 42.8 15.2 43.3L14.95 43.5Q14.85 43.55 14.65 42.8L14.55 42.3L14.25 40.95Q14.15 39.55 14.8 38.5Q15.5 37.5 16.3 37.25L17.9 37.25L19.1 37.6L19.35 37.65L19.65 38.6L19.95 39.35L20.75 41L21.35 41.7L22.35 42.7M15.45,42.35L15.5 42.3L15.75 42.25L16.2 42.25L16.95 42.3L17.05 42.35L17.3 42.35L17.75 42.55L18.05 42.6L18.35 42.7L18.65 42.85L18.75 42.9L19.4 43.3L19.45 43.3L19.15 42.7L19.05 42.6L19.05 42.55L19 42.3L18.7 41.4L18.55 41L18.55 40.6L18.45 40.2L18.4 38.45L18.45 38.15L18.55 37.85L18.4 37.8L18.05 37.7L17.95 37.7L17.55 37.65L17.05 37.6L16 38Q14.45 39.2 14.7 41.45L14.95 42.9Q15.05 42.45 15.45 42.35M19,39.65L19 40.75L19.05 40.85L19.05 41.2L19.05 41.25L19.35 42.3L19.4 42.65L19.5 42.85L19.8 43.55L20.15 43.85L20.85 44.45L21.05 44.65L21.3 44.65L21.45 44.65L21.7 44.7L21.8 44.7L21.85 44.7L22 44.7L22.75 44.75L22.75 44.7L23.25 44.75L23.65 44.7L23.9 44.7L24.1 44.65L24.95 44.5L24.2 44.25L23.8 44.1L23.75 44.05L23.4 43.9L22.95 43.65L22.95 43.6L22.65 43.35L22.4 43.25L22.15 43.05L22 42.9L20.6 41.45L20.3 41.05L19.8 40.05L19.5 39.45L19.3 38.95L19.05 38.4L19 39.55L19 39.65M25.5,45.15L25.55 44.7L24.85 45.05L24.4 45.2L23.35 45.35L22.95 45.3L22.75 45.3L22.1 45.15L22.05 45.15L21.85 45.15L21.45 45L21.3 44.95L21.45 45.1L21.55 45.25L22 46.05L22.35 46.6L22.5 47.15L22.65 47.55L22.75 48.05L22.75 48.15L22.75 48.65L22.75 49L22.95 48.8L23.35 48.65Q25.35 47.5 25.5 45.15" />
<path style="fill:#CB2E2E;fill-opacity:1" d="M17.95,37.7Q17.65 38.45 18 39.9L18.2 40.6L18.3 41L18.6 41.8L18.9 42.3L19.05 42.55L18.65 42.45L17.95 42.15L17.6 42L17.2 41.9Q17.1 41.95 16.95 41.8L16.8 41.75L16.8 41.7L16.75 41.5L16.65 40.95Q16.55 39.6 17.05 38.6L17.55 37.65L17.95 37.7M14.95,42.9L14.7 41.45Q14.45 39.2 16 38L15.7 38.8Q15.1 40.35 15.45 42.35Q15.05 42.45 14.95 42.9M21.7,44.65L21.25 44.2L20.5 43.5L19.05 41.25L19.05 41.2L19.05 40.85L19 40.75L19 39.65L19 39.55L19.3 40.25L19.35 40.35L19.45 40.55L19.65 40.8L20.15 41.6L20.5 42L20.95 42.45L21.25 42.8L21.65 43.2L22 43.45L22.05 43.5L22.4 43.75L22.75 44L23.2 44.2L23.25 44.3L23.15 44.35L23.1 44.35L22.7 44.5L22.55 44.5L21.85 44.65L21.85 44.7L21.8 44.7L21.7 44.7L21.7 44.65M24.85,45.05Q25 45.5 24.75 46.1Q24.5 47.2 23.3 47.8L23.2 47.8L23 47.05L22.95 46.85L22.5 45.95L22.5 45.9L22.9 45.85L23.05 45.85L23.45 45.75L23.95 45.55L24.4 45.2L24.85 45.05" />
<path style="fill:#F3745B;fill-opacity:1" d="M18.9,42.3L18.6 41.8L18.3 41L18.2 40.6L18 39.9Q17.65 38.45 17.95 37.7L18.05 37.7L18.4 37.8L18.55 37.85L18.45 38.15L18.4 38.45L18.45 40.2L18.55 40.6L18.55 41L18.7 41.4L19 42.3L19.05 42.55L18.9 42.3M21.85,44.65L22.55 44.5L22.7 44.5L23.1 44.35L23.15 44.35L23.25 44.3L23.2 44.2L22.75 44L22.4 43.75L22.05 43.5L22 43.45L21.65 43.2L21.25 42.8L20.95 42.45L20.5 42L20.15 41.6L19.65 40.8L19.45 40.55L19.35 40.35L19.3 40.25L19 39.55L19.05 38.4L19.3 38.95L19.5 39.45L19.8 40.05L20.3 41.05L20.6 41.45L22 42.9L22.15 43.05L22.4 43.25L22.65 43.35L22.95 43.6L22.95 43.65L23.4 43.9L23.75 44.05L23.8 44.1L24.2 44.25L24.95 44.5L24.1 44.65L23.9 44.7L23.65 44.7L23.25 44.75L22.75 44.7L22.75 44.75L22 44.7L21.85 44.7L21.85 44.65M23.35,48.65L23.25 48L23.2 47.8L23.3 47.8Q24.5 47.2 24.75 46.1Q25 45.5 24.85 45.05L25.55 44.7L25.5 45.15Q25.35 47.5 23.35 48.65" />
<linearGradient
id="LinearGradID_2707" gradientUnits="userSpaceOnUse" gradientTransform="matrix(0.0150604, -0.00756836, -0.00349426, -0.00605774, 29.05, 33.3)" spreadMethod ="pad" x1="-819.2" y1="0" x2="819.2" y2="0" >
<stop  offset="0" style="stop-color:#7B6F66;stop-opacity:1" />
<stop  offset="1" style="stop-color:#CDC2BC;stop-opacity:1" />
</linearGradient>
<path style="fill:url(#LinearGradID_2707) " d="M39.65,25.35Q36.95 26.15 34.95 27.8L34.3 28.65Q26.6 29.65 23.6 34.8Q21.45 38.55 20.75 41L19.95 39.35L19.65 38.6L19.9 37.25Q20.2 35.65 20.95 33.85L21.05 33.75Q22.15 31.55 24.2 29.05Q25.6 27.5 27.3 26.35Q33.2 24.35 39.65 25.35M41.45,26L41.85 25.75L42 25.75L41.45 26" />
<linearGradient
id="LinearGradID_2708" gradientUnits="userSpaceOnUse" gradientTransform="matrix(-0.00219727, 0.00531006, 0.00485229, 0.00250244, 41.55, 28.85)" spreadMethod ="pad" x1="-819.2" y1="0" x2="819.2" y2="0" >
<stop  offset="0" style="stop-color:#7B6F66;stop-opacity:1" />
<stop  offset="1" style="stop-color:#CDC2BC;stop-opacity:1" />
</linearGradient>
<path style="fill:url(#LinearGradID_2708) " d="M33.75,30.3Q34.15 29.2 34.7 28.55Q35.85 27.55 39.35 26.3L41.45 26Q39.75 31.45 40.7 36.1Q38.25 34.85 35.25 34.3L34.15 34.15Q33.1 32.3 33.75 30.3" />
<linearGradient
id="LinearGradID_2709" gradientUnits="userSpaceOnUse" gradientTransform="matrix(-0.00430298, 0.00241089, 0.00212097, 0.00338745, 36, 37)" spreadMethod ="pad" x1="-819.2" y1="0" x2="819.2" y2="0" >
<stop  offset="0" style="stop-color:#7B6F66;stop-opacity:1" />
<stop  offset="1" style="stop-color:#CDC2BC;stop-opacity:1" />
</linearGradient>
<path style="fill:url(#LinearGradID_2709) " d="M31.85,39.95L31.4 41.05L28.75 38.45Q29.05 35.5 31.55 34.6L34.25 34.35L38 35.45Q40.05 36.3 41.45 37.2L39.35 37Q34.6 36.25 32.65 39.05L31.85 39.95" />
<linearGradient
id="LinearGradID_2710" gradientUnits="userSpaceOnUse" gradientTransform="matrix(-0.00614929, 0.00312805, 0.00149536, 0.00253296, 27.95, 42.1)" spreadMethod ="pad" x1="-819.2" y1="0" x2="819.2" y2="0" >
<stop  offset="0" style="stop-color:#7B6F66;stop-opacity:1" />
<stop  offset="1" style="stop-color:#CDC2BC;stop-opacity:1" />
</linearGradient>
<path style="fill:url(#LinearGradID_2710) " d="M22.9,43L22.35 42.7Q23.35 40.45 25.8 39.35Q27.3 38.7 28.75 38.6L30 40.15L31.4 42Q27.55 41.3 25.55 42.45Q24.55 43.1 24.1 43.65L22.9 43" />
</g>
</svg>
