<?xml version="1.0" encoding="utf-8"?>
<svg version="1.1" id="Layer_1"
xmlns="http://www.w3.org/2000/svg"
xmlns:xlink="http://www.w3.org/1999/xlink"
xmlns:author="http://www.sothink.com"
width="28px" height="33px"
xml:space="preserve">
<g id="1407" transform="matrix(1, 0, 0, 1, 0, 0)">
<path style="fill:#625643;fill-opacity:1" d="M13.5,30L14.35 29.9L14.4 29.9Q13.85 28.6 13.95 27.6Q14 26.7 14.65 25.5L13.75 25.65L14.8 24.65L14.85 24.6L14.9 24.6L15.4 24.5L15.35 24.25L16.05 23.7L16.05 23.85Q16.45 25.5 17.75 25.25L17.85 25.25L18.45 25Q19.3 24.6 19.45 23.8Q19.65 22.7 19.1 21.85L18.95 21.65L20.3 21.25L20.55 21.75L22.35 21.8L23.9 21.25L24.25 21.3L25.25 21.5Q24.2 23.25 20.7 22.85Q20.65 25 19.45 25.7L19.35 27.4Q19.3 28.95 19.4 30.1L19.4 31.4L18.65 32.1L16.85 32.2Q16.05 32.05 15.55 31.7L15.25 31.4L14.8 30.85L13.95 31.05L13.5 30M12.35,22.65L11.95 23.15L11.5 22.05L11 22.75L11.4 22L11.5 22.05L12.15 22.6L12.2 22.5L12.35 22.55L12.35 22.65M15.9,30.55L16.65 31L18.2 30.65L18.15 27.75L18.2 26.25Q18.1 26.45 17.15 26.25Q16.25 26.05 15.8 25.5L15.4 26.3L15.25 26.65L15.05 28.35Q15 29.15 15.3 29.75L15.65 30.3L15.9 30.55" />
<path style="fill:#CCC6B8;fill-opacity:1" d="M14.9,24.6L15.35 24.25L15.4 24.5L14.9 24.6M20.3,21.25L21.9 21.05L23.9 21.25L22.35 21.8L20.55 21.75L20.3 21.25M17.5,24.35Q16.95 23.95 16.95 22.95L18.15 22.05L18.65 21.8L18.95 22.95Q18.95 23.8 18.45 24.35L18.05 24.75L17.5 24.35M16.65,31L15.9 30.55L15.65 30.3L15.8 27.55L17.3 27.8L17.6 27.8L17.7 28.85Q17.7 29.55 17.3 30.3L16.65 31M11.85,28.5Q12.6 26.9 13.65 25.75L13.65 25.65L13.75 25.65L13.65 25.75L13.2 27.9Q13.2 29.05 13.5 30Q12.35 30 12.05 29.2L11.85 28.5" />
<path style="fill:#B3A38A;fill-opacity:1" d="M24.4,20.8L23.9 21.25L21.9 21.05L20.3 21.25L19.85 20.7Q19.55 20.4 19.1 20.4Q14.65 20.6 15.35 24.25L14.9 24.6L14.85 24.6Q12.85 25.05 12.7 24.1L12.35 22.9L12.35 22.65Q13.6 21.15 15.15 19.75Q18.25 17.05 20.55 17.05L23.45 17.3Q24.1 17.55 24.75 18.5L25.35 19.3L24.4 20.8M18.05,24.75L18.45 25L17.85 25.25L17.75 25.25Q16.45 25.5 16.05 23.85L16.05 23.7Q15.7 22.05 17.1 21.55L17.65 21.4L17.85 21.35L18.1 21.35Q18.6 21.35 18.95 21.65L18.65 21.8L18.15 22.05L16.95 22.95Q16.95 23.95 17.5 24.35L18.05 24.75M13.2,27.9L13.65 25.75Q12.6 26.9 11.85 28.5Q11.7 27.75 11.9 26.9L12.25 24.95L12.6 25.45L13.65 25.65L13.65 25.75L13.75 25.65L14.65 25.5Q14 26.7 13.95 27.6Q13.85 28.6 14.4 29.9L14.35 29.9L13.5 30Q13.2 29.05 13.2 27.9M17.6,27.8L17.3 27.8L15.8 27.55L15.65 30.3L15.3 29.75Q15 29.15 15.05 28.35L15.25 26.65L15.4 26.3L15.8 25.5Q16.25 26.05 17.15 26.25Q18.1 26.45 18.2 26.25L18.15 27.75L17.6 27.8" />
<path style="fill:#4A4131;fill-opacity:1" d="M12.05,29.2Q12.35 30 13.5 30L13.95 31.05Q12.25 31.25 11.35 29.8L10.95 29.05Q9.9 26.3 11.15 23.95Q10.8 23.35 11 22.75L11.5 22.05L11.95 23.15L12.35 22.65L12.35 22.9L12.7 24.1Q12.85 25.05 14.85 24.6L14.8 24.65L13.75 25.65L13.65 25.65L12.6 25.45L12.25 24.95L11.9 26.9Q11.7 27.75 11.85 28.5L12.05 29.2M18.1,21.35L17.85 21.35L17.65 21.4L17.1 21.55Q15.7 22.05 16.05 23.7L15.35 24.25Q14.65 20.6 19.1 20.4Q19.55 20.4 19.85 20.7L20.3 21.25L18.95 21.65Q18.6 21.35 18.1 21.35M25.25,21.5L24.25 21.3L23.9 21.25L24.4 20.8L25.35 19.3L25.55 19.4L25.6 19.15Q26.2 19.25 25.4 21.15L25.25 21.5" />
<path style="fill:#E9E7DA;fill-opacity:1" d="M18.05,24.75L18.45 24.35Q18.95 23.8 18.95 22.95L18.65 21.8L18.95 21.65L19.1 21.85Q19.65 22.7 19.45 23.8Q19.3 24.6 18.45 25L18.05 24.75M17.3,30.3Q17.7 29.55 17.7 28.85L17.6 27.8L18.15 27.75L18.2 30.65L16.65 31L17.3 30.3" />
<path style="fill:none;stroke-width:1;stroke-linecap:round;stroke-linejoin:round;stroke-miterlimit:3;stroke:#694A1F;stroke-opacity:1" d="M25.35,19.3L24.75 18.5Q24.1 17.55 23.45 17.3L20.55 17.05Q18.25 17.05 15.15 19.75Q13.6 21.15 12.35 22.65L11.95 23.15L11.5 22.05L11 22.75Q10.3 23.75 9.8 24.9L8.8 27.55M25.35,19.3L25.55 19.4L25.6 19.15L25.7 17.9" />
<path style="fill:#191919;fill-opacity:1" d="M18.55,19.8L18.6 19.75L18.6 19.8Q19 19.45 19.65 19.2L21 18.8L24.2 18.7Q26.75 18.8 25.7 16.95L25.4 16.4L25.2 16Q24.55 14.5 24.35 12.7L23.95 9.25L23.75 8.7Q23.4 8.05 22.65 7.75Q21.55 7.3 20.55 7.75Q19.5 8.15 18.75 9.05L18.65 9.1L18.3 8.85L17.85 8.5Q19.4 6.65 22.55 6.55Q24.2 7 24.75 8.55L25 9.8Q25.2 12.4 25.7 14.05L26.25 15.7L26.5 16.1L27.1 17.6Q27.25 18.7 26.4 19.35Q25.55 20 23.2 19.7Q20.8 19.4 17.75 21.25L18.55 20.4L18.6 20.2L18.55 19.8" />
<path style="fill:#3E3A2F;fill-opacity:1" d="M4.7,17.5Q1.75 16.85 0.55 14Q-0.2 12.2 0.1 10.7Q0.25 9.85 0.7 9.15Q0.7 9.25 2.65 9.95Q4.7 10.7 6.05 10.85L6.55 10.9L7.45 10.9Q9.45 10.8 10.05 12.2Q10.65 13.55 10.15 15.2L9.55 16.4L8.85 17.05L7.4 17.6L6.15 17.65L4.7 17.5M8.8,12.45L8.35 12Q5.3 12.15 3.3 11.4L1.2 10.7L1.2 11.55L1.2 11.8Q1.3 12.85 1.75 13.75L1.9 14Q2.7 15.35 3.6 15.9Q4.45 16.4 4.9 16.5L6.05 16.6Q6.8 16.65 7.95 16.2Q8.8 15.65 8.95 15L8.95 14.85L9.15 13.45L9.15 13.35L8.8 12.45" />
<path style="fill:#5F5F5F;fill-opacity:1" d="M25.4,16.4L24.05 16.7L20.9 16.5Q20.3 14.7 20.3 12.5Q20.3 11.1 21.45 10Q22.55 10.4 23.35 12.25L25 16L25.2 16L25.4 16.4" />
<path style="fill:#BF7A24;fill-opacity:1" d="M11.6,8.85Q9.25 7.1 8.9 5.1L8.4 6.2Q8.35 5.85 8.6 5L8.8 4.35L8.9 5.1Q9.55 4 10.7 3.3L10.8 3.7L11.25 4.5L12.2 6.15Q12.9 7.35 15.2 9.35Q15.2 9.75 14.2 10.25Q13.05 9.95 11.6 8.85M16.95,16.25Q16.8 16.95 16.9 17.8Q16.95 18.65 16.05 18.5L14.65 18.3L14.45 17.6L14.65 17.1Q14.75 15.6 15.1 14.3Q15.4 13 16.75 11.55L17.35 11Q16.7 13.45 16.95 16.25M9.2,26.2Q9.45 24.6 9.9 23.5L10.6 22.55Q11.45 21.4 12.45 20.65L12.6 20.55L12.8 21.5L11.15 23.35Q9.5 25.8 9.5 29L8.9 29L9.2 26.2" />
<path style="fill:#F0EAC6;fill-opacity:1" d="M9.15,13.35L8.85 13.4L6.75 13.6Q4.2 13.6 2.05 12.25L2.2 11.6L4.05 12.1L6.2 12.5L8.8 12.45L9.15 13.35M1.2,11.8L1.95 12.75L2.6 13.45Q4.55 15.3 6.85 15.3L8.35 15.1Q8.75 14.9 8.95 14.85L8.95 15Q8.8 15.65 7.95 16.2Q6.8 16.65 6.05 16.6L4.9 16.5Q4.45 16.4 3.6 15.9Q2.7 15.35 1.9 14L1.75 13.75Q1.3 12.85 1.2 11.8" />
<path style="fill:#353535;fill-opacity:1" d="M20.3,12.5Q20.3 14.7 20.9 16.5L24.05 16.7L25.4 16.4L25.7 16.95Q26.75 18.8 24.2 18.7L21 18.8L19.65 19.2Q19 19.45 18.6 19.8L18.6 19.75L18.55 19.8Q18.35 19.25 18.1 16.85Q17.9 15.25 18 13.7L18.15 12.2L18.75 9.05Q19.5 8.15 20.55 7.75Q21.55 7.3 22.65 7.75Q23.4 8.05 23.75 8.7Q22.75 8.95 21.9 9.6L21.45 10Q20.3 11.1 20.3 12.5" />
<path style="fill:#959595;fill-opacity:1" d="M23.95,9.25L24.35 12.7Q24.55 14.5 25.2 16L25 16L23.35 12.25Q22.55 10.4 21.45 10L21.9 9.6Q22.75 8.95 23.75 8.7L23.95 9.25" />
<path style="fill:#FAC154;fill-opacity:1" d="M9.45,3.05L10 2.15Q10.7 1.1 11.1 1.15L11.35 2L11.65 3L12.05 4.05Q12.5 5.1 13.75 6.65L14.45 7.4L17.15 9.4Q16.8 10 15.4 10.3L14.2 10.25Q15.2 9.75 15.2 9.35Q12.9 7.35 12.2 6.15L11.25 4.5L10.8 3.7L10.7 3.3Q9.55 4 8.9 5.1L8.8 4.35L9.45 3.05" />
<path style="fill:#A66221;fill-opacity:1" d="M17.75,9.75L17.35 11L16.75 11.55Q15.4 13 15.1 14.3Q14.75 15.6 14.65 17.1L14.45 17.6Q13.75 15.9 14.05 13.75Q14.35 11.55 13 11.1L12.75 11.05Q11.45 10.55 10.15 9.2Q8.7 7.7 8.55 7.1L8.4 6.2L8.9 5.1Q9.25 7.1 11.6 8.85Q13.05 9.95 14.2 10.25L15.4 10.3Q16.8 10 17.15 9.4L17.75 9.75M17.5,19.7L17.55 19.75L15.35 20.95Q10.9 23.85 10.3 29.45L8.9 29.55L8.5 29.25L8.35 29L8.9 29L9.5 29Q9.5 25.8 11.15 23.35L12.8 21.5L12.6 20.55L13.2 20.15L14.4 19.2L17.5 19.7" />
<path style="fill:#9D8E79;fill-opacity:1" d="M6.75,13.6L8.85 13.4L9.15 13.35L9.15 13.45L8.95 14.85Q8.75 14.9 8.35 15.1L6.85 15.3Q4.55 15.3 2.6 13.45L1.95 12.75L1.2 11.8L1.2 11.55L2.05 12.25Q4.2 13.6 6.75 13.6" />
<path style="fill:#FFFCEE;fill-opacity:1" d="M1.2,10.7L3.3 11.4Q5.3 12.15 8.35 12L8.8 12.45L6.2 12.5L4.05 12.1L2.2 11.6L2.05 12.25L1.2 11.55L1.2 10.7" />
<path style="fill:#E5AA38;fill-opacity:1" d="M8.9,29L8.35 29Q8.1 28.35 8.3 27.15Q8.55 25.6 9.85 23.6L9.9 23.5Q9.45 24.6 9.2 26.2L8.9 29M17.5,19.7L14.4 19.2L14.5 19L14.65 18.3L16.05 18.5Q16.95 18.65 16.9 17.8Q16.8 16.95 16.95 16.25Q17.05 17.9 17.5 19.7" />
<path style="fill:#582106;fill-opacity:1" d="M18.6,20.2L18.55 20.4L17.75 21.25L17.7 21.3L17.6 21.35L17.2 21.55Q14.5 22.9 13.1 24.65Q11.65 26.55 11.4 28.5Q11.15 30.4 9.85 30.6L8.9 30.55Q8.2 30.35 7.85 29.75Q7.25 29.3 7.45 27.7L7.55 27.05Q7.7 26 8.1 25L9.25 22.85Q10.6 20.75 12 19.9L13.05 19.2L13.4 18.9L13.6 18.45L13.5 17.85L13.3 17.25Q12.75 15.95 13.1 14.15Q13.45 12.3 12.65 12L10.45 10.65Q9.05 9.6 8.6 8.9L8.15 8.25L8 8L7.8 7.75L7.75 7.75Q7.25 6.85 7.3 6.4L7.4 5.45L7.95 3.75L8.65 2.35L9.35 1.45Q10.35 0.3 11.2 0.05L11.35 0Q11.85 0.1 12.55 2.85Q13.2 5.55 17.85 8.5L18.3 8.85L18.65 9.1L18.75 9.05L18.15 12.2L18 13.7Q17.9 15.25 18.1 16.85Q18.35 19.25 18.55 19.8L18.6 20.2M17.35,11L17.75 9.75L17.15 9.4L14.45 7.4L13.75 6.65Q12.5 5.1 12.05 4.05L11.65 3L11.35 2L11.1 1.15Q10.7 1.1 10 2.15L9.45 3.05L8.8 4.35L8.6 5Q8.35 5.85 8.4 6.2L8.55 7.1Q8.7 7.7 10.15 9.2Q11.45 10.55 12.75 11.05L13 11.1Q14.35 11.55 14.05 13.75Q13.75 15.9 14.45 17.6L14.65 18.3L14.5 19L14.4 19.2L13.2 20.15L12.6 20.55L12.45 20.65Q11.45 21.4 10.6 22.55L9.9 23.5L9.85 23.6Q8.55 25.6 8.3 27.15Q8.1 28.35 8.35 29L8.5 29.25L8.9 29.55L10.3 29.45Q10.9 23.85 15.35 20.95L17.55 19.75L17.5 19.7Q17.05 17.9 16.95 16.25Q16.7 13.45 17.35 11" />
<path style="fill:#722816;fill-opacity:1" d="M7.1,22.7L7.75 21.75L9.8 19.7L9.65 17.6Q9 18.2 7.3 18.75L6.25 19.05L6.15 17.65L7.4 17.6L8.85 17.05L9.55 16.4L10.15 15.2Q10.65 13.55 10.05 12.2Q9.45 10.8 7.45 10.9L8.6 8.9Q9.05 9.6 10.45 10.65L12.65 12Q13.45 12.3 13.1 14.15Q12.75 15.95 13.3 17.25L13.5 17.85L13.6 18.45L13.4 18.9L13.05 19.2L12 19.9Q10.6 20.75 9.25 22.85L8.1 25L7.1 22.7" />
<path style="fill:#95351E;fill-opacity:1" d="M6.25,19.05L7.3 18.75Q9 18.2 9.65 17.6L9.8 19.7L7.75 21.75L7.1 22.7Q6.4 20.9 6.25 19.05" />
<path style="fill:#4E1C10;fill-opacity:1" d="M7.45,10.9L6.55 10.9L6.05 10.85Q6.75 9.3 7.7 7.9L7.75 7.75L7.8 7.75L8 8L8.15 8.25L8.6 8.9L7.45 10.9M6.15,17.65L6.25 19.05Q6.4 20.9 7.1 22.7L8.1 25Q7.7 26 7.55 27.05L7.1 26.5L6.75 25.85L6.2 24.55Q4.7 20.95 4.7 17.5L6.15 17.65" />
</g>
</svg>
