<?xml version="1.0" encoding="utf-8"?>
<svg version="1.1" id="Layer_1"
xmlns="http://www.w3.org/2000/svg"
xmlns:xlink="http://www.w3.org/1999/xlink"
xmlns:author="http://www.sothink.com"
width="32px" height="26px"
xml:space="preserve">
<g id="3070" transform="matrix(1, 0, 0, 1, 19.35, 16.6)">
<path style="fill:#1E1915;fill-opacity:1" d="M1.75,8.9Q0.3 8.9 0.05 7.4L0.35 6.8Q0.8 6.05 1.55 6.05Q2.4 6.05 2.8 6.9L3.05 7.95Q3.05 8.55 2.65 8.75L1.75 8.9M-3.25,1.6L-3.05 1L-1.95 0.75Q-1.7 0.75 -1.45 1.15L-1.2 1.7Q-1.2 2.6 -2.1 2.6Q-2.55 2.6 -3 2.15L-3.25 1.6" />
<path style="fill:#F8C030;fill-opacity:1" d="M11,-13.95Q10.4 -13.95 9.9 -14.5L9.6 -14.95L10.2 -15.3L10.8 -15.4L11.65 -15.15L11.95 -14.6L11.55 -14.1L11 -13.95M3.5,-0.2L4.05 0.75L3.6 0.85L3.05 0.6L3 0.6L2.9 0.5L2.7 -0.2L3.5 -0.2M-17.85,-15.4L-18.8 -15.4Q-19.1 -15.45 -19.35 -15.65L-19.35 -16.35L-18.65 -16.6Q-17.65 -16.6 -17.85 -15.4M-12,2.3L-12.1 2.4L-12.9 2.4L-13.7 1.95L-14.25 1.2Q-14.25 0.75 -13.65 0.3L-13.55 0.2L-13 0.9L-11.95 2L-12 2.3" />
</g>
</svg>
