<?xml version="1.0" encoding="utf-8"?>
<svg version="1.1" id="Layer_1"
xmlns="http://www.w3.org/2000/svg"
xmlns:xlink="http://www.w3.org/1999/xlink"
xmlns:author="http://www.sothink.com"
width="13px" height="29px"
xml:space="preserve">
<g id="1104" transform="matrix(1, 0, 0, 1, 1.65, 39.65)">
<path style="fill:#564C48;fill-opacity:1" d="M7.7,-21L7.6 -21.15Q7.05 -22.3 7.15 -25.05L7.2 -26.45Q7.5 -30.65 6.55 -33.4Q5.55 -36.2 4.45 -37.05Q3.2 -37.85 2 -36.8L1.3 -36.1Q-0.3 -33.8 0.2 -28.65L0.2 -28.5L0.25 -27.9L0.3 -27.5L0.85 -23.7Q1.4 -20.65 2 -18.7L2.5 -17.2L3.15 -15.25Q3.45 -15.75 4.55 -15.75L5.6 -15.65Q7.75 -15.35 8.9 -13.65L8.6 -16.95Q8.2 -20.2 7.7 -21M8.75,-24.25Q8.9 -22.9 9.4 -21.7L9.85 -20.5L10.15 -18.9L10.25 -17.4L10.45 -15.3L10.5 -13.55Q10.4 -12.35 9.8 -11.55Q9.3 -10.75 7.9 -12.25L7.65 -12.5L7.5 -12.7Q5.65 -14.85 3.1 -13.25Q2.3 -11.9 1.55 -14.95L1.2 -16.25L-0.45 -22.3L-1 -24.2Q-1.65 -26.75 -1.65 -29.15L-1.65 -29.2Q-1.7 -32.55 -0.55 -35.6L-0.4 -36.1L-0.2 -36.55L0.6 -37.95Q2.65 -41.1 5.5 -38.35Q9 -35.1 8.85 -31.15L8.65 -25.35L8.75 -24.25" />
<path style="fill:#A8938C;fill-opacity:1" d="M5.85,-25.7L6 -25.75L5.65 -25.95L5.6 -26L4.95 -26.35Q4.25 -26.7 3.65 -27L1.55 -28L1.2 -28.15L0.25 -28.5L0.5 -27.25L1.2 -24.6Q2.25 -21.45 3.95 -18.65L4.05 -18.5L4.75 -17.4Q5.1 -17.4 5.85 -18.05L6.85 -18.65L7.35 -18.25L7.95 -17.65L8.6 -16.95L8.9 -13.65Q7.75 -15.35 5.6 -15.65L4.55 -15.75Q3.45 -15.75 3.15 -15.25L2.5 -17.2L2 -18.7Q1.4 -20.65 0.85 -23.7L0.3 -27.5L0.25 -27.9L0.2 -28.5L0.2 -28.65Q-0.3 -33.8 1.3 -36.1L2 -36.8Q3.2 -37.85 4.45 -37.05Q5.55 -36.2 6.55 -33.4Q7.5 -30.65 7.2 -26.45L7.15 -25.05L5.85 -25.7" />
<path style="fill:#E9DBD2;fill-opacity:1" d="M7.35,-18.25L6.85 -18.65L5.85 -18.05Q5.1 -17.4 4.75 -17.4L4.05 -18.5L3.95 -18.65Q2.25 -21.45 1.2 -24.6L0.5 -27.25L0.25 -28.5L1.2 -28.15L1.55 -28L3.65 -27Q4.25 -26.7 4.95 -26.35L5.6 -26L5.6 -25.6L5.6 -25.55Q5.6 -24.8 6.3 -22.5L6.75 -20.9L7.35 -18.25" />
<path style="fill:#FFFFFF;fill-opacity:1" d="M6.75,-20.9L6.3 -22.5Q5.6 -24.8 5.6 -25.55L5.6 -25.6L5.6 -26L5.65 -25.95L6 -25.75L5.85 -25.7L7.15 -25.05Q7.05 -22.3 7.6 -21.15L7.7 -21Q8.2 -20.2 8.6 -16.95L7.95 -17.65L7.35 -18.25L6.75 -20.9" />
</g>
</svg>
