<?xml version="1.0" encoding="utf-8"?>
<svg version="1.1" id="Layer_1"
xmlns="http://www.w3.org/2000/svg"
xmlns:xlink="http://www.w3.org/1999/xlink"
xmlns:author="http://www.sothink.com"
width="38px" height="17px"
xml:space="preserve">
<g id="1149" transform="matrix(1, 0, 0, 1, -124.2, -103.3)">
<path style="fill:#251A14;fill-opacity:1" d="M150.4,112.45L151 112.05L150.75 112.3L150.3 112.8Q150.3 113.2 150.75 113.75Q151.3 114.3 152.95 114.15Q154.55 114.1 155.1 111.9Q155.7 109.9 155.4 108.85L154.7 106.3Q154.15 105 152.7 104.35L151.4 104.1L151.2 103.6L151.15 103.3Q151.8 103.25 152.75 103.7Q154.55 104.35 155.25 105.85Q155.95 107.3 156.15 109Q156.25 110.7 155.55 112.8Q154.8 114.85 152.85 114.9Q150.85 115 149.95 113.85L149.4 113L150.4 112.45" />
<path style="fill:#3C2C22;fill-opacity:1" d="M151.45,111.3L151.7 109.75L151.6 108.25L151.25 106.9L151.15 106.8L151.55 105.9L151.6 105.6L151.6 104.95L151.5 104.3L151.4 104.1L152.7 104.35Q154.15 105 154.7 106.3L155.4 108.85Q155.7 109.9 155.1 111.9Q154.55 114.1 152.95 114.15Q151.3 114.3 150.75 113.75Q150.3 113.2 150.3 112.8L150.75 112.3L151 112.05L151.45 111.3M150.05,105.1L150.6 104.75L150.6 105.2L150.05 105.1M137.85,111.65Q139.35 111.8 139.95 112.25L140.6 113.05Q140.9 113.55 140.85 114.15Q140.7 115.05 139.35 115.6L139.35 115.25Q139.35 113.95 138.9 112.8Q138.35 111.7 137.85 111.65" />
<path style="fill:#3C260C;fill-opacity:1" d="M137.75,110.8L138.35 110.9Q140.3 111.2 141.1 111.85L142.5 110.5Q143.4 109.7 144.55 109.45L145.3 109.3Q146.75 109.15 148.3 108.45Q149.8 107.8 150.25 106.5L150.3 106.45L150.35 106.3L150.2 106.35L149.65 105.55L149.35 105.45L149.25 105.25L149.1 105.25L148.65 105.45L148.55 105.45L149 104.45L149.2 104.35L149.2 104.3L149.35 104.1Q149.55 103.85 150.05 103.8L150.25 103.65Q150.25 103.3 150.7 103.3L150.9 103.35L151.15 103.3L151.2 103.6L151.4 104.1L151.5 104.3L151.6 104.95L151.6 105.6L151.55 105.9L151.15 106.8L151.25 106.9L151.6 108.25L151.7 109.75L151.45 111.3L151 112.05L150.4 112.45L149.4 113L147.15 112.9Q146.45 112.8 145.35 112.15L143.6 110.75L143.55 110.8L143.55 110.7L143.1 111Q141.7 112.05 141.6 112.45Q140 111.2 137.75 110.8M150.6,105.2L150.6 104.75L150.5 104.3L150.45 104.15L150.15 104.3L149.7 104.8L150.05 105.1L150.6 105.2M145.05,111.1Q145.7 111.7 146.75 111.95L148.7 112.3L149.9 111.95L150.65 111.2Q151.05 110.5 151.05 109.1L150.7 107.4L150 108.05Q148.1 109.55 146.05 109.9L144.2 110.4L145.05 111.1" />
<path style="fill:#745416;fill-opacity:1" d="M138.95,109.3Q139.5 108.4 140.05 108.25L140.6 107.95L140.7 107.95L140.25 107.25Q140.7 107.6 141.75 107.6L142 107.6L142.4 107.6L146.95 107.2L149.35 105.45L149.65 105.55L150.2 106.35L150.35 106.3L150.3 106.45L150.25 106.5Q149.8 107.8 148.3 108.45Q146.75 109.15 145.3 109.3L144.55 109.45Q143.4 109.7 142.5 110.5L141.1 111.85Q140.3 111.2 138.35 110.9Q138.35 110.25 138.95 109.3M144.2,110.4L146.05 109.9Q148.1 109.55 150 108.05L150.7 107.4L151.05 109.1Q151.05 110.5 150.65 111.2L149.9 111.95L148.7 112.3L146.75 111.95Q145.7 111.7 145.05 111.1L144.2 110.4" />
<path style="fill:#9A7226;fill-opacity:1" d="M138.35,110.9L137.75 110.8L135.85 110.65L133.75 110.65L133.6 110.65L133.35 110.65Q133.55 109.25 134.2 108.2Q134.85 107.1 136.5 106.9L138.35 106.75Q139.55 107.2 140.35 107.8L140.6 107.95L140.05 108.25Q139.5 108.4 138.95 109.3Q138.35 110.25 138.35 110.9" />
<path style="fill:#B49148;fill-opacity:1" d="M138.35,106.75L136.5 106.9Q134.85 107.1 134.2 108.2Q133.55 109.25 133.35 110.65L133.25 110.65Q132.4 108.65 133.4 107.1Q134.35 105.65 136.95 106.35L138.35 106.75" />
<path style="fill:#4D3212;fill-opacity:1" d="M132.15,110.95L132.35 110.85Q131.5 107.7 132.8 106.4Q134.05 105.05 136.55 105.4Q138.85 105.7 140 106.95L140.05 107L140.15 107.1L140.25 107.25L140.7 107.95L140.6 107.95L140.35 107.8Q139.55 107.2 138.35 106.75L136.95 106.35Q134.35 105.65 133.4 107.1Q132.4 108.65 133.25 110.65L133.35 110.65L133.6 110.65L132.15 110.95" />
<path style="fill:#36271F;fill-opacity:1" d="M133.6,110.65L133.75 110.65L135.85 110.65L137.75 110.8Q140 111.2 141.6 112.45L141.6 112.6L141.7 112.8Q142.05 113.7 141.5 114.85Q141.05 115.9 139.1 116.6L138.9 116.6L136.45 117.15L132.85 117L131.9 116.7Q130.15 116.1 129.75 115.2Q129.2 114.05 129.8 112.95Q130.3 112.05 131.25 111.5L132.15 110.95L133.6 110.65M133.25,116.25L136.25 116.4L138.15 116L139.35 115.6Q140.7 115.05 140.85 114.15Q140.9 113.55 140.6 113.05L139.95 112.25Q139.35 111.8 137.85 111.65L137.8 111.65L135.9 111.5L134.1 111.55L131.8 112Q130.65 112.6 130.45 113.55Q130.1 114.3 130.55 115.1Q130.8 115.4 131.65 115.75L133.25 116.25" />
<path style="fill:#785743;fill-opacity:1" d="M133.65,111.8Q131.55 113.3 131.55 115.05L131.65 115.75Q130.8 115.4 130.55 115.1Q130.1 114.3 130.45 113.55Q130.65 112.6 131.8 112L134.1 111.55L133.65 111.8" />
<path style="fill:#574031;fill-opacity:1" d="M138.9,112.8Q139.35 113.95 139.35 115.25L139.35 115.6L138.15 116L136.25 116.4L133.25 116.25L131.65 115.75L131.55 115.05Q131.55 113.3 133.65 111.8L134.1 111.55L135.9 111.5L137.8 111.65L137.85 111.65Q138.35 111.7 138.9 112.8" />
<path style="fill:#000000;fill-opacity:0.25098" d="M143.15,115.6L156.6 116.25Q162.15 116.95 162.15 117.95Q162.15 118.9 156.6 119.6L143.15 120.3L129.75 119.6Q124.2 118.9 124.2 117.95Q124.2 116.95 129.75 116.25L143.15 115.6" />
</g>
</svg>
