<?xml version="1.0" encoding="utf-8"?>
<svg version="1.1" id="Layer_1"
xmlns="http://www.w3.org/2000/svg"
xmlns:xlink="http://www.w3.org/1999/xlink"
xmlns:author="http://www.sothink.com"
width="37px" height="38px"
xml:space="preserve">
<g id="504" transform="matrix(1, 0, 0, 1, 0.5, 0.5)">
<path style="fill:#9F9F9F;fill-opacity:1" d="M24,29.2L22.65 30.75L24.25 30.3Q25.15 30.05 23.5 32.4Q23.4 32.35 22.65 33.45Q24.5 32.5 26.5 29.95Q25.7 32.5 23.2 34.25Q20.8 35.95 17.15 36.75Q18.2 35.45 18.75 33.7L18.75 33.6Q19.4 31.55 18.65 29.95Q14.65 29.75 13.15 27.55L12.85 27Q12.45 26.2 12.55 25.3L11.75 25.2L11.1 25.05L10.55 24.85Q8.9 24.45 7.55 23.25L6.95 22.65Q6.05 21.65 5.6 20.5L5.5 20.15L4.65 19.95Q-0.15 18.55 0 15.45Q0.05 14.3 0.35 13.25L1.9 14.75L3.5 15.65L3.25 15.7Q3 15.7 3.15 15.85Q3.95 17.25 5.7 16.65L5.7 16.55L5.65 16.3L10.4 16.6Q16.1 16.45 21.8 14.1L18.75 16.7L18.35 17Q21.1 16.45 25.95 14.1Q28.1 13 29.9 11.65Q33.55 8.65 35.15 4.2L35.45 5.45Q35.65 7.3 34.55 9.35L34.4 9.6Q33.25 11.4 31.6 13Q29.85 14.6 27.25 16Q24.6 17.35 21.35 18.4L17.3 21.8Q20.65 21.85 23.9 19.65Q24.5 20.45 23.05 21.7Q26.75 19.6 27.55 18.6Q28.05 19.1 27.4 20.25L29.05 19.35Q33.45 16.6 34.55 12.05Q34.5 15.05 33.15 17.05L31.55 19.05L28.85 21.15L28.15 21.55Q25.1 23.25 22.35 24.2L18.4 25.25L18.4 25.8Q18.45 26.3 20.65 26.1L25.2 25.55L23.55 27.2Q24.85 27.55 28 26.1Q31.1 24.65 32 20.5Q32.9 24.65 27.55 27.7L26.9 28.05L24 29.2M26.05,8.55Q23.35 10.45 19.05 11.75Q14.8 13 11.5 12.95Q8.2 12.9 7.8 11.55Q7.4 10.25 10.15 8.4Q12.85 6.55 17.1 5.3Q21.35 4 24.7 4Q28.05 4.05 28.45 5.4Q28.85 6.7 26.05 8.55M22.3,12.6Q21.25 13.95 19.35 13.1L19.35 13.05L19.45 12.75L20.7 12.35L22.25 12.5L22.3 12.6M21.55,22.8Q22.05 23.3 22.55 22.8L22.55 22.7Q22.5 22.25 22.05 22.2Q21.6 22.35 21.55 22.8M7.45,13.65Q5.9 14.4 5.85 13.05L5.95 13Q6.75 13.15 7.45 13.6L7.45 13.65M8.05,17.75L7.95 17.85Q8.25 19.2 9.65 18.3L9.65 18.2Q9.05 17.55 8.05 17.75M10.05,21.65Q13.1 22.65 14.9 20.9L14.85 20.8L13.4 20.65Q11.1 20.3 9.55 21.2L10.05 21.65M15.8,17.5Q15.4 16.75 14.4 17.1L14.25 17.35Q14.65 18.55 15.8 17.6L15.8 17.5M16.65,23.1L16.55 23.15Q16.15 23.35 16.25 23.8L16.25 23.9L18.65 23.8L18.65 23.7Q18.2 22.65 16.65 23.1M16.3,27.1Q16.1 26.5 15.3 26.8Q15 26.8 15.15 27.1Q15.85 28 16.3 27.2L16.3 27.1M22.1,27.6L22.1 27.55Q21.9 27.2 21.5 27.3Q20.85 27.4 20.45 27.8Q21.5 28.75 22.1 27.6M20.65,32.45L20.7 32.5Q21.8 32.75 21.15 31.9Q20.75 32 20.65 32.45" />
<path style="fill:#FFFFFF;fill-opacity:1" d="M30.6,8.95L29.65 9.75Q27.95 10.95 25.15 11.95L29.4 8.3Q31.2 6.3 30.75 4.7Q30 1.95 27.3 2.1L30.9 2.25Q32.25 2.75 32.75 3.65Q33.2 4.55 32.8 5.9Q32.4 7.2 30.6 8.95M29.6,15.75Q32 14 33.2 11.95Q33.85 12.95 32.6 14.8Q31.6 16.3 29.3 17.3Q27.4 18.05 24.6 18.45L28 16.8L29.6 15.75M30.3,20.85Q30.5 21.75 29.55 22.8L28.3 23.7Q26.85 24.45 24.5 24.75L24.25 24.6L26.15 23.85L28.65 22.45L30.3 20.85" />
<path style="fill:#DBDBDB;fill-opacity:1" d="M29.05,19.35L27.4 20.25Q28.05 19.1 27.55 18.6Q26.75 19.6 23.05 21.7Q24.5 20.45 23.9 19.65Q20.65 21.85 17.3 21.8L21.35 18.4Q24.6 17.35 27.25 16Q29.85 14.6 31.6 13Q33.25 11.4 34.4 9.6L34.55 12.05Q33.45 16.6 29.05 19.35M31.55,19.05L32 20.5Q31.1 24.65 28 26.1Q24.85 27.55 23.55 27.2L25.2 25.55L20.65 26.1Q18.45 26.3 18.4 25.8L18.4 25.25L22.35 24.2Q25.1 23.25 28.15 21.55L28.85 21.15L31.55 19.05M26.9,28.05L26.5 29.95Q24.5 32.5 22.65 33.45Q23.4 32.35 23.5 32.4Q25.15 30.05 24.25 30.3L22.65 30.75L24 29.2L26.9 28.05M29.9,11.65Q28.1 13 25.95 14.1Q21.1 16.45 18.35 17L18.75 16.7L21.8 14.1Q16.1 16.45 10.4 16.6L5.65 16.3L5.7 16.55L5.7 16.65Q3.95 17.25 3.15 15.85Q3 15.7 3.25 15.7L3.5 15.65L1.9 14.75L0.35 13.25Q0.9 11.45 2.25 9.95Q4.4 7.55 6.5 6.2Q8.65 4.8 12 3.3Q15.35 1.75 20.2 0.75Q25 -0.4 28.45 0.2Q31.85 0.8 33.55 2.15Q34.6 3.05 35.15 4.2Q33.55 8.65 29.9 11.65M32.8,5.9Q33.2 4.55 32.75 3.65Q32.25 2.75 30.9 2.25L27.3 2.1Q30 1.95 30.75 4.7Q31.2 6.3 29.4 8.3L25.15 11.95Q27.95 10.95 29.65 9.75L30.6 8.95Q32.4 7.2 32.8 5.9M28.45,5.4Q28.05 4.05 24.7 4Q21.35 4 17.1 5.3Q12.85 6.55 10.15 8.4Q7.4 10.25 7.8 11.55Q8.2 12.9 11.5 12.95Q14.8 13 19.05 11.75Q23.35 10.45 26.05 8.55Q28.85 6.7 28.45 5.4M28,16.8L24.6 18.45Q27.4 18.05 29.3 17.3Q31.6 16.3 32.6 14.8Q33.85 12.95 33.2 11.95Q32 14 29.6 15.75L28 16.8M22.25,12.5L20.7 12.35L19.45 12.75L19.35 13.05L19.35 13.1Q21.25 13.95 22.3 12.6L22.25 12.5M22.05,22.2Q22.5 22.25 22.55 22.7L22.55 22.8Q22.05 23.3 21.55 22.8Q21.6 22.35 22.05 22.2M28.65,22.45L26.15 23.85L24.25 24.6L24.5 24.75Q26.85 24.45 28.3 23.7L29.55 22.8Q30.5 21.75 30.3 20.85L28.65 22.45M7.45,13.6Q6.75 13.15 5.95 13L5.85 13.05Q5.9 14.4 7.45 13.65L7.45 13.6M9.65,18.2L9.65 18.3Q8.25 19.2 7.95 17.85L8.05 17.75Q9.05 17.55 9.65 18.2M9.55,21.2Q11.1 20.3 13.4 20.65L14.85 20.8L14.9 20.9Q13.1 22.65 10.05 21.65L9.55 21.2M15.8,17.6Q14.65 18.55 14.25 17.35L14.4 17.1Q15.4 16.75 15.8 17.5L15.8 17.6M18.65,23.7L18.65 23.8L16.25 23.9L16.25 23.8Q16.15 23.35 16.55 23.15L16.65 23.1Q18.2 22.65 18.65 23.7M16.3,27.2Q15.85 28 15.15 27.1Q15 26.8 15.3 26.8Q16.1 26.5 16.3 27.1L16.3 27.2M20.45,27.8Q20.85 27.4 21.5 27.3Q21.9 27.2 22.1 27.55L22.1 27.6Q21.5 28.75 20.45 27.8M21.15,31.9Q21.8 32.75 20.7 32.5L20.65 32.45Q20.75 32 21.15 31.9" />
<path style="fill:none;stroke-width:1;stroke-linecap:round;stroke-linejoin:round;stroke-miterlimit:3;stroke:#464646;stroke-opacity:1" d="M34.55,12.05L34.4 9.6M34.55,12.05Q34.5 15.05 33.15 17.05L31.55 19.05L32 20.5Q32.9 24.65 27.55 27.7L26.9 28.05L26.5 29.95Q25.7 32.5 23.2 34.25Q20.8 35.95 17.15 36.75Q18.2 35.45 18.75 33.7L18.75 33.6Q19.4 31.55 18.65 29.95Q14.65 29.75 13.15 27.55L12.85 27Q12.45 26.2 12.55 25.3L11.75 25.2L11.1 25.05L10.55 24.85Q8.9 24.45 7.55 23.25L6.95 22.65Q6.05 21.65 5.6 20.5L5.5 20.15L4.65 19.95Q-0.15 18.55 0 15.45Q0.05 14.3 0.35 13.25Q0.9 11.45 2.25 9.95Q4.4 7.55 6.5 6.2Q8.65 4.8 12 3.3Q15.35 1.75 20.2 0.75Q25 -0.4 28.45 0.2Q31.85 0.8 33.55 2.15Q34.6 3.05 35.15 4.2L35.45 5.45Q35.65 7.3 34.55 9.35L34.4 9.6" />
</g>
</svg>
