<?xml version="1.0" encoding="utf-8"?>
<svg version="1.1" id="Layer_1"
xmlns="http://www.w3.org/2000/svg"
xmlns:xlink="http://www.w3.org/1999/xlink"
xmlns:author="http://www.sothink.com"
width="133px" height="60px"
xml:space="preserve">
<g id="740" transform="matrix(1, 0, 0, 1, 18.25, 7.9)">
<path style="fill:#2C5500;fill-opacity:1" d="M107.6,-6.05Q114 -2.65 114 7.15L114 37.4Q113.75 51.7 98.7 51.7L-2.95 51.7Q-17.85 51.7 -18.25 37.4L-18.25 36.8L-18.25 7.15Q-18.25 -2.65 -11.8 -6.05Q-8.3 -7.9 -2.95 -7.9L98.7 -7.9Q104.05 -7.9 107.6 -6.05M-15.95,36.8L-15.95 37.4Q-15.65 49.5 -2.95 49.5L98.85 49.5Q111.45 49.4 111.85 37.4L111.85 7.15Q111.85 -5.65 98.7 -5.65L-2.95 -5.65Q-15.95 -5.65 -15.95 7.15L-15.95 36.8" />
<linearGradient
id="LinearGradID_873" gradientUnits="userSpaceOnUse" gradientTransform="matrix(0.000610352, 0.0298462, -0.339951, 0.000411987, -94, 21.9)" spreadMethod ="pad" x1="-819.2" y1="0" x2="819.2" y2="0" >
<stop  offset="0" style="stop-color:#AEEB48;stop-opacity:1" />
<stop  offset="1" style="stop-color:#669400;stop-opacity:1" />
</linearGradient>
<path style="fill:url(#LinearGradID_873) " d="M99.25,-1.3Q107.35 0.8 107.6 10.35L107.6 10.95L107.6 33.45L107.6 37.85Q107.55 39.65 105.45 42.3Q103.35 44.9 98.7 45.15L1.8 45.4Q-9.15 45.4 -11.2 37.4L-11.5 35.9L-11.7 33.45L-11.7 10.95L-11.7 10.35Q-11.4 -1.55 1.8 -1.55L98.45 -1.55L99.25 -1.3" />
<linearGradient
id="LinearGradID_874" gradientUnits="userSpaceOnUse" gradientTransform="matrix(0.00292969, 0.0260925, -0.104065, 0.011261, 60.4, 22.7)" spreadMethod ="pad" x1="-819.2" y1="0" x2="819.2" y2="0" >
<stop  offset="0.00392157" style="stop-color:#D9F07E;stop-opacity:1" />
<stop  offset="0.423529" style="stop-color:#86DB26;stop-opacity:1" />
<stop  offset="1" style="stop-color:#448307;stop-opacity:1" />
</linearGradient>
<path style="fill:url(#LinearGradID_874) " d="M98.45,-1.55L1.8 -1.55Q-11.4 -1.55 -11.7 10.35L-11.7 10.95L-11.7 33.45L-11.5 35.9L-11.2 37.4Q-9.15 45.4 1.8 45.4L98.7 45.15Q103.35 44.9 105.45 42.3Q107.55 39.65 107.6 37.85L107.6 33.45L107.6 10.95L107.6 10.35Q107.35 0.8 99.25 -1.3L98.45 -1.55M-15.95,7.15Q-15.95 -5.65 -2.95 -5.65L98.7 -5.65Q111.85 -5.65 111.85 7.15L111.85 37.4Q111.45 49.4 98.85 49.5L-2.95 49.5Q-15.65 49.5 -15.95 37.4L-15.95 36.8L-15.95 7.15" />
</g>
</svg>
