<?xml version="1.0" encoding="utf-8"?>
<svg version="1.1" id="Layer_1"
xmlns="http://www.w3.org/2000/svg"
xmlns:xlink="http://www.w3.org/1999/xlink"
xmlns:author="http://www.sothink.com"
width="35px" height="39px"
xml:space="preserve">
<g id="466" transform="matrix(1, 0, 0, 1, 0, 0)">
<path style="fill:#5F1000;fill-opacity:1" d="M31.75,14.3L31.25 15.6Q29.95 17.65 26.2 14.5Q25.3 16.4 23.85 16.35Q22.9 16.25 21.7 15.4Q20.15 19 17.85 15.4Q14.45 18.5 12.85 14.85Q9.45 18.15 8.95 15.9Q8.35 13.65 6.75 16.25Q5.45 18.3 3.8 15.45L2.95 13.6L2.45 12.1Q1.4 8.5 3 5.6L3.2 4.7Q3.9 3 7.1 1.7Q11.25 0 17 0L23.85 0.7L26.8 1.6Q28.5 2.25 29.65 3.4Q31.1 4.75 31.55 6.85L31.7 7.4Q32.2 9.3 32.1 11.55L31.75 14.3M7.35,3.5Q5.65 4.4 5.65 5.5Q5.65 6.6 7.15 7.5Q7.85 7.9 8.95 8.3L10.25 8.7Q13.15 9.5 16.9 9.5L20.7 9.3L22.25 9.05L23.85 8.65L24.25 8.5L24.85 8.3L27.25 7.15Q28.2 6.4 28.2 5.5L28.05 4.9Q27.5 3.7 24.85 2.75L23.85 2.45Q20.85 1.55 16.9 1.55Q12.3 1.55 8.95 2.75L8 3.15L7.35 3.5M15.7,14.2Q16.25 13.7 16.85 13.5Q18.6 12.85 20.2 14.9L20.45 14.05Q20.75 13.15 21.3 12.9Q22.2 12.4 23.7 13.55L23.85 13.3Q25.35 11.1 28.5 13.55L29.6 12.8L29.9 11.45Q29.95 10.4 29.6 8.85L29.45 8.3L29.2 8.5L26.9 9.7L26.55 9.85L23.85 10.7L17 11.45Q11.9 11.45 8.1 10.1L7.1 9.7L5.35 8.85L5.2 8.75L5.2 9L5.15 10.3L5.2 11.8L5.45 12.7L5.95 13.75Q7 12.65 7.8 12.3L8.15 12.2Q9.1 12 9.55 12.5L10.45 13.5L10.7 13.4Q13.15 12 15.15 14.65L15.7 14.2" />
<path style="fill:#931A26;fill-opacity:1" d="M28.2,5.5Q28.2 6.4 27.25 7.15L24.85 8.3L24.25 8.5L23.85 8.65L22.25 9.05L20.7 9.3L16.9 9.5Q13.15 9.5 10.25 8.7L8.95 8.3Q7.85 7.9 7.15 7.5Q5.65 6.6 5.65 5.5Q5.65 4.4 7.35 3.5L7.3 3.75Q7.3 5.3 9.9 6L13.45 6.45L19.6 6.3L20.15 6.3L17.9 7.6L20.15 8L22.3 7.75L23.85 7.3L24.45 7.05L25.85 6.35L26.45 6L28.05 4.9L28.2 5.5M29.6,12.8L28.5 13.55Q25.35 11.1 23.85 13.3L23.7 13.55Q22.2 12.4 21.3 12.9L21.4 12.5Q21.75 11.7 22.5 11.7L23.05 11.75L23.35 12.45L23.85 11.95L24.45 11.3L25.45 11.15L28.25 12.25L29 12.1L29.9 11.45L29.6 12.8M5.95,13.75L5.45 12.7L5.2 11.8L5.45 12.45Q6.15 11.75 6.15 11.15L6.65 11.35Q7.1 11.6 7.65 12.15L7.8 12.3Q7 12.65 5.95 13.75M15.15,14.65Q13.15 12 10.7 13.4L11.1 12.85Q11.85 12.1 12.4 12.1Q12.85 12.1 13.25 12.4L13.7 12.65L14.2 12.45L14.65 12.25Q15.1 12.25 15.45 13.25L15.7 14.2L15.15 14.65M20.2,14.9Q18.6 12.85 16.85 13.5Q16.85 12.8 17 12.45L17.9 12.45L18.3 13.2L18.95 12.65L20.45 14.05L20.2 14.9M19.6,6.3L19.25 6.3L19.6 6.1L19.6 6.3" />
<path style="fill:#DE616D;fill-opacity:1" d="M24.7,5.85Q24.9 4.8 24.05 4.25L23.85 4.2L19.4 2.85L14.7 2.4L10.15 2.55L8 3.15L8.95 2.75Q12.3 1.55 16.9 1.55Q20.85 1.55 23.85 2.45L24.85 2.75Q27.5 3.7 28.05 4.9L26.45 6L25.85 6.35L24.45 7.05L24.7 5.85" />
<path style="fill:#B8313E;fill-opacity:1" d="M8,3.15L10.15 2.55L14.7 2.4L19.4 2.85L23.85 4.2L24.05 4.25Q24.9 4.8 24.7 5.85L24.45 7.05L23.85 7.3L22.3 7.75L20.15 8L17.9 7.6L20.15 6.3L19.6 6.3L13.45 6.45L9.9 6Q7.3 5.3 7.3 3.75L7.35 3.5L8 3.15M20.45,14.05L18.95 12.65L18.3 13.2L17.9 12.45L17 12.45Q16.85 12.8 16.85 13.5Q16.25 13.7 15.7 14.2L15.45 13.25Q15.1 12.25 14.65 12.25L14.2 12.45L13.7 12.65L13.25 12.4Q12.85 12.1 12.4 12.1Q11.85 12.1 11.1 12.85L10.7 13.4L10.45 13.5L9.55 12.5Q9.1 12 8.15 12.2L7.8 12.3L7.65 12.15Q7.1 11.6 6.65 11.35L6.15 11.15Q6.15 11.75 5.45 12.45L5.2 11.8L5.15 10.3L5.2 9L5.2 8.75L5.35 8.85L7.1 9.7L8.1 10.1Q11.9 11.45 17 11.45L23.85 10.7L26.55 9.85L26.9 9.7L29.2 8.5L29.45 8.3L29.6 8.85Q29.95 10.4 29.9 11.45L29 12.1L28.25 12.25L25.45 11.15L24.45 11.3L23.85 11.95L23.35 12.45L23.05 11.75L22.5 11.7Q21.75 11.7 21.4 12.5L21.3 12.9Q20.75 13.15 20.45 14.05M19.6,6.1L19.25 6.3L19.6 6.3L19.6 6.1" />
<path style="fill:#62422E;fill-opacity:1" d="M3.8,15.45Q5.45 18.3 6.75 16.25Q8.35 13.65 8.95 15.9Q9.45 18.15 12.85 14.85Q14.45 18.5 17.85 15.4Q20.15 19 21.7 15.4Q22.9 16.25 23.85 16.35Q25.3 16.4 26.2 14.5Q29.95 17.65 31.25 15.6Q32 17.45 32.15 19.5L31.75 19.7Q30.8 19.7 29.55 18.95L26.85 17.2L26.45 18.5Q25.9 19.65 25.4 19.65L22.4 18.25Q22 18.25 21.7 19.15Q21.45 20 20.65 20Q19.95 20 18.75 19.05L17.55 18.05Q17.3 18.05 16.7 18.9Q16.1 19.7 15.55 19.7L13.95 18.8Q12.75 17.85 12.3 17.85Q11.8 17.85 11.15 18.7L10.25 19.55L9.2 18.9Q8.35 18.25 8 18.25Q7.5 18.25 6.95 19.15L6.35 20.45Q5.55 20.2 3.1 18.1Q3.3 16.7 3.8 15.45M4.35,21.25Q7.2 23.95 12.15 25.5Q17.05 27.05 22.25 26.8L28.95 25.9L28.05 26.75Q25.55 29 23.35 29.45Q14.45 31.4 8.25 27.45Q6.3 26.25 5.2 24.5Q4.3 23.2 4.35 21.25M9.45,34.6Q9.75 33.7 9.3 32.65Q12.55 33.7 16.85 33.85Q22.5 34 26.6 32.2L26.6 33.25Q22.05 34.95 17.2 34.8L12.6 34.2L12.55 35.2L9.45 34.6" />
<path style="fill:#805A43;fill-opacity:1" d="M3.1,18.1Q5.55 20.2 6.35 20.45L6.95 19.15Q7.5 18.25 8 18.25Q8.35 18.25 9.2 18.9L10.25 19.55L11.15 18.7Q11.8 17.85 12.3 17.85Q12.75 17.85 13.95 18.8L15.55 19.7Q16.1 19.7 16.7 18.9Q17.3 18.05 17.55 18.05L18.75 19.05Q19.95 20 20.65 20Q21.45 20 21.7 19.15Q22 18.25 22.4 18.25L25.4 19.65Q25.9 19.65 26.45 18.5L26.85 17.2L29.55 18.95Q30.8 19.7 31.75 19.7L32.15 19.5L32.2 19.95Q32.35 25.2 28.25 28.4Q24.1 31.55 16.85 31.3Q9.6 31 6.35 28.15Q3.05 25.25 3 19.95L3.1 18.1M22.25,21.3Q22 22.05 22.55 22.2Q26.5 22.9 23.35 20.4Q22.5 20.45 22.25 21.3M28.7,21.55Q28.5 22.7 27.75 23.5Q27.2 24.05 27 24.75Q26.85 25.3 27.4 25.2Q29.2 24.75 30 22.8Q30.8 20.85 29.75 19.6Q28.9 20.25 28.7 21.55M5.2,24.5Q6.3 26.25 8.25 27.45Q14.45 31.4 23.35 29.45Q25.55 29 28.05 26.75L28.95 25.9L22.25 26.8Q17.05 27.05 12.15 25.5Q7.2 23.95 4.35 21.25Q4.3 23.2 5.2 24.5M26.55,34.65L12.55 35.2L12.6 34.2L17.2 34.8Q22.05 34.95 26.6 33.25L26.55 34.65" />
<path style="fill:#C4855D;fill-opacity:1" d="M23.35,20.4Q26.5 22.9 22.55 22.2Q22 22.05 22.25 21.3Q22.5 20.45 23.35 20.4M29.75,19.6Q30.8 20.85 30 22.8Q29.2 24.75 27.4 25.2Q26.85 25.3 27 24.75Q27.2 24.05 27.75 23.5Q28.5 22.7 28.7 21.55Q28.9 20.25 29.75 19.6" />
<path style="fill:#3C2515;fill-opacity:1" d="M3.1,18.1L3 19.95Q3.05 25.25 6.35 28.15Q9.6 31 16.85 31.3Q24.1 31.55 28.25 28.4Q32.35 25.2 32.2 19.95L32.15 19.5Q32 17.45 31.25 15.6L31.75 14.3L32.1 11.55Q33.95 14.05 34.55 17.15L34.75 20.1Q34.55 26.55 29.7 30.3L28.9 31L28.9 35.5Q28.9 36.45 25.5 37.35L18 38.25L10.35 37.6Q6.65 36.9 6.65 36.25L6.7 31.7L4.4 30Q0 26.45 0 20Q0 17.75 0.65 15.75Q1.25 13.8 2.45 12.1L2.95 13.6L3.8 15.45Q3.3 16.7 3.1 18.1M26.6,33.25L26.6 32.2Q22.5 34 16.85 33.85Q12.55 33.7 9.3 32.65Q9.75 33.7 9.45 34.6L12.55 35.2L26.55 34.65L26.6 33.25" />
</g>
</svg>
