<?xml version="1.0" encoding="utf-8"?>
<svg version="1.1" id="Layer_1"
xmlns="http://www.w3.org/2000/svg"
xmlns:xlink="http://www.w3.org/1999/xlink"
xmlns:author="http://www.sothink.com"
width="12px" height="7px"
xml:space="preserve">
<g id="1397" transform="matrix(1, 0, 0, 1, 0, 0)">
<path style="fill:#070707;fill-opacity:1" d="M11.05,5.45Q9.85 6.25 6.6 6.25L1.3 5.75L0.95 5.55Q-0.25 4.85 0.1 3.1L0.15 2.9Q0.6 0.95 4.2 0.1L5.45 0L7.55 0.35Q8.95 0.7 10.6 2.05L10.7 2.1Q12.25 3.4 11.6 4.8L11.05 5.45M9,2.25L8.05 1.85Q6.25 1.15 5.65 1.15Q4.05 1.15 2.85 1.85Q2.25 2.2 1.9 2.6Q1.5 3.05 1.45 3.65Q1.45 4.4 2.65 4.8L3.35 5Q6.2 5.3 8.65 5.05L9.05 5Q11.05 4.7 10.5 3.65Q10.05 2.85 9 2.25" />
<path style="fill:#353535;fill-opacity:1" d="M8.65,5.05Q6.2 5.3 3.35 5L2.65 4.8Q1.45 4.4 1.45 3.65Q1.5 3.05 1.9 2.6Q2.25 2.2 2.85 1.85Q4.05 1.15 5.65 1.15Q6.25 1.15 8.05 1.85L9 2.25L6.4 2.95Q8.25 3.55 9.05 5L8.65 5.05" />
<path style="fill:#5F5F5F;fill-opacity:1" d="M10.5,3.65Q11.05 4.7 9.05 5Q8.25 3.55 6.4 2.95L9 2.25Q10.05 2.85 10.5 3.65" />
</g>
</svg>
