<?xml version="1.0" encoding="utf-8"?>
<svg version="1.1" id="Layer_1"
xmlns="http://www.w3.org/2000/svg"
xmlns:xlink="http://www.w3.org/1999/xlink"
xmlns:author="http://www.sothink.com"
width="13px" height="13px"
xml:space="preserve">
<g id="1814" transform="matrix(1, 0, 0, 1, -4.35, -1.85)">
<path style="fill:#644638;fill-opacity:1" d="M15.65,10.25L13.1 10.9L11.1 10.7Q10.1 10.45 10 10.3L10 10.35L10.7 11.3L10.6 11.3Q9.85 11.15 8.25 9.95L8 9.65Q7.75 9.35 7.65 9.45Q7.75 8.7 8.05 8.25L8.15 8L8.5 7.25L9.25 6.4L9.4 6.4L9.8 6.05L10 6.05L10.1 5.95L10.3 5.95L11.05 6Q11.75 5.75 11.95 6Q12.3 5.8 12.75 6.3L12.9 6.45L12.95 6Q14 6.1 15.75 8.3L15.75 8.35L15.8 8.4L15.8 8.35Q16.05 8.6 15.65 10.25M7.1,7.05L6.3 7.65L6.25 7.3Q6.05 6.85 7.25 5.95Q8.1 4.8 8.25 4.85L8.85 4.55L9.85 3.9L10.05 4L10.4 4.3Q9.2 4.8 8.2 6.05L7.6 7L7.4 7.35L7.1 7.05" />
<path style="fill:#8E6755;fill-opacity:1" d="M10.95,3.65L11 3.65L10.95 3.7L10.95 3.65M9.4,6.3L9.55 6.05Q10.7 5.05 12.5 4.55L13.45 4.8Q14.4 5.25 15.15 6.3Q15.6 6.85 15.8 8.35L15.8 8.4L15.75 8.35L15.75 8.3Q14 6.1 12.95 6L12.9 6.45L12.75 6.3Q12.3 5.8 11.95 6Q11.75 5.75 11.05 6L10.3 5.95L10.1 5.95L10 6.05L9.8 6.05L9.4 6.4L9.25 6.4L9.4 6.3M10.05,4L9.85 3.9L8.85 4.55L8.25 4.85Q8.1 4.8 7.25 5.95Q6.05 6.85 6.25 7.3L6.3 7.65L6.05 7.95L6 8L5.9 7.8L5.5 8.25L5.5 7.95L5.5 7.9L5.65 7.4Q6.15 6 7.05 5.1Q7.55 4.25 9.75 3.05L10.65 3.5L11.2 3.9Q10.55 4.1 10.4 4.3L10.05 4" />
<path style="fill:#513727;fill-opacity:1" d="M7.65,9.45Q7.75 9.35 8 9.65L8.25 9.95Q9.85 11.15 10.6 11.3L10.7 11.3L10 10.35L10 10.3Q10.1 10.45 11.1 10.7L13.1 10.9L15.65 10.25Q14.45 12.75 12.65 13.35Q10.75 13.95 9.25 12.85L7.6 11.35L7.45 11.05L7.5 9.9L7.55 9.85L7.65 9.45M7.4,7.35L7.2 7.8L6.85 8.35Q6.5 9 6.3 9.75L5.75 9.4L5.5 9L5.45 8.3L5.45 8.15L5.5 7.95L5.5 8.25L5.9 7.8L6 8L6.05 7.95L6.3 7.65L7.1 7.05L7.4 7.35" />
<path style="fill:#2E201B;fill-opacity:1" d="M11.55,2.65L12.5 3.55L13.5 3.65Q14.65 3.9 15.8 5.15Q16.9 6.4 16.9 8.8Q16.9 11.2 15.55 12.65Q14.2 14.05 12.2 14.55Q10.15 15 9.05 14.25L7.25 12.9L6.7 12.35L6 10.85L5.25 10.5Q4.45 10.1 4.35 9.25Q4.25 8.4 4.6 7Q4.95 5.6 6.1 4.2Q7.2 2.75 8.7 2.1Q10.15 1.45 11.5 2.65L11.55 2.65M10.95,3.7L11 3.65L10.95 3.65L10.95 3.7M7.55,9.85L7.5 9.9L7.45 11.05L7.6 11.35L9.25 12.85Q10.75 13.95 12.65 13.35Q14.45 12.75 15.65 10.25Q16.05 8.6 15.8 8.35Q15.6 6.85 15.15 6.3Q14.4 5.25 13.45 4.8L12.5 4.55Q10.7 5.05 9.55 6.05L9.4 6.3L9.25 6.4L8.5 7.25L8.15 8L8.05 8.25Q7.75 8.7 7.65 9.45L7.55 9.85M5.45,8.15L5.45 8.3L5.5 9L5.75 9.4L6.3 9.75Q6.5 9 6.85 8.35L7.2 7.8L7.4 7.35L7.6 7L8.2 6.05Q9.2 4.8 10.4 4.3Q10.55 4.1 11.2 3.9L10.65 3.5L9.75 3.05Q7.55 4.25 7.05 5.1Q6.15 6 5.65 7.4L5.5 7.9L5.5 7.95L5.45 8.15" />
</g>
</svg>
