<?xml version="1.0" encoding="utf-8"?>
<svg version="1.1" id="Layer_1"
xmlns="http://www.w3.org/2000/svg"
xmlns:xlink="http://www.w3.org/1999/xlink"
xmlns:author="http://www.sothink.com"
width="48px" height="74px"
xml:space="preserve">
<g id="3023" transform="matrix(1, 0, 0, 1, 0, 0)">
<path style="fill:#1C1417;fill-opacity:1" d="M41.6,12.45L41.2 11.85Q40.55 10.85 40.15 8.3L40.1 7.3Q40.15 5 41.95 1.6Q36.1 1.8 34.8 4.7Q33.5 7.55 32.45 8.45L30.85 9.6L29.15 10.6L24 13.1Q19.8 15.05 15.6 18.3Q11.95 21.15 10.15 23.6L9.7 24.35Q7.95 27.1 7.8 28.3Q7.6 29.45 7.65 31.15Q8.85 29.7 10 28.85L10.3 28.65L10.7 28.45Q11.3 28.1 10.95 28.85L7.85 33.15Q3.45 38.7 2.3 42.35Q1.1 45.95 1.2 47.7L1.4 53.25Q1.55 57.05 3.65 59.45L4.95 61.4Q5.75 63 5.75 64.8Q5.7 67.75 6.45 69.4Q6.8 70.25 7.7 70.95Q6.15 70.55 4.85 69.25L4.8 69.2Q4.5 68.2 4.55 67Q4.65 63.8 4.1 62.4Q3.5 61 2.15 59.75Q0.8 58.45 0.35 55.35Q-0.15 52.25 0.05 46.15Q0.1 43.45 1.95 39.8L6.2 32.8Q6.05 29.7 6.7 27.45Q7.05 26.1 7.75 24.75L10.75 20.85Q14.7 17.05 20.05 14.1Q25.4 11.15 28.9 9.4Q32.4 7.55 32.9 5.5Q33.35 3.4 35.55 1.8Q37.7 0.15 40.35 0.05Q42.95 -0.1 43.85 0.45Q44.75 0.95 43.4 2.4Q42.75 3.1 42.3 4.25Q41.85 5.4 41.65 7Q41.45 8.4 42 9.95Q41.65 11.15 41.6 12.45M9.7,71.15Q12.45 71 14.3 68.65Q15.6 67 15.9 65.05L16.35 66.5Q17.7 67.25 17.5 65.65Q17.3 64.1 16.2 62.95L16 62.75L14.75 61.8L14 61.45L16 61.15Q17.85 61.05 19.75 61.8Q22.75 60 25.45 57.35Q28.3 54.5 29 50.45Q29.6 46.55 30.85 42.8L31.75 40.5L31.85 40.9L32.05 40.95Q35.25 40.1 32.65 37.5Q32.65 36.8 33.3 36.25L33.6 36.05L33.75 36.1L33.9 35.8Q35 33.75 36.5 31.95Q36.7 32.4 37.25 32.3Q41.4 31.7 38.4 29.85L38.65 29.55L41.65 27.1L42.25 26.65Q44.45 23.85 43 20.75Q41.5 17.65 41.6 15.25L41.65 12.55L44.15 15.95Q46.8 19.45 46.6 23.2Q46.5 25.25 46.05 26.95Q45.7 28.4 45.25 28.95L40.1 35.45Q35.75 40.95 35.35 46.75Q34.9 52.5 34.5 53.35L33.3 55.95Q32.5 57.75 29.45 61.3Q26.4 64.8 23.85 65.65Q21.3 66.45 20.15 67.95L18.1 70.35Q17.25 71.3 14.8 72.35L9.75 72.2Q8.5 71.65 7.7 70.95L9.7 71.15M40.2,23.65Q41.95 25.25 39.65 25.75L39.45 25.7Q38.9 24.3 40.2 23.7L40.2 23.65M33.4,44.35Q31.6 46.25 33.65 47.3L33.75 47.2Q34.9 45.4 33.6 44.25L33.4 44.35M31.2,52.05L31.2 52.1Q29.35 53.4 30.25 55.45L30.55 55.45Q33.05 54.05 31.2 52.05M25.75,55.2L25.45 55.5Q23.4 54.45 25.2 52.9L25.2 52.85Q25.65 52.8 25.95 53.1L26.05 53.25Q26.1 54.25 25.75 55.2M24.2,62.25L24.2 62.3Q23.75 62.3 23.5 62.65Q23 64.4 24.55 64.45L24.7 64.3Q25.45 62.9 24.2 62.25" />
<path style="fill:#0E0A0B;fill-opacity:1" d="M41.6,12.45Q41.65 11.15 42 9.95Q42.65 11.75 44.4 13.7Q47.6 17.3 47.95 22.75Q48.25 28.15 44.35 32.35Q40.45 36.45 38.9 39.65Q37.4 42.8 37 44.8Q36.6 46.75 36.45 49.5Q36.3 52.2 35.75 53.6L33.85 57.6Q32.45 60.15 29.75 63.05Q27 65.85 25.7 66.3Q24.35 66.7 23.5 67.15L21.85 68.4L19.45 70.95Q17.85 72.7 15.75 73.45L11.15 73.9Q8.6 73.55 6.55 71.9Q5.25 70.85 4.8 69.2L4.85 69.25Q6.15 70.55 7.7 70.95Q8.5 71.65 9.75 72.2L14.8 72.35Q17.25 71.3 18.1 70.35L20.15 67.95Q21.3 66.45 23.85 65.65Q26.4 64.8 29.45 61.3Q32.5 57.75 33.3 55.95L34.5 53.35Q34.9 52.5 35.35 46.75Q35.75 40.95 40.1 35.45L45.25 28.95Q45.7 28.4 46.05 26.95Q46.5 25.25 46.6 23.2Q46.8 19.45 44.15 15.95L41.65 12.55L41.6 12.45M16.2,62.95Q17.3 64.1 17.5 65.65Q17.7 67.25 16.35 66.5L15.9 65.05L16.2 62.95M30.65,36.7Q29.25 38.8 29.05 43.35Q28.8 47.9 26.75 50.55Q24.65 53.2 24.2 53.35Q23.75 53.45 25.55 50.65Q27.3 47.8 27.6 43Q27.85 38.2 30.1 35.4Q31.75 33.25 34.35 32.45Q32.05 34.55 30.65 36.7" />
<path style="fill:#2E2427;fill-opacity:1" d="M10.3,28.65L10 28.85Q8.85 29.7 7.65 31.15Q7.6 29.45 7.8 28.3Q7.95 27.1 9.7 24.35L10.15 23.6Q9.45 25.8 10.1 28.4L10.15 28.4L10.3 28.65M19.6,58.1Q18.65 58.2 18.5 57.05Q18.2 55.05 20 54.7L21.25 55.5Q22.7 52.6 22.65 49.3Q22.6 47.05 23.1 44.85Q26.8 45.25 23.6 42.85L23.9 41.85Q25.25 38.1 27.2 34.7Q29.15 31.25 32.25 28.9L34.45 27.4L34.8 27.2L36.45 26.05Q35.65 25.9 35.75 24.65Q35.9 23.1 37.4 22.9Q38.3 23.3 38.85 23.65L39.85 22.35L40.55 21.05Q37.9 18 38.15 13.9Q38.35 10.35 40.1 7.3L40.15 8.3Q40.55 10.85 41.2 11.85L41.6 12.45L41.65 12.55L41.6 15.25Q41.5 17.65 43 20.75Q44.45 23.85 42.25 26.65L41.65 27.1L38.65 29.55L38.4 29.85Q41.4 31.7 37.25 32.3Q36.7 32.4 36.5 31.95Q35 33.75 33.9 35.8L33.75 36.1L33.6 36.05L33.3 36.25Q32.65 36.8 32.65 37.5Q35.25 40.1 32.05 40.95L31.85 40.9L31.75 40.5L30.85 42.8Q29.6 46.55 29 50.45Q28.3 54.5 25.45 57.35Q22.75 60 19.75 61.8Q17.85 61.05 16 61.15Q18.1 59.95 19.6 58.1M31.8,12.7Q31.85 10.75 33.6 10.3Q37 13.4 32.5 13.6Q31.8 13.6 31.8 12.7M40.2,23.7Q38.9 24.3 39.45 25.7L39.65 25.75Q41.95 25.25 40.2 23.65L40.2 23.7M19.3,38.25Q19.55 37 20.8 36.9Q24.4 39.95 19.7 39.25Q19.15 39.15 19.3 38.25M12.05,48.8Q11.15 49.15 10.9 48.05Q10.25 45.25 12.4 44.3Q16.95 47.05 12.05 48.8M36.1,29.15Q35.65 28.3 34.6 28.05L34.4 28.25Q33.85 30.7 36.15 29.3L36.1 29.15M34.35,32.45Q31.75 33.25 30.1 35.4Q27.85 38.2 27.6 43Q27.3 47.8 25.55 50.65Q23.75 53.45 24.2 53.35Q24.65 53.2 26.75 50.55Q28.8 47.9 29.05 43.35Q29.25 38.8 30.65 36.7Q32.05 34.55 34.35 32.45M23.85,25.8Q24 24.6 25.2 24.5Q29.75 26.7 24.9 27Q23.75 27.1 23.85 25.8M33.6,44.25Q34.9 45.4 33.75 47.2L33.65 47.3Q31.6 46.25 33.4 44.35L33.6 44.25M30.55,55.45L30.25 55.45Q29.35 53.4 31.2 52.1L31.2 52.05Q33.05 54.05 30.55 55.45M26.05,53.25L25.95 53.1Q25.65 52.8 25.2 52.85L25.2 52.9Q23.4 54.45 25.45 55.5L25.75 55.2Q26.1 54.25 26.05 53.25M24.7,64.3L24.55 64.45Q23 64.4 23.5 62.65Q23.75 62.3 24.2 62.3L24.2 62.25Q25.45 62.9 24.7 64.3" />
<path style="fill:#43363A;fill-opacity:1" d="M13.15,61.25L10.55 61.5L9.35 62.2L10.5 62.35L13 62.6Q14.15 63 15.15 63.95L15.9 65.05Q15.6 67 14.3 68.65Q12.45 71 9.7 71.15L7.7 70.95Q6.8 70.25 6.45 69.4Q5.7 67.75 5.75 64.8Q5.75 63 4.95 61.4Q4.75 58.8 3.95 56.4Q2.75 52.8 2.95 48.8Q3.1 46.15 3.9 43.65L4.25 44.25L4.55 44.25Q7.25 42.55 4.95 41.15Q6.65 37.6 8.85 34.5L13.35 28.4L13.5 28.25L10.95 28.85Q11.3 28.1 10.7 28.45L10.3 28.65L10.15 28.4L10.1 28.4Q9.45 25.8 10.15 23.6Q11.95 21.15 15.6 18.3Q19.8 15.05 24 13.1L29.15 10.6L30.85 9.6L32.45 8.45Q33.5 7.55 34.8 4.7Q36.1 1.8 41.95 1.6Q40.15 5 40.1 7.3Q38.35 10.35 38.15 13.9Q37.9 18 40.55 21.05L39.85 22.35L38.85 23.65Q38.3 23.3 37.4 22.9Q35.9 23.1 35.75 24.65Q35.65 25.9 36.45 26.05L34.8 27.2L34.45 27.4L32.25 28.9Q29.15 31.25 27.2 34.7Q25.25 38.1 23.9 41.85L23.6 42.85Q26.8 45.25 23.1 44.85Q22.6 47.05 22.65 49.3Q22.7 52.6 21.25 55.5L20 54.7Q18.2 55.05 18.5 57.05Q18.65 58.2 19.6 58.1Q18.1 59.95 16 61.15L14 61.45L13.15 61.25M25.5,14.4Q22.15 15.95 19.85 18.75Q18.6 20.25 18.8 22L19.4 22.2L19.6 22.2Q22.65 20.55 25.1 18.2Q27.5 15.4 25.5 14.4M32.5,13.6Q37 13.4 33.6 10.3Q31.85 10.75 31.8 12.7Q31.8 13.6 32.5 13.6M19.9,27.2Q19.75 26.7 19.2 26.65L18.95 26.75Q17.85 27.3 18.45 28.3Q19.8 28.85 19.95 27.35L19.9 27.2M14.2,34.65L13.95 34.85Q13.05 35.85 13.65 37.1L15.2 37L15.35 36.55L14.95 34.9L14.75 34.8L14.2 34.65M19.7,39.25Q24.4 39.95 20.8 36.9Q19.55 37 19.3 38.25Q19.15 39.15 19.7 39.25M12.4,44.3Q10.25 45.25 10.9 48.05Q11.15 49.15 12.05 48.8Q16.95 47.05 12.4 44.3M36.15,29.3Q33.85 30.7 34.4 28.25L34.6 28.05Q35.65 28.3 36.1 29.15L36.15 29.3M24.9,27Q29.75 26.7 25.2 24.5Q24 24.6 23.85 25.8Q23.75 27.1 24.9 27M7.8,51.45L7.65 51.55Q6.1 53.85 8.6 53.65L8.65 53.5Q8.9 52.1 7.8 51.45M8.55,65.3L12.95 65.65Q13.65 65.7 12.2 64.45Q10.75 63.2 8.6 63.85Q6.45 64.5 8.55 65.3" />
<path style="fill:#625158;fill-opacity:1" d="M4.95,61.4L3.65 59.45Q1.55 57.05 1.4 53.25L1.2 47.7Q1.1 45.95 2.3 42.35Q3.45 38.7 7.85 33.15L10.95 28.85L13.5 28.25L13.35 28.4L8.85 34.5Q6.65 37.6 4.95 41.15Q7.25 42.55 4.55 44.25L4.25 44.25L3.9 43.65Q3.1 46.15 2.95 48.8Q2.75 52.8 3.95 56.4Q4.75 58.8 4.95 61.4M25.1,18.2Q22.65 20.55 19.6 22.2L19.4 22.2L18.8 22Q18.6 20.25 19.85 18.75Q22.15 15.95 25.5 14.4Q27.5 15.4 25.1 18.2M19.95,27.35Q19.8 28.85 18.45 28.3Q17.85 27.3 18.95 26.75L19.2 26.65Q19.75 26.7 19.9 27.2L19.95 27.35M14.75,34.8L14.95 34.9L15.35 36.55L15.2 37L13.65 37.1Q13.05 35.85 13.95 34.85L14.2 34.65L14.75 34.8M8.65,53.5L8.6 53.65Q6.1 53.85 7.65 51.55L7.8 51.45Q8.9 52.1 8.65 53.5M8.6,63.85Q10.75 63.2 12.2 64.45Q13.65 65.7 12.95 65.65L8.55 65.3Q6.45 64.5 8.6 63.85" />
<path style="fill:#191214;fill-opacity:1" d="M15.9,65.05L15.15 63.95Q14.15 63 13 62.6L10.5 62.35L9.35 62.2L10.55 61.5L13.15 61.25L14 61.45L14.75 61.8L16 62.75L16.2 62.95L15.9 65.05" />
</g>
</svg>
