<?xml version="1.0" encoding="utf-8"?>
<svg version="1.1" id="Layer_1"
xmlns="http://www.w3.org/2000/svg"
xmlns:xlink="http://www.w3.org/1999/xlink"
xmlns:author="http://www.sothink.com"
width="61px" height="65px"
xml:space="preserve">
<g id="26" transform="matrix(1, 0, 0, 1, 9.35, 6.2)">
<path style="fill:#F8F8F8;fill-opacity:1" d="M0.75,40.05Q1.9 39.75 3.5 41.7Q5.15 38.6 4.95 35.2Q5.9 35.05 8.55 38.25L10.2 40.3L10.45 40.3Q11.5 40.55 12.3 41.4L13 38.35Q14.3 38.6 16.05 39.75Q16 38.75 16.7 38L17.15 38.35Q16.9 35.75 16.05 33.9Q17.8 34 19.75 35.95Q19.55 35.2 19.7 34.8Q19.5 34.7 19.85 34.7Q19.9 34.55 20.35 34.5Q20.45 34.35 20.55 34.55L21.2 35.2L21.4 32.85Q22.9 33.15 25 35L26.4 31.45L27.65 31.5L27.8 31.45L27.25 29.55Q27 29.25 26.7 29.35L26.55 26.75L31.7 30.65Q32.8 28.2 31.6 25.55Q36.85 27.05 40.55 30.3L41.55 26.9Q41.65 24.35 41.15 22.1L39.05 17.6L40.25 17.65Q39.75 16.3 38.4 15.6Q38.1 15.45 38.15 15.6Q37.9 15.6 37.95 15.7L37 14.35Q33.7 8.95 28.8 6.15Q35.1 8.35 41.6 13.1L44 15.7Q47.45 20.1 49.45 24.75Q49.45 25.3 49.8 26.1L50.95 30.5L51.3 32.65L51.5 35.75L51.3 38.35Q49.7 41.85 46.5 45.6Q38.65 54.95 27.2 56.9L20.85 57.95L15.9 58.15L5.45 57Q2.65 56.35 2.25 55.3L1.3 53Q0.95 52.15 1.1 51.45L1.1 51.4Q1.1 45.2 0.75 40.05M44.2,23.8L43.6 23.6Q42.65 23.65 42.65 24.3L42.7 24.4Q45.1 26.75 44.25 24.05Q43.95 23.8 44.2 23.8M29.85,11.6L28.4 9Q32.05 10.95 35.25 15.1Q38.2 19.85 36.85 23.1Q35.9 21.8 35.15 21.25Q35.3 22.45 34.55 24.25Q30.85 17.15 22.85 6.85Q26.7 8.45 29.85 11.6M24.25,21.1Q21.55 17.65 21.1 14.65Q20.25 11.45 23.4 14.85Q26.3 18.1 27 20.7L27.45 24.4Q26.55 24.35 24.25 21.1M9.05,23.45Q10.25 24.2 9.3 25.15L9.15 25.1Q7.5 24.35 8.75 23.5L9.05 23.45M17.35,8.4L21.65 11.45Q19.85 10.5 19.65 11.75L19.35 12.85Q18.75 10.8 17.35 8.4M10.8,25.7Q12.35 27.2 14.6 31.85Q13.75 30.8 10.95 28.7Q12.3 28.65 10.8 25.7M10.6,36.3Q8.65 34.4 10.15 32.85Q12.55 34.4 10.8 36.45L10.6 36.3M2.65,33.3L2.75 33.35Q3.8 34 2.65 34.65L2.5 34.6Q1.3 33.8 2.65 33.3M6.7,41.4Q6.55 41.2 6.5 41.4Q4.85 42.2 5.85 43.6L5.95 43.8Q6.55 44.1 7.5 43.6Q7.9 42.15 6.7 41.4M15.45,41.15Q15.25 40.4 14.65 40.65Q12.85 42.7 15.6 41.7L15.45 41.15M35.35,29.1Q33.05 30.6 36.25 31.15L36.35 31.05Q36.8 29.9 35.75 29.15L35.35 29.1M22.95,31.1Q20.5 29.9 17.05 25.5L14.55 21.15Q18.6 22.75 20.85 25.85Q22.6 29 22.95 31.1" />
<path style="fill:#F0B8B8;fill-opacity:1" d="M39.4,10.8L41.6 13.1Q35.1 8.35 28.8 6.15Q33.7 8.95 37 14.35L37.95 15.7Q37.9 15.6 38.15 15.6Q38.1 15.45 38.4 15.6Q39.75 16.3 40.25 17.65L39.05 17.6L41.15 22.1Q41.65 24.35 41.55 26.9L40.55 30.3Q36.85 27.05 31.6 25.55Q32.8 28.2 31.7 30.65L26.55 26.75L26.7 29.35Q27 29.25 27.25 29.55L27.8 31.45L27.65 31.5L26.4 31.45L25 35Q22.9 33.15 21.4 32.85L21.2 35.2L20.55 34.55Q20.45 34.35 20.35 34.5Q19.9 34.55 19.85 34.7Q19.5 34.7 19.7 34.8Q19.55 35.2 19.75 35.95Q17.8 34 16.05 33.9Q16.9 35.75 17.15 38.35L16.7 38Q16 38.75 16.05 39.75Q14.3 38.6 13 38.35L12.3 41.4Q11.5 40.55 10.45 40.3L10.2 40.3L8.55 38.25Q5.9 35.05 4.95 35.2Q5.15 38.6 3.5 41.7Q1.9 39.75 0.75 40.05Q0.1 38.3 0.25 36.9Q-0.05 34.8 0.2 31.9Q0.25 28.65 -0.4 25.35Q0.6 26 2.75 29.75Q4.35 32.55 4.8 32.5Q7.85 28.6 6.7 23.55L3.8 16.8Q5.65 17.75 8.1 19.85Q10.1 21.7 10.95 23.2Q11.35 22.3 10.35 17.65Q9.1 12.95 9.4 13.25Q12.55 15.6 17.1 19.9Q17.4 20.35 17.75 18.4L17.4 15.15Q16.3 11.85 14.65 8.7L12.1 4.7Q17.2 5.3 22.7 10.1L22.05 8.2Q21 5.9 19.45 4.45Q17.65 2.75 16.2 1.85Q16.75 1.8 17.75 2.2Q19.15 2.6 21 3.55Q22.85 4.5 24.35 5.55Q22 1.45 17.2 -2.4L15.25 -3.35Q29.45 1.65 39.4 10.8M44.25,24.05Q45.1 26.75 42.7 24.4L42.65 24.3Q42.65 23.65 43.6 23.6L44.2 23.8Q43.95 23.8 44.25 24.05M22.85,6.85Q30.85 17.15 34.55 24.25Q35.3 22.45 35.15 21.25Q35.9 21.8 36.85 23.1Q38.2 19.85 35.25 15.1Q32.05 10.95 28.4 9L29.85 11.6Q26.7 8.45 22.85 6.85M27.45,24.4L27 20.7Q26.3 18.1 23.4 14.85Q20.25 11.45 21.1 14.65Q21.55 17.65 24.25 21.1Q26.55 24.35 27.45 24.4M8.75,23.5Q7.5 24.35 9.15 25.1L9.3 25.15Q10.25 24.2 9.05 23.45L8.75 23.5M19.35,12.85L19.65 11.75Q19.85 10.5 21.65 11.45L17.35 8.4Q18.75 10.8 19.35 12.85M10.95,28.7Q13.75 30.8 14.6 31.85Q12.35 27.2 10.8 25.7Q12.3 28.65 10.95 28.7M10.8,36.45Q12.55 34.4 10.15 32.85Q8.65 34.4 10.6 36.3L10.8 36.45M2.5,34.6L2.65 34.65Q3.8 34 2.75 33.35L2.65 33.3Q1.3 33.8 2.5 34.6M7.5,43.6Q6.55 44.1 5.95 43.8L5.85 43.6Q4.85 42.2 6.5 41.4Q6.55 41.2 6.7 41.4Q7.9 42.15 7.5 43.6M15.6,41.7Q12.85 42.7 14.65 40.65Q15.25 40.4 15.45 41.15L15.6 41.7M35.75,29.15Q36.8 29.9 36.35 31.05L36.25 31.15Q33.05 30.6 35.35 29.1L35.75 29.15M20.85,25.85Q18.6 22.75 14.55 21.15L17.05 25.5Q20.5 29.9 22.95 31.1Q22.6 29 20.85 25.85" />
<path style="fill:#A87070;fill-opacity:1" d="M-1.65,29.95L-1.75 28.9Q-2.55 24.95 -4.85 19.75L-6.55 16.85Q-3.2 18.75 -0.7 21.3Q2.5 24.55 4.4 28.25Q4.3 27.85 4.5 27.3L3.5 23.95L1.95 17.7Q1.05 14.9 -1.2 12.1Q0.85 12.6 3 13.75L6.5 15.6L7.35 16.25Q7.5 13.85 5.95 11.15L4.75 7.3L6.35 7.75L7.3 7.9L8.35 8.7L10.5 10.6Q10.7 8.4 8.45 5.35L7.7 3.45Q6.9 2 5.4 0.75L4.3 -0.2L6.35 -0.05L8 0.05L8.65 0.2L11.8 1.8Q12.65 2 10.8 0.4Q8.5 -1.35 4.85 -3.35L9.15 -2.7L12.45 -1.55Q11.35 -3.1 8.1 -4.55Q5.2 -6 4.1 -6.2Q9.85 -5.25 15.25 -3.35L17.2 -2.4Q22 1.45 24.35 5.55Q22.85 4.5 21 3.55Q19.15 2.6 17.75 2.2Q16.75 1.8 16.2 1.85Q17.65 2.75 19.45 4.45Q21 5.9 22.05 8.2L22.7 10.1Q17.2 5.3 12.1 4.7L14.65 8.7Q16.3 11.85 17.4 15.15L17.75 18.4Q17.4 20.35 17.1 19.9Q12.55 15.6 9.4 13.25Q9.1 12.95 10.35 17.65Q11.35 22.3 10.95 23.2Q10.1 21.7 8.1 19.85Q5.65 17.75 3.8 16.8L6.7 23.55Q7.85 28.6 4.8 32.5Q4.35 32.55 2.75 29.75Q0.6 26 -0.4 25.35Q0.25 28.65 0.2 31.9Q-0.05 34.8 0.25 36.9L-1.65 29.95" />
<path style="fill:#603030;fill-opacity:1" d="M7.1,3.9Q2.95 -0.3 1 -1.4Q4.95 -1.05 8 0.05L6.35 -0.05L4.3 -0.2L5.4 0.75Q6.9 2 7.7 3.45L8.45 5.35L7.1 3.9M5.5,10.15Q3.05 6.65 1.4 5.55Q4.15 6.2 7.3 7.9L6.35 7.75L4.75 7.3L5.95 11.15L5.5 10.15M1.8,20.1Q-1.15 13.75 -3.3 11.7L-1.2 12.1Q1.05 14.9 1.95 17.7L3.5 23.95L1.8 20.1M-6.55,16.85L-4.85 19.75Q-2.55 24.95 -1.75 28.9L-1.65 29.95L-2.4 27.7Q-6.6 17.5 -9.35 15.4Q-8 16 -6.55 16.85" />
</g>
</svg>
