<?xml version="1.0" encoding="utf-8"?>
<svg version="1.1" id="Layer_1"
xmlns="http://www.w3.org/2000/svg"
xmlns:xlink="http://www.w3.org/1999/xlink"
xmlns:author="http://www.sothink.com"
width="424px" height="98px"
xml:space="preserve">
<g id="1078" transform="matrix(1, 0, 0, 1, 6.35, -91.7)">
<path style="fill:#D2B06E;fill-opacity:1" d="M-1.45,102Q-3.35 105.4 -3.35 110.7L-3.35 170.75Q-3.35 185.75 11.65 185.75L397.75 185.75Q404.2 185.75 407.9 183Q404.45 189.25 394.75 189.25L8.65 189.25Q-6.35 189.25 -6.35 174.25L-6.35 114.2Q-6.35 105.65 -1.45 102" />
<path style="fill:#5B2908;fill-opacity:1" d="M397.75,185.75L11.65 185.75Q-3.35 185.75 -3.35 170.75L-3.35 110.7Q-3.35 105.4 -1.45 102Q0.2 98.9 3.45 97.3Q6.75 95.7 11.65 95.7L397.75 95.7Q412.75 95.7 412.75 110.7L412.75 170.75Q412.75 176.6 410.5 180.15Q409.45 181.8 407.9 183Q404.2 185.75 397.75 185.75" />
<path style="fill:#412310;fill-opacity:1" d="M6.05,94.5Q9.7 91.7 16.15 91.7L402.25 91.7Q417.25 91.7 417.25 106.7L417.25 166.75Q417.25 172.05 415.4 175.5Q413.7 178.6 410.5 180.15Q412.75 176.6 412.75 170.75L412.75 110.7Q412.75 95.7 397.75 95.7L11.65 95.7Q6.75 95.7 3.45 97.3Q4.5 95.65 6.05 94.5" />
</g>
</svg>
