<?xml version="1.0" encoding="utf-8"?>
<svg version="1.1" id="Layer_1"
xmlns="http://www.w3.org/2000/svg"
xmlns:xlink="http://www.w3.org/1999/xlink"
xmlns:author="http://www.sothink.com"
width="72px" height="111px"
xml:space="preserve">
<g id="3026" transform="matrix(1, 0, 0, 1, 0, 0)">
<path style="fill:#0E0A0B;fill-opacity:1" d="M33.1,74.55L32.6 74.95L29.55 77.25Q26.6 79.15 23.95 79.45L23.8 79.45Q24.95 83.3 27.35 84.25Q29.75 85.15 32.45 85.35L34.2 85.35L37.55 84.65L38.3 84.35L38.55 85.75L34.85 86.65L34.7 86.65Q30.9 86.95 27.4 85.75Q23.75 84.45 21.7 79.2Q18.55 78.5 16.25 76Q13.95 73.45 12.05 70.15L10.25 66.9Q8.95 66.7 7 65.8Q5.05 64.85 3.3 63.05Q1.55 61.25 0.65 58.3Q-0.25 55.3 0.1 53.3Q0.4 51.25 1.7 50.65Q4.3 49.35 7.95 49.95Q6.3 46.15 7.25 41.15Q7.75 38.55 8.9 36.35L10.3 34.25L11.2 36.05Q10.35 37.35 9.8 38.7L9.25 40.05Q7.65 45 9.85 49.9L17 51.85L19.05 52.5L19.05 54.35L17.05 53.65Q12.65 52.25 9.65 51.75Q5.75 51.1 3.5 51.75Q1.2 52.35 1.5 55.4L1.7 56.65Q2.2 59 3.9 61.25Q5.95 64.05 8.6 64.65L12.55 64.55Q13.85 63.85 16.25 62.85L16.7 62.65Q18.2 62.05 20.45 61.6L20.7 62.2L21.05 62.85L17 63.95Q14.05 64.95 11.7 66.55Q13.25 69.5 14.75 71.65Q17.3 75.35 19.5 76.65Q22.95 78.7 26.4 77L28.45 75.85L32.15 73.35L33.1 74.55" />
<path style="fill:#2E2427;fill-opacity:1" d="M11.45,43.05Q11.35 46.3 15.75 48.55L16.75 49.05L17 51.85L9.85 49.9Q7.65 45 9.25 40.05L9.8 38.7L11.45 43.05M11.7,66.55Q14.05 64.95 17 63.95L17.65 65.55Q18.35 66.7 19.1 67.1Q22.2 69.45 25.3 72.5L24.6 72.8Q19.05 75.05 14.75 71.65Q13.25 69.5 11.7 66.55M1.7,56.65L1.5 55.4Q1.2 52.35 3.5 51.75Q5.75 51.1 9.65 51.75Q12.65 52.25 17.05 53.65L16.8 55.25Q16.6 56.6 16.65 58.5Q16.65 60.4 16.9 60.55L11.35 61.85L10.6 61.85Q4.7 61.5 1.7 56.65M10.2,54.1Q8.5 51.85 4.85 53.35Q2.8 54.4 4.5 55.85Q6.2 57.3 9.7 55.6L10.25 54.4L10.3 54.25L10.2 54.1M15.2,67.1L14.7 67.45L15.55 69.25Q16.35 70.85 17.7 70.15Q19 69.4 18.5 68.45Q17.95 67.5 15.6 66.95L15.2 67.1M29.55,77.25Q31.25 79.45 32.55 81.9Q27.6 83.8 23.95 79.45Q26.6 79.15 29.55 77.25" />
<path style="fill:#1C1417;fill-opacity:1" d="M17,51.85L16.75 49.05L15.75 48.55Q11.35 46.3 11.45 43.05L9.8 38.7Q10.35 37.35 11.2 36.05L11.95 37.4Q13.3 39.65 14.85 40.95Q17.15 42.85 20.2 44.2Q19.15 47.75 19.05 51.65L19.05 52.5L17 51.85M21.05,62.85Q21.75 64.25 22.55 64.7L22.9 65Q24.05 67.3 26.45 67.95L27.5 68.8Q30 70.9 32.15 73.35L28.45 75.85L26.4 77Q22.95 78.7 19.5 76.65Q17.3 75.35 14.75 71.65Q19.05 75.05 24.6 72.8L25.3 72.5Q22.2 69.45 19.1 67.1Q18.35 66.7 17.65 65.55L17 63.95L21.05 62.85M36.05,78.75Q37.7 81.45 38.3 84.35L37.55 84.65L34.2 85.35L32.45 85.35Q29.75 85.15 27.35 84.25Q24.95 83.3 23.8 79.45L23.95 79.45Q27.6 83.8 32.55 81.9Q31.25 79.45 29.55 77.25L32.6 74.95L33.1 74.55L34.55 76.45L35.15 77.3L36.05 78.75M10.6,61.85L11.35 61.85L16.9 60.55Q16.65 60.4 16.65 58.5Q16.6 56.6 16.8 55.25L17.05 53.65L19.05 54.35Q19.2 58.65 20.45 61.6Q18.2 62.05 16.7 62.65L16.25 62.85Q13.85 63.85 12.55 64.55L8.6 64.65Q5.95 64.05 3.9 61.25Q2.2 59 1.7 56.65Q4.7 61.5 10.6 61.85" />
<path style="fill:#43363A;fill-opacity:1" d="M10.3,54.25L10.25 54.4L9.7 55.6Q6.2 57.3 4.5 55.85Q2.8 54.4 4.85 53.35Q8.5 51.85 10.2 54.1L10.3 54.25M15.6,66.95Q17.95 67.5 18.5 68.45Q19 69.4 17.7 70.15Q16.35 70.85 15.55 69.25L14.7 67.45L15.2 67.1L15.6 66.95" />
<path style="fill:#381616;fill-opacity:1" d="M37.65,26.6Q38.05 31.25 40.65 34.25L37.45 33.85L36 31.4Q35.5 31.4 35.7 31.2L35.6 31.05L34.65 30.5L34.5 30.3L34.45 30.45L34.25 30.35Q35.6 18.85 39.45 15.6L39.1 16.55Q37.25 21.4 37.65 26.6M23.25,16.25L22.6 15.9Q22.4 13.6 21.85 11.8Q20.4 7.25 19.9 3.85L19.8 3.05L21.35 4.95L22.65 6.8Q25.8 11.8 25.95 17.55L23.25 16.25M31.8,21.05L32.45 19.65L32.85 19.05Q33.35 18.25 34 17.75L35.05 19.75Q33.2 23.65 32.8 29.5L32.8 29.85L32.8 30L30.5 30.05L29.7 30.55L29.65 30.7L29.55 31.05L29.6 31.7Q26.35 33.1 26.9 35.7Q21.55 31.25 22.4 23.85L22.55 22.4L29.3 26.6Q31.85 28.25 32.35 26.05L32.4 23.5Q32.45 21.9 31.8 21.05M40.45,45.5L43.35 46.45Q44.3 46.6 44.65 47.4L45.1 48.2Q45.7 50.9 45.15 51.2Q44.2 50 42.9 49.15Q41.95 48.5 40.85 48.05L39.15 47.55L40.45 45.5M48,61L47.8 61.75L46.8 61.05Q43.5 58.75 38.7 57.15Q38.4 54.45 37.1 51.95Q40.8 50.9 44.6 54.65L46.45 55.95L47.75 56.3L49.1 56.35L48 61M21.15,32.4L20.05 31.85Q19.8 30.7 19.8 29.4L19.8 29.05L21.15 30.1L21.4 30.3Q22 32.2 22.95 33.65L21.15 32.4M24.2,35.3L26.3 36.95Q28.4 38.25 29.45 40.15L30.1 41.8L30.4 43.85L30.25 44.75Q29.8 45.9 29.1 46.2Q25.65 45.1 22.05 43.4L20.7 42.75L16.8 40.6Q15.75 40.1 14.65 38.65Q17.1 39.15 19.9 37.45L22.4 38.5Q24.75 39.4 24.6 36.95Q24.6 36.05 24.2 35.3M22.7,62.75L22.6 62.6L21.9 61.35L21.25 59.8Q20.7 58.2 20.65 54.9L20.65 53.1L20.75 50.75Q20.9 47.7 21.65 44.8L25.55 46.25L28.55 47.25L28.55 48.25Q28.6 49.1 29 50.45Q29.35 51.8 30.05 53.3L31.7 56.05L32.8 57.15L33.2 57.3L33.35 57.7Q32.4 59.85 29.75 59.6L29.5 58.35L28.85 58.95L25.7 53.45L23.6 49.35Q23.65 52.45 24 54.65L24.25 55.95L24.6 57.25Q25.15 59.05 26.45 60.65L22.7 62.75M31.3,49.4Q31.15 49.25 30.75 49.6Q30.3 49.15 30.05 49.75L29.7 47.2Q32.1 45.7 31.7 42.8L31.65 42.55L31.15 40.85Q30.25 38.8 28 36.45Q27.95 35.85 28.05 35.35L29.55 36.15Q31.2 36.95 32.75 39.45Q33.7 40.95 34.1 42.3L34.25 42.95L31.3 49.4M37.6,69.6L38.9 70.75L37.35 70.95Q34.05 71.45 33.45 72.55L33.35 72.45Q31.85 70.8 30.15 69.35L28.1 67.6L33.15 66.3L37.6 69.6M45.3,88.55Q43.35 86.6 40.5 86.1L40.1 86L40 85.15L39.8 84L39.4 82.25Q38.4 79.85 37.2 77.75L39.3 77Q43.05 75.1 43.8 76L43.3 79.9Q43.4 81.05 44.5 81.85Q45.6 82.6 47.4 83.15L48.15 83.3L47.3 84.6Q46.7 85.8 46.3 87.5L45.95 88.9L45.3 88.55M57.35,81.6L54.6 81Q52.5 80.55 50.45 81.5L50.75 81.1L51.95 80.2Q52.6 79.8 55.3 79.4L57.35 81.6M41.25,94.1Q44.6 96.15 47.8 95.4L48.05 95.4L52.55 98.3L50.55 100.9L50 101.25Q46.3 99.65 41.9 99.55Q38.65 98.9 39 95.45L39.6 93.05L41.25 94.1M50.7,73.8Q49.05 74.55 48.85 73.95L49.15 73.5Q49.7 72.45 49.4 71.3L50.7 73.75L50.7 73.8M65.4,93.4L64.45 93.95Q63.65 93.65 62.95 93.2L62.1 92.55L60.7 91.1L63.05 89.6Q64.4 89.35 65.45 87.9Q67.55 85 67.75 82.45L68.35 85.1Q68.65 87.3 68.15 89.05Q67.55 91.15 67.45 92.85Q66.6 92.75 65.4 93.4M56.1,103.25L58.2 100.8Q59.95 102.6 62.15 103.15L66 103.65L67.85 106.65Q67.5 108.35 66.9 108.8Q61.3 109.8 55.65 104.8L55.4 104.6L56.1 103.25" />
<path style="fill:#000000;fill-opacity:1" d="M50.7,73.75L49.4 71.3L48.05 67.65Q49.2 66.85 48.9 65.4L48.95 65.1L49 65.25L49.5 67.1L50.35 69.5Q51.25 71.75 52.75 74Q51.6 73.35 50.7 73.75M55.3,79.4L56.7 79.2L56.55 78.8L59.05 81Q58.35 81.35 57.85 81.95L57.35 81.6L55.3 79.4M66.85,80.4Q64.9 82.6 63.3 83.4L62.4 82.05L63.15 81.7Q65.55 79.85 66.15 78.35Q66.7 76.8 67.95 78.85Q70.2 83.7 69.85 86.5L69.05 91.4Q68.8 92.4 68.85 93.55Q68.35 93.05 67.9 92.9L67.45 92.85Q67.55 91.15 68.15 89.05Q68.65 87.3 68.35 85.1L67.75 82.45L66.85 80.4M68.2,98.25L68.15 97.3L69.3 97L69.55 99.9L68.2 98.25M68.25,107.25L69 107.35L68.8 108.1Q68.2 110.05 66.9 110.35Q65.6 110.65 61.75 109.75Q58.15 108.85 54.4 105.65L55.4 104.6L55.65 104.8Q61.3 109.8 66.9 108.8Q67.5 108.35 67.85 106.65L68.25 107.25M49.9,101.35L49.85 102.05L49.8 102.1L49.85 102.2L49.95 102.65Q47.1 101.4 43.5 101.25Q38.1 101.05 37.6 97L38.3 92.15L39.6 93.05L39 95.45Q38.65 98.9 41.9 99.55Q46.3 99.65 50 101.25L49.9 101.35M39.4,82.25L39.8 84L40 85.15L40.1 86L38.6 86.05L38.55 85.75L38.3 84.35Q37.7 81.45 36.05 78.75L35.15 77.3Q35.85 77.95 37.2 77.75Q38.4 79.85 39.4 82.25M19.05,54.35L19.05 52.5L19.05 51.65Q19.15 47.75 20.2 44.2L21.15 44.6L21.65 44.8Q20.9 47.7 20.75 50.75L20.65 53.1L20.65 54.9Q20.7 58.2 21.25 59.8L21.9 61.35L22.6 62.6L22.7 62.75L22.25 62.95L22.9 65L22.55 64.7Q21.75 64.25 21.05 62.85L20.7 62.2L20.45 61.6Q19.2 58.65 19.05 54.35M32.15,73.35Q30 70.9 27.5 68.8L26.45 67.95L26.5 67.95L28.1 67.6L30.15 69.35Q31.85 70.8 33.35 72.45L33.45 72.55Q33.1 73.15 33.55 73.95L34.55 76.45L33.1 74.55L32.15 73.35" />
<path style="fill:#4D1C1C;fill-opacity:1" d="M39.1,16.55L40.1 16.75Q42.3 22.95 43.55 29.7Q44.5 34.9 46.8 38.4Q47.65 40.1 48.05 42.35Q43.95 40.35 43.85 40.45Q40 37.6 37.45 33.85L40.65 34.25Q38.05 31.25 37.65 26.6Q37.25 21.4 39.1 16.55M46.35,50L49.15 53.15L49.5 53.85L49.1 56.35L47.75 56.3L46.45 55.95L44.6 54.65Q40.8 50.9 37.1 51.95L36.7 51.3L39.15 47.55L40.85 48.05Q41.95 48.5 42.9 49.15Q44.2 50 45.15 51.2Q45.7 50.9 45.1 48.2L46.35 50M32.45,19.65L31.8 21.05L31.25 20.55L29 19.05L25.95 17.55Q25.8 11.8 22.65 6.8L21.35 4.95L21.35 4.6Q24.3 4.6 26.6 7.9Q29.65 12.15 31.8 16.9L32.85 19.05L32.45 19.65M11.1,27.9L9.75 27.45L9.35 24.25L10.85 24.15L19.8 29.4Q19.8 30.7 20.05 31.85Q14.85 29.35 11.1 27.9M14.65,38.65Q13.65 37.35 12.6 35.3L12.25 34.6L11.75 33.55L16.2 35.65L19.9 37.45Q17.1 39.15 14.65 38.65M29.55,36.15L30.45 34.65Q31.4 36.75 33.3 37.6L35.4 40.05L34.25 42.95L34.1 42.3Q33.7 40.95 32.75 39.45Q31.2 36.95 29.55 36.15M26.45,60.65Q25.15 59.05 24.6 57.25L24.25 55.95L24 54.65Q23.65 52.45 23.6 49.35L25.7 53.45L28.85 58.95L26.45 60.65M33.15,66.3L37.25 65.15Q39.85 65.35 40.8 67.7Q41.55 68.15 41.6 70.4L38.9 70.75L37.6 69.6L33.15 66.3M47.95,95.35L48.05 95.4L47.8 95.4L47.95 95.35M47,70.75L46.2 68.35L46.8 68.2L47.2 69.9L47.9 71.7L48 72.5L47 70.75M57,83.3L58 85.7Q57.2 87 54 87L52.85 86.85Q51.8 86.7 51.65 87.35L51.2 88.8Q50.95 89.55 49.65 89.7Q48 89.9 45.95 88.9L46.3 87.5Q46.7 85.8 47.3 84.6Q48.1 84.15 48.95 83.8Q50.05 83.3 51.9 83.05L55.45 82.85L57.05 83.1L57 83.3M62.1,92.55L62.95 93.2Q63.65 93.65 64.45 93.95Q63.3 94.55 62 95.3Q60.15 96.35 58 94.65L56.55 93.5L60.7 91.1L62.1 92.55M63.05,89.6L63.25 89.45Q65.05 88.5 64.85 86.75Q67.05 84.6 66.55 82.3L64.3 85.15L64 84.6L63.3 83.4Q64.9 82.6 66.85 80.4L67.75 82.45Q67.55 85 65.45 87.9Q64.4 89.35 63.05 89.6M68.2,98.25L67.35 97.35L68.15 97.3L68.2 98.25M58.85,100Q61.55 101.35 65.05 101.75L66 103.65L62.15 103.15Q59.95 102.6 58.2 100.8L58.85 100" />
<path style="fill:#B65555;fill-opacity:1" d="M48.05,42.35Q47.65 40.1 46.8 38.4Q44.5 34.9 43.55 29.7Q42.3 22.95 40.1 16.75L39.1 16.55L39.45 15.6L39.65 15.45L39.7 15.45Q40.6 15 41 15.05Q41.45 15.1 41.85 15.7Q42.25 16.35 42.95 20.4Q43.65 24.45 45.05 29.25Q46.4 34 49.2 39.45L49.5 41.5L49.7 43.15L48.05 42.35M49.45,45.55L49.85 44.95L49.9 45.95L49.45 45.55M32.85,19.05L31.8 16.9Q29.65 12.15 26.6 7.9Q24.3 4.6 21.35 4.6L21.35 4.95L19.8 3.05Q19.7 0.65 22.2 1.95Q25.05 3.4 28.35 8.2Q31.15 12.25 34 17.75Q33.35 18.25 32.85 19.05M49.2,53.15L49.65 52.8L49.5 53.85L49.15 53.15L49.2 53.15M19.8,29.4L10.85 24.15L9.35 24.25L9.75 27.45L9.05 27.2L7.5 23.25Q6.55 20.7 7.15 20.45Q7.7 20.15 10.8 22.35L16.7 26.7L19.8 29.05L19.8 29.4M30.45,34.65L29.55 36.15L28.05 35.35Q28.2 34.3 28.9 33.6Q29.3 33.2 29.85 32.9L30.45 34.65M48.15,83.3Q49.3 83.4 49.75 82.6L50.45 81.5Q52.5 80.55 54.6 81L57.35 81.6L57.85 81.95L57.05 83.1L55.45 82.85L51.9 83.05Q50.05 83.3 48.95 83.8Q48.1 84.15 47.3 84.6L48.15 83.3M48.05,67.65L49.4 71.3Q49.7 72.45 49.15 73.5L48.85 73.95L48.85 73.9L48 72.5L47.9 71.7L47.2 69.9L46.8 68.2L48.05 67.65M64.85,86.75Q64.75 86 64.3 85.15L66.55 82.3Q67.05 84.6 64.85 86.75" />
<path style="fill:#200A0A;fill-opacity:1" d="M34.25,30.35L32.8 30L32.8 29.85L32.8 29.5Q33.2 23.65 35.05 19.75L34 17.75Q31.15 12.25 28.35 8.2Q25.05 3.4 22.2 1.95Q19.7 0.65 19.8 3.05L19.9 3.85Q20.4 7.25 21.85 11.8Q22.4 13.6 22.6 15.9Q21.6 15.35 21.2 15.55L20.6 11.9L19.15 6.3L18.6 3.65Q18.45 2.75 18.65 1.85L18.65 1.7Q18.85 0.7 19.85 0.25L22.05 0.2Q23.2 0.65 25.25 2.6Q27.25 4.5 30.3 8.75Q32.9 12.45 35.25 17.05L35.9 18.4Q37.05 15.85 38.4 14.8Q39.75 13.7 40.95 13.6Q42.9 13.95 43.3 15.65L44.75 22.2Q45.8 27.05 46.6 29.6Q47.35 32.1 48.9 35.3Q50.45 38.45 50.85 39.85Q51.2 41 51.35 43.2L51.45 44.2L51.5 47.3L49.9 45.95L49.85 44.95L50.75 43.65L49.7 43.15L49.5 41.5L49.2 39.45Q46.4 34 45.05 29.25Q43.65 24.45 42.95 20.4Q42.25 16.35 41.85 15.7Q41.45 15.1 41 15.05Q40.6 15 39.7 15.45L39.65 15.45L39.45 15.6Q35.6 18.85 34.25 30.35M51.3,51.4L50.7 55.8L50.7 55.85L50.15 59.05L49.5 61.45L47.5 61.85L44.4 61.15Q42.2 59.35 38.8 58L38.7 57.15Q43.5 58.75 46.8 61.05L47.8 61.75L48 61L49.1 56.35L49.5 53.85L49.65 52.8L51.3 51.4M50.8,43.4L50.55 43.4L50.75 43.45L50.8 43.4M29.85,32.9Q29.3 33.2 28.9 33.6Q28.2 34.3 28.05 35.35Q27.95 35.85 28 36.45Q30.25 38.8 31.15 40.85L31.65 42.55L31.7 42.8Q32.1 45.7 29.7 47.2L30.05 49.75L30.1 49.9Q30.5 51.3 31.3 52.7L33.2 57.3L32.8 57.15L31.7 56.05L30.05 53.3Q29.35 51.8 29 50.45Q28.6 49.1 28.55 48.25L28.55 47.25L25.55 46.25L21.65 44.8L21.15 44.6L20.2 44.2Q17.15 42.85 14.85 40.95Q13.3 39.65 11.95 37.4L11.2 36.05L10.3 34.25L9.95 33.45L9.55 32.45Q10.05 33 11 33.3L11.75 33.55L12.25 34.6L12.6 35.3Q13.65 37.35 14.65 38.65Q15.75 40.1 16.8 40.6L20.7 42.75L22.05 43.4Q25.65 45.1 29.1 46.2Q29.8 45.9 30.25 44.75L30.4 43.85L30.1 41.8L29.45 40.15Q28.4 38.25 26.3 36.95L24.2 35.3L22.95 33.65Q22 32.2 21.4 30.3L21.15 30.1L19.8 29.05L16.7 26.7L10.8 22.35Q7.7 20.15 7.15 20.45Q6.55 20.7 7.5 23.25L9.05 27.2L7.4 27.05L7.25 26.75Q5.5 22.25 5.4 20.1Q5.3 17.9 8.75 19.35Q13.85 22.7 19.9 27.6L21.25 28.65Q20.7 27.4 21.15 21.6L21.15 21.5L22.25 22.2L22.55 22.4L22.4 23.85Q21.55 31.25 26.9 35.7Q26.35 33.1 29.6 31.7L29.85 32.9" />
<path style="fill:#B84B16;fill-opacity:1" d="M49.65,52.8L49.2 53.15L49.15 53.15L46.35 50L45.1 48.2L44.65 47.4Q44.3 46.6 43.35 46.45L40.45 45.5L39.15 47.55L36.7 51.3L37.1 51.95Q38.4 54.45 38.7 57.15L38.8 58Q42.2 59.35 44.4 61.15L47.5 61.85L49.5 61.45L49.8 61.4L48.95 65.1L48.9 65.4Q49.2 66.85 48.05 67.65L46.8 68.2L46.2 68.35L47 70.75L48 72.5L48.85 73.9L48.85 73.95Q49.05 74.55 50.7 73.8L50.7 73.75Q51.6 73.35 52.75 74L54.7 75.85Q55.75 76.75 56.55 78.8L56.7 79.2L55.3 79.4Q52.6 79.8 51.95 80.2L50.75 81.1L50.45 81.5L49.75 82.6Q49.3 83.4 48.15 83.3L47.4 83.15Q45.6 82.6 44.5 81.85Q43.4 81.05 43.3 79.9L43.8 76Q43.05 75.1 39.3 77L37.2 77.75Q35.85 77.95 35.15 77.3L34.55 76.45L33.55 73.95Q33.1 73.15 33.45 72.55Q34.05 71.45 37.35 70.95L38.9 70.75L41.6 70.4Q41.55 68.15 40.8 67.7Q39.85 65.35 37.25 65.15L33.15 66.3L28.1 67.6L26.5 67.95L26.45 67.95Q24.05 67.3 22.9 65L22.25 62.95L22.7 62.75L26.45 60.65L28.85 58.95L29.5 58.35L29.75 59.6Q32.4 59.85 33.35 57.7L33.2 57.3L31.3 52.7Q30.5 51.3 30.1 49.9L30.05 49.75Q30.3 49.15 30.75 49.6Q31.15 49.25 31.3 49.4L34.25 42.95L35.4 40.05L33.3 37.6Q31.4 36.75 30.45 34.65L29.85 32.9L29.6 31.7L29.55 31.05L29.65 30.7L29.7 30.55L30.5 30.05L32.8 30L34.25 30.35L34.45 30.45L34.5 30.3L34.65 30.5L35.6 31.05L35.7 31.2Q35.5 31.4 36 31.4L37.45 33.85Q40 37.6 43.85 40.45Q43.95 40.35 48.05 42.35L49.7 43.15L50.75 43.65L49.85 44.95L49.45 45.55L49.9 45.95L51.5 47.3L52.35 48Q53.45 48.95 52.65 50.25L51.3 51.4L49.65 52.8M32.4,23.5L32.35 26.05Q31.85 28.25 29.3 26.6L22.55 22.4L22.25 22.2L21.15 21.5Q20.6 21 20.7 20.75L20.85 18.4Q20.6 16.25 21 15.7L21.2 15.55Q21.6 15.35 22.6 15.9L23.25 16.25L25.95 17.55L29 19.05L31.25 20.55L31.8 21.05Q32.45 21.9 32.4 23.5M49.4,47.65L48.4 45.95L47.8 44.5Q47.95 44.15 48.3 43.95L48.5 43.85L48.3 43.9Q46.9 44.2 44.2 42.2L42.5 41.05L39.05 38.2L38.9 38.1Q36.1 35.6 34.9 33.65L34.2 32.25L31.75 32.35L31.65 32.3L31.7 32.35L32.4 33.55L33.85 36.25L36.9 39.5Q37.35 42.6 33.35 49.85L32.7 51.05Q33.75 52.9 34.5 55.95L34.95 57.85L35.3 59.8L33.2 60.85L32.4 61.1L29.25 61.2L28.1 62.35Q27 63.1 25.25 63.75L24.25 64.05L25.25 65.15L26.05 66.1L26.25 66L30.8 64.6Q35.8 63.1 37 63.05Q38.65 62.9 39.3 63.5L40.95 64.65Q43.65 66.95 43.5 72.05L40.55 72.35Q38.15 72.75 36.45 73.6L36.45 75.9Q38.6 74.3 42 74.2L42.55 74.15L44.25 74.3L44.45 74.6L44.65 74.95Q45.75 76.7 45.55 78.1Q45.35 79.8 46.15 80.2L48.2 81.3Q48.25 80.55 49.2 79.85Q51.05 78.4 53.25 78.1L53.95 77.9L54.1 77.85L53 75.95Q52.55 75.25 51.75 75.25Q50.8 75.25 49.45 76.15Q48.3 75.5 47.6 74.65L47.05 73.8L46.6 72.35Q43.75 67.9 44.65 66.9L46 66.3L46.45 66.1L47.25 65.5L47.45 65.2Q47.75 64.55 47.3 63.8L47.2 63.8L44.3 63.5Q41.8 60.55 37.3 59.35L35.25 50.7L39.1 44.05Q39.5 43.6 40 43.45L40.4 43.4L41.7 43.6L43.85 44.55L44.15 44.7Q45 45.25 46.45 47.1L46.9 48.05Q47.1 48.9 48.35 50.4L48.55 50.6Q49.55 51.8 49.55 51.2Q49.65 51.1 49.8 51.05Q51.45 50.15 51.2 48.75Q50.55 48.8 49.95 48.25L49.75 48.05L49.4 47.65M50.75,43.45L50.55 43.4L50.8 43.4L50.75 43.45M69.55,99.9L69.8 100.2Q72.2 104.45 70.6 106.15Q69.65 107.15 69 107.35L68.25 107.25L67.85 106.65L66 103.65L65.05 101.75Q61.55 101.35 58.85 100L58.2 100.8L56.1 103.25L55.4 104.6L54.4 105.65Q52.7 106.5 50.3 103.35L49.95 102.65L49.85 102.2L49.8 102.1L49.85 102.05L49.9 101.35L50 101.25L50.55 100.9L52.55 98.3L48.05 95.4L47.95 95.35L47.8 95.4Q44.6 96.15 41.25 94.1L39.6 93.05L38.3 92.15L37.7 91.6Q36.9 89.4 37.3 87.5Q37.5 86.35 38.6 86.05L40.1 86L40.5 86.1Q43.35 86.6 45.3 88.55L45.95 88.9Q48 89.9 49.65 89.7Q50.95 89.55 51.2 88.8L51.65 87.35Q51.8 86.7 52.85 86.85L54 87Q57.2 87 58 85.7L57 83.3L57.05 83.1L57.85 81.95Q58.35 81.35 59.05 81L59.3 80.9L61.35 80.75L62.4 82.05L63.3 83.4L64 84.6L64.3 85.15Q64.75 86 64.85 86.75Q65.05 88.5 63.25 89.45L63.05 89.6L60.7 91.1L56.55 93.5L58 94.65Q60.15 96.35 62 95.3Q63.3 94.55 64.45 93.95L65.4 93.4Q66.6 92.75 67.45 92.85L67.9 92.9Q68.35 93.05 68.85 93.55L69.75 94.85Q70.45 96.45 69.3 97L68.15 97.3L67.35 97.35L68.2 98.25L69.55 99.9M24.6,36.95Q24.75 39.4 22.4 38.5L19.9 37.45L16.2 35.65L11.75 33.55L11 33.3Q10.05 33 9.55 32.45L9.15 31.85Q8.65 30.8 7.45 27.2L7.4 27.05L9.05 27.2L9.75 27.45L11.1 27.9Q14.85 29.35 20.05 31.85L21.15 32.4L22.95 33.65L24.2 35.3Q24.6 36.05 24.6 36.95M22.7,20.45L27.5 23.25L30.4 25.1L30.95 24.8L31.1 23.75L30.85 22.8L27.8 20.7L26.05 19.55Q24.3 18.45 22.7 17.65Q22.35 18.2 22.6 20.4L22.7 20.45M11.25,29.7L11.8 31.9L22.7 37L21.9 34.4L20.65 33.95L18.55 33.1L16.55 32.3L15.65 31.85L11.25 29.7M48.45,93.45L52.1 95.95L52.2 96.05Q53.95 97.4 53.95 98.2Q53.9 99.05 54 99.1L52.7 100.45L51.75 102.05L52.3 102.35L52.45 102.45L52.7 102.95Q52.9 103.5 53.55 103.75L53.85 103.35Q55.1 101.4 56.6 100.1L57.2 99.6Q58.4 98.65 59.2 98.75Q61.45 100.15 64.8 99.7Q66.65 101.45 67.7 103.5L68.05 104.25L68.15 104.45Q68.9 106.2 69.35 105.6L69.55 105.1Q69.85 104 69.6 103.05L69.2 102.15L68.3 100.65L67.6 99.65L65.85 97.7Q65.85 97.3 66.1 97.05L66.25 97.05L66.6 96.85L66.7 96.55L68 96.25L68.9 96.2L68.1 95.15L67.55 94.55L67.3 94.5L63.75 96.1Q59.45 98.25 56.5 95.75L54.05 92.75L54.3 92.4L54.3 92.35L60.05 89.4L60.15 89.35L60.45 89.15Q62.85 87.65 62.7 86.5L62.25 85.2L60.25 82.35L59.65 83.2L59 83.6L59.25 83.85L60.2 86.2Q57.65 89.2 53.3 88.7Q53.55 90.3 51.2 91.05Q48.45 91.8 45.55 90.55L43.75 89.55Q42.05 88.35 40.15 87.95L39.1 87.8L38.85 90L39.95 90.9Q42.15 92.55 45 93.35L47.5 93.85Q47.75 93.5 48.1 93.4L48.45 93.45" />
<path style="fill:#EE9034;fill-opacity:1" d="M49,47.4L48.85 47.5L48.75 47.75L48.4 47.6L48.25 47.55L47.95 47.65Q47.8 47.75 47.8 47.95Q48 48.65 48.45 49.05Q48.9 49.45 49.7 49.5L49.75 49.4L49.6 48.6L49.8 48.5L49.85 48.4L49.75 48.05L49.95 48.25Q50.55 48.8 51.2 48.75Q51.45 50.15 49.8 51.05Q49.65 51.1 49.55 51.2Q49.55 51.8 48.55 50.6L48.35 50.4Q47.1 48.9 46.9 48.05L46.45 47.1Q45 45.25 44.15 44.7L43.85 44.55L41.7 43.6L40.4 43.4L40 43.45Q39.5 43.6 39.1 44.05L35.25 50.7L37.3 59.35Q41.8 60.55 44.3 63.5L47.2 63.8L47.3 63.8Q47.75 64.55 47.45 65.2L47.25 65.5L46.45 66.1L46 66.3L44.65 66.9Q43.75 67.9 46.6 72.35L47.05 73.8L47.6 74.65Q48.3 75.5 49.45 76.15Q50.8 75.25 51.75 75.25Q52.55 75.25 53 75.95L54.1 77.85L53.95 77.9L53.25 78.1Q51.05 78.4 49.2 79.85Q48.25 80.55 48.2 81.3L46.15 80.2Q45.35 79.8 45.55 78.1Q45.75 76.7 44.65 74.95L44.45 74.6L44.25 74.3L42.55 74.15L42 74.2Q38.6 74.3 36.45 75.9L36.45 73.6Q38.15 72.75 40.55 72.35L43.5 72.05Q43.65 66.95 40.95 64.65L39.3 63.5Q38.65 62.9 37 63.05Q35.8 63.1 30.8 64.6L26.25 66L26.05 66.1L25.25 65.15L24.25 64.05L25.25 63.75Q27 63.1 28.1 62.35L29.25 61.2L32.4 61.1L33.2 60.85L35.3 59.8L34.95 57.85L34.5 55.95Q33.75 52.9 32.7 51.05L33.35 49.85Q37.35 42.6 36.9 39.5L33.85 36.25L32.4 33.55L31.7 32.35L31.65 32.3L31.75 32.35L34.2 32.25L34.9 33.65Q36.1 35.6 38.9 38.1L39.05 38.2L42.5 41.05L44.2 42.2Q46.9 44.2 48.3 43.9L48.5 43.85L48.3 43.95Q47.95 44.15 47.8 44.5L48.4 45.95L49.4 47.65L49 47.4M46.15,43.6L43.15 42.25Q41.15 41.15 39.5 39.7Q37.85 38.2 36.5 36.3L36.3 36.35L36.05 36.65Q36.15 37.4 36.75 38Q39.3 40.55 37.55 43.4L37.65 43.5Q38.9 43.5 39.3 42.55L40 42.45L40.7 42.05Q42.15 42.9 43.65 43.35L46.25 43.7L46.15 43.6M25,20.6Q24.9 20.7 24.95 20.85L24.95 20.9L27.05 22.65Q28.1 23.2 29.35 23.4L29.35 23.35Q28.7 21.3 26.25 20.6L25.35 20.35L25.15 20.4L25.1 20.45Q25.1 19.05 23.65 18.8Q22.55 20.5 25 20.6M22.6,20.4Q22.35 18.2 22.7 17.65Q24.3 18.45 26.05 19.55L27.8 20.7L30.85 22.8L31.1 23.75L30.95 24.8L30.4 25.1L27.5 23.25L22.7 20.45L22.6 20.4M15.65,31.85L15.35 31.75L15.25 32.25Q17.2 34.4 18.95 33.45L18.95 33.4L18.55 33.1L20.65 33.95L21.9 34.4L22.7 37L11.8 31.9L11.25 29.7L15.65 31.85M33.35,33.5L33.3 33.55Q33.4 35.2 34.85 35.25L34.9 35.15Q35.05 34.1 34.35 33.55L33.75 33.2L33.55 33.25L33.35 33.5M34.25,49.3Q36.3 49.4 36.85 46.9L36.8 46.8Q36.7 46.55 36.4 46.55Q35 47.65 34.2 49.25L34.25 49.3M33.9,61.2L33.8 61.25Q31.1 61.95 29.15 63.25L28.7 63.5Q29.2 64 29.9 63.9L30.3 63.75L32.4 63L33.7 62.65L38.45 61.95L40.55 61.95L42.05 62.25Q41.25 61.2 39.6 60.7Q37.4 60.05 36.4 58.25L35.75 56.4L35.75 56.45L35.3 56.65L35.35 57.5L35.5 58L36 60L35.75 60.05L34.5 60.65L34.1 61.1L33.9 61.2M66.7,96.4L66.55 96L66.45 95.95L65.9 95.85L65.45 96.05L64.85 97.05L64.05 96.7L63.95 97.1Q62.4 96.8 61.8 97.85Q65.25 98.7 67.4 101.6L67.6 101.2Q67.15 99.6 66.1 98.45L65.65 97.7L65.75 97.5L65.9 97.05L66.1 97.05Q65.85 97.3 65.85 97.7L67.6 99.65L68.3 100.65L69.2 102.15L69.6 103.05Q69.85 104 69.55 105.1L69.35 105.6Q68.9 106.2 68.15 104.45L68.05 104.25L67.7 103.5Q66.65 101.45 64.8 99.7Q61.45 100.15 59.2 98.75Q58.4 98.65 57.2 99.6L56.6 100.1Q55.1 101.4 53.85 103.35L53.55 103.75Q52.9 103.5 52.7 102.95L52.45 102.45L52.3 102.35L51.75 102.05L52.7 100.45L54 99.1Q53.9 99.05 53.95 98.2Q53.95 97.4 52.2 96.05L52.1 95.95L48.45 93.45L50.9 93.55L51.85 93.85L52.15 93.95L55.5 97.05L55.55 96.95Q54.9 94.45 52.8 92.85L55 91.55L54.95 91.45L54.95 91.4L58.05 89.7L58.05 89.6Q57.85 89.3 57.5 89.35L57.3 89.4Q54.95 90.05 52.9 91.1L52.25 91.1L51.5 91.3Q50.95 91.5 50.8 91.95L50.7 92.35L45.4 91.2L41.9 89.85Q41.7 89.85 41.55 90Q41.4 90.1 41.4 90.3Q43.2 91.65 45.15 92.3L45.65 92.45L47.75 93.3L48.1 93.4Q47.75 93.5 47.5 93.85L45 93.35Q42.15 92.55 39.95 90.9L38.85 90L39.1 87.8L40.15 87.95Q42.05 88.35 43.75 89.55L45.55 90.55Q48.45 91.8 51.2 91.05Q53.55 90.3 53.3 88.7Q57.65 89.2 60.2 86.2L59.25 83.85L59 83.6L59.65 83.2L60.25 82.35L62.25 85.2L62.7 86.5Q62.85 87.65 60.45 89.15L60.15 89.35L60.05 89.4L54.3 92.35L54.3 92.4L54.05 92.75L56.5 95.75Q59.45 98.25 63.75 96.1L67.3 94.5L67.55 94.55L68.1 95.15L68.9 96.2L68 96.25L66.7 96.55L66.7 96.4M44.15,64.5L44.05 64.55Q43.65 64.65 43.45 65Q43.2 65.25 43.3 65.6L45.1 65.75L45.8 65.45L45.85 65.3L45.9 65.05L45.75 64.4L45.6 64.35L45.15 64.25L45 64.3L44.6 64.55L44.15 64.5M44.25,67.95L43.8 68.15Q43.8 68.9 43.95 69.65Q44.35 71.8 45.3 73Q43.95 72.5 42.4 72.5L42.4 72.55L42.05 72.65L42 72.75L41.9 73Q41.9 73.2 42.05 73.25Q44.15 74.15 45.65 73.9L45.8 74.25L46.05 74.9L47.6 78.7L47.5 79L47.45 79.45Q50.15 79.25 52.05 77.1L48.5 77.3L48.4 77.2L47.2 74.8L46.65 73.95L46.45 73.65L46.5 73.6L46.45 73.55L46.3 73.45L46.05 73.15Q45.4 70.3 44.25 67.9L44.25 67.95M59.55,98L59.55 97.95Q59 96.75 57.5 97.2Q56.6 97.4 55.85 98L55.5 98.3Q54.4 99.35 55.4 100.15L56.3 99.5L56.8 99.05L57 98.9L57.8 98.4L59.55 98M61.1,85.5Q60.25 86.15 60.8 86.95L60.95 86.95Q62.2 86.25 61.25 85.45L61.1 85.5" />
<path style="fill:#FCDE51;fill-opacity:1" d="M49.6,48.6L49.75 49.4L49.7 49.5Q48.9 49.45 48.45 49.05Q48 48.65 47.8 47.95Q47.8 47.75 47.95 47.65L48.25 47.55L48.4 47.6L48.75 47.75Q48.2 48.95 49.6 48.6M46.25,43.7L43.65 43.35Q42.15 42.9 40.7 42.05L40 42.45L39.3 42.55Q38.9 43.5 37.65 43.5L37.55 43.4Q39.3 40.55 36.75 38Q36.15 37.4 36.05 36.65L36.3 36.35L36.5 36.3Q37.85 38.2 39.5 39.7Q41.15 41.15 43.15 42.25L46.15 43.6L46.25 43.7M23.65,18.8Q25.1 19.05 25.1 20.45L25.15 20.4L25.35 20.35L26.25 20.6Q28.7 21.3 29.35 23.35L29.35 23.4Q28.1 23.2 27.05 22.65L24.95 20.9L24.95 20.85Q24.9 20.7 25 20.6Q22.55 20.5 23.65 18.8M18.95,33.4L18.95 33.45Q17.2 34.4 15.25 32.25L15.35 31.75L15.65 31.85L16.55 32.3L18.55 33.1L18.95 33.4M33.55,33.25L33.75 33.2L34.35 33.55Q35.05 34.1 34.9 35.15L34.85 35.25Q33.4 35.2 33.3 33.55L33.35 33.5L33.55 33.25M38.95,40.55Q38.8 41.9 39.9 41.65L40.3 41.5L40.3 41.4Q40.45 40.55 39.7 40.35L39.4 40.3L39.2 40.4L38.95 40.55M34.2,49.25Q35 47.65 36.4 46.55Q36.7 46.55 36.8 46.8L36.85 46.9Q36.3 49.4 34.25 49.3L34.2 49.25M34.85,61.3L34.9 61.15L34.85 61.1L34.4 60.9L34.1 61.1L34.5 60.65L35.75 60.05L36 60L35.5 58L35.35 57.5L35.3 56.65L35.75 56.45L35.75 56.4L36.4 58.25Q37.4 60.05 39.6 60.7Q41.25 61.2 42.05 62.25L40.55 61.95L38.45 61.95L33.7 62.65Q34.45 62.2 34.85 61.3M31.2,62.9L31.25 62.95L32.4 63L30.3 63.75L29.9 63.9Q29.2 64 28.7 63.5L29.15 63.25Q31.1 61.95 33.8 61.25L31.2 62.9M36,60.85L38.3 61.25L38.35 61.15Q38.6 59.7 36.75 59.9Q36.3 60.05 36 60.5L36 60.85M53.65,91.1Q52.7 91.3 51.9 91.85Q51.45 92.2 51.35 92.5L45.8 91.6L45.65 91.65L45.55 91.65Q45.3 91.8 45.3 92.1L45.45 92.35L45.65 92.45L45.15 92.3Q43.2 91.65 41.4 90.3Q41.4 90.1 41.55 90Q41.7 89.85 41.9 89.85L45.4 91.2L50.7 92.35L50.8 91.95Q50.95 91.5 51.5 91.3L52.25 91.1L52.9 91.1Q54.95 90.05 57.3 89.4L57.5 89.35Q57.85 89.3 58.05 89.6L58.05 89.7L54.95 91.4Q54.5 90.8 53.65 91.1M53.05,93.65L53.05 93.6L52.55 93Q52.65 92.9 52.8 92.85Q54.9 94.45 55.55 96.95L55.5 97.05L52.15 93.95L53.05 93.65M51.7,93.25Q51.65 93.7 51.85 93.85L50.9 93.55L51.7 93.25M64.85,97.05L65.45 96.05L65.9 95.85L66.45 95.95L66.55 96L66.7 96.4L66.7 96.55L66.6 96.85L66.25 97.05L66.1 97.05L65.9 97.05L65.75 97.5L65.65 97.7L64.85 97.05M66.15,99.2L66.2 99.1L66.1 98.45Q67.15 99.6 67.6 101.2L67.4 101.6Q65.25 98.7 61.8 97.85Q62.4 96.8 63.95 97.1Q63.65 98.6 66.15 99.2M45.1,65.75L43.3 65.6Q43.2 65.25 43.45 65Q43.65 64.65 44.05 64.55L44.15 64.5L44.6 64.55L44.4 64.75L44.05 65.15Q44.45 65.85 45.1 65.75M44.25,67.9Q45.4 70.3 46.05 73.15L46.3 73.45L46.45 73.55L46.5 73.6L46.45 73.65L46.65 73.95L47.2 74.8L48.4 77.2L48.5 77.3L52.05 77.1Q50.15 79.25 47.45 79.45L47.5 79L47.6 78.7L46.05 74.9L45.8 74.25L45.65 73.9Q44.15 74.15 42.05 73.25Q41.9 73.2 41.9 73L42 72.75L42.05 72.65L42.4 72.55L42.4 72.5Q43.95 72.5 45.3 73Q44.35 71.8 43.95 69.65Q43.8 68.9 43.8 68.15L44.25 67.95L44.25 67.9M46.45,74.05L46.4 74.9Q46.45 77.3 48.65 78.75L48.7 78.7Q48.15 76.6 47.05 74.8L46.5 74L46.45 74.05M57,98.9L56.8 99.05L56.3 99.5L55.4 100.15Q54.4 99.35 55.5 98.3L55.85 98Q56.6 97.4 57.5 97.2Q59 96.75 59.55 97.95L59.55 98L57.8 98.4L57.65 97.6Q56.7 97.75 56.2 98.35L55.9 98.8L55.95 98.85L56.7 98.9L57 98.9M61.25,85.45Q62.2 86.25 60.95 86.95L60.8 86.95Q60.25 86.15 61.1 85.5L61.25 85.45" />
<path style="fill:#FFFEB4;fill-opacity:1" d="M48.75,47.75L48.85 47.5L49 47.4L49.4 47.65L49.75 48.05L49.85 48.4L49.8 48.5L49.6 48.6Q48.2 48.95 48.75 47.75M39.2,40.4L39.4 40.3L39.7 40.35Q40.45 40.55 40.3 41.4L40.3 41.5L39.9 41.65Q38.8 41.9 38.95 40.55L39.2 40.4M33.8,61.25L33.9 61.2L34.1 61.1L34.4 60.9L34.85 61.1L34.9 61.15L34.85 61.3Q34.45 62.2 33.7 62.65L32.4 63L31.25 62.95L31.2 62.9L33.8 61.25M36,60.5Q36.3 60.05 36.75 59.9Q38.6 59.7 38.35 61.15L38.3 61.25L36 60.85L36 60.5M52.15,93.95L51.85 93.85Q51.65 93.7 51.7 93.25L50.9 93.55L48.45 93.45L48.1 93.4L47.75 93.3L45.65 92.45L45.45 92.35L45.3 92.1Q45.3 91.8 45.55 91.65L45.65 91.65L45.8 91.6L51.35 92.5Q51.45 92.2 51.9 91.85Q52.7 91.3 53.65 91.1Q54.5 90.8 54.95 91.4L54.95 91.45L55 91.55L52.8 92.85Q52.65 92.9 52.55 93L53.05 93.6L53.05 93.65L52.15 93.95M63.95,97.1L64.05 96.7L64.85 97.05L65.65 97.7L66.1 98.45L66.2 99.1L66.15 99.2Q63.65 98.6 63.95 97.1M44.05,65.15L44.4 64.75L44.6 64.55L45 64.3L45.15 64.25L45.6 64.35L45.75 64.4L45.9 65.05L45.85 65.3L45.8 65.45L45.1 65.75Q44.45 65.85 44.05 65.15M46.5,74L47.05 74.8Q48.15 76.6 48.7 78.7L48.65 78.75Q46.45 77.3 46.4 74.9L46.45 74.05L46.5 74M56.7,98.9L55.95 98.85L55.9 98.8L56.2 98.35Q56.7 97.75 57.65 97.6L57.8 98.4L57 98.9L56.7 98.9" />
</g>
</svg>
