<?xml version="1.0" encoding="utf-8"?>
<svg version="1.1" id="Layer_1"
xmlns="http://www.w3.org/2000/svg"
xmlns:xlink="http://www.w3.org/1999/xlink"
xmlns:author="http://www.sothink.com"
width="165px" height="162px"
xml:space="preserve">
<g id="3085" transform="matrix(1, 0, 0, 1, 0, 0)">
<path style="fill:#E2E2E2;fill-opacity:1" d="M149.05,55.7Q137.05 75.55 133.55 68.95Q139.25 91.95 122.5 101.8Q114.05 105.3 104.6 106.05Q87.9 134.7 67.2 129.8Q47 122.75 45.35 105.2Q35.8 119.95 13.35 115.7L6 114.1Q1.25 106.95 0.25 98.05Q-1.3 84.3 6.5 72.05Q11.1 65.55 19.15 62.8Q17.8 39.75 31.75 21.7Q47.35 3.35 70.8 0.55Q94.9 -2.55 112.9 11.1Q118.55 15.3 122.05 20Q127.35 19 132.35 20.6Q141.45 21.6 148.9 26.15L150.3 27.15Q156.85 42.55 149.05 55.7" />
<path style="fill:#B6B6B6;fill-opacity:1" d="M150.3,27.15Q162.95 34.8 164.1 49.4Q165.85 62.75 154.45 74.4L153.9 75.6L154.75 77.8L156.1 84.9Q157.65 99.65 147.85 111.05Q137.85 122.75 123.85 124.9Q121.55 135.65 113.05 144.3Q100.55 158.3 81.05 160.9Q61.3 162.95 46.8 153.1Q38.55 147.3 34.35 139.05Q31.25 134.45 30.5 128.05Q20 127.85 11.3 120Q8.65 117.55 6 114.1L13.35 115.7Q35.8 119.95 45.35 105.2Q47 122.75 67.2 129.8Q87.9 134.7 104.6 106.05Q114.05 105.3 122.5 101.8Q139.25 91.95 133.55 68.95Q137.05 75.55 149.05 55.7Q156.85 42.55 150.3 27.15" />
</g>
</svg>
