<?xml version="1.0" encoding="utf-8"?>
<svg version="1.1" id="Layer_1"
xmlns="http://www.w3.org/2000/svg"
xmlns:xlink="http://www.w3.org/1999/xlink"
xmlns:author="http://www.sothink.com"
width="42px" height="41px"
xml:space="preserve">
<g id="543" transform="matrix(1, 0, 0, 1, 0, 0)">
<path style="fill:#074174;fill-opacity:1" d="M16.35,29.1Q17.7 27.15 19.5 26.5L23.8 26.25Q25 26.45 26.05 27.15Q27.15 27.9 27.55 28.9L27.7 29.4L27.75 29.85Q27.9 31.4 26.65 32.6L26.3 32.9L25.8 33.25L24.2 33.9Q24 34.75 23.2 35.9Q22.4 37.15 20.95 37.4L18.5 37.15Q17.45 36.65 16.95 34.75Q16.7 33.8 17.1 32.7L17.15 32.8L17.3 32.45L17.7 33.1Q18.25 33.5 19.4 33.8L23.45 33.55L23.95 33.35L24.3 33.25L25.7 32.55L26.3 32.1L26.95 31.25L27.2 30.05L27.2 29.6L27.15 29.5L27.1 29.3Q26.8 28.5 25.5 27.6Q23.8 26.45 21.7 26.65Q20.1 26.8 18.95 27.45Q17.15 28.45 16.35 30.7L16.35 30.75L16.2 30.25L16.15 30.05Q16.1 29.45 16.35 29.1M20.05,36.7Q21.65 36.75 22.35 35.8L23.3 34.1L22.5 34.25Q19.7 34.8 18.15 33.95L17.65 33.65Q17.5 34.7 17.95 35.6Q18.5 36.65 20.05 36.7" />
<path style="fill:#1D5BA1;fill-opacity:1" d="M27.15,29.5L27.2 29.6L27.2 30.05L26.95 31.25L26.3 32.1L25.7 32.55L24.3 33.25L23.95 33.35L23.45 33.55L19.4 33.8Q18.25 33.5 17.7 33.1L17.3 32.45L17.15 32.8L17.1 32.7L17.05 32.65Q16.1 31.8 16.15 30.5L16.15 30.05L16.2 30.25L16.35 30.75L16.35 30.7Q17.15 28.45 18.95 27.45L18.4 28.95Q18.3 29.5 18.7 30.4L18.95 30.8L18.95 30.85L19.75 31.55Q18.55 32.8 20.3 32.4Q20.6 32.3 20.45 31.95L20.35 31.8L20.45 31.8L21.75 32Q21.5 31.5 22.7 31.1Q23.5 31.35 23.35 31.9L23.7 31.8L24.45 31.55L24.55 31.5L26.15 30.7L27.1 29.6L27.15 29.5M29.7,29.05L30.2 29.3L30.3 29.4L30.2 29.35L30.65 29.8Q31.3 30.3 31.1 31.25L30.95 32.2L30.05 33.95Q29.5 34.7 28.2 34.65Q27 34.6 26.55 33.8L26.3 32.9L26.65 32.6Q27.9 31.4 27.75 29.85L27.7 29.4Q28.65 28.7 29.7 29.05M17.9,31L17.55 30.8Q16.85 31.5 17.5 31.7L17.55 31.7Q18.35 31.85 18.15 31.4L17.9 31M17.95,35.6Q17.5 34.7 17.65 33.65L18.15 33.95Q19.7 34.8 22.5 34.25L23.3 34.1L22.35 35.8Q21.65 36.75 20.05 36.7Q18.5 36.65 17.95 35.6M21.4,30.3Q21.5 30.65 21.2 30.65Q19.15 30.6 20.85 29.8L21.4 30.3" />
<path style="fill:#3680D2;fill-opacity:1" d="M27.1,29.6L26.15 30.7L24.55 31.5L24.45 31.55L23.7 31.8L23.35 31.9Q23.5 31.35 22.7 31.1Q21.5 31.5 21.75 32L20.45 31.8L20.35 31.8L20.45 31.95Q20.6 32.3 20.3 32.4Q18.55 32.8 19.75 31.55L18.95 30.85L18.95 30.8L18.7 30.4Q18.3 29.5 18.4 28.95L18.95 27.45Q20.1 26.8 21.7 26.65Q23.8 26.45 25.5 27.6Q26.8 28.5 27.1 29.3L27.15 29.5L27.1 29.6M18.15,31.4Q18.35 31.85 17.55 31.7L17.5 31.7Q16.85 31.5 17.55 30.8L17.9 31L18.15 31.4M23.2,27.7L22.9 27.5Q20.7 27.15 21.5 28.3L22 28.55Q24.3 28.85 23.2 27.7M25.1,29.25L25.45 28.9Q25.55 28.2 24.85 28.1Q23.4 29.15 25.1 29.25M20.85,29.8Q19.15 30.6 21.2 30.65Q21.5 30.65 21.4 30.3L20.85 29.8" />
<path style="fill:#063762;fill-opacity:1" d="M25.8,33.25L26.3 32.9L26.55 33.8Q27 34.6 28.2 34.65Q29.5 34.7 30.05 33.95L30.95 32.2L31.1 31.25Q31.3 30.3 30.65 29.8L30.2 29.35L30.3 29.4L30.2 29.3L30.25 29.3L30.6 29.2Q32.1 29.7 31.65 31.6L31.55 32.25L31.55 32.3L30.75 34Q30.1 35 28.95 35.2L26.95 35Q26.2 34.6 25.8 33.25" />
<path style="fill:#71BDF3;fill-opacity:1" d="M22,28.55L21.5 28.3Q20.7 27.15 22.9 27.5L23.2 27.7Q24.3 28.85 22 28.55M24.85,28.1Q25.55 28.2 25.45 28.9L25.1 29.25Q23.4 29.15 24.85 28.1" />
<path style="fill:#063762;fill-opacity:1" d="M20.65,15.2L18.55 13.2L18.45 13.1Q17.5 12.1 16.35 10.2Q15.2 8.25 15.15 5.8Q12.9 6.15 10.4 8.9Q8.8 10.75 9.1 13.35Q9.25 14.7 9.9 16.25Q10.2 14.9 12.1 14.75L13.45 15.15Q14.2 15.5 14.5 16.4L15.6 16.5L15.65 16.5L17.3 16.95Q18.45 17.35 18.9 18.15L18.85 18.2L18.95 18.35Q18.9 18.3 18.6 18.2L17.9 17.85Q17.25 17.55 16.85 17.4L14.2 17.05Q13.5 15.9 12.6 15.65Q11.65 15.35 11 15.9L10.4 16.8Q10.3 18 9.8 17.7Q9.25 17.15 8.7 15.5Q8.15 13.8 8.5 11.2Q8.9 8.6 10.95 7.1Q13 5.55 14.2 5.3L15.65 5.05Q15.85 5.1 15.85 5.45L16.15 7.5Q16.45 9.25 19.2 12.8L20.7 14.95L20.75 14.95L20.95 15.4L20.95 15.45L20.65 15.2" />
<path style="fill:#1D5BA1;fill-opacity:1" d="M10.15,10.85Q11.4 9.1 13.1 9.05L14.2 10.75L15.25 11.7Q16.85 12.75 18.55 13.2L20.65 15.2L20.95 15.45Q21.05 17.95 18.85 18.2L18.9 18.15Q18.45 17.35 17.3 16.95L15.65 16.5L15.6 16.5L14.5 16.4Q14.2 15.5 13.45 15.15L12.1 14.75Q10.2 14.9 9.9 16.25Q9.25 14.7 9.1 13.35Q9.4 11.95 10.15 10.85" />
<path style="fill:#3680D2;fill-opacity:1" d="M9.1,13.35Q8.8 10.75 10.4 8.9Q12.9 6.15 15.15 5.8Q15.2 8.25 16.35 10.2Q17.5 12.1 18.45 13.1L18.55 13.2Q16.85 12.75 15.25 11.7L14.2 10.75L13.1 9.05Q11.4 9.1 10.15 10.85Q9.4 11.95 9.1 13.35" />
<path style="fill:#3680D2;fill-opacity:1" d="M26.65,20.75L26.95 20.55L27 20.5Q27.8 20 28.25 19.95L28.25 19.85Q29.05 20 29.55 20.75L29.3 20.6L29.6 22.2L29.65 24.35Q29.5 25.5 29.15 26.1L28.9 26.7L28.75 26.95L28.95 23.85Q28.85 21.9 27.9 21.2Q27.05 20.55 26.65 20.75" />
<path style="fill:#063762;fill-opacity:1" d="M30.1,22.1Q30.3 23.3 29.95 24.95Q29.7 26.55 29.1 27.4Q28.5 28.25 27.4 28.6Q26.3 28.85 25.7 27.2Q25.1 25.5 25.05 23.65Q24.95 21.8 25.85 20.85L26.2 20.5Q26.85 19.9 27.45 19.85L28.25 19.85L28.25 19.95Q27.8 20 27 20.5L26.95 20.55L26.65 20.75Q26.05 21.3 25.7 22.25Q25.3 23.45 25.85 25.95Q26.35 28.35 27.3 28.05Q28.15 27.8 28.75 26.95L28.9 26.7L29.15 26.1Q29.5 25.5 29.65 24.35L29.6 22.2L29.3 20.6L29.55 20.75L30.1 22.1" />
<path style="fill:#1D5BA1;fill-opacity:1" d="M27.9,21.2Q28.85 21.9 28.95 23.85L28.75 26.95Q28.15 27.8 27.3 28.05Q26.35 28.35 25.85 25.95Q25.3 23.45 25.7 22.25Q26.05 21.3 26.65 20.75Q27.05 20.55 27.9 21.2" />
<path style="fill:#063762;fill-opacity:1" d="M26,31.25Q26.1 31.9 27.7 32.35L31.35 32L33.2 31L33.75 30.25L33.9 28.85L33.85 28.7Q33.65 28.05 32.6 27.35L31.8 26.9L29.55 26.6L28.05 26.9L27.35 27.25Q26.55 27.65 26 28.45Q25.55 29.05 25.25 29.85L25.25 29.9L25.1 29.5L25.05 29.3L25.05 29.1L25.25 28.55Q25.95 27.5 26.9 26.9L27.75 26.45L31.25 26.25Q32.15 26.4 32.9 26.9L33.05 27Q33.9 27.6 34.25 28.4L34.45 29.15Q34.55 30.4 33.55 31.35Q32.5 32.3 30.2 32.7L26.7 32.45Q25.8 31.95 25.9 31.5L26 31.25" />
<path style="fill:#3680D2;fill-opacity:1" d="M31.25,28.5Q29.75 27.55 28.35 27.7Q27 27.85 26 28.45Q26.55 27.65 27.35 27.25L28.05 26.9L29.55 26.6L31.8 26.9L32.6 27.35Q33.65 28.05 33.85 28.7L33.9 28.85L33.75 30.25L33.2 31Q32.8 29.4 31.25 28.5" />
<path style="fill:#1D5BA1;fill-opacity:1" d="M33.2,31L31.35 32L27.7 32.35Q26.1 31.9 26 31.25L25.9 31.5L25.8 31.45Q25.05 30.7 25.05 29.7L25.05 29.3L25.1 29.5L25.25 29.9L25.25 29.85Q25.55 29.05 26 28.45Q27 27.85 28.35 27.7Q29.75 27.55 31.25 28.5Q32.8 29.4 33.2 31" />
<path style="fill:#29374D;fill-opacity:1" d="M36.8,31.1L36.5 31L36.3 30.15L36.95 30.4L38.95 30.2L39.8 29.8L39.85 29.8L39.75 29.75Q39.3 29.05 38.5 28.6Q37.85 28.2 37.05 28.15L36.9 28.1L36.75 28.15L36.75 28L37.2 27.5L37.45 27.5L37.55 27.5Q38.25 27.55 38.75 27.9L40.2 29.2L40.45 29.7Q40.5 30.15 39.9 30.5L38.15 31L38.2 31.05L39.15 32.05L39.6 32.9Q39.7 33.15 39.4 33.45Q39.1 33.8 38.15 33.95L36.3 33.9L34.95 33.2L34.95 33.15L35.25 32.8L35.3 32.65L35.3 32.6L35.5 32.8L35.85 33.1L36.5 33.35L37.75 33.4L38.55 33.2L38.9 33L38.85 32.95L38.85 32.85Q38.2 31.65 36.95 31.15L36.8 31.1" />
<path style="fill:#063762;fill-opacity:1" d="M36.75,28L36.75 28.15L36.45 28.7Q36.3 29.15 36.3 29.55L36.3 30.15L36.5 31L35.9 31.2L35.55 31.6L35.35 32.05L35.3 32.6L35.3 32.65L35.25 32.8L34.95 33.15Q30.25 34.8 26.75 31.35Q25.95 30.25 25.4 30.05L24.7 29.7L24.35 29.4L24.05 28.75Q23.85 28.2 23.95 27.35Q24.1 26.5 24.65 25.95L24.9 25.8L25.15 25.6L25.4 25.7L25.5 25.75L25.3 26.1L25.1 26.25L24.7 26.65Q24.5 26.85 24.45 27.85Q24.4 28.8 25.05 29.2L26.05 29.8L27.25 31.05Q28.4 32.45 30.35 32.9L33.55 33L34.8 32.55L34.95 31.95L34.95 31.9L35.05 31.7L35.1 31.4L35.15 31.3L35.6 30.85L35.7 30.75L35.85 30.65L35.8 29.75L35.8 29.1L36.1 28.25L36.1 28.2L36.6 27.5L36.5 27.3Q35.95 26.3 34 25.75L30.15 25.95L28.15 26.95L28.15 26.9L28.65 26.35Q30.35 24.9 32.15 24.85Q34.3 24.8 35.5 25.6L36.95 26.9L37.2 27.35L37.25 27.4L37.2 27.5L36.75 28" />
<path style="fill:#3680D2;fill-opacity:1" d="M26.2,25.6L26.6 25.7L27.6 26.2L28.1 26.35L28.65 26.35L28.15 26.9L28.15 26.95L30.15 25.95L34 25.75Q35.95 26.3 36.5 27.3L36.6 27.5L36.1 28.2Q35.3 27.35 33.9 27.05L30.5 26.7Q28.95 26.75 27.5 27.45L26.1 26.95L25.1 26.25L25.3 26.1L25.5 25.75L25.4 25.7L26.2 25.6" />
<path style="fill:#717463;fill-opacity:1" d="M38.85,32.95L38.9 33L38.55 33.2L37.75 33.4L36.5 33.35L35.85 33.1L35.5 32.8L35.3 32.6L35.35 32.05L35.55 31.6L35.9 31.2L36.5 31L36.8 31.1L36.95 31.15L36.8 31.2L36.3 31.65L36.25 31.75L36.75 32.2Q37.7 32.95 38.85 32.95M36.3,30.15L36.3 29.55Q36.3 29.15 36.45 28.7L36.75 28.15L36.9 28.1L37.05 28.15L37 28.25L36.85 28.95L37.25 29.2L39.25 29.75L39.75 29.75L39.85 29.8L39.8 29.8L38.95 30.2L36.95 30.4L36.3 30.15" />
<path style="fill:#ACB0A2;fill-opacity:1" d="M39.75,29.75L39.25 29.75L37.25 29.2L36.85 28.95L37 28.25L37.05 28.15Q37.85 28.2 38.5 28.6Q39.3 29.05 39.75 29.75M36.75,32.2L36.25 31.75L36.3 31.65L36.8 31.2L36.95 31.15Q38.2 31.65 38.85 32.85L38.85 32.95Q37.7 32.95 36.75 32.2" />
<path style="fill:#1D5BA1;fill-opacity:1" d="M36.1,28.2L36.1 28.25L35.8 29.1L35.8 29.75L35.85 30.65L35.7 30.75L35.6 30.85L35.15 31.3L35.1 31.4L35.05 31.7L34.95 31.9L34.95 31.95L34.8 32.55L33.55 33L30.35 32.9Q28.4 32.45 27.25 31.05L26.05 29.8L25.05 29.2Q24.4 28.8 24.45 27.85Q24.5 26.85 24.7 26.65L25.1 26.25L26.1 26.95L27.5 27.45Q28.95 26.75 30.5 26.7L33.9 27.05Q35.3 27.35 36.1 28.2" />
<path style="fill:#063762;fill-opacity:1" d="M31.75,38.9L31.6 39.2L31.5 39.3L31.45 39.4L31.2 39.55L30.65 39.8L29.55 39.8Q28.85 39.7 28.25 39.25Q27.65 38.8 27.05 39.1L25.95 39.35Q25.45 39.3 25.1 38.4Q24.8 37.5 25.05 36.4Q25.35 35.3 26.05 35L26.55 34.9L26.6 34.9Q26.8 34.9 26.65 35.05L26.2 35.5Q25.85 35.95 25.6 36.75Q25.3 37.5 25.6 38.2Q25.9 38.9 26.5 38.7L27.45 38.4Q27.85 38.35 28.6 38.9Q29.35 39.45 30.05 39.4Q30.75 39.3 31.05 38.9Q31.35 38.5 31.25 37.9Q31.15 37.4 31.45 36.85L31.5 36.7Q31.85 36.15 32.4 35.9L32.5 35.85L32.6 35.85L33.55 35.7L33.75 35.9L33.6 36L33.45 36.05L33.15 36.15L32.9 36.3L32.85 36.3Q31.85 36.9 31.8 38.1L31.8 38.35L31.8 38.85L31.75 38.9M28.4,35.75L27.5 36.85L27.45 36.95L27.4 37L27.3 37.05L27.3 36.85L27.35 36.75L27.4 36.65L27.75 35.95L28.2 35.4L28.6 34.95L29.5 34.3Q30.95 33.45 32.1 33.5L33.65 33.7L34.25 34.05L35.1 33.85Q35.5 33.85 35.8 34.15Q36.05 34.4 35.95 34.9L35.9 34.95L35.85 35L35.7 35.15L35.6 35.25L35.5 35.35L34.95 36.45L34.6 36.15L34.5 36.15L34.7 35.4L34.85 35.2L35.2 34.65L35.1 34.5L34.85 34.4Q34.45 34.35 34.3 34.65L34 35.2L34 35.25L33.85 35.25L33.85 35.2L33.9 34.4L33.25 34.25L30.6 34.35Q29.6 34.6 28.85 35.3L28.4 35.75" />
<path style="fill:#1D5BA1;fill-opacity:1" d="M28.6,34.95L28.2 35.4L27.75 35.95L27.4 36.65L27.35 36.75L27.3 36.85L27.3 37.05L27.4 37L27.45 36.95L27.5 36.85L28.4 35.75L28.85 35.3L29.85 35.25L32.5 35.85L32.4 35.9Q31.85 36.15 31.5 36.7L31.45 36.85Q31.15 37.4 31.25 37.9Q31.35 38.5 31.05 38.9Q30.75 39.3 30.05 39.4Q29.35 39.45 28.6 38.9Q27.85 38.35 27.45 38.4L26.5 38.7Q25.9 38.9 25.6 38.2Q25.3 37.5 25.6 36.75Q25.85 35.95 26.2 35.5L26.65 35.05Q26.8 34.9 26.6 34.9L26.55 34.9L27.05 34.75L28.6 34.95" />
<path style="fill:#3680D2;fill-opacity:1" d="M33.75,35.9L33.55 35.7L32.6 35.85L32.5 35.85L29.85 35.25L28.85 35.3Q29.6 34.6 30.6 34.35L33.25 34.25L33.9 34.4L33.85 35.2L33.85 35.25L34 35.25L34 35.2L34.3 34.65Q34.45 34.35 34.85 34.4L35.1 34.5L35.2 34.65L34.85 35.2L34.7 35.4L34.5 36.15L34.2 36L33.9 35.9L33.75 35.9" />
<path style="fill:#717463;fill-opacity:1" d="M33.35,36.3Q33 36.7 32.95 37.25Q32.9 37.9 33.2 38.4L34.1 38.7L34.9 38.75L35.3 38.7L35.55 38.65L35.6 39.1Q33.55 40.15 31.8 38.85L31.8 38.35L31.8 38.1Q31.85 36.9 32.85 36.3L32.9 36.3L33.35 36.3M34.95,36.45L35.5 35.35L35.9 35.4L36.15 35.5L36 35.7Q35.75 36.1 35.9 36.6L36.8 36.95L37.8 37L38.05 36.95L38.1 37.05L38.25 37.35Q37.3 38.05 35.9 37.55Q35.6 36.85 34.95 36.45" />
<path style="fill:#29374D;fill-opacity:1" d="M35.9,37.55Q37.3 38.05 38.25 37.35L38.1 37.05L38.05 36.95Q37.45 35.85 36.15 35.5L35.9 35.4L35.5 35.35L35.6 35.25L35.7 35.15L35.85 35L35.9 34.95L35.95 34.9L36.7 35.05L37.1 35.25Q38.1 35.8 38.75 37.05Q39.15 37.8 38.1 38.15Q37.1 38.5 36.1 38.15L36.2 38.6L36.25 39.05L36.05 39.5L35 39.95L33.15 40Q32.05 39.9 31.5 39.3L31.6 39.2L31.75 38.9L31.8 38.85Q33.55 40.15 35.6 39.1L35.55 38.65Q35.45 37.75 34.85 37.1Q34.15 36.35 33.5 36.3L33.45 36.3L33.35 36.3L32.9 36.3L33.15 36.15L33.45 36.05L33.6 36L33.75 35.9L33.9 35.9L34.2 36L34.5 36.15L34.6 36.15L34.95 36.45Q35.6 36.85 35.9 37.55" />
<path style="fill:#ACB0A2;fill-opacity:1" d="M35.55,38.65L35.3 38.7L34.9 38.75L34.1 38.7L33.2 38.4Q32.9 37.9 32.95 37.25Q33 36.7 33.35 36.3L33.45 36.3L33.5 36.3Q34.15 36.35 34.85 37.1Q35.45 37.75 35.55 38.65M38.05,36.95L37.8 37L36.8 36.95L35.9 36.6Q35.75 36.1 36 35.7L36.15 35.5Q37.45 35.85 38.05 36.95" />
<path style="fill:#725323;fill-opacity:1" d="M12.05,24.15L12.05 24.05L12.1 24.15L12.05 24.15" />
<path style="fill:#074174;fill-opacity:1" d="M12.9,27.45L12.2 26.7L12 26.3L11.9 26.1L11.8 25.55L11.65 24.95Q11.55 24.1 11.95 24.1L12.05 24.15L12.1 24.15Q13.5 24.85 14.05 26Q14.75 27.25 14.55 27.85L14.4 28.05L14.2 27.7L13.95 27.05L13.3 25.75L12.4 24.95L12.1 24.8L12.4 25.9L12.45 26.15L12.6 26.45Q12.95 27.05 13.65 27.5L14.15 27.9L14.05 28.05L12.9 27.45M8.7,29.25L8.65 29.1L8.45 28.45Q8.35 27.55 8.5 27.35L9.25 27.45L9.75 27.7L9.85 27.75L10.35 28.2L10.65 28.6L10.8 28.8L11.1 29.3L11.35 29.85L11.45 30L11.65 31.2L11.65 31.25L11.5 31.9L11.5 31.65L11.25 31.6L10.45 31.25L10.2 31.1L9.7 30.6L9.4 30.35L9.2 30.05L9 29.8L8.7 29.25M4.7,32.3L4.7 32.2L4.6 32Q4.3 31.2 4.5 30.65Q4.85 30.45 5.6 30.9L6.25 31.25L6.35 31.35L6.55 31.5L7.05 32.05L7.55 32.8L7.95 33.65L7.95 33.7Q7.9 34.3 7.5 33.75L7.35 33.4L6.9 32.75L6.75 32.55L6.25 32L5.9 31.75L5.45 31.45L5 31.15L4.95 31.25L5.1 31.9L5.3 32.3L5.4 32.45L5.8 33.05L6.7 33.75L7.2 33.95L7.35 34.05L6.9 34.1Q5.85 34.15 5.1 33L4.7 32.3M9.95,30.15L11.35 31.2L10.85 29.95L10.8 29.8L10.5 29.3L10.35 29.1L10.25 28.9L10.15 28.8L9.8 28.4L9.2 27.95L8.95 27.95Q8.95 28.55 9.3 29.15L9.7 29.8L9.95 30.15" />
<path style="fill:#1D5BA1;fill-opacity:1" d="M13.65,27.5Q12.95 27.05 12.6 26.45L13.55 26.55L13.3 25.75L13.95 27.05L14.2 27.7L14.15 27.9L13.65 27.5M6.75,32.55L6.9 32.75L7.35 33.4L7.5 33.75L7.2 33.95L6.7 33.75L5.8 33.05L5.4 32.45Q6 33.1 6.85 32.85L6.75 32.55M10.35,29.1L10.5 29.3L10.8 29.8L10.85 29.95L11.35 31.2L9.95 30.15L9.7 29.8L10.45 29.85L10.35 29.1" />
<path style="fill:#3680D2;fill-opacity:1" d="M13.1,25.7Q13.05 25.35 12.8 25.3Q12.05 26 13.05 25.9L13.1 25.7M13.3,25.75L13.55 26.55L12.6 26.45L12.45 26.15L12.4 25.9L12.1 24.8L12.4 24.95L13.3 25.75M10.45,29.85L9.7 29.8L9.3 29.15Q8.95 28.55 8.95 27.95L9.2 27.95L9.8 28.4L10.15 28.8L10.25 28.9L10.35 29.1L10.45 29.85M9.85,28.65L9.5 28.35Q8.9 29.3 9.85 28.9L9.85 28.65M6.85,32.85Q6 33.1 5.4 32.45L5.3 32.3L5.1 31.9L4.95 31.25L5 31.15L5.45 31.45L5.9 31.75L6.25 32L6.75 32.55L6.85 32.85M6.2,32.3L6.2 32.15L5.75 31.8Q5.2 32.6 6.2 32.3" />
<path style="fill:#71BDF3;fill-opacity:1" d="M13.05,25.9Q12.05 26 12.8 25.3Q13.05 25.35 13.1 25.7L13.05 25.9M9.85,28.9Q8.9 29.3 9.5 28.35L9.85 28.65L9.85 28.9M5.75,31.8L6.2 32.15L6.2 32.3Q5.2 32.6 5.75 31.8" />
<path style="fill:#235572;fill-opacity:1" d="M4.95,33.4L4.3 34.4L3.65 34.9L3.55 34.95Q2.1 35.7 1.55 35.65L1.25 35.6L2.4 35.1L3.35 34.5L3.6 34.3Q4.35 33.55 4.7 32.4L4.7 32.3L5.1 33L4.95 33.4M6.55,31.5L6.35 31.35L6.25 31.25L5.6 30.9L7.2 30.85L8.45 29.85L8.7 29.35L8.7 29.25L9 29.8L8.9 30.05L8.9 30.1Q8.35 31.1 7.45 31.35L6.65 31.5L6.55 31.5M9.75,27.7L11.05 27.25L11.5 26.85L11.7 26.55L11.9 26.1L12 26.3L12.2 26.7L11.95 27.15L11.6 27.55L11.35 27.7Q10.85 28.15 10.35 28.2L9.85 27.75L9.75 27.7" />
<path style="fill:#6099BB;fill-opacity:1" d="M14.05,28.05L13.85 28.65Q13.1 30.2 11.65 31.2L11.45 30L11.35 29.85L12.25 29.45L13 28.3Q12.4 28.1 11.95 27.15L12.2 26.7L12.9 27.45L14.05 28.05M9.3,30.7L8.9 30.05L9 29.8L9.2 30.05L9.4 30.35L9.7 30.6L10.2 31.1L10.45 31.25L11.25 31.6L10.25 32.5Q8.75 33.6 7.95 33.7L7.95 33.65L7.55 32.8Q9.2 32.75 9.95 31.55L9.5 31.05L9.3 30.7M5.1,33Q5.85 34.15 6.9 34.1L5.85 34.45L4.55 34.75L3.65 34.9L4.3 34.4L4.5 34.45L5.2 33.9L5.1 33.75L4.95 33.4L5.1 33" />
<path style="fill:#80B5CD;fill-opacity:1" d="M11.1,29.3L11.8 29.1L12.4 28.55L11.9 28.2L11.8 27.95L11.6 27.55L11.95 27.15Q12.4 28.1 13 28.3L12.25 29.45L11.35 29.85L11.1 29.3M4.95,33.4L5.1 33.75L5.2 33.9L4.5 34.45L4.3 34.4L4.95 33.4M7.05,32.05L8.7 31.9L9.5 31.05L9.95 31.55Q9.2 32.75 7.55 32.8L7.05 32.05" />
<path style="fill:#ECFFFE;fill-opacity:1" d="M10.8,28.8L10.65 28.6L10.35 28.2Q10.85 28.15 11.35 27.7L11.6 27.55L11.8 27.95L11.9 28.2Q11.45 28.7 10.8 28.8M6.7,31.55L6.65 31.5L7.45 31.35Q8.35 31.1 8.9 30.1L8.9 30.05L9.3 30.7Q8.3 31.8 6.7 31.55" />
<path style="fill:#AACAD0;fill-opacity:1" d="M11.9,28.2L12.4 28.55L11.8 29.1L11.1 29.3L10.8 28.8Q11.45 28.7 11.9 28.2M6.55,31.5L6.65 31.5L6.7 31.55Q8.3 31.8 9.3 30.7L9.5 31.05L8.7 31.9L7.05 32.05L6.55 31.5" />
<path style="fill:#074174;fill-opacity:1" d="M12.8,30.6L9.65 33.2Q7.75 34.55 3.05 35.6L1.2 35.95Q0.75 36.1 1.8 36.75Q2.95 37.35 4.05 37.75L6.7 38.15L8.15 38.1L10 37.8L13.25 36.8L13.7 36.6Q15.6 35.8 17.5 33.6L17.7 33.65L17.85 33.8Q16.15 36.85 12.05 38L8.65 38.75L5.7 38.75L3.1 38.05L0.8 36.85Q-0.3 36.05 0.1 35.65Q0.5 35.25 2.15 34.95L2.2 34.95L6.7 33.7Q9.55 32.7 11.5 30.8L12.5 29.7Q13.85 28.2 14.8 26.55Q15.6 26.15 15.3 26.85L15.25 26.9L14.25 28.6L13.6 29.6L12.8 30.6" />
<path style="fill:#165398;fill-opacity:1" d="M18.4,31.65Q18.3 32.8 17.7 33.65L17.5 33.6Q15.6 35.8 13.7 36.6L13.25 36.8L14.15 36.15Q15.5 35.05 16.1 33.75L16.5 32.45L16.55 32.15L16.5 32.2Q16.35 31.35 15.5 30.45Q14.45 30.75 15.1 30.15Q14.5 29.65 13.7 29.6L13.6 29.6L14.25 28.6L15.25 26.9L15.3 26.85Q18.7 28.95 18.4 31.65" />
<path style="fill:#3680D2;fill-opacity:1" d="M3.05,35.6Q7.75 34.55 9.65 33.2L12.8 30.6L13.6 29.6L13.7 29.6Q14.5 29.65 15.1 30.15Q14.45 30.75 15.5 30.45Q16.35 31.35 16.5 32.2Q15.55 33.6 13.95 34.8Q14.2 35.05 13.85 35.45L13.45 35.55L13.1 35.35Q11.95 36 10.4 36.35L10.4 36.4L10.15 36.7L9.45 36.55L8.4 36.7L8.4 36.6L8 36.3L7.55 36.8L6.1 36.85L6.15 36.95L6.15 37Q5.25 37.15 5.4 36.8Q4.15 36.55 3.05 35.6M14.05,31.95L13.8 31.8Q12.7 32.75 13.95 32.45Q14.25 32.35 14.05 31.95M13,31.05Q9.9 34.55 5.3 35.55L5.35 35.6Q8.3 35.6 10.85 33.9Q12.55 32.75 13.1 31.15L13 31.05M11.9,34.5L11.75 34.45Q10.6 35.25 12.2 34.9Q12.25 34.55 11.9 34.5M4.7,37L4.65 37.25Q3.5 37.55 4.4 36.75Q4.65 36.8 4.7 37M5.25,35.95Q5.2 35.75 4.9 35.7Q4.25 36.55 5.25 36.25L5.25 35.95M8.7,37.25L8.75 37.35L8.65 37.55Q7.45 37.6 8.5 37.15L8.7 37.25" />
<path style="fill:#1D5BA1;fill-opacity:1" d="M16.5,32.45L16.1 33.75Q15.5 35.05 14.15 36.15L13.25 36.8L10 37.8L8.15 38.1L6.7 38.15L4.05 37.75Q2.95 37.35 1.8 36.75Q0.75 36.1 1.2 35.95L3.05 35.6Q4.15 36.55 5.4 36.8Q5.25 37.15 6.15 37L6.15 36.95L6.1 36.85L7.55 36.8L8 36.3L8.4 36.6L8.4 36.7L9.45 36.55L10.15 36.7L10.4 36.4L10.4 36.35Q11.95 36 13.1 35.35L13.45 35.55L13.85 35.45Q14.2 35.05 13.95 34.8Q15.55 33.6 16.5 32.2L16.5 32.45M13.95,32.45Q12.7 32.75 13.8 31.8L14.05 31.95Q14.25 32.35 13.95 32.45M12.2,34.9Q10.6 35.25 11.75 34.45L11.9 34.5Q12.25 34.55 12.2 34.9M4.4,36.75Q3.5 37.55 4.65 37.25L4.7 37Q4.65 36.8 4.4 36.75M5.25,36.25Q4.25 36.55 4.9 35.7Q5.2 35.75 5.25 35.95L5.25 36.25M8.5,37.15Q7.45 37.6 8.65 37.55L8.75 37.35L8.7 37.25L8.5 37.15" />
<path style="fill:#71BDF3;fill-opacity:1" d="M13.1,31.15Q12.55 32.75 10.85 33.9Q8.3 35.6 5.35 35.6L5.3 35.55Q9.9 34.55 13 31.05L13.1 31.15" />
<path style="fill:#BB482E;fill-opacity:1" d="M16.5,32.2L16.55 32.15L16.5 32.45L16.5 32.2" />
<path style="fill:#00315D;fill-opacity:1" d="M22.55,32.05Q22.1 31 22 29.1L22 29.05Q21.95 27.2 22.9 25.05L23.15 24.4Q24.05 22.7 25.4 22.05L27.15 21Q27.25 19.95 26.05 18.9Q24.85 17.95 23.55 17.6L20.55 17.8Q19.1 18.2 17.65 19.4L17.15 19.8Q15.6 21.3 14.8 23.15L14.7 23.4Q14 25.4 14.1 27.85L14.1 28Q14.35 30.35 15.85 32.55Q17.45 35 20 35.35Q22.55 35.85 26.2 34.7Q24.6 34.4 23.8 33.8L22.8 32.45L22.55 32.05M27.45,21.6L27.2 21.75L27.2 21.8L25.95 22.4L24.15 23.9L23.7 24.5Q23.3 25.25 23 26.4Q22.55 28.25 22.65 29.75L22.65 30Q22.85 31.4 23.55 32.55L23.6 32.6Q24.45 33.75 26.1 34.15L27.2 34.4L27.55 34.4L27.3 34.75L27.25 34.85L26.75 35.2L26.55 35.25L23.65 36L20.55 36.15Q19.45 36.05 18 35.35Q16.55 34.7 15.65 33.35L14.3 31.15L14.15 30.75L14.1 30.7L13.6 28.5L13.55 28.3L13.5 27.85L13.5 26.85L13.55 25.85L13.55 25.45L13.6 25L14.2 23.1L14.4 22.5L13.5 22.45L12.5 22.25L12.1 21.95L11.9 21.8L11.25 21.05Q11.05 20.55 11.15 20.4L11.35 20.25L12.1 20.1L13.5 20.35L13.85 20.45L13.95 20.5L14.35 20.7L14.45 20.75L15 21.3Q15.8 20 17.1 18.85L17.6 18.5L17.7 18.4L18.45 17.9L17.85 17.65L16.6 16.85L16.5 16.7L16.3 16.5L15.5 15.25Q15.3 14.8 16.1 14.75L17.3 14.85Q19.2 15.1 19.9 17.2L20.7 17L23.9 17.15Q25.4 17.55 26.4 18.45Q27.4 19.2 27.6 19.85L27.85 20.6L27.85 21.3L27.45 21.6M16.35,15.25L16.1 15.2Q16.55 16.25 17.45 16.8L18.3 17.25L19.1 17.5L19.55 17.35L19.05 16.5Q18.05 15.35 16.35 15.25M13,20.75L11.6 20.55Q12.1 21.7 13.8 22.05L14.55 22.25L14.75 21.7L14.55 21.4L14.4 21.4L13.7 20.95L13.6 20.9L13.1 20.75L13 20.75" />
<path style="fill:#165398;fill-opacity:1" d="M22.55,24.25Q21.25 23.95 20.15 23.25Q19.5 22.65 18.75 25.2Q18.1 27.7 18.4 29.6Q18.7 31.45 19.95 32.25Q21.25 33.05 22.8 32.45L23.8 33.8Q24.6 34.4 26.2 34.7Q22.55 35.85 20 35.35Q17.45 35 15.85 32.55Q14.35 30.35 14.1 28L14.1 27.85Q14 25.4 14.7 23.4L14.8 23.15Q15.6 21.3 17.15 19.8L17.65 19.4Q19.1 18.2 20.55 17.8L23.55 17.6Q24.85 17.95 26.05 18.9Q27.25 19.95 27.15 21L25.4 22.05Q24.05 22.7 23.15 24.4L22.55 24.25" />
<path style="fill:#3778C2;fill-opacity:1" d="M23.15,24.4L22.9 25.05Q21.95 27.2 22 29.05L22 29.1Q22.1 31 22.55 32.05L22.8 32.45Q21.25 33.05 19.95 32.25Q18.7 31.45 18.4 29.6Q18.1 27.7 18.75 25.2Q19.5 22.65 20.15 23.25Q21.25 23.95 22.55 24.25L23.15 24.4" />
<path style="fill:#6DCAD9;fill-opacity:1" d="M27.2,34.4L26.1 34.15Q24.45 33.75 23.6 32.6L23.55 32.55Q22.85 31.4 22.65 30L22.65 29.75Q22.55 28.25 23 26.4Q23.3 25.25 23.7 24.5L24.15 23.9L25.95 22.4L27.2 21.8L28.35 22.25Q29.1 22.65 30 23.75L26.35 24.6L26.1 24.6L25.55 25.55Q24.55 27.65 24.8 29.85Q24.95 31.05 25.8 32.05Q26.7 33.1 28.3 32.9Q29.85 32.75 30.45 32.2L29.35 33.3Q28.35 34.2 27.2 34.4" />
<path style="fill:#386C79;fill-opacity:1" d="M29.35,33.3L30.45 32.2L30.9 31.55L31 31.4L31.5 30.5L31.5 30.45Q31.9 29.3 31.75 27.95Q31.45 25.45 30 23.75Q29.1 22.65 28.35 22.25L27.2 21.8L27.2 21.75L27.45 21.6L27.85 21.3L28.5 21.55Q29.65 22.35 30.5 23.5Q31.55 24.85 32.05 26.75Q32.45 28.3 32.3 29.65Q31.9 32.55 28.65 34.4Q28 34.85 26.75 35.2L27.25 34.85L27.3 34.75L27.55 34.4L27.2 34.4Q28.35 34.2 29.35 33.3" />
<path style="fill:#BDE5E1;fill-opacity:1" d="M31.75,27.95Q31.9 29.3 31.5 30.45L31.5 30.5L31 31.4L30.9 31.55L30.45 32.2Q29.85 32.75 28.3 32.9Q26.7 33.1 25.8 32.05Q24.95 31.05 24.8 29.85Q24.55 27.65 25.55 25.55L26.1 24.6L26.35 24.6L30 23.75Q31.45 25.45 31.75 27.95M28,28Q27.9 30.25 29.35 30.35Q30.8 30.4 31.05 28.5Q31.25 26.65 29.8 26Q28.15 25.8 28 28" />
<path style="fill:#1D5BA1;fill-opacity:1" d="M19.05,16.5L19.55 17.35L19.1 17.5L18.3 17.25L17.45 16.8Q16.55 16.25 16.1 15.2L16.35 15.25Q17.5 16.9 19.05 16.5M11.6,20.55Q12.5 21.7 14.1 21.6L14.4 21.4L14.55 21.4L14.75 21.7L14.55 22.25L13.8 22.05Q12.1 21.7 11.6 20.55" />
<path style="fill:#6099BB;fill-opacity:1" d="M16.4,17.7L16.45 17.5L16.5 16.7L16.6 16.85L17.85 17.65L18.45 17.9L17.7 18.4L17.6 18.5L17.1 18.85Q15.8 20 15 21.3L14.45 20.75L14.35 20.7L15.25 20.4L15.7 20.1Q16.9 19.25 17.1 18.15L16.85 18L16.4 17.7M13.55,24.9L13.9 23.1L13.45 22.95L12.65 22.7L12.5 22.25L13.5 22.45L14.4 22.5L14.2 23.1L13.6 25L13.55 24.9" />
<path style="fill:#235572;fill-opacity:1" d="M13.95,20.5L13.85 20.45L13.5 20.35L14.25 19.8Q15.7 18.85 15.95 17.7L16.05 17.4L16.3 16.5L16.5 16.7L16.45 17.5L16.4 17.7L15.7 19.15Q14.85 20.15 13.95 20.5M13.55,24.9L13.6 25L13.55 25.45L13.45 25.35L13.35 25.25L13.15 25.15L12.7 25L12.25 24.95L12.15 24.8L12.2 24.6L12.2 24.5L12.2 24.4L12.2 24.3Q12.4 23.25 12.15 22.45L12.05 22.25L11.9 21.8L12.1 21.95L12.5 22.25L12.65 22.7L12.8 23.85L12.7 24.55L13.35 24.75L13.45 24.8L13.55 24.9" />
<path style="fill:#80B5CD;fill-opacity:1" d="M16.85,18L17.1 18.15Q16.9 19.25 15.7 20.1L15.25 20.4Q16.3 19.4 16.85 18M13.45,24.8L13.35 24.75Q13.6 23.95 13.45 22.95L13.9 23.1L13.55 24.9L13.45 24.8" />
<path style="fill:#ECFFFE;fill-opacity:1" d="M15.7,19.15L16.4 17.7L16.85 18Q16.3 19.4 15.25 20.4L14.35 20.7L13.95 20.5Q14.85 20.15 15.7 19.15M13.35,24.75L12.7 24.55L12.8 23.85L12.65 22.7L13.45 22.95Q13.6 23.95 13.35 24.75" />
<path style="fill:#71BDF3;fill-opacity:1" d="M17.8,16.15Q16.4 15.9 17.55 15.5L17.9 15.9L17.8 16.15M13.1,20.75L13.25 20.9L13.2 21.15Q12 21.3 13 20.75L13.1 20.75" />
<path style="fill:#3680D2;fill-opacity:1" d="M16.35,15.25Q18.05 15.35 19.05 16.5Q17.5 16.9 16.35 15.25M17.9,15.9L17.55 15.5Q16.4 15.9 17.8 16.15L17.9 15.9M14.1,21.6Q12.5 21.7 11.6 20.55L13 20.75Q12 21.3 13.2 21.15L13.25 20.9L13.1 20.75L13.6 20.9L13.7 20.95L14.4 21.4L14.1 21.6" />
<path style="fill:#E7FCFB;fill-opacity:1" d="M29.8,26Q31.25 26.65 31.05 28.5Q30.8 30.4 29.35 30.35Q27.9 30.25 28 28Q28.15 25.8 29.8 26" />
<path style="fill:#717463;fill-opacity:1" d="M31.35,16.65L31.7 16.7L31.3 17.75Q31.25 18.05 31.35 18.15L31.45 18.55L29.65 18.3L29.5 18.1L29.8 18.05L30 17.2Q30 17.7 30.9 17.65L31.35 16.65M37.55,19.75L37 20.4L37.05 20.7L36.85 20.7Q35.85 20.3 35.55 19.45L35.95 19.25L36.3 19.05L36.9 18.15L37.15 18.35L36.65 19.3Q37.15 20.05 37.55 19.75" />
<path style="fill:#384A5B;fill-opacity:1" d="M31.35,18.15Q31.25 18.05 31.3 17.75L31.7 16.7L31.35 16.65L30.4 16.85L30 17.2L29.8 18.05L29.5 18.1L29.5 18.15L29.3 18.05L29.3 17.8Q29.35 17.3 29.65 16.85L30.05 16.4Q30.8 15.95 31.55 16.15L31.9 16.2L32 16.25Q32.35 16.35 32.35 16.55L32.05 17.4L31.9 17.75L31.75 18.4L31.7 18.75L31.55 18.75L31.45 18.55L31.35 18.15M35.35,19.45L35.25 19.35L35.5 19.1L35.95 18.6L36.15 18.25L36.65 17.55L37.1 17.6L37.15 17.65L37.4 17.9Q38.05 18.4 38.1 19.25L38 19.85L37.45 20.65L37.25 20.8L37.1 20.7L37.05 20.7L37 20.4L37.55 19.75L37.55 19.25L37.15 18.35L36.9 18.15L36.3 19.05L35.95 19.25L35.55 19.45L35.35 19.45" />
<path style="fill:#E0E6DA;fill-opacity:1" d="M30.9,17.65Q30 17.7 30 17.2L30.4 16.85L31.35 16.65L30.9 17.65M36.65,19.3L37.15 18.35L37.55 19.25L37.55 19.75Q37.15 20.05 36.65 19.3M30.95,17.1L31 17.05Q30.5 16.65 30.5 17.25Q30.8 17.35 30.95 17.1M37,18.95Q36.95 19.25 37.2 19.45Q37.7 19.05 37.1 18.85L37 18.95" />
<path style="fill:#FFFFFF;fill-opacity:1" d="M30.5,17.25Q30.5 16.65 31 17.05L30.95 17.1Q30.8 17.35 30.5 17.25M37.1,18.85Q37.7 19.05 37.2 19.45Q36.95 19.25 37 18.95L37.1 18.85" />
<path style="fill:#E7FCFB;fill-opacity:1" d="M27.45,18.4Q28.3 19.2 26.9 19.45L26.4 19.25L26.35 19.15L26.25 18.95Q26.05 18.4 27.1 18.25L27.45 18.4M33.75,20.6L33.6 20.4Q33.7 19.65 34.75 19.85L35.35 19.95L35.6 20.2L35.45 20.8L34.85 20.95Q34.4 21.05 33.75 20.6" />
<path style="fill:#BDE5E1;fill-opacity:1" d="M27.1,18.25Q26.05 18.4 26.25 18.95L26.35 19.15L26.4 19.25L26.9 19.45Q28.3 19.2 27.45 18.4L27.1 18.25M28.6,18.1Q27.95 18.95 28.2 19.95L28.5 20.6L28.6 20.7L28 20.85Q25.5 21.75 24.65 21.55L24.05 20.5L24 20Q23.95 18.4 24.85 17.55Q25.8 16.7 26.35 16.7L27.35 16.6Q27.75 16.6 28.05 16.85L28.85 17.7L28.6 18.1M33.05,18.75L34.95 19.05Q36.15 19.35 36.5 20.05L36.85 21.15Q35.95 22.2 34.15 22.05L33.9 21.85L33.8 21.75L33.55 21.5L33.55 21.4L33.3 21.15L33.25 21.15L32.6 21.25Q32.35 21.25 32.25 21.05L32 20.95L32.2 20.8L32.9 19.75L33.05 18.75M34.85,20.95L35.45 20.8L35.6 20.2L35.35 19.95L34.75 19.85Q33.7 19.65 33.6 20.4L33.75 20.6Q34.4 21.05 34.85 20.95" />
<path style="fill:#386C79;fill-opacity:1" d="M27.35,21.95L32.1 22.05L33.8 22.85L34.95 23.25L35.9 22.9L36.55 22.3Q36.9 21.7 36.85 21.2L36.85 21.15L36.5 20.05Q36.15 19.35 34.95 19.05L33.05 18.75L31.8 18.75Q29.85 18.8 29.1 17.9L28.85 17.7L28.05 16.85Q27.75 16.6 27.35 16.6L26.35 16.7Q25.8 16.7 24.85 17.55Q23.95 18.4 24 20L24.05 20.5L24.65 21.55Q25.55 22.35 27.35 21.95M28.35,16.25Q28.95 16.55 29.35 17.2Q29.75 17.8 30.8 18.1L32.95 18.3L33 18.3L35.05 18.45Q36.05 18.7 36.55 19.15L37.35 20.2L37.4 20.25Q37.7 20.85 37.6 21.55Q37.55 22.25 36.75 23.15Q36 24 35 23.9L32.85 23.25Q31.7 22.65 30.45 22.5L27.4 22.7L24.7 22.5Q23.95 22.05 23.55 21.2L23.45 20.85L23.3 19.3L23.45 18.55Q24.05 15.85 26.95 15.95L28.35 16.25" />
<path style="fill:#5DC1D9;fill-opacity:1" d="M32.9,19.75L32.2 20.8L32 20.95L32.25 21.05Q32.35 21.25 32.6 21.25L33.25 21.15L33.3 21.15L33.55 21.4L33.55 21.5L33.8 21.75L33.9 21.85L34.15 22.05Q35.95 22.2 36.85 21.15L36.85 21.2Q36.9 21.7 36.55 22.3L35.9 22.9L34.95 23.25L33.8 22.85L32.1 22.05L27.35 21.95Q25.55 22.35 24.65 21.55Q25.5 21.75 28 20.85L28.6 20.7L28.5 20.6L28.2 19.95Q27.95 18.95 28.6 18.1L28.85 17.7L29.1 17.9Q29.85 18.8 31.8 18.75L33.05 18.75L32.9 19.75" />
<path style="fill:#38465B;fill-opacity:1" d="M27.85,17.65L27.4 18.4Q27.35 18.65 27.45 18.9Q27.65 19.4 28 19.7L28.25 19.85L28.75 18.85L29.05 18.65L29.4 18.4L29.6 18.35L29.75 18.4L29.55 18.7L29.15 19.25L29 19.6L28.65 20.45Q28.55 20.65 28.2 20.45L28.1 20.4L27.8 20.25Q27.1 19.75 26.95 18.95L26.95 18.35Q27 17.85 27.35 17.45L27.5 17.3L27.7 17.35L27.85 17.65" />
<path style="fill:#717463;fill-opacity:1" d="M27.4,18.4L27.85 17.65L27.7 17.35L27.9 17.35Q29 17.6 29.4 18.4L29.05 18.65L28.75 18.85L28.25 19.85L28 19.7Q28.05 19.15 28.35 18.7Q27.75 18.05 27.4 18.4" />
<path style="fill:#E0E6DA;fill-opacity:1" d="M28.35,18.7Q28.05 19.15 28 19.7Q27.65 19.4 27.45 18.9Q27.35 18.65 27.4 18.4Q27.75 18.05 28.35 18.7M28.05,19.1L27.8 18.65Q27.35 19.1 28 19.2L28.05 19.1" />
<path style="fill:#FFFFFF;fill-opacity:1" d="M28,19.2Q27.35 19.1 27.8 18.65L28.05 19.1L28 19.2" />
<path style="fill:#38465B;fill-opacity:1" d="M39.7,16.8L39.3 16.7L39.7 16.4Q40.25 15.85 40.6 14.25Q40.9 13 40.65 12.1L40.65 12L40.55 11.7Q38.05 12.65 37.45 13.5L37.05 14L37.05 13.4L36.95 13L37.35 12.55L37.45 12.5Q38.05 11.9 39.45 11.25L40.8 10.65L41.1 10.75L41.45 11.5L41.5 13.55Q41.45 15.05 40.9 16.05L39.95 17.1L39.7 16.8" />
<path style="fill:#E0E6DA;fill-opacity:1" d="M37.05,14L37.45 13.5Q38.05 12.65 40.55 11.7L40.65 12L40.65 12.1L40.55 12.4L40.55 12.45Q40.2 13.15 39.3 13.75Q38.55 14.25 37.65 14.55L37.45 14.35L37.1 14.05L37.05 14M39.45,12.55Q37.55 13.6 39.35 13.4Q39.95 13.35 39.75 12.8Q39.7 12.55 39.45 12.55" />
<path style="fill:#ACB0A2;fill-opacity:1" d="M38.9,16.6L39.7 15.2Q40.6 13.4 40.55 12.5Q40.1 13.8 38.75 14.8L38.3 14.85L37.65 14.55Q38.55 14.25 39.3 13.75Q40.2 13.15 40.55 12.45L40.55 12.4L40.65 12.1Q40.9 13 40.6 14.25Q40.25 15.85 39.7 16.4L39.3 16.7L38.9 16.6" />
<path style="fill:#074174;fill-opacity:1" d="M19.2,17.75L18.9 17.85L17.7 18.3L16.45 18.5L14.8 18.3L14.1 17.9L14.1 17.85L14.3 17.6L14.55 17.35L14.85 17.1L15.25 16.8Q15.3 16.75 15.5 16.65L16.35 16.15L17 15.9L17.45 15.8L18.35 15.65L18.85 15.65L18.85 15.3L18.85 14.7L19.25 13.1L19.8 11.85Q17.85 11.4 17.15 10.95L16.65 10.8L16.2 10.55Q15.05 9.45 15.05 8.9Q15 8.35 15.6 8.3L16.2 8.2L16.55 8.2L16.6 8.2L17.4 8.3L17.7 8.4L17.8 8.4L18.4 8.55L20.75 9.95L21 10.2L21.15 10.05L21.15 10L21.45 9.75Q23.55 7.65 26.7 7.2L28.4 7.1L30.9 7.75L31.9 8.2L32.35 8.5L31.85 7.9L31 6.95L30.8 6.75Q29.2 5 27.3 4.2L24.1 3Q23 2.65 21.8 2.45L21.6 2.4L20.7 2.3L19.95 2.2Q18.9 2 18.5 1.55L18.3 1.35L18.1 0.9L18.6 0.3L19.75 0L22.3 0.15Q24.15 0.3 26.7 1.35Q28.85 2.25 30.7 3.65L31.35 4.1L31.75 4.45L32.85 5.55L33 5.65Q34.05 6.8 34.55 8Q35.1 9.35 35.05 10.75L35 10.8L35.25 11.15L35.6 11.8L35.7 12.5L36.25 12.55L36.6 12.7L36.85 12.85L36.95 13L37.05 13.4L37.05 14L37.1 14.4Q37.1 14.85 37.45 15.3L37.75 15.7L38.85 16.55L38.9 16.6L39.3 16.7L39.7 16.8L39.95 17.1L40.2 18.5Q40.25 19.95 39.55 20.9L38.35 21.85Q37.65 22.2 37.25 21.3L36.95 20.75L36.35 20Q35.95 19.7 35.25 19.5L35.1 19.45L33.5 19.35L32.35 19.5L31.65 19.7L30.4 19.85L29.4 18.95Q28.75 18.2 27.9 17.8Q26.65 17.35 25.9 18.4Q25.1 19.45 25.3 20.2L25.4 20.55L25.65 21.1L26.25 21.75Q26.55 22 25.9 22.45Q25.25 22.9 24.55 22.85L23.15 22.45L22.8 22.25L22.15 21.65L22.1 21.5Q21.7 20.95 21.8 20.45L22.75 21.3L24.2 21.95L25.35 21.85L24.9 21.15Q24.4 20.2 24.7 19.15L24.85 18.7Q25.45 17.35 26.7 17.05Q28.2 16.7 29.25 17.8L30.6 19.05L31.85 19L32.35 18.85L33 18.7L33.4 18.6L35.1 18.6L35.25 18.65Q35.95 18.7 36.6 19.2L36.9 19.45L37.15 19.65Q38.15 20.6 38.15 21.15Q39.05 20.45 39.25 19.15Q39.45 17.85 39.15 17.5L38.2 17.05L37.45 16.5L36.75 15.7L36.7 15.65Q36.1 14.7 36.35 13.5L35.25 13.4L34.55 13.7L33.65 14.25L33.65 14.2Q33.55 13.65 33.85 13.3L34.05 13.05L34.5 12.8L35.1 12.65Q34.55 11.15 33.05 9.95L33 9.9L32.65 9.6L31.95 9.1L30.9 8.55Q28.5 7.45 25.85 8.2L24.05 8.9Q22.55 9.7 21.55 10.75L21.25 11.1L21.15 11.15L20.9 11.5L20.55 12L20.4 12.25Q19.6 13.75 19.6 15.6L19.75 16.8L19.9 17.4L20.3 18.65Q20.55 19.25 19.7 18.45L19.55 18.3L19.2 17.75M20.4,0.6L20.2 0.6L19.8 0.55L19.4 0.55L18.95 0.75Q18.8 0.9 19.1 1.15L19.2 1.15L20.25 1.6L21.55 1.75L23.75 2.2Q25.3 2.55 26.7 3.2Q28.2 3.85 29.35 4.7L30.8 5.9L31.6 6.75L31.85 7L33 8.5L33.2 8.85L33.4 9.2L34 9.7L34.6 10.3L34.35 9.35L33.85 8.05L33 6.65L32.9 6.6L31.8 5.4L31.5 5.1L30.75 4.4Q28.9 2.9 27.1 2.2L25.05 1.45L23.35 1L20.5 0.6L20.4 0.6M32.55,14.8L32.15 14.8Q31.65 14.65 31.6 13.55Q31.45 11.95 29.95 11.45Q27.15 10.45 26.3 13.05L26.25 13.3L26.15 13.4L26.15 13.3L26.1 13.05L26.1 12.8L26.1 12.45L26.15 12.3L26.15 12.25Q26.45 10.45 28.9 10.25Q30.15 10.3 31 10.9L31.05 10.9Q31.65 11.3 31.9 12.1L32.1 12.8L32.1 12.95Q32.3 14.05 32.9 14.1L33 14.15Q33.5 14.2 33.45 14.35L33.4 14.35L33 14.65L32.55 14.8M19.8,10.1Q18.75 9.4 17.8 9.1L17.35 9L16.45 8.85L16.1 8.85Q15.8 8.9 16 9.45Q16.25 9.95 17.85 10.6L20.15 11.3L20.5 10.8L20.6 10.65L20.25 10.4L20.05 10.25L19.9 10.15L19.8 10.1M36.25,17.5L36.05 17.35Q36 17.1 36.3 17L36.8 16.9L37.15 16.9L37.45 17L37.8 17.35L37.9 17.95L37.7 18.4L37.6 18.2L37.45 17.95L37.35 17.8Q37.15 17.45 36.8 17.45L36.6 17.45L36.25 17.5M14.8,17.8L16.95 17.85L19.05 17.2L18.85 16.05L18.5 16.1L18.2 16.15L17.85 16.25L16.2 16.8L15.75 17.05Q15.4 17.2 15.15 17.45L14.85 17.7L14.8 17.8" />
<path style="fill:#3680D2;fill-opacity:1" d="M33.15,7.85L33 7.5L32.95 7.45L32.1 6.3L31.8 5.95L30.75 5L27.85 3.2L28.25 3.1Q27.5 2.45 26.45 2.15Q26.35 2.5 27.1 2.9L25.85 2.45L22.3 1.35L20.75 1.25L21.4 0.9L21.35 0.9L20.8 0.7L20.5 0.6L23.35 1L25.05 1.45L27.1 2.2Q28.9 2.9 30.75 4.4L31.5 5.1L31.8 5.4L32.9 6.6L33 6.65L33.85 8.05L33.15 7.85M20.3,1.25L19.2 1.15L19.1 1.15Q18.8 0.9 18.95 0.75L19.4 0.55L19.8 0.55L20.2 0.6L19.95 0.8L19.95 0.9L20.3 1.25M34.5,12.8L34.05 13.05L33.85 13.3Q33.25 13.3 33 13Q32.65 12.7 32.6 12.05L32.6 11.8L32.55 11.65L32 10.8L30.95 9.9Q29.75 9.25 27.9 9.55Q27.05 9.7 26.45 10.2L26.45 9.95L26.3 9L27.15 8.85L30.95 9.1L31.95 9.6L33 10.55L33.05 10.65L33.75 11.6L33.75 11.9Q33.1 12.3 33.9 12.05L34.5 12.8M33,14.65L33.4 14.35L33.45 14.35L33.65 14.25L34.55 13.7L35.25 13.4L36.35 13.5Q36.1 14.7 36.7 15.65L36.75 15.7L37.45 16.5L38.2 17.05L39.15 17.5L38.75 18.8L38.4 19.3L37.45 18.65L37.2 18.55L37.45 18.4L37.6 18.2L37.7 18.4L37.9 17.95L37.8 17.35L37.45 17L37.15 16.9L36.8 16.9L36.3 17Q36 17.1 36.05 17.35L36.25 17.5L36.25 17.9L36.3 18.15L35.25 17.85L33.5 17.6L33 17.6L32.85 17.6L32.3 17.65L32.15 17.65Q31.6 17.7 31.2 18L30.25 16.95Q31.6 16.65 32.2 15.7L32.55 14.8L33 14.65M21.85,12Q22.5 12.55 23.4 12.6Q24.4 12.65 25.05 12.2L25.1 12.7Q24.95 13.9 25.75 15.15L25.75 15.2L26.9 16.4Q26.2 16.7 25.5 17.35Q24.9 17.85 24.85 18.7L24.7 19.15Q24.4 20.2 24.9 21.15L23.4 20.7L23 19.95L22.9 19.85L22.55 19.95Q21.85 19.05 21.85 17.4L22.2 17.2L22.15 17L22.05 16.85L21.9 16.95L21.95 16.7L22 16.3L21.6 16.2L21.65 16.15Q21.8 15.9 22.1 15.85L22.15 15.9L22.35 15.45L20.9 13.9Q21.3 12.8 21.85 12M19.9,10.15L19.8 10.45L19.65 10.65L19.6 10.75L18.6 10.55L18.35 10.45Q17.1 9.95 16.45 8.85L17.35 9L17.8 9.1Q18.75 9.4 19.8 10.1L19.9 10.15M23.7,13.3Q22.9 13.25 22.85 13.95L22.85 14L23.95 13.9L23.95 13.7L23.7 13.3M23.55,16.45L24.35 16.4L24.35 16.1L24.25 15.85L23.55 16.4L23.55 16.45M23.4,18.5Q22.95 18.55 22.9 19L22.9 19.05Q23.7 19.25 23.5 18.55L23.4 18.5M35.5,13.8L35.25 13.75Q34.9 13.75 34.45 14.1Q33.85 14.55 34.35 14.55L35.15 14.75L35.25 15.4L35.8 16.1L36.2 16.15Q36 15.9 35.75 14.55Q35.95 14 35.5 13.8M18.85,9.95Q18.5 9.5 17.85 9.4Q17.7 9.9 18.85 10L18.85 9.95M17.25,16.65L16.7 16.85L16.05 17.1L15.75 17.2L15.75 17.25L16.1 17.2Q16.9 17.2 17.35 16.65L17.25 16.65M18.4,16.8Q16.65 18.15 14.85 17.7L15.15 17.45Q15.4 17.2 15.75 17.05L16.2 16.8L17.85 16.25L18.2 16.15L18.4 16.8" />
<path style="fill:#1D5BA1;fill-opacity:1" d="M20.1,19.35L19.55 18.3L19.7 18.45Q20.55 19.25 20.3 18.65L19.9 17.4L19.75 16.8L19.6 15.6Q19.6 13.75 20.4 12.25Q20.4 13.15 20.9 13.9L22.35 15.45L22.15 15.9L22.1 15.85Q21.8 15.9 21.65 16.15L21.6 16.2L22 16.3L21.95 16.7L21.9 16.95L22.05 16.85L22.15 17L22.2 17.2L21.85 17.4Q21.85 19.05 22.55 19.95L22.9 19.85L23 19.95L23.4 20.7L24.9 21.15L25.35 21.85L24.2 21.95L22.75 21.3L21.8 20.45Q21.7 20.95 22.1 21.5L22.15 21.65L21.35 20.9L20.35 19.7L20.1 19.35M20.3,1.25L20.75 1.25L22.3 1.35L25.85 2.45L27.1 2.9L27.6 3.15L27.85 3.2L30.75 5L31.8 5.95L32.1 6.3L32.95 7.45L33 7.5L33.15 7.85L33.85 8.05L34.35 9.35L34.6 10.3L34 9.7L33.4 9.2L33.2 8.85L33 8.5L31.85 7L31.6 6.75L30.8 5.9L29.35 4.7Q28.2 3.85 26.7 3.2Q25.3 2.55 23.75 2.2L21.55 1.75L20.25 1.6L19.2 1.15L20.3 1.25M32.55,14.8L32.2 15.7Q31.6 16.65 30.25 16.95L31.2 18Q31.6 17.7 32.15 17.65L32.3 17.65L32.85 17.6L33 17.6L33.5 17.6L35.25 17.85L36.3 18.15L36.25 17.9L36.25 17.5L36.6 17.45L36.8 17.45Q37.15 17.45 37.35 17.8L37.45 17.95L37.6 18.2L37.45 18.4L37.2 18.55L37.45 18.65L38.4 19.3L38.75 18.8L39.15 17.5Q39.45 17.85 39.25 19.15Q39.05 20.45 38.15 21.15Q38.15 20.6 37.15 19.65L36.9 19.45L36.6 19.2Q35.95 18.7 35.25 18.65L35.1 18.6L33.4 18.6L33 18.7L32.35 18.85L31.85 19L30.6 19.05L29.25 17.8Q28.2 16.7 26.7 17.05Q25.45 17.35 24.85 18.7Q24.9 17.85 25.5 17.35Q26.2 16.7 26.9 16.4L25.75 15.2L25.75 15.15Q24.95 13.9 25.1 12.7L25.05 12.2Q24.4 12.65 23.4 12.6Q22.5 12.55 21.85 12L21.5 11.5L21.3 11.25L21.25 11.1L21.55 10.75Q22.55 9.7 24.05 8.9L25.85 8.2L26.3 9L26.45 9.95L26.45 10.2Q27.05 9.7 27.9 9.55Q29.75 9.25 30.95 9.9L32 10.8L32.55 11.65L32.6 11.8L32.6 12.05Q32.65 12.7 33 13Q33.25 13.3 33.85 13.3Q33.55 13.65 33.65 14.2L33.65 14.25L33.45 14.35Q33.5 14.2 33 14.15L32.9 14.1Q32.3 14.05 32.1 12.95L32.1 12.8L31.9 12.1Q31.65 11.3 31.05 10.9L31 10.9Q30.15 10.3 28.9 10.25Q26.45 10.45 26.15 12.25L26.15 12.3L26.1 12.45L26.1 12.8L26.1 13.05L26.15 13.3L26.15 13.4L26.15 13.6Q26.15 14.45 26.95 15.1Q27.75 15.85 28.95 16L30.95 15.65L31.55 15.4L32.15 14.8L32.55 14.8M18.35,10.45L18.6 10.55L19.6 10.75L19.65 10.65L19.8 10.45L19.9 10.15L20.05 10.25L20.25 10.4L20.6 10.65L20.5 10.8L20.15 11.3L17.85 10.6Q16.25 9.95 16 9.45Q15.8 8.9 16.1 8.85L16.45 8.85Q17.1 9.95 18.35 10.45M21.3,18.2Q20.8 18.15 20.85 18.6L20.85 18.65L20.9 18.75L21.25 18.85L21.35 18.4L21.3 18.2M18.2,16.15L18.5 16.1L18.85 16.05L19.05 17.2L16.95 17.85L14.8 17.8L14.85 17.7Q16.65 18.15 18.4 16.8L18.2 16.15" />
<path style="fill:#71BDF3;fill-opacity:1" d="M19.95,0.9L19.95 0.8L20.2 0.6L20.4 0.6L20.5 0.6L20.8 0.7L21.35 0.9L21.4 0.9L20.75 1.25L20.3 1.25L19.95 0.9M27.1,2.9Q26.35 2.5 26.45 2.15Q27.5 2.45 28.25 3.1L27.85 3.2L27.6 3.15L27.1 2.9M33.9,12.05Q33.1 12.3 33.75 11.9L33.75 11.6L33.05 10.65L33 10.55L31.95 9.6L30.95 9.1L27.15 8.85L26.3 9L25.85 8.2Q28.5 7.45 30.9 8.55L31.95 9.1L32.65 9.6L33 9.9L33.05 9.95Q34.55 11.15 35.1 12.65L34.5 12.8L33.9 12.05M20.9,13.9Q20.4 13.15 20.4 12.25L20.55 12L20.9 11.5L21.15 11.15L21.25 11.1L21.3 11.25L21.5 11.5L21.85 12Q21.3 12.8 20.9 13.9M35.75,14.55Q36 15.9 36.2 16.15L35.8 16.1L35.25 15.4L35.15 14.75L34.35 14.55Q33.85 14.55 34.45 14.1Q34.9 13.75 35.25 13.75L35.5 13.8Q35.95 14 35.75 14.55M18.85,10Q17.7 9.9 17.85 9.4Q18.5 9.5 18.85 9.95L18.85 10M17.35,16.65Q16.9 17.2 16.1 17.2L15.75 17.25L15.75 17.2L16.05 17.1L16.7 16.85L17.25 16.65L17.35 16.65" />
<path style="fill:#6099BB;fill-opacity:1" d="M21.55,3.1L21.5 3.05L20.85 2.8L20.7 2.3L21.6 2.4L21.8 2.45Q23 2.65 24.1 3L27.3 4.2Q29.2 5 30.8 6.75L31 6.95L31.85 7.9L32.35 8.5L31.9 8.2L30.9 7.75L28.4 7.1L26.7 7.2Q27.4 6.35 27.5 5.4L27.05 5.1Q24.6 3.65 21.6 3.1L21.55 3.1M17.7,18.3L18.9 17.85L19.2 17.75L19.55 18.3L20.1 19.35Q18.5 18.85 17.7 18.3M19.25,12.55L17.4 11.95L17.15 10.95Q17.85 11.4 19.8 11.85L19.25 13.1L19.25 12.55M18.85,14.7L18.85 15.3L18.85 15.65L18.35 15.65L18.85 14.7" />
<path style="fill:#80B5CD;fill-opacity:1" d="M21.7,9.4Q24.15 7.5 24.05 4.55L23.05 3.9L21.65 3.15L21.6 3.1Q24.6 3.65 27.05 5.1L27.5 5.4Q27.4 6.35 26.7 7.2Q23.55 7.65 21.45 9.75L21.15 10L21.15 10.05L21 10.2L20.75 9.95L21.7 9.4M18.35,15.65L17.45 15.8L17.55 15.65Q18.35 14.7 18.55 13.4L18.45 13.35L18 13.15L17.45 12.95L17.45 12L17.4 11.95L19.25 12.55L19.25 13.1L18.85 14.7L18.35 15.65" />
<path style="fill:#ECFFFE;fill-opacity:1" d="M18.4,8.55L17.8 8.4Q20.05 7 20.6 5.3Q21.1 4 20.9 2.95L20.85 2.8L21.5 3.05L21.55 3.1L21.6 3.1L21.65 3.15L21.5 4.55Q20.9 7.3 18.4 8.55M17.45,12.95L18 13.15L17.7 14.7L17 15.9L16.35 16.15Q17.4 15.15 17.45 12.95" />
<path style="fill:#235572;fill-opacity:1" d="M20.1,19.35L20.35 19.7Q19.3 19.6 18.25 19.15L17 18.5L16.45 18.5L17.7 18.3Q18.5 18.85 20.1 19.35M16.35,16.15L15.5 16.65Q15.3 16.75 15.25 16.8L15.35 16.65L15.8 16.25L16.5 14.95Q17.05 13.9 17 12.8L16.95 12.5L16.8 11.75L16.2 10.55L16.65 10.8L17.15 10.95L17.4 11.95L17.45 12L17.45 12.95Q17.4 15.15 16.35 16.15M20.9,2.95Q21.1 4 20.6 5.3Q20.05 7 17.8 8.4L17.7 8.4L17.4 8.3L16.6 8.2Q18.35 7.65 19.35 6.1Q20.4 4.55 20.3 3.65L20.2 2.85L20.1 2.5L19.95 2.2L20.7 2.3L20.85 2.8L20.9 2.95" />
<path style="fill:#AACAD0;fill-opacity:1" d="M21.5,4.55L21.65 3.15L23.05 3.9L24.05 4.55Q24.15 7.5 21.7 9.4L20.75 9.95L18.4 8.55Q20.9 7.3 21.5 4.55M17.7,14.7L18 13.15L18.45 13.35L18.55 13.4Q18.35 14.7 17.55 15.65L17.45 15.8L17 15.9L17.7 14.7" />
<linearGradient
id="LinearGradID_705" gradientUnits="userSpaceOnUse" gradientTransform="matrix(0, 0.00106812, 0.00270081, 0, 28.65, 15.25)" spreadMethod ="pad" x1="-819.2" y1="0" x2="819.2" y2="0" >
<stop  offset="0.00392157" style="stop-color:#4C3837;stop-opacity:1" />
<stop  offset="1" style="stop-color:#AA8081;stop-opacity:1" />
</linearGradient>
<path style="fill:url(#LinearGradID_705) " d="M29.95,13.65L30.25 14L30.6 14.5L30.9 15.3L30.45 15.55Q29.45 15.85 28.5 15.55L27.35 14.95Q26.45 14.25 26.45 13.25Q26.65 13.05 26.95 13Q26.7 14.4 28.05 14.9L28.8 15.05L28.45 14.85Q27.35 14.25 27.7 12.8L28 12.8Q29.2 12.95 29.95 13.65" />
<linearGradient
id="LinearGradID_706" gradientUnits="userSpaceOnUse" gradientTransform="matrix(-0.000534058, 0.00331116, 0.00372314, 0.000595093, 29.4, 12.55)" spreadMethod ="pad" x1="-819.2" y1="0" x2="819.2" y2="0" >
<stop  offset="0.00392157" style="stop-color:#000000;stop-opacity:1" />
<stop  offset="1" style="stop-color:#2B2B23;stop-opacity:1" />
</linearGradient>
<path style="fill:url(#LinearGradID_706) " d="M28,12.8L27.7 12.8Q27.35 14.25 28.45 14.85L28.8 15.05L28.05 14.9Q26.7 14.4 26.95 13Q26.65 13.05 26.45 13.25Q26.45 14.25 27.35 14.95L28.5 15.55Q29.45 15.85 30.45 15.55L30.9 15.3L30.6 14.5L30.25 14L29.95 13.65Q29.2 12.95 28 12.8M26.25,13.3L26.3 13.05Q27.15 10.45 29.95 11.45Q31.45 11.95 31.6 13.55Q31.65 14.65 32.15 14.8L31.55 15.4L30.95 15.65L28.95 16Q27.75 15.85 26.95 15.1Q26.15 14.45 26.15 13.6L26.15 13.4L26.25 13.3" />
<path style="fill:#1A5495;fill-opacity:1" d="M23.95,13.7L23.95 13.9L22.85 14L22.85 13.95Q22.9 13.25 23.7 13.3L23.95 13.7M23.55,16.4L24.25 15.85L24.35 16.1L24.35 16.4L23.55 16.45L23.55 16.4M23.5,18.55Q23.7 19.25 22.9 19.05L22.9 19Q22.95 18.55 23.4 18.5L23.5 18.55" />
<path style="fill:#2E71BB;fill-opacity:1" d="M21.35,18.4L21.25 18.85L20.9 18.75L20.85 18.65L20.85 18.6Q20.8 18.15 21.3 18.2L21.35 18.4" />
<path style="fill:#FFFFFF;fill-opacity:1" d="M39.75,12.8Q39.95 13.35 39.35 13.4Q37.55 13.6 39.45 12.55Q39.7 12.55 39.75 12.8" />
<path style="fill:#717463;fill-opacity:1" d="M38.85,16.55L37.75 15.7L37.45 15.3Q37.1 14.85 37.1 14.4L37.05 14L37.1 14.05L37.45 14.35L37.65 14.55L38.3 14.85L38.75 14.8Q40.1 13.8 40.55 12.5Q40.6 13.4 39.7 15.2L38.9 16.6L38.85 16.55" />
</g>
</svg>
