<?xml version="1.0" encoding="utf-8"?>
<svg version="1.1" id="Layer_1"
xmlns="http://www.w3.org/2000/svg"
xmlns:xlink="http://www.w3.org/1999/xlink"
xmlns:author="http://www.sothink.com"
width="179px" height="80px"
xml:space="preserve">
<g id="758" transform="matrix(1, 0, 0, 1, 47.05, 17.3)">
<path style="fill:#F7E3CC;fill-opacity:1" d="M-16.6,-11.35L-16.6 -17.3L131.35 -17.3L131.35 62.1L40 62.1L40 62.15L-16.6 62.1L-16.6 51.55L-16.6 41.95L-16.6 41.2L-16.6 29.45L-16.6 24.4L-16.6 13.95L-47.05 -5.2L-16.6 -5.2L-16.6 -11.35" />
<path style="fill:#680B01;fill-opacity:1" d="M100.3,25.95L102.15 26.25Q102.95 26.5 103.4 27.2Q103.9 27.85 103.9 29L103.65 30.35L103.05 31.35L102.15 32.05L104.5 36.45L102.5 36.45L100.3 32.55L98.4 32.55L98.4 36.45L96.45 36.45L96.45 25.95L100.3 25.95M98.4,27.55L98.4 30.75L99.8 30.75L101.1 30.55L101.75 29.95L101.9 29.1L101.75 28.3L101.1 27.75L99.85 27.55L98.4 27.55M94.65,27.8L89.9 27.8L89.9 30.05L93.6 30.05L93.6 31.9L89.9 31.9L89.9 34.6L94.85 34.6L94.85 36.45L87.95 36.45L87.95 25.95L94.65 25.95L94.65 27.8M83.75,36.45L83.75 31.9L78.8 31.9L78.8 36.45L76.85 36.45L76.85 25.95L78.8 25.95L78.8 30.05L83.75 30.05L83.75 25.95L85.65 25.95L85.65 36.45L83.75 36.45M86.25,43.2L90 53.7L88 53.7L87.1 51.15L83.6 51.15L82.7 53.7L80.7 53.7L84.45 43.2L86.25 43.2M85.35,46.25L84.25 49.3L86.4 49.3L85.35 46.25M93.75,43.2L96.3 48L98.85 43.2L100.45 43.2L101.9 53.7L99.9 53.7L99 46.65L96.3 51.5L93.6 46.7L92.7 53.7L90.7 53.7L92.15 43.2L93.75 43.2M114.9,28.3Q115.55 29.55 115.6 31.2Q115.55 32.85 114.9 34.1Q114.25 35.3 113.1 36Q111.9 36.65 110.4 36.65Q108.9 36.65 107.7 36Q106.55 35.3 105.9 34.1Q105.25 32.85 105.25 31.2Q105.25 29.55 105.9 28.3Q106.55 27.1 107.7 26.4Q108.9 25.75 110.4 25.75Q111.9 25.75 113.1 26.4Q114.25 27.1 114.9 28.3M113.15,33.05L113.45 31.2L113.15 29.3Q112.8 28.5 112.1 28.05Q111.4 27.6 110.4 27.6Q109.4 27.6 108.7 28.05Q108 28.5 107.65 29.3Q107.35 30.15 107.35 31.2Q107.35 32.25 107.65 33.05Q108 33.9 108.7 34.35L110.4 34.8Q111.4 34.8 112.1 34.35Q112.8 33.9 113.15 33.05M108.75,42.45L108.45 50.7L107.2 50.7L106.9 42.45L108.75 42.45M106.9,53.7L106.9 51.85L108.75 51.85L108.75 53.7L106.9 53.7M55.1,25.95L55.1 31.3L55.3 33.1Q55.5 33.85 56 34.35Q56.55 34.8 57.55 34.8Q58.55 34.8 59.05 34.35L59.8 33.1L59.95 31.3L59.95 25.95L61.9 25.95L61.9 31.95Q61.9 33.4 61.4 34.45Q60.95 35.5 59.95 36.1Q59 36.65 57.55 36.65Q56.05 36.65 55.1 36.1Q54.15 35.5 53.65 34.45Q53.2 33.4 53.2 31.95L53.2 25.95L55.1 25.95M50.95,34.1Q50.3 35.3 49.15 36Q47.95 36.65 46.45 36.65Q44.95 36.65 43.75 36Q42.6 35.3 41.95 34.1Q41.3 32.85 41.3 31.2Q41.3 29.55 41.95 28.3Q42.6 27.1 43.75 26.4Q44.95 25.75 46.45 25.75Q47.95 25.75 49.15 26.4Q50.3 27.1 50.95 28.3Q51.6 29.55 51.65 31.2Q51.6 32.85 50.95 34.1M48.15,28.05Q47.45 27.6 46.45 27.6Q45.45 27.6 44.75 28.05Q44.05 28.5 43.7 29.3Q43.4 30.15 43.4 31.2Q43.4 32.25 43.7 33.05Q44.05 33.9 44.75 34.35Q45.45 34.8 46.45 34.8L48.15 34.35Q48.85 33.9 49.2 33.05L49.5 31.2L49.2 29.3Q48.85 28.5 48.15 28.05M48.9,43.2L50.8 43.2L50.8 53.7L48.9 53.7L48.9 49.15L43.95 49.15L43.95 53.7L42 53.7L42 43.2L43.95 43.2L43.95 47.3L48.9 47.3L48.9 43.2M40.65,45.05L37.65 45.05L37.65 53.7L35.75 53.7L35.75 45.05L32.8 45.05L32.8 43.2L40.65 43.2L40.65 45.05M55.05,49.15L55.05 51.85L60 51.85L60 53.7L53.1 53.7L53.1 43.2L59.8 43.2L59.8 45.05L55.05 45.05L55.05 47.3L58.75 47.3L58.75 49.15L55.05 49.15M71.25,30.35L70.65 31.35L69.75 32.05L72.1 36.45L70.1 36.45L67.9 32.55L66 32.55L66 36.45L64.05 36.45L64.05 25.95L67.9 25.95L69.75 26.25Q70.55 26.5 71 27.2Q71.5 27.85 71.5 29L71.25 30.35M66,27.55L66 30.75L67.4 30.75L68.7 30.55L69.35 29.95L69.5 29.1L69.35 28.3L68.7 27.75L67.45 27.55L66 27.55M64.1,45.05L64.1 43.2L71.95 43.2L71.95 45.05L68.95 45.05L68.95 53.7L67.05 53.7L67.05 45.05L64.1 45.05M75.25,47.3L78.95 47.3L78.95 49.15L75.25 49.15L75.25 51.85L80.2 51.85L80.2 53.7L73.3 53.7L73.3 43.2L80 43.2L80 45.05L75.25 45.05L75.25 47.3M19.85,27.8L15.1 27.8L15.1 30.05L18.8 30.05L18.8 31.9L15.1 31.9L15.1 34.6L20.05 34.6L20.05 36.45L13.15 36.45L13.15 25.95L19.85 25.95L19.85 27.8M10.8,28.5L9.25 27.8L7.75 27.55L6.9 27.65Q6.45 27.75 6.15 28Q5.85 28.25 5.8 28.7L6.1 29.35L6.9 29.85L7.95 30.2L9.2 30.6L10.35 31.2L11.25 32.15L11.55 33.6L11.45 34.6L10.85 35.6L9.65 36.35L7.5 36.65L5.4 36.45L4.05 35.9L4.25 33.7Q4.7 34.15 5.5 34.45L7.55 34.8L8.9 34.55Q9.4 34.3 9.4 33.65Q9.4 33.15 9.05 32.8L8.2 32.25L7 31.8L5.5 31.25L4.35 30.35Q3.9 29.8 3.85 28.9L4.05 27.8Q4.25 27.25 4.7 26.8Q5.15 26.3 5.9 26.05L7.65 25.75L9.05 25.85L10.25 26.15L11 26.55L10.8 28.5M9.9,43.2L17.75 43.2L17.75 45.05L14.75 45.05L14.75 53.7L12.85 53.7L12.85 45.05L9.9 45.05L9.9 43.2M18.95,45.55Q19.6 44.35 20.75 43.65Q21.95 43 23.45 43Q24.95 43 26.15 43.65Q27.3 44.35 27.95 45.55Q28.6 46.8 28.65 48.45Q28.6 50.1 27.95 51.35Q27.3 52.55 26.15 53.25Q24.95 53.9 23.45 53.9Q21.95 53.9 20.75 53.25Q19.6 52.55 18.95 51.35Q18.3 50.1 18.3 48.45Q18.3 46.8 18.95 45.55M37.65,36.45L35.7 36.45L35.7 31.8L32.1 25.95L34.15 25.95L36.7 30.1L39.25 25.95L41.25 25.95L37.65 31.8L37.65 36.45M28.6,27.8L25.6 27.8L25.6 36.45L23.7 36.45L23.7 27.8L20.75 27.8L20.75 25.95L28.6 25.95L28.6 27.8M23.45,44.85Q22.45 44.85 21.75 45.3Q21.05 45.75 20.7 46.55Q20.4 47.4 20.4 48.45Q20.4 49.5 20.7 50.3Q21.05 51.15 21.75 51.6L23.45 52.05L25.15 51.6Q25.85 51.15 26.2 50.3L26.5 48.45L26.2 46.55Q25.85 45.75 25.15 45.3Q24.45 44.85 23.45 44.85" />
<path style="fill:#95154D;fill-opacity:1" d="M13.55,-7.95L10.55 -7.95L10.55 0.7L8.65 0.7L8.65 -7.95L5.7 -7.95L5.7 -9.8L13.55 -9.8L13.55 -7.95M18,-2.35L20.35 -9.8L21.65 -9.8L24.1 -2.55L26.1 -9.8L28.1 -9.8L25.05 0.7L23.35 0.7L21 -6.3L18.65 0.7L16.85 0.7L13.9 -9.8L15.9 -9.8L18 -2.35M29.3,-7.45Q29.95 -8.65 31.1 -9.35Q32.3 -10 33.8 -10Q35.3 -10 36.5 -9.35Q37.65 -8.65 38.3 -7.45Q38.95 -6.2 39 -4.55Q38.95 -2.9 38.3 -1.65Q37.65 -0.45 36.5 0.25Q35.3 0.9 33.8 0.9Q32.3 0.9 31.1 0.25Q29.95 -0.45 29.3 -1.65Q28.65 -2.9 28.65 -4.55Q28.65 -6.2 29.3 -7.45M35.5,-7.7L33.8 -8.15Q32.8 -8.15 32.1 -7.7Q31.4 -7.25 31.05 -6.45Q30.75 -5.6 30.75 -4.55Q30.75 -3.5 31.05 -2.7Q31.4 -1.85 32.1 -1.4Q32.8 -0.95 33.8 -0.95Q34.8 -0.95 35.5 -1.4Q36.2 -1.85 36.55 -2.7L36.85 -4.55L36.55 -6.45Q36.2 -7.25 35.5 -7.7M49.65,-7.05L49.95 -6.4L50.75 -5.9L51.8 -5.55L53.05 -5.15L54.2 -4.55L55.1 -3.6L55.4 -2.15L55.3 -1.15L54.7 -0.15L53.5 0.6L51.35 0.9L49.25 0.7L47.9 0.15L48.1 -2.05Q48.55 -1.6 49.35 -1.3L51.4 -0.95L52.75 -1.2Q53.25 -1.45 53.25 -2.1Q53.25 -2.6 52.9 -2.95L52.05 -3.5L50.85 -3.95L49.35 -4.5L48.2 -5.4Q47.75 -5.95 47.7 -6.85L47.9 -7.95L48.55 -8.95L49.75 -9.7L51.5 -10L52.9 -9.9L54.1 -9.6L54.85 -9.2L54.65 -7.25L53.1 -7.95L51.6 -8.2L50.75 -8.1Q50.3 -8 50 -7.75L49.65 -7.05M46,-9.8L46 0.7L44.05 0.7L44.05 -9.8L46 -9.8M67.25,-7.1L67.05 -5.85L66.4 -4.9L67.75 -3.95Q68.2 -3.4 68.2 -2.4Q68.2 -1.5 67.85 -0.9L67 0.05Q66.45 0.4 65.8 0.55L64.45 0.7L60.4 0.7L60.4 -9.8L63.25 -9.8L65.35 -9.6Q66.25 -9.4 66.75 -8.85Q67.25 -8.25 67.25 -7.1M64,-8.15L62.35 -8.15L62.35 -5.6L64.2 -5.6L64.75 -5.7L65.25 -6.05L65.5 -6.8L65.3 -7.65L64.8 -8.05L64 -8.15M64.2,-0.95L65.7 -1.25Q66.2 -1.6 66.2 -2.5Q66.2 -3.4 65.65 -3.75L64.3 -4.05L62.35 -4.05L62.35 -0.95L64.2 -0.95M76.5,-7.95L71.75 -7.95L71.75 -5.7L75.45 -5.7L75.45 -3.85L71.75 -3.85L71.75 -1.15L76.7 -1.15L76.7 0.7L69.8 0.7L69.8 -9.8L76.5 -9.8L76.5 -7.95M77.4,-9.8L85.25 -9.8L85.25 -7.95L82.25 -7.95L82.25 0.7L80.35 0.7L80.35 -7.95L77.4 -7.95L77.4 -9.8M85.8,-9.8L93.65 -9.8L93.65 -7.95L90.65 -7.95L90.65 0.7L88.75 0.7L88.75 -7.95L85.8 -7.95L85.8 -9.8M96.95,-1.15L101.9 -1.15L101.9 0.7L95 0.7L95 -9.8L101.7 -9.8L101.7 -7.95L96.95 -7.95L96.95 -5.7L100.65 -5.7L100.65 -3.85L96.95 -3.85L96.95 -1.15M110.95,-6.75L110.7 -5.4L110.1 -4.4L109.2 -3.7L111.55 0.7L109.55 0.7L107.35 -3.2L105.45 -3.2L105.45 0.7L103.5 0.7L103.5 -9.8L107.35 -9.8L109.2 -9.5L110.45 -8.55Q110.95 -7.9 110.95 -6.75M108.8,-7.45L108.15 -8L106.9 -8.2L105.45 -8.2L105.45 -5L106.85 -5L108.15 -5.2L108.8 -5.8L108.95 -6.65L108.8 -7.45M97.85,6.7L97.55 14.95L96.3 14.95L96 6.7L97.85 6.7M91,9.3L86.25 9.3L86.25 11.55L89.95 11.55L89.95 13.4L86.25 13.4L86.25 16.1L91.2 16.1L91.2 17.95L84.3 17.95L84.3 7.45L91 7.45L91 9.3M97.85,17.95L96 17.95L96 16.1L97.85 16.1L97.85 17.95M82,17.95L80.4 17.95L75.65 10.75L75.65 17.95L73.7 17.95L73.7 7.45L75.6 7.45L80.1 14.25L80.1 7.45L82 7.45L82 17.95M64.1,10.8Q63.8 11.65 63.8 12.7Q63.8 13.75 64.1 14.55Q64.45 15.4 65.15 15.85L66.85 16.3L68.55 15.85Q69.25 15.4 69.6 14.55L69.9 12.7L69.6 10.8Q69.25 10 68.55 9.55Q67.85 9.1 66.85 9.1Q65.85 9.1 65.15 9.55Q64.45 10 64.1 10.8M64.15,7.9Q65.35 7.25 66.85 7.25Q68.35 7.25 69.55 7.9Q70.7 8.6 71.35 9.8Q72 11.05 72.05 12.7Q72 14.35 71.35 15.6Q70.7 16.8 69.55 17.5Q68.35 18.15 66.85 18.15Q65.35 18.15 64.15 17.5Q63 16.8 62.35 15.6Q61.7 14.35 61.7 12.7Q61.7 11.05 62.35 9.8Q63 8.6 64.15 7.9M56.6,7.45L56.6 17.95L55 17.95L50.25 10.75L50.25 17.95L48.3 17.95L48.3 7.45L50.2 7.45L54.7 14.25L54.7 7.45L56.6 7.45M43.35,7.45L47.1 17.95L45.1 17.95L44.2 15.4L40.7 15.4L39.8 17.95L37.8 17.95L41.55 7.45L43.35 7.45M43.5,13.55L42.45 10.5L41.35 13.55L43.5 13.55M36.6,7.45L36.6 17.95L34.7 17.95L34.7 13.4L29.75 13.4L29.75 17.95L27.8 17.95L27.8 7.45L29.75 7.45L29.75 11.55L34.7 11.55L34.7 7.45L36.6 7.45M23.45,9.3L23.45 17.95L21.55 17.95L21.55 9.3L18.6 9.3L18.6 7.45L26.45 7.45L26.45 9.3L23.45 9.3" />
</g>
</svg>
