<?xml version="1.0" encoding="utf-8"?>
<svg version="1.1" id="Layer_1"
xmlns="http://www.w3.org/2000/svg"
xmlns:xlink="http://www.w3.org/1999/xlink"
xmlns:author="http://www.sothink.com"
width="14px" height="8px"
xml:space="preserve">
<g id="1262" transform="matrix(1, 0, 0, 1, 0, 0)">
<path style="fill:#543914;fill-opacity:1" d="M1.65,1.6L1.55 1.7Q1.2 2.1 1.25 2.75Q1.3 3.85 2.05 4.2L4.75 5.15L9 6.2L12 6.1L12.15 5.95L12.3 5.8L12.5 5.25L12.5 4.7Q12.3 3.85 8.8 2.6L4.5 1.15L4.15 1.05L3.7 0.95Q2.8 0.85 2.1 1.25Q1.8 1.4 1.65 1.6M13.4,6.05L12.65 7L12.6 7Q11.7 7.8 7.8 7L2.75 5.6Q1.5 5.05 0.95 4.7Q0.4 4.35 0.15 3.4Q-0.1 2.45 0.15 1.8L0.25 1.65Q0.55 1.1 1.5 0.4Q2.4 -0.25 4.45 0.15L5.35 0.4Q8.1 1.2 9.5 1.8L12.1 3Q13.6 3.8 13.6 5.05L13.4 6.05" />
<path style="fill:#C4944D;fill-opacity:1" d="M12.15,5.95L12 6.1L9 6.2L4.75 5.15L2.05 4.2Q1.3 3.85 1.25 2.75Q1.2 2.1 1.55 1.7L1.65 1.6L2.55 1.65L5.45 2.55L9.35 3.8Q11 4.4 12 5.75L12.3 5.8L12.15 5.95" />
<path style="fill:#E9CB9E;fill-opacity:1" d="M2.1,1.25Q2.8 0.85 3.7 0.95L4.15 1.05L4.5 1.15L8.8 2.6Q12.3 3.85 12.5 4.7L12.5 5.25L12.3 5.8L12 5.75Q11 4.4 9.35 3.8L5.45 2.55L2.55 1.65L1.65 1.6Q1.8 1.4 2.1 1.25" />
</g>
</svg>
