<?xml version="1.0" encoding="utf-8"?>
<svg version="1.1" id="Layer_1"
xmlns="http://www.w3.org/2000/svg"
xmlns:xlink="http://www.w3.org/1999/xlink"
xmlns:author="http://www.sothink.com"
width="46px" height="32px"
xml:space="preserve">
<g id="3101" transform="matrix(1, 0, 0, 1, 0.9, 10.15)">
<path style="fill:#FFFFFF;fill-opacity:1" d="M17.15,-0.05L18.95 -5.3L24.05 -0.4L31.5 -5.1L30.25 1.05L38.45 0.75L32.2 6.35L39.15 9.05L30.05 10.65L30.4 16.65L23.45 13.15L18.6 17.75L16.4 12.55L9 15L13.3 9.1L4.8 5.95L13.3 3.25L9.8 -2.75L17.15 -0.05" />
<path style="fill:#E061F7;fill-opacity:1" d="M9.8,-2.75L13.3 3.25L4.8 5.95L13.3 9.1L9 15L16.4 12.55L18.6 17.75L23.45 13.15L30.4 16.65L30.05 10.65L39.15 9.05L32.2 6.35L38.45 0.75L30.25 1.05L31.5 -5.1L24.05 -0.4L18.95 -5.3L17.15 -0.05L9.8 -2.75M18.2,-10.15L24.4 -3.3L34.25 -9.95L32.95 -0.55L43.95 -1.05L36.05 5.85L44.95 10.05L32.75 12.25L33.25 20.3L23.95 15.7L17.5 21.75L14.5 14.85L4.65 18.1L10.45 10.15L-0.9 6L10.4 2.5L4.75 -6.25L15.75 -3.1L18.2 -10.15" />
</g>
</svg>
