<?xml version="1.0" encoding="utf-8"?>
<svg version="1.1" id="Layer_1"
xmlns="http://www.w3.org/2000/svg"
xmlns:xlink="http://www.w3.org/1999/xlink"
xmlns:author="http://www.sothink.com"
width="60px" height="51px"
xml:space="preserve">
<g id="3123" transform="matrix(1, 0, 0, 1, 37.35, 12.65)">
<path style="fill:#DB2AF0;fill-opacity:1" d="M20.1,-1.65L20.05 -2.1L20.2 -2.7L20.85 -3Q21.7 -3 21.65 -2.2L21.5 -1.6Q21.25 -1.2 20.85 -1.2Q20.3 -1.2 20.1 -1.65M14.45,21.2L14.4 20.85L14.45 20.5L14.75 20.4Q15.15 20.55 15.15 21L14.75 21.35L14.45 21.2M9.9,31.7Q9.9 31.2 10.4 30.35Q10.9 29.35 11.25 29.35Q12.5 29.35 12.9 30.4Q13.15 30.95 13.05 31.45Q13.05 33.4 11.15 33.4Q10.65 33.4 10.25 32.55L9.9 31.7M-17.8,-11.4Q-17.35 -12.65 -16.3 -12.65Q-15.7 -12.65 -15.45 -12.3L-15.3 -11.85Q-15.3 -11.15 -15.75 -9.7Q-16.3 -7.95 -17 -7.95Q-17.85 -7.95 -18.1 -8.9L-18.1 -9.55L-18.1 -9.85L-17.8 -11.4M-11.2,14.7Q-12.25 14.7 -12.65 13.65L-12.8 12.9L-12.85 12.5L-12.2 11.15Q-11.55 10 -11.25 10Q-10.35 10 -9.75 13.45Q-9.75 14.7 -11.2 14.7M-28.3,37L-27.95 36.3Q-27.5 35.85 -27.1 35.85Q-26.3 35.85 -26.2 37.55Q-26.2 38.35 -27.05 38.35Q-27.75 38.35 -28.1 37.7L-28.3 37" />
<path style="fill:#DB2AF0;fill-opacity:1" d="M9.5,-0.9L9.25 -0.9L9.2 -1.15L9.2 -1.4L9.5 -1.5L9.8 -1.15Q9.7 -0.9 9.5 -0.9M17.3,-9.8L17.65 -9.45L17.3 -9.1L16.95 -9.3Q16.95 -9.65 17.3 -9.8M21.9,21.15Q21.55 21.05 21.55 20.75L22 20.7L22.1 20.65L22.2 20.9L22.15 21.2L21.9 21.15M-29.45,-5.1L-29.05 -4.75L-29.45 -4.45L-29.8 -4.7L-29.45 -5.1M-16.45,6.35L-16.35 6.3L-16.25 6.6L-16.35 6.85L-16.7 6.85L-16.8 6.4L-16.45 6.35M-23.8,6.55Q-23.55 6.65 -23.45 6.9L-23.55 7.25L-23.8 7.35L-24.05 7.25L-24.2 6.9L-24.05 6.6L-23.8 6.55M-31.8,1.9L-32.1 2.1L-32.4 1.85L-32.1 1.45Q-31.8 1.55 -31.8 1.9M-37.15,11.2L-36.9 11.15Q-36.65 11.25 -36.45 11.5Q-36.45 11.85 -36.9 12.05L-37.3 11.8L-37.35 11.55Q-37.35 11.25 -37.15 11.2M-26.05,22.55L-26.1 22.85L-26.2 22.85L-26.35 22.9L-26.6 22.85L-26.7 22.5L-26.6 22.2L-26.35 22.15L-26.1 22.2L-26.05 22.55M-33.95,25.65L-33.55 26Q-33.55 26.3 -33.95 26.6L-34.3 26.5L-34.4 26.15L-34.25 25.8L-33.95 25.65" />
</g>
</svg>
