<?xml version="1.0" encoding="utf-8"?>
<svg version="1.1" id="Layer_1"
xmlns="http://www.w3.org/2000/svg"
xmlns:xlink="http://www.w3.org/1999/xlink"
xmlns:author="http://www.sothink.com"
width="118px" height="39px"
xml:space="preserve">
<g id="435" transform="matrix(1, 0, 0, 1, -10.55, 16.55)">
<linearGradient
id="LinearGradID_577" gradientUnits="userSpaceOnUse" gradientTransform="matrix(0, 0.00823975, -0.00872803, 0, 17.7, -6.6)" spreadMethod ="pad" x1="-819.2" y1="0" x2="819.2" y2="0" >
<stop  offset="0" style="stop-color:#FFF980;stop-opacity:1" />
<stop  offset="1" style="stop-color:#E7950A;stop-opacity:1" />
</linearGradient>
<path style="fill:url(#LinearGradID_577) " d="M39.4,-15.85Q39.7 -15.6 39.85 -14.5Q39.75 -12.85 39.4 -12.5L39.35 -12.45Q38.75 -11.85 37.45 -11.85L30.6 -11.85L30.6 -9.65L36.8 -9.65Q38.05 -9.65 38.65 -9L38.7 -8.95Q39.4 -8.3 39.4 -7.35Q39.4 -6.35 38.7 -5.65Q38.15 -5 36.8 -5L30.6 -5L30.6 -2.1L37.7 -2.1Q39 -2.1 39.6 -1.5L39.65 -1.45L40.1 -0.85L40.35 0.3L40.1 1.4L39.65 2L39.6 2.05Q39 2.65 37.7 2.65L28.25 2.65Q26.55 2.65 25.9 1.85L25.95 1.85Q25.15 1.15 25.15 -0.5L25.15 -13.4Q25.15 -14.4 25.45 -15L25.45 -14.95Q25.75 -15.8 26.6 -16.15L26.7 -16.2L28.25 -16.55L37.45 -16.55Q38.75 -16.55 39.35 -15.9L39.4 -15.85M36.5,-15Q35.85 -12.65 38.7 -13.15L38.8 -13.35L39.1 -14.1L39.15 -14.45L39 -14.65Q38 -15.4 36.75 -15.2L36.5 -15M27.75,-12.95L28 -13.05Q30.25 -14.5 28 -15.2L27.75 -15.15L26.9 -14.6L26.9 -14.25Q27 -13.3 27.75 -12.95" />
<path style="fill:#FFFFFF;fill-opacity:1" d="M36.75,-15.2Q38 -15.4 39 -14.65L39.15 -14.45L39.1 -14.1L38.8 -13.35L38.7 -13.15Q35.85 -12.65 36.5 -15L36.75 -15.2M26.9,-14.25L26.9 -14.6L27.75 -15.15L28 -15.2Q30.25 -14.5 28 -13.05L27.75 -12.95Q27 -13.3 26.9 -14.25" />
<linearGradient
id="LinearGradID_578" gradientUnits="userSpaceOnUse" gradientTransform="matrix(0, 0.00823975, -0.00872803, 0, 18.5, 1.1)" spreadMethod ="pad" x1="-819.2" y1="0" x2="819.2" y2="0" >
<stop  offset="0" style="stop-color:#FFF980;stop-opacity:1" />
<stop  offset="1" style="stop-color:#E7950A;stop-opacity:1" />
</linearGradient>
<path style="fill:url(#LinearGradID_578) " d="M42.55,-8.25Q42.05 -8.25 41.8 -7.7Q41.4 -6.85 41.95 -6.15L44.55 -6L44.6 -6.2Q44.9 -8.3 42.55 -8.25M41.55,-8.35L41.6 -8.4Q42.35 -9.1 43.45 -9.1Q45 -9.1 45.55 -8.05L46.4 -6.1L46.4 -6.15L49.35 2.55L52.3 -6.2L52.8 -7.6Q53 -8.15 53.55 -8.6L53.65 -8.65Q54.15 -9.1 55.2 -9.1L56.45 -8.8L56.5 -8.75L57.5 -7.8L57.5 -7.75L57.8 -6.55L57.75 -5.8L57.55 -5.05L57.45 -4.85L57.3 -4.5L53.15 6.75L53.15 6.7L52.7 8.05L52.7 8L52.1 9.2L51 10.2L49.3 10.65Q48.2 10.65 47.55 10.2Q46.85 9.8 46.5 9.2L45.85 7.95L45.4 6.7L45.4 6.75L41.3 -4.4L41.15 -4.95L40.9 -5.75Q40.6 -6.55 40.9 -7.3L41.55 -8.35M54.1,-6.75L54.25 -5.85L54.45 -5.7L57.1 -5.9L57.15 -6.1Q57.05 -8.05 54.8 -7.75Q54.05 -7.65 54.1 -6.75" />
<path style="fill:#FFFFFF;fill-opacity:1" d="M44.6,-6.2L44.55 -6L41.95 -6.15Q41.4 -6.85 41.8 -7.7Q42.05 -8.25 42.55 -8.25Q44.9 -8.3 44.6 -6.2M54.8,-7.75Q57.05 -8.05 57.15 -6.1L57.1 -5.9L54.45 -5.7L54.25 -5.85L54.1 -6.75Q54.05 -7.65 54.8 -7.75" />
<linearGradient
id="LinearGradID_579" gradientUnits="userSpaceOnUse" gradientTransform="matrix(0, 0.00823975, -0.00872803, 0, 18.5, 7.35)" spreadMethod ="pad" x1="-819.2" y1="0" x2="819.2" y2="0" >
<stop  offset="0" style="stop-color:#FFF980;stop-opacity:1" />
<stop  offset="1" style="stop-color:#E7950A;stop-opacity:1" />
</linearGradient>
<path style="fill:url(#LinearGradID_579) " d="M60,-2.25L61.55 -2.6L70.75 -2.6Q72.05 -2.6 72.65 -1.95L72.7 -1.9Q73.4 -1.3 73.4 -0.25Q73.4 0.75 72.7 1.45L72.65 1.5Q72.05 2.1 70.75 2.1L63.9 2.1L63.9 4.3L70.1 4.3Q71.35 4.3 71.95 4.95L72 5Q72.7 5.65 72.7 6.6Q72.7 7.6 72 8.3Q71.45 8.95 70.1 8.95L63.9 8.95L63.9 11.85L71 11.85Q72.3 11.85 72.9 12.45L72.95 12.5Q73.65 13.15 73.65 14.25Q73.65 15.25 72.95 15.95L72.9 16Q72.3 16.6 71 16.6L61.55 16.6Q59.85 16.6 59.2 15.8L59.25 15.8Q58.45 15.1 58.45 13.45L58.45 0.55Q58.45 -0.45 58.75 -1.05L58.75 -1Q59.05 -1.85 59.9 -2.2L60 -2.25M71.3,-1.5Q69.3 1 72.95 0.05L72.9 -0.15Q72.65 -1.3 71.3 -1.5M60.3,-0.25L60.2 0.5Q61.55 1.8 62.7 0.4L62.7 0.25Q62.85 -1.35 61.05 -1Q60.5 -0.9 60.3 -0.25" />
<path style="fill:#FFFFFF;fill-opacity:1" d="M72.9,-0.15L72.95 0.05Q69.3 1 71.3 -1.5Q72.65 -1.3 72.9 -0.15M61.05,-1Q62.85 -1.35 62.7 0.25L62.7 0.4Q61.55 1.8 60.2 0.5L60.3 -0.25Q60.5 -0.9 61.05 -1" />
<linearGradient
id="LinearGradID_580" gradientUnits="userSpaceOnUse" gradientTransform="matrix(0, 0.00823975, -0.00872803, 0, 18.5, 12.25)" spreadMethod ="pad" x1="-819.2" y1="0" x2="819.2" y2="0" >
<stop  offset="0" style="stop-color:#FFF980;stop-opacity:1" />
<stop  offset="1" style="stop-color:#E7950A;stop-opacity:1" />
</linearGradient>
<path style="fill:url(#LinearGradID_580) " d="M87.9,20.85Q87.2 21.5 85.9 21.5L77.5 21.5Q75.85 21.5 75.15 20.7Q74.35 20 74.35 18.35L74.35 5.15Q74.35 3.65 75.1 2.9Q75.8 2.05 77.1 2.05Q78.25 2.05 79.05 2.85Q79.85 3.55 79.85 5.15L79.85 16.65L85.9 16.65Q87.2 16.65 87.9 17.3Q88.65 18 88.65 19.1Q88.65 20.15 87.9 20.85M76.55,3.9Q76 3.9 76.2 4.4Q77.1 6.6 78.95 4.75L78.85 4.55Q78.15 3.4 76.55 3.9" />
<path style="fill:#FFFFFF;fill-opacity:1" d="M78.85,4.55L78.95 4.75Q77.1 6.6 76.2 4.4Q76 3.9 76.55 3.9Q78.15 3.4 78.85 4.55" />
<linearGradient
id="LinearGradID_581" gradientUnits="userSpaceOnUse" gradientTransform="matrix(0, 0.00823975, -0.00872803, 0, 18.5, 12.25)" spreadMethod ="pad" x1="-819.2" y1="0" x2="819.2" y2="0" >
<stop  offset="0" style="stop-color:#FFF980;stop-opacity:1" />
<stop  offset="1" style="stop-color:#E7950A;stop-opacity:1" />
</linearGradient>
<path style="fill:url(#LinearGradID_581) " d="M110.65,2.9Q111.4 3.6 111.4 5.15L111.4 13.4Q111.4 15.55 110.95 17.05Q110.5 18.65 109.2 19.9Q108.1 20.9 106.65 21.35L103.45 21.8L99.75 21.3L99.8 21.35Q98.05 20.85 97 19.75Q95.95 18.7 95.4 17.05Q94.95 15.5 94.95 13.4L94.95 5.15Q94.95 3.65 95.7 2.9Q96.45 2.05 97.65 2.05Q99 2.05 99.7 2.9Q100.45 3.65 100.45 5.15L100.45 13.6Q100.45 14.85 100.7 15.7Q100.9 16.3 101.45 16.65L101.5 16.7L103.2 17.05Q104.65 17.05 105.25 16.35Q105.9 15.45 105.9 13.65L105.9 5.15Q105.9 3.6 106.65 2.9L106.7 2.85Q107.4 2.05 108.65 2.05Q109.9 2.05 110.6 2.85L110.65 2.9M108.05,3.95Q107.6 4.15 107.7 4.65Q108.55 6.8 110.85 5.5L110.9 5.3Q110.85 3.5 108.8 3.65L108.05 3.95M98.05,3.4Q96.15 3.4 96.2 5.15L98.5 5.2L98.6 5Q98.95 3.9 98.05 3.4" />
<path style="fill:#FFFFFF;fill-opacity:1" d="M108.8,3.65Q110.85 3.5 110.9 5.3L110.85 5.5Q108.55 6.8 107.7 4.65Q107.6 4.15 108.05 3.95L108.8 3.65M98.6,5L98.5 5.2L96.2 5.15Q96.15 3.4 98.05 3.4Q98.95 3.9 98.6 5" />
<linearGradient
id="LinearGradID_582" gradientUnits="userSpaceOnUse" gradientTransform="matrix(0, 0.00823975, -0.00872803, 0, 18.5, 12.25)" spreadMethod ="pad" x1="-819.2" y1="0" x2="819.2" y2="0" >
<stop  offset="0" style="stop-color:#FFF980;stop-opacity:1" />
<stop  offset="1" style="stop-color:#E7950A;stop-opacity:1" />
</linearGradient>
<path style="fill:url(#LinearGradID_582) " d="M127.85,5.9Q128.3 7.05 128.3 8.5Q128.3 11.6 126.3 13.25Q124.5 14.8 120.85 14.8L118.65 14.8L118.65 18.65Q118.65 20.15 117.9 20.95Q117.1 21.8 115.9 21.8Q114.7 21.8 113.9 20.95Q113.2 20.2 113.2 18.7L113.2 5.45Q113.2 3.8 114 3.1L114.05 3.05Q114.8 2.3 116.4 2.3L120.85 2.3L124.15 2.7Q125.4 3 126.35 3.85L126.4 3.9Q127.35 4.7 127.85 5.85L127.85 5.9M124,4.4Q123.65 7.1 126.55 6.3L126.6 6.1Q126.7 3.85 124.3 4.15Q124.05 4.15 124 4.4M122.5,9.5L122.75 8.55Q122.75 7.85 122.4 7.4Q121.75 6.95 120 6.95L118.65 6.95L118.65 10.2L120 10.2L121.75 10L122.5 9.5M116.55,4.15Q114.65 4.1 114.95 5.9L117.25 5.95L117.35 5.75Q117.8 4.4 116.55 4.15" />
<path style="fill:#FFFFFF;fill-opacity:1" d="M124.3,4.15Q126.7 3.85 126.6 6.1L126.55 6.3Q123.65 7.1 124 4.4Q124.05 4.15 124.3 4.15M117.35,5.75L117.25 5.95L114.95 5.9Q114.65 4.1 116.55 4.15Q117.8 4.4 117.35 5.75" />
<linearGradient
id="LinearGradID_583" gradientUnits="userSpaceOnUse" gradientTransform="matrix(0, 0.00823975, -0.00872803, 0, 17.7, 1.4)" spreadMethod ="pad" x1="-819.2" y1="0" x2="819.2" y2="0" >
<stop  offset="0" style="stop-color:#FFF980;stop-opacity:1" />
<stop  offset="1" style="stop-color:#E7950A;stop-opacity:1" />
</linearGradient>
<path style="fill:url(#LinearGradID_583) " d="M12.1,-6.2L12.2 -5.3Q12.6 -4.95 13.1 -4.75Q13.75 -4.5 14.25 -4.95Q14.75 -5.4 14.7 -6.1L14.5 -6.65L14.3 -6.8L12.75 -6.95Q12.1 -6.9 12.1 -6.2M13.3,-8.8Q14.45 -8.8 15.25 -8Q16.05 -7.3 16.05 -5.7L16.05 5.8L22.1 5.8Q23.4 5.8 24.1 6.45Q24.85 7.15 24.85 8.25Q24.85 9.3 24.1 10Q23.4 10.65 22.1 10.65L13.7 10.65Q12.05 10.65 11.35 9.85Q10.55 9.15 10.55 7.5L10.55 -5.7Q10.55 -7.2 11.3 -7.95Q12 -8.8 13.3 -8.8" />
<path style="fill:#FFFFFF;fill-opacity:1" d="M12.75,-6.95L14.3 -6.8L14.5 -6.65L14.7 -6.1Q14.75 -5.4 14.25 -4.95Q13.75 -4.5 13.1 -4.75Q12.6 -4.95 12.2 -5.3L12.1 -6.2Q12.1 -6.9 12.75 -6.95" />
</g>
</svg>
