<?xml version="1.0" encoding="utf-8"?>
<svg version="1.1" id="Layer_1"
xmlns="http://www.w3.org/2000/svg"
xmlns:xlink="http://www.w3.org/1999/xlink"
xmlns:author="http://www.sothink.com"
width="7px" height="8px"
xml:space="preserve">
<g id="396" transform="matrix(1, 0, 0, 1, 0, 0)">
<path style="fill:#38382E;fill-opacity:1" d="M4.35,1.05Q4.9 2.8 4.6 4.3L5.3 4.8L4.65 5.4Q5.15 6.2 4.95 7L3.75 7.2Q1.9 7.35 1.3 5.45Q0.65 3.5 0.9 2.3Q1.1 1.1 2.25 0.85L4.3 1L4.35 1.05" />
<path style="fill:#645D4C;fill-opacity:1" d="M4.65,5.4L5.3 4.8L4.6 4.3Q4.9 2.8 4.35 1.05Q5.2 1.45 5.75 3.25Q6.25 5.05 5.9 6.05L4.95 7Q5.15 6.2 4.65 5.4" />
<path style="fill:#202017;fill-opacity:1" d="M4.3,1L2.25 0.85Q1.1 1.1 0.9 2.3Q0.65 3.5 1.3 5.45Q1.9 7.35 3.75 7.2L4.95 7L5.9 6.05Q6.25 5.05 5.75 3.25Q5.2 1.45 4.35 1.05L4.3 1M4.8,0.4Q6 1 6.5 3.15Q6.95 5.3 6.65 6.3Q6.4 7.15 5.2 7.6L4.75 7.7L1.95 7.55Q0.75 7 0.35 5.1Q-0.1 3.15 0.05 2.35Q0.2 1.5 0.8 0.95Q1.35 0.35 2.45 0.1Q3.2 -0.1 4 0.1L4.8 0.4" />
</g>
</svg>
