<?xml version="1.0" encoding="utf-8"?>
<svg version="1.1" id="Layer_1"
xmlns="http://www.w3.org/2000/svg"
xmlns:xlink="http://www.w3.org/1999/xlink"
xmlns:author="http://www.sothink.com"
width="21px" height="17px"
xml:space="preserve">
<g id="1189" transform="matrix(1, 0, 0, 1, -41.45, -112.75)">
<path style="fill:#4A4131;fill-opacity:1" d="M53.05,128.6Q56.55 128.2 56.45 126.95Q56.45 126.3 55.75 125.8Q55.05 125.25 54.4 125.25L53.25 125.25L53 124.2L55.8 124.6L55.25 123.35L55 123L54.2 121.9Q53.25 120.85 52 121.05L51.45 121.05L50.9 120.4L50.8 120.3L50.9 120.25L51.05 120.2L53.55 121L52.95 120.2L51.2 117.7Q50.95 118.7 50.1 119.65L49.9 119.8L48.35 121.1L48.2 121.15L47.3 120.6L48.65 119.8L49.5 119.2Q50.1 118.5 50.3 117.35L50.5 116.65L50.3 116.25L50.05 115.5Q49.05 113.4 46.2 113.5L46.15 113.65Q41.55 114.4 42.65 118.55Q42.75 119.25 43.1 119.7L41.85 119.4L41.8 119.15Q41.45 118.1 41.45 115.95Q41.5 113.7 43.75 113.25L45.8 112.8L45.85 112.75L45.95 112.75Q47.8 112.75 49.45 113.5Q50.7 114.15 51.3 115.35L51.35 115.5L51.6 116.35L51.6 116.75L53.65 119.2L53.85 119.5L54.15 119.4Q54.25 119.25 54.45 119.2L55 119.05L57.4 119.05L58.95 119.25L59.85 119.5Q60.05 119.6 60.25 119.85L60.25 119.9L60.25 120L60.3 120.05L61.1 120.35Q62.55 121 61.75 122.6Q60.95 124.3 59.25 124.7L57.1 124.75L56.95 124.75L57.1 125.45Q57.5 126.35 57.5 127.3L57.35 127.95Q56.95 129.15 53.25 129.5L52.6 129.55L53.05 128.6M54.25,120.05L55.7 122.35L55.85 122.65L56.1 122.95L56.15 123L56.2 123.15L56.6 123.9Q58.9 124.25 60.3 123.1Q61.6 121.95 61.15 121.25L60.4 121.3L59.75 120.85L59.6 120.65L59.5 120.6Q57.1 119.5 54.55 120L54.25 120.05" />
<path style="fill:#B3A38A;fill-opacity:1" d="M46.55,120L44.7 120L43.1 119.7Q42.75 119.25 42.65 118.55Q41.55 114.4 46.15 113.65L46.2 113.5Q49.05 113.4 50.05 115.5L50.3 116.25L50.5 116.65L50.3 117.35Q50.1 118.5 49.5 119.2L48.65 119.8L47.3 120.6L46.55 120M51.45,121.05L52 121.05Q53.25 120.85 54.2 121.9L55 123L55.25 123.35L55.8 124.6L53 124.2L52.9 123.65L52.85 123.55Q51.35 123.45 50.45 122.75L49.35 121.95L48.05 122.25L47.15 121.6L48.2 121.15L48.35 121.1L49.9 119.8L50.1 119.65Q50.95 118.7 51.2 117.7L52.95 120.2L53.55 121L51.05 120.2L50.9 120.25L50.8 120.3L50.65 120.4L50.65 120.45Q50.7 121 51.45 121.05M54.35,126.8Q54.35 125.9 53.25 125.25L54.4 125.25Q55.05 125.25 55.75 125.8Q56.45 126.3 56.45 126.95Q56.55 128.2 53.05 128.6Q54.35 127.75 54.35 126.8" />
<path style="fill:#625643;fill-opacity:1" d="M52.3,125.25Q51.4 125.25 50.65 125.6L49.8 126Q48.65 126.7 48.65 127.6Q48.9 128.35 50.2 128.6L52.85 128.6L53.05 128.6L52.6 129.55L51.5 129.65L50.65 129.65Q49 129.45 48.25 128.95Q46.9 128 47.9 126.3L48.2 125.9Q47.85 125.55 47.9 125Q47.8 123.35 46.65 122.45Q45.85 121.9 44.65 121.65Q43.5 121.45 42.8 120.8L41.85 119.4L43.1 119.7Q43.55 120.4 44.35 120.65L46.6 120.8L47.3 120.6L48.2 121.15L47.15 121.6L48.05 122.25L48.1 122.3L48.45 122.8Q48.9 123.6 49.15 125.1L49.85 124.8Q50.65 124.4 51.8 124.3L52.3 124.25L53 124.2L53.25 125.25L52.3 125.25M50.65,120.45L50.65 120.4L50.8 120.3L50.9 120.4L51.45 121.05Q50.7 121 50.65 120.45" />
<path style="fill:#CCC6B8;fill-opacity:1" d="M43.1,119.7L44.7 120L46.55 120L47.3 120.6L46.6 120.8L44.35 120.65Q43.55 120.4 43.1 119.7M48.35,122.55L48.1 122.3L48.05 122.25L49.35 121.95L50.45 122.75Q51.35 123.45 52.85 123.55L52.9 123.65L53 124.2L52.3 124.25L51.8 124.3Q50.65 124.4 49.85 124.8Q49.65 123.6 48.35 122.55M50.1,127.75Q50.1 126.55 50.65 125.6Q51.4 125.25 52.3 125.25L53.25 125.25Q54.35 125.9 54.35 126.8Q54.35 127.75 53.05 128.6L52.85 128.6L50.2 128.6L50.1 127.75" />
<path style="fill:#E9E7DA;fill-opacity:1" d="M49.85,124.8L49.15 125.1Q48.9 123.6 48.45 122.8L48.1 122.3L48.35 122.55Q49.65 123.6 49.85 124.8M50.2,128.6Q48.9 128.35 48.65 127.6Q48.65 126.7 49.8 126L50.65 125.6Q50.1 126.55 50.1 127.75L50.2 128.6" />
<path style="fill:#7B705E;fill-opacity:1" d="M54.55,120Q57.1 119.5 59.5 120.6L59.6 120.65L59.75 120.85L60.4 121.3L61.15 121.25Q61.6 121.95 60.3 123.1Q58.9 124.25 56.6 123.9L56.2 123.15L56.15 123L56.1 122.95L55.85 122.65L55.7 122.35L54.25 120.05L54.55 120" />
</g>
</svg>
