<?xml version="1.0" encoding="utf-8"?>
<svg version="1.1" id="Layer_1"
xmlns="http://www.w3.org/2000/svg"
xmlns:xlink="http://www.w3.org/1999/xlink"
xmlns:author="http://www.sothink.com"
width="42px" height="39px"
xml:space="preserve">
<g id="407" transform="matrix(1, 0, 0, 1, 0, 0)">
<path style="fill:#1F2C31;fill-opacity:1" d="M41.35,21.15L40.45 21.5L40.45 21.35L40.45 21L40.4 20.85L40.2 19.9L39.8 18.95L39.6 18.55Q38.75 16.85 35.85 16.55L36 17L36.15 17.5L36.4 18.2L36.9 19.8L36.95 19.9L36.4 19.85L35.25 19.95L34.85 20.05L35.2 19.75L35.4 19.65L35.5 19.6L34.9 18.3L34.8 18.05L34.35 16.95L34.25 16.7L33.85 15.45L33.8 15.4L32.05 14.4L27.4 11.7L25.65 10.5L21.35 6.95L17.7 3.45L16.4 4.3L11.75 7L10.65 7.55L6.75 9.25L4.15 10.15Q3.6 10.3 2.5 11.95L1.95 12.8L1.9 12.9L1.45 13.6L1.25 14L1.25 14.1L1.15 14.9L1.2 15.6L1.25 15.75L0.6 15.75L0.05 15.8L0 14.15L0.05 14Q0.35 12.95 1.15 11.85Q2 10.6 3.1 9.6L3.8 9.05Q6.6 4.8 10.3 2.7Q13.95 0.55 19.2 0.1Q22.7 -0.25 26.4 0.8L30.1 2.1Q35.75 4.55 38.1 9.1Q39.7 12.15 40 14.5L40.05 14.9L39.95 16.55Q41.35 18.3 41.65 20.25L41.7 20.95L41.35 21.15M5.6,23.55L6.85 24.4L6.6 25.95Q6.4 27.65 6.6 29.15L12.55 29.4Q19.65 30.3 23.3 33.65Q25.4 31.4 26 28.8L26.15 26.65L27.55 26.55L27.55 27.15L27.55 27.35Q27.5 29.85 26.3 32.25Q25.6 33.65 24.55 34.85L24.2 35.25L22.95 36.4Q23.25 37.15 25.8 37.35Q28.25 37.5 30.65 36.3Q33.05 35.1 34.55 33.45Q36.05 31.75 36.55 30.4L36.9 29.5L37.05 29L39.1 27.5L38.55 29.45Q36.6 35 31.55 37.45Q29 38.65 26.85 38.75L23.3 38.35Q21.9 37.85 20.8 36.5L22.6 34.95L22.4 34.8L20 33.25Q18 32.05 14.1 31.2L7.2 30.85L7.35 31.45L7.95 33.55Q8.05 34.05 6.15 33.75Q4.85 33.55 3.7 32.8Q2.45 32.05 1.85 30.95Q0.55 28.7 0.4 26.5L0.35 26.3Q0.2 24.2 0.7 21.8L0.8 21.5L2.1 21.85L2.05 22.15Q1.5 25.3 1.85 27.3L2.05 28.2Q2.45 29.55 3.1 30.35L3.65 30.95Q4.7 31.9 6.2 32.35Q5.8 31.65 5.65 30.7L5.5 29.9Q5 26.4 5.6 23.55M15.6,3.35L16.6 2.6Q18.15 1.35 18.8 2.05L19.8 3.2L21.6 5.2L22.5 6Q25.25 8.45 29.1 10.95L31.75 12.6L35.2 14.6L35.35 15L37.75 15.35L38.5 15.65L38.45 15.2Q38.05 12.25 36.75 9.9Q34.2 5.25 28.25 2.95L25.8 2.15L21.6 1.5L20.9 1.45Q18.3 1.35 15.8 2Q11.55 3.05 8.25 6L6.3 7.95L6.25 8.05L11.95 5.45L15.6 3.35M24.95,19.25L23.15 21.15Q22.85 21.1 22.55 20.45Q22.25 19.7 22.05 17.95Q21.95 17.05 22.1 16.45L22.35 15.7L22.6 15.3L22.65 15.25L24.25 13.25L25 12.55Q25.25 12.15 25.65 13.85L25.7 14.25L26.05 16.65L25.9 17.25L24.95 19.25M31.25,18.55L31.15 18.95Q30.75 20.15 29.15 20.85Q28.5 20 28.4 18.9L28.5 17.85L28.8 17.3L28.9 17.15L29 17L30.05 16L30.4 15.7L30.8 15.4L31.1 15.95L31.25 16.55Q31.45 17.55 31.25 18.55M29.1,18Q29.1 19.25 29.45 19.75Q30.2 19.2 30.4 18.3L30.35 16.85Q29.8 17.15 29.15 18L29.1 18M22.95,18.35L23.25 20.05L24.05 18.85L25 17.05L25.05 16.85L24.75 14.05L23.5 15.55L23.1 16.65Q22.95 17.05 22.95 17.5L22.95 18.35M11.75,14.8L11.85 14.4L11.95 14.2L12.75 13.05L12.95 12.75L13.3 12.15L15.1 9.35L15.45 8.85L16.55 7.3Q16.8 7 17.05 7.1L17.45 9.3L17.6 10.2L17.7 11.05Q18.1 14.9 17.8 15.4L17.7 15.65L17.4 16.1L15.6 19.4Q13.7 22.9 12.8 22.55Q11.55 16.55 11.75 14.8M9.1,14.8Q8.3 17.3 6.35 18.7Q6.05 18.65 5.75 18Q5.45 17.25 5.25 15.5L5.25 14.2Q5.3 13.75 5.5 13.4L5.6 13.2L5.85 12.8Q6.75 11.4 7.6 10.6L8.2 10.1Q8.35 9.85 8.55 10.45L8.9 11.8L9.1 13.15L9.2 13.85L9.25 14.2L9.2 14.5L9.1 14.8M6.5,13.5L6.25 14.25L6.15 15.05Q6.05 16.2 6.45 17.6Q7.55 16.1 8.25 14.4L7.95 11.6Q7.2 12.3 6.7 13.1L6.5 13.5M13.15,14.95Q12.9 16.75 13.45 20.55L16.5 14.65L16.2 9.8L13.25 14.35L13.15 14.75L13.15 14.95" />
<path style="fill:#162327;fill-opacity:1" d="M0.8,21.5L0.8 21.35L1.25 19.75L0.55 18.45L0.5 18.25Q0.1 17.15 0.05 15.85L0.05 15.8L0.6 15.75L1.25 15.75Q1.3 16.7 1.75 17.85L2 18.5Q2.15 18.75 2.35 18.75Q8.95 20.15 12.6 25.65L16.6 24.05Q19.65 22.95 23.5 22.8L28.4 23.15L31.75 24.05Q32.65 22.25 33.7 21.15L33.9 20.9L34.85 20.05L35.25 19.95L36.4 19.85L36.95 19.9L36.95 19.95L36.9 20L36.8 20.1L36.45 20.35L35.75 21L33.65 23.35L33.5 23.55L33 24.3Q33.1 25 34.15 25.7Q35.15 26.4 36.4 26.2L36.9 26.05L37.9 25.7L38.2 25.5L38.55 25.25Q39.4 24.65 39.85 23.75L39.95 23.5L40.45 21.5L41.35 21.15L41.7 20.95L41.7 21.25L41.7 21.7L41.35 23.5Q41 24.55 40.25 25.4L39.35 26.25L39.15 27.4L39.1 27.5L37.05 29L37.05 28.95L37.5 27.3L37.5 27.25L37.15 27.35L36.25 27.5L34.25 27.4Q33.05 27 32.5 26.15L32.15 25.45L28.35 24.55L27.35 24.4L27.55 26.55L26.15 26.65L25.85 24.2L25.1 24.1Q21.85 23.85 18.1 25.2L13.4 26.95L11.95 27.1L10.65 25.55L8 22.9L7.3 22.35L7.3 22.4Q7 23.35 6.85 24.4L5.6 23.55Q5.8 22.55 6.15 21.6L4.5 20.9L3.45 20.55L2.55 20.3L2.25 21.25L2.15 21.7L2.1 21.85L0.8 21.5" />
<path style="fill:#A8ACAB;fill-opacity:1" d="M4.75,14.15L4.95 13.4L4.95 13.3L5.3 12.35L6.05 10.85L4.15 11.1L1.95 12.8L2.5 11.95Q3.6 10.3 4.15 10.15L6.75 9.25L10.65 7.55Q15.35 6.25 17.2 4.8L19.9 7.3L20.45 7.7Q22.7 9.25 25.65 10.5L27.4 11.7L32.05 14.4L33.8 15.4L33.85 15.45L34.25 16.7L34.25 16.95L31.1 15.95L30.8 15.4L30.4 15.7L30.05 16L29 17L29.25 16.4L29.75 15.5L28.2 14.9L25.65 13.85Q25.25 12.15 25 12.55L24.25 13.25L22.65 15.25L22.6 15.3Q22.8 13.9 23.35 12.85Q20.25 11.35 18.15 9.8L17.45 9.3L17.05 7.1Q16.8 7 16.55 7.3L15.45 8.85L15.1 9.35L13.3 12.15L12.95 12.75L12.75 13.05L12.8 12.8Q13.45 10.65 14.45 9.15L8.55 10.45Q8.35 9.85 8.2 10.1L7.6 10.6Q6.75 11.4 5.85 12.8L5.6 13.2L5.5 13.4Q5.3 13.75 5.25 14.2L4.75 14.15M40.2,20.65L39.05 19.9Q38.8 20.25 38.6 20.25L38.45 20.25Q38.05 20.1 37.9 19.2Q37.7 18.3 36.4 18.2L36.15 17.5L36 17L36.7 17Q37.95 17.3 38.15 17.9L38.4 18.5L38.75 18.95L38.85 18.85L39.05 18.65L39.8 18.95L40.2 19.9L40.4 20.85L40.2 20.65M18.8,2.05Q18.15 1.35 16.6 2.6L15.6 3.35Q13 3.65 10.9 4.55Q9.6 5.1 8.25 6Q11.55 3.05 15.8 2Q18.3 1.35 20.9 1.45L21.6 1.5L23.95 2L25.65 2.5L27.15 3.05L27.05 3.75Q27.05 4.15 27.35 4.5L27.85 4.95Q28.6 5.45 29.5 5.45L30.5 5.25L31.15 5.5Q32.3 5.85 34 7.3L36.75 9.9Q38.05 12.25 38.45 15.2L38.5 15.65L37.75 15.35L35.8 11.8Q33.35 8 30.8 7.25L30.6 7.45Q30.05 8.05 29.05 8.05Q26.05 8.05 26 4.2L24.75 3.85L24.3 3.75L19.8 3.2L18.8 2.05" />
<path style="fill:#76838C;fill-opacity:1" d="M1.25,14L1.45 13.6L1.9 12.9L1.95 12.8L4.15 11.1L6.05 10.85L5.3 12.35L4.95 13.3L4.95 13.4L4.75 14.15L2.75 14.05L1.25 14M34.25,16.95L33.75 18.25L33.05 19L31.25 18.55Q31.45 17.55 31.25 16.55L31.1 15.95L34.25 16.95L34.25 16.7L34.35 16.95L34.25 16.95M36.9,20L36.95 19.95L36.95 19.9L36.9 19.8L36.4 18.2Q37.7 18.3 37.9 19.2Q38.05 20.1 38.45 20.25L38.6 20.25Q38.8 20.25 39.05 19.9L40.2 20.65L40.4 20.85L40.45 21L40.1 21.55L38.65 22.4L38.3 22.45Q37.25 22.55 36.75 22.1L36.55 21.9L37.35 20.85L36.9 20M35.35,15L35.2 14.6L31.75 12.6L29.1 10.95Q25.25 8.45 22.5 6L21.6 5.2L19.8 3.2L24.3 3.75L24.75 3.85L26 4.2Q26.05 8.05 29.05 8.05Q30.05 8.05 30.6 7.45L30.8 7.25Q33.35 8 35.8 11.8L37.75 15.35L35.35 15M11.95,5.45L6.25 8.05L6.3 7.95L8.25 6Q9.6 5.1 10.9 4.55Q13 3.65 15.6 3.35L11.95 5.45M28.2,14.9L29.75 15.5L29.25 16.4L29 17L28.9 17.15L28.8 17.3L28.5 17.85L25.9 17.25L26.05 16.65L25.7 14.25L25.65 13.85L28.2 14.9M17.7,15.65L17.8 15.4Q18.1 14.9 17.7 11.05L17.6 10.2L17.45 9.3L18.15 9.8Q20.25 11.35 23.35 12.85Q22.8 13.9 22.6 15.3L22.35 15.7L22.1 16.45L17.7 15.65M14.45,9.15Q13.45 10.65 12.8 12.8L12.75 13.05L11.95 14.2L11.85 14.4L11.75 14.8L9.2 14.5L9.25 14.2L9.2 13.85L9.1 13.15L8.9 11.8L8.55 10.45L14.45 9.15" />
<path style="fill:#FFFFF6;fill-opacity:1" d="M10.65,7.55L11.75 7L16.4 4.3L17.7 3.45L21.35 6.95L25.65 10.5Q22.7 9.25 20.45 7.7L19.9 7.3L17.2 4.8Q15.35 6.25 10.65 7.55M36,17L35.85 16.55Q38.75 16.85 39.6 18.55L39.8 18.95L39.05 18.65L38.85 18.85L38.75 18.95L38.4 18.5L38.15 17.9Q37.95 17.3 36.7 17L36 17M36.75,9.9L34 7.3Q32.3 5.85 31.15 5.5L30.5 5.25L29.5 5.45Q28.6 5.45 27.85 4.95L27.35 4.5Q27.05 4.15 27.05 3.75L27.15 3.05L25.65 2.5L23.95 2L21.6 1.5L25.8 2.15L28.25 2.95Q34.2 5.25 36.75 9.9" />
<path style="fill:#37424D;fill-opacity:1" d="M29.15,18Q29.8 17.15 30.35 16.85L30.4 18.3Q30.2 19.2 29.45 19.75Q29.1 19.25 29.1 18L29.15 18M22.95,17.5Q22.95 17.05 23.1 16.65L23.5 15.55L24.75 14.05L25.05 16.85L25 17.05L24.05 18.85L23.25 20.05L22.95 18.35L22.95 17.5M6.7,13.1Q7.2 12.3 7.95 11.6L8.25 14.4Q7.55 16.1 6.45 17.6Q6.05 16.2 6.15 15.05L6.25 14.25L6.5 13.5L6.7 13.1M13.15,14.75L13.25 14.35L16.2 9.8L16.5 14.65L13.45 20.55Q12.9 16.75 13.15 14.95L13.15 14.75" />
<path style="fill:#4A5662;fill-opacity:1" d="M12.8,22.55Q13.7 22.9 15.6 19.4L17.4 16.1L17.7 15.65L22.1 16.45Q21.95 17.05 22.05 17.95Q22.25 19.7 22.55 20.45Q22.85 21.1 23.15 21.15L24.95 19.25L25.9 17.25L28.5 17.85L28.4 18.9Q28.5 20 29.15 20.85Q30.75 20.15 31.15 18.95L31.25 18.55L33.05 19L33.75 18.25L34.25 16.95L34.35 16.95L34.8 18.05L34.9 18.3L35.5 19.6L35.4 19.65L35.2 19.75L34.85 20.05L33.9 20.9L33.7 21.15L32.75 21.7L31.35 22.9L28.4 22.1L21.1 21.9Q16.1 22.65 12.75 24.1Q9.2 19.65 3.6 18.55L2 18.5L1.75 17.85Q1.3 16.7 1.25 15.75L1.2 15.6L1.15 14.9L1.25 14.1L1.25 14L2.75 14.05L4.75 14.15L5.25 14.2L5.25 15.5Q5.45 17.25 5.75 18Q6.05 18.65 6.35 18.7Q8.3 17.3 9.1 14.8L9.2 14.5L11.75 14.8Q11.55 16.55 12.8 22.55M33.5,23.55L33.65 23.35L35.75 21L36.45 20.35L36.8 20.1L36.9 20L37.35 20.85L36.55 21.9L36.75 22.1Q37.25 22.55 38.3 22.45L38.65 22.4L40.1 21.55L40.45 21L40.45 21.35L40.45 21.5L39.95 23.5L39.85 23.75L37.8 24.9L37.7 24.95L37.35 25L35.45 24.85Q33.95 24.2 33.5 23.55M36.7,29.45L35.2 31.45Q34 33.05 32.65 33.75Q29.9 35.15 27.3 35.75L25.35 36.15L25.95 35.45L26.35 34.75L26.65 34.15Q27.75 31.9 27.75 29.7L27.55 27.15L27.55 26.55L27.35 24.4L28.35 24.55L32.15 25.45L32.5 26.15Q33.05 27 34.25 27.4L36.25 27.5L37.15 27.35L37.5 27.25L37.5 27.3L37.05 28.95L37.05 29L36.7 29.45M5.5,29.9L5.65 30.7Q5.8 31.65 6.2 32.35Q4.7 31.9 3.65 30.95L2.95 29Q2.55 27.35 2.55 25.1L2.75 23.15L2.85 22.4L2.9 22.15L2.95 21.95Q3.15 21.1 3.45 20.55L4.5 20.9L6.15 21.6Q5.8 22.55 5.6 23.55Q5 26.4 5.5 29.9" />
<path style="fill:#141E23;fill-opacity:1" d="M26,28.8Q25.4 31.4 23.3 33.65Q19.65 30.3 12.55 29.4L6.6 29.15Q6.4 27.65 6.6 25.95L6.85 24.4Q7 23.35 7.3 22.4L7.3 22.35L8 22.9L10.65 25.55L11.95 27.1L13.4 26.95L18.1 25.2Q21.85 23.85 25.1 24.1L25.85 24.2L26.15 26.65L26 28.8" />
<path style="fill:#65BFB6;fill-opacity:1" d="M31.75,24.05L28.4 23.15L23.5 22.8Q19.65 22.95 16.6 24.05L12.6 25.65Q8.95 20.15 2.35 18.75Q2.15 18.75 2 18.5L3.6 18.55Q9.2 19.65 12.75 24.1Q16.1 22.65 21.1 21.9L28.4 22.1L31.35 22.9L32.75 21.7L33.7 21.15Q32.65 22.25 31.75 24.05M25.95,35.45L25.35 36.15L27.3 35.75Q29.9 35.15 32.65 33.75Q34 33.05 35.2 31.45L36.7 29.45L37.05 29L36.9 29.5L36.55 30.4Q36.05 31.75 34.55 33.45Q33.05 35.1 30.65 36.3Q28.25 37.5 25.8 37.35Q23.25 37.15 22.95 36.4L24.2 35.25L25.95 35.45M35.45,24.85L37.35 25L37.7 24.95L37.8 24.9L39.85 23.75Q39.4 24.65 38.55 25.25L38.2 25.5L37.9 25.7L36.9 26.05L36.4 26.2Q35.15 26.4 34.15 25.7Q33.1 25 33 24.3L33.5 23.55Q33.95 24.2 35.45 24.85M3.65,30.95L3.1 30.35Q2.45 29.55 2.05 28.2L1.85 27.3Q1.5 25.3 2.05 22.15L2.1 21.85L2.15 21.7L2.25 21.25L2.55 20.3L3.45 20.55Q3.15 21.1 2.95 21.95L2.9 22.15L2.85 22.4L2.75 23.15L2.55 25.1Q2.55 27.35 2.95 29L3.65 30.95" />
<path style="fill:#789390;fill-opacity:1" d="M24.2,35.25L24.55 34.85Q25.6 33.65 26.3 32.25Q27.5 29.85 27.55 27.35L27.55 27.15L27.75 29.7Q27.75 31.9 26.65 34.15L26.35 34.75L25.95 35.45L24.2 35.25" />
</g>
</svg>
