<?xml version="1.0" encoding="utf-8"?>
<svg version="1.1" id="Layer_1"
xmlns="http://www.w3.org/2000/svg"
xmlns:xlink="http://www.w3.org/1999/xlink"
xmlns:author="http://www.sothink.com"
width="523px" height="455px"
xml:space="preserve">
<g id="964" transform="matrix(1, 0, 0, 1, 24.7, 108.9)">
<linearGradient
id="LinearGradID_1227" gradientUnits="userSpaceOnUse" gradientTransform="matrix(0, -0.157547, 5.40573, 0, -2282, 231.8)" spreadMethod ="pad" x1="-819.2" y1="0" x2="819.2" y2="0" >
<stop  offset="0" style="stop-color:#A6823E;stop-opacity:1" />
<stop  offset="1" style="stop-color:#C69F53;stop-opacity:1" />
</linearGradient>
<path style="fill:url(#LinearGradID_1227) " d="M492.3,299.05L492.3 316.8L491.85 316.8L491.85 288.05L492.3 288.05L492.3 299.05" />
<linearGradient
id="LinearGradID_1228" gradientUnits="userSpaceOnUse" gradientTransform="matrix(0, -0.262314, 0.291199, 0, 182.75, 118.9)" spreadMethod ="pad" x1="-819.2" y1="0" x2="819.2" y2="0" >
<stop  offset="0.027451" style="stop-color:#C68B5D;stop-opacity:1" />
<stop  offset="1" style="stop-color:#F3AE69;stop-opacity:1" />
</linearGradient>
<path style="fill:url(#LinearGradID_1228) " d="M492.3,288.05L491.85 288.05L491.85 316.8L491.85 340.5L-19.8 340.5L-19.8 287.95L-19.35 287.95L-19.35 -105.95L492.3 -105.95L492.3 164.75L492.3 183.8L492.3 288.05" />
<path style="fill:none;stroke-width:0.1;stroke-linecap:round;stroke-linejoin:round;stroke-miterlimit:3;stroke:#662616;stroke-opacity:1" d="M492.3,164.75L492.3 -105.95M-19.35,-105.95L-19.35 287.95M-19.8,287.95L-19.8 340.5L491.85 340.5L491.85 316.8L491.85 288.05M492.3,288.05L492.3 183.8M492.3,316.8L492.3 299.05" />
<path style="fill:#FFD1A1;fill-opacity:1" d="M69.35,-94.55L61.6 -94.6L61.8 -94.9L56.9 -94.6L53.4 -94.6Q60.8 -94.15 51.1 -94.4L37.45 -94.8Q33.5 -95 30.9 -94.65L-4.5 -94.6L-15 -94.55L-15 -99.7L492.2 -99.7L492.2 -92.5L485.1 -92.6L477.6 -92.6L462.6 -93.25L444.8 -94L428.8 -94.65L428.8 -95.4L424.6 -95.45L424.6 -94.5L394.5 -94.45L394.1 -94.45L383.6 -94.45L202.85 -94.4L199.6 -94.4L147.15 -94.5L124.45 -94.55L121.35 -94.55L89.35 -94.55L69.35 -94.55M61.15,-97.5Q59.95 -98.1 58.6 -97.85L61.15 -97.5M377.9,-97.35L385.95 -97.05L388.3 -97Q388.3 -97.15 388.85 -97.25L383.6 -97.25L377.9 -97.35" />
<linearGradient
id="LinearGradID_1229" gradientUnits="userSpaceOnUse" gradientTransform="matrix(0.000106812, -0.110382, 0.999985, 0.0010376, 233.55, 43.95)" spreadMethod ="pad" x1="-819.2" y1="0" x2="819.2" y2="0" >
<stop  offset="0" style="stop-color:#9C7936;stop-opacity:1" />
<stop  offset="1" style="stop-color:#AD873F;stop-opacity:1" />
</linearGradient>
<path style="fill:url(#LinearGradID_1229) " d="M437.75,-92.15L438.15 -92.55L438.1 -92.15L437.75 -92.15" />
<linearGradient
id="LinearGradID_1230" gradientUnits="userSpaceOnUse" gradientTransform="matrix(0, -0.00895691, 2.21576, 0, 1316.95, 332.05)" spreadMethod ="pad" x1="-819.2" y1="0" x2="819.2" y2="0" >
<stop  offset="0" style="stop-color:#703112;stop-opacity:0.501961" />
<stop  offset="1" style="stop-color:#803C18;stop-opacity:0" />
</linearGradient>
<path style="fill:url(#LinearGradID_1230) " d="M-6.2,325.25L69.35 325.25L69.35 335.5L-6.2 335.5L-15.45 335.5L-20.35 335.5L-20.35 325.25L-15.45 325.25L-6.2 325.25" />
<linearGradient
id="LinearGradID_1231" gradientUnits="userSpaceOnUse" gradientTransform="matrix(0.0045929, 0, 0, 0.179489, -11.4, 42.75)" spreadMethod ="pad" x1="-819.2" y1="0" x2="819.2" y2="0" >
<stop  offset="0" style="stop-color:#703112;stop-opacity:0.501961" />
<stop  offset="1" style="stop-color:#803C18;stop-opacity:0" />
</linearGradient>
<path style="fill:url(#LinearGradID_1231) " d="M-15,-50.3L-15 -89.4L-14.4 -97.9L-13.5 -99.9Q-13.9 -97.7 -7.65 -89.65L-7.3 -50.3L-15 -50.3M-15,-99.7L-15 -104.3L-13.3 -104.3Q-12 -108.75 -9.95 -104.3L-5.75 -104.3L-5.75 -99.7L-8.3 -99.7L-8.55 -99.75Q-13.1 -101.7 -13.5 -100L-14.2 -99.6L-14.2 -99.7L-15 -99.7" />
<linearGradient
id="LinearGradID_1232" gradientUnits="userSpaceOnUse" gradientTransform="matrix(0.0045929, 0, 0, 1.07602, -11.4, 507.55)" spreadMethod ="pad" x1="-819.2" y1="0" x2="819.2" y2="0" >
<stop  offset="0" style="stop-color:#703112;stop-opacity:0.501961" />
<stop  offset="1" style="stop-color:#803C18;stop-opacity:0" />
</linearGradient>
<path style="fill:url(#LinearGradID_1232) " d="M-6.95,173.6L-15 173.6L-15 -50.3L-7.3 -50.3L-6.9 171.95L-6.95 173.6" />
<linearGradient
id="LinearGradID_1233" gradientUnits="userSpaceOnUse" gradientTransform="matrix(0.0045929, 0, 0, 0.498581, -11.4, 317.8)" spreadMethod ="pad" x1="-819.2" y1="0" x2="819.2" y2="0" >
<stop  offset="0" style="stop-color:#703112;stop-opacity:0.501961" />
<stop  offset="1" style="stop-color:#803C18;stop-opacity:0" />
</linearGradient>
<path style="fill:url(#LinearGradID_1233) " d="M-15,287.95L-15 183.8L-6.95 183.8L-6.95 173.6L-6.9 171.95L-6.5 285.8L-6.5 288.05L-6.55 288.05L-15 288.05L-15 287.95" />
<linearGradient
id="LinearGradID_1234" gradientUnits="userSpaceOnUse" gradientTransform="matrix(0.0045929, 0, 0, 2.98892, -11.4, 1101.3)" spreadMethod ="pad" x1="-819.2" y1="0" x2="819.2" y2="0" >
<stop  offset="0" style="stop-color:#703112;stop-opacity:0.501961" />
<stop  offset="1" style="stop-color:#803C18;stop-opacity:0" />
</linearGradient>
<path style="fill:url(#LinearGradID_1234) " d="M-6.95,173.6L-6.95 183.8L-15 183.8L-15 173.6L-6.95 173.6" />
<linearGradient
id="LinearGradID_1235" gradientUnits="userSpaceOnUse" gradientTransform="matrix(0.0045929, 0, 0, 0.179489, -11.85, 253.65)" spreadMethod ="pad" x1="-819.2" y1="0" x2="819.2" y2="0" >
<stop  offset="0" style="stop-color:#703112;stop-opacity:0.501961" />
<stop  offset="1" style="stop-color:#803C18;stop-opacity:0" />
</linearGradient>
<path style="fill:url(#LinearGradID_1235) " d="M-6.2,335.5L-6.2 336.4L-15.45 336.4L-15.45 335.5L-6.2 335.5M-6.25,316.8L-6.2 325.25L-15.45 325.25L-15.45 287.95L-15 287.95L-15 288.05L-6.55 288.05L-6.25 316.8" />
<linearGradient
id="LinearGradID_1236" gradientUnits="userSpaceOnUse" gradientTransform="matrix(0.0045929, 0, 0, 0.179489, -11.4, 282.5)" spreadMethod ="pad" x1="-819.2" y1="0" x2="819.2" y2="0" >
<stop  offset="0" style="stop-color:#703112;stop-opacity:0.501961" />
<stop  offset="1" style="stop-color:#803C18;stop-opacity:0" />
</linearGradient>
<path style="fill:url(#LinearGradID_1236) " d="M-6.55,288.05L-6.5 288.05L-6.5 285.8L-6.4 285.8L-6.1 316.8L-6.25 316.8L-6.55 288.05" />
<linearGradient
id="LinearGradID_1237" gradientUnits="userSpaceOnUse" gradientTransform="matrix(-0.0045929, 0, 0, 0.179489, 485.4, 42.75)" spreadMethod ="pad" x1="-819.2" y1="0" x2="819.2" y2="0" >
<stop  offset="0" style="stop-color:#703112;stop-opacity:0.501961" />
<stop  offset="1" style="stop-color:#803C18;stop-opacity:0" />
</linearGradient>
<path style="fill:url(#LinearGradID_1237) " d="M489.05,-89.4L489.05 -50.3L479.65 -50.3L479.6 -89.65Q483.85 -87.25 485.7 -99.7L479.8 -99.7L479.8 -104.3L489.05 -104.3L489.05 -99.7L490.95 -99.7Q490.55 -95.95 489.05 -89.4" />
<linearGradient
id="LinearGradID_1238" gradientUnits="userSpaceOnUse" gradientTransform="matrix(0, 0.00895691, 0.239227, 0.000305176, 336.05, -97.05)" spreadMethod ="pad" x1="-819.2" y1="0" x2="819.2" y2="0" >
<stop  offset="0" style="stop-color:#4D200A;stop-opacity:0.498039" />
<stop  offset="1" style="stop-color:#4D230C;stop-opacity:0" />
</linearGradient>
<path style="fill:url(#LinearGradID_1238) " d="M490.95,-99.7L493 -99.7L493 -89.4L489.05 -89.4Q490.55 -95.95 490.95 -99.7" />
<linearGradient
id="LinearGradID_1239" gradientUnits="userSpaceOnUse" gradientTransform="matrix(-0.0045929, 0, 0, 1.07602, 485.4, 507.55)" spreadMethod ="pad" x1="-819.2" y1="0" x2="819.2" y2="0" >
<stop  offset="0" style="stop-color:#703112;stop-opacity:0.501961" />
<stop  offset="1" style="stop-color:#803C18;stop-opacity:0" />
</linearGradient>
<path style="fill:url(#LinearGradID_1239) " d="M479.7,173.6L479.65 -50.3L489.05 -50.3L489.05 173.6L479.7 173.6" />
<linearGradient
id="LinearGradID_1240" gradientUnits="userSpaceOnUse" gradientTransform="matrix(-0.0045929, 0, 0, 2.98892, 485.4, 1101.3)" spreadMethod ="pad" x1="-819.2" y1="0" x2="819.2" y2="0" >
<stop  offset="0" style="stop-color:#703112;stop-opacity:0.501961" />
<stop  offset="1" style="stop-color:#803C18;stop-opacity:0" />
</linearGradient>
<path style="fill:url(#LinearGradID_1240) " d="M489.05,173.6L489.05 183.8L479.7 183.8L479.7 173.6L489.05 173.6" />
<linearGradient
id="LinearGradID_1241" gradientUnits="userSpaceOnUse" gradientTransform="matrix(-0.0045929, 0, 0, 0.179489, 484.95, 253.65)" spreadMethod ="pad" x1="-819.2" y1="0" x2="819.2" y2="0" >
<stop  offset="0" style="stop-color:#703112;stop-opacity:0.501961" />
<stop  offset="1" style="stop-color:#803C18;stop-opacity:0" />
</linearGradient>
<path style="fill:url(#LinearGradID_1241) " d="M479.35,325.25L479.35 287.95L479.75 287.95L479.75 288.05L488.6 288.05L488.6 316.8L488.6 325.25L479.35 325.25M488.6,335.5L488.6 336.4L479.35 336.4L479.35 335.5L488.6 335.5" />
<linearGradient
id="LinearGradID_1242" gradientUnits="userSpaceOnUse" gradientTransform="matrix(-0.0045929, 0, 0, 0.498581, 485.4, 317.8)" spreadMethod ="pad" x1="-819.2" y1="0" x2="819.2" y2="0" >
<stop  offset="0" style="stop-color:#703112;stop-opacity:0.501961" />
<stop  offset="1" style="stop-color:#803C18;stop-opacity:0" />
</linearGradient>
<path style="fill:url(#LinearGradID_1242) " d="M489.05,183.8L489.05 288.05L488.6 288.05L479.75 288.05L479.75 287.95L479.7 183.8L489.05 183.8" />
<linearGradient
id="LinearGradID_1243" gradientUnits="userSpaceOnUse" gradientTransform="matrix(-0.0045929, 0, 0, 0.179489, 485.4, 282.5)" spreadMethod ="pad" x1="-819.2" y1="0" x2="819.2" y2="0" >
<stop  offset="0" style="stop-color:#703112;stop-opacity:0.501961" />
<stop  offset="1" style="stop-color:#803C18;stop-opacity:0" />
</linearGradient>
<path style="fill:url(#LinearGradID_1243) " d="M488.6,288.05L489.05 288.05L489.05 316.8L488.6 316.8L488.6 288.05" />
<linearGradient
id="LinearGradID_1244" gradientUnits="userSpaceOnUse" gradientTransform="matrix(0, -0.00895691, 2.21576, 0, 1351.95, 332.05)" spreadMethod ="pad" x1="-819.2" y1="0" x2="819.2" y2="0" >
<stop  offset="0" style="stop-color:#703112;stop-opacity:0.501961" />
<stop  offset="1" style="stop-color:#803C18;stop-opacity:0" />
</linearGradient>
<path style="fill:url(#LinearGradID_1244) " d="M150.35,325.25L479.35 325.25L488.6 325.25L491.05 325.25L491.05 335.5L488.6 335.5L479.35 335.5L150.35 335.5L150.35 325.25" />
<linearGradient
id="LinearGradID_1245" gradientUnits="userSpaceOnUse" gradientTransform="matrix(0, -0.437622, 15.4938, 0, -7136.4, 176.95)" spreadMethod ="pad" x1="-819.2" y1="0" x2="819.2" y2="0" >
<stop  offset="0" style="stop-color:#A6823E;stop-opacity:1" />
<stop  offset="1" style="stop-color:#D9B265;stop-opacity:1" />
</linearGradient>
<path style="fill:url(#LinearGradID_1245) " d="M491.05,325.25L492.7 325.25L492.7 335.5L491.05 335.5L491.05 325.25" />
<linearGradient
id="LinearGradID_1246" gradientUnits="userSpaceOnUse" gradientTransform="matrix(0, -0.00895691, 10.5574, 0, 6013.8, 332.05)" spreadMethod ="pad" x1="-819.2" y1="0" x2="819.2" y2="0" >
<stop  offset="0" style="stop-color:#703112;stop-opacity:0.501961" />
<stop  offset="1" style="stop-color:#803C18;stop-opacity:0" />
</linearGradient>
<path style="fill:url(#LinearGradID_1246) " d="M150.35,335.5L69.35 335.5L69.35 325.25L150.35 325.25L150.35 335.5" />
<path style="fill:#34240D;fill-opacity:1" d="M-24.25,327.55L-24.25 -99L-24.15 -101.25Q-24 -103.25 -23.65 -104Q-21.5 -108.9 -14.35 -108.9L421.55 -108.9L421.55 -107L395.6 -107L383.6 -107L225.6 -107L221.6 -107L214.6 -107L206.35 -107L201.6 -107L199.6 -107L150.35 -107L150.35 -107.05L89.35 -107.05L69.35 -107.05L-12.75 -107.1L-14.2 -107.1L-14.35 -107.1Q-20.35 -106.85 -21.9 -102.7L-22.35 -100.9L-22.4 -99.9L-22.3 -99L-22.3 -98.65L-22.3 -61L-22.3 -50.3L-22.3 71.7L-22.3 141.85L-22.3 173.6L-22.3 183.8L-22.3 197.75L-22.3 285.05L-22.3 288.05L-22.3 327.55L-24.25 327.55M-16.25,-99L-16.05 -99.85Q-15.6 -100.75 -14.35 -100.75L421.55 -100.8L421.55 -98.9L-14.25 -98.9L-14.25 327.55L-16.25 327.55L-16.25 -99M421.65,337.65L421.65 337.6L-15.35 337.5L-15.85 337.4L-15.95 337.45L-16.7 336.8L-16.7 329.55L-14.7 329.55L-14.7 335.7L464.85 335.7L464.85 337.65L421.65 337.65M-22.75,338.75L-22.25 340.85L-21.9 341.45L-21.65 341.8L-19.6 343.85L464.85 343.8L464.85 345.7L-18.7 345.7Q-17.6 345.6 -19.2 345.65Q-20.8 345.65 -22.3 344.15Q-23.85 342.65 -24.3 341.1Q-24.8 339.5 -24.7 337.1L-24.7 329.55L-22.75 329.55L-22.75 338.75" />
<path style="fill:#C49A68;fill-opacity:1" d="M421.55,-103.25L150.35 -103.1L-14.35 -103.05L-13.1 -103.1L-16.55 -102.9Q-17.7 -102.65 -18.65 -101.7Q-19.65 -100.75 -19.3 -99L-19.4 -99L-19.15 327.55L-22.3 327.55L-22.3 288.05L-22.3 285.05L-22.3 197.75L-22.3 183.8L-22.3 173.6L-22.3 141.85L-22.3 71.7L-22.3 -50.3L-22.3 -61L-22.3 -98.65L-22.3 -99L-22.4 -99.9L-22.35 -100.9L-21.9 -102.7Q-20.35 -106.85 -14.35 -107.1L-14.2 -107.1L-12.75 -107.1L69.35 -107.05L89.35 -107.05L150.35 -107.05L150.35 -107L199.6 -107L201.6 -107L206.35 -107L214.6 -107L221.6 -107L225.6 -107L383.6 -107L395.6 -107L421.55 -107L421.55 -103.25M-19.3,339.45L-15.95 337.45L-15.85 337.4L-15.35 337.5L421.65 337.6L421.65 337.65L464.85 337.65L464.85 341.2L428.35 341.25L428.35 341.2L423.85 341.2L423.85 341.25L421.65 341.25L421.65 341.35L150.35 341.5L-19.05 341.55L-22.25 340.85L-22.75 338.75L-22.75 329.55L-19.3 329.55L-19.3 339.45" />
<path style="fill:#674529;fill-opacity:1" d="M-16.25,327.55L-19.15 327.55L-19.4 -99L-19.3 -99Q-19.65 -100.75 -18.65 -101.7Q-17.7 -102.65 -16.55 -102.9L-13.1 -103.1L-14.35 -103.05L150.35 -103.1L421.55 -103.25L421.55 -100.8L-14.35 -100.75Q-15.6 -100.75 -16.05 -99.85L-16.25 -99L-16.25 327.55M-22.25,340.85L-19.05 341.55L150.35 341.5L421.65 341.35L421.65 341.25L423.85 341.25L423.85 341.2L428.35 341.2L428.35 341.25L464.85 341.2L464.85 343.8L-19.6 343.85L-21.65 341.8L-21.9 341.45L-22.25 340.85M-19.3,329.55L-16.7 329.55L-16.7 336.8L-15.95 337.45L-19.3 339.45L-19.3 329.55" />
<path style="fill:none;stroke-width:0.1;stroke-linecap:round;stroke-linejoin:round;stroke-miterlimit:3;stroke:#662616;stroke-opacity:1" d="M-16.25,-99L-16.05 -99.85Q-15.6 -100.75 -14.35 -100.75" />
<path style="fill:#34240D;fill-opacity:1" d="M492.9,343.75L494.95 341.7L495.2 341.35L495.55 340.75L496.05 338.65L496.05 330.65L496.05 312.8L496.05 301.85L496.05 299.35L496.05 277.05L496.05 258.8L496.05 258.55L496.05 238.25L496.05 219.5L496.05 218.3L496.05 217.8L496.05 216.75L496.05 51.75L496.05 35.25L496.05 -24.5L496.05 -29L496.05 -58.5L496.05 -98.65L496.05 -99L496.15 -99.9L496.1 -100.9L495.65 -102.7Q494.1 -106.85 488.1 -107.1L487.95 -107.1L486.5 -107.1L277.25 -107L277.25 -108.9L488.1 -108.9Q495.25 -108.9 497.4 -104Q497.75 -103.25 497.9 -101.25L498 -99L498 336.5L497.95 338.95L497 342.35L495.6 344.05Q494.1 345.55 492.5 345.55Q490.9 345.5 492 345.6L277.25 345.6L277.25 343.7L492.9 343.75M277.25,337.5L277.25 335.6L488 335.6L488 -98.9L277.25 -98.9L277.25 -100.8L488.1 -100.75Q489.35 -100.75 489.8 -99.85L490 -99L490 336.7L489.25 337.35L489.15 337.3L488.65 337.4L277.25 337.5" />
<path style="fill:#C49A68;fill-opacity:1" d="M277.25,341.2L277.25 337.5L488.65 337.4L489.15 337.3L489.25 337.35L492.6 339.35L492.7 298.6L492.8 301.85L492.8 295.35L492.9 299.35L493 238.25L493 216.75L493.15 -99L493.05 -99Q493.4 -100.75 492.4 -101.7Q491.45 -102.65 490.3 -102.9L486.85 -103.1L488.1 -103.05L277.25 -103.3L277.25 -107L486.5 -107.1L487.95 -107.1L488.1 -107.1Q494.1 -106.85 495.65 -102.7L496.1 -100.9L496.15 -99.9L496.05 -99L496.05 -98.65L496.05 -58.5L496.05 -29L496.05 -24.5L496.05 35.25L496.05 51.75L496.05 216.75L496.05 217.8L496.05 218.3L496.05 219.5L496.05 238.25L496.05 258.55L496.05 258.8L496.05 277.05L496.05 299.35L496.05 301.85L496.05 312.8L496.05 330.65L496.05 338.65L495.55 340.75L492.35 341.45L277.25 341.2" />
<path style="fill:#674529;fill-opacity:1" d="M488.1,-103.05L486.85 -103.1L490.3 -102.9Q491.45 -102.65 492.4 -101.7Q493.4 -100.75 493.05 -99L493.15 -99L493 216.75L493 238.25L492.9 299.35L492.8 295.35L492.8 301.85L492.7 298.6L492.6 339.35L489.25 337.35L490 336.7L490 -99L489.8 -99.85Q489.35 -100.75 488.1 -100.75L277.25 -100.8L277.25 -103.3L488.1 -103.05M492.35,341.45L495.55 340.75L495.2 341.35L494.95 341.7L492.9 343.75L277.25 343.7L277.25 341.2L492.35 341.45" />
<path style="fill:none;stroke-width:0.1;stroke-linecap:round;stroke-linejoin:round;stroke-miterlimit:3;stroke:#662616;stroke-opacity:1" d="M488.1,-100.75Q489.35 -100.75 489.8 -99.85L490 -99" />
</g>
</svg>
