<?xml version="1.0" encoding="utf-8"?>
<svg version="1.1" id="Layer_1"
xmlns="http://www.w3.org/2000/svg"
xmlns:xlink="http://www.w3.org/1999/xlink"
xmlns:author="http://www.sothink.com"
width="7px" height="18px"
xml:space="preserve">
<g id="281" transform="matrix(1, 0, 0, 1, -0.35, -1.05)">
<path style="fill:#4D3212;fill-opacity:1" d="M3.5,2.55L3.65 3.95Q3.8 4.7 4.6 5.55L6.2 7.45L6.75 8.35L7 8.95Q7.15 9.75 6.9 10.6L6.6 11.25L6.45 11.6L6.35 11.75L4.6 14Q3.8 14.85 3.65 15.6L3.5 17L3.05 17.95L2.95 18.05Q2.4 18.5 1.9 18.5Q1.4 18.5 0.95 18.15Q0.5 17.85 0.4 17.1Q0.3 16.4 0.6 15.7Q0.85 15.05 1.55 14.15L2.8 12.45L3.45 11.25L3.6 10.7L3.6 10.65L3.75 9.15L3.5 8.25L2.8 7.1L1.55 5.4L0.6 3.85Q0.3 3.15 0.4 2.45Q0.5 1.7 0.95 1.4Q1.4 1.05 1.9 1.05Q2.4 1.05 2.95 1.5L3.5 2.55M2.5,17.4L2.65 17.2L2.9 15.95L2.9 15.85Q2.95 14.65 4 13.7L5.7 11.65L5.75 11.55L5.95 11.25L6.15 10.8L6.4 9.95L6.15 8.6L6.15 8.55L4.4 6.35L4.05 6L3.8 5.65Q2.95 4.6 2.9 3.7Q2.85 2.5 2.5 2.15Q2.2 1.8 1.65 1.9L1.5 1.9Q1.1 2.1 1.15 3Q1.2 3.95 2.6 5.7L3.9 7.8L4.15 8.45Q4.5 9.8 4.2 10.8L4.15 11.05L4.1 11.25Q3.7 12.4 2.6 13.85Q1.2 15.6 1.15 16.55Q1.05 17.55 1.65 17.65L1.9 17.7L2.5 17.4" />
<path style="fill:#9A7226;fill-opacity:1" d="M1.7,2.5Q1.7 2.85 2 3.25L2.4 3.6Q2.6 3.6 2.6 3.2Q2.6 2.05 1.9 2.05Q1.7 2.05 1.7 2.5M1.65,1.9Q2.2 1.8 2.5 2.15Q2.85 2.5 2.9 3.7Q2.95 4.6 3.8 5.65L4.05 6L5.1 7.75Q5.1 8.05 4.7 8.05L4.6 8.05L4.15 7.45L3.5 6.05L2.3 4.6Q1.45 3.4 1.45 2.35L1.5 1.9L1.65 1.9M2.8,15.7Q2.4 15.55 2.2 15.95L2.05 16.4Q1.9 16.8 2.25 17.05L2.65 17.2L2.5 17.4L1.9 17.7Q1.65 17.35 1.75 16.35Q1.8 15.3 2.95 14.3Q4.1 12.8 4.7 11.3L5.75 11.55L5.7 11.65L4 13.7Q2.95 14.65 2.9 15.85L2.9 15.95L2.8 15.7" />
<path style="fill:#745416;fill-opacity:1" d="M5.8,8.6L6.15 8.6L6.4 9.95L6.15 10.8L5.95 11.25L5.75 11.55L4.7 11.3Q4.1 12.8 2.95 14.3Q1.8 15.3 1.75 16.35Q1.65 17.35 1.9 17.7L1.65 17.65Q1.05 17.55 1.15 16.55Q1.2 15.6 2.6 13.85Q3.7 12.4 4.1 11.25L4.15 11.05L4.2 10.8Q4.5 9.8 4.15 8.45L3.9 7.8L2.6 5.7Q1.2 3.95 1.15 3Q1.1 2.1 1.5 1.9L1.45 2.35Q1.45 3.4 2.3 4.6L3.5 6.05L4.15 7.45L4.6 8.05Q5.1 8.6 5.8 8.6" />
<path style="fill:#B49148;fill-opacity:1" d="M1.9,2.05Q2.6 2.05 2.6 3.2Q2.6 3.6 2.4 3.6L2 3.25Q1.7 2.85 1.7 2.5Q1.7 2.05 1.9 2.05M6.15,8.6L5.8 8.6Q5.1 8.6 4.6 8.05L4.7 8.05Q5.1 8.05 5.1 7.75L4.05 6L4.4 6.35L6.15 8.55L6.15 8.6M2.9,15.95L2.65 17.2L2.25 17.05Q1.9 16.8 2.05 16.4L2.2 15.95Q2.4 15.55 2.8 15.7L2.9 15.95" />
</g>
</svg>
