<?xml version="1.0" encoding="utf-8"?>
<svg version="1.1" id="Layer_1"
xmlns="http://www.w3.org/2000/svg"
xmlns:xlink="http://www.w3.org/1999/xlink"
xmlns:author="http://www.sothink.com"
width="17px" height="27px"
xml:space="preserve">
<g id="484" transform="matrix(1, 0, 0, 1, 0, 0)">
<path style="fill:#E9CB9E;fill-opacity:1" d="M16.15,16.05L16.1 16L15.95 15.7L16.15 15.55L16.15 16.05" />
<path style="fill:#FCECD2;fill-opacity:1" d="M8.85,17.7L8 17.45L7.45 17.15L6.95 16.85Q6.5 16.55 6.75 16.05L6.8 15.95L7.15 16.15L8.3 16.8L9.2 17.35L8.85 17.7" />
<path style="fill:#FFFFFF;fill-opacity:1" d="M7.05,15.4Q7.6 15.55 8.35 16.05L9.35 16.7L9.3 17.1L9.2 17.35L8.3 16.8L7.15 16.15L6.8 15.95L7.05 15.4" />
<path style="fill:#FFD0BF;fill-opacity:1" d="M13.45,6.3L12.9 6.35Q11.9 6.35 11.75 5.5L11.8 3.75L12.05 3.75Q12.65 4.05 13.2 5.4L13.4 5.85L13.45 6.3M10.05,2.8L10.25 3.4L10.15 5L9.05 4.9Q8.7 4.7 8.7 3.6L8.75 1.35L8.95 1.25Q9.6 1.5 10.05 2.8M14.9,7.9L15.75 8.9L16.15 9.6Q15.35 9.65 15.05 9Q14.9 8.65 14.9 7.9M13.25,10.6L11.85 10.45L11.9 7.25L13.45 7.2L13.3 10.1L13.25 10.6M12.75,15.1Q11.85 14.95 11.75 14.35L11.65 11.5L13.25 11.45Q13.2 13.5 13.5 14.85L13.3 14.9L13.2 14.9L12.75 15.1M10.25,9.75Q9.45 9.75 8.95 9.25Q8.4 8.75 8.4 7.9L8.55 6.15L10.15 6.1L10.25 9.75M15,12.75Q14.75 12.5 14.75 11.9L14.85 10.4L16.15 10.45L16.15 12.8L15 12.75M5.75,6.75L5.55 4.95L5.6 4.65L5.65 4.6Q6.2 4.7 6.6 5.65L6.85 6.3L6.9 6.9L6.95 7.35L6.35 7.35L5.75 6.75M6.6,11.25L6.15 11.15Q5.75 11.05 5.75 10.6L5.7 8.05L6.95 8L7.05 10.6L7.1 11.25L6.75 11.2L6.6 11.25M6.85,14.25Q5.7 14 5.85 11.95L7.1 11.75L7.1 13.65L6.85 14.25M9.75,14.95Q8.95 14.75 8.85 14L8.8 10.75L10.25 10.65L10.45 14.8L10.35 14.8L10.25 14.8L9.75 14.95M10.3,17.9L10.15 17.25Q10.25 16.5 9.8 15.95L11.05 15.9L12 16.15L12.05 15.95L12.15 16.15L12.5 15.9L13.9 15.65Q15.15 15.65 16.15 16.3L16.1 17.95Q15.6 17.6 15.1 17.6L14.35 17.7L15.3 17.35L15.05 17.1L14.55 17.05Q13.3 17.35 12.35 18.2Q11.3 19 10.95 20.2L10.75 21.15L10.85 21.15L10.95 20.9L12.4 19.65Q13.9 18.6 15 18.6L16.05 18.8L15.8 21.5L15.7 22.2L14.7 23.15Q13.4 23.95 11.85 23.95L10 23.5L9.85 23.55L9.85 23.65L9.6 23.45L9.55 23.6L9.6 24.05L8.25 24.3L7.1 24.1L6.05 23.55Q5.05 23.1 4.65 21.85L3.4 19.1Q1.2 16.45 1.2 15.15L1.35 14.95L2.2 14.85L4.45 15.2L4.4 15.5Q4.3 16.05 4.5 16L4.8 15.6L4.95 15.35L5 15.35L6.4 15.75L6.15 16.35L6.15 16.7L6.15 16.75L6.75 17.2L6.25 17.2L4.95 17.1L4.1 16.95L4 17L3.55 16.8L3.5 16.8Q3.5 18.15 5.1 19.05L7.45 19.75Q7.8 19.75 8.8 20.65L9.05 20.9L9.55 22.15L9.85 21.95L9.85 21.85Q9.95 20.65 9.25 19.65L9.05 19.35Q10.3 19.15 10.3 17.9M14.7,14.2L14.75 13.5L16.15 13.45L16.15 15.05L16.15 15.4L16.15 15.55L16.05 15.35L16 15.3L15.75 15.15L14.95 14.85L14.7 14.2" />
<path style="fill:#934B30;fill-opacity:1" d="M11.3,2.9Q11.5 2.5 12.6 2.6Q13.6 2.65 14 4.5L14.25 6.25L14.15 7.3Q14.45 6.2 15.15 6.1Q15.8 5.95 16.45 6.95Q17.05 8 16.95 12.25L16.9 18.7L16.9 19.1L16.9 20.05L16.5 22.9Q16 24.45 15.1 25.15Q14.2 25.8 13.05 25.95L11.2 25.7L10.35 25.2L8.35 25.8Q6.45 26.5 5.2 25.8L3.35 24.5Q2.65 23.8 2.4 21.9Q2.15 19.95 1.35 18.9Q0.45 17.75 0.15 16.6Q-0.15 15.35 0.25 14.65L1.05 13.55L1.55 13.35L2.15 13.4L2.3 13.4L4.45 13.85Q4.2 12.25 4.3 9.35L4.4 5.5L4.5 4.75L4.8 3.95Q5.1 3.45 5.65 3.35Q6.05 3.2 6.4 3.35L6.85 3.5L7.15 3.8L7.15 2.9L7.4 1.8L7.45 1.65Q7.7 0.7 8.25 0.3Q8.75 -0.1 9.6 0Q10.4 0.05 10.85 1.3L11.3 2.9M13.45,6.3L13.4 5.85L13.2 4.5Q12.8 3.3 12.45 3.4L11.95 3.5L11.8 3.6L11.65 3.75L11.5 3.85Q11.3 4.15 11.15 5.65L11.2 6.75L11.55 6.6L13.2 6.65L13.45 6.7L13.45 6.3M10.25,3.4L10.25 2.85Q10.35 0.75 9.15 1.15L8.95 1.25L8.75 1.35Q8 1.85 8.2 3.3L8.15 5.55L8.2 5.5L10.05 5.5L10.15 5.5L10.15 5L10.25 3.4M14.65,7.85L14.6 8.1L14.55 8.15L14.3 9.85L14.35 9.8L15.75 9.8L16.15 9.85L16.15 9.6Q16.05 8 15.7 7.7Q15.3 7.25 15 7.45L14.9 7.5Q14.7 7.6 14.65 7.85M13.3,10.1L13.45 7.2L11.9 7.25L11.2 7.1L11.15 8.15L11.05 10.9L13.25 10.95L13.25 10.6L13.3 10.1M16.1,17.95L16.15 16.3L16.15 16.05L16.15 15.55L15.95 15.7L15.7 15.65L13.85 15.35L13.85 15.4Q12.8 15.5 12.3 15.75L12.25 15.7L12.25 15.65L12.35 15.3L12.55 15.2L12.75 15.1L13.2 14.9L13.3 14.9L13.5 14.85Q13.2 13.5 13.25 11.45L11.65 11.5L11.05 11.45L11.05 14.75L11.3 15L12 15.8L10.8 15.5L10.5 15.45L9.4 15.6L9.8 15.95Q10.25 16.5 10.15 17.25L10.15 17.3L9.95 17.8Q9.55 18.4 8.35 18.7L9.05 19.35L9.25 19.65Q9.95 20.65 9.85 21.85L9.85 21.95L9.55 22.15L9.05 20.9L9 20.75Q8.6 19.55 7.85 18.8Q6.15 19.05 4.7 17.85L3.7 17L3.5 16.8L3.55 16.8L4 17L5.05 17.4L7 18.05L8.1 17.9L8.25 17.85L7.55 17.6L6.75 17.2L6.15 16.75L6.15 16.7L6.15 16.35L6.4 15.75L6.65 15.4L6.8 15.3L5.9 15.1L5.35 15.05Q5 15.05 5 15.2L4.95 15.35L4.8 15.6L4.5 16Q4.3 16.05 4.4 15.5L4.45 15.2Q4.45 14.95 4.6 14.85L3.7 14.65L2.4 14.4Q1.8 14.35 1.35 14.95L1.2 15.15L1.15 15.2Q0.6 16.05 1.85 17.8Q3 19.55 3.55 22.15Q4.05 24.75 6.15 25Q8.25 25.2 9.6 24.1L9.6 24.05L9.55 23.6L9.6 23.45L9.85 23.65L9.85 23.7L10.5 24.2Q11.35 24.95 12.7 25.05Q15.2 24.85 15.7 22.2L15.8 21.5L16.05 18.8L16.1 17.95M10.15,6.1L8.55 6.15L8.5 6.15L8.15 6.05L8.05 9.1L8.1 10.15L8.5 10L10.25 10.05L10.25 9.8L10.25 9.75L10.15 6.1M16.15,12.8L16.15 10.45L14.85 10.4L14.25 10.4L14.2 10.85L14 12.75L15 12.75L16.15 12.8M5.6,4.65Q5.15 5.15 5.3 5.9L5.15 7.45L5.2 7.35L5.35 7.3L6.35 7.35L6.95 7.35L6.9 6.9L6.85 6.3L6.55 4.8Q6.2 4 5.7 4.5L5.65 4.6L5.6 4.65M6.75,11.2L7.1 11.25L7.05 10.6L6.95 8L5.7 8.05L5.2 7.9L5.15 9.1L5.2 11.35L6.1 11.2L6.6 11.25L6.75 11.2M7.1,13.65L7.1 11.75L5.85 11.95L5.2 11.95L5.35 14L6.5 14.25L6.85 14.25L7.1 13.65M10.25,14.8L10.35 14.8L10.45 14.8L10.25 10.65L8.8 10.75L8.15 10.55L8.2 13L8.2 14.75L8.8 15.2L9 15.3L9.3 15.1L9.75 14.95L10.25 14.8M6.8,15.95L6.75 16.05Q6.5 16.55 6.95 16.85L7.45 17.15L8 17.45L8.85 17.7L9.2 17.35L9.3 17.1L9.35 16.7L8.35 16.05Q7.6 15.55 7.05 15.4L6.8 15.95M12.85,18.5Q11.8 19.15 11.25 20.3L10.95 20.9L10.85 21.15L10.75 21.15L10.95 20.2Q11.3 19 12.35 18.2Q13.3 17.35 14.55 17.05L15.05 17.1L15.3 17.35L14.35 17.7Q13.55 18.05 12.85 18.5M13.95,13.25L13.9 14.15L13.85 14.85L14.9 14.85L14.95 14.85L15.75 15.15L16 15.3L16.05 15.35L16.15 15.55L16.15 15.4L16.15 15.05L16.15 13.45L14.75 13.5L13.95 13.25" />
<path style="fill:#FFEAE2;fill-opacity:1" d="M11.8,3.6L11.95 3.5L12.45 3.4Q12.8 3.3 13.2 4.5L13.4 5.85L13.2 5.4Q12.65 4.05 12.05 3.75L11.8 3.75L11.8 3.6M8.95,1.25L9.15 1.15Q10.35 0.75 10.25 2.85L10.25 3.4L10.05 2.8Q9.6 1.5 8.95 1.25M15.75,8.9L14.9 7.9L14.9 7.5L15 7.45Q15.3 7.25 15.7 7.7Q16.05 8 16.15 9.6L15.75 8.9M16.1,16L16.15 16.05L16.15 16.3Q15.15 15.65 13.9 15.65L12.5 15.9L12.15 16.15L12.05 15.95L12 16.15L11.05 15.9L9.8 15.95L9.4 15.6L10.5 15.45L10.8 15.5L12 15.8L12.05 15.95L12.25 15.65L12.25 15.7L12.3 15.75Q12.8 15.5 13.85 15.4L13.85 15.35L15.7 15.65L15.95 15.7L16.1 16M6.6,5.65Q6.2 4.7 5.65 4.6L5.7 4.5Q6.2 4 6.55 4.8L6.85 6.3L6.6 5.65M5,15.35L4.95 15.35L5 15.2Q5 15.05 5.35 15.05L5.9 15.1L6.8 15.3L6.65 15.4L6.4 15.75L5 15.35M1.35,14.95Q1.8 14.35 2.4 14.4L3.7 14.65L4.6 14.85Q4.45 14.95 4.45 15.2L2.2 14.85L1.35 14.95M16.05,18.8L15 18.6Q13.9 18.6 12.4 19.65L10.95 20.9L11.25 20.3Q11.8 19.15 12.85 18.5Q13.55 18.05 14.35 17.7L15.1 17.6Q15.6 17.6 16.1 17.95L16.05 18.8" />
<path style="fill:#D08E76;fill-opacity:1" d="M13.45,6.7L13.2 6.65L11.55 6.6L11.2 6.75L11.15 5.65Q11.3 4.15 11.5 3.85L11.65 3.75L11.8 3.6L11.8 3.75L11.75 5.5Q11.9 6.35 12.9 6.35L13.45 6.3L13.45 6.7M8.7,3.6Q8.7 4.7 9.05 4.9L10.15 5L10.15 5.5L10.05 5.5L8.2 5.5L8.15 5.55L8.2 3.3Q8 1.85 8.75 1.35L8.7 3.6M15.05,9Q15.35 9.65 16.15 9.6L16.15 9.85L15.75 9.8L14.35 9.8L14.3 9.85L14.55 8.15L14.6 8.1L14.65 7.85Q14.7 7.6 14.9 7.5L14.9 7.9Q14.9 8.65 15.05 9M11.85,10.45L13.25 10.6L13.25 10.95L11.05 10.9L11.15 8.15L11.2 7.1L11.9 7.25L11.85 10.45M11.75,14.35Q11.85 14.95 12.75 15.1L12.55 15.2L12.35 15.3L12.25 15.65L12.05 15.95L12 15.8L11.3 15L11.05 14.75L11.05 11.45L11.65 11.5L11.75 14.35M8.4,7.9Q8.4 8.75 8.95 9.25Q9.45 9.75 10.25 9.75L10.25 9.8L10.25 10.05L8.5 10L8.1 10.15L8.05 9.1L8.15 6.05L8.5 6.15L8.55 6.15L8.4 7.9M14.75,11.9Q14.75 12.5 15 12.75L14 12.75L14.2 10.85L14.25 10.4L14.85 10.4L14.75 11.9M6.35,7.35L5.35 7.3L5.2 7.35L5.15 7.45L5.3 5.9Q5.15 5.15 5.6 4.65L5.55 4.95L5.75 6.75L6.35 7.35M5.75,10.6Q5.75 11.05 6.15 11.15L6.6 11.25L6.1 11.2L5.2 11.35L5.15 9.1L5.2 7.9L5.7 8.05L5.75 10.6M6.85,14.25L6.5 14.25L5.35 14L5.2 11.95L5.85 11.95Q5.7 14 6.85 14.25M8.85,14Q8.95 14.75 9.75 14.95L9.3 15.1L9 15.3L8.8 15.2L8.2 14.75L8.2 13L8.15 10.55L8.8 10.75L8.85 14M4.1,16.95L4.95 17.1L6.25 17.2L6.75 17.2L7.55 17.6L8.25 17.85L8.1 17.9L7 18.05L5.05 17.4L4 17L4.1 16.95M3.5,16.8L3.7 17L4.7 17.85Q6.15 19.05 7.85 18.8Q8.6 19.55 9 20.75L9.05 20.9L8.8 20.65Q7.8 19.75 7.45 19.75L5.1 19.05Q3.5 18.15 3.5 16.8M9.05,19.35L8.35 18.7Q9.55 18.4 9.95 17.8L10.15 17.3L10.15 17.25L10.3 17.9Q10.3 19.15 9.05 19.35M1.2,15.15Q1.2 16.45 3.4 19.1L4.65 21.85Q5.05 23.1 6.05 23.55L7.1 24.1L8.25 24.3L9.6 24.05L9.6 24.1Q8.25 25.2 6.15 25Q4.05 24.75 3.55 22.15Q3 19.55 1.85 17.8Q0.6 16.05 1.15 15.2L1.2 15.15M9.85,23.65L9.85 23.55L10 23.5L11.85 23.95Q13.4 23.95 14.7 23.15L15.7 22.2Q15.2 24.85 12.7 25.05Q11.35 24.95 10.5 24.2L9.85 23.7L9.85 23.65M14.75,13.5L14.7 14.2L14.95 14.85L14.9 14.85L13.85 14.85L13.9 14.15L13.95 13.25L14.75 13.5" />
</g>
</svg>
