<?xml version="1.0" encoding="utf-8"?>
<svg version="1.1" id="Layer_1"
xmlns="http://www.w3.org/2000/svg"
xmlns:xlink="http://www.w3.org/1999/xlink"
xmlns:author="http://www.sothink.com"
width="74px" height="28px"
xml:space="preserve">
<g id="714" transform="matrix(1, 0, 0, 1, -4.25, -20.25)">
<path style="fill:#E6BE45;fill-opacity:1" d="M30.95,41.2L23.95 43.1L11.65 45.95L10.5 38.25L11.7 37.75L16.15 36L55.95 29.45L55.45 31.7L63.7 30.2L63.2 32.2L67.2 30.45L68.35 33.4L62.1 34.6L40.7 39.25L36.6 40.15L30.75 41.5L30.95 41.2" />
<path style="fill:#FAE49E;fill-opacity:1" d="M16.15,36Q21.8 33.85 27.45 32.2Q49.8 25.6 71.7 26.25L72.4 32.65L71.55 32.8L70.45 32.95L70.4 33L68.35 33.4L67.2 30.45L63.2 32.2L63.7 30.2L55.45 31.7L55.95 29.45L16.15 36" />
<path style="fill:#DE9A2D;fill-opacity:1" d="M30.75,41.5L23.95 43.1L30.95 41.2L30.75 41.5" />
<path style="fill:#B65E19;fill-opacity:1" d="M71.7,26.25Q49.8 25.6 27.45 32.2Q21.8 33.85 16.15 36L11.7 37.75L10.5 38.25L11.65 45.95L10.35 46.25Q10.1 46.45 10.7 46.25L6.75 47.7L5.5 42.95L5.1 41.3L4.25 36.45L11.7 33.3L14.35 32.2Q33.35 24.55 46.6 22.05Q61.85 19.15 74.65 20.95L76.85 21.3L77.95 31.75L75.6 31.95L75.6 32.15L75.45 32.1L72.4 32.65L71.7 26.25" />
</g>
</svg>
