<?xml version="1.0" encoding="utf-8"?>
<svg version="1.1" id="Layer_1"
xmlns="http://www.w3.org/2000/svg"
xmlns:xlink="http://www.w3.org/1999/xlink"
xmlns:author="http://www.sothink.com"
width="17px" height="14px"
xml:space="preserve">
<g id="259" transform="matrix(1, 0, 0, 1, 0, 0)">
<path style="fill:#929896;fill-opacity:1" d="M10.8,4.85L10.3 5.35L8.15 4.35L8.05 4.4L8.05 4.35L7.7 4.2Q4.75 3.1 2.7 3.1L1.35 3.15L1.3 3.15L1 2.75L1 2.65Q0.95 1.9 1.3 1.55L6.9 1.7L8.75 2.7L10.55 4L11.05 4.55L11.25 5.2L10.8 4.85M15.75,8.8L15.55 8.55L14.45 7.4L13.75 7.05L13.65 7L13.15 6.95L12.15 6.9L11.5 7L10.65 7.4L10.65 7.2L10.8 7.05Q11.35 6.45 12.1 6.15Q12.3 6 12.6 5.95L12.65 5.95L12.75 5.95Q13.45 5.7 13.85 5.95L13.9 6L13.95 6.05L14 6.1L15.25 7.35L15.8 8.45L15.8 8.9L15.75 8.8" />
<path style="fill:#1F2C31;fill-opacity:1" d="M1,3.2L1 3.4L1.05 3.65L1.05 3.7L1.2 4.3L1.4 4.9Q1.7 5.9 2.45 6.85Q3.55 8.35 5.95 9.2Q8.35 10.05 8.4 9.65L8.4 9.6L8.5 9.2L8.5 9.05L8.55 8.95L8.65 8.55L8.75 8.25L8.8 8.05Q9.1 7.15 9.8 6.5L10.4 5.95L10.7 5.7L11.1 5.4L11.25 5.2L11.05 4.55L10.55 4L8.75 2.7L6.9 1.7L1.3 1.55Q0.95 1.9 1 2.65L1 2.75L1 3.2M10.55,7.4L10.15 7.9L9.85 8.55L9.7 9.05L9.55 9.5L9.45 9.8L9.45 9.85L9.5 10.75Q9.6 11.2 10.7 11.9Q11.8 12.6 13.5 12.2Q14.85 11.8 15.4 10.75L15.45 10.65L15.55 10.4L15.55 10.35L15.65 9.95L15.8 8.9L15.8 8.45L15.25 7.35L14 6.1L13.95 6.05L13.9 6L13.85 5.95Q13.45 5.7 12.75 5.95L12.65 5.95L12.6 5.95Q12.3 6 12.1 6.15Q11.35 6.45 10.8 7.05L10.65 7.2L10.55 7.4M12.4,4.65L13.3 4.6Q14.05 4.6 14.5 5.1L15.8 6.45L15.85 6.5L15.95 6.6L16.7 7.85L16.75 8.05L16.8 8.5L16.8 9L16.8 9.4L16.8 9.65L16.7 10.2L16.65 10.3L16.5 10.7Q16.1 11.75 15.25 12.4Q14.4 13.05 13.2 13.3L11.05 13.1L9.1 11.8L8.25 10.85Q6.85 10.75 5.2 10.05Q3.15 9.15 2.15 8.05Q1.15 6.9 0.55 5.5L0.5 5.3L0.2 4.35L0.2 4.25L0.1 3.9L0.05 3.65L0.05 3.4L0.05 2.65L0.05 2.55L0.05 2.5L0.05 2.3L0.2 1.25L0.25 1.15L0.3 1L0.45 0.75L0.6 0.6Q1.1 0.3 1.85 0.15L4.2 0.05Q5.85 0.1 8.3 1.25Q10.75 2.35 11.65 3.55L12.4 4.65" />
<path style="fill:#37414A;fill-opacity:1" d="M4.5,7.45Q2.6 6.4 1.4 4.9L1.2 4.3L1.05 3.7L1.05 3.65L1 3.4L1 3.2L1 2.75L1.3 3.15Q2.1 4.15 3.3 4.8L5.55 5.65L5.7 5.7L5.75 5.7L7.7 5.95L8.25 5.95L9.95 5.6L10.3 5.35L10.8 4.85L11.25 5.2L11.1 5.4L10.7 5.7L10.4 5.95L9.8 6.5Q9.1 7.15 8.8 8.05L8.75 8.25L8.65 8.55L8.55 8.95Q6.6 8.65 4.5 7.45M9.45,9.85L9.45 9.8L9.55 9.5L9.7 9.05L9.85 8.55L10.15 7.9L10.95 8.5Q12 9.1 13.2 9.1L15.55 8.55L15.75 8.8L15.8 8.9L15.65 9.95L15.55 10.35L15.55 10.4L15.45 10.65L15.4 10.75Q14.4 11.3 13.4 11.3Q11.55 11.3 10.1 10.35L9.45 9.85" />
<path style="fill:#5F6D77;fill-opacity:1" d="M1.3,3.15L1.35 3.15L2.7 3.1Q4.75 3.1 7.7 4.2L8.05 4.35L8.05 4.4L8.15 4.35L10.3 5.35L9.95 5.6L8.25 5.95L7.7 5.95L5.75 5.7L5.7 5.7L5.55 5.65L3.3 4.8Q2.1 4.15 1.3 3.15M8.55,8.95L8.5 9.05L8.5 9.2L8.4 9.6L8.4 9.65Q8.35 10.05 5.95 9.2Q3.55 8.35 2.45 6.85Q1.7 5.9 1.4 4.9Q2.6 6.4 4.5 7.45Q6.6 8.65 8.55 8.95M10.1,10.35Q11.55 11.3 13.4 11.3Q14.4 11.3 15.4 10.75Q14.85 11.8 13.5 12.2Q11.8 12.6 10.7 11.9Q9.6 11.2 9.5 10.75L9.45 9.85L10.1 10.35M10.15,7.9L10.55 7.4L10.65 7.2L10.65 7.4L11.5 7L12.15 6.9L13.15 6.95L13.65 7L13.75 7.05L14.45 7.4L15.55 8.55L13.2 9.1Q12 9.1 10.95 8.5L10.15 7.9" />
</g>
</svg>
