<?xml version="1.0" encoding="utf-8"?>
<svg version="1.1" id="Layer_1"
xmlns="http://www.w3.org/2000/svg"
xmlns:xlink="http://www.w3.org/1999/xlink"
xmlns:author="http://www.sothink.com"
width="27px" height="22px"
xml:space="preserve">
<g id="1622" transform="matrix(1, 0, 0, 1, 0.6, 0.5)">
<path style="fill:#D79B07;fill-opacity:1" d="M14.1,11.7L14.95 11.85L15.5 12.45L15.95 13Q17.3 14.75 17.3 15.7Q17.3 17.5 16.5 17.5Q15.2 17.5 14.15 16.7Q12.75 15.65 12.75 13.65L12.85 12.3Q13.1 11.7 14.1 11.7" />
<path style="fill:#DF9931;fill-opacity:1" d="M22.4,12.7Q21 9.85 19.8 9.7L18.6 9.5L18.45 9.9L18.35 9.9Q18.3 8.6 16.1 7.1Q13.75 5.5 11 5.5Q8.7 5.5 7.4 7.35Q6.2 9.05 7 10.5Q6.3 10.65 6.3 11.5Q6.3 13.15 8.4 15.05Q9.65 16.2 11.15 17.1L11.15 17.2Q10.6 17.2 10.1 17.65Q9.55 18.3 9.55 19.45L9.75 21L8.55 20Q6.35 18.55 3.55 18.3L3.5 18.2L3.65 16.95Q3.65 15.15 2.75 13.2Q1.6 10.7 -0.6 9.3L-0.6 9.2Q0.3 9 1.3 8Q2.25 7 2.2 5.1Q2.15 3.2 1.7 2.05L0.8 -0.1L2.1 0.3L5.7 0.7Q7.95 0.7 9.05 -0.5L11.65 2.25Q13.85 4.25 19.05 6.25Q20.6 6.85 22 5.7Q21.15 7.35 22.7 9L26.1 12.2L25.7 12.6Q24.65 13.7 23.25 18.55Q23.85 15.55 22.4 12.7" />
</g>
</svg>
