<?xml version="1.0" encoding="utf-8"?>
<svg version="1.1" id="Layer_1"
xmlns="http://www.w3.org/2000/svg"
xmlns:xlink="http://www.w3.org/1999/xlink"
xmlns:author="http://www.sothink.com"
width="20px" height="13px"
xml:space="preserve">
<g id="1644" transform="matrix(1, 0, 0, 1, 0, 0)">
<path style="fill:#3F94BB;fill-opacity:0.701961" d="M14.7,3.35L14.65 3.2Q13.8 2.65 12.65 2.8L11.75 3.1Q10.65 3.5 10.5 4.45L10.65 4.55Q13.35 5.1 14.7 3.35M4.9,7.4Q5.4 6.55 5.5 5.6L5.5 4.65L5.4 4.75L4.9 5.1Q3.45 6.25 2.85 7.55L2.3 6.2L3 5.65Q5.15 4.7 7 3.05L7.65 2.8L8.45 2.05L19.2 0L17.75 5.35L7.2 11.4Q5.05 10.5 3.75 8.85L4.9 7.4M12.55,6.75Q10.6 5.95 8.25 6.3L7.95 6.35Q6.55 6.6 5.7 7.25L5.5 7.4L5.45 7.7L5.6 7.8Q9.7 8.8 12.6 6.85L12.55 6.75M0,12.5L0.75 12.15L0.2 12.6L0 12.5" />
<path style="fill:#CBFFFF;fill-opacity:0.74902" d="M10.65,4.55L10.5 4.45Q10.65 3.5 11.75 3.1L12.65 2.8Q13.8 2.65 14.65 3.2L14.7 3.35Q13.35 5.1 10.65 4.55" />
<path style="fill:#62B3C4;fill-opacity:0.701961" d="M12.6,6.85Q9.7 8.8 5.6 7.8L5.45 7.7L5.5 7.4L5.7 7.25Q6.55 6.6 7.95 6.35L8.25 6.3Q10.6 5.95 12.55 6.75L12.6 6.85" />
<path style="fill:#477585;fill-opacity:1" d="M3.75,8.85L2.85 7.55Q3.45 6.25 4.9 5.1L5.4 4.75L5.5 4.65L5.5 5.6Q5.4 6.55 4.9 7.4L3.75 8.85" />
</g>
</svg>
