<?xml version="1.0" encoding="utf-8"?>
<svg version="1.1" id="Layer_1"
xmlns="http://www.w3.org/2000/svg"
xmlns:xlink="http://www.w3.org/1999/xlink"
xmlns:author="http://www.sothink.com"
width="13px" height="11px"
xml:space="preserve">
<g id="1291" transform="matrix(1, 0, 0, 1, -0.45, 1.3)">
<path style="fill:#4E1C10;fill-opacity:1" d="M2.95,2.65Q2.8 2.65 2.7 2.75Q1.7 3.25 1.5 4.4L1.45 4.7Q1.35 6.85 2.9 7.6L3.25 8.6L2.75 8.4L1.9 7.9Q0.55 6.85 0.6 5.4L0.6 5.3L0.6 5.1L0.6 4.9L0.55 4.7Q1.1 2.85 1.95 2.25L1.8 2.45L2.3 2.05L3.2 1.5L4.4 1.1L4.45 1.1L6 0.9L7.25 1.05L8.1 1.2L8.3 1.4L6.85 1.9Q5.05 1.75 2.95 2.65" />
<path style="fill:#BB482E;fill-opacity:1" d="M3.3,4.4Q3.05 4.4 2.85 3.85L2.75 3.45Q3.3 3.15 3.9 3L5.55 2.65L5.6 2.65L4.4 3.65L3.8 4.35L3.3 4.4" />
<path style="fill:#8C331D;fill-opacity:1" d="M1.45,4.7L1.5 4.4Q1.7 3.25 2.7 2.75L2.7 2.85L2.75 3.45L2.85 3.85Q3.05 4.4 3.3 4.4L3.8 4.35Q2.6 5.8 3.1 7.65L2.9 7.6Q1.35 6.85 1.45 4.7" />
<path style="fill:#EE7557;fill-opacity:1" d="M6.85,1.9L7 1.9L6.55 2.1Q6.1 2.3 5.6 2.65L5.55 2.65L3.9 3Q3.3 3.15 2.75 3.45L2.7 2.85L2.7 2.75Q2.8 2.65 2.95 2.65Q5.05 1.75 6.85 1.9" />
<path style="fill:#A66221;fill-opacity:1" d="M3.35,1.05Q4.65 0.4 5.85 0.4Q7.35 0.4 7.7 0.75Q7.4 0.85 7.25 1.05L6 0.9L4.45 1.1L4.4 1.1L3.2 1.5L2.3 2.05L1.8 2.45L1.95 2.25L2.25 1.75Q2.75 1.35 3.35 1.05M5.35,5.15L5.4 5.65L6.95 4.75Q8.15 4.15 10.05 4.15Q10.65 4.15 11.15 4.6L11.7 5.1L12 5L11.8 6.55Q10.9 6.05 9.4 5.95Q7.95 5.9 6.5 6.55Q5.05 7.2 4.3 8L4 7.45Q3.9 7.1 4.25 6.05Q4.6 5 5.55 4.1L5.65 4Q5.35 4.65 5.35 5.15" />
<path style="fill:#BF7A24;fill-opacity:1" d="M7.25,1.05Q7.4 0.85 7.7 0.75Q7.35 0.4 5.85 0.4Q4.65 0.4 3.35 1.05Q2.75 1.35 2.25 1.75Q3 0.75 3.9 0.25L5.65 0.15L7 0.2L7.7 0.3Q8.05 0.3 8.2 0.55L8.45 1.15L8.3 1.3L8.1 1.2L7.25 1.05M11.9,3.75L12 5L11.7 5.1L11.15 4.6Q10.65 4.15 10.05 4.15Q8.15 4.15 6.95 4.75L5.4 5.65L5.35 5.15Q5.35 4.65 5.65 4L6.35 3.45Q7.9 2.85 8.4 3L9.5 3.1Q10.25 4.15 10.95 4.15L11.6 4L11.65 3.6L11.9 3.75" />
<path style="fill:#FAC154;fill-opacity:1" d="M8.2,0.55Q8.05 0.3 7.7 0.3L7 0.2L5.65 0.15L3.9 0.25L8.6 0.1L8.6 0.75L8.45 1.15L8.2 0.55M11.65,3.6L11.6 4L10.95 4.15Q10.25 4.15 9.5 3.1L8.4 3Q7.9 2.85 6.35 3.45L7.6 2.85L7.75 2.8L8.9 2.65Q10.4 2.65 10.45 3Q10.5 3.3 10.95 3.3L11.4 3.05L11.55 2.8L11.65 3.05L11.9 3.65L11.9 3.75L11.65 3.6" />
<path style="fill:#FFF3A1;fill-opacity:1" d="M11.4,3.05L10.95 3.3Q10.5 3.3 10.45 3Q10.4 2.65 8.9 2.65L7.75 2.8L8.35 2.55Q10.25 1.9 10.9 2.25L11.55 2.8L11.4 3.05" />
<path style="fill:#792E0A;fill-opacity:1" d="M2.9,7.6L3.1 7.65Q2.6 5.8 3.8 4.35L4.4 3.65L5.6 2.65Q6.1 2.3 6.55 2.1L7 1.9L6.85 1.9L8.3 1.4L8.1 1.2L8.3 1.3L8.45 1.15L8.6 0.75L8.6 0.1L3.9 0.25Q3 0.75 2.25 1.75L1.95 2.25Q1.1 2.85 0.55 4.7Q0.2 2.8 1.3 1.3L1.95 0.6Q3.7 -1.15 6.15 -1.25L8.75 -0.85Q9.8 -0.45 9.55 0.75L9.4 1.3L10.25 1.1L11.45 1.2Q12.15 1.45 12.65 2.65L13 4.2L13.05 4.4L13 5.45L12.85 6.2Q12.65 7.2 12.2 7.45Q11.7 7.65 11.3 7.45L9.5 7Q8.1 6.7 6.15 8.25Q4.3 9.75 3.75 9.25L3.4 8.85L3.3 8.6L3.25 8.6L2.9 7.6M7.6,2.85L6.35 3.45L5.65 4L5.55 4.1Q4.6 5 4.25 6.05Q3.9 7.1 4 7.45L4.3 8Q5.05 7.2 6.5 6.55Q7.95 5.9 9.4 5.95Q10.9 6.05 11.8 6.55L12 5L11.9 3.75L11.9 3.65L11.65 3.05L11.55 2.8L10.9 2.25Q10.25 1.9 8.35 2.55L7.75 2.8L7.6 2.85" />
</g>
</svg>
