<?xml version="1.0" encoding="utf-8"?>
<svg version="1.1" id="Layer_1"
xmlns="http://www.w3.org/2000/svg"
xmlns:xlink="http://www.w3.org/1999/xlink"
xmlns:author="http://www.sothink.com"
width="44px" height="54px"
xml:space="preserve">
<g id="1471" transform="matrix(1, 0, 0, 1, 3.05, 26.7)">
<path style="fill:#FFFFFF;fill-opacity:1" d="M37,-23.55Q35.45 -21.95 32.65 -21.05Q29.8 -20.2 27.75 -20.05Q31.4 -21.05 34.5 -23.15L37.1 -25.25L37.3 -24.95L37.4 -24.75Q39.25 -19.95 38.7 -14.5L38.15 -10.85Q39 -19.1 37 -23.55" />
<path style="fill:#1E181A;fill-opacity:1" d="M23.5,-5.85Q24.45 -8 24.45 -9.95L24.75 -9.8Q27.2 -8.85 30.1 -10.4Q31.65 -11.2 32.65 -12.2L32.55 -11.5Q30 0.3 21.75 6.95Q13.45 13.55 8.8 15.4L8.15 15.4Q6.05 15.2 6.3 14.2L6.55 13.95L7.15 13.1Q12.25 10.45 15.05 4.9Q16.5 2.15 16.9 -0.2L17.2 -0.3Q21.75 -1.75 23.5 -5.85M23.8,-2.15Q23.8 -1.2 24.35 -0.85L25.8 -0.9Q26.6 -1.25 27.2 -2.2Q27.85 -3.1 27.8 -4.05Q27.8 -4.85 27.4 -5.25L27.2 -5.4L25.8 -5.35L25.4 -5.1L24.4 -4Q23.8 -3.05 23.8 -2.15M22.35,1.05L21.25 0.95L20.75 1.2L19.95 1.9Q19.35 2.6 19.25 3.3Q19.15 4.05 19.55 4.4L20.7 4.45Q21.35 4.25 21.95 3.55Q22.55 2.95 22.65 2.2Q22.75 1.6 22.5 1.2L22.35 1.05M17.55,6.35L16.85 6.3L16.7 6.3Q16.15 6.5 15.75 7Q15.25 7.5 15.2 8.05Q15.1 8.6 15.4 8.9L16.3 8.95L17.25 8.3L17.8 7.25L17.7 6.6L17.55 6.35" />
<path style="fill:#463D36;fill-opacity:1" d="M26,-19.7L23.2 -19.45L22.45 -19.45L21.75 -19.55L21.75 -19.5L21.65 -16.6Q21.75 -10 17.3 -6.25Q16.15 -5.3 14.7 -4.5L13.65 -3.95L12.45 -3.45Q12.5 2.7 10.05 6.45Q7.6 10.15 5.75 10.7L4.9 10.95L5.5 10.45Q5.65 10.35 5.85 10.2L8.25 7.5Q10.05 5.05 10.75 2.1Q11.4 -0.85 11.25 -2.05L10.85 -4.15L10.85 -4.2Q11.9 -4.5 13.25 -5.1Q15.4 -6.15 17.6 -8.45Q19.8 -10.8 20.15 -13.05L20.3 -13.9L20.55 -15.75L20.65 -19.1L20.7 -19.95Q20.7 -20.5 20.9 -20.65L21.15 -20.7L21.75 -20.7L22.1 -20.65L22.8 -20.6L23.55 -20.6L26.9 -21.05Q30.1 -21.7 33 -23.65L36.7 -26.35Q37.15 -26.8 37.5 -26.7L37.85 -26.5L38.8 -24.15L39.85 -19.65L39.95 -19Q40.75 -5.3 30.05 6.3L24.55 11.05L22.45 12.5Q18.15 15.3 13.2 17.15L11.45 17.6Q10.65 17.8 10.8 17.3L11.55 16.75Q13 15.95 17 14.3Q19.65 13.2 22.55 11.1Q22.65 11 22.8 10.95Q26.45 8.2 30.45 3.9Q32.9 1.2 34.65 -1.75Q37.1 -6 38.15 -10.85L38.7 -14.5Q39.25 -19.95 37.4 -24.75L37.3 -24.95L37.1 -25.25L34.5 -23.15Q31.4 -21.05 27.75 -20.05L26 -19.7" />
<linearGradient
id="LinearGradID_1632" gradientUnits="userSpaceOnUse" gradientTransform="matrix(-0.00753784, 0.00344849, -0.00300598, -0.00657654, 32.65, -18.05)" spreadMethod ="pad" x1="-819.2" y1="0" x2="819.2" y2="0" >
<stop  offset="0" style="stop-color:#7B6F66;stop-opacity:1" />
<stop  offset="1" style="stop-color:#CDC2BC;stop-opacity:1" />
</linearGradient>
<path style="fill:url(#LinearGradID_1632) " d="M24.65,-11.4Q24.45 -15.6 23.25 -18.65Q29.5 -18.4 36.85 -21.95L36.15 -19.05Q34.15 -14.05 32.65 -12.2Q31.65 -11.2 30.1 -10.4Q27.2 -8.85 24.75 -9.8L24.65 -11.4" />
<linearGradient
id="LinearGradID_1633" gradientUnits="userSpaceOnUse" gradientTransform="matrix(-0.00489807, 0.00881958, -0.00337219, -0.00187683, 13.1, 1.95)" spreadMethod ="pad" x1="-819.2" y1="0" x2="819.2" y2="0" >
<stop  offset="0" style="stop-color:#7B6F66;stop-opacity:1" />
<stop  offset="1" style="stop-color:#CDC2BC;stop-opacity:1" />
</linearGradient>
<path style="fill:url(#LinearGradID_1633) " d="M5.75,10.7Q7.6 10.15 10.05 6.45Q12.5 2.7 12.45 -3.45L14.9 -1.8L16.9 -0.2Q16.5 2.15 15.05 4.9Q12.25 10.45 7.15 13.1L6.55 13.95Q5.5 12.55 5.75 10.7" />
<linearGradient
id="LinearGradID_1634" gradientUnits="userSpaceOnUse" gradientTransform="matrix(-0.00372314, 0.00617981, -0.00450134, -0.00270081, 20.85, -9.65)" spreadMethod ="pad" x1="-819.2" y1="0" x2="819.2" y2="0" >
<stop  offset="0" style="stop-color:#7B6F66;stop-opacity:1" />
<stop  offset="1" style="stop-color:#CDC2BC;stop-opacity:1" />
</linearGradient>
<path style="fill:url(#LinearGradID_1634) " d="M23.55,-15.1Q24.3 -12.35 24.45 -9.95Q24.45 -8 23.5 -5.85Q21.75 -1.75 17.2 -0.3L13.9 -3.7L15.6 -4.65L17.3 -6.25Q21.75 -10 21.65 -16.6L21.75 -19.5Q22.8 -17.75 23.55 -15.1" />
<linearGradient
id="LinearGradID_1635" gradientUnits="userSpaceOnUse" gradientTransform="matrix(0.0118256, -0.0215607, 0.00804138, 0.00440979, 25.35, -0.25)" spreadMethod ="pad" x1="-819.2" y1="0" x2="819.2" y2="0" >
<stop  offset="0" style="stop-color:#7B6F66;stop-opacity:1" />
<stop  offset="1" style="stop-color:#CDC2BC;stop-opacity:1" />
</linearGradient>
<path style="fill:url(#LinearGradID_1635) " d="M8.15,15.4L8.8 15.4Q13.45 13.55 21.75 6.95Q30 0.3 32.55 -11.5L33.65 -12.7Q36.1 -15.85 37.5 -19.7Q38.15 -11.1 34.65 -1.75Q32.9 1.2 30.45 3.9Q26.45 8.2 22.8 10.95Q22.65 11 22.55 11.1Q19.65 13.2 17 14.3Q13 15.95 11.55 16.75Q10.05 16.45 8.7 15.7L8.15 15.4M36.85,-21.95L37.15 -22.6L37.15 -22.45L36.85 -21.95" />
<path style="fill:#E2E2E2;fill-opacity:1" d="M21.75,-19.5L21.75 -19.55L22.45 -19.45L23.2 -19.45L26 -19.7L27.75 -20.05Q29.8 -20.2 32.65 -21.05Q35.45 -21.95 37 -23.55Q39 -19.1 38.15 -10.85Q37.1 -6 34.65 -1.75Q38.15 -11.1 37.5 -19.7Q36.1 -15.85 33.65 -12.7L32.55 -11.5L32.65 -12.2Q34.15 -14.05 36.15 -19.05L36.85 -21.95Q29.5 -18.4 23.25 -18.65Q24.45 -15.6 24.65 -11.4L24.75 -9.8L24.45 -9.95Q24.3 -12.35 23.55 -15.1Q22.8 -17.75 21.75 -19.5M15.6,-4.65L13.9 -3.7L17.2 -0.3L16.9 -0.2L14.9 -1.8L12.45 -3.45L13.65 -3.95L14.7 -4.5Q16.15 -5.3 17.3 -6.25L15.6 -4.65M37.15,-22.45L37.15 -22.6L36.85 -21.95L37.15 -22.45" />
<path style="fill:#E29E36;fill-opacity:1" d="M24.9,-4.2L24.65 -3.85Q24.15 -3.05 24.15 -2.3Q24.15 -1.55 24.6 -1.25L25.8 -1.3Q26.45 -1.6 26.95 -2.35Q27.5 -3.1 27.45 -3.9L27.45 -4.25L27.05 -3.5L26.1 -2.6Q25.5 -2.3 25.1 -2.6Q24.75 -2.8 24.75 -3.45L24.9 -4.2M24.4,-4L25.4 -5.1L25.8 -5.35L27.2 -5.4L27.4 -5.25Q27.8 -4.85 27.8 -4.05Q27.85 -3.1 27.2 -2.2Q26.6 -1.25 25.8 -0.9L24.35 -0.85Q23.8 -1.2 23.8 -2.15Q23.8 -3.05 24.4 -4M26.45,-4Q27.15 -4.6 26.3 -4.95Q24.85 -4.4 26 -3.85L26.45 -4M22.5,1.2Q22.75 1.6 22.65 2.2Q22.55 2.95 21.95 3.55Q21.35 4.25 20.7 4.45L19.55 4.4Q19.15 4.05 19.25 3.3Q19.35 2.6 19.95 1.9L20.75 1.2L21.25 0.95L22.35 1.05L22.5 1.2M22,2.5L21.1 3.1L20.3 3.05Q20 2.85 20.1 2.3L20.15 2.05Q19.65 2.6 19.55 3.2Q19.5 3.8 19.8 4.05L20.75 4.1L21.75 3.4L22.3 2.3L22.35 2.05L22 2.5M21.85,1.95Q22 1.55 21.6 1.4Q20.15 1.75 21.25 2.25Q21.7 2.4 21.85 1.95M17.7,6.6L17.8 7.25L17.25 8.3L16.3 8.95L15.4 8.9Q15.1 8.6 15.2 8.05Q15.25 7.5 15.75 7Q16.15 6.5 16.7 6.3L16.85 6.3L17.55 6.35L17.7 6.6M17.4,7L17 6.6Q15.9 7.3 17.2 7.25L17.4 7M17.55,7.25L17.35 7.5L16.7 7.95L16.15 7.9L16 7.35L16.35 6.7L15.9 7.1Q15.5 7.5 15.45 7.95Q15.35 8.4 15.6 8.65L16.35 8.7L17.1 8.15L17.55 7.3L17.55 7.25" />
<path style="fill:#D74B25;fill-opacity:1" d="M24.75,-3.45Q24.75 -2.8 25.1 -2.6Q25.5 -2.3 26.1 -2.6L27.05 -3.5L27.45 -4.25L27.45 -3.9Q27.5 -3.1 26.95 -2.35Q26.45 -1.6 25.8 -1.3L24.6 -1.25Q24.15 -1.55 24.15 -2.3Q24.15 -3.05 24.65 -3.85L24.9 -4.2L24.75 -3.45M22.35,2.05L22.3 2.3L21.75 3.4L20.75 4.1L19.8 4.05Q19.5 3.8 19.55 3.2Q19.65 2.6 20.15 2.05L20.1 2.3Q20 2.85 20.3 3.05L21.1 3.1L22 2.5L22.35 2.05M17.55,7.3L17.1 8.15L16.35 8.7L15.6 8.65Q15.35 8.4 15.45 7.95Q15.5 7.5 15.9 7.1L16.35 6.7L16 7.35L16.15 7.9L16.7 7.95L17.35 7.5L17.55 7.25L17.55 7.3" />
<path style="fill:#F7DA7D;fill-opacity:1" d="M26,-3.85Q24.85 -4.4 26.3 -4.95Q27.15 -4.6 26.45 -4L26 -3.85M21.25,2.25Q20.15 1.75 21.6 1.4Q22 1.55 21.85 1.95Q21.7 2.4 21.25 2.25M17.2,7.25Q15.9 7.3 17 6.6L17.4 7L17.2 7.25" />
<path style="fill:#4D3212;fill-opacity:1" d="M6.5,19.05L6.75 20.1L6.7 20.2L5.45 21.25Q3.85 22.6 3 22.2Q2.15 21.85 1.3 20.95L1.2 20.85Q0.3 19.9 0.3 19.2Q0.3 18.5 1.1 17.5L2.95 15.5L3.25 15.15L4.1 15.7L2.65 17.15Q1.75 18 1.5 18.75Q1.2 19.45 1.85 20.2L1.95 20.3L3.45 21.35Q4.1 21.35 5.3 20.2L5.95 19.6L6.5 19.05" />
<path style="fill:#745416;fill-opacity:1" d="M5.95,19.6Q4.4 18.25 4.05 17.5Q3.3 18.25 1.9 20.15L1.85 20.2Q1.2 19.45 1.5 18.75Q1.75 18 2.65 17.15L4.1 15.7L4.2 15.8Q5.5 16.8 6.2 18.3L6.5 19.05L5.95 19.6" />
<path style="fill:#9A7226;fill-opacity:1" d="M1.9,20.15Q3.3 18.25 4.05 17.5Q4.4 18.25 5.95 19.6L5.3 20.2Q4.1 21.35 3.45 21.35L1.95 20.3L1.85 20.2L1.9 20.15" />
<path style="fill:#871A1A;fill-opacity:1" d="M-0.05,12.65L0.15 12.65L1.45 12.7L1.8 12.7L3.2 13.15L3.3 13.15L3.5 12.45L3.55 12.15L3.85 11.45L4.4 10.4L5.1 9.5L4.55 11.4L4.4 12.2L4.4 12.55L4.35 13.6L4.35 13.65L4.4 14L4.4 14.65L4.5 15L4.2 14.8L4 14.65L2.85 14.1L1.95 13.8L1.15 13.7L0.5 13.6L-0.35 13.65L-0.5 13.7L-1.45 13.85L-2 14.1L-1.7 13.55L-1.15 12.8L-0.05 12.65M10.1,17.45L10.05 17.45L8.4 17.45L7.9 17.45L7.5 17.4L6.4 17.2L6.05 16.6L5.2 15.6L4.9 15.3L5 14.85L5 14.55L5.05 14.15L5.05 14.1L5.15 14.15L5.8 14.7L6.75 15.85Q8.65 17.05 10.1 17.45M8,18.8L8.25 20L8.3 20.6L8.4 21.35L8.45 21.7L8.45 22.05L8.55 22.05L8.95 22L9.85 21.9Q12.2 21.5 14 20.15L15.7 18.75L15.6 19.75L14.7 21.8L13.3 22.8Q10.4 24.75 7.1 24.9L7.2 24.8L7.35 24.3L7.5 23.4L7.65 22.05L7.65 21.8L7.6 21.35L7.55 20.55L7.45 20.05L7.35 19.55L7.2 18.95L7.15 18.85L6.75 17.8L6.7 17.7L7.65 18.05L7.8 18.1L7.85 18.2L8 18.8" />
<path style="fill:#CB2E2E;fill-opacity:1" d="M0.25,12.5Q1.8 10.1 3.75 9.15Q4.75 8.6 5.5 8.6L5.1 9.5L4.4 10.4L3.85 11.45L3.55 12.15L3.5 12.45L3.3 13.15L3.2 13.15L1.8 12.7L1.45 12.7L0.15 12.65L0.25 12.5M6.75,15.85L5.8 14.7L5.15 14.15L5.05 14.1L5.1 14L5.15 13.9L5.7 12.5L6.15 11.45L6.2 11.35L6.3 11.15L6.35 11.2L6.6 11.95L6.9 12.5L7.25 13.15L7.6 13.55L8.1 14.2L8.55 14.65Q9.15 15.25 9.9 15.7L11 16.3L11.4 16.5L11.85 16.65L12.85 17L12.9 17L12.75 17.05L10.9 17.4L10.1 17.45Q8.65 17.05 6.75 15.85M7.85,18.2L8.2 18.35L9 18.6L10.2 18.85L10.9 18.9L12 18.95Q14.45 18.95 15.7 18.1L15.7 18.75L14 20.15Q12.2 21.5 9.85 21.9L8.95 22L8.55 22.05L8.45 22.05L8.45 21.7L8.4 21.35L8.3 20.6L8.25 20L8 18.8L7.85 18.2M14.7,21.8Q12.2 25.45 8.35 26.05L5.9 26.15Q6.7 25.8 7.1 24.9Q10.4 24.75 13.3 22.8L14.7 21.8" />
<path style="fill:#5B1414;fill-opacity:1" d="M5.5,8.6L6.35 7.3L5.6 7.5Q1.6 8.8 -1.15 12.8L-1.7 13.55L-2 14.1L-1.45 13.85L-0.5 13.7L-0.35 13.65L0.5 13.6L1.15 13.7L1.95 13.8L2.85 14.1L4 14.65L4.2 14.8L4.5 15L4.4 14.65L4.4 14L4.35 13.65L4.35 13.6L4.4 12.55L4.4 12.2L4.55 11.4L5.1 9.5L5.5 8.6M6.5,19.05L6.2 18.3Q5.5 16.8 4.2 15.8L4.1 15.7L3.25 15.15Q2.65 14.8 2 14.55L0.9 14.35Q-1.05 14.2 -2.4 14.95Q-3.2 15.2 -3 14.55Q-0.4 8.35 6.95 6.2L7.35 8.55Q7.75 10.2 8.25 11.3Q8.75 12.4 9.95 13.55Q11.1 14.65 13.5 15.1L16.15 15.5Q16.45 16.45 16.4 17.95L15.95 20.95Q15.4 22.65 13.55 24.35Q11.55 26.15 9.1 26.6L5.9 26.8L4.85 26.5L5.25 25.9Q6.3 25.05 6.65 23.7L6.9 22.15L6.75 20.1L6.5 19.05M5.05,14.15L5 14.55L5 14.85L4.9 15.3L5.2 15.6L6.05 16.6L6.4 17.2L7.5 17.4L7.9 17.45L8.4 17.45L10.05 17.45L10.1 17.45L10.9 17.4L12.75 17.05L12.9 17L14.9 16.25L14 16.1L12.25 15.7L10.8 15.15Q9.2 14.35 8.15 12.8L7.8 12.25L7.6 11.85L7.35 11.4L7.3 11.4L7 10.7L6.8 10.1Q6.5 9.15 6.5 8.25L5.9 9.85L5.5 11.4L5.35 12.2L5.3 12.3L5.1 13.6L5.1 13.85L5.05 14L5.05 14.1L5.05 14.15M5.9,26.15L8.35 26.05Q12.2 25.45 14.7 21.8L15.6 19.75L15.7 18.75L15.7 18.1L15.7 17.9L15.65 17.35L15.6 17L15.1 17.35L14.6 17.55L11.7 18.2L11 18.3L10.35 18.35L9.7 18.35L8.25 18.15L7.8 18.1L7.65 18.05L6.7 17.7L6.75 17.8L7.15 18.85L7.2 18.95L7.35 19.55L7.45 20.05L7.55 20.55L7.6 21.35L7.65 21.8L7.65 22.05L7.5 23.4L7.35 24.3L7.2 24.8L7.1 24.9Q6.7 25.8 5.9 26.15" />
<path style="fill:#F3745B;fill-opacity:1" d="M0.15,12.65L-0.05 12.65L-1.15 12.8Q1.6 8.8 5.6 7.5L6.35 7.3L5.5 8.6Q4.75 8.6 3.75 9.15Q1.8 10.1 0.25 12.5L0.15 12.65M12.85,17L11.85 16.65L11.4 16.5L11 16.3L9.9 15.7Q9.15 15.25 8.55 14.65L8.1 14.2L7.6 13.55L7.25 13.15L6.9 12.5L6.6 11.95L6.35 11.2L6.3 11.15L6.2 11.35L6.15 11.45L5.7 12.5L5.15 13.9L5.1 14L5.05 14.1L5.05 14L5.1 13.85L5.1 13.6L5.3 12.3L5.35 12.2L5.5 11.4L5.9 9.85L6.5 8.25Q6.5 9.15 6.8 10.1L7 10.7L7.3 11.4L7.35 11.4L7.6 11.85L7.8 12.25L8.15 12.8Q9.2 14.35 10.8 15.15L12.25 15.7L14 16.1L14.9 16.25L12.9 17L12.85 17M7.8,18.1L8.25 18.15L9.7 18.35L10.35 18.35L11 18.3L11.7 18.2L14.6 17.55L15.1 17.35L15.6 17L15.65 17.35L15.7 17.9L15.7 18.1Q14.45 18.95 12 18.95L10.9 18.9L10.2 18.85L9 18.6L8.2 18.35L7.85 18.2L7.8 18.1" />
</g>
</svg>
