<?xml version="1.0" encoding="utf-8"?>
<svg version="1.1" id="Layer_1"
xmlns="http://www.w3.org/2000/svg"
xmlns:xlink="http://www.w3.org/1999/xlink"
xmlns:author="http://www.sothink.com"
width="210px" height="154px"
xml:space="preserve">
<g id="2738" transform="matrix(1, 0, 0, 1, -61.95, -38.3)">
<path style="fill:#1C4EDE;fill-opacity:1" d="M251.65,84.3L271.6 110.25L252.7 127.5L263.55 143.7L244.6 159.9L260.25 191.8L219.75 171.85L201.4 185.35L162.5 183.75L146.85 175.6L119.75 187.5L102.5 180.5L70.6 162.1L77.1 139.95L64.15 123.75L73.35 107L61.95 77.8L91.7 48.65L109.5 54L128.45 38.3L149.55 51.35L173.3 41.05L199.75 54.6L223 40.5L259.7 58.9L251.65 84.3M253.15,62.15L223.8 46.4L199.85 60.2L172.3 47.9L149 57.55L128.3 45.15L109.7 60.35L93.35 55.45L68.95 78.9L80 104.15L72 123.75L83.4 137.5L77.3 158.75Q99.15 173.5 119.2 181.8L148.7 168.6L165.2 177.9L200 179.45L220.05 164.4L245.5 175.85L236.5 157.3L255.05 142.7L245.5 125.7L264.05 109.5L244.9 84.95L253.15 62.15" />
<path style="fill:#0B2448;fill-opacity:1" d="M244.9,84.95L264.05 109.5L245.5 125.7L255.05 142.7L236.5 157.3L245.5 175.85L220.05 164.4L200 179.45L165.2 177.9L148.7 168.6L119.2 181.8Q99.15 173.5 77.3 158.75L83.4 137.5L72 123.75L80 104.15L68.95 78.9L93.35 55.45L109.7 60.35L128.3 45.15L149 57.55L172.3 47.9L199.85 60.2L223.8 46.4L253.15 62.15L244.9 84.95" />
</g>
</svg>
