<?xml version="1.0" encoding="utf-8"?>
<svg version="1.1" id="Layer_1"
xmlns="http://www.w3.org/2000/svg"
xmlns:xlink="http://www.w3.org/1999/xlink"
xmlns:author="http://www.sothink.com"
width="11px" height="16px"
xml:space="preserve">
<g id="459" transform="matrix(1, 0, 0, 1, 0, 0)">
<linearGradient
id="LinearGradID_646" gradientUnits="userSpaceOnUse" gradientTransform="matrix(0, 0.00598145, -0.00491333, 0, -23.3, 8.85)" spreadMethod ="pad" x1="-819.2" y1="0" x2="819.2" y2="0" >
<stop  offset="0" style="stop-color:#FFF980;stop-opacity:1" />
<stop  offset="1" style="stop-color:#E7950A;stop-opacity:1" />
</linearGradient>
<path style="fill:url(#LinearGradID_646) " d="M10.7,9.05L11 10.55Q11 11.55 10.6 12.5L10.6 12.55L9.4 14.15L9.4 14.1L7.65 15.25L7.65 15.3L5.3 15.65L3 15.15L1.35 14.05Q0.65 13.35 0.35 12.55Q0 11.8 0 11.25Q0 10.5 0.5 10Q1 9.5 1.75 9.5L2.55 9.75L3.1 10.45Q3.55 11.6 4.1 12.2Q4.55 12.7 5.35 12.7L6.25 12.55L7.05 11.75L7.3 10.7Q7.3 9.8 6.85 9.25Q6.35 8.75 5.45 8.75L4.9 8.8L4.85 8.8L4.3 8.8Q3.55 8.8 3.15 8.45L3.1 8.4Q2.7 8.05 2.7 7.3Q2.7 6.6 3.25 6.2Q3.7 5.75 4.6 5.75L5 5.75L6.25 5.4L6.25 5.35Q6.7 4.95 6.7 4.2Q6.7 3.65 6.35 3.35L6.3 3.3Q5.9 2.9 5.25 2.9L4.5 3L4.5 3.05Q4.2 3.1 4.05 3.3L4.05 3.35L3.7 3.9L3.7 3.95L3.4 4.7L3.35 4.75L2.8 5.25L2.75 5.3L1.95 5.45Q1.35 5.45 0.9 5Q0.4 4.5 0.4 3.8Q0.4 3.1 0.75 2.45L1.8 1.3Q2.45 0.7 3.4 0.4L5.55 0Q6.6 0 7.45 0.35L7.4 0.35Q8.3 0.6 8.95 1.15L9.95 2.45Q10.3 3.2 10.3 4.05Q10.3 5.15 9.8 6L9.8 5.95L9 7L9.8 7.65L9.85 7.7L10.65 9L10.7 9.05" />
<path style="fill:#FFFFFF;fill-opacity:1" d="M2.7,1.95Q3.6 0.35 6.9 0.75L7.55 1Q8.1 1.2 8.5 1.6Q8.9 2.3 7.9 2.1L3.1 2.35Q2.4 2.9 2.7 1.95" />
</g>
</svg>
