<?xml version="1.0" encoding="utf-8"?>
<svg version="1.1" id="Layer_1"
xmlns="http://www.w3.org/2000/svg"
xmlns:xlink="http://www.w3.org/1999/xlink"
xmlns:author="http://www.sothink.com"
width="441px" height="107px"
xml:space="preserve">
<g id="1501" transform="matrix(1, 0, 0, 1, 14.5, 94.05)">
<path style="fill:#33FF00;fill-opacity:1" d="M22.4,-4.2L21.6 -4.45L21.55 -4.5L-6.7 -10.35L-14.5 -43.15L6.95 -93.6L402.45 -94.05L425.6 -55.6L425.35 -55.3L416.4 -6.65L385.55 -3.65L373.25 0.4Q365.45 3.8 362.65 2.35Q359.95 0.9 351.35 -0.5L350.65 -0.65L346.9 -1.1L340 3L315 3.95L301.7 -3.5L294.25 -3.55L294.15 -3.8Q292.9 -3.1 291.45 -3.35L287.15 -2.1L277.2 1.95L271.3 8.4L264.7 11.3L257.9 12.2L247.85 10.8Q246.95 10.6 236.85 3.9L232.85 1.2L230.2 2.25L220.8 8.5L202.4 6.35L194.7 -1.05L186.2 -4.2Q185.05 -4.35 184.05 -3.9Q183.1 -3.5 180.5 -3.35L179.55 -3.45L178.85 -2.4L171.7 2.6L144.45 1.95L128.8 -6.05L117.95 -1.8Q115.4 -1.55 113.3 -2.65L112.25 -2.05Q102.95 -2 98.6 -2.35L92 -7.1L87 -5.6Q81.1 -1.55 80.3 -1.25L76 -0.9L69.4 -0.85L67.5 -0.95Q66.05 -1.15 61.75 -2.95Q57.45 -4.8 58.75 -8.8L58.4 -9L58.65 -9.1L58.4 -9.35L58.35 -9.2L57.85 -8.15Q57.1 -7.85 56.3 -6.4Q55.55 -5 55.3 -3.95L55.05 -3.95Q49.7 -2.15 44.75 -3.45L33 -1.75Q24.65 -3.6 22.4 -4.2M139.65,-63.05L139.8 -63.05L139.95 -63.3L139.65 -63.05" />
</g>
</svg>
