<?xml version="1.0" encoding="utf-8"?>
<svg version="1.1" id="Layer_1"
xmlns="http://www.w3.org/2000/svg"
xmlns:xlink="http://www.w3.org/1999/xlink"
xmlns:author="http://www.sothink.com"
width="40px" height="21px"
xml:space="preserve">
<g id="2688" transform="matrix(1, 0, 0, 1, -22.15, -0.5)">
<path style="fill:#FFFFFF;fill-opacity:1" d="M61.95,19.25L59.85 17.35Q58.8 16.25 57.8 16.3Q57.25 16.05 55.1 17.05Q53 18.1 50.95 19.85Q48.95 21.6 47.95 21.3L47.95 21.35Q45.55 20.75 46.1 18.3Q46.75 19.9 47.4 20.45L49.15 20.3L53.35 17.45Q56.5 15.3 58.4 15.2L58.45 15.25L58.65 15.2Q60.75 16.5 61.9 19.15L61.95 19.25M44.45,10.6Q45.4 11.25 45.45 13.45L45.4 16.85Q44.7 14.2 44.7 12.85Q44.65 11.5 43.75 11.1Q41.75 10.8 38.95 9.1L34 5.45Q32 4.4 31.1 3.1L29.6 1.4L27.5 1.2L24.5 3.75Q22.95 4.7 22.15 4.8L26.95 0.85L27.05 0.8L26.95 0.7Q26.85 0.65 27.1 0.6Q29.55 0.25 30.2 1.1L34.25 5.1Q37.8 7.95 42.25 10.05L43.7 10.4L44.45 10.6" />
</g>
</svg>
