<?xml version="1.0" encoding="utf-8"?>
<svg version="1.1" id="Layer_1"
xmlns="http://www.w3.org/2000/svg"
xmlns:xlink="http://www.w3.org/1999/xlink"
xmlns:author="http://www.sothink.com"
width="34px" height="26px"
xml:space="preserve">
<g id="1102" transform="matrix(1, 0, 0, 1, -2.95, 0)">
<path style="fill:#622516;fill-opacity:1" d="M5.1,13Q4.55 13.85 4.15 14.85Q3.3 13.1 3.3 10.9Q3.2 7.25 7.1 3.75L7.2 3.65Q11.05 0.2 16.8 0.05L22.2 0.05L24.1 0.25Q25.6 0.55 25.85 2.2L26 4.65L26 5.35L24.75 4.55L24.7 3.65Q24.55 2 24.1 1.85L22.2 1.6L22.15 1.55Q20.8 0.9 20.95 5.1L20.45 5.35L20.3 5.5L19.6 5.95L19.55 4.9L19.55 4.85L19.55 4.05Q19.55 2.1 19.7 1.65L15 1.8Q11.8 2.2 9.4 3.85L9.15 4L8.7 4.35L7.2 5.75Q5.85 7.1 5.3 8.5L5.25 8.5L4.9 9.55Q4.5 11.15 5.1 13" />
<path style="fill:#BB482E;fill-opacity:1" d="M23.8,3.5L22.35 3.8Q22.2 3.45 22.2 2.45L22.8 2.4Q23.7 2.4 23.75 2.75L24.05 3.5L23.8 3.5M19.55,4.85L19.55 4.9L17.45 4.6Q12.8 4.6 10.6 5.65L10.5 5.75L7.45 7.9L7.25 6.6L9.45 5L9.9 4.7Q13.1 2.65 18.3 2.6L19.55 4.05L19.55 4.85" />
<path style="fill:#8C331D;fill-opacity:1" d="M22.15,1.55L22.2 2.45Q22.2 3.45 22.35 3.8L23.8 3.5L24.05 3.5L24.7 3.65L24.75 4.55L24.35 4.3L23.35 3.8Q22.15 4.3 20.95 5.1Q20.8 0.9 22.15 1.55M4.9,9.55L5.25 8.5L5.3 8.5Q5.85 7.1 7.2 5.75L7.25 6.6L7.45 7.9L10.5 5.75L10.6 5.65Q12.8 4.6 17.45 4.6L19.55 4.9L19.6 5.95L18.8 6.45L18.35 6.4Q14.45 6.35 11.5 7.55Q7.45 9.1 5.1 13Q4.5 11.15 4.9 9.55" />
<path style="fill:#EE7557;fill-opacity:1" d="M22.15,1.55L22.2 1.6L24.1 1.85Q24.55 2 24.7 3.65L24.05 3.5L23.75 2.75Q23.7 2.4 22.8 2.4L22.2 2.45L22.15 1.55M7.2,5.75L8.7 4.35L9.15 4L9.4 3.85Q11.8 2.2 15 1.8L19.7 1.65Q19.55 2.1 19.55 4.05L18.3 2.6Q13.1 2.65 9.9 4.7L9.45 5L7.25 6.6L7.2 5.75" />
<path style="fill:#1F2C31;fill-opacity:1" d="M5.1,13Q7.45 9.1 11.5 7.55Q14.45 6.35 18.35 6.4L18.8 6.45L19.6 5.95L20.3 5.5L20.45 5.35L20.95 5.1Q22.15 4.3 23.35 3.8L24.35 4.3L24.75 4.55L26 5.35L26.95 5.9Q29.65 7.65 32.15 10.5L32.65 11L35.1 14.25L35.8 15.4L36.25 16.4L36.2 16.6Q35.2 18.5 32.9 20.9Q30.45 23.35 28.5 24.6Q26.55 25.85 25.85 25.75L22.25 23.25Q18.2 20.85 14.5 20.6L13.75 20.55L13.15 21.85Q11.65 24.15 9.5 24.5L6.1 24.3L4.2 22.9L4.15 22.85L3.7 22.2L3.55 21.9L3.45 21.65L3.1 20.25Q2.9 19.3 3 18.6L3.15 17.9L3.4 16.7L4.15 14.85Q4.55 13.85 5.1 13M14.25,11.8L11.9 14L11.8 14.05L11.2 14.7L10.95 15Q12.1 15.65 13.05 17.05L13.35 17.6L13.5 17.95L13.65 18.35L13.85 19.3Q16.8 19.15 20.15 20.45L20.7 20.7Q24.35 22.2 26.4 24.2L28.95 22.5Q32.45 19.75 34.85 16.35L34.6 15.9L33.35 13.9L32.3 12.5L30.35 10.3L28.9 9Q27.35 7.65 26.25 6.95L26 6.8L24.8 6.1L23.7 5.55L23.45 5.55Q18.35 8.25 14.4 11.65L14.25 11.8M18.35,12.15L19.8 10.6Q20.3 10.25 20.7 11.4L20.9 11.95L21.2 14.25L21.2 14.95L21.15 16.65L21.1 17.2Q21.1 18.35 20.1 18.05Q19.1 17.75 18.2 16.55L17.4 15.2L17.15 14.55Q17 13.75 18.1 12.4L18.35 12.15M23.6,10.45L23.8 9.85Q24.25 8.25 25.7 9L26.7 10Q27.35 11.15 27.65 13.5L27.65 13.55Q28.1 17.25 27.6 19.8Q27.1 22.4 26.05 21.75Q25 21.1 24.5 20.2Q24 19.2 23.85 17.8L23.5 13.9L23.45 13.7Q23.35 11.8 23.6 10.45M30,11.85L30.55 12.2Q32.05 13.25 32.55 15L32.75 15.95Q32 17.9 31.2 18.6Q30.35 19.25 29.9 18.05Q29.45 16.85 29.4 14.25L29.4 14Q29.35 11.65 30 11.85M24.85,10.35Q24.55 10.95 24.65 12.65L24.7 13.45L24.95 17L25.15 18.85Q26 21.05 26.4 19.8L26.55 16.3L26.35 13.15L26.35 13.05Q26.2 11.6 25.7 10.6Q25.15 9.75 24.85 10.35M30.35,15.45Q30.55 17.95 31 17.35Q31.45 16.7 31.55 16.05L31.45 14.65L31.4 14.55L31.05 13.85L30.85 13.55L30.3 13.05Q30.15 13 30.25 14.2L30.35 15.45M9,14.4L9.7 14.5L10 14.6L10.1 14.45L10.4 14.05L11.5 12.7L11.7 12.45L13.45 10.65Q14.4 9.75 15.5 8.9L17.3 7.6Q14.95 7.6 12.1 8.55L11.4 8.75Q8.9 9.6 7 12.05Q5.9 13.45 5.25 15.15Q5.75 14.8 6.45 14.6L9 14.4M4.35,19.85L4.5 20.65L4.55 20.85Q4.75 21.55 5.35 22.05Q6.55 23 7.9 23.25Q9.25 23.45 10.6 22.5Q11.85 21.6 12.2 20.4L12.25 20.25L12.35 19.35L12.25 18.45L12 17.85L11.95 17.8L11.85 17.55L11.65 17.2L11.3 16.8Q10.5 16.05 9.1 15.75Q7.4 15.45 6 16.35L5.55 16.7Q4.55 17.55 4.4 19.15L4.4 19.2L4.35 19.7L4.35 19.85M18.5,14.9L19.1 15.9L20.05 16.7L20.15 14.5L20.05 13.45L19.75 12.3L19.25 12.6L18.3 14.05L18.5 14.9" />
<path style="fill:#A8ACAB;fill-opacity:1" d="M11.9,14L14.25 11.8L14.4 11.65L17.4 9.95Q22.85 7 23.55 7L25.5 7.6L27.75 8.4L28.9 9L30.35 10.3L32.3 12.5L33.35 13.9L33.35 14.15L33.2 15.3L32.55 15Q32.05 13.25 30.55 12.2L30.25 11.7L29.75 11L28.25 10.4L27.9 12.35L27.65 13.5Q27.35 11.15 26.7 10L25.7 9Q24.25 8.25 23.8 9.85L23.6 10.45L22.35 10.85L22 12.55L21.55 14.15L21.2 14.25L20.9 11.95L20.7 11.4Q20.3 10.25 19.8 10.6L18.35 12.15L15.15 13.1L11.9 14M11.95,17.85L11.55 17.65L9.65 17.6L9.7 17.7L9.7 18.5Q9.55 19.25 8.35 19.45Q7.1 19.6 6.7 18.15Q4.9 18.8 4.65 19.3L4.35 19.85L4.35 19.7Q4.45 18.75 4.75 18.35Q5.4 17.45 7.05 16.8L7.25 17.4Q7.55 17.8 8 17.8Q8.85 17.8 8.85 17.05L8.75 16.4L9.4 16.4L11.3 16.8L11.65 17.2L11.85 17.55L11.95 17.8L11.95 17.85" />
<path style="fill:#76838C;fill-opacity:1" d="M33.2,15.3L33.35 14.15L33.35 13.9L34.6 15.9L33.2 15.3M14.15,18.3L14.6 18.3L19.15 19L21.5 19.8Q24.85 21.1 26.3 22.65Q27.55 22.25 30.45 20.1L34.85 16.35Q32.45 19.75 28.95 22.5L26.4 24.2Q24.35 22.2 20.7 20.7L20.15 20.45Q16.8 19.15 13.85 19.3L13.65 18.35L14.15 18.3M15.15,13.1L18.35 12.15L18.1 12.4Q17 13.75 17.15 14.55L17.4 15.2L16.7 15.4L14.2 15.9Q13.25 15.9 12.35 14.85L11.8 14.05L11.9 14L15.15 13.1M23.45,13.7L21.55 14.15L22 12.55L22.35 10.85L23.6 10.45Q23.35 11.8 23.45 13.7M29.4,14L27.65 13.5L27.9 12.35L28.25 10.4L29.75 11L30.25 11.7L30.55 12.2L30 11.85Q29.35 11.65 29.4 14M6.45,14.6Q7 13.55 7.85 12.7L8.5 12.1L9.1 12.2L10.65 11.7Q11.45 11.15 11.45 10.4L11.45 10.15L12.7 9.5L14.75 8.9L15.5 8.9Q14.4 9.75 13.45 10.65L11.7 12.45L11.5 12.7L10.4 14.05L10.1 14.45L10 14.6L9.7 14.5L9 14.4L6.45 14.6M4.55,20.85L4.5 20.65L4.35 19.85L4.65 19.3Q4.9 18.8 6.7 18.15Q7.1 19.6 8.35 19.45Q9.55 19.25 9.7 18.5L9.7 17.7L9.65 17.6L11.55 17.65L11.95 17.85L11.15 19.3Q9.55 21.3 6.25 21.3L4.55 20.85" />
<path style="fill:#4A5662;fill-opacity:1" d="M34.6,15.9L34.85 16.35L30.45 20.1Q27.55 22.25 26.3 22.65Q24.85 21.1 21.5 19.8L19.15 19L14.6 18.3L14.15 18.3L13.65 18.35L13.5 17.95L13.35 17.6L13.05 17.05Q12.1 15.65 10.95 15L11.2 14.7L11.8 14.05L12.35 14.85Q13.25 15.9 14.2 15.9L16.7 15.4L17.4 15.2L18.2 16.55Q19.1 17.75 20.1 18.05Q21.1 18.35 21.1 17.2L21.15 16.65L21.2 14.95L21.2 14.25L21.55 14.15L23.45 13.7L23.5 13.9L23.85 17.8Q24 19.2 24.5 20.2Q25 21.1 26.05 21.75Q27.1 22.4 27.6 19.8Q28.1 17.25 27.65 13.55L27.65 13.5L29.4 14L29.4 14.25Q29.45 16.85 29.9 18.05Q30.35 19.25 31.2 18.6Q32 17.9 32.75 15.95L32.55 15L33.2 15.3L34.6 15.9M6.25,21.3Q9.55 21.3 11.15 19.3L11.95 17.85L11.95 17.8L12 17.85L12.25 18.45L12.35 19.35L12.25 20.25L12.2 20.4Q11.85 21.6 10.6 22.5Q9.25 23.45 7.9 23.25Q6.55 23 5.35 22.05Q4.75 21.55 4.55 20.85L6.25 21.3" />
<path style="fill:#FFFFF6;fill-opacity:1" d="M27.75,8.4L25.5 7.6L23.55 7Q22.85 7 17.4 9.95L14.4 11.65Q18.35 8.25 23.45 5.55L23.7 5.55L24.8 6.1L26 6.8L26.25 6.95Q27.35 7.65 28.9 9L27.75 8.4M14.75,8.9L12.7 9.5L11.45 10.15L11.45 10.4Q11.45 11.15 10.65 11.7L9.1 12.2L8.5 12.1L7.85 12.7Q7 13.55 6.45 14.6Q5.75 14.8 5.25 15.15Q5.9 13.45 7 12.05Q8.9 9.6 11.4 8.75L12.1 8.55Q14.95 7.6 17.3 7.6L15.5 8.9L14.75 8.9M9.4,16.4L8.75 16.4L8.85 17.05Q8.85 17.8 8 17.8Q7.55 17.8 7.25 17.4L7.05 16.8Q5.4 17.45 4.75 18.35Q4.45 18.75 4.35 19.7L4.4 19.2L4.4 19.15Q4.55 17.55 5.55 16.7L6 16.35Q7.4 15.45 9.1 15.75Q10.5 16.05 11.3 16.8L9.4 16.4" />
</g>
</svg>
