<?xml version="1.0" encoding="utf-8"?>
<svg version="1.1" id="Layer_1"
xmlns="http://www.w3.org/2000/svg"
xmlns:xlink="http://www.w3.org/1999/xlink"
xmlns:author="http://www.sothink.com"
width="39px" height="42px"
xml:space="preserve">
<g id="536" transform="matrix(1, 0, 0, 1, 0, 0)">
<path style="fill:#95725C;fill-opacity:1" d="M16.4,36.65L16.4 36.7L15.45 37L15.3 34.85L16.3 34.55L16.3 34.95L16.3 35.75L16.4 36.65" />
<path style="fill:#301D16;fill-opacity:1" d="M18,24L18.15 23.9L18.8 24.5L19.15 24.8L19.25 24.9L20.05 25.45L21.25 26.25L21.3 26.25L21.9 26.6L22 26.65L23.65 27.45L24.05 27.6L24.3 27.65L24.5 27.7L25.15 27.9L28 28.65L28.4 28.75L28.8 28.75L29 29.45L29 29.6L29 29.65L29.05 30.35L29 30.45L28.95 30.8L28.95 30.9L28.9 31.3L28.8 31.75L28.55 32.3L27.7 32.25L22.9 31.2L21.75 30.8Q18.45 29.45 16.5 27.05L16.9 26.55Q18.6 28.6 21.4 29.9L23.1 30.55Q25.6 31.45 28.05 31.7L28.15 31.45L28.3 30.9L28.25 30.8L28.25 30.55L28.3 30.35L28.25 30.05L28.2 29.4L28.2 29.35L24.85 28.55L24.5 28.45L24.25 28.35L24 28.3L23.8 28.2L23.7 28.15L23.15 28L22.95 27.9L22 27.5L21.15 27.1L20.05 26.5L17.9 24.85Q18.15 24.25 18 24M25.35,34.35L25.65 34.3L23.55 36.75L24.05 37L21.85 36.45L22.6 36.55L24.4 34.65L24.5 34.55L25.35 34.35M14.65,37.4L14.65 37.05L14.6 36.85L14.35 34.9Q13.15 34.8 12 33.95L11.5 34.4Q10.95 34.9 10.05 35.1L8.7 35.15L7.65 34.7L8.85 33L9.1 32.1Q7 32.7 6.6 33.15L6.1 33.55L5.8 32.65L5.8 32.45Q5.65 31.5 6.65 29.45L7 28.9L4.85 28.05L4.5 28L4.75 27.85Q6.1 27.35 8.3 25.7L8.45 25.9L8.75 26.25L8.05 26.65L6.95 27.35L5.7 27.95Q5.75 28 5.95 28.05L6.4 28.1L8.05 28.4L8.85 28.35L8.85 28.65L8.9 28.6L9.45 28.6L10.1 28.45L11.35 28.25L11.8 28.25L12.25 28.25L13 28.25L13.35 28.3L13.7 28.3L13.9 28.4L14.8 28.6L16.9 29.45L16.95 29.5Q17.55 29.65 17.9 30.05Q18.55 30.55 18.6 31.2Q18.75 32.25 17.6 33.6L17.15 34.05L16.45 34.5L16.3 34.55L15.3 34.85L15.45 37L14.65 37.4M7.9,24.05Q7.8 24.35 7.85 24.6L7.15 24.55L5.3 24.75L5.25 24.65L5.3 24.55Q5.8 23.5 6.85 22.95Q4 22.6 3 21.15Q2.05 19.7 1.85 18.9Q1.85 18.5 2.2 18.5L5.85 18.85L4.55 18.25L4 17.7L3.75 17.2L3.9 17.1L4.75 17.1Q5.9 17.15 6.8 16.4L6.7 16.4L4.35 16.45L2.6 15.7Q1.4 14.75 0.85 13.65L0.2 12.15L0 11.4Q0 11.05 0.15 10.85Q0.35 10.7 0.4 10.85L0.85 11.2Q1.1 11.45 2.05 11.8L4.3 12.15Q5.55 12.1 5.85 11.8Q5.2 11.25 3.9 10.75L2.75 10.3L2.7 10.25Q2.9 9.65 4.25 9.45L4.7 9.35L4.35 8.95L3.7 7.75L3.25 6.25L3.15 5.05L3.3 4.4L3.7 4.1Q4.05 4.05 5.4 5.1Q6.8 6.1 9.2 6.3Q8.5 5.05 7.4 4.5L6.25 3.95Q6.05 3.8 6.1 3.5Q7.35 3 9.75 3.85Q9.2 3.05 9.05 2.2Q9 1.35 9.2 0.7L9.55 0L10.6 1.25Q11.5 2.55 14.3 3L14.15 2.65Q14.3 2.5 14.6 2.5L16.05 2.65Q17.3 2.85 18.85 3.9Q18.45 3 17.65 2.3L16.55 1.35L16.1 1.1Q15.95 1.05 16.15 0.8L17.75 0.75Q19.15 0.9 20.75 1.9Q21.9 2.55 22.7 3.45L22.05 3.8Q20.7 2.2 18.4 1.5L17 1.1L17.65 1.6L18.65 2.6L19.4 3.65L19.75 4.75L20.2 5.25L19.85 5.55L19.25 4.9L19.2 4.85L19 4.65Q17.35 3.15 14.95 2.8L15.15 2.95L16.5 3.85Q17.95 5 18.75 6.45L18.3 6.75L17.55 5.65L16.5 4.5L16.4 4.4L15.9 4.05L15.85 4L15.1 3.6L15.1 3.55L15.05 3.55L14.1 3.55Q13.05 3.5 12.1 3.05L10.9 2.3L10.55 2.05Q9.95 1.5 9.7 0.85L9.7 2.1L9.75 2.15L9.75 2.35Q9.9 3.25 10.35 4.15Q11.4 4.7 12.05 5.4L13.7 7.7L14.15 8.5L13.65 8.65L12.1 6.35L11.9 6.05L11.95 6.3L11.8 6L11.55 5.7L11.15 5.3Q10.95 5.1 10.55 4.85L9.8 4.5L9.15 4.2L9.3 4.3L8.15 3.95L8.05 3.95L8 3.95L6.9 3.8L8.15 4.45L9.6 5.8Q10.65 6.9 10.65 7.9Q10.65 8.85 10.2 9.15Q10.75 9.25 11.2 9.5L10.7 9.65L10 9.5L7.85 9L7.45 8.95L8.15 10.1L8.25 10.2L9.2 11.3L9.2 11.4L9.15 11.85L8.5 11.1L8.35 10.9L7.55 10.45L7.25 10.3L6.45 10.1L5.55 9.95L3.55 10.1L3.9 10.25L4.65 10.55L4.8 10.6Q5.8 11.15 6.4 11.65L8.1 13.6L9.4 13.3L9.55 13.75Q8.3 13.8 7.15 14.85L7.2 14.8L7.25 14.8L7.4 14.8L7.8 14.8L8.3 14.8Q9.25 14.95 10.15 15.5L11.1 16.1L11.2 16.05L11.65 16.35L11.1 16.45L10.6 16.7L10.3 16.95L9.9 17.3L9.75 17.5L9.6 17.7L9.15 18.45L9.15 18.5L9.1 18.75L9.2 18.75L9.5 18.6L10.1 18.3L10.3 18.2L10.75 18L10.9 17.9L11.2 17.8L11.35 17.75L10.7 18.15L10.2 18.65L9.95 18.75L10.05 18.9L9.8 19.35L9.7 19.25L9.5 19.25L9.05 19.35L8.65 19.45L8.65 19.4L8.65 19.35L2.4 19.2L3.25 20.3L3.8 20.95Q4.65 21.65 7.3 22.6L9.2 22.3L9.15 22.3L8.4 23.05L8.35 23.15Q7.3 23.4 6.4 23.9L7 23.9L7.9 24.05M12.05,15.9L12.85 15.8L13.05 15.8L13.1 15.8L13.95 15.8L14.6 15.8Q14.4 15.5 14.55 15.2L14 14.95L13.25 14.55L12.75 14.35L13 13.95L13.1 13.75L13.3 13.9L13.4 13.95L14.15 14.3L14.15 14.25L14.85 14.55Q14.45 13.4 15.7 13.6L15.7 13.55Q15.45 12.6 15.75 12L16.2 12L16.15 12.75L16.35 13.55Q16.65 14.4 15.3 14.15L15.45 14.8Q15.75 15.15 15.05 15.35L15.05 15.8Q15.6 15.9 15.6 16.2L15.3 16.8L15.15 17L15.4 17.2L15.3 17.85L13.85 17.5L13.6 17.5L13.65 17.45L13.85 17.4L14.5 17.25Q14.1 17 14.4 16.85L14.9 16.3L13.95 16.25L13.55 16.25L13.35 16.25L12.05 16.3L11.95 16.3L11.8 16.3L11.85 16.25L11.95 15.9L12.05 15.9M4.15,7.1L4.15 7.2Q4.65 8.55 5.6 9.4L6.25 9.5L7.6 9.8L7.1 8.95L6.95 8.45L7.5 8.5L8.45 8.7L9.85 9Q10.25 8.05 10.1 7.5L9.85 6.9L9.35 6.9L8.9 6.9L8.85 6.9Q6.7 6.75 4.85 5.5L4.25 5.05L3.85 4.8Q3.6 5.35 4.1 6.9L4.15 7.05L4.15 7.1M4.15,12.75L1.95 12.35L0.85 11.75L0.55 11.5L1.35 13.2L1.65 13.75Q3.25 16.25 5.65 16.1L6.3 16L7.4 15.8L7.7 15.65L8 15.3L7 15.3L6.55 15.35Q6.25 15.5 6.4 15.15L6.45 15.05Q6.7 14.35 7.8 13.85L6.45 12.3L6.1 12.5Q6.05 12.45 5.95 12.55L4.15 12.75M7.85,16.15L7.75 16.4L6.95 17.1Q6.15 17.55 4.85 17.6L4.5 17.55L5.8 18.3L6.2 18.35L8.9 18.05L9.2 17.45L9.55 17.05L9.55 17L9.7 16.9Q10.1 16.45 10.35 16.4L10.3 16.35L10.1 16.1Q9.2 15.4 8.3 15.35L8.05 15.95L7.85 16.15M13.7,16.4L13.45 16.35L13.35 16.35L13.55 16.3L13.7 16.4M8.55,20.45L8.1 19.9L9.65 19.9L9.55 20.15L9.55 20.25L9.15 20.2L9.5 20.4L9.55 21.05L9.1 20.8L8.55 20.45M8.8,18.6L8.05 18.85L8.7 18.8L8.8 18.6M14.85,29.35L13.3 29L13.1 29L13 29L12.65 29L12.25 29L12.05 29L11.65 29L11.25 29.05L10.05 29.2L9.2 29.4L9.7 30.15L10.05 30.6L10.45 31.15L11.05 31.95L11.9 32.95L12.4 33.4L12.5 33.45Q13.25 34 14.25 34.1L14.45 34.1L14.9 34.1L16.1 33.8L17.2 32.7Q18.05 31.7 17.7 31.05L17.7 31Q17.3 30.4 16.65 30.1L15.9 29.85Q15.45 29.55 14.85 29.35M9.35,34.5Q10.45 34.3 10.95 33.85L11.4 33.45L11.15 33.2L10.4 32.3L9.9 31.7L9.65 31.9L9.55 33.05L9.3 33.5L8.5 34.45L9.35 34.5M8.7,29.75L8.7 29.65L8.55 29L8.55 28.9L7.6 28.95Q7.45 28.95 7.2 29.6Q6.95 30 6.85 30.55Q6.35 31.65 6.45 32.35L6.5 32.65Q6.8 32.45 7.2 32.35L9.45 31.1L9 30.45L8.7 29.75" />
<path style="fill:#57351A;fill-opacity:1" d="M20.95,3.95L21.3 4.4L20.95 4.7L20.95 3.95M19.4,3.2L20.9 4.8L20.2 5.25L19.75 4.75L19.4 3.65L18.65 2.6L19.4 3.2M19.15,5.75L19.35 5.95L19.15 6.1L19.15 5.75M19.1,6.15L18.75 6.45Q17.95 5 16.5 3.85L15.15 2.95Q15.9 3.15 16.95 3.95L17.05 4.05Q18.35 5 19.1 6.15M18.3,6.75L17.2 7.3L14.95 8.2L14.15 8.5L13.7 7.7L12.05 5.4Q11.4 4.7 10.35 4.15Q9.9 3.25 9.75 2.35L9.75 2.15L10.2 2.7L11 3.35L11 3.3L11.5 3.85L11.65 3.95L11.65 4L13.55 5.75L13.1 4.7Q14 4.65 14.9 6.25L14.9 6.2L14.7 5.1L15.55 5.55L16.15 6.35L16.55 6.75L16.65 6.3L16.75 5.55L16.5 4.5L17.55 5.65L18.3 6.75M11.9,6.05L12.1 6.35L13.65 8.65L12.3 9.15L11.2 9.5Q10.75 9.25 10.2 9.15Q10.65 8.85 10.65 7.9Q10.65 6.9 9.6 5.8L8.15 4.45L6.9 3.8L8 3.95L8.05 3.95L8.15 3.95L8.35 4.1Q9.75 4.9 10.35 5.8L10.8 6.6L10.65 5.6L11.95 7.5L11.95 7.1L12.05 6.45L11.9 6.05M9.9,10.1L9.75 10.25L9.6 10.05L9.65 10.05L9.75 10.05L9.9 10.1M8.25,10.2L8.15 10.1L7.45 8.95L7.85 9L8.85 10.1L8.9 10.25L8.95 10.25L9.5 10.5L9.35 10.7L9.2 11.3L8.25 10.2M7.65,10.75L7.55 10.45L8.35 10.9L8.5 11.1L9.15 11.85Q9.15 12.7 9.3 13.1L9.4 13.3L8.1 13.6L6.4 11.65Q5.8 11.15 4.8 10.6L4.65 10.55L3.9 10.25Q4.6 10.25 5.2 10.55L5.2 10.5L5.35 10.55L6.95 11.45L6.85 10.95L8.85 12.4L7.65 10.75M11.1,16.1L10.15 15.5Q9.25 14.95 8.3 14.8L7.8 14.8L7.4 14.8L7.95 14.65L8.15 14.65L9.95 14.7L10.95 15.8L11.2 16.05L11.1 16.1M11.95,15.9L12.45 14.95L12.55 14.8L12.75 14.35L13.25 14.55L14 14.95L14.55 15.2Q14.4 15.5 14.6 15.8L13.95 15.8L13.1 15.8L13.05 15.8L12.85 15.8L12.05 15.9L11.95 15.9M13.1,13.75Q13.6 12.9 14.3 12.5Q14.95 12.05 15.75 12Q15.45 12.6 15.7 13.55L15.7 13.6Q14.45 13.4 14.85 14.55L14.15 14.25L14.15 14.3L13.4 13.95L13.3 13.9L13.1 13.75M33.3,27.25L32.6 27.2L31.95 27L31.85 26.95Q32.05 27.7 31.9 28.75L31.75 29.45L31.75 29.5L31.6 29.85L31.35 29.85L30.8 29.8L30.3 29.65L30.1 29.6Q29.4 29.25 28.9 28.1Q28.5 27.25 28.55 26.2L28.65 25.4L28.8 25.3L29.1 24.85L29.25 24.7L30.15 24.4L30.9 24.25L31.35 24.15L32 24.1L32.05 24.1L32.6 24.15L33.4 24.3Q34.05 24.6 34.3 25.3L34.45 25.95L34.4 25.9L34.5 26.95L34.55 27.15L33.3 27.25M8.9,6.9L9.35 6.9L9.85 6.9L10.1 7.5Q10.25 8.05 9.85 9L8.45 8.7L7.5 8.5L6.95 8.45L7.1 8.95L7.6 9.8L6.25 9.5L5.6 9.4Q4.65 8.55 4.15 7.2L4.15 7.1L4.75 7.65L6.3 8.5L6.1 7.9L6.1 7.45Q6.6 8.1 8.3 7.95Q8.95 7.85 8.9 7.3L8.9 6.9M2,13.7Q3.35 15.05 4.95 15L5.6 14.95L4.7 13.75L4.8 13.75L5.3 14L6.1 14.15L6.85 14.05L6.85 13.95L6 12.6L5.95 12.55Q6.05 12.45 6.1 12.5L6.45 12.3L7.8 13.85Q6.7 14.35 6.45 15.05L6.4 15.15Q6.25 15.5 6.55 15.35L7 15.3L8 15.3L7.7 15.65L7.4 15.8L6.3 16L5.65 16.1Q3.25 16.25 1.65 13.75L1.35 13.2L0.55 11.5L0.85 11.75L0.7 11.75Q0.95 12.6 1.8 13.45L2 13.7M6.4,18.25L6.5 18.15L8.05 17.9L8.6 17.4L7.65 17.3L8.4 17L8.45 17L9.3 16.5L9 16.35L8.05 15.95L8.3 15.35Q9.2 15.4 10.1 16.1L10.3 16.35L10.35 16.4Q10.1 16.45 9.7 16.9L9.55 17L9.55 17.05L9.2 17.45L8.9 18.05L6.2 18.35L5.8 18.3L6.4 18.25M13.55,16.3L13.8 16.25L14.05 16.25L13.95 16.25L14.9 16.3L14.4 16.85Q14.1 17 14.5 17.25L13.85 17.4L13.65 17.45L13.6 17.5L11.35 17.75L11.2 17.8L10.9 17.9L10.75 18L10.3 18.2L10.1 18.3L9.5 18.6L9.2 18.75L9.1 18.75L9.15 18.5L9.15 18.45L9.75 18L9.9 17.9L10.1 17.8L10.35 17.65L11.5 17.25L12.1 17.15L11.3 16.9L11.35 16.85L12.7 16.65L13 16.65L13.2 16.7L13.25 16.7L13.15 16.55L13.15 16.45L13.15 16.4L13.35 16.35L13.45 16.35L13.7 16.4L13.55 16.3M9.6,21.45L9.05 21.05L8.45 20.65L8.55 20.65L9.1 20.8L9.55 21.05L9.8 21.8L9.2 22.3L7.3 22.6Q4.65 21.65 3.8 20.95L3.25 20.3L3.3 20.3L3.4 20.3L3.45 20.25L3.55 20.35L3.75 20.4L9.6 21.45M10.05,18.9L9.95 18.75L10.2 18.65L10.05 18.9M7,23.9L7.95 23.8L7.9 24.05L7 23.9M21.1,27.55L21.1 28.3L21.15 28.7L21.6 29L22.8 29.6L25.6 30.35L28.25 30.8L28.3 30.9L28.15 31.45L28.05 31.7Q25.6 31.45 23.1 30.55L21.4 29.9Q18.6 28.6 16.9 26.55L17.3 25.95L17.9 24.85L20.05 26.5L21.15 27.1L21.1 27.55M6.75,28.1L7.25 28.05L8.75 27.85L8.85 27.85L8.85 28L8.85 28.35L8.05 28.4L6.4 28.1L6.75 28.1M12.55,33.4L12.65 33.4L13.75 33.3L14.05 33.25L14.05 33.4L14.2 33.5L14.5 33.4L14.4 33.3L14.5 33.15L14.65 33.15Q15.9 32.85 16.45 32L16.55 31.55Q16.65 31.35 16.9 31.35L17.4 31.3L17.7 31.05Q18.05 31.7 17.2 32.7L16.1 33.8L14.9 34.1L14.45 34.1L14.25 34.1Q13.25 34 12.5 33.45L12.4 33.4L12.55 33.4M9.65,31.9L9.9 31.7L10.4 32.3L11.15 33.2L11.4 33.45L10.95 33.85Q10.45 34.3 9.35 34.5L10.3 33.25L10.15 32.7Q10.05 33 9.55 33.05L9.65 31.9M15.7,33.15L15.7 33.2L15.8 33.2L15.95 33.05L15.8 33.05L15.7 33.15M16.45,34.5L19.2 34.85L23.45 34.7L24.5 34.55L24.4 34.65L22.6 36.55L21.85 36.45L21.65 36.45L21.65 36.35L22.2 35.35L18.65 35.6L17.35 35.6L17.15 35.6Q16.3 35.7 17.15 35.75L16.3 35.75L16.3 34.95L16.3 34.55L16.45 34.5M9.5,25.8L9.45 25.85L9.5 25.8M8,27.45L8.1 27.3L9 27.05L8.9 27.5L8 27.45M9,30.45L9.45 31.1L7.2 32.35Q6.8 32.45 6.5 32.65L6.45 32.35L6.75 32.1Q8.35 31.1 8.75 30.6L7.7 30.65L7.7 30.55L8.25 30.05L8.7 29.75L9 30.45M8.7,29.65L8.65 29.65L7.5 29.65L7.2 29.6Q7.45 28.95 7.6 28.95L8.55 28.9L8.55 29L8.7 29.65M8.85,30.6L8.8 30.5L8.75 30.6L8.85 30.6M27.8,25.6L28 25.55L27.95 25.9L27.8 25.6" />
<path style="fill:#7F5C46;fill-opacity:1" d="M18.65,2.6L17.65 1.6Q18.4 1.7 19.4 2.25Q20.65 2.85 21.9 3.9L21.3 4.4L20.95 3.95L20.95 4.7L20.9 4.8L19.4 3.2L18.65 2.6M17.05,4.05Q18 4.4 18.25 4.9L17.85 4.1L17.95 4.1L19.2 4.85L19.25 4.9L19.85 5.55L19.45 5.85L19.35 5.95L19.15 5.75L19.15 6.1L19.1 6.15Q18.35 5 17.05 4.05M10,9.5L10.7 9.65L9.9 10.1L9.75 10.05L9.65 10.05L9.6 10.05L9.75 10.25L9.5 10.5L8.95 10.25L8.9 10.25L8.85 10.1L7.85 9L10 9.5M9.7,14.15L9.8 14.35L9.95 14.7L8.15 14.65L7.95 14.65L9.05 14.15L8.95 14.35L9 14.3L9.7 14.15M31.6,29.85L31.75 29.5L31.75 29.45L31.9 28.75Q32.05 27.7 31.85 26.95L31.95 27L32.6 27.2L33.3 27.25L34.55 27.15Q34.45 28.7 33.25 29.35L32.55 29.65L32.45 29.65L32.3 29.7L32.15 29.75L31.6 29.85M16.5,4.5L16.75 5.55L16.65 6.3L16.55 6.75L16.15 6.35L15.55 5.55L14.7 5.1L14.9 6.2L14.9 6.25Q14 4.65 13.1 4.7L13.55 5.75L11.65 4L11.65 3.95L10.95 2.9Q12.45 3.75 13.1 3.85L14.7 3.95L15.8 4L15.85 4L15.9 4.05L16.4 4.4L16.5 4.5M12.05,6.45L11.95 7.1L11.95 7.5L10.65 5.6L10.8 6.6L10.35 5.8L10.3 5.55L10.15 5.25L10.1 5Q10.5 5 11.45 5.8L11.8 6.15L11.95 6.3L11.9 6.05L12.05 6.45M8.9,7.3Q8.95 7.85 8.3 7.95Q6.6 8.1 6.1 7.45L6.1 7.9L6.3 8.5L4.75 7.65L4.15 7.1L4.15 7.05L4.1 6.35L5.1 7.05L4.9 6.5L4.7 5.85Q4.9 6.3 6.85 6.6L8.85 6.9L8.9 6.9L8.9 7.3M6,12.6L6.85 13.95L6.85 14.05L6.1 14.15L5.3 14L4.8 13.75L4.7 13.75L5.6 14.95L4.95 15Q3.35 15.05 2 13.7L1.8 13.45L1.85 13.45L2.5 13.8L2.5 13.75L2.15 13.25L1.9 12.7L2.75 13L4.8 13.05Q5.65 12.95 6 12.6M8.85,12.4L6.85 10.95L6.95 11.45L5.35 10.55L5.2 10.5L6.1 10.5L7.65 10.75L8.85 12.4M6.95,17.1L7.75 16.4L7.85 16.15L8.05 15.95L9 16.35L9.3 16.5L8.45 17L8.4 17L7.65 17.3L8.6 17.4L8.05 17.9L6.5 18.15L6.85 17.85L5.8 17.8L6.95 17.1M13.15,16.55L13.25 16.7L13.2 16.7L13 16.65L12.7 16.65L11.35 16.85L11.3 16.9L12.1 17.15L11.5 17.25L10.35 17.65L10.1 17.8L10.3 17.6L10.8 17.3L10.25 17.25L10.6 17L11.7 16.6L12.1 16.5L12.25 16.5L13.15 16.45L13.15 16.55M9.1,20.8L8.55 20.65L8.45 20.65L9.05 21.05L9.6 21.45L3.75 20.4L5.4 20.35L4.4 19.9L4.5 19.9L6.25 19.85L8.65 19.4L8.65 19.45L9.05 19.35L9.5 19.25L9.7 19.25L9.8 19.35L9.75 19.4L9.75 19.55L9.65 19.9L8.1 19.9L8.55 20.45L9.1 20.8M9.5,20.4L9.15 20.2L9.55 20.25L9.5 20.4M21.15,27.1L22 27.5L22.95 27.9L23.15 28L23.7 28.35L24.85 28.9L25.25 29.05L26.95 29.65L27.45 29.8L28.1 30.35L28.25 30.55L28.25 30.8L25.6 30.35L22.8 29.6L21.6 29L21.15 28.7L21.1 28.3L21.1 27.55L21.15 27.1M15.25,30.5L15.15 30.65L15.35 30.8L15.4 30.5L15.25 30.5M8.75,27.85L7.25 28.05L6.75 27.7L7.8 27L8.05 26.65L8.75 26.25L8.8 26.35L8.85 26.4L9.3 25.95L9.45 25.85L9.25 26.15L9 27.05L8.1 27.3L8 27.45L8.9 27.5L8.85 27.85L8.75 27.85M12.4,33.4L11.9 32.95L11.05 31.95L10.45 31.15L10.05 30.6L9.7 30.15L10.1 29.95L10.8 29.8L11.6 29.7L12.05 29.7L12.3 29.7L12.85 29.8L13.05 29.85L14 29.95Q13.95 29.95 13.85 30.05L14 30.2L14.45 30.05L14.45 29.95L14.55 29.95L15.9 29.85L16.65 30.1Q17.3 30.4 17.7 31L17.7 31.05L17.4 31.3L16.9 31.35Q16.65 31.35 16.55 31.55L16.45 32Q15.9 32.85 14.65 33.15L14.5 33.15L14.4 33.3L14.5 33.4L14.2 33.5L14.05 33.4L14.05 33.25L13.75 33.3L12.65 33.4L12.55 33.4L12.4 33.4M11.75,30.8L11.9 30.9L12.05 30.85L12.05 30.65L11.9 30.5L11.75 30.8M13.55,31.7L13.75 31.5L13.75 31.25L13.55 31.25L13.35 31.3L13.1 31.45L12.75 31.6L12.7 31.65L12.65 31.65L12.7 31.7L12.75 31.85L13.3 31.7L13.5 31.7L13.55 31.7M8.5,34.45L9.3 33.5L9.55 33.05Q10.05 33 10.15 32.7L10.3 33.25L9.35 34.5L8.5 34.45M21.6,36.45L21.05 36.45L19.35 36.35L18.6 36.45L16.4 36.7L16.4 36.65L16.3 35.75L17.15 35.75Q16.3 35.7 17.15 35.6L17.35 35.6L18.65 35.6L22.2 35.35L21.65 36.35L21.65 36.45L21.6 36.45M7.5,29.65L8.65 29.65L8.7 29.65L8.7 29.75L8.25 30.05L7.7 30.55L7.7 30.65L8.75 30.6Q8.35 31.1 6.75 32.1L6.45 32.35Q6.35 31.65 6.85 30.55Q6.95 30 7.2 29.6L7.5 29.65M27.4,24.8L27.5 24.8L28.1 24.85L28.2 24.9L28.05 25.55L28 25.55L27.8 25.6L27.4 24.8" />
<path style="fill:#191919;fill-opacity:1" d="M24.05,37L24.5 37.4L24.85 37.85L24.9 38.05L25.05 38.5Q25.05 39.2 24.4 39.95Q23.85 40.65 22 41.05Q19.4 41.35 17.15 41.05L15.75 40.6L15.05 39.5L14.8 38.4L14.65 37.4L15.45 37L16.4 36.7L18.6 36.45L19.35 36.35L21.05 36.45L21.6 36.45L21.65 36.45L21.85 36.45L24.05 37M15.95,39.85Q16.35 40.2 17.15 40.45L20.45 40.6Q22.45 40.3 23.4 39.85L23.95 39.35L24.25 38.7Q24.25 38.05 23.85 37.65Q23.4 37.25 22 37.1L21.4 37.05L18.95 37.1L18.1 37.1L16.55 37.3Q15.55 37.5 15.55 37.95Q15.45 38.5 15.65 39.3L15.8 39.55L15.95 39.85" />
<path style="fill:#7E7470;fill-opacity:1" d="M18.25,37.4L17.15 37.8L16.35 38.2Q15.95 38.55 15.8 39.55L15.65 39.3Q15.45 38.5 15.55 37.95Q15.55 37.5 16.55 37.3L18.1 37.1L18.95 37.1L18.25 37.4" />
<path style="fill:#524A47;fill-opacity:1" d="M23.7,39.35L23.3 39.2L22.75 39.45L21.25 39.7L17.7 39.95L15.95 39.85L15.8 39.55Q15.95 38.55 16.35 38.2L17.15 37.8L18.25 37.4L18.95 37.1L21.4 37.05L22 37.1Q23.4 37.25 23.85 37.65Q24.25 38.05 24.25 38.7L23.95 39.35L23.7 39.35" />
<path style="fill:#382F2C;fill-opacity:1" d="M23.95,39.35L23.4 39.85Q22.45 40.3 20.45 40.6L17.15 40.45Q16.35 40.2 15.95 39.85L17.7 39.95L21.25 39.7L22.75 39.45L23.3 39.2L23.7 39.35L23.95 39.35" />
<path style="fill:#3A3634;fill-opacity:1" d="M33.1,21.9L32.9 21.95L32.55 22.3L32 22.75L31.95 22.75L31.85 22.75L31.75 22.8L31.7 22.75L31.7 22.7L31.45 22.4L31 22.1L30.95 22.05L30.9 21.95L30.8 21.85L30.4 21.1L30.2 20.75L30.1 20.55Q29.05 20.35 29.05 20.15L29.1 19.6L30.05 18.85L30 19.7L30.15 19.75L30.8 20L31.1 20.05L31.2 20.05L31.6 20.1L31.95 20.1L32 20.05L32.55 20.05L32.65 20.05L34.05 19.85L34.1 18.95L34.1 18.65L34.3 14.65L34.35 10.55L32.65 10.9L32.45 10.9L32.1 10.85L30.45 10.45L30.35 11.1L30.25 13.1L30.25 14.2L29.5 13.9L29.3 13.85L29.3 13.45L28.45 13.75Q27.45 13.7 26.8 14.15Q26.85 14.05 26.5 13.95Q26.8 13.75 27.95 13.25L29.15 12.7L29.4 12.2L26.8 11.35Q26.35 11.1 26.75 10.8L27.45 10.5L28.85 9.9L29.65 9.65L29.7 9.15Q29.8 8.95 30.3 8.75L31.05 8.55L31.6 7.1L32.1 5.7L32.35 5.2L32.6 5.55L33.2 6.95L33.9 8.6L34.5 8.85L35.2 9.3L35.25 9.85L36 10.15L37.3 10.75Q38.65 11.45 37.95 11.65L35.3 12.35L35.3 12.8L36.65 13.45L37.8 14.15L38.05 14.35Q38.35 14.5 37.3 14.8L35.25 15.5L35.25 15.95L36.95 16.7L37.75 17Q38.15 17.15 38.15 17.6L35.05 18.75L34.95 20.25L34.15 20.6L33.85 20.6L33.45 21.35L33.1 21.9M32.5,30.3L33.15 30.2L32.9 31.95L32.8 32.15L32.25 33.25Q31.35 33.95 30.65 33.25Q29.9 32.7 30.1 30.55L30.1 30.35L30.8 30.4L30.85 31.6Q30.9 32.35 31.5 32.5Q31.9 32.65 32.15 32.05L32.3 31.4L32.4 31.2L32.5 30.3M32.25,6.8L32.1 7.1L32 7.4L32 7.45L31.8 8.1L31.7 8.45L31.45 9L31.65 9.1Q31.95 9.35 32.35 9.3L32.45 9.4L32.9 9.25L33.1 9.2L33.3 9.05L33.45 8.95L32.5 6.25L32.4 6.3L32.25 6.8M31.05,9.9L32.15 10.15L32.45 10.15L32.65 10.15L33.85 10L34.35 9.75L34.4 9.75L34.3 9.7L34.25 9.5L33.85 9.35L33.8 9.4L33.75 9.5L33.55 9.6L33.1 9.75L32.85 9.8L32.7 9.85L32.15 9.9L32.15 9.85L31.2 9.5L31.2 9.45L31 9.2Q30.5 9.35 30.55 9.55L30.55 9.7L30.85 9.9L31.05 9.9M33.25,11.85L33.5 12.6L33.15 13.35L32.5 13.6L32.3 13.65L31.85 13.55L31.35 13.3Q31.05 12.95 31.05 12.45Q31.05 11.95 31.45 11.65Q31.75 11.45 32.05 11.4L32.35 11.4L32.65 11.45Q33 11.5 33.25 11.85M31.6,12.45L31.85 12.95L31.9 13.05L32.25 13.1L32.5 13.1L32.8 12.9L32.95 12.6L33 12.5L32.8 12.15L32.8 12.1L32.6 11.95L32.4 11.8L32 11.95L31.9 12L31.95 12Q31.6 12.2 31.6 12.45M35.25,10.45L35.25 11.1L35.25 11.75L36.95 11.3L36.45 11L35.25 10.45M28.2,10.9L27.9 10.95L29.45 11.4L29.45 10.85L29.4 10.5L28.2 10.9M32.05,17.05L31.5 16.95L31.05 16.6L31.05 16.55L31 15.5L31.3 15.15Q31.5 15 31.65 15L31.7 14.95L32 14.85L32.4 14.85L32.55 14.85L33 15.2L33.2 15.45L33.3 15.8L33.2 16.45L32.65 16.9L32.25 17.1L32.05 17.05M36.55,17.15L35.15 16.65L35.15 17.3L35.15 17.45L35.15 18.05L37.1 17.4L36.75 17.2L36.55 17.15M35.3,13.55L35.25 14.1L35.25 14.8L36.8 14.3L36.35 14.15L35.3 13.55M31.65,15.6L31.45 15.95L31.45 16.1L31.6 16.3L31.7 16.4L31.7 16.45L31.75 16.45L31.85 16.6L32.15 16.6L32.3 16.6L32.65 16.4L32.8 16.05L32.8 16L32.85 15.85L32.6 15.55L32.5 15.45L32.45 15.45L32.45 15.35L32.15 15.3L31.65 15.5L31.7 15.55L31.65 15.6M32,21.95L32.15 21.85L32.55 21.35L32.6 20.9L32.55 20.95L32.05 20.95L32 20.9L31.85 20.9L31.5 20.9L31.25 20.85L31.3 21.25L31.5 21.65L31.65 21.85L31.8 21.95L31.9 21.95L32 21.95" />
<path style="fill:#ACA49F;fill-opacity:1" d="M28.45,13.75L29.3 13.45L29.3 13.85L28.45 13.75M30.25,13.1L30.35 11.1L31.7 11L32.1 11L32.05 11.4Q31.75 11.45 31.45 11.65Q31.05 11.95 31.05 12.45Q31.05 12.95 31.35 13.3L31.85 13.55L31.7 14.95L31.65 15Q31.5 15 31.3 15.15L31 15.5Q30.9 14.8 30.45 14.4L30.25 13.1M32.5,13.6L33.15 13.35L33.5 12.6L33.25 11.85Q33 11.5 32.65 11.45L32.7 11.05L33.2 11.2Q34.15 11.6 34.05 15.5L34.1 18.65L34.1 18.95L33.5 18.85L33.45 18.85L33.2 18.55L32.75 18.35L32.45 18.9L32.35 18.85L32.15 18.65L32.25 17.1L32.65 16.9L33.2 16.45L33.3 15.8L33.2 15.45L33 15.2L32.55 14.85L32.4 14.85L32.45 14.55L32.5 13.6M32.25,7.6L32.55 7.15L32.85 8.2L32.9 8.4L33.3 9.05L33.1 9.2L32.9 9.25L32.7 9.15L32.6 9.15Q32.1 8.9 32.1 8.65L32.1 8.4L32.25 8L32.25 7.6M31.95,8L31.9 8.05L31.85 8.45L31.8 8.9L32 9.1L32.35 9.3Q31.95 9.35 31.65 9.1L31.45 9L31.7 8.45L31.8 8.1L32 7.45L31.95 8M34.35,9.75L33.85 10L32.65 10.15L32.45 10.15L32.15 10.15L31.05 9.9L30.85 9.9L31 9.7L31.05 9.7L31.1 9.65L31.25 9.75Q31.35 10.1 32.15 10L32.25 10.05L33.45 9.85L33.9 9.65L34.35 9.75M32.6,12.65L32.35 12.6L32.25 12.55L32.55 12.25L32.8 12.15L33 12.5L32.95 12.6L32.6 12.65M36.45,11L36.95 11.3L35.25 11.75L35.25 11.1L36.45 11M29.4,10.5L29.45 10.85L28.8 10.95L28.2 10.9L29.4 10.5M31.45,17.3L31.4 18.45L31.2 18.3L30.9 17.4L31 16.75L31.05 16.55L31.05 16.6L31.5 16.95L31.45 17.3M35.15,17.3L35.15 16.65L36.55 17.15L36.75 17.2L35.15 17.3M36.35,14.15L35.25 14.1L35.3 13.55L36.35 14.15M32.6,16.15L32.55 16.1L32.35 16.05L32.05 15.95L32 15.95L32 15.85L32.4 15.5L32.45 15.45L32.5 15.45L32.6 15.55L32.85 15.85L32.8 16L32.8 16.05L32.6 16.15M31.55,21.25L31.85 21.3L31.95 21.25L32 21.25L31.95 21.8L31.9 21.95L31.8 21.95L31.65 21.85L31.5 21.65L31.3 21.25L31.55 21.25M32.4,31.2L32.3 31.4L32.15 32.05Q31.7 32 31.5 31.55L31.35 30.4L31.45 30.4L31.9 30.35L32.25 30.35L32.4 31.2" />
<path style="fill:#F0F0F0;fill-opacity:1" d="M32.9,8.4L32.85 8.2L32.55 7.15L32.25 7.6L32.4 6.3L32.5 6.25L33.45 8.95L33.3 9.05L32.9 8.4M32.55,12.25L32.25 12.55L32 12.2L31.95 12L31.9 12L32 11.95L32.4 11.8L32.6 11.95L32.8 12.1L32.8 12.15L32.55 12.25M32.4,15.5L32 15.85L32 15.95L31.7 15.55L31.65 15.5L32.15 15.3L32.45 15.35L32.45 15.45L32.4 15.5" />
<path style="fill:#766D67;fill-opacity:1" d="M30.45,14.4L30.25 14.2L30.25 13.1L30.45 14.4M30.8,17.65L30.9 17.4L31.2 18.3L31.4 18.45L31.75 18.5L31.9 18.5L31.95 18.5L32.15 18.65L32.35 18.85L32.45 18.9L32.75 18.35L33.2 18.55L33.45 18.85L33.5 18.85L34.1 18.95L34.05 19.85L32.65 20.05L32.55 20.05L32 20.05L31.95 20.1L31.6 20.1L31.2 20.05L31.1 20.05L30.8 20L30.15 19.75L30 19.7L30.05 18.85L30.8 17.65M32,7.45L32 7.4L32.1 7.1L32.25 6.8L32.4 6.3L32.25 7.6L32.25 8L32.1 8.4L32.1 8.65Q32.1 8.9 32.6 9.15L32.7 9.15L32.9 9.25L32.45 9.4L32.35 9.3L32 9.1L31.8 8.9L31.85 8.45L31.9 8.05L31.95 8L32 7.45M33.9,9.65L33.45 9.85L32.25 10.05L32.15 10Q31.35 10.1 31.25 9.75L31.1 9.65L31.05 9.7L31 9.7L30.85 9.9L30.55 9.7L30.55 9.55Q30.5 9.35 31 9.2L31.2 9.45L31.2 9.5L32.15 9.85L32.15 9.9L32.7 9.85L32.85 9.8L33.1 9.75L33.55 9.6L33.75 9.5L33.8 9.4L33.85 9.35L34.25 9.5L33.9 9.65M32.95,12.6L32.8 12.9L32.5 13.1L32.25 13.1L31.9 13.05L31.85 12.95L31.6 12.45Q31.6 12.2 31.95 12L32 12.2L32.25 12.55L32.35 12.6L32.6 12.65L32.95 12.6M29.45,11.4L27.9 10.95L28.2 10.9L28.8 10.95L29.45 10.85L29.45 11.4M36.75,17.2L37.1 17.4L35.15 18.05L35.15 17.45L35.15 17.3L36.75 17.2M36.35,14.15L36.8 14.3L35.25 14.8L35.25 14.1L36.35 14.15M32.8,16.05L32.65 16.4L32.3 16.6L32.15 16.6L31.85 16.6L31.75 16.45L31.7 16.45L31.7 16.4L31.6 16.3L31.45 16.1L31.45 15.95L31.65 15.6L31.7 15.55L32 15.95L32.05 15.95L32.35 16.05L32.55 16.1L32.6 16.15L32.8 16.05M31.3,21.25L31.25 20.85L31.5 20.9L31.85 20.9L32 20.9L32.05 20.95L32.55 20.95L32.6 20.9L32.55 21.35L32.15 21.85L32 21.95L31.9 21.95L31.95 21.8L32 21.25L31.95 21.25L31.85 21.3L31.55 21.25L31.3 21.25M32.4,31.2L32.25 30.35L32.5 30.3L32.4 31.2" />
<path style="fill:#E0D8D4;fill-opacity:1" d="M32.1,11L31.7 11L30.35 11.1L30.45 10.45L32.1 10.85L32.45 10.9L32.65 10.9L34.35 10.55L34.3 14.65L34.1 18.65L34.05 15.5Q34.15 11.6 33.2 11.2L32.7 11.05L32.65 11.45L32.35 11.4L32.05 11.4L32.1 11M33.9,9.65L34.25 9.5L34.3 9.7L34.4 9.75L34.35 9.75L33.9 9.65M31.85,13.55L32.3 13.65L32.5 13.6L32.45 14.55L32.4 14.85L32 14.85L31.7 14.95L31.85 13.55M31.95,18.5L31.9 18.5L31.75 18.5L31.4 18.45L31.45 17.3L31.5 16.95L32.05 17.05L32.25 17.1L32.15 18.65L31.95 18.5M30.8,30.4L31.35 30.4L31.5 31.55Q31.7 32 32.15 32.05Q31.9 32.65 31.5 32.5Q30.9 32.35 30.85 31.6L30.8 30.4" />
<path style="fill:#5F5F5F;fill-opacity:1" d="M36.45,11L35.25 11.1L35.25 10.45L36.45 11" />
<path style="fill:#F5F3EE;fill-opacity:1" d="M9.9,11.15L10.2 10.75L10.8 10.35Q11.05 10.15 11.45 10.1L11.5 10.05L12.05 9.9L12.6 9.75L14 9.25L14.45 9.1L16.5 8.25L17.65 7.75L18.55 7.25L19 7L19.75 6.45L20.25 6.1L20.6 5.8L20.9 5.55L21.7 4.85Q22.1 4.5 22.4 4.3L22.5 4.25L23.15 4L23.2 4Q23.8 4.05 24.35 4.4L25.4 5.4L25.65 5.85L25.4 5.75L24.3 5.6L24.3 5.85L24.25 5.9L24.1 6L23.6 6L23.5 5.8L23.5 5.7L23.4 5.75L22.8 6.1L22.7 6.05L22.5 6.1L22.4 6.15L22.4 5.95L22.35 5.7L21.1 6.55L20.75 6.8L20.15 7.15L19.25 7.75Q19.1 7.8 18.9 7.95L18.55 8.15L18.15 8.35L18.3 8.5L18.4 8.55L18.25 8.8Q17.9 9.05 17.7 8.65L17.65 8.65L17.65 8.55L17.7 8.5L14.6 9.5L14.2 9.65L12.85 10.1L12.5 10.2L11.95 10.35L11.35 10.55L11.25 10.55Q10.5 10.9 10 11.2L9.9 11.25L9.9 11.15M22.65,5.15Q22.5 5.15 22.5 5.3L22.4 5.45L22.4 5.55L22.45 5.55L22.6 5.75L22.95 5.7L23.1 5.4L23.1 5.35L23 5.25L22.9 5.15L22.65 5.1L22.65 5.15M21.7,7.3L21.95 7.3L22.2 7.5L22.2 7.6L22.05 7.9L21.5 7.75L21.45 7.7L21.45 7.6L21.55 7.45L21.7 7.3M16.95,20.15L16.5 19.95L16.45 19.95L16.35 19.95L16.3 19.95L16.2 19.95L15.95 20L15.95 19.85L16 19.7L15.5 19.45L15 19.25L14.65 19.15L14.7 19.1L14.6 18.95L14.5 18.85L14.35 18.95L14.25 19L14.2 19L13.05 18.75L12.4 18.75L12.35 18.75L12.2 18.9L12.15 18.9L11.8 19L11.75 18.95L11.65 18.9L11.65 18.85L11.6 18.8L10.8 19.05L11.4 18.6Q11.8 18.35 12.1 18.25Q12.35 18.1 12.55 18.1L12.8 18.05L14.5 18.3L14.6 18.35Q15.15 18.45 15.75 18.8L16.45 19.2L17.1 19.7L17.8 20.4L16.95 20.15M12.7,18.5L12.7 18.6L12.75 18.65L13.05 18.7L13.05 18.55L13 18.5L12.85 18.5L12.85 18.45L12.8 18.45L12.75 18.5L12.7 18.5M15.7,19.2L15.7 19.05L15.7 19L15.6 18.95L15.45 18.95L15.4 19L15.4 19.15L15.6 19.25L15.7 19.2" />
<path style="fill:#B6A998;fill-opacity:1" d="M26.05,7.05L25.75 7.45L25.25 7.95L25.25 7.9L25 7.85L24.75 7.9L24.65 8L24.55 8.15L24.5 8.2L24.5 8.3L24.55 8.35L24.7 8.5L23.5 9.15L22.5 9.5L22.45 9.35Q23 8.8 22.95 8.5Q22.6 8.65 22 9.1L21.3 9.5L21.4 9.65L21.35 9.7L21.4 9.85L21.3 10Q20.9 10.25 20.65 9.9L20.65 9.8L18.05 10.1L18.05 10L18 9.95L17.8 9.7L17.6 9.7L17.45 9.8L17.35 10L14.75 10.25L14.65 10.25L14.55 10.3L13.55 10.8L13.4 10.85L13 11.1L12.9 11.15L12.6 11.4L12.45 11.25L12 11.15L11.85 11.3L11.8 11.4L11.9 11.75L12.1 11.9Q11.5 12.4 11.2 13.05L11.05 13.4L11.05 13.45L10.95 13.75L10.75 13.35L10.6 13.05L10.2 12.3L10.2 12.15L9.75 12.3L9.75 11.85Q9.75 11.5 9.9 11.25L10 11.2Q10.5 10.9 11.25 10.55L11.35 10.55L11.95 10.35L12.5 10.2L12.85 10.1L14.2 9.65L14.6 9.5L17.7 8.5L17.65 8.55L17.65 8.65L17.7 8.65Q17.9 9.05 18.25 8.8L18.4 8.55L18.3 8.5L18.15 8.35L18.55 8.15L18.9 7.95Q19.1 7.8 19.25 7.75L20.15 7.15L20.75 6.8L21.1 6.55L22.35 5.7L22.4 5.95L22.4 6.15L22.5 6.1L22.7 6.05L22.8 6.1L23.4 5.75L23.5 5.7L23.5 5.8L23.6 6L24.1 6L24.25 5.9L24.3 5.85L24.3 5.6L25.4 5.75L25.65 5.85L26.05 7.05M21.55,7.45L21.45 7.6L21.45 7.7L21.5 7.75L22.05 7.9L22.2 7.6L22.2 7.5L21.95 7.3L21.7 7.3L21.55 7.45M10.3,19.75L10.55 19.35L10.8 19.05L11.6 18.8L11.65 18.85L11.65 18.9L11.75 18.95L11.8 19L12.15 18.9L12.2 18.9L12.35 18.75L12.4 18.75L13.05 18.75L14.2 19L14.25 19L14.35 18.95L14.5 18.85L14.6 18.95L14.7 19.1L14.65 19.15L15 19.25L15.5 19.45L16 19.7L15.95 19.85L15.95 20L16.2 19.95L16.3 19.95L16.35 19.95L16.45 19.95L16.5 19.95L16.95 20.15L17.8 20.4L18.25 20.95L18.2 21.1L17.9 21.7L17.8 21.85L17.85 21.85L17.9 21.85L17.95 22.1Q17.75 22.35 17.6 22.25L17.6 22.2L17.45 22.35L16.9 22.65L16.65 22.75L16.65 22.9L16.55 22.9L16.55 22.95L16.45 23.05L16.45 23.1L16.3 23.1L16.25 23.1L16.2 23.1L16.1 23.1L16.05 23.1L15.95 23.05L15.35 23.15L15.1 23.2L15.05 23.2Q15.05 23.45 14.65 23.3L14.6 23.25L14.55 23.2L14.45 23.2L13.95 23.1L13.55 22.95L13.25 22.8L13.5 22.8L13.65 22.8L14.25 22.75L14.85 22.35L15.1 22.05L15.2 21.9L15.3 21.55L15.3 21.3Q15.35 20.75 15.05 20.45L14.8 20.3L14.4 20.15Q13.4 20.3 12.8 20.9L12.6 21.3L12.55 21.35L12.5 21.4Q12.4 21.85 12.6 22.3L12.6 22.45L12.25 22.2L11.5 21.65L11.3 21.45L11.35 21.4L11.45 21.2L11.4 21.1L11.35 21.1L11.25 21.05L11.1 21.15L11.05 21.15L10.95 20.9L10.6 21L10.5 20.85L10.55 20.75L10.65 20.65L10.75 20.55L10.65 20.3L10.55 20.1L10.3 19.75M12.95,19.45L12.9 19.35L12.85 19.35L12.6 19.4L12.55 19.45L12.5 19.6L12.55 19.7L12.8 19.65L12.95 19.45M11.5,19.85L11.45 19.7L11.35 19.7L11.25 19.8L11.2 19.8L11.25 19.95L11.25 20L11.3 19.95L11.45 19.95L11.5 19.95L11.5 19.85M12.3,19.85L12.2 19.85L12.1 19.85L12.05 19.9L12 19.95L12.05 20.05Q12.25 20.1 12.25 19.95L12.3 19.85M16.4,21.2L16.4 21.3L16.7 21.2L16.65 20.95L16.6 20.95L16.4 21L16.4 21.2M16.3,22.05L16.2 22.05L16.1 22.15L16 22.3L16 22.35L16.35 22.35L16.45 22.2L16.4 22.1L16.3 22.05" />
<path style="fill:#4E4138;fill-opacity:1" d="M24,11.55L21 12.1L18.45 12.1L16.2 12L15.75 12Q14.95 12.05 14.3 12.5Q13.6 12.9 13.1 13.75L13 13.95L12.75 14.35L12.55 14.8L12.45 14.95L11.95 15.9L11.85 16.25L11.8 16.3L11.65 16.35L11.2 16.05L10.95 15.8L9.95 14.7L9.8 14.35L9.7 14.15L9.55 13.75L9.4 13.3L9.3 13.1Q9.15 12.7 9.15 11.85L9.2 11.4L9.2 11.3L9.35 10.7L9.5 10.5L9.75 10.25L9.9 10.1L10.7 9.65L11.2 9.5L12.3 9.15L13.65 8.65L14.15 8.5L14.95 8.2L17.2 7.3L18.3 6.75L18.75 6.45L19.1 6.15L19.15 6.1L19.35 5.95L19.45 5.85L19.85 5.55L20.2 5.25L20.9 4.8L20.95 4.7L21.3 4.4L21.9 3.9L22 3.8L22.05 3.8L22.7 3.45L23.95 3.55Q25.1 4.05 25.7 4.8L26.4 6L26.6 7.25L26.5 8.95Q26.25 9.85 25 10.95L24.55 11.25L24 11.55M26.05,7.05L25.65 5.85L25.4 5.4L24.35 4.4Q23.8 4.05 23.2 4L23.15 4L22.5 4.25L22.4 4.3Q22.1 4.5 21.7 4.85L20.9 5.55L20.6 5.8L20.25 6.1L19.75 6.45L19 7L18.55 7.25L17.65 7.75L16.5 8.25L14.45 9.1L14 9.25L12.6 9.75L12.05 9.9L11.5 10.05L11.45 10.1Q11.05 10.15 10.8 10.35L10.2 10.75L9.9 11.15L9.9 11.25Q9.75 11.5 9.75 11.85L9.75 12.3L9.75 12.45L9.85 12.75L10.05 13.35L10.25 13.75L10.4 14.05L10.95 15L11.5 15.6L11.8 14.8L11.95 14.45L12.2 14.05L12.55 13.5L13.5 12.45L13.5 12.4L14.05 12L14.1 12Q15.35 11.25 16.95 11.4L23.15 11.2L23.65 11L24.2 10.7L25.15 9.95Q25.95 9.1 26.05 8.05L26.05 7.05M18.95,23L18.2 23.8L18.15 23.9L18 24L17.4 24.35L17.1 24.5L15.8 24.85L15.45 24.9L15.15 24.95L15.1 24.95Q14.95 24.65 14.85 24.95L12.9 24.5L12.7 24.4L12.1 24.15L11.8 24L11.65 23.9L11.3 23.7L10.45 22.9L10.35 22.8L10 22.25L9.8 21.8L9.55 21.05L9.5 20.4L9.55 20.25L9.55 20.15L9.65 19.9L9.75 19.55L9.75 19.4L9.8 19.35L10.05 18.9L10.2 18.65L10.7 18.15L11.35 17.75L13.6 17.5L13.85 17.5L15.3 17.85L15.6 17.95Q16.15 18.1 16.7 18.5L17.05 18.75L18.35 20L18.55 20.3L19.05 21.5L19.1 21.85L19.15 22.25L18.95 23M10.55,19.35L10.3 19.75L10.2 20.1L10.2 20.2L10.15 20.65L10.25 21.3L10.3 21.45L10.55 21.95L10.8 22.25L11 22.5L11.55 23L11.8 23.2L12.05 23.4L12.95 23.8L14 24.1L14.05 24.1L14.85 24.25L15.5 24.25L17 23.85L17.1 23.8L17.15 23.7L17.35 23.65L17.65 23.45L18.25 22.75L18.45 21.95L18.35 21.2L18.25 20.95L17.8 20.4L17.1 19.7L16.45 19.2L15.75 18.8Q15.15 18.45 14.6 18.35L14.5 18.3L12.8 18.05L12.55 18.1Q12.35 18.1 12.1 18.25Q11.8 18.35 11.4 18.6L10.8 19.05L10.55 19.35M13.35,21.15L13.15 21.3L13.1 21.45L13.05 21.75L13.4 22.25L13.5 22.3L14.15 22.15L14.2 22.1L14.55 21.8L14.65 21.65L14.75 21.35L14.55 20.85L14.05 20.75L13.5 21.05L13.35 21.15M12.6,22.45L12.6 22.3Q12.4 21.85 12.5 21.4L12.55 21.35L12.6 21.3L12.8 20.9Q13.4 20.3 14.4 20.15L14.8 20.3L15.05 20.45Q15.35 20.75 15.3 21.3L15.3 21.55L15.2 21.9L15.1 22.05L14.85 22.35L14.25 22.75L13.65 22.8L13.5 22.8L13.25 22.8L12.95 22.65L12.8 22.6L12.6 22.45" />
<path style="fill:#B47F60;fill-opacity:1" d="M19.4,2.25Q18.4 1.7 17.65 1.6L17 1.1L18.4 1.5Q20.7 2.2 22.05 3.8L22 3.8L21.9 3.9Q20.65 2.85 19.4 2.25M7.25,14.8L7.2 14.8L7.15 14.85Q8.3 13.8 9.55 13.75L9.7 14.15L9 14.3L8.95 14.35L9.05 14.15L7.95 14.65L7.4 14.8L7.25 14.8M11.95,16.3L12.05 16.3L13.35 16.25L13.55 16.25L13.95 16.25L14.05 16.25L13.8 16.25L13.55 16.3L13.35 16.35L13.15 16.4L13.15 16.45L12.25 16.5L12.1 16.5L11.7 16.6L10.6 17L10.25 17.25L10.8 17.3L10.3 17.6L10.1 17.8L9.9 17.9L9.75 18L9.15 18.45L9.6 17.7L9.75 17.5L9.9 17.3L10.3 16.95L10.6 16.7L11.1 16.45L11.65 16.35L11.8 16.3L11.95 16.3M9.7,2.1L9.7 0.85Q9.95 1.5 10.55 2.05L10.9 2.3L12.1 3.05Q13.05 3.5 14.1 3.55L15.05 3.55L15.1 3.55L15.1 3.6L15.85 4L15.8 4L14.7 3.95L13.1 3.85Q12.45 3.75 10.95 2.9L11.65 3.95L11.5 3.85L11 3.3L11 3.35L10.2 2.7L9.75 2.15L9.7 2.1M14.95,2.8Q17.35 3.15 19 4.65L19.2 4.85L17.95 4.1L17.85 4.1L18.25 4.9Q18 4.4 17.05 4.05L16.95 3.95Q15.9 3.15 15.15 2.95L14.95 2.8M11.8,6.15L11.45 5.8Q10.5 5 10.1 5L10.1 4.9L10.05 5L10.1 5L10.15 5.25L10.3 5.55L10.35 5.8Q9.75 4.9 8.35 4.1L8.15 3.95L9.3 4.3L9.15 4.2L9.8 4.5L10.55 4.85Q10.95 5.1 11.15 5.3L11.55 5.7L11.8 6L11.95 6.3L11.8 6.15M6.85,6.6Q4.9 6.3 4.7 5.85L4.9 6.5L5.1 7.05L4.1 6.35L4.15 7.05L4.1 6.9Q3.6 5.35 3.85 4.8L4.25 5.05L4.85 5.5Q6.7 6.75 8.85 6.9L6.85 6.6M5.95,12.55L6 12.6Q5.65 12.95 4.8 13.05L2.75 13L1.9 12.7L2.15 13.25L2.5 13.75L2.5 13.8L1.85 13.45L1.8 13.45Q0.95 12.6 0.7 11.75L0.85 11.75L1.95 12.35L4.15 12.75L5.95 12.55M7.65,10.75L6.1 10.5L5.2 10.5L5.2 10.55Q4.6 10.25 3.9 10.25L3.55 10.1L5.55 9.95L6.45 10.1L7.25 10.3L7.55 10.45L7.65 10.75M5.8,17.8L6.85 17.85L6.5 18.15L6.4 18.25L5.8 18.3L4.5 17.55L4.85 17.6Q6.15 17.55 6.95 17.1L5.8 17.8M2.4,19.2L8.65 19.35L8.65 19.4L6.25 19.85L4.5 19.9L4.4 19.9L5.4 20.35L3.75 20.4L3.55 20.35L3.45 20.25L3.4 20.3L3.3 20.3L3.25 20.3L2.4 19.2M7,23.9L6.4 23.9Q7.3 23.4 8.35 23.15L7.95 23.8L7 23.9M6.4,28.1L5.95 28.05Q5.75 28 5.7 27.95L6.95 27.35L8.05 26.65L7.8 27L6.75 27.7L7.25 28.05L6.75 28.1L6.4 28.1M9.7,30.15L9.2 29.4L10.05 29.2L11.25 29.05L11.65 29L12.05 29L12.25 29L12.65 29L13 29L13.1 29L13.3 29L14.85 29.35Q15.45 29.55 15.9 29.85L14.55 29.95L14.45 29.95L14.45 30.05L14 30.2L13.85 30.05Q13.95 29.95 14 29.95L13.05 29.85L12.85 29.8L12.3 29.7L12.05 29.7L11.6 29.7L10.8 29.8L10.1 29.95L9.7 30.15" />
<path style="fill:#A29380;fill-opacity:1" d="M22.65,5.1L22.9 5.15L23 5.25L23.1 5.35L23.1 5.4L22.95 5.7L22.6 5.75L22.45 5.55L22.4 5.55L22.4 5.45L22.5 5.3Q22.5 5.15 22.65 5.15L22.65 5.1M23.9,9.95L23.9 10.05L23.75 10.3L23.25 10.25L23.2 10.15L23.2 10.1L23.25 9.95L23.4 9.75L23.65 9.75L23.9 9.95M14.75,11.15L14.65 11.4Q14.3 11.65 14.1 11.3L14.1 11.25L14.05 11.2L14.1 11L14.3 10.85L14.55 10.85L14.75 11.05L14.75 11.15" />
<path style="fill:#837462;fill-opacity:1" d="M26.05,8.05Q25.95 9.1 25.15 9.95L24.2 10.7L23.65 11L23.15 11.2L16.95 11.4Q15.35 11.25 14.1 12L14.05 12L13.5 12.4L13.5 12.45L12.55 13.5L12.2 14.05L11.95 14.45L11.8 14.8L11.5 15.6L10.95 15L10.4 14.05L10.25 13.75L10.05 13.35L9.85 12.75L9.75 12.45L9.75 12.3L10.2 12.15L10.2 12.3L10.6 13.05L10.75 13.35L10.95 13.75L11.05 13.45L11.05 13.4L11.2 13.05Q11.5 12.4 12.1 11.9L11.9 11.75L11.8 11.4L11.85 11.3L12 11.15L12.45 11.25L12.6 11.4L12.9 11.15L13 11.1L13.4 10.85L13.55 10.8L14.55 10.3L14.65 10.25L14.75 10.25L17.35 10L17.45 9.8L17.6 9.7L17.8 9.7L18 9.95L18.05 10L18.05 10.1L20.65 9.8L20.65 9.9Q20.9 10.25 21.3 10L21.4 9.85L21.35 9.7L21.4 9.65L21.3 9.5L22 9.1Q22.6 8.65 22.95 8.5Q23 8.8 22.45 9.35L22.5 9.5L23.5 9.15L24.7 8.5L24.55 8.35L24.5 8.3L24.5 8.2L24.55 8.15L24.65 8L24.75 7.9L25 7.85L25.25 7.9L25.25 7.95L25.75 7.45L26.05 7.05L26.05 8.05M23.65,9.75L23.4 9.75L23.25 9.95L23.2 10.1L23.2 10.15L23.25 10.25L23.75 10.3L23.9 10.05L23.9 9.95L23.65 9.75M14.75,11.05L14.55 10.85L14.3 10.85L14.1 11L14.05 11.2L14.1 11.25L14.1 11.3Q14.3 11.65 14.65 11.4L14.75 11.15L14.75 11.05M12.8,22.6L12.95 22.65L13.25 22.8L13.55 22.95L13.95 23.1L14.45 23.2L14.55 23.2L14.6 23.25L14.65 23.3Q15.05 23.45 15.05 23.2L15.1 23.2L15.35 23.15L15.95 23.05L16.05 23.1L16.1 23.1L16.2 23.1L16.25 23.1L16.3 23.1L16.45 23.1L16.45 23.05L16.55 22.95L16.55 22.9L16.65 22.9L16.65 22.75L16.9 22.65L17.45 22.35L17.6 22.2L17.6 22.25Q17.75 22.35 17.95 22.1L17.9 21.85L17.85 21.85L17.8 21.85L17.9 21.7L18.2 21.1L18.25 20.95L18.35 21.2L18.45 21.95L18.25 22.75L17.65 23.45L17.35 23.65L17.15 23.7L17.1 23.8L17 23.85L15.5 24.25L14.85 24.25L14.05 24.1L14 24.1L12.95 23.8L12.05 23.4L11.8 23.2L11.55 23L11 22.5L10.8 22.25L10.55 21.95L10.3 21.45L10.25 21.3L10.15 20.65L10.2 20.2L10.2 20.1L10.3 19.75L10.55 20.1L10.65 20.3L10.75 20.55L10.65 20.65L10.55 20.75L10.5 20.85L10.6 21L10.95 20.9L11.05 21.15L11.1 21.15L11.25 21.05L11.35 21.1L11.4 21.1L11.45 21.2L11.35 21.4L11.3 21.45L11.5 21.65L12.25 22.2L12.6 22.45L12.8 22.6M11.5,19.95L11.45 19.95L11.3 19.95L11.25 20L11.25 19.95L11.2 19.8L11.25 19.8L11.35 19.7L11.45 19.7L11.5 19.85L11.5 19.95M12.25,19.95Q12.25 20.1 12.05 20.05L12 19.95L12.05 19.9L12.1 19.85L12.2 19.85L12.3 19.85L12.25 19.95M11.5,22.3L11.5 22.25L11.45 22.15L11.3 22.1L11.25 22.15Q11.15 22.15 11.2 22.3L11.2 22.45L11.25 22.5L11.4 22.4L11.5 22.3M14.05,23.6L14 23.6L13.9 23.65L13.95 23.7L13.95 23.75L14.2 23.75L14.25 23.7L14.2 23.6L14.15 23.55L14.05 23.6M16.85,23.15L16.75 23.15L16.7 23.3L16.65 23.4L16.65 23.45L16.7 23.5L16.8 23.45L16.9 23.35L16.95 23.3L16.95 23.25L16.85 23.2L16.85 23.15M16.4,22.1L16.45 22.2L16.35 22.35L16 22.35L16 22.3L16.1 22.15L16.2 22.05L16.3 22.05L16.4 22.1" />
<path style="fill:#512F1D;fill-opacity:1" d="M24,11.55L24.55 11.25L24.9 12Q25.15 12.8 24.85 13.75L25.6 13.75L26.35 13.9L26.5 13.95Q26.85 14.05 26.8 14.15Q27.45 13.7 28.45 13.75L29.3 13.85L29.5 13.9L30.25 14.2L30.45 14.4Q30.9 14.8 31 15.5L31.05 16.55L31 16.75L30.9 17.4L30.8 17.65L29.8 17.9L30.1 17.3L30.25 16.3L30.2 15.75L30.2 15.55Q30 14.9 29.5 14.7L29.25 14.6L28.95 14.5L27.45 14.65L26.7 15.1L26.3 15.35L25.55 16.05L25.5 16L25.8 15.25L25.85 15.2L26.35 14.6L23.15 14.8L22.65 15.3L22.5 15.5L22.4 15.65L21.9 16.1L21.95 15.95L22.2 15.25L22.25 14.8L22.05 14.5Q21.4 13.45 20 13.05L19.85 12.95L19.8 12.95L19 12.8L18.75 12.75L19.1 12.65L19.45 12.55L19.85 12.55L21.45 13L21.75 13.2L22.35 13.8L22.8 14.5Q23.4 13.9 24.15 13.9Q24.4 13.05 24.25 12.4L24 11.55" />
<path style="fill:#775135;fill-opacity:1" d="M15.3,17.85L15.4 17.2L15.15 17L15.3 16.8L15.6 16.2Q15.6 15.9 15.05 15.8L15.05 15.35Q15.75 15.15 15.45 14.8L15.3 14.15Q16.65 14.4 16.35 13.55L16.15 12.75L16.2 12L18.45 12.1L21 12.1L24 11.55L24.25 12.4L24.1 12.45L21.45 13L19.85 12.55L19.45 12.55L19.1 12.65L18.75 12.75L19 12.8L19.8 12.95L19.85 12.95L19.8 13.05Q19.05 14.4 20.3 15.25L21.35 15.5L22.2 15.25L21.95 15.95L21.8 16.1L21.8 16Q21.75 15.4 21.45 15.55L20.65 15.95L20.15 16.3Q19.7 16.05 19.35 15.35Q18.9 14.55 18.9 13.65L18.95 13.1L18.55 13.05L17.15 12.9L17 12.85L17 13.1L17.25 14.55L17.25 14.8L16.75 14.65L16.15 14.4L16.2 14.95L16.15 15.5L16.35 16.25L16.75 16.85L16.25 16.85L15.9 16.8L15.95 17.3L16.05 17.85L16.7 18.5Q16.15 18.1 15.6 17.95L15.3 17.85M22.3,19.35L22.3 19.3L22.2 19L22.2 18.9L24.85 19.25Q27.45 19.2 28.9 18.6L29.45 18.3L29.05 18.65L28.95 18.7Q27.5 19.65 24.85 19.65L22.3 19.35M28.25,17.4L28.15 17.5L27.55 17.6L27.2 17.45L27.1 17.3L27.1 17.05L27.2 16.75Q27.3 16.55 27.65 16.4L27.85 16.3L28.1 16.25L28.15 16.25L28.5 16.45L28.6 16.8L28.55 17L28.45 17.2L28.35 17.3L28.25 17.4M25.85,18.1L25.6 18.3Q24.45 18.15 25.65 17.75L25.85 18.1M22.55,20.2Q25.2 20.65 26.65 20.25L26.45 20.95L26.4 20.95L24.4 21.2L23.95 21.15L23.35 21.15L22.45 20.85L22.4 20.85L22.05 20.7L21.75 20.75L21.7 20.75L20.85 20.9L19.65 20.7L19.4 20.55Q18.55 20.2 18.55 19.6L18.7 19.35L18.85 19.6Q19.65 20.5 20.9 20.4L21.45 20.2L21.75 20.2L21.9 20.1L21.95 20.05L22.55 20.2M24.4,16.8Q23.35 16.85 24.5 16.2Q24.8 16.25 24.7 16.55L24.4 16.8M24.95,22.2L24.6 22.3L23.85 22.5L23.6 22.55L19.15 22.25L19.1 21.85L19.05 21.5L19.55 21.65L20.4 21.85L20.5 21.7L20.6 21.45L21.05 21.55L21.1 21.75L20.95 21.85L20.75 21.95L22.65 22.15L24.35 22.2L24.9 22.15L25.05 22.15L24.95 22.2M20.05,25.45L19.25 24.9L19.15 24.8L18.8 24.5L18.15 23.9L18.2 23.8L18.95 23L23.8 23.3L24.6 23.1L24.8 23.25L24.95 23.35L25.4 23.7L25.65 23.95L25.3 24.1L24.85 24.3L24.7 24.35L21.65 24.9L21.35 25.8L21.25 26.25L20.05 25.45M21.3,26.25Q21.35 26.1 21.5 26.1Q21.85 26 22.05 26.35L21.9 26.6L21.3 26.25M24.3,27.65L24.05 27.6L24.3 27.55L24.55 27.5L24.55 27.65L24.5 27.7L24.3 27.65M17.2,17.55Q17 16.4 18.55 16.1L18.7 16.2L18.7 16.35Q17.9 16.7 17.35 17.5L17.2 17.55M18.2,17.95Q17.1 18.2 18 17.45Q18.2 17.45 18.3 17.6Q18.5 17.85 18.2 17.95M22.7,32.1L22.95 32.4L23.65 33L24.5 33.65L25.25 33.55L25.7 33.45L26.2 33.25L25.75 33.45L24.65 33.75L20.55 34.25L17.15 34.05L17.6 33.6Q18.75 32.25 18.6 31.2Q18.55 30.55 17.9 30.05Q17.55 29.65 16.95 29.5L16.9 29.45L14.8 28.6L15.1 27.9L16.5 27.05Q18.45 29.45 21.75 30.8L22.7 32.1M13.9,28.4L13.7 28.3L13.35 28.3L13.6 27.2L13.55 26.9L14 27.5L14.3 28.05L13.9 28.4M13.1,26.55L13.2 26.6L13.05 26.7L12.95 26.7L12.7 26.7L12.65 26.5L12.8 26.45L13.1 26.55M24.45,25.7L24.8 25.75L24.9 25.75L24.95 25.8L24.95 25.85L24.7 26.2L24.55 26.15L24.5 26.05L24.45 25.9L24.45 25.7" />
<path style="fill:#DEBDA7;fill-opacity:1" d="M26.7,15.1L27.45 14.65L28.95 14.5L29.25 14.6L29.5 14.7Q30 14.9 30.2 15.55L30.2 15.75L30.25 16.3L30.15 16.15L29.25 15.45L27.2 15.1L26.7 15.1M25.85,15.2L25.1 15.1L22.75 15.5L22.4 15.65L22.5 15.5L22.65 15.3L23.15 14.8L26.35 14.6L25.85 15.2M24.1,12.45L24.25 12.4Q24.4 13.05 24.15 13.9Q23.4 13.9 22.8 14.5L22.35 13.8L23.25 13.7L23.35 13.75L24.15 12.7L24.1 12.45M9.45,28.2L9.5 27.65L9.5 27.55L9.7 26.85L9.7 26.75L9.95 26.25L10.15 26L10.15 26.2L10.5 26.85L10.2 27.7L10.2 27.95L10.1 28.45L9.45 28.6L9.45 28.2" />
<path style="fill:#BD8E6D;fill-opacity:1" d="M27.2,15.1L29.25 15.45L30.15 16.15L30.25 16.3L30.1 17.3L29.8 17.9L29.45 18.3L28.9 18.6Q27.45 19.2 24.85 19.25L22.2 18.9L22.05 18.35Q21.8 16.85 21.85 16.1L21.8 16.1L21.95 15.95L21.9 16.1L22.4 15.65L22.75 15.5L25.1 15.1L25.85 15.2L25.8 15.25L25.5 16L25.55 16.05L26.3 15.35L26.7 15.1L27.2 15.1M28.35,17.3L28.7 17.15L28.8 17.05L29 16.7L28.95 16.2L28.8 16.05L28.15 15.8L27.65 15.95Q26.95 16.15 26.85 16.6L26.8 17L26.9 17.3L27.05 17.4L27.2 17.45L27.55 17.6L28.15 17.5L28.25 17.4L28.35 17.3M25.65,17.75Q24.45 18.15 25.6 18.3L25.85 18.1L25.65 17.75M24.1,12.45L24.15 12.7L23.35 13.75L23.25 13.7L22.35 13.8L21.75 13.2L21.45 13L24.1 12.45M18.55,20.3L18.35 20L17.05 18.75L16.7 18.5L16.05 17.85L15.95 17.3L15.9 16.8L16.25 16.85L16.75 16.85L16.35 16.25L16.15 15.5L16.2 14.95L16.15 14.4L16.75 14.65L17.25 14.8L17.25 14.55L17 13.1L17 12.85L17.15 12.9L18.55 13.05L18.95 13.1L18.9 13.65Q18.9 14.55 19.35 15.35Q19.7 16.05 20.15 16.3L19.65 16.75L19.15 17.4L19 17.7L18.6 18.6Q18.5 19.05 18.7 19.35L18.55 19.6Q18.55 20.2 19.4 20.55L19.65 20.7L20.85 20.9L21.7 20.75L21.75 20.75L22.05 20.7L22.4 20.85L22.45 20.85L23.35 21.15L23.95 21.15L24.4 21.2L26.4 20.95Q26.25 21.55 25.7 21.8L25.05 22.15L24.9 22.15L24.35 22.2L22.65 22.15L20.75 21.95L20.95 21.85L21.1 21.75L21.05 21.55L20.6 21.45L20.5 21.7L20.4 21.85L19.55 21.65L19.05 21.5L18.55 20.3M24.7,16.55Q24.8 16.25 24.5 16.2Q23.35 16.85 24.4 16.8L24.7 16.55M26.1,24.4L26.55 24.95L26.8 25.3L27.05 25.75Q27.7 27.15 28 28.65L25.15 27.9L24.5 27.7L24.55 27.65L24.55 27.5L24.3 27.55L24.05 27.6L23.65 27.45L22 26.65L21.9 26.6L22.05 26.35Q21.85 26 21.5 26.1Q21.35 26.1 21.3 26.25L21.25 26.25L21.35 25.8L21.65 24.9L24.7 24.35L24.85 24.3L25.3 24.1L25.65 23.95L26.1 24.4M17.35,17.5Q17.9 16.7 18.7 16.35L18.7 16.2L18.55 16.1Q17 16.4 17.2 17.55L17.35 17.5M18.3,17.6Q18.2 17.45 18 17.45Q17.1 18.2 18.2 17.95Q18.5 17.85 18.3 17.6M23.8,28.2L24 28.3L23.85 28.3L23.8 28.2M27.25,32.7L26.8 33L26.4 33.2L26.2 33.25L25.7 33.45L25.25 33.55L24.5 33.65L23.65 33L22.95 32.4L22.7 32.1L21.75 30.8L22.9 31.2L27.7 32.25L27.25 32.7M10.2,27.95L10.2 27.7L10.5 26.85L10.6 27L10.75 27.25Q10.85 27.4 11.05 27.4L11.5 27L12.05 26.55L12.65 26.4L12.8 26.45L12.65 26.5L12.7 26.7L12.95 26.7L13.05 26.7L13.2 26.6L13.55 26.9L13.6 27.2L13.35 28.3L13 28.25L12.25 28.25L11.8 28.25L11.35 28.25L10.1 28.45L10.2 27.95M24.45,25.9L24.5 26.05L24.55 26.15L24.7 26.2L24.95 25.85L24.95 25.8L24.9 25.75L24.8 25.75L24.45 25.7L24.45 25.9" />
<path style="fill:#412415;fill-opacity:1" d="M24.5,34.55L23.45 34.7L19.2 34.85L16.45 34.5L17.15 34.05L20.55 34.25L24.65 33.75L25.75 33.45L26.2 33.25L26.4 33.2L26.8 33L27.25 32.7L27.7 32.25L28.55 32.3L28.4 32.55L27 33.75L25.65 34.3L25.35 34.35L24.5 34.55M28.4,28.75L28 28.65Q27.7 27.15 27.05 25.75L26.8 25.3L26.55 24.95L26.1 24.4L25.65 23.95L25.4 23.7L24.95 23.35L24.8 23.25L24.6 23.1L23.8 23.3L18.95 23L19.15 22.25L23.6 22.55L23.85 22.5L24.6 22.3L24.95 22.2L25.05 22.15L25.7 21.8Q26.25 21.55 26.4 20.95L26.45 20.95L26.65 20.25Q25.2 20.65 22.55 20.2L21.95 20.05L22.15 19.8L22.3 19.55L22.35 19.5L22.3 19.35L24.85 19.65Q27.5 19.65 28.95 18.7L29.05 18.65L29.45 18.3L29.8 17.9L30.8 17.65L30.05 18.85L29.1 19.6L27.75 20.2L26.85 22L26.75 22.1L25.45 22.85L26 23.3L26.4 23.6L27 24.3L27.4 24.8L27.8 25.6L27.95 25.9L28.15 26.55L28.8 28.7L28.8 28.75L28.4 28.75M27.05,17.4L26.9 17.3L26.8 17L26.85 16.6Q26.95 16.15 27.65 15.95L28.15 15.8L28.8 16.05L28.95 16.2L29 16.7L28.8 17.05L28.7 17.15L28.35 17.3L28.45 17.2L28.55 17L28.6 16.8L28.5 16.45L28.15 16.25L28.1 16.25L27.85 16.3L27.65 16.4Q27.3 16.55 27.2 16.75L27.1 17.05L27.1 17.3L27.2 17.45L27.05 17.4" />
<path style="fill:#A14C27;fill-opacity:1" d="M20,13.05Q21.4 13.45 22.05 14.5L22.25 14.8L20.7 14.85Q19.8 14.5 20 13.05M21,13.9Q21 13.45 20.55 13.45Q20.1 13.85 20.2 14.05L20.45 14.2L21 14.05L21 13.9M10.25,24.8L10.05 24.8L8.9 25.5L8.8 25.6L8.7 25.4L8.65 25.35L9 24.9L9.05 24.9L9.45 24.5Q10 24.05 10.55 24.15L10.4 24.8L10.25 24.8M11.25,24.55L11.2 24.5L11.15 24.5L10.8 24.25L10.55 24.05L9.7 23.15L9.65 23.1L9.55 23L9.55 22.95L9.45 22.75L10 22.25L10.35 22.8L10.45 22.9L11.3 23.7L11.65 23.9L11.8 24L12.1 24.15L12.7 24.4L12.9 24.5L14.85 24.95Q14.95 24.65 15.1 24.95L15.15 24.95L15.45 24.9L15.8 24.85L17.1 24.5L16.7 25.65L16.5 26L16.05 26.45L15.45 26.9L15.35 26.95L15.05 27.05Q15.3 26.4 15.2 25.8L15.05 25.4L14.65 25.5Q13.85 25.6 11.65 24.7L11.5 24.65L11.25 24.55M11.1,25.95L11.3 25.7L12 25.2Q12.55 25.1 12.75 25.35L12.6 25.45L12.55 25.6L12 25.9L11.1 26.5L11 26.4L10.9 26.25L11.1 25.95" />
<path style="fill:#742108;fill-opacity:1" d="M21.35,15.5L20.3 15.25Q19.05 14.4 19.8 13.05L19.85 12.95L20 13.05Q19.8 14.5 20.7 14.85L22.25 14.8L22.2 15.25L21.35 15.5" />
<path style="fill:#E0E0E0;fill-opacity:1" d="M21,14.05L20.45 14.2L20.2 14.05Q20.1 13.85 20.55 13.45Q21 13.45 21 13.9L21 14.05" />
<path style="fill:#3E3A2F;fill-opacity:1" d="M22.2,19L22.3 19.3L22.3 19.35L22.35 19.5L22.3 19.55L22.15 19.8L21.95 20.05L21.9 20.1L21.75 20.2L21.45 20.2L20.9 20.4Q19.65 20.5 18.85 19.6L18.7 19.35Q18.5 19.05 18.6 18.6L19 17.7L19.15 17.4L19.65 16.75L20.15 16.3L20.65 15.95L21.45 15.55Q21.75 15.4 21.8 16L21.8 16.1L21.85 16.1Q21.8 16.85 22.05 18.35L22.2 18.9L22.2 19M20.2,16.85L20.15 17L20.05 17.1L19.95 17.2L19.55 17.75L19.25 18.15L19.2 18.45Q19.05 19.1 19.55 19.45L19.8 19.6L20.3 19.8L20.9 19.85L21.15 19.8L21.65 19.6L21.65 19.55L21.6 19.15L21.6 19.1L21.55 18.85L21.6 19.15L21.5 18.85L21.5 18.8L21.45 18.3L21.35 17.4L21.3 16.7L21.3 16.4L21.3 16.35L21.05 16.3L20.65 16.5L20.6 16.55L20.25 16.85L20.2 16.85" />
<path style="fill:#F0EAC6;fill-opacity:1" d="M21.05,18.9L20.75 18.9L20.15 18.7L19.95 18.15L19.95 18L20.05 17.1L20.15 17L20.2 16.85L20.25 16.85L20.6 16.75L20.8 16.8L21.05 17.6L21.2 18.35L21.4 18.85L21.05 18.9M19.45,18.35L19.45 18.4L19.6 19.1L20.15 19.7L20.15 19.75L20.3 19.8L19.8 19.6L19.55 19.45Q19.05 19.1 19.2 18.45L19.25 18.15L19.55 17.75L19.45 18.35" />
<path style="fill:#FFFCEE;fill-opacity:1" d="M21.4,18.85L21.2 18.35L21.05 17.6L20.8 16.8L20.6 16.75L20.25 16.85L20.6 16.55L20.65 16.5L21.05 16.3L21.3 16.35L21.3 16.4L21.3 16.7L21.35 17.4L21.45 18.3L21.5 18.8L21.4 18.85" />
<path style="fill:#9D8E79;fill-opacity:1" d="M19.55,17.75L19.95 17.2L20.05 17.1L19.95 18L19.95 18.15L20.15 18.7L20.75 18.9L21.05 18.9L21.4 18.85L21.5 18.8L21.5 18.85L21.6 19.15L21.55 18.85L21.6 19.1L21.6 19.15L21.65 19.55L21.65 19.6L21.15 19.8L20.9 19.85L20.3 19.8L20.15 19.75L20.15 19.7L19.6 19.1L19.45 18.4L19.45 18.35L19.55 17.75" />
<path style="fill:#1C100B;fill-opacity:1" d="M27,24.3L28.15 24.1L28.8 24.2L29 24L29.7 23.55L30.15 23.4L30.4 23.3L30.95 23.2L31.4 23.15L32 23.05L32.1 23.05L32.55 23.05L33.4 23.25L34.2 23.8Q35.1 24.55 35.15 26.2L35.25 26.9L35.2 27.05L34.9 28.85Q34.4 29.85 33.15 30.2L32.5 30.3L32.25 30.35L31.9 30.35L31.45 30.4L31.35 30.4L30.8 30.4L30.1 30.35L29.6 30.3L29.05 30.35L29 29.65L29 29.6L29 29.45L28.8 28.75L28.8 28.7L28.15 26.55L27.95 25.9L28 25.55L28.05 25.55L28.2 24.9L28.1 24.85L27.5 24.8L27.4 24.8L27 24.3M32.15,29.75L32.3 29.7L32.45 29.65L32.55 29.65L33.25 29.35Q34.45 28.7 34.55 27.15L34.5 26.95L34.4 25.9L34.45 25.95L34.3 25.3Q34.05 24.6 33.4 24.3L32.6 24.15L32.05 24.1L32 24.1L31.35 24.15L30.9 24.25L30.15 24.4L29.25 24.7L29.1 24.85L28.8 25.3L28.65 25.4L28.55 26.2Q28.5 27.25 28.9 28.1Q29.4 29.25 30.1 29.6L30.3 29.65L30.8 29.8L31.35 29.85L31.6 29.85L32.15 29.75" />
<path style="fill:#2E201B;fill-opacity:1" d="M32.55,23.05L32.55 22.3L32.9 21.95L33.1 21.9L33.45 21.35L33.4 23.25L32.55 23.05M30.15,23.4L30.2 20.75L30.4 21.1L30.8 21.85L30.9 21.95L30.95 22.05L30.95 22.6L30.95 23.2L30.4 23.3L30.15 23.4M30.4,23.05L30.35 23.1L30.4 23.1L30.4 23.05" />
<path style="fill:#513727;fill-opacity:1" d="M32.55,23.05L32.1 23.05L32 23.05L32 22.75L32.55 22.3L32.55 23.05" />
<path style="fill:#644638;fill-opacity:1" d="M31.4,23.15L31.45 22.4L31.7 22.7L31.7 22.75L31.75 22.8L31.85 22.75L31.95 22.75L32 22.75L32 23.05L31.4 23.15" />
<path style="fill:#8E6755;fill-opacity:1" d="M31.4,23.15L30.95 23.2L30.95 22.6L30.95 22.05L31 22.1L31.45 22.4L31.4 23.15" />
<path style="fill:#56656D;fill-opacity:1" d="M30.4,23.1L30.35 23.1L30.4 23.05L30.4 23.1" />
<path style="fill:#982E0F;fill-opacity:1" d="M17.9,24.85L17.3 25.95L16.9 26.55L16.5 27.05L15.1 27.9L14.65 28L14.35 28.05L14.3 28.05L14 27.5L13.55 26.9L13.2 26.6L13.1 26.55L12.8 26.45L12.65 26.4L12.05 26.55L11.5 27L11.05 27.4Q10.85 27.4 10.75 27.25L10.6 27L10.5 26.85L10.15 26.2L10.15 26L10.25 25.4L9.5 25.8L9.45 25.85L9.3 25.95L8.85 26.4L8.8 26.35L8.75 26.25L8.45 25.9L8.3 25.7L8.1 25.4L7.85 24.6Q7.8 24.35 7.9 24.05L7.95 23.8L8.35 23.15L8.4 23.05L9.15 22.3L9.2 22.3L9.8 21.8L10 22.25L9.45 22.75L9.25 23L8.9 23.55L8.8 23.7L8.75 23.8L8.6 24.2L8.5 24.75Q8.5 25.05 8.65 25.35L8.7 25.4L8.8 25.6L8.9 25.5L10.05 24.8L10.25 24.8L10.4 24.8L10.65 24.85L10.85 24.95L10.85 25L10.85 25.6L10.85 26.05L10.9 26.25L11 26.4L11.1 26.5L12 25.9L12.55 25.6L12.85 25.7Q13.3 25.8 13.6 26.05L14.65 27.1L14.7 27.15L15.05 27.05L15.35 26.95L15.45 26.9L16.05 26.45L16.5 26L16.7 25.65L17.1 24.5L17.4 24.35L18 24Q18.15 24.25 17.9 24.85" />
<path style="fill:#D26A3D;fill-opacity:1" d="M9.55,22.95L9.55 23L9.5 23.25L9.3 23.85L9.15 24.4L9 24.9L8.65 25.35Q8.5 25.05 8.5 24.75L8.6 24.2L8.75 23.8L8.8 23.7L8.9 23.55L9.25 23L9.45 22.75L9.55 22.95M10.9,26.25L10.85 26.05L10.85 25.6L10.85 25L10.85 24.95L11.25 24.55L11.5 24.65Q11.25 24.9 11.2 25.45L11.15 25.7L11.15 25.8L11.1 25.95L10.9 26.25" />
<path style="fill:#B1552E;fill-opacity:1" d="M10.85,24.95L10.65 24.85L10.4 24.8L10.55 24.15Q10 24.05 9.45 24.5L9.05 24.9L9 24.9L9.15 24.4L9.3 23.85L9.5 23.25L9.55 23L9.65 23.1L9.7 23.15L10.55 24.05L10.8 24.25L11.15 24.5L11.2 24.5L11.25 24.55L10.85 24.95M14.7,27.15L14.65 27.1L13.6 26.05Q13.3 25.8 12.85 25.7L12.55 25.6L12.6 25.45L12.75 25.35Q12.55 25.1 12 25.2L11.3 25.7L11.1 25.95L11.15 25.8L11.15 25.7L11.2 25.45Q11.25 24.9 11.5 24.65L11.65 24.7Q13.85 25.6 14.65 25.5L15.05 25.4L15.2 25.8Q15.3 26.4 15.05 27.05L14.7 27.15" />
<path style="fill:#D8C69C;fill-opacity:1" d="M12.75,18.5L12.8 18.45L12.85 18.45L12.85 18.5L13 18.5L13.05 18.55L13.05 18.7L12.75 18.65L12.7 18.6L12.7 18.5L12.75 18.5M11.4,22.4L11.25 22.5L11.2 22.45L11.2 22.3Q11.15 22.15 11.25 22.15L11.3 22.1L11.45 22.15L11.5 22.25L11.5 22.3L11.4 22.4M14.15,23.55L14.2 23.6L14.25 23.7L14.2 23.75L13.95 23.75L13.95 23.7L13.9 23.65L14 23.6L14.05 23.6L14.15 23.55M15.6,19.25L15.4 19.15L15.4 19L15.45 18.95L15.6 18.95L15.7 19L15.7 19.05L15.7 19.2L15.6 19.25M16.85,23.2L16.95 23.25L16.95 23.3L16.9 23.35L16.8 23.45L16.7 23.5L16.65 23.45L16.65 23.4L16.7 23.3L16.75 23.15L16.85 23.15L16.85 23.2" />
<path style="fill:#DAD6BD;fill-opacity:1" d="M12.8,19.65L12.55 19.7L12.5 19.6L12.55 19.45L12.6 19.4L12.85 19.35L12.9 19.35L12.95 19.45L12.8 19.65M16.4,21L16.6 20.95L16.65 20.95L16.7 21.2L16.4 21.3L16.4 21.2L16.4 21" />
<path style="fill:#201C13;fill-opacity:1" d="M13.5,21.05L14.05 20.75L14.55 20.85L14.75 21.35L14.65 21.65L14.55 21.8L14.2 22.1L14.15 22.15L13.5 22.3L13.4 22.25L13.05 21.75L13.1 21.45L13.15 21.3L13.35 21.15L13.5 21.05" />
<path style="fill:#785743;fill-opacity:1" d="M15.4,30.5L15.35 30.8L15.15 30.65L15.25 30.5L15.4 30.5M11.9,30.5L12.05 30.65L12.05 30.85L11.9 30.9L11.75 30.8L11.9 30.5" />
<path style="fill:#4A2B1A;fill-opacity:1" d="M14.3,28.05L14.35 28.05L14.65 28L15.1 27.9L14.8 28.6L13.9 28.4L14.3 28.05M10.25,25.4L10.15 26L9.95 26.25L9.7 26.75L9.7 26.85L9.5 27.55L9.5 27.65L9.45 28.2L9.45 28.6L8.9 28.6L8.85 28.65L8.85 28.35L8.85 28L8.85 27.85L8.9 27.5L9 27.05L9.25 26.15L9.45 25.85L9.5 25.8L10.25 25.4" />
<path style="fill:#3C2C22;fill-opacity:1" d="M13.5,31.7L13.3 31.7L12.75 31.85L12.7 31.7L12.65 31.65L12.7 31.65L12.75 31.6L13.1 31.45L13.35 31.3L13.55 31.25L13.75 31.25L13.75 31.5L13.55 31.7L13.5 31.7" />
<path style="fill:#574031;fill-opacity:1" d="M15.8,33.05L15.95 33.05L15.8 33.2L15.7 33.2L15.7 33.15L15.8 33.05" />
<path style="fill:#AD8C78;fill-opacity:1" d="M23.85,28.3L24 28.3L24.25 28.35L24.5 28.45L24.85 28.55L28.2 29.35L28.2 29.4L28.25 30.05L28.3 30.35L28.25 30.55L28.1 30.35L27.45 29.8L26.95 29.65L25.25 29.05L24.85 28.9L23.7 28.35L23.15 28L23.7 28.15L23.8 28.2L23.85 28.3" />
</g>
</svg>
