<?xml version="1.0" encoding="utf-8"?>
<svg version="1.1" id="Layer_1"
xmlns="http://www.w3.org/2000/svg"
xmlns:xlink="http://www.w3.org/1999/xlink"
xmlns:author="http://www.sothink.com"
width="79px" height="32px"
xml:space="preserve">
<g id="2862" transform="matrix(1, 0, 0, 1, 86.55, -4.3)">
<path style="fill:#3C2C22;fill-opacity:1" d="M-63.3,16.15L-48.05 15.5L-41.6 15.4L-33.05 15.15L-33.05 15.3L-32.55 15.25L-32.5 15.25L-26.1 14.9L-21.2 14.6L-17.1 14.25L-9.3 13.5Q-9.25 14.25 -9.65 14.85L-18.6 15.4L-32.55 16.1L-33.05 16.1L-33.05 16.05L-50.2 16.6L-66.35 18.35Q-52.9 16 -63.3 16.15" />
<path style="fill:#574031;fill-opacity:1" d="M-65,14.45L-61 14.2L-61.4 14.15L-64.4 14.05L-59.65 14L-54.55 13.95L-45.6 13.65L-33 13.35L-33 13.4L-32.5 13.4L-30.55 13.3L-15.75 12.55L-9.95 12.2Q-9.75 12.1 -9.45 13.1L-9.3 13.5L-17.1 14.25L-21.2 14.6L-26.1 14.9L-32.5 15.25L-32.55 15.25L-33.05 15.3L-33.05 15.15L-41.6 15.4L-48.05 15.5L-63.3 16.15Q-73 14.65 -65 14.45" />
<path style="fill:#231813;fill-opacity:1" d="M-9.45,13.1Q-9.75 12.1 -9.95 12.2L-15.75 12.55L-30.55 13.3L-32.5 13.4L-33 13.4L-33 13.35L-45.6 13.65L-54.55 13.95L-59.65 14Q-53.8 13.5 -65.6 13.45Q-54.95 13.1 -59.4 12.9L-53.55 12.8L-32.45 12.05L-32.45 12.1L-15.5 11.05L-9.55 10.75Q-8.05 11.25 -7.7 12.6L-7.6 13.4Q-7.55 14.2 -7.75 14.8L-8.8 16.35L-33.1 17.25L-33.1 17.2L-66.1 18.9Q-52.05 17.2 -66.35 18.35L-50.2 16.6L-33.05 16.05L-33.05 16.1L-32.55 16.1L-18.6 15.4L-9.65 14.85Q-9.25 14.25 -9.3 13.5L-9.45 13.1M-62.1,14.25L-62.4 14.25L-61.4 14.15L-61 14.2L-62.1 14.25" />
<path style="fill:#3D3C3C;fill-opacity:1" d="M-75.65,12.5Q-76.7 12.5 -77.5 13.15Q-75.7 13.7 -75.65 12.55L-75.65 12.5M-74.3,13.45L-76.8 13.6L-80.1 13.5L-77.7 12.9L-74.1 11.95L-74.3 13.45" />
<path style="fill:#222222;fill-opacity:1" d="M-76.8,13.6L-74.3 13.45Q-74.3 14.25 -73.9 14.95L-80.35 13.55L-80.1 13.5L-76.8 13.6" />
<path style="fill:#000000;fill-opacity:1" d="M-51.9,23.15Q-54.55 25.35 -60.65 26.4L-69.2 26.7L-70.8 26.35L-72.4 25.8L-75.85 24.35L-76.4 24.05L-76.6 23.95Q-78.05 22.6 -77.85 21.45L-75.9 19.4L-74.4 16.6L-81.2 14.85Q-84.6 13.85 -82.6 12.8L-81.85 12.55Q-78.65 11.3 -74.65 10.3L-74.1 10.15L-75.9 9.15Q-77.5 8.65 -76.5 7.8Q-71.3 4.1 -65.95 4.3L-58.9 5.05L-57.65 5.4L-56.1 6Q-54.15 6.85 -52.6 8L-52.3 8.25Q-50.7 9.65 -53.1 9.75Q-54.35 10.15 -55.45 10.95L-55.15 11.95Q-54.85 13.85 -55.35 14.45L-55.9 15.15L-54.65 18.1Q-53.85 19.6 -52.7 20.65L-50.9 21.95Q-51.2 22.65 -51.9 23.15M-72.55,13.05Q-72.6 14.1 -72.15 14.2L-72.05 14.2L-66.5 14.1Q-62.1 14 -57.7 14.05Q-57.7 14.25 -57.6 14.05L-56.9 14.05Q-55.9 12.9 -56.6 12.05L-56.75 11.9L-57.2 11.55L-57.3 11.5L-62.7 11.25L-67.15 11.35L-69.2 11.45L-71.2 11.55L-71.85 11.6L-71.9 11.6L-72.15 11.7Q-72.45 11.85 -72.5 12.45L-72.55 12.8L-72.55 12.95L-72.55 13.05M-56.05,7.2Q-58.45 6.2 -60.75 5.75L-64.6 5.3Q-70.1 5.15 -75.1 8.2Q-73.5 9.05 -72.7 9.85L-72.45 10.1L-71.95 9.95L-70.25 9.7L-70.05 9.7L-68.05 9.6L-62.25 9.55L-56.9 9.8L-56.3 10Q-55.4 8.85 -53.75 8.6L-54.7 7.85L-55.1 7.65Q-55.6 7.35 -56.05 7.2M-67.15,15.5L-69.1 15.5L-72.5 15.65L-72.7 16.35L-72.75 16.4L-72.95 16.9Q-74.35 20.05 -75.95 21.8Q-76.4 22.2 -75.5 23.1L-74.95 23.5L-71.75 24.8L-70.85 25L-68.45 25.5Q-65.65 25.85 -62.35 25.5Q-57.65 25 -53.05 22.3L-53.6 21.85Q-55.5 20.35 -56.55 17.65L-56.8 16.9L-57.3 15.3L-66.25 15.55L-67.15 15.5M-74.1,11.95L-77.7 12.9L-80.1 13.5L-80.35 13.55L-73.9 14.95Q-74.3 14.25 -74.3 13.45L-74.1 11.95" />
<path style="fill:#9C9C9C;fill-opacity:1" d="M-73.45,7.95Q-72.65 8.7 -72.05 9.75L-71.95 9.95L-72.45 10.1L-72.7 9.85Q-73.5 9.05 -75.1 8.2Q-70.1 5.15 -64.6 5.3L-67.65 5.8Q-69.25 6.1 -70.4 6.55Q-72.2 7 -73.45 7.95M-72.75,16.95Q-72.85 21.05 -74.95 23.5L-75.5 23.1Q-76.4 22.2 -75.95 21.8Q-74.35 20.05 -72.95 16.9L-72.75 16.4L-72.75 16.95M-67.15,12L-67.1 11.95L-66.95 11.95L-63.9 11.6L-63.75 11.6L-63.15 11.6L-62.85 11.7L-62.8 11.9L-62.9 12.05Q-65.05 12.4 -66.95 12.05L-67.15 12M-75.65,12.55Q-75.7 13.7 -77.5 13.15Q-76.7 12.5 -75.65 12.5L-75.65 12.55" />
<path style="fill:#252525;fill-opacity:1" d="M-56.75,11.9L-56.6 12.05Q-55.9 12.9 -56.9 14.05L-57.6 14.05Q-57.7 14.25 -57.7 14.05Q-62.1 14 -66.5 14.1L-72.05 14.2L-72.15 14.2Q-72.6 14.1 -72.55 13.05L-72.55 12.95L-72.25 12.95L-70.25 12.95L-69 12.95L-68.65 12.95L-66.7 12.95L-66.35 12.95L-62.45 12.95L-58.65 12.95L-58.5 12.95L-57.55 12.8Q-56.8 12.55 -56.75 11.9M-70.2,7.75Q-68.05 6.85 -63.95 6.75Q-59.75 6.6 -55.1 7.65L-54.7 7.85L-53.75 8.6Q-55.4 8.85 -56.3 10L-56.9 9.8L-62.25 9.55L-68.05 9.6Q-68.95 8.35 -70.2 7.75M-67.9,24.4Q-65.7 19.95 -66.25 15.55L-57.3 15.3L-56.8 16.9L-56.55 17.65Q-55.5 20.35 -53.6 21.85L-53.05 22.3Q-57.65 25 -62.35 25.5Q-65.65 25.85 -68.45 25.5L-67.9 24.4" />
<path style="fill:#3A3838;fill-opacity:1" d="M-72.65,7.75Q-71.9 7.15 -70.4 6.55Q-69.25 6.1 -67.65 5.8L-64.6 5.3L-60.75 5.75Q-58.45 6.2 -56.05 7.2Q-55.6 7.35 -55.1 7.65Q-59.75 6.6 -63.95 6.75Q-68.05 6.85 -70.2 7.75Q-68.95 8.35 -68.05 9.6L-70.05 9.7L-70.25 9.7Q-71.2 8.5 -72.65 7.75M-69.1,15.5L-67.15 15.5L-66.25 15.55Q-65.7 19.95 -67.9 24.4L-68.45 25.5L-70.85 25L-71.75 24.8L-71.3 23.9Q-68.45 18.8 -69.1 15.5" />
<path style="fill:#434242;fill-opacity:1" d="M-57.55,12.8L-58.5 12.95L-58.65 12.95L-62.45 12.95L-66.35 12.95L-66.7 12.95L-68.65 12.95L-69 12.95L-70.25 12.95L-72.25 12.95L-72.55 12.95L-72.55 12.8L-72.5 12.45Q-72.45 11.85 -72.15 11.7L-71.9 11.6L-71.85 11.6L-71.2 11.55L-69.2 11.45L-67.15 11.35L-62.7 11.25L-57.3 11.5L-57.2 11.55L-56.75 11.9Q-56.8 12.55 -57.55 12.8M-70.4,6.55Q-71.9 7.15 -72.65 7.75Q-71.2 8.5 -70.25 9.7L-71.95 9.95L-72.05 9.75Q-72.65 8.7 -73.45 7.95Q-72.2 7 -70.4 6.55M-71.3,23.9L-71.75 24.8L-74.95 23.5Q-72.85 21.05 -72.75 16.95L-72.75 16.4L-72.7 16.35L-72.5 15.65L-69.1 15.5Q-68.45 18.8 -71.3 23.9M-66.95,12.05Q-65.05 12.4 -62.9 12.05L-62.8 11.9L-62.85 11.7L-63.15 11.6L-63.75 11.6L-63.9 11.6L-66.95 11.95L-67.1 11.95L-67.15 12L-66.95 12.05" />
<path style="fill:#3C3532;fill-opacity:1" d="M-77.4,23.35Q-81.05 25.4 -84.5 25.45Q-81 31.1 -73.7 32.95Q-67.8 34.4 -62.45 34.15L-60.05 33.95Q-53.7 33.1 -49 30.2Q-45.85 28.15 -44.6 26.95L-43.9 26.05L-45.65 25.65L-49.85 24.35L-51.9 23.15Q-51.2 22.65 -50.9 21.95L-49.95 22.45L-44.3 24.5L-41.4 25.1Q-41.25 25.65 -41.45 26.15Q-42.15 27.5 -46.15 30.7Q-48.75 32.7 -52.7 34.05Q-54.95 34.85 -57.55 35.35Q-64.95 36.85 -71.9 35.3Q-78.9 33.65 -82.95 29.8Q-87 26 -86.5 23.85L-80.8 23.4L-78.7 22.2L-77.85 21.45Q-78.05 22.6 -76.6 23.95L-77.4 23.35" />
<linearGradient
id="LinearGradID_2726" gradientUnits="userSpaceOnUse" gradientTransform="matrix(-0.0240479, 0.00247192, -0.000564575, -0.00733948, -58.4, 27.75)" spreadMethod ="pad" x1="-819.2" y1="0" x2="819.2" y2="0" >
<stop  offset="0.00392157" style="stop-color:#5B514C;stop-opacity:1" />
<stop  offset="1" style="stop-color:#B6A89D;stop-opacity:1" />
</linearGradient>
<path style="fill:url(#LinearGradID_2726) " d="M-69.2,26.7L-60.65 26.4Q-54.55 25.35 -51.9 23.15L-49.85 24.35L-45.65 25.65L-51.15 27.75Q-64.1 31.5 -70.55 28.5L-69.2 26.7" />
<linearGradient
id="LinearGradID_2727" gradientUnits="userSpaceOnUse" gradientTransform="matrix(-0.0240479, 0.00247192, -0.000564575, -0.00733948, -58.4, 27.75)" spreadMethod ="pad" x1="-819.2" y1="0" x2="819.2" y2="0" >
<stop  offset="0.00392157" style="stop-color:#C4BEBB;stop-opacity:1" />
<stop  offset="1" style="stop-color:#F7F7F7;stop-opacity:1" />
</linearGradient>
<path style="fill:url(#LinearGradID_2727) " d="M-77.15,25.2Q-79.55 26.5 -82 26.4Q-75.7 33.2 -62.45 34.15Q-67.8 34.4 -73.7 32.95Q-81 31.1 -84.5 25.45Q-81.05 25.4 -77.4 23.35L-76.6 23.95L-76.4 24.05L-75.85 24.35L-77.15 25.2" />
<linearGradient
id="LinearGradID_2728" gradientUnits="userSpaceOnUse" gradientTransform="matrix(-0.0240479, 0.00247192, -0.000564575, -0.00733948, -58.4, 27.75)" spreadMethod ="pad" x1="-819.2" y1="0" x2="819.2" y2="0" >
<stop  offset="0.00392157" style="stop-color:#625B57;stop-opacity:1" />
<stop  offset="1" style="stop-color:#BFB4AA;stop-opacity:1" />
</linearGradient>
<path style="fill:url(#LinearGradID_2728) " d="M-70.55,28.5Q-64.1 31.5 -51.15 27.75L-45.65 25.65L-43.9 26.05L-44.6 26.95Q-47.95 28.45 -51.35 29.6Q-65.1 34 -75.45 28.85Q-73.5 27.55 -72.4 25.8L-70.8 26.35L-69.2 26.7L-70.55 28.5" />
<linearGradient
id="LinearGradID_2729" gradientUnits="userSpaceOnUse" gradientTransform="matrix(-0.0240479, 0.00247192, -0.000564575, -0.00733948, -58.4, 27.75)" spreadMethod ="pad" x1="-819.2" y1="0" x2="819.2" y2="0" >
<stop  offset="0.00392157" style="stop-color:#746E6B;stop-opacity:1" />
<stop  offset="1" style="stop-color:#CDC6C0;stop-opacity:1" />
</linearGradient>
<path style="fill:url(#LinearGradID_2729) " d="M-75.85,24.35L-72.4 25.8Q-73.5 27.55 -75.45 28.85Q-65.1 34 -51.35 29.6Q-47.95 28.45 -44.6 26.95Q-45.85 28.15 -49 30.2Q-53.7 33.1 -60.05 33.95L-62.45 34.15Q-75.7 33.2 -82 26.4Q-79.55 26.5 -77.15 25.2L-75.85 24.35" />
</g>
</svg>
