<?xml version="1.0" encoding="utf-8"?>
<svg version="1.1" id="Layer_1"
xmlns="http://www.w3.org/2000/svg"
xmlns:xlink="http://www.w3.org/1999/xlink"
xmlns:author="http://www.sothink.com"
width="181px" height="86px"
xml:space="preserve">
<g id="1735" transform="matrix(1, 0, 0, 1, 98.7, 65)">
<path style="fill:#F8F8F8;fill-opacity:1" d="M71.05,5.85L66.35 5.35L64.7 4.75L64.7 4.65Q68.35 1.95 68.35 0.55L67.65 0.45L63.4 1L61.9 0.8L61.9 0.45Q64.25 -2 64.25 -2.85L64.15 -3.55L59.95 -3.55Q61.4 -7 61.55 -8.25L61.55 -9.3Q59.8 -9.15 57.65 -9.3L57.55 -14.55L56.3 -14.55Q45.4 -10.95 52.9 -8.75L55.5 -8.2L55.5 -8L52.4 -4.8L54.45 -5.3L55.5 -5.3Q54.95 0.05 49.8 3.6Q54.7 3.5 56.2 2.3L57.15 2.3L55.5 3.95L57.85 3.7L57.85 4.15Q53.4 7.8 52.95 7.9L53.1 7.9L58.65 8.15L58.65 8.6Q54.05 12.2 51.2 12.8L48.35 13L46.2 13L38.95 12.6Q45.05 9.95 46.1 8.35L42.45 8.35Q42.5 8.15 43.95 7.1L45.4 5.6L43.7 5.6L30.95 8.05Q35.95 5.15 38.3 3.1Q42.25 -0.2 43.7 -2.4L43.8 -2.6L40.95 -1.9L40.85 -1.7L42.35 -4.45L43.3 -6.05L42.45 -6.05Q42.15 -5.7 41.3 -5.6L39.9 -5.3L37.7 -5.3Q38.6 -5.35 41.15 -9.25Q43.5 -12.8 42.8 -14.1L36.35 -12.55L36.15 -12.55Q37.55 -13.85 39.3 -17.65Q40.8 -20.95 39.15 -23.2Q38.6 -24.55 35.9 -27.45Q40.95 -32.4 46.25 -34.25Q51.05 -35.8 54.1 -34.8Q56.7 -35.3 59.8 -34.85L55.8 -32.25Q53.9 -30.65 57.35 -30.65Q61.9 -30.65 68.5 -26.9Q75.55 -23.1 79.05 -18.1L81.75 -10.85Q82.55 -6.6 81.85 -1.9L80.95 2.2L80.95 2.3Q80.25 2.55 79.45 3L76.7 4.4L76.25 4.65Q76 4.7 75.9 4.8L74.5 5.5L71.05 5.85M60.9,5.05Q61 4.4 61.55 4.2L62.8 4.4L62.95 4.55L62.95 4.7L62.8 5.75Q61.95 6.4 61 5.75L60.9 5.05M34.9,-1.95Q35.5 -2.4 36.25 -2.65Q37.4 -3.15 38.2 -2.4L38.45 -2.25Q37.45 -1.15 35.9 -0.7Q34.9 -0.45 34.3 -1.05Q34.3 -1.6 34.9 -1.95M34.25,12.3L34.2 12.25Q34.5 10.55 36.7 10.95Q37.3 10.75 37.55 11.1L37.7 11.25Q36.5 13.2 34.25 12.3M31.4,7.75L30.65 7.75L31.1 7.7L31.4 7.75" />
<path style="fill:#B0E3F0;fill-opacity:1" d="M32.25,-23.6L35.9 -27.45Q38.6 -24.55 39.15 -23.2Q40.8 -20.95 39.3 -17.65Q37.55 -13.85 36.15 -12.55L36.35 -12.55L42.8 -14.1Q43.5 -12.8 41.15 -9.25Q38.6 -5.35 37.7 -5.3L39.9 -5.3L41.3 -5.6Q42.15 -5.7 42.45 -6.05L43.3 -6.05L42.35 -4.45L40.85 -1.7L40.95 -1.9L43.8 -2.6L43.7 -2.4Q42.25 -0.2 38.3 3.1Q35.95 5.15 30.95 8.05L43.7 5.6L45.4 5.6L43.95 7.1Q42.5 8.15 42.45 8.35L46.1 8.35Q45.05 9.95 38.95 12.6L46.2 13L48.35 13L51.2 12.8Q54.05 12.2 58.65 8.6L58.65 8.15L53.1 7.9L52.95 7.9Q53.4 7.8 57.85 4.15L57.85 3.7L55.5 3.95L57.15 2.3L56.2 2.3Q54.7 3.5 49.8 3.6Q54.95 0.05 55.5 -5.3L54.45 -5.3L52.4 -4.8L55.5 -8L55.5 -8.2L52.9 -8.75Q45.4 -10.95 56.3 -14.55L57.55 -14.55L57.65 -9.3Q59.8 -9.15 61.55 -9.3L61.55 -8.25Q61.4 -7 59.95 -3.55L64.15 -3.55L64.25 -2.85Q64.25 -2 61.9 0.45L61.9 0.8L63.4 1L67.65 0.45L68.35 0.55Q68.35 1.95 64.7 4.65L64.7 4.75L66.35 5.35L71.05 5.85L74.5 5.5Q65.65 9.6 55.8 12.6L53.4 13.25Q45.9 15.35 37.9 16.8L27.9 16.8L21.65 16.15Q22.95 15.8 30.95 10.45L30.95 10.2Q29.05 11.25 23.3 12.2L16.45 12.8L16.2 12.8Q19.95 11.8 25.7 7.65Q30.5 4.05 32.4 1.6L31.55 1.6L24.75 2.85L23.65 2.95L27.45 -0.2Q21.3 2.45 18.45 2.4Q19.25 2.35 24.3 -0.85Q29.3 -4.25 33.2 -8.85L26.15 -7.1L25.95 -7.1Q28.75 -9 31.15 -13.75L33.1 -18.2L32.75 -17.85Q33.25 -20.6 32.25 -23.6M61,5.75Q61.95 6.4 62.8 5.75L62.95 4.7L62.95 4.55L62.8 4.4L61.55 4.2Q61 4.4 60.9 5.05L61 5.75M34.3,-1.05Q34.9 -0.45 35.9 -0.7Q37.45 -1.15 38.45 -2.25L38.2 -2.4Q37.4 -3.15 36.25 -2.65Q35.5 -2.4 34.9 -1.95Q34.3 -1.6 34.3 -1.05M37.7,11.25L37.55 11.1Q37.3 10.75 36.7 10.95Q34.5 10.55 34.2 12.25L34.25 12.3Q36.5 13.2 37.7 11.25M31.1,7.7L30.65 7.75L31.4 7.75L31.1 7.7" />
<path style="fill:#1179C2;fill-opacity:1" d="M32.75,-17.85L33.1 -18.2L31.15 -13.75Q28.75 -9 25.95 -7.1L26.15 -7.1L33.2 -8.85Q29.3 -4.25 24.3 -0.85Q19.25 2.35 18.45 2.4Q21.3 2.45 27.45 -0.2L23.65 2.95L24.75 2.85L31.55 1.6L32.4 1.6Q30.5 4.05 25.7 7.65Q19.95 11.8 16.2 12.8L16.45 12.8L23.3 12.2Q29.05 11.25 30.95 10.2L30.95 10.45Q22.95 15.8 21.65 16.15L27.9 16.8L37.9 16.8L24.65 18.7L-0.5 20.05L-1.05 20.05L-6.45 19.95L-22.3 19.05Q5.95 13.05 11.75 8.55L-0.4 9.1L-10.8 8.3L2.3 3.7L11.75 -0.25L17.95 -3.55Q19.85 -4.9 21.85 -6.05L13.1 -6.4L13.05 -6.4L18.25 -9.1Q20.95 -10.8 23.3 -12.85L27.05 -16.55L32.25 -23.6Q33.25 -20.6 32.75 -17.85M12.9,14.65L12.9 14.7L12.95 14.7L12.9 14.65" />
<path style="fill:#B8E0F0;fill-opacity:1" d="M12.95,14.7L12.9 14.7L12.9 14.65L12.95 14.7" />
<path style="fill:#BCDFE9;fill-opacity:0.498039" d="M-24.35,5.1L-23.55 4.95Q-6.35 0.6 -17.25 -8.3L-13.15 -10.05Q-8.55 -12.35 -6.2 -14.75Q-0.7 -20.7 -8.75 -26.3Q-0.3 -28.8 9.45 -33.65Q16.8 -13.7 34.45 0.6Q2.45 7.85 -24.35 5.1M-3.55,13.65Q-13.6 13.05 -23.2 11.3L-30.9 9.75Q-10.3 13.45 19.5 8.65Q30.8 6.85 39.6 4.6L46.4 9.05Q24.3 15.45 -3.55 13.65" />
<path style="fill:#F8F8F8;fill-opacity:0.2" d="M-50.85,-0.4Q-62.95 -4.4 -72.3 -10.35L-79.2 -15.65Q-79.45 -24.35 -77.55 -31.7Q-74.25 -44.55 -54.1 -51.35Q-50.95 -37.6 -45.65 -32.45Q-32.65 -19.45 -8.75 -26.3Q-0.7 -20.7 -6.2 -14.75Q-8.55 -12.35 -13.15 -10.05L-17.25 -8.3Q-6.35 0.6 -23.55 4.95L-24.35 5.1Q-38.3 3.7 -50.85 -0.4" />
<path style="fill:#1179C2;fill-opacity:0.698039" d="M-24.35,5.1Q2.45 7.85 34.45 0.6L39.6 4.6Q30.8 6.85 19.5 8.65Q-10.3 13.45 -30.9 9.75L-23.2 11.3Q-13.6 13.05 -3.55 13.65Q24.3 15.45 46.4 9.05L46.8 9.25L53.15 12.8Q31.45 18.35 4.95 18.35Q-37.85 18.35 -68.25 3.65Q-98.65 -10.95 -98.7 -31.65Q-98.85 -50.9 -72.55 -65Q-97.7 -44.85 -91.25 -30.05Q-87.7 -21.65 -79.2 -15.65L-72.3 -10.35Q-62.95 -4.4 -50.85 -0.4Q-38.3 3.7 -24.35 5.1" />
</g>
</svg>
