<?xml version="1.0" encoding="utf-8"?>
<svg version="1.1" id="Layer_1"
xmlns="http://www.w3.org/2000/svg"
xmlns:xlink="http://www.w3.org/1999/xlink"
xmlns:author="http://www.sothink.com"
width="85px" height="18px"
xml:space="preserve">
<g id="1033" transform="matrix(1, 0, 0, 1, 0, 0)">
<linearGradient
id="LinearGradID_1295" gradientUnits="userSpaceOnUse" gradientTransform="matrix(0, 0.00930786, -0.00854492, 0, 7, 8.65)" spreadMethod ="pad" x1="-819.2" y1="0" x2="819.2" y2="0" >
<stop  offset="0" style="stop-color:#FFF980;stop-opacity:1" />
<stop  offset="1" style="stop-color:#E7950A;stop-opacity:1" />
</linearGradient>
<path style="fill:url(#LinearGradID_1295) " d="M82.7,0Q84.05 0 84.45 0.95Q84.85 1.65 84.85 3.05L84.75 4.6L84.25 10.1L83.9 11.8L83.9 11.75Q83.5 12.6 82.6 12.6Q81.7 12.6 81.3 11.85L81.3 11.8L80.9 10.1L80.55 4.75L80.45 2.45Q80.45 1.35 81.1 0.7L81.1 0.65Q81.75 0 82.7 0M84.2,14.15Q84.85 14.8 84.85 15.7Q84.85 16.7 84.2 17.3Q83.55 17.85 82.65 17.85Q81.85 17.85 81.2 17.3Q80.45 16.75 80.45 15.7Q80.45 14.8 81.1 14.15L81.15 14.15Q81.75 13.55 82.65 13.55Q83.55 13.55 84.2 14.15M74.05,2.15Q74.05 2.95 73.5 3.5L73.5 3.55Q73 4 71.9 4L68.75 4L68.75 15.35Q68.75 16.65 68.2 17.25Q67.6 17.9 66.65 17.9Q65.65 17.9 65.1 17.25Q64.5 16.65 64.5 15.35L64.5 4L61.35 4Q60.25 4 59.8 3.55L59.75 3.5Q59.2 2.95 59.2 2.15Q59.2 1.25 59.85 0.8L59.85 0.75Q60.35 0.3 61.35 0.3L71.9 0.3Q73 0.3 73.5 0.8Q74.05 1.35 74.05 2.15M58.95,3.45L59.25 5.25Q59.25 7.3 58.15 8.55L58.1 8.55Q57.25 9.4 55.8 9.95L56.7 10.8L58.15 12.8L59.15 14.7L59.55 16.05L59.3 17L58.5 17.65L57.45 17.9Q56.75 17.9 56.2 17.5L55.45 16.75L54.7 15.55L54.7 15.5L53.4 13.3L52.2 11.55L51.2 10.8L49.9 10.6L49.25 10.6L49.25 15.35Q49.25 16.65 48.7 17.25Q48.1 17.9 47.1 17.9Q46.1 17.9 45.55 17.2Q44.95 16.55 44.95 15.35L44.95 2.8Q44.95 1.5 45.6 0.9Q46.15 0.3 47.5 0.3L52.85 0.3L54.8 0.4L56.4 0.8L57.9 1.85Q58.6 2.5 58.95 3.45M51.8,3.75L49.25 3.75L49.25 7.25L51.75 7.25L53.65 7.1L54.6 6.55L54.65 6.55L54.9 5.5L54.65 4.6L53.9 3.95L51.8 3.75M43,13.9L43.55 15.85Q43.55 16.65 42.95 17.25Q42.3 17.9 41.45 17.9L40.55 17.7L40.5 17.7L39.9 17.15L39.45 16.35L39.1 15.45L38.4 13.7L32.45 13.7L31.85 15.45L31.8 15.5L31 17.25Q30.55 17.9 29.5 17.9Q28.65 17.9 28.1 17.3L28.05 17.25Q27.4 16.65 27.4 15.9Q27.4 15.5 27.55 15.1L27.55 15L27.95 14.05L32.1 3.45L32.1 3.4L32.55 2.35Q32.8 1.6 33.15 1.15Q33.45 0.6 34.1 0.3L34.05 0.35Q34.6 0 35.4 0Q36.25 0 36.8 0.35L36.8 0.3L37.7 1.15L38.25 2.1L38.3 2.15L38.8 3.45L38.8 3.4L43.05 13.9L43 13.9M33.75,10.2L37.15 10.2L35.4 5.5L33.75 10.2M29.1,2.15Q29.1 2.95 28.55 3.5L28.55 3.55Q28.05 4 26.95 4L23.8 4L23.8 15.35Q23.8 16.65 23.25 17.25Q22.65 17.9 21.7 17.9Q20.7 17.9 20.15 17.25Q19.55 16.65 19.55 15.35L19.55 4L16.4 4Q15.3 4 14.85 3.55L14.8 3.5Q14.25 2.95 14.25 2.15Q14.25 1.25 14.9 0.8L14.9 0.75Q15.4 0.3 16.4 0.3L26.95 0.3Q28.05 0.3 28.55 0.8Q29.1 1.35 29.1 2.15M11.75,1.5L12.9 2.95Q13.25 3.75 13.25 4.5Q13.25 5.2 12.75 5.85L12.75 5.9Q12.2 6.5 11.3 6.5Q10.55 6.5 10.15 6.15L10.1 6.1L9.35 5.05L8.4 3.75L8.45 3.75L6.75 3.35Q5.65 3.35 5 3.8Q4.4 4.2 4.4 4.75L4.55 5.3L5.15 5.75L5.2 5.8L5.95 6.1L6 6.15L7.55 6.6L7.5 6.55L10.1 7.3Q11.3 7.7 12.15 8.3Q13 8.9 13.5 9.9Q14 10.8 14 12.2Q14 13.85 13.2 15.15Q12.3 16.45 10.7 17.15Q9.1 17.9 7 17.9Q4.45 17.9 2.75 16.9Q1.55 16.15 0.8 15Q0 13.75 0 12.6Q0 11.8 0.6 11.25L0.6 11.2Q1.15 10.6 2 10.6Q2.7 10.6 3.25 11.1L4 12.3L4.6 13.45L4.6 13.5L5.45 14.15L6.9 14.45Q8.2 14.45 9 13.85Q9.7 13.35 9.7 12.55L9.4 11.6L8.3 10.95L6.25 10.4Q4.45 10 3.2 9.4Q1.85 8.8 1.15 7.75Q0.35 6.65 0.35 5.05Q0.35 3.55 1.15 2.4L1.15 2.35Q2 1.2 3.55 0.6Q5 0 6.95 0L9.75 0.45L9.7 0.45Q10.9 0.8 11.7 1.45L11.75 1.5" />
<path style="fill:#FFFFFF;fill-opacity:1" d="M82.6,2.8Q82.2 2.85 81.95 2.4Q81.35 1.2 82.55 0.8Q85.25 2.35 82.6 2.8M83.9,15.4Q84.3 15.85 82.85 15.6Q82.6 15.55 82.75 15.25L82.6 15.2L82.45 15.05Q82.4 14.85 82.6 14.55Q82.75 14.3 83 14.3L83.1 14.35L83.35 14.3Q84.3 15 84.2 15.25Q84.25 15.4 83.9 15.4M72.7,2.4Q70.05 3.6 69.95 1.7Q69.9 0.95 70.7 0.95Q73 0.5 72.7 2.3L72.7 2.4M46.25,2.25Q46.3 1.45 47 1.3Q49.55 2.35 46.9 2.95Q46.15 3.1 46.25 2.25M55.35,1.65Q59.3 2.4 56.8 4.15Q56.2 4.6 55.6 4Q54.15 2.65 55.35 1.65M60.55,1.45Q60.8 1.1 61.2 1Q63.9 2.1 60.65 1.9Q60.25 1.9 60.55 1.45M25.9,0.95Q29.65 1.45 26.5 2.2Q24.95 2.55 25.4 1.3Q25.55 0.95 25.9 0.95M35.3,1.4Q38 2.35 35.8 3.45Q35.35 3.65 35 3.1Q34.3 1.95 35.3 1.4M3,2.8Q2.85 2.85 3.05 2.6Q3.95 1.3 5.7 1Q10.05 0.3 10.5 3.25Q10.5 3.45 10.1 3.25Q6.65 1.45 3 2.8M15.6,2Q15.1 2 15.4 1.45Q15.6 1 16.05 0.95Q19.15 2.05 15.6 2" />
</g>
</svg>
