<?xml version="1.0" encoding="utf-8"?>
<svg version="1.1" id="Layer_1"
xmlns="http://www.w3.org/2000/svg"
xmlns:xlink="http://www.w3.org/1999/xlink"
xmlns:author="http://www.sothink.com"
width="15px" height="13px"
xml:space="preserve">
<g id="1455" transform="matrix(1, 0, 0, 1, 0, 0)">
<path style="fill:#3C2C22;fill-opacity:1" d="M11.5,4.6L12.1 4.95L11.45 4.6L11.5 4.6" />
<path style="fill:#434242;fill-opacity:1" d="M11.45,4.6L12.1 4.95L11.5 4.6L11.45 4.6M1.3,1.55L6.9 1.7Q9.45 2.95 10.8 3.95L12.25 5.05L12.4 5.25L11.95 5.05L11.7 4.95L11.35 5L11 5L10.35 4.55L8.85 3.9L8.45 4.1L8.05 4.4L8.05 3.8L8.25 3.15Q8.25 3 6.9 2.5L5.05 1.9L4.15 1.9L4.05 2.5L3 2.1L2.2 2.1Q1.8 2.1 1.15 2.6L1 2.75Q0.95 1.9 1.3 1.55" />
<path style="fill:#252525;fill-opacity:1" d="M13.4,8.2Q13.4 9.7 12.7 10.6Q12 11.45 9.95 11.05Q7.9 10.6 5.8 9.45Q3.55 8.35 2.45 6.85Q1.5 5.6 1.2 4.3L1.05 3.7L1 2.75L1.15 2.6Q1.8 2.1 2.2 2.1L3 2.1L4.05 2.5L4.15 1.9L5.05 1.9L6.9 2.5Q8.25 3 8.25 3.15L8.05 3.8L8.05 4.4L8.45 4.1L8.85 3.9L10.35 4.55L11 5L11.35 5L11.7 4.95L11.95 5.05Q13.4 6.75 13.4 8.2" />
<path style="fill:#000000;fill-opacity:1" d="M1,2.75L1.05 3.7L1.2 4.3Q1.5 5.6 2.45 6.85Q3.55 8.35 5.8 9.45Q7.9 10.6 9.95 11.05Q12 11.45 12.7 10.6Q13.4 9.7 13.4 8.2Q13.4 6.75 11.95 5.05L12.4 5.25L12.25 5.05L10.8 3.95Q9.45 2.95 6.9 1.7L1.3 1.55Q0.95 1.9 1 2.75M11.75,12.15L9.1 11.8L7 11.1L4.5 9.9Q3.15 9.15 2.15 8.05Q1.15 6.9 0.55 5.5L0.5 5.3L0.2 4.35Q-0.05 3.45 0.05 2.5L0.05 2.3Q0.15 0.85 0.6 0.6Q1.1 0.3 1.85 0.15L4.2 0.05Q5.85 0.1 8.3 1.25Q10.25 2.15 11.25 3.1Q15.45 6.5 14.45 9.35Q13.45 12.2 11.75 12.15" />
</g>
</svg>
