<?xml version="1.0" encoding="utf-8"?>
<svg version="1.1" id="Layer_1"
xmlns="http://www.w3.org/2000/svg"
xmlns:xlink="http://www.w3.org/1999/xlink"
xmlns:author="http://www.sothink.com"
width="30px" height="24px"
xml:space="preserve">
<g id="1434" transform="matrix(1, 0, 0, 1, 1.75, 5)">
<path style="fill:#9A330C;fill-opacity:1" d="M21.45,3.45Q19.95 1.25 18.35 -0.05Q14.35 -3.4 12.45 -3.75Q10.25 -4.25 9.5 -1.75L9.3 -1.05L9.2 -0.7Q8.95 1 9.85 2.1L8.1 2.15Q7.55 1.4 7.65 -0.1L7.75 -1.25Q8.25 -3.35 9.15 -4.2Q10 -5.1 11.7 -5Q13.35 -4.95 15.55 -3.75Q17.7 -2.6 21.05 1.2Q24.35 4.95 25.15 8.7L24.05 8.6L22 4.35L21.45 3.45" />
<path style="fill:#BF6F21;fill-opacity:1" d="M10.6,0.8L11.9 0.6L14.55 0.85Q17.75 1.75 19.3 3.15L21.1 4.55L22 4.35L24.05 8.6Q23.3 8.65 22.9 9.05Q19.2 4.5 13.6 2.45L9.85 2.1Q8.95 1 9.2 -0.7L9.3 -1.05L9.45 -0.75Q10.05 0.65 10.6 0.8" />
<path style="fill:#D49E36;fill-opacity:1" d="M22,4.35L21.1 4.55L19.3 3.15Q17.75 1.75 14.55 0.85L11.9 0.6L10.6 0.8Q10.05 0.65 9.45 -0.75L10.35 -1.2L14.3 -1.35L15.95 -0.9L18.4 0.75L21.05 3.1L21.45 3.45L22 4.35" />
<path style="fill:#F0D86A;fill-opacity:1" d="M9.5,-1.75Q10.25 -4.25 12.45 -3.75Q14.35 -3.4 18.35 -0.05Q19.95 1.25 21.45 3.45L21.05 3.1L18.4 0.75L15.95 -0.9L14.3 -1.35L10.35 -1.2L9.45 -0.75L9.3 -1.05L9.5 -1.75" />
<path style="fill:#9A330C;fill-opacity:1" d="M18.85,5.35Q16.25 3.7 13.25 2.9L7.95 2.65Q5.6 3.25 5.45 4.3L5.3 5.55L5.35 5.95Q5.4 7.05 6.25 7.5L4.95 7.9L4.15 7.05L3.9 6.4L3.8 5.25Q3.75 4.05 4.35 3.2Q5.25 1.95 7.4 1.55L8.7 1.35Q12.7 1 17.15 3Q21.85 5.1 25.15 8.75L23.25 8.95Q21.5 7.15 19.75 5.9L18.85 5.35" />
<path style="fill:#BF6F21;fill-opacity:1" d="M5.35,5.95L5.5 5.8L6.6 6.55L7.7 6.1Q8.9 5.6 10.2 5.5L15.85 5.8L18.4 6.35L19.75 5.9Q21.5 7.15 23.25 8.95L23.2 9Q22.05 9.2 21.35 9.65Q15.9 6.9 9.45 6.9L6.25 7.5Q5.4 7.05 5.35 5.95" />
<path style="fill:#D49E36;fill-opacity:1" d="M19.75,5.9L18.4 6.35L15.85 5.8L10.2 5.5Q8.9 5.6 7.7 6.1L6.6 6.55L5.5 5.8L6.1 5.3Q7.8 4.1 9.65 3.95L11.4 3.75L14.5 4.15Q15.4 4.2 18.25 5.15L18.85 5.35L19.75 5.9" />
<path style="fill:#E7CB4C;fill-opacity:1" d="M5.5,5.8L5.35 5.95L5.3 5.55L5.45 4.3Q5.6 3.25 7.95 2.65L13.25 2.9Q16.25 3.7 18.85 5.35L18.25 5.15Q15.4 4.2 14.5 4.15L11.4 3.75L9.65 3.95Q7.8 4.1 6.1 5.3L5.5 5.8" />
<path style="fill:#BF7A24;fill-opacity:1" d="M21.1,13L21.2 13.15L21.1 13.4L21.1 13" />
<path style="fill:#FCDC73;fill-opacity:1" d="M21.1,13L21.15 12.45L21.45 11.65Q22.3 9.75 24.45 10.1Q26.5 10.4 26.9 11.95Q26.35 11.65 25.45 11.55L24.65 11.55L24.75 11.8Q24.75 12.45 24 12.45L23.45 12.4Q23.2 12.25 23.35 11.75Q22.25 11.7 21.6 12.45L21.2 13.15L21.1 13" />
<path style="fill:#512A70;fill-opacity:1" d="M17.9,13.05L7.35 13.35Q4.2 12.85 3 12.35Q2.3 12.05 2.35 11.75L2.6 11.15L3.2 10.45L3.4 10.65L4.3 11.3L4.6 11.4L8.5 12.05L16 11.25Q19.1 10.65 20.25 9.85L20.55 10.05L20.7 10.15L20.4 10.55Q19.85 11.4 19.9 12.65L17.9 13.05M17.15,16.45Q13.4 17.7 9.1 16.65Q4.7 15.55 2.4 13.65L2.75 13.75L3.3 13.9L4.9 14.7Q6.15 15.3 8.05 15.75L12.95 16.15Q15.95 16.15 20.1 14.35L20.45 15.4L17.15 16.45" />
<path style="fill:#7E52A1;fill-opacity:1" d="M19.95,13.65L20.05 14.2L20.1 14.35Q15.95 16.15 12.95 16.15L8.05 15.75Q6.15 15.3 4.9 14.7L3.3 13.9Q8.8 15.5 15.9 14.4L19.95 13.65M20.25,9.85Q19.1 10.65 16 11.25L8.5 12.05L4.6 11.4L4.3 11.3L5.3 10.75L7.55 10.05L7.95 10.35Q8.25 10.65 8.85 10.65L10.55 10.35Q11.45 10 11.45 9.5L11.15 8.95L12.4 8.7L15.35 8.45L17.7 8.55Q18.95 9.1 20.25 9.85" />
<path style="fill:#AF87CD;fill-opacity:1" d="M3.4,10.65L3.5 10.55Q5.8 9.15 7.85 8.65L8 9.2L8.65 9.25Q9.25 9.25 9.75 8.9Q10.25 8.5 10.25 7.95L12 7.8L13.7 7.65L15.5 7.7L17.7 8.55L15.35 8.45L12.4 8.7L11.15 8.95L11.45 9.5Q11.45 10 10.55 10.35L8.85 10.65Q8.25 10.65 7.95 10.35L7.55 10.05L5.3 10.75L4.3 11.3L3.4 10.65" />
<path style="fill:#DCBDF3;fill-opacity:1" d="M3.2,10.45L4.6 9.2Q7.1 7.25 10.65 7.05Q12.95 6.9 15.5 7.7L13.7 7.65L12 7.8L10.25 7.95Q10.25 8.5 9.75 8.9Q9.25 9.25 8.65 9.25L8 9.2L7.85 8.65Q5.8 9.15 3.5 10.55L3.4 10.65L3.2 10.45" />
<path style="fill:#2C1335;fill-opacity:1" d="M15.9,14.4Q8.8 15.5 3.3 13.9L2.75 13.75L2.4 13.65Q4.7 15.55 9.1 16.65Q13.4 17.7 17.15 16.45L20.45 15.4L20.95 16.1Q13.15 20.85 4.4 16.45Q1.55 15 0.55 13.75Q-0.25 12.75 0.1 11.85Q1.05 9.3 7.15 6.2L8.3 5.9L11.15 5.55Q16.9 6.1 21.75 9.3L20.7 10.15L20.55 10.05L20.25 9.85Q18.95 9.1 17.7 8.55L15.5 7.7Q12.95 6.9 10.65 7.05Q7.1 7.25 4.6 9.2L3.2 10.45L2.6 11.15L2.35 11.75Q2.3 12.05 3 12.35Q4.2 12.85 7.35 13.35L17.9 13.05L19.9 12.65L19.95 13.65L15.9 14.4" />
<path style="fill:#9A330C;fill-opacity:1" d="M20.45,15.4L20.1 14.35L20.05 14.2L19.95 13.65L19.9 12.65Q19.85 11.4 20.4 10.55L20.7 10.15L21.75 9.3L23.4 8.8L23.45 8.8L25.15 8.75Q27.45 9.35 28 11.65Q28.55 13.9 27.6 15.4Q26.6 16.9 24.55 17.15Q22.55 17.35 20.95 16.1L20.45 15.4M21.1,13.4L21.15 13.7Q21.25 14.45 21.6 14.8L22.2 15.4L23.05 15.8Q23.7 16 24.7 15.8L26.45 14.65L27 13.1L26.9 12.05L26.9 11.95Q26.5 10.4 24.45 10.1Q22.3 9.75 21.45 11.65L21.15 12.45L21.1 13L21.1 13.4" />
<path style="fill:#BF6F21;fill-opacity:1" d="M26.45,14.65L24.7 15.8Q23.7 16 23.05 15.8L22.2 15.4L21.6 14.8Q21.25 14.45 21.15 13.7L21.1 13.4L21.2 13.15L21.45 13.45Q22.5 14.55 23.85 14.55Q25.6 14.55 26.75 13.35L27 13.1L26.45 14.65" />
<path style="fill:#D49E36;fill-opacity:1" d="M26.9,12.05L27 13.1L26.75 13.35Q25.6 14.55 23.85 14.55Q22.5 14.55 21.45 13.45L21.2 13.15L21.6 12.45Q22.25 11.7 23.35 11.75Q23.2 12.25 23.45 12.4L24 12.45Q24.75 12.45 24.75 11.8L24.65 11.55L25.45 11.55Q26.35 11.65 26.9 11.95L26.9 12.05" />
<path style="fill:#3E3A2F;fill-opacity:1" d="M13.1,7.1L13.15 7.25L13.15 7.3L13.3 7.55L13.3 7.6Q13.75 9.55 13.05 10.8Q12.25 12.15 10.95 12.8L10.85 12.85L8.15 13.4L7.85 13.35L6.2 13.05Q5.15 12.65 4.1 11.95L4 11.9L3.2 11.3Q0.05 9 -1 5.65Q-1.8 3.25 -1.75 1.55L-1.5 0.2L-0.65 -2.2L-0.1 -2.7L0.1 -2.6L2 0.15Q3.6 2.65 7.1 4.4Q7.85 4.8 8.35 4.75L9.8 5.15L11.05 5.4Q12.2 5.6 12.8 6.55L13.1 7.1M0.6,6.95L2.05 8.8L3.85 10.35L4.6 10.95L5.9 11.75L6.5 12.05L7.4 12.35L8.15 12.4L8.9 12.25L10.3 11.85L11.95 10.5Q12.55 9.45 12.25 7.85L12.2 7.8L11.8 7L11.65 6.85Q10.9 6.15 9.3 5.9L9.15 5.9Q6.55 5.55 4.35 4Q2.15 2.5 0 -0.85L-0.15 -0.5Q-0.9 1.75 -0.45 3.75Q0 5.95 0.6 6.95" />
<path style="fill:#FFFCEE;fill-opacity:1" d="M11.8,7L10.05 6.65Q6.75 6.35 5.4 5.75Q4 5.05 3.05 4.2Q2.1 3.4 1.1 2Q0.65 2.95 0.7 4L0.65 3.95Q-0.1 2.65 -0.15 -0.5L0 -0.85Q2.15 2.5 4.35 4Q6.55 5.55 9.15 5.9L9.3 5.9Q10.9 6.15 11.65 6.85L11.8 7" />
<path style="fill:#9D8E79;fill-opacity:1" d="M12.25,7.85Q12.55 9.45 11.95 10.5L10.3 11.85L8.9 12.25Q5.9 11.3 3.65 9.25L1.2 6.4L-0.45 3.75Q-0.9 1.75 -0.15 -0.5Q-0.1 2.65 0.65 3.95L0.7 4Q2.55 7.2 6.2 8.55L11.05 8.8L12.2 7.8L12.25 7.85" />
<path style="fill:#F0EAC6;fill-opacity:1" d="M1.1,2Q2.1 3.4 3.05 4.2Q4 5.05 5.4 5.75Q6.75 6.35 10.05 6.65L11.8 7L12.2 7.8L11.05 8.8L6.2 8.55Q2.55 7.2 0.7 4Q0.65 2.95 1.1 2M-0.45,3.75L1.2 6.4L3.65 9.25Q5.9 11.3 8.9 12.25L8.15 12.4L7.4 12.35L6.5 12.05L5.9 11.75L4.6 10.95L3.85 10.35L2.05 8.8L0.6 6.95Q0 5.95 -0.45 3.75" />
</g>
</svg>
