<?xml version="1.0" encoding="utf-8"?>
<svg version="1.1" id="Layer_1"
xmlns="http://www.w3.org/2000/svg"
xmlns:xlink="http://www.w3.org/1999/xlink"
xmlns:author="http://www.sothink.com"
width="29px" height="41px"
xml:space="preserve">
<g id="631" transform="matrix(1, 0, 0, 1, 0, 0)">
<path style="fill:#1E1415;fill-opacity:1" d="M20.2,7.15L20.4 10.1Q20.45 10.95 19.75 11Q18.85 11.1 18 10.45Q16.95 9.55 15.65 9.2L14.95 8.95L13.85 8.65Q13.4 8.6 13.5 11.2Q13.55 13.8 11.95 13.9Q11.75 14.65 13.05 19.45Q14.35 24.2 17.45 31.65Q20.55 39.1 21.5 38.35Q22.4 37.55 22.35 38.1Q20.45 39.15 18 38.55L17.35 38Q16.8 37.45 15.1 34.3Q13.4 31.1 11.25 24.25Q9.1 17.4 8.2 15.65Q7.15 18.1 6.85 17.65L5.6 16.4Q5.9 16.85 5.55 17.2L4.55 17.05Q1.7 12.15 2 7.6Q2.15 4.75 4.05 3.35Q5.35 2.35 7.55 2.05Q12.8 1.25 16.9 4.05Q18.7 5.4 20.2 7.1L20.2 7.15" />
<path style="fill:#3F3437;fill-opacity:1" d="M22.8,22.15Q22.95 22.65 23.25 22.75Q25.55 23.5 25.05 20.5Q24.3 15.5 21.15 12.4Q20.35 12.7 20.55 13.55Q21.35 17.7 22.8 22.15M17.35,38.35L17.3 38.35L16.3 37.95L15.9 37.75Q11.4 35.5 9.7 28.5Q7.9 22.65 4.8 17.5L4.55 17.05L5.55 17.2Q5.9 16.85 5.6 16.4L6.85 17.65Q7.15 18.1 8.2 15.65Q9.1 17.4 11.25 24.25Q13.4 31.1 15.1 34.3Q16.8 37.45 17.35 38L18 38.55L17.35 38.35M22.35,38.1Q22.4 37.55 21.5 38.35Q20.55 39.1 17.45 31.65Q14.35 24.2 13.05 19.45Q11.75 14.65 11.95 13.9Q13.55 13.8 13.5 11.2Q13.4 8.6 13.85 8.65L14.95 8.95L15.65 9.2Q16.95 9.55 18 10.45Q18.85 11.1 19.75 11Q20.45 10.95 20.4 10.1L20.2 7.15L20.2 7.1Q21.95 9.1 23.25 11.55Q26.5 17.65 27.15 26.65Q28.4 34.2 24.4 37.1L24.05 37.35L22.35 38.1" />
<path style="fill:#101010;fill-opacity:1" d="M24.85,11.6Q26.85 15.8 28.1 23.1Q29.15 29.4 28.05 33.65Q27.45 35.85 25.95 37.3L24.4 38.55L22.5 39.4L21.1 39.8L19.05 40.05Q16.75 40 14.85 38.75Q11.55 36.6 10.5 34.55Q9.4 32.45 8.75 30.05L7.5 26.05Q6.9 24.5 5.1 21.3L2.15 16.15L1.7 15.4Q0.25 12.9 0 9.4Q-0.25 5.85 2.2 2.95L2.9 2.25Q5.3 0.05 9.75 0Q14.75 -0.05 18.8 3.65L19.9 4.7L22.5 7.7Q23.9 9.55 24.85 11.6M18,38.55Q20.45 39.15 22.35 38.1L24.05 37.35L24.4 37.1Q28.4 34.2 27.15 26.65Q26.5 17.65 23.25 11.55Q21.95 9.1 20.2 7.1Q18.7 5.4 16.9 4.05Q12.8 1.25 7.55 2.05Q5.35 2.35 4.05 3.35Q2.15 4.75 2 7.6Q1.7 12.15 4.55 17.05L4.8 17.5Q7.9 22.65 9.7 28.5Q11.4 35.5 15.9 37.75L16.3 37.95L17.3 38.35L17.35 38.35L18 38.55" />
<path style="fill:#695F62;fill-opacity:1" d="M20.55,13.55Q20.35 12.7 21.15 12.4Q24.3 15.5 25.05 20.5Q25.55 23.5 23.25 22.75Q22.95 22.65 22.8 22.15Q21.35 17.7 20.55 13.55" />
</g>
</svg>
