<?xml version="1.0" encoding="utf-8"?>
<svg version="1.1" id="Layer_1"
xmlns="http://www.w3.org/2000/svg"
xmlns:xlink="http://www.w3.org/1999/xlink"
xmlns:author="http://www.sothink.com"
width="13px" height="12px"
xml:space="preserve">
<g id="1764" transform="matrix(1, 0, 0, 1, 0, -0.6)">
<path style="fill:#5F6D77;fill-opacity:1" d="M8.55,3.9L8.5 3.35L8.65 3.25L9.6 3.75Q10.45 3.85 11.3 4.75L11.5 5.4L11.65 5.9L11.4 5.9Q10.25 5.9 9.1 5.1L8.9 4.95L8.55 3.9M10.5,8.95Q9.1 8.95 7.7 8L6.55 7L6.45 6.55L6.45 5.85L6.7 5.7Q7.2 5.7 8.4 7.45Q9.35 8.4 10.65 8.65L10.55 8.95L10.5 8.95M1.05,4.2L1.5 3.75L2.55 3.25Q4 2.7 5.4 2.7L7.55 2.9L7.55 2.95L7.6 4.2Q6.85 3.6 6 4.2L5.7 4.7L5.55 5.2L5.5 5.5L5.4 5.45L4.35 4.55Q3.3 3.95 2.15 3.95L1.15 4.15L1.05 4.2M6.8,9.75Q5.45 9.2 4.9 8.4L4.9 8.15L5 7.65L5.65 7.7L5.95 7.75Q6.4 8.8 7.35 9.55L8.1 10.2L6.8 9.75" />
<path style="fill:#37414A;fill-opacity:1" d="M11.4,6.65Q10.75 7 9.8 6.15L8.9 4.95L9.1 5.1Q10.25 5.9 11.4 5.9L11.65 5.9Q11.75 6.55 11.4 6.65M6.55,7L7.7 8Q9.1 8.95 10.5 8.95L10.55 8.95L10.3 9.3L9.9 9.5Q9.25 9.6 7.95 8.85Q6.8 8.2 6.55 7M1.15,4.15L2.15 3.95Q3.3 3.95 4.35 4.55L5.4 5.45L5.5 5.5L5.55 6.6L4.45 6.75L4.35 6.8Q3.9 4.65 1 4.25L1.05 4.2L1.15 4.15M8.1,10.2L8.4 10.45Q8.65 10.7 7.7 11.05Q6.65 11.35 5.6 10.35Q4.8 9.65 4.85 8.6L4.9 8.4Q5.45 9.2 6.8 9.75L8.1 10.2" />
<path style="fill:#1F2C31;fill-opacity:1" d="M8.65,3.25L8.5 3.35L8.55 3.9L8.9 4.95L9.8 6.15Q10.75 7 11.4 6.65Q11.75 6.55 11.65 5.9L11.5 5.4L11.3 4.75L11 4.05L10.65 3.55L9.7 3.05Q9.05 2.9 8.65 3.25M10.5,8Q8.65 7.15 7.6 5.15Q6.75 4.35 6.45 5.45L6.45 5.85L6.45 6.55L6.55 7Q6.8 8.2 7.95 8.85Q9.25 9.6 9.9 9.5L10.3 9.3L10.55 8.95L10.65 8.65L10.5 8M11.55,8.8L11.3 9.55Q10.5 10.4 9.65 10.5L9.6 10.55Q8.6 12.4 6.4 11.75Q3.85 10.95 3.85 8.1L3.95 7.45Q3.45 6.55 2.5 6L0 4.9Q0.1 4.05 0.7 3.25Q1.25 2.45 2.25 1.8L3.55 1.05L5.35 0.7L8.75 1Q10.6 1.55 11.85 3.5Q13.05 5.4 12.8 6.65Q12.45 7.9 11.55 8.05L11.55 8.75L11.55 8.8M1.05,4.2L1 4.25Q3.9 4.65 4.35 6.8L4.45 6.75L5.55 6.6L5.5 5.5L5.55 5.2L5.7 4.7L6 4.2Q6.85 3.6 7.6 4.2L7.55 2.95L7.55 2.9Q7.65 2.5 7.85 2.45L8.35 2.05L6.6 1.65Q3.85 1.2 1.5 3.75L1.05 4.2M4.85,8.6Q4.8 9.65 5.6 10.35Q6.65 11.35 7.7 11.05Q8.65 10.7 8.4 10.45L8.1 10.2L7.35 9.55Q6.4 8.8 5.95 7.75L5.65 7.7L5 7.65L4.9 8.15L4.9 8.4L4.85 8.6" />
<path style="fill:#929896;fill-opacity:1" d="M9.7,3.05L10.65 3.55L11 4.05L11.3 4.75Q10.45 3.85 9.6 3.75L8.65 3.25Q9.05 2.9 9.7 3.05M10.65,8.65Q9.35 8.4 8.4 7.45Q7.2 5.7 6.7 5.7L6.45 5.85L6.45 5.45Q6.75 4.35 7.6 5.15Q8.65 7.15 10.5 8L10.65 8.65M5.4,2.7Q4 2.7 2.55 3.25L1.5 3.75Q3.85 1.2 6.6 1.65L8.35 2.05L7.85 2.45Q7.65 2.5 7.55 2.9L5.4 2.7" />
</g>
</svg>
