<?xml version="1.0" encoding="utf-8"?>
<svg version="1.1" id="Layer_1"
xmlns="http://www.w3.org/2000/svg"
xmlns:xlink="http://www.w3.org/1999/xlink"
xmlns:author="http://www.sothink.com"
width="13px" height="21px"
xml:space="preserve">
<g id="2698" transform="matrix(1, 0, 0, 1, -39.25, 3.35)">
<path style="fill:#FFFFFF;fill-opacity:1" d="M44.3,-1.85Q44.3 -0.1 42.35 1.75L42.2 1.75Q42.75 0 43.85 -1.6Q42.35 -0.75 40.95 0.4L40.8 0.35Q42.4 -2.1 45.5 -3.1L45.85 -3.25L46.4 -3.2L46.25 -3.35L46.35 -3.35Q49.75 -1.05 51.7 2.8L51.75 2.7L51.75 2.85L51.85 3.05L51.85 3.1L51.75 3Q51.5 6.1 50.25 9.5L50.2 9.5Q49.95 6.05 51.65 2.9L46.5 -3.05L46.55 -2.9L46.55 -2.8L44.3 -1.85M47.2,6L48.3 15L48.55 15.9L48.6 15.95L48.95 15.55Q48.65 13.15 49.95 11.1L50.1 10.95Q50.25 12.2 49.9 14.05L49.9 14.5L49.85 15.5L50.15 15.65Q49.05 17.75 47.85 16.5Q47.05 16.45 46.95 14.85Q46.9 13.25 46.2 11.75L45.85 4.4L43.55 3.1L39.35 1.6Q39.1 1.5 39.5 1.45L42.85 1.95Q44.55 2 45.8 2.8Q47.05 3.3 47.15 4.25L47.2 6" />
</g>
</svg>
