<?xml version="1.0" encoding="utf-8"?>
<svg version="1.1" id="Layer_1"
xmlns="http://www.w3.org/2000/svg"
xmlns:xlink="http://www.w3.org/1999/xlink"
xmlns:author="http://www.sothink.com"
width="82px" height="49px"
xml:space="preserve">
<g id="1535" transform="matrix(1, 0, 0, 1, -17.65, -13.2)">
<path style="fill:#F7E3CC;fill-opacity:1" d="M99.6,51L17.65 51L17.65 13.2L99.6 13.2L99.6 51" />
<path style="fill:#680B01;fill-opacity:1" d="M82.45,21.05L82.45 27.4L85.6 27.4L85.6 28.75L81.05 28.75L81.05 21.05L82.45 21.05M83.6,36.2Q84.05 37.05 84.05 38.25Q84.05 39.45 83.6 40.3L82.25 41.65L80.3 42.1L77.4 42.1L77.4 34.4L80.3 34.4L82.25 34.85Q83.1 35.3 83.6 36.2M88.95,33.85L88.75 39.9L87.8 39.9L87.6 33.85L88.95 33.85M82.55,38.25Q82.55 37.1 81.95 36.4Q81.4 35.75 80.3 35.75L78.8 35.75L78.8 40.75L80.3 40.75Q81.4 40.75 81.95 40.1Q82.55 39.4 82.55 38.25M88.95,42.1L87.6 42.1L87.6 40.75L88.95 40.75L88.95 42.1M64,21.5L63.85 22.95L62.7 22.4L61.6 22.25L61 22.3Q60.65 22.35 60.45 22.55L60.2 23.05L60.4 23.55L61 23.9L61.75 24.15L62.65 24.45L63.55 24.9L64.15 25.6L64.4 26.65L64.3 27.4L63.9 28.1L63 28.7L61.45 28.9L59.9 28.75L58.9 28.35L59.05 26.75Q59.35 27.05 60 27.3L61.45 27.55L62.45 27.35Q62.85 27.2 62.85 26.7L62.6 26.1L61.95 25.65L61.05 25.35L59.95 24.95L59.1 24.3Q58.8 23.9 58.75 23.2L58.9 22.4L59.4 21.65L60.25 21.1L61.55 20.9L62.55 21L63.45 21.2L64 21.5M69.95,21.05L71.55 21.05L68.85 24.7L71.55 28.75L69.95 28.75L67.3 24.7L69.95 21.05M67,21.05L67 28.75L65.6 28.75L65.6 21.05L67 21.05M76.95,21.05L76.95 27.4L80.1 27.4L80.1 28.75L75.55 28.75L75.55 21.05L76.95 21.05M73.85,21.05L73.85 28.75L72.45 28.75L72.45 21.05L73.85 21.05M46.85,21.05L48.4 26.5L50.15 21.05L51.1 21.05L52.9 26.35L54.35 21.05L55.85 21.05L53.55 28.75L52.35 28.75L50.6 23.6L48.9 28.75L47.6 28.75L45.4 21.05L46.85 21.05M44.8,22.4L41.35 22.4L41.35 24.05L44.05 24.05L44.05 25.4L41.35 25.4L41.35 27.4L44.95 27.4L44.95 28.75L39.9 28.75L39.9 21.05L44.8 21.05L44.8 22.4M52.6,35.6Q51.85 35.6 51.35 35.95L50.6 36.85Q50.35 37.45 50.35 38.25Q50.35 39.05 50.6 39.6L51.35 40.55Q51.85 40.9 52.6 40.9L53.85 40.55L54.6 39.6L54.85 38.25L54.6 36.85L53.85 35.95L52.6 35.6M54.55,34.75Q55.4 35.25 55.9 36.15Q56.35 37.05 56.4 38.25Q56.35 39.45 55.9 40.35Q55.4 41.25 54.55 41.75L52.6 42.25Q51.45 42.25 50.6 41.75Q49.75 41.25 49.3 40.35Q48.8 39.45 48.8 38.25Q48.8 37.05 49.3 36.15Q49.75 35.25 50.6 34.75Q51.45 34.25 52.6 34.25Q53.7 34.25 54.55 34.75M58.95,34.75Q59.8 34.25 60.95 34.25L62.1 34.35L63.1 34.7L62.95 36.05L62 35.7L60.95 35.6Q60.2 35.6 59.7 35.95L58.95 36.85Q58.7 37.45 58.7 38.25Q58.7 39.05 58.95 39.6L59.7 40.55Q60.2 40.9 60.95 40.9L62 40.8L62.95 40.45L63.1 41.8L62.1 42.15L60.95 42.25Q59.8 42.25 58.95 41.75Q58.1 41.25 57.65 40.35Q57.15 39.45 57.15 38.25Q57.15 37.05 57.65 36.15Q58.1 35.25 58.95 34.75M45.3,34.4L45.3 40.75L48.45 40.75L48.45 42.1L43.9 42.1L43.9 34.4L45.3 34.4M42.2,34.4L42.2 42.1L41 42.1L37.5 36.8L37.5 42.1L36.1 42.1L36.1 34.4L37.5 34.4L40.75 39.35L40.75 34.4L42.2 34.4M76.05,35.75L72.6 35.75L72.6 37.4L75.3 37.4L75.3 38.75L72.6 38.75L72.6 40.75L76.2 40.75L76.2 42.1L71.15 42.1L71.15 34.4L76.05 34.4L76.05 35.75M65.7,34.4L65.7 42.1L64.3 42.1L64.3 34.4L65.7 34.4M70.25,34.4L67.55 38.05L70.25 42.1L68.65 42.1L66 38.05L68.65 34.4L70.25 34.4M38.2,21.05L38.2 28.75L37 28.75L33.5 23.45L33.5 28.75L32.1 28.75L32.1 21.05L33.5 21.05L36.75 26L36.75 21.05L38.2 21.05M34.5,34.4L34.5 38.8Q34.5 39.85 34.15 40.6Q33.8 41.4 33.1 41.85Q32.4 42.25 31.3 42.25L29.5 41.85Q28.8 41.4 28.45 40.6Q28.1 39.85 28.1 38.8L28.1 34.4L29.5 34.4L29.5 38.35L29.65 39.65L30.2 40.55Q30.55 40.9 31.3 40.9Q32.05 40.9 32.4 40.55L32.95 39.65L33.1 38.35L33.1 34.4L34.5 34.4" />
<path style="fill:#F7E3CC;fill-opacity:1" d="M58.75,61.75L53.1 50.7L64.35 50.7L58.75 61.75" />
</g>
</svg>
