<?xml version="1.0" encoding="utf-8"?>
<svg version="1.1" id="Layer_1"
xmlns="http://www.w3.org/2000/svg"
xmlns:xlink="http://www.w3.org/1999/xlink"
xmlns:author="http://www.sothink.com"
width="131px" height="20px"
xml:space="preserve">
<g id="1083" transform="matrix(1, 0, 0, 1, -58.85, -6.55)">
<path style="fill:#EEBE23;fill-opacity:1" d="M177.75,16.2L184.9 16.2L183.65 18.1L183.65 23.75Q183.65 25.2 183.05 25.85L183 25.85Q182.3 26.55 181.3 26.55Q180.2 26.55 179.6 25.85Q178.95 25.2 178.95 23.75L178.95 18.1L177.75 16.2M157.3,16.3L171.8 16.25Q170.85 17.15 169.3 17.65L170.4 18.65L170.4 18.7L172 20.9L173.15 23.05L173.2 23.1L173.6 24.55L173.25 25.6L173.3 25.55L172.45 26.3L171.3 26.55L170 26.25L169.95 26.2L169.1 25.3L168.3 23.95L166.75 21.45L165.35 19.4L164.3 18.65L162.8 18.4L162 18.4L162 23.75Q162 25.2 161.4 25.85Q160.75 26.55 159.65 26.55Q158.55 26.55 157.95 25.85Q157.3 25.1 157.3 23.75L157.3 16.3M144.45,18.05L148.5 18.05L147.85 16.35L152.6 16.3L155 22.25L154.95 22.2Q155.55 23.65 155.55 24.35Q155.55 25.2 154.95 25.9L154.9 25.95Q154.2 26.55 153.25 26.55L152.3 26.35Q151.8 26.15 151.55 25.8L151.05 24.85L150.65 23.85L149.85 21.85L143.1 21.85L142.35 23.9L141.4 25.85Q140.95 26.55 139.8 26.55Q138.9 26.55 138.25 25.95L138.2 25.9Q137.5 25.2 137.5 24.35L137.7 23.45L138.1 22.3L140.45 16.35L145.05 16.35L144.45 18.05M129.65,23.1L129.2 24.8L129.2 24.85L128.4 26Q127.7 26.55 126.65 26.55L125.3 26.25L124.45 25.3L124 24.25L123.7 23.1L122 16.4L126.25 16.4L126.65 17.95L127.05 16.4L131.35 16.4L129.65 23.1M131.6,16.4L136.05 16.4L136.05 23.95Q136.05 25.2 135.45 25.9L135.4 25.9Q134.75 26.55 133.75 26.55Q132.85 26.55 132.2 25.9Q131.6 25.2 131.6 23.95L131.6 16.4M121.75,23.95Q121.75 25.2 121.2 25.9L121.15 25.95Q120.45 26.55 119.5 26.55Q118.55 26.55 117.9 25.9Q117.3 25.2 117.3 23.95L117.3 16.45L121.75 16.4L121.75 23.95M108.3,23.1L107.8 24.85L107 26Q106.35 26.55 105.25 26.55L103.95 26.25L103.05 25.3L102.6 24.2L102.3 23.05L102.35 23.1L100.65 16.5L104.9 16.5L105.25 17.95L105.65 16.5L109.95 16.45L108.3 23.1M110.2,16.45L114.65 16.45L114.65 23.95Q114.65 25.2 114.1 25.9L114.05 25.9Q113.4 26.55 112.4 26.55Q111.5 26.55 110.85 25.9Q110.2 25.2 110.2 23.95L110.2 16.45M100.35,23.95Q100.35 25.2 99.8 25.9L99.75 25.9Q99.1 26.55 98.15 26.55Q97.2 26.55 96.55 25.9Q95.95 25.2 95.95 23.95L95.95 16.5L100.35 16.5L100.35 23.95M81.35,16.55L81.35 18.35Q81.35 19.75 81.7 20.75Q81.95 21.6 82.7 22.1L82.75 22.1Q83.5 22.6 84.85 22.6Q86.75 22.6 87.55 21.6L87.6 21.6Q88.35 20.55 88.35 18.4L88.35 16.55L93.05 16.5L93.05 18.15Q93.05 20.4 92.65 21.9Q92.2 23.45 90.9 24.65Q89.8 25.65 88.4 26.1L85.15 26.55L81.3 26.1Q79.7 25.6 78.65 24.55Q77.6 23.45 77.1 21.85Q76.6 20.3 76.6 18.15L76.6 16.6L81.35 16.55M61.65,16.65L73.15 16.6L73.85 17.7L73.85 17.65Q74.4 18.65 74.4 20.2Q74.4 22.05 73.55 23.45L73.55 23.5Q72.55 24.95 70.75 25.75Q69 26.55 66.65 26.55Q63.75 26.55 61.9 25.45Q60.55 24.6 59.7 23.35L59.7 23.3Q58.85 21.9 58.85 20.65Q58.85 19.75 59.45 19.2L59.45 19.15Q60.05 18.5 60.95 18.5Q61.7 18.5 62.3 18.95L62.35 19L63.2 20.35Q63.45 21.15 63.85 21.65L63.9 21.7L64.85 22.5L64.8 22.5L66.55 22.8Q68 22.8 68.95 22.15Q69.75 21.55 69.75 20.6Q69.75 19.9 69.35 19.5Q68.85 19 68.1 18.75L65.75 18.15L62.35 17L61.65 16.65" />
<linearGradient
id="LinearGradID_1373" gradientUnits="userSpaceOnUse" gradientTransform="matrix(0, 0.00804138, -0.00544739, 0, -72, 9.9)" spreadMethod ="pad" x1="-819.2" y1="0" x2="819.2" y2="0" >
<stop  offset="0" style="stop-color:#FAED2D;stop-opacity:1" />
<stop  offset="1" style="stop-color:#FFFEF3;stop-opacity:1" />
</linearGradient>
<path style="fill:url(#LinearGradID_1373) " d="M177.75,16.2L174.55 11.3L174.55 11.25L173.75 9.75L173.7 9.7Q173.35 9.1 173.35 8.65Q173.35 7.75 174.05 7.15L174.1 7.15Q174.65 6.55 175.6 6.55Q176.6 6.55 177.1 7.15L177.15 7.2L178.4 8.95L181.4 13.85L184.4 8.95L184.95 8.1L185.4 7.35L185.45 7.3L186.15 6.8L186.2 6.75L187.15 6.55Q188.05 6.55 188.7 7.15Q189.3 7.75 189.3 8.55L189.1 9.75L189.05 9.8L188.2 11.2L184.9 16.2L177.75 16.2M162,10.65L162 14.7L164.85 14.7L167 14.5L167 14.45L168.1 13.9L168.45 12.65L168.2 11.6L167.3 10.9L164.95 10.65L162 10.65M157.3,16.3L157.3 9.65Q157.3 8.2 158 7.55Q158.6 6.9 160.1 6.9L166.1 6.9L168.3 6.95L168.35 6.95L170.05 7.45Q171.05 7.8 171.8 8.6L171.75 8.6Q172.5 9.3 172.9 10.35Q173.25 11.3 173.25 12.4Q173.25 14.65 172 16.05L171.8 16.25L157.3 16.3M147.85,16.35L146.4 12.5L145.05 16.35L140.45 16.35L142.8 10.4L143.3 9.1L143.95 7.9Q144.3 7.3 144.9 6.95L144.9 6.9Q145.55 6.55 146.45 6.55L148 6.95L149 7.8L149.65 8.95L150.15 10.3L150.2 10.35L152.6 16.3L147.85 16.35M131.6,16.4L131.6 15.3L131.35 16.4L127.05 16.4L128.85 9.7L129.4 8L129.45 7.95Q129.75 7.35 130.35 7.1L130.4 7.1L132.05 6.9L133.2 6.9Q134.4 6.9 135.15 7.4Q136.05 7.85 136.05 9.4L136.05 16.4L131.6 16.4M122,16.4L121.75 15.35L121.75 16.4L117.3 16.45L117.3 9.4Q117.3 7.85 118.2 7.4Q118.85 6.9 120.1 6.9L121.3 6.9L122.95 7.1L123 7.1L123.9 8L124.5 9.7L126.25 16.4L122 16.4M110.2,16.45L110.2 15.35L109.95 16.45L105.65 16.5L107.5 9.7L108 8.05L108.05 7.95Q108.35 7.35 108.95 7.1L109 7.1L110.7 6.9L111.8 6.9Q113.05 6.9 113.8 7.4L113.85 7.4Q114.65 7.85 114.65 9.4L114.65 16.45L110.2 16.45M100.65,16.5L100.35 15.3L100.35 16.5L95.95 16.5L95.95 9.4Q95.95 7.85 96.8 7.4Q97.55 6.9 98.75 6.9L99.9 6.9L101.55 7.1L101.6 7.1Q102.2 7.35 102.55 7.95L102.55 8L103.15 9.7L104.9 16.5L100.65 16.5M88.35,16.55L88.35 9.3Q88.35 7.95 89 7.35L89 7.3Q89.65 6.55 90.7 6.55Q91.7 6.55 92.45 7.3L92.4 7.3Q93.05 7.9 93.05 9.3L93.05 16.5L88.35 16.55M76.6,16.6L76.6 9.3Q76.6 7.95 77.3 7.35L77.35 7.3Q77.95 6.55 78.95 6.55Q80.1 6.55 80.7 7.3L80.75 7.35Q81.35 7.95 81.35 9.3L81.35 16.55L76.6 16.6M61.65,16.65L60.05 15.15Q59.15 13.95 59.15 12.2Q59.15 10.55 60.1 9.2Q60.95 7.9 62.7 7.2L62.75 7.2Q64.35 6.55 66.6 6.55L69.65 7L69.7 7Q71 7.45 71.9 8.25L71.9 8.2Q72.75 8.95 73.2 9.85Q73.6 10.7 73.6 11.55Q73.6 12.4 73.05 13.1L73 13.1Q72.35 13.75 71.5 13.75Q70.55 13.75 70.2 13.3L69.35 12.2L69.3 12.15Q68.85 11.15 68.25 10.65L68.3 10.65Q67.7 10.2 66.35 10.2Q65.05 10.2 64.3 10.75L64.3 10.8Q63.6 11.2 63.6 11.85L63.8 12.5L64.5 13.1L64.5 13.05L65.5 13.5L65.55 13.5L67.2 13.9L67.25 13.95L70.05 14.75L70.1 14.75Q71.4 15.25 72.35 15.9L73.15 16.6L61.65 16.65" />
</g>
</svg>
