<?xml version="1.0" encoding="utf-8"?>
<svg version="1.1" id="Layer_1"
xmlns="http://www.w3.org/2000/svg"
xmlns:xlink="http://www.w3.org/1999/xlink"
xmlns:author="http://www.sothink.com"
width="44px" height="48px"
xml:space="preserve">
<g id="474" transform="matrix(1, 0, 0, 1, 0.5, 1.2)">
<path style="fill:#2A7EA3;fill-opacity:1" d="M3.7,-0.9Q5.25 -0.85 11 2.8L10.95 1.35Q10.95 -1.35 12.2 -1.2L13.15 -0.85Q15.55 0.75 19.25 4.1Q19.75 -1.4 21 -0.9L26.25 7.65Q26.95 5.35 28.25 3.1Q28.45 2.15 33.15 16.5Q34.7 13.25 35.8 12.15Q36.9 10.9 37.35 16.3Q37.7 21.5 37.5 23.9L39.95 20.85L40.8 27.1Q41.15 30.9 41.1 34.15L40.8 37.05L40.85 37.25L40.6 38.15L40.1 40.35Q39.2 42.95 37.9 43.4L26.25 43.9Q23 43.8 18.95 43.85Q17.45 43 22.55 39.7Q9.5 37.1 9.5 35.9Q8.35 35 13.85 32.6Q7.25 30.25 3.8 28.35Q2.1 27.3 2.7 26.6Q3.2 25.85 6.8 24.4Q1.95 20.55 -0.05 18.1Q-0.55 17.6 -0.5 17.3L-0.45 17.2Q-0.55 16.75 0.25 16.6L4.55 15.75L0.35 7.7Q-0.05 7.1 0.05 6.9Q0.05 5.8 5 7.4Q2.9 0.3 3.25 -0.5Q3.2 -0.95 3.7 -0.9M31.6,42.05L33.6 41.9L37.65 41.6L38.85 37.9L39.4 34.1L39.45 33.3Q39.5 29.4 39 24.85Q35.75 29.7 35.7 23.7L35.4 16.4Q32.85 21.5 32.45 20.25L30 12.75L27.95 7.3Q26.95 11.8 26.15 10.7L21.35 3.45Q21 5.25 20.95 6.75Q20.95 8.2 19.35 7L13.4 1.7Q13.6 7.05 12.2 6.2L5.7 2.85L7.55 9.95L3.15 9.05L7.25 17.05L2.75 18.2L9.55 25.1L5.65 27Q12.8 30.1 17.7 33L13.1 35.55Q18.9 36.85 25.25 38.9Q26.1 39 22.05 42.4L30.8 42.1L31.6 42.05" />
<path style="fill:#FFFFFF;fill-opacity:1" d="M29.45,40L30.15 39.45L30.9 38.7Q29.95 38.2 29.85 37.9Q30 37.5 30.4 37.4L30.85 37.15Q30.4 36.55 27.55 35.35L24.2 33.8L25.7 33.65L26.45 33.55L25.85 33.15L24.75 32.35Q24.75 32.25 25.9 31.85L26 31.75L23.65 30.8Q23.7 30.45 24.05 30.25L24.55 29.95L24.6 29.8L18.75 27.15L18.7 27.05L20.8 26.85L22.8 26.5L21 25.35L19.25 24.15L19.15 24.05L20.6 23.85Q20.25 23.5 19 23.25L17.55 22.85L18 22.5L18.65 22.45L18.75 22.45Q14.75 21.3 14.4 21.45L14.4 21.35L16.75 21.25L18.05 21.15L16.95 20.3Q15.25 18.9 15 18.1L15.05 17.8L15.75 17.9L16.85 18.2L16.95 18.2L16.45 17.4L16.05 16.5L17.1 16.8L17.2 16.8L13.25 11.55Q14.35 11.55 17.7 14.5L17.25 12.5Q17.8 12.5 20.4 15.3L20.25 14.15L20.25 14.05L21.45 16L21.55 16L21.6 15.15L21.3 14.2L21.3 13.75L22.9 16.65Q23.4 17.95 23.85 18.65L23.95 17.65Q24.5 17.75 24.95 18.9L25.4 20.65L25.6 20.65L25.65 17.7L29 25.45L28.95 24.65Q29.5 24.8 30 26.15L30.8 27.8L30.75 26.2L33.4 32.5L33.5 31.1Q33.85 31.5 35 34.25L35.1 34.25L35.1 32.3Q36.15 33 38.7 37.7L38.85 37.9L37.65 41.6L33.6 41.9L29.45 40" />
<path style="fill:#90D1EE;fill-opacity:1" d="M39.15,33.4Q38.2 31.2 38.3 30.65L38.2 30.65Q37.9 31.7 37.95 33.3L37.9 33.3L37.4 31.1Q37 29.25 36.6 28.95L36.15 30.85L36 30.85L34.85 27.2L34.75 27.2Q34.65 27.25 34.5 28.55L34.5 29.25Q34 28.25 33.45 25.85L32.6 22.85Q32.3 24.5 32.3 25.95Q32 25.6 31.65 23.65Q31.35 22 30.9 22L30.7 22.05L30.55 22.85L29.1 18.65L27.4 13.9L27.2 13.9L27.1 16.35L27 16.35Q26.25 15.95 26.1 15.3L25.75 14.7Q25.45 14.7 25.3 15.05L23.95 12.6L21.95 8.7L21.9 9.3L22.1 11.45L22 12.65L21.9 12.65Q20.2 10.05 19.7 10L19.65 11.75L17.95 9.45Q16.2 7.45 14.9 6.5L14.9 7.15L15.25 9.35L15.25 9.95L12.8 7.95L12.8 9.75L10.9 8.45L8.4 6.65L11.4 11.5L10.1 11.45Q10 12.05 11.05 13.2L11.4 13.65L8.2 12.7L8.2 12.85L10.6 15.15L13.05 17.45L11.35 17.5Q11.2 18 12.45 19.2L13.2 19.9L7.65 18.95L7.75 19.05L11.6 21.85L15.7 24.65L14.35 24.95L14.35 25.05L15.6 26.15L15.65 26.2L15.4 26.2L12.05 26.3Q19.6 28.95 20.2 29.8L18.7 30.25Q19.55 30.45 20.85 31L22.45 31.85L21.8 32.25L21.1 32.65L22.35 33.3Q22.7 33.4 22.7 33.55Q22.65 34 21.25 34.25L19.7 34.5L19.8 34.5L23.5 35.95Q27.1 37.25 27.9 37.95L26.65 38.8L27.45 39.15Q27.9 39.3 27.9 39.7L27.1 40.4Q26.15 40.95 26.15 41.25L28.95 41.8L30.8 42.1L22.05 42.4Q26.1 39 25.25 38.9Q18.9 36.85 13.1 35.55L17.7 33Q12.8 30.1 5.65 27L9.55 25.1L2.75 18.2L7.25 17.05L3.15 9.05L7.55 9.95L5.7 2.85L12.2 6.2Q13.6 7.05 13.4 1.7L19.35 7Q20.95 8.2 20.95 6.75Q21 5.25 21.35 3.45L26.15 10.7Q26.95 11.8 27.95 7.3L30 12.75L32.45 20.25Q32.85 21.5 35.4 16.4L35.7 23.7Q35.75 29.7 39 24.85Q39.5 29.4 39.45 33.3L39.4 34.1L39.15 33.4" />
<path style="fill:#D3EEFA;fill-opacity:1" d="M33.6,41.9L31.6 42.05L30.8 42.1L28.95 41.8L26.15 41.25Q26.15 40.95 27.1 40.4L27.9 39.7Q27.9 39.3 27.45 39.15L26.65 38.8L27.9 37.95Q27.1 37.25 23.5 35.95L19.8 34.5L19.7 34.5L21.25 34.25Q22.65 34 22.7 33.55Q22.7 33.4 22.35 33.3L21.1 32.65L21.8 32.25L22.45 31.85L20.85 31Q19.55 30.45 18.7 30.25L20.2 29.8Q19.6 28.95 12.05 26.3L15.4 26.2L15.65 26.2L15.6 26.15L14.35 25.05L14.35 24.95L15.7 24.65L11.6 21.85L7.75 19.05L7.65 18.95L13.2 19.9L12.45 19.2Q11.2 18 11.35 17.5L13.05 17.45L10.6 15.15L8.2 12.85L8.2 12.7L11.4 13.65L11.05 13.2Q10 12.05 10.1 11.45L11.4 11.5L8.4 6.65L10.9 8.45L12.8 9.75L12.8 7.95L15.25 9.95L15.25 9.35L14.9 7.15L14.9 6.5Q16.2 7.45 17.95 9.45L19.65 11.75L19.7 10Q20.2 10.05 21.9 12.65L22 12.65L22.1 11.45L21.9 9.3L21.95 8.7L23.95 12.6L25.3 15.05Q25.45 14.7 25.75 14.7L26.1 15.3Q26.25 15.95 27 16.35L27.1 16.35L27.2 13.9L27.4 13.9L29.1 18.65L30.55 22.85L30.7 22.05L30.9 22Q31.35 22 31.65 23.65Q32 25.6 32.3 25.95Q32.3 24.5 32.6 22.85L33.45 25.85Q34 28.25 34.5 29.25L34.5 28.55Q34.65 27.25 34.75 27.2L34.85 27.2L36 30.85L36.15 30.85L36.6 28.95Q37 29.25 37.4 31.1L37.9 33.3L37.95 33.3Q37.9 31.7 38.2 30.65L38.3 30.65Q38.2 31.2 39.15 33.4L39.4 34.1L38.85 37.9L38.7 37.7Q36.15 33 35.1 32.3L35.1 34.25L35 34.25Q33.85 31.5 33.5 31.1L33.4 32.5L30.75 26.2L30.8 27.8L30 26.15Q29.5 24.8 28.95 24.65L29 25.45L25.65 17.7L25.6 20.65L25.4 20.65L24.95 18.9Q24.5 17.75 23.95 17.65L23.85 18.65Q23.4 17.95 22.9 16.65L21.3 13.75L21.3 14.2L21.6 15.15L21.55 16L21.45 16L20.25 14.05L20.25 14.15L20.4 15.3Q17.8 12.5 17.25 12.5L17.7 14.5Q14.35 11.55 13.25 11.55L17.2 16.8L17.1 16.8L16.05 16.5L16.45 17.4L16.95 18.2L16.85 18.2L15.75 17.9L15.05 17.8L15 18.1Q15.25 18.9 16.95 20.3L18.05 21.15L16.75 21.25L14.4 21.35L14.4 21.45Q14.75 21.3 18.75 22.45L18.65 22.45L18 22.5L17.55 22.85L19 23.25Q20.25 23.5 20.6 23.85L19.15 24.05L19.25 24.15L21 25.35L22.8 26.5L20.8 26.85L18.7 27.05L18.75 27.15L24.6 29.8L24.55 29.95L24.05 30.25Q23.7 30.45 23.65 30.8L26 31.75L25.9 31.85Q24.75 32.25 24.75 32.35L25.85 33.15L26.45 33.55L25.7 33.65L24.2 33.8L27.55 35.35Q30.4 36.55 30.85 37.15L30.4 37.4Q30 37.5 29.85 37.9Q29.95 38.2 30.9 38.7L30.15 39.45L29.45 40L33.6 41.9" />
<path style="fill:#482D19;fill-opacity:1" d="M41,45.6L41.9 45.15Q42.55 44.65 42.45 44.05L35.2 35.4L33.8 33.75L32.55 32.2L33.8 32.8L33.65 31.65L35.65 34.25L38.3 37.45L42.9 43.1L43.2 43.55L43.4 43.85Q43.5 45 42.5 45.85L42.35 45.95L42.2 46.1Q41.2 46.75 40.35 46.4L33 37.95L29.75 34.5L31.1 34.9L30.7 33.75L32.25 35.6L41 45.6" />
<path style="fill:#6B4228;fill-opacity:1" d="M41.9,45.15L41 45.6L32.25 35.6L33 34.7L33.8 33.75L35.2 35.4L34.5 36.45L41.9 45.15" />
<path style="fill:#9F6D50;fill-opacity:1" d="M34.5,36.45L35.2 35.4L42.45 44.05Q42.55 44.65 41.9 45.15L34.5 36.45" />
<path style="fill:#384D5B;fill-opacity:1" d="M29.9,17.4Q30.95 17.95 31.25 19L31.95 21.5Q32.5 22.9 32.85 25.6Q33.25 28.3 33.05 28.95L34.2 29.15L35.1 29.85Q35.55 30.35 35.65 31.65Q35.75 32.9 34.95 34.35Q34.2 35.7 33.25 36.3L31.85 37L30.55 37.15Q29.75 37.15 28.8 36.6Q27.85 36.05 27.9 34.5L21.8 32.95L18.3 31.95L17 31.6L16.6 31.3L16.45 31.1L16.1 30.15Q15.8 29.45 15.65 28.6L15.05 25.9L14.25 22.65L13.35 19.15L11.95 13.9L11.2 10.15Q11.15 9.55 11.85 9.65L13.95 10.2L19.3 12.35L26.05 15.45L29.9 17.4M25.65,25.1L27.05 26.75L27.15 26.8Q30.5 30.8 31.7 32.8Q32.45 31.85 32.35 29.45L32.25 28.45L32.1 27L32.05 26.6L31.15 22.25L30.6 20.25L30.5 19.7L30.35 20.15L29.85 21.45L29.4 22.5L27.75 25.6L27.45 26.2L29.45 20.7L30 19.2Q21.65 14.05 12.65 10.7L12.95 11L16.35 14.75L21.05 20L21.4 20.3L23.45 22.65L24.65 23.95L25.65 25.1M12.65,11.65L12.35 11.4L15.25 22.65L17.2 30.3L18.3 30.15L18.7 30.1L18.7 30.05L21.05 29.4Q24.2 28.5 26.05 27.6L26.15 27.65L26.2 27.65L24.5 28.7L19.55 30.55L18.5 30.85L17.7 31.1L18.4 31.3L18.45 31.3L29.45 33.9L29.6 33.95L30.4 33.7L30.9 33.4L31.2 33.1Q30.85 32.35 28.95 29.9L26.75 27.25L26.7 27.15L25.25 25.5L24.8 24.9L24.5 24.6L21.85 21.55L21.2 20.85L20.95 20.55L18.3 17.65L16.2 15.45L13.4 12.5L12.65 11.65M28.55,34.5Q28.3 35.35 29.65 36L30.8 36.2Q31.6 36.2 32.5 35.6L33.65 34.6L34.55 33.05L34.7 32.35Q34.9 31.25 34.5 30.6Q33.95 29.7 33.1 29.8L33 29.8L33 29.9L33.1 30.5Q33.2 32 32.35 33.1L31.5 33.95L31.4 34Q30.65 34.55 29.65 34.6L28.55 34.5" />
<path style="fill:#FFFFFF;fill-opacity:1" d="M16.35,14.75L12.95 11L12.65 10.7Q21.65 14.05 30 19.2L29.45 20.7L28.9 19.7L25.95 17.9L24.65 23.95L23.45 22.65L21.4 20.3L22.4 16.3L16.75 13.3L16.35 14.75" />
<path style="fill:#E0E6DA;fill-opacity:1" d="M16.75,13.3L22.4 16.3L21.4 20.3L21.05 20L16.35 14.75L16.75 13.3M27.2,26.75L27.15 26.8L27.05 26.75L25.65 25.1L24.65 23.95L25.95 17.9L28.9 19.7L29.45 20.7L27.45 26.2L27.2 26.75M26.15,27.65L26.05 27.6Q24.2 28.5 21.05 29.4L18.7 30.05L18.65 29.95L24.3 26.3L13.45 12.7L13.4 12.5L16.2 15.45L18.3 17.65L20.95 20.55L21.2 20.85L21.85 21.55L24.5 24.6L24.8 24.9L25.25 25.5L26.7 27.15L26.15 27.65" />
<path style="fill:#BFC9B6;fill-opacity:1" d="M27.45,26.2L27.75 25.6L29.4 22.5L29.85 21.45L30.7 22.95L32.1 27L32.25 28.45L32.35 29.45Q32.45 31.85 31.7 32.8Q30.5 30.8 27.15 26.8L27.2 26.75L27.45 26.2M29.65,34.6L29.8 35.2Q30.15 36.05 30.8 36.2L29.65 36Q28.3 35.35 28.55 34.5L29.65 34.6M34.5,31.7L34.7 32.35L34.55 33.05L33.65 34.6Q32.6 35.45 31.8 34.3Q33.95 32.7 33.4 30.55Q33.95 30.85 34.5 31.7" />
<path style="fill:#EEEEEE;fill-opacity:1" d="M30.7,22.95L29.85 21.45L30.35 20.15L30.5 19.7L30.6 20.25L31.15 22.25L32.05 26.6L32.1 27L30.7 22.95M33.4,30.55L33.05 29.95L33 29.9L33 29.8L33.1 29.8Q33.95 29.7 34.5 30.6Q34.9 31.25 34.7 32.35L34.5 31.7Q33.95 30.85 33.4 30.55" />
<path style="fill:#90D2C6;fill-opacity:1" d="M18.65,29.95L18.7 30.05L18.7 30.1L18.3 30.15L17.2 30.3L15.25 22.65L12.35 11.4L12.65 11.65L13.4 12.5L13.45 12.7L18.65 29.95" />
<path style="fill:#65A599;fill-opacity:1" d="M20.85,30.9L30.4 33.7L29.6 33.95L29.45 33.9L18.45 31.3L18.4 31.3L17.7 31.1L18.5 30.85L19.55 30.55L20.85 30.9" />
<path style="fill:#8F9385;fill-opacity:1" d="M33.05,29.95L33.4 30.55Q33.95 32.7 31.8 34.3Q32.6 35.45 33.65 34.6L32.5 35.6Q31.6 36.2 30.8 36.2Q30.15 36.05 29.8 35.2L29.65 34.6Q30.65 34.55 31.4 34L31.5 33.95L32.35 33.1Q33.2 32 33.1 30.5L33 29.9L33.05 29.95" />
<path style="fill:#737F71;fill-opacity:1" d="M20.85,30.9L22.85 30.5L26.65 29.55Q27.05 29.65 28.75 31.3L30.25 32.8L30.9 33.4L30.4 33.7L20.85 30.9" />
<path style="fill:#717463;fill-opacity:1" d="M19.55,30.55L24.5 28.7L26.2 27.65L26.15 27.65L26.7 27.15L26.75 27.25L28.95 29.9Q30.85 32.35 31.2 33.1L30.9 33.4L30.25 32.8L28.75 31.3Q27.05 29.65 26.65 29.55L22.85 30.5L20.85 30.9L19.55 30.55" />
<path style="fill:#ACB0A2;fill-opacity:1" d="M13.45,12.7L24.3 26.3L18.65 29.95L13.45 12.7" />
</g>
</svg>
