<?xml version="1.0" encoding="utf-8"?>
<svg version="1.1" id="Layer_1"
xmlns="http://www.w3.org/2000/svg"
xmlns:xlink="http://www.w3.org/1999/xlink"
xmlns:author="http://www.sothink.com"
width="54px" height="56px"
xml:space="preserve">
<g id="2988" transform="matrix(1, 0, 0, 1, -25.25, -10.6)">
<path style="fill:#1C1417;fill-opacity:1" d="M66.4,37.85Q61.25 41.6 54.05 41.7L53.7 41.7Q50.45 41.65 48.15 37.45Q45.85 33.25 45.75 27.35L45.8 26.85Q45.75 24.8 44.9 23.05L43.7 23.75Q42.85 24.05 42.5 23.3Q41.25 20.85 42.95 20.75L43.1 20.65Q41.1 18.7 38.5 18.15Q41.9 14.55 42 13.35L42 13L43.7 11.65L44 11.65L45.9 10.95L46.25 10.7L46.7 10.6L50.35 10.9L51.35 10.8Q51.65 10.55 51.9 10.8L52.75 10.75L58.1 11.35Q62.3 12.15 66 14.4L66.15 14.7L68.35 17.5Q69.55 21.15 71.2 31.9Q70.05 35.25 66.4 37.85M71.85,39.95Q73.5 40.25 74.15 42Q74.9 43.95 74.8 45.65L72.7 48.9Q73.35 46 70.55 40.05L70.35 40.1L69.95 40.15L69.9 38.75L70.55 40.05L71.85 39.95M59.85,60.6L60.3 60.4Q63.65 61.05 66.6 59.45L63.4 62.65Q59.5 63.8 55.55 62.3Q51.6 60.75 51.4 60L50.65 56.5Q54.7 59.35 59.85 60.6M49.8,56.9Q48.4 59.1 47.35 59.3L42.7 58.65Q39.15 57.75 31.75 52.25Q28.4 48.75 28.55 44.7Q28.65 40.55 32.85 34.65L33.3 34.95L33.25 37.8L32.5 41.8L31.2 43.75L31.5 45.9L31.65 46.05L31.75 46.55L33.65 48.4L33.6 48.55L33.9 48.85L41.05 52.8L41.1 53Q42.5 54.5 44.1 54.65Q45.5 57.4 49.8 56.85L49.8 56.9M40.9,29.65Q40.35 29.75 39.95 29.35Q36.85 26.5 41.15 26.25Q45.45 29.1 40.9 29.65M57.05,46.4Q55.9 44.2 58.95 45.7Q60.2 47.6 57.95 47.05Q57.3 46.9 57.05 46.4" />
<path style="fill:#0E0A0B;fill-opacity:1" d="M42,13.35Q41.9 14.55 38.5 18.15L38.4 18.25Q34.9 21.95 35.4 24.9Q36.5 24.35 38.05 24.15Q38.5 24.35 38.4 24.6Q36 26.85 35.35 28.9Q34.75 30.95 35.85 36.6L35.5 40.65L35.35 41.1L34 44.15Q33.2 45.55 31.7 45.65L32.5 41.8L33.25 37.8L33.3 34.95L32.85 34.65Q28.65 40.55 28.55 44.7Q28.4 48.75 31.75 52.25Q39.15 57.75 42.7 58.65L47.35 59.3Q48.4 59.1 49.8 56.9Q50.1 57.25 50.65 56.5L51.4 60Q51.6 60.75 55.55 62.3Q59.5 63.8 63.4 62.65L66.6 59.45L68.25 56.25Q70.5 51.75 70.25 46.65L69.95 40.15L70.35 40.1L70.55 40.05Q73.35 46 72.7 48.9L74.8 45.65Q75.9 43.45 76 41.6Q75.8 39.8 71.65 35L71.2 31.9Q69.55 21.15 68.35 17.5L68.3 17.45Q71.7 18.95 73 26.1L74.6 35.1Q79.2 39.55 78.95 42.85L78.85 43.65Q77.8 47.1 75.3 50.2Q73.8 51.95 72.5 52.45L69.9 58.95Q68.25 62.35 66.8 63.65Q64.1 65.85 62.75 66.15L60.2 66.5L56.55 65.9L51.75 64.35Q49.5 63.45 49 61.95Q47.4 62.8 46.25 62.55L40.9 60.9Q36.65 59.55 34.15 58.15Q31.65 56.75 29.4 54.55Q27.05 52.35 26.2 49.55Q25.35 46.7 25.25 43.75Q25.1 40.8 27.65 37.4L31.35 32.5L31.3 29.2Q32.1 27 33.45 26.1Q30.95 22.45 34.95 17.95L41.55 11.15Q42 11.95 42 13L42 13.35M62,58.95Q60 60.35 58.6 60.05Q57.15 59.65 55.85 58.05Q54.5 56.35 58.15 57.35L61.85 58.45L62 58.95M41.1,53L41.05 52.8Q38.95 50.75 41.25 50.85Q43.65 50.95 45.85 52.3Q48 53.55 45.65 54.45L44.1 54.65Q42.5 54.5 41.1 53" />
<path style="fill:#3C3134;fill-opacity:1" d="M49.8,56.85Q45.5 57.4 44.1 54.65L45.65 54.45Q48 53.55 45.85 52.3Q43.65 50.95 41.25 50.85Q38.95 50.75 41.05 52.8L33.9 48.85L33.6 48.55L33.65 48.4L31.75 46.55L31.65 46.05L31.5 45.9L31.2 43.75L32.5 41.8L31.7 45.65Q33.2 45.55 34 44.15L35.35 41.1L35.5 40.65L35.85 36.6Q34.75 30.95 35.35 28.9Q36 26.85 38.4 24.6Q38.5 24.35 38.05 24.15Q36.5 24.35 35.4 24.9Q34.9 21.95 38.4 18.25L38.5 18.15Q41.1 18.7 43.1 20.65L42.95 20.75Q41.25 20.85 42.5 23.3Q42.85 24.05 43.7 23.75L44.9 23.05Q45.75 24.8 45.8 26.85L45.75 27.35Q45.85 33.25 48.15 37.45Q50.45 41.65 53.7 41.7L54.05 41.7Q61.25 41.6 66.4 37.85Q70.05 35.25 71.2 31.9L71.65 35Q75.8 39.8 76 41.6Q75.9 43.45 74.8 45.65Q74.9 43.95 74.15 42Q73.5 40.25 71.85 39.95L70.55 40.05L69.9 38.75L69.95 40.15L70.25 46.65Q70.5 51.75 68.25 56.25L66.6 59.45Q63.65 61.05 60.3 60.4L59.85 60.6Q54.7 59.35 50.65 56.5Q50.1 57.25 49.8 56.9L49.8 56.85M41.15,26.25Q36.85 26.5 39.95 29.35Q40.35 29.75 40.9 29.65Q45.45 29.1 41.15 26.25M48.7,44Q44.4 43.35 47.4 44.9Q48.3 45.35 49.15 45.2Q49.45 44.9 49.25 44.55L48.7 44M42.35,38.95Q46.5 39.1 43.4 35.45Q39.25 33.75 40.65 37.8Q41.05 38.9 42.35 38.95M57.95,47.05Q60.2 47.6 58.95 45.7Q55.9 44.2 57.05 46.4Q57.3 46.9 57.95 47.05M65.35,44Q67.6 43.5 66.7 41.65Q63 41.15 64.6 43.85L65.35 44M61.85,51.75Q65.25 53 65.15 50.45L64.95 50.05Q61.15 48.35 61.25 51.1Q61.25 51.55 61.85 51.75M61.85,58.45L58.15 57.35Q54.5 56.35 55.85 58.05Q57.15 59.65 58.6 60.05Q60 60.35 62 58.95L61.85 58.45" />
<path style="fill:#625158;fill-opacity:1" d="M49.25,44.55Q49.45 44.9 49.15 45.2Q48.3 45.35 47.4 44.9Q44.4 43.35 48.7 44L49.25 44.55M40.65,37.8Q39.25 33.75 43.4 35.45Q46.5 39.1 42.35 38.95Q41.05 38.9 40.65 37.8M64.6,43.85Q63 41.15 66.7 41.65Q67.6 43.5 65.35 44L64.6 43.85M61.25,51.1Q61.15 48.35 64.95 50.05L65.15 50.45Q65.25 53 61.85 51.75Q61.25 51.55 61.25 51.1" />
</g>
</svg>
