<?xml version="1.0" encoding="utf-8"?>
<svg version="1.1" id="Layer_1"
xmlns="http://www.w3.org/2000/svg"
xmlns:xlink="http://www.w3.org/1999/xlink"
xmlns:author="http://www.sothink.com"
width="20px" height="19px"
xml:space="preserve">
<g id="1195" transform="matrix(1, 0, 0, 1, 0, 0)">
<path style="fill:#574031;fill-opacity:1" d="M16,6.05Q15.85 6.05 15.85 6.2Q15.75 6.6 16.2 6.6L16.45 6.4L16.4 6.2L16.2 6.1L16 6.05M1.05,10.55L1 9.75Q0.95 9.1 1.05 8.45Q1.75 6.6 3.1 5.05L3.25 4.9L3.4 4.95Q3.85 4.95 4.05 4.55L4.1 4.1Q5 3.3 6 2.85L7.1 2.9L8.15 2.4L8.1 2.25L8.1 2.2L9.4 2.1L11.5 2.35L11.45 2.25L11.45 2.2L11.55 2.05L11.8 1.9L11.9 1.85L12.2 2L12.45 2.35L12.45 2.5L12.45 2.6L14.45 3.45L14.4 3.55L14.35 3.7L14.75 4.05L15.15 3.9L15.65 4.25Q16.95 5.2 17.85 6.4L18.3 8.5L17.65 9.2L17.7 9.25L17.75 9.4L17.75 9.6L17.7 9.8L17.6 9.8L17.3 9.8L17.1 9.75L16.95 9.9L16.95 9.75L16.6 9.45L16.45 9.55L16.35 10L16.55 10.25L16.45 10.35L15.45 11L15.65 9.5L15.65 9.4Q15.65 6.95 13.85 5.2Q12.8 4.15 11.4 3.75L10.85 3.6L9.6 3.5L7.6 3.8L7.05 4Q6.1 4.45 5.3 5.2Q4 6.5 3.7 8.15Q3.55 8.75 3.55 9.4Q3.55 10.6 4 11.65L3.1 11.35L2.9 11.45L2.3 11.35L2.15 11.1L2.15 11.05L1.05 10.55M11.5,2.75L11.3 2.95L11.6 3.35Q11.95 3.4 12.05 3.15L12.05 3.05L11.8 2.85L11.5 2.75M16.7,8.35Q16.8 8.9 17.5 8.6L17.65 8.45L17.4 8.2L16.9 8.15L16.8 8.2L16.7 8.35M9.9,1.25Q10.35 1.45 9.95 1.55Q9.5 1.75 9.75 1.35Q9.85 1.25 9.9 1.25M2.9,7.8L2.8 7.7L2.7 7.65L2.5 7.65Q2.3 7.65 2.25 7.9L2.2 8.2L2.2 8.35L2.8 8.4L2.95 8.3L2.95 8.2L2.95 8L2.95 7.85L2.9 7.8M3.05,9.5L3.05 9.45L2.8 9.2L2.4 9.15Q2.25 9.15 2.25 9.3Q2.25 9.8 2.9 9.7L3.05 9.5M8.5,16.05Q8.3 16.25 8.1 16.05Q7.85 15.9 8 15.65L8.2 15.55L8.4 15.7L8.55 15.9L8.5 16.05M3.65,13.75Q3.2 13.95 3.45 13.55Q3.55 13.45 3.6 13.45Q4.05 13.65 3.65 13.75M16.45,12.75L16.35 13.05L15.9 13.45L15.65 13.5L15.55 13.2L15.7 12.7Q15.8 12.55 16 12.55L16.2 12.6L16.4 12.7L16.45 12.75M14.95,14.8Q14.45 15 14.8 14.55L14.9 14.45Q15.35 14.7 14.95 14.8M12.35,16L12.35 16.3L12.3 16.45L12.1 16.55Q11.4 16.65 11.15 16.2L11.15 16.1L11.25 15.9L11.7 15.65L12 15.7L12.25 15.8L12.3 15.85L12.35 16" />
<path style="fill:#785743;fill-opacity:1" d="M16.2,6.1L16.4 6.2L16.45 6.4L16.2 6.6Q15.75 6.6 15.85 6.2Q15.85 6.05 16 6.05L16.2 6.1M15.65,4.25L15.15 3.9L14.75 4.05L14.35 3.7L14.4 3.55L14.45 3.45L12.45 2.6L12.45 2.5L12.45 2.35L12.2 2L11.9 1.85L11.8 1.9L11.55 2.05L11.45 2.2L11.45 2.25L11.5 2.35L9.4 2.1L8.1 2.2L8.1 2.25L8.15 2.4L7.1 2.9L6 2.85Q5 3.3 4.1 4.1L4.05 4.55Q3.85 4.95 3.4 4.95L3.25 4.9L3.1 5.05Q1.75 6.6 1.05 8.45Q1.25 5.8 3.15 3.85Q4.45 2.35 6.25 1.65L7.05 1.35L9.15 1L9.85 1L11.9 1.2L12.65 1.45Q14.2 1.95 15.55 3.15Q17.15 4.55 17.85 6.4Q16.95 5.2 15.65 4.25M9.75,1.35Q9.5 1.75 9.95 1.55Q10.35 1.45 9.9 1.25Q9.85 1.25 9.75 1.35M2.95,7.85L2.95 8L2.95 8.2L2.95 8.3L2.8 8.4L2.2 8.35L2.2 8.2L2.25 7.9Q2.3 7.65 2.5 7.65L2.7 7.65L2.8 7.7L2.9 7.8L2.95 7.85" />
<path style="fill:#36271F;fill-opacity:1" d="M12.5,0.4Q14.7 1.05 16.4 2.75Q18.55 4.8 19.1 7.55L19.25 9.15L19.25 9.4Q19.25 11.7 18.25 13.6L16.4 16Q13.6 18.8 9.6 18.8Q5.65 18.8 2.8 16Q0.95 14.2 0.35 11.9L0.25 11.55L0.05 9.95L0 9.4Q0 5.5 2.8 2.75Q4.05 1.5 5.55 0.85L6.45 0.5L9.6 0L11.6 0.2L12.5 0.4M1,9.75L1.05 10.55Q1.4 13.35 3.6 15.4Q6.05 17.75 9.6 17.85Q13.1 17.8 15.7 15.4Q17.15 14.05 17.8 12.35Q18.35 10.9 18.35 9.25L18.3 8.5L17.85 6.4Q17.15 4.55 15.55 3.15Q14.2 1.95 12.65 1.45L11.9 1.2L9.85 1L9.15 1L7.05 1.35L6.25 1.65Q4.45 2.35 3.15 3.85Q1.25 5.8 1.05 8.45Q0.95 9.1 1 9.75M4.75,9.6Q4.8 10.9 5.5 12L6.2 12.8Q7.6 14.1 9.6 14.2Q11.6 14.15 13.05 12.8L13.9 11.75Q14.55 10.65 14.55 9.3L14.5 8.5Q14.25 6.9 13 5.8Q12.2 5.15 11.35 4.85L10.95 4.75L9.75 4.6L9.35 4.6L8.2 4.85L7.7 5Q6.7 5.35 5.95 6.25Q5.45 6.75 5.2 7.3Q4.65 8.35 4.75 9.6M4,11.65Q3.55 10.6 3.55 9.4Q3.55 8.75 3.7 8.15Q4 6.5 5.3 5.2Q6.1 4.45 7.05 4L7.6 3.8L9.6 3.5L10.85 3.6L11.4 3.75Q12.8 4.15 13.85 5.2Q15.65 6.95 15.65 9.4L15.65 9.5L15.45 11Q15.05 12.4 13.85 13.5Q12.1 15.3 9.6 15.3Q7.1 15.3 5.3 13.5Q4.4 12.65 4 11.65" />
<path style="fill:#3C2C22;fill-opacity:1" d="M5.3,13.5Q7.1 15.3 9.6 15.3Q12.1 15.3 13.85 13.5Q15.05 12.4 15.45 11L16.45 10.35L16.55 10.25L16.35 10L16.45 9.55L16.6 9.45L16.95 9.75L16.95 9.9L17.1 9.75L17.3 9.8L17.6 9.8L17.7 9.8L17.75 9.6L17.75 9.4L17.7 9.25L17.65 9.2L18.3 8.5L18.35 9.25Q18.35 10.9 17.8 12.35Q17.15 14.05 15.7 15.4Q13.1 17.8 9.6 17.85Q6.05 17.75 3.6 15.4Q1.4 13.35 1.05 10.55L2.15 11.05L2.15 11.1L2.3 11.35L2.9 11.45L3.1 11.35L4 11.65Q4.4 12.65 5.3 13.5M11.8,2.85L12.05 3.05L12.05 3.15Q11.95 3.4 11.6 3.35L11.3 2.95L11.5 2.75L11.8 2.85M16.8,8.2L16.9 8.15L17.4 8.2L17.65 8.45L17.5 8.6Q16.8 8.9 16.7 8.35L16.8 8.2M2.9,9.7Q2.25 9.8 2.25 9.3Q2.25 9.15 2.4 9.15L2.8 9.2L3.05 9.45L3.05 9.5L2.9 9.7M8.55,15.9L8.4 15.7L8.2 15.55L8 15.65Q7.85 15.9 8.1 16.05Q8.3 16.25 8.5 16.05L8.55 15.9M3.6,13.45Q3.55 13.45 3.45 13.55Q3.2 13.95 3.65 13.75Q4.05 13.65 3.6 13.45M16.4,12.7L16.2 12.6L16 12.55Q15.8 12.55 15.7 12.7L15.55 13.2L15.65 13.5L15.9 13.45L16.35 13.05L16.45 12.75L16.4 12.7M14.9,14.45L14.8 14.55Q14.45 15 14.95 14.8Q15.35 14.7 14.9 14.45M12.3,15.85L12.25 15.8L12 15.7L11.7 15.65L11.25 15.9L11.15 16.1L11.15 16.2Q11.4 16.65 12.1 16.55L12.3 16.45L12.35 16.3L12.35 16L12.3 15.85" />
<path style="fill:#7E6A3D;fill-opacity:1" d="M13.2,7.65L13.45 7.5L13.45 7.35L13.45 7.2L13.45 7.15L13.4 7.05L13.3 7L13.2 6.9L13.1 6.85L12.6 7.1L12.5 7.15L12.45 7.3L11.95 7.3L11.85 7.05L11.75 7L11.75 6.95L11.35 6.55L11.45 6.25L11.1 6.2L10.7 6.15L10.5 6.35L10.45 6.55L10.45 6.65L10.45 6.7L9.4 6.6L9.45 6.45Q9.35 6.3 9.2 6.3L8.6 6.25L8.5 6.35L8.15 6.5L8.05 6.65Q6.45 6.8 5.2 7.3Q5.45 6.75 5.95 6.25Q6.7 5.35 7.7 5L8.2 4.85L9.35 4.6L9.75 4.6L10.95 4.75L11.35 4.85Q12.2 5.15 13 5.8Q14.25 6.9 14.5 8.5L13.2 7.65M7.45,8.2L7.45 8.25L7.35 8.4L6.7 8.45L6.35 8.1L6.35 8.05L6.4 7.9L6.55 7.75L6.7 7.65Q6.95 7.6 7.1 7.8L7.4 8.1L7.45 8.2M11.9,8.45L12 8.35Q12.55 8.45 12.1 8.65Q11.6 8.9 11.9 8.45" />
<path style="fill:#675232;fill-opacity:1" d="M12.35,12.2L12.35 12.25L12.35 12.4L12.1 12.6L11.65 12.6L11.6 12.45L11.55 12.35L11.45 12.35L11.45 12.3L11.35 12.05Q11.1 11.8 10.75 11.7L10.1 11.55L9.95 11.6L9.85 11.8L9.85 11.95L9.85 12.05L9.85 12.2L10 12.3L10.2 12.4L9.15 12.4L9.15 12.35Q9.2 11.95 8.8 11.95L8.65 12Q8.5 12.15 8.5 12.35L7.75 12.3L7.5 12.3L5.5 12Q4.8 10.9 4.75 9.6Q4.65 8.35 5.2 7.3Q6.45 6.8 8.05 6.65L8.15 6.5L8.5 6.35L8.6 6.25L9.2 6.3Q9.35 6.3 9.45 6.45L9.4 6.6L10.45 6.7L10.45 6.65L10.45 6.55L10.5 6.35L10.7 6.15L11.1 6.2L11.45 6.25L11.35 6.55L11.75 6.95L11.75 7L11.85 7.05L11.95 7.3L12.45 7.3L12.5 7.15L12.6 7.1L13.1 6.85L13.2 6.9L13.3 7L13.4 7.05L13.45 7.15L13.45 7.2L13.45 7.35L13.45 7.5L13.2 7.65L14.5 8.5L14.55 9.3Q14.55 10.65 13.9 11.75L12.35 12.2M7.4,8.1L7.1 7.8Q6.95 7.6 6.7 7.65L6.55 7.75L6.4 7.9L6.35 8.05L6.35 8.1L6.7 8.45L7.35 8.4L8.3 9.1L8.15 9.7L8.45 9.7L8.85 9.45L9.4 9.8L10.4 9.95L10.35 9.7L9.35 9L9.5 8.8L9.7 8.6L10 8.75L11.15 8.8L10.9 8.4L9.85 8L9.7 7.65L9.55 7.75L9.5 7.8L8.5 7.55Q8.3 7.55 8.4 7.65L9.05 8.2L8.6 8.65L7.45 8.2L7.4 8.1M12.1,8.65Q12.55 8.45 12 8.35L11.9 8.45Q11.6 8.9 12.1 8.65M12.3,9.65L12.3 9.85L13.1 10.05L13.35 9.9L13.35 9.8L13.35 9.7L13.35 9.6L13.35 9.55L13.3 9.45L13.1 9.3L12.8 9.2L12.6 9.15L12.4 9.4L12.3 9.65M5.65,10.4Q5.65 10.9 6.3 11L6.85 10.6L6.8 10.4Q6.6 10.15 6.3 10.25L5.8 10.25Q5.65 10.25 5.65 10.4" />
<path style="fill:#55442B;fill-opacity:1" d="M13.9,11.75L13.05 12.8Q11.6 14.15 9.6 14.2Q7.6 14.1 6.2 12.8L5.5 12L7.5 12.3L7.75 12.3L8.5 12.35Q8.5 12.15 8.65 12L8.8 11.95Q9.2 11.95 9.15 12.35L9.15 12.4L10.2 12.4L10 12.3L9.85 12.2L9.85 12.05L9.85 11.95L9.85 11.8L9.95 11.6L10.1 11.55L10.75 11.7Q11.1 11.8 11.35 12.05L11.45 12.3L11.45 12.35L11.55 12.35L11.6 12.45L11.65 12.6L12.1 12.6L12.35 12.4L12.35 12.25L12.35 12.2L13.9 11.75M7.45,8.25L7.45 8.2L8.6 8.65L9.05 8.2L8.4 7.65Q8.3 7.55 8.5 7.55L9.5 7.8L9.55 7.75L9.7 7.65L9.85 8L10.9 8.4L11.15 8.8L10 8.75L9.7 8.6L9.5 8.8L9.35 9L10.35 9.7L10.4 9.95L9.4 9.8L8.85 9.45L8.45 9.7L8.15 9.7L8.3 9.1L7.35 8.4L7.45 8.25M12.4,9.4L12.6 9.15L12.8 9.2L13.1 9.3L13.3 9.45L13.35 9.55L13.35 9.6L13.35 9.7L13.35 9.8L13.35 9.9L13.1 10.05L12.3 9.85L12.3 9.65L12.4 9.4M5.8,10.25L6.3 10.25Q6.6 10.15 6.8 10.4L6.85 10.6L6.3 11Q5.65 10.9 5.65 10.4Q5.65 10.25 5.8 10.25" />
</g>
</svg>
