<?xml version="1.0" encoding="utf-8"?>
<svg version="1.1" id="Layer_1"
xmlns="http://www.w3.org/2000/svg"
xmlns:xlink="http://www.w3.org/1999/xlink"
xmlns:author="http://www.sothink.com"
width="22px" height="21px"
xml:space="preserve">
<g id="1229" transform="matrix(1, 0, 0, 1, 0, 0)">
<path style="fill:#191919;fill-opacity:1" d="M0.9,14.7L0.95 14.6L1.7 12.85Q5.25 5.5 13.35 4.1L15.7 4.25L16.8 4.6L18.55 5.55L18.85 5.75Q20.55 6.9 21.15 9.6L21.2 10Q21.65 12.9 19.65 15.7Q18.7 17.05 16.65 18.35Q14.6 19.65 12 20.35L6.35 20.5Q3.3 19.85 1.75 18.3L1.7 18.25Q0.95 17.5 0.75 16.75Q0.45 15.8 0.85 14.85L0.9 14.7M9.75,6.5Q5.35 8.65 3.35 12.45L2.75 13.7L2.4 14.65L2.4 14.7L2.1 15.65L2.1 16Q7.15 16.45 11.75 14.25Q15.7 12.4 18.85 8.85L19.3 7.85L18.8 7.1L17.25 6L16.5 5.65L16.35 5.6L13.95 5.3Q12.05 5.4 9.75 6.5M5.5,19Q7.95 20.05 11.5 19.1Q15.05 18.1 17.15 16.25Q19.15 14.45 19.55 12.8L19.7 12.3L19.9 10.1Q19.8 9.05 19.75 9.6Q17.85 12 13.85 14.55Q9.8 17.05 2.55 17.2Q2.95 17.75 4.55 18.55L5.5 19" />
<path style="fill:#792E0A;fill-opacity:1" d="M3.55,5Q2.8 6.2 2.35 7.8L2.1 8.55Q1.4 11.35 1.7 12.85L0.95 14.6L0.9 14.7L0.85 14.85L0.65 14.55Q0.15 13.8 0.05 12.2Q-0.25 9.6 1 6.35Q1.25 5.6 1.65 4.9Q2.9 2.5 5.35 0.75Q7.3 -0.25 10.05 0.05Q12.75 0.35 15.2 1.8Q16 2.25 16.65 2.85L18.2 4.6L18.75 5.6L18.85 5.75L18.55 5.55L16.8 4.6L15.7 4.25L13.9 2.95L12.6 2.3L12.5 2.25Q8.8 0.75 5.95 2.45Q4.5 3.35 3.55 5" />
<path style="fill:#353535;fill-opacity:1" d="M17.25,6L18.8 7.1L19.3 7.85L18.85 8.85Q15.7 12.4 11.75 14.25Q7.15 16.45 2.1 16L2.1 15.65L2.4 14.7L4.55 14.45Q7.8 13.95 9.9 12.75L13.9 9.95Q16.5 7.75 16.5 6.6L16.35 5.7L16.5 5.65L17.25 6M19.7,12.3L19.55 12.8Q19.15 14.45 17.15 16.25Q15.05 18.1 11.5 19.1Q7.95 20.05 5.5 19L4.55 18.55Q9.4 18.45 14.2 16.25Q17.9 14.55 19.7 12.3" />
<path style="fill:#7B7B7B;fill-opacity:1" d="M12.1,7.3Q11.2 7.8 9 9.4Q9.75 10.15 9 11.2Q8.25 12.25 7.55 12.3L6.5 12.2L5.95 11.65Q5.05 11.85 3.85 12.7L2.75 13.7L3.35 12.45L3.75 12Q5.6 10.3 6.05 10.6L6.6 10.9L6.95 10.8L7.55 10.55L7.9 9.8Q7.95 9.2 7.5 8.8Q9.35 7.4 10.95 6.55Q12.3 5.85 13.95 5.3L16.35 5.6L16.35 5.7Q14.3 6.05 12.1 7.3" />
<path style="fill:#BF7A24;fill-opacity:1" d="M3.55,5Q4.6 4.25 6.1 3.6Q9.25 2.25 12.1 2.25L12.5 2.25L12.6 2.3L13.9 2.95L13.1 3Q9.9 3.05 7.05 4.7Q4.15 6.3 2.95 8.8L2.35 7.8Q2.8 6.2 3.55 5" />
<path style="fill:#E5AA38;fill-opacity:1" d="M5.95,2.45Q8.8 0.75 12.5 2.25L12.1 2.25Q9.25 2.25 6.1 3.6Q4.6 4.25 3.55 5Q4.5 3.35 5.95 2.45" />
<path style="fill:#A66221;fill-opacity:1" d="M15.7,4.25L13.35 4.1Q5.25 5.5 1.7 12.85Q1.4 11.35 2.1 8.55L2.35 7.8L2.95 8.8Q4.15 6.3 7.05 4.7Q9.9 3.05 13.1 3L13.9 2.95L15.7 4.25" />
<path style="fill:#5F5F5F;fill-opacity:1" d="M2.4,14.65L2.75 13.7L3.85 12.7Q5.05 11.85 5.95 11.65L6.5 12.2L7.55 12.3Q8.25 12.25 9 11.2Q9.75 10.15 9 9.4Q11.2 7.8 12.1 7.3Q14.3 6.05 16.35 5.7L16.5 6.6Q16.5 7.75 13.9 9.95L9.9 12.75Q7.8 13.95 4.55 14.45L2.4 14.7L2.4 14.65M14.2,16.25Q9.4 18.45 4.55 18.55Q2.95 17.75 2.55 17.2Q9.8 17.05 13.85 14.55Q17.85 12 19.75 9.6Q19.8 9.05 19.9 10.1L19.7 12.3Q17.9 14.55 14.2 16.25" />
<path style="fill:#959595;fill-opacity:1" d="M13.95,5.3Q12.3 5.85 10.95 6.55Q9.35 7.4 7.5 8.8Q7.95 9.2 7.9 9.8L7.55 10.55L6.95 10.8L6.6 10.9L6.05 10.6Q5.6 10.3 3.75 12L3.35 12.45Q5.35 8.65 9.75 6.5Q12.05 5.4 13.95 5.3" />
</g>
</svg>
