<?xml version="1.0" encoding="utf-8"?>
<svg version="1.1" id="Layer_1"
xmlns="http://www.w3.org/2000/svg"
xmlns:xlink="http://www.w3.org/1999/xlink"
xmlns:author="http://www.sothink.com"
width="31px" height="36px"
xml:space="preserve">
<g id="1241" transform="matrix(1, 0, 0, 1, 4.6, 9.65)">
<path style="fill:#2E201B;fill-opacity:1" d="M9.9,17.85L10.75 20L10 20.35L9.85 20.1L6.1 11.05L6.85 11.55L7.1 11.6L7.7 11.85L9.9 17.85M13,19.15L12.55 18.1L9.85 11.45L9.55 10.75L9.6 10.6L9.7 10.4L9.85 9.3L9.9 8.75L13.95 19L13 19.15" />
<path style="fill:#513727;fill-opacity:1" d="M7.7,11.85L8.65 12.15L10.55 16.95L11.4 19.65L10.8 19.95L10.75 20L9.9 17.85L7.7 11.85" />
<path style="fill:#8E6755;fill-opacity:1" d="M9.15,11.45L9.55 10.85L9.55 10.75L9.85 11.45L12.55 18.1L13 19.15L12.35 19.3Q11.25 16.15 9.15 11.45" />
<path style="fill:#3A3634;fill-opacity:1" d="M0.7,-4.3L1 -4.3L1.65 -4.4L1.75 -4.5L2.5 -5.1L2.65 -5.35L2.15 -5.9L1.8 -6.35L1.2 -7.05L0.9 -7.4L0.65 -7.7L0.25 -8.25L0.1 -8.3L0.15 -4.45L0.45 -4.4L0.7 -4.3M9.85,9.3L9.7 10.4L9.6 10.6L9.55 10.75L9.55 10.85L9.15 11.45L8.95 11.9L8.95 12L8.9 12.05L8.75 12.05L8.7 12.15L8.65 12.15L7.7 11.85L7.1 11.6L6.85 11.55L6.1 11.05L5.25 10.35L4.9 10.5L3.7 10.45L2.9 8.65L-1.55 8.65Q-1.8 8.1 -1.4 7.7L-0.5 6.95L1.3 5.2L1.1 4.6L-1.85 4.75Q-3.3 4.85 -3.05 4.55L-2.8 4.2L-1.75 2.7L-0.3 1.3L-0.5 0.75L-4.15 1.1Q-5.15 1.15 -3.8 -0.35L-2.45 -1.75L-1.65 -2.45L-1.9 -3.15L-1.25 -4.05L-0.55 -4.7L-0.5 -7.05L-0.45 -9.1L-0.3 -9.65L0.3 -9.2L1.6 -7.7L2.95 -6.1L4 -6.2L4.95 -5.95L5.25 -5.4L6.4 -5.45L8.4 -5.4L9.45 -5.3Q10.1 -5.15 9.65 -4.7L6.8 -2.3Q7.05 -1.75 7.3 -1.8L9.15 -1.75L11.35 -1.5Q11.7 -1.45 10.75 -0.45L8.55 1.6L8.85 2.2L12.5 1.85Q13.2 1.8 13.3 2.45L10.25 5.65L11.05 7.45Q11.15 7.7 9.9 8.45L9.9 8.75L9.85 9.3M10.75,20L10.8 19.95L11.4 19.65L12.35 19.3L13 19.15L13.95 19L14.4 20.05L14.75 20.95Q16.05 23.55 15.4 24.65Q14.8 25.85 13.35 25.4Q12.8 25.2 12.1 24.25L11.95 24.1L10.4 21.4L10 20.35L10.75 20M-0.6,-3.1L-0.65 -3.05L-0.55 -3.05L0.15 -2.95L1.7 -3.3L2 -3.45L2.35 -3.6L3.65 -4.35L3.85 -4.5L4.2 -4.9L4.1 -5.1L3.35 -5.3L3.25 -4.9L3.2 -4.8Q2.95 -4.4 2.25 -3.95L2.2 -3.9L1.55 -3.65L1.35 -3.65L1 -3.6L0.35 -3.6L0.1 -3.65L-0.05 -3.7L-0.15 -3.75L-0.55 -3.4L-0.6 -3.1M2.45,-0.25Q2.4 -0.1 2.5 -0.1L2.85 0.25L3.35 0.3L3.65 0.25L4.05 -0.1L4.1 -0.25L4.15 -0.95Q4 -1.25 3.55 -1.35L3.6 -1.4L3.45 -1.35L2.9 -1.4L2.65 -1.1L2.5 -0.8L2.5 -0.75Q2.35 -0.5 2.45 -0.25M2.7,-1.9L3.1 -2.05L3.95 -2Q4.6 -1.85 4.85 -1.2Q5.1 -0.55 4.85 0L4.4 0.55L3.9 0.85L3.6 0.95L2.65 0.9L1.85 0.15Q1.6 -0.35 1.8 -0.95L2.35 -1.7L2.7 -1.9M4.6,9.45L6.5 9.05L6.6 9.05L7.35 8.8L7.4 8.8L7.85 8.6L8.3 8.4L8.4 8.3L8.75 8.1L9.45 7.55L9.65 7.3L6.15 -0.8L5.1 -3.25L4.65 -4Q3.85 -3.25 2.8 -2.7L2.4 -2.5L2.05 -2.35L-0.25 -2L1.85 3.1L4 8.05L4.2 8.4L4.6 9.45M5.25,2.25L5.35 2.25L5.8 2.3Q6.5 2.45 6.7 3.05L6.8 3.5L6.8 4L6.45 4.65L5.8 5.05L5.55 5.15L4.95 5.15L4.1 4.8Q3.7 4.5 3.65 4.1L3.6 3.6L3.75 3.15L4.2 2.55L4.3 2.45L4.8 2.25L5.25 2.25M5.95,-4.45L6.1 -4L6.3 -3.3L8.05 -4.6L7.7 -4.5L5.95 -4.45M10.05,-0.95L7.55 -0.8L7.95 0.05L8.15 0.55L10.05 -0.95M10,4.6L11.3 3.35L11.8 2.8L9.2 3.15L9.6 4.1L9.7 4.15L10 4.6M5.55,2.9Q5.2 2.7 4.8 2.9Q4.65 2.95 4.55 3.1L4.5 3.2L4.45 3.25L4.35 3.45L4.25 3.9L4.35 4.1L4.4 4.2L4.75 4.55L5.3 4.6L5.45 4.55L5.8 4.35L5.9 4.2L5.95 4.1L5.95 4.05L6.05 3.9L6.1 3.5L6.05 3.35L5.6 3L5.55 2.95L5.55 2.9M-1.45,3.9L0.7 3.75L0.35 2.85L0.05 2.2L-1 3.45L-1.45 3.9M2.05,6.85L1.75 6.05L0.2 7.3L0 7.5L-0.35 7.9L2.4 7.75L2.15 7.05L2.05 6.85M8.45,11.05L8.5 11.05L8.6 10.85L8.7 10.55L8.8 9.9L8.65 9.4L8.3 9.6L7.9 9.8L7.75 9.85L7.7 9.9L7.05 10.1L6.95 10.15L7.25 10.65L7.95 11.1L8.25 11.15L8.3 11.1L8.45 11.05M11.7,20.7L11.65 20.75L11.2 20.95L12.15 22.9L12.35 23.1L12.85 23.85Q13.5 24.5 13.95 24.15Q14.55 23.65 14.3 22.7L13.35 20.1L12.75 20.25L11.7 20.7M-1.4,-1.75L-2.6 -0.4L-3.1 0.2L-0.8 -0.1L-1.1 -0.85L-1.4 -1.75" />
<path style="fill:#644638;fill-opacity:1" d="M12.35,19.3L11.4 19.65L10.55 16.95L8.65 12.15L8.7 12.15L8.75 12.05L8.9 12.05L8.95 12L8.95 11.9L9.15 11.45Q11.25 16.15 12.35 19.3" />
<path style="fill:#E0D8D4;fill-opacity:1" d="M-0.55,-3.05L-0.65 -3.05L-0.6 -3.1L-0.55 -3.4L-0.1 -3.3L-0.55 -3.05M3.4,-2.7L2.9 -2.5L3.1 -2.05L2.7 -1.9L2.35 -1.7L2.15 -2.15L1.55 -1.75Q0.6 -0.8 2.55 4L4 8.05L1.85 3.1L-0.25 -2L2.05 -2.35L2.4 -2.5L2.8 -2.7Q3.85 -3.25 4.65 -4L5.1 -3.25L3.4 -2.7M6.5,7.05L5.55 5.15L5.8 5.05L6.45 4.65L6.65 5.1L7.35 6.5L6.9 6.7L6.65 6.8L6.6 6.8L6.5 7.05M5.25,2.25L4.8 2.25L4.3 2.45L4.1 2.05L3.6 0.95L3.9 0.85L4.4 0.55L5.25 2.25M13.45,22.9Q13.4 22.2 12.75 20.25L13.35 20.1L14.3 22.7Q14.55 23.65 13.95 24.15Q13.5 24.5 12.85 23.85Q13.4 23.55 13.45 22.9" />
<path style="fill:#ACA49F;fill-opacity:1" d="M2.1,-4.95L2.25 -5.3L1.95 -5.85L1.65 -6.35L1.6 -6.4L1.2 -7.05L1.8 -6.35L2.15 -5.9L2.65 -5.35L2.5 -5.1L1.75 -4.5L2.1 -4.95M1,-4.3L0.7 -4.3L0.45 -4.4L0.55 -5.4L0.55 -5.7L0.45 -7.1L1 -6.7L1.05 -6.65L1.25 -6.25L1.55 -5.75L1.7 -5.45Q1.8 -5.2 1.3 -4.6L1.2 -4.55L1 -4.3M-0.1,-3.3L0.6 -3.3L2.2 -3.65L2.3 -3.7Q3.3 -4.05 3.3 -4.5L3.45 -4.7L3.5 -4.7L3.6 -4.65L3.85 -4.5L3.65 -4.35L2.35 -3.6L2 -3.45L1.7 -3.3L0.15 -2.95L-0.55 -3.05L-0.1 -3.3M2.5,-0.1Q2.4 -0.1 2.45 -0.25Q2.35 -0.5 2.5 -0.75L2.85 -0.7L3.35 -0.5L3.3 -0.45L3.05 -0.25L2.5 -0.1M4.1,2.05L4.3 2.45L4.2 2.55L3.75 3.15L3.6 3.6L3.65 4.1Q3.7 4.5 4.1 4.8L4.95 5.15L5.55 5.15L6.5 7.05L6.35 7.4L6.15 7.55L5.55 7L5.1 7.5L4.9 7.95L4.85 8L4.2 8.4L4 8.05L2.55 4Q0.6 -0.8 1.55 -1.75L2.15 -2.15L2.35 -1.7L1.8 -0.95Q1.6 -0.35 1.85 0.15L2.65 0.9L3.6 0.95L4.1 2.05M4.4,0.55L4.85 0Q5.1 -0.55 4.85 -1.2Q4.6 -1.85 3.95 -2L3.1 -2.05L2.9 -2.5L3.4 -2.7L5.1 -3.25L6.15 -0.8L7.1 3.15L7.15 3.35Q7.6 5.4 7.5 6.15L7.35 6.5L6.65 5.1L6.45 4.65L6.8 4L6.8 3.5L6.7 3.05Q6.5 2.45 5.8 2.3L5.35 2.25L5.25 2.25L4.4 0.55M7.7,-4.5L7 -4.2L6.1 -4L5.95 -4.45L7.7 -4.5M7.55,-0.8L10.05 -0.95L8.95 -0.4L7.95 0.05L7.55 -0.8M9.7,4.15L9.6 4.1L9.2 3.15L11.8 2.8L11.3 3.35L9.7 4.15M4.55,3.2L4.6 3.2L5.3 3.55L5.35 3.6L5.25 3.65L4.95 3.95L4.75 4.1L4.65 4.15L4.4 4.2L4.35 4.1L4.25 3.9L4.35 3.45L4.45 3.25L4.5 3.2L4.55 3.2M-1,3.45L0.05 2.2L0.35 2.85L-1 3.45M0.2,7.3L1.75 6.05L2.05 6.85L0 7.5L0.2 7.3M8.8,9.9L8.7 10.55L8.6 10.85L8.5 11.05L8.45 11.05L8.3 11.1L8.2 10.95L7.9 10.25L7.95 10.3L8.1 10.25L8.5 10.05L8.8 9.9M11.7,20.7L12.75 20.25Q13.4 22.2 13.45 22.9Q13.4 23.55 12.85 23.85L12.35 23.1L12.15 22.9L11.7 20.7M-1.1,-0.85L-0.8 -0.1L-3.1 0.2L-2.6 -0.4L-1.1 -0.85" />
<path style="fill:#766D67;fill-opacity:1" d="M1.75,-4.5L1.65 -4.4L1 -4.3L1.2 -4.55L1.3 -4.6Q1.8 -5.2 1.7 -5.45L1.55 -5.75L1.25 -6.25L1.05 -6.65L0.25 -8.25L0.65 -7.7L0.9 -7.4L1.2 -7.05L1.6 -6.4L1.65 -6.35L1.95 -5.85L2.25 -5.3L2.1 -4.95L1.75 -4.5M3.6,-4.65L3.5 -4.7L3.45 -4.7L3.3 -4.5Q3.3 -4.05 2.3 -3.7L2.2 -3.65L0.6 -3.3L-0.1 -3.3L-0.55 -3.4L-0.15 -3.75L-0.05 -3.7L0.1 -3.65L0.35 -3.6L1 -3.6L1.35 -3.65L1.55 -3.65L2.2 -3.9L2.25 -3.95Q2.95 -4.4 3.2 -4.8L3.25 -4.9L3.35 -5.3L4.1 -5.1L4.2 -4.9L3.85 -4.5L3.6 -4.65M3.05,-0.25L3.3 -0.45L3.35 -0.5L3.55 -1.1L3.55 -1.35Q4 -1.25 4.15 -0.95L4.1 -0.25L4.05 -0.1L3.65 0.25L3.35 0.3L2.85 0.25L2.5 -0.1L3.05 -0.25M6.6,6.8L6.65 6.8L6.9 6.7L7.35 6.5L7.5 6.15Q7.6 5.4 7.15 3.35L7.1 3.15L6.15 -0.8L9.65 7.3L9.45 7.55L8.75 8.1L8.4 8.3L8.3 8.4L7.85 8.6L7.4 8.8L7.35 8.8L6.6 9.05L6.5 9.05L4.6 9.45L4.2 8.4L4.85 8L4.9 7.95L5.1 7.5L5.55 7L6.15 7.55L6.35 7.4L6.5 7.05L6.6 6.8M7,-4.2L7.7 -4.5L8.05 -4.6L6.3 -3.3L6.1 -4L7 -4.2M8.15,0.55L7.95 0.05L8.95 -0.4L10.05 -0.95L8.15 0.55M9.7,4.15L11.3 3.35L10 4.6L9.7 4.15M4.65,4.15L4.75 4.1L4.95 3.95L5.25 3.65L5.35 3.6L5.55 2.95L5.6 3L6.05 3.35L6.1 3.5L6.05 3.9L5.95 4.05L5.95 4.1L5.9 4.2L5.8 4.35L5.45 4.55L5.3 4.6L4.75 4.55L4.4 4.2L4.65 4.15M0.35,2.85L0.7 3.75L-1.45 3.9L-1 3.45L0.35 2.85M2.15,7.05L2.4 7.75L-0.35 7.9L0 7.5L2.05 6.85L2.15 7.05M8.5,10.05L8.1 10.25L7.95 10.3L7.9 10.25L8.2 10.95L8.3 11.1L8.25 11.15L7.95 11.1L7.25 10.65L6.95 10.15L7.05 10.1L7.7 9.9L7.75 9.85L7.9 9.8L8.3 9.6L8.65 9.4L8.8 9.9L8.5 10.05M12.15,22.9L11.2 20.95L11.65 20.75L11.7 20.7L12.15 22.9" />
<path style="fill:#5F5F5F;fill-opacity:1" d="M-2.6,-0.4L-1.4 -1.75L-1.1 -0.85L-2.6 -0.4" />
<path style="fill:#F0F0F0;fill-opacity:1" d="M1.05,-6.65L1 -6.7L0.45 -7.1L0.55 -5.7L0.55 -5.4L0.45 -4.4L0.15 -4.45L0.1 -8.3L0.25 -8.25L1.05 -6.65M3.55,-1.1L3.35 -0.5L2.85 -0.7L2.5 -0.75L2.5 -0.8L2.65 -1.1L2.9 -1.4L3.45 -1.35L3.6 -1.4L3.55 -1.35L3.55 -1.1M4.5,3.2L4.55 3.1Q4.65 2.95 4.8 2.9Q5.2 2.7 5.55 2.9L5.55 2.95L5.35 3.6L5.3 3.55L4.6 3.2L4.55 3.2L4.5 3.2" />
<path style="fill:#6B3D3F;fill-opacity:1" d="M25.3,8.15L25.75 7.4L25.95 7.7L26 8.8L25.3 8.15" />
<path style="fill:#36271F;fill-opacity:1" d="M26,8.8L26 8.85L25.9 9L25.25 8.4Q24.05 7.2 23.2 6.65L21.45 5.8L21.4 5.75L20.4 5.55L19.9 5.35L19.55 5.1L20 5.15L21.65 5.5Q23.4 6.2 25.3 8.15L26 8.8" />
<path style="fill:#56656D;fill-opacity:1" d="M10.85,11.75L10.75 11.85L10.75 11.8L10.85 11.75" />
<path style="fill:#7F5C46;fill-opacity:1" d="M18.4,12.85L16.45 13.4L14.95 13.7L14.9 13.7L14.4 13L14.5 12.95L15.25 12.55L17.8 12.1L18.7 12.25L19.15 12.55Q18.95 12.45 18.4 12.85M12.5,20.8L11.55 20.95L11.35 21Q8.7 21.35 7.55 18.9Q10.1 18.2 10.85 17.35Q11 18.65 12.15 20.4L12.5 20.8" />
<path style="fill:#57351A;fill-opacity:1" d="M14.95,13.7L16.45 13.4L18.4 12.85Q18.95 12.45 19.15 12.55Q19.9 12.9 20.4 14.05Q21.35 16 19.75 17.35Q18.25 18.65 15.75 19.35Q16.25 17.85 15.85 16.1Q15.5 14.45 14.95 13.7M12.15,20.4Q11 18.65 10.85 17.35Q10.1 18.2 7.55 18.9L7.45 18.6L7.1 17.25L7.05 17.3L7 16.45Q6.8 14.7 9.2 13.9Q11.6 13.1 13 13.3L13.25 13.35Q13.65 13.55 13.9 13.8L14.05 13.9L14.55 14.8Q15.15 16.1 15.1 17.35Q15.05 19.25 14.05 20Q13.4 20.55 12.5 20.8L12.15 20.4" />
<path style="fill:#1C100B;fill-opacity:1" d="M18.45,11.45Q19.55 11.65 20.4 12.6L21.45 14.3L21.7 15.15L21.6 16.25L21.55 16.25L20.65 17.75Q20.05 18.6 16.9 19.9L15.2 20.45L13.05 21.4L13 21.45L12.45 21.65Q9.55 22.6 7.9 21.2Q7.25 20.65 6.65 19.1L6.55 18.9L6.3 17.95Q5.6 15.9 6.35 14.5Q7.05 13 8.65 12.55L10.85 12.05L11.85 12.05L12.9 12.25L13.3 12.4Q13.25 12.3 14.1 12L16.65 11.4L16.8 11.35L17.7 11.3L18.45 11.45M15.85,16.1Q16.25 17.85 15.75 19.35Q18.25 18.65 19.75 17.35Q21.35 16 20.4 14.05Q19.9 12.9 19.15 12.55L18.7 12.25L17.8 12.1L15.25 12.55L14.5 12.95L14.4 13L14.9 13.7L14.95 13.7Q15.5 14.45 15.85 16.1M11.35,21L11.55 20.95L12.5 20.8Q13.4 20.55 14.05 20Q15.05 19.25 15.1 17.35Q15.15 16.1 14.55 14.8L14.05 13.9L13.9 13.8Q13.65 13.55 13.25 13.35L13 13.3Q11.6 13.1 9.2 13.9Q6.8 14.7 7 16.45L7.05 17.3L7.1 17.25L7.45 18.6L7.55 18.9Q8.7 21.35 11.35 21" />
<path style="fill:#BD8E6D;fill-opacity:1" d="M17.7,11.3L17.65 10.4L17.85 8.6Q18.15 7.05 19.4 5.75L19.9 5.35L20.4 5.55L21.4 5.75L21 6.25Q19.65 7.65 19.05 9Q18.65 9.7 18.5 10.8Q18.4 11.05 18.45 11.45L17.7 11.3" />
<path style="fill:#775135;fill-opacity:1" d="M18.45,11.45Q18.4 11.05 18.5 10.8Q18.65 9.7 19.05 9Q19.65 7.65 21 6.25L21.4 5.75L21.45 5.8L23.2 6.65Q24.05 7.2 25.25 8.4L24.3 11.6Q23.35 13.85 21.7 15.15L21.45 14.3L20.4 12.6Q19.55 11.65 18.45 11.45" />
<path style="fill:#4A2B1A;fill-opacity:1" d="M19.55,5.1L19.9 5.35L19.4 5.75Q18.15 7.05 17.85 8.6L17.65 10.4L17.7 11.3L16.8 11.35L16.65 11.4L16.6 10.45Q16.65 9.75 17.4 7.5Q18.15 5.05 20.3 4.35L20.55 4.7L20 5.15L19.55 5.1M21.7,15.15Q23.35 13.85 24.3 11.6L25.25 8.4L25.9 9L26 8.85L25.25 11.4Q24.1 14.25 23 15.35Q21.85 16.3 21.6 16.25L21.7 15.15" />
</g>
</svg>
