<?xml version="1.0" encoding="utf-8"?>
<svg version="1.1" id="Layer_1"
xmlns="http://www.w3.org/2000/svg"
xmlns:xlink="http://www.w3.org/1999/xlink"
xmlns:author="http://www.sothink.com"
width="63px" height="78px"
xml:space="preserve">
<g id="2946" transform="matrix(1, 0, 0, 1, -19.65, -1.3)">
<path style="fill:#232323;fill-opacity:1" d="M31.5,35.55Q29.25 35.15 27.65 36Q27.95 33.65 28.75 31.95L30.9 34.9L31.5 35.55" />
<path style="fill:#0E0A0B;fill-opacity:1" d="M69.1,22.9Q68.25 13.65 65.9 12.05Q63.5 10.35 67.25 11.55L68.05 11.95Q71 13.85 71.65 22.1Q72 27.45 73.45 31.25L71.45 31.95Q69.45 27.35 69.1 22.9M53.45,70.95Q51.5 68.6 52.1 67.9Q54.3 70 56.4 71.05L58.1 71.8L55.65 72.75Q54.2 71.9 53.45 70.95M33.85,65.45L43.9 67.75Q43.95 64.4 43.25 61L42 56.65Q42.1 56.45 42.2 56.6Q44.15 57.3 45.3 59.1Q46.4 60.8 46.7 63.6L46.9 66.8Q48.75 66.2 53.4 63.6Q57.9 61 58.95 59.8L61.75 55.8Q63.05 53.55 63.45 51.8L63.4 53.6L63.5 55Q63.5 57.65 61.45 60.55L58.85 62.75Q56.05 64.9 51.8 67.55L51.9 67.75L45.15 70.7Q47 72.9 49.15 74.25L44.75 74.45Q43.1 72.6 42.8 70.9Q39 70.6 31.65 67.7Q24.55 61.65 23.8 58.7Q23 55.65 23.65 53.2Q24.3 50.7 24.25 47.8L24.4 47.5L24.25 47.45Q20.8 46.15 20.25 44.45Q19.55 42.8 19.7 41.6Q19.7 40 20.9 39.05Q22.8 37.3 24.3 37.05Q24 34.15 26.9 30.05Q25.45 27.35 24.7 24.8Q23.85 22.15 24.45 18.7L25.25 16.3Q26.4 12.4 30.4 10.15L36.15 6.4L37.25 5.55Q39.25 3.95 41.2 3.1L41.2 3.65Q40.75 6.9 36.15 10.05L33.1 11.95Q23.55 17 29.35 27.25Q29.55 28.2 30.25 29.45L31.8 32.25Q33.4 34.9 38.25 36.75Q43.9 36.4 46.4 40.05L46.35 40.1Q46.75 40.7 47.05 42.6L54.3 42.35Q44.25 46.2 40.4 52.3Q40.65 54.35 39.75 55.85Q35.7 49.45 35 45.7Q34 45.6 33.1 45Q34.1 43.85 35.5 43.3Q36.4 42.85 36.2 41.55Q35.9 40.2 34.25 39.45Q32.55 38.65 30.15 38.35Q27.7 38.05 25.45 39.6Q23.1 41.1 23.6 42.85Q24 44.55 27.35 44.65Q30.5 44.7 29.15 45.4Q28 45.95 26.8 46.75L26.6 52.7Q26.4 55 26.65 57.85Q28.55 60.8 32.35 64.2L33.85 65.45M42.9,40.85L38.1 39.8L38.7 41.65Q38.95 43.35 37.75 44.5Q37.4 44.65 37.1 44.95L38.95 48.8Q41.5 45.3 45.15 43.6Q43.7 40.95 42.9 40.85M30.9,34.9L28.75 31.95Q27.95 33.65 27.65 36Q29.25 35.15 31.5 35.55L30.9 34.9" />
<path style="fill:#1C1417;fill-opacity:1" d="M54.7,73.1L49.15 74.25Q54.2 77.35 60.1 74.65Q57.4 73.8 55.65 72.75L58.1 71.8L61.6 72.7Q64.45 73.2 66.3 71.05Q66.15 62.65 71.35 57.2Q72.9 55.4 77.7 51.5Q81.65 46.8 77.9 42.4Q73.7 37.1 71.45 31.95L73.45 31.25Q74.5 34.35 76.35 36.4Q80.35 40.95 82.15 44.65L82.2 45.65Q82.2 48.85 80.65 51.55L81 51.3L80.55 51.75L80.3 52.15L80.1 52.45L79.55 52.85L72.9 59.55Q68.4 63.7 69.05 68.85Q69.65 73.7 64.1 75.45Q57.95 79 53.55 79.05Q50.9 79.05 48.95 77.8Q46.25 76.1 44.75 74.45L49.15 74.25Q47 72.9 45.15 70.7L51.9 67.75L51.8 67.55Q56.05 64.9 58.85 62.75L61.45 60.55Q63.5 57.65 63.5 55L63.4 53.6M42.2,56.6Q42.1 56.45 42 56.65L43.25 61L32.55 56.35L31.45 59.1L32.35 64.2Q28.55 60.8 26.65 57.85Q26.4 55 26.6 52.7L26.8 46.75Q28 45.95 29.15 45.4Q30.5 44.7 27.35 44.65Q24 44.55 23.6 42.85Q23.1 41.1 25.45 39.6Q27.7 38.05 30.15 38.35Q32.55 38.65 34.25 39.45Q35.9 40.2 36.2 41.55Q36.4 42.85 35.5 43.3Q34.1 43.85 33.1 45Q34 45.6 35 45.7Q35.7 49.45 39.75 55.85Q40.65 54.35 40.4 52.3Q44.25 46.2 54.3 42.35L47.05 42.6Q46.75 40.7 46.35 40.1L46.4 40.05Q43.9 36.4 38.25 36.75Q33.4 34.9 31.8 32.25L30.25 29.45Q29.55 28.2 29.35 27.25Q23.55 17 33.1 11.95L36.15 10.05Q40.75 6.9 41.2 3.65Q44.55 1.55 48.85 1.35L50 1.3L51.15 1.4Q55.1 1.55 58.85 3.4L62.1 5.05L68 11.75L68.05 11.95L67.25 11.55Q63.5 10.35 65.9 12.05Q68.25 13.65 69.1 22.9Q69.45 27.35 71.45 31.95Q67.45 33.65 65.15 37.55L63.1 41.15L62.7 41.45L62.5 41.9L60 42.35L59 45.65L60.7 48.85Q54.3 48.7 49.85 52.15Q45.95 55.05 45.3 59.1Q44.15 57.3 42.2 56.6M63.4,53.6L64.2 51.1L64.45 51.7L64.95 52.1Q67.15 55.8 63.55 65.8L63.5 65.8Q62.65 68.45 60.85 69.75Q58.95 71.05 58.1 71.8L56.4 71.05Q54.3 70 52.1 67.9Q51.5 68.6 53.45 70.95Q54.2 71.9 55.65 72.75Q55.15 72.85 54.7 73.1M45.15,43.6Q41.5 45.3 38.95 48.8L37.1 44.95Q37.4 44.65 37.75 44.5Q38.95 43.35 38.7 41.65L38.1 39.8L42.9 40.85Q43.7 40.95 45.15 43.6M68.8,43.4L68.8 44.05L68.7 44.2Q67.7 44.9 67.5 43.8Q66.2 39.2 68.8 43.4" />
<path style="fill:#3C3134;fill-opacity:1" d="M60.85,69.75Q62.65 68.45 63.5 65.8L63.55 65.8Q67.15 55.8 64.95 52.1L64.45 51.7L64.2 51.1L63.4 53.6L63.45 51.8Q63.05 53.55 61.75 55.8L58.95 59.8Q57.9 61 53.4 63.6Q48.75 66.2 46.9 66.8L46.7 63.6Q46.4 60.8 45.3 59.1Q45.95 55.05 49.85 52.15Q54.3 48.7 60.7 48.85L59 45.65L60 42.35L62.5 41.9L62.7 41.45L63.1 41.15L65.15 37.55Q67.45 33.65 71.45 31.95Q73.7 37.1 77.9 42.4Q81.65 46.8 77.7 51.5Q72.9 55.4 71.35 57.2Q66.15 62.65 66.3 71.05Q64.45 73.2 61.6 72.7L58.1 71.8Q58.95 71.05 60.85 69.75M54.7,73.1Q55.15 72.85 55.65 72.75Q57.4 73.8 60.1 74.65Q54.2 77.35 49.15 74.25L54.7 73.1M67.5,43.8Q67.7 44.9 68.7 44.2L68.8 44.05L68.8 43.4Q66.2 39.2 67.5 43.8M76.15,47.05L76.6 45.35Q74.4 40.4 72.65 43.4Q71.75 44.95 72.55 46.85Q74.2 51.1 76.15 47.05M32.35,64.2L31.45 59.1L32.55 56.35L43.25 61Q43.95 64.4 43.9 67.75L33.85 65.45L32.35 64.2M37.15,62.7Q38.35 64.2 40.7 63.55L40.95 62.75Q39.1 61.1 37.3 62.55L37.15 62.7M72.25,53.1Q68.9 52.55 69.55 56.25L69.65 56.35Q71.25 55.25 72.25 53.3L72.25 53.1M52.45,56.95Q52.35 57.35 53.05 57.4Q57.9 57.75 58.75 52.3Q53.8 51.5 52.45 56.95" />
<path style="fill:#625158;fill-opacity:1" d="M72.55,46.85Q71.75 44.95 72.65 43.4Q74.4 40.4 76.6 45.35L76.15 47.05Q74.2 51.1 72.55 46.85M37.3,62.55Q39.1 61.1 40.95 62.75L40.7 63.55Q38.35 64.2 37.15 62.7L37.3 62.55M72.25,53.3Q71.25 55.25 69.65 56.35L69.55 56.25Q68.9 52.55 72.25 53.1L72.25 53.3M58.75,52.3Q57.9 57.75 53.05 57.4Q52.35 57.35 52.45 56.95Q53.8 51.5 58.75 52.3" />
</g>
</svg>
