<?xml version="1.0" encoding="utf-8"?>
<svg version="1.1" id="Layer_1"
xmlns="http://www.w3.org/2000/svg"
xmlns:xlink="http://www.w3.org/1999/xlink"
xmlns:author="http://www.sothink.com"
width="33px" height="32px"
xml:space="preserve">
<g id="1431" transform="matrix(1, 0, 0, 1, 0.2, 1.9)">
<path style="fill:#283D69;fill-opacity:1" d="M28.95,18.4L29.45 18.2L29.15 21.85Q29.15 20.85 28.75 19.55L28.4 18.65L28.95 18.4" />
<path style="fill:#443B74;fill-opacity:1" d="M29.15,22.45L29.05 24.85L27.95 25.55L26.3 26.8L26.5 26.05L26.85 25.55L27.1 25.4L28.2 24.55L28.6 24L28.95 23.3L29.1 22.6L29.1 22.55L29.15 22.45" />
<path style="fill:#29253F;fill-opacity:1" d="M29.2,13.85L29.9 12.5L29.95 12.4L30.45 11.05L31.15 11.45L31.25 15.7L29.2 14.1L29.2 13.85" />
<path style="fill:#311C3F;fill-opacity:1" d="M17.85,26.2L17.85 25.55L17.65 23.7Q14.05 23 12.25 21.3L11.85 20.5L11.75 20.25L11.6 19.7Q11.4 18.9 11.7 18.1L13.95 18.65L16.25 19.55L18.3 20.75L18.95 21.2L19.8 21.9L20.75 22.6L21.2 22.85L21.6 22.6L22.45 21.95L22.85 21.6L23 21.5L23.1 21.45L24.7 20.3L26.3 19.45L26.4 19.4L26.5 19.35L26.5 19.55L26.05 21.35L25.5 22.1L23.55 23.6Q23.1 23.85 22.85 24.6L22.7 25.55Q22.6 26.05 22.65 26.7L22.65 28.05Q22.35 28.05 22 28.2L18.5 28.4L17.75 28.3L17.85 26.2" />
<path style="fill:#200C27;fill-opacity:1" d="M19.65,29.55L17.6 29.4L17.75 28.3L18.5 28.4L22 28.2Q22.35 28.05 22.65 28.05L22.65 29.05L19.65 29.55" />
<path style="fill:#2C1335;fill-opacity:1" d="M25.4,8.35L25.35 8.75L25.35 9.1L24.75 10.05L23.9 9.1L24 7.95L24 7.8L24 7.25L24 7L24.35 7.1L24.85 7.25L25.45 7.45L25.4 8.35M18.7,7.55L18.7 8.35L18.7 8.4L18.1 8.95L17.2 9.75L17.15 7.85L17.15 5.8L17.15 5.75L18.75 5.6L18.7 7.55M13.4,29.35L9.45 28.2L7.35 27.35L6.65 27.05L4.45 26.05L3.6 25.55L3.05 25.25L0.7 23.4L0.15 22.15L-0.15 16.6L-0.05 12.5L0.25 12.3L1.4 12.2L1.45 15.35L1.45 16.6Q1.5 19.75 1.9 22.6L4.05 24.05L6.9 25.55L8.85 26.45L8.95 26.4L8.95 26.45L13.05 27.7L14.1 28L14.1 29.5L13.4 29.35M31.2,17.45L30.7 23.2Q30.7 24.6 30.2 25.55Q29.65 26.55 28.6 27.1L26.05 28.4L26.15 28.3L26.05 28.35L26.3 26.8L27.95 25.55L29.05 24.85L29.15 22.45L29.15 21.85L29.45 18.2L30.8 17.6L31.2 17.45" />
<path style="fill:#512A70;fill-opacity:1" d="M13.6,26.15L14.05 26.55L14.1 28L13.05 27.7L8.95 26.45L8.95 26.4L8.85 26.45L6.9 25.55L4.05 24.05L3.95 23.55Q3.4 20.3 3.2 16.6L3.1 12.6L3.2 10.95L3.85 10.6L4.85 10.1L7.2 9.05L7.25 9.05L7.3 10.1Q7.4 13.9 8.3 15.15L7.8 15.75L7.55 16.2L7.35 16.6L7.3 16.8L7.15 17.5L7.15 17.7L8.65 17.75L9.4 17.8L8.5 18.95L7.95 20.15L7.7 22.7L7.95 23.6L8.1 23.95L8.25 24.3L8.9 25.55L9.2 25.9Q9.55 26.3 9.95 26.15Q12.65 25.75 13.6 26.15" />
<path style="fill:#7E52A1;fill-opacity:1" d="M25.65,8.45L25.35 9.1L25.35 8.75L25.4 8.35L25.65 8.45M16.05,7.35L16.15 9.2Q14.65 8.1 13.9 6.6L14.85 6.35Q15.9 6.65 16.05 7.35M1.9,22.6Q1.5 19.75 1.45 16.6L1.45 15.35L1.4 12.2L1.7 11.75L1.8 11.7L2.9 11.1L3.2 10.95L3.1 12.6L3.2 16.6Q3.4 20.3 3.95 23.55L4.05 24.05L1.9 22.6M7.3,10.1L7.25 9.05L7.75 8.85Q8.3 10.7 9.55 12.65L10.3 13.7L9.45 14.2L8.85 14.65L8.3 15.15Q7.4 13.9 7.3 10.1" />
<path style="fill:#AF87CD;fill-opacity:1" d="M29.2,14.1L29.1 14L29.2 13.85L29.2 14.1" />
<path style="fill:#DCBDF3;fill-opacity:1" d="M25.45,7.45L25.55 7.45L25.65 7.5L26 7.7L25.65 8.45L25.4 8.35L25.45 7.45M14.85,6.35L16.35 5.95L17.15 5.75L17.15 5.8L17.15 7.85L17.2 9.75L17.2 9.8L17.15 9.85L16.15 9.2L16.05 7.35Q15.9 6.65 14.85 6.35" />
<path style="fill:#D49E36;fill-opacity:1" d="M28.3,12.15L28.15 12.1L28.1 12.05Q27.25 11.65 27.25 11.25L27.8 10.1L28.1 9.2L28.15 9.15L28.45 8L28.55 7.4L28.65 7.05L28.8 6.1L28.9 4.35L28.9 3.8L28.7 2.35Q29.15 2.8 29.35 4.2L29.45 4.85L29.5 6.75L29.45 7.2L28.95 10.95L28.3 12.15M25.4,5.45L25.45 4.75L26.75 5.5L26.55 6.15L25.4 5.45M11.05,15.7L12.3 15.85L14.45 16.25Q16.25 16.75 17.9 17.6Q20 18.65 21.5 20.05L22.1 19.7L23.35 19.2L24.15 18.95L23.45 19.35L22.85 19.75L21.9 20.4L21.2 20.9L18.35 18.95Q16.5 17.7 14.9 17.1L13.65 16.75L13.5 16.7L9.2 16.35L9.8 15.65L11.05 15.7M26.2,15.8Q24.2 15.8 23.25 16.25L21.7 11.5L24.7 13.5Q25.8 14.2 26.7 14.85L27.65 15.55L28.15 15.9L26.4 15.8L26.2 15.8M24.8,24.65L26.4 23.4L26.6 23.2L27.05 22.5L27.25 22.05L26.95 23.5L26.65 24.4L26.6 24.4Q26.2 24.6 25.95 24.9L25.45 25.55L25.3 25.9L25.2 26.15L24.75 26.7L24.5 25.85L24.5 25.55L24.65 24.8L24.8 24.65M21.5,16.25Q19.5 14.85 16.7 14.2L15.35 13.95L14.75 13.9L14.1 13.85L14.45 13.7L17.75 12.35Q19.7 11.55 20.4 11.55L21.5 16.25M13.3,4.9L13.15 3.85L16.1 2.75L16.35 2.75L16.65 3.95L13.3 4.9M12.6,7L13 7.7Q14.05 9.5 15.65 10.6L15.85 10.75L15.15 11.2L14.8 11.35L14.6 11.45L14.5 11.5L13.65 11.4L12.7 10.25Q11.75 9.25 11 7.55L10.6 6.55L10.3 5.8L10.05 4.9L9.85 4.1L9.75 3.25L9.95 2.85L10.4 2.2L10.95 1.65L11.05 1.95L11.35 3.55L11.35 3.65L11.5 4.4L11.8 5.35L12 5.8L12.15 6.05L12.35 6.4L12.6 7M8.75,3.75L8.75 4.5L8.8 5.05L8.9 5.3L9.2 6.15L9.5 6.95L9.9 7.95L9.95 8Q10.95 10.45 12.8 12.35L12.3 12.65Q12.05 12.75 11.85 12.9Q9.95 10.35 9.4 8.6L9.3 8.2L9 7.15L8.85 6.25L8.7 5.35L8.7 4.55L8.7 4.5L8.75 3.75M7.4,6.75L5.9 7.2L4.1 7.8L3.7 7.95L3.5 8L1.85 8.55L1.95 7.5L4.05 6.85L4.3 6.75L6.95 5.9L7.35 5.8L7.4 6.75M10.8,21.8L10.75 21.85L10.45 22.6Q10.45 23.7 12.25 24.6L10.1 24.75L10.05 24.6L10 23L10.05 21.05L10.45 20.25Q10.5 21.1 10.8 21.8M15.45,26.5L15.15 25.55L16.05 25.65L15.95 28.55L15.4 28.4L15.5 27.35L15.45 26.5" />
<path style="fill:#BF6F21;fill-opacity:1" d="M28.9,3.8L28.9 4.35L28.8 6.1L28.65 7.05L28.55 7.4L28.45 8L28.15 9.15L28.1 9.2L27.8 10.1L27.25 11.25Q27.25 11.65 28.1 12.05L28.15 12.1L28.3 12.15L28.15 12.45L28.05 12.6L27.8 12.95L26.8 12.05L25.75 11.1L26.95 9.15L27.2 8.75L27.3 8.5L27.75 7.5L27.95 7L28.05 6.55L28.25 5.65L28.4 3.9L28.2 1.85L28.7 2.35L28.9 3.8M26.55,6.15L26.4 6.6L25.35 6.05L25.4 5.45L26.55 6.15M9.8,15.65Q10.3 15.15 11.1 14.7L12.3 13.95L12.45 14.6L12.95 14.35L13.75 14Q15.65 14 17.95 14.95Q19.95 15.75 21.45 17.05L22.75 18.35L24 17.55Q26 16.6 28.8 16.6L29.1 16.65L29.15 16.7L28.6 16.9Q26.45 17.6 24.15 18.95L23.35 19.2L22.1 19.7L21.5 20.05Q20 18.65 17.9 17.6Q16.25 16.75 14.45 16.25L12.3 15.85L11.05 15.7L9.8 15.65M24.65,24.8L24.5 25.55L24.5 25.85L24.75 26.7L25.2 26.15L25.1 26.6L25.1 26.85Q25 27.15 25.05 27.55L23.95 28L23.85 27.45L23.85 26.85Q23.85 26.15 24.1 25.55L24.2 25.35L24.65 24.8M13.3,4.9L16.65 3.95L16.8 4.5Q15.1 4.95 13.5 5.55L13.3 4.9M9.95,8L9.9 7.95L9.5 6.95L9.2 6.15L8.9 5.3L8.8 5.05L8.75 4.5L8.75 3.75L9 2.75L9.7 1.4L9.75 1.35L9.7 2.5L9.7 2.85L9.75 3.25L9.85 4.1L10.05 4.9L10.3 5.8L10.6 6.55L11 7.55Q11.75 9.25 12.7 10.25L13.65 11.4L14.5 11.5L13.55 11.95L13.15 12.15L12.8 12.35Q10.95 10.45 9.95 8M7.45,7.1L7.55 7.75L7.4 7.8L7.3 7.85L3.95 9.35L3.35 9.65L3.15 9.75L2.4 10.1L1.6 10.5L1.65 10.1L1.85 8.55L3.5 8L3.7 7.95L4.1 7.8L5.9 7.2L7.4 6.75L7.45 7.1M9.85,24.8Q7.7 20.85 10.65 17.95Q10.4 19.2 10.45 20.25L10.05 21.05L10 23L10.05 24.6L10.1 24.75L9.85 24.8" />
<path style="fill:#E7CB4C;fill-opacity:1" d="M25.45,4.75L25.5 3.7L25.55 3.7L26.95 4.65L26.75 5.5L25.45 4.75M26.95,23.5L27.25 22.05L27.5 21.4L27.55 21.2L27.75 20.1L27.8 20.35L27.85 20.4L28 21.5L27.8 22.8L27.3 24.05L26.65 24.4L26.95 23.5M13.1,3.1L13.1 2.95L17.2 1.5L17.2 4.4L16.8 4.5L16.65 3.95L16.35 2.75L16.1 2.75L13.15 3.85L13.1 3.1M1.95,7.2L4.3 6.15L4.4 6.1L7.35 5L7.35 5.8L6.95 5.9L4.3 6.75L4.05 6.85L1.95 7.5L1.95 7.2M16.05,25.65L15.15 25.55L14.55 25.1Q13.75 24.8 12.45 24.65L12.25 24.6Q10.45 23.7 10.45 22.6L10.75 21.85L10.8 21.8Q11.2 22.65 12.1 23.25Q14.3 24.65 16.5 24.95L16.5 25.55L16.4 27.95L16.25 28.55L15.95 28.55L16.05 25.65" />
<path style="fill:#9A330C;fill-opacity:1" d="M30.45,11.05L29.95 12.4L29.9 12.5L29.2 13.85L29.1 14L29.2 14.1L31.25 15.7L31.35 15.7Q32.35 16.5 32.25 16.75L31.2 17.45L30.8 17.6L29.45 18.2L28.95 18.4L28.4 18.65L28.75 19.55Q29.15 20.85 29.15 21.85L29.15 22.45L29.1 22.55L29.1 22.6L28.95 23.3L28.6 24L28.2 24.55L27.1 25.4L26.85 25.55L26.5 26.05L26.3 26.8L26.05 28.35L25.55 28.55L25.4 28.65L24.2 29.2L22.85 29.65L22.8 29.6L22.7 29.45L22.65 29.05L22.65 28.05L22.65 26.7Q22.6 26.05 22.7 25.55L22.85 24.6Q23.1 23.85 23.55 23.6L25.5 22.1L26.05 21.35L26.5 19.55L26.5 19.35L26.4 19.4L26.3 19.45L24.7 20.3L23.1 21.45L23 21.5L22.85 21.6L22.45 21.95L21.6 22.6L21.2 22.85L20.75 22.6L19.8 21.9L18.95 21.2L18.3 20.75L16.25 19.55L13.95 18.65L11.7 18.1Q11.4 18.9 11.6 19.7L11.75 20.25L11.85 20.5L12.25 21.3Q14.05 23 17.65 23.7L17.85 25.55L17.85 26.2L17.75 28.3L17.6 29.4L17.5 30.1L14.1 29.55L14.15 29.5L14.1 29.5L14.1 28L14.05 26.55L13.6 26.15Q12.7 25.75 9.95 26.15Q9.55 26.3 9.2 25.9L8.9 25.55L8.25 24.3L8.1 23.95L7.95 23.6L7.7 22.7L7.95 20.15L8.5 18.95L9.4 17.8L8.65 17.75L7.15 17.7L7.15 17.5L7.3 16.8L7.35 16.6L7.55 16.2L7.8 15.75L8.3 15.15L8.85 14.65L9.45 14.2L10.3 13.7L9.55 12.65Q8.3 10.7 7.75 8.85L7.25 9.05L7.2 9.05L4.85 10.1L3.85 10.6L3.2 10.95L2.9 11.1L1.8 11.7L1.7 11.75L1.4 12.2L0.25 12.3L-0.05 12.5L-0.05 12.3L-0.05 12.1L0.05 11.8L0.05 10.8L0 10.1L0 9.15L0.05 8.15Q0.2 6.45 0.8 6.2Q1.15 6 4.75 4.5L5.15 4.35L6.2 3.9L7.45 3.4L7.6 2.55Q7.9 1.35 8.95 0.3L9.25 -0.05L10.2 -0.8L10.35 -0.9Q12.6 -2.55 13.55 -1.5L13.2 1.2Q14.1 0.85 14.95 0.6L18.75 0.7L18.8 2.6L18.8 3.2L18.85 3.2L18.85 4.6L18.8 4.65L18.75 5.6L17.15 5.75L16.35 5.95L14.85 6.35L13.9 6.6Q14.65 8.1 16.15 9.2L17.15 9.85L17.2 9.8L17.2 9.75L18.1 8.95L18.7 8.4L18.7 8.35L21.35 5.15Q21.55 4.9 22.25 6.6L22.85 7.65L23.9 9.1L24.75 10.1L24.75 10.05L25.35 9.1L25.65 8.45L26 7.7L25.65 7.5L25.55 7.45L25.45 7.45L24.85 7.25L24.35 7.1L24 7L24.05 5.75L24.1 4.65L24.1 3.9L24.1 3.7L24.05 3L24.1 1.1Q24.55 0.95 26.6 2.45L27.1 2.85L26.95 1.5L26.75 0.65Q26.65 -0.1 26.95 -0.35L27.1 -0.35L28.65 0L30.25 1.55Q31.1 2.6 31.4 4.65Q31.55 6.1 31.2 8.2L31.15 8.35L31.15 10.05L31.15 10.1L31.15 10.9L31.2 11.5L31.15 11.45L30.45 11.05M28.95,10.95L29.25 10.15L29.65 9L29.85 8.25L29.95 7.75L30.2 5.65Q30.2 4.45 29.85 3.5Q29.35 2.05 28.75 1.45L28.2 1.1L28 1L28.2 1.85L28.4 3.9L28.25 5.65L28.05 6.55L27.95 7L27.75 7.5L27.3 8.5L27.2 8.75L26.95 9.15L25.75 11.1L26.8 12.05L27.8 12.95L28.05 12.6L28.15 12.45L28.3 12.15L28.95 10.95M25.4,5.45L25.35 6.05L26.4 6.6L26.55 6.15L26.75 5.5L26.95 4.65L25.55 3.7L25.5 3.7L25.45 4.75L25.4 5.45M11.1,14.7Q10.3 15.15 9.8 15.65L9.2 16.35L13.5 16.7L13.65 16.75L14.9 17.1Q16.5 17.7 18.35 18.95L21.2 20.9L21.9 20.4L22.85 19.75L23.45 19.35L24.15 18.95Q26.45 17.6 28.6 16.9L29.15 16.7L29.3 16.65L30 16.4L28.3 14.95L27.15 14.1L26.25 13.45L24.8 12.4L24.6 12.2L23.9 11.55L23.7 11.35L22.85 10.35L22.65 10.1L21.85 8.95L21.5 8.35L20.35 9.7L20 10L19.85 10.1L18.75 10.8L18.55 10.95L17.75 11.35L17.55 11.5L17.5 11.5L16.85 11.85L15 12.65L13.8 13.2L12.7 13.75L12.55 13.85L12.3 13.95L11.1 14.7M27.55,21.2L27.5 21.4L27.25 22.05L27.05 22.5L26.6 23.2L26.4 23.4L24.8 24.65L24.65 24.8L24.2 25.35L24.1 25.55Q23.85 26.15 23.85 26.85L23.85 27.45L23.95 28L25.05 27.55Q25 27.15 25.1 26.85L25.1 26.6L25.2 26.15L25.3 25.9L25.45 25.55L25.95 24.9Q26.2 24.6 26.6 24.4L26.65 24.4L27.3 24.05L27.8 22.8L28 21.5L27.85 20.4L27.8 20.35L27.75 20.1L27.55 21.2M13.5,5.55Q15.1 4.95 16.8 4.5L17.2 4.4L17.2 1.5L13.1 2.95L13.1 3.1L13.15 3.85L13.3 4.9L13.5 5.55M8.7,4.5L8.7 4.55L8.7 5.35L8.85 6.25L9 7.15L9.3 8.2L9.4 8.6Q9.95 10.35 11.85 12.9Q12.05 12.75 12.3 12.65L12.8 12.35L13.15 12.15L13.55 11.95L14.5 11.5L14.6 11.45L14.8 11.35L15.15 11.2L15.85 10.75L15.65 10.6Q14.05 9.5 13 7.7L12.6 7L12.35 6.4L12.2 6L11.95 5.3L11.75 4.35L11.65 3.45Q11.55 2.6 11.6 1.75L11.9 -0.2Q11.25 0.05 9.75 1.35L9.7 1.4L9 2.75L8.75 3.75L8.7 4.5M7.4,6.75L7.35 5.8L7.35 5L4.4 6.1L4.3 6.15L1.95 7.2L1.95 7.5L1.85 8.55L1.65 10.1L1.6 10.5L2.4 10.1L3.15 9.75L3.35 9.65L3.95 9.35L7.3 7.85L7.4 7.8L7.55 7.75L7.45 7.1L7.4 6.75M15.45,26.5L15.5 27.35L15.4 28.4L15.95 28.55L16.25 28.55L16.4 27.95L16.5 25.55L16.5 24.95Q14.3 24.65 12.1 23.25Q11.2 22.65 10.8 21.8Q10.5 21.1 10.45 20.25Q10.4 19.2 10.65 17.95Q7.7 20.85 9.85 24.8L10.1 24.75L12.25 24.6L12.45 24.65Q13.75 24.8 14.55 25.1L15.15 25.55L15.45 26.5" />
<path style="fill:#F0D86A;fill-opacity:1" d="M28,1L28.2 1.1L28.75 1.45Q29.35 2.05 29.85 3.5Q30.2 4.45 30.2 5.65L29.95 7.75L29.85 8.25L29.65 9L29.25 10.15L28.95 10.95L29.45 7.2L29.5 6.75L29.45 4.85L29.35 4.2Q29.15 2.8 28.7 2.35L28.2 1.85L28 1M29.1,16.65L28.8 16.6Q26 16.6 24 17.55L22.75 18.35L21.45 17.05Q19.95 15.75 17.95 14.95Q15.65 14 13.75 14L12.95 14.35L12.45 14.6L12.3 13.95L12.55 13.85L12.7 13.75L13.8 13.2L15 12.65L16.85 11.85L17.5 11.5L17.55 11.5L17.75 11.35L18.55 10.95L18.75 10.8L19.85 10.1L20 10L20.35 9.7L21.5 8.35L21.85 8.95L22.65 10.1L22.85 10.35L23.7 11.35L23.9 11.55L24.6 12.2L24.8 12.4L26.25 13.45L27.15 14.1L28.3 14.95L30 16.4L29.3 16.65L29.1 16.65M26.4,15.8L28.15 15.9L27.65 15.55L26.7 14.85Q25.8 14.2 24.7 13.5L21.7 11.5L23.25 16.25Q24.2 15.8 26.2 15.8L26.4 15.8M20.4,11.55Q19.7 11.55 17.75 12.35L14.45 13.7L14.1 13.85L14.75 13.9L15.35 13.95L16.7 14.2Q19.5 14.85 21.5 16.25L20.4 11.55M9.7,2.85L9.7 2.5L9.75 1.35Q11.25 0.05 11.9 -0.2L11.6 1.75Q11.55 2.6 11.65 3.45L11.75 4.35L11.95 5.3L12.2 6L12.35 6.4L12.15 6.05L12 5.8L11.8 5.35L11.5 4.4L11.35 3.65L11.35 3.55L11.05 1.95L10.95 1.65L10.4 2.2L9.95 2.85L9.75 3.25L9.7 2.85" />
</g>
</svg>
