<?xml version="1.0" encoding="utf-8"?>
<svg version="1.1" id="Layer_1"
xmlns="http://www.w3.org/2000/svg"
xmlns:xlink="http://www.w3.org/1999/xlink"
xmlns:author="http://www.sothink.com"
width="46px" height="49px"
xml:space="preserve">
<g id="1696" transform="matrix(1, 0, 0, 1, 1.7, -0.45)">
<path style="fill:#23231A;fill-opacity:1" d="M27.65,17.05L27.85 17.35Q28.7 18.75 29.95 18.55L32.8 18.05L33.2 17.9L35.25 17.4L35.25 17.35L37.5 16.15Q38.95 15.05 39.8 13.7Q40.6 12.3 40.85 10.65L41.05 8.95L41.15 5.7L41 4.6L40.4 2.7L39.25 6.15L38.3 8.2L37.85 9.05L36.7 10.65L36.5 10.8Q34.5 12.55 31.8 12.95L28.7 13.6L27.45 14.6Q27.1 15 27.1 15.45Q27 16.2 27.65 17.05M36.8,17.8Q35 18.65 32.5 19.1L31.2 19.3L30.7 19.45L28.45 19.55L28.15 19.4Q27.15 18.9 26.55 17.7L26.3 17L26.1 16.25L26.15 15.3L26.3 14.75Q26.55 14 27.15 13.35L27.95 12.7L28.4 12.55L28.4 12.4Q32.35 12.2 34.65 10.8L36.4 9.15L36.5 9.05L38.1 6.35L38.4 5.55L38.4 5.5L38.45 5.5L38.55 5.35Q40.05 1.45 40.1 0.45L41.55 2.9L41.55 2.95L42.1 4.45Q42.55 6.4 42.35 9.15Q42.2 11.95 39.7 15.35L39.4 15.8L36.8 17.8M34.3,24.35L35.9 21.85Q36.75 20.55 38.55 20.1L40.4 19.4L40.55 19.4L40.55 19.35L41.7 18.6Q42.95 17.6 43.8 17.25L44.25 18.55L44.15 19.65L44 19.9Q43.6 21.8 42.3 23.8Q40.95 25.75 38.8 27.55L38.95 27.55L40.4 27.7Q41.2 27.85 42.3 28.85L42.95 29.7L43.45 31L43.3 31L43.15 31L42.85 30.85L40.15 30.3L39.7 29.3L40.95 29.5L42.45 30L41.4 29.3Q40.2 28.6 39.25 28.4L38 26.85L40.6 24.25L41.9 22.35L42.55 20.85L42.8 20.15Q42.9 19.45 42.3 19.9Q41.5 20.5 38.8 21.35Q36.1 22.3 35.05 24.95L35 25.15L34.1 24.95L34.3 24.35M40.4,31.85L42.1 32.75Q43.4 33.4 43.9 35.15L44.05 35.75L40.15 34.7Q40.55 33.15 40.4 31.85M2.35,34.75L-1.55 35.8L-1.4 35.2Q-0.9 33.45 0.45 32.8L2.05 31.9Q1.95 32.9 2.2 34L2.25 34.45L2.35 34.75M1.1,29.4L0.05 30.05L1.6 29.55L2.75 29.3L2.3 30.3Q0.9 30.45 -0.35 30.9L-0.7 31L-0.8 31L-0.95 31L-0.45 29.75L0.2 28.9Q1.3 27.9 2.15 27.7L3.55 27.55L3.65 27.65L3.65 27.55Q1.8 26.05 0.55 24.35L0.2 23.9Q-1.15 21.85 -1.5 19.9L-1.6 19.7L-1.7 18.6L-1.3 17.3Q-0.45 17.6 0.8 18.65Q2.2 19.65 4 20.15Q5.75 20.6 6.65 21.9L8.2 24.2L8.25 24.25L8.35 25.05L7.5 25.2L7.45 24.95L7.2 24.35Q6.05 22.2 3.75 21.4Q1 20.55 0.2 20Q-0.4 19.55 -0.25 20.2L-0.05 20.9L0.6 22.4L1.9 24.25L1.95 24.35Q3.1 25.8 4.5 26.9L3.2 28.5Q2.25 28.7 1.1 29.4M13.7,13.15L14.3 13.25L14.3 13.35L14.75 13.5L14.95 13.6L15.45 14.2Q16.55 15.6 16.35 17L16.2 17.95L15.8 18.6Q14.95 20.15 13.6 20.35L12.4 20.35L11.55 20.1L11.1 19.9Q8.95 19.45 7.25 18.85L5.95 18.2Q4.1 17.15 3.05 15.7L2.85 15.45Q0.6 11.9 0.6 9.05Q0.6 6.25 1.15 4.35Q1.75 2.5 3.4 0.45Q3.4 1.6 4.7 5.6L4.9 6.05Q5.45 7.75 6.2 8.95Q7.1 10.4 8.2 11.1L8.35 11.25Q10.3 12.55 13.7 13.15M25,29.4L25 29.75L24.45 30.4Q23.25 31.75 20.95 31.65L20.35 31.6Q17.7 31.3 17.7 30.45L17.7 30.1L17.7 29.5L17.75 29L17.8 28.6L18.05 27.95L18.05 27.85L18.5 26.3L18.75 25.6L18.75 25.3L18.75 25.2L19.35 23.35L19.9 21.4L20.05 21.05Q20.5 20.05 20.9 19.9L21.95 21.6L22.35 22.4L22.95 23.8L23.25 24.5L23.65 25.6L23.9 26.2L24.1 26.85L24.5 27.9L24.6 28.25L24.95 29.2L25 29.4M20.9,22.65L20.5 24.15L20.35 24.55L19.8 26.15L19.55 26.95L19.55 27L19.2 28.05L19.1 28.25L18.95 29.05L18.95 29.15L18.85 29.4L18.65 29.85L19.35 30.2Q21.05 30.85 22.65 30.15L23.65 29.55L23.55 29.1L23.2 27.9L22.85 26.95L22.8 26.85L22.5 26.25L22.3 25.7L21.8 24.6L21.8 24.55L21.5 23.8L20.9 22.65M1.9,9L1.95 10.65Q2.05 12.1 2.7 13.35Q3.45 15.05 5.05 16.35L7.1 17.7L9.1 18.3L12.1 19.1L12.4 19.2L12.7 19.2Q13.6 19.3 14.5 18.2L14.75 17.9Q15.45 17 15.45 16.35L15.05 15.45L13.9 14.3L10.85 13.55Q8.2 12.95 6.3 11.05L5.7 10.25L4.6 8.2Q4.1 7.05 3.75 5.6L2.9 2.75L2.25 4.6L2.15 5Q1.8 6.2 1.9 9" />
<path style="fill:#2B2B23;fill-opacity:1" d="M28.3,16.8Q28.5 16.35 28.85 16.3L29.85 16.55L30.75 16.65L33.25 16.35L34.9 15.85L36.25 15.3L36.65 15.1L37.85 14.3Q39.05 13.25 39.9 11.8L41.05 8.95L40.85 10.65Q40.6 12.3 39.8 13.7Q38.95 15.05 37.5 16.15L35.25 17.35L35.25 17.4L33.2 17.9L32.8 18.05L29.95 18.55Q28.7 18.75 27.85 17.35L28.3 16.8M35.8,25.4L36.8 24.8L38.8 22.95Q39.05 23.35 38.2 24.7L37.55 25.4Q39.6 24.65 41.9 22.35L40.6 24.25L38 26.85Q37.15 25.95 36.25 25.6L35.8 25.4M41.4,29.3L42.45 30L40.95 29.5L39.7 29.3L39.55 28.95L39.5 28.85L41.4 29.3M19.3,29.1L20.35 29.3L20.35 29L20.2 28.5L21.35 28.45L21.7 27.95L21.85 27L21.85 26.85L21.85 26.3L21.85 26.15L21.8 24.6L22.3 25.7L22.5 26.25L22.8 26.85L22.85 26.95L23.2 27.9L23.55 29.1L23.65 29.55L22.65 30.15Q21.05 30.85 19.35 30.2L18.65 29.85L18.85 29.4L18.95 29.15L18.95 29.05L19.3 29.1M14.5,18.2Q13.6 19.3 12.7 19.2L12.4 19.2L12.1 19.1L9.1 18.3L7.1 17.7L5.05 16.35Q3.45 15.05 2.7 13.35Q2.05 12.1 1.95 10.65L1.9 9L2.3 10.4L2.6 11.2Q3.45 13.6 4.65 14.65Q5.5 15.35 6.5 15.45L6.6 15.1L8.6 16.2Q10.85 17.5 13 18.1L14.5 18.2M4.5,26.9Q3.1 25.8 1.95 24.35L1.9 24.25L0.6 22.4L2.85 24.35Q3.95 25.1 4.9 25.5L4.35 24.8L4.05 24.35Q3.5 23.35 3.75 23L5.05 24.35L5.7 24.9L6.75 25.5L6.3 25.65L6.2 25.65Q5.35 25.95 4.5 26.9M2.95,28.9L2.9 29L2.75 29.3L1.6 29.55L0.05 30.05L1.1 29.4L2.95 28.9" />
<path style="fill:#574F3D;fill-opacity:1" d="M27.85,17.35L27.65 17.05Q27 16.2 27.1 15.45L27.25 15.45L30.15 15.75Q29.85 15.45 30.1 15.1Q30.4 14.85 30.9 14.7L33.75 14.3Q34.9 14.1 36.65 12.4L36.75 12.25L37.4 11.55L38.2 10.55L39.8 8.35L40.15 7.75L41.15 5.7L41.05 8.95L39.9 11.8Q39.05 13.25 37.85 14.3L36.65 15.1L36.25 15.3L34.9 15.85L33.25 16.35L30.75 16.65L29.85 16.55L28.85 16.3Q28.5 16.35 28.3 16.8L27.85 17.35M37.55,25.4L38.2 24.7Q39.05 23.35 38.8 22.95L36.8 24.8L35.8 25.4L35.05 25.2L35.2 25.05L36.25 23.8Q36.95 23.1 38.35 22.65L38.35 22.55L37.75 22.45Q38.55 21.9 40.85 21.2L42.8 20.15L42.55 20.85L41.9 22.35Q39.6 24.65 37.55 25.4M39.5,28.85L39.25 28.4Q40.2 28.6 41.4 29.3L39.5 28.85M18.95,29.05L19.1 28.25L19.3 28.05L19.45 27.8L19.7 27.1L19.8 26.95L19.9 26.3L19.9 26.2L20.05 26.2L20.25 26.3L20.65 26.65L20.8 26.3L21.15 24.8L21.5 23.8L21.8 24.55L21.8 24.6L21.85 26.15L21.85 26.3L21.85 26.85L21.85 27L21.7 27.95L21.35 28.45L20.2 28.5L20.35 29L20.35 29.3L19.3 29.1L18.95 29.05M13,18.1Q10.85 17.5 8.6 16.2L6.6 15.1L6.5 15.45Q5.5 15.35 4.65 14.65Q3.45 13.6 2.6 11.2L2.3 10.4L1.9 9Q1.8 6.2 2.15 5L2.8 7.5L3.1 9.45L3.45 8.7L4.35 10.1L5.8 12.2L6.3 12.95L7.1 13.85L7.4 14.1L7.5 14.2L8.2 14.7Q8.8 15.1 9.55 15.3L11 15.2L13.3 15.35Q14.3 15.6 15.45 16.35Q15.45 17 14.75 17.9L14.5 18.2L13 18.1M1.6,21.25Q3.95 21.95 4.8 22.5L4.2 22.65L4.2 22.75Q5.6 23.2 6.25 23.9L6.65 24.35L7.3 25.1L7.45 25.25Q7.1 25.3 6.75 25.5L5.7 24.9L5.05 24.35L3.75 23Q3.5 23.35 4.05 24.35L4.35 24.8L4.9 25.5Q3.95 25.1 2.85 24.35L0.6 22.4L-0.05 20.9L-0.25 20.2Q0.65 20.95 1.6 21.25M3.2,28.5L2.95 28.9L1.1 29.4Q2.25 28.7 3.2 28.5" />
<path style="fill:#726957;fill-opacity:1" d="M40.15,7.75L39.8 8.35L38.2 10.55L37.4 11.55L36.75 12.25L36.65 12.4Q34.9 14.1 33.75 14.3L30.9 14.7Q30.4 14.85 30.1 15.1Q29.85 15.45 30.15 15.75L27.25 15.45L27.1 15.45Q27.1 15 27.45 14.6L28.7 13.6L31.8 12.95Q34.5 12.55 36.5 10.8L36.7 10.65L37.85 9.05L38.3 8.2L39.25 6.15L40.4 2.7L41 4.6L41.15 5.7L40.15 7.75M35,25.15L35.05 24.95Q36.1 22.3 38.8 21.35Q41.5 20.5 42.3 19.9Q42.9 19.45 42.8 20.15L40.85 21.2Q38.55 21.9 37.75 22.45L38.35 22.55L38.35 22.65Q36.95 23.1 36.25 23.8L35.2 25.05L35.05 25.2L35 25.15M19.1,28.25L19.2 28.05L19.55 27L19.55 26.95L19.8 26.15L20.35 24.55L20.5 24.15L20.9 22.65L21.5 23.8L21.15 24.8L20.8 26.3L20.65 26.65L20.25 26.3L20.05 26.2L19.9 26.2L19.9 26.3L19.8 26.95L19.7 27.1L19.45 27.8L19.3 28.05L19.1 28.25M13.3,15.35L11 15.2L9.55 15.3Q8.8 15.1 8.2 14.7L7.5 14.2L7.4 14.1L7.1 13.85L6.3 12.95L5.8 12.2L4.35 10.1L3.45 8.7L3.1 9.45L2.8 7.5L2.15 5L2.25 4.6L2.9 2.75L3.75 5.6Q4.1 7.05 4.6 8.2L5.7 10.25L6.3 11.05Q8.2 12.95 10.85 13.55L13.9 14.3L15.05 15.45L15.45 16.35Q14.3 15.6 13.3 15.35M7.45,25.25L7.3 25.1L6.65 24.35L6.25 23.9Q5.6 23.2 4.2 22.75L4.2 22.65L4.8 22.5Q3.95 21.95 1.6 21.25Q0.65 20.95 -0.25 20.2Q-0.4 19.55 0.2 20Q1 20.55 3.75 21.4Q6.05 22.2 7.2 24.35L7.45 24.95L7.5 25.2L7.45 25.25" />
<path style="fill:#5F1000;fill-opacity:1" d="M40.15,34.7L39.85 35.75L39.25 36.9L37.05 39.8Q36.95 40.15 36.05 37.5Q35.1 34.8 33.95 34.2L33.55 33.95Q33.5 33.85 32.85 33.5L32.5 33.3L31.35 32.8L31.3 33.35L31.25 33.3L31.25 33.4L31.1 33.45Q30.9 33.55 31.05 33.95L30.3 37.05L29.65 38.55L29.75 38.65L29.85 38.8Q29.3 39.8 28.35 39.95Q27 40.1 24.35 41.15Q21.65 42.1 21.4 42.3L20.7 42.2L20.55 42.1L20.5 42.1L18.45 41.3Q15.75 40.1 14.3 39.95Q13.15 39.8 12.7 38.8L12.7 38.65L12.8 38.55L12.2 37.05L11.4 33.95Q11.55 33.55 11.35 33.45L11.25 33.3L11.1 32.85Q10.4 33.05 9.95 33.4L9.95 33.3L9.6 33.55L8.9 34L8.5 34.3Q7.35 34.9 6.4 37.55L5.45 39.8Q3.1 37.2 2.6 35.8L2.35 34.75L2.25 34.45L2.2 34Q1.95 32.9 2.05 31.9L2.3 30.3L2.75 29.3L2.9 29L2.95 28.9L3.2 28.5L4.5 26.9Q5.35 25.95 6.2 25.65L6.3 25.65L6.75 25.5Q7.1 25.3 7.45 25.25L7.5 25.2L8.35 25.05L8.25 24.25L8.2 24.2L8.2 24.15L8.1 23.7Q7.65 22.4 6.5 21.3Q5 20.75 3.75 17.8L3.05 15.8L3.05 15.7Q4.1 17.15 5.95 18.2L6.65 19.05Q8.45 20.75 9.15 22.05Q9.8 23.2 9.8 24.65L9.8 24.95L9.7 25.8L9.55 26.25Q8.8 26.4 8.3 26.7Q6.7 27.3 5.65 28.25L5.35 28.6L4.8 29.15Q4.8 29.95 4.2 30.2Q3.85 30.85 3.75 31.55Q3.5 32.35 3.55 33.2L3.65 33.75L3.85 34.45L4.2 35.5L5.1 36.95Q5.5 35.7 6.5 34.3Q7.95 32.3 10.6 31.7L10.65 31L10.65 30.9Q10.65 30.4 10.95 30.05L11.15 29.65L11.2 29.95L11.55 31.45L12.7 35.9Q13.25 37.85 13.8 38.45Q14.3 39 16 39.25L19 40.05L21.15 40.95Q22.4 40.5 23.7 40Q25.05 39.45 26.65 39.25Q28.15 38.95 28.7 38.4Q29.2 37.8 29.75 35.9L31.3 29.6Q31.75 30.1 31.8 30.85L31.9 31.65Q34.5 32.25 35.95 34.2Q36.95 35.65 37.4 36.9L38.25 35.45L38.55 34.65L38.65 34.4Q39.1 32.85 38.8 31.45L38.3 30.15Q37.75 29.85 37.65 29.2L37.2 28.6L36.8 28.15Q35.9 27.3 34.5 26.75L34.3 26.65L32.9 26.2L32.75 25.1L32.7 24.95L32.7 24.8Q32.6 23.3 33.3 22.05Q34 20.7 35.8 19L36.8 17.8L39.4 15.8L38.75 17.75Q37.45 20.7 35.95 21.25Q34.8 22.35 34.4 23.65L34.3 24.35L34.1 24.95L35 25.15L35.05 25.2L35.8 25.4L36.25 25.6Q37.15 25.95 38 26.85L39.25 28.4L39.5 28.85L39.55 28.95L39.7 29.3L40.15 30.3L40.4 31.85Q40.55 33.15 40.15 34.7M4.9,6.05Q11.1 9.45 17.9 11.35L19.3 11.65L20.45 11.8L23.45 11.7Q25.4 11.3 30.3 9.25L36.6 6.65L37.75 6.15L38 5.9L38.1 6.35L36.5 9.05L36.4 9.15L36.35 9.05Q31.6 11.1 27.55 12.35Q23.55 13.5 21.4 13.4Q16.95 14.05 6.2 8.95Q5.45 7.75 4.9 6.05M29.95,23.8Q30.1 24.65 29.75 25.4Q28.05 29.15 24.5 27.9L24.1 26.85L23.9 26.2Q24.7 25.6 26.05 24.55L27 23.9L27.3 23.65L31.7 23.5L31.9 23.6L31.7 23.6L31.65 23.6L30.45 23.65Q30.05 23.65 29.95 23.8M13.25,26.45L12.7 25.5L12.55 24.95Q12.4 24.35 12.55 23.8L10.65 23.65Q12.4 22.35 14.85 23.6L15.15 23.7L16.45 24.6L18.5 26.3L18.05 27.85L18.05 27.95Q14.95 29 13.25 26.45M17.05,26.3L16.85 26.1L16.55 25.95L16.35 25.8Q14.75 24.7 13.35 24.25L13.4 25.2L13.45 25.55L13.5 25.7L13.85 26.25L14.3 26.7L15.55 27.55Q16.65 28.05 18.1 27.2L17.8 26.9L17.05 26.3M28.65,24.3Q27.1 24.65 25.8 25.8L24.9 26.8L24.8 26.8L24.35 27.1Q25.85 28 26.9 27.45L28.15 26.65L28.6 26.2L28.95 25.65L29.05 25.15L29.05 24.95L29 24.85L28.65 24.3" />
<path style="fill:#80260B;fill-opacity:1" d="M38,5.9L38.4 5.5L38.4 5.55L38.1 6.35L38 5.9M19.3,34.1Q19.05 33.3 18.2 33.15L18.05 33.15L17.6 33.05Q17.25 32.9 18.05 32.7Q19.1 32.3 19.65 33.05Q20.05 33.5 20.05 34.1L19.9 34.55L19.65 34.9L19.45 34.65L19.3 34.1M23.1,34.45L22.8 34.8L22.5 34.5L22.45 34.35Q22.3 33.6 22.8 32.95Q23.35 32.25 24.45 32.6Q25.4 32.95 24.6 33.05L24.45 33.05L24.25 33.15Q23.4 33.3 23.2 34.05L23.1 34.45" />
<path style="fill:#EE775A;fill-opacity:1" d="M25.95,14.55L25.55 14L25.5 14L22.5 14.2L22.75 14.65L16.7 14.1L14.95 13.6L14.75 13.5L14.3 13.35L14.3 13.25L13.7 13.15L12.15 12.55L8.35 10.95L8.35 11.25L8.2 11.1Q7.1 10.4 6.2 8.95Q16.95 14.05 21.4 13.4Q23.55 13.5 27.55 12.35Q31.6 11.1 36.35 9.05L36.4 9.15L34.65 10.8Q32.35 12.2 28.4 12.4L28.4 12.55L27.95 12.7L27.15 13.35Q26.55 14 26.3 14.75L25.95 14.55M22.15,17.85Q21.4 18.15 21.35 17.4Q21.35 16.65 22.1 16.55Q23.4 17.15 22.15 17.85M25,29.75L25 29.4L26 29.85L26.45 30.15L26.75 30L26.85 30.1L27.35 30.8L27.35 31.8L26.4 31.2L26.2 31.1L25.95 31.15Q25.25 31.15 24.9 30.65L24.85 30.45L24.45 30.4L25 29.75M17.7,29.5L17.7 30.1L17.6 30.1L17.4 30.15L17.35 30.2L17.3 30.3L17.2 30.4L17.2 30.55L17.2 30.75L17.2 30.8L16.6 30.75L16.45 30.85L16.35 31L16.6 31.15L16.65 31.3L16.6 31.35L16.45 31.45L16.25 31.55L16.1 31.45L16.05 31.45L15.9 31.65L15.8 31.8L15.7 31.85L15.45 31.85Q15.2 31.8 15.1 31.65L15 31.25L15 31.15L15.15 31L15.2 31Q14.95 30.7 16.05 29.95Q16.6 29.75 17.7 29.5M3.75,31.55Q3.85 30.85 4.2 30.2Q4.8 29.95 4.8 29.15L5.35 28.6L5.65 28.25Q6.7 27.3 8.3 26.7Q8.8 26.4 9.55 26.25L9.7 25.8L10.1 25.95L11.85 27.1L11.7 27.1L11.7 27.3L11.7 27.4L11.55 27.55L10.95 27.4L10.85 27.3Q9 27.7 7.95 28.25L7.8 28.15L7.1 28Q6.95 28 6.95 28.25L7.2 28.6L6.95 28.8L6.6 29.1L6.8 29.3L6.85 29.3L6.85 29.55L6.8 29.75L6.6 29.95L6.2 30.1L5.95 30.15L5.95 30L5.85 30.05L5.6 29.75L5.5 29.85Q5.1 30.4 5.65 30.15L5.8 30.1L5.5 30.55L5.6 30.6L5.65 30.65L5.65 30.75L5.65 30.8L5.6 31L5.5 31.25L5.25 31.25L4.9 31.25L4.65 31.65L3.55 33.2Q3.5 32.35 3.75 31.55M24.7,23.55L25.75 22.4Q26.25 21.9 27.55 21.9L28.45 21.95L28.7 22.65Q26.8 23.1 25.5 23.8L24.7 23.8L24.7 23.55M12.95,22.55L13.05 22.05L14.75 22.05L16.2 22.45L16.65 22.65L16.8 22.8L16.9 22.85L17.05 22.95Q16.85 22.95 16.8 23.2Q16.7 23.6 17.2 23.7L17.4 23.8L17.35 23.8L15.1 23.2L12.95 22.55M18.35,36.05L18.55 35.9L18.9 35.95L19.2 36.25L19.2 36.4Q19 36.9 18.45 36.5Q18.2 36.35 18.35 36.05M36.1,29.85L36.15 29.7L36.3 29.55L36.5 29.4L36.8 29.65Q36.95 29.95 36.7 30.05L36.6 30.1L36.2 30L36.1 29.85M34.05,27.35L34.4 27.35L34.65 27.55L34.65 27.7L34.4 28Q33.85 28.05 33.9 27.55L34.05 27.35M21.1,37.05Q20.55 37.3 20.9 36.8L20.95 36.7Q21.6 36.8 21.1 37.05M24.9,36.15L24.9 36.05Q24.95 35.8 25.15 35.8L25.3 35.9L25.5 35.9L25.85 36.2L25.85 36.35Q25.5 36.85 25 36.35L24.9 36.15" />
<path style="fill:#BB482E;fill-opacity:1" d="M11.1,19.9L11.55 20.1L12.4 20.35L13.6 20.35Q14.95 20.15 15.8 18.6L16.2 17.95L16.35 17Q16.55 15.6 15.45 14.2L14.95 13.6L16.7 14.1L22.75 14.65L22.5 14.2L25.5 14L25.55 14L25.95 14.55L26.3 14.75L26.15 15.3L26.1 16.25L26.3 17L26.55 17.7Q27.15 18.9 28.15 19.4Q27.75 19.8 28.3 19.6L28.45 19.55L30.7 19.45L31.2 19.3L32.5 19.1L32.05 19.9L31 20.25L31 21.15Q31.15 22.05 31.75 23.2L32.05 23.8L32.7 24.8L32.7 24.95L32.75 25.1L32.9 26.2L34.3 26.65L34.5 26.75Q35.9 27.3 36.8 28.15L37.2 28.6L37.65 29.2Q37.75 29.85 38.3 30.15L38.8 31.45Q39.1 32.85 38.65 34.4L38.55 34.65L38.4 34.35Q37.85 33.3 37.1 32.6L36.25 31.8Q35.8 32 35.45 31.6L35.45 31.45L35.5 31.3L35.6 31.25L34 30L34 29.95L33.95 29.75L33.95 29.65L33.85 29.6L33.45 29.3L32.95 29.2Q32.6 29.3 32.8 29.55L32.85 29.95L32.85 30L32.35 29.75L31.45 29.15L30.55 29.15L30.55 29.3L30.7 29.85L30.9 30.45L30.75 30.45L29.95 30.15L29.2 29.85L29.2 31.25L28.8 33.75Q28.6 34.5 27.65 34.9Q27 35.1 27.25 36.2L27.45 36.2L27.7 36.3L27.7 36.4L27.7 36.65L27.55 36.85L27.35 37.05L27.1 37.05Q26.1 37.9 21.8 39.15L19.9 39Q19 38.8 18.35 38.35L16.65 37.25L16.15 36.9L15.7 37.05L15.15 36.8L15.1 36.5L15.1 36.3L15.15 36.15L14.85 35.9L14.75 35.75L12.9 33.15L11.3 29.85L11.2 29.95L11.15 29.65L10.95 30.05L10.65 29.7L9.7 29.4L8.9 29.3L9.35 29.95L9.35 30L9.55 30.65Q9.55 31.35 6.15 32.8L5.55 33.05L5.55 33.15L5.55 33.3L5.55 33.45L5.45 33.5L5.35 33.55L4.6 33.5L4.55 33.4L4.55 33.2L4.5 33.2Q4 33.3 3.65 33.75L3.55 33.2L4.65 31.65L4.9 31.25L5.25 31.25L5.5 31.25L5.6 31L5.65 30.8L5.65 30.75L5.65 30.65L5.6 30.6L5.5 30.55L5.8 30.1L5.65 30.15Q5.1 30.4 5.5 29.85L5.6 29.75L5.85 30.05L5.95 30L5.95 30.15L6.2 30.1L6.6 29.95L6.8 29.75L6.85 29.55L6.85 29.3L6.8 29.3L6.6 29.1L6.95 28.8L7.2 28.6L6.95 28.25Q6.95 28 7.1 28L7.8 28.15L7.95 28.25Q9 27.7 10.85 27.3L10.95 27.4L11.55 27.55L11.7 27.4L11.7 27.3L11.7 27.1L11.85 27.1L10.1 25.95L9.7 25.8L9.8 24.95L9.8 24.65L10.75 24.95L10.75 24.45L10.65 23.65L12.55 23.8Q12.4 24.35 12.55 24.95L12.7 25.5L13.25 26.45Q13.4 27.3 14.4 28.4L15.7 30.05L16.05 29.95Q14.95 30.7 15.2 31L15.15 31L15 31.15L15 31.25L15.1 31.65Q15.2 31.8 15.45 31.85L15.7 31.85L15.8 31.8L15.9 31.65L16.05 31.45L16.1 31.45L16.25 31.55L16.45 31.45L16.6 31.35L16.65 31.3L16.6 31.15L16.35 31L16.45 30.85L16.6 30.75L17.2 30.8L17.2 30.75L17.2 30.55L17.2 30.4L17.3 30.3L17.35 30.2L17.4 30.15L17.6 30.1L17.7 30.1L17.7 30.45Q17.7 31.3 20.35 31.6L20.95 31.65L20.8 31.7L20.7 31.95L20.7 32.15L20.8 32.25Q21.05 32.6 21.2 32.15Q21.35 31.8 20.95 31.65Q23.25 31.75 24.45 30.4L24.85 30.45L24.9 30.65Q25.25 31.15 25.95 31.15L26.2 31.1L26.4 31.2L27.35 31.8L27.35 30.8L26.85 30.1L26.75 30Q27.55 29.4 28.25 29L28.25 28.9Q28.15 28.6 28.4 28.45L28.6 28.35L28.7 28.35L28.8 28.4L28.95 28.5L29 28.55L29.4 28.25Q31 27.4 31 26.3L30.8 24.95L30.45 23.65L31.65 23.6L31.7 23.6L31.9 23.6L31.7 23.5L27.3 23.65L27 23.9Q25.95 24.25 24.9 24.9L23.65 25.6L23.25 24.5L22.95 23.8L24.6 22.9L24.7 22.85L25.65 22.15Q26.05 21.5 26.05 20.7L25.95 19.8L23.35 21.25L21.85 21.35L21.85 21.4L21.95 21.6L20.9 19.9Q20.5 20.05 20.05 21.05L19.9 21.4Q18.55 21.3 17.3 20.45Q15.9 19.45 16.2 20.45Q16.45 21.4 18.9 23.1L19.35 23.35L18.75 25.2L18.75 25.3L18.75 25.6L17.6 24.9Q16.3 23.9 14.85 23.6Q12.4 22.35 10.65 23.65L10.3 22.8L9.35 21.05L8.65 19.6L8.6 19.6L8.45 19.6Q8.1 19.65 7.95 19.35L7.95 19.3L7.8 19.2L7.25 18.85Q8.95 19.45 11.1 19.9M22.1,16.55Q21.35 16.65 21.35 17.4Q21.4 18.15 22.15 17.85Q23.4 17.15 22.1 16.55M24.7,23.8L25.5 23.8Q26.8 23.1 28.7 22.65L28.45 21.95L27.55 21.9Q26.25 21.9 25.75 22.4L24.7 23.55L24.7 23.8M15.1,23.2L17.35 23.8L17.4 23.8L17.2 23.7Q16.7 23.6 16.8 23.2Q16.85 22.95 17.05 22.95L16.9 22.85L16.8 22.8L16.65 22.65L16.2 22.45L14.75 22.05L13.05 22.05L12.95 22.55L15.1 23.2M12.25,28.9Q12.2 29.4 12.7 29.3L13 29.05L13 28.9L12.7 28.7L12.4 28.7Q12.25 28.7 12.25 28.9M17.9,34Q17.95 34.35 19 34.65L19.45 34.65L19.65 34.9L19.9 34.55L20.05 34.1Q20.05 33.5 19.65 33.05Q19.1 32.3 18.05 32.7Q17.25 32.9 17.6 33.05L17.9 34M18.45,36.5Q19 36.9 19.2 36.4L19.2 36.25L18.9 35.95L18.55 35.9L18.35 36.05Q18.2 36.35 18.45 36.5M14.75,37.55L14.75 37.8L14.6 38.1Q14.15 38.2 14 37.85Q13.85 37.5 14.15 37.3L14.3 37.25L14.4 37.25L14.5 37.3L14.65 37.4L14.75 37.55M36.2,30L36.6 30.1L36.7 30.05Q36.95 29.95 36.8 29.65L36.5 29.4L36.3 29.55L36.15 29.7L36.1 29.85L36.2 30M33.9,27.55Q33.85 28.05 34.4 28L34.65 27.7L34.65 27.55L34.4 27.35L34.05 27.35L33.9 27.55M32.75,26.8Q32.7 26.8 32.6 26.9Q32.25 27.4 32.8 27.2L33.05 27L32.9 26.9L32.75 26.8M37.15,33.5Q37.65 33.6 37.4 33.75L37.25 33.85Q36.7 34.1 37.05 33.6L37.15 33.5M24.45,32.6Q23.35 32.25 22.8 32.95Q22.3 33.6 22.45 34.35L22.5 34.5L22.8 34.8L23.1 34.45L23.55 34.55Q24.7 34.55 24.7 33.4L24.7 33.05L24.6 33.05Q25.4 32.95 24.45 32.6M20.95,36.7L20.9 36.8Q20.55 37.3 21.1 37.05Q21.6 36.8 20.95 36.7M25,36.35Q25.5 36.85 25.85 36.35L25.85 36.2L25.5 35.9L25.3 35.9L25.15 35.8Q24.95 35.8 24.9 36.05L24.9 36.15L25 36.35M28.35,38.1L28.25 38.2Q27.8 38.3 27.8 37.85Q27.8 37.5 28 37.4L28.15 37.35L28.4 37.65L28.35 38.1" />
<path style="fill:#8C331D;fill-opacity:1" d="M32.7,24.8L32.05 23.8L31.75 23.2Q31.15 22.05 31 21.15L31 20.25L32.05 19.9L32.5 19.1Q35 18.65 36.8 17.8L35.8 19Q34 20.7 33.3 22.05Q32.6 23.3 32.7 24.8M22.35,22.4L21.95 21.6L21.85 21.4L21.85 21.35L23.35 21.25L25.95 19.8L26.05 20.7Q26.05 21.5 25.65 22.15L24.7 22.85L24.6 22.9L22.95 23.8L22.35 22.4M23.65,25.6L24.9 24.9Q25.95 24.25 27 23.9L26.05 24.55Q24.7 25.6 23.9 26.2L23.65 25.6M24.95,29.2L24.6 28.25L24.5 27.9Q28.05 29.15 29.75 25.4Q30.1 24.65 29.95 23.8Q30.05 23.65 30.45 23.65L30.8 24.95L31 26.3Q31 27.4 29.4 28.25L29 28.55L28.95 28.5L28.8 28.4L28.7 28.35L28.6 28.35L28.4 28.45Q28.15 28.6 28.25 28.9L28.25 29Q27.55 29.4 26.75 30L26 29.85L25 29.4L24.95 29.2M18.05,27.95L17.8 28.6L17.75 29L17.7 29.5Q16.6 29.75 16.05 29.95L15.7 30.05L14.4 28.4Q13.4 27.3 13.25 26.45Q14.95 29 18.05 27.95M7.25,18.85L7.8 19.2L7.95 19.3L7.95 19.35Q8.1 19.65 8.45 19.6L8.6 19.6L8.65 19.6L9.35 21.05L10.3 22.8L10.65 23.65L10.75 24.45L10.75 24.95L9.8 24.65Q9.8 23.2 9.15 22.05Q8.45 20.75 6.65 19.05L5.95 18.2L7.25 18.85M10.65,30.9L10.65 31L10.6 31.7Q7.95 32.3 6.5 34.3Q5.5 35.7 5.1 36.95L4.2 35.5L3.85 34.45L3.65 33.75Q4 33.3 4.5 33.2L4.55 33.2L4.55 33.4L4.6 33.5L5.35 33.55L5.45 33.5L5.55 33.45L5.55 33.3L5.55 33.15L5.55 33.05L6.15 32.8Q9.55 31.35 9.55 30.65L9.35 30L9.35 29.95L8.9 29.3L9.7 29.4L10.65 29.7L10.95 30.05Q10.65 30.4 10.65 30.9M38.25,35.45L37.4 36.9Q36.95 35.65 35.95 34.2Q34.5 32.25 31.9 31.65L31.8 30.85Q31.75 30.1 31.3 29.6L29.75 35.9Q29.2 37.8 28.7 38.4Q28.15 38.95 26.65 39.25Q25.05 39.45 23.7 40Q22.4 40.5 21.15 40.95L19 40.05L16 39.25Q14.3 39 13.8 38.45Q13.25 37.85 12.7 35.9L11.55 31.45L11.2 29.95L11.3 29.85L12.9 33.15L14.75 35.75L14.85 35.9L15.15 36.15L15.1 36.3L15.1 36.5L15.15 36.8L15.7 37.05L16.15 36.9L16.65 37.25L18.35 38.35Q19 38.8 19.9 39L21.8 39.15Q26.1 37.9 27.1 37.05L27.35 37.05L27.55 36.85L27.7 36.65L27.7 36.4L27.7 36.3L27.45 36.2L27.25 36.2Q27 35.1 27.65 34.9Q28.6 34.5 28.8 33.75L29.2 31.25L29.2 29.85L29.95 30.15L30.75 30.45L30.9 30.45L30.7 29.85L30.55 29.3L30.55 29.15L31.45 29.15L32.35 29.75L32.85 30L32.85 29.95L32.8 29.55Q32.6 29.3 32.95 29.2L33.45 29.3L33.85 29.6L33.95 29.65L33.95 29.75L34 29.95L34 30L35.6 31.25L35.5 31.3L35.45 31.45L35.45 31.6Q35.8 32 36.25 31.8L37.1 32.6Q37.85 33.3 38.4 34.35L38.55 34.65L38.25 35.45M33.2,20.35Q33.05 20.55 33.3 20.65Q33.75 20.9 33.9 20.55L33.85 20.35L33.65 20.2L33.4 20.1L33.2 20.35M18.5,26.3L16.45 24.6L15.15 23.7L14.85 23.6Q16.3 23.9 17.6 24.9L18.75 25.6L18.5 26.3M19.35,23.35L18.9 23.1Q16.45 21.4 16.2 20.45Q15.9 19.45 17.3 20.45Q18.55 21.3 19.9 21.4L19.35 23.35M17.6,33.05L18.05 33.15L18.2 33.15Q19.05 33.3 19.3 34.1L19.45 34.65L19 34.65Q17.95 34.35 17.9 34L17.6 33.05M14.65,37.4L14.5 37.3L14.4 37.25L14.3 37.25L14.15 37.3Q13.85 37.5 14 37.85Q14.15 38.2 14.6 38.1L14.75 37.8L14.75 37.55L14.65 37.4M37.05,33.6Q36.7 34.1 37.25 33.85L37.4 33.75Q37.65 33.6 37.15 33.5L37.05 33.6M23.2,34.05Q23.4 33.3 24.25 33.15L24.45 33.05L24.6 33.05L24.7 33.05L24.7 33.4Q24.7 34.55 23.55 34.55L23.1 34.45L23.2 34.05M28.4,37.65L28.15 37.35L28 37.4Q27.8 37.5 27.8 37.85Q27.8 38.3 28.25 38.2L28.35 38.1L28.4 37.65" />
<path style="fill:#D26A3D;fill-opacity:1" d="M28.15,19.4L28.45 19.55L28.3 19.6Q27.75 19.8 28.15 19.4M20.95,31.65Q21.35 31.8 21.2 32.15Q21.05 32.6 20.8 32.25L20.7 32.15L20.7 31.95L20.8 31.7L20.95 31.65" />
<path style="fill:#B1552E;fill-opacity:1" d="M8.35,11.25L8.35 10.95L12.15 12.55L13.7 13.15Q10.3 12.55 8.35 11.25M33.4,20.1L33.65 20.2L33.85 20.35L33.9 20.55Q33.75 20.9 33.3 20.65Q33.05 20.55 33.2 20.35L33.4 20.1M26.75,30L26.45 30.15L26 29.85L26.75 30" />
<path style="fill:#E7950A;fill-opacity:1" d="M14,25.85Q15.7 26.8 16.7 26.85L17.8 26.9L18.1 27.2Q16.65 28.05 15.55 27.55L14.3 26.7L13.85 26.25L13.5 25.7L13.45 25.55L14 25.85M26.55,26.65Q28.2 26.25 29 24.85L29.05 24.95L29.05 25.15L28.95 25.65L28.6 26.2L28.15 26.65L26.9 27.45Q25.85 28 24.35 27.1L24.8 26.8L24.9 26.8L26.55 26.65" />
<path style="fill:#FFFFFF;fill-opacity:1" d="M17.05,26.35L17.05 26.55Q16.65 26.9 16.3 26.45L16.3 26.4L16.1 26.35L16 26.25L16 26.1L16.05 25.95L16.25 25.8L16.35 25.8L16.55 25.95L16.85 26.1L17.05 26.3L17.05 26.35M27.95,25.3Q27.75 26 27 25.75Q26.95 25.4 27.25 25.2L27.45 25.15L27.9 25.25L27.95 25.3" />
<path style="fill:#FFF980;fill-opacity:1" d="M17.05,26.3L17.8 26.9L16.7 26.85Q15.7 26.8 14 25.85L13.45 25.55L13.4 25.2L13.35 24.25Q14.75 24.7 16.35 25.8L16.25 25.8L16.05 25.95L16 26.1L16 26.25L16.1 26.35L16.3 26.4L16.3 26.45Q16.65 26.9 17.05 26.55L17.05 26.35L17.05 26.3M27.9,25.25L27.45 25.15L27.25 25.2Q26.95 25.4 27 25.75Q27.75 26 27.95 25.3L27.9 25.25M24.9,26.8L25.8 25.8Q27.1 24.65 28.65 24.3L29 24.85Q28.2 26.25 26.55 26.65L24.9 26.8" />
<path style="fill:#984421;fill-opacity:1" d="M12.4,28.7L12.7 28.7L13 28.9L13 29.05L12.7 29.3Q12.2 29.4 12.25 28.9Q12.25 28.7 12.4 28.7M32.9,26.9L33.05 27L32.8 27.2Q32.25 27.4 32.6 26.9Q32.7 26.8 32.75 26.8L32.9 26.9" />
<path style="fill:#4A443F;fill-opacity:1" d="M11.35,39.55L11.55 39.7L12 37.8L12.2 37.25L12.2 37.05L12.8 38.55L12.7 38.65L12.7 38.8Q12.35 39.35 12.35 40L12.35 40.1L12.2 41.05L11.65 40.95L11.4 40.8L11.35 40.8L11.3 40.75L11.2 40.65L11.15 40.6Q9.85 39.25 9.7 37.35Q9.55 36.05 10.3 34.65L11.2 33.3L11.25 33.3L11.35 33.45Q11.55 33.55 11.4 33.95L11.4 34.05L11.15 34.65L11.15 34.7L11 34.9L10.95 35.05L10.5 36.3Q10.3 37.05 10.5 37.75L10.55 37.85L10.85 38.7L10.95 38.9L11.2 39.35L11.35 39.55M31.05,40.8L30.8 40.95L30.3 41.05L30.1 40L29.85 38.8L29.75 38.65L29.65 38.55L30.3 37.05L30.3 37.2L30.5 37.8L30.9 39.7L31.1 39.55L31.25 39.35L31.95 37.9L31.95 37.75Q32.15 37.05 31.95 36.3L31.55 35.05L31.45 34.9L31.3 34.7L31.3 34.65L31.1 34.05L31.05 33.95Q30.9 33.55 31.1 33.45L31.25 33.4L31.25 33.3L31.3 33.35L32.2 34.65Q32.9 36.05 32.8 37.35Q32.6 39.45 31.1 40.8L31.05 40.8" />
<path style="fill:#9C8D74;fill-opacity:1" d="M9.95,33.4Q10.4 33.05 11.1 32.85L11.25 33.3L11.2 33.3L10.3 34.65L9.95 33.4M20.45,42.2Q20.05 42.7 20.6 42.45Q20.95 42.35 20.7 42.2L21.4 42.3Q21.65 42.1 24.35 41.15Q27 40.1 28.35 39.95Q29.3 39.8 29.85 38.8L30.1 40L30.3 41.05L30.8 40.95L31.05 40.8L28.6 43.7L26.55 45.4L25.1 46.3L24.85 46.45L25.1 46.2Q26.4 45.05 26.9 43.45L27.15 43.9L27.15 43.25L26.8 42.55L26.75 42.55L26.7 42.65L26.4 42.55L26.05 42.25L24.95 42.9L24.7 42.65L24.4 42.55Q24.25 42.55 24.15 42.7Q24.05 43 24.4 43.15L24.5 43.15L23 43.95L21.7 44.4L21.7 44.55L21.65 44.7L20.95 44.85L20.55 44.6L20.55 44.3Q19.4 44.15 17.7 43.25L17.45 42.75L17.05 42.55L16.85 42.55L16.8 42.7L16.7 42.75L16.7 42.85L15.55 42.4L15.35 42.55L15.3 42.65L15.05 42.45L14.75 42.25Q14.3 42.2 14.5 41.95Q13.15 41.15 12.6 40.4L12.55 40.4L12.35 40.1L12.35 40Q12.35 39.35 12.7 38.8Q13.15 39.8 14.3 39.95Q15.75 40.1 18.45 41.3L20.5 42.1L20.45 42.2M32.2,34.65L31.3 33.35L31.35 32.8L32.5 33.3L32.2 34.65M11.3,40.8L11.2 40.65L11.3 40.75L11.3 40.8M12.95,41.65Q12.4 41.9 12.7 41.4L12.85 41.3Q13.45 41.4 12.95 41.65M18.35,45.3Q17.95 45.15 18.05 44.7Q18.1 44.5 18.35 44.5L18.75 44.65L19.1 45.05L19.2 45.2L18.35 45.3M28.7,41.4L28.35 41.7L28.35 42.1L28.6 42.1Q28.95 42.2 29.15 41.8Q29.3 41.4 28.8 41.3L28.7 41.4M24.85,44.45L25 44.65L24.95 44.85Q24.7 45.05 24.5 44.85Q24.25 44.65 24.4 44.4L24.6 44.3L24.85 44.45M22.75,45.9Q23.35 46 22.85 46.25Q22.3 46.55 22.65 46L22.75 45.9" />
<path style="fill:#CCC6C4;fill-opacity:1" d="M11.2,39.35L11.2 38.95L11.15 38.35L11.1 37.65L10.95 35.05L11 34.9L11.15 34.7L11.15 34.65L11.55 36.5L11.45 38.55L11.4 38.7L11.35 39.45L11.35 39.55L11.2 39.35M31.3,34.65L31.3 34.7L31.45 34.9L31.55 35.05L31.35 37.65L31.25 39.35L31.1 39.55L31.1 39.45L30.9 36.5L31.3 34.65" />
<path style="fill:#97A2AC;fill-opacity:1" d="M11.4,33.95L12.2 37.05L12.2 37.25L12 37.8L11.55 39.7L11.35 39.55L11.35 39.45L11.4 38.7L11.45 38.55L11.55 36.5L11.15 34.65L11.4 34.05L11.4 33.95M31.1,34.05L31.3 34.65L30.9 36.5L31.1 39.45L31.1 39.55L30.9 39.7L30.5 37.8L30.3 37.2L30.3 37.05L31.05 33.95L31.1 34.05" />
<path style="fill:#DFDFDF;fill-opacity:1" d="M11.2,39.35L10.95 38.9L10.85 38.7L10.55 37.85L10.5 37.75Q10.3 37.05 10.5 36.3L10.95 35.05L11.1 37.65L11.15 38.35L11.2 38.95L11.2 39.35M31.35,37.65L31.55 35.05L31.95 36.3Q32.15 37.05 31.95 37.75L31.95 37.9L31.25 39.35L31.35 37.65" />
<path style="fill:#5F473D;fill-opacity:1" d="M31.1,40.8Q32.6 39.45 32.8 37.35Q32.9 36.05 32.2 34.65L32.5 33.3L32.85 33.5Q33.5 33.85 33.55 33.95L33.4 37.45L33.2 39.6Q31.45 42.55 28.45 45.1L28.4 45.15L25.1 47.45L25.15 46.8L25.1 46.3L26.55 45.4L28.6 43.7L31.05 40.8L31.1 40.8M10.3,34.65Q9.55 36.05 9.7 37.35Q9.85 39.25 11.15 40.6L11.2 40.65L11.3 40.8L11.55 41.15L11.15 41.55L10.85 41.95L9.25 39.65L9.05 37.5L8.9 34L9.6 33.55L9.95 33.3L9.95 33.4L10.3 34.65" />
<path style="fill:#CCC6B8;fill-opacity:1" d="M20.5,42.1L20.55 42.1L20.7 42.2Q20.95 42.35 20.6 42.45Q20.05 42.7 20.45 42.2L20.5 42.1M22.2,47.45L21.25 47.75L21.2 47.75L20.95 47.7Q21.2 47.7 21.25 47.45L21.25 47.35Q21.15 47.15 20.95 47.15L20.65 47.15Q20.35 47.15 20.45 47.35L20.5 47.5Q19.3 46.9 17.05 45.4L13.4 43L13.4 43.25L11.55 41.15L11.3 40.8L11.3 40.75L11.35 40.8L11.4 40.8L11.65 40.95L12.2 41.05L12.35 40.1L12.55 40.4L12.6 40.4Q13.15 41.15 14.5 41.95Q14.3 42.2 14.75 42.25L15.05 42.45L15.3 42.65L15.35 42.55L15.55 42.4L16.7 42.85L16.7 42.75L16.8 42.7L16.85 42.55L17.05 42.55L17.45 42.75L17.7 43.25Q19.4 44.15 20.55 44.3L20.55 44.6L20.95 44.85L21.65 44.7L21.7 44.55L21.7 44.4L23 43.95L24.5 43.15L24.4 43.15Q24.05 43 24.15 42.7Q24.25 42.55 24.4 42.55L24.7 42.65L24.95 42.9L26.05 42.25L26.4 42.55L26.7 42.65L26.75 42.55L26.8 42.55L27.15 43.25L27.15 43.9L26.9 43.45Q26.4 45.05 25.1 46.2L24.85 46.45L22.2 47.45M12.85,41.3L12.7 41.4Q12.4 41.9 12.95 41.65Q13.45 41.4 12.85 41.3M19.2,45.2L19.1 45.05L18.75 44.65L18.35 44.5Q18.1 44.5 18.05 44.7Q17.95 45.15 18.35 45.3L19.2 45.2M28.8,41.3Q29.3 41.4 29.15 41.8Q28.95 42.2 28.6 42.1L28.35 42.1L28.35 41.7L28.7 41.4L28.8 41.3M24.6,44.3L24.4 44.4Q24.25 44.65 24.5 44.85Q24.7 45.05 24.95 44.85L25 44.65L24.85 44.45L24.6 44.3M20.9,45.8Q20.5 46.3 21.05 46.1Q21.5 46 20.95 45.7L20.9 45.8M20.45,45.8L20.35 45.9Q19.9 46.45 20.5 46.2Q20.95 46.1 20.45 45.8M22.65,46Q22.3 46.55 22.85 46.25Q23.35 46 22.75 45.9L22.65 46" />
<path style="fill:#74574C;fill-opacity:1" d="M25.1,47.45L22.95 48.55L21.25 49.2L19.4 48.65Q16.95 48.15 14 45.45L11.75 43.15L11 42.1L10.85 41.95L11.15 41.55L11.55 41.15L13.4 43.25L15.9 45.45Q18.05 46.9 20.25 47.5L20.5 47.6L20.95 47.7L21.2 47.75L21.25 47.75L22.2 47.45L24.85 46.45L25.1 46.3L25.15 46.8L25.1 47.45" />
<path style="fill:#E9E7DA;fill-opacity:1" d="M13.4,43.25L13.4 43L17.05 45.4Q19.3 46.9 20.5 47.5L20.45 47.35Q20.35 47.15 20.65 47.15L20.95 47.15Q21.15 47.15 21.25 47.35L21.25 47.45Q21.2 47.7 20.95 47.7L20.5 47.6L20.25 47.5Q18.05 46.9 15.9 45.45L13.4 43.25M20.95,45.7Q21.5 46 21.05 46.1Q20.5 46.3 20.9 45.8L20.95 45.7M20.5,46.2Q19.9 46.45 20.35 45.9L20.45 45.8Q20.95 46.1 20.5 46.2" />
</g>
</svg>
