<?xml version="1.0" encoding="utf-8"?>
<svg version="1.1" id="Layer_1"
xmlns="http://www.w3.org/2000/svg"
xmlns:xlink="http://www.w3.org/1999/xlink"
xmlns:author="http://www.sothink.com"
width="27px" height="25px"
xml:space="preserve">
<g id="1289" transform="matrix(1, 0, 0, 1, -557.9, -261.35)">
<path style="fill:#312D23;fill-opacity:1" d="M558.85,269.2L558.95 269.55L559 269.85Q559.55 271.95 561.75 272.8L562.4 273L563.25 272.4L564 271.5L564.2 271.1L564.35 270.7L562.75 270.2Q560.7 269.2 559.35 267.5Q559.05 267.05 559.1 266.85L558.9 267.5Q558.7 268.2 558.85 269.2M558.5,266.35L559.3 265.35Q559.4 265.95 560.05 266.9Q560.65 267.85 561.95 268.75Q563.3 269.65 564.05 269.75L564.85 269.75L564.95 269.75L565.95 269.85L566.25 270.05L565.2 270.6Q565.3 271.25 565 271.9L564.3 272.75Q563.5 273.6 562.5 273.8Q561.2 274.05 559.8 272.8Q557.75 270.75 557.9 267.95L558 267.5Q558.1 266.9 558.5 266.35" />
<path style="fill:#9D8E79;fill-opacity:1" d="M559,269.85L558.95 269.55L558.85 269.2Q558.7 268.2 558.9 267.5Q559.8 269.05 562.3 270.6L564 271.5L563.25 272.4Q562.25 272.75 560.7 271.8Q559.35 270.95 559 269.85" />
<path style="fill:#F0EAC6;fill-opacity:1" d="M562.3,270.6Q559.8 269.05 558.9 267.5L559.1 266.85Q559.05 267.05 559.35 267.5Q560.7 269.2 562.75 270.2L564.35 270.7L564.2 271.1L564 271.5L562.3 270.6M560.7,271.8Q562.25 272.75 563.25 272.4L562.4 273L561.75 272.8Q559.55 271.95 559 269.85Q559.35 270.95 560.7 271.8" />
<path style="fill:#CCC6B8;fill-opacity:1" d="M578.55,278.5L577.15 278.45L575.6 277.75L574.85 277.55L571.1 277.8Q569.75 278.25 569.45 280.35L569.2 283.2L569.2 283.5Q569.05 284.55 568.3 284.85L567.85 284.9Q567.8 284.15 567.2 283.5L566.75 283.1L566.55 282.85Q566.35 282.6 566.45 282.9L566.5 283.2Q566.3 284 565.55 284.4L564.7 284.75L564.8 284.1L564.85 283.3L564.7 283.25L564.65 283.15L564.65 283.1L564.65 283L564.75 282.9L564.85 282.85L564.75 282.1L564.9 282.05L565 282L565 281.9L564.95 281.65L564.7 281.55L564.6 281.65L563.85 280.45L563.35 279.55L563.1 279.4Q562.9 279.2 563.05 279.05L563.1 279L563.15 279L562.9 277.8L563.05 277.8L563.1 277.75L563.1 277.5L562.9 277.35L562.85 277.4Q562.85 276.05 563.1 275.25L563.3 274.65L563.25 274.7L563.45 274.25L563.8 273.65Q564.2 273.3 564.8 273.05L565.8 272.6L566.6 271.9L567.1 271.2L567.2 271.35L567.65 271.45Q568.3 271 567.7 270.75Q568.7 270.15 570.55 270.15L571.3 270.2L571.35 270.45L571.55 270.6L572.05 270.3L573.85 270.9L574.25 271.6L574.95 272.1Q575.3 272.1 575.65 271.8Q576.05 271.8 576.3 272.3Q576.6 272.95 577.05 273.15L577.1 273.2Q576.65 273.55 577.25 274.05L577.6 274.05L577.65 274.05L577.75 274.25L578.6 275.95L578.85 276.55L578.55 278.5M574.15,273.65L574.4 273.8Q575.3 273.55 574.4 273.2Q574 273.3 574.15 273.65M575.15,276.15Q575.9 275.65 574.75 275.55Q574.3 275.7 574.6 276.05L575.15 276.15M571.85,273.6Q572.55 273.15 571.55 272.9Q571.05 273.05 571.4 273.5L571.85 273.6M569.2,273.1Q570 272.6 568.95 272.35Q568.5 272.5 568.75 272.95Q568.95 273.25 569.2 273.1M564.3,279.7Q564.45 280.4 565.05 280.7L566.5 280.9Q567.5 280.9 568.3 279.75Q569.05 278.55 569 277.2L568.85 276.5L568.75 276.2L568.45 275.65Q567.75 274.75 566.4 274.85L565.9 274.9Q564.9 275 564.25 276.15Q563.55 277.25 563.8 278.2L564.2 279.5L564.3 279.7M567.85,283L568.25 283.1L568.25 283L568.25 282.7L568 282.55L567.95 282.6Q567.7 282.75 567.85 283" />
<path style="fill:#B3A38A;fill-opacity:1" d="M566.5,283.35Q566.7 284.2 566.2 284.85L564.7 284.75L565.55 284.4Q566.3 284 566.5 283.2L566.5 283.35M567.85,284.9L568.3 284.85Q569.05 284.55 569.2 283.5L569.2 283.2L569.45 280.35Q569.75 278.25 571.1 277.8L574.85 277.55L575.6 277.75L577.15 278.45L578.55 278.5L578.5 278.55Q577.05 281.3 575.45 281.85L572.55 282.3L570.85 282.6L570.45 282.95Q569.65 283.8 569.35 285.1L568.7 285.25L568.1 285.3L567.85 285.3L567.85 285L567.85 284.9M569,277.2Q569.05 278.55 568.3 279.75Q567.5 280.9 566.5 280.9L565.05 280.7Q564.45 280.4 564.3 279.7Q564.6 280 565.4 280.15L567.2 279.85Q567.95 279.3 568.55 278Q568.9 277.15 568.85 276.5L569 277.2" />
<path style="fill:#3C3326;fill-opacity:1" d="M567.7,275.8Q567.25 275.45 566.2 275.55Q565.05 275.9 564.75 276.95L564.65 278.1L564.85 279.1Q567.1 280.1 567.9 277.7Q568.3 276.3 567.7 275.8M564.2,279.5L563.8 278.2Q563.55 277.25 564.25 276.15Q564.9 275 565.9 274.9L566.4 274.85Q567.75 274.75 568.45 275.65L568.75 276.2L568.85 276.5Q568.9 277.15 568.55 278Q567.95 279.3 567.2 279.85L565.4 280.15Q564.6 280 564.3 279.7L564.2 279.5" />
<path style="fill:#4F4536;fill-opacity:1" d="M567.9,277.7Q567.1 280.1 564.85 279.1L564.65 278.1L564.75 276.95Q565.05 275.9 566.2 275.55Q567.25 275.45 567.7 275.8Q568.3 276.3 567.9 277.7" />
<path style="fill:#E9E7DA;fill-opacity:1" d="M564.3,272.75L565.65 271.2Q566.7 270.05 568.4 269.1Q570.1 268.15 573.6 269.35Q577.15 270.5 577.95 272.6Q578.75 274.65 578.85 276.1L578.85 276.55L578.6 275.95L577.75 274.25L577.65 274.05L577.6 274.05L577.25 274.05Q576.65 273.55 577.1 273.2L577.05 273.15Q576.6 272.95 576.3 272.3Q576.05 271.8 575.65 271.8Q575.3 272.1 574.95 272.1L574.25 271.6L573.85 270.9L572.05 270.3L571.55 270.6L571.35 270.45L571.3 270.2L570.55 270.15Q568.7 270.15 567.7 270.75Q568.3 271 567.65 271.45L567.2 271.35L567.1 271.2L566.6 271.9L565.8 272.6L564.8 273.05Q564.2 273.3 563.8 273.65L564.3 272.75M564.6,284.75L564.4 283.15L563.95 281.85L563.4 281.05Q562.45 279.9 562.25 278.7Q562 277.45 562.7 275.9L563.2 274.7L563.25 274.7L563.3 274.65L563.1 275.25Q562.85 276.05 562.85 277.4L562.9 277.35L563.1 277.5L563.1 277.75L563.05 277.8L562.9 277.8L563.15 279L563.1 279L563.05 279.05Q562.9 279.2 563.1 279.4L563.35 279.55L563.85 280.45L564.6 281.65L564.7 281.55L564.95 281.65L565 281.9L565 282L564.9 282.05L564.75 282.1L564.85 282.85L564.75 282.9L564.65 283L564.65 283.1L564.65 283.15L564.7 283.25L564.85 283.3L564.8 284.1L564.7 284.75L564.6 284.75M567.85,285L567.85 285.3L567.55 285.2L567.3 285L567.25 285Q567.05 284.8 567.15 284.7L567 283.85L566.75 283.1L567.2 283.5Q567.8 284.15 567.85 284.9L567.85 285M574.4,273.2Q575.3 273.55 574.4 273.8L574.15 273.65Q574 273.3 574.4 273.2M574.6,276.05Q574.3 275.7 574.75 275.55Q575.9 275.65 575.15 276.15L574.6 276.05M571.4,273.5Q571.05 273.05 571.55 272.9Q572.55 273.15 571.85 273.6L571.4 273.5M568.75,272.95Q568.5 272.5 568.95 272.35Q570 272.6 569.2 273.1Q568.95 273.25 568.75 272.95M567.95,282.6L568 282.55L568.25 282.7L568.25 283L568.25 283.1L567.85 283Q567.7 282.75 567.95 282.6" />
<path style="fill:#4A4131;fill-opacity:1" d="M566.5,283.2L566.45 282.9Q566.35 282.6 566.55 282.85L566.75 283.1L567 283.85L567.15 284.7Q567.05 284.8 567.25 285L567.3 285L567.55 285.2L567.85 285.3L568.1 285.3L568.7 285.25L569.35 285.1Q569.65 283.8 570.45 282.95L570.85 282.6L572.55 282.3L575.45 281.85Q577.05 281.3 578.5 278.55L579.2 278.35L579.8 277.95L579.9 277.75L579.9 277.85Q579.8 279.25 578.8 280.45L577.6 281.5Q575.4 283.15 573.05 283.05L572.1 283Q570.8 283.2 570.5 284.65Q570.2 286.1 568.95 286.2L568.15 286.15L566.75 285.6Q566.25 286.15 565.65 286.15L565.15 286.1Q564.15 285.8 563.3 285.15L563.3 285.05Q563.4 282.75 562.45 281.4L563.95 281.85L564.4 283.15L564.6 284.75L564.7 284.75L566.2 284.85Q566.7 284.2 566.5 283.35L566.5 283.2" />
<path style="fill:#625643;fill-opacity:1" d="M578.55,278.5L578.85 276.55L578.85 276.1Q578.75 274.65 577.95 272.6Q577.15 270.5 573.6 269.35Q570.1 268.15 568.4 269.1Q566.7 270.05 565.65 271.2L564.3 272.75L563.8 273.65L563.45 274.25L563.25 274.7L563.2 274.7L562.7 275.9Q562 277.45 562.25 278.7Q562.45 279.9 563.4 281.05L563.95 281.85L562.45 281.4L562.4 281.35Q561.3 279.9 561.2 278.2Q561.05 276.5 562.2 274.25Q563.3 272 564.55 270.85Q565.8 269.65 567.05 268.75Q568.25 267.85 570.3 267.7Q576.5 268.25 578.4 271.35Q580.25 274.4 579.9 277.75L579.8 277.95L579.2 278.35L578.5 278.55L578.55 278.5" />
<path style="fill:#3D3D46;fill-opacity:1" d="M576,271.75L576.1 271.65L576.2 271.6Q576.35 271.6 576.55 271.75L576.8 271.95L576.85 272.05L576.5 272.2L576 271.8L576 271.75M576.1,273.75L575.5 273.8Q575.2 273.55 575.35 273.3L575.5 273.2Q575.75 273.1 575.85 273.35L576.05 273.7L576.1 273.75" />
<path style="fill:#4E1C10;fill-opacity:1" d="M581.35,276.4L581.35 277.45L581.3 278.15Q581.15 279.5 580.4 281.75L579.55 284.1L579 284.45L578.25 284.7Q574.7 285.8 571.05 285.15L571.3 283.95L571.5 282.5L571.55 282.25L571.75 280.35Q572.15 276.2 568.85 273.9Q567.9 273.25 567 273.3L565.75 273.35L564.35 273.75L563.35 274.1L561.35 274.9L561.15 274.85L561.15 274.55L561.55 273.05L561.75 272.55L562.2 271.75L562.3 271.45L562.55 270.95L562.6 270.85Q562.9 270.2 563.35 269.7L563.6 269.4L564.3 268.7L565.85 267.65L566.25 267.45Q566.5 267.25 566.9 267.15Q567.45 266.85 568.15 266.7L571.05 266.3Q573.3 266.4 575.05 267.1L576.2 267.65Q576.65 267.9 577.1 268.3L578.05 269.05Q578.9 269.9 579.6 271.05L580.45 272.7L580.5 272.9Q581.2 274.65 581.35 276.4M579.4,273.05Q578.85 271.7 578 270.6L577 269.5L576.2 268.85L575.95 268.65Q575.1 268.05 573.5 267.65L570.55 267.3L568.5 267.6Q567.75 267.75 566.8 268.25L565.3 269.2L564.2 270.3Q563.6 271 563.2 271.95L562.75 273.1L563.2 273L564.25 272.7L565.5 272.45L567.85 272.55Q569.05 272.9 570.3 273.95L570.95 274.55Q572.75 276.3 572.75 279.35L572.5 281.9L572.5 282.05L572.45 282.4L572.25 283.3L572.1 284.15L572.1 284.25Q574.6 285.15 578.85 283.25L579.3 282.1L580 279.15L580.2 277.2L580.2 276.35L580 274.9L579.4 273.05" />
<path style="fill:#8C331D;fill-opacity:1" d="M580,274.9L580.2 276.35L580.2 277.2L580 279.15L579.3 282.1L578.85 283.25Q574.6 285.15 572.1 284.25L572.1 284.15L572.25 283.3L572.45 282.4L572.5 282.05L572.5 281.9L572.75 279.35Q572.75 276.3 570.95 274.55L570.3 273.95L571.2 274.3L574.55 275.35Q574.35 275.6 574.45 275.85L574.5 275.85L574.6 275.9L574.8 275.8L574.9 275.65L575 275.7L575.15 275.7L575.55 275.5L576.2 275.5L577.45 275.3L578 275.25L578.3 274.85L578.6 274.5L578.9 274.15L578.65 274L578.25 273.8L578.2 273.9L578.15 273.95L577.85 273.9L577.8 273.5L577.2 273.35L577.1 273.2L577.15 273.15L577.15 273.1L577.2 273.05L577.25 273.05L577.3 273L577.95 273.15L578.2 272.7L578.4 272.6L578.5 272.65L578.55 272.7L578.6 272.75L578.35 273.2L578.3 273.35L578.35 273.35L578.8 273.65L578.8 273.6L579.15 273.75L579.4 273.05L580 274.9M578.65,279.15L578.5 279.15Q578.3 279.1 578.35 279.3Q578.25 279.4 578.3 279.6L578.35 279.75L578.5 279.75L578.8 279.75L578.9 279.7L578.95 279.5L578.8 279.25L578.75 279.2L578.65 279.15M577.55,281.65L577.35 281.55L576.9 281.5L576.45 281.75Q576.15 282.05 576.25 282.5L576.3 282.65L576.5 282.7Q577.4 282.9 577.55 282.1L577.55 281.65M575.9,278.05Q575.7 278.05 575.7 278.2Q575.6 278.35 575.65 278.55L575.7 278.85L575.85 278.9L576.15 278.85L576.2 278.8L576.2 278.35L575.9 278.05" />
<path style="fill:#EE7557;fill-opacity:1" d="M563.2,273L562.75 273.1L563.2 271.95Q563.6 271 564.2 270.3L565.3 269.2L566.8 268.25Q567.75 267.75 568.5 267.6L570.55 267.3L573.5 267.65Q575.1 268.05 575.95 268.65L576.2 268.85L577 269.5L578 270.6L575.45 269.15L573.75 268.5L571.8 268.25L571.5 268.2L571.45 268.05L571.2 267.9L571.1 267.95L570.9 268.1L570.9 268.15L570.9 268.2L569.95 268.2L569.8 268.2L569.7 268.2Q568 268.3 566.75 269.25L566.55 269.2L566.35 269.2Q566.2 269.2 566.2 269.4L565.95 269.8Q565.7 269.8 565.75 270L565.8 270.1Q565.3 270.6 564.95 271.25L564.8 271.2L564.5 271.35Q564.25 271.45 564.35 271.7L564.4 271.95L564.55 272L564.25 272.7L563.2 273M569.1,270.7L569.15 270.85L569.1 270.85L569.05 270.95L568.6 270.95L568.45 270.95L568.4 271L568.35 271L568.3 271.05L568.15 270.95L568 270.8Q567.9 270.6 568.1 270.45L568.2 270.4L568.65 270.45L569.1 270.7" />
<path style="fill:#BB482E;fill-opacity:1" d="M579.4,273.05L579.15 273.75L578.8 273.6L578.8 273.65L578.35 273.35L578.3 273.35L578.35 273.2L578.6 272.75L578.55 272.7L578.5 272.65L578.4 272.6L578.2 272.7L577.95 273.15L577.3 273L577.25 273.05L577.2 273.05L577.15 273.1L577.15 273.15L577.1 273.2L577.2 273.35L577.8 273.5L577.85 273.9L578.15 273.95L578.2 273.9L578.25 273.8L578.65 274L578.9 274.15L578.6 274.5L578.3 274.85L578 275.25L577.45 275.3L576.2 275.5L575.55 275.5L575.15 275.7L575 275.7L574.9 275.65L574.8 275.8L574.6 275.9L574.5 275.85L574.45 275.85Q574.35 275.6 574.55 275.35L571.2 274.3L570.3 273.95Q569.05 272.9 567.85 272.55L565.5 272.45L564.25 272.7L564.55 272L564.4 271.95L564.35 271.7Q564.25 271.45 564.5 271.35L564.8 271.2L564.95 271.25Q565.3 270.6 565.8 270.1L565.75 270Q565.7 269.8 565.95 269.8L566.2 269.4Q566.2 269.2 566.35 269.2L566.55 269.2L566.75 269.25Q568 268.3 569.7 268.2L569.8 268.2L569.95 268.2L570.9 268.2L570.9 268.15L570.9 268.1L571.1 267.95L571.2 267.9L571.45 268.05L571.5 268.2L571.8 268.25L573.75 268.5L575.45 269.15L578 270.6Q578.85 271.7 579.4 273.05M568.65,270.45L568.2 270.4L568.1 270.45Q567.9 270.6 568 270.8L568.15 270.95L568.3 271.05L568.35 271L568.4 271L568.45 270.95L568.6 270.95L569.05 270.95L569.1 270.85L569.15 270.85L569.1 270.7L568.65 270.45M576,271.8L576.5 272.2L576.85 272.05L576.8 271.95L576.55 271.75Q576.35 271.6 576.2 271.6L576.1 271.65L576 271.75L576 271.8M578.75,279.2L578.8 279.25L578.95 279.5L578.9 279.7L578.8 279.75L578.5 279.75L578.35 279.75L578.3 279.6Q578.25 279.4 578.35 279.3Q578.3 279.1 578.5 279.15L578.65 279.15L578.75 279.2M577.55,282.1Q577.4 282.9 576.5 282.7L576.3 282.65L576.25 282.5Q576.15 282.05 576.45 281.75L576.9 281.5L577.35 281.55L577.55 281.65L577.55 282.1M576.05,273.7L575.85 273.35Q575.75 273.1 575.5 273.2L575.35 273.3Q575.2 273.55 575.5 273.8L576.1 273.75L576.05 273.7M576.2,278.35L576.2 278.8L576.15 278.85L575.85 278.9L575.7 278.85L575.65 278.55Q575.6 278.35 575.7 278.2Q575.7 278.05 575.9 278.05L576.2 278.35" />
<path style="fill:#545454;fill-opacity:1" d="M581.35,276.4L583.6 276.5Q583.6 273.9 582.2 269.95L581.55 268.45L581.1 267.75Q579.9 265.95 577.95 264.75L577.8 264.65L576.6 263.95Q575.8 263.55 575.1 263.3Q571.8 261.95 568.8 262.35Q565.15 262.75 564.05 264.55L565.25 265.45L566.45 266.5L566.9 267.15Q566.5 267.25 566.25 267.45L566.15 267.3L565.1 266.2Q563.95 265.25 562.7 264.95L562.7 264.9Q563.05 264.2 563.65 263.65Q564.65 262.65 566.1 262L569.15 261.4L570.25 261.35L573.15 261.65L574.5 262Q576.25 262.4 577.7 263.25L577.85 263.35Q580 264.6 581.35 266.35L581.45 266.5L582.2 267.55Q582.85 268.65 583.3 270Q584.35 273.3 584.5 275.95L584.55 277.55L581.35 277.45L581.35 276.4" />
<path style="fill:#999A9C;fill-opacity:1" d="M580.5,272.9L580.45 272.7L579.6 271.05Q578.9 269.9 578.05 269.05L579.2 269.15Q580.7 269.15 581.55 268.45L582.2 269.95Q583.6 273.9 583.6 276.5L581.35 276.4Q581.2 274.65 580.5 272.9" />
<path style="fill:#BFBFBF;fill-opacity:1" d="M579.2,269.15L578.05 269.05L577.1 268.3Q576.65 267.9 576.2 267.65L576.9 266.8Q577.55 265.85 577.8 264.65L577.95 264.75Q579.9 265.95 581.1 267.75L581.55 268.45Q580.7 269.15 579.2 269.15M568.15,266.7L567.7 265.9L566.3 264Q568.5 263.4 571.5 263.35Q573.25 263.25 574.3 263.9Q575.45 264.55 575.45 265.45L575.05 267.1Q573.3 266.4 571.05 266.3L568.15 266.7" />
<path style="fill:#F0F0F0;fill-opacity:1" d="M566.9,267.15L566.45 266.5L565.25 265.45L564.05 264.55Q565.15 262.75 568.8 262.35Q571.8 261.95 575.1 263.3Q575.8 263.55 576.6 263.95L577.8 264.65Q577.55 265.85 576.9 266.8L576.2 267.65L575.05 267.1L575.45 265.45Q575.45 264.55 574.3 263.9Q573.25 263.25 571.5 263.35Q568.5 263.4 566.3 264L567.7 265.9L568.15 266.7Q567.45 266.85 566.9 267.15" />
<path style="fill:#3E3A2F;fill-opacity:1" d="M573.8,269.7L574.8 269.45L575.2 269.4L575.85 269.3Q576.65 269.15 577.5 268.5Q578.35 267.95 578.85 267Q579.45 265.9 579.5 264.65L579.65 262.85Q580.65 263.7 581.3 264.7Q581.8 265.4 582.1 266.25L582.5 268.25Q582.5 269.55 581.95 270.9L580.75 272.75Q579.85 273.7 578.25 274.25L575.65 274.65L575.35 274.6Q574.1 274.3 573.75 274.05L573.55 273.95L572.8 273.2Q572.35 272.65 572.25 272Q572.1 271.2 572.55 270.55Q573.05 269.85 573.8 269.7M575.3,273.8L575.6 273.85L578.35 273.45Q580.05 272.7 580.9 271.45L581.55 270.1L581.8 268.5L581.75 267.9Q581.5 266.45 580.5 264.75L580.2 264.15Q580.55 266.35 579.05 268.25Q577.7 269.75 575.25 270.2L573.8 270.4Q572.95 270.7 573 271.55L573.3 272.6L573.75 273.1Q573.95 273.45 575.05 273.75L575.3 273.8" />
<path style="fill:#9D8E79;fill-opacity:1" d="M581.8,268.5L581.55 270.1L580.5 271.55L578.25 273Q576.7 273.65 575.05 273.75Q573.95 273.45 573.75 273.1L573.3 272.6L573 271.55L573.65 272.1L575.45 272.4L575.85 272.3Q576.95 272.05 578.3 270.8L578.35 271.3L578.3 271.75L578.6 271.7Q580.65 270.85 581.6 268.4L581.75 267.9L581.8 268.5" />
<path style="fill:#F0EAC6;fill-opacity:1" d="M573.8,270.4L575.25 270.2Q577.7 269.75 579.05 268.25Q580.55 266.35 580.2 264.15L580.5 264.75Q581.5 266.45 581.75 267.9L581.6 268.4Q580.65 270.85 578.6 271.7L578.3 271.75L578.35 271.3L578.3 270.8Q576.95 272.05 575.85 272.3L575.45 272.4L573.65 272.1L573 271.55Q572.95 270.7 573.8 270.4M575.05,273.75Q576.7 273.65 578.25 273L580.5 271.55L581.55 270.1L580.9 271.45Q580.05 272.7 578.35 273.45L575.6 273.85L575.3 273.8L575.05 273.75M580.4,265.85Q580.5 266.8 579.3 268.35L577.5 270.1L579.45 269.1Q580.95 268 580.65 266.25L580.5 265.85L580.4 265.85" />
<path style="fill:#FFFCEE;fill-opacity:1" d="M580.5,265.85L580.65 266.25Q580.95 268 579.45 269.1L577.5 270.1L579.3 268.35Q580.5 266.8 580.4 265.85L580.5 265.85" />
</g>
</svg>
