<?xml version="1.0" encoding="utf-8"?>
<svg version="1.1" id="Layer_1"
xmlns="http://www.w3.org/2000/svg"
xmlns:xlink="http://www.w3.org/1999/xlink"
xmlns:author="http://www.sothink.com"
width="51px" height="72px"
xml:space="preserve">
<g id="1443" transform="matrix(1, 0, 0, 1, 1.25, 4.3)">
<path style="fill:#33272B;fill-opacity:1" d="M2.95,37.8L3.8 36.4L3.95 36.1L6.5 33.1L11.25 34.35Q14.3 35.45 19.2 38.15Q24.2 41.05 26.95 42.4L30.7 44.1L30.75 44.2L31 44.2L31.5 44.1L31.5 44.4Q31.5 45.65 31.1 47.3L30.6 49L30.55 49.1L29.85 50.75Q27.9 52.85 24.95 54.55L21.3 56.75L20.5 57.25L19.65 57.85Q19.1 58.2 19.4 58.15L21 57.7L22.3 57.3L22.35 58Q22.3 59.6 20.9 61.85Q19.15 64.6 15.85 65.85L11.3 64.9L5.7 63L2.3 55.75Q0.95 52.9 1.1 51.55Q4.75 48.05 7.7 46.15L8.3 45.75L8.75 45.45Q10.2 44.35 8.5 44.85Q6.35 45.45 4.8 46.35Q2.6 43.85 1.55 41.3L1.75 40.65L3.1 42.05L3.65 42.55L4.7 40.85Q6 41 5.3 41.6L3.9 42.7L5.95 44.35Q5.95 44.05 6.4 43.6L7.2 42.85L8.4 42.85L7.75 41.95L5.95 39.85L3.5 38.2L2.95 37.8M7.95,54.85Q4.1 57.85 8.95 56.65Q9.7 56.45 8.9 55.4Q8.5 54.85 7.95 54.85" />
<path style="fill:#4F4046;fill-opacity:1" d="M3.5,38.2L5.95 39.85L7.75 41.95L8.4 42.85L7.2 42.85L6.4 43.6Q5.95 44.05 5.95 44.35L3.9 42.7L5.3 41.6Q6 41 4.7 40.85L3.65 42.55L3.1 42.05L1.75 40.65L2.95 37.8L3.5 38.2M8.9,55.4Q9.7 56.45 8.95 56.65Q4.1 57.85 7.95 54.85Q8.5 54.85 8.9 55.4" />
<path style="fill:#1E1518;fill-opacity:1" d="M3.95,36.1L3.8 36.4L2.95 37.8L1.75 40.65L1.55 41.3Q2.6 43.85 4.8 46.35Q6.35 45.45 8.5 44.85Q10.2 44.35 8.75 45.45L8.3 45.75L7.7 46.15Q4.75 48.05 1.1 51.55Q0.95 52.9 2.3 55.75L5.7 63L11.3 64.9L15.85 65.85Q19.15 64.6 20.9 61.85Q22.3 59.6 22.35 58L22.3 57.3L21 57.7L19.4 58.15Q19.1 58.2 19.65 57.85L20.5 57.25L21.3 56.75L24.95 54.55Q27.9 52.85 29.85 50.75L30.55 49.1L30.6 49L31.1 47.3Q31.5 45.65 31.5 44.4L31.5 44.1L31 44.2L30.75 44.2L30.7 44.1Q30.15 42.55 30.65 42.4Q31.1 42.15 32.7 39.15L32.8 44.8L32.45 47.2L32 48.6L31.95 48.75L30.95 50.95Q29.6 53.25 27.6 54.55L23.7 56.7L23.7 57.45L23.65 57.75Q22.55 64.55 15.6 67.1Q10.55 66.05 8.35 65.25L5.25 64.05L0.95 55.55Q-0.65 52.2 0.5 50.75Q2.15 48.65 3.95 47.15Q1.9 45 1.2 43.2Q0.5 41.3 0.6 40.65L1 39.05Q1.3 37.9 1.9 36.95Q2.4 36 3.2 35.2L3.1 35.15L5.4 32.9Q12.3 26.15 6.5 33.1L3.95 36.1" />
<path style="fill:#2A1E22;fill-opacity:1" d="M14.7,2.9L15.55 1.4Q15.85 0.25 15.75 -0.75L15.5 -2.1Q14.2 -2.9 13.55 -2.3Q12.35 -1.15 11.6 0.75L11 2.35L11.25 2.8Q11.9 4.1 13.35 4.2L14.7 2.9M44.6,23.25L44.3 23.25L44.4 22.9L44.95 21.35L45.75 19.15L46.65 16.65L40.25 17.4L36.4 17.9L36.4 19.2L36.3 21.3L36.3 21.4L36 23.35L35.9 23.75L35.6 25.15L34.85 25.5L32.75 26.55L30.5 25.65L28.85 24.75L27.65 23.7L25.65 20.8Q25.5 22.25 24.7 23.75Q23.5 26 21.5 26.9L20.25 27.3L20.3 27.55L18.6 26.85L18.55 26.8L18.4 26.55L18.4 26.5L17.4 24.6L13.9 21.4L11.15 19.25L7.4 16.6L5.75 15.35L5.95 17.2L6.05 17.6L6.1 18.15L6.1 18.35L6.1 19.6L6.1 19.65L6.9 20.3L7.85 21.1L4.85 19.3L4.9 19.15L4.95 18.45L4.8 16.7L4.15 14.85Q3.4 13.55 2.8 13.3L1.5 12.8L0.8 13.55L0.55 14.1L0.4 14.7L0.35 15.5L0 15.15L-1.15 13.6Q-0.7 11.5 1.8 11.45L8.75 15.45L7.1 13.1Q6.65 12.3 6.6 11.3L6.8 9.95L7.35 8.65Q8.1 7.1 9.5 6.55Q12.6 7.3 15.05 8.2L12.5 6.35L10.3 4.5Q9.5 3.6 9.8 1Q10.1 -1.6 13.05 -4Q15.05 -4.95 17.2 -2.85L26.3 5.95Q27.15 0.85 28.5 1.6Q29.4 1.75 32.45 3.4Q38.5 6.65 45.9 12.75L47.45 14.55Q48.3 15.5 48 16.55L48 16.6L47.7 18.1L47.7 18.15L47.6 18.45L46.55 21.85L46.25 22.75L44.6 23.25M28.55,3.25L28.35 3.9L28.3 4.25L28.1 5.55L30.7 8.85Q33.05 11.6 36.15 16.6L40.35 15.8L41 15.7L45.7 15.2L44.1 13.65L43.85 13.4Q36.95 7.05 28.55 3.25M16.15,3.85L16.05 4L14.55 5.35L17.1 8.2L20.7 12.45L29.3 23.6L32.15 24.9Q33.75 25.7 34.1 25.1L34.55 23.75L34.6 23.45L34.7 23.1L34.9 21.45L34.95 21.35L35.05 20.1L35.05 17.7Q32.1 13 30 10.3L27.45 7.25Q27.3 8.3 26.7 8.3L25.3 7.5L25.05 7.25L20.85 3.2L18.35 0.65L17.15 -0.75L17.1 1.1L16.95 2L23.75 9.45L27.8 13.95Q28.6 14.9 28.15 14.55L27.4 13.9L25.3 11.95L22.6 9.45L20.35 7.4L19.4 6.5L17.35 4.65L16.15 3.85M19.6,25.25L19.8 25.85L19.7 25.75L19.9 26.25L21.35 25.65Q24.1 24.15 24.7 19.6L23.7 18.35Q22.7 19.1 21.85 20Q20.15 21.75 19.15 24L19.35 24.6L19.6 25.25M11.2,8.7L10 8.35L9.35 8.15L8.75 9Q8.4 9.4 8.1 10.15L7.9 10.7L7.65 11.5Q7.8 12.5 8.95 13.15L11.2 12.15L11.5 11.3L11.6 10.7L11.6 10.65Q11.6 9.75 11.2 8.7M12.65,11.95L13.9 13.6L15.7 15.7L15.7 15.75L14.1 14.8L12.05 13.2L11.6 13.55L11.15 13.75L10.05 14.2L10.7 15.2L10.8 15.35L12.7 18.3L17 22.2Q16.45 20.75 16.5 19.7L16.65 15.5L16.65 15.45Q16.65 13.5 16.8 12.05L17 10.45L16.4 10.3L13.45 9.5L12.85 9.35Q12.7 9.4 12.75 10.35L12.75 11L12.65 11.95M18.55,26.85L18.55 26.8L18.55 26.85M22.95,17.3L20.15 13.95L18.05 11.1L17.95 12.65L17.65 17.25Q17.6 20.55 18.3 22.55Q19 21.05 20.15 19.75Q21.35 18.4 22.95 17.3" />
<path style="fill:#5D4E54;fill-opacity:1" d="M15.55,1.4L14.7 2.9L14.3 2.5L13.75 2L11.6 2.95L11.25 2.8L11 2.35L11.6 0.75L11.6 0.7L12.6 -0.3L12.7 0L12.8 0.2Q14.2 0.1 13.9 -0.75L14.3 -0.7Q14.65 -0.55 14.65 0L15 -0.4Q15.35 -0.75 15.65 -0.75L15.75 -0.75Q15.85 0.25 15.55 1.4M0.4,14.7L0.55 14.1L0.8 13.55Q1.65 13.6 2.3 14.25Q2.8 14.8 2.8 15.3L2.05 14.55L2 14.5Q0.9 15.1 1.55 16.35L1.7 16.5Q2.9 16.15 2.9 15.55Q3.75 15.6 4.6 16.5L4.8 16.7L4.95 18.45L4.9 19.15L4.8 19.25L3.85 19.25L3.85 18.3L3.55 18.35L3.1 18.55L2.45 18.85Q1.85 18.85 1.1 17.2L0.5 15.7L0.4 15.1L0.4 14.7M18.4,26.5L18.4 26.55L18.4 26.75L18.35 28.4L17.55 28.1L16.7 27.45L16.5 27.45L16.5 29.5L15.4 29.5L13.3 27.8Q13.15 28.1 12.4 28.3L12.3 28.2Q11.65 27.4 12.2 26.9Q8.65 23.95 6.7 22.45L5.25 21.35L5.5 20.95L6.75 21.7L8.35 22.75L11.95 25.15Q12.95 25.8 12.95 25.4L13.05 25.5L14.4 26.45L14.65 25.8L11.1 22.65L9.8 21.55L6.75 18.95L6.8 18.5L18.4 26.5M21.5,26.9Q23.5 26 24.7 23.75Q25.5 22.25 25.65 20.8L27.65 23.7L28.85 24.75L28.4 26.4L28.05 27.2L27.65 26.95Q25.55 27.7 26 28.55L25 28.8Q24.5 28.95 24.15 29.3Q23.45 30.05 22.9 30.05Q21.9 30.05 21.6 27.95L21.5 26.9M35.9,23.75L36 23.35L36.3 21.4L36.3 21.3Q37.3 20.2 38.15 19.85L38.45 21L38.55 21.1Q40.7 20.8 39.85 19.25L40.15 19.1L41.3 18.85Q42.2 18.85 43.75 19.4L44.6 19.1L45.6 18.7L45.75 19.15L44.95 21.35L44.4 22.9Q44.05 22.85 43.45 22.45L42.75 22L42.1 22.65L41.6 23.1Q40.3 24.2 38.75 24.2L37.6 24.15L36.2 23.85L35.9 23.75M40,15.65L39.95 15.5Q39.6 14.6 40.5 14.3L40.5 14.35Q41.15 14.4 41.2 14.95L41 15.7L40.35 15.8L40 15.65M28.7,4.35Q30.7 4.75 32.9 6.6L34.45 8.05Q33.85 8.45 34.05 9.25L34.1 9.4Q35.1 9.8 35.4 9.25L35.75 10.1Q36.6 9.85 39.25 11.95L40.9 13.2L40.3 13Q39.9 13 39.2 13.45L38.1 13.9Q36.2 13.9 32.5 9.3L28.7 4.35L28.3 4.25L28.35 3.9L28.7 4.35M42.3,14.05L42.05 14.1L41.35 13.55L41.1 13.35L42.3 14.05M40.85,21.35Q39.2 21.3 39.5 22.8L39.55 22.95Q41.85 23.7 41.15 21.6L40.85 21.35M36.15,37.9L35.85 37Q35.6 36.15 35.7 35.45Q38.55 32.95 41.35 31.25L44.45 26.8Q44.85 25.85 45.8 26.9L46.7 28.05Q46.3 30.85 45.45 32.25Q44.75 33.35 43.45 33.95L43.55 33.55L43.1 33.05L42.85 33Q41.75 32.95 41.5 33.95L41.5 34.05L41.9 34.45L41.75 34.45L41.05 35.55L41.35 35.65L41.7 36.05Q41.55 37.6 40.15 37.05L39.95 36.55L39.7 36.75Q38 38.1 37.3 38.1L36.15 37.9M43.95,29.9Q42.6 30.8 44.2 31.55L44.45 31.55Q45.35 30.65 44.2 30L43.95 29.9M39.55,29.65L39.25 29.05L38.9 28.75L37.85 29.2L36.25 29.65Q35.4 29.65 34.15 29.1L33.55 28.85L33.7 28.65L34.65 27.25L34.65 27.2Q34.9 26.85 36.15 26.8L38.8 26.55L43.25 25.9L41.4 28.5L40.5 29.65L39.55 29.65M26.7,8.3Q27.3 8.3 27.45 7.25L30 10.3Q32.1 13 35.05 17.7L35.05 20.1L34.95 21.35L34.9 21.45L34.8 21.45L34.05 21.4Q33.8 21.25 33.7 20.5L32.6 21.25L32.4 21.35Q33.45 21.75 32.9 22.95L31.3 22.85L31.25 22.7Q31 21.95 31.35 21.6L31.25 21.55L29.3 21.75L29.25 21.6Q28.95 20.5 29.75 20.15L29.35 19.7L29.7 18.7Q29.85 18.2 29.3 18.2Q28.65 18.05 28.2 18.4L27.8 17.95L22.9 12.3L19.8 8.6L22.5 11.25Q26.8 15.2 27.9 15.2L28.55 15.15L28.4 14.9L28.15 14.55Q28.6 14.9 27.8 13.95L23.75 9.45L16.95 2L17.1 1.1Q17.5 1.1 20.9 4.7Q24.55 8.55 25.3 9L25.3 7.5L26.7 8.3M28.15,10.55L27.85 10.5Q26.6 12.55 28.15 10.55M24.35,14.5L24.35 14.55Q25 14.55 25.05 15.15Q25 16.35 23.85 15.85L23.8 15.7Q23.4 14.8 24.35 14.5M32.6,17.25Q31.4 18.1 32.15 19.65L32.3 19.85Q34.3 18.95 32.65 17.3L32.6 17.25M30.85,16.05Q32.55 15.15 31 14L30.95 13.95Q29.55 14.7 30.6 15.9L30.85 16.05M7.9,10.7L8.1 10.15L9.15 9.9L9.65 9.95L10.25 10.6Q10.5 10 11.15 10.35L11.25 10.4L11.6 10.65L11.6 10.7L11.5 11.3L11 11.6L10.1 12.1L10.1 11.7L9.85 11.6L10.55 11.45L10.6 11.35Q10.65 10.85 10.2 10.6L9.9 10.5L9.25 11.3L8.4 10.9L7.9 10.7M11.6,13.55L12.05 13.2L14.1 14.8L15.7 15.75L15.7 15.7L13.9 13.6L12.65 11.95L12.75 11Q14.25 11.55 15.4 12.8L15.6 12.65L16.4 11.9Q16.6 11.9 16.8 12.05Q16.65 13.5 16.65 15.45L16.2 16.45L15.75 18.3L15.1 17.5Q14.7 16.8 13.95 17.4Q13.55 17.2 12.45 15.25L11.6 13.55M19.5,16.95Q20.7 17.5 20.7 16.25Q20.65 15.65 20.05 15.65L20.05 15.6Q19.1 15.9 19.45 16.8L19.5 16.95M20.15,19.75L20.15 19.25L20.55 18.5Q18.5 18.85 18.05 15.75L17.95 12.65L18.05 11.1L20.15 13.95L22.95 17.3Q21.35 18.4 20.15 19.75M16.25,30.6Q16.9 29.5 18.5 30.05Q19.1 30.15 18.85 30.55Q17.45 32.6 16.15 30.7L16.25 30.6M16.25,36.65L16.25 36.75L16.3 36.95L16.4 37.4L17.1 41.35L16.35 42.2Q15.3 41.35 14.2 39L13.9 38.4Q14.7 37.9 13.75 36.95L13.55 36.85L13.15 37.15Q12.25 35.9 11.55 35.9L11.35 33.15L13.35 34.45L15.75 35.7L16.05 35.65L16.25 36.65M17.55,38.45L17.45 37.85L17.2 36.15Q17.65 35.9 18.25 35.8L19.85 35.7L19.65 35.8Q19.3 36.5 19.6 37.3L19.85 37.6Q21.85 37 20.6 35.8L27.85 37.2L28.3 37.05L28.4 37.75L28.35 37.85Q27.65 39.05 26.4 38.85L26.05 39.7L25.1 39.75L22.35 39.7L21.7 39.1L21.65 39.05L20.9 39.65L18.9 39.35L17.55 38.45M27.4,43.75L26.45 43.5L25.8 43.2L23.65 43.95L23.45 43.95Q23.4 43.45 22.8 43.15L22.6 43.1Q21.95 43.25 21.75 43.9Q18.6 43.7 17.45 42.9L18.3 41.8L26.65 42L27.8 43.35L27.4 43.75M32.8,33L32.95 33.1Q34.15 34.3 32.55 34.7L32.45 34.6Q31.6 33.55 32.8 33M34.7,39Q34.05 39 31.55 37.85L29.65 36.85L29.55 35.95L31.7 36.05L34.4 36L34.7 37.3L35.2 38.65L34.7 39M25.85,26.85Q26.4 25.9 25.35 25.4L25.1 25.3Q23.7 26.55 25.65 26.9L25.85 26.85M27.55,29.65Q27.9 28.7 28.95 28.6L29.25 28.7Q29.65 28.85 29.6 29.25Q28.8 30.95 27.55 29.8L27.55 29.65M30.8,40.85Q29.8 40.8 29.05 41.65L28.45 42.45L27.85 41.75L27.95 41.55Q28.65 40.3 29.2 39.85Q29.75 39.4 29.9 39.45L30.8 39.85L30.8 40.85M23,38.25Q23.2 37.55 22.65 37.25L22.35 37.1Q20.9 38.45 22.85 38.3L23 38.25" />
<path style="fill:#EE9034;fill-opacity:1" d="M6.75,18.95L9.8 21.55L11.1 22.65L14.65 25.8L14.4 26.45L13.05 25.5L12.95 25.4L12.9 25.3L11.55 24.2L12.75 24.65L12.85 24.65L9.95 22.15L9.8 22L7.35 20.05L6.9 20.05L6.9 20.3L6.1 19.65L6.1 19.6L6.1 18.35L6.75 18.95M16.05,4L16.15 3.85L17.35 4.65L17.3 4.85Q17.3 6 20.7 8.95L24.8 12.25L25.3 12.25L25.3 11.95L27.4 13.9L28.15 14.55L28.4 14.9L28.55 15.15L27.9 15.2Q26.8 15.2 22.5 11.25L19.8 8.6L16.05 4M19.15,24Q20.15 21.75 21.85 20Q22.7 19.1 23.7 18.35L24.7 19.6Q24.1 24.15 21.35 25.65L19.9 26.25L19.7 25.75L19.8 25.85L19.6 25.25Q21.7 24.9 23.3 22.7L23.45 20.5L22.6 20.65L22 21.15L21.1 22Q20.5 22.4 20.1 23.1L19.35 24.6L19.15 24" />
<path style="fill:#3A2E32;fill-opacity:1" d="M13.35,4.2Q11.9 4.1 11.25 2.8L11.6 2.95L13.75 2L14.3 2.5L14.7 2.9L13.35 4.2M0.35,15.5L0.4 14.7L0.4 15.1L0.5 15.7L1.1 17.2Q1.85 18.85 2.45 18.85L3.1 18.55L3.55 18.35L3.85 18.3L3.85 19.25L4.8 19.25L4.9 19.15L4.85 19.3Q4.6 20.95 3.05 21.95L1.25 20.75Q0.25 17.5 0.35 15.5M18.55,26.85L18.55 26.8L18.55 26.85L18.85 27.6Q20 30.5 20.35 32.25L16.45 32.65Q9.9 26.9 3.9 22.75L5.25 21.35L6.7 22.45Q8.65 23.95 12.2 26.9Q11.65 27.4 12.3 28.2L12.4 28.3Q13.15 28.1 13.3 27.8L15.4 29.5L16.5 29.5L16.5 27.45L16.7 27.45L17.55 28.1L18.35 28.4L18.4 26.75L18.4 26.55L18.55 26.8L18.6 26.85L18.55 26.85M21.6,27.95Q21.9 30.05 22.9 30.05Q23.45 30.05 24.15 29.3Q24.5 28.95 25 28.8L26 28.55Q25.55 27.7 27.65 26.95L28.05 27.2L28.4 26.4L28.85 24.75L30.5 25.65L32.75 26.55L33.1 26.65L32.9 27.1L32.15 28.25L31.75 28.85L28.9 31.85L26.25 33.8Q23.4 33.3 21.8 32.3L20.3 27.55L20.25 27.3L21.5 26.9L21.6 27.95M35.6,25.15L35.9 23.75L36.2 23.85L37.6 24.15L38.75 24.2Q40.3 24.2 41.6 23.1L42.1 22.65L42.75 22L43.45 22.45Q44.05 22.85 44.4 22.9L44.3 23.25L44.25 23.55L44.05 24.3Q43.85 24.65 41.65 24.95L37.55 25.25L35.6 25.15M40.35,15.8L36.15 16.6Q33.05 11.6 30.7 8.85L28.1 5.55L28.3 4.25L28.7 4.35L32.5 9.3Q36.2 13.9 38.1 13.9L39.2 13.45Q39.9 13 40.3 13L40.9 13.2L41.1 13.35L41.35 13.55L42.05 14.1L42.3 14.05L42.75 13.9L43.85 13.4L44.1 13.65L45.7 15.2L41 15.7L41.2 14.95Q41.15 14.4 40.5 14.35L40.5 14.3Q39.6 14.6 39.95 15.5L40 15.65L40.35 15.8M41.15,21.6Q41.85 23.7 39.55 22.95L39.5 22.8Q39.2 21.3 40.85 21.35L41.15 21.6M37.3,38.1Q38 38.1 39.7 36.75L39.95 36.55L40.15 37.05Q41.55 37.6 41.7 36.05L41.35 35.65L41.05 35.55L41.75 34.45L41.9 34.45L41.5 34.05L41.5 33.95Q41.75 32.95 42.85 33L43.1 33.05L43.55 33.55L43.45 33.95Q44.75 33.35 45.45 32.25Q46.3 30.85 46.7 28.05L47.6 29.55Q48.45 31.15 48.05 32.1Q43.3 36.8 37.8 40.55Q37.1 40.05 36.35 38.4L36.15 37.9L37.3 38.1M44.2,30Q45.35 30.65 44.45 31.55L44.2 31.55Q42.6 30.8 43.95 29.9L44.2 30M40.5,29.65L40.2 30L38.8 31.25L32 30.8L33.55 28.85L34.15 29.1Q35.4 29.65 36.25 29.65L37.85 29.2L38.9 28.75L39.25 29.05L39.55 29.65L40.5 29.65M19.8,8.6L22.9 12.3L27.8 17.95L28.2 18.4Q28.65 18.05 29.3 18.2Q29.85 18.2 29.7 18.7L29.35 19.7L29.75 20.15Q28.95 20.5 29.25 21.6L29.3 21.75L31.25 21.55L31.35 21.6Q31 21.95 31.25 22.7L31.3 22.85L32.9 22.95Q33.45 21.75 32.4 21.35L32.6 21.25L33.7 20.5Q33.8 21.25 34.05 21.4L34.8 21.45L34.9 21.45L34.7 23.1L34.6 23.45L34.55 23.75L34.1 25.1Q33.75 25.7 32.15 24.9L29.3 23.6L20.7 12.45L17.1 8.2L14.55 5.35L16.05 4L19.8 8.6M27.85,10.5L28.15 10.55Q26.6 12.55 27.85 10.5M23.8,15.7L23.85 15.85Q25 16.35 25.05 15.15Q25 14.55 24.35 14.55L24.35 14.5Q23.4 14.8 23.8 15.7M32.65,17.3Q34.3 18.95 32.3 19.85L32.15 19.65Q31.4 18.1 32.6 17.25L32.65 17.3M30.6,15.9Q29.55 14.7 30.95 13.95L31 14Q32.55 15.15 30.85 16.05L30.6 15.9M8.4,10.9L9.25 11.3L9.9 10.5L10.2 10.6Q10.65 10.85 10.6 11.35L10.55 11.45L9.85 11.6L10.1 11.7L10.1 12.1L11 11.6L11.5 11.3L11.2 12.15L8.95 13.15Q7.8 12.5 7.65 11.5L7.9 10.7L8.4 10.9M12.45,15.25Q13.55 17.2 13.95 17.4Q14.7 16.8 15.1 17.5L15.75 18.3L16.2 16.45L16.65 15.45L16.65 15.5L16.5 19.7Q16.45 20.75 17 22.2L12.7 18.3L10.8 15.35L10.7 15.2L10.05 14.2L11.15 13.75L11.6 13.55L12.45 15.25M19.45,16.8Q19.1 15.9 20.05 15.6L20.05 15.65Q20.65 15.65 20.7 16.25Q20.7 17.5 19.5 16.95L19.45 16.8M18.05,15.75Q18.5 18.85 20.55 18.5L20.15 19.25L20.15 19.75Q19 21.05 18.3 22.55Q17.6 20.55 17.65 17.25L17.95 12.65L18.05 15.75M16.15,30.7Q17.45 32.6 18.85 30.55Q19.1 30.15 18.5 30.05Q16.9 29.5 16.25 30.6L16.15 30.7M15.35,43.4Q12.1 37.55 7.35 32.7Q7.3 29.4 6.9 26.7Q10.45 29.2 14.05 32.5L15.5 33.65L16.05 35.65L15.75 35.7L13.35 34.45L11.35 33.15L11.55 35.9Q12.25 35.9 13.15 37.15L13.55 36.85L13.75 36.95Q14.7 37.9 13.9 38.4L14.2 39Q15.3 41.35 16.35 42.2L15.35 43.4M18.9,39.35L20.9 39.65L21.65 39.05L21.7 39.1L22.35 39.7L25.1 39.75L26.05 39.7L26.4 38.85Q27.65 39.05 28.35 37.85L28.4 37.75L28.5 38.7L26.7 41L22.05 40.75L21.65 41L21.5 40.9L21.3 40.7L18.25 40.5Q17.75 39.55 17.55 38.45L18.9 39.35M27.8,43.35L29.05 44.75L23.2 44.6Q22.45 45.1 21.95 44.6L16.35 44.45L17.45 42.9Q18.6 43.7 21.75 43.9Q21.95 43.25 22.6 43.1L22.8 43.15Q23.4 43.45 23.45 43.95L23.65 43.95L25.8 43.2L26.45 43.5L27.4 43.75L27.8 43.35M32.45,34.6L32.55 34.7Q34.15 34.3 32.95 33.1L32.8 33Q31.6 33.55 32.45 34.6M35.2,38.65L36.05 40.4L29.85 38.6L29.65 36.85L31.55 37.85Q34.05 39 34.7 39L35.2 38.65M34.9,34.75L27.9 34.35L30.9 31.75L33.2 32.35Q34.9 32.65 37.8 32.3L35 34.65L34.9 34.75M25.65,26.9Q23.7 26.55 25.1 25.3L25.35 25.4Q26.4 25.9 25.85 26.85L25.65 26.9M27.55,29.8Q28.8 30.95 29.6 29.25Q29.65 28.85 29.25 28.7L28.95 28.6Q27.9 28.7 27.55 29.65L27.55 29.8M30.8,39.85L32.55 40.7L30 44.25L29.9 44.25L28.45 42.45L29.05 41.65Q29.8 40.8 30.8 40.85L30.8 39.85M22.85,38.3Q20.9 38.45 22.35 37.1L22.65 37.25Q23.2 37.55 23 38.25L22.85 38.3" />
<path style="fill:#8E7E85;fill-opacity:1" d="M13.55,-2.3Q14.2 -2.9 15.5 -2.1L15.75 -0.75L15.65 -0.75Q15.35 -0.75 15 -0.4L14.65 0Q14.65 -0.55 14.3 -0.7L13.9 -0.75Q14.2 0.1 12.8 0.2L12.7 0L12.6 -0.3L11.6 0.7L11.6 0.75Q12.35 -1.15 13.55 -2.3M4.6,16.5Q3.75 15.6 2.9 15.55Q2.9 16.15 1.7 16.5L1.55 16.35Q0.9 15.1 2 14.5L2.05 14.55L2.8 15.3Q2.8 14.8 2.3 14.25Q1.65 13.6 0.8 13.55L1.5 12.8L2.8 13.3Q3.4 13.55 4.15 14.85L4.8 16.7L4.6 16.5M6.8,18.5L6.75 18.95L6.1 18.35L6.1 18.15L6.05 17.6L5.95 17.2L5.75 15.35L7.4 16.6L11.15 19.25L13.9 21.4L17.4 24.6L18.4 26.5L6.8 18.5M36.3,21.3L36.4 19.2L36.4 17.9L40.25 17.4L46.65 16.65L45.75 19.15L45.6 18.7L44.6 19.1L43.75 19.4Q42.2 18.85 41.3 18.85L40.15 19.1L39.85 19.25Q40.7 20.8 38.55 21.1L38.45 21L38.15 19.85Q37.3 20.2 36.3 21.3M28.35,3.9L28.55 3.25Q36.95 7.05 43.85 13.4L42.75 13.9L42.3 14.05L41.1 13.35L40.9 13.2L39.25 11.95Q36.6 9.85 35.75 10.1L35.4 9.25Q35.1 9.8 34.1 9.4L34.05 9.25Q33.85 8.45 34.45 8.05L32.9 6.6Q30.7 4.75 28.7 4.35L28.35 3.9M17.15,-0.75L18.35 0.65L20.85 3.2L25.05 7.25L25.3 7.5L25.3 9Q24.55 8.55 20.9 4.7Q17.5 1.1 17.1 1.1L17.15 -0.75M8.1,10.15Q8.4 9.4 8.75 9L9.35 8.15L10 8.35L11.2 8.7Q11.6 9.75 11.6 10.65L11.25 10.4L11.15 10.35Q10.5 10 10.25 10.6L9.65 9.95L9.15 9.9L8.1 10.15M16.4,11.9L15.6 12.65L15.4 12.8Q14.25 11.55 12.75 11L12.75 10.35Q12.7 9.4 12.85 9.35L13.45 9.5L16.4 10.3L17 10.45L16.8 12.05Q16.6 11.9 16.4 11.9M27.85,37.2L20.6 35.8Q21.85 37 19.85 37.6L19.6 37.3Q19.3 36.5 19.65 35.8L19.85 35.7L18.25 35.8Q17.65 35.9 17.2 36.15L17 35.05L16.85 34.35L20.45 34.05Q21.2 33.85 23.45 34.6L27.9 35.7L28.25 36.95L28.3 37.05L27.85 37.2" />
<path style="fill:#FCDE51;fill-opacity:1" d="M7.85,21.1L6.9 20.3L6.9 20.05L7.35 20.05L9.8 22L9.95 22.15L12.85 24.65L12.75 24.65L11.55 24.2L10.35 23.2L9.95 22.25L9.7 22L9.2 21.6L8.95 21.65L8.6 21.7L7.85 21.1M25.3,11.95L25.3 12.25L24.8 12.25L20.7 8.95Q17.3 6 17.3 4.85L17.35 4.65L19.4 6.5L19.35 6.7Q19.35 7.25 20.3 8.15L21.9 9.45L22.6 9.45L25.3 11.95M19.35,24.6L20.1 23.1Q20.5 22.4 21.1 22L22 21.15L22.6 20.65L23.45 20.5L23.3 22.7Q21.7 24.9 19.6 25.25L19.35 24.6M20.3,23.45L20.3 23.6Q22.45 24.3 21.8 22.25L21.65 22.1Q20.35 22.2 20.3 23.45" />
<path style="fill:#FFFEB4;fill-opacity:1" d="M20.35,7.4L22.6 9.45L21.9 9.45L20.3 8.15Q19.35 7.25 19.35 6.7L19.4 6.5L20.35 7.4M21.65,22.1L21.8 22.25Q22.45 24.3 20.3 23.6L20.3 23.45Q20.35 22.2 21.65 22.1M8.6,21.7L8.95 21.65L9.2 21.6L9.7 22L9.95 22.25L10.35 23.2L8.6 21.7" />
<path style="fill:#20171A;fill-opacity:1" d="M21.8,32.3Q23.4 33.3 26.25 33.8L28.9 31.85L31.75 28.85L32.15 28.25L32.9 27.1L33.1 26.65L32.75 26.55L34.85 25.5L35.6 25.15L37.55 25.25L41.65 24.95Q43.85 24.65 44.05 24.3L44.25 23.55L44.3 23.25L44.6 23.25L46.25 22.75L45.7 24.05L45.65 24.1L47.1 25.85Q51.5 31.65 48 34.45L41.1 40Q38.15 42.3 37.85 42.2L33.95 41.3L30.85 45.3L30.45 45.7L27.45 45.75L18.85 45.8Q14.8 45.7 14.15 44Q11.05 38.7 8.85 36.3L6.2 33.45Q5.6 29.6 5.55 28.3Q5.45 26.95 4.95 25.35L1.7 23.1Q-0.55 21.75 -0.65 20.65L-1.2 15.55Q-1.35 14.4 -1.15 13.6L0 15.15L0.35 15.5Q0.25 17.5 1.25 20.75L3.05 21.95Q4.6 20.95 4.85 19.3L7.85 21.1L8.6 21.7L10.35 23.2L11.55 24.2L12.9 25.3L12.95 25.4Q12.95 25.8 11.95 25.15L8.35 22.75L6.75 21.7L5.5 20.95L5.25 21.35L3.9 22.75Q9.9 26.9 16.45 32.65L20.35 32.25Q20 30.5 18.85 27.6L18.55 26.85L18.6 26.85L20.3 27.55L21.8 32.3M45.8,26.9Q44.85 25.85 44.45 26.8L41.35 31.25Q38.55 32.95 35.7 35.45Q35.6 36.15 35.85 37L36.15 37.9L36.35 38.4Q37.1 40.05 37.8 40.55Q43.3 36.8 48.05 32.1Q48.45 31.15 47.6 29.55L46.7 28.05L45.8 26.9M32,30.8L38.8 31.25L40.2 30L40.5 29.65L41.4 28.5L43.25 25.9L38.8 26.55L36.15 26.8Q34.9 26.85 34.65 27.2L34.65 27.25L33.7 28.65L33.55 28.85L32 30.8M16.05,35.65L15.5 33.65L14.05 32.5Q10.45 29.2 6.9 26.7Q7.3 29.4 7.35 32.7Q12.1 37.55 15.35 43.4L16.35 42.2L17.1 41.35L16.4 37.4L16.3 36.95L16.25 36.75L16.25 36.65L16.05 35.65M17.45,37.85L17.55 38.45Q17.75 39.55 18.25 40.5L21.3 40.7L21.5 40.9L21.65 41L22.05 40.75L26.7 41L28.5 38.7L28.4 37.75L28.3 37.05L28.25 36.95L27.9 35.7L23.45 34.6Q21.2 33.85 20.45 34.05L16.85 34.35L17 35.05L17.2 36.15L17.45 37.85M16.35,44.45L21.95 44.6Q22.45 45.1 23.2 44.6L29.05 44.75L27.8 43.35L26.65 42L18.3 41.8L17.45 42.9L16.35 44.45M29.85,38.6L36.05 40.4L35.2 38.65L34.7 37.3L34.4 36L31.7 36.05L29.55 35.95L29.65 36.85L29.85 38.6M35,34.65L37.8 32.3Q34.9 32.65 33.2 32.35L30.9 31.75L27.9 34.35L34.9 34.75L35 34.65M29.9,44.25L30 44.25L32.55 40.7L30.8 39.85L29.9 39.45Q29.75 39.4 29.2 39.85Q28.65 40.3 27.95 41.55L27.85 41.75L28.45 42.45L29.9 44.25" />
</g>
</svg>
