<?xml version="1.0" encoding="utf-8"?>
<svg version="1.1" id="Layer_1"
xmlns="http://www.w3.org/2000/svg"
xmlns:xlink="http://www.w3.org/1999/xlink"
xmlns:author="http://www.sothink.com"
width="58px" height="61px"
xml:space="preserve">
<g id="505" transform="matrix(1, 0, 0, 1, 1.75, 12.9)">
<path style="fill:#6B4228;fill-opacity:1" d="M7.3,13.45L6.7 12.5L8.25 11.05L8.85 12L9.5 12.9L0.35 21.5L-0.5 21L7.3 13.45" />
<path style="fill:#482D19;fill-opacity:1" d="M6.7,12.5L-0.9 19.85Q-1.05 20.4 -0.5 21L0.35 21.5L9.5 12.9L11.1 11.35L10.55 12.4L11.95 12.15Q11.5 12.4 8.6 15.1L0.9 22.35Q0.05 22.6 -0.85 21.85L-1 21.7L-1.1 21.55Q-1.9 20.65 -1.75 19.6L-1.55 19.35L-1.25 19L3.7 14.15L6.5 11.4L8.5 9.1L8.3 10.2L9.5 9.7L8.25 11.05L6.7 12.5" />
<path style="fill:#9F6D50;fill-opacity:1" d="M-0.5,21Q-1.05 20.4 -0.9 19.85L6.7 12.5L7.3 13.45L-0.5 21" />
<path style="fill:#384D5B;fill-opacity:1" d="M13.4,-3.95Q14.5 -4.3 17.25 -5.35L23.85 -7.65L29.1 -9.15L31.1 -9.45Q31.75 -9.5 31.7 -8.95L30.6 -5.45L28.8 -0.65L27.6 2.5Q27.1 3.7 26.55 5.45L25.7 8L25.2 9.4L24.75 10.25L24.6 10.4L24.15 10.65L22.95 10.9L19.6 11.45L13.65 12.3Q13.6 13.7 12.65 14.2L10.95 14.55L9.75 14.3L8.5 13.5Q7.7 12.85 7.1 11.5Q6.5 10.05 6.7 8.9Q6.85 7.7 7.3 7.35Q7.75 6.95 8.3 6.7L9.35 6.65Q9.3 5.95 9.85 3.5Q10.5 1 11.1 -0.3L12.05 -2.55Q12.4 -3.5 13.4 -3.95M10.15,6.25L10.05 7.2Q9.7 9.4 10.3 10.35Q11.55 8.6 15.15 5.2L15.2 5.15L16.7 3.75L17.75 2.75L18.95 1.6L21.15 -0.4L21.45 -0.65L26.35 -5.1L29.95 -8.25L30.3 -8.55Q21.5 -6.25 13.2 -2.25L13.55 -0.75L14.85 4.55L14.6 3.95Q13.8 2.3 13.45 0.9L13.1 -0.1L12.75 -1.35L12.65 -1.85L12.5 -1.35L11.75 0.55L10.55 4.5L10.45 4.85L10.15 6.25M11.4,11.35L12.15 11.65L12.3 11.65L22.8 10.2L22.85 10.2L23.55 10.1L22.8 9.8L21.9 9.4Q19.05 8.2 17.4 7.2L15.9 6.1L15.95 6.1L16 6.05Q17.65 7.1 20.55 8.2L22.75 9.05L22.75 9.1L23.1 9.2L24.1 9.45L26.7 2.4L30.45 -7.9L30.2 -7.65L29.45 -6.95L26.45 -4.45L24.25 -2.55L21.5 -0.1L21.25 0.15L20.6 0.8L17.8 3.4L17.55 3.65Q17.2 3.85 17 4.15L15.55 5.6L15.45 5.65L13.15 7.9L10.7 10.7L11 11.05L11.4 11.35M8.25,11.85L9.3 12.9Q10.05 13.55 10.8 13.65L11.9 13.6Q13.2 13.1 13.05 12.3L12 12.25Q11.1 12.1 10.4 11.55L10.35 11.5L9.65 10.6Q8.95 9.45 9.2 8.05L9.3 7.55L9.3 7.45L9.2 7.45Q8.4 7.25 7.85 8.05Q7.4 8.6 7.5 9.65L7.55 10.35Q7.75 11.15 8.25 11.85" />
<path style="fill:#EEEEEE;fill-opacity:1" d="M12.2,1.25L10.45 4.85L10.55 4.5L11.75 0.55L12.5 -1.35L12.65 -1.85L12.75 -1.35L13.1 -0.1L12.2 1.25M7.8,9.05L7.5 9.65Q7.4 8.6 7.85 8.05Q8.4 7.25 9.2 7.45L9.3 7.45L9.3 7.55L8.95 8.1Q8.3 8.35 7.8 9.05" />
<path style="fill:#FFFFFF;fill-opacity:1" d="M26.15,-6.55L20.55 -4.25L21.15 -0.4L18.95 1.6L17.75 2.75L17.1 -3.05L14.15 -1.7L13.55 -0.75L13.2 -2.25Q21.5 -6.25 30.3 -8.55L29.95 -8.25L26.35 -5.1L26.15 -6.55" />
<path style="fill:#E0E6DA;fill-opacity:1" d="M14.85,4.55L13.55 -0.75L14.15 -1.7L17.1 -3.05L17.75 2.75L16.7 3.75L15.2 5.15L15.15 5.2L15.1 5.1L14.85 4.55M26.35,-5.1L21.45 -0.65L21.15 -0.4L20.55 -4.25L26.15 -6.55L26.35 -5.1M22.75,8.95L22.75 9.05L20.55 8.2Q17.65 7.1 16 6.05L15.95 6.1L15.55 5.6L17 4.15Q17.2 3.85 17.55 3.65L17.8 3.4L20.6 0.8L21.25 0.15L21.5 -0.1L24.25 -2.55L26.45 -4.45L29.45 -6.95L29.3 -6.75L17.9 5L22.75 8.95" />
<path style="fill:#90D2C6;fill-opacity:1" d="M30.2,-7.65L30.45 -7.9L26.7 2.4L24.1 9.45L23.1 9.2L22.75 9.1L22.75 9.05L22.75 8.95L29.3 -6.75L29.45 -6.95L30.2 -7.65" />
<path style="fill:#717463;fill-opacity:1" d="M18.75,9.05L15.3 7.8Q14.95 7.85 13.2 9.2L11.65 10.5L11 11.05L10.7 10.7L13.15 7.9L15.45 5.65L15.55 5.6L15.95 6.1L15.9 6.1L17.4 7.2Q19.05 8.2 21.9 9.4L20.65 9.6L18.75 9.05" />
<path style="fill:#65A599;fill-opacity:1" d="M20.65,9.6L21.9 9.4L22.8 9.8L23.55 10.1L22.85 10.2L22.8 10.2L12.3 11.65L12.15 11.65L11.4 11.35L20.65 9.6" />
<path style="fill:#BFC9B6;fill-opacity:1" d="M15.1,5.1L15.15 5.2Q11.55 8.6 10.3 10.35Q9.7 9.4 10.05 7.2L10.15 6.25L10.45 4.85L12.2 1.25L13.1 -0.1L13.45 0.9Q13.8 2.3 14.6 3.95L14.85 4.55L15.1 5.1M7.55,10.35L7.5 9.65L7.8 9.05Q8.3 8.35 8.95 8.1Q8.15 10.05 10.05 11.75Q9.15 12.75 8.25 11.85Q7.75 11.15 7.55 10.35M10.8,13.65Q11.45 13.55 11.85 12.75L12 12.25L13.05 12.3Q13.2 13.1 11.9 13.6L10.8 13.65" />
<path style="fill:#737F71;fill-opacity:1" d="M11,11.05L11.65 10.5L13.2 9.2Q14.95 7.85 15.3 7.8L18.75 9.05L20.65 9.6L11.4 11.35L11 11.05" />
<path style="fill:#8F9385;fill-opacity:1" d="M11.85,12.75Q11.45 13.55 10.8 13.65Q10.05 13.55 9.3 12.9L8.25 11.85Q9.15 12.75 10.05 11.75Q8.15 10.05 8.95 8.1L9.3 7.55L9.2 8.05Q8.95 9.45 9.65 10.6L10.35 11.5L10.4 11.55Q11.1 12.1 12 12.25L11.85 12.75" />
<path style="fill:#ACB0A2;fill-opacity:1" d="M17.9,5L29.3 -6.75L22.75 8.95L17.9 5" />
<path style="fill:#6B4228;fill-opacity:1" d="M32.95,9.45L33.65 10.45L34.25 11.25L26.05 20.65Q25.45 20.45 25.15 20.25L32.25 12L31.55 11.1L32.95 9.45" />
<path style="fill:#9F6D50;fill-opacity:1" d="M24.65,19.15L31.55 11.1L32.25 12L25.15 20.25Q24.6 19.7 24.65 19.15" />
<path style="fill:#482D19;fill-opacity:1" d="M35.85,9.6L35.35 10.65L36.7 10.35L33.65 13.5L26.6 21.45Q25.8 21.75 24.9 21.1L24.7 20.95L24.6 20.85Q23.65 20.05 23.75 18.9L24 18.7L24.25 18.25L28.7 12.95L31.2 10L33.05 7.5L32.9 8.65L34.1 8.15L32.95 9.45L31.55 11.1L24.65 19.15Q24.6 19.7 25.15 20.25Q25.45 20.45 26.05 20.65L34.25 11.25L35.85 9.6" />
<path style="fill:#384D5B;fill-opacity:1" d="M34.4,4.6L34.3 5.5Q34.2 7.75 34.9 8.65Q36.05 6.85 39.3 3.1L39.3 3L40.8 1.55L41.7 0.5L42.8 -0.8L44.8 -3L45.15 -3.25L49.55 -8.15L52.9 -11.6L53.15 -11.95Q44.65 -8.85 36.75 -4.1L37.2 -2.7L38.95 2.45L38.65 2L37.3 -1.05L36.85 -2.05L36.4 -3.25L36.2 -3.65L36.15 -3.15L35.55 -1.25Q35 0.7 34.6 2.8L34.65 3.15L34.4 4.6M36.8,-5.9L40.5 -7.65L46.95 -10.4L51.85 -12.4L53.9 -12.9Q54.55 -13 54.55 -12.5L53.7 -8.85L52.35 -3.85Q51.75 -1.95 51.5 -0.65L50.65 2.4L50.05 5.05L49.65 6.4L49.3 7.2L49.25 7.25L49.15 7.45L48.75 7.75L47.55 8.1L44.3 9L38.5 10.3Q38.5 11.7 37.6 12.25Q36.7 12.75 35.95 12.7L34.75 12.6L33.4 11.9Q32.5 11.4 31.8 10Q31.1 8.75 31.2 7.55Q31.3 6.35 31.7 5.9Q32.05 5.55 32.65 5.25L33.65 5.05Q33.45 4.35 33.8 1.9L34.8 -2L35.55 -4.3Q35.8 -5.35 36.8 -5.9M36.15,9.5L36.85 9.7L37.1 9.75Q37.75 9.85 47.45 7.4L48.15 7.15L47.4 7.05L46.45 6.7Q43.45 5.8 41.75 4.95Q39.7 3.95 40.15 3.95L40.2 3.95L40.25 3.9L45.05 5.65L47.25 6.3L47.55 6.4L48.55 6.5L50.55 -0.7L53.45 -11.3L53.15 -10.95L52.4 -10.2L49.75 -7.5L47.8 -5.4L45.3 -2.8L44.9 -2.45L44.35 -1.8L41.85 1.1L41.6 1.3L41.1 1.9L39.75 3.45L39.65 3.45L37.6 6L35.4 9L35.6 9.25L36.15 9.5M36.85,10.4L35.15 9.85L35.1 9.7L34.3 8.95Q33.55 7.8 33.6 6.5L33.65 5.95L33.7 5.85L33.6 5.8Q32.85 5.8 32.3 6.55Q31.9 7.2 32 8.2L32.2 8.9L33.1 10.35L34.05 11.3L35.7 11.95L36.8 11.75Q38.1 11.1 37.9 10.35L36.85 10.4" />
<path style="fill:#EEEEEE;fill-opacity:1" d="M36,-0.55L34.65 3.15L34.6 2.8Q35 0.7 35.55 -1.25L36.15 -3.15L36.2 -3.65L36.4 -3.25L36.85 -2.05L36 -0.55M32.35,7.6L32 8.2Q31.9 7.2 32.3 6.55Q32.85 5.8 33.6 5.8L33.7 5.85L33.65 5.95L33.6 5.95L33.4 6.6Q32.8 6.85 32.35 7.6" />
<path style="fill:#BFC9B6;fill-opacity:1" d="M38.95,2.5L39.2 3L39.3 3.1Q36.05 6.85 34.9 8.65Q34.2 7.75 34.3 5.5L34.4 4.6L34.65 3.15L36 -0.55L36.85 -2.05L37.3 -1.05L38.65 2L38.95 2.45L38.95 2.5M32.2,8.9L32 8.2L32.35 7.6Q32.8 6.85 33.4 6.6Q32.8 8.55 34.8 10.05Q33.95 11.1 33.1 10.35L32.2 8.9M37.9,10.35Q38.1 11.1 36.8 11.75L35.7 11.95Q36.3 11.75 36.7 10.95L36.85 10.4L37.9 10.35" />
<path style="fill:#FFFFFF;fill-opacity:1" d="M49.25,-9.55L43.85 -6.75L44.8 -3L42.8 -0.8L41.7 0.5L40.55 -5.3L37.75 -3.7L37.2 -2.7L36.75 -4.1Q44.65 -8.85 53.15 -11.95L52.9 -11.6L49.55 -8.15L49.25 -9.55" />
<path style="fill:#E0E6DA;fill-opacity:1" d="M38.95,2.45L37.2 -2.7L37.75 -3.7L40.55 -5.3L41.7 0.5L40.8 1.55L39.3 3L39.3 3.1L39.2 3L38.95 2.5L38.95 2.45M49.55,-8.15L45.15 -3.25L44.8 -3L43.85 -6.75L49.25 -9.55L49.55 -8.15M52.35,-10.05L42.05 2.6L47.35 6.2L47.3 6.3L47.25 6.3L45.05 5.65L40.25 3.9L40.2 3.95L39.75 3.45L41.1 1.9L41.6 1.3L41.85 1.1L44.35 -1.8L44.9 -2.45L45.3 -2.8L47.8 -5.4L49.75 -7.5L52.4 -10.2L52.35 -10.05" />
<path style="fill:#90D2C6;fill-opacity:1" d="M52.35,-10.05L52.4 -10.2L53.15 -10.95L53.45 -11.3L50.55 -0.7L48.55 6.5L47.55 6.4L47.25 6.3L47.3 6.3L47.35 6.2L52.35 -10.05" />
<path style="fill:#717463;fill-opacity:1" d="M35.4,9L37.6 6L39.65 3.45L39.75 3.45L40.2 3.95L40.15 3.95Q39.7 3.95 41.75 4.95Q43.45 5.8 46.45 6.7L45.2 7.05L43.3 6.7L39.7 5.7Q39.3 5.8 37.7 7.25L36.3 8.75L35.6 9.25L35.4 9" />
<path style="fill:#737F71;fill-opacity:1" d="M36.15,9.5L35.6 9.25L36.3 8.75L37.7 7.25Q39.3 5.8 39.7 5.7L43.3 6.7L45.2 7.05L36.15 9.5" />
<path style="fill:#65A599;fill-opacity:1" d="M45.2,7.05L46.45 6.7L47.4 7.05L48.15 7.15L47.45 7.4Q37.75 9.85 37.1 9.75L36.85 9.7L36.15 9.5L45.2 7.05" />
<path style="fill:#ACB0A2;fill-opacity:1" d="M47.35,6.2L42.05 2.6L52.35 -10.05L47.35 6.2" />
<path style="fill:#8F9385;fill-opacity:1" d="M33.6,6.5Q33.55 7.8 34.3 8.95L35.1 9.7L35.15 9.85L36.85 10.4L36.7 10.95Q36.3 11.75 35.7 11.95L34.05 11.3L33.1 10.35Q33.95 11.1 34.8 10.05Q32.8 8.55 33.4 6.6L33.6 5.95L33.65 5.95L33.6 6.5" />
<path style="fill:#482D19;fill-opacity:1" d="M35.2,33.15L28.75 41.75Q28.8 42.3 29.45 42.7L30.3 43.1L37.9 33.1L39.3 31.35L38.9 32.45L40.2 32.05L37.4 35.4L30.95 43.8Q30.15 44.2 29.15 43.6L29.05 43.5L28.9 43.4Q27.95 42.7 27.95 41.55L28.15 41.3L28.35 40.9L32.35 35.3L34.7 32.15L36.3 29.5L36.25 30.6L37.4 30L36.35 31.45L35.2 33.15" />
<path style="fill:#6B4228;fill-opacity:1" d="M35.9,34L35.2 33.15L36.35 31.45L37.15 32.4L37.9 33.1L30.3 43.1L29.45 42.7L35.9 34" />
<path style="fill:#9F6D50;fill-opacity:1" d="M29.45,42.7Q28.8 42.3 28.75 41.75L35.2 33.15L35.9 34L29.45 42.7" />
<path style="fill:#384D5B;fill-opacity:1" d="M37.6,25L37.45 26.45L37.5 27.35Q37.5 29.6 38.3 30.45Q39.3 28.5 42.25 24.6L42.3 24.45L43.55 22.85L44.4 21.8L45.4 20.45L47.25 18.05L47.55 17.75L51.55 12.65L54.7 8.85L54.9 8.5Q46.6 12.3 39.1 17.65L39.7 18.95L41.85 24L41.5 23.45Q40.4 21.95 39.85 20.65L39.35 19.65L38.8 18.5L38.65 18.1L38.6 18.6L38.15 20.55L37.55 24.65L37.6 25M51.8,13.25L50.05 15.45L47.7 18.25Q47.5 18.45 47.45 18.6L46.95 19.35L44.55 22.4L44.35 22.65L43.9 23.2L42.7 24.9L42.6 24.95L40.75 27.6Q39.05 30.05 38.8 30.75L39.05 31L39.6 31.25L40.3 31.4L40.55 31.4Q41.15 31.5 50.65 28.25L51.4 28L50.55 27.9L49.6 27.65L44.8 26.25Q42.7 25.45 43.15 25.35L43.2 25.35L43.25 25.3Q45 26.05 48.15 26.6L50.35 27.1L50.7 27.2L51.8 27.25L53.15 19.95L55.2 9.15L55.05 9.45L54.35 10.3L51.8 13.25M55.7,11.55L54.75 16.65L54.05 19.95L53.5 23L53.1 25.7L52.85 27.1L52.55 27.9L52.55 27.95L52.4 28.15L52.05 28.5L50.85 28.95L47.65 30.05L41.95 31.85Q42.1 33.25 41.2 33.85Q40.35 34.45 39.6 34.45L38.45 34.45L37 33.85Q36.15 33.35 35.3 32.1Q34.5 30.85 34.55 29.6Q34.55 28.4 34.85 27.95L35.75 27.2Q36.2 26.9 36.75 26.95Q36.5 26.3 36.7 23.75L37.35 19.85L37.95 17.5Q38.1 16.45 39 15.85L42.6 13.85Q45.15 12.4 48.75 10.5Q52.4 8.65 53.6 8.15L55.55 7.55Q56.2 7.4 56.25 7.85L55.7 11.55M35.65,30.9L36.55 32.3L37.7 33.15L39.35 33.65L40.4 33.4Q41.6 32.65 41.35 31.9L40.35 32.05L38.65 31.65L38.55 31.55L37.7 30.8Q36.8 29.7 36.85 28.4L36.85 27.9L36.9 27.75L36.8 27.75Q35.95 27.75 35.5 28.55Q35.15 29.2 35.4 30.25L35.65 30.9" />
<path style="fill:#90D2C6;fill-opacity:1" d="M50.4,27.1L50.4 27L54.25 10.5L54.35 10.3L55.05 9.45L55.2 9.15L53.15 19.95L51.8 27.25L50.7 27.2L50.35 27.1L50.4 27.1" />
<path style="fill:#E0E6DA;fill-opacity:1" d="M39.7,18.95L40.15 17.95L42.8 16.1L44.4 21.8L43.55 22.85L42.3 24.45L42.25 24.6L42.2 24.5L41.85 24.05L41.85 24L39.7 18.95M47.25,18.05L46.05 14.4L51.15 11.25L51.55 12.65L47.55 17.75L47.25 18.05M42.7,24.9L43.9 23.2L44.35 22.65L44.55 22.4L46.95 19.35L47.45 18.6Q47.5 18.45 47.7 18.25L50.05 15.45L51.8 13.25L54.35 10.3L54.25 10.5L44.9 23.9L50.4 27L50.4 27.1L50.35 27.1L48.15 26.6Q45 26.05 43.25 25.3L43.2 25.35L42.7 24.9" />
<path style="fill:#FFFFFF;fill-opacity:1" d="M51.15,11.25L46.05 14.4L47.25 18.05L45.4 20.45L44.4 21.8L42.8 16.1L40.15 17.95L39.7 18.95L39.1 17.65Q46.6 12.3 54.9 8.5L54.7 8.85L51.55 12.65L51.15 11.25" />
<path style="fill:#BFC9B6;fill-opacity:1" d="M41.85,24.05L42.2 24.5L42.25 24.6Q39.3 28.5 38.3 30.45Q37.5 29.6 37.5 27.35L37.45 26.45L37.6 25L38.7 21.2L39.35 19.65L39.85 20.65Q40.4 21.95 41.5 23.45L41.85 24L41.85 24.05M36.55,32.3L35.65 30.9L35.4 30.25L35.65 29.6Q36 28.75 36.6 28.5Q36.1 30.55 38.3 31.9Q37.5 33 36.55 32.3M40.35,32.05L41.35 31.9Q41.6 32.65 40.4 33.4L39.35 33.65Q39.9 33.45 40.25 32.6L40.35 32.05" />
<path style="fill:#ACB0A2;fill-opacity:1" d="M44.9,23.9L54.25 10.5L50.4 27L44.9 23.9" />
<path style="fill:#65A599;fill-opacity:1" d="M48.45,28.05L49.6 27.65L50.55 27.9L51.4 28L50.65 28.25Q41.15 31.5 40.55 31.4L40.3 31.4L39.6 31.25L48.45 28.05" />
<path style="fill:#717463;fill-opacity:1" d="M43.2,25.35L43.15 25.35Q42.7 25.45 44.8 26.25L49.6 27.65L48.45 28.05L46.45 27.8L42.8 27.15L40.95 28.85L39.7 30.45L39.05 31L38.8 30.75Q39.05 30.05 40.75 27.6L42.6 24.95L42.7 24.9L43.2 25.35" />
<path style="fill:#737F71;fill-opacity:1" d="M39.6,31.25L39.05 31L39.7 30.45L40.95 28.85L42.8 27.15L46.45 27.8L48.45 28.05L39.6 31.25" />
<path style="fill:#EEEEEE;fill-opacity:1" d="M37.55,24.65L38.15 20.55L38.6 18.6L38.65 18.1L38.8 18.5L39.35 19.65L38.7 21.2L37.6 25L37.55 24.65M36.8,27.9L36.6 28.5Q36 28.75 35.65 29.6L35.4 30.25Q35.15 29.2 35.5 28.55Q35.95 27.75 36.8 27.75L36.9 27.75L36.85 27.9L36.8 27.9" />
<path style="fill:#8F9385;fill-opacity:1" d="M38.3,31.9Q36.1 30.55 36.6 28.5L36.8 27.9L36.85 27.9L36.85 28.4Q36.8 29.7 37.7 30.8L38.55 31.55L38.65 31.65L40.35 32.05L40.25 32.6Q39.9 33.45 39.35 33.65L37.7 33.15L36.55 32.3Q37.5 33 38.3 31.9" />
<path style="fill:#482D19;fill-opacity:1" d="M12.15,32.25L2.3 43.95Q2.15 44.75 3.05 45.45L4.3 46.1L16.1 32.5L18.2 30L17.65 31.55L19.5 31Q18.85 31.45 15.1 35.7L5.15 47.15Q4 47.65 2.65 46.75L2.45 46.55L2.25 46.4Q0.9 45.25 1 43.7L1.3 43.3L1.7 42.7Q3.95 39.8 7.95 35.05L11.55 30.7L14.2 27.15L14 28.75L15.7 27.9L14 30L12.15 32.25" />
<path style="fill:#6B4228;fill-opacity:1" d="M13.05,33.65L12.15 32.25L14 30L15.1 31.3L16.1 32.5L4.3 46.1L3.05 45.45L13.05 33.65" />
<path style="fill:#9F6D50;fill-opacity:1" d="M3.05,45.45Q2.15 44.75 2.3 43.95L12.15 32.25L13.05 33.65L3.05 45.45" />
<path style="fill:#FFFFFF;fill-opacity:1" d="M37.15,2.3L29.45 6.4L30.85 11.8L28.05 14.95L26.45 16.75L24.65 8.55L20.65 10.95L19.95 12.35L19.2 10.3Q30.5 3.3 42.7 -1.2L42.3 -0.8L37.65 4.3L37.15 2.3" />
<path style="fill:#384D5B;fill-opacity:1" d="M44.65,-1.95L43.6 3.1L41.75 10.25L40.5 14.95L39.4 19.35L38.6 23.05L38 25.15L37.5 26.4L37.55 26.45L37.35 26.7L36.8 27.1L35.05 27.6L30.3 28.95L22.05 31Q22.1 33.1 20.8 33.85Q19.5 34.6 18.45 34.6L16.65 34.4Q16.05 34.2 14.75 33.45Q13.5 32.65 12.45 30.8Q11.4 28.85 11.5 27.15Q11.65 25.4 12.25 24.75L13.5 23.75Q14.25 23.35 15.05 23.5Q14.75 22.6 15.3 18.95Q15.8 15.3 16.5 13.4L17.5 10.05Q17.9 8.6 19.3 7.85L24.55 5.25Q28.35 3.4 33.7 1L40.9 -1.9L43.75 -2.65Q44.7 -2.75 44.65 -1.95M22.6,19.75L22.2 19Q20.75 16.65 20 14.75L19.4 13.35L18.7 11.6L18.5 10.95L18.35 11.7L17.6 14.4Q16.85 17.3 16.4 20.35L16.35 20.85L16.1 22.85L16 24.2Q15.85 27.45 16.9 28.7Q18.5 26 23.05 20.6L23.15 20.55L25.1 18.3L26.45 16.75L28.05 14.95L30.85 11.8L31.3 11.35L37.65 4.3L42.3 -0.8L42.7 -1.2Q30.5 3.3 19.2 10.3L19.95 12.35L22.6 19.75M37.85,5.25L35 8.2L31.45 12.1L31.1 12.55L30.25 13.5L26.65 17.6L26.25 18L25.6 18.85L23.65 21.1L23.55 21.2L20.6 24.8Q18.05 28.15 17.55 29.15L17.95 29.55L18.6 29.95L19.7 30.3L19.95 30.25Q20.95 30.3 34.85 26.7L34.9 26.7L35.85 26.4L34.75 26.1L33.3 25.65L26.65 23.2Q23.75 21.85 24.35 21.75L24.4 21.75L24.5 21.7Q27 22.9 31.3 24.1L34.5 25L34.5 25.05L35 25.15L36.5 25.35L39.15 14.95L43.1 -0.3L42.7 0.1L41.7 1.2L37.85 5.25M13,29.05Q13.4 30.2 14.2 31.15L15.8 32.5Q17 33.3 18.1 33.35L19.65 33.05Q21.45 32.2 21.15 31L19.65 31.15Q18.3 31.1 17.25 30.35L17.15 30.3L16 29.15Q14.85 27.65 15 25.6L15.1 24.8L15.1 24.65L14.95 24.65Q13.8 24.55 13.1 25.75Q12.5 26.65 12.8 28.1L13 29.05" />
<path style="fill:#90D2C6;fill-opacity:1" d="M34.55,24.85L41.6 1.5L41.7 1.2L42.7 0.1L43.1 -0.3L39.15 14.95L36.5 25.35L35 25.15L34.5 25.05L34.5 25L34.55 24.85" />
<path style="fill:#E0E6DA;fill-opacity:1" d="M19.95,12.35L20.65 10.95L24.65 8.55L26.45 16.75L25.1 18.3L23.15 20.55L23.05 20.6L23 20.5L22.6 19.75L19.95 12.35M30.85,11.8L29.45 6.4L37.15 2.3L37.65 4.3L31.3 11.35L30.85 11.8M34.55,24.85L34.5 25L31.3 24.1Q27 22.9 24.5 21.7L24.4 21.75L23.65 21.1L25.6 18.85L26.25 18L26.65 17.6L30.25 13.5L31.1 12.55L31.45 12.1L35 8.2L37.85 5.25L41.7 1.2L41.6 1.5L26.9 19.9L34.55 24.85" />
<path style="fill:#BFC9B6;fill-opacity:1" d="M16.9,28.7Q15.85 27.45 16 24.2L16.1 22.85L16.35 20.85L18.25 15.4L19.4 13.35L20 14.75Q20.75 16.65 22.2 19L22.6 19.75L23 20.5L23.05 20.6Q18.5 26 16.9 28.7M16.75,30.75Q15.65 32.3 14.2 31.15Q13.4 30.2 13 29.05L12.8 28.1L13.1 27.25Q13.8 26.1 14.6 25.7Q13.8 28.6 16.75 30.75M19.45,31.95L19.65 31.15L21.15 31Q21.45 32.2 19.65 33.05L18.1 33.35Q19 33.1 19.45 31.95" />
<path style="fill:#717463;fill-opacity:1" d="M31.6,26.15L28.85 25.6L23.7 24.3Q23.15 24.45 20.85 26.7L18.85 28.7L17.95 29.55L17.55 29.15Q18.05 28.15 20.6 24.8L23.55 21.2L23.65 21.1L24.4 21.75L24.35 21.75Q23.75 21.85 26.65 23.2L33.3 25.65L31.6 26.15" />
<path style="fill:#EEEEEE;fill-opacity:1" d="M16.4,20.35Q16.85 17.3 17.6 14.4L18.35 11.7L18.5 10.95L18.7 11.6L19.4 13.35L18.25 15.4L16.35 20.85L16.4 20.35M15.05,24.85L14.6 25.7Q13.8 26.1 13.1 27.25L12.8 28.1Q12.5 26.65 13.1 25.75Q13.8 24.55 14.95 24.65L15.1 24.65L15.1 24.8L15.05 24.85" />
<path style="fill:#65A599;fill-opacity:1" d="M31.6,26.15L33.3 25.65L34.75 26.1L35.85 26.4L34.9 26.7L34.85 26.7Q20.95 30.3 19.95 30.25L19.7 30.3L18.6 29.95L31.6 26.15" />
<path style="fill:#8F9385;fill-opacity:1" d="M14.6,25.7L15.05 24.85L15.1 24.8L15 25.6Q14.85 27.65 16 29.15L17.15 30.3L17.25 30.35Q18.3 31.1 19.65 31.15L19.45 31.95Q19 33.1 18.1 33.35Q17 33.3 15.8 32.5L14.2 31.15Q15.65 32.3 16.75 30.75Q13.8 28.6 14.6 25.7" />
<path style="fill:#737F71;fill-opacity:1" d="M18.6,29.95L17.95 29.55L18.85 28.7L20.85 26.7Q23.15 24.45 23.7 24.3L28.85 25.6L31.6 26.15L18.6 29.95" />
<path style="fill:#ACB0A2;fill-opacity:1" d="M26.9,19.9L41.6 1.5L34.55 24.85L26.9 19.9" />
</g>
</svg>
