<?xml version="1.0" encoding="utf-8"?>
<svg version="1.1" id="Layer_1"
xmlns="http://www.w3.org/2000/svg"
xmlns:xlink="http://www.w3.org/1999/xlink"
xmlns:author="http://www.sothink.com"
width="11px" height="10px"
xml:space="preserve">
<g id="591" transform="matrix(1, 0, 0, 1, 0, 0)">
<path style="fill:#332C27;fill-opacity:1" d="M10.55,6L10.2 6.2Q10.05 6.25 10.15 6.6L10.2 7.3Q10.2 7.75 9.65 7.8L8.35 7.7L8 8.55L7.35 9.3L5.65 9.9Q4 10.2 2.4 9.5Q1.65 9.15 1.2 8.6L0.3 6.75Q-0.25 5.3 0.15 3.7Q0.5 2.1 1.65 1.1Q2.8 0.1 4.5 0Q6.15 -0.1 7.25 1.2L7.5 1.65L8.75 1.85Q9.85 1.95 9.65 2.25Q10 2.75 9.65 3.65Q10.45 3.4 10.6 4.65Q10.75 5.85 10.55 6M7.5,3.05L7.5 3L6.85 1.65Q5.35 0.05 2.85 1.25Q0.3 2.45 0.85 6.15L0.9 6.6Q1.3 8.6 3.4 9.15Q7.25 10.3 8.05 6.65Q8.45 6.7 8.45 7.1L9.5 7.1L9.55 6.5L9.45 6.25L8.75 6.25L8.2 6.1L7.75 5.9L7.75 5.8L9.9 5.45L9.85 4.75L9.9 4.6L9.85 4.55L9.75 4.35L9.65 4.3L8.75 4.25L7.8 4L8.1 3.85L9.1 3.6L9.1 2.7L9.05 2.45L7.7 2.4Q7.95 2.7 7.55 3L7.5 3.05M5.25,4.45Q3.05 4.75 2.7 2.1L3.15 1.6Q5.25 0.45 6 3.05Q6.4 4.3 5.25 4.45M4.45,3.95Q5.55 4.4 5.35 3.35Q5 1.05 3.3 2.1Q3.35 3.45 4.45 3.95M3.95,8.4Q5.4 9 5.8 7.9L5.9 6.55L5.6 6.5L5.1 6.2L5 6.25Q4.05 6.55 3.7 7.55L3.7 7.7Q3.55 8.2 3.95 8.4M4.75,5.85Q6.3 5.35 6.4 7L6.4 7.75Q6.2 8.5 5.4 8.9Q3.5 9.95 3.1 7.6L3.15 7.5Q3.45 6.2 4.75 5.85" />
<path style="fill:#BBB4B0;fill-opacity:1" d="M7.65,3.05L7.55 3Q7.95 2.7 7.7 2.4L9.05 2.45L9.1 2.7Q8.6 3.25 7.65 3.05M3.15,7.5L2.05 7.05L0.85 6.15Q0.3 2.45 2.85 1.25Q5.35 0.05 6.85 1.65L7.5 3L7.45 2.95Q7.55 3.65 8.1 3.85L7.8 4L8.75 4.25L9.65 4.3L9.75 4.35L9.85 4.55L9.9 4.6L9.85 4.75L8.15 4.95Q6.85 4.95 6.9 5.2L7.2 5.65Q7.45 5.9 8.2 6.1L8.75 6.25L9.45 6.25L9.55 6.5L8.35 6.6Q7.6 6.5 7.15 7.15L6.4 7.75L6.4 7Q6.3 5.35 4.75 5.85Q3.45 6.2 3.15 7.5M6.25,2.05Q6.55 3.05 7.1 2.75L7.15 2.5L6.5 1.9L6.25 2L6.25 2.05M6,3.05Q5.25 0.45 3.15 1.6L2.7 2.1Q3.05 4.75 5.25 4.45Q6.4 4.3 6 3.05M1.8,4Q2.65 3 2.15 2.1Q0.75 2.9 1.55 4.05L1.8 4M1.8,4.95Q1 5.5 1.85 5.6L2.1 5.3L1.8 4.95M3.7,4.75Q3.35 4.8 3.2 5.2L3.2 5.25L4.35 5.2Q4.2 4.8 3.7 4.75" />
<path style="fill:#E5DEDA;fill-opacity:1" d="M6.25,2L6.5 1.9L7.15 2.5L7.1 2.75Q6.55 3.05 6.25 2.05L6.25 2M1.55,4.05Q0.75 2.9 2.15 2.1Q2.65 3 1.8 4L1.55 4.05M2.1,5.3L1.85 5.6Q1 5.5 1.8 4.95L2.1 5.3M4.35,5.2L3.2 5.25L3.2 5.2Q3.35 4.8 3.7 4.75Q4.2 4.8 4.35 5.2" />
<path style="fill:#918883;fill-opacity:1" d="M7.45,2.95L7.5 3L7.5 3.05L7.55 3L7.65 3.05Q8.6 3.25 9.1 2.7L9.1 3.6L8.1 3.85Q7.55 3.65 7.45 2.95M7.2,5.65L6.9 5.2Q6.85 4.95 8.15 4.95L9.85 4.75L9.9 5.45L7.75 5.8L7.75 5.9L8.2 6.1Q7.45 5.9 7.2 5.65M7.15,7.15Q7.6 6.5 8.35 6.6L9.55 6.5L9.5 7.1L8.45 7.1Q8.45 6.7 8.05 6.65Q7.25 10.3 3.4 9.15Q1.3 8.6 0.9 6.6L0.85 6.15L2.05 7.05L3.15 7.5L3.1 7.6Q3.5 9.95 5.4 8.9Q6.2 8.5 6.4 7.75L7.15 7.15M3.3,2.1Q5 1.05 5.35 3.35Q5.55 4.4 4.45 3.95Q3.35 3.45 3.3 2.1M3.7,7.7L3.7 7.55Q4.05 6.55 5 6.25L5.1 6.2L5.6 6.5L5.9 6.55L5.8 7.9Q5.4 9 3.95 8.4Q3.55 8.2 3.7 7.7" />
</g>
</svg>
