<?xml version="1.0" encoding="utf-8"?>
<svg version="1.1" id="Layer_1"
xmlns="http://www.w3.org/2000/svg"
xmlns:xlink="http://www.w3.org/1999/xlink"
xmlns:author="http://www.sothink.com"
width="13px" height="15px"
xml:space="preserve">
<g id="309" transform="matrix(1, 0, 0, 1, 0.15, 1.55)">
<path style="fill:#D0A15B;fill-opacity:1" d="M8.2,8.95Q7 10.5 5.9 11.05L4.2 11.55L4.85 11.05Q5.65 10.25 5.45 9.35Q5.3 8.55 4.8 7.95L6.5 8.25Q7.95 8.2 8.75 7.25L9.7 6Q9.2 7.55 8.2 8.95" />
<path style="fill:#E9CB9E;fill-opacity:1" d="M9.85,5.5L9.75 5.8L9.7 6L8.75 7.25Q7.95 8.2 6.5 8.25L4.8 7.95Q5.3 8.55 5.45 9.35Q5.65 10.25 4.85 11.05L4.2 11.55L4.15 11.55L3.8 11.5L3.15 11.3L2.5 10.9L2.1 10.5L1.9 10.2L1.9 10.15L1.8 9.55L1.65 7.85Q1.6 6.95 2.35 5.6L3.6 3.7Q4.05 2.7 5.5 2.25L6.85 2L7.7 2.05Q8.95 2.05 9.85 2.8Q10.3 3.8 9.85 5.5" />
<path style="fill:#876430;fill-opacity:1" d="M10.65,2.2L10.65 2.3L10.9 2.95Q11.15 4.05 10.65 5.95L9.55 8.8L8.2 10.55L6.45 11.85L4.35 12.5L2.75 12.2L2.15 11.85Q1 11.1 0.7 9.6Q0.4 8.15 0.75 6.55L1.3 4.4L2.2 2.65Q2.95 1.5 3.8 1Q4.65 0.5 5.85 0.2L7.45 0.05L8.15 0.2L8.3 0.25L8.65 0.45L10.5 1.9L10.65 2.2M9.7,6L9.75 5.8L9.85 5.5Q10.3 3.8 9.85 2.8L9.75 2.6Q9.15 1.55 8.2 1.25L6.1 1.15Q4.9 1.35 4.15 1.95Q3.4 2.55 2.85 3.5Q2.35 4.45 1.95 5.9Q1.5 7.35 1.55 8.5Q1.6 9.65 1.9 10.15L1.9 10.2L2.1 10.5L2.5 10.9L3.15 11.3L3.8 11.5L4.15 11.55L4.2 11.55L5.9 11.05Q7 10.5 8.2 8.95Q9.2 7.55 9.7 6" />
<path style="fill:#FAE4C3;fill-opacity:1" d="M1.55,8.5Q1.5 7.35 1.95 5.9Q2.35 4.45 2.85 3.5Q3.4 2.55 4.15 1.95Q4.9 1.35 6.1 1.15L8.2 1.25Q9.15 1.55 9.75 2.6L9.85 2.8Q8.95 2.05 7.7 2.05L6.85 2L5.5 2.25Q4.05 2.7 3.6 3.7L2.35 5.6Q1.6 6.95 1.65 7.85L1.8 9.55L1.9 10.15Q1.6 9.65 1.55 8.5" />
<path style="fill:#6B4B50;fill-opacity:1" d="M1.85,6.4L2 6.65L2.75 6.7L3.35 6.8L4.75 7.25L6.15 8.3L6.8 8.9L7.2 9.2Q7.85 9.65 8.45 9.5L8.65 9.65L9.4 9.75L9.65 9.65L9.6 9.7L8.55 10.45L7.7 10.5L6.4 9.7L6 9.35L4.4 8.05L2.8 7.75L2.15 7.75L2 7.75L1.3 7.5L0.9 6.45L0.95 6.25L0.9 6.1L1.55 6.1L1.85 6.1L1.85 6.35L1.85 6.4" />
<path style="fill:#AA9B94;fill-opacity:1" d="M1.85,6.35L1.85 6.1L3.4 6.05L3.8 6.1Q4.95 6.2 6 6.95Q7.3 7.85 7.5 8.3L8.05 8.95L8.45 9.5Q7.85 9.65 7.2 9.2L6.8 8.9L6.8 8.7Q6.65 7.55 4.75 6.85L3.45 6.5L1.85 6.4L1.85 6.35" />
<path style="fill:#DCCBC1;fill-opacity:1" d="M6.15,8.3L4.75 7.25L3.35 6.8L2.75 6.7L2 6.65L1.85 6.4L3.45 6.5L4.75 6.85Q6.65 7.55 6.8 8.7L6.8 8.9L6.15 8.3" />
<path style="fill:#0E3C01;fill-opacity:1" d="M9.4,9.75L8.65 9.65L8.45 9.5L8.05 8.95L7.5 8.3Q7.3 7.85 6 6.95Q4.95 6.2 3.8 6.1L3.4 6.05L1.85 6.1L1.55 6.1L0.9 6.1L0.7 5.95L0.45 5.65L0.1 5.15L-0.15 4.4L-0.15 3.7Q0.1 1.25 2.4 -0.1L5.1 -1.3L7.25 -1.5L9.25 -1.05L11.15 0.2Q12.1 1.05 12.45 2.8L12.85 5.1L12.6 6.85Q12.35 8.1 11.45 8.75L9.65 9.65L9.4 9.75M10.05,0.9Q9.1 -0.25 6.8 -0.2Q4.45 -0.2 2.9 1.15L1.6 2.4L1.2 3.15L1.15 4L1.15 4.15L1.25 4.7L2.15 5L2.25 4.95Q3.6 4.7 4.85 5.25L6.9 6.35L8.3 7.65L9.05 8.6L9.6 8.65L10.4 8.2L11.2 7.5Q11.55 6.9 11.4 5L11.35 4.2L11.2 3.05L10.7 1.85L10.05 0.9" />
<path style="fill:#3F8523;fill-opacity:1" d="M2.6,2.7Q5.1 0.9 7.45 0.9Q8.65 0.9 10.1 1.55L10.7 1.85L11.2 3.05L11.35 4.2L11.3 4.25L9.9 6L9.85 6L9.4 5L8.65 4.25L8.7 4.5L8.5 5.55L8.45 5.6L6.7 4.4Q5.15 3.85 4.15 3.85L3.6 3.75L2.5 4L2 4.25Q1.75 4.25 1.65 3.45L2.6 2.7" />
<path style="fill:#0F6203;fill-opacity:1" d="M11.4,5Q11.55 6.9 11.2 7.5L10.4 8.2L9.6 8.65L9.05 8.6L8.3 7.65L6.9 6.35L4.85 5.25Q3.6 4.7 2.25 4.95L2.15 5L1.25 4.7L1.15 4.15L1.15 4L1.2 3.15L1.6 2.4L1.65 3.45Q1.75 4.25 2 4.25L2.5 4L3.6 3.75L4.15 3.85Q5.15 3.85 6.7 4.4L8.45 5.6L8.5 5.55L8.7 4.5L8.65 4.25L9.4 5L9.85 6L9.9 6L11.3 4.25L11.35 4.2L11.4 5" />
<path style="fill:#74C93C;fill-opacity:1" d="M10.7,1.85L10.1 1.55Q8.65 0.9 7.45 0.9Q5.1 0.9 2.6 2.7L1.65 3.45L1.6 2.4L2.9 1.15Q4.45 -0.2 6.8 -0.2Q9.1 -0.25 10.05 0.9L10.7 1.85" />
</g>
</svg>
