<?xml version="1.0" encoding="utf-8"?>
<svg version="1.1" id="Layer_1"
xmlns="http://www.w3.org/2000/svg"
xmlns:xlink="http://www.w3.org/1999/xlink"
xmlns:author="http://www.sothink.com"
width="39px" height="23px"
xml:space="preserve">
<g id="2036" transform="matrix(1, 0, 0, 1, 0, 0)">
<path style="fill:#FBE9FF;fill-opacity:1" d="M34.4,11.15L34.4 11.45Q34.4 13.9 31.4 15.65Q28.35 17.35 24.35 16.25Q20.3 15.2 17.25 13.2Q15.4 12.05 14.6 11.15L17.25 9.15Q20.3 7.1 24.35 6Q28.35 4.9 31.4 6.65Q34.4 8.4 34.4 10.8L34.4 11.15" />
<path style="fill:#F4B4FC;fill-opacity:1" d="M34.4,10.8Q34.4 8.4 31.4 6.65Q28.35 4.9 24.35 6Q20.3 7.1 17.25 9.15L14.6 11.15Q15.4 12.05 17.25 13.2Q20.3 15.2 24.35 16.25Q28.35 17.35 31.4 15.65Q34.4 13.9 34.4 11.45L34.4 11.15L34.4 10.8M35.9,11.15L35.9 11.6Q35.9 14.9 31.8 17.25Q27.75 19.5 22.35 18Q16.9 16.6 12.8 13.9Q10.35 12.35 9.3 11.15Q10.35 10 12.8 8.5Q16.9 5.8 22.35 4.3Q27.75 2.85 31.8 5.2Q35.9 7.45 35.9 10.75L35.9 11.15" />
<path style="fill:#DB16F3;fill-opacity:1" d="M38.45,11.1L38.45 11.8Q38.45 16.75 32.2 20.2Q25.9 23.6 17.9 21.35Q9.85 19.1 4.7 15.95L1.65 13.8Q-0.9 12 0.5 10.3Q1.9 8.55 3.25 7.55L5.55 5.85Q9.95 2.85 17.95 0.8Q25.9 -1.3 32.2 2.1Q38.45 5.55 38.45 10.5L38.45 11.1M37.1,10.6Q37.1 6.35 32.1 3.4Q27.1 0.45 20.45 2.35Q13.75 4.2 8.7 7.65Q5.65 9.65 4.3 11.15Q5.65 12.65 8.7 14.7Q13.75 18.15 20.45 20Q27.1 21.9 32.1 18.9Q37.1 15.95 37.1 11.7L37.1 11.1L37.1 10.6" />
<path style="fill:#EE66FF;fill-opacity:1" d="M37.1,11.1L37.1 11.7Q37.1 15.95 32.1 18.9Q27.1 21.9 20.45 20Q13.75 18.15 8.7 14.7Q5.65 12.65 4.3 11.15Q5.65 9.65 8.7 7.65Q13.75 4.2 20.45 2.35Q27.1 0.45 32.1 3.4Q37.1 6.35 37.1 10.6L37.1 11.1M35.9,10.75Q35.9 7.45 31.8 5.2Q27.75 2.85 22.35 4.3Q16.9 5.8 12.8 8.5Q10.35 10 9.3 11.15Q10.35 12.35 12.8 13.9Q16.9 16.6 22.35 18Q27.75 19.5 31.8 17.25Q35.9 14.9 35.9 11.6L35.9 11.15L35.9 10.75" />
</g>
</svg>
