<?xml version="1.0" encoding="utf-8"?>
<svg version="1.1" id="Layer_1"
xmlns="http://www.w3.org/2000/svg"
xmlns:xlink="http://www.w3.org/1999/xlink"
xmlns:author="http://www.sothink.com"
width="207px" height="99px"
xml:space="preserve">
<g id="969" transform="matrix(1, 0, 0, 1, -99.15, -166.95)">
<path style="fill:#C4B397;fill-opacity:1" d="M301.7,170.3Q305.35 173.6 305.35 178.3Q305.35 180.35 304.7 182.05Q303.8 184.45 301.7 186.35Q298.05 189.65 292.8 189.65L99.15 189.65L99.15 166.95L292.8 166.95Q298.05 166.95 301.7 170.3M99.15,204.95L292.8 204.95Q298.05 204.95 301.7 208.3Q305.35 211.6 305.35 216.3Q305.35 218.35 304.7 220.05Q303.8 222.45 301.7 224.35Q298.05 227.65 292.8 227.65L99.15 227.65L99.15 204.95M99.15,242.95L292.8 242.95Q298.05 242.95 301.7 246.3Q305.35 249.6 305.35 254.3Q305.35 256.35 304.7 258.05Q303.8 260.45 301.7 262.35Q298.05 265.65 292.8 265.65L99.15 265.65L99.15 242.95" />
</g>
</svg>
