<?xml version="1.0" encoding="utf-8"?>
<svg version="1.1" id="Layer_1"
xmlns="http://www.w3.org/2000/svg"
xmlns:xlink="http://www.w3.org/1999/xlink"
xmlns:author="http://www.sothink.com"
width="54px" height="52px"
xml:space="preserve">
<g id="212" transform="matrix(1, 0, 0, 1, 0.05, 4.45)">
<path style="fill:#FFFFFF;fill-opacity:1" d="M39.8,-0.7Q37.6 -1.6 37.7 -2.9Q37.6 -3.6 37.9 -4.45L38.7 -4.2Q42.25 -3.6 40.55 -1L40.5 -0.85L40.35 -0.7L39.8 -0.7M24.3,-0.25Q19.55 -1.7 13.45 1.4Q7.3 4.45 5.5 10.2Q3.7 15.95 4.2 18Q2.55 17.25 0.65 15.75L0 15.2Q-0.2 13 0.4 10.75Q2.95 -0.35 12.25 -3.15Q18.35 -5.05 23 -3.7Q25.45 -3.05 27.45 -1.55Q30.45 0.65 31.5 3.05Q29 1.15 24.3 -0.25M52.1,17.55Q54.3 19.5 51.95 20Q51.35 20.1 51.2 19.55Q50.75 18.05 52.1 17.55M48.85,31.4L47.55 34.85Q44.9 40.65 40.35 41.5L43.05 42.3L41.9 42.8Q39.3 43.7 35.9 43.7Q26.85 43.7 23.2 36.6Q21.4 33.15 21.05 28.35L21.25 27.45L21.45 26.9Q21.4 28.4 22.8 32.75Q24.15 37.1 29.55 39.4Q34.95 41.7 39.5 38.75Q44 35.75 44.35 30.3L44.65 24Q46 25.7 47.2 27.75L48.85 31.4M15.2,35.65L15.2 35.75Q12.7 35.45 12.25 33.1L12.25 33.05L12.35 32.95L12.6 32.85Q15.05 33.4 15.2 35.65M20.5,25.65L20.05 25.65Q19.35 24.1 20.5 23.05Q21.3 24.1 20.55 25.55L20.5 25.65" />
<path style="fill:#DBFFE1;fill-opacity:1" d="M0,15.2L0.65 15.75Q2.55 17.25 4.2 18Q3.7 15.95 5.5 10.2Q7.3 4.45 13.45 1.4Q19.55 -1.7 24.3 -0.25Q29 1.15 31.5 3.05L31.95 4.45Q27.55 2 21.85 2.3Q16.1 2.6 13.1 5.15Q10.1 7.75 8.8 9.75Q7.5 11.75 6.9 16.2Q6.25 20.65 9.25 25.6L12.55 31.05Q0.7 23.8 0 15.2M23.2,36.6Q26.85 43.7 35.9 43.7Q39.3 43.7 41.9 42.8L43.05 42.3L40.35 41.5Q44.9 40.65 47.55 34.85L48.85 31.4Q50.1 35.1 49.2 38.3Q48.05 42.25 45.1 44.75Q40.25 48.8 32.25 46.55Q26.55 44.95 23.3 40.9Q19.25 35.8 21.05 28.35Q21.4 33.15 23.2 36.6M32,4.95L32 5Q31.4 4.85 32 4.95" />
</g>
</svg>
