<?xml version="1.0" encoding="utf-8"?>
<svg version="1.1" id="Layer_1"
xmlns="http://www.w3.org/2000/svg"
xmlns:xlink="http://www.w3.org/1999/xlink"
xmlns:author="http://www.sothink.com"
width="91px" height="19px"
xml:space="preserve">
<g id="388" transform="matrix(1, 0, 0, 1, 0, -6.1)">
<path style="fill:#6B4228;fill-opacity:1" d="M2.6,17.65L2.15 17.2L2 16.95L1.75 16.25L66.35 16.25L66.3 17.65L2.6 17.65" />
<path style="fill:#9F6D50;fill-opacity:1" d="M66.45,14.75L66.35 16.25L1.75 16.25L1.8 15.85Q1.95 15.25 2.65 14.75L66.45 14.75" />
<path style="fill:#482D19;fill-opacity:1" d="M2.65,14.75Q1.95 15.25 1.8 15.85L1.75 16.25L2 16.95L2.15 17.2L2.6 17.65L66.3 17.65L66.25 18.65L1.75 18.65Q0.8 18.1 0.3 17.2L0.05 16.25L0.05 15.85Q0.25 14.85 1.6 13.85L1.75 13.75L66.5 13.75L66.45 14.75L2.65 14.75" />
<path style="fill:#8C2F1D;fill-opacity:1" d="M59.9,22.05Q60.4 20 62.85 19.9L63.05 19.9Q62.1 19.2 61.65 18.15L62.4 17.25L61.5 17.4L61 17.55Q59.4 17.8 57.95 17L58.2 16.9L58.7 16.65Q61.1 16.55 62.9 15.6Q64.9 14.6 64.9 13.15L63.6 13.7L61.45 13.95L61.55 13.55Q58.55 13.2 57.75 10.4L57.7 9.6L57.8 9.75Q58 10.7 59.1 11.4Q60.15 12.1 61.55 12.25L61.3 11.6L63.15 12L62.55 10.75Q64.35 10.55 65.65 11.7L68.25 14.1Q67.9 12.2 66.85 11.25Q71.55 11.5 70.4 15.8L69.55 18.5Q68.85 20.35 68.1 21L66.85 20.5Q67.35 21.25 66.4 21.25L64.1 20.85Q62.75 20.45 61.5 21.15Q60.2 21.85 59.7 23.15Q59.1 21.3 59.95 19.8L59.9 22.05" />
<path style="fill:#5F1000;fill-opacity:1" d="M62.6,10.25L64.95 10.35L65.05 10.15L65.15 10.1L65.3 10.05Q70.75 9.8 71.2 14L71.2 15.05L70.8 17.2Q70.35 18.6 69.35 20.05Q67.6 22.55 65.55 22.05L62.35 21.8Q61.3 22.05 60.95 22.6L59.85 24.5Q58.6 23.75 58.65 21.4Q58.65 19.6 59.7 18.5Q58.8 18.35 57.8 17.75L56.7 16.75L58 16.15Q59.3 15.55 59.9 14.9L60.4 14.05L59.95 13.9Q59.1 13.6 58.4 13.1Q57.5 12.45 57.1 11.2Q56.65 9.95 57 7.95L57.15 7.9Q59 10.45 62.15 10.3L62.6 10.25M57.7,9.6L57.75 10.4Q58.55 13.2 61.55 13.55L61.45 13.95Q60.95 15.7 58.9 16.55L58.7 16.65L58.2 16.9L57.95 17Q59.4 17.8 61 17.55L61.5 17.4L62.4 17.25L61.65 18.15L61.15 18.45Q60.35 19.05 59.95 19.8Q59.1 21.3 59.7 23.15Q60.2 21.85 61.5 21.15Q62.75 20.45 64.1 20.85L66.4 21.25Q67.35 21.25 66.85 20.5L68.1 21Q68.85 20.35 69.55 18.5L70.4 15.8Q71.55 11.5 66.85 11.25Q67.9 12.2 68.25 14.1L65.65 11.7Q64.35 10.55 62.55 10.75L62.05 10.8Q59.4 11.35 57.8 9.75L57.7 9.6" />
<path style="fill:#BB482E;fill-opacity:1" d="M63.15,12L61.3 11.6L61.55 12.25Q60.15 12.1 59.1 11.4Q58 10.7 57.8 9.75Q59.4 11.35 62.05 10.8L62.55 10.75L63.15 12M59.95,19.8Q60.35 19.05 61.15 18.45L61.65 18.15Q62.1 19.2 63.05 19.9L62.85 19.9Q60.4 20 59.9 22.05L59.95 19.8M58.7,16.65L58.9 16.55Q60.95 15.7 61.45 13.95L63.6 13.7L64.9 13.15Q64.9 14.6 62.9 15.6Q61.1 16.55 58.7 16.65" />
<path style="fill:#FFFFFF;fill-opacity:1" d="M84.95,16.45L78.95 14.7L79 14.75L77.5 14.1L78.5 11.05L72.25 12.75Q71.5 10.45 72.65 8.7L73.1 8.15L71.5 7.9Q68.75 7.65 66.6 9.1L66.55 9.15L64.15 9.25L63.1 9.1Q68 6.3 74.25 7.25L76.6 7.75L75.05 9.05L74.6 9.45Q73.55 10.4 73.2 11.1Q72.8 11.8 73.8 11.5L76.4 10.7L77.9 10.35L81.05 9.9Q80.2 10.5 79 11.8Q78 12.85 78.6 13.25L81.45 14.3L85.7 15.5L87 15.8L88.35 16.05Q89 16.1 86.9 16.65L86.2 16.8L84.95 16.45" />
<path style="fill:#3C2A22;fill-opacity:1" d="M88.9,17.25L88.25 17.4Q85 18.3 81.75 19.35Q78.15 20.45 76.3 21.1L74.3 21.8Q74.6 19.75 75.55 17.8Q74.25 17.9 69.8 21.7L67.05 21.15L64.15 19.55Q62.95 18.6 62.7 17.4Q62.35 15.4 63.9 14.35L63.95 14.35Q65.45 13.3 65.7 12.4Q65.95 11.5 64.8 10.65Q63.6 9.8 60.9 9.9Q65.7 6.2 71.8 6.1L74.35 6.25Q76.35 6.45 78.75 7.4L74.9 10.3L76.9 9.5Q77.85 9.15 79.65 8.95L83.25 9.35Q81.65 10.65 79.9 12.55L88.7 15.3L89.85 15.6L90.55 15.85Q91.25 16.15 90.7 16.55L88.9 17.25M66.4,10.7Q67.3 12.2 66.35 13.45L64.85 14.9L64.15 15.5Q63.8 15.8 63.7 16.2Q63.45 16.85 63.85 17.8Q64.55 19.6 69.25 20.75Q72 18.5 74 17.4Q76 16.3 77.55 15.9L76.7 17.6L75.65 20.1Q79 18.9 81.9 18.05L86.2 16.8L86.9 16.65Q89 16.1 88.35 16.05L87 15.8L85.7 15.5L81.45 14.3L78.6 13.25Q78 12.85 79 11.8Q80.2 10.5 81.05 9.9L77.9 10.35L76.4 10.7L73.8 11.5Q72.8 11.8 73.2 11.1Q73.55 10.4 74.6 9.45L75.05 9.05L76.6 7.75L74.25 7.25Q68 6.3 63.1 9.1L64.15 9.25Q65.65 9.55 66.4 10.7" />
<path style="fill:#C9B5A6;fill-opacity:1" d="M77.35,18.75L78.9 14.75Q75.85 15.1 72.2 17.2L68.75 19.25Q65.55 19.45 64.35 16.55Q65.4 16.7 66.55 15.95Q67.65 15.15 68.1 13.15Q68.5 11.2 66.6 9.1Q68.75 7.65 71.5 7.9L73.1 8.15L72.65 8.7Q71.5 10.45 72.25 12.75L78.5 11.05L77.5 14.1L79 14.75L78.95 14.7L84.95 16.45L77.35 18.75" />
<linearGradient
id="LinearGradID_514" gradientUnits="userSpaceOnUse" gradientTransform="matrix(-0.0085907, 0.00326538, -0.00196838, -0.00517273, 74.4, 16.45)" spreadMethod ="pad" x1="-819.2" y1="0" x2="819.2" y2="0" >
<stop  offset="0.00392157" style="stop-color:#6D5852;stop-opacity:1" />
<stop  offset="1" style="stop-color:#AF9A8D;stop-opacity:1" />
</linearGradient>
<path style="fill:url(#LinearGradID_514) " d="M84.95,16.45L86.2 16.8L81.9 18.05Q79 18.9 75.65 20.1L76.7 17.6L77.55 15.9Q76 16.3 74 17.4Q72 18.5 69.25 20.75Q64.55 19.6 63.85 17.8Q63.45 16.85 63.7 16.2Q63.8 15.8 64.15 15.5L64.25 16.3L64.35 16.55Q65.55 19.45 68.75 19.25L72.2 17.2Q75.85 15.1 78.9 14.75L77.35 18.75L84.95 16.45" />
<linearGradient
id="LinearGradID_515" gradientUnits="userSpaceOnUse" gradientTransform="matrix(-0.00102234, -0.00492859, 0.00323486, -0.000671387, 66.55, 14.25)" spreadMethod ="pad" x1="-819.2" y1="0" x2="819.2" y2="0" >
<stop  offset="0.00392157" style="stop-color:#917162;stop-opacity:1" />
<stop  offset="1" style="stop-color:#C2AEA0;stop-opacity:1" />
</linearGradient>
<path style="fill:url(#LinearGradID_515) " d="M64.25,16.3L64.15 15.5L64.85 14.9L66.35 13.45Q67.3 12.2 66.4 10.7Q65.65 9.55 64.15 9.25L66.55 9.15L66.6 9.1Q68.5 11.2 68.1 13.15Q67.65 15.15 66.55 15.95Q65.4 16.7 64.35 16.55L64.25 16.3" />
<path style="fill:#3C2A22;fill-opacity:1" d="M71.1,11.85Q70.8 12.95 71.3 13.55L73.6 13.4L76.55 12.15L76.45 14.15Q76.25 14.9 75.5 15Q74.7 15.1 72.65 16.15Q70.6 17.15 69.35 18.3L67.6 18.25L67.05 17.5L66.75 16.75Q68.4 15.45 68.85 14.15Q69.35 12.7 68.75 11.3L68.55 10.75Q68.55 10.45 69.45 10.15Q70.3 9.8 71.6 10.15L71.1 11.85M69.3,10.9Q70.3 13.9 69.1 15.5L68.1 16.65L67.8 16.9L67.85 17.05L68.3 17.7L68.7 17.95L69.15 17.55Q71.45 15.5 75.3 14.4L75.45 14.35L75.6 14.1L75.8 13.1Q72.85 14.35 72.1 14.45L71 14.3Q70.6 14.1 70.45 13.35Q70.15 11.75 70.75 10.7L69.3 10.9" />
<path style="fill:#FFE05B;fill-opacity:1" d="M70.25,13.9Q70.75 15.35 72 14.9L75.35 13.65L75.3 14.15Q73.05 14.55 70.2 16.3L68.75 17.4L68.45 17.2L68.2 16.85L68.4 16.75Q70.35 15.15 70.05 12.4L70.25 13.9" />
<path style="fill:#FE8209;fill-opacity:1" d="M70.75,10.7Q70.15 11.75 70.45 13.35Q70.6 14.1 71 14.3L72.1 14.45Q72.85 14.35 75.8 13.1L75.6 14.1L75.45 14.35L75.3 14.4Q71.45 15.5 69.15 17.55L68.7 17.95L68.3 17.7L67.85 17.05L67.8 16.9L68.1 16.65L69.1 15.5Q70.3 13.9 69.3 10.9L70.75 10.7M70.05,12.4Q70.35 15.15 68.4 16.75L68.2 16.85L68.45 17.2L68.75 17.4L70.2 16.3Q73.05 14.55 75.3 14.15L75.35 13.65L72 14.9Q70.75 15.35 70.25 13.9L70.05 12.4" />
</g>
</svg>
