<?xml version="1.0" encoding="utf-8"?>
<svg version="1.1" id="Layer_1"
xmlns="http://www.w3.org/2000/svg"
xmlns:xlink="http://www.w3.org/1999/xlink"
xmlns:author="http://www.sothink.com"
width="86px" height="81px"
xml:space="preserve">
<g id="3118" transform="matrix(1, 0, 0, 1, 17.5, 34)">
<path style="fill:#480F6B;fill-opacity:1" d="M28.5,-30.5Q30.15 -34 33.5 -34L34.85 -33.65L37 -32.5Q40.5 -29.5 40.5 -26.25Q40.6 -24.25 40 -22.5Q38.85 -19 35.5 -19Q33.5 -19.35 31.5 -20.55Q27.5 -22.85 27.5 -26.75Q27.5 -28.4 28.5 -30.5M17.5,-12Q20 -14 24 -14L25.55 -13.8Q27.65 -12.7 29.4 -10.9Q32.5 -7.65 32.5 -4Q32.5 3 26.75 3Q23.55 3 20 1Q15 -1.75 15 -6.75Q15 -9.95 17.5 -12M63,-3L64.75 -2.7L65.8 -1.75L65.85 -1.65L66 -1.5L66.5 -0.85Q68 1.1 68 2.25Q68 4.5 67.5 5.55Q66.75 7 64.75 7Q63.1 7 61.5 6Q59 4.45 59 1.25Q59 -0.2 60 -1.5Q61.15 -3 63 -3M38.45,16.25L39 17.75Q39 21.5 35.75 21.5L33.5 21Q31.5 20.1 31.5 18Q31.5 16.55 32.5 15.5Q33.5 14.5 34.75 14.5Q35.95 14.5 37.35 15.25L38.15 15.75L38.45 16.25M18.5,5L18.5 7.5L17.7 7.95L16.75 8Q15.5 8 14.5 7.5Q13 6.7 13 5Q13 4.45 13.6 3.6L14.5 2.5L16.9 2.5Q18.15 3.7 18.5 5M5.4,5.7Q7.5 7.6 7.5 11Q7.5 13.05 6.5 15Q5.2 17.5 3 17.5Q-3 17.5 -3 12.25Q-3 8.95 0 7.05Q2.35 5.5 5.2 5.5L5.4 5.7M5,42.75Q5 43.85 4.5 45Q3.85 46.5 2.75 46.5Q0.8 46.5 0 46Q-1.5 45.1 -1.5 42.25Q-1.5 41.15 -0.5 39.5Q0.75 37.5 2.25 37.5L2.5 37.55Q5 40.3 5 42.75M-1,-13.75Q-1 -10.7 -2 -8.5Q-3.8 -4.5 -8.5 -4.5Q-11.05 -4.5 -14 -6.5Q-17.5 -8.9 -17.5 -12.25Q-17.5 -16.35 -14.5 -19Q-11.65 -21.5 -7.5 -21.5Q-6 -21.5 -4.4 -20.85L-2.5 -20Q-1 -17.4 -1 -13.75" />
</g>
</svg>
