<?xml version="1.0" encoding="utf-8"?>
<svg version="1.1" id="Layer_1"
xmlns="http://www.w3.org/2000/svg"
xmlns:xlink="http://www.w3.org/1999/xlink"
xmlns:author="http://www.sothink.com"
width="43px" height="51px"
xml:space="preserve">
<g id="936" transform="matrix(1, 0, 0, 1, 0, 0)">
<radialGradient
id="RadialGradID_1184" gradientUnits="userSpaceOnUse" gradientTransform="matrix(0.0326385, 0, 0, 0.0326385, 21.9, 27.15)" spreadMethod ="pad" cx="0" cy="0" r="819.2" fx="0" fy="0" >
<stop  offset="0"  style="stop-color:#FFE53C;stop-opacity:1" />
<stop  offset="0.32549"  style="stop-color:#FFCD6A;stop-opacity:1" />
<stop  offset="1"  style="stop-color:#E9633E;stop-opacity:1" />
</radialGradient>
<path style="fill:url(#RadialGradID_1184) " d="M22.9,11.05L23.7 13.75L24.2 20.45L27.05 12.55L37.25 0L34.6 16.9L28.1 23.95L34.4 22.35L39.65 24.85L33.55 28.7L37.35 31.65L42.35 39.05L33.35 38.05L28.45 34.7L27.35 48.6L22.8 38.4L20.35 45.05L13.9 50.25L14.15 49.35Q15.75 44.2 13.5 40.9L16.6 34.3L1.4 36.8L8.25 31.75L3.3 30.4L8.85 29.25L16.1 28L12.25 27.15L0 15.75L8.75 18.7L16.65 23.05L18.75 22.35L16.2 13.85Q15.85 12.9 16.2 10.1L16.85 4.85L19.05 7.25L21.05 9.8L21.25 12.9L21.65 10.25L22.9 11.05" />
</g>
</svg>
