<?xml version="1.0" encoding="utf-8"?>
<svg version="1.1" id="Layer_1"
xmlns="http://www.w3.org/2000/svg"
xmlns:xlink="http://www.w3.org/1999/xlink"
xmlns:author="http://www.sothink.com"
width="30px" height="39px"
xml:space="preserve">
<g id="1221" transform="matrix(1, 0, 0, 1, 0.4, -2)">
<path style="fill:#FF580D;fill-opacity:1" d="M20.45,4.05Q22.8 4.8 23.5 6.85L23.7 7.4L23.45 7.1L21.25 5.15L20.45 4.05" />
<path style="fill:#FFCC00;fill-opacity:1" d="M21.25,5.15L23.45 7.1L23.7 7.4L23.5 6.85Q22.8 4.8 20.45 4.05L21.25 5.15M24.7,9.25Q24.3 10.2 22.7 11L21.8 10.85L21.2 8.3Q21.15 6.1 19.5 4.4Q18.95 3.85 19.05 3.35Q19.15 2.4 20.1 2Q23.6 3.2 24.75 6.25Q25.2 7.85 24.7 9.25M26.45,30.55L26.1 31L26.15 30.75Q25.85 28 24.05 25.3L18.65 19.25Q19.1 20.75 17.95 22.6Q17.1 24.95 15.9 24.85Q13.3 26.25 12.5 22.7Q11.7 19.1 10.65 17.5Q9.65 15.95 9.45 14.9Q9.2 17.1 8.15 18.25Q6.75 19.8 6.2 24.2L5.15 23.05Q4.9 22.55 5 21.8Q3.9 23.4 3.8 24.15L3.45 26.85L3 31L3.95 33.1L4.75 33.95Q2.8 32.45 0.5 28.75L0.05 27.65L-0.2 27.15Q-0.6 25.35 -0.1 23.7Q0.85 18.35 4.65 14.3L4.95 14.35L7.8 11Q9.25 8.95 9.55 6.5Q9.95 5.5 10.65 4.6L10.7 4.4L11 4.45Q13.9 5.75 15.4 8.4Q16.35 10.75 16.6 13.5L17.15 14.1Q18.6 12 20.75 12Q21.4 11.6 21.3 12.35Q21.35 17.3 26.75 20.2L28.15 21.55L28.35 22.1L29.05 24.15L29.55 27.45Q28.65 29.85 26.45 30.55M24.45,21.9L23.55 21.8L23.5 22.05Q23.2 22 23.2 22.25L23.15 22.7L23.4 23L24.3 23.1L24.65 22.85L24.7 22.15L24.45 21.9M14.5,21.2Q15.2 22.75 16.2 22.15L16.55 21.9Q16.6 21.2 16.35 20.95Q15.8 20.35 15.5 20.3Q15.2 20.3 14.55 20.7Q14.2 20.95 14.5 21.2" />
<path style="fill:#FAED2D;fill-opacity:1" d="M25,35.1Q24.3 35.75 23.95 36.5Q17.8 41.95 9.55 37.25Q6.95 35.95 4.75 33.95L3.95 33.1L3 31L3.45 26.85L3.8 24.15Q3.9 23.4 5 21.8Q4.9 22.55 5.15 23.05L6.2 24.2Q6.75 19.8 8.15 18.25Q9.2 17.1 9.45 14.9Q9.65 15.95 10.65 17.5Q11.7 19.1 12.5 22.7Q13.3 26.25 15.9 24.85Q17.1 24.95 17.95 22.6Q19.1 20.75 18.65 19.25L24.05 25.3Q25.85 28 26.15 30.75L26.1 31Q25.25 32.9 25 35.1M24.7,22.15L24.65 22.85L24.3 23.1L23.4 23L23.15 22.7L23.2 22.25Q23.2 22 23.5 22.05L23.55 21.8L24.45 21.9L24.7 22.15M14.55,20.7Q15.2 20.3 15.5 20.3Q15.8 20.35 16.35 20.95Q16.6 21.2 16.55 21.9L16.2 22.15Q15.2 22.75 14.5 21.2Q14.2 20.95 14.55 20.7" />
<path style="fill:#C43B0D;fill-opacity:1" d="M26.1,31L26.45 30.55Q28.65 29.85 29.55 27.45Q29.5 30.65 27 33.6Q25.65 34.9 25.4 36.9Q25.3 37.6 25 37.8Q19.3 42.35 11.7 39.5Q2.4 35.9 0.05 27.65L0.5 28.75Q2.8 32.45 4.75 33.95Q6.95 35.95 9.55 37.25Q17.8 41.95 23.95 36.5Q24.3 35.75 25 35.1Q25.25 32.9 26.1 31" />
</g>
</svg>
