<?xml version="1.0" encoding="utf-8"?>
<svg version="1.1" id="Layer_1"
xmlns="http://www.w3.org/2000/svg"
xmlns:xlink="http://www.w3.org/1999/xlink"
xmlns:author="http://www.sothink.com"
width="244px" height="239px"
xml:space="preserve">
<g id="500" transform="matrix(1, 0, 0, 1, 0, 0)">
<path style="fill:#000000;fill-opacity:1" d="M169.25,43.05Q168.5 42.75 169.1 40.75Q169.95 38.05 172.5 37.5Q177.7 46.5 169.25 43.05M207.65,60.3Q206.45 60.5 206.15 58.6Q205.2 52.6 209.05 50Q218.4 58.45 207.65 60.3M205.75,108Q203.55 107.15 204.3 104.8Q204.75 104.2 205.45 103.9L206.55 103.55Q214.15 111.3 205.75 108M175,125.45Q172.55 125.35 174.2 122.65Q174.9 121.55 176 121.55Q185.45 125.95 175 125.45M164.5,108.05Q169.95 113.95 161.8 112L161.65 111.8Q161.3 108.6 164.5 108.1L164.5 108.05M169,189.45Q166.4 188.9 168.4 186.4Q169.1 185.55 170 185.55Q180.85 191.95 169 189.45M186.25,166.25Q185.35 165.95 185.65 164.05Q186 161.4 188.55 161.05Q195.75 169.05 186.25 166.25M214.55,171.3L212.95 170.35Q211.7 169.35 212.15 167.8Q212.35 167.1 212.9 166.65Q213.7 166.05 214.55 166.05Q223.55 171.55 214.55 171.3M236.55,166.55Q248.9 170.1 239.95 173.55Q238.1 174.3 236.2 172.7Q231.65 169.1 236.55 166.55M114.15,6.4Q113.25 1.7 117 0Q127.15 7.6 116.7 8.65Q114.65 8.85 114.15 6.4M85.9,51.25Q83.75 43.25 91.5 40Q100.8 41.75 94.5 51.8Q88.55 61.3 85.9 51.25M146.15,88.35Q141.45 90.75 140.5 86.05Q138.7 77 147.5 73.5Q160.65 80.85 146.15 88.35M138,52.05Q123.5 46.2 132 37Q147.1 40.8 140.8 51.55Q140.05 52.9 138 52.05M70.75,31.65Q70 31.95 68.95 30.3Q64.05 22.6 70 18Q81.65 27.6 70.75 31.65M4.5,30.5Q10.05 40.1 0.8 39.7Q0.35 39.7 0.1 38.2Q-0.65 32.6 4.5 30.5M19,24.5Q29 31.15 18 33.9Q16.95 34.2 16.5 32.4Q15.1 26.8 19 24.5M11.1,61.8Q9.25 50.95 18 45.5Q38.75 51.3 21.85 65Q12.85 72.25 11.1 61.8M23.55,94.4Q20.95 93.75 22.8 91Q23.45 90 24.5 90.05Q32.55 96.75 23.55 94.4M40,60Q52.55 64.05 42.15 69.35Q40.5 70.2 38.75 68.05Q34.5 62.95 40 60M71.75,73.35Q70.6 74.1 69.2 72.55Q61.6 64.25 68.5 58Q82.95 66.1 71.75 73.35M80.8,112.7L81.5 112.55Q87.25 120.1 79.95 114.45Q78.7 113.45 80.8 112.7M41.5,109.85Q36.9 110.7 37.55 106.1Q38.2 101.65 42.5 100.55Q53.8 107.5 41.5 109.85M11.5,115.05Q18.4 128.8 6.15 139.55Q4.5 141 4.7 138.2Q5.8 124.85 11.5 115.05M32,131.05Q41.1 138 29.35 138.3Q28.1 138.35 28.1 136.15Q28.1 132.05 32 131.05M32.5,186.45Q31.5 187.3 30 186.1Q21.2 179.25 27.5 173.55Q41.5 178.25 32.5 186.45M55.15,169.45Q53 168.7 53.5 166.1Q54.1 163.25 56.5 162.55Q64.65 172.8 55.15 169.45M75.55,187.4Q70.1 180.6 75.5 176.05Q87.95 182.8 78.3 188.3Q76.9 189.1 75.55 187.4M145.85,120L145.65 119.8Q145.8 115.95 150 115.1L150 115.05Q161.55 126.7 145.85 120M130.5,137.05Q127.15 136.35 129.8 133.8Q130.6 133 131.5 133.05Q141.45 139.45 130.5 137.05M108.55,137.6Q103.7 136.8 106.95 133.2Q107.45 132.6 108 132.55Q120.15 139.55 108.55 137.6M116,187.05Q116.6 185.6 118 185.55Q129.5 191.7 118 190.9Q114.5 190.65 116 187.05M133.35,165.45Q116.95 160.65 120.5 151.55Q137.05 152.45 135.8 164.75Q135.65 166.1 133.35 165.45M154.5,235.15L154.5 235.05Q158.95 241.7 152.15 237.05L152.15 236.8Q152.7 235.15 154.5 235.15M146.4,218.2Q145.25 217.45 147.3 216.75L148 216.55Q153.6 223 146.4 218.2M74.3,218.8Q69.95 220.6 68.6 215.45Q67.5 211.2 71 210.05Q83.75 214.9 74.3 218.8M44.6,208Q42.15 207.35 42.1 204.8Q43.4 202.6 46 202.55Q54.2 210.55 44.6 208" />
</g>
</svg>
