<?xml version="1.0" encoding="utf-8"?>
<svg version="1.1" id="Layer_1"
xmlns="http://www.w3.org/2000/svg"
xmlns:xlink="http://www.w3.org/1999/xlink"
xmlns:author="http://www.sothink.com"
width="20px" height="274px"
xml:space="preserve">
<g id="2730" transform="matrix(1, 0, 0, 1, -6, 382.2)">
<path style="fill:#FFFFFF;fill-opacity:1" d="M24,-382.2Q24.7 -375.4 24.1 -370.35Q23.5 -365.25 25 -364.05Q26.5 -362.85 25.5 -346.85Q24.5 -330.85 24.5 -327.5L24 -331.5L23.6 -347.65Q23.35 -358.05 21.25 -363.65Q19.15 -369.3 17.8 -377.3Q20.7 -379.15 21.25 -379.7L24 -382.2M10,-363.55Q12 -363.55 12.5 -364.85Q10.65 -357 13.15 -349.8Q15.6 -342.7 16 -339.5Q14.8 -308.05 14.55 -296.95L14.8 -296.3Q16.4 -292 18 -291.5Q18 -286.65 17.35 -284.25Q16.7 -281.85 14.45 -269.45Q12.2 -257.2 12.1 -244.25Q11.25 -249.2 11.75 -253.3Q12.5 -259.85 12.5 -266.1Q12.5 -270.95 11.5 -277.6Q10.5 -284.25 10.5 -286.15Q10.5 -288.8 11.7 -291.75L14.35 -297.6L14.45 -297.35Q14 -314.15 11.5 -325.9L6 -350.85Q6 -352.45 7 -358.6L7.85 -364.35Q8.5 -363.55 10 -363.55M16.25,-204.35L13.7 -196.35Q12.75 -193.55 13.4 -184.7Q14 -175.9 14.95 -173.65Q15.35 -172.6 17.65 -171.8Q19.9 -171.1 19.5 -152.05Q19.1 -132.95 20.5 -112.65L20.5 -108.65L16.8 -125.85Q15.5 -131.9 15.5 -139.35Q15.5 -140.95 16 -146.7L16.5 -154.05Q16.5 -160.05 15.35 -163.1Q14.05 -166.45 11.5 -164.7Q11.5 -173 9 -183.1Q6.5 -193.25 7.8 -194.85Q9.05 -196.6 10.3 -209.3Q11.5 -222.2 12.6 -239.05Q17.85 -209.55 16.25 -204.35" />
</g>
</svg>
