<?xml version="1.0" encoding="utf-8"?>
<svg version="1.1" id="Layer_1"
xmlns="http://www.w3.org/2000/svg"
xmlns:xlink="http://www.w3.org/1999/xlink"
xmlns:author="http://www.sothink.com"
width="26px" height="33px"
xml:space="preserve">
<g id="211" transform="matrix(1, 0, 0, 1, -1.15, 0)">
<path style="fill:#FFD985;fill-opacity:1" d="M26.15,19.3Q27.65 21.45 22.75 22.2L10.5 24.35Q14.8 28 18.5 29.2Q22.15 30.35 23.6 30.45Q25.05 30.5 24.7 31.5Q24.35 32.5 22.1 32.6Q20.85 32.75 17.35 31Q13.8 29.2 8.25 25.1L5.3 25.8Q3.1 26.05 3.3 23.95L6.55 23.1Q5.6 22.45 2.85 18.3Q0.05 14.15 1.85 12.95Q8.6 12.7 15.15 9.55Q21.7 6.35 22.4 3.75L23.05 0Q26.25 1.25 24.35 5.9Q22.4 10.5 14.35 12.8Q6.25 15.05 3.05 14.75Q4.25 18.15 5.75 19.85Q7.2 21.55 8.85 22.7Q21.65 20.7 22.6 19.45Q23.8 18.75 21.35 16.7Q24.6 17.1 26.15 19.3" />
</g>
</svg>
