<?xml version="1.0" encoding="utf-8"?>
<svg version="1.1" id="Layer_1"
xmlns="http://www.w3.org/2000/svg"
xmlns:xlink="http://www.w3.org/1999/xlink"
xmlns:author="http://www.sothink.com"
width="18px" height="60px"
xml:space="preserve">
<g id="1375" transform="matrix(1, 0, 0, 1, 3.55, 11.25)">
<path style="fill:#4D3212;fill-opacity:1" d="M4.45,36.15Q4.55 42.1 4.3 46.1L5.1 46.95Q5.5 47.05 5.95 45.85L5.95 39.15L5.95 8.8L5.95 8.35L7.25 8.3L7.25 8.45L7.25 8.8L7.25 36.15L7 47.05Q6.1 48.7 5.1 48.65Q4.15 48.6 3.2 47.2Q3.1 44.85 3.15 39.15L3.15 8.8L3.15 8.4L4.45 8.4L4.45 8.45L4.45 8.8L4.45 36.15" />
<path style="fill:#745416;fill-opacity:1" d="M5.45,8.8L5.95 8.8L5.95 39.15L5.95 45.85Q5.5 47.05 5.1 46.95L5.45 8.8" />
<path style="fill:#9A7226;fill-opacity:1" d="M5.1,46.95L4.3 46.1Q4.55 42.1 4.45 36.15L4.45 8.8L5.45 8.8L5.1 46.95" />
<path style="fill:#4E4138;fill-opacity:1" d="M5.05,-10.15L2.25 -7.2Q2.45 -5.85 2.9 -4.7L3.9 -3L4.25 -2.55Q4.85 -1.8 4 -2.05L3.25 -2.5Q1.6 -1.6 0.05 -2.65L-1.7 -4.15Q-2.5 -0.8 -0.75 0.6L0.25 1.55Q1 2.25 0.15 3.05Q-0.75 3.75 -1.4 6.7Q-2 9.45 -2.45 14.15L-2.4 14.2L-1.95 14.1L1.05 12.45Q0.65 11 2.75 10.4L3.45 10.3Q4.8 10.3 5.25 10.8L5.65 10.55L7.05 10.25L7.85 10.35Q9.95 10.85 9.5 12.35Q11.2 13.4 13.05 14L13 13.95Q12.5 9.2 11.85 6.45Q11.15 3.6 10.2 2.8Q9.35 2.15 10.1 1.35L11.15 0.4Q12.8 -0.95 11.8 -4.3L10.2 -2.8Q8.65 -1.7 7.05 -2.55Q5.25 -1.55 6 -2.65L7.3 -4.85L7.85 -7.3L6.5 -8.6L5.45 -9.75L5.05 -10.15M8.5,-8Q9 -6.65 8.45 -5.1L7.7 -3.4L9.3 -3.45Q10.15 -3.85 12.1 -6.05Q13.1 -4.7 13.15 -2.5Q13.25 0.55 10.75 2Q11.35 2.05 12.1 4.1Q12.9 6.1 13.55 10.65L14.1 14.9Q14.15 15.55 12.25 14.7L9.4 13.35Q8.4 12.8 8.65 12.1Q8.95 11.35 7.55 11.15Q6.2 10.85 5.7 11.85L5.3 12.7L5.3 12.65L4.85 11.9L4.85 11.85Q4.35 10.9 3 11.2Q1.65 11.4 1.9 12.2Q2.15 12.85 1.2 13.45L-1.6 14.85L-1.8 15L-3.45 15.15L-3 10.95Q-2.5 6.25 -1.7 4.25Q-1 2.2 -0.4 2.15Q-2.85 0.75 -2.95 -2.3Q-2.9 -4.45 -1.9 -5.85Q0.05 -3.7 0.85 -3.3L2.5 -3.25Q2.25 -3.45 1.7 -4.95Q1.15 -6.5 1.6 -7.9L4.4 -10.95L4.7 -11.1Q5.1 -11.4 5.4 -11.1L8.5 -8" />
<path style="fill:#B6A998;fill-opacity:1" d="M4,-2.05Q4.85 -1.8 4.25 -2.55L3.9 -3L3.7 -4.15L3.35 -6.45L3.25 -6.45L4.25 -8.15L5.45 -9.75L6.5 -8.6L6.85 -8.1L7.1 -7.3Q7.35 -6.7 6.75 -4.95L5 -1.35L5 -1.2Q5.45 -1.05 8.55 -1.25Q8.65 -0.7 8.15 0.3Q7.85 0.75 7.7 1.55L7.55 2.5Q8.85 2.8 9.8 5.2L10.35 5.8L10.55 7.85L10.7 10L10.85 10.15L10.7 10.05L10.7 10Q8.6 7.85 7.85 8.3Q7.1 8.85 6 9.05Q5.3 10.35 5.65 10.55L5.25 10.8Q4.8 10.3 3.45 10.3L2.75 10.4Q0.65 11 1.05 12.45L-1.95 14.1L-1.3 10.75L0.15 5.95L0.5 4.95L0.55 4.25L0.85 3.8L1.65 3.8Q1.75 2.75 1.4 1.9L0.65 1L0.05 0.2L-0.4 -0.75L-0.35 -1.1L-0.3 -1.55L1 -0.9L1.9 -0.85L3 -1.9L4.15 -1.8L4 -2.05M6.25,8.6L6.4 8.55L6.3 8.55L6.25 8.6" />
<path style="fill:#837462;fill-opacity:1" d="M6,9.05Q7.1 8.85 7.85 8.3Q8.6 7.85 10.7 10L10.7 10.05L10.85 10.15L10.7 10L10.55 7.85L10.35 5.8L9.8 5.2Q8.85 2.8 7.55 2.5L7.7 1.55Q7.85 0.75 8.15 0.3Q8.65 -0.7 8.55 -1.25Q5.45 -1.05 5 -1.2L5 -1.35L6.75 -4.95Q7.35 -6.7 7.1 -7.3L6.85 -8.1L6.5 -8.6L7.85 -7.3L7.3 -4.85L6 -2.65Q5.25 -1.55 7.05 -2.55Q8.65 -1.7 10.2 -2.8L11.8 -4.3Q12.8 -0.95 11.15 0.4L10.1 1.35Q9.35 2.15 10.2 2.8Q11.15 3.6 11.85 6.45Q12.5 9.2 13 13.95L13.05 14Q11.2 13.4 9.5 12.35Q9.95 10.85 7.85 10.35L7.05 10.25L5.65 10.55Q5.3 10.35 6 9.05M6.3,8.55L6.4 8.55L6.25 8.6L6.3 8.55" />
<path style="fill:#F5F3EE;fill-opacity:1" d="M4.15,-1.8L3 -1.9L1.9 -0.85L1 -0.9L-0.3 -1.55L-0.35 -1.1L-0.4 -0.75L0.05 0.2L0.65 1L1.4 1.9Q1.75 2.75 1.65 3.8L0.85 3.8L0.55 4.25L0.5 4.95L0.15 5.95L-1.3 10.75L-1.95 14.1L-2.4 14.2L-2.45 14.15Q-2 9.45 -1.4 6.7Q-0.75 3.75 0.15 3.05Q1 2.25 0.25 1.55L-0.75 0.6Q-2.5 -0.8 -1.7 -4.15L0.05 -2.65Q1.6 -1.6 3.25 -2.5L4 -2.05L4.15 -1.8M3.9,-3L2.9 -4.7Q2.45 -5.85 2.25 -7.2L5.05 -10.15L5.45 -9.75L4.25 -8.15L3.25 -6.45L3.35 -6.45L3.7 -4.15L3.9 -3" />
<path style="fill:#2E201B;fill-opacity:1" d="M12.1,0.9Q13.2 0.9 13.45 1.85Q14.05 3.65 13.25 4.8Q9.55 5.35 7.95 6L12.25 8.15Q14.8 9.4 14 11.1Q13.15 12.75 11.95 12.3L9.6 11.25Q8.4 10.65 5.45 8.75L4.35 8.15L0.35 11.15L-1.2 12.3L-2.35 12.35L-3.35 11.45L-3.35 11.35Q-3.85 10.5 -2.95 9.6L-2.2 8.7L-1.6 8.1L0.05 6.4L-0.15 6.2Q-1.8 5.4 -2.15 4.6L-2.2 4.05Q-2.15 3.4 -1.6 2.5Q-1 1.45 -0.2 1.5Q1.7 1.7 4.3 3.1Q7.45 1.45 12.05 0.9L12.1 0.9M8.75,2.6Q7.4 2.9 6.25 3.5L6 3.65Q1.2 5.95 -2.2 10.2L-2.65 10.65L-2.5 10.95L-2.35 11.2Q-2.1 11.6 -1.15 11.05L1.15 9.25L2.95 7.85Q6.3 5.05 9.6 4.35L12.7 3.4Q12.5 3.2 12.4 2.1L12.1 2.05Q11.35 1.8 10.35 2.05L9.8 2.25L8.75 2.6M8.15,9.25L11.3 11L11.55 11.05Q12.5 11.6 12.7 10.5Q13 9.5 9.7 7.9Q6.3 6.3 6.85 6.7L5.2 7.65L6.05 8.15L8.15 9.25M0.55,5.2L1.15 5.5Q1.5 5 3.1 4Q1.7 3.2 0.65 2.8Q-0.4 2.25 -0.75 3.1L-0.95 3.45L-0.95 4.35L0.55 5.2" />
<path style="fill:#513727;fill-opacity:1" d="M4.5,5.9Q4.85 5.7 7.85 4.35Q10.1 3.4 10.1 2.9Q10.1 2.4 9.8 2.25L10.35 2.05Q11.35 1.8 12.1 2.05L12.4 2.1Q12.5 3.2 12.7 3.4L9.6 4.35Q6.3 5.05 2.95 7.85L1.15 9.25Q2.95 6.7 4.5 5.9M11.85,10.2Q9.9 8.85 9.15 8.5Q7.95 7.85 6.85 7.85L6.25 7.95L6.05 8.15L5.2 7.65L6.85 6.7Q6.3 6.3 9.7 7.9Q13 9.5 12.7 10.5Q12.5 11.6 11.55 11.05L11.3 11L11.85 10.2M-0.75,3.1Q-0.4 2.25 0.65 2.8Q1.7 3.2 3.1 4Q1.5 5 1.15 5.5L0.55 5.2Q1.15 4.25 1.55 4.45L0.4 3.8L-0.75 3.4L-0.95 3.45L-0.75 3.1" />
<path style="fill:#644638;fill-opacity:1" d="M-1.9,10.5L-1 9.9L1.95 7.35L4.3 5.35L5.6 4.55L6.25 3.8L6.25 3.5Q7.4 2.9 8.75 2.6L9.8 2.25Q10.1 2.4 10.1 2.9Q10.1 3.4 7.85 4.35Q4.85 5.7 4.5 5.9Q2.95 6.7 1.15 9.25L-1.15 11.05Q-2.1 11.6 -2.35 11.2L-2.5 10.95L-2.65 10.65L-2.2 10.2L-1.9 10.5M6.05,8.15L6.25 7.95L6.85 7.85Q7.95 7.85 9.15 8.5Q9.9 8.85 11.85 10.2L11.3 11L8.15 9.25L6.05 8.15M-0.95,4.35L-0.95 3.45L-0.75 3.4L0.4 3.8L1.55 4.45Q1.15 4.25 0.55 5.2L-0.95 4.35" />
<path style="fill:#8E6755;fill-opacity:1" d="M-2.2,10.2Q1.2 5.95 6 3.65L6.25 3.5L6.25 3.8L5.6 4.55L4.3 5.35L1.95 7.35L-1 9.9L-1.9 10.5L-2.2 10.2" />
</g>
</svg>
