<?xml version="1.0" encoding="utf-8"?>
<svg version="1.1" id="Layer_1"
xmlns="http://www.w3.org/2000/svg"
xmlns:xlink="http://www.w3.org/1999/xlink"
xmlns:author="http://www.sothink.com"
width="61px" height="14px"
xml:space="preserve">
<g id="769" transform="matrix(1, 0, 0, 1, 0, 0.25)">
<path style="fill:#EEBE23;fill-opacity:1" d="M59.3,4.9Q58.75 5.85 57.4 6.35Q60.1 7.05 60.1 9.5Q60.1 11.25 58.75 12.35Q57.35 13.5 54.95 13.5Q52.65 13.5 51.3 12.35Q49.95 11.2 49.65 9.45L52.5 9.05Q52.9 11.1 54.85 11.1Q55.8 11.1 56.35 10.6Q56.95 10.15 56.95 9.3Q56.95 8.45 56.4 8L54.4 7.6L53.2 7.6L53.2 5.45L59.3 4.9M40.65,6.1L40.65 13.55L37.45 13.55L37.45 6.2L40.65 6.1M30.25,6.4L33.55 6.3L33.55 6.85Q33.55 9.75 32.05 11.75Q30.6 13.75 27.8 13.75Q25.1 13.75 23.65 11.75Q22.15 9.7 22.15 6.85L22.15 6.65L25.4 6.55L25.4 6.9Q25.4 11.2 27.9 11.2Q30.25 11.2 30.25 6.9L30.25 6.4M16.1,6.8L16.1 10.9L21.4 10.9L21.4 13.55L12.95 13.55L12.95 6.9L16.1 6.8M10.05,7L10.25 7.25Q10.9 8.15 10.9 9.3Q10.9 11.1 9.5 12.45Q8.15 13.75 5.4 13.75Q3.35 13.75 1.9 12.85Q0.45 11.9 0 10.05L2.9 9.4Q3.4 11.25 5.6 11.25Q6.7 11.25 7.2 10.85Q7.75 10.45 7.75 9.85Q7.75 9.25 7.25 8.95L5.4 8.35Q3.3 7.9 2.25 7.25L10.05 7" />
<linearGradient
id="LinearGradID_931" gradientUnits="userSpaceOnUse" gradientTransform="matrix(0, 0.00335693, -0.00601196, 0, 5.65, 3.25)" spreadMethod ="pad" x1="-819.2" y1="0" x2="819.2" y2="0" >
<stop  offset="0" style="stop-color:#FAED2D;stop-opacity:1" />
<stop  offset="1" style="stop-color:#FFFEF3;stop-opacity:1" />
</linearGradient>
<path style="fill:url(#LinearGradID_931) " d="M37.45,6.2L37.45 2.85L34.15 2.85L34.15 0.2L43.95 0.2L43.95 2.85L40.65 2.85L40.65 6.1L37.45 6.2M30.25,6.4Q30.1 2.55 27.9 2.55Q25.5 2.55 25.4 6.55L22.15 6.65Q22.2 3.85 23.65 1.95Q25.15 0 27.9 0Q30.7 0 32.1 2.1Q33.4 4 33.55 6.3L30.25 6.4M12.95,6.9L12.95 0.2L16.1 0.2L16.1 6.8L12.95 6.9M2.25,7.25L1.8 6.9Q0.7 6 0.7 4.25Q0.7 2.45 2 1.25Q3.3 0 5.5 0Q9.4 0 10.55 3.15L7.9 4.05Q7.35 2.45 5.65 2.45Q3.75 2.45 3.75 3.65Q3.75 4.15 4.1 4.45Q4.45 4.8 5.7 5.05L8.65 5.85Q9.45 6.25 10.05 7L2.25 7.25" />
<linearGradient
id="LinearGradID_932" gradientUnits="userSpaceOnUse" gradientTransform="matrix(0, 0.00335693, -0.00601196, 0, -22.45, 3.4)" spreadMethod ="pad" x1="-819.2" y1="0" x2="819.2" y2="0" >
<stop  offset="0" style="stop-color:#FAED2D;stop-opacity:1" />
<stop  offset="1" style="stop-color:#FFFEF3;stop-opacity:1" />
</linearGradient>
<path style="fill:url(#LinearGradID_932) " d="M53.2,5.45L53.2 5.25L54.6 5.25Q55.8 5.25 56.2 4.75L56.65 3.7Q56.65 3.05 56.2 2.55Q55.7 2.05 54.85 2.05Q53.25 2.05 52.8 3.75L50.05 3.35Q50.4 1.8 51.7 0.8Q53 -0.25 54.95 -0.25Q56.95 -0.25 58.35 0.7Q59.7 1.7 59.7 3.35Q59.7 4.25 59.3 4.9L53.2 5.45" />
</g>
</svg>
