<?xml version="1.0" encoding="utf-8"?>
<svg version="1.1" id="Layer_1"
xmlns="http://www.w3.org/2000/svg"
xmlns:xlink="http://www.w3.org/1999/xlink"
xmlns:author="http://www.sothink.com"
width="61px" height="48px"
xml:space="preserve">
<g id="1541" transform="matrix(1, 0, 0, 1, -668.4, -219.75)">
<path style="fill:#06541C;fill-opacity:1" d="M695,219.75L696.55 220.1L726.7 240.25Q730.7 243.35 726.6 246.2L696.4 267.05Q693.5 268.25 693.55 264.55L693.5 255.5L670.6 259.45Q668.25 259.6 668.4 257.4L668.4 230.45Q668.65 227.35 670.55 228.1L693.55 231.35L693.55 222.7Q694 219.65 695 219.75M696.9,233.4L696.45 234.5L695.45 235.15L694.25 235.25L670.9 232L670.65 255.5L693.55 251.7L694.85 251.8L695.85 252.6Q696.2 253 696.2 253.55L696.2 262.25L725.2 243.3L696.9 225.1L696.9 233.4" />
<path style="fill:#55E27E;fill-opacity:1" d="M700.35,230.75Q703.6 234.9 709.7 235.95L709.7 235.8Q707.2 231.9 701.65 230.1L700.75 230.3L700.35 230.6L700.35 230.75M696.9,225.1L725.2 243.3L696.2 262.25L696.2 253.55Q696.2 253 695.85 252.6L694.85 251.8L693.55 251.7L670.65 255.5L670.9 232L694.25 235.25L695.45 235.15L696.45 234.5L696.9 233.4L696.9 225.1M693.55,237.55L696.45 237.2L696.45 237.1L693.55 236.55Q685.15 235 676.2 234.35Q675.45 234.5 675.95 234.65L676.1 234.75L675.55 234.75Q674.7 234.9 675.2 235.1Q682.45 238.05 690.1 237.7L693.55 237.55M693.55,245.05Q686.2 244.45 673.3 245.2L673.35 252.95Q687.4 249.65 693.55 249.45Q697.95 249.25 698.3 250.7Q699.05 251.65 698.6 257.85L708.05 252.15Q714.7 247.85 722.65 243.75L712.1 246.6Q706.25 248 699.85 246.1Q697.55 245.35 693.55 245.05" />
<path style="fill:#199A3E;fill-opacity:1" d="M699.85,246.1Q706.25 248 712.1 246.6L722.65 243.75Q714.7 247.85 708.05 252.15L698.6 257.85Q699.05 251.65 698.3 250.7Q697.95 249.25 693.55 249.45Q687.4 249.65 673.35 252.95L673.3 245.2Q686.2 244.45 693.55 245.05Q697.55 245.35 699.85 246.1" />
<path style="fill:#C5FAD4;fill-opacity:1" d="M700.35,230.6L700.75 230.3L701.65 230.1Q707.2 231.9 709.7 235.8L709.7 235.95Q703.6 234.9 700.35 230.75L700.35 230.6M690.1,237.7Q682.45 238.05 675.2 235.1Q674.7 234.9 675.55 234.75L676.1 234.75L675.95 234.65Q675.45 234.5 676.2 234.35Q685.15 235 693.55 236.55L696.45 237.1L696.45 237.2L693.55 237.55L690.1 237.7" />
</g>
</svg>
