<?xml version="1.0" encoding="utf-8"?>
<svg version="1.1" id="Layer_1"
xmlns="http://www.w3.org/2000/svg"
xmlns:xlink="http://www.w3.org/1999/xlink"
xmlns:author="http://www.sothink.com"
width="633px" height="144px"
xml:space="preserve">
<g id="971" transform="matrix(1, 0, 0, 1, 113, -255.6)">
<path style="fill:#560601;fill-opacity:1" d="M401.8,369.8Q405.7 373.65 409.5 376.9Q422.05 386.95 435.1 391.3L438.25 392.2Q448.1 394.6 455 390.7Q433.05 389.45 411.4 369.8L410.85 369.3L409.8 368.3L417.7 368.3L419.55 369.8Q428.15 376.7 436.05 380.4L435.9 380.4Q446.45 385.3 460.65 386.65L463.1 385.3Q473.7 378.05 478.1 365.55Q490.15 331.1 466.15 307.6Q442.6 284.35 422.2 289.1L412.15 290.4Q408.9 289.4 408.05 288.7Q406.3 287.05 412.95 279.4Q419.55 271.8 431.5 263.55Q443.4 255.35 445.9 256.1Q457.55 254.1 472.4 260.25Q486.45 266.9 493.55 274Q500.55 281.15 506.15 288.75Q509.85 293.65 512.15 299.85L515.15 306.35L515.2 306.75L515.35 306.95Q519.2 317.3 519.2 325.6Q519.5 347.45 510.1 362.85Q500.85 378.1 484.9 389.65Q472.95 398.4 457.85 399.25Q453.7 399.5 449.45 399.25L449.3 399.25L447.55 399.05Q440.9 398.9 425.45 392.3Q410.2 384.9 393.75 369.8L393.05 369.15L392.2 368.3L400.3 368.3L401.8 369.8M468.75,391.95Q494.75 381.65 508 355.8Q521 330.75 509.1 305.35L509.1 305.25Q504.6 295.5 498.55 287.95Q484.15 269.9 461.55 263.15L455.2 261.85L448.4 261.45Q435.25 267.65 422.45 278.05L416.95 282.6L416.55 282.85L416.15 283.25L415.35 283.8L414.65 284.3Q419.75 283.25 429.75 282.45Q439.6 281.85 455.4 290.65Q471.25 299.5 479.95 316.1Q488.8 332.65 486.7 355.5Q484.55 378.1 463.3 391.55Q459.15 394 455.2 395.5Q460.35 394.75 465.2 393.4Q466.95 392.85 468.75 391.95M-4.7,369.3L-5.25 369.8Q-26.9 389.45 -48.8 390.7Q-41.95 394.6 -32 392.2L-29.05 391.3Q-15.95 386.95 -3.35 376.9L4.3 369.8L5.8 368.3L14.1 368.3L13.2 369.15L12.5 369.8Q-3.9 384.9 -19.25 392.3L-19.4 392.3Q-34.75 398.9 -41.4 399.05L-43.15 399.25Q-47.6 399.5 -51.6 399.25Q-66.8 398.4 -78.75 389.65Q-94.75 378.1 -103.9 362.85Q-113.35 347.45 -113 325.6Q-113 317.3 -109.15 306.95L-109.15 306.75L-109 306.35Q-106.9 301.2 -104.2 296.5L-104.25 296.5Q-101.45 291.3 -97.85 286.95Q-83.85 269.6 -67.7 262.35Q-61.8 259.55 -54.85 257.9L-54.85 257.85L-46.35 256L-46.35 255.9L-45.9 255.9L-41.95 256.3Q-38.15 257.05 -37 257.65L-28.6 261.75Q-21.5 265.05 -9.95 274.5Q0.1 282.65 -0.35 288.3Q-2.6 290.6 -8.05 289.6L-22.1 289.1Q-30.8 289.25 -41.05 293.4Q-51.5 297.35 -61.85 307.45Q-72.3 317.45 -75.25 332.85Q-78.1 348.15 -71.9 365.55Q-67.55 378.05 -56.85 385.3Q-55.55 386.25 -54.5 386.65Q-40.4 385.3 -29.7 380.4Q-21.95 376.7 -13.35 369.8L-11.55 368.3L-3.6 368.3L-4.7 369.3M-102.95,305.25L-102.95 305.35Q-114.85 330.75 -101.85 355.8Q-88.6 381.65 -62.6 391.95L-59.05 393.4Q-54.25 394.75 -49.1 395.5Q-53 394 -57.15 391.55Q-78.45 378.1 -80.55 355.5Q-82.65 332.65 -73.8 316.1Q-65.1 299.5 -49.3 290.65Q-33.45 281.85 -23.6 282.45L-8.4 284.3L-9.2 283.8L-10 283.25L-10.4 282.85L-10.8 282.6L-16.35 278.05Q-29.1 267.65 -42.3 261.45L-49.1 261.85L-55.45 263.15Q-78.1 269.9 -92.4 287.95Q-98.45 295.5 -102.95 305.25" />
<path style="fill:#851111;fill-opacity:1" d="M509.1,305.25L509.1 305.35Q521 330.75 508 355.8Q494.75 381.65 468.75 391.95Q466.95 392.85 465.2 393.4L472.35 387.55Q498.65 364.6 490 333Q488.45 325.05 478.95 309.35Q469.8 293.85 451.4 285.8L458.55 286.95Q466.1 288.15 469.9 290.2Q471.95 292.1 474.85 294Q480.7 298 484.9 298.75L493.55 300.3Q496.95 301.35 497.55 302.75Q498 303.25 500.95 303.7L508.2 304.95L509.1 305.25M-59.05,393.4L-62.6 391.95Q-88.6 381.65 -101.85 355.8Q-114.85 330.75 -102.95 305.35L-102.95 305.25L-102.05 304.95L-94.8 303.7Q-91.95 303.25 -91.4 302.75Q-90.8 301.35 -87.4 300.3L-78.75 298.75Q-74.55 298 -68.7 294Q-65.8 292.1 -63.75 290.2Q-59.95 288.15 -52.4 286.95L-45.2 285.75Q-63.7 293.85 -72.8 309.35Q-82.15 325.05 -83.85 333Q-92.5 364.6 -66.2 387.55L-59.05 393.4" />
<path style="fill:#BB2E2E;fill-opacity:1" d="M498.55,287.95Q504.6 295.5 509.1 305.25L508.2 304.95L500.95 303.7Q498 303.25 497.55 302.75Q496.95 301.35 493.55 300.3L484.9 298.75Q480.7 298 474.85 294Q471.95 292.1 469.9 290.2Q466.1 288.15 458.55 286.95L451.4 285.8Q469.8 293.85 478.95 309.35Q488.45 325.05 490 333Q498.65 364.6 472.35 387.55L465.2 393.4Q460.35 394.75 455.2 395.5Q459.15 394 463.3 391.55Q484.55 378.1 486.7 355.5Q488.8 332.65 479.95 316.1Q471.25 299.5 455.4 290.65Q439.6 281.85 429.75 282.45Q419.75 283.25 414.65 284.3L415.35 283.8L416.15 283.25L416.55 282.85L416.95 282.6Q425.85 276.25 436.65 271.85Q442.65 269.05 448.6 267.35L453.3 266.05Q470.1 265.75 498.55 287.95M-66.2,387.55Q-92.5 364.6 -83.85 333Q-82.15 325.05 -72.8 309.35Q-63.7 293.85 -45.2 285.75L-52.4 286.95Q-59.95 288.15 -63.75 290.2Q-65.8 292.1 -68.7 294Q-74.55 298 -78.75 298.75L-87.4 300.3Q-90.8 301.35 -91.4 302.75Q-91.95 303.25 -94.8 303.7L-102.05 304.95L-102.95 305.25Q-98.45 295.5 -92.4 287.95Q-63.95 265.75 -47.2 266.05L-42.5 267.35Q-36.5 269.05 -30.55 271.85Q-19.7 276.25 -10.8 282.6L-10.4 282.85L-10 283.25L-9.2 283.8L-8.4 284.3L-23.6 282.45Q-33.45 281.85 -49.3 290.65Q-65.1 299.5 -73.8 316.1Q-82.65 332.65 -80.55 355.5Q-78.45 378.1 -57.15 391.55Q-53 394 -49.1 395.5Q-54.25 394.75 -59.05 393.4L-66.2 387.55" />
<path style="fill:#FF6666;fill-opacity:1" d="M453.3,266.05L448.6 267.35Q442.65 269.05 436.65 271.85Q425.85 276.25 416.95 282.6L422.45 278.05Q435.25 267.65 448.4 261.45L455.2 261.85L461.55 263.15Q484.15 269.9 498.55 287.95Q470.1 265.75 453.3 266.05M-30.55,271.85Q-36.5 269.05 -42.5 267.35L-47.2 266.05Q-63.95 265.75 -92.4 287.95Q-78.1 269.9 -55.45 263.15L-49.1 261.85L-42.3 261.45Q-29.1 267.65 -16.35 278.05L-10.8 282.6Q-19.7 276.25 -30.55 271.85" />
<path style="fill:#4E1C10;fill-opacity:1" d="M457.45,332.2L456.45 332.65L456.65 332.25L457.45 332.2M-50.5,332.25L-50.3 332.6L-51.2 332.2L-50.5 332.25" />
<path style="fill:#800E19;fill-opacity:1" d="M409.8,368.3L410.85 369.3L411.4 369.8Q433.05 389.45 455 390.7Q448.1 394.6 438.25 392.2L435.1 391.3Q422.05 386.95 409.5 376.9Q405.7 373.65 401.8 369.8L400.3 368.3L409.8 368.3M5.8,368.3L4.3 369.8L-3.35 376.9Q-15.95 386.95 -29.05 391.3L-32 392.2Q-41.95 394.6 -48.8 390.7Q-26.9 389.45 -5.25 369.8L-4.7 369.3L-3.6 368.3L5.8 368.3" />
<path style="fill:#5F1000;fill-opacity:1" d="M398.9,291.95Q398.9 291.55 399.15 291.35L399.35 291.25L398.9 291.95" />
</g>
</svg>
