<?xml version="1.0" encoding="utf-8"?>
<svg version="1.1" id="Layer_1"
xmlns="http://www.w3.org/2000/svg"
xmlns:xlink="http://www.w3.org/1999/xlink"
xmlns:author="http://www.sothink.com"
width="11px" height="13px"
xml:space="preserve">
<g id="1161" transform="matrix(1, 0, 0, 1, 0, 0)">
<path style="fill:#C4944D;fill-opacity:1" d="M9.4,3.3Q9 4.1 6.95 5L5.8 5.6L5.25 6Q4.7 6.55 3.65 8.65Q2.7 10.7 2.5 11.85L2.45 11.85L1.65 11.75L1.2 11.45L1.05 10.85L0.95 10.5Q0.8 9.7 1.45 7.3L1.8 6.35Q2.55 4.45 4.4 2.95Q6.75 1.05 8.05 1.05Q9.3 0.95 10 1.5L9.4 3.3" />
<path style="fill:#543914;fill-opacity:1" d="M10.4,1.8L10.15 1.55L10.05 1.5L10 1.5Q9.3 0.95 8.05 1.05Q6.75 1.05 4.4 2.95Q2.55 4.45 1.8 6.35L1.45 7.3Q0.8 9.7 0.95 10.5L1.05 10.85L1.2 11.45L1.65 11.75L2.45 11.85L2.5 11.85Q2.95 11.8 3.5 11.2L5 8.7Q5.9 6.85 7.3 6.2Q8.65 5.55 9.65 4.7Q10.5 3.95 10.6 4.2L10.55 4.6Q10.2 5.5 9.15 6.2L7 7.65Q5.9 8.4 5.45 9.7L4.5 11.65L3.5 12.65L2 12.95Q0.95 12.85 0.45 11.95L0.1 10.9L0.05 10.65Q-0.1 9.6 0.15 8.25Q1.75 0.85 8.5 0Q9.55 0.1 10.15 0.65L10.2 0.7L10.35 0.8L10.85 1.75L10.85 1.85Q10.8 2 10.65 1.95L10.4 1.8" />
<path style="fill:#E9CB9E;fill-opacity:1" d="M10,1.5L10.05 1.5L10.15 1.55L10.4 1.8L10.65 1.95Q11.1 3.1 10.6 4.15L10.6 4.2Q10.5 3.95 9.65 4.7Q8.65 5.55 7.3 6.2Q5.9 6.85 5 8.7L3.5 11.2Q2.95 11.8 2.5 11.85Q2.7 10.7 3.65 8.65Q4.7 6.55 5.25 6L5.8 5.6L6.95 5Q9 4.1 9.4 3.3L10 1.5" />
</g>
</svg>
