<?xml version="1.0" encoding="utf-8"?>
<svg version="1.1" id="Layer_1"
xmlns="http://www.w3.org/2000/svg"
xmlns:xlink="http://www.w3.org/1999/xlink"
xmlns:author="http://www.sothink.com"
width="94px" height="26px"
xml:space="preserve">
<g id="914" transform="matrix(1, 0, 0, 1, 13.15, -50.5)">
<linearGradient
id="LinearGradID_1174" gradientUnits="userSpaceOnUse" gradientTransform="matrix(-0.0027771, 0.0098114, -0.00285339, -0.000808716, 74.35, 65.35)" spreadMethod ="pad" x1="-819.2" y1="0" x2="819.2" y2="0" >
<stop  offset="0" style="stop-color:#FFF980;stop-opacity:1" />
<stop  offset="1" style="stop-color:#E7950A;stop-opacity:1" />
</linearGradient>
<path style="fill:url(#LinearGradID_1174) " d="M79.1,61.3L78.4 63L75.8 68.85L74.8 70.45L74.7 70.55Q73.9 71.2 72.85 70.9Q71.5 70.5 71.35 69.5Q71.05 68.75 71.35 67.55L72.4 61.2L72.9 57.95Q73.05 56.85 73.95 55.95Q74.8 54.95 75.85 54.85L78.05 55.25Q79.2 55.7 79.8 57.1Q80.4 58.5 79.1 61.3M70.4,71.9Q71.15 71.35 72.15 71.5L72.4 71.55Q73.3 71.65 73.85 72.3Q74.45 73 74.45 73.9L74.35 74.15Q74.2 74.75 73.55 75.2Q72.75 75.65 71.8 75.55Q70.75 75.35 70.2 74.75Q69.55 74.05 69.6 73.25L69.6 72.95Q69.8 72.25 70.4 71.9" />
<linearGradient
id="LinearGradID_1175" gradientUnits="userSpaceOnUse" gradientTransform="matrix(0.00210571, 0.00933838, -0.00883484, 0.0019989, -5.3, 65)" spreadMethod ="pad" x1="-819.2" y1="0" x2="819.2" y2="0" >
<stop  offset="0" style="stop-color:#FFF980;stop-opacity:1" />
<stop  offset="1" style="stop-color:#E7950A;stop-opacity:1" />
</linearGradient>
<path style="fill:url(#LinearGradID_1175) " d="M0,73.1Q-1.15 74.05 -1.9 74.3L-4.4 74.95L-7.85 74.6Q-9.45 73.85 -10.05 73.1L-10 73.2Q-11.15 72.1 -11.5 71.2L-11.55 70.95L-11.6 70.95L-11.6 70.8L-11.65 70.7Q-11.9 69.75 -11.3 69.05L-11.25 68.95Q-10.7 68.05 -9.7 67.85L-8.15 68L-8.05 68.1Q-7.65 68.3 -7.1 69L-7.05 69.05L-6.2 70.1L-6.15 70.1L-5.2 70.4L-3.8 70.3Q-3 70.15 -2.4 69.35Q-1.9 68.8 -2.15 68.3L-2.75 67.6L-3.4 67.4L-3.5 67.3L-5.5 67.2L-8.9 67.05Q-10.45 66.75 -11.4 65.85Q-12.6 64.75 -12.95 63.05Q-13.45 61.4 -12.65 59.85Q-12.15 58.35 -10.6 57.3Q-9.65 56.5 -8.85 56.25L-7.85 55.85L-6.4 55.5L-4.2 55.45Q-2.95 55.65 -2 56.35Q-1.05 56.8 -0.5 57.6L0.2 58.6L0.35 59.3L0.15 60.9L0.1 60.85Q-0.4 61.85 -1.4 62.1L-2.75 62Q-3.5 61.65 -3.9 60.95L-3.95 60.9Q-4.5 60.2 -5.2 59.95L-6.5 59.85L-7.35 60.2Q-7.7 60.4 -7.9 60.95Q-8.1 61.45 -7.8 61.9Q-7.5 62.3 -6.75 62.4L-5.7 62.35L-4.3 62.35L-2.4 62.35Q-1.25 62.55 -0.2 63.05L1.5 64.35Q2.1 64.95 2.5 66.2L2.65 66.65Q2.9 68.3 2.4 69.95Q1.1 72.1 0 73.1" />
<linearGradient
id="LinearGradID_1176" gradientUnits="userSpaceOnUse" gradientTransform="matrix(0.000213623, 0.00991821, -0.0101624, 0.000213623, 25.95, 59.4)" spreadMethod ="pad" x1="-819.2" y1="0" x2="819.2" y2="0" >
<stop  offset="0" style="stop-color:#FFF980;stop-opacity:1" />
<stop  offset="1" style="stop-color:#E7950A;stop-opacity:1" />
</linearGradient>
<path style="fill:url(#LinearGradID_1176) " d="M26.85,61.35L25.55 57.9L24.45 61.5L26.85 61.35M22.75,52.2Q23.6 50.8 24.95 50.7Q26.3 50.45 27.25 51.2Q28.15 51.85 29.35 54.6L30.7 58.1L33.8 65.25L34.35 67.2Q34.4 68.1 33.75 69L33.75 69.05Q33.05 69.75 32.05 69.8L31.05 69.65L30.95 69.65L30.25 69.05L29.75 68.05L29.3 67.2L29.25 67.1L28.7 65.6L23.25 65.8L22.8 67.3L22 69.4L22 69.35Q21.4 70.15 20.25 70.15Q19.4 70.2 18.6 69.6Q17.85 68.85 17.75 67.9L17.9 67L18.25 65.85L21.35 55.7Q21.95 53.6 22.75 52.2" />
<linearGradient
id="LinearGradID_1177" gradientUnits="userSpaceOnUse" gradientTransform="matrix(0.00282288, 0.00926208, -0.009552, 0.00291443, -4.95, 64.5)" spreadMethod ="pad" x1="-819.2" y1="0" x2="819.2" y2="0" >
<stop  offset="0" style="stop-color:#FFF637;stop-opacity:1" />
<stop  offset="1" style="stop-color:#F59D07;stop-opacity:1" />
</linearGradient>
<path style="fill:url(#LinearGradID_1177) " d="M3.35,69.4L2.65 70.75L2.65 70.7L3.35 69.4" />
<linearGradient
id="LinearGradID_1178" gradientUnits="userSpaceOnUse" gradientTransform="matrix(-0.00088501, 0.0091095, -0.0098114, -0.000946045, 44.65, 61.55)" spreadMethod ="pad" x1="-819.2" y1="0" x2="819.2" y2="0" >
<stop  offset="0" style="stop-color:#FFF980;stop-opacity:1" />
<stop  offset="1" style="stop-color:#E7950A;stop-opacity:1" />
</linearGradient>
<path style="fill:url(#LinearGradID_1178) " d="M38.3,51Q39.1 50.4 40.55 50.55L46.35 51.1L48.5 51.4Q49.4 51.6 50.2 52L50.2 52.05L51.7 53.35Q52.4 54.2 52.7 55.25Q52.95 56.2 52.85 57.25Q52.65 59.6 51.2 60.85L51.2 60.8Q50.3 61.6 48.85 62.05L49.5 62.85L50.9 65.2L50.9 65.25L51.8 67.4L51.8 67.45L52.05 68.9L51.65 69.95L51.6 70L50.7 70.7L50.65 70.75L49.4 70.85Q48.6 70.8 48.05 70.25L47.25 69.35L46.6 67.95L46.55 67.95L45.3 65.45L44.25 63.45L43.3 62.6L43.35 62.6L42.05 62.3L41.55 62.25L41.05 67.1Q40.9 68.6 40.2 69.15Q39.45 69.9 38.35 69.8Q37.15 69.7 36.5 68.8Q35.95 68 36.05 66.6L37.35 53.15Q37.5 51.6 38.3 51.05L38.3 51M42.25,54.9L41.9 58.2L44.35 58.4L46.4 58.45L47.45 58.05L47.8 57L47.6 56.2L47.6 56.15L47 55.55L44.8 55.1L42.25 54.9" />
<linearGradient
id="LinearGradID_1179" gradientUnits="userSpaceOnUse" gradientTransform="matrix(0.000946045, 0.00978088, -0.00999451, 0.000976563, 10.85, 60.85)" spreadMethod ="pad" x1="-819.2" y1="0" x2="819.2" y2="0" >
<stop  offset="0" style="stop-color:#FFF980;stop-opacity:1" />
<stop  offset="1" style="stop-color:#E7950A;stop-opacity:1" />
</linearGradient>
<path style="fill:url(#LinearGradID_1179) " d="M16.05,55.75L12.9 56.15L14.35 68.1Q14.55 69.6 14 70.35Q13.4 71.2 12.3 71.35Q11.15 71.5 10.35 70.8L10.3 70.75Q9.55 70.1 9.35 68.7L7.9 56.75L4.75 57.15Q3.55 57.3 2.95 56.85L2.9 56.8Q2.15 56.2 2 55.3L2 55.25Q1.85 54.2 2.55 53.55Q3 52.95 4.2 52.8L15.5 51.4L15.55 51.4Q16.8 51.25 17.45 51.75Q18.2 52.25 18.35 53.25Q18.5 54.2 17.9 55L17.85 55.05Q17.3 55.6 16.05 55.75" />
<linearGradient
id="LinearGradID_1180" gradientUnits="userSpaceOnUse" gradientTransform="matrix(-0.00236511, 0.009552, -0.00975037, -0.00239563, 61.2, 62.15)" spreadMethod ="pad" x1="-819.2" y1="0" x2="819.2" y2="0" >
<stop  offset="0" style="stop-color:#FFF980;stop-opacity:1" />
<stop  offset="1" style="stop-color:#E7950A;stop-opacity:1" />
</linearGradient>
<path style="fill:url(#LinearGradID_1180) " d="M69.8,58.95L69.7 59.05Q69 59.35 67.8 59.05L64.75 58.35L62.1 70.1Q61.85 71.6 61 72.15Q60.15 72.75 59.05 72.5Q57.95 72.3 57.45 71.4L57.45 71.3Q56.9 70.45 57.2 69.05L59.75 57.25L56.7 56.6Q55.5 56.4 55.1 55.75L55.05 55.65Q54.55 54.85 54.7 53.95L54.7 53.9Q54.95 52.9 55.85 52.55L55.9 52.45L57.65 52.35L68.75 54.75L68.8 54.8Q70.05 55.05 70.45 55.75Q71 56.45 70.85 57.45Q70.65 58.4 69.8 58.95" />
<path style="fill:#FFFFFF;fill-opacity:1" d="M23.35,53.5Q23.65 52 25.6 51.95Q27 51.9 27.4 53.3Q27.85 54.85 25 54.85Q22.95 54.8 23.35 53.5M39.8,51.5Q43.85 51.85 40.55 53.95Q39.55 54.6 38.95 53.55Q38.15 52.05 39.8 51.5M78.25,58.35Q77.05 59.5 75.65 58.5Q74.15 57.5 76.4 56.6Q79.4 57.2 78.25 58.35M72.7,73.55Q71.4 73.8 71.2 72.9Q71.05 72 72 72.1Q72.95 72.25 73.45 72.8Q73.95 73.35 72.7 73.55M48.85,52.9Q51.05 53.25 51.15 55.15Q51.25 57 49.3 55.75Q47.35 54.45 48.85 52.9M-10,60.85Q-10.6 60.95 -10.9 60.65Q-11.3 60.3 -11.15 60L-10.7 59.3Q-10.4 58 -8.2 56.9Q-5.65 55.6 -2.25 57.3Q-0.85 59.25 -2.9 58.7L-6.15 58.4Q-7.35 58.5 -8.45 59.55Q-9.45 60.65 -10 60.85" />
<path style="fill:#FFFFFF;fill-opacity:1" d="M15.4,53.65L11.75 53.85L6.4 54.8Q3.45 55.4 3.6 54.8L3.75 54.1L4.1 53.7L7.15 53.05L12.55 52.35L15.55 52.15Q16.05 52.15 16.45 52.75Q16.65 53.65 15.4 53.65M67.9,56.85L64.4 55.8L59.05 54.95Q56.05 54.5 56.35 54L56.75 53.4Q56.95 53.2 57.25 53.15L60.3 53.55L65.65 54.7L68.55 55.5Q69.05 55.65 69.15 56.4Q69.1 57.3 67.9 56.85" />
</g>
</svg>
