<?xml version="1.0" encoding="utf-8"?>
<svg version="1.1" id="Layer_1"
xmlns="http://www.w3.org/2000/svg"
xmlns:xlink="http://www.w3.org/1999/xlink"
xmlns:author="http://www.sothink.com"
width="13px" height="9px"
xml:space="preserve">
<g id="305" transform="matrix(1, 0, 0, 1, 0, 0)">
<path style="fill:#1E1B1A;fill-opacity:1" d="M12.25,6.35Q11.35 8.1 7.95 8.6L7.5 8.65L3.25 8.25L3.2 8.2L2.55 7.9Q0.55 6.7 0.15 5.2Q-0.3 2.9 0.85 1.65Q1.95 0.5 4.35 0.2Q9.25 -0.65 11.25 2.05Q13.15 4.6 12.25 6.35M2.3,6.25L2.7 6.6Q3.45 7.1 5.6 7.45L8.25 7.3L9.8 6.75Q11.8 5.7 11.1 4.05Q10.35 2.35 8.8 1.55Q7.2 0.7 4.7 1.2Q3.4 1.45 2.6 1.9L1.85 2.55L1.6 3Q0.95 4.25 1.55 5.3L2.3 6.25" />
<path style="fill:#2A2827;fill-opacity:1" d="M1.85,2.55L2.6 1.9Q3.4 1.45 4.7 1.2Q7.2 0.7 8.8 1.55Q10.35 2.35 11.1 4.05Q11.8 5.7 9.8 6.75L8.25 7.3Q8.9 6.95 9.1 5.75Q9.3 4.55 7.45 4.45L4.35 3.9Q3.3 3.55 2.25 2.85L1.85 2.55" />
<path style="fill:#434343;fill-opacity:1" d="M5.6,7.45Q3.45 7.1 2.7 6.6L2.3 6.25L2.15 5.9L1.85 4.9L3.15 5.2L3.25 5.2L2.1 4.6Q1.8 4.35 1.95 3.8L2.15 3.05L2.25 2.85Q3.3 3.55 4.35 3.9L7.45 4.45Q9.3 4.55 9.1 5.75Q8.9 6.95 8.25 7.3L5.6 7.45" />
<path style="fill:#646464;fill-opacity:1" d="M1.55,5.3Q0.95 4.25 1.6 3L1.85 2.55L2.25 2.85L2.15 3.05L1.95 3.8Q1.8 4.35 2.1 4.6L3.25 5.2L3.15 5.2L1.85 4.9L2.15 5.9L2.3 6.25L1.55 5.3" />
</g>
</svg>
