<?xml version="1.0" encoding="utf-8"?>
<svg version="1.1" id="Layer_1"
xmlns="http://www.w3.org/2000/svg"
xmlns:xlink="http://www.w3.org/1999/xlink"
xmlns:author="http://www.sothink.com"
width="47px" height="38px"
xml:space="preserve">
<g id="753" transform="matrix(1, 0, 0, 1, 0, 1.6)">
<path style="fill:#06541C;fill-opacity:1" d="M43.15,-1.3Q45 -1.05 46.05 -0.05Q47.05 1 46.7 2.65Q46.3 4.35 43.6 8.5L27.9 33.05Q23.5 39.45 19.05 33.45L1.8 6.5Q-2.65 -1.25 3.95 -1.6L40.9 -1.4L43.15 -1.3M4.6,4.45L22.25 30.85Q23.55 31.65 24.55 30.65L40.7 6.05L40.3 6.6Q43.45 1.85 39.5 2.65L5.9 2.6Q3.8 2.6 4.6 4.45" />
<path style="fill:#55E27E;fill-opacity:1" d="M25.35,15.35Q19.2 15.4 10.75 8.75L23.5 27.5L33.3 12.95Q31.45 15.25 25.35 15.35M33.75,4.5Q5.75 3.1 26.2 6.35Q29.95 7.05 31 7.9L32.9 9.65Q33.45 10.05 35.1 7.3Q36.75 4.55 33.75 4.5M5.9,2.6L39.5 2.65Q43.45 1.85 40.3 6.6L40.7 6.05L24.55 30.65Q23.55 31.65 22.25 30.85L4.6 4.45Q3.8 2.6 5.9 2.6" />
<path style="fill:#C5FAD4;fill-opacity:1" d="M35.1,7.3Q33.45 10.05 32.9 9.65L31 7.9Q29.95 7.05 26.2 6.35Q5.75 3.1 33.75 4.5Q36.75 4.55 35.1 7.3" />
<path style="fill:#199A3E;fill-opacity:1" d="M33.3,12.95L23.5 27.5L10.75 8.75Q19.2 15.4 25.35 15.35Q31.45 15.25 33.3 12.95" />
</g>
</svg>
