<?xml version="1.0" encoding="utf-8"?>
<svg version="1.1" id="Layer_1"
xmlns="http://www.w3.org/2000/svg"
xmlns:xlink="http://www.w3.org/1999/xlink"
xmlns:author="http://www.sothink.com"
width="21px" height="29px"
xml:space="preserve">
<g id="695" transform="matrix(1, 0, 0, 1, -1, -0.35)">
<path style="fill:#1D3E5D;fill-opacity:1" d="M17.65,9.7L14.15 9.55Q14 8.6 13.45 7.35L14.6 7.05L15 7.5L15.15 7.9L15.2 8.25L16.85 8.1L17.6 8.15Q18.35 8.25 19 8.7L19.15 8.45L19.55 6.75L19.5 5.5L19.3 4.95L19.25 4.75Q20.1 5.5 20.45 6.35L20.25 7.65L19.8 9.15L19.7 9.45L19.2 10.4Q18.65 10.05 17.65 9.7M4.05,7.6L4.85 7.95L5.3 7.35L5.65 7.05Q6.45 6.55 7.4 6.4L7.95 6.2L8.4 6.15L8.55 4.65L8.5 3.65L8.25 2.65L8.2 2.45L9.1 3.15L10.5 4.65L11.55 6.15L11.9 6.8L11.35 6.85L10.35 7.05Q8.25 7.4 7.15 8.15Q5.6 9 5.1 9.45Q3.9 8.35 2.6 7.9L2.7 7.35L4.05 7.6M2.65,11.5L3.4 12.3L4.65 13.4L5.3 13.9L6.35 14.45L6.4 14.5L6.75 14.45L7 14.3L8.35 13.3L9.35 12.15L9.95 11.2L10.45 10.05L10.85 9L11 8.5L11.15 7.9L12.1 7.7Q12.45 7.7 12.75 8.05L12.85 8.2L13 9.1L13 9.25L12.65 9.95L11.7 12.2L10.45 14L8.75 15.65Q7.8 16.35 7.05 16.5Q6.3 16.6 5.45 15.85L5.4 15.85L4.95 15.4Q3.75 14.2 3.05 12.8L2.5 11.35L2.65 11.5M17.5,11.9Q17.25 11.7 17.05 12.5L16.55 13.9L16.5 14.25L16.4 14.9Q16.2 15.8 16.15 16.75L16.15 16.9L16.15 17.5L16.1 17.9L16.1 18L16.05 18L14.65 18.4L14.45 18.45L14.1 15.05L7.9 19.7Q7.4 19.7 5.65 18.55L5.55 17.35L6.7 18.3Q7.25 18.6 8.95 17.65Q10.6 16.65 12.2 14.9Q13.6 13.45 14.05 11.4L14.2 10.5L16.2 10.3L16.4 10.3Q17.75 10.35 18.6 11.15L19.1 11.65L18.45 12.75L17.5 11.9M17.25,23.55Q14.6 24.05 12.4 25.15Q9.7 26.4 8.2 27.45L6.65 25.75Q5.55 24.45 5.35 23.65L6.1 24.15L7 25L7.55 25.55L7.8 26L8 26.25L8.75 25.7L10.2 24.85L11.25 24.25L12.75 23.35Q13.5 22.95 14.35 22.65L14.6 22.65L14.5 22.45Q14.25 21.6 14.3 20.75L14.3 20.5L14.25 19.85L14.3 19.45L16.1 19L16.15 19.8L16.15 19.95L16.2 20.35L16.65 22.15L17.25 23.55" />
<path style="fill:#286593;fill-opacity:1" d="M20.7,8.2L20.45 9.55L19.6 11L19.2 10.4L19.7 9.45L19.8 9.15L20.25 7.65L20.45 6.35Q20.8 7.2 20.7 8.2M19.25,4.75L19.3 4.95L19.5 5.5L19.55 6.75L19.15 8.45L19 8.7Q18.35 8.25 17.6 8.15L16.85 8.1L15.2 8.25L15.15 7.9L15 7.5L14.6 7.05L15.3 6.8Q16.95 6.15 19.1 4.65L19.25 4.75M17.85,6Q17.35 6.2 17.3 6.6Q17.3 6.95 18 6.9Q19.6 6.9 18.85 5.75L17.85 6M8.2,2.45L8.25 2.65L8.5 3.65L8.55 4.65L8.4 6.15L7.95 6.2L7.4 6.4Q6.45 6.55 5.65 7.05L5.3 7.35L4.85 7.95L4.05 7.6L2.7 7.35Q2.8 6.6 3.4 5.35Q4.25 3.45 5.55 2.45Q6.8 1.45 7.15 1.65L8.2 2.45M5.45,15.85Q6.3 16.6 7.05 16.5Q7.8 16.35 8.75 15.65L10.45 14L11.7 12.2L12.65 9.95L13 9.25L13 9.1L12.85 8.2L13.1 9.05L13.1 9.1L13.2 9.95Q13.25 12.4 10.45 15Q7.7 17.5 6.9 17.05L5.4 15.85L5.45 15.85M2.35,10.4L2.85 10.4Q3.8 10.55 4.6 11.15L5.5 11.65L5.55 11.65L6.2 11.2Q6.6 10.9 7.3 10.5L8.2 9.9L9.6 9.1L11 8.5L10.85 9L10.45 10.05L9.95 11.2L9.35 12.15L8.35 13.3L7 14.3L6.75 14.45L6.4 14.5L6.35 14.45L5.3 13.9L4.65 13.4L3.4 12.3L2.65 11.5L2.5 11.35L2.25 10.5L2.35 10.4M8.1,22.45Q7.15 20.6 5.6 19.9L5.65 19.55L5.65 18.55Q7.4 19.7 7.9 19.7L14.1 15.05L14.45 18.45Q10.6 19.7 8.1 22.45M16.1,18L16.1 17.9L16.15 17.5L16.15 16.9L16.15 16.75Q16.2 15.8 16.4 14.9L16.5 14.25L16.55 13.9L17.05 12.5Q17.25 11.7 17.5 11.9L18.45 12.75Q17.5 14.65 17.25 17.75L16.1 18M6.65,2.7Q5.65 3 4.9 4.2Q4.45 4.85 4.7 5L5.45 4.9L6.65 4.05Q7 3.45 6.7 2.75L6.65 2.7M5.95,21.9L7.8 25.1L10.2 23Q12.5 21.2 14.3 20.5L14.3 20.75Q14.25 21.6 14.5 22.45L14.6 22.65L14.35 22.65Q13.5 22.95 12.75 23.35L11.25 24.25L10.2 24.85L8.75 25.7L8 26.25L7.8 26L7.55 25.55L7 25L6.1 24.15L5.35 23.65L5.35 23.5L5.25 22.95L5.95 21.9M16.65,22.15L16.2 20.35L16.15 19.95L16.15 19.8L16.1 19L16.2 19L17.3 18.9L17.4 19.6Q17.55 21.35 18.5 23.25L17.25 23.55L16.65 22.15" />
<path style="fill:#6CACE7;fill-opacity:1" d="M18.85,5.75Q19.6 6.9 18 6.9Q17.3 6.95 17.3 6.6Q17.35 6.2 17.85 6L18.85 5.75M2.25,10.5L2.2 10.25Q2 9 2.4 9.05Q2.75 9 3.35 9.4L4.45 10.15L5.1 10.6L6.55 9.7Q7.95 8.75 9.6 8.3L11.15 7.9L11 8.5L9.6 9.1L8.2 9.9L7.3 10.5Q6.6 10.9 6.2 11.2L5.55 11.65L5.5 11.65L4.6 11.15Q3.8 10.55 2.85 10.4L2.35 10.4L2.25 10.5M6.7,2.75Q7 3.45 6.65 4.05L5.45 4.9L4.7 5Q4.45 4.85 4.9 4.2Q5.65 3 6.65 2.7L6.7 2.75M14.25,19.85L14.3 20.5Q12.5 21.2 10.2 23L7.8 25.1L5.95 21.9L5.25 22.95Q5.2 22.45 5.3 22.15L5.5 20.9Q6.5 21.5 7.15 22.6L7.9 23.9L9.9 22.1Q11.8 20.25 14.3 19.45L14.25 19.85" />
<path style="fill:#19213C;fill-opacity:1" d="M19.1,4.65Q16.95 6.15 15.3 6.8L14.6 7.05L13.45 7.35Q14 8.6 14.15 9.55L17.65 9.7Q18.65 10.05 19.2 10.4L19.6 11L20.45 9.55L20.7 8.2Q20.8 7.2 20.45 6.35Q20.1 5.5 19.25 4.75L19.1 4.65M21.05,10.95L19.55 13L19.3 13.65L18.6 15.9Q18.25 17.65 18.55 19.3L18.65 19.55Q19 21.35 19.5 22.35L20.1 23.85Q20.2 24.4 19.4 24.35L17.8 24.5L17.05 24.7Q15.45 25.05 14.15 25.7L13.95 25.8L12.6 26.45Q11.45 27.05 10.3 27.8L8.95 28.55L8.55 28.8Q8.15 28.9 7.65 28.5L7.2 28.05L5.3 25.75Q4.15 24.35 4.15 23.25L4.35 21.35L4.6 18.75L4.75 16.85L4.4 16.45L2.3 13.4Q1.4 12 1.15 9.9L1 7.9Q2.1 4.25 3.9 2.5Q5.65 0.65 6.7 0.4L6.95 0.4Q7.35 0.4 7.95 0.75Q8.7 1.15 9.7 2.05Q11.8 3.85 13 6.45L13.05 6.5Q15.6 6.1 18.25 3.8L18.7 3.4Q19.65 3.1 21 5.25Q22.3 7.4 21.85 8.95L21.35 10.4L21.05 10.95M7.15,1.65Q6.8 1.45 5.55 2.45Q4.25 3.45 3.4 5.35Q2.8 6.6 2.7 7.35L2.6 7.9Q3.9 8.35 5.1 9.45Q5.6 9 7.15 8.15Q8.25 7.4 10.35 7.05L11.35 6.85L11.9 6.8L11.55 6.15L10.5 4.65L9.1 3.15L8.2 2.45L7.15 1.65M13,6.45L12.85 6.35L12.85 6.4L13 6.45M12.75,8.05Q12.45 7.7 12.1 7.7L11.15 7.9L9.6 8.3Q7.95 8.75 6.55 9.7L5.1 10.6L4.45 10.15L3.35 9.4Q2.75 9 2.4 9.05Q2 9 2.2 10.25L2.25 10.5L2.5 11.35L3.05 12.8Q3.75 14.2 4.95 15.4L5.4 15.85L6.9 17.05Q7.7 17.5 10.45 15Q13.25 12.4 13.2 9.95L13.1 9.1L13.1 9.05L12.85 8.2L12.75 8.05M14.45,18.45L14.65 18.4L16.05 18L16.1 18L17.25 17.75Q17.5 14.65 18.45 12.75L19.1 11.65L18.6 11.15Q17.75 10.35 16.4 10.3L16.2 10.3L14.2 10.5L14.05 11.4Q13.6 13.45 12.2 14.9Q10.6 16.65 8.95 17.65Q7.25 18.6 6.7 18.3L5.55 17.35L5.65 18.55L5.65 19.55L5.6 19.9Q7.15 20.6 8.1 22.45Q10.6 19.7 14.45 18.45M6.65,25.75L8.2 27.45Q9.7 26.4 12.4 25.15Q14.6 24.05 17.25 23.55L18.5 23.25Q17.55 21.35 17.4 19.6L17.3 18.9L16.2 19L16.1 19L14.3 19.45Q11.8 20.25 9.9 22.1L7.9 23.9L7.15 22.6Q6.5 21.5 5.5 20.9L5.3 22.15Q5.2 22.45 5.25 22.95L5.35 23.5L5.35 23.65Q5.55 24.45 6.65 25.75" />
</g>
</svg>
