<?xml version="1.0" encoding="utf-8"?>
<svg version="1.1" id="Layer_1"
xmlns="http://www.w3.org/2000/svg"
xmlns:xlink="http://www.w3.org/1999/xlink"
xmlns:author="http://www.sothink.com"
width="22px" height="35px"
xml:space="preserve">
<g id="1702" transform="matrix(1, 0, 0, 1, 1.55, 6.75)">
<path style="fill:#76838C;fill-opacity:1" d="M13.7,-4.85L14.2 -4.2L13.55 -4.95L13.7 -4.85M18.95,2.85L18.85 2.55L19.05 2.9L18.95 2.85" />
<path style="fill:#A69089;fill-opacity:1" d="M11.75,-3.75Q14.35 -0.7 15.05 1.35L16.15 1.6L16.45 2.25L14.95 2.05Q12.95 -2.1 9.1 -5.85L9.95 -5.75L11.75 -3.75M17.55,1.8L18.15 1.9L18.7 2.15L18.8 2.35L18.85 2.5L18.85 2.55L18.95 2.85L17.3 2.25Q15.1 -2.85 12.55 -5.45L13.55 -4.95L14.2 -4.2L14.4 -4Q16.3 -1.55 17.55 1.8M10.6,23.85L9.85 25.45L9.65 25.9Q8.15 26.1 8.1 26.25L8.95 24.6Q14.2 14.05 15.2 3L15.7 3.05L14.85 8.85Q13.15 16.75 9.45 25.15L9.35 25.2L9.45 25.2L10.6 23.85M11.35,25.6L10.65 25.75L10.25 25.8L11.6 23.15L12.85 20.55L12.95 20.3L14.95 15.05Q17.1 9.15 17.35 3.4L17.85 3.5L17.05 9.15Q15.3 16.75 11.4 24.6L12.3 24.05L11.35 25.6" />
<path style="fill:#4F433E;fill-opacity:1" d="M6.75,26.6L6.75 26.55L8.4 23.9Q9.8 21 11.55 15.75Q14 8.2 14.1 4.15L14.1 3.2Q13.5 1.4 11.6 -1.2L8.1 -5.6L8 -5.55L7.85 -6.65L7.95 -6.75L9.3 -6.6L10.45 -6.5L13.05 -5.9L13.6 -5.65Q14.75 -5.05 15.4 -4.45L16.65 -3.05L19.75 2.95L19.8 3.05Q20.05 7.75 17.25 15.15L14.4 21.75L11.5 26.25L8.5 26.9L6.8 27.3L6.5 27.25L6.75 26.6M14.85,-1L14.35 -1.9Q12.95 -4.3 11.4 -5.55L9.95 -5.75L9.1 -5.85Q12.95 -2.1 14.95 2.05L16.45 2.25L16.15 1.6L14.85 -1M17.35,-0.45L16.55 -2.1Q15.6 -3.7 13.7 -4.85L13.55 -4.95L12.55 -5.45Q15.1 -2.85 17.3 2.25L18.95 2.85L19.05 2.9L18.85 2.55L18.85 2.5L18.8 2.35L18.7 2.15L17.35 -0.45M15.2,3Q14.2 14.05 8.95 24.6L8.1 26.25Q8.15 26.1 9.65 25.9L9.85 25.45L10.6 23.85L12.95 18.85L13.1 18.35L15.35 11.5Q16.5 6.9 16.5 3.15L15.8 3.05L15.7 3.05L15.2 3M12.3,24.05L13.95 20.8L15.35 18Q17.4 13.45 18.05 10.15Q19.15 4.4 18.95 3.85L18.25 3.6L17.85 3.5L17.35 3.4Q17.1 9.15 14.95 15.05L12.95 20.3L12.85 20.55L11.6 23.15L10.25 25.8L10.65 25.75L11.35 25.6L12.3 24.05" />
<path style="fill:#957E77;fill-opacity:1" d="M10.65,0.45Q8.5 -1.4 8.2 -1.15L3 4.05Q2.5 12.55 5.95 19.75Q7.05 22.15 8.4 23.9L6.75 26.55L6.75 26.6Q-0.35 18.2 -0.5 8.9Q-0.6 5.8 0.1 2.7L8 -5.55L8.1 -5.6L11.6 -1.2Q13.5 1.4 14.1 3.2L14.1 4.15Q12.7 2.25 10.65 0.45" />
<path style="fill:#3C312C;fill-opacity:1" d="M6.5,27.25Q3.65 24.8 1.8 21.2Q-0.05 17.65 -0.7 13.95Q-1.5 9.7 -1.5 7.15L-1.55 6.5L-1.5 5.65Q-1.3 2.85 -0.95 2.25L7.85 -6.65L8 -5.55L0.1 2.7Q-0.6 5.8 -0.5 8.9Q-0.35 18.2 6.75 26.6L6.5 27.25" />
<path style="fill:#EEDED3;fill-opacity:1" d="M13.7,-4.85Q15.6 -3.7 16.55 -2.1L17.35 -0.45L15.6 -2.9L14.4 -4L14.2 -4.2L13.7 -4.85M15.7,7.3L16.2 3.5L15.8 3.05L16.5 3.15Q16.5 6.9 15.35 11.5L13.1 18.35Q14.9 11.85 15.7 7.3M18.95,3.85Q19.15 4.4 18.05 10.15Q17.4 13.45 15.35 18Q17.15 13.05 18.05 8.55L18.6 4.1L18.25 3.6L18.95 3.85" />
<path style="fill:#FFFFFF;fill-opacity:1" d="M9.95,-5.75L11.4 -5.55Q12.95 -4.3 14.35 -1.9L14.85 -1L11.25 -5.15L9.95 -5.75" />
<path style="fill:#CBB4AC;fill-opacity:1" d="M11.25,-5.15L14.85 -1L16.15 1.6L15.05 1.35Q14.35 -0.7 11.75 -3.75L9.95 -5.75L11.25 -5.15M18.7,2.15L18.15 1.9L17.55 1.8Q16.3 -1.55 14.4 -4L15.6 -2.9L17.35 -0.45L18.7 2.15M13.1,18.35L12.95 18.85L10.6 23.85L9.45 25.2L9.35 25.2L9.45 25.15Q13.15 16.75 14.85 8.85L15.7 3.05L15.8 3.05L16.2 3.5L15.7 7.3Q14.9 11.85 13.1 18.35M13.95,20.8L12.3 24.05L11.4 24.6Q15.3 16.75 17.05 9.15L17.85 3.5L18.25 3.6L18.6 4.1L18.05 8.55Q17.15 13.05 15.35 18L13.95 20.8" />
<path style="fill:#70564E;fill-opacity:1" d="M8.4,23.9Q7.05 22.15 5.95 19.75Q2.5 12.55 3 4.05L8.2 -1.15Q8.5 -1.4 10.65 0.45Q12.7 2.25 14.1 4.15Q14 8.2 11.55 15.75Q9.8 21 8.4 23.9" />
</g>
</svg>
