<?xml version="1.0" encoding="utf-8"?>
<svg version="1.1" id="Layer_1"
xmlns="http://www.w3.org/2000/svg"
xmlns:xlink="http://www.w3.org/1999/xlink"
xmlns:author="http://www.sothink.com"
width="51px" height="61px"
xml:space="preserve">
<g id="496" transform="matrix(1, 0, 0, 1, 0.6, 13.75)">
<path style="fill:#6B4228;fill-opacity:1" d="M12.7,18.3Q13.3 17.8 13.95 17.45L16 19.15L14.85 20.15L13.75 21L1.35 10.3L1.95 9.15L12.7 18.3" />
<path style="fill:#482D19;fill-opacity:1" d="M13.95,17.45L3.3 8.5Q2.55 8.4 1.95 9.15L1.35 10.3L13.75 21L16 22.95L14.55 22.4Q14.6 23.25 15.05 24.15L10.8 20.2L0.35 11.1Q-0.1 10.05 0.7 8.85L0.95 8.55L1.05 8.4Q2.1 7.25 3.55 7.35L3.9 7.55Q4.15 7.7 4.4 7.95L11.35 13.65L15.3 16.9L18.6 19.35L17.1 19.15L17.9 20.7L16 19.15L13.95 17.45" />
<path style="fill:#9F6D50;fill-opacity:1" d="M1.95,9.15Q2.55 8.4 3.3 8.5L13.95 17.45Q13.3 17.8 12.7 18.3L1.95 9.15" />
<path style="fill:#FFFFFF;fill-opacity:1" d="M41.2,40.25L37.5 33.25L32.55 34.5L29.7 31.95L28.05 30.45L35.5 28.85L33.35 25.25L32.1 24.55L33.95 23.9Q40.25 34.2 44.4 45.25L44 44.9L39.35 40.7L41.2 40.25" />
<path style="fill:#384D5B;fill-opacity:1" d="M45.05,43.65L45.7 46.25Q45.8 47.1 45.1 47.1L40.5 46.1L33.95 44.4L29.7 43.3L25.7 42.25L22.3 41.55L20.4 41.05L19.25 40.55L19 40.4L18.65 39.85L18.15 38.3L16.95 34.05L15.1 26.45Q13.2 26.55 12.45 25.35Q11.8 24.15 11.8 23.15Q11.8 22.15 11.95 21.6L12.8 19.85Q13.6 18.7 15.25 17.7Q17 16.75 18.55 16.9Q20.2 16.95 20.75 17.5L21.7 18.65Q22.05 19.35 21.9 20.1L26 20.35Q29.35 20.8 31.1 21.4L34.2 22.35Q35.5 22.7 36.15 23.95L38.55 28.75L42.35 37.1L45.05 43.65M38.55,40.9Q36.9 39.25 35.85 38.3L32.3 35L31.9 34.7L31 33.95L27.25 30.65L26.9 30.3L26.1 29.7L24.05 27.9L24 27.9L20.7 25.2L16.75 22.35L16.4 22.75L16 23.35L15.8 24.35L15.75 24.55Q15.7 25.45 19 38.1L19.05 38.15L19.3 39.05L19.55 38L19.95 36.7Q21.1 32.9 22.15 30.65Q23.4 28.05 23.45 28.55L23.5 28.6L23.5 28.7Q22.4 30.95 21.35 34.9L20.55 37.8L20.5 37.8L20.35 38.25L20.2 39.6L29.65 42.05L43.6 45.65L43.25 45.3L42.25 44.4L38.55 40.9M28.05,30.45L29.7 31.95L32.55 34.5L33 34.85L39.35 40.7L44 44.9L44.4 45.25Q40.25 34.2 33.95 23.9L32.1 24.55L25.3 27L26 26.6Q28.15 25.35 29.9 24.6L31.2 24.1Q32.05 23.7 32.75 23.45L33.3 23.25L32.7 23.1L30.15 22.4L24.8 21.3L24.35 21.3L22.5 21.05L21.25 21Q18.3 20.85 17.25 21.75Q19.65 23.2 24.5 27.4L24.6 27.5L26.65 29.25L28.05 30.45M16.8,18.25Q15.8 18.6 14.95 19.35L13.7 20.75Q13 21.9 12.95 22.85Q12.9 23.6 13.25 24.3Q14 25.9 15.1 25.6L14.95 24.3Q15 23.1 15.7 22.1L15.7 22.05L16.8 21Q18.15 19.85 20.05 20.05L20.7 20.1L20.85 20.15L20.9 20Q20.95 18.95 19.85 18.3Q19.05 17.75 17.7 18L16.8 18.25" />
<path style="fill:#90D2C6;fill-opacity:1" d="M20.65,37.85L41.9 44.25L42.25 44.4L43.25 45.3L43.6 45.65L29.65 42.05L20.2 39.6L20.35 38.25L20.5 37.8L20.55 37.8L20.65 37.85" />
<path style="fill:#E0E6DA;fill-opacity:1" d="M20.65,37.85L20.55 37.8L21.35 34.9Q22.4 30.95 23.5 28.7L23.5 28.6L24.05 27.9L26.1 29.7L26.9 30.3L27.25 30.65L31 33.95L31.9 34.7L32.3 35L35.85 38.3Q36.9 39.25 38.55 40.9L42.25 44.4L41.9 44.25L25.15 30.95L20.65 37.85M26.65,29.25L24.6 27.5L24.5 27.4L24.65 27.35L25.3 27L32.1 24.55L33.35 25.25L35.5 28.85L28.05 30.45L26.65 29.25M32.55,34.5L37.5 33.25L41.2 40.25L39.35 40.7L33 34.85L32.55 34.5" />
<path style="fill:#EEEEEE;fill-opacity:1" d="M29.3,23L24.35 21.3L24.8 21.3L30.15 22.4L32.7 23.1L33.3 23.25L32.75 23.45Q32.05 23.7 31.2 24.1L29.3 23M19.9,19.7Q19.5 18.95 18.5 18.35L17.7 18Q19.05 17.75 19.85 18.3Q20.95 18.95 20.9 20L20.85 20.15L20.7 20.1L19.9 19.7" />
<path style="fill:#BFC9B6;fill-opacity:1" d="M24.65,27.35L24.5 27.4Q19.65 23.2 17.25 21.75Q18.3 20.85 21.25 21L22.5 21.05L24.35 21.3L29.3 23L31.2 24.1L29.9 24.6Q28.15 25.35 26 26.6L25.3 27L24.65 27.35M15.3,21.65Q13.9 20.6 14.95 19.35Q15.8 18.6 16.8 18.25L17.7 18L18.5 18.35Q19.5 18.95 19.9 19.7Q17.25 18.95 15.3 21.65M14.95,24.3L15.1 25.6Q14 25.9 13.25 24.3Q12.9 23.6 12.95 22.85Q13.2 23.7 14.25 24.05L14.95 24.3" />
<path style="fill:#8F9385;fill-opacity:1" d="M19.9,19.7L20.7 20.1L20.05 20.05Q18.15 19.85 16.8 21L15.7 22.05L15.7 22.1Q15 23.1 14.95 24.3L14.25 24.05Q13.2 23.7 12.95 22.85Q13 21.9 13.7 20.75L14.95 19.35Q13.9 20.6 15.3 21.65Q17.25 18.95 19.9 19.7" />
<path style="fill:#717463;fill-opacity:1" d="M23.5,28.6L23.45 28.55Q23.4 28.05 22.15 30.65Q21.1 32.9 19.95 36.7L19.5 35.2L20 32.65L21.15 28Q21.05 27.45 19 25.4L17.15 23.55L16.4 22.75L16.75 22.35L20.7 25.2L24 27.9L24.05 27.9L23.5 28.6" />
<path style="fill:#737F71;fill-opacity:1" d="M16,23.35L16.4 22.75L17.15 23.55L19 25.4Q21.05 27.45 21.15 28L20 32.65L19.5 35.2L16 23.35" />
<path style="fill:#65A599;fill-opacity:1" d="M19.5,35.2L19.95 36.7L19.55 38L19.3 39.05L19.05 38.15L19 38.1Q15.7 25.45 15.75 24.55L15.8 24.35L16 23.35L19.5 35.2" />
<path style="fill:#ACB0A2;fill-opacity:1" d="M25.15,30.95L41.9 44.25L20.65 37.85L25.15 30.95" />
<path style="fill:#482D19;fill-opacity:1" d="M13.1,-11.2L23.3 -1.8L25.15 -0.1Q24.5 -0.35 24 -0.65Q24 0.05 24.35 0.85L20.85 -2.65L12.2 -10.6Q11.9 -11.55 12.65 -12.55L12.75 -12.7L12.95 -12.9Q13.85 -13.85 15.05 -13.75L15.35 -13.5L15.8 -13.2L21.5 -8.15L24.75 -5.25L27.45 -3.15L26.15 -3.3L26.8 -2L25.25 -3.35L23.6 -4.9L14.8 -12.75Q14.25 -12.85 13.7 -12.2L13.1 -11.2" />
<path style="fill:#9F6D50;fill-opacity:1" d="M22.5,-4.15L13.7 -12.2Q14.25 -12.85 14.8 -12.75L23.6 -4.9L22.5 -4.15" />
<path style="fill:#6B4228;fill-opacity:1" d="M23.3,-1.8L13.1 -11.2L13.7 -12.2L22.5 -4.15L23.6 -4.9L25.25 -3.35L24.25 -2.55L23.3 -1.8" />
<path style="fill:#8F9385;fill-opacity:1" d="M29.2,-2.45L29.2 -2.4L28.65 -2.5Q27.05 -2.7 25.85 -1.8L24.95 -0.95L24.95 -0.9Q24.35 -0.05 24.25 0.95L23.65 0.75Q22.75 0.45 22.6 -0.3Q22.6 -1.2 23.35 -2.1L24.35 -3.2Q23.45 -2.2 24.6 -1.25Q26.3 -3.45 28.5 -2.75L29.2 -2.45" />
<path style="fill:#BFC9B6;fill-opacity:1" d="M26,-4.1L26.75 -4.3L27.4 -3.95Q28.25 -3.4 28.5 -2.75Q26.3 -3.45 24.6 -1.25Q23.45 -2.2 24.35 -3.2Q25.1 -3.8 26 -4.1M24.35,2.05Q23.35 2.35 22.8 0.95Q22.55 0.3 22.6 -0.3Q22.75 0.45 23.65 0.75L24.25 0.95L24.35 2.05M36.4,0.3L38 1.25L36.9 1.65Q35.35 2.15 33.5 3.2L32.9 3.55L32.3 3.8L32.25 3.9Q28.2 0.2 26.25 -1.1Q27.15 -1.9 29.65 -1.65L30.75 -1.55L32.3 -1.3L36.4 0.3" />
<path style="fill:#384D5B;fill-opacity:1" d="M24.25,0.95Q24.35 -0.05 24.95 -0.9L24.95 -0.95L25.85 -1.8Q27.05 -2.7 28.65 -2.5L29.2 -2.4L29.35 -2.35L29.35 -2.5Q29.45 -3.4 28.5 -3.95Q27.85 -4.45 26.75 -4.3L26 -4.1Q25.1 -3.8 24.35 -3.2L23.35 -2.1Q22.6 -1.2 22.6 -0.3Q22.55 0.3 22.8 0.95Q23.35 2.35 24.35 2.05L24.25 0.95M24.65,-4.6Q26.15 -5.35 27.5 -5.2Q28.9 -5.1 29.3 -4.65L30.05 -3.6Q30.4 -3 30.25 -2.45L33.75 -2.1L37.95 -1L40.5 -0.15Q41.65 0.25 42.15 1.35L44.05 5.35L47.05 12.55L49.1 18.2L49.6 20.4Q49.7 21.1 49.05 21.05L45.2 20.1L39.7 18.5L36.15 17.4L32.8 16.5L29.95 15.8L28.35 15.25L27.45 14.8L27.4 14.85L27.2 14.7L26.9 14.25L26.6 12.9L25.7 9.25L24.3 2.85Q22.7 2.8 22.15 1.85Q21.55 0.75 21.6 -0.1L21.8 -1.45L22.55 -2.85Q23.25 -3.85 24.65 -4.6M25.2,0.2Q24.95 0.5 24.95 1L24.9 1.25Q24.85 1.95 27.3 12.75L27.3 12.8L27.5 13.55Q27.55 13.15 27.75 12.7L28.1 11.6Q29.2 8.4 30.1 6.5Q31.25 4.3 31.35 4.8L31.35 4.9Q30.35 6.8 29.3 10.15L28.6 12.55L28.55 12.55L28.4 12.95L28.2 14.05L36.15 16.4L47.85 19.8L47.5 19.55L46.7 18.7L43.7 15.6L41.5 13.4L38.65 10.5L38.3 10.25L37.55 9.55L34.45 6.7L34.15 6.4L33.55 5.85L31.85 4.3L31.8 4.25L29.1 1.9Q26.55 -0.2 25.8 -0.6L25.5 -0.3L25.2 0.2M32.9,3.55L33.5 3.2Q35.35 2.15 36.9 1.65L38 1.25L39.3 0.75L39.8 0.6L39.25 0.45L37.2 -0.2L32.6 -1.3L32.3 -1.3L30.75 -1.55L29.65 -1.65Q27.15 -1.9 26.25 -1.1Q28.2 0.2 32.25 3.9L32.3 3.9L33.95 5.45L35.15 6.5L36.55 7.8L38.85 10.1L39.2 10.4L44.4 15.45L48.25 19.2L48.55 19.55Q45.4 10 40.3 1.2L38.75 1.7L32.9 3.55" />
<path style="fill:#EEEEEE;fill-opacity:1" d="M28.5,-3.95Q29.45 -3.4 29.35 -2.5L29.35 -2.35L29.2 -2.4L29.2 -2.45L28.5 -2.75Q28.25 -3.4 27.4 -3.95L26.75 -4.3Q27.85 -4.45 28.5 -3.95M38,1.25L36.4 0.3L32.3 -1.3L32.6 -1.3L37.2 -0.2L39.25 0.45L39.8 0.6L39.3 0.75L38 1.25" />
<path style="fill:#717463;fill-opacity:1" d="M31.35,4.8Q31.25 4.3 30.1 6.5Q29.2 8.4 28.1 11.6L27.75 10.3L28.25 8.1L29.4 4.25Q29.3 3.85 27.6 2L26.1 0.35L25.5 -0.3L25.8 -0.6Q26.55 -0.2 29.1 1.9L31.8 4.25L31.85 4.3L31.35 4.8" />
<path style="fill:#E0E6DA;fill-opacity:1" d="M32.65,6.8L28.7 12.6L28.6 12.55L29.3 10.15Q30.35 6.8 31.35 4.9L31.35 4.8L31.85 4.3L33.55 5.85L34.15 6.4L34.45 6.7L37.55 9.55L38.3 10.25L38.65 10.5L41.5 13.4L43.7 15.6L46.7 18.7L46.45 18.55L32.65 6.8M38.75,1.7L39.75 2.3L41.5 5.35L35.15 6.5L33.95 5.45L32.3 3.9L32.25 3.9L32.3 3.8L32.9 3.55L38.75 1.7M38.85,10.1L43.05 9.15L45.95 15.2L44.4 15.45L39.2 10.4L38.85 10.1" />
<path style="fill:#FFFFFF;fill-opacity:1" d="M45.95,15.2L43.05 9.15L38.85 10.1L36.55 7.8L35.15 6.5L41.5 5.35L39.75 2.3L38.75 1.7L40.3 1.2Q45.4 10 48.55 19.55L48.25 19.2L44.4 15.45L45.95 15.2" />
<path style="fill:#90D2C6;fill-opacity:1" d="M28.7,12.6L46.45 18.55L46.7 18.7L47.5 19.55L47.85 19.8L36.15 16.4L28.2 14.05L28.4 12.95L28.55 12.55L28.6 12.55L28.7 12.6" />
<path style="fill:#737F71;fill-opacity:1" d="M25.5,-0.3L26.1 0.35L27.6 2Q29.3 3.85 29.4 4.25L28.25 8.1L27.75 10.3L25.2 0.2L25.5 -0.3" />
<path style="fill:#65A599;fill-opacity:1" d="M27.75,10.3L28.1 11.6L27.75 12.7Q27.55 13.15 27.5 13.55L27.3 12.8L27.3 12.75Q24.85 1.95 24.9 1.25L24.95 1Q24.95 0.5 25.2 0.2L27.75 10.3" />
<path style="fill:#ACB0A2;fill-opacity:1" d="M46.45,18.55L28.7 12.6L32.65 6.8L46.45 18.55" />
<path style="fill:#0E3C01;fill-opacity:1" d="M11.7,11.45L12.2 13.15Q12.35 14.05 12.05 14.4L11.25 13.7Q9.65 12.45 9.25 12.9L8.8 13.4Q8.55 13.75 8.45 14.4L8.3 14.95L8.35 15.35Q8.35 16.65 8.7 17.6Q9.1 19.05 10.5 19.95L12.95 21.1L12.9 21.25L12.55 21.8L11.85 22.3L11.55 22.5L10.05 22.65L8.95 22.2L8.2 21.75L8.2 21.65L6.85 20.55Q5.35 19.05 4.95 17Q3.8 17.55 2.55 17.35L1.85 17.15Q0.15 16.5 -0.6 15.6L-0.2 15L0 14.8L1.7 13.85L2.6 13.75Q4 13.8 4.75 14.6L4.85 13.7L5.05 12.7L5.1 12.7L5.1 12.5L5.55 11.45Q5.95 10.6 6.8 9.95Q7.6 9.3 9.1 9.6Q10.2 9.85 10.75 10.3L11.7 11.45M8.9,21.05Q9.9 21.6 10.55 21.6L11.65 21.3L11.35 21.3L10.9 21.1L9.35 20.1Q7.95 18.9 7.55 17.15Q7.2 16.1 7.35 14.9L7.3 14.8L7.4 14.25L7.6 13.4Q7.7 13.05 8.35 12.55Q8.95 12 10.05 12.3L11.25 13.05Q10.8 11.15 9.2 10.6L9.15 10.6L7.2 10.7Q6.6 11.1 6.25 12.05L6.05 12.65L5.75 14.8Q5.65 16.45 6.25 17.9L7.55 19.9L8 20.25L8.9 21.05M0.55,15.35L0.55 15.5Q1.2 16 2.2 16.3L2.35 16.4L3.65 16.4L4.75 16.05L4.75 15.5Q3.95 14.65 2.75 14.6L1.9 14.65L1.5 14.85Q1 15 0.55 15.35" />
<path style="fill:#3F8523;fill-opacity:1" d="M8.35,11.15Q7.35 12.15 7 14.1L6.9 14.4Q6.45 17.4 7.5 19.55L8 20.25L7.55 19.9L6.25 17.9Q5.65 16.45 5.75 14.8L6.05 12.65L6.25 12.05Q6.6 11.1 7.2 10.7L9.15 10.6L9.2 10.6Q8.8 10.75 8.35 11.15M3.75,15.5L2.4 15.2L1.95 15L1.5 14.85L1.9 14.65L2.75 14.6Q3.95 14.65 4.75 15.5L4.75 16.05L3.65 16.4L3.75 15.5" />
<path style="fill:#74C93C;fill-opacity:1" d="M9.2,10.6Q10.8 11.15 11.25 13.05L10.05 12.3Q8.95 12 8.35 12.55Q7.7 13.05 7.6 13.4L7.4 14.25L7.3 14.8L7.35 14.9Q7.2 16.1 7.55 17.15Q7.95 18.9 9.35 20.1L10.9 21.1L11.35 21.3L11.65 21.3L10.55 21.6Q9.9 21.6 8.9 21.05L8 20.25L7.5 19.55Q6.45 17.4 6.9 14.4L7 14.1Q7.35 12.15 8.35 11.15Q8.8 10.75 9.2 10.6M3.65,16.4L2.35 16.4L2.2 16.3Q1.2 16 0.55 15.5L0.55 15.35Q1 15 1.5 14.85L1.95 15L2.4 15.2L3.75 15.5L3.65 16.4" />
<path style="fill:#3F8523;fill-opacity:1" d="M19.1,-9.7Q18.25 -8.85 17.9 -7.2L17.8 -6.95Q17.3 -4.45 18.15 -2.6L18.55 -1.95L18.2 -2.3Q17.75 -2.8 17.15 -4.05Q16.65 -5.3 16.8 -6.65Q16.9 -7.75 17.15 -8.45L17.25 -8.95Q17.65 -9.7 18.15 -10.05L19.8 -10.1L19.85 -10.1L19.1 -9.7M13.25,-6.75L13.55 -6.85L14.2 -6.9Q15.3 -6.85 15.95 -6.1L15.9 -5.6L14.95 -5.4L15.1 -6.1L14 -6.45L13.6 -6.6L13.25 -6.75" />
<path style="fill:#74C93C;fill-opacity:1" d="M19.85,-10.1Q21.15 -9.6 21.5 -8L20.5 -8.65L19.05 -8.5Q18.5 -8.1 18.45 -7.8L18.2 -7.05L18.15 -6.6L18.15 -6.55Q18 -5.5 18.25 -4.6Q18.6 -3.15 19.7 -2.05L20.95 -1.2Q21.2 -1.05 21.35 -1L21.6 -0.95L20.65 -0.75Q20.1 -0.75 19.35 -1.3L18.55 -1.95L18.15 -2.6Q17.3 -4.45 17.8 -6.95L17.9 -7.2Q18.25 -8.85 19.1 -9.7L19.85 -10.1M13.6,-6.6L14 -6.45L15.1 -6.1L14.95 -5.4Q14.35 -5.25 13.9 -5.4L13.75 -5.45L12.4 -6.25L12.4 -6.35L13.25 -6.75L13.6 -6.6" />
<path style="fill:#0E3C01;fill-opacity:1" d="M19.8,-10.95L21.15 -10.3L21.95 -9.35L22.35 -7.85Q22.4 -7.1 22.1 -6.75L21.5 -7.4Q20.15 -8.5 19.8 -8.15L19.4 -7.75L19.1 -6.9L19 -6.5L19 -6.15Q18.9 -5.05 19.2 -4.25Q19.55 -2.95 20.7 -2.2L22.7 -1.1L22.65 -1L22.3 -0.55L21.75 -0.15L21.45 0L20.2 0.1Q19.8 0 19.3 -0.3L18.7 -0.7L18.7 -0.75L17.55 -1.75Q16.35 -3.05 16.1 -4.8L14 -4.6Q13.75 -4.6 13.45 -4.8Q12.05 -5.35 11.4 -6.15L11.75 -6.6L11.95 -6.85Q12.6 -7.35 13.45 -7.55L14.15 -7.6Q15.35 -7.55 16 -6.9L16.1 -7.6L16.25 -8.45L16.3 -8.45L16.35 -8.6L16.75 -9.5Q17.05 -10.2 17.85 -10.7L19.8 -10.95M19.35,-1.3Q20.1 -0.75 20.65 -0.75L21.6 -0.95L21.35 -1Q21.2 -1.05 20.95 -1.2L19.7 -2.05Q18.6 -3.15 18.25 -4.6Q18 -5.5 18.15 -6.55L18.15 -6.6L18.2 -7.05L18.45 -7.8Q18.5 -8.1 19.05 -8.5L20.5 -8.65L21.5 -8Q21.15 -9.6 19.85 -10.1L19.8 -10.1L18.15 -10.05Q17.65 -9.7 17.25 -8.95L17.15 -8.45Q16.9 -7.75 16.8 -6.65Q16.65 -5.3 17.15 -4.05Q17.75 -2.8 18.2 -2.3L18.55 -1.95L19.35 -1.3M15.9,-5.6L15.95 -6.1Q15.3 -6.85 14.2 -6.9L13.55 -6.85L13.25 -6.75L12.4 -6.35L12.4 -6.25L13.75 -5.45L13.9 -5.4Q14.35 -5.25 14.95 -5.4L15.9 -5.6" />
</g>
</svg>
