<?xml version="1.0" encoding="utf-8"?>
<svg version="1.1" id="Layer_1"
xmlns="http://www.w3.org/2000/svg"
xmlns:xlink="http://www.w3.org/1999/xlink"
xmlns:author="http://www.sothink.com"
width="16px" height="17px"
xml:space="preserve">
<g id="1109" transform="matrix(1, 0, 0, 1, -35, 5.75)">
<path style="fill:#FFFFFF;fill-opacity:1" d="M36.05,-2.55L36.15 -2.65L36.2 -2.65L36.05 -2.55M40.1,-2.7L44.05 -5.4Q45.05 -6.35 47.1 -4.8L48.8 -3.45L50.15 -1.9L50.2 -1.95L50.25 -1.9L50.3 -1.75L50.4 -1.5L50.45 -1.15Q50.6 0.85 48.8 3.4Q48 3.95 45.05 1.95L44.6 1.8L44.05 1.55Q43.65 1.8 42.9 1.2L42.8 1.15L42.5 0.7L41.3 -2.1L39.45 -0.4L38.45 0.85L38.2 1.5Q39 2.7 40.25 3.7Q41 4.25 40.2 4.4L39.4 4.35L39.45 4.4L39.3 4.45L39.05 4.25Q37.75 3.95 36.75 2.55L36.75 2.45L36.8 2.3L36.65 2.3L36.6 2.25L36.7 1.95Q34.45 0.25 35.2 -2.2L40.1 -2.7M39.4,-2.05L35.8 -1.85Q35.6 -0.05 36.8 1.7Q37.35 -0.15 38.8 -1.4L38.8 -1.45L39.4 -2.05M42.05,-2.55L43.5 0.55Q46 1.1 47.8 2.65L49.1 -0.8Q49.7 -0.95 47.75 -2.9Q45.8 -4.95 44.25 -4.05L42.05 -2.55M50.5,-1.3L50.65 -1.15L50.45 -1.15L50.5 -1.3M42.4,10.65Q42.9 9.1 46 9.55L49.5 9.85Q50 9.7 49.8 8.65Q49.6 7.6 49.7 5.95L50.05 6.55Q51.7 9.15 49.5 11.25L49.5 11.05L42.75 10.8L42.4 10.65" />
</g>
</svg>
