<?xml version="1.0" encoding="utf-8"?>
<svg version="1.1" id="Layer_1"
xmlns="http://www.w3.org/2000/svg"
xmlns:xlink="http://www.w3.org/1999/xlink"
xmlns:author="http://www.sothink.com"
width="35px" height="11px"
xml:space="preserve">
<g id="2713" transform="matrix(1, 0, 0, 1, -26.85, -5.7)">
<path style="fill:#FFFFFF;fill-opacity:1" d="M52.75,6.6Q49.8 7.3 46.95 10.9Q44.05 14.5 40.25 16.15Q41.6 14.65 43.4 13.4Q45.2 12.15 46.4 10.55Q47.6 9 49.5 7.35Q51.4 5.7 52.2 5.7L53.2 5.8L53.35 5.85Q58.05 7.9 61.5 11.35Q61.15 11.7 59.5 10.45Q57.75 9.05 55.4 7.85L52.75 6.6M26.85,13.25Q29.75 15.05 32.45 14.7Q33.85 14.1 34.65 14.35L36.9 15.15L39.15 15.95Q39.95 16.25 39.95 16.45L38.5 16.3L34.55 14.95Q30.3 16.4 26.85 13.25" />
</g>
</svg>
