<?xml version="1.0" encoding="utf-8"?>
<svg version="1.1" id="Layer_1"
xmlns="http://www.w3.org/2000/svg"
xmlns:xlink="http://www.w3.org/1999/xlink"
xmlns:author="http://www.sothink.com"
width="37px" height="87px"
xml:space="preserve">
<g id="2755" transform="matrix(1, 0, 0, 1, 13.9, 15.05)">
<path style="fill:#FFFFFF;fill-opacity:1" d="M14.55,-14.75L14.3 -13.2L14.5 -13.2L14.65 -14L14.95 -13.65Q15.1 -13.35 14.65 -10.95L13.6 -5.7L13.7 -9.2L13.45 -13.4L12.75 -12.85L13.15 -14.5L13.5 -14.2L14.45 -15.05L14.55 -14.75M15.5,-0.65L15.3 0.65Q14.95 1.55 14.75 2.75L14.65 0.6L14.5 -1.05L14.75 -1.6L14.85 -1.5L15.5 -0.65M23.05,5.05L22.4 6.15L21.45 7.65L21.4 7.9L21.85 2.8L22.35 1.85L22.4 1.55L22.95 3.65L23.05 5.05M3.45,5.65L4.55 6.75Q3.45 8.2 3.35 9.1L3.45 5.65M1,68.05L1 68.2L1.25 69.25L1.55 70.2L1.95 71.05L0.95 69.65L0.95 68.45L0.9 69.6L0.65 69.25L0.65 69.2L-0.6 67.2L-1.4 66.9L-1.55 66.85L-1.55 66.45L-1.4 65.35L0.95 67.4L1 67.35L1 68.05M-8.2,11.7L-7.25 12.25L-8.6 14.05L-8.5 12.4L-8.4 12L-8.2 11.7M-13.9,8.75L-12.15 4.8L-11.45 3.65L-11.3 3.7L-11.65 4.65Q-11.7 5.45 -11.35 5.6L-12.75 7.25L-13.9 8.75M-10.6,10.4L-13.15 15.15L-13.2 15.05L-12.75 13.55L-12.3 11.55Q-12.15 11.25 -10.6 10.4M-11.05,18.55L-12 20.1L-12 18.75L-12 18.2L-11.9 18.25L-11.05 18.55M-13,15.45L-13.25 16.1L-13.05 15.45L-13 15.45M-5.05,20.85L-4.1 20.75L-4.55 22.65L-4.95 22.95Q-5.5 23.15 -5.7 23.8L-5.35 22.25L-5.05 20.85M-7.6,32.8L-10.75 35.55Q-6.85 30.55 -6.2 29L-7.6 32.8M-4.55,29.75L-5.2 29.5L-3.9 25.65L-3.55 25.8L-4.55 29.75M-1.8,42.1L-2.45 43.35L-2.65 43.6L-2.25 39.1L-1.8 42.1M-5.85,47.6L-6.65 48.8Q-7.35 49.95 -7.5 50.9L-6.95 47.3L-6.9 46.95Q-6.7 45.95 -6.3 45.4L-6.05 46.75L-5.85 47.6M-3.85,61.3L-3.4 62.9L-4.6 62.2L-5.45 62.1L-5.5 61.75L-4.7 61.6L-3.85 61.3" />
</g>
</svg>
