<?xml version="1.0" encoding="utf-8"?>
<svg version="1.1" id="Layer_1"
xmlns="http://www.w3.org/2000/svg"
xmlns:xlink="http://www.w3.org/1999/xlink"
xmlns:author="http://www.sothink.com"
width="76px" height="48px"
xml:space="preserve">
<g id="716" transform="matrix(1, 0, 0, 1, 0, 0)">
<path style="fill:#E6BE45;fill-opacity:1" d="M70.65,32.85L70.45 32.95L70.4 33L62.1 34.6L52.45 34.2L54.45 30.45L25.45 34.2L27.45 28.95L21.2 29.95L26.7 20.95L9.45 25.6L14.55 45.25L10.35 46.25L10.25 45.45L9.9 42.95L9.75 41.9L7.45 26.2L6.25 18L7.45 17.5L11.9 15.75L51.7 9.2L51.2 11.45L59.45 9.95L58.95 11.95L62.95 10.2L70.15 29.1L70.65 32.85" />
<path style="fill:#FAE49E;fill-opacity:1" d="M23.2,11.95Q45.55 5.35 67.45 6Q68.75 18.9 70.15 29.1L62.95 10.2L58.95 11.95L59.45 9.95L51.2 11.45L51.7 9.2L11.9 15.75Q17.55 13.6 23.2 11.95" />
<path style="fill:#DE9A2D;fill-opacity:1" d="M40.7,39.25L36.6 40.15L14.55 45.25L9.45 25.6L26.7 20.95L21.2 29.95L27.45 28.95L25.45 34.2L54.45 30.45L52.45 34.2L62.1 34.6L40.7 39.25" />
<path style="fill:#B65E19;fill-opacity:1" d="M70.45,32.95L70.65 32.85L70.15 29.1Q68.75 18.9 67.45 6Q45.55 5.35 23.2 11.95Q17.55 13.6 11.9 15.75L7.45 17.5L6.25 18L7.45 26.2L9.75 41.9L9.9 42.95L10.25 45.45L10.35 46.25Q10.1 46.45 10.7 46.25L6.75 47.7L5.5 42.95Q2.4 30.5 0 16.2L7.45 13.05L10.1 11.95Q29.1 4.3 42.35 1.8Q58.9 -1.35 72.6 1.05Q75.05 23.85 75.6 32.15L75.45 32.1L71.55 32.8L70.45 32.95" />
<path style="fill:#69421E;fill-opacity:1" d="M62.15,16.6L63.55 16.7L64.85 17.1Q65.7 17.55 66.15 18.45Q66.6 19.3 66.4 20.65L66.35 20.65L65 20.8L63.65 20.65Q63.75 20.15 63.45 19.85Q63.15 19.5 62.7 19.45L61.9 19.5Q61.5 19.7 61.4 20.2L61.4 20.45L61.4 20.7L61.9 21.25L62.6 21.45Q63.55 21.6 64.35 22.05L65.7 23.35L66.25 24.55L66.35 25.9L66 27.2L65.15 28.45L63.95 29.1L62.5 29.3L60.95 29Q60.15 28.75 59.55 28.3L58.55 27.15Q58.2 26.45 58.25 25.6L58.25 25.5L59.65 25.45L61 25.45Q61.05 26.05 61.45 26.35L62.35 26.6L63.2 26.3Q63.55 26 63.45 25.35Q63.35 24.8 62.95 24.5L61.95 24.1L60.85 23.85L60.2 23.6L59.65 23.25Q58.85 22.45 58.6 21.5Q58.35 20.55 58.55 19.65Q58.75 18.7 59.35 18Q59.95 17.25 60.85 16.9L62.15 16.6M47.25,18.35L47.55 19.65L47.7 20.9L47.75 20.9L46.25 21.35L44.7 21.65L43.15 22L43.05 22L43.05 22.05L43.2 23.1L43.45 24.1L43.5 24.1L44.6 23.95L45.7 23.75L45.7 23.8L46 24.95L46.2 26.2L45.4 26.5L44.6 26.65Q44.25 26.7 44.1 26.85L44.25 28L44.5 29.05L44.55 29.05L46.85 28.65L49.2 28.25L49.2 28.3L49.45 29.45L49.55 30.6L45.85 31.35L42.3 31.95L41 25.95L39.95 19.9L41.75 19.45L43.7 19.05L45.45 18.65L46.75 18.4L47.25 18.35M49,18.45L50.85 17.85L52.95 17.6L54.95 17.95Q55.85 18.2 56.55 18.9Q57.2 19.6 57.5 20.8L57.5 20.85L57.55 21.1L57.55 21.3Q57.55 22.5 57 23.45Q56.4 24.45 55.4 25Q54.45 25.65 53.25 25.6L53.4 26.1L53.5 26.8L53.7 28.05L54.05 30.1L54 30.1L54 30.15L53.15 30.4L52.05 30.6L51.05 30.7L50.35 26.85L49.7 22.6L49 18.45M54.75,21Q54.6 20.7 54.25 20.55L53.15 20.25L52 20.5L51.95 20.55L52.2 21.9Q52.25 22.65 52.55 23.2L52.6 23.15L53.4 23L54.25 22.75L54.85 22.3L54.95 21.65L54.75 21M40.9,32.6L37.3 33.6L33.75 34.4L32.1 28.5L30.65 22.5L32.4 22L34.3 21.45L36.05 20.9L37.3 20.6L37.8 20.5L38.2 21.75L38.45 23L37 23.55L35.45 23.95L33.95 24.4L33.9 24.45L34.1 25.5L34.4 26.5L34.45 26.45L35.55 26.25L36.65 26L37 27.2L37.3 28.4L36.5 28.7L35.7 28.9Q35.35 29 35.25 29.15L35.5 30.3L35.8 31.35L35.85 31.35L38.1 30.8L40.45 30.25L40.75 31.45L40.9 32.6M26.2,23.55L28.2 23.7Q29.15 24 29.8 24.75Q30.45 25.4 30.75 26.35Q31 27.3 30.65 28.4L30.05 29.65Q29.6 30.2 28.8 30.45L28.7 30.45L30.2 31.95L31.75 33.35L33.1 35L33.15 35L31.75 35.4L30.25 35.75L30.2 35.75L29.25 34.55L28 33.15L26.7 31.95L26.65 31.9L26.85 32.95L27.2 34.1L27.55 35.25L27.8 36.15L27.05 36.5L26.1 36.75L25.25 37L24.8 37.1L24.7 36.5L24.3 34.85L23.75 32.65L23.15 30.2L22.5 27.8L22 25.95L21.65 24.9L23.8 24.1L26.2 23.55M17.7,30.05L16.65 29.95L16.25 30.2L15.9 30.55L15.9 30.65L15.9 30.8L16 31.4L16.4 32.7L16.85 34.25L17.4 35.7L18 36.55Q18.35 36.95 18.9 36.95L19.55 36.6L19.9 35.95L19.85 35.35L19.75 34.8L19.6 34.15L20.35 33.95L21.15 33.65L21.95 33.5L22.65 35.25L22.6 37L21.75 38.55L20.2 39.6L18.95 40L17.6 40.05L16.4 39.65L15.55 38.6L14.95 36.85L14.2 34.65L13.2 31.5L13.05 30.9L13 30.3Q13 29.8 13.15 29.35L13.45 28.55L13.8 28.15L14.2 27.85Q15.25 27.05 16.45 27Q17.65 26.85 18.75 27.4Q19.8 27.9 20.45 28.85Q21.15 29.75 21.15 31.1L19.9 31.6L18.6 31.85L18.25 30.9L17.7 30.05M27.6,26.85L27 26.25L26 26.15Q25.4 26.3 24.8 26.75L25.05 27.45L25.2 28.2L25.45 28.85L25.5 28.85L26.35 28.7L27.25 28.45Q27.65 28.2 27.7 27.75L27.6 26.85" />
</g>
</svg>
