<?xml version="1.0" encoding="utf-8"?>
<svg version="1.1" id="Layer_1"
xmlns="http://www.w3.org/2000/svg"
xmlns:xlink="http://www.w3.org/1999/xlink"
xmlns:author="http://www.sothink.com"
width="48px" height="37px"
xml:space="preserve">
<g id="537" transform="matrix(1, 0, 0, 1, -0.5, -0.15)">
<path style="fill:#3C2A22;fill-opacity:1" d="M37.45,25.15L37.05 24.6L37.3 24.6L38.5 24.65L39.3 24.9L39.3 24.4L39.2 23.75L38.45 23.75L36.5 24.15L35.95 23.75L37.5 23.3L39.1 23.1Q38.8 20.8 38.05 19.7L37.3 18.55L37.25 18.5L37.2 18.5L37.4 18.15L37.45 18L36.9 17.6Q36.85 17.55 36.75 17.7L35.9 18.65Q34.85 19.8 34.35 21.9Q34 23.25 34.2 24.7L34.35 25.55L34.5 26.2L34.65 26.6L35.25 28.2L35.65 28.85L35.7 28.9L35.6 29L35.4 29.4L34.55 30.9Q34.1 31.45 33.9 31.35L32.45 30.85L32 30.75L31.4 30.65L31.2 29.95L31.15 29.85L31.65 29.9L32.5 30.05Q33 30.2 33.45 30.5L33.8 30.75L34.35 29.6L34.75 28.85L34.55 28.4L33.85 26.5L33.7 25.95L33.55 25.4L33.5 25.3L33.4 24.65L33.35 24.05Q33.3 22.55 33.75 21Q34.35 19.15 36.75 16.4L36.8 16.4L37.8 17.25L38.25 17.85L39.2 19.85L39.45 20.75L40.05 24.55L40.15 25.35L40.2 25.8L40.25 27.05L40.3 28.8L40.3 29.2Q41.95 25.15 42.4 19.65L41.05 17.05L40.7 16.5L40.15 15.75L39.75 15.15L39.3 14.6L37.5 12.4L37.1 12.8L34.8 15.45L34 16.55L33.6 17.15L33.1 17.95L32.85 18.4L32.65 18.8L31.25 21.45L31.15 21.6L31.1 21.7L30.95 21.85L31.35 22.65L31.95 23.9L32.2 24.5L32.25 24.6L32.55 25.3Q33.25 27.2 33.15 28.6L33.15 28.65L32.65 28.7L31.6 28.75L30.25 28.9L29.9 28.8L28.45 28.8L28.4 28.75L28.65 28.65L29.45 28.4L30.4 28.1L32.45 27.85L32 25.7L31.7 24.85L31.4 24.15L31.2 23.7L31.1 23.6L30.55 22.75L30.1 22.1L30.05 22.05L30 22.05L30.15 21.75L30.2 21.6L30.4 21.1L30.6 20.7L30.8 20.35L31.45 19.15L31.7 18.75L32.1 17.95L32.6 17.15L32.95 16.55L33 16.5L33.85 15.25L34.4 14.5L36.35 12.2L37.3 11.2L38.75 12.8L39.75 13.9Q40.8 12.3 42.2 10.75L42.95 10L44.1 11.25L46.25 14Q47.4 15.75 47.55 16.45L47.05 20.45Q46.55 22.85 45.55 25.05L44.75 26.5L44.75 26.45L44.65 23.75L44.6 22.05Q44.4 18.35 43.75 16.75Q43.15 15.15 42.6 15L42.5 15.1L41.8 15.85L41.5 16.25L41.55 16.3Q43 18.55 43.2 19.4Q43.2 21.4 42.55 24.5Q41.9 27.6 40.6 30.35L39.6 32.25L39.6 32.15L39.5 28.75L39.4 26.55L39.35 25.55L39.15 25.45L37.5 25.2L37.45 25.15M40.2,14.45L40.65 15L41.2 15.75Q41.7 14.95 42.5 14.05L42.55 14.1Q44.05 15.05 44.6 17.5L45.25 22.45L45.3 23.8L45.3 24.15Q46.55 20.95 46.95 16.65Q46.55 15.55 45.6 14.2L43.1 10.95L42.8 11.25Q41.25 12.85 40.2 14.45" />
<path style="fill:#FFFFFF;fill-opacity:1" d="M40.75,25.5L40.8 25.4L41.4 23.45Q41.85 21.35 41.8 19.75L40.8 17.7L40.6 17.3L40.45 17L39.95 16.15L39.55 15.5L39.1 14.9L37.1 12.8L37.5 12.4L39.3 14.6L39.75 15.15L40.15 15.75L40.7 16.5L41.05 17.05L42.4 19.65Q41.95 25.15 40.3 29.2L40.3 28.8L40.35 28.35L40.75 25.5M45.35,23.45L45.65 21.25Q46.55 18.6 46.5 16.7L45.55 14.8Q44.4 12.65 42.8 11.25L43.1 10.95L45.6 14.2Q46.55 15.55 46.95 16.65Q46.55 20.95 45.3 24.15L45.3 23.8L45.35 23.45" />
<linearGradient
id="LinearGradID_697" gradientUnits="userSpaceOnUse" gradientTransform="matrix(-0.0018158, 0.00526428, -0.00476074, -0.00164795, 41.75, 20)" spreadMethod ="pad" x1="-819.2" y1="0" x2="819.2" y2="0" >
<stop  offset="0" style="stop-color:#E9DBD0;stop-opacity:1" />
<stop  offset="1" style="stop-color:#CDBCAF;stop-opacity:1" />
</linearGradient>
<path style="fill:url(#LinearGradID_697) " d="M36.7,24.25L36.6 24.2L36.5 24.15L38.45 23.75L39.2 23.75L39.3 24.4L38.35 24.2L36.7 24.25M45.6,16.45Q44.2 13.75 42.85 12.4L42.85 12.45Q42.7 12.35 41.1 14.35L40.65 15L40.2 14.45Q41.25 12.85 42.8 11.25Q44.4 12.65 45.55 14.8L46.5 16.7Q46.55 18.6 45.65 21.25Q46 18.1 45.6 16.45" />
<linearGradient
id="LinearGradID_698" gradientUnits="userSpaceOnUse" gradientTransform="matrix(0.000473022, 0.0035553, -0.00166321, 0.000228882, 44.3, 16.65)" spreadMethod ="pad" x1="-819.2" y1="0" x2="819.2" y2="0" >
<stop  offset="0.00392157" style="stop-color:#917162;stop-opacity:1" />
<stop  offset="1" style="stop-color:#C2AEA0;stop-opacity:1" />
</linearGradient>
<path style="fill:url(#LinearGradID_698) " d="M45.65,21.25L45.35 23.45L45.3 23.8L45.25 22.45L44.6 17.5Q44.05 15.05 42.55 14.1Q42.6 12.9 42.85 12.45L42.85 12.4Q44.2 13.75 45.6 16.45Q46 18.1 45.65 21.25" />
<linearGradient
id="LinearGradID_699" gradientUnits="userSpaceOnUse" gradientTransform="matrix(-0.00134277, 0.00234985, -0.00233459, -0.00132751, 42.1, 16.7)" spreadMethod ="pad" x1="-819.2" y1="0" x2="819.2" y2="0" >
<stop  offset="0.00392157" style="stop-color:#917162;stop-opacity:1" />
<stop  offset="1" style="stop-color:#C2AEA0;stop-opacity:1" />
</linearGradient>
<path style="fill:url(#LinearGradID_699) " d="M42.55,14.1L42.5 14.05Q41.7 14.95 41.2 15.75L40.65 15L41.1 14.35Q42.7 12.35 42.85 12.45Q42.6 12.9 42.55 14.1" />
<linearGradient
id="LinearGradID_700" gradientUnits="userSpaceOnUse" gradientTransform="matrix(-0.00230408, 0.00669861, -0.00605774, -0.00209045, 35.8, 23.9)" spreadMethod ="pad" x1="-819.2" y1="0" x2="819.2" y2="0" >
<stop  offset="0" style="stop-color:#E9DBD0;stop-opacity:1" />
<stop  offset="1" style="stop-color:#CDBCAF;stop-opacity:1" />
</linearGradient>
<path style="fill:url(#LinearGradID_700) " d="M30.25,28.9L31.6 28.75L32.65 28.7L33.15 28.65L33.15 28.6Q33.25 27.2 32.55 25.3L32.25 24.6L32.2 24.5L31.95 23.9L31.35 22.65L30.95 21.85L31.1 21.7L31.15 21.6L31.25 21.45L32.65 18.8L32.85 18.4L33.1 17.95L33.6 17.15L34 16.55L34.8 15.45L37.1 12.8L39.1 14.9L39.55 15.5L39.95 16.15L40.45 17L40.6 17.3L40.8 17.7L41.8 19.75Q41.85 21.35 41.4 23.45L40.8 25.4L40.75 25.5L40.75 25.45L40.9 23.85L40.95 22.4Q41 20.6 40.7 19.4L40.5 19L40.05 18.15L39.45 17.2L39 16.5L38.55 15.85L37.2 14.3Q37 14.2 34.95 16.75Q34.25 17.65 33.7 18.6Q32.75 20.25 32.4 21.95Q32.2 22.3 32.55 23.75L32.65 24.25L32.75 24.6L32.95 25.25L33.4 26.5L33.5 26.7Q34 27.9 34.55 28.4L34.75 28.85L34.35 29.6L33.6 29.75L33.4 29.7L31.45 29.3L30.7 29.3L30.25 28.9" />
<linearGradient
id="LinearGradID_701" gradientUnits="userSpaceOnUse" gradientTransform="matrix(0.00062561, 0.00453186, -0.00210571, 0.000289917, 39.05, 19.7)" spreadMethod ="pad" x1="-819.2" y1="0" x2="819.2" y2="0" >
<stop  offset="0.00392157" style="stop-color:#917162;stop-opacity:1" />
<stop  offset="1" style="stop-color:#C2AEA0;stop-opacity:1" />
</linearGradient>
<path style="fill:url(#LinearGradID_701) " d="M40.35,28.35L40.3 28.8L40.25 27.05L40.2 25.8L40.15 25.35L40.05 24.55L39.45 20.75L39.2 19.85L38.25 17.85L37.8 17.25L36.8 16.4Q36.9 14.85 37.2 14.3L38.55 15.85L39 16.5L39.45 17.2L40.05 18.15L40.5 19L40.7 19.4Q41 20.6 40.95 22.4L40.9 23.85L40.75 25.45L40.75 25.5L40.35 28.35" />
<path style="fill:#2B462D;fill-opacity:1" d="M31.65,12L31.25 11.6Q30.45 11.25 29.95 10.4Q28.5 9.3 26.75 9.05L26.1 8.95L24.2 9.25L24 9.3L20.5 9.8L19.95 9.85L19.95 9.9L20.05 10.1L20.2 10.55L20.45 11.3L20.45 11.6L19.6 12.4L18.4 12.55L18.05 12.2L17.5 11.7L17.5 10.9L17.5 10.8L17.6 9.8L16.3 9.7L16.1 9.7L15.7 9.65L15.5 9.65L15.4 9.65L14.3 9.75L14.25 9.75L12.6 10.05L11.7 10.35L11.4 10.5L11.4 10.6L11.25 10.9L11.05 11.15Q10.75 11.65 10.1 11.7L9.65 11.75L9.5 11.7L9.3 11.85L8.85 12.2L8 13.05L7.9 13.1L7.75 13.25L7.25 13.75L7.05 13.95L7.05 14L6.7 14.45L6.55 14.55L6.25 14.95Q7.1 15.15 7.35 15.35L7.55 15.45L7.7 16.5L7.1 17.45L6.75 17.6L6 17.7L5.4 17.35L4.6 16.75L4.4 17.05L4.15 17.35L3.8 17.8L3.7 18.05L2.9 19.6Q1.2 23.35 1.7 24.65Q2.2 25.8 4.1 26.35Q3.65 25.4 4 24.8L4.1 25L4.85 25.95L8.55 26.15L10.85 26L10.95 26L9.75 27.1L9.4 27.15L6.1 27.5L2.9 27L1.05 25.8Q0.4 25.15 0.5 23.85Q0.55 22.6 1.85 19.7L2.55 18.3L2.65 18.1Q3.35 16.7 3.75 16.35L3.9 16.2L3.3 15.75L2.8 15.35L1.7 13.95L3.35 14.15L3.85 14.3L4 14.35L4.95 14.6L5.1 14.65L6 13.5L6.2 13.25L7 12.45L7.25 12.25L8.1 11.45L8.5 11.1L8.7 10.95L8.6 10.8L8.35 10.2L7.7 8.65L7.4 7.8L7.35 7.75L7.3 7.6L7.05 6.65L7 6L7.6 6.4L8.35 7L8.5 7.2L8.7 7.4L8.95 7.6L9.55 8.15L10 8.55L10.4 8.9L11 9.55L12.4 8.95L13.85 8.65L14.1 8.6L14.95 8.6L15.75 8.65L16.1 8.65L17.2 8.7L17.65 8.7L17.65 8.6L17.75 7.3Q18 5.6 18.25 5.5L18.6 6.05L18.85 6.5L19.05 7.05L19.25 7.6L19.4 8L19.7 8.85L21.5 8.8L22.85 8.5L22.9 8.5L23.15 8.4L23.25 8.4L24.05 8.15L25.05 8L25.15 7.95L26.2 7.95L27.65 8.2L28.95 8.65L29.8 9.1L32.75 5.75L35.1 3.4Q35.4 3.35 34.85 5.45L33.7 9.85L33.35 10.95L32.8 11.8L34.15 13.95L34.4 14.5L33.85 15.25Q33.45 14.2 31.65 12M20.3,24.8L20.1 25.45L20.3 25.65L21.3 26.5L21.65 26.75L22.75 27.45L24.45 27.8L25.15 27.6L25.35 27.55L26.4 27.3L27.05 27.4L27.55 27.75L28.05 28.4L28.1 28.55L28.2 28.8L28.45 28.8L29.9 28.8L30.25 28.9L30.7 29.3L31.15 29.85L31.2 29.95L31.4 30.65L31.4 30.75Q31.45 31.5 31 32.4Q30.25 33.8 29.6 33.9L28.45 34.1L27.9 34.6L27.2 35.05L27.05 35.1L26.9 35.2L26.75 35.25L26.45 35.35L25.5 35.4L24.45 35.25Q22.65 34.9 22.35 34.4L22.25 34.2L22.2 34.1L22 33.6L21.85 33.25L21.65 32.75L21.6 32.6L21.5 32.45L20.7 31.8L20.55 31.75L20 31.55L19.85 31.55L19.5 31.45L19.05 31.3L18.5 31.1L18.2 31L17.35 30.7L17.25 30.7L17.05 30.6L16.45 30.4L15.9 30.2L15.5 30.05L15.3 30L14.8 29.8Q14.3 29.6 13.9 29.4L13.75 29.35L13.5 29.25L13.35 29.15Q12.5 28.65 11.9 27.7L11.8 27.5L11.55 27L11.55 26.95L11.45 26.7L11.35 26.4L11.25 25.6L11.15 25.75L11.05 25.9L10.65 25.45Q10.45 25 10.4 24.4Q10.35 23.55 10.65 22.5L10.75 22.25L8.6 22.4Q7.55 22.45 8.75 22.05L9.45 21.8L9.6 21.75L10.15 21.6L11.05 21.4L11.55 20.2L11.8 19.55L12.45 18.3Q12.9 17.4 13.7 16.85Q13.95 16.7 14.25 16.6L14.6 16.45L15.5 16.25L15.6 16.25L15.55 16.3L14.95 16.65L14.25 17.25Q13.35 18.1 12.7 19.35L12.4 20L12.3 20.15L12.2 20.35L11.85 21.3L11.55 22.2L11.4 22.75L11.25 23.7L11.35 24.7L11.45 24.95L11.6 24.75L11.8 24.55L11.8 24.75L11.8 24.8L11.85 25.1L11.95 25.75L12 26L12.1 26.4L12.4 27.05L12.65 27.45L14 28.55L15.1 28.95L15.2 29L17.15 29.75L18.85 30.4L19.5 30.65L19.75 30.75L19.9 30.8L20.55 31L20.6 31L21.6 31.5L22.1 32L22.15 32.1L22.2 32.2L22.35 32.45L22.4 32.55L22.7 33.05L22.95 33.45L23.25 33.9L23.6 34.2L25.05 34.6L25.25 34.6L25.3 34.6L25.6 34.6L25.65 34.6L27 34.05L27.5 33.75L26.95 33.6L26.1 33.35L26 33.35L25.75 33.3L25.55 33.2L25.4 33.1L25.6 33L25.7 33L25.8 33L26.75 33.05L27.4 33.1L27.8 33.1L28.4 33.1Q29.35 33.05 29.8 32.5L30.35 31.45L30.45 31.1L30.35 30.55L30.35 30.5L30.1 30.05L29.8 29.8L29.2 29.75L28.7 29.8L28.15 29.85L27.95 29.85L27.75 29.7L27.65 29.55L27.6 29.45L27.3 28.9L26.95 28.45L26.85 28.35L26.3 28.25L25.15 28.5L24.8 28.6L23.9 28.65L23.7 28.6Q22.6 28.4 21.35 27.45L21.25 27.4L20.35 26.75L19.5 26.1L18.8 25.6L17.8 24.9L17.35 24.55L16.6 24.1L16.05 23.8L15.4 23.6L14.75 23.45L13.8 23.4L13.55 23.4L13.65 23.35L13.8 23.3L15 22.95L15.6 22.9L15.8 22.3L16.15 21.45L16.5 20.9L16.85 20.35L16.9 20.25L17.35 19.5L17.7 18.65L17.75 18.35L17.85 17.25L17.95 17.35L18.4 18.25L18.4 18.55L18.95 18.5L19.25 18.5L19.9 18.55L20.5 18.55L22.25 18.75L23.15 18.8L23.55 18.85L24.15 18.8L26.3 18.35Q27.55 17.65 28.4 17.5Q29.3 17.3 30.15 17.5L31 17.7L31.9 17.9L32.1 17.95L31.7 18.75L30.4 18.45L29.25 18.25L28.3 18.4L27.75 18.6L27.25 18.75L25.85 19.3L24.95 19.5L24.25 19.6L24 19.6L23.95 19.6L23.2 19.55L22.15 19.5L21.4 19.4L19.6 19.25L19 19.3L18.3 19.35L17.45 21L17.2 21.3L17.05 21.6Q18.05 21.8 18.75 22.25L19.55 22.8L19.95 23.3L20.1 23.55L20.3 24L20.3 24.15L20.35 24.45Q20 24.7 20.3 24.8M34,5.6L31.4 9L30.9 9.55L30.95 9.6L31.15 10.05L31.6 10.5L31.7 10.55L32.4 10.7L32.45 10.4L33.5 7.15L33.75 6.4L34 5.6M8.25,7.75L7.95 7.4L7.85 7.3L7.9 7.4L8.05 7.75L8.65 9.25L8.85 9.8L9.3 10.55L9.6 10.85L9.8 11L9.95 11Q10.6 10.95 10.7 10.25L10.3 9.9L9.35 8.8L8.3 7.75L8.25 7.75M18.65,7.75L18.35 7.1L18.25 8.6L18.25 8.75L18.2 9.8L18.15 9.95L18.2 10.6L18.4 11.45L18.55 11.65L18.6 11.75Q19.2 11.95 19.75 11.35L19.5 10.6L19.25 9.9L19.25 9.85L19.05 9.25L19 8.8L18.9 8.55L18.65 7.85L18.65 7.75M3.6,14.8L3.05 14.75L3.6 15.2L4.3 15.75L5 16.3L5.1 16.4Q5.85 16.8 6.35 16.9L6.55 16.95L6.65 16.85Q7.2 16.5 7 15.9L5.7 15.5L5.05 15.3L4.7 15.15L3.75 14.9L3.65 14.85L3.6 14.8M19.15,24.65L19.15 24.15L19.1 23.85L18.75 23.2L18.3 22.9L18.25 22.85L18.2 22.85L17.5 22.7L17.4 22.7L17.05 22.65L16.55 22.5L16.45 22.65L16.35 22.95L17.2 23.2L17.5 23.4L18.45 24.05L19.15 24.65M19.45,35.75Q19.2 36.15 18.4 36.2L15.6 36.3Q13.65 36.4 12.4 35.35Q11.25 34.3 10.4 34.1L8.85 33.5Q8.2 33.1 8.15 32.2Q8.2 31.3 8.7 30.45Q9.15 29.65 9.5 29.6L10.25 28.95L10.4 29L10.95 29.35L10.75 29.5L10.4 29.8L10.25 29.75L9.75 29.6L9.65 30L9.15 31.1L9.1 31.2Q8.85 31.75 9 32.35Q9.15 33.05 10.25 33.4Q11.35 33.65 12.6 34.65Q13.75 35.7 15.85 35.6L18.7 35.4L18.7 35.15L19 35.45Q19.3 35.75 19.5 35.2L19.55 35.15L19.45 35.75M13.65,34.05L13.6 33.8L13.5 33.5L13.15 32.5L13 32.2L12.55 31.5L12.25 31L11.85 30.3L12.1 30.35L12.55 31L13.35 32.75Q13.6 33.7 13.9 33.65L14 33.65L13.65 34.05" />
<path style="fill:#72BB71;fill-opacity:1" d="M32.6,16.55L32.6 16.5L32.35 17.1L32.4 17.15L31 16.8L30.9 16.75Q30.85 17 30.05 16.95L30.05 16.9L30.05 16.55L29.4 16.45L29.35 16.45L29.5 16.35L30.35 15.5L31.95 15.65L31.05 14.65L30.3 13.75L30.2 13.4Q29.75 12.25 28.7 11.55L28.35 11.4L27 11.25L25 9.9L26.35 9.85Q26.1 9.8 26.6 9.35L26.95 9.45Q27.1 9.7 26.85 9.75L26.4 9.85Q27.5 9.85 28.4 10.2L29.05 10.5L29.15 10.2L29.45 10.25L29.5 10.45L29.3 10.6L29.95 11.2L31.05 12.45L31.1 12.45L31.2 12.45L31.35 12.6L31.35 12.8Q32.1 13.75 32.4 14.8L32.55 14.85Q33 15.2 32.7 15.6L32.6 15.6L32.6 16.2Q32.65 16.1 32.8 16.1L33 16.3L33 16.5L32.95 16.55L32.6 16.55M31.45,24.95L31.7 24.85L32 25.7L31.65 25.65L31.6 25.6L31.6 25.5L30.55 25.8L29.55 25.95L27.6 25.1L27.6 25.15L27 25.2L26.95 25.15L27 24.9L27.6 25.1L27.95 25.15L29.1 25.15L31.45 24.95M34.65,26.6L34.5 26.2L34.35 25.55L34.6 25.5L34.95 25.4L35.75 25.5L35.95 25.7L36.15 26.1L36.2 26.3L36.05 26.2L35.6 26.1L35.05 26.05L35.1 26.45L34.65 26.6M20.9,10.5L21.7 10.85L24.7 12.35Q24.35 12.6 24.3 12.8L24.3 13L24.4 13.1L24.45 13.2L24.6 13.5Q24.4 14.4 24.95 15.2Q26.15 16.85 26.8 16.9Q27.45 16.95 26.7 17.35L24.2 17.85L24.25 18.3L24.2 18.35L23.6 18.2L23.5 17.85L22.35 17.95L20.15 18.1L19.4 18.15L18.4 18.25L17.95 17.35L17.85 17.25L16.85 16.6L16.7 16.55L16.75 17.05L16.7 17L16.35 17.05L16.3 17.1Q16.05 17.7 16.75 17.65L16.85 17.65L16.9 17.95L16.85 18.4L16.9 18.4L17.1 18.6L17.1 18.75L16.7 19.05L16.5 19.75L15.9 20.75L16.05 20.7L15.7 21.15L15.7 21.1L15.45 20.95L15.35 20.85Q14.95 20.95 15.05 21.35L15.1 21.5L15.1 21.55L15.4 21.65L15.2 22.15L15.15 22.2L14.95 22.75L15 22.8L15 22.95L13.8 23.3L13.65 23.25L13.6 23.2Q13.2 23.25 13.15 23.5L13.4 23.4L13.8 23.5L14 23.55L14.2 23.65L15.25 24.05L15.15 24.3L15.15 24.35L15.2 24.35L15.9 24.3L15.95 24.35L17.75 25.5L17.8 25.5L17.85 25.55L18.15 25.8L18.45 26L19.05 26.5L20.1 27.3L20.05 27.5L20 27.7L20 27.75Q20.2 28 20.45 27.95L20.7 27.8L20.7 27.75L21.1 28.05L22.75 29.2L23.15 29.25L24 29.25L24.05 29.25L25.25 29.15L25.25 29.3L25.75 29.45L25.85 29.4L26.1 29.15L26.1 29.1L26.5 29.15L26.95 29.2L27.15 29.25L27.65 29.55L27.75 29.7L27.95 29.85Q27.3 30.15 27 30.9L27.05 30.9L27.8 30.65L28.45 30.5L28.4 30.9L28.4 31L28.5 31.05L29.05 31L29.2 30.55L29.65 30.65L30.25 30.9L30.45 31.1L30.35 31.45L29.35 31.95L28.45 32.15L27.75 32.3L27.75 32.35L27.15 32.6L26.95 32.5L26 32.75L25.25 33.1L25.4 33.1L25.55 33.2L25.75 33.3L26 33.35L26.7 33.9L27 34.05L25.65 34.6L25.6 34.6L24.95 34.5L24.15 33.95L23.85 33.55L23.75 33.35L23.7 32.95L23.65 32.9L23.6 32.9L23.3 32.95L23.25 32.95L23.15 33.1L23 33L22.9 32.5L22.95 32.45L23.15 32.3L23.05 32.1L22.65 31.45L22.7 31.25L22.4 30.9L22.3 30.85L22.25 30.9L22 31.1L21.8 31.05L21.7 31L21.7 30.95L21.7 30.65L21.75 30.55Q21.2 30.1 20.25 29.75L19.7 29.55L18.95 29.3L17.85 29Q17.25 29.3 16.95 28.75L16.95 28.7L16.25 28.4L16 28.25L15.8 27.8L15.35 27.5L15.3 27.45L15.1 27.75L14.85 27.55L15.35 28.15L15.55 28.4L15.2 29L15.1 28.95L14.85 28.6L14.65 28.35L14.4 28.15L14.25 28.25L14.1 28.2L14.05 28.15L14.05 28.05L14.05 28L14.1 27.85L14.05 27.85L13.35 27.9L13.35 27.85Q13.35 27.5 13.6 27.45L13.35 27.45L12.65 27.45L12.4 27.05L12.9 26.6L13 26.15L13.05 26.05Q12.4 25.3 12.25 24.1L12.4 24L12.45 23.4L12.4 23.4L11.95 23.6L11.65 23.45L11.65 23.4Q11.6 22.85 12.15 22.85L12.25 22.85L12.25 22.8L12.25 22.3L12.25 22.15L12.4 21.25L12.85 20L12.65 19.9L12.55 19.7L12.55 19.65L12.75 19.45L12.85 19.4L12.95 19.45L13.1 19.55L14 18.2L14.6 18.1Q14.75 17.7 14.55 17.5L14.65 17.35L15.55 16.3L15.6 16.25L15.5 16.25L14.6 16.45L14.3 16.15L14.25 16.15L14.25 16.6Q13.95 16.7 13.7 16.85Q12.9 17.4 12.45 18.3L11.8 19.55L11.55 20.2L11.05 21.4L10.15 21.6L10.2 21.3L10.2 21.1L10.05 21L9.95 21Q9.4 21 9.25 21.55L9.2 21.6L9.45 21.8L8.75 22.05Q7.55 22.45 8.6 22.4L10.75 22.25L10.65 22.5Q10.35 23.55 10.4 24.4L8.55 24.65L8.05 24.75L8 24.55L7.6 24.35L6.95 24.9L6.55 24.95L6.3 24.95L6.15 25.3Q4.65 25.65 5.55 24.85L4.75 24.45L4.4 24.15Q4.7 23.55 5.25 23.15L6.25 22.7L6.2 22.65L6.05 22.75Q5.35 23 5.8 22.3L5.5 22.05L5.3 21.8L4.9 21.3L4.8 21.1L4.85 21Q4.95 20.2 4.3 20.25Q3.95 19.2 4.05 18L4.15 17.35L4.4 17.05L4.6 16.75L5.4 17.35L6 17.7L6.75 17.6L7.1 17.45L7.7 16.5L7.55 15.45L7.35 15.35Q7.1 15.15 6.25 14.95L6.55 14.55L6.7 14.45L7.05 14L7.2 14.55L7.6 15.35L8.1 15.95L9 16.7L8.65 14.95L8.65 13.55L8.85 12.2L9.3 11.85L9.5 11.7L9.65 11.75L10.1 11.7Q10.75 11.65 11.05 11.15L11.25 10.9L11.2 11.05L11.2 11.85Q11.3 12.8 11.9 14Q12.6 15.5 13.65 16.5Q12.9 12.4 13.7 10.4L15.3 10.45L15.75 10Q16.05 9.9 16.15 10.2L16.2 10.5L17.15 10.55Q16.9 11 17.5 10.8L17.5 10.9L17.5 11.7L18.05 12.2L18.4 12.55L19.6 12.4L20.45 11.6L20.45 11.3L20.2 10.55L20.9 10.5M31.15,10.05L30.95 9.6L31.05 9.6L32.2 8.3L33.75 6.4L33.5 7.15L33.35 7.35L32.4 9.35Q32.2 9.35 31.65 10.5L31.6 10.5L31.15 10.05M11.4,24.65Q11.35 24.25 11.7 24.1L12 24.4L11.8 24.75L11.8 24.55L11.6 24.75L11.4 24.65M21.8,33.3L21.85 33.25L22 33.6L21.8 33.3M21.6,13.5Q20.95 13.8 21 15.45Q21.15 16 21.45 16.35Q22.2 17.25 23.7 16.9L23.5 16.75Q22.85 16.2 22.55 15.65L22.1 14.7L21.6 13.5M20.3,16.95L19.9 16.55L19.6 15.85Q19.45 15.45 19.45 14.9L19.1 15.25Q18.75 15.95 18.85 16.4L19.15 17L19.75 17.2L20.8 17.25L20.3 16.95M24.7,16.35L24.45 16.45L24.4 16.55L24.45 16.85L24.5 16.95Q25.25 16.95 24.8 16.4L24.7 16.35M21.1,22.55L21.55 22.45L22.5 22.45L23.1 22.55L24.3 22.95L24.4 23L25 23.5L25.65 24.1L25.15 23.85Q24.1 23.25 23.1 22.95L23.05 22.95Q23.05 23.3 22.45 23.15L22.45 23.05L22.5 22.95L22.5 22.85L21.5 22.7L21.3 22.65L20.85 22.65L21.05 22.55L21.1 22.55M20.1,23.55L21.1 23.6L22.4 23.9L22.65 24Q23.7 24.3 24.55 24.9L24.4 24.9L24.3 24.9L23.45 24.95L23 25.2L22.95 25.25Q22.2 25.15 22.75 24.8L22.2 24.6L22.2 24.3L22.05 24.15L21.4 24.3L20.5 24.05L20.3 24L20.1 23.55M20.35,24.45L20.6 24.2L20.85 24.5L20.75 24.75L20.3 24.8Q20 24.7 20.35 24.45M24.45,27.8L24.5 27.7L24.9 27.1L24.8 27.05Q24.1 26.9 25.05 26.5L25.15 26.5L25.25 25.65L25.25 25.45L25 25L25 24.95L25.45 25.25L25.8 25.95L25.85 26.3L25.7 27.05L25.35 27.55L25.15 27.6L24.45 27.8M31.25,13.85L31.15 13.6L31.05 13.55Q30.55 14.1 31.25 13.9L31.25 13.85M9.4,10.45L9.35 10.35L8.9 9.45L8.3 7.75L9.55 9.4L10.1 10.05L10.25 10.35L9.8 11L9.6 10.85L9.4 10.45M18.35,10.75L18.35 10.6L18.4 9.85L18.5 8.75L18.5 8.6L18.65 7.85L19.05 10L19.2 10.7L19.25 11.25Q19.15 11.55 18.55 11.65L18.4 11.45L18.35 10.75M10.1,13.95L10.25 13.65Q10.2 13.35 9.9 13.45Q9.15 14.15 10.1 13.95M5.8,16.55L5.15 16.15L4.4 15.6L3.75 14.95L3.65 14.85L5.5 15.75Q6.55 16 6.6 16.2L6.55 16.95L6.35 16.9L5.8 16.55M6.65,18Q5.75 18.8 6.8 18.75L7.05 18.5Q7.15 18 6.65 18M3.25,21.75L3.5 21.85L3.5 21.95L3.4 22.45L2.8 22.35L2.8 22.3Q2.8 21.8 3.25 21.75M3.55,23.55Q4.4 24.45 2.9 24.35L2.85 24.3Q2.7 23.6 3.5 23.6L3.55 23.55M8.8,18.9Q8.5 19.85 9.35 19.15L9.3 18.95L8.8 18.9M8.25,23.75Q8.15 24.1 8.95 23.85L9.05 23.55L9 23.45L8.65 23.25L8.25 23.75M18.2,13.15L17.6 13.1Q17.25 14.1 18.2 13.4L18.2 13.15M15.55,14.55Q15.55 14.1 15.15 14.2Q14.65 15.05 15.45 14.75L15.55 14.55M15.4,18.4L15.45 18.4Q16 18.6 15.75 18.1L15.7 18.05Q15.3 18.05 15.4 18.4M10.65,16.6L10.35 16.65Q10 17.45 10.7 16.75L10.65 16.6M14.85,19.75Q14.35 19.75 14.5 20.3L14.55 20.3Q15.2 20.3 14.95 19.9L14.85 19.75M13.8,21.2L13.85 21.25Q14.45 21.15 14.15 20.8L14 20.65L13.8 20.7L13.75 20.75L13.8 21.15L13.8 21.2M13,21.45Q12.45 21.25 12.35 21.8Q13.1 22.2 13.1 21.45L13 21.45M14.05,24.45L13.65 24.7L13.6 24.8Q14.1 25.2 14.15 24.55L14.05 24.45M17.5,22.7L18.2 22.85L18.25 22.85L18.3 22.9L18.45 23.3L18.45 23.7L18.45 24.05L17.5 23.4L17.2 23.2L17.4 22.8L17.4 22.7L17.5 22.7M18.6,27.6L18.55 27.65Q17.85 28.15 18.85 28.05L18.75 27.7L18.7 27.65L18.6 27.6M15.4,25.75L15.35 25.8L15.45 25.8L15.4 25.75M16.55,27.45Q17.75 27.45 17.25 26.85L17.05 26.6Q16.5 26.8 16.55 27.3L16.55 27.4L16.55 27.45M19.9,30.05Q19.7 30.7 19.3 30.05L19.35 30L19.8 29.9Q19.95 29.9 19.9 30.05M14.85,25.75L14.9 25.8Q15.45 25.8 15.15 25.25L15.05 25.2Q14.7 25.4 14.85 25.75M13.45,27.25L13.55 27.15Q13.4 26.9 13.35 27.2L13.45 27.25M17.2,34.1L18.2 34.7L18.6 35.05L17.75 34.9L17.6 34.9Q17.55 35.2 16.95 35.1L16.95 35.05L17 34.75L16.65 34.75L16.5 34.55L16.45 34.5Q16 34.55 16.15 34.95L16.2 34.95L16.15 35L16.1 35.05L15.9 35L15.5 35L15.25 35.15L14.9 35.1L14.85 35.1L14.75 35.15L14.7 35.15L14.5 35.1L14.45 34.95L14.25 34.95Q13.5 34.9 13.05 34.5L12.15 33.6L11.7 33.35L11.75 33.15L11.65 32.9L11.25 33L11.2 33.05L11 32.9L10.85 32.85L10.5 32.3L10.2 32.2Q10.1 31.95 10.3 31.85L10.4 31.8L10.4 31.75L10.55 31.1L10.6 31L10.35 30.9Q10.25 30.5 10.7 30.5L10.7 30.55L10.8 30.6L10.9 30.4L11 29.95L10.95 29.95L10.9 29.95L10.95 29.85L11.1 29.9L11.3 30.05L11.55 30.15L11.75 29.95L12.1 30.35L11.85 30.3L12.25 31L12.25 31.15L12.3 31.4L12.05 31.45L12 31.45L11.9 31.55L11.95 31.7L12.15 31.8L12.3 31.75L12.5 32.3L12.55 32.25L12.65 32.3L12.75 32.4L12.7 32.5L13.5 33.5L13.6 33.8L13.65 34.05L14 33.65L14.45 33.6L14.5 33.75L14.85 33.8L14.9 33.65L14.9 33.6L15.6 33.65L15.7 33.55L15.9 33.6L15.9 33.65L15.9 33.7L16.35 33.7L16.7 33.85L16.8 33.9L16.85 34.05L17.2 34.1M13.2,33.65L13.1 33.45L13.05 33.45L12.85 33.55Q12.9 33.95 13.2 33.65M11.6,32L11.6 32.1L11.55 32.2L11.6 32.3Q11.8 32.5 12 32.3L11.9 32L11.85 31.95L11.8 31.95L11.65 31.95L11.6 32M11.1,31.3Q10.8 31.45 10.95 31.65L11.2 31.55L11.15 31.35L11.1 31.3M15.05,34.35Q15.45 34.5 15.5 34.15L15.2 33.95Q14.95 34.05 15.05 34.3L15.05 34.35M9,25.4Q7.75 25.8 8.7 24.8Q9 24.8 9.1 25.15L9 25.4M9.9,31.25Q9.55 31.75 9.45 31.2L9.45 31.15L9.75 31L9.85 31.05L9.9 31.1L9.9 31.25M31.8,26.65Q31.2 26.85 31.55 26.3L31.8 26.6L31.8 26.65M25.5,30.85L25.4 30.95L25.4 31L25.5 31.05Q26.45 31.4 26.2 30.7L25.8 30.7L25.5 30.85M21.4,28.9Q21.05 28.95 20.85 29.2L20.8 29.2Q21.45 29.75 21.5 29.05L21.4 28.9M23.3,30.65L23.35 30.7Q23.9 31.05 24.25 30.4L24.1 30.2L23.95 30.15L23.75 30.1L23.55 30.1Q23.2 30.15 23.3 30.6L23.3 30.65M24.95,30.15Q24.55 30.6 25.25 30.5L25.3 30.5L25.25 30.2L25.05 30.05L24.95 30.15M24.45,33.6Q24.95 33.45 24.55 33L24.5 33Q24.15 33.2 24.35 33.55L24.45 33.6M28.3,32.8Q28.15 32.4 28.55 32.25Q29.05 32.7 28.35 32.85L28.3 32.8" />
<path style="fill:#468C54;fill-opacity:1" d="M32.6,17.15L32.1 17.95L31.9 17.9L31 17.7L30.15 17.5Q29.3 17.3 28.4 17.5Q27.55 17.65 26.3 18.35L24.15 18.8L23.55 18.85L23.15 18.8L22.25 18.75L20.5 18.55L19.9 18.55L19.25 18.5L18.95 18.5L18.4 18.55L18.4 18.25L19.4 18.15L20.15 18.1L22.35 17.95L23.5 17.85L23.6 18.2L24.2 18.35L24.25 18.3L24.2 17.85L26.7 17.35Q27.45 16.95 26.8 16.9Q26.15 16.85 24.95 15.2Q24.4 14.4 24.6 13.5L24.75 13.7L25.6 14.9Q26.45 16.05 27.9 15.9L29 15.65L29.85 15.35L30.35 15.5L29.5 16.35L29.35 16.45L29.4 16.45L30.05 16.55L30.05 16.9L30.05 16.95Q30.85 17 30.9 16.75L31 16.8L32.4 17.15L32.35 17.1L32.6 17.15M26.95,25.15L27 25.2L27.6 25.15L27.6 25.1L29.55 25.95L30.55 25.8L31.6 25.5L31.6 25.6L31.65 25.65L32 25.7L32.45 27.85L30.4 28.1L29.45 28.4Q28.85 27.9 28 27.8L27.55 27.75L27.05 27.4L26.4 27.3L26.65 26.55L26.5 25.8Q25.95 24.3 23.3 23.5L20.35 22.85L19.55 22.8L21.5 22.3L21.1 22.55L21.05 22.55L20.85 22.65L21.3 22.65L21.5 22.7L22.5 22.85L22.5 22.95L22.45 23.05L22.45 23.15Q23.05 23.3 23.05 22.95L23.1 22.95Q24.1 23.25 25.15 23.85L25.65 24.1L27 24.9L26.95 25.15M36.2,26.65L36.2 26.9L35.95 27.6L35.25 28.2L34.65 26.6L35.1 26.45L35.05 26.05L35.6 26.1L36.05 26.2L36.2 26.3L36.2 26.65M10.95,26L10.85 26L8.55 26.15L4.85 25.95L4.1 25L4 24.8Q3.65 25.4 4.1 26.35Q2.2 25.8 1.7 24.65Q1.2 23.35 2.9 19.6L3.7 18.05L3.8 17.8L4.15 17.35L4.05 18Q3.95 19.2 4.3 20.25Q4.95 20.2 4.85 21L4.8 21.1L4.9 21.3L5.3 21.8L5.5 22.05L5.8 22.3Q5.35 23 6.05 22.75L6.2 22.65L6.25 22.7L5.25 23.15Q4.7 23.55 4.4 24.15L4.75 24.45L5.55 24.85Q4.65 25.65 6.15 25.3L6.3 24.95L6.55 24.95L6.95 24.9L7.6 24.35L8 24.55L8.05 24.75L8.55 24.65L10.4 24.4Q10.45 25 10.65 25.45L11.05 25.9L10.95 26M32.45,10.4L32.4 10.7L31.7 10.55L31.6 10.5L31.65 10.5Q32.2 9.35 32.4 9.35L33.35 7.35L33.5 7.15L32.45 10.4M13.4,23.4L13.15 23.5Q13.2 23.25 13.6 23.2L13.65 23.25L13.8 23.3L13.65 23.35L13.4 23.4M25.25,33.1L26 32.75L26.95 32.5L27.15 32.6L27.75 32.35L27.75 32.3L28.45 32.15L29.35 31.95L30.35 31.45L29.8 32.5Q29.35 33.05 28.4 33.1L27.8 33.1L27.4 33.1L26.75 33.05L25.8 33L25.7 33L25.6 33L25.4 33.1L25.25 33.1M26,33.35L26.1 33.35L26.95 33.6L27.5 33.75L27 34.05L26.7 33.9L26 33.35M15.55,28.4L15.35 28.15L14.85 27.55L15.1 27.75L15.3 27.45L15.35 27.5L15.8 27.8L16 28.25L16.25 28.4L16.95 28.7L16.95 28.75Q17.25 29.3 17.85 29L18.95 29.3L19.7 29.55L20.25 29.75Q21.2 30.1 21.75 30.55L21.7 30.65L21.7 30.95L21.7 31L21.8 31.05L22 31.1L22.25 30.9L22.3 30.85L22.4 30.9L22.7 31.25L22.65 31.45L23.05 32.1L23.15 32.3L22.95 32.45L22.9 32.5L23 33L23.15 33.1L23.25 32.95L23.3 32.95L23.6 32.9L23.65 32.9L23.7 32.95L23.75 33.35L23.85 33.55L24.15 33.95L24.95 34.5L25.6 34.6L25.3 34.6L25.25 34.6L25.05 34.6L23.6 34.2L23.25 33.9L22.95 33.45L22.7 33.05L22.4 32.55L22.35 32.45L22.2 32.2L22.15 32.1L22.1 32L21.6 31.5L20.6 31L20.55 31L19.9 30.8L19.75 30.75L19.5 30.65L18.85 30.4L17.15 29.75L15.2 29L15.55 28.4M13.35,27.45L13.6 27.45Q13.35 27.5 13.35 27.85L13.35 27.9L14.05 27.85L14.1 27.85L14.05 28L14.05 28.05L14.05 28.15L14.1 28.2L14.25 28.25L14.4 28.15L14.65 28.35L14.85 28.6L15.1 28.95L14 28.55L12.65 27.45L13.35 27.45M11.6,24.75L11.45 24.95L11.35 24.7L11.25 23.7L11.4 22.75L11.55 22.2L11.85 21.3L12.2 20.35L12.3 20.15L12.4 20L12.7 19.35Q13.35 18.1 14.25 17.25L14.95 16.65L15.55 16.3L15.6 16.25L15.55 16.3L14.65 17.35L14.55 17.5Q14.75 17.7 14.6 18.1L14 18.2L13.1 19.55L12.95 19.45L12.85 19.4L12.75 19.45L12.55 19.65L12.55 19.7L12.65 19.9L12.85 20L12.4 21.25L12.25 22.15L12.25 22.3L12.25 22.8L12.25 22.85L12.15 22.85Q11.6 22.85 11.65 23.4L11.65 23.45L11.95 23.6L12.4 23.4L12.45 23.4L12.4 24L12.25 24.1Q12.4 25.3 13.05 26.05L13 26.15L12.9 26.6L12.4 27.05L12.1 26.4L12 26L11.95 25.75L11.85 25.1L11.8 24.8L11.8 24.75L12 24.4L11.7 24.1Q11.35 24.25 11.4 24.65L11.6 24.75M14.25,16.15L14.3 16.15L14.6 16.45L14.25 16.6L14.25 16.15M20.45,34Q20.95 33.55 21.8 33.3L22 33.6L22.2 34.1L22.2 34.2L22.25 34.2L22.35 34.4Q22.65 34.9 24.45 35.25L25.5 35.4L23.95 35.45Q22.3 35.55 21.35 34.65Q20.9 34.25 20.45 34M22.1,14.7L22.55 15.65Q22.85 16.2 23.5 16.75L23.7 16.9Q22.2 17.25 21.45 16.35Q21.15 16 21 15.45Q20.95 13.8 21.6 13.5L22.1 14.7M20.8,17.25L19.75 17.2L19.15 17L18.85 16.4Q18.75 15.95 19.1 15.25L19.45 14.9Q19.45 15.45 19.6 15.85L19.9 16.55L20.3 16.95L20.8 17.25M25,24.95L25 25L25.25 25.45L25.25 25.65L25.15 26.5L25.05 26.5Q24.1 26.9 24.8 27.05L24.9 27.1L24.5 27.7L24.45 27.8L22.75 27.45L21.65 26.75Q22 25.95 22.5 25.5L21.3 26.5L20.3 25.65L20.1 25.45L20.3 24.8L20.75 24.75L20.85 24.5L20.6 24.2L20.35 24.45L20.3 24.15L20.3 24L20.5 24.05L21.4 24.3L22.05 24.15L22.2 24.3L22.2 24.6L22.75 24.8Q22.2 25.15 22.95 25.25L23 25.2L23.45 24.95L24.3 24.9L24.4 24.9L24.55 24.9L25 24.95M10.25,10.35L10.1 10.05L9.55 9.4L8.3 7.75L9.35 8.8L10.3 9.9L10.7 10.25Q10.6 10.95 9.95 11L9.8 11L10.25 10.35M19.25,11.25L19.2 10.7L19.05 10L18.65 7.85L18.9 8.55L19 8.8L19.05 9.25L19.25 9.85L19.25 9.9L19.5 10.6L19.75 11.35Q19.2 11.95 18.6 11.75L18.55 11.65Q19.15 11.55 19.25 11.25M6.6,16.2Q6.55 16 5.5 15.75L3.65 14.85L3.75 14.9L4.7 15.15L5.05 15.3L5.7 15.5L7 15.9Q7.2 16.5 6.65 16.85L6.55 16.95L6.6 16.2M7.05,18.5L6.8 18.75Q5.75 18.8 6.65 18Q7.15 18 7.05 18.5M2.8,22.3L2.8 22.35L3.4 22.45L3.5 21.95L3.5 21.85L3.25 21.75Q2.8 21.8 2.8 22.3M3.5,23.6Q2.7 23.6 2.85 24.3L2.9 24.35Q4.4 24.45 3.55 23.55L3.5 23.6M9.3,18.95L9.35 19.15Q8.5 19.85 8.8 18.9L9.3 18.95M8.65,23.25L9 23.45L9.05 23.55L8.95 23.85Q8.15 24.1 8.25 23.75L8.65 23.25M18.2,13.4Q17.25 14.1 17.6 13.1L18.2 13.15L18.2 13.4M15.7,18.05L15.75 18.1Q16 18.6 15.45 18.4L15.4 18.4Q15.3 18.05 15.7 18.05M10.7,16.75Q10 17.45 10.35 16.65L10.65 16.6L10.7 16.75M14.95,19.9Q15.2 20.3 14.55 20.3L14.5 20.3Q14.35 19.75 14.85 19.75L14.95 19.9M13.1,21.45Q13.1 22.2 12.35 21.8Q12.45 21.25 13 21.45L13.1 21.45M14.15,24.55Q14.1 25.2 13.6 24.8L13.65 24.7L14.05 24.45L14.15 24.55M16.35,22.95L16.45 22.65L17.05 22.65L17.4 22.7L17.4 22.8L17.2 23.2L16.35 22.95M18.7,27.65L18.75 27.7L18.85 28.05Q17.85 28.15 18.55 27.65L18.6 27.6L18.7 27.65M16.55,27.4L16.55 27.3Q16.5 26.8 17.05 26.6L17.25 26.85Q17.75 27.45 16.55 27.45L16.55 27.4M19.8,29.9L19.35 30L19.3 30.05Q19.7 30.7 19.9 30.05Q19.95 29.9 19.8 29.9M13.35,27.2Q13.4 26.9 13.55 27.15L13.45 27.25L13.35 27.2M18.7,35.4L15.85 35.6Q13.75 35.7 12.6 34.65Q11.35 33.65 10.25 33.4Q9.15 33.05 9 32.35Q8.85 31.75 9.1 31.2L9.15 31.1L9.65 30L9.75 29.6L10.25 29.75L10.4 29.8L10.75 29.5L10.95 29.35L11.55 29.75L11.75 29.95L11.55 30.15L11.3 30.05L11.1 29.9L10.95 29.85L10.9 29.95L10.95 29.95L11 29.95L10.9 30.4L10.8 30.6L10.7 30.55L10.7 30.5Q10.25 30.5 10.35 30.9L10.6 31L10.55 31.1L10.4 31.75L10.4 31.8L10.3 31.85Q10.1 31.95 10.2 32.2L10.5 32.3L10.85 32.85L11 32.9L11.2 33.05L11.25 33L11.65 32.9L11.75 33.15L11.7 33.35L12.15 33.6L13.05 34.5Q13.5 34.9 14.25 34.95L14.45 34.95L14.5 35.1L14.7 35.15L14.75 35.15L14.85 35.1L14.9 35.1L15.25 35.15L15.5 35L15.9 35L16.1 35.05L16.15 35L16.2 34.95L16.15 34.95Q16 34.55 16.45 34.5L16.5 34.55L16.65 34.75L17 34.75L16.95 35.05L16.95 35.1Q17.55 35.2 17.6 34.9L17.75 34.9L18.6 35.05L18.7 35.15L18.7 35.4M9.1,25.15Q9 24.8 8.7 24.8Q7.75 25.8 9 25.4L9.1 25.15M9.9,31.1L9.85 31.05L9.75 31L9.45 31.15L9.45 31.2Q9.55 31.75 9.9 31.25L9.9 31.1M31.8,26.6L31.55 26.3Q31.2 26.85 31.8 26.65L31.8 26.6M25.8,30.7L26.2 30.7Q26.45 31.4 25.5 31.05L25.4 31L25.4 30.95L25.5 30.85L25.8 30.7M23.3,30.6Q23.2 30.15 23.55 30.1L23.75 30.1L23.95 30.15L24.1 30.2L24.25 30.4Q23.9 31.05 23.35 30.7L23.3 30.65L23.3 30.6M24.35,33.55Q24.15 33.2 24.5 33L24.55 33Q24.95 33.45 24.45 33.6L24.35 33.55M28.35,32.85Q29.05 32.7 28.55 32.25Q28.15 32.4 28.3 32.8L28.35 32.85" />
<path style="fill:#A4E0A0;fill-opacity:1" d="M25,9.9L24.3 9.4L24 9.3L24.2 9.25L26.1 8.95L26.75 9.05Q28.5 9.3 29.95 10.4Q30.45 11.25 31.25 11.6L31.65 12Q33.45 14.2 33.85 15.25L33 16.5L33 16.3L32.8 16.1Q32.65 16.1 32.6 16.2L32.6 15.6L32.7 15.6Q33 15.2 32.55 14.85L32.4 14.8Q32.1 13.75 31.35 12.8L31.35 12.6L31.2 12.45L31.1 12.45L31.05 12.45L29.95 11.2L29.3 10.6L29.5 10.45L29.45 10.25L29.15 10.2L29.05 10.5L28.4 10.2Q27.5 9.85 26.4 9.85L26.85 9.75Q27.1 9.7 26.95 9.45L26.6 9.35Q26.1 9.8 26.35 9.85L25 9.9M32.35,17.1L32.6 16.5L32.6 16.55L32.95 16.55L32.6 17.15L32.35 17.1M13.7,10.4L13.8 10.25L14.25 9.75L14.3 9.75L15.4 9.65L15.5 9.65L15.7 9.65L16.1 9.7L16.3 9.7L17.6 9.8L17.5 10.8Q16.9 11 17.15 10.55L16.2 10.5L16.15 10.2Q16.05 9.9 15.75 10L15.3 10.45L13.7 10.4M20.9,10.5L20.2 10.55L20.05 10.1L20.9 10.5M33.75,6.4L32.2 8.3L31.05 9.6L30.95 9.6L30.9 9.55L31.4 9L34 5.6L33.75 6.4M15,22.8L14.95 22.75L15.15 22.2L15.2 22.15L15.4 21.65L15.1 21.55L15.1 21.5L15.05 21.35Q14.95 20.95 15.35 20.85L15.45 20.95L15.7 21.1L15.7 21.15L16.05 20.7L15.9 20.75L16.5 19.75L16.7 19.05L17.1 18.75L17.1 18.6L16.9 18.4L16.85 18.4L16.9 17.95L16.85 17.65L16.75 17.65Q16.05 17.7 16.3 17.1L16.35 17.05L16.7 17L16.75 17.05L16.7 16.55L16.85 16.6L17.85 17.25L17.75 18.35L17.7 18.65L17.35 19.5L16.9 20.25L16.85 20.35L16.5 20.9L16.15 21.45L15.8 22.3L15.6 22.9L15 22.95L15 22.8M27.15,29.25L26.95 29.2L26.5 29.15L26.1 29.1L26.1 29.15L25.85 29.4L25.75 29.45L25.25 29.3L25.25 29.15L24.05 29.25L24 29.25L23.15 29.25L22.75 29.2L21.1 28.05L20.7 27.75L20.7 27.8L20.45 27.95Q20.2 28 20 27.75L20 27.7L20.05 27.5L20.1 27.3L19.05 26.5L18.45 26L18.15 25.8L17.85 25.55L17.8 25.5L17.75 25.5L15.95 24.35L15.9 24.3L15.2 24.35L15.15 24.35L15.15 24.3L15.25 24.05L14.2 23.65L14 23.55L13.8 23.5L13.4 23.4L13.65 23.35L13.55 23.4L13.8 23.4L14.75 23.45L15.4 23.6L16.05 23.8L16.6 24.1L17.35 24.55L17.8 24.9L18.8 25.6L19.5 26.1L20.35 26.75L21.25 27.4L21.35 27.45Q22.6 28.4 23.7 28.6L23.9 28.65L24.8 28.6L25.15 28.5L26.3 28.25L26.85 28.35L26.95 28.45L27.3 28.9L27.6 29.45L27.65 29.55L27.15 29.25M27.95,29.85L28.15 29.85L28.7 29.8L29.2 29.75L29.8 29.8L30.1 30.05L30.35 30.5L30.35 30.55L30.45 31.1L30.25 30.9L29.65 30.65L29.2 30.55L29.05 31L28.5 31.05L28.4 31L28.4 30.9L28.45 30.5L27.8 30.65L27.05 30.9L27 30.9Q27.3 30.15 27.95 29.85M9.6,10.85L9.3 10.55L8.85 9.8L8.65 9.25L8.05 7.75L7.9 7.4L7.85 7.3L7.95 7.4L8.25 7.75L8.3 7.75L8.9 9.45L9.35 10.35L9.4 10.45L9.6 10.85M18.4,11.45L18.2 10.6L18.15 9.95L18.2 9.8L18.25 8.75L18.25 8.6L18.35 7.1L18.65 7.75L18.65 7.85L18.5 8.6L18.5 8.75L18.4 9.85L18.35 10.6L18.35 10.75L18.4 11.45M9.9,13.45Q10.2 13.35 10.25 13.65L10.1 13.95Q9.15 14.15 9.9 13.45M6.35,16.9Q5.85 16.8 5.1 16.4L5 16.3L4.3 15.75L3.6 15.2L3.05 14.75L3.6 14.8L3.65 14.85L3.75 14.95L4.4 15.6L5.15 16.15L5.8 16.55L6.35 16.9M15.45,14.75Q14.65 15.05 15.15 14.2Q15.55 14.1 15.55 14.55L15.45 14.75M13.8,21.15L13.75 20.75L13.8 20.7L14 20.65L14.15 20.8Q14.45 21.15 13.85 21.25L13.8 21.2L13.8 21.15M18.45,24.05L18.45 23.7L18.45 23.3L18.3 22.9L18.75 23.2L19.1 23.85L19.15 24.15L19.15 24.65L18.45 24.05M17.05,22.65L16.45 22.65L16.55 22.5L17.05 22.65M15.45,25.8L15.35 25.8L15.4 25.75L15.45 25.8M15.05,25.2L15.15 25.25Q15.45 25.8 14.9 25.8L14.85 25.75Q14.7 25.4 15.05 25.2M15.6,33.65L14.9 33.6L14.9 33.65L14.85 33.8L14.5 33.75L14.45 33.6L14.95 33.55L15.7 33.55L15.6 33.65M15.9,33.7L15.9 33.65L15.9 33.6L16.35 33.7L15.9 33.7M16.85,34.05L16.8 33.9L17.2 34.1L16.85 34.05M12.7,32.5L12.75 32.4L12.65 32.3L12.55 32.25L12.5 32.3L12.3 31.75L12.15 31.8L11.95 31.7L11.9 31.55L12 31.45L12.05 31.45L12.3 31.4L12.25 31.15L12.25 31L12.55 31.5L13 32.2L13.15 32.5L13.5 33.5L12.7 32.5M21.5,29.05Q21.45 29.75 20.8 29.2L20.85 29.2Q21.05 28.95 21.4 28.9L21.5 29.05M25.05,30.05L25.25 30.2L25.3 30.5L25.25 30.5Q24.55 30.6 24.95 30.15L25.05 30.05" />
<path style="fill:#662616;fill-opacity:1" d="M17.2,8.7L16.1 8.65L16.1 8.6L15.5 7.15L15.45 7.1L14 4.35L13.95 4.15L13.45 3.65L13.3 3.5L13.3 3.55Q13.65 5.45 14.7 8.2L14.95 8.6L14.1 8.6L13.85 8.65L12.65 5L12.5 4.6L12.4 3.6Q11.5 6 8.5 7.2L8.35 7L7.6 6.4L9.05 5.7Q10.75 4.75 11.25 3.6L12.25 2Q12.5 1.55 14.05 2.25L17.2 3L19.9 2.9L22.15 2.15L24.55 0.55Q25.7 -0.45 25.5 1.2L25.45 2.55Q25.35 4.4 25.85 6.55L26.2 7.95L25.15 7.95L25.05 8L24.7 6.3L24.45 4.35L24.45 3.95L24.4 2.65Q23.25 5 24 7.95L24.05 8.05L24.05 8.15L23.25 8.4L23.15 8.4L22.9 8.5Q22.6 7.15 22.65 5.65Q22.85 4.4 23.2 3.45L23.85 2.45L22.9 3Q20.85 4.1 19.1 4.15L15.9 4L14.6 3.55L15.05 4.4L17 8.35L17.1 8.55L17.2 8.7M4.95,14.6L4 14.35L4.35 13.55Q5.1 11.6 4.9 10.2Q4.8 8.85 4.3 8.05Q3.8 7.15 4.55 7.1L6.4 6.8L7.05 6.65L7.3 7.6L6.45 7.8L6.55 7.8L7.7 8.65L8.35 10.2L5.6 8.15L5.65 8.3Q6.7 10.1 8.1 11.45L7.25 12.25L5.95 10.45L5.95 10.65L5.9 10.8L5.35 13.65L4.95 14.6M2.15,17.95Q2 17.7 2.75 16.65L3.3 15.75L3.9 16.2L3.75 16.35Q3.35 16.7 2.65 18.1L2.15 17.95" />
<path style="fill:#BB482E;fill-opacity:1" d="M24.05,8.05Q24.65 7.7 24.6 7.2Q24.05 5.85 24.15 5.25L24.45 3.95L24.45 4.35L24.7 6.3L25.05 8L24.05 8.15L24.05 8.05M18.6,6.05L18.25 5.5Q18 5.6 17.75 7.3L17.65 8.6L17.1 8.55L17 8.35L15.05 4.4L17.1 4.75L18.95 4.8L18.95 4.95L19.1 5.1Q19.5 5.05 19.75 4.65L19.7 4.55L21.05 4L22.9 3L23.85 2.45L23.2 3.45Q22.55 4.6 22.15 6.15Q21.85 7.3 21.15 7.75L20.8 8.25L20.6 8.3L20.45 8.1L19.75 8.35L19.65 8.15L19.6 8L19.5 8L19.4 8L19.25 7.6L19.05 7.05L18.85 6.5L18.9 6.6L19 6.4L19 6.3L19 6.15L18.85 6.05L18.85 5.95L18.7 5.95L18.65 5.85L18.6 6.05M10.05,8.5L10.15 8.05Q10.05 7.85 9.95 7.95L9.6 8.05L9.55 8.15L8.95 7.6L9.5 7.4L10.05 7.2L10.15 7.25L10.95 7.05L11.05 6.7L11 6.65L11 6.6Q12.3 5.7 12.5 4.6L12.65 5L12.65 6.15L12.9 8.5L12.95 8.7L12.9 8.6Q12.8 8.4 12.6 8.5L12.5 8.65L12.4 8.75L12.4 8.95L11 9.55L10.4 8.9L10 8.55L10.05 8.5M6.55,7.8L7.4 7.8L7.7 8.65L6.55 7.8M7.75,10.35L6.55 9.15L5.65 8.3L5.6 8.15L8.35 10.2L8.6 10.8L8.7 10.95L8.5 11.1L7.75 10.35M5.9,10.8L5.95 10.65L6.15 11.1L7 12.45L6.2 13.25L6 13.5Q6.15 12.35 5.9 10.8M20.8,5.05Q20.5 5.4 20.85 5.4Q21.3 5.4 20.95 5.15L20.8 5.05M21.3,8.1L21.45 8.1Q21.8 8.4 21.35 8.35Q21 8.45 21.3 8.1M10.95,8.45L11.3 8.55L11.45 8.4L11.45 8.25L11.2 8.1L11.05 8.05Q10.75 8.2 10.95 8.45M19.8,6.7Q20.3 6.75 19.9 6.45L19.8 6.45Q19.4 6.75 19.8 6.7" />
<path style="fill:#EE7557;fill-opacity:1" d="M18.65,5.85L18.7 5.95L18.85 5.95L18.85 6.05L19 6.15L19 6.3L19 6.4L18.9 6.6L18.85 6.5L18.6 6.05L18.65 5.85M15.75,8.65L14.95 8.6L14.7 8.2Q13.65 5.45 13.3 3.55L13.3 3.5L13.45 3.65L13.95 4.15L14 4.35L15.75 8.65M10,8.55L9.55 8.15L9.6 8.05L9.95 7.95Q10.05 7.85 10.15 8.05L10.05 8.5L10 8.55M8.95,7.6L8.7 7.4L8.5 7.2Q11.5 6 12.4 3.6L12.5 4.6Q12.3 5.7 11 6.6L11 6.65L11.05 6.7L10.95 7.05L10.15 7.25L10.05 7.2L9.5 7.4L8.95 7.6M6.55,7.8L6.45 7.8L7.3 7.6L7.35 7.75L7.4 7.8L6.55 7.8M5.65,8.3L6.55 9.15L7.75 10.35L8.5 11.1L8.1 11.45Q6.7 10.1 5.65 8.3M5.35,13.65L5.9 10.8Q6.15 12.35 6 13.5L5.1 14.65L4.95 14.6L5.35 13.65M20.95,5.15Q21.3 5.4 20.85 5.4Q20.5 5.4 20.8 5.05L20.95 5.15M24,7.95Q23.25 5 24.4 2.65L24.45 3.95L24.15 5.25Q24.05 5.85 24.6 7.2Q24.65 7.7 24.05 8.05L24 7.95M22.9,3L21.05 4L19.7 4.55L19.75 4.65Q19.5 5.05 19.1 5.1L18.95 4.95L18.95 4.8L17.1 4.75L15.05 4.4L14.6 3.55L15.9 4L19.1 4.15Q20.85 4.1 22.9 3M11.05,8.05L11.2 8.1L11.45 8.25L11.45 8.4L11.3 8.55L10.95 8.45Q10.75 8.2 11.05 8.05" />
<path style="fill:#8C331D;fill-opacity:1" d="M19.5,8L19.6 8L19.65 8.15L19.75 8.35L20.45 8.1L20.6 8.3L20.8 8.25L21.15 7.75Q21.85 7.3 22.15 6.15Q22.55 4.6 23.2 3.45Q22.85 4.4 22.65 5.65Q22.6 7.15 22.9 8.5L22.85 8.5L21.5 8.8L19.7 8.85L19.4 8L19.5 8M17.1,8.55L17.65 8.6L17.65 8.7L17.2 8.7L17.1 8.55M14,4.35L15.45 7.1L15.5 7.15L16.1 8.6L16.1 8.65L15.75 8.65L14 4.35M6.15,11.1L5.95 10.65L5.95 10.45L7.25 12.25L7 12.45L6.15 11.1M21.35,8.35Q21.8 8.4 21.45 8.1L21.3 8.1Q21 8.45 21.35 8.35M19.8,6.45L19.9 6.45Q20.3 6.75 19.8 6.7Q19.4 6.75 19.8 6.45" />
<path style="fill:#2F7231;fill-opacity:1" d="M7.05,14L7.05 13.95L7.25 13.75L7.75 13.25L7.9 13.1L8 13.05L8.85 12.2L8.65 13.55L8.65 14.95L9 16.7L8.1 15.95L7.6 15.35L7.2 14.55L7.05 14M13.7,10.4Q12.9 12.4 13.65 16.5Q12.6 15.5 11.9 14Q11.3 12.8 11.2 11.85L11.2 11.05L11.25 10.9L11.4 10.6L11.9 10.45L13.7 10.4M27,11.25Q26.5 11.4 25.95 11.65Q25.15 12.05 24.7 12.35L21.7 10.85L20.9 10.5L21.3 10.45L23.75 10.2L25 9.9L27 11.25M29.85,15.35L30.55 15.05L30.6 15L30.65 15L30.6 14.75L30.5 14.4L30.45 14.25L30.3 13.75L31.05 14.65L31.95 15.65L30.35 15.5L29.85 15.35" />
<path style="fill:#438745;fill-opacity:1" d="M13.8,10.25L13.7 10.4L11.9 10.45L11.4 10.6L11.4 10.5L11.7 10.35L12.6 10.05L14.25 9.75L13.8 10.25M20.05,10.1L19.95 9.9L19.95 9.85L20.5 9.8L24 9.3L24.3 9.4L25 9.9L23.75 10.2L21.3 10.45L20.9 10.5L20.05 10.1" />
<path style="fill:#19481E;fill-opacity:1" d="M28.15,11.8L28.45 12.2L28.5 12.5L28.4 13.75L28.1 14.6L27.8 14.9L27.5 15.25L27.1 15.4L26.75 15.15L26.6 14.85L26.6 14.15L26.75 13.55Q26.9 12.8 27.35 12.3L27.7 12Q27.95 11.75 28.15 11.8M27.9,13L27.75 12.75L27.45 12.7L27.2 12.75L27.15 13.05L27.25 13.2L27.55 13.35L27.85 13.2L27.9 13" />
<radialGradient
id="RadialGradID_702" gradientUnits="userSpaceOnUse" gradientTransform="matrix(-0.00192261, 6.10352e-005, 6.10352e-005, 0.00192261, 27.8, 13.25)" spreadMethod ="pad" cx="0" cy="0" r="819.2" fx="0" fy="0" >
<stop  offset="0"  style="stop-color:#F7EFB1;stop-opacity:1" />
<stop  offset="1"  style="stop-color:#DBAC50;stop-opacity:1" />
</radialGradient>
<path style="fill:url(#RadialGradID_702) " d="M26.3,13.55L25.95 12.9L25.85 12.45Q26.85 11.9 27.7 12L27.35 12.3Q26.9 12.8 26.75 13.55L26.6 14.15L26.3 13.55M28.1,14.6L28.4 13.75L28.5 12.5L28.45 12.2L29.2 12.8L29.6 13.5L29.8 13.95L29.65 13.95L28.95 14.25L28.8 14.35L28.1 14.6" />
<path style="fill:#1F3521;fill-opacity:1" d="M30.45,14.25L30.5 14.4L30.6 14.75L30.65 15L30.6 15L30.55 15.05L29.85 15.35L29 15.65L27.9 15.9Q26.45 16.05 25.6 14.9L24.75 13.7L24.6 13.5L24.45 13.2L24.4 13.1L24.3 13L24.3 12.8Q24.35 12.6 24.7 12.35Q25.15 12.05 25.95 11.65Q26.5 11.4 27 11.25L28.35 11.4L28.7 11.55Q29.75 12.25 30.2 13.4L30.3 13.75L30.45 14.25M26.75,15.15L27.1 15.4L27.5 15.25L28 15.2L28.8 15L29.5 14.7L29.75 14.65L29.95 14.55L29.8 13.95L29.6 13.5L29.2 12.8L28.45 12.2L28.15 11.8Q27.95 11.75 27.7 12Q26.85 11.9 25.85 12.45L25.4 12.65L25.1 12.85L25.75 14.05L26.45 14.95L26.75 15.15" />
<path style="fill:#F3F3F3;fill-opacity:1" d="M27.85,13.2L27.55 13.35L27.25 13.2L27.15 13.05L27.2 12.75L27.45 12.7L27.75 12.75L27.9 13L27.85 13.2" />
<path style="fill:#A87C28;fill-opacity:1" d="M26.45,14.95L25.75 14.05L25.1 12.85L25.4 12.65L25.85 12.45L25.95 12.9L26.3 13.55L26.6 14.15L26.6 14.85L26.75 15.15L26.45 14.95M28.8,14.35L28.95 14.25L29.65 13.95L29.8 13.95L29.95 14.55L29.75 14.65L29.5 14.7L28.8 15L28 15.2L27.5 15.25L27.8 14.9L28.1 14.6L28.8 14.35" />
<path style="fill:#9D8E79;fill-opacity:1" d="M30.4,18.45L31.7 18.75L31.45 19.15L31.15 19.35L30.65 19.15L30.1 18.9L30 19.45L29.75 20L29.75 20.05L29.7 20.05L29.65 19.6L29.25 18.3L29.25 18.25L30.4 18.45M30.15,20.95L29.7 20.8L30.8 20.35L30.6 20.7Q30.3 20.8 30.15 20.95M25.85,19.3L27.25 18.75L27.75 18.6Q27 19.2 26.85 19.9L25.85 19.3M27.3,20.1Q27.7 19.45 28.45 18.75L28.6 18.6L28.75 18.9L28.55 19.2L28.1 19.75L27.85 20.3L27.3 20.1" />
<path style="fill:#3E3A2F;fill-opacity:1" d="M31.15,19.35L31.45 19.15L30.8 20.35L29.7 20.8L29.3 20.65L29.1 20.65L29.05 19.85L29.05 19.75L28.75 18.9L28.6 18.6L28.45 18.75Q27.7 19.45 27.3 20.1L26.85 19.9Q27 19.2 27.75 18.6L28.3 18.4L29.25 18.25L29.25 18.3L29.65 19.6L29.7 20.05L29.75 20.05L31.15 19.35" />
<path style="fill:#4F915C;fill-opacity:1" d="M9.2,21.6L9.25 21.55Q9.4 21 9.95 21L10.05 21L10.2 21.1L10.2 21.3L10.15 21.6L9.6 21.75L9.45 21.8L9.2 21.6M24.8,16.4Q25.25 16.95 24.5 16.95L24.45 16.85L24.4 16.55L24.45 16.45L24.7 16.35L24.8 16.4M31.25,13.9Q30.55 14.1 31.05 13.55L31.15 13.6L31.25 13.85L31.25 13.9" />
<path style="fill:#CDBFA8;fill-opacity:1" d="M30.45,23.2Q30.2 22.45 28.95 21.9L28.8 21.85L28.75 21.65Q28.65 21.45 28.45 21.45L27.95 21.55L27.2 21.25L27.2 21.5L26.65 21.65L26.65 21.6Q26.5 21.2 26.7 21.1L26.25 20.85L24 19.6L24.25 19.6L24.95 19.5L25.75 20.05Q26.6 20.7 27.55 20.9L27.75 20.95L28.4 21.15L29.3 21.3Q29.75 21.4 29.95 21.6L30.15 21.75L30 22.05L30.05 22.05L30.1 22.1L30.55 22.75L30.45 23.2M22.9,20.45L22.75 20.5L22.75 20.45L22.65 20.35Q22.4 20 22.8 19.8L22.85 19.85L23.05 20.05L22.95 20.4L22.9 20.45" />
<path style="fill:#B3A38A;fill-opacity:1" d="M26.25,20.85L26.7 21.1Q26.5 21.2 26.65 21.6L26.65 21.65L27.2 21.5L27.2 21.25L27.95 21.55L28.45 21.45Q28.65 21.45 28.75 21.65L28.8 21.85L28.95 21.9Q30.2 22.45 30.45 23.2L30 23.95Q28.95 23.75 27.8 23.05L27.35 23.2L27.3 23.15Q27.2 22.85 27.35 22.7L26.15 21.9L25.95 21.7L25.8 21.4L25.6 21.3Q25.15 21.3 25.15 21.7L24.9 21.6L24.85 21.2L24.9 21.1L25 21.1L23.55 20.55L22.95 20.4L23.05 20.05L22.85 19.85L22.8 19.8Q22.4 20 22.65 20.35L22 20.35L21.3 20.35L20.65 20.35L20.65 20.5L19.7 20.75L19.5 20.5L19.45 20.5L19.35 20.45L19.2 20.45L18.85 20.6L18.75 20.65L18.7 20.65L17.45 21L18.3 19.35L19 19.3L19.6 19.25L21.4 19.4L22.15 19.5L23.2 19.55L23.95 19.6L24 19.6L26.25 20.85M26.8,22.9L26.95 23.2L26.8 23.3L26.4 23.1L26.4 23L26.7 22.9L26.8 22.9M29.25,22.5L29.15 22.5Q28.85 22.5 28.85 22.85L29.35 22.8L29.25 22.5M19.45,19.75L19.4 19.75L19.1 19.8L19 19.85L18.95 20.1L19.1 20.35L19.35 20.4L19.65 20L19.65 19.95L19.6 19.85L19.45 19.75" />
<path style="fill:#877861;fill-opacity:1" d="M17.45,21L18.7 20.65L18.75 20.65L18.85 20.6L19.2 20.45L19.35 20.45L19.45 20.5L19.5 20.5L19.7 20.75L20.65 20.5L20.65 20.35L21.3 20.35L22 20.35L22.65 20.35L22.75 20.45L22.75 20.5L22.9 20.45L22.95 20.4L23.55 20.55L25 21.1L24.9 21.1L24.85 21.2L24.9 21.6L25.15 21.7Q25.15 21.3 25.6 21.3L25.8 21.4L25.95 21.7L26.15 21.9L27.35 22.7Q27.2 22.85 27.3 23.15L27.35 23.2L27.8 23.05Q28.95 23.75 30 23.95L29.3 24.25L28.8 24.35L27.45 24.2Q26.55 23.95 25.45 22.8L24.55 22.1L23.25 21.55L22.65 21.4L22.55 21.35L21.8 21.3Q20.65 21.35 19.05 22.1L18.75 22.25Q18.05 21.8 17.05 21.6L17.2 21.3L17.45 21M26.7,22.9L26.4 23L26.4 23.1L26.8 23.3L26.95 23.2L26.8 22.9L26.7 22.9M29.35,22.8L28.85 22.85Q28.85 22.5 29.15 22.5L29.25 22.5L29.35 22.8M19.6,19.85L19.65 19.95L19.65 20L19.35 20.4L19.1 20.35L18.95 20.1L19 19.85L19.1 19.8L19.4 19.75L19.45 19.75L19.6 19.85" />
<path style="fill:#3C3427;fill-opacity:1" d="M30.4,21.1L30.2 21.6L30.15 21.75L29.95 21.6Q29.75 21.4 29.3 21.3L28.4 21.15L27.75 20.95L27.55 20.9Q26.6 20.7 25.75 20.05L24.95 19.5L25.85 19.3L26.85 19.9L27.3 20.1L27.85 20.3L28.45 20.5L28.6 20.5L29.1 20.65L29.3 20.65L29.7 20.8L30.15 20.95L30.4 21.1M30.55,22.75L31.1 23.6L31.2 23.7L30.95 24.1L30.6 24.5L30.55 24.55L30.4 24.7L29.1 25.15L27.95 25.15L27.6 25.1L27 24.9L25.65 24.1L25 23.5L24.4 23L24.3 22.95Q23.1 22.15 21.65 22.25L21.5 22.3L19.55 22.8L18.75 22.25L19.05 22.1Q20.65 21.35 21.8 21.3L22.55 21.35L22.65 21.4L23.25 21.55L24.55 22.1L25.45 22.8Q26.55 23.95 27.45 24.2L28.8 24.35L29.3 24.25L30 23.95L30.45 23.2L30.55 22.75" />
<path style="fill:#223A24;fill-opacity:1" d="M29.1,25.15L30.4 24.7L30.55 24.55L30.6 24.5L31.3 24.2L31.4 24.15L31.7 24.85L31.45 24.95L29.1 25.15M27.55,27.75L28 27.8Q28.85 27.9 29.45 28.4L28.65 28.65L28.15 28.45L28.05 28.4L27.55 27.75M31.9,30.75L31.4 30.75L31.4 30.65L32 30.75L31.9 30.75M36.2,26.3L36.15 26.1L35.95 25.7L35.75 25.5L34.95 25.4L34.6 25.5L34.35 25.55L34.2 24.7L34.45 24.65L35.4 24.45L35.45 24.45Q35.95 24.5 36.5 25.05L36.7 25.25L36.8 25.4L37.05 25.95L36.9 27.3Q36.5 28.6 35.95 28.75L35.65 28.85L35.25 28.2L35.95 27.6L36.2 26.9L36.2 26.65L36.2 26.3M22.2,34.2L22.2 34.1L22.25 34.2L22.2 34.2M21.35,34.65Q22.3 35.55 23.95 35.45L25.5 35.4L26.45 35.35L26.75 35.25L26.9 35.2L26.9 35.65Q26.65 35.95 26 35.95L23.8 36.05Q22.2 36.1 21.2 35.2L20.1 34.35L20.3 34.15L20.45 34Q20.9 34.25 21.35 34.65M21.5,22.3L21.65 22.25Q23.1 22.15 24.3 22.95L23.1 22.55L22.5 22.45L21.55 22.45L21.1 22.55L21.5 22.3M21.3,26.5L22.5 25.5Q22 25.95 21.65 26.75L21.3 26.5M25.35,27.55L25.7 27.05L25.85 26.3L25.8 25.95L25.45 25.25L25 24.95L24.55 24.9Q23.7 24.3 22.65 24L22.4 23.9L21.1 23.6L20.1 23.55L19.95 23.3L19.55 22.8L20.35 22.85L23.3 23.5Q25.95 24.3 26.5 25.8L26.65 26.55L26.4 27.3L25.35 27.55" />
<path style="fill:#F0EAC6;fill-opacity:1" d="M30.15,20.95Q30.3 20.8 30.6 20.7L30.4 21.1L30.15 20.95M30,19.45L30.1 18.9L30.65 19.15L30 19.45M27.85,20.3L28.1 19.75L28.55 19.2L28.6 19.9L28.6 20.5L28.45 20.5L27.85 20.3" />
<path style="fill:#FFFCEE;fill-opacity:1" d="M30.65,19.15L31.15 19.35L29.75 20.05L29.75 20L30 19.45L30.65 19.15M28.75,18.9L29.05 19.75L29.05 19.85L29.1 20.65L28.6 20.5L28.6 19.9L28.55 19.2L28.75 18.9" />
<linearGradient
id="LinearGradID_703" gradientUnits="userSpaceOnUse" gradientTransform="matrix(-0.00172424, 0.00300598, -0.00297546, -0.00169373, 36.25, 19.75)" spreadMethod ="pad" x1="-819.2" y1="0" x2="819.2" y2="0" >
<stop  offset="0.00392157" style="stop-color:#917162;stop-opacity:1" />
<stop  offset="1" style="stop-color:#C2AEA0;stop-opacity:1" />
</linearGradient>
<path style="fill:url(#LinearGradID_703) " d="M33.5,26.7L33.4 26.5L32.95 25.25L32.75 24.6L32.65 24.25L32.55 23.75Q32.2 22.3 32.4 21.95Q32.75 20.25 33.7 18.6Q34.25 17.65 34.95 16.75Q37 14.2 37.2 14.3Q36.9 14.85 36.8 16.4L36.75 16.4Q34.35 19.15 33.75 21Q33.3 22.55 33.35 24.05L33.4 24.65L33.5 25.3L33.55 25.4L33.7 25.95L33.85 26.5L34.55 28.4Q34 27.9 33.5 26.7" />
<path style="fill:#4D3212;fill-opacity:1" d="M28.4,28.75L28.45 28.8L28.2 28.8L28.1 28.55L28.15 28.6L28.4 28.75M37.05,24.6L37.45 25.15L37.5 25.2L37.05 25.95L36.8 25.4L36.9 25.25L36.8 25.15L36.7 25.05L36.6 24.95L36.05 24.5L35.9 24.4L35.8 24.3L35.65 24.2L35.45 24.45L35.4 24.45L34.45 24.65L34.8 24.15Q35.35 23.55 35.55 23.55L35.95 23.75L36.5 24.15L36.6 24.2L36.7 24.25L36.95 24.5L37.05 24.6" />
<path style="fill:#9A7226;fill-opacity:1" d="M36.5,25.05Q35.95 24.5 35.45 24.45L35.65 24.2L35.8 24.3L35.9 24.4L36.05 24.5L36.6 24.95L36.5 25.05" />
<path style="fill:#917162;fill-opacity:1" d="M30.7,29.3L31.45 29.3L33.4 29.7L33.6 29.75L34.35 29.6L33.8 30.75L33.45 30.5Q33 30.2 32.5 30.05L31.65 29.9L31.15 29.85L30.7 29.3M38.35,24.2L39.3 24.4L39.3 24.9L38.5 24.65L37.3 24.6L37.05 24.6L36.95 24.5L36.7 24.25L38.35 24.2" />
<path style="fill:#8C3C19;fill-opacity:1" d="M12.65,5L13.85 8.65L12.4 8.95L12.4 8.75L12.5 8.65L12.6 8.5Q12.8 8.4 12.9 8.6L12.95 8.7L12.9 8.5L12.65 6.15L12.65 5" />
<path style="fill:#1F3A21;fill-opacity:1" d="M21.65,32.75L21.85 33.25L21.8 33.3Q20.95 33.55 20.45 34L20.3 34.15L20.1 34.35L19.55 35.15L19.5 35.2Q19.3 35.75 19 35.45L18.7 35.15L18.6 35.05L18.2 34.7L17.2 34.1L16.8 33.9L16.7 33.85L16.35 33.7L15.9 33.6L15.7 33.55L14.95 33.55L14.45 33.6L14 33.65L13.9 33.65Q13.6 33.7 13.35 32.75L12.55 31L12.1 30.35L11.75 29.95L11.55 29.75L10.95 29.35L10.4 29L10.25 28.95L8.75 28.45Q7.9 28.25 8.75 27.75L9.4 27.35L9.75 27.1L10.95 26L11.05 25.9L11.15 25.75L11.25 25.6L11.35 26.4L10.75 27L10.55 27.15L10.4 27.3L9.8 27.75Q10.7 27.55 11.45 27L11.55 26.95L11.55 27L11.8 27.5L11.65 27.6L10.55 28.05L9.9 28.1L10.5 28.35L10.8 28.5L11.45 28.9L12.25 29.55L12.4 29.75L13.2 30.8L13.5 31.25L13.6 31.55L13.7 31.95L13.7 32.05L13.75 32L14 31.55L14.8 29.85L14.8 29.8L15.3 30L15.05 30.3L15.05 30.35L14.3 32L14.25 32.1L14.2 32.5L14.2 32.6L15.85 30.3L15.9 30.2L16.45 30.4L15.15 32.35L15.05 32.5L14.95 32.6L14.55 33Q16.4 32.4 18.65 34.25L18.55 33.7L18.55 33.35L18.55 32.75L18.55 32.35L18.55 32.05L18.5 31.95L18.5 31.85L18.5 31.1L19.05 31.3L19.05 31.7L19.05 31.85L19.05 32.1L19.05 32.35L19.05 33.4L19.05 34L19.1 34.3L19.1 34.55L19.15 34.45L19.2 34.45L19.3 34.1L19.45 33.6L19.85 31.7L19.85 31.55L20 31.55L20.55 31.75L20.45 32.05L20.05 33.55L20.15 33.5L20.2 33.45Q21.05 32.95 21.5 32.8L21.65 32.75" />
<path style="fill:#48A142;fill-opacity:1" d="M15.5,30.05L15.9 30.2L15.85 30.3L14.2 32.6L14.2 32.5L14.25 32.1L14.3 32L15.5 30.05M19.85,31.7L19.45 33.6L19.3 34.1L19.2 34.45L19.15 34.45L19.15 34.4L19.2 34.1L19.25 33.75L19.25 33.5L19.35 32.75L19.5 31.45L19.85 31.55L19.85 31.7M21.5,32.8Q21.05 32.95 20.2 33.45L21.3 32.6L21.5 32.45L21.6 32.6L21.65 32.75L21.5 32.8M14.55,33L14.95 32.6Q15.55 32.35 16.45 32.6L16.5 32.55L16.5 32.5L16.7 32.45L17.05 32.7L17.05 32.8L17.35 33L18.1 33.7L18.65 34.25Q16.4 32.4 14.55 33M12.35,28.45L12.2 28.6L12.2 28.45Q12.2 28.25 12.35 28.45M13.75,32L13.7 32.05L13.7 31.95L13.6 31.55L13.5 31.25L13.2 30.8L12.4 29.75L12.25 29.55L11.45 28.9L10.8 28.5L11.5 28.85L11.65 28.9L12.4 29.3L12.4 29.2L12.6 29.25L12.85 29.35L12.85 29.5L12.75 29.55L13.35 30.45L13.4 30.55L13.85 31.2L14 31.55L13.75 32M17.8,32.7L17.6 32.7L17.45 32.65L17.4 32.5Q17.5 32.35 17.65 32.35L17.8 32.35L17.85 32.5L17.85 32.6L17.8 32.7M17.05,31.8L17.15 31.75L17.25 31.75L17.3 31.95Q17.3 32.1 17.1 32.05L17.05 31.95L17.05 31.8" />
<path style="fill:#1F581B;fill-opacity:1" d="M28.15,28.6L28.15 28.45L28.65 28.65L28.4 28.75L28.15 28.6M11.45,27.85L10.55 28.05L11.65 27.6L11.8 27.5L11.9 27.7L11.45 27.85M14.3,32L15.05 30.35L15.05 30.3L15.3 30L15.5 30.05L14.3 32M16.45,30.4L17.05 30.6L17.25 30.7L17.35 30.7L17.25 30.9L17.1 31.1Q17.05 31.1 16.95 31.2L16.85 31.2L16.75 31.15L16.7 31L16.65 31L15.7 32Q15.35 32.2 15.15 32.35L16.45 30.4M18.5,31.85L18.25 31.1L18.2 31.05L18.2 31L18.5 31.1L18.5 31.85M20.6,32.3L20.3 33.2L20.15 33.5L20.05 33.55L20.45 32.05L20.55 31.75L20.7 31.8L20.6 32.3" />
<path style="fill:#368035;fill-opacity:1" d="M11.05,26.95L11 27L10.4 27.3L10.55 27.15L10.75 27L11.35 26.4L11.45 26.7L11.05 26.95M13.9,29.4Q14.3 29.6 14.8 29.8L14.8 29.85L14 31.55L13.85 31.2L13.4 30.55L13.35 30.45L12.75 29.55L12.85 29.5L12.85 29.35L12.6 29.25L12.4 29.2L12.4 29.3L11.65 28.9L11.5 28.85L10.8 28.5L10.5 28.35L9.9 28.1L10.55 28.05L11.45 27.85L11.9 27.7Q12.5 28.65 13.35 29.15L13.35 29.3L13.5 29.25L13.75 29.35L13.8 29.5L13.8 29.45L13.85 29.45L13.9 29.4M18.2,31.05L18.25 31.1L18.5 31.85L18.5 31.95L18.55 32.05L18.55 32.35L18.55 32.75L18.55 33.35L18.55 33.7L18.65 34.25L18.1 33.7L17.35 33L17.05 32.8L17.05 32.7L16.7 32.45L16.5 32.5L16.5 32.55L16.45 32.6Q15.55 32.35 14.95 32.6L15.05 32.5L15.15 32.35Q15.35 32.2 15.7 32L16.65 31L16.7 31L16.75 31.15L16.85 31.2L16.95 31.2Q17.05 31.1 17.1 31.1L17.25 30.9L17.35 30.7L17.25 30.7L17.35 30.7L18.2 31L18.2 31.05M19.35,32.75L19.25 33.5L19.25 33.75L19.2 34.1L19.15 34.4L19.15 34.45L19.1 34.55L19.1 34.3L19.05 34L19.05 33.4L19.05 32.35L19.05 32.1L19.05 31.85L19.05 31.7L19.05 31.3L19.5 31.45L19.35 32.75M21.3,32.6L20.2 33.45L20.15 33.5L20.3 33.2L20.6 32.3L20.7 31.8L21.5 32.45L21.3 32.6M12.2,28.45L12.2 28.6L12.35 28.45Q12.2 28.25 12.2 28.45M17.85,32.6L17.85 32.5L17.8 32.35L17.65 32.35Q17.5 32.35 17.4 32.5L17.45 32.65L17.6 32.7L17.8 32.7L17.85 32.6M17.05,31.95L17.1 32.05Q17.3 32.1 17.3 31.95L17.25 31.75L17.15 31.75L17.05 31.8L17.05 31.95" />
<path style="fill:#53AD4D;fill-opacity:1" d="M10.4,27.3L11 27L11.05 26.95L11.45 26.7L11.55 26.95L11.45 27Q10.7 27.55 9.8 27.75L10.4 27.3M13.35,29.3L13.35 29.15L13.5 29.25L13.35 29.3M13.85,29.45L13.8 29.45L13.8 29.5L13.75 29.35L13.9 29.4L13.85 29.45" />
<path style="fill:#4F8A91;fill-opacity:1" d="M12.85,33.55L13.05 33.45L13.1 33.45L13.2 33.65Q12.9 33.95 12.85 33.55M11.65,31.95L11.8 31.95L11.85 31.95L11.9 32L12 32.3Q11.8 32.5 11.6 32.3L11.55 32.2L11.6 32.1L11.6 32L11.65 31.95M11.15,31.35L11.2 31.55L10.95 31.65Q10.8 31.45 11.1 31.3L11.15 31.35M15.05,34.3Q14.95 34.05 15.2 33.95L15.5 34.15Q15.45 34.5 15.05 34.35L15.05 34.3" />
<path style="fill:#745416;fill-opacity:1" d="M36.6,24.95L36.7 25.05L36.8 25.15L36.9 25.25L36.8 25.4L36.7 25.25L36.5 25.05L36.6 24.95" />
<path style="fill:#132715;fill-opacity:1" d="M28.15,28.6L28.1 28.55L28.05 28.4L28.15 28.45L28.15 28.6" />
</g>
</svg>
