<?xml version="1.0" encoding="utf-8"?>
<svg version="1.1" id="Layer_1"
xmlns="http://www.w3.org/2000/svg"
xmlns:xlink="http://www.w3.org/1999/xlink"
xmlns:author="http://www.sothink.com"
width="20px" height="16px"
xml:space="preserve">
<g id="1191" transform="matrix(1, 0, 0, 1, -8.3, -13.95)">
<path style="fill:#4A4131;fill-opacity:1" d="M25,14.95L24.9 15.1L23.15 17.35Q21.85 19 20.95 21.1Q20.95 21.35 21.1 21.6L21.25 21.85L21.45 22.05L22.35 22.15L23.8 20.75L25.15 18.45L26.05 16.4Q26.35 15.65 26.55 15.45L26.65 15.3Q27.8 15.65 27.15 16.25Q26.55 16.8 26.05 18.1L24.45 20.9L23.05 22.65L21.9 23.35L19.75 24.95Q17.85 26.25 16.55 26.7Q16.35 27.5 15.2 28.35L14 29.05Q11.15 30.5 9.15 28.1Q8.5 27.35 8.35 26.65Q8.1 25.55 9 24.45Q9.75 23.6 10.85 22.8Q11.9 22.05 12.75 21.95L14.1 22.05L14.6 22.2L14.85 22.3L15.55 22.2L16.75 21.7Q17.55 21.35 18.4 21.15L19.8 20.8L19.95 20.8L20.35 20.75Q20.6 19.9 21.6 18.35L23.7 15.1L24.4 13.95L25.05 14.25L25.1 14.3Q25.25 14.55 25 14.95M20.25,21.5L19.5 21.6Q18.2 21.8 17.25 22.25L15.5 23.15L16.3 24.55Q16.6 25.2 16.55 25.8L19.8 24.05L21.35 22.85L20.7 22.2L20.6 22.05L20.25 21.5M9.35,27.05Q10.7 28.75 12.3 28.75Q13.75 28.7 15.2 27.25L15.45 26.95Q16.15 26.2 15.7 24.9L15.65 24.7Q15.25 23.7 14.45 23.05L13.9 22.8L13.85 22.8L12.8 22.9Q10.05 23.7 9.2 25.9L9.1 26.45L9.35 27.05" />
<path style="fill:#B3A38A;fill-opacity:1" d="M24.9,15.1L25 14.95Q25.25 14.55 25.1 14.3Q25.7 14.4 26.55 15.45Q26.35 15.65 26.05 16.4L25.15 18.45L23.8 20.75L22.35 22.15L21.45 22.05L21.25 21.85L22.55 20.7Q24.25 19.05 24.6 16.95L24.9 15.1M18.9,23.3L20.6 22.05L20.7 22.2L21.35 22.85L19.8 24.05L16.55 25.8Q16.6 25.2 16.3 24.55Q17.55 24.2 18.9 23.3M14.25,24.8L13.5 24.25L13.05 24.55L10.15 26.1L9.1 26.45L9.2 25.9Q10.05 23.7 12.8 22.9L13.85 22.8L13.9 22.8L14.45 23.05Q15.25 23.7 15.65 24.7L15.7 24.9Q16.15 26.2 15.45 26.95L15.2 27.25Q15.05 25.75 14.25 24.8" />
<path style="fill:#CCC6B8;fill-opacity:1" d="M24.6,16.95Q24.25 19.05 22.55 20.7L21.25 21.85L21.1 21.6Q20.95 21.35 20.95 21.1Q21.85 19 23.15 17.35L24.9 15.1L24.6 16.95M16.3,24.55L15.5 23.15L17.25 22.25Q18.2 21.8 19.5 21.6L20.25 21.5L20.6 22.05L18.9 23.3Q17.55 24.2 16.3 24.55M9.1,26.45L10.15 26.1L13.05 24.55L13.5 24.25L14.25 24.8Q15.05 25.75 15.2 27.25Q13.75 28.7 12.3 28.75Q10.7 28.75 9.35 27.05L9.1 26.45" />
</g>
</svg>
