<?xml version="1.0" encoding="utf-8"?>
<svg version="1.1" id="Layer_1"
xmlns="http://www.w3.org/2000/svg"
xmlns:xlink="http://www.w3.org/1999/xlink"
xmlns:author="http://www.sothink.com"
width="156px" height="144px"
xml:space="preserve">
<g id="3053" transform="matrix(1, 0, 0, 1, 44.65, 46.65)">
<path style="fill:#564B41;fill-opacity:1" d="M64.15,-14.6Q61.1 -5.25 49.4 -1.55Q40.25 1.35 29 -3Q17.7 -7.35 15.3 -14.95Q13.55 -20.45 14.3 -24.65L15.15 -25.4Q23.3 -32.15 34 -35.5Q49.65 -40.4 61.3 -32.05L64.05 -29.85Q66.35 -21.3 64.15 -14.6M74.2,23.05Q69.55 10.2 74 6.95L74.35 6.7Q76.9 5 79.25 4.25Q87.45 1.7 95.1 8.7Q100.95 14.1 102.95 20.4Q105.65 29 100.15 36.5L97.45 39.6Q78.95 36.5 74.2 23.05M6.05,3.95L7.3 3.15Q16.95 1.7 25.95 7.4Q28.65 9.1 31.05 11.3Q33.2 8.9 35.75 6.8Q38.25 4.9 40.15 4Q45.2 2.4 52.75 5.8Q61.3 9.6 63.6 16.8Q65.35 22.45 63.15 27.15Q59.95 33.9 48.8 37.4Q43 39.25 37.7 39.4L34.45 39.35L33.65 41.65Q31.6 45.95 27.55 47.25Q19.95 49.65 14.7 48.15Q7.2 45.95 4 35.8Q-0.15 22.6 2.65 12.25Q3.55 8.8 5.25 5.55L6.05 3.95M80.85,61Q81.6 66.05 80.15 69.5Q77.75 74.95 69.1 77.7Q61.3 80.15 56.25 78.6Q51.95 77.25 50 73.2Q50.4 70.4 51.7 67.45Q54.65 60.65 60.8 57.95L61.1 57.8Q66.65 56.45 71.5 57Q77.15 57.7 80.85 61M15.1,72.65L15.7 74.6Q16.2 76.75 15.95 78.7Q15.15 84.7 7.55 87.1Q0.45 89.35 -5.7 86.55Q-12.4 83.55 -14.85 75.8Q-17.2 68.3 -14.95 63.75Q-13.15 60.05 -8.5 58.6L-5.8 58.05Q-2.45 58.8 2 60.85Q12.95 65.85 15.1 72.65M-18.95,-9.05Q-15.25 -8.65 -11.85 -6.05Q-6.95 -2.4 -5.55 2.1Q-4.6 5.2 -4.25 8.1Q-3.85 12.3 -4.85 16.05Q-7 24.6 -16.15 27.5Q-23.7 29.85 -28.75 26.7Q-33.3 23.85 -35.6 16.55Q-38.65 6.75 -35.55 0Q-32.9 -5.7 -26.55 -8Q-22.65 -9.55 -18.95 -9.05" />
<path style="fill:#362F29;fill-opacity:1" d="M97.45,39.6Q92.85 44 85.9 46.2Q77.75 48.75 70.05 40.05Q65.85 46.2 55.95 49.3Q48.05 51.8 41.65 50.6L39.4 50L39.3 50.7Q37.6 61.4 26.3 64.95L24.2 65.55L24.95 67.45Q27.05 74.1 25.55 80.9Q23.05 92.2 10.65 96.1Q2.2 98.75 -5.85 94.45Q-14.65 89.8 -18.1 78.9Q-21.3 68.7 -17.95 61.05Q-14.45 53.15 -4.6 50.05L-3.45 49.75L-4.1 48.2L-4.75 46.15Q-6.4 40.9 -6.85 37.6Q-14.9 39.75 -21.65 37.5Q-33.35 33.65 -38.65 16.95Q-41.25 8.55 -39.35 1.2Q-36.9 -8.45 -29.65 -10.75Q-22.4 -13.05 -18.25 -12Q-10.95 -11.25 -4.15 -5.6Q1.65 -0.7 3.6 4L4.1 5.4L6.05 3.95L5.25 5.55Q3.55 8.8 2.65 12.25Q-0.15 22.6 4 35.8Q7.2 45.95 14.7 48.15Q19.95 49.65 27.55 47.25Q31.6 45.95 33.65 41.65L34.45 39.35L37.7 39.4Q43 39.25 48.8 37.4Q59.95 33.9 63.15 27.15Q65.35 22.45 63.6 16.8Q61.3 9.6 52.75 5.8Q45.2 2.4 40.15 4Q38.25 4.9 35.75 6.8Q33.2 8.9 31.05 11.3Q28.65 9.1 25.95 7.4Q16.95 1.7 7.3 3.15Q9.3 1.95 11.5 1.05Q8.6 -2.9 7.25 -7.15Q4.45 -16.05 14.3 -24.65Q13.55 -20.45 15.3 -14.95Q17.7 -7.35 29 -3Q40.25 1.35 49.4 -1.55Q61.1 -5.25 64.15 -14.6Q66.35 -21.3 64.05 -29.85Q69.85 -24.8 71.8 -18.55Q74.85 -8.95 64.05 0.1Q61.3 2.45 58.3 4.4L59.75 4.65Q65.35 5.95 68.65 11.55L69 11Q71.55 8.55 74 6.95Q69.55 10.2 74.2 23.05Q78.95 36.5 97.45 39.6M56.25,78.6Q61.3 80.15 69.1 77.7Q77.75 74.95 80.15 69.5Q81.6 66.05 80.85 61Q84.15 64.05 85.8 69.3Q87.35 74.25 84.85 79.55Q81.9 85.7 74.65 87.95Q66.5 90.55 60.05 88.95Q52.65 87.05 50.5 80.15Q49.45 76.85 50 73.2Q51.95 77.25 56.25 78.6M2,60.85Q-2.45 58.8 -5.8 58.05L-8.5 58.6Q-13.15 60.05 -14.95 63.75Q-17.2 68.3 -14.85 75.8Q-12.4 83.55 -5.7 86.55Q0.45 89.35 7.55 87.1Q15.15 84.7 15.95 78.7Q16.2 76.75 15.7 74.6L15.1 72.65Q12.95 65.85 2 60.85M-26.55,-8Q-32.9 -5.7 -35.55 0Q-38.65 6.75 -35.6 16.55Q-33.3 23.85 -28.75 26.7Q-23.7 29.85 -16.15 27.5Q-7 24.6 -4.85 16.05Q-3.85 12.3 -4.25 8.1Q-4.6 5.2 -5.55 2.1Q-6.95 -2.4 -11.85 -6.05Q-15.25 -8.65 -18.95 -9.05Q-22.65 -9.55 -26.55 -8" />
<path style="fill:#FAED2D;fill-opacity:1" d="M26.7,-18.1L23.6 -17.55Q22.95 -17.7 21.5 -18.55Q19.95 -19.4 19.85 -21.15Q19.75 -22.65 21.55 -23.8L22.25 -24.2Q24.1 -25.2 26.3 -25Q28.35 -24.85 29 -23.8L29.1 -23.6Q29.65 -22.4 29.4 -20.6Q29.15 -18.8 26.7 -18.1M33.75,5Q31.25 1 27.15 1Q24.55 1 21.5 3Q18 5.3 17.4 9.05L17.15 8.65Q16.5 7.35 16.5 5.75Q16.5 2.65 20.25 -0.5Q24.05 -3.75 28.1 -3.75L31.8 -3.3L32.55 -2.85Q35.5 -0.75 35.5 3.25L35.2 6.2L34.9 7.25L33.75 5M63.25,-46.1Q67.3 -47.5 71.8 -45.25Q75.95 -43.1 75.95 -39.2L76 -38.85L73.5 -37.3Q71.4 -36.15 67.05 -38.05Q62.75 -39.95 62.3 -42.25L61.7 -45.15Q62.35 -45.8 63.25 -46.1M54.65,-8.35L55.35 -7.2Q55.45 -6.45 55 -5.85L54 -5.05Q53.35 -4.8 52.45 -5.05Q51.55 -5.3 51.2 -6Q50.9 -6.7 51.55 -7.85Q52.05 -9 53.6 -8.8Q54.2 -8.75 54.65 -8.35M77.55,51.75L85.45 48.15L87.45 47.15Q93.35 44.2 99 37.7Q104.6 31.15 104.3 14.8Q104 -1.55 96.5 -9.5Q91.9 -14.35 85.45 -16.25Q81.2 -17.5 76.15 -17.5Q68.2 -17.5 63.25 -15.55L65.8 -17.4Q70.1 -20 75.85 -20.45L78.85 -20.55L85.45 -20.1Q88.15 -19.7 89.95 -18.9Q93.5 -17.4 96.5 -14.95Q99.5 -12.65 101.05 -10.85L103.35 -7.7L103.95 -6.7L106.65 -1.6Q107.85 1.2 108.65 3.85Q109.6 6.4 110.4 11.55Q111.15 16.55 110.75 20.95Q110.45 25.3 108.6 30.25Q106.7 35.2 101.8 40.55Q96.75 46 92.05 48.1Q88.75 49.65 85.45 50.65L82.5 51.35L77.55 51.75M75.95,-4.7L78 -3.5Q78.9 -2.85 78.65 -0.75Q78.4 1.3 76 1.5L73.7 1.45L72.55 1.15Q71.5 0.65 71.5 -0.95Q71.5 -2.55 72.15 -3.75Q72.7 -4.75 73.7 -4.85L74.1 -4.85L75.95 -4.7M46.25,12Q44.85 12 44 11.25Q43 10.4 43 8.9Q43 5.5 46.35 5.5Q47 5.5 48 6L48.9 6.85Q49.15 7.4 49 8.85L48.45 11.15Q48 12 46.25 12M52.95,37.35Q49.9 36.85 47.85 33.7Q45.9 30.8 44.15 30.8Q43.65 30.8 43.15 31.1Q43.7 29.1 45 28Q46.5 26.75 48.6 26.75Q49.7 26.75 51.65 27.75L52.55 28.45Q53.15 28.75 54.15 30.8Q55.15 32.8 55.35 34.9L55.35 37.85L55.35 38Q54.3 37.55 52.95 37.35M11.85,35.35Q9.4 37.2 7.6 37.2Q3.55 37.2 0.25 30.85Q-1.5 27.4 -2.25 26.45Q-3.8 24.45 -5.75 24.45Q-8.2 24.45 -10.3 26.1Q-9.7 20.9 -7 18Q-3.75 14.5 2.25 14.5Q6.45 14.5 8.7 16.25L9 16.5L9.05 16.45L9.55 16.9L12.35 20.75Q14.25 23.6 15.05 29.7L15.45 33.45Q14.2 33.55 11.85 35.35M32.75,28.6Q32.75 30.2 31.95 31.35Q31.15 32.5 30.35 32.5L28.05 32.15Q26.5 31.75 26.5 30.25Q26.5 28.05 28.25 26.5Q29.3 25.55 30.2 26.1Q31.9 26.2 32.5 27.45Q32.8 28.05 32.75 28.6M29.1,48.7Q30.1 48.4 31.2 48.7Q32.75 49.15 33.95 50.5Q35.75 52.5 35.75 54.4L35.6 56.25L35 58Q33.6 60.5 29.6 60.5L26.25 60Q23.25 58.95 23.25 55.9Q23.25 52.15 24.95 50.9L26.9 49.4L27.65 49L29.1 48.7M27,51Q25 52.4 25 53.85Q25 56 27.5 56Q28.8 56 29.5 54.5Q30 53.4 30 52.25Q30 51.5 29.45 50.7L29.3 50.5L27 51M22.85,67.6Q23.45 67.65 23.9 68.05Q24.4 68.45 24.6 69.2Q24.7 69.95 24.25 70.55L23.25 71.35Q22.6 71.6 21.7 71.35Q20.8 71.1 20.45 70.4Q20.15 69.7 20.8 68.55Q21.3 67.4 22.85 67.6M-9.85,72.7Q-15.45 71.05 -21.95 67.2Q-31.45 61.6 -36.1 55Q-39.25 50.5 -40.15 45.6Q-42.5 33.35 -39.35 27.5Q-37.8 24.55 -36.1 22.1L-32.6 17.55Q-26 13 -16.95 12.15L-12.75 12.65Q-25.8 17 -30.3 26.05Q-34.8 35.1 -32.8 43.6Q-30.8 52.05 -22.85 59.4Q-14.85 66.7 -4.75 70Q3.3 72.65 5.45 72.3L4.8 72.55L4.3 72.7L3.9 72.85L3.6 72.95L0.7 73.65L0.25 73.75Q-4.3 74.35 -9.85 72.7M68.1,60.55Q68.7 60.6 69.15 61Q69.65 61.4 69.85 62.15Q69.95 62.9 69.5 63.5L68.5 64.3Q67.85 64.55 66.95 64.3Q66.05 64.05 65.7 63.35Q65.4 62.65 66.05 61.5Q66.55 60.35 68.1 60.55M56.05,82.95Q57.6 84.6 56.8 87.1Q55.9 89.65 54.3 90.9Q52.65 92.15 51.1 91.55Q49.5 91 48.65 89.6Q47.7 88.25 47.3 85.85L48.1 83.8L49.7 82.3Q52.05 80.95 54.1 81.65Q55.3 82.1 56.05 82.95M-1.1,-29.1L-1.15 -29.1Q-2 -27.5 -7.05 -25.95Q-12.15 -24.4 -13.9 -27.05Q-15.65 -29.75 -14.1 -32.8Q-12.15 -34.6 -9.95 -35.4Q-6.3 -36.65 -4.2 -34.95Q-2.15 -33.3 -1.65 -31.5L-1.1 -29.15L-1.1 -29.1M-10.1,-2.7Q-10.1 -4.1 -8.75 -4.6Q-7.4 -5.15 -6.2 -4.6Q-5 -4.05 -4.5 -3.35Q-4.05 -2.65 -4.05 -2.05Q-4.05 -0.15 -6.05 -0.15Q-10.1 -0.15 -10.1 -2.7M-5.4,10.35Q-6.05 10.6 -6.95 10.35Q-7.85 10.1 -8.2 9.4Q-8.5 8.7 -7.85 7.55Q-7.35 6.4 -5.8 6.6Q-5.2 6.65 -4.75 7.05Q-4.25 7.45 -4.05 8.2Q-3.95 8.95 -4.4 9.55L-5.4 10.35" />
<path style="fill:#EEBE23;fill-opacity:1" d="M17.4,9.05Q18 5.3 21.5 3Q24.55 1 27.15 1Q31.25 1 33.75 5L34.9 7.25Q34.4 8.55 33.15 10.35Q31.4 12.9 27.4 13.1Q23.4 13.25 20.5 11.75Q18.4 10.65 17.4 9.05M73.8,-34.35Q71.7 -31.9 69 -31.5Q66.3 -31.1 62.45 -33.05Q58.6 -35 59.75 -41.8Q60.4 -44.05 61.7 -45.15L62.3 -42.25Q62.75 -39.95 67.05 -38.05Q71.4 -36.15 73.5 -37.3L76 -38.85Q75.9 -36.85 73.8 -34.35M76.15,-17.5Q81.2 -17.5 85.45 -16.25Q91.9 -14.35 96.5 -9.5Q104 -1.55 104.3 14.8Q104.6 31.15 99 37.7Q93.35 44.2 87.45 47.15L85.45 48.15L77.55 51.75L77.25 51.7L76.3 51.4L76.45 51.35Q80.2 50.05 83.5 48.2L85.45 46.75L85.75 46.5Q99.5 35.7 99.5 16.1Q99.5 4.6 95.25 -2.75Q91.7 -8.9 85.45 -11.45Q81.05 -13.25 75.25 -13.25L73.7 -13.25L61.8 -12.2L61.05 -12Q61.3 -13.6 62.7 -15.05L63.25 -15.55Q68.2 -17.5 76.15 -17.5M43.15,31.1Q43.65 30.8 44.15 30.8Q45.9 30.8 47.85 33.7Q49.9 36.85 52.95 37.35Q54.3 37.55 55.35 38L54.05 40.75Q52.9 42.8 50.75 43.4L49.6 43.5Q47.45 43.5 45.5 41.75Q42.75 39.25 42.75 34.25Q42.75 32.45 43.15 31.1M-10.3,26.1Q-8.2 24.45 -5.75 24.45Q-3.8 24.45 -2.25 26.45Q-1.5 27.4 0.25 30.85Q3.55 37.2 7.6 37.2Q9.4 37.2 11.85 35.35Q14.2 33.55 15.45 33.45Q15.65 36.5 15.4 37.95Q14.95 40.05 14.25 41.15Q13.55 42.2 11.5 43.75Q9.45 45.25 4.95 45.5Q0.4 45.75 -4.5 41.75Q-10.5 36.85 -10.5 29.35L-10.3 26.1M29.3,50.5L29.45 50.7Q30 51.5 30 52.25Q30 53.4 29.5 54.5Q28.8 56 27.5 56Q25 56 25 53.85Q25 52.4 27 51L29.3 50.5M-32.6,17.55L-36.1 22.1Q-37.8 24.55 -39.35 27.5Q-42.5 33.35 -40.15 45.6Q-39.25 50.5 -36.1 55Q-31.45 61.6 -21.95 67.2Q-15.45 71.05 -9.85 72.7Q-4.3 74.35 0.25 73.75L-3.85 74.3L-5 74.25Q-11.4 74.15 -16.95 72.7Q-26.7 70.15 -33.85 63.55L-36.1 61.3Q-41 55.85 -43.1 49.1Q-44.7 43.9 -44.65 37.95Q-44.65 33.95 -43.1 30.25Q-41.15 25.45 -36.8 21.1L-36.1 20.4L-32.6 17.55M-13.9,-27.05Q-12.15 -24.4 -7.05 -25.95Q-2 -27.5 -1.15 -29.1L-1.1 -29.1Q-0.3 -25.9 -1.95 -23.8L-2.3 -23.4Q-4.4 -21.2 -6.35 -19.65Q-8.35 -18.15 -12.6 -18.85Q-15.4 -19.55 -16.8 -23.5L-16.9 -23.8Q-18.25 -28.15 -15.05 -31.8L-14.1 -32.8Q-15.65 -29.75 -13.9 -27.05" />
</g>
</svg>
