<?xml version="1.0" encoding="utf-8"?>
<svg version="1.1" id="Layer_1"
xmlns="http://www.w3.org/2000/svg"
xmlns:xlink="http://www.w3.org/1999/xlink"
xmlns:author="http://www.sothink.com"
width="20px" height="24px"
xml:space="preserve">
<g id="970" transform="matrix(1, 0, 0, 1, 0.5, 0.5)">
<path style="fill:#D3D5D0;fill-opacity:1" d="M14.35,2.75L13.7 4.15L13.4 4L12.55 3.65L12.5 3.65L12.75 3.2L13.25 2.25L11.85 1.75L11.75 1.75Q10.75 1.35 9.8 1.25L9 1.25L8.55 1.3L7.75 3.05L7.55 3.1L6.55 3.35L6.5 3.35L7.3 1.45L6.6 1.65L6.55 1.65Q4.25 2.5 3 3.2L2.45 3.15L2.25 3.15L2.95 2.75L4.45 2.05L5.7 1.55L6.9 1.2L7.65 1.05L8.4 0.95L8.5 0.95L9.5 0.9L10.4 1.05L12.2 1.45L13.45 1.9L14.6 2.25L14.8 2.3Q16.4 2.9 17.55 4.05L17.55 4.75L17.15 4.45L17.2 4.3L16.5 3.65L15.25 3.1L15.2 3.25L14.35 2.75M6.55,18.7L5.6 18.1L5.7 17.85L6.7 18.5L6.6 18.75L6.55 18.7M3.25,12.4L3.3 12.9L3.1 13.35L2.85 11.75L3.1 11.2L3.25 12.4" />
<path style="fill:#8A9295;fill-opacity:1" d="M16.55,5.9Q16.4 5.1 15.85 4.75L14.75 4.2L15.2 3.25L15.25 3.1L16.5 3.65L17.2 4.3L17.15 4.45L16.55 5.9M1.25,4.35L2.2 3.6L3 3.2Q4.25 2.5 6.55 1.65L6.6 1.65L6.5 2.05L6.25 3.05L6.1 3.05L5.15 3.25Q4.35 3.5 4.1 3.7Q3.85 3.95 2.2 4.8L1.9 4.8L1.65 5.05L1.4 4.85L1.25 4.35M9,1.25L9.8 1.25Q10.75 1.35 11.75 1.75L11.85 1.75L11.35 2.8L10.1 2.45L9.45 2.45L8.9 2.45L8.4 2.6L9 1.25M4.65,17.4L5.6 18.1L6.55 18.7L6.6 18.75L7.6 19.35L8.65 19.85L9.15 20.05L12.55 18.25L14.1 16.85L14.75 15.1Q14.9 15.05 15.4 15.45L16.05 15.85Q15.95 16.6 15.25 17.6Q14.6 18.5 12.75 19.5L9.75 20.95L9.7 20.85L9.75 20.35L9.75 20.15L9.35 20.2L8.2 19.9L7.2 19.35L6.5 18.95L5.6 18.3L5.5 18.25L4.8 17.8L4.4 17.15L4.65 17.4" />
<path style="fill:#253439;fill-opacity:1" d="M8.5,-0.5L9.5 -0.5L9.55 -0.5L11.05 -0.35L12.9 0.15L16.2 1.5Q18.4 2.5 18.75 3.15L19.05 4.35L18.95 5.7L18.8 8.15L18.1 13.5Q17.65 16.65 16.9 18L15.1 19.6L15.1 19.65L12 21.55L10.3 22.5L9.85 22.75L9 22.85L7.05 22Q5.4 21.3 3.65 19.95L1.45 18.05Q0.95 17.4 0.25 13.55Q-0.4 9.75 -0.45 7.95L-0.45 5.1Q-0.45 3.9 -0.25 3.6Q-0.1 3.2 1 2.35Q2 1.55 3.5 0.9Q4.95 0.2 6.4 -0.15L8.5 -0.5M1.6,3.6L1.3 3.85L1 4.15L0.9 5.7L1 8.7L1.6 13.45L2.05 15.8Q2.1 16.55 2.55 17.35L5.2 19.45L7.25 20.65L8.45 21.25L9 21.5L9.25 21.5L9.75 21.3L9.9 21.2L12.65 19.75Q14.85 18.5 15.45 17.7L16.25 16.25L16.7 13.7L17.2 9.45L17.55 5.3L17.55 4.75L17.55 4.05Q16.4 2.9 14.8 2.3L14.6 2.25L13.45 1.9L12.2 1.45L10.4 1.05L9.5 0.9L8.5 0.95L8.4 0.95L7.65 1.05L6.9 1.2L5.7 1.55L4.45 2.05L2.95 2.75L2.25 3.15L1.6 3.6M3.3,12.9L3.25 12.4L3.1 11.2L2.75 7.6L2.75 5.8L3.15 5.15L4.1 4.45Q4.8 3.95 6.05 3.5L6.5 3.35L6.55 3.35L7.55 3.1L7.75 3.05L8.25 3L8.65 2.95L9.05 2.95L9.15 2.95L9.2 2.95L9.45 2.95L9.6 2.95L11.2 3.2L12.5 3.65L12.55 3.65L13.4 4L13.7 4.15L14.6 4.55L14.8 4.7L15.5 5.1L15.7 5.35L15.75 5.9L15.65 7.7L15.65 7.85L15.25 11.2L15.05 12.65Q14.55 15.9 13.7 16.85L11.45 18.55L9.9 19.35L9.6 19.5L9.2 19.7L9.15 19.7L9.05 19.7L8.65 19.5L7.75 19L6.85 18.55L6.7 18.5L5.7 17.85L4.8 17.1L4.6 16.85Q3.9 16.1 3.45 13.75L3.3 12.9M9.7,3.75L9.4 3.75L7.8 3.95L7.45 4.05L7.3 4.1L6 4.55L5.25 4.85L4.05 5.55L3.55 6.1L3.45 7.5L3.65 9.85L3.9 11.25L3.95 11.6L4.05 12.4L4.7 15.4L5.15 16.3L6.05 17.2L6.7 17.65L7.05 17.85L8.05 18.4L8.65 18.7L9.05 18.9L9.15 18.95L9.2 18.9L9.6 18.7L10.4 18.3L11.6 17.65Q13.2 16.65 13.6 15.4L14.45 10.25L14.45 10.2L14.8 5.7L14.2 5.4L13.85 5.15L13.35 4.9L12.95 4.7L12.2 4.35L12.15 4.35L10.9 4L10.85 3.95L9.7 3.75" />
<path style="fill:#56616C;fill-opacity:1" d="M15.65,7.7L15.75 5.9L15.7 5.35L15.5 5.1L14.8 4.7L14.6 4.55L14.75 4.2L15.85 4.75Q16.4 5.1 16.55 5.9L15.65 7.7M8.4,2.6L8.9 2.45L9.45 2.45L10.1 2.45L11.35 2.8L11.2 3.2L9.6 2.95L9.45 2.95L9.2 2.95L9.15 2.95L9.05 2.95L8.65 2.95L8.25 3L8.4 2.6M3.25,14.1L3.25 14.2L3.75 16.35L4.4 17.15L4.8 17.8L5.5 18.25L5.6 18.3L6.5 18.95L7.2 19.35L8.2 19.9L9.35 20.2L9.75 20.15L9.75 20.35L9.7 20.85L9.75 20.95L9.2 21.15L8.65 21L7.1 20.35Q5.5 19.55 4.2 18.45L2.7 16.9Q1.95 15.05 1.5 10.6L1.15 5.5L1.2 4.35L1.25 4.35L1.4 4.85L1.65 5.05L1.9 4.8L2.2 4.8Q3.85 3.95 4.1 3.7Q4.35 3.5 5.15 3.25L6.1 3.05L6.25 3.05L6.2 3.1L4.55 3.85Q2.6 4.85 2.45 5.95L2.85 11.75L3.1 13.35L3.25 14.1" />
<path style="fill:#A9B0B1;fill-opacity:1" d="M16.55,5.9L17.15 4.45L17.55 4.75L17.55 5.3L17.2 9.45L16.7 13.7L16.25 16.25L15.45 17.7Q14.85 18.5 12.65 19.75L9.9 21.2L9.75 21.3L9.25 21.5L9 21.5L8.45 21.25L7.25 20.65L5.2 19.45L2.55 17.35Q2.1 16.55 2.05 15.8L1.6 13.45L1 8.7L0.9 5.7L1 4.15L1.3 3.85L1.6 3.6L2.25 3.15L2.45 3.15L3 3.2L2.2 3.6L1.25 4.35L1.2 4.35L1.15 5.5L1.5 10.6Q1.95 15.05 2.7 16.9L4.2 18.45Q5.5 19.55 7.1 20.35L8.65 21L9.2 21.15L9.75 20.95L12.75 19.5Q14.6 18.5 15.25 17.6Q15.95 16.6 16.05 15.85L15.4 15.45Q14.9 15.05 14.75 15.1L14.1 16.85L12.55 18.25L9.15 20.05L8.65 19.85L7.6 19.35L6.6 18.75L6.7 18.5L6.85 18.55L7.75 19L8.65 19.5L9.05 19.7L9.15 19.7L9.2 19.7L9.6 19.5L9.9 19.35L11.45 18.55L13.7 16.85Q14.55 15.9 15.05 12.65L15.25 11.2L15.65 7.85L15.65 7.7L16.55 5.9M2.85,11.75L2.45 5.95Q2.6 4.85 4.55 3.85L6.2 3.1L6.25 3.05L6.5 2.05L6.6 1.65L7.3 1.45L6.5 3.35L6.05 3.5Q4.8 3.95 4.1 4.45L3.15 5.15L2.75 5.8L2.75 7.6L3.1 11.2L2.85 11.75M8.4,2.6L8.25 3L7.75 3.05L8.55 1.3L9 1.25L8.4 2.6M11.35,2.8L11.85 1.75L13.25 2.25L12.75 3.2L12.5 3.65L11.2 3.2L11.35 2.8M14.6,4.55L13.7 4.15L14.35 2.75L15.2 3.25L14.75 4.2L14.6 4.55M4.4,17.15L3.75 16.35L3.25 14.2L3.25 14.1L3.1 13.35L3.3 12.9L3.45 13.75Q3.9 16.1 4.6 16.85L4.8 17.1L5.7 17.85L5.6 18.1L4.65 17.4L4.4 17.15" />
<path style="fill:#5C8AB4;fill-opacity:1" d="M9.2,15.95L9.35 7.2L10.85 3.95L10.9 4L12.15 4.35L12.2 4.35L12.95 4.7L13.35 4.9L13.85 5.15L14.2 5.4L9.2 15.95M13.15,12.85L14.45 10.2L14.45 10.25L13.6 15.4Q13.2 16.65 11.6 17.65L10.4 18.3L13.15 12.85" />
<path style="fill:#316491;fill-opacity:1" d="M10.4,18.3L9.6 18.7L9.2 18.9L9.15 18.95L9.2 15.95L14.2 5.4L14.8 5.7L14.45 10.2L13.15 12.85L10.4 18.3M9.4,3.75L9.7 3.75L10.85 3.95L9.35 7.2L9.4 3.75" />
<path style="fill:#274F72;fill-opacity:1" d="M9.35,7.2L9.2 15.95L8.05 18.4L7.05 17.85L6.7 17.65L6.05 17.2L5.15 16.3L9.35 7.2M4.05,12.4L3.95 11.6L3.9 11.25L3.65 9.85L3.45 7.5L3.55 6.1L4.05 5.55L5.25 4.85L6 4.55L7.3 4.1L7.45 4.05L7.8 3.95L4.05 12.4" />
<path style="fill:#1C3C58;fill-opacity:1" d="M9.15,18.95L9.05 18.9L8.65 18.7L8.05 18.4L9.2 15.95L9.15 18.95M7.8,3.95L9.4 3.75L9.35 7.2L5.15 16.3L4.7 15.4L4.05 12.4L7.8 3.95" />
</g>
</svg>
