<?xml version="1.0" encoding="utf-8"?>
<svg version="1.1" id="Layer_1"
xmlns="http://www.w3.org/2000/svg"
xmlns:xlink="http://www.w3.org/1999/xlink"
xmlns:author="http://www.sothink.com"
width="77px" height="23px"
xml:space="preserve">
<g id="1891" transform="matrix(1, 0, 0, 1, 84.2, -8.25)">
<path style="fill:#3C2C22;fill-opacity:1" d="M-53.2,15.35L-48.05 15.5L-41.6 15.4L-33.05 15.15L-33.05 15.3L-32.55 15.25L-32.5 15.25L-26.1 14.9L-21.2 14.6L-17.1 14.25L-9.3 13.5Q-9.25 14.25 -9.65 14.85L-18.6 15.4L-32.55 16.1L-33.05 16.1L-33.05 16.05L-50.2 16.6L-52.4 16.65L-53.2 15.35" />
<path style="fill:#574031;fill-opacity:1" d="M-53.55,14.45L-53.75 13.95L-53.75 13.8L-45.6 13.65L-33 13.35L-33 13.4L-32.5 13.4L-30.55 13.3L-15.75 12.55L-9.95 12.2Q-9.75 12.1 -9.45 13.1L-9.3 13.5L-17.1 14.25L-21.2 14.6L-26.1 14.9L-32.5 15.25L-32.55 15.25L-33.05 15.3L-33.05 15.15L-41.6 15.4L-48.05 15.5L-53.2 15.35L-53.55 14.45" />
<path style="fill:#231813;fill-opacity:1" d="M-52.4,16.65L-50.2 16.6L-33.05 16.05L-33.05 16.1L-32.55 16.1L-18.6 15.4L-9.65 14.85Q-9.25 14.25 -9.3 13.5L-9.45 13.1Q-9.75 12.1 -9.95 12.2L-15.75 12.55L-30.55 13.3L-32.5 13.4L-33 13.4L-33 13.35L-45.6 13.65L-53.75 13.8L-53.75 13.2L-53.85 13.2L-53.75 13.15L-53.75 13Q-53.95 12.85 -54.05 12.8L-53.55 12.8L-32.45 12.05L-32.45 12.1L-15.5 11.05L-9.55 10.75Q-8.05 11.25 -7.7 12.6L-7.6 13.4Q-7.55 14.2 -7.75 14.8L-8.8 16.35L-33.1 17.25L-33.1 17.2L-51.5 17.8L-52.4 16.65" />
<path style="fill:#3A3634;fill-opacity:1" d="M-78.4,19.75L-79.4 20.75Q-81.65 22.9 -82.85 23.5Q-80.15 25.45 -71.7 26.65L-61.3 27.4L-57.8 27.2L-51.2 25.8L-48.15 24.6L-47.4 24.25Q-46.3 23.55 -45.55 22.7L-46.05 22.5Q-47.85 22 -49.6 20.85L-51.1 19.65Q-50.4 19.3 -49.9 19.1Q-48.1 20.4 -44.35 21.95L-42.3 22.75Q-45.2 27.25 -51.55 29Q-55.5 30.1 -59.5 30.45L-71.8 29.95Q-78.15 28.9 -82.65 26.2Q-84.1 25.3 -84.2 23.25L-84.1 23.1L-82.35 21.65L-79.5 19.15L-78.4 19.75M-44.6,23.1Q-46.3 25.05 -53.4 26.9Q-60.6 28.8 -68.55 27.95Q-76.6 27 -81.45 25.15L-78.05 26.8L-72.1 28.75L-61.8 29.45Q-56.15 29.05 -51.05 27.3Q-48.7 26.5 -46.5 25.15L-45 23.85Q-44.15 23 -44.6 23.1" />
<path style="fill:#938D89;fill-opacity:1" d="M-45,23.85L-46.5 25.15Q-48.7 26.5 -51.05 27.3Q-56.15 29.05 -61.8 29.45L-72.1 28.75L-78.05 26.8L-81.45 25.15Q-76.6 27 -68.55 27.95Q-60.6 28.8 -53.4 26.9Q-46.3 25.05 -44.6 23.1Q-44.15 23 -45 23.85" />
<path style="fill:#E0D8D4;fill-opacity:1" d="M-62.05,24.8L-60.4 24.8L-61.05 26.45L-60 26.45L-55.8 26.25L-51.5 25.8L-51.2 25.8L-57.8 27.2L-61.3 27.4L-71.7 26.65Q-80.15 25.45 -82.85 23.5Q-81.65 22.9 -79.4 20.75L-78.4 19.75L-78.2 19.6L-76.85 20.3L-77.05 20.55L-79.3 22.8Q-76.6 24.95 -72.25 25.7L-64.25 26.4L-63.4 24.8L-62.05 24.8" />
<path style="fill:#ACA49F;fill-opacity:1" d="M-51.5,25.8L-55.8 26.25L-60 26.45L-61.05 26.45L-60.4 24.8Q-53.5 24.65 -47.6 23L-46.05 22.5L-45.55 22.7Q-46.3 23.55 -47.4 24.25L-48.15 24.6L-51.2 25.8L-51.5 25.8M-74.25,21.3L-75.05 22.55Q-74.05 23.15 -72.55 23.6Q-69.2 24.7 -63.4 24.8L-64.25 26.4L-72.25 25.7Q-76.6 24.95 -79.3 22.8L-77.05 20.55L-76.85 20.3L-74.25 21.3" />
<path style="fill:#766D67;fill-opacity:1" d="M-63.4,24.8Q-69.2 24.7 -72.55 23.6Q-74.05 23.15 -75.05 22.55L-74.25 21.3Q-70.7 22.35 -66.55 22.4L-61.35 22.2L-58.8 21.8Q-55.3 21.2 -52.1 19.95L-51.2 19.6L-51.1 19.65L-49.6 20.85Q-47.85 22 -46.05 22.5L-47.6 23Q-53.5 24.65 -60.4 24.8L-62.05 24.8L-63.4 24.8" />
<path style="fill:#4A5662;fill-opacity:1" d="M-78.4,16.35Q-79.65 15.75 -78.2 15.05Q-76.95 14.35 -74.95 14.2L-74.3 14.15L-74.8 14.6L-77.15 16.75L-77.05 16.55Q-77.7 16.75 -78.4 16.35" />
<path style="fill:#253439;fill-opacity:1" d="M-77.05,16.55L-77.45 17.1Q-78.6 18.55 -78.5 18.1L-78.4 17.85L-78.55 17.8Q-78.35 17.7 -78.95 17.6L-80.2 16.85L-81.1 15.65Q-81.3 14.95 -79.3 14.2Q-77.45 13.4 -75.5 13.2L-73.2 12.9L-73.05 12.95L-73.85 13.85L-74.8 14.6L-74.3 14.15L-74.95 14.2Q-76.95 14.35 -78.2 15.05Q-79.65 15.75 -78.4 16.35Q-77.7 16.75 -77.05 16.55" />
<path style="fill:#3D434B;fill-opacity:1" d="M-65.35,12.25L-66.35 12.25L-67.4 10.05L-67.8 10.85L-68.75 11.9L-68.75 12.15L-68.8 12.25L-70 12.25L-70.55 12.25L-70.45 12.05L-69.2 10.1L-68.75 9.6L-68.25 8.85L-67.8 8.5Q-67.05 7.85 -66.5 8.95Q-65.8 10 -65.05 11.8L-64.85 12.25L-65.35 12.25M-61.8,12.3L-61.75 12.2L-60.3 10.3L-59.9 9.85L-59.3 9.15L-58.85 8.85Q-58.05 8.25 -57.55 9.35Q-56.95 10.45 -56.4 12.35L-56.3 12.65L-57.75 12.55L-58.55 10.45L-59.05 11.15L-60 12.2L-60.1 12.4L-61.8 12.3" />
<path style="fill:#E3E4E5;fill-opacity:1" d="M-58.4,12.5L-59.05 11.15L-58.55 10.45L-57.75 12.55L-58.4 12.5M-67.05,12.25L-67.8 10.85L-67.4 10.05L-66.35 12.25L-67.05 12.25" />
<path style="fill:#B4BCC2;fill-opacity:1" d="M-60,12.2L-59.05 11.15L-58.4 12.5L-59.25 12.45L-60 12.4L-60 12.2M-67.05,12.25L-68.75 12.25L-68.75 12.15L-68.75 11.9L-67.8 10.85L-67.05 12.25" />
<path style="fill:#717D8E;fill-opacity:1" d="M-60.1,12.4L-60 12.2L-60 12.4L-60.1 12.4M-68.8,12.25L-68.75 12.15L-68.75 12.25L-68.8 12.25" />
<path style="fill:#662D11;fill-opacity:1" d="M-60.1,12.4L-60 12.4L-59.25 12.45L-58.4 12.5L-57.75 12.55L-56.3 12.65L-56.25 12.65L-54.1 12.8L-54.05 12.8Q-53.95 12.85 -53.75 13L-53.75 13.15L-53.85 13.2L-53.75 13.2L-53.75 13.8L-53.75 13.95L-53.55 14.45L-53.2 15.35L-52.4 16.65L-51.5 17.8Q-51.1 18 -50.8 18.4L-50.4 18.7L-49.9 19.1Q-50.4 19.3 -51.1 19.65L-51.2 19.6L-52.1 19.95Q-55.3 21.2 -58.8 21.8L-61.35 22.2L-66.55 22.4Q-70.7 22.35 -74.25 21.3L-76.85 20.3L-78.2 19.6L-78.4 19.75L-79.5 19.15L-78.5 18.1Q-78.6 18.55 -77.45 17.1L-77.05 16.55L-77.15 16.75L-74.8 14.6L-73.85 13.85L-73.05 12.95L-72.5 12.35L-71.1 12.25L-70.55 12.25L-70 12.25L-68.8 12.25L-68.75 12.25L-67.05 12.25L-66.35 12.25L-65.35 12.25L-64.85 12.25L-61.8 12.3L-60.1 12.4M-69.4,13.15L-70.7 13.15L-71.1 13.15L-72.1 13.15L-73.5 14.75L-75.95 17.4L-77.75 19.2L-76.3 19.7L-73.7 20.45L-59.7 20.95L-57.9 20.7L-53.2 19.25L-52.05 18.85L-52.4 18.55L-53.1 17.85L-53.15 17.8L-54.05 16.7L-54.6 15.85L-54.9 15.3L-55.25 13.9L-55.25 13.85L-55.25 13.6L-58.65 13.4L-60.05 13.35L-60.75 13.35L-61.4 13.3L-62.5 13.3L-63.85 13.2L-64.6 13.2L-66 13.15L-66.65 13.15L-68.7 13.15L-69.2 13.15L-69.4 13.15" />
<path style="fill:#AA692B;fill-opacity:1" d="M-71.45,16.8L-69.55 13.7L-69.2 13.15L-68.7 13.15L-66.65 13.15L-66 13.15L-64.6 13.2L-63.85 13.2L-62.5 13.3L-61.4 13.3L-60.75 13.35L-60.05 13.35L-58.65 13.4L-55.25 13.6L-55.25 13.85L-55.25 13.9L-54.9 15.3L-54.6 15.85L-54.05 16.7L-53.15 17.8L-53.1 17.85L-52.4 18.55L-52.05 18.85L-53.2 19.25L-57.9 20.7L-59.7 20.95L-73.7 20.45L-71.45 16.8" />
<path style="fill:#F3B94B;fill-opacity:1" d="M-76.3,19.7L-77.75 19.2L-75.95 17.4L-73.5 14.75L-72.1 13.15L-71.1 13.15L-70.7 13.15L-71.3 13.95L-74.6 17.8L-76.3 19.7" />
<path style="fill:#C68331;fill-opacity:1" d="M-74.6,17.8L-71.3 13.95L-70.7 13.15L-69.4 13.15L-69.2 13.15L-69.55 13.7L-71.45 16.8L-73.7 20.45L-76.3 19.7L-74.6 17.8" />
</g>
</svg>
