<?xml version="1.0" encoding="utf-8"?>
<svg version="1.1" id="Layer_1"
xmlns="http://www.w3.org/2000/svg"
xmlns:xlink="http://www.w3.org/1999/xlink"
xmlns:author="http://www.sothink.com"
width="18px" height="8px"
xml:space="preserve">
<g id="40" transform="matrix(1, 0, 0, 1, 0, 0)">
<path style="fill:#FFFFFF;fill-opacity:1" d="M13.9,3.85Q13.9 3.15 12.45 2.65L8.95 2.2L5.4 2.65Q3.95 3.15 3.95 3.85Q3.95 4.55 5.4 5.05L8.95 5.55L12.45 5.05Q13.9 4.55 13.9 3.85M15.25,6.6Q12.65 7.75 8.95 7.75Q5.25 7.75 2.6 6.6Q0 5.5 0 3.85Q0 2.25 2.6 1.1Q5.25 0 8.95 0Q12.65 0 15.25 1.1Q17.9 2.25 17.9 3.85Q17.9 5.5 15.25 6.6" />
</g>
</svg>
