<?xml version="1.0" encoding="utf-8"?>
<svg version="1.1" id="Layer_1"
xmlns="http://www.w3.org/2000/svg"
xmlns:xlink="http://www.w3.org/1999/xlink"
xmlns:author="http://www.sothink.com"
width="66px" height="15px"
xml:space="preserve">
<g id="1555" transform="matrix(1, 0, 0, 1, 0, 0)">
<linearGradient
id="LinearGradID_1818" gradientUnits="userSpaceOnUse" gradientTransform="matrix(0, 0.00549316, -0.00686646, 0, 5.65, 8)" spreadMethod ="pad" x1="-819.2" y1="0" x2="819.2" y2="0" >
<stop  offset="0" style="stop-color:#FFF980;stop-opacity:1" />
<stop  offset="1" style="stop-color:#E7950A;stop-opacity:1" />
</linearGradient>
<path style="fill:url(#LinearGradID_1818) " d="M65.15,2.8L65.15 2.85Q64.65 3.25 63.85 3.25L58.45 3.25L58.45 5.4L63.4 5.4Q64.2 5.4 64.65 5.8L64.7 5.85Q65.05 6.25 65.05 6.85Q65.05 7.5 64.7 7.95L64.65 8L63.4 8.35L58.45 8.35L58.45 11.05L64.05 11.05Q64.85 11.05 65.3 11.4L65.35 11.45Q65.8 11.9 65.8 12.55Q65.8 13.3 65.35 13.7Q64.85 14.1 64.05 14.1L56.95 14.1Q55.9 14.1 55.45 13.6L55.4 13.55Q54.85 13.05 54.85 12L54.85 2.3L55.05 1.2L55.1 1.15L55.8 0.5L55.85 0.45L56.95 0.2L63.85 0.2Q64.65 0.2 65.15 0.65Q65.6 1 65.6 1.7Q65.6 2.35 65.15 2.8M51.95,0.55Q52.4 1.05 52.4 2L52.4 12.1Q52.4 14.35 50.45 14.3L49.7 14.2L49 13.8L48.45 13.2L48.05 12.6L44.05 6.5L44.05 12.35Q44.05 13.25 43.6 13.8L43.55 13.8Q43.05 14.3 42.3 14.3Q41.5 14.3 41.1 13.8Q40.6 13.25 40.6 12.35L40.6 2.4L40.8 1.2L40.8 1.25Q41 0.65 41.55 0.35L41.5 0.35Q42 0 42.6 0L43.4 0.15L43.5 0.15L44 0.55L44.5 1.15L44.9 1.8L49 8L49 2Q49 1.05 49.4 0.55L49.45 0.55Q49.85 0 50.65 0Q51.5 0 51.95 0.55M36.55,3.25L31.15 3.25L31.15 5.4L36.1 5.4Q36.9 5.4 37.35 5.8L37.4 5.85Q37.75 6.25 37.75 6.85L37.4 7.95L37.35 8L36.1 8.35L31.15 8.35L31.15 11.05L36.75 11.05Q37.55 11.05 38 11.4L38.05 11.45Q38.5 11.9 38.5 12.55Q38.5 13.3 38.05 13.7Q37.55 14.1 36.75 14.1L29.65 14.1Q28.6 14.1 28.15 13.6L28.1 13.55Q27.55 13.05 27.55 12L27.55 2.3L27.75 1.2L27.8 1.15L28.5 0.5L28.55 0.45L29.65 0.2L36.55 0.2Q37.35 0.2 37.85 0.65Q38.3 1 38.3 1.7Q38.3 2.35 37.85 2.8L37.85 2.85Q37.35 3.25 36.55 3.25M24.5,2.4Q25.2 3.45 25.2 4.4Q25.2 5.05 24.8 5.55L24.75 5.55Q24.25 6.05 23.6 6.05Q22.85 6.05 22.5 5.65L21.85 4.75Q21.4 3.85 20.85 3.5L20.8 3.45L19.4 3.05Q18.05 3.05 17.25 4.1Q16.4 5.2 16.4 7.25Q16.4 8.65 16.8 9.6L16.75 9.55Q17.15 10.4 17.8 10.85Q18.45 11.25 19.3 11.25Q20.3 11.25 21 10.8L20.95 10.8L21.95 9.4Q22.1 8.8 22.4 8.4L22.45 8.4Q22.8 7.9 23.6 7.9Q24.25 7.9 24.75 8.35Q25.25 8.85 25.25 9.55L24.9 11.05L24.95 11.05L23.85 12.6L23.9 12.6Q23.15 13.35 22 13.85L22 13.9L19.45 14.3L17.55 14.15L17.5 14.15L15.85 13.5L14.5 12.3L13.5 10.85L13.5 10.8L12.95 9.1L13 9.15L12.75 7.2Q12.75 5.5 13.25 4.25Q13.7 2.85 14.65 1.95Q15.55 0.95 16.75 0.5L16.8 0.5Q18 0 19.4 0Q21.05 0 22.45 0.65Q23.75 1.35 24.45 2.35L24.5 2.4M10.7,3.65L10.25 4.85Q9.8 5.35 9.05 5.35L8.05 5.05L8 5L7.4 4.15L7.4 4.1L6.7 3.15Q6.3 2.85 5.4 2.85Q4.6 2.85 4.1 3.2Q3.65 3.5 3.65 3.85L3.8 4.25L4.2 4.6L4.2 4.55L4.9 4.9L6.05 5.2L8.15 5.8Q9 6.1 9.7 6.55L9.75 6.55Q10.45 7.05 10.85 7.9Q11.25 8.6 11.25 9.75Q11.25 11.05 10.6 12.15Q9.9 13.15 8.65 13.75L8.6 13.75Q7.3 14.3 5.65 14.3Q3.55 14.3 2.25 13.55Q1.25 12.95 0.65 11.95L0.65 12Q0 11 0 10.05Q0 9.35 0.5 8.85Q0.9 8.4 1.7 8.4Q2.3 8.4 2.75 8.8L3.35 9.8L3.3 9.75L3.8 10.65L4.45 11.25L4.45 11.2L5.55 11.4Q6.5 11.4 7.15 10.95Q7.65 10.55 7.65 10L7.45 9.35L6.6 8.85L5 8.4Q3.5 8.1 2.6 7.6Q1.5 7.1 0.9 6.25Q0.25 5.4 0.25 4.1Q0.25 2.9 0.95 1.9L0.95 1.95Q1.55 1 2.8 0.5Q4 0 5.6 0Q6.9 0 7.85 0.35L9.45 1.25L10.35 2.4L10.35 2.35L10.7 3.65" />
<path style="fill:#FFFFFF;fill-opacity:1" d="M65.15,2L65.05 2.05Q63.6 2.85 63.05 1.45Q63.15 0.85 63.85 0.65L63.85 0.6Q65.05 0.85 65.15 2M51.65,2.05Q50.2 2.85 49.65 1.45Q49.75 0.85 50.45 0.65L50.45 0.6Q51.65 0.85 51.75 2L51.65 2.05M57.65,2L57.55 2.05Q56.1 2.85 55.55 1.45Q55.65 0.85 56.35 0.65L56.35 0.6Q57.55 0.85 57.65 2M42.35,0.6Q43.55 0.85 43.65 2L43.55 2.05Q42.1 2.85 41.55 1.45Q41.65 0.85 42.35 0.65L42.35 0.6M37.85,2L37.75 2.05Q36.3 2.85 35.75 1.45Q35.85 0.85 36.55 0.65L36.55 0.6Q37.75 0.85 37.85 2M21.7,2.1L16.9 2.35Q16.2 2.9 16.5 1.95Q17.4 0.35 20.7 0.75L21.35 1L22.3 1.6Q22.7 2.3 21.7 2.1M29.15,0.65L29.15 0.6Q30.35 0.85 30.45 2L30.35 2.05Q28.9 2.85 28.35 1.45Q28.45 0.85 29.15 0.65M3.1,2.35Q2.4 2.9 2.7 1.95Q3.6 0.35 6.9 0.75L7.55 1Q8.1 1.2 8.5 1.6Q8.9 2.3 7.9 2.1L3.1 2.35" />
</g>
</svg>
