<?xml version="1.0" encoding="utf-8"?>
<svg version="1.1" id="Layer_1"
xmlns="http://www.w3.org/2000/svg"
xmlns:xlink="http://www.w3.org/1999/xlink"
xmlns:author="http://www.sothink.com"
width="299px" height="214px"
xml:space="preserve">
<g id="2856" transform="matrix(1, 0, 0, 1, 0, 0)">
<path style="fill:#FFFFFF;fill-opacity:1" d="M297.15,144.9Q293.15 154.3 286.95 154.3Q284.6 154.3 281.8 151.5Q279 148.6 277.2 148.6Q275 148.6 274.35 151.15Q273.85 154.7 273.05 156.65Q270.5 156.4 254.05 165.6Q237.25 175.05 230.55 175.05L227.65 172.15Q224.85 169.2 224.15 169.2Q222.9 169.2 217.1 176.65Q211.3 184.05 210.6 184.05L207.05 181.25Q203.25 178.4 201.2 178.4L194.35 183Q187.6 187.55 186.35 187.55Q185.4 187.55 181.7 183.9Q177.7 179.9 177 179.6Q177 181.75 174.75 185.35Q172.1 189.75 168.65 191.1Q167.6 188.45 162.65 172.25L157.5 155.5L152.95 180.45Q149.75 194.45 146.4 194.45Q145.15 194.45 142.3 191Q139.45 187.55 137.15 187.55Q135.05 187.55 133.35 190.45Q131.6 193.3 130.6 193.3Q128.75 193.3 124.95 189.3Q121.1 185.25 120.75 185.25Q119.4 185.25 115.65 188.7L111.5 192.15Q110.65 192.15 107.8 189.85Q104.9 187.55 104 187.55Q102.45 187.55 100.75 189.85Q99 192.15 97.45 192.15Q96.6 192.15 93.8 188.15Q91 184.05 89.15 184.05Q87.75 184.05 85.9 185.85Q84.05 187.55 81.55 187.55Q79.25 187.55 76.1 184.8Q71.9 181 69.1 173.85L67 177.85Q66.15 179.6 64 179.6Q61.5 179.6 57.4 170.25Q53.45 161.4 51.4 152.1L50.45 152.1L47.35 159.7Q44.3 166.55 42.15 168.15Q33.1 157.15 25.25 148.6L24.45 150.85L21.6 153.15Q20.25 150.35 17.3 147.1Q13.25 142.6 10.4 143.1Q5.1 143.9 2.45 136.8L0.5 131.75L0.2 131.25L0.2 130L0 129.85L0.15 88.4Q0.85 91.45 1.3 92.9L1.55 93.45L1.7 93.8L1.7 93.25L1.75 80.9Q3.2 147.25 5.65 67.15L5.85 62.7Q7.05 40.65 8 29.55L8 27.8Q10.05 46.5 11.8 58.3L11.9 53.9Q11.9 48.15 11.25 42.6L10.85 39.45L10.95 38.95Q11.9 40.1 11.9 41.85L12.35 41.85L12.6 37.8L12.8 31.45Q13.25 31.45 13.25 30.35L13.7 30.35Q14.25 32 14.25 40.85Q14.25 46.35 12.85 58.8L12.45 62.7L12.7 64.4Q14.25 73.9 16.15 79.45L19.5 85.6L19.85 86.3Q21.1 87.4 22.4 87.4Q24.2 87.4 25.35 85.95Q27.1 83.7 26.65 78.8L26.65 78.25Q27 82.4 27.75 86.35L28.25 88.7Q29 92 29.9 93.1L31.8 93.1L32.1 91.85L32.7 89.7Q35.05 92.55 37.75 97.85L38.75 99.4L38.85 97.7L40.7 68.55L40.7 69.55L43.25 100.15L44.45 99.45Q46.3 98.3 46.45 98.3L51.85 103.75Q57 109.15 60.65 109.15Q63.5 109.15 64.2 107.45Q64.75 106.1 64.7 100.15Q64.7 81.95 67.1 62.7L69.55 74.8Q70 74.9 70.5 75.15L70.8 75.3L70.9 78.05Q71.75 97.2 73.95 97.2Q74.7 97.2 74.9 96.7L75.05 95.4L79.4 103.7Q82.1 108.6 83.5 108.6Q84 108.6 84.9 106.9Q85.75 105.2 86.75 105.2L90.5 108.85Q94.8 112.55 97.95 112.55Q102.7 112.55 104.6 110.45Q106.55 108.35 107.2 102.4Q107.65 98.3 107.85 85.3Q108.15 68.1 108.65 56.45L108.65 55.9Q110.25 59.35 111.7 75.3Q112.95 91.75 113.3 94.3L113.75 95.4Q114.5 94.1 116.15 88.55Q118.6 95.75 121.25 102.2Q126.5 114.95 129.35 114.95Q129.95 114.95 130.05 114.4Q130.2 113.8 130.75 113.8Q130.95 113.8 143.15 118.95L143.8 118.85Q144.3 118.45 144.55 117.25L146.55 119Q147.35 120.05 147.35 120.65Q148.5 120.45 149.9 115.9Q151.2 111.45 152.45 111.45Q153.05 111.45 153.65 112Q154.3 112.55 154.7 112.55Q157.7 97.5 159.2 61.95L159.3 58.65L161.7 0.9L161.25 20.4L165.15 57.1L166.55 69.65Q169 90.9 171 97.2L171.95 97.2L172.2 94.65L172.4 92.55L172.4 92L175.15 98.35L178 105.75L179.45 104.7L180.55 104Q182.05 104 183.9 107.4Q186.1 111.3 188.25 112.55Q188.85 111.9 189.35 109.95Q189.8 108.2 189.65 107.45L192.6 110.45Q194.1 112 195.7 112Q197.2 112 199.05 109.5Q200.9 106.9 201.3 106.9Q201.9 106.9 204.3 110.35Q206.7 113.8 208 113.8Q209.05 113.8 210.4 112.9Q211.8 112 212.75 112L215.35 112.2Q217 112.6 217.6 114.35L219.5 114.35Q219.3 113.05 220.55 108.45Q221.9 103.45 223.2 101.75Q224.55 102.55 225.6 104Q226.4 105.2 227.15 105.2Q228.45 105.2 228.95 103.5Q229.45 101.85 230.6 111.65Q231.7 121.35 235.3 62.75L235.8 62.75Q235.8 66.55 238.4 81.15Q241.2 96.8 242.75 97.75L243.25 97.75Q243.25 93.75 244.15 90.3Q245.7 92.75 247.9 99.25Q249.55 104 250.9 104Q251.65 104 252.6 102.6Q253.5 101.2 254.4 101.2Q255.2 101.2 256.55 103.5L258.2 106.35L259.1 106.35Q258.9 104.75 260.1 101.65Q261.4 98.4 262.8 97.75L264.8 101.05L266.05 104L266.55 104Q266.55 102.9 267.45 99.6L268.95 101.75L271.25 104.6Q271.9 103.7 272.75 103.15Q273.3 102.7 273.45 102.1L273.55 87.95Q273.55 80.7 271.45 63.4L270.15 51.5Q270.65 49.2 271.25 48.5L271.65 49.35L276.8 70.2Q283.1 95.35 283.85 97.75L284.75 97.75Q284.75 95.65 285.4 89.15Q286.1 82.25 286.6 80.45L287.45 82.5L287.95 84.6L288.9 84.6Q290.05 82.35 290.3 58.65L290.35 47.25Q291.25 49.45 293 56.1L294.9 64.7L297.35 81.8L297.4 82.25Q298 87.35 297.9 91.75Q297.8 96.15 297.05 99.85L297.15 117.4L297.2 124.7L297.2 125.45L298.05 136.95L298.1 137.4Q298.55 138.85 298.6 140.15L298.6 140.9L297.15 144.9M272.35,0Q272.9 2.65 274.2 24.45L274.8 34.3L273.75 38.15L273.15 35.25Q272.15 30.45 273 51.35Q270.4 17.85 270 9.6Q270 3.85 270.15 3Q270.45 1.3 272.35 0M232.7,2L235.85 39.6L233.35 34.05Q231.95 35.75 230.75 42.9Q229.75 48.85 229.75 51.35L229.55 51.35L232.7 0.95L232.7 2M200.15,45.85Q200.7 48.5 202 70.25L202.6 80.1L201.55 83.95L200.95 81.05Q199.95 76.25 200.8 97.2Q198.2 63.65 197.8 55.45Q197.8 49.65 197.95 48.8Q198.25 47.15 200.15 45.85M135.8,38.6Q136.35 41.3 137.65 63.05L138.25 72.9L137.2 76.7L136.6 73.9Q135.6 69.1 136.45 90Q133.85 56.45 133.45 48.25Q133.45 42.45 133.6 41.6Q133.9 39.95 135.8 38.6M160.3,66.8L160.3 68.45L160.35 68.55L160.4 66.85L160.3 66.8M77,7.2Q77.95 8.45 79.2 11.65L78.7 18.25L78.3 26.45Q78.3 31.45 79.65 50L81 68.55L80.3 67.75Q80.3 65.65 78.65 56.7Q76.7 45.85 75 44.85L75 45.65Q74.45 46.35 74.35 47.95L74.35 41.55Q74.95 11.05 75.65 7.2L77 7.2" />
<path style="fill:#ECA8FF;fill-opacity:1" d="M298.6,140.9L298.6 141.75Q298.6 171.65 254.85 192.8Q211.15 213.95 149.3 213.95Q87.45 213.95 43.7 192.8Q1.35 172.3 0.05 143.55L0 141.7L0.2 137.95L0.2 131.25L0.5 131.75L2.45 136.8Q5.1 143.9 10.4 143.1Q13.25 142.6 17.3 147.1Q20.25 150.35 21.6 153.15L24.45 150.85L25.25 148.6Q33.1 157.15 42.15 168.15Q44.3 166.55 47.35 159.7L50.45 152.1L51.4 152.1Q53.45 161.4 57.4 170.25Q61.5 179.6 64 179.6Q66.15 179.6 67 177.85L69.1 173.85Q71.9 181 76.1 184.8Q79.25 187.55 81.55 187.55Q84.05 187.55 85.9 185.85Q87.75 184.05 89.15 184.05Q91 184.05 93.8 188.15Q96.6 192.15 97.45 192.15Q99 192.15 100.75 189.85Q102.45 187.55 104 187.55Q104.9 187.55 107.8 189.85Q110.65 192.15 111.5 192.15L115.65 188.7Q119.4 185.25 120.75 185.25Q121.1 185.25 124.95 189.3Q128.75 193.3 130.6 193.3Q131.6 193.3 133.35 190.45Q135.05 187.55 137.15 187.55Q139.45 187.55 142.3 191Q145.15 194.45 146.4 194.45Q149.75 194.45 152.95 180.45L157.5 155.5L162.65 172.25Q167.6 188.45 168.65 191.1Q172.1 189.75 174.75 185.35Q177 181.75 177 179.6Q177.7 179.9 181.7 183.9Q185.4 187.55 186.35 187.55Q187.6 187.55 194.35 183L201.2 178.4Q203.25 178.4 207.05 181.25L210.6 184.05Q211.3 184.05 217.1 176.65Q222.9 169.2 224.15 169.2Q224.85 169.2 227.65 172.15L230.55 175.05Q237.25 175.05 254.05 165.6Q270.5 156.4 273.05 156.65Q273.85 154.7 274.35 151.15Q275 148.6 277.2 148.6Q279 148.6 281.8 151.5Q284.6 154.3 286.95 154.3Q293.15 154.3 297.15 144.9L298.6 140.9" />
</g>
</svg>
