<?xml version="1.0" encoding="utf-8"?>
<svg version="1.1" id="Layer_1"
xmlns="http://www.w3.org/2000/svg"
xmlns:xlink="http://www.w3.org/1999/xlink"
xmlns:author="http://www.sothink.com"
width="63px" height="78px"
xml:space="preserve">
<g id="3025" transform="matrix(1, 0, 0, 1, 0, 0)">
<path style="fill:#0E0A0B;fill-opacity:1" d="M52,20.8Q52.35 26.15 53.8 29.95Q52.65 30.25 51.8 30.65Q49.8 26.05 49.45 21.6Q48.6 12.35 46.25 10.75Q43.85 9.05 47.6 10.25L48.4 10.65Q51.35 12.55 52 20.8M14.2,64.15L24.25 66.45Q24.3 63.1 23.6 59.7L22.35 55.35Q22.45 55.15 22.55 55.3Q24.5 56 25.65 57.8Q26.75 59.5 27.05 62.3L27.25 65.5Q29.1 64.9 33.75 62.3Q38.25 59.7 39.3 58.5L42.1 54.5Q43.4 52.25 43.8 50.5L43.75 52.3L43.85 53.7Q43.85 56.35 41.8 59.25L39.2 61.45L32.15 66.25L32.25 66.45L25.5 69.4Q27.35 71.6 29.5 72.95L25.1 73.15Q23.45 71.3 23.15 69.6Q19.35 69.3 12 66.4Q4.9 60.35 4.15 57.4Q3.35 54.35 4 51.9Q4.65 49.4 4.6 46.5L4.75 46.2L4.6 46.15Q1.15 44.85 0.6 43.15Q-0.1 41.5 0.05 40.3Q0.05 38.7 1.25 37.75Q3.15 36 4.65 35.75Q4.35 32.85 7.25 28.75Q5.8 26.05 5.05 23.5Q4.2 20.85 4.8 17.4L5.6 15Q6.75 11.1 10.75 8.85L16.5 5.1L17.6 4.25Q19.6 2.65 21.55 1.8L21.55 2.35Q21.1 5.6 16.5 8.75L13.45 10.65Q3.9 15.7 9.7 25.95Q9.9 26.9 10.6 28.15L12.15 30.95Q13.75 33.6 18.6 35.45Q24.25 35.1 26.75 38.75L26.7 38.8Q27.1 39.4 27.4 41.3L34.65 41.05Q24.6 44.9 20.75 51Q21 53.05 20.1 54.55Q16.05 48.15 15.35 44.4Q14.35 44.3 13.45 43.7Q14.45 42.55 15.85 42Q16.75 41.55 16.55 40.25Q16.25 38.9 14.6 38.15Q12.9 37.35 10.5 37.05Q8.05 36.75 5.8 38.3Q3.45 39.8 3.95 41.55Q4.35 43.25 7.7 43.35Q10.85 43.4 9.5 44.1Q8.35 44.65 7.15 45.45L6.95 51.4Q6.75 53.7 7 56.55Q8.9 59.5 12.7 62.9L14.2 64.15M38.45,70.5L36 71.45L33.8 69.65Q31.85 67.3 32.45 66.6Q34.65 68.7 36.75 69.75L38.45 70.5M11.25,33.6L9.1 30.65Q8.3 32.35 8 34.7Q9.6 33.85 11.85 34.25L11.25 33.6M18.1,43.2L17.45 43.65L19.3 47.5Q21.85 44 25.5 42.3Q24.05 39.65 23.25 39.55L18.45 38.5L19.05 40.35Q19.3 42.05 18.1 43.2" />
<path style="fill:#1C1417;fill-opacity:1" d="M56.7,35.1Q60.7 39.65 62.5 43.35L62.55 44.35Q62.55 47.55 61 50.25L61.35 50L60.9 50.45L60.65 50.85L60.45 51.15L59.9 51.55L53.25 58.25Q48.75 62.4 49.4 67.55Q50 72.4 44.45 74.15Q38.3 77.7 33.9 77.75Q31.25 77.75 29.3 76.5Q26.6 74.8 25.1 73.15L29.5 72.95Q34.55 76.05 40.45 73.35Q37.75 72.5 36 71.45L38.45 70.5L41.95 71.4Q44.8 71.9 46.65 69.75Q46.5 61.35 51.7 55.9Q53.25 54.1 58.05 50.2Q62 45.5 58.25 41.1Q54.05 35.8 51.8 30.65Q47.8 32.35 45.5 36.25L43.45 39.85L43.05 40.15L42.85 40.6L40.35 41.05L39.35 44.35L41.05 47.55Q34.65 47.4 30.2 50.85Q26.3 53.75 25.65 57.8Q24.5 56 22.55 55.3Q22.45 55.15 22.35 55.35L23.6 59.7L12.9 55.05L11.8 57.8L12.7 62.9Q8.9 59.5 7 56.55Q6.75 53.7 6.95 51.4L7.15 45.45Q8.35 44.65 9.5 44.1Q10.85 43.4 7.7 43.35Q4.35 43.25 3.95 41.55Q3.45 39.8 5.8 38.3Q8.05 36.75 10.5 37.05Q12.9 37.35 14.6 38.15Q16.25 38.9 16.55 40.25Q16.75 41.55 15.85 42Q14.45 42.55 13.45 43.7Q14.35 44.3 15.35 44.4Q16.05 48.15 20.1 54.55Q21 53.05 20.75 51Q24.6 44.9 34.65 41.05L27.4 41.3Q27.1 39.4 26.7 38.8L26.75 38.75Q24.25 35.1 18.6 35.45Q13.75 33.6 12.15 30.95L10.6 28.15Q9.9 26.9 9.7 25.95Q3.9 15.7 13.45 10.65L16.5 8.75Q21.1 5.6 21.55 2.35Q24.9 0.25 29.2 0.05L30.35 0L31.5 0.1Q35.45 0.25 39.2 2.1Q40.85 2.85 42.45 3.75L48.35 10.45L48.4 10.65L47.6 10.25Q43.85 9.05 46.25 10.75Q48.6 12.35 49.45 21.6Q49.8 26.05 51.8 30.65Q52.65 30.25 53.8 29.95Q54.85 33.05 56.7 35.1M47.85,42.5Q46.55 37.9 49.15 42.1L49.15 42.75L49.05 42.9Q48.05 43.6 47.85 42.5M19.05,40.35L18.45 38.5L23.25 39.55Q24.05 39.65 25.5 42.3Q21.85 44 19.3 47.5L17.45 43.65L18.1 43.2Q19.3 42.05 19.05 40.35M44.55,49.8L44.8 50.4L45.3 50.8Q47.5 54.5 43.9 64.5L43.85 64.5Q43 67.15 41.2 68.45L38.45 70.5L36.75 69.75Q34.65 68.7 32.45 66.6Q31.85 67.3 33.8 69.65L36 71.45L35.05 71.8L29.5 72.95Q27.35 71.6 25.5 69.4L32.25 66.45L32.15 66.25L39.2 61.45L41.8 59.25Q43.85 56.35 43.85 53.7L43.75 52.3L44.55 49.8" />
<path style="fill:#3C3134;fill-opacity:1" d="M12.7,62.9L11.8 57.8L12.9 55.05L23.6 59.7Q24.3 63.1 24.25 66.45L14.2 64.15L12.7 62.9M43.75,52.3L43.8 50.5Q43.4 52.25 42.1 54.5L39.3 58.5Q38.25 59.7 33.75 62.3Q29.1 64.9 27.25 65.5L27.05 62.3Q26.75 59.5 25.65 57.8Q26.3 53.75 30.2 50.85Q34.65 47.4 41.05 47.55L39.35 44.35L40.35 41.05L42.85 40.6L43.05 40.15L43.45 39.85L45.5 36.25Q47.8 32.35 51.8 30.65Q54.05 35.8 58.25 41.1Q62 45.5 58.05 50.2Q53.25 54.1 51.7 55.9Q46.5 61.35 46.65 69.75Q44.8 71.9 41.95 71.4L38.45 70.5L41.2 68.45Q43 67.15 43.85 64.5L43.9 64.5Q47.5 54.5 45.3 50.8L44.8 50.4L44.55 49.8L43.75 52.3M36,71.45Q37.75 72.5 40.45 73.35Q34.55 76.05 29.5 72.95L35.05 71.8L36 71.45M49.05,42.9L49.15 42.75L49.15 42.1Q46.55 37.9 47.85 42.5Q48.05 43.6 49.05 42.9M56.95,44.05Q54.75 39.1 53 42.1Q52.1 43.65 52.9 45.55Q54.55 49.8 56.5 45.75L56.95 44.05M32.8,55.65Q32.7 56.05 33.4 56.1Q38.25 56.45 39.1 51Q34.15 50.2 32.8 55.65M21.3,61.45Q19.45 59.8 17.65 61.25L17.5 61.4Q18.7 62.9 21.05 62.25L21.3 61.45M52.6,51.8Q49.25 51.25 49.9 54.95L50 55.05Q51.6 53.95 52.6 52L52.6 51.8" />
<path style="fill:#625158;fill-opacity:1" d="M56.5,45.75Q54.55 49.8 52.9 45.55Q52.1 43.65 53 42.1Q54.75 39.1 56.95 44.05L56.5 45.75M39.1,51Q38.25 56.45 33.4 56.1Q32.7 56.05 32.8 55.65Q34.15 50.2 39.1 51M21.05,62.25Q18.7 62.9 17.5 61.4L17.65 61.25Q19.45 59.8 21.3 61.45L21.05 62.25M52.6,52Q51.6 53.95 50 55.05L49.9 54.95Q49.25 51.25 52.6 51.8L52.6 52" />
<path style="fill:#232323;fill-opacity:1" d="M11.85,34.25Q9.6 33.85 8 34.7Q8.3 32.35 9.1 30.65L11.25 33.6L11.85 34.25" />
</g>
</svg>
