<?xml version="1.0" encoding="utf-8"?>
<svg version="1.1" id="Layer_1"
xmlns="http://www.w3.org/2000/svg"
xmlns:xlink="http://www.w3.org/1999/xlink"
xmlns:author="http://www.sothink.com"
width="45px" height="45px"
xml:space="preserve">
<g id="1129" transform="matrix(1, 0, 0, 1, 22.5, 22.5)">
<path style="fill:#FFC56D;fill-opacity:1" d="M15.9,-15.95Q22.5 -9.3 22.5 0Q22.5 9.3 15.9 15.85Q9.3 22.5 0 22.5Q-9.3 22.5 -15.9 15.85Q-22.5 9.3 -22.5 0Q-22.5 -9.3 -15.9 -15.95Q-9.3 -22.5 0 -22.5Q9.3 -22.5 15.9 -15.95M0,-20.05Q-8.3 -20.05 -14.2 -14.25Q-20.05 -8.3 -20.05 0Q-20.05 8.3 -14.2 14.15Q-8.3 20.05 0 20.05Q8.3 20.05 14.2 14.15Q20.05 8.3 20.05 0Q20.05 -8.3 14.2 -14.25Q8.3 -20.05 0 -20.05" />
</g>
</svg>
