<?xml version="1.0" encoding="utf-8"?>
<svg version="1.1" id="Layer_1"
xmlns="http://www.w3.org/2000/svg"
xmlns:xlink="http://www.w3.org/1999/xlink"
xmlns:author="http://www.sothink.com"
width="96px" height="108px"
xml:space="preserve">
<g id="2472" transform="matrix(1, 0, 0, 1, -21.35, 103.15)">
<linearGradient
id="LinearGradID_2466" gradientUnits="userSpaceOnUse" gradientTransform="matrix(-0.000686646, 0.039505, -0.0549469, -0.0148926, 69.05, -44.15)" spreadMethod ="pad" x1="-819.2" y1="0" x2="819.2" y2="0" >
<stop  offset="0" style="stop-color:#F8F8F8;stop-opacity:0.2" />
<stop  offset="1" style="stop-color:#FFFFFF;stop-opacity:0.701961" />
</linearGradient>
<path style="fill:url(#LinearGradID_2466) " d="M75.95,-84.35Q74.2 -93.45 62.95 -103.15Q70.45 -100.85 78.65 -95Q93.25 -83.8 94.95 -76.2Q95.1 -78.5 94.45 -81.35L92.5 -86.4Q97.5 -82.6 104.45 -70.85Q107.45 -65.95 109.55 -61Q110.05 -67.2 108.95 -70.7Q111.35 -65.95 113.2 -60.45L113.85 -58.55L114.9 -53.55L115.5 -49.85L115.5 -49.55L116.4 -42.1Q117.8 -23.25 111.5 -11Q109.85 -8.05 107.7 -5.4L101.2 -4.5L93.9 1.5L85.1 1.8L77.25 -1.65L75.05 -4.5L69.65 2.8L61.1 4.35L50.1 1.8L45.35 -2.3L40.35 -7.65Q33.95 -12.65 30.7 -13.75Q27.45 -14.95 24.8 -17.75L21.55 -21Q20.95 -21.5 22.25 -27Q23.6 -32.55 24.5 -34.8Q24.55 -36.9 24.7 -36.9Q24.6 -36.5 34.3 -37.15Q48.2 -39.6 51.7 -48.2Q53.8 -45.5 53.95 -42.25Q59.5 -47.35 62.7 -52.4Q65.55 -57.4 66.55 -62.95Q67.15 -68.75 66.4 -73.95Q72.75 -69.7 73.45 -65.5Q75.15 -69 74 -76.2Q72.45 -84 66.25 -90.35Q68.95 -90.5 72.05 -88.35Q74.85 -86.25 75.95 -84.35" />
</g>
</svg>
