<?xml version="1.0" encoding="utf-8"?>
<svg version="1.1" id="Layer_1"
xmlns="http://www.w3.org/2000/svg"
xmlns:xlink="http://www.w3.org/1999/xlink"
xmlns:author="http://www.sothink.com"
width="17px" height="19px"
xml:space="preserve">
<g id="1155" transform="matrix(1, 0, 0, 1, -60.2, -69)">
<path style="fill:#302B4A;fill-opacity:1" d="M61.35,72.2Q61.1 72.8 61.1 73.65L61.15 74Q61.2 75 61.5 75.75L61.8 76.45L62.35 77.25L62.9 77.4L63.15 77.45L66.35 77.65L69.45 77.4L70.9 77.6L71.15 77.75L71.2 77.95L70.4 78.8L69.6 79.6Q68.85 80.5 68.3 82Q67.3 84.45 67.75 86.1L69.95 85.95L71.15 85.55L71.25 85.5L71.35 85.5L71.6 85.4L71.65 85.4L72.1 85.05Q73.1 84.3 73.3 82.95Q73.85 79.8 74.55 77.05Q75.25 74.2 74.15 74.3L72.95 74.4L70.65 74.7L68.55 74.65Q65.95 74.55 65.5 72.05L65.25 69.15L65.25 69L65.8 69.05Q66.25 69.2 66.25 70.15Q66.2 71.5 66.5 72.2L66.9 73Q67.95 74 69.45 73.85L72.2 73.45L74.25 73.2Q75 73.2 75.45 73.6L76.2 74.5L76.35 75.5L76 76.7L75.35 78.55Q75 79.75 74.95 82.75Q74.85 84.35 73.9 85.45L72 86.65Q71.4 86.8 70.35 87.25L68.95 87.5L68.55 87.5L67.8 87.45L67.6 87.4L67.15 87.15L66.85 86.6L66.85 86.55Q66.65 86.2 66.65 84.95L67.05 82.2Q67.3 80.8 68.35 79.6L69.35 78.45L69.45 78.4L68.25 78.45L65.3 78.55L62.4 78.3L61.5 77.75L61.45 77.65L60.7 76.45Q60 74.95 60.25 73.7Q60.35 72.7 60.7 72.2L61.05 71.85Q61.4 71.4 61.45 71.7L61.35 72.2M73.2,74.65L73.2 74.7L73.15 74.65L73.2 74.65" />
<path style="fill:#9C89C2;fill-opacity:1" d="M61.1,73.65Q61.1 72.8 61.35 72.2L61.45 71.7L62.45 70.45Q63.95 69 65.25 69.15L65.5 72.05Q65.95 74.55 68.55 74.65L70.65 74.7L70.65 74.75L68.4 74.8Q66.15 74.6 65.2 73L64.2 71.05L63.5 71.45Q62.15 72.2 61.1 73.65M71.25,85.5L71.15 85.55L69.95 85.95L67.75 86.1Q67.3 84.45 68.3 82Q68.85 80.5 69.6 79.6Q69.2 80.4 69.05 81.85Q68.6 84.1 69.15 84.9L70.1 85.55L70.35 85.55L71.25 85.5" />
<path style="fill:#7A61AA;fill-opacity:1" d="M70.35,85.55L70.1 85.55L69.15 84.9Q68.6 84.1 69.05 81.85Q69.2 80.4 69.6 79.6L70.4 78.8L71.2 77.95L71.15 77.75L71.85 77.5L72.1 77.3L72.3 77.1L72.65 76.35L70.95 76.4L64.9 76.95L63 76.85L61.8 76.45L61.5 75.75Q61.2 75 61.15 74L61.1 73.65Q62.15 72.2 63.5 71.45L64.2 71.05L65.2 73Q66.15 74.6 68.4 74.8L70.65 74.75L70.65 74.7L72.95 74.4L73.15 74.65L73.2 74.7L73.25 74.75L74.05 75.35L73.65 75.1L73.95 75.8L73.65 76.65L72.4 80.5Q72.1 82.05 72.3 82.6L72.4 83.25Q72.5 83.95 72.1 85.05L71.65 85.4L71.6 85.4L71.35 85.5L71.25 85.5L70.35 85.55" />
<path style="fill:#524591;fill-opacity:1" d="M73.15,74.65L72.95 74.4L74.15 74.3Q75.25 74.2 74.55 77.05Q73.85 79.8 73.3 82.95Q73.1 84.3 72.1 85.05Q72.5 83.95 72.4 83.25L72.3 82.6Q72.1 82.05 72.4 80.5L73.65 76.65L73.95 75.8L73.65 75.1L74.05 75.35L73.25 74.75L73.2 74.7L73.2 74.65L73.15 74.65M71.15,77.75L70.9 77.6L69.45 77.4L66.35 77.65L63.15 77.45L62.9 77.4L62.35 77.25L61.8 76.45L63 76.85L64.9 76.95L70.95 76.4L72.65 76.35L72.3 77.1L72.1 77.3L71.85 77.5L71.15 77.75" />
</g>
</svg>
