<?xml version="1.0" encoding="utf-8"?>
<svg version="1.1" id="Layer_1"
xmlns="http://www.w3.org/2000/svg"
xmlns:xlink="http://www.w3.org/1999/xlink"
xmlns:author="http://www.sothink.com"
width="395px" height="261px"
xml:space="preserve">
<g id="759" transform="matrix(1, 0, 0, 1, -298.8, -58.6)">
<path style="fill:#C5844C;fill-opacity:1" d="M317.05,305.45Q313.2 308.3 309.35 311.6Q307.6 309.15 307.6 305L307.6 74.05Q307.6 64.05 317.6 64.05L674.85 64.05Q679.6 64.05 682.1 66.3L673.95 72.2L673.25 71.75Q671 70.45 667.35 70.45L646.9 70.45L584.85 70.45L325 70.45Q315.2 70.45 315.2 80L315.2 299Q315.2 303.1 317.05 305.45" />
<path style="fill:#663723;fill-opacity:1" d="M682.1,66.3Q684.85 68.8 684.85 74.05L684.85 305Q684.85 315.05 674.85 315.05L317.6 315.05Q311.75 315.05 309.35 311.6Q313.2 308.3 317.05 305.45L317.7 306.2Q320.1 308.65 325 308.65L584.85 308.65L646.9 308.65L667.35 308.65Q677.15 308.65 677.15 299L677.15 80Q677.15 74.55 673.95 72.2L682.1 66.3" />
<linearGradient
id="LinearGradID_881" gradientUnits="userSpaceOnUse" gradientTransform="matrix(-0.342911, -0.688995, 0.244034, -0.99147, 764.9, 535.9)" spreadMethod ="pad" x1="-819.2" y1="0" x2="819.2" y2="0" >
<stop  offset="0" style="stop-color:#884A35;stop-opacity:1" />
<stop  offset="1" style="stop-color:#9F5F46;stop-opacity:1" />
</linearGradient>
<path style="fill:url(#LinearGradID_881) " d="M315.2,299L315.2 80Q315.2 70.45 325 70.45L584.85 70.45L584.85 308.65L325 308.65Q320.1 308.65 317.7 306.2L317.05 305.45Q315.2 303.1 315.2 299" />
<linearGradient
id="LinearGradID_882" gradientUnits="userSpaceOnUse" gradientTransform="matrix(-0.342911, -0.688995, 0.244034, -0.99147, 746.9, 535.9)" spreadMethod ="pad" x1="-819.2" y1="0" x2="819.2" y2="0" >
<stop  offset="0" style="stop-color:#884A35;stop-opacity:1" />
<stop  offset="1" style="stop-color:#9F5F46;stop-opacity:1" />
</linearGradient>
<path style="fill:url(#LinearGradID_882) " d="M646.9,70.45L667.35 70.45Q671 70.45 673.25 71.75L673.95 72.2Q677.15 74.55 677.15 80L677.15 299Q677.15 308.65 667.35 308.65L646.9 308.65L646.9 70.45" />
<linearGradient
id="LinearGradID_883" gradientUnits="userSpaceOnUse" gradientTransform="matrix(-0.462555, -0.688995, 0.329178, -0.99147, 781.8, 535.9)" spreadMethod ="pad" x1="-819.2" y1="0" x2="819.2" y2="0" >
<stop  offset="0" style="stop-color:#884A35;stop-opacity:1" />
<stop  offset="1" style="stop-color:#9F5F46;stop-opacity:1" />
</linearGradient>
<path style="fill:url(#LinearGradID_883) " d="M584.85,70.45L646.9 70.45L646.9 308.65L584.85 308.65L584.85 70.45" />
<path style="fill:none;stroke-width:3;stroke-linecap:round;stroke-linejoin:round;stroke-miterlimit:3;stroke:#000000;stroke-opacity:1" d="M309.35,311.6Q311.75 315.05 317.6 315.05L674.85 315.05Q684.85 315.05 684.85 305L684.85 74.05Q684.85 68.8 682.1 66.3Q679.6 64.05 674.85 64.05L317.6 64.05Q307.6 64.05 307.6 74.05L307.6 305Q307.6 309.15 309.35 311.6z" />
<linearGradient
id="LinearGradID_884" gradientUnits="userSpaceOnUse" gradientTransform="matrix(0, -0.144928, 5.69028, 0, -2235.9, 152.05)" spreadMethod ="pad" x1="-819.2" y1="0" x2="819.2" y2="0" >
<stop  offset="0" style="stop-color:#B68F44;stop-opacity:1" />
<stop  offset="1" style="stop-color:#D7B064;stop-opacity:1" />
</linearGradient>
<path style="fill:url(#LinearGradID_884) " d="M617.6,187.6L617.6 61.9L642.85 61.9L684.45 61.9L684.45 187.6L617.6 187.6" />
<linearGradient
id="LinearGradID_885" gradientUnits="userSpaceOnUse" gradientTransform="matrix(0, -0.56813, 5.69028, 0, -2235.9, -16.1)" spreadMethod ="pad" x1="-819.2" y1="0" x2="819.2" y2="0" >
<stop  offset="0" style="stop-color:#B68F44;stop-opacity:1" />
<stop  offset="1" style="stop-color:#D7B064;stop-opacity:1" />
</linearGradient>
<path style="fill:url(#LinearGradID_885) " d="M617.6,257.6L617.6 187.6L684.45 187.6L684.45 204L684.45 257.6L617.6 257.6" />
<linearGradient
id="LinearGradID_886" gradientUnits="userSpaceOnUse" gradientTransform="matrix(0, -0.144928, 5.69028, 0, -2235.9, 187.8)" spreadMethod ="pad" x1="-819.2" y1="0" x2="819.2" y2="0" >
<stop  offset="0" style="stop-color:#B68F44;stop-opacity:1" />
<stop  offset="1" style="stop-color:#D7B064;stop-opacity:1" />
</linearGradient>
<path style="fill:url(#LinearGradID_886) " d="M617.6,257.6L684.45 257.6L684.45 314.35L617.6 314.35L617.6 257.6" />
<linearGradient
id="LinearGradID_887" gradientUnits="userSpaceOnUse" gradientTransform="matrix(0, -0.144928, 5.69028, 0, -2210.65, 152.05)" spreadMethod ="pad" x1="-819.2" y1="0" x2="819.2" y2="0" >
<stop  offset="0" style="stop-color:#B68F44;stop-opacity:1" />
<stop  offset="1" style="stop-color:#D7B064;stop-opacity:1" />
</linearGradient>
<path style="fill:url(#LinearGradID_887) " d="M471.45,187.6L471.45 61.9L617.6 61.9L617.6 187.6L471.45 187.6" />
<linearGradient
id="LinearGradID_888" gradientUnits="userSpaceOnUse" gradientTransform="matrix(0, -0.144928, 28.2406, 0, -12741.2, 152.05)" spreadMethod ="pad" x1="-819.2" y1="0" x2="819.2" y2="0" >
<stop  offset="0" style="stop-color:#B68F44;stop-opacity:1" />
<stop  offset="1" style="stop-color:#D7B064;stop-opacity:1" />
</linearGradient>
<path style="fill:url(#LinearGradID_888) " d="M386.45,187.6L386.45 61.9L451.6 61.9L471.45 61.9L471.45 187.6L386.45 187.6" />
<linearGradient
id="LinearGradID_889" gradientUnits="userSpaceOnUse" gradientTransform="matrix(0, -0.56813, 28.2406, 0, -12741.2, -16.1)" spreadMethod ="pad" x1="-819.2" y1="0" x2="819.2" y2="0" >
<stop  offset="0" style="stop-color:#B68F44;stop-opacity:1" />
<stop  offset="1" style="stop-color:#D7B064;stop-opacity:1" />
</linearGradient>
<path style="fill:url(#LinearGradID_889) " d="M471.45,257.6L386.45 257.6L386.45 187.6L471.45 187.6L471.45 257.6" />
<linearGradient
id="LinearGradID_890" gradientUnits="userSpaceOnUse" gradientTransform="matrix(0, -0.144928, 5.69028, 0, -2258.7, 152.05)" spreadMethod ="pad" x1="-819.2" y1="0" x2="819.2" y2="0" >
<stop  offset="0" style="stop-color:#B68F44;stop-opacity:1" />
<stop  offset="1" style="stop-color:#D7B064;stop-opacity:1" />
</linearGradient>
<path style="fill:url(#LinearGradID_890) " d="M304.35,187.6L304.35 61.9L386.45 61.9L386.45 187.6L304.35 187.6" />
<linearGradient
id="LinearGradID_891" gradientUnits="userSpaceOnUse" gradientTransform="matrix(0, -0.144928, 5.69028, 0, -2258.7, 187.8)" spreadMethod ="pad" x1="-819.2" y1="0" x2="819.2" y2="0" >
<stop  offset="0" style="stop-color:#B68F44;stop-opacity:1" />
<stop  offset="1" style="stop-color:#D7B064;stop-opacity:1" />
</linearGradient>
<path style="fill:url(#LinearGradID_891) " d="M386.45,257.6L386.45 314.35L304.35 314.35L304.35 257.6L386.45 257.6" />
<linearGradient
id="LinearGradID_892" gradientUnits="userSpaceOnUse" gradientTransform="matrix(0, -0.144928, 28.2406, 0, -12741.2, 187.8)" spreadMethod ="pad" x1="-819.2" y1="0" x2="819.2" y2="0" >
<stop  offset="0" style="stop-color:#B68F44;stop-opacity:1" />
<stop  offset="1" style="stop-color:#D7B064;stop-opacity:1" />
</linearGradient>
<path style="fill:url(#LinearGradID_892) " d="M386.45,257.6L471.45 257.6L471.45 314.35L386.45 314.35L386.45 257.6" />
<linearGradient
id="LinearGradID_893" gradientUnits="userSpaceOnUse" gradientTransform="matrix(0, -0.144928, 5.69028, 0, -2210.65, 187.8)" spreadMethod ="pad" x1="-819.2" y1="0" x2="819.2" y2="0" >
<stop  offset="0" style="stop-color:#B68F44;stop-opacity:1" />
<stop  offset="1" style="stop-color:#D7B064;stop-opacity:1" />
</linearGradient>
<path style="fill:url(#LinearGradID_893) " d="M617.6,257.6L617.6 314.35L471.45 314.35L471.45 257.6L617.6 257.6" />
<linearGradient
id="LinearGradID_894" gradientUnits="userSpaceOnUse" gradientTransform="matrix(0, -0.56813, 5.69028, 0, -2210.65, -16.1)" spreadMethod ="pad" x1="-819.2" y1="0" x2="819.2" y2="0" >
<stop  offset="0" style="stop-color:#B68F44;stop-opacity:1" />
<stop  offset="1" style="stop-color:#D7B064;stop-opacity:1" />
</linearGradient>
<path style="fill:url(#LinearGradID_894) " d="M471.45,257.6L471.45 187.6L617.6 187.6L617.6 257.6L471.45 257.6" />
<linearGradient
id="LinearGradID_895" gradientUnits="userSpaceOnUse" gradientTransform="matrix(0, -0.56813, 5.69028, 0, -2258.7, -16.1)" spreadMethod ="pad" x1="-819.2" y1="0" x2="819.2" y2="0" >
<stop  offset="0" style="stop-color:#B68F44;stop-opacity:1" />
<stop  offset="1" style="stop-color:#D7B064;stop-opacity:1" />
</linearGradient>
<path style="fill:url(#LinearGradID_895) " d="M386.45,187.6L386.45 257.6L304.35 257.6L304.35 187.6L386.45 187.6" />
<path style="fill:none;stroke-width:0.1;stroke-linecap:round;stroke-linejoin:round;stroke-miterlimit:3;stroke:#662616;stroke-opacity:1" d="M642.85,61.9L684.45 61.9L684.45 187.6M684.45,204L684.45 257.6L684.45 314.35L617.6 314.35L471.45 314.35L386.45 314.35L304.35 314.35L304.35 257.6L304.35 187.6L304.35 61.9L386.45 61.9L451.6 61.9M471.45,61.9L617.6 61.9" />
<path style="fill:#E0C287;fill-opacity:1" d="M668.95,74.2L653.2 73.6L634.4 72.9L617.6 72.3L617.6 71.6Q608.3 71.45 612.05 71.9L571.05 72.35L484.8 72.5L464.1 72.45L456.05 72.4L451.6 72.4L401.95 72.35L403.05 72.1L386.45 72.2L384.6 72.35L380.95 72.35Q388.7 72.75 378.5 72.5L364.15 72.15Q359.95 71.95 357.25 72.3L320 72.35L308.95 72.4L308.95 67.65L684.3 67.65L684.3 74.3L676.85 74.2L668.95 74.2M517.2,69.8L518.45 70.1L521.8 70.35Q521.5 70 522.05 69.8L518.1 69.9L517.2 69.8M550.9,71.95L553.95 72.15L553.95 72.1L553.85 71.85L550.9 71.95M399.7,69.65Q393.4 69.1 386.45 69.35L386.4 69.35Q386.25 69.4 386.45 69.45L399.7 69.65" />
<linearGradient
id="LinearGradID_896" gradientUnits="userSpaceOnUse" gradientTransform="matrix(0.000106812, -0.101532, 1.05261, 0.000961304, 412.1, 199.8)" spreadMethod ="pad" x1="-819.2" y1="0" x2="819.2" y2="0" >
<stop  offset="0" style="stop-color:#B1842D;stop-opacity:1" />
<stop  offset="1" style="stop-color:#C69D4E;stop-opacity:1" />
</linearGradient>
<path style="fill:url(#LinearGradID_896) " d="M617.6,87.75L617.6 87.4L618.1 87.45L634.4 88.4L670.5 89.6L670.7 90Q651.95 92.2 634.4 90.4Q625.85 89.55 617.65 87.75L617.6 87.75M641.4,96.3L635.95 96.3L634.4 96.3L633.8 96.3L617.6 96.3L617.6 93.45L617.6 93.2L624.7 93.25L634.4 93.4L642.85 93.6L663.75 94.3L674.65 94.7L678.05 94.75L686.65 95.15L687.55 95.15L689.75 95.2L689.75 95.3L687.55 95.25L686.65 95.25L681.6 95.05L678.05 95.2L672.2 95.45L642.85 96.2L641.4 96.3M681.85,121.8L684.45 121.75L684.45 121.9L681.85 121.8M639,126.2L634.4 126.35Q625.7 126.55 617.6 126.35L617.6 124.35L617.6 123.2L634.4 123.5L641.2 123.65L642.85 123.7L667.25 124.1L667.15 124.5L644.35 126L642.85 126.05L641.2 126.1L639 126.2M678.3,130.8L678.15 130.95L677.1 131.9L677 131.9L673.15 131.7L671.85 130.45Q671.4 129.8 672.05 129.65L677 130.45L678.3 130.8M617.6,161.6L617.6 161.4L634.4 161.35L660.15 161.45Q687.85 162 681.05 163.6L680.2 163.95L634.4 163.65L617.6 163.35L617.6 162.85L617.6 161.6M617.6,196.05L617.6 195.75L634.4 195.7Q651.05 195.65 661.85 195.85Q689.55 196.4 682.75 197.95Q682.35 198.35 681.9 198.35L634.4 197.9L617.6 197.6L617.6 197.1L617.6 196.05M627.05,74.6L627.45 74.2L627.4 74.6L627.05 74.6M630.05,155L630.5 155.3L630.7 155.5L617.6 156.3L617.6 155.7L617.6 154.2L622.25 153.85Q626.5 153.05 630.05 155M623.95,188.15Q628.5 187.3 632.25 189.6L632.4 189.85L617.6 190.75L617.6 188.65L623.95 188.15" />
<linearGradient
id="LinearGradID_897" gradientUnits="userSpaceOnUse" gradientTransform="matrix(0.000106812, -0.101532, 1.05261, 0.000961304, 412.1, 235.55)" spreadMethod ="pad" x1="-819.2" y1="0" x2="819.2" y2="0" >
<stop  offset="0" style="stop-color:#B1842D;stop-opacity:1" />
<stop  offset="1" style="stop-color:#C69D4E;stop-opacity:1" />
</linearGradient>
<path style="fill:url(#LinearGradID_897) " d="M651,274.75L676.85 276.2L684.3 276.55L684.3 278.65L676.85 278.45Q663.45 277.85 650.85 275Q649.7 274.75 651 274.75M634.4,283.7L630.05 283.7L617.6 283.75L617.6 281.35L634.4 280.65Q651.05 280.35 676.85 281.05L684.3 281.25L684.3 283.5L676.85 283.7L662.95 283.7L642.85 283.7L634.4 283.7M627.05,274.4Q624 277.2 620.1 274.3L619.85 274.1L620.05 273.45L620.65 272.65L621.3 272.15Q624.45 272.15 627.2 273.75L627.5 274L627.05 274.4" />
<linearGradient
id="LinearGradID_898" gradientUnits="userSpaceOnUse" gradientTransform="matrix(0, -0.13031, 5.78008, 0, -2372.55, 207.1)" spreadMethod ="pad" x1="-819.2" y1="0" x2="819.2" y2="0" >
<stop  offset="0" style="stop-color:#B1842D;stop-opacity:1" />
<stop  offset="1" style="stop-color:#C69D4E;stop-opacity:1" />
</linearGradient>
<path style="fill:url(#LinearGradID_898) " d="M650.05,291.3Q648.45 288.4 644.65 289.45Q643.35 289.7 644.15 290.7Q647 294.05 650.1 291.6L650.05 291.3M634.4,294.05L617.6 294.2L617.6 289.25L617.6 288.1L630.15 287.45L634.4 287.2Q657.45 286.05 663.35 287.15L676.85 286.55L684.3 286.25L684.3 293.9L676.85 293.85L642.85 294L634.4 294.05M638.55,297.1L684.3 296.7L684.3 309.75L617.6 309.75L617.6 303.2L625.1 303.25L634.4 303.3L640.2 303.35L639.7 303.2L638.8 302.95Q650.25 302.55 659.7 302.55Q658.75 301.65 651 300.7L644.45 300.3L642.85 300.3L617.6 300.4L617.6 297.25L638.55 297.1" />
<linearGradient
id="LinearGradID_899" gradientUnits="userSpaceOnUse" gradientTransform="matrix(0.000106812, -0.101532, 1.05261, 0.000961304, 437.3, 199.8)" spreadMethod ="pad" x1="-819.2" y1="0" x2="819.2" y2="0" >
<stop  offset="0" style="stop-color:#B1842D;stop-opacity:1" />
<stop  offset="1" style="stop-color:#C69D4E;stop-opacity:1" />
</linearGradient>
<path style="fill:url(#LinearGradID_899) " d="M617.65,87.75Q614.95 89.4 611.65 86.95L611.4 86.75L611.6 86.1Q611.8 85.6 612.15 85.25L612.8 84.8Q616 84.8 618.75 86.35L619 86.6L618.55 87.05L618.1 87.45L617.6 87.4L617.6 87.75L617.65 87.75M642.85,93.2L642.85 93.6L634.4 93.4L624.7 93.25Q632.65 93.1 642.85 93.2M595.8,96.35L596.85 96.3Q600.45 94.15 617.6 93.45L617.6 96.3L595.8 96.35M641.4,96.3L642.85 96.2L642.85 96.3L641.4 96.3M641.2,126.1L642.85 126.05L642.85 126.35L639 126.2L641.2 126.1M617.6,124.35Q611.15 123.45 613.15 122.8L642.85 123.2L642.85 123.7L641.2 123.65L634.4 123.5L617.6 123.2L617.6 124.35M617.6,161.6L617.6 162.85L613.1 162.75L600 162.3L597.2 162.2L590.85 162L591.9 161.95L597.2 161.9L600 161.85L613.1 161.65L617.6 161.6M617.6,197.1L614.75 197.05L614.75 196.05L617.6 196.05L617.6 197.1M597.8,97.05L597.8 97.1L597.55 97.05L597.8 97.05M642.55,87.3L642.85 87.4L642.85 87.75L642.35 87.6Q641.2 87.4 642.55 87.3M493.3,94.45L493.45 94.9L491.35 94.9L491.35 94.3L493.3 94.45M505.7,98.05L514.5 98.15L557.1 98.85L583.05 99.3L583.05 99.7L560.25 101.2L557.1 101.3Q536.55 102.25 519.2 100.7L514.5 100.3L505.7 99.15Q502.25 98.55 503.8 98L505.7 98.05M515.75,127.1L569 129.4L569.2 129.75Q541 133.1 515.55 127.4Q514.45 127.15 515.75 127.1M505.7,136.1L469.1 136.15L470.15 136.05Q475.05 133.05 505.7 132.9L514.5 132.9Q534.15 133.05 562.25 134.05L573.1 134.45L576.6 134.55L586 134.85L586 134.95L580.15 134.8L576.6 134.95L570.75 135.2Q547.55 136.15 527.7 136.1L514.5 136.1L505.7 136.1M492.2,126.35L491.8 126.8Q488.75 129.55 484.9 126.65L484.65 126.5L484.85 125.8L485.45 125L486.1 124.55Q489.2 124.55 492 126.05L492.2 126.35M494.7,159.65L494.95 159.65L494.95 159.7L494.7 159.65M490.1,169.75L486.2 169.55L484.9 168.25Q484.35 167.65 485.1 167.45Q488.35 167.7 491.35 168.65L491.2 168.85L490.1 169.75M503.05,172L503.05 171.4L505.05 171.65L505.1 172L503.05 172M515.5,175.15L568.85 175.95L594.8 176.45L594.7 176.85L571.9 178.3L568.85 178.45Q548.2 179.35 530.9 177.85Q512.3 176.2 515.5 175.15M636.15,111.75L635.65 112.15Q632.65 114.95 628.75 112.05L628.5 111.85L628.65 111.5L635.9 111.5L636.15 111.75M634.85,130.35Q638 130.35 640.75 131.9L633.55 131.9L633.65 131.65L634.25 130.8Q634.55 130.45 634.85 130.35M594.2,106L594.1 106.2L592.95 107.15L589.05 106.95L587.75 105.65Q587.3 105 587.9 104.85Q591.2 105.05 594.2 106M617.6,156.3L630.7 155.5L630.5 155.3L630.05 155L642.85 154.2L642.85 156.3L613.1 157.2L600 157.25L597.2 157.25L588.3 157.15L588.3 157.1L597.2 156.7L600 156.55L613.1 155.95L617.6 155.7L617.6 156.3M605.8,183.35L604.7 184.25L600.75 184.1L599.45 182.75Q599 182.15 599.65 182Q602.9 182.2 605.85 183.15L605.8 183.35M642.85,190.75L630.7 191.2Q632.75 190.55 634.2 189.2L642.85 188.65L642.85 190.75M483.55,80.4L483.55 80.5L480.9 80.45L483.55 80.4M470.95,89.05Q470.45 88.45 471.15 88.3L476.05 89.05L477.4 89.45L477.3 89.7L476.15 90.55L476.05 90.55L472.25 90.35L470.95 89.05M471.45,161.75L480.25 161.95L480.1 162.3L471.45 163L471.45 161.75M579.15,199.7L579.45 199.7L579.45 199.75L579.15 199.7M538.75,203.95L537.9 204L510.05 204L505.7 203.75L500.8 203.35Q482.2 201.75 485.45 200.65L505.7 200.95L538.75 201.5L564.7 201.95L564.6 202.35L541.8 203.85L538.75 203.95" />
<linearGradient
id="LinearGradID_900" gradientUnits="userSpaceOnUse" gradientTransform="matrix(0.000106812, -0.398041, 1.05261, 0.00375366, 437.3, 171.15)" spreadMethod ="pad" x1="-819.2" y1="0" x2="819.2" y2="0" >
<stop  offset="0" style="stop-color:#B1842D;stop-opacity:1" />
<stop  offset="1" style="stop-color:#C69D4E;stop-opacity:1" />
</linearGradient>
<path style="fill:url(#LinearGradID_900) " d="M537.9,187.6Q523.1 190.1 510.05 187.6L537.9 187.6M471.45,240.85L482.15 241.35Q509.8 243.35 503.05 249.55Q502.6 250.95 502.15 250.95Q483.15 250.8 464.1 250L451.6 249.4L451.6 249.1L471.45 249.4L471.45 240.85M627.05,224.1Q627.35 222.55 627.65 222.1Q630.8 222.1 633.55 228.3L633.8 229.4L633.4 231.1L632.35 234Q630.3 238.7 628 234Q627.2 232.8 626.5 230.45L626.2 229.7Q626.25 228.45 626.45 227.35L627.05 224.1M574.6,210.3L571.45 209.6L570.7 209.5Q570 207.8 569.4 204.55Q568.85 201.9 569.5 201.4Q572.8 202.2 575.8 205.95L575.7 206.7L574.8 209.6L574.6 210.3" />
<linearGradient
id="LinearGradID_901" gradientUnits="userSpaceOnUse" gradientTransform="matrix(0.000549316, -0.101532, 5.22412, 0.000961304, 400.55, 199.8)" spreadMethod ="pad" x1="-819.2" y1="0" x2="819.2" y2="0" >
<stop  offset="0" style="stop-color:#B1842D;stop-opacity:1" />
<stop  offset="1" style="stop-color:#C69D4E;stop-opacity:1" />
</linearGradient>
<path style="fill:url(#LinearGradID_901) " d="M386.45,82.2L415.45 82.3L471.45 82.5L471.45 84.2L430.75 84.65L415.45 84.8L386.45 85.05L386.45 82.2M386.45,110L386.45 107.7Q484.75 108.3 455.7 109.7L451.65 110L386.45 110M386.45,190.65L386.45 188.75L464.9 189.05Q465.15 189.05 466.05 189.5Q425.55 190.45 386.45 190.65M431.4,193.8L471.45 194.05L471.45 194.95L386.45 195.5L386.45 193.45L431.4 193.8M471.45,163L471.45 164.1Q427.35 164.4 386.45 164.3L386.45 161.1L471.45 161.4L471.45 161.75L471.45 163" />
<linearGradient
id="LinearGradID_902" gradientUnits="userSpaceOnUse" gradientTransform="matrix(0.000106812, -0.101532, 1.05261, 0.000961304, 389.3, 199.8)" spreadMethod ="pad" x1="-819.2" y1="0" x2="819.2" y2="0" >
<stop  offset="0" style="stop-color:#B1842D;stop-opacity:1" />
<stop  offset="1" style="stop-color:#C69D4E;stop-opacity:1" />
</linearGradient>
<path style="fill:url(#LinearGradID_902) " d="M386.45,82.2L386.45 85.05Q369.2 85.5 354.35 84.15Q335.7 82.5 338.95 81.45L386.45 82.2M386.45,110L377.35 109.95Q342.2 109.65 307.1 108.8L307.1 107.75Q354.25 107.15 377.35 107.5L379.5 107.55L386.45 107.7L386.45 110M326.2,126.35L325.8 126.8L324.7 127.6Q322.65 128.75 320.35 127.6L318.85 126.65L318.65 126.5Q318.65 126.1 318.8 125.8L319.4 125L320.05 124.55Q323.2 124.55 325.9 126.05L326.2 126.35M349.85,101.3L350.05 101.6L307.1 103.25L307.1 102L341.6 99.9Q346.15 99 349.85 101.3M342.5,157.45L340.4 157.45Q324.65 157.35 307.1 157.55L307.1 155.35L340.4 156.9L342.4 157.1L342.5 157.45M386.45,190.65Q366.9 191.15 348.75 187.1Q347.7 186.85 349 186.8L386.45 188.75L386.45 190.65M325.45,186.1L325 186.55Q322 189.25 318.1 186.4L317.8 186.2L318.1 185.6Q318.3 185.1 318.65 184.75L319.3 184.25Q322.4 184.25 325.2 185.8L325.45 186.1M338.85,162.3Q324.55 162.4 307.1 163.1L307.1 161.05L338.95 161.95L338.85 162.3M360.9,195.8L302.3 195.85L303.35 195.75Q311.35 191 386.45 193.45L386.45 195.5Q373.05 195.85 360.9 195.8M386.45,164.3L368.3 163.35Q349.65 161.65 352.95 160.6L386.45 161.1L386.45 164.3M321.35,166.75L321.3 166.9Q316.35 170 316.9 166.2L317.3 165.55Q319.5 165.65 321.35 166.75" />
<linearGradient
id="LinearGradID_903" gradientUnits="userSpaceOnUse" gradientTransform="matrix(0.000549316, -0.398041, 5.22412, 0.00375366, 400.55, 171.15)" spreadMethod ="pad" x1="-819.2" y1="0" x2="819.2" y2="0" >
<stop  offset="0" style="stop-color:#B1842D;stop-opacity:1" />
<stop  offset="1" style="stop-color:#C69D4E;stop-opacity:1" />
</linearGradient>
<path style="fill:url(#LinearGradID_903) " d="M471.45,249.4L451.6 249.1L386.45 248.15L386.45 241.05Q420.8 240.7 451.6 240.7Q458.3 240.55 464.1 240.7L469.65 240.7L471.45 240.7L471.45 240.85L471.45 249.4M386.45,213.85L434.55 211.2Q454.6 208.3 471.45 215.1L471.45 218.2L386.45 221.95L386.45 213.85" />
<linearGradient
id="LinearGradID_904" gradientUnits="userSpaceOnUse" gradientTransform="matrix(0, -0.13031, 5.78008, 0, -2347.35, 207.1)" spreadMethod ="pad" x1="-819.2" y1="0" x2="819.2" y2="0" >
<stop  offset="0" style="stop-color:#B1842D;stop-opacity:1" />
<stop  offset="1" style="stop-color:#C69D4E;stop-opacity:1" />
</linearGradient>
<path style="fill:url(#LinearGradID_904) " d="M617.6,297.25L617.6 300.4L642.85 300.3L642.85 300.4L619.3 300.45L603.25 300.9L590.25 301.7L574.1 302.7L574.05 303.35L589.35 303.15Q611.5 303 639.7 303.2L640.2 303.35L634.4 303.3L625.1 303.25L617.6 303.2L617.6 309.75L471.45 309.75L471.45 302.5L505.7 302.4L508.4 302.4L550.55 301.75L526.75 300.3L508.4 299.6L505.7 299.5L495.65 299.15Q478.4 298.55 464.1 298.35L456.05 298.25L453.8 298.2L471.45 298.2L471.45 291.15Q491.5 292.35 503.15 291.7L505.7 291.6L508.4 291.45L526.9 290.4L527.55 290.4L532.1 290.15L526.35 289.9L526.4 289.2L526.5 288.95L527.05 288.7L526.9 288.3Q526.35 287 527.35 286.65Q530.25 286.85 532.5 288.45L545.15 290.65L583.65 290.2L601.7 289.8Q604.75 294.55 609.4 291.5L609.3 291.15L608.25 289.6L617.6 289.25L617.6 294.2L634.4 294.05L642.85 294L642.85 294.2L633.25 294.3L610.05 296.05L638.55 297.1L617.6 297.25M451.6,289.7L451.6 289.6L451.7 289.6L452.25 289.7L451.6 289.7M471.45,278.95L481.95 279.15L481.9 279.55L471.45 280.4L471.45 278.95M593,294.05Q571.8 293.1 552.35 293.15Q578.15 297.8 584.1 296.1Q590.55 294.4 590.95 294L593 294.05" />
<linearGradient
id="LinearGradID_905" gradientUnits="userSpaceOnUse" gradientTransform="matrix(0, -0.13031, 28.6863, 0, -13419.5, 207.1)" spreadMethod ="pad" x1="-819.2" y1="0" x2="819.2" y2="0" >
<stop  offset="0" style="stop-color:#B1842D;stop-opacity:1" />
<stop  offset="1" style="stop-color:#C69D4E;stop-opacity:1" />
</linearGradient>
<path style="fill:url(#LinearGradID_905) " d="M471.45,302.15L471.45 302.5L471.45 309.75L386.45 309.75L386.45 300.65L471.45 302.15M451.6,298.2Q416.5 298.2 386.45 298.35L386.45 289.7L451.6 289.7L452.25 289.7L471.45 289.6L471.45 291.15L471.45 298.2L453.8 298.2L451.6 298.2M386.45,278.3L471.45 278.6L471.45 278.95L471.45 280.4L471.45 281.4L386.45 281.45L386.45 278.3" />
<linearGradient
id="LinearGradID_906" gradientUnits="userSpaceOnUse" gradientTransform="matrix(0.000106812, -0.398041, 1.05261, 0.00375366, 389.3, 171.15)" spreadMethod ="pad" x1="-819.2" y1="0" x2="819.2" y2="0" >
<stop  offset="0" style="stop-color:#B1842D;stop-opacity:1" />
<stop  offset="1" style="stop-color:#C69D4E;stop-opacity:1" />
</linearGradient>
<path style="fill:url(#LinearGradID_906) " d="M386.45,248.15L361.75 246L348.65 244.45L345.85 244.1L339.55 243.35L340.6 243.05L345.85 242.9L348.65 242.75L361.75 241.95L386.45 241.05L386.45 248.15M386.45,221.95Q374.25 223.95 361.75 224.55L348.65 224.7L345.85 224.7L336.95 224.25L336.95 224.1L345.85 222.55L348.65 221.95L361.75 219.6Q374.15 217.1 386.45 213.85L386.45 221.95" />
<linearGradient
id="LinearGradID_907" gradientUnits="userSpaceOnUse" gradientTransform="matrix(0.000106812, -0.101532, 1.05261, 0.000961304, 389.3, 235.55)" spreadMethod ="pad" x1="-819.2" y1="0" x2="819.2" y2="0" >
<stop  offset="0" style="stop-color:#B1842D;stop-opacity:1" />
<stop  offset="1" style="stop-color:#C69D4E;stop-opacity:1" />
</linearGradient>
<path style="fill:url(#LinearGradID_907) " d="M340.6,279.55L320 279.9L308.95 280.3L308.95 278.3L320 278.6L340.7 279.15L340.6 279.55M344.3,274.75Q332.6 274.65 320 274.7L308.95 274.75L308.95 272.6L320 272.8L344.15 274.35L344.3 274.75M323,284.1Q321.05 285.4 320 285.55Q318.35 285.75 318.65 283.5Q318.7 282.95 319.1 282.75L320 282.9Q321.6 283.05 323.05 283.9L323 284.1" />
<linearGradient
id="LinearGradID_908" gradientUnits="userSpaceOnUse" gradientTransform="matrix(0, -0.13031, 5.78008, 0, -2395.35, 207.1)" spreadMethod ="pad" x1="-819.2" y1="0" x2="819.2" y2="0" >
<stop  offset="0" style="stop-color:#B1842D;stop-opacity:1" />
<stop  offset="1" style="stop-color:#C69D4E;stop-opacity:1" />
</linearGradient>
<path style="fill:url(#LinearGradID_908) " d="M386.45,309.75L308.95 309.75L308.95 288.55L309.95 288.55L310.05 289.1Q311.6 293 315.6 291.85L315.75 291.5Q316.15 290.4 316.1 289.3L316.05 288.95L315.75 288.65L315.45 288.45L320 288.45L355.35 289.2L386.45 289.7L386.45 298.35L368.75 299.1L386.45 300.65L386.45 309.75M386.45,281.45L370.05 280.6Q351.4 278.95 354.65 277.85L386.45 278.3L386.45 281.45M334.45,299.1Q330.75 299.6 329.6 300.3L329.4 300.45Q328.5 301.25 340.35 301.7Q352.1 302.15 347.35 301.45Q342.55 300.7 356.45 300.8L356.55 300.4L355.25 300.3L334.45 299.1M319.55,295.25L319.25 295.6Q318.5 298.4 320 298.05Q320.7 297.95 322 297L321.9 296.7Q321.15 295.5 320 295.3L319.55 295.25" />
<linearGradient
id="LinearGradID_909" gradientUnits="userSpaceOnUse" gradientTransform="matrix(0.000106812, -0.101532, 1.05261, 0.000961304, 437.3, 235.55)" spreadMethod ="pad" x1="-819.2" y1="0" x2="819.2" y2="0" >
<stop  offset="0" style="stop-color:#B1842D;stop-opacity:1" />
<stop  offset="1" style="stop-color:#C69D4E;stop-opacity:1" />
</linearGradient>
<path style="fill:url(#LinearGradID_909) " d="M630.05,283.7L634.4 283.7L642.85 283.7L642.85 283.75L629.55 283.75L630.05 283.7M613.9,283.75Q561.05 283.7 508.4 282.1L505.7 282L499.3 281.8L500.35 281.75L505.7 281.65L508.4 281.6Q567.9 280.85 593.85 281.25Q621.55 281.8 614.75 283.45L613.9 283.75M493,286.05L491.95 286.95L487.95 286.75L486.65 285.5Q486.2 284.85 486.8 284.7Q490.05 284.9 493.05 285.85L493 286.05M495.95,276.9L505.7 276.5L508.4 276.35L555.95 273.6Q560.5 272.75 564.2 275.05L564.4 275.3L508.4 277.05L505.7 277.05L495.95 276.9" />
<linearGradient
id="LinearGradID_910" gradientUnits="userSpaceOnUse" gradientTransform="matrix(0, 0.00823975, 0.251816, 0.000274658, 520, 70.1)" spreadMethod ="pad" x1="-819.2" y1="0" x2="819.2" y2="0" >
<stop  offset="0" style="stop-color:#4D200A;stop-opacity:0.498039" />
<stop  offset="1" style="stop-color:#4D230C;stop-opacity:0" />
</linearGradient>
<path style="fill:url(#LinearGradID_910) " d="M683,67.65L685.2 67.65L685.2 77.15L681 77.15Q682.6 71.1 683 67.65" />
<linearGradient
id="LinearGradID_911" gradientUnits="userSpaceOnUse" gradientTransform="matrix(-0.00483704, 0, 0, 0.165115, 677.15, 198.7)" spreadMethod ="pad" x1="-819.2" y1="0" x2="819.2" y2="0" >
<stop  offset="0" style="stop-color:#703112;stop-opacity:0.501961" />
<stop  offset="1" style="stop-color:#803C18;stop-opacity:0" />
</linearGradient>
<path style="fill:url(#LinearGradID_911) " d="M681,77.15L681 187.6L671.2 187.6L671.1 76.9Q675.55 79.1 677.5 67.65L671.25 67.65L671.25 63.4L681 63.4L681 67.65L683 67.65Q682.6 71.1 681 77.15" />
<linearGradient
id="LinearGradID_912" gradientUnits="userSpaceOnUse" gradientTransform="matrix(-0.00483704, 0, 0, 0.647263, 677.15, 166.8)" spreadMethod ="pad" x1="-819.2" y1="0" x2="819.2" y2="0" >
<stop  offset="0" style="stop-color:#703112;stop-opacity:0.501961" />
<stop  offset="1" style="stop-color:#803C18;stop-opacity:0" />
</linearGradient>
<path style="fill:url(#LinearGradID_912) " d="M671.25,257.6L671.2 204L671.2 187.6L681 187.6L681 257.6L671.25 257.6" />
<linearGradient
id="LinearGradID_913" gradientUnits="userSpaceOnUse" gradientTransform="matrix(-0.00483704, 0, 0, 0.165115, 677.15, 234.45)" spreadMethod ="pad" x1="-819.2" y1="0" x2="819.2" y2="0" >
<stop  offset="0" style="stop-color:#703112;stop-opacity:0.501961" />
<stop  offset="1" style="stop-color:#803C18;stop-opacity:0" />
</linearGradient>
<path style="fill:url(#LinearGradID_913) " d="M671.25,300.3L671.25 257.6L681 257.6L681 300.3Q682.15 319.05 671.25 300.3M681,309.75L681 310.55L671.25 310.55L671.25 309.75L681 309.75" />
<linearGradient
id="LinearGradID_914" gradientUnits="userSpaceOnUse" gradientTransform="matrix(0, -0.00823975, 0.251816, 0, 522.75, 306.55)" spreadMethod ="pad" x1="-819.2" y1="0" x2="819.2" y2="0" >
<stop  offset="0" style="stop-color:#703112;stop-opacity:0.501961" />
<stop  offset="1" style="stop-color:#803C18;stop-opacity:0" />
</linearGradient>
<path style="fill:url(#LinearGradID_914) " d="M617.6,300.3L671.25 300.3Q682.15 319.05 681 300.3L685.3 300.3L685.3 309.75L681 309.75L671.25 309.75L617.6 309.75L617.6 300.3" />
<linearGradient
id="LinearGradID_915" gradientUnits="userSpaceOnUse" gradientTransform="matrix(0, -0.00823975, 1.24976, 0, 949.85, 306.55)" spreadMethod ="pad" x1="-819.2" y1="0" x2="819.2" y2="0" >
<stop  offset="0" style="stop-color:#703112;stop-opacity:0.501961" />
<stop  offset="1" style="stop-color:#803C18;stop-opacity:0" />
</linearGradient>
<path style="fill:url(#LinearGradID_915) " d="M471.45,309.75L386.45 309.75L386.45 300.3L471.45 300.3L471.45 309.75" />
<linearGradient
id="LinearGradID_916" gradientUnits="userSpaceOnUse" gradientTransform="matrix(0, -0.00823975, 0.251816, 0, 499.95, 306.55)" spreadMethod ="pad" x1="-819.2" y1="0" x2="819.2" y2="0" >
<stop  offset="0" style="stop-color:#703112;stop-opacity:0.501961" />
<stop  offset="1" style="stop-color:#803C18;stop-opacity:0" />
</linearGradient>
<path style="fill:url(#LinearGradID_916) " d="M308.95,309.75L304.6 309.75L304.6 300.3L308.95 300.3Q313.8 314.9 318.65 300.3L386.45 300.3L386.45 309.75L318.65 309.75L308.95 309.75" />
<linearGradient
id="LinearGradID_917" gradientUnits="userSpaceOnUse" gradientTransform="matrix(0, -0.00823975, 0.251816, 0, 548, 306.55)" spreadMethod ="pad" x1="-819.2" y1="0" x2="819.2" y2="0" >
<stop  offset="0" style="stop-color:#703112;stop-opacity:0.501961" />
<stop  offset="1" style="stop-color:#803C18;stop-opacity:0" />
</linearGradient>
<path style="fill:url(#LinearGradID_917) " d="M617.6,309.75L471.45 309.75L471.45 300.3L617.6 300.3L617.6 309.75" />
<linearGradient
id="LinearGradID_918" gradientUnits="userSpaceOnUse" gradientTransform="matrix(0.00483704, 0, 0, 0.165115, 312.75, 198.7)" spreadMethod ="pad" x1="-819.2" y1="0" x2="819.2" y2="0" >
<stop  offset="0" style="stop-color:#703112;stop-opacity:0.501961" />
<stop  offset="1" style="stop-color:#803C18;stop-opacity:0" />
</linearGradient>
<path style="fill:url(#LinearGradID_918) " d="M308.95,187.6L308.95 77.15Q309.2 72.5 309.55 69.3L310.5 67.5Q310.05 69.5 316.7 76.9L317.85 187.6L308.95 187.6M309.75,67.75L309.75 67.65L308.95 67.65L308.95 63.4L310.7 63.4Q312.1 59.3 314.25 63.4L318.65 63.4L318.65 67.65L316 67.65L315.75 67.6Q310.9 65.8 310.5 67.35Q310.05 67.5 309.75 67.75" />
<linearGradient
id="LinearGradID_919" gradientUnits="userSpaceOnUse" gradientTransform="matrix(0.00483704, 0, 0, 0.647263, 312.75, 166.8)" spreadMethod ="pad" x1="-819.2" y1="0" x2="819.2" y2="0" >
<stop  offset="0" style="stop-color:#703112;stop-opacity:0.501961" />
<stop  offset="1" style="stop-color:#803C18;stop-opacity:0" />
</linearGradient>
<path style="fill:url(#LinearGradID_919) " d="M308.95,257.6L308.95 187.6L317.85 187.6L318.05 187.6L318.2 257.6L308.95 257.6" />
<linearGradient
id="LinearGradID_920" gradientUnits="userSpaceOnUse" gradientTransform="matrix(0.00483704, 0, 0, 0.165115, 312.75, 234.45)" spreadMethod ="pad" x1="-819.2" y1="0" x2="819.2" y2="0" >
<stop  offset="0" style="stop-color:#703112;stop-opacity:0.501961" />
<stop  offset="1" style="stop-color:#803C18;stop-opacity:0" />
</linearGradient>
<path style="fill:url(#LinearGradID_920) " d="M318.65,309.75L318.65 310.55L308.95 310.55L308.95 309.75L318.65 309.75M308.95,300.3L308.95 257.6L318.2 257.6L318.65 300.3Q313.8 314.9 308.95 300.3" />
<path style="fill:#34240D;fill-opacity:1" d="M654,310.25L654 308L654.95 308L654.95 310.25L654 310.25M654.95,317.4L654.95 319.6L654 319.6L654 317.4L654.95 317.4M395.1,60.8L312.2 60.7L310.5 60.7L310.35 60.7Q303.4 61 301.6 65.85Q301.2 66.8 301.05 67.9L301 69.1L301.1 70.15L301.1 70.55L301.1 114.25L301.1 220.75L301.1 239.7L301.1 241.95L301.1 311.5Q301.25 312.85 301.7 313.95L302.1 314.65L302.4 315.05Q303.2 316.25 304.8 317.45L594 317.45L594 319.6L305.8 319.6Q307.1 319.5 305.25 319.55Q303.4 319.55 301.65 317.8Q299.85 316.05 299.3 314.25Q298.75 312.4 298.85 309.6L298.85 70.15Q298.75 69.55 298.95 67.5Q299.15 65.2 299.55 64.3Q302.05 58.65 310.35 58.65L557.8 58.65L557.8 60.85L488.9 60.8L467 60.8L395.1 60.8M309.7,310.05L309.15 309.95L309 310Q308.55 310 308.15 309.25L308.15 70.15L308.4 69.15Q308.9 68.1 310.35 68.1L557.8 68.05L557.8 70.25L310.45 70.25L310.45 308L594 308L594 310.2L309.7 310.05" />
<path style="fill:#674529;fill-opacity:1" d="M654,317.4L654 314.35L654.95 314.35L654.95 317.4L654 317.4M305.1,312.35L305 172.5L304.75 172.5L304.5 70.15L304.6 70.15Q304.2 68.1 305.35 67Q306.45 65.9 307.8 65.6L311.8 65.35L310.35 65.45L467 65.35L488.9 65.35L557.8 65.2L557.8 68.05L310.35 68.1Q308.9 68.1 308.4 69.15L308.15 70.15L308.15 309.25Q308.55 310 309 310L305.1 312.35M305.4,314.75L594 314.5L594 317.45L304.8 317.45Q303.2 316.25 302.4 315.05L302.1 314.65L301.7 313.95L305.4 314.75" />
<path style="fill:#D2A977;fill-opacity:1" d="M654,314.35L654 310.25L654.95 310.25L654.95 314.35L654 314.35M557.8,60.85L557.8 65.2L488.9 65.35L488.9 60.8L557.8 60.85M301.7,313.95Q301.25 312.85 301.1 311.5L301.1 241.95L301.1 239.7L301.1 220.75L301.1 114.25L301.1 70.55L301.1 70.15L301 69.1L301.05 67.9Q301.2 66.8 301.6 65.85Q303.4 61 310.35 60.7L310.5 60.7L312.2 60.7L395.1 60.8L467 60.8L467 65.35L310.35 65.45L311.8 65.35L307.8 65.6Q306.45 65.9 305.35 67Q304.2 68.1 304.6 70.15L304.5 70.15L304.75 172.5L305 172.5L305.1 312.35L309 310L309.15 309.95L309.7 310.05L594 310.2L594 314.5L305.4 314.75L301.7 313.95" />
<path style="fill:none;stroke-width:0.1;stroke-linecap:round;stroke-linejoin:round;stroke-miterlimit:3;stroke:#662616;stroke-opacity:1" d="M310.35,68.1Q308.9 68.1 308.4 69.15L308.15 70.15" />
<path style="fill:#34240D;fill-opacity:1" d="M373.95,58.6L681.4 58.6Q689.7 58.6 692.2 64.25L692.25 64.3L692.9 64.3L692.9 68.65L692.9 70.1L692.9 309.6Q693 312.4 692.45 314.25Q691.9 316.05 690.1 317.8Q688.35 319.55 686.5 319.55Q684.65 319.5 685.95 319.6L436.55 319.6L436.55 317.4L687 317.45Q688.55 316.25 689.35 315.05L689.65 314.65L690.05 313.95L690.65 311.5L690.65 70.1L690.75 69.05L690.7 67.85L690.65 67.45L690.15 65.8L689.4 64.3Q687.2 60.9 681.4 60.65L681.25 60.65L679.55 60.65L480.8 60.8L373.95 60.8L373.95 58.6M681.4,68.05Q682.85 68.05 683.4 69.1L683.6 70.1L683.6 309.25L682.75 310L682.6 309.95L682.05 310.05L436.55 310.2L436.55 308L681.3 308L681.3 70.2L373.95 70.2L373.95 68L681.4 68.05" />
<path style="fill:#D2A977;fill-opacity:1" d="M686.35,314.75L436.55 314.5L436.55 310.2L682.05 310.05L682.6 309.95L682.75 310L686.65 312.35L687 130.7L687.15 130.7L687.25 70.1L687.15 70.1Q687.35 68.95 687.15 68.15L686.4 66.95Q685.3 65.85 683.95 65.55L683.6 65.5L681.3 65.3L679.95 65.3L681.3 65.4L373.95 65.1L373.95 60.8L480.8 60.8L679.55 60.65L681.25 60.65L681.4 60.65Q687.2 60.9 689.4 64.3L690.15 65.8L690.65 67.45L690.7 67.85L690.75 69.05L690.65 70.1L690.65 311.5L690.05 313.95L686.35 314.75" />
<path style="fill:#674529;fill-opacity:1" d="M436.55,314.5L686.35 314.75L690.05 313.95L689.65 314.65L689.35 315.05Q688.55 316.25 687 317.45L436.55 317.4L436.55 314.5M373.95,68L373.95 65.1L681.3 65.4L679.95 65.3L681.3 65.3L683.6 65.5L683.95 65.55Q685.3 65.85 686.4 66.95L687.15 68.15Q687.35 68.95 687.15 70.1L687.25 70.1L687.15 130.7L687 130.7L686.65 312.35L682.75 310L683.6 309.25L683.6 70.1L683.4 69.1Q682.85 68.05 681.4 68.05L373.95 68" />
<path style="fill:none;stroke-width:0.1;stroke-linecap:round;stroke-linejoin:round;stroke-miterlimit:3;stroke:#662616;stroke-opacity:1" d="M681.4,68.05Q682.85 68.05 683.4 69.1L683.6 70.1" />
</g>
</svg>
