<?xml version="1.0" encoding="utf-8"?>
<svg version="1.1" id="Layer_1"
xmlns="http://www.w3.org/2000/svg"
xmlns:xlink="http://www.w3.org/1999/xlink"
xmlns:author="http://www.sothink.com"
width="36px" height="32px"
xml:space="preserve">
<g id="261" transform="matrix(1, 0, 0, 1, 15.8, 0)">
<path style="fill:#5B2222;fill-opacity:1" d="M7.65,19.55Q7.75 21.1 6.65 23.9Q5.7 26.4 1.2 28.1Q-3.35 29.75 -7.95 29Q-12.6 28.25 -12.75 27.4Q-11.3 26.25 -10.3 21.55L-8.05 9.95Q-6.75 3.1 0.65 3.25L0.7 3.25Q5.65 10.65 6.8 14.9Q7.45 17.15 7.65 19.55" />
<path style="fill:#481515;fill-opacity:1" d="M6.8,14.9Q5.65 10.65 0.7 3.25L0.65 3.25Q-6.75 3.1 -8.05 9.95L-10.3 21.55Q-11.3 26.25 -12.75 27.4Q-12.6 28.25 -7.95 29Q-3.35 29.75 1.2 28.1Q5.7 26.4 6.65 23.9Q7.75 21.1 7.65 19.55Q7.45 17.15 6.8 14.9M5.8,7.7Q10.35 16.2 9.4 21.65Q8.95 24.3 8.05 25.8Q7.25 27.2 6.3 28L4.35 29.3L2.55 30.3L0 31L-3.4 31.55Q-7.25 31.9 -14.05 29.2L-15.65 28.2L-15.8 27.95L-15.35 27.35Q-12.55 23.5 -11.65 17.95Q-10.8 12.35 -9.75 8.6Q-8.25 3.15 -3 1.4Q-0.35 0.65 1.65 2L1.75 2.05Q4.3 3.15 5.25 6.3L5.8 7.7" />
<path style="fill:#413733;fill-opacity:1" d="M19.3,3.4Q20.2 5 19.4 7.55Q18.65 9.9 18.7 11.65L18.7 12.05L18.6 15.55Q18.35 17.15 17.9 17.75Q18.85 22 15.15 23.6Q11.45 25.2 8.1 25Q4.7 24.75 3.4 24.2Q2.1 23.65 1.2 22.95Q0.25 22.2 0.05 20.5Q-0.2 18.8 0.9 17.8Q-0.1 14.5 0.45 10.4Q0.95 6.3 1.95 4.65Q2.9 3 4.75 1.85Q6.6 0.65 9.2 0.3L12.3 0L12.65 0L14.4 0.2Q16.2 0.4 17.3 1.1Q18.4 1.75 19.3 3.4M14.75,18.55Q17 17.35 17.3 15.7L17.55 12.1L17.55 11.45Q17.55 8.85 17.95 7.45L18.5 5.35Q18.65 4.65 18.1 3.5Q17.55 2.3 15.95 1.8L13.55 1.2L9.95 1.3Q5.9 2.25 4.55 3.6Q3.15 4.9 2.25 6.95Q1.35 8.95 1.3 12.05Q1.25 15.1 2 16.95Q2.9 18.5 7.7 19.1L9.2 19.25Q12.85 19.5 14.75 18.55M4.35,23.5Q6.45 24.15 8.85 24.25Q11.25 24.3 13.95 23.3Q16.65 22.25 17.1 20.45Q17.5 18.6 17.2 18.4Q16 19.35 13.45 20.1L9.4 20.35L6.45 19.95Q2 19.05 1.7 18.25Q0.3 19.5 1.4 21.75Q2.25 22.8 4.35 23.5" />
<path style="fill:#937E78;fill-opacity:1" d="M16.2,12.4L13.05 12.5L10.1 12.25L9.4 12L9.2 13.05L9 15.5L9.2 19.25L7.7 19.1Q2.9 18.5 2 16.95Q1.25 15.1 1.3 12.05Q1.35 8.95 2.25 6.95Q3.15 4.9 4.55 3.6Q5.9 2.25 9.95 1.3L13.55 1.2L15.95 1.8Q17.55 2.3 18.1 3.5Q18.65 4.65 18.5 5.35L17.95 7.45Q17.55 8.85 17.55 11.45L17.55 12.1L16.2 12.4M1.4,21.75Q0.3 19.5 1.7 18.25Q2 19.05 6.45 19.95L9.4 20.35L13.45 20.1Q16 19.35 17.2 18.4Q17.5 18.6 17.1 20.45Q16.65 22.25 13.95 23.3Q11.25 24.3 8.85 24.25Q6.45 24.15 4.35 23.5Q2.25 22.8 1.4 21.75" />
<path style="fill:#B6A19A;fill-opacity:1" d="M9.2,19.25L9 15.5L9.2 13.05L9.4 12L10.1 12.25L13.05 12.5L16.2 12.4L17.55 12.1L17.3 15.7Q17 17.35 14.75 18.55Q12.85 19.5 9.2 19.25" />
</g>
</svg>
