<?xml version="1.0" encoding="utf-8"?>
<svg version="1.1" id="Layer_1"
xmlns="http://www.w3.org/2000/svg"
xmlns:xlink="http://www.w3.org/1999/xlink"
xmlns:author="http://www.sothink.com"
width="32px" height="39px"
xml:space="preserve">
<g id="1310" transform="matrix(1, 0, 0, 1, 0, -0.05)">
<path style="fill:#5F2204;fill-opacity:1" d="M1.9,8.65L0.65 8.55Q0.15 8.2 0 7.3Q-0.1 6.7 0.35 5.7Q0.9 4.55 1.95 3.45L2 3.35Q4.85 0.4 7.55 0.05Q9.7 -0.05 10.15 1.05L10.3 2.25L9.95 3.05L9 4.2L8.2 4.9L8 5L8.05 5.05L4.45 7.5L3.15 8.25L1.9 8.65M1.8,6.85Q2.5 7.2 3.25 6.85L5.7 5.35L7.7 3.8L8.4 3.05Q9.35 1.95 8.8 1.4Q8.2 0.8 6.15 1.7Q4.05 2.6 2.55 4.55L2.2 5.05Q1.15 6.55 1.8 6.85" />
<path style="fill:#A66221;fill-opacity:1" d="M7.7,3.8L5.7 5.35L3.25 6.85Q2.5 7.2 1.8 6.85Q1.15 6.55 2.2 5.05Q2.5 5.5 3.2 5.5Q4.75 5.5 7.7 3.8" />
<path style="fill:#BF7A24;fill-opacity:1" d="M3.2,5.5Q2.5 5.5 2.2 5.05L2.55 4.55Q4.05 2.6 6.15 1.7Q8.2 0.8 8.8 1.4Q9.35 1.95 8.4 3.05L7.7 3.8Q4.75 5.5 3.2 5.5" />
<path style="fill:#283D69;fill-opacity:1" d="M9.5,12.6Q7.95 13.4 6.55 13.4L6.4 13.4L5.6 12.1L3.15 8.25L4.45 7.5L8.05 5.05L8.9 6.25Q7.65 7.2 6.4 7.8L6.5 7.9Q7.55 8.6 9.15 11.55L9.65 12.55L9.5 12.6" />
<path style="fill:#496298;fill-opacity:1" d="M9.65,12.55L9.15 11.55Q7.55 8.6 6.5 7.9L6.4 7.8Q7.65 7.2 8.9 6.25L10.25 8.4Q11.2 10.1 11.65 10.15Q11.3 11.6 9.65 12.55" />
<path style="fill:#071020;fill-opacity:1" d="M8.05,5.05L8 5L8.2 4.9L9 4.2L9.85 5.45L11.8 8.25L11.9 8.4Q12.65 9.55 12.35 9.85L11.65 10.15Q11.2 10.1 10.25 8.4L8.9 6.25L8.05 5.05M1.9,8.65L3.15 8.25L5.6 12.1L6.4 13.4Q6.75 14.2 6.35 14.4Q5.75 14.65 4.65 13.2L4.5 13L2.8 10.35L1.9 8.65" />
<path style="fill:#3C2A22;fill-opacity:1" d="M15.1,15.95L15.05 15.85L12.85 12.6L11.9 10.8Q11.45 9.7 12.05 8.9L14.15 11.95L15.1 13.3Q20.5 20.95 24.3 22.2Q28.1 23.45 31 21.75Q31.8 24.25 31.35 27.65Q30.8 31.05 28.65 33.85L26.15 36.1Q24.75 37.1 23.2 37.75Q20.1 38.9 16.95 38.4L16.55 38.35Q13.1 37.75 11.05 36.15Q13.5 34.05 13.5 30Q13.55 25.95 7.95 18.45L6.65 16.7L4.75 14.2Q5.75 13.85 6.55 14.5L7.8 15.8L9.15 17.55Q13.7 23.55 14.6 26.85Q15.25 29 15.05 31.3Q14.85 33.7 13.6 35.8Q14.1 36.5 16.8 37.05L20.35 37.15L21.65 36.8Q23.8 36.05 25.05 35.2Q26.3 34.3 27.8 32.4Q29.25 30.45 29.6 27.85L29.95 23.8L29.85 23.85Q25.1 25.1 21.45 22.5Q18 20 15.4 16.35L15.1 15.95" />
<path style="fill:#FFFFFF;fill-opacity:1" d="M21,36.8Q28.25 33.1 28.6 25.8L28.6 25.45L28.25 25.75Q26.1 25.65 23.65 24.75Q17.75 22.55 15.4 16.35Q18 20 21.45 22.5Q25.1 25.1 29.85 23.85L29.95 23.8L29.6 27.85Q29.25 30.45 27.8 32.4Q26.3 34.3 25.05 35.2Q23.8 36.05 21.65 36.8L20.35 37.15L21 36.8" />
<path style="fill:#E9DBD0;fill-opacity:1" d="M28.25,25.75L28.6 25.45L28.6 25.8Q28.25 33.1 21 36.8L20.35 37.15L16.8 37.05Q14.1 36.5 13.6 35.8L13.9 35.75Q15.65 35.2 17.05 33.6Q17.75 34.05 18.95 34.1Q20.9 34.25 23.2 32.85L23.55 32.6L23.85 32.35Q25.85 30.7 26.4 28.7Q26.7 27.6 26.5 26.8Q27.05 26.65 27.8 26.1L28.25 25.75" />
<linearGradient
id="LinearGradID_1569" gradientUnits="userSpaceOnUse" gradientTransform="matrix(-0.00463867, -0.00990295, 0.00398254, -0.00186157, 13.2, 26.45)" spreadMethod ="pad" x1="-819.2" y1="0" x2="819.2" y2="0" >
<stop  offset="0.00392157" style="stop-color:#917162;stop-opacity:1" />
<stop  offset="1" style="stop-color:#C2AEA0;stop-opacity:1" />
</linearGradient>
<path style="fill:url(#LinearGradID_1569) " d="M13.9,35.75L13.6 35.8Q14.85 33.7 15.05 31.3Q15.25 29 14.6 26.85Q13.7 23.55 9.15 17.55L7.8 15.8L10.15 14.2L10.45 14.6L11.3 15.65Q13.4 18.65 16.45 24.3Q19.55 30.05 17.2 33.45L17.05 33.6Q15.65 35.2 13.9 35.75" />
<linearGradient
id="LinearGradID_1570" gradientUnits="userSpaceOnUse" gradientTransform="matrix(-0.00856018, -0.00964355, 0.00393677, -0.00349426, 22.1, 21.6)" spreadMethod ="pad" x1="-819.2" y1="0" x2="819.2" y2="0" >
<stop  offset="0.00392157" style="stop-color:#917162;stop-opacity:1" />
<stop  offset="1" style="stop-color:#C2AEA0;stop-opacity:1" />
</linearGradient>
<path style="fill:url(#LinearGradID_1570) " d="M27.8,26.1Q27.05 26.65 26.5 26.8Q22.5 28.15 15.3 20.3Q12.75 17.6 11.3 15.65L10.45 14.6L10.15 14.2L12.85 12.6L15.05 15.85L15.1 15.95L15.4 16.35Q17.75 22.55 23.65 24.75Q26.1 25.65 28.25 25.75L27.8 26.1" />
<path style="fill:#195183;fill-opacity:1" d="M15.3,20.3Q22.5 28.15 26.5 26.8Q26.7 27.6 26.4 28.7Q25.85 30.7 23.85 32.35L23.55 32.6L23.2 32.85Q20.9 34.25 18.95 34.1Q17.75 34.05 17.05 33.6L17.2 33.45Q19.55 30.05 16.45 24.3Q13.4 18.65 11.3 15.65Q12.75 17.6 15.3 20.3M18.85,32.45Q20 32.85 21.7 32.1Q24.25 30.95 24.8 28.35Q23.35 28.1 21.55 27.25Q18.7 25.85 17.05 23.65Q18.5 26.1 18.85 29.2Q19.05 31.1 18.85 32.45" />
<path style="fill:#3377B4;fill-opacity:1" d="M19.7,28.75Q20.1 30.7 19.8 31.5L21.45 31.15Q23.15 30.5 23.45 29.05Q22.7 29.1 21.2 28.15L19.5 27Q19.3 26.8 19.7 28.75M18.85,29.2Q18.5 26.1 17.05 23.65Q18.7 25.85 21.55 27.25Q23.35 28.1 24.8 28.35Q24.25 30.95 21.7 32.1Q20 32.85 18.85 32.45Q19.05 31.1 18.85 29.2" />
<path style="fill:#5A9FDB;fill-opacity:1" d="M19.5,27L21.2 28.15Q22.7 29.1 23.45 29.05Q23.15 30.5 21.45 31.15L19.8 31.5Q20.1 30.7 19.7 28.75Q19.3 26.8 19.5 27M20.4,30.7Q21.9 30.45 22.35 29.6L20.4 28.45L20.4 30.7" />
<path style="fill:#B7DBFA;fill-opacity:1" d="M20.4,28.45L22.35 29.6Q21.9 30.45 20.4 30.7L20.4 28.45" />
<path style="fill:#194310;fill-opacity:1" d="M12.05,7.6L12.4 7.8L13.35 8.75L14.35 10.05L15.2 11.05L13.9 12.2L13.15 12.85L12.9 12.95L12.15 13.55L10.85 14.45L10.75 14.45L10.6 14.55L9.25 15.55L8.6 16L8.45 16.1L7.7 16.7L6.2 17.55L5 16.1L4.6 15.5Q3.6 14 3.9 13.75L5.4 12.45L5.65 12.25L6.6 11.35L7.45 10.75L9.45 9.3L10.9 8.4L12.05 7.6M6.55,16.2L7.4 15.6L8.15 15.05L8.5 14.85L8.95 14.5L10 13.8L10.15 13.7L10.2 13.6L11.2 12.95L11.75 12.55L11.9 12.45L13.7 11.1L13.3 10.4L13.2 10.3L12.65 9.7L12.05 9L8.95 11.2L6.7 12.9L5.15 14.1L5.4 14.65L6.3 15.9L6.55 16.2" />
<path style="fill:#388328;fill-opacity:1" d="M5.15,14.1L6.7 12.9L8.95 11.2L12.05 9L12.65 9.7L12.45 9.6L6.5 13.7L5.4 14.65L5.15 14.1" />
<path style="fill:#6AA643;fill-opacity:1" d="M13.2,10.3L13.3 10.4L11.85 11.55L11.75 11.55L11.6 11.5L11.5 11.5L11.45 11.5L11.3 11.6L11.25 11.7L11.15 11.8L11.15 12L11.15 12.05L10.95 12.25L10.7 12.45L10.55 12.5L10.4 12.55Q10.2 12.5 10 12.8L10 12.7L9.95 12.65L9.95 12.6L9.85 12.5L9.75 12.45L9.65 12.4L9.6 12.35L9.5 12.35L9.3 12.5L9 13.2Q8.95 13.45 9.15 13.5L9.2 13.55L8.8 13.9L8.7 13.95L8.45 14.15L7.2 15.1L6.3 15.9L5.4 14.65L6.5 13.7L12.45 9.6L12.65 9.7L13.2 10.3M7.7,13.75L7.55 13.75L7.5 13.7L7.35 13.75L7.25 14L7.2 14.15L7.4 14.35L7.6 14.45L7.8 14.45L7.85 14.4L7.95 14.3L8 14.15L8 14L7.95 13.9L7.95 13.8L7.85 13.75L7.7 13.75" />
<path style="fill:#A7DE84;fill-opacity:1" d="M6.3,15.9L7.2 15.1L8.45 14.15L8.7 13.95L8.8 13.9L9.2 13.55L9.15 13.5Q8.95 13.45 9 13.2L9.3 12.5L9.5 12.35L9.6 12.35L9.65 12.4L9.75 12.45L9.85 12.5L9.95 12.6L9.95 12.65L10 12.7L10 12.8Q10.2 12.5 10.4 12.55L10.55 12.5L10.7 12.45L10.95 12.25L11.15 12.05L11.15 12L11.15 11.8L11.25 11.7L11.3 11.6L11.45 11.5L11.5 11.5L11.6 11.5L11.75 11.55L11.85 11.55L13.3 10.4L13.7 11.1L11.9 12.45L11.75 12.55L11.2 12.95L10.2 13.6L10.15 13.7L10 13.8L8.95 14.5L8.5 14.85L8.15 15.05L7.4 15.6L6.55 16.2L6.3 15.9M7.85,13.75L7.95 13.8L7.95 13.9L8 14L8 14.15L7.95 14.3L7.85 14.4L7.8 14.45L7.6 14.45L7.4 14.35L7.2 14.15L7.25 14L7.35 13.75L7.5 13.7L7.55 13.75L7.7 13.75L7.85 13.75" />
</g>
</svg>
