<?xml version="1.0" encoding="utf-8"?>
<svg version="1.1" id="Layer_1"
xmlns="http://www.w3.org/2000/svg"
xmlns:xlink="http://www.w3.org/1999/xlink"
xmlns:author="http://www.sothink.com"
width="297px" height="136px"
xml:space="preserve">
<g id="1874" transform="matrix(1, 0, 0, 1, 152.9, 28.55)">
<path style="fill:#F87800;fill-opacity:1" d="M58.65,-0.5L59.7 1.6Q60.95 4.9 60.95 10.55L60.35 17.9L59.6 25.25L59.2 25L59.15 24.7Q58.55 23.35 57.7 13.2L57.7 -1.1L58.65 -0.5M107.4,-25.85L108.05 -28.55L109.65 -25.65Q111.3 -21.55 111.3 -15.45L111.3 -14.75L111 -10.7L110.35 -5.75L109.9 -5.75Q109.9 -6.85 109.45 -6.85L108.7 -14.75L107.45 -25.65L107.4 -25.85M143.7,19.9L144 33.5L143 48.65L143.25 48.65Q135.8 68.45 106.25 83.8L101.95 85.95Q58.25 107.1 -3.6 107.1Q-65.45 107.1 -109.2 85.95L-113.5 83.8Q-151.2 64.2 -152.8 37.3L-152.85 36.7L-152.9 34.85L-152.7 31.1L-152.7 28.2L-152.4 28.45L-152.4 17.35Q-152.35 8.3 -151.85 6.25Q-152.45 10.7 -149.95 19.9Q-148.05 27 -146.25 31L-144.7 29.8Q-144.45 29.5 -144.45 28.7Q-142.8 29.85 -140.65 33.2Q-139.1 35.6 -137.45 35.6Q-135.5 35.6 -135.55 28.15Q-135.6 23.9 -136 14.95L-135.7 9.05L-135.1 1.2L-135.1 0.6Q-133.9 2.1 -133.15 9.05L-131.9 22.9Q-129.9 41.75 -123.9 41.75L-122.9 41.45L-121.6 39.45Q-119 43.15 -108.1 47.15L-97.65 50.35Q-96.5 50.35 -95.5 48.25Q-94.7 46.45 -93.15 47.45L-92.65 39.95Q-92 33.15 -91.8 28.7Q-91.8 28.15 -91.35 27.55Q-90.9 42.95 -88.3 52.05L-87 55.8Q-84.1 62.95 -80.35 62.95Q-79.15 62.95 -78.25 61.85Q-77.35 60.7 -76.4 60.7Q-75 60.7 -69.6 64.25Q-63.95 68.05 -61.45 71Q-60.55 70.2 -59.6 68.45Q-58.65 66.7 -58.65 65.85Q-57.3 66.05 -55.35 68.3Q-53.5 70.45 -52.4 70.45Q-51.65 70.45 -50.8 68.45Q-49.9 66.4 -48.9 66.4Q-48.45 66.4 -45.85 69L-42.8 72.1L-41.9 72.1Q-36.95 90.45 -35.35 65.65L-34.8 55.5L-34.2 57.5L-32.9 62.5L-29.8 75.15L-29.8 75Q-27.1 75 -22.65 78.75L-17.9 82.45L-12.3 79.3Q-6.75 76.1 -6.3 76.1Q-5.4 76.1 -2.15 76.95Q1.1 77.85 3.45 77.85Q6.65 77.85 10.4 73.6L14.15 69.35Q15.4 69.35 16.2 70.45Q17.05 71.55 18.55 71.55L25.65 71L26.05 60.75L26.3 56.2L27.45 39.45L27.45 38.35Q27.85 38.55 28.8 43.75L31.1 55.2L32.4 60.3Q35.85 72.35 40.5 73.85Q40.9 73.4 41.95 70.1Q42.95 66.75 43.3 66.4Q45.55 69.15 47.45 73.35Q48.7 76.1 49.8 76.1Q50.5 76.1 52.85 73.85Q55.2 71.55 55.6 71.55Q56.05 71.55 57.5 72.75Q58.9 73.85 59.55 73.85Q60.7 73.85 63.05 70.4Q65.4 66.95 67.25 66.95Q68.55 66.95 69.3 68.3L70.3 70.45Q71.8 70.45 74.65 67.95Q77.2 65.7 79.2 66.4L80 60.75Q80.8 57.25 82.15 57.25Q83.15 57.25 83.9 58.45Q84.7 59.75 84.75 61.8Q84.95 61.8 85.2 62.1L85.7 62.4Q85.7 61.1 86.95 54.85Q87.7 50.85 89 44.9Q92.25 29.45 93.6 25.25L96.3 43.3L97.8 51.75Q99.55 60.05 101.5 60.05L103 59.9Q103.85 59.25 103.85 56.7L105.3 58.95Q106.05 58.3 106.45 57.25L107.1 55.5L107.55 55.8L108.5 56.05L111.5 52.55Q114.55 48.75 115.5 46.9L117.9 50.35Q119.65 49 120.2 45.65Q120.5 43.95 120.6 40.4L120.65 37.5Q120.85 21.25 122.95 10.4L123.45 9.75L124.95 25.25Q125.7 31.85 126.5 36.1Q127.5 41.5 128.55 42.9L129 42.9Q129.5 40.65 129.5 33.85L131.4 38.35L133.2 42.35L133.7 42.9Q133.7 42.15 134.35 39.55Q135 36.65 135.55 35.6Q135.85 35.6 136.2 36.2L136.5 37.25L137.9 37.25Q137.9 36.45 139.6 27.55L140.4 23.4Q141.65 16.95 142.55 13.2Q143.3 14.2 143.7 19.9M-130.45,-14.4L-129.5 -2.4L-131.75 -14.35L-132.8 -20.35Q-132.8 -22.25 -131.7 -24.1L-131.5 -24.45Q-131.1 -21.55 -130.45 -14.4M-69.6,-0.65Q-68.5 4.05 -68.5 9.95L-68.6 13.45Q-68.9 16.2 -70.35 17.7L-70.8 17.15L-70.8 0L-70.1 -2.4L-69.6 -0.65M-15.65,34.2L-14.2 41.35Q-13 48.05 -13 49.35L-13.2 54.05Q-13.5 56.05 -14.4 57.3Q-14.85 56.5 -15.8 49.1L-16.7 40.45Q-16.7 38.65 -16.15 36.2L-15.65 34.2" />
</g>
</svg>
