<?xml version="1.0" encoding="utf-8"?>
<svg version="1.1" id="Layer_1"
xmlns="http://www.w3.org/2000/svg"
xmlns:xlink="http://www.w3.org/1999/xlink"
xmlns:author="http://www.sothink.com"
width="137px" height="27px"
xml:space="preserve">
<g id="724" transform="matrix(1, 0, 0, 1, 33.55, -1.6)">
<path style="fill:#FFFFFF;fill-opacity:1" d="M102.25,9.55Q102.25 11.5 101.15 13.4Q100.5 14.8 99.35 15.65Q98.2 16.5 96.45 16.6L96.25 16.6L98.5 20.2L100.85 23.85L102.85 27.7L99.9 27.8L96.7 27.8L95.4 25L93.7 21.6L91.6 18.6L91.5 18.6L91.45 20.55L91.45 23.1L91.6 25.55L91.7 27.45L90.1 27.7L88.15 27.8L86.35 27.8L85.4 27.8L85.5 26.5L85.5 23.2L85.5 18.6L85.5 13.3L85.4 8.4L85.2 4.45L85.1 2.25L89.65 1.7Q92 1.5 94.65 1.8Q96.9 1.9 98.6 2.95Q100.3 4.15 101.25 5.85Q102.2 7.45 102.25 9.55M95.6,10.75Q95.95 10 95.85 9.05Q95.65 8.1 95 7.45Q94.15 6.8 93.05 6.8Q91.7 6.8 90.4 7.35L90.5 8.85L90.5 10.45Q90.5 11.3 90.65 11.9L92.45 12L94.35 11.9Q95.3 11.7 95.6 10.75M82.85,5L82.75 7.65L79.65 8L76.35 8L73.15 8.1L73.05 8.1L72.95 10.3Q72.85 11.4 73.05 12.35L73.05 12.45L75.3 12.55L77.55 12.55L77.55 12.65L77.65 15.1L77.65 17.65L75.95 17.9L74.25 17.9L73.25 18.1L73.05 20.45L73.25 22.65L73.25 22.75L77.95 22.8L82.85 22.8L82.85 22.9L82.85 25.35L82.55 27.7L75.05 27.8L67.6 27.7L67.4 15.1Q67.3 8.85 67.6 2.65L71.35 2.55L75.4 2.35L79 2.25L81.7 2.25L82.75 2.45L82.85 5M65.3,5.2L65.2 8.1L63.45 8L60.7 8.1L60.6 8.1L60.5 9.25L60.5 12.1L60.6 17.9L60.7 27.55L60.7 27.65L57.7 27.7L54.75 27.8L54.75 25.65L54.75 19.45L54.5 8.4L54.5 8.3L52.9 8L51.2 7.95L50.05 7.95L49.85 6.8L49.85 4.55L49.85 2.2L49.85 2.1L57.6 2L65.2 2.45L65.3 5.2M44.6,3.2Q46.35 4.15 47.2 5.95Q48.15 7.85 47.7 10.45L47.6 10.45L44.95 10.75L42.15 10.4Q42.3 9.45 41.75 8.8Q41.2 8.1 40.25 8L38.55 8.1Q37.8 8.5 37.6 9.55L37.5 10.1L37.6 10.45Q37.9 11.4 38.55 11.7Q39.2 12.1 39.95 12.1Q41.95 12.35 43.65 13.3Q45.25 14.35 46.3 15.95Q47.2 17.05 47.5 18.4Q47.8 19.7 47.6 21.1Q47.5 22.55 46.95 23.75Q46.3 25.35 45.25 26.3Q44.1 27.15 42.7 27.65L39.75 28Q38.15 28 36.65 27.45Q35.05 26.95 33.85 26.05Q32.5 25 31.85 23.65Q31.1 22.25 31.2 20.55L31.2 20.3L34 20.2L36.75 20.2Q36.85 21.4 37.8 21.95Q38.55 22.55 39.6 22.55Q40.55 22.55 41.3 21.95Q41.95 21.3 41.65 20.1Q41.55 18.85 40.7 18.3L38.75 17.45L36.45 17L35.15 16.5L34 15.65Q32.35 14.05 31.85 12.15Q31.3 10.3 31.75 8.4Q32.25 6.5 33.45 5.1Q34.7 3.6 36.45 2.85Q37.6 2.35 39.1 2.25L41.95 2.45Q43.35 2.75 44.6 3.2M28,2.1L28 2.25L27.9 10.75L27.8 19.25Q27.7 23.5 28 27.7L26.75 28L24.7 28L22.7 27.9L21.4 28Q21.65 23.6 21.5 19.15L21.3 10.4Q21.2 6.15 21.6 2L21.6 1.9L22.35 1.9L23.1 2L24.7 2.1L27.15 2.1L28 2.1M11.4,7.45L10.15 7.45L9.15 7.85L9.05 8.2L8.75 8.8Q8.4 10.1 8.3 11.8L8.1 15.55L8.2 19.45L8.55 21.1Q8.75 22.05 9.4 22.65L9.8 22.8L10.35 23L11.4 22.9L12.6 22.65L13.3 22.15L13.65 21.3L13.85 20.55L13.85 19.6L13.65 19.15L12.9 19.15L11.8 19.15L11 19.05L10.95 17.75L11 16.6L10.85 15.2L10.95 15.2L10.95 15.1L11 15.1Q11.5 14.8 12.55 14.7L14.9 14.7L17.05 14.9L18.45 15L18.55 15L18.85 19.15L18.55 23.3Q18.35 25.1 17.45 26.1Q16.5 27.05 15.1 27.65L11.2 28.4Q9.15 28.55 7.35 27.8Q5.95 27.25 5.1 26.1Q4.35 25.1 3.85 23.5L3.65 22.45L3.5 20.95L3.2 18.2L3.1 15.65L3.1 12.65L3.2 10.2L3.5 7.85Q3.65 6.6 4.15 5.5Q4.6 4.35 5.65 3.6Q6.4 3.05 7.35 2.65L9.15 2.25Q11.95 1.9 14.25 2.65Q16.5 3.5 17.6 5.4Q18.85 7.25 18.45 10.3L18.45 10.4L18.2 10.55L17.35 10.55L16.2 10.65L15.15 10.55L13.95 10.45L13.45 9.25L12.6 8Q12.15 7.45 11.4 7.45M0.95,5L0.85 7.65L-2.25 8L-5.45 8L-8.7 8.1L-8.85 8.1L-8.95 10.3L-8.85 12.35L-8.75 12.45L-6.6 12.55L-4.35 12.55L-4.35 12.65Q-4.05 13.75 -4.15 15.1L-4.25 17.65L-5.95 17.9L-7.65 17.9L-8.6 18.1Q-8.85 19.25 -8.75 20.45L-8.6 22.65L-8.6 22.75L-3.85 22.8L0.95 22.8L0.95 22.9L1.05 25.35L0.75 27.7L-6.9 27.8L-14.25 27.7L-14.5 15.1L-14.25 2.65L-10.55 2.55L-6.5 2.35L-2.85 2.25L-0.1 2.25L0.85 2.45L0.95 5M-16.4,9.55Q-16.4 11.5 -17.45 13.4Q-18.1 14.8 -19.35 15.65Q-20.45 16.5 -22.25 16.6L-22.45 16.6L-20.2 20.2L-17.8 23.85Q-16.7 25.75 -15.85 27.7L-18.75 27.8L-21.95 27.8L-23.3 25L-25 21.6L-27.05 18.6L-27.15 18.6L-27.25 20.55L-27.25 23.1L-27.05 25.55L-26.95 27.45L-28.55 27.7L-30.55 27.8L-32.35 27.8L-33.3 27.8L-33.2 26.5L-33.2 23.2L-33.2 18.6L-33.2 13.3L-33.3 8.4L-33.45 4.45L-33.55 2.25L-29.05 1.7Q-26.6 1.5 -23.95 1.8Q-21.8 1.9 -20.1 2.95Q-18.4 4.15 -17.45 5.85Q-16.5 7.45 -16.4 9.55M-28,11.9L-26.2 12L-24.35 11.9Q-23.4 11.7 -23 10.75Q-22.7 10 -22.8 9.05Q-23 8.1 -23.65 7.45Q-24.5 6.8 -25.65 6.8Q-26.95 6.8 -28.3 7.35L-28.2 8.85L-28.2 10.45L-28 11.9" />
</g>
</svg>
