<?xml version="1.0" encoding="utf-8"?>
<svg version="1.1" id="Layer_1"
xmlns="http://www.w3.org/2000/svg"
xmlns:xlink="http://www.w3.org/1999/xlink"
xmlns:author="http://www.sothink.com"
width="13px" height="14px"
xml:space="preserve">
<g id="616" transform="matrix(1, 0, 0, 1, 0, 0)">
<path style="fill:#3C3134;fill-opacity:1" d="M10.4,4.85L9.55 5.1Q9 5.2 8.05 6L6.7 7.2L6.6 7.35L6.25 7.7L6.25 7.75L5.9 8.1L5.65 8.3Q4.25 9.55 2.85 11.6L2.15 12.65L1.65 12.3L1.35 11.95L1.1 11.65L0.5 10.6L0.45 10.35L0.4 9.6L0.45 8.75L1.35 7.3L1.9 6.3Q3.45 4 6.15 2.8Q9.35 1.3 10.05 2.25Q10.8 3.6 10.85 4.75L10.4 4.85" />
<path style="fill:#1C1417;fill-opacity:1" d="M10.85,4.75Q10.8 6.65 8.85 8Q5.65 10.2 4.45 12.35L4.05 13.15L3.65 13.1L3.3 13.05L2.15 12.65L2.85 11.6Q4.25 9.55 5.65 8.3L5.9 8.1L6.25 7.75L6.25 7.7L6.6 7.35L6.7 7.2L8.05 6Q9 5.2 9.55 5.1L10.4 4.85L10.85 4.75" />
<path style="fill:#0E0A0B;fill-opacity:1" d="M4.45,12.35Q5.65 10.2 8.85 8Q10.8 6.65 10.85 4.75Q10.8 3.6 10.05 2.25Q9.35 1.3 6.15 2.8Q3.45 4 1.9 6.3L1.35 7.3L0.45 8.75Q-0.1 9.35 0.05 7.85L0.1 7.7Q0.4 5.1 2.05 3.45Q4.35 1.2 7.3 0.2Q11 -0.75 12.15 2.6L12.5 4.85Q12.4 6.95 10.6 9Q7.8 12.05 5.5 13.25Q3.7 14.2 4.05 13.15L4.45 12.35" />
</g>
</svg>
