<?xml version="1.0" encoding="utf-8"?>
<svg version="1.1" id="Layer_1"
xmlns="http://www.w3.org/2000/svg"
xmlns:xlink="http://www.w3.org/1999/xlink"
xmlns:author="http://www.sothink.com"
width="48px" height="28px"
xml:space="preserve">
<g id="3126" transform="matrix(1, 0, 0, 1, 0, 0)">
<path style="fill:#DB2AF0;fill-opacity:1" d="M43.15,0L43.35 0.45L43.1 0.75L42.8 0.55Q42.8 0.05 43.15 0M47,26.5L46.75 26.6L46.5 26.5L46.45 26.25L46.55 25.95L46.75 25.95L47.1 26.2L47 26.5M35.85,7.45Q35.85 6.95 36.3 6.95Q36.7 6.95 36.7 7.45L36.7 7.8L36.3 8L35.85 7.45M0.3,10.35L0 10.15Q0 9.85 0.3 9.75L0.65 9.85L0.7 10.1L0.3 10.35M13.3,14.2L13.35 13.95L13.6 13.9L13.85 14.2L13.6 14.45L13.4 14.4L13.3 14.2M5.05,27L5.3 27.3L5.05 27.6L4.75 27.4Q4.75 27.1 5.05 27" />
</g>
</svg>
