<?xml version="1.0" encoding="utf-8"?>
<svg version="1.1" id="Layer_1"
xmlns="http://www.w3.org/2000/svg"
xmlns:xlink="http://www.w3.org/1999/xlink"
xmlns:author="http://www.sothink.com"
width="23px" height="24px"
xml:space="preserve">
<g id="1223" transform="matrix(1, 0, 0, 1, 0, 0)">
<path style="fill:#191919;fill-opacity:1" d="M8.75,17.05L8.75 17.15L8.65 18.5Q8.4 19.75 9.5 20.6Q10.1 21.05 10.95 21.3L12.45 21.6L15.1 21.55Q16.05 21.3 17.05 20.55L17.35 20.3L17.95 19.35L18.4 18.05L18.05 17.9L17.5 17.35L17.35 16.75L17.3 16.7Q17.15 16.45 17.35 16.55L17.85 16.7L18.5 16.85L18.8 16.85Q20.55 16.9 20.7 14.8Q20.75 13.75 19.75 13.15L19.05 12.8L19.15 12.25L19.15 11.4Q21.85 11.6 22.1 14.15Q22.35 16.15 20.8 17.3L19.75 17.85Q20.15 18.25 19.15 20.1L19.1 20.15Q17.8 22.4 14.4 22.95Q11.3 23.45 8.8 21.55Q6.75 20 7.85 16.6L8.75 17.05M7.35,12.8L6.95 11.95L4.95 8.05L4.95 8L5 8L6.5 7.75L7.55 9.7L8.85 12.4L7.55 12.75L7.35 12.8M16.45,8.1L16.45 6.75L17.25 6.7L17.65 6.55L17.65 6.7L17.8 8.1L17.8 9.85L17.4 9.85L17 9.85L16.6 9.9L16.5 9.95L16.5 9.9L16.45 8.1" />
<path style="fill:#792E0A;fill-opacity:1" d="M17.05,15Q15.35 16.45 13.25 16.95L10.5 17.4L9.8 17.3L8.85 17.1L8.75 17.05L7.85 16.6Q6.85 15.45 7.05 14.15Q7.15 13.2 7.35 12.8L7.55 12.75L8.85 12.4L9.8 12.2L12.6 11.45L15.85 10.25L16.5 9.95L16.6 9.9L17 9.85L17.4 9.85L17.8 9.85Q19 10.25 19.15 11.4L19.15 12.25L19.05 12.8L17.05 15M6.5,7.75L5 8L4.95 8L4.95 8.05L4.9 8L4.9 7.95L3.3 6.75Q2.1 5.8 1.05 4.3Q-0.1 2.8 0 2.05Q0.1 1.25 0.55 0.9Q0.9 0.55 1.95 0.35L2.3 0.3L4.4 0.05Q9.95 -0.25 14.2 1.65Q18.1 3.4 18 5.15L18 5.5L17.65 6.55L17.25 6.7L16.45 6.75Q12.4 6.45 10.3 6.85L7.85 7.35Q7.15 7.5 6.5 7.75M16.75,4.75Q16.3 3.35 11.2 2Q6.25 0.7 2.2 1.55L2 1.6Q1.45 1.65 1.3 2.05Q1.1 2.5 1.45 3.05L1.5 3.1L3.7 5.6Q5.05 6.85 5.75 6.75Q7.55 5.8 9.35 5.55Q10.95 5.35 13.65 5.5L15.8 5.55L16.25 5.5L16.65 5.35L16.75 4.75M9.1,13.55L9 13.5Q8.3 13.95 8.5 14.8Q8.65 15.6 9.05 15.7L10.55 15.95Q14.85 15.4 16.45 13.9L17.4 12.85L17.7 12.4L17.9 11.85Q17.8 11.3 17.35 11.25L16.4 11.45L16 11.65L14.3 12.4L13.7 12.65L10.9 13.35L10.7 13.4L10.6 13.4L9.55 13.55L9.1 13.55" />
<path style="fill:#A66221;fill-opacity:1" d="M3,2.65Q4.75 4.65 5.5 4.65L7.4 4.45L9.8 4.2L12.85 4.5L15.8 5.1L16.65 5.35L16.25 5.5L15.8 5.55L13.65 5.5Q10.95 5.35 9.35 5.55Q7.55 5.8 5.75 6.75Q5.05 6.85 3.7 5.6L1.5 3.1L1.45 3.05Q1.8 2.65 3 2.65M9.05,13.65Q9.05 14.2 9.45 14.6Q9.85 15 10.4 15L14.85 14.3Q15.8 14.05 17.4 12.7L17.4 12.85L16.45 13.9Q14.85 15.4 10.55 15.95L9.05 15.7Q8.65 15.6 8.5 14.8Q8.3 13.95 9 13.5L9.1 13.55L9.05 13.65" />
<path style="fill:#E5AA38;fill-opacity:1" d="M3,2.65Q1.8 2.65 1.45 3.05Q1.1 2.5 1.3 2.05Q1.45 1.65 2 1.6L2.2 1.55Q6.25 0.7 11.2 2Q16.3 3.35 16.75 4.75L16.65 5.35L15.8 5.1Q15.5 4 11.8 3.3L3.8 2.6L3 2.65M17.4,12.7L17.25 12.2L14.15 13.15L14 13.2L10.7 13.8L9.55 13.55L10.6 13.4L10.7 13.4L10.9 13.35L13.7 12.65L14.3 12.4L16 11.65L16.4 11.45L17.35 11.25Q17.8 11.3 17.9 11.85L17.7 12.4L17.4 12.7" />
<path style="fill:#5F5F5F;fill-opacity:1" d="M17.55,18.35L17.95 19.35L17.35 20.3L16.65 20.3Q12.4 20.3 11.95 18.4Q17.3 17.8 19.55 13.55L19.75 14.35Q19.75 15.45 19.35 16.2L18.8 16.85L18.5 16.85L17.85 16.7L17.35 16.55Q17.15 16.45 17.3 16.7L17.35 16.75Q17.2 17.45 17.55 18.35M9.8,17.3L9.75 18Q9.75 20.1 10.95 21.3Q10.1 21.05 9.5 20.6Q8.4 19.75 8.65 18.5L8.75 17.15L8.75 17.05L8.85 17.1L9.8 17.3M15.85,10.25L12.6 11.45Q11.55 10.1 11.55 8.9L11.65 8.7L12.95 8.4L14.85 8.1L15.7 8.1L15.85 10.25M8.85,12.4L7.55 9.7L6.5 7.75Q7.15 7.5 7.85 7.35L8.45 9.25Q9.05 10.9 9.8 12.2L8.85 12.4" />
<path style="fill:#353535;fill-opacity:1" d="M17.35,20.3L17.05 20.55Q16.05 21.3 15.1 21.55L12.45 21.6L10.95 21.3Q9.75 20.1 9.75 18L9.8 17.3L10.5 17.4L13.25 16.95Q15.35 16.45 17.05 15L19.05 12.8L19.75 13.15L19.55 13.55Q17.3 17.8 11.95 18.4Q12.4 20.3 16.65 20.3L17.35 20.3M17.35,16.75L17.5 17.35L18.05 17.9L18.4 18.05L17.95 19.35L17.55 18.35Q17.2 17.45 17.35 16.75M9.8,12.2Q9.05 10.9 8.45 9.25L7.85 7.35L10.3 6.85Q12.4 6.45 16.45 6.75L16.45 8.1L15.7 8.1L14.85 8.1L12.95 8.4L11.65 8.7L11.55 8.9Q11.55 10.1 12.6 11.45L9.8 12.2" />
<path style="fill:#7B7B7B;fill-opacity:1" d="M19.75,13.15Q20.75 13.75 20.7 14.8Q20.55 16.9 18.8 16.85L19.35 16.2Q19.75 15.45 19.75 14.35L19.55 13.55L19.75 13.15M16.5,9.9L16.5 9.95L15.85 10.25L15.7 8.1L16.45 8.1L16.5 9.9" />
<path style="fill:#BF7A24;fill-opacity:1" d="M3.8,2.6L11.8 3.3Q15.5 4 15.8 5.1L12.85 4.5L9.8 4.2L7.4 4.45L5.5 4.65Q4.75 4.65 3 2.65L3.8 2.6M9.1,13.55L9.55 13.55L10.7 13.8L14 13.2L14.15 13.15L17.25 12.2L17.4 12.7L17.7 12.4L17.4 12.85L17.4 12.7Q15.8 14.05 14.85 14.3L10.4 15Q9.85 15 9.45 14.6Q9.05 14.2 9.05 13.65L9.1 13.55" />
</g>
</svg>
