<?xml version="1.0" encoding="utf-8"?>
<svg version="1.1" id="Layer_1"
xmlns="http://www.w3.org/2000/svg"
xmlns:xlink="http://www.w3.org/1999/xlink"
xmlns:author="http://www.sothink.com"
width="301px" height="27px"
xml:space="preserve">
<g id="805" transform="matrix(1, 0, 0, 1, -42.15, -195.45)">
<path style="fill:#4C4130;fill-opacity:1" d="M68.15,195.45L68.15 204.45L89.75 204.45L89.75 207.45L89.7 207.45L89.7 222.45L86.2 222.45L86.2 207.45L45.65 207.45L45.65 222.45L42.15 222.45L42.15 204.45L64.65 204.45L64.65 195.45L68.15 195.45" />
<path style="fill:#4C4130;fill-opacity:1" d="M342.65,207.45L342.65 222.45L339.15 222.45L339.15 207.45L298.6 207.45L298.6 222.45L295.1 222.45L295.1 204.45L317.6 204.45L317.6 195.45L321.1 195.45L321.1 204.45L342.7 204.45L342.7 207.45L342.65 207.45" />
</g>
</svg>
