<?xml version="1.0" encoding="utf-8"?>
<svg version="1.1" id="Layer_1"
xmlns="http://www.w3.org/2000/svg"
xmlns:xlink="http://www.w3.org/1999/xlink"
xmlns:author="http://www.sothink.com"
width="62px" height="70px"
xml:space="preserve">
<g id="924" transform="matrix(1, 0, 0, 1, 0, 0)">
<path style="fill:#FFFFFF;fill-opacity:1" d="M57,9.75L54.9 12.45Q53 14.95 53 16.5L54.6 15.8Q56.3 15.1 57.5 14.75L58.75 14.75L58.75 16L56.6 18.55L54.25 21.5L54.25 22.75L58 23Q57.6 23.8 54.95 25.75Q52.1 27.75 51 27.75L50.3 27.85Q50 27.85 50 27.5Q50 27.2 49.35 27.15L45.5 27.75L40.25 29Q39.55 29 39.65 28.2L39.95 26.3Q40.1 23.25 35.5 22L37.75 17.1L37.9 16.65L44.25 10.5Q44 11.5 44 13.5Q44.6 13.5 45.95 12.7L47.3 11.85L49.8 10.15L49.45 11.3Q49 12.05 49 12.5Q49.6 12.5 55 9.75L57 9.75M53.35,32.45Q52.6 32.9 52.75 33.75L55.6 33.9Q58.45 34.1 58.75 34.5Q58.55 35.05 57.95 35.45L56.5 36.5L58.9 37.1L61.5 37.75L61.5 38.25L58.1 39.25L53.5 41L55.15 41.7Q56.55 42.45 56.75 43.75L52.25 44L60.5 51.75L60.5 52Q59.55 51.7 57 52.75L57.75 54.85L57.15 56.2Q56.5 57.45 56.5 58L56.5 58.25L53.75 57.4L50.75 56.5L50.5 56.5Q50.5 56.75 51 57.25L49.5 57.25Q45.65 55.7 44.6 54.8Q43.2 53.6 40.55 46.8L40.5 46.75L41.05 46.35Q41.85 45.75 43.2 45.4Q44.5 45.05 44.5 44.35L44.2 43.05L44 42.5Q43.5 41 43.5 40.5Q43.5 39.95 45.25 39L43.95 38.1L43.25 37.5Q43.25 37.15 43.5 37.1L43.75 37Q43.4 36.65 42.5 36.2L41.25 35.75L43.3 34.05L43.9 33.6L48.5 32.85L49.5 32.75L50.75 32.55L53.4 32.25L53.85 32.25L53.35 32.45M1.3,10.95L2.75 11.75L3 11.75Q3 11.15 2.1 9.3L1 7.25L1 7L5.35 11.15L15.75 21L11.5 21L12.9 22.8Q14.2 24.6 14 25.25L11.25 25.75L12.9 26.7Q14.2 27.25 14.5 27.5L14.5 27.75Q12.75 27.75 11.5 28.25L16.75 33.75Q15.6 34.3 14.5 35.2L13.3 36.35L8.15 36.25L1.75 35.75L3.55 34.15Q5 32.9 5 32.35L4.15 31.1Q3.2 30 2.25 30Q3 29.1 3.5 29.25Q3.35 28.5 2.05 27.3L0.25 25.75Q0.45 25.25 2.55 24.8Q4.5 24.35 4.5 23.25Q4.5 22.45 2.95 18.3L2 15.7L0 10.25L1.3 10.95M4,45.25L4.25 45.05Q5.05 44.5 7.55 43.4Q11.35 41.75 15.25 40.75L16.75 40.75Q16.8 41.25 14.75 45.75L17.25 44.75Q19.55 43.75 20 43.75Q20 46.75 20.25 47.75L21.5 47.75Q22.65 46.75 23.25 46.75Q23.65 46.75 23.85 47.15Q24.1 47.5 24.75 47.5Q25.35 47.5 26.65 46.8L29 45.5L29.7 46.6L30.25 47.5L30.4 47.55L30.5 47.75L31.2 46.2Q31.65 45.25 32.5 45.5Q32.8 47.25 34.15 47.25L35.4 46.7L36.5 45.5Q37.35 45.9 38.85 47.65L39.15 48L40 49.05L43.35 60L43 59.75L42.5 59.75L42.5 60.75L43.5 65L43.25 66.35L43 68Q41.6 67 41.15 67Q40.15 67 40.25 68.75Q38.6 67.1 37.15 66.85L33.25 66.25L33.25 68L31.5 67.5Q30.55 67 29.75 67Q28.8 67 28.1 68.05L27.25 69.5L27 69.5Q27 68.85 25.7 66.75L24 64L24 65.25L22.25 61.4L20.5 57.25Q20.05 57.6 19.55 58.6L19 60L18.75 60L18.75 57.5L16.95 60.45Q15.2 63.05 14 63Q13.65 60.8 13.2 60.15Q12.7 59.5 11.5 59.5L8 60.25L7.75 60.25L9.1 59.6L10.75 59L10.8 58.9Q10.85 58.75 11 58.75L9.6 58.4L8.15 58.25L3.65 58.75L2.25 58.75L10 53L5 52.5L7.05 50.85L9.2 49.3L9.5 49L9.5 48.5L7.6 48.2L7 48L7.05 47.75L7.25 47.15L7.5 46.25Q7.5 45.5 6.45 45.3L4.45 45.25L4 45.25" />
<path style="fill:#FFEFD5;fill-opacity:1" d="M29.5,1.85L29.5 7L27.75 6L26.5 6L26.5 7.5L25.05 7.2Q24 6.8 23.5 6.75Q23.5 7.75 23.25 7.75L21.25 7.5L22.2 9.15Q23 10.55 23 11L21 11L23.75 15.7Q26.15 19.45 28.55 22.2L27.65 22.85L19.7 18.85L20.45 18.65L20.5 18.5L20.5 17.85L13.75 6.75L16.75 7L16.75 4.75L16.4 3.1Q16.2 1.9 15.55 1.5L19.75 3.95L20.55 4.4L22.5 5Q23.15 5 24.4 4L25.4 4.25L26.5 4.5L26.6 3.8L26.95 2.3L27.25 0Q28.05 0.1 29.5 1.85" />
</g>
</svg>
