<?xml version="1.0" encoding="utf-8"?>
<svg version="1.1" id="Layer_1"
xmlns="http://www.w3.org/2000/svg"
xmlns:xlink="http://www.w3.org/1999/xlink"
xmlns:author="http://www.sothink.com"
width="46px" height="40px"
xml:space="preserve">
<g id="1682" transform="matrix(1, 0, 0, 1, -0.15, 0.15)">
<path style="fill:#1C202A;fill-opacity:1" d="M41.6,5.05L41.7 5.15Q42 5.75 41.9 6.95Q41.8 8.15 40.7 9.8Q41.8 11.3 43.35 12.6Q44.85 13.65 43.05 14.8L41.6 15.35L42.9 18.2Q43.6 19.6 44.8 20.4L44.85 20.4Q45.8 20.7 45.5 21.4L45.45 21.4Q45.1 22.1 43.55 22.8L41.8 23.25Q43.35 25.6 43.15 29L42.7 30.05Q42.3 30.3 41.75 29.65L39.9 28.3Q39.95 30.05 42 31.85Q43.4 32.65 43.2 33.2L42.6 33.95L41.1 34.3L40.9 34.3L43.6 36.05Q45 36.55 43.5 37.85L41.8 38.6L38.95 39.05Q36.85 39.05 35.55 37.85L34.9 37.1L34.15 38.05Q33.4 38.55 32.85 37.55L30.65 35.15L29.45 34L29.3 36.05L28.75 37.95Q28.5 38.6 27.25 37.55L25.15 35.65L24.35 34.85L23.65 36.25L22.65 37.3Q21.55 38.15 20.85 36.1Q19.8 33.7 17.65 32.45Q17.2 32.55 16.95 33.7L16.8 35.1Q17.05 36.95 16.3 36.8Q13.1 36.8 11.85 34.45Q11.3 37.85 7.15 37.3Q6.85 37.2 7.1 36.75Q7.5 35.8 7.55 34.35Q6.8 34.55 3.45 38.05Q0.35 34.95 1.6 30.5Q1.75 29.7 2.1 29.2L1.5 28.9Q0.35 28.4 0.15 27.75Q3.8 23.9 4.95 21.4L3.4 21.75Q1.9 22.1 2.05 21.35Q1.25 16.95 4.05 14.15Q2.9 13.45 2.4 12.7L1.5 10.9Q1.15 9.8 2.1 9.6L5.5 8.45L8.15 7.25L8.2 6.7L6.5 5.8Q5 5.35 5.8 4.6L5.95 4.45Q7.25 3.45 8.85 3.25Q12 2.95 12.75 4Q13.45 2 17.1 -0.15Q17.25 2.75 21.65 3.75L23.4 4.05L32.65 4.65L33.65 5.4Q35.2 4.75 37.5 5.45Q39.4 6 40.55 5.1L41.6 5.05M39.8,10.6L39.25 11L37.5 10.95L39.1 9.3L40.15 7.5L40.5 6.6L40.4 6.65L39.7 6.85L35.9 7.15L35.5 7.1Q33.5 6.85 31.75 7.65L31.5 7.45Q31.95 6.55 32.65 6Q32.1 5.4 31.2 5.45L21.25 4.95L21.1 4.95Q17.7 4.5 16.25 2.15L15.45 3.35Q14.8 4.1 14.4 5L14.75 5.45L15.3 6.6L15 6.55Q11.1 3.4 7.3 5L8.6 5.35Q10.05 6 10.75 8L10.95 9.6L10.95 9.75L10.7 9.5L9.65 7.95L9.55 7.85Q6.95 9.5 3.95 10.35L3.1 10.6L3.55 11.4L3.85 11.85L5.15 13.2L6.15 13.9Q6.8 14.3 7.95 14.35L8.2 14.35L8.7 14.3L8.1 14.45L7.85 14.55L6.65 14.8L5.75 14.95L4.85 15.65Q4.05 16.2 3.65 17.65Q3.25 19.05 3.25 20.35L3.85 20.1L6.75 20.2L7 20.45L6.7 20.6L6.05 20.95Q6.25 22.55 5.8 23.8Q5.4 24.95 4.5 25.75L2.45 27.5L2.7 27.65L3.35 27.85L4.95 28.05L5.4 28.05L5.7 28.1L6.05 28.1L5.8 28.4L4.6 29.3L3.75 29.45Q3.4 29.95 3 31.85Q2.6 33.75 3.1 35L3.35 35.85L3.55 35.6Q4.7 34.2 7.85 32.45L8.2 32.45Q9.1 32.45 9.15 34.35L9.15 34.5Q9.15 35.55 8.65 36.2L9.7 35.65L10.7 34.35L11.7 33Q13.7 34.9 15.35 35.3L15.4 35.3Q15.1 32.45 17.15 31.2L17.55 30.95Q17.6 31.2 17.6 30.9Q18.3 31.2 18.85 31.6Q21.2 33 21.85 34.85L21.9 35.15L22 35.8L22.1 35.75Q23.7 34.35 23.1 31.05L23.3 30.85Q23.45 30.65 23.65 30.7Q24.65 31.95 24.55 33.4L25.9 34.3L27.95 36.1L28.05 33.25Q28.2 31.35 28.45 31.75L29.25 32.75L29.25 32.85L29.25 32.7L30.8 33.25L31.15 33.5L33.7 36.2L34.3 35.3L34.4 35.05L34.45 34.95L34.55 34.35L34.35 33.4L34.65 33.15L34.9 33.05Q35.65 34.2 35.6 35.35L35.45 36.25L36.45 36.85Q39.3 38.3 42.3 36.85L42.25 36.85L40.55 35.7Q39.7 34.85 39.5 32.9L39.7 32.85L40.75 32.65Q39.55 31.95 38.75 30.45Q37.9 28.85 38.55 27.2L38.6 27L38.85 26.75L38.9 26.7L38.9 26.65L39 26.65L39.1 26.65Q40.95 26.8 41.8 27.6L42.1 28.05Q41.65 25.2 40.35 22.85L39.95 22.15L39.85 21.65Q39.75 21.15 40.1 21.1L40.5 21.1L43.45 21.05Q42.25 20.55 41.4 19.25L40.9 18.35Q40.35 17.2 40.15 15.6Q38.95 15.6 38.35 14.8L38.9 14.75Q40.9 14.45 42.45 13.45L41.6 12.9Q40.2 11.75 39.8 10.6M11.5,32.8L11.6 32.9L11.45 33L11.45 32.9L11.4 32.7L11.5 32.8M7.9,32.35L7.85 32.35L7.9 32.35" />
<path style="fill:#2D343C;fill-opacity:1" d="M21.35,29.6Q19.55 28.55 18.85 31.6Q18.3 31.2 17.6 30.9Q17.6 31.2 17.55 30.95L17.15 31.2Q15.1 32.45 15.4 35.3L15.35 35.3Q14.35 34.5 13.85 33.35L13.55 32.5Q13.1 31.15 13.2 29.4L14.2 25.6L9.25 25.75Q14.25 22.45 13.3 17.55Q11.45 17.25 9.55 18.05Q10.15 16.45 12.4 15.25Q13.5 14.65 14.75 14.3L13.75 13.6Q12.5 12.45 12.4 10.85Q15.45 11.8 18.05 10.85L16.35 10.2Q14.9 9.5 14.6 8.55L14.25 8.55L13.6 8.75L12.6 8.75L12.55 8.15Q12.2 7 10.75 6.15Q9.8 5.6 8.6 5.35L7.3 5Q11.1 3.4 15 6.55L15.3 6.6L14.75 5.45L14.4 5Q14.8 4.1 15.45 3.35L16.25 2.15Q17.7 4.5 21.1 4.95L21.25 4.95L31.2 5.45Q32.1 5.4 32.65 6Q31.95 6.55 31.5 7.45L31.75 7.65Q33.5 6.85 35.5 7.1L35.9 7.15Q35.6 7.85 35.85 8.8L36.3 9.15Q38.75 8.6 40.4 6.65L40.5 6.6L40.15 7.5L39.1 9.3L37.5 10.95L39.25 11L39.8 10.6Q40.2 11.75 41.6 12.9Q39.65 14.3 37.5 12.85L37.45 13.6L37.55 13.85L38.9 14.75L38.35 14.8Q38.95 15.6 40.15 15.6Q40.35 17.2 40.9 18.35L41.4 19.25Q40.35 19.05 39.5 18.45L39 18.05Q39.2 19.4 39.75 20.5L40.1 21.1Q39.75 21.15 39.85 21.65L39.95 22.15L40.35 22.85Q41.65 25.2 42.1 28.05L41.8 27.6Q41.4 26.35 40.35 25.35Q39.05 24.1 37.3 23.85L37.45 23.95Q37 25.2 38.9 26.65L38.9 26.7L38.6 26.95L38.55 27L38.55 27.05L38.6 27L38.55 27.2Q37.9 28.85 38.75 30.45Q39.55 31.95 40.75 32.65L39.7 32.85L39.5 32.9Q39.7 34.85 40.55 35.7L42.25 36.85Q40.3 36.6 38.8 35.55L37.4 34.55L36.45 36.85L35.45 36.25L35.6 35.35Q35.65 34.2 34.9 33.05L34.65 33.15L34.35 33.4L34.55 34.35L34.45 34.95L34.4 35.05L34.35 34.9Q34 33.8 33.1 32.95Q32.4 32.3 31.6 31.95L31.15 33.5L30.8 33.25L29.25 32.7L29.25 32.85L29.25 32.75L28.45 31.75Q28.2 31.35 28.05 33.25L27.2 31.9L26 30.85Q26.55 32.65 25.9 34.3L24.55 33.4Q24.65 31.95 23.65 30.7Q23.45 30.65 23.3 30.85L23.1 31.05Q23.7 34.35 22.1 35.75L22 35.8L21.9 35.15L21.85 34.85Q22.05 31.95 21.35 29.6M11.4,32.7L11.45 32.9L11.45 33L11.6 32.9L11.7 33L10.7 34.35L9.7 35.65L8.65 36.2Q9.15 35.55 9.15 34.5L9.15 34.35Q10.5 32.75 10.15 31.1L10.65 31.65L11.8 32.9L11.75 32.85L11.5 32.8L11.4 32.7M4.8,31.6Q5.35 30.75 6.7 29.95L6.6 29.95L6.65 29.9L6.7 29.95L7.85 29.2L8.05 29.6Q8.6 30.65 7.9 32.35L7.85 32.45Q4.7 34.2 3.55 35.6Q3.7 33.45 4.65 31.8L4.8 31.6M4.1,27.4L5.5 26.65Q6.9 25.7 7 24.4Q7.2 26.2 6.2 27.5L5.7 28.1L5.4 28.05L4.95 28.05L3.35 27.85L2.7 27.65L4.1 27.4M4.7,18.2L5.15 17.65Q6.45 16.5 8.15 16.4L7.4 17.4L7.4 17.45Q6.8 18.65 6.75 20.2L3.85 20.1Q4 19.05 4.7 18.2M7.85,14.55L8.1 14.45L8 14.55L7.85 14.55M6.2,12.5Q8.3 12.8 10.65 11.45L8.2 14.35L7.95 14.35Q6.8 14.3 6.15 13.9L5.15 13.2L3.85 11.85L3.55 11.4Q4.8 12.3 6.2 12.5M25.3,11.65L24.6 10.95L24.15 9.9Q23.85 11 22.8 11.85Q21.3 13.1 19.3 13.1L19.55 13.3L20.15 13.65Q22.9 14.3 25 12.55L25.2 12.35L25.3 11.65M25.4,20.65L24.8 21.75L26.35 22.85Q27.9 23.6 29.95 23.8L28.45 22.8Q27.05 21.5 26.85 19.75Q26.05 19.95 25.4 20.65M7.85,32.35L7.9 32.35L7.85 32.35" />
<path style="fill:#5A5F66;fill-opacity:1" d="M37.55,13.85L37.45 13.6L37.5 12.85Q39.65 14.3 41.6 12.9L42.45 13.45Q40.9 14.45 38.9 14.75L37.55 13.85M39.75,20.5Q39.2 19.4 39 18.05L39.5 18.45Q40.35 19.05 41.4 19.25Q42.25 20.55 43.45 21.05L40.5 21.1L40.1 21.1L39.75 20.5M41.8,27.6Q40.95 26.8 39.1 26.65L39 26.65L38.9 26.65Q37 25.2 37.45 23.95L37.3 23.85Q39.05 24.1 40.35 25.35Q41.4 26.35 41.8 27.6M38.9,26.7L38.85 26.75L38.6 27L38.55 27.05L38.55 27L38.6 26.95L38.9 26.7M37.4,34.55L38.8 35.55Q40.3 36.6 42.25 36.85L42.3 36.85Q39.3 38.3 36.45 36.85L37.4 34.55M34.4,35.05L34.3 35.3L33.7 36.2L31.15 33.5L31.6 31.95Q32.4 32.3 33.1 32.95Q34 33.8 34.35 34.9L34.4 35.05M28.05,33.25L27.95 36.1L25.9 34.3Q26.55 32.65 26 30.85L27.2 31.9L28.05 33.25M21.85,34.85Q21.2 33 18.85 31.6Q19.55 28.55 21.35 29.6Q22.05 31.95 21.85 34.85M4.6,29.3L5.8 28.4L6.05 28.1L5.7 28.1L6.2 27.5Q7.2 26.2 7 24.4Q6.9 25.7 5.5 26.65L4.1 27.4Q5.9 25.95 5.8 23.8Q6.25 22.55 6.05 20.95L6.7 20.6L7 20.45L6.75 20.2Q6.8 18.65 7.4 17.45L7.4 17.4L8.15 16.4Q6.45 16.5 5.15 17.65L4.7 18.2L4.4 18.25Q4.75 15.75 6.65 14.8L7.85 14.55L8 14.55L8.1 14.45L8.7 14.3L8.2 14.35L10.65 11.45Q8.3 12.8 6.2 12.5L5.1 11.45L9.65 8.6L9.65 7.95L10.7 9.5L10.95 9.75L10.95 9.6L11.3 7.45L12.55 8.15L12.6 8.75L13.6 8.75L14.25 8.55L14.6 8.55Q14.9 9.5 16.35 10.2L18.05 10.85Q15.45 11.8 12.4 10.85Q12.5 12.45 13.75 13.6L14.75 14.3Q13.5 14.65 12.4 15.25Q10.15 16.45 9.55 18.05Q11.45 17.25 13.3 17.55Q14.25 22.45 9.25 25.75L14.2 25.6L13.2 29.4Q13.1 31.15 13.55 32.5L13.85 33.35L13.25 33.3Q12.4 33.05 11.85 32.05Q11.25 30.95 11.2 29.4L10.95 29.6L10.8 29.7L10.65 31.65L10.15 31.1Q10.5 32.75 9.15 34.35Q9.1 32.45 8.2 32.45L7.85 32.45L7.9 32.35Q8.6 30.65 8.05 29.6L7.85 29.2L6.7 29.95L6.65 29.9L6.6 29.95L6.7 29.95Q5.35 30.75 4.8 31.6L3.8 31.95L4.6 29.3M35.9,7.15L39.7 6.85L40.4 6.65Q38.75 8.6 36.3 9.15L35.85 8.8Q35.6 7.85 35.9 7.15M25.2,12.35L25 12.55Q22.9 14.3 20.15 13.65L19.55 13.3L19.3 13.1Q21.3 13.1 22.8 11.85Q23.85 11 24.15 9.9L24.6 10.95L25.3 11.65L25.2 12.35M26.85,19.75Q27.05 21.5 28.45 22.8L29.95 23.8Q27.9 23.6 26.35 22.85L24.8 21.75L25.4 20.65Q26.05 19.95 26.85 19.75" />
<path style="fill:#969BA1;fill-opacity:1" d="M11.6,32.9L11.5 32.8L11.75 32.85L11.8 32.9L10.65 31.65L10.8 29.7L10.95 29.6L11.2 29.4Q11.25 30.95 11.85 32.05Q12.4 33.05 13.25 33.3L13.85 33.35Q14.35 34.5 15.35 35.3Q13.7 34.9 11.7 33L11.6 32.9M3.8,31.95L4.8 31.6L4.65 31.8Q3.7 33.45 3.55 35.6L3.35 35.85L3.1 35Q2.6 33.75 3 31.85Q3.4 29.95 3.75 29.45L4.6 29.3L3.8 31.95M4.1,27.4L2.7 27.65L2.45 27.5L4.5 25.75Q5.4 24.95 5.8 23.8Q5.9 25.95 4.1 27.4M3.85,20.1L3.25 20.35Q3.25 19.05 3.65 17.65Q4.05 16.2 4.85 15.65L5.75 14.95L6.65 14.8Q4.75 15.75 4.4 18.25L4.7 18.2Q4 19.05 3.85 20.1M3.55,11.4L3.1 10.6L3.95 10.35Q6.95 9.5 9.55 7.85L9.65 7.95L9.65 8.6L5.1 11.45L6.2 12.5Q4.8 12.3 3.55 11.4M10.75,6.15Q12.2 7 12.55 8.15L11.3 7.45L10.95 9.6L10.75 8Q10.05 6 8.6 5.35Q9.8 5.6 10.75 6.15" />
</g>
</svg>
