<?xml version="1.0" encoding="utf-8"?>
<svg version="1.1" id="Layer_1"
xmlns="http://www.w3.org/2000/svg"
xmlns:xlink="http://www.w3.org/1999/xlink"
xmlns:author="http://www.sothink.com"
width="14px" height="18px"
xml:space="preserve">
<g id="1692" transform="matrix(1, 0, 0, 1, 0.15, 4.9)">
<path style="fill:#969BA1;fill-opacity:1" d="M12.05,3.7L12.35 3.45L12.1 3.8L12 4Q11.55 4.55 11.65 4.65L11.55 4.6Q11.65 5.55 12.35 6.15L10.5 7.75Q9.2 8.9 7.6 10.8Q6 12.75 3.25 11.5Q2.15 11.05 1.55 10.4L1.15 9.9L1.5 10.15Q2.6 10.75 3.95 10.55Q5.9 10.25 6.95 8.7L8.6 6.9L9.2 6.1Q10.1 5.25 11.8 3.9L11.85 3.9L12 3.75L12.05 3.7" />
<path style="fill:#61666C;fill-opacity:1" d="M2.15,7.35L2.55 6.55L3.1 7.35Q3.3 5.7 3.95 4.1Q4.75 2.5 7.1 0.2L8.6 1.65L11.8 3.85L11.85 3.9L11.8 3.9Q10.1 5.25 9.2 6.1L8.6 6.9L6.95 8.7Q5.9 10.25 3.95 10.55Q2.6 10.75 1.5 10.15Q1.4 8.7 2.15 7.35" />
<path style="fill:#2D343C;fill-opacity:1" d="M12,3.75L11.85 3.9L11.8 3.85L8.6 1.65L7.1 0.2Q4.75 2.5 3.95 4.1Q3.3 5.7 3.1 7.35L2.55 6.55L2.15 7.35Q1.4 8.7 1.5 10.15L1.15 9.9Q0.7 9.1 0.75 7.4Q0.75 5.75 1.8 4.1L4.05 0.9L6.65 -2.1L7.6 -3L8.45 -4L9.2 -2.15L9.85 -0.7L10.15 -0.05L9.75 0.75L10 1.2L12.05 3.7L12 3.75M7.5,-2.9L7.55 -2.95L7.6 -3L7.5 -2.9M7.45,-2.9L7.4 -2.85L7.4 -2.9L7.45 -2.9M9.75,0.8L9.75 0.85L10 1.2L9.75 0.8" />
<path style="fill:#1C202A;fill-opacity:1" d="M7.6,-3L6.65 -2.1L4.05 0.9L1.8 4.1Q0.75 5.75 0.75 7.4Q0.7 9.1 1.15 9.9L1.55 10.4Q2.15 11.05 3.25 11.5Q6 12.75 7.6 10.8Q9.2 8.9 10.5 7.75L12.35 6.15Q11.65 5.55 11.55 4.6L11.65 4.65Q12.3 4.75 13 5.5Q13.3 5.75 13.1 6.15L11.2 8.3L7.9 11.7Q6.8 12.9 5.15 12.9Q3.5 12.9 1.95 11.95Q0.45 11 0.1 9.7L-0.15 7.15Q-0.1 5.9 1.2 3.4Q2.45 0.85 4.65 -1.55Q6.25 -3.4 8.2 -4.9L8.45 -4L7.6 -3M9,-4.1L9.05 -4.1L9 -4.05L9 -4.1M7.4,-2.9L7.4 -2.85L7.45 -2.9L7.4 -2.9" />
</g>
</svg>
