<?xml version="1.0" encoding="utf-8"?>
<svg version="1.1" id="Layer_1"
xmlns="http://www.w3.org/2000/svg"
xmlns:xlink="http://www.w3.org/1999/xlink"
xmlns:author="http://www.sothink.com"
width="33px" height="37px"
xml:space="preserve">
<g id="545" transform="matrix(1, 0, 0, 1, -1.4, -5)">
<path style="fill:#38465B;fill-opacity:1" d="M22.85,5.55Q23.95 6 25.05 7.3Q26.15 8.55 25.75 10.1Q25.35 11.6 23.5 11.5Q21.7 11.4 20.8 10.05L19.75 9L17.9 7.5L16.85 6.8L16.8 6.7L16.65 6.45L16.7 6.3Q16.75 5.95 17.25 5.65Q17.75 5.35 18.75 5.15L20.8 5.05L22.85 5.55M17.8,6.55L19.05 7.45L21.25 9.35Q22.2 10.6 23.5 10.65Q24.75 10.75 25.05 9.8L25.1 9.45Q25.25 8.7 24.6 7.85L24.55 7.8Q23.8 6.75 22.85 6.3Q21.85 5.8 20.85 5.75L18.6 5.9Q17.4 6.15 17.6 6.4L17.7 6.5L17.75 6.5L17.8 6.55" />
<path style="fill:#FFFFFF;fill-opacity:1" d="M20.5,6L21.45 6L22.05 6.25L22.55 6.75L22 6.8L20.5 6.05L20.5 6" />
<path style="fill:#E0E6DA;fill-opacity:1" d="M20.5,6.05L22 6.8L22.55 6.75L22.05 6.25L21.45 6L20.5 6L20.5 6.05M17.6,6.4Q17.4 6.15 18.6 5.9L20.85 5.75Q21.85 5.8 22.85 6.3Q23.8 6.75 24.55 7.8L24.6 7.85Q24.6 8.55 24.05 9.05L23.1 7.85L22.15 7.15Q21.3 6.5 20.2 6.3L18 6.4L17.7 6.5L17.6 6.4" />
<path style="fill:#717463;fill-opacity:1" d="M17.75,6.5L19.85 6.65Q20.9 6.85 21.8 7.5L23.3 9L23.55 9.25L23.7 9.3L24.05 9.05Q24.6 8.55 24.6 7.85Q25.25 8.7 25.1 9.45Q24.95 9.95 24.05 10.15Q23.15 10.25 22.2 9.35L20.4 7.65Q19.5 6.85 18.4 6.65L17.8 6.55L17.75 6.5" />
<path style="fill:#ACB0A2;fill-opacity:1" d="M23.7,9.3L23.55 9.25L23.3 9L21.8 7.5Q20.9 6.85 19.85 6.65L17.75 6.5L17.7 6.5L18 6.4L20.2 6.3Q21.3 6.5 22.15 7.15L23.1 7.85L24.05 9.05L23.7 9.3M25.05,9.8Q24.75 10.75 23.5 10.65Q22.2 10.6 21.25 9.35L19.05 7.45L17.8 6.55L18.4 6.65Q19.5 6.85 20.4 7.65L22.2 9.35Q23.15 10.25 24.05 10.15Q24.95 9.95 25.1 9.45L25.05 9.8" />
<path style="fill:#71BDF3;fill-opacity:1" d="M11.5,10.7Q9.8 11.5 8.05 11.55L8.1 11.5Q9.55 10.65 11.3 10.4L11.45 10.5L11.5 10.55L11.5 10.7M15.95,15.6L16.25 15.75L17.3 16.55L16.5 16.6Q15.15 16.1 15.4 15.4L15.5 15.4L15.9 15.6L15.95 15.6" />
<path style="fill:#3680D2;fill-opacity:1" d="M7.15,11.95Q10.05 10.1 13.05 10.2L13.05 10.25Q12.65 10.4 12.4 10.85L12.15 11.2L10.6 11.3Q7.8 11.9 4.85 14.85L3.9 15.55L3.6 15.6Q5 13.35 7.15 11.95M17.95,16.2L18.7 16.25L18.7 16.45L18.25 16.9L17.85 16.9Q16.05 16.85 14.75 15.55Q13.25 14.15 13.35 12.1Q13.75 13.9 14.75 14.8L15.9 15.6L15.5 15.4L15.4 15.4Q15.15 16.1 16.5 16.6L17.3 16.55L16.25 15.75L17.95 16.2M11.5,10.55L11.45 10.5L11.3 10.4Q9.55 10.65 8.1 11.5L8.05 11.55Q9.8 11.5 11.5 10.7L11.5 10.55" />
<path style="fill:#1D5BA1;fill-opacity:1" d="M13.35,12.1Q13.25 14.15 14.75 15.55Q16.05 16.85 17.85 16.9L18.25 16.9L18.7 16.45L18.7 16.25L19.55 16.3L19.85 17.3L19.45 17.35L19.35 17.35Q15.95 17.7 13.55 15.05Q12.25 13.65 12.25 11.95L12.15 11.95L11.95 11.95Q9.5 12.05 7.35 13.3Q5.1 14.65 4.25 15.95Q3.45 17.25 3.2 17.9L2.65 19.65L2.45 21L2.45 21.65L2.45 21.95L2.45 22.05L2.5 23.2L2.25 22.4L2.05 21.75Q1.65 19.5 2.8 17.05L3.6 15.6L3.9 15.55L4.85 14.85Q7.8 11.9 10.6 11.3L12.15 11.2L12.4 10.85Q12.65 10.4 13.05 10.25L13.35 12.1" />
<path style="fill:#074174;fill-opacity:1" d="M19.45,17.55L19.35 17.6Q15.65 18.25 13.05 15.25Q11.9 13.9 11.7 12.6Q9.5 12.75 7.2 14Q5.6 14.9 4.6 16.4L3.6 18.25L3.1 20.05L2.95 21.3L3.1 23.4L3.35 24.45L3.1 24.5L2.8 24.2Q2.25 23.7 1.85 22.85L1.7 22.5Q1.5 21.85 1.45 21.15Q1.35 20.25 1.5 19.25Q1.6 18.25 2.75 16.1L3.3 15.15Q4.25 13.6 5.4 12.45Q6.95 11.05 8.95 10.25Q10.95 9.5 12.4 9.45Q13.7 9.4 13.65 10.15L13.65 10.3Q13.5 11.15 14.4 13.3Q15.3 15.15 18.65 16L18.7 16L19.15 16.1L19.75 16.2L19.65 16.25L19.55 16.2L19.55 16.3L18.7 16.25L17.95 16.2L16.25 15.75L15.95 15.6L15.9 15.6L14.75 14.8Q13.75 13.9 13.35 12.1L13.05 10.25L13.05 10.2Q10.05 10.1 7.15 11.95Q5 13.35 3.6 15.6L2.8 17.05Q1.65 19.5 2.05 21.75L2.25 22.4L2.5 23.2L2.45 22.05L2.45 21.95L2.45 21.65L2.45 21L2.65 19.65L3.2 17.9Q3.45 17.25 4.25 15.95Q5.1 14.65 7.35 13.3Q9.5 12.05 11.95 11.95L12.15 11.95L12.25 11.95Q12.25 13.65 13.55 15.05Q15.95 17.7 19.35 17.35L19.45 17.35L19.85 17.3L19.9 17.3L19.85 17.45L19.8 17.5L19.45 17.55" />
<path style="fill:#80B5CD;fill-opacity:1" d="M3.6,18.25L5 16.8Q7.35 14.8 10.6 14.7L10.5 14.9Q10.15 15.55 10.1 16.4L9.6 18.05L9.25 16.45Q5.3 17.1 3.1 20.05L3.6 18.25M10.8,19.45L10.45 19.7L10.45 19.55Q10.85 17.85 12.3 17.05L12.45 17.1L13.55 17.3Q15.65 17.95 16.9 19.3L16.35 20.45L16.05 20.85L15.9 20.75L16.1 19.8Q16.05 19.55 16.15 19.5Q13.4 17.6 10.8 19.45" />
<path style="fill:#AACAD0;fill-opacity:1" d="M9.5,19.65Q6.75 18.55 4.1 20.3L2.95 21.3L3.1 20.05Q5.3 17.1 9.25 16.45L9.6 18.05L9.5 19.65M16.15,19.5Q16.05 19.55 16.1 19.8L15.9 20.75L15.65 20.6L15.45 20.5L15.3 20.4Q14 19.1 11.75 19.25L10.8 19.45Q13.4 17.6 16.15 19.5" />
<path style="fill:#235572;fill-opacity:1" d="M10.25,16L10.1 16.95L10.05 19.3L10.1 19.75L10.15 19.95L10.35 20.5L10.4 20.7Q11.55 19.8 13.05 19.9L15.3 20.4L15.45 20.5L15.65 20.6L15.9 20.75L16.05 20.85L16.3 21Q16.55 21.1 17.8 20.35Q18.85 19.65 19.35 17.6L19.45 17.55Q19.65 19.8 18.5 20.7Q17.3 21.75 16.25 21.65L15.85 21.45L15.45 21.2L15.35 21.15Q13.95 20.4 12.65 20.6Q11.3 20.8 10.85 21.2L10.45 21.35Q10.1 21.4 9.7 21.1Q9.1 20.7 8.25 20.6Q7.4 20.45 6 21.05Q4.6 21.6 3.8 23.5L3.35 24.45L3.1 23.4L3.25 23.05L4.35 21.25L5.6 20.4Q6.35 20 7.7 19.9Q9 19.8 9.55 20.3L9.55 20.1L9.5 19.65L9.6 18.05L10.1 16.4L10.25 16" />
<path style="fill:#6099BB;fill-opacity:1" d="M10.35,20.5L10.15 19.95L10.1 19.75L10.05 19.3L10.1 16.95L10.25 16L10.1 16.4Q10.15 15.55 10.5 14.9L10.6 14.7Q7.35 14.8 5 16.8L3.6 18.25L4.6 16.4Q5.6 14.9 7.2 14Q9.5 12.75 11.7 12.6Q11.9 13.9 13.05 15.25Q15.65 18.25 19.35 17.6Q18.85 19.65 17.8 20.35Q16.55 21.1 16.3 21L16.05 20.85L16.35 20.45L16.9 19.3Q15.65 17.95 13.55 17.3L12.45 17.1L12.3 17.05Q10.85 17.85 10.45 19.55L10.45 19.7L10.35 20.5" />
<path style="fill:#ECFFFE;fill-opacity:1" d="M2.95,21.3L4.1 20.3Q6.75 18.55 9.5 19.65L9.55 20.1L9.55 20.3Q9 19.8 7.7 19.9Q6.35 20 5.6 20.4L4.35 21.25L3.25 23.05L3.1 23.4L2.95 21.3M15.3,20.4L13.05 19.9Q11.55 19.8 10.4 20.7L10.35 20.5L10.45 19.7L10.8 19.45L11.75 19.25Q14 19.1 15.3 20.4" />
<path style="fill:#074174;fill-opacity:1" d="M18,34.85L18.1 35.1L17.55 35.65L16.75 37.15Q16.4 38.1 16.75 39Q17.1 39.9 17.95 39.7L19.25 39.45Q19.7 39.35 20.55 40Q21.45 40.55 22.3 40.45Q23.2 40.4 23.55 39.9Q23.95 39.4 23.8 38.65Q23.65 38 24 37.35L24.15 37.15Q24.55 36.45 25.2 36.15L25.5 36.05L26.65 35.85L26.9 36.15L26.7 36.25L26.55 36.3L25.8 36.6L25.75 36.65Q24.55 37.35 24.5 38.9L24.5 39.2L24.5 39.85Q24.45 39.7 24.4 39.9L24.25 40.25L24.15 40.4L24.05 40.45L23.75 40.7L23.05 41Q22.6 41.2 21.65 41L20.1 40.45Q19.45 40 18.8 40.25L17.35 40.45Q16.6 40.35 16.15 39.25Q15.75 38.15 16.1 36.75Q16.45 35.4 17.3 35L17.95 34.85L18 34.85M29.55,34.95L29.5 35L29.3 35.2L29.2 35.3L29.1 35.45L28.4 36.8L27.95 36.45L27.85 36.4L28.05 35.5L28.3 35.25L28.7 34.6L28.55 34.4L28.25 34.3Q27.8 34.2 27.6 34.55L27.25 35.25L27.2 35.3Q27.1 35.55 27.05 35.3L27.05 35.25L27.1 34.3L26.25 34.05L23 34.2Q21.4 34.6 20.25 35.95L19.1 37.3L19.05 37.4L19 37.5L18.85 37.6L18.85 37.3L18.9 37.2L19 37.05L19.45 36.2L20.5 34.95L21.6 34.15Q23.45 33.1 24.8 33.15L26.8 33.4L27.55 33.8L28.6 33.6L29.45 33.95Q29.8 34.3 29.65 34.9L29.55 34.95" />
<path style="fill:#1D5BA1;fill-opacity:1" d="M26.9,36.15L26.65 35.85L25.5 36.05L25.2 36.15Q24.55 36.45 24.15 37.15L24 37.35Q23.65 38 23.8 38.65Q23.95 39.4 23.55 39.9Q23.2 40.4 22.3 40.45Q21.45 40.55 20.55 40Q19.7 39.35 19.25 39.45L17.95 39.7Q17.1 39.9 16.75 39Q16.4 38.1 16.75 37.15L17.55 35.65L18.1 35.1L18 34.85L17.95 34.85L18.55 34.75L20.5 34.95L19.45 36.2L19 37.05L18.9 37.2L18.85 37.3L18.85 37.6L19 37.5L19 37.6Q18.45 38.15 19.3 38.25L20.45 38.7L20.85 38.75Q20.85 38.6 21.15 38.4Q21.55 38.4 21.6 38.7L21.6 38.85L22.3 38.75L22.7 38.1L22.6 38.05Q22.8 37.55 23.15 37.15L24.05 36.4L24.4 35.9Q25 35.25 25.9 35.2L27.05 35.25L27.05 35.3Q27.1 35.55 27.2 35.3L27.55 35.35L27.9 34.8L28.55 34.4L28.7 34.6L28.3 35.25L28.05 35.5L27.85 36.4L27.5 36.3L27.1 36.15L26.9 36.15M18.3,38.3L18.1 37.9Q17.25 38.15 18.05 38.45L18.3 38.3M21.25,37.1L21.05 37.3Q20.2 37.25 21.05 36.65Q21.3 36.75 21.25 37.1" />
<path style="fill:#3680D2;fill-opacity:1" d="M25.9,35.2Q25 35.25 24.4 35.9L24.05 36.4L23.15 37.15Q22.8 37.55 22.6 38.05L22.7 38.1L22.3 38.75L21.6 38.85L21.6 38.7Q21.55 38.4 21.15 38.4Q20.85 38.6 20.85 38.75L20.45 38.7L19.3 38.25Q18.45 38.15 19 37.6L19 37.5L19.05 37.4L19.1 37.3L20.25 35.95Q21.4 34.6 23 34.2L26.25 34.05L27.1 34.3L27.05 35.25L25.9 35.2M27.9,34.8L27.55 35.35L27.2 35.3L27.25 35.25L27.6 34.55Q27.8 34.2 28.25 34.3L28.55 34.4L27.9 34.8M18.05,38.45Q17.25 38.15 18.1 37.9L18.3 38.3L18.05 38.45M22.5,35Q21.45 35.4 22.2 35.65L22.35 35.6L22.6 35.45Q23.65 36.1 23.85 34.95L23.7 34.55L23.4 34.35Q22.65 34.3 22.5 34.95L22.5 35M21.05,36.65Q20.2 37.25 21.05 37.3L21.25 37.1Q21.3 36.75 21.05 36.65M21.8,36.05Q21.3 36.6 22.05 36.4L22.1 36.25L21.8 36.05M25.05,34.9L25.35 34.8Q25.65 34.4 25.15 34.2Q24.1 34.55 25.05 34.9" />
<path style="fill:#FFFFFF;fill-opacity:1" d="M31.2,36.9Q30.15 36.6 30.65 36.05L31.35 36.75L31.2 36.9M28.25,38.65Q27.15 38.15 27.55 37.4L28.35 38.5L28.25 38.65" />
<path style="fill:#E0E6DA;fill-opacity:1" d="M31.35,36.75L30.65 36.05Q30.15 36.6 31.2 36.9L31.35 36.75M28.35,39.7L27.25 38.7Q26.6 37.85 26.55 36.65L26.6 36.65Q27.35 36.7 28.25 37.65Q29 38.45 29.15 39.55L28.85 39.65L28.35 39.7M29.7,35.85L29.85 35.6Q31.55 36.05 32.25 37.45L31.95 37.5Q31.05 37.35 30.4 36.75L29.7 35.85M28.35,38.5L27.55 37.4Q27.15 38.15 28.25 38.65L28.35 38.5" />
<path style="fill:#38465B;fill-opacity:1" d="M29.6,38.2Q31.35 38.85 32.5 37.95L32.3 37.55L32.25 37.45Q31.55 36.05 29.85 35.6L29.6 35.55L29.55 35.55L29.1 35.45L29.2 35.3L29.3 35.2L29.5 35L29.55 34.95L29.65 34.9L30.6 35.1L31.1 35.35Q32.3 36 33.15 37.6Q33.6 38.5 32.35 38.9L29.85 38.95L29.95 39.5L30.05 40.05L29.8 40.6L28.5 41.15L26.15 41.25Q24.75 41.1 24.15 40.4L24.25 40.25L24.4 39.9Q24.45 39.7 24.5 39.85Q26.6 41.45 29.2 40.15L29.2 40.1L29.15 39.55Q29 38.45 28.25 37.65Q27.35 36.7 26.6 36.65L26.55 36.65L26.4 36.6L25.8 36.6L26.55 36.3L26.7 36.25L26.9 36.15L27.1 36.15L27.5 36.3L27.85 36.4L27.95 36.45L28.4 36.8Q29.2 37.35 29.6 38.2" />
<path style="fill:#71BDF3;fill-opacity:1" d="M22.5,34.95Q22.65 34.3 23.4 34.35L23.7 34.55L23.85 34.95Q23.65 36.1 22.6 35.45L22.35 35.6L22.2 35.65Q21.45 35.4 22.5 35L22.5 34.95M22.1,36.25L22.05 36.4Q21.3 36.6 21.8 36.05L22.1 36.25M25.15,34.2Q25.65 34.4 25.35 34.8L25.05 34.9Q24.1 34.55 25.15 34.2" />
<path style="fill:#ACB0A2;fill-opacity:1" d="M29.2,40.1L29.2 40.15Q26.6 41.45 24.5 39.85L24.5 39.2L24.5 38.9Q24.9 39.6 25.8 39.95L27.6 40.3L29.2 40.1M27.25,38.7L28.35 39.7L27.35 39.65L26.2 39.25Q25.85 38.65 25.9 37.85Q26 37.1 26.4 36.6L26.55 36.65Q26.6 37.85 27.25 38.7M30.4,36.75Q31.05 37.35 31.95 37.5L30.65 37.4Q30 37.3 29.6 37Q29.4 36.35 29.7 35.85L30.4 36.75" />
<path style="fill:#717463;fill-opacity:1" d="M27.6,40.3L25.8 39.95Q24.9 39.6 24.5 38.9Q24.55 37.35 25.75 36.65L25.8 36.6L26.4 36.6Q26 37.1 25.9 37.85Q25.85 38.65 26.2 39.25L27.35 39.65L28.35 39.7L28.85 39.65L29.15 39.55L29.2 40.1L27.6 40.3M32.25,37.45L32.3 37.55L32.5 37.95Q31.35 38.85 29.6 38.2Q29.2 37.35 28.4 36.8L29.1 35.45L29.55 35.55L29.6 35.55L29.85 35.6L29.7 35.85Q29.4 36.35 29.6 37Q30 37.3 30.65 37.4L31.95 37.5L32.25 37.45" />
<path style="fill:#074174;fill-opacity:1" d="M21.1,23.4Q21.05 24.95 20.25 26.95Q19.4 29 18.4 29.9Q17.4 30.8 15.9 30.95Q14.45 31 14.1 28.7Q13.8 26.4 14.2 23.95Q14.65 21.5 16.05 20.6Q17.45 19.65 18.35 19.7Q19.3 19.8 19.45 20.05L19.45 20.15L17.7 20.45L17.5 20.5Q16.3 20.95 15.45 22.4Q14.65 23.8 14.65 27.1Q14.6 30.35 15.95 30.25Q17.25 30.15 18.3 28.9L18.9 28.25L19.9 26.1Q20.4 24.6 20.5 23.4L20.55 21.2L20.8 21.45Q21.2 21.8 21.1 23.4" />
<path style="fill:#3680D2;fill-opacity:1" d="M16.95,29.4L16 29.25Q15.2 29.25 16.45 28.15L16.45 28.05Q16.45 27.25 15.65 27L15.6 27.05L15.55 26.5Q15.4 25.5 15.8 23.7Q16.25 21.7 17.7 20.45L19.45 20.15L19.45 20.05Q20.4 20.4 20.8 21.45L20.55 21.2L20.5 23.4Q20.4 24.6 19.9 26.1L18.9 28.25L18.3 28.9L16.95 29.4M18.1,21.25L17.45 21.5L17.15 21.8L17.35 22Q17.75 22.1 18.9 23.15Q20 24.2 19.75 23.1Q19.5 22 19.05 21.6Q18.55 21.15 18.1 21.25M17.95,26.7L17.55 26.35Q16.45 27.25 17.85 27.05L17.95 26.7M18.35,25.15Q18.4 24.4 17.7 24.3Q16.25 25.3 17.95 25.55L18.35 25.15" />
<path style="fill:#71BDF3;fill-opacity:1" d="M19.05,21.6Q19.5 22 19.75 23.1Q20 24.2 18.9 23.15Q17.75 22.1 17.35 22L17.15 21.8L17.45 21.5L18.1 21.25Q18.55 21.15 19.05 21.6" />
<path style="fill:#1D5BA1;fill-opacity:1" d="M18.3,28.9Q17.25 30.15 15.95 30.25Q14.6 30.35 14.65 27.1Q14.65 23.8 15.45 22.4Q16.3 20.95 17.5 20.5L17.7 20.45Q16.25 21.7 15.8 23.7Q15.4 25.5 15.55 26.5L15.6 27.05L15.65 27Q16.45 27.25 16.45 28.05L16.45 28.15Q15.2 29.25 16 29.25L16.95 29.4L18.3 28.9M17.85,27.05Q16.45 27.25 17.55 26.35L17.95 26.7L17.85 27.05M17.95,25.55Q16.25 25.3 17.7 24.3Q18.4 24.4 18.35 25.15L17.95 25.55" />
<path style="fill:#3680D2;fill-opacity:1" d="M18.15,29L18.15 29.05L20.9 28Q23.25 26.95 25.9 28.05Q28.4 29 29.05 30.4L28.2 31.1L28.05 31.3Q27.45 32.25 27.4 33.5L26.05 33.1L25.4 32.5Q25.5 33.15 25.75 33.7L26.05 34.1Q26.9 34.2 27.65 34.6L27.85 34.7L27.65 34.8L27.45 34.9L26.45 35.5Q26.05 35.9 25.9 36.45L24.7 36.6L22.6 36.45L22.05 36.3L22.35 35.6L22.2 35.45L21.65 35.5L21.6 35.55L21.65 36.2L20.55 35.75L20.05 35.5L19.7 35.35L18.9 34.8L18.85 34.05L18.65 33.9L18.2 34L18.15 34.05L18.15 34.15L17.3 32.75Q16.45 32.65 15.8 32.05Q15.2 31.5 15.05 30.75L14.95 30.6Q14.3 31.75 14.4 29.95L14.5 29.9L14.75 29.9Q14.75 28.35 15.75 27.25L15.8 27.15L16.25 27.3L17.5 28.05L18.15 28.25L18.9 28.3L18.15 29M16.55,29.75Q16.9 29.35 16.45 29.15L15.95 29.2L15.85 29.25Q15.7 30.75 16.55 29.75M20.1,31.4Q20.4 31 19.95 30.75L19.35 30.95L19.3 30.95Q19.15 32.8 20.1 31.4M27.65,29.95L27.6 29.95Q26.3 30.35 26.5 31.75Q27.55 31.35 27.7 30.1L27.7 30L27.65 29.95M22.95,29.45L24.15 29.35L24.85 29.7L24.9 29.8L25.15 29.9Q25.25 29.95 25.35 29.8Q25.2 29 24.45 28.75L23.05 28.45L21.85 28.6Q20.45 28.65 19.5 29.6L21 29.8L21.65 29.2L22.95 29.45M22.2,33.15Q20.85 34.2 22.45 34.35Q22.85 34.4 22.8 33.85Q22.75 33.3 22.2 33.15M26.05,34.85L25.95 34.85Q25.1 35 25.4 35.8L26.1 35L26.1 34.95L26.05 34.85" />
<path style="fill:#1D5BA1;fill-opacity:1" d="M26.9,35.5L26.85 35.65L26.7 35.95L26.55 36.2L26.55 36.3L26.3 37.1L24.6 37.55L20.45 37.1Q17.95 36.3 16.6 34.4L15.1 32.55L13.85 31.7Q13.1 31.1 13.25 29.9Q13.4 28.6 13.7 28.35L14.5 27.7Q15 27.35 14.8 27.2L14.75 27.1L15.8 27.15L15.75 27.25Q14.75 28.35 14.75 29.9L14.5 29.9L14.4 29.95Q14.3 31.75 14.95 30.6L15.05 30.75Q15.2 31.5 15.8 32.05Q16.45 32.65 17.3 32.75L18.15 34.15L18.15 34.05L18.2 34L18.65 33.9L18.85 34.05L18.9 34.8L19.7 35.35L20.05 35.5L20.55 35.75L21.65 36.2L21.6 35.55L21.65 35.5L22.2 35.45L22.35 35.6L22.05 36.3L22.6 36.45L24.7 36.6L25.9 36.45Q26.05 35.9 26.45 35.5L27.45 34.9L26.9 35.5M27.85,34.7L27.65 34.6Q26.9 34.2 26.05 34.1L25.75 33.7Q25.5 33.15 25.4 32.5L26.05 33.1L27.4 33.5Q27.45 32.25 28.05 31.3L28.2 31.1L29.05 30.4L29.15 30.6L28.45 31.5L28.4 31.55Q28.1 31.95 28 32.7L27.9 33.55L27.9 34.7L27.85 34.7M15.85,29.25L15.95 29.2L16.45 29.15Q16.9 29.35 16.55 29.75Q15.7 30.75 15.85 29.25M19.3,30.95L19.35 30.95L19.95 30.75Q20.4 31 20.1 31.4Q19.15 32.8 19.3 30.95M22.8,33.85Q22.85 34.4 22.45 34.35Q20.85 34.2 22.2 33.15Q22.75 33.3 22.8 33.85" />
<path style="fill:#074174;fill-opacity:1" d="M26.95,37.2L26.95 37.3L26.85 37.5L26.45 37.9Q20.1 39.6 15.9 34.7Q14.95 33.15 14.25 32.9L13.3 32.35L12.95 31.9L12.6 31Q12.45 30.3 12.65 29.2Q12.85 28.05 13.7 27.4Q14.25 27.05 14.4 27.05L14.75 27.1L14.8 27.2Q15 27.35 14.5 27.7L13.7 28.35Q13.4 28.6 13.25 29.9Q13.1 31.1 13.85 31.7L15.1 32.55L16.6 34.4Q17.95 36.3 20.45 37.1L24.6 37.55L26.3 37.1L26.55 36.3L26.55 36.2L26.7 35.95L26.85 35.65L26.9 35.5L27.45 34.9L27.65 34.8L27.85 34.7L27.9 34.7L27.9 33.55L28 32.7Q28.1 31.95 28.4 31.55L28.45 31.5L29.15 30.6L29.05 30.4Q28.4 29 25.9 28.05Q23.25 26.95 20.9 28L18.15 29.05L18.15 29L18.9 28.3Q21.25 26.65 23.6 26.75Q26.45 26.85 27.9 28.1L29.65 29.9L30 30.5L30 30.6L29.9 30.7L29.35 31.35L29.25 31.5L28.9 32.25Q28.65 32.75 28.55 33.35L28.5 34.15L28.65 35.2Q28.2 35.25 27.9 35.45L27.35 35.9L27.1 36.5L26.95 37.2" />
<path style="fill:#38465B;fill-opacity:1" d="M29.9,30.7L30.25 30.75L30.4 30.75Q31.3 30.9 31.95 31.45L33.7 33.25L34 33.95Q34.05 34.5 33.15 34.9Q31.95 35.45 30.85 35.4L30.9 35.45L32 36.9L32.55 38L32.2 38.7L30.55 39.25L28.2 39Q27.1 38.7 26.45 37.9L26.85 37.5L26.95 37.3L26.95 37.2L27.15 37.45L27.6 37.9L28.45 38.25L30.05 38.45L31.15 38.3L31.6 38.1L31.6 38L31.55 37.85Q30.8 36.2 29.25 35.45L29.1 35.4L28.65 35.2L28.5 34.15Q28.75 34.45 29.3 34.5L31.95 34.45L33.1 34L33.15 34L33.1 33.9Q32.55 32.9 31.55 32.25Q30.7 31.7 29.65 31.55L29.45 31.5L29.25 31.5L29.35 31.35L29.9 30.7" />
<path style="fill:#717463;fill-opacity:1" d="M30.05,34.2L28.85 33.85L28.55 33.35Q28.65 32.75 28.9 32.25L29.25 31.5L29.45 31.5L29.65 31.55L29.6 31.7Q29.4 32.2 29.35 32.65L29.85 32.95Q31 33.6 32.4 33.85L33.1 33.9L33.15 34L33.1 34L31.95 34.45L30.05 34.2M27.1,36.5L27.35 35.9L27.9 35.45Q28.2 35.25 28.65 35.2L29.1 35.4L29.25 35.45L29.1 35.45Q28.65 35.55 28.35 36.05L28.3 36.15L28.9 36.8Q30.05 37.9 31.6 38L31.6 38.1L31.15 38.3Q29.4 38.3 28.1 37.45L27.9 37.35L27.1 36.5" />
<path style="fill:#FFFFFF;fill-opacity:1" d="M30.95,32.5L31 32.45L31.2 32.3Q31.8 32.5 31.9 33.05Q31.25 33.15 30.95 32.5M30.25,36.25L30.85 36.9L30.6 37.15L30.55 37.15L30 36.4L30.05 36.4L30.25 36.25" />
<path style="fill:#E0E6DA;fill-opacity:1" d="M29.6,31.7L29.65 31.55Q30.7 31.7 31.55 32.25Q32.55 32.9 33.1 33.9L32.4 33.85Q30.85 33.3 29.6 31.7M29.25,35.45Q30.8 36.2 31.55 37.85Q30.55 37.75 29.85 37Q29.25 36.35 29.1 35.45L29.25 35.45M31.9,33.05Q31.8 32.5 31.2 32.3L31 32.45L30.95 32.5Q31.25 33.15 31.9 33.05M30.05,36.4L30 36.4L30.55 37.15L30.6 37.15L30.85 36.9L30.25 36.25L30.05 36.4" />
<path style="fill:#71BDF3;fill-opacity:1" d="M27.7,30L27.7 30.1Q27.55 31.35 26.5 31.75Q26.3 30.35 27.6 29.95L27.65 29.95L27.7 30M21.65,29.2L21 29.8L19.5 29.6Q20.45 28.65 21.85 28.6L23.05 28.45L24.45 28.75Q25.2 29 25.35 29.8Q25.25 29.95 25.15 29.9L24.9 29.8L24.85 29.7L24.15 29.35L22.95 29.45L21.65 29.2M26.1,34.95L26.1 35L25.4 35.8Q25.1 35 25.95 34.85L26.05 34.85L26.1 34.95" />
<path style="fill:#ACB0A2;fill-opacity:1" d="M32.4,33.85Q31 33.6 29.85 32.95L29.35 32.65Q29.4 32.2 29.6 31.7Q30.85 33.3 32.4 33.85M28.55,33.35L28.85 33.85L30.05 34.2L31.95 34.45L29.3 34.5Q28.75 34.45 28.5 34.15L28.55 33.35M31.55,37.85L31.6 38Q30.05 37.9 28.9 36.8L28.3 36.15L28.35 36.05Q28.65 35.55 29.1 35.45Q29.25 36.35 29.85 37Q30.55 37.75 31.55 37.85M27.1,36.5L27.9 37.35L28.1 37.45Q29.4 38.3 31.15 38.3L30.05 38.45L28.45 38.25L27.6 37.9L27.15 37.45L26.95 37.2L27.1 36.5" />
</g>
</svg>
