<?xml version="1.0" encoding="utf-8"?>
<svg version="1.1" id="Layer_1"
xmlns="http://www.w3.org/2000/svg"
xmlns:xlink="http://www.w3.org/1999/xlink"
xmlns:author="http://www.sothink.com"
width="148px" height="91px"
xml:space="preserve">
<g id="754" transform="matrix(1, 0, 0, 1, 16.6, 17.3)">
<path style="fill:#F7E3CC;fill-opacity:1" d="M-16.6,-17.3L131.35 -17.3L131.35 62.1L65.9 62.1L57.25 73.4L48.7 62.1L40 62.1L40 62.15L-16.6 62.1L-16.6 51.55L-16.6 41.95L-16.6 41.2L-16.6 29.45L-16.6 24.4L-16.6 1.25L-16.6 -11.35L-16.6 -17.3" />
<path style="fill:#680B01;fill-opacity:1" d="M108.9,17.2L106.35 17.2L106.35 24.7L104.65 24.7L104.65 17.2L102.1 17.2L102.1 15.6L108.9 15.6L108.9 17.2M109.4,20.15Q109.4 18.7 110 17.65Q110.55 16.6 111.55 16Q112.6 15.4 113.9 15.4Q115.2 15.4 116.2 16Q117.2 16.6 117.8 17.65Q118.35 18.7 118.4 20.15Q118.35 21.6 117.8 22.65Q117.2 23.7 116.2 24.3Q115.2 24.9 113.9 24.9Q112.6 24.9 111.55 24.3Q110.55 23.7 110 22.65Q109.4 21.6 109.4 20.15M112.4,17.4Q111.85 17.8 111.55 18.5Q111.25 19.25 111.25 20.15Q111.25 21.05 111.55 21.75L112.4 22.9Q113 23.3 113.9 23.3Q114.8 23.3 115.35 22.9L116.25 21.75L116.55 20.15L116.25 18.5L115.35 17.4Q114.8 17 113.9 17Q113 17 112.4 17.4M90.55,15.6L90.55 20.8Q90.55 22.05 90.15 22.95Q89.7 23.85 88.9 24.4Q88.05 24.9 86.75 24.9L84.65 24.4Q83.8 23.85 83.4 22.95Q83 22.05 83 20.8L83 15.6L84.65 15.6L84.65 20.25Q84.65 21.1 84.8 21.8L85.45 22.85Q85.9 23.3 86.75 23.3Q87.65 23.3 88.1 22.85L88.7 21.8L88.85 20.25L88.85 15.6L90.55 15.6M81.05,22.65Q80.45 23.7 79.45 24.3Q78.45 24.9 77.15 24.9Q75.85 24.9 74.8 24.3Q73.8 23.7 73.25 22.65Q72.65 21.6 72.65 20.15Q72.65 18.7 73.25 17.65Q73.8 16.6 74.8 16Q75.85 15.4 77.15 15.4Q78.45 15.4 79.45 16Q80.45 16.6 81.05 17.65Q81.6 18.7 81.65 20.15Q81.6 21.6 81.05 22.65M97.45,15.8L98.15 16.1L97.95 17.8L96.6 17.2L95.3 17L94.55 17.1Q94.15 17.15 93.9 17.35Q93.65 17.6 93.65 17.95L93.9 18.55L94.55 18.95L95.45 19.3L96.55 19.65L97.6 20.15Q98.05 20.5 98.3 21L98.6 22.25L98.5 23.1L98 23.95Q97.65 24.35 96.95 24.6L95.1 24.9L93.25 24.7L92.1 24.2L92.25 22.3L93.35 23L95.15 23.3L96.3 23.05Q96.75 22.85 96.75 22.3L96.45 21.55Q96.15 21.25 95.7 21.05L94.65 20.65L93.35 20.2L92.35 19.45Q91.95 18.95 91.95 18.15L92.1 17.2L92.65 16.35Q93.05 15.9 93.7 15.65L95.25 15.4L96.45 15.55L97.45 15.8M83.25,35.55L83.25 37.9L87.5 37.9L87.5 39.5L81.55 39.5L81.55 30.4L87.35 30.4L87.35 32L83.25 32L83.25 33.95L86.45 33.95L86.45 35.55L83.25 35.55M89,40.95L88.65 40.75L89.1 39.65L88.65 39.5L88.65 37.8L90.25 37.8L90.25 39.5L89 40.95M81.7,47.4L80.35 46.8L79.05 46.6L78.3 46.7Q77.9 46.75 77.65 46.95L77.4 47.55L77.65 48.15L78.3 48.55L79.2 48.9L80.3 49.25L81.35 49.75L82.05 50.6L82.35 51.85L82.25 52.7L81.75 53.55Q81.4 53.95 80.7 54.2L78.85 54.5L77 54.3Q76.25 54.1 75.85 53.8L76 51.9L77.1 52.6L78.9 52.9L80.05 52.65Q80.5 52.45 80.5 51.9L80.2 51.15Q79.9 50.85 79.45 50.65L78.4 50.25L77.1 49.8Q76.5 49.5 76.1 49.05Q75.7 48.55 75.7 47.75Q75.7 47.3 75.85 46.8L76.4 45.95Q76.8 45.5 77.45 45.25L79 45L80.2 45.15L81.2 45.4L81.9 45.7L81.7 47.4M88.1,44.55L87.8 51.7L86.75 51.7L86.5 44.55L88.1 44.55M88.1,54.3L86.5 54.3L86.5 52.7L88.1 52.7L88.1 54.3M69.95,15.85Q70.7 16.1 71.1 16.65Q71.5 17.25 71.5 18.25L71.3 19.4L70.75 20.25L69.95 20.9L72 24.7L70.3 24.7L68.4 21.3L66.7 21.3L66.7 24.7L65.05 24.7L65.05 15.6L68.4 15.6L69.95 15.85M69.65,17.6L69.1 17.15L68 17L66.7 17L66.7 19.75L67.95 19.75L69.1 19.6L69.65 19.1L69.75 18.35L69.65 17.6M63.45,17.2L59.35 17.2L59.35 19.15L62.55 19.15L62.55 20.75L59.35 20.75L59.35 23.1L63.6 23.1L63.6 24.7L57.65 24.7L57.65 15.6L63.45 15.6L63.45 17.2M78.6,17.4Q78.05 17 77.15 17L75.65 17.4Q75.1 17.8 74.8 18.5Q74.5 19.25 74.5 20.15Q74.5 21.05 74.8 21.75Q75.1 22.5 75.65 22.9Q76.25 23.3 77.15 23.3Q78.05 23.3 78.6 22.9L79.5 21.75L79.8 20.15L79.5 18.5Q79.2 17.8 78.6 17.4M49.05,22.65Q48.45 21.6 48.45 20.15Q48.45 18.7 49.05 17.65Q49.6 16.6 50.65 16Q51.65 15.4 53 15.4L53.95 15.5L54.9 15.65L55.75 15.95L55.55 17.55L54.35 17.15L53.05 17Q52.1 17 51.5 17.4Q50.85 17.85 50.55 18.5Q50.3 19.2 50.3 20.1Q50.3 21.05 50.6 21.75Q50.9 22.45 51.55 22.85Q52.15 23.3 53.1 23.3L53.7 23.25L54.35 23.15L54.35 21.5L53.35 21.5L53.35 20.15L56 20.15L56 24.2L55.15 24.55L54 24.8L52.9 24.9Q51.6 24.9 50.6 24.3Q49.6 23.7 49.05 22.65M45.6,24.7L41.45 18.45L41.45 24.7L39.8 24.7L39.8 15.6L41.45 15.6L45.35 21.5L45.35 15.6L47 15.6L47 24.7L45.6 24.7M57.75,30.4L57.75 37.9L61.5 37.9L61.5 39.5L56.1 39.5L56.1 30.4L57.75 30.4M51.05,33.05L50.1 35.7L52 35.7L51.05 33.05M43.05,32.45Q43.6 33.5 43.65 34.95Q43.6 36.4 43.05 37.45Q42.45 38.5 41.45 39.1Q40.45 39.7 39.15 39.7Q37.85 39.7 36.8 39.1Q35.8 38.5 35.25 37.45Q34.65 36.4 34.65 34.95Q34.65 33.5 35.25 32.45Q35.8 31.4 36.8 30.8Q37.85 30.2 39.15 30.2Q40.45 30.2 41.45 30.8Q42.45 31.4 43.05 32.45M41.8,34.95L41.5 33.3Q41.2 32.6 40.6 32.2Q40.05 31.8 39.15 31.8Q38.25 31.8 37.65 32.2Q37.1 32.6 36.8 33.3Q36.5 34.05 36.5 34.95Q36.5 35.85 36.8 36.55Q37.1 37.3 37.65 37.7Q38.25 38.1 39.15 38.1Q40.05 38.1 40.6 37.7L41.5 36.55L41.8 34.95M47.05,39.5L50.3 30.4L51.85 30.4L55.1 39.5L53.35 39.5L52.6 37.3L49.55 37.3L48.75 39.5L47.05 39.5M43.4,47.4L42.05 46.8L40.75 46.6L40 46.7Q39.6 46.75 39.35 46.95Q39.1 47.2 39.1 47.55L39.35 48.15L40 48.55L40.9 48.9L42 49.25L43.05 49.75L43.75 50.6L44.05 51.85L43.95 52.7L43.45 53.55L42.4 54.2L40.55 54.5L38.7 54.3Q37.95 54.1 37.55 53.8L37.7 51.9Q38.1 52.3 38.8 52.6L40.6 52.9L41.75 52.65L42.2 51.9L41.9 51.15L41.15 50.65L40.1 50.25L38.8 49.8L37.8 49.05Q37.4 48.55 37.4 47.75L37.55 46.8Q37.75 46.35 38.1 45.95Q38.5 45.5 39.15 45.25L40.7 45L41.9 45.15L42.9 45.4L43.6 45.7L43.4 47.4M50.35,48.75L50.35 50.35L47.15 50.35L47.15 52.7L51.4 52.7L51.4 54.3L45.45 54.3L45.45 45.2L51.25 45.2L51.25 46.8L47.15 46.8L47.15 48.75L50.35 48.75M54.95,45.2L61.75 45.2L61.75 46.8L59.2 46.8L59.2 54.3L57.5 54.3L57.5 46.8L54.95 46.8L54.95 45.2M74,30.4L77.9 36.3L77.9 30.4L79.55 30.4L79.55 39.5L78.15 39.5L74 33.25L74 39.5L72.35 39.5L72.35 30.4L74 30.4M68.7,30.8Q69.7 31.4 70.3 32.45Q70.85 33.5 70.9 34.95Q70.85 36.4 70.3 37.45Q69.7 38.5 68.7 39.1Q67.7 39.7 66.4 39.7Q65.1 39.7 64.05 39.1Q63.05 38.5 62.5 37.45Q61.9 36.4 61.9 34.95Q61.9 33.5 62.5 32.45Q63.05 31.4 64.05 30.8Q65.1 30.2 66.4 30.2Q67.7 30.2 68.7 30.8M64.05,36.55Q64.35 37.3 64.9 37.7Q65.5 38.1 66.4 38.1Q67.3 38.1 67.85 37.7L68.75 36.55L69.05 34.95L68.75 33.3Q68.45 32.6 67.85 32.2Q67.3 31.8 66.4 31.8Q65.5 31.8 64.9 32.2Q64.35 32.6 64.05 33.3Q63.75 34.05 63.75 34.95Q63.75 35.85 64.05 36.55M64.6,45.2L64.6 48.75L68.9 48.75L68.9 45.2L70.55 45.2L70.55 54.3L68.9 54.3L68.9 50.35L64.6 50.35L64.6 54.3L62.95 54.3L62.95 45.2L64.6 45.2M74.2,45.2L74.2 54.3L72.55 54.3L72.55 45.2L74.2 45.2M28.25,16.15Q29.25 16.7 29.8 17.7Q30.4 18.7 30.4 20.15Q30.4 21.6 29.8 22.6L28.25 24.15Q27.2 24.7 25.9 24.7L22.5 24.7L22.5 15.6L25.9 15.6Q27.2 15.6 28.25 16.15M25.9,17.2L24.15 17.2L24.15 23.1L25.9 23.1Q27.25 23.1 27.9 22.3Q28.55 21.55 28.55 20.15Q28.55 18.75 27.9 18Q27.25 17.2 25.9 17.2M32.45,24.7L30.75 24.7L34 15.6L35.55 15.6L38.8 24.7L37.05 24.7L36.3 22.5L33.25 22.5L32.45 24.7M35.7,20.9L34.75 18.25L33.8 20.9L35.7 20.9M5.75,17.2L5.75 24.7L4.05 24.7L4.05 17.2L1.5 17.2L1.5 15.6L8.3 15.6L8.3 17.2L5.75 17.2M8.95,14.95L10.6 14.95L10.3 18.85L9.25 18.85L8.95 14.95M0.3,24.7L-1.35 24.7L-1.35 15.6L0.3 15.6L0.3 24.7M17.05,15.8L17.75 16.1L17.55 17.8L16.2 17.2L14.9 17L14.15 17.1Q13.75 17.15 13.5 17.35Q13.25 17.6 13.25 17.95L13.5 18.55L14.15 18.95L15.05 19.3L16.15 19.65L17.2 20.15L17.9 21L18.2 22.25L18.1 23.1L17.6 23.95Q17.25 24.35 16.55 24.6L14.7 24.9L12.85 24.7Q12.1 24.5 11.7 24.2L11.85 22.3L12.95 23L14.75 23.3L15.9 23.05Q16.35 22.85 16.35 22.3L16.05 21.55Q15.75 21.25 15.3 21.05L14.25 20.65L12.95 20.2L11.95 19.45Q11.55 18.95 11.55 18.15L11.7 17.2L12.25 16.35Q12.65 15.9 13.3 15.65L14.85 15.4L16.05 15.55L17.05 15.8M33.3,30.75L33.1 32.35L31.9 31.95L30.6 31.8Q29.65 31.8 29.05 32.2Q28.4 32.65 28.1 33.3Q27.85 34 27.85 34.9Q27.85 35.85 28.15 36.55Q28.45 37.25 29.1 37.65L30.65 38.1L31.25 38.05L31.9 37.95L31.9 36.3L30.9 36.3L30.9 34.95L33.55 34.95L33.55 39L32.7 39.35L31.55 39.6L30.45 39.7Q29.15 39.7 28.15 39.1Q27.15 38.5 26.6 37.45Q26 36.4 26 34.95Q26 33.5 26.6 32.45Q27.15 31.4 28.2 30.8Q29.2 30.2 30.55 30.2L31.5 30.3L32.45 30.45L33.3 30.75M30.1,45.2L30.1 49.85Q30.1 50.7 30.25 51.4L30.9 52.45Q31.35 52.9 32.2 52.9L33.55 52.45L34.15 51.4L34.3 49.85L34.3 45.2L36 45.2L36 50.4Q36 51.65 35.6 52.55Q35.15 53.45 34.35 54L32.2 54.5L30.1 54Q29.25 53.45 28.85 52.55Q28.45 51.65 28.45 50.4L28.45 45.2L30.1 45.2" />
<path style="fill:#95154D;fill-opacity:1" d="M2.85,-0.5L1.9 1.55L0.25 4.3L3.55 4.3L3.55 6.3L-3.3 6.3L-0.85 2.6L0.5 0.3L1.1 -1.05L1.2 -1.8Q1.2 -2.6 0.8 -3Q0.4 -3.4 -0.35 -3.4L-1.55 -3.1L-2.4 -2.4L-2.9 -1.7L-3.15 -3.55L-2.6 -4.2L-1.5 -4.85L0.1 -5.15Q1.25 -5.1 1.9 -4.65L2.9 -3.5L3.15 -2.1L2.85 -0.5M13,-3.2L11.35 -3.2L11.35 0.7L13.05 0.7Q14.15 0.7 14.65 0.25Q15.2 -0.2 15.15 -1.35L15 -2.4L14.35 -3L13 -3.2M17.25,-1.35Q17.25 -0.15 16.85 0.65L15.9 1.85L14.6 2.45L13.35 2.6L11.35 2.6L11.35 6.3L9.3 6.3L9.3 -4.9L12.45 -4.9L14.5 -4.8L16 -4.3L16.95 -3.2L17.25 -1.35M39.4,-0.5L42.1 -4.9L44.3 -4.9L40.4 1.35L40.4 6.3L38.35 6.3L38.35 1.35L34.5 -4.9L36.65 -4.9L39.4 -0.5M31.55,-4.9L35.55 6.3L33.4 6.3L32.45 3.6L28.75 3.6L27.8 6.3L25.65 6.3L29.65 -4.9L31.55 -4.9M20.9,-4.9L20.9 4.3L25.5 4.3L25.5 6.3L18.85 6.3L18.85 -4.9L20.9 -4.9M47.5,-0.55L51.4 -0.55L51.4 1.45L47.5 1.45L47.5 4.3L52.7 4.3L52.7 6.3L45.4 6.3L45.4 -4.9L52.55 -4.9L52.55 -2.9L47.5 -2.9L47.5 -0.55M56.55,-3.2L56.55 0.2L58.05 0.2L59.45 0L60.1 -0.6L60.3 -1.55L60.1 -2.4L59.45 -3L58.1 -3.2L56.55 -3.2M60.55,-4.6Q61.4 -4.3 61.9 -3.6Q62.4 -2.9 62.45 -1.65L62.15 -0.2L61.5 0.85L60.55 1.6L63.05 6.3L60.95 6.3L58.6 2.15L56.55 2.15L56.55 6.3L54.5 6.3L54.5 -4.9L58.6 -4.9L60.55 -4.6M77.9,-4.9L79.5 6.3L77.35 6.3L76.4 -1.2L73.5 3.95L70.65 -1.2L69.7 6.3L67.55 6.3L69.1 -4.9L70.8 -4.9L73.5 0.2L76.25 -4.9L77.9 -4.9M86.2,-3.15Q85.1 -3.15 84.35 -2.65Q83.65 -2.15 83.25 -1.3Q82.9 -0.45 82.9 0.7Q82.9 1.85 83.25 2.7Q83.65 3.55 84.35 4.05Q85.1 4.55 86.2 4.55Q87.25 4.55 88 4.05Q88.75 3.55 89.1 2.7Q89.45 1.85 89.45 0.7Q89.45 -0.45 89.1 -1.3Q88.75 -2.15 88 -2.65Q87.25 -3.15 86.2 -3.15M91,-2.4Q91.7 -1.05 91.7 0.7Q91.7 2.45 91 3.8Q90.25 5.1 89.05 5.8Q87.8 6.5 86.2 6.55Q84.55 6.5 83.35 5.8Q82.1 5.1 81.4 3.8Q80.7 2.45 80.65 0.7Q80.7 -1.05 81.4 -2.4Q82.1 -3.7 83.35 -4.4Q84.55 -5.1 86.2 -5.15Q87.8 -5.1 89.05 -4.4Q90.25 -3.7 91 -2.4M97.65,-2.95L95.55 -2.95L95.55 4.35L97.65 4.35Q99.3 4.3 100.15 3.35Q100.95 2.4 100.95 0.7Q100.95 -1 100.15 -1.95Q99.3 -2.9 97.65 -2.95M100.55,-4.25Q101.75 -3.55 102.5 -2.3Q103.2 -1.05 103.2 0.7Q103.2 2.45 102.5 3.7Q101.75 4.95 100.55 5.65Q99.3 6.3 97.65 6.3L93.5 6.3L93.5 -4.9L97.65 -4.9Q99.3 -4.9 100.55 -4.25M107.1,-0.55L111 -0.55L111 1.45L107.1 1.45L107.1 4.3L112.3 4.3L112.3 6.3L105 6.3L105 -4.9L112.15 -4.9L112.15 -2.9L107.1 -2.9L107.1 -0.55M119.45,-5.7L119.1 3.1L117.8 3.1L117.45 -5.7L119.45 -5.7M119.45,4.3L119.45 6.3L117.45 6.3L117.45 4.3L119.45 4.3M31.75,1.6L30.6 -1.65L29.45 1.6L31.75 1.6" />
</g>
</svg>
