<?xml version="1.0" encoding="utf-8"?>
<svg version="1.1" id="Layer_1"
xmlns="http://www.w3.org/2000/svg"
xmlns:xlink="http://www.w3.org/1999/xlink"
xmlns:author="http://www.sothink.com"
width="13px" height="13px"
xml:space="preserve">
<g id="258" transform="matrix(1, 0, 0, 1, 0.65, -10.15)">
<path style="fill:#4D3212;fill-opacity:1" d="M5,20.05L6.15 18.85L5.9 18.6L6.95 19.4L5.75 20.65L4.5 21.7Q2.9 23.05 2.05 22.65L0.35 21.4L0.25 21.3Q-0.65 20.35 -0.65 19.65Q-0.65 18.95 0.15 17.95L2 15.95L2.7 15.2L2.35 14.8L3.45 16.05L3.35 15.95L1.7 17.6Q0.8 18.45 0.55 19.2Q0.25 19.9 0.9 20.65L1 20.75L2.5 21.8Q3.15 21.8 4.35 20.65L5 20.05" />
<path style="fill:#9A7226;fill-opacity:1" d="M4.35,20.65Q3.15 21.8 2.5 21.8L1 20.75L0.9 20.65L0.95 20.6Q2.35 18.7 3.1 17.95Q3.45 18.7 5 20.05L4.35 20.65" />
<path style="fill:#745416;fill-opacity:1" d="M6.15,18.85L5 20.05Q3.45 18.7 3.1 17.95Q2.35 18.7 0.95 20.6L0.9 20.65Q0.25 19.9 0.55 19.2Q0.8 18.45 1.7 17.6L3.35 15.95L3.45 16.05L5.2 17.85L5.9 18.6L6.15 18.85" />
<path style="fill:#5F1000;fill-opacity:1" d="M3.9,12.25L3.35 12.9L2.75 13.55L5.4 16.3L7.4 18.3L8.85 19.6L9.35 19.3L10.45 18.25L10.7 17.95L10 17.2L9.35 16.5L7.7 14.75L7.6 14.7L6.2 13.2L4.6 11.6L4 12.15L3.9 12.25M5.9,18.6L5.2 17.85L3.45 16.05L2.35 14.8L1.4 13.75L1.55 13.4L2.35 12.35L3.45 11.1L4.35 10.15L5.65 11.25Q6.05 11.75 6.4 11.9L8.3 13.95L8.4 14.05L10.2 15.9L11.05 16.75L12.1 18.1L10.85 19.45L10.3 19.95Q9 21.15 8.7 20.9L7.15 19.6L6.95 19.4L5.9 18.6" />
<path style="fill:#791A1A;fill-opacity:1" d="M3.3,13.1L8.2 18.35L9.35 19.3L8.85 19.6L7.4 18.3L5.4 16.3L2.75 13.55L3.35 12.9L3.3 13.1" />
<path style="fill:#931A26;fill-opacity:1" d="M3.35,12.9L3.9 12.25L4 12.15L5.35 13.4L5.35 13.5L5.35 13.65L5.35 13.75L5.35 13.8L5.45 13.9L5.55 13.95L5.7 14.05L5.9 14L5.95 14L6.45 14.5L6.5 14.65L6.85 15L6.75 15.05L6.65 15.1L6.55 15.2L6.5 15.3L6.5 15.4L6.45 15.45L6.45 15.55L6.65 15.75L7.35 15.95L7.65 15.75L7.7 15.7L9.55 17.45L10.45 18.25L9.35 19.3L8.2 18.35L3.3 13.1L3.35 12.9M8.3,16.85L8.2 16.9L8.1 16.95L8.1 17.05L8.1 17.2L8.1 17.35L8.1 17.4L8.15 17.5L8.45 17.6L8.6 17.6L8.8 17.4L8.85 17.15L8.8 17L8.75 16.95L8.65 16.85L8.5 16.8L8.3 16.85" />
<path style="fill:#C23940;fill-opacity:1" d="M9.55,17.45L7.7 15.7L7.65 15.75L7.35 15.95L6.65 15.75L6.45 15.55L6.45 15.45L6.5 15.4L6.5 15.3L6.55 15.2L6.65 15.1L6.75 15.05L6.85 15L6.5 14.65L6.45 14.5L5.95 14L5.9 14L5.7 14.05L5.55 13.95L5.45 13.9L5.35 13.8L5.35 13.75L5.35 13.65L5.35 13.5L5.35 13.4L4 12.15L4.6 11.6L6.2 13.2L7.6 14.7L7.7 14.75L9.35 16.5L10 17.2L10.7 17.95L10.45 18.25L9.55 17.45M8.5,16.8L8.65 16.85L8.75 16.95L8.8 17L8.85 17.15L8.8 17.4L8.6 17.6L8.45 17.6L8.15 17.5L8.1 17.4L8.1 17.35L8.1 17.2L8.1 17.05L8.1 16.95L8.2 16.9L8.3 16.85L8.5 16.8" />
</g>
</svg>
