<?xml version="1.0" encoding="utf-8"?>
<svg version="1.1" id="Layer_1"
xmlns="http://www.w3.org/2000/svg"
xmlns:xlink="http://www.w3.org/1999/xlink"
xmlns:author="http://www.sothink.com"
width="43px" height="52px"
xml:space="preserve">
<g id="553" transform="matrix(1, 0, 0, 1, 0, -5.05)">
<path style="fill:#10100B;fill-opacity:1" d="M42.05,11.35L42 10.25L41.9 10L41.9 9.95Q41.8 9.3 41.3 8.6L40.7 8L40.5 8.75L40.05 10.15L40.75 10.15Q41.55 10.45 42.05 11.35M40.85,13.45L41.45 12.95Q42.05 12.25 41.8 11.8Q41.5 11.15 41 10.85L40.55 10.65L40.1 10.65Q39.75 10.7 39.5 10.95L39.2 11.35L38.8 11L38.8 10.95L38.9 10.9Q39.6 10.25 39.8 8.85L40.15 7.9L40.5 7.45L41.2 7.5L41.6 7.9L41.85 8.25Q42.8 9.75 42.75 10.95Q42.65 12.3 42.15 13.05L41.15 14L40.85 13.45M25.25,20.5Q24.95 20.35 24.65 20.65L24.3 20.25L23.85 20.9L23.75 21.05L23.65 21.2L23.65 20L23.85 19.8L24.2 19.55Q24.6 19.5 24.9 19.8L25.3 20.5L25.25 20.5" />
<path style="fill:#645D4C;fill-opacity:1" d="M41.15,9.15L40.75 10.15L40.05 10.15L40.5 8.75L40.7 8L41.3 8.6Q41.8 9.3 41.9 9.95L41.9 10L41.15 9.15M39.5,10.95Q39.75 10.7 40.1 10.65L40.55 10.65L40.15 11.2L39.5 10.95M24.75,6.65L24.75 6.55L24.55 6.3L24.35 6.55L24.25 7.5L24.3 7.9L24.25 7.9L23.7 8Q23.7 7.15 23.85 6.35L24.3 5.95Q24.9 5.5 24.9 5.7L24.95 6.1L24.95 6.9L25.05 7.6L24.8 7.75L24.75 6.65M24.9,9.55L25.2 9.8Q25.7 9.9 25.2 9.25L24.75 8.3L24.8 8.3L25 8.2L25.15 8.05L25.25 8.5Q25.5 9.2 26.1 9.85L25.95 10.55L25.9 10.65L25.55 11.25L25.4 11.45L25.2 11.35L24.65 10.7L24.5 10.55Q23.95 9.85 23.85 9.2L23.8 8.4L24.2 8.4L24.9 9.55M23.4,12L23.05 11.95L22.85 11.7Q22.55 10.95 22.55 10.25Q22.55 9.55 22.7 8.95L22.75 9.15Q22.8 10.3 23.15 11.4L23.4 12M27.9,11.9L26.4 11.95L26.2 11.9L26.05 11.85L25.75 11.65L26.5 10.15L26.6 10.15L27.1 10.45L27.35 10.6L27.4 10.6L27.65 10.8L27.75 10.9L28.05 11.65L28.05 11.8L27.9 11.9M26.85,13.5L26.65 13.65L26.15 13.8L25.9 13.8L24.9 13.7L24.25 13.5L24.2 13.45L24.15 13.45L24.1 13.4L23.65 13L23.6 12.95L23.25 12.4L23.7 12.45L23.75 12.55L24.15 13L24.25 13.05L24.5 13.2L24.7 13.25L25 13.4L25.15 13.4L25.7 13.6L26.15 13.65L26.55 13.6L26.65 13.6L26.85 13.5M23.7,22.15L23.65 21.5L23.65 21.2L23.75 21.05L23.85 20.9L24.3 20.25L24.65 20.65L24.35 21L23.7 22.15M10.2,18.75L10.65 18.25Q10.9 18.05 11.05 18L11.3 17.95L11.35 18.4L11.35 19.25L11.35 19.5L11.4 19.7L11.45 20.1L11.1 20.25L11.2 19.1L11.2 19.05L11.2 19L11.15 18.85L10.9 18.65L10.65 18.95L10.6 19.9L10.65 20.4L10.55 20.45L10.05 20.5L10.05 20.15L10.15 18.75L10.2 18.75M11.1,20.8L11.35 20.7L11.4 20.7L11.55 20.6L11.6 20.8L12.05 21.85L12.1 21.95L12.55 22.6L12.35 23.45L12.15 23.9L11.8 24.3L11.25 23.8L10.95 23.45Q10.3 22.65 10.15 21.9L10.1 21.4L10.05 21L10.1 21L10.55 20.95L10.75 21.45L11.05 22L11.55 22.45L11.65 22.5L11.7 22.5Q12.05 22.5 11.6 21.8L11.1 20.85L11.1 20.8M9.65,24.95L9.25 24.9L9 24.55L8.95 24.4L8.7 23.2L8.7 23.05L8.8 21.95L8.9 21.55L8.9 21.5L8.95 21.8L8.95 22.05L9 22.55L9 22.6L9.1 23.3L9.35 24.2L9.55 24.65L9.65 24.95M12.65,24L12.95 22.85L13.15 22.9L13.6 23.15L13.7 23.2L14.15 23.55L14.35 23.75L14.6 24.15L14.65 24.5L14.65 24.7L14.3 24.85L13.95 24.95L13.6 24.95L13.45 24.95L13.2 24.95L12.9 24.85L12.8 24.85L12.2 24.6L12.2 24.55L12.65 24M9.95,25.45Q10.6 26.25 11.75 26.6L11.9 26.6L13.05 26.65L13.15 26.65L13.4 26.6L13.2 26.75L12.35 26.95L12.2 26.95L11.35 26.9L10.65 26.6L10.4 26.45L10 26.15L9.45 25.4L9.95 25.45M15.1,44.4L14.85 44.7L15.4 44.4L15.45 44.75L15.3 45.2L15.25 45.3L14.7 45.15L13.6 44.5L13.9 44L14.05 43.85L15.1 44.4M29.55,32.45L28.95 32.25L28.85 32.25L28.7 31.3L28.65 31.05Q28.5 30.6 28.6 30.05Q27.9 29.95 28.3 29.65L29.15 29.9L29.2 29.9Q29.1 30.15 29.15 30.45L29.15 30.5L29.65 30L29.85 30L30.05 30.45L29.55 32.45M29,28.7L29.6 29.05L29.75 29.65L29.6 29.65L29.55 29.55L29.45 29.6L29.2 29.55L28.75 29.45Q28.8 29.1 29 28.7M30.45,29.25L30.3 29.65L30.1 29.65L30.05 29.35L30.05 29.15L30.45 29.25M29.25,31.75Q29.8 31.4 29.55 30.6Q29.05 31.05 29.2 31.7L29.25 31.75M27.55,44.3L28 43.6L28.1 43.3Q28.8 42.65 28.6 41.7Q27.85 41.75 28.5 41.3Q28.05 40.6 28.4 40.6L28.85 40.55L29.25 40.5Q29.95 41.55 30 42.85Q30.05 43.75 29.65 44.45L27.85 44.6L27.55 44.3M27.8,48.25L27.7 48.9Q27.6 50.05 27.9 51.95Q28.1 53.35 28.4 54.2Q28.35 55.05 26.95 54.6Q27.3 52.8 27.15 51.2L27.15 50.75L26.85 50.7L26.8 50.65Q26.75 50.25 27.1 50.15L26.9 48.7L26.75 48.15L27.35 48.1L27.8 48.25M29.15,42.55Q28.85 43.8 29.35 43.6Q29.85 43.4 29.65 42.35Q29.45 41.35 29.15 42.55M27.45,53.95L27.45 54L27.75 54Q28 53.65 27.65 53.45Q27.35 53.6 27.45 53.95M27.3,54.9L27.6 55.2Q27.4 55.5 27.05 55.3L27.05 55.2L27.1 54.95L27.15 54.9L27.3 54.9" />
<path style="fill:#38382E;fill-opacity:1" d="M41.9,10L42 10.25L42.05 11.35Q41.55 10.45 40.75 10.15L41.15 9.15L41.9 10M40.25,12.55L39.2 11.35L39.5 10.95L40.15 11.2L40.55 10.65L41 10.85Q41.5 11.15 41.8 11.8Q42.05 12.25 41.45 12.95L40.85 13.45L40.25 12.55M23.85,6.35Q23.7 7.15 23.7 8L23.05 7.85L23.85 6.35M25.4,11.45L25 11.65L24.75 11.75L23.95 12L23.4 12L23.15 11.4Q22.8 10.3 22.75 9.15L22.7 8.95L22.7 8.9L22.9 8.25L22.9 8.2L23.7 8.4L23.8 8.4L23.85 9.2Q23.95 9.85 24.5 10.55L24.65 10.7L25.2 11.35L25.4 11.45M26.65,13.6L26.55 13.6L26.15 13.65L25.7 13.6L25.15 13.4L25 13.4L24.7 13.25L24.5 13.2L24.25 13.05L24.15 13L23.75 12.55L23.7 12.45L23.8 12.5L24.55 12.35L25.4 11.85L25.75 11.7L25.75 11.65L26.05 11.85L26.2 11.9L26.4 11.95L27.9 11.9L28.05 11.8Q28.1 12.35 27.5 12.95L27.35 13.05L26.85 13.5L26.65 13.6M28.75,29.45L28 29.15L28.1 28.8L28.75 27.4L29 27.5L29.65 27.75L29.55 28.35L29.6 29.05L29 28.7Q28.8 29.1 28.75 29.45M30.05,29.15L30 27.95L30.05 27.9L30.55 28.05L30.85 28.1L30.45 29.25L30.05 29.15M9.25,20.35L9.75 19.4L10.15 18.75L10.05 20.15L10.05 20.5L9.25 20.35M10.1,21.4L10.15 21.9Q10.3 22.65 10.95 23.45L11.25 23.8L11.8 24.3L11.15 24.65L10.55 24.9L9.65 24.95L9.55 24.65L9.35 24.2L9.1 23.3L9 22.6L9 22.55L8.95 22.05L8.95 21.8L8.9 21.5L8.95 21.3L9.05 21L9.1 20.75L9.1 20.7Q9.25 20.9 9.95 20.95L9.95 21L10.05 21L10.1 21.4M14.65,25.1L14.55 25.35L14.45 25.6L14.25 25.9L14.1 26.05L14 26.15L13.8 26.4L13.65 26.5L13.4 26.6L13.15 26.65L13.05 26.65L11.9 26.6L11.75 26.6Q10.6 26.25 9.95 25.45L10.05 25.45L10.2 25.45L11.45 25.05L11.8 24.8L12.2 24.55L12.2 24.6L12.8 24.85L12.9 24.85L13.2 24.95L13.45 24.95L13.6 24.95L13.95 24.95L14.3 24.85L14.65 24.7L14.65 25.1M9.3,40.4L9.1 40.75L8.9 41.25L8.45 40.5L8.35 40.35L8.9 40.15Q9.2 40.1 9.3 40.4M14.55,43.55L14.05 43.85L13.9 44L13.6 44.5L14.7 45.15L15.25 45.3L15.35 45.3L15.65 45.35L15.55 45.5L15.35 45.65Q15 45.3 14.45 45.25L13.6 45.35L12.7 44.25L11.75 43.75L12.05 43.3L12.5 42.55L14.55 43.55M27.95,31.1Q27.8 30.2 27.95 29.45L28.3 29.65Q27.9 29.95 28.6 30.05Q28.5 30.6 28.65 31.05L28.7 31.3L28.85 32.25L28.15 32.15L27.95 31.1M28.85,40.55L28.4 40.6Q28.05 40.6 28.5 41.3Q27.85 41.75 28.6 41.7Q28.8 42.65 28.1 43.3Q28.2 42.7 27.8 41.75Q27.35 40.5 27.35 39.8L27.35 39.75L27.35 39.45L27.8 39.55L28.7 39.5L28.85 39.5L28.9 39.75L29.2 40.4L29.25 40.5L28.85 40.55M29.15,30.5L29.15 30.45Q29.1 30.15 29.2 29.9L29.65 30L29.15 30.5M29.55,29.55L29.6 29.65L29.45 29.6L29.55 29.55M27.35,48.1L26.75 48.15L26.9 48.7L27.1 50.15Q26.75 50.25 26.8 50.65L26.85 50.7L27.15 50.75L27.15 51.2Q27.3 52.8 26.95 54.6Q28.35 55.05 28.4 54.2L28.6 54.75Q29.05 55.6 27.8 55.7Q26.5 55.75 26.45 55.2L26.55 53.95L26.55 53.85L26.7 53L26.6 50.55L26.35 48L26.35 47.9Q26.25 46.8 26.5 46.05L26.55 46L26.8 45.35L27.25 44.75L27.55 44.3L27.85 44.6L29.65 44.45L29.25 45.05L29 45.35L28.95 45.35Q28.35 46.15 28.1 46.85L27.8 48.2L27.8 48.25L27.35 48.1M27.65,53.45Q28 53.65 27.75 54L27.45 54L27.45 53.95Q27.35 53.6 27.65 53.45M27.15,54.9L27.1 54.95L27.05 55.2L27.05 55.3Q27.4 55.5 27.6 55.2L27.3 54.9L27.15 54.9" />
<path style="fill:#625643;fill-opacity:1" d="M40.85,13.45L41.15 14Q41.6 15.1 41.55 16.25L41.55 16.35Q41.45 18.2 39.7 19.85L39.3 20.1Q38.95 20.25 38.85 20.35L38.8 20.5L38.2 23.4L37.5 23.35L37.5 23.2L37.7 21.85L37.85 20.85Q38.05 20.05 38.3 19.8Q38.4 19.7 38.45 19.7Q39.95 19.05 40.4 18.1L40.5 17.8L40.9 16.15Q40.9 15.45 40.5 14.45L40.6 14.5L40.5 14.4L40.45 14.25L40.45 14.2L40.4 14.15L40.3 14L40.3 13.95L40.05 13.55L38.8 11.9L38.4 11.55L38.15 11.35L38 11.25L37.4 9.95L38.8 11L39.2 11.35L40.25 12.55L40.85 13.45M29.8,9.45Q28.75 9.7 27.85 10.25L27.65 10.15L26.9 9.8Q28.7 8.55 31.45 8.35L31.95 8.35Q32.85 8.65 33.5 9.45L32.3 9.25L29.8 9.45M36.05,9.25L35.85 9.15L36.55 9.45L36.05 9.25M33.1,22.55L33.05 22.95L32.95 23.65L32.9 23.8L32.05 23.7L32.05 23.55L32.05 23.1L32.1 22.8Q32.25 21.85 32.7 21.05L32.95 20.7L33.1 21.05L33.1 22.55M36.05,23.15L36 24L35.95 24.05L35.25 24.1L35 23.85L35.1 23.2L35.1 23.15Q35.25 22.25 35.7 21.45L35.9 21.1L36.1 21.15L36.1 21.35L36.1 21.45L36.05 23.15" />
<path style="fill:#D4D0C5;fill-opacity:1" d="M40.3,16.8L40.4 16.8Q40.7 16.9 40.6 16.6Q40.3 15.9 39.4 16L39.3 16.1Q38.7 15.85 37.8 16.4L36.65 17.15L36.45 16.35L39.35 14.4L38.25 13.95L38.3 13.05L38.3 12.65L38.3 12.35L38.75 12.7L39.6 13.4L40.3 14.2L40.45 14.4L40.5 14.45L40.45 14.3L40.45 14.25L40.5 14.4L40.6 14.5L40.5 14.45Q40.9 15.45 40.9 16.15L40.5 17.8L40.4 18.1L40.3 16.8M29.9,17.4Q31.15 18.65 32.8 18.75Q32.75 19.35 33.5 19.8Q35 21.45 37.1 20L37.25 19.65L38.3 19.8Q38.05 20.05 37.85 20.85L37.4 20.95L37.05 23.35L36.95 23.4L36.75 23.4L36.7 23.35L36.65 23.3Q36.15 23.45 36.3 23.15L36.55 22.7L36.45 21.45L36.1 21.45L36.1 21.35L36.1 21.15L35.9 21.1L35.7 21.45Q35.3 21.6 34.95 22.1Q34.7 22.5 34.6 23L34.5 23.35L34.4 23.5L34.3 23.65L34.15 23.65L34.05 23.65L33.75 23.5L33.7 23.5L33.7 23.45L33.5 23.4L33.5 23.25L33.75 21.2L33.3 21L33.25 21Q33.2 20.95 33.1 21.05L32.95 20.7L32.7 21.05L32.15 20.65L31.55 22.9L30.8 22.65Q30.75 22.5 30.85 22.4L30.95 22.35L30.95 22.3L31.1 21.15Q30.05 21.2 31.1 20.5L31.2 20.5L31.3 19.55L30.65 19.45L30.55 19.55Q30.35 19.35 30.15 19.55L30 19.7L29 19.35L28.9 19.5L28.45 19.65Q27.65 19.35 28.2 18.95L28.1 18.9Q27.55 18.8 27.65 18.55L27.45 18.45L27.05 18.05L27.15 18.05Q27.6 17.95 27.25 17.7L26.9 17.55L26.8 17.6L26.45 16.5L26.55 16.4Q26.9 15.7 26.35 15.45L26.3 15.45Q27.6 15.2 28.3 13.8Q28.9 12.55 28.5 11.6L28.5 11.45L28.15 10.55L29.65 10.15L32.1 10.05L32.9 10.25L33.85 10.65L34.2 10.85L34.3 10.9L34.5 11.5L34.6 11.95L34.6 12L34.7 12.5L34.75 12.95L33 12.15L36.05 16.3L35.95 16.45L35.75 16.5L35.25 16.1Q34.5 16.05 34.8 15.7L34.65 15.55L34.6 15.3L34.45 15.2L34.4 15.2L34.25 14.75L34.45 14.7Q34.7 14.65 34.5 14.35Q34.4 14.2 34.25 14.2L34.1 14.35L34.05 14.15Q33.85 13.15 32.9 12.8L31.1 12.9L30.45 12.8Q28.45 13.05 28.65 14.65L28.75 14.65L29.2 14.2Q28.65 16.1 29.9 17.4M31.8,11.2L31.55 11Q30.45 11.7 31.65 11.55L31.8 11.2M29,17.65Q27.95 18.45 29.25 18.2L29.35 17.95L29 17.65M27.9,16.2Q27.25 16.95 28.1 16.4L28 16.25L27.9 16.2M34.35,21.55Q33.5 22.25 34.45 22L34.6 21.75L34.45 21.6L34.35 21.55M32.2,19.8L32.35 19.6Q32.4 19.15 32.05 19.05Q31.45 19.45 31.6 19.65L31.65 19.7L32.2 19.8M37.05,20.95L36.8 20.75Q36 21.45 37 21.15L37.05 20.95" />
<path style="fill:#B3A38A;fill-opacity:1" d="M40.4,18.1Q39.95 19.05 38.45 19.7Q38.4 19.7 38.3 19.8L37.25 19.65L37.1 20Q35 21.45 33.5 19.8Q32.75 19.35 32.8 18.75Q31.15 18.65 29.9 17.4Q28.65 16.1 29.2 14.2Q29.6 13.8 30 13.7Q29.2 14.9 30.2 16.55Q31.15 17.95 32.45 17.85L33.7 17.5Q34.5 18 34.9 17.85L35.15 17.85Q34.95 17.9 35.2 18.4Q35.45 18.9 36.15 18.95Q36.85 19 37.55 18.5L37.55 18.6L37.7 18.85Q37.75 18.95 37.95 18.95Q38.9 18.9 39.35 18.5Q39.9 18 39.75 17.15L39.6 16.8L40.3 16.8L40.4 18.1M37.5,23.2L37.5 23.35L37.45 23.85L36.95 24L36 24.2L35.95 24.2L36 24.15L36 24L36.05 23.15L36.1 21.45L36.45 21.45L36.55 22.7L36.3 23.15Q36.15 23.45 36.65 23.3L36.7 23.35L36.75 23.4L36.95 23.4L37.05 23.35L37.3 23.3L37.5 23.2M31.65,11.55Q30.45 11.7 31.55 11L31.8 11.2L31.65 11.55M24.75,14.25L25.95 14.4Q26.8 14.45 27.4 13.85L28.05 13.2L28.2 12.95Q28.6 12.25 28.5 11.6Q28.9 12.55 28.3 13.8Q27.6 15.2 26.3 15.45L26.35 15.45Q26.9 15.7 26.55 16.4L26.45 16.5L26.8 17.6L26.9 17.55L27.25 17.7Q27.6 17.95 27.15 18.05L27.05 18.05L27.45 18.45L27.65 18.55Q27.55 18.8 28.1 18.9L28.2 18.95Q27.65 19.35 28.45 19.65L28.9 19.5L29 19.35L30 19.7L29.6 20.25Q29.2 20.7 27.7 19.8L27.35 19.55L27.1 19.4Q26.05 18.65 25.6 17.9L25.55 17.8Q24.9 16.8 24.75 16Q24.55 15.2 24.7 14.3L24.75 14.25M32.05,23.1L32.05 23.55L32.05 23.7L31.85 23.85L30.55 23.45L30.2 23.3L30.2 23.1L30.25 22.8L30.25 22.35L30.35 21.95L30.6 19.6L30.55 19.55L30.65 19.45L31.3 19.55L31.2 20.5L31.1 20.5Q30.05 21.2 31.1 21.15L30.95 22.3L30.95 22.35L30.85 22.4Q30.75 22.5 30.8 22.65L31.55 22.9L32.05 23.1M35.1,23.2L35 23.85L34.95 24.25L34.7 24.25L33.25 24.2L32.85 24.05L32.85 24L32.9 23.8L32.95 23.65L33.05 22.95L33.1 22.55L33.1 21.05Q33.2 20.95 33.25 21L33.3 21L33.75 21.2L33.5 23.25L33.5 23.4L33.7 23.45L33.7 23.5L33.75 23.5L34.05 23.65L34.15 23.65L34.3 23.65L34.4 23.5L34.5 23.35L35.1 23.2M31.1,12.9L32.9 12.8Q33.85 13.15 34.05 14.15L34.1 14.35L34.25 14.2Q34.4 14.2 34.5 14.35Q34.7 14.65 34.45 14.7L34.25 14.75L34.4 15.2L34.45 15.2L34.6 15.3L34.65 15.55L34.8 15.7Q34.5 16.05 35.25 16.1L35.75 16.5L35.95 16.45L35.85 16.6L35.9 16.6L35.8 16.65L35.65 16.8L35.25 17.05Q34.85 17.1 34.2 16.6Q33.25 15.85 33 14.4Q32.75 13.15 31.1 12.9M37.8,16.4Q38.7 15.85 39.3 16.1Q37.85 16.8 37.55 17.5Q37.25 18.25 36.25 18.1L36.65 17.15L37.8 16.4M26.4,15.05L26.25 15.05L26.25 15.1L26.4 15.05M25.55,15.7Q24.65 16.4 25.75 16.15Q26 16.1 25.8 15.8L25.55 15.7M29.35,17.95L29.25 18.2Q27.95 18.45 29 17.65L29.35 17.95M28,16.25L28.1 16.4Q27.25 16.95 27.9 16.2L28 16.25M34.45,21.6L34.6 21.75L34.45 22Q33.5 22.25 34.35 21.55L34.45 21.6M31.65,19.7L31.6 19.65Q31.45 19.45 32.05 19.05Q32.4 19.15 32.35 19.6L32.2 19.8L31.65 19.7M37,21.15Q36 21.45 36.8 20.75L37.05 20.95L37 21.15" />
<path style="fill:#F5F4EA;fill-opacity:1" d="M37.3,23.3L37.05 23.35L37.4 20.95L37.85 20.85L37.7 21.85L37.5 23.2L37.3 23.3M27.9,10.3Q28.75 9.75 29.8 9.5L32.3 9.25L33.5 9.45L34.3 10.9L34.2 10.85L33.85 10.65L32.9 10.25L32.1 10.05L29.65 10.15L28.15 10.55L27.9 10.3M32.05,23.1L31.55 22.9L32.15 20.65L32.7 21.05Q32.25 21.85 32.1 22.8L32.05 23.1M35.1,23.2L34.5 23.35L34.6 23Q34.7 22.5 34.95 22.1Q35.3 21.6 35.7 21.45Q35.25 22.25 35.1 23.15L35.1 23.2M34.7,12.5L34.6 12L34.6 11.95L34.7 12.5M40.45,14.3L40.5 14.45L40.45 14.4L40.3 14.2L39.6 13.4L38.75 12.7L38.3 12.35L38 11.25L38.15 11.35L38.4 11.55L38.8 11.9L40.05 13.55L40.3 13.95L40.3 14L40.4 14.15L40.45 14.2L40.45 14.25L40.45 14.3" />
<path style="fill:#6CA7DB;fill-opacity:1" d="M37.65,14.95L36.7 15.05L36.95 13.4L36.95 13.3L36.85 12L35.25 11.3L34.45 9.7L34.7 9.75L36.85 10.55L37.35 10.75L37.4 10.85L37.55 11.45L37.75 12.25L37.75 12.4Q37.85 13.45 37.6 14.2L38.35 14.5L37.75 14.9L37.65 14.95" />
<path style="fill:#1B3862;fill-opacity:1" d="M36.55,9.45L37.35 9.85L37.4 9.95L38 11.25L38.3 12.35L38.3 12.65L38.3 13.05L38.25 13.95L39.35 14.4L36.45 16.35L36.2 16.5L36.05 16.3L33 12.15L34.75 12.95L34.7 12.5L34.6 11.95L34.5 11.5L34.3 10.9L33.5 9.45Q32.85 8.65 31.95 8.35L33.1 8.4L35.45 9L35.75 9.15L35.85 9.15L36.05 9.25L36.55 9.45M35.3,11.6L35.55 13.35L35.55 13.4L35.5 13.7L34.45 13.35L36.3 15.8L37.75 14.9L38.35 14.5L37.6 14.2Q37.85 13.45 37.75 12.4L37.75 12.25L37.55 11.45L37.4 10.85L37.35 10.75L36.85 10.55L34.7 9.75L34.45 9.7L35.25 11.3L35.3 11.6" />
<path style="fill:#295BB4;fill-opacity:1" d="M35.25,11.3L36.85 12L36.95 13.3L36.95 13.4L36.7 15.05L37.65 14.95L37.75 14.9L36.3 15.8L34.45 13.35L35.5 13.7L35.55 13.4L35.55 13.35L35.3 11.6L35.25 11.3" />
<path style="fill:#202017;fill-opacity:1" d="M28,43.6L27.55 44.3L27.25 44.75L26.8 45.35L26.55 46L26.5 46.05Q26.25 46.8 26.35 47.9L26.35 48L26.6 50.55L26.7 53L26.55 53.85L26.55 53.95L26.45 55.2Q26.5 55.75 27.8 55.7Q29.05 55.6 28.6 54.75L28.4 54.2Q28.1 53.35 27.9 51.95Q27.6 50.05 27.7 48.9L27.8 48.25L27.8 48.2L28.1 46.85Q28.35 46.15 28.95 45.35L29 45.35L29.25 45.05L29.65 44.45Q30.05 43.75 30 42.85Q29.95 41.55 29.25 40.5L29.2 40.4L28.9 39.75L28.85 39.5L29.55 39.3L29.65 39.75L29.8 39.9L29.95 40.2L30.6 42.15L30.6 43.85L30.6 44L29.9 45.35L29.4 46Q28.55 47.1 28.35 48.4L28.3 48.85L28.4 51.35L28.75 52.95L29.25 54.4L29.4 55.65Q29.25 56.15 28.55 56.35L27.45 56.5L26.55 56.3L25.85 55.75Q25.65 55.3 25.75 54.75L25.95 53.6L26.05 52.05L25.75 49.15L25.65 48.35Q25.55 46.85 25.8 45.95L26 45.35L26.8 44.15L26.85 44.15L27.35 43.5L27.5 42.85L26.9 41.05L26.7 39.75L26.7 39.55L26.7 39.25L26.95 39.35L27.35 39.45L27.35 39.75L27.35 39.8Q27.35 40.5 27.8 41.75Q28.2 42.7 28.1 43.3L28 43.6M14.65,43.55L15.15 43.3L15.7 43.55L16 43.8Q16.35 44.15 16.3 44.7L16.15 45.25L15.85 45.35L15.65 45.35L15.85 44.95L15.85 44.35L15.35 43.85L15.25 43.8L14.85 43.7L14.55 43.55L14.65 43.55M10.55,17.55L10.65 17.5L11.75 17.35L11.8 17.4L12 18.25L12.05 19.4L12.05 19.9L12.1 20.45L12.35 21.3L12.5 21.5L12.85 21.95L13.1 22.2L13.15 22.25L13.45 22.4L14.1 22.8L14.25 22.85L14.65 23.15L14.75 23.25L15.2 24.1L15.25 24.35L15.25 24.45L15.25 24.5L15.25 24.85L15.2 25.35L15.1 25.65L14.95 25.9L14.7 26.25L14.6 26.45L14.55 26.45L14.25 26.75L13.85 27.05L13.5 27.25L12.05 27.5L11.75 27.5L10.5 27.15L9.55 26.35L9.35 26.1L9.1 25.75L8.6 24.8L8.35 24.1L8.2 23.55L8.15 22.95Q8.05 21.9 8.45 20.8L8.6 20.3L8.75 19.9L8.95 19.7L8.95 19.65Q9.75 17.9 10.55 17.55M23.95,13.9L23.5 13.6L23.4 13.45L22.75 12.6L22.1 10.8Q21.85 9.3 22.65 7.5L22.75 7.2Q23.45 5.6 24.2 5.2L24.3 5.25L25.3 5.15Q25.65 5.35 25.55 5.95L25.65 7.4L25.65 7.5Q25.7 8.4 26.05 8.9L26.6 9.6L26.9 9.8L27.65 10.15L27.85 10.25L27.9 10.3L28.15 10.55L28.5 11.45L28.5 11.6Q28.6 12.25 28.2 12.95L28.05 13.2L27.4 13.85Q26.8 14.45 25.95 14.4L24.75 14.25L24.5 14.15L23.95 13.9M23.05,7.85L23.7 8L24.25 7.9L24.3 7.9L24.8 7.75L25.05 7.6L24.95 6.9L24.95 6.1L24.9 5.7Q24.9 5.5 24.3 5.95L23.85 6.35L23.05 7.85M22.55,10.25Q22.55 10.95 22.85 11.7L23.05 11.95L23.4 12L23.95 12L24.75 11.75L25 11.65L25.4 11.45L25.55 11.25L25.9 10.65L25.95 10.55L26.1 9.85Q25.5 9.2 25.25 8.5L25.15 8.05L25 8.2L24.8 8.3L24.75 8.3L24.65 8.3L24.2 8.4L23.8 8.4L23.7 8.4L22.9 8.2L22.9 8.25L22.7 8.9L22.7 8.95Q22.55 9.55 22.55 10.25M25.75,11.7L25.4 11.85L24.55 12.35L23.8 12.5L23.7 12.45L23.25 12.4L23.6 12.95L23.65 13L24.1 13.4L24.15 13.45L24.2 13.45L24.25 13.5L24.9 13.7L25.9 13.8L26.15 13.8L26.65 13.65L26.85 13.5L27.35 13.05L27.5 12.95Q28.1 12.35 28.05 11.8L28.05 11.65L27.75 10.9L27.65 10.8L27.4 10.6L27.35 10.6L27.1 10.45L26.6 10.15L26.5 10.15L25.75 11.65L25.75 11.7M28,29.15L27.4 28.75L27.4 28.7L28.1 26.95L28.75 27.4L28.1 28.8L28 29.15M30.3,29.65L30.45 29.25L30.85 28.1L31.35 28.2L31.6 28.25L31.65 28.3L31.25 29.15L31.15 29.35L31.1 29.5L30.3 29.65M10.85,20.35L11.1 20.25L11.45 20.1L11.4 19.7L11.35 19.5L11.35 19.25L11.35 18.4L11.3 17.95L11.05 18Q10.9 18.05 10.65 18.25L10.2 18.75L10.15 18.75L9.75 19.4L9.25 20.35L10.05 20.5L10.55 20.45L10.65 20.4L10.85 20.35M8.9,21.55L8.8 21.95L8.7 23.05L8.7 23.2L8.95 24.4L9 24.55L9.25 24.9L9.65 24.95L10.55 24.9L11.15 24.65L11.8 24.3L12.15 23.9L12.35 23.45L12.55 22.6L12.1 21.95L12.05 21.85L11.6 20.8L11.55 20.6L11.4 20.7L11.35 20.7L11.1 20.8L10.55 20.95L10.1 21L10.05 21L9.95 21L9.95 20.95Q9.25 20.9 9.1 20.7L9.1 20.75L9.05 21L8.95 21.3L8.9 21.5L8.9 21.55M9.45,25.4L10 26.15L10.4 26.45L10.65 26.6L11.35 26.9L12.2 26.95L12.35 26.95L13.2 26.75L13.4 26.6L13.65 26.5L13.8 26.4L14 26.15L14.1 26.05L14.25 25.9L14.45 25.6L14.55 25.35L14.65 25.1L14.65 24.7L14.65 24.5L14.6 24.15L14.35 23.75L14.15 23.55L13.7 23.2L13.6 23.15L13.15 22.9L12.95 22.85L12.65 24L12.2 24.55L11.8 24.8L11.45 25.05L10.2 25.45L10.05 25.45L9.95 25.45L9.45 25.4M8.3,41.1L8.05 40.6L8.15 40.45L8.35 40.35L8.3 41.1M30.7,30.75L30.65 30.7L30.25 30.05L31 29.9L30.7 30.75M30.2,32.8L30.15 32.8L30.2 32.45L30.45 31.7L30.2 32.8M30.05,30.45L30.25 30.95L29.85 32.6L29.55 32.45L30.05 30.45M27.3,29.05L27.95 29.45Q27.8 30.2 27.95 31.1L28.15 32.15L27.4 32.3L27.3 31.75Q26.95 30.2 27.3 29.05" />
<path style="fill:#98948E;fill-opacity:1" d="M24.3,7.9L24.25 7.5L24.35 6.55L24.55 6.3L24.75 6.55L24.75 6.65L24.8 7.75L24.3 7.9M24.2,8.4L24.65 8.3L24.75 8.3L25.2 9.25Q25.7 9.9 25.2 9.8L24.9 9.55L24.2 8.4M10.65,20.4L10.6 19.9L10.65 18.95L10.9 18.65L11.15 18.85L11.2 19L11.2 19.1L11.1 20.25L10.85 20.35L10.65 20.4M11.1,20.85L11.6 21.8Q12.05 22.5 11.7 22.5L11.65 22.5L11.55 22.45L11.05 22L10.75 21.45L10.55 20.95L11.1 20.8L11.1 20.85" />
<path style="fill:#101820;fill-opacity:1" d="M4.7,24.6L4.6 24.4Q4.3 23.85 4.75 23.8L6.25 24.1L7.4 24.45L7.65 24.5L8.3 24.7L8.45 24.75L8.55 24.8L8.6 24.8L9.1 25.75L7.1 24.95L6.9 24.85L6.25 24.65L5.55 24.5L5.65 24.85L5.8 25.15L5.85 25.25L6.25 25.7L6.35 25.8L6.65 26.1L6.7 26.1L6.7 26.15L6.75 26.1L7 26.4L7.3 26.7L7.6 26.95L8.4 27.55L9.75 28.2L9.9 28.25L11.15 28.65L11.9 28.75L12.3 29.25L11.9 29.3L10.4 29.1L8.85 28.4L8.45 28.2L8.1 28.25L8 28.25Q7.2 28.35 6.55 28.6Q6.1 28.8 5.8 29.05L5.65 29.1L5.9 29.3L7.1 29.95L7.9 30.25L9.45 30.5L9.45 30.55L9.6 31.1L8.95 31.1L8.75 31.05L8.7 31.05L7.35 30.7L6.1 30.15L6 30.1L5.75 29.95L5.65 29.85L5 29.1L5.7 28.4L6.2 28.1Q7.1 27.65 7.5 27.65L7.35 27.5L6.65 26.95L6.05 26.35L5.3 25.45L5.15 25.3L5.05 25.1L4.7 24.6M16.05,19.95L15.85 19.55L15.45 18.65L15.2 18L15.05 17.2Q14.95 16.35 15.15 15.15Q15.35 14 15.8 13.2Q16.2 12.4 16.45 12.55L16.9 12.9L17.5 13.7L17.9 14.45L18.2 14.3L18.95 13.25L20 12.1L20.75 11.5L21.15 11.55L20.75 15.3L20.25 17.1L19.5 17.55L19.7 16.9L20.45 13.8L20.65 12.55L20.1 12.9L19.3 13.8L19.3 13.85L18.8 14.45Q18.1 15.55 17.75 17.05Q17.35 18.45 17.6 19.2L17.6 19.25L17.6 19.3L17.6 19.4L17.6 20.25L17.35 20.2L17.4 20.1L17.45 19.95Q16.8 18.9 17.05 17.55L17.45 16.05L17.6 15.65L17.5 15.4L17.5 15.25Q17.1 13.95 16.4 13.2L16.25 13.5Q15.8 14.4 15.6 15.4L15.6 16.95L15.7 17.85Q15.9 18.85 16.55 19.7L16.85 20.05L16.05 19.95M12.55,30.65L12.05 30.8L11.9 30.85L11.05 30.5L12.2 30.15L12.75 29.85L13.05 30.4L12.55 30.65" />
<path style="fill:#4D4232;fill-opacity:1" d="M33,14.4Q33.25 15.85 34.2 16.6Q34.85 17.1 35.25 17.05L35.65 16.8L35.8 16.65L35.9 16.6L35.85 16.6L35.95 16.45L36.05 16.3L36.2 16.5L36.45 16.35L36.65 17.15L36.25 18.1Q37.25 18.25 37.55 17.5Q37.85 16.8 39.3 16.1L39.4 16Q40.3 15.9 40.6 16.6Q40.7 16.9 40.4 16.8L40.3 16.8L39.6 16.8L39.75 17.15Q39.9 18 39.35 18.5Q38.9 18.9 37.95 18.95Q37.75 18.95 37.7 18.85L37.55 18.6L37.55 18.5Q36.85 19 36.15 18.95Q35.45 18.9 35.2 18.4Q34.95 17.9 35.15 17.85L34.9 17.85Q34.5 18 33.7 17.5L32.45 17.85Q31.15 17.95 30.2 16.55Q29.2 14.9 30 13.7Q29.6 13.8 29.2 14.2L28.75 14.65L28.65 14.65Q28.45 13.05 30.45 12.8L31.1 12.9Q32.75 13.15 33 14.4M38.95,18.15Q39.5 17.75 39.15 17L38.5 17.45Q38.05 17.75 37.95 18.05Q37.85 18.4 38.1 18.5L38.95 18.15M30.55,14.5Q30.25 16.4 31.8 16.95L32.15 17.05L32.4 17.05L33.1 16.9L32.7 15.85Q32.45 14.95 31.85 14.35Q31.25 13.7 30.65 14L30.55 14.5" />
<path style="fill:#CCC6B8;fill-opacity:1" d="M26.25,15.1L26.25 15.05L26.4 15.05L26.25 15.1M25.8,15.8Q26 16.1 25.75 16.15Q24.65 16.4 25.55 15.7L25.8 15.8" />
<path style="fill:#4A4131;fill-opacity:1" d="M37.5,23.35L38.2 23.4L38.15 23.95Q38.25 24.65 36.45 24.9L36.25 24.95L36 25L35.35 25.05L33.55 25.15L31.05 24.65L30.65 24.5Q28.9 23.95 29.25 22.55L29.25 22.45L29.3 22.15L29.4 21.3L29.4 21.25L29.3 21.25L27.8 20.7Q26.55 20.25 25.65 19.2L25.6 19.15L24.4 17.35L24.35 17.25Q23.95 16.35 23.85 15.55L23.85 14.2L23.95 13.9L24.5 14.15L24.75 14.25L24.7 14.3Q24.55 15.2 24.75 16Q24.9 16.8 25.55 17.8L25.6 17.9Q26.05 18.65 27.1 19.4L27.35 19.55L27.7 19.8Q29.2 20.7 29.6 20.25L30 19.7L30.15 19.55Q30.35 19.35 30.55 19.55L30.6 19.6L30.35 21.95L30.25 22.35L30.25 22.8L30.2 23.1L30.2 23.3L30.55 23.45L31.85 23.85L32.05 23.7L32.9 23.8L32.85 24L32.85 24.05L33.25 24.2L34.7 24.25L34.95 24.25L35 23.85L35.25 24.1L35.95 24.05L36 24L36 24.15L35.95 24.2L36 24.2L36.95 24L37.45 23.85L37.5 23.35" />
<path style="fill:#A7C6D7;fill-opacity:1" d="M19.45,17.55L19.6 16.55L19.95 13.6L19.8 13.7L19.95 13.1L19.3 13.8L20.1 12.9L20.65 12.55L20.45 13.8L19.7 16.9L19.5 17.55L19.45 17.55M6.95,25.45L6.6 25.35L6.7 25.55L6.5 25.4L6.05 25.3L6.7 26.1L6.65 26.1L6.35 25.8L6.25 25.7L5.85 25.25L5.8 25.15L5.65 24.85L5.55 24.5L6.25 24.65L6.9 24.85L7.1 24.95L9.1 25.75L9.35 26.1L6.95 25.45M17.3,15.6L16.9 14.35L16.75 14.1L16.7 14.15L16.7 14.45L16.25 13.5L16.4 13.2Q17.1 13.95 17.5 15.25L17.3 15.6M8.1,28.55L6.9 28.7L6.7 28.85L6.7 28.9L7 28.95L5.9 29.3L5.65 29.1L5.8 29.05Q6.1 28.8 6.55 28.6Q7.2 28.35 8 28.25L8.25 28.45L8.3 28.5L8.1 28.55" />
<path style="fill:#F5F5F5;fill-opacity:1" d="M22.2,22.2L22.2 21.7L22.15 21.7L22.2 20.5Q21.8 20.45 21.6 20Q21.55 19.7 21.65 19.45L22 18.9L22 18.6L21.9 18.35L21.1 18.25L20.95 18.3L20.35 18.6L19.75 18.75L19.4 19.05L19.35 19.1L19.3 19.2L19.2 19.25L19.1 19.35L18.95 19.4L18.9 19.4L18.5 19.4L18.5 19.35L19.1 18.9L19.45 18.7L20.1 18.2L20.25 18.1Q21.25 17.45 22.25 17.25L22.35 17.25Q22.75 17.25 22.9 18.45L22.9 18.75L22.9 19.25L22.9 19.45L22.85 21.35L22.85 21.55L22.85 22.4L22.85 22.65L22.2 22.2M23.15,29L22.9 29.1Q21.95 28.75 22.7 28.45L22.3 27.9L22.4 27.9L23.15 28.7L23.3 28.85L23.15 29M21.95,44.5L21.95 44.4L21.95 44.35L22.2 41.55L22.25 41L22.3 40.45L22.4 38.75L22.4 38.4Q21.95 38.5 22.4 38L22.45 37.5L22.45 36.8L22.35 35.45L22.4 34.9L22.2 34.55L23.05 33.75L23.35 31.75L24.25 30.45L24.35 29.95L24.95 30.4L24.45 31.1L24 31.45L23.9 31.55L23.85 31.75L23.8 32.6L23.6 33.95L23.15 34.55Q22.8 34.8 22.75 35.25L22.8 36.65L22.85 37.3L22.85 37.85L22.9 38.5L22.85 40.25L22.85 40.95L22.5 44.4L22.2 44.5L22.1 44.5L21.95 44.5M21.95,32.8L22.1 32.9L22.35 33.3L22.25 33.5Q21.4 33.45 21.75 33L21.95 32.8" />
<path style="fill:#C9C5BC;fill-opacity:1" d="M20.75,26.35Q20.1 26.25 19.65 25.8L19.3 25.35L19.45 24.05L19.45 23.85L19.5 23.85L19.75 23.65Q20.15 22.7 19.5 22.2L19.5 21.8L19.35 21.75L19.3 21.3L19.3 20.6L19.3 20.45L19.2 19.25L19.3 19.2L19.35 19.1L19.4 19.05L19.75 18.75L20.35 18.6L20.95 18.3L21.1 18.25L21.9 18.35L22 18.6L22 18.9L21.65 19.45Q21.55 19.7 21.6 20Q21.8 20.45 22.2 20.5L22.15 21.7L22.2 21.7L22.2 22.2L21.8 21.95L21.4 21.85Q21.15 22 21.2 22.35L21.3 22.85Q21.45 23.9 22.25 24.65L22.1 26.35L22.05 26.35L20.75 26.35M22.05,32.8L22.05 32.75L22.25 32.35L22.85 32L23 32.05L23.1 31.85L23.15 31.75L23.1 31.75L23.1 31.7L23 30.7Q22.9 29.55 21.8 28.45L21.55 28.15L21.75 28.1L22.3 27.9L22.7 28.45Q21.95 28.75 22.9 29.1L23.15 29L23.3 28.85L24.2 29.8L24.35 29.95L24.25 30.45L23.35 31.75L23.05 33.75L22.2 34.55L21.9 34.35Q21.55 34.2 20.95 34.35L20.9 34.35Q20.4 34.45 20.95 34.6Q20.9 35.7 22.05 35.75L22.2 35.7L22.35 35.45L22.45 36.8L22.45 37.5L22.4 38Q21.95 38.5 22.4 38.4L22.4 38.75L22.3 40.45L22.25 41L22.2 41.55L21.95 44.35L21.5 44.05L21.55 43.9Q21.55 43.45 21.15 43.4L20.9 43.7L20.9 43.6Q20.3 43.5 20.8 43.05L20.75 40.9L20.4 40.75Q20.3 40.55 20.7 40.15L20.7 37.35L20.35 36.3L20.7 36.25L20.8 36.05L20.55 35.85L20.3 36.1L19.85 35.3L19.95 35.5L19.85 35.45L19.85 35.4L19.7 35.2L19.75 35.5L19.55 36L19.55 36.05L19.25 36.45L19.1 36.5L18.8 36.5L18.75 36.2L18.55 36.05L18.5 36Q18.05 36.25 17.95 36.45L17.4 36.25L17.95 35.75L17.95 35.7L18.35 35.2Q18.95 34.25 19.15 33.2L17.75 33.9Q18 31.9 17.2 31.6L17.2 31.55L17.15 31.3Q16.95 30.95 16.6 31L16.35 31.4L15.95 31.45L15.95 31.5L15.7 31.25Q15.2 30.95 14.95 31.45L14.85 31.65L14.6 31.45L14.5 31.15L14.45 30.95L14.45 30.85L14.55 30.9L14.6 30.9L14.75 30.75L14.65 30.15L14.45 30L14.25 30.15L13.95 29.75L13.65 29.5L13.3 29.45Q13.05 29.35 13.15 29.1L13.25 28.9L12.95 28.5L12.75 28.2L12.6 27.75L12.7 27.6L12.85 27.6L13.55 27.75L14.4 28.3L14.95 28.5L15.25 28.5L15.1 28.4L14.95 28.2L15.15 28.35L15.8 28.55L15.95 28.55L16.3 28.55L16.25 28.35L15.55 27.5L16.25 27.75L17.3 28.1Q17.05 28.35 17.1 28.55L17.3 28.85Q17.2 29.2 17.25 29.7L17.45 30.15L17.3 30.6L17.35 31.05L17.65 31.8Q18.25 32.65 19.7 33L20.9 33.1L21.8 32.9L21.95 32.8L22.05 32.8M17.6,24.25L17.7 24.6L16.05 23.95L15.6 23.75L15.5 23.1L15.5 23.05L14.65 22.9L14.65 22.85L14.1 22L13.75 21.75L13.9 21.65L14.15 21.55L14.7 21.5L14.95 21.6L15.1 21.6L15.45 21.5L15.65 21.6L15.85 21.55L15.85 21.5L15.9 21.35L17.1 21.45L17.7 21.7L17.6 24.25M15.4,29.55L15.1 29.3Q14.35 29.95 15.35 29.75L15.4 29.55M14.2,28.6L14.05 28.55Q13.55 28.9 13.85 28.9L14.2 28.85Q14.4 28.8 14.25 28.65L14.2 28.6M19.25,34.85Q19.2 34.6 18.95 34.6Q18.25 35.35 19.15 35.1L19.25 34.85M20.55,24.8L20.45 24.65L20.15 24.5Q19.25 25.45 20.45 25.1L20.55 25.05L20.55 24.8M21.75,33Q21.4 33.45 22.25 33.5L22.35 33.3L22.1 32.9L21.95 32.8L21.75 33M21.7,39.65Q21.8 39.2 21.45 39.1Q20.55 39.6 21.5 39.8L21.7 39.65" />
<path style="fill:#5B5B46;fill-opacity:1" d="M23.55,40.7L23.45 41.8L23.15 44.45L22.95 44.75L22.75 44.75L22.1 44.5L22.2 44.5L22.5 44.4L22.85 40.95L22.85 40.25L22.9 38.5L22.85 37.85L22.85 37.3L22.8 36.65L22.75 35.25Q22.8 34.8 23.15 34.55L23.6 33.95L23.8 32.6L23.85 31.75L23.9 31.55L24 31.45L24.45 31.1L24.95 30.4L25.05 30.45Q25.4 30.65 25.8 30.25L25.25 31.45L24.45 32.1L24.5 33.6Q24.5 34.15 23.55 35.35L23.6 36.35L23.6 37L23.6 39.9L23.55 40.7M16.05,19.95L16.85 20.05L17.35 20.2L17.6 20.25L17.6 20.55L17.6 21.15L17.05 21L16.55 20.85L16.45 20.85L15.4 20.7L15.25 20.7L14.8 20.75L14.25 20.9Q13.85 21 13.6 21.25L13.25 21.5L13 21.8L12.95 21.8L12.85 21.7L12.5 21.1L12.75 20.8Q12.95 20.6 13.3 20.45L13.6 20.3L14.3 20.1L14.5 20.05L15.05 20L15.35 19.95L15.55 19.95L15.85 19.95L16.05 19.95M18.5,19.75L18.05 18.6L18.7 18.05L18.8 18L19.45 17.55L19.5 17.55L20.25 17.1L21.6 16.55Q23.4 15.95 23.4 16.85L23.5 17.2L23.6 18.95L23.6 19.1L23.65 19.1L23.65 19.5L23.65 19.65L23.65 20L23.65 21.2L23.65 21.5L23.7 22.15L23.25 22.95L22.85 22.65L22.85 22.4L22.85 21.55L22.85 21.35L22.9 19.45L22.9 19.25L22.9 18.75L22.9 18.45Q22.75 17.25 22.35 17.25L22.25 17.25Q21.25 17.45 20.25 18.1L20.1 18.2L19.45 18.7L19.1 18.9L18.5 19.35L18.5 19.4L18.5 19.75" />
<path style="fill:#3A3A3A;fill-opacity:1" d="M25.6,19.15L24.55 18.6L24.75 19.2L23.6 18.95L23.5 17.2L24.4 17.35L25.6 19.15M25.75,20.9L26.35 21.05L26 21.2L25.75 20.9" />
<path style="fill:#1C1C1C;fill-opacity:1" d="M36,25L36.25 24.95L36.55 25.45Q36.85 26.05 36.35 26.15L35.55 26.15L35.35 26.05L35.9 25.3L36 25M31.1,29.5Q31.8 29.15 32.1 28.35L32.3 28.4Q31.9 29.55 31 29.9L30.25 30.05L30.65 30.7L30.7 30.75Q31.2 31.25 32.05 31.5L33.8 31.55Q34.6 31.35 34.9 30.4Q35.55 28.4 34.85 26.9L34.7 26.6L34.7 26.2L35.25 26.1Q35.65 27.4 36.9 27.8L35.75 28.05L35.8 29.05Q35.85 29.7 35.55 30.4L35.25 31.1L35.55 31.5Q35.75 31.75 35.4 31.8L34.9 31.55L34.05 32L33.65 32.05L33.75 32.65Q33.95 33.5 33.65 35Q34.6 35.3 34.85 37L34.4 37L33.7 36.55L33.45 36.2L33.4 37.1Q34.05 37.45 34.4 38.55L34.3 38.7L33.45 38.2L33.4 41.15L33.15 42.7L33 41.55L32.8 36.15L32.2 36.2L31.6 36.15L31 35.9L30.8 36.3L30.65 36.45L30.7 35.85L30.8 35.25L31 35.4Q31.65 35.95 32.35 35.85Q33.05 35.7 33 35.25Q32.9 34.75 33.1 35Q33.55 33.45 33.05 32.2L31.75 31.9Q31.45 32.2 31.05 32.2L31.05 32.15L31.2 31.7L30.65 31.15L30.45 31.7L30.2 32.45L30.15 32.8L29.85 32.6L30.25 30.95L30.05 30.45L29.85 30L29.65 30L29.2 29.9L29.15 29.9L28.3 29.65L27.95 29.45L27.3 29.05L26.9 28.65L27.05 28.45L27.4 28.75L28 29.15L28.75 29.45L29.2 29.55L29.45 29.6L29.6 29.65L29.75 29.65L29.6 29.05L29.55 28.35L29.65 27.75L30.05 27.9L30 27.95L30.05 29.15L30.05 29.35L30.1 29.65L30.3 29.65L31.1 29.5M23.65,19.65L23.65 19.5L23.65 19.1L23.6 19.1L23.6 18.95L24.75 19.2L24.55 18.6L25.6 19.15L25.65 19.2Q26.55 20.25 27.8 20.7Q27.4 20.8 27.05 21.2L26.5 22.15L26.5 22.2L26.25 21.85L26 21.25L26 21.2L26.35 21.05L25.75 20.9L25.55 20.7L25.9 20.7L25.3 20.55L25.3 20.5L24.9 19.8Q24.6 19.5 24.2 19.55L23.85 19.8L23.65 19.65M27.75,24.6L27.65 24.25L27.85 24.4L27.75 24.6" />
<path style="fill:#72787E;fill-opacity:1" d="M24.5,22.9L24 22.75L24.3 22.15L24.55 21.7L24.85 21.25L25.15 20.95L25.55 21.4L25.7 21.6L25.6 21.7L25 22.4L24.95 22.5L24.8 22.7L24.5 22.9M24.95,21.65L24.85 22.25L24.95 22.2L25 22.15Q25.55 21.65 25.25 21.25L25.25 21.3L24.95 21.65M21.95,22.95L22.1 23.05L22.25 23.15L22.85 23.55L23.7 24.15L23.9 24.35L23.7 24.95L23.35 26.45L23.65 27L24.5 28.05L25.7 29.4L25.45 29.75L24.2 28.4L23.1 26.85L23.25 24.5L23 24.1L22.85 24L22.25 23.3L21.95 22.95M24.85,28.8Q24.7 28.3 24.15 27.95Q24.2 28.6 24.85 28.85L24.85 28.8" />
<path style="fill:#B9BEC4;fill-opacity:1" d="M25.25,21.3L25.25 21.25Q25.55 21.65 25 22.15L24.95 22.2L24.85 22.25L24.95 21.65L25.25 21.3M23.7,24.15L22.85 23.55L22.25 23.15L22.1 23.05L21.95 22.95L21.8 22.65L21.8 22.55L24.1 23.95L23.9 24.35L23.7 24.15M24.85,28.85Q24.2 28.6 24.15 27.95Q24.7 28.3 24.85 28.8L24.85 28.85" />
<path style="fill:#202431;fill-opacity:1" d="M25.55,20.7L25.75 20.9L26 21.2L26 21.25L26.25 21.85L25.9 22.2L25.8 22.25L25.7 22.4L25.5 22.7L24.95 23.55L24.8 23.75L24.8 23.8L24.4 24.6L24.15 25.1L24.1 25.2L23.8 26.3L23.8 26.4L25.95 29L26.05 29.15L26.3 29.6L25.85 30.15L25.8 30.25Q25.4 30.65 25.05 30.45L24.95 30.4L24.35 29.95L24.2 29.8L23.3 28.85L23.15 28.7L22.4 27.9L22.3 27.9L22.25 27.65L22.2 27.6L22.15 27.5L22.2 27.5L22.35 27.5L22.3 27.4L22.3 27.35L22.2 27.3L22.2 27.25L22.1 27.05L22.1 27L22.05 26.35L22.1 26.35L22.25 24.65Q21.45 23.9 21.3 22.85L21.2 22.35Q21.15 22 21.4 21.85L21.8 21.95L22.2 22.2L22.85 22.65L23.25 22.95L23.7 22.15L24.35 21L24.65 20.65Q24.95 20.35 25.25 20.5L25.3 20.5L25.3 20.55L25.55 20.7M23.7,23.3L24.15 23.6L24.2 23.65L24.5 23.2L24.8 22.7L24.95 22.5L25 22.4L25.6 21.7L25.7 21.6L25.55 21.4L25.15 20.95L24.85 21.25L24.55 21.7L24.3 22.15L24 22.75L23.7 23.3M21.8,22.85L22.1 23.8L22.25 23.95L22.65 24.5Q22.85 24.7 22.7 25.5L22.45 26.65Q22.4 26.9 22.85 27.5L23.35 28.15L23.6 28.4L25 29.8L25.25 30L25.45 29.75L25.7 29.4L24.5 28.05L23.65 27L23.35 26.45L23.7 24.95L23.9 24.35L24.1 23.95L21.8 22.55L21.8 22.65L21.8 22.85" />
<path style="fill:#404954;fill-opacity:1" d="M24,22.75L24.5 22.9L24.8 22.7L24.5 23.2L24.2 23.65L24.15 23.6L23.7 23.3L24 22.75M22.25,23.3L22.85 24L23 24.1L23.25 24.5L23.1 26.85L24.2 28.4L25.45 29.75L25.25 30L25 29.8L23.6 28.4L23.35 28.15L22.85 27.5Q22.4 26.9 22.45 26.65L22.7 25.5Q22.85 24.7 22.65 24.5L22.25 23.95L22.1 23.8L21.8 22.85L21.8 22.65L21.95 22.95L22.25 23.3" />
<path style="fill:#55C6D9;fill-opacity:1" d="M26.55,22.9L26.85 23.45L26.95 23.65L27.6 25.25L27.6 25.35L27.6 26.2L27.25 27.25L26.85 28.15L26.7 28.4L26.05 29.15L25.95 29L23.8 26.4L23.8 26.3L24.1 25.2L24.15 25.1L24.4 24.6L24.8 23.8L24.8 23.75L24.95 23.55L25.5 22.7L25.7 22.4L25.8 22.25L25.9 22.2L26.55 22.9M26.25,24.45Q26.65 24.8 26.75 24.35Q26.85 23.8 26.45 23.3Q26.05 22.7 25.95 23.4Q25.95 24 26.25 24.45M25.4,23.75L24.25 26.3Q25 27.65 26.15 28.45L27.15 26.45L26.95 26.45L26.35 26.25L26.2 26.15L25.95 25.9L25.75 25.6L25.45 24.65L25.4 24.25L25.4 23.75" />
<path style="fill:#1C202A;fill-opacity:1" d="M35.9,25.3L35.35 26.05L35.25 26.1L34.7 26.2L34.7 26.6L34.45 27.25L33.4 28.3L32.3 28.4L32.1 28.35L31.6 28.25L31.35 28.2L30.85 28.1L30.55 28.05L30.05 27.9L29.65 27.75L29 27.5L28.75 27.4L28.1 26.95L27.9 26.7L27.95 25.55L27.95 25.35L27.75 24.6L27.85 24.4L27.65 24.25L27.6 24.15L26.95 22.95L26.5 22.2L26.5 22.15L27.05 21.2Q27.4 20.8 27.8 20.7L29.3 21.25L29.4 21.3L29.3 22.15L28.55 21.6Q28.2 21.3 27.85 21.35Q27.45 21.45 27.1 22.25Q26.85 22.85 27.8 23.6L28.75 24.25Q30.7 25.35 32.25 25.6L34.15 25.8L34.45 25.7L35.3 25.1L35.35 25.05L36 25L35.9 25.3M17.5,39.1L17.4 39.15L17 39.3L16.95 39.35L15.65 39.6L15.75 39.95L15.75 40.35Q15.75 41.15 15.05 42L14.9 42.2Q14.35 42.8 14.1 42.05Q13.85 41.25 13.25 41.15L13.15 41.15L12.5 41.85L11.9 42.25L11.15 42.6L10.35 42.9L10.25 42.9L9.15 42.85L9 42.8Q8.55 42.65 8.9 42.1Q9.35 41.5 9.3 40.75L9.3 40.4Q9.2 40.1 8.9 40.15L8.35 40.35L8.15 40.45L8.05 40.6L7.9 40.75L7.7 40.95L7.25 41.4Q6.9 41.55 6.5 40.7Q6.1 39.8 6.4 38.75L5.75 38.8L5.4 38.85L4.65 39.1L4.4 39.3Q4.15 39.55 4.15 38.9L4.25 38.35L4.25 38.25L4.5 37.55L5.4 36.25L5.9 35.9L6 35.8Q6.6 35.5 7.4 35.35Q7.2 34.7 6.55 34.45L6.4 34.4L6.15 34.3Q5.95 34 6.15 33.65L6.2 33.55Q6.65 32.9 7.7 32.5L7.9 32.45L8.5 32.35L9.05 32.35L10.1 32.65L10 32.25L9.85 31.8L9.85 31.75L9.65 31.25L9.6 31.1L9.45 30.55L9.45 30.5L9.5 30.5L9.6 30.35L9.95 30.25L10.1 30.25L11.05 30.5L11.9 30.85L11.95 30.9L12.65 31.3L13.3 31.9L13.85 32.7L14.1 32.5L14.35 32.3L14.5 32.15L14.85 31.65L14.95 31.45Q15.2 30.95 15.7 31.25L15.95 31.5L16.3 31.9L16.55 32.35L16.6 32.4L16.75 33.55L16.7 33.7L16.65 33.75L17.2 33.85L17.55 33.95L17.7 34L17.75 34Q18.15 34.1 18.25 34.3L18.2 34.75L17.5 35.4L17.4 35.5L16.6 36.7L16.55 36.8L16.8 36.9L17.15 36.95L17.8 37.1L18.05 37.15Q18.55 37.25 18.45 37.8L18.3 38.1L17.95 38.7L17.5 39.1M17.9,46.65L17.65 46.75L17.3 46.35Q16.7 45.65 16.4 45.8L16.05 45.9L15.85 45.95L15.6 46.1L15.55 46L15.55 45.95L15.6 45.9L16.15 45.25L16.65 45.25Q17.2 45.35 17.9 46.3L18.15 46.65L17.9 46.65M20.35,50.95L20.7 50.85L20.35 53.05L20.3 53.2L20.25 53.7L20.25 53.75L20.25 53.9L20.35 54.35L20.3 54.55L19.9 54.55L19.25 53.8L19.1 53.6L19.05 53.55L19.35 53.45L19.7 53.75L19.75 53.8L19.75 53.75L19.75 53.5L19.75 53.35Q20.3 53.15 20.35 52.5L20.35 51.45L20.2 51.05L20.35 50.95M12.6,49.65L12.35 49.3L12 49.7L11.95 49.85L11.55 50.4L11.3 50.8L11.2 50.9L10.9 50.9L10.5 50.8L10.1 50.65Q10 50.45 9.75 50.45L9.45 50.25L9.15 49.95L9 49.8L8.9 49.65L8.65 49.1L8.15 49.35L7.5 49.6Q6.9 49.95 6.8 49.4Q6.65 48.8 7.1 47.45L6.05 46.85Q5.55 46.4 6.35 46.3L6.7 46.2L7.75 45.65L8.15 45.35L8.55 45.1L8.65 45.1L8.75 45.15L9.05 45.8L8.65 45.55L8.4 45.85L7.3 46.45L6.6 46.6L7.7 47.15L8 47.2L7.85 47.3L7.6 47.65L7.4 48.05L7.25 48.75L7.3 49.15L7.95 48.85L8.5 48.65L9.05 48.5L9.7 48.5L9.75 48.5L9.8 48.55L9.95 48.65L9.95 48.7L9.9 48.75L9.5 48.85L9.1 48.95L9.2 49.2L9.3 49.4Q9.7 50 10.45 50.3L10.9 50.45L11 50.3L11.3 49.8L11.45 49.55L11.7 49.25L11.95 48.95L12.1 48.85L12.5 48.95L12.6 49.65M21.95,27.35L22.15 27.5L22.2 27.6L22.25 27.65L22.3 27.9L21.75 28.1L21.55 28.15L20.6 28.3L19.9 28.35L18.9 28.35L17.95 28.25L17.3 28.1L16.25 27.75L15.55 27.5L14.25 26.75L14.55 26.45L14.6 26.45L15.4 26.95Q16.3 27.4 17.45 27.65L17.6 27.65L19.25 27.1L19.25 27.05L19.9 26.55L19.7 26.4L19.65 26.35L19.4 26.25L19.35 26.2L19.35 26.25L16.2 26.05L15.8 25.95L15.1 25.65L15.2 25.35L15.75 25.6L18.7 26L19 26L19.1 26L19.05 25.85L18.85 25.5L18.8 25.35L18.75 25.35L17.95 25.2L15.7 24.4L15.2 24.1L14.75 23.25L15.6 23.75L16.05 23.95L17.7 24.6L18.15 24.65L18.2 24.65L18.45 24.75L18.9 24.85L19.15 25.1L19.3 25.35L19.65 25.8Q20.1 26.25 20.75 26.35L22.05 26.35L22.1 27L21.95 26.8L21.75 26.85L21.75 27.05L21.95 27.35M13.2,22L13.25 21.9Q13.45 21.55 13.75 21.75L14.1 22L14.65 22.85L14.65 22.9L14.65 23.15L14.25 22.85L14.1 22.8L13.6 22.15L13.55 22.3L13.45 22.4L13.15 22.25L13.1 22.2L13.2 22M19,25L18.9 24.85L19 25.05L19 25M19.75,27.15L19.25 27.55L19.2 27.55L18.35 27.85L19.15 27.95L21.05 27.8L21.15 27.75L21.5 27.7L21.65 27.7L21.85 27.7L21.55 27.35L21.45 26.95L21.45 26.85L20.1 26.6L20 26.85L19.75 27.15M10.8,31.1L10.45 30.95L10.25 30.9L10.35 31.1L10.45 31.3L10.45 31.35L10.65 31.9L10.8 32.65L10.8 33L10.8 33.2L10.6 33.45L10.4 33.45L10.35 33.45L10.2 33.4L9.65 33.15L8.5 33L8 33.05L7.45 33.2L7.25 33.3L6.65 33.75L6.5 33.9L7 34.1Q7.7 34.55 8 35.25L8.05 35.5L8.05 35.55Q8.5 35.9 7.95 35.85L7.9 35.85L7.65 35.85L7 36Q6.2 36.35 5.6 36.95L5 37.8L4.6 38.55L4.55 38.65L4.65 38.6L5.35 38.25L5.95 38.1L6.85 38.1L7.4 37.5L7.5 37.85L7.4 38.2L7.05 38.75Q6.75 39.3 6.8 39.8L6.85 40.05L6.9 40.05L6.85 40.1L7.2 40.7L7.5 40.3L7.75 40.1L8.15 39.8L8.2 39.75L8.5 39.6L9.3 39.45L9.4 39.1L9.7 39.6L9.9 40.6L9.8 41.6L9.35 42.45L9.6 42.45L9.95 42.4L10.1 42.35L11.45 41.8L12.5 41L12.65 40.85L12.65 40.75L12.7 40.75L12.85 40.55L13.2 40.5L13.45 40.6L13.85 40.85L14.2 41.15L14.5 41.7Q15.05 41.2 15.1 40.45Q15.15 39.7 14.7 39.15L14.6 39.05L14.2 38.5L15.45 38.95L16.7 38.8L17.55 38.25L17.8 37.8L17.7 37.8L17.3 37.7L16.35 37.45L15.85 37.15L15.65 36.9L15.45 36.65L15.3 36.2L15.3 36.15L15.3 36.05L16 36.4L16.15 36.35L16.6 35.55L16.85 35.2L17 35L17.35 34.7L17.45 34.65L17.05 34.55L16.4 34.5L15.7 34.65L15.25 34.75L15.15 34.7L15.15 34.65L15.15 34.55L16.05 33.8L16.05 33.45L15.95 32.45L15.8 32.25L15.7 32.1L15.65 32L15.5 31.85L15.35 32.1L15.2 32.25L14.65 32.85L13.7 33.5L13.55 33.55L13.3 33.65L13.2 33.65L13.25 33.6L13.4 33.4L13.25 33.1L12.85 32.55L12.25 31.9L11.3 31.3L10.8 31.1M33.85,26.35L32.2 26.2L29.8 25.5L28.5 24.75Q28.1 25.55 28.45 26.2L29.05 26.8L29.95 27.2L30.4 27.3L31.15 27.55L33 27.7Q33.6 27.5 33.8 26.7L33.85 26.35" />
<path style="fill:#61666C;fill-opacity:1" d="M21.75,27.05L22 27.05L22 27L22.1 27L22.1 27.05L22.2 27.25L22.2 27.3L21.95 27.35L21.75 27.05M35.35,25.05L35.3 25.1L34.45 25.7L34.15 25.8L32.25 25.6Q30.7 25.35 28.75 24.25L27.8 23.6Q26.85 22.85 27.1 22.25Q27.45 21.45 27.85 21.35Q28.2 21.3 28.55 21.6L29.3 22.15L29.25 22.45L29.25 22.55L28.1 21.7Q27.9 21.65 27.7 22.1L27.55 22.4L27.4 22.65Q28 23.55 30.15 24.6L32.1 25.3Q31.55 25.1 31.15 24.75L31.05 24.65L33.55 25.15L35.35 25.05M15.1,26L15.75 26.3Q17.55 26.95 19.3 26.3L19.4 26.25L19.65 26.35L19.7 26.4L19.3 26.8L18.65 27.1L17.5 27.25L15.55 26.7L14.7 26.25L14.95 25.9L15.1 26M15.25,24.85L15.25 24.5L15.25 24.45L15.75 24.65L15.8 24.7L16.5 25L18.1 25.4L18.8 25.35L18.85 25.5L18.25 25.55L15.85 25.1L15.25 24.85M20.75,27.6L19.9 27.65L19.25 27.55L19.75 27.15L20 26.85L20.45 27L21.2 26.95L21.35 27.45L20.75 27.6M16.35,34.7L16.8 34.85L16.75 34.9L16.25 35.1L15.45 35.7L15.3 35.45L15.3 35.4L15.25 34.75L15.7 34.65L16.35 34.7M7.25,38.9L7.7 38.25L8.05 37.95L8.55 38.3L8.65 38.5L8.35 38.7L8.15 38.85L7.65 39.4L7.55 39.45L7.45 39.35L7.4 39.2L7 39.8L6.85 40.05L6.8 39.8L7.25 38.9M8.1,36.55L8.05 36.75L8 36.8L7.45 36.9L7.3 36.95L6.85 37.1L6.35 37.3L6.55 36.95L6.05 37.15L6 37.15L5 37.8L5.6 36.95L5.75 36.9Q6.6 36.35 7.5 36.35L8.05 36.4L8.1 36.55M7.4,33.3L7.9 33.3L8.25 33.3L8.45 33.3L9.8 33.65L10.3 34.1L10.35 34.15L10.2 34.75L10.05 34.95L9.65 34.45L9.45 34.25L8.9 33.85L8.25 33.55L8.5 33.85L8.55 34.1L8.55 34.2L8.5 34.3L7.85 33.9L7.55 33.8L7.3 33.8L6.65 33.75L7.25 33.3L7.4 33.3M10.45,30.95L10.8 31.1L11.3 31.3L11.7 31.65L12.05 32.05L12.5 32.85L12.65 33.6L12.6 33.55L12.15 33.1L12.05 33L11.65 32.3L10.95 31.4L10.75 31.2L10.65 31.15L10.6 31.1L10.45 30.95M15.4,33.1L14.7 33.8L14.3 34.1L13.5 34.5L13.5 34.45L13.4 34.25L13.4 33.9Q14.65 33.55 15.4 32.6L15.5 32.5L15.5 32.6L15.55 32.9L15.4 33.1M11.7,34.4L11.9 34.85L12.35 35.4L11.8 35.55Q11.2 35.55 11.3 34.95L11.5 34.45L11.7 34.4M12.75,36.45L12.75 36.95L12.55 37.6L12.5 37.75L12.35 37.9L12.2 37.7L11.65 37L11.15 36.6L10.9 36.45L11.45 36.3L11.75 36.25L12.7 36.35L12.75 36.45M16.75,37.9L16.3 38.2Q15 38.2 13.95 37L15.25 37.1L15.4 37.05L16.75 37.9M10.45,41.8Q10.7 41.2 10.55 40.4L10.1 41.15L10.1 39.4L10.45 39.6L11.05 40.1L11.35 40.5L10.45 41.8M14.5,40.9L14 39.95L13.65 39.5L13.6 39.45L13.65 39.4Q13.95 38.95 14.35 39Q14.95 39.8 14.5 40.9M30.45,26.7L30.65 26.45L30.85 26.4L31.3 26.4L31.45 26.4L32.7 26.6L33.8 26.7Q33.6 27.5 33 27.7L31.15 27.55L30.4 27.3L30.45 26.7M32.9,27.15L32.7 26.9Q32.25 26.75 32.15 27.15Q32.55 27.5 32.9 27.15M19.7,53.45L19.7 53.75L19.35 53.45L19.6 53.4L19.7 53.4L19.7 53.45M11.15,51.5L11.4 51.45L11.45 51.45Q11.5 52.3 11.9 52.2L12.1 52.15Q12.35 52.15 12.05 52.65L11.7 53.25L11.4 53.65L11.15 53.85L11 54.05Q10.5 54.5 10.35 54.9L10 54.25L10.7 53L10.65 52.9L10.55 52.95L10.4 53L10.35 52.95L10.45 52.85L10.85 52.45L11.15 51.8L11.15 51.5" />
<path style="fill:#2D343C;fill-opacity:1" d="M21.95,27.35L22.2 27.3L22.3 27.35L22.3 27.4L22.35 27.5L22.2 27.5L22.15 27.5L21.95 27.35M31.05,24.65L31.15 24.75Q31.55 25.1 32.1 25.3L30.15 24.6Q28 23.55 27.4 22.65L27.55 22.4L27.7 22.1Q27.9 21.65 28.1 21.7L29.25 22.55Q28.9 23.95 30.65 24.5L31.05 24.65M15.55,26.7L17.5 27.25L18.65 27.1L19.3 26.8L19.7 26.4L19.9 26.55L19.25 27.05L19.25 27.1L17.6 27.65L17.45 27.65Q16.3 27.4 15.4 26.95L14.6 26.45L14.7 26.25L15.55 26.7M15.85,25.1L18.25 25.55L18.85 25.5L19.05 25.85L19.1 26L19 26L18.7 26L15.75 25.6L15.2 25.35L15.25 24.85L15.85 25.1M21.35,27.45L21.55 27.35L21.85 27.7L21.65 27.7L21.5 27.7L21.15 27.75L21.05 27.8L19.15 27.95L18.35 27.85L19.2 27.55L19.25 27.55L19.9 27.65L20.75 27.6L21.35 27.45M14.5,41.7L14.2 41.15L13.85 40.85L13.45 40.6L13.2 40.5L12.85 40.55L12.7 40.75L12.65 40.75L12.65 40.85L12.5 41L11.45 41.8L10.1 42.35L9.95 42.4L9.6 42.45L10.1 42.1L10.45 41.8L11.35 40.5L11.05 40.1L10.45 39.6L10.1 39.4L9.85 39.3L9.4 39.1L9.3 39.45L8.5 39.6L8.2 39.75L8.15 39.8L7.75 40.1L7.5 40.3L7.2 40.7L6.85 40.1L6.9 40.05L6.85 40.05L7 39.8L7.4 39.2L7.45 39.35L7.55 39.45L7.65 39.4L8.15 38.85L8.35 38.7L8.65 38.5L8.55 38.3L8.05 37.95L7.55 37.85L7.5 37.85L7.4 37.5L6.85 38.1L5.95 38.1L5.35 38.25L4.65 38.6L4.55 38.65L4.6 38.55L5 37.8L6 37.15L6.05 37.15L6.55 36.95L6.35 37.3L6.85 37.1L7.3 36.95L7.45 36.9L8 36.8L8.05 36.75L8.1 36.55L8.05 36.4L7.95 35.95L7.9 35.85L7.95 35.85Q8.5 35.9 8.05 35.55L8.05 35.5L8 35.25Q7.7 34.55 7 34.1L6.5 33.9L6.65 33.75L7.3 33.8L7.55 33.8L7.85 33.9L8.5 34.3L8.55 34.2L8.55 34.1L8.5 33.85L8.25 33.55L8.9 33.85L9.45 34.25L9.65 34.45L10.05 34.95L10.2 34.75L10.35 34.15L10.35 34.1L10.35 33.95L10.25 33.55L10.2 33.4L10.35 33.45L10.4 33.45L10.6 33.45L10.8 33.2L10.8 33L10.8 32.65L10.65 31.9L10.45 31.35L10.45 31.3L10.35 31.1L10.25 30.9L10.45 30.95L10.6 31.1L10.65 31.15L10.75 31.2L10.95 31.4L11.65 32.3L12.05 33L12.15 33.1L12.6 33.55L12.65 33.6L12.9 33.7L13.2 33.65L13.3 33.65L13.55 33.55L13.4 33.9L13.4 34.25L13.5 34.45L13.5 34.5L14.3 34.1L14.7 33.8L15.4 33.1L15.55 32.9L15.75 32.55L15.8 32.25L15.95 32.45L16.05 33.45L16.05 33.8L15.15 34.55L15.15 34.65L15.15 34.7L15.25 34.75L15.3 35.4L15.3 35.45L15.45 35.7L16.25 35.1L16.75 34.9L16.8 34.85L17.35 34.7L17 35L16.85 35.2L16.6 35.55L16.15 36.35L16 36.4L15.3 36.05L15.3 36.15L15.3 36.2L15.45 36.65L15.65 36.9L15.4 37.05L15.25 37.1L13.95 37Q15 38.2 16.3 38.2L16.85 38.15L17.7 37.8L17.8 37.8L17.55 38.25L16.7 38.8L15.45 38.95L14.2 38.5L14.6 39.05L14.35 39Q13.95 38.95 13.65 39.4L13.6 39.45L13.65 39.5L14 39.95L14.5 40.9Q14.7 41.35 14.5 41.7M11.5,34.45L11.3 34.95Q11.2 35.55 11.8 35.55L12.35 35.4L11.9 34.85L11.7 34.4L11.5 34.45M12.7,36.35L11.75 36.25L11.45 36.3L10.9 36.45L10.55 36.75L10.85 36.9L11.35 37.3L11.7 37.75L11.85 38.05L12.1 38.55L12.25 39L12.55 38.6L12.75 38.1L12.85 37.85L12.95 37.2L12.75 36.45L12.7 36.35M30.4,27.3L29.95 27.2L29.05 26.8L28.45 26.2Q28.1 25.55 28.5 24.75L29.8 25.5L32.2 26.2L33.85 26.35L33.8 26.7L32.7 26.6L31.45 26.4L31.3 26.4L30.85 26.4L30.65 26.45L30.45 26.7L30.4 27.3M11.15,51.8L10.85 52.45L10.45 52.85L10.35 52.95L10.4 53L10.55 52.95L10.65 52.9L10.7 53L10 54.25L9.95 54.25L9.7 54.2L9.15 54.15L9.05 53.5L8.45 53.35L9.75 51.3L9.9 51.5L10.2 51.75L10.6 51.7L11.1 51.55L11.15 51.5L11.15 51.8" />
<path style="fill:#0E5566;fill-opacity:1" d="M26.3,29.6L26.05 29.15L26.7 28.4L26.85 28.15L27.25 27.25L27.6 26.2L27.6 25.35L27.6 25.25L26.95 23.65L26.85 23.45L26.55 22.9L25.9 22.2L26.25 21.85L26.5 22.2L26.95 22.95L27.6 24.15L27.65 24.25L27.75 24.6L27.95 25.35L27.95 25.55L27.9 26.7L27.85 26.75L27.05 28.45L26.9 28.65L26.3 29.6" />
<path style="fill:#298FA8;fill-opacity:1" d="M25.4,24.25L25.45 24.65L25.75 25.6L25.95 25.9L26.2 26.15L26.35 26.25L26.95 26.45L27.15 26.45L26.15 28.45Q25 27.65 24.25 26.3L25.4 23.75L25.4 24.25" />
<path style="fill:#96EEF7;fill-opacity:1" d="M25.95,23.4Q26.05 22.7 26.45 23.3Q26.85 23.8 26.75 24.35Q26.65 24.8 26.25 24.45Q25.95 24 25.95 23.4" />
<path style="fill:#4F4536;fill-opacity:1" d="M38.1,18.5Q37.85 18.4 37.95 18.05Q38.05 17.75 38.5 17.45L39.15 17Q39.5 17.75 38.95 18.15L38.1 18.5M30.65,14Q31.25 13.7 31.85 14.35Q32.45 14.95 32.7 15.85L33.1 16.9L32.4 17.05L32.15 17.05L31.8 16.95Q30.25 16.4 30.55 14.5L30.65 14" />
<path style="fill:#626262;fill-opacity:1" d="M4.35,23.35L4.4 23.35L4.45 23.4L4.35 23.35" />
<path style="fill:#134370;fill-opacity:1" d="M0.5,33L0.05 33.4L0 32.75L0 32.55L0 32.3L0 32.2L0.1 31.95Q0.45 30.45 2.45 29.8L2.85 30.25Q2.25 30.25 1.45 30.9Q0.9 31.35 0.65 31.95L0.6 32.2L0.55 32.3L0.55 32.35L0.5 32.55L0.5 32.95L0.5 33M2.1,27.5L2.6 27.7L4.3 27.8L5.1 27.5L5.35 27.45L5.25 27.4L6.05 27L6.65 26.95L7.35 27.5L6.3 27.6L4.95 28.1L3.3 28.55L2.4 28.2L2.35 28.2L2.1 27.5M5.05,25.1L4.3 25.5L4.05 25.7L3.65 25.45L3.65 25.4L4.25 24.85L4.7 24.6L5.05 25.1M6.25,24.1L6.9 23.9L7.05 23.9L6.9 23.8L6.85 23.7L6.8 23.65L6.7 23.55L6.15 22.9Q5.6 22.2 5.2 21.2L5.1 21Q5 20.35 5.4 20.1L5.75 19.95L5.8 19.95Q6.95 19.55 7.55 19.5L8.3 19.55L8.7 19.6L8.95 19.7L8.75 19.9L8.6 20.3L8.5 20.25L6 20.55L5.95 20.6L5.8 20.65L5.9 21Q6.5 23.05 8.35 24.1L8.6 24.8L8.55 24.8L8.45 24.75L8.3 24.7L7.8 24.45L7.65 24.4L7.6 24.35L7.55 24.4L7.4 24.45L6.25 24.1M8.95,19.65Q9.1 18.4 9.85 17.6L10.3 17.15Q10.8 16.75 11.3 16.65Q12 16.45 11.85 17.15L11.8 17.4L11.75 17.35L10.65 17.5L10.55 17.55Q9.75 17.9 8.95 19.65M12.1,20.45L12.05 19.9L12.05 19.4L12.7 20.1L13.3 20.45Q12.95 20.6 12.75 20.8L12.4 20.6L12.1 20.45M13.6,20.3L13.6 20.1Q13.85 18.7 15 18.1L15.05 18.05L15.2 18L15.45 18.65L15.15 18.85L15.05 18.95Q14.5 19.45 14.3 20.1L13.6 20.3M11.15,18.85L11.2 19L11.2 19.05L11.2 19L11.15 18.85M15.85,19.95Q15.5 19.35 15.45 18.65L15.85 19.55L16.05 19.95L15.85 19.95M7.9,32.45L8 32.3L8.05 32.2L8.2 31.95L8.4 31.65L8.45 31.6L8.95 31.1L9.6 31.1L9.3 31.35L8.95 31.75L8.8 31.95L8.6 32.2L8.5 32.3L8.5 32.35L7.9 32.45" />
<path style="fill:#7ECDFA;fill-opacity:1" d="M6.95,22.1L6.15 21L6.05 20.75L6 20.55L8.5 20.25L8.6 20.3L8.45 20.8L6.55 20.7L6.65 21.25L6.7 21.55L6.95 22.1M11.2,19L11.2 19.05L11.2 19.1L11.2 19M15.05,20L15.05 19.4L15.05 19L15.15 18.85L15.45 18.65Q15.5 19.35 15.85 19.95L15.55 19.95L15.35 19.45L15.35 19.95L15.05 20" />
<path style="fill:#2E679C;fill-opacity:1" d="M8.15,22.95L8.2 23.55L8.35 24.1Q6.5 23.05 5.9 21L5.8 20.65L5.95 20.6L6 20.55L6.05 20.75L6.15 21L6.95 22.1L8.15 22.95M15.05,19L15.05 19.4L15.05 20L14.5 20.05L14.3 20.1Q14.5 19.45 15.05 18.95L15.15 18.85L15.05 19" />
<path style="fill:#4397C6;fill-opacity:1" d="M6.95,22.1L6.7 21.55L6.65 21.25L6.55 20.7L8.45 20.8Q8.05 21.9 8.15 22.95L6.95 22.1M12.35,21.3L12.1 20.45L12.4 20.6L12.75 20.8L12.5 21.1L12.4 21.2L12.35 21.3M15.35,19.95L15.35 19.45L15.55 19.95L15.35 19.95" />
<path style="fill:#65B8E7;fill-opacity:1" d="M7.65,24.5L7.4 24.45L7.55 24.4L7.65 24.5M4.45,25.9L4.4 25.95L4 25.75L4.05 25.7L4.3 25.5L5.05 25.1L5.15 25.3L5.3 25.45L4.45 25.9M3.1,28.75L2.65 28.65L2.35 28.2L2.4 28.2L3.3 28.55L4.95 28.1L6.3 27.6L7.35 27.5L7.5 27.65Q7.1 27.65 6.2 28.1L5.7 28.4Q4.35 29.05 3.1 28.75M2.95,30.35Q1.9 30.8 1.45 31.5L2.3 31.4Q1.8 31.55 1.5 31.9L1.4 31.95L1.1 32.2L1 32.3L0.85 32.55L0.5 32.95L0.5 32.55L0.55 32.35L0.55 32.3L0.6 32.2L0.65 31.95Q0.9 31.35 1.45 30.9Q2.25 30.25 2.85 30.25L2.9 30.3L2.95 30.35M9.55,31.95L9.25 32.2L9.1 32.3L9.05 32.35L8.5 32.35L8.5 32.3L8.6 32.2L8.8 31.95L8.95 31.75L9.3 31.35L9.6 31.1L9.65 31.25L9.85 31.75L9.55 31.95" />
<path style="fill:#265683;fill-opacity:1" d="M7.65,24.5L7.55 24.4L7.6 24.35L7.65 24.4L7.8 24.45L8.3 24.7L7.65 24.5M12.65,31.3L12.65 30.95L12.55 30.65L13.05 30.4L13.2 30.95L13.3 31.9L12.65 31.3M16.6,32.4L16.7 32.55L16.7 32.6L16.75 33.55L16.6 32.4M6.05,26.35L6.65 26.95L6.05 27L6 27L4.7 26.55L4.15 26.15L3.9 25.95L4 25.75L4.4 25.95L6.05 26.35M4.6,30L6.1 30.15L7.35 30.7L8.7 31.05L6.75 31.25L4.45 30.8L3.35 30L3.1 29.75Q2.6 29.25 2.45 28.8L2.35 28.55L2.35 28.2L2.65 28.65Q3.45 29.65 4.6 30M0.5,32.95L0.85 32.55L1 32.3L1.1 32.2L1.4 31.95L1.5 31.9L1.7 31.8L2.6 31.6L2.15 31.95L2.35 31.9L3.75 32.15L4 32.2L5.3 32.2L5.4 32.15L5.45 32.15L4.75 31.95L4.65 31.9Q3.7 31.5 2.95 30.35L2.9 30.3L3 30.35Q4.8 31.95 7 31.8L8.45 31.5L8.4 31.6L8.35 31.65L8.2 31.85L8.15 31.95L7.9 32.2L7.75 32.3L7.4 32.55Q5.95 33.45 4.25 33.05L1.4 33.2L0.7 33.85L0.5 33L0.5 32.95M6.15,34.3L6.4 34.4L4.1 34.55L3.95 34.5L4.45 33.65L4.7 33.7L5 33.7L6.15 33.65Q5.95 34 6.15 34.3M4.75,35.5Q5 35.75 4.7 35.8Q3.7 36 4.6 35.45L4.75 35.5M9.85,32.3L9.5 32.3L9.4 32.3L9.35 32.25L9.4 32.2L9.65 31.95L9.85 31.8L10 32.25L9.85 32.3M7.4,35.35Q6.6 35.5 6 35.8Q6.05 35.35 6.55 34.9L6.9 34.65L6.55 34.45Q7.2 34.7 7.4 35.35M5.4,36.25L4.5 37.55L4.25 38.25Q4.35 37.2 4.8 36.25L5.35 35.45Q5.6 35.2 5.6 35.45Q5.55 35.8 5.75 35.85L5.9 35.9L5.4 36.25" />
<path style="fill:#648595;fill-opacity:1" d="M18.8,18L18.8 17.85Q18.85 17.25 19 17L18.55 17.55L18.65 16L19.3 13.85L19.3 13.8L19.95 13.1L19.8 13.7L19.95 13.6L19.6 16.55L19.45 17.55L18.8 18M6.7,26.1L6.05 25.3L6.5 25.4L6.7 25.55L6.6 25.35L6.95 25.45L9.35 26.1L9.55 26.35L10.5 27.15L10.05 26.95L10.5 27.45L9.4 27.25L9.15 27.2L8.9 27.1L7.35 26.45L6.75 26.1L6.7 26.1M17.2,15.85Q16.45 17.55 16.65 18.6L16.25 17.05L16 17.9L16 17.85L15.65 15.65L15.6 15.4Q15.8 14.4 16.25 13.5L16.7 14.45L16.7 14.15L16.75 14.1L16.9 14.35L17.3 15.6L17.2 15.85M8.05,30.25L7.9 30.25L7.1 29.95L5.9 29.3L7 28.95L6.7 28.9L6.7 28.85L6.9 28.7L8.1 28.55L8.3 28.5L8.45 28.6L8.55 28.7L9.55 29.25L11.4 29.6L9.65 29.8L9.65 29.85L10.25 30.1L10.5 30.2L10.45 30.2L9.95 30.25L8.05 30.25" />
<path style="fill:#354B59;fill-opacity:1" d="M7.35,26.45L8.9 27.1L9.15 27.2L9.4 27.25L10.5 27.45L10.05 26.95L10.5 27.15L11.75 27.5L11.65 27.6L11.5 28L11.9 28.75L11.15 28.65L9.9 28.25L9.75 28.2L8.4 27.55L7.6 26.95L7.3 26.7L7 26.4L6.75 26.1L7.35 26.45M18.65,16L18.55 17.55L19 17Q18.85 17.25 18.8 17.85L18.8 18L18.7 18.05L18.05 18.6L17.6 19.25L17.6 19.2Q17.35 18.45 17.75 17.05Q18.1 15.55 18.8 14.45L19.3 13.85L18.65 16M16.85,20.05L16.55 19.7Q15.9 18.85 15.7 17.85L15.6 16.95L15.6 15.4L15.65 15.65L16 17.85L16 17.9L16.25 17.05L16.65 18.6Q16.45 17.55 17.2 15.85L17.3 15.6L17.5 15.25L17.5 15.4L17.6 15.65L17.45 16.05L17.05 17.55Q16.8 18.9 17.45 19.95L17.4 20.1L17.35 20.2L16.85 20.05M12.2,30.15L11.05 30.5L10.1 30.25L9.95 30.25L10.45 30.2L10.5 30.2L10.25 30.1L9.65 29.85L9.65 29.8L11.4 29.6L9.55 29.25L8.55 28.7L8.45 28.6L8.3 28.5L8.25 28.45L8 28.25L8.1 28.25L8.45 28.2L8.85 28.4L10.4 29.1L11.9 29.3L12.3 29.25L12.75 29.85L12.2 30.15M9.45,30.5L7.9 30.25L8.05 30.25L9.95 30.25L9.6 30.35L9.5 30.5L9.45 30.5" />
<path style="fill:#FFF9F3;fill-opacity:1" d="M13.25,21.9L13.2 22L13.1 21.9L12.95 21.8L13 21.8L13.25 21.5L13.6 21.25Q13.85 21 14.25 20.9L14.8 20.75L15.25 20.7L15.4 20.7L16.45 20.85L16.55 20.85L17.05 21L17.6 21.15L17.65 21.2L17.7 21.5L17.7 21.7L17.1 21.45L15.9 21.35L15.85 21.5L15.85 21.55L15.65 21.6L15.45 21.5L15.1 21.6L14.95 21.6L14.7 21.5L14.15 21.55L13.9 21.65L13.75 21.75Q13.45 21.55 13.25 21.9M21.95,32.8L21.8 32.9L20.9 33.1L19.7 33Q18.25 32.65 17.65 31.8L17.35 31.05L17.3 30.6L17.45 30.15L17.6 30.45L17.9 30.95L18.2 31.35Q19.05 32.35 21.1 32.45L22.25 32.35L22.05 32.75L22.05 32.8L21.95 32.8" />
<path style="fill:#41412C;fill-opacity:1" d="M22.1,44.5L22.75 44.75L22.95 44.75L22.6 45L21.9 45.1L21.45 45.05Q20.6 44.9 20.1 44.5L19.55 43.85L19.55 43.25L19.7 41L19.7 40.8L19.7 40.35L19.5 37.8L18.45 37.8Q18.55 37.25 18.05 37.15L17.8 37.1L17.9 37.1L19.45 37.2L19.45 36.85L19.45 36.55L19.5 36.35L19.55 36.05L19.55 36L19.75 35.5L19.75 35.55L19.95 36.5L20.1 37.3L20.15 37.65L20.2 38.2L20.25 39.2L20.3 40.7L20.25 41.3L20.25 41.35L20.2 43.85Q21.05 44.6 21.95 44.5L22.1 44.5M18.2,24.65L17.85 21.75L17.85 21.7L17.8 21.5L17.7 21.5L17.65 21.2L17.6 21.15L17.6 20.55L17.6 20.25L17.6 19.4L17.6 19.3L17.6 19.25L18.05 18.6L18.5 19.75L18.5 20L18.9 19.45L18.9 19.4L18.95 19.4L19.1 19.35L19.2 19.25L19.3 20.45L19.3 20.6L19.3 21.3L19.35 21.75L19.5 21.8L19.5 22.2Q20.15 22.7 19.75 23.65L19.5 23.85Q19.75 23 19.4 22.45L18.45 21.4L18.45 21.65L18.5 21.65L18.5 22.05L18.55 22.45L18.45 24.75L18.2 24.65M14.1,32.5L13.85 32.7L13.3 31.9L13.2 30.95L13.05 30.4L12.75 29.85L12.3 29.25L11.9 28.75L11.5 28L11.65 27.6L11.75 27.5L12.05 27.5L13.5 27.25L13.85 27.05L14.15 27.45L14.15 27.5L14.3 27.7L14.9 28.2L14.95 28.2L15.1 28.4L15.25 28.5L14.95 28.5L14.4 28.3L13.55 27.75L12.85 27.6L12.7 27.6L12.45 27.65L12.35 27.7Q11.9 27.95 12.45 28.55L12.55 28.65L12.9 29.05L13.2 29.5L13.4 29.9L13.5 30.15L13.65 30.55L13.8 31.45L13.85 31.65L14 32.15L14.25 32.3L14.35 32.3L14.1 32.5M12.85,21.95L12.5 21.5L12.35 21.3L12.4 21.2L12.5 21.1L12.85 21.7L12.95 21.8L12.85 21.95M20.95,34.6Q20.4 34.45 20.9 34.35L20.95 34.35Q21.55 34.2 21.9 34.35L22.2 34.55L22.4 34.9L22.35 35.45L22.2 35.7L22.05 35.75L22.05 35.7Q22 34.8 21.15 34.65L20.95 34.6M16.7,36.8L16.8 36.9L16.55 36.8L16.6 36.7L16.7 36.8M16.65,33.75L16.7 33.7L16.75 33.55L16.7 32.6L16.7 32.55L16.6 32.4L16.55 32.35L16.3 31.9L16.6 31.9L16.85 32L17.05 32.1Q17.45 32.5 17.3 33.15L17.2 33.85L16.65 33.75" />
<path style="fill:#918A7B;fill-opacity:1" d="M18.5,19.75L18.5 19.4L18.9 19.4L18.9 19.45L18.5 20L18.5 19.75M15.55,27.5L16.25 28.35L16.3 28.55L15.95 28.55L15.8 28.55L15.15 28.35L14.95 28.2L14.9 28.2L14.3 27.7L14.15 27.5L14.15 27.45L13.85 27.05L14.25 26.75L15.55 27.5M14.75,23.25L14.65 23.15L14.65 22.9L15.5 23.05L15.5 23.1L15.6 23.75L14.75 23.25M13.1,22.2L12.85 21.95L12.95 21.8L13.1 21.9L13.2 22L13.1 22.2M18.15,24.65L17.7 24.6L17.6 24.25L17.7 21.7L17.7 21.5L17.8 21.5L17.85 21.7L17.85 21.75L18.2 24.65L18.15 24.65M19.45,23.85L19.45 24.05L19.3 25.35L19.15 25.1L18.9 24.85L18.45 24.75L18.55 22.45L18.5 22.05L18.5 21.65L18.45 21.65L18.45 21.4L19.4 22.45Q19.75 23 19.5 23.85L19.45 23.85M19,25.05L18.9 24.85L19 25L19 25.05M14.5,32.15L14.35 32.3L14.25 32.3L14 32.15L13.85 31.65L13.8 31.45L13.65 30.55L13.5 30.15L13.4 29.9L13.2 29.5L12.9 29.05L12.55 28.65L12.45 28.55Q11.9 27.95 12.35 27.7L12.45 27.65L12.7 27.6L12.6 27.75L12.75 28.2L12.95 28.5L13.25 28.9L13.15 29.1Q13.05 29.35 13.3 29.45L13.65 29.5L13.95 29.75L14.25 30.15L14.45 30L14.65 30.15L14.75 30.75L14.6 30.9L14.55 30.9L14.45 30.85L14.45 30.95L14.5 31.15L14.6 31.45L14.85 31.65L14.5 32.15M15.95,31.5L15.95 31.45L16.35 31.4L16.6 31Q16.95 30.95 17.15 31.3L17.2 31.55L17.2 31.6Q18 31.9 17.75 33.9L17.75 33.95L17.7 34L17.55 33.95L17.2 33.85L17.3 33.15Q17.45 32.5 17.05 32.1L16.85 32L16.6 31.9L16.3 31.9L15.95 31.5M19.5,36.35L19.45 36.55L19.45 36.85L19.45 37.2L17.9 37.1L17.8 37.1L17.15 36.95L16.8 36.9L16.7 36.8L17 36.55L17.4 36.3L17.4 36.25L17.95 36.45Q18.05 36.25 18.5 36L18.55 36.05L18.75 36.2L18.8 36.5L19.1 36.5L19.25 36.45L19.55 36.05L19.5 36.35M21.95,44.4L21.95 44.5Q21.05 44.6 20.2 43.85L20.25 41.35L20.25 41.3L20.3 40.7L20.25 39.2L20.2 38.2L20.15 37.65L20.1 37.3L19.95 36.5L19.75 35.55L19.75 35.5L19.7 35.2L19.85 35.4L19.85 35.45L19.95 35.5L19.85 35.3L20.3 36.1L20.55 35.85L20.8 36.05L20.7 36.25L20.35 36.3L20.7 37.35L20.7 40.15Q20.3 40.55 20.4 40.75L20.75 40.9L20.8 43.05Q20.3 43.5 20.9 43.6L20.9 43.7L21.15 43.4Q21.55 43.45 21.55 43.9L21.5 44.05L21.95 44.35L21.95 44.4M21.15,34.65Q22 34.8 22.05 35.7L22.05 35.75Q20.9 35.7 20.95 34.6L21.15 34.65M17.3,28.85L17.1 28.55Q17.05 28.35 17.3 28.1L17.95 28.25L17.35 28.7L17.3 28.75L17.3 28.85M22.85,32L22.65 31.45Q22.4 30.4 21.35 29.3L20.05 28.4L19.9 28.35L20.6 28.3L21.55 28.15L21.8 28.45Q22.9 29.55 23 30.7L23.1 31.7L23.1 31.75L23.15 31.75L23.1 31.85L23 32.05L22.85 32M15.35,29.75Q14.35 29.95 15.1 29.3L15.4 29.55L15.35 29.75M14.25,28.65Q14.4 28.8 14.2 28.85L13.85 28.9Q13.55 28.9 14.05 28.55L14.2 28.6L14.25 28.65M19.15,35.1Q18.25 35.35 18.95 34.6Q19.2 34.6 19.25 34.85L19.15 35.1M20.55,25.05L20.45 25.1Q19.25 25.45 20.15 24.5L20.45 24.65L20.55 24.8L20.55 25.05M21.5,39.8Q20.55 39.6 21.45 39.1Q21.8 39.2 21.7 39.65L21.5 39.8" />
<path style="fill:#969BA1;fill-opacity:1" d="M14.95,25.9L15.1 25.65L15.8 25.95L16.2 26.05L19.35 26.25L19.35 26.2L19.4 26.25L19.3 26.3Q17.55 26.95 15.75 26.3L15.1 26L14.95 25.9M15.25,24.45L15.25 24.35L15.2 24.1L15.7 24.4L17.95 25.2L18.75 25.35L18.8 25.35L18.1 25.4L16.5 25L15.8 24.7L15.75 24.65L15.25 24.45M14.1,22.8L13.45 22.4L13.55 22.3L13.6 22.15L14.1 22.8M21.35,27.45L21.2 26.95L20.45 27L20 26.85L20.1 26.6L21.45 26.85L21.45 26.95L21.55 27.35L21.35 27.45M12.9,33.7L12.65 33.6L12.5 32.85L12.05 32.05L11.7 31.65L11.3 31.3L12.25 31.9L12.85 32.55L13.25 33.1L13.4 33.4L13.25 33.6L13.2 33.65L12.9 33.7M15.75,32.55L15.55 32.9L15.5 32.6L15.5 32.5L15.4 32.6Q14.65 33.55 13.4 33.9L13.55 33.55L13.7 33.5L14.65 32.85L15.2 32.25L15.35 32.1L15.5 31.85L15.65 32L15.7 32.1L15.8 32.25L15.75 32.55M16.8,34.85L16.35 34.7L15.7 34.65L16.4 34.5L17.05 34.55L17.45 34.65L17.35 34.7L16.8 34.85M16.85,38.15L16.3 38.2L16.75 37.9L15.4 37.05L15.65 36.9L15.85 37.15L16.35 37.45L17.3 37.7L17.7 37.8L16.85 38.15M14.5,40.9Q14.95 39.8 14.35 39L14.6 39.05L14.7 39.15Q15.15 39.7 15.1 40.45Q15.05 41.2 14.5 41.7Q14.7 41.35 14.5 40.9M10.1,41.15L10.55 40.4Q10.7 41.2 10.45 41.8L10.1 42.1L9.6 42.45L9.35 42.45L9.8 41.6L9.9 40.6L9.7 39.6L9.4 39.1L9.85 39.3L10.1 39.4L10.1 41.15M7.55,37.85L8.05 37.95L7.7 38.25L7.25 38.9L6.8 39.8Q6.75 39.3 7.05 38.75L7.4 38.2L7.5 37.85L7.55 37.85M7.95,35.95L8.05 36.4L7.5 36.35Q6.6 36.35 5.75 36.9L5.6 36.95Q6.2 36.35 7 36L7.65 35.85L7.9 35.85L7.95 35.95M7.25,33.3L7.45 33.2L8 33.05L8.5 33L9.65 33.15L10.2 33.4L10.25 33.55L10.35 33.95L10.35 34.1L10.35 34.15L10.3 34.1L9.8 33.65L8.45 33.3L8.25 33.3L7.9 33.3L7.4 33.3L7.25 33.3M11.15,36.6L11.65 37L12.2 37.7L12.35 37.9L12.5 37.75L12.55 37.6L12.75 36.95L12.75 36.45L12.95 37.2L12.85 37.85L12.75 38.1L12.55 38.6L12.25 39L12.1 38.55L11.85 38.05L11.7 37.75L11.35 37.3L10.85 36.9L10.55 36.75L10.9 36.45L11.15 36.6M32.15,27.15Q32.25 26.75 32.7 26.9L32.9 27.15Q32.55 27.5 32.15 27.15M22,27L22 27.05L21.75 27.05L21.75 26.85L21.95 26.8L22.1 27L22 27M19.7,53.4L19.75 53.35L19.75 53.5L19.75 53.75L19.75 53.8L19.7 53.75L19.7 53.45L19.7 53.4" />
<path style="fill:#3F3629;fill-opacity:1" d="M20.05,28.4L21.35 29.3Q22.4 30.4 22.65 31.45L22.85 32L22.25 32.35L21.1 32.45Q19.05 32.35 18.2 31.35L17.9 30.95L17.6 30.45L17.45 30.15L17.25 29.7Q17.2 29.2 17.3 28.85L17.3 28.75L17.35 28.7L17.95 28.25L18.9 28.35L19.9 28.35L20.05 28.4" />
<path style="fill:#3484B1;fill-opacity:1" d="M12.05,30.8L12.55 30.65L12.65 30.95L12.65 31.3L11.95 30.9L11.9 30.85L12.05 30.8M4.4,25.95L4.45 25.9L5.3 25.45L6.05 26.35L4.4 25.95M2.65,28.65L3.1 28.75Q4.35 29.05 5.7 28.4L5 29.1L5.65 29.85L5.75 29.95L6 30.1L6.1 30.15L4.6 30Q3.45 29.65 2.65 28.65M4.65,31.9L4.75 31.95L5.45 32.15L5.4 32.15L5.3 32.2L4 32.2L3.75 32.15L2.35 31.9L2.15 31.95L2.6 31.6L1.7 31.8L1.5 31.9Q1.8 31.55 2.3 31.4L1.45 31.5Q1.9 30.8 2.95 30.35Q3.7 31.5 4.65 31.9M4.25,38.35Q3.6 37.65 3.4 36.7Q3.25 35.75 3.95 34.5L4.1 34.55L6.4 34.4L6.55 34.45L6.9 34.65L6.55 34.9Q6.05 35.35 6 35.8L5.9 35.9L5.75 35.85Q5.55 35.8 5.6 35.45Q5.6 35.2 5.35 35.45L4.8 36.25Q4.35 37.2 4.25 38.25L4.25 38.35M4.6,35.45Q3.7 36 4.7 35.8Q5 35.75 4.75 35.5L4.6 35.45M10,32.25L10.1 32.65L9.05 32.35L9.1 32.3L9.25 32.2L9.55 31.95L9.85 31.75L9.85 31.8L9.65 31.95L9.4 32.2L9.35 32.25L9.4 32.3L9.5 32.3L9.85 32.3L10 32.25" />
<path style="fill:#3D9BDE;fill-opacity:1" d="M17.3,36.25L17.3 35.8L17.45 35.5L17.4 35.5L17.5 35.4L18.2 34.75L18.25 34.3Q18.15 34.1 17.75 34L17.75 33.95L17.75 33.9L19.15 33.2Q18.95 34.25 18.35 35.2L17.95 35.7L17.95 35.75L17.4 36.25L17.3 36.25" />
<path style="fill:#1C62AF;fill-opacity:1" d="M17.7,34L17.75 33.95L17.75 34L17.7 34M17.4,35.5L17.45 35.5L17.3 35.8L17.3 36.25L17.4 36.25L17.4 36.3L17 36.55L16.7 36.8L16.6 36.7L17.4 35.5" />
<path style="fill:#F7EAEA;fill-opacity:1" d="M6.75,26.1L6.7 26.15L6.7 26.1L6.75 26.1" />
<path style="fill:#0E3151;fill-opacity:1" d="M5.4,38.85L5.75 38.8L5.7 38.9Q5.65 39.4 4.85 39.2L4.65 39.1L5.4 38.85M4.15,38.9L3.6 38.4L3.05 37.5L2.85 36.45L3 35.3L3.4 34.35L3.8 33.55L3.3 33.45L3.25 33.4L1.95 33.45Q1.3 33.7 0.8 34.45Q0.55 34.85 0.3 34.3L0.05 33.6L0.05 33.4L0.5 33L0.7 33.85L1.4 33.2L4.25 33.05Q5.95 33.45 7.4 32.55L7.75 32.3L7.9 32.2L8.15 31.95L8.2 31.85L8.35 31.65L8.4 31.6L8.45 31.5L7 31.8Q4.8 31.95 3 30.35L2.9 30.3L2.85 30.25L2.45 29.8L2.3 29.65L2.25 29.6L1.95 28.95Q1.8 28.65 1.8 28.2L1.8 27.9Q1.8 27.45 2.1 27.5L2.35 28.2L2.35 28.55L2.45 28.8Q2.6 29.25 3.1 29.75L3.35 30L4.45 30.8L6.75 31.25L8.7 31.05L8.75 31.05L8.95 31.1L8.45 31.6L8.4 31.65L8.2 31.95L8.05 32.2L8 32.3L7.9 32.45L7.7 32.5Q6.65 32.9 6.2 33.55L6.15 33.65L5 33.7L4.7 33.7L4.45 33.65L3.95 34.5Q3.25 35.75 3.4 36.7Q3.6 37.65 4.25 38.35L4.15 38.9M4.05,25.7L4 25.75L3.9 25.95L4.15 26.15L4.7 26.55L6 27L6.05 27L5.25 27.4Q4.65 27.2 4.05 26.8L3.4 26.3L3.3 26.05L3.5 25.6L3.65 25.45L4.05 25.7" />
<path style="fill:#543914;fill-opacity:1" d="M23.6,39.9L24.4 39.3L24.5 39.25L25 39.75L24.65 40L23.55 40.7L23.6 39.9M17.95,38.7L19.7 40.35L19.7 40.8L19.7 41L17.85 39.45L17.5 39.1L17.95 38.7M15.15,43.3L14.2 43L14.25 42.65L14.8 43.05L15.9 42.75L16.75 41.45Q17.1 40.5 17.05 39.8L16.95 39.35L17 39.3L17.4 39.15L17.5 39.7L17.35 41.35Q17.1 42.35 16.5 42.9L15.7 43.55L15.15 43.3M18.55,49.6L18.55 49.5L18.65 49.05L18.7 49.3Q18.85 49.75 19.35 50L19.7 50.1L20.15 50.1L20.35 50Q20.25 50.05 20 49.7L21.2 50L21.3 50.3Q21.35 50.7 20.7 50.85L20.35 50.95L20.15 50.95L19.8 50.9L19.6 50.8L19.25 50.65L19.15 50.6L18.9 50.35L18.85 50.3L18.7 50.15L18.65 50L18.6 49.8L18.55 49.6M20.25,53.7L20.3 53.2L20.35 53.05L20.4 53.05L21.05 53.55L20.25 53.7M12.5,48.95L12.45 48.8L12.95 48.8L13.1 49.45L13.1 49.8L13.35 51L13.65 51.75Q14.25 52.85 15.45 53.65L16 53.9L16.2 54L16.3 54L16.65 54.15L17.3 54.15L17.6 53.95L17.75 53.5L17.5 53.2L17.35 53.05L17.05 52.7L16.9 52.4L16.75 52.15L16.9 52.25L18.05 52.75L18.4 52.85L18.5 52.9L18.7 52.9L19.65 52.55L19.75 52.4L19.7 51.85L19.7 51.7L20.05 51.6L20.35 51.45L20.35 52.5Q20.3 53.15 19.75 53.35L19.7 53.4L19.6 53.4L19.35 53.45L19.05 53.55L18.45 53.65L18.2 54.3L17.95 54.6L16.95 54.75L16.75 54.75L16.85 54.9L17.9 55.15L19.5 55.2L21.6 55.55L20.9 55.75L18.2 55.9L16.2 55.55Q15.8 55.35 15.9 54.55L15.15 54.25Q14.6 53.95 13.8 52.9L12.8 51.3L12.6 49.85L12.6 49.65L12.5 48.95M12.4,51.8L12 51.6L11.9 51.2L11.85 51.1L11.85 51.05L11.55 50.4L11.95 49.85L12 50.05L12.5 51.55L12.55 51.8L12.4 51.8M8.1,54.3Q8.1 54.95 8.25 55.1L9.15 55.3L9.9 55.4L10.1 55.6L10.45 55.75L10.55 55.65L10.65 55.35L10.95 55.35L12.05 55.15L11.45 54.35L11.8 53.95L12.45 54.8Q12.7 55.35 12.3 55.65L11.7 55.85L9.4 55.95L7.7 55.65Q7.25 55.4 7.6 54.05L7.75 53.65L7.85 53.7L8.3 53.8L8.1 54.3M9.55,50.7L9.25 51.25L8.15 49.35L8.65 49.1L8.9 49.65L9 49.8L9.15 49.95L9.55 50.7M11.5,47.6L10.5 46.8L9.55 46.2L9.35 46.05L9.05 45.8L8.75 45.15L8.7 44.95L8.55 44.8L8.65 45.1L8.55 45.1L8.15 45.35L7.85 43.55Q7.7 42.15 7.85 40.95L7.9 40.75L8.05 40.6L8.3 41.1L8.35 41.2L8.35 42.95L8.7 41.75L8.9 41.25L9.1 40.75L9.3 40.4L9.3 40.75Q9.35 41.5 8.9 42.1Q8.55 42.65 9 42.8L8.95 43Q8.75 43.65 8.85 44L9 43.9L9.05 44.4L9.1 44.75L9.3 45.2L9.55 45.55L11.6 47.15L11.5 47.55L11.5 47.6M11.25,43.25L11.5 42.85L11.9 42.25L12.5 41.85L13.15 41.15L13.25 41.15L12.95 41.75L12.7 42.2L12.5 42.55L12.05 43.3L11.25 43.25M23.6,37L23.6 36.35L23.65 36.3L23.65 36.95L23.6 37" />
<path style="fill:#12120D;fill-opacity:1" d="M8.35,40.35L8.45 40.5L8.9 41.25L8.7 41.75L8.35 41.2L8.3 41.1L8.35 40.35M14.55,43.55L12.5 42.55L12.7 42.2L13.7 42.75L14.2 43L15.15 43.3L14.65 43.55L14.55 43.55M15.35,45.65L15.55 45.5L15.65 45.35L15.85 45.35L16.15 45.25L15.6 45.9L15.55 45.95L15.35 45.65" />
<path style="fill:#C4944D;fill-opacity:1" d="M8.7,41.75L8.35 42.95L8.35 41.2L8.7 41.75M10.2,42.95L9.95 43.3L9.75 43.65L9.7 43.65L9.7 43.8L9.95 44.55L10.3 45.15L11.15 46.05L11.6 46.4L11.9 46.6L11.6 47.15L9.55 45.55L9.3 45.2L9.1 44.75L9.05 44.4L9 43.9L8.85 44Q8.75 43.65 8.95 43L9 42.8L9.15 42.85L10.25 42.9L10.2 42.95M11.5,42.85L11.25 43.25L10.35 42.9L11.15 42.6L11.9 42.25L11.5 42.85M12.7,42.2L12.95 41.75L13.25 41.15Q13.85 41.25 14.1 42.05Q14.35 42.8 14.9 42.2L14.95 42.35Q15.3 42.65 15.8 42.75L15.9 42.75L14.8 43.05L14.25 42.65L14.2 43L13.7 42.75L12.7 42.2M15.75,39.95L15.65 39.6L16.95 39.35L17.05 39.8L15.75 39.95M8.75,45.15L8.65 45.1L8.55 44.8L8.7 44.95L8.75 45.15M17.95,38.7L18.3 38.1L18.45 37.8L19.5 37.8L19.7 40.35L17.95 38.7M19.8,49.45L19.85 49.5L20 49.7Q20.25 50.05 20.35 50L20.15 50.1L19.7 50.1L19.35 50Q18.85 49.75 18.7 49.3L18.65 49.05L18.55 49.5L18.4 49.15L18.4 48.95L18.45 48.65L18.95 48.75L19.3 49.1L19.4 49.2L19.75 49.45L19.8 49.45M17.5,53.2L17.75 53.5L17.6 53.95L17.3 54.15L16.65 54.15L16.3 54L16.2 54L16 53.9L15.45 53.65Q14.25 52.85 13.65 51.75L13.35 51L13.1 49.8L13.1 49.45L12.95 48.8Q13.1 48.35 13.5 48L13.75 48.75L13.75 48.85L13.9 50.5L14 51Q14.3 51.8 15.35 52.8L16.15 53.4L16.25 53.4Q17.05 53.8 17.5 53.2M19.6,52.3L19.7 51.85L19.75 52.4L19.65 52.55L18.7 52.9L18.5 52.9L18.4 52.85L18.05 52.75L16.9 52.25L16.75 52.15L16.9 52.4L17.05 52.7L16.9 52.5L16.65 52.1L16.45 51.6L16.9 51.55L16.95 51.6L17.3 51.8L17.75 52.05L17.85 52.1L18.75 52.3L19.6 52.3M26.3,37.85L26.35 37.05L26.9 37.5L27.25 37.7L27.5 37.8L28.8 37.85L29.4 37.7L29.35 37.5Q29.2 36.2 29.75 35.3L30.05 34.85L30.2 34.65L30.15 35.1L30 36.1L30 37.7Q30.15 38.15 29.45 38.65L29.25 38.75L28.8 38.9L27.4 38.85L27.25 38.8Q26.95 38.75 26.75 38.55L26.35 37.9L26.3 37.85M27.2,34.8L27.4 34.85L28 35.2L28.4 35.7L27.95 35.5L27.7 35.45L27.45 35.4L27.3 35.4L26.55 35.55L26.65 34.95L26.7 34.6L27.2 34.8M26,35.45L26 35.6L25.95 35.9L25.95 35.95L25.9 36.15L25.85 36.3L25.8 36.5L25.75 36.55L25.2 36.65Q24.95 36.55 25 36.2L25 36L25.05 36L25.2 36.05L25.45 36L25.75 35.85L25.9 35.6L26 35.45M24.4,39.3L23.6 39.9L23.6 37L23.65 36.95L23.65 37.15L24.25 38.85L24.5 39.25L24.4 39.3M19.5,55.2L17.9 55.15L16.85 54.9L16.75 54.75L16.95 54.75L17.95 54.6Q18.2 54.85 19.2 55.15L19.5 55.2M18.65,54L18.65 54.25L18.25 54.25L18.65 54M10.5,50.8L10.9 50.9L11.2 50.9L11.25 51L10.9 51.05L10.3 50.95L10.15 50.8L10.1 50.65L10.5 50.8M9.15,49.95L9.45 50.25L9.75 50.45L9.7 50.45L9.55 50.7L9.15 49.95M10.65,55.35L10.65 55.25L11 54.75L11.45 54.35L12.05 55.15L10.95 55.35L10.65 55.35M8.3,53.8L8.65 53.85Q8.7 54.75 9.05 54.65L9.6 54.6L9.65 54.75L9.65 54.95L9.9 55.4L9.15 55.3L8.25 55.1Q8.1 54.95 8.1 54.3L8.3 53.8" />
<path style="fill:#E9CB9E;fill-opacity:1" d="M11.9,46.6L11.6 46.4L11.15 46.05L10.3 45.15L9.95 44.55L9.7 43.8L9.7 43.65L9.75 43.65L9.95 43.3L10.2 42.95L10.25 42.9L10.35 42.9L11.25 43.25L11 43.6L10.95 43.6L10.3 43.7L10.8 43.9L10.95 43.95L11.45 44.15L12.4 45L12.65 45.35L12.95 45.7L12.6 45.9L12.55 45.95L11.9 46.6M15.8,42.75Q15.3 42.65 14.95 42.35L14.9 42.2L15.05 42Q15.75 41.15 15.75 40.35L15.75 39.95L17.05 39.8Q17.1 40.5 16.75 41.45L15.9 42.75L15.8 42.75M17.75,47.8L17.95 47.85L18.45 48.1L18.65 48.2Q19.3 48.65 19.4 49.2L19.3 49.1L18.95 48.75L18.45 48.65L18.4 48.95L18.4 49.15L18.55 49.5L18.55 49.6L18.45 49.95Q18.2 50.7 19 51.5L19 51.95L18.75 52.3L17.85 52.1L17.75 52.05L17.3 51.8L16.95 51.6L16.9 51.55L16.45 51.6L16.65 52.1L16.9 52.5L17.05 52.7L17.35 53.05L17.5 53.2Q17.05 53.8 16.25 53.4L16.15 53.4L15.35 52.8Q14.3 51.8 14 51L13.9 50.5L13.75 48.85L13.75 48.75L13.5 48L14 47.6L14.5 47.35L14.6 47.4L15.6 47.85L16.25 47.85L17.1 47.7L17.15 47.7L17.75 47.8M15.55,49.45Q15.25 49.55 15.25 49.8L15.25 49.85L15.4 50.3L15.55 50.5Q16.2 51.3 16.45 51L16.5 51L16.5 50.2L16.4 50.05L16.2 49.75Q15.95 49.45 15.6 49.4L15.55 49.45M16.55,49.15Q16.6 49.6 17.25 49.55Q17.95 49.45 17.45 49.05L16.9 48.9Q16.5 48.85 16.55 49.15M19.2,55.15Q18.2 54.85 17.95 54.6L18.2 54.3L18.25 54.25L18.65 54.25L18.65 54L18.8 53.9L18.9 54.05Q19.35 54.45 19.9 54.55L20.3 54.55L20.35 54.35L20.25 53.9L20.25 53.75Q21.05 54.25 21.3 54.95L20 55.15L19.5 55.2L19.2 55.15M14.75,51.45Q15 51.8 15.15 51.6L15.25 50.95Q15.2 50.5 14.85 50.5Q14.5 51.05 14.75 51.45M11.7,50.9L11.25 51L11.2 50.9L11.3 50.8L11.55 50.4L11.85 51.05L11.7 50.9M11.9,51.2L12 51.6L11.9 51.35L11.9 51.2" />
<path style="fill:#575C62;fill-opacity:1" d="M9.35,46.05L9.55 46.2L9.1 46.5L8.5 46.75L8.3 46.75L8.7 46.35L8.25 46.5L7.3 46.45L8.4 45.85L8.65 45.55L9.05 45.8L9.35 46.05M9.3,49.4L10.4 49.15L10.75 49.1L10.6 49.55L10.45 50.3Q9.7 50 9.3 49.4M8.45,47.25L8.9 47.1L9.45 47.3Q9.95 47.65 9.95 48.1L9.85 48.1L8.7 48.15L8.9 47.9L8.25 48Q7.95 48.05 7.75 48.25L7.25 48.75L7.4 48.05L7.6 47.65L7.85 47.3L8.45 47.25M17.15,46.95L17 46.9L16.55 46.8L16.2 46.5L15.85 45.95L16.05 45.9L16.4 45.8Q16.7 45.65 17.3 46.35L17.65 46.75L17.15 46.95" />
<path style="fill:#252B33;fill-opacity:1" d="M7.3,46.45L8.25 46.5L8.7 46.35L8.3 46.75L8.5 46.75L9.1 46.5L9.55 46.2L10.5 46.8L11.5 47.6Q11.6 48.6 12.45 48.8L12.5 48.95L12.1 48.85L11.95 48.95L11.7 49.25L11.45 49.55L11.3 49.8L11 50.3L10.9 50.45L10.45 50.3L10.6 49.55L10.75 49.1L10.4 49.15L9.3 49.4L9.2 49.2L9.1 48.95L9.5 48.85L9.9 48.75L9.95 48.7L9.95 48.65L9.8 48.55L9.75 48.5L9.7 48.5L9.05 48.5L8.5 48.65L7.95 48.85L7.3 49.15L7.25 48.75L7.75 48.25Q7.95 48.05 8.25 48L8.9 47.9L8.7 48.15L9.85 48.1L9.95 48.1Q9.95 47.65 9.45 47.3L8.9 47.1L8.45 47.25L7.85 47.3L8 47.2L7.7 47.15L6.6 46.6L7.3 46.45M15.5,47.05L15.55 47.05Q15.75 46.65 15.6 46.1L15.85 45.95L16.2 46.5L16.55 46.8L17 46.9L17.15 46.95L17 47L15.85 47.15L15.5 47.05" />
<path style="fill:#876430;fill-opacity:1" d="M15.85,47.15L17 47L17.15 46.95L17.65 46.75L17.9 46.65L18.15 46.65L19.1 47.05L20.1 47.95L20.25 48.45L20.4 48.85L20.6 49.2L20.9 49.55L21.2 50L20 49.7L19.85 49.5L19.8 49.45Q19.45 48.85 19.45 48.2L18.5 47.5L18.45 47.5L17.9 47.4L17.55 47.45Q17.4 47.5 17.3 47.6L17.15 47.7L17.1 47.7L16.25 47.85L15.6 47.85L14.6 47.4L14.5 47.35Q15.05 47.05 15.5 47.05L15.85 47.15M19.5,55.2L20 55.15L21.3 54.95Q21.05 54.25 20.25 53.75L20.25 53.7L21.05 53.55L21.75 54.55Q22.05 55.2 21.6 55.55L19.5 55.2M12.65,45.35L12.4 45L11.45 44.15L10.95 43.95L10.8 43.9L10.3 43.7L10.95 43.6L11 43.6L11.25 43.25L12.05 43.3L11.75 43.75L12.7 44.25L13.6 45.35L12.95 45.7L12.65 45.35M20.2,51.05L20.35 51.45L20.05 51.6L19.7 51.7L19.7 51.85L19.65 51.7L19.65 51.55L19.4 51.1L19.4 51.05L19.1 50.7L18.95 50.55L18.7 50.15L18.85 50.3L18.9 50.35L19.15 50.6L19.25 50.65L19.6 50.8L19.8 50.9L20.15 50.95L20.35 50.95L20.2 51.05" />
<path style="fill:#A19986;fill-opacity:1" d="M15.65,45.35L15.35 45.3L15.25 45.3L15.3 45.2L15.45 44.75L15.4 44.4L14.85 44.7L15.1 44.4L14.05 43.85L14.55 43.55L14.85 43.7L15.25 43.8L15.35 43.85L15.85 44.35L15.85 44.95L15.65 45.35M29.2,31.7Q29.05 31.05 29.55 30.6Q29.8 31.4 29.25 31.75L29.2 31.7M29.65,42.35Q29.85 43.4 29.35 43.6Q28.85 43.8 29.15 42.55Q29.45 41.35 29.65 42.35" />
<path style="fill:#3A2F27;fill-opacity:1" d="M26.7,39.55L26.45 39.75L25.25 39.85L25 39.75L24.5 39.25L24.25 38.85L23.65 37.15L23.65 36.95L23.65 36.3Q23.7 35.8 23.9 35.45L24.7 34.75L24.6 35.1L24.6 35.5L24.55 35.5L24.2 36.1L24.1 36.75L24.15 37.15L24.25 37.5L24.25 37.6L24.65 38.55L24.95 38.95L25.25 39.25L25.45 39.35L26 39.35L26.35 39L26.7 39.25L26.7 39.55M15.55,45.95L15.55 46L15.6 46.1Q15.75 46.65 15.55 47.05L15.5 47.05Q15.05 47.05 14.5 47.35L14 47.6L13.5 48Q13.1 48.35 12.95 48.8L12.45 48.8Q11.6 48.6 11.5 47.6L11.5 47.55L11.6 47.15L11.9 46.6L12.55 45.95L12.6 45.9L12.95 45.7L13.6 45.35L14.45 45.25Q15 45.3 15.35 45.65L15.55 45.95M12.5,47L12.45 47Q12.15 47.35 12.2 47.65L12.6 48.1L12.65 48.1L13.1 47.55L13.3 47.3L13.95 46.8L14.65 46.5L14.95 46.45L14.95 46.35L14.8 46Q14.7 45.85 14.5 45.85L14.15 45.9L14.1 45.9L13.6 46.05L13.35 46.2L12.8 46.65L12.5 47" />
<path style="fill:#B6A998;fill-opacity:1" d="M12.8,46.65L13.35 46.2L13.6 46.05L14.1 45.9L14.15 45.9L14.5 45.85Q14.7 45.85 14.8 46L14.95 46.35L14.95 46.45L14.65 46.5L13.95 46.8L13.3 47.3L12.8 46.65M14.2,46Q12.95 46.25 13.9 46.5L14.35 46.3L14.4 46.25L14.2 46M26.35,37.9L26.75 38.55L26.7 39.25L26.35 39L26 39.35L25.45 39.35L25.25 39.25L24.95 38.95L24.65 38.55L24.25 37.6L24.25 37.5L24.15 37.15L24.1 36.75L24.2 36.1L24.55 35.5L24.6 35.5L24.6 35.75L24.5 35.95L24.6 36.2L24.6 36.25Q24.65 36.9 25 37.05L25.35 37.15L25.5 37.15L25.9 37L26.3 37.85L26.35 37.9M26.35,38.75L25.9 38.35L26.05 38.6L26.35 39L26.35 38.75M26,39.1L26.1 38.8L25.75 38.4L25.15 37.25Q25.05 37.75 24.25 37.6L24.9 38.7L25.05 38.85L25.4 39.2L25.6 39.25L26 39.1" />
<path style="fill:#F5F3EE;fill-opacity:1" d="M14.4,46.25L14.35 46.3L13.9 46.5Q12.95 46.25 14.2 46L14.4 46.25M24.5,35.95L24.6 35.75L24.6 36.2L24.5 35.95" />
<path style="fill:#837462;fill-opacity:1" d="M13.3,47.3L13.1 47.55L12.65 48.1L12.6 48.1L12.2 47.65Q12.15 47.35 12.45 47L12.5 47L12.8 46.65L13.3 47.3M25.6,39.25L25.4 39.2L25.05 38.85L24.9 38.7L24.25 37.6Q25.05 37.75 25.15 37.25L25.75 38.4L26.1 38.8L26 39.1L25.6 39.25" />
<path style="fill:#F0DBBB;fill-opacity:1" d="M19.75,49.45L19.4 49.2Q19.3 48.65 18.65 48.2L18.45 48.1L17.95 47.85L17.75 47.8L17.15 47.7L17.3 47.6Q17.4 47.5 17.55 47.45L17.9 47.4L18.45 47.5L18.5 47.5L19.45 48.2Q19.45 48.85 19.8 49.45L19.75 49.45M18.6,49.8L18.65 50L18.7 50.15L18.95 50.55L19.1 50.7L19.4 51.05L19.4 51.1L19.65 51.55L19.65 51.7L19.7 51.85L19.6 52.3L18.75 52.3L19 51.95L19 51.5Q18.2 50.7 18.45 49.95L18.55 49.6L18.6 49.8" />
<path style="fill:#2F8BCD;fill-opacity:1" d="M15.6,49.4Q15.95 49.45 16.2 49.75L16.4 50.05L16.5 50.2L16.5 51L16.45 51Q16.2 51.3 15.55 50.5L15.4 50.3L15.25 49.85L15.25 49.8Q15.25 49.55 15.55 49.45L15.6 49.4M16.9,48.9L17.45 49.05Q17.95 49.45 17.25 49.55Q16.6 49.6 16.55 49.15Q16.5 48.85 16.9 48.9M14.85,50.5Q15.2 50.5 15.25 50.95L15.15 51.6Q15 51.8 14.75 51.45Q14.5 51.05 14.85 50.5" />
<path style="fill:#66461A;fill-opacity:1" d="M28.85,39.5L28.7 39.5L27.8 39.55L27.35 39.45L26.95 39.35L26.7 39.25L26.75 38.55Q26.95 38.75 27.25 38.8L27.4 38.85L28.8 38.9L29.25 38.75L29.45 38.65Q30.15 38.15 30 37.7L30 36.1L30.15 35.1L30.2 34.65L30.25 34.55L30.3 34.5L30.3 34.45L30.15 33.85L29.75 33.45L29.55 33.25L29.4 33.15L28.8 32.9L28.7 32.9L28.15 32.85L27.45 32.95Q27 33.1 26.65 33.4L26.65 34.3L26.7 34.6L26.65 34.95L26.55 35.55L27.3 35.4L27.45 35.4L27.7 35.45L27.95 35.5L28.4 35.7L28.65 35.9L28.55 36.1L28.05 36.1L27.85 36.1L27.25 36.15L27.2 36.15L26.6 36.3L26.35 37.05L26.3 37.85L25.9 37L25.5 37.15L25.35 37.15L25 37.05Q24.65 36.9 24.6 36.25L24.6 36.2L24.6 35.75L24.6 35.5L24.6 35.1L24.7 34.75L25.05 34.3L25.9 34.15L25.95 34.15L26.05 33.05Q26.25 32.8 27.05 32.4L27.4 32.3L28.15 32.15L28.85 32.25L28.95 32.25L29.55 32.45L29.85 32.6L30.15 32.8L30.2 32.8L30.55 33.25Q31.05 34.05 30.9 34.6L30.8 35.25L30.7 35.85L30.65 36.45L30.65 37.2Q30.75 37.85 30.45 38.4L29.7 39.2L29.55 39.3L28.85 39.5M25,36.2Q24.95 36.55 25.2 36.65L25.75 36.55L25.8 36.5L25.85 36.3L25.9 36.15L25.95 35.95L25.95 35.9L26 35.6L26 35.45L26 35.4L25.9 34.85Q25.8 34.45 25.1 35L25.1 35.15L25.05 35.55L25 36L25 36.2M26.35,39L26.05 38.6L25.9 38.35L26.35 38.75L26.35 39" />
<path style="fill:#DBBE91;fill-opacity:1" d="M26.35,37.05L26.6 36.3L27.2 36.15L27.25 36.15L27.85 36.1L28.05 36.1L28.55 36.1L28.65 35.9L28.4 35.7L28 35.2L27.4 34.85L27.2 34.8L26.7 34.6L26.65 34.3L26.65 33.4Q27 33.1 27.45 32.95L28.15 32.85L28.7 32.9L28.8 32.9L29.4 33.15L29.55 33.25L29.75 33.45L30.15 33.85L30.3 34.45L30.3 34.5L30.25 34.55L30.2 34.65L30.05 34.85L29.75 35.3Q29.2 36.2 29.35 37.5L29.4 37.7L28.8 37.85L27.5 37.8L27.25 37.7L26.9 37.5L26.35 37.05M25.9,35.6L25.75 35.85L25.45 36L25.2 36.05L25.05 36L25 36L25.05 35.55L25.1 35.15L25.1 35Q25.8 34.45 25.9 34.85L26 35.4L26 35.45L25.9 35.6M28.4,33.15L28.15 33.15L27.45 33.25L27 33.35L27 33.4L27 33.5L27.05 33.55L27.1 33.65L27.45 33.65L28.15 33.6L28.5 33.6L29.25 33.7L29.5 33.75Q29.7 33.65 29.3 33.5L29.25 33.45L28.7 33.2L28.4 33.15M27.75,36.8L28 36.65L28 36.6L27.95 36.5L27.85 36.45L27.8 36.45L27.15 36.45Q26.85 36.55 26.7 36.75L26.7 36.8L27.05 36.9L27.75 36.8" />
<path style="fill:#F3E0C4;fill-opacity:1" d="M28.7,33.2L29.25 33.45L29.3 33.5Q29.7 33.65 29.5 33.75L29.25 33.7L28.5 33.6L28.15 33.6L27.45 33.65L27.1 33.65L27.05 33.55L27 33.5L27 33.4L27 33.35L27.45 33.25L28.15 33.15L28.4 33.15L28.7 33.2M27.05,36.9L26.7 36.8L26.7 36.75Q26.85 36.55 27.15 36.45L27.8 36.45L27.85 36.45L27.95 36.5L28 36.6L28 36.65L27.75 36.8L27.05 36.9" />
<path style="fill:#12151E;fill-opacity:1" d="M9.65,54.95L9.65 54.75L9.6 54.6L9.05 54.65Q8.7 54.75 8.65 53.85L8.3 53.8L7.85 53.7L7.75 53.65L7.7 53.4L8.3 52.65L9.25 51.25L9.55 50.7L9.7 50.45L9.75 50.45Q10 50.45 10.1 50.65L10.15 50.8L10.3 50.95L10.9 51.05L11.25 51L11.7 50.9L11.85 51.05L11.85 51.1L11.9 51.2L11.9 51.35L12 51.6L12.4 51.8L12.55 51.8L12.9 51.85L11.8 53.95L11.45 54.35L11 54.75L10.65 55.25L10.65 55.35L10.55 55.65L10.45 55.75L10.1 55.6L9.9 55.4L9.65 54.95M18.25,54.25L18.2 54.3L18.45 53.65L19.05 53.55L19.1 53.6L19.25 53.8L19.9 54.55Q19.35 54.45 18.9 54.05L18.8 53.9L18.65 54L18.25 54.25M10.35,54.9Q10.5 54.5 11 54.05L11.15 53.85L11.4 53.65L11.7 53.25L12.05 52.65Q12.35 52.15 12.1 52.15L11.9 52.2Q11.5 52.3 11.45 51.45L11.4 51.45L11.15 51.5L11.1 51.55L10.6 51.7L10.2 51.75L9.9 51.5L9.75 51.3L8.45 53.35L9.05 53.5L9.15 54.15L9.7 54.2L9.95 54.25L10 54.25L10.35 54.9" />
</g>
</svg>
