<?xml version="1.0" encoding="utf-8"?>
<svg version="1.1" id="Layer_1"
xmlns="http://www.w3.org/2000/svg"
xmlns:xlink="http://www.w3.org/1999/xlink"
xmlns:author="http://www.sothink.com"
width="32px" height="49px"
xml:space="preserve">
<g id="490" transform="matrix(1, 0, 0, 1, 0, 0)">
<path style="fill:#5F1000;fill-opacity:1" d="M17.95,12.5L17.15 12.4L15.8 12Q16.1 8.25 19.7 8.05L22.8 7.55Q24.2 7.1 25 6.35Q26.5 4.9 25.75 3.4L25.55 3.65Q24.5 4.65 23.25 5.05Q21.6 5.55 19.5 5.05Q15.6 4.05 14 7.25Q12.4 10.4 13.65 12.45L12.7 12.55L12.15 12.6L11.45 12.7Q10.1 9.1 11.8 6.05Q12.7 4.45 14.7 3.4Q16.65 2.35 18.85 2.9Q21 3.45 22.8 2.95Q24.25 2.5 25.4 1.3L25.45 1.2L25.8 0.75Q27.05 -1 27.8 1.3Q28.5 3.6 27.25 6.2Q26.25 8.3 24.1 9.1L22.95 9.45L22.4 9.55Q19.8 10.1 18.8 10.8Q17.65 11.5 18 12.5L17.95 12.5" />
<path style="fill:#931A26;fill-opacity:1" d="M13.9,12.5L13.9 12.3Q13.9 10.65 14.6 9.45Q15.95 7.15 19.8 6.45L23.15 5.75L23.8 5.5Q25.15 4.9 25.55 3.65L25.75 3.4Q26.5 4.9 25 6.35Q24.2 7.1 22.8 7.55L19.7 8.05Q16.1 8.25 15.8 12L15.75 12L15.75 12.3L15.6 12.35L14.6 12.5L13.9 12.5" />
<path style="fill:#DB5E6A;fill-opacity:1" d="M13.65,12.45Q12.4 10.4 14 7.25Q15.6 4.05 19.5 5.05Q21.6 5.55 23.25 5.05Q24.5 4.65 25.55 3.65Q25.15 4.9 23.8 5.5L23.15 5.75L19.8 6.45Q15.95 7.15 14.6 9.45Q13.9 10.65 13.9 12.3L13.9 12.5L13.65 12.45" />
<path style="fill:#FFFDFC;fill-opacity:1" d="M12.3,25.65L10.3 25.35L10.3 16Q7.25 16.35 4.65 17.2L4 17.45L5.6 16.35L5.65 16.3Q7 15.55 8.7 15.15L10.3 14.85L14.6 14.65L16 14.7L16.9 14.75L20.5 15.3L23.35 16.15Q24.65 16.55 25.5 17.2L27.35 18.55L26.75 18.3Q20.35 15.9 14.6 15.8L14.75 25.05Q13.15 25.65 12.3 25.65M7.35,37.65L6.6 36.25L6.6 36.05L6.55 34.05L4.2 31.6L3.7 30.75L3.65 29.25Q4.15 30.45 5.3 31.85L8.8 35.7L8.95 41.55Q8.45 39.75 7.35 37.65M25.65,31.35L25.55 31.9L23.45 33.25L21.6 34.55Q20.45 35 19.7 35.4L19.7 35.7L19.1 35.95Q17 36.75 16.35 38.95L15.8 43.05L15.8 42Q15.65 36.5 16.7 35.1L23.85 30.95L24.85 30.25L25.6 29.4L25.65 31.35" />
<path style="fill:#EEDED3;fill-opacity:1" d="M28.35,19.25L28.85 20.25L29.25 21.8L28.85 21.45Q27.8 20.55 25.8 19.5L25.35 19.3Q23.2 18.25 20.75 17.6L17.8 16.95L16.8 16.8L16.7 19.7L16.8 24.1L14.75 25.05L14.6 15.8Q20.35 15.9 26.75 18.3L27.35 18.55L28.35 19.25M8.95,24.7L8.7 17.25Q7.1 17.7 6 18.45L5.35 18.9Q4.3 19.7 3.8 21.55L3.7 21.85L3.75 21.45Q3.2 19.85 3.25 18.15L4 17.45L4.65 17.2Q7.25 16.35 10.3 16L10.3 25.35L9.05 24.75L8.95 24.7M7.05,43.8L7.1 41.4L6.75 41.05L6.6 36.25L7.35 37.65Q8.45 39.75 8.95 41.55L9.05 45.7L7.05 44.7L7.05 43.8M19.75,39.25L20 43L19.95 43L19.95 43.05L20.05 43.95L20.1 44.4L16 46.15L15.8 43.05L16.35 38.95Q17 36.75 19.1 35.95L19.7 35.7L19.75 39.25M24.3,33.25L22.8 34Q22.15 34.25 21.6 34.55L23.45 33.25L25.55 31.9L24.3 33.25M3.7,30.75L4.2 31.6L3.75 31.05L3.7 30.75" />
<path style="fill:#382D29;fill-opacity:1" d="M13.9,12.5L14.6 12.5L15.6 12.35L15.75 12.3L15.75 12L15.8 12L17.15 12.4L17.95 12.5L18 12.5L19.55 12.75L17.85 12.5Q19.85 12.85 22.1 13.55Q24.3 14.25 25.95 15.15Q27.6 16 28.45 16.7Q29.25 17.35 30.5 19.35Q31.7 21.3 31.15 29.15Q30.6 36.95 30.1 39.4Q29.6 41.85 27.15 43.3Q24.7 44.7 19.95 46.75Q15.1 48.75 14.45 48.1Q13.8 47.45 13.8 45.85L11.05 45.9Q10.8 48.4 8.4 47.75Q5.95 47.05 4.25 45.45Q2.5 43.85 1.75 42Q1 40.15 0.65 35.85Q0.2 31.5 0.05 25.6Q-0.15 19.7 1.15 17.55Q2.5 15.35 4.85 14.45L7.55 13.4L8.85 13.1L10.3 12.85L11.45 12.7L12.15 12.6L12.7 12.55L13.65 12.45L13.9 12.5M25.4,25.35L25.75 26.25Q26.35 28.05 25.6 29.4L24.85 30.25L23.85 30.95L16.7 35.1Q15.65 36.5 15.8 42L15.8 43.05L16 46.15L20.1 44.4Q24.75 42.3 28 40.4Q29.05 33.95 29.4 29.4L29.45 29.25L29.4 29.25Q29.65 25 29.35 22.45L29.25 21.8L28.85 20.25L28.35 19.25L27.35 18.55L25.5 17.2Q24.65 16.55 23.35 16.15L20.5 15.3L16.9 14.75L16 14.7L14.6 14.65L10.3 14.85L8.7 15.15Q7 15.55 5.65 16.3L5.6 16.35L4 17.45L3.25 18.15Q1.85 19.85 2.05 22.1Q1.35 29.8 2.8 39.7L3.2 40.75L3.5 41.35Q4.55 43.25 7.05 44.7L9.05 45.7L8.95 41.55L8.8 35.7L5.3 31.85Q4.15 30.45 3.65 29.25L3.25 27.6L3.3 27L3.6 26.15L3.7 26L4.2 25.3L4.6 24.9Q5.45 24.1 6.2 24.55L6.4 24.65L8.9 26.4L9.35 26.8Q11.3 28.4 12.9 28.05Q13.65 27.85 17.45 25.5L19.95 24.05Q21.8 23.15 22.9 23.15L23.15 23.2Q24.45 23.35 25.4 25.35M20.1,31.1Q23.55 29.2 23.65 28.75L23.85 27.15L23.85 26.95Q23.7 25.65 22.8 25.25Q21.35 24.65 17.45 27.5Q13.5 30.3 11.1 29.9L6.6 26.85Q3.95 26.4 5.65 29.65L10.65 35.4L10.9 39.4L10.95 44.4L13.75 44.35L14.05 36.5Q14 34.3 15.85 33.45Q16.6 32.95 20.1 31.1" />
<path style="fill:#CBB4AC;fill-opacity:1" d="M25.4,25.35Q24.45 23.35 23.15 23.2L23.05 23Q22.65 22.5 21.25 22.5L20.05 22.75Q18.8 23.1 16.8 24.1L16.7 19.7L16.8 16.8L17.8 16.95L20.75 17.6Q23.2 18.25 25.35 19.3L25.45 22.7L25.4 25.35M28.85,21.45L29.25 21.8L29.35 22.45Q29.65 25 29.4 29.25L29.45 29.25L29.4 29.4Q29.05 33.95 28 40.4Q24.75 42.3 20.1 44.4L20.05 43.95L19.95 43.05L19.95 43L20 43L27.25 39.5L28 33.35L28.05 32.8Q28.75 29.15 28.85 21.45M4.6,24.9L4.2 25.3L3.7 26L3.6 26.15L3.3 27Q3.2 23.85 3.7 21.85L3.8 21.55Q4.3 19.7 5.35 18.9L6 18.45Q7.1 17.7 8.7 17.25L8.95 24.7Q7.7 23.9 6.4 23.8L6.05 23.8Q5.1 23.8 4.6 24.9M7.05,44.7Q4.55 43.25 3.5 41.35L4 41.75L6.65 43.55L7.05 43.8L7.05 44.7M22.8,34L24.3 33.25L24.25 33.5L23.5 36.65Q21.2 37.85 19.75 39.25L19.7 35.7L19.7 35.4Q20.45 35 21.6 34.55Q22.15 34.25 22.8 34M6.55,34.05L6.6 36.05L6.6 36.25L6.75 41.05L6.45 40.8Q5.15 39.6 4.65 38.3Q3.95 36.6 3.75 31.05L4.2 31.6L6.55 34.05" />
<path style="fill:#A69089;fill-opacity:1" d="M9.05,24.75L10.3 25.35L12.3 25.65Q13.15 25.65 14.75 25.05L16.8 24.1Q18.8 23.1 20.05 22.75L21.25 22.5Q22.65 22.5 23.05 23L23.15 23.2L22.9 23.15Q21.8 23.15 19.95 24.05L17.45 25.5Q13.65 27.85 12.9 28.05Q11.3 28.4 9.35 26.8L8.9 26.4L6.4 24.65L6.2 24.55Q5.45 24.1 4.6 24.9Q5.1 23.8 6.05 23.8L6.4 23.8Q7.7 23.9 8.95 24.7L9.05 24.75M25.55,31.9L25.65 31.35L25.6 29.4Q26.35 28.05 25.75 26.25L25.4 25.35L25.45 22.7L25.35 19.3L25.8 19.5Q27.8 20.55 28.85 21.45Q28.75 29.15 28.05 32.8L28 33.35L27.25 39.5L20 43L19.75 39.25Q21.2 37.85 23.5 36.65L24.25 33.5L24.3 33.25L25.55 31.9M6.65,43.55L4 41.75L3.5 41.35L3.2 40.75L2.8 39.7Q1.35 29.8 2.05 22.1Q1.85 19.85 3.25 18.15Q3.2 19.85 3.75 21.45L3.7 21.85Q3.2 23.85 3.3 27L3.25 27.6L3.65 29.25L3.7 30.75L3.75 31.05Q3.95 36.6 4.65 38.3Q5.15 39.6 6.45 40.8L6.75 41.05L7.1 41.4L7.05 43.8L6.65 43.55" />
<path style="fill:#87746E;fill-opacity:1" d="M15.85,33.45Q14 34.3 14.05 36.5L13.75 44.35L10.95 44.4L10.9 39.4L10.65 35.4L5.65 29.65Q3.95 26.4 6.6 26.85L11.1 29.9Q13.5 30.3 17.45 27.5Q21.35 24.65 22.8 25.25Q23.7 25.65 23.85 26.95L23.85 27.15L23.65 28.75Q23.55 29.2 20.1 31.1Q16.6 32.95 15.85 33.45" />
</g>
</svg>
