<?xml version="1.0" encoding="utf-8"?>
<svg version="1.1" id="Layer_1"
xmlns="http://www.w3.org/2000/svg"
xmlns:xlink="http://www.w3.org/1999/xlink"
xmlns:author="http://www.sothink.com"
width="25px" height="18px"
xml:space="preserve">
<g id="622" transform="matrix(1, 0, 0, 1, 0, 0)">
<path style="fill:#1D3E5D;fill-opacity:1" d="M21.2,6L21.25 6.75L21.25 7.8L19.25 9.1L17.65 9.45L15.45 9.45L16.2 9.05L16.95 8.45Q17.7 7.7 17.95 6.7Q16.15 6.7 14.45 7.3Q12.7 7.9 11.05 8.75L10.8 8.9Q9.8 8.6 9.15 7.65L8.7 6.85L8.3 5.9L10.15 3.75Q10.65 2.7 11.85 1.95Q13.05 1.15 15.25 1.2Q17.45 1.25 19.1 2L20.85 3.25L21.8 4.5L22.25 5.85L21.2 6M1.3,13.1L1.55 13.35L3.25 14.35L4.35 14.75L5.35 15L5.55 15L6.2 15.1L8.3 14.9L10.85 14.25L11.45 13.75L11.45 13.55L11.55 12.95L11.9 12.7L12.25 12.4Q14.2 10.4 15.9 10.5L18.9 10.3Q20.1 10.05 21.15 9.2L20.9 10.35L20.4 11.65L18.7 11.95L16.65 11.9L15.4 12.25Q14.65 12.5 12.5 14.2Q9.35 16.55 6.05 16Q2.7 15.4 1.75 14.1L1.15 12.95L1.3 13.1" />
<path style="fill:#286593;fill-opacity:1" d="M15.3,9.45Q14.35 9.45 13.2 10.15Q11.95 10.85 10.5 12.3Q3.8 14.2 1.5 11.3Q1.4 10.2 3.75 9.05Q6.05 7.85 7.85 6.3L8.3 5.9L8.7 6.85L9.15 7.65Q9.8 8.6 10.8 8.9L11.05 8.75Q12.7 7.9 14.45 7.3Q16.15 6.7 17.95 6.7Q17.7 7.7 16.95 8.45L16.2 9.05L15.45 9.45L15.3 9.45M21.25,7.8L21.25 6.75L21.2 6L22.25 5.85Q22.35 6.75 21.65 7.45L21.25 7.8M20.9,10.35L21.15 9.2L21.3 9Q22.3 8.05 22.85 7.75Q22.55 9.8 21.45 10.95L20.4 11.65L20.9 10.35M1.15,12.95Q1 12.5 1.2 12.25Q4.2 15.05 9.75 13.7L11.55 12.95L11.45 13.55L11.45 13.75L10.85 14.25L8.3 14.9L6.2 15.1L5.55 15L5.35 15L4.35 14.75L3.25 14.35L1.55 13.35L1.3 13.1L1.15 12.95M3.25,10.65Q2.25 11.6 5.2 12.1Q8.15 12.55 9.5 11.35Q10.8 10.1 9.15 10.5L6.8 10.6L5.5 10.05L4.55 9.7Q4.2 9.65 3.25 10.65" />
<path style="fill:#5695CC;fill-opacity:1" d="M4.55,9.7L5.5 10.05L6.8 10.6L9.15 10.5Q10.8 10.1 9.5 11.35Q8.15 12.55 5.2 12.1Q2.25 11.6 3.25 10.65Q4.2 9.65 4.55 9.7" />
<path style="fill:#19213C;fill-opacity:1" d="M15.45,9.45L17.65 9.45L19.25 9.1L21.25 7.8L21.65 7.45Q22.35 6.75 22.25 5.85L21.8 4.5L20.85 3.25L19.1 2Q17.45 1.25 15.25 1.2Q13.05 1.15 11.85 1.95Q10.65 2.7 10.15 3.75L8.3 5.9L7.85 6.3Q6.05 7.85 3.75 9.05Q1.4 10.2 1.5 11.3Q3.8 14.2 10.5 12.3Q11.95 10.85 13.2 10.15Q14.35 9.45 15.3 9.45L15.45 9.45M23.9,5.85Q24.35 7.25 24 8.7L23.4 10.35Q22.8 11.6 21.75 12.35Q20.25 13.4 19.05 13.3L18.75 13.25L16.35 13.3Q15.25 13.6 12.85 15.45Q10.45 17.3 7.75 17.45Q5 17.55 2.9 16.6Q0.75 15.6 0.25 13.8Q-0.3 11.95 0.45 10.6Q1.2 9.2 3.4 8.1L6.55 6.1L7.9 4.85L9.35 2.9Q10 1.55 11.75 0.7Q13.45 -0.15 15.75 0Q18.05 0.15 19.6 0.85L20.05 1.1Q21.35 1.9 22.85 3.9L23.4 4.75L23.9 5.85M18.9,10.3L15.9 10.5Q14.2 10.4 12.25 12.4L11.9 12.7L11.55 12.95L9.75 13.7Q4.2 15.05 1.2 12.25Q1 12.5 1.15 12.95L1.75 14.1Q2.7 15.4 6.05 16Q9.35 16.55 12.5 14.2Q14.65 12.5 15.4 12.25L16.65 11.9L18.7 11.95L20.4 11.65L21.45 10.95Q22.55 9.8 22.85 7.75Q22.3 8.05 21.3 9L21.15 9.2Q20.1 10.05 18.9 10.3" />
</g>
</svg>
