<?xml version="1.0" encoding="utf-8"?>
<svg version="1.1" id="Layer_1"
xmlns="http://www.w3.org/2000/svg"
xmlns:xlink="http://www.w3.org/1999/xlink"
xmlns:author="http://www.sothink.com"
width="11px" height="16px"
xml:space="preserve">
<g id="457" transform="matrix(1, 0, 0, 1, 0, 0)">
<linearGradient
id="LinearGradID_645" gradientUnits="userSpaceOnUse" gradientTransform="matrix(0, 0.00598145, -0.00491333, 0, -8.5, 8.85)" spreadMethod ="pad" x1="-819.2" y1="0" x2="819.2" y2="0" >
<stop  offset="0" style="stop-color:#FFF980;stop-opacity:1" />
<stop  offset="1" style="stop-color:#E7950A;stop-opacity:1" />
</linearGradient>
<path style="fill:url(#LinearGradID_645) " d="M10.45,2.9Q10.8 3.7 10.8 4.6Q10.8 5.95 10.15 7.05L10.15 7.1L8.8 8.75L6.7 10.5L6.65 10.5Q5.45 11.5 4.9 12.1L8.95 12.1Q9.9 12.1 10.4 12.5Q11 12.95 11 13.75Q11 14.45 10.6 14.9L10.55 14.9Q10.15 15.4 9.25 15.4L2.05 15.4Q1.05 15.4 0.55 14.85Q0 14.3 0 13.55Q0 13.1 0.3 12.4L0.3 12.35L1 11.4L1 11.35L3.4 9.05L4.9 7.7L4.95 7.7L6.15 6.7L6.15 6.65L6.9 5.6L7.1 4.65L6.9 3.75L6.9 3.8L6.25 3.2L6.3 3.2L5.4 3Q4.35 3 3.8 3.9L3.55 4.55L3.55 4.6L2.95 5.7L2.95 5.75Q2.5 6.25 1.7 6.25Q1 6.25 0.55 5.85L0.5 5.8Q0.05 5.3 0.05 4.55Q0.05 3.8 0.4 3Q0.7 2.15 1.4 1.45L3.1 0.4L3.15 0.4L5.45 0Q7.05 0 8.2 0.5L8.25 0.5L9.55 1.45L9.6 1.5Q10.15 2.1 10.5 2.95L10.45 2.9" />
<path style="fill:#FFFFFF;fill-opacity:1" d="M2.7,1.95Q3.6 0.35 6.9 0.75L7.55 1Q8.1 1.2 8.5 1.6Q8.9 2.3 7.9 2.1L3.1 2.35Q2.4 2.9 2.7 1.95" />
</g>
</svg>
