<?xml version="1.0" encoding="utf-8"?>
<svg version="1.1" id="Layer_1"
xmlns="http://www.w3.org/2000/svg"
xmlns:xlink="http://www.w3.org/1999/xlink"
xmlns:author="http://www.sothink.com"
width="7px" height="18px"
xml:space="preserve">
<g id="1976" transform="matrix(1, 0, 0, 1, -1.55, -1.05)">
<path style="fill:#4D3212;fill-opacity:1" d="M4.15,1.5Q4.65 1.95 4.7 2.55L4.85 3.95Q5 4.7 5.8 5.55L7.4 7.45L7.95 8.35L8.2 8.95Q8.35 9.75 8.1 10.6L7.65 11.6L7.55 11.75L5.8 14Q5 14.85 4.85 15.6L4.7 17Q4.65 17.55 4.25 17.95L4.15 18.05L3.1 18.5Q2.6 18.5 2.15 18.15Q1.7 17.85 1.6 17.1Q1.5 16.4 1.8 15.7Q2.05 15.05 2.75 14.15L4 12.45L4.8 10.7L4.8 10.65L4.95 9.15L4.7 8.25L4 7.1L2.75 5.4L1.8 3.85Q1.5 3.15 1.6 2.45Q1.7 1.7 2.15 1.4Q2.6 1.05 3.1 1.05Q3.6 1.05 4.15 1.5M2.35,3Q2.4 3.95 3.8 5.7L5.1 7.8L5.35 8.45Q5.7 9.8 5.4 10.8L5.35 11.05Q5 12.25 3.8 13.85Q2.4 15.6 2.35 16.55Q2.25 17.55 2.85 17.65L3.1 17.7L3.7 17.4L3.85 17.2L4.1 15.95L4.1 15.85Q4.15 14.65 5.2 13.7L6.9 11.65L6.95 11.55L7.35 10.8L7.6 9.95L7.35 8.6L7.35 8.55L5.6 6.35L5.25 6L5 5.65Q4.15 4.6 4.1 3.7Q4.05 2.5 3.7 2.15Q3.4 1.8 2.85 1.9L2.7 1.9Q2.3 2.1 2.35 3" />
<path style="fill:#9A7226;fill-opacity:1" d="M6.3,7.75Q6.3 8.05 5.9 8.05L5.8 8.05L5.35 7.45L4.7 6.05L3.5 4.6Q2.65 3.4 2.65 2.35L2.7 1.9L2.85 1.9Q3.4 1.8 3.7 2.15Q4.05 2.5 4.1 3.7Q4.15 4.6 5 5.65L5.25 6L6.3 7.75M4,15.7Q3.6 15.55 3.4 15.95L3.25 16.4Q3.1 16.8 3.45 17.05L3.85 17.2L3.7 17.4L3.1 17.7Q2.85 17.35 2.95 16.35Q3 15.3 4.15 14.3Q5.3 12.8 5.9 11.3L6.95 11.55L6.9 11.65L5.2 13.7Q4.15 14.65 4.1 15.85L4.1 15.95L4 15.7M2.9,2.5Q2.9 2.85 3.2 3.25L3.6 3.6Q3.8 3.6 3.8 3.2Q3.8 2.05 3.1 2.05L2.9 2.5" />
<path style="fill:#745416;fill-opacity:1" d="M5.9,11.3Q5.3 12.8 4.15 14.3Q3 15.3 2.95 16.35Q2.85 17.35 3.1 17.7L2.85 17.65Q2.25 17.55 2.35 16.55Q2.4 15.6 3.8 13.85Q5 12.25 5.35 11.05L5.4 10.8Q5.7 9.8 5.35 8.45L5.1 7.8L3.8 5.7Q2.4 3.95 2.35 3Q2.3 2.1 2.7 1.9L2.65 2.35Q2.65 3.4 3.5 4.6L4.7 6.05L5.35 7.45L5.8 8.05Q6.3 8.6 7 8.6L7.35 8.6L7.6 9.95L7.35 10.8L6.95 11.55L5.9 11.3" />
<path style="fill:#B49148;fill-opacity:1" d="M5.8,8.05L5.9 8.05Q6.3 8.05 6.3 7.75L5.25 6L5.6 6.35L7.35 8.55L7.35 8.6L7 8.6Q6.3 8.6 5.8 8.05M4.1,15.95L3.85 17.2L3.45 17.05Q3.1 16.8 3.25 16.4L3.4 15.95Q3.6 15.55 4 15.7L4.1 15.95M3.1,2.05Q3.8 2.05 3.8 3.2Q3.8 3.6 3.6 3.6L3.2 3.25Q2.9 2.85 2.9 2.5L3.1 2.05" />
</g>
</svg>
