<?xml version="1.0" encoding="utf-8"?>
<svg version="1.1" id="Layer_1"
xmlns="http://www.w3.org/2000/svg"
xmlns:xlink="http://www.w3.org/1999/xlink"
xmlns:author="http://www.sothink.com"
width="89px" height="15px"
xml:space="preserve">
<g id="1554" transform="matrix(1, 0, 0, 1, 0, 0)">
<linearGradient
id="LinearGradID_1817" gradientUnits="userSpaceOnUse" gradientTransform="matrix(0, 0.00872803, -0.00668335, 0, 5.85, 8.1)" spreadMethod ="pad" x1="-819.2" y1="0" x2="819.2" y2="0" >
<stop  offset="0" style="stop-color:#FFF980;stop-opacity:1" />
<stop  offset="1" style="stop-color:#E7950A;stop-opacity:1" />
</linearGradient>
<path style="fill:url(#LinearGradID_1817) " d="M87.75,2.4L87.75 2.35L88.1 3.65L87.65 4.85Q87.2 5.35 86.45 5.35L85.45 5.05L85.4 5L84.8 4.15L84.8 4.1L84.1 3.15Q83.7 2.85 82.8 2.85Q82 2.85 81.5 3.2Q81.05 3.5 81.05 3.85L81.2 4.25L81.6 4.6L81.6 4.55L82.3 4.9L83.45 5.2L85.55 5.8Q86.4 6.1 87.1 6.55L87.15 6.55Q87.85 7.05 88.25 7.9Q88.65 8.6 88.65 9.75Q88.65 11.05 88 12.15Q87.3 13.15 86.05 13.75L86 13.75L83.05 14.3Q80.95 14.3 79.65 13.55Q78.65 12.95 78.05 11.95L78.05 12Q77.4 11 77.4 10.05Q77.4 9.35 77.9 8.85Q78.3 8.4 79.1 8.4L80.15 8.8L80.75 9.8L80.7 9.75L81.2 10.65L81.85 11.25L81.85 11.2L82.95 11.4L84.55 10.95Q85.05 10.55 85.05 10L84.85 9.35L84 8.85L82.4 8.4Q80.9 8.1 80 7.6Q78.9 7.1 78.3 6.25Q77.65 5.4 77.65 4.1Q77.65 2.9 78.35 1.9L78.35 1.95Q78.95 1 80.2 0.5Q81.4 0 83 0L85.25 0.35L86.85 1.25Q87.45 1.75 87.75 2.4M75.15,2.35L75.5 3.65L75.05 4.85Q74.6 5.35 73.85 5.35L72.85 5.05L72.8 5L72.2 4.15L72.2 4.1L71.5 3.15Q71.1 2.85 70.2 2.85Q69.4 2.85 68.9 3.2Q68.45 3.5 68.45 3.85L68.6 4.25L69 4.6L69 4.55L69.7 4.9L70.85 5.2L72.95 5.8Q73.8 6.1 74.5 6.55L74.55 6.55Q75.25 7.05 75.65 7.9Q76.05 8.6 76.05 9.75Q76.05 11.05 75.4 12.15Q74.7 13.15 73.45 13.75L73.4 13.75L70.45 14.3Q68.35 14.3 67.05 13.55Q66.05 12.95 65.45 11.95L65.45 12Q64.8 11 64.8 10.05Q64.8 9.35 65.3 8.85Q65.7 8.4 66.5 8.4Q67.1 8.4 67.55 8.8L68.15 9.8L68.1 9.75L68.6 10.65L69.25 11.25L69.25 11.2L70.35 11.4L71.95 10.95Q72.45 10.55 72.45 10L72.25 9.35Q71.9 9 71.4 8.85L69.8 8.4Q68.3 8.1 67.4 7.6Q66.3 7.1 65.7 6.25Q65.05 5.4 65.05 4.1Q65.05 2.9 65.75 1.9L65.75 1.95Q66.35 1 67.6 0.5Q68.8 0 70.4 0L72.65 0.35L74.25 1.25Q74.85 1.75 75.15 2.4L75.15 2.35M62.95,2.85Q62.45 3.25 61.65 3.25L56.25 3.25L56.25 5.4L61.2 5.4Q62 5.4 62.45 5.8L62.5 5.85Q62.85 6.25 62.85 6.85Q62.85 7.5 62.5 7.95L62.45 8Q62 8.35 61.2 8.35L56.25 8.35L56.25 11.05L61.85 11.05Q62.65 11.05 63.1 11.4L63.15 11.45Q63.6 11.9 63.6 12.55Q63.6 13.3 63.15 13.7L61.85 14.1L54.75 14.1Q53.7 14.1 53.25 13.6L53.2 13.55Q52.65 13.05 52.65 12L52.65 2.3L52.85 1.2L52.9 1.15L53.6 0.5L53.65 0.45L54.75 0.2L61.65 0.2Q62.45 0.2 62.95 0.65Q63.4 1 63.4 1.7Q63.4 2.35 62.95 2.8L62.95 2.85M41.45,0.6Q41.9 0 42.75 0Q43.6 0 44.1 0.6Q44.55 1.1 44.55 2.1L44.55 10.95L49.35 10.95Q50.2 10.95 50.7 11.4Q51.15 11.85 51.15 12.55Q51.15 13.2 50.7 13.65L50.7 13.7Q50.2 14.1 49.35 14.1L43.05 14.1Q42 14.1 41.55 13.6L41.5 13.55Q40.95 13.05 40.95 12L40.95 2.1Q40.95 1.1 41.45 0.6M34.85,0.5Q35.9 0.75 36.75 1.55Q38.95 3.35 38.95 7.1L38.75 9.35L38.05 11.2L36.9 12.75L35.65 13.55L35.6 13.55L34.2 14L32.5 14.1L29.1 14.1L27.75 13.85L27.7 13.8L27.1 12.95L27.1 13L26.9 11.75L26.9 2.3Q26.9 1.2 27.45 0.75L27.5 0.75Q28 0.2 29 0.2L32.4 0.2L34.85 0.5M31.75,3.3L30.55 3.3L30.55 11.05L32 11.05L33 11L33.65 10.85L34.2 10.55Q35.3 9.5 35.3 7.1Q35.3 5.4 34.8 4.55L34.8 4.5Q34.35 3.75 33.65 3.55L31.75 3.3M21.5,0.55Q21.9 0 22.7 0Q23.55 0 24 0.55Q24.45 1.05 24.45 2L24.45 12.1Q24.45 14.35 22.5 14.3L21.75 14.2L21.05 13.8L20.5 13.2L20.1 12.6L16.1 6.5L16.1 12.35Q16.1 13.25 15.65 13.8L15.6 13.8Q15.1 14.3 14.35 14.3Q13.55 14.3 13.15 13.8Q12.65 13.25 12.65 12.35L12.65 2.4L12.85 1.2L12.85 1.25Q13.05 0.65 13.6 0.35L13.55 0.35Q14.05 0 14.65 0L15.45 0.15L15.55 0.15L16.05 0.55L16.55 1.15L16.95 1.8L21.05 8L21.05 2Q21.05 1.05 21.45 0.55L21.5 0.55M10.3,2.8L10.3 2.85Q9.8 3.25 9 3.25L3.6 3.25L3.6 5.4L8.55 5.4Q9.35 5.4 9.8 5.8L9.85 5.85Q10.2 6.25 10.2 6.85Q10.2 7.5 9.85 7.95L9.8 8L8.55 8.35L3.6 8.35L3.6 11.05L9.2 11.05Q10 11.05 10.45 11.4L10.5 11.45Q10.95 11.9 10.95 12.55Q10.95 13.3 10.5 13.7Q10 14.1 9.2 14.1L2.1 14.1Q1.05 14.1 0.6 13.6L0.55 13.55Q0 13.05 0 12L0 2.3L0.2 1.2L0.25 1.15L0.95 0.5L1 0.45L2.1 0.2L9 0.2Q9.8 0.2 10.3 0.65Q10.75 1 10.75 1.7L10.3 2.8" />
<path style="fill:#FFFFFF;fill-opacity:1" d="M85,0.95L85.95 1.55Q86.35 2.25 85.35 2.05L80.55 2.3Q79.85 2.85 80.15 1.9Q81.05 0.3 84.35 0.7L85 0.95M72.7,2.05L67.9 2.3Q67.2 2.85 67.5 1.9Q68.4 0.3 71.7 0.7L72.35 0.95Q72.9 1.15 73.3 1.55Q73.7 2.25 72.7 2.05M62.4,1.95L62.3 2Q60.85 2.8 60.3 1.4Q60.4 0.8 61.1 0.6L61.1 0.55Q62.3 0.8 62.4 1.95M55.6,2Q54.15 2.8 53.6 1.4Q53.7 0.8 54.4 0.6L54.4 0.55Q55.6 0.8 55.7 1.95L55.6 2M43.6,2Q42.15 2.8 41.6 1.4Q41.7 0.8 42.4 0.6L42.4 0.55Q43.6 0.8 43.7 1.95L43.6 2M34.05,0.55Q35.25 0.8 35.35 1.95L35.25 2Q33.8 2.8 33.25 1.4Q33.35 0.8 34.05 0.6L34.05 0.55M27.85,1.4Q27.95 0.8 28.65 0.6L28.65 0.55Q29.85 0.8 29.95 1.95L29.85 2Q28.4 2.8 27.85 1.4M21.8,1.4Q21.9 0.8 22.6 0.6L22.6 0.55Q23.8 0.8 23.9 1.95L23.8 2Q22.35 2.8 21.8 1.4M15.95,1.95L15.85 2Q14.4 2.8 13.85 1.4Q13.95 0.8 14.65 0.6L14.65 0.55Q15.85 0.8 15.95 1.95M7.65,1.4Q7.75 0.8 8.45 0.6L8.45 0.55Q9.65 0.8 9.75 1.95L9.65 2Q8.2 2.8 7.65 1.4M1.65,0.55Q2.85 0.8 2.95 1.95L2.85 2Q1.4 2.8 0.85 1.4Q0.95 0.8 1.65 0.6L1.65 0.55" />
</g>
</svg>
