<?xml version="1.0" encoding="utf-8"?>
<svg version="1.1" id="Layer_1"
xmlns="http://www.w3.org/2000/svg"
xmlns:xlink="http://www.w3.org/1999/xlink"
xmlns:author="http://www.sothink.com"
width="81px" height="63px"
xml:space="preserve">
<g id="1701" transform="matrix(1, 0, 0, 1, 47.6, 60.7)">
<path style="fill:#F8F8F8;fill-opacity:1" d="M-35.1,-15.35Q-34.55 -14.85 -33.9 -14.6Q-30.85 -13 -27.75 -13.85Q-26.9 -14.1 -24.7 -20.4Q-23.55 -23.75 -22.75 -26.75L-13.65 -24.6L-1.15 -29.25L5.15 -29.9L7.05 -35.5L7.2 -35.35Q8.6 -32.65 8.85 -30.3L5.05 -26.3L-3.45 -24.85L-15.25 -21.2L-19.35 -23.15L-22.8 -7.85L-39 -13.4L-39.25 -12.65Q-40.25 -9.15 -38.4 -5.55Q-37.05 -2.8 -34.15 -1.05L-33.55 -0.05Q-41.65 -2.75 -45.25 -9.8Q-47.8 -14.4 -47.6 -19.5Q-47.55 -21.8 -46.95 -24.25Q-44.9 -26.2 -42.65 -27.65Q-39.9 -29.35 -36.85 -30.3Q-38.7 -29.45 -41.2 -25.8Q-44.7 -20.75 -44.85 -14.8L-43 -17.75Q-41.8 -19.4 -39.65 -20.7L-37.6 -21.8Q-38.85 -20.2 -39.25 -18.3Q-40.1 -14.85 -35.1 -15.35M17.4,-33.5Q21.1 -38.4 20.1 -42Q19.8 -43.45 18.2 -45.15Q20.55 -44.4 22.35 -43.1Q23.4 -42.45 23.3 -42.75Q24.85 -45.95 23.75 -49.2Q23.25 -50.85 22.4 -51.9L24.3 -50.6Q26.4 -48.75 27.6 -46Q29.8 -40.85 27 -35.4Q25.7 -32.95 23.4 -30.45Q23.6 -33.5 22.45 -34.5L22.25 -34.6L20.65 -33.75L16.95 -31.8L17.4 -33.5" />
<path style="fill:#FF6464;fill-opacity:1" d="M5.15,-29.9L-1.15 -29.25L-13.65 -24.6L-22.75 -26.75Q-23.55 -23.75 -24.7 -20.4Q-26.9 -14.1 -27.75 -13.85Q-30.85 -13 -33.9 -14.6Q-34.55 -14.85 -35.1 -15.35Q-36.75 -16.35 -37.5 -17.8L-36.65 -20.1Q-35.4 -22.9 -33.85 -24.7L-33.2 -25.25L-31.95 -26.25L-31.65 -26.8L-33.6 -26.6L-35.85 -26.05L-36.65 -25.75L-37.2 -25.4L-36.3 -26.85Q-34.35 -29.95 -31.9 -32.6L-28.75 -35.45L-22.8 -39.45Q-30.15 -39.95 -38 -36.4L-42.95 -33.7Q-35.55 -46.1 -20.25 -53.85Q-8.25 -59.95 3.4 -60.55L-1.25 -59.05Q-9 -56.1 -8.2 -55.25L-2.25 -55.75Q11.7 -55.7 21.1 -45.95Q16.25 -49.45 10.8 -50.4Q6.1 -51 5.85 -49.95Q12.7 -48.25 15.4 -43.75L16.65 -39.65L16.55 -39.65L8.9 -40.85L7.05 -35.5L5.15 -29.9M-17.15,2.1L-21.6 2.2L-24.9 2Q-29.85 1.5 -33.55 -0.05L-34.15 -1.05Q-37.05 -2.8 -38.4 -5.55Q-40.25 -9.15 -39.25 -12.65L-39 -13.4L-22.8 -7.85L-19.35 -23.15L-15.25 -21.2L-3.45 -24.85L5.05 -26.3L8.85 -30.3L14.05 -35.7L17.5 -35.6L17.4 -34.1L17.4 -33.5L16.95 -31.8L14.75 -27.2L13.6 -25.35Q11.55 -22.05 10.35 -21.7Q14 -22.6 17.15 -27.05Q18.6 -29.1 19.4 -31Q19.45 -26.7 14.1 -17.4L12.15 -14.3L5.1 -4.15Q-6.05 1.35 -17.15 2.1" />
<path style="fill:#FFCCA6;fill-opacity:1" d="M5.35,-60.7L7.1 -60.65L10.5 -60.45Q16.15 -59.85 20.45 -58.1Q27.45 -55.1 30.8 -48.7Q33.25 -44.05 33.1 -38.85Q32.9 -32.6 28.85 -25.55Q21.45 -12.55 5.7 -4.5L5.1 -4.15L12.15 -14.3L14.1 -17.4Q19.45 -26.7 19.4 -31Q18.6 -29.1 17.15 -27.05Q14 -22.6 10.35 -21.7Q11.55 -22.05 13.6 -25.35L14.75 -27.2L16.95 -31.8L20.65 -33.75L22.25 -34.6L22.45 -34.5Q23.6 -33.5 23.4 -30.45Q25.7 -32.95 27 -35.4Q29.8 -40.85 27.6 -46Q26.4 -48.75 24.3 -50.6L22.4 -51.9Q23.25 -50.85 23.75 -49.2Q24.85 -45.95 23.3 -42.75Q23.4 -42.45 22.35 -43.1Q20.55 -44.4 18.2 -45.15Q19.8 -43.45 20.1 -42Q21.1 -38.4 17.4 -33.5L17.4 -34.1L17.5 -35.6L14.05 -35.7L8.85 -30.3Q8.6 -32.65 7.2 -35.35L7.05 -35.5L8.9 -40.85L16.55 -39.65L16.65 -39.65L15.4 -43.75Q12.7 -48.25 5.85 -49.95Q6.1 -51 10.8 -50.4Q16.25 -49.45 21.1 -45.95Q11.7 -55.7 -2.25 -55.75L-8.2 -55.25Q-9 -56.1 -1.25 -59.05L3.4 -60.55L5.35 -60.7M-43.35,-32.95L-42.95 -33.7L-38 -36.4Q-30.15 -39.95 -22.8 -39.45L-28.75 -35.45L-31.9 -32.6Q-34.35 -29.95 -36.3 -26.85L-37.2 -25.4L-36.65 -25.75L-35.85 -26.05L-33.6 -26.6L-31.65 -26.8L-31.95 -26.25L-33.2 -25.25L-33.85 -24.7Q-35.4 -22.9 -36.65 -20.1L-37.5 -17.8Q-36.75 -16.35 -35.1 -15.35Q-40.1 -14.85 -39.25 -18.3Q-38.85 -20.2 -37.6 -21.8L-39.65 -20.7Q-41.8 -19.4 -43 -17.75L-44.85 -14.8Q-44.7 -20.75 -41.2 -25.8Q-38.7 -29.45 -36.85 -30.3Q-39.9 -29.35 -42.65 -27.65Q-44.9 -26.2 -46.95 -24.25Q-45.9 -28.45 -43.35 -32.95" />
</g>
</svg>
