<?xml version="1.0" encoding="utf-8"?>
<svg version="1.1" id="Layer_1"
xmlns="http://www.w3.org/2000/svg"
xmlns:xlink="http://www.w3.org/1999/xlink"
xmlns:author="http://www.sothink.com"
width="173px" height="108px"
xml:space="preserve">
<g id="883" transform="matrix(1, 0, 0, 1, 6.3, 4.05)">
<path style="fill:#414141;fill-opacity:1" d="M-0.6,102L163 101.75L163.3 101.7Q164.4 101.55 164.45 100.25L164.55 98.75L164.55 98.7L164.55 98.65L164.55 98.45L164.55 98.4L164.55 92.2L164.55 85.2L164.55 81.2L164.55 4.45L164.55 4.1L164.65 3.2L164.7 1.45Q164.75 0.85 164.25 -0.45Q163.8 -1.8 162.3 -1.95L159.7 -2.2L158.35 -2.25L99.3 -2.2L82.8 -2.2L43.1 -2.2L3.5 -2.25L2.05 -2.25L1.9 -2.25L0.4 -2.1L-0.2 -2.05L-1.15 -1.8L-2.2 -1.25L-2.25 -1.2Q-4.05 -0.35 -4.25 2.45L-4.3 85.2L-4.3 92.2L-4.15 98.45L-4.1 98.7Q-4.55 102.15 -0.6 102M159.9,-4.05Q162.65 -4.2 164.4 -3.2Q166.1 -2.2 166.45 -0.25L166.55 1.95L166.5 4.1L166.5 97.25L166.5 98.95Q166.4 100.4 165.9 101.5Q165 103.7 161.5 103.85L-0.35 103.85Q-4.5 103.6 -5.65 101.35L-6 100.2L-6.25 97.25L-6.25 4.1L-6.15 1.85L-5.8 -0.35Q-4.65 -3.9 2.75 -4.05L159.9 -4.05M0.25,97.35L0 4.1L0.2 3.25Q0.65 2.35 1.9 2.35L158.35 2.35Q159.6 2.35 160.05 3.25L160.25 4.1L160.25 96.95L160.15 97.15L159.5 97.6L159.4 97.55L158.9 97.65L1.35 97.65L0.85 97.55L0.75 97.6L0.25 97.35M158.25,4.2L2 4.2L2 95.85L158.25 95.85L158.25 4.2" />
<path style="fill:#959595;fill-opacity:1" d="M164.55,98.4L164.55 98.45L164.55 98.65L164.55 98.7L164.55 98.75L164.45 100.25Q164.4 101.55 163.3 101.7L163 101.75L-0.6 102Q-4.55 102.15 -4.1 98.7L-4.1 98.65L-3 99.35Q-1.8 100.05 -1.4 99.95L82.8 99.9L82.8 99.85L117.15 99.9L117.15 99.95L161.9 99.95Q164.2 99.65 164.5 98.5L164.55 98.4M0.75,97.6L0.35 97.7L0.45 97.55L-1.85 98.7L-2.4 4.1L-2.3 4.1Q-2.65 2.35 -1.65 1.4L-1 0.85Q-0.2 0.75 -0.45 0.25L-0.3 0.2L0.1 0.1L3.15 0L1.9 0.05L158.35 0.05L157.1 0L160.15 0.1L160.85 0.35Q161.35 0.5 161.75 0.9L162.2 1.45L162.5 2.4L162.65 6.2L162.1 98.7L160.9 98.7L160.9 98.45L159.5 97.6L160.15 97.15L160.25 96.95L160.25 4.1L160.05 3.25Q159.6 2.35 158.35 2.35L1.9 2.35Q0.65 2.35 0.2 3.25L0 4.1L0.25 97.35L0.75 97.6" />
<linearGradient
id="LinearGradID_1147" gradientUnits="userSpaceOnUse" gradientTransform="matrix(-0.0560303, 0, 0, -0.0623779, 81.15, 48.85)" spreadMethod ="pad" x1="-819.2" y1="0" x2="819.2" y2="0" >
<stop  offset="0" style="stop-color:#B6B6B6;stop-opacity:1" />
<stop  offset="0.533333" style="stop-color:#F0F0F0;stop-opacity:1" />
<stop  offset="1" style="stop-color:#B6B6B6;stop-opacity:1" />
</linearGradient>
<path style="fill:url(#LinearGradID_1147) " d="M164.5,98.5Q164.2 99.65 161.9 99.95L117.15 99.95L117.15 99.9L82.8 99.85L82.8 99.9L-1.4 99.95Q-1.8 100.05 -3 99.35L-4.1 98.65L-4.1 98.7L-4.15 98.45L-4.3 92.2L-4.3 85.2L-4.25 2.45Q-4.05 -0.35 -2.25 -1.2L-2.2 -1.25L-1.15 -1.8L-0.2 -2.05L0.4 -2.1L1.9 -2.25L2.05 -2.25L3.5 -2.25L43.1 -2.2L82.8 -2.2L99.3 -2.2L158.35 -2.25L159.7 -2.2L162.3 -1.95Q163.8 -1.8 164.25 -0.45Q164.75 0.85 164.7 1.45L164.65 3.2L164.55 4.1L164.55 4.45L164.55 81.2L164.55 85.2L164.55 92.2L164.55 98.4L164.5 98.5M161.4,-1Q160.95 1.45 163.15 0.2L163.15 0Q162.95 -1.2 161.55 -1.1L161.4 -1M-1.25,-0.6Q-2.5 -0.4 -2.65 0.7L-2.5 0.8L-1 0.85L-1.65 1.4Q-2.65 2.35 -2.3 4.1L-2.4 4.1L-1.85 98.7L0.45 97.55L0.35 97.7L0.75 97.6L0.85 97.55L1.35 97.65L158.9 97.65L159.4 97.55L159.5 97.6L160.9 98.45L160.9 98.7L162.1 98.7L162.65 6.2L162.5 2.4L162.2 1.45L161.75 0.9Q161.35 0.5 160.85 0.35L160.15 0.1L157.1 0L158.35 0.05L1.9 0.05L3.15 0L0.1 0.1L-0.3 0.2L-0.45 0.25L-1.25 -0.6" />
<path style="fill:#FFFFFF;fill-opacity:1" d="M161.55,-1.1Q162.95 -1.2 163.15 0L163.15 0.2Q160.95 1.45 161.4 -1L161.55 -1.1M-1,0.85L-2.5 0.8L-2.65 0.7Q-2.5 -0.4 -1.25 -0.6L-0.45 0.25Q-0.2 0.75 -1 0.85" />
</g>
</svg>
