<?xml version="1.0" encoding="utf-8"?>
<svg version="1.1" id="Layer_1"
xmlns="http://www.w3.org/2000/svg"
xmlns:xlink="http://www.w3.org/1999/xlink"
xmlns:author="http://www.sothink.com"
width="20px" height="24px"
xml:space="preserve">
<g id="15" transform="matrix(1, 0, 0, 1, 0, 0)">
<path style="fill:#B49148;fill-opacity:1" d="M9.9,1.25Q13.4 1.25 15.9 4.4Q18.45 7.55 18.45 12L18.45 12.85Q17.9 10.45 16.3 7.95Q15.7 8.3 15.45 7.7Q15.25 7.35 15.45 7L15.65 6.85L15.6 6.75L15.4 6.55Q14.4 5.3 13.3 4.55L13.5 4.25L13.6 4.1L13.5 3.95Q13.4 3.7 13.15 3.65L12.7 3.55L12.55 3.6L12.45 3.65L12.35 3.75L12.3 3.95Q11 3.3 9.5 3.3L7.45 3.35Q6.75 3.45 6.1 3.9L6.1 3.8L6.7 3.05Q7.25 2.4 6.8 2.4L7.4 1.7Q8.55 1.25 9.9 1.25M10.2,10.3Q10.7 9.6 11.5 9.6Q12.25 9.6 12.8 10.3L13.3 11.35L11.95 11.1Q10.55 11.1 9.7 11.8L9.65 11.85Q9.7 10.95 10.2 10.3" />
<path style="fill:#9A7226;fill-opacity:1" d="M15.9,19.6Q14.8 21 13.5 21.8L13.05 21.7L10.7 20.85L10.75 20.4L10.7 20.15L10.55 20.1L10.4 20.05L10.2 20.05Q10.05 20.05 9.85 20.2L9.75 20.3L7.9 18.8Q6.7 17.55 5.9 16L5.95 15.7L5.95 15.4L5.9 15.25L5.75 15.2L5.6 15.15L5.45 15.15L4.9 13.8L4.75 13.4L4.65 13.55L4.55 13.65Q3.95 13.75 3.9 13.25Q3.85 12.85 4.2 12.65L4.3 12.65L4.55 12.7Q4 10.8 4 9.05Q4 5.85 4.55 3.65Q5.85 2.3 7.4 1.7L6.8 2.4Q7.25 2.4 6.7 3.05L6.1 3.8L6.1 3.9Q6.75 3.45 7.45 3.35L9.5 3.3Q11 3.3 12.3 3.95L12.35 3.75L12.45 3.65L12.55 3.6L12.7 3.55L13.15 3.65Q13.4 3.7 13.5 3.95L13.6 4.1L13.5 4.25L13.3 4.55Q14.4 5.3 15.4 6.55L15.6 6.75L15.65 6.85L15.45 7Q15.25 7.35 15.45 7.7Q15.7 8.3 16.3 7.95Q17.9 10.45 18.45 12.85Q18.2 16.75 15.9 19.6M13.55,9.35Q12.7 8.25 11.5 8.25Q10.3 8.25 9.45 9.35Q8.9 10.1 8.7 11.1L8.6 12.1Q8.6 13.7 9.45 14.8Q10.3 15.95 11.5 15.95Q12.7 15.95 13.55 14.8Q14.3 13.85 14.4 12.55L14.4 12.1Q14.4 10.5 13.55 9.35M13.35,12.1L12.9 13.65L12.4 13.7Q10.7 13.7 9.8 13.1Q9.65 12.6 9.65 12.1L9.65 11.85L9.7 11.8Q10.55 11.1 11.95 11.1L13.3 11.35L13.35 12.1M6.8,5.9L7.5 6.85L7.25 7.5L7.35 7.5L8.05 7.45Q8.75 8 9.4 7.8L9.45 7.6L8.85 6.75L9.45 5.6L9.4 5.55L9.25 5.4L9.1 5.35L8.85 5.45L8.05 6.2L7 5.45Q6.6 5.5 6.8 5.9M6.8,8.75Q6.55 8.75 6.5 9L6.4 9.5L6.55 9.95L6.8 10.05L7.6 9.95L7.65 9.85L7.65 9.8L7.65 9.55L7.65 9.4L7.65 9.35L7.45 9.25L7.15 9L6.8 8.75M5.4,18.45Q5.6 18.45 5.75 18.6L5.95 19L5.95 19.15Q5.75 19.45 5.4 19.35Q5 19.2 5 18.8L5.05 18.75L5.05 18.65L5.2 18.55L5.4 18.45M16.3,14.1L16.25 14.2L16.25 14.3Q16.35 14.75 16.9 14.75Q17.2 14.75 17.25 14.5L17.25 14.3L16.95 14L16.6 13.95L16.45 14L16.3 14.1M12.95,17.25Q12.75 17.45 12.8 17.75L12.95 18.05L13.05 18.1L13.5 18.15L13.65 18.1L13.75 17.9L13.7 17.4Q13.55 17.1 13.2 17.15L12.95 17.25" />
<path style="fill:#4D3212;fill-opacity:1" d="M3.85,4.4Q1.35 7.55 1.35 12Q1.35 16.45 3.85 19.6Q6.35 22.8 9.9 22.8Q11.85 22.8 13.5 21.8Q14.8 21 15.9 19.6Q18.2 16.75 18.45 12.85L18.45 12Q18.45 7.55 15.9 4.4Q13.4 1.25 9.9 1.25Q8.55 1.25 7.4 1.7Q5.85 2.3 4.55 3.65L3.85 4.4M14.4,12.1L14.4 12.55Q14.3 13.85 13.55 14.8Q12.7 15.95 11.5 15.95Q10.3 15.95 9.45 14.8Q8.6 13.7 8.6 12.1L8.7 11.1Q8.9 10.1 9.45 9.35Q10.3 8.25 11.5 8.25Q12.7 8.25 13.55 9.35Q14.4 10.5 14.4 12.1M10.2,13.8Q10.7 14.55 11.5 14.55Q12.25 14.55 12.8 13.8L12.9 13.65L13.35 12.1L13.3 11.35L12.8 10.3Q12.25 9.6 11.5 9.6Q10.7 9.6 10.2 10.3Q9.7 10.95 9.65 11.85L9.65 12.1Q9.65 12.6 9.8 13.1L10.2 13.8M19.4,12Q19.4 14.6 18.6 16.8Q17.9 18.8 16.55 20.45L15.05 22.05Q12.7 24 9.7 24Q5.7 24 2.85 20.45Q0 16.95 0 12Q0 7.05 2.85 3.5L4.4 1.95L5.4 1.2Q7.35 0 9.7 0Q13.7 0 16.55 3.5Q19.4 7.05 19.4 12" />
<path style="fill:#745416;fill-opacity:1" d="M4.55,3.65Q4 5.85 4 9.05Q4 10.8 4.55 12.7L4.3 12.65L4.2 12.65Q3.85 12.85 3.9 13.25Q3.95 13.75 4.55 13.65L4.65 13.55L4.75 13.4L4.9 13.8L5.45 15.15L5.6 15.15L5.75 15.2L5.9 15.25L5.95 15.4L5.95 15.7L5.9 16Q6.7 17.55 7.9 18.8L9.75 20.3L9.85 20.2Q10.05 20.05 10.2 20.05L10.4 20.05L10.55 20.1L10.7 20.15L10.75 20.4L10.7 20.85L13.05 21.7L13.5 21.8Q11.85 22.8 9.9 22.8Q6.35 22.8 3.85 19.6Q1.35 16.45 1.35 12Q1.35 7.55 3.85 4.4L4.55 3.65M9.8,13.1Q10.7 13.7 12.4 13.7L12.9 13.65L12.8 13.8Q12.25 14.55 11.5 14.55Q10.7 14.55 10.2 13.8L9.8 13.1M7,5.45L8.05 6.2L8.85 5.45L9.1 5.35L9.25 5.4L9.4 5.55L9.45 5.6L8.85 6.75L9.45 7.6L9.4 7.8Q8.75 8 8.05 7.45L7.35 7.5L7.25 7.5L7.5 6.85L6.8 5.9Q6.6 5.5 7 5.45M7.15,9L7.45 9.25L7.65 9.35L7.65 9.4L7.65 9.55L7.65 9.8L7.65 9.85L7.6 9.95L6.8 10.05L6.55 9.95L6.4 9.5L6.5 9Q6.55 8.75 6.8 8.75L7.15 9M5.2,18.55L5.05 18.65L5.05 18.75L5 18.8Q5 19.2 5.4 19.35Q5.75 19.45 5.95 19.15L5.95 19L5.75 18.6Q5.6 18.45 5.4 18.45L5.2 18.55M16.45,14L16.6 13.95L16.95 14L17.25 14.3L17.25 14.5Q17.2 14.75 16.9 14.75Q16.35 14.75 16.25 14.3L16.25 14.2L16.3 14.1L16.45 14M13.2,17.15Q13.55 17.1 13.7 17.4L13.75 17.9L13.65 18.1L13.5 18.15L13.05 18.1L12.95 18.05L12.8 17.75Q12.75 17.45 12.95 17.25L13.2 17.15" />
</g>
</svg>
