<?xml version="1.0" encoding="utf-8"?>
<svg version="1.1" id="Layer_1"
xmlns="http://www.w3.org/2000/svg"
xmlns:xlink="http://www.w3.org/1999/xlink"
xmlns:author="http://www.sothink.com"
width="242px" height="84px"
xml:space="preserve">
<g id="189" transform="matrix(1, 0, 0, 1, 45, 15.5)">
<linearGradient
id="LinearGradID_433" gradientUnits="userSpaceOnUse" gradientTransform="matrix(0.000747681, 0.0365601, -0.620407, 0.000747681, -183.15, 28.6)" spreadMethod ="pad" x1="-819.2" y1="0" x2="819.2" y2="0" >
<stop  offset="0" style="stop-color:#BAFA60;stop-opacity:1" />
<stop  offset="1" style="stop-color:#70D725;stop-opacity:1" />
</linearGradient>
<path style="fill:url(#LinearGradID_433) " d="M168.75,15.2Q152 16.45 130.9 20.8Q103.9 26.4 79.95 32.25Q17.7 47 -19.4 32.4Q-26.25 29.7 -32.2 26.05L-33.1 25.5L-33.1 18.8Q-33.1 5.9 -25.05 0.35Q-19 -3.85 -8.35 -3.85L168 -3.85L169.35 -3.45Q173.4 -2.4 176.4 -0.4Q183.4 4.4 184.5 14.75L168.75 15.2M173.55,2.15Q172.45 1.4 170.5 1.1Q166.8 0.5 165.9 3.7Q165.4 5.5 168.45 6.75L171.1 7.6Q172.5 7.95 173.6 7.15Q174.7 6.4 174.85 5.15Q175.15 3.2 173.55 2.15M-19.95,3.8L-21 5.4L-22.15 8.6Q-23.25 12.85 -20.55 12.95Q-19.3 12.95 -17.2 12.05Q-10.8 9.3 -10.5 4.25Q-10.35 2.25 -11.65 1.35L-15.5 1.25Q-18.7 2.45 -19.95 3.8" />
<linearGradient
id="LinearGradID_434" gradientUnits="userSpaceOnUse" gradientTransform="matrix(0.0142212, 0.0681305, -0.140823, 0.0294037, 71.5, 5.6)" spreadMethod ="pad" x1="-819.2" y1="0" x2="819.2" y2="0" >
<stop  offset="0.00392157" style="stop-color:#A7E05E;stop-opacity:1" />
<stop  offset="0.423529" style="stop-color:#62DB22;stop-opacity:1" />
<stop  offset="1" style="stop-color:#0F7826;stop-opacity:1" />
</linearGradient>
<path style="fill:url(#LinearGradID_434) " d="M-33.1,34.4Q-33.05 36.7 -32.65 38.8L-32.1 41.5Q-30.25 48.85 -24.2 52.55Q-18.3 56.15 -8.35 56.15L74.4 56L74.4 55.95L168.5 55.7Q175.85 55.2 179.65 51.65L180.7 50.45Q184.5 45.65 184.7 42.4L184.7 34.4L184.7 18.8L184.5 14.75Q183.4 4.4 176.4 -0.4Q173.4 -2.4 169.35 -3.45L168 -3.85L-8.35 -3.85Q-19 -3.85 -25.05 0.35Q-33.1 5.9 -33.1 18.8L-33.1 25.5L-33.1 34.4M184.2,-7.45Q192.35 -1.8 192.35 11.85L192.35 41.5Q192.05 51.65 187.05 57.15Q181.15 63.55 168.8 63.65L168.5 63.65L-17.1 63.65Q-25.6 63.65 -31 60.7Q-40.45 55.5 -40.85 41.5L-40.85 40.4L-40.85 11.85Q-40.85 -0.65 -34 -6.45Q-28.1 -11.45 -17.1 -11.45L168.5 -11.45Q178.4 -11.45 184.2 -7.45" />
<linearGradient
id="LinearGradID_435" gradientUnits="userSpaceOnUse" gradientTransform="matrix(-0.000671387, 0.0490112, -0.147552, -0.00202942, 75.7, 25)" spreadMethod ="pad" x1="-819.2" y1="0" x2="819.2" y2="0" >
<stop  offset="0" style="stop-color:#2C7714;stop-opacity:1" />
<stop  offset="1" style="stop-color:#1B462A;stop-opacity:1" />
</linearGradient>
<path style="fill:url(#LinearGradID_435) " d="M168.5,-11.45L-17.1 -11.45Q-28.1 -11.45 -34 -6.45Q-40.85 -0.65 -40.85 11.85L-40.85 40.4L-40.85 41.5Q-40.45 55.5 -31 60.7Q-25.6 63.65 -17.1 63.65L168.5 63.65L168.8 63.65Q181.15 63.55 187.05 57.15Q192.05 51.65 192.35 41.5L192.35 11.85Q192.35 -1.8 184.2 -7.45Q178.4 -11.45 168.5 -11.45M187.45,-10.35Q196.4 -3.7 196.4 11.85L196.4 41.6Q196.15 53.3 190.5 59.75Q183.55 67.65 168.5 67.65L-17.1 67.65Q-27.3 67.65 -33.8 64Q-44.6 57.9 -45 41.6L-45 41.5L-45 40.4L-45 11.85Q-45 -2.3 -37.5 -9.1Q-35.6 -10.9 -33.2 -12.15Q-26.8 -15.5 -17.1 -15.5L168.5 -15.5Q178.2 -15.5 184.6 -12.15L187.45 -10.35" />
<path style="fill:#FFFFFF;fill-opacity:1" d="M174.85,5.15Q174.7 6.4 173.6 7.15Q172.5 7.95 171.1 7.6L168.45 6.75Q165.4 5.5 165.9 3.7Q166.8 0.5 170.5 1.1Q172.45 1.4 173.55 2.15Q175.15 3.2 174.85 5.15M-15.5,1.25L-11.65 1.35Q-10.35 2.25 -10.5 4.25Q-10.8 9.3 -17.2 12.05Q-19.3 12.95 -20.55 12.95Q-23.25 12.85 -22.15 8.6L-21 5.4L-19.95 3.8Q-18.7 2.45 -15.5 1.25" />
<linearGradient
id="LinearGradID_436" gradientUnits="userSpaceOnUse" gradientTransform="matrix(0.000747681, 0.0365601, -0.620407, 0.000747681, -183.15, 28.6)" spreadMethod ="pad" x1="-819.2" y1="0" x2="819.2" y2="0" >
<stop  offset="0" style="stop-color:#8BFF51;stop-opacity:1" />
<stop  offset="1" style="stop-color:#4EC513;stop-opacity:1" />
</linearGradient>
<path style="fill:url(#LinearGradID_436) " d="M-33.1,25.5L-32.2 26.05Q-26.25 29.7 -19.4 32.4Q17.7 47 79.95 32.25Q103.9 26.4 130.9 20.8Q152 16.45 168.75 15.2L184.5 14.75L184.7 18.8L184.7 34.4L184.7 42.4Q184.5 45.65 180.7 50.45L179.65 51.65Q175.85 55.2 168.5 55.7L74.4 55.95L74.4 56L-8.35 56.15Q-18.3 56.15 -24.2 52.55Q-30.25 48.85 -32.1 41.5L-32.65 38.8Q-33.05 36.7 -33.1 34.4L-33.1 25.5" />
</g>
</svg>
