<?xml version="1.0" encoding="utf-8"?>
<svg version="1.1" id="Layer_1"
xmlns="http://www.w3.org/2000/svg"
xmlns:xlink="http://www.w3.org/1999/xlink"
xmlns:author="http://www.sothink.com"
width="21px" height="31px"
xml:space="preserve">
<g id="685" transform="matrix(1, 0, 0, 1, 0.2, 2.7)">
<path style="fill:#A7CEF3;fill-opacity:1" d="M13.35,3.15L13.4 3.15L13.35 3.15" />
<path style="fill:#3E6C98;fill-opacity:1" d="M19.1,8.4L19.1 8.65L19.1 9.2L19.1 8.4" />
<path style="fill:#D74B25;fill-opacity:1" d="M13.7,18.05L13.7 18.1L13.65 18.1L13.7 18.05" />
<path style="fill:#232323;fill-opacity:1" d="M13.6,18.75L12.9 22.4L12.05 22.45Q11.05 22.3 8.8 19.4Q6.55 16.5 6 13.15Q5.85 12.55 6 11.35Q7.7 15.35 13.7 18.3L13.6 18.75" />
<path style="fill:#383838;fill-opacity:1" d="M13.7,18.3L13.7 18.2L13.75 18.2L14.75 17.95Q15.9 17.55 17.95 15.75L17.5 18.1L15.4 20.45Q13.85 22 12.9 22.4L13.6 18.75L13.7 18.3" />
<linearGradient
id="LinearGradID_809" gradientUnits="userSpaceOnUse" gradientTransform="matrix(0.00666809, -0.00386047, 0.00500488, 0.00865173, 10, 15.3)" spreadMethod ="pad" x1="-819.2" y1="0" x2="819.2" y2="0" >
<stop  offset="0" style="stop-color:#383838;stop-opacity:1" />
<stop  offset="0.992157" style="stop-color:#414141;stop-opacity:1" />
</linearGradient>
<path style="fill:url(#LinearGradID_809) " d="M13.65,18.1L13.7 18.1L13.7 18.15L13.7 18.2L13.7 18.3Q7.7 15.35 6 11.35Q5.85 12.55 6 13.15Q6.55 16.5 8.8 19.4Q11.05 22.3 12.05 22.45L12.9 22.4L12.75 23.2L12.7 23.25L12.65 23.25L12.5 23.3L12.4 23.3L11.75 23.05L10.2 21.85Q8.1 19.95 6.75 17.4Q5.65 15.35 5.05 11.8L4.9 10.5L5.3 10.15L7.4 8.45L11.5 5.35L13.9 3.65Q14.45 9.6 13.7 18.05L13.65 18.1" />
<linearGradient
id="LinearGradID_810" gradientUnits="userSpaceOnUse" gradientTransform="matrix(0.00517273, 0.00471497, -0.00624084, 0.00683594, 11.7, 11.9)" spreadMethod ="pad" x1="-819.2" y1="0" x2="819.2" y2="0" >
<stop  offset="0.027451" style="stop-color:#383636;stop-opacity:1" />
<stop  offset="1" style="stop-color:#6D6969;stop-opacity:1" />
</linearGradient>
<path style="fill:url(#LinearGradID_810) " d="M12.9,22.4Q13.85 22 15.4 20.45L17.5 18.1L17.95 15.75Q15.9 17.55 14.75 17.95L13.75 18.2L13.7 18.2L13.7 18.15L13.7 18.1L13.7 18.05Q14.45 9.6 13.9 3.65L14.15 4.05L16.5 6.45L17.9 7.85L19.1 9.2L18.85 13.05L18.8 13.25L18 18.5L17.3 19.25L17.15 19.4L16.65 19.9L15.85 20.75L14.05 22.3L12.75 23.2L12.9 22.4" />
<path style="fill:#A8A8A8;fill-opacity:1" d="M13.95,3.1L14.95 3.95L17.35 6.1L19.1 8.2L19.1 8.4L19.1 9.2L17.9 7.85L16.5 6.45L14.15 4.05L13.9 3.65L13.95 3.1M13.85,3.6L13.9 3.65L13.85 3.6" />
<path style="fill:#7B7B7B;fill-opacity:1" d="M4.9,10.5Q4.85 9.65 5.15 9.35L5.2 9.3L6.5 8.05Q7.45 7.15 9.95 5.35Q11.9 3.9 13.35 3.15L13.4 3.15L13.6 3.05L13.95 3.1L13.9 3.65L13.85 3.6L13.9 3.65L11.5 5.35L7.4 8.45L5.3 10.15L4.9 10.5" />
<path style="fill:#81878E;fill-opacity:1" d="M13.75,-0.15L14.9 0.05L16.35 1.5L19.1 4.25L19.1 7L18.5 6.05L18.5 4.8Q18.55 4.3 17.8 3.7L15.15 1.35Q14.65 1.05 14.6 1.55L14.5 2.25L13.8 1.75L13.75 1.75L13.7 1.7L13.8 0.65L13.8 0.55L13.75 -0.15" />
<path style="fill:#11141C;fill-opacity:1" d="M14.5,-1.65L16.8 0.5L17.3 1L19.95 3.75Q20.25 4.05 20.2 5.35L20.2 5.9L20.05 7.7L20.05 8L19.95 9.9L19.85 10.95L19.7 12.7L19.6 14.05L19.2 17.8L18.7 20.35L18.05 22.05L16.1 24.8L13.35 27.7Q12.6 28.35 11.8 28.3L11.2 28.1Q3.9 24.65 1.4 18.25L0.85 16.6L0.3 13.9L-0.15 10L-0.2 7.85L-0.2 7.5Q0.95 5.6 3.15 3.75L7.45 0.45L10.7 -1.6Q11.75 -2.3 12.95 -2.7L13 -2.7L14.5 -1.65M0.85,8.55L0.85 8.65L0.9 10.3Q1.05 13 1.3 14.15Q2 17.15 3.2 19.35Q4.3 21.5 6.05 23.3Q7.65 24.95 9.25 25.85L12 27.2L12.05 27.2L12.2 27.2L14.8 24.8L15.55 23.9L15.65 23.8L16.75 22.3L17.55 20.8L17.8 19.85L16.25 21.45L14.45 23L12.75 24.2L12.6 24.25L12.55 24.25Q11.75 24.4 10.4 23.15Q8.8 21.7 7.25 19.65Q5.7 17.55 4.85 14.8L3.85 11.05Q3.65 9.9 3.85 9.35L3.95 9.2L4.95 8.25L5 8.2L7.7 5.75L10.9 3.4Q13.3 1.75 13.5 1.7L13.65 1.7L13.7 1.7L13.75 1.75L13.8 1.75L14.5 2.25L15.55 3.2L17.55 5.05L18.5 6.05L19.1 7L19.1 4.25L16.35 1.5L14.9 0.05L13.6 -1.1L13.15 -1.4Q9.6 0.15 6.25 2.6Q2.85 5.1 1.3 7.1L0.9 7.6L0.85 8.1L0.85 8.55M13.35,3.15Q11.9 3.9 9.95 5.35Q7.45 7.15 6.5 8.05L5.2 9.3L5.15 9.35Q4.85 9.65 4.9 10.5L5.05 11.8Q5.65 15.35 6.75 17.4Q8.1 19.95 10.2 21.85L11.75 23.05L12.4 23.3L12.5 23.3L12.65 23.25L12.7 23.25L12.75 23.2L14.05 22.3L15.85 20.75L16.65 19.9L17.15 19.4L17.3 19.25L18 18.5L18.8 13.25L18.85 13.05L19.1 9.2L19.1 8.65L19.1 8.4L19.1 8.2L17.35 6.1L14.95 3.95L13.95 3.1L13.6 3.05L13.4 3.15L13.35 3.15" />
<linearGradient
id="LinearGradID_811" gradientUnits="userSpaceOnUse" gradientTransform="matrix(0.00527954, 0.00421143, -0.00848389, 0.0106354, 13.35, 13.75)" spreadMethod ="pad" x1="-819.2" y1="0" x2="819.2" y2="0" >
<stop  offset="0.00784314" style="stop-color:#484E56;stop-opacity:1" />
<stop  offset="1" style="stop-color:#262D35;stop-opacity:1" />
</linearGradient>
<path style="fill:url(#LinearGradID_811) " d="M12.3,26.1L12.2 26.1Q9.9 25.7 6.85 22.55Q2.05 17.55 1.6 9.5L1.6 7.25L1.75 7.1L3.8 5.05L5.2 4L6.6 3.1Q7.4 2.5 10.3 1.1Q13.2 -0.35 13.65 -0.2L13.75 -0.15L13.8 0.55L13.8 0.65L13.7 1.7L13.65 1.7L13.5 1.7Q13.3 1.75 10.9 3.4L7.7 5.75L5 8.2L4.95 8.25L3.95 9.2L3.85 9.35Q3.65 9.9 3.85 11.05L4.85 14.8Q5.7 17.55 7.25 19.65Q8.8 21.7 10.4 23.15Q11.75 24.4 12.55 24.25L12.6 24.25L12.3 26.1" />
<linearGradient
id="LinearGradID_812" gradientUnits="userSpaceOnUse" gradientTransform="matrix(0.00244141, 0, 0, 0.00292969, 16.5, 3.65)" spreadMethod ="pad" x1="-819.2" y1="0" x2="819.2" y2="0" >
<stop  offset="0.00784314" style="stop-color:#484E56;stop-opacity:1" />
<stop  offset="1" style="stop-color:#262D35;stop-opacity:1" />
</linearGradient>
<path style="fill:url(#LinearGradID_812) " d="M14.6,1.55Q14.65 1.05 15.15 1.35L17.8 3.7Q18.55 4.3 18.5 4.8L18.5 6.05L17.55 5.05L15.55 3.2L14.5 2.25L14.6 1.55" />
<linearGradient
id="LinearGradID_813" gradientUnits="userSpaceOnUse" gradientTransform="matrix(0.00257874, -0.000610352, 0.000686646, 0.00288391, 14.85, 23.05)" spreadMethod ="pad" x1="-819.2" y1="0" x2="819.2" y2="0" >
<stop  offset="0.00784314" style="stop-color:#484E56;stop-opacity:1" />
<stop  offset="1" style="stop-color:#262D35;stop-opacity:1" />
</linearGradient>
<path style="fill:url(#LinearGradID_813) " d="M12.6,24.25L12.75 24.2L14.45 23L16.25 21.45L17.8 19.85L17.55 20.8L16.75 22.3L15.65 23.8Q14.75 24.45 13.4 25.45L12.3 26.1L12.6 24.25" />
<path style="fill:#222A33;fill-opacity:1" d="M13.4,25.45Q14.75 24.45 15.65 23.8L15.55 23.9L14.8 24.8L12.2 27.2L12.05 27.2L12 27.2L9.25 25.85Q7.65 24.95 6.05 23.3Q4.3 21.5 3.2 19.35Q2 17.15 1.3 14.15Q1.05 13 0.9 10.3L0.85 8.65L0.85 8.55L0.85 8.1L1.6 7.25L1.6 9.5Q2.05 17.55 6.85 22.55Q9.9 25.7 12.2 26.1L12.3 26.1L13.4 25.45" />
<path style="fill:#B4BBC4;fill-opacity:1" d="M13.75,-0.15L13.65 -0.2Q13.2 -0.35 10.3 1.1Q7.4 2.5 6.6 3.1L5.2 4L3.8 5.05L1.75 7.1L1.6 7.25L0.85 8.1L0.9 7.6L1.3 7.1Q2.85 5.1 6.25 2.6Q9.6 0.15 13.15 -1.4L13.6 -1.1L14.9 0.05L13.75 -0.15" />
</g>
</svg>
