<?xml version="1.0" encoding="utf-8"?>
<svg version="1.1" id="Layer_1"
xmlns="http://www.w3.org/2000/svg"
xmlns:xlink="http://www.w3.org/1999/xlink"
xmlns:author="http://www.sothink.com"
width="65px" height="52px"
xml:space="preserve">
<g id="3121" transform="matrix(1, 0, 0, 1, 36.95, 11.5)">
<path style="fill:#DB2AF0;fill-opacity:1" d="M17.4,-8.05L17.35 -7.7Q17.15 -7.5 16.95 -7.45L16.45 -8.05Q16.45 -8.6 16.95 -8.5L17.4 -8.05M19,-1.05L19.1 -1.9Q19.25 -2.35 19.95 -2.35Q20.95 -2.35 21.45 -0.55Q21.45 0.4 20.25 0.4Q19.25 0.4 19.05 -0.3L19 -0.75L19 -1.05M21,22.45Q21 22.15 21.15 22.15L21.45 22.1L21.8 22.45L21.65 22.8L21.45 22.85L21.15 22.8L21 22.45M8.8,0.1Q9.05 0.15 9.1 0.45L8.8 0.7L8.55 0.7L8.5 0.4L8.55 0.15L8.8 0.1M3.9,15.7L4 16.4Q4 17.6 3.15 17.6Q2.55 17.6 2.25 16.9L2.05 16.15Q2.05 15.1 2.95 15.1Q3.65 15.1 3.9 15.7M15.25,21.75L15.35 22.25L15.35 22.5L15.25 22.7L14.9 22.8Q14.25 22.8 14.25 22.15Q14.25 21.55 14.75 21.7L15.25 21.75M11.15,30.75Q12.35 30.75 12.8 32L12.95 33.2L12.9 34.2Q12.65 34.75 11.8 34.75Q10.4 34.75 9.9 33.6L9.7 32.85L9.7 32.5Q9.7 30.75 11.15 30.75M25.75,38.8L25.75 38.1Q25.9 37.55 26.6 37.55Q27.45 37.55 27.55 38.75L27.2 39.6L26.5 40.05Q25.9 40.05 25.75 39.45L25.75 38.8M-28.35,-3.8Q-28.35 -3.45 -28.8 -3.3L-29.15 -3.5L-29.2 -3.75L-29.05 -4.1L-28.8 -4.15L-28.35 -3.8M-17.25,-10.25Q-16.65 -11.5 -16.35 -11.5Q-15.25 -11.5 -14.65 -10.95Q-14.25 -10.65 -14.25 -10.25Q-14.25 -9.5 -14.9 -8.15Q-15.7 -6.5 -16.55 -6.5Q-17.45 -6.5 -17.7 -7.55L-17.8 -8.65L-17.25 -10.25M-8.9,12.35L-9 13.5Q-9 16.75 -10.45 16.75Q-11.45 16.75 -11.65 15.6L-11.75 14.85L-11.8 13.75L-11.65 12.7Q-11.3 11.15 -9.8 11.15Q-9.1 11.15 -8.9 12.35M-15.2,8.9L-15.45 8.8L-15.55 8.45L-15.4 8.15L-15.2 8.1L-14.75 8.45L-14.9 8.8L-15.2 8.9M-23.1,8.45L-23.25 8.7L-23.5 8.4L-23.1 8.45M-31.65,3.5L-31.8 3.3L-31.85 3.15L-31.65 2.8L-31.4 2.8L-30.95 3.15L-31.1 3.5L-31.4 3.55L-31.65 3.5M-36.8,12L-36.55 11.9L-36.2 12.25L-36.3 12.6L-36.55 12.7L-36.8 12.6L-36.95 12.25L-36.8 12M-25.55,23.95L-25.9 23.75L-25.95 23.5Q-25.95 23.2 -25.75 23.15L-25.55 23.1Q-25.25 23.2 -25.05 23.45Q-25.05 23.8 -25.55 23.95M-26.45,36.3Q-25.55 36.3 -25.3 37.35Q-25.2 37.9 -25.25 38.45Q-25.05 40.05 -26.2 40.05Q-27.15 40.05 -27.35 39L-27.4 38.3L-27.35 37.95L-27.35 36.95Q-27.25 36.3 -26.45 36.3M-33.25,26.95L-33.6 27.3L-33.95 27.05L-33.6 26.6Q-33.35 26.7 -33.25 26.95" />
</g>
</svg>
