<?xml version="1.0" encoding="utf-8"?>
<svg version="1.1" id="Layer_1"
xmlns="http://www.w3.org/2000/svg"
xmlns:xlink="http://www.w3.org/1999/xlink"
xmlns:author="http://www.sothink.com"
width="181px" height="31px"
xml:space="preserve">
<g id="957" transform="matrix(1, 0, 0, 1, 22.2, -27.35)">
<path style="fill:#680B01;fill-opacity:1" d="M139.8,49.15L139.6 50.75L138.4 50.35L137.1 50.2Q136.15 50.2 135.55 50.6Q134.9 51.05 134.6 51.7Q134.35 52.4 134.35 53.3Q134.35 54.25 134.65 54.95Q134.95 55.65 135.6 56.05L137.15 56.5L137.75 56.45L138.4 56.35L138.4 54.7L137.4 54.7L137.4 53.35L140.05 53.35L140.05 57.4L139.2 57.75L138.05 58L136.95 58.1Q135.65 58.1 134.65 57.5Q133.65 56.9 133.1 55.85Q132.5 54.8 132.5 53.35Q132.5 51.9 133.1 50.85Q133.65 49.8 134.7 49.2Q135.7 48.6 137.05 48.6L138 48.7L138.95 48.85L139.8 49.15M131.05,48.8L131.05 57.9L129.65 57.9L125.5 51.65L125.5 57.9L123.85 57.9L123.85 48.8L125.5 48.8L129.4 54.7L129.4 48.8L131.05 48.8M154.1,49L154.8 49.3L154.6 51L153.25 50.4L151.95 50.2L151.2 50.3Q150.8 50.35 150.55 50.55Q150.3 50.8 150.3 51.15L150.55 51.75L151.2 52.15L152.1 52.5L153.2 52.85L154.25 53.35L154.95 54.2L155.25 55.45L155.15 56.3L154.65 57.15L153.6 57.8L151.75 58.1L149.9 57.9L148.75 57.4L148.9 55.5L150 56.2L151.8 56.5L152.95 56.25Q153.4 56.05 153.4 55.5Q153.4 55.05 153.1 54.75Q152.8 54.45 152.35 54.25L151.3 53.85L150 53.4L149 52.65Q148.6 52.15 148.6 51.35Q148.6 50.9 148.75 50.4Q148.95 49.95 149.3 49.55Q149.7 49.1 150.35 48.85L151.9 48.6L153.1 48.75L154.1 49M158.1,48.15L157.8 55.3L156.75 55.3L156.5 48.15L158.1 48.15M147.5,48.8L147.5 50.4L143.4 50.4L143.4 52.35L146.6 52.35L146.6 53.95L143.4 53.95L143.4 56.3L147.65 56.3L147.65 57.9L141.7 57.9L141.7 48.8L147.5 48.8M87.4,48.8L87.4 52.35L91.7 52.35L91.7 48.8L93.35 48.8L93.35 57.9L91.7 57.9L91.7 53.95L87.4 53.95L87.4 57.9L85.75 57.9L85.75 48.8L87.4 48.8M99.2,48.8L102.45 57.9L100.7 57.9L99.95 55.7L96.9 55.7L96.1 57.9L94.4 57.9L97.65 48.8L99.2 48.8M84.4,49.15L84.2 50.75L83.05 50.35L81.8 50.2Q80.9 50.2 80.3 50.6Q79.75 51 79.45 51.7Q79.15 52.45 79.15 53.35Q79.15 54.25 79.45 54.95Q79.75 55.7 80.3 56.1Q80.9 56.5 81.8 56.5L83.05 56.35L84.2 55.95L84.4 57.55L83.2 57.95L81.8 58.1Q80.5 58.1 79.45 57.5Q78.45 56.9 77.9 55.85Q77.3 54.8 77.3 53.35Q77.3 51.9 77.9 50.85Q78.45 49.8 79.45 49.2Q80.5 48.6 81.8 48.6L83.2 48.75L84.4 49.15M105.1,48.8L105.1 56.3L108.85 56.3L108.85 57.9L103.45 57.9L103.45 48.8L105.1 48.8M111.6,48.8L111.6 56.3L115.35 56.3L115.35 57.9L109.95 57.9L109.95 48.8L111.6 48.8M118.15,53.95L118.15 56.3L122.4 56.3L122.4 57.9L116.45 57.9L116.45 48.8L122.25 48.8L122.25 50.4L118.15 50.4L118.15 52.35L121.35 52.35L121.35 53.95L118.15 53.95M97.45,54.1L99.35 54.1L98.4 51.45L97.45 54.1M156.5,56.3L158.1 56.3L158.1 57.9L156.5 57.9L156.5 56.3M60.55,27.55L60.55 32.75Q60.55 34 60.15 34.9Q59.7 35.8 58.9 36.35Q58.05 36.85 56.75 36.85L54.65 36.35Q53.8 35.8 53.4 34.9Q53 34 53 32.75L53 27.55L54.65 27.55L54.65 32.2Q54.65 33.05 54.8 33.75L55.45 34.8Q55.9 35.25 56.75 35.25Q57.65 35.25 58.1 34.8L58.7 33.75L58.85 32.2L58.85 27.55L60.55 27.55M51.1,36.65L49.7 36.65L45.55 30.4L45.55 36.65L43.9 36.65L43.9 27.55L45.55 27.55L49.45 33.45L49.45 27.55L51.1 27.55L51.1 36.65M41.85,34.6Q41.25 35.65 40.25 36.25Q39.25 36.85 37.95 36.85Q36.65 36.85 35.6 36.25Q34.6 35.65 34.05 34.6Q33.45 33.55 33.45 32.1Q33.45 30.65 34.05 29.6Q34.6 28.55 35.6 27.95Q36.65 27.35 37.95 27.35Q39.25 27.35 40.25 27.95Q41.25 28.55 41.85 29.6Q42.4 30.65 42.45 32.1Q42.4 33.55 41.85 34.6M55.1,48.8L55.1 57.9L53.45 57.9L53.45 48.8L55.1 48.8M58.75,48.8L62.65 54.7L62.65 48.8L64.3 48.8L64.3 57.9L62.9 57.9L58.75 51.65L58.75 57.9L57.1 57.9L57.1 48.8L58.75 48.8M52.25,48.8L52.25 50.4L49.7 50.4L49.7 57.9L48 57.9L48 50.4L45.45 50.4L45.45 48.8L52.25 48.8M67.95,29.75L66.6 29.15L65.3 28.95L64.55 29.05Q64.15 29.1 63.9 29.3Q63.65 29.55 63.65 29.9L63.9 30.5L64.55 30.9L65.45 31.25L66.55 31.6L67.6 32.1L68.3 32.95L68.6 34.2L68.5 35.05L68 35.9L66.95 36.55L65.1 36.85L63.25 36.65L62.1 36.15L62.25 34.25L63.35 34.95L65.15 35.25L66.3 35Q66.75 34.8 66.75 34.25L66.45 33.5Q66.15 33.2 65.7 33L64.65 32.6L63.35 32.15L62.35 31.4Q61.95 30.9 61.95 30.1Q61.95 29.65 62.1 29.15L62.65 28.3Q63.05 27.85 63.7 27.6L65.25 27.35L66.45 27.5L67.45 27.75L68.15 28.05L67.95 29.75M70.3,48.6L71.25 48.7L72.2 48.85L73.05 49.15L72.85 50.75L71.65 50.35L70.35 50.2Q69.4 50.2 68.8 50.6Q68.15 51.05 67.85 51.7Q67.6 52.4 67.6 53.3Q67.6 54.25 67.9 54.95Q68.2 55.65 68.85 56.05Q69.45 56.5 70.4 56.5L71 56.45L71.65 56.35L71.65 54.7L70.65 54.7L70.65 53.35L73.3 53.35L73.3 57.4L72.45 57.75L71.3 58L70.2 58.1Q68.9 58.1 67.9 57.5Q66.9 56.9 66.35 55.85Q65.75 54.8 65.75 53.35Q65.75 51.9 66.35 50.85Q66.9 49.8 67.95 49.2Q68.95 48.6 70.3 48.6M14.15,29.15L10.05 29.15L10.05 31.1L13.25 31.1L13.25 32.7L10.05 32.7L10.05 35.05L14.3 35.05L14.3 36.65L8.35 36.65L8.35 27.55L14.15 27.55L14.15 29.15M14.95,29.15L14.95 27.55L21.75 27.55L21.75 29.15L19.2 29.15L19.2 36.65L17.5 36.65L17.5 29.15L14.95 29.15M6.25,29.5L5.05 29.1L3.75 28.95Q2.8 28.95 2.2 29.35Q1.55 29.8 1.25 30.45Q1 31.15 1 32.05Q1 33 1.3 33.7Q1.6 34.4 2.25 34.8Q2.85 35.25 3.8 35.25L4.4 35.2L5.05 35.1L5.05 33.45L4.05 33.45L4.05 32.1L6.7 32.1L6.7 36.15L5.85 36.5L4.7 36.75L3.6 36.85Q2.3 36.85 1.3 36.25Q0.3 35.65 -0.25 34.6Q-0.85 33.55 -0.85 32.1Q-0.85 30.65 -0.25 29.6Q0.3 28.55 1.35 27.95Q2.35 27.35 3.7 27.35L4.65 27.45L5.6 27.6L6.45 27.9L6.25 29.5M7.95,48.6Q9.25 48.6 10.25 49.2Q11.25 49.8 11.85 50.85Q12.4 51.9 12.45 53.35Q12.4 54.8 11.85 55.85Q11.25 56.9 10.25 57.5Q9.25 58.1 7.95 58.1Q6.65 58.1 5.6 57.5Q4.6 56.9 4.05 55.85Q3.45 54.8 3.45 53.35Q3.45 51.9 4.05 50.85Q4.6 49.8 5.6 49.2Q6.65 48.6 7.95 48.6M2.75,49.15L2.55 50.75L1.4 50.35L0.15 50.2Q-0.75 50.2 -1.35 50.6L-2.2 51.7L-2.5 53.35L-2.2 54.95L-1.35 56.1Q-0.75 56.5 0.15 56.5L1.4 56.35L2.55 55.95L2.75 57.55L1.55 57.95L0.15 58.1Q-1.15 58.1 -2.2 57.5Q-3.2 56.9 -3.75 55.85Q-4.35 54.8 -4.35 53.35Q-4.35 51.9 -3.75 50.85Q-3.2 49.8 -2.2 49.2Q-1.15 48.6 0.15 48.6L1.55 48.75L2.75 49.15M16,48.8L18.2 52.95L20.45 48.8L21.8 48.8L23.05 57.9L21.3 57.9L20.55 51.8L18.2 56L15.9 51.8L15.1 57.9L13.35 57.9L14.65 48.8L16 48.8M37.95,28.95L36.45 29.35Q35.9 29.75 35.6 30.45Q35.3 31.2 35.3 32.1Q35.3 33 35.6 33.7L36.45 34.85Q37.05 35.25 37.95 35.25Q38.85 35.25 39.4 34.85L40.3 33.7L40.6 32.1L40.3 30.45Q40 29.75 39.4 29.35Q38.85 28.95 37.95 28.95M31.8,29.9L31.6 31L31.05 31.8L32.2 32.6Q32.6 33.1 32.6 33.95L32.3 35.3L31.55 36.1L30.5 36.55L29.35 36.65L25.85 36.65L25.85 27.55L28.3 27.55L30.15 27.7Q30.9 27.9 31.35 28.4Q31.8 28.9 31.8 29.9M30.4,32.8Q29.95 32.5 29.25 32.5L27.5 32.5L27.5 35.25L29.15 35.25L30.4 34.95Q30.9 34.65 30.9 33.9Q30.9 33.1 30.4 32.8M27.5,28.95L27.5 31.2L29.15 31.2L29.65 31.1L30.05 30.8L30.25 30.15L30.1 29.4L29.65 29.05L29 28.95L27.5 28.95M30.05,49.3Q30.55 49.6 30.8 50.2L31.05 51.7L30.75 53.3L29.95 54.3L28.95 54.75L27.9 54.9L26.25 54.9L26.25 57.9L24.6 57.9L24.6 48.8L27.15 48.8L28.85 48.9L30.05 49.3M34,48.8L34 56.3L37.75 56.3L37.75 57.9L32.35 57.9L32.35 48.8L34 48.8M28.7,50.35L27.65 50.2L26.25 50.2L26.25 53.35L27.65 53.35Q28.55 53.35 29 53Q29.4 52.6 29.4 51.7L29.25 50.85L28.7 50.35M10.6,53.35L10.3 51.7L9.4 50.6Q8.85 50.2 7.95 50.2L6.45 50.6Q5.9 51 5.6 51.7Q5.3 52.45 5.3 53.35Q5.3 54.25 5.6 54.95Q5.9 55.7 6.45 56.1Q7.05 56.5 7.95 56.5Q8.85 56.5 9.4 56.1L10.3 54.95L10.6 53.35M43.75,53.95L40.55 53.95L40.55 56.3L44.8 56.3L44.8 57.9L38.85 57.9L38.85 48.8L44.65 48.8L44.65 50.4L40.55 50.4L40.55 52.35L43.75 52.35L43.75 53.95M-13.75,48.8L-11.55 52.4L-9.35 48.8L-7.6 48.8L-10.75 53.85L-10.75 57.9L-12.4 57.9L-12.4 53.85L-15.55 48.8L-13.75 48.8M-17.9,48.95Q-17.15 49.15 -16.7 49.65Q-16.25 50.15 -16.25 51.15L-16.45 52.25L-17 53.05Q-16.25 53.35 -15.85 53.85Q-15.45 54.35 -15.45 55.2Q-15.45 56 -15.75 56.55L-16.5 57.35L-17.55 57.8L-18.7 57.9L-22.2 57.9L-22.2 48.8L-19.75 48.8L-17.9 48.95M-17.8,51.4Q-17.8 50.9 -17.95 50.65Q-18.1 50.4 -18.4 50.3L-19.05 50.2L-20.55 50.2L-20.55 52.45L-18.9 52.45L-18.4 52.35L-18 52.05L-17.8 51.4M-17.65,54.05L-18.8 53.75L-20.55 53.75L-20.55 56.5L-18.9 56.5Q-18.1 56.5 -17.65 56.2Q-17.15 55.9 -17.15 55.15Q-17.15 54.35 -17.65 54.05" />
<path style="fill:#FF3300;fill-opacity:1" d="M135.65,27.75L136.35 28.05L136.15 29.75L134.8 29.15L133.5 28.95L132.75 29.05Q132.35 29.1 132.1 29.3Q131.85 29.55 131.85 29.9L132.1 30.5L132.75 30.9L133.65 31.25L134.75 31.6L135.8 32.1L136.5 32.95L136.8 34.2L136.7 35.05L136.2 35.9Q135.85 36.3 135.15 36.55L133.3 36.85L131.45 36.65Q130.7 36.45 130.3 36.15L130.45 34.25L131.55 34.95L133.35 35.25L134.5 35Q134.95 34.8 134.95 34.25L134.65 33.5Q134.35 33.2 133.9 33L132.85 32.6L131.55 32.15L130.55 31.4Q130.15 30.9 130.15 30.1Q130.15 29.65 130.3 29.15L130.85 28.3Q131.25 27.85 131.9 27.6L133.45 27.35L134.65 27.5L135.65 27.75M128.95,30.2L128.75 31.35L128.2 32.2L127.4 32.85L129.45 36.65L127.75 36.65L125.85 33.25L124.15 33.25L124.15 36.65L122.5 36.65L122.5 27.55L125.85 27.55L127.4 27.8L128.55 28.6Q128.95 29.2 128.95 30.2M127.1,29.55L126.55 29.1L125.45 28.95L124.15 28.95L124.15 31.7L125.4 31.7L126.55 31.55L127.1 31.05L127.2 30.3L127.1 29.55M100.55,28.3Q100.95 27.85 101.6 27.6L103.15 27.35L104.35 27.5L105.35 27.75L106.05 28.05L105.85 29.75L104.5 29.15L103.2 28.95L102.45 29.05Q102.05 29.1 101.8 29.3Q101.55 29.55 101.55 29.9L101.8 30.5L102.45 30.9L103.35 31.25L104.45 31.6L105.5 32.1Q105.95 32.45 106.2 32.95L106.5 34.2L106.4 35.05L105.9 35.9Q105.55 36.3 104.85 36.55L103 36.85L101.15 36.65Q100.4 36.45 100 36.15L100.15 34.25L101.25 34.95L103.05 35.25L104.2 35Q104.65 34.8 104.65 34.25L104.35 33.5Q104.05 33.2 103.6 33L102.55 32.6L101.25 32.15Q100.65 31.85 100.25 31.4Q99.85 30.9 99.85 30.1Q99.85 29.65 100 29.15L100.55 28.3M118.25,27.55L121.5 36.65L119.75 36.65L119 34.45L115.95 34.45L115.15 36.65L113.45 36.65L116.7 27.55L118.25 27.55M113.9,29.15L111.35 29.15L111.35 36.65L109.65 36.65L109.65 29.15L107.1 29.15L107.1 27.55L113.9 27.55L113.9 29.15M118.4,32.85L117.45 30.2L116.5 32.85L118.4 32.85" />
</g>
</svg>
