<?xml version="1.0" encoding="utf-8"?>
<svg version="1.1" id="Layer_1"
xmlns="http://www.w3.org/2000/svg"
xmlns:xlink="http://www.w3.org/1999/xlink"
xmlns:author="http://www.sothink.com"
width="57px" height="22px"
xml:space="preserve">
<g id="2748" transform="matrix(1, 0, 0, 1, 28.3, 14)">
<path style="fill:#9A1A02;fill-opacity:1" d="M-25.85,-11.9L-26.1 -11.5Q-26.65 -10.8 -26.45 -9.05Q-26.4 -7.4 -23.35 -4.9Q-21.1 -3.05 -18.05 -2.25L-15.6 -1.8L-15.45 -1.8L-12.35 -1.6L-13.35 -1.25L-10.15 -1.05Q-10.4 0.75 -14.25 0.05L-15.2 -0.05L-15.3 -0.15L-18.15 -0.8L-20.95 -1.7L-24.75 -3.55Q-25.8 -4.15 -26.1 -4.15L-26.3 -3.9L-26.4 -3.35Q-26.45 -2.6 -25.2 -0.9Q-24.05 0.6 -20.3 2.15L-17.75 3L-14.6 3.25L-12.55 3.05Q-8.65 2.3 -7.9 1.25L-7 0.25L-7.3 1.6Q-7.55 2.15 -9.3 3.25Q-10.5 3.85 -12.8 4.05Q-12.15 4.25 -14.05 4.3L-14.25 4.3L-14.6 4.3L-17.5 4L-19.55 3.6L-22.95 2.4Q-23.75 1.95 -24.05 2Q-24.55 2 -24.4 2.65L-24.4 2.7Q-24.4 3.3 -23.65 4.3Q-22.75 5.35 -20.35 6.45Q-18.5 7.15 -16.25 7.1L-14.75 6.9L-13.35 6.75Q-11.5 6.25 -10.95 5.7L-10.35 4.9L-10.5 5.95Q-10.7 6.35 -11.8 7.1L-13 7.6L-15.7 7.95L-16.3 7.95Q-19.55 7.95 -21.75 6.75Q-23.95 5.65 -24.75 4.6Q-26.45 2.5 -25.2 1.15L-25.2 0.95L-27.05 -0.8Q-29.25 -3.65 -27.45 -5.55L-27.05 -5.6L-26.45 -5.55Q-28.05 -7.7 -28.25 -9.25Q-28.55 -12.45 -25.85 -13.7L-25.65 -13.7Q-24.8 -13.75 -24.25 -13.1L-21.8 -10.2Q-19.85 -8.2 -16.6 -6.75L-15.25 -6.3L-14.9 -6.15L-12.45 -5.3Q-13.45 -4.15 -15.4 -4.7L-16.4 -5.05L-17.2 -5.3Q-20.55 -7 -22.1 -8.75L-24.55 -11.25L-25.3 -12.2Q-25.6 -12.25 -25.85 -11.9M14.95,6.65Q18.05 7.1 20.6 6.15Q22.95 5.1 23.85 4.05L24.55 2.7L24.55 2.4Q24.6 1.75 24.25 1.75Q23.95 1.65 23.1 2.15Q22.3 2.6 19.7 3.3L18.6 3.6L16.45 3.9L14.75 4.05L12.95 3.8Q10.7 3.6 9.45 3L8.9 2.6L8.9 1.65Q10.15 2.3 12.85 2.8Q14.9 3.1 16.85 2.85L19.7 2.25L20.6 1.85Q24.25 0.35 25.5 -1.2Q26.5 -2.7 26.55 -3.5L26.55 -3.65L26.55 -4.15L26.2 -4.45Q26 -4.45 24.95 -3.85Q23.9 -3.25 21.1 -2L19.65 -1.45L18.65 -1.1L17.45 -0.8L14.4 -0.2Q10.6 0.45 10.4 -1.3L13.5 -1.5L12.55 -1.85L15.8 -2.05L17.45 -2.4Q19.65 -2.85 21.45 -3.75L23.1 -4.85L23.5 -5.15Q26.55 -7.7 26.75 -9.35L26.75 -10.4Q26.7 -11.3 26.3 -11.8L25.7 -12.45L25.6 -12.45L24.75 -11.5L22.45 -9L22.1 -8.65L21.6 -8.2L18.85 -6.4L17.45 -5.55L17.05 -5.5Q13.9 -4.15 12.7 -5.55L15.5 -6.55L16.6 -7Q20 -8.4 21.95 -10.45L24.5 -13.4L25.1 -13.75Q25.5 -14.1 26.15 -13.95Q28.85 -12.7 28.4 -9.55Q28.25 -8.4 27.35 -6.95L26.7 -5.8L27.25 -5.9L27.35 -5.9L27.6 -5.8Q29.5 -3.9 27.25 -1.05L25.5 0.65L25.4 0.85Q26.6 2.25 24.95 4.3Q24.1 5.35 21.9 6.5Q19.7 7.7 16.55 7.7L13.95 7.4Q12.7 7.3 12.05 6.85L10.7 5.7L10.45 4.65L11.2 5.45Q11.7 6.15 14.75 6.65L14.95 6.65" />
<path style="fill:#FFC78C;fill-opacity:1" d="M-24.4,2.7L-24.4 2.65Q-24.55 2 -24.05 2Q-23.75 1.95 -22.95 2.4L-19.55 3.6L-17.5 4L-17.4 4.5L-19.35 4.25L-19.5 4.6Q-19.7 4.9 -20.1 4.6Q-20.5 4.3 -20.4 4L-23.25 2.9L-23.65 2.9L-23.65 3.25L-24.4 2.7M-17.2,-5.15L-17.4 -4.85Q-19.35 -5.35 -20.95 -6.4L-21.1 -6.2L-21.5 -5.55L-22.15 -6.15L-21.95 -7.1L-22.15 -7.3L-22.3 -7.3L-22.75 -7.8L-24.2 -9.55Q-25 -10.8 -25.3 -12.2L-24.55 -11.25L-22.1 -8.75Q-20.55 -7 -17.2 -5.3L-17.2 -5.15M-18.15,-0.35L-18.15 0L-19.3 -0.4Q-19.95 -0.65 -20.7 -1.05L-20.75 -0.9L-20.8 -0.85L-21.6 -0.9L-21.95 -1.4L-21.95 -1.45L-21.8 -1.6L-23.05 -2.05L-23.05 -2Q-23.05 -1.9 -23.25 -1.9L-24.85 -2.85L-25.5 -2.85L-25.5 -2.8L-26.3 -3.9L-26.1 -4.15Q-25.8 -4.15 -24.75 -3.55L-20.95 -1.7L-18.15 -0.8L-18.15 -0.35M22.85,-6.2L22.15 -5.8L21.7 -5.5L21.75 -6.75L21.7 -7.8L20.5 -7.1L18.85 -6.4L21.6 -8.2L22.1 -8.65L22.45 -9L24.75 -11.5L25.6 -12.45L25.7 -12.45Q25.6 -11.5 24.8 -10.4L24.35 -9.65L23.1 -8.35L23.15 -6.5L22.85 -6.2M18.65,-1.1L19.65 -1.45L21.1 -2Q23.9 -3.25 24.95 -3.85Q26 -4.45 26.2 -4.45L26.55 -4.15L25.9 -3.15L24.15 -2.5Q20.6 -1.2 18.65 -1.1M23.25,4L21.4 4.95L22.3 4.05L22.65 3L21.6 3.45L19.5 3.65L18.6 3.6L19.7 3.3Q22.3 2.6 23.1 2.15Q23.95 1.65 24.25 1.75Q24.6 1.75 24.55 2.4L24.55 2.7L23.25 4" />
<path style="fill:#CD3E23;fill-opacity:1" d="M-17.4,-4.85L-17.2 -5.15L-17.2 -5.3L-16.4 -5.05L-15.4 -4.7L-15.45 -4.5L-15.5 -3.35L-15.45 -1.8L-15.6 -1.8L-18.05 -2.25Q-21.1 -3.05 -23.35 -4.9Q-26.4 -7.4 -26.45 -9.05Q-26.65 -10.8 -26.1 -11.5L-25.85 -11.9L-25.85 -11.05L-25.7 -10.35Q-25.25 -8.35 -22.15 -6.15L-21.5 -5.55L-19.95 -4.7L-19.95 -4.95L-18.7 -3.95L-17.75 -3.65L-17.4 -4.85M-24.55,-1.7Q-22.8 0 -21.8 0L-21.8 -0.25L-21.8 -0.35L-19.85 0.95Q-18.85 1.45 -18.05 1.75L-18.15 0L-18.15 -0.35L-18.15 -0.8L-15.3 -0.15L-15.3 0L-15.05 0.75L-14.9 1.85L-14.6 3.25L-17.75 3L-20.3 2.15Q-24.05 0.6 -25.2 -0.9Q-26.45 -2.6 -26.4 -3.35L-26.3 -3.9L-25.5 -2.8L-24.55 -1.7M-23.65,3.25L-23.65 3.4Q-22.35 4.3 -21.8 4.3L-21.8 4.2L-20.3 5.35Q-18.85 6.15 -16.6 6.25L-16.9 5.75L-17.4 4.5L-17.5 4L-14.6 4.3L-14.25 4.3L-13.35 6.75L-14.75 6.9L-16.25 7.1Q-18.5 7.15 -20.35 6.45Q-22.75 5.35 -23.65 4.3Q-24.4 3.3 -24.4 2.7L-23.65 3.25M23.15,-6.5L24.15 -7.3L24.55 -7.55L26.4 -9.8L26.75 -10.4L26.75 -9.35Q26.55 -7.7 23.5 -5.15L23.1 -4.85L21.45 -3.75Q19.65 -2.85 17.45 -2.4L17.4 -3.85L19 -4.3Q20.25 -4.7 21.7 -5.5L22.15 -5.8L22.85 -6.2L23.15 -6.5M26.55,-4.15L26.55 -3.65L26.55 -3.5Q26.5 -2.7 25.5 -1.2Q24.25 0.35 20.6 1.85L19.7 2.25L16.85 2.85L17.2 1.85Q19.9 1.45 22.45 -0.05L24.1 -1.4L25.9 -3.15L26.55 -4.15M21.4,4.95L23.25 4L24.55 2.7L23.85 4.05Q22.95 5.1 20.6 6.15Q18.05 7.1 14.95 6.65L14.75 6.65L15.4 5.75L16.75 5.9Q19.3 5.9 21.4 4.95" />
<path style="fill:#E6923A;fill-opacity:1" d="M-25.3,-12.2Q-25 -10.8 -24.2 -9.55L-24.25 -9.55L-24.85 -9.95L-25.5 -10.4L-25.7 -10.35L-25.85 -11.05L-25.85 -11.9Q-25.6 -12.25 -25.3 -12.2M-22.75,-7.8L-22.3 -7.3L-22.75 -7.55L-22.75 -7.8M25.7,-12.45L26.3 -11.8Q26.7 -11.3 26.75 -10.4L26.4 -9.8L24.55 -7.55L24.8 -8.1Q25.7 -9.55 25.7 -10.4L25.7 -10.45L24.8 -10.4Q25.6 -11.5 25.7 -12.45M20.6,-0.25Q20 -0.15 19.85 -0.4L20.4 -0.85L21.3 -1.2L21.6 -1.05L21.65 -0.85L21.65 -0.8L20.6 -0.25M24.15,-2.5L25.9 -3.15L24.1 -1.4L22.45 -0.05L24.15 -2.5M19.2,4.3L19.6 4.3L19.7 4.5L19.7 4.6L18.75 4.7L18.6 4.6L18.75 4.4L19.05 4.3L19.2 4.3M-18.3,5.25L-18.15 5.25L-17.85 5.25L-17.7 5.45L-17.7 5.5Q-17.7 5.65 -17.9 5.65Q-18.45 5.7 -18.5 5.35L-18.45 5.25L-18.3 5.25" />
<path style="fill:#EC7A2F;fill-opacity:1" d="M-22.75,-7.55L-22.3 -7.3L-22.15 -7.3L-21.95 -7.1L-22.15 -6.15Q-25.25 -8.35 -25.7 -10.35L-25.5 -10.4L-24.85 -9.95L-24.25 -9.55L-24.2 -9.55L-22.75 -7.8L-22.75 -7.55M-25.5,-2.8L-25.5 -2.85L-24.85 -2.85L-23.25 -1.9Q-23.05 -1.9 -23.05 -2L-23.05 -2.05L-21.8 -1.6L-21.95 -1.45L-21.95 -1.4L-21.6 -0.9L-20.8 -0.85L-20.75 -0.9L-20.7 -1.05Q-19.95 -0.65 -19.3 -0.4L-18.15 0L-18.05 1.75Q-18.85 1.45 -19.85 0.95L-21.8 -0.35L-21.8 -0.25L-21.8 0Q-22.8 0 -24.55 -1.7L-25.5 -2.8M20.5,-7.1L21.7 -7.8L21.75 -6.75L21.7 -5.5Q20.25 -4.7 19 -4.3L17.4 -3.85L17.05 -5.5L17.45 -5.55L18.85 -6.4L20.5 -7.1M17.45,-0.8L18.65 -1.1Q20.6 -1.2 24.15 -2.5L22.45 -0.05Q19.9 1.45 17.2 1.85L17.45 -0.8M16.75,5.9L15.4 5.75L16.45 3.9L18.6 3.6L19.5 3.65L21.6 3.45L22.65 3L22.3 4.05L21.4 4.95Q19.3 5.9 16.75 5.9M24.15,-7.3L23.15 -6.5L23.1 -8.35L24.35 -9.65L24.8 -10.4L25.7 -10.45L25.7 -10.4Q25.7 -9.55 24.8 -8.1L24.55 -7.55L24.15 -7.3M21.65,-0.8L21.65 -0.85L21.6 -1.05L21.3 -1.2L20.4 -0.85L19.85 -0.4Q20 -0.15 20.6 -0.25L21.65 -0.8M19.05,4.3L18.75 4.4L18.6 4.6L18.75 4.7L19.7 4.6L19.7 4.5L19.6 4.3L19.2 4.3L19.05 4.3M-23.65,3.25L-23.65 2.9L-23.25 2.9L-20.4 4Q-20.5 4.3 -20.1 4.6Q-19.7 4.9 -19.5 4.6L-19.35 4.25L-17.4 4.5L-16.9 5.75L-16.6 6.25Q-18.85 6.15 -20.3 5.35L-21.8 4.2L-21.8 4.3Q-22.35 4.3 -23.65 3.4L-23.65 3.25M-18.45,5.25L-18.5 5.35Q-18.45 5.7 -17.9 5.65Q-17.7 5.65 -17.7 5.5L-17.7 5.45L-17.85 5.25L-18.15 5.25L-18.3 5.25L-18.45 5.25" />
<path style="fill:#781F00;fill-opacity:1" d="M8.4,2.6L7.45 1.9L7.45 0.85L7.55 1L8.4 1.65L8.4 2.6M7.4,0.4L7.4 1.55L7.25 1.35L7.25 1.9L6.9 1.55L6.9 0.4L7.1 0.65L6.95 0L7.4 0.4" />
<path style="fill:#D75500;fill-opacity:1" d="M-17.75,-3.65L-18.7 -3.95L-19.95 -4.95L-19.95 -4.7L-21.5 -5.55L-21.1 -6.2L-20.95 -6.4Q-19.35 -5.35 -17.4 -4.85L-17.75 -3.65" />
</g>
</svg>
