<?xml version="1.0" encoding="utf-8"?>
<svg version="1.1" id="Layer_1"
xmlns="http://www.w3.org/2000/svg"
xmlns:xlink="http://www.w3.org/1999/xlink"
xmlns:author="http://www.sothink.com"
width="28px" height="32px"
xml:space="preserve">
<g id="241" transform="matrix(1, 0, 0, 1, 0, 0)">
<path style="fill:#55E27E;fill-opacity:1" d="M24.45,16.2Q19.3 23.65 17.1 26.1Q14.9 28.55 14.1 29.05Q13.3 29.55 11.3 27.4L7 22.15L3.3 16.75Q1.85 14.4 4.6 14.5L7.75 14.45L8.35 14.05L8.45 13.25L6.55 4Q6.3 2.2 7.4 2.25L18.4 2.35Q20.2 2.35 19.8 3.95L18.15 13.85L18.2 14.45L18.6 14.95Q18.9 15.15 22.05 14.95Q25.15 14.7 24.45 16.2M21.1,16.15L17.3 16.05Q16.25 16.05 16.8 13.15L17.5 9.4L17.55 9.25L18.2 6.05Q18.45 4.95 18.15 4.2Q17.6 3.7 16.15 3.8L10.75 3.65Q7.45 3.3 7.55 4.2Q7.6 5.1 8.1 5.75Q11 6.1 12.9 7.7Q14.8 9.25 14.5 12.2Q14.15 15.15 12.9 16.35L13.65 16.7Q17.45 19.7 16.8 25.1L20.95 19.45L22.2 17Q22.35 16.3 21.1 16.15M5.9,16.95Q4.8 16.65 5 17.55Q5.2 18.45 6.15 18.8Q7.1 19.1 7.05 18.15Q7 17.2 5.9 16.95M9.6,24.1Q11.15 26.2 12.3 26.8L13.75 26.7Q14.05 26 12.75 24.35L10.3 21.65L8.4 20.35Q7.6 20.05 7.8 21.05Q8 22 9.6 24.1" />
<path style="fill:#C5FAD4;fill-opacity:1" d="M7.05,18.15Q7.1 19.1 6.15 18.8Q5.2 18.45 5 17.55Q4.8 16.65 5.9 16.95Q7 17.2 7.05 18.15M7.8,21.05Q7.6 20.05 8.4 20.35L10.3 21.65L12.75 24.35Q14.05 26 13.75 26.7L12.3 26.8Q11.15 26.2 9.6 24.1Q8 22 7.8 21.05" />
<path style="fill:#06541C;fill-opacity:1" d="M22.05,14.95Q18.9 15.15 18.6 14.95L18.2 14.45L18.15 13.85L19.8 3.95Q20.2 2.35 18.4 2.35L7.4 2.25Q6.3 2.2 6.55 4L8.45 13.25L8.35 14.05L7.75 14.45L4.6 14.5Q1.85 14.4 3.3 16.75L7 22.15L11.3 27.4Q13.3 29.55 14.1 29.05Q14.9 28.55 17.1 26.1Q19.3 23.65 24.45 16.2Q25.15 14.7 22.05 14.95M27.2,15.4Q26.55 17.35 24.15 20.6L18.5 27.5Q15.3 31.15 14.55 31.45L13 31.5Q12.15 31.25 8.35 26.9Q4.5 22.55 1.65 18.2L0.35 15.95Q-1.05 12.6 2.85 12.6L5.95 12.6L4.1 3.05Q4 1.35 4.75 0.6Q5.45 -0.15 8.95 0.05L19.8 0.1Q22.9 -0.1 22.15 3.5L20.55 12.9L25.75 13Q27.85 13.45 27.2 15.4" />
<path style="fill:#199A3E;fill-opacity:1" d="M22.2,17L20.95 19.45L16.8 25.1Q17.45 19.7 13.65 16.7L12.9 16.35Q14.15 15.15 14.5 12.2Q14.8 9.25 12.9 7.7Q11 6.1 8.1 5.75Q7.6 5.1 7.55 4.2Q7.45 3.3 10.75 3.65L16.15 3.8Q17.6 3.7 18.15 4.2Q18.45 4.95 18.2 6.05L17.55 9.25L17.5 9.4L16.8 13.15Q16.25 16.05 17.3 16.05L21.1 16.15Q22.35 16.3 22.2 17" />
</g>
</svg>
