<?xml version="1.0" encoding="utf-8"?>
<svg version="1.1" id="Layer_1"
xmlns="http://www.w3.org/2000/svg"
xmlns:xlink="http://www.w3.org/1999/xlink"
xmlns:author="http://www.sothink.com"
width="33px" height="31px"
xml:space="preserve">
<g id="1321" transform="matrix(1, 0, 0, 1, 0.2, 0)">
<path style="fill:#792E0A;fill-opacity:1" d="M29.6,10.5L29.55 10.45L29.4 10.3L29.2 10.1L28.75 9.7L26.6 8.05L25.65 7.5L25.55 7.45L25.45 7.45L24.85 7.25L24.35 7.1L24 7L24.05 5.75L24.1 4.65L24.1 3.9L24.1 3.7L24.05 3L24.1 1.1Q24.55 0.95 26.6 2.45L28.6 4.05L30.1 5.55Q31.35 6.95 31.15 8.35L31.15 10.05L31.15 10.1L31.15 10.9L31.2 11.5L31.15 11.45L29.6 10.5M17.6,29.4L17.5 30.1L14.1 29.55L14.15 29.5L14.1 29.5L14.1 28L14.05 26.55Q13.65 25.6 9.95 26.15Q9.45 26.35 8.9 25.55L7.95 23.6Q6.85 20.65 9.4 17.8L7.15 17.7L7.15 17.5Q7.2 16.8 7.55 16.2L7.8 15.75L8.3 15.15L9.45 14.2Q10.65 13.45 12.3 12.65L14.8 11.35L16.15 10.55L16.8 10.1L17.2 9.8L18.1 8.95L18.7 8.4L21.35 5.15Q21.55 4.9 22.25 6.6L22.85 7.65L23.9 9.1L24.8 10.1L25.1 10.45L25.2 10.55L25.25 10.55L25.25 10.6L28.1 13.2L29.2 14.1L31.25 15.7L31.35 15.7Q32.35 16.5 32.25 16.75L31.2 17.45L29.45 18.15L28.4 18.65Q29.15 20.55 29.15 21.85L29.15 22.45L29.1 22.6Q28.8 23.95 28.2 24.55L27.1 25.4L26.85 25.55L26.5 26.05L26.3 26.8L26.05 28.35L25.55 28.55L25.4 28.65L24.2 29.2L22.85 29.65L22.8 29.6L22.7 29.45L22.65 29.05L22.65 28.05L22.65 26.7Q22.6 26.05 22.7 25.55L22.85 24.6Q23.1 23.85 23.55 23.6L25.5 22.1Q26.4 21.25 26.5 19.35Q24.75 20.05 23.1 21.45L22.85 21.6L21.2 22.85Q21.05 22.9 18.95 21.2Q16.8 19.5 13.95 18.65L11.7 18.1Q11.15 19.65 12.25 21.3Q14.05 23 17.65 23.7L17.85 25.55L17.75 28.3L17.6 29.4M7.2,9.05L4.85 10.1L3.85 10.6L3.2 10.95L2.9 11.1L1.8 11.7L1.7 11.75L1.4 11.85L1.25 11.1Q1.05 10.7 0.35 11.25Q0.15 11.4 0.05 11.9L0.05 10.8L0 10.1L0 9.15L0.05 8.15Q0.2 6.45 0.8 6.2Q1.15 6 4.75 4.5L5.15 4.35L6.2 3.9L8.6 2.95L8.9 2.8Q12.25 1.45 14.95 0.6L18.75 0.7L18.8 2.6L18.8 3.2L18.85 3.2L18.85 4.6L18.8 4.65L18.75 5.6L17.15 5.75L16.35 5.95L14.85 6.35L12.4 7.05L12.05 7.15Q9.65 7.95 7.25 9.05L7.2 9.05M25.35,6.05Q27.25 7 28.7 8.2L29.8 9.15L29.85 8.25L29.9 7.15L28.65 6L25.55 3.7L25.5 3.7L25.45 4.75L25.4 5.45L25.35 6.05M9.8,15.65L9.2 16.35L13.65 16.75Q15.8 17.2 18.35 18.95L21.2 20.9L21.9 20.4L22.85 19.75L23.45 19.35L24.15 18.95Q26.45 17.6 28.6 16.9L29.15 16.7L29.3 16.65L30 16.4Q29.3 15.55 26.25 13.45L24.8 12.4L23.9 11.55L22.85 10.35L22.65 10.1L21.85 8.95L21.5 8.35L20.35 9.7L20 10L19.85 10.1L18.75 10.8L17.5 11.5L15 12.65L12.7 13.75L12.3 13.95Q10.65 14.85 9.8 15.65M24.1,25.55Q23.85 26.15 23.85 26.85Q23.85 28.2 23.95 28L25.05 27.55Q25 26.75 25.2 26.15L25.45 25.55Q25.85 24.85 26.6 24.4L27.3 24.05Q27.9 22.8 28 21.5L27.75 20.1L27.25 22.05L27.05 22.5Q26.4 23.7 24.8 24.65L24.65 24.8L24.1 25.55M1.65,10.1L1.6 10.5L2.4 10.1L3.15 9.75L3.35 9.65L3.95 9.35L7.3 7.85L7.4 7.8L10.05 6.75L11.9 6.1Q14.3 5.2 16.8 4.5L17.2 4.4L17.2 1.5L9.1 4.35L8.25 4.65L7.85 4.8L4.4 6.1L4.3 6.15L1.95 7.2L1.95 7.5L1.85 8.55L1.65 10.1M12.45,24.65Q13.75 24.8 14.55 25.1L15.15 25.55L15.45 26.5L15.4 28.4L15.95 28.55L16.25 28.55L16.4 27.95L16.5 25.55L16.5 24.95Q14.3 24.65 12.1 23.25Q11.2 22.65 10.8 21.8Q10.5 21.1 10.45 20.25Q10.4 19.2 10.65 17.95Q7.7 20.85 9.85 24.8L10.1 24.75L12.25 24.6L12.45 24.65" />
<path style="fill:#191919;fill-opacity:1" d="M25.25,10.55L25.25 10.5L25.25 10.6L25.25 10.55" />
<path style="fill:#E5AA38;fill-opacity:1" d="M28.7,7.5L28.7 7.1L28.5 6.9L26.75 5.5L25.45 4.75L25.5 3.7L25.55 3.7L28.65 6L29.9 7.15L29.85 8.25L29.8 9.15L28.7 8.2L28.7 7.5M29.1,16.65L28.8 16.6Q26 16.6 24 17.55L22.75 18.35L21.45 17.05Q19.95 15.75 17.95 14.95Q15.65 14 13.75 14L12.45 14.6L12.3 13.95L12.7 13.75L15 12.65L17.5 11.5L18.75 10.8L19.85 10.1L20 10L20.35 9.7L21.5 8.35L21.85 8.95L22.65 10.1L22.85 10.35L23.9 11.55L24.8 12.4L26.25 13.45Q29.3 15.55 30 16.4L29.3 16.65L29.1 16.65M28.15,15.9L24.7 13.5L21.7 11.5L23.25 16.25L26.4 15.8L28.15 15.9M27.75,20.1L28 21.5Q27.9 22.8 27.3 24.05L26.6 24.4L26.95 23.5L27.25 22.05L27.75 20.1M20.4,11.55Q19.7 11.55 17.75 12.35L14.1 13.85L16.7 14.2Q19.5 14.85 21.5 16.25L20.4 11.55M1.95,7.2L4.3 6.15L4.4 6.1L7.85 4.8L8.25 4.65L9.1 4.35L17.2 1.5L17.2 4.4L16.8 4.5L16.65 3.95L16.35 2.75L16.1 2.75L8 5.6L7.6 5.7L6.95 5.9L4.3 6.75L4.05 6.85L1.95 7.5L1.95 7.2M15.15,25.55L14.55 25.1Q13.75 24.8 12.45 24.65L12.25 24.6Q10.45 23.7 10.45 22.6L10.75 21.85L10.8 21.8Q11.2 22.65 12.1 23.25Q14.3 24.65 16.5 24.95L16.5 25.55L16.4 27.95L16.25 28.55L15.95 28.55L16.05 25.65L15.15 25.55" />
<path style="fill:#BF7A24;fill-opacity:1" d="M26.75,5.5L28.5 6.9L28.7 7.1L28.7 7.5L27.1 6.45L25.4 5.45L25.45 4.75L26.75 5.5M11.05,15.7Q14.7 15.95 17.9 17.6Q20 18.65 21.5 20.05L22.1 19.7L23.35 19.2L24.15 18.95L23.45 19.35L22.85 19.75L21.9 20.4L21.2 20.9L18.35 18.95Q15.8 17.2 13.65 16.75L9.2 16.35L9.8 15.65L11.05 15.7M26.4,15.8L23.25 16.25L21.7 11.5L24.7 13.5L28.15 15.9L26.4 15.8M25.45,25.55L25.2 26.15L24.75 26.7L24.5 25.85L24.5 25.55L24.65 24.8L24.8 24.65Q26.4 23.7 27.05 22.5L27.25 22.05L26.95 23.5L26.6 24.4Q25.85 24.85 25.45 25.55M21.5,16.25Q19.5 14.85 16.7 14.2L14.1 13.85L17.75 12.35Q19.7 11.55 20.4 11.55L21.5 16.25M9.35,6.1L7.7 6.6L7.45 6.7L5.9 7.2L4.1 7.8L3.7 7.95L3.5 8L1.85 8.55L1.95 7.5L4.05 6.85L4.3 6.75L6.95 5.9L7.6 5.7L8 5.6L16.1 2.75L16.35 2.75L16.65 3.95L9.35 6.1M10.8,21.8L10.75 21.85L10.45 22.6Q10.45 23.7 12.25 24.6L10.1 24.75L10.05 24.6L10 23L10.05 21.05L10.45 20.25Q10.5 21.1 10.8 21.8M16.05,25.65L15.95 28.55L15.4 28.4L15.45 26.5L15.15 25.55L16.05 25.65" />
<path style="fill:#A66221;fill-opacity:1" d="M28.7,8.2Q27.25 7 25.35 6.05L25.4 5.45L27.1 6.45L28.7 7.5L28.7 8.2M9.8,15.65Q10.65 14.85 12.3 13.95L12.45 14.6L13.75 14Q15.65 14 17.95 14.95Q19.95 15.75 21.45 17.05L22.75 18.35L24 17.55Q26 16.6 28.8 16.6L29.1 16.65L29.15 16.7L28.6 16.9Q26.45 17.6 24.15 18.95L23.35 19.2L22.1 19.7L21.5 20.05Q20 18.65 17.9 17.6Q14.7 15.95 11.05 15.7L9.8 15.65M24.65,24.8L24.5 25.55L24.5 25.85L24.75 26.7L25.2 26.15Q25 26.75 25.05 27.55L23.95 28Q23.85 28.2 23.85 26.85Q23.85 26.15 24.1 25.55L24.65 24.8M1.85,8.55L3.5 8L3.7 7.95L4.1 7.8L5.9 7.2L7.45 6.7L7.7 6.6L9.35 6.1L16.65 3.95L16.8 4.5Q14.3 5.2 11.9 6.1L10.05 6.75L7.4 7.8L7.3 7.85L3.95 9.35L3.35 9.65L3.15 9.75L2.4 10.1L1.6 10.5L1.65 10.1L1.85 8.55M9.85,24.8Q7.7 20.85 10.65 17.95Q10.4 19.2 10.45 20.25L10.05 21.05L10 23L10.05 24.6L10.1 24.75L9.85 24.8" />
<path style="fill:#1C273F;fill-opacity:1" d="M17.75,28.3L17.85 25.55L17.65 23.7Q14.05 23 12.25 21.3Q11.15 19.65 11.7 18.1L13.95 18.65Q16.8 19.5 18.95 21.2Q21.05 22.9 21.2 22.85L22.85 21.6L23.1 21.45Q24.75 20.05 26.5 19.35Q26.4 21.25 25.5 22.1L23.55 23.6Q23.1 23.85 22.85 24.6L22.7 25.55Q22.6 26.05 22.65 26.7L22.65 28.05Q22.35 28.05 22 28.2L18.5 28.4L17.75 28.3" />
<path style="fill:#0D1931;fill-opacity:1" d="M25.4,8.35L25.35 8.75L25.2 10.55L25.1 10.45L24.8 10.1L23.9 9.1L24 7.95L24 7.8L24 7.25L24 7L24.35 7.1L24.85 7.25L25.45 7.45L25.4 8.35M29.2,14.1L29.2 13.5L29.6 10.5L31.15 11.45L31.25 15.7L29.2 14.1M29.45,18.15L31.2 17.45L30.7 23.2Q30.7 24.6 30.2 25.55Q29.65 26.55 28.6 27.1L26.05 28.4L26.15 28.3L26.05 28.35L26.3 26.8L27.95 25.55L29.05 24.85L29.15 22.45L29.15 21.85L29.45 18.15M17.75,28.3L18.5 28.4L22 28.2Q22.35 28.05 22.65 28.05L22.65 29.05L19.65 29.55L17.6 29.4L17.75 28.3M14.1,28L14.1 29.5L13.4 29.35L9.45 28.2L7.35 27.35L6.65 27.05L4.45 26.05L3.6 25.55L3.05 25.25L0.7 23.4L0.15 22.15L-0.15 16.6Q-0.3 13.2 0.05 11.9Q0.15 11.4 0.35 11.25Q1.05 10.7 1.25 11.1L1.4 11.85L1.45 15.35Q1.45 19.2 1.9 22.6L4.05 24.05L6.9 25.55L8.85 26.45L8.95 26.4L8.95 26.45L13.05 27.7L14.1 28M18.75,5.6L18.7 7.55L18.7 8.4L18.1 8.95L17.2 9.8L17.15 7.85L17.15 5.8L17.15 5.75L18.75 5.6" />
<path style="fill:#496298;fill-opacity:1" d="M25.2,10.55L25.35 8.75L25.4 8.35Q26.3 8.7 26.95 9.15L27.8 10.1Q28.15 10.7 28.15 11.5L28.1 13.2L25.25 10.6L25.25 10.5L25.25 10.55L25.2 10.55M7.3,10.1L7.25 9.05Q9.65 7.95 12.05 7.15L12.4 7.05L14.85 6.35Q15.9 6.65 16.05 7.35L16.15 10.1L16.15 10.55L14.8 11.35L12.3 12.65Q10.65 13.45 9.45 14.2L8.3 15.15Q7.4 13.9 7.3 10.1M4.05,24.05L1.9 22.6Q1.45 19.2 1.45 15.35L1.4 11.85L1.7 11.75L1.8 11.7L2.9 11.1L3.2 10.95L3.1 12.6Q3.1 18.6 3.95 23.55L4.05 24.05" />
<path style="fill:#283D69;fill-opacity:1" d="M29.15,21.85Q29.15 20.55 28.4 18.65L29.45 18.15L29.15 21.85M26.3,26.8L26.5 26.05L26.85 25.55L27.1 25.4L28.2 24.55Q28.8 23.95 29.1 22.6L29.15 22.45L29.05 24.85L27.95 25.55L26.3 26.8M13.05,27.7L8.95 26.45L8.95 26.4L8.85 26.45L6.9 25.55L4.05 24.05L3.95 23.55Q3.1 18.6 3.1 12.6L3.2 10.95L3.85 10.6L4.85 10.1L7.2 9.05L7.25 9.05L7.3 10.1Q7.4 13.9 8.3 15.15L7.8 15.75L7.55 16.2Q7.2 16.8 7.15 17.5L7.15 17.7L9.4 17.8Q6.85 20.65 7.95 23.6L8.9 25.55Q9.45 26.35 9.95 26.15Q13.65 25.6 14.05 26.55L14.1 28L13.05 27.7" />
<path style="fill:#96BBFC;fill-opacity:1" d="M29.2,14.1L28.1 13.2L28.15 11.5Q28.15 10.7 27.8 10.1L26.95 9.15Q26.3 8.7 25.4 8.35L25.45 7.45L25.55 7.45L25.65 7.5L26.6 8.05L28.75 9.7L29.2 10.1L29.4 10.3L29.55 10.45L29.6 10.5L29.2 13.5L29.2 14.1M16.8,10.1L16.15 10.55L16.15 10.1L16.05 7.35Q15.9 6.65 14.85 6.35L16.35 5.95L17.15 5.75L17.15 5.8L17.15 7.85L17.2 9.8L16.8 10.1" />
</g>
</svg>
