<?xml version="1.0" encoding="utf-8"?>
<svg version="1.1" id="Layer_1"
xmlns="http://www.w3.org/2000/svg"
xmlns:xlink="http://www.w3.org/1999/xlink"
xmlns:author="http://www.sothink.com"
width="28px" height="17px"
xml:space="preserve">
<g id="336" transform="matrix(1, 0, 0, 1, 0.1, 3.1)">
<path style="fill:#D24B4B;fill-opacity:1" d="M1.65,6.05Q1.25 5.65 1.25 5.1Q1.15 3.95 2 3Q2.8 2.05 4.2 2.45L6.3 2.8L6.9 2.75L7.7 3.05Q10.55 4.3 12.75 4.3L13.85 4L14.25 4.05L14.15 4.05Q12.95 4.95 11.65 4.95L9 4.5L5.65 4.05Q4.35 4.05 3.35 4.9Q2.65 5.45 2.45 6.1L1.65 6.05M24.25,8.5L21.6 8.4Q17.35 8.4 17.3 6.3Q19.7 8.1 21.7 6.95Q23.75 5.7 24.95 6.2L25.35 6.4Q25.25 7.3 24.25 8.5" />
<path style="fill:#692323;fill-opacity:1" d="M2.45,6.1L4.5 6.15Q8.45 6.25 10.3 7.4Q13.5 9.4 15.4 10.05L19.75 10.6Q22.2 10.55 23.15 9.65L24.25 8.5Q25.25 7.3 25.35 6.4Q26.15 6.85 26.2 7.6L25.85 8.8L25.2 9.75Q24.1 11 21.25 12.05Q18.4 13.05 14.65 11.35Q10.95 9.6 9.7 8.7Q8.4 7.75 6.25 7.3L2.7 6.55L2.35 6.45L1.65 6.05L2.45 6.1" />
<path style="fill:#912F2F;fill-opacity:1" d="M21.6,8.4L24.25 8.5L23.15 9.65Q22.2 10.55 19.75 10.6L15.4 10.05Q13.5 9.4 10.3 7.4Q8.45 6.25 4.5 6.15L2.45 6.1Q2.65 5.45 3.35 4.9Q4.35 4.05 5.65 4.05L9 4.5L11.65 4.95Q12.95 4.95 14.15 4.05L14.25 4.05L13.85 4L12.75 4.3Q10.55 4.3 7.7 3.05L6.9 2.75L7.45 2.6L8.15 2.35L6.55 2.15Q4.7 2.05 5 0.65Q5.25 -0.75 6.25 -1.2Q7.25 -1.7 8.1 -0.7Q8.9 0.25 11.4 1.35Q13.85 2.4 15.25 2.35L19.8 2.2Q22.95 2.15 23.55 4.7Q23.3 4.6 21.95 5.65Q20.5 6.7 18.9 6.5L17.2 6.2L17.3 6.3Q17.35 8.4 21.6 8.4" />
<path style="fill:#431515;fill-opacity:1" d="M6.3,2.8L4.2 2.45Q2.8 2.05 2 3Q1.15 3.95 1.25 5.1Q1.25 5.65 1.65 6.05L2.35 6.45L2.7 6.55L6.25 7.3Q8.4 7.75 9.7 8.7Q10.95 9.6 14.65 11.35Q18.4 13.05 21.25 12.05Q24.1 11 25.2 9.75L25.85 8.8L26.2 7.6Q26.15 6.85 25.35 6.4L24.95 6.2Q23.75 5.7 21.7 6.95Q19.7 8.1 17.3 6.3L17.2 6.2L18.9 6.5Q20.5 6.7 21.95 5.65Q23.3 4.6 23.55 4.7Q22.95 2.15 19.8 2.2L15.25 2.35Q13.85 2.4 11.4 1.35Q8.9 0.25 8.1 -0.7Q7.25 -1.7 6.25 -1.2Q5.25 -0.75 5 0.65Q4.7 2.05 6.55 2.15L8.15 2.35L7.45 2.6L6.9 2.75L6.3 2.8M9,-2Q9.4 -1.3 11.95 -0.05Q14.45 1.15 18.45 0.85L22.55 1.35Q24.1 1.7 25.2 4.6L26.65 4.8Q27.4 5.2 27.7 5.95Q27.95 6.65 27.75 7.95L27.15 9.5L27.1 9.6L26.2 10.8Q24.8 12.4 22 13.2L17.6 13.6Q12.9 12.45 10.15 10.55Q7.35 8.6 5.45 8.3L2.45 7.75L1.15 7.45Q0.05 7.05 -0.1 5.75L-0.1 5.15Q0 3.3 0.8 2.15Q1.55 0.95 3.7 1.1Q4 -1.3 5.15 -2.2Q6.3 -3.1 7.4 -3.1Q8.6 -2.75 9 -2" />
</g>
</svg>
