<?xml version="1.0" encoding="utf-8"?>
<svg version="1.1" id="Layer_1"
xmlns="http://www.w3.org/2000/svg"
xmlns:xlink="http://www.w3.org/1999/xlink"
xmlns:author="http://www.sothink.com"
width="72px" height="111px"
xml:space="preserve">
<g id="621" transform="matrix(1, 0, 0, 1, 0, 0)">
<path style="fill:#1C1417;fill-opacity:1" d="M10.6,61.85L11.35 61.85L16.9 60.55Q16.65 60.4 16.65 58.5Q16.6 56.6 16.8 55.25L17.05 53.65L19.65 54.55Q25.75 56.7 26.05 55.75L25.8 55.6L25.15 55.25L22.75 54Q20.9 53 17 51.85L16.75 49.05L15.75 48.55Q11.35 46.3 11.45 43.05L9.8 38.7Q11.25 35.2 14.6 31.9Q20.35 32.5 23.65 39.85Q24.75 42.2 26.3 44.2Q29.05 47.8 28.85 51.45Q30.05 51.85 31.05 52.65Q33 54.2 32.95 56.3Q32.9 58.45 30.85 59.9L30.85 59.95Q38.6 62.15 37.6 69.6L37.6 69.85L37.45 69.9L37.3 70.35L37.1 70.6L37.1 70.55Q36.8 70.3 36.1 70.35L28.45 75.85L26.4 77Q22.95 78.7 19.5 76.65Q17.3 75.35 14.75 71.65Q19.05 75.05 24.6 72.8L25.3 72.5Q22.2 69.45 19.1 67.1Q18.35 66.7 17.65 65.55L17 63.95Q21.35 62.4 27 62.1L27.1 61.35L27.15 61.25L22.95 61.15Q19 61.75 16.7 62.65L16.25 62.85Q13.85 63.85 12.55 64.55L8.6 64.65Q5.95 64.05 3.9 61.25Q2.2 59 1.7 56.65Q4.7 61.5 10.6 61.85M29.55,77.25L32.6 74.95L37.05 70.7Q38.6 70.65 41 72.35Q44.95 75.1 44.6 79.45L44.6 79.5L41.8 82.15Q40 83.7 37.55 84.65L34.2 85.35L32.45 85.35Q29.75 85.15 27.35 84.25Q24.95 83.3 23.8 79.45L23.95 79.45Q27.6 83.8 32.55 81.9Q31.25 79.45 29.55 77.25" />
<path style="fill:#2E2427;fill-opacity:1" d="M32.55,81.9Q27.6 83.8 23.95 79.45Q26.6 79.15 29.55 77.25Q31.25 79.45 32.55 81.9M11.45,43.05Q11.35 46.3 15.75 48.55L16.75 49.05L17 51.85L9.85 49.9Q7.65 45 9.25 40.05L9.8 38.7L11.45 43.05M11.7,66.55Q14.05 64.95 17 63.95L17.65 65.55Q18.35 66.7 19.1 67.1Q22.2 69.45 25.3 72.5L24.6 72.8Q19.05 75.05 14.75 71.65Q13.25 69.5 11.7 66.55M17.05,53.65L16.8 55.25Q16.6 56.6 16.65 58.5Q16.65 60.4 16.9 60.55L11.35 61.85L10.6 61.85Q4.7 61.5 1.7 56.65L1.5 55.4Q1.2 52.35 3.5 51.75Q5.75 51.1 9.65 51.75Q12.65 52.25 17.05 53.65M10.3,54.25L10.2 54.1Q8.5 51.85 4.85 53.35Q2.8 54.4 4.5 55.85Q6.2 57.3 9.7 55.6L10.25 54.4L10.3 54.25M15.2,67.1L14.7 67.45L15.55 69.25Q16.35 70.85 17.7 70.15Q19 69.4 18.5 68.45Q17.95 67.5 15.6 66.95L15.2 67.1" />
<path style="fill:#43363A;fill-opacity:1" d="M10.25,54.4L9.7 55.6Q6.2 57.3 4.5 55.85Q2.8 54.4 4.85 53.35Q8.5 51.85 10.2 54.1L10.3 54.25L10.25 54.4M15.6,66.95Q17.95 67.5 18.5 68.45Q19 69.4 17.7 70.15Q16.35 70.85 15.55 69.25L14.7 67.45L15.2 67.1L15.6 66.95" />
<path style="fill:#0E0A0B;fill-opacity:1" d="M14.75,71.65Q17.3 75.35 19.5 76.65Q22.95 78.7 26.4 77L28.45 75.85L36.1 70.35Q36.8 70.3 37.1 70.55L37.1 70.6L37.1 70.65L37.05 70.7L32.6 74.95L29.55 77.25Q26.6 79.15 23.95 79.45L23.8 79.45Q24.95 83.3 27.35 84.25Q29.75 85.15 32.45 85.35L34.2 85.35L37.55 84.65Q40 83.7 41.8 82.15L44.6 79.5L44.6 79.45L45.7 79.7Q45.95 79.9 45.45 80.65L43.2 83.05Q41.45 84.55 39.05 85.55Q36.85 86.45 34.85 86.65L34.7 86.65Q30.9 86.95 27.4 85.75Q23.75 84.45 21.7 79.2Q18.55 78.5 16.25 76Q13.95 73.45 12.05 70.15L10.25 66.9Q8.95 66.7 7 65.8Q5.05 64.85 3.3 63.05Q1.55 61.25 0.65 58.3Q-0.25 55.3 0.1 53.3Q0.4 51.25 1.7 50.65Q4.3 49.35 7.95 49.95Q6.3 46.15 7.25 41.15Q7.75 38.55 8.9 36.35Q10.55 33.3 13.6 31.1Q14.3 31.05 14.65 31.65L14.7 31.8L14.6 31.9Q11.25 35.2 9.8 38.7L9.25 40.05Q7.65 45 9.85 49.9L17 51.85Q20.9 53 22.75 54L25.15 55.25L25.8 55.6L26.05 55.75Q25.75 56.7 19.65 54.55L17.05 53.65Q12.65 52.25 9.65 51.75Q5.75 51.1 3.5 51.75Q1.2 52.35 1.5 55.4L1.7 56.65Q2.2 59 3.9 61.25Q5.95 64.05 8.6 64.65L12.55 64.55Q13.85 63.85 16.25 62.85L16.7 62.65Q19 61.75 22.95 61.15L27.15 61.25L27.1 61.35L27 62.1Q21.35 62.4 17 63.95Q14.05 64.95 11.7 66.55Q13.25 69.5 14.75 71.65M37,70.7L36.3 70.85L36.85 70.75L37 70.7" />
<path style="fill:#000000;fill-opacity:1" d="M22.55,39.25Q23.3 38.3 24.25 38.5Q31 40.25 36.1 43.5Q41.25 46.85 45.85 52.4L46.95 53.85L47.35 54.4L47.7 55.95L47.8 57.6L47.8 58L47.85 59.35Q47.85 61.1 49 65.25L49.5 67.1L50.35 69.5Q52.1 73.85 55.9 78.1Q58.65 81.15 60.6 81.9Q62.1 82.45 63.15 81.7Q65.55 79.85 66.15 78.35Q66.7 76.8 67.95 78.85Q70.2 83.7 69.85 86.5L69.05 91.4Q68.75 92.7 68.85 94.15L69.1 95.9Q69.6 98.3 69.6 101.8L69.6 102.7Q69.5 105.65 68.8 108.1Q68.2 110.05 66.9 110.35Q65.6 110.65 61.75 109.75Q57.9 108.8 53.9 105.2Q49.9 101.55 43.5 101.25Q38.1 101.05 37.6 97L38.45 91.1Q39.5 84.4 36.05 78.75Q32.6 73.05 27.5 68.8L22.55 64.7Q21.6 64.15 20.7 62.2Q18.85 58.3 19.05 51.65Q19.2 46.25 21.15 41.6Q21.8 40.15 22.55 39.25M67.5,94.3Q67.25 92.15 68.15 89.05Q68.65 87.3 68.35 85.1L67.75 82.45L66.85 80.4Q63.25 84.45 60.8 83.75L60.7 83.7Q59.7 83.35 57.35 81.6L52.45 76.15Q50.65 74.05 49.4 71.3Q48.2 68.7 47.5 65.5L46.8 60.95Q46.5 58.3 46.45 55.4Q43.9 51.8 40.7 48.8Q37.6 45.85 34.7 44.15Q31.15 42.1 28.15 41Q25.1 39.9 24.5 40Q23.9 40.1 23.15 41.1Q22.4 42.1 21.85 44.05Q20.9 47.3 20.75 50.75Q20.4 57.3 21.25 59.8Q22.1 62.25 23.15 63.25L30.15 69.35Q36.15 74.4 39.4 82.25L39.8 84Q40.75 89.05 39 95.45Q38.65 98.9 41.9 99.55Q49.95 99.75 55.65 104.8Q61.3 109.8 66.9 108.8Q67.9 108 68.2 103.4L68.2 102.8Q68.45 97.65 67.75 95.3L67.5 94.3" />
<path style="fill:#4D1C1C;fill-opacity:1" d="M67.75,95.3Q68.45 97.65 68.2 102.8L68.2 103.4L62.15 103.15Q59.05 102.35 56.9 99.2Q54.7 96 48.95 95.4Q44.75 95.55 45 93.35L45.1 92.5L46.3 87.5Q46.7 85.8 47.3 84.6Q48.1 84.15 48.95 83.8Q50.05 83.3 51.9 83.05L55.45 82.85Q57 82.9 58.85 83.8L58.9 83.8L59.15 83.85L60.8 83.75Q63.25 84.45 66.85 80.4L67.75 82.45Q67.55 85 65.45 87.9Q63.3 90.8 59.9 88.85L60.25 90.45Q60.85 91.5 62.1 92.55L62.95 93.2Q64.95 94.45 67.5 94.3L67.75 95.3M47.2,69.9L47.9 71.7Q48.35 73.2 46.85 73.85Q45.3 74.5 43.95 74.65L43.65 74.7Q42.05 74.1 40.55 72.4Q37.95 69.5 33.1 66.25Q30.8 64.7 28.15 62.4Q25.5 60.05 24.6 57.25Q23.7 54.55 23.6 49.35L25.7 53.45Q29.05 59.8 29.85 60.1L30.9 60.7L34.5 61.2L37.5 61.7Q40.2 62.25 41.75 63.2Q41.65 63.25 45.05 65.1L46.4 65.4Q46.5 67.55 47.2 69.9M63.2,86.45Q62.65 88.15 64.6 86.95Q67.1 84.7 66.55 82.3L63.2 86.45" />
<path style="fill:#B65555;fill-opacity:1" d="M60.7,83.7L60.8 83.75L59.15 83.85L58.9 83.8L58.85 83.8Q57 82.9 55.45 82.85L51.9 83.05Q50.05 83.3 48.95 83.8Q48.1 84.15 47.3 84.6Q48.3 82.65 49.75 81.85Q52.15 80.5 54.6 81L57.35 81.6Q59.7 83.35 60.7 83.7M46.4,65.4L47.5 65.5Q48.2 68.7 49.4 71.3Q49.7 72.45 49.15 73.5Q48.55 74.6 46.65 74.85L43.65 74.7L43.95 74.65Q45.3 74.5 46.85 73.85Q48.35 73.2 47.9 71.7L47.2 69.9Q46.5 67.55 46.4 65.4M66.55,82.3Q67.1 84.7 64.6 86.95Q62.65 88.15 63.2 86.45L66.55 82.3" />
<path style="fill:#381616;fill-opacity:1" d="M46.4,65.4L45.05 65.1Q41.65 63.25 41.75 63.2Q40.2 62.25 37.5 61.7L34.5 61.2L30.9 60.7L29.85 60.1Q29.05 59.8 25.7 53.45L23.6 49.35Q23.7 54.55 24.6 57.25Q25.5 60.05 28.15 62.4Q30.8 64.7 33.1 66.25Q37.95 69.5 40.55 72.4Q42.05 74.1 43.65 74.7L46.65 74.85Q48.55 74.6 49.15 73.5Q49.7 72.45 49.4 71.3Q50.65 74.05 52.45 76.15L57.35 81.6L54.6 81Q52.15 80.5 49.75 81.85Q48.3 82.65 47.3 84.6Q46.7 85.8 46.3 87.5L45.1 92.5L45 93.35Q44.75 95.55 48.95 95.4Q54.7 96 56.9 99.2Q59.05 102.35 62.15 103.15L68.2 103.4Q67.9 108 66.9 108.8Q61.3 109.8 55.65 104.8Q49.95 99.75 41.9 99.55Q38.65 98.9 39 95.45Q40.75 89.05 39.8 84L39.4 82.25Q36.15 74.4 30.15 69.35L23.15 63.25Q22.1 62.25 21.25 59.8Q20.4 57.3 20.75 50.75Q20.9 47.3 21.85 44.05Q22.4 42.1 23.15 41.1Q23.9 40.1 24.5 40Q25.1 39.9 28.15 41Q31.15 42.1 34.7 44.15Q37.6 45.85 40.7 48.8Q43.9 51.8 46.45 55.4Q46.5 58.3 46.8 60.95L47.5 65.5L46.4 65.4M68.35,85.1Q68.65 87.3 68.15 89.05Q67.25 92.15 67.5 94.3Q64.95 94.45 62.95 93.2L62.1 92.55Q60.85 91.5 60.25 90.45L59.9 88.85Q63.3 90.8 65.45 87.9Q67.55 85 67.75 82.45L68.35 85.1" />
<path style="fill:#4D1C1C;fill-opacity:1" d="M44.6,54.65Q40.1 50.25 35.75 52.45Q34.45 51.85 33.8 50.75Q33.1 49.6 32.75 47.5Q34.3 45.85 34.3 43.9Q34.3 41.9 32.75 39.45Q31.2 36.95 29.55 36.15Q30.85 32.45 35.7 33.85L36.85 33.65L40.65 34.25Q38.05 31.25 37.65 26.6Q37.25 21.4 39.1 16.55L40.1 16.75Q42.3 22.95 43.55 29.7Q44.5 34.9 46.8 38.4Q48.4 41.65 48.4 46.7Q48.4 51.65 48.95 52.7L49.5 53.85L49.1 56.35Q46.65 56.6 44.6 54.65M21.35,4.6Q24.3 4.6 26.6 7.9Q29.65 12.15 31.8 16.9L32.85 19.05L32.45 19.65Q31.05 22.15 30.9 25.5Q26.05 24.1 25.95 18Q25.9 12 22.65 6.8L21.35 4.95L21.35 4.6M21.65,35.85L20.15 37.25Q17.2 39.15 14.65 38.65Q13.65 37.35 12.6 35.3L10.05 29.65L9.35 24.25L10.85 24.15L19.8 29.4Q19.8 33.1 21.65 35.85M38.5,47.35L40.85 48.05Q43.55 49.15 45.15 51.2Q45.95 50.75 44.3 45.25Q42.45 39.1 38.5 37.35Q39.4 38.75 39.8 41Q40.55 44.85 38.5 47.35" />
<path style="fill:#B65555;fill-opacity:1" d="M48.95,52.7Q48.4 51.65 48.4 46.7Q48.4 41.65 46.8 38.4Q44.5 34.9 43.55 29.7Q42.3 22.95 40.1 16.75L39.1 16.55L39.45 15.6L39.65 15.45L39.7 15.45Q40.6 15 41 15.05Q41.45 15.1 41.85 15.7Q42.25 16.35 42.95 20.4Q43.65 24.45 45.05 29.25Q46.4 34 49.2 39.45L49.5 41.5Q50.35 47.5 49.5 53.85L48.95 52.7M28.05,35.35Q28.2 34.3 28.9 33.6Q29.95 32.5 31.95 32.3L33.7 31.75L35.1 32.85Q35.9 33.35 36.85 33.65L35.7 33.85Q30.85 32.45 29.55 36.15L28.05 35.35M22.2,1.95Q25.05 3.4 28.35 8.2Q31.15 12.25 34 17.75Q33.35 18.25 32.85 19.05L31.8 16.9Q29.65 12.15 26.6 7.9Q24.3 4.6 21.35 4.6L21.35 4.95L19.8 3.05Q19.7 0.65 22.2 1.95M19.8,29.4L10.85 24.15L9.35 24.25L10.05 29.65L7.5 23.25Q6.55 20.7 7.15 20.45Q7.7 20.15 10.8 22.35L16.7 26.7L19.8 29.05L19.8 29.4" />
<path style="fill:#381616;fill-opacity:1" d="M37.65,26.6Q38.05 31.25 40.65 34.25L36.85 33.65Q35.9 33.35 35.1 32.85L33.7 31.75Q34.2 31.4 34.2 30.8Q35.5 18.9 39.45 15.6L39.1 16.55Q37.25 21.4 37.65 26.6M49.1,56.35L47.8 61.75Q42.7 57.75 33.4 55.7Q29.8 51.5 29.7 47.2Q32.1 45.7 31.7 42.8Q31.3 39.9 28 36.45Q27.95 35.85 28.05 35.35L29.55 36.15Q31.2 36.95 32.75 39.45Q34.3 41.9 34.3 43.9Q34.3 45.85 32.75 47.5Q33.1 49.6 33.8 50.75Q34.45 51.85 35.75 52.45Q40.1 50.25 44.6 54.65Q46.65 56.6 49.1 56.35M34,17.75L35.05 19.75Q33.2 23.65 32.8 29.5L32.8 29.85L32.75 30.75L32.55 30.75Q26.15 32.15 26.9 35.7Q21.55 31.25 22.4 23.85Q23.25 16.35 21.85 11.8Q20.4 7.25 19.9 3.85L19.8 3.05L21.35 4.95L22.65 6.8Q25.9 12 25.95 18Q26.05 24.1 30.9 25.5Q31.05 22.15 32.45 19.65L32.85 19.05Q33.35 18.25 34 17.75M19.8,29.4L19.8 29.05L21.15 30.1L21.4 30.3Q22.9 34.95 26.3 36.95Q30.2 39.3 30.4 43.85L30.25 44.75Q29.8 45.9 29.1 46.2Q23.15 44.3 16.8 40.6Q15.75 40.1 14.65 38.65Q17.2 39.15 20.15 37.25L21.65 35.85Q19.8 33.1 19.8 29.4M39.8,41Q39.4 38.75 38.5 37.35Q42.45 39.1 44.3 45.25Q45.95 50.75 45.15 51.2Q43.55 49.15 40.85 48.05L38.5 47.35Q40.55 44.85 39.8 41" />
<path style="fill:#200A0A;fill-opacity:1" d="M44.75,22.2Q45.8 27.05 46.6 29.6Q47.35 32.1 48.9 35.3Q50.45 38.45 50.85 39.85Q51.2 41 51.35 43.2L51.45 44.2L51.3 51.1L50.7 55.8L50.7 55.85L50.15 59.05Q49.4 62.3 48.6 63.05Q47.75 63.8 46.95 63.2L44.65 61.35Q41.65 59.5 37.1 58.4L32.8 57.15L31.7 56.05L30.05 53.3Q29.35 51.8 29 50.45Q28.6 49.1 28.55 48.25L28.55 47.25L25.55 46.25L21.15 44.6Q17.5 43.15 14.85 40.95Q13.3 39.65 11.95 37.4Q10.9 35.7 9.95 33.45L7.25 26.75Q5.5 22.25 5.4 20.1Q5.3 17.9 8.75 19.35Q13.85 22.7 19.9 27.6L21.25 28.65Q20.7 27.4 21.15 21.6Q21.6 15.75 20.6 11.9L19.15 6.3L18.6 3.65Q18.45 2.75 18.65 1.85L18.65 1.7Q18.85 0.7 19.85 0.25L22.05 0.2Q23.2 0.65 25.25 2.6Q27.25 4.5 30.3 8.75Q32.9 12.45 35.25 17.05L35.9 18.4Q37.05 15.85 38.4 14.8Q39.75 13.7 40.95 13.6Q42.9 13.95 43.3 15.65L44.75 22.2M34.2,30.8Q34.2 31.4 33.7 31.75L31.95 32.3Q29.95 32.5 28.9 33.6Q28.2 34.3 28.05 35.35Q27.95 35.85 28 36.45Q31.3 39.9 31.7 42.8Q32.1 45.7 29.7 47.2Q29.8 51.5 33.4 55.7Q42.7 57.75 47.8 61.75L49.1 56.35L49.5 53.85Q50.35 47.5 49.5 41.5L49.2 39.45Q46.4 34 45.05 29.25Q43.65 24.45 42.95 20.4Q42.25 16.35 41.85 15.7Q41.45 15.1 41 15.05Q40.6 15 39.7 15.45L39.65 15.45L39.45 15.6Q35.5 18.9 34.2 30.8M19.8,3.05L19.9 3.85Q20.4 7.25 21.85 11.8Q23.25 16.35 22.4 23.85Q21.55 31.25 26.9 35.7Q26.15 32.15 32.55 30.75L32.75 30.75L32.8 29.85L32.8 29.5Q33.2 23.65 35.05 19.75L34 17.75Q31.15 12.25 28.35 8.2Q25.05 3.4 22.2 1.95Q19.7 0.65 19.8 3.05M12.6,35.3Q13.65 37.35 14.65 38.65Q15.75 40.1 16.8 40.6Q23.15 44.3 29.1 46.2Q29.8 45.9 30.25 44.75L30.4 43.85Q30.2 39.3 26.3 36.95Q22.9 34.95 21.4 30.3L21.15 30.1L19.8 29.05L16.7 26.7L10.8 22.35Q7.7 20.15 7.15 20.45Q6.55 20.7 7.5 23.25L10.05 29.65L12.6 35.3" />
<path style="fill:#B84B16;fill-opacity:1" d="M43.35,46.45L40.45 45.5L36.7 51.3Q38.6 54.5 38.8 58Q42.2 59.35 44.4 61.15L47.5 61.85L49.8 61.4L48.9 65.4Q49.4 67.7 46.2 68.35L47 70.75L48.85 73.9L50.7 73.8Q52.35 73 54.7 75.85Q55.85 76.85 56.7 79.2Q52.75 79.7 51.95 80.2L50.75 81.1L49.75 82.6Q49.15 83.65 47.4 83.15Q45.6 82.6 44.5 81.85Q43.4 81.05 43.3 79.9L43.8 76Q43.05 75.1 39.3 77Q35.55 78.85 34.55 76.45L33.55 73.95Q32.3 71.7 37.35 70.95L41.6 70.4Q41.55 68.15 40.8 67.7Q39.85 65.35 37.25 65.15L26.5 67.95Q23.1 67.05 22.25 62.95Q26.65 60.85 29.5 58.35L29.75 59.6Q32.4 59.85 33.35 57.7L30.05 49.75Q30.3 49.15 30.75 49.6Q31.15 49.25 31.3 49.4Q33.6 44.8 35.4 40.05L33.3 37.6Q30.05 36.15 29.55 31.05L29.65 30.7L29.7 30.55L30.5 30.05Q32.75 29.7 34.45 30.45L34.5 30.3L34.65 30.5L35.6 31.05L35.7 31.2Q35.5 31.4 36 31.4Q38.85 36.75 43.85 40.45L50.75 43.65L49.45 45.55L52.35 48Q53.45 48.95 52.65 50.25L49.2 53.15L46.35 50L44.65 47.4Q44.3 46.6 43.35 46.45M49.4,47.65Q48.6 46.55 47.8 44.5L48.5 43.85Q47.15 44.35 44.2 42.2Q43 41.65 39.05 38.2Q35.05 34.7 34.2 32.25L31.65 32.3L33.85 36.25L36.9 39.5Q37.4 42.85 32.7 51.05Q34.35 53.95 35.3 59.8L33.2 60.85L29.25 61.2Q28.25 62.65 25.25 63.75L24.25 64.05L26.05 66.1Q35.3 63.1 37 63.05Q38.65 62.9 39.3 63.5L40.95 64.65Q43.65 66.95 43.5 72.05Q39.2 72.3 36.45 73.6L36.45 75.9Q38.6 74.3 42 74.2L44.25 74.3Q45.75 76.45 45.55 78.1Q45.35 79.8 46.15 80.2L48.2 81.3Q48.25 80.55 49.2 79.85Q51.05 78.4 53.25 78.1L54.1 77.85L53 75.95Q52.1 74.5 49.45 76.15Q46.95 74.7 46.6 72.35Q43.75 67.9 44.65 66.9L46 66.3Q48.2 65.4 47.3 63.8L44.3 63.5Q41.8 60.55 37.3 59.35L35.25 50.7L39.1 44.05Q39.7 43.4 40.4 43.4L41.7 43.6L43.85 44.55Q44.8 44.95 46.45 47.1L46.9 48.05Q47.1 48.9 48.35 50.4Q49.55 51.85 49.55 51.2Q51.5 50.25 51.2 48.75Q50.45 48.8 49.75 48.05L49.4 47.65M50.75,43.45L50.55 43.4L50.8 43.4L50.75 43.45M21,15.7Q21.45 15.1 23.25 16.25L29 19.05L31.25 20.55Q32.45 21.3 32.4 23.5L32.35 26.05Q31.85 28.25 29.3 26.6L22.25 22.2Q20.55 21.2 20.7 20.75L20.85 18.4Q20.6 16.25 21 15.7M22.6,20.4Q28.1 23.55 30.4 25.1Q31.55 24.95 30.85 22.8L27.8 20.7Q25.05 18.8 22.7 17.65Q22.35 18.2 22.6 20.4M18.55,33.1L16.55 32.3L15.65 31.85L11.25 29.7L11.8 31.9L22.7 37L21.9 34.4L18.55 33.1M11,33.3Q9.65 32.9 9.15 31.85Q8.65 30.8 7.45 27.2Q6.95 26.3 11.1 27.9Q15.25 29.5 21.15 32.4Q24.55 34.3 24.6 36.95Q24.75 39.4 22.4 38.5Q20.05 37.6 16.2 35.65Q12.35 33.65 11 33.3M37.3,87.5Q37.65 85.55 40.5 86.1Q43.35 86.6 45.3 88.55Q47.75 89.95 49.65 89.7Q50.95 89.55 51.2 88.8L51.65 87.35Q51.8 86.7 52.85 86.85L54 87Q57.2 87 58 85.7L57 83.3Q57.85 81.45 59.3 80.9L61.35 80.75Q61.95 81.2 64 84.6Q66.05 87.95 63.25 89.45L56.55 93.5L58 94.65Q60.15 96.35 62 95.3L65.4 93.4Q66.9 92.55 67.9 92.9Q68.85 93.25 69.75 94.85Q70.9 97.35 67.35 97.35L69.8 100.2Q72.2 104.45 70.6 106.15Q69 107.8 68.25 107.25Q66.55 104.9 65.05 101.75Q61.55 101.35 58.85 100L56.1 103.25Q54.05 108.35 50.3 103.35Q49.9 102.85 49.85 102.2L49.8 102.1L49.85 102.05L49.9 101.35L50.55 100.9L52.55 98.3L47.95 95.35Q44.7 96.2 41.25 94.1Q37.8 92 37.7 91.6Q36.9 89.4 37.3 87.5M48.45,93.45L52.1 95.95Q53.95 97.35 53.95 98.2Q53.9 99.05 54 99.1L52.7 100.45L51.75 102.05L52.3 102.35L52.7 102.95Q52.9 103.5 53.55 103.75Q54.95 101.55 56.6 100.1Q58.2 98.6 59.2 98.75Q61.45 100.15 64.8 99.7Q67 101.8 68.05 104.25Q69.1 106.7 69.55 105.1Q70 103.45 69.2 102.15L67.6 99.65L65.85 97.7Q65.85 97.3 66.1 97.05L66.25 97.05L66.6 96.85L66.7 96.55L68.9 96.2L68.1 95.15L67.3 94.5L63.75 96.1Q59.45 98.25 56.5 95.75L54.05 92.75L54.3 92.4L54.3 92.35Q57.45 90.95 60.15 89.35Q62.85 87.7 62.7 86.5L62.25 85.2L60.25 82.35Q59.8 83.3 59 83.6Q59.45 83.95 60.2 86.2Q57.65 89.2 53.3 88.7Q53.55 90.3 51.2 91.05Q47.6 92.05 43.75 89.55Q41.6 88.05 39.1 87.8L38.85 90Q42.25 93.1 47.5 93.85Q47.75 93.5 48.1 93.4L48.45 93.45" />
<path style="fill:#EE9034;fill-opacity:1" d="M49,47.4L48.85 47.5L48.75 47.75L48.25 47.55L47.95 47.65Q47.8 47.75 47.8 47.95Q48.2 49.45 49.7 49.5L49.75 49.4L49.6 48.6L49.8 48.5L49.85 48.4L49.75 48.05Q50.45 48.8 51.2 48.75Q51.5 50.25 49.55 51.2Q49.55 51.85 48.35 50.4Q47.1 48.9 46.9 48.05L46.45 47.1Q44.8 44.95 43.85 44.55L41.7 43.6L40.4 43.4Q39.7 43.4 39.1 44.05L35.25 50.7L37.3 59.35Q41.8 60.55 44.3 63.5L47.3 63.8Q48.2 65.4 46 66.3L44.65 66.9Q43.75 67.9 46.6 72.35Q46.95 74.7 49.45 76.15Q52.1 74.5 53 75.95L54.1 77.85L53.25 78.1Q51.05 78.4 49.2 79.85Q48.25 80.55 48.2 81.3L46.15 80.2Q45.35 79.8 45.55 78.1Q45.75 76.45 44.25 74.3L42 74.2Q38.6 74.3 36.45 75.9L36.45 73.6Q39.2 72.3 43.5 72.05Q43.65 66.95 40.95 64.65L39.3 63.5Q38.65 62.9 37 63.05Q35.3 63.1 26.05 66.1L24.25 64.05L25.25 63.75Q28.25 62.65 29.25 61.2L33.2 60.85L35.3 59.8Q34.35 53.95 32.7 51.05Q37.4 42.85 36.9 39.5L33.85 36.25L31.65 32.3L34.2 32.25Q35.05 34.7 39.05 38.2Q43 41.65 44.2 42.2Q47.15 44.35 48.5 43.85L47.8 44.5Q48.6 46.55 49.4 47.65L49 47.4M46.15,43.6Q40.1 41.4 36.5 36.3L36.3 36.35L36.05 36.65Q36.15 37.4 36.75 38Q39.3 40.55 37.55 43.4L37.65 43.5Q38.9 43.5 39.3 42.55Q40.05 42.55 40.7 42.05Q43.4 43.65 46.25 43.7L46.15 43.6M25.1,20.45Q25.1 19.05 23.65 18.8Q22.55 20.5 25 20.6Q24.9 20.7 24.95 20.85L24.95 20.9Q26.75 23 29.35 23.4L29.35 23.35Q28.6 20.95 25.35 20.35L25.15 20.4L25.1 20.45M22.7,17.65Q25.05 18.8 27.8 20.7L30.85 22.8Q31.55 24.95 30.4 25.1Q28.1 23.55 22.6 20.4Q22.35 18.2 22.7 17.65M21.9,34.4L22.7 37L11.8 31.9L11.25 29.7L15.65 31.85L15.35 31.75L15.25 32.25Q17.2 34.4 18.95 33.45L18.95 33.4L18.55 33.1L21.9 34.4M34.9,35.15Q35.1 33.75 33.75 33.2L33.55 33.25L33.3 33.55Q33.4 35.2 34.85 35.25L34.9 35.15M34.25,49.3Q36.3 49.4 36.85 46.9L36.8 46.8Q36.7 46.55 36.4 46.55Q35 47.65 34.2 49.25L34.25 49.3M28.7,63.5Q29.3 64.15 30.3 63.75L32.4 63L33.7 62.65Q37.15 61.75 40.55 61.95L42.05 62.25Q41.25 61.2 39.6 60.7Q36.45 59.75 35.75 56.4L35.75 56.45L35.3 56.65L35.35 57.5L36 60L35.75 60.05L34.5 60.65L34.1 61.1L33.8 61.25Q30.85 62.05 28.7 63.5M66.7,96.4L66.55 96L66.45 95.95L65.9 95.85L65.45 96.05L64.85 97.05L64.05 96.7L63.95 97.1Q62.4 96.8 61.8 97.85Q65.25 98.7 67.4 101.6L67.6 101.2Q67.15 99.6 66.1 98.45L65.65 97.7L65.75 97.5L65.9 97.05L66.1 97.05Q65.85 97.3 65.85 97.7L67.6 99.65L69.2 102.15Q70 103.45 69.55 105.1Q69.1 106.7 68.05 104.25Q67 101.8 64.8 99.7Q61.45 100.15 59.2 98.75Q58.2 98.6 56.6 100.1Q54.95 101.55 53.55 103.75Q52.9 103.5 52.7 102.95L52.3 102.35L51.75 102.05L52.7 100.45L54 99.1Q53.9 99.05 53.95 98.2Q53.95 97.35 52.1 95.95L48.45 93.45L50.9 93.55L51.85 93.85L52.15 93.95L55.5 97.05L55.55 96.95Q54.9 94.45 52.8 92.85L55 91.55L54.95 91.45L54.95 91.4L58.05 89.7L58.05 89.6Q57.85 89.3 57.5 89.35L57.3 89.4Q54.95 90.05 52.9 91.1L52.25 91.1L51.5 91.3Q50.95 91.5 50.8 91.95L50.7 92.35Q46.15 91.8 41.9 89.85Q41.7 89.85 41.55 90Q41.4 90.1 41.4 90.3Q43.4 91.8 45.65 92.45L47.75 93.3L48.1 93.4Q47.75 93.5 47.5 93.85Q42.25 93.1 38.85 90L39.1 87.8Q41.6 88.05 43.75 89.55Q47.6 92.05 51.2 91.05Q53.55 90.3 53.3 88.7Q57.65 89.2 60.2 86.2Q59.45 83.95 59 83.6Q59.8 83.3 60.25 82.35L62.25 85.2L62.7 86.5Q62.85 87.7 60.15 89.35Q57.45 90.95 54.3 92.35L54.3 92.4L54.05 92.75L56.5 95.75Q59.45 98.25 63.75 96.1L67.3 94.5L68.1 95.15L68.9 96.2L66.7 96.55L66.7 96.4M44.15,64.5L43.45 65Q43.2 65.25 43.3 65.6L45.1 65.75L45.8 65.45L45.9 65.05L45.75 64.4L45.6 64.35L45.15 64.25L45 64.3L44.6 64.55L44.15 64.5M44.25,67.95L43.8 68.15Q43.8 68.9 43.95 69.65Q44.35 71.8 45.3 73Q43.95 72.5 42.4 72.5L42.4 72.55L42.05 72.65L42 72.75L41.9 73Q41.9 73.2 42.05 73.25Q44.15 74.15 45.65 73.9L47.6 78.7L47.5 79L47.45 79.45Q50.15 79.25 52.05 77.1L48.5 77.3L48.4 77.2Q47.6 75.2 46.45 73.65L46.5 73.6L46.45 73.55L46.3 73.45L46.05 73.15Q45.4 70.3 44.25 67.9L44.25 67.95M57.8,98.4L59.55 98L59.55 97.95Q59 96.75 57.5 97.2Q56.35 97.45 55.5 98.3Q54.4 99.35 55.4 100.15L56.3 99.5L57 98.9L57.8 98.4M61.1,85.5Q60.25 86.15 60.8 86.95L60.95 86.95Q62.2 86.25 61.25 85.45L61.1 85.5" />
<path style="fill:#FCDE51;fill-opacity:1" d="M49.6,48.6L49.75 49.4L49.7 49.5Q48.2 49.45 47.8 47.95Q47.8 47.75 47.95 47.65L48.25 47.55L48.75 47.75Q48.2 48.95 49.6 48.6M46.25,43.7Q43.4 43.65 40.7 42.05Q40.05 42.55 39.3 42.55Q38.9 43.5 37.65 43.5L37.55 43.4Q39.3 40.55 36.75 38Q36.15 37.4 36.05 36.65L36.3 36.35L36.5 36.3Q40.1 41.4 46.15 43.6L46.25 43.7M25.15,20.4L25.35 20.35Q28.6 20.95 29.35 23.35L29.35 23.4Q26.75 23 24.95 20.9L24.95 20.85Q24.9 20.7 25 20.6Q22.55 20.5 23.65 18.8Q25.1 19.05 25.1 20.45L25.15 20.4M16.55,32.3L18.55 33.1L18.95 33.4L18.95 33.45Q17.2 34.4 15.25 32.25L15.35 31.75L15.65 31.85L16.55 32.3M34.85,35.25Q33.4 35.2 33.3 33.55L33.55 33.25L33.75 33.2Q35.1 33.75 34.9 35.15L34.85 35.25M40.3,41.5L40.3 41.4Q40.45 40.4 39.4 40.3L39.2 40.4L38.95 40.55Q38.8 42.15 40.3 41.5M34.2,49.25Q35 47.65 36.4 46.55Q36.7 46.55 36.8 46.8L36.85 46.9Q36.3 49.4 34.25 49.3L34.2 49.25M34.5,60.65L35.75 60.05L36 60L35.35 57.5L35.3 56.65L35.75 56.45L35.75 56.4Q36.45 59.75 39.6 60.7Q41.25 61.2 42.05 62.25L40.55 61.95Q37.15 61.75 33.7 62.65Q34.5 62.15 34.9 61.15L34.85 61.1L34.4 60.9L34.1 61.1L34.5 60.65M33.8,61.25L31.2 62.9L31.25 62.95L32.4 63L30.3 63.75Q29.3 64.15 28.7 63.5Q30.85 62.05 33.8 61.25M38.3,61.25L38.35 61.15Q38.6 59.7 36.75 59.9Q36.3 60.05 36 60.5L36 60.85L38.3 61.25M53.65,91.1Q52.7 91.3 51.9 91.85Q51.45 92.2 51.35 92.5L45.8 91.6L45.65 91.65L45.55 91.65Q45.3 91.8 45.3 92.1L45.45 92.35L45.65 92.45Q43.4 91.8 41.4 90.3Q41.4 90.1 41.55 90Q41.7 89.85 41.9 89.85Q46.15 91.8 50.7 92.35L50.8 91.95Q50.95 91.5 51.5 91.3L52.25 91.1L52.9 91.1Q54.95 90.05 57.3 89.4L57.5 89.35Q57.85 89.3 58.05 89.6L58.05 89.7L54.95 91.4Q54.5 90.8 53.65 91.1M53.05,93.65L53.05 93.6L52.55 93Q52.65 92.9 52.8 92.85Q54.9 94.45 55.55 96.95L55.5 97.05L52.15 93.95L53.05 93.65M51.7,93.25Q51.65 93.7 51.85 93.85L50.9 93.55L51.7 93.25M64.85,97.05L65.45 96.05L65.9 95.85L66.45 95.95L66.55 96L66.7 96.4L66.7 96.55L66.6 96.85L66.25 97.05L66.1 97.05L65.9 97.05L65.75 97.5L65.65 97.7L64.85 97.05M66.15,99.2L66.2 99.1L66.1 98.45Q67.15 99.6 67.6 101.2L67.4 101.6Q65.25 98.7 61.8 97.85Q62.4 96.8 63.95 97.1Q63.65 98.6 66.15 99.2M45.1,65.75L43.3 65.6Q43.2 65.25 43.45 65L44.15 64.5L44.6 64.55L44.05 65.15Q44.45 65.85 45.1 65.75M44.25,67.9Q45.4 70.3 46.05 73.15L46.3 73.45L46.45 73.55L46.5 73.6L46.45 73.65Q47.6 75.2 48.4 77.2L48.5 77.3L52.05 77.1Q50.15 79.25 47.45 79.45L47.5 79L47.6 78.7L45.65 73.9Q44.15 74.15 42.05 73.25Q41.9 73.2 41.9 73L42 72.75L42.05 72.65L42.4 72.55L42.4 72.5Q43.95 72.5 45.3 73Q44.35 71.8 43.95 69.65Q43.8 68.9 43.8 68.15L44.25 67.95L44.25 67.9M46.45,74.05Q46.1 77.05 48.65 78.75L48.7 78.7Q48 76.15 46.5 74L46.45 74.05M56.3,99.5L55.4 100.15Q54.4 99.35 55.5 98.3Q56.35 97.45 57.5 97.2Q59 96.75 59.55 97.95L59.55 98L57.8 98.4L57.65 97.6Q56.35 97.8 55.9 98.8L55.95 98.85L57 98.9L56.3 99.5M61.25,85.45Q62.2 86.25 60.95 86.95L60.8 86.95Q60.25 86.15 61.1 85.5L61.25 85.45" />
<path style="fill:#FFFEB4;fill-opacity:1" d="M48.75,47.75L48.85 47.5L49 47.4L49.4 47.65L49.75 48.05L49.85 48.4L49.8 48.5L49.6 48.6Q48.2 48.95 48.75 47.75M38.95,40.55L39.2 40.4L39.4 40.3Q40.45 40.4 40.3 41.4L40.3 41.5Q38.8 42.15 38.95 40.55M32.4,63L31.25 62.95L31.2 62.9L33.8 61.25L34.1 61.1L34.4 60.9L34.85 61.1L34.9 61.15Q34.5 62.15 33.7 62.65L32.4 63M36,60.85L36 60.5Q36.3 60.05 36.75 59.9Q38.6 59.7 38.35 61.15L38.3 61.25L36 60.85M50.9,93.55L48.45 93.45L48.1 93.4L47.75 93.3L45.65 92.45L45.45 92.35L45.3 92.1Q45.3 91.8 45.55 91.65L45.65 91.65L45.8 91.6L51.35 92.5Q51.45 92.2 51.9 91.85Q52.7 91.3 53.65 91.1Q54.5 90.8 54.95 91.4L54.95 91.45L55 91.55L52.8 92.85Q52.65 92.9 52.55 93L53.05 93.6L53.05 93.65L52.15 93.95L51.85 93.85Q51.65 93.7 51.7 93.25L50.9 93.55M63.95,97.1L64.05 96.7L64.85 97.05L65.65 97.7L66.1 98.45L66.2 99.1L66.15 99.2Q63.65 98.6 63.95 97.1M44.05,65.15L44.6 64.55L45 64.3L45.15 64.25L45.6 64.35L45.75 64.4L45.9 65.05L45.8 65.45L45.1 65.75Q44.45 65.85 44.05 65.15M46.5,74Q48 76.15 48.7 78.7L48.65 78.75Q46.1 77.05 46.45 74.05L46.5 74M57,98.9L55.95 98.85L55.9 98.8Q56.35 97.8 57.65 97.6L57.8 98.4L57 98.9" />
</g>
</svg>
