<?xml version="1.0" encoding="utf-8"?>
<svg version="1.1" id="Layer_1"
xmlns="http://www.w3.org/2000/svg"
xmlns:xlink="http://www.w3.org/1999/xlink"
xmlns:author="http://www.sothink.com"
width="38px" height="53px"
xml:space="preserve">
<g id="689" transform="matrix(1, 0, 0, 1, 5.85, -21.1)">
<path style="fill:#F0EAC6;fill-opacity:1" d="M5.65,36.45Q5.7 32.75 6.35 30.75L6.95 29.1L7.8 27.3Q7.8 28.75 8.1 30.1L9.05 33.6Q7.8 34.1 5.65 36.45" />
<path style="fill:#9D8E79;fill-opacity:1" d="M9.05,33.6L8.1 30.1Q7.8 28.75 7.8 27.3L9.3 24.75Q10.35 23.4 10.8 23.95Q11.1 30.2 13.25 34.35L14.1 35.9L14.2 36.15L14.4 36.4Q16.8 39.75 17.7 41.65L17.75 41.95L17.95 42.7Q18.25 44.1 17.55 45.45L17.45 45.55L17.2 46L17 46.25Q15.65 47.85 13.35 48.1Q10.95 48.25 9.5 47.25Q8.65 46.7 8.05 45.65Q7.4 44.85 6.85 43.7L6.75 43.35L6.3 41.9L5.8 40.05Q5.5 38.4 5.5 36.35Q5.55 35.8 5.65 36.45Q7.8 34.1 9.05 33.6" />
<path style="fill:#3E3A2F;fill-opacity:1" d="M11.25,21.2L11.95 21.75Q12.25 22.15 12.8 26.6Q13.5 30.95 14.5 33.05L14.8 33.6L15.75 35.25L15.8 35.4L16.3 36.1L17.55 38.2Q19.25 40.45 19.7 42.65L19.85 43.85L19.75 44.5L19.8 44.65Q19.55 46.6 17.85 48Q16.35 49.3 14.8 49.75L14.05 49.9L10.15 49.7L8.8 49Q7.5 48.1 6.15 46.2L5.85 45.5Q5.35 44.65 5 43.65L4.4 41.75L3.9 37.8L3.85 36Q3.9 31.9 4.9 29.15Q5.95 25.85 7.9 23.8L8.9 22.8Q10.15 21.55 10.75 21.25L11.25 21.2M6.95,29.1L6.35 30.75Q5.7 32.75 5.65 36.45Q5.55 35.8 5.5 36.35Q5.5 38.4 5.8 40.05L6.3 41.9L6.75 43.35L6.85 43.7Q7.4 44.85 8.05 45.65Q8.65 46.7 9.5 47.25Q10.95 48.25 13.35 48.1Q15.65 47.85 17 46.25L17.2 46L17.45 45.55L17.55 45.45Q18.25 44.1 17.95 42.7L17.75 41.95L17.7 41.65Q16.8 39.75 14.4 36.4L14.2 36.15L14.1 35.9L13.25 34.35Q11.1 30.2 10.8 23.95Q10.35 23.4 9.3 24.75L7.8 27.3L6.95 29.1" />
<path style="fill:#101010;fill-opacity:1" d="M24.5,61.5L25 61.45L25.5 61.45L26.1 61.6L26.2 62.1L26.3 62.45Q26.7 64.65 28.95 66.45Q31.15 67.75 29.55 68.5L29 68.75Q23.05 71.35 20.65 67.3Q19.55 68.85 19.5 71.9L19.5 73.2Q18.75 73.35 17.55 72.45Q16.3 71.45 15.6 70.2Q14.9 68.95 14.75 68.2Q11.05 69.95 8.45 68.85Q8.1 68.65 8.15 68.25L8.7 66.95Q9.1 65.95 8.95 65.65Q8.8 65.35 7.85 65.65Q6.9 65.9 6.05 66.55L4.75 67.8Q4.1 68.6 3.5 68.15Q2.95 67.7 2.3 66.15Q1.6 64.55 1.75 62.45Q-0.5 62.5 -3.05 60.7Q-4.7 59.6 -5.55 58.3Q-6.15 56.8 -5.5 56.95L-5.3 57Q-2.35 57.15 -0.75 55.75L-0.6 55.55L-0.4 55.25L-0.35 55.3L0.95 55.85L0.65 56.2Q0.05 57 -1.45 57.6Q-2.9 58.2 -3.95 58.2L-3.75 58.5Q-1.25 61 1.6 60.8L2.6 60.85Q2.85 61.4 2.75 62.55Q2.9 64.8 3.65 66.3L3.95 66.9Q5.7 64.2 9.2 63.85Q10.3 63.8 10.4 64.15L10.45 64.25L10.4 65.85Q10.25 67.15 9.45 67.85L9.7 67.85Q12.7 68.35 16.1 65.7Q16.55 70.35 18.2 71.05L18.25 71.05Q18.7 66.95 19.95 65.85Q20.45 65.4 21.1 65.35L21.3 66Q21.85 67 23.2 67.7L27.7 67.55L27.6 67.35L26.4 65.9Q25.6 64.8 24.9 62.5L24.5 61.5" />
<path style="fill:#1E1415;fill-opacity:1" d="M10.45,64.25L10.4 64.15Q10.3 63.8 9.2 63.85Q5.7 64.2 3.95 66.9L3.65 66.3L3.75 66L3.85 65.65L4 65.35Q4.75 64.25 5.8 63.3L6.35 62.9L6.7 62.6L6.35 62.6L6.1 62.55L5.3 62.5L5.05 62.45Q4.9 62.05 5 61.5Q5.25 60.45 4.6 59.55L4.35 59.2L4.3 59.25L3.5 59.85L2.6 60.85L1.6 60.8Q-1.25 61 -3.75 58.5L-3.5 58.6L-2.7 58.85L-2.3 59Q-1.1 59.2 0.1 59Q1.35 58.8 2.5 58.15L3 57.75L3.05 57.75L2.65 57.35L2.05 57Q1.35 56.5 0.65 56.2L0.95 55.85L2.45 56.35Q4.4 57.5 5.35 58.55Q5.95 59.25 6.05 59.95Q6.15 60.95 6.8 61.3L8.8 61.45Q11.95 61.75 13.95 62.45Q16.45 63.35 17 64L17.75 64.7L18.15 64.9L18.25 64.9L18.75 64.8Q20.1 63 22.2 62.1L24.5 61.5L24.9 62.5L24.1 63.1L23.45 63.7L23.2 64.1L23.05 64.5Q23.2 65.25 23.7 65.8L23.85 66.05L24.3 66.4L25 66.75L26.95 67.25L27.5 67.3L27.6 67.35L27.7 67.55L23.2 67.7Q21.85 67 21.3 66L21.1 65.35Q20.45 65.4 19.95 65.85Q19.1 65.75 18.25 66.2L17.9 66.6L17.5 67.15L17.45 67.35L17.55 68.5L17.65 69.3Q17.75 70.25 18.25 71.05L18.2 71.05Q16.55 70.35 16.1 65.7Q12.7 68.35 9.7 67.85Q10.05 67.4 11.2 67.15Q12.35 66.8 13.15 65.75L14.3 63.9Q13.6 63.2 12.65 63.2L11.9 63.3Q11.2 63.5 10.6 64.15L10.45 64.25" />
<path style="fill:#695F62;fill-opacity:1" d="M24.1,63.1L24.9 62.5Q25.6 64.8 26.4 65.9L27.6 67.35L27.5 67.3L26.95 67.25L25 66.75L25.65 66.75L25.85 66.7L26.2 66.65L25.75 66.4L25.25 65.9Q24.2 64.6 24.1 63.1" />
<path style="fill:#3F3437;fill-opacity:1" d="M17.65,69.3L17.55 68.5L17.45 67.35L17.5 67.15L17.9 66.6L18.25 66.2Q19.1 65.75 19.95 65.85Q18.7 66.95 18.25 71.05Q17.75 70.25 17.65 69.3M10.6,64.15Q11.2 63.5 11.9 63.3L12.65 63.2Q13.6 63.2 14.3 63.9L13.15 65.75Q12.35 66.8 11.2 67.15Q10.05 67.4 9.7 67.85L9.45 67.85Q10.25 67.15 10.4 65.85L10.45 64.25L10.6 64.15M3.5,59.85L4.3 59.25L4.35 59.2L4.6 59.55Q5.25 60.45 5 61.5Q4.9 62.05 5.05 62.45L5.3 62.5L6.1 62.55L6.35 62.6L6.7 62.6L6.35 62.9L5.8 63.3Q4.75 64.25 4 65.35L3.85 65.65L3.75 66L3.65 66.3Q2.9 64.8 2.75 62.55Q2.85 61.4 2.6 60.85L3.5 59.85M2.05,57L2.65 57.35L3.05 57.75L3 57.75L2.5 58.15Q1.35 58.8 0.1 59Q-1.1 59.2 -2.3 59L-2.7 58.85L-3.5 58.6L-3.75 58.5L-3.95 58.2Q-2.9 58.2 -1.45 57.6Q0.05 57 0.65 56.2Q1.35 56.5 2.05 57M25.25,65.9L25.75 66.4L26.2 66.65L25.85 66.7L25.65 66.75L25 66.75L24.3 66.4L23.85 66.05L23.7 65.8Q23.2 65.25 23.05 64.5L23.2 64.1L23.45 63.7L24.1 63.1Q24.2 64.6 25.25 65.9" />
<path style="fill:#19213C;fill-opacity:1" d="M9.7,52.1L10 52.85L10.15 53.95Q11.9 52.6 15.55 53.95Q17.45 54.7 19.15 56.4L19.45 56.25Q20.8 55.1 22.4 54.85L22.45 54.85L25.5 54.9L25.75 54.95L26.9 55.2Q27.6 51.2 30.2 47.8L29.2 47.25L26.85 45.45L26.7 45.35Q25.45 43.9 24.85 42.1L24.75 41.9L23.9 38.5L23.8 37.85Q23.65 36.55 23.9 34.75L22.55 34.65Q21.1 34.45 19.1 34.7Q17.05 34.9 14.8 35.8Q12.55 36.6 10.15 37.9Q7.75 39.2 5.3 41.65L3.35 44.15Q2.2 45.8 1.5 47.5L3.35 47.55L3.5 47.6L5.5 48.2L5.65 48.2L6.8 48.75Q8.15 49.5 9 50.8L9.7 52.1M0.55,53.9L0.6 54.2L1.25 54.5L2.25 54.85Q4.55 55.7 5.65 56.85L5.75 56.95Q7.1 58.4 7.55 60.1Q11.05 59.5 14.65 61Q16.9 61.85 18.55 63.05Q20.9 60.45 24.2 60.05L24.65 60L26 59.95L26.75 60L26.65 59.05L26.5 56.7L25.8 56.45L25.1 56.35Q24.1 56.15 23.2 56.35L22.45 56.5L22.05 56.65Q20.55 57.2 20.05 57.65L19.35 57.85L19.3 57.85Q18.8 57.85 18.05 57.05L17.8 56.85L15.55 55.4Q13.8 54.7 12.55 54.9L10.5 55.25L9.45 55.1L9.2 54.7L8.25 52.35L8.1 51.9Q7.3 50.1 5.5 49.45L4.8 49.2L2.8 48.85L1 48.9L0.7 49.9L0.45 52.3L0.55 53.9M25.5,61.45L25 61.45L24.5 61.5L22.2 62.1Q20.1 63 18.75 64.8L18.25 64.9L18.15 64.9L17.75 64.7L17 64Q16.45 63.35 13.95 62.45Q11.95 61.75 8.8 61.45L6.8 61.3Q6.15 60.95 6.05 59.95Q5.95 59.25 5.35 58.55Q4.4 57.5 2.45 56.35L0.95 55.85L-0.35 55.3L-0.4 55.25Q-0.9 54.3 -0.8 52.1L-0.7 50.6L-0.25 47.95Q0.35 46.05 1.3 44.15Q2.3 42.3 5.4 39.5Q8.5 36.75 12.45 35Q16.35 33.25 20.25 33.3L24.65 33.4Q25.35 33.55 25.45 33.8L25.65 34.95Q25.55 36.2 25.6 37.35L25.65 38Q25.7 39.45 26.1 40.7Q26.65 42.45 27.65 43.9L28.05 44.25L30.4 46.25L31.3 46.75Q32.65 47.35 30.1 50.65Q27.5 53.85 27.9 57.85Q28.35 61.8 27.6 61.8L26.1 61.6L25.5 61.45" />
<path style="fill:#1D3E5D;fill-opacity:1" d="M25.5,54.9L22.45 54.85L22.4 54.85Q20.8 55.1 19.45 56.25L19.15 56.4Q17.45 54.7 15.55 53.95Q11.9 52.6 10.15 53.95L10 52.85L9.7 52.1L9 50.8L10.5 49.05L12.3 47.15L14 45.35L15.65 43.65L18.2 41.4L20 40.25L21.6 39.45L22.9 38.85L23.9 38.5L24.75 41.9L24.85 42.1Q25.45 43.9 26.7 45.35L26.85 45.45L29.2 47.25L28.15 48.7L27.1 50.65L26.15 52.9L25.7 54.35L25.5 54.9M24.85,57.6Q24.55 58.75 24.65 60L24.2 60.05Q20.9 60.45 18.55 63.05Q16.9 61.85 14.65 61Q11.05 59.5 7.55 60.1Q7.1 58.4 5.75 56.95L5.65 56.85Q4.55 55.7 2.25 54.85L1.25 54.5L0.6 54.2L0.55 53.9L0.45 52.3L0.65 52.3L1.25 52.5L2.25 52.75L2.75 52.95L4.15 53.6L5.25 54.15L6.45 55L7.05 53.55Q7.5 52.65 8.1 51.9L8.25 52.35L9.2 54.7L9.45 55.1L10.5 55.25L12.55 54.9Q13.8 54.7 15.55 55.4L17.8 56.85L18.05 57.05Q18.8 57.85 19.3 57.85L19.35 57.85L20.05 57.65Q20.55 57.2 22.05 56.65L22.45 56.5L23.2 56.35Q24.1 56.15 25.1 56.35L24.85 57.6" />
<path style="fill:#286593;fill-opacity:1" d="M22.9,38.85L21.6 39.45L20 40.25L18.2 41.4L15.65 43.65L14 45.35L12.3 47.15L10.5 49.05L9 50.8Q8.15 49.5 6.8 48.75L5.65 48.2L5.5 48.2L3.5 47.6L3.35 47.55L1.5 47.5Q2.2 45.8 3.35 44.15L5.3 41.65Q7.75 39.2 10.15 37.9Q12.55 36.6 14.8 35.8Q17.05 34.9 19.1 34.7Q21.1 34.45 22.55 34.65L23.9 34.75Q23.65 36.55 23.8 37.85L23.9 38.5L22.9 38.85M25.7,54.35L26.15 52.9L27.1 50.65L28.15 48.7L29.2 47.25L30.2 47.8Q27.6 51.2 26.9 55.2L25.75 54.95L25.5 54.9L25.7 54.35M7.05,53.55L6.45 55L5.25 54.15L4.15 53.6L2.75 52.95L2.25 52.75L1.25 52.5L0.65 52.3L0.45 52.3L0.7 49.9L1 48.9L2.8 48.85L4.8 49.2L5.5 49.45Q7.3 50.1 8.1 51.9Q7.5 52.65 7.05 53.55M25.1,56.35L25.8 56.45L26.5 56.7L26.65 59.05L26.75 60L26 59.95L24.65 60Q24.55 58.75 24.85 57.6L25.1 56.35" />
</g>
</svg>
