<?xml version="1.0" encoding="utf-8"?>
<svg version="1.1" id="Layer_1"
xmlns="http://www.w3.org/2000/svg"
xmlns:xlink="http://www.w3.org/1999/xlink"
xmlns:author="http://www.sothink.com"
width="33px" height="14px"
xml:space="preserve">
<g id="1894" transform="matrix(1, 0, 0, 1, 1.1, 0.45)">
<path style="fill:#E0D8D4;fill-opacity:1" d="M25.5,3.85L28 4.65Q28.9 2.8 29.2 1.2L30 1.1Q30.7 1.2 30.45 2.45L29.75 4.2L29.25 5L28.75 5.75L28.35 6.35Q26.95 8.2 23.9 10.5Q19.95 8.95 17.25 8.2L17.7 8.15L23.35 8.6L23.75 8.65L24.05 8.6Q25.85 7.95 27.3 5.9L24.65 4.9L25.5 3.85M15.6,9.05L14.9 8.9L14.9 8.75L14.95 8.5L18.6 9.4Q20.05 9.85 22.3 11.15Q19.45 9.9 15.6 9.05" />
<path style="fill:#3A3634;fill-opacity:1" d="M14.7,10.75L14.6 10.5Q14.6 10.1 14.75 9.8L15 9.8Q19.85 10.45 22.7 11.35L22.3 11.15Q20.05 9.85 18.6 9.4L14.95 8.5L15 8.15L15.45 7.9L15.75 7.75L17.25 8.2Q19.95 8.95 23.9 10.5Q26.95 8.2 28.35 6.35L28.75 5.75L29.25 5L29.75 4.2L30.45 2.45Q30.7 1.2 30 1.1L29.2 1.2L26.8 1.55L26.75 1.55L21.2 1.9L20.7 0.75L26.8 0.2L29.4 -0.15L31.5 -0.45Q32.15 1.6 31.4 3.7L30.55 5.45L29.65 6.9L28.55 8.25Q26.8 10.4 24.4 12.15L23.7 12.65L17.4 11.55L14.7 11.25L14.7 10.75" />
<path style="fill:#ACA49F;fill-opacity:1" d="M28,4.65L25.5 3.85Q26.45 2.6 26.75 1.55L26.8 1.55L29.2 1.2Q28.9 2.8 28 4.65M17.25,8.2L15.75 7.75L15.55 7.7L16.7 7.15Q17.5 6.75 18.25 6.15Q20.25 6.75 21.65 7.5L24 5.55L24.65 4.9L27.3 5.9Q25.85 7.95 24.05 8.6L23.75 8.65L23.35 8.6L17.7 8.15L17.25 8.2M1.4,10.5L0.3 10.4Q0.1 9.85 0.15 9.1Q0.2 7.95 1.5 7.7Q2.75 7.4 3.55 8.1L4.15 8.95Q3.45 10.5 1.4 10.5" />
<path style="fill:#938D89;fill-opacity:1" d="M24.65,4.9L24 5.55L21.65 7.5Q20.25 6.75 18.25 6.15L19.55 4.9Q20.8 3.65 21.1 2.7L21.2 1.9L26.75 1.55Q26.45 2.6 25.5 3.85L24.65 4.9M22.3,11.15L22.7 11.35Q19.85 10.45 15 9.8L14.75 9.8L14.9 8.9L15.6 9.05Q19.45 9.9 22.3 11.15" />
<path style="fill:#80250A;fill-opacity:1" d="M0.7,6.4L1 6.15Q2.15 4.9 3.8 3.65Q5.95 1.85 8.85 0.05L10.3 0.3L20.7 0.75L21.2 1.9L21.1 2.7Q20.8 3.65 19.55 4.9L18.25 6.15Q17.5 6.75 16.7 7.15L15.55 7.7L15.75 7.75L15.45 7.9L15 8.15L14.95 8.5L14.9 8.75L14.9 8.9L14.75 9.8Q14.6 10.1 14.6 10.5L14.7 10.75L14.7 11.25L7.05 10.8L5.75 11L5.6 11.3L5.95 9.7L5.95 9.3L7.15 9.2L13.55 9.65L13.55 9.3L13.6 8.65L13.7 8.25L4.5 7L2.85 6.55L0.7 6.4M5.6,4.05L3.3 5.95L12.5 7L13.7 7.3L13.75 7.3Q15.5 6.75 16.9 5.7L18.65 4.05L19.95 1.85Q16.25 2.25 12.85 1.75Q9.4 1.2 7.7 2.45L5.9 3.8L5.6 4.05" />
<path style="fill:#9C3C19;fill-opacity:1" d="M13.45,4.9L5.9 3.8L7.7 2.45Q9.4 1.2 12.85 1.75Q16.25 2.25 19.95 1.85L18.65 4.05L16.9 5.7L13.45 4.9" />
<path style="fill:#B1522E;fill-opacity:1" d="M5.9,3.8L13.45 4.9L16.9 5.7Q15.5 6.75 13.75 7.3L13.7 7.3L12.5 7L3.3 5.95L5.6 4.05L5.9 3.8M5.25,7.95L12.5 8.45L13.6 8.65L13.55 9.3L13.55 9.65L7.15 9.2L5.95 9.3L5.9 9.3L5.55 8.5L5.25 7.95" />
<path style="fill:#D26A3D;fill-opacity:1" d="M12.5,8.45L5.25 7.95L4.75 7.35L4.45 7.05L4.35 7L4.5 7L13.7 8.25L13.6 8.65L12.5 8.45" />
<path style="fill:#253439;fill-opacity:1" d="M5.55,8.5L5.9 9.3L5.95 9.3L5.95 9.7L5.6 11.3L5.25 11.6Q4.35 12.5 3.05 12.7Q1.35 13 0.2 12.25Q-1.05 11.45 -1.1 9.7L-1.1 9.65L-1 8.5Q-0.7 7.2 0.4 6.7L0.7 6.4L2.85 6.55L4.5 7L4.35 7L4.45 7.05L4.75 7.35L5.25 7.95L5.55 8.5M0.45,10.8L1.4 11.6Q2 11.85 3.2 11.6Q4.35 11.35 4.35 10.05L4.15 8.95L3.55 8.1Q2.75 7.4 1.5 7.7Q0.2 7.95 0.15 9.1Q0.1 9.85 0.3 10.4L0.45 10.8" />
<path style="fill:#4A5662;fill-opacity:1" d="M0.3,10.4L1.4 10.5Q3.45 10.5 4.15 8.95L4.35 10.05Q4.35 11.35 3.2 11.6Q2 11.85 1.4 11.6L0.45 10.8L0.3 10.4" />
</g>
</svg>
