<?xml version="1.0" encoding="utf-8"?>
<svg version="1.1" id="Layer_1"
xmlns="http://www.w3.org/2000/svg"
xmlns:xlink="http://www.w3.org/1999/xlink"
xmlns:author="http://www.sothink.com"
width="26px" height="35px"
xml:space="preserve">
<g id="1103" transform="matrix(1, 0, 0, 1, 9.25, 43.3)">
<path style="fill:#A8938C;fill-opacity:1" d="M12.15,-25.2L11.1 -24.6Q11.05 -24.35 9.6 -23.85L8.25 -24.5Q8.6 -25.8 7.7 -26.6Q6.7 -27.55 5.15 -27.45Q4.2 -27.4 3.65 -27L1.55 -28L1.2 -28.15Q0.5 -28.4 -0.05 -28.6L-1.7 -29.2L-2.1 -29.3L-1.7 -24.7L-1.9 -21.35Q-2.55 -16.75 -5 -14.85L-5.35 -14.6L-2.3 -14.7Q-1.65 -14.7 -0.75 -14.1L0.2 -13.55L-0.65 -12.9L-2.1 -13.2L-7.3 -13.6L-6.5 -14.95Q-4.75 -18 -4.1 -21.1Q-3.55 -24.15 -3.95 -27.35L-4.1 -29.7Q-4.5 -35.05 -2.75 -37.15Q-1.45 -38.8 0.1 -39.9Q0.85 -40.5 1.7 -40.9Q4.1 -42.15 6.05 -41.75Q8 -41.35 9.75 -39.7Q11.45 -38.05 13.2 -33.65Q14.75 -29.85 13.9 -26.35L12.15 -25.2M3.55,-13.8L4 -14.9L6.3 -14.55L7.15 -14.2Q8.35 -13.65 9.55 -12.6L9.65 -12.5L10.6 -11.5L10.7 -11.3Q11.45 -8.7 8.35 -11.5Q5.8 -13.8 3.45 -13.65L3.55 -13.8" />
<path style="fill:#564C48;fill-opacity:1" d="M3.7,-43.3L6.85 -43Q7.95 -42.75 9.05 -42Q14.9 -37.9 15.9 -30.8Q16.25 -28.65 15.25 -25L14.7 -22.9L12.85 -17.75L12.45 -16.35Q11.65 -13.7 12.2 -11.7Q12.85 -9.3 11.45 -8.65Q10 -8 7.6 -10.2Q5.2 -12.45 3.25 -12.05L0.45 -11.35L-1.1 -11.15L-3.1 -11.75L-6.65 -11.65Q-8.9 -10.95 -9.2 -12.25Q-9.5 -13.45 -8.1 -16.1L-7.55 -17.1Q-6.25 -19.4 -5.7 -21.3L-5.4 -23.25Q-5.25 -25.85 -5.7 -29.35L-5.75 -29.85Q-6.1 -33.05 -5.5 -35.95Q-4.85 -39.1 -1.65 -41.2Q1.5 -43.35 3.65 -43.3L3.7 -43.3M2.45,-13.45L3.45 -13.65Q5.8 -13.8 8.35 -11.5Q11.45 -8.7 10.7 -11.3L10.6 -11.5L10.4 -13.35Q10.25 -15.5 11.05 -17.9L13.6 -25.45L13.9 -26.35Q14.75 -29.85 13.2 -33.65Q11.45 -38.05 9.75 -39.7Q8 -41.35 6.05 -41.75Q4.1 -42.15 1.7 -40.9Q0.85 -40.5 0.1 -39.9Q-1.45 -38.8 -2.75 -37.15Q-4.5 -35.05 -4.1 -29.7L-3.95 -27.35Q-3.55 -24.15 -4.1 -21.1Q-4.75 -18 -6.5 -14.95L-7.3 -13.6L-2.1 -13.2L-0.65 -12.9Q0.7 -12.85 2.45 -13.45M3.65,-27Q4.2 -27.4 5.15 -27.45Q6.7 -27.55 7.7 -26.6Q8.6 -25.8 8.25 -24.5L8.2 -24.4Q7.95 -23.7 6.65 -23.65L3.8 -24L3.55 -24.1Q2.6 -25.05 3.1 -26.2L3.65 -27M4.65,-24.9L7.1 -24.8L7.2 -25Q7.55 -25.9 5.9 -26.25L4.95 -26.35Q4 -26.25 3.95 -25.25L4.65 -24.9" />
<path style="fill:#E9DBD2;fill-opacity:1" d="M6.3,-14.55L4 -14.9L4.25 -15.85L4.35 -17Q4.35 -18.65 3.7 -19.4L3.15 -17.8L2.55 -16.6Q1.5 -14.7 0.2 -13.55L-0.75 -14.1Q-1.65 -14.7 -2.3 -14.7L-5.35 -14.6L-5 -14.85Q-2.55 -16.75 -1.9 -21.35L-1.7 -24.7L-2.1 -29.3L-1.7 -29.2L-0.05 -28.6Q0.5 -28.4 1.2 -28.15L1.55 -28L3.65 -27L3.1 -26.2Q2.6 -25.05 3.55 -24.1L3.8 -24L6.65 -23.65Q7.95 -23.7 8.2 -24.4L8.25 -24.5L9.6 -23.85Q11.05 -24.35 11.1 -24.6L12.15 -25.2L11.65 -23.75L11.05 -22.1L10.4 -20.4Q8.85 -15.95 9.15 -14.2L7.15 -14.2L6.3 -14.55" />
<path style="fill:#8E7D77;fill-opacity:1" d="M3.95,-25.25Q4 -26.25 4.95 -26.35L5.9 -26.25Q7.55 -25.9 7.2 -25L7.1 -24.8L4.65 -24.9L3.95 -25.25" />
<path style="fill:#FFFFFF;fill-opacity:1" d="M3.45,-13.65L2.45 -13.45Q0.7 -12.85 -0.65 -12.9L0.2 -13.55Q1.5 -14.7 2.55 -16.6L3.15 -17.8L3.7 -19.4Q4.35 -18.65 4.35 -17L4.25 -15.85L4 -14.9L3.55 -13.8L3.45 -13.65M9.65,-12.5L9.55 -12.6Q8.35 -13.65 7.15 -14.2L9.15 -14.2Q8.85 -15.95 10.4 -20.4L11.05 -22.1L11.65 -23.75L12.15 -25.2L13.9 -26.35L13.6 -25.45L11.05 -17.9Q10.25 -15.5 10.4 -13.35L10.6 -11.5L9.65 -12.5" />
</g>
</svg>
