<?xml version="1.0" encoding="utf-8"?>
<svg version="1.1" id="Layer_1"
xmlns="http://www.w3.org/2000/svg"
xmlns:xlink="http://www.w3.org/1999/xlink"
xmlns:author="http://www.sothink.com"
width="118px" height="89px"
xml:space="preserve">
<g id="742" transform="matrix(1, 0, 0, 1, 0.75, 0.6)">
<path style="fill:#0A3580;fill-opacity:1" d="M106.15,-0.6Q109.9 -0.6 112.45 0.8Q117.1 3.25 117.1 10.1L117.1 77.55Q116.85 87.75 106.15 87.75L10.25 87.75Q-0.5 87.75 -0.75 77.55L-0.75 77.5L-0.75 77.05L-0.75 10.1Q-0.75 3.25 3.9 0.8Q6.45 -0.6 10.25 -0.6L106.15 -0.6M105.55,1.6L10.85 1.6Q1.65 1.6 1.65 10.6L1.65 76.65L1.65 77.1Q1.85 85.65 10.85 85.65L105.55 85.65L105.7 85.65Q114.55 85.6 114.8 77.1L114.8 10.6Q114.8 1.6 105.55 1.6" />
<linearGradient
id="LinearGradID_875" gradientUnits="userSpaceOnUse" gradientTransform="matrix(0.00535583, 0.0498505, -0.0735931, 0.00758362, 58.25, 44.55)" spreadMethod ="pad" x1="-819.2" y1="0" x2="819.2" y2="0" >
<stop  offset="0.00392157" style="stop-color:#7EECF0;stop-opacity:1" />
<stop  offset="0.423529" style="stop-color:#26AEDB;stop-opacity:1" />
<stop  offset="1" style="stop-color:#11539C;stop-opacity:1" />
</linearGradient>
<path style="fill:url(#LinearGradID_875) " d="M114.8,10.6L114.8 77.1Q114.55 85.6 105.7 85.65L105.55 85.65L10.85 85.65Q1.85 85.65 1.65 77.1L1.65 76.65L1.65 10.6Q1.65 1.6 10.85 1.6L105.55 1.6Q114.8 1.6 114.8 10.6M105.35,4.55L14.2 4.55Q4.65 4.55 4.65 13.3L4.65 74.35L4.8 76.05L5 77.1Q6.4 82.75 14.2 82.75L72.65 82.7L72.65 82.65L105.55 82.6Q108.8 82.35 110.3 80.55Q111.75 78.7 111.8 77.45L111.8 74.35L111.8 13.3Q111.8 6.2 105.9 4.7L105.35 4.55" />
<linearGradient
id="LinearGradID_876" gradientUnits="userSpaceOnUse" gradientTransform="matrix(0.000976563, 0.0476379, -0.24025, 0.000289917, -54, 45.1)" spreadMethod ="pad" x1="-819.2" y1="0" x2="819.2" y2="0" >
<stop  offset="0" style="stop-color:#48C2EB;stop-opacity:1" />
<stop  offset="1" style="stop-color:#005F94;stop-opacity:1" />
</linearGradient>
<path style="fill:url(#LinearGradID_876) " d="M105.9,4.7Q111.8 6.2 111.8 13.3L111.8 74.35L111.8 77.45Q111.75 78.7 110.3 80.55Q108.8 82.35 105.55 82.6L72.65 82.65L72.65 82.7L14.2 82.75Q6.4 82.75 5 77.1L4.8 76.05L4.65 74.35L4.65 13.3Q4.65 4.55 14.2 4.55L105.35 4.55L105.9 4.7" />
</g>
</svg>
