<?xml version="1.0" encoding="utf-8"?>
<svg version="1.1" id="Layer_1"
xmlns="http://www.w3.org/2000/svg"
xmlns:xlink="http://www.w3.org/1999/xlink"
xmlns:author="http://www.sothink.com"
width="633px" height="144px"
xml:space="preserve">
<g id="159" transform="matrix(1, 0, 0, 1, 112.6, -189.55)">
<path style="fill:#560601;fill-opacity:1" d="M416.95,216.8L416.55 217.2Q416.15 217.4 415.75 217.75L415.05 218.25L430.15 216.4Q440 215.8 455.8 224.6Q471.65 233.45 480.35 250.05Q489.2 266.6 487.1 289.45Q484.95 312.05 463.7 325.5Q459.55 327.95 455.6 329.45Q460.75 328.7 465.6 327.35Q467.35 326.8 469.15 325.9Q495.15 315.6 508.4 289.75Q521.4 264.7 509.5 239.3L509.5 239.2Q505 229.45 498.95 221.9Q484.55 203.85 461.95 197.1L455.6 195.8L448.8 195.4Q435.65 201.6 422.85 212Q420.3 214.35 417.35 216.55L416.95 216.8M402.2,303.75L409.9 310.85Q422.45 320.9 435.5 325.25L438.65 326.15Q448.5 328.55 455.4 324.65Q433.45 323.4 411.8 303.75L411.25 303.25L410.2 302.25L418.1 302.25L419.95 303.75Q428.55 310.65 436.45 314.35L436.3 314.35Q446.85 319.25 461.05 320.6L463.5 319.25Q474.1 312 478.5 299.5Q490.55 265.05 466.55 241.55Q443 218.3 422.6 223.05L412.55 224.35Q409.3 223.35 408.45 222.65Q406.7 221 413.35 213.35Q419.95 205.75 431.9 197.5Q443.8 189.3 446.3 190.05Q457.95 188.05 472.8 194.2Q486.85 200.85 493.95 207.95Q500.95 215.1 506.55 222.7Q510.25 227.6 512.55 233.8L515.55 240.3L515.6 240.7L515.75 240.9Q519.6 251.25 519.6 259.55Q519.9 281.4 510.5 296.8Q501.25 312.05 485.3 323.6Q473.35 332.35 458.25 333.2Q454.1 333.45 449.85 333.2L449.7 333.2L447.95 333Q441.3 332.85 425.85 326.25Q410.6 318.85 394.15 303.75L393.45 303.1L392.6 302.25L400.7 302.25L402.2 303.75M-4.3,303.25L-4.85 303.75Q-26.5 323.4 -48.4 324.65Q-41.55 328.55 -31.6 326.15L-28.65 325.25Q-15.55 320.9 -2.95 310.85L4.7 303.75L6.2 302.25L14.5 302.25L13.6 303.1L12.9 303.75Q-3.5 318.85 -18.85 326.25L-19 326.25Q-34.35 332.85 -41 333L-42.75 333.2Q-47.2 333.45 -51.2 333.2Q-66.4 332.35 -78.35 323.6Q-94.35 312.05 -103.5 296.8Q-112.95 281.4 -112.6 259.55Q-112.6 251.25 -108.75 240.9L-108.75 240.7L-108.6 240.3Q-106.5 235.15 -103.8 230.45L-103.85 230.45Q-101.05 225.25 -97.45 220.9Q-83.45 203.55 -67.3 196.3Q-62.75 194.15 -57.5 192.65L-54.45 191.85L-54.45 191.8L-45.95 189.95L-45.95 189.85L-45.5 189.85L-41.55 190.25Q-37.75 191 -36.6 191.6L-34.4 192.65L-28.2 195.7Q-21.1 199 -9.55 208.45Q0.5 216.6 0.05 222.25Q-2.2 224.55 -7.65 223.55L-21.7 223.05Q-30.4 223.2 -40.65 227.35Q-51.1 231.3 -61.45 241.4Q-71.9 251.4 -74.85 266.8Q-77.7 282.1 -71.5 299.5Q-67.15 312 -56.45 319.25L-54.1 320.6Q-40 319.25 -29.3 314.35Q-21.55 310.65 -12.95 303.75L-11.15 302.25L-3.2 302.25L-4.3 303.25M-102.55,239.2L-102.55 239.3Q-114.45 264.7 -101.45 289.75Q-88.2 315.6 -62.2 325.9L-58.65 327.35Q-53.85 328.7 -48.7 329.45Q-52.6 327.95 -56.75 325.5Q-78.05 312.05 -80.15 289.45Q-82.25 266.6 -73.4 250.05Q-64.7 233.45 -48.9 224.6Q-33.05 215.8 -23.2 216.4L-8 218.25L-8.8 217.75L-9.6 217.2L-10 216.8L-10.4 216.55L-15.95 212Q-28.7 201.6 -41.9 195.4L-48.7 195.8L-55.05 197.1Q-77.7 203.85 -92 221.9Q-98.05 229.45 -102.55 239.2" />
<path style="fill:#851111;fill-opacity:1" d="M509.5,239.2L509.5 239.3Q521.4 264.7 508.4 289.75Q495.15 315.6 469.15 325.9Q467.35 326.8 465.6 327.35L472.75 321.5Q499.05 298.55 490.4 266.95Q488.85 259 479.35 243.3Q470.2 227.8 451.8 219.75L458.95 220.9Q466.5 222.1 470.3 224.15Q472.35 226.05 475.25 227.95Q481.1 231.95 485.3 232.7L493.95 234.25Q497.35 235.3 497.95 236.7Q498.4 237.2 501.35 237.65L508.6 238.9L509.5 239.2M-101.65,238.9L-94.4 237.65Q-91.55 237.2 -91 236.7Q-90.4 235.3 -87 234.25L-78.35 232.7Q-74.15 231.95 -68.3 227.95Q-65.4 226.05 -63.35 224.15Q-59.55 222.1 -52 220.9L-44.8 219.7Q-63.3 227.8 -72.4 243.3Q-81.75 259 -83.45 266.95Q-92.1 298.55 -65.8 321.5L-58.65 327.35L-62.2 325.9Q-88.2 315.6 -101.45 289.75Q-114.45 264.7 -102.55 239.3L-102.55 239.2L-101.65 238.9" />
<path style="fill:#BB2E2E;fill-opacity:1" d="M508.6,238.9L501.35 237.65Q498.4 237.2 497.95 236.7Q497.35 235.3 493.95 234.25L485.3 232.7Q481.1 231.95 475.25 227.95Q472.35 226.05 470.3 224.15Q466.5 222.1 458.95 220.9L451.8 219.75Q470.2 227.8 479.35 243.3Q488.85 259 490.4 266.95Q499.05 298.55 472.75 321.5L465.6 327.35Q460.75 328.7 455.6 329.45Q459.55 327.95 463.7 325.5Q484.95 312.05 487.1 289.45Q489.2 266.6 480.35 250.05Q471.65 233.45 455.8 224.6Q440 215.8 430.15 216.4L415.05 218.25L415.75 217.75Q416.15 217.4 416.55 217.2L416.95 216.8L417.35 216.55Q426.25 210.2 437.05 205.8Q443.05 203 449 201.3L453.7 200Q470.5 199.7 498.95 221.9Q505 229.45 509.5 239.2L508.6 238.9M-102.55,239.2Q-98.05 229.45 -92 221.9Q-63.55 199.7 -46.8 200L-42.1 201.3Q-36.1 203 -30.15 205.8Q-19.3 210.2 -10.4 216.55L-10 216.8L-9.6 217.2L-8.8 217.75L-8 218.25L-23.2 216.4Q-33.05 215.8 -48.9 224.6Q-64.7 233.45 -73.4 250.05Q-82.25 266.6 -80.15 289.45Q-78.05 312.05 -56.75 325.5Q-52.6 327.95 -48.7 329.45Q-53.85 328.7 -58.65 327.35L-65.8 321.5Q-92.1 298.55 -83.45 266.95Q-81.75 259 -72.4 243.3Q-63.3 227.8 -44.8 219.7L-52 220.9Q-59.55 222.1 -63.35 224.15Q-65.4 226.05 -68.3 227.95Q-74.15 231.95 -78.35 232.7L-87 234.25Q-90.4 235.3 -91 236.7Q-91.55 237.2 -94.4 237.65L-101.65 238.9L-102.55 239.2" />
<path style="fill:#FF6666;fill-opacity:1" d="M453.7,200L449 201.3Q443.05 203 437.05 205.8Q426.25 210.2 417.35 216.55Q420.3 214.35 422.85 212Q435.65 201.6 448.8 195.4L455.6 195.8L461.95 197.1Q484.55 203.85 498.95 221.9Q470.5 199.7 453.7 200M-30.15,205.8Q-36.1 203 -42.1 201.3L-46.8 200Q-63.55 199.7 -92 221.9Q-77.7 203.85 -55.05 197.1L-48.7 195.8L-41.9 195.4Q-28.7 201.6 -15.95 212L-10.4 216.55Q-19.3 210.2 -30.15 205.8" />
<path style="fill:#5F1000;fill-opacity:1" d="M399.3,225.9L399.55 225.3L399.75 225.2L399.3 225.9" />
<path style="fill:#800E19;fill-opacity:1" d="M410.2,302.25L411.25 303.25L411.8 303.75Q433.45 323.4 455.4 324.65Q448.5 328.55 438.65 326.15L435.5 325.25Q422.45 320.9 409.9 310.85L402.2 303.75L400.7 302.25L410.2 302.25M6.2,302.25L4.7 303.75L-2.95 310.85Q-15.55 320.9 -28.65 325.25L-31.6 326.15Q-41.55 328.55 -48.4 324.65Q-26.5 323.4 -4.85 303.75L-4.3 303.25L-3.2 302.25L6.2 302.25" />
<path style="fill:#4E1C10;fill-opacity:1" d="M457.85,266.15Q457.25 266.35 456.85 266.6L457.05 266.2L457.85 266.15M-50.1,266.2L-49.9 266.55L-50.8 266.15L-50.1 266.2" />
</g>
</svg>
