<?xml version="1.0" encoding="utf-8"?>
<svg version="1.1" id="Layer_1"
xmlns="http://www.w3.org/2000/svg"
xmlns:xlink="http://www.w3.org/1999/xlink"
xmlns:author="http://www.sothink.com"
width="31px" height="13px"
xml:space="preserve">
<g id="1901" transform="matrix(1, 0, 0, 1, 0, 0)">
<path style="fill:#E0D8D4;fill-opacity:1" d="M17.5,8L22.8 8.45L23.15 8.5L23.45 8.45Q25.1 7.85 26.45 5.9L24 5L24.8 4L27.1 4.75Q27.95 3.05 28.25 1.55L29 1.45Q29.65 1.55 29.4 2.7L28.75 4.35L28.3 5.1L27.8 5.8L27.45 6.35Q26.15 8.05 23.3 10.2Q19.6 8.75 17.1 8.05L17.5 8M21.8,10.8Q19.15 9.65 15.55 8.85Q10.5 7.75 5.9 7.85L5.15 7L5.1 6.95L5.15 6.95Q11.9 7.35 18.35 9.2Q19.7 9.6 21.8 10.8" />
<path style="fill:#3A3634;fill-opacity:1" d="M26,1.85L25.95 1.85L20.8 2.2Q20.95 3.2 19.25 5L18.05 6.15Q16.9 7.05 15.5 7.6L17.1 8.05Q19.6 8.75 23.3 10.2Q26.15 8.05 27.45 6.35L27.8 5.8L28.3 5.1L28.75 4.35L29.4 2.7Q29.65 1.55 29 1.45L28.25 1.55L26 1.85M29.5,5.5L28.65 6.85L27.65 8.1Q26 10.1 23.75 11.75L23.1 12.2L17.25 11.2L7.6 10.5L6.4 10.65L5.9 11.25Q5.1 12.05 3.85 12.25Q2.3 12.55 1.2 11.85Q0.05 11.1 0 9.45L0 9.4L0.1 8.35Q0.35 7.15 1.4 6.65L1.95 6.15L4.55 3.8Q6.55 2.15 9.25 0.45L10.6 0.7Q16.1 1.75 26 0.6L28.4 0.3L30.4 0Q31 1.9 30.3 3.85L29.5 5.5M18.35,9.2Q11.9 7.35 5.15 6.95L5.1 6.95L5.15 7L5.9 7.85L6.2 8.35L6.5 9.1L7.7 9L15 9.55Q19.5 10.15 22.2 11L21.8 10.8Q19.7 9.6 18.35 9.2M6.25,4.2L4.1 5.95L12.65 6.95L13.8 7.2L13.85 7.2Q15.45 6.7 16.75 5.75L18.4 4.2L19.6 2.15Q16.15 2.5 13 2.05Q9.8 1.55 8.2 2.7Q7 3.55 6.5 3.95L6.25 4.2M1.45,10.5L2.35 11.25Q2.9 11.45 4 11.25Q5.1 11 5.1 9.8L4.9 8.75L4.35 7.95Q3.6 7.3 2.4 7.6Q1.2 7.85 1.15 8.9Q1.1 9.6 1.3 10.1L1.45 10.5" />
<path style="fill:#ACA49F;fill-opacity:1" d="M25.95,1.85L26 1.85L28.25 1.55Q27.95 3.05 27.1 4.75L24.8 4L25.95 1.85M24,5L26.45 5.9Q25.1 7.85 23.45 8.45L23.15 8.5L22.8 8.45L17.5 8L17.1 8.05L15.5 7.6Q16.9 7.05 18.05 6.15Q19.9 6.7 21.2 7.4L23.4 5.6L24 5M2.35,10.2L1.3 10.1Q1.1 9.6 1.15 8.9Q1.2 7.85 2.4 7.6Q3.6 7.3 4.35 7.95L4.9 8.75Q4.25 10.2 2.35 10.2" />
<path style="fill:#938D89;fill-opacity:1" d="M24.8,4L24 5L23.4 5.6L21.2 7.4Q19.9 6.7 18.05 6.15L19.25 5Q20.95 3.2 20.8 2.2L25.95 1.85L24.8 4M15.55,8.85Q19.15 9.65 21.8 10.8L22.2 11Q19.5 10.15 15 9.55L7.7 9L6.5 9.1L6.2 8.35L5.9 7.85Q10.5 7.75 15.55 8.85" />
<path style="fill:#5D544E;fill-opacity:1" d="M13.55,5L6.5 3.95Q7 3.55 8.2 2.7Q9.8 1.55 13 2.05Q16.15 2.5 19.6 2.15L18.4 4.2L16.75 5.75L13.55 5" />
<path style="fill:#766D67;fill-opacity:1" d="M6.5,3.95L13.55 5L16.75 5.75Q15.45 6.7 13.85 7.2L13.8 7.2L12.65 6.95L4.1 5.95L6.25 4.2L6.5 3.95M1.3,10.1L2.35 10.2Q4.25 10.2 4.9 8.75L5.1 9.8Q5.1 11 4 11.25Q2.9 11.45 2.35 11.25L1.45 10.5L1.3 10.1" />
</g>
</svg>
