<?xml version="1.0" encoding="utf-8"?>
<svg version="1.1" id="Layer_1"
xmlns="http://www.w3.org/2000/svg"
xmlns:xlink="http://www.w3.org/1999/xlink"
xmlns:author="http://www.sothink.com"
width="28px" height="20px"
xml:space="preserve">
<g id="1159" transform="matrix(1, 0, 0, 1, -107.6, -106)">
<path style="fill:#302B4A;fill-opacity:1" d="M114.4,118.95L109.25 119.25L110.85 121.2L112.15 122.5L112.25 122.6L112.7 122.8L112.75 122.8L113.35 123.3Q114.95 124.05 116.55 124L124.8 124.3L127.3 124.15L127.45 123.75L127.5 123.45L127.7 122.05L127.5 118.85L127.45 118.5L127.45 118.35L127.5 117.95L127.55 117.4L127.95 115.1Q128.55 112.35 131.3 112.4L134.55 112.65L134.8 112.65L134.55 113.25Q134.2 113.75 133.2 113.45L131 113.35L130 113.6Q128.7 114.65 128.45 116.85Q128.35 119.25 128.55 120.15L128.7 121.25L129.05 122.55L129.05 124.65L127.75 125.55L125.9 125.55L123.2 125.2L117.85 125.55L114.05 125.15L111.4 123.55L109.65 121.95L108.35 120.7L108.1 120.25Q107.65 119.6 107.7 119.35Q107.5 118.9 107.7 118.7L108.1 118.45L108.15 118.4Q108.4 118.15 109.95 118L113.35 117.85Q115.3 117.8 117.45 118.6Q118 118.7 118.45 118.95L120.45 119.25Q121.45 119.05 122.35 118.25Q123.2 117.45 123.5 116.15Q123.85 114.8 123.65 113.6Q123.6 112.4 123.85 111Q123.95 109.6 124.45 108.65L125.1 107.5Q125.15 107.4 125.9 106.85L126 106.85Q126.55 106.5 127.45 106.2L130.55 106.25L132.15 107.05L132.4 107.5Q132.8 107.95 132.55 107.95L132.05 107.85L130.45 107.2L130.05 107.25Q129.05 107.05 128.05 107.25L127.2 107.4L126.2 107.85L126.05 108.45L125.95 108.8Q125.5 110.1 125 112.15L124.7 114.25L124.65 116.1Q124.5 117.6 123.7 118.9L123.05 119.6L121.9 120.2L121.4 120.35L121.35 120.35L121.35 120.4L118.15 119.85L114.4 118.95" />
<path style="fill:#9C89C2;fill-opacity:1" d="M132.05,107.85L132.55 107.95L133.6 109.3Q134.9 111.3 134.55 112.65L131.3 112.4Q128.55 112.35 127.95 115.1L127.55 117.4Q127.65 115.65 127.85 114.95Q128.5 112.65 130.3 111.9Q132.2 111.1 132.7 111.1L132.35 110.3Q131.8 108.65 130.45 107.2L132.05 107.85M118.15,119.85L115.05 119.7Q112.2 119.7 111.7 120.2Q111.15 120.75 111.4 121.45L111.5 121.6L112.15 122.5L110.85 121.2L109.25 119.25L114.4 118.95L118.15 119.85" />
<path style="fill:#7A61AA;fill-opacity:1" d="M127.5,117.95L127.45 118.35L127.45 118.5L127.5 118.85L126.95 120.25L126.8 120.5Q125.8 122.95 123.45 122.9L123 122.8L122.95 122.75L122.85 122.75L122.05 122.75L118.95 122.75L116.35 123.05L115.65 123.2L113.35 123.3L112.75 122.8L112.7 122.8L112.25 122.6L112.15 122.5L111.5 121.6L111.4 121.45Q111.15 120.75 111.7 120.2Q112.2 119.7 115.05 119.7L118.15 119.85L121.35 120.4L121.35 120.35L121.4 120.35L121.9 120.2L122.75 120.35Q123.9 120.5 124.75 119.75Q125.6 119.2 125.65 118.5L125.75 118.65L125.7 118.15L125.6 116.65L125.6 114.5L125.95 112.15L126 112.1L126 110.55L126.1 109.95Q126.25 109.2 126.75 108.3L127.2 107.4L128.05 107.25Q129.05 107.05 130.05 107.25L130.45 107.2Q131.8 108.65 132.35 110.3L132.7 111.1Q132.2 111.1 130.3 111.9Q128.5 112.65 127.85 114.95Q127.65 115.65 127.55 117.4L127.5 117.95" />
<path style="fill:#524591;fill-opacity:1" d="M127.2,107.4L126.75 108.3Q126.25 109.2 126.1 109.95L126 110.55L126 112.1L125.95 112.15L125.6 114.5L125.6 116.65L125.7 118.15L125.75 118.65L125.65 118.5Q125.6 119.2 124.75 119.75Q123.9 120.5 122.75 120.35L121.9 120.2L123.05 119.6L123.7 118.9Q124.5 117.6 124.65 116.1L124.7 114.25L125 112.15Q125.5 110.1 125.95 108.8L126.05 108.45L126.2 107.85L127.2 107.4M113.35,123.3L115.65 123.2L116.35 123.05L118.95 122.75L122.05 122.75L122.85 122.75L122.95 122.75L123 122.8L123.45 122.9Q125.8 122.95 126.8 120.5L126.95 120.25L127.5 118.85L127.7 122.05L127.5 123.45L127.45 123.75L127.3 124.15L124.8 124.3L116.55 124Q114.95 124.05 113.35 123.3" />
</g>
</svg>
