<?xml version="1.0" encoding="utf-8"?>
<svg version="1.1" id="Layer_1"
xmlns="http://www.w3.org/2000/svg"
xmlns:xlink="http://www.w3.org/1999/xlink"
xmlns:author="http://www.sothink.com"
width="10px" height="6px"
xml:space="preserve">
<g id="1166" transform="matrix(1, 0, 0, 1, 0, 0)">
<path style="fill:#543914;fill-opacity:1" d="M8.8,5L7.75 5.35L3.55 5.55L0.5 5Q-0.4 4.55 0.25 2.1Q0.85 -0.4 4.3 0.1Q5.4 0.4 6.95 1.2Q7.5 1.45 7.95 1.9L6.6 2.15L5.8 1.75Q3.7 0.8 2.45 1.1Q1.15 1.35 1.2 2.55Q1.2 3.7 1.45 4L3.1 4.4L5.55 4.5L8.8 5" />
<path style="fill:#C4944D;fill-opacity:1" d="M4.45,2.3L4.3 2.5L4.25 3L3.5 3L3.1 2.8L3 3.25Q3 3.8 5.15 4.4L5.55 4.5L3.1 4.4L1.45 4Q1.2 3.7 1.2 2.55Q1.15 1.35 2.45 1.1Q3.7 0.8 5.8 1.75L6.6 2.15L4.45 2.3" />
<path style="fill:#E9CB9E;fill-opacity:1" d="M5.55,4.5L5.15 4.4Q3 3.8 3 3.25L3.1 2.8L3.5 3L4.25 3L4.3 2.5L4.45 2.3L6.6 2.15Q7.95 2.95 8.35 4.1L6.35 4.45L5.55 4.5" />
<path style="fill:#876430;fill-opacity:1" d="M8.8,5L5.55 4.5L6.35 4.45L8.35 4.1Q7.95 2.95 6.6 2.15L7.95 1.9Q8.7 2.55 9.1 3.5Q9.55 4.5 8.8 5" />
</g>
</svg>
