<?xml version="1.0" encoding="utf-8"?>
<svg version="1.1" id="Layer_1"
xmlns="http://www.w3.org/2000/svg"
xmlns:xlink="http://www.w3.org/1999/xlink"
xmlns:author="http://www.sothink.com"
width="61px" height="46px"
xml:space="preserve">
<g id="1331" transform="matrix(1, 0, 0, 1, 0, 0)">
<path style="fill:#544F45;fill-opacity:1" d="M53.75,33.6L53.75 33.55L53.8 33.6L53.75 33.6" />
<path style="fill:#596770;fill-opacity:1" d="M59.2,23.4L58.5 22Q57.95 20.2 57.25 19.65Q53.4 16.65 51.65 15.8Q50.65 15.35 49.5 15.2L52.85 14.35Q53.3 14.15 54.3 15.05L56.6 17.25L59.45 20.2Q59.75 21.85 59.2 23.4M50.8,25.45Q50.15 23.15 48.5 21.4L47.9 20.4L49.55 20.4L49.65 20.3Q49.85 19.2 48.75 18.85L48.5 18.8L47.65 19.6L47.6 19.45Q47.4 18.15 47 17.65L44.9 16.55L44.2 16.2L41.75 16.3L41.6 15.35Q41.6 15.05 41.75 14.85L39.35 13.25Q38.1 12.2 37.4 11.1Q34.8 9.1 29.8 4.5Q28.7 3.45 26.45 3L26.25 3.55Q25.95 3.95 25.5 3.95Q23.8 4 23.9 2.7L22.1 2.65L19.4 3.05L16.1 3.4L15.95 3.4Q17.6 2.1 19.7 1.35Q24.95 0.75 29.25 1.5L33.6 5.4L33.75 5.55Q37.1 8.75 41.55 12.05L46 14.9L46.8 15.25L48.3 15.75Q48.95 16.25 50.05 17.7L51.85 20.15L53 22.25L52.75 26.45Q52.55 27.5 51.55 29.3L50.8 25.45M26.85,19.9L33.85 22.7L39.8 24.9L40.45 25.1L38.6 25.15Q36.9 25.15 34.3 24.15L30.75 22.65Q29.15 22.1 28.25 21.35L26.85 19.9" />
<path style="fill:#19242A;fill-opacity:1" d="M59.45,20.2L56.6 17.25L54.3 15.05Q53.3 14.15 52.85 14.35L49.5 15.2L50.55 16.45L52.65 19.25L53.8 21.45L53.9 22.15Q54.2 24.3 53.9 26.85Q56.15 26.35 58.3 25.3L58.75 24.55L59.2 23.45L59.2 23.4Q59.75 21.85 59.45 20.2M14.8,4.4Q13.65 5.5 12.8 6.9L16.7 8.8Q19.5 10.1 23.8 11.1L27.3 11.95L28.5 12.35L27.95 12.6Q26.3 12.95 22.2 11.85Q17.15 10.45 12.2 7.85L6.9 5.05L5.6 4.35L2.05 4.25L1.65 5.2Q1.1 6.7 1.15 8.3L1.25 9.4Q1.35 10 1.7 10.6Q3.25 10.9 4.5 11.85L7.55 14.5Q12 20 14.8 24.25L16.2 26.45Q18.05 25.35 19.15 23.8Q20.2 22.35 20.6 20.5L20.9 19L21.05 18.2L21.15 17.8L21.35 16.5Q21.6 16.45 21.75 17.15L21.8 17.65L21.85 17.95L21.85 18.05L21.85 18.85L21.05 22.5L20.05 24.5Q18.95 26 16.95 27.1Q18.85 28.35 21.55 31.65Q24.2 34.9 24.85 37.55L28.95 41.15L33.9 40.4L37.9 39.6L43.05 38.35L43.1 38.35L45.35 37.85L45.5 37.6Q49.15 33.05 50.8 30.5L51.55 29.3Q52.55 27.5 52.75 26.45L53 22.25L51.85 20.15L50.05 17.7Q48.95 16.25 48.3 15.75L46.8 15.25L46 14.9L41.55 12.05Q37.1 8.75 33.75 5.55L33.6 5.4L29.25 1.5Q24.95 0.75 19.7 1.35Q17.6 2.1 15.95 3.4L14.8 4.4M48.45,14.65L51.35 13.5Q52.35 13.05 53.3 13.15Q54.2 13.25 55.55 14.5L58.75 17.7L60.6 19.75Q60.9 21.6 60.4 23.8L60.2 24.45L60.15 24.55L59.2 26.25Q58.1 26.85 56.65 27.25L53.55 28L53.1 28.8L55.4 32.4L55.65 33.05L55.7 33.05L55.65 33.15L55.5 33.45L53.1 38.2L51.95 40.15L50.9 41.7Q48.6 42.75 43.5 42.4L41.55 44.1Q40.05 45.25 37.95 45.65L34.35 45.75Q32.3 45.95 30.35 44.8L27.95 43.3L27.25 42.65Q26.95 42.3 27.05 41.45L23.6 38.4Q22.75 35.45 20.55 32.55L17.8 29.5L15.35 27.05L13.75 24.85L12.85 23.45Q11.1 20.65 8.8 18.05L6.1 14.85Q5.65 14.25 4.5 13.3Q3.3 12.3 0.9 11.55Q-0.05 9.55 0 7.7Q-0.05 5.9 0.8 4.3L1.3 3.5Q1.7 3.2 2 3.2L5.45 3.4L5.8 3.4Q5.95 3.4 6.95 3.9L12 6.45Q13.1 4.85 14.1 3.75L14.35 3.45L16.15 1.8Q17.9 0.6 18.6 0.4L22.8 0.05L27.9 0Q29.45 0.05 30.1 0.55L33.1 3.5L33.25 3.6Q35.6 5.95 39.6 8.85L45.5 13.15Q47.3 14.5 48.45 14.65M51.75,30.6L50.95 32.05L49.75 34L47.15 37.5L46.1 38.7L45 39.05L44.75 39.15L43.05 39.65L43.15 40.3L43.65 41.15L50 40.65L50.4 40.15L51.55 38.5L52.75 36.5L54 33.85L54.2 32.9L53.9 32.2L52.8 30.55L52.2 29.75L51.75 30.6M39.8,24.9L33.85 22.7L26.85 19.9L26.25 19.65L25.75 19.45Q22.6 18.1 23.75 18.3L24.9 18.55L26.05 18.85Q28.95 19.55 31.8 20.55L31.3 18.55Q30.9 16.55 31.45 15.3L36.15 11.35Q36.5 11.05 36.65 11.5Q35.25 14.25 32.3 15.65Q32.25 17.85 32.55 19.4L32.9 20.95Q37.5 22.65 41.15 24.95L41.9 25.45L40.45 25.1L39.8 24.9M41.75,39.9L34.75 41.3L33.45 41.5L29.45 42.2Q28.7 42.35 28.85 42.55L30.05 43.35Q31.05 44 33.05 44.55L34.8 44.7L38.05 44.45Q39.7 43.95 40.6 43.3L42.15 41.95L41.95 40.9L41.75 39.9" />
<path style="fill:#4A5762;fill-opacity:1" d="M51.65,15.8Q53.4 16.65 57.25 19.65Q57.95 20.2 58.5 22L59.2 23.4L59.2 23.45L58.75 24.55L58.3 25.3Q56.15 26.35 53.9 26.85Q54.2 24.3 53.9 22.15L53.8 21.45L52.65 19.25L50.55 16.45L49.5 15.2Q50.65 15.35 51.65 15.8M33.05,39.05Q31.8 36.6 30 36.15Q27.45 35.45 25.45 32.5Q24.3 33.05 23.65 32L23.65 31.8Q23.6 30.9 24.3 30.65Q21.85 26.95 21.25 25.65L20.05 24.5L21.05 22.5L21.85 18.85L21.85 18.05L21.85 17.95L21.8 17.65L21.75 17.15Q21.6 16.45 21.35 16.5L21.15 17.8L21.05 18.2L20.9 19L17.55 22.2L17.5 22.15L16.9 21L14.45 20.9L14.4 20.75Q14.3 19.3 15.45 19.1Q13.5 16.85 9.8 13.95Q5.6 10.65 1.15 8.3Q1.1 6.7 1.65 5.2L2.05 4.25L5.6 4.35L6.9 5.05L12.2 7.85Q17.15 10.45 22.2 11.85Q26.3 12.95 27.95 12.6L28.5 12.35L27.3 11.95L23.8 11.1Q19.5 10.1 16.7 8.8L12.8 6.9Q13.65 5.5 14.8 4.4L15.95 3.4L16.1 3.4L19.4 3.05L22.1 2.65L23.9 2.7Q23.8 4 25.5 3.95Q25.95 3.95 26.25 3.55L26.45 3Q28.7 3.45 29.8 4.5Q34.8 9.1 37.4 11.1Q38.1 12.2 39.35 13.25L41.75 14.85Q41.6 15.05 41.6 15.35L41.75 16.3L44.2 16.2L44.9 16.55L47 17.65Q47.4 18.15 47.6 19.45L47.65 19.6L48.5 18.8L48.75 18.85Q49.85 19.2 49.65 20.3L49.55 20.4L47.9 20.4L48.5 21.4Q50.15 23.15 50.8 25.45L51.55 29.3L50.8 30.5Q49.15 33.05 45.5 37.6L45.35 37.85L43.1 38.35L43.05 38.35L37.9 39.6L33.9 40.4L33.05 39.05M52.2,29.75L52.8 30.55L53.9 32.2L54.2 32.9L54 33.85L52.75 36.5L51.55 38.5L50.4 40.15L50 40.65L43.65 41.15L43.15 40.3L43.05 39.65L44.75 39.15L45 39.05L46.1 38.7L47.15 37.5L49.75 34L50.95 32.05L51.75 30.6L52.2 29.75M53.8,33.6L53.75 33.55L53.75 33.6L53.8 33.6M28.25,21.35Q29.15 22.1 30.75 22.65L34.3 24.15Q36.9 25.15 38.6 25.15L40.45 25.1L41.9 25.45L41.15 24.95Q37.5 22.65 32.9 20.95L32.55 19.4Q32.25 17.85 32.3 15.65Q35.25 14.25 36.65 11.5Q36.5 11.05 36.15 11.35L31.45 15.3Q30.9 16.55 31.3 18.55L31.8 20.55Q28.95 19.55 26.05 18.85L24.9 18.55L23.75 18.3Q22.6 18.1 25.75 19.45L26.25 19.65L26.85 19.9L28.25 21.35M34.5,43.4L34.85 43.35L35.05 43.4L34.65 42.85L34.65 42.7Q35.25 41.4 36.75 41.55Q37.4 41.6 37.4 42.3L37.4 42.6L39.15 42L41.95 40.9L42.15 41.95L40.6 43.3Q39.7 43.95 38.05 44.45L34.8 44.7Q34.45 44.2 34.5 43.4M31.35,33.55L31 33.4Q28.3 36.45 32.35 35.65L32.45 35.55Q32.65 34.15 31.35 33.55" />
<path style="fill:#38434D;fill-opacity:1" d="M33.9,40.4L28.95 41.15L24.85 37.55Q24.2 34.9 21.55 31.65Q18.85 28.35 16.95 27.1Q18.95 26 20.05 24.5L21.25 25.65Q21.85 26.95 24.3 30.65Q23.6 30.9 23.65 31.8L23.65 32Q24.3 33.05 25.45 32.5Q27.45 35.45 30 36.15Q31.8 36.6 33.05 39.05L33.9 40.4M20.9,19L20.6 20.5Q20.2 22.35 19.15 23.8Q18.05 25.35 16.2 26.45L14.8 24.25Q12 20 7.55 14.5L4.5 11.85Q3.25 10.9 1.7 10.6Q1.35 10 1.25 9.4L1.15 8.3Q5.6 10.65 9.8 13.95Q13.5 16.85 15.45 19.1Q14.3 19.3 14.4 20.75L14.45 20.9L16.9 21L17.5 22.15L17.55 22.2L20.9 19M34.8,44.7L33.05 44.55Q31.05 44 30.05 43.35L28.85 42.55Q28.7 42.35 29.45 42.2L33.45 41.5L34.75 41.3L41.75 39.9L41.95 40.9L39.15 42L37.4 42.6L37.4 42.3Q37.4 41.6 36.75 41.55Q35.25 41.4 34.65 42.7L34.65 42.85L35.05 43.4L34.85 43.35L34.5 43.4Q34.45 44.2 34.8 44.7M32.45,35.55L32.35 35.65Q28.3 36.45 31 33.4L31.35 33.55Q32.65 34.15 32.45 35.55" />
</g>
</svg>
