<?xml version="1.0" encoding="utf-8"?>
<svg version="1.1" id="Layer_1"
xmlns="http://www.w3.org/2000/svg"
xmlns:xlink="http://www.w3.org/1999/xlink"
xmlns:author="http://www.sothink.com"
width="13px" height="23px"
xml:space="preserve">
<g id="1633" transform="matrix(1, 0, 0, 1, 0, 0)">
<path style="fill:#3F94BB;fill-opacity:0.701961" d="M11.6,8.25L11.55 8.25L11.5 8.2L10.2 5.4L10.5 4.75L11 5.65L12.05 7.95L11.6 8.25M11.85,15.95Q11.15 16.9 11.6 17.6Q11.1 19.8 11.05 22.2L10.55 22.9L9.9 22.85L8.05 22.8L7.95 22.75L6.15 21.25L5.55 20.75L3.95 18.35L8.6 20.2L5.95 16.5L5.45 13.4L8.75 16.75L9.95 18.5L10 18.15L9.9 17.4L10.1 17.25L10.35 15.6Q9.25 14.75 10.2 13.55L10.65 13.85L11.35 9.05L11.95 9.3L12.1 9.45L12.05 9.3L12.7 9.55Q13.2 11.25 12.65 12.55L12.45 12.45L12 16.05L11.85 15.95" />
<path style="fill:#D0FCFC;fill-opacity:0.901961" d="M3.9,12.4Q3.45 12 3.35 11.5L2.25 11.55L2.25 12.6L0.25 12.85L0 12.45L2 0L9.15 2.5L10.5 4.75L10.2 5.4L9.75 6.25L9.1 5.55L7.4 10.2L6.75 10.2L8 14.5L6.6 12.05L6.35 12.05L5.45 10.5L5.6 10.5L6.25 10.4L8.6 5.7L9.2 4.45L8.15 3.5L3 1.9L2 7.7Q1.8 8.15 1.85 8.7L1.45 10.95L2.9 10.85L3.6 11.3Q4.3 11.55 4.45 11.1Q5.35 11.15 5.7 12.2L3.9 12.4" />
<path style="fill:#8CCFEC;fill-opacity:0.501961" d="M11.5,8.2L11.55 8.25L11.6 8.25L12.05 7.95L12.5 9.05L12.7 9.55L12.05 9.3L11.95 9.3L11.35 9.05L10.65 13.85L10.2 13.55Q9.25 14.75 10.35 15.6L10.1 17.25L9.9 17.4L10 18.15L9.95 18.5L8.75 16.75L5.45 13.4L5.95 16.5L8.6 20.2L3.95 18.35L3.15 17.15L3.2 17.15L3.85 17.25L2.25 13.9L2.25 12.6L2.25 11.55L3.35 11.5Q3.45 12 3.9 12.4L5 13L5.45 13.1L5.5 13.15L5.85 13.2L5.9 12.95L5.8 12.4L5.7 12.2Q5.35 11.15 4.45 11.1L3.8 11.2L3.8 11.15L3.8 10.8L4.25 9.65L4.25 9.6L4.95 9.65L5.45 10.5L6.35 12.05L6.6 12.05L8 14.5L6.75 10.2L7.4 10.2L9.1 5.55L9.75 6.25L11.5 8.2" />
<path style="fill:#9CEAF6;fill-opacity:0.501961" d="M9.75,6.25L10.2 5.4L11.5 8.2L9.75 6.25M2.25,12.6L2.25 13.9L3.85 17.25L3.2 17.15L0.25 12.85L2.25 12.6M12.05,9.3L12.1 9.45L11.95 9.3L12.05 9.3M7.35,5.2Q7.9 3.65 5.75 3.1Q4.95 4.25 7.05 5.25L7.35 5.2M5.45,10.5L4.95 9.65L4.25 9.6L4.25 9.65Q3.65 8.05 2.2 7.3L2 7.7L3 1.9L8.15 3.5L9.2 4.45L8.6 5.7L8.5 5.2Q7.25 6.05 6.35 7.15L5.55 8.35Q5.15 8.15 4.85 8.5Q5.15 9.6 5.6 10.5L5.45 10.5M4.2,3.7Q3.65 3.95 3.25 4.45Q3.45 6.15 5.15 6.3L5.2 6.25L5.25 5.5Q5.2 4.45 4.35 3.8L4.2 3.7M5.7,12.2L5.8 12.4L5.5 13.15L5.45 13.1L5.05 12.85L5 13L3.9 12.4L5.7 12.2M2.9,10.85L1.45 10.95L1.85 8.7Q1.85 9.65 2.8 10.75L2.9 10.85" />
<path style="fill:#879FBB;fill-opacity:1" d="M7.05,5.25Q4.95 4.25 5.75 3.1Q7.9 3.65 7.35 5.2L7.05 5.25" />
<path style="fill:#62B3C4;fill-opacity:1" d="M6.25,10.4L5.6 10.5Q5.15 9.6 4.85 8.5Q5.15 8.15 5.55 8.35L6.35 7.15Q7.25 6.05 8.5 5.2L8.6 5.7L6.25 10.4" />
<path style="fill:#CBFFFF;fill-opacity:0.74902" d="M4.35,3.8Q5.2 4.45 5.25 5.5L5.2 6.25L5.15 6.3Q3.45 6.15 3.25 4.45Q3.65 3.95 4.2 3.7L4.35 3.8M5.45,13.1L5 13L5.05 12.85L5.45 13.1" />
<path style="fill:#62B3C4;fill-opacity:0.701961" d="M2.8,10.75Q1.85 9.65 1.85 8.7Q1.8 8.15 2 7.7L2.2 7.3Q3.65 8.05 4.25 9.65L3.8 10.8L3.8 11.15L3.8 11.2L4.45 11.1Q4.3 11.55 3.6 11.3L2.9 10.85L2.8 10.75" />
<path style="fill:#CBFFFF;fill-opacity:1" d="M12,16.05L11.7 17.2L11.6 17.6Q11.15 16.9 11.85 15.95L12 16.05" />
</g>
</svg>
