<?xml version="1.0" encoding="utf-8"?>
<svg version="1.1" id="Layer_1"
xmlns="http://www.w3.org/2000/svg"
xmlns:xlink="http://www.w3.org/1999/xlink"
xmlns:author="http://www.sothink.com"
width="24px" height="102px"
xml:space="preserve">
<g id="1687" transform="matrix(1, 0, 0, 1, 1.85, 16.45)">
<path style="fill:#FFFFFF;fill-opacity:1" d="M19.55,-2.3L19.55 -2.55L20.45 -0.7L20.8 0.5L20.35 1.7L19.7 3.25L19.7 3.5L19.25 -1.3L19.55 -2.3M12.4,-2.05Q12.25 -1.15 12.25 0L11.8 -2L11.35 -3.45L11.5 -4.05L11.6 -3.95Q12 -3.45 12.4 -3.3L12.4 -2.05M9.2,-15.45L9.55 -15.2Q9.75 -14.95 9.75 -12.65L9.6 -7.65L9.1 -10.9L8.15 -14.7L7.6 -14.05L7.7 -15.65Q7.8 -15.45 8.05 -15.45L8.85 -16.45Q8.85 -16.2 9 -16.2L9 -14.7L9.2 -14.7L9.2 -15.45M1.7,4.8L2.95 5.55Q2.15 7.15 2.2 8L1.7 4.8M4.9,25L6 25Q5.65 26.45 5.65 27.25L5.65 27.05L4.95 25.7L4.85 25.35L4.9 25M2.2,25.2L2.25 30.95Q2.2 29.75 1.8 28.8Q1.35 27.8 1.35 27.05Q1.35 26.7 2.2 25.2M4.25,32.4L5.1 32.35L4.75 34.1L4.3 32.9L4.15 32.4L4.25 32.4M12.4,31.85L12.6 33.75L12.25 34.1Q11.85 34.45 11.85 35.15L11.85 35.3L11.7 33.6L11.55 32.3L12.4 31.85M13.1,43.7L11 47.25Q13.1 41.25 13.1 39.75L13.1 43.7M14.2,36.15L14.55 36.15L14.9 39.95L14.2 39.95L14.2 36.15M21.85,54.1L21.3 55.35L21.15 55.6L21.15 51.35L21.85 54.1M18.3,59.65L17.6 60.9Q16.85 62.3 16.85 63.4L16.85 63.2L17.2 59.45Q17.3 58.35 17.65 57.65L18.3 59.65M11,75.6L10.55 74.3L10.1 73.55L10.25 73.3L11 73.75L11.7 74.3L11 75.6M11.15,81.65Q10.55 81.9 9.55 83.8L9.1 84.7L9.7 82.6L10.1 80.4L9.75 79.65L9.65 79.5L10 79.2L10.8 78.6L11 81.65L11.15 81.65M-1.5,21.1Q-1.2 21.8 -0.8 21.75L-1.25 23.8L-1.5 26.05L-1.5 25.75Q-1.5 24.5 -1.85 21.45L-1.85 20.2L-1.7 20.15L-1.5 21.1" />
</g>
</svg>
