<?xml version="1.0" encoding="utf-8"?>
<svg version="1.1" id="Layer_1"
xmlns="http://www.w3.org/2000/svg"
xmlns:xlink="http://www.w3.org/1999/xlink"
xmlns:author="http://www.sothink.com"
width="20px" height="26px"
xml:space="preserve">
<g id="2704" transform="matrix(1, 0, 0, 1, -32.65, 6.45)">
<path style="fill:#FFFFFF;fill-opacity:1" d="M34.05,-0.2L34.75 0.2L36 0.15Q37.65 -0.4 38.45 0.7L38.45 0.75L36.65 0.65Q36.4 1.15 36.65 1.35L36.65 1.45Q34.6 2.35 32.7 1L32.75 0.95Q32.6 0.65 32.75 0.35L33.3 -0.15L34 -1.9Q33.75 -3.65 35.75 -4.75Q36.15 -5.2 36.8 -5.35L38.05 -5.65Q39.35 -5.85 40.2 -5.25Q43.4 -5.2 45.8 -6.2Q48.15 -7.2 49.6 -4.35L51.45 -1.05Q50.95 3.05 48.25 5.1L48.25 5.15L48.3 5.1L48.65 4.95L49.3 5.3L49.25 5.2Q50.6 6.1 50.35 7.75L50.3 7.85Q50.7 8.95 51.45 9.9L51.4 9.95Q50.55 9.75 50.2 9.25L49.2 8.4Q47.9 8.05 47.3 6.95L46.6 7.2Q46.1 7.6 45 8L44.5 8.2L43.85 8.2Q42.05 9.05 42.55 6.75L41.9 5.5Q41.2 4.55 41.75 4.15Q41.1 4.65 44.15 5.65L44.55 5.55Q44.05 4.85 44.1 3.8L44 2.9L43.9 2.8L43.9 2.75L43.75 2.45Q41.9 2.85 41.5 1.75L41.45 1.75Q41.2 1.4 41.35 1.2L41.35 1.15L41.4 1.1L41.45 1.1L41.65 1L41.9 1L42.15 1Q45.35 0.4 44.6 2.2Q44.8 2.5 44.65 2.85L44.8 3.6L46 5.45L46.7 5.35L46.95 5.2L47.95 5.25L48.2 5.15L48.1 5.15Q50.15 2.35 50.75 -1Q48.25 -6.15 46.55 -5.5Q42.2 -4.3 40.25 -4.65L36.15 -4.3L35 -2.75L34.55 -2.1Q34.65 -1.1 34.05 -0.2M49.5,6.15L49.5 5.95L49.4 6.05L49.5 6.15M44.4,2L44.45 1.95L44.45 1.85L44.25 1.85L44.4 2M48.45,6.3L48.35 6.3L48.45 6.35L48.45 6.3M41.55,14.2Q41.05 11.6 41.55 9.05Q42.45 11.35 41.65 14.15L41.55 14.2M41.8,14.9L42.1 16.8Q41.9 18.85 45.15 18.6L47.85 18.35Q50.25 18.25 50.95 17.55Q51.85 15.7 52.05 13.1Q52.15 12.05 52.6 11.35L52.15 16.9L52.05 17.05Q52.1 17.7 51.7 18.1Q50.65 19 46.1 19.2L44.7 19.25L44.6 19.25L44.45 19.35L44.05 19.25Q41.5 19.25 41.85 18.45Q41.15 17.2 41.4 15.35Q39.6 14.3 39.15 12.9Q40.35 13.45 41.1 14.35L41.5 14.65L41.8 14.9" />
</g>
</svg>
