<?xml version="1.0" encoding="utf-8"?>
<svg version="1.1" id="Layer_1"
xmlns="http://www.w3.org/2000/svg"
xmlns:xlink="http://www.w3.org/1999/xlink"
xmlns:author="http://www.sothink.com"
width="41px" height="16px"
xml:space="preserve">
<g id="2709" transform="matrix(1, 0, 0, 1, -21, -5.1)">
<path style="fill:#FFFFFF;fill-opacity:1" d="M61.2,10.7Q55.75 8.15 50.25 6.3L47.3 5.5L46.45 7.15Q47.75 10.5 47.3 11.6Q46.9 14.15 43.85 17L44.5 16.1Q42.95 17.85 40.6 18.75L38.95 19.25L33 20.35L34.2 20.05L39.65 18.5L45.45 14.6L46.55 11.15L46.1 7.7L46 7.8L45.95 7.65L46.5 6L46.75 5.6L46.9 5.25L48 5.15L48.9 5.35L50.8 5.95L56.05 7.8L59.7 9.6L61.5 10.55Q61.5 10.8 61.2 10.7M21,10.55Q21.15 7.9 23.65 8.45Q25.7 9.25 26.2 10.3Q30.45 15.2 31.35 20.6Q31.15 20.95 30.45 18.55Q29.8 16.15 27.5 13.3Q25.15 10.45 24.2 9.8Q22.95 8.3 21 10.55" />
</g>
</svg>
