<?xml version="1.0" encoding="utf-8"?>
<svg version="1.1" id="Layer_1"
xmlns="http://www.w3.org/2000/svg"
xmlns:xlink="http://www.w3.org/1999/xlink"
xmlns:author="http://www.sothink.com"
width="27px" height="12px"
xml:space="preserve">
<g id="1133" transform="matrix(1, 0, 0, 1, -30.55, 0.2)">
<path style="fill:#FFE4B1;fill-opacity:1" d="M39.7,-0.05L40.8 -0.05L41.15 -0.05L41.15 0L41.1 3.7L41.05 7.45L41.15 11.1L40.6 11.25L39.75 11.3L38.85 11.25L38.25 11.25L38.35 7.4L38.25 3.6L38.35 -0.1L38.35 -0.15L38.7 -0.1L39.05 -0.1L39.7 -0.05M33.9,-0.1L37.3 0.1L37.35 1.3L37.25 2.55L36.5 2.5L35.3 2.55L35.25 2.55L35.25 2.6L35.2 3.1L35.2 4.35L35.25 6.85L35.3 11.1L34 11.15L32.7 11.2L32.7 10.25L32.7 7.5L32.55 2.7L32.55 2.65L31.9 2.55L31.15 2.5L30.65 2.5L30.55 2L30.55 1.05L30.55 -0.05L33.9 -0.1M45.7,-0.1Q46.6 0 47.4 0.45L48.65 1.55Q49.15 2.25 49.25 3.35L49.25 3.6L49.2 3.8Q49.05 4.8 48.4 5.6L46.85 6.75L44.85 7L44.85 7.45L44.85 8.05L44.85 9.15L44.9 11L44.9 11.05L44.85 11.05L44.05 11.15L43.1 11.15L42.2 11.1L42.15 7.65L42.15 3.85L42.1 0.1L43.8 -0.2L45.7 -0.1M57,3.6L55.8 3.75L54.6 3.6L54.4 2.9L53.75 2.5L53 2.6L52.6 3.2L52.55 3.4L52.6 3.65L53 4.15L53.65 4.3L55.2 4.85L56.4 6L56.9 7.1L57 8.25L56.65 9.45L55.9 10.5L54.85 11.1L53.55 11.3L52.15 11.05L50.95 10.4L50.05 9.35Q49.75 8.75 49.8 8L49.8 7.9L51.05 7.85L52.25 7.9L52.65 8.65L53.45 8.9L54.2 8.65Q54.5 8.35 54.4 7.8L53.95 7.05L53.1 6.65L52.1 6.45L51.5 6.25L51.05 5.9Q50.3 5.2 50.1 4.35Q49.85 3.5 50.05 2.7Q50.25 1.9 50.8 1.25Q51.3 0.6 52.1 0.25L53.25 0L54.5 0.1L55.65 0.45Q56.4 0.85 56.8 1.65Q57.2 2.4 57 3.6M46.85,3.1L46.45 2.65L45.5 2.25L44.45 2.3L44.4 2.3L44.45 3.55L44.55 4.7L44.6 4.7L45.35 4.7L46.1 4.6L46.7 4.25L46.95 3.7L46.85 3.1" />
</g>
</svg>
