<?xml version="1.0" encoding="utf-8"?>
<svg version="1.1" id="Layer_1"
xmlns="http://www.w3.org/2000/svg"
xmlns:xlink="http://www.w3.org/1999/xlink"
xmlns:author="http://www.sothink.com"
width="49px" height="49px"
xml:space="preserve">
<g id="3099" transform="matrix(1, 0, 0, 1, 6.55, 6.2)">
<path style="fill:#FF9900;fill-opacity:1" d="M17.7,42.3Q7.65 42.3 0.5 35.2Q-6.55 28.15 -6.55 18.05Q-6.55 8.05 0.5 0.9Q7.65 -6.2 17.7 -6.2Q27.75 -6.2 34.85 0.9Q41.95 8.05 41.95 18.05Q41.95 28.15 34.85 35.2Q27.75 42.3 17.7 42.3" />
<path style="fill:#FFFFFF;fill-opacity:1" d="M17.7,36.05Q10.25 36.05 4.95 30.75Q-0.3 25.5 -0.3 18.05Q-0.3 10.6 4.95 5.3Q10.25 0.05 17.7 0.05Q25.15 0.05 30.4 5.3Q35.7 10.6 35.7 18.05Q35.7 25.5 30.4 30.75Q25.15 36.05 17.7 36.05" />
</g>
</svg>
