<?xml version="1.0" encoding="utf-8"?>
<svg version="1.1" id="Layer_1"
xmlns="http://www.w3.org/2000/svg"
xmlns:xlink="http://www.w3.org/1999/xlink"
xmlns:author="http://www.sothink.com"
width="32px" height="17px"
xml:space="preserve">
<g id="2691" transform="matrix(1, 0, 0, 1, -24.05, -2.45)">
<path style="fill:#FFFFFF;fill-opacity:1" d="M48.4,16.7Q49.2 16.7 50.35 17.75Q52.75 19 56.05 18.25Q51.75 20.05 48.25 17.3L44.1 17.25Q42.5 17.15 42.65 16.9L43.6 16.7L46 16.7L48.4 16.7M33.9,3.35L31 3.65Q28.3 4 26.25 4.7L24.05 4.95Q28.45 2.8 33.6 2.45L33.75 2.45L34.7 2.7Q35.45 2.95 36.7 5.15Q37.9 7.3 38.55 9.2Q39.15 11.1 40.4 12.9Q41.7 14.65 42.5 16.55Q39.45 13.7 37.95 9.35Q36.45 5 33.9 3.35" />
</g>
</svg>
