<?xml version="1.0" encoding="utf-8"?>
<svg version="1.1" id="Layer_1"
xmlns="http://www.w3.org/2000/svg"
xmlns:xlink="http://www.w3.org/1999/xlink"
xmlns:author="http://www.sothink.com"
width="25px" height="39px"
xml:space="preserve">
<g id="478" transform="matrix(1, 0, 0, 1, -0.75, 0.35)">
<path style="fill:#7E1616;fill-opacity:1" d="M2.15,-0.1L2.55 0.1L2.65 0.2L2.95 0.4L3.55 0.05Q6.2 1.05 8.7 2.45L10.65 2.5L10.7 2.55L10.6 2.65Q11.4 2.8 11.8 3.65L11.85 3.8Q7.95 3.6 6.95 6.8L6.35 8.2Q7.7 9.65 7.4 11.25L7.45 11.25Q9.45 11.1 11.1 11.85Q11.75 11.95 12.5 12.35L12.7 12.25Q14.15 9.15 18.45 10.65L18.5 10.5Q16.35 7.55 17.2 4.4L17.35 4.35Q20.4 8.05 19 12.05L18.75 12.2L14.2 12.55L14.05 12.65L13.3 13.5Q14.45 17.15 11.35 19.15Q12.55 20.1 13.15 21.85L16.1 23.7L16.15 23.8L15.15 24L18.3 26.35Q19.35 27.1 19.2 28.15L15.8 26.15Q16.1 27.65 14 28.5L13.85 28.45Q13.2 26.5 13.8 24.85L11.8 23.5Q11 22.9 10.65 22.15L7.35 20L7.3 20.05Q5.8 19.8 4.95 19.15Q5.25 20.3 5.1 21.7L5 21.85Q2.6 20.65 3.8 17.9Q1.95 16.65 1.7 13.05L1.4 10.4L1.6 10.15L1.65 8.55Q1.75 6.85 1.2 5.15Q0.35 2.7 1.2 0.85L1.15 0.75L1.15 0.45Q1.15 -0.25 1.85 -0.35L2.15 -0.1M21.15,16.1Q18.55 16.95 19.95 14.75L20.15 14.6Q21 14.95 21.15 15.95L21.15 16.1M24.25,18.5Q25.35 19.05 25.15 20.3L25.05 20.45Q23.5 20.8 23.55 19.05Q23.7 18.55 24.25 18.55L24.25 18.5M20.85,22.7L20.8 22.85Q19.6 23.4 19.6 22.15Q19.65 21.55 20.3 21.55L20.3 21.5Q21.25 21.8 20.85 22.7M11.55,5.65Q12.05 5.6 12.35 6L12.4 6.15Q12.1 7.75 10.85 6.7Q10.7 6.05 11.25 5.75L11.55 5.65M11.7,9.45L11.7 9.55Q10.1 10.95 10.1 8.95Q10.1 8.65 10.45 8.65Q11.55 8.45 11.7 9.45M6.95,3.85Q5.25 3.85 3.6 2.95Q4.15 5.3 4.35 7.85L5 7.65L5.75 5.8Q6.1 4.6 6.95 3.85M5.65,9L3.8 9.15L4.85 12.4L5.15 12.15L5.75 11.8L5.65 9M8.1,14.9L8.4 14.8L9.05 14.95L9.25 15.05L9.45 16.15L9.25 16.7Q7.5 17.05 7.75 15.15L8.1 14.9M5.4,14.4L5.3 14.5Q6.35 16.4 7.85 18.15Q9.4 18.15 10.55 18.7Q12.35 16.65 12.3 13.95Q11.3 14 10.15 13L6.1 14Q5.7 14.1 5.4 14.4M4.95,22.45Q6 25.75 6.3 29.4L6.3 29.5Q2.9 29.2 3.7 24.45Q3.95 23 4.95 22.45M8.5,23.35Q9.95 24.1 9.3 25.7L9.2 25.85Q6.95 25.75 8.3 23.55L8.5 23.35M17.45,17.95Q18.6 18.4 19.4 19.25L19.5 19.35Q17.35 21.3 16.8 18.6L16.8 18.35Q17.05 18 17.45 18L17.45 17.95M13.8,16.85Q15.05 17.3 14.7 18.6L14.65 18.75Q11.75 18.7 13.75 16.85L13.8 16.85M16.05,20L16.7 20.15L16.9 20.25L17.1 21.1L16.8 21.65Q15.35 21.95 15.35 20.6L15.65 20.2L16.05 20M14.1,32.7Q15.6 34.05 14.85 36L14.75 36.1Q12.55 34.95 13.95 32.8Q14 32.7 14.1 32.7M4.65,35.2Q5.9 36.1 5.1 37.75L5 37.95Q3.45 37.6 4 35.55Q4.25 35.2 4.65 35.2" />
</g>
</svg>
