<?xml version="1.0" encoding="utf-8"?>
<svg version="1.1" id="Layer_1"
xmlns="http://www.w3.org/2000/svg"
xmlns:xlink="http://www.w3.org/1999/xlink"
xmlns:author="http://www.sothink.com"
width="75px" height="25px"
xml:space="preserve">
<g id="121" transform="matrix(1, 0, 0, 1, 0, 12.4)">
<linearGradient
id="LinearGradID_204" gradientUnits="userSpaceOnUse" gradientTransform="matrix(0, 0.00263977, -0.00411987, 0, -52.05, -3.65)" spreadMethod ="pad" x1="-819.2" y1="0" x2="819.2" y2="0" >
<stop  offset="0" style="stop-color:#FAED2D;stop-opacity:1" />
<stop  offset="1" style="stop-color:#FFFEF3;stop-opacity:1" />
</linearGradient>
<path style="fill:url(#LinearGradID_204) " d="M0,0.2L0 -0.2Q0 -2.9 1.4 -4.65Q2.85 -6.4 5.35 -6.4Q9.7 -6.4 10.25 -1.75L7.3 -1.55Q7.25 -4.1 5.3 -4.1Q3.1 -4.1 3.1 -0.2L3.1 0.1L0 0.2" />
<path style="fill:#EEBE23;fill-opacity:1" d="M3.1,0.1Q3.15 2.15 3.7 2.9Q4.3 3.7 5.4 3.7Q7.1 3.7 7.5 1.4L10.25 1.6Q9.95 3.75 8.65 4.85Q7.3 6 5.35 6Q2.95 6 1.5 4.35Q0.1 2.8 0 0.2L3.1 0.1" />
<linearGradient
id="LinearGradID_205" gradientUnits="userSpaceOnUse" gradientTransform="matrix(0, 0.00263977, -0.00411987, 0, -52.05, -9.85)" spreadMethod ="pad" x1="-819.2" y1="0" x2="819.2" y2="0" >
<stop  offset="0" style="stop-color:#FAED2D;stop-opacity:1" />
<stop  offset="1" style="stop-color:#FFFEF3;stop-opacity:1" />
</linearGradient>
<path style="fill:url(#LinearGradID_205) " d="M11.85,-6.3L11.85 -12.4L14.7 -12.4L14.7 -6.35L11.85 -6.3" />
<path style="fill:#EEBE23;fill-opacity:1" d="M14.7,-6.35L14.7 -2.75L19.45 -2.75L19.45 -0.4L11.85 -0.4L11.85 -6.3L14.7 -6.35" />
<linearGradient
id="LinearGradID_206" gradientUnits="userSpaceOnUse" gradientTransform="matrix(0, 0.00263977, -0.00411987, 0, -52.05, -6.65)" spreadMethod ="pad" x1="-819.2" y1="0" x2="819.2" y2="0" >
<stop  offset="0" style="stop-color:#FAED2D;stop-opacity:1" />
<stop  offset="1" style="stop-color:#FFFEF3;stop-opacity:1" />
</linearGradient>
<path style="fill:url(#LinearGradID_206) " d="M20.9,-3.3L20.9 -9.2L29.45 -9.2L29.45 -6.9L23.75 -6.9L23.75 -4.45L28.25 -4.45L28.25 -3.45L20.9 -3.3" />
<path style="fill:#EEBE23;fill-opacity:1" d="M28.25,-3.45L28.25 -2.2L23.75 -2.2L23.75 0.45L29.45 0.45L29.45 2.8L20.9 2.8L20.9 -3.3L28.25 -3.45" />
<linearGradient
id="LinearGradID_207" gradientUnits="userSpaceOnUse" gradientTransform="matrix(0, 0.00263977, -0.00411987, 0, -52.05, -3.45)" spreadMethod ="pad" x1="-819.2" y1="0" x2="819.2" y2="0" >
<stop  offset="0" style="stop-color:#FAED2D;stop-opacity:1" />
<stop  offset="1" style="stop-color:#FFFEF3;stop-opacity:1" />
</linearGradient>
<path style="fill:url(#LinearGradID_207) " d="M35.9,-0.4L35.15 -2.9L34.4 -0.4L32 -0.35L33.8 -6L37.05 -6L38.8 -0.5L35.9 -0.4" />
<path style="fill:#EEBE23;fill-opacity:1" d="M33.85,1.3L36.4 1.3L35.9 -0.4L38.8 -0.5L40.8 6L37.8 6L37.05 3.55L33.15 3.55L32.4 6L29.95 6L32 -0.35L34.4 -0.4L33.85 1.3" />
<linearGradient
id="LinearGradID_208" gradientUnits="userSpaceOnUse" gradientTransform="matrix(0, 0.00263977, -0.00411987, 0, -52.05, -0.65)" spreadMethod ="pad" x1="-819.2" y1="0" x2="819.2" y2="0" >
<stop  offset="0" style="stop-color:#FAED2D;stop-opacity:1" />
<stop  offset="1" style="stop-color:#FFFEF3;stop-opacity:1" />
</linearGradient>
<path style="fill:url(#LinearGradID_208) " d="M42.1,2.25L42.1 -3.2L47.4 -3.2L49.7 -2.85Q50.6 -2.5 51.2 -1.6Q51.75 -0.7 51.75 0.4Q51.75 1.3 51.4 2.05L42.1 2.25M46.6,-1.05L44.95 -1.05L44.95 2L46.65 2L47.9 1.9L48.55 1.35L48.85 0.4L48.55 -0.5L47.9 -0.95L46.6 -1.05" />
<path style="fill:#EEBE23;fill-opacity:1" d="M51.4,2.05Q50.85 2.95 49.7 3.5L51.9 8.8L48.8 8.8L46.95 4.05L44.95 4.05L44.95 8.8L42.1 8.8L42.1 2.25L51.4 2.05" />
<path style="fill:#EEBE23;fill-opacity:1" d="M61.3,5.2L61.3 7.2L56.8 7.2L56.8 9.85L62.5 9.85L62.5 12.2L53.95 12.2L53.95 5.4L61.3 5.2" />
<linearGradient
id="LinearGradID_209" gradientUnits="userSpaceOnUse" gradientTransform="matrix(0, 0.00263977, -0.00411987, 0, -52.05, 2.75)" spreadMethod ="pad" x1="-819.2" y1="0" x2="819.2" y2="0" >
<stop  offset="0" style="stop-color:#FAED2D;stop-opacity:1" />
<stop  offset="1" style="stop-color:#FFFEF3;stop-opacity:1" />
</linearGradient>
<path style="fill:url(#LinearGradID_209) " d="M53.95,5.4L53.95 0.2L62.5 0.2L62.5 2.5L56.8 2.5L56.8 4.95L61.3 4.95L61.3 5.2L53.95 5.4" />
<path style="fill:#EEBE23;fill-opacity:1" d="M66.95,9.95L68.1 9.95Q69.65 9.95 70.4 8.8Q71.15 7.65 71.15 6.1L71.05 5L73.95 4.9L74.05 6.15Q74.05 8.75 72.5 10.5Q71 12.2 68.35 12.2L64.2 12.2L64.2 5.15L66.95 5.1L66.95 9.95" />
<linearGradient
id="LinearGradID_210" gradientUnits="userSpaceOnUse" gradientTransform="matrix(0, 0.00263977, -0.00411987, 0, -52.05, 2.75)" spreadMethod ="pad" x1="-819.2" y1="0" x2="819.2" y2="0" >
<stop  offset="0" style="stop-color:#FAED2D;stop-opacity:1" />
<stop  offset="1" style="stop-color:#FFFEF3;stop-opacity:1" />
</linearGradient>
<path style="fill:url(#LinearGradID_210) " d="M71.05,5L70.75 4.1Q70.3 3.15 69.65 2.8Q69.05 2.4 68.15 2.4L66.95 2.4L66.95 5.1L64.2 5.15L64.2 0.2L67.85 0.2Q70.1 0.2 71.2 0.85Q72.3 1.45 73.15 2.8Q73.75 3.7 73.95 4.9L71.05 5" />
</g>
</svg>
