<?xml version="1.0" encoding="utf-8"?>
<svg version="1.1" id="Layer_1"
xmlns="http://www.w3.org/2000/svg"
xmlns:xlink="http://www.w3.org/1999/xlink"
xmlns:author="http://www.sothink.com"
width="22px" height="34px"
xml:space="preserve">
<g id="1553" transform="matrix(1, 0, 0, 1, -10.9, 2.45)">
<path style="fill:#7E1616;fill-opacity:1" d="M32.1,-1.7L32.1 -1.45L32.05 -1.35Q32.75 0.3 32.05 2.45Q31.55 3.95 31.65 5.45L31.7 6.8L31.85 7.05L31.6 9.4Q31.35 12.55 29.75 13.65Q30.8 16.1 28.65 17.15L28.6 17Q28.45 15.8 28.7 14.8Q28 15.35 26.65 15.55L26.6 15.5L23.7 17.4L22.65 18.6L20.9 19.75Q21.45 21.25 20.9 22.95L20.75 22.95Q18.9 22.25 19.2 20.9L16.2 22.7Q16.05 21.75 16.95 21.1L19.75 19.05L18.85 18.9L18.9 18.75L21.5 17.15Q22 15.6 23.05 14.8Q20.35 13 21.35 9.8L20.7 9L20.55 8.95L16.6 8.65L16.35 8.55Q15.1 5 17.8 1.7L17.9 1.75Q18.7 4.55 16.8 7.15L16.8 7.25Q20.6 6 21.9 8.7L22.05 8.75Q22.75 8.4 23.3 8.35Q24.8 7.7 26.5 7.8L26.55 7.8Q26.25 6.4 27.5 5.1Q27.15 4.65 26.95 3.9Q26.1 1.05 22.6 1.2L22.65 1.1Q23.05 0.4 23.7 0.2L23.65 0.15L23.7 0.1L25.45 0.05Q27.6 -1.15 30 -2.05L30.5 -1.75L30.75 -1.95L30.8 -2L31.2 -2.2L31.45 -2.45Q32.1 -2.3 32.1 -1.7M29.25,4.8Q29.45 2.55 29.9 0.5Q28.45 1.25 26.95 1.25Q27.7 1.95 28.05 3L28.65 4.65L29.25 4.8M28.1,5.8L28.05 8.3L28.55 8.6L28.8 8.8L29.75 6L28.1 5.8M23.15,2.95Q23.65 3.2 23.5 3.8Q22.4 4.7 22.15 3.3L22.25 3.15Q22.45 2.8 22.9 2.9L23.15 2.95M24.15,5.75Q24.15 7.55 22.8 6.3L22.8 6.2Q22.9 5.3 23.9 5.55L24.15 5.75M24.95,11.15Q25 11.05 25.1 11.05L25.65 10.9L25.95 11L26.25 11.25Q26.5 12.9 24.95 12.6L24.8 12.1Q24.7 11.55 24.95 11.15M22.25,10.2Q22.25 12.55 23.8 14.4Q24.8 13.9 26.15 13.9L28.45 10.7L28.3 10.55L27.7 10.25Q25.85 9.65 24.15 9.35Q23.1 10.25 22.25 10.2M20.95,12.75Q22.75 14.4 20.2 14.4L20.15 14.3Q19.85 13.1 20.9 12.75L20.95 12.75M24.9,20.55Q24.35 19.1 25.6 18.45L25.75 18.65Q26.95 20.6 25 20.65L24.9 20.55M27.55,23.85L27.55 23.8Q27.8 20.6 28.7 17.65Q29.6 18.15 29.8 19.45Q30.55 23.65 27.55 23.85M14.5,11.95Q14.6 11.05 15.3 10.75L15.55 10.9Q16.75 12.85 14.5 12.05L14.5 11.95M18.3,14.3Q17.8 16.65 15.9 14.95L16 14.85Q16.7 14.1 17.7 13.75Q18.1 13.75 18.3 14.05L18.3 14.3M15.8,17.4Q15.8 18.5 14.75 18.05L14.7 17.9Q14.35 17.1 15.2 16.85L15.2 16.9Q15.75 16.9 15.8 17.4M18.2,15.7L18.35 15.65L18.95 15.5L19.3 15.65L19.55 16.05Q19.55 17.2 18.3 16.95L18 16.5Q17.95 16.1 18.2 15.7M11.7,14.15L11.7 14.25Q12.2 14.25 12.3 14.65Q12.4 16.2 11 15.9L10.95 15.8Q10.75 14.65 11.7 14.15M20,29.6Q19.35 27.9 20.7 26.7L20.8 26.8Q22 28.65 20.05 29.65L20 29.6M29,28.9L29.55 29.25Q30.05 31 28.65 31.35L28.6 31.15Q27.9 29.65 29 28.9" />
</g>
</svg>
