<?xml version="1.0" encoding="utf-8"?>
<svg version="1.1" id="Layer_1"
xmlns="http://www.w3.org/2000/svg"
xmlns:xlink="http://www.w3.org/1999/xlink"
xmlns:author="http://www.sothink.com"
width="198px" height="42px"
xml:space="preserve">
<g id="878" transform="matrix(1, 0, 0, 1, 26.65, -2.3)">
<linearGradient
id="LinearGradID_1139" gradientUnits="userSpaceOnUse" gradientTransform="matrix(0, 0.0163269, -0.0205994, 0, 114.2, 22.45)" spreadMethod ="pad" x1="-819.2" y1="0" x2="819.2" y2="0" >
<stop  offset="0" style="stop-color:#F6E255;stop-opacity:1" />
<stop  offset="1" style="stop-color:#D19B27;stop-opacity:1" />
</linearGradient>
<path style="fill:url(#LinearGradID_1139) " d="M115.55,6.75L159.75 6.75L160.25 6.9Q165.95 8.4 166.15 15.1L166.15 15.5L166.15 31.35L166.15 34.45Q166.1 35.7 164.6 37.55Q163.15 39.35 159.9 39.55L115.55 39.65L115.55 6.75" />
<linearGradient
id="LinearGradID_1140" gradientUnits="userSpaceOnUse" gradientTransform="matrix(0.0020752, 0.0184326, -0.0735474, 0.00794983, 58.3, 19.1)" spreadMethod ="pad" x1="-819.2" y1="0" x2="819.2" y2="0" >
<stop  offset="0.00392157" style="stop-color:#FFF3CD;stop-opacity:1" />
<stop  offset="0.423529" style="stop-color:#ECBB59;stop-opacity:1" />
<stop  offset="1" style="stop-color:#B85A12;stop-opacity:1" />
</linearGradient>
<path style="fill:url(#LinearGradID_1140) " d="M115.55,39.65L159.9 39.55Q163.15 39.35 164.6 37.55Q166.1 35.7 166.15 34.45L166.15 31.35L166.15 15.5L166.15 15.1Q165.95 8.4 160.25 6.9L159.75 6.75L115.55 6.75L115.55 3.85L159.9 3.85Q169.1 3.85 169.1 12.85L169.1 34.1Q168.85 42.55 160 42.65L115.55 42.65L115.55 39.65" />
<path style="fill:#7E230B;fill-opacity:1" d="M170.65,12.85L170.65 34.1Q170.45 44.15 159.9 44.15L-15.9 44.15Q-26.4 44.15 -26.65 34.1L-26.65 33.7L-26.65 12.85Q-26.65 6 -22.1 3.55Q-19.65 2.3 -15.9 2.3L159.9 2.3Q163.65 2.3 166.1 3.55Q170.65 6 170.65 12.85M25.15,3.85L-15.9 3.85Q-25.05 3.85 -25.05 12.85L-25.05 33.7L-25.05 34.1Q-24.8 42.65 -15.9 42.65L25.15 42.65L115.55 42.65L160 42.65Q168.85 42.55 169.1 34.1L169.1 12.85Q169.1 3.85 159.9 3.85L115.55 3.85L25.15 3.85" />
<linearGradient
id="LinearGradID_1141" gradientUnits="userSpaceOnUse" gradientTransform="matrix(0.009552, 0.0184326, -0.338348, 0.00794983, -147.85, 19.1)" spreadMethod ="pad" x1="-819.2" y1="0" x2="819.2" y2="0" >
<stop  offset="0.00392157" style="stop-color:#FFF3CD;stop-opacity:1" />
<stop  offset="0.423529" style="stop-color:#ECBB59;stop-opacity:1" />
<stop  offset="1" style="stop-color:#B85A12;stop-opacity:1" />
</linearGradient>
<path style="fill:url(#LinearGradID_1141) " d="M25.15,39.7L115.55 39.65L115.55 42.65L25.15 42.65L25.15 39.7M25.15,6.75L25.15 3.85L115.55 3.85L115.55 6.75L25.15 6.75" />
<linearGradient
id="LinearGradID_1142" gradientUnits="userSpaceOnUse" gradientTransform="matrix(0, 0.0163269, -0.0947723, 0, 109.35, 22.45)" spreadMethod ="pad" x1="-819.2" y1="0" x2="819.2" y2="0" >
<stop  offset="0" style="stop-color:#F6E255;stop-opacity:1" />
<stop  offset="1" style="stop-color:#D19B27;stop-opacity:1" />
</linearGradient>
<path style="fill:url(#LinearGradID_1142) " d="M115.55,6.75L115.55 39.65L25.15 39.7L25.15 6.75L115.55 6.75" />
<linearGradient
id="LinearGradID_1143" gradientUnits="userSpaceOnUse" gradientTransform="matrix(0.0020752, 0.0184326, -0.0735474, 0.00794983, -9.35, 19.1)" spreadMethod ="pad" x1="-819.2" y1="0" x2="819.2" y2="0" >
<stop  offset="0.00392157" style="stop-color:#FFF3CD;stop-opacity:1" />
<stop  offset="0.423529" style="stop-color:#ECBB59;stop-opacity:1" />
<stop  offset="1" style="stop-color:#B85A12;stop-opacity:1" />
</linearGradient>
<path style="fill:url(#LinearGradID_1143) " d="M25.15,6.75L-12.55 6.75Q-21.8 6.75 -22.05 15.1L-22.05 15.5L-22.05 31.35L-21.9 33.05L-21.7 34.1Q-20.25 39.75 -12.55 39.75L25.15 39.7L25.15 42.65L-15.9 42.65Q-24.8 42.65 -25.05 34.1L-25.05 33.7L-25.05 12.85Q-25.05 3.85 -15.9 3.85L25.15 3.85L25.15 6.75" />
<linearGradient
id="LinearGradID_1144" gradientUnits="userSpaceOnUse" gradientTransform="matrix(0, 0.0163269, -0.0205994, 0, 46.55, 22.45)" spreadMethod ="pad" x1="-819.2" y1="0" x2="819.2" y2="0" >
<stop  offset="0" style="stop-color:#F6E255;stop-opacity:1" />
<stop  offset="1" style="stop-color:#D19B27;stop-opacity:1" />
</linearGradient>
<path style="fill:url(#LinearGradID_1144) " d="M-12.55,39.75Q-20.25 39.75 -21.7 34.1L-21.9 33.05L-22.05 31.35L-22.05 15.5L-22.05 15.1Q-21.8 6.75 -12.55 6.75L25.15 6.75L25.15 39.7L-12.55 39.75" />
</g>
</svg>
