<?xml version="1.0" encoding="utf-8"?>
<svg version="1.1" id="Layer_1"
xmlns="http://www.w3.org/2000/svg"
xmlns:xlink="http://www.w3.org/1999/xlink"
xmlns:author="http://www.sothink.com"
width="45px" height="47px"
xml:space="preserve">
<g id="1267" transform="matrix(1, 0, 0, 1, 4.15, 7.15)">
<path style="fill:#BB482E;fill-opacity:1" d="M37.8,6.1L37.95 6.2Q35.85 5.85 33.8 6.85Q33.5 6.95 33.25 7.15Q30.9 8.45 30.45 9.9Q30 11.35 30.4 11.15L30.6 11L30.35 11.45L27.5 16.3L27.15 16.85Q27.7 7.95 31.5 6.55L29 6.85Q26.95 7.4 25.5 8.75L26.2 7.1Q27.35 3.65 25.2 0.2Q25.15 2 24.4 4Q22.8 8.05 19.1 9.3Q18.95 7.45 17.95 5.55Q15.9 1.9 11.45 1.2Q12.6 2 13.05 4.65Q13.6 8.2 11 11.25Q10.55 9.95 9.45 8.7Q8.25 7.4 6.75 6.85L3.9 6.35Q4.85 6.4 6.25 7.95L6.85 8.65Q9.05 11.4 8.05 14Q7.75 13.5 7 13.2L4.15 13.3L3.65 13.45L4 13.6L5.7 15Q7.7 16.85 6.85 21.35Q5.25 23 3 23.7L2.25 23.9L3.75 26.15L5.85 28Q4.35 28 2 26.65L1 26.05Q0.5 25.3 0.5 24.7L0.7 24L1.65 23.55L2.8 22.55L3 22.5Q5.2 21.55 4.6 20.5L5 19.95L5.3 19.55L5.5 19.75Q5.9 20 6.05 19.1Q6.2 18.15 5.1 17.05Q4.4 16.35 3.2 15.95L2.8 15.85Q2.1 15.35 1 15.05L-0.75 14.65Q0.1 13.6 2.2 12.4L3.05 11.95L3.95 12.1L4.5 12.25L4.7 12.3L4.85 11.4L4.4 9.1Q3.8 7.65 2.55 7L1.8 5.8Q3.15 4.7 6 4.8L7 4.9L7.55 5.25L9.05 6.85L9.6 6.3Q10.3 4.2 9.45 2.35L9.3 2.05Q9.25 1 8.85 0.2L8.05 -0.8L12.45 -0.6Q13.7 -0.15 15.15 0.65L17.95 2.5L18.15 2.8Q19.35 5.25 19.95 4.5Q21.55 2.75 22.2 1.1Q23.25 -0.15 23.35 -1.9L23.4 -2.25Q23.4 -3.35 23.05 -4.25Q26.5 -3.15 28.6 0.15L28.95 0.8L29.4 1.7L29.5 2.9Q29.4 5.7 29.85 5.5Q30.5 5.15 31.15 4.9L32.65 4.85Q34.35 4.9 36.25 5.5L37.8 6.1" />
<path style="fill:#8C331D;fill-opacity:1" d="M19.8,23.7Q20 23.45 19.45 23.45Q14.7 26.8 14.65 31.75Q14.8 32.2 13 31.15Q11.15 30.05 10.1 27.5L8.85 24.95Q8.2 26.1 8.35 27.5L6.15 28L5.85 28L3.75 26.15L2.25 23.9L3 23.7Q5.25 23 6.85 21.35Q7.7 16.85 5.7 15L4 13.6L3.65 13.45L4.15 13.3L7 13.2Q7.75 13.5 8.05 14Q9.05 11.4 6.85 8.65L6.25 7.95Q4.85 6.4 3.9 6.35L6.75 6.85Q8.25 7.4 9.45 8.7Q10.55 9.95 11 11.25Q13.6 8.2 13.05 4.65Q12.6 2 11.45 1.2Q15.9 1.9 17.95 5.55Q18.95 7.45 19.1 9.3Q22.8 8.05 24.4 4Q25.15 2 25.2 0.2Q27.35 3.65 26.2 7.1L25.5 8.75Q26.95 7.4 29 6.85L31.5 6.55Q27.7 7.95 27.15 16.85L26.85 17.35L25.4 19.45Q24.2 20.9 21.75 22.55Q20.35 23.5 18.85 25.1L19.8 23.7" />
<path style="fill:#EE7557;fill-opacity:1" d="M9.3,2.05Q8.3 0.05 6.15 -0.55Q6 -0.6 6.4 -0.95L7.3 -1.55L13.65 -1.4L13.9 -1.25Q16.7 0.25 17.95 2.5L15.15 0.65Q13.7 -0.15 12.45 -0.6L8.05 -0.8L8.85 0.2Q9.25 1 9.3 2.05M22.2,1.1Q22.6 -0.05 22.55 -1.15L22.35 -2.6Q21.95 -4.35 20.9 -5.85L21.5 -5.75Q25.5 -5 27.55 -2.45Q28.9 -0.75 29.3 1.05L29.4 1.7L28.95 0.8L28.6 0.15Q26.5 -3.15 23.05 -4.25Q23.4 -3.35 23.4 -2.25L23.35 -1.9Q23.25 -0.15 22.2 1.1M36.25,5.5Q34.35 4.9 32.65 4.85L31.15 4.9L32.4 4.5Q35.3 3.95 37.8 6.1L36.25 5.5M1.75,6.65Q0 6.1 -0.3 6.3Q0.45 4.75 3.7 4.35Q5.5 4.05 7 4.9L6 4.8Q3.15 4.7 1.8 5.8L2.55 7Q2.2 6.75 1.75 6.65M1.45,15.6Q-1.05 15.25 -2.85 16.6Q-2.75 15 -0.55 13.25Q1.2 11.85 3.05 11.95L2.2 12.4Q0.1 13.6 -0.75 14.65L1 15.05Q2.1 15.35 2.8 15.85L1.45 15.6M-1.55,23.45L0.5 23.3L2.8 22.55L1.65 23.55L0.7 24L0.5 24.7Q0.5 25.3 1 26.05Q-0.8 24.8 -1.55 23.45" />
<path style="fill:#4E1C10;fill-opacity:1" d="M18.85,25.1Q17.1 27.8 16.65 30.55Q16.35 32.15 16.35 33.35L13.85 33.3Q11.8 32.55 10.6 31.5Q9.4 30.4 8.75 28.8L8.35 28.9L7.95 29L4 28.8Q1.7 28.15 -0.4 26.5Q-2.2 25.05 -2.75 23.95Q-3.3 22.85 -3.05 22.6L-1.6 22.35L-1.1 22.35L1.15 21.85Q2.7 21.35 4.15 20L4.6 20.5Q5.2 21.55 3 22.5L2.8 22.55L0.5 23.3L-1.55 23.45Q-0.8 24.8 1 26.05L2 26.65Q4.35 28 5.85 28L6.15 28L8.35 27.5Q8.2 26.1 8.85 24.95L10.1 27.5Q11.15 30.05 13 31.15Q14.8 32.2 14.65 31.75Q14.7 26.8 19.45 23.45Q20 23.45 19.8 23.7L18.85 25.1" />
<path style="fill:#622516;fill-opacity:1" d="M2.8,15.85L3.2 15.95Q4.4 16.35 5.1 17.05Q6.2 18.15 6.05 19.1Q5.9 20 5.5 19.75L5.3 19.55L4.7 18.45Q4.25 17.35 2.8 17L2.6 16.95L-0.4 16.85Q-1.8 17.1 -2.7 17.75Q-3.55 18.4 -3.9 17.9Q-4.25 17.4 -4.1 16.9Q-2.75 11.1 2.75 10.7L3.7 10.8Q3.25 8.8 2.1 8.1Q0.95 7.4 0 7.35L-1.4 7.15Q-1.8 6.95 -1.35 5.9Q-0.95 4.8 0.6 4Q2.1 3.15 4 3.15L6.9 3.5Q7.65 3.7 8.2 4.15L8.7 4.6L8.65 3.45Q8.5 2.4 7.9 1.7Q6.95 0.65 5.25 0.4Q4.8 0.35 4.85 -0.15L5.1 -0.85Q7.6 -4.25 12.65 -3.05L15.1 -2.1Q18.3 -0.5 19.75 2.75Q19.9 3.15 20.8 1.35Q21.6 -0.35 20.95 -2.7L20.85 -2.95Q20.2 -5.15 19.7 -5.75Q19.1 -6.4 19.6 -6.75Q20.05 -7.15 20.9 -7.15Q27.35 -6.4 30.1 -1.2Q31.05 0.65 31 2.6L30.85 3.6L31.55 3.3L33.8 3.05Q35.45 3.25 36.55 3.8L38.4 5L39.8 6.6Q40.35 7.55 38.25 7.35Q36.1 7.1 34.7 7.75L33.95 8.2Q33.05 8.75 32.4 9.6L31.25 10.95L31.2 11L31.4 10.4L31.6 9.8L30.9 10.75L30.6 11L30.4 11.15Q30 11.35 30.45 9.9Q30.9 8.45 33.25 7.15Q33.5 6.95 33.8 6.85Q35.85 5.85 37.95 6.2L37.8 6.1Q35.3 3.95 32.4 4.5L31.15 4.9Q30.5 5.15 29.85 5.5Q29.4 5.7 29.5 2.9L29.4 1.7L29.3 1.05Q28.9 -0.75 27.55 -2.45Q25.5 -5 21.5 -5.75L20.9 -5.85Q21.95 -4.35 22.35 -2.6L22.55 -1.15Q22.6 -0.05 22.2 1.1Q21.55 2.75 19.95 4.5Q19.35 5.25 18.15 2.8L17.95 2.5Q16.7 0.25 13.9 -1.25L13.65 -1.4L7.3 -1.55L6.4 -0.95Q6 -0.6 6.15 -0.55Q8.3 0.05 9.3 2.05L9.45 2.35Q10.3 4.2 9.6 6.3L9.05 6.85L7.55 5.25L7 4.9Q5.5 4.05 3.7 4.35Q0.45 4.75 -0.3 6.3Q0 6.1 1.75 6.65Q2.2 6.75 2.55 7Q3.8 7.65 4.4 9.1L4.85 11.4L4.7 12.3L4.5 12.25L3.95 12.1L3.05 11.95Q1.2 11.85 -0.55 13.25Q-2.75 15 -2.85 16.6Q-1.05 15.25 1.45 15.6L2.8 15.85" />
<path style="fill:none;stroke-width:0.1;stroke-linecap:round;stroke-linejoin:round;stroke-miterlimit:3;stroke:#2B462D;stroke-opacity:1" d="M5.3,19.55L5.4 18.95L5.35 18.55L4.95 18.3M5.3,19.55L5 19.95L4.6 20.5L4.15 21.05" />
<path style="fill:#2E201B;fill-opacity:1" d="M13.5,19.7L11.85 19.8L8.55 19.8L8.2 19.75L8.1 19.75L5.15 19.5L5.1 19.45L4.75 19.75L4.6 19.95Q4.35 20.35 4.55 20.85L4.75 20.95L4.85 21L6.95 21.4L8.2 21.55L13.95 21.6L14.4 21.6L14.45 22.65L11.65 22.65L7.9 22.45L5.6 22.2L4.45 21.9L4.1 21.8L3.7 21.55L3.45 21.25Q3.35 20.9 3.4 20.55Q3.4 20.05 3.7 19.6L3.85 19.3L4.55 18.4L4.95 18.25L6.15 18.5L9.2 18.75L9.4 18.75L9.85 18.8L13.75 18.7L14.25 18.65L14.3 19.65L13.5 19.7" />
<path style="fill:#8E6755;fill-opacity:1" d="M4.6,19.95L4.75 19.75L5.1 19.45L5.15 19.5L8.1 19.75L8.2 19.75L8.55 19.8L11.85 19.8L10.3 20.1L8.25 20.2L7.95 20.2L5.65 20.3L5.5 20.4L4.6 19.95" />
<path style="fill:#513727;fill-opacity:1" d="M5.5,20.4L7.7 20.75L9.3 20.85L13.25 20.8L13.45 19.8L13.5 19.7L14.3 19.65L14.35 20.35L14.4 21.6L13.95 21.6L8.2 21.55L6.95 21.4L4.85 21L4.75 20.95L4.55 20.85Q4.35 20.35 4.6 19.95L5.5 20.4" />
<path style="fill:#644638;fill-opacity:1" d="M13.45,19.8L13.25 20.8L9.3 20.85L7.7 20.75L5.5 20.4L5.65 20.3L7.95 20.2L8.25 20.2L10.3 20.1L11.85 19.8L13.5 19.7L13.45 19.8" />
<path style="fill:#625643;fill-opacity:1" d="M28,37.2L28.15 36.15L28.3 32.6Q28.25 31 28.7 30.75L30.2 29.5Q31.3 28.5 31.7 27.25Q32.05 26 31.9 24.6L31.4 22.25L30.9 20.75Q30.7 20.15 30.9 16.7Q31.1 13.25 30.9 9.95Q28.7 8.9 27.2 8.9L25.85 9.05L25.45 14.65L25.35 14.6L25.35 14.55L24.95 14L24.6 13.4L24.35 13.4L23.5 13.5Q21.3 13.9 19.8 15.75L19.45 16.15L19.9 14.8Q20.15 13.95 20.95 13.35Q21.65 12.9 22.3 12.7L22.45 12.65L23.5 12.4L24.65 12.3L24.55 9.05L24.6 8.9Q24.65 7.85 25.7 7.7L28.75 7.9Q30.25 8.2 31.1 8.75Q31.9 9.25 32 9.6L32.15 12.25L31.95 20.45Q33.15 23.45 32.9 26.6Q32.65 29.75 29.45 31.7Q29.45 35.2 29.1 37L29.1 37.05L28 37.2M26.1,31.95L26.15 31.7Q26.8 31.75 26.75 33.2L26.6 34.5L26.55 34L26.3 33.9Q25.45 36.4 24.9 36.55L25.25 35.4L26.1 31.95" />
<path style="fill:#4A4131;fill-opacity:1" d="M15.2,18.65Q14.75 19.6 14.6 20.45L14.6 20.55Q14.45 21.55 14.8 22.35Q17.25 23.4 18.3 25.55Q19.05 27.2 18.2 28.55Q16.9 30.5 17.4 30.95Q17.85 31.35 19.55 31.55L21.65 32L21.8 32.15L21.8 32.2L21.85 32.2L22.1 33.15L21.95 35.75Q21.75 37.45 22 37.75L23.2 38.3Q24.1 38.6 24.4 37.9L24.9 36.55Q25.45 36.4 26.3 33.9L26.55 34L26.6 34.5L25.6 38.15Q25.85 38.7 27.7 38.6L28 37.2L29.1 37.05L28.45 39.35Q27.85 39.9 26.3 39.65L25 39.25L22.95 39.4Q21.15 38.75 20.95 38.4Q20.75 38 20.85 37.05L21 33Q17.1 32.55 16.3 31.6Q15.45 30.6 16.25 29.25L17.3 26.85Q16.8 25.05 15.75 24.4L13.95 23.4Q13.25 23 13.45 20.5Q13.65 18 15.55 17.3Q17.4 16.6 19.15 14.85L20.95 13.35Q20.15 13.95 19.9 14.8L19.45 16.15Q17.45 18.3 15.2 18.65" />
<path style="fill:#D0C4AA;fill-opacity:1" d="M23.4,17.6L21.65 17.5Q20.95 17.95 20.9 20.05Q20.8 22.1 21.2 22.8L21.25 22.85L21.15 23.55Q21.15 24.5 22.6 25.4L22.45 28.25L22.8 28.5Q22.15 28.65 22.4 29.45L22.45 29.55Q22.9 29.75 23.35 29.55L23.65 29.4L23.75 29.2L24.85 29.95L25.1 26.45L26.2 26.55Q27.9 26.55 27.95 25.65Q28.45 25.55 28.7 25.2Q29.25 24.45 28.6 22.8Q27.95 21.1 26.4 19.7L25.3 18.75L25.3 15.75L26.2 17L26.3 17L26.65 14.1L26.45 12.15Q26.45 11.75 26.85 11.6Q27.25 11.4 27.25 11L27.1 10Q29.1 10.75 29.6 11.3Q30 11.75 30 13.5Q30 15.85 29.4 21.25Q29.4 22.05 30.25 23.45Q31.05 24.85 31.05 25.6Q31.05 27.55 30 28.75L27.6 30.7L27.3 34.25L27 37.2Q26.3 37.1 26.3 36.65L26.65 35.4L26.6 34.5L26.75 33.2Q26.8 31.75 26.15 31.7L26.1 31.95L23.85 36.1L23.4 35.6L23.1 35.15L23.45 32.55L23.45 32.25L23.2 32.35L23.05 32.2Q22.85 31.9 22.9 31.6L22.3 31.45L22.3 31.35Q22.15 30.9 22.35 30.7Q21.8 30.25 21.1 30.15Q20.8 30.8 20 30.5L19.95 30.45L19.95 29.9L19.55 29.6L19.4 29.6L19.75 28.85Q20.25 28 20.25 27.2L20 26.05L19.2 26.1L19.15 26Q19.05 25.6 19.35 25.45L18.75 24.5L17.55 22.95L16.8 22.25L16.9 21.6L16.25 21.65L16.15 21.55Q15.7 20.65 16.55 20.3L17 20.75L17.1 19.55Q17.1 18.95 17.85 18.65L18.85 17.9L19.45 16.15L19.8 15.75Q21.3 13.9 23.5 13.5L23.4 17.6M14.6,20.55L14.6 20.45L15.05 20L15.15 20.1Q15.95 20.85 14.9 21.1L14.85 21.1Q14.55 20.8 14.6 20.55M28.8,15.85L28.8 15.75L28.4 15.55Q27.5 16.5 28.1 17.8L28.25 17.9L28.65 17.35Q29.05 17.45 29.55 17.15L29.65 17.05Q29.5 16.5 28.9 16.35L28.85 16.35L28.8 15.85M21.55,14.6L21.4 14.55Q20.25 14.7 20.75 15.8L20.85 15.9Q22.05 16 21.8 14.75L21.55 14.6M18.4,21.45Q17.9 21.4 17.8 21.85L17.8 21.9Q18.35 22.7 18.8 21.9L18.6 21.5L18.4 21.45M27.45,29.15Q28.45 28.9 27.7 28.15L27.6 28.05Q26.8 28.45 27.4 29.15L27.45 29.15M24.15,31.9L23.8 31.95L23.7 32.05Q23.5 32.35 23.65 32.7L23.75 32.9Q25.05 32.95 24.25 31.95L24.15 31.9M22.35,36.25Q22.25 35.65 22.85 35.45L22.95 35.55Q23.65 36.7 22.4 36.35L22.35 36.25" />
<path style="fill:#F7F7F3;fill-opacity:1" d="M27.15,8.9L27.2 8.9Q28.7 8.9 30.9 9.95Q31.1 13.25 30.9 16.7Q30.7 20.15 30.9 20.75L31.4 22.25L31.9 24.6Q32.05 26 31.7 27.25Q31.3 28.5 30.2 29.5L28.7 30.75Q28.25 31 28.3 32.6L28.15 36.15L28 37.2L27.7 37.25L27 37.2L27.3 34.25L27.6 30.7L30 28.75Q31.05 27.55 31.05 25.6Q31.05 24.85 30.25 23.45Q29.4 22.05 29.4 21.25Q30 15.85 30 13.5Q30 11.75 29.6 11.3Q29.1 10.75 27.1 10Q27 9.05 27.15 8.9M23.85,36.1L26.1 31.95L25.25 35.4L24.9 36.55L24.8 36.55Q24.35 36.55 23.85 36.1M25.2,25.15L26.4 25.5L27.95 25.65Q27.9 26.55 26.2 26.55L25.1 26.45L25.2 25.15M22.6,25.4Q21.15 24.5 21.15 23.55L21.25 22.85Q21.6 23.45 22.7 24.1L22.6 25.4" />
<path style="fill:#BFA172;fill-opacity:1" d="M25.35,14.55L25.35 14.6L25.45 14.65L25.85 9.05L27.2 8.9L27.15 8.9Q27 9.05 27.1 10L27.25 11Q27.25 11.4 26.85 11.6Q26.45 11.75 26.45 12.15L26.65 14.1L26.3 17L26.2 17L25.3 15.75L25.35 14.55M27,37.2L27.7 37.25L28 37.2L27.7 38.6Q25.85 38.7 25.6 38.15L26.6 34.5L26.65 35.4L26.3 36.65Q26.3 37.1 27 37.2M24.8,36.55L24.9 36.55L24.4 37.9Q24.1 38.6 23.2 38.3L22 37.75Q21.75 37.45 21.95 35.75L22.1 33.15L21.85 32.2L21.8 32.2L21.8 32.15L21.65 32L19.55 31.55Q17.85 31.35 17.4 30.95Q16.9 30.5 18.2 28.55Q19.05 27.2 18.3 25.55Q17.25 23.4 14.8 22.35Q14.45 21.55 14.6 20.55Q14.55 20.8 14.85 21.1L14.9 21.1Q15.95 20.85 15.15 20.1L15.05 20L14.6 20.45Q14.75 19.6 15.2 18.65Q17.45 18.3 19.45 16.15L18.85 17.9L17.85 18.65Q17.1 18.95 17.1 19.55L17 20.75L16.55 20.3Q15.7 20.65 16.15 21.55L16.25 21.65L16.9 21.6L16.8 22.25L17.55 22.95L18.75 24.5L19.35 25.45Q19.05 25.6 19.15 26L19.2 26.1L20 26.05L20.25 27.2Q20.25 28 19.75 28.85L19.4 29.6L19.55 29.6L19.95 29.9L19.95 30.45L20 30.5Q20.8 30.8 21.1 30.15Q21.8 30.25 22.35 30.7Q22.15 30.9 22.3 31.35L22.3 31.45L22.9 31.6Q22.85 31.9 23.05 32.2L23.2 32.35L23.45 32.25L23.45 32.55L23.1 35.15L23.4 35.6L23.85 36.1Q24.35 36.55 24.8 36.55M23.75,29.2L23.65 29.4L23.35 29.55Q22.9 29.75 22.45 29.55L22.4 29.45Q22.15 28.65 22.8 28.5L23.75 29.2M28.85,16.35L28.9 16.35Q29.5 16.5 29.65 17.05L29.55 17.15Q29.05 17.45 28.65 17.35L28.25 17.9L28.1 17.8Q27.5 16.5 28.4 15.55L28.8 15.75L28.8 15.85L28.85 16.35M21.8,14.75Q22.05 16 20.85 15.9L20.75 15.8Q20.25 14.7 21.4 14.55L21.55 14.6L21.8 14.75M18.6,21.5L18.8 21.9Q18.35 22.7 17.8 21.9L17.8 21.85Q17.9 21.4 18.4 21.45L18.6 21.5M27.4,29.15Q26.8 28.45 27.6 28.05L27.7 28.15Q28.45 28.9 27.45 29.15L27.4 29.15M24.25,31.95Q25.05 32.95 23.75 32.9L23.65 32.7Q23.5 32.35 23.7 32.05L23.8 31.95L24.15 31.9L24.25 31.95M22.4,36.35Q23.65 36.7 22.95 35.55L22.85 35.45Q22.25 35.65 22.35 36.25L22.4 36.35" />
<path style="fill:#3F3629;fill-opacity:1" d="M26.4,25.5L25.2 25.15L23.1 24.3L22.7 24.1Q21.6 23.45 21.25 22.85L21.2 22.8Q20.8 22.1 20.9 20.05Q20.95 17.95 21.65 17.5L23.4 17.6L23.55 17.65L25.3 18.75L26.4 19.7Q27.95 21.1 28.6 22.8Q29.25 24.45 28.7 25.2Q28.45 25.55 27.95 25.65L26.4 25.5" />
<path style="fill:#BB482E;fill-opacity:1" d="M25.3,15.75L25.3 18.75L23.55 17.65L23.4 17.6L23.5 13.5L24.35 13.4L24.6 13.4L24.95 14L25.35 14.55L25.3 15.75M22.8,28.5L22.45 28.25L22.6 25.4L23.1 25.65L25.1 26.45L24.85 29.95L23.75 29.2L22.8 28.5" />
<path style="fill:#EE7557;fill-opacity:1" d="M25.1,26.45L23.1 25.65L22.6 25.4L22.7 24.1L23.1 24.3L25.2 25.15L25.1 26.45" />
</g>
</svg>
