<?xml version="1.0" encoding="utf-8"?>
<svg version="1.1" id="Layer_1"
xmlns="http://www.w3.org/2000/svg"
xmlns:xlink="http://www.w3.org/1999/xlink"
xmlns:author="http://www.sothink.com"
width="18px" height="15px"
xml:space="preserve">
<g id="289" transform="matrix(1, 0, 0, 1, 0, 0)">
<path style="fill:#94722A;fill-opacity:1" d="M11.9,5.55Q13 5 13.65 5.35Q14.5 5.6 15.4 6.85Q16.6 8.3 16.6 9.7L15.65 8L14.85 7.05Q13.85 6.2 12.75 5.9L11.65 5.75L11.65 5.7L11.9 5.55M1.3,1.55L6.9 1.7L10.55 4L11.25 5L11.2 5L11.1 5.1L10.35 4.55L8.85 3.9L8.45 4.1L8.05 4.4L8.05 3.8L8.25 3.15Q8.25 3 6.9 2.5L5.05 1.9L4.15 1.9L4.05 2.5L3 2.1L2.2 2.1Q1.8 2.1 1.15 2.6L1 2.75Q0.95 1.9 1.3 1.55" />
<path style="fill:#312609;fill-opacity:1" d="M10.35,6.75Q9.15 8.1 9.25 10.25Q9.2 11.5 9.7 12.3L10.3 13Q11.2 13.6 12.15 13.35L12.35 13.3L13.6 12.4L14.75 12.25L15.65 11.9Q16.25 11.1 16.45 10.3L16.6 9.7Q16.6 8.3 15.4 6.85Q14.5 5.6 13.65 5.35Q13 5 11.9 5.55L11.65 5.7L11.6 5.75L10.45 6.6L10.45 6.65L10.35 6.75M3.15,7.55Q4.8 9.15 8.35 9.95L8.8 8.05L9.4 6.65Q9.85 5.85 11.1 5.1L11.2 5L11.25 5L10.55 4L6.9 1.7L1.3 1.55Q0.95 1.9 1 2.75L1.05 3.7L1.1 4Q1.5 5.9 3.15 7.55M12.3,4.45L13.4 4.3L14.55 4.65L16.15 6.25Q17.4 7.6 17.4 9.3L17.4 9.4L17.15 11L16.4 12.3Q15.85 13.05 15 13.05Q14.2 13.05 13.65 13.6Q13.15 14.1 11.95 14.25Q10.75 14.45 10.15 13.9L9.1 12.85Q8.65 12.25 8.45 11.15L8.45 11.05L8.25 10.85Q6.85 10.75 5.2 10.05Q3.15 9.15 2.15 8.05Q1.15 6.9 0.55 5.5L0.5 5.3L0.2 4.35Q-0.05 3.45 0.05 2.5L0.05 2.3Q0.15 0.85 0.6 0.6Q1.1 0.3 1.85 0.15L4.2 0.05Q5.85 0.1 8.3 1.35Q10.75 2.6 11.4 3.4L12.3 4.45" />
<path style="fill:#4F3D08;fill-opacity:1" d="M10.45,6.65Q10.2 7.2 10.2 7.85L10.25 9.1Q10.5 10.45 10.85 11L11.9 11.85Q13.7 10.4 14.75 10.55L15.45 10.6L16.45 10.3Q16.25 11.1 15.65 11.9L14.75 12.25L13.6 12.4L12.35 13.3L12.15 13.35Q11.2 13.6 10.3 13L9.7 12.3Q9.2 11.5 9.25 10.25Q9.15 8.1 10.35 6.75L10.45 6.65M1.1,4L1.2 4.3L1.75 5Q2.6 5.9 4.55 6.9L6.45 7.9L6.55 7.9L6 6.8L5.55 5.6L5.55 5.5Q6.75 6.95 8.7 8L8.8 8.05L8.35 9.95Q4.8 9.15 3.15 7.55Q1.5 5.9 1.1 4" />
<path style="fill:#644F12;fill-opacity:1" d="M16.45,10.3L15.45 10.6L14.75 10.55Q13.7 10.4 11.9 11.85L10.85 11Q10.5 10.45 10.25 9.1L10.2 7.85Q10.2 7.2 10.45 6.65L10.45 6.6L11.6 5.75L11.65 5.7L11.65 5.75L12.75 5.9Q13.85 6.2 14.85 7.05L15.65 8L16.6 9.7L16.45 10.3M9.4,6.65L8.8 8.05L8.7 8Q6.75 6.95 5.55 5.5L5.55 5.6L6 6.8L6.55 7.9L6.45 7.9L4.55 6.9Q2.6 5.9 1.75 5L1.2 4.3L1.1 4L1.05 3.7L1 2.75L1.15 2.6Q1.8 2.1 2.2 2.1L3 2.1L4.05 2.5L4.15 1.9L5.05 1.9L6.9 2.5Q8.25 3 8.25 3.15L8.05 3.8L8.05 4.4L8.45 4.1L8.85 3.9L10.35 4.55L11.1 5.1Q9.85 5.85 9.4 6.65" />
</g>
</svg>
