<?xml version="1.0" encoding="utf-8"?>
<svg version="1.1" id="Layer_1"
xmlns="http://www.w3.org/2000/svg"
xmlns:xlink="http://www.w3.org/1999/xlink"
xmlns:author="http://www.sothink.com"
width="39px" height="21px"
xml:space="preserve">
<g id="2687" transform="matrix(1, 0, 0, 1, -24.3, -3.35)">
<path style="fill:#FFFFFF;fill-opacity:1" d="M41.25,18.85Q39.35 17.25 38.5 15.05L38.85 16.1Q36.85 12.4 37.35 9.85Q37.3 8.7 39.6 5.95L39.35 4.15L36.35 3.9L24.55 4.4Q24.25 4.4 24.3 4.15L26.3 3.85L30.35 3.4L35.9 3.4L37.95 3.45L38.85 3.55Q39.75 3.75 39.85 4.05L39.9 4.4L39.95 4.9L39.95 6.65L39.85 6.75L39.8 6.65L38.2 9.7Q38 11.5 38.1 13.3L42.2 18.95L46.9 22.2L47.9 22.9L42.65 19.9L41.25 18.85M60.7,14.8Q63.25 15.1 62.5 17.65Q61.4 14.9 59.7 15.9Q58.6 16.2 55.45 18.1Q52.3 20 50.9 22.05Q49.45 24.1 49.4 23.7Q52.05 18.9 57.65 15.7Q58.5 14.9 60.7 14.8" />
</g>
</svg>
