<?xml version="1.0" encoding="utf-8"?>
<svg version="1.1" id="Layer_1"
xmlns="http://www.w3.org/2000/svg"
xmlns:xlink="http://www.w3.org/1999/xlink"
xmlns:author="http://www.sothink.com"
width="195px" height="90px"
xml:space="preserve">
<g id="1668" transform="matrix(1, 0, 0, 1, 0, 0)">
<linearGradient
id="LinearGradID_1881" gradientUnits="userSpaceOnUse" gradientTransform="matrix(-0.104904, -0.0357513, 0.0261993, -0.076889, 170.15, 73.6)" spreadMethod ="pad" x1="-819.2" y1="0" x2="819.2" y2="0" >
<stop  offset="0" style="stop-color:#FFFFFF;stop-opacity:0.301961" />
<stop  offset="1" style="stop-color:#FFFFFF;stop-opacity:0.0509804" />
</linearGradient>
<path style="fill:url(#LinearGradID_1881) " d="M183.25,80.7Q181.95 80.9 182.7 81.55Q186.1 84.55 183.25 80.7M166.5,71.2Q166.05 71.2 166.1 71.5Q166.45 75.8 171.2 79.4Q172 80 172 79.4Q171.85 74.5 166.5 71.2M151,2.6L194.25 89.6Q194.5 89.85 0 85.85L21.85 73.15Q24.95 75.5 28.3 77.2Q29.35 77.7 29.2 76.7Q28.75 73.05 26.85 70.25L39.35 63.15Q42 65.05 44.45 67.5Q46.85 69.9 47.5 69.65Q48.1 69.35 48.8 63Q47.5 50.85 54.6 56.25Q57.25 58.5 60.9 62.1Q64.55 65.75 66.25 65.6Q67.95 65.45 66.8 61.8Q65.55 58.1 65.1 53.8Q64.6 49.5 83.55 37.4Q89.6 36.45 94.65 40.55Q99.7 44.6 100.5 43.55Q101.3 42.45 100.3 38.9Q99.3 35.35 97.9 32.5Q97.3 23.55 105.8 25.75Q108.45 27.5 110.65 30.8Q113.85 35.5 118.55 37.1Q119.65 37.45 118.55 35.1Q117.45 32.75 114.15 22.35Q110.9 8.1 130.15 27.4Q133.3 29.6 133.15 27.55Q133 25.5 130.7 19.5Q128.35 13.45 129.2 10.75Q130 8 134.55 12.05Q139.1 16.1 142.05 19.95Q145 23.75 147.2 25.4Q149.35 26.95 147.3 20.3L142.5 5.85Q141.3 -3.85 151 2.6M137.6,48.3Q134.4 38.85 125.75 32.95Q123.8 33.1 124.1 34.9Q124.8 39.95 128.5 44.05Q132.1 48.1 136.8 49.05Q137.95 49.25 137.6 48.3M151.35,45.35Q153.75 52 157.9 56.6Q162.1 61.15 162.75 57.9Q163.4 54.65 153 40.95Q148.9 38.65 151.35 45.35M102.25,54.7Q99.5 56.7 102.7 58.8Q103.4 59.25 103.8 59.2Q108.15 58.45 102.25 54.7M101.8,76.8Q103 77.65 104.05 77Q110.15 73.6 101.75 70.3Q96.6 73.3 101.8 76.8M83.95,80.45Q84.75 75.5 78.75 72.2L78.2 72.4Q77.7 72.6 77.55 73.1Q79.45 77.05 83.15 80.3Q83.85 80.95 83.95 80.45M126.9,77.05Q128.2 73 122.5 70.45L121.95 70.65Q121.5 70.85 121.3 71.35Q122.6 74.7 125.85 77.05Q126.7 77.7 126.9 77.05M123.3,52.15Q117.55 45.65 117.75 48.2Q117.9 50.6 121.4 55.3Q124.8 59.75 127.6 59.1Q129.05 58.75 123.3 52.15M150.55,76Q151.15 75.1 147 69.4Q142.85 63.7 142 65.25Q140.95 67.15 145.3 72.4Q149.6 77.5 150.55 76M79.95,62.4Q81.55 63.1 81.85 61.75Q83.4 55.15 76.75 51.95Q76.35 52.05 76.15 52.35Q72.25 58.95 79.95 62.4M58.8,81.1Q65.6 80 59.25 76.3Q55.9 77.05 57.3 80.2Q57.8 81.25 58.8 81.1" />
</g>
</svg>
