<?xml version="1.0" encoding="utf-8"?>
<svg version="1.1" id="Layer_1"
xmlns="http://www.w3.org/2000/svg"
xmlns:xlink="http://www.w3.org/1999/xlink"
xmlns:author="http://www.sothink.com"
width="28px" height="25px"
xml:space="preserve">
<g id="1821" transform="matrix(1, 0, 0, 1, -1, 0.1)">
<path style="fill:#694817;fill-opacity:1" d="M24.1,3.85Q25.85 5.6 26.95 8.25L27.75 10.85L27.8 11.05L27.95 11.95L27.95 12.25L28 13.05L28.05 13.55L28.05 14.4L27.95 15.25Q27.95 15.85 26.85 17.6Q21 27 9.75 23.9Q8.35 23.5 6.6 22.35L5.25 21.45Q3 19.85 2.15 17.85L1.25 15.4L1.05 13.45Q0.95 11.9 1.1 10.55Q1.25 9.2 1.7 8L1.85 7.65Q2.2 6.75 2.7 5.95L3.2 5.2L4.25 3.95L5.6 2.7L5.7 2.65Q8.55 0.65 11.4 0.2L16.5 0Q18.8 0.25 20.55 1.15Q22.3 2.05 24.1 3.85M6.65,3.35L6.5 3.4L5.45 4.3L4.2 5.6L3.75 6.3L3.75 6.35L3.15 7.55L2.7 8.85L2.5 9.55L2.2 10.95Q1.95 12.5 2.1 14.05L2.55 15.8Q2.55 16.05 3.1 16.9L4 18.25Q6.7 22 11.15 22.95L11.7 23.05Q15.65 23.7 20.25 21.95Q23.05 20.9 24.6 19.05Q25.9 17.5 26.85 14.5L26.95 14.1L26.75 11.85L26.55 11L26.35 10.45L26.15 9.7L26 9.2Q24.8 6.1 23.2 4.5L21.45 3Q20.2 2.2 19.15 1.75L17.8 1.3L12.6 1.05L10.85 1.4L9.2 1.9L8.9 2.05Q8.55 2.1 7.55 2.7L7.3 2.85Q6.5 3.25 6.65 3.35M8.9,2.05L8.95 2L8.9 2.05" />
<path style="fill:#FBF734;fill-opacity:1" d="M25.9,9.15Q25.05 8.55 24.25 8.3L23.15 8.1L22.35 7.9L21.8 7.8L21.8 7.7L22.55 7.25L22.25 6.65L20.75 5.05L19.3 3.75L18.25 3.4L16.9 3.5L16.8 3.5L16.65 3.45L16.45 3.55L16.25 3.55L16.4 3.55Q14.85 4.25 14.5 6L14.45 5.55Q14.3 4.2 15 3.1L14.8 3.05L14.65 3.05Q13.35 3.2 12.4 3.95L11.75 4.55Q11.7 4.05 12.55 2.95L13.1 2.4L13.1 2.35L13 2.35L12.9 2.4L12.85 2.4L12.9 2.35L12.2 2.3L12.15 2.3L10.25 2.15L7.3 2.85L7.55 2.7Q8.55 2.1 8.9 2.05L9.2 1.9L10.85 1.4L12.6 1.05L17.8 1.3L19.15 1.75Q20.2 2.2 21.45 3L23.2 4.5Q24.8 6.1 26 9.2L25.9 9.15" />
<path style="fill:#FED009;fill-opacity:1" d="M25.4,11.35L25.4 11.45L25.5 11.85Q25.4 12.65 23.5 13.45L22.55 11.75L22.45 11.65L21.15 10.35L20.7 10L20.1 10.95L19.25 11.9L18.9 12.2L17.8 13.25Q17.35 13.7 16.65 12.5Q15.65 11.6 15.55 10.5Q15.2 10.8 14.15 12.75L13.85 12.55L13.8 12.65L13.6 12.35Q12.65 11.4 12.55 10.3L11.65 11.2L10.8 12.5L10.05 10.95L9.85 10.6L9.35 9.25L9.4 8.8L7.8 9.95L7.65 10.05L7.6 10.1Q6.35 11.4 6.35 12.9L6.4 13.2L5.7 12.4L5.55 12.15Q4.65 10.85 4.65 9.7L4.75 9.4L4 9.9Q3.25 10.45 2.9 11.4Q2.5 12.5 2.7 14.1L2.1 14.05Q1.95 12.5 2.2 10.95L2.5 9.55L2.7 8.85L3.15 7.55L3.75 6.35L3.75 6.3L4.2 5.6L5.45 4.3L6.5 3.4L6.65 3.35Q6.5 3.25 7.3 2.85L10.25 2.15L12.15 2.3L12.2 2.3L12.9 2.35L12.85 2.4L12.9 2.4L13 2.35L13.1 2.35L13.1 2.4L12.55 2.95Q11.7 4.05 11.75 4.55L12.4 3.95Q13.35 3.2 14.65 3.05L14.8 3.05L15 3.1Q14.3 4.2 14.45 5.55L14.5 6Q14.85 4.25 16.4 3.55L16.25 3.55L16.45 3.55L16.65 3.45L16.8 3.5L16.9 3.5L18.25 3.4L19.3 3.75L20.75 5.05L22.25 6.65L22.55 7.25L21.8 7.7L21.8 7.8L22.35 7.9L23.15 8.1L24.25 8.3Q25.05 8.55 25.9 9.15L26 9.2L26.15 9.7L26.35 10.45L26.55 11L26.75 11.85Q26.15 11.5 25.4 11.35M16,10.05L16.05 10.05L16.05 9.8L16 10.05M8.95,2L8.9 2.05L8.95 2" />
<path style="fill:#D48D01;fill-opacity:1" d="M26.75,11.85L26.95 14.1L26.85 14.5Q25.9 17.5 24.6 19.05Q23.05 20.9 20.25 21.95Q15.65 23.7 11.7 23.05L11.15 22.95Q6.7 22 4 18.25L3.1 16.9Q2.55 16.05 2.55 15.8L2.1 14.05L2.7 14.1Q2.5 12.5 2.9 11.4Q3.25 10.45 4 9.9L4.75 9.4L4.65 9.7Q4.65 10.85 5.55 12.15L5.7 12.4L6.4 13.2L6.35 12.9Q6.35 11.4 7.6 10.1L7.65 10.05L7.8 9.95L9.4 8.8L9.35 9.25L9.85 10.6L10.05 10.95L10.8 12.5L11.65 11.2L12.55 10.3Q12.65 11.4 13.6 12.35L13.8 12.65L13.85 12.55L14.15 12.75Q15.2 10.8 15.55 10.5Q15.65 11.6 16.65 12.5Q17.35 13.7 17.8 13.25L18.9 12.2L19.25 11.9L20.1 10.95L20.7 10L21.15 10.35L22.45 11.65L22.55 11.75L23.5 13.45Q25.4 12.65 25.5 11.85L25.4 11.45L25.4 11.35Q26.15 11.5 26.75 11.85M16.05,9.8L16.05 10.05L16 10.05L16.05 9.8" />
</g>
</svg>
