<?xml version="1.0" encoding="utf-8"?>
<svg version="1.1" id="Layer_1"
xmlns="http://www.w3.org/2000/svg"
xmlns:xlink="http://www.w3.org/1999/xlink"
xmlns:author="http://www.sothink.com"
width="119px" height="139px"
xml:space="preserve">
<g id="499" transform="matrix(1, 0, 0, 1, 0, 0)">
<path style="fill:#FFFFFF;fill-opacity:1" d="M94,42.3Q90.6 48.2 90.6 52.05Q90.6 59.5 98.75 62.65L104.3 64.85Q106.85 66.3 106.85 68.7Q106.85 73.85 86.35 102.65Q65.75 131.6 61.5 131.6Q38.25 131.6 24.75 119.7Q9.35 106.15 9.35 79.05Q9.35 73.15 12.9 50.8L17 25.6Q19.75 25.7 23.9 29L28.75 28.15Q32.25 27.3 33.25 27.3L41.2 27.4L52.05 27.3Q58.8 26.95 63.05 21.5L65.5 17.8Q66.55 16.15 67 16.15Q71.3 16.15 84.55 23.9Q97.4 31.35 97.4 32.8Q97.4 36.4 94 42.3M26.25,62.4Q21.85 64.65 23.55 69.8Q24.8 73.75 26.7 73.65Q45.6 73.2 26.25 62.4M61.85,75.4Q59.15 76.65 59.25 80.2Q59.35 89.2 66.5 87.9Q92.4 83 61.85 75.4M75.85,53.65Q98 43.1 72.7 29.9Q67.65 38.5 72.85 50.8Q74.35 54.45 75.85 53.65M66.5,124.8L67.55 124.6Q61.4 122.05 54.05 121.65L53.9 121.8Q60.1 124.65 66.5 124.8M48.95,99.45Q43.85 102.45 46.5 108.4Q48.35 112.6 50.25 112.5Q71.2 111.3 48.95 99.45" />
<path style="fill:#FAEE2A;fill-opacity:1" d="M97.4,32.8Q97.4 31.35 84.55 23.9Q71.3 16.15 67 16.15Q66.55 16.15 65.5 17.8L63.05 21.5Q58.8 26.95 52.05 27.3L41.2 27.4L33.25 27.3Q32.25 27.3 28.75 28.15L23.9 29Q19.75 25.7 17 25.6L12.9 50.8Q9.35 73.15 9.35 79.05Q9.35 106.15 24.75 119.7Q38.25 131.6 61.5 131.6Q65.75 131.6 86.35 102.65Q106.85 73.85 106.85 68.7Q106.85 66.3 104.3 64.85L98.75 62.65Q90.6 59.5 90.6 52.05Q90.6 48.2 94 42.3Q97.4 36.4 97.4 32.8M110,31.7Q108.85 44.45 100.45 51.65Q132.85 58.75 105.7 93.55Q96.95 104.75 89.25 116.15Q85.8 121.2 79.55 124.2Q70.6 146 44.4 134.2Q41.2 132.75 36.65 133.2Q14.95 135.5 12.75 114.6Q-7.1 88.4 3.9 51.4L15.65 10.65Q26.8 11.1 33.85 21L34.15 21.45Q44.65 18 55.85 15.7Q56.1 -8.1 73.15 4.2Q73.95 4.75 74.45 5.85Q84.65 4.85 93.1 14.25Q113.1 -2.1 110 31.7M26.7,73.65Q24.8 73.75 23.55 69.8Q21.85 64.65 26.25 62.4Q45.6 73.2 26.7 73.65M66.5,87.9Q59.35 89.2 59.25 80.2Q59.15 76.65 61.85 75.4Q92.4 83 66.5 87.9M72.85,50.8Q67.65 38.5 72.7 29.9Q98 43.1 75.85 53.65Q74.35 54.45 72.85 50.8M50.25,112.5Q48.35 112.6 46.5 108.4Q43.85 102.45 48.95 99.45Q71.2 111.3 50.25 112.5" />
</g>
</svg>
