<?xml version="1.0" encoding="utf-8"?>
<svg version="1.1" id="Layer_1"
xmlns="http://www.w3.org/2000/svg"
xmlns:xlink="http://www.w3.org/1999/xlink"
xmlns:author="http://www.sothink.com"
width="69px" height="14px"
xml:space="preserve">
<g id="3093" transform="matrix(1, 0, 0, 1, -0.3, -0.55)">
<linearGradient
id="LinearGradID_2898" gradientUnits="userSpaceOnUse" gradientTransform="matrix(0, 0.00610352, -0.00656128, 0, 5.7, 8)" spreadMethod ="pad" x1="-819.2" y1="0" x2="819.2" y2="0" >
<stop  offset="0" style="stop-color:#FFF980;stop-opacity:1" />
<stop  offset="1" style="stop-color:#E7950A;stop-opacity:1" />
</linearGradient>
<path style="fill:url(#LinearGradID_2898) " d="M66.3,1.1Q66.8 0.55 67.6 0.55Q68.6 0.55 68.95 1.35L68.95 1.3Q69.25 1.85 69.25 2.9L69.2 4.05L68.85 8L68.55 9.25L67.5 9.9Q66.7 9.9 66.45 9.25L66.45 9.3L66.15 7.95L65.9 4.15L65.8 2.5Q65.8 1.6 66.3 1.15L66.3 1.1M69.25,12Q69.25 12.8 68.75 13.25L67.55 13.7Q66.9 13.7 66.4 13.25Q65.8 12.8 65.8 12Q65.8 11.3 66.3 10.8Q66.8 10.3 67.5 10.3Q68.2 10.3 68.75 10.8Q69.25 11.3 69.25 12M58.1,0.55Q58.8 0.55 59.2 1L59.25 1.05Q59.75 1.4 59.75 2.1Q59.8 2.75 59.05 3.5L59.05 3.55L56.5 5.95L59.55 10.35L59.55 10.4L60.1 11.3L60.35 12.25L59.9 13.25L59.9 13.3Q59.4 13.7 58.7 13.7L57.65 13.45Q57.15 13.15 56.9 12.65L56.95 12.65L56.55 12.1L54.05 8.25L52.7 9.55L52.7 11.75Q52.7 12.75 52.3 13.2L52.25 13.2Q51.75 13.7 51 13.7L50.2 13.5L50.25 13.5L49.55 12.85L49.35 12.2L49.35 12.1L49.35 11.25L49.35 2.5Q49.35 1.6 49.8 1.15Q50.3 0.55 51 0.55Q51.8 0.55 52.3 1.15Q52.7 1.6 52.7 2.5L52.7 5.4L56.55 1.4L57.15 0.85Q57.5 0.55 58.1 0.55M47.55,4.6L47.1 5.7L46.05 6.15Q45.35 6.15 45.05 5.8L44.45 4.95L44.4 4.95L43.55 3.85L43.55 3.8Q43 3.45 42.2 3.45Q41 3.45 40.3 4.35Q39.5 5.4 39.5 7.25Q39.5 8.5 39.85 9.3Q40.2 10.05 40.8 10.45Q41.35 10.8 42.15 10.8Q43 10.8 43.65 10.4L44.5 9.15L44.9 8.3L44.95 8.25Q45.3 7.75 46.05 7.75Q46.65 7.75 47.1 8.2L47.55 9.3L47.3 10.7L47.25 10.7L46.35 12.15L46.3 12.15Q45.65 12.8 44.6 13.25L42.25 13.7L40.5 13.5L38.95 12.95L37.7 11.85L36.8 10.5L36.8 10.45L36.3 8.9L36.35 8.95L36.1 7.15Q36.1 5.65 36.6 4.45Q37 3.2 37.85 2.35Q38.75 1.45 39.85 1.05L39.8 1.05Q40.95 0.55 42.2 0.55Q43.8 0.55 45 1.2Q46.2 1.8 46.85 2.75Q47.55 3.75 47.55 4.6M34.05,3.7Q34.75 5.2 34.75 7.1Q34.75 8.6 34.4 9.75Q34 10.95 33.2 11.85L31.2 13.25L28.55 13.7L25.85 13.25L25.85 13.2Q24.7 12.7 23.9 11.85Q23.1 10.95 22.7 9.75L22.7 9.7Q22.3 8.5 22.3 7.1Q22.3 5.65 22.75 4.45Q23.1 3.25 23.95 2.35Q24.75 1.45 25.95 1.05L25.9 1.05Q27.05 0.55 28.5 0.55Q30.45 0.55 31.9 1.4Q33.35 2.2 34.05 3.7M31.35,7.1Q31.35 5.9 31 5.05Q30.65 4.3 30 3.9Q29.35 3.45 28.5 3.45Q27.9 3.45 27.45 3.7L27.4 3.75Q26.85 3.9 26.55 4.3L26.55 4.35L25.95 5.45Q25.7 6.2 25.7 7.1L25.95 8.75L26.55 9.95L27.4 10.6L28.5 10.8L29.95 10.45Q30.55 10.05 30.95 9.25Q31.35 8.35 31.35 7.1M21.85,12.05L21.4 13.1L21.4 13.15Q20.95 13.5 20.15 13.5L14.45 13.5Q13.4 13.5 13 13Q12.5 12.5 12.5 11.55L12.5 2.5Q12.5 1.6 12.95 1.15Q13.45 0.55 14.15 0.55Q14.95 0.55 15.45 1.15Q15.85 1.6 15.85 2.5L15.85 10.55L20.15 10.55Q20.95 10.55 21.4 11Q21.85 11.35 21.85 12.05M10.35,3.1L10.5 4.2Q10.5 5.8 9.35 6.75Q11.05 7.65 11.05 9.65Q11.05 10.8 10.5 11.75Q9.9 12.6 8.95 13.05L8.9 13.1L7.55 13.4L5.85 13.5L2.25 13.5Q1.25 13.5 0.8 13Q0.3 12.55 0.3 11.55L0.3 2.75Q0.3 1.7 0.8 1.25Q1.25 0.75 2.25 0.75L6.05 0.75L7.65 0.95L7.6 0.9Q8.35 1 8.9 1.4L9.75 2.1L10.3 3.05L10.35 3.1M6.6,5.45L7.1 5.05L7.2 4.55Q7.2 4 6.85 3.8L5.1 3.55L3.7 3.55L3.7 5.6L5.35 5.6L6.6 5.45M3.7,10.7L5.75 10.7Q7.6 10.7 7.65 9.5Q7.65 8.9 7.3 8.65Q6.75 8.3 5.65 8.3L3.7 8.3L3.7 10.7" />
<path style="fill:#FFFFFF;fill-opacity:1" d="M68.4,2.65Q66.95 3.5 66.35 2.1Q66.45 1.45 67.2 1.25L67.2 1.2Q68.4 1.45 68.45 2.6L68.4 2.65M67.65,10.75L67.65 10.7Q68.6 10.9 68.65 11.85L68.6 11.9Q67.4 12.6 66.95 11.45Q67 10.9 67.65 10.75M52.15,2.6L52.1 2.65Q50.65 3.5 50.05 2.1Q50.2 1.45 50.9 1.25L50.9 1.2Q52.1 1.45 52.15 2.6M57.8,1.25L57.8 1.2Q59 1.45 59.05 2.6L59 2.65Q57.55 3.5 56.95 2.1Q57.05 1.45 57.8 1.25M44.15,1.45L45.1 2.05Q45.5 2.75 44.5 2.55L39.7 2.8Q39 3.35 39.3 2.4Q40.2 0.8 43.5 1.2L44.15 1.45M29.65,1.2L30.3 1.45L31.25 2.05Q31.65 2.75 30.65 2.55L25.85 2.8Q25.15 3.35 25.45 2.4Q26.35 0.8 29.65 1.2M15.3,2.45L15.25 2.55L14.7 2.8Q13.65 3.1 13.2 1.95Q13.35 1.35 14.05 1.15L14.05 1.1L14.7 1.4Q15.25 1.7 15.3 2.45M9.15,2.8Q7.7 3.6 7.15 2.2Q7.25 1.6 7.95 1.4L7.95 1.35Q9.15 1.6 9.25 2.75L9.15 2.8M3.15,2.8Q1.6 3.6 1.05 2.2Q1.2 1.6 1.95 1.4L1.95 1.35Q3.15 1.6 3.15 2.75L3.15 2.8" />
</g>
</svg>
