<?xml version="1.0" encoding="utf-8"?>
<svg version="1.1" id="Layer_1"
xmlns="http://www.w3.org/2000/svg"
xmlns:xlink="http://www.w3.org/1999/xlink"
xmlns:author="http://www.sothink.com"
width="196px" height="42px"
xml:space="preserve">
<g id="877" transform="matrix(1, 0, 0, 1, 26.15, -2.3)">
<path style="fill:#620E07;fill-opacity:1" d="M5.6,3.85L-15.4 3.85Q-24.55 3.85 -24.55 12.85L-24.55 33.7L-24.55 34.1Q-24.3 42.65 -15.4 42.65L5.6 42.65L100.75 42.65L159.05 42.65Q167.9 42.55 168.15 34.1L168.15 12.85Q168.15 3.85 158.95 3.85L100.75 3.85L5.6 3.85M169.7,34.1Q169.5 44.15 158.95 44.15L-15.4 44.15Q-25.9 44.15 -26.15 34.1L-26.15 33.7L-26.15 12.85Q-26.15 6 -21.6 3.55Q-19.15 2.3 -15.4 2.3L158.95 2.3Q162.7 2.3 165.15 3.55Q169.7 6 169.7 12.85L169.7 34.1" />
<linearGradient
id="LinearGradID_1133" gradientUnits="userSpaceOnUse" gradientTransform="matrix(0.0102081, 0.0235443, -0.362854, 0.0101624, -17.1, 21.3)" spreadMethod ="pad" x1="-819.2" y1="0" x2="819.2" y2="0" >
<stop  offset="0.00392157" style="stop-color:#FCE0B7;stop-opacity:1" />
<stop  offset="0.419608" style="stop-color:#FA6250;stop-opacity:1" />
<stop  offset="1" style="stop-color:#8A140B;stop-opacity:1" />
</linearGradient>
<path style="fill:url(#LinearGradID_1133) " d="M100.75,3.85L158.95 3.85Q168.15 3.85 168.15 12.85L168.15 34.1Q167.9 42.55 159.05 42.65L100.75 42.65L100.75 39.7L158.95 39.55Q162.2 39.35 163.65 37.55Q165.15 35.7 165.2 34.45L165.2 31.35L165.2 15.5L165.2 15.1Q165 8.4 159.3 6.9L158.8 6.75L100.75 6.75L100.75 3.85" />
<linearGradient
id="LinearGradID_1134" gradientUnits="userSpaceOnUse" gradientTransform="matrix(0, 0.0163269, -0.00823975, 0, 89.6, 24.6)" spreadMethod ="pad" x1="-819.2" y1="0" x2="819.2" y2="0" >
<stop  offset="0" style="stop-color:#FA8D77;stop-opacity:1" />
<stop  offset="1" style="stop-color:#C92F24;stop-opacity:1" />
</linearGradient>
<path style="fill:url(#LinearGradID_1134) " d="M100.75,6.75L158.8 6.75L159.3 6.9Q165 8.4 165.2 15.1L165.2 15.5L165.2 31.35L165.2 34.45Q165.15 35.7 163.65 37.55Q162.2 39.35 158.95 39.55L100.75 39.7L100.75 6.75" />
<linearGradient
id="LinearGradID_1135" gradientUnits="userSpaceOnUse" gradientTransform="matrix(0, 0.0163269, -0.0363007, 0, 51.65, 24.6)" spreadMethod ="pad" x1="-819.2" y1="0" x2="819.2" y2="0" >
<stop  offset="0" style="stop-color:#FA8D77;stop-opacity:1" />
<stop  offset="1" style="stop-color:#C92F24;stop-opacity:1" />
</linearGradient>
<path style="fill:url(#LinearGradID_1135) " d="M100.75,6.75L100.75 39.7L7.45 39.7L7 39.7L5.6 39.7L5.6 6.75L100.75 6.75" />
<linearGradient
id="LinearGradID_1136" gradientUnits="userSpaceOnUse" gradientTransform="matrix(0.0449677, 0.0235443, -1.59839, 0.0101624, -418.4, 21.3)" spreadMethod ="pad" x1="-819.2" y1="0" x2="819.2" y2="0" >
<stop  offset="0.00392157" style="stop-color:#FCE0B7;stop-opacity:1" />
<stop  offset="0.419608" style="stop-color:#FA6250;stop-opacity:1" />
<stop  offset="1" style="stop-color:#8A140B;stop-opacity:1" />
</linearGradient>
<path style="fill:url(#LinearGradID_1136) " d="M100.75,39.7L100.75 42.65L5.6 42.65L5.6 39.75L5.6 39.7L7 39.7L7.45 39.7L100.75 39.7M5.6,6.75L5.6 3.85L100.75 3.85L100.75 6.75L5.6 6.75" />
<linearGradient
id="LinearGradID_1137" gradientUnits="userSpaceOnUse" gradientTransform="matrix(0, 0.0163269, -0.00823975, 0, 23.4, 24.6)" spreadMethod ="pad" x1="-819.2" y1="0" x2="819.2" y2="0" >
<stop  offset="0" style="stop-color:#FA8D77;stop-opacity:1" />
<stop  offset="1" style="stop-color:#C92F24;stop-opacity:1" />
</linearGradient>
<path style="fill:url(#LinearGradID_1137) " d="M5.6,39.7L5.6 39.75L-12.05 39.75Q-19.75 39.75 -21.2 34.1L-21.4 33.05L-21.55 31.35L-21.55 15.5L-21.55 15.1Q-21.3 6.75 -12.05 6.75L5.6 6.75L5.6 39.7" />
<linearGradient
id="LinearGradID_1138" gradientUnits="userSpaceOnUse" gradientTransform="matrix(0.0102081, 0.0235443, -0.362854, 0.0101624, -83.3, 21.3)" spreadMethod ="pad" x1="-819.2" y1="0" x2="819.2" y2="0" >
<stop  offset="0.00392157" style="stop-color:#FCE0B7;stop-opacity:1" />
<stop  offset="0.419608" style="stop-color:#FA6250;stop-opacity:1" />
<stop  offset="1" style="stop-color:#8A140B;stop-opacity:1" />
</linearGradient>
<path style="fill:url(#LinearGradID_1138) " d="M-15.4,42.65Q-24.3 42.65 -24.55 34.1L-24.55 33.7L-24.55 12.85Q-24.55 3.85 -15.4 3.85L5.6 3.85L5.6 6.75L-12.05 6.75Q-21.3 6.75 -21.55 15.1L-21.55 15.5L-21.55 31.35L-21.4 33.05L-21.2 34.1Q-19.75 39.75 -12.05 39.75L5.6 39.75L5.6 42.65L-15.4 42.65" />
</g>
</svg>
