<?xml version="1.0" encoding="utf-8"?>
<svg version="1.1" id="Layer_1"
xmlns="http://www.w3.org/2000/svg"
xmlns:xlink="http://www.w3.org/1999/xlink"
xmlns:author="http://www.sothink.com"
width="32px" height="37px"
xml:space="preserve">
<g id="506" transform="matrix(1, 0, 0, 1, 0, 0)">
<path style="fill:#C43B0D;fill-opacity:1" d="M10.9,33.55Q12.85 34.35 15.15 34.6L15.65 34.6Q18.35 34.7 20.85 33.8L20.8 33.8L21.4 33.65L21.8 33.35Q23.6 32.5 25.35 31L25.3 31L26.05 30.25Q28.15 27.9 29 24.95L29.15 24.05L29.2 24L29.5 22.2L29.5 22.15L29.5 21.2L29.5 20.65L29.5 20.05L29.05 17.2Q28 13.5 25.3 9.9L25.35 10.25L25.35 10.3Q25.45 11.9 24.5 14.05L24.3 14.25L24.05 14.3L23.8 14.2L23.65 14Q22.45 10.05 19.65 8.55L19.55 8.5Q15.75 5.1 17 1.65L16.6 1.8L16.55 1.8L15.3 2.15Q11.3 3.6 9.4 7.1Q8.8 8.35 8.5 9.7L8.5 9.75Q7.9 11.75 7.9 14.2L8 15.95L7.95 16.2L7.9 16.25L7.75 16.45L7.4 16.45Q4.35 15.5 4.55 12.1L4.55 11.5L3.75 12.55Q2.8 13.8 2.35 14.85Q1.55 16.85 1.65 19.8Q1.85 22.7 3.2 25.75Q4.7 28.75 6.2 30.25Q7.55 31.75 9.25 32.75Q10 33.25 10.9 33.55M24.45,10.35L24.35 8.85L23.6 6.05L24.75 6.8L24.8 6.85Q29.1 11.75 30.55 16.95L30.55 16.9Q31 18.4 31.1 20.1L31.1 21.2L31.1 22.5L30.75 24.5L30.1 26.8Q29 29.85 26.4 32.3Q24.45 34 22.4 35L22.35 35L22.2 35.25L21.95 35.3L21.85 35.3L21.4 35.4L21.4 35.45Q18.65 36.4 15.6 36.3Q9.1 36 5 31.5Q3.4 29.75 1.75 26.55L1.75 26.5Q0.2 23.15 0 19.95Q-0.1 16.6 0.8 14.35L0.8 14.3Q1.4 12.95 2.9 11.1Q4.75 9.55 5.85 5.55L5.45 12.1L5.45 12.15Q5.35 14.15 6.65 15.1L6.55 14.1Q6.55 11.3 7.25 9.05L7.2 9.1Q7.5 7.6 8.2 6.15L8.2 6.1Q10.75 1.5 16.45 0.35Q18.95 -0.35 22.35 0.4Q19.6 0.95 18.95 1.5Q18.2 2.05 18 2.7Q17.85 3.35 18.25 5.1Q18.65 6.9 20.1 7.75Q22.75 9.15 24.1 12.6L24.3 11.85L24.45 10.35" />
<path style="fill:#FF580D;fill-opacity:1" d="M28.5,17.35L26.5 13.95Q26.85 14.7 25.8 16Q24.75 17.15 24 17.15Q23.9 17.15 22.95 14.95Q21.8 12.25 20.35 10.9L16.9 7.05L14.2 3.9L13.5 5.45L12.7 6.8L12.35 6.2Q9.4 9.85 9.4 14.95L9.6 16.8L9.8 18.75L8.9 18.75Q6.15 18.3 5.3 17.5L4.25 15.9L3.75 14.85L3.5 16.4Q3.35 17.45 3.35 18.7Q3.35 24.15 5.3 27.75Q6.5 30.05 9.25 32.75Q7.55 31.75 6.2 30.25Q4.7 28.75 3.2 25.75Q1.85 22.7 1.65 19.8Q1.55 16.85 2.35 14.85Q2.8 13.8 3.75 12.55L4.55 11.5L4.55 12.1Q4.35 15.5 7.4 16.45L7.75 16.45L7.9 16.25L7.95 16.2L8 15.95L7.9 14.2Q7.9 11.75 8.5 9.75L8.5 9.7Q8.8 8.35 9.4 7.1Q11.3 3.6 15.3 2.15L16.55 1.8L16.6 1.8L17 1.65Q15.75 5.1 19.55 8.5L19.65 8.55Q22.45 10.05 23.65 14L23.8 14.2L24.05 14.3L24.3 14.25L24.5 14.05Q25.45 11.9 25.35 10.3L25.35 10.25L25.3 9.9Q28 13.5 29.05 17.2L29.5 20.05L29.5 20.65L28.5 17.35" />
<path style="fill:#FFF34F;fill-opacity:1" d="M29,24.95Q28.15 27.9 26.05 30.25L25.3 31L25.35 31Q23.6 32.5 21.8 33.35L21.4 33.65L20.8 33.8L20.85 33.8Q18.35 34.7 15.65 34.6L15.15 34.6Q12.85 34.35 10.9 33.55Q9.85 32.65 8.8 30.85Q7.65 29.15 7.85 27.3Q8 25.45 8.45 24.2Q8.9 22.95 9.6 22.95Q9.75 22.95 10.9 24Q12.1 25 12.45 25Q13.25 25 13.45 23.95Q13.6 22.8 14.2 22.7L15.45 22.35Q16.05 22.05 16.05 21.2Q16.05 20.7 15.45 19.65L14.75 18.4Q14.75 17.95 15.8 17.95Q17.95 17.95 19.75 20.5L21.75 23.05L22.2 22.5Q22.45 21.9 22.75 21.9Q23.15 21.9 23.5 22.55Q23.9 23.2 24.6 23.2L25.25 22.35Q25.6 21.55 26.25 21.55L27.75 22.7Q28.6 23.65 29 24.95M26.2,17.85L26.5 18.5Q26.5 19.45 25.7 19.45Q24.75 19.45 24.75 18.55L24.8 18.05Q24.95 17.7 25.55 17.7L26.2 17.85M14.35,10.6L16.2 10.55L16.6 10.6L16.75 11.1Q16.75 12.35 15.55 12.35Q14.2 12.35 14.2 11.3Q14.2 10.7 14.35 10.6M11.1,21.05Q10.35 21.05 10.35 20.45Q10.35 19.3 11.3 19.3L11.5 19.35L11.9 19.45L11.9 19.5L12.1 20.05Q12.1 21.05 11.1 21.05M17.55,25.25L17.65 25.45L18.25 25.4Q18.5 24.85 17.95 24.65L17.75 24.75L17.55 25.05L17.55 25.25M15.6,29.25L15.35 29.5Q15.2 29.9 15.3 30.35L15.75 30.75L16.2 30.6Q16.5 30.3 16.45 29.8L16.35 29.45L16 29.3L15.6 29.25M20.85,27.15L20.7 27.2L20.7 27.7L20.7 28L20.75 28.2L20.75 28.35L21.1 28.45L22.5 28.25L22.6 28.2L22.7 27.85Q22.65 27.35 22.2 27.1L21.3 26.9L21.1 26.95L21 27L20.85 27.15" />
<path style="fill:#FFCC00;fill-opacity:1" d="M27.75,22.7L26.25 21.55Q25.6 21.55 25.25 22.35L24.6 23.2Q23.9 23.2 23.5 22.55Q23.15 21.9 22.75 21.9Q22.45 21.9 22.2 22.5L21.75 23.05L19.75 20.5Q17.95 17.95 15.8 17.95Q14.75 17.95 14.75 18.4L15.45 19.65Q16.05 20.7 16.05 21.2Q16.05 22.05 15.45 22.35L14.2 22.7Q13.6 22.8 13.45 23.95Q13.25 25 12.45 25Q12.1 25 10.9 24Q9.75 22.95 9.6 22.95Q8.9 22.95 8.45 24.2Q8 25.45 7.85 27.3Q7.65 29.15 8.8 30.85Q9.85 32.65 10.9 33.55Q10 33.25 9.25 32.75Q6.5 30.05 5.3 27.75Q3.35 24.15 3.35 18.7Q3.35 17.45 3.5 16.4L3.75 14.85L4.25 15.9L5.3 17.5Q6.15 18.3 8.9 18.75L9.8 18.75L9.6 16.8L9.4 14.95Q9.4 9.85 12.35 6.2L12.7 6.8L13.5 5.45L14.2 3.9L16.9 7.05L20.35 10.9Q21.8 12.25 22.95 14.95Q23.9 17.15 24 17.15Q24.75 17.15 25.8 16Q26.85 14.7 26.5 13.95L28.5 17.35L29.5 20.65L29.5 21.2L29.5 22.15L29.5 22.2L29.2 24L29.15 24.05L29 24.95Q28.6 23.65 27.75 22.7M25.55,17.7Q24.95 17.7 24.8 18.05L24.75 18.55Q24.75 19.45 25.7 19.45Q26.5 19.45 26.5 18.5L26.2 17.85L25.55 17.7M14.2,11.3Q14.2 12.35 15.55 12.35Q16.75 12.35 16.75 11.1L16.6 10.6L16.2 10.55L14.35 10.6Q14.2 10.7 14.2 11.3M12.1,20.05L11.9 19.5L11.9 19.45L11.5 19.35L11.3 19.3Q10.35 19.3 10.35 20.45Q10.35 21.05 11.1 21.05Q12.1 21.05 12.1 20.05M17.55,25.05L17.75 24.75L17.95 24.65Q18.5 24.85 18.25 25.4L17.65 25.45L17.55 25.25L17.55 25.05M16,29.3L16.35 29.45L16.45 29.8Q16.5 30.3 16.2 30.6L15.75 30.75L15.3 30.35Q15.2 29.9 15.35 29.5L15.6 29.25L16 29.3M21,27L21.1 26.95L21.3 26.9L22.2 27.1Q22.65 27.35 22.7 27.85L22.6 28.2L22.5 28.25L21.1 28.45L20.75 28.35L20.75 28.2L20.7 28L20.7 27.7L20.7 27.2L20.85 27.15L21 27" />
</g>
</svg>
