<?xml version="1.0" encoding="utf-8"?>
<svg version="1.1" id="Layer_1"
xmlns="http://www.w3.org/2000/svg"
xmlns:xlink="http://www.w3.org/1999/xlink"
xmlns:author="http://www.sothink.com"
width="33px" height="29px"
xml:space="preserve">
<g id="423" transform="matrix(1, 0, 0, 1, 0, 0)">
<path style="fill:#55E27E;fill-opacity:1" d="M27.8,14.35L22.6 16.05Q19.75 16.85 16.6 15.7L3.55 15.2L3.6 19.75Q15.4 16.4 15.85 18.45Q16.2 19 16 22.65L20.65 19.3Q23.9 16.8 27.8 14.35M21.45,9.65Q20.2 7.35 17.5 6.3L17.05 6.45L16.85 6.6L16.85 6.7Q18.45 9.15 21.45 9.75L21.45 9.65M14.95,10.45Q10.15 9.25 5 8.8Q4.6 8.9 4.85 9L4.95 9.05L4.65 9.05Q4.25 9.15 4.5 9.25Q8.05 11 11.8 10.8L14.95 10.5L14.95 10.45M15.15,8.25L15.15 3.4L29.1 14.1L14.85 25.25L14.85 20.15L14.65 19.55L14.15 19.1L13.5 19.05L2.25 21.3L2.35 7.45L13.85 9.35L14.45 9.3L14.95 8.9L15.15 8.25" />
<path style="fill:#C5FAD4;fill-opacity:1" d="M21.45,9.75Q18.45 9.15 16.85 6.7L16.85 6.6L17.05 6.45L17.5 6.3Q20.2 7.35 21.45 9.65L21.45 9.75M14.95,10.5L11.8 10.8Q8.05 11 4.5 9.25Q4.25 9.15 4.65 9.05L4.95 9.05L4.85 9Q4.6 8.9 5 8.8Q10.15 9.25 14.95 10.45L14.95 10.5" />
<path style="fill:#06541C;fill-opacity:1" d="M32.05,14.45L31.65 15L14.4 28.45L13.6 28.7L12.9 28.3Q12.6 28 12.6 27.55L12.6 21.55L1.35 23.75L0.7 23.7L0.15 23.3L0 22.65L0.1 6.1Q0.05 5.75 0.25 5.5Q0.45 5.2 0.75 5.1L1.4 5L12.9 6.95L12.9 1.1Q12.9 0.65 13.2 0.35Q13.45 0 13.9 0L14.7 0.2L31.65 13.2L32.05 13.8L32.05 14.45M14.95,8.9L14.45 9.3L13.85 9.35L2.35 7.45L2.25 21.3L13.5 19.05L14.15 19.1L14.65 19.55L14.85 20.15L14.85 25.25L29.1 14.1L15.15 3.4L15.15 8.25L14.95 8.9" />
<path style="fill:#199A3E;fill-opacity:1" d="M20.65,19.3L16 22.65Q16.2 19 15.85 18.45Q15.4 16.4 3.6 19.75L3.55 15.2L16.6 15.7Q19.75 16.85 22.6 16.05L27.8 14.35Q23.9 16.8 20.65 19.3" />
</g>
</svg>
