<?xml version="1.0" encoding="utf-8"?>
<svg version="1.1" id="Layer_1"
xmlns="http://www.w3.org/2000/svg"
xmlns:xlink="http://www.w3.org/1999/xlink"
xmlns:author="http://www.sothink.com"
width="9px" height="9px"
xml:space="preserve">
<g id="262" transform="matrix(1, 0, 0, 1, 0.8, 0)">
<path style="fill:#413733;fill-opacity:1" d="M0,2.65L0.25 3.65L0.35 4.05L0.35 4.1L0.5 4.4L1.3 5.9Q1.95 6.95 3.25 7.1L5.5 6.65Q6.5 6.1 6.9 5.1L7.05 4.85Q7.35 4 7.15 3.25L6.35 1.3L5.9 0.4L5.85 0.35Q6.25 -0.1 6.55 0.05L7.2 0.95L8 3.05Q8.35 4.35 8.05 5.1L7.05 6.65Q6.4 7.4 5.05 7.85L2.4 7.9Q1.2 7.55 0.25 6.45L-0.55 4.75Q-0.95 3.55 -0.7 2.6L-0.5 2.25L-0.4 2.2L-0.3 2.2L-0.25 2.2L-0.1 2.45L0 2.65" />
<path style="fill:#937E78;fill-opacity:1" d="M-0.1,2.45Q0.05 1.9 1.05 1.85Q3 1.8 5.3 0.75L6.15 2.45Q5.8 2.5 5.7 2.85L6.65 3.6L7.05 4.85L6.9 5.1Q6.5 6.1 5.5 6.65L3.25 7.1Q1.95 6.95 1.3 5.9L0.5 4.4L0.35 4.1L0.35 4.05L0.25 3.65L0 2.65L-0.1 2.45" />
<path style="fill:#B6A19A;fill-opacity:1" d="M6.35,1.3L7.15 3.25Q7.35 4 7.05 4.85L6.65 3.6L5.7 2.85Q5.8 2.5 6.15 2.45L5.3 0.75L5.9 0.4L6.35 1.3" />
</g>
</svg>
