<?xml version="1.0" encoding="utf-8"?>
<svg version="1.1" id="Layer_1"
xmlns="http://www.w3.org/2000/svg"
xmlns:xlink="http://www.w3.org/1999/xlink"
xmlns:author="http://www.sothink.com"
width="21px" height="30px"
xml:space="preserve">
<g id="404" transform="matrix(1, 0, 0, 1, 0, 0)">
<path style="fill:#2C1335;fill-opacity:1" d="M1.4,23.75L2.3 24.2L2.85 24.45L5.7 25.6L6.2 24.9L7.05 23.9L8.35 22.8L8.5 22.8L10.2 25.7L10.55 26.45L14.05 26.8Q16.25 26.6 18.3 25.55L18.35 25.5L19.4 24.95L20.55 24.25L20.6 24.2L20.75 26.65Q19.9 27.65 18.8 28.25Q17.55 28.9 16.1 29.15Q13.3 29.55 11.3 29.25L8.5 28.55L8.25 28.05L8.3 28Q8 27.65 7.85 27.15L7.15 28.15L6.8 28.15L4.6 28L2.3 27.25L1.35 26.65L0.15 25.6L0 25.4L0 25.35L0.05 25.2L0.55 23.3L1.4 23.75M1.65,25.95Q4.4 27.55 6.55 27.25L7.45 25.7L7.7 25.3L7.9 24.65L8.15 25.35L8.5 26.45L9.15 27.65Q11.4 28.4 13.55 28.4Q15.65 28.35 17.05 27.8L18.55 27L19.45 26.3L19.45 25.7L18.45 26.25L17.4 26.7Q14.7 27.7 12.6 27.55L10.1 27.15L9.7 26.55L9.25 25.55L8.85 24.8L8.25 23.7L7.1 25.15L6.15 26.35Q4.8 26.1 2.45 25.05L2.05 24.85L1.2 24.45L0.95 25.35L1.65 25.95" />
<path style="fill:#512A70;fill-opacity:1" d="M17.05,27.8Q15.65 28.35 13.55 28.4Q11.4 28.4 9.15 27.65L8.5 26.45L8.15 25.35L7.9 24.65L7.7 25.3L7.45 25.7L6.55 27.25Q4.4 27.55 1.65 25.95L2 25L2.05 24.85L2.45 25.05Q4.8 26.1 6.15 26.35L7.1 25.15L8.25 23.7L8.85 24.8L9.25 25.55L9.7 26.55L10.1 27.15L12.6 27.55Q14.7 27.7 17.4 26.7L18.45 26.25L18.55 27L17.05 27.8" />
<path style="fill:#7E52A1;fill-opacity:1" d="M19.45,25.7L19.45 26.3L18.55 27L18.45 26.25L19.45 25.7M0.95,25.35L1.2 24.45L2.05 24.85L2 25L1.65 25.95L0.95 25.35" />
<path style="fill:#202017;fill-opacity:1" d="M2.6,18.85L1.4 23.75L0.55 23.3L0.9 22L0.85 22.05L1.6 18.85L2.05 16.7L2.35 15.15Q2.9 11.5 2.5 7.8L2.6 7.7Q2.4 4.5 4.95 2.45Q7.4 0.4 10.65 0.1Q16.95 -0.75 20.85 4.8L20.85 4.85L21 5.25L20.8 6.1L20.55 7.7Q20.15 9.85 20.1 13.9L20.1 14.05L20.2 18.85L20.25 19.4L20.55 24.25L19.4 24.95L19.25 22.2L19.2 19.85L19.15 18.85L19.15 16.2L19.15 13.8L19.2 10.7Q19.25 9.05 19.85 5.3Q19.55 4.35 18.8 3.55Q15.3 -0.15 9.85 0.9Q2.9 2.2 3.35 8.75L3.3 8.8Q3.75 10.8 3.4 14.2L2.6 18.85" />
<path style="fill:#645D4C;fill-opacity:1" d="M18.05,18.85L18.05 20.15L18.15 23.8L18.3 24.9L18.35 25.5L18.3 25.55Q16.25 26.6 14.05 26.8L10.55 26.45L10.2 25.7L11.9 25.95Q15.25 26.2 17.7 25.15L17.6 24.5Q17.2 22.15 17.4 19.75L9.35 19.45Q5.75 18.2 4.85 15.55Q4.2 20.1 3.1 23.6L3.2 23.7Q4.4 24.4 6.2 24.9L5.7 25.6L2.85 24.45L2.3 24.2L2.6 23.25L2.75 22.8L3.6 18.85L3.65 18.5L4.1 13.55L5.55 12.25L5.7 14.95L8.95 13.55L8.95 13.6Q10.7 15.5 13.2 15.55Q12.8 14.55 13.65 13.35L13.8 13.2Q15.3 13.75 15.65 15.3L17.35 14.35L18.1 13.3L18.4 13.5Q18.1 16.1 18.05 18.85" />
<path style="fill:#38382E;fill-opacity:1" d="M3.2,23.7L3.1 23.6Q4.2 20.1 4.85 15.55Q5.75 18.2 9.35 19.45L17.4 19.75Q17.2 22.15 17.6 24.5L17.7 25.15Q15.25 26.2 11.9 25.95L10.2 25.7L8.5 22.8L8.35 22.8L7.05 23.9L6.2 24.9Q4.4 24.4 3.2 23.7M18.4,13.5L18.1 13.3L17.35 14.35L15.65 15.3Q15.3 13.75 13.8 13.2L13.65 13.35Q12.8 14.55 13.2 15.55Q10.7 15.5 8.95 13.6L8.95 13.55L5.7 14.95L5.55 12.25L4.1 13.55L3.4 14.2Q3.75 10.8 3.3 8.8L3.35 8.75Q2.9 2.2 9.85 0.9Q15.3 -0.15 18.8 3.55Q19.55 4.35 19.85 5.3Q19.25 9.05 19.2 10.7L19.15 13.8L18.4 13.5" />
<path style="fill:#98948E;fill-opacity:1" d="M18.4,13.5L19.15 13.8L19.15 16.2L19.15 18.85L19.2 19.85L19.25 22.2L19.4 24.95L18.35 25.5L18.3 24.9L18.15 23.8L18.05 20.15L18.05 18.85Q18.1 16.1 18.4 13.5M3.4,14.2L4.1 13.55L3.65 18.5L3.6 18.85L2.75 22.8L2.6 23.25L2.3 24.2L1.4 23.75L2.6 18.85L3.4 14.2" />
</g>
</svg>
