<?xml version="1.0" encoding="utf-8"?>
<svg version="1.1" id="Layer_1"
xmlns="http://www.w3.org/2000/svg"
xmlns:xlink="http://www.w3.org/1999/xlink"
xmlns:author="http://www.sothink.com"
width="7px" height="10px"
xml:space="preserve">
<g id="1641" transform="matrix(1, 0, 0, 1, 0, 0)">
<path style="fill:#3F94BB;fill-opacity:0.701961" d="M3.85,6.65L3.55 6.9L3.3 6.85Q2.45 7.05 1.8 7.7L1.7 7.7L0.9 7.5L0.65 6.45L0.25 5.95L0 5.95Q-0.05 4.85 0.15 3.7Q0.55 1.4 2 0L2.85 0.15L2.6 1.2Q2.45 1.95 2.55 2.75L3.1 3.4L4.15 3.75L4.15 4.3L4.25 4.35L5.25 4.05L5.6 4.15L6.75 4.15L6.95 4Q6.35 5.9 6.3 8L6.4 9.6L5.5 9.5Q5.05 9.05 4.7 8.2L4 7.05L3.85 6.65" />
<path style="fill:#CBFFFF;fill-opacity:0.74902" d="M5.25,4.05L4.25 4.35L4.15 4.3L4.15 3.75L5.25 4.05" />
<path style="fill:#85E2E7;fill-opacity:0.501961" d="M3.55,6.9L3.85 6.65L4 7.05L3.8 6.85L3.55 6.9" />
</g>
</svg>
