<?xml version="1.0" encoding="utf-8"?>
<svg version="1.1" id="Layer_1"
xmlns="http://www.w3.org/2000/svg"
xmlns:xlink="http://www.w3.org/1999/xlink"
xmlns:author="http://www.sothink.com"
width="14px" height="11px"
xml:space="preserve">
<g id="14" transform="matrix(1, 0, 0, 1, 0, 0)">
<path style="fill:#4D3212;fill-opacity:1" d="M13.75,3L13.95 3.65Q14.15 4.5 13.7 5.55Q12.9 7.2 11.6 8.3L8.75 9.9L4.5 9.7Q1.8 9 0.85 7.95Q-0.15 6.9 0 5.9L0.1 5.4L0.15 5.15Q1.05 0.95 5.8 0.1L5.95 0.1Q8.75 -0.25 10.65 0.55Q12.5 1.25 13.45 2.55L13.75 3M1.25,5.95L1.3 6.55L2.25 7.55Q2.9 8.05 4 8.45L6.9 9Q8.75 9.2 10.7 7.7Q12.65 6.25 12.9 4.7L12.95 4.15Q12.9 3.4 12.5 2.75L11.5 1.85Q9.75 0.55 5.9 1.05Q2 2.25 1.35 4.65L1.25 5.95" />
<path style="fill:#B49148;fill-opacity:1" d="M10.6,2.4Q8.1 2.4 7.25 3.3Q6.3 4.25 5.9 4.25L4.95 4L4.5 3.15L3.95 3.15L1.55 4.5L1.35 4.65Q2 2.25 5.9 1.05Q9.75 0.55 11.5 1.85L12.5 2.75L10.6 2.4" />
<path style="fill:#9A7226;fill-opacity:1" d="M1.25,5.95L1.35 4.65L1.55 4.5L3.95 3.15L4.5 3.15L4.95 4L5.9 4.25Q6.3 4.25 7.25 3.3Q8.1 2.4 10.6 2.4L12.5 2.75Q12.9 3.4 12.95 4.15L12.5 4.6Q10.4 6.65 7.25 6.65L5.4 6.55L6.45 7.15L6.45 7.25L5.2 7.35Q3.4 7.35 1.25 5.95" />
<path style="fill:#745416;fill-opacity:1" d="M5.2,7.35L6.45 7.25L6.45 7.15L5.4 6.55L7.25 6.65Q10.4 6.65 12.5 4.6L12.95 4.15L12.9 4.7Q12.65 6.25 10.7 7.7Q8.75 9.2 6.9 9L4 8.45Q2.9 8.05 2.25 7.55L1.3 6.55L1.25 5.95Q3.4 7.35 5.2 7.35" />
</g>
</svg>
