<?xml version="1.0" encoding="utf-8"?>
<svg version="1.1" id="Layer_1"
xmlns="http://www.w3.org/2000/svg"
xmlns:xlink="http://www.w3.org/1999/xlink"
xmlns:author="http://www.sothink.com"
width="40px" height="16px"
xml:space="preserve">
<g id="1578" transform="matrix(1, 0, 0, 1, 9.2, 10)">
<path style="fill:#3F5B06;fill-opacity:1" d="M5.5,-4.7Q5.5 -3.85 6.15 -3.65Q5.5 -3.45 5.45 -2.65Q5.4 -1.9 6.55 -1.55L6.85 -0.95L8.1 -0.85Q7.9 -0.7 8.7 -0.45Q9.3 -0.25 9.8 -0.65L9.1 0.05L8.1 -0.05L8.05 -0.1L7.95 0L7.7 0.1L6.7 0.05Q6.2 -0.2 6.05 -0.7L5.2 -0.9Q4.6 -1.25 4.35 -1.9Q4.1 -2.55 4.4 -3.2L4.75 -3.75L5.2 -4Q5.1 -4.35 5.3 -4.75L5.5 -5L5.5 -4.7M30.5,-5.2Q30.45 -4.5 29.9 -4.1L28.7 -3.9L28.65 -3.9L28.55 -3.8L28.3 -3.6Q27.75 -3.15 27.1 -3.3Q26.45 -3.4 26.05 -3.9Q25.55 -3.75 25 -3.9Q24.25 -4 23.7 -4.75Q23.2 -5.4 23.3 -6.25Q23.3 -6.75 23.55 -7.05L23.9 -7.45Q23.7 -7.85 23.8 -8.35L23.95 -8.75L24.05 -8.45Q24.3 -7.4 25.15 -7.4Q24.45 -6.95 24.65 -6Q24.9 -5.1 26.4 -5.1Q26.6 -4.75 26.95 -4.55Q27.65 -4.1 28.4 -4.85Q28.25 -4.55 29.3 -4.55Q30.05 -4.55 30.5 -5.2M22.9,1.95L23.1 2.65L22.7 3.3L22.65 3.3L22.65 3.4L22.65 3.6Q22.65 4 22.25 4.25L21.6 4.45L21.15 4.9Q20.8 5.2 20.25 5.1Q19.75 5.05 19.45 4.65L19.2 4.25L19.15 3.9L18.7 3.55L18.6 3.35L18.8 3.4Q19.3 3.75 19.65 3.4Q19.6 3.9 20.1 4.15Q20.55 4.45 21.25 3.8L21.7 3.8Q22.15 3.65 22.15 3L22.65 2.7Q22.95 2.4 22.9 1.95M-3.85,-8.5Q-3.15 -8.35 -2.75 -7.75Q-2.4 -7.15 -2.65 -6.4L-2.7 -6.4L-2.55 -6.25L-2.35 -6Q-1.95 -5.4 -2.15 -4.65Q-2.35 -4 -2.95 -3.6Q-2.85 -3.1 -3 -2.55Q-3.25 -1.75 -4.05 -1.25Q-4.85 -0.8 -5.7 -0.95Q-6.2 -1.05 -6.5 -1.35L-6.9 -1.7L-7.9 -1.75L-8.3 -1.9L-7.95 -2Q-6.9 -2.15 -6.75 -3.05Q-6.35 -2.3 -5.3 -2.4Q-4.35 -2.5 -4.15 -4.1L-3.5 -4.65Q-3 -5.35 -3.65 -6.3Q-3.4 -6.05 -3.3 -7.15Q-3.2 -7.9 -3.85 -8.5" />
<path style="fill:#587410;fill-opacity:1" d="M9.8,-0.65Q9.3 -0.25 8.7 -0.45Q7.9 -0.7 8.1 -0.85L6.85 -0.95L6.55 -1.55Q5.4 -1.9 5.45 -2.65Q5.5 -3.45 6.15 -3.65Q5.5 -3.85 5.5 -4.7L5.5 -5L6.05 -5.3L7 -5.35L7.5 -5L9.1 -4.95Q9.9 -4.55 10.2 -3.75Q10.5 -2.95 10.1 -2.15L9.85 -1.75L9.9 -1.35L9.8 -0.7L9.8 -0.65M29.3,-4.55Q28.25 -4.55 28.4 -4.85Q27.65 -4.1 26.95 -4.55Q26.6 -4.75 26.4 -5.1Q24.9 -5.1 24.65 -6Q24.45 -6.95 25.15 -7.4Q24.3 -7.4 24.05 -8.45L23.95 -8.75L24.5 -9.35L25.6 -9.7L26.25 -9.45Q27.2 -10.1 28.2 -9.95Q29.2 -9.8 29.85 -8.95Q30.45 -8.05 30.3 -7.05L30.15 -6.5L30.35 -6.05L30.5 -5.25L30.5 -5.2Q30.05 -4.55 29.3 -4.55M22.65,2.7L22.15 3Q22.15 3.65 21.7 3.8L21.25 3.8Q20.55 4.45 20.1 4.15Q19.6 3.9 19.65 3.4Q19.3 3.75 18.8 3.4L18.6 3.35L18.6 2.9Q18.6 2.45 18.85 2.25Q19.05 2.05 19.3 2.05Q19.35 1.4 19.85 1Q20.35 0.6 20.95 0.7Q21.6 0.75 22 1.3L22.2 1.55L22.45 1.65L22.85 1.95L22.9 1.95Q22.95 2.4 22.65 2.7M-3.3,-7.15Q-3.4 -6.05 -3.65 -6.3Q-3 -5.35 -3.5 -4.65L-4.15 -4.1Q-4.35 -2.5 -5.3 -2.4Q-6.35 -2.3 -6.75 -3.05Q-6.9 -2.15 -7.95 -2L-8.3 -1.9L-8.85 -2.55Q-9.2 -3.15 -9.15 -3.8L-8.8 -4.45Q-9.35 -5.4 -9.1 -6.5Q-8.85 -7.6 -7.85 -8.2L-5.8 -8.45L-5.25 -8.25L-4.75 -8.4L-3.9 -8.45L-3.85 -8.5Q-3.2 -7.9 -3.3 -7.15" />
</g>
</svg>
