<?xml version="1.0" encoding="utf-8"?>
<svg version="1.1" id="Layer_1"
xmlns="http://www.w3.org/2000/svg"
xmlns:xlink="http://www.w3.org/1999/xlink"
xmlns:author="http://www.sothink.com"
width="32px" height="20px"
xml:space="preserve">
<g id="1366" transform="matrix(1, 0, 0, 1, 0, 0)">
<path style="fill:#324B54;fill-opacity:1" d="M17.3,15.7L18.05 15.4Q18.85 17.15 19.85 17.7Q20.85 18.25 22.25 18.3L22.35 18.3Q23.4 18.3 24.85 17.5L25.6 17.05L23.5 16.45L23.35 16.45L23 16.35L22.7 16.25L22.5 16.05L22.95 15.95L23.05 15.95L26 16.1Q28.1 16.25 29 15.2L29.8 13.65L29.9 13.1Q29.85 12.1 29.4 11.55Q28.95 11 28.05 11.1L26.55 11.25L26.25 11.25L25.8 10.8L25.75 10.7L24.8 9.25L22.4 9.3L21.35 9.8L21.3 9.5L21.05 8.55Q21.5 8.3 21.9 8.15Q24.05 7.25 24.95 7.65Q25.95 8.1 26.6 9.7Q28 9.55 29.1 9.7Q30.15 9.85 31 11.45Q31.8 13 30.75 15.05Q29.65 17.1 28.65 17.25L27 17.55L26.2 18.25L25.1 18.95Q24.65 19.25 24.05 19.35L21.1 19.25Q18.45 18.7 18 18L16.95 15.85L17.3 15.7" />
<path style="fill:#4E4138;fill-opacity:1" d="M15.8,7.65L16.2 6.8Q16.8 6.15 17.7 6.55Q18.55 6.95 18.85 7.75L19.6 7.7Q20.6 7.8 21.05 8.55L21.3 9.5L21.35 9.8L21.3 10.95L21.25 11.4Q20.8 13.95 18.05 15.4L17.3 15.7L16.95 15.85Q15.25 16.35 14.45 14.9L13.6 14.85Q13 14.7 12.65 14.25Q12.3 13.75 12.55 13.3L12.7 13.1L13.15 12.5L14.2 10.8L14.4 10.4L15.3 8.65L15.8 7.65M4,9.8L4 9.9Q3.6 11.15 2 10.4Q0.4 9.65 0.1 8.1Q-0.15 6.75 0.35 5.05L0.55 4.3Q1.3 2.1 3.35 1.1Q3.95 0.75 4.5 0.55L4.9 0.4L6.5 0L8.35 0.2L9.55 1.1Q10 1.75 9.55 2.4L8.3 3.15Q6.75 4 5.6 5.55L5.45 5.75Q4.4 7.15 4.15 8.65Q3.95 9.1 4 9.8M19,9.5Q18.75 11 17.85 12.4L17.25 13.2L17.1 13.4L15.65 14.55Q16 15.6 17.85 14.4L18.6 13.85L19.65 12.55L20.15 11.3Q20.55 9.35 20.1 9.05Q19.65 8.7 19.05 8.9L19.05 9L19 9.5M16.4,8.6L16.1 9.4L14.55 12.1L13.75 13.25Q14.6 14.35 16.15 12.85L16.65 12.3L17.6 10.9L17.95 9.8Q18.25 8.2 17.7 7.8Q17.15 7.35 16.95 7.55L16.6 8.15L16.4 8.6M2,3.8Q1.4 4.75 1.1 6.4Q0.6 8.85 2.9 9.35Q2.95 7.6 4 5.75Q4.6 4.65 6 3.45L6.95 2.7L8.15 1.85Q8.5 1.25 7.45 1Q6.4 0.75 5.1 1.35Q3.8 1.9 2.7 2.9L2.1 3.65L2 3.8" />
<path style="fill:#4F8A91;fill-opacity:1" d="M22.35,18.3L22.25 18.3Q20.85 18.25 19.85 17.7Q18.85 17.15 18.05 15.4Q20.8 13.95 21.25 11.4L21.3 10.95L21.35 9.8L22.4 9.3L22.55 10.2L22.55 11.1Q22.55 14.65 20.25 15.95L20.65 16.65L21.15 17.45L22.35 18.3M29.8,13.65L29 15.2Q28.1 16.25 26 16.1L23.05 15.95L22.95 15.95L22.5 16.05L22.25 16.05L23.35 15.55L26.95 14.65Q28.75 14.45 29.8 13.65M23.35,16.45L23.5 16.45L25.6 17.05L24.85 17.5L24.4 17.25L23.35 16.45" />
<path style="fill:#71B4BB;fill-opacity:1" d="M24.4,17.25L24.85 17.5Q23.4 18.3 22.35 18.3L21.15 17.45L20.65 16.65L20.25 15.95Q22.55 14.65 22.55 11.1L22.55 10.2L23.45 10.15L25.05 10.4L25.8 10.8L26.25 11.25Q25.25 11.75 24.85 12.85L24.95 12.85L26.05 12.45L27.3 12.25Q29.15 12.25 29.9 13.1L29.8 13.65Q28.75 14.45 26.95 14.65L23.35 15.55L22.25 16.05L22.5 16.05L22.7 16.25L23 16.35L23.35 16.45L24.4 17.25" />
<path style="fill:#A0DAE0;fill-opacity:1" d="M25.05,10.4L23.45 10.15L22.55 10.2L22.4 9.3L24.8 9.25L25.75 10.7L25.8 10.8L25.05 10.4M26.25,11.25L26.55 11.25L28.05 11.1Q28.95 11 29.4 11.55Q29.85 12.1 29.9 13.1Q29.15 12.25 27.3 12.25L26.05 12.45L24.95 12.85L24.85 12.85Q25.25 11.75 26.25 11.25" />
<path style="fill:#7F5C46;fill-opacity:1" d="M9.1,8.5L6.8 7.15L7.15 6.2L7.6 5.3L8.25 5.4Q9.95 5.75 11.15 6.25Q13.2 7.1 15.3 8.65L14.4 10.4L14.2 10.8L9.1 8.5" />
<path style="fill:#F5F3EE;fill-opacity:1" d="M19.75,11.35L19.7 10.15L19.05 9.55L19.05 9L19.05 8.9Q19.65 8.7 20.1 9.05Q20.55 9.35 20.15 11.3L19.65 12.55L19.75 11.35M16.6,8.15L16.95 7.55Q17.15 7.35 17.7 7.8Q18.25 8.2 17.95 9.8L17.6 10.9L17.65 10.35Q17.65 9.65 17.2 9.05L16.5 8.6L16.6 8.15M7.25,1.95L6.45 1.85Q5.35 1.85 3.3 2.95L2.1 3.65L2.7 2.9Q3.8 1.9 5.1 1.35Q6.4 0.75 7.45 1Q8.5 1.25 8.15 1.85L6.95 2.7L7.25 1.95" />
<path style="fill:#301D16;fill-opacity:1" d="M13.15,12.5L12.7 13.1L12.55 13.3L11.75 13L10.6 12.55L4.05 9.95L4 9.9L4 9.8Q3.95 9.1 4.15 8.65L6.25 9.65L8.75 10.75L13.15 12.5M8.3,3.15L9.55 2.4Q11.65 3.4 13.1 4.35Q15.45 5.85 16.2 6.8L15.8 7.65L12.75 5.5Q10.5 4.1 9.7 3.75L9 3.4L8.3 3.15" />
<path style="fill:#B6A998;fill-opacity:1" d="M19,9.5L19.05 9L19.05 9.55L19.7 10.15L19.75 11.35L19.65 12.55L18.6 13.85L17.8 13.95L17.6 13.95L18.55 12L19.05 9.55L19 9.5M16.65,12.3L15.95 12.45L15.35 12.3L16.15 10.1L16.5 8.6L17.2 9.05Q17.65 9.65 17.65 10.35L17.6 10.9L16.65 12.3M16.6,8.15L16.5 8.6L16.4 8.6L16.6 8.15M2,3.8L2.1 3.65L3.3 2.95Q5.35 1.85 6.45 1.85L7.25 1.95L6.95 2.7L6 3.45L4.9 4.2Q3.35 5.4 3.15 6.35Q1.95 6.6 1.95 4.3L2 3.8" />
<path style="fill:#B47F60;fill-opacity:1" d="M9,3.4L9.7 3.75Q10.5 4.1 12.75 5.5L15.8 7.65L15.3 8.65Q13.2 7.1 11.15 6.25Q9.95 5.75 8.25 5.4L7.6 5.3Q8.25 4 9 3.4" />
<path style="fill:#837462;fill-opacity:1" d="M19.05,9.55L18.55 12L17.6 13.95L17.8 13.95L18.6 13.85L17.85 14.4Q16 15.6 15.65 14.55L17.1 13.4L17.25 13.2L17.85 12.4Q18.75 11 19 9.5L19.05 9.55M16.15,12.85Q14.6 14.35 13.75 13.25L14.55 12.1L16.1 9.4L16.4 8.6L16.5 8.6L16.15 10.1L15.35 12.3L15.95 12.45L16.65 12.3L16.15 12.85M1.95,4.3Q1.95 6.6 3.15 6.35Q3.35 5.4 4.9 4.2L6 3.45Q4.6 4.65 4 5.75Q2.95 7.6 2.9 9.35Q0.6 8.85 1.1 6.4Q1.4 4.75 2 3.8L1.95 4.3" />
<path style="fill:#57351A;fill-opacity:1" d="M8.75,10.75L6.25 9.65L4.15 8.65Q4.4 7.15 5.45 5.75L5.6 5.55Q6.75 4 8.3 3.15L9 3.4Q8.25 4 7.6 5.3L7.15 6.2L6.8 7.15L9.1 8.5L14.2 10.8L13.15 12.5L8.75 10.75" />
</g>
</svg>
