<?xml version="1.0" encoding="utf-8"?>
<svg version="1.1" id="Layer_1"
xmlns="http://www.w3.org/2000/svg"
xmlns:xlink="http://www.w3.org/1999/xlink"
xmlns:author="http://www.sothink.com"
width="16px" height="23px"
xml:space="preserve">
<g id="557" transform="matrix(1, 0, 0, 1, -13.15, -3.8)">
<path style="fill:#797261;fill-opacity:1" d="M22.75,8.55L22.75 6.7Q22.45 6.8 22.1 7.55L21.75 8.4L21.6 7.95L21.55 7.9L21.45 7.95Q21.55 6.7 22 5.7L22.3 5.15Q22.85 4.55 23.65 4.7L23.6 5.15L23.55 5.45L23.35 7.85L23.3 8.2L23.25 9.05L23.2 10.8L22.75 8.55M23.15,11.75L23.35 14Q23.6 16.45 26.05 16.6L26.5 17.7L26.85 18.5L26.7 18.3Q26 17.1 25.45 17.15Q25.2 17.2 24.3 16.45Q23.35 15.65 23.2 14.4Q23.1 13.2 23.15 11.75M17.45,10.25Q18.4 9.35 19.6 8.5L20.8 7.55L20.75 8.7L20.6 8.8L20.6 8.65L20.2 8.85L17.45 10.25" />
<path style="fill:#1E1E16;fill-opacity:1" d="M21.45,8.45L21.45 8.55L21.35 9.85L21.2 9.95L21.1 9.95L21.05 9.9L21 9.9L20.75 9.5L20.75 8.7L20.8 7.55L19.6 8.5Q18.4 9.35 17.45 10.25L17.4 10.3Q15.85 11.75 14.75 13.7Q14.25 14.75 14.1 15.85L14 16.3Q15.3 16.95 16.15 18.2L19.3 22.4Q21.45 25.05 24.9 25.05Q26.4 25.1 26.95 23.85Q27.65 22.35 27.65 20.65L27.45 20.15L26.85 18.55L26.85 18.5L26.5 17.7L26.05 16.6Q23.6 16.45 23.35 14L23.15 11.75L23.2 10.8L23.25 9.05L23.3 8.2L23.35 7.85L23.55 5.45L23.6 5.15L23.65 4.7Q22.85 4.55 22.3 5.15L22 5.7Q21.55 6.7 21.45 7.95L21.45 8.45M24.4,4.4L24.4 4.55L24.4 5.15L24.4 5.5L24.15 7L24.15 7.05L24.1 7.6L24.05 7.8Q23.65 10.15 23.95 12.95L23.95 13.05Q24.25 16 25.95 15.95L26.45 15.9L27.75 18.8L28.25 20.35Q28.55 21.2 28.2 22.7Q27.9 24.15 27.25 24.95Q26.65 25.7 25.2 25.85L22.45 25.55Q21.1 25.1 20 24.25L18.25 22.55L16.75 20.35Q15.15 17.55 14.2 17.4Q13.25 17.25 13.15 16.7L13.3 15.55L13.9 13.9Q14.3 12.9 15.5 11.45L15.95 10.9Q18.2 8.55 20.9 6.95L21.15 6Q21.7 4.2 22.95 3.9Q24.25 3.6 24.4 4.4" />
<path style="fill:#3F3F32;fill-opacity:1" d="M23.2,14.4Q23.35 15.65 24.3 16.45Q25.2 17.2 25.45 17.15Q26 17.1 26.7 18.3L26.85 18.5L26.85 18.55L27.45 20.15L27.65 20.65Q27.65 22.35 26.95 23.85Q26.4 25.1 24.9 25.05Q21.45 25.05 19.3 22.4L16.15 18.2Q15.3 16.95 14 16.3L14.1 15.85Q14.25 14.75 14.75 13.7Q15.85 11.75 17.4 10.3L17.45 10.25L20.2 8.85L20.6 8.65L20.6 8.8L20.75 8.7L20.75 9.5L21 9.9L21.05 9.9L21.1 9.95L21.2 9.95L21.35 9.85L21.45 8.55L21.45 8.45L21.45 7.95L21.55 7.9L21.6 7.95L21.75 8.4L22.1 7.55Q22.45 6.8 22.75 6.7L22.75 8.55L23.2 10.8L23.15 11.75Q23.1 13.2 23.2 14.4" />
</g>
</svg>
