<?xml version="1.0" encoding="utf-8"?>
<svg version="1.1" id="Layer_1"
xmlns="http://www.w3.org/2000/svg"
xmlns:xlink="http://www.w3.org/1999/xlink"
xmlns:author="http://www.sothink.com"
width="83px" height="37px"
xml:space="preserve">
<g id="512" transform="matrix(1, 0, 0, 1, 0, 0)">
<radialGradient
id="RadialGradID_671" gradientUnits="userSpaceOnUse" gradientTransform="matrix(-6.10352e-005, -0.0146332, 0.0236206, -0.000106812, 41.4, 24.65)" spreadMethod ="pad" cx="0" cy="0" r="819.2" fx="0" fy="0" >
<stop  offset="0.00784314"  style="stop-color:#837B76;stop-opacity:1" />
<stop  offset="1"  style="stop-color:#4F4C4A;stop-opacity:1" />
</radialGradient>
<path style="fill:url(#RadialGradID_671) " d="M74.75,26.6L74.75 26.45Q75.25 24.65 74.95 23.35L82.25 23.8L82.3 23.8L82.05 24.45Q79.55 25.5 74.75 26.6M11.45,26.55Q12.3 29.05 14.15 30.9Q7.15 30.6 3.05 29.2Q1.15 27.25 0.3 25.25L0.2 24.85L0.5 24.2L11 23.9L11.45 26.55M18.4,15.3L18 15.4L19.15 14.9L19.2 14.9L18.75 15.15L18.4 15.3M11.45,23.9L24.9 23.5Q24.6 26.75 25.65 29.7L26.15 30.85L21.1 30.9L16 30.95Q12.25 27.9 11.45 23.9M25.5,23.45L25.6 23.45L32.65 23.25L42.9 23.1Q43.4 25.2 42.3 28.4L41.5 30.4L27.8 30.8Q25.25 27.4 25.5 23.45M43.9,23.1L61.5 23.05Q60.85 26.25 58.9 29.1L44 30.25L44.2 28.5Q44.45 25.3 43.9 23.1M72.9,27L60.45 28.9L60.95 27.75Q62.2 24.85 61.55 23.05L74.6 23.35Q74.2 25 72.9 27M61.3,16.45Q63.65 15.8 70.35 17.55L72.65 19.75Q71.2 20.65 67.2 19.85L62.5 18.5L60.7 16.75Q60.9 16.55 61.3 16.45M30.65,15.95Q36.5 14.45 41.3 15.4L42.15 16.05L43.25 17.3L43.2 17.05Q43.85 14.25 51.65 15.3L58.45 16.65L60 19.05Q59.1 19.75 55.7 20L48.5 20.1Q45.2 20.1 43.6 18.95L43.45 18.75Q41.95 20.25 36.75 20.45L28.4 20Q26.9 19.9 27.35 18L27.75 17.05L27.85 16.9L30.65 15.95M11.75,21.9Q12.4 19.85 14.35 18.05L14.65 17.9Q18.25 16.15 19.6 16L23.1 15.7Q24.8 15.85 24.8 16.75L23.8 17.4L21 19.7Q19.3 20.6 15.15 21.5L13.4 21.85L11.75 21.9M73.1,18.6L74.2 18.85Q76.45 19.5 78.55 20.65L76.3 20.6L74.3 19.8L73.1 18.6M11.3,18.75Q10.2 19.7 9.5 20.9L4.3 21.45L1.85 21.45L3.05 20.7Q6.65 18.75 10.1 17.8L10.8 18.15L11.3 18.75" />
<path style="fill:#766D67;fill-opacity:1" d="M74.95,23.35L74.6 23.35L61.55 23.05L61.5 23.05L43.9 23.1L43.6 23.1L42.9 23.1L32.65 23.25L25.6 23.45L25.5 23.45L25.45 23.45L24.9 23.5L11.45 23.9L11 23.9L0.5 24.2Q1.05 23.25 1.7 23.1L31.45 21.95L42.35 21.75L43.5 21.75L43.7 21.75Q52.95 21.6 60.75 21.75L61.15 21.75L74.2 22.15L74.4 22.15L81.6 22.7L82.25 23.8L74.95 23.35M21.4,35.6L16.65 34.55L36.8 34.8L41.8 34.8L52.95 34.65L64.2 34.2L68.15 33.85L62.4 35.2L39.65 35.5L21.4 35.6" />
<path style="fill:#3C3937;fill-opacity:1" d="M39.65,35.5L62.4 35.2L61.95 35.3L58.6 36Q43.4 36.6 30.3 36.2L23.4 36L21.4 35.6L39.65 35.5M0.85,22.5L1.85 21.45L4.3 21.45L9.5 20.9Q10.2 19.7 11.3 18.75Q13.55 16.7 17.4 15.6L17.45 15.55L18 15.4L18.4 15.3L16.35 16.5L14.35 18.05Q12.4 19.85 11.75 21.9L0.85 22.5M74.3,19.8L76.3 20.6L78.55 20.65L79.1 20.4L80.05 21.1L80.55 21.5L73.8 21.35L60.95 21.15L43.7 21.1Q34.35 21.1 25.7 21.35L19.65 21.5L13.4 21.85L15.15 21.5Q19.3 20.6 21 19.7L23.8 17.4L24.8 16.75Q27.25 15.2 29.85 14.5L31.25 14.45Q29.2 15.3 27.85 16.9L27.75 17.05L27.35 18Q26.9 19.9 28.4 20L36.75 20.45Q41.95 20.25 43.45 18.75L43.6 18.95Q45.2 20.1 48.5 20.1L55.7 20Q59.1 19.75 60 19.05L58.45 16.65Q57.2 15.15 55.75 14.35L57.95 14.4L59.25 15.5L60.7 16.75L62.5 18.5L67.2 19.85Q71.2 20.65 72.65 19.75L70.35 17.55L68.4 16.3L71.4 17.1L71.85 17.5L73.1 18.6L74.3 19.8" />
<path style="fill:#ACA49F;fill-opacity:1" d="M11.75,21.9L13.4 21.85L19.65 21.5L25.7 21.35Q34.35 21.1 43.7 21.1L60.95 21.15L73.8 21.35L80.55 21.5L81.6 22.7L74.4 22.15L74.2 22.15L61.15 21.75L60.75 21.75Q52.95 21.6 43.7 21.75L43.5 21.75L42.35 21.75L31.45 21.95L1.7 23.1Q1.05 23.25 0.5 24.2L0 24.2L0.3 23.3L0.85 22.5L11.75 21.9M11.3,18.75L10.8 18.15L10.1 17.8Q6.65 18.75 3.05 20.7L1.85 21.45L2.25 21.1Q5.3 18.65 11.4 16.95Q14 16.2 17.2 15.6L17.4 15.6Q13.55 16.7 11.3 18.75M62.75,14.6L63.15 14.85Q64.25 15.45 65.1 15.6L68.4 16.3L70.35 17.55Q63.65 15.8 61.3 16.45Q60.9 16.55 60.7 16.75L59.25 15.5L57.95 14.4L62.75 14.6M78.55,20.65Q76.45 19.5 74.2 18.85L73.1 18.6L71.85 17.5L71.4 17.1Q76.25 18.5 79.1 20.4L78.55 20.65M55.75,14.35Q57.2 15.15 58.45 16.65L51.65 15.3Q43.85 14.25 43.2 17.05L43.25 17.3L42.15 16.05L41.3 15.4Q36.5 14.45 30.65 15.95L27.85 16.9Q29.2 15.3 31.25 14.45L33.05 14.35L41.95 14.2Q49.2 14.15 55.75 14.35M16.35,16.5L18.4 15.3L18.75 15.15L19.2 14.9L29.85 14.5Q27.25 15.2 24.8 16.75Q24.8 15.85 23.1 15.7L19.6 16Q18.25 16.15 14.65 17.9L14.35 18.05L16.35 16.5" />
<radialGradient
id="RadialGradID_672" gradientUnits="userSpaceOnUse" gradientTransform="matrix(-6.10352e-005, -0.0146332, 0.0236206, -0.000106812, 41.4, 24.65)" spreadMethod ="pad" cx="0" cy="0" r="819.2" fx="0" fy="0" >
<stop  offset="0.00784314"  style="stop-color:#766D67;stop-opacity:1" />
<stop  offset="1"  style="stop-color:#4A4542;stop-opacity:1" />
</radialGradient>
<path style="fill:url(#RadialGradID_672) " d="M0.2,24.85L0 24.2L0.5 24.2L0.2 24.85" />
<radialGradient
id="RadialGradID_673" gradientUnits="userSpaceOnUse" gradientTransform="matrix(0.0170898, 0, 0, 0.0170898, 41.8, 12.45)" spreadMethod ="pad" cx="0" cy="0" r="819.2" fx="0" fy="0" >
<stop  offset="0.00784314"  style="stop-color:#836737;stop-opacity:1" />
<stop  offset="1"  style="stop-color:#4F290E;stop-opacity:1" />
</radialGradient>
<path style="fill:url(#RadialGradID_673) " d="M19.2,14.9L19.15 14.9L21.4 13L22.15 11.85L30.75 11.05L39.85 10.85L60.2 11.85L60.9 13L62.75 14.6L57.95 14.4L55.75 14.35Q49.2 14.15 41.95 14.2L33.05 14.35L31.25 14.45L29.85 14.5L19.2 14.9" />
<path style="fill:#2C2A29;fill-opacity:1" d="M16,30.95L21.1 30.9L26.15 30.85L25.65 29.7Q24.6 26.75 24.9 23.5L25.45 23.45L25.5 23.45Q25.25 27.4 27.8 30.8L41.5 30.4L42.3 28.4Q43.4 25.2 42.9 23.1L43.6 23.1L43.9 23.1Q44.45 25.3 44.2 28.5L44 30.25L58.9 29.1Q60.85 26.25 61.5 23.05L61.55 23.05Q62.2 24.85 60.95 27.75L60.45 28.9L72.9 27Q74.2 25 74.6 23.35L74.95 23.35Q75.25 24.65 74.75 26.45L74.75 26.6Q79.55 25.5 82.05 24.45Q80.6 27.6 78.7 29.45Q76.4 31.65 68.15 33.85L64.2 34.2L52.95 34.65L41.8 34.8L36.8 34.8L16.65 34.55L11.4 33.15Q5.2 31.3 3.3 29.45L3.05 29.2Q7.15 30.6 14.15 30.9Q12.3 29.05 11.45 26.55L11 23.9L11.45 23.9Q12.25 27.9 16 30.95" />
<path style="fill:#8A8A8A;fill-opacity:1" d="M39.85,10.85L30.75 11.05L22.15 11.85L22.35 11.4Q23.55 9.2 25.1 7.5Q27.3 4.95 30.4 3.15Q30.45 4.05 30.85 4.9Q32.55 8.2 38.6 9L49.75 9.45L58 8.45L59.95 11.4L60.2 11.85L39.85 10.85" />
<radialGradient
id="RadialGradID_674" gradientUnits="userSpaceOnUse" gradientTransform="matrix(0.012085, 0, 0, 0.00839233, 43.35, 4.55)" spreadMethod ="pad" cx="0" cy="0" r="819.2" fx="0" fy="0" >
<stop  offset="0.00784314"  style="stop-color:#FFFFFF;stop-opacity:1" />
<stop  offset="1"  style="stop-color:#A39C97;stop-opacity:1" />
</radialGradient>
<path style="fill:url(#RadialGradID_674) " d="M30.4,3.15L31.6 2.5L32.85 1.9Q36.2 0.35 39.85 0.05Q43.45 -0.25 49 2.15Q54.6 4.5 57.2 7.5L57.95 8.4L58 8.45L49.75 9.45L38.6 9Q32.55 8.2 30.85 4.9Q30.45 4.05 30.4 3.15" />
</g>
</svg>
