<?xml version="1.0" encoding="utf-8"?>
<svg version="1.1" id="Layer_1"
xmlns="http://www.w3.org/2000/svg"
xmlns:xlink="http://www.w3.org/1999/xlink"
xmlns:author="http://www.sothink.com"
width="143px" height="130px"
xml:space="preserve">
<g id="2677" transform="matrix(1, 0, 0, 1, 16.9, -19.5)">
<path style="fill:#1E1415;fill-opacity:1" d="M85.6,122.65L95.55 122.1Q106.4 121 110.6 118.15L116.6 110.2L119.5 106.05L115.85 116.6Q110.45 130.25 104.85 137.75Q111.1 133.25 111.8 131.3Q112 133.5 108.7 137.9L105.45 141.85L109.55 142.2Q107.3 145.45 107.5 144.55Q100.95 144 97.5 145.3L93.75 147.35Q91.7 147.85 86.55 146.15L81.95 144.4L82.25 145.9Q82.25 147.4 80.3 147.25Q76.4 146.35 72.95 142.3L70.35 138.45L66.7 148.65L61.55 138.2L57.05 142.3L48.95 133.65L48.8 137.15Q48.5 141.1 47.65 143.55Q46.9 146 43.9 140.2L41 134L40.45 140.95L36.8 128.1L34.05 139.9L30.15 131.05L28.6 134.95Q26.8 138.8 25.75 138.7Q17.55 139.95 5.25 129.95Q1.45 126.85 -2.8 122.6L-6.95 118.5Q-3.05 120.35 -1.1 119.9Q-0.1 119.7 0.4 119.1Q-6.5 112.25 -12.4 93.4L-16.9 76L-7 94.5Q-8.35 91.55 -9.8 74.3L-10.55 65.9Q-9.1 73.3 -5.55 79.45Q-7.65 69.8 -5 47.95L-2.9 34.1L-1.85 29.05L-1.15 40.1Q-0.9 43.15 -0.25 43.2Q-0.4 41.45 1.25 35.95L3.2 29.45Q3 57.85 9.05 69.55Q8.85 68.15 8.8 66.6Q8.7 63.95 9.1 61.8Q9.35 59.9 9.55 60.1Q23.45 76.7 48.4 72.65Q61 70.6 71.3 64.7Q81.5 65.4 85.5 53.25Q87.5 47.15 87.5 41L89.95 19.5L90 30.75L92.1 33.45L91.7 38.05L92.85 37.05L92.5 45.25L95 42.95L94.9 51.75L95.35 51.3Q95.85 50.85 96.2 51.1Q95.95 73.8 89.3 85.4Q86 91.15 82.95 92.55Q83.85 98.5 88.8 96.65L92.35 94.5Q93.95 93.1 94.3 92.25Q93.1 99.3 87.9 102.85Q86.25 104 84.5 104.55L82.85 104.85Q83.15 105.95 87.35 108.5L91.25 110.7Q97.25 111.85 100.05 99.65Q100.85 95.85 101.3 91.15L101.55 87.2Q102.45 99.45 101.9 99.8Q103.85 99.05 105.8 88.05L107.4 77.1Q106.45 94.5 108.4 100.15Q109.05 101.75 109.8 102.5Q100.45 116.4 85.6 122.65M89.45,63.35Q92.6 51 88.55 42Q88.95 49.85 86.45 55.9L84.65 59.2L83.95 60.05Q84.85 61.8 85.25 67.95L85.4 73.9Q87.85 69.55 89.45 63.35M4.9,82Q3.25 79.35 1.6 74.25Q-1.55 63.9 -1.2 51.4Q-1.5 51.65 -2.15 55.2Q-2.9 59.5 -3.25 64.6Q-4.15 79.55 -0.75 92.5L-0.8 86.25Q-0.75 78.65 -0.4 75.6L1.15 78.35Q3.1 81.25 4.9 82M79.35,110.85Q79.7 115 81.55 115.75L89.1 114.15Q87.65 114 85.6 112.95Q81.65 110.9 79.25 106.8L79.35 110.85M91.15,137.55L98.5 138.25Q101.4 138.1 105.65 132.5Q109.75 127 108.75 126.8Q103.9 133.05 92.5 134.1Q88.9 134.5 85.1 134.25L82.05 133.95Q84.25 136.3 91.15 137.55" />
<path style="fill:#322835;fill-opacity:1" d="M119.5,106.05L116.6 110.2L110.6 118.15Q106.4 121 95.55 122.1L85.6 122.65Q100.45 116.4 109.8 102.5L111.1 100.5Q114.35 95.2 115.95 90.35L116.75 87.85Q117 90.65 117.95 90.55Q118.85 90.45 119.6 88.3Q123.45 81.6 125.35 58.7Q126.35 83.45 119.5 106.05M85.4,73.9L85.25 67.95Q84.85 61.8 83.95 60.05L84.65 59.2L86.45 55.9Q88.95 49.85 88.55 42Q92.6 51 89.45 63.35Q87.85 69.55 85.4 73.9M1.15,78.35L-0.4 75.6Q-0.75 78.65 -0.8 86.25L-0.75 92.5Q-4.15 79.55 -3.25 64.6Q-2.9 59.5 -2.15 55.2Q-1.5 51.65 -1.2 51.4Q-1.55 63.9 1.6 74.25Q3.25 79.35 4.9 82Q3.1 81.25 1.15 78.35M79.25,106.8Q81.65 110.9 85.6 112.95Q87.65 114 89.1 114.15L81.55 115.75Q79.7 115 79.35 110.85L79.25 106.8M82.05,133.95L85.1 134.25Q88.9 134.5 92.5 134.1Q103.9 133.05 108.75 126.8Q109.75 127 105.65 132.5Q101.4 138.1 98.5 138.25L91.15 137.55Q84.25 136.3 82.05 133.95" />
</g>
</svg>
