<?xml version="1.0" encoding="utf-8"?>
<svg version="1.1" id="Layer_1"
xmlns="http://www.w3.org/2000/svg"
xmlns:xlink="http://www.w3.org/1999/xlink"
xmlns:author="http://www.sothink.com"
width="800px" height="550px"
xml:space="preserve">
<g id="444" transform="matrix(1, 0, 0, 1, 0, 0)">
<path style="fill:#000000;fill-opacity:0.701961" d="M800,550L0 550L0 0L800 0L800 550M628.65,13.35Q627.7 10.35 625.55 7.9Q621.7 3.5 616.2 3.5L486.85 3.5Q481.6 3.65 477.85 7.9Q474 12.3 474 18.5L474 31Q474 37.2 477.85 41.6Q481.6 45.85 486.85 46L616.2 46Q621.7 46 625.55 41.6Q627.75 39.15 628.65 36.2L629.15 34.15L629.45 31.2L629.45 31L629.45 18.5L629.45 18.3L629.25 15.75L629.15 15.4L628.65 13.35M187,391.55Q187 408.5 197 408.5L312.95 408.5Q322.95 408.5 322.95 391.55L322.95 360Q322.95 342.95 312.95 342.95L197 342.95Q187 342.95 187 360L187 391.55" />
</g>
</svg>
