<?xml version="1.0" encoding="utf-8"?>
<svg version="1.1" id="Layer_1"
xmlns="http://www.w3.org/2000/svg"
xmlns:xlink="http://www.w3.org/1999/xlink"
xmlns:author="http://www.sothink.com"
width="42px" height="55px"
xml:space="preserve">
<g id="1374" transform="matrix(1, 0, 0, 1, 4.95, 11.3)">
<path style="fill:#543914;fill-opacity:1" d="M22.75,17.65Q30.2 21.85 25.85 29.35L22.85 32.9Q21.45 34.25 20.1 34.5Q18.45 34.75 17.5 32.9L14.65 28.5Q12.75 25.55 12.2 23.05Q10.85 16.7 21.25 17.1L22.75 17.65M13.85,23.4Q14.2 25.5 16 27.8Q17.8 30.1 17.9 31.05Q18 31.95 18.5 32Q21.7 32.2 24.1 28.95Q29.25 21.9 21.3 18.3L17.8 18.45Q17.15 18.45 16.65 18.85Q13.5 21.3 13.85 23.4" />
<path style="fill:#C4944D;fill-opacity:1" d="M16.65,18.85Q17.15 18.45 17.8 18.45L21.3 18.3Q29.25 21.9 24.1 28.95Q21.7 32.2 18.5 32Q18 31.95 17.9 31.05Q17.8 30.1 16 27.8Q14.2 25.5 13.85 23.4Q13.5 21.3 16.65 18.85" />
<path style="fill:#2D343C;fill-opacity:1" d="M10.35,28.95L10.1 27.4Q10.05 25.55 9.7 25.4L8.55 25.8L7 26.65Q5.7 27.35 4.45 28.8L4.35 26.7L4.2 26.85L3.65 28.3L3.3 29L3.15 29.55L3.15 28.2L3.9 23.4L3.5 23.75L3.75 23.25Q5.4 20.55 6.2 20.25L5.7 19.6L5.6 19.55Q5.3 19.3 5.5 18.85L5.35 18.45Q5.25 17.65 4.75 17Q3.15 14.95 0.75 15.15Q3.15 11.85 6.5 12.15L9.55 12.7Q9.85 9.8 6.05 8.35L2.15 7.05Q6.25 4.2 9.75 4.9Q11.55 5.25 12.7 6.25Q13.15 3.2 11.3 0.9Q9.45 -1.4 9.15 -1.2Q13.05 -4.1 18.65 1.2Q21.75 -1.95 20.25 -5.6Q26.85 -2.15 26.5 6.45Q26.1 15.05 25.2 18.5L24.25 19.3L22.6 20.15L20.9 20.6L19.6 21.4L18.5 22.75Q13.55 24.6 12.95 29.75L12.85 30.85L12.75 31.1L12.55 29.8L12.45 29.55L12.05 29.55L12.05 29.9L11.9 30.45L11.4 30L10.35 28.95" />
<path style="fill:#61666C;fill-opacity:1" d="M9.05,-4.05L11.4 -3.95Q14.25 -3.45 16.25 -1.8L17 -3.15L17.15 -3.05Q18.45 -4.9 17.7 -7.75L17.25 -9.1Q19.8 -8.1 21.85 -6.6Q27.45 -2.5 28.7 5.05L29.05 8.05L28.95 8.35L29.05 8.35L29.6 8.3L29.05 10.85L28.25 13.55Q27.3 16.45 25.35 18.35L25.2 18.5Q26.1 15.05 26.5 6.45Q26.85 -2.15 20.25 -5.6Q21.75 -1.95 18.65 1.2Q13.05 -4.1 9.15 -1.2Q9.45 -1.4 11.3 0.9Q13.15 3.2 12.7 6.25Q11.55 5.25 9.75 4.9Q6.25 4.2 2.15 7.05L6.05 8.35Q9.85 9.8 9.55 12.7L6.5 12.15Q3.15 11.85 0.75 15.15Q3.15 14.95 4.75 17Q5.25 17.65 5.35 18.45Q4.95 18.1 3.85 17.7Q2.05 17 -0.1 17.95L-0.95 18.35L-0.45 16.8Q-1.1 16.95 -1.85 17.55L-2.3 18L-2.55 18.3L-2.4 17.85L-0.85 13.65L-0.65 13.45L1.15 11.95Q1.4 11.6 -0.05 10.85L-0.75 10.55L1.35 10.05L-0.35 9.45L-0.95 9.3L-1.85 9.05L-1.85 8.75L0.1 5.9Q0.8 5.05 1.65 4.35L3.3 3.2L3.95 3.1L7.05 2.9L6.9 1.85Q6.65 1.1 6 0.4L5 -0.55L4.8 -0.7L3.55 -1.35Q6.05 -3.75 9.05 -4.05M11.4,30L11.9 30.45L12.05 29.9L12.05 29.55L12.45 29.55L12.55 29.8L12.75 31.1L12.85 30.85L12.9 32.75Q12.15 32.6 11.15 30.95L10.75 30.1L10.35 28.95L11.4 30M3.9,23.4L3.15 28.2L3.15 29.55L3.3 29L3.65 28.3L4.2 26.85L4.35 26.7L4.45 28.8L3.9 29.45L2.3 31.75Q1.65 29.95 2 27.95L2.1 27.45Q2.55 25.4 3.5 23.75L3.9 23.4" />
<path style="fill:#969BA1;fill-opacity:1" d="M-1.5,10.35L-3.05 10.55Q-3.3 9.35 -2.75 7.95Q-2.15 6.5 -0.85 5.35Q0.5 4.15 2 3.55L3.3 3.2L1.65 4.35Q0.8 5.05 0.1 5.9L-1.85 8.75L-1.85 9.05L-0.95 9.3L-0.35 9.45L1.35 10.05L-0.75 10.55L-1.5 10.35M-1.7,18.9Q-2.8 19.75 -3.5 21.1Q-4.25 19.4 -3.2 17.05L-2.95 16.55Q-2.1 14.7 -0.85 13.65L-2.4 17.85L-2.55 18.3L-2.3 18L-1.85 17.55Q-1.1 16.95 -0.45 16.8L-0.95 18.35L-1.7 18.9M16.95,-9.75Q21.35 -8.35 24.4 -5.7L27.1 -2.8Q30.5 1.9 29.05 8.05L28.7 5.05Q27.45 -2.5 21.85 -6.6Q19.8 -8.1 17.25 -9.1L16.95 -9.75M17,-3.15L16.25 -1.8Q14.25 -3.45 11.4 -3.95L9.05 -4.05Q6.05 -3.75 3.55 -1.35L3.1 -1.55Q3.6 -3.1 4.95 -4Q6.3 -4.95 8.6 -5.35L11.05 -5.45L13.15 -5Q15.25 -4.25 17 -3.15" />
<path style="fill:#282C37;fill-opacity:1" d="M-0.95,18.35L-0.1 17.95Q2.05 17 3.85 17.7Q4.95 18.1 5.35 18.45L5.5 18.85Q5.3 19.3 5.6 19.55L5.7 19.6L5.3 19.8L3.8 20.8L4.35 20.05Q4.5 18.75 2.35 18.8Q0.15 18.85 -0.95 19.9L-1.75 20.75L-2.6 22L-3.3 23.4L-4.15 22.45Q-4.8 21.2 -4.9 20.25L-4.75 17.65Q-4.5 15.95 -3.25 14.35L-2.9 13.9Q-1.85 12.6 -0.6 11.85L-2.05 11.6Q-2.7 11.65 -3.35 12.1L-3.45 12Q-4.5 10.55 -3.95 8.35Q-3.55 6.5 -1.95 4.9Q-0.7 3.55 1 2.75Q1.85 2.35 2.85 2.1L5.2 1.75Q4.85 1.1 4 0.6L2.45 -0.15L1.45 -0.45Q1.5 -3.55 4.35 -5.25Q7.15 -7.05 9.7 -7.1L13.35 -6.75L13.85 -6.55Q15.4 -6 16.2 -5.45L16.45 -5.75L16.2 -7.3L16.1 -7.7L15.3 -9.75L14.8 -10.9L17.8 -11Q20.6 -10.35 24 -8.25Q25.9 -7.05 27.4 -5.2L29.5 -2.05Q32.6 3.9 29.75 8.3L29.6 8.3L29.05 8.35L28.95 8.35L29.05 8.05Q30.5 1.9 27.1 -2.8L24.4 -5.7Q21.35 -8.35 16.95 -9.75L17.25 -9.1L17.7 -7.75Q18.45 -4.9 17.15 -3.05L17 -3.15Q15.25 -4.25 13.15 -5L11.05 -5.45L8.6 -5.35Q6.3 -4.95 4.95 -4Q3.6 -3.1 3.1 -1.55L3.55 -1.35L4.8 -0.7L5 -0.55L6 0.4Q6.65 1.1 6.9 1.85L7.05 2.9L3.95 3.1L3.3 3.2L2 3.55Q0.5 4.15 -0.85 5.35Q-2.15 6.5 -2.75 7.95Q-3.3 9.35 -3.05 10.55L-1.5 10.35L-0.75 10.55L-0.05 10.85Q1.4 11.6 1.15 11.95L-0.65 13.45L-0.85 13.65Q-2.1 14.7 -2.95 16.55L-3.2 17.05Q-4.25 19.4 -3.5 21.1Q-2.8 19.75 -1.7 18.9L-0.95 18.35" />
<path style="fill:#1C202A;fill-opacity:1" d="M6.2,20.25Q5.4 20.55 3.75 23.25L3.5 23.75Q2.55 25.4 2.1 27.45L2 27.95Q1.65 29.95 2.3 31.75L3.9 29.45L4.45 28.8Q5.7 27.35 7 26.65L8.55 25.8L9.7 25.4Q10.05 25.55 10.1 27.4L10.35 28.95L10.75 30.1L11.15 30.95Q12.15 32.6 12.9 32.75L12.85 30.85L12.95 29.75Q13.55 24.6 18.5 22.75Q19.5 22.35 20.65 22.1L20.9 22.1Q19.75 23.6 17.4 24.95L16.45 25.65Q15.8 26.25 15.3 27.15L15.15 27.35Q14.65 28.25 14.4 29.3Q14.15 30.4 14.2 31.7L14.3 33.7L14.3 34.35L13.5 34.4Q12.75 34.2 11.65 33.4Q10.5 32.6 9.75 30.8L9.55 30.25Q9 28.65 8.95 26.95L8.95 26.9Q6.65 27.95 5.15 29.95L4.95 30.2L4.6 30.7L3.1 32.8L2.25 33.75Q1.9 33.8 1.2 31.7Q0.45 29.55 0.95 26.75L0.95 26.65Q1.05 25.75 1.45 24.8L1.7 24.2L1.85 23.9Q2.55 22.4 3.8 20.8L5.3 19.8L5.7 19.6L6.2 20.25" />
<path style="fill:#626262;fill-opacity:1" d="M1.1,-3.25L0.75 -3.45L0.85 -3.45L1.05 -3.3L1.1 -3.3L1.1 -3.25" />
<path style="fill:#4D441C;fill-opacity:1" d="M18.85,13.2L18.85 12.85L19 13.05L18.85 13.2" />
<path style="fill:#F7EAEA;fill-opacity:1" d="M4.15,3.35L4.2 3.4L4.15 3.4L4.15 3.35" />
<path style="fill:#388328;fill-opacity:1" d="M28.5,-1.6L28.9 -2.35L28.95 -2.1L29.2 -1.5L28.85 -0.55Q28.2 1.15 27.95 2.75Q27.45 5.75 28.9 8.05L28.75 8.4L28.3 9.1Q24.85 6.1 24.65 1.4L24.75 -2L24.8 -1.55L25.6 3.35L25.65 3.45L26.15 1.6L26.2 1.55L27.15 5.1Q26.55 2.75 28.2 -1.05L28.5 -1.6M32.85,-5.55Q31.9 -3 31.55 -0.8Q31.1 1.4 31.3 2.6L32.25 1.45Q31.95 2.05 31.85 3.35Q31.65 4.6 31.85 5.8L30.05 7.9L29.7 7.75L29.15 6.35Q28.65 4.75 29.45 1.6Q30.25 -1.75 31.8 -4.15L32.85 -5.55M15.5,11.2L15.25 11.5L13.7 11.4Q12.05 11.25 9.45 9.3Q6.7 7.25 5.05 4.85L4.2 3.4Q6.15 5.25 8.05 6.45Q9.95 7.7 11.1 7.95L10.4 6.7Q10.8 7.15 12 7.75Q13.05 8.45 14.2 8.7L15.5 11.2M4.35,12.25L4.75 12.35L9.6 13.5L9.7 13.5L8.15 12.35L8.15 12.25L11.8 12.8Q9.35 12.45 6.55 9.4L6.15 8.95L5.6 8.25L5.85 8.3L6.5 8.35L7.25 9L10 11.2Q12.5 12.75 15.15 12.3L15.45 12.6L15.9 13.25Q11.8 15.3 7.4 13.6Q5.7 13 4.35 12.25" />
<path style="fill:#194310;fill-opacity:1" d="M1.35,-2.35Q2.15 -2.35 8.4 1.65Q13.1 4.7 15.35 8.8L15.45 8.95L16.1 10.25Q16.35 10.4 16.4 10.85L16.4 11.25L16.45 11.35L16.45 11.4L16.9 11.25L16.9 11.1Q17 10.8 17.4 10.9Q18 11.4 17.25 11.7L16.6 12L16.65 12.7L16.65 12.8L17.05 12.55L17.85 12.25L18.05 12.25L18.15 12.55Q17.2 15.25 12.5 15.5L7.55 14.9Q4.95 14.2 3.1 12.95Q1.2 11.7 0.05 10.3Q-1.1 8.85 -0.85 8.5Q0.25 7.6 2.15 7.15L4.9 6.85Q3.45 4.95 2.7 3.45L1.45 0.9Q1.05 0.05 0.8 -1.15Q0.5 -2.4 1.35 -2.35M27.55,-7.6L28.85 -5.8L29.8 -4.15Q29.95 -3.8 30.45 -4.55L32.15 -6.9L34.45 -9.5L36.05 -10.8Q36.75 -11.3 36.9 -10.7Q37.35 -9.65 36.1 -2.35Q35.1 3.2 32.15 6.8L32.1 6.95L31.15 8.1L30.75 8.65L30.35 8.85L30.3 8.9L30.25 8.95L30.5 9.3Q30.55 9.2 30.65 9.2Q31 9.15 31.1 9.5Q30.85 10.3 30.25 9.75L29.75 9.3L29.05 9.5L29 9.6L29.4 9.85L30 10.5Q30.2 10.75 30.05 10.9Q26.85 10.6 25.25 7.15Q23.65 3.7 23.45 1.95Q23.2 0.15 23.65 -2.5Q24.05 -5.15 25.05 -6.95Q26 -8.75 26.55 -8.4L27.55 -7.6M24.75,-2L24.65 1.4Q24.85 6.1 28.3 9.1L28.75 8.4L28.9 8.05Q27.45 5.75 27.95 2.75Q28.2 1.15 28.85 -0.55L29.2 -1.5L28.95 -2.1L28.9 -2.35Q28 -5.35 26.45 -6.95L26.05 -6.25Q25.1 -4.3 24.75 -2M31.8,-4.15Q30.25 -1.75 29.45 1.6Q28.65 4.75 29.15 6.35L29.7 7.75L30.05 7.9L31.85 5.8L33.15 3.35L33.85 1.2L35.45 -5.65L35.85 -8.45Q35.75 -8.75 34.6 -7.7Q33.8 -7.05 32.9 -5.7L32.85 -5.6L32.85 -5.55L31.8 -4.15M4.15,3.4L4.2 3.4L5.05 4.85Q6.7 7.25 9.45 9.3Q12.05 11.25 13.7 11.4L15.25 11.5L15.5 11.2L14.2 8.7L12.45 6.55L10.8 5.1L5.1 0.95L2.65 -0.5Q2.3 -0.55 2.85 0.9Q3.15 1.95 4.05 3.3L4.15 3.35L4.15 3.4M7.4,13.6Q11.8 15.3 15.9 13.25L15.45 12.6L15.15 12.3Q12.5 12.75 10 11.2L7.25 9L6.5 8.35L5.85 8.3L5.6 8.25Q2.5 7.95 0.4 8.75L0.9 9.35Q2.3 11 4.35 12.25Q5.7 13 7.4 13.6" />
<path style="fill:#6AA643;fill-opacity:1" d="M28.2,-1.05Q26.55 2.75 27.15 5.1L26.2 1.55L26.15 1.6L25.65 3.45L25.6 3.35L24.8 -1.55L24.75 -2Q25.1 -4.3 26.05 -6.25L27.1 -4.2L27.1 -4.8L27.2 -4.9L27.55 -4.45L28.5 -1.6L28.2 -1.05M31.85,5.8Q31.65 4.6 31.85 3.35Q31.95 2.05 32.25 1.45L31.3 2.6Q31.1 1.4 31.55 -0.8Q31.9 -3 32.85 -5.55L32.85 -5.6L34.3 -7.25Q34.55 -6.7 34 -5.85L34.4 -6.15L33.6 0.4L33.15 3.35L31.85 5.8M4.15,3.35L3.2 1.35Q3.75 1.35 4.35 2.2L4.25 1.75L9.95 5.05L12.45 6.55L14.2 8.7Q13.05 8.45 12 7.75Q10.8 7.15 10.4 6.7L11.1 7.95Q9.95 7.7 8.05 6.45Q6.15 5.25 4.2 3.4L4.15 3.35M6.55,9.4Q9.35 12.45 11.8 12.8L8.15 12.25L8.15 12.35L9.7 13.5L9.6 13.5L4.75 12.35L4.35 12.25Q2.3 11 0.9 9.35L3.25 9.2L2.6 8.95L2.6 8.85L3.15 8.7L6.15 8.95L6.55 9.4" />
<path style="fill:#A7DE84;fill-opacity:1" d="M28.5,-1.6L27.55 -4.45L27.2 -4.9L27.1 -4.8L27.1 -4.2L26.05 -6.25L26.45 -6.95Q28 -5.35 28.9 -2.35L28.5 -1.6M32.9,-5.7Q33.8 -7.05 34.6 -7.7Q35.75 -8.75 35.85 -8.45L35.45 -5.65L33.85 1.2L33.15 3.35L33.6 0.4L34.4 -6.15L34 -5.85Q34.55 -6.7 34.3 -7.25L32.85 -5.6L32.9 -5.7M12.45,6.55L9.95 5.05L4.25 1.75L4.35 2.2Q3.75 1.35 3.2 1.35L4.15 3.35L4.05 3.3Q3.15 1.95 2.85 0.9Q2.3 -0.55 2.65 -0.5L5.1 0.95L10.8 5.1L12.45 6.55M0.4,8.75Q2.5 7.95 5.6 8.25L6.15 8.95L3.15 8.7L2.6 8.85L2.6 8.95L3.25 9.2L0.9 9.35L0.4 8.75" />
<path style="fill:#2E201B;fill-opacity:1" d="M13.5,19.7L11.85 19.8L8.55 19.8L8.2 19.75L8.1 19.75L5.15 19.5L5.1 19.45L4.75 19.75L4.6 19.95Q4.35 20.35 4.55 20.85L4.75 20.95L4.85 21L6.95 21.4L8.2 21.55L13.95 21.6L14.4 21.6L14.45 22.65L11.65 22.65L7.9 22.45L5.6 22.2L4.45 21.9L4.1 21.8L3.7 21.55L3.45 21.25Q3.35 20.9 3.4 20.55Q3.4 20.05 3.7 19.6L3.85 19.3L4.55 18.4L4.95 18.25L6.15 18.5L9.2 18.75L9.4 18.75L9.85 18.8L13.75 18.7L14.25 18.65L14.3 19.65L13.5 19.7" />
<path style="fill:#8E6755;fill-opacity:1" d="M4.6,19.95L4.75 19.75L5.1 19.45L5.15 19.5L8.1 19.75L8.2 19.75L8.55 19.8L11.85 19.8L10.3 20.1L8.25 20.2L7.95 20.2L5.65 20.3L5.5 20.4L4.6 19.95" />
<path style="fill:#513727;fill-opacity:1" d="M5.5,20.4L7.7 20.75L9.3 20.85L13.25 20.8L13.45 19.8L13.5 19.7L14.3 19.65L14.35 20.35L14.4 21.6L13.95 21.6L8.2 21.55L6.95 21.4L4.85 21L4.75 20.95L4.55 20.85Q4.35 20.35 4.6 19.95L5.5 20.4" />
<path style="fill:#644638;fill-opacity:1" d="M13.45,19.8L13.25 20.8L9.3 20.85L7.7 20.75L5.5 20.4L5.65 20.3L7.95 20.2L8.25 20.2L10.3 20.1L11.85 19.8L13.5 19.7L13.45 19.8" />
<path style="fill:#625643;fill-opacity:1" d="M28.35,40.9L27.65 40.7L27.1 40.5L27.45 35.55L27.45 35.2Q27.7 31.75 28.15 31Q28.65 30.15 31.7 27Q32.15 25.75 31.25 23.95Q30.3 22.15 30.45 20.4Q30.45 14.35 30.75 11.15Q30.95 8.05 28.75 6.6L28.6 6.55L21.8 2.75L21.3 2.45L21.2 3.45Q20.9 7.45 22.8 11.1L23.05 11.55L23.8 13.45L23.85 14.5L23.85 14.55L23.85 14.85L23.8 14.8L23.75 14.75L23.7 14.65L23.65 14.6L23.55 14.5L21.95 12.2Q21.05 10.65 20.5 9L20.4 8.95L18.95 9.1L18.85 9.15L18.25 9.3L17.15 9.75L15.85 10.8L15.8 10.85L16.3 8.95L16.4 8.75L17.1 8.2Q17.85 7.7 18.5 7.55L20 7.3L19.8 6.15Q19.5 4.3 19.9 2.4Q20.25 0.5 21.55 0.9Q22.8 1.25 25.9 3.25L30.1 5.9L30.7 6.3L31.8 7.45Q32.35 8.3 32.2 12.1L31.45 20.65Q31.8 22 32.6 23.65Q33.35 25.3 33.15 26.55Q32.9 27.8 32.1 28.8L30.6 30.25L28.95 32L28.75 35L28.45 40L28.4 40.9L28.35 40.9M18.95,19.25Q20 19.65 19.4 19.95L19.15 19.95L18.95 19.25M22.25,29Q22.35 28.5 22.6 28.1L22.65 28.1L22.85 28.95L22.25 29" />
<path style="fill:#D0C4AA;fill-opacity:1" d="M18.05,13.05L18.4 12.85Q18.6 12.7 18.25 12.5L17.95 12.4L17.85 12.55L17.2 10.6L17.15 9.75L18.25 9.3L18.85 9.15L18.95 9.1Q19.15 9.9 19.5 10.5L19.85 10.2Q20.15 10.2 20.35 10.5Q20.6 10.9 20.25 10.95L19.9 11L19.95 11.1L21.55 12.7L23.55 14.5L23.65 14.6L23.7 14.65L23.75 14.75Q23.3 15.85 23.05 17.5L23 18L22.1 17.15L21.1 17.1L20.85 17.7L19.35 15.5L19.4 15.5L19.5 15.65L19.85 15.8L20.55 15.9L20.75 15.55L20.75 15.45Q22 15.05 20.95 14.15L20.25 14.2L19.75 13.85L19.45 14.35Q19 14.45 18.85 14.65L18.05 13.05M25.4,40.85L25.4 40.95Q25.5 41.5 25.1 41.5Q22.3 41.25 24.7 40.35L24.5 39.3L24.75 39.25Q25.55 39.2 25.1 38.5L24.65 38.25L24.4 38.45L24.1 35.85L24 34.9Q23.7 32.05 23.15 30.7L22.85 28.95L22.65 28.1L22.6 28.1Q22.35 28.5 22.25 29L22.1 29L20.65 32.75L20.5 33.05L19.95 32.4L19.65 31.75L20 31.25L20.85 29.9L20.05 30.25L20.7 28.35L21.15 26.15Q21.15 25.75 20.75 25.6Q20.25 25.4 20.05 25L19.9 24.1L19.25 23.5L17.75 22.8L17.5 22.7L17.45 22.7Q15.9 23.2 16.4 22.6L16.35 22.6L16 22.65L15.9 22.1Q15.9 21 16.8 20.95L16.95 20.95Q18.45 20.8 19.15 20.35L18.75 20L19.15 19.95L19.4 19.95Q20 19.65 18.95 19.25L18.15 18.25L17.25 17.8Q15.6 17.35 15.15 16.55L14.35 16.55Q14.2 16.55 14.2 16.35L14.35 16.25Q14.65 16.1 14.35 15.95L14.9 15L15.25 14.25Q16.45 16.1 18.55 17.7L20.65 19.15L20.6 20.1Q20.5 22.45 21.15 23.65L21.15 23.7Q21.15 24.9 22.9 25.95L23.45 26.25Q23.8 28.15 24.5 30.15Q23.95 30.9 24.75 30.8L24.9 30.8L25.35 30.65Q25.65 30.55 25.55 30.15Q25.45 29.6 24.95 29.6L24.95 29.65L25.1 26.85L26.05 26.95L27.7 26.85L28.75 26.1Q30 25.8 29.8 25.45Q28.2 22.8 25.45 20.25Q25.35 16.25 24.55 13.25L24.55 13.15L24.6 13.25L24.8 13.55L24.6 13.2L24.6 12.1L23.7 10.1L23 8.5L23.9 8.35Q24.25 8.3 24 7.95L23.2 7.45L22.7 7.9L22.5 7.4Q21.85 5.7 21.75 3.75L22.1 3.95L23.7 5.05Q25.5 6.1 26.3 6.7Q25.25 7.95 26.75 7.05L27.1 7.35L29.25 9.4Q29.6 10.05 29.6 12.3L29.5 16.45Q28.1 17.35 29.35 17.25Q28.5 20.2 28.5 20.9L29.6 23.2L30.65 25.75Q30.65 27.2 28.45 28.85L27.25 30.15Q26.2 31.05 26.9 30.85Q26.7 31.55 26.85 32.25L26.55 35.2L25.85 40.75L25.4 40.85M27.3,11.1Q25.8 12.25 27.7 11.8Q28.1 11.7 27.75 11.3L27.3 11.1M26.25,17.4Q24.8 18.75 26.6 18.15Q27.05 18 26.65 17.55L26.25 17.4M28.15,16.9L27.7 16.7Q26.05 17.8 28.1 17.35Q28.5 17.3 28.15 16.9M14.45,14.65Q14.9 14.9 14.55 15.05Q12.75 15.9 14.15 14.55L14.45 14.65M13.65,16.25Q13.75 16.6 13.5 16.65Q11.7 17.2 13.05 15.8Q13.5 15.8 13.65 16.25M19.95,30.4L19.95 30.3L20.05 30.25L19.95 30.4M19.55,32.65L19.9 32.8Q20.35 33.25 19.9 33.4Q18.1 33.9 19.55 32.65" />
<path style="fill:#3F3629;fill-opacity:1" d="M20.85,17.7L21.1 17.1L22.1 17.15L23 18L25.45 20.25Q28.2 22.8 29.8 25.45Q30 25.8 28.75 26.1L28.15 26.2L25.15 26.05L24.1 25.7L23.25 25.35Q21.85 24.7 21.25 23.8L21.15 23.65Q20.5 22.45 20.6 20.1L20.65 19.15L20.85 17.7" />
<path style="fill:#F7F7F3;fill-opacity:1" d="M27.05,40.5L25.85 40.75L26.55 35.2L26.85 32.25Q26.7 31.55 26.9 30.85Q26.2 31.05 27.25 30.15L28.45 28.85Q30.65 27.2 30.65 25.75L29.6 23.2L28.5 20.9Q28.5 20.2 29.35 17.25Q28.1 17.35 29.5 16.45L29.6 12.3Q29.6 10.05 29.25 9.4L27.1 7.35L26.75 7.05Q25.25 7.95 26.3 6.7Q25.5 6.1 23.7 5.05L22.1 3.95L21.75 3.75L21.75 3.2L21.8 2.75L28.6 6.55L28.75 6.6Q30.95 8.05 30.75 11.15Q30.45 14.35 30.45 20.4Q30.3 22.15 31.25 23.95Q32.15 25.75 31.7 27Q28.65 30.15 28.15 31Q27.7 31.75 27.45 35.2L27.45 35.55L27.1 40.5L27.05 40.5M25.15,26.05L28.15 26.2L28.75 26.1L27.7 26.85L26.05 26.95L25.1 26.85L25.15 26.05M23.45,26.25L22.9 25.95Q21.15 24.9 21.15 23.7L21.15 23.65L21.25 23.8Q21.85 24.7 23.25 25.35L23.45 26.25M22.15,31.1L22.3 32.45Q22.05 33.1 21.65 33.15L20.95 33.15L20.6 33.05L20.5 33.05L20.65 32.75L22.1 29L22.25 29Q22 29.9 22.15 31.1M28.1,17.35Q26.05 17.8 27.7 16.7L28.15 16.9Q28.5 17.3 28.1 17.35" />
<path style="fill:#BFA172;fill-opacity:1" d="M18.95,9.1L20.4 8.95L20.5 9Q21.05 10.65 21.95 12.2L23.55 14.5L21.55 12.7L19.95 11.1L19.9 11L20.25 10.95Q20.6 10.9 20.35 10.5Q20.15 10.2 19.85 10.2L19.5 10.5Q19.15 9.9 18.95 9.1M23.85,14.5L23.8 13.45L23.05 11.55L22.8 11.1Q20.9 7.45 21.2 3.45L21.3 2.45L21.8 2.75L21.75 3.2L21.75 3.75Q21.85 5.7 22.5 7.4L22.7 7.9L23.2 7.45L24 7.95Q24.25 8.3 23.9 8.35L23 8.5L23.7 10.1L24.6 12.1L24.6 13.2L24.8 13.55L24.6 13.25L24.55 13.15L24.55 13.25L23.85 14.5M24.95,29.65L24.95 29.6Q25.45 29.6 25.55 30.15Q25.65 30.55 25.35 30.65L24.9 30.8L24.95 29.65M24.75,30.8Q23.95 30.9 24.5 30.15L24.75 30.8M15.25,14.25L14.9 15L14.35 15.95Q14.65 16.1 14.35 16.25L14.2 16.35Q14.2 16.55 14.35 16.55L15.15 16.55Q15.6 17.35 17.25 17.8L18.15 18.25L18.95 19.25L17.8 18.95L16.45 18.65Q12.5 17.85 11.45 16.8Q11.8 15.6 14.2 12.65L14.35 12.45L15.25 14.25M20.6,33.05L20.95 33.15L21.65 33.15Q22.05 33.1 22.3 32.45L22.4 34L22 34.05L20.6 34.2L19.85 34.2L18 33.85Q18.55 30.7 19.85 28.55L19.95 28.35Q21 26.7 19.6 25.45L19.45 25.3L18.9 24.9Q17.5 23.95 16 23.7L14.8 23.65Q14.05 22.35 14.4 19.6L17.35 19.95L18.75 20L19.15 20.35Q18.45 20.8 16.95 20.95L16.8 20.95Q15.9 21 15.9 22.1L16 22.65L16.35 22.6L16.4 22.6Q15.9 23.2 17.45 22.7L17.5 22.7L17.75 22.8L19.25 23.5L19.9 24.1L20.05 25Q20.25 25.4 20.75 25.6Q21.15 25.75 21.15 26.15L20.7 28.35L20.05 30.25L20.85 29.9L20 31.25L19.65 31.75L19.95 32.4L20.5 33.05L20.6 33.05M23.15,30.7Q23.7 32.05 24 34.9L24.1 35.85L24.4 38.45L24.65 38.25L25.1 38.5Q25.55 39.2 24.75 39.25L24.5 39.3L24.7 40.35Q22.3 41.25 25.1 41.5Q25.5 41.5 25.4 40.95L25.4 40.85L25.85 40.75L27.05 40.5L27.1 40.5L27.05 42.3L24.1 42.3L22.6 41.95Q23.3 38.1 23.35 34.7L23.15 30.7M27.75,11.3Q28.1 11.7 27.7 11.8Q25.8 12.25 27.3 11.1L27.75 11.3M26.65,17.55Q27.05 18 26.6 18.15Q24.8 18.75 26.25 17.4L26.65 17.55M18.85,14.65Q19 14.45 19.45 14.35L19.75 13.85L20.25 14.2L20.95 14.15Q22 15.05 20.75 15.45L20.75 15.55L20.55 15.9L19.85 15.8L19.5 15.65L19.4 15.5L19.35 15.5L18.85 14.65M17.85,12.55L17.95 12.4L18.25 12.5Q18.6 12.7 18.4 12.85L18.05 13.05L17.85 12.55M14.15,14.55Q12.75 15.9 14.55 15.05Q14.9 14.9 14.45 14.65L14.15 14.55M13.05,15.8Q11.7 17.2 13.5 16.65Q13.75 16.6 13.65 16.25Q13.5 15.8 13.05 15.8M20.05,30.25L19.95 30.3L19.95 30.4L20.05 30.25M19.9,33.4Q20.35 33.25 19.9 32.8L19.55 32.65Q18.1 33.9 19.9 33.4" />
<path style="fill:#4A4131;fill-opacity:1" d="M22.25,29L22.85 28.95L23.15 30.7L23.35 34.7Q23.3 38.1 22.6 41.95L24.1 42.3L27.05 42.3L27.1 40.5L27.65 40.7L28.35 40.9L28.4 40.9L28.25 42.75Q28.35 43.25 27.7 43.5L25.05 43.6L22.4 43.35L21.4 43.1Q21 42.95 21.2 41.9L21.65 39.25L22.1 35.5L19.2 35.6Q17.75 35.35 16.75 34.65Q15.75 33.95 19.15 26.6Q18.35 25.8 17.1 25.35L15.6 25L14.4 24.85Q13.3 24.9 13.15 22.6Q12.95 20.25 13.1 19.1L11.05 18.35Q9.65 17.7 10.2 16.25Q10.85 15 13.7 11.5L13.95 11.25Q15.25 9.65 16.4 8.75L16.3 8.95L15.8 10.85Q15.1 11.5 14.35 12.45L14.2 12.65Q11.8 15.6 11.45 16.8Q12.5 17.85 16.45 18.65L17.8 18.95L18.95 19.25L19.15 19.95L18.75 20L17.35 19.95L14.4 19.6Q14.05 22.35 14.8 23.65L16 23.7Q17.5 23.95 18.9 24.9L19.45 25.3L19.6 25.45Q21 26.7 19.95 28.35L19.85 28.55Q18.55 30.7 18 33.85L19.85 34.2L20.6 34.2L22 34.05L22.4 34L22.3 32.45L22.15 31.1Q22 29.9 22.25 29" />
<path style="fill:#2F7231;fill-opacity:1" d="M14.35,12.45Q15.1 11.5 15.8 10.85L15.85 10.8L17.15 9.75L17.2 10.6L17.85 12.55L18.05 13.05L18.85 14.65L19.35 15.5L20.85 17.7L20.65 19.15L18.55 17.7Q16.45 16.1 15.25 14.25L14.35 12.45M23,18L23.05 17.5Q23.3 15.85 23.75 14.75L23.8 14.8L23.85 14.85L23.85 14.55L23.85 14.5L24.55 13.25Q25.35 16.25 25.45 20.25L23 18M24.5,30.15Q23.8 28.15 23.45 26.25Q24.25 26.7 25.1 26.85L24.95 29.65L24.9 30.8L24.75 30.8L24.5 30.15" />
<path style="fill:#438745;fill-opacity:1" d="M23.25,25.35L24.1 25.7L25.15 26.05L25.1 26.85Q24.25 26.7 23.45 26.25L23.25 25.35" />
</g>
</svg>
