<?xml version="1.0" encoding="utf-8"?>
<svg version="1.1" id="Layer_1"
xmlns="http://www.w3.org/2000/svg"
xmlns:xlink="http://www.w3.org/1999/xlink"
xmlns:author="http://www.sothink.com"
width="34px" height="36px"
xml:space="preserve">
<g id="1095" transform="matrix(1, 0, 0, 1, -0.15, -8)">
<path style="fill:#564C48;fill-opacity:1" d="M28.1,10.7Q30.35 12.6 31.7 15.6L32.7 18.4Q33.35 20.95 33.35 23.5Q33.3 26 31.65 30.8Q29.95 35.6 27.2 39.5Q24.9 42.7 23.55 43.4L21.25 43.35L19.55 41.85Q18.8 41 18.4 40.85L17.8 40.75L16.3 42Q15.05 43.1 13.75 42.95Q12.4 42.75 11.3 40.85Q10.15 38.9 9.5 38.5Q8.8 38.1 8.3 38.15L5.35 38.75Q2.85 39.3 1.3 37.6Q-0.25 35.85 0.3 34.05Q0.85 32.25 2.95 30.4Q5 28.5 5.2 26.05L5.35 22.25Q5.3 20.95 5.7 19.1Q6.05 17.25 6.25 17.05L6.5 16.55Q7.7 13 11.3 10.6Q14.85 8.2 21.2 8Q25.55 8.5 28.1 10.7M16.2,39.85Q16.75 39.1 17.35 38.9L18.3 38.85Q19.35 39.15 20.15 40L21.55 41.45L23.35 41.4L24.55 40.35L26.55 37.55Q28.55 34.35 29.95 30.8Q31.3 27.25 31.6 24.8L31.7 23.9L31.7 23.85L31.7 23.3L31.7 21.25Q31.55 19.7 31 17.85Q30.45 16 28.95 13.9Q27.9 12.45 26.65 11.5Q25 10.25 22.9 9.8Q18.55 8.9 14.25 10.7Q10.95 12 9.05 15.35L8.9 15.65Q7.8 18.3 7.2 21.15L7.2 21.3L7.35 22L7.1 21.1Q7.65 28.05 4.25 31.2Q0.8 34.3 1.8 35.9Q2.85 37.5 5.05 37.15Q9.95 35.3 11.8 38.3Q13.6 41.2 14.1 41.05Q14.9 41.1 15.65 40.4L16.2 39.85" />
<path style="fill:#A8938C;fill-opacity:1" d="M31.65,24.05L31.65 23.9L30.8 24.85L30.45 25.15L26.55 27.75L25.3 28.4Q24.5 28.7 22.85 27.6L20.9 26.3Q17.2 24.35 15.15 23.65L11.25 22.3L10.95 22.2L10 21.95Q9.75 25.4 7.95 28.45Q9.05 29.5 10.7 30.05Q13.2 30.85 14.75 30L14.85 29.95L13.4 31L10.65 31.3Q9.45 31.3 7.65 30.4L6.95 30L6.9 30.05L6.9 30L6.65 30.35Q3.6 34.15 3.6 35.05Q3.6 35.9 4.45 35.75L6.4 35.4L8.3 35.2L10.95 35.45Q12.2 35.85 12.7 37L13.75 38.85Q14.6 40.05 15.65 40.4Q14.9 41.1 14.1 41.05Q13.6 41.2 11.8 38.3Q9.95 35.3 5.05 37.15Q2.85 37.5 1.8 35.9Q0.8 34.3 4.25 31.2Q7.65 28.05 7.1 21.1L7.35 22L7.2 21.3L7.2 21.15Q7.8 18.3 8.9 15.65L9.05 15.35Q10.95 12 14.25 10.7Q18.55 8.9 22.9 9.8Q25 10.25 26.65 11.5Q27.9 12.45 28.95 13.9Q30.45 16 31 17.85Q31.55 19.7 31.7 21.25L31.7 23.3L31.7 23.85L31.65 24.05M24.55,40.35L23.35 41.4L21.55 41.45L20.15 40Q19.35 39.15 18.3 38.85L17.35 38.9L18.35 36.9Q19.95 37.3 21.05 38.6L22.3 39.9Q23.05 40.5 23.55 40.5L24.55 40.35" />
<path style="fill:#E9DBD2;fill-opacity:1" d="M28.65,30.6Q25.95 37.4 22.3 39.9L21.05 38.6Q19.95 37.3 18.35 36.9Q19 35.25 19.1 33.4L17.7 35.6L16.85 36.7Q15.2 38.55 13.75 38.85L12.7 37Q12.2 35.85 10.95 35.45L8.3 35.2L6.4 35.4L4.45 35.75Q3.6 35.9 3.6 35.05Q3.6 34.15 6.65 30.35L6.9 30L6.9 30.05L6.95 30L7.65 30.4Q9.45 31.3 10.65 31.3L13.4 31L14.85 29.95L14.75 30Q13.2 30.85 10.7 30.05Q9.05 29.5 7.95 28.45Q9.75 25.4 10 21.95L10.95 22.2L11.25 22.3L15.15 23.65Q17.2 24.35 20.9 26.3L22.85 27.6Q24.5 28.7 25.3 28.4L26.55 27.75L30.45 25.15Q29.85 27.55 28.65 30.6" />
<path style="fill:#FFFFFF;fill-opacity:1" d="M23.55,40.5Q23.05 40.5 22.3 39.9Q25.95 37.4 28.65 30.6Q29.85 27.55 30.45 25.15L30.8 24.85L31.65 23.9L31.65 24.05L31.7 23.85L31.7 23.9L31.6 24.8Q31.3 27.25 29.95 30.8Q28.55 34.35 26.55 37.55L24.55 40.35L23.55 40.5M17.35,38.9Q16.75 39.1 16.2 39.85L15.65 40.4Q14.6 40.05 13.75 38.85Q15.2 38.55 16.85 36.7L17.7 35.6L19.1 33.4Q19 35.25 18.35 36.9L17.35 38.9" />
</g>
</svg>
