<?xml version="1.0" encoding="utf-8"?>
<svg version="1.1" id="Layer_1"
xmlns="http://www.w3.org/2000/svg"
xmlns:xlink="http://www.w3.org/1999/xlink"
xmlns:author="http://www.sothink.com"
width="25px" height="16px"
xml:space="preserve">
<g id="3132" transform="matrix(1, 0, 0, 1, 8.3, 1.85)">
<path style="fill:#480F6B;fill-opacity:1" d="M6.55,-1.6L6.95 -1.25L6.65 -0.7L6.2 -0.65Q5.65 -0.65 5.25 -1L5.1 -1.25L5.35 -1.55L6 -1.85L6.55 -1.6M16.6,11.45L16.3 12L15.85 12.05Q15.3 12.05 14.9 11.65L14.7 11.45L15 11.1L15.6 10.85L16.15 11.05L16.6 11.45M9.05,4.25Q10.8 6.6 10.3 8.35Q9.8 10.05 8 10L7.45 10L7.45 10.3L7.2 11.4L6.4 12.25L4.7 12.5L3.65 12.1L3 12.75L1.3 13.4Q0.75 13.85 -0.55 13.4Q-1.95 12.85 -2.6 11.4Q-3.75 8.7 -2.75 7.1Q-1.9 5.6 -0.2 6.1L0.1 5.65Q0.8 5.05 1.75 5.05L2.85 5.15L3.3 4.35L4.75 3.3Q5.2 2.7 6.55 2.85Q8.1 3 9.05 4.25M-2.05,3.4Q-1.45 3.85 -1.6 4.45L-2.45 4.6Q-3.15 4.6 -3.7 4L-3.85 3.8Q-3.5 3.1 -2.9 3.1Q-2.5 3.1 -2.05 3.4M-8.15,9.6L-8.3 9.4L-8.05 9.05Q-7.7 8.8 -7.4 8.8L-6.85 9.05L-6.45 9.4L-6.75 9.95L-7.2 10Q-7.75 10 -8.15 9.6" />
</g>
</svg>
