<?xml version="1.0" encoding="utf-8"?>
<svg version="1.1" id="Layer_1"
xmlns="http://www.w3.org/2000/svg"
xmlns:xlink="http://www.w3.org/1999/xlink"
xmlns:author="http://www.sothink.com"
width="43px" height="22px"
xml:space="preserve">
<g id="1240" transform="matrix(1, 0, 0, 1, -39.7, -108.85)">
<path style="fill:#524A47;fill-opacity:1" d="M74.05,110.8L74.25 111.1L75.3 113.5Q76.45 116.35 76.65 119.65L75.85 121.3Q73.8 121.15 72.45 120.05L71.7 119.25L71.8 119.15L71.9 119.1Q72.3 118.55 72.5 117.35L72.65 116.3L72.6 115.2L72.2 113.35L72.2 113.3L71.4 111.65L70.5 110.55Q70.7 110.2 71.05 110L73.35 109.85L74.05 110.8M45,118.75L44.95 119.3L43.55 118.25L42.95 117.5Q42.65 116.7 43.25 116.05Q43.75 115.25 45 115L47.1 115.1L47.65 115.25L48.15 115.35Q45.4 116.1 45 118.75" />
<path style="fill:#301D16;fill-opacity:1" d="M67.15,120.55L65.75 120.5Q64.35 120.3 63.15 119.6Q62.1 118.95 61.45 117.9L61.4 117.85L61.3 117.8L60.85 116.55L62.45 117.8Q63.55 118.95 64.85 119.4L67.55 119.7L69.85 119.2L71 118.65L71.25 118.45Q71.8 117.9 71.95 116Q72 114.65 71.6 113.65L71 112.45L70.15 111.2L69.85 110.95L69.85 111.05L69.75 111.05L69.55 111.05L69.15 111.25L67.5 111.2L67.1 110.95Q67.1 110.7 67.4 110.6L67.7 110.55L69.6 110.25L69.8 109.85Q70.1 109.45 71 109.4Q72 108.4 73.8 109.15L74.05 110.05L73.35 109.85L71.05 110Q70.7 110.2 70.5 110.55L71.4 111.65L72.2 113.3L72.2 113.35L72.6 115.2L72.65 116.3L72.5 117.35Q72.3 118.55 71.9 119.1L71.8 119.15Q70.25 119.9 67.15 120.55" />
<path style="fill:#191919;fill-opacity:1" d="M75.85,121.3L76.65 119.65Q77.4 117.2 77.2 115.85Q77.05 114.35 76.5 112.7Q76 111.2 74.65 110.4L74.2 110.1L74.05 110.05L73.8 109.15L74.3 109.35Q76.4 110.3 77.15 112.1Q77.95 113.9 78.1 116.1Q78.3 118.2 77.3 120.65L76.95 121.3L76.8 121.4Q75.75 123.1 73.8 123.05Q71.35 122.95 70.5 121.75Q69.6 120.45 69.75 120L68.5 120.4L67.15 120.55Q70.25 119.9 71.8 119.15L71.7 119.25Q71.3 119.55 70.8 119.65Q70.55 120.05 71.3 121.2Q72.1 122.4 74.1 122.15Q75.2 122.05 75.85 121.3" />
<path style="fill:#7E7470;fill-opacity:1" d="M74.05,110.75L74.05 110.05L74.2 110.1L74.65 110.4Q76 111.2 76.5 112.7Q77.05 114.35 77.2 115.85Q77.4 117.2 76.65 119.65Q76.45 116.35 75.3 113.5L74.25 111.1L74.05 110.8L74.05 110.75" />
<path style="fill:#57351A;fill-opacity:1" d="M67.4,110.6Q67.1 110.7 67.1 110.95L67.5 111.2L69.15 111.25L69.55 111.05L70.15 111.2L71 112.45L71.6 113.65L68.85 114.15L69.95 114.05L60.7 114.5Q61.55 114.8 62.35 115.35L66.4 117.9Q67.7 118.55 68.8 118.65L71 118.65L69.85 119.2L67.55 119.7L64.85 119.4Q63.55 118.95 62.45 117.8L60.85 116.55L60.3 116.35L57.95 116L56.55 116.2Q55.15 116.55 54.3 117.2L54 117.4L54 117.45L53.9 117.5L53.4 116.85L52.4 116.25Q51.75 115.8 50.9 115.45L49.15 114.75L48.45 114.55L48.55 114.15L48.95 112.95L49.75 111.35L48.9 110.5L49.15 110.35L49.2 110.4L50.35 110.65L50.75 110.55L51.75 110.25Q51.75 110.05 51.15 109.9L53.05 109.9L56.55 110L57.25 110L67.4 110.6" />
<path style="fill:#7F5C46;fill-opacity:1" d="M68.8,118.65Q67.7 118.55 66.4 117.9L62.35 115.35Q61.55 114.8 60.7 114.5L69.95 114.05L68.85 114.15L71.6 113.65Q72 114.65 71.95 116Q71.8 117.9 71.25 118.45L71 118.65L68.8 118.65M46.75,113.95L46.75 113.9Q46.75 111.9 47.6 111Q48.1 110.3 48.7 110.3L49.15 110.35L48.9 110.5L49.75 111.35L48.95 112.95L48.55 114.15L48.45 114.55L47.55 114.25L46.75 114.05L46.75 113.95" />
<path style="fill:#25140E;fill-opacity:1" d="M54,117.45L54 117.4L54.3 117.2Q55.15 116.55 56.55 116.2L57.95 116L60.3 116.35L60.85 116.55L61.3 117.8Q60.5 116.95 58.55 116.7L57 116.8Q56.1 117 55.4 117.45L55.2 117.6L54.5 118.2L54.4 118.3L54.3 118.5L54.2 118L54 117.45M48.7,110.3Q48.1 110.3 47.6 111Q46.75 111.9 46.75 113.9L46.75 113.95L45.85 113.9L45.85 113.8Q46 110.7 47.35 109.95L47.85 109.75L48.15 109.65Q49.15 109.3 50.25 109.65L50.4 109.7L51 109.85L51.15 109.9Q51.75 110.05 51.75 110.25L50.75 110.55L50.35 110.65L49.2 110.4L49.15 110.35L48.7 110.3" />
<path style="fill:#382F2C;fill-opacity:1" d="M74.1,122.15Q72.1 122.4 71.3 121.2Q70.55 120.05 70.8 119.65Q71.3 119.55 71.7 119.25L72.45 120.05Q73.8 121.15 75.85 121.3Q75.2 122.05 74.1 122.15M44.95,119.3L45 118.75Q45.4 116.1 48.15 115.35L48.25 115.4L48.55 115.45L49.15 115.65Q50.9 116.2 51.85 116.75L52.75 117.5Q53.45 118.4 53 119.6Q52.5 120.7 49.9 120.65L46.75 120.2L45.15 119.4L44.95 119.3" />
<path style="fill:#0B0B0B;fill-opacity:1" d="M54.2,118L54.3 118.5L54.25 118.6Q54.25 119.4 53.45 120.45Q52.7 121.35 49.75 121.3Q47.4 121.2 45.4 120.45L44.9 120.15L44.55 119.95L43.35 119.2Q42.2 118.25 42.15 117.35Q41.95 116.1 42.75 115.3Q43.55 114.5 44.65 114.2L45.8 113.95L45.85 113.95L45.85 113.9L46.75 113.95L46.75 114.05L47.55 114.25L48.45 114.55L49.15 114.75L50.9 115.45Q51.75 115.8 52.4 116.25L53.4 116.85L53.9 117.5L54 117.45L54.2 118M45.15,119.4L46.75 120.2L49.9 120.65Q52.5 120.7 53 119.6Q53.45 118.4 52.75 117.5L51.85 116.75Q50.9 116.2 49.15 115.65L48.55 115.45L48.25 115.4L48.15 115.35L47.65 115.25L47.1 115.1L45 115Q43.75 115.25 43.25 116.05Q42.65 116.7 42.95 117.5L43.55 118.25L44.95 119.3L45.15 119.4" />
<path style="fill:#000000;fill-opacity:0.25098" d="M60.75,125.3L75.7 126.05Q81.9 126.8 81.9 127.95Q81.9 129 75.7 129.75L60.75 130.5L45.9 129.75Q39.7 129 39.7 127.95Q39.7 126.8 45.9 126.05L60.75 125.3" />
</g>
</svg>
