<?xml version="1.0" encoding="utf-8"?>
<svg version="1.1" id="Layer_1"
xmlns="http://www.w3.org/2000/svg"
xmlns:xlink="http://www.w3.org/1999/xlink"
xmlns:author="http://www.sothink.com"
width="44px" height="44px"
xml:space="preserve">
<g id="193" transform="matrix(1, 0, 0, 1, 0, 0)">
<path style="fill:#FFFFFF;fill-opacity:1" d="M42.6,21.95L42.35 18.9L36.45 18.55L36.5 17.8L43 17.8Q43.35 19.65 43.35 21.65L43.1 25.2L42.1 25.2Q42.6 23.95 42.6 21.95M9.6,13.65Q8.6 14.55 7.6 16.55L6.9 18.35L1.25 18.9L0.35 25.65Q0 23.75 0 21.65Q0 19.6 0.35 17.55L6.65 17.55Q7.2 15.5 8.3 13.7L9.6 13.65M18.2,7.8Q16.75 7.75 14.65 9L13.2 9.7L9.15 5.35Q7.05 6.15 5.25 8.7L4.45 10.15L3.75 9.55Q4.85 7.8 6.35 6.3Q7.75 4.9 9.25 3.85L13.5 8.45Q15.3 7.35 17.45 6.8L17.45 6.25Q18.4 7.8 18.2 7.8M33.8,4.35L31.75 7.25L29.55 10.05Q27.2 7.8 24.35 7.35L24.55 0.95Q23.25 0.75 19.8 0.95L17.45 1.25L17.45 0.35L21.7 0L25.3 0.3L25.3 6.7Q27.55 7.2 29.6 8.45L33.25 3.2Q35.2 4.5 37 6.3Q38.55 7.8 39.7 9.5L39.1 10.05Q37.2 6.9 33.8 4.35M12.65,21.95Q12.75 25.4 15.3 27.9Q17.8 30.5 21.45 30.5Q25.1 30.5 27.65 27.9Q30.15 25.4 30.25 21.95Q30.25 25.95 27.65 28.85Q25.1 31.7 21.45 31.7Q17.8 31.7 15.3 28.85Q12.65 25.95 12.65 21.95" />
<linearGradient
id="LinearGradID_437" gradientUnits="userSpaceOnUse" gradientTransform="matrix(0, 0.0138702, -0.026474, 0, 21.7, 30.55)" spreadMethod ="pad" x1="-819.2" y1="0" x2="819.2" y2="0" >
<stop  offset="0" style="stop-color:#E9E9E9;stop-opacity:1" />
<stop  offset="1" style="stop-color:#BFBFBF;stop-opacity:1" />
</linearGradient>
<path style="fill:url(#LinearGradID_437) " d="M8.3,13.7L8.35 13.65L4.45 10.15L5.25 8.7Q7.05 6.15 9.15 5.35L13.2 9.7L14.65 9Q16.75 7.75 18.2 7.8Q18.4 7.8 17.45 6.25L17.45 1.25L19.8 0.95Q23.25 0.75 24.55 0.95L24.35 7.35Q27.2 7.8 29.55 10.05L31.75 7.25L33.8 4.35Q37.2 6.9 39.1 10.05L35.05 14.2Q36.05 15.85 36.5 17.8L36.45 18.55L42.35 18.9L42.6 21.95Q42.6 23.95 42.1 25.2L36.6 25.2Q36.1 27.55 34.8 29.6L39.85 33.7L37 37Q35.6 38.4 34.1 39.45L29.95 34.6Q28.1 35.75 26 36.4L26.1 42.9L21.7 43.3L17.45 42.9L17.45 36.45Q15.35 35.9 13.7 34.95L10.1 40Q8.1 38.75 6.35 37L3.95 34.15L8.25 29.4Q7.25 27.75 6.8 26L0.4 26L0.35 25.65L1.25 18.9L6.9 18.35L7.6 16.55Q8.6 14.55 9.6 13.65L8.3 13.7M15.3,28.85Q17.8 31.7 21.45 31.7Q25.1 31.7 27.65 28.85Q30.25 25.95 30.25 21.95L30.25 21.7L30.1 20.15L30 19.8Q29.55 17.35 27.65 15.4Q25.1 12.85 21.45 12.85Q17.8 12.85 15.3 15.4Q13.35 17.35 12.85 19.85L12.8 20.2L12.65 21.7L12.65 21.95Q12.65 25.95 15.3 28.85" />
</g>
</svg>
