<?xml version="1.0" encoding="utf-8"?>
<svg version="1.1" id="Layer_1"
xmlns="http://www.w3.org/2000/svg"
xmlns:xlink="http://www.w3.org/1999/xlink"
xmlns:author="http://www.sothink.com"
width="36px" height="11px"
xml:space="preserve">
<g id="2749" transform="matrix(1, 0, 0, 1, 0.75, -0.75)">
<linearGradient
id="LinearGradID_2695" gradientUnits="userSpaceOnUse" gradientTransform="matrix(0, 0.0050354, -0.00512695, 0, 3.45, 4.8)" spreadMethod ="pad" x1="-819.2" y1="0" x2="819.2" y2="0" >
<stop  offset="0" style="stop-color:#FFF980;stop-opacity:1" />
<stop  offset="1" style="stop-color:#E7950A;stop-opacity:1" />
</linearGradient>
<path style="fill:url(#LinearGradID_2695) " d="M33.7,2.1Q33.1 1.2 30.7 1.05Q29.8 1.1 29 1.55Q28.45 1.8 28.25 2.25Q28.15 2.6 28.45 2.45Q30.6 1.4 32.1 2.2L33.9 3Q34.3 3 33.7 2.1M34.4,2.45L34.4 2.5L34.65 3.4L34.3 4.3L34.25 4.35Q33.9 4.75 33.35 4.75L32.6 4.5L32.1 3.8L32.1 3.85L31.65 3.2L30.85 3.05L30.05 3.25L30.05 3.3L29.8 3.55L29.85 3.75L30.05 3.9L30.1 3.95L30.55 4.15L31.4 4.35L32.75 4.75Q33.4 4.95 33.95 5.3L34 5.35L34.75 6.25L35.05 7.65Q35.05 8.6 34.5 9.4L34.55 9.4Q34.05 10.1 33.15 10.55L33.1 10.55Q32.2 10.95 31 10.95Q29.55 10.95 28.6 10.4L28.65 10.4L27.45 9.25L27.45 9.3Q26.95 8.55 26.95 7.85Q26.95 7.3 27.3 7L27.35 6.95L27.4 6.9Q27.75 6.55 28.25 6.55L29.05 6.8L29.1 6.85L29.55 7.55L29.6 7.6L29.85 8.15L29.9 8.2L30.25 8.55L30.95 8.65L31.95 8.35L32 8.35L32.25 7.8L32.15 7.45L31.65 7.2L30.55 6.85L28.85 6.3L27.6 5.35Q27.15 4.65 27.15 3.75Q27.15 2.85 27.65 2.2Q28.1 1.45 29.05 1.1Q29.85 0.75 31 0.75L32.55 1Q33.25 1.2 33.75 1.65L34.4 2.45M25.8,2.5L26.05 3.4L25.7 4.3L25.65 4.35Q25.3 4.75 24.75 4.75L24 4.5L23.5 3.8L23.5 3.85L23.05 3.2L22.25 3.05L21.45 3.25L21.45 3.3L21.2 3.55L21.25 3.75L21.45 3.9L21.5 3.95L21.95 4.15L22.8 4.35L24.15 4.75Q24.8 4.95 25.35 5.3L25.4 5.35L26.15 6.25L26.45 7.65Q26.45 8.6 25.9 9.4L25.95 9.4L24.55 10.55L24.5 10.55Q23.6 10.95 22.4 10.95Q20.95 10.95 20 10.4L20.05 10.4Q19.25 10 18.85 9.25L18.85 9.3Q18.35 8.55 18.35 7.85Q18.35 7.3 18.7 7L18.75 6.95L18.8 6.9Q19.15 6.55 19.65 6.55Q20.15 6.55 20.45 6.8L20.5 6.85L20.95 7.55L21 7.6L21.25 8.15L21.3 8.2L21.65 8.55L22.35 8.65L23.35 8.35L23.4 8.35L23.65 7.8L23.55 7.45L23.05 7.2L21.95 6.85L20.25 6.3Q19.5 5.95 19 5.35Q18.55 4.65 18.55 3.75Q18.55 2.85 19.05 2.2Q19.5 1.45 20.45 1.1L22.4 0.75L23.95 1Q24.65 1.2 25.15 1.65L25.8 2.45L25.8 2.5M20.5,1.55Q19.95 1.8 19.75 2.25Q19.65 2.6 19.95 2.45Q22.1 1.4 23.6 2.2L25.4 3Q25.8 3 25.2 2.1Q24.6 1.2 22.2 1.05Q21.3 1.1 20.5 1.55M15.6,2.1Q15 1.2 12.6 1.05Q11.7 1.1 10.9 1.55Q10.35 1.8 10.15 2.25Q10.05 2.6 10.35 2.45Q12.5 1.4 14 2.2L15.8 3Q16.2 3 15.6 2.1M17.25,3.2Q17.85 4.3 17.85 5.85L17.55 7.9L16.6 9.55Q15.95 10.25 15.05 10.6L15.05 10.55Q14.1 10.95 12.95 10.95Q11.85 10.95 10.9 10.55L10.95 10.6Q10 10.25 9.4 9.5Q8.7 8.8 8.45 7.85L8.45 7.9Q8.1 6.95 8.1 5.85Q8.1 4.7 8.45 3.8Q8.75 2.8 9.4 2.15Q10 1.5 10.9 1.1L10.95 1.1L12.95 0.75Q14.45 0.75 15.55 1.35Q16.7 2 17.25 3.2M11.55,3.85L11.5 3.85Q11.25 4.1 11.15 4.6L10.95 5.85L11.15 7.05L11.15 7.1L11.55 7.9L12.15 8.35L12.95 8.5L14 8.25L14 8.2L14.7 7.4L15 5.85L14.75 4.35L14.05 3.5L12.95 3.2L12.15 3.35L11.55 3.85M5.25,1.5L5.25 1.55Q4.65 1.65 4.5 2.2Q4.9 3.35 6.15 2.75L6.2 2.7Q6.2 1.75 5.25 1.5M6,1.4L6.65 1.95L7.05 2.7L7.1 2.8L7.25 3.65Q7.25 4.8 6.45 5.55Q7.65 6.25 7.65 7.75L7.2 9.4L7.2 9.35Q6.75 10.1 5.95 10.45L5.95 10.5L4.9 10.75L4.85 10.75L3.55 10.8L0.85 10.8Q0 10.8 -0.35 10.4Q-0.75 9.95 -0.75 9.2L-0.75 2.5Q-0.75 1.65 -0.35 1.3L-0.3 1.3Q0.1 0.9 0.85 0.9L3.75 0.9L4.95 1L5.95 1.35L6 1.4M0.45,1.4L0.45 1.45Q-0.15 1.55 -0.3 2.1Q0.1 3.25 1.35 2.65L1.4 2.6Q1.4 1.65 0.45 1.4M2.05,4.55L3.2 4.55L4.1 4.5L4.4 4.2L4.45 3.85L4.3 3.45L3.05 3.25L2.05 3.25L2.05 4.55M4.6,7.1L3.45 6.85L2.05 6.85L2.05 8.45L3.5 8.45Q4.8 8.45 4.85 7.65L4.6 7.1" />
<path style="fill:#FFFFFF;fill-opacity:1" d="M33.9,3L32.1 2.2Q30.6 1.4 28.45 2.45Q28.15 2.6 28.25 2.25Q28.45 1.8 29 1.55Q29.8 1.1 30.7 1.05Q33.1 1.2 33.7 2.1Q34.3 3 33.9 3M22.2,1.05Q24.6 1.2 25.2 2.1Q25.8 3 25.4 3L23.6 2.2Q22.1 1.4 19.95 2.45Q19.65 2.6 19.75 2.25Q19.95 1.8 20.5 1.55Q21.3 1.1 22.2 1.05M15.8,3L14 2.2Q12.5 1.4 10.35 2.45Q10.05 2.6 10.15 2.25Q10.35 1.8 10.9 1.55Q11.7 1.1 12.6 1.05Q15 1.2 15.6 2.1Q16.2 3 15.8 3M6.2,2.7L6.15 2.75Q4.9 3.35 4.5 2.2Q4.65 1.65 5.25 1.55L5.25 1.5Q6.2 1.75 6.2 2.7M1.4,2.6L1.35 2.65Q0.1 3.25 -0.3 2.1Q-0.15 1.55 0.45 1.45L0.45 1.4Q1.4 1.65 1.4 2.6" />
</g>
</svg>
