<?xml version="1.0" encoding="utf-8"?>
<svg version="1.1" id="Layer_1"
xmlns="http://www.w3.org/2000/svg"
xmlns:xlink="http://www.w3.org/1999/xlink"
xmlns:author="http://www.sothink.com"
width="53px" height="39px"
xml:space="preserve">
<g id="3044" transform="matrix(1, 0, 0, 1, 16.5, -2.2)">
<path style="fill:#F7FFDB;fill-opacity:1" d="M26.6,22.75Q27.5 25.15 22.05 26.45L8.45 29.2Q14 32.35 19.65 34.95Q25.25 37.55 26.85 38Q28.45 38.45 28.1 40.2Q27.7 41.95 24.75 40.55L17.15 36.65L4.5 30.15L-1 31.5L-5.9 32.4Q-6.95 32.5 -7.15 31.3Q-7.4 30.15 -4.25 29.5L2.35 28L-10.75 20.85Q-17.3 17.2 -16.4 15.35Q-15.55 13.45 -13.1 13.8L-5.9 14.4Q-1.15 14.7 5.3 14.25L14.45 13.05Q20.7 11.25 25.8 8.2Q30.8 5.15 32.55 2.2Q36.85 2.1 35.45 4.45Q34.05 6.8 27.75 10.45Q21.4 14.1 16.15 15.25L4.45 16.9Q-1.95 17.35 -7.95 16.75Q-13.95 16.05 -6.85 20.15Q0.2 24.2 6 26.85Q21.65 24.15 22.6 22.65Q23.8 21.85 24.55 20.65Q25.65 20.35 26.6 22.75" />
</g>
</svg>
