<?xml version="1.0" encoding="utf-8"?>
<svg version="1.1" id="Layer_1"
xmlns="http://www.w3.org/2000/svg"
xmlns:xlink="http://www.w3.org/1999/xlink"
xmlns:author="http://www.sothink.com"
width="66px" height="103px"
xml:space="preserve">
<g id="1562" transform="matrix(1, 0, 0, 1, -20.25, 0)">
<path style="fill:#000000;fill-opacity:1" d="M30.35,80.3Q30.7 81.45 31.15 82.3Q31.9 83.8 34.15 85.75L36.75 87.9L38.35 88.8L41.65 88.7Q43.7 88 52.45 82.35Q61.2 76.7 62.7 74.85L64.75 71.9Q65.3 70.85 65.4 68.15Q65.45 65.4 64.85 60.95Q64.55 58.6 65 56.6Q65.4 54.8 66.4 53.3L67.2 52Q69.35 48.45 70.15 46.2Q71.25 43.15 70.95 39.95Q70.7 37.15 69.95 34.45Q69.4 32.5 68.15 30.45L67 28.85Q64.8 25.85 62.45 24.9Q60.1 23.9 58.95 23.9Q57.8 23.9 56.15 24.85Q54.45 25.8 52.6 28.35L50.6 31.15L49.15 33.55Q47.6 36.15 44.4 38.75Q41.2 41.3 36.05 43.6Q32.95 45.5 31.8 43.25Q29.4 39.75 28.1 36.75Q27.3 34.9 26.95 33L26.25 34.05L25.8 34.75L25.7 34.9Q24.6 36.6 24.15 40Q23.8 42.9 23.85 44.65Q22.15 45.7 21.8 47.05L21.8 47.1L21.75 47.8Q21.75 49.6 23.2 50.75Q28.8 53.45 32.3 59.25Q33.6 60.4 34.95 59.95L34.7 58.9Q34.6 58 34.8 57.05Q35 55.95 35.95 55.5L35.95 55.6L36.15 56.4L36.25 57.6L36.2 58.75Q36.3 59.95 37.05 60.7L39.85 60.75Q40.7 60.45 41.15 57.75Q41.55 55.05 43.8 53.25L44.4 52.85Q46.55 51.45 50.65 51.3L52 51.2L53.7 50.65Q54.65 50.1 55.15 49.05Q56.2 50.5 55.5 51.65L55 52.2L54.8 52.4L53.05 53.05L50.45 53.35L48.35 53.55Q45.6 54.05 44.4 55.05L43.7 55.85Q42.85 57.4 42.7 58.7Q42.5 60 41.6 61.2L40.35 62.2L38.85 62.55Q36.95 62.65 36.15 62Q35.35 61.3 34.85 61.55L33.35 61.65Q32.75 61.6 32.2 61.2L31.4 60.4L29.65 58.1L28.05 56.25L26.25 54.7Q26.75 55.65 27.15 58.05L27.5 61.7Q26.6 61.3 25.85 60.35L25.45 57.9L24.6 54.25Q24.15 53.25 22.65 52.5Q21.15 51.7 20.55 49.7Q19.9 47.7 20.65 45.9L20.8 45.55L20.9 45.4Q21.5 44.05 22.3 43.9Q22.35 37.85 23.8 35.2L26.1 31.7L27.35 30.25L27.9 29.7Q27.95 30.95 28.4 31.95L28.65 33.9Q28.9 35.35 30.25 38.05Q31.55 40.7 33.55 42.8Q34.95 42.55 39.05 40.5Q42.2 38.95 44.4 36.9L45.65 35.6L49.3 30.75L50.4 29L52.1 26.4Q53.7 24.1 57.65 22.25L57.7 22.2L59.85 21.95L60.95 22.2Q62.8 23.1 64.45 24.35L67.4 26.95L68.75 28.8L69.9 30.6Q71.55 33.15 72.25 39.45Q72.95 45.7 68.6 52.35L66.95 55.55L66.65 56.6Q66.25 58.65 66.7 63.05Q67.25 68.8 66.9 70.65L65.85 73.6Q65.2 74.75 62.55 76.95L53.55 83.3L43.65 89.35Q40.1 91.25 38.05 90.35Q36 89.4 33.3 86.85Q30.6 84.3 29.7 82.1L29.1 80.2L28.8 79.1L30.35 80.3M45.75,65.4L47.05 66.25L47.6 66.6L49.15 65.25Q49.4 65.2 50.1 64.55Q50.5 64.15 50.9 64.4Q51.65 64.75 52.6 66.3L52.6 66.1Q53.6 67.05 54.35 69.3L55.25 72.25L55.4 73.15L55.4 73.2L54.9 72.8L55.3 73.15L53.3 72.35Q53.5 70.95 52.55 68.75Q51.55 66.55 50.65 66.35L48.45 67.95Q47.65 68.45 47.45 68.4L46.55 67.95L45.65 67.4L44.25 68.9Q43 70.05 42.6 69.8Q42.15 69.55 41 67.65L39.8 68.8L38.2 70.4Q37.55 71.1 36.7 70.75L34.65 69.45L33.75 69.6Q33.15 69.85 32.25 68.95Q31.3 68.05 30.5 66.75L29.5 67.3Q27.5 66.95 26.15 64.15L26.05 62.6L26.45 62.9L27.5 63.4L27.5 63.45L27.5 63.5Q27.95 64.65 29.35 65.9Q29.2 65.9 31 64.9L31.2 65.2L32.55 67.05L33.3 68.1Q33.85 67.6 34.7 67.3L34.8 67.4L36.05 68.5L37.05 69.4Q38.7 67.55 41.1 65.75L41.2 65.65L42.55 66.95L43.15 67.6L45.75 65.4M37.65,52.85Q37.4 52.6 37.6 52L38.1 50.7Q38.5 49.85 39.2 49.1L40.2 48.15L41.15 47.4Q42.65 46.35 44.4 45.8L46.15 45.3Q50.9 45.5 47.15 46.5L45.3 47.05L44.4 47.4Q42.6 48.2 41.6 49.25L38.95 52.15L37.95 52.95L37.65 52.85M33.4,54L33.15 53.8Q31.6 52.2 29.4 50.65Q27.15 49.05 29.9 49.3L31.05 49.8Q32.95 50.75 33.75 52.8Q34.6 55.15 33.4 54" />
<path style="fill:#1C1417;fill-opacity:1" d="M55,52.2L55.5 51.65Q56.2 50.5 55.15 49.05Q54.65 50.1 53.7 50.65L52 51.2L50.65 51.3Q46.55 51.45 44.4 52.85L43.8 53.25Q41.55 55.05 41.15 57.75Q40.7 60.45 39.85 60.75L37.05 60.7Q36.3 59.95 36.2 58.75L36.6 59.25Q37.95 60.5 39.05 59.4L39.15 58.9Q39.45 56.95 41.4 54.1Q42.8 52 44.4 51.2Q45.35 50.7 46.35 50.65L50.85 50.2L53.15 49.7Q52.4 48.35 51.95 46.65Q50.9 42.9 51.3 37.5L50.6 31.15L52.6 28.35Q54.45 25.8 56.15 24.85Q57.8 23.9 58.95 23.9Q60.1 23.9 62.45 24.9Q64.8 25.85 67 28.85L68.15 30.45Q69.4 32.5 69.95 34.45Q70.7 37.15 70.95 39.95Q71.25 43.15 70.15 46.2Q69.35 48.45 67.2 52L66.4 53.3Q65.4 54.8 65 56.6Q64.55 58.6 64.85 60.95Q65.45 65.4 65.4 68.15Q65.3 70.85 64.75 71.9L62.7 74.85Q61.2 76.7 52.45 82.35Q43.7 88 41.65 88.7L38.35 88.8L36.75 87.9L34.15 85.75Q31.9 83.8 31.15 82.3Q30.7 81.45 30.35 80.3L28.8 79.1L28.35 76.75L28.3 76.3Q27.8 72.75 28.55 71.15Q29.3 69.5 29.55 69.9L30.4 71.35L31.45 73Q31.75 73.4 32.1 73.15L32.9 73.1Q33.4 73.25 35.25 74.7Q37.1 76.15 37.45 75.95L40.1 74.4Q42.4 73 43.4 73.45L45.8 75L47.05 73Q47.4 72.65 49 73.55L50.55 71.85L51.75 71.75L52.75 72.1L53.4 72.45L53.3 72.35L55.3 73.15L55.4 73.25Q55.55 73.95 55.05 74.3L54.95 74.25L53.1 74L51.4 73.35L50.1 74.95Q49.35 75.7 49.35 75.9L47.6 74.85L45.75 76.65Q44.5 75.65 42.75 74.95L41.45 75.6Q40.55 75.95 38.6 77L36.7 77.9L33.6 75.3L32.4 74.6L31.75 75.05Q31.1 75.35 30.7 74.55Q30.3 73.75 29.8 71.85Q29.3 72.3 29.3 74.1Q29.25 75.5 29.6 77.35L29.8 78.35L30.15 79.65L30.85 80.65Q32.9 83.5 34.05 84.1Q35.85 85.7 37.55 86.2Q40.3 88.3 48.15 81.85L49.7 80.75L49.9 80.2L50.45 79.35L51.25 79.2L52.55 79.1Q53.75 78.85 56.05 77.6L56.65 76.65Q57 75.75 57.55 75.35L56.75 73.8Q56.05 72.1 55.9 70.25Q55.4 65.05 60.75 60.75L61 60.05Q61.95 57.75 61.85 56.6L61.8 56.25Q61.65 55.7 59.7 54.95Q57.2 53.95 55.8 52.9L55 52.2M55.35,56.6Q55.2 58.35 54.4 59.5Q53.5 60.75 52.3 61Q47.6 62.8 42.85 62.55L42.65 62.55Q37.75 65.9 33.6 64Q32.2 63.35 31.05 62.15L30.7 61.75L29.45 62L27.5 61.7L27.5 63.4L26.45 62.9L26.05 62.6L26 62.15L25.85 60.35Q26.6 61.3 27.5 61.7L27.15 58.05Q26.75 55.65 26.25 54.7L28.05 56.25L29.65 58.1L31.4 60.4L32.2 61.2Q32.75 61.6 33.35 61.65L34.85 61.55Q35.35 61.3 36.15 62Q36.95 62.65 38.85 62.55L40.35 62.2L41.6 61.2Q42.5 60 42.7 58.7Q42.85 57.4 43.7 55.85L44.4 55.05Q45.6 54.05 48.35 53.55L50.45 53.35L53.05 53.05L54.8 52.4Q55.45 54.8 55.35 56.6M24.3,49.95L24.7 50.15L27.95 52.75Q31 55.4 32.35 57.45L33.25 56.35Q33.75 55.3 33.4 54Q34.6 55.15 33.75 52.8Q32.95 50.75 31.05 49.8L33.8 50.65L35.65 50.9L39.2 49.1Q38.5 49.85 38.1 50.7L37.6 52Q37.4 52.6 37.65 52.85L37.95 52.95Q37 54.35 36.3 56L36.15 56.4L35.95 55.6L35.95 55.5Q35 55.95 34.8 57.05Q34.6 58 34.7 58.9L34.95 59.95Q33.6 60.4 32.3 59.25Q28.8 53.45 23.2 50.75Q21.75 49.6 21.75 47.8L21.8 47.1Q23.1 49.2 24.3 49.95M29.2,64.75L30.6 63.35L31.2 65.2L31 64.9Q29.2 65.9 29.35 65.9Q27.95 64.65 27.5 63.5L27.5 63.45L29.2 64.75M34.7,67.3Q33.85 67.6 33.3 68.1L32.55 67.05L34.1 66.1L34.8 67.4L34.7 67.3M37.05,69.4L36.05 68.5L40.95 64.35L41.1 65.75Q38.7 67.55 37.05 69.4M43.15,67.6L42.55 66.95L44.85 64L45.35 64.5L45.75 65.4L43.15 67.6M52.6,66.3Q51.65 64.75 50.9 64.4Q50.5 64.15 50.1 64.55Q49.4 65.2 49.15 65.25L47.6 66.6L47.05 66.25L49.35 63.15L51.5 63.35Q52.4 63.85 53.1 64.9Q53.8 65.9 52.6 66.1L52.6 66.3" />
<path style="fill:#352A2E;fill-opacity:1" d="M55.8,52.9Q57.2 53.95 59.7 54.95Q61.65 55.7 61.8 56.25L61.85 56.6Q61.95 57.75 61 60.05L60.75 60.75Q55.4 65.05 55.9 70.25Q56.05 72.1 56.75 73.8L57.55 75.35Q57 75.75 56.65 76.65L56.05 77.6Q53.75 78.85 52.55 79.1L51.25 79.2L50.45 79.35L49.9 80.2L49.7 80.75L48.15 81.85Q40.3 88.3 37.55 86.2Q35.85 85.7 34.05 84.1Q32.9 83.5 30.85 80.65L30.15 79.65L29.8 78.35L29.6 77.35Q29.85 76.55 30.2 76.5L31.6 77.6L32.1 76.85L36.9 79.7L42.95 76.9L46.05 78.75L48.4 76.85L50 77.3L50.4 77.55L51.75 75L53.9 76L55 74.3L55.05 74.3Q55.55 73.95 55.4 73.25L55.3 73.15L54.9 72.8L55.4 73.2L55.4 73.15L55.25 72.25L54.35 69.3Q53.6 67.05 52.6 66.1Q53.8 65.9 53.1 64.9Q52.4 63.85 51.5 63.35L49.35 63.15L47.05 66.25L45.75 65.4L45.35 64.5L44.85 64L42.55 66.95L41.2 65.65L41.1 65.75L40.95 64.35L36.05 68.5L34.8 67.4L34.1 66.1L32.55 67.05L31.2 65.2L30.6 63.35L29.2 64.75L27.5 63.45L27.5 63.4L27.5 61.7L29.45 62L30.7 61.75L31.05 62.15Q32.2 63.35 33.6 64Q37.75 65.9 42.65 62.55L42.85 62.55Q47.6 62.8 52.3 61Q53.5 60.75 54.4 59.5Q55.2 58.35 55.35 56.6Q55.45 54.8 54.8 52.4L55 52.2L55.8 52.9M35.65,50.9L33.8 50.65L31.05 49.8L29.9 49.3Q27.15 49.05 29.4 50.65Q31.6 52.2 33.15 53.8L33.4 54Q33.75 55.3 33.25 56.35L32.35 57.45Q31 55.4 27.95 52.75L24.7 50.15L24.3 49.95L23.95 49.05L23.75 48.2Q23.55 46.5 25.05 45.75Q24.7 43.2 24.85 40.25Q25 36.9 25.8 34.75L26.25 34.05L26.95 33Q27.3 34.9 28.1 36.75Q29.4 39.75 31.8 43.25Q32.95 45.5 36.05 43.6Q41.2 41.3 44.4 38.75Q47.6 36.15 49.15 33.55L50.6 31.15L51.3 37.5Q50.9 42.9 51.95 46.65Q52.4 48.35 53.15 49.7L50.85 50.2L46.35 50.65Q45.35 50.7 44.4 51.2Q42.8 52 41.4 54.1Q39.45 56.95 39.15 58.9L39.05 59.4Q37.95 60.5 36.6 59.25L36.2 58.75L36.25 57.6L36.15 56.4L36.3 56Q37 54.35 37.95 52.95L38.95 52.15L41.6 49.25Q42.6 48.2 44.4 47.4L45.3 47.05L47.15 46.5Q50.9 45.5 46.15 45.3L44.4 45.8Q42.65 46.35 41.15 47.4L40.2 48.15L39.2 49.1L35.65 50.9M44.75,42.15Q46.3 40.8 45.65 39.65L44.4 40.65L41.85 42.45L39.3 44.15L37.1 45.35L35.5 46.05L33.25 46.2Q32.1 45.9 30.75 43.9L27.2 37.6L27.35 38.25Q27.8 40.35 28.95 42.9Q30.1 45.45 31.25 46.45Q33.4 48.45 37.05 46.95L39.4 45.9L41.75 44.45L44.4 42.45L44.75 42.15M43.85,48.45Q42.75 49.25 42.05 50.3Q40.95 51.95 42.8 50.55L44.4 49.65L45.45 49.3Q48.3 48.55 46.45 47.35Q45.35 47.5 44.4 48.1L43.85 48.45" />
<path style="fill:#625158;fill-opacity:1" d="M21.8,47.1L21.8 47.05Q22.15 45.7 23.85 44.65Q23.8 42.9 24.15 40Q24.6 36.6 25.7 34.9L25.8 34.75Q25 36.9 24.85 40.25Q24.7 43.2 25.05 45.75Q23.55 46.5 23.75 48.2L23.95 49.05L24.3 49.95Q23.1 49.2 21.8 47.1M44.4,42.45L41.75 44.45L39.4 45.9L37.05 46.95Q33.4 48.45 31.25 46.45Q30.1 45.45 28.95 42.9Q27.8 40.35 27.35 38.25L27.2 37.6L30.75 43.9Q32.1 45.9 33.25 46.2L35.5 46.05L37.1 45.35L39.3 44.15L41.85 42.45L44.4 40.65L45.65 39.65Q46.3 40.8 44.75 42.15L44.4 42.45M44.4,48.1Q45.35 47.5 46.45 47.35Q48.3 48.55 45.45 49.3L44.4 49.65L42.8 50.55Q40.95 51.95 42.05 50.3Q42.75 49.25 43.85 48.45L44.4 48.1M29.6,77.35Q29.25 75.5 29.3 74.1Q29.3 72.3 29.8 71.85Q30.3 73.75 30.7 74.55Q31.1 75.35 31.75 75.05L32.4 74.6L33.6 75.3L36.7 77.9L38.6 77Q40.55 75.95 41.45 75.6L42.75 74.95Q44.5 75.65 45.75 76.65L47.6 74.85L49.35 75.9Q49.35 75.7 50.1 74.95L51.4 73.35L53.1 74L54.95 74.25L55.05 74.3L55 74.3L53.9 76L51.75 75L50.4 77.55L50 77.3L48.4 76.85L46.05 78.75L42.95 76.9L36.9 79.7L32.1 76.85L31.6 77.6L30.2 76.5Q29.85 76.55 29.6 77.35" />
<path style="fill:#B8373B;fill-opacity:1" d="M64.5,30.6L65.65 31.8Q68.25 37.3 65.85 40.65Q64.45 42.6 62.2 43.2Q54.15 44.6 49.7 37.8Q48.5 35.95 47.7 33.7Q47.55 31.6 47.8 29.35L48.05 27.35Q50.1 36.85 57.9 36.7Q59.7 36.6 61.3 34.4Q62.8 32.35 63.4 29L64.5 30.6M62.6,89.15Q61.45 90.1 60.3 92Q60.1 89.7 60.45 88.1L60.8 86.9Q61.15 85.7 61.85 84.25Q63.7 83.25 65.6 82.8Q63 85.5 62.6 89.15M70.25,82.7L71 82.9Q72.8 83.65 74.05 84.9L74.4 85.25Q71.75 87.45 69.45 91.1Q68.2 88.8 66.95 88.25Q68 84.8 70.25 82.7" />
<path style="fill:#F78348;fill-opacity:1" d="M61.3,34.4Q59.7 36.6 57.9 36.7Q50.1 36.85 48.05 27.35Q48.5 24.35 49.4 21.65Q49.6 24.75 50.3 26.85Q51.8 31.35 55.5 30.9Q57.5 30.85 59 28.8Q60.5 26.75 61.65 23.5L61.8 24.6L62.25 26.4Q62.65 27.75 63.4 29Q62.8 32.35 61.3 34.4M62.6,89.15L62.45 90.95Q62.4 92.3 62.85 94.15Q63.3 95.95 64.4 96.5Q65.2 96.95 65.9 93.3Q65.7 92.75 66.75 88.8L66.95 88.25Q68.2 88.8 69.45 91.1L67.6 94.4Q66.05 97.45 65.1 100.25Q63.8 100 62.65 98.5Q61.35 96.9 60.95 95.45L60.5 93.6L60.3 92Q61.45 90.1 62.6 89.15" />
<path style="fill:#FFB46D;fill-opacity:1" d="M59,28.8Q57.5 30.85 55.5 30.9Q51.8 31.35 50.3 26.85Q49.6 24.75 49.4 21.65Q50.35 18.6 51.9 15.85L53.05 13.9Q55.8 9.35 58.45 6.75L60.2 5Q61.9 3.35 62.75 2.9Q63.9 2.2 65.15 1.8Q66.35 1.35 64.5 5.2Q62.65 9.05 61.8 13.8Q61.25 16.95 61.35 20.2L61.65 23.5Q60.5 26.75 59 28.8M61,6.9Q60.3 6.7 58.5 8.55Q56.65 10.35 54.75 13.85Q52.85 17.35 53.15 19.65Q53.4 21.9 54.75 21.75Q56.1 21.55 56.95 19.55L59.3 13.45L61.25 8.25Q61.7 7.1 61 6.9" />
<path style="fill:#FF4715;fill-opacity:1" d="M48.05,27.35L47.55 24.2L47.45 22.9L48.45 19.6L49.3 17.5L49.3 20L49.4 21.65Q48.5 24.35 48.05 27.35M63.4,29Q62.65 27.75 62.25 26.4L61.8 24.6L61.65 23.5L63.05 19.45L63.05 21.1L63.15 21.1L63.25 22.9L63.25 23L63.25 23.5Q63.3 24.5 63.7 25.7L63.4 29M64.5,102.05Q63.9 101.9 63 101.4L61.2 99.85L59.75 97.8L59.2 96.65L58.75 94.9L59.2 93.9L59.3 93.7L60.3 92L60.5 93.6L60.95 95.45Q61.35 96.9 62.65 98.5Q63.8 100 65.1 100.25L64.5 102.05" />
<path style="fill:#9A1318;fill-opacity:1" d="M46.3,30.2Q46.5 26.45 47.45 22.9L47.55 24.2L48.05 27.35L47.8 29.35Q47.55 31.6 47.7 33.7L47.75 34.1L46.3 30.2M64.65,27.85L65.65 31.8L64.5 30.6L63.4 29L63.7 25.7L63.85 26.1L64.2 26.9L64.65 27.85M60.8,86.9L60.45 88.1Q60.1 89.7 60.3 92L59.3 93.7L59.2 93.9L58.75 94.9Q58.4 93.25 58.4 91.3L58.5 89Q58.7 87.45 59.2 86L59.2 85.95L59.5 85.75Q60.65 84.9 61.85 84.25Q61.15 85.7 60.8 86.9" />
<path style="fill:#640B2A;fill-opacity:1" d="M64.65,27.85Q65.65 29.55 67.55 31.25L68.3 31.9L68.6 32.15L70.15 34.4L69.85 34.3Q67.45 33.45 65.65 31.8L64.65 27.85" />
<path style="fill:#9F2529;fill-opacity:1" d="M75.55,87.3L74.6 87.9L72.8 89.4L72.25 89.9Q70.75 91.4 69.85 92.9L69.45 91.1Q71.75 87.45 74.4 85.25L75.65 87.25L75.55 87.3" />
<path style="fill:#7E0C10;fill-opacity:1" d="M75.35,89.45L73.65 90.9L73.6 90.95Q71.6 92.95 70.5 95.2L69.8 96.55L69.85 92.9Q70.75 91.4 72.25 89.9L72.8 89.4L74.6 87.9L75.55 87.3L75.65 87.25L76.15 88.9L75.35 89.45" />
<path style="fill:#E06B2F;fill-opacity:1" d="M65.1,100.25Q66.05 97.45 67.6 94.4L69.45 91.1L69.85 92.9L69.55 93.45Q68.6 95.2 67.6 97.85Q66.55 100.45 65.25 100.3L65.1 100.25" />
<path style="fill:#D23409;fill-opacity:1" d="M68.45,99.45Q67.6 101.4 66.2 101.9L64.5 102.05L65.1 100.25L65.25 100.3Q66.55 100.45 67.6 97.85Q68.6 95.2 69.55 93.45L69.85 92.9L69.8 96.55L68.45 99.45" />
<path style="fill:#FFA97E;fill-opacity:1" d="M63.55,88.5Q65.15 87.75 66.6 88.15L66.95 88.25L66.75 88.8Q65.7 92.75 65.9 93.3Q65.2 96.95 64.4 96.5Q63.3 95.95 62.85 94.15Q62.4 92.3 62.45 90.95L62.6 89.15L63.55 88.5" />
<path style="fill:#E26165;fill-opacity:1" d="M65.6,82.8L69.3 82.4L70.25 82.7Q68 84.8 66.95 88.25L66.6 88.15Q65.15 87.75 63.55 88.5L62.6 89.15Q63 85.5 65.6 82.8" />
<path style="fill:#EC7941;fill-opacity:1" d="M49.3,17.5Q51.75 11.8 55.45 7.85L56.15 7.1Q59.9 3.1 61.8 1.85Q63.85 0.5 65.15 0.1Q66.5 -0.35 67 1.5Q67.45 3.3 66.05 6.15Q64.6 9 63.75 13.3L63.65 13.85Q63.1 16.85 63.05 19.45L61.65 23.5L61.35 20.2Q61.25 16.95 61.8 13.8Q62.65 9.05 64.5 5.2Q66.35 1.35 65.15 1.8Q63.9 2.2 62.75 2.9Q61.9 3.35 60.2 5L58.45 6.75Q55.8 9.35 53.05 13.9L51.9 15.85Q50.35 18.6 49.4 21.65L49.3 20L49.3 17.5" />
<path style="fill:#FFEBBD;fill-opacity:1" d="M61.25,8.25L59.3 13.45L56.95 19.55Q56.1 21.55 54.75 21.75Q53.4 21.9 53.15 19.65Q52.85 17.35 54.75 13.85Q56.65 10.35 58.5 8.55Q60.3 6.7 61 6.9Q61.7 7.1 61.25 8.25" />
<path style="fill:#A82323;fill-opacity:1" d="M74.05,84.9Q72.8 83.65 71 82.9L70.25 82.7L71.2 81.9Q72.1 81 72.4 80.2L72.55 79.6Q72.55 78.55 70 79.6L68.9 80.2Q66.95 81.35 65.6 82.8Q63.7 83.25 61.85 84.25L62.55 82.9Q63.3 81.5 64.35 80.2L65.4 78.95Q69.85 77.3 73.6 77.6L75.4 78.1Q77.5 78.85 79 80L79.25 80.2L80.45 81.3L78.8 82.7Q76.5 83.5 74.4 85.25L74.05 84.9" />
<path style="fill:#951717;fill-opacity:1" d="M79.9,84.85L75.65 87.25L74.4 85.25Q76.5 83.5 78.8 82.7L80.45 81.3Q81.3 82.3 81.75 83.5L79.9 84.85" />
<path style="fill:#D43838;fill-opacity:1" d="M63.75,22.9L69.95 22.75L71.7 25L72.5 26.4Q70.35 25.65 68.75 25.45Q65.8 25.2 63.85 26.1L63.7 25.7Q63.3 24.5 63.25 23.5L63.25 23L63.25 22.9L63.75 22.9M47.75,34.1L49.25 37.35Q52.9 44.5 57.8 48.05Q55.85 47.15 53.95 45.6Q51.55 43.65 49.45 41Q48.05 37.75 47.75 34.1M69.3,82.4L65.6 82.8Q66.95 81.35 68.9 80.2L70 79.6Q72.55 78.55 72.55 79.6L72.4 80.2Q72.1 81 71.2 81.9L70.25 82.7L69.3 82.4" />
<path style="fill:#2C0606;fill-opacity:1" d="M79.95,65.45L80.4 65.5L81.25 66.55Q84.5 70.8 85.6 74.7Q86.65 78.55 84.95 81.8L84.1 83.15L83.5 83.9L82.15 85.25L81.75 83.5L83.05 81.9L83.65 80.55L83.75 80.2Q84.45 77.65 83.7 74.75L83.1 72.95Q82.65 69.35 79.95 65.45" />
<path style="fill:#640B0B;fill-opacity:1" d="M49.45,41L49.35 40.85L46.8 37.75L46.35 34.7L46.3 30.2L47.75 34.1Q48.05 37.75 49.45 41" />
<path style="fill:#330F0F;fill-opacity:1" d="M64.25,77.4L64.5 77.2L65.95 76.05L67.45 75.2L68.2 75L69.35 75L69.9 75.15L69.85 75.15L69.25 75.5L66.9 77.45L66.25 78.05L65.4 78.95L63.95 79.5L61.95 80.55L62.15 80.2L62.2 80.15Q63.2 78.6 64.25 77.4" />
<path style="fill:#150808;fill-opacity:1" d="M26.9,89.55L27.1 89.85Q27.5 90.25 28.4 89.85L30.2 88.9L31.45 88.05L32.15 87.25L32.65 86Q32.75 85.2 32.25 84.4L31.3 83.45L30.35 83.3L30.1 83.3L30.05 83.35Q29.55 83.5 28.9 84.05Q28 84.75 27.6 85.5L27.05 86.95L26.8 88.55L26.9 89.5L26.9 89.55M33.7,84.15Q34.05 85.2 33.9 86.35Q33.7 87.45 33.2 88.15L31.75 89.55L29.4 91Q28 91.75 27.25 91.75Q26.5 91.75 25.9 91.15Q25.55 90.8 25.45 90.25L25.3 89.1L25.5 87Q25.75 85.5 26.6 84.3Q27.4 83 28.8 82.25L29.5 81.9Q30.85 81.5 32.1 82.3Q33.35 83.1 33.7 84.15M72.85,61.55Q69.8 59.9 67.1 59.95L66.95 59.95Q63.9 60 62 61.4Q60.1 62.75 59.45 65.15Q59.05 66.6 59.05 67.75L59.25 69.15Q59.65 70.7 60.7 72.15Q61.7 73.6 63.45 74.7L65.75 76.15L65.95 76.05L64.5 77.2L64.25 77.4L64.45 77.15Q62.1 76.25 59.8 73.7Q55.9 69.35 58 63.95Q58.45 62.8 59.1 61.9Q61.35 58.65 66.15 58.35L67.1 58.35Q70.85 58.3 74.2 60.15L75.75 61.15L72.85 61.55M51.45,84Q55.3 89.3 53.55 94.15Q53.35 94.8 52.45 95Q51.55 95.15 48.9 94.05Q46.2 92.9 44.4 90.8Q42.55 88.7 43.2 86.9Q43.6 85.65 44.15 84.85L44.75 84.15Q46.15 82.8 48 82.7L49.7 82.9Q50.55 83.25 51.4 83.95L51.45 84M44.75,87.15L44.75 88.2Q45.7 90 47 91.15Q48.8 92.75 51.3 93.05Q51.9 93 52.2 92.15L52.35 90.7L52.35 90.15Q52.25 88.4 51.5 87.05L51.4 86.85L51.3 86.7Q50.25 85 48.9 84.5Q47.55 84 46 85.3L45.2 86.2L44.8 87.05L44.75 87.15" />
<path style="fill:#740B0F;fill-opacity:1" d="M79.45,86.95Q77.6 87.9 76.15 88.9L75.65 87.25L79.9 84.85L81.75 83.5L82.15 85.25L79.45 86.95M59.2,85.9Q59.65 84.55 60.35 83.3L61.95 80.55L63.95 79.5L65.4 78.95L64.35 80.2Q63.3 81.5 62.55 82.9L61.85 84.25Q60.65 84.9 59.5 85.75L59.2 85.95L59.2 85.9" />
<path style="fill:#2A1F24;fill-opacity:1" d="M72.5,26.4Q75.8 27.55 78.7 30.55L81.45 33.75Q83.45 37.1 83.9 41.35L83.9 41.4L83.4 45Q81.15 48.65 76.65 50.35Q74.25 51.25 71.45 51.5L72.25 50.9Q80.3 44.45 72.55 34.3L72.7 34.2Q73.75 33.65 71.95 33.55L71.85 33.55Q70.35 33.45 68.65 32.15Q74.35 30.65 72.5 26.4" />
<path style="fill:#35282E;fill-opacity:1" d="M71.45,51.5Q74.25 51.25 76.65 50.35Q81.15 48.65 83.4 45L83.15 45.8Q82.65 47.25 81.3 49.05Q79.95 50.8 77.45 52.35Q74.9 53.9 70.6 54.1L67.2 53.9Q69.5 52.95 71.45 51.5" />
<path style="fill:#56444C;fill-opacity:1" d="M69.95,22.75Q71.55 23.05 73.1 23.8Q77.55 25.95 79.9 29.05Q82.2 32.15 83.2 35.3Q84.15 38.4 83.9 41.35Q83.45 37.1 81.45 33.75L78.7 30.55Q75.8 27.55 72.5 26.4L71.7 25L69.95 22.75" />
<path style="fill:#190C0C;fill-opacity:1" d="M83.9,41.4L84.05 43.8Q85 41.7 85.35 39.05L85.4 40.85L84.95 44.15L83.7 47.75Q82.8 49.7 80.75 51.7Q78.7 53.65 75.4 54.65Q72.1 55.65 68.35 55.4L64.6 54.85L67.2 53.9L70.6 54.1Q74.9 53.9 77.45 52.35Q79.95 50.8 81.3 49.05Q82.65 47.25 83.15 45.8L83.4 45L83.9 41.4" />
<path style="fill:#2C1414;fill-opacity:1" d="M84.05,43.8L83.9 41.4L83.9 41.35Q84.15 38.4 83.2 35.3Q82.2 32.15 79.9 29.05Q77.55 25.95 73.1 23.8Q71.55 23.05 69.95 22.75L68.4 21.2L68.05 20.9L71.5 21.7Q76 23.2 78.55 25.45Q81.05 27.75 82.95 31.1L84.25 34Q84.9 35.65 85.2 37.4L85.35 39.05Q85 41.7 84.05 43.8" />
<path style="fill:#581F1F;fill-opacity:1" d="M63.15,21.1L63.65 21L68.05 20.9L68.4 21.2L69.95 22.75L63.75 22.9L63.25 22.9L63.15 21.1" />
<path style="fill:#35252C;fill-opacity:1" d="M72.55,34.3Q80.3 44.45 72.25 50.9L71.45 51.5L69.85 51.6L66.7 51.45Q61.8 50.95 57.8 48.05Q63.95 51 70.35 47.95Q72.65 46.55 73.5 43.9Q74.9 39.45 70.15 34.4L72.55 34.3" />
<path style="fill:#8E2424;fill-opacity:1" d="M68.65,32.15L68.55 32.1L68.1 31.3L68.3 31.9L67.55 31.25Q65.65 29.55 64.65 27.85L64.2 26.9L63.85 26.1Q65.8 25.2 68.75 25.45Q70.35 25.65 72.5 26.4Q74.35 30.65 68.65 32.15M49.7,37.8Q54.15 44.6 62.2 43.2Q64.45 42.6 65.85 40.65Q68.25 37.3 65.65 31.8Q67.45 33.45 69.85 34.3L70.15 34.4Q74.9 39.45 73.5 43.9Q72.65 46.55 70.35 47.95Q63.95 51 57.8 48.05Q52.9 44.5 49.25 37.35L47.75 34.1L47.7 33.7Q48.5 35.95 49.7 37.8" />
<path style="fill:#46323A;fill-opacity:1" d="M71.45,51.5Q69.5 52.95 67.2 53.9Q64.25 53.55 60.8 52.35Q55.25 50.4 51.05 43.95L49.45 41Q51.55 43.65 53.95 45.6Q55.85 47.15 57.8 48.05Q61.8 50.95 66.7 51.45L69.85 51.6L71.45 51.5" />
<path style="fill:#231111;fill-opacity:1" d="M49.35,40.85L49.45 41L51.05 43.95Q55.25 50.4 60.8 52.35Q64.25 53.55 67.2 53.9L64.6 54.85L60.55 53.7Q56.5 52.2 53.8 49.8Q50.15 46.5 48.05 41.65Q47.2 39.75 46.8 37.75L49.35 40.85M77.6,65.05Q75.8 63.25 73.7 62L72.85 61.55L75.75 61.15L77.95 62.9L80.05 65.05L80.4 65.5L79.95 65.45Q82.65 69.35 83.1 72.95Q82.1 70.55 80.1 67.9L78.1 65.55L77.6 65.05M68.65,32.15Q70.35 33.45 71.85 33.55L71.95 33.55Q73.75 33.65 72.7 34.2L72.55 34.3L70.15 34.4L68.6 32.15L68.3 31.9L68.1 31.3L68.55 32.1L68.65 32.15" />
<path style="fill:#1C1111;fill-opacity:1" d="M30.1,83.3L30.35 83.3L31.3 83.45L32.25 84.4Q32.75 85.2 32.65 86L32.15 87.25L31.45 88.05L30.2 88.9L28.4 89.85Q27.5 90.25 27.1 89.85L26.9 89.55L27.15 89.4L27.55 89.1L28.55 88.35Q30.8 86.55 30.9 85.3L30.85 84.3Q30.65 83.65 30.05 83.35L30.1 83.3M62.5,72.55Q59.9 70.45 59.05 67.75Q59.05 66.6 59.45 65.15Q60.1 62.75 62 61.4Q63.9 60 66.95 59.95L67.1 59.95Q69.8 59.9 72.85 61.55L70.6 62.2L69.1 61.7L67.8 61.85Q67.1 62.35 68.65 63.55L68.45 63.6L67.1 64.85Q65.55 66.5 65.2 68.5Q65.75 69.75 67.05 70.6Q69.8 72.55 74.55 72.35L73.25 72.75L69.35 75L68.2 75L67.45 75.2Q64.85 74.4 62.5 72.55M47,91.15Q45.7 90 44.75 88.2L44.75 87.15L44.8 87.05L44.95 87.55Q45.4 88.65 46.65 89.5Q48.25 90.65 50.2 90.4Q51.5 89.35 51.45 87.5L51.45 87.45L51.4 86.85L51.5 87.05Q52.25 88.4 52.35 90.15L51.7 90.95Q51.05 91.55 50.4 91.8Q49.4 92.15 47 91.15" />
<path style="fill:#251616;fill-opacity:1" d="M75.4,65.05Q73.75 63.65 71.7 62.75L70.6 62.2L72.85 61.55L73.7 62Q75.8 63.25 77.6 65.05L78.1 65.55L76.35 65.95L75.4 65.05M69.35,75L73.25 72.75L74.55 72.35Q69.8 72.55 67.05 70.6Q65.75 69.75 65.2 68.5Q65.55 66.5 67.1 64.85L68.45 63.6L68.65 63.55Q68.95 63.9 70.9 64.7L72.85 66L74.15 66.9Q72.95 67.6 71.85 68.7Q74.4 69.7 76.35 71.15Q78.35 72.65 79.1 73.9Q74.8 73.05 70.2 74.95L69.9 75.15L69.35 75M67.45,75.2L65.95 76.05L65.75 76.15L63.45 74.7Q61.7 73.6 60.7 72.15Q59.65 70.7 59.25 69.15L59.05 67.75Q59.9 70.45 62.5 72.55Q64.85 74.4 67.45 75.2" />
<path style="fill:#331F1F;fill-opacity:1" d="M68.65,63.55Q67.1 62.35 67.8 61.85L69.1 61.7L70.6 62.2L68.65 63.55" />
<path style="fill:#412828;fill-opacity:1" d="M68.65,63.55L70.6 62.2L71.7 62.75Q73.75 63.65 75.4 65.05L76.35 65.95Q75.2 66.3 74.15 66.9L72.85 66L70.9 64.7Q68.95 63.9 68.65 63.55" />
<path style="fill:#4A1717;fill-opacity:1" d="M79.25,80.2L79 80Q77.5 78.85 75.4 78.1L73.6 77.6Q69.85 77.3 65.4 78.95L66.25 78.05L66.9 77.45L69.25 75.5L69.85 75.15L69.9 75.15L70.2 74.95Q74.8 73.05 79.1 73.9Q78.35 72.65 76.35 71.15Q74.4 69.7 71.85 68.7Q72.95 67.6 74.15 66.9L76.6 69.15Q77.45 70.1 78.35 70.45Q79.2 70.8 78.7 69Q77.7 67.25 76.35 65.95L78.1 65.55L80.1 67.9Q82.1 70.55 83.1 72.95Q83.35 75.15 82.7 77.25Q82.2 78.9 81.35 80.2L80.45 81.3L79.25 80.2" />
<path style="fill:#3F1515;fill-opacity:1" d="M83.7,74.75Q84.45 77.65 83.75 80.2L83.65 80.55L83.05 81.9L81.75 83.5Q81.3 82.3 80.45 81.3L81.35 80.2Q82.2 78.9 82.7 77.25Q83.35 75.15 83.1 72.95L83.7 74.75" />
<path style="fill:#723636;fill-opacity:1" d="M76.35,65.95Q77.7 67.25 78.7 69Q79.2 70.8 78.35 70.45Q77.45 70.1 76.6 69.15L74.15 66.9Q75.2 66.3 76.35 65.95" />
<path style="fill:#382323;fill-opacity:1" d="M26.9,89.5L26.8 88.55L27.05 86.95L27.6 85.5Q28 84.75 28.9 84.05Q29.55 83.5 30.05 83.35Q30.65 83.65 30.85 84.3L30.9 85.3Q30.8 86.55 28.55 88.35L27.55 89.1L27.15 89.4L26.9 89.55L26.9 89.5M27.85,86.2L27.5 87.7Q29.05 86.9 29.55 85.75L30 84.2Q28.5 84.6 27.85 86.2M47.1,86.5L47.15 86.8Q47.4 87.85 48.5 88.55L49.25 88.95L49.75 88.65Q50.05 87.55 48.9 86.45L47.1 86.5M51.45,87.45L51.45 87.5Q51.5 89.35 50.2 90.4Q48.25 90.65 46.65 89.5Q45.4 88.65 44.95 87.55L44.8 87.05L45.2 86.2L46 85.3Q47.55 84 48.9 84.5Q50.25 85 51.3 86.7L51.4 86.85L51.45 87.45M50.4,91.8Q51.05 91.55 51.7 90.95L52.35 90.15L52.35 90.7L52.2 92.15Q51.9 93 51.3 93.05Q48.8 92.75 47 91.15Q49.4 92.15 50.4 91.8" />
<path style="fill:#583636;fill-opacity:1" d="M30,84.2L29.55 85.75Q29.05 86.9 27.5 87.7L27.85 86.2Q28.5 84.6 30 84.2M48.9,86.45Q50.05 87.55 49.75 88.65L49.25 88.95L48.5 88.55Q47.4 87.85 47.15 86.8L47.1 86.5L48.9 86.45" />
</g>
</svg>
