<?xml version="1.0" encoding="utf-8"?>
<svg version="1.1" id="Layer_1"
xmlns="http://www.w3.org/2000/svg"
xmlns:xlink="http://www.w3.org/1999/xlink"
xmlns:author="http://www.sothink.com"
width="27px" height="29px"
xml:space="preserve">
<g id="760" transform="matrix(1, 0, 0, 1, 0, 0)">
<path style="fill:#424242;fill-opacity:1" d="M15.35,16.8Q14.7 19 14.85 21.35Q15 24 14.5 24.75L14.35 24.95L8.85 25.5L8.55 25.5L3.6 25.25L1.9 24.85Q0.3 24.25 0.2 22.3L0 15.55L0 14.3L0.1 7.45L0.35 4.35L0.4 4Q0.85 0.4 4.1 0.25Q7.45 0.05 11.5 0.1L20.65 0.05L21.55 0.05L24 0.3Q25.85 0.8 26 2L26.15 5.35L26.2 8.4L25.95 10.3Q25.45 11.55 24.3 12.15Q23.4 12.6 22.1 12.7L21.7 12.7Q17 12.7 15.85 15.4L15.75 15.6L15.35 16.8M3.1,6.1L2.9 8.85L2.85 10.55L2.85 12.25L2.95 20.3Q3 21.45 3.6 22.1Q4.3 22.85 5.85 22.85L8.85 22.85L10.45 22.85Q12.25 22.8 12.25 21.1L12.4 17.55L12.6 15.95L13.15 14.15L13.25 13.95Q13.75 12.85 14.65 12L15.1 11.6L15.6 11.25L16.75 10.7L21 10.1L22.35 9.95Q22.9 9.8 23.25 9.45L23.55 9L23.6 8.4L23.65 8.1L23.7 7.05L23.7 6.45L23.65 4.95Q23.55 2.75 22.9 2.65L22.05 2.65L19.35 2.7L6.2 2.85Q3.75 3.15 3.3 4.95L3.1 6.05L3.1 6.1" />
<path style="fill:#FFFFFF;fill-opacity:1" d="M22.6,5.5Q21.75 4.9 20.5 4.6L19.85 5.45L19.75 5.6L17.75 8.5Q15.45 8.7 14 9.25L17.3 5.2L18.15 4.2L16.1 4.1Q8.2 4.1 3.1 6.05L3.3 4.95Q3.75 3.15 6.2 2.85L19.35 2.7L22.05 2.65L22.9 2.65Q23.55 2.75 23.65 4.95L23.7 6.45L22.6 5.5" />
<path style="fill:#AEAEB0;fill-opacity:1" d="M2.85,10.55L2.9 8.85Q3.6 7.9 4.45 7.2Q5.15 6.55 6.05 6.1L6.75 5.75Q7.7 5.35 9.2 5.1Q9.25 5.65 9.8 5.8L10.25 6.25L13.4 6.3Q14.7 5.2 14.85 4.55L17.35 4.45L17.3 4.7L17.3 5.2L14 9.25L13.4 9.45Q11.2 10.4 11.2 12.05L11.2 12.35L11.2 12.55L10.3 16.55L10.3 18L10.3 18.15Q9.65 18.6 9.95 19.3L9.55 19.15L8.85 19L7.8 19.05L6.55 18.1L6.05 17.8L5.75 17.95Q5.15 18.2 4.85 18.7L4.3 17.75Q3.85 16.55 3.75 14.55Q3.65 11.85 2.85 10.55M20.5,4.6Q21.75 4.9 22.6 5.5L23.7 6.45L23.7 7.05L23.45 7.25L22.35 8.3L22.35 8.25L22.05 8.25L17.75 8.5L19.75 5.6L19.85 5.45Q20.85 5.15 20.5 4.6M8.15,7.75Q6.65 8.2 6.6 9.8Q6.55 10.6 7.1 10.55Q12.05 9.75 8.15 7.75M5.8,14.2Q9.6 14.9 6.4 12.8Q5.75 12.85 5.6 13.5Q5.45 14.15 5.8 14.2M10.45,21.7L10.25 21.75L10.5 21.65L10.45 21.7" />
<path style="fill:#8B8B8C;fill-opacity:1" d="M3.75,14.55Q3.85 16.55 4.3 17.75L4.85 18.7Q5.15 18.2 5.75 17.95L6.05 17.8L6.55 18.1L7.8 19.05L8.85 19L9.55 19.15L9.95 19.3Q9.65 18.6 10.3 18.15L10.3 18L10.3 16.55L11.2 12.55L11.2 12.35L11.2 12.05Q11.2 10.4 13.4 9.45L14 9.25Q15.45 8.7 17.75 8.5L22.05 8.25L22.35 8.25L22.35 8.3L23.45 7.25L23.7 7.05L23.65 8.1L23.6 8.4L23.55 9L23.25 9.45Q22.9 9.8 22.35 9.95L21 10.1L16.75 10.7L15.6 11.25L15.1 11.6L14.65 12Q13.75 12.85 13.25 13.95L13.15 14.15L12.6 15.95L12.4 17.55L12.25 21.1Q12.25 22.8 10.45 22.85L8.85 22.85L5.85 22.85Q4.3 22.85 3.6 22.1Q3 21.45 2.95 20.3L2.85 12.25L2.85 10.55Q3.65 11.85 3.75 14.55M5.6,13.5Q5.75 12.85 6.4 12.8Q9.6 14.9 5.8 14.2Q5.45 14.15 5.6 13.5M10.5,21.65L10.25 21.75L10.45 21.7L10.5 21.65" />
<path style="fill:#E9E9E9;fill-opacity:1" d="M2.9,8.85L3.1 6.1L3.1 6.05Q8.2 4.1 16.1 4.1L18.15 4.2L17.3 5.2L17.3 4.7L17.35 4.45L14.85 4.55Q14.7 5.2 13.4 6.3L10.25 6.25L9.8 5.8Q9.25 5.65 9.2 5.1Q7.7 5.35 6.75 5.75L6.05 6.1Q5.15 6.55 4.45 7.2Q3.6 7.9 2.9 8.85M19.85,5.45L20.5 4.6Q20.85 5.15 19.85 5.45M7.1,10.55Q6.55 10.6 6.6 9.8Q6.65 8.2 8.15 7.75Q12.05 9.75 7.1 10.55" />
<path style="fill:#000000;fill-opacity:0.501961" d="M15.75,15.6L15.85 15.4Q17 12.7 21.7 12.7L22.1 12.7Q23.4 12.6 24.3 12.15Q23.75 15.15 19.8 15.95L16.2 16.55L15.35 16.8L15.75 15.6M14.5,24.75Q14.4 27.3 12.6 28L8.85 28.6L5.2 28.7L3.6 28.65L3.6 25.25L8.55 25.5L8.85 25.5L14.35 24.95L14.5 24.75" />
</g>
</svg>
