<?xml version="1.0" encoding="utf-8"?>
<svg version="1.1" id="Layer_1"
xmlns="http://www.w3.org/2000/svg"
xmlns:xlink="http://www.w3.org/1999/xlink"
xmlns:author="http://www.sothink.com"
width="4px" height="5px"
xml:space="preserve">
<g id="134" transform="matrix(1, 0, 0, 1, -0.4, -0.5)">
<path style="fill:#692917;fill-opacity:1" d="M1.7,1.35L1.45 1.55Q1.1 1.95 1.1 2.5Q1.1 3.05 1.45 3.45Q1.8 3.9 2.3 3.9Q2.8 3.9 3.1 3.45L3.4 2.5L3.35 2.15L3.35 2.05L3.25 1.8L3.1 1.55L2.85 1.3L2.65 1.25L2.3 1.15L2.25 1.15L1.9 1.25L1.7 1.35M3.45,3.9Q3 4.55 2.25 4.55Q1.55 4.55 1 3.9Q0.5 3.4 0.5 2.5L0.5 2.4L0.8 1.45Q1.45 0.5 2.25 0.5Q3 0.5 3.45 1.1Q3.9 1.6 3.95 2.45L3.95 2.5L3.8 3.3L3.45 3.9" />
<path style="fill:#FBF734;fill-opacity:1" d="M2.85,1.3L3.1 1.55L3.25 1.8L3.25 1.9L3.25 2.1L3.1 2.3L2.7 2.55L2.35 2.3L2.15 1.9L2.2 1.55L2.35 1.4L2.4 1.35Q2.45 1.25 2.6 1.25L2.65 1.25L2.85 1.3" />
<path style="fill:#FED009;fill-opacity:1" d="M3.35,2.05L3.35 2.15L3.1 2.75Q2.85 3.1 2.45 3.1L1.85 2.75Q1.6 2.45 1.6 2.05Q1.6 1.65 1.75 1.4L1.85 1.3L1.9 1.25L2.25 1.15L2.3 1.15L2.65 1.25L2.6 1.25Q2.45 1.25 2.4 1.35L2.35 1.4L2.2 1.55L2.15 1.9L2.35 2.3L2.7 2.55L3.1 2.3L3.25 2.1L3.25 1.9L3.25 1.8L3.35 2.05" />
<path style="fill:#D48D01;fill-opacity:1" d="M1.9,1.25L1.85 1.3L1.75 1.4Q1.6 1.65 1.6 2.05Q1.6 2.45 1.85 2.75L2.45 3.1Q2.85 3.1 3.1 2.75L3.35 2.15L3.4 2.5L3.1 3.45Q2.8 3.9 2.3 3.9Q1.8 3.9 1.45 3.45Q1.1 3.05 1.1 2.5Q1.1 1.95 1.45 1.55L1.7 1.35L1.9 1.25" />
<path style="fill:#8C331D;fill-opacity:1" d="M3.8,3.3Q3.8 4.1 3.35 4.6Q2.85 5.2 2.15 5.2Q1.45 5.2 0.9 4.6Q0.4 4.05 0.4 3.2L0.5 2.4L0.5 2.5Q0.5 3.4 1 3.9Q1.55 4.55 2.25 4.55Q3 4.55 3.45 3.9L3.8 3.3" />
</g>
</svg>
