<?xml version="1.0" encoding="utf-8"?>
<svg version="1.1" id="Layer_1"
xmlns="http://www.w3.org/2000/svg"
xmlns:xlink="http://www.w3.org/1999/xlink"
xmlns:author="http://www.sothink.com"
width="168px" height="106px"
xml:space="preserve">
<g id="2817" transform="matrix(1, 0, 0, 1, 105.95, 83.9)">
<path style="fill:#F8F8F8;fill-opacity:1" d="M-22.1,-22.75L-20.05 -22.25Q-19.7 -15.2 -19 -9.65L-18.5 -5.3L-21.45 -1.95Q-23.3 0.05 -25 -3.05Q-26.6 -6.05 -28.8 -3.35Q-31 -0.6 -30.6 2.9Q-30.2 5.65 -31.55 6.45Q-32.35 6.85 -34.5 8.75Q-36.9 10.75 -39.9 11.8Q-46.5 14.45 -57.35 14.05Q-66.05 11.1 -74 7.3L-74.15 7.25L-76.4 5.05Q-83.3 -1.55 -86.85 -6.05L-86.85 -7.8L-86.45 -7.8Q-85.5 -6.2 -81.25 -3.05Q-76.85 0.25 -75.25 0.25L-75.25 -0.15L-76.8 -1.55Q-77.75 -2.4 -78.05 -3.3L-76.3 -3.3Q-74.05 -1.95 -70.3 -0.7Q-66.5 0.55 -65.8 0.25L-66.2 0.25L-67.7 -1.65Q-68.95 -3.15 -68.95 -4.35Q-62 -2 -57.05 -0.65Q-47.75 1.9 -43.1 0.55L-43.45 0.25L-48.4 -1.3L-51.85 -2.2L-51.85 -3.3Q-50.75 -4.35 -45.75 -4.6L-39.2 -4.65L-43.45 -9.25L-30.45 -9.25L-32.15 -11.2Q-33.15 -12.4 -33.3 -13.4L-29.9 -14.05Q-27.3 -14.3 -26.6 -14.8L-27.65 -17.05L-28.35 -19.4Q-28.35 -20.9 -26.05 -21.7L-22.1 -22.75M-83.9,-8.35Q-79 -9.3 -80.6 -5.65L-80.6 -5.6Q-82.6 -6.45 -83.85 -8.2L-83.9 -8.35M-73.5,-11.45Q-70.85 -12.45 -68.2 -10.15Q-68.05 -9.25 -68.6 -8.65Q-68.95 -8.1 -69.4 -8.05Q-72.05 -9 -73.4 -11.2L-73.5 -11.45M-61.2,-7.35Q-57.35 -7.8 -58.6 -4.95L-58.6 -4.9Q-60.6 -5.2 -61.15 -7.05L-61.2 -7.35" />
<path style="fill:#E6B0F0;fill-opacity:1" d="M-26.05,-21.7Q-28.35 -20.9 -28.35 -19.4L-27.65 -17.05L-26.6 -14.8Q-27.3 -14.3 -29.9 -14.05L-33.3 -13.4Q-33.15 -12.4 -32.15 -11.2L-30.45 -9.25L-43.45 -9.25L-39.2 -4.65L-45.75 -4.6Q-50.75 -4.35 -51.85 -3.3L-51.85 -2.2L-48.4 -1.3L-43.45 0.25L-43.1 0.55Q-47.75 1.9 -57.05 -0.65Q-62 -2 -68.95 -4.35Q-68.95 -3.15 -67.7 -1.65L-66.2 0.25L-65.8 0.25Q-66.5 0.55 -70.3 -0.7Q-74.05 -1.95 -76.3 -3.3L-78.05 -3.3Q-77.75 -2.4 -76.8 -1.55L-75.25 -0.15L-75.25 0.25Q-76.85 0.25 -81.25 -3.05Q-85.5 -6.2 -86.45 -7.8L-86.85 -7.8L-86.85 -6.05Q-83.3 -1.55 -76.4 5.05L-74.15 7.25Q-84.95 1.95 -92.25 -4.1Q-98.35 -12.05 -98.35 -19.4Q-98.35 -24.85 -96.6 -26.35Q-96.35 -24.6 -89.75 -18.8Q-83.25 -13.15 -81.6 -12.75L-81.6 -13.4L-83.15 -15.65L-84.75 -17.95L-84.75 -19.7L-81.15 -17.5Q-78.2 -15.85 -77 -15.85L-77.7 -16.75L-77.7 -18.15L-77.35 -20.8L-75.65 -20.8Q-71.45 -16.55 -63.1 -13Q-53.8 -9.1 -45.85 -9.25L-51.25 -12.95Q-55.35 -16.1 -55.65 -17.95Q-51.3 -16.9 -44.8 -16.5L-33.35 -15.95L-36.95 -18.75Q-39.85 -20.9 -40.3 -21.85L-40.3 -23.6L-28.7 -24.55L-22.1 -22.75L-26.05 -21.7M-83.85,-8.2Q-82.6 -6.45 -80.6 -5.6L-80.6 -5.65Q-79 -9.3 -83.9 -8.35L-83.85 -8.2M-73.4,-11.2Q-72.05 -9 -69.4 -8.05Q-68.95 -8.1 -68.6 -8.65Q-68.05 -9.25 -68.2 -10.15Q-70.85 -12.45 -73.5 -11.45L-73.4 -11.2M-61.15,-7.05Q-60.6 -5.2 -58.6 -4.9L-58.6 -4.95Q-57.35 -7.8 -61.2 -7.35L-61.15 -7.05M-33.35,-15.95L-33.3 -15.85L-32.95 -15.85L-33.35 -15.95" />
<path style="fill:#AF21F3;fill-opacity:1" d="M-40.3,-23.6L-40.3 -21.85Q-39.85 -20.9 -36.95 -18.75L-33.35 -15.95L-44.8 -16.5Q-51.3 -16.9 -55.65 -17.95Q-55.35 -16.1 -51.25 -12.95L-45.85 -9.25Q-53.8 -9.1 -63.1 -13Q-71.45 -16.55 -75.65 -20.8L-77.35 -20.8L-77.7 -18.15L-77.7 -16.75L-77 -15.85Q-78.2 -15.85 -81.15 -17.5L-84.75 -19.7L-84.75 -17.95L-83.15 -15.65L-81.6 -13.4L-81.6 -12.75Q-83.25 -13.15 -89.75 -18.8Q-96.35 -24.6 -96.6 -26.35Q-98.35 -24.85 -98.35 -19.4Q-98.35 -12.05 -92.25 -4.1Q-105.85 -15.6 -105.95 -29.9Q-105.95 -40.25 -98.8 -49.15Q-99.6 -42.85 -91.7 -36.7Q-83.85 -30.55 -78.25 -28.7Q-72.6 -26.85 -67.65 -26.4Q-68.65 -27.4 -69.25 -33.1L-69.7 -37.8Q-68.1 -36.25 -62.95 -32.4Q-53.15 -25.05 -48.05 -24Q-51.2 -26.4 -51.15 -31.15L-37.7 -26.85L-28.7 -24.55L-40.3 -23.6" />
<path style="fill:#F8F8F8;fill-opacity:0.2" d="M-72.95,-40.6Q-81.3 -42.35 -86.3 -45.25Q-87.6 -45.95 -88.35 -46.6Q-85.55 -51.35 -80.85 -55.8Q-67.3 -68.8 -40.1 -80.4Q-22.9 -83.9 -9.2 -83.9Q12.6 -83.95 39.4 -73.65Q53.7 -68.1 61.9 -62.75L48.5 -64.05Q37.35 -64.75 31.05 -64L17.7 -62.35Q13 -61.55 5.9 -58.8Q-10.3 -52.6 -13.85 -41.1Q-50.4 -35.9 -72.95 -40.6M-57,8.15L-60.15 4.9Q-67.3 -3.05 -67.85 -10.35Q-69.75 -32.35 -14 -40.6L-7.05 -41.6Q-25.45 -19 -8.45 5Q-2 14.2 7.5 21.25L-1.05 21.35L-26.75 19.85L-28.45 19.55Q-35.85 18.25 -57 8.15" />
<path style="fill:#AF21F3;fill-opacity:0.701961" d="M-28.45,19.55Q-54.1 16.15 -74.3 5.85Q-104.65 -9.5 -104.75 -31.35Q-104.85 -53.2 -74.55 -68.6Q-59.05 -76.5 -40.1 -80.4Q-67.3 -68.8 -80.85 -55.8Q-85.55 -51.35 -88.35 -46.6Q-93.85 -37.75 -92.85 -28.35Q-90.4 -8.2 -63.65 4.95L-57 8.15Q-35.85 18.25 -28.45 19.55" />
<path style="fill:#E6B0F0;fill-opacity:0.501961" d="M-67.85,-10.35Q-67.3 -3.05 -60.15 4.9L-57 8.15L-63.65 4.95Q-90.4 -8.2 -92.85 -28.35Q-93.85 -37.75 -88.35 -46.6Q-87.6 -45.95 -86.3 -45.25Q-81.3 -42.35 -72.95 -40.6Q-50.4 -35.9 -13.85 -41.1L-14 -40.6Q-69.75 -32.35 -67.85 -10.35" />
</g>
</svg>
