<?xml version="1.0" encoding="utf-8"?>
<svg version="1.1" id="Layer_1"
xmlns="http://www.w3.org/2000/svg"
xmlns:xlink="http://www.w3.org/1999/xlink"
xmlns:author="http://www.sothink.com"
width="24px" height="46px"
xml:space="preserve">
<g id="765" transform="matrix(1, 0, 0, 1, -7.1, 5)">
<path style="fill:#BF6F21;fill-opacity:1" d="M18.8,6.75L17.7 6.7L17.7 6.05L17.75 5.15L17.8 3.75L18.5 3.65L18.8 3.65L19.8 3.7L19.8 4.5L18.6 4.4L18.55 5.35L18.8 6.75M18.05,1.25L18.95 1.25L19.25 1.25L20.75 1.1L21.5 0.8L22.6 0.35L23.1 0.35Q23.2 1 21.85 1.6L19.1 2.55L16.15 2.1L14.4 0.95L13.95 0.25L14.3 0L15.1 0.55L15.35 0.65Q16.55 1.2 17.45 1.15L17.9 1.2L18.05 1.25" />
<path style="fill:#D5A039;fill-opacity:1" d="M18.55,5.35L18.6 4.4L19.8 4.5L19.7 5.35L19.55 6.8L18.8 6.75L18.55 5.35M17.9,1.2L17.45 1.15Q16.55 1.2 15.35 0.65L15.1 0.55L19.05 0.3Q18.5 0.8 18.05 1.25L17.9 1.2M21.5,0.8L20.75 1.1L19.25 1.25L20.3 0.3L20.35 0.3L21.95 0.3L22.6 0.35L21.5 0.8M19.05,-1.25L18.8 -1.25L18.5 -1.25L18.4 -1.25L18.05 -1.25L18.05 -1.4L18.3 -2.55L19.05 -1.25" />
<path style="fill:#722C11;fill-opacity:1" d="M19.7,5.35L19.8 4.5L19.8 3.7L18.8 3.65L18.5 3.65L17.8 3.75L17.75 5.15L17.7 6.05L17.7 6.7Q17.55 15.15 16.95 13.1Q16.25 10.8 16 10.95L15.85 11.5L16.15 6.5L16.15 5.9L16.15 4.55L16.2 3.5L13.95 2.4L12.45 0.7Q12 -0.25 12.3 -0.9Q12.7 -1.55 13.55 -1.7L16.3 -1.8L16.4 -2.55Q16.6 -3.95 17.4 -4.45Q18.05 -5.05 18.5 -5L19.35 -4.9L20.3 -4.15Q20.8 -3.5 20.95 -2.5L20.95 -1.9L24 -1.65Q25.1 -1.35 25.3 -0.7Q25.45 -0.15 24.7 1L23.15 2.7L21.75 3.45Q21.4 3.5 21.4 3.8L21.4 4.45L21.45 6.6L21.45 6.9L21.4 8.65L21.15 11.85Q19.1 16.35 19.45 8.65L19.5 8.3L19.55 6.8L19.7 5.35M13.95,0.25L14.4 0.95L16.15 2.1L19.1 2.55L21.85 1.6Q23.2 1 23.1 0.35L23.2 0.2L23.1 -0.05L21.1 -0.2L20.8 -0.2L20.1 -0.2L19.45 -0.2L18.5 -0.2L17.9 -0.2L16.35 -0.2L14.3 0L13.95 0.25M19.3,-1.25L19 -2.6L18.55 -3.1L18.3 -2.55L18.05 -1.4L18.05 -1.25L18.4 -1.25L18.5 -1.25L18.8 -1.25L19.05 -1.25L19.3 -1.25" />
<path style="fill:#FFF5CB;fill-opacity:1" d="M22.6,0.35L21.95 0.3L20.35 0.3L20.3 0.3L19.25 1.25L18.95 1.25L18.05 1.25Q18.5 0.8 19.05 0.3L15.1 0.55L14.3 0L16.35 -0.2L17.9 -0.2L18.5 -0.2L19.45 -0.2L20.1 -0.2L20.8 -0.2L21.1 -0.2L23.1 -0.05L23.2 0.2L23.1 0.35L22.6 0.35M19.05,-1.25L18.3 -2.55L18.55 -3.1L19 -2.6L19.3 -1.25L19.05 -1.25" />
<path style="fill:#EE775A;fill-opacity:1" d="M8.95,11.6Q8.9 9.95 9 8.95Q9.05 7.8 9.6 7.6L11.4 7.25L15.5 7.15L21.75 7.15L26.85 7.05Q28.3 7 28.8 8.2L29.15 10.35L29.2 11.95L29.2 12.45L28.4 10.1Q27.45 8.35 26.45 8.45L26.15 8.55Q26.3 8.35 25.6 8.05L25.5 8.1L25.35 8.25L25.3 8.4Q25.9 8.95 24.7 8.7L24.5 8.55L23.2 8.65L21.85 9.05L21.3 9.1L20.05 8.7L19.1 8.35L17.85 8.45Q16.8 8.6 16.35 8.9L15.2 8.9L14.35 8.4L13.9 8.55L13.8 8.65L11.5 8.6L10.45 9.15Q10.1 9.35 9 12.45L8.95 11.6M27.55,10.85Q28.4 11.35 27.65 12.35L27.35 12.25Q26.8 11.3 27.55 10.85M18.95,10.7Q18.75 10.2 19.2 10.1Q20.85 10.8 19.4 11Q19.05 11.05 18.95 10.7" />
<path style="fill:#5F1000;fill-opacity:1" d="M29.25,14.85L29.2 12.45L29.2 11.95L29.15 10.35L28.8 8.2Q28.3 7 26.85 7.05L21.75 7.15L15.5 7.15L11.4 7.25L9.6 7.6Q9.05 7.8 9 8.95Q8.9 9.95 8.95 11.6L9 12.45L9 14.35L9 19.7L9.05 22.3L9.25 35.4Q9.25 37.4 9.4 38.45Q11.1 33.6 12.55 37.95Q14.3 33.65 14.75 33.55Q15.2 33.45 15.5 33.85L16.4 35.85Q16.9 37.05 17.45 36.05L18.95 33.1Q19.9 31.15 21.95 36.25Q23.15 33.65 23.5 33.55Q23.95 33.45 25.05 35.2Q25.9 31.85 26.95 33.05L28.55 35.95Q29.55 27.25 29.35 20.95L29.25 14.85M29.95,6.05Q31.25 6.4 31.1 19.95Q30.75 33.45 29.95 37.4Q29 41.3 28.05 38.7L26.65 35.95Q26.5 35.9 26.1 37.1Q25.5 38.9 24.75 37.4L23.9 35.75Q23.7 35.45 23.05 37.1Q22.3 38.7 21.9 38.8Q21.6 39 21.1 37.85Q20.65 36.8 20.05 36.05Q19.4 35.25 18.5 37.2Q17.55 39.15 16.95 39.25Q16.3 39.3 16.25 39L15.05 36.15Q14.6 36.7 13.65 39.3Q12.7 41.85 11.95 40.1L11.1 38.2Q11 37.95 10.4 39.4Q9.7 40.85 9 40.8Q8.1 40.3 7.8 37.1Q7.4 33.85 7.4 28.25L7.2 17.45L7.2 16.9Q6.9 11.75 7.45 7.3Q7.7 5.35 14.4 5.55Q21.1 5.8 24.9 5.55Q28.65 5.45 29.95 6.05" />
<path style="fill:#931A26;fill-opacity:1" d="M29.35,20.95Q29.55 27.25 28.55 35.95L26.95 33.05Q25.9 31.85 25.05 35.2Q23.95 33.45 23.5 33.55Q23.15 33.65 21.95 36.25Q19.9 31.15 18.95 33.1L17.45 36.05Q16.9 37.05 16.4 35.85L15.5 33.85Q15.2 33.45 14.75 33.55Q14.3 33.65 12.55 37.95Q11.1 33.6 9.4 38.45Q9.25 37.4 9.25 35.4L9.05 22.3L9.8 24.05L10.4 24.9Q10.6 25.3 11.1 25.3L12 24.4L12.85 23.4L13.8 25.25Q14.6 27.05 15.15 27.05L16.4 26.15Q16.8 26.15 17.6 27.5Q18.35 28.9 19.25 28.9L19.9 27.6Q20.2 26.3 20.75 26.3Q21.25 26.3 22.35 27.05L23.8 28.05L24.9 28.6Q25.8 28.75 26.4 26.5L27.95 20.45L29.25 14.85L29.35 20.95M25.1,22.45Q26.15 23.45 24.85 23.75L24.65 23.6Q24.55 22.8 25.1 22.45M11.35,21Q12.95 21.6 11.5 22.3Q11.3 22.4 11.1 22.1Q10.85 21.35 11.35 21M12.7,27.4Q11.95 27.9 12.1 28.9Q12.15 29.45 12.75 29.15Q14.4 28.3 12.7 27.4M16.9,31.95L17.1 32.15Q18.4 31.95 17.4 31.05Q16.65 31.2 16.9 31.95M27.75,25.5Q27.2 26.1 27.4 27.15L27.7 27.35Q29 26.6 27.75 25.5M24.55,32.1Q25.7 31.05 24.1 30.4Q23.15 31.1 24.05 32.1Q24.25 32.35 24.55 32.1" />
<path style="fill:#C23940;fill-opacity:1" d="M29.25,14.85L27.95 20.45L26.4 26.5Q25.8 28.75 24.9 28.6L23.8 28.05L22.35 27.05Q21.25 26.3 20.75 26.3Q20.2 26.3 19.9 27.6L19.25 28.9Q18.35 28.9 17.6 27.5Q16.8 26.15 16.4 26.15L15.15 27.05Q14.6 27.05 13.8 25.25L12.85 23.4L12 24.4L11.1 25.3Q10.6 25.3 10.4 24.9L9.8 24.05L9.05 22.3L9 19.7L9 14.35L9 12.45Q10.1 9.35 10.45 9.15L11.5 8.6L13.8 8.65L13.9 8.55L14.35 8.4L15.2 8.9L16.35 8.9Q16.8 8.6 17.85 8.45L19.1 8.35L20.05 8.7L21.3 9.1L21.85 9.05L23.2 8.65L24.5 8.55L24.7 8.7Q25.9 8.95 25.3 8.4L25.35 8.25L25.5 8.1L25.6 8.05Q26.3 8.35 26.15 8.55L26.45 8.45Q27.45 8.35 28.4 10.1L29.2 12.45L29.25 14.85M27.35,12.25L27.65 12.35Q28.4 11.35 27.55 10.85Q26.8 11.3 27.35 12.25M24.65,23.6L24.85 23.75Q26.15 23.45 25.1 22.45Q24.55 22.8 24.65 23.6M19.4,11Q20.85 10.8 19.2 10.1Q18.75 10.2 18.95 10.7Q19.05 11.05 19.4 11M11.1,22.1Q11.3 22.4 11.5 22.3Q12.95 21.6 11.35 21Q10.85 21.35 11.1 22.1M12.75,29.15Q12.15 29.45 12.1 28.9Q11.95 27.9 12.7 27.4Q14.4 28.3 12.75 29.15M17.4,31.05Q18.4 31.95 17.1 32.15L16.9 31.95Q16.65 31.2 17.4 31.05M27.7,27.35L27.4 27.15Q27.2 26.1 27.75 25.5Q29 26.6 27.7 27.35M24.05,32.1Q23.15 31.1 24.1 30.4Q25.7 31.05 24.55 32.1Q24.25 32.35 24.05 32.1" />
<path style="fill:#EE775A;fill-opacity:1" d="M24.5,8.55L23.2 8.65L21.85 9.05L21.3 9.1L20.05 8.7L19.1 8.35L17.85 8.45Q16.8 8.6 16.35 8.9L15.2 8.9L14.35 8.4L13.9 8.55L13.8 8.65Q12.1 8.4 11.55 8.65L10.75 9.2L10.2 10.05L10.6 34.7Q11.65 32.75 11.85 33.6L12.55 35.25Q14.55 31 15.3 31.65Q15.5 31.55 17.05 34.2Q19.1 30.1 19.85 30.95Q20.25 30.95 21.95 33.75Q22.7 32.25 23.35 31.5Q24 31.05 24.75 33Q25.8 30.2 26.65 30.85Q27.45 31.4 27.45 31.75L27.95 26.8L28 22.15L27.9 14.1Q27.75 8.9 27.4 8.35Q27.1 7.75 26.65 8.2L26.15 8.55Q26.3 8.35 25.6 8.05L25.5 8.1L25.35 8.25L25.3 8.4Q25.9 8.95 24.7 8.7L24.5 8.55M29.2,11.95L29.2 12.45L29.25 14.85L29.35 20.95Q29.55 27.25 28.55 35.95L26.95 33.05Q25.9 31.85 25.05 35.2Q23.95 33.45 23.5 33.55Q23.15 33.65 21.95 36.25Q19.9 31.15 18.95 33.1L17.45 36.05Q16.9 37.05 16.4 35.85L15.5 33.85Q15.2 33.45 14.75 33.55Q14.3 33.65 12.55 37.95Q11.1 33.6 9.4 38.45Q9.25 37.4 9.25 35.4L9.05 22.3L9 19.7L9 14.35L9 12.45L8.95 11.6Q8.9 9.95 9 8.95Q9.05 7.8 9.6 7.6L11.4 7.25L15.5 7.15L21.75 7.15L26.85 7.05Q28.3 7 28.8 8.2L29.15 10.35L29.2 11.95" />
</g>
</svg>
