<?xml version="1.0" encoding="utf-8"?>
<svg version="1.1" id="Layer_1"
xmlns="http://www.w3.org/2000/svg"
xmlns:xlink="http://www.w3.org/1999/xlink"
xmlns:author="http://www.sothink.com"
width="71px" height="20px"
xml:space="preserve">
<g id="717" transform="matrix(1, 0, 0, 1, -1, -17.5)">
<path style="fill:#B65E19;fill-opacity:1" d="M65.75,23.5Q42.05 21.75 33.2 22.65Q24.35 23.55 13.7 25.6L7.3 27.25L7.45 28.4L8.45 36.55L2.5 37.35L1 23.7L6.6 22.25Q13.9 20.45 24.5 18.9Q35.1 17.3 46.35 17.55Q56.6 17.75 68.95 19.65L71.25 20L70.3 32.35L65.15 32.4L65.75 23.5" />
<path style="fill:#DE9A2D;fill-opacity:1" d="M29.15,34.15L28.95 34.15L12.9 36L12.5 34Q14.6 32.45 20.9 31.15Q27.25 29.8 32.45 29.8Q37.6 29.8 35.75 29.9Q31.35 31.35 29.15 34.15" />
<path style="fill:#E6BE45;fill-opacity:1" d="M35.75,29.9Q37.6 29.8 32.45 29.8Q27.25 29.8 20.9 31.15Q14.6 32.45 12.5 34L12.9 36L8.45 36.55L7.45 28.4Q14.2 26.6 22.8 25.9L43.45 24.8Q52.55 24.6 59.25 27.15Q60.3 29.4 59 32.5L59 32.55L29.15 34.15Q31.35 31.35 35.75 29.9" />
<path style="fill:#FAE49E;fill-opacity:1" d="M59,32.5Q60.3 29.4 59.25 27.15Q52.55 24.6 43.45 24.8L22.8 25.9Q14.2 26.6 7.45 28.4L7.3 27.25L13.7 25.6Q24.35 23.55 33.2 22.65Q42.05 21.75 65.75 23.5L65.15 32.4L64.5 32.35L64.15 32.35L59 32.55L59 32.5" />
</g>
</svg>
