<?xml version="1.0" encoding="utf-8"?>
<svg version="1.1" id="Layer_1"
xmlns="http://www.w3.org/2000/svg"
xmlns:xlink="http://www.w3.org/1999/xlink"
xmlns:author="http://www.sothink.com"
width="11px" height="48px"
xml:space="preserve">
<g id="1171" transform="matrix(1, 0, 0, 1, 0, 0)">
<path style="fill:#4D3212;fill-opacity:1" d="M4.6,37.1L4.45 45.65Q4.8 46.35 5.1 46.4Q5.45 46.5 5.8 45.5L5.8 39.65L5.8 13.4L5.8 13.05L6.85 13L6.85 13.15L6.85 13.4L6.85 37.1L6.65 46.5Q5.9 47.95 5.1 47.9Q4.35 47.85 3.6 46.65Q3.5 44.6 3.55 39.65L3.55 13.4L3.55 13.1L4.6 13.1L4.6 13.15L4.6 13.4L4.6 37.1" />
<path style="fill:#9A7226;fill-opacity:1" d="M4.6,13.4L5.4 13.4L5.1 46.4Q4.8 46.35 4.45 45.65L4.6 37.1L4.6 13.4" />
<path style="fill:#745416;fill-opacity:1" d="M5.8,39.65L5.8 45.5Q5.45 46.5 5.1 46.4L5.4 13.4L5.8 13.4L5.8 39.65" />
<path style="fill:#4E4138;fill-opacity:1" d="M7.35,6.4L6.6 4.3L5.45 1.6Q4.3 4 3.55 6.4L3.1 7.95Q2.6 9.65 2.45 10.7L2.15 12.4L2 13.15Q1.7 14.15 2.25 14.4L3.25 14.7L3.45 14.75Q3.75 15 5.35 12.45Q6.8 15.5 7.65 15.1L8.55 14.2L8.55 12.85L8.2 10.65L7.35 6.4M6.6,1.55Q7.25 2.95 8.3 6.45Q9.3 9.95 9.95 14.9L8.4 16.25L6.75 16.35Q5.75 16.15 5.2 15Q4.1 16.65 2.75 16.2L0.85 15.5Q0.3 15.25 0.35 14.85L0.5 13.75L1.8 8.8Q2.9 4.55 4 2.2Q5.1 -0.15 5.5 0Q5.9 0.15 6.6 1.55" />
<path style="fill:#B6A998;fill-opacity:1" d="M7.35,6.4L7.4 6.95L7.55 10.9L7.55 11.5L7 11.7L6.55 12L6.5 12.1L6 11.2L5.35 10.4Q3.5 12.65 2.75 12.65L2.15 12.4L2.45 10.7Q2.6 9.65 3.1 7.95Q4.3 5.4 5.1 4.6L5.5 4.9L5.7 4.35L6.05 3.95L6.6 4.3L7.35 6.4" />
<path style="fill:#837462;fill-opacity:1" d="M8.2,10.65L8.55 12.85L8.55 14.2L7.65 15.1Q6.8 15.5 5.35 12.45Q3.75 15 3.45 14.75L3.25 14.7L2.25 14.4Q1.7 14.15 2 13.15L2.15 12.4L2.75 12.65Q3.5 12.65 5.35 10.4L6 11.2L6.5 12.1L6.55 12L7 11.7L7.55 11.5L7.55 10.9L7.4 6.95L7.35 6.4L8.2 10.65" />
<path style="fill:#F5F3EE;fill-opacity:1" d="M3.55,6.4Q4.3 4 5.45 1.6L6.6 4.3L6.05 3.95L5.7 4.35L5.5 4.9L5.1 4.6Q4.3 5.4 3.1 7.95L3.55 6.4" />
<path style="fill:#2E201B;fill-opacity:1" d="M2.3,10.05L2.65 10.2L3.75 9.35L2.4 8.65Q1.8 8.35 1.6 8.85L1.5 9.05L1.5 9.55Q1.55 9.7 2.3 10.05M1.9,7.95Q2.95 8.05 4.45 8.85Q6.25 7.9 8.8 7.6L8.85 7.6Q9.45 7.6 9.6 8.15Q9.95 9.15 9.5 9.8L6.5 10.5L9.05 11.75Q10.55 12.5 9.95 13.65Q9.35 14.75 8.05 14L7.95 13.9L5.1 12.05L4.5 11.7Q2.8 13 1.9 13.8L1.65 14Q0.95 14.5 0.7 14.25L0.1 13.55L0.1 13.5Q-0.15 13.05 0.35 12.5L0.75 12L1.1 11.65L2.05 10.7L1.95 10.6Q1 10.15 0.8 9.7L0.75 9.4Q0.8 9 1.1 8.5Q1.45 7.9 1.9 7.95M6.95,8.55Q6.2 8.75 5.55 9.1L5.4 9.15Q2.7 10.45 0.75 12.85L0.55 13.1L0.6 13.25L0.7 13.4L1.35 13.35L2.65 12.3L3.7 11.5Q5.6 9.95 7.45 9.55L9.2 9L9 8.3L8.85 8.25Q8.45 8.1 7.85 8.25L7.55 8.35L6.95 8.55M6.6,12.3L8.4 13.3L8.55 13.35Q9.1 13.65 9.2 13.05Q9.35 12.45 7.5 11.55L5.9 10.85L4.95 11.4L5.45 11.7L6.6 12.3" />
<path style="fill:#513727;fill-opacity:1" d="M1.6,8.85Q1.8 8.35 2.4 8.65L3.75 9.35L2.65 10.2L2.3 10.05Q2.65 9.5 2.9 9.6L2.25 9.25L1.6 9L1.5 9.05L1.6 8.85M4.55,10.4Q4.75 10.3 6.45 9.55L7.7 8.75L7.55 8.35L7.85 8.25Q8.45 8.1 8.85 8.25L9 8.3L9.2 9L7.45 9.55Q5.6 9.95 3.7 11.5L2.65 12.3Q3.7 10.85 4.55 10.4M8.7,12.85L7.2 11.9L5.9 11.5L5.55 11.6L5.45 11.7L4.95 11.4L5.9 10.85L7.5 11.55Q9.35 12.45 9.2 13.05Q9.1 13.65 8.55 13.35L8.4 13.3L8.7 12.85" />
<path style="fill:#644638;fill-opacity:1" d="M1.5,9.55L1.5 9.05L1.6 9L2.25 9.25L2.9 9.6Q2.65 9.5 2.3 10.05Q1.55 9.7 1.5 9.55M0.95,13.05L1.45 12.7L3.1 11.25L4.45 10.1L5.15 9.65L5.55 9.25L5.55 9.1Q6.2 8.75 6.95 8.55L7.55 8.35L7.7 8.75L6.45 9.55Q4.75 10.3 4.55 10.4Q3.7 10.85 2.65 12.3L1.35 13.35L0.7 13.4L0.6 13.25L0.55 13.1L0.75 12.85L0.95 13.05M5.45,11.7L5.55 11.6L5.9 11.5L7.2 11.9L8.7 12.85L8.4 13.3L6.6 12.3L5.45 11.7" />
<path style="fill:#8E6755;fill-opacity:1" d="M0.75,12.85Q2.7 10.45 5.4 9.15L5.55 9.1L5.55 9.25L5.15 9.65L4.45 10.1L3.1 11.25L1.45 12.7L0.95 13.05L0.75 12.85" />
</g>
</svg>
