<?xml version="1.0" encoding="utf-8"?>
<svg version="1.1" id="Layer_1"
xmlns="http://www.w3.org/2000/svg"
xmlns:xlink="http://www.w3.org/1999/xlink"
xmlns:author="http://www.sothink.com"
width="81px" height="15px"
xml:space="preserve">
<g id="188" transform="matrix(1, 0, 0, 1, -16.5, 1.1)">
<path style="fill:#FFFFFF;fill-opacity:1" d="M36.8,-0.85L38.35 -0.75L39.6 -0.4Q40.4 -0.15 40.9 0.5L41.7 1.7L42 3.25Q42 4.8 41.3 5.65L41.2 5.7L41 5.95L41.05 5.95Q40.45 6.6 39.4 7L39.85 7.5L39.9 7.5L41.1 9.15L41.9 10.75L42.05 11.15L42.2 11.85L42.05 12.5L41.8 12.85L41.35 13.25L41.3 13.3L40.45 13.4L39.4 13.15L39.35 13.1L38.75 12.45L38.5 12L38.15 11.5L38.15 11.45L37.15 9.75L36.15 8.35Q35.75 7.9 35.4 7.75L34.5 7.65L34.05 7.65L34.05 11.25Q34.05 12.3 33.6 12.9L33.55 12.95L32.2 13.4Q31.5 13.4 31.15 13.1L31.1 13.05L30.85 12.85Q30.35 12.35 30.35 11.25L30.35 1.25Q30.35 0.25 30.9 -0.25L31 -0.3Q31.45 -0.85 32.5 -0.85L36.8 -0.85M26.2,-0.4Q27.6 0.3 28.3 1.4Q29.05 2.4 29.05 3.4Q29.05 4.05 28.6 4.5L28.55 4.5Q28.1 5.05 27.4 5.05Q26.75 5.05 26.4 4.7L26.3 4.65L25.65 3.7L25.7 3.7Q25.25 2.9 24.65 2.55L24.6 2.5Q24 2.05 23.2 2.05Q21.85 2.05 21.05 3.1Q20.4 3.95 20.2 5.3L20.15 6.3L20.25 7.45L20.25 7.5L20.55 8.6L20.7 8.9L21.55 9.9L22.35 10.2L22.3 10.15L23.15 10.25L23.75 10.2L23.7 10.25L24.7 9.85Q25.35 9.4 25.65 8.6L25.75 8.4L25.75 8.45L26 7.65L26.1 7.5L26.2 7.45L26.2 7.4Q26.7 6.85 27.4 6.85Q28.1 6.85 28.6 7.4L28.75 7.5L28.85 7.6L29.1 8.55L28.8 10.05L28.7 10.35L28.6 10.55L27.7 11.7L27.65 11.7L26.75 12.5L26.65 12.55L26.45 12.7Q26.15 12.75 25.9 12.95L25.85 12.95L23.9 13.4L23.85 13.4L23.3 13.4L21.3 13.25L21.25 13.25L21.15 13.2L21.05 13.2L19.6 12.55L19.6 12.5L18.2 11.3Q17.65 10.7 17.25 9.9L17.25 9.85Q16.8 9 16.65 8.1Q16.5 7.25 16.5 6.2L16.5 5.3L16.5 5.25Q16.6 4.1 16.95 3.25Q17.45 1.85 18.4 0.9L18.4 0.95Q19.25 -0.15 20.65 -0.55L20.55 -0.55Q21.8 -1.1 23.2 -1.1Q24.9 -1.1 26.2 -0.4M45.55,-0.85L52.5 -0.85Q53.45 -0.85 53.8 -0.35Q54.25 0 54.25 0.7Q54.25 1.35 53.75 1.8Q53.4 2.2 52.5 2.2L47.1 2.2L47.1 4.35L52.05 4.35Q52.8 4.35 53.25 4.8L53.65 5.2L53.7 5.3L53.75 5.85Q53.75 6.6 53.3 6.95L52.05 7.4L47.1 7.4L47.1 10.05L52.7 10.05Q53.6 10.05 54 10.55Q54.5 10.9 54.5 11.6Q54.5 12.35 53.95 12.75L53.65 13L52.7 13.2L45.55 13.2Q44.5 13.2 44.1 12.75L44.05 12.7L43.95 12.6Q43.4 12.15 43.4 11.05L43.4 1.25Q43.4 0.65 43.65 0.2L43.65 0.1Q43.85 -0.35 44.35 -0.6L44.4 -0.65L45.55 -0.85M56.15,-0.3Q56.65 -0.85 57.7 -0.85L61.1 -0.85L63.6 -0.55L65.55 0.5Q67.75 2.3 67.75 6.15L67.5 8.4L67.5 8.45L66.85 10.2L66.85 10.25L65.65 11.85L65.6 11.85L64.35 12.6L64.3 12.6L62.95 13.1L62.9 13.1L61.15 13.2L57.75 13.2L56.4 12.95L56.35 12.9L55.7 12Q55.55 11.55 55.55 10.85L55.55 8.9L55.55 8.8L55.6 7.7L55.55 7.55L55.55 1.25Q55.55 0.25 56.1 -0.25L56.15 -0.3M75.25,-0.85L83.55 -0.85L85 -0.4Q85.45 0.05 85.45 0.75Q85.45 1.55 85 1.95Q84.45 2.35 83.55 2.35L81.25 2.35L81.25 11.25Q81.25 12.3 80.8 12.9L80.75 12.9Q80.2 13.4 79.45 13.4Q78.65 13.4 78.2 12.9L78.15 12.85Q77.55 12.3 77.55 11.25L77.55 2.35L75.25 2.35Q74.35 2.35 73.9 1.95Q73.35 1.55 73.35 0.75Q73.35 0.05 73.85 -0.4L73.9 -0.4Q74.35 -0.85 75.25 -0.85M70.9,-1.1Q71.75 -1.1 72.25 -0.45Q72.75 0.05 72.75 1L72.75 11.25Q72.75 12.3 72.25 12.85L72.2 12.85Q71.7 13.4 70.9 13.4Q70.15 13.4 69.55 12.85Q69.1 12.35 69.1 11.25L69.1 1Q69.1 0.05 69.5 -0.45L69.55 -0.5Q70.15 -1.1 70.9 -1.1M91.15,-1.1L93.45 -0.7Q94.4 -0.4 95.05 0.2Q95.7 0.7 96 1.35L96.3 2.65L95.85 3.85L95.8 3.85Q95.35 4.35 94.65 4.35L93.65 4.05Q93.3 3.8 93 3.05L93 3.1L92.3 2.15Q91.85 1.85 91.05 1.85Q90.15 1.85 89.7 2.2Q89.25 2.5 89.25 2.85L89.35 3.2L89.85 3.65L90.45 3.85L90.5 3.85L91.7 4.2L93.75 4.8L93.7 4.8L95.4 5.55L95.45 5.6L96.55 6.85L96.55 6.9Q96.9 7.7 96.9 8.75Q96.9 10.1 96.2 11.2L96.2 11.15Q95.55 12.25 94.25 12.85Q92.9 13.4 91.2 13.4Q89.1 13.4 87.75 12.65L87.75 12.6Q86.8 12 86.25 11.1Q85.5 10.05 85.5 9.05Q85.5 8.45 85.95 7.95L86 7.95Q86.45 7.35 87.25 7.35Q87.85 7.35 88.25 7.8L88.3 7.85Q88.7 8.15 88.95 8.8L89.35 9.7L90.05 10.2L91.15 10.4Q92.1 10.4 92.7 9.95Q93.25 9.6 93.25 9.05L93.05 8.35L93 8.3L92.2 7.9L90.55 7.45L88.15 6.6Q87 6.15 86.45 5.3Q85.75 4.4 85.75 3.1Q85.75 1.85 86.45 0.9Q87.05 -0.1 88.4 -0.55L88.3 -0.55Q89.6 -1.1 91.15 -1.1M62.35,2.6L60.4 2.25L59.2 2.25L59.2 10.05L60.7 10.05L61.65 10L62.3 9.85L62.4 9.85L62.85 9.6L62.85 9.55Q64 8.55 64 6.1Q64 4.35 63.55 3.55Q63 2.75 62.4 2.6L62.35 2.6M38.05,2.75L37.55 2.35L37.5 2.3L35.95 2.15L34.05 2.15L34.05 4.7L35.85 4.7L37.3 4.55L37.35 4.55L38.1 4.2L38.3 3.4L38.15 2.85L38.05 2.75" />
</g>
</svg>
