<?xml version="1.0" encoding="utf-8"?>
<svg version="1.1" id="Layer_1"
xmlns="http://www.w3.org/2000/svg"
xmlns:xlink="http://www.w3.org/1999/xlink"
xmlns:author="http://www.sothink.com"
width="33px" height="37px"
xml:space="preserve">
<g id="1098" transform="matrix(1, 0, 0, 1, -0.85, -8)">
<path style="fill:#564C48;fill-opacity:1" d="M28.1,10.7Q30.35 12.6 31.7 15.6L32.7 18.4Q33.6 21.85 33.4 25.45Q32.9 34.8 26.1 41.7L22.9 44.55L21.4 44.85Q20.4 44.75 18.4 42.5Q16.4 40.25 14.65 40.6L11.85 41.25L9.9 41.3Q9 41 7.5 39Q6 37.05 4.35 37.25L1.65 37.2Q0.65 36.9 0.9 34.8Q1.1 32.65 2.65 30.5L4.5 27.8L4.7 27.2L4.7 27.05L4.75 27.05L4.95 24.5Q5.05 21.85 5.55 19.6Q6.05 17.25 6.25 17.05L6.5 16.55Q7.7 13 11.3 10.6Q14.85 8.2 21.2 8Q25.55 8.5 28.1 10.7M6.75,22.75L6.4 23.3L6.2 23.1L6.15 23.25L6.1 23.7L6.2 23.55L6.25 24.7L6.25 25.1L6.2 25.85L6.4 26.35L6.65 26.8L5.8 29.05L5.25 30.1L4.2 31.6Q4.05 31.65 3.35 32.85Q2.65 34.05 2.75 35.1Q2.85 36.15 4 35.75L6.15 35.65Q7.05 35.95 7.6 36.35L9.4 38.4Q10.65 39.95 12.7 39.2L12.8 39.15Q14.1 38.65 15.1 38.7L16.3 39L18.35 40.25L19.95 41.8L21.1 42.7Q22.05 43.15 22.9 42.45L23.75 41.7Q31.35 35.15 31.9 23.85L31.9 23.15L31.7 21.25L31.5 19.9L31 17.85Q30.45 16 28.95 13.9Q27.9 12.45 26.65 11.5Q25 10.25 22.9 9.8Q18.55 8.9 14.25 10.7Q10.95 12 9.05 15.35L8.9 15.65L7.7 19.05L7.65 19.35L7.15 21.3L6.85 22.7L6.75 22.75M5.95,23.95L5.75 24.55L5.95 24L5.95 23.9L5.95 23.95" />
<path style="fill:#A8938C;fill-opacity:1" d="M30.45,25.35L30.8 24.85L26.55 27.75L25.3 28.4Q24.5 28.7 22.85 27.6L20.9 26.3L16.45 24.15L15.15 23.65L11.25 22.3L10.95 22.2L10.9 22.2L7.9 22.45L6.85 22.7L7.15 21.3L7.65 19.35L7.7 19.05L8.9 15.65L9.05 15.35Q10.95 12 14.25 10.7Q18.55 8.9 22.9 9.8Q25 10.25 26.65 11.5Q27.9 12.45 28.95 13.9Q30.45 16 31 17.85L31.5 19.9L31.7 21.25L31.9 23.15L31.9 23.85L30.45 25.35M23.75,41.7L22.9 42.45Q22.05 43.15 21.1 42.7L19.95 41.8L18.35 40.25L16.3 39L15.1 38.7L16.35 37.6L18.3 38.3Q19.9 38.9 21.4 40.9L21.9 41.55L23.75 41.7M12.7,39.2Q10.65 39.95 9.4 38.4L7.6 36.35Q7.05 35.95 6.15 35.65L4 35.75Q2.85 36.15 2.75 35.1Q2.65 34.05 3.35 32.85Q4.05 31.65 4.2 31.6L5.25 30.1L5.8 29.05L6.65 26.8L7.1 27.5L7.5 28Q8.7 29.35 10.7 30.05Q13.2 30.85 14.75 30L14.85 29.95L13.4 31L10.65 31.3Q9.45 31.3 7.65 30.4L6.95 30L4.3 34.2L6.7 34.1Q8.3 34.3 9.3 35.95L9.55 36.4Q10.5 38.45 12.7 39.2M6.2,23.55L6.1 23.7L6.15 23.25L6.2 23.1L6.4 23.3L6.2 23.55M7.9,21.45L7.85 21.45L7.9 21.45" />
<path style="fill:#E9DBD2;fill-opacity:1" d="M28.05,33.5Q25.65 39.15 21.4 40.9Q19.9 38.9 18.3 38.3L16.35 37.6Q18.15 35.75 18.45 33.9Q18.05 34.95 16.45 36Q14.55 37.2 12.35 37.2Q11 37.2 9.3 35.95Q8.3 34.3 6.7 34.1L4.3 34.2L6.95 30L7.65 30.4Q9.45 31.3 10.65 31.3L13.4 31L14.85 29.95L14.75 30Q13.2 30.85 10.7 30.05Q8.7 29.35 7.5 28L7.1 27.5L6.65 26.8L6.4 26.35L6.2 25.85L6.25 25.1L6.25 24.7L6.2 23.55L6.4 23.3L6.75 22.75L6.85 22.7L7.9 22.45L10.9 22.2L10.95 22.2L11.25 22.3L15.15 23.65L16.45 24.15L20.9 26.3L22.85 27.6Q24.5 28.7 25.3 28.4L26.55 27.75L30.8 24.85L30.45 25.35Q30.4 27.85 28.05 33.5M7.85,21.45L7.9 21.45L7.85 21.45" />
<path style="fill:#FFFFFF;fill-opacity:1" d="M21.9,41.55L21.4 40.9Q25.65 39.15 28.05 33.5Q30.4 27.85 30.45 25.35L31.9 23.85Q31.35 35.15 23.75 41.7L21.9 41.55M15.1,38.7Q14.1 38.65 12.8 39.15L12.7 39.2Q10.5 38.45 9.55 36.4L9.3 35.95Q11 37.2 12.35 37.2Q14.55 37.2 16.45 36Q18.05 34.95 18.45 33.9Q18.15 35.75 16.35 37.6L15.1 38.7" />
<path style="fill:#CBB4AC;fill-opacity:1" d="M5.95,23.9L5.95 24L5.75 24.55L5.95 23.95L5.95 23.9" />
</g>
</svg>
