<?xml version="1.0" encoding="utf-8"?>
<svg version="1.1" id="Layer_1"
xmlns="http://www.w3.org/2000/svg"
xmlns:xlink="http://www.w3.org/1999/xlink"
xmlns:author="http://www.sothink.com"
width="66px" height="67px"
xml:space="preserve">
<g id="784" transform="matrix(1, 0, 0, 1, 0, 0)">
<path style="fill:#E1EE87;fill-opacity:1" d="M60.9,11.15Q59.2 8.25 55.4 6.05Q43.7 1.2 32.5 9.15Q26.95 13.1 23.7 18.05Q23.7 13.1 27.4 8.5Q34.85 -0.65 50.95 0.05Q54.7 1.05 57.55 2.7Q61.15 4.85 63.2 7.85Q68.45 15.55 61.75 25.65Q64.3 16.9 60.9 11.15M43.3,39.85Q35.3 37 29.75 37.3L21.05 38.25Q14.5 38.7 10.85 36.9Q9.25 36.1 6.7 35.2L3.9 34.05Q3.3 39.9 5.35 48.8Q-0.8 39.25 0.15 24.8Q0.5 24.55 4.25 29Q9.55 33.65 17.2 33.8L24.4 33.4Q31.7 33.3 37.55 35.2Q50.3 39.45 55.05 52.7Q49.45 42 43.3 39.85" />
<path style="fill:#388328;fill-opacity:1" d="M61.35,33.3L61.65 35.3Q62.2 42.15 55.95 47.3Q56.1 23.85 39.9 18.6Q34.85 16.95 28.75 17.35L23.7 18.05Q27.8 16 33.25 15.1Q44.2 13.25 50.9 19.05Q57.2 25.95 58.95 28.8L59.15 29.1L58.95 29.3L59.35 29.45L61.35 33.3M15.75,55.35Q37.6 66.4 56.9 59.55L57.7 66.3Q42.5 68.1 27.7 63.85Q12.7 59.5 5.85 49.55Q10.35 52.65 15.75 55.35" />
<linearGradient
id="LinearGradID_965" gradientUnits="userSpaceOnUse" gradientTransform="matrix(0.00454712, 0.015564, -0.0243073, 0.0071106, 46.2, 21)" spreadMethod ="pad" x1="-819.2" y1="0" x2="819.2" y2="0" >
<stop  offset="0.00784314" style="stop-color:#C7D54A;stop-opacity:1" />
<stop  offset="0.462745" style="stop-color:#83BE4A;stop-opacity:1" />
<stop  offset="1" style="stop-color:#489341;stop-opacity:1" />
</linearGradient>
<path style="fill:url(#LinearGradID_965) " d="M58.95,28.8Q57.2 25.95 50.9 19.05Q44.2 13.25 33.25 15.1Q27.8 16 23.7 18.05Q26.95 13.1 32.5 9.15Q43.7 1.2 55.4 6.05Q59.2 8.25 60.9 11.15Q64.3 16.9 61.75 25.65L59.15 29.1L58.95 28.8M59.35,29.45L60.45 31L61.35 33.3L59.35 29.45" />
<linearGradient
id="LinearGradID_966" gradientUnits="userSpaceOnUse" gradientTransform="matrix(0.00485229, 0.013443, -0.0264893, 0.009552, 29.1, 48.95)" spreadMethod ="pad" x1="-819.2" y1="0" x2="819.2" y2="0" >
<stop  offset="0.00784314" style="stop-color:#C7D54A;stop-opacity:1" />
<stop  offset="0.462745" style="stop-color:#83BE4A;stop-opacity:1" />
<stop  offset="1" style="stop-color:#489341;stop-opacity:1" />
</linearGradient>
<path style="fill:url(#LinearGradID_966) " d="M5.85,49.55L5.35 48.8Q3.3 39.9 3.9 34.05L6.7 35.2Q9.25 36.1 10.85 36.9Q14.5 38.7 21.05 38.25L29.75 37.3Q35.3 37 43.3 39.85Q49.45 42 55.05 52.7Q56.2 55.85 56.9 59.55Q37.6 66.4 15.75 55.35Q10.35 52.65 5.85 49.55" />
</g>
</svg>
