<?xml version="1.0" encoding="utf-8"?>
<svg version="1.1" id="Layer_1"
xmlns="http://www.w3.org/2000/svg"
xmlns:xlink="http://www.w3.org/1999/xlink"
xmlns:author="http://www.sothink.com"
width="38px" height="39px"
xml:space="preserve">
<g id="2869" transform="matrix(1, 0, 0, 1, 6.1, 11.55)">
<path style="fill:#C6A831;fill-opacity:1" d="M8.75,15.25L8.75 15.35L8.65 15.35L8.75 15.25" />
<path style="fill:#D0945B;fill-opacity:1" d="M21.1,21.85L20.7 22.2L19.55 22.9Q18.65 21.5 16.95 20.3L16.35 19.9L16.05 20.3Q14.55 22.35 15.95 24Q14.4 23.95 12.9 23.15L11.9 22.45L11.75 22.35L12.15 20.75Q12.3 20.05 12.75 19.5L14.1 18.1L15.75 17.05Q16.55 16.55 17.35 17.35L18.9 18.5L20.35 19.75L20.85 20.35L21.45 21.2L21.55 21.35L21.1 21.85" />
<path style="fill:#ECD2AB;fill-opacity:1" d="M15.95,24Q14.55 22.35 16.05 20.3L16.35 19.9L16.95 20.3Q18.65 21.5 19.55 22.9Q17.65 24 15.95 24" />
<path style="fill:#B1643F;fill-opacity:1" d="M9.7,20.3L9.4 19.8L8.5 18.6Q7.9 17.75 7.65 16.85Q7.35 16.15 7.55 15.55Q7.6 15.2 7.95 14.6Q8.4 13.8 14 12Q19.55 10.15 22.5 16Q23.5 18.1 22.35 20.35L22.25 20.55L22.45 20.35L22.25 20.6L22.1 20.8L22.15 20.7L21.55 21.3L21.55 21.35L21.45 21.2L20.85 20.35L20.35 19.75L18.9 18.5L17.35 17.35Q16.55 16.55 15.75 17.05L14.1 18.1L12.75 19.5Q12.3 20.05 12.15 20.75L11.75 22.35L9.7 20.3M8.65,15.35L8.75 15.35L8.75 15.25L8.65 15.35" />
<path style="fill:#803F2C;fill-opacity:1" d="M23.15,20.75L22.1 22.15L21.75 22.5L20.5 23.5L19.75 24Q18.45 24.8 16.6 25L16 25.05Q14.35 25 12.9 24.25L12.85 24.2L11.6 23.55L10.75 22.9L9.55 21.7L7.7 19.4Q6.55 17.65 6.3 15.95L6.3 15.55L6.35 15.5Q6.3 14.5 7.35 13.75Q9.9 11.7 12.95 10.7Q18.3 9.5 21.75 13Q25.4 16.65 23.35 20.35L23.15 20.75M19.55,22.9L20.7 22.2L21.1 21.85L21.55 21.35L21.55 21.3L22.15 20.7L22.1 20.8L22.25 20.6L22.45 20.35L22.25 20.55L22.35 20.35Q23.5 18.1 22.5 16Q19.55 10.15 14 12Q8.4 13.8 7.95 14.6Q7.6 15.2 7.55 15.55Q7.35 16.15 7.65 16.85Q7.9 17.75 8.5 18.6L9.4 19.8L9.7 20.3L11.75 22.35L11.9 22.45L12.9 23.15Q14.4 23.95 15.95 24Q17.65 24 19.55 22.9" />
<path style="fill:#0C000C;fill-opacity:1" d="M22.45,21.15Q17.85 21.55 13.5 19.55L13 19.3Q11.8 18.7 10.75 17.9L10.6 18.05Q7.95 21.8 12.2 24.5Q14.35 25.85 16.35 25.9Q18.15 25.85 19.8 24.7L20.55 24.25L21.6 23.1L21.95 22.4L21.95 22.35L22.45 21.15M23.4,22L22.05 24.15Q21 25.25 19.4 26.1Q18.15 26.7 16.55 26.7L15.2 26.6Q12.65 26.25 10.7 24.35Q6.65 20.4 9.85 17.2Q7.65 15.4 8.6 13.55Q9.55 15.1 10.85 16.35Q11.1 16.1 11.4 15.9Q11.95 16 11.65 16.45L11.4 16.85Q12.35 17.6 13.45 18.2Q15.5 19.2 18.2 19.65L22.2 20.05Q23.4 20 23.5 20.5L23.4 22" />
<path style="fill:#252525;fill-opacity:1" d="M13.6,22.65Q14.75 24.35 16.75 24.75L19.8 24.7Q18.15 25.85 16.35 25.9Q14.35 25.85 12.2 24.5Q7.95 21.8 10.6 18.05L10.75 17.9Q11.8 18.7 13 19.3Q12.5 21.05 13.6 22.65M19.45,22.9Q18.1 24.45 16.3 23.35Q15.2 22.65 15.1 21.6L15.95 22.2Q17.5 23.1 19.45 22.9" />
<path style="fill:#434242;fill-opacity:1" d="M13,19.3L13.5 19.55L14.6 20.5Q18.05 22.45 21.95 22.35L21.95 22.4L21.6 23.1L20.55 24.25L19.8 24.7L16.75 24.75Q14.75 24.35 13.6 22.65Q12.5 21.05 13 19.3M15.95,22.2L15.1 21.6Q15.2 22.65 16.3 23.35Q18.1 24.45 19.45 22.9Q17.5 23.1 15.95 22.2" />
<path style="fill:#565656;fill-opacity:1" d="M13.5,19.55Q17.85 21.55 22.45 21.15L21.95 22.35Q18.05 22.45 14.6 20.5L13.5 19.55" />
<path style="fill:#000000;fill-opacity:1" d="M-1.9,-2.8Q-3.45 -0.55 -3.95 2.95L-4.35 5.75L-4.55 5.7Q-4.8 7.75 -4.55 10.85L-3.8 15.45Q-3.4 16.95 -2.25 19.15Q-1.2 21.3 1.3 23Q3.75 24.75 6.45 25.05L9.65 25.25L10.8 24.9L9.55 23.35Q8.9 22.3 8.85 21.25Q8.5 19.45 9.05 18.25Q9.55 17.05 11.4 15.5Q13.1 13.85 15 12.6L16.05 11.75L17.05 10.85L17.75 10.1Q18.8 8.75 21.6 6.45Q21.75 6.2 22.05 6.05Q22.65 5.5 23.3 5.2Q25 4.2 26.45 4.55Q28.55 4.95 29 6.6Q29.35 8.05 28.95 8.75Q29.9 7.65 30.05 6.1L30.1 4.4L29.7 2.65L29.55 2.3L29.55 2.2L28.8 0.75L27.75 -1.1L26.6 -2.5L26.5 -2.65L25.9 -3.5L23.75 -5.45Q18.1 -10.2 11.8 -10Q7.35 -9.95 2.85 -7.55L2.5 -7.3Q1.65 -6.95 1.15 -6.4L-0.25 -5.2L-1.9 -2.8M27.85,8.95L27.9 7.5Q27.85 6.4 26.9 6Q26.1 5.6 25.95 5.75Q25.7 5.6 25.2 5.75L24.6 5.9L24.55 5.95L24.5 5.95L23.65 6.45Q22.05 7.5 20.5 9.1L17.15 12.4L16.75 12.7L15.9 13.5Q15.9 13.35 15.85 13.5L15.3 13.9L15.2 13.95L14.95 14.15L14.75 14.3L14.65 14.4Q12.55 16 12.1 16.5L11.15 17.5Q10.7 18.1 10.2 19.25Q9.75 20.25 10.7 22.3Q11.75 24.25 12.35 24.65Q12.85 25 12.7 25.45L10.45 26.15L8.45 26.35L5.65 26.1Q2.85 25.5 0.85 24.25Q-1.25 23.05 -2.9 20.75Q-4.65 18.35 -5.2 15.3Q-5.9 12.1 -6 10.25L-6.05 9.3L-6.1 8.2L-5.95 5.9L-5.2 1.35Q-4.7 -0.85 -3.5 -3Q-2.45 -5.25 -1.35 -6.3L0 -7.55Q0.85 -8.25 2.8 -9.25Q4.7 -10.25 7.25 -10.9Q9.8 -11.6 12 -11.55L16.25 -11.05Q18.25 -10.6 21.1 -9.25Q23.9 -7.85 26.75 -4.65Q29.55 -1.5 30.35 1L31.2 4.3L31.2 5.5L31.2 5.55Q31.15 6.9 30.65 8.25Q30.05 9.7 28.8 10.15L28.6 10.2L27.85 8.95" />
<path style="fill:#2C1335;fill-opacity:1" d="M27.85,8.95L28.6 10.2L28.65 10.4Q30.1 13.55 29.05 17.75L27.45 20.65L25.95 21.75L24.95 22.2Q24.55 22.15 24.3 21.6Q24 20.85 22.5 19.15L19.55 16.35L17.65 15Q17 14.6 16.15 14.45L14.75 14.3L14.95 14.15L15.2 13.95L15.3 13.9L15.85 13.5Q15.9 13.35 15.9 13.5Q17.4 13.65 19.1 14.75Q20.75 15.8 22.35 17.3Q23.9 18.7 25.3 20.95L25.8 20.7L26.8 19.5L28.05 16.85Q28.7 15.1 28.4 12.7L28 11.25L27.25 9.55L25.9 7.15Q24.95 5.85 24.55 5.95L24.6 5.9L25.2 5.75Q25.7 5.6 25.95 5.75Q26.5 6.1 27.85 8.95" />
<path style="fill:#512A70;fill-opacity:1" d="M25.8,20.7L25.3 20.95Q23.9 18.7 22.35 17.3Q20.75 15.8 19.1 14.75Q17.4 13.65 15.9 13.5L16.75 12.7L17.15 12.4L20.5 9.1Q22.05 7.5 23.65 6.45L24.5 5.95L24.55 5.95Q24.95 5.85 25.9 7.15L27.25 9.55Q25.05 9.65 23.6 10.75Q22 11.85 21.85 12.75Q22.8 13.45 23.8 14.85L24.05 15.25Q25.4 17.6 25.8 20.7M26,14.6L24.65 13.25Q23.7 12.5 24.45 11.8Q25.85 12.1 26.2 13.5Q26.55 15.2 26 14.6" />
<path style="fill:#7E52A1;fill-opacity:1" d="M27.8,14.95Q27.45 16.95 26.4 18.25Q26.05 16.35 24.4 15.45L24.05 15.25L23.8 14.85Q22.8 13.45 21.85 12.75Q22 11.85 23.6 10.75Q25.05 9.65 27.25 9.55L28 11.25L28.4 12.7Q27.85 13.7 27.8 14.95M26.2,13.5Q25.85 12.1 24.45 11.8Q23.7 12.5 24.65 13.25L26 14.6Q26.55 15.2 26.2 13.5" />
<path style="fill:#AF87CD;fill-opacity:1" d="M24.05,15.25L24.4 15.45Q26.05 16.35 26.4 18.25Q27.45 16.95 27.8 14.95Q27.85 13.7 28.4 12.7Q28.7 15.1 28.05 16.85L26.8 19.5L25.8 20.7Q25.4 17.6 24.05 15.25" />
<path style="fill:#121212;fill-opacity:1" d="M25.95,5.75Q26.1 5.6 26.9 6Q27.85 6.4 27.9 7.5L27.85 8.95Q26.5 6.1 25.95 5.75" />
<path style="fill:#3A3838;fill-opacity:1" d="M-0.25,-5.2L-0.2 -4.7Q0.05 -2.75 1.35 -1.15Q2.25 0.15 3.6 1L6.35 2.45L10.05 3.6L13.4 3.95L17.25 3.35L21.05 1.95Q22.6 1.25 24.25 0.95Q26.1 0.45 27.85 1.35L28.1 1.5L28.3 1.6L29.7 2.65L30.1 4.4Q29 3.6 27.9 3.3L24.2 3.2Q22.25 3.75 20.75 4.9L17.75 7.2L14.95 9.45L11.95 11.6Q10.4 12.6 8.6 12.9Q6.6 13.15 4.75 12.85Q2.8 12.5 1.1 11.55L-1.4 9.6L-3.3 7.2L-4.3 5.8L-4.35 5.75L-3.95 2.95Q-3.45 -0.55 -1.9 -2.8L-0.25 -5.2" />
<path style="fill:#252525;fill-opacity:1" d="M30.05,6.1Q29.9 7.65 28.95 8.75Q29.35 8.05 29 6.6Q28.55 4.95 26.45 4.55Q25 4.2 23.3 5.2Q22.65 5.5 22.05 6.05Q21.75 6.2 21.6 6.45Q18.8 8.75 17.75 10.1L17.05 10.85L16.05 11.75L15 12.6Q13.1 13.85 11.4 15.5Q9.55 17.05 9.05 18.25Q8.5 19.45 8.85 21.25Q8.9 22.3 9.55 23.35L10.8 24.9L9.65 25.25L6.45 25.05Q3.75 24.75 1.3 23Q-1.2 21.3 -2.25 19.15Q-3.4 16.95 -3.8 15.45L-4.55 10.85Q-4.8 7.75 -4.55 5.7L-4.35 5.75L-4.3 5.8L-3.3 7.2L-1.4 9.6L1.1 11.55Q2.8 12.5 4.75 12.85Q6.6 13.15 8.6 12.9Q10.4 12.6 11.95 11.6L14.95 9.45L17.75 7.2L20.75 4.9Q22.25 3.75 24.2 3.2L27.9 3.3Q29 3.6 30.1 4.4L30.05 6.1" />
<path style="fill:#626262;fill-opacity:1" d="M23,-0.95L19.05 -0.7Q17.1 -0.5 15.2 -0.7L11.7 -1.5Q9.95 -2.05 8.35 -2.95Q6.9 -3.7 5.5 -4.6Q3.95 -5.6 3.05 -7.05L6.25 -7.75L10 -8.1L14.05 -7.75L17.2 -6.9Q18.75 -6.45 20.2 -5.6Q21.75 -4.8 23.15 -3.7L25.75 -1.4L26.65 -0.4L23 -0.95" />
<path style="fill:#4F4F4F;fill-opacity:1" d="M29.55,2.2L29.55 2.3L29.7 2.65L28.3 1.6L28.1 1.5L27.85 1.35Q26.1 0.45 24.25 0.95Q22.6 1.25 21.05 1.95L17.25 3.35L13.4 3.95L10.05 3.6L6.35 2.45L3.6 1Q2.25 0.15 1.35 -1.15Q0.05 -2.75 -0.2 -4.7L-0.25 -5.2L1.15 -6.4Q1.65 -6.95 2.5 -7.3L2.85 -7.55L3.05 -7.05Q3.95 -5.6 5.5 -4.6Q6.9 -3.7 8.35 -2.95Q9.95 -2.05 11.7 -1.5L15.2 -0.7Q17.1 -0.5 19.05 -0.7L23 -0.95L26.65 -0.4L26.7 -0.35Q27.8 0 28.8 0.75L29.55 2.2" />
<path style="fill:#939292;fill-opacity:1" d="M2.85,-7.55Q7.35 -9.95 11.8 -10Q18.1 -10.2 23.75 -5.45L25.9 -3.5L26.5 -2.65L26.6 -2.5L27.75 -1.1L28.8 0.75Q27.8 0 26.7 -0.35L26.65 -0.4L25.75 -1.4L23.15 -3.7Q21.75 -4.8 20.2 -5.6Q18.75 -6.45 17.2 -6.9L14.05 -7.75L10 -8.1L6.25 -7.75L3.05 -7.05L2.85 -7.55" />
</g>
</svg>
