<?xml version="1.0" encoding="utf-8"?>
<svg version="1.1" id="Layer_1"
xmlns="http://www.w3.org/2000/svg"
xmlns:xlink="http://www.w3.org/1999/xlink"
xmlns:author="http://www.sothink.com"
width="118px" height="20px"
xml:space="preserve">
<g id="443" transform="matrix(1, 0, 0, 1, -10.55, -2.05)">
<linearGradient
id="LinearGradID_633" gradientUnits="userSpaceOnUse" gradientTransform="matrix(0, 0.00823975, -0.00872803, 0, 17.7, 12.25)" spreadMethod ="pad" x1="-819.2" y1="0" x2="819.2" y2="0" >
<stop  offset="0" style="stop-color:#FFF980;stop-opacity:1" />
<stop  offset="1" style="stop-color:#E7950A;stop-opacity:1" />
</linearGradient>
<path style="fill:url(#LinearGradID_633) " d="M24.1,20.85Q23.4 21.5 22.1 21.5L13.7 21.5Q12.05 21.5 11.35 20.7Q10.55 20 10.55 18.35L10.55 5.15Q10.55 3.65 11.3 2.9Q12 2.05 13.3 2.05Q14.45 2.05 15.25 2.85Q16.05 3.55 16.05 5.15L16.05 16.65L22.1 16.65Q23.4 16.65 24.1 17.3Q24.85 18 24.85 19.1Q24.85 20.15 24.1 20.85M12.2,5.55L13.1 6.1Q13.75 6.35 14.25 5.9Q14.75 5.45 14.7 4.75L14.5 4.2L14.3 4.05L12.75 3.9Q12.1 3.95 12.1 4.65L12.2 5.55" />
<path style="fill:#FFFFFF;fill-opacity:1" d="M12.1,4.65Q12.1 3.95 12.75 3.9L14.3 4.05L14.5 4.2L14.7 4.75Q14.75 5.45 14.25 5.9Q13.75 6.35 13.1 6.1L12.2 5.55L12.1 4.65" />
<linearGradient
id="LinearGradID_634" gradientUnits="userSpaceOnUse" gradientTransform="matrix(0, 0.00823975, -0.00872803, 0, 17.7, 12.25)" spreadMethod ="pad" x1="-819.2" y1="0" x2="819.2" y2="0" >
<stop  offset="0" style="stop-color:#FFF980;stop-opacity:1" />
<stop  offset="1" style="stop-color:#E7950A;stop-opacity:1" />
</linearGradient>
<path style="fill:url(#LinearGradID_634) " d="M39.4,3Q39.7 3.25 39.85 4.35Q39.75 6 39.4 6.35L39.35 6.4Q38.75 7 37.45 7L30.6 7L30.6 9.2L36.8 9.2Q38.05 9.2 38.65 9.85L38.7 9.9Q39.4 10.55 39.4 11.5Q39.4 12.5 38.7 13.2Q38.15 13.85 36.8 13.85L30.6 13.85L30.6 16.75L37.7 16.75Q39 16.75 39.6 17.35L39.65 17.4L40.1 18L40.35 19.15L40.1 20.25L39.65 20.85L39.6 20.9Q39 21.5 37.7 21.5L28.25 21.5Q26.55 21.5 25.9 20.7L25.95 20.7Q25.15 20 25.15 18.35L25.15 5.45Q25.15 4.45 25.45 3.85L25.45 3.9Q25.75 3.05 26.6 2.7L26.7 2.65Q27.3 2.3 28.25 2.3L37.45 2.3Q38.75 2.3 39.35 2.95L39.4 3M36.5,3.85Q35.85 6.2 38.7 5.7L38.8 5.5L39.1 4.75L39.15 4.4L39 4.2Q38 3.45 36.75 3.65L36.5 3.85M27.75,5.9L28 5.8Q30.25 4.35 28 3.65L27.75 3.7Q27.25 3.9 26.9 4.25L26.9 4.6Q27 5.55 27.75 5.9" />
<path style="fill:#FFFFFF;fill-opacity:1" d="M36.75,3.65Q38 3.45 39 4.2L39.15 4.4L39.1 4.75L38.8 5.5L38.7 5.7Q35.85 6.2 36.5 3.85L36.75 3.65M26.9,4.6L26.9 4.25Q27.25 3.9 27.75 3.7L28 3.65Q30.25 4.35 28 5.8L27.75 5.9Q27 5.55 26.9 4.6" />
<linearGradient
id="LinearGradID_635" gradientUnits="userSpaceOnUse" gradientTransform="matrix(0, 0.00823975, -0.00872803, 0, 18.5, 12.25)" spreadMethod ="pad" x1="-819.2" y1="0" x2="819.2" y2="0" >
<stop  offset="0" style="stop-color:#FFF980;stop-opacity:1" />
<stop  offset="1" style="stop-color:#E7950A;stop-opacity:1" />
</linearGradient>
<path style="fill:url(#LinearGradID_635) " d="M57.15,5.05Q57.05 3.1 54.8 3.4Q54.05 3.5 54.1 4.4L54.25 5.3L54.45 5.45L57.1 5.25L57.15 5.05M56.5,2.4Q57.15 2.7 57.5 3.35L57.5 3.4L57.8 4.6L57.75 5.35L57.55 6.1L57.45 6.3L57.3 6.65L53.15 17.9L53.15 17.85L52.7 19.2L52.7 19.15L52.1 20.35L51 21.35L49.3 21.8Q48.2 21.8 47.55 21.35Q46.85 20.95 46.5 20.35L45.85 19.1L45.4 17.85L45.4 17.9L41.3 6.75L41.15 6.2L40.9 5.4Q40.6 4.6 40.9 3.85L41.55 2.8L41.6 2.75Q42.35 2.05 43.45 2.05Q45 2.05 45.55 3.1L46.4 5.05L46.4 5L49.35 13.7L52.3 4.95L52.8 3.55Q53 3 53.55 2.55L53.65 2.5Q54.15 2.05 55.2 2.05Q55.9 2.05 56.45 2.35L56.5 2.4M41.95,5L44.55 5.15L44.6 4.95Q44.9 2.85 42.55 2.9Q42.05 2.9 41.8 3.45Q41.4 4.3 41.95 5" />
<path style="fill:#FFFFFF;fill-opacity:1" d="M57.1,5.25L54.45 5.45L54.25 5.3L54.1 4.4Q54.05 3.5 54.8 3.4Q57.05 3.1 57.15 5.05L57.1 5.25M41.8,3.45Q42.05 2.9 42.55 2.9Q44.9 2.85 44.6 4.95L44.55 5.15L41.95 5Q41.4 4.3 41.8 3.45" />
<linearGradient
id="LinearGradID_636" gradientUnits="userSpaceOnUse" gradientTransform="matrix(0, 0.00823975, -0.00872803, 0, 18.5, 12.25)" spreadMethod ="pad" x1="-819.2" y1="0" x2="819.2" y2="0" >
<stop  offset="0" style="stop-color:#FFF980;stop-opacity:1" />
<stop  offset="1" style="stop-color:#E7950A;stop-opacity:1" />
</linearGradient>
<path style="fill:url(#LinearGradID_636) " d="M71.3,3.4Q69.3 5.9 72.95 4.95L72.9 4.75Q72.65 3.6 71.3 3.4M72.65,6.4Q72.05 7 70.75 7L63.9 7L63.9 9.2L70.1 9.2Q71.35 9.2 71.95 9.85L72 9.9Q72.7 10.55 72.7 11.5Q72.7 12.5 72 13.2Q71.45 13.85 70.1 13.85L63.9 13.85L63.9 16.75L71 16.75Q72.3 16.75 72.9 17.35L72.95 17.4Q73.65 18.05 73.65 19.15Q73.65 20.15 72.95 20.85L72.9 20.9Q72.3 21.5 71 21.5L61.55 21.5Q59.85 21.5 59.2 20.7L59.25 20.7Q58.45 20 58.45 18.35L58.45 5.45Q58.45 4.45 58.75 3.85L58.75 3.9Q59.05 3.05 59.9 2.7L60 2.65Q60.6 2.3 61.55 2.3L70.75 2.3Q72.05 2.3 72.65 2.95L72.7 3Q73.4 3.6 73.4 4.65Q73.4 5.65 72.7 6.35L72.65 6.4M61.05,3.9Q60.5 4 60.3 4.65L60.2 5.4Q61.55 6.7 62.7 5.3L62.7 5.15Q62.85 3.55 61.05 3.9" />
<path style="fill:#FFFFFF;fill-opacity:1" d="M72.9,4.75L72.95 4.95Q69.3 5.9 71.3 3.4Q72.65 3.6 72.9 4.75M62.7,5.15L62.7 5.3Q61.55 6.7 60.2 5.4L60.3 4.65Q60.5 4 61.05 3.9Q62.85 3.55 62.7 5.15" />
<linearGradient
id="LinearGradID_637" gradientUnits="userSpaceOnUse" gradientTransform="matrix(0, 0.00823975, -0.00872803, 0, 18.5, 12.25)" spreadMethod ="pad" x1="-819.2" y1="0" x2="819.2" y2="0" >
<stop  offset="0" style="stop-color:#FFF980;stop-opacity:1" />
<stop  offset="1" style="stop-color:#E7950A;stop-opacity:1" />
</linearGradient>
<path style="fill:url(#LinearGradID_637) " d="M88.65,19.1Q88.65 20.15 87.9 20.85Q87.2 21.5 85.9 21.5L77.5 21.5Q75.85 21.5 75.15 20.7Q74.35 20 74.35 18.35L74.35 5.15Q74.35 3.65 75.1 2.9Q75.8 2.05 77.1 2.05Q78.25 2.05 79.05 2.85Q79.85 3.55 79.85 5.15L79.85 16.65L85.9 16.65Q87.2 16.65 87.9 17.3Q88.65 18 88.65 19.1M78.85,4.55Q78.15 3.4 76.55 3.9Q76 3.9 76.2 4.4Q77.1 6.6 78.95 4.75L78.85 4.55" />
<path style="fill:#FFFFFF;fill-opacity:1" d="M78.95,4.75Q77.1 6.6 76.2 4.4Q76 3.9 76.55 3.9Q78.15 3.4 78.85 4.55L78.95 4.75" />
<linearGradient
id="LinearGradID_638" gradientUnits="userSpaceOnUse" gradientTransform="matrix(0, 0.00823975, -0.00872803, 0, 18.5, 12.25)" spreadMethod ="pad" x1="-819.2" y1="0" x2="819.2" y2="0" >
<stop  offset="0" style="stop-color:#FFF980;stop-opacity:1" />
<stop  offset="1" style="stop-color:#E7950A;stop-opacity:1" />
</linearGradient>
<path style="fill:url(#LinearGradID_638) " d="M110.65,2.9Q111.4 3.6 111.4 5.15L111.4 13.4Q111.4 15.55 110.95 17.05Q110.5 18.65 109.2 19.9Q108.1 20.9 106.65 21.35L103.45 21.8L99.75 21.3L99.8 21.35Q98.05 20.85 97 19.75Q95.95 18.7 95.4 17.05Q94.95 15.5 94.95 13.4L94.95 5.15Q94.95 3.65 95.7 2.9Q96.45 2.05 97.65 2.05Q99 2.05 99.7 2.9Q100.45 3.65 100.45 5.15L100.45 13.6Q100.45 14.85 100.7 15.7Q100.9 16.3 101.45 16.65L101.5 16.7L103.2 17.05Q104.65 17.05 105.25 16.35Q105.9 15.45 105.9 13.65L105.9 5.15Q105.9 3.6 106.65 2.9L106.7 2.85Q107.4 2.05 108.65 2.05Q109.9 2.05 110.6 2.85L110.65 2.9M108.05,3.95Q107.6 4.15 107.7 4.65Q108.55 6.8 110.85 5.5L110.9 5.3Q110.85 3.5 108.8 3.65L108.05 3.95M98.05,3.4Q96.15 3.4 96.2 5.15L98.5 5.2L98.6 5Q98.95 3.9 98.05 3.4" />
<path style="fill:#FFFFFF;fill-opacity:1" d="M108.8,3.65Q110.85 3.5 110.9 5.3L110.85 5.5Q108.55 6.8 107.7 4.65Q107.6 4.15 108.05 3.95L108.8 3.65M98.6,5L98.5 5.2L96.2 5.15Q96.15 3.4 98.05 3.4Q98.95 3.9 98.6 5" />
<linearGradient
id="LinearGradID_639" gradientUnits="userSpaceOnUse" gradientTransform="matrix(0, 0.00697327, -0.00872803, 0, 18.5, 13.7)" spreadMethod ="pad" x1="-819.2" y1="0" x2="819.2" y2="0" >
<stop  offset="0" style="stop-color:#FFF980;stop-opacity:1" />
<stop  offset="1" style="stop-color:#E7950A;stop-opacity:1" />
</linearGradient>
<path style="fill:url(#LinearGradID_639) " d="M122.75,10.6Q122.75 10 122.4 9.6L120 9.25L118.65 9.25L118.65 12L120 12L121.75 11.8L122.5 11.4L122.75 10.6M126.4,6.65L127.85 8.3L127.85 8.35Q128.3 9.3 128.3 10.55Q128.3 13.15 126.3 14.55Q124.5 15.85 120.85 15.85L118.65 15.85L118.65 19.15Q118.65 20.4 117.9 21.1Q117.1 21.8 115.9 21.8Q114.7 21.8 113.9 21.1Q113.2 20.45 113.2 19.15L113.2 7.95Q113.2 6.55 114 5.95L114.05 5.95Q114.8 5.3 116.4 5.3L120.85 5.3L124.15 5.65Q125.4 5.9 126.35 6.6L126.4 6.65M126.55,8.7L126.6 8.5Q126.7 6.6 124.3 6.85Q124.05 6.85 124 7.05Q123.65 9.35 126.55 8.7M116.55,6.85Q114.65 6.8 114.95 8.35L117.25 8.4L117.35 8.2Q117.8 7.05 116.55 6.85" />
<path style="fill:#FFFFFF;fill-opacity:1" d="M124,7.05Q124.05 6.85 124.3 6.85Q126.7 6.6 126.6 8.5L126.55 8.7Q123.65 9.35 124 7.05M117.35,8.2L117.25 8.4L114.95 8.35Q114.65 6.8 116.55 6.85Q117.8 7.05 117.35 8.2" />
</g>
</svg>
