<?xml version="1.0" encoding="utf-8"?>
<svg version="1.1" id="Layer_1"
xmlns="http://www.w3.org/2000/svg"
xmlns:xlink="http://www.w3.org/1999/xlink"
xmlns:author="http://www.sothink.com"
width="41px" height="30px"
xml:space="preserve">
<g id="1729" transform="matrix(1, 0, 0, 1, 6.1, 5.1)">
<path style="fill:#694817;fill-opacity:1" d="M11.45,16.25Q10.95 17.05 11.2 18.6Q8.8 17.35 7.5 16.2L8 15.1L8.45 15.1L10.15 16.9Q10.3 16.2 10.6 15.65Q11.05 15.85 11.45 16.2L11.45 16.25M16.75,17.25L17.7 16.15L18.6 18.05Q20.05 17.05 20.95 14.7L21 14.6L21.65 15.7L21.1 17Q19.75 19.2 18.2 20.25Q18 20.3 17.85 19.8L17.6 19.1L17.2 18.2L16.75 17.25M14.7,12.55L14.7 12.6L14.7 12.7L14.65 12.55L14.7 12.55" />
<path style="fill:#FBF734;fill-opacity:1" d="M21.7,6.35L21.8 6.15L21.95 6.45L21.7 6.35M6.4,5.25L6.3 5.35L6.35 5.2L6.35 5.25L6.4 5.25" />
<path style="fill:#FED009;fill-opacity:1" d="M21.95,6.45L22.5 7.4L22.65 7.85L22.65 9L22.55 9.75L21.7 9.25L21.65 9.3L21.65 9.35L20.8 8.05L20.85 8L21.7 6.35L21.95 6.45M13.5,9.1L12.85 7.4L12.9 7.05L13.1 5.85Q13.25 5.25 13.75 4.35L15.4 7.3L15.25 8Q14.25 8.6 13.5 9.1M6.8,8.15L5.9 8.8L5.9 8.7L5.9 8.5Q5.85 7.85 6.2 7.1Q6.55 6.2 6.65 6.55L7.1 7.9L6.8 8.15" />
<path style="fill:#D48D01;fill-opacity:1" d="M10.15,16.9L8.45 15.1L8.55 15.1L10.1 15.45L10.6 15.65Q10.3 16.2 10.15 16.9M20.95,14.7Q20.05 17.05 18.6 18.05L17.7 16.15L18.9 15.05Q19.85 14.45 20.3 14.4L20.85 14.35L21 14.6L20.95 14.7M22.55,9.75L22.2 10.3L21.65 9.35L21.65 9.3L21.7 9.25L22.55 9.75M13.5,9.1Q14.25 8.6 15.25 8L14.4 11.35L13.5 9.1M5.9,8.8L6.8 8.15L7.1 7.9L7.4 8.75Q6.95 10.25 6.85 11.25L6.7 11.05L6 9.85L5.9 8.8M14.65,12.55L14.65 12.5L14.7 12.55L14.65 12.55" />
<path style="fill:#9C753C;fill-opacity:1" d="M7.65,20.3Q9.15 21.75 10.75 22.3L16.55 22.6Q19.85 22.1 21.95 19.6L22.3 19.15L22.15 20.05L22 20.7L21.7 21.4L21.3 21.7Q18.25 23.95 14.95 24.1Q11.65 24.2 8.85 22.85L8.05 22.45L7.9 22.25Q7.55 21.8 7.35 21.05L7.3 20.8L7.1 19.8L7.65 20.3" />
<path style="fill:#E9CB9E;fill-opacity:1" d="M13.55,18.45L14.05 18.95Q14.8 19.65 16 18.25L16.2 18.5Q17.35 20.25 17.05 21.4L19.75 19.95Q21.35 19.05 22.1 18.05L22.35 18.65L22.35 18.7L22.3 19.15L21.95 19.6Q19.85 22.1 16.55 22.6L10.75 22.3Q9.15 21.75 7.65 20.3L7.5 19.65Q7.5 18.5 8 17.95L8.45 17.4L8.45 17.25L8.5 17.25L10.65 19.15Q12.45 20.5 12.95 20.5L13.3 20.45Q13.15 20.1 13.3 19.3L13.55 18.45" />
<path style="fill:#D0A15B;fill-opacity:1" d="M11.45,16.2L12.25 16.95L13.55 18.45L13.3 19.3Q13.15 20.1 13.3 20.45L12.95 20.5Q12.45 20.5 10.65 19.15L8.5 17.25L8.45 17.25L8.45 17.4L8 17.95Q7.5 18.5 7.5 19.65L7.65 20.3L7.1 19.8L7.05 19.55Q6.75 18 7.5 16.2Q8.8 17.35 11.2 18.6Q10.95 17.05 11.45 16.25L11.45 16.2M22.1,18.05Q21.35 19.05 19.75 19.95L17.05 21.4Q17.35 20.25 16.2 18.5L16 18.25L16.4 17.7L16.75 17.25L17.2 18.2L17.6 19.1L17.85 19.8Q18 20.3 18.2 20.25Q19.75 19.2 21.1 17L21.65 15.7Q22.4 17.2 22.35 18.65L22.1 18.05" />
<path style="fill:#FFFFF6;fill-opacity:1" d="M7.45,3.85L7.65 3.7L10.45 1.4L12.8 -0.5L12.9 -0.55L13.25 -0.65L13.5 -0.6L13.9 -0.45L14.5 -0.15L15.3 0.45L15.55 0.65L18.55 2.45L18.75 2.55L13.45 0.55L13.1 0.75L7.45 3.85M5.2,3.25L4.5 3.7L4.15 3.95L5.25 2.9L6.8 1.7L7.95 1.1L8.85 0.75L9.6 0.4Q8.2 1.25 7.1 2.2Q6.1 2.6 5.2 3.25" />
<path style="fill:#76838C;fill-opacity:1" d="M27.1,14.05L27 14.05L26.95 13.95L26.95 13.9L27.05 13.95L27.1 14.05M8.45,7.9L8.4 8.1L8.3 7.9L8.45 7.9M4.8,5.25L4.9 5.25L4.75 5.4L4.8 5.25" />
<path style="fill:#723C13;fill-opacity:1" d="M13.8,-5.1Q17.15 -3.85 19.55 -0.8L16.9 -1.25Q15.25 -3.25 13.6 -3.35Q11.9 -2.45 10.9 -1.2L7.65 0Q10.5 -3.45 13.8 -5.1M-2.55,12.9L-3.7 12.2L-3.95 12L-4.5 10.9L-5.05 9.2L-5.35 7.95Q-6.4 4.1 -5.95 4.1L-3.25 4.7L-1.7 5.2Q-0.55 5.6 0.15 5.95L1.05 6.45L1.7 7.8L2.15 9.05L2.25 9.3L2.3 9.4L2.35 9.65L2.7 11.25L2.75 11.5L2.9 13.55L2.9 13.6L2.5 13.7L1.8 13.75L1.55 13.75L0.05 13.65L-2.55 12.9M27.35,11.35L26.15 11.3L25.75 11.2L25.8 10.15L26.1 8.1L26.15 7.95L26.4 6.9L26.95 5.4L27.1 5.05L27.6 4.05L28.5 3.55L30.35 2.8L31.9 2.3L34.6 1.7Q35.05 1.7 34 5.55L33.7 6.8L33.15 8.5L32.6 9.6L32.6 9.65L31.6 10.3L31.4 10.45L28.8 11.25L27.35 11.35M29.25,4.75L28.95 4.8L28.95 4.85Q28.2 5.85 27.75 7L27.65 7.25L27.5 7.75L27.4 8.05Q26.9 9.7 26.95 10.2L27.2 10.2L28.1 10.1L30.2 9.6L31.4 9.2L31.45 9.15L31.8 8.25L32 7.6L32.05 7.2L32.2 6.75L32.5 5.85L33.15 3.3L30.95 4Q30.15 4.25 29.25 4.75M-2.3,6.4L-4.5 5.7L-3.85 8.25L-3.55 9.15L-3.4 9.6L-3.25 10.3L-3.15 10.65L-2.8 11.55L-2.45 11.7L-0.55 12.3L0.45 12.5L1.7 12.6L1.25 10.45L1 9.65L0.25 8.05L-0.3 7.2L-0.6 7.15Q-1.5 6.65 -2.3 6.4" />
<path style="fill:#AA912B;fill-opacity:1" d="M13.6,-3.35Q15.25 -3.25 16.9 -1.25L16.4 -1.3L15.4 -1.55Q15.15 -1.8 14.15 -2.25L13.15 -2.5L12.4 -2.3Q11.65 -1.95 11.1 -1.3L10.9 -1.2Q11.9 -2.45 13.6 -3.35M29.25,4.9L29.35 4.8L29.7 4.85L30.35 5.05L30.95 5.5L30.6 6.35L30.7 6.35L31.2 6.3L31.4 6.2L31.6 6.3L31.3 7.4L30.6 7.6L29.15 7.45L28.95 6.8L29 6.5L29 6.1L29 6.05L29.15 5.05L29.15 4.9L29.25 4.9M-0.5,7.3L-0.5 7.45L-0.45 7.8L-0.35 8.45L-0.3 9.15L-0.3 9.2L-0.5 9.85L-1.95 10L-2.65 9.8L-2.95 8.7L-2.75 8.6L-2.35 8.75L-2.05 8.75L-1.95 8.75L-2.3 7.9L-1.7 7.45L-1.05 7.25L-0.7 7.2L-0.5 7.3" />
<path style="fill:#4F433E;fill-opacity:1" d="M19.55,-0.8L19.85 -0.65L19.95 -0.65L20.45 -0.45L21.1 -0.2Q23.1 0.7 24.8 2.15Q25.95 3.2 27.1 5.05L26.95 5.4L26.4 6.9L26.15 7.95L25.65 7.25L25.35 6.85L24.9 6.35L24.4 5.8L24.35 5.75L22.7 4.5L18.75 2.55L18.55 2.45L15.55 0.65L15.3 0.45L14.5 -0.15L13.9 -0.45L13.5 -0.6L13.25 -0.65L12.9 -0.55L12.8 -0.5L10.45 1.4L7.65 3.7L7.45 3.85L4.8 5.95L3.6 7.2L3.4 7.45Q2.6 8.2 2.15 9.05L1.7 7.8L1.05 6.45L1.8 4.9Q2.75 3.1 4.2 1.9Q5.05 1.25 6 0.7L5.95 0.7L5.95 0.65L7.65 0L10.9 -1.2L11.1 -1.3Q11.65 -1.95 12.4 -2.3L13.15 -2.5L14.15 -2.25Q15.15 -1.8 15.4 -1.55L16.4 -1.3L16.9 -1.25L19.55 -0.8M22,20.7L22.15 20.05L22.3 19.15L22.35 18.7L22.35 18.65Q22.4 17.2 21.65 15.7L21 14.6L20.85 14.35L20.3 14.4Q19.85 14.45 18.9 15.05L17.7 16.15L16.75 17.25L16.4 17.7L16 18.25Q14.8 19.65 14.05 18.95L13.55 18.45L12.25 16.95L11.45 16.2Q11.05 15.85 10.6 15.65L10.1 15.45L8.55 15.1L8.45 15.1L8 15.1L7.5 16.2Q6.75 18 7.05 19.55L7.1 19.8L7.3 20.8L7.35 21.05Q7.55 21.8 7.9 22.25L8.05 22.45L8.65 23.3L8.6 23.4L7.2 23.9L6.2 23.6L3.85 21.95Q2.25 20.6 1.15 17.9Q0.2 18.6 -1.35 17.7L-2.6 16.6L-3.4 14.9L-3.6 14.15L-3.75 13L-3.7 12.2L-2.55 12.9L-2.6 13.4L-2.55 13.85L-2.45 14.05L-2.45 14.15L-2.3 14.7L-2 15.35L-1.75 15.7L-1.55 15.95L-1.5 16.05L-1.25 16.25Q-0.6 16.8 0.3 16.95L0.75 16.85L1.3 16.5L1.5 16.25L1.6 16L1.7 15.7L1.8 13.95L1.8 13.75L2.5 13.7L2.9 13.6L2.9 14.2L2.95 14.3L2.8 15.35L2.6 16.35L2.55 16.6L2.5 16.6L2.2 17L2.2 17.05L2.05 17.25Q2.95 19.1 4.65 20.8L5 21.1L6.25 22.05L6 21.35L6 21.3L5.9 20.9L5.85 20.75L5.75 20L5.75 18.05Q5.9 16.7 6.4 15.25L5.05 15.6L5 15.65L4.4 15.1L3.15 13.85L2.9 13.55L2.75 11.5L3.25 11.85L3.55 12.05L4.15 12.55L4.9 13.6L5 13.7L5.1 13.95L5.95 13.75L7.35 13.6L9.85 13.85L11.5 14.4L12.3 14.9L12.35 14.95L13.6 16.4L14.4 17.1L14.65 17.05L14.8 16.9L15.95 15.65L16.15 15.4L16.8 14.75Q17.7 13.9 18.8 13.45Q20.35 12.85 20.9 12.8L21.65 12.85L22.35 12.95L23.65 13.15Q23.7 12.75 23.9 12.4L24.45 11.35L25 10.75L25.8 10.15L25.75 11.2L26.15 11.3L27.35 11.35L27.55 12.6L27.9 13.45L28.05 13.6Q28.55 14.05 29.25 14L29.45 13.95L30.65 13.2L30.7 13.05L30.85 12.95L31.25 12.1L31.35 11.9L31.5 11.45L31.55 10.8L31.55 10.75L31.6 10.6L31.6 10.3L32.6 9.65L32.7 10.75L32.35 12.55Q31.75 13.8 31.15 14.45Q30.45 15.1 29.2 15.1L28.9 15.95L27.7 18.55Q25.85 21.7 24.05 22.8L24 22.8L22.85 23.4L21.45 22.9L21.15 22.55L21.65 21.45L21.7 21.4L22 20.7M25.7,5.25L24.6 3.85L23.2 2.5L21.95 1.65Q20.5 0.7 18.65 0.15L17.35 0.1L18.5 0.75L19.9 1.6L19.95 1.6L20.3 1.85L21.15 2.35L21.2 2.35L22.45 2.95L23.55 3.5L24.6 4.3L25.65 5.2L25.8 5.4L25.7 5.25M20.95,4.4L20.95 4.45L21.8 4.85L21.9 4.95L22.15 5.2Q22.9 5.95 23.45 7L23.55 7.2L23.8 7.9L23.95 8.25L23.95 8.3L23.35 10.35L22.95 11.1L22 12L21.05 10.25L20.95 10.05Q20.2 8.9 19.95 8.15L20 8.05L20.15 7.35L20.55 5.95L20.55 5.85L20.75 5.15L20.9 4.45L20.95 4.4M16.6,7.2L16.3 8.75L15.4 11.65L14.9 12.7L14.5 13.3L13.9 12.75L13.9 12.7L13.4 11.75L13 11.2L13.25 11.5L13.35 11.6L13.3 11.5L12.45 9.8L11.65 8L11.45 7.2L12.05 5.45L13 2.95L13 2.9L13.05 2.8Q13.35 1.85 13.6 2L14.2 2.65L14.7 3.4L16.3 6.2L16.65 6.9L16.6 7L16.6 7.2M22.2,10.3L22.55 9.75L22.65 9L22.65 7.85L22.5 7.4L21.95 6.45L21.8 6.15L21.7 6.35L20.85 8L20.8 8.05L21.65 9.35L22.2 10.3M27.4,14.4L27.35 14.2L27.1 14.05L27.05 13.95L26.95 13.9L26.9 13.8L26.75 13.5L26.6 13.15Q26.35 12.55 26.25 11.65L25.7 12.35L25.5 12.6L25.45 12.65L24.3 14.7L22.45 14.35L22.9 15.45L23.35 17.05L23.6 19.2L23.6 19.4L23.55 20.4L23 21.9L23.45 21.65Q25.8 20.05 26.85 17.75L27.05 17.3L27.1 17.15L27.6 15.9L27.85 14.95L27.9 14.85L27.9 14.8L27.5 14.5L27.4 14.4M14.4,11.35L15.25 8L15.4 7.3L13.75 4.35Q13.25 5.25 13.1 5.85L12.9 7.05L12.85 7.4L13.5 9.1L14.4 11.35M4.1,4Q3.65 4.45 3.15 5.35L2.55 6.6Q3.05 5.75 4.3 4.8Q5.55 3.45 7.1 2.2Q8.2 1.25 9.6 0.4L8.85 0.75L7.95 1.1L6.8 1.7L5.25 2.9L4.15 3.95L4.1 4M6.4,5.25Q6.6 5 6.75 5.05L6.75 5L7 5.55L7.05 5.65L7.1 5.7L7.55 6.3L8.05 7.3L8.3 7.9L8.4 8.1L8.45 8.2L8.55 8.4L8.6 8.5L8.35 9.45L8.35 9.5L8.15 10.5L7.95 11.15Q7.7 11.8 7.6 12.6L7.4 12.6Q7.15 12.55 6.85 12.3L6.45 11.95L6.25 11.75Q5.65 11.05 4.95 9.8L4.8 9.5L4.8 9.45L4.9 9.1L5 8.1Q5.1 7.45 5.35 6.9L5.5 6.6L5.8 6.05L6 5.7Q6.1 5.4 6.3 5.35L6.4 5.25M4.75,5.4L4.9 5.25L4.8 5.25L4.75 5.4M6,9.85L6.7 11.05L6.85 11.25Q6.95 10.25 7.4 8.75L7.1 7.9L6.65 6.55Q6.55 6.2 6.2 7.1Q5.85 7.85 5.9 8.5L5.9 8.7L5.9 8.8L6 9.85M14.65,12.5L14.65 12.55L14.7 12.7L14.7 12.6L14.7 12.55L14.65 12.5" />
<path style="fill:#EEDED3;fill-opacity:1" d="M8.3,7.9L8.05 7.3L7.55 6.3L7.1 5.7L7.05 5.65L7 5.55L6.75 5L6.75 5.05Q6.6 5 6.4 5.25L6.35 5.25L6.35 5.2L6.3 5.35Q6.1 5.4 6 5.7L5.8 6.05L5.5 6.6L5.35 6.9L5.2 7.05L5 7.25L4.6 7.5L3.05 8.7L2.75 8.95L2.3 9.4L2.25 9.3L2.15 9.05Q2.6 8.2 3.4 7.45L3.6 7.2L4.8 5.95L7.45 3.85L13.1 0.75L13.45 0.55L18.75 2.55L22.7 4.5L24.35 5.75L24.4 5.8L24.9 6.35L25.35 6.85L25.65 7.25L25.15 6.9L23.75 5.9L21.8 4.85L20.95 4.45L20.95 4.4L20.9 4.45L19.85 4Q17.7 3.1 15.6 2.8Q16.1 3.85 16.3 6.2L14.7 3.4L14.2 2.65L13.6 2Q13.35 1.85 13.05 2.8L13 2.9L13 2.95L12.55 3.05Q11.3 3.35 9.95 4Q8.95 4.5 7.9 5.15L8.3 6.05L8.5 7.05L8.45 7.9L8.3 7.9M31.6,10.3L31.6 10.6L31.55 10.75L31.4 10.45L31.6 10.3M25.8,5.4L25.65 5.2L24.6 4.3L23.55 3.5L22.45 2.95L21.2 2.35L21.15 2.35L20.3 1.85L19.95 1.6L19.9 1.6L18.5 0.75L17.35 0.1L18.65 0.15Q20.5 0.7 21.95 1.65L23.2 2.5L24.6 3.85L25.7 5.25L25.8 5.4M7.1,2.2Q5.55 3.45 4.3 4.8Q3.05 5.75 2.55 6.6L3.15 5.35Q3.65 4.45 4.1 4L4.15 3.95L4.5 3.7L5.2 3.25Q6.1 2.6 7.1 2.2" />
<path style="fill:#CBB4AC;fill-opacity:1" d="M26.1,8.1L24.95 8.7L23.95 8.25L23.8 7.9L23.55 7.2L23.45 7Q22.9 5.95 22.15 5.2L21.9 4.95L21.8 4.85L23.75 5.9L25.15 6.9L25.65 7.25L26.15 7.95L26.1 8.1M30.35,12Q29.45 11.95 28.8 11.25L31.4 10.45L31.55 10.75L31.55 10.8L31.5 11.45L31.35 11.9L30.35 12M27.9,12.85L28.05 12.9L28.6 13.1L29.5 13.25L30.7 13.05L30.65 13.2L29.45 13.95L29.25 14Q28.55 14.05 28.05 13.6L27.9 13.45L27.55 12.6L27.9 12.85M2.7,11.25L3.4 11.45L3.8 11.65L5.45 12.95L5.7 13.3Q6.3 13.05 7.05 12.95L7.4 12.9L9.65 12.8L9.85 12.8Q11.25 12.95 12.5 13.6L13.55 14.2L14.8 15.25L15.25 14.65L16.1 13.8Q16.9 13.05 17.95 12.65L18.15 12.6Q19.4 12.1 21 12.1L23.9 12.4Q23.7 12.75 23.65 13.15L22.35 12.95L21.65 12.85L20.9 12.8Q20.35 12.85 18.8 13.45Q17.7 13.9 16.8 14.75L16.15 15.4L15.95 15.65L14.8 16.9L14.65 17.05L14.4 17.1L13.6 16.4L12.35 14.95L12.3 14.9L11.5 14.4L9.85 13.85L7.35 13.6L5.95 13.75L5.1 13.95L5 13.7L4.9 13.6L4.15 12.55L3.55 12.05L3.25 11.85L2.75 11.5L2.7 11.25M5.75,20L5.85 20.75L5.9 20.9L6 21.3L6 21.35L6.25 22.05L5 21.1L4.65 20.8Q2.95 19.1 2.05 17.25L2.2 17.05L2.2 17L2.5 16.6L2.55 16.6L2.35 17.35L2.65 16.75L2.75 16.9L2.85 17L4.1 18.5L5.45 19.75L5.75 20M-1.25,15.95Q0.2 15.7 1.05 14.75L1.2 14.55L1.4 14L1.55 13.75L1.8 13.75L1.8 13.95L1.7 15.7L1.6 16L1.5 16.25L1.3 16.5L0.75 16.85L0.3 16.95Q-0.6 16.8 -1.25 16.25L-1.5 16.05L-1.55 15.95L-1.25 15.95M0.05,13.65L0 13.65Q-0.55 14.25 -1.85 14.25L-2.45 14.15L-2.45 14.05L-2.55 13.85L-2.6 13.4L-2.55 12.9L0.05 13.65M18.3,7.1L16.6 7L16.65 6.9L16.3 6.2Q16.1 3.85 15.6 2.8Q17.7 3.1 19.85 4L20.9 4.45L20.75 5.15L20.55 5.85L20.55 5.95L20.15 7.35L18.3 7.1M27.5,14.5L27.9 14.8L27.9 14.85L27.85 14.95L27.6 15.9L27.1 17.15L27.05 17.3L26.85 17.75Q25.8 20.05 23.45 21.65L23 21.9L23.55 20.4L23.6 19.4L24.2 18.9L25.05 18.1L25.5 17.6L25.9 17.1L26.7 15.8L27.2 14.85L27.4 14.4L27.5 14.5M8.45,7.9L8.5 7.05L8.3 6.05L7.9 5.15Q8.95 4.5 9.95 4Q11.3 3.35 12.55 3.05L13 2.95L12.05 5.45L11.45 7.2L8.6 7.85L8.45 7.9M3.05,10L2.65 9.9L2.55 9.8L2.35 9.65L2.3 9.4L2.75 8.95L3.05 8.7L4.6 7.5L5 7.25L5.2 7.05L5.35 6.9Q5.1 7.45 5 8.1L4.9 9.1Q3.9 9.5 3.05 10" />
<path style="fill:#A69089;fill-opacity:1" d="M27.55,12.6L27.35 11.35L28.8 11.25Q29.45 11.95 30.35 12L31.35 11.9L31.25 12.1L30.85 12.95L30.7 13.05L29.5 13.25L28.6 13.1L28.05 12.9L27.9 12.85L27.55 12.6M8.6,7.85L11.45 7.2L11.65 8L12.45 9.8L13.3 11.5L13.35 11.6L13.25 11.5L13 11.2L13.4 11.75L13.9 12.7L13.9 12.75L14.5 13.3L14.9 12.7L15.4 11.65L16.3 8.75L16.6 7.2L16.6 7L18.3 7.1L20.15 7.35L20 8.05L19.95 8.15Q20.2 8.9 20.95 10.05L21.05 10.25L22 12L22.95 11.1L23.35 10.35L23.95 8.3L23.95 8.25L24.95 8.7L26.1 8.1L25.8 10.15L25 10.75L24.45 11.35L23.9 12.4L21 12.1Q19.4 12.1 18.15 12.6L17.95 12.65Q16.9 13.05 16.1 13.8L15.25 14.65L14.8 15.25L13.55 14.2L12.5 13.6Q11.25 12.95 9.85 12.8L9.65 12.8L7.4 12.9L7.05 12.95Q6.3 13.05 5.7 13.3L5.45 12.95L3.8 11.65L3.4 11.45L2.7 11.25L2.35 9.65L2.55 9.8L2.65 9.9L3.05 10Q3.9 9.5 4.9 9.1L4.8 9.45L4.8 9.5L4.95 9.8Q5.65 11.05 6.25 11.75L6.45 11.95L6.85 12.3Q7.15 12.55 7.4 12.6L7.6 12.6Q7.7 11.8 7.95 11.15L8.15 10.5L8.35 9.5L8.35 9.45L8.6 8.5L8.55 8.4L8.45 8.2L8.4 8.1L8.45 7.9L8.6 7.85M5.45,19.75L4.1 18.5L2.85 17L2.75 16.9L2.65 16.75L2.35 17.35L2.55 16.6L2.6 16.35L2.8 15.35L2.95 14.3L2.9 14.2L2.9 13.6L2.9 13.55L3.15 13.85L4.4 15.1L5 15.65L5.05 15.6L6.4 15.25Q5.9 16.7 5.75 18.05L5.75 20L5.45 19.75M1.55,13.75L1.4 14L1.2 14.55L1.05 14.75Q0.2 15.7 -1.25 15.95L-1.55 15.95L-1.75 15.7L-2 15.35L-2.3 14.7L-2.45 14.15L-1.85 14.25Q-0.55 14.25 0 13.65L0.05 13.65L1.55 13.75M26.95,13.95L27 14.05L27.1 14.05L27.35 14.2L27.4 14.4L27.2 14.85L26.7 15.8L25.9 17.1L25.5 17.6L25.05 18.1L24.2 18.9L23.6 19.4L23.6 19.2L23.35 17.05L22.9 15.45L22.45 14.35L24.3 14.7L25.45 12.65L25.5 12.6L25.7 12.35L26.25 11.65Q26.35 12.55 26.6 13.15L26.75 13.5L26.9 13.8L26.95 13.9L26.95 13.95" />
<path style="fill:#FFE687;fill-opacity:1" d="M32.6,5.2L31.75 5.3Q31.85 4.45 31.05 4L30.95 4L33.15 3.3L32.5 5.85L32.6 5.2M-3.85,8.25L-4.5 5.7L-2.3 6.4L-2.4 6.4Q-3.2 6.85 -3.1 7.7L-3.95 7.6L-3.85 8.25" />
<path style="fill:#C6A831;fill-opacity:1" d="M31.3,7.4L31.6 6.3L31.4 6.2L31.2 6.3L30.7 6.35L30.6 6.35L30.95 5.5L30.35 5.05L29.7 4.85L29.35 4.8L29.25 4.9L29.15 4.9L29.2 4.9L29.25 4.75Q30.15 4.25 30.95 4L31.05 4Q31.85 4.45 31.75 5.3L32.6 5.2L32.5 5.85L32.2 6.75L32.05 7.2L31.3 7.4M-3.95,7.6L-3.1 7.7Q-3.2 6.85 -2.4 6.4L-2.3 6.4Q-1.5 6.65 -0.6 7.15L-0.5 7.3L-0.7 7.2L-1.05 7.25L-1.7 7.45L-2.3 7.9L-1.95 8.75L-2.05 8.75L-2.35 8.75L-2.75 8.6L-2.95 8.7L-2.65 9.8L-3.4 9.6L-3.55 9.15L-3.85 8.25L-3.95 7.6" />
<path style="fill:#956823;fill-opacity:1" d="M32.05,7.2L32 7.6L31.8 8.25L31.45 9.15L31.4 9.2L30.2 9.6L28.1 10.1L27.2 10.2L26.95 10.2Q26.9 9.7 27.4 8.05L27.5 7.75L27.65 7.25L27.75 7Q28.2 5.85 28.95 4.85L28.95 4.8L29.25 4.75L29.2 4.9L29.15 4.9L29.15 5.05L29 6.05L29 6.1L29 6.5L28.95 6.8L29.15 7.45L30.6 7.6L31.3 7.4L32.05 7.2M-2.65,9.8L-1.95 10L-0.5 9.85L-0.3 9.2L-0.3 9.15L-0.35 8.45L-0.45 7.8L-0.5 7.45L-0.5 7.3L-0.6 7.15L-0.3 7.2L0.25 8.05L1 9.65L1.25 10.45L1.7 12.6L0.45 12.5L-0.55 12.3L-2.45 11.7L-2.8 11.55L-3.15 10.65L-3.25 10.3L-3.4 9.6L-2.65 9.8" />
</g>
</svg>
