<?xml version="1.0" encoding="utf-8"?>
<svg version="1.1" id="Layer_1"
xmlns="http://www.w3.org/2000/svg"
xmlns:xlink="http://www.w3.org/1999/xlink"
xmlns:author="http://www.sothink.com"
width="32px" height="30px"
xml:space="preserve">
<g id="1222" transform="matrix(1, 0, 0, 1, 0, 0)">
<path style="fill:#792E0A;fill-opacity:1" d="M29.4,10.3L28.75 9.7L26.6 8.05L25.65 7.5L25.55 7.45L25.45 7.45L24.85 7.25L24.35 7.1L24 7L24.05 5.75L24.1 4.65L24.1 3.9L24.1 3.7L24.05 3L24.1 1.1Q24.55 0.95 26.6 2.45L28.6 4.05L30.1 5.55Q31.35 6.95 31.15 8.35L31.1 11.4L30.4 11L29.55 10.45L29.4 10.3M23,21.65Q21.3 23.1 19.45 21.65L18 20.55L17.95 18.8L18.2 12.6L18.5 12.1L19.15 11.15L21.7 13.4L23.7 11.25L23.7 11.15L24.5 13.05L24.55 18.35L24.4 20.35L23 21.65M7.2,9.05Q5.5 9.75 3.85 10.6L2.9 11.1L1.8 11.7L1.7 11.75Q1.35 11.8 0 12.5L0.05 10.8L0 9.15L0.05 8.15Q0.2 6.45 0.8 6.2Q1.15 6 4.75 4.5L6.2 3.9Q7.6 3.3 8.9 2.8Q12.25 1.45 14.95 0.6L18.75 0.7L18.8 2.6L18.8 3.2L18.85 3.2L18.85 4.6L18.8 4.65L18.75 5.6L17.15 5.75L16.35 5.95L12.4 7.05L12.05 7.15Q9.6 7.95 7.2 9.05M29.8,9.15L29.85 8.25L29.9 7.15L28.65 6L25.55 3.7L25.5 3.7L25.45 4.75L25.4 5.45L25.35 6.05Q27.25 7 28.7 8.2L29.8 9.15M20.1,14.2L19.55 13.75L19.4 15.7L19.3 18.45Q19.2 19.55 19.5 19.8L20.7 20.75Q21.75 21.5 23.2 19.6L23.2 19.05L23.25 14.95Q23.3 13.8 22.65 14.45L21.7 15.15Q21.4 15.2 20.65 14.65L20.2 14.3L20.1 14.2M1.6,10.5L3.15 9.75L3.95 9.35Q5.65 8.5 7.4 7.8L10.05 6.75Q13.3 5.5 16.8 4.5L17.2 4.4L17.2 1.5L9.1 4.35L8.25 4.65L4.4 6.1L1.95 7.2L1.95 7.5L1.85 8.55L1.6 10.5" />
<path style="fill:#191919;fill-opacity:1" d="M31.05,12.7L30.8 20.9L30.75 22.25L30.75 22.4L30.45 25.05Q30.25 25.6 27.6 27.4L24.85 28.9L22.8 29.35L22.75 28.9L22.75 28.65L20.9 29.15L17.8 28.95L17.6 29.35Q17.65 29.65 16.3 29.65L11.95 28.95L11.7 28.9Q9 28.25 5.75 26.55L5.1 26.2Q1.3 24.15 0.75 23Q0.15 21.85 0 13.35L0 12.5Q1.35 11.8 1.7 11.75L1.7 17.55Q1.75 20.85 1.95 22L3.65 23.35L5 24.2L6.7 25.2Q10.85 27.6 16.3 28.2L16.35 27.1L16.4 25.3L12.75 23.15L11 21.9Q10.25 21.25 10.1 20.2L10.05 20.05L10.05 19.55Q10.15 18.6 10.9 17.7Q11.85 16.55 12.75 16.55L14.45 16.75Q15.15 16.9 16.7 17.9L16.95 18.1L17.15 18.25L17.95 18.8L18 20.55L15.85 19.1Q14.1 18 13.25 18.1Q12.35 18.15 11.8 19.1Q11.2 20.05 12 20.8L14.9 22.7L16.65 23.6L17.65 24.4Q17.85 24.8 17.7 26.9L17.7 27.25L17.75 27.45L22.65 27.3Q22.6 26 22.8 25.15L22.85 24.95L23.15 24.05L26.9 20.5Q26.9 18 24.95 19.7L24.4 20.35L24.55 18.35L24.55 18.8Q25.4 18 26 17.85L27.05 18L27.75 18.5L27.85 18.65L28.1 19.3L28.15 19.8L27.8 21.1L24.3 24.9L24.2 25.5L24.15 25.75L24.15 25.8L24.1 27.55Q26.5 26.9 28.15 25.2L28.95 24.25L29.05 23.55L29.65 14.15L29.75 11.2L29.75 10.65L29.55 10.45L30.4 11L31.1 11.4L31.05 12.7M25.35,8.75L25.2 10.7L25.25 10.5L25.1 11.5Q24.9 12.35 24.5 12.8L24.5 13.05L23.7 11.15L24 7.8L24 7.25L24 7L24.35 7.1L24.85 7.25L25.45 7.45L25.35 8.75M18.75,5.6L18.7 7.55L18.55 10.6L19.15 11.15L18.5 12.1L18.2 12.6L18.2 12.45L17.2 11.15L17.15 7.85L17.15 5.8L17.15 5.75L18.75 5.6" />
<path style="fill:#E5AA38;fill-opacity:1" d="M25.45,4.75L25.5 3.7L25.55 3.7L28.65 6L29.9 7.15L29.85 8.25L29.8 9.15L28.7 8.2L28.7 7.5L28.7 7.1L28.5 6.9L26.75 5.5L25.45 4.75M22.4,19.5L22.5 16.7Q22.45 16 22.05 16L21.25 16.35Q20.9 16.35 20.2 14.45L20.2 14.3L20.65 14.65Q21.4 15.2 21.7 15.15L22.65 14.45Q23.3 13.8 23.25 14.95L23.2 19.05Q22.7 19.2 22.4 19.5M1.95,7.2L4.4 6.1L8.25 4.65L9.1 4.35L17.2 1.5L17.2 4.4L16.8 4.5L16.65 3.95L16.35 2.75L16.1 2.75L8 5.6L6.95 5.9L4.3 6.75L1.95 7.5L1.95 7.2" />
<path style="fill:#BF7A24;fill-opacity:1" d="M26.75,5.5L28.5 6.9L28.7 7.1L28.7 7.5L27.1 6.45L25.4 5.45L25.45 4.75L26.75 5.5M20.1,14.2L20.2 14.3L20.2 14.45Q20.9 16.35 21.25 16.35L22.05 16Q22.45 16 22.5 16.7L22.4 19.5L20.9 19.75Q20.6 19.5 20.35 18.5Q20.1 17.45 20.1 16.3L20.2 14.45L20.1 14.2M7.7,6.6L5.9 7.2L4.1 7.8L3.5 8L1.85 8.55L1.95 7.5L4.3 6.75L6.95 5.9L8 5.6L16.1 2.75L16.35 2.75L16.65 3.95Q13 4.85 7.7 6.6" />
<path style="fill:#A66221;fill-opacity:1" d="M27.1,6.45L28.7 7.5L28.7 8.2Q27.25 7 25.35 6.05L25.4 5.45L27.1 6.45M20.2,14.45L20.1 16.3Q20.1 17.45 20.35 18.5Q20.6 19.5 20.9 19.75L22.4 19.5Q22.7 19.2 23.2 19.05L23.2 19.6Q21.75 21.5 20.7 20.75L19.5 19.8Q19.2 19.55 19.3 18.45L19.4 15.7L19.55 13.75L20.1 14.2L20.2 14.45M1.85,8.55L3.5 8L4.1 7.8L5.9 7.2L7.7 6.6Q13 4.85 16.65 3.95L16.8 4.5Q13.3 5.5 10.05 6.75L7.4 7.8Q5.65 8.5 3.95 9.35L3.15 9.75L1.6 10.5L1.85 8.55" />
<path style="fill:#353535;fill-opacity:1" d="M27.55,24.5L28.25 24.05L29.05 23.55L28.95 24.25L28.15 25.2Q26.5 26.9 24.1 27.55L24.15 25.8Q25.55 25.8 27.55 24.5M24.5,13.05L24.5 12.8Q24.9 12.35 25.1 11.5L25.25 10.5L25.6 16.45L26.3 16.25Q26.95 16.25 27.4 16.8Q27.8 17.3 27.8 17.9L27.75 18.5L27.05 18L26 17.85Q25.4 18 24.55 18.8L24.55 18.35L24.5 13.05M16.35,27.1L16.3 28.2Q10.85 27.6 6.7 25.2L5 24.2L3.65 23.35L2.95 19.25Q2.35 14.65 2.9 11.1L3.85 10.6Q5.5 9.75 7.2 9.05Q7 9.8 7 11.7L7.3 17.2Q7.6 20.85 8.05 22.4Q8.5 23.9 10.4 24.95Q12.25 25.95 14.05 26.5L15.5 26.9L16.35 27.1" />
<path style="fill:#5F5F5F;fill-opacity:1" d="M24.15,25.8L24.15 25.75L24.2 25.5L26.15 23.8Q28.3 22.1 28.3 20.3L28.1 19.3L27.85 18.65L27.75 18.5L27.8 17.9Q27.8 17.3 27.4 16.8Q26.95 16.25 26.3 16.25L25.6 16.45L25.25 10.5L25.2 10.7L25.35 8.75L26.7 9.5L28.3 10.65Q28.75 11.1 28.75 11.65L28.5 19.9L28.25 24.05L27.55 24.5Q25.55 25.8 24.15 25.8M10.6,22.25Q11.3 23.5 13.45 24.55L15.35 25.65L15.5 26.9L14.05 26.5Q12.25 25.95 10.4 24.95Q8.5 23.9 8.05 22.4Q7.6 20.85 7.3 17.2L7 11.7Q7 9.8 7.2 9.05Q9.6 7.95 12.05 7.15L13.05 7.15L14.7 7.25Q15.7 7.35 15.85 7.85L15.95 11.45L16.35 12.3Q16.75 12.65 16.85 13.4L16.9 15.6L16.7 17.9Q15.15 16.9 14.45 16.75L12.75 16.55Q11.85 16.55 10.9 17.7Q10.15 18.6 10.05 19.55L10.05 20.05L10.1 20.2Q10.15 21.5 10.6 22.25M3.65,23.35L1.95 22Q1.75 20.85 1.7 17.55L1.7 11.75L1.8 11.7L2.9 11.1Q2.35 14.65 2.95 19.25L3.65 23.35" />
<path style="fill:#959595;fill-opacity:1" d="M28.25,24.05L28.5 19.9L28.75 11.65Q28.75 11.1 28.3 10.65L26.7 9.5L25.35 8.75L25.45 7.45L25.55 7.45L25.65 7.5L26.6 8.05L28.75 9.7L29.4 10.3L29.55 10.45L29.75 10.65L29.75 11.2L29.65 14.15L29.05 23.55L28.25 24.05M28.3,20.3Q28.3 22.1 26.15 23.8L24.2 25.5L24.3 24.9L27.8 21.1L28.15 19.8L28.1 19.3L28.3 20.3M16.9,15.6L16.85 13.4Q16.75 12.65 16.35 12.3L15.95 11.45L15.85 7.85Q15.7 7.35 14.7 7.25L13.05 7.15L12.05 7.15L12.4 7.05L16.35 5.95L17.15 5.75L17.15 5.8L17.15 7.85L17.2 11.15L18.2 12.45L18.2 12.6L17.95 18.8L17.15 18.25L16.95 18.1L16.7 17.9L16.9 15.6M15.5,26.9L15.35 25.65L13.45 24.55Q11.3 23.5 10.6 22.25Q10.15 21.5 10.1 20.2Q10.25 21.25 11 21.9L12.75 23.15L16.4 25.3L16.35 27.1L15.5 26.9" />
<path style="fill:#2A2A2A;fill-opacity:1" d="M24.4,20.35L24.95 19.7Q26.9 18 26.9 20.5L23.15 24.05L22.85 24.95L22.8 25.15Q22.6 26 22.65 27.3L17.75 27.45L17.7 27.25L17.7 26.9Q17.85 24.8 17.65 24.4L16.65 23.6L14.9 22.7L12 20.8Q11.2 20.05 11.8 19.1Q12.35 18.15 13.25 18.1Q14.1 18 15.85 19.1L18 20.55L19.45 21.65Q21.3 23.1 23 21.65L24.4 20.35" />
</g>
</svg>
