<?xml version="1.0" encoding="utf-8"?>
<svg version="1.1" id="Layer_1"
xmlns="http://www.w3.org/2000/svg"
xmlns:xlink="http://www.w3.org/1999/xlink"
xmlns:author="http://www.sothink.com"
width="26px" height="24px"
xml:space="preserve">
<g id="1830" transform="matrix(1, 0, 0, 1, 0, 0)">
<path style="fill:#3F270B;fill-opacity:1" d="M22.95,16.3L22.7 16.45L22.25 16.8L20.35 17.3L20.3 17.3L17.6 17.35L15.95 16.9L14.95 16.45L14.85 16.45L13.5 15.4L12.95 14.75Q12.45 14.05 12.25 13.15Q12.8 12.05 13 10.25L13 10.4L13.05 10.25L13.35 11.15L13.3 11.6Q13.35 12.55 13.9 13.55L14.95 14.8L15.9 15.5Q17.45 16.35 19.85 16.1Q20.85 15.95 21.6 15.5Q22.65 14.85 23.3 13.6Q24.4 11.35 23.9 8.4Q23.4 5.6 21.15 3.25L21.3 3.2Q20.25 1.65 18.7 0.85L18.2 0.5L18 0.4Q20.25 0.65 22.55 2.95Q25.2 5.6 25.4 9.1L25.2 11.75Q24.8 14 23.8 15.35L22.95 16.3M17.15,0.3L17.45 0.3L17.55 0.35L17.6 0.35L17.5 0.4L17.15 0.3" />
<path style="fill:#9A7226;fill-opacity:1" d="M21.15,3.25Q23.4 5.6 23.9 8.4Q24.4 11.35 23.3 13.6Q22.65 14.85 21.6 15.5Q22 14.05 21.8 12.45Q21.75 12.1 22 11.5L22.3 9.15Q22.3 5.5 19.95 2.65L21 3.15L21.15 3.25M3.85,4.3Q4.85 5.8 6.8 6.65Q10.05 8.15 10.05 9.2Q10.05 11.25 8.15 12.95Q7.1 13.9 5.85 14.35L4.45 13.9Q3.25 13.4 2.65 12.3L2.6 12.25L2.3 11.2L3.05 11.35Q3.05 6.75 3.85 4.3" />
<path style="fill:#4D3212;fill-opacity:1" d="M2.6,12.25L2.65 12.3Q3.25 13.4 4.45 13.9L5.85 14.35L7.75 14.5Q10.1 14.25 11.4 12.2L12.5 9.95Q13.6 7.45 13.35 8.65L13.05 10.25L13 10.4L13 10.25Q12.8 12.05 12.25 13.15L11.4 14.35L10.35 15.15Q8.35 16.25 4.85 15.45Q3.3 15.1 2.35 14.35L2.25 14.3L2.05 14.1L1.2 13.05Q0.45 11.9 0.4 10.2Q0.15 5.65 3.05 2.65L4.9 1.05Q5.5 1.3 5.5 1.8L5.85 1.6Q9.15 -0.2 13.65 0.05L17.1 0.3L17.15 0.3L17.5 0.4L17.65 0.45L18.7 0.85Q20.25 1.65 21.3 3.2L21.15 3.25L21 3.15L19.95 2.65Q16.9 1.3 13.5 1.5L5.15 2.75L4.05 3.95L3.95 4.05L3.8 4.2Q1.6 6.4 1.85 9.55Q1.95 11.2 2.6 12.25" />
<path style="fill:#745416;fill-opacity:1" d="M13.35,8.65Q13.6 7.45 12.5 9.95L11.4 12.2Q10.1 14.25 7.75 14.5L5.85 14.35Q7.1 13.9 8.15 12.95Q10.05 11.25 10.05 9.2Q10.05 8.15 6.8 6.65Q4.85 5.8 3.85 4.3L3.8 4.2L3.95 4.05L4.05 3.95L5.15 2.75L13.5 1.5Q16.9 1.3 19.95 2.65Q22.3 5.5 22.3 9.15L22 11.5Q21.75 12.1 21.8 12.45Q22 14.05 21.6 15.5Q20.85 15.95 19.85 16.1Q17.45 16.35 15.9 15.5L14.95 14.8L13.9 13.55Q13.35 12.55 13.3 11.6L13.35 11.15L13.05 10.25L13.35 8.65" />
<path style="fill:#231713;fill-opacity:1" d="M14.95,16.95L15.55 17.85Q16.15 18.45 18.8 18.6L20.8 18.35L21.2 18.1L22.55 17.15L22.25 16.8L22.7 16.45L22.95 16.3L23.8 15.35Q24.1 16.3 23.9 17.1Q25.15 18.25 25 19.9Q24.85 21.6 22.7 22.9Q21.05 23.9 19.15 24Q17.3 24.05 15.25 23.25Q11.65 20.65 13.8 17.5L13.7 17.3L13.5 15.4L14.85 16.45L14.95 16.45L14.95 16.95M21.15,22.15Q22.25 21.7 22.95 20.85Q24.05 19.5 23.25 18.15L22.05 18.95L21 19.5L19.15 19.7Q16.15 19.7 14.7 18.55L14.55 19.45Q14.5 20.45 14.9 20.95Q16.65 23.05 19.5 22.6L21.15 22.15" />
<path style="fill:#513727;fill-opacity:1" d="M20.3,17.3L20.35 17.3L22.25 16.8L22.55 17.15L21.2 18.1L20.8 18.35L20.8 18.2Q20.35 18.1 20.3 17.4L20.3 17.3M22.05,18.95L23.25 18.15Q24.05 19.5 22.95 20.85Q22.25 21.7 21.15 22.15L21.3 20.95Q21.3 19.95 21 19.5L22.05 18.95M8.5,18.1Q7 19 5.35 19.1L3.65 18.9L4.7 18.2L5.65 16.7Q3.8 17.1 2.05 15.7L1.55 15.3L2.05 14.1L2.25 14.3L2.35 14.35Q3.3 15.1 4.85 15.45Q8.35 16.25 10.35 15.15Q10.6 16.8 8.5 18.1" />
<path style="fill:#412B1E;fill-opacity:1" d="M20.3,17.4Q20.35 18.1 20.8 18.2L20.8 18.35L18.8 18.6Q16.15 18.45 15.55 17.85L14.95 16.95L14.95 16.45L15.95 16.9L17.6 17.35L20.3 17.3L20.3 17.4M19.5,22.6Q16.65 23.05 14.9 20.95Q14.5 20.45 14.55 19.45L14.7 18.55Q16.15 19.7 19.15 19.7L21 19.5Q21.3 19.95 21.3 20.95L21.15 22.15L19.5 22.6" />
<path style="fill:#B49148;fill-opacity:1" d="M1.85,9.55Q1.6 6.4 3.8 4.2L3.85 4.3Q3.05 6.75 3.05 11.35L2.3 11.2L2.6 12.25Q1.95 11.2 1.85 9.55" />
<path style="fill:#2E201B;fill-opacity:1" d="M3.65,18.9L5.35 19.1Q7 19 8.5 18.1Q10.6 16.8 10.35 15.15L11.4 14.35L11.7 15.4Q11.75 16.65 11.15 17.6L9.8 19.1Q8.1 20.3 5.7 20.35Q0.4 20.3 0.05 16.45Q-0.1 14.95 0.4 14L1.2 13.05L2.05 14.1L1.55 15.3Q1 17.1 2.65 18.35L3.5 18.8L3.65 18.9" />
<path style="fill:#8E6755;fill-opacity:1" d="M2.65,18.35Q1 17.1 1.55 15.3L2.05 15.7L2.05 15.95L2.8 17.95L3.5 18.8L2.65 18.35" />
<path style="fill:#644638;fill-opacity:1" d="M3.5,18.8L2.8 17.95L2.05 15.95L2.05 15.7Q3.8 17.1 5.65 16.7L4.7 18.2L3.65 18.9L3.5 18.8" />
</g>
</svg>
