<?xml version="1.0" encoding="utf-8"?>
<svg version="1.1" id="Layer_1"
xmlns="http://www.w3.org/2000/svg"
xmlns:xlink="http://www.w3.org/1999/xlink"
xmlns:author="http://www.sothink.com"
width="35px" height="22px"
xml:space="preserve">
<g id="1286" transform="matrix(1, 0, 0, 1, -50.95, -108.25)">
<path style="fill:#625643;fill-opacity:1" d="M60.8,124.6Q59.8 124.1 58.15 124Q56.35 123.95 54.95 124.65Q53.65 125.3 52.9 126.1Q52.15 126.7 53.05 127.5L53.75 127.85L55.85 128.35L56.15 128.35L54.6 128.8L54.5 128.8L53.65 129.05Q51.8 128.7 51.25 127.85Q50.65 126.7 51.3 125.95Q52.05 125.25 53.35 124.45Q54.55 123.45 55.6 123.15Q56.1 122.95 56.55 122.7L56.6 122L57.15 120.5Q57.55 119.7 57.5 118.55L57.5 118.45L57.1 117.85L56.75 117.05Q56.45 116.1 56.75 114.8Q57.15 113 59.55 111.85Q61.75 110.6 62.85 109.6Q63.95 108.3 64.3 108.25Q68.35 108.3 69.8 110.85L68.7 111.25L68.55 111.15Q67.25 110.2 66.25 109.9L64.65 109.55Q62.9 111.5 60.5 112.55Q57.6 113.75 57.9 116.5L58.1 117.15L59.8 117.45L61.25 117.4L61.35 117.8L61.6 118.95L58.9 118.7L58.85 118.7L58.9 119.25L58.8 120Q58.75 120.9 57.9 121.95Q57.75 122.35 57.95 122.6Q59.55 122.7 60.85 123.35L61.6 123.65L61.45 123.85L60.9 124.65L60.8 124.6" />
<path style="fill:#E9E7DA;fill-opacity:1" d="M68.35,111.4L67.65 111.1Q66.9 110.75 66 110.75Q65 110.75 64 111.45L61.8 112.9Q60.4 113.6 59.75 114.2Q59.05 114.85 58.85 115.9Q58.75 117 59.75 117.4L59.8 117.45L58.1 117.15L57.9 116.5Q57.6 113.75 60.5 112.55Q62.9 111.5 64.65 109.55L66.25 109.9Q67.25 110.2 68.55 111.15L68.7 111.25L68.35 111.4M59.1,119.35L59.15 120.05L58.95 121.8Q58.95 122.15 60.05 122.8L60.85 123.35Q59.55 122.7 57.95 122.6Q57.75 122.35 57.9 121.95Q58.75 120.9 58.8 120L58.9 119.25L59.1 119.35M60.55,125L59.1 124.7Q57.1 124.7 55.5 125.45Q53.7 126.25 53.7 127.2L53.75 127.85L53.05 127.5Q52.15 126.7 52.9 126.1Q53.65 125.3 54.95 124.65Q56.35 123.95 58.15 124Q59.8 124.1 60.8 124.6L60.9 124.65L60.75 124.9L60.55 125" />
<path style="fill:#CCC6B8;fill-opacity:1" d="M59.8,117.45L59.75 117.4Q58.75 117 58.85 115.9Q59.05 114.85 59.75 114.2Q60.4 113.6 61.8 112.9L64 111.45Q65 110.75 66 110.75Q66.9 110.75 67.65 111.1L68.35 111.4L66.75 112.2Q63.45 114 62.3 115.25Q61.25 116.2 61.25 117.35L61.25 117.4L59.8 117.45M60.85,123.35L60.05 122.8Q58.95 122.15 58.95 121.8L59.15 120.05L59.1 119.35Q60.7 120.1 61.75 120.25L61.8 121.8L61.6 123.65L60.85 123.35M55.85,128.35L53.75 127.85L53.7 127.2Q53.7 126.25 55.5 125.45Q57.1 124.7 59.1 124.7L60.55 125L59.55 126.15L57.6 127.65L56.15 128.35L55.85 128.35" />
<path style="fill:#4A4131;fill-opacity:1" d="M70.55,112.75L70.65 113.7L70.65 113.8Q71.5 113.1 72.25 112.65Q73 112.15 74.65 111.95Q76.05 111.7 77.15 113.2Q78 114.6 77.2 115.9L76.6 116.95Q78.65 117.4 80.95 118.75Q83.05 120 83.9 121.3Q84.65 122.45 84.35 122.6Q85.4 124.25 85.55 125.25Q85.55 126.3 85.15 126.8L84.35 127.5Q83.9 127.6 83.4 127.8L79.3 128.2Q76.55 128.15 75.3 127.15Q74.75 126.8 74.75 126.2Q74.75 125.65 75.15 125.05L75.7 124.25Q75.6 123.55 74.5 122.5Q73.25 121.4 71.4 120.85L70.95 120.9Q68.85 120.9 68.35 119.85Q67.9 118.7 68.35 117.45Q68.85 116.3 69.9 115L69.65 114.95L69.6 114.95Q68.7 114.6 67.2 116.05L64.6 117.95L65.6 121.8Q66.2 124.3 65.65 125.95Q65.05 127.65 64.5 127.7L64 127.7Q63.95 128.4 63.3 128.9Q62.45 129.5 59.9 129.6L56.3 129.5L54.6 129.25L53.65 129.05L54.5 128.8L54.6 128.8L56.15 128.35L59.65 128.35L62.2 127.85L63.3 127.1Q63.4 126.95 63.1 126.55L62.55 125.95L62.55 125.9L60.9 124.65L61.45 123.85L61.6 123.65Q63.05 124.55 64.3 126.2Q65.25 124.3 64.65 122.15L63.35 118.45L62.5 118.7L61.6 118.95L61.35 117.8L61.25 117.4L63.8 116.95Q65.05 116.35 66.05 115.4Q67.05 114.45 67.9 114Q68.5 113.7 69.6 113.75Q69.7 112.85 69.4 112.2L68.7 111.25L69.8 110.85L70.55 112.75M69.55,119.4Q70.95 120.3 73 118.8L74.5 117.6L76.15 115.85Q77.2 114.5 75.7 113.55L72.8 113.6Q71.4 114.6 70.7 115.45Q70 116.35 69.35 118Q69 118.7 69.55 119.4M74.5,118.95L73.4 119.7L72.5 120.2Q73.4 120.45 74.3 120.95Q76.05 121.9 76.7 123.65Q78.2 122.3 79.5 121.8L81.05 121.6L81.3 121.55L82.75 121.7L81.15 120.25Q79.1 118.95 77.8 118.55L75.55 117.9L75.15 118.35L74.5 118.95M84.2,125.85L84.4 125.25Q84.35 124.25 83.3 123.25Q82.75 122.55 81.85 122.55L80.65 122.7L78.45 123.55L78 123.75L77.25 124.5L76.35 125.4Q75.45 126.25 77.35 126.8Q79.2 127.4 81.85 126.8Q83.6 126.4 84.2 125.85" />
<path style="fill:#B3A38A;fill-opacity:1" d="M61.25,117.35Q61.25 116.2 62.3 115.25Q63.45 114 66.75 112.2L68.35 111.4L68.7 111.25L69.4 112.2Q69.7 112.85 69.6 113.75Q68.5 113.7 67.9 114Q67.05 114.45 66.05 115.4Q65.05 116.35 63.8 116.95L61.25 117.4L61.25 117.35M58.85,118.7L58.9 118.7L61.6 118.95L62.5 118.7L63.35 118.45L64.65 122.15Q65.25 124.3 64.3 126.2Q63.05 124.55 61.6 123.65L61.8 121.8L61.75 120.25Q60.7 120.1 59.1 119.35L58.9 119.25L58.85 118.7M60.75,124.9L60.9 124.65L62.55 125.9L62.55 125.95L63.1 126.55Q63.4 126.95 63.3 127.1L62.2 127.85L59.65 128.35L56.15 128.35L57.6 127.65L59.55 126.15L60.55 125L60.75 124.9M80.6,121.05Q79.45 120.05 78.45 119.7L76.05 118.75L75.15 118.35L75.55 117.9L77.8 118.55Q79.1 118.95 81.15 120.25L82.75 121.7L81.3 121.55L81.05 121.6L80.6 121.05M80.65,122.7L81.85 122.55Q82.75 122.55 83.3 123.25Q84.35 124.25 84.4 125.25L84.2 125.85L83.85 124.95Q83 123.35 80.1 123.35L78.45 123.55L80.65 122.7" />
<path style="fill:#7B705E;fill-opacity:1" d="M69.35,118Q70 116.35 70.7 115.45Q71.4 114.6 72.8 113.6L75.7 113.55Q77.2 114.5 76.15 115.85L74.5 117.6L73 118.8Q70.95 120.3 69.55 119.4Q69 118.7 69.35 118M81.05,121.6L79.5 121.8Q78.2 122.3 76.7 123.65Q76.05 121.9 74.3 120.95Q73.4 120.45 72.5 120.2L73.4 119.7L74.5 118.95L75.15 118.35L76.05 118.75L78.45 119.7Q79.45 120.05 80.6 121.05L81.05 121.6M81.85,126.8Q79.2 127.4 77.35 126.8Q75.45 126.25 76.35 125.4L77.25 124.5L78 123.75L78.45 123.55L80.1 123.35Q83 123.35 83.85 124.95L84.2 125.85Q83.6 126.4 81.85 126.8" />
</g>
</svg>
