<?xml version="1.0" encoding="utf-8"?>
<svg version="1.1" id="Layer_1"
xmlns="http://www.w3.org/2000/svg"
xmlns:xlink="http://www.w3.org/1999/xlink"
xmlns:author="http://www.sothink.com"
width="61px" height="12px"
xml:space="preserve">
<g id="3094" transform="matrix(1, 0, 0, 1, -7.15, 0)">
<linearGradient
id="LinearGradID_2899" gradientUnits="userSpaceOnUse" gradientTransform="matrix(0, 0.00466919, -0.00518799, 0, 11.4, 6.45)" spreadMethod ="pad" x1="-819.2" y1="0" x2="819.2" y2="0" >
<stop  offset="0" style="stop-color:#FFF980;stop-opacity:1" />
<stop  offset="1" style="stop-color:#E7950A;stop-opacity:1" />
</linearGradient>
<path style="fill:url(#LinearGradID_2899) " d="M67.7,0.7L67.7 0.75Q68 1.3 68 2.2L67.9 3.2L67.6 6.65L67.4 7.75L67.3 7.85Q67.1 8.45 66.25 8.45Q65.5 8.45 65.25 7.85L65.25 7.75L64.95 6.65L64.7 3.25L64.65 1.85Q64.65 1 65.15 0.6L65.15 0.55Q65.55 0 66.35 0Q67.4 0 67.7 0.7M64.65,10.1Q64.65 9.45 65.15 8.95Q65.6 8.5 66.3 8.5Q66.95 8.5 67.5 8.95Q68 9.45 68 10.1Q68 10.8 67.45 11.3L67.45 11.35Q66.95 11.75 66.3 11.75Q65.65 11.75 65.25 11.35L65.2 11.3Q64.65 10.8 64.65 10.1M59.65,0.4L59.75 0.45L59.8 0.55Q60.2 0.95 60.2 1.4L60.1 2.25L59.95 2.35L59.55 3.1L57.05 6.8L57.05 9.9Q57.05 10.75 56.65 11.3L56.6 11.3Q56.1 11.75 55.4 11.75Q54.75 11.75 54.25 11.3Q53.8 10.85 53.8 9.9L53.8 6.8L51.4 3.15L51.4 3.1L50.95 2.25L50.9 2.25L50.7 1.5Q50.7 0.95 51.1 0.55L51.2 0.45L51.25 0.4Q51.65 0 52.25 0Q52.95 0 53.3 0.4L54.1 1.5L55.45 3.8L56.95 1.5L56.95 1.4L57.15 1.05L57.45 0.65Q57.65 0.35 57.95 0.25Q58.25 0 58.65 0Q59.3 0 59.65 0.4M46.75,0.3Q47 0 47.55 0Q48.2 0 48.7 0.45Q49.1 0.9 49.1 1.5Q49.1 2.15 48.55 2.85L46.3 4.9L48.9 8.55L49 8.6L49.45 9.4L49.5 9.5L49.65 10.35L49.3 11.3L49.15 11.4L48.1 11.75L47 11.45L46.45 10.8L46.35 10.8L46.05 10.25L44 7.1L43.05 8L43.05 9.9Q43.05 10.85 42.55 11.3L41.4 11.75L40.65 11.55L40.55 11.5L40 11L39.95 10.8L39.85 10.4L39.8 10.2L39.8 9.45L39.8 1.85Q39.8 1.05 40.2 0.65Q40.55 0 41.4 0Q42.1 0 42.55 0.55L42.65 0.6Q43.05 1 43.05 1.85L43.05 3.95L46.05 0.75L46.75 0.3M35.8,0.6L37.45 1.95Q38.1 2.85 38.1 3.7L37.65 4.75Q37.25 5.15 36.65 5.15L35.7 4.85L35.65 4.8L35.1 4.05L35.15 4.05L34.4 3.15L33.3 2.85Q32.35 2.85 31.75 3.6L31.75 3.55Q31.1 4.45 31.1 6Q31.1 7.05 31.4 7.7L31.45 7.75Q31.65 8.3 32.2 8.65L32.15 8.65L33.25 8.9L34.45 8.6L34.4 8.6L35.15 7.6L35.15 7.65Q35.25 7.05 35.5 6.75L35.55 6.7Q35.9 6.3 36.65 6.3Q37.15 6.3 37.65 6.65L37.7 6.7Q38.1 7.05 38.1 7.75L37.9 9.1L37.8 9.1L37 10.35L36.95 10.35L35.45 11.35L33.35 11.75L31.75 11.55L30.4 11.05L29.3 10.1L28.5 8.9L28.5 8.85L28.05 7.5L27.95 7.4L27.85 5.85Q27.85 4.55 28.25 3.5Q28.6 2.45 29.4 1.6Q30.25 0.75 31.25 0.4L33.3 0Q34.75 0 35.8 0.65L35.8 0.6M26.5,1.85L26.5 6.75L26.3 8.9L26.3 8.95L25.25 10.6Q24.55 11.2 23.7 11.5L21.8 11.75L19.65 11.5L19.6 11.5Q18.55 11.15 17.95 10.5Q17.3 9.85 17.05 8.95Q16.75 7.95 16.75 6.75L16.75 1.85Q16.75 1.05 17.15 0.65Q17.5 0 18.35 0Q19.05 0 19.55 0.55L19.6 0.6Q20 1 20 1.85L20 6.9L20.2 8.15L20.6 8.7L20.55 8.7L21.6 8.9Q22.5 8.9 22.85 8.5L22.95 8.5Q23.3 7.95 23.3 6.95L23.3 1.85Q23.3 1 23.65 0.6L23.7 0.6Q24.1 0 24.9 0Q25.65 0 26.15 0.6Q26.5 1 26.5 1.85M15.1,11.2Q14.75 11.55 13.95 11.55L9 11.55Q8.05 11.55 7.6 11.1Q7.15 10.7 7.15 9.75L7.15 1.85Q7.15 1 7.6 0.6L7.6 0.55Q8.1 0 8.75 0Q9.45 0 9.95 0.55L10 0.6Q10.4 1 10.4 1.85L10.4 8.65L13.95 8.65Q14.8 8.65 15.2 9.15Q15.6 9.55 15.6 10.15Q15.6 10.75 15.15 11.15L15.1 11.2" />
<path style="fill:#FFFFFF;fill-opacity:1" d="M66.05,0.5Q67.25 0.75 67.3 1.9L67.25 1.95Q65.8 2.8 65.2 1.4Q65.3 0.75 66.05 0.55L66.05 0.5M66.45,8.75Q67.4 8.95 67.45 9.85L67.4 9.9Q66.25 10.55 65.8 9.45Q65.85 8.95 66.45 8.8L66.45 8.75M59.7,1.95Q58.25 2.8 57.65 1.4Q57.75 0.75 58.5 0.55L58.5 0.5Q59.7 0.75 59.75 1.9L59.7 1.95M51.45,1.4Q51.6 0.75 52.3 0.55L52.3 0.5Q53.5 0.75 53.55 1.9L53.5 1.95Q52.05 2.8 51.45 1.4M42.5,1.9L42.45 1.95Q41 2.8 40.4 1.4Q40.55 0.75 41.25 0.55L41.25 0.5Q42.45 0.75 42.5 1.9M46.6,1.4Q46.7 0.75 47.45 0.55L47.45 0.5Q48.65 0.75 48.7 1.9L48.65 1.95Q47.2 2.8 46.6 1.4M30.7,2.25Q30 2.8 30.3 1.85Q31.2 0.25 34.5 0.65L35.15 0.9Q35.7 1.1 36.1 1.5Q36.5 2.2 35.5 2L30.7 2.25M25.95,1.9L25.9 1.95Q24.45 2.8 23.85 1.4Q23.95 0.75 24.7 0.55L24.7 0.5Q25.9 0.75 25.95 1.9M19.55,1.9L19.5 1.95Q18.05 2.8 17.45 1.4Q17.6 0.75 18.3 0.55L18.3 0.5Q19.5 0.75 19.55 1.9M8.6,0.55L8.6 0.5Q9.8 0.75 9.85 1.9L9.8 1.95Q8.35 2.8 7.75 1.4Q7.9 0.75 8.6 0.55" />
</g>
</svg>
