<?xml version="1.0" encoding="utf-8"?>
<svg version="1.1" id="Layer_1"
xmlns="http://www.w3.org/2000/svg"
xmlns:xlink="http://www.w3.org/1999/xlink"
xmlns:author="http://www.sothink.com"
width="110px" height="105px"
xml:space="preserve">
<g id="1029" transform="matrix(1, 0, 0, 1, 15.95, 7.55)">
<path style="fill:#000000;fill-opacity:0.25098" d="M37.7,86.7Q38.25 89.55 43.6 90.7L51 90.4L52.6 89.6Q54.2 88.65 54.8 87.3L60.3 87.95Q70.55 89.55 70.55 91.75Q70.55 93.9 60.3 95.5Q50 97.05 35.65 97.05Q21.05 97.05 10.85 95.5Q0.6 93.9 0.6 91.75Q0.6 89.55 10.85 87.95L16.85 87.25Q17.6 89.15 20.5 90.75L21.5 91.15L21.6 91.25Q24.25 92.15 28.2 91.8L28.9 91.7Q34.2 91 35.65 88.55Q36.2 87.6 36.1 86.5L37.65 86.5L37.7 86.7" />
<path style="fill:#644F12;fill-opacity:1" d="M46.15,59.05L45.6 60.65Q45.3 61.65 45.3 62.55L45.3 62.6Q45.4 63.95 45.8 65.45L45.6 65.5L43.15 65.6L40.5 65.35L38 64.75L38.1 64.9L39.25 65.8L40.1 66.35L40.35 66.5L42.05 67.55L41.9 67.65L37.85 68L36.05 68.15L32.9 68.15L32.15 68.05L31.4 67.9L30.15 67.45L29.8 67.3L29.35 66.95L28.95 66.5Q28.25 65.8 27.95 65.1L27.9 65.05L28 64.65L28.2 64.2Q28.6 63.15 29.1 62.8L30.4 61.95L31.45 61.7L32.5 61.5Q32.6 61.25 32.1 60.55L32.05 60.45L32.15 60.4L33.45 59.55Q34.55 59.1 37.05 58.55L38.9 58.25Q39.8 58.1 39.9 58.25L40.25 59.45L40.45 59.75L40.85 60.45L41.15 59.8L41.2 59.5Q41.25 59.05 41.65 58.8Q42.2 58.45 44.7 58.25L46.45 58.4L46.15 59.05M31.9,80.8L30.4 80.8L25.85 80.25L24.75 79.8L24.1 79.55L23.8 79.9L23.25 80.1L23.1 80Q22.9 79.55 22.85 77.75L22.85 77.25L23.25 72.25L22 72.85L21.8 73L21.35 72.15Q20.05 69.45 20.05 68.35L27.85 68.1L28.25 68.45L29.75 69.65L30.05 69.95L31.3 70.7L31.45 70.9L30.8 71L30.65 71Q26.95 70.15 23.85 71.7L23.4 72.1L23.4 72.25L29.7 73.55Q31.05 73.75 31.95 74.25Q32.8 74.7 33.25 75.4L33.35 76.4Q33.6 79.3 33.25 80.65L31.9 80.8M44.35,71.9L47.85 70.55L48.35 70.6L48.45 70.75Q49.9 72.3 51.3 72.85L51.7 75.15L51.8 76.05Q52 78.85 51.55 80.3L50.8 81.45L50.75 81.5L50.25 81.75L48.55 82.15L48 82.05Q46.7 81.8 46 81.3L45.85 81.2Q45.4 80.85 45.15 80.15Q44.85 79.25 44.85 77.85L44.85 77.75L44.85 75.6L45 75.7L46.1 76.05L46.1 75.75L46 75.7Q44.55 74.95 44.25 72.8L44.35 71.9M72.3,63.75L72 64Q70.8 64.7 69.75 64.8L69.45 64.8L68.45 64.7Q67.05 64.35 66.1 63.15L66 63L65.15 61.35L71.8 61.8L72.2 63.05L72.3 63.75M47,61.5L46.95 61.45L47.95 58.9L47.95 58.75L48 58.85Q48.9 58.3 49.9 57.95L50.8 57.75L54.45 57.6Q55.45 57.75 56.7 58.35L58.6 59.25L59.95 60.05L60.4 61.05L60.4 61.15L60.15 61.65L59.1 62.7L57.9 63.3Q56.45 63.95 55.3 66.8L54.75 68.25L54.7 68.35Q53.8 68.6 52.9 68.35L52.15 68.05L50.95 67.3L49.2 65.65L48.65 64.9L47.85 63.7L47.2 62.25L47 61.5" />
<path style="fill:#251D06;fill-opacity:1" d="M39.85,74.7L39.85 74.65L40.55 74.05L41.15 73.65L40.95 75.05L40.7 77.05Q40.45 79.6 40.7 80.6L40.9 81.3L41 81.45Q41.55 81.95 42.75 82.15L44.85 82.3L48.1 82.2L48.55 82.15L50.25 81.75L50.75 81.5L50.8 81.45L51.55 80.3Q52 78.85 51.8 76.05L51.7 75.15L51.3 72.85L52.2 73.15L53.7 79.4Q53.2 80.9 53.35 82.45L53.1 82.75L52.65 83.2L52.5 83.3L52.35 83.5L51.4 84.15L50.1 84.45L45.85 84.9Q43 85 41 84.3L40.85 84.3L39.75 83.9L39 83.45L38.55 82.9L38.55 82.75Q38.15 81.05 38.45 79.05Q38.5 77.6 38.9 76.5Q37.2 75.95 35.45 75L34.95 73.55L34.15 72.05L34.1 72L34.75 72.2Q36.35 73.55 39.85 74.7M61.2,68.05L59.7 68.35L60.9 67.05L61.75 66.25L62.15 66.05L62.25 66L62.65 67.5L61.2 68.05" />
<path style="fill:#4F3D08;fill-opacity:1" d="M29.35,66.95L29.8 67.3L30.15 67.45L31.4 67.9L32.15 68.05L32.9 68.15L36.05 68.15L37.85 68L41.9 67.65L42.05 67.55L40.35 66.5L40.1 66.35L39.25 65.8L38.1 64.9L38 64.75L40.5 65.35L43.15 65.6L45.6 65.5L45.8 65.45L46.3 66.85L47.1 68.95L47 69Q43.5 70.25 40.7 70.6L40.65 70.6L39.9 70.7L36.3 70.5L33.1 69.5Q31.3 68.7 29.9 67.5L29.35 66.95M18.6,67.45L27.4 67.55L27.85 68.1L20.05 68.35Q20.05 69.45 21.35 72.15L21.8 73L20.7 73.55L20.25 73.95L19.5 73.3Q16.5 70.9 17.35 68.6L17.85 67.4L18.6 67.45M33.25,80.65L32.95 81.4L32.95 81.45Q32.5 82.05 31.25 82.4L27.7 82.8Q24.2 82.8 21.35 82L20.3 81.65L20.1 80.65Q20 79.4 20.7 77.25L20.8 76.9L21.4 74.75L21.9 73.2L22 72.85L23.25 72.25L22.85 77.25L22.85 77.75Q22.9 79.55 23.1 80L23.25 80.1L23.8 79.9L24.1 79.55L24.75 79.8L25.85 80.25L30.4 80.8L31.9 80.8L33.25 80.65M44.25,72.8Q44.55 74.95 46 75.7L46.1 75.75L46.1 76.05L45 75.7L44.85 75.6L44.85 77.75L44.85 77.85Q44.85 79.25 45.15 80.15Q45.4 80.85 45.85 81.2L46 81.3Q46.7 81.8 48 82.05L48.55 82.15L48.1 82.2L44.85 82.3L42.75 82.15Q41.55 81.95 41 81.45L40.9 81.3L40.7 80.6Q40.45 79.6 40.7 77.05L40.95 75.05L41.15 73.65L40.55 74.05L39.85 74.65L39.85 74.7Q36.35 73.55 34.75 72.2L35.2 72.35Q37.95 73.05 42.15 72.4L44.35 71.9L44.25 72.8M66,63L66.1 63.15Q67.05 64.35 68.45 64.7L69.45 64.8L69.75 64.8Q70.8 64.7 72 64L72.3 63.75L72.3 63.9L71.65 66.65Q70.95 68.45 69.55 69.15L69.1 69.35L66.95 69.5L66.7 69.4L65.65 68.8L64.95 67.9L64.15 66.55L63.95 65.95L63.75 64.75L63.7 64.1Q63.55 63.6 63.7 61.9L63.75 61.25L65.15 61.35L66 63M62.15,66.05L61.75 66.25L62.15 65.55L62.25 66L62.15 66.05M47.2,62.25L47.85 63.7L48.65 64.9L49.2 65.65L50.95 67.3L52.15 68.05L52.9 68.35Q53.8 68.6 54.7 68.35L54.75 68.25L55.3 66.8Q56.45 63.95 57.9 63.3L59.1 62.7L60.15 61.65L60.4 61.15L60.55 61.7Q60.85 63 60.75 64.55Q60.65 65.3 59.65 66Q58.95 66.4 58.5 66.85L57.95 67.45L57.5 68.45L56.95 70.2L56.65 70.45Q55.55 71.7 53.85 71.8L53.35 71.8L51.8 71.45L51.65 71.35L50.55 70.6L49.65 69.65L48.85 68.5L48.45 67.9Q46.7 65.25 46.9 62.6L46.9 62.4L46.95 61.8L47 61.5L47.2 62.25" />
<path style="fill:#231713;fill-opacity:1" d="M52.65,83.2L53.1 82.75L53.35 82.45L53.4 82.75Q53.65 84.9 54.95 85.75L55.1 85.9L54.8 87.3Q54.2 88.65 52.6 89.6L51 90.4L43.6 90.7Q38.25 89.55 37.7 86.7L37.65 86.5Q37.2 84.35 38.55 82.9L39 83.45L39.75 83.9Q39.15 84.55 39.15 85.2Q39.1 85.85 39.45 86.55L40.05 87.4Q41.1 88.4 43.35 89.2L48.55 89.5Q50.15 89.2 51.3 88.55L52.75 87.25L52.85 87.15Q54 85.4 52.65 83.2" />
<path style="fill:#412B1E;fill-opacity:1" d="M52.15,84.45Q51.35 86 48.4 85.75L49.6 86.05Q50.45 86.3 50.9 87L51.3 88.55Q50.15 89.2 48.55 89.5L43.35 89.2Q41.1 88.4 40.05 87.4L39.45 86.55Q39.1 85.85 39.15 85.2Q39.15 84.55 39.75 83.9L40.85 84.3L41 84.3Q43 85 45.85 84.9L50.1 84.45L51.4 84.15L52.35 83.5L52.15 84.45" />
<path style="fill:#513727;fill-opacity:1" d="M33,30.15L33.1 30.35L33.4 31.05L33.55 32.5Q33.25 32.6 32.2 33.2L31 33.8Q29 34.9 27.7 37.9Q26.65 40.3 26.5 42.45L26.45 43.75Q25.4 42.85 24.4 42.45L21.85 41.7Q20.45 40.6 19.35 38.9L19 38.35L18.9 38.05L18.3 36.85L18.9 35.3Q21.75 28 28.55 22.55Q37.55 15.55 51.35 14.7L55.8 15.05L56.6 16.4Q57.2 17.7 57.6 20.95L54.75 20.7L50.05 20.55L45.25 20.95Q43.25 21.4 41.4 22.95Q39.25 24.4 37.8 27.5L37.55 27.5L37.1 26.5Q36.8 25.8 36.8 24.8Q36.8 23.5 36.95 22.55Q30.85 24.4 27.3 27.35Q24.55 29.5 21.75 33.25L20.3 35.2L21.15 36.35L21.7 37.2L23 38.6Q23.15 37.35 23.7 36.05L23.75 35.95Q24.25 34.7 26.45 32.9L26.3 35.5L27.3 34.3L30.15 31.5Q31.1 30.65 32.4 30.15L32.85 29.95L33 30.15M43.35,37.05L41.85 38.45Q39.3 40.3 35.95 40.05Q36.75 37.95 36.85 36.2L36.85 36.05L36.7 33.95Q36.35 32.35 35.25 31.2Q36.4 32.2 37.55 33.9L37.6 33.95L38 34.7L38.55 36.05L38.8 37.35L38.7 38.5L39.95 38.5L41.55 38.1L43.35 37.05M46.35,28.1L46.35 27.1L48.9 29.1L51.75 31L51.9 31.05L51.9 29.5L52.2 29.5Q52.5 30.2 53.75 31.15L55.05 32.05L57.05 33.2L57.1 33.2L57.9 33.5L58.9 33.65L60.2 33.9Q60.9 34.9 62.05 35.5L57.6 35.6L54.9 34.95Q52 33.95 48.95 31.8L47.7 30.75L47.1 30.2L46.35 28.1M50.9,27.25Q48.95 26.5 47.95 24.4Q47.1 21.95 50.65 24.8L52.65 27.5L52.5 27.5Q52.75 27.95 50.9 27.25M52.85,87.15L52.75 87.25L51.3 88.55L50.9 87Q50.45 86.3 49.6 86.05L48.4 85.75Q51.35 86 52.15 84.45L52.35 83.5L52.5 83.3L52.65 83.2Q54 85.4 52.85 87.15M25.4,84.5L31.65 84.25L32.85 83.8L33.85 85.35L34.15 86.5Q34.1 88.05 31.8 89.1L29.4 89.9Q30.4 89.4 30.7 87.7Q30.85 87 30.4 86.55Q29.75 86 28.15 85.9Q25.15 85.7 23.3 85.1L20.5 83.95L25.4 84.5" />
<path style="fill:#312609;fill-opacity:1" d="M54.3,73.45L54 73.4L52.2 73.15L51.3 72.85Q49.9 72.3 48.45 70.75L48.35 70.6L47.85 70.55L44.35 71.9L42.15 72.4Q37.95 73.05 35.2 72.35L34.75 72.2L34.1 72L34.15 72.05L34.95 73.55L35.45 75Q35.9 76.55 35.8 77.95L35.5 79.65L35.35 80.1L34.4 82.8L34.3 82.85L34.25 82.95L32.85 83.8L31.65 84.25L25.4 84.5L20.5 83.95L19.95 83.8L19.15 83.6Q18.25 83.3 17.85 82.95L17.7 82.65L17.55 82.3Q17.35 81.55 17.55 80.55Q17.55 79.95 17.7 79.4Q18.05 77.6 19 75.85Q17.5 74.8 16.35 73.45Q14.8 71.15 14.65 70.05Q14.35 68.8 15.2 66.85L17.85 67.4L17.35 68.6Q16.5 70.9 19.5 73.3L20.25 73.95L20.7 73.55L21.8 73L22 72.85L21.9 73.2L21.4 74.75L20.8 76.9L20.7 77.25Q20 79.4 20.1 80.65L20.3 81.65L21.35 82Q24.2 82.8 27.7 82.8L31.25 82.4Q32.5 82.05 32.95 81.45L32.95 81.4L33.25 80.65Q33.6 79.3 33.35 76.4L33.25 75.4L33.5 75.95L33.5 75.85L33.25 74.85L32.2 73.15L31.8 72.55L30.8 71L31.45 70.9L31.3 70.7L30.05 69.95L29.75 69.65L28.25 68.45L27.85 68.1L27.4 67.55L26.15 65.65L25.95 65.3L25.9 65.2L25.55 64.55Q24.95 63.35 24.9 62.65L25 62.05L25.15 61.85Q25.6 60.95 26.55 60.05Q27.45 58.95 30.2 57.45L30.55 57.25L30.85 57.1L32.65 56.35Q34.9 55.6 38.1 55.25L39.4 55.15L41.55 55.05L42.75 55.05L45.15 55.35L47.7 56.1L48.1 55.6Q48.65 54.95 49.3 54.7L49.75 54.55L50.65 54.25L50.85 54.2L51 54.2L51.05 54.2L51.5 54.1L52.35 54.15L53.35 54.35L55.7 55Q57.3 55.4 58.55 56.2Q59.65 56.95 60.45 58L60.85 58.55L60.95 58.7L61.4 59.45L62.1 61.15L63.75 61.25L63.7 61.9Q63.55 63.6 63.7 64.1L63.75 64.75L63.95 65.95L64.15 66.55L64.95 67.9L65.65 68.8L66.7 69.4L66.95 69.5L69.1 69.35L69.55 69.15Q70.95 68.45 71.65 66.65L72.3 63.9L72.3 63.75L72.35 61.95L72.35 61.8L74.05 61.9L74.05 62.3Q74.15 64 73.7 65.7Q73 68.8 71.25 70.15Q69.55 71.4 67.75 71.25L67.05 71.1L65.85 70.8L65.45 70.55L64.05 69.65L63.5 69.05L63.05 68.3L62.65 67.5L62.25 66L62.15 65.55L61.75 66.25L60.9 67.05L59.7 68.35Q59.45 68.75 59.3 69.3Q59 70.6 57.25 72.1Q55.7 73.55 54.3 73.45M67.5,55.2Q68.65 55.15 69.85 55.6L66.5 55.35L67.3 55.2L67.5 55.2M29.9,67.5Q31.3 68.7 33.1 69.5L36.3 70.5L39.9 70.7L40.65 70.6L40.7 70.6Q43.5 70.25 47 69L47.1 68.95L46.3 66.85L45.8 65.45Q45.4 63.95 45.3 62.6L45.3 62.55Q45.3 61.65 45.6 60.65L46.15 59.05L46.45 58.4L46.5 58.15L46.55 58.1Q46 57.55 44.45 57.2L43.2 57.05L42.3 57L39.7 57L36.2 57.25Q34.3 57.45 32.65 58.25Q31.55 58.75 30.55 59.5Q28.9 60.65 27.5 62.45L27.15 62.85Q26.95 63.5 27.5 64.45L27.9 65.05L27.95 65.1Q28.25 65.8 28.95 66.5L29.35 66.95L29.9 67.5M47.95,58.9L46.95 61.45L47 61.5L46.95 61.8L46.9 62.4L46.9 62.6Q46.7 65.25 48.45 67.9L48.85 68.5L49.65 69.65L50.55 70.6L51.65 71.35L51.8 71.45L53.35 71.8L53.85 71.8Q55.55 71.7 56.65 70.45L56.95 70.2L57.5 68.45L57.95 67.45L58.5 66.85Q58.95 66.4 59.65 66Q60.65 65.3 60.75 64.55Q60.85 63 60.55 61.7L60.4 61.15L60.4 61.05L59.95 60.05L59.4 59.3Q58.65 58.4 57.55 57.8Q56.5 57.15 55.15 56.75Q52.4 55.65 50.8 56.15L50.45 56.2Q49.7 56.4 49.05 57.1L48.2 58.25L48.05 58.65L47.95 58.75L47.95 58.9" />
<path style="fill:#8E6755;fill-opacity:1" d="M58.2,29.35Q58.75 32.2 60.2 33.9L58.9 33.65L57.9 33.5Q56.05 31.65 55.35 30.05Q54.9 29.1 54.2 25.8L54.2 25.65L56.2 27.1Q56.05 26.5 56.05 25.25L55.2 21.8L54.75 20.7L57.6 20.95L58.2 29.35M41.55,38.1L39.95 38.5L38.7 38.5L38.8 37.35L39.9 36.25L40.4 35.65L41.6 33.85L42.5 32.35L42.8 34.5Q42.8 33.8 44.35 31.8Q46.35 29.35 46.35 28.5L46.35 28.1L47.1 30.2L46.4 32.2L46.35 32.35Q45.15 34.8 43.8 36.5L43.35 37.05L41.55 38.1M18.9,87.1Q18 85.6 19 83.85L19.15 83.6L19.95 83.8L19.85 83.95L19.55 85Q19.3 85.75 19.8 86.1Q20.25 86.4 21.45 86.9L21.6 86.95L21.4 86.95L21.3 86.9L19.4 86.55L19.85 87.95L20.1 88.4L18.9 87.1" />
<path style="fill:#644638;fill-opacity:1" d="M55.2,21.8L56.05 25.25Q56.05 26.5 56.2 27.1L54.2 25.65L54.2 25.8Q54.9 29.1 55.35 30.05Q56.05 31.65 57.9 33.5L57.1 33.2L57.05 33.2L55.05 32.05L53.75 31.15Q52.5 30.2 52.2 29.5L51.9 29.5L51.9 31.05L51.75 31L48.9 29.1L46.35 27.1L46.35 28.1L46.35 28.5Q46.35 29.35 44.35 31.8Q42.8 33.8 42.8 34.5L42.5 32.35L41.6 33.85L40.4 35.65L39.9 36.25L38.8 37.35L38.55 36.05L38 34.7L37.6 33.95L37.55 33.9Q36.4 32.2 35.25 31.2L34.1 30.2L33.85 30.05L33.4 29.8L32.4 29.5L32.85 29.95L32.4 30.15Q31.1 30.65 30.15 31.5L27.3 34.3L26.3 35.5L26.45 32.9Q24.25 34.7 23.75 35.95L23.7 36.05Q23.15 37.35 23 38.6L21.7 37.2L21.15 36.35L20.3 35.2L21.75 33.25Q24.55 29.5 27.3 27.35Q30.85 24.4 36.95 22.55Q36.8 23.5 36.8 24.8Q36.8 25.8 37.1 26.5L37.55 27.5L37.8 27.5Q39.25 24.4 41.4 22.95Q43.25 21.4 45.25 20.95L50.05 20.55L54.75 20.7L55.2 21.8M52.5,27.5L52.65 27.5L50.65 24.8Q47.1 21.95 47.95 24.4Q48.95 26.5 50.9 27.25Q52.75 27.95 52.5 27.5M20.5,83.95L23.3 85.1Q25.15 85.7 28.15 85.9Q29.75 86 30.4 86.55Q30.85 87 30.7 87.7Q30.4 89.4 29.4 89.9L25.25 90.1Q21.9 89.6 20.7 88.9L20.1 88.4L19.85 87.95L19.4 86.55L21.3 86.9L21.4 86.95L21.6 86.95L21.45 86.9Q20.25 86.4 19.8 86.1Q19.3 85.75 19.55 85L19.85 83.95L19.95 83.8L20.5 83.95" />
<path style="fill:#2E201B;fill-opacity:1" d="M28.6,46L27.9 45.15L26.45 43.75L26.5 42.45Q26.65 40.3 27.7 37.9Q29 34.9 31 33.8L32.2 33.2Q33.25 32.6 33.55 32.5L33.4 31.05L33.1 30.35L33 30.15L32.85 29.95L32.4 29.5L33.4 29.8L33.85 30.05L34.1 30.2L35.25 31.2Q36.35 32.35 36.7 33.95L36.85 36.05L36.85 36.2Q36.75 37.95 35.95 40.05Q39.3 40.3 41.85 38.45L43.35 37.05L43.8 36.5Q45.15 34.8 46.35 32.35L46.4 32.2L47.1 30.2L47.7 30.75L48.95 31.8Q52 33.95 54.9 34.95L57.6 35.6L62.05 35.5Q60.9 34.9 60.2 33.9Q58.75 32.2 58.2 29.35L57.6 20.95Q57.2 17.7 56.6 16.4L55.8 15.05Q57.35 15.35 58.6 16L58.9 16.1L59.05 16.25L59.45 17.4L60.3 21.1L60.45 24.8L60.6 27.1L60.65 27.1Q61 32.05 63.15 33.65L63.3 33.9L66 36.05Q63.15 37.65 60.4 38.1L56.8 38.2L55.15 37.9L53.8 37.5Q50.9 36.5 48.05 34.2L47.95 34.2Q47.5 36.7 45.2 38.75L42.8 40.45L40.4 41.6Q37.8 42.75 33.1 42.2Q34.1 37.9 33.85 35.2L31.85 36.75Q30.55 37.9 29.4 40.45Q28.75 41.95 28.65 43.65L28.7 46L28.6 46M16.85,87.25L16.75 86.95Q16.1 84 17.55 82.3L17.7 82.65L17.85 82.95Q18.25 83.3 19.15 83.6L19 83.85Q18 85.6 18.9 87.1L20.1 88.4L20.7 88.9Q21.9 89.6 25.25 90.1L29.4 89.9L31.8 89.1Q34.1 88.05 34.15 86.5L33.85 85.35L32.85 83.8L34.25 82.95L34.3 82.85Q35.9 84.85 36.1 86.5Q36.2 87.6 35.65 88.55Q34.2 91 28.9 91.7L28.2 91.8Q24.25 92.15 21.6 91.25L21.5 91.15L20.5 90.75Q17.6 89.15 16.85 87.25M18.3,36.85L18.9 38.05L19 38.35L19.35 38.9Q20.45 40.6 21.85 41.7L20.3 41.5Q19.15 41.35 18.1 41.5L17.6 40.9L17.55 40.8L17.35 40.55L17.6 39.35L18.3 36.85" />
<path style="fill:#94722A;fill-opacity:1" d="M27.5,64.45Q26.95 63.5 27.15 62.85L27.5 62.45Q28.9 60.65 30.55 59.5Q31.55 58.75 32.65 58.25Q34.3 57.45 36.2 57.25L39.7 57L42.3 57L43.2 57.05L44.45 57.2Q46 57.55 46.55 58.1L46.5 58.15L46.45 58.4L44.7 58.25Q42.2 58.45 41.65 58.8Q41.25 59.05 41.2 59.5L41.15 59.8L40.85 60.45L40.45 59.75L40.25 59.45L39.9 58.25Q39.8 58.1 38.9 58.25L37.05 58.55Q34.55 59.1 33.45 59.55L32.15 60.4L32.05 60.45L32.1 60.55Q32.6 61.25 32.5 61.5L31.45 61.7L30.4 61.95L29.1 62.8Q28.6 63.15 28.2 64.2L28 64.65L27.9 65.05L27.5 64.45M30.8,71L31.8 72.55L32.2 73.15L33.25 74.85L33.5 75.85L33.5 75.95L33.25 75.4Q32.8 74.7 31.95 74.25Q31.05 73.75 29.7 73.55L23.4 72.25L23.4 72.1L23.85 71.7Q26.95 70.15 30.65 71L30.8 71M72.35,61.95L72.3 63.75L72.2 63.05L71.8 61.8L72.35 61.8L72.35 61.95M58.6,59.25L56.7 58.35Q55.45 57.75 54.45 57.6L50.8 57.75L49.9 57.95Q48.9 58.3 48 58.85L47.95 58.75L48.05 58.65L48.2 58.25L49.05 57.1Q49.7 56.4 50.45 56.2L50.8 56.15Q52.4 55.65 55.15 56.75Q56.5 57.15 57.55 57.8Q58.65 58.4 59.4 59.3L59.95 60.05L58.6 59.25" />
<path style="fill:#191616;fill-opacity:1" d="M52.25,53.25L52 52L51.5 50.2L53.7 44.25L53.95 45L54.7 46.55L52.25 53.25M53.95,78.75L53.7 79.4L52.2 73.15L54 73.4L54.3 73.45L55.1 76.55Q54.35 77.75 53.95 78.75" />
<path style="fill:#66491E;fill-opacity:1" d="M51,48.8L51.5 50.2L52 52L52.25 53.25L52.35 54.15L51.5 54.1L51.05 54.2L50.85 54.15L50.6 52.6L50.15 51.05Q49.45 48.95 48.65 47.55L48.5 47.3L49.35 46.75L49.75 46.55L51 48.8M51,54.2L50.85 54.2L51 54.2" />
<path style="fill:#E9CB9E;fill-opacity:1" d="M51.9,40.6Q50.35 42.95 48 44.5L46.6 45.3L46.1 45.55L42.85 46.7L42.5 46.75Q38.55 47.75 33.25 45.75L35.4 46Q39.35 46 43.2 43.45L43.65 43.15Q45.1 42.2 46.2 41.1Q47.7 39.65 48.65 38.05Q49.8 39.35 52.5 39.75L51.9 40.6M49.6,54.2L48.45 52.15L44.5 51.15L45.1 48.7Q46.9 48.2 48.5 47.3L48.65 47.55Q49.45 48.95 50.15 51.05L50.6 52.6L50.85 54.15L50.4 54.1L50.85 54.2L50.65 54.25L49.6 54.2M14.5,53.6L14.35 53.2L14.1 52.65Q12.8 49.55 13.35 47.5Q14.9 45.8 17.25 45.5L18.9 45.15L21.5 45.3Q24.45 45.75 25.55 47.5L28.4 50.85Q30.25 53.2 30.4 54.9L30.55 56.4L30.55 57.25L30.2 57.45Q27.45 58.95 26.55 60.05Q25.6 60.95 25.15 61.85Q23.45 60.6 23.55 58.85Q23.6 57.25 24.4 55.95Q24 56.6 21.25 57Q18.45 57.3 16.65 55.65L14.5 53.6" />
<path style="fill:#9A7226;fill-opacity:1" d="M46.35,-0.4L42.4 2.75Q37.4 5.6 36.4 6.45L36.1 6.6Q37 7.1 38.25 7.25L40.25 7.3L42.65 7.45L46.05 7.3L48.2 7.05L49.1 6.9L54.5 5.85L53.5 5.45L53.5 5.3L55.5 5.3Q58.9 4.85 61.75 7.15L63.9 9.15L65.15 10.7L65.3 10.85L65 12.4L64.6 12.4L63.75 11.7Q61.3 10 59.45 9.55L53.6 9.45L53.05 9.45L49.1 9.55Q44.3 9.8 41.1 10.7Q38.8 11.15 28.55 15Q22.85 16.95 19.75 21.55Q17.9 23.8 16.2 27.1L16.15 27.2Q14.95 29.45 14.45 31.1L14.35 31.35L14.2 31.95L13.35 31.95L11.9 31.5Q11.75 30.65 11.75 29.7L11.75 29.65Q11.75 27.1 12.9 24.95L13.75 24.25L14.45 23.65L16.45 20.25L17.45 18.55L18.15 16.85L18.3 15.4L18.05 13.55L19 12.55L20.45 10.85L21.15 10L21.3 9.85L23.3 8.3Q24.6 7.3 26.45 6.6Q27.45 6 28.4 5.6L24.45 6.15L23.3 6.45L21.3 7L17.3 7.7Q15.45 7.7 14.9 6.85Q14.35 6 13.9 6Q13.45 6 11.05 7.3Q8.65 8.45 7.2 8.45L5.05 8.15Q3.65 7.55 2.8 6.15L2.65 5.15L2.65 4.45Q3.5 3.6 5.05 3Q9.05 1.3 17.45 0.75L17.05 0.45L16.9 0.15L21.3 -1.25L23.3 -1.7L24.7 -1.95L26.45 -2.25L34.1 -2.7L34.4 -2.7Q41.1 -2.7 44.5 -1.4L45.95 -0.85L46.35 -0.4M66.25,55.3L65.7 55.3L64 55.15L62.2 51.3L58.8 47.15Q56.4 43.75 56.4 40.75L56.4 40.35L56.5 39.45L56.6 39.45L56.95 39.45Q58.5 39.2 59.35 40.15Q60.35 41.15 60.5 44.6Q60.65 47.15 63.05 50.15L63.8 51.15L66.25 55.3M57.95,43.3Q58.65 44.3 59.1 44.3Q59.65 44.3 59.65 43.15Q59.65 39.9 57.65 39.9Q57.1 39.9 57.1 41.15Q57.1 42.15 57.95 43.3M38.1,55.25Q34.9 55.6 32.65 56.35L32.65 56.1L35 55.65L38.45 54.9L39.15 54.75L39.4 55.15L38.1 55.25M64.05,69.65L65.45 70.55L65.85 70.8L63.65 73.05Q60.65 75.75 60.5 79.2L60.5 79.5L60.2 78.75Q59.1 78.35 58.5 79.5L58.1 80.75Q57.65 81.9 58.65 82.6Q59.5 83.2 59.8 83.05L59.35 83.6Q58.65 84.3 57.65 84.45Q56.95 83.45 57.25 80.6Q57.4 77.6 60.65 74.8Q62.65 72.2 64.05 69.65" />
<path style="fill:#4D3212;fill-opacity:1" d="M17.85,67.4L15.2 66.85Q9.65 64.9 9.1 57.2L9.05 53.95L9.25 51.6Q9.6 48.7 10.7 46.1Q11.7 43.5 13.4 41.2Q10.45 40.15 8.85 38L8.2 37L7.95 36.55Q7.45 35.5 7.2 34.25Q6.85 32.8 6.85 31.1Q6.8 29.8 7 28.4L7.05 27.8L7.1 27.3L7.2 26.5Q7.5 24.75 8.3 23.15Q8.85 21.9 9.65 20.8Q7.95 20.25 6.6 19.2L5.8 18.55L4.2 16.85L2.35 13.85L2.2 13.55L1.8 12.55Q-0.2 8.3 -0.35 4.3L-0.35 3.3L0.1 2.45Q1.2 -0.25 5.05 -1.8Q7.9 -3.25 12.05 -3.95L21.3 -5.55L23.3 -5.95L26.45 -6.4L29.7 -6.95L34.4 -7.4Q37.95 -7.65 40.8 -7.4Q43.65 -7.25 47.35 -3.25Q49.35 -1.25 51.65 1.9L54.75 1.3Q57.35 1 59.45 1.9Q63.05 2.9 65.6 6.45L65.75 6.45Q69.7 12.15 69 17.1Q68.85 19.4 67.85 21.55Q66.75 23.5 65 24.95Q62.75 27.1 60.65 27.1L60.6 27.1L60.45 24.8L60.6 24.65Q62.05 22.35 62.05 20.55Q61.9 17.95 59.45 16.25L59.05 16.25L58.9 16.1L58.6 16Q57.35 15.35 55.8 15.05L51.35 14.7Q37.55 15.55 28.55 22.55Q21.75 28 18.9 35.3L18.3 36.85L17.6 39.35L17.35 40.55L17.55 40.8L16.75 41.8L15.9 42.1Q13.85 42.85 12.75 44.4Q12.1 45.35 11.7 46.6L11.7 46.8L11.4 48.1Q11.3 49.4 11.85 51.3Q11.55 52.4 11.5 53.55Q11.4 54.8 11.6 56.1Q12.15 59.95 15.2 63.75Q15.7 64.25 16.85 64.55L24.15 65.2L25.9 65.2L25.95 65.3L26.15 65.65L27.4 67.55L18.6 67.45L17.85 67.4M60.65,54.9L60.2 54.25L56.65 49.45L54.7 46.55L53.95 45L53.7 44.25L53.45 43.35L55.9 39.9L55.9 39.75L56.8 38.2L60.4 38.1L60.65 38.3Q62.1 39.6 62.2 41.3Q62.2 43 62.65 45.3Q63.05 47.45 65.35 49.85Q67.65 52.15 69.9 55.25L70.15 55.6L69.85 55.6Q68.65 55.15 67.5 55.2L64.8 52.15L63.8 51.15L63.05 50.15Q60.65 47.15 60.5 44.6Q60.35 41.15 59.35 40.15Q58.5 39.2 56.95 39.45L56.6 39.45L56.5 39.45Q55.4 40.05 55.55 42.6L55.65 43.4Q56.2 45.95 59.65 50.3L62.8 55.05L60.65 54.9M53.35,82.45Q53.2 80.9 53.7 79.4L53.95 78.75Q54.35 77.75 55.1 76.55L56.65 74.35L60.2 69.5L61.2 68.05L62.65 67.5L63.05 68.3Q61.8 70.7 59.65 73.5Q56.8 77.1 55.95 79.5Q55.6 80.45 55.55 81.2Q55.25 84.05 56.95 84.3L57.3 84.35L57.65 84.45Q58.65 84.3 59.35 83.6L59.8 83.05Q60.35 81.75 60.5 79.5L60.5 79.2Q60.65 75.75 63.65 73.05L65.85 70.8L67.05 71.1L67.75 71.25L65.35 73.9Q63.05 76.35 62.65 78.5Q62.2 80.75 62.2 82.45Q62.1 84.05 60.95 85.15L60.65 85.45Q59.1 86.75 57.65 86.75Q56.35 86.75 55.1 85.9L54.95 85.75Q53.65 84.9 53.4 82.75L53.35 82.45M48.8,2.9Q48.05 1.3 46.35 -0.4L45.95 -0.85L43.35 -2.8Q40.55 -4.95 34.4 -4.95L26.45 -4.1L23.45 -3.55L23.3 -3.55L21.3 -3.1L5.5 0.3Q5.2 0.3 5.05 0.45Q2.8 1.45 2.65 4.45L2.65 5.15L2.8 6.15Q3.2 9.3 4.65 12.55L4.95 13.15Q6.05 15.4 8.05 16.85Q9.35 17.85 11.2 18.25L12.6 17.25L13.2 16.85L13.45 16.55L16.9 12.55L17.3 12Q17.6 11.15 18.15 10.55L17.9 12.55L17.75 12.85L17.3 14.55L16.45 16.85L15.2 18.55L14.9 18.8Q12.35 21.4 11.05 24.1Q9.75 26.35 9.45 28.85L9.35 29.8L9.35 29.95L9.5 31.9Q9.7 33.95 10.55 35.65L10.8 36.2L10.9 36.35Q12.2 39.05 14.75 38.6L15.45 36.85L15.7 36.15L16.3 34.75L16.8 33.65L17 33.2L19 29.5Q21 25.5 25.15 21.8Q29.15 18.1 36.55 15.25Q44.1 12.4 48.8 12.25L53.15 12.35L56.75 12.7L57.45 12.85Q60.35 13.5 62.75 15.55Q65.45 17.85 64.75 21.4Q65.85 20.1 66 18.1L66.15 16.4Q66.15 13.4 65.3 10.85L65.15 10.7Q63.3 6 60.6 4.45Q60.05 4.15 59.6 4Q56.6 2.9 51.35 4.75L43.95 6.75L42.4 7L40.25 7.3L38.25 7.25Q37 7.1 36.1 6.6L36.4 6.45L48.8 2.9M44.5,51.15L41.9 50.5L42.2 49.3L43.65 49L45.1 48.7L44.5 51.15" />
<path style="fill:#B49148;fill-opacity:1" d="M5.05,0.45Q5.2 0.3 5.5 0.3L21.3 -3.1L23.3 -3.55L23.45 -3.55L26.45 -4.1L34.4 -4.95Q40.55 -4.95 43.35 -2.8L45.95 -0.85L44.5 -1.4Q41.1 -2.7 34.4 -2.7L34.1 -2.7L26.45 -2.25L24.7 -1.95L23.3 -1.7L21.3 -1.25L16.9 0.15L17.05 0.45L17.45 0.75Q9.05 1.3 5.05 3Q3.5 3.6 2.65 4.45Q2.8 1.45 5.05 0.45M9.35,29.95L9.35 29.8L9.45 28.85Q9.75 26.35 11.05 24.1Q12.35 21.4 14.9 18.8L15.2 18.55L16.45 16.85L17.3 14.55L18.05 13.55L18.3 15.4L18.15 16.85L17.45 18.55L16.45 20.25L14.45 23.65L13.75 24.25L12.9 24.95Q11.75 27.1 11.75 29.65L11.75 29.7Q11.75 30.65 11.9 31.5L10.85 31L9.35 29.95M65.15,10.7L63.9 9.15L61.75 7.15Q58.9 4.85 55.5 5.3L53.5 5.3L53.5 5.45L54.5 5.85L49.1 6.9L48.2 7.05L46.05 7.3L42.65 7.45L40.25 7.3L42.4 7L43.95 6.75L51.35 4.75Q56.6 2.9 59.6 4Q60.05 4.15 60.6 4.45Q63.3 6 65.15 10.7M67.3,55.2L66.5 55.35L66.25 55.3L63.8 51.15L64.8 52.15L67.5 55.2L67.3 55.2M57.1,41.15Q57.1 39.9 57.65 39.9Q59.65 39.9 59.65 43.15Q59.65 44.3 59.1 44.3Q58.65 44.3 57.95 43.3Q57.1 42.15 57.1 41.15M60.5,79.5Q60.35 81.75 59.8 83.05Q59.5 83.2 58.65 82.6Q57.65 81.9 58.1 80.75L58.5 79.5Q59.1 78.35 60.2 78.75L60.5 79.5" />
<path style="fill:#745416;fill-opacity:1" d="M17.3,14.55L17.75 12.85L17.9 12.55L18.15 10.55Q17.6 11.15 17.3 12L16.9 12.55L13.45 16.55L13.2 16.85L12.6 17.25L11.2 18.25Q9.35 17.85 8.05 16.85Q6.05 15.4 4.95 13.15L4.65 12.55Q3.2 9.3 2.8 6.15Q3.65 7.55 5.05 8.15L7.2 8.45Q8.65 8.45 11.05 7.3Q13.45 6 13.9 6Q14.35 6 14.9 6.85Q15.45 7.7 17.3 7.7L21.3 7L23.3 6.45L24.45 6.15L28.4 5.6Q27.45 6 26.45 6.6Q24.6 7.3 23.3 8.3L21.3 9.85L21.15 10L20.45 10.85L19 12.55L18.05 13.55L17.3 14.55M10.85,31L11.9 31.5L13.35 31.95L14.2 31.95L14.35 31.35L14.45 31.1Q14.95 29.45 16.15 27.2L16.2 27.1Q17.9 23.8 19.75 21.55Q22.85 16.95 28.55 15Q38.8 11.15 41.1 10.7Q44.3 9.8 49.1 9.55L53.05 9.45L53.6 9.45L59.45 9.55Q61.3 10 63.75 11.7L64.6 12.4L65 12.4L65.3 10.85Q66.15 13.4 66.15 16.4L66 18.1Q65.85 20.1 64.75 21.4Q65.45 17.85 62.75 15.55Q60.35 13.5 57.45 12.85L56.75 12.7L53.15 12.35L48.8 12.25Q44.1 12.4 36.55 15.25Q29.15 18.1 25.15 21.8Q21 25.5 19 29.5L17 33.2L16.8 33.65L16.3 34.75L15.7 36.15L15.45 36.85L14.75 38.6Q12.2 39.05 10.9 36.35L10.8 36.2L10.55 35.65Q9.7 33.95 9.5 31.9L9.35 29.95L10.85 31M36.4,6.45Q37.4 5.6 42.4 2.75L46.35 -0.4Q48.05 1.3 48.8 2.9L36.4 6.45M32.65,56.1Q32.45 54.15 31.7 52.2L30.1 48.25L29.55 47.3Q30.85 47.95 32.25 48.45L33.1 48.75L36.25 49.15L42.2 49.3L41.9 50.5L39 49.75Q36.5 49.4 37.35 51.75L39.15 54.75L38.45 54.9L35 55.65L32.65 56.1M62.8,55.05L59.65 50.3Q56.2 45.95 55.65 43.4L55.55 42.6Q55.4 40.05 56.5 39.45L56.4 40.35L56.4 40.75Q56.4 43.75 58.8 47.15L62.2 51.3L64 55.15L62.8 55.05M24.15,65.2L16.85 64.55Q15.7 64.25 15.2 63.75Q12.15 59.95 11.6 56.1Q11.4 54.8 11.5 53.55Q11.55 52.4 11.85 51.3L12.7 53.75Q14.15 57.1 15.6 58.9Q17.15 60.7 18.6 61.8Q20.35 63.15 22.3 63.85L25.55 64.55L25.9 65.2L24.15 65.2M16.75,41.8L17.55 40.8L17.6 40.9L18.1 41.5L16.75 41.8M60.65,74.8Q57.4 77.6 57.25 80.6Q56.95 83.45 57.65 84.45L57.3 84.35L56.95 84.3Q55.25 84.05 55.55 81.2Q55.6 80.45 55.95 79.5Q56.8 77.1 59.65 73.5Q61.8 70.7 63.05 68.3L63.5 69.05L64.05 69.65Q62.65 72.2 60.65 74.8" />
<path style="fill:#D0A15B;fill-opacity:1" d="M28.65,43.65Q28.75 41.95 29.4 40.45Q30.55 37.9 31.85 36.75L33.85 35.2Q34.1 37.9 33.1 42.2Q37.8 42.75 40.4 41.6L42.8 40.45L45.2 38.75Q47.5 36.7 47.95 34.2L48.05 34.2Q50.9 36.5 53.8 37.5L52.5 39.6L52.75 39.75L52.5 39.75Q49.8 39.35 48.65 38.05Q47.7 39.65 46.2 41.1Q45.1 42.2 43.65 43.15L43.2 43.45Q39.35 46 35.4 46L33.25 45.75L33 45.6L32.25 45.3L31.25 44.9L28.65 43.65M16.65,55.65Q18.45 57.3 21.25 57Q24 56.6 24.4 55.95Q23.6 57.25 23.55 58.85Q23.45 60.6 25.15 61.85L25 62.05L24.9 62.65L23.15 62.15Q20.9 61.4 18.15 58.75Q15.9 56.4 14.5 53.6L16.65 55.65" />
<path style="fill:#432D24;fill-opacity:1" d="M6,34.1L6.75 33.6L7.2 34.25Q7.45 35.5 7.95 36.55L6 34.1" />
<path style="fill:#2C1E18;fill-opacity:1" d="M9.25,51.6L9.05 53.95L7.7 52.8L2.95 48.4L-0.85 44.35L-2.1 42.45L-2.3 41.2L-2.15 40.25L-1.95 39.8L0.3 41.45L0.4 41.35L2.1 41.05L2.35 40.9L3.6 40.35L4.45 39.85L5.1 39.45L5.9 38.8L6.2 38.65L6.35 38.55L6.55 38.35L7.2 37.85L8.2 37L8.85 38L8.6 38.2L7.95 38.75L7.35 39.25L6.45 39.95L6.15 40.2L5.4 40.75L4.75 41.2L3.5 42.05L2.15 42.85L1.15 43.4Q2.65 45.45 5.9 48.6L8.8 51.2L9.25 51.6M6.75,33.6L6 34.1L4.6 32.35L4.7 32.3L5.55 31.8L6.75 33.6" />
<path style="fill:#765345;fill-opacity:1" d="M8.8,44.15L8.1 43.3L7.6 42.55L6.7 40.6L6.45 39.95L7.35 39.25L7.95 38.75L8.6 38.2L8.85 38Q10.45 40.15 13.4 41.2Q11.7 43.5 10.7 46.1L8.8 44.15" />
<path style="fill:#662616;fill-opacity:1" d="M-5.2,37.4L-7.7 38.15L-15.2 34.3Q-16.8 32.8 -14.95 31.65L-10.15 29.45L-10.05 26.85L-14.85 22.55Q-16 20.8 -14.05 20.15L-9.15 19.3L-7.7 14.55Q-6.65 12.5 -5.35 14.45L-2.45 19.75L-0.2 19.55L1.9 14.4L2.35 13.85L4.2 16.85L5.8 18.55L6.6 19.2L8.3 23.15Q7.5 24.75 7.2 26.5L7.1 27.3L6.75 28.05L6.1 29.45L5.7 29.45L3.9 29.4L2.2 29.35L0.3 29.3L-0.8 29.25L-2.7 27.2L-2.8 27.5L-3.15 27.55L-3.8 27.6L-1.1 30.5L-1.2 32.05L-1.4 34.8L-1.5 36.2L-1.9 36.35L-3.5 36.85L-5.2 37.4M48.45,52.15L49.6 54.2L49.75 54.55L49.3 54.7Q48.65 54.95 48.1 55.6L47.3 54.3L46.85 53.5L46.65 53.45L40 52.25L41.55 55.05L39.4 55.15L39.15 54.75L37.35 51.75Q36.5 49.4 39 49.75L41.9 50.5L44.5 51.15L48.45 52.15M5.05,27.15L6.1 24.25L6.45 23.35L3.1 16.9L1 21.8L-2.2 22.05L-2.8 22L-4.6 22.05L0.25 27.5L4.75 27.75L5.05 27.15M-7.6,23.5L-5.9 25.35L-5.15 26.15L-4.15 26.1L-4 25.8L-4.25 25.5L-6.95 22.65L-7.25 21.9Q-7.5 20.8 -6.55 20.35Q-6.25 20.15 -5.8 20.05L-5.15 20L-4.35 19.95L-6.45 16.7L-7.9 21.15L-10.7 21.65L-11.25 21.7L-12.85 21.85L-10 24.55L-10 24.3L-9.7 23.45L-7.6 23.5M-3.1,30.75L-8.1 26.05L-8.4 31.1L-11.15 32.3L-11.7 32.45L-13.25 33.05L-7.3 36.35L-3.25 35.15L-3.2 34.5L-3.15 31.65L-3.1 30.75" />
<path style="fill:#EE7557;fill-opacity:1" d="M1,21.8L3.1 16.9L6.45 23.35L6.1 24.25L3.2 19L2 22.7L-2.2 22.05L1 21.8M41.55,55.05L40 52.25L46.65 53.45L46.85 53.5L47.3 54.3L41.6 53.4L42.75 55.05L41.55 55.05M-10.7,21.65L-7.9 21.15L-6.45 16.7L-4.35 19.95L-5.15 20L-6.15 18.5L-6.55 20.35Q-7.5 20.8 -7.25 21.9L-10.7 21.65M-3.15,31.65L-7.35 27.95L-7.25 31.55L-11.15 32.3L-8.4 31.1L-8.1 26.05L-3.1 30.75L-3.15 31.65" />
<path style="fill:#BB482E;fill-opacity:1" d="M5.05,27.15L1 26.3L-1.5 23.8L-2.8 22L-2.2 22.05L2 22.7L3.2 19L6.1 24.25L5.05 27.15M47.7,56.1L45.15 55.35L42.75 55.05L41.6 53.4L47.3 54.3L48.1 55.6L47.7 56.1M-5.9,25.35L-7.6 23.5L-9.7 23.45L-11.25 21.7L-10.7 21.65L-7.25 21.9L-6.95 22.65L-4.25 25.5L-5.9 25.35M-5.15,20L-5.8 20.05Q-6.25 20.15 -6.55 20.35L-6.15 18.5L-5.15 20M-11.15,32.3L-7.25 31.55L-7.35 27.95L-3.15 31.65L-3.2 34.5L-7 35L-7.45 34.85L-8.3 34.55Q-10 33.75 -11.7 32.45L-11.15 32.3" />
<path style="fill:#B4997D;fill-opacity:1" d="M5.7,29.45L6.1 29.45L6.75 28.05L7 28.4Q6.8 29.8 6.85 31.1L5.7 29.45M78.15,59.1L78.2 59.2L60.45 58Q59.65 56.95 58.55 56.2L60.85 56.3L61.1 56.5Q61.85 57 63.6 57.35L65.5 57.65L65.75 57.7L67 57.85L67.9 57.9L70.6 58.05L72.9 58.1L74.9 57.95L76.7 57.5L78.8 57.65L78.15 59.1M-3.15,27.55L-2.8 27.5L-2.7 27.2L-0.8 29.25L0.3 29.3L0.95 30.05Q1 31.25 2.8 33.7L4.15 35.5L4.6 36.05L6.55 38.35L6.35 38.55L5 37.55L-3.15 27.55M-1.9,36.35L-1.5 36.2L-1.4 34.8L2.95 37.85Q3.25 38.65 4.45 39.85L3.6 40.35L-1.9 36.35" />
<path style="fill:#35281A;fill-opacity:1" d="M55.7,55L53.35 54.35L58.45 54.75L60.65 54.9L62.8 55.05L64 55.15L65.7 55.3L66.25 55.3L66.5 55.35L69.85 55.6L70.15 55.6L72.55 55.8L79.45 56.2L78.8 57.65L76.7 57.5L68.8 56.9L67.4 56.8L60.85 56.3L58.55 56.2Q57.3 55.4 55.7 55M65.15,61.35L63.75 61.25L62.1 61.15L61.4 59.45L78.75 60.7L79.2 62.25L74.05 61.9L72.35 61.8L71.8 61.8L65.15 61.35M-3.5,36.85L2.1 41.05L0.4 41.35L0.3 41.45L-1.95 39.8L-5.2 37.4L-3.5 36.85M7.1,27.3L7.05 27.8L7 28.4L6.75 28.05L7.1 27.3M4.6,32.35L6 34.1L7.95 36.55L8.2 37L7.2 37.85L0.95 30.05L0.3 29.3L2.2 29.35L4.6 32.35M51,54.2L50.85 54.2L50.4 54.1L50.85 54.15L51.05 54.2L51 54.2M-1.2,32.05L0.55 34.2L5 37.55L6.35 38.55L6.2 38.65L5.9 38.8L5.1 39.45L2.95 37.85L-1.4 34.8L-1.2 32.05M50.65,54.25L49.75 54.55L49.6 54.2L50.65 54.25" />
<path style="fill:#8C331D;fill-opacity:1" d="M4.75,27.75L0.25 27.5L-4.6 22.05L-2.8 22L-1.5 23.8L1 26.3L5.05 27.15L4.75 27.75M-9.7,23.45L-10 24.3L-10 24.55L-12.85 21.85L-11.25 21.7L-9.7 23.45M-4.25,25.5L-4 25.8L-4.15 26.1L-5.15 26.15L-5.9 25.35L-4.25 25.5M-3.25,35.15L-7.3 36.35L-13.25 33.05L-11.7 32.45Q-10 33.75 -8.3 34.55L-7.45 34.85L-7 35L-3.2 34.5L-3.25 35.15" />
<path style="fill:#66523D;fill-opacity:1" d="M6.75,33.6L5.55 31.8L3.9 29.4L5.7 29.45L6.85 31.1Q6.85 32.8 7.2 34.25L6.75 33.6M61.4,59.45L60.95 58.7L60.85 58.55L60.45 58L78.2 59.2L78.45 59.75L78.75 60.7L61.4 59.45M-3.5,36.85L-1.9 36.35L3.6 40.35L2.35 40.9L2.1 41.05L-3.5 36.85M5,37.55L0.55 34.2L-1.2 32.05L-1.1 30.5L-3.8 27.6L-3.15 27.55L5 37.55" />
<path style="fill:#D7BDA1;fill-opacity:1" d="M6.55,38.35L4.6 36.05L4.15 35.5L2.8 33.7Q1 31.25 0.95 30.05L7.2 37.85L6.55 38.35M5.1,39.45L4.45 39.85Q3.25 38.65 2.95 37.85L5.1 39.45M67.4,56.8L68.8 56.9L76.7 57.5L74.9 57.95L72.9 58.1L70.6 58.05L67.9 57.9L67 57.85L65.75 57.7L65.5 57.65L63.6 57.35Q61.85 57 61.1 56.5L60.85 56.3L67.4 56.8" />
<path style="fill:#323F46;fill-opacity:1" d="M78.75,60.7L78.45 59.75L78.2 59.2L78.15 59.1L80.65 59.15L81.1 61.3L81.35 62.25L81.4 62.4L81.6 63.25L83.65 62.55L83.85 62.45L83.9 62.45L85.75 61.7L85.95 61.6L87.6 60.95L88.7 60.5L89.55 60.05L89.95 59.75L90.05 59.75L91.3 59.8L91.35 59.8L93.8 60.1L80.3 65.9L79.2 62.25L78.75 60.7" />
<path style="fill:#FFFFFF;fill-opacity:1" d="M89,59.7L86.1 59.5L86.75 58.15L87.05 57.55L89.4 58.85L89 59.7M82.5,59.25L84.05 55.9L84.8 56.35L84.65 56.75L84.1 58L83.85 58.65L83.55 59.35L82.5 59.25" />
<path style="fill:#4B5D69;fill-opacity:1" d="M78.8,57.65L79.45 56.2L81.35 51.85L93.8 60.1L91.35 59.8L91.3 59.8L90.05 59.75L90.25 59.6L89.4 58.85L87.05 57.55L86.9 57.55L86.05 57L85.7 56.85Q85.25 56.55 84.8 56.35L84.05 55.9L82.15 54.9L81.55 56.3L81.55 56.35L81.5 56.5L80.95 57.8L80.8 58.15L80.65 58.7L80.5 59.1L80.65 59.15L78.15 59.1L78.8 57.65" />
<path style="fill:#CED7DB;fill-opacity:1" d="M89.4,58.85L90.25 59.6L90.05 59.75L89.95 59.75L89 59.7L89.4 58.85M86.75,58.15L86.1 59.5L84.6 59.4L84.55 59.4L83.55 59.35L83.85 58.65L84.1 58L84.65 56.75L84.8 56.35Q85.25 56.55 85.7 56.85L86.05 57L86.9 57.55L87.05 57.55L86.75 58.15M80.65,59.15L80.5 59.1L80.65 58.7L80.8 58.15L80.95 57.8L81.5 56.5L81.55 56.35L81.55 56.3L82.15 54.9L84.05 55.9L82.5 59.25L80.65 59.15" />
<path style="fill:#556670;fill-opacity:1" d="M89,59.7L89.95 59.75L89.55 60.05L88.7 60.5L87.6 60.95L85.95 61.6L85.75 61.7L83.9 62.45L83.85 62.45L83.65 62.55L81.6 63.25L81.4 62.4L81.35 62.25L81.1 61.3L80.65 59.15L82.5 59.25L83.55 59.35L84.55 59.4L84.6 59.4L86.1 59.5L89 59.7" />
<path style="fill:#563D32;fill-opacity:1" d="M8.8,51.2L5.9 48.6Q2.65 45.45 1.15 43.4L2.15 42.85L3.5 42.05L4.75 41.2L5.4 40.75L6.15 40.2L6.45 39.95L6.7 40.6L7.6 42.55L8.1 43.3L8.8 44.15L10.7 46.1Q9.6 48.7 9.25 51.6L8.8 51.2" />
<path style="fill:#382003;fill-opacity:1" d="M60.45,24.8L60.3 21.1L59.45 17.4L59.05 16.25L59.45 16.25Q61.9 17.95 62.05 20.55Q62.05 22.35 60.6 24.65L60.45 24.8" />
<path style="fill:#9C753C;fill-opacity:1" d="M29.55,47.3L28.6 46L28.7 46L28.65 43.65L31.25 44.9L32.25 45.3L33 45.6L33.25 45.75Q38.55 47.75 42.5 46.75L42.85 46.7L46.1 45.55L46.6 45.3L48 44.5Q50.35 42.95 51.9 40.6L52.5 39.75L52.75 39.75L52.5 39.6L53.8 37.5L55.15 37.9L56.8 38.2L55.9 39.75L55.9 39.9L53.45 43.35L52.2 44.6Q51.05 45.75 49.75 46.55L49.35 46.75L48.5 47.3Q46.9 48.2 45.1 48.7L43.65 49L42.2 49.3L36.25 49.15L33.1 48.75L32.25 48.45Q30.85 47.95 29.55 47.3" />
<path style="fill:#876430;fill-opacity:1" d="M18.1,41.5Q19.15 41.35 20.3 41.5L21.85 41.7L24.4 42.45Q25.4 42.85 26.45 43.75L27.9 45.15L28.6 46L29.55 47.3L30.1 48.25L31.7 52.2Q32.45 54.15 32.65 56.1L32.65 56.35L30.85 57.1L30.8 56.35L30.75 56.1Q30.55 53.9 29.3 51.3Q28.1 48.65 26.9 46.9L25.9 45.8Q25.05 44.9 24.05 44.3Q22.4 43.4 20.05 43.35L20 43.35Q17.75 43.3 16.1 44.1Q15 44.65 14.3 45.7L13.5 47.1L13.5 47.2L13.35 47.5Q12.8 49.55 14.1 52.65L14.35 53.2L14.5 53.6Q15.9 56.4 18.15 58.75Q20.9 61.4 23.15 62.15L24.9 62.65Q24.95 63.35 25.55 64.55L22.3 63.85Q20.35 63.15 18.6 61.8Q17.15 60.7 15.6 58.9Q14.15 57.1 12.7 53.75L11.85 51.3Q11.3 49.4 11.4 48.1L11.7 46.8L11.7 46.6Q12.1 45.35 12.75 44.4Q13.85 42.85 15.9 42.1L16.75 41.8L18.1 41.5" />
<path style="fill:#FAE4C3;fill-opacity:1" d="M30.55,57.25L30.55 56.4L30.4 54.9Q30.25 53.2 28.4 50.85L25.55 47.5Q24.45 45.75 21.5 45.3L18.9 45.15L17.25 45.5Q14.9 45.8 13.35 47.5L13.5 47.2L13.5 47.1L14.3 45.7Q15 44.65 16.1 44.1Q17.75 43.3 20 43.35L20.05 43.35Q22.4 43.4 24.05 44.3Q25.05 44.9 25.9 45.8L26.9 46.9Q28.1 48.65 29.3 51.3Q30.55 53.9 30.75 56.1L30.8 56.35L30.85 57.1L30.55 57.25" />
</g>
</svg>
