<?xml version="1.0" encoding="utf-8"?>
<svg version="1.1" id="Layer_1"
xmlns="http://www.w3.org/2000/svg"
xmlns:xlink="http://www.w3.org/1999/xlink"
xmlns:author="http://www.sothink.com"
width="15px" height="17px"
xml:space="preserve">
<g id="285" transform="matrix(1, 0, 0, 1, -7.8, -8.1)">
<path style="fill:#2C1E18;fill-opacity:1" d="M19.85,15.05L18.45 13.05L18.2 12.6L15.95 10.1L13.5 12.65L12.4 13.6L9.65 15.45L12.2 18.15L13.75 19.5L16.35 21.6L19.4 23.95Q20.2 24.65 19.85 24.55Q19.45 24.45 19.35 24.95Q19.2 25.4 16.8 23.35L13.2 20.35L10.65 18.1L8.6 16Q7.8 15.15 7.8 14.35Q7.75 13.95 8.1 13.3L9.25 13.85L9.2 14.3L9.2 14.4L10.25 14.15L12.1 13L12.25 12.9L14.6 10.65L14.8 10.45Q15.25 9.75 14.95 9.5L14.4 9.35L13.8 8.3L15.9 8.4Q16.9 9.05 18.25 10.8L20.9 14.05Q22.2 15.6 21.7 15.6L21.2 15.7Q21.15 16 20.8 15.9L20.65 15.85L19.85 15.05M11.45,9.55L11.8 10.3L12 10.55L11.8 10.65L11.1 9.8L11.45 9.55" />
<path style="fill:#765345;fill-opacity:1" d="M16.6,18.15Q14.45 16.85 13.3 15.35L12.4 13.6L13.5 12.65L15.95 10.1L18.2 12.6L18.45 13.05L19.85 15.05L20.65 15.85L20.05 19.9L16.6 18.15" />
<path style="fill:#563D32;fill-opacity:1" d="M20.05,19.9L19.4 23.95L16.35 21.6L13.75 19.5L12.2 18.15L9.65 15.45L12.4 13.6L13.3 15.35Q14.45 16.85 16.6 18.15L20.05 19.9" />
</g>
</svg>
