<?xml version="1.0" encoding="utf-8"?>
<svg version="1.1" id="Layer_1"
xmlns="http://www.w3.org/2000/svg"
xmlns:xlink="http://www.w3.org/1999/xlink"
xmlns:author="http://www.sothink.com"
width="34px" height="27px"
xml:space="preserve">
<g id="1117" transform="matrix(1, 0, 0, 1, -27.9, 9.6)">
<path style="fill:#FFFFFF;fill-opacity:1" d="M39.15,-9.3Q38.2 -8.55 37.2 -8.65L36.75 -6.05L36.4 -6.25L36.35 -8.65L36.65 -9.05L36.75 -9.1L36.85 -9.1L37.3 -9.25L37.35 -9.35L37.35 -9.3L39.1 -9.6L39.15 -9.3M34.55,-3.35Q34.5 -4.15 35.1 -4.5L35.15 -4.45L35.45 -4Q35.15 -3.25 34.55 -3.3L34.55 -3.35M61,2.95L57.45 3.3L55.85 5.15L55.95 4.65Q56.1 4.05 57.3 2.55L59.4 2.7Q60.3 2.65 60.45 2.1Q60.6 1.55 59.7 0.85Q58.55 0.35 58.85 0Q59.95 0.05 60.75 1.05Q61.65 2.05 61 2.95M56.95,2.6L57.05 2.65L56.95 2.65L56.95 2.6M28.3,16.15L28.1 16.05L27.9 15.8L28.25 15.7L28.9 16.1L29.7 16.6L30.55 16.75L32.3 16.65Q32.75 17.05 32.25 17.25L29.95 17.35Q28.8 16.85 28.3 16.15" />
</g>
</svg>
