<?xml version="1.0" encoding="utf-8"?>
<svg version="1.1" id="Layer_1"
xmlns="http://www.w3.org/2000/svg"
xmlns:xlink="http://www.w3.org/1999/xlink"
xmlns:author="http://www.sothink.com"
width="66px" height="12px"
xml:space="preserve">
<g id="1138" transform="matrix(1, 0, 0, 1, 0, -0.25)">
<path style="fill:#FFE4B1;fill-opacity:1" d="M65.2,0.5L65.55 0.5L65.8 0.55L64.35 4.35L62.6 8.05L61 11.8L60.8 11.8L60.65 11.8L59.9 11.8L59.1 11.85L58.9 11.8L58.75 11.8L58.7 11.8L59.65 9.05L60.8 6.2L60.8 6.15L60.2 4.25L59.35 2.4L58.8 0.55L59.45 0.5L60.15 0.45L60.55 0.5L60.9 0.6L61.25 1.75L61.75 3.1L62.2 4.15L62.65 3.1L63.05 1.75L63.5 0.6L64.3 0.55L65.2 0.5M57.65,3.55L57.65 6.65L57.6 11.8L56.9 11.8L56.1 11.8L55.45 11.8L55.4 9.75L55.35 7.5L55.2 5.5L54.95 6.05L54.7 6.85L54.4 7.55L54.2 7.85L53.9 7.5L53.55 6.7L53.3 5.9L53.15 5.6L53.1 8.7L53.2 11.75L52.1 11.8L51 11.8L50.95 11.75L50.9 11.35L50.9 10.25L50.85 8.3L50.9 5.2L50.9 0.65L51.95 0.55L53.1 0.55L53.5 1.3L53.85 2.25L54.2 3.05L54.3 3.1L54.45 2.8L54.7 2L54.95 1.2L55.25 0.55L55.85 0.55L56.8 0.5L57.65 0.5L57.65 3.55M48.35,3L46.95 3L45.5 3.05L45.4 3.05L45.4 4L45.45 4.95L45.45 5L46.45 5L47.45 5.05L47.5 6.15L47.5 7.3L46.75 7.4L46 7.4L45.5 7.45L45.45 8.55L45.5 9.5L45.55 9.5L47.65 9.55L49.8 9.6L49.85 10.75L49.7 11.75L46.3 11.8L43.05 11.7L42.95 6.15L43.05 0.6L44.7 0.55L46.5 0.5L48.1 0.45L49.3 0.45L49.75 0.5L49.8 1.65L49.75 2.85L48.35 3M41.85,5.6L41.85 7L41.85 8.4L41.85 9.3L41.85 10.2L41.85 10.85L41.85 11.45L41.85 11.8L41.7 11.85L41.35 11.9L40.55 11.85L39.8 11.8L38.75 9.45L37.85 7.35L37.65 6.85L37.55 6.5L37.5 6.35L37.45 6.75L37.4 7.7L37.4 9.05L37.4 10.45L37.4 11.2L37.4 11.8L37.05 11.85L36.65 11.9L35.85 11.85L35.1 11.8L35.1 10.65L35.1 7.7L35.05 4.8L35.1 2.55L35.2 0.45L35.55 0.35L35.9 0.35L36.4 0.4L37 0.45L37.3 0.5L37.55 1.15L37.8 1.6L38.1 2.35L38.4 2.9L38.85 3.8L39.3 4.7L39.45 5.1L39.55 4.75L39.6 4.15L39.55 2.95L39.55 1.8L39.55 1.15L39.55 0.35L40.8 0.25L41.85 0.35L41.85 5.6M34,0.5L34.05 1.65L34 2.85L32.6 3L31.2 3L29.75 3.05L29.7 3.05L29.7 4L29.7 4.95L29.7 5L30.7 5L31.7 5.05L31.75 6.15L31.75 7.3L31 7.4L30.25 7.4L29.75 7.45L29.7 8.55L29.75 9.5L29.8 9.5L31.9 9.55L34.05 9.6L34.1 10.75L33.95 11.75L30.55 11.8L27.3 11.7L27.2 6.15L27.3 0.6L28.95 0.55L30.75 0.5L32.35 0.45L33.6 0.45L34 0.5M21.7,6L21.15 11.5L20.9 11.55L20.6 11.55L19.85 11.55L19.6 11L19.4 10.25L19.15 9.45L18.9 8.85L18.65 9.35L18.45 10.1L18.25 10.9L18.05 11.5L17.65 11.55L17.25 11.55L16.95 11.55L16.65 11.5L16.6 11.5L15.85 6Q15.5 3.25 15.45 0.5L15.45 0.45L15.95 0.4L16.5 0.4L17.15 0.4L17.75 0.45L17.8 2L17.8 3.8L17.85 5.55L18.05 7.1L18.45 5.7L18.8 4.25L18.8 4.2L19 4.65L19.25 5.55L19.5 6.6L19.7 7.3L19.8 5.75L19.85 3.9L19.9 2.1L20 0.5L20.55 0.4L21.15 0.4L21.7 0.4L22.2 0.45L21.7 6M14.5,2.75L13.1 2.95L11.7 2.95L10.3 2.95L10.25 2.95L10.25 3L10.2 3.95L10.25 4.85L11.25 4.9L12.25 4.9L12.25 4.95L12.3 6L12.25 7.15L11.55 7.25L10.8 7.25L10.35 7.35Q10.25 7.8 10.3 8.35L10.35 9.35L12.45 9.4L14.55 9.45L14.55 10.5L14.4 11.55L11.1 11.6L7.85 11.5L7.8 6.05Q7.75 3.3 7.85 0.6L9.5 0.5L11.3 0.45L12.9 0.45L14.05 0.45L14.5 0.5L14.55 1.6L14.5 2.75M6.65,0.35L6.65 5.5L6.7 6.85L6.7 8.25L6.7 9.1L6.65 10L6.7 10.65L6.7 11.3L6.7 11.6L6.55 11.65L6.15 11.7L5.4 11.65L4.7 11.6L3.65 9.3L2.75 7.15L2.6 6.7L2.45 6.35L2.4 6.2L2.35 6.6L2.3 7.55L2.25 8.9L2.25 10.25L2.25 11L2.3 11.6L1.95 11.65L1.6 11.7L0.8 11.65L0.05 11.6L0.05 10.45L0 7.55L0 4.7L0 2.5L0.15 0.4L0.5 0.35L0.85 0.35L1.3 0.35L1.9 0.4L2.2 0.5L2.45 1.1L2.7 1.6L3 2.3L3.25 2.85L3.75 3.75L4.15 4.6L4.35 4.95L4.45 4.65L4.5 4.1L4.45 2.9L4.45 1.75L4.45 1.1L4.45 0.35L5.6 0.25L6.65 0.35" />
</g>
</svg>
