<?xml version="1.0" encoding="utf-8"?>
<svg version="1.1" id="Layer_1"
xmlns="http://www.w3.org/2000/svg"
xmlns:xlink="http://www.w3.org/1999/xlink"
xmlns:author="http://www.sothink.com"
width="12px" height="27px"
xml:space="preserve">
<g id="418" transform="matrix(1, 0, 0, 1, 1.5, 1.1)">
<path style="fill:#ACA49F;fill-opacity:1" d="M6.75,15.55Q4.7 15.55 3.65 15L2.6 14.2L2.6 14.55L1.95 14.3L1.95 5.85Q1.95 4.4 2.65 3.4Q3.4 2.5 4.45 2.5Q5.5 2.5 6.2 3.4Q6.95 4.4 6.95 5.85L6.95 15.55L6.75 15.55M5.65,4.45L5.05 3.95Q4.55 3.6 4.4 3.6Q4.05 3.6 3.55 4.15L3.05 4.75L3.2 4.6Q3.05 4.85 3.05 5.85L3.15 7.7L3.4 9.65L3.55 9.65L3.8 7.65L4.3 5.75L5 6.2L5.65 6.5L5.9 5.65L5.6 4.45L5.65 4.45" />
<path style="fill:#E0D8D4;fill-opacity:1" d="M5.6,4.45L5.9 5.65L5.65 6.5L5 6.2L4.3 5.75L3.8 7.65L3.55 9.65L3.4 9.65L3.15 7.7L3.05 5.85Q3.05 4.85 3.2 4.6L3.05 4.75L3.55 4.15Q4.05 3.6 4.4 3.6Q4.55 3.6 5.05 3.95L5.65 4.45L5.6 4.45" />
<path style="fill:#766D67;fill-opacity:1" d="M1.95,14.3L2.6 14.55L2.6 14.2L3.65 15Q4.7 15.55 6.75 15.55L6.95 15.55L6.95 18.35Q6.95 19.8 6.2 20.75Q5.5 21.8 4.45 21.8Q3.4 21.8 2.65 20.75Q1.95 19.8 1.95 18.35L1.95 14.3" />
<path style="fill:#3A3634;fill-opacity:1" d="M1.95,18.35Q1.95 19.8 2.65 20.75Q3.4 21.8 4.45 21.8Q5.5 21.8 6.2 20.75Q6.95 19.8 6.95 18.35L6.95 15.55L6.95 5.85Q6.95 4.4 6.2 3.4Q5.5 2.5 4.45 2.5Q3.4 2.5 2.65 3.4Q1.95 4.4 1.95 5.85L1.95 14.3L1.95 18.35M10.45,3.5L10.45 20.75Q10.4 22.6 8.65 23.85Q6.95 25.3 4.45 25.3Q2 25.3 0.15 23.85Q-1.45 22.6 -1.5 20.75L-1.5 3.5Q-1.45 1.55 0.15 0.2Q2 -1.1 4.45 -1.1Q6.95 -1.1 8.65 0.2Q10.4 1.55 10.45 3.5" />
</g>
</svg>
