<?xml version="1.0" encoding="utf-8"?>
<svg version="1.1" id="Layer_1"
xmlns="http://www.w3.org/2000/svg"
xmlns:xlink="http://www.w3.org/1999/xlink"
xmlns:author="http://www.sothink.com"
width="28px" height="29px"
xml:space="preserve">
<g id="2708" transform="matrix(1, 0, 0, 1, -27.25, 7.35)">
<path style="fill:#FFFFFF;fill-opacity:1" d="M29.2,-4.4Q28.15 -4.05 28.1 -3.45Q28.05 -2.9 28.9 -2.55L30.95 -1.95L31.5 0.4L31.45 0.95Q30.7 -0.2 30.55 -1.35Q27.6 -2.2 27.3 -2.85Q27 -3.95 28.15 -4.55Q29.3 -5.2 30.35 -4.9Q30.5 -4.45 29.2 -4.4M31.15,-1.8L31.25 -1.8L31.25 -1.75L31.15 -1.8M52.15,-7.35L53.7 -6.45L53.7 -6.5L53.75 -6.4L54.1 -6.15L54.2 -6.1L54.25 -6.05L54.4 -5.55L53.55 -3.3L53.2 -3.25L53.6 -5.85Q52.65 -6.1 52 -7.1Q51.85 -7.3 52.15 -7.35M54.2,-1.2Q54.7 -0.7 54.35 0.05L54.3 0.1Q53.75 -0.05 53.75 -0.85Q53.85 -1.15 54.15 -1.15L54.2 -1.2M49.8,19.65L51.4 20.3L52.25 20.45L53.2 20.25L53.95 20.1Q54.3 20.1 54.2 20.3L53.95 20.5L53.75 20.55Q53.05 21 51.75 21.05L49.65 20.2Q49.2 19.85 49.8 19.65" />
</g>
</svg>
