<?xml version="1.0" encoding="utf-8"?>
<svg version="1.1" id="Layer_1"
xmlns="http://www.w3.org/2000/svg"
xmlns:xlink="http://www.w3.org/1999/xlink"
xmlns:author="http://www.sothink.com"
width="32px" height="112px"
xml:space="preserve">
<g id="1686" transform="matrix(1, 0, 0, 1, 7, 21.75)">
<path style="fill:#FFFFFF;fill-opacity:1" d="M10.25,-19.25L11.35 -15.95L11.15 -15.95Q10.8 -15.95 10.45 -16.45L9.55 -16.45L10.5 -9.05L11.7 2L9.8 -6.85L8.15 -14.45L8.15 -14.15L7.4 -13.3Q7.1 -12.7 6.7 -12.65L6.7 -12.9Q6.65 -13.55 6.95 -14.25L7.25 -15.45L6.15 -14.95L5.35 -14.45L4.9 -14.45L5.55 -15.55L6.15 -16.7L4.9 -16.7L4.9 -17.2L6.45 -19.35L6.8 -19.1Q7.35 -18.75 7.7 -18.75Q8.1 -18.75 9 -20.05L10.1 -21.75L12.4 -18.2L12.25 -18.45L11.15 -19.25L10.25 -19.25M14,-15.45L15.2 -15.3Q15.55 -15.05 15.8 -13.65L15.6 -13.65L13.95 -14.1Q13.5 -14.35 13.5 -15.3L14 -15.45M0.45,-14.15L1.8 -15.3L2.65 -16Q1.3 -13.05 1 -12.9Q1 -13.55 0.45 -14.15M3.65,-9.35L4.4 -9.95L4.75 -8.5L4.4 -6.8Q3.95 -5.4 3.85 -4.55L3.85 -4.8Q4.3 -6.35 3.65 -9.35M19.05,-11.85L20.75 -8.75L22.4 -5.05L22.2 -5.05L19.65 -8.15L19.55 -8.85L19.05 -11.85M14.75,-8.1L14.75 -6.85Q13.6 -6.95 13.5 -7.8L13.45 -9.3L14.2 -9.35L14.75 -8.1M19,-1.3L19.9 1.1L20.8 3.5L20.65 3.4L20.6 3.25L19.35 2L18.15 1.05L17.4 -1.3L19 -1.3M11.5,4.3Q12.05 4.3 12.4 4.8L13.7 4.8L14.55 9.85L14.35 9.85L13.05 6.8Q12 4.7 11.35 4.3L11.5 4.3M17.1,9.7L17.2 9.8L18.3 10.85Q18 11.15 17.15 13.3Q16.5 14.8 16.3 15.8L16.85 11.55L17.1 9.7M10.1,8.85L10.65 11.05L11 13.55L10.8 13.45L10.65 13.4L10.1 17.2L9.9 16.9L9.75 11.55L9.8 11.3L9.8 11.15L10.1 8.85M2.6,5.15L3.5 5.3L2.6 8.6L2.6 5.15M2.05,19.45L1.55 21.3L1.2 23.15L1.35 18.65L1.45 18.7L2.05 19.45M6.35,21.75L5.7 24.85L5.05 28.6L4.9 28.8L4.1 30.6L3.5 32.6L3.5 32.35Q2.95 27.15 2.95 26.05L5.45 23.05L6.35 21.75M14.2,33.35Q14.2 33.95 14.75 36.65L13.3 36.5Q13.05 36.75 12.95 38.3Q12.65 43.3 11.3 48.1L11.85 34.9L11.85 33.95L11 33.85L11 34.9L10.25 33.6L12.25 31.35L12.4 31.6L12.6 33.5Q12.8 35 13.1 35.65Q13.9 33.5 14.2 33.1L14.2 33.35M21.2,51.55L21.15 54.6L21.3 54.6Q22.9 47.8 22.95 46.55Q22.95 47.95 23.65 52.5Q24.25 56.35 24.85 57.9L22.4 54.85Q21.95 54.85 20.5 58.15Q18.45 62.7 16.15 65.95L16.15 65.7Q17.2 60.75 18.8 56.5Q19.9 53.45 19.9 51.7L19.65 51L19.35 50.8Q20.35 49.55 20.5 49.55Q21.25 49.55 21.2 51.55M15.8,50.05Q14.95 50.8 14.35 51.8L13.75 50.5L13.45 50.05L15.8 50.05M4.9,73L3.8 71.6Q3.15 70.65 3.15 70.15L3.2 69.75L3.5 69.75Q4.4 69.3 4.75 68.5L4.75 68.75Q4.75 71.9 4.9 73M12.05,79.65L10.65 83.5Q9.55 86.85 9 89.8L9.2 83.95L11.15 78.5L10.25 76.8L10.4 75.75L10.65 73.05L11.65 76.8Q12.05 78.1 12.05 79.65M6.15,76.6L6.15 79.35L5.25 77.65L4.9 77.05L6.15 76.6M-1.45,-7.45L-0.45 -8.75L-1.65 -4.8L-1.65 -6.45L-1.45 -7.45M-6.85,5.05L-5.6 1.65L-4.6 -0.75L-5.05 2.9Q-5.4 4.3 -7 5.3L-6.85 5.05M-1.65,24L-1.85 23.75L-2.1 19.6L-2.4 16.9L-2.2 16.15L-2.2 16.4L-1.85 19.45Q-1.25 19.4 -0.6 18.2L-1.65 24" />
</g>
</svg>
