<?xml version="1.0" encoding="utf-8"?>
<svg version="1.1" id="Layer_1"
xmlns="http://www.w3.org/2000/svg"
xmlns:xlink="http://www.w3.org/1999/xlink"
xmlns:author="http://www.sothink.com"
width="185px" height="77px"
xml:space="preserve">
<g id="723" transform="matrix(1, 0, 0, 1, -0.4, 5.15)">
<path style="fill:#0A3580;fill-opacity:1" d="M17.6,-5.15L167.5 -5.15Q173.5 -5.15 177.45 -3.1Q184.75 0.75 184.75 11.7L184.75 55.75Q184.4 71.85 167.5 71.85L17.6 71.85Q0.8 71.85 0.4 55.75L0.4 55.05L0.4 11.7Q0.4 0.75 7.7 -3.1Q11.6 -5.15 17.6 -5.15M17.6,-2.7Q2.95 -2.7 2.95 11.7L2.95 55.05L2.95 55.75Q3.35 69.35 17.6 69.35L167.7 69.35Q181.8 69.25 182.25 55.75L182.25 11.7Q182.25 -2.7 167.5 -2.7L17.6 -2.7" />
<linearGradient
id="LinearGradID_869" gradientUnits="userSpaceOnUse" gradientTransform="matrix(0.00605774, 0.0463715, -0.109985, 0.014328, 93, 29.8)" spreadMethod ="pad" x1="-819.2" y1="0" x2="819.2" y2="0" >
<stop  offset="0.00392157" style="stop-color:#7EECF0;stop-opacity:1" />
<stop  offset="0.423529" style="stop-color:#26AEDB;stop-opacity:1" />
<stop  offset="1" style="stop-color:#11539C;stop-opacity:1" />
</linearGradient>
<path style="fill:url(#LinearGradID_869) " d="M167.5,-2.7Q182.25 -2.7 182.25 11.7L182.25 55.75Q181.8 69.25 167.7 69.35L17.6 69.35Q3.35 69.35 2.95 55.75L2.95 55.05L2.95 11.7Q2.95 -2.7 17.6 -2.7L167.5 -2.7M177.55,15.3Q177.2 4.6 168.05 2.25L167.25 2L23 2Q8.15 2 7.75 15.3L7.75 16L7.75 51.3Q7.75 52.75 8 54.05L8.35 55.75Q10.6 64.75 23 64.75L167.5 64.45Q172.75 64.15 175.05 61.25Q177.4 58.25 177.55 56.25L177.55 51.3L177.55 16L177.55 15.3" />
<linearGradient
id="LinearGradID_870" gradientUnits="userSpaceOnUse" gradientTransform="matrix(0, 0.0393677, -0.103638, 0, 93.7, 34.85)" spreadMethod ="pad" x1="-819.2" y1="0" x2="819.2" y2="0" >
<stop  offset="0" style="stop-color:#48C2EB;stop-opacity:1" />
<stop  offset="1" style="stop-color:#005F94;stop-opacity:1" />
</linearGradient>
<path style="fill:url(#LinearGradID_870) " d="M177.55,16L177.55 51.3L177.55 56.25Q177.4 58.25 175.05 61.25Q172.75 64.15 167.5 64.45L23 64.75Q10.6 64.75 8.35 55.75L8 54.05Q7.75 52.75 7.75 51.3L7.75 16L7.75 15.3Q8.15 2 23 2L167.25 2L168.05 2.25Q177.2 4.6 177.55 15.3L177.55 16" />
</g>
</svg>
