<?xml version="1.0" encoding="utf-8"?>
<svg version="1.1" id="Layer_1"
xmlns="http://www.w3.org/2000/svg"
xmlns:xlink="http://www.w3.org/1999/xlink"
xmlns:author="http://www.sothink.com"
width="14px" height="16px"
xml:space="preserve">
<g id="1218" transform="matrix(1, 0, 0, 1, 0, 0)">
<path style="fill:#040404;fill-opacity:1" d="M2.4,6.75L4.45 5.25L6.35 4.2L7.75 3.95L9.4 4.05Q10.1 4.1 11.25 4.7Q12.4 5.25 12.9 6.95Q13.4 8.65 12.85 10.4Q12.25 12.15 10.5 13.7Q8.75 15.25 6.1 15.3Q3.4 15.3 2.05 14.05Q0.7 12.8 0.65 11.5Q0.55 10.2 1 8.95Q1.4 7.7 1.7 7.45L2.4 6.75M1.95,10.35Q1.4 12.4 3.7 13.6L8.35 13.5L8.55 13.35Q11.15 11.9 11.8 9.3L11.95 8.3Q11.1 9.45 8.35 10.9L8.3 10.95L7.8 11.2Q5.15 12.25 1.95 10.35M2.15,9.3Q4.55 10.85 6.6 10.45Q7.6 10.3 8.75 9.65Q10.25 8.75 11.7 7.35Q11.45 5.75 9.65 5.3L6.3 5.55Q4.7 6.25 3.8 7.15Q2.9 8 2.25 9.1L2.15 9.3" />
<path style="fill:#5F5F5F;fill-opacity:1" d="M8,12.7L7.8 11.45L7.8 11.2L8.3 10.95L8.35 10.9Q11.1 9.45 11.95 8.3L11.8 9.3Q11.15 11.9 8.55 13.35L8.35 13.5L8 12.7M8.8,8.8Q8.8 7.95 8.2 7.65L6.55 7.4Q4.5 7.4 2.25 9.1Q2.9 8 3.8 7.15Q4.7 6.25 6.3 5.55L9.65 5.3Q11.45 5.75 11.7 7.35Q10.25 8.75 8.75 9.65L8.8 8.8" />
<path style="fill:#5F2204;fill-opacity:1" d="M2.4,6.75L1.7 7.45Q1.4 7.2 0.45 5.15Q-0.55 3.1 0.6 1.25Q1.45 -0.15 2.75 0L3.65 0.2Q5.6 0.95 6.45 2.05L7.75 3.95L6.35 4.2Q6.5 3.8 5.65 2.85Q4.8 1.9 3.45 1.45Q2.75 1.2 2.2 1.45Q1.7 1.65 1.35 2.3Q0.55 3.6 2.4 6.75" />
<path style="fill:#BF7A24;fill-opacity:1" d="M2.2,1.45Q2.75 1.2 3.45 1.45Q4.8 1.9 5.65 2.85Q6.5 3.8 6.35 4.2L4.45 5.25Q3.5 4.6 2.8 3.45Q2.2 2.6 2.2 1.45" />
<path style="fill:#A66221;fill-opacity:1" d="M2.8,3.45Q3.5 4.6 4.45 5.25L2.4 6.75Q0.55 3.6 1.35 2.3Q1.7 1.65 2.2 1.45Q2.2 2.6 2.8 3.45" />
<path style="fill:#353535;fill-opacity:1" d="M8.35,13.5L3.7 13.6Q1.4 12.4 1.95 10.35Q5.15 12.25 7.8 11.2L7.8 11.45L8 12.7L8.35 13.5M8.75,9.65Q7.6 10.3 6.6 10.45Q4.55 10.85 2.15 9.3L2.25 9.1Q4.5 7.4 6.55 7.4L8.2 7.65Q8.8 7.95 8.8 8.8L8.75 9.65" />
</g>
</svg>
