<?xml version="1.0" encoding="utf-8"?>
<svg version="1.1" id="Layer_1"
xmlns="http://www.w3.org/2000/svg"
xmlns:xlink="http://www.w3.org/1999/xlink"
xmlns:author="http://www.sothink.com"
width="313px" height="146px"
xml:space="preserve">
<g id="92" transform="matrix(1, 0, 0, 1, 4.95, 3.8)">
<path style="fill:#000000;fill-opacity:0.00784314" d="M307.25,-3.8L307.25 141.75L-4.95 141.75L-4.95 -3.8L307.25 -3.8" />
<path style="fill:#FFFFFF;fill-opacity:1" d="M300,45.4L300 65.05L289.3 65.05L289.3 87.65L290.4 87.65L300 86.15L300 107.8L295.85 108.4L291.1 108.9L286.45 109.1L279.15 108.6Q275.1 107.8 272.1 105.9Q268.75 104.15 266.6 100.3Q264.8 96.7 264.8 92.1Q261.05 100.65 254.75 104.8Q246.85 109.9 236.6 109.9Q229.3 109.9 223.35 107.4Q217.25 104.95 213 100.5L211 98L211 108.4L186.4 108.4L186.4 73.45Q186.4 68.1 185.05 66.3Q185.05 65.35 182.1 65.35Q178.8 65.35 177.3 66.8Q175.65 69 175.65 75.6L175.65 108.4L128.45 108.4L128.45 99.8Q119.65 116.35 103.8 126.25Q87.3 136.3 68.15 136.3Q39.9 136.3 19.95 116.35Q0 96.35 0 68.1Q0 39.9 19.95 19.95Q39.9 -0.05 68.15 -0.05Q96.25 -0.05 116.2 19.95Q136.15 39.9 136.15 68.1Q136.15 75.7 134.7 82.65L151.05 82.65L151.05 45.4L174.95 45.4L174.95 46.7L175.35 46.5Q180.6 43.85 186.55 43.85Q193.5 43.85 198.1 45.85Q202.7 47.65 206.05 51.8Q208.55 54.95 209.35 58.4Q211.1 55.75 213.3 53.4Q217.25 49.15 223.55 46.35Q229.3 43.85 236.6 43.85Q244.85 43.85 250.6 47Q253.1 48.35 255.9 50.45L255.9 45.4L264.65 45.4L264.65 29.3L289.3 29.3L289.3 45.4L300 45.4M243.85,85.3L229.8 85.3L230.95 87.15Q233.1 88.95 237.05 88.95Q239.75 88.95 241.9 87.65L243.85 85.65L243.85 85.3" />
<path style="fill:#41389E;fill-opacity:1" d="M131.2,68.1Q131.2 94.2 112.75 112.85Q94.25 131.35 68.15 131.35Q41.9 131.35 23.4 112.85Q4.9 94.2 4.9 68.1Q4.9 42.05 23.4 23.35Q41.9 4.9 68.15 4.9Q94.25 4.9 112.75 23.35Q131.2 42.05 131.2 68.1" />
<path style="fill:#FFFFFF;fill-opacity:1" d="M45.35,50.3L45.35 103.45L30.65 103.45L30.65 50.3L45.35 50.3M30.65,42.05L30.65 30L45.35 30L45.35 42.05L30.65 42.05" />
<path style="fill:#FFFFFF;fill-opacity:1" d="M103.5,103.45L89.6 103.45L89.6 96.7L89.45 96.7Q86.95 100.95 82.7 102.95Q78.55 104.95 73.25 104.95Q67.15 104.95 62.7 102.45Q58.4 100.3 55.25 96.2Q52.3 92.2 50.8 87.1Q49.3 82 49.3 76.35Q49.3 70.9 50.8 65.95Q52.3 60.85 55.25 57.2Q58.4 53.25 62.7 51.1Q66.8 48.8 72.95 48.8Q77.55 48.8 82 50.8Q86.3 52.75 88.8 56.7L88.95 56.7L88.95 30L103.5 30L103.5 103.45M70.8,61.2Q68.45 62.65 66.8 65Q65.5 67.3 64.7 70.45Q64 73.05 64 76.7Q64 80.15 64.7 82.95Q65.35 85.8 67 88.4Q68.8 91.05 71.1 92.4Q73.45 93.85 76.9 93.85Q80.7 93.85 82.85 92.4Q85.5 90.75 86.8 88.6Q88.3 86.1 88.8 82.95Q89.45 80.35 89.45 76.7Q89.45 73.05 88.8 70.45Q88.3 67.45 86.65 65Q85.15 62.65 82.85 61.2Q80.7 59.85 76.9 59.85Q72.95 59.85 70.8 61.2" />
<path style="fill:#1C1415;fill-opacity:1" d="M149.55,87.6L149.55 103.45L133.35 103.45L133.35 87.6L149.55 87.6" />
<path style="fill:#1C1415;fill-opacity:1" d="M177.45,50.95Q181.75 48.8 186.55 48.8Q192.5 48.8 196.1 50.3Q200.1 52.1 202.05 54.75Q204.2 57.55 205.2 61.7Q206.05 66.15 206.05 70.75L206.05 103.45L191.35 103.45L191.35 73.4Q191.35 66.8 189.35 63.5Q187.2 60.35 182.1 60.35Q176.15 60.35 173.35 63.8Q170.7 67.15 170.7 75.55L170.7 103.45L156 103.45L156 50.3L170.05 50.3L170.05 57.55L170.35 57.55Q173 53.1 177.45 50.95" />
<path style="fill:#1C1415;fill-opacity:1" d="M236.6,48.8Q243.5 48.8 248.3 51.45Q252.75 53.6 256.7 58.4Q259.85 62.65 261.35 68.6Q262.85 74.05 262.35 80.35L224.05 80.35Q224.2 87.25 227.5 90.55Q231.15 93.85 237.05 93.85Q241.55 93.85 244.65 91.75Q247.8 89.6 248.65 86.95L261.5 86.95Q258.2 96.5 251.95 100.65Q245.35 104.95 236.6 104.95Q229.95 104.95 225.2 102.8Q220.05 100.8 216.6 97Q213.15 93.4 211.15 88.25Q209.35 82.8 209.35 76.85Q209.35 70.75 211.3 65.8Q213.3 60.7 216.75 56.9Q220.55 53.1 225.5 50.95Q230.3 48.8 236.6 48.8M224.7,67.6Q224.05 69.45 224.05 71.1L247.8 71.1Q246.5 65.45 244 62.65Q241.7 59.85 236.1 59.85Q232.45 59.85 230.3 61Q228 62 226.5 63.8Q225 66.15 224.7 67.6" />
<path style="fill:#1C1415;fill-opacity:1" d="M269.6,34.25L284.3 34.25L284.3 50.3L295.05 50.3L295.05 60.05L284.3 60.05L284.3 86.3Q284.3 90.05 285.45 91.25Q286.8 92.55 290.4 92.55L295.05 92.05L295.05 103.6L286.45 104.1L280 103.6Q277.2 103.1 274.7 101.8Q272.55 100.5 270.9 97.85Q269.6 95.2 269.6 91.4L269.6 60.05L260.85 60.05L260.85 50.3L269.6 50.3L269.6 34.25" />
</g>
</svg>
