<?xml version="1.0" encoding="utf-8"?>
<svg version="1.1" id="Layer_1"
xmlns="http://www.w3.org/2000/svg"
xmlns:xlink="http://www.w3.org/1999/xlink"
xmlns:author="http://www.sothink.com"
width="30px" height="29px"
xml:space="preserve">
<g id="1815" transform="matrix(1, 0, 0, 1, -17.25, -18)">
<path style="fill:#4D3212;fill-opacity:1" d="M35.4,23L33.7 23.6L32.3 25.25Q30.5 27.1 28.25 30.15L25.05 34.4L20.5 40.15L21.3 40.95L21.5 41.1L21.6 41.15L22.45 42L22.75 42.35L23.2 42.75L23.6 43.4L23.75 43.4L30.95 37.6L38 31.9L40 30.4L42.5 23.05L42.95 21.4L43 21.25L42.65 21.3Q39.15 21.7 35.4 23M41.4,31.5L24.2 44.4L24.5 45.05L24.55 45.55L24.15 46.25L23.4 46.45Q22.6 46.4 21.4 45.65L19.7 44.3Q17.8 42.6 17.35 40.95L17.25 40.55Q17.2 39.8 17.85 39.3L19.1 39.2L19.75 39.5L24 33.75Q32.2 22.55 32.8 22.05L46.4 18L41.4 31.5M22.45,43.5L21 41.85Q19.4 40.2 18.8 40.1Q18.2 39.95 18.15 40.6L18.15 40.8L18.15 40.85Q18.2 41.6 19.45 42.8L21.55 44.7L22.95 45.45Q23.45 45.45 23.4 45.1L22.95 44.15L22.85 44L22.45 43.5" />
<path style="fill:#745416;fill-opacity:1" d="M25.45,39.65Q23.55 38.2 26.5 37.3L25.8 38.1L25.7 38.5L26.2 39.1L38.65 29.35L41.7 23.3L42.65 21.3L43 21.25L42.95 21.4L42.5 23.05L40 30.4L38 31.9L30.95 37.6L23.75 43.4L23.6 43.4L23.2 42.75L22.75 42.35L22.45 42L25.45 39.65M19.8,42.4Q21.75 44.2 22.65 44.25L22.95 44.15L23.4 45.1Q23.45 45.45 22.95 45.45L21.55 44.7L19.45 42.8Q18.2 41.6 18.15 40.85L18.15 40.8L18.15 40.6L18.35 40.85L19.8 42.4M35.05,28.05Q32.1 31.8 30.05 33.65Q27.95 35.45 29 33.6Q30.05 31.75 34.85 27.85L35.05 28.05" />
<path style="fill:#B49148;fill-opacity:1" d="M21.5,41.1L21.3 40.95L20.5 40.15L25.05 34.4L28.25 30.15Q30.5 27.1 32.3 25.25L33.7 23.6L35.4 23Q39.15 21.7 42.65 21.3L41.7 23.3L34.05 25.5L21.5 41.1M18.8,40.1Q19.4 40.2 21 41.85L22.45 43.5Q21.35 42.55 20.35 41.95L18.9 41.1L18.35 40.85L18.15 40.6Q18.2 39.95 18.8 40.1" />
<path style="fill:#9A7226;fill-opacity:1" d="M34.05,25.5L41.7 23.3L38.65 29.35L26.2 39.1L25.7 38.5L25.8 38.1L26.5 37.3Q23.55 38.2 25.45 39.65L22.45 42L21.6 41.15L21.5 41.1L34.05 25.5M22.85,44L22.95 44.15L22.65 44.25Q21.75 44.2 19.8 42.4L18.35 40.85L18.9 41.1L20.35 41.95Q21.35 42.55 22.45 43.5L22.85 44M34.85,27.85Q30.05 31.75 29 33.6Q27.95 35.45 30.05 33.65Q32.1 31.8 35.05 28.05L34.85 27.85" />
</g>
</svg>
