<?xml version="1.0" encoding="utf-8"?>
<svg version="1.1" id="Layer_1"
xmlns="http://www.w3.org/2000/svg"
xmlns:xlink="http://www.w3.org/1999/xlink"
xmlns:author="http://www.sothink.com"
width="57px" height="28px"
xml:space="preserve">
<g id="220" transform="matrix(1, 0, 0, 1, 0, 0)">
<path style="fill:#FF840E;fill-opacity:1" d="M38.9,24.45L39.25 24.3L41.9 23.15Q55.85 16.5 49.95 8.75L50.1 8.7Q49.85 6.95 47.1 5.75L43.9 4.7Q46.85 4.9 50 6.45Q51.6 7.2 52.55 7.95Q52.3 5.4 48.25 1.95L45.65 0Q48.8 1 51.35 2.6Q58.25 6.9 56.4 13Q54.55 19.05 45.1 23.35L39.65 25.35Q35.4 26.7 30.85 27.25Q35.25 25.95 38.9 24.45" />
<path style="fill:#FFDD9C;fill-opacity:1" d="M41.9,23.15Q46.2 18.15 41.6 16.2Q39.45 15.35 35.8 15.2L36.4 14.55Q36.65 13.6 33.25 13.05L30.25 12.75L32.05 11.8L34 10.35Q37.5 11.45 44.05 10.3L48.2 9.3L49.95 8.75Q55.85 16.5 41.9 23.15" />
<path style="fill:#F8F8F8;fill-opacity:0.74902" d="M8.2,22.95Q15.75 28.25 27.5 25.6L23.05 25.15L19.85 24.4L19.8 24.4Q16.6 23.5 14.55 21.25Q12.7 19.3 13.25 18.8Q22.5 22.55 30.4 18.95Q33.8 17.35 35.8 15.2Q39.45 15.35 41.6 16.2Q46.2 18.15 41.9 23.15L39.25 24.3L38.9 24.45Q35.25 25.95 30.85 27.25L24.05 27.6Q12.4 27.6 5.45 23.35Q-1.45 19.05 0.4 13L0.95 11.45Q0.9 16.5 4.65 19.7Q6.15 21.6 8.2 22.95" />
<path style="fill:#FF840E;fill-opacity:0.74902" d="M4.65,19.7Q6.75 21.5 10 22.65Q13.05 23.8 16.6 24.2L19.85 24.4L23.05 25.15L27.5 25.6Q15.75 28.25 8.2 22.95Q6.15 21.6 4.65 19.7" />
</g>
</svg>
