<?xml version="1.0" encoding="utf-8"?>
<svg version="1.1" id="Layer_1"
xmlns="http://www.w3.org/2000/svg"
xmlns:xlink="http://www.w3.org/1999/xlink"
xmlns:author="http://www.sothink.com"
width="22px" height="11px"
xml:space="preserve">
<g id="473" transform="matrix(1, 0, 0, 1, 0, 0.1)">
<path style="fill:#CB8B73;fill-opacity:1" d="M18.1,3.25Q17.55 3.95 17.55 4.5L17.65 4.95L17.6 5.25Q17.25 4.25 17.25 3.65Q17.25 3.1 17.85 2.5L18.4 2.1L18.55 2.15L19.25 2.45L18.65 2.75L18.1 3.25M1.55,4.25L2.9 4.35L3 4.3L2.25 3.9L1.75 3.55L1.9 3.3L2.45 2.65Q3.35 1.8 4.55 1.8Q6.9 1.8 8.75 3.25L9.1 3.55L9 4.5L7.9 3.9L6.75 3.35L5.85 3.1L5.25 3.05Q4.3 3 3.75 3.7Q3.3 4.2 3.3 4.75L3.35 5.4L3.75 6.25L3.65 6.25L3.55 6.25L3.55 6.2L3.5 6.3L2.15 6.15Q1.55 5.3 1.55 4.3L1.55 4.25M13.55,6.1L13.9 5.5L14.05 5.2L14.05 5.15L14 4.8L14 4.7L14.3 4.2Q15.1 3.1 15.6 3Q15.55 4.05 15.75 4.6L15.8 5.15L15.2 6.1Q14.55 6.8 13.75 6.8L13.15 6.7L13.55 6.1" />
<path style="fill:#E5B29D;fill-opacity:1" d="M18.65,2.75L18.8 3L19.05 3.55L19.3 4.2L19.25 4.55L19.15 4.7L19.25 4.85L18.75 6.3L18.95 6.2L17.95 7.1Q16.4 8.55 15.75 8.55L15.55 8.45L14.95 8.8L13.15 9.15L12.85 9.2L13 8.95L12.85 8.9L12.45 9L11.7 9.05L12.3 8.25L13.15 6.75L13.15 6.7L13.75 6.8Q14.55 6.8 15.2 6.1L15.8 5.15L15.75 4.6Q15.55 4.05 15.6 3L15.65 2.45L16.05 1.4L16.2 1.65L16.3 1.95Q16.5 2.45 16.35 3.3L16.3 3.55L16.3 3.6Q16.05 4.9 16.8 5.25L17.45 5.5L17.6 5.5L17.7 5.55L17.75 5.55L17.95 5.55L17.85 5.55L17.6 5.25L17.65 4.95L17.55 4.5Q17.55 3.95 18.1 3.25L18.65 2.75M7.85,7.85Q6.5 7.8 5.1 5.6L5.3 5.35L5.05 5.35L3.35 5.4L3.3 4.75Q3.3 4.2 3.75 3.7Q4.3 3 5.25 3.05L5.85 3.1L6.75 3.35L7.9 3.9L9 4.5Q8.7 6 8.05 7.4L7.85 7.85" />
<path style="fill:#743F2B;fill-opacity:1" d="M1.05,2.7L1.6 3.45L1.75 3.55L2.25 3.9L3 4.3L2.9 4.35L1.55 4.25L1 3.5L0.95 3.45L0.7 3.05L0.7 3.25L0.8 4.35Q1.05 5.75 2.15 6.15L3.5 6.3L3.55 6.2L3.55 6.25L3.65 6.25L3.75 6.25L4.8 6.05Q5.05 6.05 4.95 6.3L4.25 6.85Q5.5 8.05 7.25 8.5L7.45 8.55L11.4 9.05L11.7 9.05L12.45 9L12.85 8.9L13 8.95L12.85 9.2L12.65 9.45L12.7 9.45L13.25 9.55L16.45 9.7L17.6 9.25L18.6 8.8L20.1 7.65Q20.7 6.9 20.5 6.1L20.15 5.05L19.75 5.4L19.7 5.35L19.7 5.3L19.8 4.95L19.95 4.55L19.9 3.4L19.65 2.95L19.25 2.45L18.55 2.15L18.4 2.1L18.2 2.05L17.7 2Q17.5 2 17.45 2.1Q17.2 2.2 16.9 2.45L16.85 3L16.95 4.3L17.05 4.55L17.2 4.75L17.3 4.95L17.6 5.25L17.85 5.55L17.95 5.55L17.75 5.55L17.7 5.55L17.6 5.5L17.45 5.5L16.8 5.25Q16.05 4.9 16.3 3.6L16.3 3.55L16.35 3.3Q16.5 2.45 16.3 1.95L16.2 1.65L16.05 1.4L15.75 1.2L15.65 1.15L15.2 1Q14.9 0.95 14.5 1.4L14.5 1.8L14.3 2.4L13.6 3.3L13.55 3.35L12.5 3.7L10.95 3.35L9.75 2.55L9.15 2.05Q6.95 0.3 4.3 0.75L3.55 0.85L2.55 0.95L2.3 0.95L2.5 0.65Q2.75 0.4 3.75 0.15L5.5 -0.05L6.95 0.15L7.9 0.5L9.15 1.35L9.35 1.5L10.05 2L10.95 2.65L11.05 2.65L11.45 2.8L13.25 2.55L13.3 2.55L13.8 1.75L14.15 0.85L14.85 0.4L15.1 0.35Q15.65 0.3 16.2 0.65L16.25 0.7L16.3 0.75L16.45 0.95L16.85 1.7L16.85 1.75L19.3 1.65L19.95 2.15L20 2.2L20.4 2.7L20.55 2.95L20.65 4.05L21.1 5.2L21.4 6.2Q21.1 8.2 19.1 9.4L18.2 9.8L16.6 10.4L13.85 10.35L12.15 9.95L10.8 9.85L7.05 9.2Q5.65 8.8 4.85 8.3L3.35 7Q0.25 6.95 0 4.05Q-0.1 3.05 0.3 2.5Q0.15 2.3 0.45 1.65L0.55 1.65L1.05 2.7" />
<path style="fill:#FCE1D7;fill-opacity:1" d="M19.25,2.45L19.65 2.95L19.9 3.4L19.95 4.55L19.8 4.95L19.7 5.3L19.7 5.35L19.75 5.4L20.15 5.05L20.5 6.1Q20.7 6.9 20.1 7.65L18.6 8.8L17.6 9.25L16.45 9.7L13.25 9.55L12.7 9.45L12.65 9.45L12.85 9.2L13.15 9.15L14.95 8.8L15.55 8.45L15.75 8.55Q16.4 8.55 17.95 7.1L18.95 6.2L18.75 6.3L19.25 4.85L19.15 4.7L19.25 4.55L19.3 4.2L19.05 3.55L18.8 3L18.65 2.75L19.25 2.45M7.45,8.55L7.25 8.5Q5.5 8.05 4.25 6.85L4.95 6.3Q5.05 6.05 4.8 6.05L3.75 6.25L3.35 5.4L5.05 5.35L5.3 5.35L5.1 5.6Q6.5 7.8 7.85 7.85L7.45 8.55" />
<path style="fill:#B1735C;fill-opacity:1" d="M8.05,7.4Q8.7 6 9 4.5L9.1 3.55L8.75 3.25Q6.9 1.8 4.55 1.8Q3.35 1.8 2.45 2.65L1.9 3.3L1.75 3.55L1.6 3.45L1.05 2.7L0.55 1.65L0.6 1.65L0.5 1.6L0.6 1.6L1.15 1.25Q1.55 0.95 2.3 0.95L2.55 0.95L3.55 0.85L4.3 0.75Q6.95 0.3 9.15 2.05L9.75 2.55L10.95 3.35L12.5 3.7L13.55 3.35L13.6 3.3L14.3 2.4L14.5 1.8L14.5 1.4Q14.9 0.95 15.2 1L15.65 1.15L15.75 1.2L16.05 1.4L15.65 2.45L15.6 3Q15.1 3.1 14.3 4.2L14 4.7L14 4.8L14.05 5.15L14.05 5.2L13.9 5.5L13.55 6.1L13.15 6.7L13.15 6.75L12.3 8.25L11.7 9.05L11.4 9.05L7.45 8.55L7.85 7.85L8.05 7.4M17.85,2.5Q17.25 3.1 17.25 3.65Q17.25 4.25 17.6 5.25L17.3 4.95L17.2 4.75L17.05 4.55L16.95 4.3L16.85 3L16.9 2.45Q17.2 2.2 17.45 2.1Q17.5 2 17.7 2L18.2 2.05L18.4 2.1L17.85 2.5M1.55,4.3Q1.55 5.3 2.15 6.15Q1.05 5.75 0.8 4.35L0.7 3.25L0.7 3.05L0.95 3.45L1 3.5L1.55 4.25L1.55 4.3" />
<path style="fill:#000000;fill-opacity:1" d="M10.25,9.5L11.45 9.75L12.35 8.45L12.65 7.8L12.9 6.8L13.05 5.65Q13.05 4.25 12.55 3.05L11.25 2.6Q10.9 2.55 10.9 2.75Q11.15 3.5 10.85 5.25Q10.5 7.2 9.5 8.95L9.4 9.15L10.05 9.45L10.25 9.5M12.6,2L13.15 2.45L13.65 3.95Q13.95 5 13.7 6.9L13.35 8.6L12.9 9.6L11.9 10.55L10.4 10.45L8.95 9.9L8.4 9.4L8.45 9.25L8.45 9.15L8.45 9.1L8.5 8.95L8.6 8.9Q9.55 7.45 9.9 5.6Q10.25 3.8 10 2.5L10.1 2.3Q10.4 1.55 11.25 1.7L12.6 2" />
<path style="fill:#2A2A2A;fill-opacity:1" d="M12.4,3.4Q12.95 5.2 12.55 6.2Q12.5 5.8 12.1 5.9Q11.5 6.15 10.4 8.05L10.85 7Q11.7 4.8 11.4 3.15L11.9 3.2L12.4 3.4" />
<path style="fill:#4A4A4A;fill-opacity:1" d="M12.1,8.05L11.25 9.3L10.05 9.45L9.4 9.15L9.5 8.95Q10.5 7.2 10.85 5.25Q11.15 3.5 10.9 2.75Q10.9 2.55 11.25 2.6L12.55 3.05Q13.05 4.25 13.05 5.65L12.1 8.05M11.9,3.2L11.4 3.15Q11.7 4.8 10.85 7L10.4 8.05Q11.5 6.15 12.1 5.9Q12.5 5.8 12.55 6.2Q12.95 5.2 12.4 3.4L11.9 3.2" />
<path style="fill:#AFAFAF;fill-opacity:1" d="M10.05,9.45L11.25 9.3L12.1 8.05L13.05 5.65L12.9 6.8L12.65 7.8L12.35 8.45L11.45 9.75L10.25 9.5L10.05 9.45" />
</g>
</svg>
