<?xml version="1.0" encoding="utf-8"?>
<svg version="1.1" id="Layer_1"
xmlns="http://www.w3.org/2000/svg"
xmlns:xlink="http://www.w3.org/1999/xlink"
xmlns:author="http://www.sothink.com"
width="16px" height="24px"
xml:space="preserve">
<g id="1192" transform="matrix(1, 0, 0, 1, 0, 0)">
<path style="fill:#625643;fill-opacity:1" d="M11.5,15.55L11.55 15.2L11.95 15.15L12.35 15.1L12.3 15.5L12.1 17.35L12.85 17.4L14 17.5L14.65 17.8L15 18.45L15.05 18.65L15 19.95Q14.7 21.5 13.1 22.55Q10.95 23.9 8.85 23.6Q7.15 23.3 5.7 21.95L5.45 21.7L5 21.2Q4.35 20.45 4.3 19.75L4.35 19.25Q4.5 18.25 5.6 17.7L5.9 17.55Q6.75 17.15 7.5 17.2L8.55 17.05L9 15.4L9.25 15.4L9.95 15.35L9.4 17.25L10.5 17.3L11.1 17.3L11.35 16.4L11.5 15.55M5.65,20.55L6.15 21.15Q9.85 24.35 13.2 21.1Q13.95 20.4 14.1 19.5L14.1 19.45L14.15 18.85L13.9 18.5L13.5 18.25L12.1 18.15L10.25 18.15L8.35 18.2L7.8 18.2Q6.25 18.4 5.7 18.75Q5.15 19.05 5.45 20.1L5.6 20.45L5.65 20.5L5.65 20.55" />
<path style="fill:#CCC6B8;fill-opacity:1" d="M13.9,19.35L10.75 19L10.75 19.05L10.8 19.3L10.75 19.5Q10.45 19.7 10.15 19.5L10.05 19.35L10 19.2L9.8 19L6.65 19.3Q5.9 19.6 5.65 20.5L5.6 20.45L5.45 20.1Q5.15 19.05 5.7 18.75Q6.25 18.4 7.8 18.2L8.35 18.2L10.25 18.15L12.1 18.15L13.5 18.25L13.9 18.5L14.15 18.85L14.1 19.45L13.9 19.35M8.6,20L8.8 20.05L8.85 20.25L8.9 20.3L8.65 20.45L8.4 20.2L8.4 20.15L8.45 20.1L8.6 20" />
<path style="fill:#7B705E;fill-opacity:1" d="M11.5,15.55L10.75 15.7L10.5 17.2L10.5 17.3L9.4 17.25L9.95 15.35L11.55 15.2L11.5 15.55M5.9,20.65Q7.5 21.3 9 21.3L9.25 21.3L9.25 21.45Q9.45 21.7 9.7 21.55L9.7 21.45L9.7 21.3L10.65 21.15L10.8 21.25Q11.1 21.6 11.6 21.4L11.8 21.2L11.8 21.15L11.9 20.75L12.3 20.6L12.4 20.45L12.45 20.4L12.6 20.45L13.05 20.2L14.1 19.5Q13.95 20.4 13.2 21.1Q9.85 24.35 6.15 21.15L5.65 20.55L5.9 20.65M8.55,21.8L8.45 21.9L8.45 22L8.5 22.1L8.5 22.15L8.8 22.15L8.9 22.05L8.85 22L8.8 21.85L8.65 21.75L8.55 21.8M11.55,19.8L11.6 19.75Q12.05 19.75 11.95 20.15Q11.85 20.55 11.5 20.25L11.45 20.2L11.4 20.1L11.4 20L11.55 19.8" />
<path style="fill:#B3A38A;fill-opacity:1" d="M5.65,20.55L5.65 20.5Q5.9 19.6 6.65 19.3L9.8 19L10 19.2L10.05 19.35L10.15 19.5Q10.45 19.7 10.75 19.5L10.8 19.3L10.75 19.05L10.75 19L13.9 19.35L14.1 19.45L14.1 19.5L13.05 20.2L12.6 20.45L12.45 20.4L12.4 20.45L12.3 20.6L11.9 20.75L11.8 21.15L11.8 21.2L11.6 21.4Q11.1 21.6 10.8 21.25L10.65 21.15L9.7 21.3L9.7 21.45L9.7 21.55Q9.45 21.7 9.25 21.45L9.25 21.3L9 21.3Q7.5 21.3 5.9 20.65L5.65 20.55M11.35,16.4L11.1 17.3L10.5 17.3L10.5 17.2L10.75 15.7L11.5 15.55L11.35 16.4M8.45,20.1L8.4 20.15L8.4 20.2L8.65 20.45L8.9 20.3L8.85 20.25L8.8 20.05L8.6 20L8.45 20.1M8.65,21.75L8.8 21.85L8.85 22L8.9 22.05L8.8 22.15L8.5 22.15L8.5 22.1L8.45 22L8.45 21.9L8.55 21.8L8.65 21.75M11.4,20L11.4 20.1L11.45 20.2L11.5 20.25Q11.85 20.55 11.95 20.15Q12.05 19.75 11.6 19.75L11.55 19.8L11.4 20" />
<path style="fill:#28282A;fill-opacity:1" d="M1.7,6.2L1.35 7.15Q0.65 9.2 2.35 10.85L4.6 13L4.8 13.15Q5.1 13.5 5.75 13.75L7.55 14.2L8.45 14.3L9.15 14.3L10.05 14.25L11.7 13.95L12.4 13.8L12.95 13.65Q14.05 11.1 13.8 8.15Q13.55 5.8 12.4 3.95Q11.7 2.8 10.6 1.85Q9.1 0.45 6.95 1.15L5.55 1.55Q4.75 1.75 4.45 2.35L4.2 2.6L4.1 2.6L3.05 3.85Q2.35 4.7 1.8 6L1.7 6.2M11.95,15.15L11.55 15.2L9.95 15.35L9.25 15.4L9 15.4L8.05 15.35L6.65 15.3L6.05 15.2Q5 14.95 3.45 13.55L3.25 13.4L3.05 13.2L0.65 10.65Q-0.45 8.8 0.3 6.4L0.55 5.7L1.65 3.5L2.5 2.4Q3.3 1.4 4.6 0.75L4.65 0.75L4.7 0.7L5.7 0.3L6.8 0.1L10.85 0.4Q12.85 1.15 13.7 3.3Q15.2 7.15 15.25 8.95L15.05 11.85L14.55 13.75Q14.25 14.45 13.4 14.85L12.35 15.1L11.95 15.15" />
<path style="fill:#636379;fill-opacity:1" d="M13.8,8.15Q14.05 11.1 12.95 13.65L12.4 13.8Q13.25 10.85 13.25 8.1Q13.25 6.45 12.4 3.95Q13.55 5.8 13.8 8.15M1.8,6L3 6.1Q3.8 6.3 4.3 7.65L5.1 8.5L6.5 9.45Q7.8 10.45 8.2 11.8L8.4 12.9Q7.4 13.7 5.75 13.75Q5.1 13.5 4.8 13.15L4.6 13L3.5 11.6Q2.6 10.6 2.45 8.85L3.6 9L2.4 7.75Q1.9 7.05 1.7 6.2L1.8 6" />
<path style="fill:#3E3E51;fill-opacity:1" d="M11.7,13.95L10.05 14.25L9.15 14.3L8.45 14.3L7.55 14.2L5.75 13.75Q7.4 13.7 8.4 12.9L8.2 11.8Q7.8 10.45 6.5 9.45L5.1 8.5L4.3 7.65Q3.8 6.3 3 6.1L1.8 6Q2.35 4.7 3.05 3.85L4.1 2.6L4.2 2.6L4.45 2.35Q4.75 1.75 5.55 1.55L6.95 1.15Q9.1 0.45 10.6 1.85Q11.7 2.8 12.4 3.95Q13.25 6.45 13.25 8.1Q13.25 10.85 12.4 13.8L11.7 13.95" />
<path style="fill:#A0ADBF;fill-opacity:1" d="M1.7,6.2Q1.9 7.05 2.4 7.75L3.6 9L2.45 8.85Q2.6 10.6 3.5 11.6L4.6 13L2.35 10.85Q0.65 9.2 1.35 7.15L1.7 6.2" />
</g>
</svg>
