<?xml version="1.0" encoding="utf-8"?>
<svg version="1.1" id="Layer_1"
xmlns="http://www.w3.org/2000/svg"
xmlns:xlink="http://www.w3.org/1999/xlink"
xmlns:author="http://www.sothink.com"
width="29px" height="36px"
xml:space="preserve">
<g id="1247" transform="matrix(1, 0, 0, 1, 0, 0)">
<path style="fill:#3C2A22;fill-opacity:1" d="M9.4,28.45L8.65 27.45L9.1 27.4L11.35 27.55Q12.95 27.65 14.5 28.8L15.35 27.15L15.9 26L15.6 25.35Q14.2 22.15 13.9 19.8Q13.6 17.2 14.45 14.45Q15.3 11.7 18.9 7.65L18.95 7.7Q21.75 9.45 22.85 14.1Q23.7 17.75 24 23.35L24.1 25.95L24.1 26.55Q26.5 20.55 27.2 12.45Q26.45 10.4 24.7 7.85Q23 5.25 19.95 1.8L19.4 2.35Q15.35 6.5 13.15 10.6L10.6 15.3L10.3 15.7L12.15 19.6Q13.8 23.3 13.55 25.75L11.25 25.85Q9.65 25.85 7.65 26.55L6.55 25.85L9.5 24.95L12.5 24.55Q11.9 20.3 10.55 18.25L9.1 16.1L9 16L8.95 16L9.25 15.3Q9.1 15.2 12.05 9.95Q14.55 5.5 18.3 1.45L19.7 0L21.85 2.35Q23.75 4.35 25.95 7.55Q28.1 10.8 28.35 12.1Q28.35 15.05 27.4 19.6Q26.45 24.15 24.55 28.25L23.1 31L23.1 30.9L22.95 25.85L22.8 22.6Q22.45 15.65 21.25 12.65Q20.05 9.65 19.1 9.4L18.85 9.55L17.6 11Q16.1 12.7 15.3 15.75Q14.5 18.8 15.55 22.1Q16.6 25.35 17.3 26.1L17.2 26.25L16.9 26.85L15.6 29.05Q15 29.85 14.7 29.7L12.55 29L9.45 28.5L9.4 28.45M8.8,15.4L8.75 15.35L8.8 15.35L8.8 15.4M13.4,26.5L13.45 26.45L13.4 26.5" />
<linearGradient
id="LinearGradID_1527" gradientUnits="userSpaceOnUse" gradientTransform="matrix(0.000915527, 0.00668335, -0.00311279, 0.000427246, 22.25, 12.5)" spreadMethod ="pad" x1="-819.2" y1="0" x2="819.2" y2="0" >
<stop  offset="0.00392157" style="stop-color:#917162;stop-opacity:1" />
<stop  offset="1" style="stop-color:#C2AEA0;stop-opacity:1" />
</linearGradient>
<path style="fill:url(#LinearGradID_1527) " d="M19.5,4.6L19.5 4.55Q22.1 7.05 24.7 12.1Q25.45 15.2 24.8 21.1L24.2 25.3L24.1 25.95L24 23.35Q23.7 17.75 22.85 14.1Q21.75 9.45 18.95 7.7Q19.1 5.4 19.5 4.6" />
<linearGradient
id="LinearGradID_1528" gradientUnits="userSpaceOnUse" gradientTransform="matrix(-0.00340271, 0.00987244, -0.00892639, -0.00308228, 17.45, 18.75)" spreadMethod ="pad" x1="-819.2" y1="0" x2="819.2" y2="0" >
<stop  offset="0" style="stop-color:#E9DBD0;stop-opacity:1" />
<stop  offset="1" style="stop-color:#CDBCAF;stop-opacity:1" />
</linearGradient>
<path style="fill:url(#LinearGradID_1528) " d="M7.65,26.55Q9.65 25.85 11.25 25.85L13.55 25.75Q13.8 23.3 12.15 19.6L10.3 15.7L10.6 15.3L13.15 10.6Q15.35 6.5 19.4 2.35Q22.45 4.95 24.55 9L26.35 12.6Q26.45 16.15 24.8 21.1Q25.45 15.2 24.7 12.1Q22.1 7.05 19.5 4.55L19.5 4.6Q19.25 4.45 16.25 8.2Q13.25 11.95 12.45 15.85Q12.1 16.45 12.85 19.25Q14.25 24.1 15.6 25.35L15.9 26L15.35 27.15L14.2 27.35L11.05 26.7L7.95 26.8L7.8 26.7L7.65 26.55M13.45,26.45L13.4 26.5L13.45 26.45" />
<path style="fill:#FFFFFF;fill-opacity:1" d="M24.2,25.3L24.8 21.1Q26.45 16.15 26.35 12.6L24.55 9Q22.45 4.95 19.4 2.35L19.95 1.8Q23 5.25 24.7 7.85Q26.45 10.4 27.2 12.45Q26.5 20.55 24.1 26.55L24.1 25.95L24.2 25.3" />
<linearGradient
id="LinearGradID_1529" gradientUnits="userSpaceOnUse" gradientTransform="matrix(-0.00253296, 0.00442505, -0.00437927, -0.00250244, 18.15, 12.6)" spreadMethod ="pad" x1="-819.2" y1="0" x2="819.2" y2="0" >
<stop  offset="0.00392157" style="stop-color:#917162;stop-opacity:1" />
<stop  offset="1" style="stop-color:#C2AEA0;stop-opacity:1" />
</linearGradient>
<path style="fill:url(#LinearGradID_1529) " d="M12.85,19.25Q12.1 16.45 12.45 15.85Q13.25 11.95 16.25 8.2Q19.25 4.45 19.5 4.6Q19.1 5.4 18.95 7.7L18.9 7.65Q15.3 11.7 14.45 14.45Q13.6 17.2 13.9 19.8Q14.2 22.15 15.6 25.35Q14.25 24.1 12.85 19.25" />
<path style="fill:#917162;fill-opacity:1" d="M8.45,27.25L7.95 26.8L11.05 26.7L14.2 27.35L15.35 27.15L14.5 28.8Q12.95 27.65 11.35 27.55L9.1 27.4L8.65 27.45L8.45 27.25" />
<path style="fill:#4D3212;fill-opacity:1" d="M7.8,26.7L7.95 26.8L8.45 27.25L8.65 27.45L9.4 28.45L9.45 28.5L8.55 29.95L5.45 33.6L3.85 35.3Q3.35 35.7 2 34.8L1.3 34.2L0.9 33.9Q-0.25 32.7 0.05 32.2L0.95 30.95L1.45 30.3L4.45 26.55Q5.45 25.4 5.8 25.45L6.55 25.85L7.65 26.55L7.8 26.7M1.25,32.45L1.35 32.55L1.4 32.6L1.5 32.65L1.55 32.75L1.6 32.8L1.65 32.8L3 33.95L3.05 34L3.15 34.05L3.25 34.15L3.35 34.2L8.4 28.6L8.2 28.45L7.95 28.25L7.75 28.1L7.75 28.05L6.8 27.25L6.45 27L6.25 26.85L6.05 26.65L1.85 31.75L1.25 32.45" />
<path style="fill:#9A7226;fill-opacity:1" d="M3.75,32.6Q3 32.6 1.85 31.75L6.05 26.65L6.25 26.85L6.45 27L6.8 27.25L7.75 28.05L7.75 28.1L3.75 32.6" />
<path style="fill:#745416;fill-opacity:1" d="M7.75,28.1L7.95 28.25L8.2 28.45L8.4 28.6L3.35 34.2L3.25 34.15L3.15 34.05L3.05 34L3 33.95L1.65 32.8L1.6 32.8L1.55 32.75L1.5 32.65L1.4 32.6L1.35 32.55L1.25 32.45L1.85 31.75Q3 32.6 3.75 32.6L7.75 28.1" />
</g>
</svg>
