<?xml version="1.0" encoding="utf-8"?>
<svg version="1.1" id="Layer_1"
xmlns="http://www.w3.org/2000/svg"
xmlns:xlink="http://www.w3.org/1999/xlink"
xmlns:author="http://www.sothink.com"
width="49px" height="55px"
xml:space="preserve">
<g id="703" transform="matrix(1, 0, 0, 1, 0, 0)">
<path style="fill:#0E0A0B;fill-opacity:1" d="M47.45,22Q48.6 23.3 48.55 26.65Q48.5 30 47 32.15Q45.5 34.25 42.7 35.75Q39.85 37.25 37.7 37.25L34.75 36.9Q34 36.55 33.4 37.1Q32.8 37.6 32.25 38.8Q31.65 39.95 32 40.5Q33.65 40.9 33.65 41.9L33.6 42.95L33.4 43.65L33.15 44.3L32.7 45.2Q32.2 46 32.2 47.35L32.2 47.4Q32.15 48.1 32.4 48.7L33 49.65L33.55 50.3L34 51.45L34.05 52.15Q33.85 53.3 33.05 53.75L31.1 54Q29.9 53.75 29.45 53.3L28.7 52.7Q25.5 53.45 22.45 52.05Q19.4 50.6 18.35 48.65Q17.3 46.65 17.4 45.05Q17.4 44 17.7 42.75L18.5 42.9L19.25 43L19.6 43L19.35 43.35Q18.7 44.15 18.8 45.4Q18.95 47.35 19.75 48.8Q22.95 52.6 28.4 51.5L29.2 50.4Q29.9 51.8 30.7 52.2Q32.6 53.2 32.4 51.1Q31.45 50.3 31.15 48.9L31.05 47.5Q31.1 45.2 31.85 43.8L32.05 43.5L32.15 43.3Q32.9 42 31.75 41.85Q30.5 41.7 30.05 42.1Q29.55 42.45 29.25 44.1Q28.95 45.7 28.6 44L28.55 42.55Q28.65 41.85 29.15 41.4Q30 40.55 30.2 40.7Q30.25 39.55 30.7 38.5Q30.95 37.85 31.35 37.3L32.95 34.95Q32.45 34.85 32.1 31.45Q31.7 28 34.9 25Q32.9 28.1 33.3 30.75Q33.7 33.4 34.6 34.5Q35.5 35.6 37.5 35.7Q39.5 35.75 41.65 34.8Q43.8 33.85 45.2 32.25Q46.55 30.6 47 28.65Q47.45 26.7 47 24.5Q46.55 22.3 45.8 21.5L45.8 21.45Q45 20.6 45.65 20.65L45.8 20.65Q46.4 20.8 47.45 22M13.95,39.95L13.2 41.25L13.5 41.45L12.4 41.9Q11.05 42.15 9.9 41.45Q8.75 40.75 8.1 39.8L7.6 38.95Q3.05 37.65 1.65 36.2Q-0.2 34.35 0 32L0.3 30.6Q0.8 29.2 2.1 28.3Q4 26.9 4.85 25.5Q5.6 24.25 5.85 22.1Q6.3 17.95 10.7 15.2L11.75 14.75L12.7 14.35L13.6 13.55L14.5 12.6Q15.35 11.6 15.6 10.3L15.65 9.8Q15.8 8.1 15.25 6.8L14.7 5.65L14.25 5.05Q14 4.8 14.1 4.35L14.4 3.65Q15.05 2.5 16.3 2.3Q19.05 2.05 20.1 3.15Q22.05 2.75 23.7 1.05Q25.35 -0.65 27.55 0.35Q29.65 1.3 32.25 5.05Q37 9.7 39.5 10.5L39.85 10.6Q41.85 11.05 41.2 11.4L40.7 11.6L38.55 11.45Q37.5 11.1 36.3 10.35Q33.6 8.65 31.95 6.7L28.5 3.15Q26.75 1.55 25.25 2.15Q22.6 4.15 21.1 4.45Q21.95 5.7 21.95 7.05Q21.9 8.35 21.45 8.3Q21 8.2 20.7 7.55L19.7 5.45Q19.2 4.45 18.2 4.2L17.15 4.15Q15.4 4.3 16 5.3L16.05 5.4Q17.75 8 17.25 10.45Q16.7 13.05 13.6 15.5Q18.05 19.7 20.2 12.75Q20.3 12.35 20.7 12.3Q21.1 13.85 20.95 14.4Q27.6 15.1 28.9 10.1Q29.6 12.65 27.3 15.3Q27.25 17.15 28.2 19.05Q29.15 20.95 31.8 21.8Q34.45 22.55 31.65 22.35Q28.85 22.1 27.35 19.85Q25.8 17.6 25.9 15.7L24.5 16.05L20.8 15.9Q18.65 18.9 16.05 18.6Q13.4 18.25 12 15.95L11.6 16.25L10.65 16.8Q7.75 18.6 7.35 22.2Q6.9 26.35 2.8 29.35Q1.5 31 1.5 32.45Q1.45 35.65 7.65 37.85Q7.9 35.85 9.2 35.8Q8.7 37.75 9.15 38.8Q12.25 41.95 12.9 39.2Q12.8 38.15 12.95 37.35Q13.1 35.75 13.9 34.9Q15.1 33.55 16.2 33.35L17.35 32.95L17.1 31.75Q16.75 30.75 15.15 30.85Q13.55 30.95 12 32.25Q10.4 33.55 10.75 32.7Q11.05 31.85 12.35 30.65Q11.2 29.1 8.45 28.95L7.75 28.9L7.55 28.75L7.6 28.25L9.9 27.95L10.8 28.05Q12.35 28.45 13.5 30.25Q13.75 30.1 14.1 30L15.1 29.7L15.9 29.65Q18.55 26.05 14.55 23.55L13.55 22.95Q12.25 22.6 12.55 22.35Q12.85 22.15 13.1 22.1Q14.6 22.3 15.75 22.9Q16.6 23.35 17.25 24.05Q18.85 25.75 18.15 28Q21 29.1 21.85 25.6Q22.3 23.85 21.85 22.55L21 21.2L20.05 20.4Q19.75 20.25 19.9 20.1Q20.15 19.65 21 20.1L21.75 20.6Q22.55 21.2 23.1 22.25L23.5 23.35Q24.25 26 22.2 28.15Q24.5 30 24.65 32.9Q24.7 34.3 23 36.45L22.25 35.55Q23.3 33.95 23.1 32.75Q22.75 29.45 20.65 29.5L18.55 29.8Q17.65 29.8 18.25 30.7Q18.75 31.45 18.7 32.7L18.5 32.6Q18.55 33.25 17.7 33.95L18 34.15Q17.45 34.6 16.45 34.85Q14.35 35.35 14.25 37.8L14.25 37.85L14.05 40.05L13.95 39.95" />
<path style="fill:#1C1417;fill-opacity:1" d="M28.8,38.05Q27.15 37.85 25.65 38.6L25.15 40L24.5 38.7L24.1 38L23 36.45Q24.7 34.3 24.65 32.9Q24.5 30 22.2 28.15Q24.25 26 23.5 23.35L23.1 22.25Q22.55 21.2 21.75 20.6L21 20.1Q20.15 19.65 19.9 20.1Q19.75 20.25 20.05 20.4L21 21.2L21.85 22.55Q22.3 23.85 21.85 25.6Q21 29.1 18.15 28Q18.85 25.75 17.25 24.05Q16.6 23.35 15.75 22.9L18.25 22.55Q16.4 22.2 14.7 21.2Q11.6 19.45 10.65 16.8L11.6 16.25L12 15.95Q13.4 18.25 16.05 18.6Q18.65 18.9 20.8 15.9L24.5 16.05L25.9 15.7Q25.8 17.6 27.35 19.85Q28.85 22.1 31.65 22.35Q34.45 22.55 31.8 21.8Q29.15 20.95 28.2 19.05Q27.25 17.15 27.3 15.3Q29.6 12.65 28.9 10.1Q27.6 15.1 20.95 14.4Q21.1 13.85 20.7 12.3Q20.3 12.35 20.2 12.75Q18.05 19.7 13.6 15.5Q16.7 13.05 17.25 10.45L18.9 10.45Q23.15 10.35 25.75 7.05Q27.6 5.8 30.5 9.4Q33.35 13 35.65 12.4L38.55 11.45L40.7 11.6L41.2 11.4Q42.7 12.15 44.25 14.4Q45.8 16.65 45.8 20.65L45.65 20.65Q45 20.6 45.8 21.45L45.8 21.5Q46.55 22.3 47 24.5Q47.45 26.7 47 28.65Q46.55 30.6 45.2 32.25Q43.8 33.85 41.65 34.8Q39.5 35.75 37.5 35.7Q35.5 35.6 34.6 34.5Q33.7 33.4 33.3 30.75Q32.9 28.1 34.9 25Q31.7 28 32.1 31.45Q32.45 34.85 32.95 34.95L31.35 37.3Q30.95 37.85 30.7 38.5Q30.25 39.55 30.2 40.7Q30 40.55 29.15 41.4Q28.65 41.85 28.55 42.55Q27.85 40.4 28.8 38.05M23,47.05Q25.55 48.1 28.2 48.65L31.15 48.9Q31.45 50.3 32.4 51.1Q32.6 53.2 30.7 52.2Q29.9 51.8 29.2 50.4L28.4 51.5Q22.95 52.6 19.75 48.8Q18.95 47.35 18.8 45.4Q18.7 44.15 19.35 43.35Q19.9 45.75 23 47.05M12.9,39.2Q12.25 41.95 9.15 38.8Q8.7 37.75 9.2 35.8Q7.9 35.85 7.65 37.85Q1.45 35.65 1.5 32.45Q4.6 34.95 8.8 34.4L9.05 34.45Q10.5 36.25 12.95 37.35Q12.8 38.15 12.9 39.2M10.8,28.05L12.6 26.9Q14.3 25.45 14.55 23.55Q18.55 26.05 15.9 29.65L15.1 29.7L14.1 30Q13.75 30.1 13.5 30.25Q12.35 28.45 10.8 28.05" />
<path style="fill:#383838;fill-opacity:1" d="M35.45,44.4Q39.5 44.45 42.55 43.45L42.5 43.65L41.3 45.05Q40.4 46.1 39.1 46.65Q35.6 48.1 32.2 47.4L32.2 47.35Q32.2 46 32.7 45.2L33.15 44.3L35.45 44.4M11.15,9.25Q8.3 8.25 6.15 6.2Q6.15 5.65 6.3 5.1L14.7 5.65L15.25 6.8Q15.8 8.1 15.65 9.8L15.6 10.3Q13.35 10 11.15 9.25M21.25,36.8L21.95 37.7L22.65 38.75L19.3 38.95L15.55 38.2L14.25 37.85L14.25 37.8Q14.35 35.35 16.45 34.85Q17.45 34.6 18 34.15Q19.9 35.35 21.25 36.8" />
<path style="fill:#232323;fill-opacity:1" d="M33.55,50.3L33 49.65L32.4 48.7Q32.15 48.1 32.2 47.4Q35.6 48.1 39.1 46.65Q40.4 46.1 41.3 45.05L42.5 43.65Q40.95 50.3 33.55 50.3M15.6,10.3Q15.35 11.6 14.5 12.6L13.6 13.55L12.95 13.55Q11.15 13.55 8.4 11Q6.1 8.85 6.15 6.2Q8.3 8.25 11.15 9.25Q13.35 10 15.6 10.3M23.45,40.4L23.7 41.1L23.85 41.65L21.7 41.75L18 41.5Q15.65 41.05 14.05 40.05L14.25 37.85L15.55 38.2L19.3 38.95L22.65 38.75L23.45 40.4" />
<path style="fill:#000000;fill-opacity:1" d="M19.6,43L19.25 43L18.5 42.9L17.7 42.75Q15.4 42.4 13.5 41.45L13.2 41.25L13.95 39.95L14.05 40.05Q15.65 41.05 18 41.5L21.7 41.75L23.85 41.65L23.7 41.1L23.45 40.4L22.65 38.75L21.95 37.7L21.25 36.8Q19.9 35.35 18 34.15L17.7 33.95Q18.55 33.25 18.5 32.6L18.7 32.7Q20.7 33.9 22.25 35.55L23 36.45L24.1 38L24.5 38.7L25.15 40L25.35 40.5Q26.05 42.75 24.2 43Q22.1 43.2 19.6 43M31.9,43.65L32.15 43.3L32.05 43.5L31.85 43.8L31.9 43.65M42.5,43.65L42.55 43.45Q39.5 44.45 35.45 44.4L33.15 44.3L33.4 43.65L33.6 42.95L36.8 43.1L40.9 42.65L43.15 42.2L43.5 42.25L43.8 42.45Q44.2 42.75 43.4 45.4Q42.6 48.05 40.1 49.65Q37.55 51.25 34.75 51.45L34 51.45L33.55 50.3Q40.95 50.3 42.5 43.65M6.3,5.1Q6.15 5.65 6.15 6.2Q6.1 8.85 8.4 11Q11.15 13.55 12.95 13.55L13.6 13.55L12.7 14.35L11.75 14.75Q10.35 14.35 8.5 13.05Q5.25 10.75 4.7 7.15Q4.4 5.3 4.55 4.4Q4.6 3.5 5.1 3.45L8.4 4L14.1 4.35Q14 4.8 14.25 5.05L14.7 5.65L6.3 5.1" />
<path style="fill:#2E2427;fill-opacity:1" d="M16.05,5.4L16 5.3Q15.4 4.3 17.15 4.15L18.2 4.2Q19.2 4.45 19.7 5.45L20.7 7.55Q21 8.2 21.45 8.3Q21.9 8.35 21.95 7.05Q21.95 5.7 21.1 4.45Q22.6 4.15 25.25 2.15Q26.75 1.55 28.5 3.15L31.95 6.7Q33.6 8.65 36.3 10.35Q37.5 11.1 38.55 11.45L35.65 12.4Q33.35 13 30.5 9.4Q27.6 5.8 25.75 7.05Q23.15 10.35 18.9 10.45L17.25 10.45Q17.75 8 16.05 5.4M12.6,26.9L10.8 28.05L9.9 27.95L7.6 28.25L7.55 28.75L7.75 28.9L8.45 28.95Q11.2 29.1 12.35 30.65Q11.05 31.85 10.75 32.7Q10.4 33.55 12 32.25Q13.55 30.95 15.15 30.85Q16.75 30.75 17.1 31.75L17.35 32.95L16.2 33.35Q15.1 33.55 13.9 34.9Q13.1 35.75 12.95 37.35Q10.5 36.25 9.05 34.45L8.8 34.4Q4.6 34.95 1.5 32.45Q1.5 31 2.8 29.35Q6.9 26.35 7.35 22.2Q7.75 18.6 10.65 16.8Q11.6 19.45 14.7 21.2Q16.4 22.2 18.25 22.55L15.75 22.9Q14.6 22.3 13.1 22.1Q12.85 22.15 12.55 22.35Q12.25 22.6 13.55 22.95L14.55 23.55Q14.3 25.45 12.6 26.9M31.85,43.8Q31.1 45.2 31.05 47.5L31.15 48.9L28.2 48.65Q25.55 48.1 23 47.05Q19.9 45.75 19.35 43.35L19.6 43Q22.1 43.2 24.2 43Q26.05 42.75 25.35 40.5L25.15 40L25.65 38.6Q27.15 37.85 28.8 38.05Q27.85 40.4 28.55 42.55L28.6 44Q28.95 45.7 29.25 44.1Q29.55 42.45 30.05 42.1Q30.5 41.7 31.75 41.85Q32.9 42 32.15 43.3L31.9 43.65L31.85 43.8" />
</g>
</svg>
