<?xml version="1.0" encoding="utf-8"?>
<svg version="1.1" id="Layer_1"
xmlns="http://www.w3.org/2000/svg"
xmlns:xlink="http://www.w3.org/1999/xlink"
xmlns:author="http://www.sothink.com"
width="27px" height="16px"
xml:space="preserve">
<g id="1081" transform="matrix(1, 0, 0, 1, -2.2, -0.05)">
<path style="fill:#FFFFFF;fill-opacity:1" d="M28.25,7.6Q28.25 10.8 26.65 13Q25 15.2 21.95 15.2Q18.95 15.2 17.35 12.95Q15.7 10.75 15.7 7.55L15.7 7.35Q15.75 4.3 17.35 2.2Q19 0.05 22.05 0.05Q25.1 0.05 26.7 2.35Q28.1 4.45 28.25 7.05L28.25 7.6M24.65,7.15Q24.5 2.85 22 2.85Q19.4 2.85 19.3 7.25L19.3 7.6Q19.3 12.35 22 12.35Q24.65 12.35 24.65 7.6L24.65 7.15M13.5,0.3L13.5 14.95L10.55 14.95L4.85 5.05L4.85 5.55L4.9 6.15L4.9 14.95L2.2 14.95L2.2 0.3L5.95 0.3L10.9 8.95L10.85 7.95L10.85 0.3L13.5 0.3" />
</g>
</svg>
