<?xml version="1.0" encoding="utf-8"?>
<svg version="1.1" id="Layer_1"
xmlns="http://www.w3.org/2000/svg"
xmlns:xlink="http://www.w3.org/1999/xlink"
xmlns:author="http://www.sothink.com"
width="42px" height="42px"
xml:space="preserve">
<g id="1122" transform="matrix(1, 0, 0, 1, 0, 0)">
<radialGradient
id="RadialGradID_1400" gradientUnits="userSpaceOnUse" gradientTransform="matrix(0.0254059, 0, 0, 0.0254059, 20.65, 20.7)" spreadMethod ="pad" cx="0" cy="0" r="819.2" fx="0" fy="0" >
<stop  offset="0.745098"  style="stop-color:#FFFFFF;stop-opacity:0.101961" />
<stop  offset="1"  style="stop-color:#FFFFFF;stop-opacity:0.8" />
</radialGradient>
<path style="fill:url(#RadialGradID_1400) " d="M35.3,6.05Q41.3 12.05 41.3 20.65Q41.3 29.2 35.3 35.25Q29.25 41.35 20.65 41.35Q12.15 41.35 6.05 35.25Q0 29.2 0 20.65Q0 12.05 6.05 6.05Q12.15 0 20.65 0Q29.25 0 35.3 6.05" />
<path style="fill:#FFFFFF;fill-opacity:0.74902" d="M17.75,3.55L18.3 3.45L18.85 3.4Q21.6 3.3 22.05 4.9Q22.45 6.45 19.45 6.6Q14.85 6.95 10.9 10.85Q7.1 14.65 6.9 20L6.75 20Q5.05 21.05 4.1 20.35Q3.4 19.85 3.4 19Q4.4 13.1 8.4 8.4L11.4 5.95Q14.35 4 17.75 3.55M5.85,23.5Q6.7 23.5 7.3 24.1Q7.9 24.7 7.9 25.5Q7.9 26.35 7.3 26.95Q6.7 27.55 5.85 27.55Q5.05 27.55 4.45 26.95Q3.85 26.3 3.85 25.5L3.9 25.25Q3.95 24.6 4.45 24.1Q5.05 23.5 5.85 23.5" />
</g>
</svg>
