<?xml version="1.0" encoding="utf-8"?>
<svg version="1.1" id="Layer_1"
xmlns="http://www.w3.org/2000/svg"
xmlns:xlink="http://www.w3.org/1999/xlink"
xmlns:author="http://www.sothink.com"
width="21px" height="29px"
xml:space="preserve">
<g id="697" transform="matrix(1, 0, 0, 1, 0, 0)">
<path style="fill:#1D3E5D;fill-opacity:1" d="M19.25,6.3L18.85 7.85L18.75 8.15L18.3 9.15Q17.75 8.8 16.75 8.55L13.2 8.65L12.4 6.5L13.55 6.1L13.95 6.55L14.15 6.9L14.2 7.25L15.85 7L16.6 7Q17.35 7.05 18.05 7.45L18.15 7.2L18.5 5.45L18.35 4.25L18.15 3.7L18.1 3.5Q18.95 4.2 19.35 5L19.25 6.3M3,7.4L3.85 7.7Q3.9 7.3 4.25 7.05L4.6 6.75Q5.35 6.2 6.3 5.95L6.85 5.75L7.3 5.65L7.4 4.15L7.3 3.15L7 2.15L6.9 1.95L7.85 2.6L9.35 4L10.45 5.45L10.85 6.05L10.3 6.15L9.3 6.4Q7.2 6.9 6.15 7.7L4.15 9.15Q2.9 8.15 1.6 7.8L1.65 7.25L3 7.4M12.05,8.25L12.05 8.4L11.75 9.15L10.9 11.45L9.75 13.35L8.1 15.1Q7.2 15.85 6.45 16.05Q5.7 16.2 4.85 15.5L4.8 15.5L4.3 15.1Q3.05 14 2.3 12.65L1.65 11.25L1.8 11.4L2.6 12.1L3.9 13.15L4.6 13.6L5.65 14.05L5.7 14.1L6.05 14.05L6.3 13.85L7.6 12.75L8.55 11.55L9.1 10.55L9.55 9.4L9.9 8.3L10 7.8L10.15 7.2L11.1 6.95Q11.45 6.9 11.75 7.25L11.85 7.4L12.05 8.25M16.7,10.75Q16.45 10.55 16.25 11.4L15.85 12.8L15.8 13.15L15.75 13.8Q15.6 14.7 15.6 15.65L15.6 15.8L15.6 16.4L15.6 16.8L15.6 16.9L15.55 16.9L14.15 17.4L13.95 17.5L13.45 14.1L7.45 19.2Q6.95 19.2 5.15 18.2L5 17L6.2 17.85Q6.75 18.15 8.4 17.05Q10 15.95 11.55 14.1Q12.85 12.55 13.2 10.5L13.3 9.6Q13.4 9.35 15.3 9.25L15.5 9.25Q16.85 9.2 17.75 9.9L18.25 10.4L17.7 11.5L16.7 10.75M15.75,18.7L15.75 18.85L15.8 19.25L16.35 21L17 22.35Q14.4 23.05 12.25 24.3Q9.6 25.75 8.15 26.9L6.5 25.3Q5.35 24.1 5.1 23.3L5.9 23.75L6.85 24.55L7.4 25.05L7.7 25.45L7.9 25.7L8.6 25.1L10.05 24.15L11.05 23.5L12.5 22.5L14.05 21.7L14.3 21.65L14.2 21.45Q13.9 20.65 13.9 19.8L13.9 19.55L13.85 18.9L13.85 18.5L15.65 17.9L15.75 18.7" />
<path style="fill:#286593;fill-opacity:1" d="M16.95,5.75Q18.55 5.6 17.75 4.5L16.75 4.85Q16.25 5.1 16.25 5.5Q16.25 5.85 16.95 5.75M14.25,5.8Q15.85 5.05 17.95 3.4L18.1 3.5L18.15 3.7L18.35 4.25L18.5 5.45L18.15 7.2L18.05 7.45Q17.35 7.05 16.6 7L15.85 7L14.2 7.25L14.15 6.9L13.95 6.55L13.55 6.1L14.25 5.8M18.3,9.15L18.75 8.15L18.85 7.85L19.25 6.3L19.35 5Q19.75 5.85 19.7 6.85L19.5 8.2L18.75 9.7L18.3 9.15M6.9,1.95L7 2.15L7.3 3.15L7.4 4.15L7.3 5.65L6.85 5.75L6.3 5.95Q5.35 6.2 4.6 6.75L4.25 7.05Q3.9 7.3 3.85 7.7L3 7.4L1.65 7.25L2.25 5.2Q3 3.25 4.25 2.15Q5.45 1.05 5.85 1.25L6.9 1.95M1.35,10.4L1.45 10.3L1.95 10.25Q2.9 10.35 3.75 10.9L4.65 11.35L4.7 11.3L5.35 10.85Q5.75 10.5 6.4 10.05L7.3 9.4L8.65 8.5Q9.3 8.1 10 7.8L9.9 8.3L9.55 9.4L9.1 10.55L8.55 11.55L7.6 12.75L6.3 13.85L6.05 14.05L5.7 14.1L5.65 14.05L4.6 13.6L3.9 13.15L2.6 12.1L1.8 11.4L1.65 11.25L1.35 10.4M4.8,15.5L4.85 15.5Q5.7 16.2 6.45 16.05Q7.2 15.85 8.1 15.1L9.75 13.35L10.9 11.45L11.75 9.15L12.05 8.4L12.05 8.25L11.85 7.4L12.15 8.2L12.15 8.25L12.3 9.1Q12.45 11.55 9.8 14.3Q7.15 17 6.35 16.6L4.8 15.5M7.8,21.9Q6.75 20.15 5.2 19.55L5.2 19.2L5.15 18.2Q6.95 19.2 7.45 19.2L13.45 14.1L13.95 17.5Q10.15 19 7.8 21.9M15.6,16.9L15.6 16.8L15.6 16.4L15.6 15.8L15.6 15.65Q15.6 14.7 15.75 13.8L15.8 13.15L15.85 12.8L16.25 11.4Q16.45 10.55 16.7 10.75L17.7 11.5Q16.8 13.5 16.75 16.6L15.6 16.9M5.4,2.35Q4.4 2.7 3.7 3.95Q3.3 4.6 3.55 4.75L4.3 4.6L5.45 3.65Q5.75 3.05 5.45 2.35L5.4 2.35M13.9,19.8Q13.9 20.65 14.2 21.45L14.3 21.65L14.05 21.7L12.5 22.5L11.05 23.5L10.05 24.15L8.6 25.1L7.9 25.7L7.7 25.45L7.4 25.05L6.85 24.55L5.9 23.75L5.1 23.3L5.1 23.15L5 22.6L5.65 21.5L7.65 24.55L9.95 22.3Q12.15 20.35 13.9 19.55L13.9 19.8M15.65,17.9L15.75 17.9L16.85 17.75L16.95 18.45Q17.2 20.15 18.25 22L17 22.35L16.35 21L15.8 19.25L15.75 18.85L15.75 18.7L15.65 17.9" />
<path style="fill:#6CACE7;fill-opacity:1" d="M16.25,5.5Q16.25 5.1 16.75 4.85L17.75 4.5Q18.55 5.6 16.95 5.75Q16.25 5.85 16.25 5.5M8.65,8.5L7.3 9.4L6.4 10.05Q5.75 10.5 5.35 10.85L4.7 11.3L4.65 11.35L3.75 10.9Q2.9 10.35 1.95 10.25L1.45 10.3L1.35 10.4L1.3 10.15Q1.05 8.95 1.45 8.95Q1.8 8.9 2.4 9.25L3.55 9.9L4.2 10.3L5.65 9.3Q7 8.25 8.6 7.7L10.15 7.2L10 7.8Q9.3 8.1 8.65 8.5M5.45,2.35Q5.75 3.05 5.45 3.65L4.3 4.6L3.55 4.75Q3.3 4.6 3.7 3.95Q4.4 2.7 5.4 2.35L5.45 2.35M13.85,18.9L13.9 19.55Q12.15 20.35 9.95 22.3L7.65 24.55L5.65 21.5L5 22.6L5 21.8L5.15 20.55Q6.15 21.05 6.85 22.15L7.7 23.35L9.6 21.45Q11.4 19.45 13.85 18.5L13.85 18.9" />
<path style="fill:#19213C;fill-opacity:1" d="M20.45,9L20.2 9.55L18.8 11.7L18.55 12.35L18 14.65Q17.7 16.4 18.1 18.05L18.2 18.3Q18.65 20.05 19.2 21L19.9 22.45Q20 23 19.2 23L17.6 23.3L16.85 23.55Q15.3 24 14 24.75L13.8 24.85Q13.6 24.95 12.5 25.6Q11.4 26.25 10.25 27.1L8.95 27.95L8.55 28.2L7.65 27.95L7.2 27.55L5.15 25.4Q3.95 24.1 3.9 23L4 21.05L4.1 18.45L4.2 16.55L3.8 16.2Q2.9 15.25 1.55 13.3Q0.6 11.95 0.25 9.9L0 7.9Q0.9 4.2 2.6 2.3Q4.3 0.35 5.3 0.05L5.55 0L6.6 0.3Q7.35 0.65 8.4 1.45Q10.6 3.1 11.9 5.65L11.95 5.65Q14.5 5.1 17.05 2.6L17.45 2.2Q18.4 1.85 19.85 3.9Q21.25 5.95 20.9 7.5L20.45 9M13.55,6.1L12.4 6.5L13.2 8.65L16.75 8.55Q17.75 8.8 18.3 9.15L18.75 9.7L19.5 8.2L19.7 6.85Q19.75 5.85 19.35 5Q18.95 4.2 18.1 3.5L17.95 3.4Q15.85 5.05 14.25 5.8L13.55 6.1M5.85,1.25Q5.45 1.05 4.25 2.15Q3 3.25 2.25 5.2L1.65 7.25L1.6 7.8Q2.9 8.15 4.15 9.15L6.15 7.7Q7.2 6.9 9.3 6.4L10.3 6.15L10.85 6.05L10.45 5.45L9.35 4L7.85 2.6L6.9 1.95L5.85 1.25M11.75,5.55L11.75 5.6L11.9 5.65L11.75 5.55M1.65,11.25L2.3 12.65Q3.05 14 4.3 15.1L4.8 15.5L6.35 16.6Q7.15 17 9.8 14.3Q12.45 11.55 12.3 9.1L12.15 8.25L12.15 8.2L11.85 7.4L11.75 7.25Q11.45 6.9 11.1 6.95L10.15 7.2L8.6 7.7Q7 8.25 5.65 9.3L4.2 10.3L3.55 9.9L2.4 9.25Q1.8 8.9 1.45 8.95Q1.05 8.95 1.3 10.15L1.35 10.4L1.65 11.25M13.95,17.5L14.15 17.4L15.55 16.9L15.6 16.9L16.75 16.6Q16.8 13.5 17.7 11.5L18.25 10.4L17.75 9.9Q16.85 9.2 15.5 9.25L15.3 9.25Q13.4 9.35 13.3 9.6L13.2 10.5Q12.85 12.55 11.55 14.1Q10 15.95 8.4 17.05Q6.75 18.15 6.2 17.85L5 17L5.15 18.2L5.2 19.2L5.2 19.55Q6.75 20.15 7.8 21.9Q10.15 19 13.95 17.5M5.1,23.15L5.1 23.3Q5.35 24.1 6.5 25.3L8.15 26.9Q9.6 25.75 12.25 24.3Q14.4 23.05 17 22.35L18.25 22Q17.2 20.15 16.95 18.45L16.85 17.75L15.75 17.9L15.65 17.9L13.85 18.5Q11.4 19.45 9.6 21.45L7.7 23.35L6.85 22.15Q6.15 21.05 5.15 20.55L5 21.8L5 22.6L5.1 23.15" />
</g>
</svg>
