<?xml version="1.0" encoding="utf-8"?>
<svg version="1.1" id="Layer_1"
xmlns="http://www.w3.org/2000/svg"
xmlns:xlink="http://www.w3.org/1999/xlink"
xmlns:author="http://www.sothink.com"
width="24px" height="23px"
xml:space="preserve">
<g id="387" transform="matrix(1, 0, 0, 1, 0, 4.65)">
<path style="fill:#5F1000;fill-opacity:1" d="M1.55,11.55Q2.1 12.65 3.75 12.75Q4.75 12.1 6.3 11.95Q7.7 11.8 9.1 12.45L9.45 12.6L9.5 12.65Q10.8 13.25 12 14.4L12.15 14.6L12.45 14.9L12.05 14.6L10.1 13.5Q8.55 12.8 7.3 12.85Q5.2 12.9 4.55 13.4L4.35 13.55Q3.95 13.95 4.55 14.35Q5.2 14.85 5.55 14.8Q8.65 13.95 12.1 16.15Q12.7 16.5 13.3 17L13.55 17.2Q14.3 17.2 14.55 16.8L14.8 15.75Q14.75 15.25 14.1 14.7L14 14.6L13.95 14.55L13.75 14.4L14 14.4L14.9 14.55L15.15 14.7L15.5 15Q18.8 12.35 18.6 11.2L18.25 9.75Q17.5 7.6 15.45 6.25L15 5.95L14.9 5.9Q11.85 4.15 8.85 5.45L7.85 7.9L6.65 9.25Q6.05 9.7 5.05 10.05L2.65 10.2Q1.2 9.95 1 9.6L1.1 10.45L1.55 11.55M14.3,4.55L15.05 4.85L16.7 5.9L18.25 7.6L18.35 7.7L18.45 7.9Q18.95 8.7 19.25 9.75L19.5 11.55L18.4 13.4L15.9 15.65Q15.75 17.3 14.55 17.9L12.6 17.75Q11.85 16.95 10.4 16.2Q8.9 15.45 7.7 15.45L5.75 15.6Q5 15.85 4.05 15.25Q3.05 14.6 3.15 13.6Q0.85 13.25 0.1 10.65Q-0.25 7.8 1 8.6Q2.3 9.4 3.65 9.35L5.75 8.9L7.05 7.5L7.75 5.85Q7.9 5.15 8.3 4.85Q8.7 4.5 9.75 4.3L11.8 4.05L14.3 4.55" />
<path style="fill:#BB482E;fill-opacity:1" d="M3.1,11.55L2.85 11.5L2 11.2L2 10.8L2.05 10.75L4.3 11.05Q3.7 11.2 3.1 11.55M13.5,9.7Q12.05 10.75 10.1 11.25L6.9 10.8L5.35 10.85Q8.5 9.95 9.6 6.25L12.35 6Q13.55 6.3 15.4 7.45Q14.9 8.6 13.5 9.7M17.15,12.55Q17.95 11.3 18.25 9.75L18.6 11.2Q18.8 12.35 15.5 15L15.15 14.7L14.9 14.55Q16.15 14.2 17.15 12.55M10.15,14L9.95 14.15L9.7 14.3L9.25 14.15L5.7 13.9L5.45 13.95L5.9 13.55Q7.05 12.95 10.15 14" />
<path style="fill:#EE775A;fill-opacity:1" d="M15.4,7.45Q13.55 6.3 12.35 6L9.6 6.25Q8.5 9.95 5.35 10.85L4.3 11.05L2.05 10.75L2 10.8L2 11.2L1.1 10.45L1 9.6Q1.2 9.95 2.65 10.2L5.05 10.05Q6.05 9.7 6.65 9.25L7.85 7.9L8.85 5.45Q11.85 4.15 14.9 5.9L15 5.95L15.45 6.25L15.4 7.45M10.15,14Q7.05 12.95 5.9 13.55L5.45 13.95L4.55 13.7L4.35 13.55L4.55 13.4Q5.2 12.9 7.3 12.85Q8.55 12.8 10.1 13.5L10.15 14" />
<path style="fill:#8C2F1D;fill-opacity:1" d="M14.9,14.55L14 14.4L13.75 14.4L13.95 14.55L14 14.6L14.1 14.7Q14.75 15.25 14.8 15.75L14.55 16.8Q14.3 17.2 13.55 17.2L13.3 17Q12.7 16.5 12.1 16.15Q8.65 13.95 5.55 14.8Q5.2 14.85 4.55 14.35Q3.95 13.95 4.35 13.55L4.55 13.7L5.45 13.95L5.7 13.9L9.25 14.15L9.7 14.3L9.95 14.15L10.15 14L10.1 13.5L12.05 14.6L12.45 14.9L12.15 14.6L12 14.4Q10.8 13.25 9.5 12.65L9.45 12.6L9.1 12.45Q7.7 11.8 6.3 11.95Q4.75 12.1 3.75 12.75Q2.1 12.65 1.55 11.55L1.1 10.45L2 11.2L2.85 11.5L3.1 11.55Q3.7 11.2 4.3 11.05L5.35 10.85L6.9 10.8L10.1 11.25Q12.05 10.75 13.5 9.7Q14.9 8.6 15.4 7.45L15.45 6.25Q17.5 7.6 18.25 9.75Q17.95 11.3 17.15 12.55Q16.15 14.2 14.9 14.55" />
<path style="fill:#969BA1;fill-opacity:1" d="M11.35,-2.55L11.2 -2.35L11 -1.35Q10.2 -2 10.25 -2.7Q10.65 -3.4 11.8 -3.7L11.8 -3.2L12.15 -2.2L11.35 -2.55M20.45,4.05L20.25 3.7L19.5 2.75L18.1 1.75L18.05 1.75L17.5 1.55L14.35 -0.05L14.45 -0.15L16.3 0.4Q17.6 0.7 18.6 1.25Q19.95 1.95 20.7 3.15Q21.9 5.1 21.7 6.15L21.45 7.85Q21.3 5.65 20.45 4.05M16.8,8.15L17 9.05L18.35 8.4L17.75 9.1Q16.95 10 15.9 10.3L15.8 10.25Q16.45 9.2 16.5 8.45L16.8 8.15M14.8,6.15Q13.55 6.5 12.55 7.25Q11 8.4 10.7 10Q9.4 9.05 9.4 7L9.55 6.85L10.3 8.3L10.6 8.4Q12.1 5.55 15.2 5.9L15.55 5.95L15.7 6.05L15.85 6.25L14.8 6.15M7.85,4.9L5.75 5.1L3.2 4.65L5.4 3.9L6.85 3.05L8.15 3.25Q7.15 4.45 5.5 4.6L7.85 4.9M6.45,0.6L8.65 0.8L10.45 0.4L10.85 0.55L10.55 0.7Q9.75 1.15 8.75 1.2L8.95 1.55L8.35 1.45Q7.3 1.2 6.45 0.6" />
<path style="fill:#61666C;fill-opacity:1" d="M11,-1.35L11.2 -2.35L11.35 -2.55L12.15 -2.2L12.45 -1.65Q12.85 -0.95 14 -0.35Q12.6 -0.25 11.3 -1.15L11 -1.35M21.2,9.3L20.8 8.95L20.55 8.6L20.45 7.75L20.5 7.15L19.9 5.85L19.25 5Q19.55 4.45 19.35 4Q18.4 4.1 17.65 4.8Q17.65 3.95 18.3 3.3Q18.5 3.1 18.75 3Q18.4 2.55 17.9 2.6Q15.75 4.25 12.9 2.8Q15.55 2.2 15.45 1.25Q13.75 0.75 14 0.45L14.35 -0.05L17.5 1.55L18.05 1.75L18.1 1.75L19.5 2.75L20.25 3.7L20.45 4.05Q21.3 5.65 21.45 7.85L21.35 8.4L21.35 8.7L21.3 9.4L21.2 9.3M11.9,4.85Q11.35 5.55 11.15 6.4Q11.1 6.8 11.3 6.7L12.4 5.95Q13.35 5.25 14.3 5.05L16.35 5.2Q17.45 5.6 18.05 6.95L18.9 6.15L18.85 7.1L18.35 8.4L17 9.05L16.8 8.15L17.15 7.05L17.2 6.75L17.1 6.7L16.1 6.3L15.9 6.25L15.85 6.25L15.7 6.05L15.55 5.95L15.2 5.9Q12.1 5.55 10.6 8.4L10.3 8.3L9.55 6.85L10.25 6.15L10.4 6L10.6 5.7L10.75 5.55L10.4 5.65Q10.6 5.3 11.9 4.85M5.5,4.6Q7.15 4.45 8.15 3.25L8.2 3.25L8.65 3.25L8.95 3.3L10.15 3.4L10.45 3.4L10.55 3.4L10.55 3.5L10.5 3.6L9.75 4.05L9.2 4.4L7.85 4.9L5.5 4.6M8.95,1.55L8.75 1.2Q9.75 1.15 10.55 0.7L10.85 0.55L11.95 1Q12.35 1.05 11.55 1.45L9.25 1.6L8.95 1.55" />
<path style="fill:#2D343C;fill-opacity:1" d="M17.75,9.1L18.35 8.4L18.85 7.1L18.9 6.15L18.05 6.95Q17.45 5.6 16.35 5.2L14.3 5.05Q13.35 5.25 12.4 5.95L11.3 6.7Q11.1 6.8 11.15 6.4Q11.35 5.55 11.9 4.85Q10.6 5.3 10.4 5.65L10.05 5.8Q9.85 5.9 9.6 6.05L6.2 6.4Q3.85 6.15 3.1 4.7L3.2 4.65L5.75 5.1L7.85 4.9L9.2 4.4L9.75 4.05L10.5 3.6L10.55 3.5L10.55 3.4L10.45 3.4L10.15 3.4L8.95 3.3L8.65 3.25L8.4 2.9L7.75 2.4Q6.25 1.3 6.35 0.55L6.45 0.6Q7.3 1.2 8.35 1.45L8.95 1.55L9.25 1.6L11.55 1.45Q12.35 1.05 11.95 1L10.85 0.55L10.45 0.4L11.1 0.05Q9.9 -0.15 9.85 -0.95Q9.75 -1.75 10.15 -2.55L10.25 -2.7Q10.2 -2 11 -1.35L11.3 -1.15Q12.6 -0.25 14 -0.35L14.45 -0.15L14.35 -0.05L14 0.45Q13.75 0.75 15.45 1.25Q15.55 2.2 12.9 2.8Q15.75 4.25 17.9 2.6Q18.4 2.55 18.75 3Q18.5 3.1 18.3 3.3Q17.65 3.95 17.65 4.8Q18.4 4.1 19.35 4Q19.55 4.45 19.25 5L19.9 5.85L20.5 7.15L20.45 7.75L20.25 7.35L20.2 7.55Q19.85 8.9 18.75 9.75Q17.4 10.75 15.9 10.3Q16.95 10 17.75 9.1M21.3,9.4Q21.3 11.1 22.3 11.8Q20.8 12.2 19.65 10.35L20.1 9.75L20.4 9.2L20.55 8.6L20.8 8.95L21.2 9.3L21.3 9.4M16.5,8.45L16.45 7.75L16.4 7.65L15.45 7.3L14.2 7.5Q12.95 7.9 12.1 8.7L10.8 10.05L10.7 10Q11 8.4 12.55 7.25Q13.55 6.5 14.8 6.15L15.85 6.25L15.9 6.25L16.1 6.3L17.1 6.7L17.2 6.75L17.15 7.05L16.8 8.15L16.5 8.45" />
<path style="fill:#1C202A;fill-opacity:1" d="M9.15,-0.25Q8.75 -1.4 9.1 -2.35Q9.45 -3.35 10.35 -4Q11.25 -4.65 11.85 -4.65Q12.4 -4.75 12.55 -4.1L12.6 -3.7L12.85 -2.95L13.3 -2.05L13.35 -2Q13.7 -1.4 14.6 -0.95Q14.85 -0.8 15.2 -0.7L16.2 -0.4Q17.65 -0.25 19.3 0.6Q20.9 1.45 21.8 3L22.8 5.2L22.5 7.75Q22.2 9.1 22.35 9.9L22.6 10.5L23.6 11.75Q24.1 12.2 22.85 12.6L20.4 12.4Q19.2 11.8 18.85 11.2L18.75 11.1L17.75 11.35L15.45 11.2Q14.25 10.9 14.75 10.25L14.8 10.25Q15.35 9.55 15.5 8.25L14.45 8.4Q13.8 8.5 13.1 9.1L12 10.3L11.2 11.3Q10.85 11.7 10.1 10.8Q8.45 9 8.3 7.45L4.6 7.25Q2.8 6.65 2.2 5.6L1.55 4.25Q1.5 3.95 2.25 3.8L3.75 3.4L5.3 2.75L6 2.35Q5.05 1.35 5.15 0.5Q5.25 -0.4 5.5 -0.45L6.7 -0.25Q7.65 0 9.15 -0.25M10.15,-2.55Q9.75 -1.75 9.85 -0.95Q9.9 -0.15 11.1 0.05L10.45 0.4L8.65 0.8L6.45 0.6L6.35 0.55Q6.25 1.3 7.75 2.4L8.4 2.9L8.65 3.25L8.2 3.25L8.15 3.25L6.85 3.05L5.4 3.9L3.2 4.65L3.1 4.7Q3.85 6.15 6.2 6.4L9.6 6.05Q9.85 5.9 10.05 5.8L10.4 5.65L10.75 5.55L10.6 5.7L10.4 6L10.25 6.15L9.55 6.85L9.4 7Q9.4 9.05 10.7 10L10.8 10.05L12.1 8.7Q12.95 7.9 14.2 7.5L15.45 7.3L16.4 7.65L16.45 7.75L16.5 8.45Q16.45 9.2 15.8 10.25L15.9 10.3Q17.4 10.75 18.75 9.75Q19.85 8.9 20.2 7.55L20.25 7.35L20.45 7.75L20.55 8.6L20.4 9.2L20.1 9.75L19.65 10.35Q20.8 12.2 22.3 11.8Q21.3 11.1 21.3 9.4L21.35 8.7L21.35 8.4L21.45 7.85L21.7 6.15Q21.9 5.1 20.7 3.15Q19.95 1.95 18.6 1.25Q17.6 0.7 16.3 0.4L14.45 -0.15L14 -0.35Q12.85 -0.95 12.45 -1.65L12.15 -2.2L11.8 -3.2L11.8 -3.7Q10.65 -3.4 10.25 -2.7L10.15 -2.55" />
</g>
</svg>
