<?xml version="1.0" encoding="utf-8"?>
<svg version="1.1" id="Layer_1"
xmlns="http://www.w3.org/2000/svg"
xmlns:xlink="http://www.w3.org/1999/xlink"
xmlns:author="http://www.sothink.com"
width="54px" height="42px"
xml:space="preserve">
<g id="144" transform="matrix(1, 0, 0, 1, 0, 0)">
<path style="fill:#482D19;fill-opacity:1" d="M13.6,26.75L1.35 35.9Q1.05 36.65 1.75 37.5L2.8 38.45L17.4 27.9L20.05 25.95L19.1 27.35L21.05 27.25L15.75 30.8L3.4 39.7Q2.15 39.9 1.05 38.7L0.85 38.45L0.7 38.25Q-0.3 36.85 0.15 35.35L0.5 35L1.05 34.55L8.9 28.55L13.4 25.15L16.8 22.25L16.25 23.8L18.1 23.35L15.95 25L13.6 26.75" />
<path style="fill:#6B4228;fill-opacity:1" d="M14.2,28.3L13.6 26.75L15.95 25L16.7 26.5L17.4 27.9L2.8 38.45L1.75 37.5L14.2 28.3" />
<path style="fill:#9F6D50;fill-opacity:1" d="M1.75,37.5Q1.05 36.65 1.35 35.9L13.6 26.75L14.2 28.3L1.75 37.5" />
<path style="fill:#90D2C6;fill-opacity:1" d="M37.15,24.7L49.35 3.6L49.55 3.3L50.8 2.45L51.25 2.15L43.9 16.15L38.9 25.65L37.5 25.1L37.05 24.9L37.05 24.85L37.15 24.7" />
<path style="fill:#384D5B;fill-opacity:1" d="M50.95,5.6L47.5 12.15L45.2 16.45L43.15 20.45L41.5 23.9L40.45 25.8L39.7 26.9L39.7 26.95L39.45 27.15L38.8 27.4L37 27.5L32.1 27.7L23.55 27.8Q23.15 29.85 21.7 30.35L19.2 30.5Q18.1 30.25 17.55 29.9L15.9 28.55Q14.85 27.45 14.25 25.4Q13.65 23.3 14.2 21.65Q14.7 19.95 15.4 19.5Q16.1 19.05 16.9 18.8L18.45 18.9Q18.4 17.95 19.75 14.55Q21.1 11.1 22.2 9.4L23.95 6.35Q24.65 5.05 26.2 4.65L31.9 3.3L41.8 1.3L49.5 0.1L52.45 0.05Q53.35 0.15 53.15 0.9L50.95 5.6M44.85,6.35Q42.75 7.7 41.45 8.6L37.05 11.55L36.6 11.9L35.55 12.65L31.1 15.85L30.65 16.15L29.8 16.8Q28.6 17.6 27.4 18.55L27.3 18.6L23.6 21.45Q20.3 24.1 19.6 25L19.9 25.45L20.45 26L21.45 26.55L21.7 26.65Q22.65 26.9 37 26.55L37.05 26.55L38.05 26.5L37.05 25.95L35.75 25.2Q31.95 23 29.8 21.3Q27.3 19.3 27.9 19.35L27.95 19.35L28.05 19.35Q30.2 21.1 34.15 23.25Q36.05 24.35 37.05 24.85L37.05 24.9L37.5 25.1L38.9 25.65L43.9 16.15L51.25 2.15L50.8 2.45L49.55 3.3L44.85 6.35M26.7,17L26.45 16.15Q25.6 13.55 25.3 11.5L25.05 10L24.8 8.15L24.75 7.5L24.4 8.15L23.05 10.65Q21.65 13.25 20.5 16.15L20.35 16.6L19.65 18.5L19.25 19.8Q18.35 22.95 19.05 24.35Q21.25 22.15 26.95 17.95L27.05 17.9L29.45 16.15L31.1 14.95L33.1 13.55L36.55 11.15L37.05 10.8L44.85 5.4L50.6 1.5L51.05 1.2Q38.15 2.8 25.55 7L25.8 9.15L26.7 17M15.2,23.85Q15.3 25.05 15.9 26.15Q16.35 27.05 17.1 27.85Q18.1 28.9 19.15 29.2L20.75 29.25Q22.7 28.85 22.65 27.6L21.2 27.4Q19.9 27.05 19 26.05L18.95 26L18.1 24.6Q17.3 22.85 17.95 20.9L18.2 20.2L18.25 20.05L18.1 20Q17 19.65 16.05 20.65Q15.25 21.4 15.2 22.85L15.2 23.85" />
<path style="fill:#E0E6DA;fill-opacity:1" d="M37.15,24.7L37.05 24.85Q36.05 24.35 34.15 23.25Q30.2 21.1 28.05 19.35L27.95 19.35L27.4 18.55Q28.6 17.6 29.8 16.8L30.65 16.15L31.1 15.85L35.55 12.65L36.6 11.9L37.05 11.55L41.45 8.6Q42.75 7.7 44.85 6.35L49.55 3.3L49.35 3.6L30.85 18.15L37.15 24.7M25.8,9.15L26.85 7.95L31.25 6.55L31.1 14.95L29.45 16.15L27.05 17.9L26.95 17.95L26.9 17.8L26.7 17L25.8 9.15M36.55,11.15L36.45 5.55L44.85 3.35L44.85 5.4L37.05 10.8L36.55 11.15" />
<path style="fill:#FFFFFF;fill-opacity:1" d="M44.85,3.35L36.45 5.55L36.55 11.15L33.1 13.55L31.1 14.95L31.25 6.55L26.85 7.95L25.8 9.15L25.55 7Q38.15 2.8 51.05 1.2L50.6 1.5L44.85 5.4L44.85 3.35" />
<path style="fill:#BFC9B6;fill-opacity:1" d="M25.3,11.5Q25.6 13.55 26.45 16.15L26.7 17L26.9 17.8L26.95 17.95Q21.25 22.15 19.05 24.35Q18.35 22.95 19.25 19.8L19.65 18.5L20.35 16.6L23.45 11.75L25.05 10L25.3 11.5M21.2,27.4L22.65 27.6Q22.7 28.85 20.75 29.25L19.15 29.2Q20.1 29.15 20.8 28.1L21.2 27.4M15.9,26.15Q15.3 25.05 15.2 23.85L15.2 22.85L15.75 22.1Q16.65 21.15 17.55 20.95Q16.1 23.6 18.45 26.35Q17 27.6 15.9 26.15" />
<path style="fill:#EEEEEE;fill-opacity:1" d="M20.5,16.15Q21.65 13.25 23.05 10.65L24.4 8.15L24.75 7.5L24.8 8.15L25.05 10L23.45 11.75L20.35 16.6L20.5 16.15M18.15,20.2L17.55 20.95Q16.65 21.15 15.75 22.1L15.2 22.85Q15.25 21.4 16.05 20.65Q17 19.65 18.1 20L18.25 20.05L18.2 20.2L18.15 20.2" />
<path style="fill:#717463;fill-opacity:1" d="M34,25.3L31.4 24.1L26.7 21.7Q26.1 21.7 23.4 23.35L20.95 24.85L19.9 25.45L19.6 25Q20.3 24.1 23.6 21.45L27.3 18.6L27.4 18.55L27.95 19.35L27.9 19.35Q27.3 19.3 29.8 21.3Q31.95 23 35.75 25.2L34 25.3" />
<path style="fill:#737F71;fill-opacity:1" d="M20.45,26L19.9 25.45L20.95 24.85L23.4 23.35Q26.1 21.7 26.7 21.7L31.4 24.1L34 25.3L20.45 26" />
<path style="fill:#ACB0A2;fill-opacity:1" d="M30.85,18.15L49.35 3.6L37.15 24.7L30.85 18.15" />
<path style="fill:#8F9385;fill-opacity:1" d="M20.8,28.1Q20.1 29.15 19.15 29.2Q18.1 28.9 17.1 27.85Q16.35 27.05 15.9 26.15Q17 27.6 18.45 26.35Q16.1 23.6 17.55 20.95L18.15 20.2L18.2 20.2L17.95 20.9Q17.3 22.85 18.1 24.6L18.95 26L19 26.05Q19.9 27.05 21.2 27.4L20.8 28.1" />
<path style="fill:#65A599;fill-opacity:1" d="M34,25.3L35.75 25.2L37.05 25.95L38.05 26.5L37.05 26.55L37 26.55Q22.65 26.9 21.7 26.65L21.45 26.55L20.45 26L34 25.3" />
<path style="fill:#0E3C01;fill-opacity:1" d="M5.15,30Q4.5 31.35 4.8 32.1Q5.1 32.9 6 33.5L6.55 33.85L8.75 34.7L12.25 34.9L14.7 34.05L15.2 33.7L16.3 32.85L17.3 31.3Q17.5 30.6 17.25 30.05L17.15 30.35L16.85 30.8L15.4 32.2Q13.75 33.35 11.8 33.4L9.3 33.05L9.2 33L8.65 32.8L7.75 32.35L7 31.4Q6.55 30.6 7.2 29.5Q7.8 28.45 8.25 28.35Q6.15 28.4 5.15 29.95L5.15 30M17.35,28.6L17.5 28.65L18 29.25L18.35 30.1L18.45 30.45Q18.65 31.3 18.3 32.05L17.55 33.1L16.85 33.8L16.75 33.8L15.2 35Q13.25 36.15 11 36.1Q11.4 37.85 10.35 39.45Q9.2 41.1 8 41.65L7.5 41.05L7.35 40.8Q6.5 39.45 6.85 37.8Q7.2 36.3 8.25 35.65L7.4 35.35L6.4 34.95L6.4 34.9L6.2 34.75L5.15 34.05Q4.35 33.45 3.85 32.35Q3.4 31.35 4.05 29.8Q4.6 28.7 5.25 28.2Q5.85 27.7 6.7 27.5L8.65 27.4Q9.7 27.5 10 27.9Q9.8 27.9 9.05 28.55Q7.25 29.95 7.6 30.5L8 31.1L9.05 31.75L9.6 31.95L10.05 32.05L12.5 32.3Q14.25 32.15 15.5 30.9L17.35 28.6M8.05,40.35L8.2 40.4L9.6 38.85Q10 38.25 10 37.35L9.95 36.1L9.3 35.9Q8.15 36.55 7.8 37.9Q7.65 38.55 7.75 39.25L8.05 40.35" />
<path style="fill:#74C93C;fill-opacity:1" d="M14.3,34Q11.75 34.6 8.65 33.35L8.35 33.2Q6.35 32.35 5.5 31L5.15 29.95Q6.15 28.4 8.25 28.35Q7.8 28.45 7.2 29.5Q6.55 30.6 7 31.4L7.75 32.35L8.65 32.8L9.2 33L9.3 33.05L11.8 33.4Q13.75 33.35 15.4 32.2L16.85 30.8L17.15 30.35L17.25 30.05Q17.5 30.6 17.3 31.3L16.3 32.85L15.2 33.7L14.3 34M10,37.35Q10 38.25 9.6 38.85L8.2 40.4L8.05 40.35L7.75 39.25L8.35 38.35L9.05 37.05L10 37.35" />
<path style="fill:#3F8523;fill-opacity:1" d="M15.2,33.7L14.7 34.05L12.25 34.9L8.75 34.7L6.55 33.85L6 33.5Q5.1 32.9 4.8 32.1Q4.5 31.35 5.15 30L5.15 29.95L5.5 31Q6.35 32.35 8.35 33.2L8.65 33.35Q11.75 34.6 14.3 34L15.2 33.7M9.05,37.05L8.35 38.35L7.75 39.25Q7.65 38.55 7.8 37.9Q8.15 36.55 9.3 35.9L9.95 36.1L10 37.35L9.05 37.05" />
</g>
</svg>
