<?xml version="1.0" encoding="utf-8"?>
<svg version="1.1" id="Layer_1"
xmlns="http://www.w3.org/2000/svg"
xmlns:xlink="http://www.w3.org/1999/xlink"
xmlns:author="http://www.sothink.com"
width="35px" height="33px"
xml:space="preserve">
<g id="337" transform="matrix(1, 0, 0, 1, 3.7, 7.45)">
<path style="fill:#D0A15B;fill-opacity:1" d="M17.35,20.05L17.15 20.3Q16.15 21.7 16.05 23.95Q14 23.9 12 22.35Q10.85 21.45 9.8 20.15L9.45 19.7L8.6 18.45Q8 17.6 7.7 16.75Q7.4 16 7.55 15.35Q7.6 15 8 14.4Q8.45 13.6 13.9 11.85Q19.35 10.1 22.35 15.9Q23.45 18.1 22.25 20.45L22.4 20.25L22.2 20.5L22.05 20.75L22.15 20.6L21.6 21.25L21.1 21.75L20.7 22.1L19.6 22.85Q17.95 21.75 17.35 20.05M8.75,15.05L8.65 15.15L8.75 15.15L8.75 15.05" />
<path style="fill:#9C753C;fill-opacity:1" d="M19.6,22.85L20.7 22.1L21.1 21.75L21.6 21.25L22.15 20.6L22.05 20.75L22.2 20.5L22.4 20.25L22.25 20.45Q23.45 18.1 22.35 15.9Q19.35 10.1 13.9 11.85Q8.45 13.6 8 14.4Q7.6 15 7.55 15.35Q7.4 16 7.7 16.75Q8 17.6 8.6 18.45L9.45 19.7L9.8 20.15Q10.85 21.45 12 22.35Q14 23.9 16.05 23.95Q17.8 23.95 19.6 22.85M20.55,23.45L19.8 23.95Q18.55 24.75 16.7 24.95L16.1 25Q14.5 25 12.95 24.2L10.85 22.8L9.65 21.65L7.8 19.3Q6.6 17.55 6.3 15.75L6.3 15.35L6.4 15.35Q6.3 14.35 7.35 13.55Q9.85 11.55 12.85 10.55Q18.1 9.4 21.55 12.9Q25.45 16.8 23.1 20.65L21.75 22.45L20.55 23.45" />
<path style="fill:#E9CB9E;fill-opacity:1" d="M16.05,23.95Q16.15 21.7 17.15 20.3L17.35 20.05Q17.95 21.75 19.6 22.85Q17.8 23.95 16.05 23.95" />
<path style="fill:#C6A831;fill-opacity:1" d="M8.75,15.15L8.65 15.15L8.75 15.05L8.75 15.15" />
<path style="fill:#626262;fill-opacity:1" d="M2.8,4.5L2.6 5.25L1.65 4.6L1.15 4.3L0.15 3.7Q-0.95 3.1 -1.4 3.1Q0.6 5.05 0.2 6.4L-0.75 9.7Q-1.3 11.6 0.6 13.1L1 13.4L1.65 13.85L1.5 14.35L-0.35 15L-0.15 14.55Q-1.45 13.3 -1.95 11.55Q-2.45 9.75 -1.8 8.05Q-1.15 6.35 -1.5 5.3Q-1.85 4.2 -3.7 1.95Q-3.4 1.75 -2.75 1.7L-0.05 2L0.15 2.05Q1.75 2.6 2 3.2Q2.15 1.9 2.9 0.45Q3.6 -1 5.75 -2.5Q7.9 -4.05 7.75 -2.85L7.7 -1.2L7.75 -0.85L7.9 -0.25Q8.3 -1.95 11.5 -3.4L13 -4.2Q14.85 -5.4 16 -7.05L16.2 -7.45L17.85 -6.05Q19.2 -4.85 19.4 -3.75L20.25 -4.3Q21.5 -5 22.9 -4.95L24.1 -4.75Q24.5 -4.65 23.85 -3.1Q23.2 -1.6 24.75 0.65Q27.4 2.85 28.7 4.9L29.65 6.9L29.8 7.6L29.85 8.15Q30 11.35 28.55 12.65L27.25 11.6L27.55 11.25Q29.3 9.35 27.9 6.7L27.7 6.35L27.65 6.3L25.65 3.4L23.85 1.55Q21.7 -0.3 22.35 -3.55L21.1 -3.25L20.15 -2.6L18.6 -1.05L18.5 -1.4L18.5 -2.1L18.15 -3.6L16.6 -5.25L16.3 -5.5Q15.3 -4.05 12.65 -2.55L12.5 -2.5Q10.45 -1.45 9.5 -0.5L8.95 0.15L7.95 1.8L7.5 1.6Q6.55 1 6.35 -0.45L6.3 -1.4L4.7 0.5L4.2 1.2Q3.25 2.65 2.8 4.5M19.05,-3.7L19.1 -3.7L19.1 -3.75L19.05 -3.7" />
<path style="fill:#F7EAEA;fill-opacity:1" d="M7.75,3.1L7.3 2.75L6.25 1.65L5.65 0.7L5.6 0.7Q5.35 0.95 4.95 2.3L4.55 4.5L4.55 4.55Q4.1 3.45 4.05 2.2L4.2 1.2L4.7 0.5L6.3 -1.4L6.35 -0.45Q6.55 1 7.5 1.6Q7.5 2.6 7.75 3.1M16.65,-4.4Q16.65 -2.65 15.5 -0.85L14.05 0.05L13.4 0.2L12.95 0.25L12.7 0.25L12.7 0.2Q13.7 -0.35 15.2 -2.3L15.2 -2.75Q14.35 -2.75 12.8 -2.05L11.45 -1.3L12.65 -2.55Q15.3 -4.05 16.3 -5.5L16.6 -5.25L16.65 -4.4M20.15,-2.6L21.1 -3.25L22.35 -3.55Q21.7 -0.3 23.85 1.55L25.65 3.4L23.75 2.35L22.1 1Q21.3 0.25 21.15 -0.4L21.05 -1.55L21.1 -2.4L19.15 -0.85L17.3 0.25Q19.65 -1.45 20.15 -2.6M1.25,5.1L1.25 5.6L1.15 7.95L1.25 9.7L1.75 10.75L0.45 9.4L0.25 10.65Q0.25 11.95 1 13.4L0.6 13.1Q-1.3 11.6 -0.75 9.7L0.2 6.4Q0.6 5.05 -1.4 3.1Q-0.95 3.1 0.15 3.7L1.25 5.1" />
<path style="fill:#8E8A89;fill-opacity:1" d="M17.3,0.25L17.2 0.3Q15.1 1.75 13.7 2Q13.75 2.85 14.6 3.5Q15.3 4 15.75 4Q16.4 4 17.1 3.4Q18 2.65 18.6 2.4Q19.4 2.05 20.25 1.85L20.3 1.8L23.25 3.9Q25.65 5.45 26.45 7.6Q27.2 9.75 27.2 10.7L27.2 11.7Q25.65 13.4 25.25 14.7Q24.95 15.65 25.25 16.9Q22.85 14.65 22.85 13.6L22.65 14.85Q22.45 16.05 22.75 16.75L22.75 16.9Q21.15 16.5 19.7 14.9L19.3 14.35L19.35 13.75L20.3 12.75L19.05 12.55Q18.55 12.5 17.3 13.15Q16.05 13.7 14.6 15.15Q13.1 16.55 12.95 18.45L12.75 20.55Q11.85 19.3 11.3 17.9L10.35 15.7L10.2 15.9Q10.4 14.5 11 13.35L12.1 11.75Q10.05 11.8 8.6 13.65Q7 15.6 7 18.5Q7 19.8 7.65 21.3L6.55 20.5Q5.5 19.55 4.9 16.8L4.8 16.95L4.85 15.15L4.7 13.65L4.55 12.7L4.45 12.15L4.2 12.9L3.9 14.1Q3.4 15.45 2.5 16.15Q1.7 16.75 -0.75 17.2L-0.9 17.05L0.75 15.6L1 15.6Q2.6 14.4 2.75 13.8L2.75 13.7L2.7 11.15L3.1 7.8Q3.4 8.95 5.05 9.6L6.1 9.95L5.95 9.6Q5.6 8.45 5.6 7.55L5.6 7.1L4.3 6.75L2.65 6.05L1.25 5.1L0.15 3.7L1.15 4.3L1.65 4.6L2.6 5.25L2.8 4.5Q3.25 2.65 4.2 1.2L4.05 2.2Q4.1 3.45 4.55 4.55L5.15 5.65L5.65 6.4Q5.75 4.65 6.35 4.1Q6.5 4.9 7.35 5.65Q8.25 6.5 8.95 6.5Q9.6 6.5 9.9 5.35L10.6 2.9Q11.35 0.85 13.4 0.2L14.05 0.05L15.5 -0.85Q16.65 -2.65 16.65 -4.4L16.6 -5.25L18.15 -3.6L18.5 -2.1L18.5 -1.4L18.6 -1.05L20.15 -2.6Q19.65 -1.45 17.3 0.25M11.45,-1.3L10.9 -0.8Q9.1 0.9 8.75 3.3L8.65 4.25L7.8 3.2L7.75 3.1Q7.5 2.6 7.5 1.6L7.95 1.8L8.95 0.15L9.5 -0.5Q10.45 -1.45 12.5 -2.5L12.65 -2.55L11.45 -1.3" />
<path style="fill:#D9CFCB;fill-opacity:1" d="M10.6,2.9L9.9 5.35Q9.6 6.5 8.95 6.5Q8.25 6.5 7.35 5.65Q6.5 4.9 6.35 4.1Q5.75 4.65 5.65 6.4L5.15 5.65L4.55 4.55L4.55 4.5L4.95 2.3Q5.35 0.95 5.6 0.7L5.65 0.7L6.25 1.65L7.3 2.75L7.75 3.1L7.8 3.2L8.65 4.25L8.75 3.3Q9.1 0.9 10.9 -0.8L11.45 -1.3L12.8 -2.05Q14.35 -2.75 15.2 -2.75L15.2 -2.3Q13.7 -0.35 12.7 0.2L12.7 0.25L12.95 0.25L13.4 0.2Q11.35 0.85 10.6 2.9M27.2,11.7L27.2 10.7Q27.2 9.75 26.45 7.6Q25.65 5.45 23.25 3.9L20.3 1.8L20.25 1.85Q19.4 2.05 18.6 2.4Q18 2.65 17.1 3.4Q16.4 4 15.75 4Q15.3 4 14.6 3.5Q13.75 2.85 13.7 2Q15.1 1.75 17.2 0.3L17.3 0.25L19.15 -0.85L21.1 -2.4L21.05 -1.55L21.15 -0.4Q21.3 0.25 22.1 1L23.75 2.35L25.65 3.4L27.65 6.3L27.7 6.35L27.9 6.7Q29.3 9.35 27.55 11.25L27.25 11.6L27.2 11.7M1.5,14.35L1.65 13.85L1 13.4Q0.25 11.95 0.25 10.65L0.45 9.4L1.75 10.75L1.25 9.7L1.15 7.95L1.25 5.6L1.25 5.1L2.65 6.05L4.3 6.75L5.6 7.1L5.6 7.55Q5.6 8.45 5.95 9.6L6.1 9.95L5.05 9.6Q3.4 8.95 3.1 7.8L2.7 11.15L2.75 13.7L2.75 13.8Q2.6 14.4 1 15.6L0.75 15.6L1.5 14.35" />
<path style="fill:#6D6D6C;fill-opacity:1" d="M25.7,18.25L26.5 20.45Q25 20.4 22.95 19.35Q20.85 18.3 19.95 16.95L18.95 15.4L18.8 15.2L16.55 16.6Q14.5 17.9 13.7 20.5L13.5 21.45L12.75 20.55L12.95 18.45Q13.1 16.55 14.6 15.15Q16.05 13.7 17.3 13.15Q18.55 12.5 19.05 12.55L20.3 12.75L19.35 13.75L19.3 14.35L19.7 14.9Q21.15 16.5 22.75 16.9L22.75 16.75Q22.45 16.05 22.65 14.85L22.85 13.6Q22.85 14.65 25.25 16.9L25.7 18.25M2.05,17.95Q0.2 17.85 -0.75 17.2Q1.7 16.75 2.5 16.15Q3.4 15.45 3.9 14.1L4.2 12.9L4.45 12.15L4.55 12.7L4.7 13.65L4.85 15.15L4.8 16.95Q3.95 18.05 2.05 17.95M8.7,17.6Q8.15 18.6 8.1 20.2L8.2 21.45L7.65 21.3Q7 19.8 7 18.5Q7 15.6 8.6 13.65Q10.05 11.8 12.1 11.75L11 13.35Q10.4 14.5 10.2 15.9Q9.1 16.8 8.7 17.6" />
<path style="fill:#484848;fill-opacity:1" d="M10.2,15.9L10.35 15.7L11.3 17.9Q11.85 19.3 12.75 20.55L13.5 21.45L13.7 20.5Q14.5 17.9 16.55 16.6L18.8 15.2L18.95 15.4L19.95 16.95Q20.85 18.3 22.95 19.35Q25 20.4 26.5 20.45L25.7 18.25L25.25 16.9Q24.95 15.65 25.25 14.7Q25.65 13.4 27.2 11.7L27.25 11.6L28.55 12.65L28.35 12.8Q27.6 13.35 27.15 14Q26.65 14.75 26.6 15.65L26.6 16.85L27 18.35L27.2 18.8Q27.9 20.25 28.9 21.1Q28.2 21.7 27.2 21.95Q26.15 22.15 23.35 21.25Q20.5 20.3 19.15 18.5L19.05 18.4L18.35 17.15Q17.35 17.25 16.35 18.4Q15.3 19.5 15.1 20.75Q14.85 21.95 15.05 22.75L13.9 22.85L13.55 22.75L12.4 22.15Q10.85 21.1 10.05 18.65Q9.7 18.9 9.6 20.85Q9.5 22.95 9.7 23L8.45 22.85Q6.7 22.5 5.7 21.4Q4.45 20 4.3 19.2L4.25 19Q1.8 19.8 -1.3 18.55L-2.95 17.45L-3.1 17.3L-0.8 15.5L-0.8 15.45L-0.35 15L1.5 14.35L0.75 15.6L-0.9 17.05L-0.75 17.2Q0.2 17.85 2.05 17.95Q3.95 18.05 4.8 16.95L4.9 16.8Q5.5 19.55 6.55 20.5L7.65 21.3L8.2 21.45L8.1 20.2Q8.15 18.6 8.7 17.6Q9.1 16.8 10.2 15.9" />
<path style="fill:#912F2F;fill-opacity:1" d="M15,13.1L14.9 13.1L14.9 13L15 13.1" />
<path style="fill:#B83E3E;fill-opacity:1" d="M26.65,6.9L27.3 6.75L27.65 7.2Q28.45 8.15 28.5 10.1Q27.5 11 26.55 11.2L23.75 11.85L24.3 10.8Q18.35 12.5 15.3 13.05Q16.45 12.5 17.35 11.4Q14.55 12.25 12 12.5L12.1 11.95Q12.25 11.35 13.15 9.65L13.7 8.75L17.45 8.2L23.35 7.5L24.25 7.35L23.75 9.45Q25.75 8.15 26.65 6.9M9.95,9Q8.65 10.5 8.65 11.9L7.4 11.95Q2.5 12 -1.4 10.55L-1.5 9.35L-1.35 9.2L-1.1 9.1L2 9.4L9.95 9" />
<path style="fill:#F56565;fill-opacity:1" d="M28.5,10.1Q28.45 8.15 27.65 7.2L27.3 6.75L26.65 6.9Q27.2 6.05 27.35 5.25L27.55 5.25Q28.35 5.4 28.7 7.75L28.75 10L28.5 10.1M2,9.4L-1.1 9.1L-1.35 9.2L-1.5 9.35Q-1.45 8.6 -1 8.1Q4.9 8.4 11 7.9L10.25 8.65L9.95 9L2 9.4M14.65,7.5L24.2 5.95L24.25 6.75L24.25 7.35L23.35 7.5L17.45 8.2L13.7 8.75Q14.2 7.95 14.65 7.5" />
<path style="fill:#7E2C2C;fill-opacity:1" d="M23.75,9.45L24.25 7.35L24.25 6.75L24.2 5.95L24.45 5.85Q26.45 5.2 27.35 5.25Q27.2 6.05 26.65 6.9Q25.75 8.15 23.75 9.45M13.7,8.75L13.15 9.65Q12.25 11.35 12.1 11.95L12 12.5Q14.55 12.25 17.35 11.4Q16.45 12.5 15.3 13.05Q18.35 12.5 24.3 10.8L23.75 11.85L26.55 11.2Q27.5 11 28.5 10.1L28.75 10L28.45 11.15L28.35 11.35Q27.8 12.3 26.5 13Q25 13.7 22 14.2Q18.9 14.7 12.95 14.3L3.45 13.15Q-0.05 12.35 -0.65 11.85L-1.35 10.6L-1.4 10.55Q2.5 12 7.4 11.95L8.65 11.9Q8.65 10.5 9.95 9L10.25 8.65L11 7.9L14.35 7.55L14.65 7.5Q14.2 7.95 13.7 8.75M14.9,13L14.9 13.1L15 13.1L14.9 13" />
<path style="fill:#5D2020;fill-opacity:1" d="M30.45,9.85Q30 13.85 26.5 14.75Q24.7 15.5 22.65 15.7Q16.75 16.35 10.3 15.6Q3.9 14.85 -1.5 13.2Q-2.45 12 -2.8 10.6L-2.85 10.35L-2.95 9.45Q-3 7.5 -1.4 6.7L2.3 7L10.55 6.65L20.55 5.1L27.1 3.75L27.95 3.65Q29.2 3.45 29.95 5.65Q30.55 7.4 30.5 9.35L30.45 9.85M24.45,5.85L24.2 5.95L14.65 7.5L14.35 7.55L11 7.9Q4.9 8.4 -1 8.1Q-1.45 8.6 -1.5 9.35L-1.4 10.55L-1.35 10.6L-0.65 11.85Q-0.05 12.35 3.45 13.15L12.95 14.3Q18.9 14.7 22 14.2Q25 13.7 26.5 13Q27.8 12.3 28.35 11.35L28.45 11.15L28.75 10L28.7 7.75Q28.35 5.4 27.55 5.25L27.35 5.25Q26.45 5.2 24.45 5.85" />
<path style="fill:#626262;fill-opacity:1" d="M24.2,4.6Q24.65 5.4 24.8 6.8L25.35 6.05L25.75 5L25.8 4.5L25.7 3.8L25.6 3.45L25.45 3.15L25.35 3L25.55 2.75Q26.4 3.45 26.65 4.2Q26.95 5.1 26.35 6.15L25.35 7.3L24.2 8.2L23.65 5.7Q23.05 4 22.6 3.7Q22.25 3.35 23 3.65L23.35 3.8L23.7 4L24.2 4.6M9.5,6.2Q8.95 7.8 9.15 9.15L9.45 10.25L9.5 10.35L10.3 11.6Q11.1 7.65 13.85 5.85L14.8 5.25L15.55 4.95L15.9 4.85L15.3 5.45L14.65 6.1Q13.25 7.6 12.35 9.35Q11.05 11.8 11.25 13.3Q7.95 11.8 7.8 9.05Q7.6 6.3 9.85 5.2L9.85 5.25L9.5 6.2" />
<path style="fill:#D9CFCB;fill-opacity:1" d="M25,5.55L24.35 4.65L24.45 4.75L24.2 4.6L23.7 4L24.45 3.9L25.15 3.85L25.2 3.85L25.3 4L25.65 4.7L25.75 5L25.35 6.05L25 5.55M12.7,6.35Q10.8 7.85 10.5 9.35L10.5 9.3L10.1 8.65L9.65 9.7L9.5 10.2L9.4 9.05L9.6 7.5L9.8 6.95L9.85 6.95L10.05 7.9L10 7.25Q10.1 6.5 10.7 5.65L11.4 4.95L12.25 4.9L14.55 5.2Q13.65 5.6 12.7 6.35" />
<path style="fill:#8E8A89;fill-opacity:1" d="M25.35,6.05L24.8 6.8Q24.65 5.4 24.2 4.6L24.45 4.75L24.35 4.65L25 5.55L25.35 6.05M9.5,10.2L9.65 9.7L10.1 8.65L10.5 9.3L10.5 9.35Q10.8 7.85 12.7 6.35Q13.65 5.6 14.55 5.2L14.8 5.25L13.85 5.85Q11.1 7.65 10.3 11.6L9.5 10.35L9.45 10.25L9.5 10.2" />
<path style="fill:#F7EAEA;fill-opacity:1" d="M25.15,3.85L24.75 3.35L24 2.45L24.1 2.45L25.35 3L25.45 3.15L25.6 3.45L25.7 3.8L25.8 4.5L25.75 5L25.65 4.7L25.3 4L25.2 3.85L25.15 3.85M9.45,10.25L9.15 9.15Q8.95 7.8 9.5 6.2L9.85 5.25L11.4 4.95L10.7 5.65Q10.1 6.5 10 7.25L10.05 7.9L9.85 6.95L9.8 6.95L9.6 7.5L9.4 9.05L9.5 10.2L9.45 10.25" />
</g>
</svg>
