<?xml version="1.0" encoding="utf-8"?>
<svg version="1.1" id="Layer_1"
xmlns="http://www.w3.org/2000/svg"
xmlns:xlink="http://www.w3.org/1999/xlink"
xmlns:author="http://www.sothink.com"
width="46px" height="55px"
xml:space="preserve">
<g id="229" transform="matrix(1, 0, 0, 1, -7.45, 10.8)">
<path style="fill:#5F1000;fill-opacity:1" d="M19.5,-8.4Q18.45 -6.05 17.65 -2.75Q16.8 0.5 17.3 2.15Q19.95 -3.25 25.45 -6.9L26.05 -7.25Q25.25 -4.55 25.4 -1Q26.95 -2.9 30.05 -4.9Q32.05 -6.2 34.5 -6.8L37.8 -7.25Q37.15 -6.7 36.2 -3.7L35.6 -1.25Q35.4 -0.05 35.6 0.8Q36.25 -0.45 40.7 -4.25Q45.2 -8.1 53.3 -10.8Q52.95 -10.65 51.35 -8.7L50.3 -7.45L45.5 -1.8Q43.3 0.75 41.25 5.25Q39.2 9.75 38.85 13Q38.5 16.25 38.6 18.15Q38.65 20 37.6 19.1L35.9 17.4L35 16.15L34.4 18.35Q33.85 20.85 34.45 23.7L34.85 26.55L33.4 25.95Q31.15 24.75 29.25 23.05L26.6 20.35L25.75 21.95Q24.85 23.7 24.55 25.7Q23 35.25 27.35 41.6L28.65 43.5Q29 44.05 28.8 44.1L26.35 43.8Q24.35 43.4 21.8 42.05Q19 40.55 16.15 38.05Q11.6 34.05 9.3 27.6L8.05 23.15Q7.1 18.75 7.65 13.4Q8.1 8.7 9.5 5.15Q11.2 0.8 13 -2.25Q15.15 -5.4 17.3 -7.05L19.5 -8.4M9.35,19.85Q9.85 24.75 11.9 29.8Q12.4 31.05 14.05 33.2L16.75 36.3Q19.75 39.4 24.3 41.4L26.25 42.25Q24.8 41 24.2 39.3Q23.5 37.2 23.1 35.15Q22.45 31.8 22.65 28.65Q22.9 24.7 24.5 21.05Q26 17.55 26.7 17.65Q29.9 21.5 32.85 23.65Q32.2 22.45 32.15 20.8Q32.05 17.55 34.75 12.6Q35.75 14.55 37.2 16.4Q37.1 15 37.35 13.5Q38.55 5.9 42.25 -0.05Q44.6 -3.9 48 -7.05L44.9 -5.15Q39.9 -1.65 34.7 4.55L34.65 4.5Q34.15 3.55 33.8 1.1L33.7 0.5Q33.35 -2.8 35.2 -5.6L33 -4.75L32.35 -4.4Q30.5 -3.45 28.35 -1.5L25.35 1.55L25 2L24.45 2.65Q22.9 -0.7 24.05 -3.8L22.75 -2.4L20.85 -0.15Q18.75 2.6 16.95 5.3L16.2 6.5L15.9 5.05Q14.85 -1.25 17 -5.05L16 -3.75L15.35 -2.8Q8 8.1 9.35 19.85" />
<path style="fill:#D24B2C;fill-opacity:1" d="M24.45,2.65L25 2L25.35 1.55L28.35 -1.5Q30.5 -3.45 32.35 -4.4L33 -4.75L31.9 -3.15Q28.5 2.2 29.75 8.1Q30.5 3.8 33.7 0.5L33.8 1.1Q34.15 3.55 34.65 4.5L34.7 4.55Q39.9 -1.65 44.9 -5.15L48 -7.05Q44.6 -3.9 42.25 -0.05L39.95 2.9Q36.9 7 35.8 11.7Q34.65 9.7 34.4 7.8L33.45 9.15Q30.6 13.6 30.4 18.75Q27.85 16.4 26.75 13.35Q25.3 16.45 24.1 19.75Q22.4 24.5 22.65 28.65Q22.45 31.8 23.1 35.15L22.4 32.75Q21.2 27.35 21.6 21.8Q22 16.9 23.7 12.4Q24.3 10.05 25.8 7.75L26.05 7.4L27.55 5.2L25.95 6.35L22.65 9.1Q18.65 12.8 17.5 17.9Q17.3 14.95 18.15 11.85Q18.7 9.65 19.5 7.6Q16.9 10.8 15.25 14.65L14.25 17.6Q13.7 15.35 13.55 12.85L13.5 9Q10.2 14.4 9.35 19.85Q8 8.1 15.35 -2.8Q13.35 2.95 14.65 8.6L15.9 5.05L16.2 6.5L16.95 5.3Q18.75 2.6 20.85 -0.15L22.75 -2.4Q20.45 2.45 20.75 7.15L24.45 2.65" />
<path style="fill:#FFC34F;fill-opacity:1" d="M13.5,9L13.55 12.85Q13.7 15.35 14.25 17.6L15.25 14.65Q16.9 10.8 19.5 7.6Q18.7 9.65 18.15 11.85Q17.3 14.95 17.5 17.9Q18.65 12.8 22.65 9.1L25.95 6.35L27.55 5.2L26.05 7.4L25.8 7.75Q24.3 10.05 23.7 12.4Q22 16.9 21.6 21.8Q21.2 27.35 22.4 32.75L23.1 35.15Q23.5 37.2 24.2 39.3Q24.8 41 26.25 42.25L24.3 41.4Q19.75 39.4 16.75 36.3L14.05 33.2Q12.4 31.05 11.9 29.8Q9.85 24.75 9.35 19.85Q10.2 14.4 13.5 9M15.95,18.15Q13.75 21.95 14.5 26.35Q15.25 31.1 18.65 34.8Q22.05 38.45 19.55 33.7Q17 28.95 16.15 23.55Q15.55 19.55 15.95 18.15" />
<path style="fill:#FFF18C;fill-opacity:1" d="M16.15,23.55Q17 28.95 19.55 33.7Q22.05 38.45 18.65 34.8Q15.25 31.1 14.5 26.35Q13.75 21.95 15.95 18.15Q15.55 19.55 16.15 23.55" />
<path style="fill:#87150E;fill-opacity:1" d="M14.65,8.6Q13.35 2.95 15.35 -2.8L16 -3.75L17 -5.05Q14.85 -1.25 15.9 5.05L14.65 8.6M20.75,7.15Q20.45 2.45 22.75 -2.4L24.05 -3.8Q22.9 -0.7 24.45 2.65L20.75 7.15M29.75,8.1Q28.5 2.2 31.9 -3.15L33 -4.75L35.2 -5.6Q33.35 -2.8 33.7 0.5Q30.5 3.8 29.75 8.1M42.25,-0.05Q38.55 5.9 37.35 13.5Q37.1 15 37.2 16.4Q35.75 14.55 34.75 12.6Q32.05 17.55 32.15 20.8Q32.2 22.45 32.85 23.65Q29.9 21.5 26.7 17.65Q26 17.55 24.5 21.05Q22.9 24.7 22.65 28.65Q22.4 24.5 24.1 19.75Q25.3 16.45 26.75 13.35Q27.85 16.4 30.4 18.75Q30.6 13.6 33.45 9.15L34.4 7.8Q34.65 9.7 35.8 11.7Q36.9 7 39.95 2.9L42.25 -0.05" />
</g>
</svg>
