<?xml version="1.0" encoding="utf-8"?>
<svg version="1.1" id="Layer_1"
xmlns="http://www.w3.org/2000/svg"
xmlns:xlink="http://www.w3.org/1999/xlink"
xmlns:author="http://www.sothink.com"
width="152px" height="80px"
xml:space="preserve">
<g id="756" transform="matrix(1, 0, 0, 1, 16.6, 17.3)">
<path style="fill:#F7E3CC;fill-opacity:1" d="M-16.6,-17.3L135.35 -17.3L135.35 51.1L65.9 51.1L57.25 62.4L48.7 51.1L40 51.1L40 51.15L-16.6 51.1L-16.6 40.55L-16.6 39.05L-16.6 33.05L-16.6 -11.35L-16.6 -17.3" />
<path style="fill:#95154D;fill-opacity:1" d="M1.2,-2.5L-0.2 -3L-1.75 -3.15Q-2.85 -3.15 -3.6 -2.65Q-4.3 -2.15 -4.7 -1.3Q-5.05 -0.45 -5.05 0.7Q-5.05 1.85 -4.7 2.7Q-4.3 3.55 -3.6 4.05Q-2.85 4.55 -1.75 4.55L-0.2 4.4L1.2 3.9L1.4 5.85L-0.05 6.35L-1.75 6.55Q-3.4 6.5 -4.6 5.8Q-5.85 5.1 -6.55 3.8Q-7.25 2.45 -7.3 0.7Q-7.25 -1.05 -6.55 -2.4Q-5.85 -3.7 -4.6 -4.4Q-3.4 -5.1 -1.75 -5.15L-0.05 -4.95L1.4 -4.45L1.2 -2.5M5,-4.4Q6.2 -5.1 7.85 -5.15Q9.45 -5.1 10.7 -4.4Q11.9 -3.7 12.65 -2.4Q13.35 -1.05 13.35 0.7Q13.35 2.45 12.65 3.8Q11.9 5.1 10.7 5.8Q9.45 6.5 7.85 6.55Q6.2 6.5 5 5.8Q3.75 5.1 3.05 3.8Q2.35 2.45 2.3 0.7Q2.35 -1.05 3.05 -2.4Q3.75 -3.7 5 -4.4M6,-2.65Q5.3 -2.15 4.9 -1.3Q4.55 -0.45 4.55 0.7Q4.55 1.85 4.9 2.7Q5.3 3.55 6 4.05Q6.75 4.55 7.85 4.55L9.65 4.05Q10.4 3.55 10.75 2.7L11.1 0.7L10.75 -1.3Q10.4 -2.15 9.65 -2.65L7.85 -3.15Q6.75 -3.15 6 -2.65M17.15,-4.9L21.95 2.35L21.95 -4.9L24 -4.9L24 6.3L22.3 6.3L17.2 -1.4L17.2 6.3L15.15 6.3L15.15 -4.9L17.15 -4.9M25.45,-2.9L25.45 -4.9L33.8 -4.9L33.8 -2.9L30.65 -2.9L30.65 6.3L28.6 6.3L28.6 -2.9L25.45 -2.9M39.4,-4.9L41.35 -4.6Q42.2 -4.3 42.7 -3.6Q43.2 -2.9 43.25 -1.65L42.95 -0.2L42.3 0.85L41.35 1.6L43.85 6.3L41.75 6.3L39.4 2.15L37.35 2.15L37.35 6.3L35.3 6.3L35.3 -4.9L39.4 -4.9M37.35,-3.2L37.35 0.2L38.85 0.2L40.25 0L40.9 -0.6L41.1 -1.55L40.9 -2.4L40.25 -3L38.9 -3.2L37.35 -3.2M50.15,-5.15Q51.75 -5.1 53 -4.4Q54.2 -3.7 54.95 -2.4Q55.65 -1.05 55.65 0.7Q55.65 2.45 54.95 3.8Q54.2 5.1 53 5.8Q51.75 6.5 50.15 6.55Q48.5 6.5 47.3 5.8Q46.05 5.1 45.35 3.8Q44.65 2.45 44.6 0.7Q44.65 -1.05 45.35 -2.4Q46.05 -3.7 47.3 -4.4Q48.5 -5.1 50.15 -5.15M48.3,-2.65Q47.6 -2.15 47.2 -1.3Q46.85 -0.45 46.85 0.7Q46.85 1.85 47.2 2.7Q47.6 3.55 48.3 4.05Q49.05 4.55 50.15 4.55Q51.2 4.55 51.95 4.05Q52.7 3.55 53.05 2.7Q53.4 1.85 53.4 0.7Q53.4 -0.45 53.05 -1.3Q52.7 -2.15 51.95 -2.65Q51.2 -3.15 50.15 -3.15Q49.05 -3.15 48.3 -2.65M59.5,-4.9L59.5 4.3L64.1 4.3L64.1 6.3L57.45 6.3L57.45 -4.9L59.5 -4.9M65.7,-4L66.95 -4.8L68.85 -5.15L70.35 -5L71.6 -4.65L72.45 -4.25L72.2 -2.15L70.55 -2.9L68.95 -3.2L68 -3.1Q67.55 -3 67.2 -2.7Q66.9 -2.45 66.9 -2Q66.9 -1.55 67.2 -1.25L68 -0.75L69.15 -0.35L70.5 0.05L71.75 0.7L72.65 1.75Q73 2.35 73 3.25L72.85 4.3L72.25 5.35L70.95 6.2L68.7 6.55L66.45 6.3Q65.45 6.05 64.95 5.7L65.2 3.35L66.55 4.2L68.75 4.55L70.2 4.3Q70.7 4 70.75 3.35L70.35 2.4L69.4 1.8L68.1 1.35L66.55 0.75L65.3 -0.2Q64.85 -0.8 64.8 -1.75L65 -2.9L65.7 -4M80.35,-4.4Q81.6 -5.1 83.25 -5.15L84.4 -5.05L85.6 -4.8L86.6 -4.45L86.4 -2.5L84.9 -2.95L83.3 -3.15Q82.15 -3.15 81.4 -2.65Q80.6 -2.15 80.25 -1.3Q79.9 -0.45 79.9 0.65Q79.9 1.8 80.3 2.7Q80.7 3.55 81.45 4.05Q82.25 4.55 83.4 4.55L84.15 4.5L84.95 4.4L84.95 2.4L83.7 2.4L83.7 0.7L87 0.7L87 5.7L85.9 6.1L84.5 6.4L83.15 6.55Q81.55 6.5 80.35 5.8Q79.1 5.1 78.4 3.75Q77.7 2.45 77.65 0.7Q77.7 -1.1 78.4 -2.4Q79.1 -3.7 80.35 -4.4M90.85,-4.9L90.85 0.8L91.05 2.7Q91.25 3.55 91.8 4.05Q92.35 4.55 93.45 4.55Q94.5 4.55 95.1 4.05L95.85 2.7L96.05 0.8L96.05 -4.9L98.1 -4.9L98.1 1.5Q98.1 3.05 97.6 4.15Q97.1 5.3 96.05 5.9Q95 6.5 93.45 6.55Q91.85 6.5 90.85 5.9Q89.8 5.3 89.3 4.15Q88.8 3.05 88.8 1.5L88.8 -4.9L90.85 -4.9M109.1,-4.9Q110.75 -4.9 112 -4.25Q113.2 -3.55 113.95 -2.3Q114.65 -1.05 114.65 0.7Q114.65 2.45 113.95 3.7Q113.2 4.95 112 5.65Q110.75 6.3 109.1 6.3L104.95 6.3L104.95 -4.9L109.1 -4.9M107,-2.95L107 4.35L109.1 4.35Q110.75 4.3 111.6 3.35Q112.4 2.4 112.4 0.7Q112.4 -1 111.6 -1.95Q110.75 -2.9 109.1 -2.95L107 -2.95M118.55,-0.55L122.45 -0.55L122.45 1.45L118.55 1.45L118.55 4.3L123.75 4.3L123.75 6.3L116.45 6.3L116.45 -4.9L123.6 -4.9L123.6 -2.9L118.55 -2.9L118.55 -0.55M102.5,-4.9L102.5 6.3L100.45 6.3L100.45 -4.9L102.5 -4.9" />
<path style="fill:#680B01;fill-opacity:1" d="M108.45,15.6L108.45 24.7L107.05 24.7L102.9 18.45L102.9 24.7L101.25 24.7L101.25 15.6L102.9 15.6L106.8 21.5L106.8 15.6L108.45 15.6M110.65,16.35Q111.05 15.9 111.7 15.65L113.25 15.4L114.45 15.55L115.45 15.8L116.15 16.1L115.95 17.8L114.6 17.2L113.3 17L112.55 17.1Q112.15 17.15 111.9 17.35Q111.65 17.6 111.65 17.95L111.9 18.55L112.55 18.95L113.45 19.3L114.55 19.65L115.6 20.15L116.3 21L116.6 22.25L116.5 23.1L116 23.95L114.95 24.6L113.1 24.9L111.25 24.7L110.1 24.2L110.25 22.3L111.35 23L113.15 23.3L114.3 23.05Q114.75 22.85 114.75 22.3L114.45 21.55Q114.15 21.25 113.7 21.05L112.65 20.65L111.35 20.2L110.35 19.45Q109.95 18.95 109.95 18.15Q109.95 17.7 110.1 17.2L110.65 16.35M87.75,17.2L87.75 24.7L86.05 24.7L86.05 17.2L83.5 17.2L83.5 15.6L90.3 15.6L90.3 17.2L87.75 17.2M83,17.2L80.45 17.2L80.45 24.7L78.75 24.7L78.75 17.2L76.2 17.2L76.2 15.6L83 15.6L83 17.2M99.2,17.65Q99.75 18.7 99.8 20.15Q99.75 21.6 99.2 22.65Q98.6 23.7 97.6 24.3Q96.6 24.9 95.3 24.9Q94 24.9 92.95 24.3Q91.95 23.7 91.4 22.65Q90.8 21.6 90.8 20.15Q90.8 18.7 91.4 17.65Q91.95 16.6 92.95 16Q94 15.4 95.3 15.4Q96.6 15.4 97.6 16Q98.6 16.6 99.2 17.65M96.75,17.4Q96.2 17 95.3 17Q94.4 17 93.8 17.4Q93.25 17.8 92.95 18.5Q92.65 19.25 92.65 20.15Q92.65 21.05 92.95 21.75Q93.25 22.5 93.8 22.9Q94.4 23.3 95.3 23.3Q96.2 23.3 96.75 22.9Q97.35 22.5 97.65 21.75L97.95 20.15L97.65 18.5Q97.35 17.8 96.75 17.4M96.15,34.95L99.35 34.95L99.35 36.55L96.15 36.55L96.15 38.9L100.4 38.9L100.4 40.5L94.45 40.5L94.45 31.4L100.25 31.4L100.25 33L96.15 33L96.15 34.95M92.35,32.45Q92.75 33.05 92.75 34.05L92.55 35.2L92 36.05L91.2 36.7L93.25 40.5L91.55 40.5L89.65 37.1L87.95 37.1L87.95 40.5L86.3 40.5L86.3 31.4L89.65 31.4L91.2 31.65Q91.95 31.9 92.35 32.45M83.8,36.55L80.6 36.55L80.6 38.9L84.85 38.9L84.85 40.5L78.9 40.5L78.9 31.4L84.7 31.4L84.7 33L80.6 33L80.6 34.95L83.8 34.95L83.8 36.55M90.35,32.95L89.25 32.8L87.95 32.8L87.95 35.55L89.2 35.55L90.35 35.4L90.9 34.9L91 34.15L90.9 33.4L90.35 32.95M106.2,40.5L104.6 40.5L104.6 38.9L106.2 38.9L106.2 40.5M106.2,30.75L105.9 37.9L104.85 37.9L104.6 30.75L106.2 30.75M69.2,15.6L69.2 20.25Q69.2 21.1 69.35 21.8Q69.55 22.45 70 22.85Q70.45 23.3 71.3 23.3Q72.2 23.3 72.65 22.85L73.25 21.8L73.4 20.25L73.4 15.6L75.1 15.6L75.1 20.8Q75.1 22.05 74.7 22.95Q74.25 23.85 73.45 24.4L71.3 24.9Q70.05 24.9 69.2 24.4Q68.35 23.85 67.95 22.95Q67.55 22.05 67.55 20.8L67.55 15.6L69.2 15.6M62.65,17L61.15 17L61.15 19.25L62.8 19.25L63.3 19.15L63.7 18.85L63.9 18.2L63.75 17.45L63.3 17.1L62.65 17M65.45,17.95L65.25 19.05L64.7 19.85Q65.45 20.15 65.85 20.65Q66.25 21.15 66.25 22L65.95 23.35L65.2 24.15L64.15 24.6L63 24.7L59.5 24.7L59.5 15.6L61.95 15.6L63.8 15.75Q64.55 15.95 65 16.45Q65.45 16.95 65.45 17.95M61.15,20.55L61.15 23.3L62.8 23.3L64.05 23Q64.55 22.7 64.55 21.95Q64.55 21.15 64.05 20.85Q63.6 20.55 62.9 20.55L61.15 20.55M41.25,24.7L39.6 24.7L39.6 15.6L41.25 15.6L41.25 19.15L45.55 19.15L45.55 15.6L47.2 15.6L47.2 24.7L45.55 24.7L45.55 20.75L41.25 20.75L41.25 24.7M49.2,15.6L55 15.6L55 17.2L50.9 17.2L50.9 19.15L54.1 19.15L54.1 20.75L50.9 20.75L50.9 23.1L55.15 23.1L55.15 24.7L49.2 24.7L49.2 15.6M55.75,31.4L55.75 40.5L54.35 40.5L50.2 34.25L50.2 40.5L48.55 40.5L48.55 31.4L50.2 31.4L54.1 37.3L54.1 31.4L55.75 31.4M59.3,34.3Q59.05 35 59.05 35.9Q59.05 36.85 59.35 37.55Q59.65 38.25 60.3 38.65Q60.9 39.1 61.85 39.1L62.45 39.05L63.1 38.95L63.1 37.3L62.1 37.3L62.1 35.95L64.75 35.95L64.75 40L63.9 40.35L62.75 40.6L61.65 40.7Q60.35 40.7 59.35 40.1Q58.35 39.5 57.8 38.45Q57.2 37.4 57.2 35.95Q57.2 34.5 57.8 33.45Q58.35 32.4 59.4 31.8Q60.4 31.2 61.75 31.2L62.7 31.3L63.65 31.45L64.5 31.75L64.3 33.35L63.1 32.95L61.8 32.8Q60.85 32.8 60.25 33.2Q59.6 33.65 59.3 34.3M42.6,31.9L43.35 32.8L43.6 34.3L43.3 35.9L42.5 36.9L41.5 37.35L40.45 37.5L38.8 37.5L38.8 40.5L37.15 40.5L37.15 31.4L39.7 31.4L41.4 31.5L42.6 31.9M41.8,33.45L41.25 32.95L40.2 32.8L38.8 32.8L38.8 35.95L40.2 35.95Q41.1 35.95 41.55 35.6Q41.95 35.2 41.95 34.3L41.8 33.45M46.55,31.4L46.55 40.5L44.9 40.5L44.9 31.4L46.55 31.4M70.95,36.55L70.95 40.5L69.3 40.5L69.3 31.4L70.95 31.4L70.95 34.95L75.25 34.95L75.25 31.4L76.9 31.4L76.9 40.5L75.25 40.5L75.25 36.55L70.95 36.55M27.45,17.7Q28.05 18.7 28.05 20.15Q28.05 21.6 27.45 22.6L25.9 24.15Q24.85 24.7 23.55 24.7L20.15 24.7L20.15 15.6L23.55 15.6Q24.85 15.6 25.9 16.15Q26.9 16.7 27.45 17.7M21.8,17.2L21.8 23.1L23.55 23.1Q24.9 23.1 25.55 22.3Q26.2 21.55 26.2 20.15Q26.2 18.75 25.55 18Q24.9 17.2 23.55 17.2L21.8 17.2M35.85,17.2L35.85 24.7L34.15 24.7L34.15 17.2L31.6 17.2L31.6 15.6L38.4 15.6L38.4 17.2L35.85 17.2M6.1,17.2L2.15 17.2L2.15 19.15L5.2 19.15L5.2 20.75L2.15 20.75L2.15 24.7L0.5 24.7L0.5 15.6L6.1 15.6L6.1 17.2M8.95,15.6L8.95 24.7L7.3 24.7L7.3 15.6L8.95 15.6M18.15,15.6L18.15 24.7L16.75 24.7L12.6 18.45L12.6 24.7L10.95 24.7L10.95 15.6L12.6 15.6L16.5 21.5L16.5 15.6L18.15 15.6M12.65,31.4L14.85 35.55L17.1 31.4L18.45 31.4L19.7 40.5L17.95 40.5L17.2 34.4L14.85 38.6L12.55 34.4L11.75 40.5L10 40.5L11.3 31.4L12.65 31.4M34.85,31.9Q35.35 32.2 35.6 32.8L35.85 34.3L35.55 35.9L34.75 36.9L33.75 37.35L32.7 37.5L31.05 37.5L31.05 40.5L29.4 40.5L29.4 31.4L31.95 31.4L33.65 31.5L34.85 31.9M33.5,32.95L32.45 32.8L31.05 32.8L31.05 35.95L32.45 35.95Q33.35 35.95 33.8 35.6Q34.2 35.2 34.2 34.3L34.05 33.45L33.5 32.95M25.15,31.4L28.4 40.5L26.65 40.5L25.9 38.3L22.85 38.3L22.05 40.5L20.35 40.5L23.6 31.4L25.15 31.4M24.35,34.05L23.4 36.7L25.3 36.7L24.35 34.05" />
</g>
</svg>
