<?xml version="1.0" encoding="utf-8"?>
<svg version="1.1" id="Layer_1"
xmlns="http://www.w3.org/2000/svg"
xmlns:xlink="http://www.w3.org/1999/xlink"
xmlns:author="http://www.sothink.com"
width="61px" height="12px"
xml:space="preserve">
<g id="1082" transform="matrix(1, 0, 0, 1, 17.3, 4.45)">
<path style="fill:#FFFFFF;fill-opacity:1" d="M14.9,-4.35L15.05 -3.55L15.35 -2.3L15.65 -0.95L15.95 0.35L16.2 1.25L17.35 6.8L16.3 6.9L15.25 6.7Q15.05 6.4 15 5.9L14.7 4.95L14.5 4.15L14.1 4.1L13.8 4.1L13.5 4.15L13.25 5L13.05 5.95L12.8 6.8L12.75 6.8L12.1 6.8L10.5 6.8L10.45 6.75L10.65 5.95L10.95 4.15L11.45 1.7L12.1 -1.25L12.9 -4.25L13.25 -4.25L13.8 -4.25L14.9 -4.35M13.8,-0.65L13.6 0.5L13.4 2.3L13.95 2.3L14.55 2.3L14.25 -0.1L14 -1.05L13.8 -0.65M20,-4.25L22.15 -4.05Q23.1 -3.7 23.65 -2.95Q24.2 -2.1 24 -0.75L24 -0.65L23.85 -0.65L23.5 -0.6L23 -0.6L22.55 -0.6L22.05 -0.65L21.85 -1.25L21.45 -1.8L20.95 -2L20.45 -2L20 -1.85L19.9 -1.65L19.8 -1.4L19.6 -0.1L19.5 1.55L19.6 3.15L19.7 3.9L20.1 4.55L20.25 4.65L20.5 4.7L20.95 4.65L21.4 4.55L21.75 4.4L21.95 4L22 3.75L22 3.3L22 3L21.55 3L21.15 3L20.75 3L20.7 2.45L20.7 1.95L20.7 1.35L20.7 1.3L20.75 1.3L21.4 1.15L22.4 1.15L23.4 1.2L24 1.2L24.05 1.25L24.2 3L24.05 4.85Q24 5.6 23.55 6.05L22.55 6.7L20.85 7.1L19.2 6.8Q18.6 6.6 18.25 6.1L17.75 4.95L17.6 4.5L17.5 3.8L17.4 2.65L17.35 1.55L17.35 0.25L17.4 -0.8L17.5 -1.85L17.85 -2.85L18.45 -3.65Q18.75 -3.95 19.15 -4.05L20 -4.25M29.4,-3.55L29.75 -2.3L30.05 -0.95L30.35 0.35L30.6 1.25L31.75 6.8L30.7 6.9L29.65 6.7L29.35 5.9L29.15 4.95L28.9 4.15L28.5 4.1L28.3 4.1L27.85 4.15L27.65 5L27.45 5.95L27.15 6.8L26.5 6.8L24.95 6.8L24.9 6.75L25 5.95L25.35 4.15L25.8 1.7L26.5 -1.25L27.35 -4.25L27.65 -4.25L28.25 -4.25L29.25 -4.35L29.4 -3.55M28.4,-1.05L28.25 -0.65L28 0.5L27.8 2.3L28.35 2.3L29 2.3L28.6 -0.1L28.4 -1.05M33.4,-4.35L34.05 -4.3L35.15 -4.3L35.5 -4.3L35.5 -4.25L35.45 -0.55L35.4 3.05L35.5 6.7L34.9 6.9L34.1 6.9L33.2 6.85L32.6 6.9L32.7 3L32.6 -0.65L32.7 -4.35L32.7 -4.4L33.05 -4.4L33.4 -4.35M38.85,-3.55L39.1 -3.05L39.4 -2.4L39.65 -1.85L40.1 -0.95L40.5 -0.1L40.75 0.25L40.85 -0.05L40.85 -0.6L40.85 -1.85L40.8 -2.95L40.8 -3.6L40.85 -4.35L41.95 -4.4L43 -4.35L43 0.8L43.05 2.1L43.05 3.5L43 4.4L43 5.2L43 5.85L43.05 6.5L43.05 6.8L42.85 6.85L42.5 6.9L41.8 6.85L41.1 6.8L40.05 4.55L39.1 2.4L39 1.95L38.85 1.6L38.75 1.5L38.7 1.9L38.65 2.85L38.6 4.1L38.6 5.5L38.6 6.25L38.65 6.8L38.35 6.9L37.95 6.9L37.2 6.85L36.4 6.8L36.4 5.7L36.4 2.85L36.4 0L36.4 -2.2L36.55 -4.25L36.85 -4.3L37.25 -4.35L37.7 -4.3L38.3 -4.25L38.55 -4.15L38.85 -3.55" />
<path style="fill:#FFFFFF;fill-opacity:1" d="M4.75,-4.1L5.65 -4.1L6 -4.1L6.2 -4.1Q5.65 -2.15 4.8 -0.35L3.1 3.3Q2.2 5.1 1.6 7L1.35 7L1.15 7L0.4 7L-0.35 7.05L-0.55 7.05L-0.75 7L-0.8 7L0.2 4.3L1.35 1.45L0.7 -0.45L-0.05 -2.25L-0.7 -4.1L0 -4.1L0.7 -4.15L1.05 -4.15L1.45 -4.05L1.75 -2.85L2.25 -1.6L2.7 -0.55L3.15 -1.6L3.55 -2.85L4 -4L4.75 -4.1M-17.25,-4.2L-13.9 -4.2L-10.55 -4.1L-10.55 -2.9L-10.55 -1.65L-11.35 -1.65L-12.55 -1.65L-12.6 -1.65L-12.6 -1.6L-12.65 -1.6L-12.65 -1.1L-12.65 0.15L-12.65 2.65L-12.55 6.9L-12.55 6.95L-13.85 7L-15.15 7L-15.15 6.05L-15.15 3.3L-15.3 -1.5L-15.95 -1.65L-16.7 -1.65L-17.2 -1.7L-17.25 -2.2L-17.3 -3.15L-17.25 -4.2M-9.75,-4.2L-7.8 -4.4L-5.6 -4.35L-3.9 -3.9L-2.7 -2.6Q-2.35 -1.85 -2.3 -0.95Q-2.3 -0.15 -2.75 0.7L-3.5 1.7Q-4.05 2.05 -4.85 2.1L-4.9 2.1L-3.9 3.7L-2.85 5.3L-2.05 7L-3.3 7L-4.7 7L-5.25 5.75L-6.05 4.3L-6.9 2.95L-6.95 2.9L-7 3.85L-6.95 4.9L-6.9 6L-6.85 6.85L-7.6 7L-8.45 7L-9.25 7L-9.65 7L-9.6 6.4L-9.6 4.95L-9.6 2.9L-9.6 0.65L-9.65 -1.5L-9.7 -3.25L-9.75 -4.2M-7.4,-1.25L-7.4 -0.55L-7.35 0.05L-7.3 0.05L-6.5 0.1L-5.75 0.05L-5.15 -0.45L-5.05 -1.25Q-5.1 -1.65 -5.45 -1.85Q-5.8 -2.2 -6.35 -2.2L-7.45 -1.95L-7.4 -1.25" />
</g>
</svg>
