<?xml version="1.0" encoding="utf-8"?>
<svg version="1.1" id="Layer_1"
xmlns="http://www.w3.org/2000/svg"
xmlns:xlink="http://www.w3.org/1999/xlink"
xmlns:author="http://www.sothink.com"
width="30px" height="44px"
xml:space="preserve">
<g id="1400" transform="matrix(1, 0, 0, 1, 0, 0)">
<path style="fill:#B3A38A;fill-opacity:1" d="M27.25,18.6Q25.95 16.95 24.45 16.3Q23.1 15.7 22.3 15.95Q22.7 15.5 23.65 15.5Q24.4 15.5 25.85 16.6L26.6 17.2L27.25 18.6M18.35,34.1L18.25 34.1L17.8 34.05L18.1 33.65Q20.35 30.6 20.4 26.75Q20.45 22.6 20.05 20.1Q19.6 17.6 18.65 16.5Q18.05 15.65 17.05 15.55Q6.4 16.5 1.05 24.2Q0.6 20.9 1.2 19.05Q1.75 17.15 2.25 16.55Q2.7 15.95 5.7 15.05Q8.65 14.15 12.2 13.65Q15.75 13.1 17.6 14.1Q19.45 15.05 18.2 13.9Q16.9 12.7 15.2 12.45L12.15 12.6L2.7 14.8Q5.4 11.2 8.4 10.35L8.6 10.3L9.2 10.2L15.6 10.45L16.8 10.7L17.5 10.85Q20.15 11.55 22.55 13.1L22.65 13.15Q22.05 13.35 21.75 13.5L20.45 14.4L20 15Q21.65 19.8 21.65 24.15L21.3 28.2L20.65 31.2Q20.95 31.45 21.35 31.5L19.6 34.25L18.35 34.1M14.7,41.95L14.05 42.1L12.5 41.1L8.85 38.65Q9.25 37.9 12.05 37.15L11.95 37.05L11.65 36.95Q9.15 36.9 7.35 37.85Q3.35 36.5 3.45 36.1Q3.75 34.6 4.15 34.45L5.3 35.4L6.9 36.25Q7.9 36.65 11.3 35.4L14.1 34.85Q13.75 35.15 13.65 35.6L12.85 36.6Q12.15 37.3 12.15 37.85Q12.15 38.5 13.65 39.1Q15.25 39.75 17.15 39.75L18.5 39.7L18.35 39.75Q16.95 40.4 15.75 41.3L14.7 41.95M27.8,26.1Q26.4 24.65 24.2 23.9L24.1 23.9L23.65 21.25L24.25 21.4Q24.3 22.75 25.05 23L26.5 23.5L27.9 24.65L27.8 26.1M15.3,5.75L14.65 7.4L14.6 7.45L13.15 6.95L11.3 6.7Q10.45 6.7 8.85 7.9Q7.55 6.25 8.45 4.05Q9.25 2.15 11.65 1.15Q12.8 0.65 13.85 1.4Q14.85 2.15 15.2 3.6Q15.5 4.85 15.3 5.75M15.25,9.35L9.2 9.2Q10.7 7.25 12.95 7.75Q14.45 8.25 15.25 9.35M19.15,22.95Q9.4 24.05 2.7 30.1Q2.1 29.25 1.8 28Q5.05 25.25 8.4 23.65Q11.75 22.05 14.35 21.4L18.7 20.35L18.8 20.95L19.2 23L19.15 22.95M18.85,28.7Q15.2 29.05 11.3 31.1Q7.35 33.15 6.3 34.8L5.25 33.65L4.7 32.85Q8.5 29.9 12.1 28.6Q15.65 27.25 19.05 27.1L18.85 28.7M19.6,39Q19.05 38.55 17.9 38.25L15.4 37.9L14.9 37.85L14.9 37.35L15.05 37.3L15 37.05Q15 36.55 15.25 36.35Q15.65 36 16.8 36L19.65 36.3L21.2 36.6L21.05 36.65L18.1 36.75L15.3 37L15.7 37.1L19.5 37.8Q20 38.1 19.85 38.65L19.6 39M26.5,31.1Q25.25 30.1 23.6 29.4L23.95 27.9Q23.95 27.8 24.1 27.8L24 28.3L24 29.25L25.1 29.45Q25.85 29.75 26.15 30L26.8 30.45L26.5 31.1" />
<path style="fill:#CCC6B8;fill-opacity:1" d="M22.2,16Q21.4 16.3 21.55 17L22.3 19.8Q22.9 21.95 22.9 25.95Q22.85 28.65 21.35 31.5Q20.95 31.45 20.65 31.2L21.3 28.2L21.65 24.15Q21.65 19.8 20 15L20.45 14.4L21.75 13.5Q22.05 13.35 22.65 13.15Q24.5 14.45 26.2 16.3L26.6 17.2L25.85 16.6Q24.4 15.5 23.65 15.5Q22.7 15.5 22.3 15.95L22.2 16M21.25,35.65Q21.45 36.4 21.2 36.6L19.65 36.3L16.8 36Q15.65 36 15.25 36.35Q15 36.55 15 37.05L15.05 37.3L14.9 37.35L14.9 37.85L15.4 37.9L17.9 38.25Q19.05 38.55 19.6 39L18.5 39.7L17.15 39.75Q15.25 39.75 13.65 39.1Q12.15 38.5 12.15 37.85Q12.15 37.3 12.85 36.6L13.65 35.6Q13.75 35.15 14.1 34.85L17.3 34.95L21.25 35.65M25.15,21.7Q26.25 22.1 27.8 23.45L27.9 24.55L27.9 24.65L26.5 23.5L25.05 23Q24.3 22.75 24.25 21.4L25.15 21.7M24.85,28.05L27.05 29.85L26.8 30.45L26.15 30Q25.85 29.75 25.1 29.45L24 29.25L24 28.3L24.1 27.8L24.85 28.05" />
<path style="fill:#625643;fill-opacity:1" d="M15.75,41.3Q16.95 40.4 18.35 39.75L18.5 39.7L19.6 39L19.85 38.65Q20 38.1 19.5 37.8L15.7 37.1L15.3 37L18.1 36.75L21.05 36.65L21.2 36.6Q21.45 36.4 21.25 35.65L17.3 34.95L18.35 34.1L19.6 34.25L21.35 31.5Q22.85 28.65 22.9 25.95Q22.9 21.95 22.3 19.8L21.55 17Q21.4 16.3 22.2 16L22.3 15.95Q23.1 15.7 24.45 16.3Q25.95 16.95 27.25 18.6L26.6 17.2L26.2 16.3Q24.5 14.45 22.65 13.15L22.55 13.1L22.75 13.1L22.8 13L23.35 12.95L24.25 13.05Q26.7 14.85 27.8 17.2Q28.95 19.7 29.25 22.15Q29.65 25.5 28.5 29.3L27.75 31.25Q26.1 34.7 23.05 35.7Q23.2 35.85 23 35.8L22.9 35.8L22.35 36Q22.5 37.55 20.85 37.7L20.8 38.85L20.2 39.6L20.1 39.65L19.2 40.2L16 42.3L15.65 42.55L14.7 41.95L15.75 41.3M27.9,24.65L27.9 24.55L27.8 23.45Q26.25 22.1 25.15 21.7L24.25 21.4L23.65 21.25L24.1 23.9L24.2 23.9Q26.4 24.65 27.8 26.1L27.9 24.65M24.4,20.1Q26.2 20.85 27.75 22.2Q28.2 21.1 27.35 19.75Q25.45 17.5 22.8 17.05L23.4 19.7L24.4 20.1M25.8,26.15Q24.55 25.5 24.15 25.6L24.1 26.5L24.1 26.75L24.25 26.8Q25.55 27 27.3 28.7Q27.35 29.25 27.6 27.6Q27.05 26.8 25.8 26.15M26.8,30.45L27.05 29.85L24.85 28.05L24.1 27.8Q23.95 27.8 23.95 27.9L23.6 29.4Q25.25 30.1 26.5 31.1L26.8 30.45M22.6,35.2Q24.45 34.25 25.85 32.05L24.25 31.05L23.25 30.65L22.7 31.85Q22 33.15 20.45 34.45Q21.7 34.75 22.6 35.2" />
<path style="fill:#4A4131;fill-opacity:1" d="M23.35,12.95L22.8 13L22.75 13.1L22.55 13.1Q20.15 11.55 17.5 10.85L16.8 10.7L15.6 10.45L9.2 10.2L8.6 10.3L8.4 10.35Q5.4 11.2 2.7 14.8L12.15 12.6L15.2 12.45Q16.9 12.7 18.2 13.9Q19.45 15.05 17.6 14.1Q15.75 13.1 12.2 13.65Q8.65 14.15 5.7 15.05Q2.7 15.95 2.25 16.55Q1.75 17.15 1.2 19.05Q0.6 20.9 1.05 24.2Q6.4 16.5 17.05 15.55Q18.05 15.65 18.65 16.5Q19.6 17.6 20.05 20.1Q20.45 22.6 20.4 26.75Q20.35 30.6 18.1 33.65L17.8 34.05L18.25 34.1L18.35 34.1L17.3 34.95L14.1 34.85L11.3 35.4Q7.9 36.65 6.9 36.25L5.3 35.4L4.15 34.45Q3.75 34.6 3.45 36.1Q3.35 36.5 7.35 37.85Q9.15 36.9 11.65 36.95L11.95 37.05L12.05 37.15Q9.25 37.9 8.85 38.65L12.5 41.1L14.05 42.1L14.7 41.95L15.65 42.55Q14 43.75 13.6 43.45L11.55 41.55Q9.95 40 7.7 39Q5.4 37.95 4.15 37.65Q2.9 37.3 2.6 36.45Q2.3 35.55 3.4 33.65Q0.85 30.65 0.25 26.45L0.2 26.5L0.2 26.25Q-0.35 21.75 0.55 17.55Q1.15 14.6 2.95 12.45Q4.65 10.4 8.2 9.4Q8.25 9.05 8.45 8.6Q6.65 7.05 7.2 4.7Q7.75 2.35 9.45 1.15Q11.55 -0.4 13.15 0.15Q14.35 0.5 15.15 1.5Q17.5 4.8 15.1 7.85L17.2 9.85Q21.3 11 23.85 12.75L23.9 12.8L24.25 13.05L23.35 12.95M15.2,3.6Q14.85 2.15 13.85 1.4Q12.8 0.65 11.65 1.15Q9.25 2.15 8.45 4.05Q7.55 6.25 8.85 7.9Q10.45 6.7 11.3 6.7L13.15 6.95L14.6 7.45L14.65 7.4L15.3 5.75Q15.5 4.85 15.2 3.6M12.95,7.75Q10.7 7.25 9.2 9.2L15.25 9.35Q14.45 8.25 12.95 7.75M2.2,23.95L1.25 25.2L1.25 26.15L1.45 26.8Q8.4 20.7 18.5 18.9L18.05 17.6Q17.6 16.5 15.25 16.7Q12.9 16.85 9.1 18.55Q5.25 20.25 2.2 23.95M19.2,23L18.8 20.95L18.7 20.35L14.35 21.4Q11.75 22.05 8.4 23.65Q5.05 25.25 1.8 28Q2.1 29.25 2.7 30.1Q9.4 24.05 19.15 22.95L19.2 23M19.15,26.1L19.1 24.5Q10.25 25.4 3.1 30.8L4.25 32.3Q10.3 26.9 19.05 26.05L19.15 26.1M19.05,27.1Q15.65 27.25 12.1 28.6Q8.5 29.9 4.7 32.85L5.25 33.65L6.3 34.8Q7.35 33.15 11.3 31.1Q15.2 29.05 18.85 28.7L19.05 27.1M17.4,33.7L18.7 29.65Q12.8 30.9 7.95 34.55L7 35.3L7.1 35.55L7.15 35.6Q11.35 33.35 16.4 33.85L17.3 33.95L17.4 33.7" />
<path style="fill:#4F4536;fill-opacity:1" d="M23.4,19.7L22.8 17.05Q25.45 17.5 27.35 19.75Q28.2 21.1 27.75 22.2Q26.2 20.85 24.4 20.1L23.4 19.7M27.6,27.6Q27.35 29.25 27.3 28.7Q25.55 27 24.25 26.8L24.1 26.75L24.1 26.5L24.15 25.6Q24.55 25.5 25.8 26.15Q27.05 26.8 27.6 27.6M20.45,34.45Q22 33.15 22.7 31.85L23.25 30.65L24.25 31.05L25.85 32.05Q24.45 34.25 22.6 35.2Q21.7 34.75 20.45 34.45" />
<path style="fill:#2E271D;fill-opacity:1" d="M9.1,18.55Q12.9 16.85 15.25 16.7Q17.6 16.5 18.05 17.6L18.5 18.9Q8.4 20.7 1.45 26.8L1.25 26.15L1.25 25.2L2.2 23.95Q5.25 20.25 9.1 18.55M19.05,26.05Q10.3 26.9 4.25 32.3L3.1 30.8Q10.25 25.4 19.1 24.5L19.15 26.1L19.05 26.05M17.3,33.95L16.4 33.85Q11.35 33.35 7.15 35.6L7.1 35.55L7 35.3L7.95 34.55Q12.8 30.9 18.7 29.65L17.4 33.7L17.3 33.95" />
</g>
</svg>
