<?xml version="1.0" encoding="utf-8"?>
<svg version="1.1" id="Layer_1"
xmlns="http://www.w3.org/2000/svg"
xmlns:xlink="http://www.w3.org/1999/xlink"
xmlns:author="http://www.sothink.com"
width="84px" height="43px"
xml:space="preserve">
<g id="3169" transform="matrix(1, 0, 0, 1, 84.8, 20.65)">
<path style="fill:#FFFFFF;fill-opacity:1" d="M-66.4,-7.95Q-63.95 -11.4 -60.45 -14.5Q-57.95 -16.7 -57.95 -17.35L-60.5 -20.65Q-59.3 -19.9 -56.2 -19.25L-51.45 -18.55Q-52.45 -18.45 -57.7 -15.85L-57.7 -15.6L-55.3 -15.85Q-53.75 -16 -53.7 -15Q-53.7 -14.75 -54.65 -13.3L-54.8 -13.7Q-54.95 -14.05 -55.3 -14Q-56.7 -13.95 -59.05 -12.15Q-62.3 -9.7 -66.2 -8L-66.4 -7.95M-74.7,-1.05L-71.65 0.2L-73.8 0.65L-74.6 0.9L-76 -0.25L-80.2 2.8L-84.8 3.4Q-82.5 2.45 -79.9 0.75L-76.95 -1.5Q-75.75 -1.6 -74.7 -1.05M-55.1,-6.2Q-54.4 -7.05 -53.85 -8.3L-53.7 -4.95L-54.05 -5.4Q-54.85 -6.3 -55.1 -6.2M-40.55,-6.95L-40.35 -6.95L-42.25 -5.3Q-41.75 -4.9 -40.55 -4.7L-39.05 -4.55L-38.8 -4.3L-40.5 -1.35L-41.55 -2.3L-40.75 -2.35L-40.85 -3.55L-41.6 -3.55L-52 -2.05Q-48.3 -4.2 -44.35 -4.9Q-43.15 -5.1 -43 -5.5Q-42.75 -5.95 -43.15 -7.5L-40.55 -6.95M-24.85,-12.15Q-23.2 -13.5 -22.95 -13.85L-22.05 -12.35L-22 -12.2L-23.45 -11.85L-26.75 -10.8L-24.85 -12.15M-21.95,-8.65L-17.95 -7.75L-17.9 -5.95Q-17.45 -5.45 -17.4 -4.65L-17.4 -4.4Q-17.8 -5.35 -19.45 -6.7Q-20.85 -7.85 -21.95 -8.4L-21.95 -8.65M-8.05,-16.8L-10.65 -20.25L-10.65 -20.5L-7.65 -18.35L-5.1 -16.15L-7.5 -16.7L-8.05 -16.8M-15.4,-16.7L-13.45 -15.5L-13.35 -13.25Q-14.5 -13.95 -15.25 -14.25L-16.1 -15.9L-17.15 -17.55L-17.25 -17.6L-17.35 -17.8L-15.4 -16.7M-3,-9.15L-3.45 -11.4L-3.5 -11.65Q-2.35 -11.45 -2.15 -10.95L-1.95 -9.25L-2.05 -8.5Q-2.8 -8.5 -3 -9.15M-8,-8.1Q-8.65 -8.2 -8.8 -9.8L-7.8 -9.85L-6.8 -9.2L-6.8 -8.05L-8 -8.1M-9.95,5.65Q-9.3 5.5 -8.25 4.8Q-7.35 4.2 -6.9 4.15Q-6.55 4.15 -5.75 4.65L-6.15 5.65Q-8.6 4.95 -9.75 5.65L-9.95 5.65M-2.15,9.9Q-2.7 9.2 -3.2 9.25Q-3.1 8.8 -0.85 6.75L-1.35 7.95L-2.15 9.9M-20.25,8.1Q-18.4 6.9 -17.75 6.7L-17.6 7.95L-20.25 8.1M-16.95,21.25L-17.1 21.5Q-16.4 19.2 -15.35 18.6L-12.45 17.75L-14.3 19.3L-16.95 21.25M-9.45,13.4Q-6.8 12 -6.4 11.5L-7.35 12.95Q-7.65 13.3 -8.15 13.3L-9.45 13.4M-28.1,10.4L-29.55 10.75L-31.75 10.9L-30.25 10.3L-28.8 9.45L-28.2 10.25L-28.1 10.4M-36.4,5.9L-36.25 5.7L-33.3 4.55L-30.85 3.5L-31.85 4.85Q-33.65 7.35 -34.05 8.55L-39.1 8.1L-37.75 7.1L-36.4 5.9M-32.2,14.95Q-28.5 13.7 -27.65 13.1Q-28.55 14.15 -28.6 14.95L-26.15 15.3L-25.95 15.25Q-26.25 15.55 -26.55 15.55L-28.65 15.35L-32 15.15L-32.2 14.95M-68.95,10.6L-70.1 9.75L-71.3 8.3L-67.9 8.25L-67.7 8.2Q-68.35 8.8 -68.65 10.1L-68.65 10.5L-68.95 10.6M-75,8.05L-76.4 6.8L-74.2 6.65L-74.5 8.5L-75 8.05" />
</g>
</svg>
