<?xml version="1.0" encoding="utf-8"?>
<svg version="1.1" id="Layer_1"
xmlns="http://www.w3.org/2000/svg"
xmlns:xlink="http://www.w3.org/1999/xlink"
xmlns:author="http://www.sothink.com"
width="15px" height="12px"
xml:space="preserve">
<g id="486" transform="matrix(1, 0, 0, 1, 0.4, 0.4)">
<path style="fill:#FFEA4F;fill-opacity:1" d="M7.15,4.85L7.25 5.05L7.25 6.15L7.05 6.05L5.9 5.45L4.05 4.5Q1.75 3 1.45 1.5L3.1 1.4L5.3 1.6L7.4 2.05L7.75 2.85L8.7 5.65Q7.5 5.25 7.15 4.85M10,6.05L9.5 4.55L8.95 2.65L8.9 2.55Q11.05 3.3 13.4 5.3L13.5 5.9L11.85 6.2L10 6.05M0.9,2.6Q1.6 4.8 4 6.25Q6.7 7.9 10.45 7.9L12.95 7.35L13.25 7.25Q12.55 8.7 10.45 9.1Q8.2 9.55 5.65 8.65Q3.15 7.65 1.75 5.8Q0.45 4.1 0.9 2.6" />
<path style="fill:#F4FFDF;fill-opacity:1" d="M8.9,2.55L8.95 2.65L9.5 4.55L10 6.05L8.7 5.65L7.75 2.85L7.4 2.05L5.3 1.6L3.1 1.4L1.45 1.5L1.3 1.6Q2.2 0.45 3.75 0.1Q6.05 -0.25 8.55 0.7Q11.05 1.65 12.5 3.45Q13.15 4.4 13.4 5.3Q11.05 3.3 8.9 2.55M7.55,2.15L7.5 2.15L7.55 2.2L7.55 2.15" />
<path style="fill:#E58919;fill-opacity:1" d="M0.95,2.3L0.9 2.6Q0.45 4.1 1.75 5.8Q3.15 7.65 5.65 8.65Q8.2 9.55 10.45 9.1Q12.55 8.7 13.25 7.25L13.3 7.15L13.3 7.25L12.35 9.25Q11.45 10.4 9.55 10.95Q7.7 11.5 4.95 10.45Q2.15 9.4 0.9 7.6Q-0.3 5.85 0.1 4.25Q0.35 3.15 0.85 2.35L1.15 1.8L0.95 2.3" />
<path style="fill:#FFBC35;fill-opacity:1" d="M8.7,5.65L10 6.05L11.85 6.2L13.5 5.9L13.45 6.45L13.35 7.05L13.3 7.15L13.25 7.25L12.95 7.35L10.45 7.9Q6.7 7.9 4 6.25Q1.6 4.8 0.9 2.6L0.95 2.3L1.15 1.8L1.3 1.6L1.45 1.5Q1.75 3 4.05 4.5L5.9 5.45L7.05 6.05L7.25 6.15L7.25 5.05L7.15 4.85Q7.5 5.25 8.7 5.65M7.55,2.2L7.5 2.15L7.55 2.15L7.55 2.2" />
<path style="fill:none;stroke-width:0.8;stroke-linecap:round;stroke-linejoin:round;stroke-miterlimit:3;stroke:#B15106;stroke-opacity:1" d="M13.4,5.3Q13.15 4.4 12.5 3.45Q11.05 1.65 8.55 0.7Q6.05 -0.25 3.75 0.1Q2.2 0.45 1.3 1.6M13.4,5.3L13.5 5.9L13.45 6.45L13.35 7.05L13.3 7.15L13.3 7.25L12.35 9.25Q11.45 10.4 9.55 10.95Q7.7 11.5 4.95 10.45Q2.15 9.4 0.9 7.6Q-0.3 5.85 0.1 4.25Q0.35 3.15 0.85 2.35L1.15 1.8L1.3 1.6M13.25,7.25L13.3 7.15M13.25,7.25Q12.55 8.7 10.45 9.1Q8.2 9.55 5.65 8.65Q3.15 7.65 1.75 5.8Q0.45 4.1 0.9 2.6L0.95 2.3L1.15 1.8" />
</g>
</svg>
