<?xml version="1.0" encoding="utf-8"?>
<svg version="1.1" id="Layer_1"
xmlns="http://www.w3.org/2000/svg"
xmlns:xlink="http://www.w3.org/1999/xlink"
xmlns:author="http://www.sothink.com"
width="35px" height="28px"
xml:space="preserve">
<g id="372" transform="matrix(1, 0, 0, 1, 5, 2.5)">
<path style="fill:#D0A15B;fill-opacity:1" d="M20.3,20.4L18.5 21.8L18.45 21.85L16.25 23.25Q14.95 20.85 11.2 18.35Q9.05 16.95 7.55 16.25L7.55 15.35Q7.6 15 8 14.4Q8.45 13.6 13.9 11.85Q19.35 10.1 22.35 15.9Q23.45 18.1 22.25 20.45L22.4 20.25L22.2 20.5L22.05 20.75L22.15 20.6L21.6 21.25L21.1 21.75L20.85 22L20.3 20.4M8.65,15.15L8.75 15.15L8.75 15.05L8.65 15.15" />
<path style="fill:#9C753C;fill-opacity:1" d="M7.7,16.75Q8 17.6 8.6 18.45L9.45 19.7L9.8 20.15Q10.85 21.45 12 22.35Q13.55 23.55 15.15 23.85L16.05 23.95Q17.8 23.95 19.6 22.85L20.7 22.1L20.85 22L21.1 21.75L21.6 21.25L22.15 20.6L22.05 20.75L22.2 20.5L22.4 20.25L22.25 20.45Q23.45 18.1 22.35 15.9Q19.35 10.1 13.9 11.85Q8.45 13.6 8 14.4Q7.6 15 7.55 15.35L7.55 16.25L7.7 16.75M6.3,15.35L6.4 15.35Q6.3 14.35 7.35 13.55Q9.85 11.55 12.85 10.55Q18.1 9.4 21.55 12.9Q25.45 16.8 23.1 20.65L21.75 22.45L20.9 23.2L20.55 23.45L19.8 23.95Q18.55 24.75 16.7 24.95L16.1 25Q14.5 25 12.95 24.2L10.85 22.8L9.65 21.65L7.8 19.3Q6.6 17.55 6.3 15.75L6.3 15.35" />
<path style="fill:#E9CB9E;fill-opacity:1" d="M7.55,16.25Q9.05 16.95 11.2 18.35Q14.95 20.85 16.25 23.25L18.45 21.85L18.5 21.8L20.3 20.4L20.85 22L20.7 22.1L19.6 22.85Q17.8 23.95 16.05 23.95L15.15 23.85Q13.55 23.55 12 22.35Q10.85 21.45 9.8 20.15L9.45 19.7L8.6 18.45Q8 17.6 7.7 16.75L7.55 16.25" />
<path style="fill:#C6A831;fill-opacity:1" d="M8.75,15.05L8.75 15.15L8.65 15.15L8.75 15.05" />
<path style="fill:none;stroke-width:0.1;stroke-linecap:round;stroke-linejoin:round;stroke-miterlimit:3;stroke:#8AC4DE;stroke-opacity:1" d="M7.55,16.25L6.3 15.75L5.95 15.65" />
<path style="fill:#FED009;fill-opacity:1" d="M-1.7,17.9Q-0.6 18.1 0.45 17.1Q1.5 16.15 1.5 15.05L1.4 14.45L1.45 14.2Q1.6 13.3 1.05 13.05L-0.55 12.45L-2.3 12.35L-3.1 11.9Q-2.1 10.3 0.35 8.75Q3.05 7 4.8 7.3L3.7 6.45Q2.75 4.8 1.7 4.25L1.5 4.15L0.9 3.3Q3.75 2 8.15 2L11.2 2.3L11.3 2.3L9.95 1.25Q11.35 1.45 11 0.85L10.2 -0.2L10.2 -0.5L10 -0.8L11.55 -0.9L14.25 -0.2Q16.2 0.45 16.8 0.8L19.25 2.2L20.3 3.75L20.9 4.85L21 4.85L21.25 4.45L21.3 4.35L21.55 3.6Q25.15 5.85 27.35 11L27.6 12.85Q27.6 14.75 26.6 16.5L26.6 16.45Q26.6 11.75 24.95 9.15L23.2 7.2L22.6 9.05L21.5 10.15Q21 8.8 19.35 6.6Q16.5 2.7 13.8 3.4L13.45 3.4L14 3.95Q15 5.1 15 6.55L15 6.7L13.9 6Q11.75 4.8 9.65 4.8Q6.75 4.8 5.3 5.45Q6.4 5.95 7.7 7.7L8.3 8.5L7.9 8.5Q4.85 8.5 2.85 9.6Q1.7 10.2 1.25 10.9L3.65 12.3L4.95 13.4L4.9 13.9Q5.1 14.85 3.5 16.35Q2.2 17.55 1 17.85Q1.25 18.6 2.7 20.25L3.45 21.05Q2.1 21 0.85 20.45L-0.65 19.65L-1.7 17.9" />
<path style="fill:#D48D01;fill-opacity:1" d="M26.6,16.5L26.15 17.25Q24.05 20.25 22.8 21.3L21.95 18.5Q21.15 16.35 20.6 15.85Q20 15.3 19.65 16.4Q19.3 17.55 18.55 18.6L17.1 20.1L15.65 17.3Q14.75 15.6 13.8 14.7Q12.8 13.8 12.3 15.05Q11.75 16.3 11.5 18.05Q11.2 19.75 11.9 22.25L12.35 23.25L10.2 22.7L7.2 20.6Q5.3 18.6 4.8 16.95Q4.65 17 4.7 17.2Q4.9 18.3 5.4 19.4L6.1 20.65L3.45 21.05L2.7 20.25Q1.25 18.6 1 17.85Q2.2 17.55 3.5 16.35Q5.1 14.85 4.9 13.9L4.95 13.4L3.65 12.3L1.25 10.9Q1.7 10.2 2.85 9.6Q4.85 8.5 7.9 8.5L8.3 8.5L7.7 7.7Q6.4 5.95 5.3 5.45Q6.75 4.8 9.65 4.8Q11.75 4.8 13.9 6L15 6.7L15 6.55Q15 5.1 14 3.95L13.45 3.4L13.8 3.4Q16.5 2.7 19.35 6.6Q21 8.8 21.5 10.15L22.6 9.05L23.2 7.2L24.95 9.15Q26.6 11.75 26.6 16.45L26.6 16.5" />
<path style="fill:#FBF734;fill-opacity:1" d="M16.8,0.8Q16.2 0.45 14.25 -0.2L11.55 -0.9L10 -0.8L10.2 -0.5L10.2 -0.2L9.95 -0.5L8.95 -1.35Q14.85 -2.4 19.15 2.1L19.25 2.2L16.8 0.8M21.55,3.6L21.75 2.55L21.9 2.4Q25.3 5.45 26.75 9.05L27.35 11Q25.15 5.85 21.55 3.6M-0.65,19.65Q-2.1 18.7 -2.9 17.4Q-1.5 17.35 -0.1 16.25Q1.1 15.25 1.4 14.45L1.5 15.05Q1.5 16.15 0.45 17.1Q-0.6 18.1 -1.7 17.9L-0.65 19.65M-2.3,12.35L-3.5 12.55L-3.8 12.6L-4 12.65L-3.5 11.6Q-2.95 10.25 -1.35 8.75Q0.2 7.2 2.6 6.7L3.7 6.5L3.7 6.45L4.8 7.3Q3.05 7 0.35 8.75Q-2.1 10.3 -3.1 11.9L-2.3 12.35M11.3,2.3L11.2 2.3L8.15 2Q3.75 2 0.9 3.3L1.5 4.15L1.35 4.1Q0 3.6 -1.05 3.55L0.1 2.5Q1.1 1.65 4.25 1.15Q7.35 0.6 9.4 1.1L9.95 1.25L11.3 2.3" />
<path style="fill:#694817;fill-opacity:1" d="M11,0.85Q11.35 1.45 9.95 1.25L9.4 1.1Q7.35 0.6 4.25 1.15Q1.1 1.65 0.1 2.5L-1.05 3.55Q0 3.6 1.35 4.1L1.5 4.15L1.7 4.25Q2.75 4.8 3.7 6.45L3.7 6.5L2.6 6.7Q0.2 7.2 -1.35 8.75Q-2.95 10.25 -3.5 11.6L-4 12.65L-3.8 12.6L-3.5 12.55L-2.3 12.35L-0.55 12.45L1.05 13.05Q1.6 13.3 1.45 14.2L1.4 14.45Q1.1 15.25 -0.1 16.25Q-1.5 17.35 -2.9 17.4Q-2.1 18.7 -0.65 19.65L0.85 20.45Q2.1 21 3.45 21.05L6.1 20.65L5.4 19.4Q4.9 18.3 4.7 17.2Q4.65 17 4.8 16.95Q5.3 18.6 7.2 20.6L10.2 22.7L12.35 23.25L11.9 22.25Q11.2 19.75 11.5 18.05Q11.75 16.3 12.3 15.05Q12.8 13.8 13.8 14.7Q14.75 15.6 15.65 17.3L17.1 20.1L18.55 18.6Q19.3 17.55 19.65 16.4Q20 15.3 20.6 15.85Q21.15 16.35 21.95 18.5L22.8 21.3Q24.05 20.25 26.15 17.25L26.6 16.5Q27.6 14.75 27.6 12.85L27.35 11L26.75 9.05Q25.3 5.45 21.9 2.4L21.75 2.55L21.55 3.6L21.3 4.35L21.25 4.45L21 4.85L20.9 4.85L20.3 3.75L19.25 2.2L19.15 2.1Q14.85 -2.4 8.95 -1.35L9.95 -0.5L10.2 -0.2L11 0.85M7.3,-1.8L9.85 -2.4Q12.5 -2.8 15.8 -1.45Q19.05 -0.1 20.85 3.25L20.9 3.05L21.15 0.4Q22.15 0.3 24.9 4.15Q27.6 8 28.3 11.2Q28.55 12.45 28.4 13.8Q28.15 15.8 26.9 18L26.1 19.2L24.15 21.3L23.85 21.6L22.1 22.55L21.5 19.75L20.3 17.15Q20.45 17.6 19.6 18.8L17.95 20.75L16.75 21.65Q16.35 21.8 16.25 21Q16.15 20.15 15.45 18.85Q14.55 17.15 13.2 15.75L13.25 15.35Q12.3 17.2 12.55 19.9Q12.8 22.65 13.35 23.15L13.75 23.65L13.45 23.8Q12 24.35 10.2 23.75Q7.9 22.95 6.55 21.25Q5.55 21.8 4.55 22.05Q2.75 22.4 0.95 21.6L0.7 21.5Q-2 20.25 -3.15 18.85Q-4.4 17.4 -3.95 16.5Q-1.9 16.4 -0.65 15.5Q0.5 14.6 0.45 13.85L0.45 13.75L0 13.6L-3.35 13.5L-5 13.4L-4.7 12.25Q-4.15 10.3 -2.8 8.7Q-0.85 6.45 1.9 5.95L2 5.95L2.35 5.95Q1.65 5.1 0.5 4.8L-2.7 4.05Q-2.75 3.7 -2.1 3.05L-0.45 1.75Q0.7 0.95 2.55 0.45L5.3 0.05L7.85 0.15L8.4 0.25L9.4 0.35L7.85 -1.3L7.3 -1.8" />
<path style="fill:#662D11;fill-opacity:1" d="M5.15,13.6Q4.95 16.4 5.7 17.95Q10.2 13.1 14.6 15.55Q19 18 22.45 18.3L25.6 17.8Q27 17.15 27.65 15.9L28.1 14.7L28.25 12.95L28.15 12.35Q27.85 11.15 27.35 10.45Q26.8 9.7 26.05 9.4Q25.3 9.05 22.5 10.2Q19.7 11.3 15.7 11.35L8.5 11.1Q6.7 10.95 5.9 11.75Q5.4 12.2 5.25 13.05L5.15 13.6M29.35,12.35L29.4 13.5L29.25 14.55L28.65 16.3Q27.7 18.05 25.35 19.25L19.25 19.05L13 16.6Q10.45 15.55 8.7 17.25L6.05 19.45Q5.15 20 4.25 17.9Q3.75 16.75 3.75 15.4Q3.7 14.25 4 12.95L4.3 12.05Q5.05 10 7.35 9.85L13.35 10.1L19 9.95Q23.45 8.75 24.9 8.05Q26.35 7.4 27.75 8.8Q29.1 10.2 29.35 12.35" />
<path style="fill:#C68331;fill-opacity:1" d="M24.85,10.5L25.15 10.7L25.3 11.05L25.3 11.15L25 11.4Q24.45 11.5 24.4 11L24.35 10.95L24.4 10.85L24.55 10.65Q24.65 10.5 24.85 10.55L24.85 10.5M28.1,14.7L27.55 15L26.7 15.4L26.7 15.35L26.45 15.1L26.1 15L25.9 15.1L25.7 15.25L25.65 15.35L25.6 15.45L25.65 15.5L25.75 15.75L23.9 16L22.5 15.9L22.5 15.75L23.5 14.9L22.05 15.15L21.05 15.35L21.05 15.55L21 15.65L20.9 15.8L20.75 15.95Q20.15 16 20 15.5L20 15.4Q18.45 15.3 16.65 14.4L16.7 14.3L16.7 14.2L16.55 13.85L16.25 13.7L16.05 13.75L15.8 14Q13.75 12.9 12.35 12.9L9.2 13.3L9.1 13Q8.9 12.7 8.6 12.7L8.35 12.8Q8 13.05 8.2 13.4L8.35 13.65Q6.85 14.25 6 15.5Q5.85 14.65 5.85 13L5.25 13L5.25 13.05Q5.4 12.2 5.9 11.75L7.95 11.65L17 12.25L16.9 12.35L16.85 12.45L16.9 12.5Q16.95 13 17.5 12.9L17.8 12.65L17.8 12.55L17.7 12.25L20.7 11.85L24.25 11.15L24.1 11.7L24.25 11.7L24.45 11.75L24.6 11.85L25.45 11.75L25.6 11.75L25.6 11.85L25.65 12.1Q25.9 12.4 26.25 12.4L26.5 12.35L26.6 12.25L26.7 12Q27.35 12.25 28 12.75L28.25 12.95L28.1 14.7M22.9,12.95L22.6 12.75L22.6 12.8Q22.4 12.75 22.3 12.9L22.15 13.1L22.1 13.2L22.15 13.25Q22.2 13.75 22.75 13.65L23.05 13.4L23.05 13.3L22.9 12.95M23.8,16.85L23.95 17.2L23.95 17.3L23.65 17.55Q23.1 17.7 23.05 17.2L23.05 17.1L23.05 17L23.2 16.8Q23.3 16.7 23.5 16.7L23.8 16.85M11.9,13.6L12.05 13.95L12.05 14.05L11.75 14.3Q11.2 14.45 11.15 13.95L11.1 13.85L11.15 13.75L11.3 13.55L11.6 13.45L11.9 13.6" />
<path style="fill:#AA692B;fill-opacity:1" d="M5.25,13.05L5.25 13L5.85 13Q5.85 14.65 6 15.5Q6.85 14.25 8.35 13.65L8.2 13.4Q8 13.05 8.35 12.8L8.6 12.7Q8.9 12.7 9.1 13L9.2 13.3L12.35 12.9Q13.75 12.9 15.8 14L16.05 13.75L16.25 13.7L16.55 13.85L16.7 14.2L16.7 14.3L16.65 14.4Q18.45 15.3 20 15.4L20 15.5Q20.15 16 20.75 15.95L20.9 15.8L21 15.65L21.05 15.55L21.05 15.35L22.05 15.15L23.5 14.9L22.5 15.75L22.5 15.9L23.9 16L25.75 15.75L25.65 15.5L25.6 15.45L25.65 15.35L25.7 15.25L25.9 15.1L26.1 15L26.45 15.1L26.7 15.35L26.7 15.4L27.55 15L28.1 14.7L27.65 15.9Q27 17.15 25.6 17.8L22.45 18.3Q19 18 14.6 15.55Q10.2 13.1 5.7 17.95Q4.95 16.4 5.15 13.6L5.25 13.05M23.5,16.7Q23.3 16.7 23.2 16.8L23.05 17L23.05 17.1L23.05 17.2Q23.1 17.7 23.65 17.55L23.95 17.3L23.95 17.2L23.8 16.85L23.5 16.7M11.6,13.45L11.3 13.55L11.15 13.75L11.1 13.85L11.15 13.95Q11.2 14.45 11.75 14.3L12.05 14.05L12.05 13.95L11.9 13.6L11.6 13.45" />
<path style="fill:#F3B94B;fill-opacity:1" d="M24.85,10.55Q24.65 10.5 24.55 10.65L24.4 10.85L24.35 10.95L24.4 11Q24.45 11.5 25 11.4L25.3 11.15L25.3 11.05L25.15 10.7L24.85 10.5L24.85 10.55M8.5,11.1L15.7 11.35Q19.7 11.3 22.5 10.2Q25.3 9.05 26.05 9.4Q26.8 9.7 27.35 10.45Q27.85 11.15 28.15 12.35L28.25 12.95L28 12.75Q27.35 12.25 26.7 12L26.6 12.25L26.5 12.35L26.25 12.4Q25.9 12.4 25.65 12.1L25.6 11.85L25.6 11.75L25.45 11.75L24.6 11.85L24.45 11.75L24.25 11.7L24.1 11.7L24.25 11.15L20.7 11.85L17.7 12.25L17.8 12.55L17.8 12.65L17.5 12.9Q16.95 13 16.9 12.5L16.85 12.45L16.9 12.35L17 12.25L7.95 11.65L5.9 11.75Q6.7 10.95 8.5 11.1M23.05,13.3L23.05 13.4L22.75 13.65Q22.2 13.75 22.15 13.25L22.1 13.2L22.15 13.1L22.3 12.9Q22.4 12.75 22.6 12.8L22.6 12.75L22.9 12.95L23.05 13.3" />
<path style="fill:#3D434B;fill-opacity:1" d="M27.4,3.45L27.55 3.5L27.85 3.85L28.2 4.4L29.5 7.45Q30.4 10.1 29.3 13.25L28.15 13.5L26.2 13.45Q24.05 13 22.4 11.2Q21.75 10.5 21.6 9.6L22.65 8.95L24.95 7.2Q26 6.15 26.7 4.3Q27.1 3.35 27.4 3.45M25.1,11.85L26.4 12.3L26.9 12.4L28.6 12.45Q29 10.85 28.75 9.1L28.5 7.7L27.8 5.55L27.75 5.35L27.5 4.9Q26.95 6.6 25.45 8Q23.95 9.35 22.75 9.95L22.9 10.2L23.65 10.9L24.45 11.5L25.1 11.85M11.65,11L11.4 11.5Q11 12.3 10.2 12.75L10.15 12.8L8.2 13.7L6.35 14L4.9 13.55L4.85 13.55Q3.9 13.05 2.95 11.2Q1.95 9.35 2.1 7.35L2.25 5.7L2.7 4.8L3.25 4.25L3.4 4.15L3.45 4.15L3.55 4.25L3.75 4.35L3.75 4.4L7.4 7.3L10.65 9.1L12.05 9.8L12 9.8L11.65 11M3.4,6.65L3.4 7.05Q3.35 8 3.7 9.4Q4.25 11.6 5.9 12.7L7.05 12.55L8 12.3L8.8 11.95L9.4 11.55L10.4 10.6L10.5 10.2Q8.9 9.8 6.95 8.6Q4.95 7.35 3.65 5.85L3.4 6.6L3.4 6.65" />
<path style="fill:#B4BCC2;fill-opacity:1" d="M24.45,11.5L23.65 10.9L23.55 10.05Q23.9 10.1 24.7 9.4L26.45 7.75L27.7 5.8L27.75 5.7L27.75 6.1Q27.75 8.05 26.65 10.05Q25.9 11.4 25.1 11.85L24.45 11.5M26.9,12.4L28.2 10.15L28.5 7.7L28.75 9.1Q29 10.85 28.6 12.45L26.9 12.4M8.45,11.7Q5.25 9.4 3.5 6.7Q5.3 8.35 7.3 9.45Q9.25 10.6 10.4 10.6L9.4 11.55L8.8 11.95L8.45 11.7M7.05,12.55L5.9 12.7Q4.25 11.6 3.7 9.4Q3.35 8 3.4 7.05Q4.35 9.75 7.05 12.55" />
<path style="fill:#717D8E;fill-opacity:1" d="M28.2,10.15L26.9 12.4L26.4 12.3L25.1 11.85Q25.9 11.4 26.65 10.05Q27.75 8.05 27.75 6.1L27.75 5.7L27.75 5.35L27.8 5.55L28.5 7.7L28.2 10.15M3.4,7.05L3.4 6.65L3.4 6.6L3.5 6.7Q5.25 9.4 8.45 11.7L8.8 11.95L8 12.3L7.05 12.55Q4.35 9.75 3.4 7.05" />
<path style="fill:#E3E4E5;fill-opacity:1" d="M27.7,5.8L26.45 7.75L24.7 9.4Q23.9 10.1 23.55 10.05L23.65 10.9L22.9 10.2L22.75 9.95Q23.95 9.35 25.45 8Q26.95 6.6 27.5 4.9L27.75 5.35L27.75 5.7L27.7 5.8M7.3,9.45Q5.3 8.35 3.5 6.7L3.4 6.6L3.65 5.85Q4.95 7.35 6.95 8.6Q8.9 9.8 10.5 10.2L10.4 10.6Q9.25 10.6 7.3 9.45" />
</g>
</svg>
