<?xml version="1.0" encoding="utf-8"?>
<svg version="1.1" id="Layer_1"
xmlns="http://www.w3.org/2000/svg"
xmlns:xlink="http://www.w3.org/1999/xlink"
xmlns:author="http://www.sothink.com"
width="49px" height="50px"
xml:space="preserve">
<g id="946" transform="matrix(1, 0, 0, 1, 1.15, 2.25)">
<path style="fill:#452510;fill-opacity:1" d="M38.85,28.75L36.55 28.95L33.9 28.2L32.35 27.6Q30.35 26.65 28.9 27.95L27 29.7L25.6 31.3L24.05 32.85Q23.25 33.25 22.75 34.5L21.85 37.05L21.75 37.35L21.35 40.8Q20.95 42.4 19.5 43.75L19.45 43.7L19.95 40.65Q17.95 42.4 18.8 40.45L19.3 38.95L19.6 37.8L20.65 35.5L21.55 33.4Q21.65 32.55 20.35 31.95Q17.25 31.25 15.15 28.7Q14.05 28.2 12.65 28.3L9.75 29.6L6.3 31.15L6 31.3Q5.65 31.5 5.55 31.1L6.1 30.75Q4.35 31.15 5.85 30.25Q6.7 29.7 8.6 28.8Q13.8 26.15 13.8 24.8L13.8 23.9L13.85 23.7Q13.95 22.7 14.3 21.6L14.3 20.5L14 19.65L13.45 18.5L12.5 15.5L11.7 12.6L10.8 8.3L10.7 7.85L10.9 7.75L11.1 8.05Q11.35 7.1 11.7 7.6Q12.3 8.45 13.3 14L13.65 16Q14 17.65 14.85 18.05L20.35 20.3L23.15 20.6Q24.1 20.4 25.75 18.85Q27.4 17.25 28.3 14.8Q28.45 13.95 28.75 13.2Q29.9 10 33.45 7.65L34.95 6.75Q36.15 6.1 37.35 6Q38.25 5.8 38.6 6.45L38.65 6.6Q36.2 7.2 34.35 8.35L32.95 9.5Q30.35 11.85 29.4 15.85L29.2 16.5L27.6 19Q26.8 20.5 27.65 22L27.95 22.65L29.3 24.35Q30.65 25.5 31.8 26L33.6 26.5L37.5 27.3Q38.5 27.3 40.5 26.55L44.2 25Q43.95 27.4 39.95 28.5L38.85 28.75M15.5,24.35Q15.15 25.15 15.3 25.95Q15.4 27 16.2 28.15Q17.6 30.1 21.3 30.7L24.15 30.45L25.85 29.05L26.05 28.8L27.2 26.9L27.25 26.75L27.5 25.3L27.5 25.2Q27.45 24.65 26.2 23.5L24.8 22.3L21.8 21.65L20.4 21.25L19.05 21.1Q17.85 20.95 16.75 21.65Q16.25 22.4 15.6 24.2L15.5 24.35M11.4,37.5L11.45 37.15Q11.45 36.95 11.65 37.2L13.65 36.95Q15.55 36.45 14.95 37.25Q14.4 38.05 14.15 39.15L11.4 37.5" />
<radialGradient
id="RadialGradID_1200" gradientUnits="userSpaceOnUse" gradientTransform="matrix(0.0264587, 0, 0, 0.0264587, 21.35, 22.2)" spreadMethod ="pad" cx="0" cy="0" r="819.2" fx="0" fy="0" >
<stop  offset="0.533333"  style="stop-color:#896040;stop-opacity:1" />
<stop  offset="0.827451"  style="stop-color:#4D3221;stop-opacity:1" />
<stop  offset="0.968627"  style="stop-color:#392002;stop-opacity:1" />
</radialGradient>
<path style="fill:url(#RadialGradID_1200) " d="M32.95,9.5L34.35 8.35L35.5 9.4Q38.5 12.45 39.85 16.1Q40.9 19.05 40.9 22.45L40.75 25L40.65 25.05Q39.15 26.15 37.8 26.15Q30.75 26.15 28.2 20.2Q28.7 18.55 30.35 15.25Q32.4 11.25 32.95 9.5M22.5,4.1Q28.7 4.1 33.45 7.65Q29.9 10 28.75 13.2L26.95 15.2Q23.8 18.8 22.25 18.8L20.1 18.4Q18.55 17.7 17.1 17.35Q16.1 17.1 15.3 16.1Q14.4 14.9 13.3 14Q12.3 8.45 11.7 7.6Q16.35 4.1 22.5 4.1M13.85,23.7L13.8 23.9L11.45 25.6Q8.5 27.5 5.35 29Q4.2 25.95 4.2 22.35Q4.2 18.65 5.5 15.45Q6.85 12.1 9.5 9.4L10.8 8.3L11.7 12.6L11.65 14Q11.6 15.1 12.65 18.05L13.55 20.9L13.6 21.85Q13.6 23.05 13.85 23.7M13.8,39.1L14.55 39.3L14.15 39.15Q14.4 38.05 14.95 37.25Q15.55 36.45 13.65 36.95L11.65 37.2Q11.45 36.95 11.45 37.15L9.5 35.45Q7.55 33.45 6.3 31.15L9.75 29.6L13.55 29.05Q14.15 29.05 17.35 31.35Q20.7 33.75 20.7 34.65L20.65 35.5L19.6 37.8L19.3 38.95L18.8 40.45Q16.6 40.05 13.8 39.1M39.45,29.85Q38.1 32.85 35.5 35.45Q30.15 40.8 22.5 40.8L21.35 40.8L21.75 37.35L21.85 37.05Q22.95 34.9 23.65 34.2L25.15 33Q25.95 32.5 26.35 31.55Q26.7 30.6 28.2 29.5Q29.7 28.35 31.65 28.35Q32.55 28.35 34.55 29.15Q36.55 29.95 38.15 29.95L39.45 29.85M21.95,29.5Q19.3 29.5 18.15 28.9Q16.75 28.2 15.3 25.95Q15.15 25.15 15.5 24.35L15.6 24.2L16.25 23.25Q16.9 22.2 17.35 22L18.75 21.8Q21.5 21.8 24.35 23.1Q26.5 24.05 27.5 25.3L27.25 26.75L27.2 26.9L26.05 28.8L25.85 29.05L21.95 29.5" />
<path style="fill:#916F53;fill-opacity:1" d="M30.35,15.25Q28.7 18.55 28.2 20.2L27.95 21.35L27.95 22.65L27.65 22Q26.8 20.5 27.6 19L29.2 16.5L29.4 15.85Q30.35 11.85 32.95 9.5Q32.4 11.25 30.35 15.25M13.6,21.85L13.55 20.9L12.65 18.05Q11.6 15.1 11.65 14L11.7 12.6L12.5 15.5L13.45 18.5L14 19.65L14.3 20.5L14.3 21.6Q13.95 22.7 13.85 23.7Q13.6 23.05 13.6 21.85M9.75,29.6L12.65 28.3Q14.05 28.2 15.15 28.7Q17.25 31.25 20.35 31.95Q21.65 32.55 21.55 33.4L20.65 35.5L20.7 34.65Q20.7 33.75 17.35 31.35Q14.15 29.05 13.55 29.05L9.75 29.6M38.15,29.95Q36.55 29.95 34.55 29.15Q32.55 28.35 31.65 28.35Q29.7 28.35 28.2 29.5Q26.7 30.6 26.35 31.55Q25.95 32.5 25.15 33L23.65 34.2Q22.95 34.9 21.85 37.05L22.75 34.5Q23.25 33.25 24.05 32.85L25.6 31.3L27 29.7L28.9 27.95Q30.35 26.65 32.35 27.6L33.9 28.2L36.55 28.95L38.85 28.75L39.95 28.5L39.45 29.85L38.15 29.95M24.35,23.1Q21.5 21.8 18.75 21.8L17.35 22Q16.9 22.2 16.25 23.25L15.6 24.2Q16.25 22.4 16.75 21.65Q17.85 20.95 19.05 21.1L20.4 21.25L21.8 21.65L24.8 22.3L26.2 23.5Q27.45 24.65 27.5 25.2L27.5 25.3Q26.5 24.05 24.35 23.1" />
<path style="fill:#543022;fill-opacity:1" d="M27.95,21.35L28.2 20.2Q30.75 26.15 37.8 26.15Q39.15 26.15 40.65 25.05L40.75 25L40.5 26.55Q38.5 27.3 37.5 27.3L33.6 26.5L31.8 26Q30.65 25.5 29.3 24.35L27.95 22.65L27.95 21.35M28.75,13.2Q28.45 13.95 28.3 14.8Q27.4 17.25 25.75 18.85Q24.1 20.4 23.15 20.6L20.35 20.3L14.85 18.05Q14 17.65 13.65 16L13.3 14Q14.4 14.9 15.3 16.1Q16.1 17.1 17.1 17.35Q18.55 17.7 20.1 18.4L22.25 18.8Q23.8 18.8 26.95 15.2L28.75 13.2M5.35,29Q8.5 27.5 11.45 25.6L13.8 23.9L13.8 24.8Q13.8 26.15 8.6 28.8Q6.7 29.7 5.85 30.25L5.35 29M25.85,29.05L24.15 30.45L21.3 30.7Q17.6 30.1 16.2 28.15Q15.4 27 15.3 25.95Q16.75 28.2 18.15 28.9Q19.3 29.5 21.95 29.5L25.85 29.05" />
<path style="fill:#7E5D2A;fill-opacity:1" d="M23.35,3.3Q30.9 3.55 36.2 8.9L36.55 9.25L35.8 10.05L36.9 9.65L36.6 10.9L36.7 10.95L37.55 11.15L37.7 10.55L38.35 11.35Q39.7 13.25 40.55 15.35Q41.85 18.65 41.85 22.55L41.8 24.05L40.6 24.05L40.65 22.5Q40.65 19.15 39.6 16.25Q38.25 12.65 35.3 9.7Q30.3 4.7 23.25 4.45L23.35 3.3M10.6,7.45L12.2 6.25L12.9 7.2L11.55 8.2L10.35 9.2L9.8 9.7L9.45 10.1Q7.05 12.6 5.85 15.6Q4.55 18.75 4.55 22.4L4.6 23.85L3.35 23.85L3.3 22.5Q3.3 18.15 4.95 14.55Q6.25 11.7 8.6 9.25L8.95 8.9L9.5 8.4L10.6 7.45M40.4,30.1Q38.95 33.4 36.2 36.15Q33.05 39.3 29.2 40.7Q26.1 41.8 22.55 41.8Q19 41.8 15.95 40.7Q12.1 39.3 8.95 36.15Q6.35 33.55 4.95 30.45L6.05 29.85Q7.35 32.8 9.8 35.25Q15.05 40.55 22.55 40.55Q30.05 40.55 35.3 35.25Q37.9 32.65 39.3 29.55L40.15 30L40.4 30.1" />
<linearGradient
id="LinearGradID_1201" gradientUnits="userSpaceOnUse" gradientTransform="matrix(0, 0.0193787, -0.02771, 0, 22.6, 28.45)" spreadMethod ="pad" x1="-819.2" y1="0" x2="819.2" y2="0" >
<stop  offset="0" style="stop-color:#F8D96F;stop-opacity:1" />
<stop  offset="1" style="stop-color:#B3783E;stop-opacity:1" />
</linearGradient>
<path style="fill:url(#LinearGradID_1201) " d="M43.15,24.1L43.2 22.55Q43.2 18.05 41.55 14.25L43.1 12.55Q45.3 17 45.3 22.45L45.25 24.15L43.15 24.1M8,37.1Q10.2 39.3 12.7 40.7Q17.1 43.15 22.55 43.15Q28 43.15 32.45 40.7Q34.95 39.3 37.15 37.1Q40.2 34.1 41.7 30.45L43.9 30.55Q42.2 34.9 38.6 38.45L36.05 40.7Q30.25 45.15 22.55 45.15Q14.9 45.15 9.1 40.7L6.55 38.45Q3.2 35.15 1.55 31.1L1.75 31.1L3.7 30.85Q5.15 34.25 8 37.1M-0.05,23.85L-0.1 22.4Q-0.1 16.25 2.75 11.3L2.8 11.4L4.05 13.35Q2 17.5 2 22.5L2.05 23.85L-0.05 23.85" />
<linearGradient
id="LinearGradID_1202" gradientUnits="userSpaceOnUse" gradientTransform="matrix(0, 0.0179749, -0.0251465, 0, 22.6, 26.9)" spreadMethod ="pad" x1="-819.2" y1="0" x2="819.2" y2="0" >
<stop  offset="0" style="stop-color:#D3AC5D;stop-opacity:1" />
<stop  offset="1" style="stop-color:#E0B873;stop-opacity:1" />
</linearGradient>
<path style="fill:url(#LinearGradID_1202) " d="M41.8,24.05L41.85 22.55Q41.85 18.65 40.55 15.35Q39.7 13.25 38.35 11.35L37.7 10.55Q37.9 9.9 38.45 9.4L38.5 9.4L38.9 9.9Q40.55 11.95 41.55 14.25Q43.2 18.05 43.2 22.55L43.15 24.1L41.8 24.05M8.95,36.15Q12.1 39.3 15.95 40.7Q19 41.8 22.55 41.8Q26.1 41.8 29.2 40.7Q33.05 39.3 36.2 36.15Q38.95 33.4 40.4 30.1L41.7 30.45Q40.2 34.1 37.15 37.1Q34.95 39.3 32.45 40.7Q28 43.15 22.55 43.15Q17.1 43.15 12.7 40.7Q10.2 39.3 8 37.1Q5.15 34.25 3.7 30.85L4.95 30.45Q6.35 33.55 8.95 36.15M36.55,9.25L36.2 8.9Q30.9 3.55 23.35 3.3L23.45 2Q31.45 2.25 37.15 7.95L37.5 8.3L36.55 9.25M11.45,5.15L12.2 6.25L10.6 7.45L10.15 7.05L9.55 6.55L11.45 5.15M2.05,23.85L2 22.5Q2 17.5 4.05 13.35Q5.4 10.65 7.65 8.3L8 7.95L8.55 7.45L9.5 8.4L8.95 8.9L8.6 9.25Q6.25 11.7 4.95 14.55Q3.3 18.15 3.3 22.5L3.35 23.85L2.05 23.85" />
<linearGradient
id="LinearGradID_1203" gradientUnits="userSpaceOnUse" gradientTransform="matrix(-0.0205078, 0, 0, -0.0088501, 23.65, 6.8)" spreadMethod ="pad" x1="-819.2" y1="0" x2="819.2" y2="0" >
<stop  offset="0" style="stop-color:#F2D16B;stop-opacity:1" />
<stop  offset="0.568627" style="stop-color:#FFFEB1;stop-opacity:1" />
<stop  offset="1" style="stop-color:#F4D46C;stop-opacity:1" />
</linearGradient>
<path style="fill:url(#LinearGradID_1203) " d="M7.9,5.15L10.25 3.35L11.45 5.15L9.55 6.55L7.9 5.15M37.5,8.3L37.15 7.95Q31.45 2.25 23.45 2L23.65 -0.2Q32.4 0.15 38.6 6.4L39.15 6.95L37.5 8.3M40.4,8.55L40.75 8.9Q42.1 10.5 43.1 12.55L41.55 14.25Q40.55 11.95 38.9 9.9Q39.4 9.2 40.4 8.55M6.55,7.8Q7.1 7.8 7.65 8.3Q5.4 10.65 4.05 13.35L2.8 11.4L2.75 11.3Q3.45 10.1 4.3 9L6.55 7.8" />
<path style="fill:#835B1E;fill-opacity:1" d="M36.55,9.25L37.5 8.3L39.15 6.95L39.2 6.95L39.9 8.1L39.65 8.35L38.5 9.4L38.45 9.4Q37.9 9.9 37.7 10.55L37.55 11.15L36.7 10.95L36.6 10.9L36.9 9.65L35.8 10.05L36.55 9.25M9.5,8.4L8.55 7.45L7 6L7.9 5.15L9.55 6.55L10.15 7.05L10.6 7.45L9.5 8.4" />
<path style="fill:#F2EEAF;fill-opacity:1" d="M38.9,9.9L38.5 9.4L39.65 8.35L39.9 8.1L40.4 8.55Q39.4 9.2 38.9 9.9" />
<path style="fill:#F2EAAC;fill-opacity:1" d="M8.55,7.45L8 7.95L7.65 8.3Q7.1 7.8 6.55 7.8L4.3 9L6.55 6.4L7 6L8.55 7.45" />
<path style="fill:#64491E;fill-opacity:1" d="M40.15,30L39.3 29.55Q40.35 26.95 40.6 24.05L41.8 24.05Q41.6 27.3 40.4 30.1L40.15 30M12.2,6.25Q16.75 3.25 22.55 3.25L23.35 3.3L23.25 4.45L22.55 4.45Q17.1 4.45 12.9 7.2L12.2 6.25M4.95,30.45Q3.55 27.4 3.35 23.85L4.6 23.85Q4.8 27.05 6.05 29.85L4.95 30.45" />
<path style="fill:#BA8343;fill-opacity:1" d="M11.45,5.15Q16.3 1.95 22.55 1.95L23.45 2L23.35 3.3L22.55 3.25Q16.75 3.25 12.2 6.25L11.45 5.15M41.7,30.45Q42.95 27.45 43.15 24.1L45.25 24.15Q45.05 27.5 43.9 30.55L41.7 30.45M2.05,23.85Q2.25 27.6 3.7 30.85L1.75 31.1L1.55 31.1Q0.15 27.75 -0.05 23.85L2.05 23.85" />
<path style="fill:#AA712F;fill-opacity:1" d="M23.45,2L22.55 1.95Q16.3 1.95 11.45 5.15L10.25 3.35Q15.65 -0.25 22.55 -0.25L23.65 -0.2L23.45 2M41.7,30.45L40.4 30.1Q41.6 27.3 41.8 24.05L43.15 24.1Q42.95 27.45 41.7 30.45M4.95,30.45L3.7 30.85Q2.25 27.6 2.05 23.85L3.35 23.85Q3.55 27.4 4.95 30.45" />
<path style="fill:#694722;fill-opacity:1" d="M29.95,6.35L31.3 4.3L32.45 2.85L33.75 1.5L34.15 2.9L33.55 3.65L32.5 4.95L32.05 5.5L31.05 6.85L30.55 7.4L29.25 7.7L29.3 7.55L29.95 6.35M15.45,6.35L16.1 7.55L16.15 7.65L14.95 7.45Q14.65 7.4 14.15 6.95L13.45 6.2L11.35 3.25L11.1 2.85L11.25 1.1L12.65 2.5L14.1 4.3L15.45 6.35M15.15,38.6L13.8 40.65L13.65 40.85L13.35 41.25L12.65 42.1L11.35 43.45L11.05 41.9L11.55 41.3L12.6 40L13.05 39.45L14.05 38.1L14.55 37.55L15.85 37.25L15.8 37.4L15.15 38.6M31,40.65L30.95 40.55L29.65 38.6L29 37.4L28.95 37.3L30.15 37.5Q30.45 37.55 30.95 38L31.65 38.75L33.75 41.7L34 42.1L33.85 43.85L32.45 42.45L31 40.65" />
<path style="fill:#B5884F;fill-opacity:1" d="M41.15,17.05Q42.45 19.4 42.55 21.7Q42.7 24 42.2 26.4L46.35 26.5L45.9 27.85L44.45 28.15Q43.05 28.4 40.4 27.35Q41.2 25.25 41.55 22.7Q41.85 20.15 41.4 18.2L41.35 17.9L41.3 17.75L41.3 17.7L41.15 17.05M19.25,2.65Q25.55 1.55 31.3 4.3L29.95 6.35Q24.8 4.35 19.25 5.3Q17.1 5.7 15.45 6.35L14.1 4.3Q16.2 3.2 19.25 2.65M1.3,28.15L-0.15 27.85L-0.6 26.5L3.55 26.4Q3.05 24 3.2 21.7Q3.3 19.4 4.6 17.05L4.45 17.7L4.45 17.75L4.35 18.2Q3.9 20.15 4.2 22.7Q4.55 25.25 5.35 27.35Q2.7 28.4 1.3 28.15M26.15,44.6Q29.75 43.9 32.45 42.45L33.85 43.85L33.55 44.1Q29.15 47.2 22.9 47.2L22.2 47.2Q16.4 47 12.25 44.1L11.35 43.45L12.65 42.1Q18.45 46.1 26.15 44.6" />
<path style="fill:#E3C797;fill-opacity:1" d="M14.1,4.3L12.65 2.5Q15.35 1.05 18.95 0.35Q26.65 -1.15 32.45 2.85L31.3 4.3Q25.55 1.55 19.25 2.65Q16.2 3.2 14.1 4.3M46.35,26.5L42.2 26.4Q42.7 24 42.55 21.7Q42.45 19.4 41.15 17.05Q44.1 16.15 45 17.6Q45.85 19.05 46.15 22.25L46.55 25.75L46.35 26.5M-0.6,26.5L-0.8 25.75L-0.4 22.25Q-0.1 19.05 0.75 17.6Q1.65 16.15 4.6 17.05Q3.3 19.4 3.2 21.7Q3.05 24 3.55 26.4L-0.6 26.5M32.45,42.45Q29.75 43.9 26.15 44.6Q18.45 46.1 12.65 42.1L13.35 41.25L13.65 40.85L13.8 40.65L13.9 40.7Q19.6 43.4 25.85 42.3Q28.9 41.75 31 40.65L32.45 42.45" />
<path style="fill:#845F32;fill-opacity:1" d="M29.95,6.35L29.3 7.55L25.1 6.6Q22.75 6.4 20.75 6.55Q18 6.8 16.15 7.65L16.1 7.55L15.45 6.35Q17.1 5.7 19.25 5.3Q24.8 4.35 29.95 6.35M29,37.4L29.65 38.6L25.85 39.65L25.4 39.75Q20.1 40.5 15.15 38.6L15.8 37.4L20 38.35L24.35 38.4Q27.1 38.15 28.95 37.3L29 37.4" />
<path style="fill:#E7E3D7;fill-opacity:1" d="M32.45,2.85Q26.65 -1.15 18.95 0.35Q15.35 1.05 12.65 2.5L11.25 1.1L11.55 0.85Q15.95 -2.25 22.2 -2.25L22.9 -2.25Q28.7 -2.05 32.85 0.85L33.75 1.5L32.45 2.85M42.8,15.25L45.65 15.5Q46.3 15.95 46.75 20Q47.1 23.2 46.55 25.75L46.15 22.25Q45.85 19.05 45 17.6Q44.1 16.15 41.15 17.05L41.3 17.7L40.7 16.1Q41.35 15.4 42.8 15.25M0.75,17.6Q-0.1 19.05 -0.4 22.25L-0.8 25.75Q-1.35 23.2 -1 20Q-0.55 15.95 0.1 15.5L2.95 15.25Q4.4 15.4 5.05 16.1L4.45 17.7L4.6 17.05Q1.65 16.15 0.75 17.6" />
<path style="fill:#835428;fill-opacity:1" d="M40.3,27.3L38.9 28L39 27.9Q39.55 26.15 39.9 23.8Q40.35 20.6 40.1 18.4L39.9 17.4L39.75 17L40.7 16.1L41.3 17.7L41.3 17.75L41.35 17.9L41.4 18.2Q41.85 20.15 41.55 22.7Q41.2 25.25 40.4 27.35L40.3 27.3M5.45,27.3L5.35 27.35Q4.55 25.25 4.2 22.7Q3.9 20.15 4.35 18.2L4.45 17.75L4.45 17.7L5.05 16.1L6 17L5.85 17.4L5.65 18.4Q5.4 20.6 5.85 23.8L6.75 27.9L6.85 28Q6 27.7 5.45 27.3" />
<path style="fill:#523017;fill-opacity:1" d="M44.85,29.1L41.9 29.2Q40.35 28.9 38.9 28L40.3 27.3L40.4 27.35Q43.05 28.4 44.45 28.15L45.9 27.85L44.85 29.1M5.35,27.35L5.45 27.3Q6 27.7 6.85 28Q5.4 28.9 3.85 29.2L0.9 29.1L-0.15 27.85L1.3 28.15Q2.7 28.4 5.35 27.35" />
<path style="fill:#E0D5B3;fill-opacity:1" d="M31,40.65Q28.9 41.75 25.85 42.3Q19.6 43.4 13.9 40.7L15.15 39.8L18.35 40.3L20.35 40.6Q20.45 40.95 20.9 41.35L22.5 41.65Q23.75 41.6 24.55 40.7L29.05 39.8Q29.45 39.8 30.95 40.55L31 40.65" />
<path style="fill:#F3EACF;fill-opacity:1" d="M25.4,39.75L25.85 39.65L29.65 38.6L30.95 40.55Q29.45 39.8 29.05 39.8L24.55 40.7Q23.75 41.6 22.5 41.65L20.9 41.35Q20.45 40.95 20.35 40.6L18.35 40.3L15.15 39.8L13.9 40.7L13.8 40.65L15.15 38.6Q20.1 40.5 25.4 39.75" />
<path style="fill:#E3C797;fill-opacity:1" d="M21.7,42.6L21.8 42.2L21.55 41.55L20.95 41.3L20.3 41.55Q20.05 41.8 20.05 42.15L20.05 42.2L20.1 42.4L19.9 41.8Q19.9 41.45 20.25 41.25Q20.6 41 21 41Q21.9 41 21.9 42.2L21.85 42.6L21.7 42.7L21.7 42.6M22.5,42.4Q22.5 41.15 23.2 40.6Q23.8 40.1 25.15 40.1Q25.85 40.1 26.45 40.65Q27.05 41.15 27 41.8L26.45 41Q25.8 40.35 24.4 40.45Q22.95 40.55 22.65 42.5L22.55 43.05L22.5 42.4" />
<path style="fill:#E0D5B3;fill-opacity:1" d="M22.5,45.65Q21.95 46.1 21.2 46.1Q20.15 46.1 19.75 45.25L20 45.45Q20.8 46 21.8 45.7Q22.75 45.35 23.1 44.65Q23 45.25 22.5 45.65M25.9,44.6L25.25 44.85Q24.45 44.85 24.45 44.15L24.6 44.35L25.25 44.65Q25.6 44.65 25.85 44.35L26.05 44.05L26.1 43.75L26.1 43.65L26.15 43.95L25.9 44.6" />
<path style="fill:#F3EACF;fill-opacity:1" d="M21.7,42.6L21.7 42.7Q21.6 43.4 20.85 43.4L20.4 43.2Q20.05 42.9 20.05 42.55L20.1 42.45L20.3 42.8L20.95 43.1Q21.3 43.1 21.55 42.8L21.6 42.75L21.7 42.6M23.65,42.55Q23.9 41.6 24.95 41.6L26.35 41.8L26.55 41.95Q26.9 42.25 27 42.2L27.05 42.25L27 42.3L26.75 42.3Q26.45 42 25.5 42L24.15 42.15Q23.85 42.25 23.65 42.55" />
<path style="fill:#B5884F;fill-opacity:1" d="M24.25,43.3Q24.25 42.45 25.15 42.45Q26.2 42.45 26.2 43.65L26.15 43.95L26.1 43.65L25.9 43.15L25.85 43.1Q25.6 42.85 25.25 42.85Q24.9 42.85 24.6 43.1Q24.35 43.4 24.35 43.75L24.35 43.9L24.25 43.3" />
<path style="fill:#724222;fill-opacity:1" d="M45.55,22.7L44.75 23.6L44.1 23.85L44.35 24.35L44.35 24.4Q44.55 24.6 44.35 24.6L43.75 24.35Q42.8 23.85 42.9 23.15Q43 22.45 43.45 22.75L44.4 22.85Q44.85 22.6 44.95 21.95L44.85 21.2L44.85 21.15L44.8 21.15L44.7 20.95Q44.3 20.55 44.1 20.6L43.85 20.9L43.85 21.25L43.9 21.6L43.7 21.6L43.65 21.6L43.1 21.1Q42.8 20.6 42.85 20.25Q42.9 19.8 43.2 19.45L43.45 19.75L43.8 20L44.4 19.9Q44.9 19.9 45.25 20.3Q45.6 20.65 45.75 21.4L45.8 21.65L45.8 21.9L45.8 21.95L45.55 22.7M1.4,21.15L1.35 21.15L1.35 21.2Q1.15 21.5 1.25 21.95Q1.3 22.6 1.75 22.85L2.7 22.75Q3.15 22.45 3.3 23.15Q3.35 23.85 2.45 24.35L1.8 24.6Q1.65 24.6 1.8 24.4L1.8 24.35L2.05 23.85L1.4 23.6Q0.9 23.4 0.6 22.7L0.4 21.9L0.4 21.65L0.45 21.4Q0.55 20.65 0.9 20.3Q1.25 19.9 1.75 19.9L2.35 20Q2.5 20.05 2.75 19.75L3 19.45L3.3 20.25L3.05 21.1L2.5 21.6L2.25 21.6L2.35 21.25L2.35 20.9L2.05 20.6L1.5 20.95L1.4 21.15M21.6,42.75L21.55 42.8Q21.3 43.1 20.95 43.1L20.3 42.8L20.1 42.45L20.1 42.4L20.05 42.2L20.05 42.15Q20.05 41.8 20.3 41.55L20.95 41.3L21.55 41.55L21.8 42.2L21.7 42.6L21.6 42.75M19.4,44.75L19.4 44.05Q19.9 44.65 21.15 44.55Q22.15 44.45 22.55 43.05L22.65 42.5Q22.95 40.55 24.4 40.45Q25.8 40.35 26.45 41L27 41.8L27.05 42.05L27 42.2Q26.9 42.25 26.55 41.95L26.35 41.8L24.95 41.6Q23.9 41.6 23.65 42.55L23.65 42.7L23.55 43.15L23.15 44.55L23.1 44.65Q22.75 45.35 21.8 45.7Q20.8 46 20 45.45L19.75 45.25L19.4 44.75M26.1,43.75L26.05 44.05L25.85 44.35Q25.6 44.65 25.25 44.65L24.6 44.35L24.45 44.15L24.35 43.9L24.35 43.75Q24.35 43.4 24.6 43.1Q24.9 42.85 25.25 42.85Q25.6 42.85 25.85 43.1L25.9 43.15L26.1 43.65L26.1 43.75" />
<path style="fill:#E7E3D7;fill-opacity:1" d="M21.8,0.45L22.35 1.35L22.8 1.6L23.25 1.35Q23.9 0.75 23.8 0.2L23.85 0.5L23.4 1.8L22.75 2.35Q21.75 1.65 21.75 1.1L21.8 0.45M44.15,21.05Q44 21.05 43.85 21.25L43.85 20.9L44.1 20.6Q44.3 20.55 44.7 20.95L44.8 21.15L44.15 21.05M44.35,24.35L44.1 23.85L44.75 23.6L45.55 22.7L45.8 21.95L45.8 22.2Q45.75 23.3 45.4 23.55L44.45 24.1L44.35 24.35M28.15,3.85L28.1 3.8Q27.75 2.65 26.7 2.65L25.75 2.85L24.25 3.6L24.75 3.2Q25.55 2.45 26.4 2.1Q27.35 1.7 27.65 2.1L28 2.85L28.35 2.8L28.25 3L28.15 3.85M17.6,3L17.65 2.85Q17.65 2.5 17.95 2.1Q18.25 1.7 19.2 2.1Q20.1 2.45 20.85 3.2L21.65 3.75L21.95 3.9L21.45 4.15Q20.9 4.15 20.05 3.4Q19.2 2.65 18.6 2.65L17.9 2.75L17.6 3M1.5,20.95L2.05 20.6L2.35 20.9L2.35 21.25L2 21.05L1.4 21.15L1.5 20.95M1.8,24.35L1.7 24.1Q1.05 23.8 0.75 23.55Q0.45 23.3 0.35 22.2L0.4 21.9L0.6 22.7Q0.9 23.4 1.4 23.6L2.05 23.85L1.8 24.35" />
<path style="fill:#85502D;fill-opacity:1" d="M23.25,1.35L22.8 1.6L22.35 1.35L21.8 0.45Q21.75 -0.15 22.6 -0.65L22.8 -0.6L23 -0.65L23.65 -0.05L23.8 0.2Q23.9 0.75 23.25 1.35M23.8,3.8L23.6 3.9Q22.7 4.2 21.95 3.9L21.65 3.75L20.85 3.2Q20.1 2.45 19.2 2.1Q18.25 1.7 17.95 2.1Q17.65 2.5 17.65 2.85L17.6 3L17.5 3.05L17.4 3L17.05 2.55L16.9 1.65L17.1 0.8L17.5 0.15L18.25 -0.45Q18.8 -0.75 18.6 0.65Q19.9 0.75 20.85 1.85Q21.8 2.9 22.85 2.85Q23.85 2.9 24.75 1.85Q25.75 0.75 27 0.65Q26.85 -0.75 27.35 -0.45L28.1 0.15L28.5 0.8L28.7 1.65L28.6 2.55L28.25 3L28.35 2.8L28 2.85L27.65 2.1Q27.35 1.7 26.4 2.1Q25.55 2.45 24.75 3.2L24.25 3.6L23.8 3.8" />
</g>
</svg>
