<?xml version="1.0" encoding="utf-8"?>
<svg version="1.1" id="Layer_1"
xmlns="http://www.w3.org/2000/svg"
xmlns:xlink="http://www.w3.org/1999/xlink"
xmlns:author="http://www.sothink.com"
width="23px" height="8px"
xml:space="preserve">
<g id="492" transform="matrix(1, 0, 0, 1, 0, 0)">
<path style="fill:#FFFFFF;fill-opacity:1" d="M19.15,1Q22.45 2.05 22.45 3.55Q22.45 5 19.15 6Q15.9 7.05 11.25 7.05Q6.55 7.05 3.3 6Q0 5 0 3.55Q0 2.05 3.3 1Q6.55 0 11.25 0Q15.9 0 19.15 1M17.05,1.85L11.2 1.3L5.4 1.85Q2.95 2.4 2.95 3.2Q2.95 3.95 5.4 4.5L11.2 5.1L17.05 4.5Q19.45 3.95 19.45 3.2Q19.45 2.4 17.05 1.85" />
</g>
</svg>
