<?xml version="1.0" encoding="utf-8"?>
<svg version="1.1" id="Layer_1"
xmlns="http://www.w3.org/2000/svg"
xmlns:xlink="http://www.w3.org/1999/xlink"
xmlns:author="http://www.sothink.com"
width="84px" height="13px"
xml:space="preserve">
<g id="142" transform="matrix(1, 0, 0, 1, 7.7, 0)">
<path style="fill:#FFFFFF;fill-opacity:1" d="M75.5,2.55L75.75 3.35L75.8 4.2L75.8 5.05L75.8 5.35L75.85 6.85L75.9 8.4L75.75 9.15L75.4 10.05L75.4 10.1L75.35 10.15L75.1 10.4L74.85 10.7L74.45 10.9L74.05 11.1L73.6 11.2L73.15 11.25L72.9 11.25L72.6 11.25L72.35 11.1L72.3 10.35L72.3 9.5L72.3 9.45L73.15 9.15L73.75 8.4L73.9 7.15L73.9 5.9L73.8 5.25L73.7 4.6L73.7 4.4L73.65 4.25L73.35 3.7L72.9 3.35L72.35 3.1L72.3 2.25L72.35 1.4L72.35 1.35L72.85 1.3L73.35 1.3L74.55 1.6L75.5 2.55M67.2,3.6L67.75 4.85L67.8 6.35L67.3 6.45L66.45 6.5L65.5 6.55L64.6 6.55L64.05 6.5L64.05 6.75L64.05 7.4L64.25 7.95L64.7 8.4L65.3 8.5L65.8 8.15L66 7.3L66.55 7.3L67.2 7.3L67.75 7.35L67.7 8.3L67.55 9.05L67.35 9.55L66.5 10.1L65.3 10.2L64.15 10.15L63.75 10.05L63.4 9.9L62.65 8.9Q62.35 8.3 62.2 7.55L62.15 6L62.25 5L62.45 4.1L63.3 3.2Q63.85 2.9 64.55 2.8L65.9 2.9Q66.75 3.05 67.2 3.6M66.15,4.7L65.75 4.3L65.5 4.2L65.25 4.2L64.35 4.45Q64.1 4.7 64.1 5.1L64.1 5.35L64.4 5.4L65.4 5.4L66.05 5.4L66.25 5.4L66.3 5.2L66.15 4.7M61.3,4L61.4 4.85L61.45 5.95L60.9 6L60.25 5.95L59.7 5.9L59.25 5.1L58.4 5L58.15 5.1L57.9 5.3L57.85 5.4L57.8 5.6L57.75 6.45L57.7 7.4L57.85 7.9Q58.05 8.1 58.3 8.15L58.9 8.15L59.3 8L59.55 7.7L59.65 7.3L60.2 7.3L60.9 7.25L61.45 7.3L61.35 8.25L61.25 9.05L61.05 9.5L60.15 10.1L58.95 10.15L57.8 10.15L57.15 9.9L56.6 9.5L56.05 8.65Q55.9 8.2 55.9 7.6L55.9 6.5L55.85 5.45L55.95 4.45L56.05 4.05L56.15 3.65L56.65 3.2L57.4 2.9L58.25 2.85L58.8 2.85L59.35 2.85L60.2 3Q60.6 3.15 60.9 3.45L61.3 4M53.65,2.95L54.2 3L55 3.05L55.05 3.2L55.05 3.35L55.05 3.5L55.05 6.45L55 9.45L55 9.8L54.85 10L54.65 10L54.2 10L53.75 9.95L53.45 10L53.15 10L53 9.9L53 9.7L53 9.45L53.05 9.2L52.2 9.8L51.2 10.05Q50.65 10 50.25 9.65L49.6 8.7L49.25 7.5L49.15 6.3Q49.15 5.35 49.45 4.65Q49.75 3.9 50.3 3.5Q50.8 3.1 51.5 3.05L52.1 3.1L52.55 3.25L52.9 3.7L52.95 3.3L52.95 3L53.1 2.95L53.4 2.95L53.65 2.95M51.35,5.2Q51 5.45 50.95 5.8L50.85 6.2L50.85 6.55Q50.85 7.2 51.2 7.65Q51.5 8.05 52.1 8.05L52.75 7.85L52.95 7.3L52.95 6.35L52.95 5.4L52.75 5L52.25 4.9L51.35 5.2M47.3,3.45L48 4.35L48.3 5.6L48.4 7L48.3 8.25L47.95 9.25L47.25 9.85L46.45 10L45.55 10L44.9 9.85L44.6 9.65L44.6 10.85L44.6 11.55L44.6 11.9L44.55 12.2L44.55 12.7L44.55 12.85L44.2 12.9L43.5 12.9L42.75 12.85L42.75 11.95L42.7 7.3L42.7 3L43.65 3L44.6 3.05L44.6 3.1L44.6 3.35L44.6 3.6L44.65 3.7L44.75 3.65Q44.95 3.25 45.3 3.1L46.05 3.05Q46.85 3.1 47.3 3.45M46.2,5.05Q45.95 4.75 45.55 4.75Q45.05 4.75 44.85 5.05L44.55 5.75L44.5 6.8L44.55 7.85Q44.6 8.2 44.8 8.3L45.4 8.4L46.3 8.15L46.7 7.4L46.8 7L46.8 6.6L46.65 5.7L46.2 5.05M40.6,3.45L39.5 3.35Q39.6 2.95 39.35 2.7Q39.15 2.45 38.8 2.4L38.15 2.45L37.75 3L37.75 3.2L37.75 3.4L38.15 3.85L38.7 4Q39.45 4.05 40.05 4.45L41.1 5.45L41.55 6.4L41.6 7.45L41.35 8.45L40.7 9.4L39.75 9.9L38.65 10.05L37.4 9.85Q36.8 9.65 36.35 9.3L35.55 8.4Q35.3 7.85 35.35 7.2L35.35 7.1L36.4 7.05L37.45 7.1L37.8 7.75L38.5 8L39.15 7.75L39.35 7Q39.3 6.6 38.95 6.35Q38.65 6.1 38.2 6L37.35 5.85L36.85 5.65L36.4 5.35Q35.75 4.75 35.55 4Q35.4 3.3 35.55 2.55Q35.7 1.85 36.2 1.3L37.3 0.45L38.35 0.2L39.45 0.3L40.45 0.6Q41.1 0.95 41.45 1.65Q41.8 2.3 41.65 3.35L41.6 3.35L40.6 3.45M30.75,5.15L29.8 5.25L28.75 5.15L28.65 4.7L28.3 4.4L27.8 4.3L27.25 4.65Q27.1 4.95 27.25 5.25L27.8 5.75L29.3 6.05Q29.95 6.25 30.3 6.65L30.65 7.65Q30.75 8.2 30.45 8.95Q30.15 9.65 29.45 9.95L27.95 10.25L26.3 10L25.2 9.15Q24.85 8.65 24.8 7.85L24.8 7.8L25.5 7.75L26.25 7.8L26.9 7.8L27.2 8.3Q27.45 8.5 27.8 8.55L28.4 8.45L28.65 7.85Q28.7 7.45 28.35 7.25L27.5 7L26.45 6.7Q25.65 6.4 25.3 5.9Q24.95 5.3 24.95 4.7Q25 4.1 25.35 3.55Q25.75 3.05 26.4 2.9L27.35 2.75L28.45 2.75L29.55 2.9Q30.2 3.2 30.5 3.8L30.75 5.15M21.75,2.75L22.85 2.9Q23.5 3.2 23.8 3.8L24.05 5.15L23.1 5.25L22.05 5.15L21.95 4.7L21.6 4.4L21.1 4.3Q20.7 4.4 20.55 4.65Q20.4 4.95 20.55 5.25L21.1 5.75L22.6 6.05Q23.25 6.25 23.6 6.65L23.95 7.65Q24.05 8.2 23.75 8.95Q23.45 9.65 22.75 9.95L21.25 10.25L19.6 10Q18.9 9.7 18.5 9.15Q18.15 8.65 18.1 7.85L18.1 7.8L18.8 7.75L19.55 7.8L20.2 7.8L20.5 8.3L21.1 8.55L21.7 8.45L21.95 7.85Q22 7.45 21.65 7.25L20.8 7L19.75 6.7Q18.95 6.4 18.6 5.9Q18.25 5.3 18.25 4.7Q18.3 4.1 18.65 3.55Q19.05 3.05 19.7 2.9L20.65 2.75L21.75 2.75M16.1,5.2L15.95 4.7L15.55 4.3L15.3 4.2L15.05 4.2Q14.4 4.2 14.15 4.45Q13.9 4.7 13.9 5.1L13.9 5.35L14.2 5.4L15.2 5.4L15.85 5.4L16.05 5.4L16.1 5.2M17.55,4.85L17.6 6.35L17.1 6.45L16.25 6.5L15.3 6.55L14.4 6.55L13.85 6.5L13.85 6.75L13.85 7.4L14.05 7.95L14.5 8.4L15.1 8.5L15.6 8.15L15.8 7.3L16.35 7.3L17 7.3L17.55 7.35L17.5 8.3L17.35 9.05L17.15 9.55L16.3 10.1L15.1 10.2L13.95 10.15L13.55 10.05L13.2 9.9L12.45 8.9Q12.15 8.3 12 7.55L11.95 6L12.05 5L12.25 4.1Q12.5 3.55 13.1 3.2L14.35 2.8L15.7 2.9Q16.55 3.05 17 3.6L17.55 4.85M11.05,3L11.35 3.05L11.35 4.1L11.35 4.9L11.35 5.5L11.25 5.45L11.1 5.4L10.95 5.35L10.6 5.3L10.4 5.25L9.5 5.25Q9.15 5.25 8.9 5.5Q8.7 5.7 8.7 6.25L8.75 7.45L8.75 8.6L8.75 9.9L8.75 9.95L8.2 10.05L7.65 10.05L6.9 10.05L6.85 6.6L6.9 3.05L7.25 3.05L7.5 3.05L7.85 3.05L8.15 3L8.55 3L8.75 3L8.75 3.2L8.75 3.3L8.8 3.5L9.05 3.4L9.45 3.25L10.25 3.05L11.05 3M6.3,3.15L6.3 3.35L6.25 3.5Q6.15 4.4 5.55 5.1Q5 5.8 4.15 6.1L2.45 6.3L2.45 6.7L2.45 7.25L2.45 8.2L2.5 9.85L2.45 9.85L1.75 9.95L0.9 9.95L0.1 9.9L0.05 6.9L0.05 3.55L0 0.25L1.55 0.05L3.2 0.1L4.65 0.55L5.8 1.55L6.3 3.1L6.3 3.15M3,2.2L2.1 2.2L2.05 2.25L2.05 3.3Q2.05 3.9 2.2 4.35L2.25 4.35L2.85 4.3L3.55 4.2L4.1 3.9L4.25 3.45L4.2 2.95L3.8 2.55Q3.45 2.25 3 2.2M-4.7,3.35L-5.2 3.7L-5.45 4.25L-5.5 4.4L-5.55 4.6L-5.65 5.25L-5.7 5.9L-5.7 7.15L-5.55 8.4L-4.95 9.15L-4.1 9.45L-4.1 9.5L-4.15 10.35L-4.15 11.1L-4.4 11.25L-4.75 11.25L-4.95 11.25L-5.4 11.2L-5.9 11.1L-6.3 10.9L-6.65 10.7L-6.95 10.4L-7.2 10.15L-7.2 10.1L-7.25 10.05L-7.6 9.15L-7.7 8.4L-7.65 6.85L-7.65 5.35L-7.65 5.05L-7.65 4.2L-7.55 3.35L-7.3 2.55Q-6.95 1.9 -6.4 1.6L-5.2 1.3L-4.7 1.3L-4.15 1.35L-4.15 1.4L-4.15 2.25L-4.15 3.1L-4.7 3.35" />
</g>
</svg>
