<?xml version="1.0" encoding="utf-8"?>
<svg version="1.1" id="Layer_1"
xmlns="http://www.w3.org/2000/svg"
xmlns:xlink="http://www.w3.org/1999/xlink"
xmlns:author="http://www.sothink.com"
width="114px" height="129px"
xml:space="preserve">
<g id="610" transform="matrix(1, 0, 0, 1, 0, 0)">
<path style="fill:#101010;fill-opacity:1" d="M82.25,14.2Q92.1 22.8 96.95 24.7Q101.8 26.6 100.4 28.5L97 32.1Q95 33.85 94.55 33.5Q98.4 36.95 98.55 43Q99.25 67.55 108.1 87.8Q110.15 91.65 110 92.05Q109.8 92.45 108.25 92.35L103.5 91.35Q109.35 102.25 112.05 111.45Q114.7 120.65 113.5 125.6Q112.25 130.5 110.6 127.95Q108.9 125.4 106.35 125.7L103.3 125.75Q102.75 125.45 101.5 122.85Q100.2 120.2 97.55 119.15Q94.85 118.05 92.45 118.25Q90 118.4 87.4 119.7L82.25 119.55Q82.45 117.8 81.6 116.05Q80.75 114.3 81.95 114L79.6 105.4Q80.2 108.3 79.95 111.6L80.05 111.5L80 111.6L79.9 112.15L79.8 113.35Q78 113.9 77.95 115.95Q77.35 117.45 76.8 117.4Q76.25 117.35 73.65 115.9Q71.05 114.4 66.35 113.85Q61.6 113.25 56.55 114.8Q51 111.25 46.05 112.6L40.5 114.15Q39.95 114.35 37.7 112.1Q35.45 109.8 32.2 109.1Q28.9 108.35 26.25 111.75Q25.7 114.95 21.95 111.95Q18.15 108.9 13.4 110.4Q8.65 111.9 5.65 114.5L1.95 117.8Q1.25 118.55 0.6 118.25Q-0.15 117.95 0.05 114.3Q2.7 104.35 2.8 98.15Q2.9 91.95 6.2 93.85Q10.4 83.7 10.05 75.75Q9.75 68.45 10.1 64.6L11.15 64.4Q11.5 64.4 11.45 63.8Q13.5 48.25 11 35.5Q4.95 33.5 6.05 32.7Q7.1 31.9 11.75 29.15Q16.35 26.35 19.4 21.55Q22.4 16.8 23.5 15.9Q22.4 13.85 20.5 13.05Q18.55 12.25 19.75 11.6Q37.4 1.5 56.7 6.05Q58.55 4.45 59.75 2.2Q60.6 0.55 62.2 0Q74.45 3.6 81.4 12.95L82.25 14.2M92.3,34.2Q91.6 33.95 91 33.4Q93.7 30.25 97.8 28.15Q91.35 26.9 86.2 22.05Q82 18.05 79.5 13.4L79.55 13.3L78.8 12.65Q71.7 6.05 62.45 2.9Q59.1 11.1 51.75 7.85Q47.8 6.15 43.4 6.7Q33.35 7.95 24.3 12.7Q25.95 12.75 25.55 14.75Q28.7 13.5 23.7 20Q18.65 26.5 15 29.5Q11.3 32.45 9.65 32.5Q12 32.7 12.9 33.7L12.9 33.65Q12.9 33.6 13.2 33.5Q15.35 41.35 15.15 50.9Q14.95 58.95 13.25 66.35Q13.15 66.9 12.45 67.15L11.75 67.3Q12.4 75.15 12 82.8Q11.55 91.8 6.75 97.4L5.85 97.45L5.35 97.4Q5.05 106.45 2.8 113.35Q9.5 107.95 18.95 108.05Q22.25 108.1 24.4 110.6Q26 110.5 26.55 108.65Q27.15 106.7 29.2 106.55Q35.45 107.25 40.2 111.5L40.3 111.6Q45.05 108.35 52.4 110.3Q54.95 110.95 56.85 112.3Q63.55 110.15 68.75 111.45Q73.95 112.75 75.65 114.05Q75.65 111.8 77.7 111.15Q76.95 106.45 77.6 102.1Q77.1 99.1 77.2 96Q77.25 95.3 77.95 95.3Q79.95 99.95 82.1 106.25Q84.2 112.55 84.3 115.55Q84.4 118.5 87.85 117.25Q91.25 115.95 92.5 116.05Q93.7 116.15 94.2 116.8Q101 117.15 104.85 123.15L105 123.35Q109.25 122.1 110.65 124.95Q110.8 122.3 110.4 118.9Q109.7 112.95 107.7 107.15Q104.55 98.1 100.4 89.85Q99.75 88.55 100.85 88.15L101.15 87.95L101.7 87.8Q105.1 88.25 106.4 89.3Q100.3 77.75 98.7 64.55L95.6 41.35Q94.95 36.85 92.3 34.2" />
<path style="fill:#1E1415;fill-opacity:1" d="M95.6,41.35L98.7 64.55Q100.3 77.75 106.4 89.3Q105.1 88.25 101.7 87.8L101.15 87.95L100.85 88.15Q99.75 88.55 100.4 89.85Q104.55 98.1 107.7 107.15Q109.7 112.95 110.4 118.9Q110.8 122.3 110.65 124.95Q109.25 122.1 105 123.35L104.85 123.15Q101 117.15 94.2 116.8Q93.7 116.15 92.5 116.05Q91.25 115.95 87.85 117.25Q84.4 118.5 84.3 115.55Q84.2 112.55 82.1 106.25Q79.95 99.95 77.95 95.3Q77.25 95.3 77.2 96Q77.1 99.1 77.6 102.1Q76.95 106.45 77.7 111.15Q75.65 111.8 75.65 114.05Q73.95 112.75 68.75 111.45Q63.55 110.15 56.85 112.3Q54.95 110.95 52.4 110.3Q45.05 108.35 40.3 111.6L40.2 111.5Q35.45 107.25 29.2 106.55Q27.15 106.7 26.55 108.65Q26 110.5 24.4 110.6Q22.25 108.1 18.95 108.05Q9.5 107.95 2.8 113.35Q5.05 106.45 5.35 97.4L5.85 97.45L6.75 97.4Q11.55 91.8 12 82.8Q12.4 75.15 11.75 67.3L12.45 67.15Q13.15 66.9 13.25 66.35Q14.95 58.95 15.15 50.9Q15.35 41.35 13.2 33.5Q12.9 33.6 12.9 33.65L12.9 33.7Q12 32.7 9.65 32.5Q11.3 32.45 15 29.5Q18.65 26.5 23.7 20Q28.7 13.5 25.55 14.75Q25.95 12.75 24.3 12.7Q33.35 7.95 43.4 6.7Q47.8 6.15 51.75 7.85Q59.1 11.1 62.45 2.9Q71.7 6.05 78.8 12.65L79.55 13.3L79.5 13.4Q82 18.05 86.2 22.05Q91.35 26.9 97.8 28.15Q93.7 30.25 91 33.4Q91.6 33.95 92.3 34.2Q94.95 36.85 95.6 41.35" />
</g>
</svg>
