<?xml version="1.0" encoding="utf-8"?>
<svg version="1.1" id="Layer_1"
xmlns="http://www.w3.org/2000/svg"
xmlns:xlink="http://www.w3.org/1999/xlink"
xmlns:author="http://www.sothink.com"
width="21px" height="27px"
xml:space="preserve">
<g id="378" transform="matrix(1, 0, 0, 1, 0, 0)">
<path style="fill:#5F1000;fill-opacity:1" d="M16.25,21.3L16.15 21.3Q15.1 22.15 12.8 22.5Q8.8 23.05 5.4 21.9Q4 21.45 2.75 20.7L1.3 19.5L1.05 19.15L1 19.15L0.45 18.4Q0.2 18.05 0.05 17.35Q-0.1 16.6 0.15 13.7Q0.4 10.8 1.3 8Q2.15 5.1 2.9 3.7Q3.65 2.3 6.05 1.05Q8.4 -0.2 11.2 0.05Q14 0.3 15.5 1.1Q17 1.85 17.7 2.5Q18.95 3.75 19.55 5Q20.15 6.2 20.25 7.25L20.25 7.45Q20.3 8.35 19.75 9.1Q19.1 9.9 18.15 12.1Q17.15 14.3 17.05 16.75Q16.9 19.2 17.15 19.75Q17.35 20.3 16.9 20.75Q16.7 20.85 16.25 21.3M11.35,21.9L14.35 21.25L16.4 20.1Q16.05 17.95 16.7 14.45L16.65 14.55Q17.5 11.4 18.3 10.05L19.15 8.65L19.6 7.8Q19.35 5.25 17.75 3.65L17.8 3.65Q15.95 1.95 14.7 1.5Q11.45 0.3 7.8 1.15Q4.15 1.95 2.75 5.8Q1.4 9.5 1 13.55Q0.6 15.55 0.85 17L1.05 17.9L1.65 18.95Q3.15 20.25 5.65 21.1Q7.3 21.9 11.35 21.9" />
<path style="fill:#8C2F1D;fill-opacity:1" d="M18.05,9.45Q17.35 9.9 15.3 10.4Q13.25 10.85 8.7 8.45Q7.35 10.8 4.9 11.75Q5.1 14.15 6 13.8Q6.9 13.45 5.65 21.1Q3.15 20.25 1.65 18.95L1.05 17.9L0.85 17Q0.6 15.55 1 13.55Q1.4 9.5 2.75 5.8Q4.15 1.95 7.8 1.15Q11.45 0.3 14.7 1.5Q15.95 1.95 17.8 3.65L17.75 3.65Q19.35 5.25 19.6 7.8L19.15 8.65L18.05 9.45" />
<path style="fill:#BB482E;fill-opacity:1" d="M5.65,21.1Q6.9 13.45 6 13.8Q5.1 14.15 4.9 11.75Q7.35 10.8 8.7 8.45Q13.25 10.85 15.3 10.4Q17.35 9.9 18.05 9.45L19.15 8.65L18.3 10.05Q17.5 11.4 16.65 14.55L16.7 14.45Q16.05 17.95 16.4 20.1L14.35 21.25L11.35 21.9Q7.3 21.9 5.65 21.1" />
<path style="fill:#231713;fill-opacity:1" d="M16.25,21.3Q16.7 20.85 16.9 20.75Q17.55 25.1 11.55 26.05Q5.6 26.95 1.65 23.35Q-0.85 20.95 0.45 18.4L1 19.15L1.05 19.15Q0.25 20.2 1.35 21.95Q2.55 23.8 5.45 24.85Q8.35 25.85 11.45 25.35Q14.5 24.85 15.5 23.6Q16.5 22.35 16.25 21.3" />
<path style="fill:#412B1E;fill-opacity:1" d="M15.5,23.6Q14.5 24.85 11.45 25.35Q8.35 25.85 5.45 24.85Q2.55 23.8 1.35 21.95Q0.25 20.2 1.05 19.15L1.3 19.5L2.75 20.7Q4 21.45 5.4 21.9Q8.8 23.05 12.8 22.5Q15.1 22.15 16.15 21.3L16.25 21.3Q16.5 22.35 15.5 23.6" />
<path style="fill:#5F1000;fill-opacity:1" d="M3.5,12.65Q1.9 10.9 1.15 8.55L1.5 8.35L2.05 9.25L3.65 11.45Q6.5 14.7 10.75 16L13.05 16.45L13.25 16.5L14.5 16.35L15.25 15.25Q16.55 13.35 15.7 10.65Q14.15 10.45 12.35 9.25L9.3 6.95L9.15 6.85L8.75 6.5L7.6 5.3Q6.3 3.85 5.65 2.15L5.45 1.55Q5.5 1.3 5.7 1.25L5.8 1.25L6.3 2.05Q7.75 4.2 10 6.05Q12.35 8 15.6 9.55Q16.85 9.65 18.3 8L19.8 6.2L19.9 6.15L20.1 6.35L20.65 7.4Q21.1 8.5 20.8 11.15Q20.45 13.8 19.35 15.05L18.9 15.5L17.2 16.75L16.9 16.9L16.3 17.15L14.95 17.45L11.1 17.1Q8.5 16.45 7.45 15.75L4.9 14L3.5 12.65M19.65,12.2Q19.95 10.75 19.8 8.1L17.35 10L16.9 10.35L17.05 10.8L16.85 12.9Q16.45 15 15.75 15.9L15.5 16.35Q15.4 16.6 16.1 16.35Q17.2 15.85 18.3 14.75L18.95 13.95L19.55 12.7L19.65 12.2" />
<path style="fill:#8C2F1D;fill-opacity:1" d="M4.9,14L7.45 15.75Q8.5 16.45 11.1 17.1L14.95 17.45L16.3 17.15Q16.45 18.8 13.15 19.05Q9.8 19.3 5.65 17.8Q1.45 16.3 3.25 14.3L3.5 12.65L4.9 14M9.25,7.05Q7.75 9.15 7.85 11.7L8.65 12.75Q11 15.1 14.55 15.25L15.25 15.25L14.5 16.35L13.25 16.5L13.05 16.45L10.75 16Q6.5 14.7 3.65 11.45L2.05 9.25Q2.5 6.35 3.8 4.4Q5.1 2.4 5.65 2.15Q6.3 3.85 7.6 5.3L8.75 6.5L9.15 6.85L9.3 6.95L9.25 7.05M17.6,10.2L17.75 10.55Q18.3 12.2 17.85 13.6L18.95 13.15L19.4 12.8L19.55 12.7L18.95 13.95L18.3 14.75Q17.2 15.85 16.1 16.35Q15.4 16.6 15.5 16.35L15.75 15.9Q16.45 15 16.85 12.9L17.05 10.8L16.9 10.35L17.35 10L17.6 10.2" />
<path style="fill:#BB482E;fill-opacity:1" d="M9.25,7.05Q10.85 10.15 14.35 11.4L14.6 11.5Q15.55 13.65 14.55 15.25Q11 15.1 8.65 12.75L7.85 11.7Q7.75 9.15 9.25 7.05M18.95,13.15L17.85 13.6Q18.3 12.2 17.75 10.55L19 10L18.95 13.15" />
<path style="fill:#EE775A;fill-opacity:1" d="M9.3,6.95L12.35 9.25Q14.15 10.45 15.7 10.65Q16.55 13.35 15.25 15.25L14.55 15.25Q15.55 13.65 14.6 11.5L14.35 11.4Q10.85 10.15 9.25 7.05L9.3 6.95M19,10L17.75 10.55L17.6 10.2L17.35 10L19.8 8.1Q19.95 10.75 19.65 12.2L19.55 12.7L19.4 12.8L18.95 13.15L19 10" />
</g>
</svg>
