<?xml version="1.0" encoding="utf-8"?>
<svg version="1.1" id="Layer_1"
xmlns="http://www.w3.org/2000/svg"
xmlns:xlink="http://www.w3.org/1999/xlink"
xmlns:author="http://www.sothink.com"
width="298px" height="179px"
xml:space="preserve">
<g id="98" transform="matrix(1, 0, 0, 1, -9.2, -9.9)">
<linearGradient
id="LinearGradID_79" gradientUnits="userSpaceOnUse" gradientTransform="matrix(0.000274658, -0.0601807, 0.182007, 0.000823975, 158.1, 63.1)" spreadMethod ="pad" x1="-819.2" y1="0" x2="819.2" y2="0" >
<stop  offset="0" style="stop-color:#0E306D;stop-opacity:1" />
<stop  offset="1" style="stop-color:#2697B4;stop-opacity:1" />
</linearGradient>
<path style="fill:url(#LinearGradID_79) " d="M257.65,53.8L257.05 54.75L256.65 55.4L258.2 54.55Q263.1 52.05 267.95 51.25L276.05 50.55L283.25 51.85Q287.85 52.85 293.75 57.8Q299.65 62.75 302.85 71.3Q304.75 76.55 305.85 81.8Q306.5 85.05 306.8 88.4Q307.6 96.9 305.6 104.75Q303.55 112.55 296 120.5Q299.05 120.3 302.7 121.3Q306.35 122.3 306.85 128Q307.3 133.6 304.7 145.4L304.6 145.85Q301.85 158 297.6 159.55Q293.35 161.1 279.05 160.8Q264.75 160.45 259 160.45Q253.25 160.4 250.05 158.85Q246.8 157.25 245.7 152.25Q244.55 154.75 241.95 157.75L240.6 158.8Q237.35 160.55 229.45 160Q220.3 160.25 219.2 155.25Q218.6 158.75 212.75 159.5Q206.9 160.25 202.9 159.3Q198.9 158.3 196.3 155.8L195.5 157.1Q194.95 158 193 159.15Q191.05 160.3 184.55 160.3Q178.1 160.3 173.45 156.75Q168.6 161.15 157.1 161.25Q145.6 161.35 140.95 154.5Q137.3 160 128.85 160.1Q120.35 160.2 119.05 157.5L118.85 158.5Q118.2 159.95 115.3 160.15L108.1 160.3L104.2 160.25Q100.5 160.2 97.6 154Q98.35 159.65 93.95 160.4L88.35 160.55L82.95 160.5L84.05 163.85Q85.25 167.9 84.35 177.05Q83.4 186.15 71.05 187Q58.7 187.8 53.2 187.05Q47.7 186.25 45.95 181.1Q46.05 182.55 43.8 185.15Q41.55 187.75 29.85 188Q18.1 188.2 13.75 185.55Q14 185.45 13.65 185.35Q12.75 185.05 12.05 184.3Q9.3 181.55 9.2 172.55L9.2 172.05L9.2 106.2Q9.45 98.15 12.55 96.85Q9.1 95.55 9.2 89.5L9.2 17.2Q9.25 11.35 13.2 10.2L16.9 10L37.5 10Q42.8 9.55 46.7 14.75L50.2 19.5Q54.6 10.7 64.15 10L79.8 10Q88.7 10.3 88.7 16.7L88.7 32.95L102.5 30.95Q108.35 29.6 108.2 34.7L108.2 37.35Q115.05 32.7 124.45 32.55Q132.2 32.2 139.2 37.75Q141.3 32.9 149.4 32.45Q157.5 31.95 159.85 33.4Q162.25 34.85 162.35 36.65Q163.25 34.85 165 33.75Q166.7 32.6 170.05 32.55L177.15 33.25Q180.05 33.85 180.8 35.4L181.5 34.35Q182.15 33.4 185.15 32.9Q188.1 32.35 199.55 32.55Q210.95 32.75 211.85 35.8Q213.2 33.2 216.2 33L223.35 33.25L226.35 33.3Q231.5 33.8 233.2 37.75L234.65 36.1Q237.4 33.3 243.45 33.4L254.35 33.75Q259.2 33.95 261.55 37.4Q263.85 40.85 262.3 45Q260.9 48.55 257.65 53.8" />
<path style="fill:none;stroke-width:1;stroke-linecap:round;stroke-linejoin:round;stroke-miterlimit:3;stroke:#FFFFFF;stroke-opacity:1" d="M257.65,53.8Q260.15 51.45 263 49.75" />
</g>
</svg>
