<?xml version="1.0" encoding="utf-8"?>
<svg version="1.1" id="Layer_1"
xmlns="http://www.w3.org/2000/svg"
xmlns:xlink="http://www.w3.org/1999/xlink"
xmlns:author="http://www.sothink.com"
width="26px" height="20px"
xml:space="preserve">
<g id="2726" transform="matrix(1, 0, 0, 1, -29.45, 2.25)">
<path style="fill:#FFFFFF;fill-opacity:1" d="M49.3,-1.85Q50.25 -1.85 49.05 -1.95Q52.6 -2.9 53.8 -0.75Q54.7 1.15 54.95 3.1L55 2.95L55.05 3.05Q55.35 5.2 53.9 6.75L53.2 7.1L49.15 6.95Q48.55 7.1 47.75 5.85Q46.95 4.65 45.35 3Q43.8 1.4 44 1.25L45.2 2.05Q46.2 2.85 46.95 4L48.7 5.9L53.55 6.1Q54.35 5.05 54.45 4.2L54.6 3.15L53.9 1.2Q53.3 -0.45 52.3 -1.15L49.3 -1.85M42.8,4.2L42.5 5.15L39.2 6.4L39.5 4.4Q39.75 2.85 42.65 3.2Q42.9 3.6 42.8 4.2M29.45,12.95Q30.3 10.15 31 9.3Q31 11.2 30.15 12.9Q30.9 15.3 32.65 17L31.7 16.55Q30.75 16.15 29.45 12.95" />
</g>
</svg>
