<?xml version="1.0" encoding="utf-8"?>
<svg version="1.1" id="Layer_1"
xmlns="http://www.w3.org/2000/svg"
xmlns:xlink="http://www.w3.org/1999/xlink"
xmlns:author="http://www.sothink.com"
width="12px" height="9px"
xml:space="preserve">
<g id="573" transform="matrix(1, 0, 0, 1, 0, 0)">
<path style="fill:#252525;fill-opacity:1" d="M7.9,7.55L8.35 6.95Q9.5 5.45 10.05 3.3L10.15 2.95L9.85 2.75L10.1 2.85L10.7 3.5L10.6 4.8L9.65 6.7Q8.9 7.7 7.3 7.7L7.9 7.55" />
<path style="fill:#434242;fill-opacity:1" d="M1.85,5.6L1.95 4.75L3.05 4.65L3.1 4.65L2.15 3.3L2.55 2.95L2.55 2.2Q2.6 1.95 3.6 1.55L5.7 1.05L6.55 1.25Q8.15 1.7 9.25 2.4L9.85 2.75L10.15 2.95L10.05 3.3Q9.5 5.45 8.35 6.95L7.9 7.55L7.3 7.7L7.1 7.7L3.5 7.15L2 6.6L1.85 5.6" />
<path style="fill:#565656;fill-opacity:1" d="M2,6.6Q1.3 6.2 1.25 5.8Q1 5 1.3 3.7Q1.55 2.35 2.25 1.7Q2.95 1 3.95 0.95L5.7 1.05L3.6 1.55Q2.6 1.95 2.55 2.2L2.55 2.95L2.15 3.3L3.1 4.65L3.05 4.65L1.95 4.75L1.85 5.6L2 6.6" />
<path style="fill:#000000;fill-opacity:1" d="M9.25,2.4Q8.15 1.7 6.55 1.25L5.7 1.05L3.95 0.95Q2.95 1 2.25 1.7Q1.55 2.35 1.3 3.7Q1 5 1.25 5.8Q1.3 6.2 2 6.6L3.5 7.15L7.1 7.7L7.3 7.7Q8.9 7.7 9.65 6.7L10.6 4.8L10.7 3.5L10.1 2.85L9.85 2.75L9.25 2.4M11.45,2.85Q11.9 3.35 11.55 4.55L10.85 6.4L9.8 7.8L8 8.55L6.55 8.65L5.05 8.55L2.5 8L1.65 7.65Q0.05 6.95 0 6.1Q-0.1 5.25 0.25 3.65Q0.55 1.95 1.2 1.15Q1.75 0.35 2.8 0.15L5.25 0.05Q6.65 0.2 8.1 0.8L10.25 1.85Q10.95 2.3 11.45 2.85" />
</g>
</svg>
