<?xml version="1.0" encoding="utf-8"?>
<svg version="1.1" id="Layer_1"
xmlns="http://www.w3.org/2000/svg"
xmlns:xlink="http://www.w3.org/1999/xlink"
xmlns:author="http://www.sothink.com"
width="85px" height="36px"
xml:space="preserve">
<g id="3166" transform="matrix(1, 0, 0, 1, 81.65, 22.4)">
<path style="fill:#FFFFFF;fill-opacity:1" d="M2.75,-2.25Q2.85 1 1.9 3L0.9 4.3L0.25 5.1L-0.35 5.65L-5.65 9.9L-9.1 12.75Q-9.15 9.5 -7.05 6.6Q-8.1 7.05 -10.8 8.55Q-14.6 10.65 -15.95 11.6Q-12.55 4.95 -10.7 2.15Q-18.6 2.65 -21.5 2.4L-21.5 1.9L-17.75 -0.6L-14.5 -3.1Q-17 -3.7 -20.85 -5.3L-22.3 -5.5Q-23.7 -4.35 -27.4 2Q-31.1 8.4 -32.95 8.95Q-34.75 9.55 -37.55 4.45L-40.5 -1.05Q-40.6 -1.55 -44.6 1.8Q-48.5 5.15 -49.7 5.15Q-50.9 5.2 -52.25 -3.25Q-53.55 -11.6 -54.25 -14.1Q-65.15 -3.6 -66.15 -1.85Q-67.05 -0.1 -68.05 -1.95L-69.45 -4.5Q-70.55 -3.35 -73.05 -1.9L-80.4 2.55Q-83.55 -0.65 -78.85 -5.1L-69.15 -14.2L-67.7 -12.15Q-66.6 -10.4 -66.45 -9.7Q-63.9 -10.55 -59.75 -16.6Q-55.55 -22.65 -53.65 -22.4Q-51.75 -22.25 -50.85 -16.9L-48.4 -2.85L-42.9 -6.5Q-42.65 -11.2 -42.35 -11.05L-39.2 -7.25Q-36.4 -3.55 -33.55 1.45L-27.6 -6.85L-24.45 -10.75Q-23.05 -12.15 -18.55 -10.2Q-13.95 -8.25 -12.35 -7.8L-11.95 -7.85L-16.2 -13.55L-10.85 -12.15L-5.25 -10.8Q-5.25 -11.25 -6.2 -13.2L-7.15 -14.65Q-4.2 -13.6 -1.9 -11.7Q0.35 -9.7 1.05 -8.6L1.55 -7.55Q2.6 -5.1 2.75 -2.25" />
</g>
</svg>
