<?xml version="1.0" encoding="utf-8"?>
<svg version="1.1" id="Layer_1"
xmlns="http://www.w3.org/2000/svg"
xmlns:xlink="http://www.w3.org/1999/xlink"
xmlns:author="http://www.sothink.com"
width="19px" height="25px"
xml:space="preserve">
<g id="686" transform="matrix(1, 0, 0, 1, -3.45, 1.1)">
<path style="fill:#000000;fill-opacity:1" d="M10.35,4.75L10.45 5L10.5 5.15L10.6 5.65L10.55 6.05L10.2 6.9L9.3 7.85L8.8 8.05L8.3 8.2Q6.75 8.45 5.45 7.45Q4.05 6.4 3.6 4.55Q3.2 2.85 3.75 1.45Q4.35 0 5.5 -0.8Q6.65 -1.55 6.65 -0.4Q6.65 0.7 7.2 1.75Q7.7 2.75 8.55 3.15L9.8 3.9L9.9 4L10.35 4.75M17.15,4.6L17.2 4.6L17.2 4.65L17.25 4.6L18.55 3.55Q19.05 2.95 19.2 2L19.55 0.65Q19.6 -0.25 20.35 0.55Q22 2.6 21.45 5.2Q21.2 6.35 20.5 7.15L19.15 8.05L18.2 8.25L18.15 8.25L18.1 7.6L18.15 7.6L18.85 7.45Q19.4 7.25 20 6.65Q20.6 6.05 20.85 4.35Q21.1 2.6 20.1 1.2L20.05 1.1Q19.7 3.05 19.2 3.75L18.05 4.8L17.5 5.25L17.25 4.9L17.15 4.6M4.6,1.2Q4.1 2 4.05 2.85Q4 4.55 4.75 5.8Q5.55 7.05 6.7 7.45L8.4 7.55L8.7 7.4L9.5 6.8L9.55 6.8L9.75 6.45L9.9 5.9L9.9 5.4L9.9 5.25Q9.8 4.8 9.5 4.5L9.4 4.4Q8.9 3.95 8.25 3.8Q7.6 3.6 6.95 2.65Q6.3 1.7 6.2 0.8L6 -0.3L5.8 -0.1Q5 0.5 4.6 1.2" />
<path style="fill:#414141;fill-opacity:1" d="M9.1,5.5L8.9 5.5L7.1 4.9Q5.85 4.25 5.5 2.8Q5.1 1.35 5.8 -0.1L6 -0.3L6.2 0.8Q6.3 1.7 6.95 2.65Q7.6 3.6 8.25 3.8Q8.9 3.95 9.4 4.4L9.5 4.5Q9.8 4.8 9.9 5.25L9.1 5.5M4.55,4Q4.9 5.5 6.25 6.5Q7.2 7.2 8.45 7.1L9.5 6.8L8.7 7.4L8.4 7.55L6.7 7.45Q5.55 7.05 4.75 5.8Q4 4.55 4.05 2.85Q4.1 2 4.6 1.2Q4.15 2.5 4.55 4M17.5,5.25L18.05 4.8L19.2 3.75Q19.7 3.05 20.05 1.1L20.1 1.2Q20.7 4.45 18.7 5.65L17.75 5.9L17.5 5.25M7.2,3.75L6.05 1.8Q5.65 2.6 6.35 3.55Q6.8 4.1 7.2 3.75" />
<path style="fill:#232323;fill-opacity:1" d="M4.6,1.2Q5 0.5 5.8 -0.1Q5.1 1.35 5.5 2.8Q5.85 4.25 7.1 4.9L8.9 5.5L9.1 5.5L9.9 5.25L9.9 5.4L9.9 5.9L9.75 6.45L9.55 6.8L9.5 6.8L8.45 7.1Q7.2 7.2 6.25 6.5Q4.9 5.5 4.55 4Q4.15 2.5 4.6 1.2M17.75,5.9L18.7 5.65Q20.7 4.45 20.1 1.2Q21.1 2.6 20.85 4.35Q20.6 6.05 20 6.65Q19.4 7.25 18.85 7.45L18.15 7.6L18.15 7.5L17.75 5.95L17.75 5.9" />
<path style="fill:#6D6969;fill-opacity:1" d="M6.35,3.55Q5.65 2.6 6.05 1.8L7.2 3.75Q6.8 4.1 6.35 3.55" />
<path style="fill:#38302B;fill-opacity:1" d="M11.8,9Q12.7 9.35 13.05 10.6Q13.35 11.85 13.7 12.2L14.3 12.45Q14.55 12.4 14.6 12.65Q14.55 12.85 13.5 13.1L12.95 13.15Q12.2 13.05 11.6 12.5Q10.7 11.65 11 9.7L10.45 9.2L10.5 9.15L10.65 9.05L11.8 9" />
<path style="fill:#E5DEDA;fill-opacity:1" d="M13.75,3.85Q14.4 4 14.95 4.3Q16.2 5 16.45 6.4Q16.7 7.95 15.95 6.65Q15.5 5.8 14.55 5.5Q11.75 4.7 13.75 3.85M16.75,8.9Q16.75 9.3 16.4 9.35Q14.35 9.5 16.25 8.35Q16.75 8.4 16.75 8.9M14.75,16.45Q15.25 16.5 15.15 17L14.9 17.4Q13.35 17.8 14.75 16.45" />
<path style="fill:#BBB4B0;fill-opacity:1" d="M15.55,13.95L15.35 15.05Q15.25 16.3 15.55 18.1Q15.8 19.45 15.45 20.5Q13.8 22.25 13 21.4L12.3 20.75Q11.6 19.9 11.9 18.85Q12.5 16.75 12.45 15.65Q12.4 13.5 10.8 12.5Q9.95 12.5 9.4 9.45L9.3 8.55L9.75 8.35Q10.95 7.4 10.6 5.65L10.5 5.15L10.45 5Q11.4 3.75 12.4 3.4L14.75 3.5L15.5 4L16.55 5.1L16.9 5.85L17 6.1L17.05 6.3L17.1 6.55L17.3 7.9L17.3 8.3L17.2 9.15L16.75 11Q16.05 11.4 15.1 11.4Q13.8 11.35 13.15 10Q12.6 8.8 11.15 8.7Q10.65 8.7 10.65 9.05L10.5 9.15L10.45 9.2L11 9.7Q10.7 11.65 11.6 12.5Q12.2 13.05 12.95 13.15L13.1 13.3Q14.25 14.3 15.55 13.95M14.55,5.5Q15.5 5.8 15.95 6.65Q16.7 7.95 16.45 6.4Q16.2 5 14.95 4.3Q14.4 4 13.75 3.85Q11.75 4.7 14.55 5.5M13.2,6.9L12.65 6.6Q12.1 7.4 12.95 8.25L13.05 8.3Q13.4 7.8 13.2 7L13.2 6.9M16.25,8.35Q14.35 9.5 16.4 9.35Q16.75 9.3 16.75 8.9Q16.75 8.4 16.25 8.35M14.9,17.4L15.15 17Q15.25 16.5 14.75 16.45Q13.35 17.8 14.9 17.4M14.1,15.8Q14.15 15.45 13.85 15.35Q12.55 16.3 13.9 16.1L14.1 15.8M13.7,20.55Q14.25 20.15 14 19.3L13.6 18.9L12.7 18.95Q12.55 19.15 12.8 19.45L13.7 20.55" />
<path style="fill:#918883;fill-opacity:1" d="M15.45,20.5L15.2 21.05Q14.55 22.25 13.75 22.8Q12.55 23.1 11.5 21.7Q10.4 20.3 11.1 18.95Q11.7 17.75 11.65 16.35Q11.55 14.9 10 13.4Q9.3 12.5 9.15 11.25Q8.95 10.1 9.15 8.6L9.2 8.25L9.3 7.85L10.2 6.9L10.55 6.05L10.6 5.65Q10.95 7.4 9.75 8.35L9.3 8.55L9.4 9.45Q9.95 12.5 10.8 12.5Q12.4 13.5 12.45 15.65Q12.5 16.75 11.9 18.85Q11.6 19.9 12.3 20.75L13 21.4Q13.8 22.25 15.45 20.5M13.1,13.3L12.95 13.15L13.5 13.1Q14.55 12.85 14.6 12.65Q14.55 12.4 14.3 12.45L13.7 12.2Q13.35 11.85 13.05 10.6Q12.7 9.35 11.8 9L10.65 9.05Q10.65 8.7 11.15 8.7Q12.6 8.8 13.15 10Q13.8 11.35 15.1 11.4Q16.05 11.4 16.75 11L16.15 12.4Q15.7 13.2 15.55 13.95Q14.25 14.3 13.1 13.3M13.2,7Q13.4 7.8 13.05 8.3L12.95 8.25Q12.1 7.4 12.65 6.6L13.2 6.9L13.2 7M13.9,16.1Q12.55 16.3 13.85 15.35Q14.15 15.45 14.1 15.8L13.9 16.1" />
<path style="fill:#332C27;fill-opacity:1" d="M17.75,5.9L17.75 5.95L18.15 7.5L18.15 7.6L18.1 7.6L18.15 8.25L18.2 8.25L18.2 8.3Q18.2 9.65 17.7 10.9L16.75 13.25L16.55 13.65L16.55 13.7L16.3 14.3L16.2 14.75Q16.05 15.35 16.15 16.3L16.3 17.55L16.35 17.75L16.45 19.3L16.3 20.25L15.65 21.75Q14.85 23.2 13.85 23.6Q12.8 24 11.5 22.75Q10.15 21.45 10.1 20.3Q10.05 19.1 10.45 18.5L11 16.8Q11.1 15.7 10.15 14.7Q9.2 13.65 8.75 12.65Q8.3 11.6 8.2 10.3L8.2 8.95L8.3 8.2L8.8 8.05L9.3 7.85L9.2 8.25L9.15 8.6Q8.95 10.1 9.15 11.25Q9.3 12.5 10 13.4Q11.55 14.9 11.65 16.35Q11.7 17.75 11.1 18.95Q10.4 20.3 11.5 21.7Q12.55 23.1 13.75 22.8Q14.55 22.25 15.2 21.05L15.45 20.5Q15.8 19.45 15.55 18.1Q15.25 16.3 15.35 15.05L15.55 13.95Q15.7 13.2 16.15 12.4L16.75 11L17.2 9.15L17.3 8.3L17.3 7.9L17.1 6.55L17.05 6.3L17 6.1L16.9 5.85L16.55 5.1L15.5 4L14.75 3.5L12.4 3.4Q11.4 3.75 10.45 5L10.35 4.75L9.9 4L9.95 3.9L10.7 3.2Q12.4 1.8 14.65 2.55L15.5 2.95L17.05 4.45L17.15 4.6L17.25 4.9L17.5 5.25L17.75 5.9M12.8,19.45Q12.55 19.15 12.7 18.95L13.6 18.9L14 19.3Q14.25 20.15 13.7 20.55L12.8 19.45" />
</g>
</svg>
