<?xml version="1.0" encoding="utf-8"?>
<svg version="1.1" id="Layer_1"
xmlns="http://www.w3.org/2000/svg"
xmlns:xlink="http://www.w3.org/1999/xlink"
xmlns:author="http://www.sothink.com"
width="13px" height="13px"
xml:space="preserve">
<g id="2763" transform="matrix(1, 0, 0, 1, -4.35, -1.85)">
<path style="fill:#8E6755;fill-opacity:1" d="M10.95,3.7L10.95 3.65L11 3.65L10.95 3.7" />
<path style="fill:#484E56;fill-opacity:1" d="M6.95,7.7L6.6 7.3L6.3 7L6.25 7.05L6.3 6.95L7.35 5.6L8.25 4.6Q8.8 3.9 9.1 3.9L9.65 4L10 4.15L10.4 4.3Q9.2 4.8 8.2 6.05L7.6 7L7.4 7.35L7.2 7.8L7.15 7.9L6.95 7.7M5.95,8.6L6.55 9.05L6.3 9.75L5.75 9.4L5.5 9L5.45 8.3L5.45 8.15L5.5 8.05L5.95 8.6M14.45,10.9L13.55 10.9Q10.4 10.6 7.9 8.55L8.05 8.25L8.15 8L8.5 7.25L9.25 6.4L9.4 6.3L9.55 6.1L11.15 5.8L12.95 6L13.05 6.05L13.15 6.05L13.9 6.4L15.6 7.25L15.8 8.35Q16.05 8.6 15.65 10.25L15.35 10.85L14.45 10.9M9.5,11.95Q10.95 12.65 12 12.65L13 12.6L13.8 12.4L13.9 12.5L14.15 12.45Q13.45 13.1 12.65 13.35Q10.75 13.95 9.25 12.85L7.6 11.35L7.45 11.05L7.45 10.45Q8.15 11.35 9.5 11.95" />
<path style="fill:#262D35;fill-opacity:1" d="M5.5,8.05L5.5 7.95L5.5 7.9L5.65 7.4L6 6.65L6.3 6.95L6.25 7.05L6.3 7L6.6 7.3L6.95 7.7L7.15 7.9L6.85 8.35L6.55 9.05L5.95 8.6L5.5 8.05M7.45,10.45L7.5 9.9L7.55 9.85L7.65 9.45Q7.7 8.95 7.9 8.55Q10.4 10.6 13.55 10.9L14.45 10.9L15.35 10.85L14.15 12.45L13.9 12.5L13.8 12.4L13 12.6L12 12.65Q10.95 12.65 9.5 11.95Q8.15 11.35 7.45 10.45" />
<path style="fill:#81878E;fill-opacity:1" d="M10,4.15L9.65 4L9.1 3.9Q8.8 3.9 8.25 4.6L7.35 5.6L6.3 6.95L6 6.65L7.05 5.1Q7.55 4.25 9.75 3.05L10.65 3.5L11.2 3.9Q10.55 4.1 10.4 4.3L10 4.15M13.9,6.4L13.15 6.05L13.05 6.05L12.95 6L11.15 5.8L9.55 6.1L9.55 6.05Q10.3 5.4 11.35 5Q11.85 4.75 12.5 4.55L13.45 4.8Q14.4 5.25 15.15 6.3L15.6 7.25L13.9 6.4" />
<path style="fill:#11141C;fill-opacity:1" d="M11.55,2.65L12.5 3.55L13.5 3.65Q14.65 3.9 15.8 5.15Q16.75 6.25 16.9 8.2L16.9 8.8L16.7 10.5Q16.4 11.75 15.55 12.65Q14.2 14.05 12.2 14.55Q10.15 15 9.05 14.25L7.25 12.9L6.7 12.35L6 10.85L5.25 10.5Q4.45 10.1 4.35 9.25Q4.25 8.45 4.6 7.1L4.6 7Q4.95 5.6 6.1 4.2Q7.2 2.75 8.7 2.1Q10.15 1.45 11.5 2.65L11.55 2.65M5.65,7.4L5.5 7.9L5.5 7.95L5.5 8.05L5.45 8.15L5.45 8.3L5.5 9L5.75 9.4L6.3 9.75L6.55 9.05L6.85 8.35L7.15 7.9L7.2 7.8L7.4 7.35L7.6 7L8.2 6.05Q9.2 4.8 10.4 4.3Q10.55 4.1 11.2 3.9L10.65 3.5L9.75 3.05Q7.55 4.25 7.05 5.1L6 6.65L5.65 7.4M11,3.65L10.95 3.65L10.95 3.7L11 3.65M9.4,6.3L9.25 6.4L8.5 7.25L8.15 8L8.05 8.25L7.9 8.55Q7.7 8.95 7.65 9.45L7.55 9.85L7.5 9.9L7.45 10.45L7.45 11.05L7.6 11.35L9.25 12.85Q10.75 13.95 12.65 13.35Q13.45 13.1 14.15 12.45L15.35 10.85L15.65 10.25Q16.05 8.6 15.8 8.35L15.6 7.25L15.15 6.3Q14.4 5.25 13.45 4.8L12.5 4.55Q11.85 4.75 11.35 5Q10.3 5.4 9.55 6.05L9.55 6.1L9.4 6.3" />
</g>
</svg>
