<?xml version="1.0" encoding="utf-8"?>
<svg version="1.1" id="Layer_1"
xmlns="http://www.w3.org/2000/svg"
xmlns:xlink="http://www.w3.org/1999/xlink"
xmlns:author="http://www.sothink.com"
width="31px" height="29px"
xml:space="preserve">
<g id="16" transform="matrix(1, 0, 0, 1, 0, 0)">
<path style="fill:#745416;fill-opacity:1" d="M8.65,22.35L7.9 21.65L11.4 19.05Q9.45 17.55 12.4 16.7L11.7 17.5L11.6 17.9L12.1 18.5L23.8 9.6L26.25 4.3L27 2.6L27.3 2.6L27.25 2.7L26.95 4.15L25.05 10.65L23.3 11.95L16.8 17.15L9.7 22.8L9.3 22.85L8.65 22.35M14.8,13.2Q15.75 11.45 20.2 8.05L20.4 8.25Q17.75 11.6 15.8 13.3Q13.8 14.95 14.8 13.2" />
<path style="fill:#4D3212;fill-opacity:1" d="M20.5,3.65L18.95 4.05L17.7 5.5Q16.05 7.1 13.95 9.85L10.85 13.8L5.95 19.8L5.1 19.2L9.8 13.15Q17.55 3.05 18.05 2.6L30.05 0L26.4 11.7L10 24L9.3 22.85L9.7 22.8L16.8 17.15L23.3 11.95L25.05 10.65L26.95 4.15L27.25 2.7L27.3 2.6L27 2.6Q23.9 2.75 20.5 3.65" />
<path style="fill:#B49148;fill-opacity:1" d="M19.35,5.85L7 20.8L5.95 19.8L10.85 13.8L13.95 9.85Q16.05 7.1 17.7 5.5L18.95 4.05L20.5 3.65Q23.9 2.75 27 2.6L26.25 4.3L19.35 5.85" />
<path style="fill:#9A7226;fill-opacity:1" d="M26.25,4.3L23.8 9.6L12.1 18.5L11.6 17.9L11.7 17.5L12.4 16.7Q9.45 17.55 11.4 19.05L7.9 21.65L7 20.8L19.35 5.85L26.25 4.3M15.8,13.3Q17.75 11.6 20.4 8.25L20.2 8.05Q15.75 11.45 14.8 13.2Q13.8 14.95 15.8 13.3" />
<path style="fill:#B49148;fill-opacity:1" d="M6.1,21.3L4.55 20.35L4 20.1L3.8 19.85Q3.85 19.2 4.45 19.35Q5.1 19.45 6.8 21.2L8.35 22.9L6.1 21.3" />
<path style="fill:#4D3212;fill-opacity:1" d="M3.8,20.05L3.8 20.1Q3.85 20.9 5.15 22.15L7.4 24.15Q8.3 24.85 8.9 24.9Q9.45 24.95 9.35 24.55L8.9 23.6L8.85 23.6L8.75 23.4L8.35 22.9L6.8 21.2Q5.1 19.45 4.45 19.35Q3.85 19.2 3.8 19.85L3.8 20.05M3.35,18.6L4.8 18.45L5.9 19.1L7.1 20.25L7.4 20.45L8.65 21.7L9.1 22.15L9.7 23.05L10.5 24.5L10.55 25.05L10.15 25.75Q9.15 26.45 6.85 25.15L5.95 26.05L4.85 27Q3.6 27.85 2.5 28L2.05 28.05L1.1 27.8L0.55 27.4L0.4 27.25L0 26.4L0 26.2L0.2 25.45Q0.6 24 3.55 21.6L2.9 20.3L2.85 20.05Q2.6 19.05 3.15 18.75L3.35 18.6M1.6,26.8L2.15 27.1Q2.65 27.3 3.6 26.75L6 24.5L4.75 23.35L4 22.65L3.75 22.75L3.55 22.95L2.1 24.4Q0.95 25.55 1.05 26.05L1.35 26.7L1.6 26.8" />
<path style="fill:#745416;fill-opacity:1" d="M5.55,21.75Q7.65 23.65 8.55 23.65L8.9 23.6L9.35 24.55Q9.45 24.95 8.9 24.9Q8.3 24.85 7.4 24.15L5.15 22.15Q3.85 20.9 3.8 20.1L3.8 20.05L3.8 19.85L4 20.1L5.55 21.75M4,22.65L4.75 23.35L6 24.5L3.6 26.75Q2.65 27.3 2.15 27.1L1.6 26.8L3.4 25.6Q4.35 24.65 4.35 23.95Q4.35 23.35 3.75 22.75L4 22.65" />
<path style="fill:#9A7226;fill-opacity:1" d="M4,20.1L4.55 20.35L6.1 21.3L8.35 22.9L8.75 23.4L8.85 23.6L8.9 23.6L8.55 23.65Q7.65 23.65 5.55 21.75L4 20.1M1.35,26.7L1.05 26.05Q0.95 25.55 2.1 24.4L3.55 22.95L3.75 22.75Q4.35 23.35 4.35 23.95Q4.35 24.65 3.4 25.6L1.6 26.8L1.35 26.7" />
</g>
</svg>
