<?xml version="1.0" encoding="utf-8"?>
<svg version="1.1" id="Layer_1"
xmlns="http://www.w3.org/2000/svg"
xmlns:xlink="http://www.w3.org/1999/xlink"
xmlns:author="http://www.sothink.com"
width="75px" height="18px"
xml:space="preserve">
<g id="128" transform="matrix(1, 0, 0, 1, 0, 5.8)">
<path style="fill:#EEBE23;fill-opacity:1" d="M34.4,6.9L33.85 8.25L36.4 8.25L35.9 6.9L38.8 6.8L40.8 12L37.8 12L37.05 10.05L33.15 10.05L32.4 12L29.95 12L32 6.95L34.4 6.9" />
<linearGradient
id="LinearGradID_253" gradientUnits="userSpaceOnUse" gradientTransform="matrix(0, 0.00210571, -0.00411987, 0, -52.05, 4.45)" spreadMethod ="pad" x1="-819.2" y1="0" x2="819.2" y2="0" >
<stop  offset="0" style="stop-color:#FAED2D;stop-opacity:1" />
<stop  offset="1" style="stop-color:#FFFEF3;stop-opacity:1" />
</linearGradient>
<path style="fill:url(#LinearGradID_253) " d="M34.4,6.9L32 6.95L33.8 2.4L37.05 2.4L38.8 6.8L35.9 6.9L35.15 4.9L34.4 6.9" />
<linearGradient
id="LinearGradID_254" gradientUnits="userSpaceOnUse" gradientTransform="matrix(0, 0.00263977, -0.00411987, 0, -52.05, 2.55)" spreadMethod ="pad" x1="-819.2" y1="0" x2="819.2" y2="0" >
<stop  offset="0" style="stop-color:#FAED2D;stop-opacity:1" />
<stop  offset="1" style="stop-color:#FFFEF3;stop-opacity:1" />
</linearGradient>
<path style="fill:url(#LinearGradID_254) " d="M42.1,5.45L42.1 0L47.4 0L49.7 0.35Q50.6 0.7 51.2 1.6Q51.75 2.5 51.75 3.6Q51.75 4.5 51.4 5.25L42.1 5.45M48.85,3.6L48.55 2.7L47.9 2.25L46.6 2.15L44.95 2.15L44.95 5.2L46.65 5.2L47.9 5.1L48.55 4.55L48.85 3.6" />
<path style="fill:#EEBE23;fill-opacity:1" d="M51.4,5.25Q50.85 6.15 49.7 6.7L51.9 12L48.8 12L46.95 7.25L44.95 7.25L44.95 12L42.1 12L42.1 5.45L51.4 5.25" />
<linearGradient
id="LinearGradID_255" gradientUnits="userSpaceOnUse" gradientTransform="matrix(0, 0.00263977, -0.00411987, 0, -52.05, -0.25)" spreadMethod ="pad" x1="-819.2" y1="0" x2="819.2" y2="0" >
<stop  offset="0" style="stop-color:#FAED2D;stop-opacity:1" />
<stop  offset="1" style="stop-color:#FFFEF3;stop-opacity:1" />
</linearGradient>
<path style="fill:url(#LinearGradID_255) " d="M53.95,2.4L53.95 -2.8L62.5 -2.8L62.5 -0.5L56.8 -0.5L56.8 1.95L61.3 1.95L61.3 2.2L53.95 2.4" />
<path style="fill:#EEBE23;fill-opacity:1" d="M61.3,2.2L61.3 4.2L56.8 4.2L56.8 6.85L62.5 6.85L62.5 9.2L53.95 9.2L53.95 2.4L61.3 2.2" />
<linearGradient
id="LinearGradID_256" gradientUnits="userSpaceOnUse" gradientTransform="matrix(0, 0.00263977, -0.00411987, 0, -52.05, -3.25)" spreadMethod ="pad" x1="-819.2" y1="0" x2="819.2" y2="0" >
<stop  offset="0" style="stop-color:#FAED2D;stop-opacity:1" />
<stop  offset="1" style="stop-color:#FFFEF3;stop-opacity:1" />
</linearGradient>
<path style="fill:url(#LinearGradID_256) " d="M71.05,-1L70.75 -1.9Q70.3 -2.85 69.65 -3.2Q69.05 -3.6 68.15 -3.6L66.95 -3.6L66.95 -0.9L64.2 -0.85L64.2 -5.8L67.85 -5.8Q70.1 -5.8 71.2 -5.15Q72.3 -4.55 73.15 -3.2Q73.75 -2.3 73.95 -1.1L71.05 -1" />
<path style="fill:#EEBE23;fill-opacity:1" d="M71.05,-1L73.95 -1.1L74.05 0.15Q74.05 2.75 72.5 4.5Q71 6.2 68.35 6.2L64.2 6.2L64.2 -0.85L66.95 -0.9L66.95 3.95L68.1 3.95Q69.65 3.95 70.4 2.8Q71.15 1.65 71.15 0.1L71.05 -1" />
<linearGradient
id="LinearGradID_257" gradientUnits="userSpaceOnUse" gradientTransform="matrix(0, 0.00263977, -0.00411987, 0, -52.05, 2.35)" spreadMethod ="pad" x1="-819.2" y1="0" x2="819.2" y2="0" >
<stop  offset="0" style="stop-color:#FAED2D;stop-opacity:1" />
<stop  offset="1" style="stop-color:#FFFEF3;stop-opacity:1" />
</linearGradient>
<path style="fill:url(#LinearGradID_257) " d="M0,6.2L0 5.8Q0 3.1 1.4 1.35Q2.85 -0.4 5.35 -0.4Q9.7 -0.4 10.25 4.25L7.3 4.45Q7.25 1.9 5.3 1.9Q3.1 1.9 3.1 5.8L3.1 6.1L0 6.2" />
<path style="fill:#EEBE23;fill-opacity:1" d="M3.1,6.1Q3.15 8.15 3.7 8.9Q4.3 9.7 5.4 9.7Q7.1 9.7 7.5 7.4L10.25 7.6Q9.95 9.75 8.65 10.85Q7.3 12 5.35 12Q2.95 12 1.5 10.35Q0.1 8.8 0 6.2L3.1 6.1" />
<linearGradient
id="LinearGradID_258" gradientUnits="userSpaceOnUse" gradientTransform="matrix(0, 0.00263977, -0.00411987, 0, -52.05, 2.55)" spreadMethod ="pad" x1="-819.2" y1="0" x2="819.2" y2="0" >
<stop  offset="0" style="stop-color:#FAED2D;stop-opacity:1" />
<stop  offset="1" style="stop-color:#FFFEF3;stop-opacity:1" />
</linearGradient>
<path style="fill:url(#LinearGradID_258) " d="M11.85,6.1L11.85 0L14.7 0L14.7 6.05L11.85 6.1" />
<path style="fill:#EEBE23;fill-opacity:1" d="M14.7,6.05L14.7 9.65L19.45 9.65L19.45 12L11.85 12L11.85 6.1L14.7 6.05" />
<linearGradient
id="LinearGradID_259" gradientUnits="userSpaceOnUse" gradientTransform="matrix(0, 0.00263977, -0.00411987, 0, -52.05, 2.55)" spreadMethod ="pad" x1="-819.2" y1="0" x2="819.2" y2="0" >
<stop  offset="0" style="stop-color:#FAED2D;stop-opacity:1" />
<stop  offset="1" style="stop-color:#FFFEF3;stop-opacity:1" />
</linearGradient>
<path style="fill:url(#LinearGradID_259) " d="M20.9,5.9L20.9 0L29.45 0L29.45 2.3L23.75 2.3L23.75 4.75L28.25 4.75L28.25 5.75L20.9 5.9" />
<path style="fill:#EEBE23;fill-opacity:1" d="M28.25,5.75L28.25 7L23.75 7L23.75 9.65L29.45 9.65L29.45 12L20.9 12L20.9 5.9L28.25 5.75" />
</g>
</svg>
