<?xml version="1.0" encoding="utf-8"?>
<svg version="1.1" id="Layer_1"
xmlns="http://www.w3.org/2000/svg"
xmlns:xlink="http://www.w3.org/1999/xlink"
xmlns:author="http://www.sothink.com"
width="75px" height="24px"
xml:space="preserve">
<g id="124" transform="matrix(1, 0, 0, 1, 0, 12)">
<linearGradient
id="LinearGradID_225" gradientUnits="userSpaceOnUse" gradientTransform="matrix(0, 0.00213623, -0.00411987, 0, -52.05, 4.2)" spreadMethod ="pad" x1="-819.2" y1="0" x2="819.2" y2="0" >
<stop  offset="0" style="stop-color:#FAED2D;stop-opacity:1" />
<stop  offset="1" style="stop-color:#FFFEF3;stop-opacity:1" />
</linearGradient>
<path style="fill:url(#LinearGradID_225) " d="M0,7.3L0 7Q0 4.8 1.4 3.4Q2.85 2 5.35 2Q9.7 2 10.25 5.75L7.3 5.9Q7.25 3.85 5.3 3.85Q3.1 3.85 3.1 7L3.1 7.25L0 7.3" />
<path style="fill:#EEBE23;fill-opacity:1" d="M3.1,7.25Q3.15 8.9 3.7 9.5Q4.3 10.15 5.4 10.15Q7.1 10.15 7.5 8.3L10.25 8.45Q9.95 10.2 8.65 11.05Q7.3 12 5.35 12Q2.95 12 1.5 10.65Q0.1 9.4 0 7.3L3.1 7.25" />
<linearGradient
id="LinearGradID_226" gradientUnits="userSpaceOnUse" gradientTransform="matrix(0, 0.00263977, -0.00411987, 0, -52.05, -0.05)" spreadMethod ="pad" x1="-819.2" y1="0" x2="819.2" y2="0" >
<stop  offset="0" style="stop-color:#FAED2D;stop-opacity:1" />
<stop  offset="1" style="stop-color:#FFFEF3;stop-opacity:1" />
</linearGradient>
<path style="fill:url(#LinearGradID_226) " d="M11.85,3.5L11.85 -2.6L14.7 -2.6L14.7 3.45L11.85 3.5" />
<path style="fill:#EEBE23;fill-opacity:1" d="M14.7,3.45L14.7 7.05L19.45 7.05L19.45 9.4L11.85 9.4L11.85 3.5L14.7 3.45" />
<linearGradient
id="LinearGradID_227" gradientUnits="userSpaceOnUse" gradientTransform="matrix(0, 0.00263977, -0.00411987, 0, -52.05, -3.05)" spreadMethod ="pad" x1="-819.2" y1="0" x2="819.2" y2="0" >
<stop  offset="0" style="stop-color:#FAED2D;stop-opacity:1" />
<stop  offset="1" style="stop-color:#FFFEF3;stop-opacity:1" />
</linearGradient>
<path style="fill:url(#LinearGradID_227) " d="M20.9,0.3L20.9 -5.6L29.45 -5.6L29.45 -3.3L23.75 -3.3L23.75 -0.85L28.25 -0.85L28.25 0.15L20.9 0.3" />
<path style="fill:#EEBE23;fill-opacity:1" d="M28.25,0.15L28.25 1.4L23.75 1.4L23.75 4.05L29.45 4.05L29.45 6.4L20.9 6.4L20.9 0.3L28.25 0.15" />
<linearGradient
id="LinearGradID_228" gradientUnits="userSpaceOnUse" gradientTransform="matrix(0, 0.00263977, -0.00411987, 0, -52.05, -5.85)" spreadMethod ="pad" x1="-819.2" y1="0" x2="819.2" y2="0" >
<stop  offset="0" style="stop-color:#FAED2D;stop-opacity:1" />
<stop  offset="1" style="stop-color:#FFFEF3;stop-opacity:1" />
</linearGradient>
<path style="fill:url(#LinearGradID_228) " d="M33.8,-8.4L37.05 -8.4L38.8 -2.9L35.9 -2.8L35.15 -5.3L34.4 -2.8L32 -2.75L33.8 -8.4" />
<path style="fill:#EEBE23;fill-opacity:1" d="M35.9,-2.8L38.8 -2.9L40.8 3.6L37.8 3.6L37.05 1.15L33.15 1.15L32.4 3.6L29.95 3.6L32 -2.75L34.4 -2.8L33.85 -1.1L36.4 -1.1L35.9 -2.8" />
<linearGradient
id="LinearGradID_229" gradientUnits="userSpaceOnUse" gradientTransform="matrix(0, 0.00263977, -0.00411987, 0, -52.05, -9.45)" spreadMethod ="pad" x1="-819.2" y1="0" x2="819.2" y2="0" >
<stop  offset="0" style="stop-color:#FAED2D;stop-opacity:1" />
<stop  offset="1" style="stop-color:#FFFEF3;stop-opacity:1" />
</linearGradient>
<path style="fill:url(#LinearGradID_229) " d="M47.9,-9.75L46.6 -9.85L44.95 -9.85L44.95 -6.8L46.65 -6.8L47.9 -6.9L48.55 -7.45L48.85 -8.4L48.55 -9.3L47.9 -9.75M42.1,-6.55L42.1 -12L47.4 -12L49.7 -11.65Q50.6 -11.3 51.2 -10.4Q51.75 -9.5 51.75 -8.4Q51.75 -7.5 51.4 -6.75L42.1 -6.55" />
<path style="fill:#EEBE23;fill-opacity:1" d="M51.4,-6.75Q50.85 -5.85 49.7 -5.3L51.9 0L48.8 0L46.95 -4.75L44.95 -4.75L44.95 0L42.1 0L42.1 -6.55L51.4 -6.75" />
<linearGradient
id="LinearGradID_230" gradientUnits="userSpaceOnUse" gradientTransform="matrix(0, 0.00263977, -0.00411987, 0, -52.05, -6.05)" spreadMethod ="pad" x1="-819.2" y1="0" x2="819.2" y2="0" >
<stop  offset="0" style="stop-color:#FAED2D;stop-opacity:1" />
<stop  offset="1" style="stop-color:#FFFEF3;stop-opacity:1" />
</linearGradient>
<path style="fill:url(#LinearGradID_230) " d="M53.95,-3.4L53.95 -8.6L62.5 -8.6L62.5 -6.3L56.8 -6.3L56.8 -3.85L61.3 -3.85L61.3 -3.6L53.95 -3.4" />
<path style="fill:#EEBE23;fill-opacity:1" d="M61.3,-3.6L61.3 -1.6L56.8 -1.6L56.8 1.05L62.5 1.05L62.5 3.4L53.95 3.4L53.95 -3.4L61.3 -3.6" />
<linearGradient
id="LinearGradID_231" gradientUnits="userSpaceOnUse" gradientTransform="matrix(0, 0.00263977, -0.00411987, 0, -52.05, -3.25)" spreadMethod ="pad" x1="-819.2" y1="0" x2="819.2" y2="0" >
<stop  offset="0" style="stop-color:#FAED2D;stop-opacity:1" />
<stop  offset="1" style="stop-color:#FFFEF3;stop-opacity:1" />
</linearGradient>
<path style="fill:url(#LinearGradID_231) " d="M71.05,-1L70.75 -1.9Q70.3 -2.85 69.65 -3.2Q69.05 -3.6 68.15 -3.6L66.95 -3.6L66.95 -0.9L64.2 -0.85L64.2 -5.8L67.85 -5.8Q70.1 -5.8 71.2 -5.15Q72.3 -4.55 73.15 -3.2Q73.75 -2.3 73.95 -1.1L71.05 -1" />
<path style="fill:#EEBE23;fill-opacity:1" d="M71.05,-1L73.95 -1.1L74.05 0.15Q74.05 2.75 72.5 4.5Q71 6.2 68.35 6.2L64.2 6.2L64.2 -0.85L66.95 -0.9L66.95 3.95L68.1 3.95Q69.65 3.95 70.4 2.8Q71.15 1.65 71.15 0.1L71.05 -1" />
</g>
</svg>
