<?xml version="1.0" encoding="utf-8"?>
<svg version="1.1" id="Layer_1"
xmlns="http://www.w3.org/2000/svg"
xmlns:xlink="http://www.w3.org/1999/xlink"
xmlns:author="http://www.sothink.com"
width="44px" height="22px"
xml:space="preserve">
<g id="2842" transform="matrix(1, 0, 0, 1, 0, -2.1)">
<path style="fill:#3C3532;fill-opacity:1" d="M38.3,6.4L38.5 5.4L40.6 4.7L42 4.2L42.35 4.25L42.4 4.35L42.6 4.75L42.65 4.9L42.9 5.85Q43.4 7.75 43.3 10.05Q43.15 12.35 42.3 14.85Q41.45 17.35 37.8 20.25Q34.75 22.7 30.4 23.8L28.45 23.95Q27.9 23.7 27.15 22.65Q26.5 21.7 24.7 20.25L24.6 20.15L24.8 18.75L27.05 20.8L24.9 18.4Q25 17.95 25.75 17.7Q28.7 20.25 29.4 22.8Q34.9 21.3 37.6 18.7Q40.3 16.1 41.2 13.9Q42.05 11.65 42.15 9.85L42.2 8.2L42.05 6.95L41.9 6.45L41.65 5.85L41.45 5.6L38.2 6.8L38.3 6.4" />
<path style="fill:#9E9187;fill-opacity:1" d="M39.4,9Q38 10.45 36.4 11.35Q37.6 9.35 38.2 6.8L41.45 5.6L41.65 5.85Q40.8 7.55 39.4 9" />
<path style="fill:#F7F7F7;fill-opacity:1" d="M30.5,18.95Q35.9 18.35 39.1 14.35Q41.35 11.65 42.2 8.2L42.15 9.85Q42.05 11.65 41.2 13.9Q40.3 16.1 37.6 18.7Q34.9 21.3 29.4 22.8Q28.7 20.25 25.75 17.7L25.8 17.7L25.7 17.65L27.25 17.5L28.6 17.15L30.5 18.95" />
<path style="fill:#C8C1BB;fill-opacity:1" d="M41.9,6.45L42.05 6.95L42.2 8.2Q41.35 11.65 39.1 14.35Q35.9 18.35 30.5 18.95L28.6 17.15Q30.85 16.45 32.65 15.25Q36.45 14.7 39.25 11.3Q41.05 9.15 41.9 6.45" />
<path style="fill:#AFA59C;fill-opacity:1" d="M39.25,11.3Q36.45 14.7 32.65 15.25Q34.95 13.7 36.4 11.35Q38 10.45 39.4 9Q40.8 7.55 41.65 5.85L41.9 6.45Q41.05 9.15 39.25 11.3" />
<path style="fill:#000000;fill-opacity:1" d="M32.65,15.25Q30.85 16.45 28.6 17.15L27.25 17.5L25.7 17.65L25.8 17.7L25.75 17.7Q25 17.95 24.9 18.4L24.8 18.75L24.6 20.15L24.45 20.05L23.65 19.35L21.2 17.8Q19.7 16.95 15.4 15.8L14.15 15.5L12.1 17.35Q8.95 19.3 6.35 18.95Q5.3 18.55 5.35 17Q5.35 15.45 5.65 14.35L0.1 14.1Q-0.2 12.45 0.35 11.2Q0.9 9.9 2.15 8Q3.35 6.1 7.15 4.25L7.6 4.05Q11.15 2.4 15.5 2.1L15.55 2.55Q15.55 2.95 16.25 3.65L16.95 4.2L17.3 4.4L17.9 4.25L19.4 3.85Q20.55 3.65 21.95 4.3L22.1 4.4Q23.55 5.1 23.4 6.8L27.6 7.2Q31.75 7.3 36 6.1L36.8 5.9L38.5 5.4L38.3 6.4L38.2 6.8Q37.6 9.35 36.4 11.35Q34.95 13.7 32.65 15.25M10.3,11.2L10.2 11.3L10.15 11.3L9.95 11.5L11 11.7L11.2 11.75Q12.25 12 12.85 12.8L13.7 14.35L14.7 13.5L15.55 12.8L16.8 11.8L18.5 10.3L20.85 8.15Q22.25 6.95 22.15 6.6L22 5.85L21.35 5.15L19.35 5Q18.05 5.4 17.65 5.75L15.95 7L13.85 8.5Q12.95 9.15 12.15 9.75L12 9.9L11 10.7L10.3 11.2M27.5,16.2L30.55 15Q32.45 13.95 33.8 12.4Q35.55 10.35 36.45 7.4Q29.8 9.2 22.9 7.6L21.55 9L20.4 10.1L18.4 11.95L16.85 13.25L18.25 13.55Q21.35 14.35 24.55 16.75L27.5 16.2M24,17.45Q21.8 15.4 18.35 14.45L16.05 13.8L15.05 14.45Q14.75 14.6 16.95 15Q19.1 15.35 23.7 17.95L24 17.45M10.15,4.1L7.65 5.15Q6.4 5.8 5.3 6.7L4.25 7.65Q1.85 9.75 1.45 11.15L1.4 11.4L1.4 11.5Q3.45 10.3 8.6 11.35L8.75 11.2L8.85 11.15L9.35 10.7L11.25 9.1L13.25 7.65L17.1 5.3L16.2 4.8L15.5 4.2L14.9 3.05L12.95 3.35L11.25 3.75L10.15 4.1M6.55,16.6Q6.8 18.05 8.5 17.5L11.2 16.35L12.25 15.2L12.2 14.3Q11.85 13.3 11.1 13.05L9.6 12.7Q8.85 12.55 7.6 13.85Q6.6 14.85 6.55 15.9L6.55 16.6M6.15,13.05L7 12.35Q2.75 11.55 1.45 13L6.15 13.05" />
<path style="fill:#3F3E3E;fill-opacity:1" d="M19.45,8Q18.25 9.55 16.75 10.75L14 13Q13.55 11.5 11.85 10.9L11 10.7L12 9.9L12.15 9.75Q12.95 9.15 13.85 8.5L15.95 7L17.65 5.75Q18.05 5.4 19.35 5L21.35 5.15L22 5.85Q20.55 6.6 19.45 8M19.15,5.2Q15.6 7.35 13.25 10.45Q13.15 10.6 13.35 10.5L17.35 8.15Q19.05 6.95 19.4 5.4Q19.45 5.2 19.15 5.2M9.7,16.3L6.85 16.25L6.55 15.9Q6.6 14.85 7.6 13.85Q8.85 12.55 9.6 12.7L11.1 13.05Q11.85 13.3 12.2 14.3L9.7 16.3M8.35,15.75Q9.85 14.25 9.05 13.25Q6.7 14.35 7.9 15.8L8.35 15.75" />
<path style="fill:#252525;fill-opacity:1" d="M22,5.85L22.15 6.6Q22.25 6.95 20.85 8.15L18.5 10.3L16.8 11.8L15.55 12.8L14.7 13.5L13.7 14.35L12.85 12.8Q12.25 12 11.2 11.75L11 11.7L9.95 11.5L10.15 11.3L10.2 11.3L10.3 11.2L11 10.7L11.85 10.9Q13.55 11.5 14 13L16.75 10.75Q18.25 9.55 19.45 8Q20.55 6.6 22 5.85M22.9,7.6Q29.8 9.2 36.45 7.4Q35.55 10.35 33.8 12.4L30.85 12.75Q30 11.65 28.35 10.85Q26.5 10.05 24.65 9.55L21.55 9L22.9 7.6M23.7,17.95Q19.1 15.35 16.95 15Q14.75 14.6 15.05 14.45L16.05 13.8L18.35 14.45Q21.8 15.4 24 17.45L23.7 17.95M11.1,6.45L9.4 6.3Q9.65 5.05 10.8 4.1L11.25 3.75L12.95 3.35L14.9 3.05L15.5 4.2L16.2 4.8L17.1 5.3L13.25 7.65Q12.45 6.8 11.1 6.45M12.2,14.3L12.25 15.2L11.2 16.35L8.5 17.5Q6.8 18.05 6.55 16.6L6.55 15.9L6.85 16.25L9.7 16.3L12.2 14.3M1.45,13Q2.75 11.55 7 12.35L6.15 13.05L1.45 13" />
<path style="fill:#3A3838;fill-opacity:1" d="M21.55,9L24.65 9.55Q26.5 10.05 28.35 10.85Q30 11.65 30.85 12.75L33.8 12.4Q32.45 13.95 30.55 15L28.6 13.35Q27.1 12.25 25.45 11.5Q23.65 10.7 21.8 10.3L20.4 10.1L21.55 9M9.15,8.3Q7.7 7.9 6.25 7.85Q6.4 6.35 7.65 5.15L10.15 4.1L11.25 3.75L10.8 4.1Q9.65 5.05 9.4 6.3L11.1 6.45Q12.45 6.8 13.25 7.65L11.25 9.1L9.15 8.3" />
<path style="fill:#434242;fill-opacity:1" d="M27.5,16.2L25.05 14.5L21.75 12.85Q20.1 12.15 18.4 11.95L20.4 10.1L21.8 10.3Q23.65 10.7 25.45 11.5Q27.1 12.25 28.6 13.35L30.55 15L27.5 16.2M11.25,9.1L9.35 10.7L7.65 10.15L3.85 10Q3.9 8.7 4.25 7.65L5.3 6.7Q6.4 5.8 7.65 5.15Q6.4 6.35 6.25 7.85Q7.7 7.9 9.15 8.3L11.25 9.1" />
<path style="fill:#9C9C9C;fill-opacity:1" d="M24.55,16.75Q21.35 14.35 18.25 13.55L16.85 13.25L18.4 11.95Q20.1 12.15 21.75 12.85L25.05 14.5L27.5 16.2L24.55 16.75M3.85,10L7.65 10.15L9.35 10.7L8.85 11.15L8.75 11.2L8.6 11.35Q3.45 10.3 1.4 11.5L1.4 11.4L1.45 11.15Q1.85 9.75 4.25 7.65Q3.9 8.7 3.85 10M19.4,5.4Q19.05 6.95 17.35 8.15L13.35 10.5Q13.15 10.6 13.25 10.45Q15.6 7.35 19.15 5.2Q19.45 5.2 19.4 5.4M7.9,15.8Q6.7 14.35 9.05 13.25Q9.85 14.25 8.35 15.75L7.9 15.8" />
</g>
</svg>
