<?xml version="1.0" encoding="utf-8"?>
<svg version="1.1" id="Layer_1"
xmlns="http://www.w3.org/2000/svg"
xmlns:xlink="http://www.w3.org/1999/xlink"
xmlns:author="http://www.sothink.com"
width="19px" height="8px"
xml:space="preserve">
<g id="710" transform="matrix(1, 0, 0, 1, -1.15, -2.5)">
<path style="fill:#FBECFF;fill-opacity:1" d="M13.1,6.05L12.75 6Q12.55 6 12.65 5.7Q12.8 5.35 13.1 5.3L13.55 5.85Q13.7 6.15 13.1 6.05M8.15,6.95Q8 5.8 9.1 5.55Q10.35 6.85 8.6 7.3Q8.2 7.4 8.15 6.95M6.2,8.75L5.55 8.85Q4 8.3 5.4 7.55Q7.35 7.7 6.2 8.75" />
<path style="fill:#EDA591;fill-opacity:1" d="M19.65,5.6L17.65 5.5Q16.9 7.2 15.2 6.4Q13.15 9 11.55 7.25Q10.2 7.7 8.85 8.55Q5.35 10.75 3.75 9.65Q2.1 8.45 1.35 6.3Q0.55 4.1 2.6 5.4Q4.6 6.65 6.55 4.5Q8.45 2.35 9.75 3.85Q10.95 5.35 12.25 3.5Q13.5 1.65 15.65 3.6Q17.3 2.2 17.85 2.6Q20.2 3.45 19.75 5.55L19.65 5.6M13.55,5.85Q16.15 4.45 13.65 3.2Q12.4 3.9 11.75 5.35Q10.3 4.1 8.9 4.95Q6 3.7 5.8 6.6Q5.15 6.7 4.6 7L3.55 7.05Q2.9 7.6 4.45 8.8Q5.95 9.95 7.4 7.75L9 7.6L11.75 6.6L13.1 6.05Q13.7 6.15 13.55 5.85M10.8,7.4L11.1 7.35L11.55 7.25L10.8 7.4" />
<path style="fill:#FFE8C6;fill-opacity:1" d="M11.75,6.6L9 7.6L7.4 7.75Q5.95 9.95 4.45 8.8Q2.9 7.6 3.55 7.05L4.6 7Q5.15 6.7 5.8 6.6Q6 3.7 8.9 4.95Q10.3 4.1 11.75 5.35Q12.4 3.9 13.65 3.2Q16.15 4.45 13.55 5.85L13.1 5.3Q12.8 5.35 12.65 5.7Q12.55 6 12.75 6L13.1 6.05L11.75 6.6M11.55,7.25L11.1 7.35L10.8 7.4L11.55 7.25M8.6,7.3Q10.35 6.85 9.1 5.55Q8 5.8 8.15 6.95Q8.2 7.4 8.6 7.3M5.4,7.55Q4 8.3 5.55 8.85L6.2 8.75Q7.35 7.7 5.4 7.55" />
</g>
</svg>
