<?xml version="1.0" encoding="utf-8"?>
<svg version="1.1" id="Layer_1"
xmlns="http://www.w3.org/2000/svg"
xmlns:xlink="http://www.w3.org/1999/xlink"
xmlns:author="http://www.sothink.com"
width="12px" height="10px"
xml:space="preserve">
<g id="2841" transform="matrix(1, 0, 0, 1, 0.25, 0.05)">
<path style="fill:#332C27;fill-opacity:1" d="M10.55,6L10.8 6.7Q10.95 7.15 10.4 7.25L9.05 7.25L8.95 8.05L8.5 8.85L6.95 9.6L3.6 9.45L2.15 8.65L0.75 6.95Q-0.2 5.55 -0.25 3.95Q-0.3 2.35 0.55 1.3Q1.45 0.25 3.1 0Q4.7 -0.25 6.2 0.9L6.55 1.35L7.85 1.45Q9 1.45 8.85 1.8Q9.35 2.25 9.25 3.15Q10 2.85 10.5 4.05Q10.95 5.2 10.8 5.35L10.5 5.6Q10.35 5.65 10.55 6M6.95,2.75L6.9 2.7Q6.5 1.85 5.9 1.4L1.8 1.3Q-0.45 2.75 1.15 6.3L1.3 6.75Q2.25 8.65 4.5 9.05Q8.7 9.8 8.5 6.2Q8.9 6.25 9 6.65L10.05 6.55L9.95 5.95L9.75 5.7L9.05 5.75L8.5 5.65L7.95 5.5L7.95 5.4L10 4.9L9.75 4.2L9.75 4.05L9.7 4L9.55 3.8L9.45 3.8L8.5 3.8L7.5 3.65L7.75 3.45L8.7 3.1L8.45 2.25L8.3 2.05L6.95 2.1Q7.3 2.35 6.95 2.7L6.95 2.75M5.3,6.05Q4.45 6.45 4.4 7.45L4.4 7.6Q4.4 8.05 4.85 8.25Q6.45 8.7 6.55 7.65L6.3 6.3L6 6.25Q5.65 6.3 5.4 6L5.3 6.05M4.95,5.65Q6.35 5.1 6.9 6.7L7.15 7.45Q7.15 8.15 6.45 8.6Q4.85 9.8 3.8 7.55L3.8 7.45Q3.75 6.1 4.95 5.65M2.2,1.65Q3.95 0.4 5.45 2.85Q6.2 4.05 5.05 4.3Q2.95 4.75 1.9 2.2Q1.95 1.85 2.2 1.65M4.85,3.2Q3.9 1 2.5 2.15Q2.9 3.45 4.15 3.85Q5.35 4.2 4.85 3.2" />
<path style="fill:#BBB4B0;fill-opacity:1" d="M7.1,2.75L6.95 2.7Q7.3 2.35 6.95 2.1L8.3 2.05L8.45 2.25Q8.1 2.85 7.1 2.75M3.8,7.45L2.6 7.1Q1.75 6.8 1.15 6.3Q-0.45 2.75 1.8 1.3L5.9 1.4Q6.5 1.85 6.9 2.7L6.85 2.65Q7.15 3.3 7.75 3.45L7.5 3.65L8.5 3.8L9.45 3.8L9.55 3.8L9.7 4L9.75 4.05L9.75 4.2L8.1 4.55Q6.8 4.65 6.95 4.9L7.35 5.35L8.5 5.65L9.05 5.75L9.75 5.7L9.95 5.95L8.75 6.15Q8 6.1 7.7 6.8L7.15 7.45L6.9 6.7Q6.35 5.1 4.95 5.65Q3.75 6.1 3.8 7.45M5.4,1.85Q6 2.85 6.45 2.5L6.45 2.25L5.6 1.7Q5.45 1.65 5.4 1.8L5.4 1.85M1.9,2.2Q2.95 4.75 5.05 4.3Q6.2 4.05 5.45 2.85Q3.95 0.4 2.2 1.65Q1.95 1.85 1.9 2.2M1.5,4.1Q2.05 3.1 1.35 2.25Q0.15 3.15 1.25 4.2L1.5 4.1M2,5.7Q2.25 5.7 2.15 5.4L1.75 5.05Q1.1 5.65 2 5.7M3.25,5.2L3.25 5.25L4.4 5.1Q4.1 4.7 3.6 4.7Q3.25 4.8 3.25 5.2" />
<path style="fill:#E5DEDA;fill-opacity:1" d="M5.4,1.8Q5.45 1.65 5.6 1.7L6.45 2.25L6.45 2.5Q6 2.85 5.4 1.85L5.4 1.8M1.25,4.2Q0.15 3.15 1.35 2.25Q2.05 3.1 1.5 4.1L1.25 4.2M1.75,5.05L2.15 5.4Q2.25 5.7 2 5.7Q1.1 5.65 1.75 5.05M3.6,4.7Q4.1 4.7 4.4 5.1L3.25 5.25L3.25 5.2Q3.25 4.8 3.6 4.7" />
<path style="fill:#918883;fill-opacity:1" d="M6.85,2.65L6.9 2.7L6.95 2.75L6.95 2.7L7.1 2.75Q8.1 2.85 8.45 2.25L8.7 3.1L7.75 3.45Q7.15 3.3 6.85 2.65M7.35,5.35L6.95 4.9Q6.8 4.65 8.1 4.55L9.75 4.2L10 4.9L7.95 5.4L7.95 5.5L8.5 5.65L7.35 5.35M2.6,7.1L3.8 7.45L3.8 7.55Q4.85 9.8 6.45 8.6Q7.15 8.15 7.15 7.45L7.7 6.8Q8 6.1 8.75 6.15L9.95 5.95L10.05 6.55L9 6.65Q8.9 6.25 8.5 6.2Q8.7 9.8 4.5 9.05Q2.25 8.65 1.3 6.75L1.15 6.3Q1.75 6.8 2.6 7.1M5.4,6Q5.65 6.3 6 6.25L6.3 6.3L6.55 7.65Q6.45 8.7 4.85 8.25Q4.4 8.05 4.4 7.6L4.4 7.45Q4.45 6.45 5.3 6.05L5.4 6M4.15,3.85Q2.9 3.45 2.5 2.15Q3.9 1 4.85 3.2Q5.35 4.2 4.15 3.85" />
</g>
</svg>
