<?xml version="1.0" encoding="utf-8"?>
<svg version="1.1" id="Layer_1"
xmlns="http://www.w3.org/2000/svg"
xmlns:xlink="http://www.w3.org/1999/xlink"
xmlns:author="http://www.sothink.com"
width="43px" height="14px"
xml:space="preserve">
<g id="2710" transform="matrix(1, 0, 0, 1, -20.95, -5.5)">
<path style="fill:#FFFFFF;fill-opacity:1" d="M61.45,10.1Q60.35 8.65 59.5 6.7L57.45 6.15Q56.8 6.4 55.45 7.25Q54.2 8.2 51.95 8.55Q49.25 9.65 46.05 10.35L40.85 10.6Q39.85 10.7 39.35 11.95L37.4 15.5Q37.65 14.25 38.45 12.3Q39.25 10.2 40.35 9.9L41.15 9.95L42.6 10.1Q47.5 9.65 51.8 8.1L57 5.7Q57.85 5.15 60.05 6.25L60.15 6.4L60.05 6.45L60.1 6.55Q61.5 9.4 63.3 11.85Q62.6 11.55 61.45 10.1M25.45,9.5L25.6 9.65L25.7 9.6Q27.45 10.3 29.7 13.4L32.65 17.5Q33.4 18.5 34.25 18.25Q35.1 17.9 36.25 16.6Q35.9 19.1 33.45 18.9L33.5 18.85Q32.45 18.75 31.1 16.45Q29.8 14.1 28.15 12.4Q26.5 10.8 25.85 10.8Q24.95 10.4 23.6 11.1L20.95 12.2L21.05 12.15Q23.05 10 25.45 9.5" />
</g>
</svg>
