<?xml version="1.0" encoding="utf-8"?>
<svg version="1.1" id="Layer_1"
xmlns="http://www.w3.org/2000/svg"
xmlns:xlink="http://www.w3.org/1999/xlink"
xmlns:author="http://www.sothink.com"
width="18px" height="26px"
xml:space="preserve">
<g id="2702" transform="matrix(1, 0, 0, 1, -34.4, 7.25)">
<path style="fill:#FFFFFF;fill-opacity:1" d="M39,-6.65L40.1 -7.05L40.8 -7.2Q43.1 -7.45 45.75 -6.1L46.85 -4.85Q50 -1.1 49.75 -0.15L49.5 0.85Q48.9 -0.6 48.6 -1.9L46.9 -4L44.6 -6L44.6 -5.95L39.8 -6.4L38.2 -5.15L37.2 -4.2L35.2 -1.45Q35.4 -0.65 35.1 0.4L35.1 0.5L35.7 1.25Q35.15 1.45 34.4 0.95L34.85 -1.75L35.05 -1.9Q36.25 -5.05 39 -6.65M41.9,-0.1Q42.55 0.1 42.8 0.55L43 0.4Q43.75 1.1 44 2L44.75 2.4Q45.15 2.1 45.65 1.95Q46.25 2.2 46.4 2.8L46.5 3.3L46.35 3.65L45.9 3.7L45.7 3.75L45.65 3.85Q46.7 6.6 44.8 8.2L45.55 8.5L46 8.35L46 8.3L46.1 8.8L46.15 8.85L46.15 8.9L46.1 8.9L45.75 9.3L45.8 9.3L45.8 9.35Q44.3 9.55 43.55 8.75Q43 8.4 42.75 7.75L42.5 7.55L42.6 6.65L42.55 6.45L42.75 3.5L42.6 3.25L42.45 3.2Q41.95 2.45 42.05 1.45L42.05 1.35L42.1 1.15L42.1 1.05L42.15 1L42.2 0.9Q41.8 0.55 41.85 -0.1L41.9 -0.1M51.5,9.4L51.55 9.8L51.65 9.95L51.65 10L51.55 10L51.4 13.45L51.45 13.4L51.45 14.05Q51.35 14.85 49.25 17.1L48.45 17.3L49.25 17.15L49.25 17.2L47.95 17.45L47.75 17.5L47.9 17.4Q45.35 16.75 44 15.95L44.05 15.9L48.8 16.75L50.85 14.2L50.95 10.1Q49.6 9.05 49.45 7.25L49.5 7.25Q50.65 8.3 51.45 9.6L51.5 9.45L51.5 9.4M48.75,2.55L48.75 6.4L48.7 6.45Q47.15 4.9 48.65 2.6L48.75 2.55M45.65,3.9L45.55 4L45.6 4.25L45.65 3.9M44.4,4.65L44 5.25L43.9 6.55L43.9 6.9L44.1 7.55L44.25 7.7L44.45 7.95Q45.4 6.5 45.6 4.75L44.9 4.05L44.85 4.05L44.4 4.65M48.45,17.05L48.3 17.1L48.35 17.15L48.45 17.05M49,17.8L49.05 17.75L49.05 17.8L49 17.8" />
</g>
</svg>
