<?xml version="1.0" encoding="utf-8"?>
<svg version="1.1" id="Layer_1"
xmlns="http://www.w3.org/2000/svg"
xmlns:xlink="http://www.w3.org/1999/xlink"
xmlns:author="http://www.sothink.com"
width="19px" height="16px"
xml:space="preserve">
<g id="1157" transform="matrix(1, 0, 0, 1, -136.3, -106)">
<path style="fill:#221E38;fill-opacity:1" d="M139.1,106.25L139.1 106.2Q139.3 106.05 139.45 106L139.7 106.2L140.55 107.05Q141.05 107.8 141.8 108.25L143.2 108.35L144.25 107.85L145.05 107.45L146.45 107.25L147.65 107.45L148.45 108.05L149.15 109.1L150.05 110.5Q150.6 111.3 152.35 112.6L152.65 112.95Q154.15 113.85 154.7 114.85Q155.15 115.5 155 117.1L154.55 118.75Q154.15 119.45 154 120.25Q153.85 121.15 153.5 121.5Q153.1 121.8 152.3 121.5L150.65 120.5L149.15 118.85L147.65 116.1Q146.9 114.15 145.25 114L142.15 113.6L139.6 113.1Q138.5 112.9 137.5 112.1Q136.6 111.35 136.4 110.5L136.3 109.4L136.35 109.35L136.55 109.05Q136.65 108.8 136.7 108.9L136.75 108.8L136.85 109.1L136.85 109.5Q138.15 111.05 139.85 111.85L141.3 112.3L141.4 112.25L142.4 112.35L142.4 112.4L142.95 112.4L143.45 112.4L144.35 112.4L145.5 112.5L146.3 112.65L146.3 112.75L146.5 112.85L147.1 113.05L148.15 113.65L148.3 113.8L148.65 115.1L149.45 116.7L150.1 117.85Q151.4 119.9 152.6 120.2L153.4 118.45L153.65 117.2Q153.85 116.1 153.55 115.5L151.9 113.65L151.2 113L148.85 110.05L148.1 109.2L147.75 108.8L147.25 108.5L146.5 108.4L145.95 108.55L144.8 109.05L143.45 109.4L142.05 109.55Q141.15 109.7 140.4 108.55L139.15 106.45L139.1 106.25" />
<path style="fill:#524591;fill-opacity:1" d="M138.25,106.8L139.15 106.45L140.4 108.55Q141.15 109.7 142.05 109.55L143.45 109.4L144.8 109.05L145.95 108.55L146.5 108.4L147.25 108.5L147.75 108.8L148.1 109.2L148.85 110.05L151.2 113L151.9 113.65L153.55 115.5Q153.85 116.1 153.65 117.2L153.4 118.45L152.6 120.2Q151.4 119.9 150.1 117.85L149.45 116.7L148.65 115.1L148.3 113.8L148.15 113.65L147.1 113.05L146.5 112.85L146.3 112.75L146.3 112.65L145.5 112.5L144.35 112.4L143.45 112.4L142.95 112.4L142.4 112.4L142.4 112.35L141.4 112.25L141.3 112.3L139.85 111.85Q138.15 111.05 136.85 109.5L136.85 109.1L136.75 108.8L136.7 108.9Q137.1 107.55 138.25 106.8" />
</g>
</svg>
