<?xml version="1.0" encoding="utf-8"?>
<svg version="1.1" id="Layer_1"
xmlns="http://www.w3.org/2000/svg"
xmlns:xlink="http://www.w3.org/1999/xlink"
xmlns:author="http://www.sothink.com"
width="11px" height="10px"
xml:space="preserve">
<g id="1653" transform="matrix(1, 0, 0, 1, 0, 0)">
<path style="fill:#80E3FF;fill-opacity:0.501961" d="M6.1,8.5L7.35 4.6L9.05 3.45L10.25 4.45L10.95 5.1L7.55 8.65L6.95 9.4L6.4 10L4.9 8.45L6.1 8.5" />
<path style="fill:#96EEFA;fill-opacity:0.501961" d="M4.65,5.55L7.8 2.35L8.5 3L9.05 3.45L7.35 4.6L6.1 8.5L4.9 8.45L3.25 6.5L4.65 5.55M2.15,0.3L5.9 0.85L6.45 1.25L1.6 1.25L1 0.4L2.15 0.3" />
<path style="fill:#7BCBD6;fill-opacity:0.701961" d="M3.25,6.5L1.55 4.05L0.4 3.05L0.35 3.05L0.3 2.75L0 0L0.85 0.15L1 0.4L1.6 1.25L6.45 1.25L7.8 2.35L4.65 5.55L3.25 6.5" />
<path style="fill:#3F94BB;fill-opacity:0.701961" d="M1,0.4L0.85 0.15L2.15 0.3L1 0.4" />
</g>
</svg>
