<?xml version="1.0" encoding="utf-8"?>
<svg version="1.1" id="Layer_1"
xmlns="http://www.w3.org/2000/svg"
xmlns:xlink="http://www.w3.org/1999/xlink"
xmlns:author="http://www.sothink.com"
width="42px" height="17px"
xml:space="preserve">
<g id="792" transform="matrix(1, 0, 0, 1, 0, -25.8)">
<path style="fill:#EEBE23;fill-opacity:1" d="M32.1,34.35L37.9 34.2L41.75 42.2L40.2 42.25L38.6 42.2L37.4 40.45L36.4 38.25L35.45 36.3L35.45 38.25L35.45 40.25L35.5 42.15L34.45 42.35L33.25 42.25L32.2 42.15L32.1 36.9L32.1 34.35M14.25,35.8L15.05 35.8L15.95 35.8L15.8 34.7L18.35 34.65L19.95 42.25L18.45 42.4L16.9 42.2L16.55 41L16.2 39.6L15.8 38.5L15.25 38.4L14.95 38.4L14.4 38.5L14.1 39.6L13.8 41L13.4 42.25L13.35 42.25L12.45 42.25L10.2 42.25L10.15 42.25L10.15 42.2L10.35 41L10.85 38.5L11.45 34.9L11.5 34.85L14.35 34.75L14.25 35.8M19.9,34.65L23.3 34.6L23.3 34.9L23.35 36.7L23.7 38.05L24.6 38.8L25.55 38.65Q26 38.5 26.25 38.05L26.45 37.3L26.45 36.55L26.5 35.8L27.5 35.85L28.6 35.8L29.6 35.9Q30 37.1 29.8 38.25Q29.6 39.45 28.95 40.35L27.4 41.9Q26.4 42.45 25.15 42.5L23.5 42.5L21.85 42.05L20.6 41.05Q20.1 40.45 20.05 39.5L19.9 37.15L19.9 34.65M0,35.1L8.1 34.9L8.9 35.95L9.5 37.3Q9.7 38.05 9.5 39Q9.25 40.55 8.3 41.3L6 42.25L3.2 42.35L0.55 42.2L0.25 42.2L0.05 42.2L0 35.1M4.1,35.95L3.2 35.9L3 36.95Q2.9 37.55 2.95 38.1L3.3 39.05L3.35 39.1L4.2 39.1L5.1 39L5.85 38.55L6.1 37.75L5.9 36.85L5.55 36.35Q5.25 36.15 5 36.1L4.1 35.95" />
<linearGradient
id="LinearGradID_1006" gradientUnits="userSpaceOnUse" gradientTransform="matrix(0, 0.00450134, -0.00549316, 0, 4.55, 29.65)" spreadMethod ="pad" x1="-819.2" y1="0" x2="819.2" y2="0" >
<stop  offset="0" style="stop-color:#FAED2D;stop-opacity:1" />
<stop  offset="1" style="stop-color:#FFFEF3;stop-opacity:1" />
</linearGradient>
<path style="fill:url(#LinearGradID_1006) " d="M32.1,34.35L32.2 31.7L32.25 26.4L33.75 26.45L35.25 26.45L35.35 29.15L35.35 31.85L35.4 31.85L35.45 31.75L36.5 30.05L37.55 28.2L38.6 26.45L40.2 26.45L41.7 26.5L40.6 29.05L39.15 31.55L37.85 34.15L37.9 34.2L32.1 34.35M15.8,34.7L15.5 32.3Q15.3 31.2 15.1 31.05Q15 30.95 14.85 31.5L14.55 33.25L14.35 34.75L11.5 34.85L12.4 30.75L13.6 26.4L14.05 26.4L14.85 26.4L16.35 26.25L16.65 27.4L17.05 29.15L17.5 31.2L17.95 33L18.25 34.35L18.35 34.65L15.8 34.7M19.9,34.65L19.9 34.2L19.95 30.1L19.95 29.3L20.2 28.6L20.7 27.45L21.4 26.6L22 26.25L22.6 26.1L25.65 25.95Q27.15 26.35 28.2 27.35Q29.3 28.35 29.7 29.75Q30.1 31.1 29.6 32.7L27.95 32.8L26.3 32.65L26.2 31.3L25.9 30.1Q25.55 29.6 24.7 29.6L24.1 29.75Q23.75 29.8 23.55 30L23.5 30.1L23.45 30.3L23.35 31.05L23.3 32.8L23.3 34.6L19.9 34.65M5.6,30.15L4.9 29.85L3.95 29.8L3.15 29.9L3.1 31.2Q3 31.95 3.2 32.75L4.2 32.8L5.15 32.7L5.85 32.05L6.1 31.45Q6.25 31.05 6.05 30.7L5.6 30.15M0,35.1L0 34.4L0 26.6L2.35 26.15Q3.55 26 4.7 26.15Q5.9 26.25 6.85 26.75Q7.8 27.25 8.45 28.3Q9 29.25 9 30.75L8.7 32.65L7.85 34.25L7.8 34.5L8 34.75L8.1 34.9L0 35.1" />
</g>
</svg>
