<?xml version="1.0" encoding="utf-8"?>
<svg version="1.1" id="Layer_1"
xmlns="http://www.w3.org/2000/svg"
xmlns:xlink="http://www.w3.org/1999/xlink"
xmlns:author="http://www.sothink.com"
width="35px" height="35px"
xml:space="preserve">
<g id="1351" transform="matrix(1, 0, 0, 1, 0, 0)">
<path style="fill:#B1552E;fill-opacity:1" d="M16.75,5.35L16.9 5.75L16.85 5.65L16.75 5.35M2.05,5.2L2.6 5.4L2.2 5.35L2.05 5.2M7.45,20.65L7.55 20.5L7.55 20.65L7.45 20.65" />
<path style="fill:#85260B;fill-opacity:1" d="M16.25,10.5L16.25 10.6L16.2 10.6L16.25 10.4L16.25 10.5M16.85,9.15L16.9 9.05L16.9 9.1L16.85 9.15M8.75,0.2L8.5 0.1L8.8 0.2L9.1 0.35L8.75 0.2" />
<path style="fill:#694817;fill-opacity:1" d="M7.6,24.9L6.2 26.3L7.45 26.4Q9.35 26.4 10.65 24.8L10.95 26.05L9.9 26.65Q8.05 27.5 6.5 27.2Q5.65 27.05 4.9 26.55L7 24.15L7.6 22.85Q4.5 23.55 3.75 24.15L2.9 24.75Q2.75 24.75 2.75 23.4L2.75 23.1Q2.7 21.65 4.7 18.85L5.3 18Q4.2 17.8 2.35 16.65L2 16.45L2.35 16.35Q4.6 15.6 8.7 13.05L9.55 12.5Q8.1 11.85 6.5 11.7L3.8 11.75L3.8 11.65L3.9 11.55Q4.9 10.1 6.45 9.35Q2.45 8.55 0.65 5.2L0.2 4.35L0.1 4L0 3.25Q0.25 2.5 0.8 2.5Q6.4 3.8 11.75 3.35L13.1 3.25L12.85 3L12.8 2.95L9.9 0.75L9.65 0.6Q10.5 -0.35 13.6 0.15Q16 0.5 17.7 2.1L18.6 3.15L19.15 3.9Q19.8 4.95 19.9 5.7Q19.55 5.75 19.3 5.9L17.95 3.85L17.6 3.5Q15.35 1.15 11.4 0.75L13.3 2.45L13.7 2.9L14.4 3.65L15.1 4.55Q16.1 5.8 16.65 7.9L16.25 8.5Q15.25 5.7 13.5 3.95L12.15 4.15L11.15 4.2L9.9 4.3Q5.3 4.45 0.95 3.45L2.05 5.2L2.2 5.35Q4.2 7.85 7.25 8.9L11.15 8.6Q13.65 8.75 15.05 9.5L15.6 9.8L15.4 10.3L13.2 9.8L11.7 9.6Q8.5 9.4 5.55 10.7L6.45 10.8L7.75 11.05Q9.55 11.5 11.25 12.45L13.45 14.1Q12.2 15.7 11.45 17.35L10.55 17.6L6.25 18.1Q5.95 18.2 5.4 19.05L4.65 20.4Q3.75 22 3.7 22.95L3.7 23.45L4.8 23Q8.45 22.05 10.7 19.5L10.6 19.8L10.45 20.95L8.5 22.65L8 24.25L7.6 24.9M9.4,13.6Q8.4 14.25 7.35 14.85L5.6 15.75L3.65 16.55L4 16.7L4.6 16.9L7 17.35Q10.5 17.55 12.8 14.95L12.55 14.7L10.3 12.9L9.4 13.6" />
<path style="fill:#D48D01;fill-opacity:1" d="M19.3,5.9Q18.85 6.05 18.45 6.3Q17.45 6.9 16.65 7.9Q16.1 5.8 15.1 4.55L14.4 3.65Q16.25 4.55 16.75 5.35L16.85 5.65L16.9 5.75L16.75 5.35L16.4 4L17.3 4.6L18.05 5.15L18.35 5.15L17.95 3.85L19.3 5.9M15.05,9.5Q13.65 8.75 11.15 8.6L7.25 8.9Q4.2 7.85 2.2 5.35L2.6 5.4L10.85 7.4L10.05 6.75L9.4 6.2L9.55 6.2L13.55 7.15L13.55 7L12.15 4.15L13.5 3.95Q15.25 5.7 16.25 8.5L15.6 9.8L15.05 9.5M15.4,10.3L15.05 11.25L14.5 12.45L13.75 13.65L13.45 14.1L11.25 12.45Q9.55 11.5 7.75 11.05L6.45 10.8L7.85 10.7L8.5 10.7Q11.2 10.8 12.4 11.65L12.4 11.45L11.65 10.4L11.8 10.4Q12.1 10.75 13.55 11.5L13.55 11.45L13.25 10.25L13.2 9.8L15.4 10.3M5.9,20.65L5.9 20.45Q6.1 20.25 6.85 19.85L7.7 19.25L7.55 19.25L5.8 19.15L5.4 19.05Q5.95 18.2 6.25 18.1L10.55 17.6L11.45 17.35L10.7 19.5Q8.45 22.05 4.8 23L3.7 23.45L3.7 22.95L4.2 22.7Q6.8 21.4 7.45 20.65L5.9 20.65M10.45,20.95Q10.25 22.75 10.65 24.8Q9.35 26.4 7.45 26.4L9.05 24.65L9.05 23.9Q8.8 24.25 8 24.25L8.5 22.65L10.45 20.95M10.3,12.9L12.55 14.7L12.8 14.95Q10.5 17.55 7 17.35L4.6 16.9L5.15 16.9L5.9 16.9L8.05 16.65L9.55 16.25L9.4 16.25L7.15 15.95L7.25 15.8L10.85 14.9L9.4 13.6L10.3 12.9M7.55,20.65L7.55 20.5L7.45 20.65L7.55 20.65" />
<path style="fill:#FED009;fill-opacity:1" d="M17.95,3.85L18.35 5.15L18.05 5.15L17.3 4.6L16.4 4L16.75 5.35Q16.25 4.55 14.4 3.65L13.7 2.9L13.55 2.15Q14.1 2.15 16.4 3L17.6 3.5L17.95 3.85M5,5.45L3.65 4.7L3.8 4.7L6.35 4.8L9.9 4.3L11.15 4.2L12.15 4.15L13.55 7L13.55 7.15L9.55 6.2L9.4 6.2L10.05 6.75L10.85 7.4L2.6 5.4L5 5.45M11.7,9.6L13.2 9.8L13.25 10.25L13.55 11.45L13.55 11.5Q12.1 10.75 11.8 10.4L11.65 10.4L12.4 11.45L12.4 11.65Q11.2 10.8 8.5 10.7L11.7 9.6M9.4,13.6L10.85 14.9L7.25 15.8L7.15 15.95L9.4 16.25L9.55 16.25L8.05 16.65L5.9 16.9L5.3 16.25L6.85 15.3L7.35 14.85Q8.4 14.25 9.4 13.6M7.45,20.65Q6.8 21.4 4.2 22.7L3.7 22.95Q3.75 22 4.65 20.4L5.4 19.05L5.8 19.15L7.55 19.25L7.7 19.25L6.85 19.85Q6.1 20.25 5.9 20.45L5.9 20.65L7.45 20.65M8,24.25Q8.8 24.25 9.05 23.9L9.05 24.65L7.45 26.4L6.2 26.3L7.6 24.9L8 24.25" />
<path style="fill:#FBF734;fill-opacity:1" d="M17.6,3.5L16.4 3Q14.1 2.15 13.55 2.15L13.7 2.9L13.3 2.45L11.4 0.75Q15.35 1.15 17.6 3.5M8.5,10.7L7.85 10.7L6.45 10.8L5.55 10.7Q8.5 9.4 11.7 9.6L8.5 10.7M9.9,4.3L6.35 4.8L3.8 4.7L3.65 4.7L5 5.45L2.6 5.4L2.05 5.2L0.95 3.45Q5.3 4.45 9.9 4.3M5.15,16.9L4.6 16.9L4 16.7L3.65 16.55L5.6 15.75L7.35 14.85L6.85 15.3L5.3 16.25L5.9 16.9L5.15 16.9" />
<path style="fill:#E9CB9E;fill-opacity:1" d="M18,26.2Q19.95 21.7 23.8 22.25Q22.9 20.8 22.9 20Q22.9 18.3 25 17.1Q26.1 16.5 27.55 16L27.95 16.55L29.8 18.15Q31.05 19.05 32.4 19.45Q31.15 21.45 28.05 22.8L27.9 22.85Q23.85 24.5 22.55 25.7Q20.6 27.7 17.7 28.15L17.25 28.2L18 26.2" />
<path style="fill:#C4944D;fill-opacity:1" d="M16.25,10.4L16.75 9.4L16.85 9.15L16.9 9.1L16.9 9.05Q17.45 8.15 18.7 7.4Q20.15 6.5 23 6.1Q25.8 5.7 30.05 8.75L30.3 9L31.15 9.85L32.7 12.5L32.8 12.7Q33.5 14.35 33.3 16.55L33 18L32.7 18.85L32.4 19.45Q31.05 19.05 29.8 18.15L27.95 16.55L27.55 16Q26.1 16.5 25 17.1Q22.9 18.3 22.9 20Q22.9 20.8 23.8 22.25Q19.95 21.7 18 26.2L17.25 28.2Q14.6 28.5 12.9 27.45Q11.9 26.8 11.5 25.35L11.25 24.05Q11.15 23.3 11.2 22.4Q11.35 18.8 12.85 16.5L13.15 16.05L13.25 15.85L13.5 15.55L14 14.8L15.55 12.05L16.2 10.6L16.25 10.6L16.25 10.5L16.25 10.4" />
<path style="fill:#543914;fill-opacity:1" d="M10.65,24.8Q10.25 22.75 10.45 20.95L10.6 19.8L10.7 19.5L11.45 17.35Q12.2 15.7 13.45 14.1L13.75 13.65L14.5 12.45L15.05 11.25L15.4 10.3L15.6 9.8L16.25 8.5L16.65 7.9Q17.45 6.9 18.45 6.3Q18.85 6.05 19.3 5.9Q19.55 5.75 19.9 5.7Q21.8 5.05 24.6 5.25Q26.4 5.45 28.05 6.3Q29.7 7.1 31.1 8.45L32.7 10.35Q33.6 11.75 34 13.55Q34.4 15.15 34.3 16.55Q34.2 18.25 33.4 19.65L32.7 20.65Q31.65 21.85 29.95 22.8L27.9 23.8L26.95 24.25Q24.4 25.4 23.2 26.5Q21.95 27.6 19.35 28.65L17 29.2L14.05 28.85Q11.6 28.1 11.05 26.4L10.95 26.05L10.65 24.8M16.85,9.15L16.75 9.4L16.25 10.4L16.2 10.6L15.55 12.05L14 14.8L13.5 15.55L13.25 15.85L13.15 16.05L12.85 16.5Q11.35 18.8 11.2 22.4Q11.15 23.3 11.25 24.05L11.5 25.35Q11.9 26.8 12.9 27.45Q14.6 28.5 17.25 28.2L17.7 28.15Q20.6 27.7 22.55 25.7Q23.85 24.5 27.9 22.85L28.05 22.8Q31.15 21.45 32.4 19.45L32.7 18.85L33 18L33.3 16.55Q33.5 14.35 32.8 12.7L32.7 12.5L31.15 9.85L30.3 9L30.05 8.75Q25.8 5.7 23 6.1Q20.15 6.5 18.7 7.4Q17.45 8.15 16.9 9.05L16.85 9.15" />
<path style="fill:#745416;fill-opacity:1" d="M9.1,34.2L9.15 34.15L9.1 34.2" />
<path style="fill:#301D16;fill-opacity:1" d="M19,24.8L17.8 24.55L19.35 23.65L24.45 24.45Q26.55 24.55 26.4 25.3Q26.2 26.05 23.95 27.8L24.2 27.65Q23.2 28.45 22.95 29.8L22.55 31.2L21.5 30.45L21.65 29.85Q21.9 28.35 24.6 26.05L24.85 25.6L19 24.8" />
<path style="fill:#7F5C46;fill-opacity:1" d="M19,24.8Q19.35 25.15 20.8 25.5Q22.7 25.9 22.7 26.3L22.2 26.95L21.6 28L22.1 27.65L22.1 27.7Q21.75 27.85 21.45 28.35Q21.05 28.95 21.05 29.7L21.05 30.05L19.85 28.65L19.3 29.15L19.05 29.15L18.8 27.55L18.75 27.65L18.1 28.65L17.6 29.3L17.55 29.25L17.4 28.6L17.05 28.3L16.15 28.7L15.55 28.7L15.55 28.25L11.3 30.45L11.3 29.45Q11.5 25.8 12.35 25.3L12.75 26L13.75 26.65L14.25 26.25L14.55 25.65L15.45 25.9L16.45 26.15Q16.8 26.15 17.3 25.25L17.8 24.55L19 24.8" />
<path style="fill:#B47F60;fill-opacity:1" d="M21.05,30.05L21.05 29.7Q21.05 28.95 21.45 28.35Q21.75 27.85 22.1 27.7L22.1 27.65L21.6 28L22.2 26.95L22.7 26.3Q22.7 25.9 20.8 25.5Q19.35 25.15 19 24.8L24.85 25.6L24.6 26.05Q21.9 28.35 21.65 29.85L21.5 30.45L21.05 30.05" />
<path style="fill:#57351A;fill-opacity:1" d="M21.5,30.45L21.4 31.1L21.3 31.55Q18.75 29.8 18.2 30.4L17.25 30.95L16.55 30.1L15.85 29.55Q13.6 30.05 12 31.5L11.4 30.95Q10.15 31.4 9.55 32.55L9.1 30.4Q8.65 29.05 9.05 26.05L10.05 19.95Q12.8 22.85 17.25 23.35L17.1 23.65L16.5 24.25L17.8 24.55L17.3 25.25Q16.8 26.15 16.45 26.15L15.45 25.9L14.55 25.65L14.25 26.25L13.75 26.65L12.75 26L12.35 25.3Q11.5 25.8 11.3 29.45L11.3 30.45L15.55 28.25L15.55 28.7L16.15 28.7L17.05 28.3L17.4 28.6L17.55 29.25L17.6 29.3L18.1 28.65L18.75 27.65L18.8 27.55L19.05 29.15L19.3 29.15L19.85 28.65L21.05 30.05L21.5 30.45" />
<path style="fill:#271711;fill-opacity:1" d="M17.8,24.55L16.5 24.25L17.1 23.65L17.25 23.35Q12.8 22.85 10.05 19.95L9.05 26.05Q8.65 29.05 9.1 30.4L9.55 32.55Q10.15 31.4 11.4 30.95L12 31.5Q13.6 30.05 15.85 29.55L16.55 30.1L17.25 30.95L18.2 30.4Q18.75 29.8 21.3 31.55L21.4 31.1L21.5 30.45L22.55 31.2Q22.1 32.25 21.45 32.65Q20 31.35 18.85 31.25L17.6 31.9Q16.75 32.15 15.7 30.6L15.15 30.95L13.35 31.8L11.9 32.85Q11.7 33.2 11.35 32.7L10.9 32.35Q10.35 33.3 9.05 34.05Q8.9 34.05 8.85 33.9Q6.9 26.75 9.45 19.4L9.5 19.3L9.7 19.2Q9.9 18.95 10.25 19.05Q14.3 22.35 19.2 22.7Q19.65 23.45 19.35 23.65L17.8 24.55" />
</g>
</svg>
