<?xml version="1.0" encoding="utf-8"?>
<svg version="1.1" id="Layer_1"
xmlns="http://www.w3.org/2000/svg"
xmlns:xlink="http://www.w3.org/1999/xlink"
xmlns:author="http://www.sothink.com"
width="19px" height="17px"
xml:space="preserve">
<g id="1619" transform="matrix(1, 0, 0, 1, 1.95, -7.75)">
<path style="fill:#171710;fill-opacity:1" d="M2.8,9.85Q-2.15 13.8 -1.25 20.3Q-0.95 22.5 0.5 23.4L3.5 22.9Q6.05 22.65 9.3 22.95L14.15 23.8L15.1 22.85Q16.15 19.3 15.5 15.65Q14.95 12.5 12.4 10.55Q8.2 7.35 3.6 9.35L2.8 9.85M9.35,8.25Q15.6 10.5 16.3 16.9L16.4 19.9Q16.3 22.25 14.85 24.6L12.75 24.2L8.3 23.65L3.2 23.8L0.65 24.15L0.05 24.25L0.05 24.2L0.4 24Q-1.25 23.3 -1.65 21.45Q-2.9 15.2 1.15 10.45L2.4 9.3Q5.45 6.9 9.35 8.25" />
<path style="fill:#38382E;fill-opacity:1" d="M3.6,9.35Q8.2 7.35 12.4 10.55Q14.95 12.5 15.5 15.65Q16.15 19.3 15.1 22.85L14.15 23.8L9.3 22.95Q6.05 22.65 3.5 22.9L0.5 23.4Q-0.95 22.5 -1.25 20.3Q-2.15 13.8 2.8 9.85L3.6 9.35" />
</g>
</svg>
