<?xml version="1.0" encoding="utf-8"?>
<svg version="1.1" id="Layer_1"
xmlns="http://www.w3.org/2000/svg"
xmlns:xlink="http://www.w3.org/1999/xlink"
xmlns:author="http://www.sothink.com"
width="29px" height="41px"
xml:space="preserve">
<g id="863" transform="matrix(1, 0, 0, 1, 0.4, 0.95)">
<path style="fill:#FFCC00;fill-opacity:1" d="M25.7,31.7L25.85 30.45L26.1 28.5L25.55 25.45Q24.35 22.85 24.15 21.85Q23.15 20 20.9 18.2Q18.4 16.45 18.2 15.65Q18.4 16.45 17.2 18.8Q15.7 21.35 13.95 23.15Q15.25 19.8 12.35 16.25Q10.05 12.25 10.3 10.3L9.15 12.1L8.6 14.55L8.15 18.25Q7.75 21.4 5 24.05Q2.25 26.7 2.05 28.65Q1.85 30.1 2.35 31.2Q2.3 31.45 2.6 31.7Q0.6 30.5 -0.35 28.15Q-0.5 27.1 -0.15 26.45Q1.35 21.65 4 17.25Q4.8 15.8 3.7 14.7Q2.1 12.8 3.85 11Q8.4 5.6 9.15 -0.75L9.45 -0.7L9.5 -0.95L10.1 -0.9Q12.4 0.35 14.25 2.8Q15.3 4.15 15.95 6.25Q16.55 8.8 15.65 11.4L16.2 11.75L16.5 11.75Q17.85 10.9 18.25 10Q19.3 8.6 20.7 7.3L22.5 7.25Q21.3 12.35 26.3 16.65Q27.4 17.5 27.5 19Q29.4 23.7 27.3 28.65L27.25 28.9L25.7 31.7M22.5,2.3L21.4 1.4Q20.8 1.35 20.55 0.85Q20.5 1.3 20.8 1.35Q20.75 1.6 21.65 1.95Q21.6 2.2 21.9 2.2L22.5 2.3M22.35,3.75Q19.9 3.7 19.25 1.65Q19.1 0.15 20.4 -0.7Q22.15 0 23.75 1.95Q25.25 4.6 22.6 4L22.35 3.75M21.1,16.75L20.8 16.75L20.7 17.5L21 17.7L21.9 17.85L21.9 17.65L22.2 17.65L22.25 17.4Q21.95 17.4 22 16.9Q21.4 16.8 21.4 16.55L21.1 16.75M14.8,15.8Q15.85 14.65 14.7 14.3L13.8 14.2L13.75 14.4Q13.45 14.6 13.65 15.4Q14.45 16.5 14.8 15.8" />
<path style="fill:#FF580D;fill-opacity:1" d="M21.9,2.2Q21.6 2.2 21.65 1.95Q20.75 1.6 20.8 1.35Q20.5 1.3 20.55 0.85Q20.8 1.35 21.4 1.4L22.5 2.3L21.9 2.2" />
<path style="fill:#FAED2D;fill-opacity:1" d="M25,35.1L23.6 36.7Q15.5 40.9 7.2 36.5Q4.9 35.2 3.35 33.05L2.55 31.95L2.6 31.7Q2.3 31.45 2.35 31.2Q1.85 30.1 2.05 28.65Q2.25 26.7 5 24.05Q7.75 21.4 8.15 18.25L8.6 14.55L9.15 12.1L10.3 10.3Q10.05 12.25 12.35 16.25Q15.25 19.8 13.95 23.15Q15.7 21.35 17.2 18.8Q18.4 16.45 18.2 15.65Q18.4 16.45 20.9 18.2Q23.15 20 24.15 21.85Q24.35 22.85 25.55 25.45L26.1 28.5L25.85 30.45L25.7 31.7L25 35.1M21.4,16.55Q21.4 16.8 22 16.9Q21.95 17.4 22.25 17.4L22.2 17.65L21.9 17.65L21.9 17.85L21 17.7L20.7 17.5L20.8 16.75L21.1 16.75L21.4 16.55M13.65,15.4Q13.45 14.6 13.75 14.4L13.8 14.2L14.7 14.3Q15.85 14.65 14.8 15.8Q14.45 16.5 13.65 15.4" />
<path style="fill:#C43B0D;fill-opacity:1" d="M25.7,31.7L27.25 28.9L27.45 29.7Q27.95 35.95 22.45 38.8Q21.15 39.6 19.6 39.65Q6.6 41.65 0.45 31.75Q-0.55 29.85 -0.35 28.15Q0.6 30.5 2.6 31.7L2.55 31.95L3.35 33.05Q4.9 35.2 7.2 36.5Q15.5 40.9 23.6 36.7L25 35.1L25.7 31.7" />
</g>
</svg>
