<?xml version="1.0" encoding="utf-8"?>
<svg version="1.1" id="Layer_1"
xmlns="http://www.w3.org/2000/svg"
xmlns:xlink="http://www.w3.org/1999/xlink"
xmlns:author="http://www.sothink.com"
width="20px" height="25px"
xml:space="preserve">
<g id="312" transform="matrix(1, 0, 0, 1, 0, 0)">
<path style="fill:#5A2D41;fill-opacity:1" d="M16.2,12.4L13.05 12.5L10.1 12.25L9.4 12L9.2 13.05L9 15.5L9.2 19.25L7.7 19.1Q2.9 18.5 2 16.95Q1.25 15.1 1.3 12.05Q1.35 8.95 2.25 6.95Q3.15 4.9 4.55 3.6Q5.9 2.25 9.95 1.3L13.55 1.2L15.95 1.8Q17.55 2.3 18.1 3.5Q18.65 4.65 18.5 5.35L17.95 7.45Q17.55 8.85 17.55 11.45L17.55 12.1L16.2 12.4M1.4,21.75Q0.3 19.5 1.7 18.25Q2 19.05 6.45 19.95L9.4 20.35L13.45 20.1Q16 19.35 17.2 18.4Q17.5 18.6 17.1 20.45Q16.65 22.25 13.95 23.3Q11.25 24.3 8.85 24.25Q6.45 24.15 4.35 23.5Q2.25 22.8 1.4 21.75" />
<path style="fill:#3C1929;fill-opacity:1" d="M19.3,3.4Q20.2 5 19.4 7.55Q18.65 9.9 18.7 11.65L18.7 12.05L18.6 15.55Q18.35 17.15 17.9 17.75Q18.85 22 15.15 23.6Q11.45 25.2 8.1 25Q4.7 24.75 3.4 24.2Q2.1 23.65 1.2 22.95Q0.25 22.2 0.05 20.5Q-0.2 18.8 0.9 17.8Q-0.1 14.5 0.45 10.4Q0.95 6.3 1.95 4.65Q2.9 3 4.75 1.85Q6.6 0.65 9.2 0.3L12.3 0L12.65 0L14.4 0.2Q16.2 0.4 17.3 1.1Q18.4 1.75 19.3 3.4M14.75,18.55Q17 17.35 17.3 15.7L17.55 12.1L17.55 11.45Q17.55 8.85 17.95 7.45L18.5 5.35Q18.65 4.65 18.1 3.5Q17.55 2.3 15.95 1.8L13.55 1.2L9.95 1.3Q5.9 2.25 4.55 3.6Q3.15 4.9 2.25 6.95Q1.35 8.95 1.3 12.05Q1.25 15.1 2 16.95Q2.9 18.5 7.7 19.1L9.2 19.25Q12.85 19.5 14.75 18.55M4.35,23.5Q6.45 24.15 8.85 24.25Q11.25 24.3 13.95 23.3Q16.65 22.25 17.1 20.45Q17.5 18.6 17.2 18.4Q16 19.35 13.45 20.1L9.4 20.35L6.45 19.95Q2 19.05 1.7 18.25Q0.3 19.5 1.4 21.75Q2.25 22.8 4.35 23.5" />
<path style="fill:#83414D;fill-opacity:1" d="M9.2,19.25L9 15.5L9.2 13.05L9.4 12L10.1 12.25L13.05 12.5L16.2 12.4L17.55 12.1L17.3 15.7Q17 17.35 14.75 18.55Q12.85 19.5 9.2 19.25" />
</g>
</svg>
