<?xml version="1.0" encoding="utf-8"?>
<svg version="1.1" id="Layer_1"
xmlns="http://www.w3.org/2000/svg"
xmlns:xlink="http://www.w3.org/1999/xlink"
xmlns:author="http://www.sothink.com"
width="39px" height="41px"
xml:space="preserve">
<g id="206" transform="matrix(1, 0, 0, 1, 2.9, 0.3)">
<path style="fill:#5F4929;fill-opacity:1" d="M18.8,16.45Q17.25 19.1 14.85 21.75L14.5 22.1Q11.85 24.8 7.1 25.95L6.7 26.6L6.35 25.3L6.8 24.75Q12.3 23.65 15.85 19.1L17.65 16.25Q17.05 15.2 17.15 14.1L18.05 13.1L18.85 12.3L19.6 11.4L20.4 10.75L20.55 10.6L21.2 10.05L22.1 9.4L22.55 9.6L23.3 10.05L23.4 10.15Q24 10.5 24.6 11L25.55 11.85L25.95 12.35L26.95 13.45L27.65 14.45L27.35 15L27.15 15.4L26.75 15.95L26.65 16.1L25.5 17.6L25.45 17.65L24.7 18.45L23.4 19.75L21.2 19.5Q14.5 23.9 13.75 31L13.45 31.35L12.25 31.1L12.55 30.9Q13.25 26.05 15.7 23.15Q18.1 20.4 20.65 18.55L20.9 18.4L21.85 18.5L23.3 18.65L24.1 17.55L24.7 16.65L26 14.95L26.2 14.75L25.7 14.15L25.65 14.05L25.55 13.95L24.45 12.7L23.1 11.55L22.45 11.2L22.15 11L22 10.9L21.5 11.4L20.25 12.5L19.85 12.85L19 13.55L18.3 14.1L18.7 15.85L18.8 16.45M3.85,29.7L3.65 29.9L3.55 30L3.2 30.45L4.05 33.05L4.55 34.15L5.25 34.35Q5.85 34.3 8.4 35.15L9.1 34.45Q10.2 33 11.25 31.95L12.6 32.2Q9.2 35.7 8.55 36.5L6.35 36.1L3.9 35.25L3.5 35Q2.85 34 2.45 32.65L1.95 31.1L1.8 30.4L3.05 29.1L5.5 26.35L5.85 27.7L3.85 29.7" />
<path style="fill:#836130;fill-opacity:1" d="M10.2,30.75L10.45 29.95Q10.4 29.5 10.5 29L11.7 26.8L11.8 26.45L12.65 25.35L14.45 23.35L16.7 21.1L19.45 18.05Q20.15 17.1 20.75 16.85L21.3 16.7L22.05 16.6L23.15 16.55Q23.65 16.55 24.65 15.45L25.55 14L25.55 13.95L25.65 14.05L25.7 14.15L26.2 14.75L26 14.95L24.7 16.65L24.1 17.55L23.3 18.65L21.85 18.5L20.9 18.4L20.65 18.55Q18.1 20.4 15.7 23.15Q13.25 26.05 12.55 30.9L12.25 31.1L10.2 30.75M4.6,31.4Q5 32.85 7.15 33.9L9.4 31.65L11.25 31.95Q10.2 33 9.1 34.45L8.4 35.15Q5.85 34.3 5.25 34.35L4.55 34.15L4.05 33.05L3.2 30.45L3.55 30L3.65 29.9L3.7 29.9L4.6 31.4" />
<path style="fill:#AE8240;fill-opacity:1" d="M9.7,30.25L9.7 30.2Q8.45 28.65 8 28.45L7.4 28.35L7.15 28.45L6.9 27.4Q8.2 26.5 9.65 25.85Q12.3 24.65 13.5 23.5L14.85 21.75Q17.25 19.1 18.8 16.45L18.7 15.85L18.85 14.95L19.1 14.2L19.65 13.7L20.55 13.1L20.75 12.9L21.85 12.25L21.55 13.35L20.75 16.85Q20.15 17.1 19.45 18.05L16.7 21.1L14.45 23.35L12.65 25.35L11.8 26.45L11.7 26.8L10.5 29Q10.4 29.5 10.45 29.95L10.2 30.75L9.85 30.7L9.7 30.25M24.65,15.45Q23.65 16.55 23.15 16.55L22.05 16.6L22.85 12.4L22.85 12.35Q23.9 12.8 25.55 14L24.65 15.45M4.55,30.9L4.6 31.4L3.7 29.9L5.95 28.1L6.25 29.15L4.55 30.9" />
<path style="fill:#E0AE62;fill-opacity:1" d="M25.55,14Q23.9 12.8 22.85 12.35L22.85 12.4L22.05 16.6L21.3 16.7L20.75 16.85L21.55 13.35L21.85 12.25L20.75 12.9L20.55 13.1L19.65 13.7L19.1 14.2L18.85 14.95L18.7 15.85L18.3 14.1L19 13.55L19.85 12.85L20.25 12.5L21.5 11.4L22 10.9L22.15 11L22.45 11.2L23.1 11.55L24.45 12.7L25.55 13.95L25.55 14M6.9,27.4L6.7 26.6L7.1 25.95Q11.85 24.8 14.5 22.1L14.85 21.75L13.5 23.5Q12.3 24.65 9.65 25.85Q8.2 26.5 6.9 27.4M3.7,29.9L3.65 29.9L3.85 29.7L5.85 27.7L5.95 28.1L3.7 29.9" />
<path style="fill:#504038;fill-opacity:1" d="M25.35,33.7L31.5 34.65Q31 32.35 29.5 27.8Q28.1 23.3 24.7 18.45L25.45 17.65Q31.05 25.25 32.9 37.1Q34.3 36.75 34.45 36.1L34.4 35.05L34.3 33.75Q33.35 24.75 27.55 16.95L26.75 15.95L27.15 15.4L27.35 15L28 15.9L28.05 15.95Q33.9 24 35.5 34.2L35.5 34.85L35.5 35.6Q35.5 36.2 35.1 36.8L34.3 37.65Q33.15 38.7 32.15 38.25L31.65 35.4L30.2 35.2L26.05 34.55L12.6 32.2L11.25 31.95L9.4 31.65L9.85 31.2L9.9 31.1L9.85 30.7L10.2 30.75L12.25 31.1L13.45 31.35L25.35 33.7M19.9,10.45Q13.75 6.9 7.35 5.95Q3.25 5.3 -0.9 5.75L-1.25 6.1Q-1.55 6.5 -1.65 7.35L1.25 7.5L1.65 7.55Q11.55 8.25 18.7 12.2L18.85 12.3L18.05 13.1Q12.7 10.3 8.05 9.5L2 8.55L6.35 25.3L6.7 26.6L6.9 27.4L7.15 28.45L6.8 28.6L6.25 29.15L5.95 28.1L5.85 27.7L5.5 26.35L4.45 22.1L2.15 13.05L1 8.55L0.4 8.45L-2.7 8.3Q-3.25 7.4 -2.4 6.1Q-1.6 4.75 -0.55 4.6L0.9 4.5Q11.8 4.7 21 9.9L21.2 10.05L20.55 10.6L20.4 10.75L19.9 10.45" />
<path style="fill:#1F2C31;fill-opacity:1" d="M6.25,29.15L6.8 28.6L7.15 28.45L7.4 28.35L8 28.45Q8.45 28.65 9.7 30.2L9.7 30.25L9.85 30.7L9.9 31.1L9.85 31.2L9.4 31.65L7.15 33.9Q5 32.85 4.6 31.4L4.55 30.9L6.25 29.15M8.6,30.75L7.3 29.45L5.9 31L5.55 31.35Q5.85 31.95 6.45 32.4L7 32.8L7.25 32.45L8.2 31.45L8.25 31.4L8.75 30.9L8.6 30.75" />
<path style="fill:#4A5662;fill-opacity:1" d="M8.75,30.9L8.25 31.4L8.2 31.45L7.25 32.45L7 32.8L6.45 32.4Q5.85 31.95 5.55 31.35L5.9 31L6 31.1L7.1 32.15L8.1 31.2L8.6 30.75L8.75 30.9" />
<path style="fill:#A8ACAB;fill-opacity:1" d="M5.9,31L7.3 29.45L8.6 30.75L8.1 31.2L7.2 30.4L6.8 30.7L6 31.1L5.9 31" />
<path style="fill:#76838C;fill-opacity:1" d="M7.1,32.15L6 31.1L6.8 30.7L7.2 30.4L8.1 31.2L7.1 32.15" />
<linearGradient
id="LinearGradID_464" gradientUnits="userSpaceOnUse" gradientTransform="matrix(-0.00210571, -0.0121765, 0.00361633, -0.00062561, 30.4, 28.75)" spreadMethod ="pad" x1="-819.2" y1="0" x2="819.2" y2="0" >
<stop  offset="0.00392157" style="stop-color:#7B6053;stop-opacity:1" />
<stop  offset="1" style="stop-color:#A89486;stop-opacity:1" />
</linearGradient>
<path style="fill:url(#LinearGradID_464) " d="M34.4,35.05L34.45 36.1Q34.3 36.75 32.9 37.1Q31.05 25.25 25.45 17.65L25.5 17.6L26.65 16.1L26.75 15.95L27.55 16.95L26.8 17.9L26.85 17.95Q27.6 18.65 28.95 21.65L31.25 26.95L32.45 31.7Q33.25 35.05 33.75 35.05L34.4 35.05" />
<linearGradient
id="LinearGradID_465" gradientUnits="userSpaceOnUse" gradientTransform="matrix(-0.00210571, -0.0121765, 0.00361633, -0.00062561, 30.4, 28.75)" spreadMethod ="pad" x1="-819.2" y1="0" x2="819.2" y2="0" >
<stop  offset="0.00392157" style="stop-color:#BDA498;stop-opacity:1" />
<stop  offset="1" style="stop-color:#ECE4DF;stop-opacity:1" />
</linearGradient>
<path style="fill:url(#LinearGradID_465) " d="M32.15,27Q31 23.75 29.8 21.6L28.05 18.75Q27.55 18.1 26.85 17.95L26.8 17.9L27.55 16.95Q33.35 24.75 34.3 33.75L32.15 27" />
<linearGradient
id="LinearGradID_466" gradientUnits="userSpaceOnUse" gradientTransform="matrix(-0.00210571, -0.0121765, 0.00361633, -0.00062561, 30.4, 28.75)" spreadMethod ="pad" x1="-819.2" y1="0" x2="819.2" y2="0" >
<stop  offset="0.00392157" style="stop-color:#917162;stop-opacity:1" />
<stop  offset="1" style="stop-color:#C2AEA0;stop-opacity:1" />
</linearGradient>
<path style="fill:url(#LinearGradID_466) " d="M33.75,35.05Q33.25 35.05 32.45 31.7L31.25 26.95L28.95 21.65Q27.6 18.65 26.85 17.95Q27.55 18.1 28.05 18.75L29.8 21.6Q31 23.75 32.15 27L34.3 33.75L34.4 35.05L33.75 35.05" />
<linearGradient
id="LinearGradID_467" gradientUnits="userSpaceOnUse" gradientTransform="matrix(0.011795, -0.00140381, 0.00062561, 0.0052948, 6, 9.35)" spreadMethod ="pad" x1="-819.2" y1="0" x2="819.2" y2="0" >
<stop  offset="0.00392157" style="stop-color:#7B6053;stop-opacity:1" />
<stop  offset="1" style="stop-color:#A89486;stop-opacity:1" />
</linearGradient>
<path style="fill:url(#LinearGradID_467) " d="M20.4,10.75L19.6 11.4L18.85 12.3L18.7 12.2Q11.55 8.25 1.65 7.55L1.25 7.5L-1.65 7.35Q-1.55 6.5 -1.25 6.1Q-1.05 6.65 -0.65 6.65L1.35 6.5Q5.45 6.5 10.35 7.75Q15.3 9.1 19.15 11.2L19.35 11Q19.55 10.65 19.9 10.45L20.4 10.75" />
<linearGradient
id="LinearGradID_468" gradientUnits="userSpaceOnUse" gradientTransform="matrix(0.011795, -0.00140381, 0.00062561, 0.0052948, 6, 9.35)" spreadMethod ="pad" x1="-819.2" y1="0" x2="819.2" y2="0" >
<stop  offset="0.00392157" style="stop-color:#917162;stop-opacity:1" />
<stop  offset="1" style="stop-color:#C2AEA0;stop-opacity:1" />
</linearGradient>
<path style="fill:url(#LinearGradID_468) " d="M-0.9,5.75Q3.25 5.3 7.35 5.95L8.3 6.2L12.45 7.7Q14.45 8.2 16.9 9.5Q18.35 10.15 18.65 10.35L19.35 11L19.15 11.2Q15.3 9.1 10.35 7.75Q5.45 6.5 1.35 6.5L-0.65 6.65Q-1.05 6.65 -1.25 6.1L-0.9 5.75" />
<linearGradient
id="LinearGradID_469" gradientUnits="userSpaceOnUse" gradientTransform="matrix(0.011795, -0.00140381, 0.00062561, 0.0052948, 6, 9.35)" spreadMethod ="pad" x1="-819.2" y1="0" x2="819.2" y2="0" >
<stop  offset="0.00392157" style="stop-color:#BDA498;stop-opacity:1" />
<stop  offset="1" style="stop-color:#ECE4DF;stop-opacity:1" />
</linearGradient>
<path style="fill:url(#LinearGradID_469) " d="M19.9,10.45Q19.55 10.65 19.35 11L18.65 10.35Q18.35 10.15 16.9 9.5Q14.45 8.2 12.45 7.7L8.3 6.2L7.35 5.95Q13.75 6.9 19.9 10.45" />
<path style="fill:#66523D;fill-opacity:1" d="M30.1,6.65L30.6 6.8L6.9 31.9L6.9 31.7L6.85 31.55L30.1 6.65" />
<path style="fill:#35281A;fill-opacity:1" d="M6.1,31.1L5.4 30.95L5.25 30.85L29.25 5.4L29.65 6L6.1 31.1M30.6,6.8L31.3 7.2L31.3 7.3L7.2 32.75L6.9 31.9L30.6 6.8" />
<path style="fill:#B4997D;fill-opacity:1" d="M6.85,31.55L6.8 31.2L6.1 31.1L29.65 6L29.75 6.15L30 6.35L30 6.5L30.1 6.65L6.85 31.55" />
<path style="fill:none;stroke-width:0.5;stroke-linecap:round;stroke-linejoin:round;stroke-miterlimit:3;stroke:#4B5D69;stroke-opacity:1" d="M29.25,5.4L29.65 6M30.6,6.8L31.3 7.2L31.3 7.3M7.2,32.75L6.9 31.9M6.1,31.1L5.4 30.95L5.25 30.85" />
<path style="fill:none;stroke-width:0.5;stroke-linecap:round;stroke-linejoin:round;stroke-miterlimit:3;stroke:#35281A;stroke-opacity:1" d="M31.3,7.3L7.2 32.75M5.25,30.85L29.25 5.4" />
<path style="fill:#4B5D69;fill-opacity:1" d="M34.8,1.1L34.85 0.9L33.95 1.05L31.95 1.75L31.85 1.85L30.15 2.55L29.45 2.8L27.85 3.45L28.45 4.55L29.6 6.55L29.75 6.5L29.25 7L29.05 6.8L29 6.65L28.5 6.05L27.95 5.05L27.15 3.6L26.9 3L28.4 2.4L29.2 2.15L29.9 1.9Q30.2 1.7 30.8 1.55L31.7 1.3L33.65 0.6Q35.25 0.05 35.45 0.25L35.5 0.35L34.8 1.1" />
<path style="fill:#323F46;fill-opacity:1" d="M34.8,1.1L35.5 0.35L35.45 0.65L35.5 0.8L35.05 3.05L34.5 4.85L33.15 8.7L33.05 8.95L32.85 8.9L30.7 7.85L30.5 7.8L29.85 7.5L29.4 7.25L29.3 7.15L29.25 7L29.75 6.5L31.2 7.35L32.7 8L33.85 4.5L34.65 2.25L34.8 1.55L34.8 1.1" />
<path style="fill:#CED7DB;fill-opacity:1" d="M30.75,5.45L29.75 6.5L29.6 6.55L28.45 4.55L27.85 3.45L29.45 2.8L30.75 5.45M30.15,2.55L31.85 1.85L31.95 1.75L32.7 3.35L31.3 4.85L30.15 2.55M33.95,1.05L34.85 0.9L34.8 1.1L34.25 1.7L33.95 1.05" />
<path style="fill:#FFFFFF;fill-opacity:1" d="M29.45,2.8L30.15 2.55L31.3 4.85L30.75 5.45L29.45 2.8M31.95,1.75L33.95 1.05L34.25 1.7L32.7 3.35L31.95 1.75" />
<path style="fill:#556670;fill-opacity:1" d="M34.8,1.55L34.65 2.25L33.85 4.5L32.7 8L31.2 7.35L29.75 6.5L30.75 5.45L31.3 4.85L32.7 3.35L34.25 1.7L34.8 1.1L34.8 1.55" />
<path style="fill:none;stroke-width:1;stroke-linecap:round;stroke-linejoin:round;stroke-miterlimit:3;stroke:#4B5D69;stroke-opacity:1" d="M29.25,7L29.05 6.8L29 6.65L28.5 6.05L27.95 5.05L27.15 3.6L26.9 3L28.4 2.4L29.2 2.15L29.9 1.9Q30.2 1.7 30.8 1.55L31.7 1.3L33.65 0.6Q35.25 0.05 35.45 0.25L35.5 0.35" />
<path style="fill:none;stroke-width:1;stroke-linecap:round;stroke-linejoin:round;stroke-miterlimit:3;stroke:#323F46;stroke-opacity:1" d="M35.5,0.35L35.45 0.65L35.5 0.8L35.05 3.05L34.5 4.85L33.15 8.7L33.05 8.95L32.85 8.9L30.7 7.85L30.5 7.8L29.85 7.5L29.4 7.25L29.3 7.15L29.25 7" />
<path style="fill:#662616;fill-opacity:1" d="M7.4,30.8L7.4 30.95L7.6 31.55L8.25 34.5L4.65 39.35Q3.8 40.5 3.5 39.35L2.3 35.7L-1.8 34.75Q-2.35 34.3 -1.7 33.7L3.25 29.75L6.2 30.2L6.3 30.25L7.3 30.45L7.35 30.7L7.4 30.8M3.8,37.75L4.1 39L7.35 34.55L6.75 31.15L6.25 31.05L3.9 30.8L3.2 30.65L-1 34.15L3 34.95L3.7 37.25L3.8 37.75" />
<path style="fill:#EE7557;fill-opacity:1" d="M0.5,33.8L3.45 34.05L3.7 37.25L3 34.95L-1 34.15L3.2 30.65L3.9 30.8L0.5 33.8" />
<path style="fill:#BB482E;fill-opacity:1" d="M3.8,37.75L3.7 37.25L3.45 34.05L0.5 33.8L3.9 30.8L6.25 31.05L6.3 34.15Q5.5 35.9 3.8 37.75" />
<path style="fill:#8C331D;fill-opacity:1" d="M6.3,34.15L6.25 31.05L6.75 31.15L7.35 34.55L4.1 39L3.8 37.75Q5.5 35.9 6.3 34.15" />
<path style="fill:none;stroke-width:1;stroke-linecap:round;stroke-linejoin:round;stroke-miterlimit:3;stroke:#662616;stroke-opacity:1" d="M7.35,30.7L7.3 30.45L6.3 30.25L6.2 30.2L3.25 29.75L-1.7 33.7Q-2.35 34.3 -1.8 34.75L2.3 35.7L3.5 39.35Q3.8 40.5 4.65 39.35L8.25 34.5L7.6 31.55L7.4 30.95L7.4 30.8L7.35 30.7z" />
</g>
</svg>
