<?xml version="1.0" encoding="utf-8"?>
<svg version="1.1" id="Layer_1"
xmlns="http://www.w3.org/2000/svg"
xmlns:xlink="http://www.w3.org/1999/xlink"
xmlns:author="http://www.sothink.com"
width="18px" height="17px"
xml:space="preserve">
<g id="949" transform="matrix(1, 0, 0, 1, 0.05, -0.1)">
<linearGradient
id="LinearGradID_1207" gradientUnits="userSpaceOnUse" gradientTransform="matrix(0.00177002, 0.00012207, -0.000213623, 0.00308228, 13.8, 8.3)" spreadMethod ="pad" x1="-819.2" y1="0" x2="819.2" y2="0" >
<stop  offset="0" style="stop-color:#EA7C47;stop-opacity:1" />
<stop  offset="1" style="stop-color:#BD2A22;stop-opacity:1" />
</linearGradient>
<path style="fill:url(#LinearGradID_1207) " d="M16.65,5.95L16.25 7.15L15 10.95L12.95 9.5L13.6 6.35L16.65 5.95L16.55 5.8L16.65 5.95" />
<path style="fill:#93330F;fill-opacity:1" d="M6.55,15.85L7.35 13.4L9.35 13.4L10.45 15.85L6.55 15.85" />
<linearGradient
id="LinearGradID_1208" gradientUnits="userSpaceOnUse" gradientTransform="matrix(-0.000473022, 0.00115967, -0.00343323, -0.00144958, 4.7, 12.45)" spreadMethod ="pad" x1="-819.2" y1="0" x2="819.2" y2="0" >
<stop  offset="0" style="stop-color:#9C2F11;stop-opacity:1" />
<stop  offset="1" style="stop-color:#E39447;stop-opacity:1" />
</linearGradient>
<path style="fill:url(#LinearGradID_1208) " d="M6.5,15.85L2 10.95L2.1 10.9L4.05 10.45L6.6 13.35L6.55 15.85L6.5 15.85" />
<path style="fill:#D03D20;fill-opacity:1" d="M12.4,9.45L9.7 12.95L7.05 12.95L4.45 9.8L3.7 6.25L6.3 3.65L10.5 3.6L13.05 6.2L12.4 9.45" />
<linearGradient
id="LinearGradID_1209" gradientUnits="userSpaceOnUse" gradientTransform="matrix(-0.00157166, 0.00120544, -0.00193787, -0.0025177, 2.7, 7.4)" spreadMethod ="pad" x1="-819.2" y1="0" x2="819.2" y2="0" >
<stop  offset="0.00392157" style="stop-color:#9C2F2F;stop-opacity:1" />
<stop  offset="1" style="stop-color:#D76D45;stop-opacity:1" />
</linearGradient>
<path style="fill:url(#LinearGradID_1209) " d="M2,10.95L1.95 10.75L1.9 10.5L0.75 7.15L0.5 6.45L0.4 6.15L0.35 5.95L2.95 6.8L3.75 9.85L2.1 10.9L2 10.95" />
<path style="fill:#FFD5BB;fill-opacity:1" d="M11.4,0.4L10.15 3.05L6.5 3.05L5.6 0.4L11.4 0.4" />
<path style="fill:#800909;fill-opacity:1" d="M15,10.95L16.25 7.15L16.65 5.95L16.55 5.8L16.35 5.65L16.25 5.55L11.4 0.4L5.6 0.4L0.75 5.55L0.55 5.75L0.35 5.95L0.4 6.15L0.5 6.45L0.75 7.15L1.9 10.5L1.95 10.75L2 10.95L6.5 15.85L6.55 15.85L10.45 15.85L10.5 15.85L15 10.95M17.05,5.9L16.65 7.15L15.35 11.05L10.65 16.15L6.35 16.15L1.65 11.05L0.35 7.15L-0.05 5.9L0.35 5.45L5.45 0.1L11.55 0.1L16.65 5.45L17.05 5.9" />
<linearGradient
id="LinearGradID_1210" gradientUnits="userSpaceOnUse" gradientTransform="matrix(-0.000106812, 0.00592041, -0.00994873, -0.000183105, 8.45, 7.8)" spreadMethod ="pad" x1="-819.2" y1="0" x2="819.2" y2="0" >
<stop  offset="0.0196078" style="stop-color:#FFE7E7;stop-opacity:1" />
<stop  offset="1" style="stop-color:#F79481;stop-opacity:1" />
</linearGradient>
<path style="fill:url(#LinearGradID_1210) " d="M12.55,10.05L10 13.25L10.45 15.85L9.35 13.4L7.35 13.4L6.55 15.85L6.6 13.35L4.05 10.45L2.1 10.9L3.75 9.85L2.95 6.8L0.35 5.95L1.2 6L2.9 6.15L5.75 3.1L5.6 0.4L6.5 3.05L10.15 3.05L11.4 0.4L10.9 3.1L13.5 5.75L16.35 5.65L16.55 5.8L16.65 5.95L13.6 6.35L12.95 9.5L15 10.95L12.55 10.05M13.05,6.2L10.5 3.6L6.3 3.65L3.7 6.25L4.45 9.8L7.05 12.95L9.7 12.95L12.4 9.45L13.05 6.2" />
<linearGradient
id="LinearGradID_1211" gradientUnits="userSpaceOnUse" gradientTransform="matrix(-0.00245667, 0.00219727, -0.00100708, -0.00111389, 4.5, 3.1)" spreadMethod ="pad" x1="-819.2" y1="0" x2="819.2" y2="0" >
<stop  offset="0.00784314" style="stop-color:#EE4F30;stop-opacity:1" />
<stop  offset="1" style="stop-color:#FF9A38;stop-opacity:1" />
</linearGradient>
<path style="fill:url(#LinearGradID_1211) " d="M5.6,0.4L5.75 3.1L2.9 6.15L1.2 6L0.35 5.95L0.55 5.75L0.75 5.55L5.6 0.4" />
<linearGradient
id="LinearGradID_1212" gradientUnits="userSpaceOnUse" gradientTransform="matrix(-0.000518799, -0.00270081, 0.00308228, -0.000595093, 13.65, 4.05)" spreadMethod ="pad" x1="-819.2" y1="0" x2="819.2" y2="0" >
<stop  offset="0.00392157" style="stop-color:#EE4F30;stop-opacity:1" />
<stop  offset="1" style="stop-color:#FFA46B;stop-opacity:1" />
</linearGradient>
<path style="fill:url(#LinearGradID_1212) " d="M16.35,5.65L13.5 5.75L10.9 3.1L11.4 0.4L16.25 5.55L16.35 5.65" />
<linearGradient
id="LinearGradID_1213" gradientUnits="userSpaceOnUse" gradientTransform="matrix(-0.000335693, 0.00186157, -0.00270081, -0.000473022, 12.55, 11.75)" spreadMethod ="pad" x1="-819.2" y1="0" x2="819.2" y2="0" >
<stop  offset="0" style="stop-color:#EDA172;stop-opacity:1" />
<stop  offset="1" style="stop-color:#AA270E;stop-opacity:1" />
</linearGradient>
<path style="fill:url(#LinearGradID_1213) " d="M10.5,15.85L10.45 15.85L10 13.25L12.55 10.05L15 10.95L10.5 15.85" />
</g>
</svg>
